# Branch
v -0.897149 -0.483545 -30.2256
vn -0.27509 -0.175936 -0.945184
v -0.889302 -0.519948 -30.2192
vn -0.254713 -0.270458 -0.928425
v -0.88051 -0.555348 -30.2093
vn -0.231884 -0.362376 -0.902726
v -0.870857 -0.589404 -30.196
vn -0.206821 -0.450804 -0.868332
v -0.860438 -0.621787 -30.1796
vn -0.179766 -0.53489 -0.825576
v -0.849352 -0.652187 -30.1601
vn -0.15098 -0.613825 -0.77487
v -0.837706 -0.68031 -30.1377
vn -0.12074 -0.686849 -0.716701
v -0.825612 -0.705886 -30.1126
vn -0.0893377 -0.753258 -0.65163
v -0.813187 -0.728668 -30.0851
vn -0.0570746 -0.812413 -0.580283
v -0.80055 -0.748436 -30.0555
vn -0.0242619 -0.863743 -0.503347
v -0.787823 -0.765001 -30.024
vn 0.0087845 -0.906756 -0.421565
v -0.775128 -0.778203 -29.9909
vn 0.0417463 -0.941036 -0.335722
v -0.762589 -0.787915 -29.9566
vn 0.0743061 -0.966253 -0.246646
v -0.750325 -0.794043 -29.9214
vn 0.10615 -0.982164 -0.155195
v -0.738455 -0.796528 -29.8856
vn 0.136972 -0.988617 -0.0622492
v -0.727092 -0.795346 -29.8496
vn 0.166475 -0.985549 0.0312961
v -0.716348 -0.790509 -29.8137
vn 0.194374 -0.972989 0.12454
v -0.706324 -0.782064 -29.7782
vn 0.220402 -0.95106 0.216584
v -0.697117 -0.770091 -29.7436
vn 0.244307 -0.91997 0.306543
v -0.688817 -0.754705 -29.7101
vn 0.265859 -0.880021 0.39355
v -0.681503 -0.736056 -29.678
vn 0.284851 -0.831597 0.476766
v -0.675245 -0.714322 -29.6477
vn 0.301099 -0.775165 0.555391
v -0.670104 -0.689714 -29.6195
vn 0.314448 -0.711267 0.628667
v -0.66613 -0.662467 -29.5936
vn 0.324769 -0.640519 0.695889
v -0.66336 -0.632845 -29.5703
vn 0.331961 -0.563602 0.756409
v -0.661821 -0.601132 -29.5498
vn 0.335957 -0.481258 0.809644
v -0.661528 -0.567634 -29.5323
vn 0.336718 -0.394279 0.855082
v -0.662484 -0.532674 -29.518
vn 0.334235 -0.303503 0.892285
v -0.66468 -0.496589 -29.507
vn 0.328534 -0.209804 0.920895
v -0.668094 -0.459725 -29.4994
vn 0.319669 -0.114084 0.940636
v -0.672694 -0.422438 -29.4953
vn 0.307725 -0.0172657 0.951319
v -0.678435 -0.385087 -29.4947
vn 0.292817 0.0797189 0.952839
v -0.685262 -0.348031 -29.4976
vn 0.27509 0.175936 0.945184
v -0.69311 -0.311629 -29.5041
vn 0.254713 0.270458 0.928425
v -0.701902 -0.276229 -29.514
vn 0.231884 0.362376 0.902726
v -0.711554 -0.242173 -29.5272
vn 0.206821 0.450804 0.868332
v -0.721974 -0.20979 -29.5437
vn 0.179766 0.53489 0.825576
v -0.73306 -0.17939 -29.5632
vn 0.15098 0.613825 0.77487
v -0.744706 -0.151267 -29.5856
vn 0.12074 0.686849 0.716701
v -0.7568 -0.125691 -29.6107
vn 0.0893377 0.753258 0.65163
v -0.769225 -0.102909 -29.6382
vn 0.0570746 0.812413 0.580283
v -0.781862 -0.0831406 -29.6678
vn 0.0242619 0.863743 0.503347
v -0.794589 -0.0665755 -29.6993
vn -0.0087845 0.906756 0.421565
v -0.807283 -0.0533736 -29.7323
vn -0.0417463 0.941036 0.335722
v -0.819823 -0.0436619 -29.7666
vn -0.0743061 0.966253 0.246646
v -0.832087 -0.0375339 -29.8019
vn -0.10615 0.982164 0.155195
v -0.843957 -0.0350488 -29.8377
vn -0.136972 0.988617 0.0622492
v -0.855319 -0.0362304 -29.8737
vn -0.166475 0.985549 -0.0312961
v -0.866064 -0.0410674 -29.9096
vn -0.194374 0.972989 -0.12454
v -0.876088 -0.0495131 -29.945
vn -0.220402 0.95106 -0.216584
v -0.885294 -0.0614863 -29.9797
vn -0.244307 0.91997 -0.306543
v -0.893594 -0.0768715 -30.0132
vn -0.265859 0.880021 -0.39355
v -0.900909 -0.0955208 -30.0452
vn -0.284851 0.831597 -0.476766
v -0.907166 -0.117254 -30.0755
vn -0.301099 0.775165 -0.555391
v -0.912307 -0.141863 -30.1037
vn -0.314448 0.711267 -0.628667
v -0.916282 -0.16911 -30.1296
vn -0.324769 0.640519 -0.695889
v -0.919052 -0.198732 -30.1529
vn -0.331961 0.563602 -0.756409
v -0.920591 -0.230445 -30.1734
vn -0.335957 0.481258 -0.809644
v -0.920884 -0.263942 -30.1909
vn -0.336718 0.394279 -0.855082
v -0.919928 -0.298902 -30.2053
vn -0.334235 0.303503 -0.892285
v -0.917732 -0.334988 -30.2163
vn -0.328534 0.209804 -0.920895
v -0.914318 -0.371852 -30.2239
vn -0.319669 0.114084 -0.940636
v -0.909718 -0.409139 -30.228
vn -0.307725 0.0172657 -0.951319
v -0.903977 -0.44649 -30.2286
vn -0.292817 -0.0797189 -0.952839
v 0.790312 -0.204594 -30.68
vn -0.186234 -0.161257 -0.969182
v 0.797926 -0.240695 -30.6735
vn -0.166285 -0.25585 -0.952308
v 0.806151 -0.275856 -30.6636
vn -0.144735 -0.347979 -0.926263
v 0.814907 -0.309738 -30.6503
vn -0.121791 -0.436757 -0.891297
v 0.824111 -0.342014 -30.6336
vn -0.0976736 -0.521329 -0.847748
v 0.833674 -0.372375 -30.6139
vn -0.0726159 -0.60088 -0.796034
v 0.843505 -0.400527 -30.5912
vn -0.046859 -0.674644 -0.736655
v 0.853507 -0.426199 -30.5659
vn -0.0206507 -0.741911 -0.67018
v 0.863585 -0.449145 -30.538
vn 0.00575636 -0.802033 -0.597252
v 0.873642 -0.469142 -30.508
vn 0.032108 -0.854431 -0.518572
v 0.883581 -0.486 -30.4761
vn 0.0581505 -0.8986 -0.434897
v 0.893307 -0.499554 -30.4425
vn 0.0836329 -0.934116 -0.347035
v 0.902725 -0.509675 -30.4077
vn 0.10831 -0.960635 -0.25583
v 0.911744 -0.516265 -30.372
vn 0.131944 -0.977903 -0.162161
v 0.920279 -0.519261 -30.3356
vn 0.154307 -0.985753 -0.066931
v 0.928247 -0.518634 -30.299
vn 0.175184 -0.98411 0.0289438
v 0.935571 -0.51439 -30.2626
vn 0.194374 -0.972989 0.12454
v 0.94218 -0.50657 -30.2265
vn 0.211692 -0.952498 0.218937
v 0.948012 -0.495248 -30.1913
vn 0.226972 -0.922834 0.311225
v 0.953009 -0.480535 -30.1572
vn 0.240065 -0.884283 0.400516
v 0.957124 -0.462572 -30.1246
vn 0.250847 -0.837215 0.48595
v 0.960316 -0.441531 -30.0938
vn 0.259213 -0.782084 0.566704
v 0.962556 -0.417616 -30.0651
vn 0.265082 -0.719422 0.642
v 0.963822 -0.391057 -30.0387
vn 0.268399 -0.649831 0.711113
v 0.964101 -0.362109 -30.0149
vn 0.26913 -0.573982 0.773378
v 0.963391 -0.331052 -29.994
vn 0.26727 -0.492605 0.828195
v 0.961699 -0.298184 -29.9761
vn 0.262836 -0.406484 0.875036
v 0.959041 -0.263822 -29.9615
vn 0.255871 -0.316448 0.91345
v 0.955442 -0.228297 -29.9502
vn 0.246441 -0.223365 0.943067
v 0.950938 -0.191951 -29.9423
vn 0.234638 -0.128131 0.963601
v 0.945571 -0.155134 -29.938
vn 0.220576 -0.0316628 0.974856
v 0.939393 -0.118201 -29.9373
vn 0.204389 0.0651104 0.976722
v 0.932464 -0.081507 -29.9402
vn 0.186234 0.161257 0.969182
v 0.924851 -0.0454057 -29.9466
vn 0.166285 0.25585 0.952308
v 0.916626 -0.0102448 -29.9566
vn 0.144735 0.347979 0.926263
v 0.907869 0.0236372 -29.9699
vn 0.121791 0.436757 0.891297
v 0.898665 0.0559138 -29.9865
vn 0.0976736 0.521329 0.847748
v 0.889102 0.0862743 -30.0063
vn 0.0726159 0.60088 0.796034
v 0.879272 0.114426 -30.0289
vn 0.046859 0.674644 0.736655
v 0.86927 0.140099 -30.0543
vn 0.0206507 0.741911 0.67018
v 0.859191 0.163044 -30.0821
vn -0.00575636 0.802033 0.597252
v 0.849134 0.183042 -30.1122
vn -0.032108 0.854431 0.518572
v 0.839195 0.199899 -30.1441
vn -0.0581505 0.8986 0.434897
v 0.82947 0.213453 -30.1776
vn -0.0836329 0.934116 0.347035
v 0.820052 0.223574 -30.2125
vn -0.10831 0.960635 0.25583
v 0.811032 0.230165 -30.2482
vn -0.131944 0.977903 0.162161
v 0.802497 0.233161 -30.2845
vn -0.154307 0.985753 0.066931
v 0.794529 0.232534 -30.3211
vn -0.175184 0.98411 -0.0289438
v 0.787206 0.228289 -30.3576
vn -0.194374 0.972989 -0.12454
v 0.780596 0.220469 -30.3936
vn -0.211692 0.952498 -0.218937
v 0.774765 0.209148 -30.4289
vn -0.226972 0.922834 -0.311225
v 0.769768 0.194435 -30.4629
vn -0.240065 0.884283 -0.400516
v 0.765653 0.176471 -30.4956
vn -0.250847 0.837215 -0.48595
v 0.76246 0.155431 -30.5264
vn -0.259213 0.782084 -0.566704
v 0.76022 0.131516 -30.5551
vn -0.265082 0.719422 -0.642
v 0.758954 0.104957 -30.5815
vn -0.268399 0.649831 -0.711113
v 0.758675 0.0760089 -30.6052
vn -0.26913 0.573982 -0.773378
v 0.759385 0.0449515 -30.6262
vn -0.26727 0.492605 -0.828195
v 0.761077 0.0120836 -30.644
vn -0.262836 0.406484 -0.875036
v 0.763736 -0.0222783 -30.6587
vn -0.255871 0.316448 -0.91345
v 0.767334 -0.0578033 -30.67
vn -0.246441 0.223365 -0.943067
v 0.771839 -0.0941493 -30.6778
vn -0.234638 0.128131 -0.963601
v 0.777206 -0.130966 -30.6821
vn -0.220576 0.0316628 -0.974856
v 0.783384 -0.1679 -30.6829
vn -0.204389 -0.0651104 -0.976722
v 2.43349 0.0886722 -30.9534
vn -0.0865837 -0.143484 -0.985858
v 2.44085 0.0528672 -30.9469
vn -0.0671147 -0.238163 -0.968904
v 2.44846 0.0179297 -30.937
vn -0.0469995 -0.330548 -0.942618
v 2.45624 -0.015804 -30.9236
vn -0.0264315 -0.419749 -0.907255
v 2.46411 -0.048009 -30.907
vn -0.00560906 -0.504909 -0.863154
v 2.47201 -0.078375 -30.8871
vn 0.0152674 -0.585206 -0.810741
v 2.47985 -0.10661 -30.8644
vn 0.0359969 -0.659866 -0.75052
v 2.48755 -0.132441 -30.8389
vn 0.0563797 -0.728173 -0.683071
v 2.49506 -0.155621 -30.8109
vn 0.0762195 -0.789466 -0.609044
v 2.50228 -0.175925 -30.7806
vn 0.0953253 -0.843156 -0.529151
v 2.50916 -0.193158 -30.7485
vn 0.113513 -0.888727 -0.444162
v 2.51562 -0.207155 -30.7147
vn 0.130608 -0.925738 -0.354896
v 2.52161 -0.21778 -30.6797
vn 0.146444 -0.953834 -0.262212
v 2.52707 -0.224932 -30.6437
vn 0.160871 -0.972744 -0.167002
v 2.53194 -0.22854 -30.6071
vn 0.173748 -0.982286 -0.0701844
v 2.53618 -0.228571 -30.5702
vn 0.184952 -0.982368 0.0273093
v 2.53974 -0.225024 -30.5334
vn 0.194374 -0.972989 0.12454
v 2.5426 -0.217934 -30.4971
vn 0.201925 -0.95424 0.220571
v 2.54472 -0.207368 -30.4616
vn 0.207531 -0.926301 0.314478
v 2.54608 -0.193429 -30.4272
vn 0.211139 -0.889442 0.405357
v 2.54667 -0.17625 -30.3943
vn 0.212713 -0.844016 0.492331
v 2.5465 -0.155998 -30.3632
vn 0.212238 -0.790462 0.574565
v 2.54554 -0.132866 -30.3342
vn 0.20972 -0.729296 0.651264
v 2.54383 -0.107078 -30.3076
vn 0.205181 -0.661106 0.721692
v 2.54136 -0.0788831 -30.2836
vn 0.198667 -0.586549 0.78517
v 2.53818 -0.0485515 -30.2625
vn 0.19024 -0.506343 0.841086
v 2.5343 -0.0163758 -30.2444
vn 0.17998 -0.421261 0.888902
v 2.52976 0.0173342 -30.2295
vn 0.167987 -0.332123 0.928157
v 2.52461 0.0522537 -30.2181
vn 0.154377 -0.239785 0.958473
v 2.5189 0.0880465 -30.2101
vn 0.139279 -0.145138 0.979559
v 2.51269 0.124368 -30.2057
vn 0.122841 -0.0490939 0.991211
v 2.50602 0.160868 -30.2049
vn 0.105219 0.0474234 0.993318
v 2.49898 0.197196 -30.2077
vn 0.0865837 0.143484 0.985858
v 2.49161 0.233001 -30.2141
vn 0.0671147 0.238163 0.968904
v 2.48401 0.267938 -30.2241
vn 0.0469995 0.330548 0.942618
v 2.47623 0.301672 -30.2374
vn 0.0264315 0.419749 0.907255
v 2.46835 0.333877 -30.2541
vn 0.00560906 0.504909 0.863154
v 2.46046 0.364243 -30.2739
vn -0.0152674 0.585206 0.810741
v 2.45262 0.392478 -30.2967
vn -0.0359969 0.659866 0.75052
v 2.44491 0.418309 -30.3222
vn -0.0563797 0.728173 0.683071
v 2.43741 0.441489 -30.3502
vn -0.0762195 0.789466 0.609044
v 2.43018 0.461793 -30.3804
vn -0.0953253 0.843156 0.529151
v 2.4233 0.479026 -30.4126
vn -0.113513 0.888727 0.444162
v 2.41684 0.493023 -30.4463
vn -0.130608 0.925738 0.354896
v 2.41085 0.503648 -30.4814
vn -0.146444 0.953834 0.262212
v 2.4054 0.510799 -30.5174
vn -0.160871 0.972744 0.167002
v 2.40053 0.514408 -30.554
vn -0.173748 0.982286 0.0701844
v 2.39629 0.514439 -30.5909
vn -0.184952 0.982368 -0.0273093
v 2.39273 0.510892 -30.6276
vn -0.194374 0.972989 -0.12454
v 2.38987 0.503802 -30.6639
vn -0.201925 0.95424 -0.220571
v 2.38775 0.493236 -30.6995
vn -0.207531 0.926301 -0.314478
v 2.38639 0.479297 -30.7338
vn -0.211139 0.889442 -0.405357
v 2.38579 0.462118 -30.7667
vn -0.212713 0.844016 -0.492331
v 2.38597 0.441865 -30.7978
vn -0.212238 0.790462 -0.574565
v 2.38692 0.418734 -30.8268
vn -0.20972 0.729296 -0.651264
v 2.38864 0.392946 -30.8535
vn -0.205181 0.661106 -0.721692
v 2.3911 0.364751 -30.8775
vn -0.198667 0.586549 -0.78517
v 2.39429 0.334419 -30.8986
vn -0.19024 0.506343 -0.841086
v 2.39817 0.302244 -30.9167
vn -0.17998 0.421261 -0.888902
v 2.4027 0.268534 -30.9315
vn -0.167987 0.332123 -0.928157
v 2.40785 0.233614 -30.943
vn -0.154377 0.239785 -0.958473
v 2.41356 0.197821 -30.951
vn -0.139279 0.145138 -0.979559
v 2.41978 0.1615 -30.9554
vn -0.122841 0.0490939 -0.991211
v 2.42644 0.125 -30.9562
vn -0.105219 -0.0474234 -0.993318
v 4.03166 0.396242 -31.0447
vn 0.0222325 -0.122559 -0.992212
v 4.03876 0.360728 -31.0384
vn 0.0411775 -0.217339 -0.975227
v 4.04571 0.325999 -31.0285
vn 0.0597259 -0.310025 -0.948851
v 4.05244 0.292388 -31.0152
vn 0.0776991 -0.399726 -0.913336
v 4.05889 0.26022 -30.9986
vn 0.094924 -0.485577 -0.869025
v 4.06501 0.229804 -30.9788
vn 0.111235 -0.566751 -0.816345
v 4.07072 0.201433 -30.9562
vn 0.126474 -0.642468 -0.755804
v 4.07597 0.17538 -30.9307
vn 0.140496 -0.711997 -0.687983
v 4.08072 0.151897 -30.9029
vn 0.153164 -0.77467 -0.613537
v 4.08491 0.131209 -30.8727
vn 0.164358 -0.829882 -0.533182
v 4.08851 0.113516 -30.8407
vn 0.173968 -0.877101 -0.447692
v 4.09149 0.0989883 -30.8071
vn 0.181903 -0.915874 -0.357891
v 4.0938 0.0877652 -30.7721
vn 0.188086 -0.945826 -0.264643
v 4.09544 0.0799552 -30.7362
vn 0.192458 -0.96667 -0.168847
v 4.09638 0.0756334 -30.6997
vn 0.194977 -0.978204 -0.071424
v 4.09662 0.0748416 -30.663
vn 0.195618 -0.980317 0.0266865
v 4.09616 0.0775872 -30.6263
vn 0.194374 -0.972989 0.12454
v 4.09499 0.083844 -30.5901
vn 0.191259 -0.956291 0.221194
v 4.09313 0.0935515 -30.5547
vn 0.186302 -0.930384 0.315718
v 4.0906 0.106616 -30.5204
vn 0.179551 -0.895516 0.407201
v 4.08743 0.122913 -30.4876
vn 0.17107 -0.852024 0.494763
v 4.08363 0.142284 -30.4566
vn 0.160943 -0.800326 0.57756
v 4.07926 0.164543 -30.4276
vn 0.149265 -0.740921 0.654795
v 4.07434 0.189475 -30.401
vn 0.136149 -0.67438 0.725723
v 4.06894 0.216842 -30.3771
vn 0.121723 -0.601345 0.789663
v 4.06309 0.246378 -30.356
vn 0.106124 -0.522519 0.845998
v 4.05686 0.277799 -30.3379
vn 0.0895029 -0.43866 0.894185
v 4.05031 0.310804 -30.3231
vn 0.0720201 -0.350577 0.933761
v 4.0435 0.345074 -30.3116
vn 0.0538437 -0.259117 0.964344
v 4.0365 0.380278 -30.3036
vn 0.0351487 -0.165162 0.98564
v 4.02937 0.416079 -30.2992
vn 0.0161152 -0.0696167 0.997444
v 4.02218 0.452131 -30.2984
vn -0.00307345 0.0265992 0.999641
v 4.015 0.488087 -30.3012
vn -0.0222325 0.122559 0.992212
v 4.0079 0.5236 -30.3075
vn -0.0411775 0.217339 0.975227
v 4.00095 0.55833 -30.3174
vn -0.0597259 0.310025 0.948851
v 3.99421 0.591941 -30.3307
vn -0.0776991 0.399726 0.913336
v 3.98776 0.624109 -30.3473
vn -0.094924 0.485577 0.869025
v 3.98165 0.654525 -30.3671
vn -0.111235 0.566751 0.816345
v 3.97594 0.682896 -30.3898
vn -0.126474 0.642468 0.755804
v 3.97068 0.708948 -30.4152
vn -0.140496 0.711997 0.687983
v 3.96594 0.732431 -30.4431
vn -0.153164 0.77467 0.613537
v 3.96174 0.753119 -30.4732
vn -0.164358 0.829882 0.533182
v 3.95814 0.770812 -30.5052
vn -0.173968 0.877101 0.447692
v 3.95517 0.78534 -30.5389
vn -0.181903 0.915874 0.357891
v 3.95285 0.796563 -30.5738
vn -0.188086 0.945826 0.264643
v 3.95121 0.804373 -30.6097
vn -0.192458 0.96667 0.168847
v 3.95027 0.808695 -30.6462
vn -0.194977 0.978204 0.071424
v 3.95003 0.809487 -30.683
vn -0.195618 0.980317 -0.0266865
v 3.9505 0.806741 -30.7196
vn -0.194374 0.972989 -0.12454
v 3.95166 0.800484 -30.7558
vn -0.191259 0.956291 -0.221194
v 3.95352 0.790777 -30.7913
vn -0.186302 0.930384 -0.315718
v 3.95605 0.777712 -30.8255
vn -0.179551 0.895516 -0.407201
v 3.95923 0.761416 -30.8583
vn -0.17107 0.852024 -0.494763
v 3.96302 0.742045 -30.8894
vn -0.160943 0.800326 -0.57756
v 3.9674 0.719786 -30.9183
vn -0.149265 0.740921 -0.654795
v 3.97231 0.694853 -30.9449
vn -0.136149 0.67438 -0.725723
v 3.97772 0.667487 -30.9688
vn -0.121723 0.601345 -0.789663
v 3.98356 0.637951 -30.99
vn -0.106124 0.522519 -0.845998
v 3.98979 0.606529 -31.008
vn -0.0895029 0.43866 -0.894185
v 3.99634 0.573525 -31.0228
vn -0.0720201 0.350577 -0.933761
v 4.00315 0.539255 -31.0343
vn -0.0538437 0.259117 -0.964344
v 4.01016 0.50405 -31.0423
vn -0.0351487 0.165162 -0.98564
v 4.01729 0.468249 -31.0467
vn -0.0161152 0.0696167 -0.997444
v 4.02448 0.432198 -31.0475
vn 0.00307345 -0.0265992 -0.999641
v 5.58355 0.717972 -30.9533
vn 0.137059 -0.098777 -0.985626
v 5.59038 0.682746 -30.947
vn 0.155452 -0.193671 -0.968672
v 5.59665 0.648211 -30.9372
vn 0.172346 -0.2867 -0.942391
v 5.60231 0.614702 -30.9241
vn 0.187582 -0.376968 -0.907033
v 5.60729 0.58254 -30.9077
vn 0.20101 -0.463605 -0.86294
v 5.61156 0.552036 -30.8883
vn 0.212503 -0.545778 -0.810536
v 5.61506 0.523483 -30.8659
vn 0.221949 -0.622694 -0.750327
v 5.61778 0.497156 -30.8409
vn 0.229258 -0.693614 -0.682892
v 5.61967 0.473308 -30.8134
vn 0.234359 -0.757853 -0.608879
v 5.62073 0.452171 -30.7838
vn 0.237203 -0.814794 -0.529004
v 5.62093 0.433946 -30.7522
vn 0.237763 -0.863889 -0.444033
v 5.62029 0.418809 -30.7191
vn 0.236032 -0.904663 -0.354786
v 5.61881 0.406907 -30.6847
vn 0.232029 -0.936725 -0.262123
v 5.61649 0.398354 -30.6494
vn 0.225791 -0.959766 -0.166935
v 5.61337 0.393232 -30.6134
vn 0.217378 -0.973564 -0.0701391
v 5.60947 0.39159 -30.5772
vn 0.206873 -0.977986 0.0273321
v 5.60483 0.393445 -30.5411
vn 0.194374 -0.972989 0.12454
v 5.59949 0.398778 -30.5055
vn 0.180004 -0.958622 0.220548
v 5.59352 0.407539 -30.4707
vn 0.1639 -0.935023 0.314433
v 5.58695 0.419642 -30.4369
vn 0.146218 -0.902419 0.405289
v 5.57986 0.434972 -30.4046
vn 0.127128 -0.861125 0.492243
v 5.57232 0.45338 -30.3741
vn 0.106813 -0.811537 0.574455
v 5.5644 0.474689 -30.3457
vn 0.0854702 -0.754134 0.651135
v 5.55617 0.498695 -30.3195
vn 0.0633038 -0.689468 0.721545
v 5.54772 0.525165 -30.296
vn 0.0405277 -0.618162 0.785006
v 5.53912 0.553845 -30.2752
vn 0.0173614 -0.540902 0.840906
v 5.53046 0.58446 -30.2575
vn -0.0059722 -0.458434 0.888708
v 5.52181 0.616713 -30.2429
vn -0.0292482 -0.371551 0.927952
v 5.51328 0.650294 -30.2317
vn -0.0522426 -0.281089 0.958259
v 5.50493 0.68488 -30.2238
vn -0.0747338 -0.18792 0.979337
v 5.49685 0.720139 -30.2195
vn -0.0965054 -0.0929418 0.990984
v 5.48911 0.755729 -30.2187
vn -0.117347 0.00293167 0.993087
v 5.48179 0.791309 -30.2215
vn -0.137059 0.098777 0.985626
v 5.47496 0.826536 -30.2278
vn -0.155452 0.193671 0.968672
v 5.46869 0.86107 -30.2375
vn -0.172346 0.2867 0.942391
v 5.46304 0.894579 -30.2507
vn -0.187582 0.376968 0.907033
v 5.45805 0.926741 -30.267
vn -0.20101 0.463605 0.86294
v 5.45379 0.957246 -30.2865
vn -0.212503 0.545778 0.810536
v 5.45028 0.985799 -30.3088
vn -0.221949 0.622694 0.750327
v 5.44757 1.01213 -30.3339
vn -0.229258 0.693614 0.682892
v 5.44567 1.03597 -30.3614
vn -0.234359 0.757853 0.608879
v 5.44462 1.05711 -30.391
vn -0.237203 0.814794 0.529004
v 5.44441 1.07534 -30.4225
vn -0.237763 0.863889 0.444033
v 5.44505 1.09047 -30.4557
vn -0.236032 0.904663 0.354786
v 5.44654 1.10237 -30.4901
vn -0.232029 0.936725 0.262123
v 5.44885 1.11093 -30.5254
vn -0.225791 0.959766 0.166935
v 5.45198 1.11605 -30.5613
vn -0.217378 0.973564 0.0701391
v 5.45588 1.11769 -30.5975
vn -0.206873 0.977986 -0.0273321
v 5.46052 1.11584 -30.6336
vn -0.194374 0.972989 -0.12454
v 5.46585 1.1105 -30.6693
vn -0.180004 0.958622 -0.220548
v 5.47183 1.10174 -30.7041
vn -0.1639 0.935023 -0.314433
v 5.47839 1.08964 -30.7378
vn -0.146218 0.902419 -0.405289
v 5.48548 1.07431 -30.7701
vn -0.127128 0.861125 -0.492243
v 5.49302 1.0559 -30.8006
vn -0.106813 0.811537 -0.574455
v 5.50094 1.03459 -30.8291
vn -0.0854702 0.754134 -0.651135
v 5.50917 1.01059 -30.8552
vn -0.0633038 0.689468 -0.721545
v 5.51763 0.984116 -30.8788
vn -0.0405277 0.618162 -0.785006
v 5.52623 0.955436 -30.8995
vn -0.0173614 0.540902 -0.840906
v 5.53489 0.924822 -30.9173
vn 0.0059722 0.458434 -0.888708
v 5.54353 0.892569 -30.9319
vn 0.0292482 0.371551 -0.927952
v 5.55207 0.858987 -30.9431
vn 0.0522426 0.281089 -0.958259
v 5.56041 0.824401 -30.9509
vn 0.0747338 0.18792 -0.979337
v 5.5685 0.789143 -30.9553
vn 0.0965054 0.0929418 -0.990984
v 5.57623 0.753552 -30.956
vn 0.117347 -0.00293167 -0.993087
v 7.08746 1.05357 -30.6785
vn 0.253409 -0.0728441 -0.964613
v 7.09402 1.01863 -30.6723
vn 0.271241 -0.167863 -0.947761
v 7.09961 0.984283 -30.6628
vn 0.286461 -0.261265 -0.921781
v 7.10419 0.95086 -30.65
vn 0.298921 -0.352151 -0.886925
v 7.10772 0.918684 -30.634
vn 0.308503 -0.439646 -0.843526
v 7.11015 0.888065 -30.615
vn 0.315114 -0.522907 -0.792005
v 7.11146 0.859299 -30.5933
vn 0.318691 -0.601132 -0.732855
v 7.11165 0.832661 -30.5689
vn 0.319198 -0.673567 -0.666648
v 7.11071 0.808408 -30.5422
vn 0.316631 -0.739516 -0.594021
v 7.10864 0.786775 -30.5134
vn 0.311014 -0.798343 -0.515673
v 7.10548 0.767969 -30.4828
vn 0.302403 -0.849481 -0.432359
v 7.10124 0.752171 -30.4506
vn 0.290879 -0.892439 -0.344881
v 7.09597 0.739534 -30.4172
vn 0.276554 -0.926801 -0.254081
v 7.08972 0.73018 -30.3829
vn 0.259565 -0.952238 -0.160835
v 7.08255 0.724198 -30.3481
vn 0.240077 -0.968505 -0.0660396
v 7.07454 0.721646 -30.313
vn 0.218277 -0.975444 0.0293917
v 7.06575 0.722549 -30.278
vn 0.194374 -0.972989 0.12454
v 7.05627 0.726897 -30.2434
vn 0.1686 -0.961164 0.218489
v 7.04619 0.73465 -30.2097
vn 0.141202 -0.940083 0.310334
v 7.03562 0.745732 -30.177
vn 0.112444 -0.909947 0.39919
v 7.02464 0.760037 -30.1457
vn 0.0826029 -0.871049 0.484201
v 7.01338 0.777427 -30.1162
vn 0.0519666 -0.823762 0.56455
v 7.00193 0.797734 -30.0886
vn 0.0208297 -0.768541 0.639461
v 6.9904 0.820763 -30.0633
vn -0.0105077 -0.705919 0.708214
v 6.97892 0.846292 -30.0406
vn -0.041744 -0.636499 0.770147
v 6.96758 0.874076 -30.0205
vn -0.0725782 -0.560949 0.824663
v 6.95649 0.903846 -30.0034
vn -0.102713 -0.479996 0.871237
v 6.94578 0.935316 -29.9893
vn -0.13186 -0.394421 0.90942
v 6.93552 0.968183 -29.9785
vn -0.159736 -0.305048 0.938845
v 6.92584 1.00213 -29.971
vn -0.186074 -0.212736 0.959229
v 6.91681 1.03683 -29.9669
vn -0.210619 -0.118376 0.970374
v 6.90853 1.07195 -29.9663
vn -0.233137 -0.0228763 0.972175
v 6.90108 1.10715 -29.9691
vn -0.253409 0.0728441 0.964613
v 6.89452 1.14209 -29.9752
vn -0.271241 0.167863 0.947761
v 6.88892 1.17644 -29.9848
vn -0.286461 0.261265 0.921781
v 6.88434 1.20987 -29.9976
vn -0.298921 0.352151 0.886925
v 6.88082 1.24204 -30.0136
vn -0.308503 0.439646 0.843526
v 6.87838 1.27266 -30.0325
vn -0.315114 0.522907 0.792005
v 6.87707 1.30143 -30.0543
vn -0.318691 0.601132 0.732855
v 6.87688 1.32807 -30.0786
vn -0.319198 0.673567 0.666648
v 6.87783 1.35232 -30.1053
vn -0.316631 0.739516 0.594021
v 6.87989 1.37395 -30.1341
vn -0.311014 0.798343 0.515673
v 6.88306 1.39276 -30.1648
vn -0.302403 0.849481 0.432359
v 6.8873 1.40856 -30.197
vn -0.290879 0.892439 0.344881
v 6.89257 1.42119 -30.2303
vn -0.276554 0.926801 0.254081
v 6.89881 1.43055 -30.2646
vn -0.259565 0.952238 0.160835
v 6.90598 1.43653 -30.2995
vn -0.240077 0.968505 0.0660396
v 6.914 1.43908 -30.3346
vn -0.218277 0.975444 -0.0293917
v 6.92279 1.43818 -30.3696
vn -0.194374 0.972989 -0.12454
v 6.93227 1.43383 -30.4041
vn -0.1686 0.961164 -0.218489
v 6.94234 1.42608 -30.4379
vn -0.141202 0.940083 -0.310334
v 6.95292 1.41499 -30.4706
vn -0.112444 0.909947 -0.39919
v 6.96389 1.40069 -30.5019
vn -0.0826029 0.871049 -0.484201
v 6.97516 1.3833 -30.5314
vn -0.0519666 0.823762 -0.56455
v 6.98661 1.36299 -30.5589
vn -0.0208297 0.768541 -0.639461
v 6.99813 1.33996 -30.5842
vn 0.0105077 0.705919 -0.708214
v 7.00962 1.31443 -30.607
vn 0.041744 0.636499 -0.770147
v 7.02096 1.28665 -30.6271
vn 0.0725782 0.560949 -0.824663
v 7.03204 1.25688 -30.6442
vn 0.102713 0.479996 -0.871237
v 7.04276 1.22541 -30.6582
vn 0.13186 0.394421 -0.90942
v 7.05301 1.19254 -30.669
vn 0.159736 0.305048 -0.938845
v 7.0627 1.1586 -30.6765
vn 0.186074 0.212736 -0.959229
v 7.07172 1.1239 -30.6806
vn 0.210619 0.118376 -0.970374
v 7.08 1.08878 -30.6813
vn 0.233137 0.0228763 -0.972175
v 8.5415 1.40264 -30.2207
vn 0.366187 -0.0458091 -0.929413
v 8.5478 1.36798 -30.2147
vn 0.383475 -0.140958 -0.912731
v 8.55275 1.33382 -30.2054
vn 0.397071 -0.23475 -0.887258
v 8.55631 1.30048 -30.193
vn 0.406843 -0.326281 -0.853241
v 8.55845 1.26828 -30.1776
vn 0.412696 -0.414669 -0.811006
v 8.55913 1.23754 -30.1594
vn 0.414575 -0.499064 -0.760961
v 8.55836 1.20854 -30.1385
vn 0.412462 -0.578653 -0.703588
v 8.55614 1.18158 -30.1151
vn 0.406376 -0.652669 -0.639439
v 8.5525 1.15691 -30.0895
vn 0.396377 -0.720399 -0.569131
v 8.54747 1.13477 -30.0619
vn 0.38256 -0.781192 -0.493343
v 8.54109 1.11536 -30.0326
vn 0.365059 -0.834461 -0.412803
v 8.53344 1.09888 -30.0018
vn 0.344042 -0.879694 -0.328288
v 8.52457 1.08549 -29.9698
vn 0.319712 -0.916455 -0.240611
v 8.51459 1.07532 -29.937
vn 0.292303 -0.944391 -0.150617
v 8.50358 1.06845 -29.9037
vn 0.262079 -0.963231 -0.0591725
v 8.49165 1.06497 -29.8702
vn 0.229331 -0.972794 0.0328418
v 8.47892 1.0649 -29.8368
vn 0.194374 -0.972989 0.12454
v 8.4655 1.06824 -29.8038
vn 0.157546 -0.963814 0.215039
v 8.45153 1.07496 -29.7716
vn 0.1192 -0.945357 0.303466
v 8.43715 1.085 -29.7405
vn 0.0797062 -0.917795 0.388972
v 8.42248 1.09826 -29.7107
vn 0.0394449 -0.881395 0.470731
v 8.40768 1.11462 -29.6826
vn -0.00119639 -0.836506 0.547957
v 8.39288 1.1339 -29.6564
vn -0.0418261 -0.783561 0.619905
v 8.37822 1.15594 -29.6323
vn -0.082053 -0.72307 0.685884
v 8.36386 1.18051 -29.6107
vn -0.12149 -0.655615 0.745257
v 8.34992 1.20738 -29.5917
vn -0.159756 -0.581847 0.797453
v 8.33654 1.23629 -29.5755
vn -0.196485 -0.502475 0.841969
v 8.32385 1.26697 -29.5622
vn -0.23132 -0.418264 0.878377
v 8.31197 1.29911 -29.552
vn -0.263929 -0.330025 0.906325
v 8.30102 1.33241 -29.545
vn -0.293995 -0.238607 0.925545
v 8.2911 1.36655 -29.5413
vn -0.32123 -0.144892 0.935851
v 8.2823 1.4012 -29.5408
vn -0.345371 -0.0497811 0.937145
v 8.27472 1.43602 -29.5436
vn -0.366187 0.0458091 0.929413
v 8.26842 1.47068 -29.5497
vn -0.383475 0.140958 0.912731
v 8.26347 1.50484 -29.559
vn -0.397071 0.23475 0.887258
v 8.25991 1.53819 -29.5714
vn -0.406843 0.326281 0.853241
v 8.25778 1.57038 -29.5868
vn -0.412696 0.414669 0.811006
v 8.25709 1.60113 -29.605
vn -0.414575 0.499064 0.760961
v 8.25786 1.63012 -29.6259
vn -0.412462 0.578653 0.703588
v 8.26008 1.65708 -29.6493
vn -0.406376 0.652669 0.639439
v 8.26372 1.68175 -29.6749
vn -0.396377 0.720399 0.569131
v 8.26876 1.7039 -29.7025
vn -0.38256 0.781192 0.493343
v 8.27513 1.7233 -29.7318
vn -0.365059 0.834461 0.412803
v 8.28279 1.73978 -29.7626
vn -0.344042 0.879694 0.328288
v 8.29165 1.75317 -29.7945
vn -0.319712 0.916455 0.240611
v 8.30163 1.76335 -29.8273
vn -0.292303 0.944391 0.150617
v 8.31264 1.77021 -29.8606
vn -0.262079 0.963231 0.0591725
v 8.32457 1.77369 -29.8941
vn -0.229331 0.972794 -0.0328418
v 8.33731 1.77376 -29.9275
vn -0.194374 0.972989 -0.12454
v 8.35072 1.77042 -29.9605
vn -0.157546 0.963814 -0.215039
v 8.36469 1.7637 -29.9927
vn -0.1192 0.945357 -0.303466
v 8.37908 1.75366 -30.0239
vn -0.0797062 0.917795 -0.388972
v 8.39374 1.7404 -30.0537
vn -0.0394449 0.881395 -0.470731
v 8.40855 1.72405 -30.0818
vn 0.00119639 0.836506 -0.547957
v 8.42335 1.70476 -30.108
vn 0.0418261 0.783561 -0.619905
v 8.438 1.68273 -30.132
vn 0.082053 0.72307 -0.685884
v 8.45237 1.65815 -30.1537
vn 0.12149 0.655615 -0.745257
v 8.46631 1.63128 -30.1727
vn 0.159756 0.581847 -0.797453
v 8.47969 1.60237 -30.1889
vn 0.196485 0.502475 -0.841969
v 8.49238 1.57169 -30.2021
vn 0.23132 0.418264 -0.878377
v 8.50425 1.53955 -30.2123
vn 0.263929 0.330025 -0.906325
v 8.51521 1.50625 -30.2193
vn 0.293995 0.238607 -0.925545
v 8.52513 1.47211 -30.2231
vn 0.32123 0.144892 -0.935851
v 8.53392 1.43747 -30.2236
vn 0.345371 0.0497811 -0.937145
v 9.94405 1.76474 -29.5808
vn 0.470733 -0.0188645 -0.882074
v 9.9501 1.73036 -29.5749
vn 0.487519 -0.114143 -0.865619
v 9.95447 1.69638 -29.5659
vn 0.499609 -0.208323 -0.840829
v 9.95709 1.66313 -29.5541
vn 0.506887 -0.300496 -0.80794
v 9.95796 1.63092 -29.5394
vn 0.509285 -0.389776 -0.767271
v 9.95705 1.60006 -29.5221
vn 0.506777 -0.475301 -0.719212
v 9.95439 1.57085 -29.5022
vn 0.499389 -0.556249 -0.664227
v 9.94999 1.54358 -29.4801
vn 0.487191 -0.63184 -0.602845
v 9.94389 1.5185 -29.4558
vn 0.470302 -0.701347 -0.535657
v 9.93616 1.49586 -29.4297
vn 0.448883 -0.764099 -0.463311
v 9.92688 1.47588 -29.402
vn 0.423142 -0.819492 -0.386503
v 9.91612 1.45874 -29.373
vn 0.393325 -0.866993 -0.305972
v 9.90399 1.44461 -29.3428
vn 0.35972 -0.906144 -0.222495
v 9.89062 1.43364 -29.3119
vn 0.322651 -0.936569 -0.136875
v 9.87612 1.42591 -29.2806
vn 0.282475 -0.957974 -0.0499371
v 9.86065 1.42152 -29.249
vn 0.239578 -0.970153 0.0374819
v 9.84434 1.42049 -29.2176
vn 0.194374 -0.972989 0.12454
v 9.82735 1.42285 -29.1867
vn 0.147298 -0.966455 0.210399
v 9.80986 1.42857 -29.1564
vn 0.098804 -0.950613 0.294231
v 9.79202 1.43759 -29.1272
vn 0.049358 -0.925617 0.37523
v 9.77401 1.44982 -29.0993
vn -0.00056334 -0.891706 0.452615
v 9.756 1.46515 -29.0729
vn -0.0504792 -0.849207 0.525641
v 9.73816 1.48344 -29.0484
vn -0.099909 -0.798531 0.593605
v 9.72067 1.5045 -29.0259
vn -0.148377 -0.740163 0.655852
v 9.7037 1.52813 -29.0058
vn -0.195415 -0.674668 0.711783
v 9.68741 1.5541 -28.988
vn -0.240572 -0.602675 0.76086
v 9.67195 1.58217 -28.973
vn -0.283412 -0.524879 0.802608
v 9.65748 1.61206 -28.9607
vn -0.323522 -0.442027 0.836627
v 9.64414 1.64349 -28.9513
vn -0.360517 -0.354918 0.862589
v 9.63204 1.67615 -28.945
vn -0.39404 -0.264392 0.880244
v 9.62131 1.70974 -28.9417
vn -0.423768 -0.171319 0.889422
v 9.61206 1.74391 -28.9414
vn -0.449414 -0.0765959 0.890034
v 9.60437 1.77835 -28.9443
vn -0.470733 0.0188645 0.882074
v 9.59831 1.81273 -28.9502
vn -0.487519 0.114143 0.865619
v 9.59395 1.84671 -28.9592
vn -0.499609 0.208323 0.840829
v 9.59133 1.87996 -28.9711
vn -0.506887 0.300496 0.80794
v 9.59046 1.91218 -28.9857
vn -0.509285 0.389776 0.767271
v 9.59137 1.94303 -29.0031
vn -0.506777 0.475301 0.719212
v 9.59403 1.97224 -29.0229
vn -0.499389 0.556249 0.664227
v 9.59843 1.99951 -29.0451
vn -0.487191 0.63184 0.602845
v 9.60453 2.02459 -29.0693
vn -0.470302 0.701347 0.535657
v 9.61225 2.04723 -29.0954
vn -0.448883 0.764099 0.463311
v 9.62154 2.06722 -29.1231
vn -0.423142 0.819492 0.386503
v 9.6323 2.08435 -29.1522
vn -0.393325 0.866993 0.305972
v 9.64442 2.09848 -29.1823
vn -0.35972 0.906144 0.222495
v 9.6578 2.10946 -29.2132
vn -0.322651 0.936569 0.136875
v 9.67229 2.11718 -29.2445
vn -0.282475 0.957974 0.0499371
v 9.68777 2.12157 -29.2761
vn -0.239578 0.970153 -0.0374819
v 9.70408 2.1226 -29.3075
vn -0.194374 0.972989 -0.12454
v 9.72106 2.12024 -29.3385
vn -0.147298 0.966455 -0.210399
v 9.73856 2.11452 -29.3687
vn -0.098804 0.950613 -0.294231
v 9.7564 2.10551 -29.3979
vn -0.049358 0.925617 -0.37523
v 9.77441 2.09327 -29.4259
vn 0.00056334 0.891706 -0.452615
v 9.79242 2.07794 -29.4522
vn 0.0504792 0.849207 -0.525641
v 9.81026 2.05965 -29.4767
vn 0.099909 0.798531 -0.593605
v 9.82774 2.0386 -29.4992
vn 0.148377 0.740163 -0.655852
v 9.84471 2.01496 -29.5194
vn 0.195415 0.674668 -0.711783
v 9.86101 1.98899 -29.5371
vn 0.240572 0.602675 -0.76086
v 9.87646 1.96092 -29.5521
vn 0.283412 0.524879 -0.802608
v 9.89093 1.93103 -29.5644
vn 0.323522 0.442027 -0.836627
v 9.90428 1.8996 -29.5738
vn 0.360517 0.354918 -0.862589
v 9.91638 1.86694 -29.5802
vn 0.39404 0.264392 -0.880244
v 9.9271 1.83336 -29.5835
vn 0.423768 0.171319 -0.889422
v 9.93636 1.79918 -29.5837
vn 0.449414 0.0765959 -0.890034
v 11.294 2.13947 -28.7601
vn 0.56373 0.00689967 -0.82593
v 11.2998 2.10538 -28.7543
vn 0.580067 -0.0885032 -0.809746
v 11.3037 2.0716 -28.7457
vn 0.590819 -0.183054 -0.785764
v 11.3055 2.03844 -28.7344
vn 0.59588 -0.275841 -0.754214
v 11.3052 2.00624 -28.7206
vn 0.595202 -0.365972 -0.715401
v 11.3029 1.97529 -28.7042
vn 0.588793 -0.452579 -0.669698
v 11.2986 1.9459 -28.6856
vn 0.576713 -0.534827 -0.617545
v 11.2923 1.91835 -28.6648
vn 0.559079 -0.611924 -0.559445
v 11.2841 1.89291 -28.6421
vn 0.536061 -0.683129 -0.495958
v 11.274 1.86982 -28.6178
vn 0.50788 -0.747754 -0.427694
v 11.2622 1.8493 -28.5919
vn 0.474808 -0.805178 -0.355311
v 11.2488 1.83155 -28.5648
vn 0.437163 -0.854848 -0.279506
v 11.2338 1.81675 -28.5368
vn 0.395309 -0.896285 -0.20101
v 11.2175 1.80502 -28.508
vn 0.349647 -0.92909 -0.120578
v 11.2 1.7965 -28.4789
vn 0.300618 -0.952948 -0.0389841
v 11.1814 1.79125 -28.4496
vn 0.248694 -0.967628 0.0429849
v 11.162 1.78934 -28.4204
vn 0.194374 -0.972989 0.12454
v 11.1419 1.79077 -28.3917
vn 0.138183 -0.968981 0.204896
v 11.1214 1.79554 -28.3637
vn 0.0806612 -0.95564 0.283278
v 11.1005 1.80359 -28.3367
vn 0.0223624 -0.933096 0.358932
v 11.0796 1.81486 -28.3109
vn -0.0361517 -0.901565 0.43113
v 11.0589 1.82923 -28.2866
vn -0.0943176 -0.861353 0.499175
v 11.0384 1.84656 -28.264
vn -0.151575 -0.812844 0.562413
v 11.0185 1.86669 -28.2433
vn -0.207373 -0.756508 0.620235
v 10.9992 1.88942 -28.2248
vn -0.261174 -0.692886 0.672084
v 10.9809 1.91454 -28.2086
vn -0.312459 -0.622591 0.71746
v 10.9637 1.9418 -28.1948
vn -0.360736 -0.546301 0.755927
v 10.9476 1.97094 -28.1837
vn -0.405538 -0.464749 0.787113
v 10.933 2.00168 -28.1752
vn -0.446435 -0.378721 0.810719
v 10.92 2.03372 -28.1696
vn -0.483032 -0.289046 0.826518
v 10.9085 2.06676 -28.1668
vn -0.514978 -0.196588 0.834357
v 10.8989 2.10048 -28.1669
vn -0.541963 -0.102236 0.83416
v 10.8911 2.13454 -28.1698
vn -0.56373 -0.00689967 0.82593
v 10.8853 2.16863 -28.1756
vn -0.580067 0.0885032 0.809746
v 10.8814 2.20242 -28.1842
vn -0.590819 0.183054 0.785764
v 10.8796 2.23557 -28.1954
vn -0.59588 0.275841 0.754214
v 10.8799 2.26778 -28.2093
vn -0.595202 0.365972 0.715401
v 10.8822 2.29872 -28.2256
vn -0.588793 0.452579 0.669698
v 10.8865 2.32811 -28.2443
vn -0.576713 0.534827 0.617545
v 10.8928 2.35566 -28.265
vn -0.559079 0.611924 0.559445
v 10.901 2.3811 -28.2877
vn -0.536061 0.683129 0.495958
v 10.9111 2.4042 -28.3121
vn -0.50788 0.747754 0.427694
v 10.9229 2.42471 -28.338
vn -0.474808 0.805178 0.355311
v 10.9363 2.44246 -28.3651
vn -0.437163 0.854848 0.279506
v 10.9513 2.45727 -28.3931
vn -0.395309 0.896285 0.20101
v 10.9676 2.46899 -28.4218
vn -0.349647 0.92909 0.120578
v 10.9851 2.47752 -28.451
vn -0.300618 0.952948 0.0389841
v 11.0037 2.48276 -28.4803
vn -0.248694 0.967628 -0.0429849
v 11.0231 2.48468 -28.5094
vn -0.194374 0.972989 -0.12454
v 11.0432 2.48324 -28.5381
vn -0.138183 0.968981 -0.204896
v 11.0637 2.47848 -28.5662
vn -0.0806612 0.95564 -0.283278
v 11.0846 2.47042 -28.5932
vn -0.0223624 0.933096 -0.358932
v 11.1055 2.45916 -28.619
vn 0.0361517 0.901565 -0.43113
v 11.1263 2.44479 -28.6433
vn 0.0943176 0.861353 -0.499175
v 11.1467 2.42745 -28.6659
vn 0.151575 0.812844 -0.562413
v 11.1667 2.40732 -28.6866
vn 0.207373 0.756508 -0.620235
v 11.1859 2.38459 -28.7051
vn 0.261174 0.692886 -0.672084
v 11.2042 2.35947 -28.7213
vn 0.312459 0.622591 -0.71746
v 11.2215 2.33221 -28.735
vn 0.360736 0.546301 -0.755927
v 11.2375 2.30307 -28.7462
vn 0.405538 0.464749 -0.787113
v 11.2521 2.27233 -28.7546
vn 0.446435 0.378721 -0.810719
v 11.2652 2.24029 -28.7603
vn 0.483032 0.289046 -0.826518
v 11.2766 2.20725 -28.7631
vn 0.514978 0.196588 -0.834357
v 11.2862 2.17354 -28.763
vn 0.541963 0.102236 -0.83416
v 12.5909 2.52657 -27.7599
vn 0.643587 0.0306828 -0.764757
v 12.5965 2.49277 -27.7543
vn 0.65954 -0.0648346 -0.748868
v 12.5999 2.45919 -27.7461
vn 0.669142 -0.159728 -0.725766
v 12.601 2.42616 -27.7355
vn 0.672299 -0.253082 -0.695675
v 12.5999 2.39399 -27.7224
vn 0.668981 -0.344 -0.658884
v 12.5964 2.36299 -27.7072
vn 0.659221 -0.431604 -0.615748
v 12.5907 2.33346 -27.6898
vn 0.643112 -0.515052 -0.566682
v 12.5828 2.30569 -27.6705
vn 0.62081 -0.59354 -0.512158
v 12.5728 2.27994 -27.6495
vn 0.592528 -0.666311 -0.452702
v 12.5608 2.25646 -27.6269
vn 0.558541 -0.732666 -0.388886
v 12.5469 2.23548 -27.603
vn 0.519174 -0.791965 -0.321325
v 12.5312 2.2172 -27.578
vn 0.474808 -0.843636 -0.25067
v 12.5138 2.20179 -27.5521
vn 0.425869 -0.887183 -0.1776
v 12.4951 2.1894 -27.5257
vn 0.372828 -0.922186 -0.10282
v 12.475 2.18016 -27.4989
vn 0.316197 -0.948308 -0.0270498
v 12.4539 2.17415 -27.472
vn 0.256521 -0.965297 0.0489809
v 12.4319 2.17142 -27.4452
vn 0.194374 -0.972989 0.12454
v 12.4093 2.17202 -27.4189
vn 0.130356 -0.971312 0.1989
v 12.3862 2.17592 -27.3933
vn 0.0650818 -0.96028 0.271344
v 12.3629 2.1831 -27.3686
vn -0.000818954 -0.94 0.341175
v 12.3395 2.19348 -27.345
vn -0.0667118 -0.910667 0.40772
v 12.3165 2.20696 -27.3229
vn -0.131962 -0.872564 0.470339
v 12.2938 2.22342 -27.3023
vn -0.195942 -0.826058 0.528428
v 12.2718 2.24269 -27.2836
vn -0.258034 -0.771596 0.581428
v 12.2508 2.26459 -27.2668
vn -0.317642 -0.709703 0.628828
v 12.2307 2.28891 -27.2522
vn -0.37419 -0.640976 0.670173
v 12.212 2.31541 -27.2398
vn -0.427135 -0.566076 0.705063
v 12.1947 2.34384 -27.2299
vn -0.475966 -0.485724 0.733163
v 12.1791 2.37393 -27.2224
vn -0.520213 -0.400694 0.754203
v 12.1652 2.40538 -27.2175
vn -0.559451 -0.311806 0.767979
v 12.1532 2.4379 -27.2153
vn -0.593301 -0.219914 0.774359
v 12.1433 2.47116 -27.2157
vn -0.621436 -0.125905 0.773282
v 12.1354 2.50486 -27.2187
vn -0.643587 -0.0306828 0.764757
v 12.1298 2.53866 -27.2243
vn -0.65954 0.0648346 0.748868
v 12.1264 2.57223 -27.2325
vn -0.669142 0.159728 0.725766
v 12.1253 2.60527 -27.2431
vn -0.672299 0.253082 0.695675
v 12.1264 2.63744 -27.2561
vn -0.668981 0.344 0.658884
v 12.1299 2.66844 -27.2714
vn -0.659221 0.431604 0.615748
v 12.1356 2.69796 -27.2888
vn -0.643112 0.515052 0.566682
v 12.1435 2.72574 -27.3081
vn -0.62081 0.59354 0.512158
v 12.1535 2.75149 -27.3291
vn -0.592528 0.666311 0.452702
v 12.1655 2.77497 -27.3517
vn -0.558541 0.732666 0.388886
v 12.1794 2.79595 -27.3756
vn -0.519174 0.791965 0.321325
v 12.1951 2.81423 -27.4006
vn -0.474808 0.843636 0.25067
v 12.2125 2.82964 -27.4264
vn -0.425869 0.887183 0.1776
v 12.2312 2.84203 -27.4529
vn -0.372828 0.922186 0.10282
v 12.2513 2.85127 -27.4797
vn -0.316197 0.948308 0.0270498
v 12.2724 2.85728 -27.5066
vn -0.256521 0.965297 -0.0489809
v 12.2944 2.86 -27.5334
vn -0.194374 0.972989 -0.12454
v 12.317 2.85941 -27.5597
vn -0.130356 0.971312 -0.1989
v 12.3401 2.85551 -27.5853
vn -0.0650818 0.96028 -0.271344
v 12.3634 2.84833 -27.61
vn 0.000818954 0.94 -0.341175
v 12.3868 2.83795 -27.6336
vn 0.0667118 0.910667 -0.40772
v 12.4098 2.82447 -27.6557
vn 0.131962 0.872564 -0.470339
v 12.4325 2.80801 -27.6763
vn 0.195942 0.826058 -0.528428
v 12.4545 2.78874 -27.695
vn 0.258034 0.771596 -0.581428
v 12.4755 2.76684 -27.7118
vn 0.317642 0.709703 -0.628828
v 12.4956 2.74252 -27.7264
vn 0.37419 0.640976 -0.670173
v 12.5143 2.71602 -27.7388
vn 0.427135 0.566076 -0.705063
v 12.5316 2.68759 -27.7487
vn 0.475966 0.485724 -0.733163
v 12.5472 2.6575 -27.7562
vn 0.520213 0.400694 -0.754203
v 12.5611 2.62605 -27.761
vn 0.559451 0.311806 -0.767979
v 12.5731 2.59353 -27.7633
vn 0.593301 0.219914 -0.774359
v 12.583 2.56026 -27.7629
vn 0.621436 0.125905 -0.773282
f 1 66 2 
f 1 65 66 
f 2 67 3 
f 2 66 67 
f 3 68 4 
f 3 67 68 
f 4 69 5 
f 4 68 69 
f 5 70 6 
f 5 69 70 
f 6 71 7 
f 6 70 71 
f 7 72 8 
f 7 71 72 
f 8 73 9 
f 8 72 73 
f 9 74 10 
f 9 73 74 
f 10 75 11 
f 10 74 75 
f 11 76 12 
f 11 75 76 
f 12 77 13 
f 12 76 77 
f 13 78 14 
f 13 77 78 
f 14 79 15 
f 14 78 79 
f 15 80 16 
f 15 79 80 
f 16 81 17 
f 16 80 81 
f 17 82 18 
f 17 81 82 
f 18 83 19 
f 18 82 83 
f 19 84 20 
f 19 83 84 
f 20 85 21 
f 20 84 85 
f 21 86 22 
f 21 85 86 
f 22 87 23 
f 22 86 87 
f 23 88 24 
f 23 87 88 
f 24 89 25 
f 24 88 89 
f 25 90 26 
f 25 89 90 
f 26 91 27 
f 26 90 91 
f 27 92 28 
f 27 91 92 
f 28 93 29 
f 28 92 93 
f 29 94 30 
f 29 93 94 
f 30 95 31 
f 30 94 95 
f 31 96 32 
f 31 95 96 
f 32 97 33 
f 32 96 97 
f 33 98 34 
f 33 97 98 
f 34 99 35 
f 34 98 99 
f 35 100 36 
f 35 99 100 
f 36 101 37 
f 36 100 101 
f 37 102 38 
f 37 101 102 
f 38 103 39 
f 38 102 103 
f 39 104 40 
f 39 103 104 
f 40 105 41 
f 40 104 105 
f 41 106 42 
f 41 105 106 
f 42 107 43 
f 42 106 107 
f 43 108 44 
f 43 107 108 
f 44 109 45 
f 44 108 109 
f 45 110 46 
f 45 109 110 
f 46 111 47 
f 46 110 111 
f 47 112 48 
f 47 111 112 
f 48 113 49 
f 48 112 113 
f 49 114 50 
f 49 113 114 
f 50 115 51 
f 50 114 115 
f 51 116 52 
f 51 115 116 
f 52 117 53 
f 52 116 117 
f 53 118 54 
f 53 117 118 
f 54 119 55 
f 54 118 119 
f 55 120 56 
f 55 119 120 
f 56 121 57 
f 56 120 121 
f 57 122 58 
f 57 121 122 
f 58 123 59 
f 58 122 123 
f 59 124 60 
f 59 123 124 
f 60 125 61 
f 60 124 125 
f 61 126 62 
f 61 125 126 
f 62 127 63 
f 62 126 127 
f 63 128 64 
f 63 127 128 
f 64 65 1 
f 64 128 65 
f 65 130 66 
f 65 129 130 
f 66 131 67 
f 66 130 131 
f 67 132 68 
f 67 131 132 
f 68 133 69 
f 68 132 133 
f 69 134 70 
f 69 133 134 
f 70 135 71 
f 70 134 135 
f 71 136 72 
f 71 135 136 
f 72 137 73 
f 72 136 137 
f 73 138 74 
f 73 137 138 
f 74 139 75 
f 74 138 139 
f 75 140 76 
f 75 139 140 
f 76 141 77 
f 76 140 141 
f 77 142 78 
f 77 141 142 
f 78 143 79 
f 78 142 143 
f 79 144 80 
f 79 143 144 
f 80 145 81 
f 80 144 145 
f 81 146 82 
f 81 145 146 
f 82 147 83 
f 82 146 147 
f 83 148 84 
f 83 147 148 
f 84 149 85 
f 84 148 149 
f 85 150 86 
f 85 149 150 
f 86 151 87 
f 86 150 151 
f 87 152 88 
f 87 151 152 
f 88 153 89 
f 88 152 153 
f 89 154 90 
f 89 153 154 
f 90 155 91 
f 90 154 155 
f 91 156 92 
f 91 155 156 
f 92 157 93 
f 92 156 157 
f 93 158 94 
f 93 157 158 
f 94 159 95 
f 94 158 159 
f 95 160 96 
f 95 159 160 
f 96 161 97 
f 96 160 161 
f 97 162 98 
f 97 161 162 
f 98 163 99 
f 98 162 163 
f 99 164 100 
f 99 163 164 
f 100 165 101 
f 100 164 165 
f 101 166 102 
f 101 165 166 
f 102 167 103 
f 102 166 167 
f 103 168 104 
f 103 167 168 
f 104 169 105 
f 104 168 169 
f 105 170 106 
f 105 169 170 
f 106 171 107 
f 106 170 171 
f 107 172 108 
f 107 171 172 
f 108 173 109 
f 108 172 173 
f 109 174 110 
f 109 173 174 
f 110 175 111 
f 110 174 175 
f 111 176 112 
f 111 175 176 
f 112 177 113 
f 112 176 177 
f 113 178 114 
f 113 177 178 
f 114 179 115 
f 114 178 179 
f 115 180 116 
f 115 179 180 
f 116 181 117 
f 116 180 181 
f 117 182 118 
f 117 181 182 
f 118 183 119 
f 118 182 183 
f 119 184 120 
f 119 183 184 
f 120 185 121 
f 120 184 185 
f 121 186 122 
f 121 185 186 
f 122 187 123 
f 122 186 187 
f 123 188 124 
f 123 187 188 
f 124 189 125 
f 124 188 189 
f 125 190 126 
f 125 189 190 
f 126 191 127 
f 126 190 191 
f 127 192 128 
f 127 191 192 
f 128 129 65 
f 128 192 129 
f 129 194 130 
f 129 193 194 
f 130 195 131 
f 130 194 195 
f 131 196 132 
f 131 195 196 
f 132 197 133 
f 132 196 197 
f 133 198 134 
f 133 197 198 
f 134 199 135 
f 134 198 199 
f 135 200 136 
f 135 199 200 
f 136 201 137 
f 136 200 201 
f 137 202 138 
f 137 201 202 
f 138 203 139 
f 138 202 203 
f 139 204 140 
f 139 203 204 
f 140 205 141 
f 140 204 205 
f 141 206 142 
f 141 205 206 
f 142 207 143 
f 142 206 207 
f 143 208 144 
f 143 207 208 
f 144 209 145 
f 144 208 209 
f 145 210 146 
f 145 209 210 
f 146 211 147 
f 146 210 211 
f 147 212 148 
f 147 211 212 
f 148 213 149 
f 148 212 213 
f 149 214 150 
f 149 213 214 
f 150 215 151 
f 150 214 215 
f 151 216 152 
f 151 215 216 
f 152 217 153 
f 152 216 217 
f 153 218 154 
f 153 217 218 
f 154 219 155 
f 154 218 219 
f 155 220 156 
f 155 219 220 
f 156 221 157 
f 156 220 221 
f 157 222 158 
f 157 221 222 
f 158 223 159 
f 158 222 223 
f 159 224 160 
f 159 223 224 
f 160 225 161 
f 160 224 225 
f 161 226 162 
f 161 225 226 
f 162 227 163 
f 162 226 227 
f 163 228 164 
f 163 227 228 
f 164 229 165 
f 164 228 229 
f 165 230 166 
f 165 229 230 
f 166 231 167 
f 166 230 231 
f 167 232 168 
f 167 231 232 
f 168 233 169 
f 168 232 233 
f 169 234 170 
f 169 233 234 
f 170 235 171 
f 170 234 235 
f 171 236 172 
f 171 235 236 
f 172 237 173 
f 172 236 237 
f 173 238 174 
f 173 237 238 
f 174 239 175 
f 174 238 239 
f 175 240 176 
f 175 239 240 
f 176 241 177 
f 176 240 241 
f 177 242 178 
f 177 241 242 
f 178 243 179 
f 178 242 243 
f 179 244 180 
f 179 243 244 
f 180 245 181 
f 180 244 245 
f 181 246 182 
f 181 245 246 
f 182 247 183 
f 182 246 247 
f 183 248 184 
f 183 247 248 
f 184 249 185 
f 184 248 249 
f 185 250 186 
f 185 249 250 
f 186 251 187 
f 186 250 251 
f 187 252 188 
f 187 251 252 
f 188 253 189 
f 188 252 253 
f 189 254 190 
f 189 253 254 
f 190 255 191 
f 190 254 255 
f 191 256 192 
f 191 255 256 
f 192 193 129 
f 192 256 193 
f 193 258 194 
f 193 257 258 
f 194 259 195 
f 194 258 259 
f 195 260 196 
f 195 259 260 
f 196 261 197 
f 196 260 261 
f 197 262 198 
f 197 261 262 
f 198 263 199 
f 198 262 263 
f 199 264 200 
f 199 263 264 
f 200 265 201 
f 200 264 265 
f 201 266 202 
f 201 265 266 
f 202 267 203 
f 202 266 267 
f 203 268 204 
f 203 267 268 
f 204 269 205 
f 204 268 269 
f 205 270 206 
f 205 269 270 
f 206 271 207 
f 206 270 271 
f 207 272 208 
f 207 271 272 
f 208 273 209 
f 208 272 273 
f 209 274 210 
f 209 273 274 
f 210 275 211 
f 210 274 275 
f 211 276 212 
f 211 275 276 
f 212 277 213 
f 212 276 277 
f 213 278 214 
f 213 277 278 
f 214 279 215 
f 214 278 279 
f 215 280 216 
f 215 279 280 
f 216 281 217 
f 216 280 281 
f 217 282 218 
f 217 281 282 
f 218 283 219 
f 218 282 283 
f 219 284 220 
f 219 283 284 
f 220 285 221 
f 220 284 285 
f 221 286 222 
f 221 285 286 
f 222 287 223 
f 222 286 287 
f 223 288 224 
f 223 287 288 
f 224 289 225 
f 224 288 289 
f 225 290 226 
f 225 289 290 
f 226 291 227 
f 226 290 291 
f 227 292 228 
f 227 291 292 
f 228 293 229 
f 228 292 293 
f 229 294 230 
f 229 293 294 
f 230 295 231 
f 230 294 295 
f 231 296 232 
f 231 295 296 
f 232 297 233 
f 232 296 297 
f 233 298 234 
f 233 297 298 
f 234 299 235 
f 234 298 299 
f 235 300 236 
f 235 299 300 
f 236 301 237 
f 236 300 301 
f 237 302 238 
f 237 301 302 
f 238 303 239 
f 238 302 303 
f 239 304 240 
f 239 303 304 
f 240 305 241 
f 240 304 305 
f 241 306 242 
f 241 305 306 
f 242 307 243 
f 242 306 307 
f 243 308 244 
f 243 307 308 
f 244 309 245 
f 244 308 309 
f 245 310 246 
f 245 309 310 
f 246 311 247 
f 246 310 311 
f 247 312 248 
f 247 311 312 
f 248 313 249 
f 248 312 313 
f 249 314 250 
f 249 313 314 
f 250 315 251 
f 250 314 315 
f 251 316 252 
f 251 315 316 
f 252 317 253 
f 252 316 317 
f 253 318 254 
f 253 317 318 
f 254 319 255 
f 254 318 319 
f 255 320 256 
f 255 319 320 
f 256 257 193 
f 256 320 257 
f 257 322 258 
f 257 321 322 
f 258 323 259 
f 258 322 323 
f 259 324 260 
f 259 323 324 
f 260 325 261 
f 260 324 325 
f 261 326 262 
f 261 325 326 
f 262 327 263 
f 262 326 327 
f 263 328 264 
f 263 327 328 
f 264 329 265 
f 264 328 329 
f 265 330 266 
f 265 329 330 
f 266 331 267 
f 266 330 331 
f 267 332 268 
f 267 331 332 
f 268 333 269 
f 268 332 333 
f 269 334 270 
f 269 333 334 
f 270 335 271 
f 270 334 335 
f 271 336 272 
f 271 335 336 
f 272 337 273 
f 272 336 337 
f 273 338 274 
f 273 337 338 
f 274 339 275 
f 274 338 339 
f 275 340 276 
f 275 339 340 
f 276 341 277 
f 276 340 341 
f 277 342 278 
f 277 341 342 
f 278 343 279 
f 278 342 343 
f 279 344 280 
f 279 343 344 
f 280 345 281 
f 280 344 345 
f 281 346 282 
f 281 345 346 
f 282 347 283 
f 282 346 347 
f 283 348 284 
f 283 347 348 
f 284 349 285 
f 284 348 349 
f 285 350 286 
f 285 349 350 
f 286 351 287 
f 286 350 351 
f 287 352 288 
f 287 351 352 
f 288 353 289 
f 288 352 353 
f 289 354 290 
f 289 353 354 
f 290 355 291 
f 290 354 355 
f 291 356 292 
f 291 355 356 
f 292 357 293 
f 292 356 357 
f 293 358 294 
f 293 357 358 
f 294 359 295 
f 294 358 359 
f 295 360 296 
f 295 359 360 
f 296 361 297 
f 296 360 361 
f 297 362 298 
f 297 361 362 
f 298 363 299 
f 298 362 363 
f 299 364 300 
f 299 363 364 
f 300 365 301 
f 300 364 365 
f 301 366 302 
f 301 365 366 
f 302 367 303 
f 302 366 367 
f 303 368 304 
f 303 367 368 
f 304 369 305 
f 304 368 369 
f 305 370 306 
f 305 369 370 
f 306 371 307 
f 306 370 371 
f 307 372 308 
f 307 371 372 
f 308 373 309 
f 308 372 373 
f 309 374 310 
f 309 373 374 
f 310 375 311 
f 310 374 375 
f 311 376 312 
f 311 375 376 
f 312 377 313 
f 312 376 377 
f 313 378 314 
f 313 377 378 
f 314 379 315 
f 314 378 379 
f 315 380 316 
f 315 379 380 
f 316 381 317 
f 316 380 381 
f 317 382 318 
f 317 381 382 
f 318 383 319 
f 318 382 383 
f 319 384 320 
f 319 383 384 
f 320 321 257 
f 320 384 321 
f 321 386 322 
f 321 385 386 
f 322 387 323 
f 322 386 387 
f 323 388 324 
f 323 387 388 
f 324 389 325 
f 324 388 389 
f 325 390 326 
f 325 389 390 
f 326 391 327 
f 326 390 391 
f 327 392 328 
f 327 391 392 
f 328 393 329 
f 328 392 393 
f 329 394 330 
f 329 393 394 
f 330 395 331 
f 330 394 395 
f 331 396 332 
f 331 395 396 
f 332 397 333 
f 332 396 397 
f 333 398 334 
f 333 397 398 
f 334 399 335 
f 334 398 399 
f 335 400 336 
f 335 399 400 
f 336 401 337 
f 336 400 401 
f 337 402 338 
f 337 401 402 
f 338 403 339 
f 338 402 403 
f 339 404 340 
f 339 403 404 
f 340 405 341 
f 340 404 405 
f 341 406 342 
f 341 405 406 
f 342 407 343 
f 342 406 407 
f 343 408 344 
f 343 407 408 
f 344 409 345 
f 344 408 409 
f 345 410 346 
f 345 409 410 
f 346 411 347 
f 346 410 411 
f 347 412 348 
f 347 411 412 
f 348 413 349 
f 348 412 413 
f 349 414 350 
f 349 413 414 
f 350 415 351 
f 350 414 415 
f 351 416 352 
f 351 415 416 
f 352 417 353 
f 352 416 417 
f 353 418 354 
f 353 417 418 
f 354 419 355 
f 354 418 419 
f 355 420 356 
f 355 419 420 
f 356 421 357 
f 356 420 421 
f 357 422 358 
f 357 421 422 
f 358 423 359 
f 358 422 423 
f 359 424 360 
f 359 423 424 
f 360 425 361 
f 360 424 425 
f 361 426 362 
f 361 425 426 
f 362 427 363 
f 362 426 427 
f 363 428 364 
f 363 427 428 
f 364 429 365 
f 364 428 429 
f 365 430 366 
f 365 429 430 
f 366 431 367 
f 366 430 431 
f 367 432 368 
f 367 431 432 
f 368 433 369 
f 368 432 433 
f 369 434 370 
f 369 433 434 
f 370 435 371 
f 370 434 435 
f 371 436 372 
f 371 435 436 
f 372 437 373 
f 372 436 437 
f 373 438 374 
f 373 437 438 
f 374 439 375 
f 374 438 439 
f 375 440 376 
f 375 439 440 
f 376 441 377 
f 376 440 441 
f 377 442 378 
f 377 441 442 
f 378 443 379 
f 378 442 443 
f 379 444 380 
f 379 443 444 
f 380 445 381 
f 380 444 445 
f 381 446 382 
f 381 445 446 
f 382 447 383 
f 382 446 447 
f 383 448 384 
f 383 447 448 
f 384 385 321 
f 384 448 385 
f 385 450 386 
f 385 449 450 
f 386 451 387 
f 386 450 451 
f 387 452 388 
f 387 451 452 
f 388 453 389 
f 388 452 453 
f 389 454 390 
f 389 453 454 
f 390 455 391 
f 390 454 455 
f 391 456 392 
f 391 455 456 
f 392 457 393 
f 392 456 457 
f 393 458 394 
f 393 457 458 
f 394 459 395 
f 394 458 459 
f 395 460 396 
f 395 459 460 
f 396 461 397 
f 396 460 461 
f 397 462 398 
f 397 461 462 
f 398 463 399 
f 398 462 463 
f 399 464 400 
f 399 463 464 
f 400 465 401 
f 400 464 465 
f 401 466 402 
f 401 465 466 
f 402 467 403 
f 402 466 467 
f 403 468 404 
f 403 467 468 
f 404 469 405 
f 404 468 469 
f 405 470 406 
f 405 469 470 
f 406 471 407 
f 406 470 471 
f 407 472 408 
f 407 471 472 
f 408 473 409 
f 408 472 473 
f 409 474 410 
f 409 473 474 
f 410 475 411 
f 410 474 475 
f 411 476 412 
f 411 475 476 
f 412 477 413 
f 412 476 477 
f 413 478 414 
f 413 477 478 
f 414 479 415 
f 414 478 479 
f 415 480 416 
f 415 479 480 
f 416 481 417 
f 416 480 481 
f 417 482 418 
f 417 481 482 
f 418 483 419 
f 418 482 483 
f 419 484 420 
f 419 483 484 
f 420 485 421 
f 420 484 485 
f 421 486 422 
f 421 485 486 
f 422 487 423 
f 422 486 487 
f 423 488 424 
f 423 487 488 
f 424 489 425 
f 424 488 489 
f 425 490 426 
f 425 489 490 
f 426 491 427 
f 426 490 491 
f 427 492 428 
f 427 491 492 
f 428 493 429 
f 428 492 493 
f 429 494 430 
f 429 493 494 
f 430 495 431 
f 430 494 495 
f 431 496 432 
f 431 495 496 
f 432 497 433 
f 432 496 497 
f 433 498 434 
f 433 497 498 
f 434 499 435 
f 434 498 499 
f 435 500 436 
f 435 499 500 
f 436 501 437 
f 436 500 501 
f 437 502 438 
f 437 501 502 
f 438 503 439 
f 438 502 503 
f 439 504 440 
f 439 503 504 
f 440 505 441 
f 440 504 505 
f 441 506 442 
f 441 505 506 
f 442 507 443 
f 442 506 507 
f 443 508 444 
f 443 507 508 
f 444 509 445 
f 444 508 509 
f 445 510 446 
f 445 509 510 
f 446 511 447 
f 446 510 511 
f 447 512 448 
f 447 511 512 
f 448 449 385 
f 448 512 449 
f 449 514 450 
f 449 513 514 
f 450 515 451 
f 450 514 515 
f 451 516 452 
f 451 515 516 
f 452 517 453 
f 452 516 517 
f 453 518 454 
f 453 517 518 
f 454 519 455 
f 454 518 519 
f 455 520 456 
f 455 519 520 
f 456 521 457 
f 456 520 521 
f 457 522 458 
f 457 521 522 
f 458 523 459 
f 458 522 523 
f 459 524 460 
f 459 523 524 
f 460 525 461 
f 460 524 525 
f 461 526 462 
f 461 525 526 
f 462 527 463 
f 462 526 527 
f 463 528 464 
f 463 527 528 
f 464 529 465 
f 464 528 529 
f 465 530 466 
f 465 529 530 
f 466 531 467 
f 466 530 531 
f 467 532 468 
f 467 531 532 
f 468 533 469 
f 468 532 533 
f 469 534 470 
f 469 533 534 
f 470 535 471 
f 470 534 535 
f 471 536 472 
f 471 535 536 
f 472 537 473 
f 472 536 537 
f 473 538 474 
f 473 537 538 
f 474 539 475 
f 474 538 539 
f 475 540 476 
f 475 539 540 
f 476 541 477 
f 476 540 541 
f 477 542 478 
f 477 541 542 
f 478 543 479 
f 478 542 543 
f 479 544 480 
f 479 543 544 
f 480 545 481 
f 480 544 545 
f 481 546 482 
f 481 545 546 
f 482 547 483 
f 482 546 547 
f 483 548 484 
f 483 547 548 
f 484 549 485 
f 484 548 549 
f 485 550 486 
f 485 549 550 
f 486 551 487 
f 486 550 551 
f 487 552 488 
f 487 551 552 
f 488 553 489 
f 488 552 553 
f 489 554 490 
f 489 553 554 
f 490 555 491 
f 490 554 555 
f 491 556 492 
f 491 555 556 
f 492 557 493 
f 492 556 557 
f 493 558 494 
f 493 557 558 
f 494 559 495 
f 494 558 559 
f 495 560 496 
f 495 559 560 
f 496 561 497 
f 496 560 561 
f 497 562 498 
f 497 561 562 
f 498 563 499 
f 498 562 563 
f 499 564 500 
f 499 563 564 
f 500 565 501 
f 500 564 565 
f 501 566 502 
f 501 565 566 
f 502 567 503 
f 502 566 567 
f 503 568 504 
f 503 567 568 
f 504 569 505 
f 504 568 569 
f 505 570 506 
f 505 569 570 
f 506 571 507 
f 506 570 571 
f 507 572 508 
f 507 571 572 
f 508 573 509 
f 508 572 573 
f 509 574 510 
f 509 573 574 
f 510 575 511 
f 510 574 575 
f 511 576 512 
f 511 575 576 
f 512 513 449 
f 512 576 513 
f 513 578 514 
f 513 577 578 
f 514 579 515 
f 514 578 579 
f 515 580 516 
f 515 579 580 
f 516 581 517 
f 516 580 581 
f 517 582 518 
f 517 581 582 
f 518 583 519 
f 518 582 583 
f 519 584 520 
f 519 583 584 
f 520 585 521 
f 520 584 585 
f 521 586 522 
f 521 585 586 
f 522 587 523 
f 522 586 587 
f 523 588 524 
f 523 587 588 
f 524 589 525 
f 524 588 589 
f 525 590 526 
f 525 589 590 
f 526 591 527 
f 526 590 591 
f 527 592 528 
f 527 591 592 
f 528 593 529 
f 528 592 593 
f 529 594 530 
f 529 593 594 
f 530 595 531 
f 530 594 595 
f 531 596 532 
f 531 595 596 
f 532 597 533 
f 532 596 597 
f 533 598 534 
f 533 597 598 
f 534 599 535 
f 534 598 599 
f 535 600 536 
f 535 599 600 
f 536 601 537 
f 536 600 601 
f 537 602 538 
f 537 601 602 
f 538 603 539 
f 538 602 603 
f 539 604 540 
f 539 603 604 
f 540 605 541 
f 540 604 605 
f 541 606 542 
f 541 605 606 
f 542 607 543 
f 542 606 607 
f 543 608 544 
f 543 607 608 
f 544 609 545 
f 544 608 609 
f 545 610 546 
f 545 609 610 
f 546 611 547 
f 546 610 611 
f 547 612 548 
f 547 611 612 
f 548 613 549 
f 548 612 613 
f 549 614 550 
f 549 613 614 
f 550 615 551 
f 550 614 615 
f 551 616 552 
f 551 615 616 
f 552 617 553 
f 552 616 617 
f 553 618 554 
f 553 617 618 
f 554 619 555 
f 554 618 619 
f 555 620 556 
f 555 619 620 
f 556 621 557 
f 556 620 621 
f 557 622 558 
f 557 621 622 
f 558 623 559 
f 558 622 623 
f 559 624 560 
f 559 623 624 
f 560 625 561 
f 560 624 625 
f 561 626 562 
f 561 625 626 
f 562 627 563 
f 562 626 627 
f 563 628 564 
f 563 627 628 
f 564 629 565 
f 564 628 629 
f 565 630 566 
f 565 629 630 
f 566 631 567 
f 566 630 631 
f 567 632 568 
f 567 631 632 
f 568 633 569 
f 568 632 633 
f 569 634 570 
f 569 633 634 
f 570 635 571 
f 570 634 635 
f 571 636 572 
f 571 635 636 
f 572 637 573 
f 572 636 637 
f 573 638 574 
f 573 637 638 
f 574 639 575 
f 574 638 639 
f 575 640 576 
f 575 639 640 
f 576 577 513 
f 576 640 577 
