# Branch
v -8.58643 -1.85686 -27.7
vn -0.096033 -0.0988252 -0.99046
v -8.58848 -1.87347 -27.6974
vn -0.10786 -0.194988 -0.974857
v -8.59034 -1.88975 -27.693
vn -0.118649 -0.289272 -0.949865
v -8.59201 -1.90555 -27.6871
vn -0.128294 -0.380771 -0.915726
v -8.59346 -1.92072 -27.6797
vn -0.136705 -0.468603 -0.872768
v -8.59468 -1.93511 -27.6708
vn -0.143798 -0.551921 -0.821404
v -8.59567 -1.94859 -27.6606
vn -0.149507 -0.629925 -0.76213
v -8.59641 -1.96101 -27.6491
vn -0.153776 -0.701862 -0.695516
v -8.59689 -1.97227 -27.6364
vn -0.156564 -0.767039 -0.622204
v -8.59711 -1.98225 -27.6227
vn -0.157845 -0.82483 -0.5429
v -8.59707 -1.99086 -27.6081
vn -0.157605 -0.874677 -0.458368
v -8.59677 -1.99801 -27.5928
vn -0.155847 -0.9161 -0.369421
v -8.5962 -2.00365 -27.5768
vn -0.152588 -0.948701 -0.276916
v -8.59539 -2.0077 -27.5604
vn -0.14786 -0.972166 -0.181745
v -8.59432 -2.01013 -27.5436
vn -0.141708 -0.986268 -0.0848227
v -8.59303 -2.01093 -27.5267
vn -0.134192 -0.990871 0.012916
v -8.5915 -2.01008 -27.5099
vn -0.125382 -0.985932 0.11053
v -8.58977 -2.00758 -27.4932
vn -0.115366 -0.971498 0.20708
v -8.58785 -2.00347 -27.4769
vn -0.104238 -0.947708 0.301636
v -8.58576 -1.99779 -27.461
vn -0.0921066 -0.914791 0.393286
v -8.58351 -1.99058 -27.4459
vn -0.079088 -0.873064 0.481149
v -8.58113 -1.98192 -27.4315
vn -0.0653078 -0.822929 0.564379
v -8.57864 -1.97189 -27.4181
vn -0.0508986 -0.764868 0.642173
v -8.57607 -1.96059 -27.4057
vn -0.0359993 -0.699442 0.713782
v -8.57343 -1.94813 -27.3945
vn -0.0207532 -0.627279 0.778518
v -8.57076 -1.93462 -27.3846
vn -0.00530729 -0.549076 0.835756
v -8.56809 -1.9202 -27.3761
vn 0.0101897 -0.465584 0.884945
v -8.56543 -1.90501 -27.3691
vn 0.0255886 -0.377609 0.925611
v -8.56281 -1.88918 -27.3636
vn 0.0407411 -0.285997 0.957364
v -8.56026 -1.87289 -27.3597
vn 0.0555012 -0.191631 0.979896
v -8.5578 -1.85627 -27.3575
vn 0.0697268 -0.0954195 0.992992
v -8.55546 -1.83949 -27.3569
vn 0.0832809 0.00171112 0.996525
v -8.55326 -1.82272 -27.3579
vn 0.096033 0.0988252 0.99046
v -8.55122 -1.80611 -27.3606
vn 0.10786 0.194988 0.974857
v -8.54936 -1.78983 -27.3649
vn 0.118649 0.289272 0.949865
v -8.54769 -1.77402 -27.3708
vn 0.128294 0.380771 0.915726
v -8.54624 -1.75885 -27.3782
vn 0.136705 0.468603 0.872768
v -8.54501 -1.74446 -27.3871
vn 0.143798 0.551921 0.821404
v -8.54403 -1.73099 -27.3973
vn 0.149507 0.629925 0.76213
v -8.54329 -1.71856 -27.4088
vn 0.153776 0.701862 0.695516
v -8.54281 -1.70731 -27.4215
vn 0.156564 0.767039 0.622204
v -8.54259 -1.69732 -27.4352
vn 0.157845 0.82483 0.5429
v -8.54263 -1.68872 -27.4498
vn 0.157605 0.874677 0.458368
v -8.54293 -1.68156 -27.4652
vn 0.155847 0.9161 0.369421
v -8.54349 -1.67593 -27.4811
vn 0.152588 0.948701 0.276916
v -8.54431 -1.67188 -27.4976
vn 0.14786 0.972166 0.181745
v -8.54537 -1.66944 -27.5143
vn 0.141708 0.986268 0.0848227
v -8.54667 -1.66865 -27.5312
vn 0.134192 0.990871 -0.012916
v -8.54819 -1.6695 -27.5481
vn 0.125382 0.985932 -0.11053
v -8.54992 -1.67199 -27.5647
vn 0.115366 0.971498 -0.20708
v -8.55184 -1.6761 -27.5811
vn 0.104238 0.947708 -0.301636
v -8.55394 -1.68179 -27.5969
vn 0.0921066 0.914791 -0.393286
v -8.55619 -1.68899 -27.6121
vn 0.079088 0.873064 -0.481149
v -8.55857 -1.69765 -27.6265
vn 0.0653078 0.822929 -0.564379
v -8.56106 -1.70768 -27.6399
vn 0.0508986 0.764868 -0.642173
v -8.56363 -1.71898 -27.6523
vn 0.0359993 0.699442 -0.713782
v -8.56626 -1.73145 -27.6634
vn 0.0207532 0.627279 -0.778518
v -8.56893 -1.74495 -27.6733
vn 0.00530729 0.549076 -0.835756
v -8.57161 -1.75937 -27.6818
vn -0.0101897 0.465584 -0.884945
v -8.57427 -1.77457 -27.6888
vn -0.0255886 0.377609 -0.925611
v -8.57688 -1.79039 -27.6943
vn -0.0407411 0.285997 -0.957364
v -8.57943 -1.80669 -27.6982
vn -0.0555012 0.191631 -0.979896
v -8.58189 -1.82331 -27.7005
vn -0.0697268 0.0954195 -0.992992
v -8.58423 -1.84008 -27.7011
vn -0.0832809 -0.00171112 -0.996525
v -7.9074 -1.94909 -27.7525
vn -0.0838061 -0.100486 -0.991403
v -7.90946 -1.96571 -27.7498
vn -0.0956922 -0.19664 -0.975795
v -7.91135 -1.982 -27.7455
vn -0.106657 -0.290901 -0.95079
v -7.91307 -1.99781 -27.7396
vn -0.116594 -0.38236 -0.916628
v -7.91459 -2.01298 -27.7322
vn -0.125409 -0.470137 -0.873638
v -7.91591 -2.02737 -27.7233
vn -0.133015 -0.553386 -0.822235
v -7.917 -2.04084 -27.713
vn -0.139341 -0.631305 -0.762914
v -7.91786 -2.05325 -27.7015
vn -0.144325 -0.703145 -0.696245
v -7.91849 -2.0645 -27.6888
vn -0.147919 -0.768214 -0.622871
v -7.91886 -2.07447 -27.6751
vn -0.150088 -0.825883 -0.543498
v -7.91899 -2.08306 -27.6605
vn -0.150812 -0.8756 -0.458891
v -7.91886 -2.09019 -27.6451
vn -0.150083 -0.916883 -0.369865
v -7.91848 -2.0958 -27.6291
vn -0.147909 -0.949337 -0.277277
v -7.91786 -2.09983 -27.6126
vn -0.144311 -0.972648 -0.182018
v -7.917 -2.10224 -27.5958
vn -0.139323 -0.986592 -0.0850066
v -7.91591 -2.10301 -27.5789
vn -0.132993 -0.991034 0.0128236
v -7.91459 -2.10213 -27.5621
vn -0.125382 -0.985932 0.11053
v -7.91307 -2.0996 -27.5453
vn -0.116564 -0.971335 0.207173
v -7.91135 -2.09547 -27.529
vn -0.106623 -0.947384 0.30182
v -7.90945 -2.08975 -27.5131
vn -0.0956559 -0.914309 0.39356
v -7.9074 -2.08251 -27.4979
vn -0.083767 -0.872428 0.48151
v -7.9052 -2.07382 -27.4835
vn -0.0710715 -0.822146 0.564823
v -7.90289 -2.06376 -27.4701
vn -0.0576915 -0.763946 0.642696
v -7.90048 -2.05243 -27.4577
vn -0.0437559 -0.698388 0.71438
v -7.898 -2.03994 -27.4465
vn -0.0293989 -0.626105 0.779184
v -7.89547 -2.0264 -27.4366
vn -0.0147588 -0.547792 0.836484
v -7.89292 -2.01195 -27.4281
vn 2.35103e-05 -0.464204 0.885728
v -7.89036 -1.99673 -27.421
vn 0.0148055 -0.376145 0.926443
v -7.88783 -1.98089 -27.4155
vn 0.029445 -0.284463 0.958235
v -7.88535 -1.96457 -27.4116
vn 0.0438009 -0.190042 0.980798
v -7.88294 -1.94793 -27.4094
vn 0.0577349 -0.0937908 0.993916
v -7.88063 -1.93114 -27.4088
vn 0.071113 0.00336369 0.997463
v -7.87843 -1.91436 -27.4098
vn 0.0838061 0.100486 0.991403
v -7.87638 -1.89774 -27.4125
vn 0.0956922 0.19664 0.975795
v -7.87449 -1.88145 -27.4168
vn 0.106657 0.290901 0.95079
v -7.87277 -1.86564 -27.4227
vn 0.116594 0.38236 0.916628
v -7.87124 -1.85047 -27.4302
vn 0.125409 0.470137 0.873638
v -7.86993 -1.83608 -27.439
vn 0.133015 0.553386 0.822235
v -7.86884 -1.82261 -27.4493
vn 0.139341 0.631305 0.762914
v -7.86798 -1.81019 -27.4608
vn 0.144325 0.703145 0.696245
v -7.86735 -1.79895 -27.4735
vn 0.147919 0.768214 0.622871
v -7.86698 -1.78898 -27.4872
vn 0.150088 0.825883 0.543498
v -7.86685 -1.78039 -27.5018
vn 0.150812 0.8756 0.458891
v -7.86698 -1.77325 -27.5172
vn 0.150083 0.916883 0.369865
v -7.86736 -1.76764 -27.5332
vn 0.147909 0.949337 0.277277
v -7.86798 -1.76361 -27.5497
vn 0.144311 0.972648 0.182018
v -7.86884 -1.7612 -27.5665
vn 0.139323 0.986592 0.0850066
v -7.86993 -1.76044 -27.5834
vn 0.132993 0.991034 -0.0128236
v -7.87125 -1.76132 -27.6003
vn 0.125382 0.985932 -0.11053
v -7.87277 -1.76384 -27.617
vn 0.116564 0.971335 -0.207173
v -7.87449 -1.76798 -27.6333
vn 0.106623 0.947384 -0.30182
v -7.87639 -1.7737 -27.6492
vn 0.0956559 0.914309 -0.39356
v -7.87844 -1.78094 -27.6644
vn 0.083767 0.872428 -0.48151
v -7.88064 -1.78963 -27.6788
vn 0.0710715 0.822146 -0.564823
v -7.88295 -1.79969 -27.6922
vn 0.0576915 0.763946 -0.642696
v -7.88536 -1.81102 -27.7046
vn 0.0437559 0.698388 -0.71438
v -7.88784 -1.82351 -27.7158
vn 0.0293989 0.626105 -0.779184
v -7.89037 -1.83705 -27.7257
vn 0.0147588 0.547792 -0.836484
v -7.89292 -1.85149 -27.7342
vn -2.35103e-05 0.464204 -0.885728
v -7.89548 -1.86671 -27.7413
vn -0.0148055 0.376145 -0.926443
v -7.89801 -1.88256 -27.7468
vn -0.029445 0.284463 -0.958235
v -7.90049 -1.89888 -27.7507
vn -0.0438009 0.190042 -0.980798
v -7.9029 -1.91551 -27.7529
vn -0.0577349 0.0937908 -0.993916
v -7.90521 -1.9323 -27.7536
vn -0.071113 -0.00336369 -0.997463
v -7.22695 -2.04057 -27.7966
vn -0.0715923 -0.102128 -0.992192
v -7.22901 -2.0572 -27.7939
vn -0.0835372 -0.198274 -0.97658
v -7.23094 -2.07349 -27.7896
vn -0.0946776 -0.292511 -0.951564
v -7.23271 -2.08931 -27.7836
vn -0.104906 -0.383931 -0.917383
v -7.2343 -2.10448 -27.7762
vn -0.114124 -0.471653 -0.874368
v -7.23571 -2.11886 -27.7673
vn -0.122244 -0.554834 -0.822931
v -7.23691 -2.13233 -27.757
vn -0.129186 -0.632671 -0.76357
v -7.23789 -2.14473 -27.7455
vn -0.134883 -0.704414 -0.696855
v -7.23865 -2.15597 -27.7328
vn -0.139282 -0.769374 -0.623429
v -7.23918 -2.16592 -27.7191
vn -0.14234 -0.826925 -0.543999
v -7.23947 -2.1745 -27.7044
vn -0.144026 -0.876512 -0.45933
v -7.23953 -2.18162 -27.689
vn -0.144326 -0.917657 -0.370237
v -7.23934 -2.1872 -27.673
vn -0.143235 -0.949965 -0.277579
v -7.23891 -2.19121 -27.6565
vn -0.140766 -0.973124 -0.182247
v -7.23825 -2.19359 -27.6397
vn -0.13694 -0.986912 -0.0851605
v -7.23736 -2.19433 -27.6228
vn -0.131796 -0.991195 0.0127463
v -7.23625 -2.19342 -27.6059
vn -0.125382 -0.985932 0.11053
v -7.23493 -2.19087 -27.5891
vn -0.117761 -0.971174 0.20725
v -7.23342 -2.1867 -27.5728
vn -0.109006 -0.947064 0.301973
v -7.23172 -2.18095 -27.5569
vn -0.0992014 -0.913832 0.393789
v -7.22986 -2.17368 -27.5417
vn -0.0884411 -0.8718 0.481812
v -7.22785 -2.16496 -27.5272
vn -0.076829 -0.821372 0.565195
v -7.22572 -2.15487 -27.5138
vn -0.0644771 -0.763034 0.643135
v -7.22347 -2.14351 -27.5013
vn -0.0515042 -0.697347 0.714881
v -7.22114 -2.13099 -27.4901
vn -0.0380353 -0.624944 0.779742
v -7.21875 -2.11743 -27.4802
vn -0.0242002 -0.546523 0.837094
v -7.21632 -2.10295 -27.4717
vn -0.0101319 -0.462839 0.886385
v -7.21387 -2.08771 -27.4646
vn 0.00403393 -0.374697 0.927139
v -7.21142 -2.07184 -27.4591
vn 0.0181609 -0.282946 0.958964
v -7.20901 -2.0555 -27.4552
vn 0.032113 -0.188471 0.981554
v -7.20665 -2.03885 -27.4529
vn 0.0457558 -0.0921807 0.99469
v -7.20437 -2.02204 -27.4523
vn 0.058958 0.0049975 0.998248
v -7.20218 -2.00524 -27.4534
vn 0.0715923 0.102128 0.992192
v -7.20012 -1.98861 -27.4561
vn 0.0835372 0.198274 0.97658
v -7.19819 -1.97231 -27.4604
vn 0.0946776 0.292511 0.951564
v -7.19642 -1.9565 -27.4663
vn 0.104906 0.383931 0.917383
v -7.19483 -1.94133 -27.4738
vn 0.114124 0.471653 0.874368
v -7.19342 -1.92694 -27.4827
vn 0.122244 0.554834 0.822931
v -7.19222 -1.91348 -27.4929
vn 0.129186 0.632671 0.76357
v -7.19124 -1.90107 -27.5045
vn 0.134883 0.704414 0.696855
v -7.19048 -1.88984 -27.5172
vn 0.139282 0.769374 0.623429
v -7.18995 -1.87988 -27.5309
vn 0.14234 0.826925 0.543999
v -7.18965 -1.87131 -27.5455
vn 0.144026 0.876512 0.45933
v -7.1896 -1.86419 -27.5609
vn 0.144326 0.917657 0.370237
v -7.18979 -1.8586 -27.577
vn 0.143235 0.949965 0.277579
v -7.19022 -1.8546 -27.5935
vn 0.140766 0.973124 0.182247
v -7.19088 -1.85221 -27.6103
vn 0.13694 0.986912 0.0851605
v -7.19177 -1.85147 -27.6272
vn 0.131796 0.991195 -0.0127463
v -7.19288 -1.85238 -27.6441
vn 0.125382 0.985932 -0.11053
v -7.1942 -1.85494 -27.6608
vn 0.117761 0.971174 -0.20725
v -7.19571 -1.85911 -27.6772
vn 0.109006 0.947064 -0.301973
v -7.19741 -1.86485 -27.6931
vn 0.0992014 0.913832 -0.393789
v -7.19927 -1.87212 -27.7083
vn 0.0884411 0.8718 -0.481812
v -7.20128 -1.88084 -27.7227
vn 0.076829 0.821372 -0.565195
v -7.20341 -1.89093 -27.7362
vn 0.0644771 0.763034 -0.643135
v -7.20566 -1.9023 -27.7486
vn 0.0515042 0.697347 -0.714881
v -7.20799 -1.91482 -27.7598
vn 0.0380353 0.624944 -0.779742
v -7.21038 -1.92838 -27.7698
vn 0.0242002 0.546523 -0.837094
v -7.21281 -1.94285 -27.7783
vn 0.0101319 0.462839 -0.886385
v -7.21526 -1.9581 -27.7853
vn -0.00403393 0.374697 -0.927139
v -7.21771 -1.97397 -27.7908
vn -0.0181609 0.282946 -0.958964
v -7.22012 -1.99031 -27.7947
vn -0.032113 0.188471 -0.981554
v -7.22248 -2.00696 -27.797
vn -0.0457558 0.0921807 -0.99469
v -7.22476 -2.02377 -27.7976
vn -0.058958 -0.0049975 -0.998248
v -6.54506 -2.13129 -27.8323
vn -0.0593971 -0.10375 -0.992828
v -6.54714 -2.14792 -27.8296
vn -0.0714007 -0.199888 -0.977214
v -6.5491 -2.16423 -27.8253
vn -0.0827167 -0.294102 -0.952188
v -6.55092 -2.18005 -27.8193
vn -0.0932361 -0.385483 -0.917992
v -6.55259 -2.19522 -27.8119
vn -0.102858 -0.473152 -0.874956
v -6.55408 -2.2096 -27.803
vn -0.111488 -0.556264 -0.823493
v -6.55539 -2.22306 -27.7927
vn -0.119046 -0.634019 -0.764099
v -6.5565 -2.23546 -27.7812
vn -0.125456 -0.705668 -0.697347
v -6.5574 -2.24669 -27.7684
vn -0.130659 -0.770522 -0.623879
v -6.55808 -2.25663 -27.7547
vn -0.134603 -0.827954 -0.544403
v -6.55854 -2.26519 -27.74
vn -0.137251 -0.877413 -0.459683
v -6.55877 -2.27228 -27.7246
vn -0.138577 -0.918422 -0.370537
v -6.55877 -2.27785 -27.7085
vn -0.138569 -0.950586 -0.277822
v -6.55853 -2.28183 -27.692
vn -0.137226 -0.973595 -0.182432
v -6.55807 -2.28419 -27.6752
vn -0.134561 -0.987228 -0.0852847
v -6.55739 -2.2849 -27.6583
vn -0.130601 -0.991354 0.0126839
v -6.55648 -2.28397 -27.6413
vn -0.125382 -0.985932 0.11053
v -6.55537 -2.28138 -27.6246
vn -0.118957 -0.971015 0.207312
v -6.55406 -2.27718 -27.6082
vn -0.111385 -0.946747 0.302098
v -6.55257 -2.27141 -27.5923
vn -0.102741 -0.913361 0.393974
v -6.5509 -2.26411 -27.577
vn -0.093108 -0.871179 0.482056
v -6.54908 -2.25535 -27.5626
vn -0.0825778 -0.820607 0.565495
v -6.54712 -2.24523 -27.5491
vn -0.0712524 -0.762132 0.643488
v -6.54504 -2.23384 -27.5367
vn -0.0592408 -0.696318 0.715285
v -6.54286 -2.22129 -27.5254
vn -0.0466587 -0.623797 0.780192
v -6.5406 -2.2077 -27.5155
vn -0.0336272 -0.545269 0.837586
v -6.53829 -2.1932 -27.507
vn -0.0202719 -0.46149 0.886914
v -6.53595 -2.17793 -27.4999
vn -0.00672129 -0.373266 0.9277
v -6.53359 -2.16204 -27.4944
vn 0.006894 -0.281448 0.959552
v -6.53125 -2.14568 -27.4905
vn 0.0204429 -0.186919 0.982163
v -6.52893 -2.12901 -27.4882
vn 0.0337949 -0.0905896 0.995315
v -6.52668 -2.11219 -27.4876
vn 0.0468215 0.00661193 0.998881
v -6.5245 -2.09537 -27.4886
vn 0.0593971 0.10375 0.992828
v -6.52243 -2.07874 -27.4913
vn 0.0714007 0.199888 0.977214
v -6.52047 -2.06243 -27.4957
vn 0.0827167 0.294102 0.952188
v -6.51865 -2.04661 -27.5016
vn 0.0932361 0.385483 0.917992
v -6.51698 -2.03144 -27.509
vn 0.102858 0.473152 0.874956
v -6.51549 -2.01706 -27.5179
vn 0.111488 0.556264 0.823493
v -6.51418 -2.0036 -27.5282
vn 0.119046 0.634019 0.764099
v -6.51307 -1.9912 -27.5398
vn 0.125456 0.705668 0.697347
v -6.51217 -1.97997 -27.5525
vn 0.130659 0.770522 0.623879
v -6.51149 -1.97003 -27.5662
vn 0.134603 0.827954 0.544403
v -6.51103 -1.96147 -27.5809
vn 0.137251 0.877413 0.459683
v -6.5108 -1.95438 -27.5963
vn 0.138577 0.918422 0.370537
v -6.5108 -1.94881 -27.6124
vn 0.138569 0.950586 0.277822
v -6.51103 -1.94483 -27.6289
vn 0.137226 0.973595 0.182432
v -6.5115 -1.94247 -27.6457
vn 0.134561 0.987228 0.0852847
v -6.51218 -1.94176 -27.6627
vn 0.130601 0.991354 -0.0126839
v -6.51308 -1.94269 -27.6796
vn 0.125382 0.985932 -0.11053
v -6.5142 -1.94528 -27.6963
vn 0.118957 0.971015 -0.207312
v -6.51551 -1.94948 -27.7127
vn 0.111385 0.946747 -0.302098
v -6.517 -1.95525 -27.7286
vn 0.102741 0.913361 -0.393974
v -6.51867 -1.96255 -27.7439
vn 0.093108 0.871179 -0.482056
v -6.52049 -1.97131 -27.7583
vn 0.0825778 0.820607 -0.565495
v -6.52245 -1.98143 -27.7718
vn 0.0712524 0.762132 -0.643488
v -6.52453 -1.99282 -27.7843
vn 0.0592408 0.696318 -0.715285
v -6.52671 -2.00537 -27.7955
vn 0.0466587 0.623797 -0.780192
v -6.52896 -2.01896 -27.8054
vn 0.0336272 0.545269 -0.837586
v -6.53128 -2.03346 -27.814
vn 0.0202719 0.46149 -0.886914
v -6.53362 -2.04873 -27.821
vn 0.00672129 0.373266 -0.9277
v -6.53598 -2.06462 -27.8265
vn -0.006894 0.281448 -0.959552
v -6.53832 -2.08098 -27.8304
vn -0.0204429 0.186919 -0.982163
v -6.54063 -2.09765 -27.8327
vn -0.0337949 0.0905896 -0.995315
v -6.54289 -2.11447 -27.8333
vn -0.0468215 -0.00661193 -0.998881
v -5.86176 -2.22125 -27.8596
vn -0.047226 -0.105352 -0.993313
v -5.86384 -2.2379 -27.8569
vn -0.0592882 -0.201483 -0.977696
v -5.86583 -2.25421 -27.8526
vn -0.0707795 -0.295673 -0.952663
v -5.86771 -2.27003 -27.8467
vn -0.0815891 -0.387017 -0.918456
v -5.86944 -2.2852 -27.8392
vn -0.0916129 -0.474632 -0.875403
v -5.87103 -2.29958 -27.8303
vn -0.100754 -0.557677 -0.82392
v -5.87244 -2.31304 -27.82
vn -0.108926 -0.635352 -0.764502
v -5.87367 -2.32543 -27.8084
vn -0.116048 -0.706907 -0.697722
v -5.87471 -2.33664 -27.7957
vn -0.122053 -0.771654 -0.624222
v -5.87555 -2.34657 -27.7819
vn -0.126882 -0.82897 -0.54471
v -5.87618 -2.35511 -27.7672
vn -0.130489 -0.878303 -0.459953
v -5.87658 -2.36219 -27.7518
vn -0.13284 -0.919177 -0.370765
v -5.87677 -2.36774 -27.7357
vn -0.133911 -0.951199 -0.278008
v -5.87673 -2.3717 -27.7192
vn -0.133693 -0.97406 -0.182573
v -5.87647 -2.37403 -27.7024
vn -0.132187 -0.987541 -0.0853793
v -5.87599 -2.37472 -27.6854
vn -0.129408 -0.991511 0.0126364
v -5.87529 -2.37375 -27.6684
vn -0.125382 -0.985932 0.11053
v -5.87439 -2.37114 -27.6517
vn -0.12015 -0.970858 0.20736
v -5.87328 -2.36691 -27.6352
vn -0.11376 -0.946435 0.302192
v -5.87198 -2.3611 -27.6193
vn -0.106275 -0.912896 0.394114
v -5.87051 -2.35377 -27.6041
vn -0.0977657 -0.870566 0.482241
v -5.86887 -2.34499 -27.5896
vn -0.0883153 -0.819852 0.565724
v -5.86709 -2.33484 -27.5761
vn -0.0780143 -0.761242 0.643758
v -5.86517 -2.32342 -27.5637
vn -0.0669621 -0.695301 0.715592
v -5.86315 -2.31084 -27.5524
vn -0.055265 -0.622664 0.780535
v -5.86103 -2.29722 -27.5425
vn -0.0430356 -0.544031 0.837961
v -5.85884 -2.2827 -27.5339
vn -0.0303918 -0.460158 0.887317
v -5.8566 -2.2674 -27.5268
vn -0.0174553 -0.371853 0.928127
v -5.85433 -2.25149 -27.5213
vn -0.00435065 -0.279967 0.96
v -5.85205 -2.23511 -27.5174
vn 0.00879586 -0.185385 0.982627
v -5.84979 -2.21842 -27.5151
vn 0.0218577 -0.0890182 0.99579
v -5.84757 -2.20158 -27.5145
vn 0.034709 0.00820638 0.999364
v -5.8454 -2.18476 -27.5156
vn 0.047226 0.105352 0.993313
v -5.84331 -2.16811 -27.5183
vn 0.0592882 0.201483 0.977696
v -5.84132 -2.15179 -27.5226
vn 0.0707795 0.295673 0.952663
v -5.83945 -2.13597 -27.5285
vn 0.0815891 0.387017 0.918456
v -5.83771 -2.1208 -27.536
vn 0.0916129 0.474632 0.875403
v -5.83613 -2.10642 -27.5449
vn 0.100754 0.557677 0.82392
v -5.83471 -2.09297 -27.5552
vn 0.108926 0.635352 0.764502
v -5.83348 -2.08057 -27.5667
vn 0.116048 0.706907 0.697722
v -5.83244 -2.06936 -27.5795
vn 0.122053 0.771654 0.624222
v -5.8316 -2.05943 -27.5932
vn 0.126882 0.82897 0.54471
v -5.83098 -2.05089 -27.6079
vn 0.130489 0.878303 0.459953
v -5.83057 -2.04381 -27.6234
vn 0.13284 0.919177 0.370765
v -5.83038 -2.03826 -27.6394
vn 0.133911 0.951199 0.278008
v -5.83042 -2.0343 -27.656
vn 0.133693 0.97406 0.182573
v -5.83068 -2.03197 -27.6728
vn 0.132187 0.987541 0.0853793
v -5.83116 -2.03128 -27.6898
vn 0.129408 0.991511 -0.0126364
v -5.83186 -2.03225 -27.7067
vn 0.125382 0.985932 -0.11053
v -5.83277 -2.03486 -27.7235
vn 0.12015 0.970858 -0.20736
v -5.83387 -2.03909 -27.7399
vn 0.11376 0.946435 -0.302192
v -5.83517 -2.0449 -27.7558
vn 0.106275 0.912896 -0.394114
v -5.83664 -2.05223 -27.7711
vn 0.0977657 0.870566 -0.482241
v -5.83828 -2.06101 -27.7856
vn 0.0883153 0.819852 -0.565724
v -5.84007 -2.07116 -27.7991
vn 0.0780143 0.761242 -0.643758
v -5.84198 -2.08258 -27.8115
vn 0.0669621 0.695301 -0.715592
v -5.84401 -2.09516 -27.8228
vn 0.055265 0.622664 -0.780535
v -5.84612 -2.10878 -27.8327
vn 0.0430356 0.544031 -0.837961
v -5.84831 -2.12331 -27.8413
vn 0.0303918 0.460158 -0.887317
v -5.85055 -2.1386 -27.8483
vn 0.0174553 0.371853 -0.928127
v -5.85282 -2.15451 -27.8538
vn 0.00435065 0.279967 -0.96
v -5.8551 -2.17089 -27.8578
vn -0.00879586 0.185385 -0.982627
v -5.85736 -2.18758 -27.86
vn -0.0218577 0.0890182 -0.99579
v -5.85959 -2.20442 -27.8607
vn -0.034709 -0.00820638 -0.999364
v -5.17702 -2.31045 -27.8786
vn -0.0350844 -0.106933 -0.993647
v -5.17912 -2.32711 -27.8759
vn -0.0472051 -0.203057 -0.978028
v -5.18115 -2.34343 -27.8715
vn -0.0588712 -0.297225 -0.952991
v -5.18307 -2.35925 -27.8656
vn -0.0699703 -0.38853 -0.918776
v -5.18488 -2.37443 -27.8581
vn -0.0803955 -0.476094 -0.875712
v -5.18655 -2.38881 -27.8492
vn -0.0900466 -0.559072 -0.824215
v -5.18807 -2.40226 -27.8389
vn -0.0988304 -0.636666 -0.76478
v -5.18943 -2.41464 -27.8273
vn -0.106662 -0.708129 -0.69798
v -5.19061 -2.42584 -27.8146
vn -0.113467 -0.772773 -0.624458
v -5.1916 -2.43576 -27.8008
vn -0.119179 -0.829974 -0.544922
v -5.19239 -2.44429 -27.7861
vn -0.123744 -0.879182 -0.460138
v -5.19297 -2.45135 -27.7706
vn -0.127116 -0.919923 -0.370923
v -5.19335 -2.45687 -27.7546
vn -0.129264 -0.951804 -0.278136
v -5.1935 -2.46081 -27.738
vn -0.130168 -0.974519 -0.18267
v -5.19344 -2.46312 -27.7212
vn -0.129818 -0.987849 -0.0854444
v -5.19316 -2.46378 -27.7042
vn -0.128218 -0.991666 0.0126036
v -5.19267 -2.46279 -27.6872
vn -0.125382 -0.985932 0.11053
v -5.19197 -2.46015 -27.6704
vn -0.12134 -0.970703 0.207392
v -5.19107 -2.45589 -27.654
vn -0.116129 -0.946126 0.302257
v -5.18997 -2.45005 -27.638
vn -0.109799 -0.912437 0.394211
v -5.18869 -2.44269 -27.6228
vn -0.102412 -0.869961 0.482369
v -5.18724 -2.43387 -27.6083
vn -0.0940388 -0.819106 0.565881
v -5.18563 -2.42369 -27.5948
vn -0.0847598 -0.760364 0.643943
v -5.18388 -2.41224 -27.5823
vn -0.0746646 -0.694298 0.715804
v -5.18201 -2.39964 -27.571
vn -0.0638504 -0.621546 0.780771
v -5.18003 -2.38599 -27.5611
vn -0.0524212 -0.542808 0.838219
v -5.17796 -2.37144 -27.5525
vn -0.0404871 -0.458843 0.887595
v -5.17582 -2.35612 -27.5455
vn -0.0281632 -0.370458 0.928422
v -5.17364 -2.34018 -27.5399
vn -0.015568 -0.278506 0.960308
v -5.17143 -2.32378 -27.536
vn -0.00282293 -0.183872 0.982946
v -5.16922 -2.30708 -27.5337
vn 0.00994936 -0.0874671 0.996118
v -5.16702 -2.29022 -27.5331
vn 0.0226258 0.00978027 0.999696
v -5.16486 -2.27339 -27.5342
vn 0.0350844 0.106933 0.993647
v -5.16276 -2.25673 -27.5369
vn 0.0472051 0.203057 0.978028
v -5.16074 -2.24041 -27.5412
vn 0.0588712 0.297225 0.952991
v -5.15882 -2.22458 -27.5471
vn 0.0699703 0.38853 0.918776
v -5.15701 -2.20941 -27.5546
vn 0.0803955 0.476094 0.875712
v -5.15534 -2.19503 -27.5635
vn 0.0900466 0.559072 0.824215
v -5.15382 -2.18158 -27.5738
vn 0.0988304 0.636666 0.76478
v -5.15246 -2.16919 -27.5854
vn 0.106662 0.708129 0.69798
v -5.15128 -2.15799 -27.5981
vn 0.113467 0.772773 0.624458
v -5.15029 -2.14808 -27.6119
vn 0.119179 0.829974 0.544922
v -5.1495 -2.13955 -27.6266
vn 0.123744 0.879182 0.460138
v -5.14891 -2.13249 -27.6421
vn 0.127116 0.919923 0.370923
v -5.14854 -2.12696 -27.6582
vn 0.129264 0.951804 0.278136
v -5.14838 -2.12303 -27.6747
vn 0.130168 0.974519 0.18267
v -5.14844 -2.12072 -27.6916
vn 0.129818 0.987849 0.0854444
v -5.14872 -2.12005 -27.7085
vn 0.128218 0.991666 -0.0126036
v -5.14921 -2.12105 -27.7255
vn 0.125382 0.985932 -0.11053
v -5.14991 -2.12369 -27.7423
vn 0.12134 0.970703 -0.207392
v -5.15082 -2.12795 -27.7587
vn 0.116129 0.946126 -0.302257
v -5.15191 -2.13379 -27.7747
vn 0.109799 0.912437 -0.394211
v -5.15319 -2.14115 -27.79
vn 0.102412 0.869961 -0.482369
v -5.15465 -2.14996 -27.8044
vn 0.0940388 0.819106 -0.565881
v -5.15625 -2.16014 -27.818
vn 0.0847598 0.760364 -0.643943
v -5.158 -2.17159 -27.8304
vn 0.0746646 0.694298 -0.715804
v -5.15988 -2.1842 -27.8417
vn 0.0638504 0.621546 -0.780771
v -5.16186 -2.19785 -27.8516
vn 0.0524212 0.542808 -0.838219
v -5.16393 -2.2124 -27.8602
vn 0.0404871 0.458843 -0.887595
v -5.16606 -2.22771 -27.8673
vn 0.0281632 0.370458 -0.928422
v -5.16825 -2.24365 -27.8728
vn 0.015568 0.278506 -0.960308
v -5.17045 -2.26005 -27.8767
vn 0.00282293 0.183872 -0.982946
v -5.17267 -2.27676 -27.879
vn -0.00994936 0.0874671 -0.996118
v -5.17486 -2.29361 -27.8796
vn -0.0226258 -0.00978027 -0.999696
v -4.49087 -2.39889 -27.8891
vn -0.0229777 -0.108494 -0.993832
v -4.49298 -2.41556 -27.8864
vn -0.0351566 -0.20461 -0.978212
v -4.49503 -2.43189 -27.8821
vn -0.0469971 -0.298755 -0.953172
v -4.49701 -2.44772 -27.8762
vn -0.0583849 -0.390023 -0.918952
v -4.49889 -2.4629 -27.8687
vn -0.0692104 -0.477535 -0.875883
v -4.50065 -2.47727 -27.8598
vn -0.0793694 -0.560448 -0.824378
v -4.50228 -2.49072 -27.8494
vn -0.088764 -0.637964 -0.764933
v -4.50376 -2.5031 -27.8379
vn -0.0973038 -0.709336 -0.698122
v -4.50508 -2.51429 -27.8251
vn -0.104906 -0.773876 -0.624588
v -4.50622 -2.52419 -27.8113
vn -0.111499 -0.830964 -0.545039
v -4.50718 -2.5327 -27.7966
vn -0.117017 -0.880049 -0.460241
v -4.50794 -2.53974 -27.7811
vn -0.121409 -0.920658 -0.37101
v -4.5085 -2.54525 -27.765
vn -0.124631 -0.952401 -0.278206
v -4.50885 -2.54916 -27.7485
vn -0.126654 -0.974972 -0.182723
v -4.50899 -2.55145 -27.7316
vn -0.127456 -0.988154 -0.0854804
v -4.50891 -2.55208 -27.7146
vn -0.127031 -0.991819 0.0125855
v -4.50863 -2.55106 -27.6976
vn -0.125382 -0.985932 0.11053
v -4.50813 -2.5484 -27.6808
vn -0.122526 -0.97055 0.207411
v -4.50743 -2.54411 -27.6644
vn -0.118491 -0.945822 0.302293
v -4.50653 -2.53824 -27.6484
vn -0.113313 -0.911984 0.394265
v -4.50545 -2.53085 -27.6331
vn -0.107045 -0.869364 0.48244
v -4.50418 -2.522 -27.6186
vn -0.0997458 -0.818371 0.565968
v -4.50275 -2.51179 -27.6051
vn -0.091486 -0.759497 0.644046
v -4.50116 -2.50032 -27.5926
vn -0.0823451 -0.693308 0.715921
v -4.49944 -2.48768 -27.5814
vn -0.0724111 -0.620443 0.780902
v -4.4976 -2.47401 -27.5714
vn -0.0617798 -0.541602 0.838362
v -4.49565 -2.45943 -27.5628
vn -0.0505535 -0.457545 0.887748
v -4.49362 -2.44409 -27.5557
vn -0.0388404 -0.369082 0.928585
v -4.49152 -2.42813 -27.5502
vn -0.0267532 -0.277065 0.960479
v -4.48938 -2.41171 -27.5463
vn -0.0144083 -0.182379 0.983123
v -4.48722 -2.39498 -27.544
vn -0.00192475 -0.0859367 0.996299
v -4.48505 -2.37811 -27.5434
vn 0.0105774 0.0113331 0.99988
v -4.4829 -2.36126 -27.5444
vn 0.0229777 0.108494 0.993832
v -4.48079 -2.34459 -27.5471
vn 0.0351566 0.20461 0.978212
v -4.47873 -2.32827 -27.5515
vn 0.0469971 0.298755 0.953172
v -4.47676 -2.31244 -27.5574
vn 0.0583849 0.390023 0.918952
v -4.47488 -2.29726 -27.5649
vn 0.0692104 0.477535 0.875883
v -4.47312 -2.28288 -27.5738
vn 0.0793694 0.560448 0.824378
v -4.47149 -2.26944 -27.5841
vn 0.088764 0.637964 0.764933
v -4.47001 -2.25706 -27.5957
vn 0.0973038 0.709336 0.698122
v -4.46869 -2.24587 -27.6085
vn 0.104906 0.773876 0.624588
v -4.46755 -2.23597 -27.6223
vn 0.111499 0.830964 0.545039
v -4.46659 -2.22746 -27.637
vn 0.117017 0.880049 0.460241
v -4.46583 -2.22041 -27.6524
vn 0.121409 0.920658 0.37101
v -4.46527 -2.21491 -27.6685
vn 0.124631 0.952401 0.278206
v -4.46492 -2.21099 -27.6851
vn 0.126654 0.974972 0.182723
v -4.46478 -2.20871 -27.702
vn 0.127456 0.988154 0.0854804
v -4.46485 -2.20807 -27.719
vn 0.127031 0.991819 -0.0125855
v -4.46514 -2.20909 -27.736
vn 0.125382 0.985932 -0.11053
v -4.46563 -2.21176 -27.7528
vn 0.122526 0.97055 -0.207411
v -4.46633 -2.21605 -27.7692
vn 0.118491 0.945822 -0.302293
v -4.46723 -2.22192 -27.7852
vn 0.113313 0.911984 -0.394265
v -4.46832 -2.22931 -27.8005
vn 0.107045 0.869364 -0.48244
v -4.46959 -2.23815 -27.8149
vn 0.0997458 0.818371 -0.565968
v -4.47102 -2.24836 -27.8285
vn 0.091486 0.759497 -0.644046
v -4.4726 -2.25984 -27.8409
vn 0.0823451 0.693308 -0.715921
v -4.47433 -2.27248 -27.8522
vn 0.0724111 0.620443 -0.780902
v -4.47617 -2.28615 -27.8622
vn 0.0617798 0.541602 -0.838362
v -4.47812 -2.30073 -27.8707
vn 0.0505535 0.457545 -0.887748
v -4.48015 -2.31607 -27.8778
vn 0.0388404 0.369082 -0.928585
v -4.48224 -2.33203 -27.8834
vn 0.0267532 0.277065 -0.960479
v -4.48438 -2.34845 -27.8873
vn 0.0144083 0.182379 -0.983123
v -4.48655 -2.36518 -27.8896
vn 0.00192475 0.0859367 -0.996299
v -4.48872 -2.38204 -27.8902
vn -0.0105774 -0.0113331 -0.99988
v -3.80329 -2.48658 -27.8913
vn -0.010911 -0.110032 -0.993868
v -3.80541 -2.50326 -27.8886
vn -0.0231481 -0.206141 -0.978249
v -3.8075 -2.51959 -27.8843
vn -0.0351623 -0.300264 -0.953208
v -3.80953 -2.53543 -27.8783
vn -0.0468378 -0.391495 -0.918987
v -3.81147 -2.55061 -27.8709
vn -0.0580623 -0.478957 -0.875916
v -3.81332 -2.56498 -27.8619
vn -0.0687275 -0.561805 -0.82441
v -3.81506 -2.57842 -27.8516
vn -0.0787309 -0.639243 -0.764964
v -3.81667 -2.59079 -27.84
vn -0.0879761 -0.710525 -0.698151
v -3.81812 -2.60197 -27.8273
vn -0.096374 -0.774964 -0.624614
v -3.81942 -2.61186 -27.8135
vn -0.103844 -0.83194 -0.545062
v -3.82054 -2.62036 -27.7987
vn -0.110314 -0.880903 -0.460261
v -3.82148 -2.62738 -27.7832
vn -0.115721 -0.921383 -0.371027
v -3.82223 -2.63287 -27.7671
vn -0.120014 -0.95299 -0.27822
v -3.82277 -2.63676 -27.7506
vn -0.123151 -0.975419 -0.182734
v -3.82311 -2.63902 -27.7337
vn -0.125102 -0.988454 -0.0854876
v -3.82324 -2.63963 -27.7167
vn -0.125848 -0.99197 0.0125819
v -3.82316 -2.63859 -27.6997
vn -0.125382 -0.985932 0.11053
v -3.82287 -2.63589 -27.6829
vn -0.123709 -0.9704 0.207414
v -3.82237 -2.63157 -27.6664
vn -0.120845 -0.945522 0.302301
v -3.82167 -2.62568 -27.6504
vn -0.116816 -0.911538 0.394276
v -3.82078 -2.61826 -27.6351
vn -0.111663 -0.868775 0.482454
v -3.81969 -2.60938 -27.6206
vn -0.105434 -0.817646 0.565985
v -3.81844 -2.59914 -27.6071
vn -0.0981898 -0.758642 0.644066
v -3.81702 -2.58763 -27.5946
vn -0.0900001 -0.692332 0.715944
v -3.81544 -2.57497 -27.5833
vn -0.0809435 -0.619355 0.780928
v -3.81374 -2.56127 -27.5734
vn -0.0711074 -0.540413 0.83839
v -3.81191 -2.54667 -27.5648
vn -0.0605866 -0.456266 0.887778
v -3.80998 -2.5313 -27.5577
vn -0.0494822 -0.367725 0.928617
v -3.80798 -2.51532 -27.5522
vn -0.0379013 -0.275643 0.960513
v -3.8059 -2.49888 -27.5482
vn -0.0259554 -0.180907 0.983158
v -3.80379 -2.48214 -27.546
vn -0.0137595 -0.0844277 0.996335
v -3.80165 -2.46525 -27.5453
vn -0.00143114 0.0128643 0.999916
v -3.7995 -2.44839 -27.5464
vn 0.010911 0.110032 0.993868
v -3.79738 -2.43171 -27.5491
vn 0.0231481 0.206141 0.978249
v -3.7953 -2.41538 -27.5534
vn 0.0351623 0.300264 0.953208
v -3.79327 -2.39954 -27.5594
vn 0.0468378 0.391495 0.918987
v -3.79132 -2.38437 -27.5669
vn 0.0580623 0.478957 0.875916
v -3.78947 -2.36999 -27.5758
vn 0.0687275 0.561805 0.82441
v -3.78773 -2.35655 -27.5861
vn 0.0787309 0.639243 0.764964
v -3.78613 -2.34418 -27.5977
vn 0.0879761 0.710525 0.698151
v -3.78467 -2.333 -27.6105
vn 0.096374 0.774964 0.624614
v -3.78338 -2.32311 -27.6243
vn 0.103844 0.83194 0.545062
v -3.78225 -2.31461 -27.639
vn 0.110314 0.880903 0.460261
v -3.78132 -2.30759 -27.6545
vn 0.115721 0.921383 0.371027
v -3.78057 -2.3021 -27.6706
vn 0.120014 0.95299 0.27822
v -3.78003 -2.29821 -27.6871
vn 0.123151 0.975419 0.182734
v -3.77969 -2.29595 -27.704
vn 0.125102 0.988454 0.0854876
v -3.77956 -2.29534 -27.721
vn 0.125848 0.99197 -0.0125819
v -3.77964 -2.29638 -27.738
vn 0.125382 0.985932 -0.11053
v -3.77993 -2.29908 -27.7549
vn 0.123709 0.9704 -0.207414
v -3.78043 -2.3034 -27.7713
vn 0.120845 0.945522 -0.302301
v -3.78113 -2.3093 -27.7873
vn 0.116816 0.911538 -0.394276
v -3.78202 -2.31672 -27.8026
vn 0.111663 0.868775 -0.482454
v -3.7831 -2.32559 -27.8171
vn 0.105434 0.817646 -0.565985
v -3.78436 -2.33583 -27.8306
vn 0.0981898 0.758642 -0.644066
v -3.78578 -2.34734 -27.8431
vn 0.0900001 0.692332 -0.715944
v -3.78735 -2.36 -27.8544
vn 0.0809435 0.619355 -0.780928
v -3.78906 -2.3737 -27.8644
vn 0.0711074 0.540413 -0.83839
v -3.79088 -2.3883 -27.8729
vn 0.0605866 0.456266 -0.887778
v -3.79281 -2.40367 -27.88
vn 0.0494822 0.367725 -0.928617
v -3.79482 -2.41965 -27.8855
vn 0.0379013 0.275643 -0.960513
v -3.79689 -2.43609 -27.8895
vn 0.0259554 0.180907 -0.983158
v -3.79901 -2.45283 -27.8918
vn 0.0137595 0.0844277 -0.996335
v -3.80115 -2.46972 -27.8924
vn 0.00143114 -0.0128643 -0.999916
v -3.11429 -2.57351 -27.8852
vn 0.00111037 -0.111549 -0.993758
v -3.11643 -2.5902 -27.8824
vn -0.0111846 -0.20765 -0.978139
v -3.11854 -2.60654 -27.8781
vn -0.0233719 -0.301751 -0.9531
v -3.12062 -2.62238 -27.8722
vn -0.035334 -0.392947 -0.918882
v -3.12264 -2.63756 -27.8647
vn -0.0469559 -0.480358 -0.875815
v -3.12458 -2.65193 -27.8557
vn -0.0581256 -0.563143 -0.824313
v -3.12642 -2.66537 -27.8454
vn -0.0687355 -0.640504 -0.764873
v -3.12815 -2.67773 -27.8338
vn -0.0786835 -0.711697 -0.698066
v -3.12975 -2.6889 -27.821
vn -0.0878736 -0.776036 -0.624537
v -3.13119 -2.69878 -27.8072
vn -0.0962175 -0.832902 -0.544993
v -3.13248 -2.70726 -27.7925
vn -0.103635 -0.881746 -0.4602
v -3.1336 -2.71427 -27.777
vn -0.110054 -0.922098 -0.370975
v -3.13453 -2.71973 -27.7609
vn -0.115413 -0.95357 -0.278178
v -3.13527 -2.72361 -27.7443
vn -0.119661 -0.975859 -0.182702
v -3.1358 -2.72584 -27.7274
vn -0.122757 -0.98875 -0.0854662
v -3.13614 -2.72643 -27.7104
vn -0.12467 -0.992118 0.0125927
v -3.13626 -2.72535 -27.6934
vn -0.125382 -0.985932 0.11053
v -3.13617 -2.72263 -27.6766
vn -0.124888 -0.970251 0.207403
v -3.13588 -2.71829 -27.6601
vn -0.12319 -0.945226 0.302279
v -3.13538 -2.71236 -27.6441
vn -0.120306 -0.911097 0.394244
v -3.13468 -2.70491 -27.6288
vn -0.116263 -0.868195 0.482412
v -3.13378 -2.69601 -27.6143
vn -0.111101 -0.816931 0.565933
v -3.1327 -2.68574 -27.6007
vn -0.104869 -0.757799 0.644005
v -3.13144 -2.6742 -27.5883
vn -0.0976263 -0.69137 0.715875
v -3.13002 -2.66151 -27.577
vn -0.0894439 -0.618282 0.78085
v -3.12845 -2.64778 -27.567
vn -0.0804001 -0.53924 0.838305
v -3.12674 -2.63315 -27.5584
vn -0.070582 -0.455005 0.887687
v -3.12492 -2.61776 -27.5513
vn -0.0600841 -0.366388 0.92852
v -3.123 -2.60176 -27.5458
vn -0.0490076 -0.274242 0.960411
v -3.12099 -2.5853 -27.5419
vn -0.0374592 -0.179455 0.983053
v -3.11892 -2.56854 -27.5396
vn -0.0255499 -0.0829403 0.996227
v -3.11681 -2.55164 -27.539
vn -0.0133946 0.0143735 0.999807
v -3.11468 -2.53477 -27.54
vn -0.00111037 0.111549 0.993758
v -3.11254 -2.51808 -27.5427
vn 0.0111846 0.20765 0.978139
v -3.11043 -2.50174 -27.5471
vn 0.0233719 0.301751 0.9531
v -3.10835 -2.4859 -27.553
vn 0.035334 0.392947 0.918882
v -3.10633 -2.47072 -27.5605
vn 0.0469559 0.480358 0.875815
v -3.10439 -2.45634 -27.5694
vn 0.0581256 0.563143 0.824313
v -3.10255 -2.44291 -27.5798
vn 0.0687355 0.640504 0.764873
v -3.10082 -2.43054 -27.5914
vn 0.0786835 0.711697 0.698066
v -3.09923 -2.41937 -27.6041
vn 0.0878736 0.776036 0.624537
v -3.09778 -2.4095 -27.6179
vn 0.0962175 0.832902 0.544993
v -3.09649 -2.40101 -27.6327
vn 0.103635 0.881746 0.4602
v -3.09537 -2.39401 -27.6482
vn 0.110054 0.922098 0.370975
v -3.09444 -2.38854 -27.6643
vn 0.115413 0.95357 0.278178
v -3.09371 -2.38467 -27.6809
vn 0.119661 0.975859 0.182702
v -3.09317 -2.38243 -27.6977
vn 0.122757 0.98875 0.0854662
v -3.09284 -2.38185 -27.7148
vn 0.12467 0.992118 -0.0125927
v -3.09271 -2.38292 -27.7318
vn 0.125382 0.985932 -0.11053
v -3.0928 -2.38564 -27.7486
vn 0.124888 0.970251 -0.207403
v -3.09309 -2.38999 -27.7651
vn 0.12319 0.945226 -0.302279
v -3.09359 -2.39592 -27.781
vn 0.120306 0.911097 -0.394244
v -3.0943 -2.40337 -27.7964
vn 0.116263 0.868195 -0.482412
v -3.09519 -2.41227 -27.8109
vn 0.111101 0.816931 -0.565933
v -3.09627 -2.42254 -27.8244
vn 0.104869 0.757799 -0.644005
v -3.09753 -2.43407 -27.8369
vn 0.0976263 0.69137 -0.715875
v -3.09895 -2.44677 -27.8482
vn 0.0894439 0.618282 -0.78085
v -3.10052 -2.46049 -27.8582
vn 0.0804001 0.53924 -0.838305
v -3.10223 -2.47512 -27.8667
vn 0.070582 0.455005 -0.887687
v -3.10405 -2.49051 -27.8738
vn 0.0600841 0.366388 -0.92852
v -3.10597 -2.50651 -27.8794
vn 0.0490076 0.274242 -0.960411
v -3.10798 -2.52297 -27.8833
vn 0.0374592 0.179455 -0.983053
v -3.11005 -2.53973 -27.8856
vn 0.0255499 0.0829403 -0.996227
v -3.11216 -2.55663 -27.8862
vn 0.0133946 -0.0143735 -0.999807
v -2.42387 -2.65968 -27.8706
vn 0.0130815 -0.113043 -0.993504
v -2.42602 -2.67638 -27.8679
vn 0.000728901 -0.209137 -0.977886
v -2.42817 -2.69273 -27.8635
vn -0.0116307 -0.303216 -0.952851
v -2.4303 -2.70857 -27.8576
vn -0.0238784 -0.394376 -0.918639
v -2.43239 -2.72375 -27.8501
vn -0.035896 -0.481738 -0.87558
v -2.43441 -2.73813 -27.8412
vn -0.047568 -0.56446 -0.824089
v -2.43636 -2.75156 -27.8308
vn -0.0587819 -0.641746 -0.764661
v -2.43821 -2.76391 -27.8192
vn -0.0694296 -0.712852 -0.697869
v -2.43995 -2.77508 -27.8065
vn -0.0794087 -0.777093 -0.624357
v -2.44155 -2.78494 -27.7926
vn -0.0886231 -0.833849 -0.544831
v -2.443 -2.79341 -27.7779
vn -0.096984 -0.882576 -0.460059
v -2.44429 -2.8004 -27.7624
vn -0.104411 -0.922803 -0.370856
v -2.44541 -2.80584 -27.7463
vn -0.110832 -0.954142 -0.278081
v -2.44634 -2.80969 -27.7297
vn -0.116186 -0.976293 -0.182628
v -2.44707 -2.81191 -27.7128
vn -0.120421 -0.989041 -0.0854165
v -2.44761 -2.81247 -27.6958
vn -0.123496 -0.992265 0.0126176
v -2.44794 -2.81137 -27.6787
vn -0.125382 -0.985932 0.11053
v -2.44805 -2.80862 -27.6619
vn -0.126061 -0.970105 0.207378
v -2.44796 -2.80424 -27.6454
vn -0.125525 -0.944934 0.302229
v -2.44766 -2.79829 -27.6295
vn -0.123781 -0.910664 0.39417
v -2.44715 -2.79081 -27.6141
vn -0.120844 -0.867623 0.482314
v -2.44643 -2.78188 -27.5996
vn -0.116744 -0.816227 0.565814
v -2.44553 -2.77158 -27.5861
vn -0.111519 -0.756969 0.643864
v -2.44443 -2.76001 -27.5736
vn -0.105221 -0.690422 0.715713
v -2.44316 -2.7473 -27.5623
vn -0.0979088 -0.617226 0.78067
v -2.44173 -2.73354 -27.5523
vn -0.0896539 -0.538086 0.838109
v -2.44014 -2.71889 -27.5437
vn -0.0805356 -0.453763 0.887476
v -2.43842 -2.70348 -27.5366
vn -0.0706417 -0.36507 0.928296
v -2.43659 -2.68745 -27.5311
vn -0.0600675 -0.272862 0.960176
v -2.43465 -2.67097 -27.5272
vn -0.0489148 -0.178026 0.982809
v -2.43263 -2.65419 -27.5249
vn -0.0372911 -0.0814752 0.995977
v -2.43055 -2.63728 -27.5243
vn -0.0253082 0.0158602 0.999554
v -2.42842 -2.62039 -27.5253
vn -0.0130815 0.113043 0.993504
v -2.42627 -2.60369 -27.528
vn -0.000728901 0.209137 0.977886
v -2.42413 -2.58734 -27.5324
vn 0.0116307 0.303216 0.952851
v -2.422 -2.5715 -27.5383
vn 0.0238784 0.394376 0.918639
v -2.41991 -2.55632 -27.5458
vn 0.035896 0.481738 0.87558
v -2.41788 -2.54194 -27.5547
vn 0.047568 0.56446 0.824089
v -2.41593 -2.52851 -27.5651
vn 0.0587819 0.641746 0.764661
v -2.41408 -2.51616 -27.5767
vn 0.0694296 0.712852 0.697869
v -2.41235 -2.50499 -27.5895
vn 0.0794087 0.777093 0.624357
v -2.41075 -2.49513 -27.6033
vn 0.0886231 0.833849 0.544831
v -2.40929 -2.48666 -27.618
vn 0.096984 0.882576 0.460059
v -2.408 -2.47967 -27.6335
vn 0.104411 0.922803 0.370856
v -2.40689 -2.47423 -27.6496
vn 0.110832 0.954142 0.278081
v -2.40596 -2.47038 -27.6662
vn 0.116186 0.976293 0.182628
v -2.40522 -2.46816 -27.6831
vn 0.120421 0.989041 0.0854165
v -2.40469 -2.4676 -27.7001
vn 0.123496 0.992265 -0.0126176
v -2.40436 -2.4687 -27.7172
vn 0.125382 0.985932 -0.11053
v -2.40424 -2.47145 -27.734
vn 0.126061 0.970105 -0.207378
v -2.40433 -2.47583 -27.7505
vn 0.125525 0.944934 -0.302229
v -2.40464 -2.48178 -27.7665
vn 0.123781 0.910664 -0.39417
v -2.40515 -2.48926 -27.7818
vn 0.120844 0.867623 -0.482314
v -2.40586 -2.49819 -27.7963
vn 0.116744 0.816227 -0.565814
v -2.40677 -2.50849 -27.8098
vn 0.111519 0.756969 -0.643864
v -2.40786 -2.52005 -27.8223
vn 0.105221 0.690422 -0.715713
v -2.40913 -2.53277 -27.8336
vn 0.0979088 0.617226 -0.78067
v -2.41057 -2.54653 -27.8436
vn 0.0896539 0.538086 -0.838109
v -2.41215 -2.56118 -27.8522
vn 0.0805356 0.453763 -0.887476
v -2.41387 -2.57659 -27.8593
vn 0.0706417 0.36507 -0.928296
v -2.41571 -2.59262 -27.8648
vn 0.0600675 0.272862 -0.960176
v -2.41765 -2.6091 -27.8687
vn 0.0489148 0.178026 -0.982809
v -2.41967 -2.62588 -27.871
vn 0.0372911 0.0814752 -0.995977
v -2.42175 -2.64279 -27.8717
vn 0.0253082 -0.0158602 -0.999554
f 1 66 2 
f 1 65 66 
f 2 67 3 
f 2 66 67 
f 3 68 4 
f 3 67 68 
f 4 69 5 
f 4 68 69 
f 5 70 6 
f 5 69 70 
f 6 71 7 
f 6 70 71 
f 7 72 8 
f 7 71 72 
f 8 73 9 
f 8 72 73 
f 9 74 10 
f 9 73 74 
f 10 75 11 
f 10 74 75 
f 11 76 12 
f 11 75 76 
f 12 77 13 
f 12 76 77 
f 13 78 14 
f 13 77 78 
f 14 79 15 
f 14 78 79 
f 15 80 16 
f 15 79 80 
f 16 81 17 
f 16 80 81 
f 17 82 18 
f 17 81 82 
f 18 83 19 
f 18 82 83 
f 19 84 20 
f 19 83 84 
f 20 85 21 
f 20 84 85 
f 21 86 22 
f 21 85 86 
f 22 87 23 
f 22 86 87 
f 23 88 24 
f 23 87 88 
f 24 89 25 
f 24 88 89 
f 25 90 26 
f 25 89 90 
f 26 91 27 
f 26 90 91 
f 27 92 28 
f 27 91 92 
f 28 93 29 
f 28 92 93 
f 29 94 30 
f 29 93 94 
f 30 95 31 
f 30 94 95 
f 31 96 32 
f 31 95 96 
f 32 97 33 
f 32 96 97 
f 33 98 34 
f 33 97 98 
f 34 99 35 
f 34 98 99 
f 35 100 36 
f 35 99 100 
f 36 101 37 
f 36 100 101 
f 37 102 38 
f 37 101 102 
f 38 103 39 
f 38 102 103 
f 39 104 40 
f 39 103 104 
f 40 105 41 
f 40 104 105 
f 41 106 42 
f 41 105 106 
f 42 107 43 
f 42 106 107 
f 43 108 44 
f 43 107 108 
f 44 109 45 
f 44 108 109 
f 45 110 46 
f 45 109 110 
f 46 111 47 
f 46 110 111 
f 47 112 48 
f 47 111 112 
f 48 113 49 
f 48 112 113 
f 49 114 50 
f 49 113 114 
f 50 115 51 
f 50 114 115 
f 51 116 52 
f 51 115 116 
f 52 117 53 
f 52 116 117 
f 53 118 54 
f 53 117 118 
f 54 119 55 
f 54 118 119 
f 55 120 56 
f 55 119 120 
f 56 121 57 
f 56 120 121 
f 57 122 58 
f 57 121 122 
f 58 123 59 
f 58 122 123 
f 59 124 60 
f 59 123 124 
f 60 125 61 
f 60 124 125 
f 61 126 62 
f 61 125 126 
f 62 127 63 
f 62 126 127 
f 63 128 64 
f 63 127 128 
f 64 65 1 
f 64 128 65 
f 65 130 66 
f 65 129 130 
f 66 131 67 
f 66 130 131 
f 67 132 68 
f 67 131 132 
f 68 133 69 
f 68 132 133 
f 69 134 70 
f 69 133 134 
f 70 135 71 
f 70 134 135 
f 71 136 72 
f 71 135 136 
f 72 137 73 
f 72 136 137 
f 73 138 74 
f 73 137 138 
f 74 139 75 
f 74 138 139 
f 75 140 76 
f 75 139 140 
f 76 141 77 
f 76 140 141 
f 77 142 78 
f 77 141 142 
f 78 143 79 
f 78 142 143 
f 79 144 80 
f 79 143 144 
f 80 145 81 
f 80 144 145 
f 81 146 82 
f 81 145 146 
f 82 147 83 
f 82 146 147 
f 83 148 84 
f 83 147 148 
f 84 149 85 
f 84 148 149 
f 85 150 86 
f 85 149 150 
f 86 151 87 
f 86 150 151 
f 87 152 88 
f 87 151 152 
f 88 153 89 
f 88 152 153 
f 89 154 90 
f 89 153 154 
f 90 155 91 
f 90 154 155 
f 91 156 92 
f 91 155 156 
f 92 157 93 
f 92 156 157 
f 93 158 94 
f 93 157 158 
f 94 159 95 
f 94 158 159 
f 95 160 96 
f 95 159 160 
f 96 161 97 
f 96 160 161 
f 97 162 98 
f 97 161 162 
f 98 163 99 
f 98 162 163 
f 99 164 100 
f 99 163 164 
f 100 165 101 
f 100 164 165 
f 101 166 102 
f 101 165 166 
f 102 167 103 
f 102 166 167 
f 103 168 104 
f 103 167 168 
f 104 169 105 
f 104 168 169 
f 105 170 106 
f 105 169 170 
f 106 171 107 
f 106 170 171 
f 107 172 108 
f 107 171 172 
f 108 173 109 
f 108 172 173 
f 109 174 110 
f 109 173 174 
f 110 175 111 
f 110 174 175 
f 111 176 112 
f 111 175 176 
f 112 177 113 
f 112 176 177 
f 113 178 114 
f 113 177 178 
f 114 179 115 
f 114 178 179 
f 115 180 116 
f 115 179 180 
f 116 181 117 
f 116 180 181 
f 117 182 118 
f 117 181 182 
f 118 183 119 
f 118 182 183 
f 119 184 120 
f 119 183 184 
f 120 185 121 
f 120 184 185 
f 121 186 122 
f 121 185 186 
f 122 187 123 
f 122 186 187 
f 123 188 124 
f 123 187 188 
f 124 189 125 
f 124 188 189 
f 125 190 126 
f 125 189 190 
f 126 191 127 
f 126 190 191 
f 127 192 128 
f 127 191 192 
f 128 129 65 
f 128 192 129 
f 129 194 130 
f 129 193 194 
f 130 195 131 
f 130 194 195 
f 131 196 132 
f 131 195 196 
f 132 197 133 
f 132 196 197 
f 133 198 134 
f 133 197 198 
f 134 199 135 
f 134 198 199 
f 135 200 136 
f 135 199 200 
f 136 201 137 
f 136 200 201 
f 137 202 138 
f 137 201 202 
f 138 203 139 
f 138 202 203 
f 139 204 140 
f 139 203 204 
f 140 205 141 
f 140 204 205 
f 141 206 142 
f 141 205 206 
f 142 207 143 
f 142 206 207 
f 143 208 144 
f 143 207 208 
f 144 209 145 
f 144 208 209 
f 145 210 146 
f 145 209 210 
f 146 211 147 
f 146 210 211 
f 147 212 148 
f 147 211 212 
f 148 213 149 
f 148 212 213 
f 149 214 150 
f 149 213 214 
f 150 215 151 
f 150 214 215 
f 151 216 152 
f 151 215 216 
f 152 217 153 
f 152 216 217 
f 153 218 154 
f 153 217 218 
f 154 219 155 
f 154 218 219 
f 155 220 156 
f 155 219 220 
f 156 221 157 
f 156 220 221 
f 157 222 158 
f 157 221 222 
f 158 223 159 
f 158 222 223 
f 159 224 160 
f 159 223 224 
f 160 225 161 
f 160 224 225 
f 161 226 162 
f 161 225 226 
f 162 227 163 
f 162 226 227 
f 163 228 164 
f 163 227 228 
f 164 229 165 
f 164 228 229 
f 165 230 166 
f 165 229 230 
f 166 231 167 
f 166 230 231 
f 167 232 168 
f 167 231 232 
f 168 233 169 
f 168 232 233 
f 169 234 170 
f 169 233 234 
f 170 235 171 
f 170 234 235 
f 171 236 172 
f 171 235 236 
f 172 237 173 
f 172 236 237 
f 173 238 174 
f 173 237 238 
f 174 239 175 
f 174 238 239 
f 175 240 176 
f 175 239 240 
f 176 241 177 
f 176 240 241 
f 177 242 178 
f 177 241 242 
f 178 243 179 
f 178 242 243 
f 179 244 180 
f 179 243 244 
f 180 245 181 
f 180 244 245 
f 181 246 182 
f 181 245 246 
f 182 247 183 
f 182 246 247 
f 183 248 184 
f 183 247 248 
f 184 249 185 
f 184 248 249 
f 185 250 186 
f 185 249 250 
f 186 251 187 
f 186 250 251 
f 187 252 188 
f 187 251 252 
f 188 253 189 
f 188 252 253 
f 189 254 190 
f 189 253 254 
f 190 255 191 
f 190 254 255 
f 191 256 192 
f 191 255 256 
f 192 193 129 
f 192 256 193 
f 193 258 194 
f 193 257 258 
f 194 259 195 
f 194 258 259 
f 195 260 196 
f 195 259 260 
f 196 261 197 
f 196 260 261 
f 197 262 198 
f 197 261 262 
f 198 263 199 
f 198 262 263 
f 199 264 200 
f 199 263 264 
f 200 265 201 
f 200 264 265 
f 201 266 202 
f 201 265 266 
f 202 267 203 
f 202 266 267 
f 203 268 204 
f 203 267 268 
f 204 269 205 
f 204 268 269 
f 205 270 206 
f 205 269 270 
f 206 271 207 
f 206 270 271 
f 207 272 208 
f 207 271 272 
f 208 273 209 
f 208 272 273 
f 209 274 210 
f 209 273 274 
f 210 275 211 
f 210 274 275 
f 211 276 212 
f 211 275 276 
f 212 277 213 
f 212 276 277 
f 213 278 214 
f 213 277 278 
f 214 279 215 
f 214 278 279 
f 215 280 216 
f 215 279 280 
f 216 281 217 
f 216 280 281 
f 217 282 218 
f 217 281 282 
f 218 283 219 
f 218 282 283 
f 219 284 220 
f 219 283 284 
f 220 285 221 
f 220 284 285 
f 221 286 222 
f 221 285 286 
f 222 287 223 
f 222 286 287 
f 223 288 224 
f 223 287 288 
f 224 289 225 
f 224 288 289 
f 225 290 226 
f 225 289 290 
f 226 291 227 
f 226 290 291 
f 227 292 228 
f 227 291 292 
f 228 293 229 
f 228 292 293 
f 229 294 230 
f 229 293 294 
f 230 295 231 
f 230 294 295 
f 231 296 232 
f 231 295 296 
f 232 297 233 
f 232 296 297 
f 233 298 234 
f 233 297 298 
f 234 299 235 
f 234 298 299 
f 235 300 236 
f 235 299 300 
f 236 301 237 
f 236 300 301 
f 237 302 238 
f 237 301 302 
f 238 303 239 
f 238 302 303 
f 239 304 240 
f 239 303 304 
f 240 305 241 
f 240 304 305 
f 241 306 242 
f 241 305 306 
f 242 307 243 
f 242 306 307 
f 243 308 244 
f 243 307 308 
f 244 309 245 
f 244 308 309 
f 245 310 246 
f 245 309 310 
f 246 311 247 
f 246 310 311 
f 247 312 248 
f 247 311 312 
f 248 313 249 
f 248 312 313 
f 249 314 250 
f 249 313 314 
f 250 315 251 
f 250 314 315 
f 251 316 252 
f 251 315 316 
f 252 317 253 
f 252 316 317 
f 253 318 254 
f 253 317 318 
f 254 319 255 
f 254 318 319 
f 255 320 256 
f 255 319 320 
f 256 257 193 
f 256 320 257 
f 257 322 258 
f 257 321 322 
f 258 323 259 
f 258 322 323 
f 259 324 260 
f 259 323 324 
f 260 325 261 
f 260 324 325 
f 261 326 262 
f 261 325 326 
f 262 327 263 
f 262 326 327 
f 263 328 264 
f 263 327 328 
f 264 329 265 
f 264 328 329 
f 265 330 266 
f 265 329 330 
f 266 331 267 
f 266 330 331 
f 267 332 268 
f 267 331 332 
f 268 333 269 
f 268 332 333 
f 269 334 270 
f 269 333 334 
f 270 335 271 
f 270 334 335 
f 271 336 272 
f 271 335 336 
f 272 337 273 
f 272 336 337 
f 273 338 274 
f 273 337 338 
f 274 339 275 
f 274 338 339 
f 275 340 276 
f 275 339 340 
f 276 341 277 
f 276 340 341 
f 277 342 278 
f 277 341 342 
f 278 343 279 
f 278 342 343 
f 279 344 280 
f 279 343 344 
f 280 345 281 
f 280 344 345 
f 281 346 282 
f 281 345 346 
f 282 347 283 
f 282 346 347 
f 283 348 284 
f 283 347 348 
f 284 349 285 
f 284 348 349 
f 285 350 286 
f 285 349 350 
f 286 351 287 
f 286 350 351 
f 287 352 288 
f 287 351 352 
f 288 353 289 
f 288 352 353 
f 289 354 290 
f 289 353 354 
f 290 355 291 
f 290 354 355 
f 291 356 292 
f 291 355 356 
f 292 357 293 
f 292 356 357 
f 293 358 294 
f 293 357 358 
f 294 359 295 
f 294 358 359 
f 295 360 296 
f 295 359 360 
f 296 361 297 
f 296 360 361 
f 297 362 298 
f 297 361 362 
f 298 363 299 
f 298 362 363 
f 299 364 300 
f 299 363 364 
f 300 365 301 
f 300 364 365 
f 301 366 302 
f 301 365 366 
f 302 367 303 
f 302 366 367 
f 303 368 304 
f 303 367 368 
f 304 369 305 
f 304 368 369 
f 305 370 306 
f 305 369 370 
f 306 371 307 
f 306 370 371 
f 307 372 308 
f 307 371 372 
f 308 373 309 
f 308 372 373 
f 309 374 310 
f 309 373 374 
f 310 375 311 
f 310 374 375 
f 311 376 312 
f 311 375 376 
f 312 377 313 
f 312 376 377 
f 313 378 314 
f 313 377 378 
f 314 379 315 
f 314 378 379 
f 315 380 316 
f 315 379 380 
f 316 381 317 
f 316 380 381 
f 317 382 318 
f 317 381 382 
f 318 383 319 
f 318 382 383 
f 319 384 320 
f 319 383 384 
f 320 321 257 
f 320 384 321 
f 321 386 322 
f 321 385 386 
f 322 387 323 
f 322 386 387 
f 323 388 324 
f 323 387 388 
f 324 389 325 
f 324 388 389 
f 325 390 326 
f 325 389 390 
f 326 391 327 
f 326 390 391 
f 327 392 328 
f 327 391 392 
f 328 393 329 
f 328 392 393 
f 329 394 330 
f 329 393 394 
f 330 395 331 
f 330 394 395 
f 331 396 332 
f 331 395 396 
f 332 397 333 
f 332 396 397 
f 333 398 334 
f 333 397 398 
f 334 399 335 
f 334 398 399 
f 335 400 336 
f 335 399 400 
f 336 401 337 
f 336 400 401 
f 337 402 338 
f 337 401 402 
f 338 403 339 
f 338 402 403 
f 339 404 340 
f 339 403 404 
f 340 405 341 
f 340 404 405 
f 341 406 342 
f 341 405 406 
f 342 407 343 
f 342 406 407 
f 343 408 344 
f 343 407 408 
f 344 409 345 
f 344 408 409 
f 345 410 346 
f 345 409 410 
f 346 411 347 
f 346 410 411 
f 347 412 348 
f 347 411 412 
f 348 413 349 
f 348 412 413 
f 349 414 350 
f 349 413 414 
f 350 415 351 
f 350 414 415 
f 351 416 352 
f 351 415 416 
f 352 417 353 
f 352 416 417 
f 353 418 354 
f 353 417 418 
f 354 419 355 
f 354 418 419 
f 355 420 356 
f 355 419 420 
f 356 421 357 
f 356 420 421 
f 357 422 358 
f 357 421 422 
f 358 423 359 
f 358 422 423 
f 359 424 360 
f 359 423 424 
f 360 425 361 
f 360 424 425 
f 361 426 362 
f 361 425 426 
f 362 427 363 
f 362 426 427 
f 363 428 364 
f 363 427 428 
f 364 429 365 
f 364 428 429 
f 365 430 366 
f 365 429 430 
f 366 431 367 
f 366 430 431 
f 367 432 368 
f 367 431 432 
f 368 433 369 
f 368 432 433 
f 369 434 370 
f 369 433 434 
f 370 435 371 
f 370 434 435 
f 371 436 372 
f 371 435 436 
f 372 437 373 
f 372 436 437 
f 373 438 374 
f 373 437 438 
f 374 439 375 
f 374 438 439 
f 375 440 376 
f 375 439 440 
f 376 441 377 
f 376 440 441 
f 377 442 378 
f 377 441 442 
f 378 443 379 
f 378 442 443 
f 379 444 380 
f 379 443 444 
f 380 445 381 
f 380 444 445 
f 381 446 382 
f 381 445 446 
f 382 447 383 
f 382 446 447 
f 383 448 384 
f 383 447 448 
f 384 385 321 
f 384 448 385 
f 385 450 386 
f 385 449 450 
f 386 451 387 
f 386 450 451 
f 387 452 388 
f 387 451 452 
f 388 453 389 
f 388 452 453 
f 389 454 390 
f 389 453 454 
f 390 455 391 
f 390 454 455 
f 391 456 392 
f 391 455 456 
f 392 457 393 
f 392 456 457 
f 393 458 394 
f 393 457 458 
f 394 459 395 
f 394 458 459 
f 395 460 396 
f 395 459 460 
f 396 461 397 
f 396 460 461 
f 397 462 398 
f 397 461 462 
f 398 463 399 
f 398 462 463 
f 399 464 400 
f 399 463 464 
f 400 465 401 
f 400 464 465 
f 401 466 402 
f 401 465 466 
f 402 467 403 
f 402 466 467 
f 403 468 404 
f 403 467 468 
f 404 469 405 
f 404 468 469 
f 405 470 406 
f 405 469 470 
f 406 471 407 
f 406 470 471 
f 407 472 408 
f 407 471 472 
f 408 473 409 
f 408 472 473 
f 409 474 410 
f 409 473 474 
f 410 475 411 
f 410 474 475 
f 411 476 412 
f 411 475 476 
f 412 477 413 
f 412 476 477 
f 413 478 414 
f 413 477 478 
f 414 479 415 
f 414 478 479 
f 415 480 416 
f 415 479 480 
f 416 481 417 
f 416 480 481 
f 417 482 418 
f 417 481 482 
f 418 483 419 
f 418 482 483 
f 419 484 420 
f 419 483 484 
f 420 485 421 
f 420 484 485 
f 421 486 422 
f 421 485 486 
f 422 487 423 
f 422 486 487 
f 423 488 424 
f 423 487 488 
f 424 489 425 
f 424 488 489 
f 425 490 426 
f 425 489 490 
f 426 491 427 
f 426 490 491 
f 427 492 428 
f 427 491 492 
f 428 493 429 
f 428 492 493 
f 429 494 430 
f 429 493 494 
f 430 495 431 
f 430 494 495 
f 431 496 432 
f 431 495 496 
f 432 497 433 
f 432 496 497 
f 433 498 434 
f 433 497 498 
f 434 499 435 
f 434 498 499 
f 435 500 436 
f 435 499 500 
f 436 501 437 
f 436 500 501 
f 437 502 438 
f 437 501 502 
f 438 503 439 
f 438 502 503 
f 439 504 440 
f 439 503 504 
f 440 505 441 
f 440 504 505 
f 441 506 442 
f 441 505 506 
f 442 507 443 
f 442 506 507 
f 443 508 444 
f 443 507 508 
f 444 509 445 
f 444 508 509 
f 445 510 446 
f 445 509 510 
f 446 511 447 
f 446 510 511 
f 447 512 448 
f 447 511 512 
f 448 449 385 
f 448 512 449 
f 449 514 450 
f 449 513 514 
f 450 515 451 
f 450 514 515 
f 451 516 452 
f 451 515 516 
f 452 517 453 
f 452 516 517 
f 453 518 454 
f 453 517 518 
f 454 519 455 
f 454 518 519 
f 455 520 456 
f 455 519 520 
f 456 521 457 
f 456 520 521 
f 457 522 458 
f 457 521 522 
f 458 523 459 
f 458 522 523 
f 459 524 460 
f 459 523 524 
f 460 525 461 
f 460 524 525 
f 461 526 462 
f 461 525 526 
f 462 527 463 
f 462 526 527 
f 463 528 464 
f 463 527 528 
f 464 529 465 
f 464 528 529 
f 465 530 466 
f 465 529 530 
f 466 531 467 
f 466 530 531 
f 467 532 468 
f 467 531 532 
f 468 533 469 
f 468 532 533 
f 469 534 470 
f 469 533 534 
f 470 535 471 
f 470 534 535 
f 471 536 472 
f 471 535 536 
f 472 537 473 
f 472 536 537 
f 473 538 474 
f 473 537 538 
f 474 539 475 
f 474 538 539 
f 475 540 476 
f 475 539 540 
f 476 541 477 
f 476 540 541 
f 477 542 478 
f 477 541 542 
f 478 543 479 
f 478 542 543 
f 479 544 480 
f 479 543 544 
f 480 545 481 
f 480 544 545 
f 481 546 482 
f 481 545 546 
f 482 547 483 
f 482 546 547 
f 483 548 484 
f 483 547 548 
f 484 549 485 
f 484 548 549 
f 485 550 486 
f 485 549 550 
f 486 551 487 
f 486 550 551 
f 487 552 488 
f 487 551 552 
f 488 553 489 
f 488 552 553 
f 489 554 490 
f 489 553 554 
f 490 555 491 
f 490 554 555 
f 491 556 492 
f 491 555 556 
f 492 557 493 
f 492 556 557 
f 493 558 494 
f 493 557 558 
f 494 559 495 
f 494 558 559 
f 495 560 496 
f 495 559 560 
f 496 561 497 
f 496 560 561 
f 497 562 498 
f 497 561 562 
f 498 563 499 
f 498 562 563 
f 499 564 500 
f 499 563 564 
f 500 565 501 
f 500 564 565 
f 501 566 502 
f 501 565 566 
f 502 567 503 
f 502 566 567 
f 503 568 504 
f 503 567 568 
f 504 569 505 
f 504 568 569 
f 505 570 506 
f 505 569 570 
f 506 571 507 
f 506 570 571 
f 507 572 508 
f 507 571 572 
f 508 573 509 
f 508 572 573 
f 509 574 510 
f 509 573 574 
f 510 575 511 
f 510 574 575 
f 511 576 512 
f 511 575 576 
f 512 513 449 
f 512 576 513 
f 513 578 514 
f 513 577 578 
f 514 579 515 
f 514 578 579 
f 515 580 516 
f 515 579 580 
f 516 581 517 
f 516 580 581 
f 517 582 518 
f 517 581 582 
f 518 583 519 
f 518 582 583 
f 519 584 520 
f 519 583 584 
f 520 585 521 
f 520 584 585 
f 521 586 522 
f 521 585 586 
f 522 587 523 
f 522 586 587 
f 523 588 524 
f 523 587 588 
f 524 589 525 
f 524 588 589 
f 525 590 526 
f 525 589 590 
f 526 591 527 
f 526 590 591 
f 527 592 528 
f 527 591 592 
f 528 593 529 
f 528 592 593 
f 529 594 530 
f 529 593 594 
f 530 595 531 
f 530 594 595 
f 531 596 532 
f 531 595 596 
f 532 597 533 
f 532 596 597 
f 533 598 534 
f 533 597 598 
f 534 599 535 
f 534 598 599 
f 535 600 536 
f 535 599 600 
f 536 601 537 
f 536 600 601 
f 537 602 538 
f 537 601 602 
f 538 603 539 
f 538 602 603 
f 539 604 540 
f 539 603 604 
f 540 605 541 
f 540 604 605 
f 541 606 542 
f 541 605 606 
f 542 607 543 
f 542 606 607 
f 543 608 544 
f 543 607 608 
f 544 609 545 
f 544 608 609 
f 545 610 546 
f 545 609 610 
f 546 611 547 
f 546 610 611 
f 547 612 548 
f 547 611 612 
f 548 613 549 
f 548 612 613 
f 549 614 550 
f 549 613 614 
f 550 615 551 
f 550 614 615 
f 551 616 552 
f 551 615 616 
f 552 617 553 
f 552 616 617 
f 553 618 554 
f 553 617 618 
f 554 619 555 
f 554 618 619 
f 555 620 556 
f 555 619 620 
f 556 621 557 
f 556 620 621 
f 557 622 558 
f 557 621 622 
f 558 623 559 
f 558 622 623 
f 559 624 560 
f 559 623 624 
f 560 625 561 
f 560 624 625 
f 561 626 562 
f 561 625 626 
f 562 627 563 
f 562 626 627 
f 563 628 564 
f 563 627 628 
f 564 629 565 
f 564 628 629 
f 565 630 566 
f 565 629 630 
f 566 631 567 
f 566 630 631 
f 567 632 568 
f 567 631 632 
f 568 633 569 
f 568 632 633 
f 569 634 570 
f 569 633 634 
f 570 635 571 
f 570 634 635 
f 571 636 572 
f 571 635 636 
f 572 637 573 
f 572 636 637 
f 573 638 574 
f 573 637 638 
f 574 639 575 
f 574 638 639 
f 575 640 576 
f 575 639 640 
f 576 577 513 
f 576 640 577 
