# Branch
v -0.950411 0.963533 -27.5232
vn -0.940294 -0.126595 -0.315944
v -0.945397 0.93806 -27.5239
vn -0.921348 -0.222849 -0.318521
v -0.938035 0.913156 -27.5238
vn -0.893529 -0.316958 -0.318031
v -0.928396 0.889059 -27.5228
vn -0.857105 -0.408014 -0.314477
v -0.916572 0.866003 -27.5211
vn -0.812426 -0.49514 -0.307895
v -0.902678 0.844208 -27.5186
vn -0.759924 -0.577499 -0.298348
v -0.886848 0.823885 -27.5153
vn -0.700102 -0.654295 -0.285928
v -0.869233 0.805229 -27.5113
vn -0.633539 -0.72479 -0.270753
v -0.850003 0.788421 -27.5066
vn -0.560874 -0.788306 -0.252972
v -0.829344 0.773622 -27.5012
vn -0.482808 -0.844229 -0.232754
v -0.807454 0.760974 -27.4953
vn -0.400091 -0.892022 -0.210295
v -0.784545 0.7506 -27.4888
vn -0.313522 -0.931224 -0.18581
v -0.760837 0.742599 -27.4818
vn -0.223934 -0.961458 -0.159536
v -0.736558 0.737048 -27.4745
vn -0.132188 -0.982433 -0.131725
v -0.711942 0.734001 -27.4668
vn -0.0391702 -0.993946 -0.102646
v -0.687226 0.733488 -27.4588
vn 0.0542253 -0.995888 -0.0725786
v -0.662649 0.735512 -27.4507
vn 0.147099 -0.988238 -0.0418119
v -0.638446 0.740055 -27.4424
vn 0.238555 -0.971071 -0.0106426
v -0.614852 0.747073 -27.4342
vn 0.327714 -0.944552 0.0206291
v -0.592092 0.756498 -27.4259
vn 0.413718 -0.908936 0.0517023
v -0.570387 0.76824 -27.4178
vn 0.495736 -0.864567 0.0822774
v -0.549946 0.782185 -27.41
vn 0.572981 -0.811872 0.11206
v -0.530964 0.798199 -27.4024
vn 0.644707 -0.751357 0.140764
v -0.513626 0.816128 -27.3951
vn 0.710225 -0.683607 0.168112
v -0.498098 0.835799 -27.3883
vn 0.768903 -0.609274 0.193841
v -0.484529 0.857023 -27.382
vn 0.820176 -0.529072 0.217703
v -0.473051 0.879596 -27.3762
vn 0.86355 -0.443776 0.239469
v -0.463774 0.903299 -27.3711
vn 0.898607 -0.354205 0.258928
v -0.456786 0.927905 -27.3666
vn 0.925011 -0.261224 0.275894
v -0.452157 0.953177 -27.3628
vn 0.942506 -0.165727 0.290202
v -0.449929 0.978871 -27.3598
vn 0.950924 -0.0686334 0.301716
v -0.450125 1.00474 -27.3575
vn 0.950185 0.0291209 0.310325
v -0.452742 1.03054 -27.356
vn 0.940294 0.126595 0.315944
v -0.457756 1.05601 -27.3553
vn 0.921348 0.222849 0.318521
v -0.465118 1.08091 -27.3555
vn 0.893529 0.316958 0.318031
v -0.474757 1.10501 -27.3564
vn 0.857105 0.408014 0.314477
v -0.48658 1.12807 -27.3581
vn 0.812426 0.49514 0.307895
v -0.500474 1.14986 -27.3607
vn 0.759924 0.577499 0.298348
v -0.516305 1.17018 -27.3639
vn 0.700102 0.654295 0.285928
v -0.53392 1.18884 -27.368
vn 0.633539 0.72479 0.270753
v -0.55315 1.20565 -27.3727
vn 0.560874 0.788306 0.252972
v -0.573809 1.22045 -27.378
vn 0.482808 0.844229 0.232754
v -0.595698 1.23309 -27.384
vn 0.400091 0.892022 0.210295
v -0.618607 1.24347 -27.3904
vn 0.313522 0.931224 0.18581
v -0.642316 1.25147 -27.3974
vn 0.223934 0.961458 0.159536
v -0.666595 1.25702 -27.4048
vn 0.132188 0.982433 0.131725
v -0.691211 1.26007 -27.4124
vn 0.0391702 0.993946 0.102646
v -0.715926 1.26058 -27.4204
vn -0.0542253 0.995888 0.0725786
v -0.740504 1.25856 -27.4285
vn -0.147099 0.988238 0.0418119
v -0.764706 1.25401 -27.4368
vn -0.238555 0.971071 0.0106426
v -0.788301 1.247 -27.4451
vn -0.327714 0.944552 -0.0206291
v -0.81106 1.23757 -27.4533
vn -0.413718 0.908936 -0.0517023
v -0.832765 1.22583 -27.4614
vn -0.495736 0.864567 -0.0822774
v -0.853207 1.21188 -27.4693
vn -0.572981 0.811872 -0.11206
v -0.872188 1.19587 -27.4769
vn -0.644707 0.751357 -0.140764
v -0.889526 1.17794 -27.4841
vn -0.710225 0.683607 -0.168112
v -0.905055 1.15827 -27.4909
vn -0.768903 0.609274 -0.193841
v -0.918623 1.13704 -27.4972
vn -0.820176 0.529072 -0.217703
v -0.930101 1.11447 -27.503
vn -0.86355 0.443776 -0.239469
v -0.939379 1.09077 -27.5081
vn -0.898607 0.354205 -0.258928
v -0.946366 1.06616 -27.5126
vn -0.925011 0.261224 -0.275894
v -0.950996 1.04089 -27.5164
vn -0.942506 0.165727 -0.290202
v -0.953224 1.0152 -27.5195
vn -0.950924 0.0686334 -0.301716
v -0.953028 0.989328 -27.5217
vn -0.950185 -0.0291209 -0.310325
v -0.5558 1.05762 -28.3587
vn -0.806045 -0.0952647 -0.584137
v -0.551412 1.0345 -28.359
vn -0.787746 -0.19167 -0.585422
v -0.545203 1.01182 -28.3579
vn -0.76186 -0.28623 -0.58107
v -0.537235 0.9898 -28.3555
vn -0.728637 -0.378033 -0.571122
v -0.527584 0.968656 -28.3518
vn -0.688396 -0.466195 -0.555673
v -0.516344 0.948589 -28.3468
vn -0.641527 -0.549868 -0.534873
v -0.503621 0.929791 -28.3406
vn -0.588478 -0.628245 -0.508922
v -0.489539 0.912445 -28.3332
vn -0.529763 -0.700572 -0.478069
v -0.474234 0.896717 -28.3247
vn -0.465946 -0.766152 -0.442613
v -0.457852 0.882758 -28.3152
vn -0.397641 -0.824353 -0.402894
v -0.440552 0.870704 -28.3047
vn -0.325507 -0.874616 -0.359294
v -0.4225 0.860669 -28.2934
vn -0.250238 -0.916455 -0.312235
v -0.40387 0.852752 -28.2814
vn -0.172559 -0.949469 -0.262169
v -0.384842 0.847027 -28.2688
vn -0.093218 -0.973338 -0.209578
v -0.365598 0.84355 -28.2557
vn -0.0129795 -0.987834 -0.154968
v -0.346324 0.842355 -28.2423
vn 0.067384 -0.992817 -0.098866
v -0.327206 0.843454 -28.2286
vn 0.147099 -0.988238 -0.0418119
v -0.308428 0.846834 -28.2148
vn 0.225396 -0.974141 0.0156448
v -0.29017 0.852465 -28.2011
vn 0.301524 -0.950664 0.0729509
v -0.272609 0.860291 -28.1875
vn 0.374747 -0.918031 0.129554
v -0.255913 0.870238 -28.1742
vn 0.444361 -0.876556 0.18491
v -0.240244 0.88221 -28.1614
vn 0.509696 -0.82664 0.238485
v -0.225752 0.89609 -28.1491
vn 0.570123 -0.768763 0.289764
v -0.212576 0.911747 -28.1374
vn 0.625058 -0.703483 0.338251
v -0.200845 0.929028 -28.1266
vn 0.673974 -0.631427 0.383482
v -0.19067 0.947768 -28.1166
vn 0.7164 -0.553291 0.425019
v -0.182149 0.967785 -28.1076
vn 0.751926 -0.469826 0.462463
v -0.175366 0.988888 -28.0997
vn 0.78021 -0.381836 0.495453
v -0.170384 1.01087 -28.093
vn 0.800981 -0.290169 0.523671
v -0.167253 1.03353 -28.0874
vn 0.814038 -0.195708 0.546847
v -0.166002 1.05663 -28.0831
vn 0.819255 -0.0993614 0.564756
v -0.166643 1.07997 -28.0801
vn 0.816582 -0.00205824 0.577226
v -0.16917 1.10331 -28.0785
vn 0.806045 0.0952647 0.584137
v -0.173559 1.12643 -28.0782
vn 0.787746 0.19167 0.585422
v -0.179767 1.14911 -28.0792
vn 0.76186 0.28623 0.58107
v -0.187735 1.17113 -28.0816
vn 0.728637 0.378033 0.571122
v -0.197386 1.19227 -28.0853
vn 0.688396 0.466195 0.555673
v -0.208627 1.21234 -28.0903
vn 0.641527 0.549868 0.534873
v -0.221349 1.23114 -28.0965
vn 0.588478 0.628245 0.508922
v -0.235431 1.24848 -28.1039
vn 0.529763 0.700572 0.478069
v -0.250737 1.26421 -28.1124
vn 0.465946 0.766152 0.442613
v -0.267118 1.27817 -28.1219
vn 0.397641 0.824353 0.402894
v -0.284418 1.29022 -28.1324
vn 0.325507 0.874616 0.359294
v -0.30247 1.30026 -28.1437
vn 0.250238 0.916455 0.312235
v -0.3211 1.30818 -28.1557
vn 0.172559 0.949469 0.262169
v -0.340128 1.3139 -28.1683
vn 0.093218 0.973338 0.209578
v -0.359372 1.31738 -28.1814
vn 0.0129795 0.987834 0.154968
v -0.378646 1.31857 -28.1948
vn -0.067384 0.992817 0.098866
v -0.397764 1.31748 -28.2085
vn -0.147099 0.988238 0.0418119
v -0.416542 1.31409 -28.2223
vn -0.225396 0.974141 -0.0156448
v -0.4348 1.30846 -28.2361
vn -0.301524 0.950664 -0.0729509
v -0.452361 1.30064 -28.2496
vn -0.374747 0.918031 -0.129554
v -0.469057 1.29069 -28.2629
vn -0.444361 0.876556 -0.18491
v -0.484726 1.27872 -28.2758
vn -0.509696 0.82664 -0.238485
v -0.499219 1.26484 -28.288
vn -0.570123 0.768763 -0.289764
v -0.512394 1.24918 -28.2997
vn -0.625058 0.703483 -0.338251
v -0.524126 1.2319 -28.3105
vn -0.673974 0.631427 -0.383482
v -0.5343 1.21316 -28.3205
vn -0.7164 0.553291 -0.425019
v -0.542821 1.19314 -28.3295
vn -0.751926 0.469826 -0.462463
v -0.549604 1.17204 -28.3374
vn -0.78021 0.381836 -0.495453
v -0.554586 1.15006 -28.3441
vn -0.800981 0.290169 -0.523671
v -0.557717 1.1274 -28.3497
vn -0.814038 0.195708 -0.546847
v -0.558968 1.10429 -28.354
vn -0.819255 0.0993614 -0.564756
v -0.558327 1.08096 -28.357
vn -0.816582 0.00205824 -0.577226
v 0.0599215 1.15617 -28.5218
vn 0.561215 0.118196 -0.819187
v 0.0624407 1.13522 -28.5219
vn 0.57293 0.0207626 -0.819341
v 0.0637735 1.11423 -28.5202
vn 0.579129 -0.0768708 -0.811604
v 0.063907 1.09339 -28.5169
vn 0.579749 -0.173764 -0.796051
v 0.0628399 1.07292 -28.5119
vn 0.574787 -0.268983 -0.772831
v 0.0605825 1.053 -28.5053
vn 0.564289 -0.361613 -0.742169
v 0.0571566 1.03383 -28.4971
vn 0.548357 -0.450759 -0.704359
v 0.0525951 1.01559 -28.4876
vn 0.527143 -0.535565 -0.659766
v 0.046942 0.998467 -28.4766
vn 0.500853 -0.615212 -0.608818
v 0.0402517 0.982614 -28.4644
vn 0.46974 -0.688935 -0.552008
v 0.0325886 0.968188 -28.451
vn 0.434102 -0.756023 -0.489881
v 0.0240266 0.955328 -28.4366
vn 0.394284 -0.815831 -0.423037
v 0.014648 0.944157 -28.4214
vn 0.350669 -0.867781 -0.352119
v 0.00454334 0.934784 -28.4054
vn 0.303677 -0.911374 -0.277809
v -0.00619024 0.927297 -28.3889
vn 0.25376 -0.94619 -0.200824
v -0.0174493 0.92177 -28.3719
vn 0.201399 -0.971894 -0.121905
v -0.0291255 0.918256 -28.3547
vn 0.147099 -0.988238 -0.0418119
v -0.0411062 0.916788 -28.3374
vn 0.0913816 -0.995064 0.0386838
v -0.0532762 0.91738 -28.3201
vn 0.0347846 -0.992308 0.118807
v -0.0655182 0.920028 -28.3032
vn -0.0221475 -0.979995 0.197786
v -0.0777144 0.924705 -28.2866
vn -0.0788662 -0.958244 0.27486
v -0.0897472 0.931367 -28.2706
vn -0.134825 -0.927265 0.349287
v -0.101501 0.939948 -28.2553
vn -0.189486 -0.887356 0.420351
v -0.112862 0.950367 -28.2409
vn -0.242322 -0.838901 0.487366
v -0.123722 0.962524 -28.2275
vn -0.292824 -0.782367 0.549687
v -0.133975 0.9763 -28.2152
vn -0.340506 -0.718298 0.606715
v -0.143523 0.991565 -28.2042
vn -0.384909 -0.647312 0.6579
v -0.152273 1.00817 -28.1946
vn -0.425605 -0.570092 0.702749
v -0.160143 1.02595 -28.1864
vn -0.462203 -0.487381 0.74083
v -0.167055 1.04475 -28.1797
vn -0.494348 -0.399977 0.771776
v -0.172944 1.06437 -28.1747
vn -0.521734 -0.30872 0.79529
v -0.177752 1.08463 -28.1713
vn -0.544094 -0.214491 0.811144
v -0.181433 1.10534 -28.1695
vn -0.561215 -0.118196 0.819187
v -0.183952 1.12629 -28.1695
vn -0.57293 -0.0207626 0.819341
v -0.185285 1.14728 -28.1712
vn -0.579129 0.0768708 0.811604
v -0.185419 1.16812 -28.1745
vn -0.579749 0.173764 0.796051
v -0.184352 1.18859 -28.1795
vn -0.574787 0.268983 0.772831
v -0.182094 1.20851 -28.1861
vn -0.564289 0.361613 0.742169
v -0.178668 1.22768 -28.1942
vn -0.548357 0.450759 0.704359
v -0.174107 1.24592 -28.2038
vn -0.527143 0.535565 0.659766
v -0.168454 1.26304 -28.2148
vn -0.500853 0.615212 0.608818
v -0.161763 1.2789 -28.227
vn -0.46974 0.688935 0.552008
v -0.1541 1.29332 -28.2403
vn -0.434102 0.756023 0.489881
v -0.145538 1.30618 -28.2547
vn -0.394284 0.815831 0.423037
v -0.13616 1.31735 -28.27
vn -0.350669 0.867781 0.352119
v -0.126055 1.32673 -28.2859
vn -0.303677 0.911374 0.277809
v -0.115322 1.33421 -28.3025
vn -0.25376 0.94619 0.200824
v -0.104062 1.33974 -28.3195
vn -0.201399 0.971894 0.121905
v -0.0923863 1.34325 -28.3367
vn -0.147099 0.988238 0.0418119
v -0.0804056 1.34472 -28.354
vn -0.0913816 0.995064 -0.0386838
v -0.0682356 1.34413 -28.3712
vn -0.0347846 0.992308 -0.118807
v -0.0559936 1.34148 -28.3882
vn 0.0221475 0.979995 -0.197786
v -0.0437974 1.33681 -28.4048
vn 0.0788662 0.958244 -0.27486
v -0.0317645 1.33014 -28.4208
vn 0.134825 0.927265 -0.349287
v -0.0200109 1.32156 -28.4361
vn 0.189486 0.887356 -0.420351
v -0.00864965 1.31114 -28.4505
vn 0.242322 0.838901 -0.487366
v 0.00220979 1.29899 -28.4639
vn 0.292824 0.782367 -0.549687
v 0.0124628 1.28521 -28.4761
vn 0.340506 0.718298 -0.606715
v 0.0220107 1.26995 -28.4872
vn 0.384909 0.647312 -0.6579
v 0.0307615 1.25334 -28.4968
vn 0.425605 0.570092 -0.702749
v 0.038631 1.23556 -28.505
vn 0.462203 0.487381 -0.74083
v 0.0455433 1.21676 -28.5116
vn 0.494348 0.399977 -0.771776
v 0.0514319 1.19714 -28.5167
vn 0.521734 0.30872 -0.79529
v 0.05624 1.17688 -28.5201
vn 0.544094 0.214491 -0.811144
v 0.384212 1.177 -27.8732
vn 0.949398 0.152924 -0.27433
v 0.386085 1.15843 -27.8737
vn 0.959245 0.0553235 -0.277108
v 0.3862 1.13976 -27.8737
vn 0.959853 -0.0428099 -0.277216
v 0.384558 1.12117 -27.8732
vn 0.951218 -0.140531 -0.274655
v 0.381172 1.10284 -27.8723
vn 0.933422 -0.236899 -0.269449
v 0.376077 1.08495 -27.8708
vn 0.906636 -0.330985 -0.261648
v 0.369321 1.06765 -27.8688
vn 0.871119 -0.421884 -0.251327
v 0.360969 1.05114 -27.8664
vn 0.827213 -0.508719 -0.238586
v 0.351101 1.03555 -27.8635
vn 0.77534 -0.590656 -0.223546
v 0.339813 1.02104 -27.8603
vn 0.716001 -0.666904 -0.206354
v 0.327214 1.00776 -27.8566
vn 0.649765 -0.73673 -0.187175
v 0.313424 0.995829 -27.8526
vn 0.577273 -0.79946 -0.166193
v 0.298576 0.985361 -27.8483
vn 0.49922 -0.854491 -0.143611
v 0.282814 0.976458 -27.8438
vn 0.41636 -0.901293 -0.119645
v 0.266289 0.969206 -27.839
vn 0.329491 -0.939415 -0.0945277
v 0.249161 0.963675 -27.834
vn 0.239448 -0.96849 -0.0684997
v 0.231593 0.959919 -27.829
vn 0.147099 -0.988238 -0.0418119
v 0.213757 0.957972 -27.8238
vn 0.053333 -0.998468 -0.0147215
v 0.195822 0.957855 -27.8186
vn -0.0409463 -0.999083 0.0125107
v 0.177963 0.959569 -27.8135
vn -0.134831 -0.990076 0.0396224
v 0.160351 0.963096 -27.8084
vn -0.227418 -0.971534 0.0663525
v 0.143155 0.968403 -27.8034
vn -0.317814 -0.943636 0.0924436
v 0.126541 0.975439 -27.7986
vn -0.405149 -0.90665 0.117644
v 0.11067 0.984135 -27.794
vn -0.488583 -0.860932 0.141712
v 0.095694 0.994409 -27.7897
vn -0.567312 -0.806923 0.164415
v 0.0817571 1.00616 -27.7857
vn -0.640576 -0.745143 0.185535
v 0.0689937 1.01928 -27.782
vn -0.707672 -0.676187 0.204868
v 0.0575268 1.03363 -27.7787
vn -0.767953 -0.600719 0.222228
v 0.0474668 1.04909 -27.7758
vn -0.820837 -0.519466 0.237448
v 0.0389105 1.0655 -27.7734
vn -0.865817 -0.43321 0.250381
v 0.0319403 1.0827 -27.7714
vn -0.902458 -0.342781 0.260902
v 0.0266235 1.10053 -27.7698
vn -0.930408 -0.249052 0.268911
v 0.0230112 1.11882 -27.7688
vn -0.949398 -0.152924 0.27433
v 0.0211381 1.13738 -27.7683
vn -0.959245 -0.0553235 0.277108
v 0.0210223 1.15605 -27.7683
vn -0.959853 0.0428099 0.277216
v 0.022665 1.17464 -27.7688
vn -0.951218 0.140531 0.274655
v 0.0260503 1.19297 -27.7697
vn -0.933422 0.236899 0.269449
v 0.0311456 1.21087 -27.7712
vn -0.906636 0.330985 0.261648
v 0.0379018 1.22816 -27.7732
vn -0.871119 0.421884 0.251327
v 0.0462539 1.24468 -27.7756
vn -0.827213 0.508719 0.238586
v 0.0561215 1.26027 -27.7785
vn -0.77534 0.590656 0.223546
v 0.0674094 1.27477 -27.7817
vn -0.716001 0.666904 0.206354
v 0.0800091 1.28805 -27.7854
vn -0.649765 0.73673 0.187175
v 0.0937991 1.29999 -27.7894
vn -0.577273 0.79946 0.166193
v 0.108647 1.31045 -27.7937
vn -0.49922 0.854491 0.143611
v 0.124409 1.31936 -27.7982
vn -0.41636 0.901293 0.119645
v 0.140934 1.32661 -27.803
vn -0.329491 0.939415 0.0945277
v 0.158062 1.33214 -27.808
vn -0.239448 0.96849 0.0684997
v 0.175629 1.3359 -27.813
vn -0.147099 0.988238 0.0418119
v 0.193466 1.33784 -27.8182
vn -0.053333 0.998468 0.0147215
v 0.2114 1.33796 -27.8234
vn 0.0409463 0.999083 -0.0125107
v 0.22926 1.33625 -27.8285
vn 0.134831 0.990076 -0.0396224
v 0.246872 1.33272 -27.8336
vn 0.227418 0.971534 -0.0663525
v 0.264068 1.32741 -27.8386
vn 0.317814 0.943636 -0.0924436
v 0.280681 1.32038 -27.8434
vn 0.405149 0.90665 -0.117644
v 0.296553 1.31168 -27.848
vn 0.488583 0.860932 -0.141712
v 0.311529 1.3014 -27.8523
vn 0.567312 0.806923 -0.164415
v 0.325466 1.28965 -27.8563
vn 0.640576 0.745143 -0.185535
v 0.338229 1.27654 -27.86
vn 0.707672 0.676187 -0.204868
v 0.349696 1.26218 -27.8633
vn 0.767953 0.600719 -0.222228
v 0.359756 1.24672 -27.8662
vn 0.820837 0.519466 -0.237448
v 0.368312 1.23031 -27.8686
vn 0.865817 0.43321 -0.250381
v 0.375282 1.21311 -27.8706
vn 0.902458 0.342781 -0.260902
v 0.380599 1.19528 -27.8722
vn 0.930408 0.249052 -0.268911
v 0.592656 1.15697 -26.6664
vn 0.979544 0.151412 -0.132543
v 0.594261 1.14082 -26.667
vn 0.989246 0.0538191 -0.136003
v 0.59429 1.12459 -26.6674
vn 0.98942 -0.0442926 -0.138153
v 0.592742 1.10843 -26.6675
vn 0.980066 -0.141978 -0.138973
v 0.589633 1.0925 -26.6674
vn 0.961273 -0.238295 -0.138455
v 0.584993 1.07695 -26.6671
vn 0.933223 -0.332318 -0.136603
v 0.578866 1.06192 -26.6666
vn 0.896185 -0.423141 -0.133435
v 0.571312 1.04757 -26.6658
vn 0.850516 -0.509888 -0.128982
v 0.562402 1.03403 -26.6649
vn 0.796657 -0.591725 -0.123288
v 0.552223 1.02144 -26.6638
vn 0.735125 -0.667863 -0.116405
v 0.540873 1.00991 -26.6624
vn 0.666514 -0.737569 -0.108402
v 0.528462 0.999552 -26.6609
vn 0.591483 -0.800173 -0.0993552
v 0.515108 0.990471 -26.6593
vn 0.510757 -0.85507 -0.0893512
v 0.50094 0.982752 -26.6575
vn 0.425111 -0.901732 -0.0784867
v 0.486095 0.97647 -26.6556
vn 0.335372 -0.93971 -0.0668664
v 0.470716 0.971684 -26.6535
vn 0.242402 -0.968638 -0.0546021
v 0.45495 0.968442 -26.6514
vn 0.147099 -0.988238 -0.0418119
v 0.43895 0.966774 -26.6492
vn 0.0503781 -0.99832 -0.0286191
v 0.42287 0.966697 -26.647
vn -0.0468275 -0.998788 -0.0151507
v 0.406865 0.968211 -26.6448
vn -0.143582 -0.989637 -0.00153631
v 0.391088 0.971301 -26.6425
vn -0.238954 -0.970956 0.0120928
v 0.375692 0.975938 -26.6403
vn -0.332025 -0.942923 0.0256055
v 0.360825 0.982078 -26.6381
vn -0.421898 -0.90581 0.0388716
v 0.34663 0.98966 -26.6359
vn -0.507707 -0.859973 0.0517634
v 0.333244 0.998613 -26.6339
vn -0.588628 -0.805854 0.0641566
v 0.320796 1.00885 -26.6319
vn -0.663879 -0.743975 0.075932
v 0.309405 1.02027 -26.6301
vn -0.732738 -0.67493 0.0869761
v 0.299182 1.03277 -26.6284
vn -0.794539 -0.599386 0.0971825
v 0.290224 1.04622 -26.6269
vn -0.848689 -0.518069 0.106453
v 0.282618 1.0605 -26.6255
vn -0.894665 -0.431763 0.114698
v 0.276438 1.07546 -26.6243
vn -0.932025 -0.341299 0.121839
v 0.271743 1.09097 -26.6234
vn -0.960409 -0.247548 0.127807
v 0.268577 1.10687 -26.6226
vn -0.979544 -0.151412 0.132543
v 0.266973 1.12302 -26.622
vn -0.989246 -0.0538191 0.136003
v 0.266944 1.13925 -26.6216
vn -0.98942 0.0442926 0.138153
v 0.268491 1.15541 -26.6215
vn -0.980066 0.141978 0.138973
v 0.2716 1.17134 -26.6216
vn -0.961273 0.238295 0.138455
v 0.27624 1.18689 -26.6219
vn -0.933223 0.332318 0.136603
v 0.282367 1.20192 -26.6224
vn -0.896185 0.423141 0.133435
v 0.289922 1.21627 -26.6232
vn -0.850516 0.509888 0.128982
v 0.298831 1.2298 -26.6241
vn -0.796657 0.591725 0.123288
v 0.30901 1.2424 -26.6252
vn -0.735125 0.667863 0.116405
v 0.32036 1.25393 -26.6266
vn -0.666514 0.737569 0.108402
v 0.332772 1.26429 -26.6281
vn -0.591483 0.800173 0.0993552
v 0.346126 1.27337 -26.6297
vn -0.510757 0.85507 0.0893512
v 0.360293 1.28109 -26.6315
vn -0.425111 0.901732 0.0784867
v 0.375138 1.28737 -26.6334
vn -0.335372 0.93971 0.0668664
v 0.390518 1.29215 -26.6355
vn -0.242402 0.968638 0.0546021
v 0.406283 1.2954 -26.6376
vn -0.147099 0.988238 0.0418119
v 0.422283 1.29706 -26.6398
vn -0.0503781 0.99832 0.0286191
v 0.438363 1.29714 -26.642
vn 0.0468275 0.998788 0.0151507
v 0.454368 1.29563 -26.6442
vn 0.143582 0.989637 0.00153631
v 0.470145 1.29254 -26.6465
vn 0.238954 0.970956 -0.0120928
v 0.485541 1.2879 -26.6487
vn 0.332025 0.942923 -0.0256055
v 0.500408 1.28176 -26.6509
vn 0.421898 0.90581 -0.0388716
v 0.514603 1.27418 -26.6531
vn 0.507707 0.859973 -0.0517634
v 0.527989 1.26523 -26.6551
vn 0.588628 0.805854 -0.0641566
v 0.540438 1.25499 -26.6571
vn 0.663879 0.743975 -0.075932
v 0.551828 1.24357 -26.6589
vn 0.732738 0.67493 -0.0869761
v 0.562052 1.23107 -26.6606
vn 0.794539 0.599386 -0.0971825
v 0.571009 1.21762 -26.6621
vn 0.848689 0.518069 -0.106453
v 0.578615 1.20334 -26.6635
vn 0.894665 0.431763 -0.114698
v 0.584795 1.18838 -26.6647
vn 0.932025 0.341299 -0.121839
v 0.589491 1.17287 -26.6656
vn 0.960409 0.247548 -0.127807
v 0.758905 1.10387 -24.8266
vn 0.985956 0.149876 -0.0736764
v 0.760265 1.09015 -24.8271
vn 0.995626 0.0522902 -0.0774199
v 0.760277 1.07635 -24.8275
vn 0.995708 -0.0457993 -0.0804178
v 0.75894 1.06262 -24.8278
vn 0.986201 -0.143448 -0.0826413
v 0.756267 1.04908 -24.828
vn 0.967197 -0.239715 -0.0840688
v 0.752285 1.03587 -24.8281
vn 0.938877 -0.333673 -0.0846868
v 0.747031 1.02311 -24.8281
vn 0.901516 -0.424418 -0.0844891
v 0.740557 1.01093 -24.8279
vn 0.855473 -0.511076 -0.0834778
v 0.732924 0.999431 -24.8277
vn 0.80119 -0.592811 -0.0816626
v 0.724205 0.988741 -24.8273
vn 0.739193 -0.668838 -0.0790609
v 0.714486 0.978955 -24.8268
vn 0.670076 -0.738423 -0.0756978
v 0.70386 0.97017 -24.8263
vn 0.594506 -0.800897 -0.0716056
v 0.692428 0.96247 -24.8256
vn 0.51321 -0.855657 -0.0668239
v 0.680301 0.955928 -24.8248
vn 0.426972 -0.902178 -0.0613987
v 0.667596 0.950608 -24.824
vn 0.336623 -0.94001 -0.0553821
v 0.654435 0.946561 -24.8231
vn 0.243031 -0.968789 -0.0488321
v 0.640945 0.943826 -24.8221
vn 0.147099 -0.988238 -0.0418119
v 0.627256 0.94243 -24.821
vn 0.0497497 -0.99817 -0.034389
v 0.613499 0.942385 -24.8199
vn -0.0480783 -0.998488 -0.026635
v 0.599808 0.943692 -24.8188
vn -0.145443 -0.989191 -0.0186244
v 0.586313 0.946339 -24.8177
vn -0.241408 -0.970368 -0.0104345
v 0.573146 0.9503 -24.8165
vn -0.335047 -0.942199 -0.00214402
v 0.560432 0.955537 -24.8153
vn -0.42546 -0.904956 0.00616706
v 0.548294 0.962 -24.8142
vn -0.511775 -0.858998 0.0144187
v 0.536849 0.969626 -24.813
vn -0.593162 -0.804768 0.0225316
v 0.526208 0.978342 -24.8119
vn -0.668836 -0.742787 0.0304274
v 0.516473 0.988063 -24.8108
vn -0.738069 -0.673653 0.0380302
v 0.507737 0.998697 -24.8098
vn -0.800194 -0.598031 0.0452668
v 0.500084 1.01014 -24.8089
vn -0.854612 -0.51665 0.0520674
v 0.493589 1.02228 -24.808
vn -0.9008 -0.430293 0.0583665
v 0.488314 1.03501 -24.8072
vn -0.938313 -0.339792 0.0641036
v 0.48431 1.0482 -24.8065
vn -0.96679 -0.246019 0.0692233
v 0.481615 1.06172 -24.8058
vn -0.985956 -0.149876 0.0736764
v 0.480255 1.07544 -24.8053
vn -0.995626 -0.0522902 0.0774199
v 0.480243 1.08923 -24.8049
vn -0.995708 0.0457993 0.0804178
v 0.48158 1.10296 -24.8046
vn -0.986201 0.143448 0.0826413
v 0.484253 1.1165 -24.8044
vn -0.967197 0.239715 0.0840688
v 0.488235 1.12971 -24.8043
vn -0.938877 0.333673 0.0846868
v 0.493489 1.14247 -24.8043
vn -0.901516 0.424418 0.0844891
v 0.499963 1.15466 -24.8045
vn -0.855473 0.511076 0.0834778
v 0.507596 1.16615 -24.8047
vn -0.80119 0.592811 0.0816626
v 0.516315 1.17684 -24.8051
vn -0.739193 0.668838 0.0790609
v 0.526034 1.18663 -24.8055
vn -0.670076 0.738423 0.0756978
v 0.53666 1.19541 -24.8061
vn -0.594506 0.800897 0.0716056
v 0.548092 1.20312 -24.8068
vn -0.51321 0.855657 0.0668239
v 0.560219 1.20966 -24.8076
vn -0.426972 0.902178 0.0613987
v 0.572924 1.21498 -24.8084
vn -0.336623 0.94001 0.0553821
v 0.586085 1.21902 -24.8093
vn -0.243031 0.968789 0.0488321
v 0.599575 1.22176 -24.8103
vn -0.147099 0.988238 0.0418119
v 0.613264 1.22316 -24.8114
vn -0.0497497 0.99817 0.034389
v 0.627021 1.2232 -24.8124
vn 0.0480783 0.998488 0.026635
v 0.640712 1.22189 -24.8136
vn 0.145443 0.989191 0.0186244
v 0.654207 1.21925 -24.8147
vn 0.241408 0.970368 0.0104345
v 0.667374 1.21528 -24.8159
vn 0.335047 0.942199 0.00214402
v 0.680088 1.21005 -24.8171
vn 0.42546 0.904956 -0.00616706
v 0.692226 1.20359 -24.8182
vn 0.511775 0.858998 -0.0144187
v 0.703671 1.19596 -24.8194
vn 0.593162 0.804768 -0.0225316
v 0.714312 1.18724 -24.8205
vn 0.668836 0.742787 -0.0304274
v 0.724047 1.17752 -24.8215
vn 0.738069 0.673653 -0.0380302
v 0.732783 1.16689 -24.8226
vn 0.800194 0.598031 -0.0452668
v 0.740436 1.15544 -24.8235
vn 0.854612 0.51665 -0.0520674
v 0.746931 1.1433 -24.8244
vn 0.9008 0.430293 -0.0583665
v 0.752206 1.13057 -24.8252
vn 0.938313 0.339792 -0.0641036
v 0.75621 1.11739 -24.8259
vn 0.96679 0.246019 -0.0692233
v 0.886966 1.01776 -22.3409
vn 0.987979 0.148829 -0.0417974
v 0.888085 1.00646 -22.3414
vn 0.99764 0.0512477 -0.0456944
v 0.888092 0.995103 -22.3418
vn 0.997693 -0.0468268 -0.0491514
v 0.886985 0.983797 -22.3421
vn 0.988138 -0.14445 -0.052135
v 0.884776 0.972651 -22.3424
vn 0.969066 -0.240683 -0.0546165
v 0.881486 0.961774 -22.3426
vn 0.940662 -0.334597 -0.056572
v 0.877147 0.951271 -22.3428
vn 0.903198 -0.425289 -0.0579827
v 0.871801 0.941241 -22.3429
vn 0.857037 -0.511885 -0.058835
v 0.865499 0.931783 -22.3429
vn 0.802621 -0.593552 -0.0591207
v 0.858301 0.922987 -22.3429
vn 0.740476 -0.669502 -0.0588371
v 0.850278 0.914937 -22.3428
vn 0.6712 -0.739005 -0.0579868
v 0.841506 0.907712 -22.3426
vn 0.59546 -0.801391 -0.056578
v 0.83207 0.90138 -22.3424
vn 0.513985 -0.856058 -0.0546244
v 0.82206 0.896004 -22.3421
vn 0.42756 -0.902482 -0.0521447
v 0.811574 0.891634 -22.3418
vn 0.337017 -0.940214 -0.0491628
v 0.800712 0.888312 -22.3414
vn 0.243229 -0.968891 -0.0457075
v 0.789578 0.886072 -22.3409
vn 0.147099 -0.988238 -0.0418119
v 0.77828 0.884933 -22.3404
vn 0.0495514 -0.998067 -0.0375137
v 0.766927 0.884908 -22.3399
vn -0.0484731 -0.998284 -0.0328543
v 0.755629 0.885996 -22.3393
vn -0.146031 -0.988887 -0.0278784
v 0.744493 0.888188 -22.3387
vn -0.242182 -0.969967 -0.022634
v 0.733627 0.891461 -22.3381
vn -0.336001 -0.941705 -0.0171717
v 0.723136 0.895784 -22.3374
vn -0.426584 -0.904374 -0.011544
v 0.71312 0.901117 -22.3367
vn -0.513059 -0.858334 -0.00580506
v 0.703677 0.907406 -22.3361
vn -0.594592 -0.804027 -1.02649e-05
v 0.694897 0.914593 -22.3354
vn -0.6704 -0.741977 0.00578463
v 0.686865 0.922607 -22.3347
vn -0.739751 -0.672782 0.0115238
v 0.679658 0.931371 -22.3341
vn -0.801978 -0.597107 0.017152
v 0.673346 0.940802 -22.3334
vn -0.856482 -0.515682 0.022615
v 0.667989 0.950807 -22.3328
vn -0.902737 -0.42929 0.0278603
v 0.663639 0.961292 -22.3323
vn -0.940298 -0.338764 0.0328372
v 0.660337 0.972154 -22.3317
vn -0.968804 -0.244976 0.0374979
v 0.658116 0.98329 -22.3312
vn -0.987979 -0.148829 0.0417974
v 0.656997 0.994591 -22.3308
vn -0.99764 -0.0512477 0.0456944
v 0.656991 1.00595 -22.3304
vn -0.997693 0.0468268 0.0491514
v 0.658098 1.01726 -22.33
vn -0.988138 0.14445 0.052135
v 0.660307 1.0284 -22.3297
vn -0.969066 0.240683 0.0546165
v 0.663596 1.03928 -22.3295
vn -0.940662 0.334597 0.056572
v 0.667935 1.04978 -22.3293
vn -0.903198 0.425289 0.0579827
v 0.673282 1.05981 -22.3293
vn -0.857037 0.511885 0.058835
v 0.679584 1.06927 -22.3292
vn -0.802621 0.593552 0.0591207
v 0.686781 1.07807 -22.3293
vn -0.740476 0.669502 0.0588371
v 0.694805 1.08612 -22.3293
vn -0.6712 0.739005 0.0579868
v 0.703577 1.09334 -22.3295
vn -0.59546 0.801391 0.056578
v 0.713013 1.09967 -22.3297
vn -0.513985 0.856058 0.0546244
v 0.723023 1.10505 -22.33
vn -0.42756 0.902482 0.0521447
v 0.733509 1.10942 -22.3304
vn -0.337017 0.940214 0.0491628
v 0.744371 1.11274 -22.3308
vn -0.243229 0.968891 0.0457075
v 0.755505 1.11498 -22.3312
vn -0.147099 0.988238 0.0418119
v 0.766802 1.11612 -22.3317
vn -0.0495514 0.998067 0.0375137
v 0.778155 1.11615 -22.3323
vn 0.0484731 0.998284 0.0328543
v 0.789454 1.11506 -22.3328
vn 0.146031 0.988887 0.0278784
v 0.80059 1.11287 -22.3334
vn 0.242182 0.969967 0.022634
v 0.811456 1.10959 -22.3341
vn 0.336001 0.941705 0.0171717
v 0.821947 1.10527 -22.3347
vn 0.426584 0.904374 0.011544
v 0.831962 1.09994 -22.3354
vn 0.513059 0.858334 0.00580506
v 0.841405 1.09365 -22.3361
vn 0.594592 0.804027 1.02649e-05
v 0.850185 1.08646 -22.3367
vn 0.6704 0.741977 -0.00578463
v 0.858217 1.07845 -22.3374
vn 0.739751 0.672782 -0.0115238
v 0.865424 1.06968 -22.3381
vn 0.801978 0.597107 -0.017152
v 0.871737 1.06025 -22.3387
vn 0.856482 0.515682 -0.022615
v 0.877094 1.05025 -22.3393
vn 0.902737 0.42929 -0.0278603
v 0.881444 1.03976 -22.3399
vn 0.940298 0.338764 -0.0328372
v 0.884746 1.0289 -22.3404
vn 0.968804 0.244976 -0.0374979
v 0.97745 0.8986 -19.2061
vn 0.988731 0.148097 -0.0218659
v 0.978329 0.889719 -19.2065
vn 0.998388 0.0505198 -0.0258589
v 0.978332 0.880794 -19.2068
vn 0.99843 -0.0475441 -0.0296028
v 0.977461 0.87191 -19.2071
vn 0.988857 -0.14515 -0.0330617
v 0.975723 0.863154 -19.2074
vn 0.969761 -0.241358 -0.0362022
v 0.973135 0.854609 -19.2077
vn 0.941325 -0.335242 -0.038994
v 0.969722 0.846358 -19.2079
vn 0.903823 -0.425897 -0.0414103
v 0.965516 0.838481 -19.2081
vn 0.857618 -0.512451 -0.0434278
v 0.960559 0.831052 -19.2082
vn 0.803153 -0.594069 -0.045027
v 0.954898 0.824145 -19.2083
vn 0.740953 -0.669966 -0.0461926
v 0.948588 0.817824 -19.2084
vn 0.671618 -0.739411 -0.0469134
v 0.941688 0.812152 -19.2084
vn 0.595814 -0.801735 -0.0471823
v 0.934267 0.807182 -19.2084
vn 0.514272 -0.856338 -0.0469969
v 0.926395 0.802963 -19.2083
vn 0.427778 -0.902694 -0.0463589
v 0.918148 0.799535 -19.2082
vn 0.337164 -0.940357 -0.0452744
v 0.909605 0.796932 -19.2081
vn 0.243303 -0.968963 -0.0437538
v 0.900849 0.795177 -19.2079
vn 0.147099 -0.988238 -0.0418119
v 0.891964 0.794289 -19.2077
vn 0.0494777 -0.997995 -0.0394674
v 0.883036 0.794276 -19.2075
vn -0.0486197 -0.998141 -0.0367427
v 0.87415 0.795138 -19.2072
vn -0.146249 -0.988675 -0.0336642
v 0.865393 0.796866 -19.2069
vn -0.24247 -0.969687 -0.0302615
v 0.856848 0.799444 -19.2065
vn -0.336355 -0.94136 -0.0265673
v 0.848598 0.802847 -19.2062
vn -0.427002 -0.903968 -0.0226173
v 0.840722 0.807043 -19.2058
vn -0.513536 -0.85787 -0.0184495
v 0.833296 0.81199 -19.2054
vn -0.595124 -0.80351 -0.014104
v 0.826392 0.817642 -19.205
vn -0.670981 -0.741412 -0.00962265
v 0.820076 0.823944 -19.2046
vn -0.740376 -0.672174 -0.00504865
v 0.814409 0.830835 -19.2042
vn -0.802641 -0.596462 -0.000426021
v 0.809445 0.838248 -19.2037
vn -0.857176 -0.515006 0.00420071
v 0.805233 0.846113 -19.2033
vn -0.903456 -0.42859 0.00878698
v 0.801813 0.854354 -19.2029
vn -0.941035 -0.338047 0.0132886
v 0.799218 0.862891 -19.2025
vn -0.969552 -0.244248 0.0176623
v 0.797472 0.871642 -19.2021
vn -0.988731 -0.148097 0.0218659
v 0.796593 0.880523 -19.2018
vn -0.998388 -0.0505198 0.0258589
v 0.796589 0.889448 -19.2014
vn -0.99843 0.0475441 0.0296028
v 0.797461 0.898332 -19.2011
vn -0.988857 0.14515 0.0330617
v 0.799199 0.907088 -19.2008
vn -0.969761 0.241358 0.0362022
v 0.801787 0.915633 -19.2006
vn -0.941325 0.335242 0.038994
v 0.8052 0.923884 -19.2004
vn -0.903823 0.425897 0.0414103
v 0.809405 0.931762 -19.2002
vn -0.857618 0.512451 0.0434278
v 0.814362 0.93919 -19.2
vn -0.803153 0.594069 0.045027
v 0.820023 0.946098 -19.1999
vn -0.740953 0.669966 0.0461926
v 0.826334 0.952418 -19.1999
vn -0.671618 0.739411 0.0469134
v 0.833233 0.958091 -19.1998
vn -0.595814 0.801735 0.0471823
v 0.840655 0.96306 -19.1998
vn -0.514272 0.856338 0.0469969
v 0.848527 0.967279 -19.1999
vn -0.427778 0.902694 0.0463589
v 0.856774 0.970707 -19.2
vn -0.337164 0.940357 0.0452744
v 0.865317 0.973311 -19.2001
vn -0.243303 0.968963 0.0437538
v 0.874073 0.975065 -19.2003
vn -0.147099 0.988238 0.0418119
v 0.882958 0.975953 -19.2005
vn -0.0494777 0.997995 0.0394674
v 0.891886 0.975966 -19.2008
vn 0.0486197 0.998141 0.0367427
v 0.900772 0.975105 -19.2011
vn 0.146249 0.988675 0.0336642
v 0.909529 0.973377 -19.2014
vn 0.24247 0.969687 0.0302615
v 0.918074 0.970799 -19.2017
vn 0.336355 0.94136 0.0265673
v 0.926324 0.967395 -19.2021
vn 0.427002 0.903968 0.0226173
v 0.9342 0.9632 -19.2024
vn 0.513536 0.85787 0.0184495
v 0.941626 0.958252 -19.2028
vn 0.595124 0.80351 0.014104
v 0.94853 0.9526 -19.2033
vn 0.670981 0.741412 0.00962265
v 0.954846 0.946299 -19.2037
vn 0.740376 0.672174 0.00504865
v 0.960513 0.939408 -19.2041
vn 0.802641 0.596462 0.000426021
v 0.965476 0.931994 -19.2045
vn 0.857176 0.515006 -0.00420071
v 0.969688 0.924129 -19.2049
vn 0.903456 0.42859 -0.00878698
v 0.973109 0.915888 -19.2053
vn 0.941035 0.338047 -0.0132886
v 0.975704 0.907351 -19.2057
vn 0.969552 0.244248 -0.0176623
v 1.0305 0.746347 -15.4209
vn 0.989018 0.147563 -0.00824037
v 1.03114 0.739886 -15.4212
vn 0.998674 0.0499886 -0.012299
v 1.03114 0.733394 -15.4215
vn 0.998712 -0.0480676 -0.0162391
v 1.03051 0.726932 -15.4217
vn 0.989132 -0.145661 -0.0200229
v 1.02925 0.720563 -15.4219
vn 0.970026 -0.241851 -0.0236138
v 1.02736 0.714349 -15.4222
vn 0.941578 -0.335713 -0.0269774
v 1.02488 0.708348 -15.4224
vn 0.904062 -0.426341 -0.0300811
v 1.02182 0.702619 -15.4226
vn 0.85784 -0.512863 -0.0328951
v 1.01821 0.697217 -15.4227
vn 0.803356 -0.594446 -0.0353923
v 1.01409 0.692195 -15.4229
vn 0.741135 -0.670305 -0.0375487
v 1.0095 0.687599 -15.423
vn 0.671777 -0.739708 -0.0393435
v 1.00448 0.683476 -15.4231
vn 0.595949 -0.801987 -0.0407593
v 0.999076 0.679864 -15.4231
vn 0.514382 -0.856543 -0.0417826
v 0.993348 0.676798 -15.4232
vn 0.427861 -0.902849 -0.0424036
v 0.987346 0.674307 -15.4232
vn 0.33722 -0.940461 -0.0426161
v 0.98113 0.672417 -15.4232
vn 0.243331 -0.969015 -0.0424183
v 0.974758 0.671144 -15.4231
vn 0.147099 -0.988238 -0.0418119
v 0.968292 0.670501 -15.4231
vn 0.0494495 -0.997943 -0.0408029
v 0.961795 0.670495 -15.423
vn -0.0486758 -0.998037 -0.0394009
v 0.955329 0.671125 -15.4229
vn -0.146332 -0.98852 -0.0376195
v 0.948957 0.672386 -15.4227
vn -0.24258 -0.969483 -0.0354757
v 0.942739 0.674264 -15.4226
vn -0.336491 -0.941109 -0.0329903
v 0.936735 0.676743 -15.4224
vn -0.427161 -0.903671 -0.0301872
v 0.931004 0.679798 -15.4222
vn -0.513718 -0.857531 -0.0270934
v 0.925601 0.6834 -15.4219
vn -0.595327 -0.803133 -0.0237387
v 0.920577 0.687514 -15.4217
vn -0.671203 -0.740999 -0.0201553
v 0.915981 0.6921 -15.4215
vn -0.740615 -0.67173 -0.0163778
v 0.911857 0.697115 -15.4212
vn -0.802894 -0.595991 -0.0124427
v 0.908246 0.70251 -15.4209
vn -0.857442 -0.514513 -0.00838762
v 0.905181 0.708233 -15.4207
vn -0.903731 -0.42808 -0.00425182
v 0.902692 0.714229 -15.4204
vn -0.941317 -0.337524 -7.50694e-05
v 0.900804 0.72044 -15.4201
vn -0.969838 -0.243717 0.0041024
v 0.899534 0.726806 -15.4198
vn -0.989018 -0.147563 0.00824037
v 0.898895 0.733267 -15.4196
vn -0.998674 -0.0499886 0.012299
v 0.898892 0.739759 -15.4193
vn -0.998712 0.0480676 0.0162391
v 0.899526 0.746221 -15.4191
vn -0.989132 0.145661 0.0200229
v 0.900791 0.75259 -15.4188
vn -0.970026 0.241851 0.0236138
v 0.902675 0.758805 -15.4186
vn -0.941578 0.335713 0.0269774
v 0.905159 0.764805 -15.4184
vn -0.904062 0.426341 0.0300811
v 0.908219 0.770534 -15.4182
vn -0.85784 0.512863 0.0328951
v 0.911827 0.775936 -15.418
vn -0.803356 0.594446 0.0353923
v 0.915947 0.780959 -15.4179
vn -0.741135 0.670305 0.0375487
v 0.920539 0.785554 -15.4178
vn -0.671777 0.739708 0.0393435
v 0.92556 0.789677 -15.4177
vn -0.595949 0.801987 0.0407593
v 0.93096 0.79329 -15.4176
vn -0.514382 0.856543 0.0417826
v 0.936689 0.796356 -15.4176
vn -0.427861 0.902849 0.0424036
v 0.94269 0.798846 -15.4176
vn -0.33722 0.940461 0.0426161
v 0.948907 0.800737 -15.4176
vn -0.243331 0.969015 0.0424183
v 0.955279 0.802009 -15.4176
vn -0.147099 0.988238 0.0418119
v 0.961744 0.802652 -15.4177
vn -0.0494495 0.997943 0.0408029
v 0.968241 0.802658 -15.4178
vn 0.0486758 0.998037 0.0394009
v 0.974707 0.802028 -15.4179
vn 0.146332 0.98852 0.0376195
v 0.98108 0.800768 -15.418
vn 0.24258 0.969483 0.0354757
v 0.987298 0.798889 -15.4182
vn 0.336491 0.941109 0.0329903
v 0.993301 0.79641 -15.4184
vn 0.427161 0.903671 0.0301872
v 0.999032 0.793355 -15.4186
vn 0.513718 0.857531 0.0270934
v 1.00444 0.789753 -15.4188
vn 0.595327 0.803133 0.0237387
v 1.00946 0.785639 -15.419
vn 0.671203 0.740999 0.0201553
v 1.01406 0.781053 -15.4193
vn 0.740615 0.67173 0.0163778
v 1.01818 0.776038 -15.4196
vn 0.802894 0.595991 0.0124427
v 1.02179 0.770643 -15.4198
vn 0.857442 0.514513 0.00838762
v 1.02486 0.76492 -15.4201
vn 0.903731 0.42808 0.00425182
v 1.02734 0.758925 -15.4204
vn 0.941317 0.337524 7.50694e-05
v 1.02923 0.752714 -15.4206
vn 0.969838 0.243717 -0.0041024
v 1.04617 0.560986 -10.9847
vn 0.989112 0.147158 0.00165798
v 1.04657 0.556946 -10.9849
vn 0.998767 0.0495857 -0.00244829
v 1.04657 0.552886 -10.9851
vn 0.998804 -0.0484647 -0.00653098
v 1.04618 0.548845 -10.9852
vn 0.989221 -0.146048 -0.0105508
v 1.04538 0.544863 -10.9854
vn 0.970112 -0.242225 -0.014469
v 1.04421 0.540977 -10.9856
vn 0.94166 -0.33607 -0.0182478
v 1.04265 0.537225 -10.9857
vn 0.90414 -0.426678 -0.0218509
v 1.04074 0.533643 -10.9859
vn 0.857912 -0.513176 -0.0252436
v 1.03848 0.530266 -10.986
vn 0.803422 -0.594733 -0.0283931
v 1.03591 0.527126 -10.9861
vn 0.741194 -0.670562 -0.0312693
v 1.03303 0.524253 -10.9862
vn 0.671829 -0.739933 -0.0338442
v 1.02989 0.521676 -10.9863
vn 0.595993 -0.802178 -0.0360933
v 1.02652 0.519418 -10.9864
vn 0.514418 -0.856697 -0.0379947
v 1.02293 0.517502 -10.9864
vn 0.427888 -0.902967 -0.0395302
v 1.01918 0.515946 -10.9865
vn 0.337238 -0.94054 -0.0406851
v 1.01529 0.514766 -10.9865
vn 0.24334 -0.969055 -0.0414481
v 1.0113 0.513971 -10.9865
vn 0.147099 -0.988238 -0.0418119
v 1.00726 0.513571 -10.9865
vn 0.0494404 -0.997903 -0.0417731
v 1.0032 0.513569 -10.9865
vn -0.048694 -0.997958 -0.041332
v 0.999153 0.513964 -10.9865
vn -0.146359 -0.988402 -0.0404928
v 0.995167 0.514754 -10.9864
vn -0.242615 -0.969328 -0.0392637
v 0.991278 0.515931 -10.9864
vn -0.336535 -0.940918 -0.0376564
v 0.987523 0.517482 -10.9863
vn -0.427213 -0.903447 -0.0356865
v 0.983939 0.519394 -10.9862
vn -0.513777 -0.857274 -0.0333729
v 0.980559 0.521648 -10.9861
vn -0.595393 -0.802846 -0.0307379
v 0.977417 0.524222 -10.986
vn -0.671275 -0.740686 -0.0278068
v 0.974543 0.527091 -10.9858
vn -0.740693 -0.671393 -0.024608
v 0.971964 0.530228 -10.9857
vn -0.802977 -0.595634 -0.0211722
v 0.969705 0.533603 -10.9855
vn -0.857528 -0.514139 -0.0175325
v 0.967788 0.537183 -10.9854
vn -0.90382 -0.427692 -0.013724
v 0.966231 0.540933 -10.9852
vn -0.941409 -0.337127 -0.00978322
v 0.96505 0.544818 -10.985
vn -0.969931 -0.243314 -0.00574828
v 0.964256 0.548799 -10.9849
vn -0.989112 -0.147158 -0.00165798
v 0.963856 0.55284 -10.9847
vn -0.998767 -0.0495857 0.00244829
v 0.963855 0.5569 -10.9845
vn -0.998804 0.0484647 0.00653098
v 0.964251 0.56094 -10.9844
vn -0.989221 0.146048 0.0105508
v 0.965043 0.564923 -10.9842
vn -0.970112 0.242225 0.014469
v 0.966221 0.568809 -10.9841
vn -0.94166 0.33607 0.0182478
v 0.967775 0.572561 -10.9839
vn -0.90414 0.426678 0.0218509
v 0.969689 0.576143 -10.9838
vn -0.857912 0.513176 0.0252436
v 0.971945 0.57952 -10.9836
vn -0.803422 0.594733 0.0283931
v 0.974522 0.58266 -10.9835
vn -0.741194 0.670562 0.0312693
v 0.977394 0.585532 -10.9834
vn -0.671829 0.739933 0.0338442
v 0.980535 0.58811 -10.9833
vn -0.595993 0.802178 0.0360933
v 0.983912 0.590368 -10.9832
vn -0.514418 0.856697 0.0379947
v 0.987495 0.592283 -10.9832
vn -0.427888 0.902967 0.0395302
v 0.991249 0.593839 -10.9831
vn -0.337238 0.94054 0.0406851
v 0.995137 0.59502 -10.9831
vn -0.24334 0.969055 0.0414481
v 0.999123 0.595814 -10.9831
vn -0.147099 0.988238 0.0418119
v 1.00317 0.596215 -10.9831
vn -0.0494404 0.997903 0.0417731
v 1.00723 0.596217 -10.9831
vn 0.048694 0.997958 0.041332
v 1.01127 0.595821 -10.9831
vn 0.146359 0.988402 0.0404928
v 1.01526 0.595031 -10.9832
vn 0.242615 0.969328 0.0392637
v 1.01915 0.593855 -10.9833
vn 0.336535 0.940918 0.0376564
v 1.0229 0.592303 -10.9833
vn 0.427213 0.903447 0.0356865
v 1.02649 0.590391 -10.9834
vn 0.513777 0.857274 0.0333729
v 1.02987 0.588138 -10.9835
vn 0.595393 0.802846 0.0307379
v 1.03301 0.585564 -10.9837
vn 0.671275 0.740686 0.0278068
v 1.03588 0.582694 -10.9838
vn 0.740693 0.671393 0.024608
v 1.03846 0.579557 -10.9839
vn 0.802977 0.595634 0.0211722
v 1.04072 0.576183 -10.9841
vn 0.857528 0.514139 0.0175325
v 1.04264 0.572603 -10.9842
vn 0.90382 0.427692 0.013724
v 1.0442 0.568853 -10.9844
vn 0.941409 0.337127 0.00978322
v 1.04538 0.564968 -10.9846
vn 0.969931 0.243314 0.00574828
f 1 66 2 
f 1 65 66 
f 2 67 3 
f 2 66 67 
f 3 68 4 
f 3 67 68 
f 4 69 5 
f 4 68 69 
f 5 70 6 
f 5 69 70 
f 6 71 7 
f 6 70 71 
f 7 72 8 
f 7 71 72 
f 8 73 9 
f 8 72 73 
f 9 74 10 
f 9 73 74 
f 10 75 11 
f 10 74 75 
f 11 76 12 
f 11 75 76 
f 12 77 13 
f 12 76 77 
f 13 78 14 
f 13 77 78 
f 14 79 15 
f 14 78 79 
f 15 80 16 
f 15 79 80 
f 16 81 17 
f 16 80 81 
f 17 82 18 
f 17 81 82 
f 18 83 19 
f 18 82 83 
f 19 84 20 
f 19 83 84 
f 20 85 21 
f 20 84 85 
f 21 86 22 
f 21 85 86 
f 22 87 23 
f 22 86 87 
f 23 88 24 
f 23 87 88 
f 24 89 25 
f 24 88 89 
f 25 90 26 
f 25 89 90 
f 26 91 27 
f 26 90 91 
f 27 92 28 
f 27 91 92 
f 28 93 29 
f 28 92 93 
f 29 94 30 
f 29 93 94 
f 30 95 31 
f 30 94 95 
f 31 96 32 
f 31 95 96 
f 32 97 33 
f 32 96 97 
f 33 98 34 
f 33 97 98 
f 34 99 35 
f 34 98 99 
f 35 100 36 
f 35 99 100 
f 36 101 37 
f 36 100 101 
f 37 102 38 
f 37 101 102 
f 38 103 39 
f 38 102 103 
f 39 104 40 
f 39 103 104 
f 40 105 41 
f 40 104 105 
f 41 106 42 
f 41 105 106 
f 42 107 43 
f 42 106 107 
f 43 108 44 
f 43 107 108 
f 44 109 45 
f 44 108 109 
f 45 110 46 
f 45 109 110 
f 46 111 47 
f 46 110 111 
f 47 112 48 
f 47 111 112 
f 48 113 49 
f 48 112 113 
f 49 114 50 
f 49 113 114 
f 50 115 51 
f 50 114 115 
f 51 116 52 
f 51 115 116 
f 52 117 53 
f 52 116 117 
f 53 118 54 
f 53 117 118 
f 54 119 55 
f 54 118 119 
f 55 120 56 
f 55 119 120 
f 56 121 57 
f 56 120 121 
f 57 122 58 
f 57 121 122 
f 58 123 59 
f 58 122 123 
f 59 124 60 
f 59 123 124 
f 60 125 61 
f 60 124 125 
f 61 126 62 
f 61 125 126 
f 62 127 63 
f 62 126 127 
f 63 128 64 
f 63 127 128 
f 64 65 1 
f 64 128 65 
f 65 130 66 
f 65 129 130 
f 66 131 67 
f 66 130 131 
f 67 132 68 
f 67 131 132 
f 68 133 69 
f 68 132 133 
f 69 134 70 
f 69 133 134 
f 70 135 71 
f 70 134 135 
f 71 136 72 
f 71 135 136 
f 72 137 73 
f 72 136 137 
f 73 138 74 
f 73 137 138 
f 74 139 75 
f 74 138 139 
f 75 140 76 
f 75 139 140 
f 76 141 77 
f 76 140 141 
f 77 142 78 
f 77 141 142 
f 78 143 79 
f 78 142 143 
f 79 144 80 
f 79 143 144 
f 80 145 81 
f 80 144 145 
f 81 146 82 
f 81 145 146 
f 82 147 83 
f 82 146 147 
f 83 148 84 
f 83 147 148 
f 84 149 85 
f 84 148 149 
f 85 150 86 
f 85 149 150 
f 86 151 87 
f 86 150 151 
f 87 152 88 
f 87 151 152 
f 88 153 89 
f 88 152 153 
f 89 154 90 
f 89 153 154 
f 90 155 91 
f 90 154 155 
f 91 156 92 
f 91 155 156 
f 92 157 93 
f 92 156 157 
f 93 158 94 
f 93 157 158 
f 94 159 95 
f 94 158 159 
f 95 160 96 
f 95 159 160 
f 96 161 97 
f 96 160 161 
f 97 162 98 
f 97 161 162 
f 98 163 99 
f 98 162 163 
f 99 164 100 
f 99 163 164 
f 100 165 101 
f 100 164 165 
f 101 166 102 
f 101 165 166 
f 102 167 103 
f 102 166 167 
f 103 168 104 
f 103 167 168 
f 104 169 105 
f 104 168 169 
f 105 170 106 
f 105 169 170 
f 106 171 107 
f 106 170 171 
f 107 172 108 
f 107 171 172 
f 108 173 109 
f 108 172 173 
f 109 174 110 
f 109 173 174 
f 110 175 111 
f 110 174 175 
f 111 176 112 
f 111 175 176 
f 112 177 113 
f 112 176 177 
f 113 178 114 
f 113 177 178 
f 114 179 115 
f 114 178 179 
f 115 180 116 
f 115 179 180 
f 116 181 117 
f 116 180 181 
f 117 182 118 
f 117 181 182 
f 118 183 119 
f 118 182 183 
f 119 184 120 
f 119 183 184 
f 120 185 121 
f 120 184 185 
f 121 186 122 
f 121 185 186 
f 122 187 123 
f 122 186 187 
f 123 188 124 
f 123 187 188 
f 124 189 125 
f 124 188 189 
f 125 190 126 
f 125 189 190 
f 126 191 127 
f 126 190 191 
f 127 192 128 
f 127 191 192 
f 128 129 65 
f 128 192 129 
f 129 194 130 
f 129 193 194 
f 130 195 131 
f 130 194 195 
f 131 196 132 
f 131 195 196 
f 132 197 133 
f 132 196 197 
f 133 198 134 
f 133 197 198 
f 134 199 135 
f 134 198 199 
f 135 200 136 
f 135 199 200 
f 136 201 137 
f 136 200 201 
f 137 202 138 
f 137 201 202 
f 138 203 139 
f 138 202 203 
f 139 204 140 
f 139 203 204 
f 140 205 141 
f 140 204 205 
f 141 206 142 
f 141 205 206 
f 142 207 143 
f 142 206 207 
f 143 208 144 
f 143 207 208 
f 144 209 145 
f 144 208 209 
f 145 210 146 
f 145 209 210 
f 146 211 147 
f 146 210 211 
f 147 212 148 
f 147 211 212 
f 148 213 149 
f 148 212 213 
f 149 214 150 
f 149 213 214 
f 150 215 151 
f 150 214 215 
f 151 216 152 
f 151 215 216 
f 152 217 153 
f 152 216 217 
f 153 218 154 
f 153 217 218 
f 154 219 155 
f 154 218 219 
f 155 220 156 
f 155 219 220 
f 156 221 157 
f 156 220 221 
f 157 222 158 
f 157 221 222 
f 158 223 159 
f 158 222 223 
f 159 224 160 
f 159 223 224 
f 160 225 161 
f 160 224 225 
f 161 226 162 
f 161 225 226 
f 162 227 163 
f 162 226 227 
f 163 228 164 
f 163 227 228 
f 164 229 165 
f 164 228 229 
f 165 230 166 
f 165 229 230 
f 166 231 167 
f 166 230 231 
f 167 232 168 
f 167 231 232 
f 168 233 169 
f 168 232 233 
f 169 234 170 
f 169 233 234 
f 170 235 171 
f 170 234 235 
f 171 236 172 
f 171 235 236 
f 172 237 173 
f 172 236 237 
f 173 238 174 
f 173 237 238 
f 174 239 175 
f 174 238 239 
f 175 240 176 
f 175 239 240 
f 176 241 177 
f 176 240 241 
f 177 242 178 
f 177 241 242 
f 178 243 179 
f 178 242 243 
f 179 244 180 
f 179 243 244 
f 180 245 181 
f 180 244 245 
f 181 246 182 
f 181 245 246 
f 182 247 183 
f 182 246 247 
f 183 248 184 
f 183 247 248 
f 184 249 185 
f 184 248 249 
f 185 250 186 
f 185 249 250 
f 186 251 187 
f 186 250 251 
f 187 252 188 
f 187 251 252 
f 188 253 189 
f 188 252 253 
f 189 254 190 
f 189 253 254 
f 190 255 191 
f 190 254 255 
f 191 256 192 
f 191 255 256 
f 192 193 129 
f 192 256 193 
f 193 258 194 
f 193 257 258 
f 194 259 195 
f 194 258 259 
f 195 260 196 
f 195 259 260 
f 196 261 197 
f 196 260 261 
f 197 262 198 
f 197 261 262 
f 198 263 199 
f 198 262 263 
f 199 264 200 
f 199 263 264 
f 200 265 201 
f 200 264 265 
f 201 266 202 
f 201 265 266 
f 202 267 203 
f 202 266 267 
f 203 268 204 
f 203 267 268 
f 204 269 205 
f 204 268 269 
f 205 270 206 
f 205 269 270 
f 206 271 207 
f 206 270 271 
f 207 272 208 
f 207 271 272 
f 208 273 209 
f 208 272 273 
f 209 274 210 
f 209 273 274 
f 210 275 211 
f 210 274 275 
f 211 276 212 
f 211 275 276 
f 212 277 213 
f 212 276 277 
f 213 278 214 
f 213 277 278 
f 214 279 215 
f 214 278 279 
f 215 280 216 
f 215 279 280 
f 216 281 217 
f 216 280 281 
f 217 282 218 
f 217 281 282 
f 218 283 219 
f 218 282 283 
f 219 284 220 
f 219 283 284 
f 220 285 221 
f 220 284 285 
f 221 286 222 
f 221 285 286 
f 222 287 223 
f 222 286 287 
f 223 288 224 
f 223 287 288 
f 224 289 225 
f 224 288 289 
f 225 290 226 
f 225 289 290 
f 226 291 227 
f 226 290 291 
f 227 292 228 
f 227 291 292 
f 228 293 229 
f 228 292 293 
f 229 294 230 
f 229 293 294 
f 230 295 231 
f 230 294 295 
f 231 296 232 
f 231 295 296 
f 232 297 233 
f 232 296 297 
f 233 298 234 
f 233 297 298 
f 234 299 235 
f 234 298 299 
f 235 300 236 
f 235 299 300 
f 236 301 237 
f 236 300 301 
f 237 302 238 
f 237 301 302 
f 238 303 239 
f 238 302 303 
f 239 304 240 
f 239 303 304 
f 240 305 241 
f 240 304 305 
f 241 306 242 
f 241 305 306 
f 242 307 243 
f 242 306 307 
f 243 308 244 
f 243 307 308 
f 244 309 245 
f 244 308 309 
f 245 310 246 
f 245 309 310 
f 246 311 247 
f 246 310 311 
f 247 312 248 
f 247 311 312 
f 248 313 249 
f 248 312 313 
f 249 314 250 
f 249 313 314 
f 250 315 251 
f 250 314 315 
f 251 316 252 
f 251 315 316 
f 252 317 253 
f 252 316 317 
f 253 318 254 
f 253 317 318 
f 254 319 255 
f 254 318 319 
f 255 320 256 
f 255 319 320 
f 256 257 193 
f 256 320 257 
f 257 322 258 
f 257 321 322 
f 258 323 259 
f 258 322 323 
f 259 324 260 
f 259 323 324 
f 260 325 261 
f 260 324 325 
f 261 326 262 
f 261 325 326 
f 262 327 263 
f 262 326 327 
f 263 328 264 
f 263 327 328 
f 264 329 265 
f 264 328 329 
f 265 330 266 
f 265 329 330 
f 266 331 267 
f 266 330 331 
f 267 332 268 
f 267 331 332 
f 268 333 269 
f 268 332 333 
f 269 334 270 
f 269 333 334 
f 270 335 271 
f 270 334 335 
f 271 336 272 
f 271 335 336 
f 272 337 273 
f 272 336 337 
f 273 338 274 
f 273 337 338 
f 274 339 275 
f 274 338 339 
f 275 340 276 
f 275 339 340 
f 276 341 277 
f 276 340 341 
f 277 342 278 
f 277 341 342 
f 278 343 279 
f 278 342 343 
f 279 344 280 
f 279 343 344 
f 280 345 281 
f 280 344 345 
f 281 346 282 
f 281 345 346 
f 282 347 283 
f 282 346 347 
f 283 348 284 
f 283 347 348 
f 284 349 285 
f 284 348 349 
f 285 350 286 
f 285 349 350 
f 286 351 287 
f 286 350 351 
f 287 352 288 
f 287 351 352 
f 288 353 289 
f 288 352 353 
f 289 354 290 
f 289 353 354 
f 290 355 291 
f 290 354 355 
f 291 356 292 
f 291 355 356 
f 292 357 293 
f 292 356 357 
f 293 358 294 
f 293 357 358 
f 294 359 295 
f 294 358 359 
f 295 360 296 
f 295 359 360 
f 296 361 297 
f 296 360 361 
f 297 362 298 
f 297 361 362 
f 298 363 299 
f 298 362 363 
f 299 364 300 
f 299 363 364 
f 300 365 301 
f 300 364 365 
f 301 366 302 
f 301 365 366 
f 302 367 303 
f 302 366 367 
f 303 368 304 
f 303 367 368 
f 304 369 305 
f 304 368 369 
f 305 370 306 
f 305 369 370 
f 306 371 307 
f 306 370 371 
f 307 372 308 
f 307 371 372 
f 308 373 309 
f 308 372 373 
f 309 374 310 
f 309 373 374 
f 310 375 311 
f 310 374 375 
f 311 376 312 
f 311 375 376 
f 312 377 313 
f 312 376 377 
f 313 378 314 
f 313 377 378 
f 314 379 315 
f 314 378 379 
f 315 380 316 
f 315 379 380 
f 316 381 317 
f 316 380 381 
f 317 382 318 
f 317 381 382 
f 318 383 319 
f 318 382 383 
f 319 384 320 
f 319 383 384 
f 320 321 257 
f 320 384 321 
f 321 386 322 
f 321 385 386 
f 322 387 323 
f 322 386 387 
f 323 388 324 
f 323 387 388 
f 324 389 325 
f 324 388 389 
f 325 390 326 
f 325 389 390 
f 326 391 327 
f 326 390 391 
f 327 392 328 
f 327 391 392 
f 328 393 329 
f 328 392 393 
f 329 394 330 
f 329 393 394 
f 330 395 331 
f 330 394 395 
f 331 396 332 
f 331 395 396 
f 332 397 333 
f 332 396 397 
f 333 398 334 
f 333 397 398 
f 334 399 335 
f 334 398 399 
f 335 400 336 
f 335 399 400 
f 336 401 337 
f 336 400 401 
f 337 402 338 
f 337 401 402 
f 338 403 339 
f 338 402 403 
f 339 404 340 
f 339 403 404 
f 340 405 341 
f 340 404 405 
f 341 406 342 
f 341 405 406 
f 342 407 343 
f 342 406 407 
f 343 408 344 
f 343 407 408 
f 344 409 345 
f 344 408 409 
f 345 410 346 
f 345 409 410 
f 346 411 347 
f 346 410 411 
f 347 412 348 
f 347 411 412 
f 348 413 349 
f 348 412 413 
f 349 414 350 
f 349 413 414 
f 350 415 351 
f 350 414 415 
f 351 416 352 
f 351 415 416 
f 352 417 353 
f 352 416 417 
f 353 418 354 
f 353 417 418 
f 354 419 355 
f 354 418 419 
f 355 420 356 
f 355 419 420 
f 356 421 357 
f 356 420 421 
f 357 422 358 
f 357 421 422 
f 358 423 359 
f 358 422 423 
f 359 424 360 
f 359 423 424 
f 360 425 361 
f 360 424 425 
f 361 426 362 
f 361 425 426 
f 362 427 363 
f 362 426 427 
f 363 428 364 
f 363 427 428 
f 364 429 365 
f 364 428 429 
f 365 430 366 
f 365 429 430 
f 366 431 367 
f 366 430 431 
f 367 432 368 
f 367 431 432 
f 368 433 369 
f 368 432 433 
f 369 434 370 
f 369 433 434 
f 370 435 371 
f 370 434 435 
f 371 436 372 
f 371 435 436 
f 372 437 373 
f 372 436 437 
f 373 438 374 
f 373 437 438 
f 374 439 375 
f 374 438 439 
f 375 440 376 
f 375 439 440 
f 376 441 377 
f 376 440 441 
f 377 442 378 
f 377 441 442 
f 378 443 379 
f 378 442 443 
f 379 444 380 
f 379 443 444 
f 380 445 381 
f 380 444 445 
f 381 446 382 
f 381 445 446 
f 382 447 383 
f 382 446 447 
f 383 448 384 
f 383 447 448 
f 384 385 321 
f 384 448 385 
f 385 450 386 
f 385 449 450 
f 386 451 387 
f 386 450 451 
f 387 452 388 
f 387 451 452 
f 388 453 389 
f 388 452 453 
f 389 454 390 
f 389 453 454 
f 390 455 391 
f 390 454 455 
f 391 456 392 
f 391 455 456 
f 392 457 393 
f 392 456 457 
f 393 458 394 
f 393 457 458 
f 394 459 395 
f 394 458 459 
f 395 460 396 
f 395 459 460 
f 396 461 397 
f 396 460 461 
f 397 462 398 
f 397 461 462 
f 398 463 399 
f 398 462 463 
f 399 464 400 
f 399 463 464 
f 400 465 401 
f 400 464 465 
f 401 466 402 
f 401 465 466 
f 402 467 403 
f 402 466 467 
f 403 468 404 
f 403 467 468 
f 404 469 405 
f 404 468 469 
f 405 470 406 
f 405 469 470 
f 406 471 407 
f 406 470 471 
f 407 472 408 
f 407 471 472 
f 408 473 409 
f 408 472 473 
f 409 474 410 
f 409 473 474 
f 410 475 411 
f 410 474 475 
f 411 476 412 
f 411 475 476 
f 412 477 413 
f 412 476 477 
f 413 478 414 
f 413 477 478 
f 414 479 415 
f 414 478 479 
f 415 480 416 
f 415 479 480 
f 416 481 417 
f 416 480 481 
f 417 482 418 
f 417 481 482 
f 418 483 419 
f 418 482 483 
f 419 484 420 
f 419 483 484 
f 420 485 421 
f 420 484 485 
f 421 486 422 
f 421 485 486 
f 422 487 423 
f 422 486 487 
f 423 488 424 
f 423 487 488 
f 424 489 425 
f 424 488 489 
f 425 490 426 
f 425 489 490 
f 426 491 427 
f 426 490 491 
f 427 492 428 
f 427 491 492 
f 428 493 429 
f 428 492 493 
f 429 494 430 
f 429 493 494 
f 430 495 431 
f 430 494 495 
f 431 496 432 
f 431 495 496 
f 432 497 433 
f 432 496 497 
f 433 498 434 
f 433 497 498 
f 434 499 435 
f 434 498 499 
f 435 500 436 
f 435 499 500 
f 436 501 437 
f 436 500 501 
f 437 502 438 
f 437 501 502 
f 438 503 439 
f 438 502 503 
f 439 504 440 
f 439 503 504 
f 440 505 441 
f 440 504 505 
f 441 506 442 
f 441 505 506 
f 442 507 443 
f 442 506 507 
f 443 508 444 
f 443 507 508 
f 444 509 445 
f 444 508 509 
f 445 510 446 
f 445 509 510 
f 446 511 447 
f 446 510 511 
f 447 512 448 
f 447 511 512 
f 448 449 385 
f 448 512 449 
f 449 514 450 
f 449 513 514 
f 450 515 451 
f 450 514 515 
f 451 516 452 
f 451 515 516 
f 452 517 453 
f 452 516 517 
f 453 518 454 
f 453 517 518 
f 454 519 455 
f 454 518 519 
f 455 520 456 
f 455 519 520 
f 456 521 457 
f 456 520 521 
f 457 522 458 
f 457 521 522 
f 458 523 459 
f 458 522 523 
f 459 524 460 
f 459 523 524 
f 460 525 461 
f 460 524 525 
f 461 526 462 
f 461 525 526 
f 462 527 463 
f 462 526 527 
f 463 528 464 
f 463 527 528 
f 464 529 465 
f 464 528 529 
f 465 530 466 
f 465 529 530 
f 466 531 467 
f 466 530 531 
f 467 532 468 
f 467 531 532 
f 468 533 469 
f 468 532 533 
f 469 534 470 
f 469 533 534 
f 470 535 471 
f 470 534 535 
f 471 536 472 
f 471 535 536 
f 472 537 473 
f 472 536 537 
f 473 538 474 
f 473 537 538 
f 474 539 475 
f 474 538 539 
f 475 540 476 
f 475 539 540 
f 476 541 477 
f 476 540 541 
f 477 542 478 
f 477 541 542 
f 478 543 479 
f 478 542 543 
f 479 544 480 
f 479 543 544 
f 480 545 481 
f 480 544 545 
f 481 546 482 
f 481 545 546 
f 482 547 483 
f 482 546 547 
f 483 548 484 
f 483 547 548 
f 484 549 485 
f 484 548 549 
f 485 550 486 
f 485 549 550 
f 486 551 487 
f 486 550 551 
f 487 552 488 
f 487 551 552 
f 488 553 489 
f 488 552 553 
f 489 554 490 
f 489 553 554 
f 490 555 491 
f 490 554 555 
f 491 556 492 
f 491 555 556 
f 492 557 493 
f 492 556 557 
f 493 558 494 
f 493 557 558 
f 494 559 495 
f 494 558 559 
f 495 560 496 
f 495 559 560 
f 496 561 497 
f 496 560 561 
f 497 562 498 
f 497 561 562 
f 498 563 499 
f 498 562 563 
f 499 564 500 
f 499 563 564 
f 500 565 501 
f 500 564 565 
f 501 566 502 
f 501 565 566 
f 502 567 503 
f 502 566 567 
f 503 568 504 
f 503 567 568 
f 504 569 505 
f 504 568 569 
f 505 570 506 
f 505 569 570 
f 506 571 507 
f 506 570 571 
f 507 572 508 
f 507 571 572 
f 508 573 509 
f 508 572 573 
f 509 574 510 
f 509 573 574 
f 510 575 511 
f 510 574 575 
f 511 576 512 
f 511 575 576 
f 512 513 449 
f 512 576 513 
f 513 578 514 
f 513 577 578 
f 514 579 515 
f 514 578 579 
f 515 580 516 
f 515 579 580 
f 516 581 517 
f 516 580 581 
f 517 582 518 
f 517 581 582 
f 518 583 519 
f 518 582 583 
f 519 584 520 
f 519 583 584 
f 520 585 521 
f 520 584 585 
f 521 586 522 
f 521 585 586 
f 522 587 523 
f 522 586 587 
f 523 588 524 
f 523 587 588 
f 524 589 525 
f 524 588 589 
f 525 590 526 
f 525 589 590 
f 526 591 527 
f 526 590 591 
f 527 592 528 
f 527 591 592 
f 528 593 529 
f 528 592 593 
f 529 594 530 
f 529 593 594 
f 530 595 531 
f 530 594 595 
f 531 596 532 
f 531 595 596 
f 532 597 533 
f 532 596 597 
f 533 598 534 
f 533 597 598 
f 534 599 535 
f 534 598 599 
f 535 600 536 
f 535 599 600 
f 536 601 537 
f 536 600 601 
f 537 602 538 
f 537 601 602 
f 538 603 539 
f 538 602 603 
f 539 604 540 
f 539 603 604 
f 540 605 541 
f 540 604 605 
f 541 606 542 
f 541 605 606 
f 542 607 543 
f 542 606 607 
f 543 608 544 
f 543 607 608 
f 544 609 545 
f 544 608 609 
f 545 610 546 
f 545 609 610 
f 546 611 547 
f 546 610 611 
f 547 612 548 
f 547 611 612 
f 548 613 549 
f 548 612 613 
f 549 614 550 
f 549 613 614 
f 550 615 551 
f 550 614 615 
f 551 616 552 
f 551 615 616 
f 552 617 553 
f 552 616 617 
f 553 618 554 
f 553 617 618 
f 554 619 555 
f 554 618 619 
f 555 620 556 
f 555 619 620 
f 556 621 557 
f 556 620 621 
f 557 622 558 
f 557 621 622 
f 558 623 559 
f 558 622 623 
f 559 624 560 
f 559 623 624 
f 560 625 561 
f 560 624 625 
f 561 626 562 
f 561 625 626 
f 562 627 563 
f 562 626 627 
f 563 628 564 
f 563 627 628 
f 564 629 565 
f 564 628 629 
f 565 630 566 
f 565 629 630 
f 566 631 567 
f 566 630 631 
f 567 632 568 
f 567 631 632 
f 568 633 569 
f 568 632 633 
f 569 634 570 
f 569 633 634 
f 570 635 571 
f 570 634 635 
f 571 636 572 
f 571 635 636 
f 572 637 573 
f 572 636 637 
f 573 638 574 
f 573 637 638 
f 574 639 575 
f 574 638 639 
f 575 640 576 
f 575 639 640 
f 576 577 513 
f 576 640 577 
