# Branch
v -1.5703 1.426 -5.69324
vn -0.759477 0.607194 0.233474
v -1.5727 1.42272 -5.69338
vn -0.817407 0.528048 0.230243
v -1.57478 1.41922 -5.6936
vn -0.867465 0.443815 0.224795
v -1.57652 1.41554 -5.69392
vn -0.909169 0.355309 0.217182
v -1.57788 1.41172 -5.69432
vn -0.942117 0.263381 0.207477
v -1.57888 1.4078 -5.69481
vn -0.965992 0.168916 0.195775
v -1.57948 1.40381 -5.69537
vn -0.980563 0.0728246 0.182186
v -1.5797 1.39978 -5.69601
vn -0.985692 -0.0239682 0.166844
v -1.57951 1.39577 -5.69671
vn -0.981328 -0.12053 0.149894
v -1.57894 1.39181 -5.69748
vn -0.967513 -0.215931 0.131501
v -1.57798 1.38793 -5.6983
vn -0.94438 -0.309253 0.111841
v -1.57664 1.38418 -5.69916
vn -0.912153 -0.399596 0.0911046
v -1.57494 1.38059 -5.70006
vn -0.871141 -0.486091 0.0694906
v -1.57288 1.37719 -5.70098
vn -0.821739 -0.567905 0.0472073
v -1.5705 1.37402 -5.70193
vn -0.764424 -0.64425 0.0244694
v -1.56782 1.3711 -5.70288
vn -0.699747 -0.71439 0.00149589
v -1.56485 1.36847 -5.70383
vn -0.62833 -0.77765 -0.0214921
v -1.56163 1.36616 -5.70478
vn -0.550863 -0.833421 -0.044273
v -1.55819 1.36417 -5.70571
vn -0.468091 -0.881165 -0.0666276
v -1.55457 1.36254 -5.70661
vn -0.38081 -0.920424 -0.0883406
v -1.55079 1.36128 -5.70748
vn -0.289862 -0.950818 -0.109203
v -1.54689 1.3604 -5.7083
vn -0.196123 -0.972055 -0.129013
v -1.54292 1.3599 -5.70907
vn -0.100495 -0.983931 -0.147581
v -1.53891 1.3598 -5.70979
vn -0.00389905 -0.986331 -0.164728
v -1.53489 1.3601 -5.71043
vn 0.0927344 -0.979233 -0.180288
v -1.53092 1.36079 -5.71101
vn 0.188475 -0.962703 -0.194112
v -1.52701 1.36186 -5.7115
vn 0.2824 -0.936903 -0.206067
v -1.52323 1.3633 -5.71192
vn 0.373606 -0.902079 -0.216037
v -1.51959 1.36511 -5.71224
vn 0.461213 -0.858568 -0.223927
v -1.51613 1.36726 -5.71248
vn 0.544379 -0.806789 -0.22966
v -1.51289 1.36974 -5.71263
vn 0.622302 -0.747239 -0.233181
v -1.50991 1.37251 -5.71268
vn 0.694232 -0.680494 -0.234456
v -1.5072 1.37556 -5.71264
vn 0.759477 -0.607194 -0.233474
v -1.50479 1.37884 -5.71251
vn 0.817407 -0.528048 -0.230243
v -1.50271 1.38234 -5.71228
vn 0.867465 -0.443815 -0.224795
v -1.50098 1.38602 -5.71196
vn 0.909169 -0.355309 -0.217182
v -1.49961 1.38984 -5.71156
vn 0.942117 -0.263381 -0.207477
v -1.49862 1.39376 -5.71108
vn 0.965992 -0.168916 -0.195775
v -1.49801 1.39775 -5.71051
vn 0.980563 -0.0728246 -0.182186
v -1.4978 1.40178 -5.70987
vn 0.985692 0.0239682 -0.166844
v -1.49798 1.40579 -5.70917
vn 0.981328 0.12053 -0.149894
v -1.49855 1.40975 -5.70841
vn 0.967513 0.215931 -0.131501
v -1.49951 1.41363 -5.70759
vn 0.94438 0.309253 -0.111841
v -1.50085 1.41738 -5.70673
vn 0.912153 0.399596 -0.0911046
v -1.50256 1.42097 -5.70583
vn 0.871141 0.486091 -0.0694906
v -1.50461 1.42437 -5.7049
vn 0.821739 0.567905 -0.0472073
v -1.50699 1.42754 -5.70396
vn 0.764424 0.64425 -0.0244694
v -1.50968 1.43046 -5.703
vn 0.699747 0.71439 -0.00149589
v -1.51264 1.43309 -5.70205
vn 0.62833 0.77765 0.0214921
v -1.51586 1.4354 -5.7011
vn 0.550863 0.833421 0.044273
v -1.5193 1.43739 -5.70017
vn 0.468091 0.881165 0.0666276
v -1.52293 1.43902 -5.69927
vn 0.38081 0.920424 0.0883406
v -1.5267 1.44028 -5.69841
vn 0.289862 0.950818 0.109203
v -1.5306 1.44116 -5.69758
vn 0.196123 0.972055 0.129013
v -1.53457 1.44166 -5.69681
vn 0.100495 0.983931 0.147581
v -1.53858 1.44176 -5.6961
vn 0.00389905 0.986331 0.164728
v -1.5426 1.44146 -5.69545
vn -0.0927344 0.979233 0.180288
v -1.54658 1.44077 -5.69488
vn -0.188475 0.962703 0.194112
v -1.55048 1.4397 -5.69438
vn -0.2824 0.936903 0.206067
v -1.55427 1.43826 -5.69397
vn -0.373606 0.902079 0.216037
v -1.55791 1.43645 -5.69364
vn -0.461213 0.858568 0.223927
v -1.56136 1.4343 -5.6934
vn -0.544379 0.806789 0.22966
v -1.5646 1.43182 -5.69325
vn -0.622302 0.747239 0.233181
v -1.56759 1.42905 -5.6932
vn -0.694232 0.680494 0.234456
v -2.36728 2.19693 -10.2875
vn -0.761818 0.609472 0.219494
v -2.37157 2.19106 -10.2878
vn -0.819736 0.530314 0.21633
v -2.37528 2.18481 -10.2882
vn -0.869761 0.446049 0.211083
v -2.37837 2.17824 -10.2887
vn -0.911409 0.357489 0.203803
v -2.38081 2.17142 -10.2894
vn -0.944279 0.265485 0.194561
v -2.38257 2.16441 -10.2902
vn -0.968056 0.170925 0.183445
v -2.38364 2.15727 -10.2912
vn -0.98251 0.0747186 0.170562
v -2.38401 2.15009 -10.2922
vn -0.987502 -0.0222073 0.156036
v -2.38368 2.14292 -10.2934
vn -0.982983 -0.118919 0.140008
v -2.38264 2.13583 -10.2947
vn -0.968998 -0.214486 0.122632
v -2.38091 2.1289 -10.2961
vn -0.945681 -0.307987 0.104074
v -2.37851 2.12218 -10.2975
vn -0.913256 -0.398523 0.0845143
v -2.37545 2.11575 -10.299
vn -0.872037 -0.48522 0.0641405
v -2.37177 2.10967 -10.3006
vn -0.822419 -0.567244 0.043149
v -2.3675 2.104 -10.3022
vn -0.76488 -0.643805 0.021742
v -2.36269 2.09878 -10.3038
vn -0.699976 -0.714166 0.000125567
v -2.35738 2.09407 -10.3054
vn -0.62833 -0.77765 -0.0214921
v -2.35162 2.08992 -10.307
vn -0.550634 -0.833644 -0.0429027
v -2.34546 2.08636 -10.3085
vn -0.467634 -0.881609 -0.0639002
v -2.33897 2.08344 -10.3101
vn -0.380131 -0.921085 -0.0842823
v -2.33221 2.08117 -10.3115
vn -0.288967 -0.95169 -0.103853
v -2.32525 2.07958 -10.3129
vn -0.19502 -0.973129 -0.122423
v -2.31814 2.07868 -10.3142
vn -0.0991944 -0.985197 -0.139814
v -2.31097 2.07849 -10.3154
vn -0.00241394 -0.987776 -0.155859
v -2.30379 2.079 -10.3164
vn 0.0943898 -0.980843 -0.170403
v -2.29668 2.08022 -10.3174
vn 0.190284 -0.964464 -0.183305
v -2.2897 2.08212 -10.3182
vn 0.284347 -0.938797 -0.194443
v -2.28293 2.0847 -10.3189
vn 0.37567 -0.904088 -0.203707
v -2.27643 2.08791 -10.3195
vn 0.463376 -0.860673 -0.21101
v -2.27026 2.09175 -10.3198
vn 0.546619 -0.808968 -0.216281
v -2.26447 2.09616 -10.3201
vn 0.624598 -0.749473 -0.219469
v -2.25914 2.10111 -10.3202
vn 0.696562 -0.68276 -0.220543
v -2.2543 2.10654 -10.3201
vn 0.761818 -0.609472 -0.219494
v -2.25 2.11241 -10.3198
vn 0.819736 -0.530314 -0.21633
v -2.24629 2.11866 -10.3195
vn 0.869761 -0.446049 -0.211083
v -2.24321 2.12523 -10.3189
vn 0.911409 -0.357489 -0.203803
v -2.24077 2.13205 -10.3182
vn 0.944279 -0.265485 -0.194561
v -2.23901 2.13906 -10.3174
vn 0.968056 -0.170925 -0.183445
v -2.23793 2.14619 -10.3165
vn 0.98251 -0.0747186 -0.170562
v -2.23756 2.15338 -10.3154
vn 0.987502 0.0222073 -0.156036
v -2.2379 2.16055 -10.3142
vn 0.982983 0.118919 -0.140008
v -2.23894 2.16764 -10.3129
vn 0.968998 0.214486 -0.122632
v -2.24067 2.17457 -10.3115
vn 0.945681 0.307987 -0.104074
v -2.24307 2.18128 -10.3101
vn 0.913256 0.398523 -0.0845143
v -2.24613 2.18771 -10.3086
vn 0.872037 0.48522 -0.0641405
v -2.24981 2.1938 -10.307
vn 0.822419 0.567244 -0.043149
v -2.25407 2.19947 -10.3054
vn 0.76488 0.643805 -0.021742
v -2.25888 2.20469 -10.3038
vn 0.699976 0.714166 -0.000125567
v -2.2642 2.2094 -10.3022
vn 0.62833 0.77765 0.0214921
v -2.26996 2.21355 -10.3006
vn 0.550634 0.833644 0.0429027
v -2.27611 2.21711 -10.2991
vn 0.467634 0.881609 0.0639002
v -2.2826 2.22003 -10.2976
vn 0.380131 0.921085 0.0842823
v -2.28936 2.2223 -10.2961
vn 0.288967 0.95169 0.103853
v -2.29633 2.22389 -10.2947
vn 0.19502 0.973129 0.122423
v -2.30343 2.22479 -10.2934
vn 0.0991944 0.985197 0.139814
v -2.31061 2.22498 -10.2922
vn 0.00241394 0.987776 0.155859
v -2.31779 2.22446 -10.2912
vn -0.0943898 0.980843 0.170403
v -2.3249 2.22325 -10.2902
vn -0.190284 0.964464 0.183305
v -2.33187 2.22135 -10.2894
vn -0.284347 0.938797 0.194443
v -2.33864 2.21877 -10.2887
vn -0.37567 0.904088 0.203707
v -2.34515 2.21555 -10.2882
vn -0.463376 0.860673 0.21101
v -2.35132 2.21172 -10.2878
vn -0.546619 0.808968 0.216281
v -2.3571 2.20731 -10.2875
vn -0.624598 0.749473 0.219469
v -2.36244 2.20236 -10.2875
vn -0.696562 0.68276 0.220543
v -3.01925 2.8357 -14.3396
vn -0.764619 0.612239 0.201298
v -3.02544 2.82725 -14.3399
vn -0.822525 0.533068 0.198222
v -3.03077 2.81825 -14.3404
vn -0.872509 0.448763 0.193237
v -3.03521 2.80879 -14.3412
vn -0.91409 0.360136 0.186391
v -3.03871 2.79896 -14.3421
vn -0.946868 0.268041 0.17775
v -3.04124 2.78885 -14.3432
vn -0.970527 0.173365 0.167397
v -3.04276 2.77856 -14.3445
vn -0.984839 0.077019 0.155433
v -3.04328 2.7682 -14.3459
vn -0.989667 -0.0200687 0.141971
v -3.04278 2.75786 -14.3475
vn -0.984964 -0.116963 0.127142
v -3.04126 2.74763 -14.3492
vn -0.970775 -0.212731 0.111088
v -3.03875 2.73763 -14.351
vn -0.947237 -0.30645 0.093965
v -3.03526 2.72794 -14.353
vn -0.914577 -0.397218 0.0759368
v -3.03084 2.71865 -14.355
vn -0.873109 -0.484161 0.0571772
v -3.02551 2.70987 -14.357
vn -0.823232 -0.566441 0.037867
v -3.01934 2.70167 -14.3591
vn -0.765427 -0.643265 0.0181921
v -3.01238 2.69413 -14.3612
vn -0.700251 -0.713895 -0.00165794
v -3.0047 2.68732 -14.3634
vn -0.62833 -0.77765 -0.0214921
v -2.99638 2.68132 -14.3654
vn -0.550359 -0.833915 -0.0411192
v -2.98749 2.67617 -14.3675
vn -0.467087 -0.882149 -0.0603503
v -2.97812 2.67192 -14.3695
vn -0.379317 -0.921888 -0.0790003
v -2.96836 2.66863 -14.3714
vn -0.287894 -0.952748 -0.0968894
v -2.9583 2.66631 -14.3732
vn -0.193699 -0.974433 -0.113845
v -2.94805 2.665 -14.3749
vn -0.0976379 -0.986734 -0.129705
v -2.93769 2.6647 -14.3765
vn -0.000636553 -0.989532 -0.144316
v -2.92734 2.66542 -14.3779
vn 0.0963709 -0.9828 -0.157536
v -2.91708 2.66715 -14.3791
vn 0.19245 -0.966603 -0.16924
v -2.90702 2.66987 -14.3802
vn 0.286676 -0.941097 -0.179313
v -2.89726 2.67356 -14.3811
vn 0.378141 -0.906528 -0.18766
v -2.88788 2.67819 -14.3818
vn 0.465965 -0.863229 -0.1942
v -2.87898 2.6837 -14.3823
vn 0.5493 -0.811616 -0.198869
v -2.87065 2.69004 -14.3826
vn 0.627346 -0.752187 -0.201623
v -2.86297 2.69716 -14.3827
vn 0.69935 -0.685514 -0.202435
v -2.856 2.70498 -14.3825
vn 0.764619 -0.612239 -0.201298
v -2.84982 2.71343 -14.3822
vn 0.822525 -0.533068 -0.198222
v -2.84448 2.72243 -14.3817
vn 0.872509 -0.448763 -0.193237
v -2.84004 2.73189 -14.381
vn 0.91409 -0.360136 -0.186391
v -2.83654 2.74173 -14.38
vn 0.946868 -0.268041 -0.17775
v -2.83402 2.75183 -14.3789
vn 0.970527 -0.173365 -0.167397
v -2.83249 2.76212 -14.3777
vn 0.984839 -0.077019 -0.155433
v -2.83197 2.77248 -14.3762
vn 0.989667 0.0200687 -0.141971
v -2.83247 2.78283 -14.3746
vn 0.984964 0.116963 -0.127142
v -2.83399 2.79305 -14.3729
vn 0.970775 0.212731 -0.111088
v -2.8365 2.80306 -14.3711
vn 0.947237 0.30645 -0.093965
v -2.83999 2.81275 -14.3692
vn 0.914577 0.397218 -0.0759368
v -2.84442 2.82203 -14.3672
vn 0.873109 0.484161 -0.0571772
v -2.84974 2.83081 -14.3651
vn 0.823232 0.566441 -0.037867
v -2.85591 2.83902 -14.363
vn 0.765427 0.643265 -0.0181921
v -2.86287 2.84656 -14.3609
vn 0.700251 0.713895 0.00165794
v -2.87055 2.85336 -14.3588
vn 0.62833 0.77765 0.0214921
v -2.87887 2.85937 -14.3567
vn 0.550359 0.833915 0.0411192
v -2.88776 2.86452 -14.3546
vn 0.467087 0.882149 0.0603503
v -2.89713 2.86876 -14.3526
vn 0.379317 0.921888 0.0790003
v -2.90689 2.87205 -14.3507
vn 0.287894 0.952748 0.0968894
v -2.91695 2.87437 -14.3489
vn 0.193699 0.974433 0.113845
v -2.9272 2.87568 -14.3472
vn 0.0976379 0.986734 0.129705
v -2.93756 2.87598 -14.3457
vn 0.000636553 0.989532 0.144316
v -2.94791 2.87526 -14.3442
vn -0.0963709 0.9828 0.157536
v -2.95817 2.87353 -14.343
vn -0.19245 0.966603 0.16924
v -2.96823 2.87081 -14.3419
vn -0.286676 0.941097 0.179313
v -2.978 2.86712 -14.341
vn -0.378141 0.906528 0.18766
v -2.98737 2.8625 -14.3403
vn -0.465965 0.863229 0.1942
v -2.99627 2.85699 -14.3398
vn -0.5493 0.811616 0.198869
v -3.0046 2.85064 -14.3395
vn -0.627346 0.752187 0.201623
v -3.01229 2.84353 -14.3394
vn -0.69935 0.685514 0.202435
v -3.52629 3.3424 -17.8501
vn -0.767975 0.615631 0.176673
v -3.53436 3.33137 -17.8505
vn -0.825864 0.536443 0.173716
v -3.54132 3.31961 -17.8511
vn -0.8758 0.452089 0.169086
v -3.5471 3.30725 -17.852
vn -0.917301 0.363382 0.162827
v -3.55165 3.2944 -17.8531
vn -0.949968 0.271175 0.155
v -3.55493 3.28118 -17.8544
vn -0.973486 0.176356 0.145681
v -3.5569 3.26773 -17.8559
vn -0.987629 0.0798391 0.134958
v -3.55755 3.25417 -17.8576
vn -0.992261 -0.0174469 0.122936
v -3.55686 3.24064 -17.8594
vn -0.987337 -0.114565 0.10973
v -3.55485 3.22726 -17.8614
vn -0.972904 -0.210579 0.0954669
v -3.55153 3.21416 -17.8635
vn -0.949102 -0.304566 0.0802845
v -3.54694 3.20147 -17.8657
vn -0.916159 -0.39562 0.064329
v -3.54112 3.18931 -17.868
vn -0.874393 -0.482863 0.0477539
v -3.53413 3.1778 -17.8704
vn -0.824206 -0.565456 0.030719
v -3.52603 3.16705 -17.8728
vn -0.766082 -0.642604 0.0133882
v -3.5169 3.15716 -17.8753
vn -0.70058 -0.713563 -0.00407154
v -3.50683 3.14823 -17.8777
vn -0.62833 -0.77765 -0.0214921
v -3.49592 3.14034 -17.8801
vn -0.55003 -0.834247 -0.0387056
v -3.48427 3.13357 -17.8824
vn -0.466433 -0.882811 -0.0555464
v -3.47199 3.12799 -17.8847
vn -0.378343 -0.922872 -0.0718522
v -3.4592 3.12364 -17.8869
vn -0.28661 -0.954046 -0.0874661
v -3.44604 3.12058 -17.889
vn -0.192117 -0.976032 -0.102238
v -3.43261 3.11883 -17.8909
vn -0.0957736 -0.988618 -0.116025
v -3.41905 3.1184 -17.8926
vn 0.00149216 -0.991683 -0.128694
v -3.4055 3.1193 -17.8942
vn 0.0987436 -0.985198 -0.140124
v -3.39208 3.12153 -17.8956
vn 0.195044 -0.969225 -0.150205
v -3.37892 3.12506 -17.8968
vn 0.289466 -0.943917 -0.158839
v -3.36615 3.12985 -17.8978
vn 0.381101 -0.909519 -0.165943
v -3.35389 3.13586 -17.8986
vn 0.469065 -0.866362 -0.17145
v -3.34226 3.14304 -17.8991
vn 0.552511 -0.814862 -0.175305
v -3.33137 3.15131 -17.8994
vn 0.630637 -0.755513 -0.177472
v -3.32133 3.1606 -17.8995
vn 0.70269 -0.688889 -0.177929
v -3.31223 3.17081 -17.8993
vn 0.767975 -0.615631 -0.176673
v -3.30417 3.18184 -17.8989
vn 0.825864 -0.536443 -0.173716
v -3.29721 3.1936 -17.8983
vn 0.8758 -0.452089 -0.169086
v -3.29142 3.20596 -17.8974
vn 0.917301 -0.363382 -0.162827
v -3.28687 3.21881 -17.8963
vn 0.949968 -0.271175 -0.155
v -3.28359 3.23203 -17.895
vn 0.973486 -0.176356 -0.145681
v -3.28162 3.24548 -17.8935
vn 0.987629 -0.0798391 -0.134958
v -3.28098 3.25904 -17.8918
vn 0.992261 0.0174469 -0.122936
v -3.28166 3.27257 -17.89
vn 0.987337 0.114565 -0.10973
v -3.28367 3.28595 -17.888
vn 0.972904 0.210579 -0.0954669
v -3.28699 3.29905 -17.8859
vn 0.949102 0.304566 -0.0802845
v -3.29158 3.31174 -17.8837
vn 0.916159 0.39562 -0.064329
v -3.2974 3.3239 -17.8814
vn 0.874393 0.482863 -0.0477539
v -3.3044 3.33541 -17.879
vn 0.824206 0.565456 -0.030719
v -3.3125 3.34616 -17.8766
vn 0.766082 0.642604 -0.0133882
v -3.32163 3.35605 -17.8741
vn 0.70058 0.713563 0.00407154
v -3.33169 3.36498 -17.8717
vn 0.62833 0.77765 0.0214921
v -3.34261 3.37287 -17.8693
vn 0.55003 0.834247 0.0387056
v -3.35426 3.37964 -17.867
vn 0.466433 0.882811 0.0555464
v -3.36653 3.38522 -17.8647
vn 0.378343 0.922872 0.0718522
v -3.37932 3.38956 -17.8625
vn 0.28661 0.954046 0.0874661
v -3.39249 3.39263 -17.8605
vn 0.192117 0.976032 0.102238
v -3.40591 3.39438 -17.8585
vn 0.0957736 0.988618 0.116025
v -3.41947 3.39481 -17.8568
vn -0.00149216 0.991683 0.128694
v -3.43302 3.39391 -17.8552
vn -0.0987436 0.985198 0.140124
v -3.44644 3.39168 -17.8538
vn -0.195044 0.969225 0.150205
v -3.4596 3.38815 -17.8526
vn -0.289466 0.943917 0.158839
v -3.47237 3.38336 -17.8516
vn -0.381101 0.909519 0.165943
v -3.48463 3.37734 -17.8508
vn -0.469065 0.866362 0.17145
v -3.49626 3.37017 -17.8503
vn -0.552511 0.814862 0.175305
v -3.50715 3.3619 -17.85
vn -0.630637 0.755513 0.177472
v -3.51719 3.35261 -17.8499
vn -0.70269 0.688889 0.177929
v -3.88844 3.7171 -20.8204
vn -0.771904 0.619776 0.14157
v -3.89839 3.70348 -20.8209
vn -0.829774 0.540568 0.138782
v -3.90697 3.68897 -20.8216
vn -0.879654 0.456155 0.134657
v -3.91409 3.67369 -20.8225
vn -0.921061 0.367348 0.129235
v -3.91968 3.65781 -20.8237
vn -0.953598 0.275004 0.122569
v -3.9237 3.64148 -20.825
vn -0.976952 0.180012 0.114722
v -3.9261 3.62484 -20.8266
vn -0.990897 0.0832856 0.105771
v -3.92686 3.60807 -20.8283
vn -0.995299 -0.0142427 0.0958005
v -3.92596 3.59132 -20.8301
vn -0.990115 -0.111634 0.0849078
v -3.92343 3.57476 -20.8322
vn -0.975397 -0.20795 0.0731973
v -3.91929 3.55854 -20.8343
vn -0.951285 -0.302263 0.060782
v -3.91356 3.54282 -20.8365
vn -0.918011 -0.393666 0.0477812
v -3.90632 3.52776 -20.8388
vn -0.875897 -0.481277 0.0343203
v -3.89763 3.51349 -20.8412
vn -0.825347 -0.564253 0.0205289
v -3.88757 3.50015 -20.8436
vn -0.766848 -0.641795 0.0065398
v -3.87624 3.48788 -20.846
vn -0.700965 -0.713156 -0.0075123
v -3.86375 3.47679 -20.8484
vn -0.62833 -0.77765 -0.0214921
v -3.85022 3.46698 -20.8508
vn -0.549645 -0.834654 -0.0352648
v -3.83577 3.45856 -20.8531
vn -0.465666 -0.88362 -0.048698
v -3.82056 3.45161 -20.8553
vn -0.377203 -0.924076 -0.0616622
v -3.80472 3.44618 -20.8575
vn -0.285107 -0.955632 -0.0740325
v -3.78841 3.44234 -20.8595
vn -0.190265 -0.977986 -0.0856899
v -3.77179 3.44011 -20.8613
vn -0.0935906 -0.990921 -0.096522
v -3.75501 3.43953 -20.863
vn 0.00398491 -0.994313 -0.106425
v -3.73824 3.44059 -20.8646
vn 0.101522 -0.988129 -0.115302
v -3.72163 3.44329 -20.8659
vn 0.198081 -0.972429 -0.123069
v -3.70535 3.4476 -20.867
vn 0.292733 -0.947364 -0.129651
v -3.68956 3.45348 -20.868
vn 0.384566 -0.913175 -0.134985
v -3.6744 3.46087 -20.8686
vn 0.472695 -0.870192 -0.139018
v -3.66003 3.46971 -20.8691
vn 0.556272 -0.818828 -0.141713
v -3.64658 3.4799 -20.8693
vn 0.634491 -0.759579 -0.143042
v -3.63418 3.49134 -20.8693
vn 0.7066 -0.693014 -0.142995
v -3.62295 3.50394 -20.8691
vn 0.771904 -0.619776 -0.14157
v -3.613 3.51756 -20.8686
vn 0.829774 -0.540568 -0.138782
v -3.60442 3.53208 -20.8679
vn 0.879654 -0.456155 -0.134657
v -3.5973 3.54735 -20.867
vn 0.921061 -0.367348 -0.129235
v -3.5917 3.56323 -20.8658
vn 0.953598 -0.275004 -0.122569
v -3.58769 3.57956 -20.8645
vn 0.976952 -0.180012 -0.114722
v -3.58529 3.5962 -20.8629
vn 0.990897 -0.0832856 -0.105771
v -3.58453 3.61297 -20.8612
vn 0.995299 0.0142427 -0.0958005
v -3.58542 3.62972 -20.8593
vn 0.990115 0.111634 -0.0849078
v -3.58795 3.64628 -20.8573
vn 0.975397 0.20795 -0.0731973
v -3.5921 3.6625 -20.8552
vn 0.951285 0.302263 -0.060782
v -3.59782 3.67822 -20.853
vn 0.918011 0.393666 -0.0477812
v -3.60507 3.69329 -20.8506
vn 0.875897 0.481277 -0.0343203
v -3.61376 3.70756 -20.8483
vn 0.825347 0.564253 -0.0205289
v -3.62382 3.72089 -20.8459
vn 0.766848 0.641795 -0.0065398
v -3.63515 3.73316 -20.8435
vn 0.700965 0.713156 0.0075123
v -3.64764 3.74425 -20.841
vn 0.62833 0.77765 0.0214921
v -3.66117 3.75406 -20.8387
vn 0.549645 0.834654 0.0352648
v -3.67561 3.76248 -20.8364
vn 0.465666 0.88362 0.048698
v -3.69083 3.76943 -20.8341
vn 0.377203 0.924076 0.0616622
v -3.70666 3.77486 -20.832
vn 0.285107 0.955632 0.0740325
v -3.72297 3.77871 -20.83
vn 0.190265 0.977986 0.0856899
v -3.7396 3.78093 -20.8281
vn 0.0935906 0.990921 0.096522
v -3.75638 3.78151 -20.8264
vn -0.00398491 0.994313 0.106425
v -3.77315 3.78045 -20.8249
vn -0.101522 0.988129 0.115302
v -3.78976 3.77775 -20.8236
vn -0.198081 0.972429 0.123069
v -3.80604 3.77344 -20.8224
vn -0.292733 0.947364 0.129651
v -3.82183 3.76756 -20.8215
vn -0.384566 0.913175 0.134985
v -3.83698 3.76017 -20.8208
vn -0.472695 0.870192 0.139018
v -3.85136 3.75133 -20.8204
vn -0.556272 0.818828 0.141713
v -3.86481 3.74115 -20.8201
vn -0.634491 0.759579 0.143042
v -3.87721 3.7297 -20.8202
vn -0.7066 0.693014 0.142995
v -4.10568 3.95987 -23.2532
vn -0.776012 0.624581 0.0877716
v -4.11751 3.94366 -23.2537
vn -0.833862 0.545351 0.0852424
v -4.1277 3.92637 -23.2544
vn -0.883682 0.460868 0.0818922
v -4.13616 3.90818 -23.2553
vn -0.924992 0.371947 0.0777534
v -4.14278 3.88926 -23.2563
vn -0.957393 0.279444 0.0728657
v -4.14753 3.86978 -23.2574
vn -0.980574 0.18425 0.0672763
v -4.15034 3.84995 -23.2587
vn -0.994312 0.0872814 0.0610391
v -4.15119 3.82994 -23.2601
vn -0.998474 -0.0105279 0.0542139
v -4.15007 3.80995 -23.2616
vn -0.99302 -0.108236 0.0468667
v -4.147 3.79017 -23.2632
vn -0.978003 -0.204901 0.0390681
v -4.142 3.7708 -23.2649
vn -0.953567 -0.299593 0.0308933
v -4.13512 3.75202 -23.2666
vn -0.919947 -0.3914 0.0224209
v -4.12643 3.73401 -23.2684
vn -0.877468 -0.479438 0.0137327
v -4.11601 3.71694 -23.2702
vn -0.826539 -0.562858 0.00491213
v -4.10397 3.70099 -23.272
vn -0.76765 -0.640858 -0.00395571
v -4.09041 3.68629 -23.2738
vn -0.701367 -0.712685 -0.0127855
v -4.07547 3.673 -23.2756
vn -0.62833 -0.77765 -0.0214921
v -4.05929 3.66124 -23.2773
vn -0.549242 -0.835125 -0.0299917
v -4.04202 3.65113 -23.279
vn -0.464865 -0.884557 -0.0382025
v -4.02385 3.64276 -23.2806
vn -0.37601 -0.925471 -0.0460454
v -4.00493 3.63621 -23.2821
vn -0.283535 -0.957472 -0.0534448
v -3.98545 3.63155 -23.2835
vn -0.188329 -0.980251 -0.0603295
v -3.9656 3.62882 -23.2848
vn -0.0913086 -0.993591 -0.0666333
v -3.94557 3.62805 -23.286
vn 0.00659072 -0.997361 -0.0722953
v -3.92556 3.62925 -23.287
vn 0.104427 -0.991527 -0.0772611
v -3.90575 3.63239 -23.2878
vn 0.201257 -0.976144 -0.0814828
v -3.88634 3.63746 -23.2885
vn 0.296149 -0.951359 -0.0849198
v -3.86751 3.64441 -23.2891
vn 0.388188 -0.917413 -0.0875389
v -3.84944 3.65316 -23.2894
vn 0.47649 -0.874632 -0.089315
v -3.83232 3.66364 -23.2896
vn 0.560202 -0.823427 -0.090231
v -3.8163 3.67573 -23.2896
vn 0.63852 -0.764292 -0.090278
v -3.80153 3.68934 -23.2895
vn 0.710688 -0.697797 -0.0894555
v -3.78817 3.70432 -23.2891
vn 0.776012 -0.624581 -0.0877716
v -3.77633 3.72052 -23.2886
vn 0.833862 -0.545351 -0.0852424
v -3.76614 3.73781 -23.2879
vn 0.883682 -0.460868 -0.0818922
v -3.75769 3.756 -23.2871
vn 0.924992 -0.371947 -0.0777534
v -3.75106 3.77492 -23.2861
vn 0.957393 -0.279444 -0.0728657
v -3.74632 3.7944 -23.2849
vn 0.980574 -0.18425 -0.0672763
v -3.74351 3.81424 -23.2837
vn 0.994312 -0.0872814 -0.0610391
v -3.74266 3.83424 -23.2823
vn 0.998474 0.0105279 -0.0542139
v -3.74377 3.85423 -23.2808
vn 0.99302 0.108236 -0.0468667
v -3.74685 3.87401 -23.2792
vn 0.978003 0.204901 -0.0390681
v -3.75184 3.89338 -23.2775
vn 0.953567 0.299593 -0.0308933
v -3.75872 3.91216 -23.2758
vn 0.919947 0.3914 -0.0224209
v -3.76741 3.93017 -23.274
vn 0.877468 0.479438 -0.0137327
v -3.77783 3.94724 -23.2722
vn 0.826539 0.562858 -0.00491213
v -3.78988 3.9632 -23.2704
vn 0.76765 0.640858 0.00395571
v -3.80344 3.97789 -23.2686
vn 0.701367 0.712685 0.0127855
v -3.81838 3.99118 -23.2668
vn 0.62833 0.77765 0.0214921
v -3.83456 4.00294 -23.265
vn 0.549242 0.835125 0.0299917
v -3.85182 4.01305 -23.2634
vn 0.464865 0.884557 0.0382025
v -3.87 4.02142 -23.2618
vn 0.37601 0.925471 0.0460454
v -3.88892 4.02797 -23.2602
vn 0.283535 0.957472 0.0534448
v -3.9084 4.03263 -23.2588
vn 0.188329 0.980251 0.0603295
v -3.92824 4.03536 -23.2575
vn 0.0913086 0.993591 0.0666333
v -3.94827 4.03613 -23.2564
vn -0.00659072 0.997361 0.0722953
v -3.96829 4.03494 -23.2554
vn -0.104427 0.991527 0.0772611
v -3.9881 4.03179 -23.2545
vn -0.201257 0.976144 0.0814828
v -4.00751 4.02672 -23.2538
vn -0.296149 0.951359 0.0849198
v -4.02634 4.01977 -23.2533
vn -0.388188 0.917413 0.0875389
v -4.0444 4.01102 -23.2529
vn -0.47649 0.874632 0.089315
v -4.06153 4.00055 -23.2527
vn -0.560202 0.823427 0.090231
v -4.07755 3.98845 -23.2527
vn -0.63852 0.764292 0.090278
v -4.09231 3.97484 -23.2529
vn -0.710688 0.697797 0.0894555
v -4.17742 4.07039 -25.1549
vn -0.777772 0.628535 -0.00383654
v -4.19114 4.0516 -25.1554
vn -0.835614 0.549286 -0.00592465
v -4.20295 4.03155 -25.1559
vn -0.885408 0.464746 -0.00795571
v -4.21274 4.01043 -25.1563
vn -0.926676 0.375731 -0.00991015
v -4.22041 3.98846 -25.1568
vn -0.959019 0.283097 -0.0117692
v -4.22589 3.96584 -25.1572
vn -0.982126 0.187737 -0.0135148
v -4.22913 3.9428 -25.1576
vn -0.995775 0.0905688 -0.0151303
v -4.23009 3.91954 -25.1579
vn -0.999834 -0.00747153 -0.0166001
v -4.22877 3.89631 -25.1582
vn -0.994264 -0.10544 -0.01791
v -4.22518 3.87331 -25.1585
vn -0.979119 -0.202393 -0.0190475
v -4.21935 3.85078 -25.1587
vn -0.954544 -0.297397 -0.0200015
v -4.21134 3.82892 -25.1589
vn -0.920777 -0.389536 -0.0207628
v -4.20123 3.80796 -25.1591
vn -0.878142 -0.477925 -0.0213243
v -4.18911 3.78809 -25.1591
vn -0.82705 -0.56171 -0.0216803
v -4.17511 3.7695 -25.1592
vn -0.767993 -0.640086 -0.0218276
v -4.15934 3.75237 -25.1592
vn -0.70154 -0.712298 -0.0217646
v -4.14198 3.73687 -25.1591
vn -0.62833 -0.77765 -0.0214921
v -4.12318 3.72315 -25.159
vn -0.54907 -0.835512 -0.0210125
v -4.10313 3.71133 -25.1588
vn -0.464521 -0.885328 -0.0203306
v -4.08201 3.70154 -25.1586
vn -0.375499 -0.926618 -0.0194529
v -4.06004 3.69386 -25.1584
vn -0.282861 -0.958985 -0.0183879
v -4.03742 3.68837 -25.1581
vn -0.187499 -0.982115 -0.0171458
v -4.01437 3.68513 -25.1577
vn -0.0903308 -0.995787 -0.0157385
v -3.99112 3.68416 -25.1574
vn 0.00770721 -0.99987 -0.0141797
v -3.96789 3.68548 -25.157
vn 0.105671 -0.994323 -0.0124843
v -3.94489 3.68906 -25.1565
vn 0.202617 -0.9792 -0.0106687
v -3.92236 3.69489 -25.1561
vn 0.297612 -0.954647 -0.00875038
v -3.90051 3.70289 -25.1556
vn 0.389741 -0.9209 -0.00674776
v -3.87955 3.713 -25.1551
vn 0.478116 -0.878284 -0.00468016
v -3.85968 3.72511 -25.1546
vn 0.561886 -0.82721 -0.00256748
v -3.84109 3.73912 -25.1541
vn 0.640246 -0.76817 -0.000430073
v -3.82397 3.75488 -25.1536
vn 0.712439 -0.701732 0.00171147
v -3.80847 3.77224 -25.1531
vn 0.777772 -0.628535 0.00383654
v -3.79475 3.79103 -25.1526
vn 0.835614 -0.549286 0.00592465
v -3.78294 3.81109 -25.1521
vn 0.885408 -0.464746 0.00795571
v -3.77316 3.8322 -25.1516
vn 0.926676 -0.375731 0.00991015
v -3.76549 3.85417 -25.1512
vn 0.959019 -0.283097 0.0117692
v -3.76 3.87679 -25.1508
vn 0.982126 -0.187737 0.0135148
v -3.75677 3.89983 -25.1504
vn 0.995775 -0.0905688 0.0151303
v -3.7558 3.92309 -25.1501
vn 0.999834 0.00747153 0.0166001
v -3.75713 3.94632 -25.1497
vn 0.994264 0.10544 0.01791
v -3.76072 3.96932 -25.1495
vn 0.979119 0.202393 0.0190475
v -3.76655 3.99185 -25.1493
vn 0.954544 0.297397 0.0200015
v -3.77456 4.01371 -25.1491
vn 0.920777 0.389536 0.0207628
v -3.78467 4.03467 -25.1489
vn 0.878142 0.477925 0.0213243
v -3.79679 4.05454 -25.1489
vn 0.82705 0.56171 0.0216803
v -3.81079 4.07313 -25.1488
vn 0.767993 0.640086 0.0218276
v -3.82656 4.09026 -25.1488
vn 0.70154 0.712298 0.0217646
v -3.84392 4.10576 -25.1489
vn 0.62833 0.77765 0.0214921
v -3.86272 4.11949 -25.149
vn 0.54907 0.835512 0.0210125
v -3.88277 4.1313 -25.1492
vn 0.464521 0.885328 0.0203306
v -3.90389 4.14109 -25.1494
vn 0.375499 0.926618 0.0194529
v -3.92586 4.14877 -25.1496
vn 0.282861 0.958985 0.0183879
v -3.94848 4.15426 -25.1499
vn 0.187499 0.982115 0.0171458
v -3.97152 4.1575 -25.1503
vn 0.0903308 0.995787 0.0157385
v -3.99478 4.15847 -25.1506
vn -0.00770721 0.99987 0.0141797
v -4.01801 4.15715 -25.151
vn -0.105671 0.994323 0.0124843
v -4.04101 4.15357 -25.1515
vn -0.202617 0.9792 0.0106687
v -4.06354 4.14774 -25.1519
vn -0.297612 0.954647 0.00875038
v -4.08539 4.13974 -25.1524
vn -0.389741 0.9209 0.00674776
v -4.10635 4.12963 -25.1529
vn -0.478116 0.878284 0.00468016
v -4.12622 4.11752 -25.1534
vn -0.561886 0.82721 0.00256748
v -4.14481 4.10351 -25.1539
vn -0.640246 0.76817 0.000430073
v -4.16193 4.08776 -25.1544
vn -0.712439 0.701732 -0.00171147
v -4.09928 4.04563 -26.5434
vn -0.761716 0.6206 -0.186128
v -4.1149 4.02426 -26.5438
vn -0.819636 0.541389 -0.187338
v -4.1284 4.00148 -26.5436
vn -0.869661 0.456964 -0.186744
v -4.13964 3.97751 -26.5429
vn -0.911312 0.368138 -0.184352
v -4.14851 3.95259 -26.5418
vn -0.944186 0.275766 -0.180184
v -4.15492 3.92696 -26.5402
vn -0.967967 0.180739 -0.174281
v -4.15882 3.90085 -26.5382
vn -0.982426 0.0839714 -0.1667
v -4.16017 3.87452 -26.5357
vn -0.987423 -0.0136051 -0.157513
v -4.15895 3.84823 -26.5328
vn -0.982911 -0.111051 -0.146809
v -4.15518 3.82223 -26.5295
vn -0.968934 -0.207427 -0.134692
v -4.14889 3.79677 -26.5259
vn -0.945624 -0.301805 -0.121277
v -4.14015 3.77209 -26.522
vn -0.913208 -0.393277 -0.106694
v -4.12903 3.74844 -26.5178
vn -0.871998 -0.480961 -0.091084
v -4.11565 3.72603 -26.5133
vn -0.822389 -0.564014 -0.0745966
v -4.10013 3.70509 -26.5087
vn -0.764861 -0.641634 -0.0573908
v -4.08262 3.68581 -26.5039
vn -0.699966 -0.713076 -0.0396323
v -4.06329 3.66839 -26.499
vn -0.62833 -0.77765 -0.0214921
v -4.04233 3.65299 -26.4941
vn -0.550644 -0.834735 -0.00314488
v -4.01994 3.63976 -26.4891
vn -0.467654 -0.88378 0.0152326
v -3.99634 3.62882 -26.4842
vn -0.38016 -0.924315 0.0334634
v -3.97174 3.62029 -26.4793
vn -0.289005 -0.955948 0.0513719
v -3.9464 3.61424 -26.4747
vn -0.195067 -0.978375 0.0687856
v -3.92055 3.61073 -26.4701
vn -0.0992508 -0.991379 0.0855369
v -3.89444 3.6098 -26.4658
vn -0.00247831 -0.994836 0.101464
v -3.86833 3.61145 -26.4618
vn 0.094318 -0.988712 0.116415
v -3.84246 3.61567 -26.4581
vn 0.190206 -0.973066 0.130244
v -3.81708 3.62242 -26.4547
vn 0.284262 -0.948049 0.142819
v -3.79244 3.63163 -26.4517
vn 0.375581 -0.913902 0.154019
v -3.76878 3.64322 -26.449
vn 0.463282 -0.870954 0.163735
v -3.74633 3.65707 -26.4468
vn 0.546522 -0.819617 0.171874
v -3.72529 3.67305 -26.4451
vn 0.624499 -0.760388 0.178358
v -3.70587 3.691 -26.4438
vn 0.696461 -0.693835 0.183125
v -3.68827 3.71076 -26.443
vn 0.761716 -0.6206 0.186128
v -3.67264 3.73213 -26.4427
vn 0.819636 -0.541389 0.187338
v -3.65915 3.75491 -26.4428
vn 0.869661 -0.456964 0.186744
v -3.64791 3.77887 -26.4435
vn 0.911312 -0.368138 0.184352
v -3.63904 3.80379 -26.4446
vn 0.944186 -0.275766 0.180184
v -3.63262 3.82943 -26.4462
vn 0.967967 -0.180739 0.174281
v -3.62872 3.85554 -26.4482
vn 0.982426 -0.0839714 0.1667
v -3.62737 3.88186 -26.4507
vn 0.987423 0.0136051 0.157513
v -3.62859 3.90815 -26.4536
vn 0.982911 0.111051 0.146809
v -3.63236 3.93416 -26.4569
vn 0.968934 0.207427 0.134692
v -3.63865 3.95962 -26.4605
vn 0.945624 0.301805 0.121277
v -3.6474 3.9843 -26.4644
vn 0.913208 0.393277 0.106694
v -3.65852 4.00795 -26.4686
vn 0.871998 0.480961 0.091084
v -3.6719 4.03036 -26.4731
vn 0.822389 0.564014 0.0745966
v -3.68742 4.0513 -26.4777
vn 0.764861 0.641634 0.0573908
v -3.70493 4.07058 -26.4825
vn 0.699966 0.713076 0.0396323
v -3.72425 4.088 -26.4874
vn 0.62833 0.77765 0.0214921
v -3.74521 4.1034 -26.4924
vn 0.550644 0.834735 0.00314488
v -3.7676 4.11663 -26.4973
vn 0.467654 0.88378 -0.0152326
v -3.79121 4.12757 -26.5022
vn 0.38016 0.924315 -0.0334634
v -3.8158 4.1361 -26.5071
vn 0.289005 0.955948 -0.0513719
v -3.84115 4.14215 -26.5118
vn 0.195067 0.978375 -0.0687856
v -3.867 4.14566 -26.5163
vn 0.0992508 0.991379 -0.0855369
v -3.8931 4.14659 -26.5206
vn 0.00247831 0.994836 -0.101464
v -3.91922 4.14494 -26.5246
vn -0.094318 0.988712 -0.116415
v -3.94509 4.14072 -26.5283
vn -0.190206 0.973066 -0.130244
v -3.97046 4.13397 -26.5317
vn -0.284262 0.948049 -0.142819
v -3.9951 4.12476 -26.5348
vn -0.375581 0.913902 -0.154019
v -4.01876 4.11317 -26.5374
vn -0.463282 0.870954 -0.163735
v -4.04122 4.09932 -26.5396
vn -0.546522 0.819617 -0.171874
v -4.06226 4.08334 -26.5413
vn -0.624499 0.760388 -0.178358
v -4.08167 4.06538 -26.5426
vn -0.696461 0.693835 -0.183125
v -3.83415 3.85706 -27.4718
vn -0.610965 0.510377 -0.605176
v -3.85188 3.83327 -27.4716
vn -0.66961 0.431696 -0.604368
v -3.86767 3.80822 -27.4696
vn -0.721807 0.348858 -0.59774
v -3.88135 3.78215 -27.4658
vn -0.767052 0.26266 -0.585356
v -3.8928 3.75532 -27.4604
vn -0.80491 0.173933 -0.567334
v -3.9019 3.72799 -27.4533
vn -0.835016 0.0835306 -0.543848
v -3.90857 3.70041 -27.4446
vn -0.85708 -0.00767625 -0.515125
v -3.91275 3.67285 -27.4344
vn -0.870891 -0.0988092 -0.481441
v -3.91439 3.64558 -27.4228
vn -0.876314 -0.18899 -0.443121
v -3.91348 3.61886 -27.4099
vn -0.873298 -0.277352 -0.400533
v -3.91002 3.59294 -27.3959
vn -0.861872 -0.363042 -0.354088
v -3.90406 3.56809 -27.3808
vn -0.842145 -0.445236 -0.304232
v -3.89564 3.54453 -27.3649
vn -0.814308 -0.523142 -0.251447
v -3.88485 3.52249 -27.3482
vn -0.778628 -0.59601 -0.19624
v -3.87179 3.5022 -27.3309
vn -0.735451 -0.663138 -0.139143
v -3.85659 3.48383 -27.3132
vn -0.68519 -0.723879 -0.0807061
v -3.8394 3.46757 -27.2953
vn -0.62833 -0.77765 -0.0214921
v -3.82037 3.45357 -27.2773
vn -0.56542 -0.823931 0.037929
v -3.7997 3.44198 -27.2595
vn -0.497064 -0.862277 0.0969848
v -3.77759 3.43289 -27.2419
vn -0.423921 -0.892319 0.155107
v -3.75423 3.42641 -27.2248
vn -0.346695 -0.913767 0.211735
v -3.72987 3.42258 -27.2083
vn -0.266131 -0.926416 0.266323
v -3.70473 3.42145 -27.1925
vn -0.183004 -0.930142 0.318348
v -3.67906 3.42304 -27.1777
vn -0.0981139 -0.924911 0.367306
v -3.65311 3.42731 -27.164
vn -0.0122793 -0.910772 0.412727
v -3.62711 3.43424 -27.1515
vn 0.0736737 -0.887862 0.454173
v -3.60134 3.44375 -27.1403
vn 0.158917 -0.856402 0.491245
v -3.57602 3.45576 -27.1305
vn 0.24263 -0.816694 0.523586
v -3.55141 3.47015 -27.1222
vn 0.324006 -0.76912 0.550885
v -3.52775 3.48677 -27.1156
vn 0.402262 -0.71414 0.572878
v -3.50526 3.50548 -27.1106
vn 0.476644 -0.652282 0.589354
v -3.48415 3.52608 -27.1073
vn 0.546436 -0.584142 0.600155
v -3.46464 3.54839 -27.1058
vn 0.610965 -0.510377 0.605176
v -3.4469 3.57218 -27.1061
vn 0.66961 -0.431696 0.604368
v -3.43112 3.59723 -27.1081
vn 0.721807 -0.348858 0.59774
v -3.41744 3.6233 -27.1118
vn 0.767052 -0.26266 0.585356
v -3.40599 3.65013 -27.1173
vn 0.80491 -0.173933 0.567334
v -3.39689 3.67747 -27.1244
vn 0.835016 -0.0835306 0.543848
v -3.39021 3.70505 -27.133
vn 0.85708 0.00767625 0.515125
v -3.38604 3.73261 -27.1432
vn 0.870891 0.0988092 0.481441
v -3.3844 3.75988 -27.1548
vn 0.876314 0.18899 0.443121
v -3.38531 3.7866 -27.1677
vn 0.873298 0.277352 0.400533
v -3.38876 3.81251 -27.1817
vn 0.861872 0.363042 0.354088
v -3.39473 3.83737 -27.1968
vn 0.842145 0.445236 0.304232
v -3.40315 3.86092 -27.2128
vn 0.814308 0.523142 0.251447
v -3.41394 3.88296 -27.2295
vn 0.778628 0.59601 0.19624
v -3.42699 3.90326 -27.2467
vn 0.735451 0.663138 0.139143
v -3.44219 3.92163 -27.2644
vn 0.68519 0.723879 0.0807061
v -3.45939 3.93789 -27.2823
vn 0.62833 0.77765 0.0214921
v -3.47841 3.95188 -27.3003
vn 0.56542 0.823931 -0.037929
v -3.49908 3.96348 -27.3181
vn 0.497064 0.862277 -0.0969848
v -3.5212 3.97256 -27.3357
vn 0.423921 0.892319 -0.155107
v -3.54455 3.97905 -27.3528
vn 0.346695 0.913767 -0.211735
v -3.56892 3.98287 -27.3694
vn 0.266131 0.926416 -0.266323
v -3.59405 3.984 -27.3851
vn 0.183004 0.930142 -0.318348
v -3.61972 3.98242 -27.3999
vn 0.0981139 0.924911 -0.367306
v -3.64568 3.97814 -27.4136
vn 0.0122793 0.910772 -0.412727
v -3.67167 3.97121 -27.4262
vn -0.0736737 0.887862 -0.454173
v -3.69745 3.9617 -27.4374
vn -0.158917 0.856402 -0.491245
v -3.72276 3.94969 -27.4471
vn -0.24263 0.816694 -0.523586
v -3.74737 3.93531 -27.4554
vn -0.324006 0.76912 -0.550885
v -3.77104 3.91868 -27.4621
vn -0.402262 0.71414 -0.572878
v -3.79353 3.89998 -27.467
vn -0.476644 0.652282 -0.589354
v -3.81463 3.87937 -27.4703
vn -0.546436 0.584142 -0.600155
v -3.24661 3.3935 -27.8756
vn 0.0394037 -0.00422217 -0.999214
v -3.26731 3.36797 -27.8746
vn -0.0223732 -0.0804248 -0.99651
v -3.28793 3.3427 -27.8705
vn -0.0839346 -0.155853 -0.984208
v -3.30828 3.31794 -27.8632
vn -0.144688 -0.22978 -0.962427
v -3.32817 3.29391 -27.8528
vn -0.204047 -0.301494 -0.931378
v -3.34739 3.27086 -27.8394
vn -0.261442 -0.370305 -0.89136
v -3.36578 3.249 -27.8231
vn -0.316319 -0.43555 -0.842757
v -3.38314 3.22855 -27.8041
vn -0.368149 -0.4966 -0.786038
v -3.39932 3.2097 -27.7826
vn -0.416434 -0.552867 -0.721748
v -3.41415 3.19263 -27.7587
vn -0.460709 -0.60381 -0.650509
v -3.4275 3.17752 -27.7328
vn -0.500546 -0.648938 -0.573004
v -3.43923 3.16449 -27.705
vn -0.535563 -0.687816 -0.489981
v -3.44923 3.15369 -27.6756
vn -0.565422 -0.72007 -0.402239
v -3.45741 3.1452 -27.6449
vn -0.589836 -0.74539 -0.310623
v -3.46368 3.13913 -27.6132
vn -0.60857 -0.763531 -0.216016
v -3.468 3.13551 -27.5808
vn -0.621443 -0.774319 -0.119329
v -3.4703 3.1344 -27.548
vn -0.62833 -0.77765 -0.0214921
v -3.47058 3.13579 -27.5152
vn -0.629167 -0.773491 0.0765516
v -3.46883 3.13968 -27.4826
vn -0.623944 -0.761884 0.173858
v -3.46507 3.14603 -27.4505
vn -0.612713 -0.742939 0.26949
v -3.45933 3.15477 -27.4194
vn -0.595581 -0.716839 0.362527
v -3.45167 3.16583 -27.3894
vn -0.572713 -0.683835 0.452072
v -3.44216 3.17909 -27.3608
vn -0.544329 -0.644246 0.537264
v -3.4309 3.19443 -27.334
vn -0.510703 -0.598453 0.617281
v -3.41799 3.2117 -27.3092
vn -0.472159 -0.546896 0.691354
v -3.40355 3.23074 -27.2866
vn -0.429068 -0.490072 0.758769
v -3.38773 3.25135 -27.2665
vn -0.381845 -0.428528 0.818876
v -3.37068 3.27335 -27.249
vn -0.330944 -0.362858 0.871097
v -3.35256 3.29653 -27.2343
vn -0.276856 -0.293693 0.914929
v -3.33355 3.32064 -27.2226
vn -0.220102 -0.221699 0.94995
v -3.31382 3.34548 -27.2139
vn -0.161228 -0.147571 0.975822
v -3.29358 3.37079 -27.2084
vn -0.100801 -0.0720212 0.992296
v -3.27301 3.39633 -27.2061
vn -0.0394037 0.00422217 0.999214
v -3.25231 3.42186 -27.207
vn 0.0223732 0.0804248 0.99651
v -3.23169 3.44713 -27.2111
vn 0.0839346 0.155853 0.984208
v -3.21134 3.47189 -27.2184
vn 0.144688 0.22978 0.962427
v -3.19145 3.49592 -27.2288
vn 0.204047 0.301494 0.931378
v -3.17223 3.51897 -27.2422
vn 0.261442 0.370305 0.89136
v -3.15384 3.54083 -27.2585
vn 0.316319 0.43555 0.842757
v -3.13648 3.56128 -27.2775
vn 0.368149 0.4966 0.786038
v -3.1203 3.58013 -27.299
vn 0.416434 0.552867 0.721748
v -3.10547 3.59719 -27.3229
vn 0.460709 0.60381 0.650509
v -3.09212 3.61231 -27.3489
vn 0.500546 0.648938 0.573004
v -3.08039 3.62534 -27.3767
vn 0.535563 0.687816 0.489981
v -3.07039 3.63614 -27.4061
vn 0.565422 0.72007 0.402239
v -3.06221 3.64462 -27.4368
vn 0.589836 0.74539 0.310623
v -3.05594 3.6507 -27.4684
vn 0.60857 0.763531 0.216016
v -3.05162 3.65431 -27.5008
vn 0.621443 0.774319 0.119329
v -3.04932 3.65543 -27.5336
vn 0.62833 0.77765 0.0214921
v -3.04904 3.65404 -27.5665
vn 0.629167 0.773491 -0.0765516
v -3.05079 3.65015 -27.5991
vn 0.623944 0.761884 -0.173858
v -3.05455 3.6438 -27.6311
vn 0.612713 0.742939 -0.26949
v -3.06029 3.63506 -27.6623
vn 0.595581 0.716839 -0.362527
v -3.06795 3.624 -27.6923
vn 0.572713 0.683835 -0.452072
v -3.07746 3.61074 -27.7208
vn 0.544329 0.644246 -0.537264
v -3.08872 3.5954 -27.7476
vn 0.510703 0.598453 -0.617281
v -3.10163 3.57813 -27.7724
vn 0.472159 0.546896 -0.691354
v -3.11607 3.55909 -27.795
vn 0.429068 0.490072 -0.758769
v -3.13189 3.53847 -27.8151
vn 0.381845 0.428528 -0.818876
v -3.14894 3.51647 -27.8326
vn 0.330944 0.362858 -0.871097
v -3.16706 3.4933 -27.8473
vn 0.276856 0.293693 -0.914929
v -3.18607 3.46918 -27.859
vn 0.220102 0.221699 -0.94995
v -3.2058 3.44435 -27.8677
vn 0.161228 0.147571 -0.975822
v -3.22604 3.41904 -27.8732
vn 0.100801 0.0720212 -0.992296
f 1 66 2 
f 1 65 66 
f 2 67 3 
f 2 66 67 
f 3 68 4 
f 3 67 68 
f 4 69 5 
f 4 68 69 
f 5 70 6 
f 5 69 70 
f 6 71 7 
f 6 70 71 
f 7 72 8 
f 7 71 72 
f 8 73 9 
f 8 72 73 
f 9 74 10 
f 9 73 74 
f 10 75 11 
f 10 74 75 
f 11 76 12 
f 11 75 76 
f 12 77 13 
f 12 76 77 
f 13 78 14 
f 13 77 78 
f 14 79 15 
f 14 78 79 
f 15 80 16 
f 15 79 80 
f 16 81 17 
f 16 80 81 
f 17 82 18 
f 17 81 82 
f 18 83 19 
f 18 82 83 
f 19 84 20 
f 19 83 84 
f 20 85 21 
f 20 84 85 
f 21 86 22 
f 21 85 86 
f 22 87 23 
f 22 86 87 
f 23 88 24 
f 23 87 88 
f 24 89 25 
f 24 88 89 
f 25 90 26 
f 25 89 90 
f 26 91 27 
f 26 90 91 
f 27 92 28 
f 27 91 92 
f 28 93 29 
f 28 92 93 
f 29 94 30 
f 29 93 94 
f 30 95 31 
f 30 94 95 
f 31 96 32 
f 31 95 96 
f 32 97 33 
f 32 96 97 
f 33 98 34 
f 33 97 98 
f 34 99 35 
f 34 98 99 
f 35 100 36 
f 35 99 100 
f 36 101 37 
f 36 100 101 
f 37 102 38 
f 37 101 102 
f 38 103 39 
f 38 102 103 
f 39 104 40 
f 39 103 104 
f 40 105 41 
f 40 104 105 
f 41 106 42 
f 41 105 106 
f 42 107 43 
f 42 106 107 
f 43 108 44 
f 43 107 108 
f 44 109 45 
f 44 108 109 
f 45 110 46 
f 45 109 110 
f 46 111 47 
f 46 110 111 
f 47 112 48 
f 47 111 112 
f 48 113 49 
f 48 112 113 
f 49 114 50 
f 49 113 114 
f 50 115 51 
f 50 114 115 
f 51 116 52 
f 51 115 116 
f 52 117 53 
f 52 116 117 
f 53 118 54 
f 53 117 118 
f 54 119 55 
f 54 118 119 
f 55 120 56 
f 55 119 120 
f 56 121 57 
f 56 120 121 
f 57 122 58 
f 57 121 122 
f 58 123 59 
f 58 122 123 
f 59 124 60 
f 59 123 124 
f 60 125 61 
f 60 124 125 
f 61 126 62 
f 61 125 126 
f 62 127 63 
f 62 126 127 
f 63 128 64 
f 63 127 128 
f 64 65 1 
f 64 128 65 
f 65 130 66 
f 65 129 130 
f 66 131 67 
f 66 130 131 
f 67 132 68 
f 67 131 132 
f 68 133 69 
f 68 132 133 
f 69 134 70 
f 69 133 134 
f 70 135 71 
f 70 134 135 
f 71 136 72 
f 71 135 136 
f 72 137 73 
f 72 136 137 
f 73 138 74 
f 73 137 138 
f 74 139 75 
f 74 138 139 
f 75 140 76 
f 75 139 140 
f 76 141 77 
f 76 140 141 
f 77 142 78 
f 77 141 142 
f 78 143 79 
f 78 142 143 
f 79 144 80 
f 79 143 144 
f 80 145 81 
f 80 144 145 
f 81 146 82 
f 81 145 146 
f 82 147 83 
f 82 146 147 
f 83 148 84 
f 83 147 148 
f 84 149 85 
f 84 148 149 
f 85 150 86 
f 85 149 150 
f 86 151 87 
f 86 150 151 
f 87 152 88 
f 87 151 152 
f 88 153 89 
f 88 152 153 
f 89 154 90 
f 89 153 154 
f 90 155 91 
f 90 154 155 
f 91 156 92 
f 91 155 156 
f 92 157 93 
f 92 156 157 
f 93 158 94 
f 93 157 158 
f 94 159 95 
f 94 158 159 
f 95 160 96 
f 95 159 160 
f 96 161 97 
f 96 160 161 
f 97 162 98 
f 97 161 162 
f 98 163 99 
f 98 162 163 
f 99 164 100 
f 99 163 164 
f 100 165 101 
f 100 164 165 
f 101 166 102 
f 101 165 166 
f 102 167 103 
f 102 166 167 
f 103 168 104 
f 103 167 168 
f 104 169 105 
f 104 168 169 
f 105 170 106 
f 105 169 170 
f 106 171 107 
f 106 170 171 
f 107 172 108 
f 107 171 172 
f 108 173 109 
f 108 172 173 
f 109 174 110 
f 109 173 174 
f 110 175 111 
f 110 174 175 
f 111 176 112 
f 111 175 176 
f 112 177 113 
f 112 176 177 
f 113 178 114 
f 113 177 178 
f 114 179 115 
f 114 178 179 
f 115 180 116 
f 115 179 180 
f 116 181 117 
f 116 180 181 
f 117 182 118 
f 117 181 182 
f 118 183 119 
f 118 182 183 
f 119 184 120 
f 119 183 184 
f 120 185 121 
f 120 184 185 
f 121 186 122 
f 121 185 186 
f 122 187 123 
f 122 186 187 
f 123 188 124 
f 123 187 188 
f 124 189 125 
f 124 188 189 
f 125 190 126 
f 125 189 190 
f 126 191 127 
f 126 190 191 
f 127 192 128 
f 127 191 192 
f 128 129 65 
f 128 192 129 
f 129 194 130 
f 129 193 194 
f 130 195 131 
f 130 194 195 
f 131 196 132 
f 131 195 196 
f 132 197 133 
f 132 196 197 
f 133 198 134 
f 133 197 198 
f 134 199 135 
f 134 198 199 
f 135 200 136 
f 135 199 200 
f 136 201 137 
f 136 200 201 
f 137 202 138 
f 137 201 202 
f 138 203 139 
f 138 202 203 
f 139 204 140 
f 139 203 204 
f 140 205 141 
f 140 204 205 
f 141 206 142 
f 141 205 206 
f 142 207 143 
f 142 206 207 
f 143 208 144 
f 143 207 208 
f 144 209 145 
f 144 208 209 
f 145 210 146 
f 145 209 210 
f 146 211 147 
f 146 210 211 
f 147 212 148 
f 147 211 212 
f 148 213 149 
f 148 212 213 
f 149 214 150 
f 149 213 214 
f 150 215 151 
f 150 214 215 
f 151 216 152 
f 151 215 216 
f 152 217 153 
f 152 216 217 
f 153 218 154 
f 153 217 218 
f 154 219 155 
f 154 218 219 
f 155 220 156 
f 155 219 220 
f 156 221 157 
f 156 220 221 
f 157 222 158 
f 157 221 222 
f 158 223 159 
f 158 222 223 
f 159 224 160 
f 159 223 224 
f 160 225 161 
f 160 224 225 
f 161 226 162 
f 161 225 226 
f 162 227 163 
f 162 226 227 
f 163 228 164 
f 163 227 228 
f 164 229 165 
f 164 228 229 
f 165 230 166 
f 165 229 230 
f 166 231 167 
f 166 230 231 
f 167 232 168 
f 167 231 232 
f 168 233 169 
f 168 232 233 
f 169 234 170 
f 169 233 234 
f 170 235 171 
f 170 234 235 
f 171 236 172 
f 171 235 236 
f 172 237 173 
f 172 236 237 
f 173 238 174 
f 173 237 238 
f 174 239 175 
f 174 238 239 
f 175 240 176 
f 175 239 240 
f 176 241 177 
f 176 240 241 
f 177 242 178 
f 177 241 242 
f 178 243 179 
f 178 242 243 
f 179 244 180 
f 179 243 244 
f 180 245 181 
f 180 244 245 
f 181 246 182 
f 181 245 246 
f 182 247 183 
f 182 246 247 
f 183 248 184 
f 183 247 248 
f 184 249 185 
f 184 248 249 
f 185 250 186 
f 185 249 250 
f 186 251 187 
f 186 250 251 
f 187 252 188 
f 187 251 252 
f 188 253 189 
f 188 252 253 
f 189 254 190 
f 189 253 254 
f 190 255 191 
f 190 254 255 
f 191 256 192 
f 191 255 256 
f 192 193 129 
f 192 256 193 
f 193 258 194 
f 193 257 258 
f 194 259 195 
f 194 258 259 
f 195 260 196 
f 195 259 260 
f 196 261 197 
f 196 260 261 
f 197 262 198 
f 197 261 262 
f 198 263 199 
f 198 262 263 
f 199 264 200 
f 199 263 264 
f 200 265 201 
f 200 264 265 
f 201 266 202 
f 201 265 266 
f 202 267 203 
f 202 266 267 
f 203 268 204 
f 203 267 268 
f 204 269 205 
f 204 268 269 
f 205 270 206 
f 205 269 270 
f 206 271 207 
f 206 270 271 
f 207 272 208 
f 207 271 272 
f 208 273 209 
f 208 272 273 
f 209 274 210 
f 209 273 274 
f 210 275 211 
f 210 274 275 
f 211 276 212 
f 211 275 276 
f 212 277 213 
f 212 276 277 
f 213 278 214 
f 213 277 278 
f 214 279 215 
f 214 278 279 
f 215 280 216 
f 215 279 280 
f 216 281 217 
f 216 280 281 
f 217 282 218 
f 217 281 282 
f 218 283 219 
f 218 282 283 
f 219 284 220 
f 219 283 284 
f 220 285 221 
f 220 284 285 
f 221 286 222 
f 221 285 286 
f 222 287 223 
f 222 286 287 
f 223 288 224 
f 223 287 288 
f 224 289 225 
f 224 288 289 
f 225 290 226 
f 225 289 290 
f 226 291 227 
f 226 290 291 
f 227 292 228 
f 227 291 292 
f 228 293 229 
f 228 292 293 
f 229 294 230 
f 229 293 294 
f 230 295 231 
f 230 294 295 
f 231 296 232 
f 231 295 296 
f 232 297 233 
f 232 296 297 
f 233 298 234 
f 233 297 298 
f 234 299 235 
f 234 298 299 
f 235 300 236 
f 235 299 300 
f 236 301 237 
f 236 300 301 
f 237 302 238 
f 237 301 302 
f 238 303 239 
f 238 302 303 
f 239 304 240 
f 239 303 304 
f 240 305 241 
f 240 304 305 
f 241 306 242 
f 241 305 306 
f 242 307 243 
f 242 306 307 
f 243 308 244 
f 243 307 308 
f 244 309 245 
f 244 308 309 
f 245 310 246 
f 245 309 310 
f 246 311 247 
f 246 310 311 
f 247 312 248 
f 247 311 312 
f 248 313 249 
f 248 312 313 
f 249 314 250 
f 249 313 314 
f 250 315 251 
f 250 314 315 
f 251 316 252 
f 251 315 316 
f 252 317 253 
f 252 316 317 
f 253 318 254 
f 253 317 318 
f 254 319 255 
f 254 318 319 
f 255 320 256 
f 255 319 320 
f 256 257 193 
f 256 320 257 
f 257 322 258 
f 257 321 322 
f 258 323 259 
f 258 322 323 
f 259 324 260 
f 259 323 324 
f 260 325 261 
f 260 324 325 
f 261 326 262 
f 261 325 326 
f 262 327 263 
f 262 326 327 
f 263 328 264 
f 263 327 328 
f 264 329 265 
f 264 328 329 
f 265 330 266 
f 265 329 330 
f 266 331 267 
f 266 330 331 
f 267 332 268 
f 267 331 332 
f 268 333 269 
f 268 332 333 
f 269 334 270 
f 269 333 334 
f 270 335 271 
f 270 334 335 
f 271 336 272 
f 271 335 336 
f 272 337 273 
f 272 336 337 
f 273 338 274 
f 273 337 338 
f 274 339 275 
f 274 338 339 
f 275 340 276 
f 275 339 340 
f 276 341 277 
f 276 340 341 
f 277 342 278 
f 277 341 342 
f 278 343 279 
f 278 342 343 
f 279 344 280 
f 279 343 344 
f 280 345 281 
f 280 344 345 
f 281 346 282 
f 281 345 346 
f 282 347 283 
f 282 346 347 
f 283 348 284 
f 283 347 348 
f 284 349 285 
f 284 348 349 
f 285 350 286 
f 285 349 350 
f 286 351 287 
f 286 350 351 
f 287 352 288 
f 287 351 352 
f 288 353 289 
f 288 352 353 
f 289 354 290 
f 289 353 354 
f 290 355 291 
f 290 354 355 
f 291 356 292 
f 291 355 356 
f 292 357 293 
f 292 356 357 
f 293 358 294 
f 293 357 358 
f 294 359 295 
f 294 358 359 
f 295 360 296 
f 295 359 360 
f 296 361 297 
f 296 360 361 
f 297 362 298 
f 297 361 362 
f 298 363 299 
f 298 362 363 
f 299 364 300 
f 299 363 364 
f 300 365 301 
f 300 364 365 
f 301 366 302 
f 301 365 366 
f 302 367 303 
f 302 366 367 
f 303 368 304 
f 303 367 368 
f 304 369 305 
f 304 368 369 
f 305 370 306 
f 305 369 370 
f 306 371 307 
f 306 370 371 
f 307 372 308 
f 307 371 372 
f 308 373 309 
f 308 372 373 
f 309 374 310 
f 309 373 374 
f 310 375 311 
f 310 374 375 
f 311 376 312 
f 311 375 376 
f 312 377 313 
f 312 376 377 
f 313 378 314 
f 313 377 378 
f 314 379 315 
f 314 378 379 
f 315 380 316 
f 315 379 380 
f 316 381 317 
f 316 380 381 
f 317 382 318 
f 317 381 382 
f 318 383 319 
f 318 382 383 
f 319 384 320 
f 319 383 384 
f 320 321 257 
f 320 384 321 
f 321 386 322 
f 321 385 386 
f 322 387 323 
f 322 386 387 
f 323 388 324 
f 323 387 388 
f 324 389 325 
f 324 388 389 
f 325 390 326 
f 325 389 390 
f 326 391 327 
f 326 390 391 
f 327 392 328 
f 327 391 392 
f 328 393 329 
f 328 392 393 
f 329 394 330 
f 329 393 394 
f 330 395 331 
f 330 394 395 
f 331 396 332 
f 331 395 396 
f 332 397 333 
f 332 396 397 
f 333 398 334 
f 333 397 398 
f 334 399 335 
f 334 398 399 
f 335 400 336 
f 335 399 400 
f 336 401 337 
f 336 400 401 
f 337 402 338 
f 337 401 402 
f 338 403 339 
f 338 402 403 
f 339 404 340 
f 339 403 404 
f 340 405 341 
f 340 404 405 
f 341 406 342 
f 341 405 406 
f 342 407 343 
f 342 406 407 
f 343 408 344 
f 343 407 408 
f 344 409 345 
f 344 408 409 
f 345 410 346 
f 345 409 410 
f 346 411 347 
f 346 410 411 
f 347 412 348 
f 347 411 412 
f 348 413 349 
f 348 412 413 
f 349 414 350 
f 349 413 414 
f 350 415 351 
f 350 414 415 
f 351 416 352 
f 351 415 416 
f 352 417 353 
f 352 416 417 
f 353 418 354 
f 353 417 418 
f 354 419 355 
f 354 418 419 
f 355 420 356 
f 355 419 420 
f 356 421 357 
f 356 420 421 
f 357 422 358 
f 357 421 422 
f 358 423 359 
f 358 422 423 
f 359 424 360 
f 359 423 424 
f 360 425 361 
f 360 424 425 
f 361 426 362 
f 361 425 426 
f 362 427 363 
f 362 426 427 
f 363 428 364 
f 363 427 428 
f 364 429 365 
f 364 428 429 
f 365 430 366 
f 365 429 430 
f 366 431 367 
f 366 430 431 
f 367 432 368 
f 367 431 432 
f 368 433 369 
f 368 432 433 
f 369 434 370 
f 369 433 434 
f 370 435 371 
f 370 434 435 
f 371 436 372 
f 371 435 436 
f 372 437 373 
f 372 436 437 
f 373 438 374 
f 373 437 438 
f 374 439 375 
f 374 438 439 
f 375 440 376 
f 375 439 440 
f 376 441 377 
f 376 440 441 
f 377 442 378 
f 377 441 442 
f 378 443 379 
f 378 442 443 
f 379 444 380 
f 379 443 444 
f 380 445 381 
f 380 444 445 
f 381 446 382 
f 381 445 446 
f 382 447 383 
f 382 446 447 
f 383 448 384 
f 383 447 448 
f 384 385 321 
f 384 448 385 
f 385 450 386 
f 385 449 450 
f 386 451 387 
f 386 450 451 
f 387 452 388 
f 387 451 452 
f 388 453 389 
f 388 452 453 
f 389 454 390 
f 389 453 454 
f 390 455 391 
f 390 454 455 
f 391 456 392 
f 391 455 456 
f 392 457 393 
f 392 456 457 
f 393 458 394 
f 393 457 458 
f 394 459 395 
f 394 458 459 
f 395 460 396 
f 395 459 460 
f 396 461 397 
f 396 460 461 
f 397 462 398 
f 397 461 462 
f 398 463 399 
f 398 462 463 
f 399 464 400 
f 399 463 464 
f 400 465 401 
f 400 464 465 
f 401 466 402 
f 401 465 466 
f 402 467 403 
f 402 466 467 
f 403 468 404 
f 403 467 468 
f 404 469 405 
f 404 468 469 
f 405 470 406 
f 405 469 470 
f 406 471 407 
f 406 470 471 
f 407 472 408 
f 407 471 472 
f 408 473 409 
f 408 472 473 
f 409 474 410 
f 409 473 474 
f 410 475 411 
f 410 474 475 
f 411 476 412 
f 411 475 476 
f 412 477 413 
f 412 476 477 
f 413 478 414 
f 413 477 478 
f 414 479 415 
f 414 478 479 
f 415 480 416 
f 415 479 480 
f 416 481 417 
f 416 480 481 
f 417 482 418 
f 417 481 482 
f 418 483 419 
f 418 482 483 
f 419 484 420 
f 419 483 484 
f 420 485 421 
f 420 484 485 
f 421 486 422 
f 421 485 486 
f 422 487 423 
f 422 486 487 
f 423 488 424 
f 423 487 488 
f 424 489 425 
f 424 488 489 
f 425 490 426 
f 425 489 490 
f 426 491 427 
f 426 490 491 
f 427 492 428 
f 427 491 492 
f 428 493 429 
f 428 492 493 
f 429 494 430 
f 429 493 494 
f 430 495 431 
f 430 494 495 
f 431 496 432 
f 431 495 496 
f 432 497 433 
f 432 496 497 
f 433 498 434 
f 433 497 498 
f 434 499 435 
f 434 498 499 
f 435 500 436 
f 435 499 500 
f 436 501 437 
f 436 500 501 
f 437 502 438 
f 437 501 502 
f 438 503 439 
f 438 502 503 
f 439 504 440 
f 439 503 504 
f 440 505 441 
f 440 504 505 
f 441 506 442 
f 441 505 506 
f 442 507 443 
f 442 506 507 
f 443 508 444 
f 443 507 508 
f 444 509 445 
f 444 508 509 
f 445 510 446 
f 445 509 510 
f 446 511 447 
f 446 510 511 
f 447 512 448 
f 447 511 512 
f 448 449 385 
f 448 512 449 
f 449 514 450 
f 449 513 514 
f 450 515 451 
f 450 514 515 
f 451 516 452 
f 451 515 516 
f 452 517 453 
f 452 516 517 
f 453 518 454 
f 453 517 518 
f 454 519 455 
f 454 518 519 
f 455 520 456 
f 455 519 520 
f 456 521 457 
f 456 520 521 
f 457 522 458 
f 457 521 522 
f 458 523 459 
f 458 522 523 
f 459 524 460 
f 459 523 524 
f 460 525 461 
f 460 524 525 
f 461 526 462 
f 461 525 526 
f 462 527 463 
f 462 526 527 
f 463 528 464 
f 463 527 528 
f 464 529 465 
f 464 528 529 
f 465 530 466 
f 465 529 530 
f 466 531 467 
f 466 530 531 
f 467 532 468 
f 467 531 532 
f 468 533 469 
f 468 532 533 
f 469 534 470 
f 469 533 534 
f 470 535 471 
f 470 534 535 
f 471 536 472 
f 471 535 536 
f 472 537 473 
f 472 536 537 
f 473 538 474 
f 473 537 538 
f 474 539 475 
f 474 538 539 
f 475 540 476 
f 475 539 540 
f 476 541 477 
f 476 540 541 
f 477 542 478 
f 477 541 542 
f 478 543 479 
f 478 542 543 
f 479 544 480 
f 479 543 544 
f 480 545 481 
f 480 544 545 
f 481 546 482 
f 481 545 546 
f 482 547 483 
f 482 546 547 
f 483 548 484 
f 483 547 548 
f 484 549 485 
f 484 548 549 
f 485 550 486 
f 485 549 550 
f 486 551 487 
f 486 550 551 
f 487 552 488 
f 487 551 552 
f 488 553 489 
f 488 552 553 
f 489 554 490 
f 489 553 554 
f 490 555 491 
f 490 554 555 
f 491 556 492 
f 491 555 556 
f 492 557 493 
f 492 556 557 
f 493 558 494 
f 493 557 558 
f 494 559 495 
f 494 558 559 
f 495 560 496 
f 495 559 560 
f 496 561 497 
f 496 560 561 
f 497 562 498 
f 497 561 562 
f 498 563 499 
f 498 562 563 
f 499 564 500 
f 499 563 564 
f 500 565 501 
f 500 564 565 
f 501 566 502 
f 501 565 566 
f 502 567 503 
f 502 566 567 
f 503 568 504 
f 503 567 568 
f 504 569 505 
f 504 568 569 
f 505 570 506 
f 505 569 570 
f 506 571 507 
f 506 570 571 
f 507 572 508 
f 507 571 572 
f 508 573 509 
f 508 572 573 
f 509 574 510 
f 509 573 574 
f 510 575 511 
f 510 574 575 
f 511 576 512 
f 511 575 576 
f 512 513 449 
f 512 576 513 
f 513 578 514 
f 513 577 578 
f 514 579 515 
f 514 578 579 
f 515 580 516 
f 515 579 580 
f 516 581 517 
f 516 580 581 
f 517 582 518 
f 517 581 582 
f 518 583 519 
f 518 582 583 
f 519 584 520 
f 519 583 584 
f 520 585 521 
f 520 584 585 
f 521 586 522 
f 521 585 586 
f 522 587 523 
f 522 586 587 
f 523 588 524 
f 523 587 588 
f 524 589 525 
f 524 588 589 
f 525 590 526 
f 525 589 590 
f 526 591 527 
f 526 590 591 
f 527 592 528 
f 527 591 592 
f 528 593 529 
f 528 592 593 
f 529 594 530 
f 529 593 594 
f 530 595 531 
f 530 594 595 
f 531 596 532 
f 531 595 596 
f 532 597 533 
f 532 596 597 
f 533 598 534 
f 533 597 598 
f 534 599 535 
f 534 598 599 
f 535 600 536 
f 535 599 600 
f 536 601 537 
f 536 600 601 
f 537 602 538 
f 537 601 602 
f 538 603 539 
f 538 602 603 
f 539 604 540 
f 539 603 604 
f 540 605 541 
f 540 604 605 
f 541 606 542 
f 541 605 606 
f 542 607 543 
f 542 606 607 
f 543 608 544 
f 543 607 608 
f 544 609 545 
f 544 608 609 
f 545 610 546 
f 545 609 610 
f 546 611 547 
f 546 610 611 
f 547 612 548 
f 547 611 612 
f 548 613 549 
f 548 612 613 
f 549 614 550 
f 549 613 614 
f 550 615 551 
f 550 614 615 
f 551 616 552 
f 551 615 616 
f 552 617 553 
f 552 616 617 
f 553 618 554 
f 553 617 618 
f 554 619 555 
f 554 618 619 
f 555 620 556 
f 555 619 620 
f 556 621 557 
f 556 620 621 
f 557 622 558 
f 557 621 622 
f 558 623 559 
f 558 622 623 
f 559 624 560 
f 559 623 624 
f 560 625 561 
f 560 624 625 
f 561 626 562 
f 561 625 626 
f 562 627 563 
f 562 626 627 
f 563 628 564 
f 563 627 628 
f 564 629 565 
f 564 628 629 
f 565 630 566 
f 565 629 630 
f 566 631 567 
f 566 630 631 
f 567 632 568 
f 567 631 632 
f 568 633 569 
f 568 632 633 
f 569 634 570 
f 569 633 634 
f 570 635 571 
f 570 634 635 
f 571 636 572 
f 571 635 636 
f 572 637 573 
f 572 636 637 
f 573 638 574 
f 573 637 638 
f 574 639 575 
f 574 638 639 
f 575 640 576 
f 575 639 640 
f 576 577 513 
f 576 640 577 
