# Branch
v -12.172 -8.51716 -27.5794
vn -0.732483 -0.370081 0.57141
v -12.1809 -8.49952 -27.581
vn -0.776411 -0.282705 0.563262
v -12.1883 -8.48133 -27.5838
vn -0.812862 -0.192607 0.549688
v -12.194 -8.46277 -27.5876
vn -0.841485 -0.100655 0.530821
v -12.1982 -8.44401 -27.5924
vn -0.862004 -0.00773252 0.506842
v -12.2006 -8.42524 -27.5983
vn -0.874222 0.0852641 0.477982
v -12.2014 -8.40663 -27.605
vn -0.87802 0.17744 0.444518
v -12.2005 -8.38837 -27.6126
vn -0.873362 0.267906 0.406774
v -12.1978 -8.37062 -27.621
vn -0.860293 0.355793 0.365112
v -12.1935 -8.35357 -27.6302
vn -0.83894 0.440253 0.319934
v -12.1876 -8.33738 -27.6399
vn -0.809507 0.520473 0.271675
v -12.1801 -8.3222 -27.6502
vn -0.772277 0.595681 0.220799
v -12.171 -8.30817 -27.6609
vn -0.727611 0.665152 0.167797
v -12.1606 -8.29544 -27.6719
vn -0.675937 0.728217 0.113179
v -12.1489 -8.28413 -27.6832
vn -0.617753 0.784269 0.0574709
v -12.1359 -8.27434 -27.6945
vn -0.553621 0.832768 0.00120936
v -12.1219 -8.26616 -27.7059
vn -0.484156 0.873247 -0.0550638
v -12.1069 -8.25969 -27.7171
vn -0.410029 0.905317 -0.110807
v -12.0912 -8.25498 -27.7282
vn -0.331953 0.928667 -0.165482
v -12.0748 -8.25207 -27.7389
vn -0.25068 0.943074 -0.218564
v -12.0579 -8.25099 -27.7492
vn -0.166993 0.948399 -0.269542
v -12.0406 -8.25176 -27.7589
vn -0.0816976 0.94459 -0.317923
v -12.0233 -8.25437 -27.7681
vn 0.00438453 0.931684 -0.363242
v -12.0059 -8.25878 -27.7765
vn 0.0904244 0.909806 -0.405064
v -11.9887 -8.26497 -27.7842
vn 0.175593 0.879166 -0.442984
v -11.9719 -8.27286 -27.791
vn 0.259071 0.840058 -0.476638
v -11.9555 -8.28239 -27.7968
vn 0.340054 0.792861 -0.505702
v -11.9398 -8.29346 -27.8017
vn 0.417762 0.738028 -0.529896
v -11.9249 -8.30597 -27.8056
vn 0.491447 0.676087 -0.548986
v -11.911 -8.31978 -27.8084
vn 0.560399 0.607635 -0.56279
v -11.8982 -8.33478 -27.8101
vn 0.623954 0.533332 -0.571173
v -11.8866 -8.35082 -27.8106
vn 0.6815 0.453892 -0.574056
v -11.8763 -8.36774 -27.8101
vn 0.732483 0.370081 -0.57141
v -11.8674 -8.38538 -27.8085
vn 0.776411 0.282705 -0.563262
v -11.8601 -8.40357 -27.8057
vn 0.812862 0.192607 -0.549688
v -11.8543 -8.42213 -27.8019
vn 0.841485 0.100655 -0.530821
v -11.8501 -8.44089 -27.7971
vn 0.862004 0.00773252 -0.506842
v -11.8477 -8.45966 -27.7912
vn 0.874222 -0.0852641 -0.477982
v -11.8469 -8.47827 -27.7845
vn 0.87802 -0.17744 -0.444518
v -11.8479 -8.49653 -27.7769
vn 0.873362 -0.267906 -0.406774
v -11.8505 -8.51427 -27.7685
vn 0.860293 -0.355793 -0.365112
v -11.8548 -8.53132 -27.7593
vn 0.83894 -0.440253 -0.319934
v -11.8607 -8.54752 -27.7496
vn 0.809507 -0.520473 -0.271675
v -11.8683 -8.5627 -27.7393
vn 0.772277 -0.595681 -0.220799
v -11.8773 -8.57672 -27.7286
vn 0.727611 -0.665152 -0.167797
v -11.8877 -8.58946 -27.7176
vn 0.675937 -0.728217 -0.113179
v -11.8995 -8.60077 -27.7064
vn 0.617753 -0.784269 -0.0574709
v -11.9124 -8.61056 -27.695
vn 0.553621 -0.832768 -0.00120936
v -11.9264 -8.61873 -27.6836
vn 0.484156 -0.873247 0.0550638
v -11.9414 -8.62521 -27.6724
vn 0.410029 -0.905317 0.110807
v -11.9571 -8.62992 -27.6613
vn 0.331953 -0.928667 0.165482
v -11.9736 -8.63283 -27.6506
vn 0.25068 -0.943074 0.218564
v -11.9904 -8.6339 -27.6403
vn 0.166993 -0.948399 0.269542
v -12.0077 -8.63313 -27.6306
vn 0.0816976 -0.94459 0.317923
v -12.025 -8.63053 -27.6214
vn -0.00438453 -0.931684 0.363242
v -12.0424 -8.62611 -27.613
vn -0.0904244 -0.909806 0.405064
v -12.0596 -8.61993 -27.6053
vn -0.175593 -0.879166 0.442984
v -12.0765 -8.61203 -27.5985
vn -0.259071 -0.840058 0.476638
v -12.0928 -8.6025 -27.5927
vn -0.340054 -0.792861 0.505702
v -12.1085 -8.59144 -27.5878
vn -0.417762 -0.738028 0.529896
v -12.1234 -8.57893 -27.5839
vn -0.491447 -0.676087 0.548986
v -12.1373 -8.56511 -27.5811
vn -0.560399 -0.607635 0.56279
v -12.1501 -8.55011 -27.5794
vn -0.623954 -0.533332 0.571173
v -12.1617 -8.53408 -27.5789
vn -0.6815 -0.453892 0.574056
v -10.8796 -7.66719 -25.4634
vn -0.706835 -0.353247 0.612863
v -10.8889 -7.64884 -25.4651
vn -0.750887 -0.265953 0.604514
v -10.8967 -7.62994 -25.4681
vn -0.787708 -0.176097 0.590344
v -10.9028 -7.61069 -25.4723
vn -0.816942 -0.0845459 0.570489
v -10.9073 -7.59127 -25.4776
vn -0.838309 0.00781965 0.545139
v -10.9101 -7.57186 -25.484
vn -0.851603 0.10011 0.51454
v -10.9112 -7.55265 -25.4915
vn -0.856695 0.191436 0.478985
v -10.9105 -7.53384 -25.5
vn -0.853536 0.280919 0.438817
v -10.9081 -7.51559 -25.5093
vn -0.842158 0.367696 0.394423
v -10.904 -7.49809 -25.5194
vn -0.822669 0.450932 0.346231
v -10.8982 -7.4815 -25.5303
vn -0.795258 0.529825 0.294704
v -10.8909 -7.46598 -25.5417
vn -0.760187 0.603616 0.240339
v -10.8819 -7.45169 -25.5536
vn -0.717796 0.671594 0.18366
v -10.8716 -7.43875 -25.5659
vn -0.668492 0.733103 0.125212
v -10.8599 -7.4273 -25.5785
vn -0.61275 0.787553 0.0655578
v -10.8469 -7.41745 -25.5911
vn -0.551107 0.834418 0.0052724
v -10.8328 -7.40928 -25.6038
vn -0.484156 0.873247 -0.0550638
v -10.8178 -7.40289 -25.6164
vn -0.412543 0.903667 -0.11487
v -10.8019 -7.39832 -25.6287
vn -0.336956 0.925383 -0.173569
v -10.7853 -7.39563 -25.6407
vn -0.258125 0.938188 -0.230597
v -10.7682 -7.39483 -25.6523
vn -0.176808 0.941957 -0.285405
v -10.7507 -7.39595 -25.6632
vn -0.0937876 0.936655 -0.337463
v -10.7331 -7.39896 -25.6735
vn -0.00986438 0.922332 -0.386272
v -10.7154 -7.40384 -25.6829
vn 0.0741539 0.899127 -0.431361
v -10.6979 -7.41054 -25.6916
vn 0.157458 0.867262 -0.472295
v -10.6807 -7.419 -25.6992
vn 0.239246 0.827046 -0.508681
v -10.664 -7.42913 -25.7058
vn 0.318729 0.778864 -0.540168
v -10.6479 -7.44084 -25.7114
vn 0.395143 0.723182 -0.566453
v -10.6326 -7.45401 -25.7157
vn 0.467752 0.660535 -0.587283
v -10.6183 -7.46852 -25.7189
vn 0.535856 0.591527 -0.602457
v -10.6051 -7.48423 -25.7209
vn 0.598799 0.516822 -0.611829
v -10.5931 -7.50099 -25.7216
vn 0.655976 0.437139 -0.615309
v -10.5824 -7.51863 -25.7211
vn 0.706835 0.353247 -0.612863
v -10.5731 -7.53698 -25.7194
vn 0.750887 0.265953 -0.604514
v -10.5654 -7.55588 -25.7164
vn 0.787708 0.176097 -0.590344
v -10.5592 -7.57513 -25.7122
vn 0.816942 0.0845459 -0.570489
v -10.5547 -7.59455 -25.7069
vn 0.838309 -0.00781965 -0.545139
v -10.5519 -7.61396 -25.7004
vn 0.851603 -0.10011 -0.51454
v -10.5509 -7.63317 -25.693
vn 0.856695 -0.191436 -0.478985
v -10.5515 -7.65198 -25.6845
vn 0.853536 -0.280919 -0.438817
v -10.5539 -7.67023 -25.6752
vn 0.842158 -0.367696 -0.394423
v -10.558 -7.68773 -25.665
vn 0.822669 -0.450932 -0.346231
v -10.5638 -7.70432 -25.6542
vn 0.795258 -0.529825 -0.294704
v -10.5712 -7.71984 -25.6428
vn 0.760187 -0.603616 -0.240339
v -10.5801 -7.73413 -25.6309
vn 0.717796 -0.671594 -0.18366
v -10.5904 -7.74707 -25.6186
vn 0.668492 -0.733103 -0.125212
v -10.6022 -7.75852 -25.606
vn 0.61275 -0.787553 -0.0655578
v -10.6151 -7.76837 -25.5934
vn 0.551107 -0.834418 -0.0052724
v -10.6292 -7.77654 -25.5807
vn 0.484156 -0.873247 0.0550638
v -10.6443 -7.78294 -25.5681
vn 0.412543 -0.903667 0.11487
v -10.6602 -7.7875 -25.5557
vn 0.336956 -0.925383 0.173569
v -10.6767 -7.79019 -25.5438
vn 0.258125 -0.938188 0.230597
v -10.6938 -7.79099 -25.5322
vn 0.176808 -0.941957 0.285405
v -10.7113 -7.78987 -25.5213
vn 0.0937876 -0.936655 0.337463
v -10.7289 -7.78686 -25.511
vn 0.00986438 -0.922332 0.386272
v -10.7466 -7.78198 -25.5015
vn -0.0741539 -0.899127 0.431361
v -10.7641 -7.77528 -25.4929
vn -0.157458 -0.867262 0.472295
v -10.7813 -7.76682 -25.4853
vn -0.239246 -0.827046 0.508681
v -10.798 -7.75669 -25.4787
vn -0.318729 -0.778864 0.540168
v -10.8141 -7.74498 -25.4731
vn -0.395143 -0.723182 0.566453
v -10.8294 -7.73181 -25.4687
vn -0.467752 -0.660535 0.587283
v -10.8437 -7.7173 -25.4656
vn -0.535856 -0.591527 0.602457
v -10.8569 -7.70159 -25.4636
vn -0.598799 -0.516822 0.611829
v -10.8689 -7.68483 -25.4629
vn -0.655976 -0.437139 0.615309
v -9.75954 -6.94534 -23.8644
vn -0.66164 -0.324201 0.676111
v -9.76922 -6.92628 -23.8663
vn -0.705909 -0.237047 0.667459
v -9.77741 -6.90672 -23.8696
vn -0.743381 -0.147609 0.652378
v -9.78404 -6.88685 -23.8742
vn -0.773693 -0.0567506 0.631014
v -9.78904 -6.86686 -23.8802
vn -0.796554 0.0346547 0.603574
v -9.79236 -6.84694 -23.8875
vn -0.811744 0.125726 0.57032
v -9.79397 -6.82729 -23.896
vn -0.819116 0.215587 0.531574
v -9.79386 -6.80809 -23.9056
vn -0.8186 0.303372 0.487709
v -9.79202 -6.78954 -23.9162
vn -0.8102 0.388234 0.439147
v -9.78848 -6.77179 -23.9277
vn -0.793997 0.469358 0.386356
v -9.78327 -6.75504 -23.9401
vn -0.770148 0.545962 0.329844
v -9.77643 -6.73944 -23.9531
vn -0.738882 0.617308 0.270155
v -9.76803 -6.72514 -23.9668
vn -0.7005 0.682709 0.207864
v -9.75817 -6.71227 -23.9808
vn -0.655372 0.741535 0.143572
v -9.74692 -6.70097 -23.9952
vn -0.603933 0.79322 0.0778971
v -9.73439 -6.69134 -24.0097
vn -0.546677 0.837265 0.0114719
v -9.72072 -6.68347 -24.0243
vn -0.484156 0.873247 -0.0550638
v -9.70603 -6.67744 -24.0387
vn -0.416973 0.90082 -0.121069
v -9.69046 -6.6733 -24.0529
vn -0.345774 0.919717 -0.185909
v -9.67416 -6.67111 -24.0667
vn -0.271245 0.929756 -0.248958
v -9.65729 -6.67087 -24.0799
vn -0.194103 0.930842 -0.309609
v -9.64001 -6.67259 -24.0925
vn -0.115093 0.922963 -0.367279
v -9.62249 -6.67626 -24.1044
vn -0.0349737 0.906195 -0.421411
v -9.60489 -6.68184 -24.1153
vn 0.0454821 0.8807 -0.471485
v -9.58739 -6.68927 -24.1253
vn 0.1255 0.846724 -0.517019
v -9.57016 -6.69848 -24.1342
vn 0.204309 0.804593 -0.557573
v -9.55335 -6.70939 -24.1419
vn 0.281151 0.754713 -0.592758
v -9.53714 -6.72189 -24.1483
vn 0.355285 0.697566 -0.622234
v -9.52168 -6.73585 -24.1534
vn 0.425997 0.6337 -0.645718
v -9.50711 -6.75116 -24.1572
vn 0.492607 0.563731 -0.662982
v -9.49358 -6.76765 -24.1596
vn 0.554472 0.488334 -0.673863
v -9.48122 -6.78516 -24.1606
vn 0.610998 0.408233 -0.678253
v -9.47014 -6.80354 -24.1601
vn 0.66164 0.324201 -0.676111
v -9.46046 -6.8226 -24.1582
vn 0.705909 0.237047 -0.667459
v -9.45227 -6.84216 -24.1549
vn 0.743381 0.147609 -0.652378
v -9.44564 -6.86203 -24.1502
vn 0.773693 0.0567506 -0.631014
v -9.44064 -6.88202 -24.1442
vn 0.796554 -0.0346547 -0.603574
v -9.43732 -6.90194 -24.1369
vn 0.811744 -0.125726 -0.57032
v -9.43571 -6.92159 -24.1285
vn 0.819116 -0.215587 -0.531574
v -9.43582 -6.94079 -24.1189
vn 0.8186 -0.303372 -0.487709
v -9.43766 -6.95934 -24.1083
vn 0.8102 -0.388234 -0.439147
v -9.4412 -6.97709 -24.0967
vn 0.793997 -0.469358 -0.386356
v -9.44641 -6.99384 -24.0844
vn 0.770148 -0.545962 -0.329844
v -9.45325 -7.00944 -24.0713
vn 0.738882 -0.617308 -0.270155
v -9.46165 -7.02374 -24.0577
vn 0.7005 -0.682709 -0.207864
v -9.47151 -7.03661 -24.0436
vn 0.655372 -0.741535 -0.143572
v -9.48276 -7.04791 -24.0293
vn 0.603933 -0.79322 -0.0778971
v -9.49529 -7.05754 -24.0147
vn 0.546677 -0.837265 -0.0114719
v -9.50896 -7.06541 -24.0002
vn 0.484156 -0.873247 0.0550638
v -9.52365 -7.07144 -23.9857
vn 0.416973 -0.90082 0.121069
v -9.53922 -7.07558 -23.9716
vn 0.345774 -0.919717 0.185909
v -9.55552 -7.07777 -23.9578
vn 0.271245 -0.929756 0.248958
v -9.57239 -7.07801 -23.9445
vn 0.194103 -0.930842 0.309609
v -9.58967 -7.07629 -23.9319
vn 0.115093 -0.922963 0.367279
v -9.60719 -7.07262 -23.9201
vn 0.0349737 -0.906195 0.421411
v -9.62479 -7.06704 -23.9091
vn -0.0454821 -0.8807 0.471485
v -9.64229 -7.05961 -23.8992
vn -0.1255 -0.846724 0.517019
v -9.65952 -7.0504 -23.8903
vn -0.204309 -0.804593 0.557573
v -9.67633 -7.03949 -23.8826
vn -0.281151 -0.754713 0.592758
v -9.69254 -7.02699 -23.8761
vn -0.355285 -0.697566 0.622234
v -9.708 -7.01303 -23.871
vn -0.425997 -0.6337 0.645718
v -9.72257 -6.99772 -23.8672
vn -0.492607 -0.563731 0.662982
v -9.7361 -6.98124 -23.8649
vn -0.554472 -0.488334 0.673863
v -9.74846 -6.96372 -23.8639
vn -0.610998 -0.408233 0.678253
v -8.80445 -6.34728 -22.7776
vn -0.567129 -0.265267 0.779742
v -8.8146 -6.32755 -22.7797
vn -0.611854 -0.178396 0.770591
v -8.82342 -6.30743 -22.7835
vn -0.650686 -0.0898075 0.754017
v -8.83082 -6.28712 -22.7889
vn -0.683252 -0.000353998 0.730183
v -8.83672 -6.2668 -22.7959
vn -0.709237 0.0891029 0.699316
v -8.84107 -6.24668 -22.8044
vn -0.728393 0.177702 0.661715
v -8.84383 -6.22695 -22.8144
vn -0.740533 0.264589 0.61774
v -8.84496 -6.2078 -22.8257
vn -0.745542 0.348928 0.567817
v -8.84447 -6.18941 -22.8383
vn -0.743371 0.429907 0.512425
v -8.84235 -6.17196 -22.852
vn -0.734041 0.506746 0.452098
v -8.83863 -6.15561 -22.8667
vn -0.717641 0.578704 0.387418
v -8.83333 -6.14054 -22.8823
vn -0.69433 0.64509 0.319006
v -8.82652 -6.12687 -22.8985
vn -0.664333 0.705262 0.247522
v -8.81826 -6.11475 -22.9153
vn -0.627937 0.758643 0.173655
v -8.80862 -6.10429 -22.9324
vn -0.585494 0.804717 0.0981145
v -8.7977 -6.09558 -22.9498
vn -0.537413 0.843042 0.0216295
v -8.7856 -6.08872 -22.9672
vn -0.484156 0.873247 -0.0550638
v -8.77245 -6.08377 -22.9845
vn -0.426236 0.895043 -0.131227
v -8.75836 -6.08078 -23.0015
vn -0.364212 0.908219 -0.206126
v -8.74348 -6.07977 -23.0181
vn -0.29868 0.912648 -0.27904
v -8.72794 -6.08076 -23.034
vn -0.230271 0.908289 -0.349267
v -8.7119 -6.08374 -23.0492
vn -0.159645 0.895181 -0.41613
v -8.69552 -6.08867 -23.0635
vn -0.087481 0.873453 -0.478986
v -8.67894 -6.09552 -23.0767
vn -0.0144748 0.843313 -0.537228
v -8.66232 -6.10421 -23.0888
vn 0.0586708 0.805051 -0.590297
v -8.64584 -6.11466 -23.0995
vn 0.131251 0.759036 -0.637681
v -8.62964 -6.12677 -23.1089
vn 0.202568 0.705711 -0.678924
v -8.61389 -6.14042 -23.1168
vn 0.271934 0.64559 -0.713628
v -8.59873 -6.15549 -23.1231
vn 0.33868 0.579252 -0.74146
v -8.58432 -6.17182 -23.1278
vn 0.402166 0.507335 -0.762151
v -8.57078 -6.18926 -23.1308
vn 0.461778 0.430532 -0.775502
v -8.55825 -6.20765 -23.1322
vn 0.516943 0.349582 -0.781385
v -8.54685 -6.2268 -23.1318
vn 0.567129 0.265267 -0.779742
v -8.53669 -6.24652 -23.1297
vn 0.611854 0.178396 -0.770591
v -8.52788 -6.26664 -23.1259
vn 0.650686 0.0898075 -0.754017
v -8.52048 -6.28696 -23.1205
vn 0.683252 0.000353998 -0.730183
v -8.51458 -6.30727 -23.1135
vn 0.709237 -0.0891029 -0.699316
v -8.51023 -6.3274 -23.105
vn 0.728393 -0.177702 -0.661715
v -8.50747 -6.34713 -23.095
vn 0.740533 -0.264589 -0.61774
v -8.50633 -6.36628 -23.0837
vn 0.745542 -0.348928 -0.567817
v -8.50683 -6.38467 -23.0711
vn 0.743371 -0.429907 -0.512425
v -8.50895 -6.40212 -23.0574
vn 0.734041 -0.506746 -0.452098
v -8.51267 -6.41846 -23.0427
vn 0.717641 -0.578704 -0.387418
v -8.51796 -6.43354 -23.0271
vn 0.69433 -0.64509 -0.319006
v -8.52478 -6.44721 -23.0109
vn 0.664333 -0.705262 -0.247522
v -8.53304 -6.45933 -22.9941
vn 0.627937 -0.758643 -0.173655
v -8.54268 -6.46979 -22.977
vn 0.585494 -0.804717 -0.0981145
v -8.5536 -6.4785 -22.9596
vn 0.537413 -0.843042 -0.0216295
v -8.5657 -6.48536 -22.9422
vn 0.484156 -0.873247 0.0550638
v -8.57885 -6.49031 -22.9249
vn 0.426236 -0.895043 0.131227
v -8.59293 -6.4933 -22.9079
vn 0.364212 -0.908219 0.206126
v -8.60782 -6.4943 -22.8913
vn 0.29868 -0.912648 0.27904
v -8.62335 -6.49331 -22.8754
vn 0.230271 -0.908289 0.349267
v -8.63939 -6.49034 -22.8602
vn 0.159645 -0.895181 0.41613
v -8.65578 -6.4854 -22.8459
vn 0.087481 -0.873453 0.478986
v -8.67236 -6.47856 -22.8327
vn 0.0144748 -0.843313 0.537228
v -8.68897 -6.46987 -22.8206
vn -0.0586708 -0.805051 0.590297
v -8.70546 -6.45942 -22.8099
vn -0.131251 -0.759036 0.637681
v -8.72165 -6.44731 -22.8005
vn -0.202568 -0.705711 0.678924
v -8.73741 -6.43365 -22.7926
vn -0.271934 -0.64559 0.713628
v -8.75256 -6.41859 -22.7863
vn -0.33868 -0.579252 0.74146
v -8.76698 -6.40226 -22.7816
vn -0.402166 -0.507335 0.762151
v -8.78052 -6.38481 -22.7786
vn -0.461778 -0.430532 0.775502
v -8.79305 -6.36643 -22.7772
vn -0.516943 -0.349582 0.781385
v -7.98778 -5.85794 -22.1979
vn -0.315657 -0.115624 0.941802
v -7.9986 -5.83765 -22.2002
vn -0.361593 -0.0294736 0.93187
v -8.00859 -5.81729 -22.2047
vn -0.404046 0.0569602 0.912964
v -8.01768 -5.79706 -22.2112
vn -0.442608 0.142845 0.885265
v -8.02575 -5.77716 -22.2197
vn -0.476907 0.227355 0.84904
v -8.03275 -5.75777 -22.2302
vn -0.506614 0.309675 0.804639
v -8.0386 -5.73909 -22.2424
vn -0.531442 0.389013 0.752488
v -8.04324 -5.72129 -22.2564
vn -0.551151 0.464604 0.693091
v -8.04663 -5.70454 -22.272
vn -0.565553 0.535721 0.627019
v -8.04874 -5.689 -22.289
vn -0.574508 0.601679 0.554908
v -8.04955 -5.67483 -22.3072
vn -0.577931 0.661842 0.477454
v -8.04904 -5.66217 -22.3265
vn -0.575787 0.715631 0.395401
v -8.04723 -5.65112 -22.3468
vn -0.568099 0.762528 0.30954
v -8.04413 -5.64181 -22.3677
vn -0.554939 0.802082 0.220698
v -8.03977 -5.63431 -22.3891
vn -0.536435 0.833911 0.129731
v -8.0342 -5.6287 -22.4108
vn -0.512764 0.857709 0.0375141
v -8.02746 -5.62504 -22.4326
vn -0.484156 0.873247 -0.0550638
v -8.01963 -5.62337 -22.4543
vn -0.450885 0.880376 -0.147111
v -8.01077 -5.62368 -22.4757
vn -0.413271 0.879025 -0.237742
v -8.00097 -5.626 -22.4965
vn -0.371678 0.869209 -0.326084
v -7.99033 -5.63028 -22.5165
vn -0.326505 0.851023 -0.411284
v -7.97895 -5.63649 -22.5357
vn -0.278188 0.82464 -0.492525
v -7.96694 -5.64458 -22.5537
vn -0.227191 0.790316 -0.569021
v -7.95442 -5.65445 -22.5704
vn -0.174007 0.74838 -0.640038
v -7.9415 -5.66603 -22.5857
vn -0.119147 0.699237 -0.704891
v -7.92831 -5.67919 -22.5994
vn -0.0631392 0.643361 -0.762955
v -7.91497 -5.69381 -22.6113
vn -0.00652348 0.581288 -0.813672
v -7.90162 -5.70974 -22.6214
vn 0.050155 0.513617 -0.856552
v -7.88839 -5.72685 -22.6296
vn 0.106351 0.441 -0.891184
v -7.87539 -5.74495 -22.6357
vn 0.161522 0.364135 -0.917233
v -7.86277 -5.76388 -22.6397
vn 0.215138 0.283764 -0.934448
v -7.85063 -5.78345 -22.6417
vn 0.266681 0.20066 -0.942665
v -7.83909 -5.80348 -22.6415
vn 0.315657 0.115624 -0.941802
v -7.82828 -5.82377 -22.6391
vn 0.361593 0.0294736 -0.93187
v -7.81828 -5.84412 -22.6347
vn 0.404046 -0.0569602 -0.912964
v -7.80919 -5.86435 -22.6282
vn 0.442608 -0.142845 -0.885265
v -7.80112 -5.88425 -22.6196
vn 0.476907 -0.227355 -0.84904
v -7.79412 -5.90364 -22.6092
vn 0.506614 -0.309675 -0.804639
v -7.78827 -5.92232 -22.5969
vn 0.531442 -0.389013 -0.752488
v -7.78363 -5.94013 -22.5829
vn 0.551151 -0.464604 -0.693091
v -7.78024 -5.95688 -22.5673
vn 0.565553 -0.535721 -0.627019
v -7.77813 -5.97241 -22.5504
vn 0.574508 -0.601679 -0.554908
v -7.77732 -5.98658 -22.5321
vn 0.577931 -0.661842 -0.477454
v -7.77783 -5.99925 -22.5128
vn 0.575787 -0.715631 -0.395401
v -7.77964 -6.01029 -22.4926
vn 0.568099 -0.762528 -0.30954
v -7.78274 -6.01961 -22.4716
vn 0.554939 -0.802082 -0.220698
v -7.7871 -6.0271 -22.4502
vn 0.536435 -0.833911 -0.129731
v -7.79267 -6.03271 -22.4285
vn 0.512764 -0.857709 -0.0375141
v -7.79941 -6.03637 -22.4067
vn 0.484156 -0.873247 0.0550638
v -7.80725 -6.03805 -22.385
vn 0.450885 -0.880376 0.147111
v -7.8161 -6.03773 -22.3637
vn 0.413271 -0.879025 0.237742
v -7.8259 -6.03542 -22.3429
vn 0.371678 -0.869209 0.326084
v -7.83654 -6.03113 -22.3228
vn 0.326505 -0.851023 0.411284
v -7.84792 -6.02492 -22.3037
vn 0.278188 -0.82464 0.492525
v -7.85993 -6.01684 -22.2857
vn 0.227191 -0.790316 0.569021
v -7.87245 -6.00696 -22.2689
vn 0.174007 -0.74838 0.640038
v -7.88537 -5.99539 -22.2537
vn 0.119147 -0.699237 0.704891
v -7.89857 -5.98223 -22.24
vn 0.0631392 -0.643361 0.762955
v -7.9119 -5.96761 -22.228
vn 0.00652348 -0.581288 0.813672
v -7.92525 -5.95167 -22.2179
vn -0.050155 -0.513617 0.856552
v -7.93848 -5.93457 -22.2098
vn -0.106351 -0.441 0.891184
v -7.95148 -5.91647 -22.2036
vn -0.161522 -0.364135 0.917233
v -7.9641 -5.89754 -22.1996
vn -0.215138 -0.283764 0.934448
v -7.97624 -5.87796 -22.1977
vn -0.266681 -0.20066 0.942665
v -7.2475 -5.44667 -22.1846
vn 0.330833 0.240957 0.912408
v -7.25947 -5.42607 -22.187
vn 0.281784 0.32539 0.902618
v -7.27209 -5.40624 -22.1915
vn 0.230022 0.40669 0.884134
v -7.28526 -5.38737 -22.1981
vn 0.176044 0.484072 0.857136
v -7.29884 -5.36963 -22.2067
vn 0.120371 0.556793 0.821883
v -7.3127 -5.3532 -22.2172
vn 0.0635392 0.624151 0.778715
v -7.32671 -5.33823 -22.2295
vn 0.00609503 0.685499 0.728048
v -7.34074 -5.32488 -22.2436
vn -0.0514078 0.740245 0.670369
v -7.35465 -5.31326 -22.2593
vn -0.108416 0.787862 0.606234
v -7.3683 -5.3035 -22.2763
vn -0.164379 0.827891 0.536261
v -7.38156 -5.29568 -22.2946
vn -0.21876 0.859947 0.461123
v -7.39431 -5.28988 -22.3141
vn -0.271034 0.883722 0.381544
v -7.40643 -5.28616 -22.3344
vn -0.320697 0.898986 0.298291
v -7.41779 -5.28455 -22.3554
vn -0.367273 0.905592 0.212165
v -7.42829 -5.28506 -22.3769
vn -0.410311 0.903477 0.123996
v -7.43782 -5.2877 -22.3987
vn -0.449397 0.89266 0.034633
v -7.4463 -5.29244 -22.4206
vn -0.484156 0.873247 -0.0550638
v -7.45364 -5.29922 -22.4423
vn -0.514252 0.845424 -0.14423
v -7.45977 -5.308 -22.4637
vn -0.539395 0.80946 -0.232008
v -7.46464 -5.31867 -22.4846
vn -0.559344 0.765699 -0.317551
v -7.46819 -5.33114 -22.5047
vn -0.573906 0.714565 -0.400036
v -7.47039 -5.34529 -22.5239
vn -0.582941 0.656549 -0.478668
v -7.47123 -5.36099 -22.5419
vn -0.586362 0.59221 -0.552691
v -7.47069 -5.37807 -22.5587
vn -0.584136 0.522168 -0.621391
v -7.46877 -5.39639 -22.574
vn -0.576284 0.447096 -0.684106
v -7.4655 -5.41575 -22.5877
vn -0.562883 0.36772 -0.740233
v -7.46091 -5.43597 -22.5996
vn -0.54406 0.284801 -0.789232
v -7.45504 -5.45687 -22.6097
vn -0.519998 0.19914 -0.830629
v -7.44795 -5.47823 -22.6179
vn -0.490928 0.111562 -0.864027
v -7.43971 -5.49986 -22.624
vn -0.457131 0.0229084 -0.889104
v -7.43039 -5.52153 -22.628
vn -0.41893 -0.0659655 -0.905619
v -7.42009 -5.54306 -22.6299
vn -0.376696 -0.154204 -0.913412
v -7.4089 -5.56422 -22.6297
vn -0.330833 -0.240957 -0.912408
v -7.39693 -5.58481 -22.6273
vn -0.281784 -0.32539 -0.902618
v -7.38431 -5.60464 -22.6228
vn -0.230022 -0.40669 -0.884134
v -7.37114 -5.62352 -22.6162
vn -0.176044 -0.484072 -0.857136
v -7.35756 -5.64126 -22.6076
vn -0.120371 -0.556793 -0.821883
v -7.3437 -5.65769 -22.5971
vn -0.0635392 -0.624151 -0.778715
v -7.32969 -5.67265 -22.5847
vn -0.00609503 -0.685499 -0.728048
v -7.31566 -5.68601 -22.5706
vn 0.0514078 -0.740245 -0.670369
v -7.30175 -5.69762 -22.555
vn 0.108416 -0.787862 -0.606234
v -7.2881 -5.70739 -22.5379
vn 0.164379 -0.827891 -0.536261
v -7.27484 -5.71521 -22.5196
vn 0.21876 -0.859947 -0.461123
v -7.26209 -5.721 -22.5002
vn 0.271034 -0.883722 -0.381544
v -7.24997 -5.72473 -22.4799
vn 0.320697 -0.898986 -0.298291
v -7.23861 -5.72634 -22.4589
vn 0.367273 -0.905592 -0.212165
v -7.22812 -5.72582 -22.4374
vn 0.410311 -0.903477 -0.123996
v -7.21858 -5.72319 -22.4156
vn 0.449397 -0.89266 -0.034633
v -7.2101 -5.71845 -22.3937
vn 0.484156 -0.873247 0.0550638
v -7.20276 -5.71166 -22.3719
vn 0.514252 -0.845424 0.14423
v -7.19663 -5.70289 -22.3505
vn 0.539395 -0.80946 0.232008
v -7.19176 -5.69222 -22.3297
vn 0.559344 -0.765699 0.317551
v -7.18821 -5.67974 -22.3096
vn 0.573906 -0.714565 0.400036
v -7.18601 -5.66559 -22.2904
vn 0.582941 -0.656549 0.478668
v -7.18517 -5.6499 -22.2723
vn 0.586362 -0.59221 0.552691
v -7.18572 -5.63281 -22.2556
vn 0.584136 -0.522168 0.621391
v -7.18763 -5.6145 -22.2403
vn 0.576284 -0.447096 0.684106
v -7.1909 -5.59514 -22.2266
vn 0.562883 -0.36772 0.740233
v -7.19549 -5.57491 -22.2146
vn 0.54406 -0.284801 0.789232
v -7.20136 -5.55402 -22.2045
vn 0.519998 -0.19914 0.830629
v -7.20845 -5.53266 -22.1964
vn 0.490928 -0.111562 0.864027
v -7.21669 -5.51103 -22.1903
vn 0.457131 -0.0229084 0.889104
v -7.22601 -5.48935 -22.1862
vn 0.41893 0.0659655 0.905619
v -7.23631 -5.46783 -22.1843
vn 0.376696 0.154204 0.913412
v -6.72089 -5.19445 -22.8151
vn 0.788857 0.462861 0.404308
v -6.73382 -5.17342 -22.8169
vn 0.737602 0.546226 0.396964
v -6.74855 -5.15371 -22.8197
vn 0.679245 0.62433 0.385797
v -6.76492 -5.13552 -22.8235
vn 0.614346 0.696421 0.370914
v -6.78279 -5.11902 -22.8281
vn 0.54353 0.761805 0.35246
v -6.80198 -5.10437 -22.8337
vn 0.46748 0.819853 0.330611
v -6.82231 -5.09172 -22.84
vn 0.386928 0.870005 0.305578
v -6.84357 -5.08117 -22.847
vn 0.302649 0.911779 0.277602
v -6.86558 -5.07285 -22.8548
vn 0.215456 0.944771 0.246953
v -6.8881 -5.06682 -22.8631
vn 0.126188 0.968665 0.213925
v -6.91093 -5.06314 -22.872
vn 0.0357042 0.983231 0.178838
v -6.93385 -5.06186 -22.8812
vn -0.0551231 0.988327 0.142027
v -6.95664 -5.06297 -22.8909
vn -0.145419 0.983905 0.10385
v -6.97907 -5.06648 -22.9008
vn -0.234315 0.970007 0.0646716
v -7.00093 -5.07235 -22.9108
vn -0.320955 0.946768 0.0248708
v -7.02201 -5.08051 -22.9209
vn -0.404503 0.914411 -0.0151695
v -7.04211 -5.0909 -22.931
vn -0.484156 0.873247 -0.0550638
v -7.06104 -5.10341 -22.9409
vn -0.559146 0.823674 -0.0944277
v -7.0786 -5.11792 -22.9506
vn -0.628751 0.766168 -0.132882
v -7.09464 -5.13429 -22.96
vn -0.692301 0.701284 -0.170057
v -7.10899 -5.15237 -22.969
vn -0.749184 0.629646 -0.205594
v -7.12152 -5.17197 -22.9774
vn -0.798852 0.551944 -0.239151
v -7.13211 -5.19292 -22.9853
vn -0.840826 0.468927 -0.270405
v -7.14066 -5.21501 -22.9925
vn -0.874703 0.381393 -0.299055
v -7.14708 -5.23802 -22.999
vn -0.900156 0.290187 -0.324825
v -7.15132 -5.26174 -23.0048
vn -0.91694 0.196186 -0.347466
v -7.15333 -5.28594 -23.0096
vn -0.924893 0.100295 -0.366761
v -7.15309 -5.31038 -23.0136
vn -0.923939 0.00343879 -0.382525
v -7.1506 -5.33483 -23.0167
vn -0.914087 -0.0934507 -0.394604
v -7.14589 -5.35905 -23.0187
vn -0.895432 -0.18944 -0.402883
v -7.13901 -5.38281 -23.0199
vn -0.868153 -0.283605 -0.407282
v -7.13002 -5.40588 -23.02
vn -0.832514 -0.375039 -0.407758
v -7.119 -5.42804 -23.0191
vn -0.788857 -0.462861 -0.404308
v -7.10607 -5.44908 -23.0173
vn -0.737602 -0.546226 -0.396964
v -7.09134 -5.46879 -23.0144
vn -0.679245 -0.62433 -0.385797
v -7.07496 -5.48698 -23.0107
vn -0.614346 -0.696421 -0.370914
v -7.05709 -5.50348 -23.006
vn -0.54353 -0.761805 -0.35246
v -7.0379 -5.51813 -23.0005
vn -0.46748 -0.819853 -0.330611
v -7.01758 -5.53078 -22.9942
vn -0.386928 -0.870005 -0.305578
v -6.99631 -5.54132 -22.9871
vn -0.302649 -0.911779 -0.277602
v -6.97431 -5.54965 -22.9794
vn -0.215456 -0.944771 -0.246953
v -6.95178 -5.55568 -22.9711
vn -0.126188 -0.968665 -0.213925
v -6.92895 -5.55935 -22.9622
vn -0.0357042 -0.983231 -0.178838
v -6.90603 -5.56064 -22.9529
vn 0.0551231 -0.988327 -0.142027
v -6.88325 -5.55952 -22.9433
vn 0.145419 -0.983905 -0.10385
v -6.86082 -5.55602 -22.9334
vn 0.234315 -0.970007 -0.0646716
v -6.83895 -5.55015 -22.9234
vn 0.320955 -0.946768 -0.0248708
v -6.81787 -5.54199 -22.9133
vn 0.404503 -0.914411 0.0151695
v -6.79777 -5.5316 -22.9032
vn 0.484156 -0.873247 0.0550638
v -6.77885 -5.51909 -22.8933
vn 0.559146 -0.823674 0.0944277
v -6.76129 -5.50458 -22.8836
vn 0.628751 -0.766168 0.132882
v -6.74525 -5.48821 -22.8742
vn 0.692301 -0.701284 0.170057
v -6.7309 -5.47013 -22.8652
vn 0.749184 -0.629646 0.205594
v -6.71836 -5.45052 -22.8567
vn 0.798852 -0.551944 0.239151
v -6.70777 -5.42958 -22.8489
vn 0.840826 -0.468927 0.270405
v -6.69922 -5.40749 -22.8416
vn 0.874703 -0.381393 0.299055
v -6.6928 -5.38447 -22.8351
vn 0.900156 -0.290187 0.324825
v -6.68857 -5.36075 -22.8294
vn 0.91694 -0.196186 0.347466
v -6.68656 -5.33656 -22.8245
vn 0.924893 -0.100295 0.366761
v -6.6868 -5.31212 -22.8206
vn 0.923939 -0.00343879 0.382525
v -6.68929 -5.28767 -22.8175
vn 0.914087 0.0934507 0.394604
v -6.69399 -5.26345 -22.8154
vn 0.895432 0.18944 0.402883
v -6.70088 -5.23968 -22.8143
vn 0.868153 0.283605 0.407282
v -6.70987 -5.21661 -22.8142
vn 0.832514 0.375039 0.407758
v -6.46232 -5.12107 -23.9248
vn 0.868077 0.487274 0.0949056
v -6.47578 -5.09936 -23.9263
vn 0.816441 0.570521 0.0890514
v -6.49129 -5.07909 -23.9281
vn 0.756943 0.648273 0.0823396
v -6.50871 -5.06044 -23.93
vn 0.690155 0.719782 0.0748348
v -6.52786 -5.0436 -23.9322
vn 0.61672 0.784359 0.0666094
v -6.54855 -5.02874 -23.9345
vn 0.537346 0.841383 0.0577424
v -6.5706 -5.01598 -23.9369
vn 0.452797 0.890303 0.0483193
v -6.59378 -5.00546 -23.9395
vn 0.363887 0.93065 0.0384309
v -6.61788 -4.99728 -23.9422
vn 0.271473 0.962034 0.0281724
v -6.64266 -4.99151 -23.9449
vn 0.176444 0.984152 0.0176426
v -6.66788 -4.98821 -23.9477
vn 0.0797166 0.996793 0.00694287
v -6.6933 -4.98742 -23.9505
vn -0.0177789 0.999835 -0.00382373
v -6.71868 -4.98914 -23.9533
vn -0.115103 0.993247 -0.0145535
v -6.74376 -4.99335 -23.9561
vn -0.211319 0.977094 -0.0251431
v -6.76832 -5.00001 -23.9588
vn -0.3055 0.951531 -0.0354906
v -6.79211 -5.00907 -23.9614
vn -0.396738 0.916804 -0.0454963
v -6.81491 -5.02043 -23.9639
vn -0.484156 0.873247 -0.0550638
v -6.83648 -5.03398 -23.9662
vn -0.566911 0.821281 -0.064101
v -6.85664 -5.04959 -23.9684
vn -0.644206 0.761406 -0.0725209
v -6.87518 -5.06711 -23.9705
vn -0.715298 0.694198 -0.0802424
v -6.89192 -5.08638 -23.9723
vn -0.7795 0.620304 -0.0871911
v -6.9067 -5.10721 -23.9739
vn -0.836196 0.540436 -0.0933001
v -6.91938 -5.12939 -23.9752
vn -0.884839 0.455364 -0.0985106
v -6.92984 -5.15271 -23.9763
vn -0.92496 0.365906 -0.102772
v -6.93798 -5.17696 -23.9772
vn -0.956173 0.272925 -0.106044
v -6.94372 -5.20189 -23.9778
vn -0.978178 0.177315 -0.108295
v -6.947 -5.22726 -23.9781
vn -0.990762 0.079997 -0.109503
v -6.94779 -5.25284 -23.9781
vn -0.993805 -0.018091 -0.109656
v -6.94609 -5.27837 -23.9779
vn -0.987277 -0.116005 -0.108753
v -6.94191 -5.30361 -23.9774
vn -0.971241 -0.212801 -0.106803
v -6.93529 -5.32831 -23.9766
vn -0.945851 -0.307549 -0.103824
v -6.9263 -5.35225 -23.9756
vn -0.911352 -0.399334 -0.0998458
v -6.91501 -5.37518 -23.9743
vn -0.868077 -0.487274 -0.0949056
v -6.90155 -5.39688 -23.9728
vn -0.816441 -0.570521 -0.0890514
v -6.88603 -5.41716 -23.971
vn -0.756943 -0.648273 -0.0823396
v -6.86862 -5.4358 -23.969
vn -0.690155 -0.719782 -0.0748348
v -6.84947 -5.45264 -23.9669
vn -0.61672 -0.784359 -0.0666094
v -6.82878 -5.46751 -23.9646
vn -0.537346 -0.841383 -0.0577424
v -6.80673 -5.48027 -23.9621
vn -0.452797 -0.890303 -0.0483193
v -6.78355 -5.49079 -23.9596
vn -0.363887 -0.93065 -0.0384309
v -6.75945 -5.49897 -23.9569
vn -0.271473 -0.962034 -0.0281724
v -6.73467 -5.50474 -23.9541
vn -0.176444 -0.984152 -0.0176426
v -6.70945 -5.50803 -23.9513
vn -0.0797166 -0.996793 -0.00694287
v -6.68403 -5.50883 -23.9485
vn 0.0177789 -0.999835 0.00382373
v -6.65865 -5.50711 -23.9457
vn 0.115103 -0.993247 0.0145535
v -6.63356 -5.5029 -23.943
vn 0.211319 -0.977094 0.0251431
v -6.60901 -5.49623 -23.9403
vn 0.3055 -0.951531 0.0354906
v -6.58522 -5.48718 -23.9377
vn 0.396738 -0.916804 0.0454963
v -6.56242 -5.47582 -23.9352
vn 0.484156 -0.873247 0.0550638
v -6.54084 -5.46227 -23.9328
vn 0.566911 -0.821281 0.064101
v -6.52069 -5.44666 -23.9306
vn 0.644206 -0.761406 0.0725209
v -6.50215 -5.42913 -23.9286
vn 0.715298 -0.694198 0.0802424
v -6.48541 -5.40986 -23.9268
vn 0.7795 -0.620304 0.0871911
v -6.47063 -5.38904 -23.9252
vn 0.836196 -0.540436 0.0933001
v -6.45795 -5.36686 -23.9238
vn 0.884839 -0.455364 0.0985106
v -6.44748 -5.34353 -23.9227
vn 0.92496 -0.365906 0.102772
v -6.43935 -5.31929 -23.9219
vn 0.956173 -0.272925 0.106044
v -6.43361 -5.29436 -23.9213
vn 0.978178 -0.177315 0.108295
v -6.43033 -5.26898 -23.921
vn 0.990762 -0.079997 0.109503
v -6.42953 -5.24341 -23.9209
vn 0.993805 0.018091 0.109656
v -6.43124 -5.21787 -23.9212
vn 0.987277 0.116005 0.108753
v -6.43542 -5.19264 -23.9217
vn 0.971241 0.212801 0.106803
v -6.44204 -5.16793 -23.9225
vn 0.945851 0.307549 0.103824
v -6.45103 -5.144 -23.9235
vn 0.911352 0.399334 0.0998458
v -6.39891 -5.1864 -25.5184
vn 0.87478 0.481735 -0.0518712
v -6.41282 -5.16399 -25.5198
vn 0.823112 0.565009 -0.0570187
v -6.42886 -5.14304 -25.5211
vn 0.763518 0.642841 -0.061617
v -6.44688 -5.12376 -25.5221
vn 0.69657 0.714482 -0.0656219
v -6.4667 -5.10633 -25.523
vn 0.622913 0.779243 -0.0689948
v -6.48814 -5.09092 -25.5238
vn 0.543258 0.836498 -0.0717032
v -6.51099 -5.07767 -25.5243
vn 0.458371 0.885698 -0.0737212
v -6.53503 -5.06673 -25.5247
vn 0.369069 0.926369 -0.0750291
v -6.56002 -5.05818 -25.5248
vn 0.276213 0.958117 -0.0756145
v -6.58573 -5.05212 -25.5248
vn 0.180697 0.980639 -0.0754716
v -6.6119 -5.0486 -25.5246
vn 0.0834409 0.993716 -0.074602
v -6.6383 -5.04766 -25.5241
vn -0.0146189 0.997224 -0.0730139
v -6.66465 -5.0493 -25.5235
vn -0.112538 0.991127 -0.0707226
v -6.69072 -5.05351 -25.5227
vn -0.209373 0.975486 -0.0677502
v -6.71624 -5.06025 -25.5217
vn -0.304192 0.95045 -0.0641253
v -6.74097 -5.06945 -25.5206
vn -0.396081 0.916261 -0.0598829
v -6.76468 -5.08103 -25.5193
vn -0.484156 0.873247 -0.0550638
v -6.78713 -5.09487 -25.5179
vn -0.567568 0.821824 -0.0497144
v -6.80811 -5.11084 -25.5163
vn -0.645514 0.762486 -0.0438862
v -6.82741 -5.12878 -25.5146
vn -0.717244 0.695805 -0.0376353
v -6.84486 -5.14854 -25.5128
vn -0.782066 0.622423 -0.031022
v -6.86028 -5.1699 -25.511
vn -0.839356 0.543047 -0.02411
v -6.87353 -5.19267 -25.509
vn -0.888563 0.458441 -0.0169657
v -6.88447 -5.21663 -25.5071
vn -0.929212 0.36942 -0.00965811
v -6.893 -5.24155 -25.5051
vn -0.960913 0.276841 -0.00225746
v -6.89904 -5.26719 -25.5031
vn -0.98336 0.181596 0.00516492
v -6.90253 -5.29329 -25.5011
vn -0.996336 0.0846021 0.0125376
v -6.90344 -5.31962 -25.4991
vn -0.999717 -0.0132065 0.0197895
v -6.90176 -5.34591 -25.4972
vn -0.99347 -0.110888 0.0268508
v -6.89751 -5.37192 -25.4954
vn -0.977656 -0.207501 0.0336535
v -6.89072 -5.39738 -25.4937
vn -0.952426 -0.302117 0.0401321
v -6.88146 -5.42207 -25.492
vn -0.918024 -0.393822 0.0462243
v -6.86982 -5.44573 -25.4905
vn -0.87478 -0.481735 0.0518712
v -6.85591 -5.46814 -25.4891
vn -0.823112 -0.565009 0.0570187
v -6.83987 -5.48909 -25.4879
vn -0.763518 -0.642841 0.061617
v -6.82185 -5.50837 -25.4868
vn -0.69657 -0.714482 0.0656219
v -6.80202 -5.5258 -25.4859
vn -0.622913 -0.779243 0.0689948
v -6.78058 -5.54121 -25.4852
vn -0.543258 -0.836498 0.0717032
v -6.75774 -5.55446 -25.4846
vn -0.458371 -0.885698 0.0737212
v -6.7337 -5.5654 -25.4843
vn -0.369069 -0.926369 0.0750291
v -6.70871 -5.57395 -25.4841
vn -0.276213 -0.958117 0.0756145
v -6.683 -5.58001 -25.4842
vn -0.180697 -0.980639 0.0754716
v -6.65682 -5.58353 -25.4844
vn -0.0834409 -0.993716 0.074602
v -6.63043 -5.58447 -25.4848
vn 0.0146189 -0.997224 0.0730139
v -6.60407 -5.58283 -25.4854
vn 0.112538 -0.991127 0.0707226
v -6.57801 -5.57862 -25.4862
vn 0.209373 -0.975486 0.0677502
v -6.55249 -5.57189 -25.4872
vn 0.304192 -0.95045 0.0641253
v -6.52776 -5.56268 -25.4884
vn 0.396081 -0.916261 0.0598829
v -6.50405 -5.55111 -25.4897
vn 0.484156 -0.873247 0.0550638
v -6.4816 -5.53726 -25.4911
vn 0.567568 -0.821824 0.0497144
v -6.46062 -5.52129 -25.4927
vn 0.645514 -0.762486 0.0438862
v -6.44131 -5.50335 -25.4943
vn 0.717244 -0.695805 0.0376353
v -6.42387 -5.48359 -25.4961
vn 0.782066 -0.622423 0.031022
v -6.40845 -5.46223 -25.498
vn 0.839356 -0.543047 0.02411
v -6.3952 -5.43946 -25.4999
vn 0.888563 -0.458441 0.0169657
v -6.38426 -5.4155 -25.5019
vn 0.929212 -0.36942 0.00965811
v -6.37573 -5.39058 -25.5039
vn 0.960913 -0.276841 0.00225746
v -6.36969 -5.36494 -25.5059
vn 0.98336 -0.181596 -0.00516492
v -6.36619 -5.33884 -25.5078
vn 0.996336 -0.0846021 -0.0125376
v -6.36528 -5.31251 -25.5098
vn 0.999717 0.0132065 -0.0197895
v -6.36696 -5.28622 -25.5117
vn 0.99347 0.110888 -0.0268508
v -6.37122 -5.26022 -25.5135
vn 0.977656 0.207501 -0.0336535
v -6.37801 -5.23475 -25.5153
vn 0.952426 0.302117 -0.0401321
v -6.38727 -5.21007 -25.5169
vn 0.918024 0.393822 -0.0462243
v -6.51544 -5.38344 -27.6186
vn 0.870406 0.474243 -0.132237
v -6.52978 -5.36032 -27.6199
vn 0.81876 0.557552 -0.136997
v -6.5463 -5.33869 -27.6209
vn 0.759228 0.635492 -0.140438
v -6.56486 -5.31875 -27.6215
vn 0.692384 0.707312 -0.142527
v -6.58526 -5.30071 -27.6217
vn 0.618872 0.77232 -0.143243
v -6.60732 -5.28473 -27.6215
vn 0.5394 0.829891 -0.142579
v -6.63082 -5.27097 -27.6209
vn 0.454734 0.879469 -0.140543
v -6.65554 -5.25956 -27.62
vn 0.365688 0.920577 -0.137152
v -6.68123 -5.25061 -27.6187
vn 0.27312 0.952819 -0.132441
v -6.70766 -5.2442 -27.617
vn 0.177922 0.975886 -0.126455
v -6.73455 -5.24041 -27.615
vn 0.0810109 0.989554 -0.119251
v -6.76167 -5.23926 -27.6127
vn -0.0166807 0.993692 -0.110898
v -6.78874 -5.24077 -27.6101
vn -0.114212 0.98826 -0.101477
v -6.81551 -5.24492 -27.6072
vn -0.210643 0.973311 -0.0910791
v -6.84171 -5.25167 -27.6041
vn -0.305045 0.948988 -0.0798039
v -6.8671 -5.26096 -27.6007
vn -0.39651 0.915526 -0.0677601
v -6.89143 -5.27269 -27.5972
vn -0.484156 0.873247 -0.0550638
v -6.91446 -5.28676 -27.5935
vn -0.567139 0.822559 -0.0418372
v -6.93598 -5.30303 -27.5897
vn -0.644661 0.763948 -0.0282076
v -6.95577 -5.32134 -27.5859
vn -0.715974 0.69798 -0.0143065
v -6.97365 -5.34152 -27.582
vn -0.780392 0.625291 -0.000267493
v -6.98945 -5.36336 -27.5781
vn -0.837294 0.546579 0.013774
v -7.003 -5.38667 -27.5742
vn -0.886133 0.462604 0.0276829
v -7.01419 -5.41122 -27.5704
vn -0.926438 0.374173 0.0413252
v -7.0229 -5.43676 -27.5668
vn -0.95782 0.282139 0.0545695
v -7.02905 -5.46306 -27.5632
vn -0.979979 0.187388 0.0672883
v -7.03258 -5.48987 -27.5599
vn -0.992699 0.090832 0.079359
v -7.03346 -5.51691 -27.5567
vn -0.99586 -0.00659864 0.0906655
v -7.03167 -5.54393 -27.5538
vn -0.989429 -0.103966 0.101099
v -7.02724 -5.57068 -27.5512
vn -0.97347 -0.200332 0.110558
v -7.02021 -5.5969 -27.5489
vn -0.948136 -0.294768 0.118953
v -7.01065 -5.62232 -27.5469
vn -0.913671 -0.386366 0.126203
v -6.99864 -5.64671 -27.5452
vn -0.870406 -0.474243 0.132237
v -6.9843 -5.66984 -27.5439
vn -0.81876 -0.557552 0.136997
v -6.96778 -5.69147 -27.5429
vn -0.759228 -0.635492 0.140438
v -6.94922 -5.7114 -27.5423
vn -0.692384 -0.707312 0.142527
v -6.92882 -5.72945 -27.5422
vn -0.618872 -0.77232 0.143243
v -6.90676 -5.74543 -27.5423
vn -0.5394 -0.829891 0.142579
v -6.88326 -5.75919 -27.5429
vn -0.454734 -0.879469 0.140543
v -6.85854 -5.7706 -27.5438
vn -0.365688 -0.920577 0.137152
v -6.83285 -5.77955 -27.5451
vn -0.27312 -0.952819 0.132441
v -6.80643 -5.78595 -27.5468
vn -0.177922 -0.975886 0.126455
v -6.77953 -5.78974 -27.5488
vn -0.0810109 -0.989554 0.119251
v -6.75241 -5.79089 -27.5511
vn 0.0166807 -0.993692 0.110898
v -6.72534 -5.78939 -27.5537
vn 0.114212 -0.98826 0.101477
v -6.69857 -5.78524 -27.5566
vn 0.210643 -0.973311 0.0910791
v -6.67237 -5.77849 -27.5598
vn 0.305045 -0.948988 0.0798039
v -6.64698 -5.7692 -27.5631
vn 0.39651 -0.915526 0.0677601
v -6.62266 -5.75746 -27.5666
vn 0.484156 -0.873247 0.0550638
v -6.59962 -5.74339 -27.5703
vn 0.567139 -0.822559 0.0418372
v -6.5781 -5.72712 -27.5741
vn 0.644661 -0.763948 0.0282076
v -6.55831 -5.70881 -27.5779
vn 0.715974 -0.69798 0.0143065
v -6.54043 -5.68864 -27.5818
vn 0.780392 -0.625291 0.000267493
v -6.52464 -5.66679 -27.5857
vn 0.837294 -0.546579 -0.013774
v -6.51108 -5.64348 -27.5896
vn 0.886133 -0.462604 -0.0276829
v -6.49989 -5.61894 -27.5934
vn 0.926438 -0.374173 -0.0413252
v -6.49118 -5.59339 -27.5971
vn 0.95782 -0.282139 -0.0545695
v -6.48503 -5.56709 -27.6006
vn 0.979979 -0.187388 -0.0672883
v -6.4815 -5.54029 -27.6039
vn 0.992699 -0.090832 -0.079359
v -6.48062 -5.51325 -27.6071
vn 0.99586 0.00659864 -0.0906655
v -6.48241 -5.48622 -27.61
vn 0.989429 0.103966 -0.101099
v -6.48684 -5.45947 -27.6126
vn 0.97347 0.200332 -0.110558
v -6.49387 -5.43326 -27.6149
vn 0.948136 0.294768 -0.118953
v -6.50344 -5.40783 -27.6169
vn 0.913671 0.386366 -0.126203
f 1 66 2 
f 1 65 66 
f 2 67 3 
f 2 66 67 
f 3 68 4 
f 3 67 68 
f 4 69 5 
f 4 68 69 
f 5 70 6 
f 5 69 70 
f 6 71 7 
f 6 70 71 
f 7 72 8 
f 7 71 72 
f 8 73 9 
f 8 72 73 
f 9 74 10 
f 9 73 74 
f 10 75 11 
f 10 74 75 
f 11 76 12 
f 11 75 76 
f 12 77 13 
f 12 76 77 
f 13 78 14 
f 13 77 78 
f 14 79 15 
f 14 78 79 
f 15 80 16 
f 15 79 80 
f 16 81 17 
f 16 80 81 
f 17 82 18 
f 17 81 82 
f 18 83 19 
f 18 82 83 
f 19 84 20 
f 19 83 84 
f 20 85 21 
f 20 84 85 
f 21 86 22 
f 21 85 86 
f 22 87 23 
f 22 86 87 
f 23 88 24 
f 23 87 88 
f 24 89 25 
f 24 88 89 
f 25 90 26 
f 25 89 90 
f 26 91 27 
f 26 90 91 
f 27 92 28 
f 27 91 92 
f 28 93 29 
f 28 92 93 
f 29 94 30 
f 29 93 94 
f 30 95 31 
f 30 94 95 
f 31 96 32 
f 31 95 96 
f 32 97 33 
f 32 96 97 
f 33 98 34 
f 33 97 98 
f 34 99 35 
f 34 98 99 
f 35 100 36 
f 35 99 100 
f 36 101 37 
f 36 100 101 
f 37 102 38 
f 37 101 102 
f 38 103 39 
f 38 102 103 
f 39 104 40 
f 39 103 104 
f 40 105 41 
f 40 104 105 
f 41 106 42 
f 41 105 106 
f 42 107 43 
f 42 106 107 
f 43 108 44 
f 43 107 108 
f 44 109 45 
f 44 108 109 
f 45 110 46 
f 45 109 110 
f 46 111 47 
f 46 110 111 
f 47 112 48 
f 47 111 112 
f 48 113 49 
f 48 112 113 
f 49 114 50 
f 49 113 114 
f 50 115 51 
f 50 114 115 
f 51 116 52 
f 51 115 116 
f 52 117 53 
f 52 116 117 
f 53 118 54 
f 53 117 118 
f 54 119 55 
f 54 118 119 
f 55 120 56 
f 55 119 120 
f 56 121 57 
f 56 120 121 
f 57 122 58 
f 57 121 122 
f 58 123 59 
f 58 122 123 
f 59 124 60 
f 59 123 124 
f 60 125 61 
f 60 124 125 
f 61 126 62 
f 61 125 126 
f 62 127 63 
f 62 126 127 
f 63 128 64 
f 63 127 128 
f 64 65 1 
f 64 128 65 
f 65 130 66 
f 65 129 130 
f 66 131 67 
f 66 130 131 
f 67 132 68 
f 67 131 132 
f 68 133 69 
f 68 132 133 
f 69 134 70 
f 69 133 134 
f 70 135 71 
f 70 134 135 
f 71 136 72 
f 71 135 136 
f 72 137 73 
f 72 136 137 
f 73 138 74 
f 73 137 138 
f 74 139 75 
f 74 138 139 
f 75 140 76 
f 75 139 140 
f 76 141 77 
f 76 140 141 
f 77 142 78 
f 77 141 142 
f 78 143 79 
f 78 142 143 
f 79 144 80 
f 79 143 144 
f 80 145 81 
f 80 144 145 
f 81 146 82 
f 81 145 146 
f 82 147 83 
f 82 146 147 
f 83 148 84 
f 83 147 148 
f 84 149 85 
f 84 148 149 
f 85 150 86 
f 85 149 150 
f 86 151 87 
f 86 150 151 
f 87 152 88 
f 87 151 152 
f 88 153 89 
f 88 152 153 
f 89 154 90 
f 89 153 154 
f 90 155 91 
f 90 154 155 
f 91 156 92 
f 91 155 156 
f 92 157 93 
f 92 156 157 
f 93 158 94 
f 93 157 158 
f 94 159 95 
f 94 158 159 
f 95 160 96 
f 95 159 160 
f 96 161 97 
f 96 160 161 
f 97 162 98 
f 97 161 162 
f 98 163 99 
f 98 162 163 
f 99 164 100 
f 99 163 164 
f 100 165 101 
f 100 164 165 
f 101 166 102 
f 101 165 166 
f 102 167 103 
f 102 166 167 
f 103 168 104 
f 103 167 168 
f 104 169 105 
f 104 168 169 
f 105 170 106 
f 105 169 170 
f 106 171 107 
f 106 170 171 
f 107 172 108 
f 107 171 172 
f 108 173 109 
f 108 172 173 
f 109 174 110 
f 109 173 174 
f 110 175 111 
f 110 174 175 
f 111 176 112 
f 111 175 176 
f 112 177 113 
f 112 176 177 
f 113 178 114 
f 113 177 178 
f 114 179 115 
f 114 178 179 
f 115 180 116 
f 115 179 180 
f 116 181 117 
f 116 180 181 
f 117 182 118 
f 117 181 182 
f 118 183 119 
f 118 182 183 
f 119 184 120 
f 119 183 184 
f 120 185 121 
f 120 184 185 
f 121 186 122 
f 121 185 186 
f 122 187 123 
f 122 186 187 
f 123 188 124 
f 123 187 188 
f 124 189 125 
f 124 188 189 
f 125 190 126 
f 125 189 190 
f 126 191 127 
f 126 190 191 
f 127 192 128 
f 127 191 192 
f 128 129 65 
f 128 192 129 
f 129 194 130 
f 129 193 194 
f 130 195 131 
f 130 194 195 
f 131 196 132 
f 131 195 196 
f 132 197 133 
f 132 196 197 
f 133 198 134 
f 133 197 198 
f 134 199 135 
f 134 198 199 
f 135 200 136 
f 135 199 200 
f 136 201 137 
f 136 200 201 
f 137 202 138 
f 137 201 202 
f 138 203 139 
f 138 202 203 
f 139 204 140 
f 139 203 204 
f 140 205 141 
f 140 204 205 
f 141 206 142 
f 141 205 206 
f 142 207 143 
f 142 206 207 
f 143 208 144 
f 143 207 208 
f 144 209 145 
f 144 208 209 
f 145 210 146 
f 145 209 210 
f 146 211 147 
f 146 210 211 
f 147 212 148 
f 147 211 212 
f 148 213 149 
f 148 212 213 
f 149 214 150 
f 149 213 214 
f 150 215 151 
f 150 214 215 
f 151 216 152 
f 151 215 216 
f 152 217 153 
f 152 216 217 
f 153 218 154 
f 153 217 218 
f 154 219 155 
f 154 218 219 
f 155 220 156 
f 155 219 220 
f 156 221 157 
f 156 220 221 
f 157 222 158 
f 157 221 222 
f 158 223 159 
f 158 222 223 
f 159 224 160 
f 159 223 224 
f 160 225 161 
f 160 224 225 
f 161 226 162 
f 161 225 226 
f 162 227 163 
f 162 226 227 
f 163 228 164 
f 163 227 228 
f 164 229 165 
f 164 228 229 
f 165 230 166 
f 165 229 230 
f 166 231 167 
f 166 230 231 
f 167 232 168 
f 167 231 232 
f 168 233 169 
f 168 232 233 
f 169 234 170 
f 169 233 234 
f 170 235 171 
f 170 234 235 
f 171 236 172 
f 171 235 236 
f 172 237 173 
f 172 236 237 
f 173 238 174 
f 173 237 238 
f 174 239 175 
f 174 238 239 
f 175 240 176 
f 175 239 240 
f 176 241 177 
f 176 240 241 
f 177 242 178 
f 177 241 242 
f 178 243 179 
f 178 242 243 
f 179 244 180 
f 179 243 244 
f 180 245 181 
f 180 244 245 
f 181 246 182 
f 181 245 246 
f 182 247 183 
f 182 246 247 
f 183 248 184 
f 183 247 248 
f 184 249 185 
f 184 248 249 
f 185 250 186 
f 185 249 250 
f 186 251 187 
f 186 250 251 
f 187 252 188 
f 187 251 252 
f 188 253 189 
f 188 252 253 
f 189 254 190 
f 189 253 254 
f 190 255 191 
f 190 254 255 
f 191 256 192 
f 191 255 256 
f 192 193 129 
f 192 256 193 
f 193 258 194 
f 193 257 258 
f 194 259 195 
f 194 258 259 
f 195 260 196 
f 195 259 260 
f 196 261 197 
f 196 260 261 
f 197 262 198 
f 197 261 262 
f 198 263 199 
f 198 262 263 
f 199 264 200 
f 199 263 264 
f 200 265 201 
f 200 264 265 
f 201 266 202 
f 201 265 266 
f 202 267 203 
f 202 266 267 
f 203 268 204 
f 203 267 268 
f 204 269 205 
f 204 268 269 
f 205 270 206 
f 205 269 270 
f 206 271 207 
f 206 270 271 
f 207 272 208 
f 207 271 272 
f 208 273 209 
f 208 272 273 
f 209 274 210 
f 209 273 274 
f 210 275 211 
f 210 274 275 
f 211 276 212 
f 211 275 276 
f 212 277 213 
f 212 276 277 
f 213 278 214 
f 213 277 278 
f 214 279 215 
f 214 278 279 
f 215 280 216 
f 215 279 280 
f 216 281 217 
f 216 280 281 
f 217 282 218 
f 217 281 282 
f 218 283 219 
f 218 282 283 
f 219 284 220 
f 219 283 284 
f 220 285 221 
f 220 284 285 
f 221 286 222 
f 221 285 286 
f 222 287 223 
f 222 286 287 
f 223 288 224 
f 223 287 288 
f 224 289 225 
f 224 288 289 
f 225 290 226 
f 225 289 290 
f 226 291 227 
f 226 290 291 
f 227 292 228 
f 227 291 292 
f 228 293 229 
f 228 292 293 
f 229 294 230 
f 229 293 294 
f 230 295 231 
f 230 294 295 
f 231 296 232 
f 231 295 296 
f 232 297 233 
f 232 296 297 
f 233 298 234 
f 233 297 298 
f 234 299 235 
f 234 298 299 
f 235 300 236 
f 235 299 300 
f 236 301 237 
f 236 300 301 
f 237 302 238 
f 237 301 302 
f 238 303 239 
f 238 302 303 
f 239 304 240 
f 239 303 304 
f 240 305 241 
f 240 304 305 
f 241 306 242 
f 241 305 306 
f 242 307 243 
f 242 306 307 
f 243 308 244 
f 243 307 308 
f 244 309 245 
f 244 308 309 
f 245 310 246 
f 245 309 310 
f 246 311 247 
f 246 310 311 
f 247 312 248 
f 247 311 312 
f 248 313 249 
f 248 312 313 
f 249 314 250 
f 249 313 314 
f 250 315 251 
f 250 314 315 
f 251 316 252 
f 251 315 316 
f 252 317 253 
f 252 316 317 
f 253 318 254 
f 253 317 318 
f 254 319 255 
f 254 318 319 
f 255 320 256 
f 255 319 320 
f 256 257 193 
f 256 320 257 
f 257 322 258 
f 257 321 322 
f 258 323 259 
f 258 322 323 
f 259 324 260 
f 259 323 324 
f 260 325 261 
f 260 324 325 
f 261 326 262 
f 261 325 326 
f 262 327 263 
f 262 326 327 
f 263 328 264 
f 263 327 328 
f 264 329 265 
f 264 328 329 
f 265 330 266 
f 265 329 330 
f 266 331 267 
f 266 330 331 
f 267 332 268 
f 267 331 332 
f 268 333 269 
f 268 332 333 
f 269 334 270 
f 269 333 334 
f 270 335 271 
f 270 334 335 
f 271 336 272 
f 271 335 336 
f 272 337 273 
f 272 336 337 
f 273 338 274 
f 273 337 338 
f 274 339 275 
f 274 338 339 
f 275 340 276 
f 275 339 340 
f 276 341 277 
f 276 340 341 
f 277 342 278 
f 277 341 342 
f 278 343 279 
f 278 342 343 
f 279 344 280 
f 279 343 344 
f 280 345 281 
f 280 344 345 
f 281 346 282 
f 281 345 346 
f 282 347 283 
f 282 346 347 
f 283 348 284 
f 283 347 348 
f 284 349 285 
f 284 348 349 
f 285 350 286 
f 285 349 350 
f 286 351 287 
f 286 350 351 
f 287 352 288 
f 287 351 352 
f 288 353 289 
f 288 352 353 
f 289 354 290 
f 289 353 354 
f 290 355 291 
f 290 354 355 
f 291 356 292 
f 291 355 356 
f 292 357 293 
f 292 356 357 
f 293 358 294 
f 293 357 358 
f 294 359 295 
f 294 358 359 
f 295 360 296 
f 295 359 360 
f 296 361 297 
f 296 360 361 
f 297 362 298 
f 297 361 362 
f 298 363 299 
f 298 362 363 
f 299 364 300 
f 299 363 364 
f 300 365 301 
f 300 364 365 
f 301 366 302 
f 301 365 366 
f 302 367 303 
f 302 366 367 
f 303 368 304 
f 303 367 368 
f 304 369 305 
f 304 368 369 
f 305 370 306 
f 305 369 370 
f 306 371 307 
f 306 370 371 
f 307 372 308 
f 307 371 372 
f 308 373 309 
f 308 372 373 
f 309 374 310 
f 309 373 374 
f 310 375 311 
f 310 374 375 
f 311 376 312 
f 311 375 376 
f 312 377 313 
f 312 376 377 
f 313 378 314 
f 313 377 378 
f 314 379 315 
f 314 378 379 
f 315 380 316 
f 315 379 380 
f 316 381 317 
f 316 380 381 
f 317 382 318 
f 317 381 382 
f 318 383 319 
f 318 382 383 
f 319 384 320 
f 319 383 384 
f 320 321 257 
f 320 384 321 
f 321 386 322 
f 321 385 386 
f 322 387 323 
f 322 386 387 
f 323 388 324 
f 323 387 388 
f 324 389 325 
f 324 388 389 
f 325 390 326 
f 325 389 390 
f 326 391 327 
f 326 390 391 
f 327 392 328 
f 327 391 392 
f 328 393 329 
f 328 392 393 
f 329 394 330 
f 329 393 394 
f 330 395 331 
f 330 394 395 
f 331 396 332 
f 331 395 396 
f 332 397 333 
f 332 396 397 
f 333 398 334 
f 333 397 398 
f 334 399 335 
f 334 398 399 
f 335 400 336 
f 335 399 400 
f 336 401 337 
f 336 400 401 
f 337 402 338 
f 337 401 402 
f 338 403 339 
f 338 402 403 
f 339 404 340 
f 339 403 404 
f 340 405 341 
f 340 404 405 
f 341 406 342 
f 341 405 406 
f 342 407 343 
f 342 406 407 
f 343 408 344 
f 343 407 408 
f 344 409 345 
f 344 408 409 
f 345 410 346 
f 345 409 410 
f 346 411 347 
f 346 410 411 
f 347 412 348 
f 347 411 412 
f 348 413 349 
f 348 412 413 
f 349 414 350 
f 349 413 414 
f 350 415 351 
f 350 414 415 
f 351 416 352 
f 351 415 416 
f 352 417 353 
f 352 416 417 
f 353 418 354 
f 353 417 418 
f 354 419 355 
f 354 418 419 
f 355 420 356 
f 355 419 420 
f 356 421 357 
f 356 420 421 
f 357 422 358 
f 357 421 422 
f 358 423 359 
f 358 422 423 
f 359 424 360 
f 359 423 424 
f 360 425 361 
f 360 424 425 
f 361 426 362 
f 361 425 426 
f 362 427 363 
f 362 426 427 
f 363 428 364 
f 363 427 428 
f 364 429 365 
f 364 428 429 
f 365 430 366 
f 365 429 430 
f 366 431 367 
f 366 430 431 
f 367 432 368 
f 367 431 432 
f 368 433 369 
f 368 432 433 
f 369 434 370 
f 369 433 434 
f 370 435 371 
f 370 434 435 
f 371 436 372 
f 371 435 436 
f 372 437 373 
f 372 436 437 
f 373 438 374 
f 373 437 438 
f 374 439 375 
f 374 438 439 
f 375 440 376 
f 375 439 440 
f 376 441 377 
f 376 440 441 
f 377 442 378 
f 377 441 442 
f 378 443 379 
f 378 442 443 
f 379 444 380 
f 379 443 444 
f 380 445 381 
f 380 444 445 
f 381 446 382 
f 381 445 446 
f 382 447 383 
f 382 446 447 
f 383 448 384 
f 383 447 448 
f 384 385 321 
f 384 448 385 
f 385 450 386 
f 385 449 450 
f 386 451 387 
f 386 450 451 
f 387 452 388 
f 387 451 452 
f 388 453 389 
f 388 452 453 
f 389 454 390 
f 389 453 454 
f 390 455 391 
f 390 454 455 
f 391 456 392 
f 391 455 456 
f 392 457 393 
f 392 456 457 
f 393 458 394 
f 393 457 458 
f 394 459 395 
f 394 458 459 
f 395 460 396 
f 395 459 460 
f 396 461 397 
f 396 460 461 
f 397 462 398 
f 397 461 462 
f 398 463 399 
f 398 462 463 
f 399 464 400 
f 399 463 464 
f 400 465 401 
f 400 464 465 
f 401 466 402 
f 401 465 466 
f 402 467 403 
f 402 466 467 
f 403 468 404 
f 403 467 468 
f 404 469 405 
f 404 468 469 
f 405 470 406 
f 405 469 470 
f 406 471 407 
f 406 470 471 
f 407 472 408 
f 407 471 472 
f 408 473 409 
f 408 472 473 
f 409 474 410 
f 409 473 474 
f 410 475 411 
f 410 474 475 
f 411 476 412 
f 411 475 476 
f 412 477 413 
f 412 476 477 
f 413 478 414 
f 413 477 478 
f 414 479 415 
f 414 478 479 
f 415 480 416 
f 415 479 480 
f 416 481 417 
f 416 480 481 
f 417 482 418 
f 417 481 482 
f 418 483 419 
f 418 482 483 
f 419 484 420 
f 419 483 484 
f 420 485 421 
f 420 484 485 
f 421 486 422 
f 421 485 486 
f 422 487 423 
f 422 486 487 
f 423 488 424 
f 423 487 488 
f 424 489 425 
f 424 488 489 
f 425 490 426 
f 425 489 490 
f 426 491 427 
f 426 490 491 
f 427 492 428 
f 427 491 492 
f 428 493 429 
f 428 492 493 
f 429 494 430 
f 429 493 494 
f 430 495 431 
f 430 494 495 
f 431 496 432 
f 431 495 496 
f 432 497 433 
f 432 496 497 
f 433 498 434 
f 433 497 498 
f 434 499 435 
f 434 498 499 
f 435 500 436 
f 435 499 500 
f 436 501 437 
f 436 500 501 
f 437 502 438 
f 437 501 502 
f 438 503 439 
f 438 502 503 
f 439 504 440 
f 439 503 504 
f 440 505 441 
f 440 504 505 
f 441 506 442 
f 441 505 506 
f 442 507 443 
f 442 506 507 
f 443 508 444 
f 443 507 508 
f 444 509 445 
f 444 508 509 
f 445 510 446 
f 445 509 510 
f 446 511 447 
f 446 510 511 
f 447 512 448 
f 447 511 512 
f 448 449 385 
f 448 512 449 
f 449 514 450 
f 449 513 514 
f 450 515 451 
f 450 514 515 
f 451 516 452 
f 451 515 516 
f 452 517 453 
f 452 516 517 
f 453 518 454 
f 453 517 518 
f 454 519 455 
f 454 518 519 
f 455 520 456 
f 455 519 520 
f 456 521 457 
f 456 520 521 
f 457 522 458 
f 457 521 522 
f 458 523 459 
f 458 522 523 
f 459 524 460 
f 459 523 524 
f 460 525 461 
f 460 524 525 
f 461 526 462 
f 461 525 526 
f 462 527 463 
f 462 526 527 
f 463 528 464 
f 463 527 528 
f 464 529 465 
f 464 528 529 
f 465 530 466 
f 465 529 530 
f 466 531 467 
f 466 530 531 
f 467 532 468 
f 467 531 532 
f 468 533 469 
f 468 532 533 
f 469 534 470 
f 469 533 534 
f 470 535 471 
f 470 534 535 
f 471 536 472 
f 471 535 536 
f 472 537 473 
f 472 536 537 
f 473 538 474 
f 473 537 538 
f 474 539 475 
f 474 538 539 
f 475 540 476 
f 475 539 540 
f 476 541 477 
f 476 540 541 
f 477 542 478 
f 477 541 542 
f 478 543 479 
f 478 542 543 
f 479 544 480 
f 479 543 544 
f 480 545 481 
f 480 544 545 
f 481 546 482 
f 481 545 546 
f 482 547 483 
f 482 546 547 
f 483 548 484 
f 483 547 548 
f 484 549 485 
f 484 548 549 
f 485 550 486 
f 485 549 550 
f 486 551 487 
f 486 550 551 
f 487 552 488 
f 487 551 552 
f 488 553 489 
f 488 552 553 
f 489 554 490 
f 489 553 554 
f 490 555 491 
f 490 554 555 
f 491 556 492 
f 491 555 556 
f 492 557 493 
f 492 556 557 
f 493 558 494 
f 493 557 558 
f 494 559 495 
f 494 558 559 
f 495 560 496 
f 495 559 560 
f 496 561 497 
f 496 560 561 
f 497 562 498 
f 497 561 562 
f 498 563 499 
f 498 562 563 
f 499 564 500 
f 499 563 564 
f 500 565 501 
f 500 564 565 
f 501 566 502 
f 501 565 566 
f 502 567 503 
f 502 566 567 
f 503 568 504 
f 503 567 568 
f 504 569 505 
f 504 568 569 
f 505 570 506 
f 505 569 570 
f 506 571 507 
f 506 570 571 
f 507 572 508 
f 507 571 572 
f 508 573 509 
f 508 572 573 
f 509 574 510 
f 509 573 574 
f 510 575 511 
f 510 574 575 
f 511 576 512 
f 511 575 576 
f 512 513 449 
f 512 576 513 
f 513 578 514 
f 513 577 578 
f 514 579 515 
f 514 578 579 
f 515 580 516 
f 515 579 580 
f 516 581 517 
f 516 580 581 
f 517 582 518 
f 517 581 582 
f 518 583 519 
f 518 582 583 
f 519 584 520 
f 519 583 584 
f 520 585 521 
f 520 584 585 
f 521 586 522 
f 521 585 586 
f 522 587 523 
f 522 586 587 
f 523 588 524 
f 523 587 588 
f 524 589 525 
f 524 588 589 
f 525 590 526 
f 525 589 590 
f 526 591 527 
f 526 590 591 
f 527 592 528 
f 527 591 592 
f 528 593 529 
f 528 592 593 
f 529 594 530 
f 529 593 594 
f 530 595 531 
f 530 594 595 
f 531 596 532 
f 531 595 596 
f 532 597 533 
f 532 596 597 
f 533 598 534 
f 533 597 598 
f 534 599 535 
f 534 598 599 
f 535 600 536 
f 535 599 600 
f 536 601 537 
f 536 600 601 
f 537 602 538 
f 537 601 602 
f 538 603 539 
f 538 602 603 
f 539 604 540 
f 539 603 604 
f 540 605 541 
f 540 604 605 
f 541 606 542 
f 541 605 606 
f 542 607 543 
f 542 606 607 
f 543 608 544 
f 543 607 608 
f 544 609 545 
f 544 608 609 
f 545 610 546 
f 545 609 610 
f 546 611 547 
f 546 610 611 
f 547 612 548 
f 547 611 612 
f 548 613 549 
f 548 612 613 
f 549 614 550 
f 549 613 614 
f 550 615 551 
f 550 614 615 
f 551 616 552 
f 551 615 616 
f 552 617 553 
f 552 616 617 
f 553 618 554 
f 553 617 618 
f 554 619 555 
f 554 618 619 
f 555 620 556 
f 555 619 620 
f 556 621 557 
f 556 620 621 
f 557 622 558 
f 557 621 622 
f 558 623 559 
f 558 622 623 
f 559 624 560 
f 559 623 624 
f 560 625 561 
f 560 624 625 
f 561 626 562 
f 561 625 626 
f 562 627 563 
f 562 626 627 
f 563 628 564 
f 563 627 628 
f 564 629 565 
f 564 628 629 
f 565 630 566 
f 565 629 630 
f 566 631 567 
f 566 630 631 
f 567 632 568 
f 567 631 632 
f 568 633 569 
f 568 632 633 
f 569 634 570 
f 569 633 634 
f 570 635 571 
f 570 634 635 
f 571 636 572 
f 571 635 636 
f 572 637 573 
f 572 636 637 
f 573 638 574 
f 573 637 638 
f 574 639 575 
f 574 638 639 
f 575 640 576 
f 575 639 640 
f 576 577 513 
f 576 640 577 
