# Branch
v -12.5753 -3.48108 -27.7083
vn -0.153486 0.168832 -0.973621
v -12.5667 -3.49351 -27.711
vn -0.0986533 0.0893444 -0.991103
v -12.558 -3.50607 -27.7123
vn -0.0428706 0.00899618 -0.99904
v -12.5492 -3.51865 -27.712
vn 0.0133251 -0.0714387 -0.997356
v -12.5404 -3.53112 -27.7102
vn 0.0693924 -0.151185 -0.986067
v -12.5318 -3.54336 -27.707
vn 0.124791 -0.229476 -0.965281
v -12.5233 -3.55526 -27.7023
vn 0.178989 -0.305557 -0.935199
v -12.5151 -3.5667 -27.6962
vn 0.231462 -0.378695 -0.896111
v -12.5072 -3.57756 -27.6887
vn 0.281706 -0.448187 -0.848393
v -12.4998 -3.58775 -27.68
vn 0.329238 -0.513361 -0.792504
v -12.4929 -3.59717 -27.67
vn 0.373598 -0.573592 -0.728983
v -12.4865 -3.60573 -27.659
vn 0.414361 -0.628299 -0.658441
v -12.4807 -3.61333 -27.647
vn 0.451133 -0.676955 -0.581559
v -12.4757 -3.61992 -27.6341
vn 0.483561 -0.719092 -0.499075
v -12.4713 -3.62543 -27.6204
vn 0.511331 -0.754303 -0.411786
v -12.4678 -3.6298 -27.6062
vn 0.534177 -0.78225 -0.32053
v -12.465 -3.63299 -27.5914
vn 0.551879 -0.802664 -0.226188
v -12.4631 -3.63497 -27.5763
vn 0.564266 -0.815347 -0.129667
v -12.462 -3.63573 -27.561
vn 0.571218 -0.820178 -0.0318975
v -12.4617 -3.63525 -27.5457
vn 0.57267 -0.817111 0.0661791
v -12.4624 -3.63354 -27.5305
vn 0.568606 -0.806174 0.163618
v -12.4639 -3.63061 -27.5155
vn 0.559066 -0.787473 0.259482
v -12.4662 -3.6265 -27.5009
vn 0.544143 -0.761188 0.352847
v -12.4694 -3.62125 -27.4868
vn 0.523979 -0.727573 0.442813
v -12.4733 -3.6149 -27.4734
vn 0.498768 -0.686951 0.528515
v -12.478 -3.60751 -27.4608
vn 0.468755 -0.639713 0.609127
v -12.4834 -3.59916 -27.4491
vn 0.434226 -0.586315 0.683873
v -12.4894 -3.58993 -27.4385
vn 0.395516 -0.52727 0.752033
v -12.4961 -3.5799 -27.4289
vn 0.352997 -0.463147 0.81295
v -12.5033 -3.56918 -27.4206
vn 0.307079 -0.394563 0.866038
v -12.5109 -3.55786 -27.4136
vn 0.258203 -0.32218 0.910786
v -12.5189 -3.54606 -27.408
vn 0.20684 -0.246694 0.946762
v -12.5273 -3.53388 -27.4038
vn 0.153486 -0.168832 0.973621
v -12.5359 -3.52145 -27.4011
vn 0.0986533 -0.0893444 0.991103
v -12.5446 -3.50889 -27.3998
vn 0.0428706 -0.00899618 0.99904
v -12.5534 -3.49631 -27.4001
vn -0.0133251 0.0714387 0.997356
v -12.5621 -3.48384 -27.4019
vn -0.0693924 0.151185 0.986067
v -12.5708 -3.4716 -27.4051
vn -0.124791 0.229476 0.965281
v -12.5793 -3.4597 -27.4098
vn -0.178989 0.305557 0.935199
v -12.5875 -3.44827 -27.4159
vn -0.231462 0.378695 0.896111
v -12.5953 -3.4374 -27.4234
vn -0.281706 0.448187 0.848393
v -12.6028 -3.42721 -27.4321
vn -0.329238 0.513361 0.792504
v -12.6097 -3.41779 -27.4421
vn -0.373598 0.573592 0.728983
v -12.6161 -3.40924 -27.4531
vn -0.414361 0.628299 0.658441
v -12.6218 -3.40163 -27.4651
vn -0.451133 0.676955 0.581559
v -12.6269 -3.39504 -27.478
vn -0.483561 0.719092 0.499075
v -12.6312 -3.38953 -27.4917
vn -0.511331 0.754303 0.411786
v -12.6348 -3.38516 -27.5059
vn -0.534177 0.78225 0.32053
v -12.6376 -3.38197 -27.5207
vn -0.551879 0.802664 0.226188
v -12.6395 -3.37999 -27.5358
vn -0.564266 0.815347 0.129667
v -12.6406 -3.37923 -27.5511
vn -0.571218 0.820178 0.0318975
v -12.6408 -3.37971 -27.5664
vn -0.57267 0.817111 -0.0661791
v -12.6402 -3.38142 -27.5816
vn -0.568606 0.806174 -0.163618
v -12.6387 -3.38435 -27.5966
vn -0.559066 0.787473 -0.259482
v -12.6364 -3.38846 -27.6112
vn -0.544143 0.761188 -0.352847
v -12.6332 -3.39371 -27.6253
vn -0.523979 0.727573 -0.442813
v -12.6293 -3.40007 -27.6387
vn -0.498768 0.686951 -0.528515
v -12.6246 -3.40745 -27.6513
vn -0.468755 0.639713 -0.609127
v -12.6192 -3.4158 -27.663
vn -0.434226 0.586315 -0.683873
v -12.6131 -3.42503 -27.6736
vn -0.395516 0.52727 -0.752033
v -12.6065 -3.43506 -27.6832
vn -0.352997 0.463147 -0.81295
v -12.5993 -3.44578 -27.6915
vn -0.307079 0.394563 -0.866038
v -12.5917 -3.4571 -27.6985
vn -0.258203 0.32218 -0.910786
v -12.5836 -3.46891 -27.7041
vn -0.20684 0.246694 -0.946762
v -11.9173 -3.01906 -27.7424
vn -0.148288 0.172454 -0.973792
v -11.908 -3.03251 -27.7454
vn -0.0934804 0.0929489 -0.991273
v -11.8986 -3.04611 -27.7467
vn -0.0377725 0.0125486 -0.999208
v -11.8891 -3.05973 -27.7464
vn 0.0182992 -0.0679726 -0.997519
v -11.8797 -3.07324 -27.7445
vn 0.0741946 -0.147839 -0.986224
v -11.8703 -3.08652 -27.741
vn 0.129376 -0.226282 -0.965432
v -11.8612 -3.09942 -27.7359
vn 0.18331 -0.302546 -0.935341
v -11.8524 -3.11183 -27.7293
vn 0.23548 -0.375896 -0.896243
v -11.8439 -3.12362 -27.7212
vn 0.285382 -0.445625 -0.848514
v -11.836 -3.13469 -27.7118
vn 0.332535 -0.511064 -0.792612
v -11.8285 -3.14493 -27.701
vn 0.376486 -0.57158 -0.729078
v -11.8217 -3.15424 -27.6891
vn 0.416811 -0.626592 -0.658522
v -11.8156 -3.16252 -27.6761
vn 0.453122 -0.675569 -0.581624
v -11.8102 -3.16971 -27.6621
vn 0.485069 -0.71804 -0.499125
v -11.8055 -3.17572 -27.6474
vn 0.512345 -0.753597 -0.411819
v -11.8018 -3.18051 -27.6319
vn 0.534687 -0.781895 -0.320547
v -11.7989 -3.18403 -27.616
vn 0.551879 -0.802664 -0.226188
v -11.7968 -3.18623 -27.5996
vn 0.563756 -0.815702 -0.12965
v -11.7958 -3.18711 -27.5831
vn 0.570204 -0.820885 -0.0318642
v -11.7956 -3.18665 -27.5665
vn 0.571161 -0.818162 0.0662287
v -11.7964 -3.18485 -27.55
vn 0.566617 -0.80756 0.163684
v -11.798 -3.18174 -27.5338
vn 0.556616 -0.78918 0.259562
v -11.8006 -3.17735 -27.518
vn 0.541255 -0.763201 0.352941
v -11.8041 -3.17171 -27.5028
vn 0.520681 -0.729871 0.442921
v -11.8085 -3.16488 -27.4883
vn 0.495093 -0.689512 0.528636
v -11.8136 -3.15693 -27.4746
vn 0.464736 -0.642513 0.609259
v -11.8195 -3.14793 -27.462
vn 0.429904 -0.589326 0.684015
v -11.8261 -3.13798 -27.4504
vn 0.390932 -0.530464 0.752183
v -11.8333 -3.12715 -27.4401
vn 0.348195 -0.466493 0.813108
v -11.8411 -3.11557 -27.4311
vn 0.302105 -0.398029 0.866202
v -11.8494 -3.10334 -27.4236
vn 0.253105 -0.325732 0.910954
v -11.8581 -3.09058 -27.4175
vn 0.201668 -0.250299 0.946932
v -11.8671 -3.07741 -27.4129
vn 0.148288 -0.172454 0.973792
v -11.8764 -3.06396 -27.41
vn 0.0934804 -0.0929489 0.991273
v -11.8858 -3.05036 -27.4086
vn 0.0377725 -0.0125486 0.999208
v -11.8953 -3.03673 -27.4089
vn -0.0182992 0.0679726 0.997519
v -11.9048 -3.02322 -27.4108
vn -0.0741946 0.147839 0.986224
v -11.9141 -3.00995 -27.4144
vn -0.129376 0.226282 0.965432
v -11.9232 -2.99705 -27.4194
vn -0.18331 0.302546 0.935341
v -11.9321 -2.98464 -27.4261
vn -0.23548 0.375896 0.896243
v -11.9405 -2.97284 -27.4341
vn -0.285382 0.445625 0.848514
v -11.9485 -2.96177 -27.4436
vn -0.332535 0.511064 0.792612
v -11.9559 -2.95154 -27.4543
vn -0.376486 0.57158 0.729078
v -11.9627 -2.94223 -27.4663
vn -0.416811 0.626592 0.658522
v -11.9689 -2.93394 -27.4793
vn -0.453122 0.675569 0.581624
v -11.9743 -2.92676 -27.4932
vn -0.485069 0.71804 0.499125
v -11.9789 -2.92074 -27.508
vn -0.512345 0.753597 0.411819
v -11.9827 -2.91596 -27.5235
vn -0.534687 0.781895 0.320547
v -11.9856 -2.91244 -27.5394
vn -0.551879 0.802664 0.226188
v -11.9876 -2.91024 -27.5558
vn -0.563756 0.815702 0.12965
v -11.9887 -2.90936 -27.5723
vn -0.570204 0.820885 0.0318642
v -11.9888 -2.90982 -27.5889
vn -0.571161 0.818162 -0.0662287
v -11.9881 -2.91161 -27.6054
vn -0.566617 0.80756 -0.163684
v -11.9864 -2.91472 -27.6216
vn -0.556616 0.78918 -0.259562
v -11.9838 -2.91912 -27.6374
vn -0.541255 0.763201 -0.352941
v -11.9803 -2.92476 -27.6526
vn -0.520681 0.729871 -0.442921
v -11.976 -2.93158 -27.6671
vn -0.495093 0.689512 -0.528636
v -11.9708 -2.93954 -27.6808
vn -0.464736 0.642513 -0.609259
v -11.9649 -2.94853 -27.6934
vn -0.429904 0.589326 -0.684015
v -11.9584 -2.95849 -27.7049
vn -0.390932 0.530464 -0.752183
v -11.9511 -2.96931 -27.7152
vn -0.348195 0.466493 -0.813108
v -11.9433 -2.9809 -27.7242
vn -0.302105 0.398029 -0.866202
v -11.935 -2.99313 -27.7318
vn -0.253105 0.325732 -0.910954
v -11.9263 -3.00589 -27.7379
vn -0.201668 0.250299 -0.946932
v -11.2522 -2.55346 -27.7718
vn -0.143182 0.176001 -0.973921
v -11.2422 -2.56793 -27.775
vn -0.0883989 0.0964791 -0.991402
v -11.2321 -2.58258 -27.7764
vn -0.0327645 0.0160277 -0.999335
v -11.2219 -2.59724 -27.7761
vn 0.0231854 -0.0645781 -0.997643
v -11.2118 -2.6118 -27.7741
vn 0.078912 -0.144562 -0.986344
v -11.2018 -2.6261 -27.7703
vn 0.133879 -0.223154 -0.965546
v -11.192 -2.64001 -27.7648
vn 0.187556 -0.299596 -0.935449
v -11.1825 -2.6534 -27.7577
vn 0.239427 -0.373153 -0.896343
v -11.1735 -2.66613 -27.749
vn 0.288992 -0.443117 -0.848605
v -11.165 -2.67809 -27.7388
vn 0.335774 -0.508813 -0.792695
v -11.1571 -2.68915 -27.7273
vn 0.379323 -0.569609 -0.72915
v -11.1498 -2.69922 -27.7144
vn 0.419218 -0.62492 -0.658583
v -11.1433 -2.70819 -27.7004
vn 0.455076 -0.674212 -0.581674
v -11.1376 -2.71598 -27.6854
vn 0.486552 -0.717011 -0.499163
v -11.1327 -2.72251 -27.6695
vn 0.513341 -0.752904 -0.411844
v -11.1287 -2.72772 -27.6529
vn 0.535187 -0.781547 -0.32056
v -11.1257 -2.73157 -27.6357
vn 0.551879 -0.802664 -0.226188
v -11.1236 -2.734 -27.6182
vn 0.563256 -0.81605 -0.129638
v -11.1225 -2.73501 -27.6004
vn 0.569208 -0.821577 -0.031839
v -11.1224 -2.73457 -27.5825
vn 0.569679 -0.819192 0.0662663
v -11.1234 -2.7327 -27.5648
vn 0.564663 -0.808917 0.163733
v -11.1253 -2.72942 -27.5473
vn 0.554209 -0.790853 0.259624
v -11.1281 -2.72474 -27.5303
vn 0.538418 -0.765172 0.353013
v -11.1319 -2.71873 -27.5139
vn 0.517442 -0.732121 0.443004
v -11.1367 -2.71143 -27.4983
vn 0.491482 -0.692021 0.528727
v -11.1423 -2.70292 -27.4837
vn 0.460789 -0.645255 0.609359
v -11.1486 -2.69328 -27.4701
vn 0.425659 -0.592276 0.684123
v -11.1558 -2.6826 -27.4577
vn 0.386429 -0.533592 0.752298
v -11.1636 -2.67098 -27.4466
vn 0.343478 -0.46977 0.813228
v -11.172 -2.65855 -27.4369
vn 0.297219 -0.401424 0.866326
v -11.181 -2.6454 -27.4288
vn 0.248097 -0.329211 0.911081
v -11.1903 -2.63169 -27.4222
vn 0.196586 -0.253829 0.947061
v -11.2001 -2.61752 -27.4173
vn 0.143182 -0.176001 0.973921
v -11.21 -2.60305 -27.4141
vn 0.0883989 -0.0964791 0.991402
v -11.2202 -2.58841 -27.4127
vn 0.0327645 -0.0160277 0.999335
v -11.2303 -2.57374 -27.413
vn -0.0231854 0.0645781 0.997643
v -11.2405 -2.55918 -27.4151
vn -0.078912 0.144562 0.986344
v -11.2505 -2.54488 -27.4189
vn -0.133879 0.223154 0.965546
v -11.2602 -2.53097 -27.4243
vn -0.187556 0.299596 0.935449
v -11.2697 -2.51758 -27.4314
vn -0.239427 0.373153 0.896343
v -11.2787 -2.50485 -27.4401
vn -0.288992 0.443117 0.848605
v -11.2872 -2.49289 -27.4503
vn -0.335774 0.508813 0.792695
v -11.2951 -2.48183 -27.4619
vn -0.379323 0.569609 0.72915
v -11.3024 -2.47176 -27.4747
vn -0.419218 0.62492 0.658583
v -11.3089 -2.46279 -27.4887
vn -0.455076 0.674212 0.581674
v -11.3147 -2.45501 -27.5037
vn -0.486552 0.717011 0.499163
v -11.3195 -2.44847 -27.5196
vn -0.513341 0.752904 0.411844
v -11.3235 -2.44326 -27.5362
vn -0.535187 0.781547 0.32056
v -11.3265 -2.43942 -27.5534
vn -0.551879 0.802664 0.226188
v -11.3286 -2.43698 -27.571
vn -0.563256 0.81605 0.129638
v -11.3297 -2.43598 -27.5888
vn -0.569208 0.821577 0.031839
v -11.3298 -2.43641 -27.6066
vn -0.569679 0.819192 -0.0662663
v -11.3289 -2.43828 -27.6244
vn -0.564663 0.808917 -0.163733
v -11.327 -2.44157 -27.6418
vn -0.554209 0.790853 -0.259624
v -11.3241 -2.44624 -27.6588
vn -0.538418 0.765172 -0.353013
v -11.3203 -2.45226 -27.6752
vn -0.517442 0.732121 -0.443004
v -11.3156 -2.45955 -27.6908
vn -0.491482 0.692021 -0.528727
v -11.31 -2.46806 -27.7055
vn -0.460789 0.645255 -0.609359
v -11.3036 -2.47771 -27.7191
vn -0.425659 0.592276 -0.684123
v -11.2964 -2.48839 -27.7315
vn -0.386429 0.533592 -0.752298
v -11.2886 -2.5 -27.7426
vn -0.343478 0.46977 -0.813228
v -11.2802 -2.51244 -27.7522
vn -0.297219 0.401424 -0.866326
v -11.2713 -2.52558 -27.7604
vn -0.248097 0.329211 -0.911081
v -11.2619 -2.5393 -27.7669
vn -0.196586 0.253829 -0.947061
v -10.5799 -2.08429 -27.7964
vn -0.138166 0.179476 -0.974012
v -10.5692 -2.09979 -27.7998
vn -0.0834069 0.0999367 -0.991492
v -10.5584 -2.11547 -27.8014
vn -0.0278448 0.0194353 -0.999423
v -10.5475 -2.13119 -27.8011
vn 0.0279855 -0.0612534 -0.99773
v -10.5367 -2.14679 -27.7989
vn 0.0835463 -0.141352 -0.986428
v -10.526 -2.16213 -27.7948
vn 0.138303 -0.22009 -0.965626
v -10.5156 -2.17705 -27.7889
vn 0.191727 -0.296707 -0.935524
v -10.5056 -2.19142 -27.7813
vn 0.243305 -0.370468 -0.896413
v -10.496 -2.2051 -27.772
vn 0.292539 -0.44066 -0.848669
v -10.487 -2.21794 -27.7611
vn 0.338957 -0.506609 -0.792752
v -10.4785 -2.22984 -27.7487
vn 0.38211 -0.567679 -0.7292
v -10.4709 -2.24067 -27.735
vn 0.421583 -0.623282 -0.658626
v -10.464 -2.25033 -27.72
vn 0.456996 -0.672882 -0.581708
v -10.4579 -2.25873 -27.7039
vn 0.488008 -0.716002 -0.499189
v -10.4528 -2.26579 -27.6869
vn 0.51432 -0.752227 -0.411862
v -10.4486 -2.27143 -27.6691
vn 0.535679 -0.781207 -0.320568
v -10.4455 -2.27561 -27.6508
vn 0.551879 -0.802664 -0.226188
v -10.4434 -2.27829 -27.6319
vn 0.562764 -0.81639 -0.129629
v -10.4423 -2.27943 -27.6129
vn 0.568229 -0.822255 -0.0318213
v -10.4423 -2.27903 -27.5938
vn 0.568223 -0.8202 0.0662925
v -10.4434 -2.27709 -27.5748
vn 0.562743 -0.810247 0.163768
v -10.4455 -2.27363 -27.5561
vn 0.551845 -0.79249 0.259666
v -10.4486 -2.26869 -27.5379
vn 0.535631 -0.767102 0.353064
v -10.4528 -2.2623 -27.5204
vn 0.51426 -0.734326 0.443061
v -10.4579 -2.25454 -27.5037
vn 0.487935 -0.694477 0.528791
v -10.464 -2.24547 -27.488
vn 0.456912 -0.647941 0.609429
v -10.4709 -2.23519 -27.4734
vn 0.421488 -0.595165 0.684198
v -10.4786 -2.2238 -27.4601
vn 0.382005 -0.536656 0.752377
v -10.487 -2.21139 -27.4483
vn 0.338843 -0.47298 0.813311
v -10.496 -2.1981 -27.4379
vn 0.292418 -0.404749 0.866412
v -10.5056 -2.18405 -27.4292
vn 0.243177 -0.332619 0.911169
v -10.5157 -2.16937 -27.4222
vn 0.191594 -0.257286 0.947151
v -10.5261 -2.15422 -27.417
vn 0.138166 -0.179476 0.974012
v -10.5367 -2.13872 -27.4136
vn 0.0834069 -0.0999367 0.991492
v -10.5476 -2.12304 -27.412
vn 0.0278448 -0.0194353 0.999423
v -10.5584 -2.10732 -27.4123
vn -0.0279855 0.0612534 0.99773
v -10.5693 -2.09172 -27.4145
vn -0.0835463 0.141352 0.986428
v -10.5799 -2.07638 -27.4186
vn -0.138303 0.22009 0.965626
v -10.5903 -2.06146 -27.4245
vn -0.191727 0.296707 0.935524
v -10.6004 -2.04709 -27.4321
vn -0.243305 0.370468 0.896413
v -10.61 -2.03342 -27.4414
vn -0.292539 0.44066 0.848669
v -10.619 -2.02057 -27.4523
vn -0.338957 0.506609 0.792752
v -10.6274 -2.00867 -27.4647
vn -0.38211 0.567679 0.7292
v -10.6351 -1.99784 -27.4784
vn -0.421583 0.623282 0.658626
v -10.642 -1.98818 -27.4934
vn -0.456996 0.672882 0.581708
v -10.648 -1.97978 -27.5095
vn -0.488008 0.716002 0.499189
v -10.6532 -1.97272 -27.5265
vn -0.51432 0.752227 0.411862
v -10.6573 -1.96708 -27.5443
vn -0.535679 0.781207 0.320568
v -10.6605 -1.9629 -27.5626
vn -0.551879 0.802664 0.226188
v -10.6626 -1.96022 -27.5814
vn -0.562764 0.81639 0.129629
v -10.6637 -1.95908 -27.6005
vn -0.568229 0.822255 0.0318213
v -10.6637 -1.95948 -27.6196
vn -0.568223 0.8202 -0.0662925
v -10.6626 -1.96142 -27.6386
vn -0.562743 0.810247 -0.163768
v -10.6605 -1.96488 -27.6573
vn -0.551845 0.79249 -0.259666
v -10.6573 -1.96983 -27.6755
vn -0.535631 0.767102 -0.353064
v -10.6532 -1.97621 -27.693
vn -0.51426 0.734326 -0.443061
v -10.648 -1.98397 -27.7097
vn -0.487935 0.694477 -0.528791
v -10.642 -1.99304 -27.7254
vn -0.456912 0.647941 -0.609429
v -10.6351 -2.00332 -27.74
vn -0.421488 0.595165 -0.684198
v -10.6274 -2.01472 -27.7533
vn -0.382005 0.536656 -0.752377
v -10.619 -2.02712 -27.7651
vn -0.338843 0.47298 -0.813311
v -10.6099 -2.04041 -27.7755
vn -0.292418 0.404749 -0.866412
v -10.6004 -2.05446 -27.7842
vn -0.243177 0.332619 -0.911169
v -10.5903 -2.06914 -27.7912
vn -0.191594 0.257286 -0.947151
v -9.90048 -1.61156 -27.8163
vn -0.133238 0.182879 -0.974065
v -9.88912 -1.62807 -27.8199
vn -0.0785027 0.103324 -0.991545
v -9.8776 -1.6448 -27.8216
vn -0.0230115 0.0227732 -0.999476
v -9.86603 -1.66157 -27.8212
vn 0.0327013 -0.0579966 -0.997781
v -9.85453 -1.67822 -27.8189
vn 0.0880992 -0.138208 -0.986477
v -9.8432 -1.69459 -27.8146
vn 0.142649 -0.217088 -0.965673
v -9.83216 -1.71054 -27.8083
vn 0.195824 -0.293878 -0.935569
v -9.82151 -1.72589 -27.8002
vn 0.247114 -0.367837 -0.896454
v -9.81136 -1.74051 -27.7903
vn 0.296024 -0.438254 -0.848707
v -9.8018 -1.75425 -27.7787
vn 0.342083 -0.50445 -0.792786
v -9.79292 -1.76699 -27.7655
vn 0.384848 -0.565788 -0.72923
v -9.78481 -1.77859 -27.7508
vn 0.423906 -0.621677 -0.658651
v -9.77755 -1.78895 -27.7348
vn 0.458882 -0.67158 -0.581729
v -9.77121 -1.79797 -27.7177
vn 0.489438 -0.715014 -0.499204
v -9.76584 -1.80556 -27.6996
vn 0.515281 -0.751563 -0.411872
v -9.76151 -1.81164 -27.6806
vn 0.536162 -0.780873 -0.320574
v -9.75824 -1.81616 -27.661
vn 0.551879 -0.802664 -0.226188
v -9.75608 -1.81908 -27.641
vn 0.562281 -0.816724 -0.129623
v -9.75505 -1.82037 -27.6207
vn 0.567268 -0.822919 -0.0318109
v -9.75515 -1.82001 -27.6003
vn 0.566792 -0.821188 0.0663081
v -9.75638 -1.81801 -27.5801
vn 0.560858 -0.811549 0.163788
v -9.75873 -1.81439 -27.5602
vn 0.549522 -0.794095 0.259691
v -9.76218 -1.80917 -27.5408
vn 0.532893 -0.768993 0.353093
v -9.7667 -1.80243 -27.5221
vn 0.511133 -0.736485 0.443095
v -9.77224 -1.7942 -27.5043
vn 0.484451 -0.696884 0.528829
v -9.77875 -1.78459 -27.4875
vn 0.453103 -0.650572 0.609471
v -9.78616 -1.77367 -27.472
vn 0.417391 -0.597994 0.684242
v -9.79441 -1.76156 -27.4579
vn 0.377659 -0.539658 0.752425
v -9.80342 -1.74837 -27.4452
vn 0.334291 -0.476124 0.813361
v -9.81309 -1.73423 -27.4342
vn 0.287703 -0.408005 0.866463
v -9.82334 -1.71927 -27.4249
vn 0.238344 -0.335957 0.911222
v -9.83406 -1.70364 -27.4174
vn 0.18669 -0.260673 0.947204
v -9.84516 -1.68749 -27.4118
vn 0.133238 -0.182879 0.974065
v -9.85652 -1.67098 -27.4082
vn 0.0785027 -0.103324 0.991545
v -9.86804 -1.65425 -27.4066
vn 0.0230115 -0.0227732 0.999476
v -9.87961 -1.63748 -27.4069
vn -0.0327013 0.0579966 0.997781
v -9.89111 -1.62083 -27.4093
vn -0.0880992 0.138208 0.986477
v -9.90243 -1.60446 -27.4136
vn -0.142649 0.217088 0.965673
v -9.91347 -1.58851 -27.4198
vn -0.195824 0.293878 0.935569
v -9.92412 -1.57316 -27.428
vn -0.247114 0.367837 0.896454
v -9.93427 -1.55854 -27.4379
vn -0.296024 0.438254 0.848707
v -9.94384 -1.5448 -27.4495
vn -0.342083 0.50445 0.792786
v -9.95272 -1.53206 -27.4627
vn -0.384848 0.565788 0.72923
v -9.96082 -1.52046 -27.4773
vn -0.423906 0.621677 0.658651
v -9.96809 -1.5101 -27.4933
vn -0.458882 0.67158 0.581729
v -9.97443 -1.50108 -27.5104
vn -0.489438 0.715014 0.499204
v -9.97979 -1.49349 -27.5286
vn -0.515281 0.751563 0.411872
v -9.98413 -1.48741 -27.5475
vn -0.536162 0.780873 0.320574
v -9.98739 -1.48288 -27.5671
vn -0.551879 0.802664 0.226188
v -9.98955 -1.47997 -27.5872
vn -0.562281 0.816724 0.129623
v -9.99059 -1.47868 -27.6075
vn -0.567268 0.822919 0.0318109
v -9.99049 -1.47904 -27.6278
vn -0.566792 0.821188 -0.0663081
v -9.98926 -1.48104 -27.6481
vn -0.560858 0.811549 -0.163788
v -9.9869 -1.48466 -27.668
vn -0.549522 0.794095 -0.259691
v -9.98345 -1.48988 -27.6874
vn -0.532893 0.768993 -0.353093
v -9.97893 -1.49662 -27.7061
vn -0.511133 0.736485 -0.443095
v -9.97339 -1.50485 -27.7239
vn -0.484451 0.696884 -0.528829
v -9.96689 -1.51446 -27.7406
vn -0.453103 0.650572 -0.609471
v -9.95947 -1.52538 -27.7561
vn -0.417391 0.597994 -0.684242
v -9.95122 -1.53749 -27.7703
vn -0.377659 0.539658 -0.752425
v -9.94222 -1.55068 -27.7829
vn -0.334291 0.476124 -0.813361
v -9.93255 -1.56482 -27.794
vn -0.287703 0.408005 -0.866463
v -9.9223 -1.57978 -27.8032
vn -0.238344 0.335957 -0.911222
v -9.91158 -1.59541 -27.8107
vn -0.18669 0.260673 -0.947204
v -9.21392 -1.13525 -27.8314
vn -0.128396 0.186213 -0.974084
v -9.20186 -1.15279 -27.8353
vn -0.0736844 0.106642 -0.991563
v -9.18965 -1.17056 -27.837
vn -0.018263 0.0260433 -0.999494
v -9.17739 -1.18838 -27.8366
vn 0.0373344 -0.054806 -0.997799
v -9.16522 -1.20608 -27.8341
vn 0.0925722 -0.135128 -0.986494
v -9.15324 -1.2235 -27.8295
vn 0.146918 -0.214148 -0.965689
v -9.14157 -1.24046 -27.8229
vn 0.19985 -0.291105 -0.935584
v -9.13033 -1.25681 -27.8143
vn 0.250857 -0.36526 -0.896469
v -9.11962 -1.27238 -27.8038
vn 0.299447 -0.435896 -0.84872
v -9.10954 -1.28702 -27.7914
vn 0.345154 -0.502335 -0.792798
v -9.1002 -1.3006 -27.7774
vn 0.387537 -0.563936 -0.72924
v -9.09168 -1.31298 -27.7619
vn 0.426188 -0.620106 -0.65866
v -9.08407 -1.32405 -27.7449
vn 0.460734 -0.670304 -0.581736
v -9.07743 -1.33369 -27.7267
vn 0.490844 -0.714046 -0.49921
v -9.07184 -1.34181 -27.7075
vn 0.516226 -0.750912 -0.411876
v -9.06734 -1.34835 -27.6874
vn 0.536636 -0.780546 -0.320575
v -9.06398 -1.35322 -27.6665
vn 0.551879 -0.802664 -0.226188
v -9.06179 -1.35639 -27.6453
vn 0.561806 -0.817051 -0.129622
v -9.06079 -1.35783 -27.6237
vn 0.566324 -0.823569 -0.0318073
v -9.061 -1.35752 -27.6021
vn 0.565387 -0.822156 0.0663134
v -9.06241 -1.35546 -27.5806
vn 0.559005 -0.812825 0.163796
v -9.065 -1.35168 -27.5594
vn 0.547239 -0.795666 0.2597
v -9.06876 -1.34621 -27.5389
vn 0.530204 -0.770845 0.353104
v -9.07364 -1.3391 -27.519
vn 0.508062 -0.7386 0.443107
v -9.0796 -1.33043 -27.5001
vn 0.481027 -0.699241 0.528842
v -9.08658 -1.32027 -27.4824
vn 0.44936 -0.653149 0.609485
v -9.09451 -1.30872 -27.4659
vn 0.413365 -0.600767 0.684258
v -9.10332 -1.2959 -27.4508
vn 0.373389 -0.542598 0.752441
v -9.11293 -1.28192 -27.4374
vn 0.329818 -0.479205 0.813378
v -9.12323 -1.26693 -27.4257
vn 0.28307 -0.411196 0.866481
v -9.13413 -1.25107 -27.4158
vn 0.233595 -0.339227 0.91124
v -9.14554 -1.23449 -27.4079
vn 0.181872 -0.263991 0.947223
v -9.15732 -1.21734 -27.402
vn 0.128396 -0.186213 0.974084
v -9.16938 -1.1998 -27.3981
vn 0.0736844 -0.106642 0.991563
v -9.1816 -1.18204 -27.3964
vn 0.018263 -0.0260433 0.999494
v -9.19385 -1.16422 -27.3968
vn -0.0373344 0.054806 0.997799
v -9.20603 -1.14651 -27.3993
vn -0.0925722 0.135128 0.986494
v -9.21801 -1.1291 -27.4038
vn -0.146918 0.214148 0.965689
v -9.22967 -1.11213 -27.4105
vn -0.19985 0.291105 0.935584
v -9.24092 -1.09579 -27.4191
vn -0.250857 0.36526 0.896469
v -9.25163 -1.08022 -27.4296
vn -0.299447 0.435896 0.84872
v -9.2617 -1.06557 -27.4419
vn -0.345154 0.502335 0.792798
v -9.27104 -1.052 -27.456
vn -0.387537 0.563936 0.72924
v -9.27956 -1.03962 -27.4715
vn -0.426188 0.620106 0.65866
v -9.28718 -1.02855 -27.4885
vn -0.460734 0.670304 0.581736
v -9.29381 -1.01891 -27.5067
vn -0.490844 0.714046 0.49921
v -9.29941 -1.01078 -27.5259
vn -0.516226 0.750912 0.411876
v -9.30391 -1.00425 -27.546
vn -0.536636 0.780546 0.320575
v -9.30727 -0.999376 -27.5668
vn -0.551879 0.802664 0.226188
v -9.30946 -0.996205 -27.5881
vn -0.561806 0.817051 0.129622
v -9.31045 -0.994768 -27.6097
vn -0.566324 0.823569 0.0318073
v -9.31025 -0.99508 -27.6313
vn -0.565387 0.822156 -0.0663134
v -9.30884 -0.997136 -27.6528
vn -0.559005 0.812825 -0.163796
v -9.30625 -1.00092 -27.6739
vn -0.547239 0.795666 -0.2597
v -9.30249 -1.00639 -27.6945
vn -0.530204 0.770845 -0.353104
v -9.29761 -1.0135 -27.7144
vn -0.508062 0.7386 -0.443107
v -9.29165 -1.02217 -27.7333
vn -0.481027 0.699241 -0.528842
v -9.28467 -1.03233 -27.751
vn -0.44936 0.653149 -0.609485
v -9.27674 -1.04388 -27.7675
vn -0.413365 0.600767 -0.684258
v -9.26793 -1.0567 -27.7825
vn -0.373389 0.542598 -0.752441
v -9.25832 -1.07067 -27.796
vn -0.329818 0.479205 -0.813378
v -9.24802 -1.08566 -27.8077
vn -0.28307 0.411196 -0.866481
v -9.23711 -1.10153 -27.8175
vn -0.233595 0.339227 -0.91124
v -9.22571 -1.11811 -27.8255
vn -0.181872 0.263991 -0.947223
v -8.52023 -0.655386 -27.8417
vn -0.123639 0.18948 -0.974069
v -8.50748 -0.673948 -27.8458
vn -0.0689504 0.109893 -0.991549
v -8.49457 -0.692757 -27.8477
vn -0.0135974 0.0292471 -0.99948
v -8.48163 -0.711632 -27.8473
vn 0.0418865 -0.0516801 -0.997785
v -8.46878 -0.73039 -27.8446
vn 0.096967 -0.13211 -0.986481
v -8.45615 -0.748852 -27.8398
vn 0.151114 -0.211267 -0.965676
v -8.44386 -0.76684 -27.8328
vn 0.203805 -0.288389 -0.935572
v -8.43203 -0.784179 -27.8236
vn 0.254534 -0.362735 -0.896458
v -8.42077 -0.800704 -27.8125
vn 0.302811 -0.433586 -0.84871
v -8.41019 -0.816255 -27.7995
vn 0.348172 -0.500263 -0.792788
v -8.4004 -0.830682 -27.7846
vn 0.39018 -0.562121 -0.729232
v -8.39148 -0.843847 -27.7682
vn 0.428431 -0.618566 -0.658653
v -8.38352 -0.855622 -27.7502
vn 0.462555 -0.669054 -0.58173
v -8.3766 -0.865894 -27.731
vn 0.492225 -0.713098 -0.499205
v -8.37078 -0.874565 -27.7106
vn 0.517154 -0.750275 -0.411873
v -8.36613 -0.881551 -27.6893
vn 0.537103 -0.780226 -0.320574
v -8.36268 -0.886784 -27.6673
vn 0.551879 -0.802664 -0.226188
v -8.36048 -0.890214 -27.6448
vn 0.56134 -0.817371 -0.129623
v -8.35953 -0.891808 -27.622
vn 0.565396 -0.824206 -0.0318101
v -8.35985 -0.891551 -27.5991
vn 0.564006 -0.823104 0.0663092
v -8.36145 -0.889445 -27.5764
vn 0.557184 -0.814075 0.16379
v -8.36429 -0.885511 -27.554
vn 0.544997 -0.797206 0.259693
v -8.36835 -0.879786 -27.5322
vn 0.527561 -0.77266 0.353096
v -8.37361 -0.872326 -27.5112
vn 0.505044 -0.740672 0.443097
v -8.37999 -0.863201 -27.4912
vn 0.477664 -0.701551 0.528832
v -8.38745 -0.852501 -27.4724
vn 0.445683 -0.655674 0.609474
v -8.39591 -0.840329 -27.455
vn 0.40941 -0.603483 0.684246
v -8.40529 -0.826801 -27.4391
vn 0.369194 -0.545479 0.752428
v -8.4155 -0.812047 -27.4249
vn 0.325423 -0.482223 0.813364
v -8.42644 -0.796211 -27.4125
vn 0.278517 -0.414322 0.866467
v -8.438 -0.779444 -27.402
vn 0.22893 -0.342431 0.911226
v -8.45008 -0.761907 -27.3936
vn 0.177138 -0.267242 0.947208
v -8.46256 -0.743771 -27.3874
vn 0.123639 -0.18948 0.974069
v -8.47532 -0.725209 -27.3833
vn 0.0689504 -0.109893 0.991549
v -8.48823 -0.7064 -27.3815
vn 0.0135974 -0.0292471 0.99948
v -8.50117 -0.687525 -27.3818
vn -0.0418865 0.0516801 0.997785
v -8.51401 -0.668767 -27.3845
vn -0.096967 0.13211 0.986481
v -8.52664 -0.650305 -27.3893
vn -0.151114 0.211267 0.965676
v -8.53893 -0.632317 -27.3964
vn -0.203805 0.288389 0.935572
v -8.55076 -0.614978 -27.4055
vn -0.254534 0.362735 0.896458
v -8.56202 -0.598453 -27.4166
vn -0.302811 0.433586 0.84871
v -8.5726 -0.582902 -27.4297
vn -0.348172 0.500263 0.792788
v -8.5824 -0.568475 -27.4445
vn -0.39018 0.562121 0.729232
v -8.59132 -0.55531 -27.4609
vn -0.428431 0.618566 0.658653
v -8.59928 -0.543535 -27.4789
vn -0.462555 0.669054 0.58173
v -8.6062 -0.533263 -27.4981
vn -0.492225 0.713098 0.499205
v -8.61201 -0.524592 -27.5185
vn -0.517154 0.750275 0.411873
v -8.61667 -0.517606 -27.5398
vn -0.537103 0.780226 0.320574
v -8.62011 -0.512373 -27.5618
vn -0.551879 0.802664 0.226188
v -8.62232 -0.508943 -27.5843
vn -0.56134 0.817371 0.129623
v -8.62327 -0.507349 -27.6071
vn -0.565396 0.824206 0.0318101
v -8.62294 -0.507606 -27.63
vn -0.564006 0.823104 -0.0663092
v -8.62135 -0.509712 -27.6528
vn -0.557184 0.814075 -0.16379
v -8.61851 -0.513646 -27.6751
vn -0.544997 0.797206 -0.259693
v -8.61444 -0.519371 -27.6969
vn -0.527561 0.77266 -0.353096
v -8.60919 -0.526832 -27.7179
vn -0.505044 0.740672 -0.443097
v -8.6028 -0.535956 -27.7379
vn -0.477664 0.701551 -0.528832
v -8.59534 -0.546656 -27.7567
vn -0.445683 0.655674 -0.609474
v -8.58688 -0.558828 -27.7741
vn -0.40941 0.603483 -0.684246
v -8.57751 -0.572356 -27.79
vn -0.369194 0.545479 -0.752428
v -8.5673 -0.58711 -27.8043
vn -0.325423 0.482223 -0.813364
v -8.55636 -0.602946 -27.8166
vn -0.278517 0.414322 -0.866467
v -8.54479 -0.619713 -27.8271
vn -0.22893 0.342431 -0.911226
v -8.53271 -0.63725 -27.8355
vn -0.177138 0.267242 -0.947208
v -7.81941 -0.171956 -27.8473
vn -0.118965 0.192681 -0.974023
v -7.80596 -0.191542 -27.8516
vn -0.0642989 0.113078 -0.991503
v -7.79236 -0.211395 -27.8536
vn -0.00901322 0.0323863 -0.999435
v -7.77874 -0.231325 -27.8532
vn 0.0463593 -0.0486172 -0.997741
v -7.76522 -0.25114 -27.8504
vn 0.101285 -0.129152 -0.986439
v -7.75195 -0.270649 -27.8453
vn 0.155236 -0.208444 -0.965636
v -7.73904 -0.289664 -27.8379
vn 0.207691 -0.285728 -0.935534
v -7.72663 -0.308002 -27.8282
vn 0.258147 -0.36026 -0.896422
v -7.71482 -0.325487 -27.8165
vn 0.306116 -0.431323 -0.848677
v -7.70375 -0.341949 -27.8027
vn 0.351137 -0.498232 -0.792759
v -7.6935 -0.357231 -27.7871
vn 0.392777 -0.560343 -0.729207
v -7.68419 -0.371185 -27.7697
vn 0.430634 -0.617057 -0.658631
v -7.67589 -0.383677 -27.7508
vn 0.464344 -0.667829 -0.581713
v -7.6687 -0.394586 -27.7305
vn 0.493581 -0.712169 -0.499192
v -7.66268 -0.403808 -27.709
vn 0.518066 -0.749651 -0.411864
v -7.65788 -0.411254 -27.6865
vn 0.537561 -0.779913 -0.32057
v -7.65436 -0.416852 -27.6633
vn 0.551879 -0.802664 -0.226188
v -7.65214 -0.420547 -27.6396
vn 0.560882 -0.817685 -0.129628
v -7.65126 -0.422306 -27.6155
vn 0.564484 -0.824831 -0.031819
v -7.65171 -0.422109 -27.5914
vn 0.562649 -0.824033 0.0662959
v -7.65349 -0.419961 -27.5674
vn 0.555396 -0.8153 0.163772
v -7.65659 -0.41588 -27.5438
vn 0.542794 -0.798715 0.259672
v -7.66098 -0.409907 -27.5208
vn 0.524964 -0.774438 0.35307
v -7.66661 -0.402099 -27.4987
vn 0.502079 -0.742703 0.443068
v -7.67343 -0.392531 -27.4776
vn 0.474358 -0.703815 0.5288
v -7.68137 -0.381295 -27.4577
vn 0.44207 -0.658148 0.609438
v -7.69037 -0.3685 -27.4393
vn 0.405524 -0.606144 0.684208
v -7.70032 -0.354268 -27.4226
vn 0.365072 -0.548302 0.752388
v -7.71114 -0.338738 -27.4076
vn 0.321105 -0.48518 0.813322
v -7.72272 -0.322057 -27.3945
vn 0.274045 -0.417385 0.866423
v -7.73494 -0.304388 -27.3835
vn 0.224346 -0.34557 0.911181
v -7.7477 -0.2859 -27.3746
vn 0.172486 -0.270428 0.947163
v -7.76087 -0.266771 -27.368
vn 0.118965 -0.192681 0.974023
v -7.77432 -0.247185 -27.3637
vn 0.0642989 -0.113078 0.991503
v -7.78792 -0.227332 -27.3618
vn 0.00901322 -0.0323863 0.999435
v -7.80155 -0.207402 -27.3622
vn -0.0463593 0.0486172 0.997741
v -7.81506 -0.187587 -27.365
vn -0.101285 0.129152 0.986439
v -7.82834 -0.168078 -27.3701
vn -0.155236 0.208444 0.965636
v -7.84124 -0.149063 -27.3775
vn -0.207691 0.285728 0.935534
v -7.85366 -0.130725 -27.3871
vn -0.258147 0.36026 0.896422
v -7.86546 -0.11324 -27.3989
vn -0.306116 0.431323 0.848677
v -7.87654 -0.0967781 -27.4126
vn -0.351137 0.498232 0.792759
v -7.88678 -0.0814963 -27.4283
vn -0.392777 0.560343 0.729207
v -7.8961 -0.0675423 -27.4456
vn -0.430634 0.617057 0.658631
v -7.90439 -0.0550504 -27.4646
vn -0.464344 0.667829 0.581713
v -7.91158 -0.0441409 -27.4849
vn -0.493581 0.712169 0.499192
v -7.91761 -0.0349189 -27.5063
vn -0.518066 0.749651 0.411864
v -7.9224 -0.0274732 -27.5288
vn -0.537561 0.779913 0.32057
v -7.92593 -0.0218755 -27.552
vn -0.551879 0.802664 0.226188
v -7.92814 -0.0181798 -27.5758
vn -0.560882 0.817685 0.129628
v -7.92903 -0.0164215 -27.5998
vn -0.564484 0.824831 0.031819
v -7.92858 -0.0166177 -27.624
vn -0.562649 0.824033 -0.0662959
v -7.92679 -0.0187664 -27.648
vn -0.555396 0.8153 -0.163772
v -7.92369 -0.022847 -27.6716
vn -0.542794 0.798715 -0.259672
v -7.9193 -0.0288202 -27.6945
vn -0.524964 0.774438 -0.35307
v -7.91367 -0.0366284 -27.7167
vn -0.502079 0.742703 -0.443068
v -7.90685 -0.0461964 -27.7378
vn -0.474358 0.703815 -0.5288
v -7.89891 -0.0574322 -27.7576
vn -0.44207 0.658148 -0.609438
v -7.88992 -0.0702274 -27.776
vn -0.405524 0.606144 -0.684208
v -7.87996 -0.0844589 -27.7928
vn -0.365072 0.548302 -0.752388
v -7.86915 -0.0999896 -27.8078
vn -0.321105 0.48518 -0.813322
v -7.85757 -0.11667 -27.8209
vn -0.274045 0.417385 -0.866423
v -7.84534 -0.134339 -27.8319
vn -0.224346 0.34557 -0.911181
v -7.83258 -0.152827 -27.8407
vn -0.172486 0.270428 -0.947163
v -7.11146 0.315034 -27.8481
vn -0.114372 0.195817 -0.973948
v -7.09732 0.294424 -27.8527
vn -0.0597282 0.116199 -0.991428
v -7.08302 0.273526 -27.8547
vn -0.00450864 0.0354627 -0.999361
v -7.06872 0.252538 -27.8543
vn 0.0507543 -0.0456156 -0.997669
v -7.05454 0.231665 -27.8514
vn 0.105528 -0.126255 -0.986369
v -7.04062 0.211106 -27.846
vn 0.159286 -0.205678 -0.96557
v -7.02711 0.19106 -27.8382
vn 0.21151 -0.28312 -0.935471
v -7.01411 0.17172 -27.8281
vn 0.261697 -0.357836 -0.896364
v -7.00178 0.153272 -27.8157
vn 0.309364 -0.429105 -0.848624
v -6.99021 0.135893 -27.8012
vn 0.354051 -0.496242 -0.792711
v -6.97952 0.119752 -27.7848
vn 0.395329 -0.5586 -0.729165
v -6.96982 0.105003 -27.7665
vn 0.432799 -0.615579 -0.658596
v -6.9612 0.0917883 -27.7466
vn 0.466101 -0.666628 -0.581684
v -6.95375 0.0802357 -27.7252
vn 0.494915 -0.711258 -0.49917
v -6.94752 0.0704563 -27.7026
vn 0.518962 -0.749039 -0.411849
v -6.94259 0.0625441 -27.679
vn 0.538011 -0.779605 -0.320562
v -6.939 0.0565754 -27.6546
vn 0.551879 -0.802664 -0.226188
v -6.93679 0.0526076 -27.6296
vn 0.560432 -0.817992 -0.129635
v -6.93597 0.050679 -27.6043
vn 0.563588 -0.825443 -0.0318337
v -6.93656 0.0508081 -27.5789
vn 0.561316 -0.824944 0.066274
v -6.93854 0.0529937 -27.5537
vn 0.553638 -0.8165 0.163744
v -6.94191 0.0572147 -27.5288
vn 0.540629 -0.800194 0.259636
v -6.94663 0.0634305 -27.5047
vn 0.522412 -0.776181 0.353028
v -6.95265 0.0715813 -27.4814
vn 0.499165 -0.744692 0.443021
v -6.95991 0.0815885 -27.4592
vn 0.471111 -0.706032 0.528746
v -6.96834 0.0933557 -27.4383
vn 0.438519 -0.660573 0.60938
v -6.97787 0.10677 -27.4189
vn 0.401705 -0.608752 0.684145
v -6.9884 0.121701 -27.4013
vn 0.361021 -0.551068 0.752321
v -6.99983 0.138006 -27.3855
vn 0.316861 -0.488077 0.813252
v -7.01206 0.155528 -27.3718
vn 0.26965 -0.420386 0.866351
v -7.02495 0.174098 -27.3602
vn 0.219841 -0.348646 0.911107
v -7.03839 0.193538 -27.3509
vn 0.167915 -0.273549 0.947088
v -7.05225 0.213659 -27.3439
vn 0.114372 -0.195817 0.973948
v -7.06639 0.234268 -27.3394
vn 0.0597282 -0.116199 0.991428
v -7.08069 0.255167 -27.3374
vn 0.00450864 -0.0354627 0.999361
v -7.09499 0.276154 -27.3378
vn -0.0507543 0.0456156 0.997669
v -7.10917 0.297027 -27.3407
vn -0.105528 0.126255 0.986369
v -7.12309 0.317586 -27.3461
vn -0.159286 0.205678 0.96557
v -7.1366 0.337632 -27.3539
vn -0.21151 0.28312 0.935471
v -7.1496 0.356972 -27.364
vn -0.261697 0.357836 0.896364
v -7.16193 0.375421 -27.3764
vn -0.309364 0.429105 0.848624
v -7.1735 0.392799 -27.3908
vn -0.354051 0.496242 0.792711
v -7.18419 0.408941 -27.4073
vn -0.395329 0.5586 0.729165
v -7.19389 0.42369 -27.4256
vn -0.432799 0.615579 0.658596
v -7.20251 0.436904 -27.4455
vn -0.466101 0.666628 0.581684
v -7.20996 0.448456 -27.4668
vn -0.494915 0.711258 0.49917
v -7.21619 0.458236 -27.4894
vn -0.518962 0.749039 0.411849
v -7.22112 0.466148 -27.5131
vn -0.538011 0.779605 0.320562
v -7.22471 0.472117 -27.5375
vn -0.551879 0.802664 0.226188
v -7.22692 0.476085 -27.5625
vn -0.560432 0.817992 0.129635
v -7.22774 0.478013 -27.5878
vn -0.563588 0.825443 0.0318337
v -7.22715 0.477884 -27.6132
vn -0.561316 0.824944 -0.066274
v -7.22516 0.475699 -27.6384
vn -0.553638 0.8165 -0.163744
v -7.2218 0.471477 -27.6632
vn -0.540629 0.800194 -0.259636
v -7.21708 0.465262 -27.6874
vn -0.522412 0.776181 -0.353028
v -7.21106 0.457111 -27.7107
vn -0.499165 0.744692 -0.443021
v -7.2038 0.447104 -27.7329
vn -0.471111 0.706032 -0.528746
v -7.19537 0.435336 -27.7538
vn -0.438519 0.660573 -0.60938
v -7.18584 0.421922 -27.7731
vn -0.401705 0.608752 -0.684145
v -7.17531 0.406991 -27.7908
vn -0.361021 0.551068 -0.752321
v -7.16387 0.390686 -27.8065
vn -0.316861 0.488077 -0.813252
v -7.15165 0.373164 -27.8203
vn -0.26965 0.420386 -0.866351
v -7.13876 0.354594 -27.8319
vn -0.219841 0.348646 -0.911107
v -7.12532 0.335155 -27.8412
vn -0.167915 0.273549 -0.947088
v -6.39638 0.805582 -27.8442
vn -0.109859 0.198891 -0.973845
v -6.38154 0.783948 -27.849
vn -0.0552366 0.119259 -0.991326
v -6.36656 0.762003 -27.8511
vn -8.20476e-05 0.0384776 -0.999259
v -6.35158 0.739957 -27.8506
vn 0.0550733 -0.042674 -0.99757
v -6.33674 0.718023 -27.8476
vn 0.109698 -0.123415 -0.986273
v -6.32218 0.696412 -27.8419
vn 0.163267 -0.202967 -0.965478
v -6.30806 0.675332 -27.8338
vn 0.215263 -0.280564 -0.935385
v -6.2945 0.654985 -27.8231
vn 0.265186 -0.355459 -0.896284
v -6.28163 0.635569 -27.8102
vn 0.312555 -0.426932 -0.848551
v -6.26958 0.61727 -27.795
vn 0.356914 -0.494292 -0.792646
v -6.25846 0.600264 -27.7777
vn 0.397836 -0.556892 -0.729107
v -6.24838 0.584715 -27.7585
vn 0.434926 -0.614129 -0.658547
v -6.23945 0.570772 -27.7377
vn 0.467828 -0.665452 -0.581644
v -6.23173 0.558571 -27.7152
vn 0.496225 -0.710366 -0.49914
v -6.22532 0.548228 -27.6915
vn 0.519842 -0.748439 -0.411829
v -6.22026 0.539843 -27.6667
vn 0.538453 -0.779304 -0.320552
v -6.21661 0.533497 -27.6411
vn 0.551879 -0.802664 -0.226188
v -6.21441 0.529251 -27.6149
vn 0.55999 -0.818293 -0.129645
v -6.21367 0.527146 -27.5883
vn 0.562707 -0.826042 -0.0318539
v -6.2144 0.527202 -27.5616
vn 0.560006 -0.825836 0.066244
v -6.2166 0.529418 -27.5352
vn 0.551911 -0.817677 0.163704
v -6.22025 0.533774 -27.5091
vn 0.538501 -0.801643 0.259587
v -6.2253 0.540227 -27.4838
vn 0.519905 -0.777888 0.352971
v -6.23171 0.548716 -27.4593
vn 0.496302 -0.746643 0.442955
v -6.23942 0.559157 -27.436
vn 0.467919 -0.708206 0.528673
v -6.24836 0.571452 -27.4141
vn 0.435031 -0.662949 0.6093
v -6.25843 0.585481 -27.3938
vn 0.397952 -0.611308 0.684059
v -6.26954 0.601109 -27.3753
vn 0.357041 -0.553779 0.75223
v -6.28159 0.618187 -27.3587
vn 0.312692 -0.490918 0.813157
v -6.29446 0.636548 -27.3443
vn 0.265331 -0.423328 0.866252
v -6.30802 0.656017 -27.3322
vn 0.215415 -0.351661 0.911005
v -6.32214 0.676406 -27.3224
vn 0.163424 -0.276608 0.946985
v -6.33669 0.697519 -27.3151
vn 0.109859 -0.198891 0.973845
v -6.35153 0.719152 -27.3103
vn 0.0552366 -0.119259 0.991326
v -6.36651 0.741097 -27.3082
vn 8.20476e-05 -0.0384776 0.999259
v -6.3815 0.763143 -27.3086
vn -0.0550733 0.042674 0.99757
v -6.39634 0.785077 -27.3117
vn -0.109698 0.123415 0.986273
v -6.41089 0.806689 -27.3174
vn -0.163267 0.202967 0.965478
v -6.42502 0.827769 -27.3255
vn -0.215263 0.280564 0.935385
v -6.43858 0.848115 -27.3362
vn -0.265186 0.355459 0.896284
v -6.45145 0.867532 -27.3491
vn -0.312555 0.426932 0.848551
v -6.4635 0.885831 -27.3643
vn -0.356914 0.494292 0.792646
v -6.47461 0.902837 -27.3816
vn -0.397836 0.556892 0.729107
v -6.48469 0.918386 -27.4007
vn -0.434926 0.614129 0.658547
v -6.49363 0.932329 -27.4216
vn -0.467828 0.665452 0.581644
v -6.50134 0.94453 -27.444
vn -0.496225 0.710366 0.49914
v -6.50776 0.954873 -27.4678
vn -0.519842 0.748439 0.411829
v -6.51281 0.963258 -27.4926
vn -0.538453 0.779304 0.320552
v -6.51646 0.969604 -27.5182
vn -0.551879 0.802664 0.226188
v -6.51867 0.97385 -27.5444
vn -0.55999 0.818293 0.129645
v -6.5194 0.975955 -27.571
vn -0.562707 0.826042 0.0318539
v -6.51867 0.975899 -27.5976
vn -0.560006 0.825836 -0.066244
v -6.51647 0.973682 -27.6241
vn -0.551911 0.817677 -0.163704
v -6.51283 0.969327 -27.6502
vn -0.538501 0.801643 -0.259587
v -6.50778 0.962873 -27.6755
vn -0.519905 0.777888 -0.352971
v -6.50136 0.954385 -27.7
vn -0.496302 0.746643 -0.442955
v -6.49365 0.943943 -27.7233
vn -0.467919 0.708206 -0.528673
v -6.48472 0.931649 -27.7452
vn -0.435031 0.662949 -0.6093
v -6.47465 0.91762 -27.7655
vn -0.397952 0.611308 -0.684059
v -6.46353 0.901991 -27.784
vn -0.357041 0.553779 -0.75223
v -6.45148 0.884914 -27.8005
vn -0.312692 0.490918 -0.813157
v -6.43862 0.866553 -27.815
vn -0.265331 0.423328 -0.866252
v -6.42506 0.847084 -27.8271
vn -0.215415 0.351661 -0.911005
v -6.41093 0.826694 -27.8369
vn -0.163424 0.276608 -0.946985
f 1 66 2 
f 1 65 66 
f 2 67 3 
f 2 66 67 
f 3 68 4 
f 3 67 68 
f 4 69 5 
f 4 68 69 
f 5 70 6 
f 5 69 70 
f 6 71 7 
f 6 70 71 
f 7 72 8 
f 7 71 72 
f 8 73 9 
f 8 72 73 
f 9 74 10 
f 9 73 74 
f 10 75 11 
f 10 74 75 
f 11 76 12 
f 11 75 76 
f 12 77 13 
f 12 76 77 
f 13 78 14 
f 13 77 78 
f 14 79 15 
f 14 78 79 
f 15 80 16 
f 15 79 80 
f 16 81 17 
f 16 80 81 
f 17 82 18 
f 17 81 82 
f 18 83 19 
f 18 82 83 
f 19 84 20 
f 19 83 84 
f 20 85 21 
f 20 84 85 
f 21 86 22 
f 21 85 86 
f 22 87 23 
f 22 86 87 
f 23 88 24 
f 23 87 88 
f 24 89 25 
f 24 88 89 
f 25 90 26 
f 25 89 90 
f 26 91 27 
f 26 90 91 
f 27 92 28 
f 27 91 92 
f 28 93 29 
f 28 92 93 
f 29 94 30 
f 29 93 94 
f 30 95 31 
f 30 94 95 
f 31 96 32 
f 31 95 96 
f 32 97 33 
f 32 96 97 
f 33 98 34 
f 33 97 98 
f 34 99 35 
f 34 98 99 
f 35 100 36 
f 35 99 100 
f 36 101 37 
f 36 100 101 
f 37 102 38 
f 37 101 102 
f 38 103 39 
f 38 102 103 
f 39 104 40 
f 39 103 104 
f 40 105 41 
f 40 104 105 
f 41 106 42 
f 41 105 106 
f 42 107 43 
f 42 106 107 
f 43 108 44 
f 43 107 108 
f 44 109 45 
f 44 108 109 
f 45 110 46 
f 45 109 110 
f 46 111 47 
f 46 110 111 
f 47 112 48 
f 47 111 112 
f 48 113 49 
f 48 112 113 
f 49 114 50 
f 49 113 114 
f 50 115 51 
f 50 114 115 
f 51 116 52 
f 51 115 116 
f 52 117 53 
f 52 116 117 
f 53 118 54 
f 53 117 118 
f 54 119 55 
f 54 118 119 
f 55 120 56 
f 55 119 120 
f 56 121 57 
f 56 120 121 
f 57 122 58 
f 57 121 122 
f 58 123 59 
f 58 122 123 
f 59 124 60 
f 59 123 124 
f 60 125 61 
f 60 124 125 
f 61 126 62 
f 61 125 126 
f 62 127 63 
f 62 126 127 
f 63 128 64 
f 63 127 128 
f 64 65 1 
f 64 128 65 
f 65 130 66 
f 65 129 130 
f 66 131 67 
f 66 130 131 
f 67 132 68 
f 67 131 132 
f 68 133 69 
f 68 132 133 
f 69 134 70 
f 69 133 134 
f 70 135 71 
f 70 134 135 
f 71 136 72 
f 71 135 136 
f 72 137 73 
f 72 136 137 
f 73 138 74 
f 73 137 138 
f 74 139 75 
f 74 138 139 
f 75 140 76 
f 75 139 140 
f 76 141 77 
f 76 140 141 
f 77 142 78 
f 77 141 142 
f 78 143 79 
f 78 142 143 
f 79 144 80 
f 79 143 144 
f 80 145 81 
f 80 144 145 
f 81 146 82 
f 81 145 146 
f 82 147 83 
f 82 146 147 
f 83 148 84 
f 83 147 148 
f 84 149 85 
f 84 148 149 
f 85 150 86 
f 85 149 150 
f 86 151 87 
f 86 150 151 
f 87 152 88 
f 87 151 152 
f 88 153 89 
f 88 152 153 
f 89 154 90 
f 89 153 154 
f 90 155 91 
f 90 154 155 
f 91 156 92 
f 91 155 156 
f 92 157 93 
f 92 156 157 
f 93 158 94 
f 93 157 158 
f 94 159 95 
f 94 158 159 
f 95 160 96 
f 95 159 160 
f 96 161 97 
f 96 160 161 
f 97 162 98 
f 97 161 162 
f 98 163 99 
f 98 162 163 
f 99 164 100 
f 99 163 164 
f 100 165 101 
f 100 164 165 
f 101 166 102 
f 101 165 166 
f 102 167 103 
f 102 166 167 
f 103 168 104 
f 103 167 168 
f 104 169 105 
f 104 168 169 
f 105 170 106 
f 105 169 170 
f 106 171 107 
f 106 170 171 
f 107 172 108 
f 107 171 172 
f 108 173 109 
f 108 172 173 
f 109 174 110 
f 109 173 174 
f 110 175 111 
f 110 174 175 
f 111 176 112 
f 111 175 176 
f 112 177 113 
f 112 176 177 
f 113 178 114 
f 113 177 178 
f 114 179 115 
f 114 178 179 
f 115 180 116 
f 115 179 180 
f 116 181 117 
f 116 180 181 
f 117 182 118 
f 117 181 182 
f 118 183 119 
f 118 182 183 
f 119 184 120 
f 119 183 184 
f 120 185 121 
f 120 184 185 
f 121 186 122 
f 121 185 186 
f 122 187 123 
f 122 186 187 
f 123 188 124 
f 123 187 188 
f 124 189 125 
f 124 188 189 
f 125 190 126 
f 125 189 190 
f 126 191 127 
f 126 190 191 
f 127 192 128 
f 127 191 192 
f 128 129 65 
f 128 192 129 
f 129 194 130 
f 129 193 194 
f 130 195 131 
f 130 194 195 
f 131 196 132 
f 131 195 196 
f 132 197 133 
f 132 196 197 
f 133 198 134 
f 133 197 198 
f 134 199 135 
f 134 198 199 
f 135 200 136 
f 135 199 200 
f 136 201 137 
f 136 200 201 
f 137 202 138 
f 137 201 202 
f 138 203 139 
f 138 202 203 
f 139 204 140 
f 139 203 204 
f 140 205 141 
f 140 204 205 
f 141 206 142 
f 141 205 206 
f 142 207 143 
f 142 206 207 
f 143 208 144 
f 143 207 208 
f 144 209 145 
f 144 208 209 
f 145 210 146 
f 145 209 210 
f 146 211 147 
f 146 210 211 
f 147 212 148 
f 147 211 212 
f 148 213 149 
f 148 212 213 
f 149 214 150 
f 149 213 214 
f 150 215 151 
f 150 214 215 
f 151 216 152 
f 151 215 216 
f 152 217 153 
f 152 216 217 
f 153 218 154 
f 153 217 218 
f 154 219 155 
f 154 218 219 
f 155 220 156 
f 155 219 220 
f 156 221 157 
f 156 220 221 
f 157 222 158 
f 157 221 222 
f 158 223 159 
f 158 222 223 
f 159 224 160 
f 159 223 224 
f 160 225 161 
f 160 224 225 
f 161 226 162 
f 161 225 226 
f 162 227 163 
f 162 226 227 
f 163 228 164 
f 163 227 228 
f 164 229 165 
f 164 228 229 
f 165 230 166 
f 165 229 230 
f 166 231 167 
f 166 230 231 
f 167 232 168 
f 167 231 232 
f 168 233 169 
f 168 232 233 
f 169 234 170 
f 169 233 234 
f 170 235 171 
f 170 234 235 
f 171 236 172 
f 171 235 236 
f 172 237 173 
f 172 236 237 
f 173 238 174 
f 173 237 238 
f 174 239 175 
f 174 238 239 
f 175 240 176 
f 175 239 240 
f 176 241 177 
f 176 240 241 
f 177 242 178 
f 177 241 242 
f 178 243 179 
f 178 242 243 
f 179 244 180 
f 179 243 244 
f 180 245 181 
f 180 244 245 
f 181 246 182 
f 181 245 246 
f 182 247 183 
f 182 246 247 
f 183 248 184 
f 183 247 248 
f 184 249 185 
f 184 248 249 
f 185 250 186 
f 185 249 250 
f 186 251 187 
f 186 250 251 
f 187 252 188 
f 187 251 252 
f 188 253 189 
f 188 252 253 
f 189 254 190 
f 189 253 254 
f 190 255 191 
f 190 254 255 
f 191 256 192 
f 191 255 256 
f 192 193 129 
f 192 256 193 
f 193 258 194 
f 193 257 258 
f 194 259 195 
f 194 258 259 
f 195 260 196 
f 195 259 260 
f 196 261 197 
f 196 260 261 
f 197 262 198 
f 197 261 262 
f 198 263 199 
f 198 262 263 
f 199 264 200 
f 199 263 264 
f 200 265 201 
f 200 264 265 
f 201 266 202 
f 201 265 266 
f 202 267 203 
f 202 266 267 
f 203 268 204 
f 203 267 268 
f 204 269 205 
f 204 268 269 
f 205 270 206 
f 205 269 270 
f 206 271 207 
f 206 270 271 
f 207 272 208 
f 207 271 272 
f 208 273 209 
f 208 272 273 
f 209 274 210 
f 209 273 274 
f 210 275 211 
f 210 274 275 
f 211 276 212 
f 211 275 276 
f 212 277 213 
f 212 276 277 
f 213 278 214 
f 213 277 278 
f 214 279 215 
f 214 278 279 
f 215 280 216 
f 215 279 280 
f 216 281 217 
f 216 280 281 
f 217 282 218 
f 217 281 282 
f 218 283 219 
f 218 282 283 
f 219 284 220 
f 219 283 284 
f 220 285 221 
f 220 284 285 
f 221 286 222 
f 221 285 286 
f 222 287 223 
f 222 286 287 
f 223 288 224 
f 223 287 288 
f 224 289 225 
f 224 288 289 
f 225 290 226 
f 225 289 290 
f 226 291 227 
f 226 290 291 
f 227 292 228 
f 227 291 292 
f 228 293 229 
f 228 292 293 
f 229 294 230 
f 229 293 294 
f 230 295 231 
f 230 294 295 
f 231 296 232 
f 231 295 296 
f 232 297 233 
f 232 296 297 
f 233 298 234 
f 233 297 298 
f 234 299 235 
f 234 298 299 
f 235 300 236 
f 235 299 300 
f 236 301 237 
f 236 300 301 
f 237 302 238 
f 237 301 302 
f 238 303 239 
f 238 302 303 
f 239 304 240 
f 239 303 304 
f 240 305 241 
f 240 304 305 
f 241 306 242 
f 241 305 306 
f 242 307 243 
f 242 306 307 
f 243 308 244 
f 243 307 308 
f 244 309 245 
f 244 308 309 
f 245 310 246 
f 245 309 310 
f 246 311 247 
f 246 310 311 
f 247 312 248 
f 247 311 312 
f 248 313 249 
f 248 312 313 
f 249 314 250 
f 249 313 314 
f 250 315 251 
f 250 314 315 
f 251 316 252 
f 251 315 316 
f 252 317 253 
f 252 316 317 
f 253 318 254 
f 253 317 318 
f 254 319 255 
f 254 318 319 
f 255 320 256 
f 255 319 320 
f 256 257 193 
f 256 320 257 
f 257 322 258 
f 257 321 322 
f 258 323 259 
f 258 322 323 
f 259 324 260 
f 259 323 324 
f 260 325 261 
f 260 324 325 
f 261 326 262 
f 261 325 326 
f 262 327 263 
f 262 326 327 
f 263 328 264 
f 263 327 328 
f 264 329 265 
f 264 328 329 
f 265 330 266 
f 265 329 330 
f 266 331 267 
f 266 330 331 
f 267 332 268 
f 267 331 332 
f 268 333 269 
f 268 332 333 
f 269 334 270 
f 269 333 334 
f 270 335 271 
f 270 334 335 
f 271 336 272 
f 271 335 336 
f 272 337 273 
f 272 336 337 
f 273 338 274 
f 273 337 338 
f 274 339 275 
f 274 338 339 
f 275 340 276 
f 275 339 340 
f 276 341 277 
f 276 340 341 
f 277 342 278 
f 277 341 342 
f 278 343 279 
f 278 342 343 
f 279 344 280 
f 279 343 344 
f 280 345 281 
f 280 344 345 
f 281 346 282 
f 281 345 346 
f 282 347 283 
f 282 346 347 
f 283 348 284 
f 283 347 348 
f 284 349 285 
f 284 348 349 
f 285 350 286 
f 285 349 350 
f 286 351 287 
f 286 350 351 
f 287 352 288 
f 287 351 352 
f 288 353 289 
f 288 352 353 
f 289 354 290 
f 289 353 354 
f 290 355 291 
f 290 354 355 
f 291 356 292 
f 291 355 356 
f 292 357 293 
f 292 356 357 
f 293 358 294 
f 293 357 358 
f 294 359 295 
f 294 358 359 
f 295 360 296 
f 295 359 360 
f 296 361 297 
f 296 360 361 
f 297 362 298 
f 297 361 362 
f 298 363 299 
f 298 362 363 
f 299 364 300 
f 299 363 364 
f 300 365 301 
f 300 364 365 
f 301 366 302 
f 301 365 366 
f 302 367 303 
f 302 366 367 
f 303 368 304 
f 303 367 368 
f 304 369 305 
f 304 368 369 
f 305 370 306 
f 305 369 370 
f 306 371 307 
f 306 370 371 
f 307 372 308 
f 307 371 372 
f 308 373 309 
f 308 372 373 
f 309 374 310 
f 309 373 374 
f 310 375 311 
f 310 374 375 
f 311 376 312 
f 311 375 376 
f 312 377 313 
f 312 376 377 
f 313 378 314 
f 313 377 378 
f 314 379 315 
f 314 378 379 
f 315 380 316 
f 315 379 380 
f 316 381 317 
f 316 380 381 
f 317 382 318 
f 317 381 382 
f 318 383 319 
f 318 382 383 
f 319 384 320 
f 319 383 384 
f 320 321 257 
f 320 384 321 
f 321 386 322 
f 321 385 386 
f 322 387 323 
f 322 386 387 
f 323 388 324 
f 323 387 388 
f 324 389 325 
f 324 388 389 
f 325 390 326 
f 325 389 390 
f 326 391 327 
f 326 390 391 
f 327 392 328 
f 327 391 392 
f 328 393 329 
f 328 392 393 
f 329 394 330 
f 329 393 394 
f 330 395 331 
f 330 394 395 
f 331 396 332 
f 331 395 396 
f 332 397 333 
f 332 396 397 
f 333 398 334 
f 333 397 398 
f 334 399 335 
f 334 398 399 
f 335 400 336 
f 335 399 400 
f 336 401 337 
f 336 400 401 
f 337 402 338 
f 337 401 402 
f 338 403 339 
f 338 402 403 
f 339 404 340 
f 339 403 404 
f 340 405 341 
f 340 404 405 
f 341 406 342 
f 341 405 406 
f 342 407 343 
f 342 406 407 
f 343 408 344 
f 343 407 408 
f 344 409 345 
f 344 408 409 
f 345 410 346 
f 345 409 410 
f 346 411 347 
f 346 410 411 
f 347 412 348 
f 347 411 412 
f 348 413 349 
f 348 412 413 
f 349 414 350 
f 349 413 414 
f 350 415 351 
f 350 414 415 
f 351 416 352 
f 351 415 416 
f 352 417 353 
f 352 416 417 
f 353 418 354 
f 353 417 418 
f 354 419 355 
f 354 418 419 
f 355 420 356 
f 355 419 420 
f 356 421 357 
f 356 420 421 
f 357 422 358 
f 357 421 422 
f 358 423 359 
f 358 422 423 
f 359 424 360 
f 359 423 424 
f 360 425 361 
f 360 424 425 
f 361 426 362 
f 361 425 426 
f 362 427 363 
f 362 426 427 
f 363 428 364 
f 363 427 428 
f 364 429 365 
f 364 428 429 
f 365 430 366 
f 365 429 430 
f 366 431 367 
f 366 430 431 
f 367 432 368 
f 367 431 432 
f 368 433 369 
f 368 432 433 
f 369 434 370 
f 369 433 434 
f 370 435 371 
f 370 434 435 
f 371 436 372 
f 371 435 436 
f 372 437 373 
f 372 436 437 
f 373 438 374 
f 373 437 438 
f 374 439 375 
f 374 438 439 
f 375 440 376 
f 375 439 440 
f 376 441 377 
f 376 440 441 
f 377 442 378 
f 377 441 442 
f 378 443 379 
f 378 442 443 
f 379 444 380 
f 379 443 444 
f 380 445 381 
f 380 444 445 
f 381 446 382 
f 381 445 446 
f 382 447 383 
f 382 446 447 
f 383 448 384 
f 383 447 448 
f 384 385 321 
f 384 448 385 
f 385 450 386 
f 385 449 450 
f 386 451 387 
f 386 450 451 
f 387 452 388 
f 387 451 452 
f 388 453 389 
f 388 452 453 
f 389 454 390 
f 389 453 454 
f 390 455 391 
f 390 454 455 
f 391 456 392 
f 391 455 456 
f 392 457 393 
f 392 456 457 
f 393 458 394 
f 393 457 458 
f 394 459 395 
f 394 458 459 
f 395 460 396 
f 395 459 460 
f 396 461 397 
f 396 460 461 
f 397 462 398 
f 397 461 462 
f 398 463 399 
f 398 462 463 
f 399 464 400 
f 399 463 464 
f 400 465 401 
f 400 464 465 
f 401 466 402 
f 401 465 466 
f 402 467 403 
f 402 466 467 
f 403 468 404 
f 403 467 468 
f 404 469 405 
f 404 468 469 
f 405 470 406 
f 405 469 470 
f 406 471 407 
f 406 470 471 
f 407 472 408 
f 407 471 472 
f 408 473 409 
f 408 472 473 
f 409 474 410 
f 409 473 474 
f 410 475 411 
f 410 474 475 
f 411 476 412 
f 411 475 476 
f 412 477 413 
f 412 476 477 
f 413 478 414 
f 413 477 478 
f 414 479 415 
f 414 478 479 
f 415 480 416 
f 415 479 480 
f 416 481 417 
f 416 480 481 
f 417 482 418 
f 417 481 482 
f 418 483 419 
f 418 482 483 
f 419 484 420 
f 419 483 484 
f 420 485 421 
f 420 484 485 
f 421 486 422 
f 421 485 486 
f 422 487 423 
f 422 486 487 
f 423 488 424 
f 423 487 488 
f 424 489 425 
f 424 488 489 
f 425 490 426 
f 425 489 490 
f 426 491 427 
f 426 490 491 
f 427 492 428 
f 427 491 492 
f 428 493 429 
f 428 492 493 
f 429 494 430 
f 429 493 494 
f 430 495 431 
f 430 494 495 
f 431 496 432 
f 431 495 496 
f 432 497 433 
f 432 496 497 
f 433 498 434 
f 433 497 498 
f 434 499 435 
f 434 498 499 
f 435 500 436 
f 435 499 500 
f 436 501 437 
f 436 500 501 
f 437 502 438 
f 437 501 502 
f 438 503 439 
f 438 502 503 
f 439 504 440 
f 439 503 504 
f 440 505 441 
f 440 504 505 
f 441 506 442 
f 441 505 506 
f 442 507 443 
f 442 506 507 
f 443 508 444 
f 443 507 508 
f 444 509 445 
f 444 508 509 
f 445 510 446 
f 445 509 510 
f 446 511 447 
f 446 510 511 
f 447 512 448 
f 447 511 512 
f 448 449 385 
f 448 512 449 
f 449 514 450 
f 449 513 514 
f 450 515 451 
f 450 514 515 
f 451 516 452 
f 451 515 516 
f 452 517 453 
f 452 516 517 
f 453 518 454 
f 453 517 518 
f 454 519 455 
f 454 518 519 
f 455 520 456 
f 455 519 520 
f 456 521 457 
f 456 520 521 
f 457 522 458 
f 457 521 522 
f 458 523 459 
f 458 522 523 
f 459 524 460 
f 459 523 524 
f 460 525 461 
f 460 524 525 
f 461 526 462 
f 461 525 526 
f 462 527 463 
f 462 526 527 
f 463 528 464 
f 463 527 528 
f 464 529 465 
f 464 528 529 
f 465 530 466 
f 465 529 530 
f 466 531 467 
f 466 530 531 
f 467 532 468 
f 467 531 532 
f 468 533 469 
f 468 532 533 
f 469 534 470 
f 469 533 534 
f 470 535 471 
f 470 534 535 
f 471 536 472 
f 471 535 536 
f 472 537 473 
f 472 536 537 
f 473 538 474 
f 473 537 538 
f 474 539 475 
f 474 538 539 
f 475 540 476 
f 475 539 540 
f 476 541 477 
f 476 540 541 
f 477 542 478 
f 477 541 542 
f 478 543 479 
f 478 542 543 
f 479 544 480 
f 479 543 544 
f 480 545 481 
f 480 544 545 
f 481 546 482 
f 481 545 546 
f 482 547 483 
f 482 546 547 
f 483 548 484 
f 483 547 548 
f 484 549 485 
f 484 548 549 
f 485 550 486 
f 485 549 550 
f 486 551 487 
f 486 550 551 
f 487 552 488 
f 487 551 552 
f 488 553 489 
f 488 552 553 
f 489 554 490 
f 489 553 554 
f 490 555 491 
f 490 554 555 
f 491 556 492 
f 491 555 556 
f 492 557 493 
f 492 556 557 
f 493 558 494 
f 493 557 558 
f 494 559 495 
f 494 558 559 
f 495 560 496 
f 495 559 560 
f 496 561 497 
f 496 560 561 
f 497 562 498 
f 497 561 562 
f 498 563 499 
f 498 562 563 
f 499 564 500 
f 499 563 564 
f 500 565 501 
f 500 564 565 
f 501 566 502 
f 501 565 566 
f 502 567 503 
f 502 566 567 
f 503 568 504 
f 503 567 568 
f 504 569 505 
f 504 568 569 
f 505 570 506 
f 505 569 570 
f 506 571 507 
f 506 570 571 
f 507 572 508 
f 507 571 572 
f 508 573 509 
f 508 572 573 
f 509 574 510 
f 509 573 574 
f 510 575 511 
f 510 574 575 
f 511 576 512 
f 511 575 576 
f 512 513 449 
f 512 576 513 
f 513 578 514 
f 513 577 578 
f 514 579 515 
f 514 578 579 
f 515 580 516 
f 515 579 580 
f 516 581 517 
f 516 580 581 
f 517 582 518 
f 517 581 582 
f 518 583 519 
f 518 582 583 
f 519 584 520 
f 519 583 584 
f 520 585 521 
f 520 584 585 
f 521 586 522 
f 521 585 586 
f 522 587 523 
f 522 586 587 
f 523 588 524 
f 523 587 588 
f 524 589 525 
f 524 588 589 
f 525 590 526 
f 525 589 590 
f 526 591 527 
f 526 590 591 
f 527 592 528 
f 527 591 592 
f 528 593 529 
f 528 592 593 
f 529 594 530 
f 529 593 594 
f 530 595 531 
f 530 594 595 
f 531 596 532 
f 531 595 596 
f 532 597 533 
f 532 596 597 
f 533 598 534 
f 533 597 598 
f 534 599 535 
f 534 598 599 
f 535 600 536 
f 535 599 600 
f 536 601 537 
f 536 600 601 
f 537 602 538 
f 537 601 602 
f 538 603 539 
f 538 602 603 
f 539 604 540 
f 539 603 604 
f 540 605 541 
f 540 604 605 
f 541 606 542 
f 541 605 606 
f 542 607 543 
f 542 606 607 
f 543 608 544 
f 543 607 608 
f 544 609 545 
f 544 608 609 
f 545 610 546 
f 545 609 610 
f 546 611 547 
f 546 610 611 
f 547 612 548 
f 547 611 612 
f 548 613 549 
f 548 612 613 
f 549 614 550 
f 549 613 614 
f 550 615 551 
f 550 614 615 
f 551 616 552 
f 551 615 616 
f 552 617 553 
f 552 616 617 
f 553 618 554 
f 553 617 618 
f 554 619 555 
f 554 618 619 
f 555 620 556 
f 555 619 620 
f 556 621 557 
f 556 620 621 
f 557 622 558 
f 557 621 622 
f 558 623 559 
f 558 622 623 
f 559 624 560 
f 559 623 624 
f 560 625 561 
f 560 624 625 
f 561 626 562 
f 561 625 626 
f 562 627 563 
f 562 626 627 
f 563 628 564 
f 563 627 628 
f 564 629 565 
f 564 628 629 
f 565 630 566 
f 565 629 630 
f 566 631 567 
f 566 630 631 
f 567 632 568 
f 567 631 632 
f 568 633 569 
f 568 632 633 
f 569 634 570 
f 569 633 634 
f 570 635 571 
f 570 634 635 
f 571 636 572 
f 571 635 636 
f 572 637 573 
f 572 636 637 
f 573 638 574 
f 573 637 638 
f 574 639 575 
f 574 638 639 
f 575 640 576 
f 575 639 640 
f 576 577 513 
f 576 640 577 
