# Branch
v 1.70387 2.38485 -27.8368
vn -0.591312 0.118755 -0.797651
v 1.67986 2.38911 -27.8164
vn -0.665438 0.131921 -0.734703
v 1.65793 2.39296 -27.7938
vn -0.733156 0.143817 -0.664679
v 1.63829 2.39637 -27.769
vn -0.793813 0.154327 -0.588255
v 1.62112 2.39929 -27.7424
vn -0.846826 0.163351 -0.506164
v 1.60659 2.4017 -27.7143
vn -0.891683 0.170802 -0.4192
v 1.59484 2.40358 -27.6848
vn -0.927953 0.176608 -0.328198
v 1.58599 2.40491 -27.6543
vn -0.955285 0.180713 -0.234035
v 1.58012 2.40568 -27.6231
vn -0.973418 0.183078 -0.137618
v 1.57728 2.40587 -27.5914
vn -0.982177 0.18368 -0.0398766
v 1.57751 2.4055 -27.5596
vn -0.981476 0.182513 0.0582493
v 1.5808 2.40455 -27.528
vn -0.971324 0.179588 0.155814
v 1.58711 2.40304 -27.4969
vn -0.951817 0.174933 0.251879
v 1.5964 2.40099 -27.4666
vn -0.923143 0.168594 0.345517
v 1.60857 2.39841 -27.4373
vn -0.88558 0.160631 0.435828
v 1.62349 2.39533 -27.4095
vn -0.839487 0.151122 0.521942
v 1.64104 2.39178 -27.3832
vn -0.78531 0.140157 0.603029
v 1.66104 2.38779 -27.3588
vn -0.72357 0.127842 0.678309
v 1.68329 2.3834 -27.3365
vn -0.654861 0.114295 0.747056
v 1.70759 2.37866 -27.3166
vn -0.579846 0.0996486 0.808609
v 1.73369 2.3736 -27.2992
vn -0.499247 0.0840421 0.862375
v 1.76135 2.36829 -27.2845
vn -0.413839 0.0676262 0.907835
v 1.7903 2.36276 -27.2726
vn -0.324446 0.050559 0.944552
v 1.82027 2.35707 -27.2636
vn -0.231929 0.033005 0.972173
v 1.85095 2.35129 -27.2577
vn -0.137177 0.015133 0.990431
v 1.88207 2.34545 -27.2549
vn -0.0411052 -0.00288465 0.999151
v 1.91331 2.33962 -27.2552
vn 0.0553629 -0.0208745 0.998248
v 1.94438 2.33386 -27.2586
vn 0.151298 -0.0386634 0.987732
v 1.97498 2.32822 -27.2651
vn 0.245776 -0.0560799 0.967703
v 2.00482 2.32276 -27.2746
vn 0.337887 -0.0729564 0.938355
v 2.03359 2.31752 -27.287
vn 0.426743 -0.0891302 0.89997
v 2.06104 2.31256 -27.3023
vn 0.511491 -0.104446 0.852918
v 2.08689 2.30792 -27.3202
vn 0.591312 -0.118755 0.797651
v 2.1109 2.30366 -27.3405
vn 0.665438 -0.131921 0.734703
v 2.13283 2.29981 -27.3632
vn 0.733156 -0.143817 0.664679
v 2.15248 2.2964 -27.388
vn 0.793813 -0.154327 0.588255
v 2.16965 2.29348 -27.4146
vn 0.846826 -0.163351 0.506164
v 2.18418 2.29107 -27.4427
vn 0.891683 -0.170802 0.4192
v 2.19592 2.28919 -27.4722
vn 0.927953 -0.176608 0.328198
v 2.20477 2.28786 -27.5027
vn 0.955285 -0.180713 0.234035
v 2.21065 2.28709 -27.5339
vn 0.973418 -0.183078 0.137618
v 2.21348 2.2869 -27.5656
vn 0.982177 -0.18368 0.0398766
v 2.21326 2.28727 -27.5974
vn 0.981476 -0.182513 -0.0582493
v 2.20997 2.28822 -27.629
vn 0.971324 -0.179588 -0.155814
v 2.20365 2.28973 -27.6601
vn 0.951817 -0.174933 -0.251879
v 2.19436 2.29178 -27.6904
vn 0.923143 -0.168594 -0.345517
v 2.1822 2.29436 -27.7196
vn 0.88558 -0.160631 -0.435828
v 2.16727 2.29744 -27.7475
vn 0.839487 -0.151122 -0.521942
v 2.14972 2.30099 -27.7738
vn 0.78531 -0.140157 -0.603029
v 2.12973 2.30498 -27.7982
vn 0.72357 -0.127842 -0.678309
v 2.10748 2.30937 -27.8204
vn 0.654861 -0.114295 -0.747056
v 2.08318 2.31411 -27.8404
vn 0.579846 -0.0996486 -0.808609
v 2.05708 2.31917 -27.8578
vn 0.499247 -0.0840421 -0.862375
v 2.02941 2.32448 -27.8725
vn 0.413839 -0.0676262 -0.907835
v 2.00046 2.33001 -27.8844
vn 0.324446 -0.050559 -0.944552
v 1.9705 2.3357 -27.8934
vn 0.231929 -0.033005 -0.972173
v 1.93981 2.34148 -27.8993
vn 0.137177 -0.015133 -0.990431
v 1.9087 2.34732 -27.9021
vn 0.0411052 0.00288465 -0.999151
v 1.87745 2.35315 -27.9018
vn -0.0553629 0.0208745 -0.998248
v 1.84638 2.35891 -27.8984
vn -0.151298 0.0386634 -0.987732
v 1.81578 2.36455 -27.8919
vn -0.245776 0.0560799 -0.967703
v 1.78595 2.37001 -27.8824
vn -0.337887 0.0729564 -0.938355
v 1.75717 2.37525 -27.87
vn -0.426743 0.0891302 -0.89997
v 1.72972 2.38021 -27.8547
vn -0.511491 0.104446 -0.852918
v 1.48356 1.19584 -27.8474
vn -0.592436 0.112667 -0.7977
v 1.45946 1.20013 -27.8269
vn -0.666557 0.125862 -0.734752
v 1.43745 1.20403 -27.8042
vn -0.734259 0.137845 -0.664728
v 1.41774 1.20749 -27.7793
vn -0.794889 0.148501 -0.588301
v 1.40051 1.21049 -27.7526
vn -0.847865 0.157726 -0.50621
v 1.38595 1.213 -27.7243
vn -0.892674 0.165432 -0.419243
v 1.37417 1.21498 -27.6948
vn -0.928887 0.171546 -0.328238
v 1.36531 1.21643 -27.6641
vn -0.956155 0.176007 -0.234073
v 1.35944 1.21733 -27.6328
vn -0.974213 0.178773 -0.137653
v 1.35661 1.21767 -27.601
vn -0.98289 0.179817 -0.0399077
v 1.35687 1.21745 -27.5691
vn -0.982101 0.17913 0.0582221
v 1.3602 1.21666 -27.5374
vn -0.971854 0.176718 0.155791
v 1.36658 1.21533 -27.5062
vn -0.952247 0.172603 0.25186
v 1.37593 1.21345 -27.4757
vn -0.92347 0.166827 0.345503
v 1.38818 1.21105 -27.4464
vn -0.885799 0.159444 0.435819
v 1.4032 1.20815 -27.4184
vn -0.839597 0.150525 0.521937
v 1.42085 1.20478 -27.392
vn -0.78531 0.140157 0.603029
v 1.44096 1.20097 -27.3675
vn -0.72346 0.128438 0.678314
v 1.46333 1.19676 -27.3452
vn -0.654642 0.115483 0.747066
v 1.48776 1.19218 -27.3251
vn -0.57952 0.101416 0.808623
v 1.514 1.18729 -27.3077
vn -0.498816 0.0863721 0.862393
v 1.5418 1.18213 -27.2929
vn -0.413309 0.0704964 0.907858
v 1.57089 1.17675 -27.2809
vn -0.323822 0.0539417 0.944579
v 1.601 1.1712 -27.272
vn -0.231215 0.0368675 0.972204
v 1.63183 1.16553 -27.266
vn -0.136382 0.0194383 0.990466
v 1.66309 1.1598 -27.2632
vn -0.0402361 0.0018219 0.999189
v 1.69447 1.15407 -27.2635
vn 0.0562977 -0.0158121 0.998289
v 1.72568 1.14839 -27.2669
vn 0.152289 -0.0332938 0.987775
v 1.75641 1.14281 -27.2734
vn 0.246814 -0.0504548 0.967748
v 1.78637 1.13738 -27.283
vn 0.338962 -0.0671299 0.938402
v 1.81527 1.13217 -27.2954
vn 0.427846 -0.0831586 0.900018
v 1.84283 1.12722 -27.3107
vn 0.512609 -0.0983864 0.852966
v 1.86878 1.12258 -27.3287
vn 0.592436 -0.112667 0.7977
v 1.89288 1.11829 -27.3492
vn 0.666557 -0.125862 0.734752
v 1.91489 1.11439 -27.3719
vn 0.734259 -0.137845 0.664728
v 1.9346 1.11093 -27.3968
vn 0.794889 -0.148501 0.588301
v 1.95183 1.10793 -27.4235
vn 0.847865 -0.157726 0.50621
v 1.9664 1.10542 -27.4517
vn 0.892674 -0.165432 0.419243
v 1.97817 1.10344 -27.4813
vn 0.928887 -0.171546 0.328238
v 1.98703 1.10199 -27.5119
vn 0.956155 -0.176007 0.234073
v 1.99291 1.10109 -27.5433
vn 0.974213 -0.178773 0.137653
v 1.99573 1.10075 -27.5751
vn 0.98289 -0.179817 0.0399077
v 1.99547 1.10097 -27.607
vn 0.982101 -0.17913 -0.0582221
v 1.99214 1.10176 -27.6387
vn 0.971854 -0.176718 -0.155791
v 1.98576 1.10309 -27.6699
vn 0.952247 -0.172603 -0.25186
v 1.97641 1.10497 -27.7004
vn 0.92347 -0.166827 -0.345503
v 1.96416 1.10737 -27.7297
vn 0.885799 -0.159444 -0.435819
v 1.94914 1.11027 -27.7577
vn 0.839597 -0.150525 -0.521937
v 1.93149 1.11364 -27.7841
vn 0.78531 -0.140157 -0.603029
v 1.91138 1.11745 -27.8086
vn 0.72346 -0.128438 -0.678314
v 1.88901 1.12166 -27.8309
vn 0.654642 -0.115483 -0.747066
v 1.86458 1.12624 -27.8509
vn 0.57952 -0.101416 -0.808623
v 1.83835 1.13113 -27.8684
vn 0.498816 -0.0863721 -0.862393
v 1.81055 1.13629 -27.8832
vn 0.413309 -0.0704964 -0.907858
v 1.78145 1.14167 -27.8951
vn 0.323822 -0.0539417 -0.944579
v 1.75134 1.14722 -27.9041
vn 0.231215 -0.0368675 -0.972204
v 1.72051 1.15289 -27.9101
vn 0.136382 -0.0194383 -0.990466
v 1.68925 1.15862 -27.9129
vn 0.0402361 -0.0018219 -0.999189
v 1.65787 1.16435 -27.9126
vn -0.0562977 0.0158121 -0.998289
v 1.62666 1.17003 -27.9092
vn -0.152289 0.0332938 -0.987775
v 1.59593 1.17561 -27.9027
vn -0.246814 0.0504548 -0.967748
v 1.56597 1.18104 -27.8931
vn -0.338962 0.0671299 -0.938402
v 1.53707 1.18625 -27.8807
vn -0.427846 0.0831586 -0.900018
v 1.50951 1.1912 -27.8654
vn -0.512609 0.0983864 -0.852966
v 1.26698 0.00219012 -27.852
vn -0.593531 0.106613 -0.797719
v 1.24279 0.00650606 -27.8315
vn -0.667646 0.119837 -0.73477
v 1.2207 0.0104454 -27.8086
vn -0.735332 0.131907 -0.664746
v 1.20092 0.0139701 -27.7837
vn -0.795937 0.142707 -0.588319
v 1.18364 0.0170462 -27.7569
vn -0.848876 0.152133 -0.506227
v 1.16904 0.0196442 -27.7285
vn -0.89364 0.160093 -0.419259
v 1.15724 0.021739 -27.6988
vn -0.929797 0.166512 -0.328254
v 1.14836 0.0233105 -27.6681
vn -0.957001 0.171327 -0.234087
v 1.14249 0.0243435 -27.6366
vn -0.974987 0.174492 -0.137666
v 1.13968 0.024828 -27.6047
vn -0.983585 0.175977 -0.0399193
v 1.13997 0.0247595 -27.5727
vn -0.982709 0.175767 0.0582119
v 1.14334 0.0241385 -27.5408
vn -0.97237 0.173864 0.155782
v 1.14977 0.022971 -27.5095
vn -0.952666 0.170287 0.251853
v 1.1592 0.0212683 -27.4789
vn -0.923788 0.165069 0.345498
v 1.17152 0.0190468 -27.4494
vn -0.886012 0.158263 0.435815
v 1.18664 0.0163278 -27.4213
vn -0.839705 0.149932 0.521936
v 1.20439 0.0131376 -27.3949
vn -0.78531 0.140157 0.603029
v 1.22461 0.00950695 -27.3703
vn -0.723352 0.129032 0.678316
v 1.24711 0.00547069 -27.3478
vn -0.654428 0.116664 0.74707
v 1.27166 0.00106775 -27.3278
vn -0.579202 0.103173 0.808629
v 1.29803 -0.00365947 -27.3102
vn -0.498397 0.0886889 0.8624
v 1.32597 -0.00866545 -27.2954
vn -0.412793 0.0733502 0.907867
v 1.3552 -0.013902 -27.2834
vn -0.323213 0.0573052 0.944589
v 1.38545 -0.0193186 -27.2744
vn -0.230521 0.0407082 0.972215
v 1.41643 -0.0248632 -27.2684
vn -0.135608 0.0237192 0.990479
v 1.44783 -0.0304823 -27.2656
vn -0.0393899 0.00650179 0.999203
v 1.47936 -0.0361219 -27.2659
vn 0.0572079 -0.0107783 0.998304
v 1.5107 -0.0417276 -27.2693
vn 0.153255 -0.0279545 0.987791
v 1.54157 -0.0472454 -27.2758
vn 0.247826 -0.0448615 0.967765
v 1.57165 -0.0526222 -27.2854
vn 0.34001 -0.0613365 0.938419
v 1.60067 -0.0578063 -27.2979
vn 0.42892 -0.0772208 0.900036
v 1.62834 -0.0627476 -27.3133
vn 0.513699 -0.0923614 0.852985
v 1.65439 -0.0673986 -27.3313
vn 0.593531 -0.106613 0.797719
v 1.67858 -0.0717146 -27.3519
vn 0.667646 -0.119837 0.73477
v 1.70067 -0.0756539 -27.3747
vn 0.735332 -0.131907 0.664746
v 1.72045 -0.0791786 -27.3997
vn 0.795937 -0.142707 0.588319
v 1.73773 -0.0822547 -27.4264
vn 0.848876 -0.152133 0.506227
v 1.75234 -0.0848527 -27.4548
vn 0.89364 -0.160093 0.419259
v 1.76414 -0.0869476 -27.4845
vn 0.929797 -0.166512 0.328254
v 1.77302 -0.088519 -27.5153
vn 0.957001 -0.171327 0.234087
v 1.77889 -0.089552 -27.5467
vn 0.974987 -0.174492 0.137666
v 1.78169 -0.0900365 -27.5786
vn 0.983585 -0.175977 0.0399193
v 1.78141 -0.089968 -27.6107
vn 0.982709 -0.175767 -0.0582119
v 1.77803 -0.089347 -27.6425
vn 0.97237 -0.173864 -0.155782
v 1.7716 -0.0881795 -27.6739
vn 0.952666 -0.170287 -0.251853
v 1.76218 -0.0864768 -27.7044
vn 0.923788 -0.165069 -0.345498
v 1.74985 -0.0842553 -27.7339
vn 0.886012 -0.158263 -0.435815
v 1.73473 -0.0815363 -27.762
vn 0.839705 -0.149932 -0.521936
v 1.71698 -0.0783462 -27.7885
vn 0.78531 -0.140157 -0.603029
v 1.69676 -0.0747154 -27.813
vn 0.723352 -0.129032 -0.678316
v 1.67427 -0.0706792 -27.8355
vn 0.654428 -0.116664 -0.74707
v 1.64972 -0.0662762 -27.8556
vn 0.579202 -0.103173 -0.808629
v 1.62334 -0.061549 -27.8731
vn 0.498397 -0.0886889 -0.8624
v 1.59541 -0.0565431 -27.888
vn 0.412793 -0.0733502 -0.907867
v 1.56617 -0.0513065 -27.8999
vn 0.323213 -0.0573052 -0.944589
v 1.53592 -0.0458899 -27.909
vn 0.230521 -0.0407082 -0.972215
v 1.50494 -0.0403453 -27.9149
vn 0.135608 -0.0237192 -0.990479
v 1.47354 -0.0347262 -27.9178
vn 0.0393899 -0.00650179 -0.999203
v 1.44202 -0.0290866 -27.9175
vn -0.0572079 0.0107783 -0.998304
v 1.41067 -0.0234809 -27.914
vn -0.153255 0.0279545 -0.987791
v 1.37981 -0.0179631 -27.9075
vn -0.247826 0.0448615 -0.967765
v 1.34972 -0.0125863 -27.8979
vn -0.34001 0.0613365 -0.938419
v 1.3207 -0.00740225 -27.8854
vn -0.42892 0.0772208 -0.900036
v 1.29303 -0.00246092 -27.87
vn -0.513699 0.0923614 -0.852985
v 1.05414 -1.1961 -27.8507
vn -0.594596 0.100593 -0.797707
v 1.02986 -1.19176 -27.8301
vn -0.668707 0.113847 -0.734759
v 1.00769 -1.18778 -27.8071
vn -0.736377 0.126004 -0.664734
v 0.987841 -1.18419 -27.7821
vn -0.796956 0.136947 -0.588308
v 0.970509 -1.18104 -27.7552
vn -0.84986 0.146572 -0.506216
v 0.955859 -1.17835 -27.7267
vn -0.894579 0.154785 -0.419249
v 0.944031 -1.17615 -27.6969
vn -0.930683 0.161507 -0.328244
v 0.93514 -1.17445 -27.666
vn -0.957824 0.166674 -0.234078
v 0.92927 -1.17329 -27.6344
vn -0.975741 0.170236 -0.137658
v 0.926479 -1.17266 -27.6024
vn -0.98426 0.172158 -0.039912
v 0.926793 -1.17257 -27.5703
vn -0.983301 0.172423 0.0582183
v 0.93021 -1.17303 -27.5383
vn -0.972872 0.171026 0.155788
v 0.936696 -1.17403 -27.5068
vn -0.953074 0.167983 0.251857
v 0.946189 -1.17555 -27.4762
vn -0.924097 0.163322 0.345501
v 0.958598 -1.17759 -27.4466
vn -0.88622 0.157088 0.435817
v 0.973802 -1.18013 -27.4184
vn -0.839809 0.149342 0.521937
v 0.991657 -1.18314 -27.3918
vn -0.78531 0.140157 0.603029
v 1.01199 -1.18659 -27.3671
vn -0.723248 0.129622 0.678315
v 1.0346 -1.19045 -27.3446
vn -0.65422 0.117839 0.747067
v 1.05928 -1.19468 -27.3244
vn -0.578893 0.104921 0.808625
v 1.08578 -1.19925 -27.3068
vn -0.49799 0.0909924 0.862396
v 1.11386 -1.2041 -27.2919
vn -0.412291 0.0761877 0.907861
v 1.14324 -1.20919 -27.2799
vn -0.322621 0.0606493 0.944583
v 1.17363 -1.21447 -27.2708
vn -0.229845 0.0445268 0.972208
v 1.20475 -1.21989 -27.2649
vn -0.134855 0.0279755 0.99047
v 1.2363 -1.2254 -27.262
vn -0.0385664 0.0111547 0.999194
v 1.26796 -1.23095 -27.2623
vn 0.0580937 -0.00577344 0.998294
v 1.29945 -1.23648 -27.2657
vn 0.154194 -0.022646 0.987781
v 1.33044 -1.24193 -27.2723
vn 0.24881 -0.0393005 0.967755
v 1.36065 -1.24726 -27.2819
vn 0.341029 -0.0555765 0.938408
v 1.38979 -1.25242 -27.2945
vn 0.429965 -0.0713172 0.900025
v 1.41757 -1.25735 -27.3099
vn 0.514759 -0.0863711 0.852973
v 1.44372 -1.26201 -27.328
vn 0.594596 -0.100593 0.797707
v 1.468 -1.26635 -27.3486
vn 0.668707 -0.113847 0.734759
v 1.49017 -1.27034 -27.3716
vn 0.736377 -0.126004 0.664734
v 1.51002 -1.27392 -27.3966
vn 0.796956 -0.136947 0.588308
v 1.52735 -1.27708 -27.4235
vn 0.84986 -0.146572 0.506216
v 1.542 -1.27977 -27.452
vn 0.894579 -0.154785 0.419249
v 1.55383 -1.28197 -27.4818
vn 0.930683 -0.161507 0.328244
v 1.56272 -1.28366 -27.5127
vn 0.957824 -0.166674 0.234078
v 1.56859 -1.28483 -27.5442
vn 0.975741 -0.170236 0.137658
v 1.57138 -1.28546 -27.5763
vn 0.98426 -0.172158 0.039912
v 1.57107 -1.28554 -27.6084
vn 0.983301 -0.172423 -0.0582183
v 1.56765 -1.28509 -27.6404
vn 0.972872 -0.171026 -0.155788
v 1.56116 -1.28409 -27.6719
vn 0.953074 -0.167983 -0.251857
v 1.55167 -1.28256 -27.7025
vn 0.924097 -0.163322 -0.345501
v 1.53926 -1.28052 -27.7321
vn 0.88622 -0.157088 -0.435817
v 1.52406 -1.27798 -27.7603
vn 0.839809 -0.149342 -0.521937
v 1.5062 -1.27497 -27.7869
vn 0.78531 -0.140157 -0.603029
v 1.48587 -1.27152 -27.8116
vn 0.723248 -0.129622 -0.678315
v 1.46326 -1.26766 -27.8341
vn 0.65422 -0.117839 -0.747067
v 1.43858 -1.26343 -27.8543
vn 0.578893 -0.104921 -0.808625
v 1.41207 -1.25887 -27.8719
vn 0.49799 -0.0909924 -0.862396
v 1.384 -1.25402 -27.8868
vn 0.412291 -0.0761877 -0.907861
v 1.35462 -1.24893 -27.8988
vn 0.322621 -0.0606493 -0.944583
v 1.32423 -1.24364 -27.9078
vn 0.229845 -0.0445268 -0.972208
v 1.29311 -1.23822 -27.9138
vn 0.134855 -0.0279755 -0.99047
v 1.26156 -1.23271 -27.9167
vn 0.0385664 -0.0111547 -0.999194
v 1.2299 -1.22717 -27.9164
vn -0.0580937 0.00577344 -0.998294
v 1.19841 -1.22164 -27.913
vn -0.154194 0.022646 -0.987781
v 1.16742 -1.21618 -27.9064
vn -0.24881 0.0393005 -0.967755
v 1.13721 -1.21085 -27.8968
vn -0.341029 0.0555765 -0.938408
v 1.10807 -1.20569 -27.8842
vn -0.429965 0.0713172 -0.900025
v 1.08029 -1.20076 -27.8688
vn -0.514759 0.0863711 -0.852973
v 0.845026 -2.39904 -27.8434
vn -0.595632 0.0946093 -0.797666
v 0.820656 -2.39467 -27.8227
vn -0.669738 0.107891 -0.734718
v 0.798407 -2.39064 -27.7997
vn -0.737394 0.120135 -0.664694
v 0.778494 -2.387 -27.7746
vn -0.797948 0.131221 -0.588269
v 0.761108 -2.38377 -27.7476
vn -0.850818 0.141043 -0.506178
v 0.746416 -2.38098 -27.719
vn -0.895493 0.149507 -0.419213
v 0.734561 -2.37867 -27.689
vn -0.931545 0.156532 -0.32821
v 0.725655 -2.37686 -27.6581
vn -0.958625 0.162048 -0.234046
v 0.719786 -2.37556 -27.6264
vn -0.976474 0.166004 -0.137629
v 0.717009 -2.37478 -27.5942
vn -0.984918 0.168362 -0.0398859
v 0.717351 -2.37454 -27.5619
vn -0.983877 0.169098 0.0582412
v 0.720809 -2.37484 -27.5299
vn -0.973361 0.168206 0.155807
v 0.72735 -2.37566 -27.4983
vn -0.95347 0.165693 0.251873
v 0.736911 -2.37701 -27.4675
vn -0.924398 0.161585 0.345513
v 0.749399 -2.37888 -27.4378
vn -0.886422 0.155921 0.435825
v 0.764695 -2.38123 -27.4095
vn -0.839911 0.148755 0.521941
v 0.78265 -2.38406 -27.3828
vn -0.78531 0.140157 0.603029
v 0.803093 -2.38733 -27.358
vn -0.723146 0.130208 0.678311
v 0.825826 -2.39101 -27.3354
vn -0.654018 0.119006 0.747059
v 0.85063 -2.39508 -27.3152
vn -0.578592 0.106658 0.808613
v 0.877266 -2.39947 -27.2975
vn -0.497593 0.0932824 0.86238
v 0.905479 -2.40417 -27.2826
vn -0.411802 0.0790085 0.907842
v 0.934995 -2.40911 -27.2705
vn -0.322046 0.0639738 0.94456
v 0.965532 -2.41426 -27.2614
vn -0.229188 0.048323 0.972182
v 0.996794 -2.41956 -27.2554
vn -0.134122 0.0322068 0.990441
v 1.02848 -2.42496 -27.2525
vn -0.0377652 0.0157804 0.999162
v 1.06029 -2.43041 -27.2528
vn 0.0589555 -0.000797927 0.99826
v 1.09191 -2.43586 -27.2563
vn 0.155108 -0.0173686 0.987745
v 1.12304 -2.44126 -27.2629
vn 0.249768 -0.033772 0.967717
v 1.15337 -2.44654 -27.2725
vn 0.342021 -0.0498501 0.938369
v 1.18263 -2.45167 -27.2851
vn 0.430981 -0.0654482 0.899984
v 1.21052 -2.45659 -27.3006
vn 0.51579 -0.080416 0.852932
v 1.23678 -2.46126 -27.3188
vn 0.595632 -0.0946093 0.797666
v 1.26115 -2.46563 -27.3395
vn 0.669738 -0.107891 0.734718
v 1.28339 -2.46966 -27.3625
vn 0.737394 -0.120135 0.664694
v 1.30331 -2.4733 -27.3876
vn 0.797948 -0.131221 0.588269
v 1.32069 -2.47653 -27.4146
vn 0.850818 -0.141043 0.506178
v 1.33539 -2.47932 -27.4432
vn 0.895493 -0.149507 0.419213
v 1.34724 -2.48163 -27.4732
vn 0.931545 -0.156532 0.32821
v 1.35615 -2.48344 -27.5041
vn 0.958625 -0.162048 0.234046
v 1.36202 -2.48474 -27.5358
vn 0.976474 -0.166004 0.137629
v 1.36479 -2.48552 -27.568
vn 0.984918 -0.168362 0.0398859
v 1.36445 -2.48576 -27.6003
vn 0.983877 -0.169098 -0.0582412
v 1.36099 -2.48546 -27.6323
vn 0.973361 -0.168206 -0.155807
v 1.35445 -2.48464 -27.6639
vn 0.95347 -0.165693 -0.251873
v 1.34489 -2.48329 -27.6947
vn 0.924398 -0.161585 -0.345513
v 1.3324 -2.48142 -27.7244
vn 0.886422 -0.155921 -0.435825
v 1.31711 -2.47907 -27.7527
vn 0.839911 -0.148755 -0.521941
v 1.29915 -2.47624 -27.7794
vn 0.78531 -0.140157 -0.603029
v 1.27871 -2.47297 -27.8042
vn 0.723146 -0.130208 -0.678311
v 1.25598 -2.46929 -27.8268
vn 0.654018 -0.119006 -0.747059
v 1.23117 -2.46522 -27.847
vn 0.578592 -0.106658 -0.808613
v 1.20453 -2.46083 -27.8647
vn 0.497593 -0.0932824 -0.86238
v 1.17632 -2.45613 -27.8796
vn 0.411802 -0.0790085 -0.907842
v 1.14681 -2.45119 -27.8917
vn 0.322046 -0.0639738 -0.94456
v 1.11627 -2.44604 -27.9008
vn 0.229188 -0.048323 -0.972182
v 1.08501 -2.44074 -27.9068
vn 0.134122 -0.0322068 -0.990441
v 1.05332 -2.43534 -27.9097
vn 0.0377652 -0.0157804 -0.999162
v 1.02151 -2.42989 -27.9094
vn -0.0589555 0.000797927 -0.99826
v 0.989893 -2.42444 -27.9059
vn -0.155108 0.0173686 -0.987745
v 0.958764 -2.41904 -27.8993
vn -0.249768 0.033772 -0.967717
v 0.928426 -2.41376 -27.8897
vn -0.342021 0.0498501 -0.938369
v 0.899172 -2.40863 -27.8771
vn -0.430981 0.0654482 -0.899984
v 0.871282 -2.40371 -27.8616
vn -0.51579 0.080416 -0.852932
v 0.63965 -3.60661 -27.8302
vn -0.59664 0.0886609 -0.797596
v 0.61519 -3.60222 -27.8094
vn -0.670741 0.101972 -0.734648
v 0.592862 -3.59815 -27.7863
vn -0.738382 0.1143 -0.664625
v 0.572881 -3.59445 -27.7611
vn -0.798913 0.125528 -0.588202
v 0.55544 -3.59114 -27.734
vn -0.851749 0.135548 -0.506113
v 0.540707 -3.58826 -27.7053
vn -0.896382 0.144261 -0.419151
v 0.528823 -3.58584 -27.6752
vn -0.932383 0.151586 -0.328152
v 0.519903 -3.58391 -27.6442
vn -0.959405 0.15745 -0.233992
v 0.514034 -3.58247 -27.6123
vn -0.977186 0.161798 -0.137579
v 0.51127 -3.58155 -27.5801
vn -0.985557 0.164588 -0.0398415
v 0.51164 -3.58115 -27.5477
vn -0.984437 0.165793 0.05828
v 0.51514 -3.58128 -27.5155
vn -0.973836 0.165401 0.15584
v 0.521735 -3.58194 -27.4838
vn -0.953856 0.163417 0.2519
v 0.531362 -3.58311 -27.4529
vn -0.92469 0.159858 0.345533
v 0.54393 -3.5848 -27.4231
vn -0.886619 0.15476 0.435839
v 0.559315 -3.58697 -27.3946
vn -0.840009 0.148172 0.521948
v 0.577371 -3.58962 -27.3679
vn -0.78531 0.140157 0.603029
v 0.597924 -3.59271 -27.343
vn -0.723047 0.130791 0.678304
v 0.620775 -3.59621 -27.3203
vn -0.653822 0.120167 0.747046
v 0.645705 -3.6001 -27.3
vn -0.578299 0.108385 0.808593
v 0.672473 -3.60434 -27.2823
vn -0.497207 0.0955587 0.862353
v 0.700821 -3.60888 -27.2673
vn -0.411327 0.0818126 0.907809
v 0.730478 -3.61367 -27.2551
vn -0.321486 0.0672786 0.944521
v 0.761156 -3.61868 -27.246
vn -0.228548 0.0520966 0.972138
v 0.792561 -3.62386 -27.24
vn -0.13341 0.0364129 0.990392
v 0.82439 -3.62915 -27.2371
vn -0.0369861 0.0203786 0.999108
v 0.856336 -3.63451 -27.2374
vn 0.0597935 0.00414799 0.998202
v 0.888093 -3.63988 -27.2409
vn 0.155997 -0.0121226 0.987683
v 0.919354 -3.64522 -27.2475
vn 0.250699 -0.0282764 0.967652
v 0.949817 -3.65046 -27.2572
vn 0.342986 -0.0441579 0.938302
v 0.97919 -3.65556 -27.2699
vn 0.43197 -0.0596141 0.899916
v 1.00719 -3.66047 -27.2854
vn 0.516794 -0.0744962 0.852863
v 1.03355 -3.66515 -27.3036
vn 0.59664 -0.0886609 0.797596
v 1.05801 -3.66954 -27.3244
vn 0.670741 -0.101972 0.734648
v 1.08034 -3.67361 -27.3475
vn 0.738382 -0.1143 0.664625
v 1.10032 -3.67732 -27.3728
vn 0.798913 -0.125528 0.588202
v 1.11776 -3.68063 -27.3999
vn 0.851749 -0.135548 0.506113
v 1.13249 -3.6835 -27.4286
vn 0.896382 -0.144261 0.419151
v 1.14437 -3.68592 -27.4586
vn 0.932383 -0.151586 0.328152
v 1.15329 -3.68786 -27.4897
vn 0.959405 -0.15745 0.233992
v 1.15916 -3.68929 -27.5215
vn 0.977186 -0.161798 0.137579
v 1.16193 -3.69021 -27.5538
vn 0.985557 -0.164588 0.0398415
v 1.16156 -3.69061 -27.5862
vn 0.984437 -0.165793 -0.05828
v 1.15806 -3.69048 -27.6184
vn 0.973836 -0.165401 -0.15584
v 1.15146 -3.68982 -27.6501
vn 0.953856 -0.163417 -0.2519
v 1.14184 -3.68865 -27.681
vn 0.92469 -0.159858 -0.345533
v 1.12927 -3.68697 -27.7108
vn 0.886619 -0.15476 -0.435839
v 1.11388 -3.68479 -27.7392
vn 0.840009 -0.148172 -0.521948
v 1.09583 -3.68215 -27.766
vn 0.78531 -0.140157 -0.603029
v 1.07527 -3.67906 -27.7908
vn 0.723047 -0.130791 -0.678304
v 1.05242 -3.67555 -27.8135
vn 0.653822 -0.120167 -0.747046
v 1.02749 -3.67166 -27.8338
vn 0.578299 -0.108385 -0.808593
v 1.00073 -3.66742 -27.8516
vn 0.497207 -0.0955587 -0.862353
v 0.972376 -3.66289 -27.8666
vn 0.411327 -0.0818126 -0.907809
v 0.94272 -3.65809 -27.8787
vn 0.321486 -0.0672786 -0.944521
v 0.912042 -3.65308 -27.8878
vn 0.228548 -0.0520966 -0.972138
v 0.880637 -3.6479 -27.8938
vn 0.13341 -0.0364129 -0.990392
v 0.848808 -3.64261 -27.8967
vn 0.0369861 -0.0203786 -0.999108
v 0.816861 -3.63725 -27.8964
vn -0.0597935 -0.00414799 -0.998202
v 0.785105 -3.63188 -27.8929
vn -0.155997 0.0121226 -0.987683
v 0.753844 -3.62655 -27.8863
vn -0.250699 0.0282764 -0.967652
v 0.723381 -3.62131 -27.8766
vn -0.342986 0.0441579 -0.938302
v 0.694007 -3.6162 -27.864
vn -0.43197 0.0596141 -0.899916
v 0.666007 -3.61129 -27.8484
vn -0.516794 0.0744962 -0.852863
v 0.438009 -4.81883 -27.811
vn -0.59762 0.0827484 -0.797498
v 0.413458 -4.81441 -27.7902
vn -0.671716 0.0960877 -0.73455
v 0.39105 -4.8103 -27.767
vn -0.739343 0.108502 -0.664529
v 0.371002 -4.80653 -27.7417
vn -0.79985 0.119871 -0.588108
v 0.353506 -4.80315 -27.7145
vn -0.852654 0.130085 -0.506023
v 0.338731 -4.80018 -27.6857
vn -0.897246 0.139047 -0.419064
v 0.326819 -4.79765 -27.6555
vn -0.933198 0.14667 -0.32807
v 0.317884 -4.7956 -27.6243
vn -0.960162 0.15288 -0.233916
v 0.312014 -4.79403 -27.5924
vn -0.977879 0.157618 -0.13751
v 0.309264 -4.79296 -27.56
vn -0.986179 0.160838 -0.0397792
v 0.309661 -4.79241 -27.5275
vn -0.984981 0.162508 0.0583346
v 0.313201 -4.79237 -27.4952
vn -0.974298 0.162614 0.155887
v 0.319849 -4.79286 -27.4633
vn -0.954231 0.161154 0.251937
v 0.329543 -4.79385 -27.4323
vn -0.924975 0.158142 0.345562
v 0.342189 -4.79536 -27.4024
vn -0.88681 0.153607 0.435858
v 0.357664 -4.79735 -27.3739
vn -0.840105 0.147592 0.521957
v 0.37582 -4.79981 -27.347
vn -0.78531 0.140157 0.603029
v 0.396482 -4.80272 -27.3221
vn -0.722951 0.131371 0.678294
v 0.419451 -4.80605 -27.2993
vn -0.65363 0.12132 0.747027
v 0.444505 -4.80977 -27.2789
vn -0.578015 0.110101 0.808565
v 0.471404 -4.81384 -27.2611
vn -0.496832 0.0978213 0.862316
v 0.499888 -4.81822 -27.246
vn -0.410865 0.0845997 0.907762
v 0.529684 -4.82287 -27.2339
vn -0.320941 0.0705634 0.944467
v 0.560503 -4.82775 -27.2247
vn -0.227927 0.0558474 0.972075
v 0.59205 -4.8328 -27.2187
vn -0.132717 0.0405937 0.990322
v 0.624021 -4.83799 -27.2158
vn -0.0362287 0.024949 0.999032
v 0.656107 -4.84325 -27.2161
vn 0.0606082 0.00906403 0.99812
v 0.687999 -4.84854 -27.2196
vn 0.156861 -0.00690823 0.987596
v 0.719391 -4.85381 -27.2262
vn 0.251604 -0.022814 0.967561
v 0.74998 -4.85901 -27.2359
vn 0.343923 -0.0385 0.938208
v 0.779472 -4.86408 -27.2487
vn 0.432931 -0.0538152 0.899819
v 0.807582 -4.86899 -27.2643
vn 0.517769 -0.0686122 0.852765
v 0.83404 -4.87367 -27.2826
vn 0.59762 -0.0827484 0.797498
v 0.858591 -4.87809 -27.3034
vn 0.671716 -0.0960877 0.73455
v 0.880999 -4.8822 -27.3266
vn 0.739343 -0.108502 0.664529
v 0.901047 -4.88597 -27.3519
vn 0.79985 -0.119871 0.588108
v 0.918543 -4.88935 -27.3791
vn 0.852654 -0.130085 0.506023
v 0.933319 -4.89232 -27.408
vn 0.897246 -0.139047 0.419064
v 0.945231 -4.89485 -27.4381
vn 0.933198 -0.14667 0.32807
v 0.954165 -4.89691 -27.4693
vn 0.960162 -0.15288 0.233916
v 0.960035 -4.89848 -27.5012
vn 0.977879 -0.157618 0.13751
v 0.962785 -4.89954 -27.5336
vn 0.986179 -0.160838 0.0397792
v 0.962389 -4.9001 -27.5661
vn 0.984981 -0.162508 -0.0583346
v 0.958849 -4.90013 -27.5985
vn 0.974298 -0.162614 -0.155887
v 0.9522 -4.89965 -27.6303
vn 0.954231 -0.161154 -0.251937
v 0.942506 -4.89865 -27.6613
vn 0.924975 -0.158142 -0.345562
v 0.929861 -4.89715 -27.6912
vn 0.88681 -0.153607 -0.435858
v 0.914385 -4.89516 -27.7198
vn 0.840105 -0.147592 -0.521957
v 0.896229 -4.89269 -27.7466
vn 0.78531 -0.140157 -0.603029
v 0.875568 -4.88978 -27.7716
vn 0.722951 -0.131371 -0.678294
v 0.852599 -4.88645 -27.7943
vn 0.65363 -0.12132 -0.747027
v 0.827544 -4.88273 -27.8147
vn 0.578015 -0.110101 -0.808565
v 0.800645 -4.87866 -27.8325
vn 0.496832 -0.0978213 -0.862316
v 0.772161 -4.87428 -27.8476
vn 0.410865 -0.0845997 -0.907762
v 0.742365 -4.86963 -27.8597
vn 0.320941 -0.0705634 -0.944467
v 0.711546 -4.86476 -27.8689
vn 0.227927 -0.0558474 -0.972075
v 0.679999 -4.8597 -27.8749
vn 0.132717 -0.0405937 -0.990322
v 0.648029 -4.85452 -27.8778
vn 0.0362287 -0.024949 -0.999032
v 0.615943 -4.84926 -27.8775
vn -0.0606082 -0.00906403 -0.99812
v 0.58405 -4.84396 -27.874
vn -0.156861 0.00690823 -0.987596
v 0.552658 -4.83869 -27.8674
vn -0.251604 0.022814 -0.967561
v 0.522069 -4.8335 -27.8577
vn -0.343923 0.0385 -0.938208
v 0.492577 -4.82842 -27.845
vn -0.432931 0.0538152 -0.899819
v 0.464467 -4.82352 -27.8294
vn -0.517769 0.0686122 -0.852765
v 0.240102 -6.0357 -27.786
vn -0.598572 0.0768722 -0.797372
v 0.21546 -6.03125 -27.765
vn -0.672664 0.0902397 -0.734425
v 0.192973 -6.02709 -27.7417
vn -0.740277 0.102738 -0.664405
v 0.172857 -6.02326 -27.7163
vn -0.800761 0.114247 -0.587987
v 0.155306 -6.0198 -27.689
vn -0.853534 0.124656 -0.505906
v 0.140488 -6.01674 -27.6601
vn -0.898086 0.133865 -0.418953
v 0.128547 -6.01411 -27.6298
vn -0.933989 0.141784 -0.327965
v 0.119598 -6.01193 -27.5985
vn -0.960898 0.148337 -0.233819
v 0.113726 -6.01022 -27.5665
vn -0.978552 0.153462 -0.137421
v 0.110989 -6.00901 -27.534
vn -0.986783 0.15711 -0.0396993
v 0.111412 -6.0083 -27.5013
vn -0.98551 0.159244 0.0584045
v 0.114992 -6.0081 -27.4689
vn -0.974746 0.159844 0.155946
v 0.121694 -6.00841 -27.437
vn -0.954595 0.158905 0.251986
v 0.131454 -6.00923 -27.4058
vn -0.925251 0.156436 0.345598
v 0.144177 -6.01056 -27.3758
vn -0.886996 0.15246 0.435883
v 0.159741 -6.01237 -27.3472
vn -0.840199 0.147016 0.52197
v 0.177996 -6.01465 -27.3202
vn -0.78531 0.140157 0.603029
v 0.198766 -6.01738 -27.2952
vn -0.722858 0.131947 0.678282
v 0.221852 -6.02053 -27.2723
vn -0.653445 0.122466 0.747002
v 0.247031 -6.02408 -27.2519
vn -0.577738 0.111807 0.808528
v 0.27406 -6.02798 -27.234
vn -0.496468 0.10007 0.862268
v 0.30268 -6.0322 -27.2189
vn -0.410417 0.0873697 0.907703
v 0.332614 -6.03671 -27.2067
vn -0.320412 0.073828 0.944397
v 0.363574 -6.04145 -27.1975
vn -0.227323 0.0595753 0.971995
v 0.395262 -6.04638 -27.1914
vn -0.132044 0.0447488 0.990233
v 0.427374 -6.05145 -27.1885
vn -0.0354928 0.0294914 0.998935
v 0.459599 -6.05662 -27.1888
vn 0.0613998 0.0139499 0.998016
v 0.491627 -6.06184 -27.1923
vn 0.157701 -0.00172586 0.987485
v 0.52315 -6.06704 -27.199
vn 0.252483 -0.017385 0.967445
v 0.553865 -6.0722 -27.2088
vn 0.344834 -0.0328768 0.938088
v 0.583475 -6.07724 -27.2215
vn 0.433864 -0.0480519 0.899696
v 0.611695 -6.08214 -27.2372
vn 0.518716 -0.0627643 0.85264
v 0.638254 -6.08683 -27.2556
vn 0.598572 -0.0768722 0.797372
v 0.662896 -6.09127 -27.2765
vn 0.672664 -0.0902397 0.734425
v 0.685383 -6.09543 -27.2998
vn 0.740277 -0.102738 0.664405
v 0.705499 -6.09926 -27.3252
vn 0.800761 -0.114247 0.587987
v 0.72305 -6.10272 -27.3525
vn 0.853534 -0.124656 0.505906
v 0.737868 -6.10578 -27.3814
vn 0.898086 -0.133865 0.418953
v 0.749808 -6.10842 -27.4117
vn 0.933989 -0.141784 0.327965
v 0.758758 -6.1106 -27.443
vn 0.960898 -0.148337 0.233819
v 0.764629 -6.1123 -27.4751
vn 0.978552 -0.153462 0.137421
v 0.767367 -6.11351 -27.5076
vn 0.986783 -0.15711 0.0396993
v 0.766943 -6.11422 -27.5402
vn 0.98551 -0.159244 -0.0584045
v 0.763364 -6.11442 -27.5726
vn 0.974746 -0.159844 -0.155946
v 0.756662 -6.11411 -27.6046
vn 0.954595 -0.158905 -0.251986
v 0.746902 -6.11329 -27.6357
vn 0.925251 -0.156436 -0.345598
v 0.734179 -6.11197 -27.6657
vn 0.886996 -0.15246 -0.435883
v 0.718615 -6.11016 -27.6944
vn 0.840199 -0.147016 -0.52197
v 0.70036 -6.10788 -27.7213
vn 0.78531 -0.140157 -0.603029
v 0.679589 -6.10515 -27.7463
vn 0.722858 -0.131947 -0.678282
v 0.656504 -6.10199 -27.7692
vn 0.653445 -0.122466 -0.747002
v 0.631325 -6.09845 -27.7897
vn 0.577738 -0.111807 -0.808528
v 0.604296 -6.09454 -27.8075
vn 0.496468 -0.10007 -0.862268
v 0.575676 -6.09032 -27.8226
vn 0.410417 -0.0873697 -0.907703
v 0.545742 -6.08582 -27.8349
vn 0.320412 -0.073828 -0.944397
v 0.514782 -6.08108 -27.844
vn 0.227323 -0.0595753 -0.971995
v 0.483094 -6.07614 -27.8501
vn 0.132044 -0.0447488 -0.990233
v 0.450982 -6.07107 -27.853
vn 0.0354928 -0.0294914 -0.998935
v 0.418757 -6.0659 -27.8527
vn -0.0613998 -0.0139499 -0.998016
v 0.386729 -6.06069 -27.8492
vn -0.157701 0.00172586 -0.987485
v 0.355206 -6.05548 -27.8425
vn -0.252483 0.017385 -0.967445
v 0.324491 -6.05033 -27.8328
vn -0.344834 0.0328768 -0.938088
v 0.294881 -6.04528 -27.82
vn -0.433864 0.0480519 -0.899696
v 0.266661 -6.04039 -27.8043
vn -0.518716 0.0627643 -0.85264
v 0.0459292 -7.2572 -27.7549
vn -0.599497 0.0710325 -0.797219
v 0.0211968 -7.25273 -27.7339
vn -0.673584 0.0844282 -0.734273
v -0.00137006 -7.24853 -27.7105
vn -0.741184 0.0970108 -0.664255
v -0.0215541 -7.24464 -27.685
vn -0.801646 0.108659 -0.587841
v -0.0391608 -7.2411 -27.6576
vn -0.854388 0.119261 -0.505765
v -0.0540207 -7.23794 -27.6286
vn -0.898902 0.128714 -0.418818
v -0.0659907 -7.2352 -27.5982
vn -0.934758 0.136928 -0.327838
v -0.0749555 -7.2329 -27.5668
vn -0.961613 0.143823 -0.233701
v -0.0808288 -7.23106 -27.5346
vn -0.979206 0.149333 -0.137313
v -0.0835539 -7.2297 -27.502
vn -0.98737 0.153405 -0.0396022
v -0.0831047 -7.22883 -27.4693
vn -0.986024 0.155999 0.0584896
v -0.0794855 -7.22847 -27.4367
vn -0.975182 0.157092 0.156018
v -0.0727311 -7.22861 -27.4046
vn -0.954949 0.156671 0.252044
v -0.0629066 -7.22925 -27.3734
vn -0.925519 0.154741 0.345643
v -0.0501065 -7.2304 -27.3433
vn -0.887176 0.151321 0.435913
v -0.0344543 -7.23202 -27.3145
vn -0.840289 0.146444 0.521985
v -0.0161005 -7.23412 -27.2875
vn -0.78531 0.140157 0.603029
v 0.00477794 -7.23667 -27.2624
vn -0.722767 0.132519 0.678267
v 0.0279801 -7.23965 -27.2394
vn -0.653264 0.123606 0.746972
v 0.0532824 -7.24302 -27.2189
vn -0.57747 0.113502 0.808484
v 0.0804413 -7.24676 -27.201
vn -0.496114 0.102305 0.862209
v 0.109195 -7.25083 -27.1858
vn -0.409981 0.0901226 0.907631
v 0.139267 -7.25518 -27.1735
vn -0.319899 0.0770724 0.944312
v 0.170368 -7.25979 -27.1643
vn -0.226736 0.06328 0.971898
v 0.202197 -7.26459 -27.1583
vn -0.13139 0.0488781 0.990125
v 0.234449 -7.26956 -27.1554
vn -0.034778 0.0340055 0.998816
v 0.266812 -7.27463 -27.1557
vn 0.0621686 0.0188055 0.997888
v 0.298976 -7.27977 -27.1592
vn 0.158516 0.00342431 0.98735
v 0.33063 -7.28491 -27.1659
vn 0.253338 -0.0119898 0.967304
v 0.36147 -7.29002 -27.1757
vn 0.345719 -0.0272885 0.937941
v 0.391198 -7.29504 -27.1885
vn 0.434771 -0.0423244 0.899546
v 0.419528 -7.29992 -27.2042
vn 0.519636 -0.0569527 0.852487
v 0.446188 -7.30462 -27.2226
vn 0.599497 -0.0710325 0.797219
v 0.47092 -7.3091 -27.2437
vn 0.673584 -0.0844282 0.734273
v 0.493487 -7.3133 -27.267
vn 0.741184 -0.0970108 0.664255
v 0.513671 -7.31718 -27.2925
vn 0.801646 -0.108659 0.587841
v 0.531278 -7.32072 -27.3199
vn 0.854388 -0.119261 0.505765
v 0.546138 -7.32388 -27.349
vn 0.898902 -0.128714 0.418818
v 0.558108 -7.32662 -27.3793
vn 0.934758 -0.136928 0.327838
v 0.567073 -7.32892 -27.4108
vn 0.961613 -0.143823 0.233701
v 0.572946 -7.33076 -27.4429
vn 0.979206 -0.149333 0.137313
v 0.575671 -7.33212 -27.4756
vn 0.98737 -0.153405 0.0396022
v 0.575222 -7.33299 -27.5083
vn 0.986024 -0.155999 -0.0584896
v 0.571603 -7.33335 -27.5409
vn 0.975182 -0.157092 -0.156018
v 0.564848 -7.33321 -27.5729
vn 0.954949 -0.156671 -0.252044
v 0.555024 -7.33257 -27.6042
vn 0.925519 -0.154741 -0.345643
v 0.542224 -7.33143 -27.6343
vn 0.887176 -0.151321 -0.435913
v 0.526572 -7.3298 -27.663
vn 0.840289 -0.146444 -0.521985
v 0.508218 -7.3277 -27.6901
vn 0.78531 -0.140157 -0.603029
v 0.487339 -7.32515 -27.7152
vn 0.722767 -0.132519 -0.678267
v 0.464137 -7.32217 -27.7381
vn 0.653264 -0.123606 -0.746972
v 0.438835 -7.3188 -27.7587
vn 0.57747 -0.113502 -0.808484
v 0.411676 -7.31506 -27.7766
vn 0.496114 -0.102305 -0.862209
v 0.382922 -7.311 -27.7918
vn 0.409981 -0.0901226 -0.907631
v 0.35285 -7.30664 -27.804
vn 0.319899 -0.0770724 -0.944312
v 0.32175 -7.30204 -27.8132
vn 0.226736 -0.06328 -0.971898
v 0.28992 -7.29723 -27.8193
vn 0.13139 -0.0488781 -0.990125
v 0.257669 -7.29226 -27.8222
vn 0.034778 -0.0340055 -0.998816
v 0.225305 -7.28719 -27.8219
vn -0.0621686 -0.0188055 -0.997888
v 0.193141 -7.28205 -27.8184
vn -0.158516 -0.00342431 -0.98735
v 0.161487 -7.27691 -27.8117
vn -0.253338 0.0119898 -0.967304
v 0.130648 -7.2718 -27.8019
vn -0.345719 0.0272885 -0.937941
v 0.100919 -7.26678 -27.7891
vn -0.434771 0.0423244 -0.899546
v 0.072589 -7.2619 -27.7734
vn -0.519636 0.0569527 -0.852487
v -0.144509 -8.48334 -27.7179
vn -0.600395 0.0652295 -0.797039
v -0.169332 -8.47884 -27.6968
vn -0.674477 0.0786532 -0.734094
v -0.191979 -8.4746 -27.6734
vn -0.742064 0.0913194 -0.664079
v -0.212231 -8.47065 -27.6478
vn -0.802505 0.103106 -0.587669
v -0.229894 -8.46703 -27.6203
vn -0.855217 0.1139 -0.505599
v -0.244796 -8.46378 -27.5912
vn -0.899693 0.123597 -0.41866
v -0.256796 -8.46093 -27.5607
vn -0.935505 0.132103 -0.327689
v -0.265776 -8.45851 -27.5291
vn -0.962307 0.139337 -0.233562
v -0.271652 -8.45654 -27.4968
vn -0.979841 0.14523 -0.137186
v -0.274365 -8.45503 -27.4641
vn -0.987939 0.149724 -0.0394882
v -0.273891 -8.45401 -27.4312
vn -0.986523 0.152775 0.0585894
v -0.270233 -8.45348 -27.3986
vn -0.975606 0.154356 0.156103
v -0.263426 -8.45345 -27.3664
vn -0.955293 0.15445 0.252113
v -0.253537 -8.45391 -27.335
vn -0.92578 0.153057 0.345695
v -0.240661 -8.45487 -27.3048
vn -0.887352 0.150189 0.435948
v -0.224921 -8.45632 -27.276
vn -0.840377 0.145875 0.522002
v -0.20647 -8.45824 -27.2488
vn -0.78531 0.140157 0.603029
v -0.185484 -8.4606 -27.2236
vn -0.722679 0.133088 0.678249
v -0.162166 -8.4634 -27.2006
vn -0.653089 0.124738 0.746937
v -0.136741 -8.4666 -27.18
vn -0.577209 0.115186 0.808431
v -0.109453 -8.47017 -27.162
vn -0.495771 0.104525 0.86214
v -0.0805649 -8.47408 -27.1468
vn -0.409557 0.092858 0.907546
v -0.0503555 -8.47829 -27.1345
vn -0.3194 0.0802963 0.944212
v -0.0191155 -8.48276 -27.1253
vn -0.226166 0.0669613 0.971784
v 0.0128544 -8.48745 -27.1192
vn -0.130755 0.0529814 0.989998
v 0.0452462 -8.4923 -27.1162
vn -0.0340841 0.0384913 0.998677
v 0.077748 -8.49728 -27.1166
vn 0.062915 0.0236304 0.997739
v 0.110047 -8.50234 -27.1201
vn 0.159308 0.00854202 0.987192
v 0.141831 -8.50742 -27.1268
vn 0.254167 -0.00662865 0.967138
v 0.172796 -8.51248 -27.1367
vn 0.346578 -0.0217355 0.937769
v 0.202642 -8.51747 -27.1495
vn 0.435652 -0.036633 0.89937
v 0.231082 -8.52235 -27.1653
vn 0.52053 -0.0511777 0.852308
v 0.257843 -8.52706 -27.1838
vn 0.600395 -0.0652295 0.797039
v 0.282666 -8.53155 -27.2049
vn 0.674477 -0.0786532 0.734094
v 0.305313 -8.5358 -27.2284
vn 0.742064 -0.0913194 0.664079
v 0.325565 -8.53975 -27.254
vn 0.802505 -0.103106 0.587669
v 0.343227 -8.54336 -27.2815
vn 0.855217 -0.1139 0.505599
v 0.35813 -8.54661 -27.3106
vn 0.899693 -0.123597 0.41866
v 0.370129 -8.54946 -27.3411
vn 0.935505 -0.132103 0.327689
v 0.37911 -8.55189 -27.3726
vn 0.962307 -0.139337 0.233562
v 0.384985 -8.55386 -27.4049
vn 0.979841 -0.14523 0.137186
v 0.387699 -8.55537 -27.4376
vn 0.987939 -0.149724 0.0394882
v 0.387224 -8.55639 -27.4705
vn 0.986523 -0.152775 -0.0585894
v 0.383566 -8.55692 -27.5032
vn 0.975606 -0.154356 -0.156103
v 0.37676 -8.55695 -27.5354
vn 0.955293 -0.15445 -0.252113
v 0.366871 -8.55648 -27.5667
vn 0.92578 -0.153057 -0.345695
v 0.353995 -8.55552 -27.5969
vn 0.887352 -0.150189 -0.435948
v 0.338255 -8.55408 -27.6258
vn 0.840377 -0.145875 -0.522002
v 0.319803 -8.55216 -27.6529
vn 0.78531 -0.140157 -0.603029
v 0.298817 -8.54979 -27.6781
vn 0.722679 -0.133088 -0.678249
v 0.2755 -8.54699 -27.7012
vn 0.653089 -0.124738 -0.746937
v 0.250074 -8.54379 -27.7218
vn 0.577209 -0.115186 -0.808431
v 0.222786 -8.54022 -27.7398
vn 0.495771 -0.104525 -0.86214
v 0.193899 -8.53631 -27.755
vn 0.409557 -0.092858 -0.907546
v 0.163689 -8.5321 -27.7673
vn 0.3194 -0.0802963 -0.944212
v 0.132449 -8.52764 -27.7765
vn 0.226166 -0.0669613 -0.971784
v 0.100479 -8.52295 -27.7826
vn 0.130755 -0.0529814 -0.989998
v 0.0680875 -8.5181 -27.7855
vn 0.0340841 -0.0384913 -0.998677
v 0.0355857 -8.51312 -27.7852
vn -0.062915 -0.0236304 -0.997739
v 0.00328693 -8.50806 -27.7817
vn -0.159308 -0.00854202 -0.987192
v -0.0284978 -8.50298 -27.7749
vn -0.254167 0.00662865 -0.967138
v -0.0594623 -8.49792 -27.7651
vn -0.346578 0.0217355 -0.937769
v -0.0893084 -8.49292 -27.7522
vn -0.435652 0.036633 -0.89937
v -0.117749 -8.48805 -27.7365
vn -0.52053 0.0511777 -0.852308
f 1 66 2 
f 1 65 66 
f 2 67 3 
f 2 66 67 
f 3 68 4 
f 3 67 68 
f 4 69 5 
f 4 68 69 
f 5 70 6 
f 5 69 70 
f 6 71 7 
f 6 70 71 
f 7 72 8 
f 7 71 72 
f 8 73 9 
f 8 72 73 
f 9 74 10 
f 9 73 74 
f 10 75 11 
f 10 74 75 
f 11 76 12 
f 11 75 76 
f 12 77 13 
f 12 76 77 
f 13 78 14 
f 13 77 78 
f 14 79 15 
f 14 78 79 
f 15 80 16 
f 15 79 80 
f 16 81 17 
f 16 80 81 
f 17 82 18 
f 17 81 82 
f 18 83 19 
f 18 82 83 
f 19 84 20 
f 19 83 84 
f 20 85 21 
f 20 84 85 
f 21 86 22 
f 21 85 86 
f 22 87 23 
f 22 86 87 
f 23 88 24 
f 23 87 88 
f 24 89 25 
f 24 88 89 
f 25 90 26 
f 25 89 90 
f 26 91 27 
f 26 90 91 
f 27 92 28 
f 27 91 92 
f 28 93 29 
f 28 92 93 
f 29 94 30 
f 29 93 94 
f 30 95 31 
f 30 94 95 
f 31 96 32 
f 31 95 96 
f 32 97 33 
f 32 96 97 
f 33 98 34 
f 33 97 98 
f 34 99 35 
f 34 98 99 
f 35 100 36 
f 35 99 100 
f 36 101 37 
f 36 100 101 
f 37 102 38 
f 37 101 102 
f 38 103 39 
f 38 102 103 
f 39 104 40 
f 39 103 104 
f 40 105 41 
f 40 104 105 
f 41 106 42 
f 41 105 106 
f 42 107 43 
f 42 106 107 
f 43 108 44 
f 43 107 108 
f 44 109 45 
f 44 108 109 
f 45 110 46 
f 45 109 110 
f 46 111 47 
f 46 110 111 
f 47 112 48 
f 47 111 112 
f 48 113 49 
f 48 112 113 
f 49 114 50 
f 49 113 114 
f 50 115 51 
f 50 114 115 
f 51 116 52 
f 51 115 116 
f 52 117 53 
f 52 116 117 
f 53 118 54 
f 53 117 118 
f 54 119 55 
f 54 118 119 
f 55 120 56 
f 55 119 120 
f 56 121 57 
f 56 120 121 
f 57 122 58 
f 57 121 122 
f 58 123 59 
f 58 122 123 
f 59 124 60 
f 59 123 124 
f 60 125 61 
f 60 124 125 
f 61 126 62 
f 61 125 126 
f 62 127 63 
f 62 126 127 
f 63 128 64 
f 63 127 128 
f 64 65 1 
f 64 128 65 
f 65 130 66 
f 65 129 130 
f 66 131 67 
f 66 130 131 
f 67 132 68 
f 67 131 132 
f 68 133 69 
f 68 132 133 
f 69 134 70 
f 69 133 134 
f 70 135 71 
f 70 134 135 
f 71 136 72 
f 71 135 136 
f 72 137 73 
f 72 136 137 
f 73 138 74 
f 73 137 138 
f 74 139 75 
f 74 138 139 
f 75 140 76 
f 75 139 140 
f 76 141 77 
f 76 140 141 
f 77 142 78 
f 77 141 142 
f 78 143 79 
f 78 142 143 
f 79 144 80 
f 79 143 144 
f 80 145 81 
f 80 144 145 
f 81 146 82 
f 81 145 146 
f 82 147 83 
f 82 146 147 
f 83 148 84 
f 83 147 148 
f 84 149 85 
f 84 148 149 
f 85 150 86 
f 85 149 150 
f 86 151 87 
f 86 150 151 
f 87 152 88 
f 87 151 152 
f 88 153 89 
f 88 152 153 
f 89 154 90 
f 89 153 154 
f 90 155 91 
f 90 154 155 
f 91 156 92 
f 91 155 156 
f 92 157 93 
f 92 156 157 
f 93 158 94 
f 93 157 158 
f 94 159 95 
f 94 158 159 
f 95 160 96 
f 95 159 160 
f 96 161 97 
f 96 160 161 
f 97 162 98 
f 97 161 162 
f 98 163 99 
f 98 162 163 
f 99 164 100 
f 99 163 164 
f 100 165 101 
f 100 164 165 
f 101 166 102 
f 101 165 166 
f 102 167 103 
f 102 166 167 
f 103 168 104 
f 103 167 168 
f 104 169 105 
f 104 168 169 
f 105 170 106 
f 105 169 170 
f 106 171 107 
f 106 170 171 
f 107 172 108 
f 107 171 172 
f 108 173 109 
f 108 172 173 
f 109 174 110 
f 109 173 174 
f 110 175 111 
f 110 174 175 
f 111 176 112 
f 111 175 176 
f 112 177 113 
f 112 176 177 
f 113 178 114 
f 113 177 178 
f 114 179 115 
f 114 178 179 
f 115 180 116 
f 115 179 180 
f 116 181 117 
f 116 180 181 
f 117 182 118 
f 117 181 182 
f 118 183 119 
f 118 182 183 
f 119 184 120 
f 119 183 184 
f 120 185 121 
f 120 184 185 
f 121 186 122 
f 121 185 186 
f 122 187 123 
f 122 186 187 
f 123 188 124 
f 123 187 188 
f 124 189 125 
f 124 188 189 
f 125 190 126 
f 125 189 190 
f 126 191 127 
f 126 190 191 
f 127 192 128 
f 127 191 192 
f 128 129 65 
f 128 192 129 
f 129 194 130 
f 129 193 194 
f 130 195 131 
f 130 194 195 
f 131 196 132 
f 131 195 196 
f 132 197 133 
f 132 196 197 
f 133 198 134 
f 133 197 198 
f 134 199 135 
f 134 198 199 
f 135 200 136 
f 135 199 200 
f 136 201 137 
f 136 200 201 
f 137 202 138 
f 137 201 202 
f 138 203 139 
f 138 202 203 
f 139 204 140 
f 139 203 204 
f 140 205 141 
f 140 204 205 
f 141 206 142 
f 141 205 206 
f 142 207 143 
f 142 206 207 
f 143 208 144 
f 143 207 208 
f 144 209 145 
f 144 208 209 
f 145 210 146 
f 145 209 210 
f 146 211 147 
f 146 210 211 
f 147 212 148 
f 147 211 212 
f 148 213 149 
f 148 212 213 
f 149 214 150 
f 149 213 214 
f 150 215 151 
f 150 214 215 
f 151 216 152 
f 151 215 216 
f 152 217 153 
f 152 216 217 
f 153 218 154 
f 153 217 218 
f 154 219 155 
f 154 218 219 
f 155 220 156 
f 155 219 220 
f 156 221 157 
f 156 220 221 
f 157 222 158 
f 157 221 222 
f 158 223 159 
f 158 222 223 
f 159 224 160 
f 159 223 224 
f 160 225 161 
f 160 224 225 
f 161 226 162 
f 161 225 226 
f 162 227 163 
f 162 226 227 
f 163 228 164 
f 163 227 228 
f 164 229 165 
f 164 228 229 
f 165 230 166 
f 165 229 230 
f 166 231 167 
f 166 230 231 
f 167 232 168 
f 167 231 232 
f 168 233 169 
f 168 232 233 
f 169 234 170 
f 169 233 234 
f 170 235 171 
f 170 234 235 
f 171 236 172 
f 171 235 236 
f 172 237 173 
f 172 236 237 
f 173 238 174 
f 173 237 238 
f 174 239 175 
f 174 238 239 
f 175 240 176 
f 175 239 240 
f 176 241 177 
f 176 240 241 
f 177 242 178 
f 177 241 242 
f 178 243 179 
f 178 242 243 
f 179 244 180 
f 179 243 244 
f 180 245 181 
f 180 244 245 
f 181 246 182 
f 181 245 246 
f 182 247 183 
f 182 246 247 
f 183 248 184 
f 183 247 248 
f 184 249 185 
f 184 248 249 
f 185 250 186 
f 185 249 250 
f 186 251 187 
f 186 250 251 
f 187 252 188 
f 187 251 252 
f 188 253 189 
f 188 252 253 
f 189 254 190 
f 189 253 254 
f 190 255 191 
f 190 254 255 
f 191 256 192 
f 191 255 256 
f 192 193 129 
f 192 256 193 
f 193 258 194 
f 193 257 258 
f 194 259 195 
f 194 258 259 
f 195 260 196 
f 195 259 260 
f 196 261 197 
f 196 260 261 
f 197 262 198 
f 197 261 262 
f 198 263 199 
f 198 262 263 
f 199 264 200 
f 199 263 264 
f 200 265 201 
f 200 264 265 
f 201 266 202 
f 201 265 266 
f 202 267 203 
f 202 266 267 
f 203 268 204 
f 203 267 268 
f 204 269 205 
f 204 268 269 
f 205 270 206 
f 205 269 270 
f 206 271 207 
f 206 270 271 
f 207 272 208 
f 207 271 272 
f 208 273 209 
f 208 272 273 
f 209 274 210 
f 209 273 274 
f 210 275 211 
f 210 274 275 
f 211 276 212 
f 211 275 276 
f 212 277 213 
f 212 276 277 
f 213 278 214 
f 213 277 278 
f 214 279 215 
f 214 278 279 
f 215 280 216 
f 215 279 280 
f 216 281 217 
f 216 280 281 
f 217 282 218 
f 217 281 282 
f 218 283 219 
f 218 282 283 
f 219 284 220 
f 219 283 284 
f 220 285 221 
f 220 284 285 
f 221 286 222 
f 221 285 286 
f 222 287 223 
f 222 286 287 
f 223 288 224 
f 223 287 288 
f 224 289 225 
f 224 288 289 
f 225 290 226 
f 225 289 290 
f 226 291 227 
f 226 290 291 
f 227 292 228 
f 227 291 292 
f 228 293 229 
f 228 292 293 
f 229 294 230 
f 229 293 294 
f 230 295 231 
f 230 294 295 
f 231 296 232 
f 231 295 296 
f 232 297 233 
f 232 296 297 
f 233 298 234 
f 233 297 298 
f 234 299 235 
f 234 298 299 
f 235 300 236 
f 235 299 300 
f 236 301 237 
f 236 300 301 
f 237 302 238 
f 237 301 302 
f 238 303 239 
f 238 302 303 
f 239 304 240 
f 239 303 304 
f 240 305 241 
f 240 304 305 
f 241 306 242 
f 241 305 306 
f 242 307 243 
f 242 306 307 
f 243 308 244 
f 243 307 308 
f 244 309 245 
f 244 308 309 
f 245 310 246 
f 245 309 310 
f 246 311 247 
f 246 310 311 
f 247 312 248 
f 247 311 312 
f 248 313 249 
f 248 312 313 
f 249 314 250 
f 249 313 314 
f 250 315 251 
f 250 314 315 
f 251 316 252 
f 251 315 316 
f 252 317 253 
f 252 316 317 
f 253 318 254 
f 253 317 318 
f 254 319 255 
f 254 318 319 
f 255 320 256 
f 255 319 320 
f 256 257 193 
f 256 320 257 
f 257 322 258 
f 257 321 322 
f 258 323 259 
f 258 322 323 
f 259 324 260 
f 259 323 324 
f 260 325 261 
f 260 324 325 
f 261 326 262 
f 261 325 326 
f 262 327 263 
f 262 326 327 
f 263 328 264 
f 263 327 328 
f 264 329 265 
f 264 328 329 
f 265 330 266 
f 265 329 330 
f 266 331 267 
f 266 330 331 
f 267 332 268 
f 267 331 332 
f 268 333 269 
f 268 332 333 
f 269 334 270 
f 269 333 334 
f 270 335 271 
f 270 334 335 
f 271 336 272 
f 271 335 336 
f 272 337 273 
f 272 336 337 
f 273 338 274 
f 273 337 338 
f 274 339 275 
f 274 338 339 
f 275 340 276 
f 275 339 340 
f 276 341 277 
f 276 340 341 
f 277 342 278 
f 277 341 342 
f 278 343 279 
f 278 342 343 
f 279 344 280 
f 279 343 344 
f 280 345 281 
f 280 344 345 
f 281 346 282 
f 281 345 346 
f 282 347 283 
f 282 346 347 
f 283 348 284 
f 283 347 348 
f 284 349 285 
f 284 348 349 
f 285 350 286 
f 285 349 350 
f 286 351 287 
f 286 350 351 
f 287 352 288 
f 287 351 352 
f 288 353 289 
f 288 352 353 
f 289 354 290 
f 289 353 354 
f 290 355 291 
f 290 354 355 
f 291 356 292 
f 291 355 356 
f 292 357 293 
f 292 356 357 
f 293 358 294 
f 293 357 358 
f 294 359 295 
f 294 358 359 
f 295 360 296 
f 295 359 360 
f 296 361 297 
f 296 360 361 
f 297 362 298 
f 297 361 362 
f 298 363 299 
f 298 362 363 
f 299 364 300 
f 299 363 364 
f 300 365 301 
f 300 364 365 
f 301 366 302 
f 301 365 366 
f 302 367 303 
f 302 366 367 
f 303 368 304 
f 303 367 368 
f 304 369 305 
f 304 368 369 
f 305 370 306 
f 305 369 370 
f 306 371 307 
f 306 370 371 
f 307 372 308 
f 307 371 372 
f 308 373 309 
f 308 372 373 
f 309 374 310 
f 309 373 374 
f 310 375 311 
f 310 374 375 
f 311 376 312 
f 311 375 376 
f 312 377 313 
f 312 376 377 
f 313 378 314 
f 313 377 378 
f 314 379 315 
f 314 378 379 
f 315 380 316 
f 315 379 380 
f 316 381 317 
f 316 380 381 
f 317 382 318 
f 317 381 382 
f 318 383 319 
f 318 382 383 
f 319 384 320 
f 319 383 384 
f 320 321 257 
f 320 384 321 
f 321 386 322 
f 321 385 386 
f 322 387 323 
f 322 386 387 
f 323 388 324 
f 323 387 388 
f 324 389 325 
f 324 388 389 
f 325 390 326 
f 325 389 390 
f 326 391 327 
f 326 390 391 
f 327 392 328 
f 327 391 392 
f 328 393 329 
f 328 392 393 
f 329 394 330 
f 329 393 394 
f 330 395 331 
f 330 394 395 
f 331 396 332 
f 331 395 396 
f 332 397 333 
f 332 396 397 
f 333 398 334 
f 333 397 398 
f 334 399 335 
f 334 398 399 
f 335 400 336 
f 335 399 400 
f 336 401 337 
f 336 400 401 
f 337 402 338 
f 337 401 402 
f 338 403 339 
f 338 402 403 
f 339 404 340 
f 339 403 404 
f 340 405 341 
f 340 404 405 
f 341 406 342 
f 341 405 406 
f 342 407 343 
f 342 406 407 
f 343 408 344 
f 343 407 408 
f 344 409 345 
f 344 408 409 
f 345 410 346 
f 345 409 410 
f 346 411 347 
f 346 410 411 
f 347 412 348 
f 347 411 412 
f 348 413 349 
f 348 412 413 
f 349 414 350 
f 349 413 414 
f 350 415 351 
f 350 414 415 
f 351 416 352 
f 351 415 416 
f 352 417 353 
f 352 416 417 
f 353 418 354 
f 353 417 418 
f 354 419 355 
f 354 418 419 
f 355 420 356 
f 355 419 420 
f 356 421 357 
f 356 420 421 
f 357 422 358 
f 357 421 422 
f 358 423 359 
f 358 422 423 
f 359 424 360 
f 359 423 424 
f 360 425 361 
f 360 424 425 
f 361 426 362 
f 361 425 426 
f 362 427 363 
f 362 426 427 
f 363 428 364 
f 363 427 428 
f 364 429 365 
f 364 428 429 
f 365 430 366 
f 365 429 430 
f 366 431 367 
f 366 430 431 
f 367 432 368 
f 367 431 432 
f 368 433 369 
f 368 432 433 
f 369 434 370 
f 369 433 434 
f 370 435 371 
f 370 434 435 
f 371 436 372 
f 371 435 436 
f 372 437 373 
f 372 436 437 
f 373 438 374 
f 373 437 438 
f 374 439 375 
f 374 438 439 
f 375 440 376 
f 375 439 440 
f 376 441 377 
f 376 440 441 
f 377 442 378 
f 377 441 442 
f 378 443 379 
f 378 442 443 
f 379 444 380 
f 379 443 444 
f 380 445 381 
f 380 444 445 
f 381 446 382 
f 381 445 446 
f 382 447 383 
f 382 446 447 
f 383 448 384 
f 383 447 448 
f 384 385 321 
f 384 448 385 
f 385 450 386 
f 385 449 450 
f 386 451 387 
f 386 450 451 
f 387 452 388 
f 387 451 452 
f 388 453 389 
f 388 452 453 
f 389 454 390 
f 389 453 454 
f 390 455 391 
f 390 454 455 
f 391 456 392 
f 391 455 456 
f 392 457 393 
f 392 456 457 
f 393 458 394 
f 393 457 458 
f 394 459 395 
f 394 458 459 
f 395 460 396 
f 395 459 460 
f 396 461 397 
f 396 460 461 
f 397 462 398 
f 397 461 462 
f 398 463 399 
f 398 462 463 
f 399 464 400 
f 399 463 464 
f 400 465 401 
f 400 464 465 
f 401 466 402 
f 401 465 466 
f 402 467 403 
f 402 466 467 
f 403 468 404 
f 403 467 468 
f 404 469 405 
f 404 468 469 
f 405 470 406 
f 405 469 470 
f 406 471 407 
f 406 470 471 
f 407 472 408 
f 407 471 472 
f 408 473 409 
f 408 472 473 
f 409 474 410 
f 409 473 474 
f 410 475 411 
f 410 474 475 
f 411 476 412 
f 411 475 476 
f 412 477 413 
f 412 476 477 
f 413 478 414 
f 413 477 478 
f 414 479 415 
f 414 478 479 
f 415 480 416 
f 415 479 480 
f 416 481 417 
f 416 480 481 
f 417 482 418 
f 417 481 482 
f 418 483 419 
f 418 482 483 
f 419 484 420 
f 419 483 484 
f 420 485 421 
f 420 484 485 
f 421 486 422 
f 421 485 486 
f 422 487 423 
f 422 486 487 
f 423 488 424 
f 423 487 488 
f 424 489 425 
f 424 488 489 
f 425 490 426 
f 425 489 490 
f 426 491 427 
f 426 490 491 
f 427 492 428 
f 427 491 492 
f 428 493 429 
f 428 492 493 
f 429 494 430 
f 429 493 494 
f 430 495 431 
f 430 494 495 
f 431 496 432 
f 431 495 496 
f 432 497 433 
f 432 496 497 
f 433 498 434 
f 433 497 498 
f 434 499 435 
f 434 498 499 
f 435 500 436 
f 435 499 500 
f 436 501 437 
f 436 500 501 
f 437 502 438 
f 437 501 502 
f 438 503 439 
f 438 502 503 
f 439 504 440 
f 439 503 504 
f 440 505 441 
f 440 504 505 
f 441 506 442 
f 441 505 506 
f 442 507 443 
f 442 506 507 
f 443 508 444 
f 443 507 508 
f 444 509 445 
f 444 508 509 
f 445 510 446 
f 445 509 510 
f 446 511 447 
f 446 510 511 
f 447 512 448 
f 447 511 512 
f 448 449 385 
f 448 512 449 
f 449 514 450 
f 449 513 514 
f 450 515 451 
f 450 514 515 
f 451 516 452 
f 451 515 516 
f 452 517 453 
f 452 516 517 
f 453 518 454 
f 453 517 518 
f 454 519 455 
f 454 518 519 
f 455 520 456 
f 455 519 520 
f 456 521 457 
f 456 520 521 
f 457 522 458 
f 457 521 522 
f 458 523 459 
f 458 522 523 
f 459 524 460 
f 459 523 524 
f 460 525 461 
f 460 524 525 
f 461 526 462 
f 461 525 526 
f 462 527 463 
f 462 526 527 
f 463 528 464 
f 463 527 528 
f 464 529 465 
f 464 528 529 
f 465 530 466 
f 465 529 530 
f 466 531 467 
f 466 530 531 
f 467 532 468 
f 467 531 532 
f 468 533 469 
f 468 532 533 
f 469 534 470 
f 469 533 534 
f 470 535 471 
f 470 534 535 
f 471 536 472 
f 471 535 536 
f 472 537 473 
f 472 536 537 
f 473 538 474 
f 473 537 538 
f 474 539 475 
f 474 538 539 
f 475 540 476 
f 475 539 540 
f 476 541 477 
f 476 540 541 
f 477 542 478 
f 477 541 542 
f 478 543 479 
f 478 542 543 
f 479 544 480 
f 479 543 544 
f 480 545 481 
f 480 544 545 
f 481 546 482 
f 481 545 546 
f 482 547 483 
f 482 546 547 
f 483 548 484 
f 483 547 548 
f 484 549 485 
f 484 548 549 
f 485 550 486 
f 485 549 550 
f 486 551 487 
f 486 550 551 
f 487 552 488 
f 487 551 552 
f 488 553 489 
f 488 552 553 
f 489 554 490 
f 489 553 554 
f 490 555 491 
f 490 554 555 
f 491 556 492 
f 491 555 556 
f 492 557 493 
f 492 556 557 
f 493 558 494 
f 493 557 558 
f 494 559 495 
f 494 558 559 
f 495 560 496 
f 495 559 560 
f 496 561 497 
f 496 560 561 
f 497 562 498 
f 497 561 562 
f 498 563 499 
f 498 562 563 
f 499 564 500 
f 499 563 564 
f 500 565 501 
f 500 564 565 
f 501 566 502 
f 501 565 566 
f 502 567 503 
f 502 566 567 
f 503 568 504 
f 503 567 568 
f 504 569 505 
f 504 568 569 
f 505 570 506 
f 505 569 570 
f 506 571 507 
f 506 570 571 
f 507 572 508 
f 507 571 572 
f 508 573 509 
f 508 572 573 
f 509 574 510 
f 509 573 574 
f 510 575 511 
f 510 574 575 
f 511 576 512 
f 511 575 576 
f 512 513 449 
f 512 576 513 
f 513 578 514 
f 513 577 578 
f 514 579 515 
f 514 578 579 
f 515 580 516 
f 515 579 580 
f 516 581 517 
f 516 580 581 
f 517 582 518 
f 517 581 582 
f 518 583 519 
f 518 582 583 
f 519 584 520 
f 519 583 584 
f 520 585 521 
f 520 584 585 
f 521 586 522 
f 521 585 586 
f 522 587 523 
f 522 586 587 
f 523 588 524 
f 523 587 588 
f 524 589 525 
f 524 588 589 
f 525 590 526 
f 525 589 590 
f 526 591 527 
f 526 590 591 
f 527 592 528 
f 527 591 592 
f 528 593 529 
f 528 592 593 
f 529 594 530 
f 529 593 594 
f 530 595 531 
f 530 594 595 
f 531 596 532 
f 531 595 596 
f 532 597 533 
f 532 596 597 
f 533 598 534 
f 533 597 598 
f 534 599 535 
f 534 598 599 
f 535 600 536 
f 535 599 600 
f 536 601 537 
f 536 600 601 
f 537 602 538 
f 537 601 602 
f 538 603 539 
f 538 602 603 
f 539 604 540 
f 539 603 604 
f 540 605 541 
f 540 604 605 
f 541 606 542 
f 541 605 606 
f 542 607 543 
f 542 606 607 
f 543 608 544 
f 543 607 608 
f 544 609 545 
f 544 608 609 
f 545 610 546 
f 545 609 610 
f 546 611 547 
f 546 610 611 
f 547 612 548 
f 547 611 612 
f 548 613 549 
f 548 612 613 
f 549 614 550 
f 549 613 614 
f 550 615 551 
f 550 614 615 
f 551 616 552 
f 551 615 616 
f 552 617 553 
f 552 616 617 
f 553 618 554 
f 553 617 618 
f 554 619 555 
f 554 618 619 
f 555 620 556 
f 555 619 620 
f 556 621 557 
f 556 620 621 
f 557 622 558 
f 557 621 622 
f 558 623 559 
f 558 622 623 
f 559 624 560 
f 559 623 624 
f 560 625 561 
f 560 624 625 
f 561 626 562 
f 561 625 626 
f 562 627 563 
f 562 626 627 
f 563 628 564 
f 563 627 628 
f 564 629 565 
f 564 628 629 
f 565 630 566 
f 565 629 630 
f 566 631 567 
f 566 630 631 
f 567 632 568 
f 567 631 632 
f 568 633 569 
f 568 632 633 
f 569 634 570 
f 569 633 634 
f 570 635 571 
f 570 634 635 
f 571 636 572 
f 571 635 636 
f 572 637 573 
f 572 636 637 
f 573 638 574 
f 573 637 638 
f 574 639 575 
f 574 638 639 
f 575 640 576 
f 575 639 640 
f 576 577 513 
f 576 640 577 
