# Branch
v -12.7459 -5.53698 -27.6845
vn -0.310497 -0.328524 -0.892
v -12.749 -5.56062 -27.6732
vn -0.32181 -0.4166 -0.850225
v -12.7512 -5.58319 -27.6598
vn -0.330024 -0.500664 -0.800262
v -12.7525 -5.60446 -27.6443
vn -0.335059 -0.579907 -0.742592
v -12.753 -5.62423 -27.6269
vn -0.336868 -0.653564 -0.677771
v -12.7526 -5.64231 -27.6078
vn -0.335433 -0.720928 -0.606422
v -12.7514 -5.65853 -27.5871
vn -0.330767 -0.781348 -0.529233
v -12.7492 -5.67273 -27.565
vn -0.322916 -0.834244 -0.446947
v -12.7463 -5.68477 -27.5417
vn -0.311955 -0.879106 -0.360357
v -12.7426 -5.69454 -27.5176
vn -0.297989 -0.915501 -0.270297
v -12.738 -5.70194 -27.4927
vn -0.281154 -0.94308 -0.177633
v -12.7328 -5.70691 -27.4674
vn -0.261611 -0.961576 -0.0832589
v -12.7269 -5.70938 -27.4418
vn -0.239549 -0.970811 0.0119173
v -12.7203 -5.70935 -27.4163
vn -0.215179 -0.970697 0.106979
v -12.7132 -5.70681 -27.3911
vn -0.188738 -0.961235 0.20101
v -12.7056 -5.70179 -27.3663
vn -0.160478 -0.942516 0.293105
v -12.6976 -5.69433 -27.3424
vn -0.130673 -0.91472 0.382378
v -12.6893 -5.6845 -27.3194
vn -0.0996102 -0.878114 0.467968
v -12.6807 -5.67241 -27.2976
vn -0.0675877 -0.833052 0.549051
v -12.6719 -5.65816 -27.2773
vn -0.0349143 -0.779967 0.624846
v -12.6631 -5.64189 -27.2586
vn -0.00190457 -0.71937 0.694624
v -12.6542 -5.62377 -27.2416
vn 0.0311235 -0.651846 0.757713
v -12.6454 -5.60396 -27.2267
vn 0.0638518 -0.578043 0.813504
v -12.6368 -5.58265 -27.2138
vn 0.0959651 -0.498674 0.861461
v -12.6284 -5.56006 -27.2031
vn 0.127154 -0.414503 0.901121
v -12.6204 -5.5364 -27.1948
vn 0.157119 -0.32634 0.932103
v -12.6128 -5.51189 -27.1889
vn 0.18557 -0.235033 0.954108
v -12.6056 -5.48677 -27.1855
vn 0.212235 -0.141464 0.966925
v -12.599 -5.46129 -27.1845
vn 0.236855 -0.0465316 0.97043
v -12.593 -5.43569 -27.1861
vn 0.259194 0.0488486 0.964589
v -12.5877 -5.41021 -27.1902
vn 0.279038 0.143758 0.949459
v -12.5831 -5.38511 -27.1967
vn 0.296193 0.237284 0.925184
v -12.5792 -5.36062 -27.2056
vn 0.310497 0.328524 0.892
v -12.5762 -5.33698 -27.2168
vn 0.32181 0.4166 0.850225
v -12.574 -5.31441 -27.2302
vn 0.330024 0.500664 0.800262
v -12.5726 -5.29314 -27.2457
vn 0.335059 0.579907 0.742592
v -12.5721 -5.27337 -27.2631
vn 0.336868 0.653564 0.677771
v -12.5725 -5.25529 -27.2822
vn 0.335433 0.720928 0.606422
v -12.5738 -5.23907 -27.303
vn 0.330767 0.781348 0.529233
v -12.5759 -5.22487 -27.325
vn 0.322916 0.834244 0.446947
v -12.5788 -5.21283 -27.3483
vn 0.311955 0.879106 0.360357
v -12.5826 -5.20306 -27.3725
vn 0.297989 0.915501 0.270297
v -12.5871 -5.19566 -27.3973
vn 0.281154 0.94308 0.177633
v -12.5923 -5.19069 -27.4227
vn 0.261611 0.961576 0.0832589
v -12.5983 -5.18821 -27.4482
vn 0.239549 0.970811 -0.0119173
v -12.6048 -5.18824 -27.4737
vn 0.215179 0.970697 -0.106979
v -12.6119 -5.19078 -27.499
vn 0.188738 0.961235 -0.20101
v -12.6195 -5.19581 -27.5237
vn 0.160478 0.942516 -0.293105
v -12.6275 -5.20327 -27.5477
vn 0.130673 0.91472 -0.382378
v -12.6358 -5.2131 -27.5706
vn 0.0996102 0.878114 -0.467968
v -12.6444 -5.22519 -27.5924
vn 0.0675877 0.833052 -0.549051
v -12.6532 -5.23944 -27.6127
vn 0.0349143 0.779967 -0.624846
v -12.6621 -5.25571 -27.6315
vn 0.00190457 0.71937 -0.694624
v -12.6709 -5.27383 -27.6484
vn -0.0311235 0.651846 -0.757713
v -12.6797 -5.29364 -27.6634
vn -0.0638518 0.578043 -0.813504
v -12.6883 -5.31495 -27.6763
vn -0.0959651 0.498674 -0.861461
v -12.6967 -5.33754 -27.6869
vn -0.127154 0.414503 -0.901121
v -12.7047 -5.3612 -27.6952
vn -0.157119 0.32634 -0.932103
v -12.7124 -5.38571 -27.7011
vn -0.18557 0.235033 -0.954108
v -12.7195 -5.41083 -27.7046
vn -0.212235 0.141464 -0.966925
v -12.7261 -5.43631 -27.7055
vn -0.236855 0.0465316 -0.97043
v -12.7321 -5.46191 -27.7039
vn -0.259194 -0.0488486 -0.964589
v -12.7375 -5.48739 -27.6999
vn -0.279038 -0.143758 -0.949459
v -12.7421 -5.51249 -27.6934
vn -0.296193 -0.237284 -0.925184
v -11.0884 -5.93233 -28.0638
vn -0.256735 -0.341308 -0.90421
v -11.0916 -5.95621 -28.0524
vn -0.268307 -0.429323 -0.862377
v -11.094 -5.97897 -28.0388
vn -0.277295 -0.513203 -0.812238
v -11.0957 -6.00039 -28.0231
vn -0.283612 -0.592141 -0.754277
v -11.0967 -6.02026 -28.0054
vn -0.287199 -0.665376 -0.689052
v -11.0969 -6.03839 -27.9859
vn -0.288019 -0.732203 -0.617191
v -11.0964 -6.05461 -27.9648
vn -0.286066 -0.791978 -0.539386
v -11.0951 -6.06876 -27.9423
vn -0.281357 -0.844127 -0.456386
v -11.0931 -6.08071 -27.9185
vn -0.273939 -0.888146 -0.368991
v -11.0904 -6.09033 -27.8939
vn -0.263883 -0.923611 -0.278043
v -11.0869 -6.09754 -27.8685
vn -0.251285 -0.950182 -0.184417
v -11.0829 -6.10227 -27.8426
vn -0.236268 -0.967602 -0.0890147
v -11.0782 -6.10447 -27.8165
vn -0.218975 -0.975704 0.00724466
v -11.0729 -6.10411 -27.7904
vn -0.199573 -0.974409 0.103434
v -11.0671 -6.10122 -27.7645
vn -0.178249 -0.963729 0.198628
v -11.0609 -6.0958 -27.7392
vn -0.155209 -0.943769 0.291908
v -11.0542 -6.08792 -27.7147
vn -0.130673 -0.91472 0.382378
v -11.0472 -6.07765 -27.6911
vn -0.10488 -0.876861 0.469164
v -11.0399 -6.06508 -27.6688
vn -0.0780761 -0.830557 0.551433
v -11.0325 -6.05035 -27.6479
vn -0.0505205 -0.776255 0.628391
v -11.0249 -6.03358 -27.6287
vn -0.0224784 -0.714478 0.699297
v -11.0172 -6.01496 -27.6113
vn 0.00578025 -0.645819 0.763469
v -11.0095 -5.99464 -27.5958
vn 0.0339832 -0.570941 0.820288
v -11.002 -5.97283 -27.5826
vn 0.0618589 -0.490564 0.869207
v -10.9946 -5.94974 -27.5716
vn 0.0891389 -0.405463 0.909755
v -10.9874 -5.92559 -27.5629
vn 0.11556 -0.316457 0.941542
v -10.9805 -5.90061 -27.5568
vn 0.140869 -0.224404 0.964261
v -10.974 -5.87504 -27.5531
vn 0.164821 -0.130189 0.977694
v -10.968 -5.84914 -27.552
vn 0.187186 -0.0347203 0.981711
v -10.9624 -5.82314 -27.5535
vn 0.207747 0.0610825 0.976273
v -10.9574 -5.79731 -27.5575
vn 0.226309 0.156297 0.961434
v -10.9529 -5.77188 -27.5641
vn 0.24269 0.250007 0.937336
v -10.9491 -5.74711 -27.5731
vn 0.256735 0.341308 0.90421
v -10.946 -5.72323 -27.5844
vn 0.268307 0.429323 0.862377
v -10.9435 -5.70047 -27.598
vn 0.277295 0.513203 0.812238
v -10.9418 -5.67905 -27.6138
vn 0.283612 0.592141 0.754277
v -10.9408 -5.65918 -27.6315
vn 0.287199 0.665376 0.689052
v -10.9406 -5.64104 -27.6509
vn 0.288019 0.732203 0.617191
v -10.9411 -5.62482 -27.6721
vn 0.286066 0.791978 0.539386
v -10.9424 -5.61067 -27.6946
vn 0.281357 0.844127 0.456386
v -10.9444 -5.59873 -27.7183
vn 0.273939 0.888146 0.368991
v -10.9472 -5.58911 -27.743
vn 0.263883 0.923611 0.278043
v -10.9506 -5.5819 -27.7684
vn 0.251285 0.950182 0.184417
v -10.9547 -5.57717 -27.7943
vn 0.236268 0.967602 0.0890147
v -10.9593 -5.57497 -27.8204
vn 0.218975 0.975704 -0.00724466
v -10.9646 -5.57532 -27.8465
vn 0.199573 0.974409 -0.103434
v -10.9704 -5.57822 -27.8723
vn 0.178249 0.963729 -0.198628
v -10.9766 -5.58364 -27.8976
vn 0.155209 0.943769 -0.291908
v -10.9833 -5.59152 -27.9222
vn 0.130673 0.91472 -0.382378
v -10.9903 -5.60179 -27.9457
vn 0.10488 0.876861 -0.469164
v -10.9976 -5.61436 -27.968
vn 0.0780761 0.830557 -0.551433
v -11.0051 -5.62909 -27.9889
vn 0.0505205 0.776255 -0.628391
v -11.0127 -5.64585 -28.0082
vn 0.0224784 0.714478 -0.699297
v -11.0203 -5.66448 -28.0256
vn -0.00578025 0.645819 -0.763469
v -11.028 -5.6848 -28.041
vn -0.0339832 0.570941 -0.820288
v -11.0355 -5.70661 -28.0543
vn -0.0618589 0.490564 -0.869207
v -11.0429 -5.7297 -28.0653
vn -0.0891389 0.405463 -0.909755
v -11.0501 -5.75385 -28.0739
vn -0.11556 0.316457 -0.941542
v -11.057 -5.77883 -28.0801
vn -0.140869 0.224404 -0.964261
v -11.0635 -5.80439 -28.0837
vn -0.164821 0.130189 -0.977694
v -11.0695 -5.8303 -28.0848
vn -0.187186 0.0347203 -0.981711
v -11.0751 -5.85629 -28.0833
vn -0.207747 -0.0610825 -0.976273
v -11.0802 -5.88213 -28.0793
vn -0.226309 -0.156297 -0.961434
v -11.0846 -5.90756 -28.0728
vn -0.24269 -0.250007 -0.937336
v -9.4069 -6.2936 -28.3534
vn -0.202037 -0.353023 -0.91354
v -9.41014 -6.31772 -28.3419
vn -0.213872 -0.440981 -0.871662
v -9.41283 -6.34068 -28.3281
vn -0.223648 -0.524692 -0.821389
v -9.41492 -6.36226 -28.3121
vn -0.23127 -0.603351 -0.763205
v -9.41639 -6.38223 -28.2941
vn -0.236664 -0.676198 -0.697672
v -9.41725 -6.40043 -28.2743
vn -0.23978 -0.742534 -0.625419
v -9.41747 -6.41666 -28.2529
vn -0.240586 -0.801718 -0.547144
v -9.41706 -6.43077 -28.23
vn -0.239075 -0.853182 -0.463599
v -9.41601 -6.44264 -28.2058
vn -0.235262 -0.896429 -0.375589
v -9.41434 -6.45213 -28.1807
vn -0.229183 -0.931043 -0.283962
v -9.41207 -6.45916 -28.1548
vn -0.220897 -0.95669 -0.189601
v -9.40921 -6.46367 -28.1284
vn -0.210483 -0.973124 -0.093413
v -9.4058 -6.46561 -28.1018
vn -0.198043 -0.980187 0.00367407
v -9.40187 -6.46495 -28.0752
vn -0.183695 -0.977809 0.100726
v -9.39745 -6.46172 -28.0488
vn -0.167578 -0.966015 0.196807
v -9.39258 -6.45593 -28.023
vn -0.149847 -0.944917 0.290994
v -9.38733 -6.44765 -27.9979
vn -0.130673 -0.91472 0.382378
v -9.38172 -6.43695 -27.9739
vn -0.110241 -0.875713 0.470079
v -9.37583 -6.42394 -27.9511
vn -0.0887472 -0.828272 0.553253
v -9.3697 -6.40874 -27.9297
vn -0.0663985 -0.772855 0.631099
v -9.36339 -6.3915 -27.91
vn -0.0434104 -0.709995 0.702868
v -9.35697 -6.37239 -27.8922
vn -0.0200042 -0.640297 0.767867
v -9.3505 -6.35158 -27.8764
vn 0.00359461 -0.564433 0.825471
v -9.34404 -6.32929 -27.8628
vn 0.0271588 -0.483133 0.875126
v -9.33765 -6.30571 -27.8515
vn 0.0504615 -0.39718 0.916352
v -9.33139 -6.28109 -27.8426
vn 0.0732782 -0.307402 0.948754
v -9.32533 -6.25566 -27.8362
vn 0.0953892 -0.214663 0.972019
v -9.31951 -6.22965 -27.8324
vn 0.116582 -0.119858 0.985922
v -9.31401 -6.20334 -27.8312
vn 0.136651 -0.0238977 0.990331
v -9.30887 -6.17696 -27.8326
vn 0.155405 0.0722924 0.985202
v -9.30413 -6.15077 -27.8366
vn 0.172662 0.167786 0.970585
v -9.29986 -6.12502 -27.8432
vn 0.188256 0.261664 0.946621
v -9.29608 -6.09996 -27.8523
vn 0.202037 0.353023 0.91354
v -9.29283 -6.07584 -27.8637
vn 0.213872 0.440981 0.871662
v -9.29015 -6.05288 -27.8775
vn 0.223648 0.524692 0.821389
v -9.28806 -6.03131 -27.8935
vn 0.23127 0.603351 0.763205
v -9.28658 -6.01133 -27.9115
vn 0.236664 0.676198 0.697672
v -9.28573 -5.99314 -27.9313
vn 0.23978 0.742534 0.625419
v -9.28551 -5.9769 -27.9527
vn 0.240586 0.801718 0.547144
v -9.28592 -5.96279 -27.9757
vn 0.239075 0.853182 0.463599
v -9.28697 -5.95093 -27.9998
vn 0.235262 0.896429 0.375589
v -9.28863 -5.94144 -28.0249
vn 0.229183 0.931043 0.283962
v -9.29091 -5.9344 -28.0508
vn 0.220897 0.95669 0.189601
v -9.29376 -5.92989 -28.0772
vn 0.210483 0.973124 0.093413
v -9.29717 -5.92796 -28.1038
vn 0.198043 0.980187 -0.00367407
v -9.30111 -5.92861 -28.1304
vn 0.183695 0.977809 -0.100726
v -9.30553 -5.93184 -28.1568
vn 0.167578 0.966015 -0.196807
v -9.31039 -5.93763 -28.1826
vn 0.149847 0.944917 -0.290994
v -9.31565 -5.94591 -28.2077
vn 0.130673 0.91472 -0.382378
v -9.32125 -5.95661 -28.2317
vn 0.110241 0.875713 -0.470079
v -9.32715 -5.96962 -28.2545
vn 0.0887472 0.828272 -0.553253
v -9.33328 -5.98482 -28.2759
vn 0.0663985 0.772855 -0.631099
v -9.33958 -6.00206 -28.2956
vn 0.0434104 0.709995 -0.702868
v -9.346 -6.02118 -28.3134
vn 0.0200042 0.640297 -0.767867
v -9.35247 -6.04198 -28.3292
vn -0.00359461 0.564433 -0.825471
v -9.35894 -6.06428 -28.3428
vn -0.0271588 0.483133 -0.875126
v -9.36533 -6.08785 -28.3541
vn -0.0504615 0.39718 -0.916352
v -9.37158 -6.11247 -28.363
vn -0.0732782 0.307402 -0.948754
v -9.37765 -6.13791 -28.3694
vn -0.0953892 0.214663 -0.972019
v -9.38346 -6.16391 -28.3732
vn -0.116582 0.119858 -0.985922
v -9.38897 -6.19023 -28.3744
vn -0.136651 0.0238977 -0.990331
v -9.39411 -6.21661 -28.373
vn -0.155405 -0.0722924 -0.985202
v -9.39884 -6.2428 -28.369
vn -0.172662 -0.167786 -0.970585
v -9.40312 -6.26855 -28.3624
vn -0.188256 -0.261664 -0.946621
v -7.70148 -6.62076 -28.5532
vn -0.14693 -0.363558 -0.919911
v -7.70484 -6.64512 -28.5416
vn -0.159031 -0.451466 -0.878002
v -7.70777 -6.66829 -28.5276
vn -0.1696 -0.535025 -0.827637
v -7.71024 -6.69002 -28.5114
vn -0.178536 -0.613432 -0.769302
v -7.71224 -6.71011 -28.4932
vn -0.185752 -0.685932 -0.703558
v -7.71375 -6.72838 -28.4731
vn -0.19118 -0.751825 -0.631038
v -7.71474 -6.74463 -28.4513
vn -0.194766 -0.810478 -0.552441
v -7.71522 -6.75873 -28.4281
vn -0.196477 -0.861326 -0.468523
v -7.71517 -6.77052 -28.4035
vn -0.196296 -0.903879 -0.380094
v -7.71459 -6.7799 -28.378
vn -0.194224 -0.937727 -0.288004
v -7.7135 -6.78678 -28.3517
vn -0.190281 -0.962544 -0.19314
v -7.7119 -6.79109 -28.3249
vn -0.184506 -0.978091 -0.0964163
v -7.70981 -6.79279 -28.2978
vn -0.176954 -0.984218 0.00123602
v -7.70724 -6.79186 -28.2708
vn -0.167698 -0.980867 0.0988764
v -7.70423 -6.78832 -28.244
vn -0.156827 -0.96807 0.195565
v -7.70079 -6.78218 -28.2177
vn -0.144446 -0.94595 0.290369
v -7.69698 -6.77353 -28.1922
vn -0.130673 -0.91472 0.382378
v -7.69281 -6.76243 -28.1677
vn -0.115643 -0.87468 0.470703
v -7.68834 -6.749 -28.1445
vn -0.099498 -0.826217 0.554496
v -7.6836 -6.73336 -28.1227
vn -0.0823951 -0.769797 0.632949
v -7.67863 -6.71567 -28.1027
vn -0.0644988 -0.705963 0.705306
v -7.6735 -6.69609 -28.0845
vn -0.0459813 -0.63533 0.77087
v -7.66825 -6.67481 -28.0684
vn -0.0270209 -0.558579 0.829011
v -7.66292 -6.65205 -28.0545
vn -0.00780038 -0.476449 0.879168
v -7.65757 -6.62801 -28.0429
vn 0.0114953 -0.38973 0.920857
v -7.65225 -6.60294 -28.0338
vn 0.0306803 -0.299258 0.953679
v -7.64702 -6.57706 -28.0273
vn 0.0495698 -0.205903 0.977316
v -7.64191 -6.55063 -28.0234
vn 0.0679819 -0.110566 0.991541
v -7.63699 -6.52391 -28.0221
vn 0.0857393 -0.0141641 0.996217
v -7.6323 -6.49716 -28.0234
vn 0.102671 0.0823743 0.991299
v -7.62788 -6.47062 -28.0274
vn 0.118614 0.178119 0.976834
v -7.62378 -6.44455 -28.034
vn 0.133415 0.272149 0.952961
v -7.62003 -6.41922 -28.0432
vn 0.14693 0.363558 0.919911
v -7.61668 -6.39485 -28.0548
vn 0.159031 0.451466 0.878002
v -7.61375 -6.37169 -28.0688
vn 0.1696 0.535025 0.827637
v -7.61127 -6.34996 -28.085
vn 0.178536 0.613432 0.769302
v -7.60927 -6.32986 -28.1032
vn 0.185752 0.685932 0.703558
v -7.60777 -6.3116 -28.1233
vn 0.19118 0.751825 0.631038
v -7.60677 -6.29534 -28.1451
vn 0.194766 0.810478 0.552441
v -7.6063 -6.28125 -28.1683
vn 0.196477 0.861326 0.468523
v -7.60635 -6.26945 -28.1928
vn 0.196296 0.903879 0.380094
v -7.60692 -6.26007 -28.2184
vn 0.194224 0.937727 0.288004
v -7.60802 -6.25319 -28.2447
vn 0.190281 0.962544 0.19314
v -7.60962 -6.24888 -28.2715
vn 0.184506 0.978091 0.0964163
v -7.61171 -6.24718 -28.2985
vn 0.176954 0.984218 -0.00123602
v -7.61428 -6.24811 -28.3256
vn 0.167698 0.980867 -0.0988764
v -7.61729 -6.25166 -28.3524
vn 0.156827 0.96807 -0.195565
v -7.62072 -6.25779 -28.3787
vn 0.144446 0.94595 -0.290369
v -7.62454 -6.26645 -28.4042
vn 0.130673 0.91472 -0.382378
v -7.6287 -6.27755 -28.4287
vn 0.115643 0.87468 -0.470703
v -7.63318 -6.29098 -28.4519
vn 0.099498 0.826217 -0.554496
v -7.63792 -6.30662 -28.4736
vn 0.0823951 0.769797 -0.632949
v -7.64288 -6.32431 -28.4937
vn 0.0644988 0.705963 -0.705306
v -7.64801 -6.34389 -28.5119
vn 0.0459813 0.63533 -0.77087
v -7.65327 -6.36516 -28.528
vn 0.0270209 0.558579 -0.829011
v -7.6586 -6.38793 -28.5419
vn 0.00780038 0.476449 -0.879168
v -7.66394 -6.41196 -28.5534
vn -0.0114953 0.38973 -0.920857
v -7.66926 -6.43704 -28.5625
vn -0.0306803 0.299258 -0.953679
v -7.6745 -6.46292 -28.5691
vn -0.0495698 0.205903 -0.977316
v -7.6796 -6.48934 -28.573
vn -0.0679819 0.110566 -0.991541
v -7.68452 -6.51606 -28.5743
vn -0.0857393 0.0141641 -0.996217
v -7.68922 -6.54282 -28.573
vn -0.102671 -0.0823743 -0.991299
v -7.69363 -6.56936 -28.5689
vn -0.118614 -0.178119 -0.976834
v -7.69774 -6.59542 -28.5623
vn -0.133415 -0.272149 -0.952961
v -5.97232 -6.91377 -28.6632
vn -0.0919478 -0.372841 -0.923328
v -5.97579 -6.93838 -28.6514
vn -0.104313 -0.460704 -0.881403
v -5.97897 -6.96175 -28.6373
vn -0.115674 -0.54413 -0.830989
v -5.98184 -6.98365 -28.621
vn -0.125921 -0.622316 -0.772572
v -5.98437 -7.00387 -28.6025
vn -0.134955 -0.694508 -0.706715
v -5.98653 -7.02221 -28.5822
vn -0.14269 -0.760012 -0.634051
v -5.98832 -7.03851 -28.5601
vn -0.14905 -0.818197 -0.555282
v -5.9897 -7.0526 -28.5365
vn -0.153975 -0.868502 -0.471165
v -5.99066 -7.06435 -28.5117
vn -0.157417 -0.910443 -0.38251
v -5.9912 -7.07364 -28.4858
vn -0.159343 -0.943616 -0.290171
v -5.99131 -7.08039 -28.4592
vn -0.159734 -0.967701 -0.195038
v -5.99099 -7.08452 -28.432
vn -0.158588 -0.982467 -0.098027
v -5.99024 -7.08601 -28.4046
vn -0.155913 -0.987771 -7.15673e-05
v -5.98907 -7.08483 -28.3771
vn -0.151738 -0.983562 0.0978845
v -5.98749 -7.081 -28.35
vn -0.146101 -0.969881 0.194898
v -5.98552 -7.07455 -28.3233
vn -0.139057 -0.94686 0.290034
v -5.98317 -7.06555 -28.2975
vn -0.130673 -0.91472 0.382378
v -5.98047 -7.05408 -28.2726
vn -0.121032 -0.87377 0.471038
v -5.97744 -7.04025 -28.2491
vn -0.110225 -0.824406 0.555163
v -5.97412 -7.0242 -28.227
vn -0.0983557 -0.767102 0.633941
v -5.97053 -7.00608 -28.2066
vn -0.0855397 -0.702411 0.706613
v -5.96671 -6.98607 -28.1882
vn -0.0718999 -0.630955 0.772481
v -5.96269 -6.96435 -28.1718
vn -0.0575676 -0.553422 0.830909
v -5.95852 -6.94114 -28.1577
vn -0.0426809 -0.47056 0.881335
v -5.95424 -6.91666 -28.146
vn -0.0273832 -0.383166 0.923274
v -5.94988 -6.89115 -28.1367
vn -0.0118218 -0.292082 0.95632
v -5.94549 -6.86485 -28.13
vn 0.00385346 -0.198185 0.980157
v -5.94111 -6.83801 -28.126
vn 0.0194916 -0.102379 0.994554
v -5.93678 -6.8109 -28.1246
vn 0.0349421 -0.0055878 0.999374
v -5.93255 -6.78378 -28.126
vn 0.050056 0.0912576 0.994568
v -5.92845 -6.7569 -28.13
vn 0.0646879 0.187224 0.980185
v -5.92453 -6.73052 -28.1367
vn 0.0786968 0.281388 0.956362
v -5.92081 -6.70491 -28.1459
vn 0.0919478 0.372841 0.923328
v -5.91735 -6.6803 -28.1577
vn 0.104313 0.460704 0.881403
v -5.91417 -6.65693 -28.1718
vn 0.115674 0.54413 0.830989
v -5.9113 -6.63503 -28.1882
vn 0.125921 0.622316 0.772572
v -5.90877 -6.61481 -28.2066
vn 0.134955 0.694508 0.706715
v -5.9066 -6.59646 -28.227
vn 0.14269 0.760012 0.634051
v -5.90482 -6.58016 -28.249
vn 0.14905 0.818197 0.555282
v -5.90344 -6.56607 -28.2726
vn 0.153975 0.868502 0.471165
v -5.90248 -6.55433 -28.2974
vn 0.157417 0.910443 0.38251
v -5.90194 -6.54503 -28.3233
vn 0.159343 0.943616 0.290171
v -5.90183 -6.53829 -28.3499
vn 0.159734 0.967701 0.195038
v -5.90215 -6.53415 -28.3771
vn 0.158588 0.982467 0.098027
v -5.9029 -6.53267 -28.4045
vn 0.155913 0.987771 7.15673e-05
v -5.90407 -6.53385 -28.432
vn 0.151738 0.983562 -0.0978845
v -5.90565 -6.53768 -28.4592
vn 0.146101 0.969881 -0.194898
v -5.90762 -6.54413 -28.4858
vn 0.139057 0.94686 -0.290034
v -5.90997 -6.55313 -28.5117
vn 0.130673 0.91472 -0.382378
v -5.91267 -6.5646 -28.5365
vn 0.121032 0.87377 -0.471038
v -5.91569 -6.57842 -28.5601
vn 0.110225 0.824406 -0.555163
v -5.91902 -6.59447 -28.5821
vn 0.0983557 0.767102 -0.633941
v -5.92261 -6.61259 -28.6025
vn 0.0855397 0.702411 -0.706613
v -5.92643 -6.63261 -28.6209
vn 0.0718999 0.630955 -0.772481
v -5.93044 -6.65433 -28.6373
vn 0.0575676 0.553422 -0.830909
v -5.93461 -6.67754 -28.6514
vn 0.0426809 0.47056 -0.881335
v -5.9389 -6.70201 -28.6632
vn 0.0273832 0.383166 -0.923274
v -5.94326 -6.72753 -28.6724
vn 0.0118218 0.292082 -0.95632
v -5.94765 -6.75383 -28.6791
vn -0.00385346 0.198185 -0.980157
v -5.95203 -6.78066 -28.6831
vn -0.0194916 0.102379 -0.994554
v -5.95636 -6.80777 -28.6845
vn -0.0349421 0.0055878 -0.999374
v -5.96059 -6.8349 -28.6831
vn -0.050056 -0.0912576 -0.994568
v -5.96469 -6.86178 -28.6791
vn -0.0646879 -0.187224 -0.980185
v -5.96861 -6.88815 -28.6724
vn -0.0786968 -0.281388 -0.956362
v -4.21956 -7.17261 -28.6834
vn -0.0376015 -0.380835 -0.923878
v -4.22313 -7.19747 -28.6715
vn -0.0502286 -0.468659 -0.88195
v -4.22657 -7.22105 -28.6573
vn -0.0623721 -0.55197 -0.831528
v -4.22984 -7.24312 -28.6407
vn -0.0739149 -0.629965 -0.773098
v -4.2329 -7.26348 -28.6221
vn -0.0847458 -0.701893 -0.707223
v -4.23574 -7.28192 -28.6015
vn -0.0947606 -0.767062 -0.634536
v -4.23831 -7.29827 -28.5792
vn -0.103863 -0.824843 -0.555739
v -4.24061 -7.31238 -28.5554
vn -0.111965 -0.874681 -0.47159
v -4.24259 -7.3241 -28.5303
vn -0.118988 -0.916095 -0.382899
v -4.24426 -7.33332 -28.5041
vn -0.124866 -0.948687 -0.29052
v -4.24558 -7.33996 -28.4772
vn -0.129541 -0.972142 -0.195344
v -4.24655 -7.34395 -28.4497
vn -0.132969 -0.986235 -0.0982862
v -4.24716 -7.34525 -28.422
vn -0.135116 -0.99083 -0.000282035
v -4.2474 -7.34385 -28.3943
vn -0.135962 -0.985882 0.0977249
v -4.24727 -7.33976 -28.3668
vn -0.135498 -0.971441 0.194791
v -4.24677 -7.33303 -28.3399
vn -0.13373 -0.947643 0.28998
v -4.2459 -7.32371 -28.3137
vn -0.130673 -0.91472 0.382378
v -4.24468 -7.3119 -28.2886
vn -0.126359 -0.872987 0.471092
v -4.24312 -7.29771 -28.2648
vn -0.120827 -0.822846 0.55527
v -4.24122 -7.28128 -28.2425
vn -0.114132 -0.764782 0.6341
v -4.23901 -7.26276 -28.2219
vn -0.106337 -0.699352 0.706824
v -4.23652 -7.24233 -28.2032
vn -0.0975185 -0.627186 0.77274
v -4.23376 -7.2202 -28.1867
vn -0.0877608 -0.548981 0.831215
v -4.23076 -7.19657 -28.1724
vn -0.0771579 -0.465489 0.881684
v -4.22755 -7.17167 -28.1605
vn -0.0658119 -0.377514 0.923662
v -4.22415 -7.14575 -28.1512
vn -0.0538321 -0.285903 0.956745
v -4.22062 -7.11904 -28.1444
vn -0.0413338 -0.191538 0.980614
v -4.21697 -7.09181 -28.1403
vn -0.0284375 -0.0953296 0.995039
v -4.21324 -7.06432 -28.1389
vn -0.0152674 0.00179735 0.999882
v -4.20947 -7.03684 -28.1403
vn -0.00195016 0.098907 0.995095
v -4.2057 -7.00962 -28.1444
vn 0.0113858 0.195064 0.980724
v -4.20195 -6.98294 -28.1511
vn 0.0246122 0.289343 0.956909
v -4.19828 -6.95705 -28.1605
vn 0.0376015 0.380835 0.923878
v -4.1947 -6.93219 -28.1723
vn 0.0502286 0.468659 0.88195
v -4.19127 -6.90861 -28.1866
vn 0.0623721 0.55197 0.831528
v -4.188 -6.88654 -28.2031
vn 0.0739149 0.629965 0.773098
v -4.18493 -6.86618 -28.2218
vn 0.0847458 0.701893 0.707223
v -4.1821 -6.84774 -28.2423
vn 0.0947606 0.767062 0.634536
v -4.17952 -6.83139 -28.2646
vn 0.103863 0.824843 0.555739
v -4.17723 -6.81728 -28.2885
vn 0.111965 0.874681 0.47159
v -4.17524 -6.80556 -28.3136
vn 0.118988 0.916095 0.382899
v -4.17358 -6.79634 -28.3397
vn 0.124866 0.948687 0.29052
v -4.17226 -6.7897 -28.3666
vn 0.129541 0.972142 0.195344
v -4.17129 -6.78571 -28.3941
vn 0.132969 0.986235 0.0982862
v -4.17068 -6.78441 -28.4218
vn 0.135116 0.99083 0.000282035
v -4.17044 -6.78581 -28.4496
vn 0.135962 0.985882 -0.0977249
v -4.17057 -6.7899 -28.4771
vn 0.135498 0.971441 -0.194791
v -4.17107 -6.79663 -28.504
vn 0.13373 0.947643 -0.28998
v -4.17194 -6.80595 -28.5301
vn 0.130673 0.91472 -0.382378
v -4.17316 -6.81776 -28.5553
vn 0.126359 0.872987 -0.471092
v -4.17472 -6.83195 -28.5791
vn 0.120827 0.822846 -0.55527
v -4.17662 -6.84838 -28.6014
vn 0.114132 0.764782 -0.6341
v -4.17882 -6.8669 -28.622
vn 0.106337 0.699352 -0.706824
v -4.18132 -6.88733 -28.6406
vn 0.0975185 0.627186 -0.77274
v -4.18408 -6.90946 -28.6572
vn 0.0877608 0.548981 -0.831215
v -4.18708 -6.93309 -28.6715
vn 0.0771579 0.465489 -0.881684
v -4.19029 -6.95799 -28.6833
vn 0.0658119 0.377514 -0.923662
v -4.19368 -6.98392 -28.6927
vn 0.0538321 0.285903 -0.956745
v -4.19722 -7.01062 -28.6995
vn 0.0413338 0.191538 -0.980614
v -4.20087 -7.03785 -28.7035
vn 0.0284375 0.0953296 -0.995039
v -4.2046 -7.06534 -28.7049
vn 0.0152674 -0.00179735 -0.999882
v -4.20837 -7.09282 -28.7036
vn 0.00195016 -0.098907 -0.995095
v -4.21214 -7.12004 -28.6995
vn -0.0113858 -0.195064 -0.980724
v -4.21588 -7.14672 -28.6927
vn -0.0246122 -0.289343 -0.956909
v -2.44334 -7.39728 -28.6138
vn 0.0156386 -0.387538 -0.921721
v -2.44702 -7.42238 -28.6018
vn 0.0027551 -0.475331 -0.879803
v -2.45072 -7.44617 -28.5874
vn -0.010155 -0.558545 -0.829412
v -2.45438 -7.46843 -28.5707
vn -0.0229673 -0.63638 -0.771034
v -2.45798 -7.48893 -28.5519
vn -0.0355584 -0.708087 -0.705229
v -2.46148 -7.50749 -28.5312
vn -0.047807 -0.772974 -0.632634
v -2.46485 -7.52391 -28.5087
vn -0.0595952 -0.830417 -0.553945
v -2.46806 -7.53805 -28.4846
vn -0.0708095 -0.879863 -0.469922
v -2.47107 -7.54977 -28.4593
vn -0.0813419 -0.920835 -0.381373
v -2.47386 -7.55894 -28.433
vn -0.0910909 -0.95294 -0.289152
v -2.47639 -7.5655 -28.4058
vn -0.0999627 -0.975866 -0.194145
v -2.47866 -7.56937 -28.3781
vn -0.107872 -0.989395 -0.0972692
v -2.48062 -7.57051 -28.3501
vn -0.114742 -0.993395 0.000543575
v -2.48227 -7.56892 -28.3222
vn -0.120507 -0.987828 0.0983511
v -2.48359 -7.56461 -28.2945
vn -0.125112 -0.972748 0.195212
v -2.48456 -7.55762 -28.2673
vn -0.128511 -0.9483 0.290192
v -2.48518 -7.54802 -28.2409
vn -0.130673 -0.91472 0.382378
v -2.48543 -7.5359 -28.2156
vn -0.131577 -0.872329 0.470881
v -2.48533 -7.52137 -28.1916
vn -0.131214 -0.821538 0.554849
v -2.48486 -7.50459 -28.1691
vn -0.129586 -0.762836 0.633474
v -2.48404 -7.4857 -28.1484
vn -0.126711 -0.696786 0.705998
v -2.48287 -7.4649 -28.1296
vn -0.122616 -0.624026 0.771723
v -2.48136 -7.44237 -28.1129
vn -0.117339 -0.545257 0.830016
v -2.47953 -7.41835 -28.0986
vn -0.110933 -0.461236 0.880315
v -2.47739 -7.39306 -28.0866
vn -0.103458 -0.372773 0.922137
v -2.47497 -7.36673 -28.0772
vn -0.0949872 -0.280721 0.955078
v -2.47229 -7.33964 -28.0704
vn -0.0856014 -0.185964 0.978821
v -2.46937 -7.31203 -28.0663
vn -0.0753911 -0.0894174 0.993137
v -2.46624 -7.28418 -28.0649
vn -0.0644548 0.00799087 0.997889
v -2.46294 -7.25635 -28.0663
vn -0.0528978 0.105322 0.99303
v -2.45949 -7.22881 -28.0705
vn -0.0408313 0.201639 0.978608
v -2.45592 -7.20183 -28.0773
vn -0.0283716 0.296014 0.954762
v -2.45228 -7.17566 -28.0867
vn -0.0156386 0.387538 0.921721
v -2.4486 -7.15055 -28.0987
vn -0.0027551 0.475331 0.879803
v -2.44491 -7.12676 -28.1131
vn 0.010155 0.558545 0.829412
v -2.44124 -7.1045 -28.1298
vn 0.0229673 0.63638 0.771034
v -2.43764 -7.084 -28.1486
vn 0.0355584 0.708087 0.705229
v -2.43414 -7.06545 -28.1694
vn 0.047807 0.772974 0.632634
v -2.43077 -7.04902 -28.1919
vn 0.0595952 0.830417 0.553945
v -2.42756 -7.03488 -28.2159
vn 0.0708095 0.879863 0.469922
v -2.42455 -7.02317 -28.2412
vn 0.0813419 0.920835 0.381373
v -2.42177 -7.01399 -28.2676
vn 0.0910909 0.95294 0.289152
v -2.41923 -7.00743 -28.2948
vn 0.0999627 0.975866 0.194145
v -2.41697 -7.00356 -28.3225
vn 0.107872 0.989395 0.0972692
v -2.415 -7.00242 -28.3504
vn 0.114742 0.993395 -0.000543575
v -2.41335 -7.00401 -28.3784
vn 0.120507 0.987828 -0.0983511
v -2.41204 -7.00832 -28.4061
vn 0.125112 0.972748 -0.195212
v -2.41107 -7.01531 -28.4333
vn 0.128511 0.9483 -0.290192
v -2.41045 -7.02492 -28.4596
vn 0.130673 0.91472 -0.382378
v -2.41019 -7.03704 -28.4849
vn 0.131577 0.872329 -0.470881
v -2.41029 -7.05156 -28.5089
vn 0.131214 0.821538 -0.554849
v -2.41076 -7.06834 -28.5314
vn 0.129586 0.762836 -0.633474
v -2.41158 -7.08723 -28.5521
vn 0.126711 0.696786 -0.705998
v -2.41275 -7.10804 -28.5709
vn 0.122616 0.624026 -0.771723
v -2.41426 -7.13056 -28.5876
vn 0.117339 0.545257 -0.830016
v -2.41609 -7.15458 -28.602
vn 0.110933 0.461236 -0.880315
v -2.41823 -7.17988 -28.614
vn 0.103458 0.372773 -0.922137
v -2.42065 -7.2062 -28.6234
vn 0.0949872 0.280721 -0.955078
v -2.42334 -7.23329 -28.6302
vn 0.0856014 0.185964 -0.978821
v -2.42625 -7.2609 -28.6343
vn 0.0753911 0.0894174 -0.993137
v -2.42938 -7.28875 -28.6356
vn 0.0644548 -0.00799087 -0.997889
v -2.43269 -7.31658 -28.6342
vn 0.0528978 -0.105322 -0.99303
v -2.43614 -7.34412 -28.6301
vn 0.0408313 -0.201639 -0.978608
v -2.4397 -7.37111 -28.6233
vn 0.0283716 -0.296014 -0.954762
v -0.643787 -7.58776 -28.4545
vn 0.0673623 -0.392985 -0.917074
v -0.64758 -7.61311 -28.4424
vn 0.0542297 -0.480751 -0.875179
v -0.651525 -7.63713 -28.4279
vn 0.0405749 -0.563887 -0.824855
v -0.655582 -7.65957 -28.4111
vn 0.0265292 -0.641592 -0.766587
v -0.659713 -7.68023 -28.3921
vn 0.0122281 -0.713119 -0.700936
v -0.663878 -7.69891 -28.3712
vn -0.00219078 -0.777778 -0.628536
v -0.668037 -7.71542 -28.3485
vn -0.0165886 -0.834946 -0.550082
v -0.672149 -7.72961 -28.3243
vn -0.0308266 -0.884073 -0.46633
v -0.676176 -7.74134 -28.2988
vn -0.0447677 -0.924687 -0.378088
v -0.680079 -7.7505 -28.2723
vn -0.0582778 -0.956395 -0.286204
v -0.683819 -7.757 -28.245
vn -0.0712265 -0.978892 -0.191564
v -0.687361 -7.76078 -28.2171
vn -0.0834893 -0.991962 -0.0950788
v -0.690671 -7.76179 -28.189
vn -0.0949481 -0.99548 0.00232179
v -0.693717 -7.76004 -28.1608
vn -0.105492 -0.98941 0.0997
v -0.696469 -7.75553 -28.133
vn -0.115021 -0.973811 0.196118
v -0.698902 -7.74832 -28.1057
vn -0.123442 -0.948834 0.290647
v -0.70099 -7.73847 -28.0792
vn -0.130673 -0.91472 0.382378
v -0.702716 -7.72607 -28.0537
vn -0.136647 -0.871796 0.470425
v -0.704061 -7.71124 -28.0296
vn -0.141304 -0.820476 0.553943
v -0.705013 -7.69414 -28.007
vn -0.144601 -0.761254 0.632125
v -0.705563 -7.67491 -27.9862
vn -0.146505 -0.694702 0.70422
v -0.705706 -7.65376 -27.9673
vn -0.146998 -0.621459 0.769533
v -0.705439 -7.63087 -27.9506
vn -0.146076 -0.542231 0.827435
v -0.704767 -7.60648 -27.9362
vn -0.143746 -0.457781 0.877368
v -0.703694 -7.58081 -27.9242
vn -0.140032 -0.368922 0.918851
v -0.702232 -7.55412 -27.9148
vn -0.13497 -0.27651 0.951486
v -0.700394 -7.52665 -27.908
vn -0.128608 -0.181436 0.974957
v -0.698198 -7.49869 -27.9039
vn -0.121007 -0.0846139 0.989039
v -0.695666 -7.47048 -27.9026
vn -0.112241 0.0130229 0.993596
v -0.692822 -7.44232 -27.9041
vn -0.102394 0.110534 0.988584
v -0.689693 -7.41446 -27.9083
vn -0.0915611 0.206981 0.974051
v -0.686309 -7.38717 -27.9152
vn -0.0798462 0.301435 0.950138
v -0.682703 -7.36073 -27.9247
vn -0.0673623 0.392985 0.917074
v -0.678909 -7.33538 -27.9368
vn -0.0542297 0.480751 0.875179
v -0.674965 -7.31136 -27.9514
vn -0.0405749 0.563887 0.824855
v -0.670908 -7.28892 -27.9682
vn -0.0265292 0.641592 0.766587
v -0.666777 -7.26826 -27.9872
vn -0.0122281 0.713119 0.700936
v -0.662612 -7.24958 -28.0081
vn 0.00219078 0.777778 0.628536
v -0.658453 -7.23307 -28.0307
vn 0.0165886 0.834946 0.550082
v -0.654341 -7.21888 -28.0549
vn 0.0308266 0.884073 0.46633
v -0.650314 -7.20715 -28.0804
vn 0.0447677 0.924687 0.378088
v -0.646411 -7.19799 -28.107
vn 0.0582778 0.956395 0.286204
v -0.642671 -7.19149 -28.1343
vn 0.0712265 0.978892 0.191564
v -0.639129 -7.18771 -28.1622
vn 0.0834893 0.991962 0.0950788
v -0.635819 -7.1867 -28.1903
vn 0.0949481 0.99548 -0.00232179
v -0.632773 -7.18845 -28.2184
vn 0.105492 0.98941 -0.0997
v -0.630021 -7.19296 -28.2463
vn 0.115021 0.973811 -0.196118
v -0.627588 -7.20017 -28.2736
vn 0.123442 0.948834 -0.290647
v -0.625499 -7.21003 -28.3001
vn 0.130673 0.91472 -0.382378
v -0.623774 -7.22242 -28.3255
vn 0.136647 0.871796 -0.470425
v -0.622429 -7.23725 -28.3496
vn 0.141304 0.820476 -0.553943
v -0.621476 -7.25435 -28.3722
vn 0.144601 0.761254 -0.632125
v -0.620926 -7.27358 -28.393
vn 0.146505 0.694702 -0.70422
v -0.620784 -7.29473 -28.4119
vn 0.146998 0.621459 -0.769533
v -0.62105 -7.31762 -28.4286
vn 0.146076 0.542231 -0.827435
v -0.621723 -7.34201 -28.4431
vn 0.143746 0.457781 -0.877368
v -0.622796 -7.36768 -28.455
vn 0.140032 0.368922 -0.918851
v -0.624258 -7.39437 -28.4645
vn 0.13497 0.27651 -0.951486
v -0.626096 -7.42184 -28.4712
vn 0.128608 0.181436 -0.974957
v -0.628291 -7.4498 -28.4753
vn 0.121007 0.0846139 -0.989039
v -0.630824 -7.47801 -28.4766
vn 0.112241 -0.0130229 -0.993596
v -0.633668 -7.50617 -28.4752
vn 0.102394 -0.110534 -0.988584
v -0.636797 -7.53403 -28.471
vn 0.0915611 -0.206981 -0.974051
v -0.640181 -7.56132 -28.4641
vn 0.0798462 -0.301435 -0.950138
v 1.17899 -7.74407 -28.2055
vn 0.11723 -0.397235 -0.910199
v 1.17508 -7.76967 -28.1933
vn 0.103858 -0.48498 -0.868336
v 1.17089 -7.79391 -28.1787
vn 0.0894847 -0.568055 -0.818111
v 1.16645 -7.81655 -28.1617
vn 0.0742499 -0.645659 -0.760007
v 1.16179 -7.83738 -28.1426
vn 0.0583001 -0.717045 -0.694584
v 1.15697 -7.8562 -28.1216
vn 0.0417889 -0.781526 -0.622472
v 1.15204 -7.87281 -28.0988
vn 0.0248752 -0.83848 -0.544365
v 1.14703 -7.88708 -28.0745
vn 0.00772191 -0.887359 -0.461015
v 1.14201 -7.89884 -28.0489
vn -0.00950573 -0.927692 -0.373226
v 1.13701 -7.908 -28.0222
vn -0.0266418 -0.959091 -0.281842
v 1.13208 -7.91447 -27.9947
vn -0.0435213 -0.981253 -0.187744
v 1.12728 -7.91818 -27.9668
vn -0.0599817 -0.993966 -0.0918377
v 1.12265 -7.9191 -27.9385
vn -0.0758644 -0.997106 0.00495296
v 1.11822 -7.91721 -27.9103
vn -0.0910166 -0.990643 0.101696
v 1.11406 -7.91254 -27.8824
vn -0.105292 -0.97464 0.197459
v 1.11019 -7.90513 -27.855
vn -0.118554 -0.949251 0.291321
v 1.10665 -7.89506 -27.8284
vn -0.130673 -0.91472 0.382378
v 1.10348 -7.88241 -27.8029
vn -0.141535 -0.871379 0.469751
v 1.10071 -7.86732 -27.7787
vn -0.151033 -0.819647 0.552601
v 1.09837 -7.84992 -27.7561
vn -0.159077 -0.760021 0.630129
v 1.09647 -7.83039 -27.7353
vn -0.165589 -0.693075 0.701589
v 1.09503 -7.80891 -27.7164
vn -0.170506 -0.619455 0.766292
v 1.09408 -7.78569 -27.6997
vn -0.173781 -0.53987 0.823615
v 1.09361 -7.76095 -27.6852
vn -0.175382 -0.455085 0.873006
v 1.09363 -7.73493 -27.6733
vn -0.175294 -0.365917 0.913989
v 1.09415 -7.70789 -27.6639
vn -0.173519 -0.273225 0.946171
v 1.09516 -7.68008 -27.6572
vn -0.170072 -0.177902 0.96924
v 1.09664 -7.65176 -27.6532
vn -0.164987 -0.0808659 0.982975
v 1.09859 -7.62322 -27.6519
vn -0.158313 0.0169492 0.987243
v 1.10098 -7.59473 -27.6534
vn -0.150115 0.114601 0.982004
v 1.1038 -7.56656 -27.6577
vn -0.140471 0.211149 0.967308
v 1.107 -7.53898 -27.6647
vn -0.129474 0.305664 0.943295
v 1.11058 -7.51227 -27.6744
vn -0.11723 0.397235 0.910199
v 1.11448 -7.48666 -27.6866
vn -0.103858 0.48498 0.868336
v 1.11867 -7.46242 -27.7013
vn -0.0894847 0.568055 0.818111
v 1.12312 -7.43978 -27.7182
vn -0.0742499 0.645659 0.760007
v 1.12777 -7.41895 -27.7373
vn -0.0583001 0.717045 0.694584
v 1.13259 -7.40014 -27.7583
vn -0.0417889 0.781526 0.622472
v 1.13752 -7.38352 -27.7811
vn -0.0248752 0.83848 0.544365
v 1.14253 -7.36926 -27.8055
vn -0.00772191 0.887359 0.461015
v 1.14755 -7.35749 -27.8311
vn 0.00950573 0.927692 0.373226
v 1.15255 -7.34833 -27.8577
vn 0.0266418 0.959091 0.281842
v 1.15748 -7.34186 -27.8852
vn 0.0435213 0.981253 0.187744
v 1.16228 -7.33816 -27.9132
vn 0.0599817 0.993966 0.0918377
v 1.16692 -7.33724 -27.9414
vn 0.0758644 0.997106 -0.00495296
v 1.17134 -7.33913 -27.9696
vn 0.0910166 0.990643 -0.101696
v 1.1755 -7.34379 -27.9976
vn 0.105292 0.97464 -0.197459
v 1.17937 -7.3512 -28.025
vn 0.118554 0.949251 -0.291321
v 1.18291 -7.36128 -28.0515
vn 0.130673 0.91472 -0.382378
v 1.18608 -7.37392 -28.077
vn 0.141535 0.871379 -0.469751
v 1.18885 -7.38902 -28.1012
vn 0.151033 0.819647 -0.552601
v 1.1912 -7.40641 -28.1238
vn 0.159077 0.760021 -0.630129
v 1.1931 -7.42595 -28.1447
vn 0.165589 0.693075 -0.701589
v 1.19453 -7.44743 -28.1635
vn 0.170506 0.619455 -0.766292
v 1.19549 -7.47065 -28.1803
vn 0.173781 0.53987 -0.823615
v 1.19595 -7.49539 -28.1947
vn 0.175382 0.455085 -0.873006
v 1.19593 -7.5214 -28.2066
vn 0.175294 0.365917 -0.913989
v 1.19541 -7.54845 -28.216
vn 0.173519 0.273225 -0.946171
v 1.1944 -7.57626 -28.2228
vn 0.170072 0.177902 -0.96924
v 1.19292 -7.60457 -28.2268
vn 0.164987 0.0808659 -0.982975
v 1.19097 -7.63311 -28.228
vn 0.158313 -0.0169492 -0.987243
v 1.18858 -7.66161 -28.2265
vn 0.150115 -0.114601 -0.982004
v 1.18577 -7.68978 -28.2222
vn 0.140471 -0.211149 -0.967308
v 1.18256 -7.71735 -28.2152
vn 0.129474 -0.305664 -0.943295
v 3.02488 -7.86622 -27.8669
vn 0.16498 -0.40037 -0.90138
v 3.02088 -7.89207 -27.8546
vn 0.151377 -0.4881 -0.85956
v 3.01644 -7.91654 -27.8398
vn 0.136316 -0.57113 -0.809462
v 3.01161 -7.93939 -27.8228
vn 0.119943 -0.648659 -0.751568
v 3.00645 -7.96039 -27.8036
vn 0.102415 -0.719941 -0.686437
v 3.00099 -7.97936 -27.7824
vn 0.0838999 -0.78429 -0.614695
v 2.9953 -7.9961 -27.7596
vn 0.0645772 -0.841086 -0.537032
v 2.98942 -8.01045 -27.7351
vn 0.0446325 -0.889782 -0.454198
v 2.98341 -8.02227 -27.7094
vn 0.024258 -0.929909 -0.36699
v 2.97734 -8.03146 -27.6827
vn 0.00364994 -0.96108 -0.276247
v 2.97126 -8.03791 -27.6552
vn -0.0169933 -0.982995 -0.182844
v 2.96522 -8.04158 -27.6271
vn -0.0374729 -0.995444 -0.0876806
v 2.95929 -8.04243 -27.5988
vn -0.0575916 -0.998305 0.0083277
v 2.95353 -8.04044 -27.5706
vn -0.0771557 -0.991553 0.104256
v 2.94798 -8.03563 -27.5426
vn -0.0959767 -0.975252 0.19918
v 2.94271 -8.02806 -27.5152
vn -0.113873 -0.949558 0.292186
v 2.93776 -8.01779 -27.4886
vn -0.130673 -0.91472 0.382378
v 2.93318 -8.00493 -27.4631
vn -0.146215 -0.871072 0.468887
v 2.92901 -7.9896 -27.439
vn -0.160349 -0.819035 0.550881
v 2.9253 -7.97194 -27.4164
vn -0.172938 -0.759111 0.627569
v 2.92208 -7.95212 -27.3955
vn -0.183862 -0.691876 0.698214
v 2.91939 -7.93035 -27.3767
vn -0.193015 -0.617978 0.762135
v 2.91724 -7.90682 -27.36
vn -0.200309 -0.538128 0.818715
v 2.91566 -7.88176 -27.3457
vn -0.205674 -0.453096 0.867411
v 2.91466 -7.85541 -27.3338
vn -0.209058 -0.3637 0.907754
v 2.91425 -7.82804 -27.3245
vn -0.210429 -0.270802 0.939354
v 2.91445 -7.79989 -27.3178
vn -0.209774 -0.175296 0.961908
v 2.91524 -7.77125 -27.3139
vn -0.207098 -0.0781012 0.975198
v 2.91661 -7.74239 -27.3128
vn -0.202428 0.0198454 0.979096
v 2.91856 -7.71358 -27.3144
vn -0.195808 0.117601 0.973565
v 2.92107 -7.6851 -27.3188
vn -0.187303 0.214224 0.958658
v 2.92411 -7.65724 -27.3259
vn -0.176993 0.308784 0.934519
v 2.92765 -7.63025 -27.3357
vn -0.16498 0.40037 0.90138
v 2.93166 -7.60439 -27.348
vn -0.151377 0.4881 0.85956
v 2.93609 -7.57993 -27.3628
vn -0.136316 0.57113 0.809462
v 2.94092 -7.55708 -27.3798
vn -0.119943 0.648659 0.751568
v 2.94608 -7.53607 -27.399
vn -0.102415 0.719941 0.686437
v 2.95154 -7.51711 -27.4201
vn -0.0838999 0.78429 0.614695
v 2.95724 -7.50037 -27.443
vn -0.0645772 0.841086 0.537032
v 2.96311 -7.48602 -27.4674
vn -0.0446325 0.889782 0.454198
v 2.96912 -7.4742 -27.4931
vn -0.024258 0.929909 0.36699
v 2.97519 -7.46501 -27.5199
vn -0.00364994 0.96108 0.276247
v 2.98127 -7.45855 -27.5474
vn 0.0169933 0.982995 0.182844
v 2.98731 -7.45488 -27.5755
vn 0.0374729 0.995444 0.0876806
v 2.99324 -7.45404 -27.6037
vn 0.0575916 0.998305 -0.0083277
v 2.999 -7.45603 -27.632
vn 0.0771557 0.991553 -0.104256
v 3.00455 -7.46083 -27.66
vn 0.0959767 0.975252 -0.19918
v 3.00982 -7.46841 -27.6874
vn 0.113873 0.949558 -0.292186
v 3.01477 -7.47867 -27.714
vn 0.130673 0.91472 -0.382378
v 3.01935 -7.49154 -27.7395
vn 0.146215 0.871072 -0.468887
v 3.02352 -7.50687 -27.7636
vn 0.160349 0.819035 -0.550881
v 3.02723 -7.52453 -27.7862
vn 0.172938 0.759111 -0.627569
v 3.03045 -7.54434 -27.8071
vn 0.183862 0.691876 -0.698214
v 3.03315 -7.56612 -27.8259
vn 0.193015 0.617978 -0.762135
v 3.0353 -7.58965 -27.8426
vn 0.200309 0.538128 -0.818715
v 3.03688 -7.61471 -27.8569
vn 0.205674 0.453096 -0.867411
v 3.03787 -7.64105 -27.8688
vn 0.209058 0.3637 -0.907754
v 3.03828 -7.66843 -27.8781
vn 0.210429 0.270802 -0.939354
v 3.03808 -7.69658 -27.8848
vn 0.209774 0.175296 -0.961908
v 3.0373 -7.72522 -27.8887
vn 0.207098 0.0781012 -0.975198
v 3.03592 -7.75408 -27.8898
vn 0.202428 -0.0198454 -0.979096
v 3.03397 -7.78289 -27.8882
vn 0.195808 -0.117601 -0.973565
v 3.03146 -7.81136 -27.8838
vn 0.187303 -0.214224 -0.958658
v 3.02842 -7.83923 -27.8767
vn 0.176993 -0.308784 -0.934519
f 1 66 2 
f 1 65 66 
f 2 67 3 
f 2 66 67 
f 3 68 4 
f 3 67 68 
f 4 69 5 
f 4 68 69 
f 5 70 6 
f 5 69 70 
f 6 71 7 
f 6 70 71 
f 7 72 8 
f 7 71 72 
f 8 73 9 
f 8 72 73 
f 9 74 10 
f 9 73 74 
f 10 75 11 
f 10 74 75 
f 11 76 12 
f 11 75 76 
f 12 77 13 
f 12 76 77 
f 13 78 14 
f 13 77 78 
f 14 79 15 
f 14 78 79 
f 15 80 16 
f 15 79 80 
f 16 81 17 
f 16 80 81 
f 17 82 18 
f 17 81 82 
f 18 83 19 
f 18 82 83 
f 19 84 20 
f 19 83 84 
f 20 85 21 
f 20 84 85 
f 21 86 22 
f 21 85 86 
f 22 87 23 
f 22 86 87 
f 23 88 24 
f 23 87 88 
f 24 89 25 
f 24 88 89 
f 25 90 26 
f 25 89 90 
f 26 91 27 
f 26 90 91 
f 27 92 28 
f 27 91 92 
f 28 93 29 
f 28 92 93 
f 29 94 30 
f 29 93 94 
f 30 95 31 
f 30 94 95 
f 31 96 32 
f 31 95 96 
f 32 97 33 
f 32 96 97 
f 33 98 34 
f 33 97 98 
f 34 99 35 
f 34 98 99 
f 35 100 36 
f 35 99 100 
f 36 101 37 
f 36 100 101 
f 37 102 38 
f 37 101 102 
f 38 103 39 
f 38 102 103 
f 39 104 40 
f 39 103 104 
f 40 105 41 
f 40 104 105 
f 41 106 42 
f 41 105 106 
f 42 107 43 
f 42 106 107 
f 43 108 44 
f 43 107 108 
f 44 109 45 
f 44 108 109 
f 45 110 46 
f 45 109 110 
f 46 111 47 
f 46 110 111 
f 47 112 48 
f 47 111 112 
f 48 113 49 
f 48 112 113 
f 49 114 50 
f 49 113 114 
f 50 115 51 
f 50 114 115 
f 51 116 52 
f 51 115 116 
f 52 117 53 
f 52 116 117 
f 53 118 54 
f 53 117 118 
f 54 119 55 
f 54 118 119 
f 55 120 56 
f 55 119 120 
f 56 121 57 
f 56 120 121 
f 57 122 58 
f 57 121 122 
f 58 123 59 
f 58 122 123 
f 59 124 60 
f 59 123 124 
f 60 125 61 
f 60 124 125 
f 61 126 62 
f 61 125 126 
f 62 127 63 
f 62 126 127 
f 63 128 64 
f 63 127 128 
f 64 65 1 
f 64 128 65 
f 65 130 66 
f 65 129 130 
f 66 131 67 
f 66 130 131 
f 67 132 68 
f 67 131 132 
f 68 133 69 
f 68 132 133 
f 69 134 70 
f 69 133 134 
f 70 135 71 
f 70 134 135 
f 71 136 72 
f 71 135 136 
f 72 137 73 
f 72 136 137 
f 73 138 74 
f 73 137 138 
f 74 139 75 
f 74 138 139 
f 75 140 76 
f 75 139 140 
f 76 141 77 
f 76 140 141 
f 77 142 78 
f 77 141 142 
f 78 143 79 
f 78 142 143 
f 79 144 80 
f 79 143 144 
f 80 145 81 
f 80 144 145 
f 81 146 82 
f 81 145 146 
f 82 147 83 
f 82 146 147 
f 83 148 84 
f 83 147 148 
f 84 149 85 
f 84 148 149 
f 85 150 86 
f 85 149 150 
f 86 151 87 
f 86 150 151 
f 87 152 88 
f 87 151 152 
f 88 153 89 
f 88 152 153 
f 89 154 90 
f 89 153 154 
f 90 155 91 
f 90 154 155 
f 91 156 92 
f 91 155 156 
f 92 157 93 
f 92 156 157 
f 93 158 94 
f 93 157 158 
f 94 159 95 
f 94 158 159 
f 95 160 96 
f 95 159 160 
f 96 161 97 
f 96 160 161 
f 97 162 98 
f 97 161 162 
f 98 163 99 
f 98 162 163 
f 99 164 100 
f 99 163 164 
f 100 165 101 
f 100 164 165 
f 101 166 102 
f 101 165 166 
f 102 167 103 
f 102 166 167 
f 103 168 104 
f 103 167 168 
f 104 169 105 
f 104 168 169 
f 105 170 106 
f 105 169 170 
f 106 171 107 
f 106 170 171 
f 107 172 108 
f 107 171 172 
f 108 173 109 
f 108 172 173 
f 109 174 110 
f 109 173 174 
f 110 175 111 
f 110 174 175 
f 111 176 112 
f 111 175 176 
f 112 177 113 
f 112 176 177 
f 113 178 114 
f 113 177 178 
f 114 179 115 
f 114 178 179 
f 115 180 116 
f 115 179 180 
f 116 181 117 
f 116 180 181 
f 117 182 118 
f 117 181 182 
f 118 183 119 
f 118 182 183 
f 119 184 120 
f 119 183 184 
f 120 185 121 
f 120 184 185 
f 121 186 122 
f 121 185 186 
f 122 187 123 
f 122 186 187 
f 123 188 124 
f 123 187 188 
f 124 189 125 
f 124 188 189 
f 125 190 126 
f 125 189 190 
f 126 191 127 
f 126 190 191 
f 127 192 128 
f 127 191 192 
f 128 129 65 
f 128 192 129 
f 129 194 130 
f 129 193 194 
f 130 195 131 
f 130 194 195 
f 131 196 132 
f 131 195 196 
f 132 197 133 
f 132 196 197 
f 133 198 134 
f 133 197 198 
f 134 199 135 
f 134 198 199 
f 135 200 136 
f 135 199 200 
f 136 201 137 
f 136 200 201 
f 137 202 138 
f 137 201 202 
f 138 203 139 
f 138 202 203 
f 139 204 140 
f 139 203 204 
f 140 205 141 
f 140 204 205 
f 141 206 142 
f 141 205 206 
f 142 207 143 
f 142 206 207 
f 143 208 144 
f 143 207 208 
f 144 209 145 
f 144 208 209 
f 145 210 146 
f 145 209 210 
f 146 211 147 
f 146 210 211 
f 147 212 148 
f 147 211 212 
f 148 213 149 
f 148 212 213 
f 149 214 150 
f 149 213 214 
f 150 215 151 
f 150 214 215 
f 151 216 152 
f 151 215 216 
f 152 217 153 
f 152 216 217 
f 153 218 154 
f 153 217 218 
f 154 219 155 
f 154 218 219 
f 155 220 156 
f 155 219 220 
f 156 221 157 
f 156 220 221 
f 157 222 158 
f 157 221 222 
f 158 223 159 
f 158 222 223 
f 159 224 160 
f 159 223 224 
f 160 225 161 
f 160 224 225 
f 161 226 162 
f 161 225 226 
f 162 227 163 
f 162 226 227 
f 163 228 164 
f 163 227 228 
f 164 229 165 
f 164 228 229 
f 165 230 166 
f 165 229 230 
f 166 231 167 
f 166 230 231 
f 167 232 168 
f 167 231 232 
f 168 233 169 
f 168 232 233 
f 169 234 170 
f 169 233 234 
f 170 235 171 
f 170 234 235 
f 171 236 172 
f 171 235 236 
f 172 237 173 
f 172 236 237 
f 173 238 174 
f 173 237 238 
f 174 239 175 
f 174 238 239 
f 175 240 176 
f 175 239 240 
f 176 241 177 
f 176 240 241 
f 177 242 178 
f 177 241 242 
f 178 243 179 
f 178 242 243 
f 179 244 180 
f 179 243 244 
f 180 245 181 
f 180 244 245 
f 181 246 182 
f 181 245 246 
f 182 247 183 
f 182 246 247 
f 183 248 184 
f 183 247 248 
f 184 249 185 
f 184 248 249 
f 185 250 186 
f 185 249 250 
f 186 251 187 
f 186 250 251 
f 187 252 188 
f 187 251 252 
f 188 253 189 
f 188 252 253 
f 189 254 190 
f 189 253 254 
f 190 255 191 
f 190 254 255 
f 191 256 192 
f 191 255 256 
f 192 193 129 
f 192 256 193 
f 193 258 194 
f 193 257 258 
f 194 259 195 
f 194 258 259 
f 195 260 196 
f 195 259 260 
f 196 261 197 
f 196 260 261 
f 197 262 198 
f 197 261 262 
f 198 263 199 
f 198 262 263 
f 199 264 200 
f 199 263 264 
f 200 265 201 
f 200 264 265 
f 201 266 202 
f 201 265 266 
f 202 267 203 
f 202 266 267 
f 203 268 204 
f 203 267 268 
f 204 269 205 
f 204 268 269 
f 205 270 206 
f 205 269 270 
f 206 271 207 
f 206 270 271 
f 207 272 208 
f 207 271 272 
f 208 273 209 
f 208 272 273 
f 209 274 210 
f 209 273 274 
f 210 275 211 
f 210 274 275 
f 211 276 212 
f 211 275 276 
f 212 277 213 
f 212 276 277 
f 213 278 214 
f 213 277 278 
f 214 279 215 
f 214 278 279 
f 215 280 216 
f 215 279 280 
f 216 281 217 
f 216 280 281 
f 217 282 218 
f 217 281 282 
f 218 283 219 
f 218 282 283 
f 219 284 220 
f 219 283 284 
f 220 285 221 
f 220 284 285 
f 221 286 222 
f 221 285 286 
f 222 287 223 
f 222 286 287 
f 223 288 224 
f 223 287 288 
f 224 289 225 
f 224 288 289 
f 225 290 226 
f 225 289 290 
f 226 291 227 
f 226 290 291 
f 227 292 228 
f 227 291 292 
f 228 293 229 
f 228 292 293 
f 229 294 230 
f 229 293 294 
f 230 295 231 
f 230 294 295 
f 231 296 232 
f 231 295 296 
f 232 297 233 
f 232 296 297 
f 233 298 234 
f 233 297 298 
f 234 299 235 
f 234 298 299 
f 235 300 236 
f 235 299 300 
f 236 301 237 
f 236 300 301 
f 237 302 238 
f 237 301 302 
f 238 303 239 
f 238 302 303 
f 239 304 240 
f 239 303 304 
f 240 305 241 
f 240 304 305 
f 241 306 242 
f 241 305 306 
f 242 307 243 
f 242 306 307 
f 243 308 244 
f 243 307 308 
f 244 309 245 
f 244 308 309 
f 245 310 246 
f 245 309 310 
f 246 311 247 
f 246 310 311 
f 247 312 248 
f 247 311 312 
f 248 313 249 
f 248 312 313 
f 249 314 250 
f 249 313 314 
f 250 315 251 
f 250 314 315 
f 251 316 252 
f 251 315 316 
f 252 317 253 
f 252 316 317 
f 253 318 254 
f 253 317 318 
f 254 319 255 
f 254 318 319 
f 255 320 256 
f 255 319 320 
f 256 257 193 
f 256 320 257 
f 257 322 258 
f 257 321 322 
f 258 323 259 
f 258 322 323 
f 259 324 260 
f 259 323 324 
f 260 325 261 
f 260 324 325 
f 261 326 262 
f 261 325 326 
f 262 327 263 
f 262 326 327 
f 263 328 264 
f 263 327 328 
f 264 329 265 
f 264 328 329 
f 265 330 266 
f 265 329 330 
f 266 331 267 
f 266 330 331 
f 267 332 268 
f 267 331 332 
f 268 333 269 
f 268 332 333 
f 269 334 270 
f 269 333 334 
f 270 335 271 
f 270 334 335 
f 271 336 272 
f 271 335 336 
f 272 337 273 
f 272 336 337 
f 273 338 274 
f 273 337 338 
f 274 339 275 
f 274 338 339 
f 275 340 276 
f 275 339 340 
f 276 341 277 
f 276 340 341 
f 277 342 278 
f 277 341 342 
f 278 343 279 
f 278 342 343 
f 279 344 280 
f 279 343 344 
f 280 345 281 
f 280 344 345 
f 281 346 282 
f 281 345 346 
f 282 347 283 
f 282 346 347 
f 283 348 284 
f 283 347 348 
f 284 349 285 
f 284 348 349 
f 285 350 286 
f 285 349 350 
f 286 351 287 
f 286 350 351 
f 287 352 288 
f 287 351 352 
f 288 353 289 
f 288 352 353 
f 289 354 290 
f 289 353 354 
f 290 355 291 
f 290 354 355 
f 291 356 292 
f 291 355 356 
f 292 357 293 
f 292 356 357 
f 293 358 294 
f 293 357 358 
f 294 359 295 
f 294 358 359 
f 295 360 296 
f 295 359 360 
f 296 361 297 
f 296 360 361 
f 297 362 298 
f 297 361 362 
f 298 363 299 
f 298 362 363 
f 299 364 300 
f 299 363 364 
f 300 365 301 
f 300 364 365 
f 301 366 302 
f 301 365 366 
f 302 367 303 
f 302 366 367 
f 303 368 304 
f 303 367 368 
f 304 369 305 
f 304 368 369 
f 305 370 306 
f 305 369 370 
f 306 371 307 
f 306 370 371 
f 307 372 308 
f 307 371 372 
f 308 373 309 
f 308 372 373 
f 309 374 310 
f 309 373 374 
f 310 375 311 
f 310 374 375 
f 311 376 312 
f 311 375 376 
f 312 377 313 
f 312 376 377 
f 313 378 314 
f 313 377 378 
f 314 379 315 
f 314 378 379 
f 315 380 316 
f 315 379 380 
f 316 381 317 
f 316 380 381 
f 317 382 318 
f 317 381 382 
f 318 383 319 
f 318 382 383 
f 319 384 320 
f 319 383 384 
f 320 321 257 
f 320 384 321 
f 321 386 322 
f 321 385 386 
f 322 387 323 
f 322 386 387 
f 323 388 324 
f 323 387 388 
f 324 389 325 
f 324 388 389 
f 325 390 326 
f 325 389 390 
f 326 391 327 
f 326 390 391 
f 327 392 328 
f 327 391 392 
f 328 393 329 
f 328 392 393 
f 329 394 330 
f 329 393 394 
f 330 395 331 
f 330 394 395 
f 331 396 332 
f 331 395 396 
f 332 397 333 
f 332 396 397 
f 333 398 334 
f 333 397 398 
f 334 399 335 
f 334 398 399 
f 335 400 336 
f 335 399 400 
f 336 401 337 
f 336 400 401 
f 337 402 338 
f 337 401 402 
f 338 403 339 
f 338 402 403 
f 339 404 340 
f 339 403 404 
f 340 405 341 
f 340 404 405 
f 341 406 342 
f 341 405 406 
f 342 407 343 
f 342 406 407 
f 343 408 344 
f 343 407 408 
f 344 409 345 
f 344 408 409 
f 345 410 346 
f 345 409 410 
f 346 411 347 
f 346 410 411 
f 347 412 348 
f 347 411 412 
f 348 413 349 
f 348 412 413 
f 349 414 350 
f 349 413 414 
f 350 415 351 
f 350 414 415 
f 351 416 352 
f 351 415 416 
f 352 417 353 
f 352 416 417 
f 353 418 354 
f 353 417 418 
f 354 419 355 
f 354 418 419 
f 355 420 356 
f 355 419 420 
f 356 421 357 
f 356 420 421 
f 357 422 358 
f 357 421 422 
f 358 423 359 
f 358 422 423 
f 359 424 360 
f 359 423 424 
f 360 425 361 
f 360 424 425 
f 361 426 362 
f 361 425 426 
f 362 427 363 
f 362 426 427 
f 363 428 364 
f 363 427 428 
f 364 429 365 
f 364 428 429 
f 365 430 366 
f 365 429 430 
f 366 431 367 
f 366 430 431 
f 367 432 368 
f 367 431 432 
f 368 433 369 
f 368 432 433 
f 369 434 370 
f 369 433 434 
f 370 435 371 
f 370 434 435 
f 371 436 372 
f 371 435 436 
f 372 437 373 
f 372 436 437 
f 373 438 374 
f 373 437 438 
f 374 439 375 
f 374 438 439 
f 375 440 376 
f 375 439 440 
f 376 441 377 
f 376 440 441 
f 377 442 378 
f 377 441 442 
f 378 443 379 
f 378 442 443 
f 379 444 380 
f 379 443 444 
f 380 445 381 
f 380 444 445 
f 381 446 382 
f 381 445 446 
f 382 447 383 
f 382 446 447 
f 383 448 384 
f 383 447 448 
f 384 385 321 
f 384 448 385 
f 385 450 386 
f 385 449 450 
f 386 451 387 
f 386 450 451 
f 387 452 388 
f 387 451 452 
f 388 453 389 
f 388 452 453 
f 389 454 390 
f 389 453 454 
f 390 455 391 
f 390 454 455 
f 391 456 392 
f 391 455 456 
f 392 457 393 
f 392 456 457 
f 393 458 394 
f 393 457 458 
f 394 459 395 
f 394 458 459 
f 395 460 396 
f 395 459 460 
f 396 461 397 
f 396 460 461 
f 397 462 398 
f 397 461 462 
f 398 463 399 
f 398 462 463 
f 399 464 400 
f 399 463 464 
f 400 465 401 
f 400 464 465 
f 401 466 402 
f 401 465 466 
f 402 467 403 
f 402 466 467 
f 403 468 404 
f 403 467 468 
f 404 469 405 
f 404 468 469 
f 405 470 406 
f 405 469 470 
f 406 471 407 
f 406 470 471 
f 407 472 408 
f 407 471 472 
f 408 473 409 
f 408 472 473 
f 409 474 410 
f 409 473 474 
f 410 475 411 
f 410 474 475 
f 411 476 412 
f 411 475 476 
f 412 477 413 
f 412 476 477 
f 413 478 414 
f 413 477 478 
f 414 479 415 
f 414 478 479 
f 415 480 416 
f 415 479 480 
f 416 481 417 
f 416 480 481 
f 417 482 418 
f 417 481 482 
f 418 483 419 
f 418 482 483 
f 419 484 420 
f 419 483 484 
f 420 485 421 
f 420 484 485 
f 421 486 422 
f 421 485 486 
f 422 487 423 
f 422 486 487 
f 423 488 424 
f 423 487 488 
f 424 489 425 
f 424 488 489 
f 425 490 426 
f 425 489 490 
f 426 491 427 
f 426 490 491 
f 427 492 428 
f 427 491 492 
f 428 493 429 
f 428 492 493 
f 429 494 430 
f 429 493 494 
f 430 495 431 
f 430 494 495 
f 431 496 432 
f 431 495 496 
f 432 497 433 
f 432 496 497 
f 433 498 434 
f 433 497 498 
f 434 499 435 
f 434 498 499 
f 435 500 436 
f 435 499 500 
f 436 501 437 
f 436 500 501 
f 437 502 438 
f 437 501 502 
f 438 503 439 
f 438 502 503 
f 439 504 440 
f 439 503 504 
f 440 505 441 
f 440 504 505 
f 441 506 442 
f 441 505 506 
f 442 507 443 
f 442 506 507 
f 443 508 444 
f 443 507 508 
f 444 509 445 
f 444 508 509 
f 445 510 446 
f 445 509 510 
f 446 511 447 
f 446 510 511 
f 447 512 448 
f 447 511 512 
f 448 449 385 
f 448 512 449 
f 449 514 450 
f 449 513 514 
f 450 515 451 
f 450 514 515 
f 451 516 452 
f 451 515 516 
f 452 517 453 
f 452 516 517 
f 453 518 454 
f 453 517 518 
f 454 519 455 
f 454 518 519 
f 455 520 456 
f 455 519 520 
f 456 521 457 
f 456 520 521 
f 457 522 458 
f 457 521 522 
f 458 523 459 
f 458 522 523 
f 459 524 460 
f 459 523 524 
f 460 525 461 
f 460 524 525 
f 461 526 462 
f 461 525 526 
f 462 527 463 
f 462 526 527 
f 463 528 464 
f 463 527 528 
f 464 529 465 
f 464 528 529 
f 465 530 466 
f 465 529 530 
f 466 531 467 
f 466 530 531 
f 467 532 468 
f 467 531 532 
f 468 533 469 
f 468 532 533 
f 469 534 470 
f 469 533 534 
f 470 535 471 
f 470 534 535 
f 471 536 472 
f 471 535 536 
f 472 537 473 
f 472 536 537 
f 473 538 474 
f 473 537 538 
f 474 539 475 
f 474 538 539 
f 475 540 476 
f 475 539 540 
f 476 541 477 
f 476 540 541 
f 477 542 478 
f 477 541 542 
f 478 543 479 
f 478 542 543 
f 479 544 480 
f 479 543 544 
f 480 545 481 
f 480 544 545 
f 481 546 482 
f 481 545 546 
f 482 547 483 
f 482 546 547 
f 483 548 484 
f 483 547 548 
f 484 549 485 
f 484 548 549 
f 485 550 486 
f 485 549 550 
f 486 551 487 
f 486 550 551 
f 487 552 488 
f 487 551 552 
f 488 553 489 
f 488 552 553 
f 489 554 490 
f 489 553 554 
f 490 555 491 
f 490 554 555 
f 491 556 492 
f 491 555 556 
f 492 557 493 
f 492 556 557 
f 493 558 494 
f 493 557 558 
f 494 559 495 
f 494 558 559 
f 495 560 496 
f 495 559 560 
f 496 561 497 
f 496 560 561 
f 497 562 498 
f 497 561 562 
f 498 563 499 
f 498 562 563 
f 499 564 500 
f 499 563 564 
f 500 565 501 
f 500 564 565 
f 501 566 502 
f 501 565 566 
f 502 567 503 
f 502 566 567 
f 503 568 504 
f 503 567 568 
f 504 569 505 
f 504 568 569 
f 505 570 506 
f 505 569 570 
f 506 571 507 
f 506 570 571 
f 507 572 508 
f 507 571 572 
f 508 573 509 
f 508 572 573 
f 509 574 510 
f 509 573 574 
f 510 575 511 
f 510 574 575 
f 511 576 512 
f 511 575 576 
f 512 513 449 
f 512 576 513 
f 513 578 514 
f 513 577 578 
f 514 579 515 
f 514 578 579 
f 515 580 516 
f 515 579 580 
f 516 581 517 
f 516 580 581 
f 517 582 518 
f 517 581 582 
f 518 583 519 
f 518 582 583 
f 519 584 520 
f 519 583 584 
f 520 585 521 
f 520 584 585 
f 521 586 522 
f 521 585 586 
f 522 587 523 
f 522 586 587 
f 523 588 524 
f 523 587 588 
f 524 589 525 
f 524 588 589 
f 525 590 526 
f 525 589 590 
f 526 591 527 
f 526 590 591 
f 527 592 528 
f 527 591 592 
f 528 593 529 
f 528 592 593 
f 529 594 530 
f 529 593 594 
f 530 595 531 
f 530 594 595 
f 531 596 532 
f 531 595 596 
f 532 597 533 
f 532 596 597 
f 533 598 534 
f 533 597 598 
f 534 599 535 
f 534 598 599 
f 535 600 536 
f 535 599 600 
f 536 601 537 
f 536 600 601 
f 537 602 538 
f 537 601 602 
f 538 603 539 
f 538 602 603 
f 539 604 540 
f 539 603 604 
f 540 605 541 
f 540 604 605 
f 541 606 542 
f 541 605 606 
f 542 607 543 
f 542 606 607 
f 543 608 544 
f 543 607 608 
f 544 609 545 
f 544 608 609 
f 545 610 546 
f 545 609 610 
f 546 611 547 
f 546 610 611 
f 547 612 548 
f 547 611 612 
f 548 613 549 
f 548 612 613 
f 549 614 550 
f 549 613 614 
f 550 615 551 
f 550 614 615 
f 551 616 552 
f 551 615 616 
f 552 617 553 
f 552 616 617 
f 553 618 554 
f 553 617 618 
f 554 619 555 
f 554 618 619 
f 555 620 556 
f 555 619 620 
f 556 621 557 
f 556 620 621 
f 557 622 558 
f 557 621 622 
f 558 623 559 
f 558 622 623 
f 559 624 560 
f 559 623 624 
f 560 625 561 
f 560 624 625 
f 561 626 562 
f 561 625 626 
f 562 627 563 
f 562 626 627 
f 563 628 564 
f 563 627 628 
f 564 629 565 
f 564 628 629 
f 565 630 566 
f 565 629 630 
f 566 631 567 
f 566 630 631 
f 567 632 568 
f 567 631 632 
f 568 633 569 
f 568 632 633 
f 569 634 570 
f 569 633 634 
f 570 635 571 
f 570 634 635 
f 571 636 572 
f 571 635 636 
f 572 637 573 
f 572 636 637 
f 573 638 574 
f 573 637 638 
f 574 639 575 
f 574 638 639 
f 575 640 576 
f 575 639 640 
f 576 577 513 
f 576 640 577 
