# Branch
v 5.49391 4.01488 -27.451
vn -0.222835 -0.471692 0.853142
v 5.49812 4.02972 -27.4427
vn -0.199245 -0.388547 0.899629
v 5.50267 4.04523 -27.436
vn -0.173737 -0.301661 0.937452
v 5.50752 4.06126 -27.4308
vn -0.146555 -0.211869 0.966247
v 5.51263 4.07765 -27.4274
vn -0.117962 -0.120037 0.985736
v 5.51793 4.09425 -27.4256
vn -0.0882323 -0.0270488 0.995733
v 5.52339 4.1109 -27.4255
vn -0.0576533 0.0661998 0.996139
v 5.52895 4.12743 -27.4272
vn -0.026519 0.158811 0.986953
v 5.53456 4.14369 -27.4305
vn 0.00487062 0.249893 0.968261
v 5.54015 4.15952 -27.4355
vn 0.0362133 0.338568 0.940245
v 5.54568 4.17477 -27.4421
vn 0.0672073 0.423982 0.903174
v 5.5511 4.18929 -27.4503
vn 0.0975541 0.505313 0.857404
v 5.55635 4.20294 -27.4599
vn 0.126961 0.581778 0.803377
v 5.56138 4.21559 -27.4709
vn 0.155146 0.65264 0.741614
v 5.56615 4.22712 -27.4833
vn 0.181836 0.717217 0.672708
v 5.5706 4.23742 -27.4967
vn 0.206775 0.774886 0.597323
v 5.5747 4.24638 -27.5112
vn 0.229723 0.825093 0.516186
v 5.5784 4.25392 -27.5266
vn 0.250459 0.867354 0.430078
v 5.58167 4.25998 -27.5427
vn 0.268782 0.901262 0.339828
v 5.58448 4.26448 -27.5594
vn 0.284517 0.92649 0.246305
v 5.5868 4.26739 -27.5765
vn 0.297512 0.942795 0.150411
v 5.58861 4.26868 -27.5939
vn 0.307642 0.950021 0.0530673
v 5.58989 4.26834 -27.6113
vn 0.314808 0.948098 -0.0447871
v 5.59062 4.26636 -27.6287
vn 0.318944 0.937044 -0.14221
v 5.59081 4.26278 -27.6459
vn 0.320007 0.916966 -0.238264
v 5.59045 4.25762 -27.6626
vn 0.317989 0.888056 -0.332023
v 5.58955 4.25093 -27.6788
vn 0.312908 0.850595 -0.422584
v 5.5881 4.24278 -27.6942
vn 0.304814 0.804941 -0.509076
v 5.58613 4.23325 -27.7088
vn 0.293784 0.751536 -0.590664
v 5.58366 4.22242 -27.7223
vn 0.279925 0.690893 -0.666565
v 5.5807 4.21041 -27.7347
vn 0.26337 0.623596 -0.736046
v 5.57729 4.19732 -27.7459
vn 0.244279 0.550294 -0.798439
v 5.57347 4.18329 -27.7556
vn 0.222835 0.471692 -0.853142
v 5.56926 4.16845 -27.7639
vn 0.199245 0.388547 -0.899629
v 5.5647 4.15293 -27.7707
vn 0.173737 0.301661 -0.937452
v 5.55985 4.13691 -27.7758
vn 0.146555 0.211869 -0.966247
v 5.55474 4.12051 -27.7793
vn 0.117962 0.120037 -0.985736
v 5.54944 4.10391 -27.7811
vn 0.0882323 0.0270488 -0.995733
v 5.54398 4.08726 -27.7812
vn 0.0576533 -0.0661998 -0.996139
v 5.53842 4.07073 -27.7795
vn 0.026519 -0.158811 -0.986953
v 5.53282 4.05447 -27.7762
vn -0.00487062 -0.249893 -0.968261
v 5.52722 4.03864 -27.7712
vn -0.0362133 -0.338568 -0.940245
v 5.52169 4.02339 -27.7646
vn -0.0672073 -0.423982 -0.903174
v 5.51627 4.00887 -27.7564
vn -0.0975541 -0.505313 -0.857404
v 5.51102 3.99522 -27.7468
vn -0.126961 -0.581778 -0.803377
v 5.50599 3.98257 -27.7357
vn -0.155146 -0.65264 -0.741614
v 5.50122 3.97104 -27.7234
vn -0.181836 -0.717217 -0.672708
v 5.49677 3.96075 -27.71
vn -0.206775 -0.774886 -0.597323
v 5.49268 3.95179 -27.6955
vn -0.229723 -0.825093 -0.516186
v 5.48897 3.94424 -27.6801
vn -0.250459 -0.867354 -0.430078
v 5.4857 3.93819 -27.664
vn -0.268782 -0.901262 -0.339828
v 5.48289 3.93368 -27.6473
vn -0.284517 -0.92649 -0.246305
v 5.48057 3.93077 -27.6302
vn -0.297512 -0.942795 -0.150411
v 5.47877 3.92948 -27.6128
vn -0.307642 -0.950021 -0.0530673
v 5.47749 3.92983 -27.5953
vn -0.314808 -0.948098 0.0447871
v 5.47675 3.9318 -27.578
vn -0.318944 -0.937044 0.14221
v 5.47656 3.93539 -27.5608
vn -0.320007 -0.916966 0.238264
v 5.47692 3.94055 -27.5441
vn -0.317989 -0.888056 0.332023
v 5.47783 3.94723 -27.5279
vn -0.312908 -0.850595 0.422584
v 5.47927 3.95538 -27.5125
vn -0.304814 -0.804941 0.509076
v 5.48124 3.96492 -27.4979
vn -0.293784 -0.751536 0.590664
v 5.48371 3.97574 -27.4843
vn -0.279925 -0.690893 0.666565
v 5.48667 3.98776 -27.4719
vn -0.26337 -0.623596 0.736046
v 5.49008 4.00084 -27.4608
vn -0.244279 -0.550294 0.798439
v 6.18369 3.78426 -27.3894
vn -0.205762 -0.477209 0.854362
v 6.18822 3.8003 -27.3804
vn -0.182254 -0.394037 0.900843
v 6.19309 3.81706 -27.3732
vn -0.156991 -0.307071 0.938648
v 6.19825 3.83439 -27.3676
vn -0.130216 -0.217148 0.967414
v 6.20366 3.85213 -27.3639
vn -0.102188 -0.125134 0.986863
v 6.20925 3.8701 -27.3619
vn -0.0731747 -0.0319142 0.996808
v 6.21498 3.88813 -27.3619
vn -0.0434571 0.0616128 0.997154
v 6.22079 3.90604 -27.3637
vn -0.0133209 0.154546 0.987896
v 6.22662 3.92367 -27.3673
vn 0.0169435 0.245992 0.969124
v 6.23242 3.94084 -27.3727
vn 0.0470447 0.335068 0.941019
v 6.23814 3.95739 -27.3799
vn 0.0766929 0.420917 0.903851
v 6.24371 3.97316 -27.3887
vn 0.105603 0.502713 0.857979
v 6.24909 3.98799 -27.3991
vn 0.133495 0.579667 0.803844
v 6.25422 4.00175 -27.4111
vn 0.160102 0.651039 0.741968
v 6.25905 4.0143 -27.4244
vn 0.185167 0.716141 0.672946
v 6.26354 4.02552 -27.4389
vn 0.208449 0.774346 0.597443
v 6.26764 4.0353 -27.4546
vn 0.229723 0.825093 0.516186
v 6.27131 4.04355 -27.4712
vn 0.248785 0.867895 0.429959
v 6.27452 4.05019 -27.4886
vn 0.265451 0.902338 0.33959
v 6.27724 4.05515 -27.5067
vn 0.279561 0.928091 0.245951
v 6.27944 4.05839 -27.5252
vn 0.290978 0.944907 0.149944
v 6.28111 4.05988 -27.544
vn 0.299593 0.952622 0.0524923
v 6.28221 4.0596 -27.5629
vn 0.305323 0.951163 -0.0454648
v 6.28275 4.05755 -27.5817
vn 0.308112 0.940544 -0.142984
v 6.28271 4.05376 -27.6002
vn 0.307934 0.920867 -0.239126
v 6.28211 4.04826 -27.6183
vn 0.304791 0.892321 -0.332965
v 6.28094 4.0411 -27.6357
vn 0.298712 0.855182 -0.423598
v 6.27921 4.03235 -27.6524
vn 0.289756 0.809807 -0.510151
v 6.27694 4.0221 -27.6682
vn 0.27801 0.756633 -0.591791
v 6.27416 4.01045 -27.6828
vn 0.263587 0.696172 -0.667732
v 6.27089 3.9975 -27.6962
vn 0.246625 0.629007 -0.737243
v 6.26717 3.98339 -27.7082
vn 0.227288 0.555784 -0.799653
v 6.26302 3.96824 -27.7188
vn 0.205762 0.477209 -0.854362
v 6.25849 3.95221 -27.7277
vn 0.182254 0.394037 -0.900843
v 6.25362 3.93544 -27.735
vn 0.156991 0.307071 -0.938648
v 6.24846 3.91811 -27.7406
vn 0.130216 0.217148 -0.967414
v 6.24305 3.90037 -27.7443
vn 0.102188 0.125134 -0.986863
v 6.23746 3.8824 -27.7462
vn 0.0731747 0.0319142 -0.996808
v 6.23173 3.86438 -27.7463
vn 0.0434571 -0.0616128 -0.997154
v 6.22592 3.84646 -27.7445
vn 0.0133209 -0.154546 -0.987896
v 6.22009 3.82883 -27.7409
vn -0.0169435 -0.245992 -0.969124
v 6.21429 3.81166 -27.7355
vn -0.0470447 -0.335068 -0.941019
v 6.20857 3.79512 -27.7283
vn -0.0766929 -0.420917 -0.903851
v 6.203 3.77935 -27.7195
vn -0.105603 -0.502713 -0.857979
v 6.19762 3.76451 -27.709
vn -0.133495 -0.579667 -0.803844
v 6.19249 3.75076 -27.6971
vn -0.160102 -0.651039 -0.741968
v 6.18766 3.73821 -27.6838
vn -0.185167 -0.716141 -0.672946
v 6.18317 3.72699 -27.6693
vn -0.208449 -0.774346 -0.597443
v 6.17907 3.71721 -27.6536
vn -0.229723 -0.825093 -0.516186
v 6.1754 3.70896 -27.637
vn -0.248785 -0.867895 -0.429959
v 6.17219 3.70232 -27.6196
vn -0.265451 -0.902338 -0.33959
v 6.16947 3.69735 -27.6015
vn -0.279561 -0.928091 -0.245951
v 6.16727 3.69411 -27.583
vn -0.290978 -0.944907 -0.149944
v 6.1656 3.69262 -27.5642
vn -0.299593 -0.952622 -0.0524923
v 6.1645 3.6929 -27.5453
vn -0.305323 -0.951163 0.0454648
v 6.16396 3.69495 -27.5265
vn -0.308112 -0.940544 0.142984
v 6.164 3.69874 -27.508
vn -0.307934 -0.920867 0.239126
v 6.1646 3.70425 -27.4899
vn -0.304791 -0.892321 0.332965
v 6.16577 3.71141 -27.4724
vn -0.298712 -0.855182 0.423598
v 6.1675 3.72015 -27.4558
vn -0.289756 -0.809807 0.510151
v 6.16977 3.7304 -27.44
vn -0.27801 -0.756633 0.591791
v 6.17255 3.74206 -27.4254
vn -0.263587 -0.696172 0.667732
v 6.17582 3.755 -27.412
vn -0.246625 -0.629007 0.737243
v 6.17954 3.76912 -27.3999
vn -0.227288 -0.555784 0.799653
v 6.88216 3.55799 -27.3386
vn -0.188894 -0.482487 0.855292
v 6.88701 3.57521 -27.3289
vn -0.165468 -0.39929 0.901769
v 6.89219 3.59323 -27.3211
vn -0.140448 -0.312248 0.939561
v 6.89765 3.61187 -27.3152
vn -0.114076 -0.222199 0.968305
v 6.90334 3.63095 -27.3111
vn -0.0866044 -0.13001 0.987723
v 6.90919 3.65029 -27.3091
vn -0.0582992 -0.0365693 0.997629
v 6.91517 3.66971 -27.309
vn -0.0294325 0.057224 0.997927
v 6.9212 3.68901 -27.311
vn -0.000282435 0.150466 0.988615
v 6.92724 3.70801 -27.3149
vn 0.0288704 0.242259 0.969782
v 6.93322 3.72653 -27.3207
vn 0.0577452 0.331719 0.941609
v 6.93908 3.74439 -27.3284
vn 0.0860638 0.417985 0.904368
v 6.94477 3.76141 -27.3379
vn 0.113554 0.500225 0.858418
v 6.95023 3.77744 -27.3491
vn 0.13995 0.577647 0.8042
v 6.95542 3.79231 -27.362
vn 0.164998 0.649506 0.742238
v 6.96027 3.8059 -27.3763
vn 0.188458 0.715111 0.673127
v 6.96475 3.81805 -27.3919
vn 0.210102 0.773828 0.597534
v 6.96882 3.82866 -27.4088
vn 0.229723 0.825093 0.516186
v 6.97242 3.83763 -27.4266
vn 0.247132 0.868412 0.429867
v 6.97553 3.84487 -27.4453
vn 0.262161 0.903368 0.339409
v 6.97812 3.8503 -27.4648
vn 0.274665 0.929624 0.245681
v 6.98016 3.85388 -27.4846
vn 0.284523 0.946927 0.149588
v 6.98163 3.85558 -27.5048
vn 0.291642 0.95511 0.0520536
v 6.98253 3.85537 -27.5251
vn 0.295952 0.954095 -0.0459818
v 6.98283 3.85325 -27.5453
vn 0.297412 0.943892 -0.143574
v 6.98254 3.84926 -27.5652
vn 0.296007 0.924599 -0.239784
v 6.98166 3.84342 -27.5847
vn 0.291752 0.896401 -0.333685
v 6.98019 3.8358 -27.6035
vn 0.284687 0.859571 -0.424372
v 6.97816 3.82646 -27.6214
vn 0.274881 0.814462 -0.510972
v 6.97559 3.8155 -27.6383
vn 0.262427 0.761509 -0.592651
v 6.97249 3.80302 -27.654
vn 0.247446 0.701223 -0.668623
v 6.96889 3.78914 -27.6684
vn 0.230082 0.634184 -0.738155
v 6.96484 3.774 -27.6813
vn 0.210502 0.561037 -0.800579
v 6.96036 3.75774 -27.6927
vn 0.188894 0.482487 -0.855292
v 6.95552 3.74052 -27.7023
vn 0.165468 0.39929 -0.901769
v 6.95034 3.7225 -27.7101
vn 0.140448 0.312248 -0.939561
v 6.94488 3.70386 -27.7161
vn 0.114076 0.222199 -0.968305
v 6.93919 3.68478 -27.7201
vn 0.0866044 0.13001 -0.987723
v 6.93333 3.66543 -27.7221
vn 0.0582992 0.0365693 -0.997629
v 6.92736 3.64602 -27.7222
vn 0.0294325 -0.057224 -0.997927
v 6.92132 3.62672 -27.7203
vn 0.000282435 -0.150466 -0.988615
v 6.91529 3.60772 -27.7164
vn -0.0288704 -0.242259 -0.969782
v 6.90931 3.5892 -27.7105
vn -0.0577452 -0.331719 -0.941609
v 6.90345 3.57134 -27.7028
vn -0.0860638 -0.417985 -0.904368
v 6.89776 3.55432 -27.6933
vn -0.113554 -0.500225 -0.858418
v 6.89229 3.53829 -27.6821
vn -0.13995 -0.577647 -0.8042
v 6.88711 3.52341 -27.6693
vn -0.164998 -0.649506 -0.742238
v 6.88225 3.50983 -27.6549
vn -0.188458 -0.715111 -0.673127
v 6.87777 3.49768 -27.6393
vn -0.210102 -0.773828 -0.597534
v 6.87371 3.48707 -27.6225
vn -0.229723 -0.825093 -0.516186
v 6.87011 3.4781 -27.6046
vn -0.247132 -0.868412 -0.429867
v 6.86699 3.47086 -27.5859
vn -0.262161 -0.903368 -0.339409
v 6.86441 3.46543 -27.5665
vn -0.274665 -0.929624 -0.245681
v 6.86237 3.46185 -27.5466
vn -0.284523 -0.946927 -0.149588
v 6.86089 3.46015 -27.5264
vn -0.291642 -0.95511 -0.0520536
v 6.86 3.46036 -27.5061
vn -0.295952 -0.954095 0.0459818
v 6.8597 3.46247 -27.4859
vn -0.297412 -0.943892 0.143574
v 6.85999 3.46647 -27.466
vn -0.296007 -0.924599 0.239784
v 6.86087 3.47231 -27.4465
vn -0.291752 -0.896401 0.333685
v 6.86233 3.47993 -27.4278
vn -0.284687 -0.859571 0.424372
v 6.86436 3.48927 -27.4098
vn -0.274881 -0.814462 0.510972
v 6.86694 3.50023 -27.3929
vn -0.262427 -0.761509 0.592651
v 6.87004 3.51271 -27.3772
vn -0.247446 -0.701223 0.668623
v 6.87364 3.52659 -27.3628
vn -0.230082 -0.634184 0.738155
v 6.87769 3.54173 -27.3499
vn -0.210502 -0.561037 0.800579
v 7.5893 3.33605 -27.2985
vn -0.172246 -0.487532 0.855946
v 7.59447 3.35447 -27.2882
vn -0.1489 -0.404311 0.90242
v 7.59995 3.37374 -27.2799
vn -0.124119 -0.317196 0.940203
v 7.6057 3.39369 -27.2735
vn -0.0981439 -0.227027 0.968931
v 7.61165 3.41412 -27.2692
vn -0.0712231 -0.134671 0.988327
v 7.61776 3.43484 -27.267
vn -0.0436165 -0.0410181 0.998206
v 7.62396 3.45565 -27.267
vn -0.0155898 0.0530296 0.998471
v 7.63019 3.47635 -27.2691
vn 0.012587 0.146567 0.989121
v 7.6364 3.49673 -27.2732
vn 0.0406427 0.238692 0.970244
v 7.64252 3.5166 -27.2795
vn 0.0683069 0.328519 0.942024
v 7.6485 3.53578 -27.2877
vn 0.0953132 0.415182 0.904732
v 7.65427 3.55406 -27.2979
vn 0.121402 0.497847 0.858726
v 7.65978 3.57129 -27.3099
vn 0.146321 0.575717 0.80445
v 7.66498 3.58729 -27.3236
vn 0.169831 0.648042 0.742428
v 7.66982 3.60192 -27.3389
vn 0.191706 0.714127 0.673255
v 7.67425 3.61501 -27.3557
vn 0.211734 0.773334 0.597598
v 7.67823 3.62647 -27.3737
vn 0.229723 0.825093 0.516186
v 7.68173 3.63616 -27.3928
vn 0.2455 0.868907 0.429803
v 7.68469 3.644 -27.4128
vn 0.258913 0.904352 0.339281
v 7.68711 3.64992 -27.4336
vn 0.269832 0.931088 0.245491
v 7.68895 3.65385 -27.4548
vn 0.278152 0.948857 0.149337
v 7.6902 3.65576 -27.4764
vn 0.283794 0.957488 0.0517453
v 7.69084 3.65563 -27.4981
vn 0.286703 0.956898 -0.0463452
v 7.69087 3.65346 -27.5197
vn 0.28685 0.947092 -0.143989
v 7.6903 3.64927 -27.541
vn 0.284235 0.928166 -0.240247
v 7.68911 3.64311 -27.5618
vn 0.278883 0.900301 -0.33419
v 7.68733 3.63502 -27.5819
vn 0.270845 0.863765 -0.424916
v 7.68498 3.6251 -27.6011
vn 0.260198 0.818911 -0.511549
v 7.68207 3.61343 -27.6191
vn 0.247046 0.76617 -0.593256
v 7.67863 3.60013 -27.636
vn 0.231514 0.70605 -0.669249
v 7.6747 3.58532 -27.6513
vn 0.213753 0.639131 -0.738797
v 7.67032 3.56916 -27.6652
vn 0.193933 0.566057 -0.80123
v 7.66552 3.55178 -27.6773
vn 0.172246 0.487532 -0.855946
v 7.66035 3.53337 -27.6875
vn 0.1489 0.404311 -0.90242
v 7.65487 3.5141 -27.6959
vn 0.124119 0.317196 -0.940203
v 7.64912 3.49415 -27.7023
vn 0.0981439 0.227027 -0.968931
v 7.64317 3.47371 -27.7066
vn 0.0712231 0.134671 -0.988327
v 7.63706 3.45299 -27.7087
vn 0.0436165 0.0410181 -0.998206
v 7.63086 3.43219 -27.7088
vn 0.0155898 -0.0530296 -0.998471
v 7.62462 3.41149 -27.7067
vn -0.012587 -0.146567 -0.989121
v 7.61842 3.39111 -27.7026
vn -0.0406427 -0.238692 -0.970244
v 7.6123 3.37123 -27.6963
vn -0.0683069 -0.328519 -0.942024
v 7.60632 3.35206 -27.6881
vn -0.0953132 -0.415182 -0.904732
v 7.60055 3.33377 -27.6779
vn -0.121402 -0.497847 -0.858726
v 7.59504 3.31654 -27.6659
vn -0.146321 -0.575717 -0.80445
v 7.58983 3.30054 -27.6521
vn -0.169831 -0.648042 -0.742428
v 7.585 3.28592 -27.6368
vn -0.191706 -0.714127 -0.673255
v 7.58056 3.27282 -27.6201
vn -0.211734 -0.773334 -0.597598
v 7.57658 3.26137 -27.6021
vn -0.229723 -0.825093 -0.516186
v 7.57309 3.25168 -27.583
vn -0.2455 -0.868907 -0.429803
v 7.57013 3.24383 -27.563
vn -0.258913 -0.904352 -0.339281
v 7.56771 3.23792 -27.5422
vn -0.269832 -0.931088 -0.245491
v 7.56587 3.23399 -27.5209
vn -0.278152 -0.948857 -0.149337
v 7.56462 3.23208 -27.4993
vn -0.283794 -0.957488 -0.0517453
v 7.56398 3.23221 -27.4776
vn -0.286703 -0.956898 0.0463452
v 7.56394 3.23438 -27.456
vn -0.28685 -0.947092 0.143989
v 7.56452 3.23856 -27.4347
vn -0.284235 -0.928166 0.240247
v 7.56571 3.24473 -27.414
vn -0.278883 -0.900301 0.33419
v 7.56749 3.25281 -27.3939
vn -0.270845 -0.863765 0.424916
v 7.56984 3.26274 -27.3747
vn -0.260198 -0.818911 0.511549
v 7.57275 3.27441 -27.3566
vn -0.247046 -0.76617 0.593256
v 7.57619 3.28771 -27.3398
vn -0.231514 -0.70605 0.669249
v 7.58012 3.30251 -27.3244
vn -0.213753 -0.639131 0.738797
v 7.5845 3.31868 -27.3106
vn -0.193933 -0.566057 0.80123
v 8.3051 3.11847 -27.2693
vn -0.155827 -0.492347 0.856337
v 8.31058 3.13807 -27.2583
vn -0.13256 -0.409103 0.902808
v 8.31636 3.1586 -27.2494
vn -0.108016 -0.321919 0.940585
v 8.32238 3.17987 -27.2427
vn -0.0824318 -0.231635 0.969304
v 8.32859 3.20165 -27.2381
vn -0.0560539 -0.13912 0.988688
v 8.33493 3.22375 -27.2358
vn -0.0291362 -0.045265 0.99855
v 8.34134 3.24596 -27.2357
vn -0.00193787 0.0490257 0.998796
v 8.34775 3.26805 -27.2379
vn 0.0252791 0.142844 0.989422
v 8.3541 3.28982 -27.2424
vn 0.0522527 0.235287 0.97052
v 8.36033 3.31106 -27.249
vn 0.078723 0.325464 0.942272
v 8.36639 3.33155 -27.2578
vn 0.104435 0.412507 0.904948
v 8.37221 3.35112 -27.2687
vn 0.129142 0.495577 0.85891
v 8.37773 3.36955 -27.2815
vn 0.152604 0.573874 0.8046
v 8.38291 3.38669 -27.2961
vn 0.174597 0.646644 0.742541
v 8.38769 3.40236 -27.3124
vn 0.194909 0.713187 0.673331
v 8.39203 3.41641 -27.3302
vn 0.213343 0.772862 0.597636
v 8.39589 3.42871 -27.3494
vn 0.229723 0.825093 0.516186
v 8.39923 3.43914 -27.3697
vn 0.243891 0.869379 0.429765
v 8.40201 3.4476 -27.3911
vn 0.255709 0.905291 0.339205
v 8.40421 3.454 -27.4132
vn 0.265066 0.932486 0.245378
v 8.40582 3.45829 -27.4358
vn 0.271869 0.9507 0.149188
v 8.4068 3.46042 -27.4588
vn 0.276054 0.959758 0.0515614
v 8.40716 3.46038 -27.4819
vn 0.277581 0.959573 -0.0465619
v 8.40689 3.45816 -27.5049
vn 0.276434 0.950147 -0.144237
v 8.40599 3.45379 -27.5276
vn 0.272625 0.931571 -0.240523
v 8.40448 3.4473 -27.5497
vn 0.266191 0.904023 -0.334492
v 8.40236 3.43876 -27.5711
vn 0.257193 0.867769 -0.42524
v 8.39966 3.42826 -27.5915
vn 0.245718 0.823158 -0.511893
v 8.3964 3.41588 -27.6107
vn 0.231876 0.770619 -0.593616
v 8.39261 3.40176 -27.6286
vn 0.215802 0.710659 -0.669622
v 8.38834 3.38603 -27.645
vn 0.197649 0.643854 -0.739179
v 8.38362 3.36884 -27.6597
vn 0.177593 0.570849 -0.801618
v 8.37849 3.35035 -27.6726
vn 0.155827 0.492347 -0.856337
v 8.37301 3.33075 -27.6835
vn 0.13256 0.409103 -0.902808
v 8.36723 3.31022 -27.6924
vn 0.108016 0.321919 -0.940585
v 8.36121 3.28896 -27.6992
vn 0.0824318 0.231635 -0.969304
v 8.35499 3.26717 -27.7038
vn 0.0560539 0.13912 -0.988688
v 8.34866 3.24507 -27.7061
vn 0.0291362 0.045265 -0.99855
v 8.34225 3.22287 -27.7061
vn 0.00193787 -0.0490257 -0.998796
v 8.33584 3.20077 -27.7039
vn -0.0252791 -0.142844 -0.989422
v 8.32949 3.17901 -27.6995
vn -0.0522527 -0.235287 -0.97052
v 8.32326 3.15777 -27.6928
vn -0.078723 -0.325464 -0.942272
v 8.3172 3.13727 -27.684
vn -0.104435 -0.412507 -0.904948
v 8.31138 3.11771 -27.6732
vn -0.129142 -0.495577 -0.85891
v 8.30586 3.09927 -27.6604
vn -0.152604 -0.573874 -0.8046
v 8.30068 3.08214 -27.6458
vn -0.174597 -0.646644 -0.742541
v 8.2959 3.06647 -27.6295
vn -0.194909 -0.713187 -0.673331
v 8.29155 3.05241 -27.6117
vn -0.213343 -0.772862 -0.597636
v 8.2877 3.04011 -27.5925
vn -0.229723 -0.825093 -0.516186
v 8.28436 3.02968 -27.5721
vn -0.243891 -0.869379 -0.429765
v 8.28158 3.02123 -27.5508
vn -0.255709 -0.905291 -0.339205
v 8.27937 3.01482 -27.5287
vn -0.265066 -0.932486 -0.245378
v 8.27777 3.01053 -27.5061
vn -0.271869 -0.9507 -0.149188
v 8.27679 3.0084 -27.4831
vn -0.276054 -0.959758 -0.0515614
v 8.27643 3.00844 -27.46
vn -0.277581 -0.959573 0.0465619
v 8.2767 3.01066 -27.437
vn -0.276434 -0.950147 0.144237
v 8.27759 3.01504 -27.4143
vn -0.272625 -0.931571 0.240523
v 8.27911 3.02153 -27.3922
vn -0.266191 -0.904023 0.334492
v 8.28123 3.03006 -27.3708
vn -0.257193 -0.867769 0.42524
v 8.28393 3.04057 -27.3504
vn -0.245718 -0.823158 0.511893
v 8.28719 3.05294 -27.3311
vn -0.231876 -0.770619 0.593616
v 8.29098 3.06706 -27.3133
vn -0.215802 -0.710659 0.669622
v 8.29525 3.08279 -27.2969
vn -0.197649 -0.643854 0.739179
v 8.29997 3.09998 -27.2822
vn -0.177593 -0.570849 0.801618
v 9.02954 2.90525 -27.2509
vn -0.139647 -0.496939 0.856476
v 9.03533 2.92604 -27.2393
vn -0.116458 -0.413673 0.902947
v 9.04141 2.94783 -27.2298
vn -0.0921469 -0.326423 0.940722
v 9.0477 2.97041 -27.2227
vn -0.0669486 -0.236029 0.969437
v 9.05415 2.99355 -27.2178
vn -0.0411057 -0.143362 0.988816
v 9.0607 3.01703 -27.2154
vn -0.0148668 -0.0493146 0.998673
v 9.06729 3.04064 -27.2153
vn 0.0115152 0.0452078 0.998911
v 9.07385 3.06414 -27.2176
vn 0.0377863 0.139295 0.98953
v 9.08032 3.0873 -27.2224
vn 0.0636936 0.23204 0.970619
v 9.08664 3.1099 -27.2294
vn 0.0889874 0.322551 0.94236
v 9.09274 3.13173 -27.2387
vn 0.113424 0.409956 0.905026
v 9.09857 3.15257 -27.2502
vn 0.136769 0.493412 0.858976
v 9.10407 3.17222 -27.2638
vn 0.158796 0.572117 0.804653
v 9.10919 3.1905 -27.2793
vn 0.179294 0.645311 0.742581
v 9.11388 3.20723 -27.2966
vn 0.198065 0.712291 0.673358
v 9.11809 3.22224 -27.3155
vn 0.214929 0.772412 0.59765
v 9.12179 3.2354 -27.3358
vn 0.229723 0.825093 0.516186
v 9.12493 3.24657 -27.3574
vn 0.242305 0.869829 0.429751
v 9.12749 3.25565 -27.3801
vn 0.252553 0.906187 0.339178
v 9.12944 3.26255 -27.4035
vn 0.260369 0.933819 0.245338
v 9.13077 3.26721 -27.4275
vn 0.265677 0.952457 0.149135
v 9.13145 3.26957 -27.4519
vn 0.268427 0.961923 0.0514958
v 9.13149 3.26962 -27.4764
vn 0.268592 0.962124 -0.0466392
v 9.13089 3.26736 -27.5008
vn 0.26617 0.95306 -0.144325
v 9.12964 3.2628 -27.5248
vn 0.261184 0.934818 -0.240621
v 9.12777 3.256 -27.5483
vn 0.253683 0.907573 -0.3346
v 9.12529 3.24701 -27.571
vn 0.24374 0.871587 -0.425356
v 9.12222 3.23593 -27.5926
vn 0.231448 0.827207 -0.512016
v 9.11859 3.22286 -27.613
vn 0.216928 0.774861 -0.593744
v 9.11444 3.20792 -27.632
vn 0.200319 0.715053 -0.669755
v 9.10981 3.19126 -27.6494
vn 0.18178 0.648358 -0.739316
v 9.10475 3.17305 -27.665
vn 0.161491 0.575419 -0.801756
v 9.09929 3.15345 -27.6786
vn 0.139647 0.496939 -0.856476
v 9.0935 3.13266 -27.6902
vn 0.116458 0.413673 -0.902947
v 9.08743 3.11087 -27.6997
vn 0.0921469 0.326423 -0.940722
v 9.08114 3.08829 -27.7069
vn 0.0669486 0.236029 -0.969437
v 9.07468 3.06515 -27.7117
vn 0.0411057 0.143362 -0.988816
v 9.06813 3.04167 -27.7142
vn 0.0148668 0.0493146 -0.998673
v 9.06154 3.01806 -27.7142
vn -0.0115152 -0.0452078 -0.998911
v 9.05498 2.99456 -27.7119
vn -0.0377863 -0.139295 -0.98953
v 9.04851 2.9714 -27.7071
vn -0.0636936 -0.23204 -0.970619
v 9.04219 2.9488 -27.7001
vn -0.0889874 -0.322551 -0.94236
v 9.03609 2.92697 -27.6908
vn -0.113424 -0.409956 -0.905026
v 9.03026 2.90613 -27.6793
vn -0.136769 -0.493412 -0.858976
v 9.02476 2.88648 -27.6657
vn -0.158796 -0.572117 -0.804653
v 9.01964 2.8682 -27.6502
vn -0.179294 -0.645311 -0.742581
v 9.01495 2.85147 -27.6329
vn -0.198065 -0.712291 -0.673358
v 9.01074 2.83646 -27.614
vn -0.214929 -0.772412 -0.59765
v 9.00705 2.8233 -27.5937
vn -0.229723 -0.825093 -0.516186
v 9.00391 2.81213 -27.5721
vn -0.242305 -0.869829 -0.429751
v 9.00135 2.80305 -27.5495
vn -0.252553 -0.906187 -0.339178
v 8.9994 2.79615 -27.526
vn -0.260369 -0.933819 -0.245338
v 8.99807 2.79149 -27.502
vn -0.265677 -0.952457 -0.149135
v 8.99738 2.78913 -27.4776
vn -0.268427 -0.961923 -0.0514958
v 8.99734 2.78908 -27.4531
vn -0.268592 -0.962124 0.0466392
v 8.99795 2.79134 -27.4287
vn -0.26617 -0.95306 0.144325
v 8.99919 2.7959 -27.4047
vn -0.261184 -0.934818 0.240621
v 9.00107 2.8027 -27.3812
vn -0.253683 -0.907573 0.3346
v 9.00355 2.81169 -27.3585
vn -0.24374 -0.871587 0.425356
v 9.00662 2.82277 -27.3369
vn -0.231448 -0.827207 0.512016
v 9.01024 2.83584 -27.3165
vn -0.216928 -0.774861 0.593744
v 9.01439 2.85078 -27.2975
vn -0.200319 -0.715053 0.669755
v 9.01902 2.86744 -27.2801
vn -0.18178 -0.648358 0.739316
v 9.02409 2.88565 -27.2645
vn -0.161491 -0.575419 0.801756
v 9.76262 2.6964 -27.2433
vn -0.123715 -0.501313 0.856376
v 9.76872 2.71838 -27.231
vn -0.100602 -0.418025 0.902848
v 9.77508 2.74143 -27.221
vn -0.0765207 -0.330712 0.940624
v 9.78163 2.76532 -27.2135
vn -0.0517023 -0.240214 0.969342
v 9.78831 2.78982 -27.2083
vn -0.0263861 -0.147403 0.988725
v 9.79506 2.81469 -27.2057
vn -0.000815725 -0.0531719 0.998585
v 9.80182 2.8397 -27.2057
vn 0.0247625 0.0415711 0.998829
v 9.8085 2.86461 -27.2081
vn 0.0501022 0.135914 0.989453
v 9.81507 2.88916 -27.2131
vn 0.0749595 0.228948 0.970548
v 9.82144 2.91314 -27.2206
vn 0.0990948 0.319776 0.942297
v 9.82756 2.9363 -27.2304
vn 0.122276 0.407526 0.90497
v 9.83337 2.95843 -27.2426
vn 0.144279 0.49135 0.858929
v 9.83881 2.97931 -27.2569
vn 0.164893 0.570443 0.804615
v 9.84383 2.99874 -27.2733
vn 0.183919 0.644042 0.742552
v 9.84838 3.01653 -27.2916
vn 0.201174 0.711438 0.673339
v 9.85243 3.03251 -27.3116
vn 0.216491 0.771983 0.59764
v 9.85592 3.04653 -27.3331
vn 0.229723 0.825093 0.516186
v 9.85883 3.05845 -27.3559
vn 0.240743 0.870257 0.429761
v 9.86113 3.06816 -27.3798
vn 0.249445 0.907041 0.339197
v 9.86279 3.07557 -27.4046
vn 0.255744 0.935088 0.245367
v 9.8638 3.08059 -27.43
vn 0.25958 0.954131 0.149173
v 9.86415 3.08319 -27.4557
vn 0.260916 0.963984 0.0515427
v 9.86384 3.08334 -27.4816
vn 0.25974 0.964554 -0.046584
v 9.86287 3.08104 -27.5074
vn 0.256062 0.955835 -0.144262
v 9.86125 3.07631 -27.5328
vn 0.249918 0.937911 -0.240551
v 9.85899 3.06919 -27.5576
vn 0.241368 0.910953 -0.334523
v 9.85612 3.05976 -27.5816
vn 0.230492 0.875223 -0.425273
v 9.85267 3.04811 -27.6045
vn 0.217397 0.831064 -0.511928
v 9.84866 3.03434 -27.626
vn 0.202209 0.778902 -0.593653
v 9.84413 3.01859 -27.6461
vn 0.185073 0.719238 -0.66966
v 9.83914 3.00101 -27.6645
vn 0.166154 0.652648 -0.739218
v 9.83372 2.98177 -27.6809
vn 0.145636 0.579772 -0.801658
v 9.82794 2.96106 -27.6954
vn 0.123715 0.501313 -0.856376
v 9.82184 2.93908 -27.7077
vn 0.100602 0.418025 -0.902848
v 9.81548 2.91603 -27.7176
vn 0.0765207 0.330712 -0.940624
v 9.80893 2.89214 -27.7252
vn 0.0517023 0.240214 -0.969342
v 9.80224 2.86764 -27.7303
vn 0.0263861 0.147403 -0.988725
v 9.79549 2.84276 -27.7329
vn 0.000815725 0.0531719 -0.998585
v 9.78874 2.81775 -27.733
vn -0.0247625 -0.0415711 -0.998829
v 9.78205 2.79285 -27.7305
vn -0.0501022 -0.135914 -0.989453
v 9.77549 2.76829 -27.7255
vn -0.0749595 -0.228948 -0.970548
v 9.76912 2.74432 -27.7181
vn -0.0990948 -0.319776 -0.942297
v 9.763 2.72115 -27.7082
vn -0.122276 -0.407526 -0.90497
v 9.75719 2.69903 -27.6961
vn -0.144279 -0.49135 -0.858929
v 9.75175 2.67815 -27.6817
vn -0.164893 -0.570443 -0.804615
v 9.74673 2.65872 -27.6653
vn -0.183919 -0.644042 -0.742552
v 9.74218 2.64093 -27.6471
vn -0.201174 -0.711438 -0.673339
v 9.73813 2.62495 -27.6271
vn -0.216491 -0.771983 -0.59764
v 9.73464 2.61093 -27.6056
vn -0.229723 -0.825093 -0.516186
v 9.73173 2.599 -27.5828
vn -0.240743 -0.870257 -0.429761
v 9.72943 2.5893 -27.5589
vn -0.249445 -0.907041 -0.339197
v 9.72777 2.58189 -27.5341
vn -0.255744 -0.935088 -0.245367
v 9.72676 2.57686 -27.5087
vn -0.25958 -0.954131 -0.149173
v 9.7264 2.57426 -27.4829
vn -0.260916 -0.963984 -0.0515427
v 9.72672 2.57411 -27.457
vn -0.25974 -0.964554 0.046584
v 9.72769 2.57641 -27.4313
vn -0.256062 -0.955835 0.144262
v 9.72931 2.58115 -27.4058
vn -0.249918 -0.937911 0.240551
v 9.73157 2.58826 -27.381
vn -0.241368 -0.910953 0.334523
v 9.73444 2.59769 -27.3571
vn -0.230492 -0.875223 0.425273
v 9.73789 2.60935 -27.3342
vn -0.217397 -0.831064 0.511928
v 9.7419 2.62312 -27.3126
vn -0.202209 -0.778902 0.593653
v 9.74643 2.63887 -27.2926
vn -0.185073 -0.719238 0.66966
v 9.75142 2.65645 -27.2742
vn -0.166154 -0.652648 0.739218
v 9.75684 2.67568 -27.2577
vn -0.145636 -0.579772 0.801658
v 10.5043 2.49192 -27.2465
vn -0.108037 -0.505474 0.856051
v 10.5107 2.5151 -27.2336
vn -0.0849999 -0.422167 0.902524
v 10.5174 2.5394 -27.2231
vn -0.0611443 -0.334794 0.940305
v 10.5242 2.56461 -27.2151
vn -0.0366998 -0.244197 0.969031
v 10.5311 2.59047 -27.2097
vn -0.0119019 -0.151248 0.988424
v 10.538 2.61673 -27.2069
vn 0.0130107 -0.0568421 0.998298
v 10.5449 2.64315 -27.2069
vn 0.0377979 0.0381109 0.998558
v 10.5517 2.66947 -27.2095
vn 0.0622212 0.132697 0.989202
v 10.5583 2.69543 -27.2147
vn 0.0860452 0.226005 0.970319
v 10.5647 2.72078 -27.2226
vn 0.109041 0.317136 0.942091
v 10.5708 2.74528 -27.233
vn 0.130986 0.405214 0.90479
v 10.5766 2.7687 -27.2458
vn 0.15167 0.489388 0.858775
v 10.5819 2.79081 -27.2609
vn 0.170893 0.56885 0.804491
v 10.5868 2.81139 -27.2781
vn 0.18847 0.642834 0.742458
v 10.5912 2.83025 -27.2974
vn 0.204232 0.710626 0.673275
v 10.595 2.84721 -27.3184
vn 0.218028 0.771575 0.597608
v 10.5983 2.8621 -27.3411
vn 0.229723 0.825093 0.516186
v 10.6009 2.87478 -27.3651
vn 0.239207 0.870665 0.429793
v 10.6029 2.88513 -27.3903
vn 0.246386 0.907852 0.339261
v 10.6043 2.89304 -27.4164
vn 0.251193 0.936296 0.245461
v 10.6049 2.89844 -27.4431
vn 0.253581 0.955723 0.149297
v 10.6049 2.90129 -27.4703
vn 0.253526 0.965946 0.0516959
v 10.6042 2.90154 -27.4976
vn 0.25103 0.966866 -0.0464034
v 10.6029 2.89921 -27.5248
vn 0.246116 0.958475 -0.144056
v 10.6008 2.89431 -27.5515
vn 0.238833 0.940853 -0.240321
v 10.5982 2.88688 -27.5777
vn 0.229249 0.91417 -0.334272
v 10.5949 2.87701 -27.6029
vn 0.217457 0.878684 -0.425003
v 10.591 2.86478 -27.627
vn 0.203571 0.834735 -0.511641
v 10.5866 2.85032 -27.6498
vn 0.187724 0.782747 -0.593352
v 10.5817 2.83376 -27.6709
vn 0.17007 0.723221 -0.669349
v 10.5763 2.81526 -27.6903
vn 0.150778 0.656729 -0.7389
v 10.5706 2.795 -27.7076
vn 0.130034 0.583913 -0.801334
v 10.5644 2.77318 -27.7228
vn 0.108037 0.505474 -0.856051
v 10.558 2.75 -27.7358
vn 0.0849999 0.422167 -0.902524
v 10.5514 2.72569 -27.7463
vn 0.0611443 0.334794 -0.940305
v 10.5446 2.70049 -27.7543
vn 0.0366998 0.244197 -0.969031
v 10.5377 2.67463 -27.7597
vn 0.0119019 0.151248 -0.988424
v 10.5308 2.64836 -27.7624
vn -0.0130107 0.0568421 -0.998298
v 10.5239 2.62195 -27.7625
vn -0.0377979 -0.0381109 -0.998558
v 10.5171 2.59563 -27.7599
vn -0.0622212 -0.132697 -0.989202
v 10.5104 2.56967 -27.7546
vn -0.0860452 -0.226005 -0.970319
v 10.504 2.54432 -27.7468
vn -0.109041 -0.317136 -0.942091
v 10.4979 2.51981 -27.7364
vn -0.130986 -0.405214 -0.90479
v 10.4922 2.49639 -27.7236
vn -0.15167 -0.489388 -0.858775
v 10.4868 2.47429 -27.7085
vn -0.170893 -0.56885 -0.804491
v 10.4819 2.4537 -27.6912
vn -0.18847 -0.642834 -0.742458
v 10.4776 2.43484 -27.672
vn -0.204232 -0.710626 -0.673275
v 10.4737 2.41789 -27.6509
vn -0.218028 -0.771575 -0.597608
v 10.4705 2.403 -27.6283
vn -0.229723 -0.825093 -0.516186
v 10.4678 2.39032 -27.6043
vn -0.239207 -0.870665 -0.429793
v 10.4658 2.37997 -27.5791
vn -0.246386 -0.907852 -0.339261
v 10.4645 2.37206 -27.553
vn -0.251193 -0.936296 -0.245461
v 10.4638 2.36665 -27.5262
vn -0.253581 -0.955723 -0.149297
v 10.4638 2.36381 -27.4991
vn -0.253526 -0.965946 -0.0516959
v 10.4645 2.36355 -27.4718
vn -0.25103 -0.966866 0.0464034
v 10.4659 2.36589 -27.4446
vn -0.246116 -0.958475 0.144056
v 10.4679 2.37079 -27.4178
vn -0.238833 -0.940853 0.240321
v 10.4706 2.37821 -27.3917
vn -0.229249 -0.91417 0.334272
v 10.4739 2.38809 -27.3664
vn -0.217457 -0.878684 0.425003
v 10.4777 2.40031 -27.3423
vn -0.203571 -0.834735 0.511641
v 10.4822 2.41478 -27.3196
vn -0.187724 -0.782747 0.593352
v 10.4871 2.43134 -27.2985
vn -0.17007 -0.723221 0.669349
v 10.4924 2.44984 -27.2791
vn -0.150778 -0.656729 0.7389
v 10.4982 2.4701 -27.2617
vn -0.130034 -0.583913 0.801334
v 11.2546 2.29182 -27.2606
vn -0.0926202 -0.50943 0.855513
v 11.2613 2.31619 -27.247
vn -0.0696574 -0.426104 0.901989
v 11.2683 2.34176 -27.236
vn -0.0460238 -0.338674 0.939778
v 11.2753 2.36829 -27.2275
vn -0.0219469 -0.247982 0.968516
v 11.2824 2.39551 -27.2219
vn 0.00234136 -0.154902 0.987927
v 11.2895 2.42317 -27.219
vn 0.026607 -0.0603307 0.997824
v 11.2965 2.45099 -27.2189
vn 0.0506165 0.0348218 0.998111
v 11.3034 2.47872 -27.2216
vn 0.0741385 0.129639 0.988786
v 11.3101 2.50609 -27.2271
vn 0.0969465 0.223208 0.969938
v 11.3165 2.53282 -27.2354
vn 0.118821 0.314627 0.941749
v 11.3225 2.55867 -27.2463
vn 0.139551 0.403016 0.904491
v 11.3282 2.58339 -27.2597
vn 0.158937 0.487524 0.858522
v 11.3334 2.60673 -27.2756
vn 0.176792 0.567336 0.804285
v 11.3381 2.62847 -27.2937
vn 0.192945 0.641685 0.742302
v 11.3423 2.64841 -27.3139
vn 0.20724 0.709855 0.67317
v 11.3459 2.66635 -27.336
vn 0.219539 0.771187 0.597556
v 11.3489 2.68211 -27.3598
vn 0.229723 0.825093 0.516186
v 11.3512 2.69555 -27.3851
vn 0.237695 0.871053 0.429846
v 11.3529 2.70654 -27.4115
vn 0.243378 0.908624 0.339366
v 11.3539 2.71497 -27.439
vn 0.246718 0.937445 0.245617
v 11.3542 2.72076 -27.4671
vn 0.247681 0.957237 0.149503
v 11.3537 2.72385 -27.4956
vn 0.246259 0.967811 0.0519496
v 11.3526 2.72422 -27.5243
vn 0.242465 0.969064 -0.0461044
v 11.3508 2.72186 -27.5528
vn 0.236336 0.960985 -0.143714
v 11.3484 2.71679 -27.581
vn 0.227931 0.94365 -0.23994
v 11.3453 2.70906 -27.6084
vn 0.217331 0.917228 -0.333855
v 11.3416 2.69875 -27.635
vn 0.204638 0.881973 -0.424555
v 11.3373 2.68595 -27.6603
vn 0.189975 0.838223 -0.511167
v 11.3325 2.6708 -27.6842
vn 0.173481 0.786401 -0.592855
v 11.3271 2.65343 -27.7064
vn 0.155317 0.727006 -0.668834
v 11.3214 2.63401 -27.7267
vn 0.135657 0.660609 -0.738372
v 11.3153 2.61273 -27.745
vn 0.114691 0.58785 -0.800799
v 11.3088 2.5898 -27.761
vn 0.0926202 0.50943 -0.855513
v 11.3021 2.56543 -27.7746
vn 0.0696574 0.426104 -0.901989
v 11.2952 2.53986 -27.7856
vn 0.0460238 0.338674 -0.939778
v 11.2881 2.51333 -27.794
vn 0.0219469 0.247982 -0.968516
v 11.281 2.48611 -27.7997
vn -0.00234136 0.154902 -0.987927
v 11.2739 2.45845 -27.8026
vn -0.026607 0.0603307 -0.997824
v 11.2669 2.43063 -27.8027
vn -0.0506165 -0.0348218 -0.998111
v 11.26 2.4029 -27.8
vn -0.0741385 -0.129639 -0.988786
v 11.2534 2.37553 -27.7945
vn -0.0969465 -0.223208 -0.969938
v 11.247 2.3488 -27.7862
vn -0.118821 -0.314627 -0.941749
v 11.2409 2.32295 -27.7753
vn -0.139551 -0.403016 -0.904491
v 11.2352 2.29823 -27.7619
vn -0.158937 -0.487524 -0.858522
v 11.23 2.27489 -27.746
vn -0.176792 -0.567336 -0.804285
v 11.2253 2.25315 -27.7279
vn -0.192945 -0.641685 -0.742302
v 11.2211 2.23321 -27.7077
vn -0.20724 -0.709855 -0.67317
v 11.2175 2.21527 -27.6856
vn -0.219539 -0.771187 -0.597556
v 11.2145 2.19951 -27.6618
vn -0.229723 -0.825093 -0.516186
v 11.2122 2.18607 -27.6365
vn -0.237695 -0.871053 -0.429846
v 11.2105 2.17508 -27.61
vn -0.243378 -0.908624 -0.339366
v 11.2096 2.16665 -27.5826
vn -0.246718 -0.937445 -0.245617
v 11.2093 2.16086 -27.5545
vn -0.247681 -0.957237 -0.149503
v 11.2097 2.15777 -27.526
vn -0.246259 -0.967811 -0.0519496
v 11.2108 2.1574 -27.4973
vn -0.242465 -0.969064 0.0461044
v 11.2126 2.15977 -27.4688
vn -0.236336 -0.960985 0.143714
v 11.2151 2.16483 -27.4406
vn -0.227931 -0.94365 0.23994
v 11.2182 2.17256 -27.4132
vn -0.217331 -0.917228 0.333855
v 11.2219 2.18287 -27.3866
vn -0.204638 -0.881973 0.424555
v 11.2262 2.19567 -27.3613
vn -0.189975 -0.838223 0.511167
v 11.231 2.21082 -27.3374
vn -0.173481 -0.786401 0.592855
v 11.2363 2.22819 -27.3152
vn -0.155317 -0.727006 0.668834
v 11.242 2.24761 -27.2949
vn -0.135657 -0.660609 0.738372
v 11.2482 2.26889 -27.2766
vn -0.114691 -0.58785 0.800799
v 12.0135 2.09612 -27.2855
vn -0.0774694 -0.513186 0.854774
v 12.0206 2.12168 -27.2713
vn -0.0545795 -0.429841 0.901253
v 12.0277 2.14851 -27.2597
vn -0.031164 -0.342357 0.939053
v 12.035 2.17636 -27.2508
vn -0.00744843 -0.251576 0.967809
v 12.0423 2.20494 -27.2449
vn 0.0163389 -0.158372 0.987244
v 12.0496 2.23399 -27.2418
vn 0.0399689 -0.0636432 0.997172
v 12.0567 2.26324 -27.2417
vn 0.063214 0.0316989 0.997496
v 12.0636 2.29238 -27.2446
vn 0.0858503 0.126736 0.988214
v 12.0703 2.32116 -27.2504
vn 0.10766 0.220552 0.969415
v 12.0767 2.34928 -27.259
vn 0.128432 0.312244 0.94128
v 12.0827 2.37648 -27.2704
vn 0.147968 0.400929 0.90408
v 12.0882 2.40249 -27.2845
vn 0.166079 0.485753 0.858173
v 12.0933 2.42707 -27.3011
vn 0.18259 0.565899 0.804002
v 12.0978 2.44998 -27.3201
vn 0.197343 0.640595 0.742087
v 12.1018 2.471 -27.3413
vn 0.210196 0.709122 0.673026
v 12.1051 2.48992 -27.3644
vn 0.221024 0.770819 0.597483
v 12.1078 2.50657 -27.3894
vn 0.229723 0.825093 0.516186
v 12.1097 2.52078 -27.4158
vn 0.23621 0.871421 0.429918
v 12.111 2.53241 -27.4435
vn 0.240423 0.909357 0.33951
v 12.1116 2.54136 -27.4723
vn 0.24232 0.938535 0.245832
v 12.1115 2.54754 -27.5017
vn 0.241883 0.958675 0.149786
v 12.1106 2.55088 -27.5316
vn 0.239117 0.969581 0.0522979
v 12.1091 2.55136 -27.5617
vn 0.234048 0.971151 -0.0456938
v 12.1068 2.54898 -27.5916
vn 0.226725 0.963367 -0.143246
v 12.1039 2.54374 -27.6211
vn 0.217218 0.946306 -0.239418
v 12.1004 2.53572 -27.6499
vn 0.20562 0.920132 -0.333284
v 12.0962 2.52497 -27.6777
vn 0.192041 0.885096 -0.423941
v 12.0915 2.51161 -27.7042
vn 0.176613 0.841536 -0.510515
v 12.0862 2.49577 -27.7293
vn 0.159484 0.789871 -0.592172
v 12.0805 2.47759 -27.7526
vn 0.140819 0.7306 -0.668127
v 12.0743 2.45725 -27.7739
vn 0.120798 0.664293 -0.737647
v 12.0678 2.43495 -27.7931
vn 0.0996132 0.591588 -0.800063
v 12.0611 2.41091 -27.8098
vn 0.0774694 0.513186 -0.854774
v 12.054 2.38535 -27.8241
vn 0.0545795 0.429841 -0.901253
v 12.0469 2.35851 -27.8357
vn 0.031164 0.342357 -0.939053
v 12.0396 2.33067 -27.8445
vn 0.00744843 0.251576 -0.967809
v 12.0323 2.30209 -27.8505
vn -0.0163389 0.158372 -0.987244
v 12.025 2.27303 -27.8535
vn -0.0399689 0.0636432 -0.997172
v 12.0179 2.24379 -27.8536
vn -0.063214 -0.0316989 -0.997496
v 12.011 2.21464 -27.8508
vn -0.0858503 -0.126736 -0.988214
v 12.0043 2.18587 -27.845
vn -0.10766 -0.220552 -0.969415
v 11.9979 2.15775 -27.8364
vn -0.128432 -0.312244 -0.94128
v 11.9919 2.13055 -27.825
vn -0.147968 -0.400929 -0.90408
v 11.9864 2.10453 -27.8109
vn -0.166079 -0.485753 -0.858173
v 11.9813 2.07995 -27.7943
vn -0.18259 -0.565899 -0.804002
v 11.9768 2.05705 -27.7753
vn -0.197343 -0.640595 -0.742087
v 11.9728 2.03603 -27.7541
vn -0.210196 -0.709122 -0.673026
v 11.9695 2.01711 -27.7309
vn -0.221024 -0.770819 -0.597483
v 11.9668 2.00046 -27.706
vn -0.229723 -0.825093 -0.516186
v 11.9649 1.98625 -27.6795
vn -0.23621 -0.871421 -0.429918
v 11.9636 1.97462 -27.6518
vn -0.240423 -0.909357 -0.33951
v 11.963 1.96567 -27.6231
vn -0.24232 -0.938535 -0.245832
v 11.9631 1.95949 -27.5936
vn -0.241883 -0.958675 -0.149786
v 11.964 1.95615 -27.5637
vn -0.239117 -0.969581 -0.0522979
v 11.9655 1.95566 -27.5337
vn -0.234048 -0.971151 0.0456938
v 11.9678 1.95805 -27.5037
vn -0.226725 -0.963367 0.143246
v 11.9707 1.96328 -27.4742
vn -0.217218 -0.946306 0.239418
v 11.9742 1.97131 -27.4455
vn -0.20562 -0.920132 0.333284
v 11.9784 1.98206 -27.4177
vn -0.192041 -0.885096 0.423941
v 11.9831 1.99542 -27.3911
vn -0.176613 -0.841536 0.510515
v 11.9884 2.01126 -27.3661
vn -0.159484 -0.789871 0.592172
v 11.9941 2.02944 -27.3428
vn -0.140819 -0.7306 0.668127
v 12.0002 2.04978 -27.3214
vn -0.120798 -0.664293 0.737647
v 12.0067 2.07208 -27.3023
vn -0.0996132 -0.591588 0.800063
f 1 66 2 
f 1 65 66 
f 2 67 3 
f 2 66 67 
f 3 68 4 
f 3 67 68 
f 4 69 5 
f 4 68 69 
f 5 70 6 
f 5 69 70 
f 6 71 7 
f 6 70 71 
f 7 72 8 
f 7 71 72 
f 8 73 9 
f 8 72 73 
f 9 74 10 
f 9 73 74 
f 10 75 11 
f 10 74 75 
f 11 76 12 
f 11 75 76 
f 12 77 13 
f 12 76 77 
f 13 78 14 
f 13 77 78 
f 14 79 15 
f 14 78 79 
f 15 80 16 
f 15 79 80 
f 16 81 17 
f 16 80 81 
f 17 82 18 
f 17 81 82 
f 18 83 19 
f 18 82 83 
f 19 84 20 
f 19 83 84 
f 20 85 21 
f 20 84 85 
f 21 86 22 
f 21 85 86 
f 22 87 23 
f 22 86 87 
f 23 88 24 
f 23 87 88 
f 24 89 25 
f 24 88 89 
f 25 90 26 
f 25 89 90 
f 26 91 27 
f 26 90 91 
f 27 92 28 
f 27 91 92 
f 28 93 29 
f 28 92 93 
f 29 94 30 
f 29 93 94 
f 30 95 31 
f 30 94 95 
f 31 96 32 
f 31 95 96 
f 32 97 33 
f 32 96 97 
f 33 98 34 
f 33 97 98 
f 34 99 35 
f 34 98 99 
f 35 100 36 
f 35 99 100 
f 36 101 37 
f 36 100 101 
f 37 102 38 
f 37 101 102 
f 38 103 39 
f 38 102 103 
f 39 104 40 
f 39 103 104 
f 40 105 41 
f 40 104 105 
f 41 106 42 
f 41 105 106 
f 42 107 43 
f 42 106 107 
f 43 108 44 
f 43 107 108 
f 44 109 45 
f 44 108 109 
f 45 110 46 
f 45 109 110 
f 46 111 47 
f 46 110 111 
f 47 112 48 
f 47 111 112 
f 48 113 49 
f 48 112 113 
f 49 114 50 
f 49 113 114 
f 50 115 51 
f 50 114 115 
f 51 116 52 
f 51 115 116 
f 52 117 53 
f 52 116 117 
f 53 118 54 
f 53 117 118 
f 54 119 55 
f 54 118 119 
f 55 120 56 
f 55 119 120 
f 56 121 57 
f 56 120 121 
f 57 122 58 
f 57 121 122 
f 58 123 59 
f 58 122 123 
f 59 124 60 
f 59 123 124 
f 60 125 61 
f 60 124 125 
f 61 126 62 
f 61 125 126 
f 62 127 63 
f 62 126 127 
f 63 128 64 
f 63 127 128 
f 64 65 1 
f 64 128 65 
f 65 130 66 
f 65 129 130 
f 66 131 67 
f 66 130 131 
f 67 132 68 
f 67 131 132 
f 68 133 69 
f 68 132 133 
f 69 134 70 
f 69 133 134 
f 70 135 71 
f 70 134 135 
f 71 136 72 
f 71 135 136 
f 72 137 73 
f 72 136 137 
f 73 138 74 
f 73 137 138 
f 74 139 75 
f 74 138 139 
f 75 140 76 
f 75 139 140 
f 76 141 77 
f 76 140 141 
f 77 142 78 
f 77 141 142 
f 78 143 79 
f 78 142 143 
f 79 144 80 
f 79 143 144 
f 80 145 81 
f 80 144 145 
f 81 146 82 
f 81 145 146 
f 82 147 83 
f 82 146 147 
f 83 148 84 
f 83 147 148 
f 84 149 85 
f 84 148 149 
f 85 150 86 
f 85 149 150 
f 86 151 87 
f 86 150 151 
f 87 152 88 
f 87 151 152 
f 88 153 89 
f 88 152 153 
f 89 154 90 
f 89 153 154 
f 90 155 91 
f 90 154 155 
f 91 156 92 
f 91 155 156 
f 92 157 93 
f 92 156 157 
f 93 158 94 
f 93 157 158 
f 94 159 95 
f 94 158 159 
f 95 160 96 
f 95 159 160 
f 96 161 97 
f 96 160 161 
f 97 162 98 
f 97 161 162 
f 98 163 99 
f 98 162 163 
f 99 164 100 
f 99 163 164 
f 100 165 101 
f 100 164 165 
f 101 166 102 
f 101 165 166 
f 102 167 103 
f 102 166 167 
f 103 168 104 
f 103 167 168 
f 104 169 105 
f 104 168 169 
f 105 170 106 
f 105 169 170 
f 106 171 107 
f 106 170 171 
f 107 172 108 
f 107 171 172 
f 108 173 109 
f 108 172 173 
f 109 174 110 
f 109 173 174 
f 110 175 111 
f 110 174 175 
f 111 176 112 
f 111 175 176 
f 112 177 113 
f 112 176 177 
f 113 178 114 
f 113 177 178 
f 114 179 115 
f 114 178 179 
f 115 180 116 
f 115 179 180 
f 116 181 117 
f 116 180 181 
f 117 182 118 
f 117 181 182 
f 118 183 119 
f 118 182 183 
f 119 184 120 
f 119 183 184 
f 120 185 121 
f 120 184 185 
f 121 186 122 
f 121 185 186 
f 122 187 123 
f 122 186 187 
f 123 188 124 
f 123 187 188 
f 124 189 125 
f 124 188 189 
f 125 190 126 
f 125 189 190 
f 126 191 127 
f 126 190 191 
f 127 192 128 
f 127 191 192 
f 128 129 65 
f 128 192 129 
f 129 194 130 
f 129 193 194 
f 130 195 131 
f 130 194 195 
f 131 196 132 
f 131 195 196 
f 132 197 133 
f 132 196 197 
f 133 198 134 
f 133 197 198 
f 134 199 135 
f 134 198 199 
f 135 200 136 
f 135 199 200 
f 136 201 137 
f 136 200 201 
f 137 202 138 
f 137 201 202 
f 138 203 139 
f 138 202 203 
f 139 204 140 
f 139 203 204 
f 140 205 141 
f 140 204 205 
f 141 206 142 
f 141 205 206 
f 142 207 143 
f 142 206 207 
f 143 208 144 
f 143 207 208 
f 144 209 145 
f 144 208 209 
f 145 210 146 
f 145 209 210 
f 146 211 147 
f 146 210 211 
f 147 212 148 
f 147 211 212 
f 148 213 149 
f 148 212 213 
f 149 214 150 
f 149 213 214 
f 150 215 151 
f 150 214 215 
f 151 216 152 
f 151 215 216 
f 152 217 153 
f 152 216 217 
f 153 218 154 
f 153 217 218 
f 154 219 155 
f 154 218 219 
f 155 220 156 
f 155 219 220 
f 156 221 157 
f 156 220 221 
f 157 222 158 
f 157 221 222 
f 158 223 159 
f 158 222 223 
f 159 224 160 
f 159 223 224 
f 160 225 161 
f 160 224 225 
f 161 226 162 
f 161 225 226 
f 162 227 163 
f 162 226 227 
f 163 228 164 
f 163 227 228 
f 164 229 165 
f 164 228 229 
f 165 230 166 
f 165 229 230 
f 166 231 167 
f 166 230 231 
f 167 232 168 
f 167 231 232 
f 168 233 169 
f 168 232 233 
f 169 234 170 
f 169 233 234 
f 170 235 171 
f 170 234 235 
f 171 236 172 
f 171 235 236 
f 172 237 173 
f 172 236 237 
f 173 238 174 
f 173 237 238 
f 174 239 175 
f 174 238 239 
f 175 240 176 
f 175 239 240 
f 176 241 177 
f 176 240 241 
f 177 242 178 
f 177 241 242 
f 178 243 179 
f 178 242 243 
f 179 244 180 
f 179 243 244 
f 180 245 181 
f 180 244 245 
f 181 246 182 
f 181 245 246 
f 182 247 183 
f 182 246 247 
f 183 248 184 
f 183 247 248 
f 184 249 185 
f 184 248 249 
f 185 250 186 
f 185 249 250 
f 186 251 187 
f 186 250 251 
f 187 252 188 
f 187 251 252 
f 188 253 189 
f 188 252 253 
f 189 254 190 
f 189 253 254 
f 190 255 191 
f 190 254 255 
f 191 256 192 
f 191 255 256 
f 192 193 129 
f 192 256 193 
f 193 258 194 
f 193 257 258 
f 194 259 195 
f 194 258 259 
f 195 260 196 
f 195 259 260 
f 196 261 197 
f 196 260 261 
f 197 262 198 
f 197 261 262 
f 198 263 199 
f 198 262 263 
f 199 264 200 
f 199 263 264 
f 200 265 201 
f 200 264 265 
f 201 266 202 
f 201 265 266 
f 202 267 203 
f 202 266 267 
f 203 268 204 
f 203 267 268 
f 204 269 205 
f 204 268 269 
f 205 270 206 
f 205 269 270 
f 206 271 207 
f 206 270 271 
f 207 272 208 
f 207 271 272 
f 208 273 209 
f 208 272 273 
f 209 274 210 
f 209 273 274 
f 210 275 211 
f 210 274 275 
f 211 276 212 
f 211 275 276 
f 212 277 213 
f 212 276 277 
f 213 278 214 
f 213 277 278 
f 214 279 215 
f 214 278 279 
f 215 280 216 
f 215 279 280 
f 216 281 217 
f 216 280 281 
f 217 282 218 
f 217 281 282 
f 218 283 219 
f 218 282 283 
f 219 284 220 
f 219 283 284 
f 220 285 221 
f 220 284 285 
f 221 286 222 
f 221 285 286 
f 222 287 223 
f 222 286 287 
f 223 288 224 
f 223 287 288 
f 224 289 225 
f 224 288 289 
f 225 290 226 
f 225 289 290 
f 226 291 227 
f 226 290 291 
f 227 292 228 
f 227 291 292 
f 228 293 229 
f 228 292 293 
f 229 294 230 
f 229 293 294 
f 230 295 231 
f 230 294 295 
f 231 296 232 
f 231 295 296 
f 232 297 233 
f 232 296 297 
f 233 298 234 
f 233 297 298 
f 234 299 235 
f 234 298 299 
f 235 300 236 
f 235 299 300 
f 236 301 237 
f 236 300 301 
f 237 302 238 
f 237 301 302 
f 238 303 239 
f 238 302 303 
f 239 304 240 
f 239 303 304 
f 240 305 241 
f 240 304 305 
f 241 306 242 
f 241 305 306 
f 242 307 243 
f 242 306 307 
f 243 308 244 
f 243 307 308 
f 244 309 245 
f 244 308 309 
f 245 310 246 
f 245 309 310 
f 246 311 247 
f 246 310 311 
f 247 312 248 
f 247 311 312 
f 248 313 249 
f 248 312 313 
f 249 314 250 
f 249 313 314 
f 250 315 251 
f 250 314 315 
f 251 316 252 
f 251 315 316 
f 252 317 253 
f 252 316 317 
f 253 318 254 
f 253 317 318 
f 254 319 255 
f 254 318 319 
f 255 320 256 
f 255 319 320 
f 256 257 193 
f 256 320 257 
f 257 322 258 
f 257 321 322 
f 258 323 259 
f 258 322 323 
f 259 324 260 
f 259 323 324 
f 260 325 261 
f 260 324 325 
f 261 326 262 
f 261 325 326 
f 262 327 263 
f 262 326 327 
f 263 328 264 
f 263 327 328 
f 264 329 265 
f 264 328 329 
f 265 330 266 
f 265 329 330 
f 266 331 267 
f 266 330 331 
f 267 332 268 
f 267 331 332 
f 268 333 269 
f 268 332 333 
f 269 334 270 
f 269 333 334 
f 270 335 271 
f 270 334 335 
f 271 336 272 
f 271 335 336 
f 272 337 273 
f 272 336 337 
f 273 338 274 
f 273 337 338 
f 274 339 275 
f 274 338 339 
f 275 340 276 
f 275 339 340 
f 276 341 277 
f 276 340 341 
f 277 342 278 
f 277 341 342 
f 278 343 279 
f 278 342 343 
f 279 344 280 
f 279 343 344 
f 280 345 281 
f 280 344 345 
f 281 346 282 
f 281 345 346 
f 282 347 283 
f 282 346 347 
f 283 348 284 
f 283 347 348 
f 284 349 285 
f 284 348 349 
f 285 350 286 
f 285 349 350 
f 286 351 287 
f 286 350 351 
f 287 352 288 
f 287 351 352 
f 288 353 289 
f 288 352 353 
f 289 354 290 
f 289 353 354 
f 290 355 291 
f 290 354 355 
f 291 356 292 
f 291 355 356 
f 292 357 293 
f 292 356 357 
f 293 358 294 
f 293 357 358 
f 294 359 295 
f 294 358 359 
f 295 360 296 
f 295 359 360 
f 296 361 297 
f 296 360 361 
f 297 362 298 
f 297 361 362 
f 298 363 299 
f 298 362 363 
f 299 364 300 
f 299 363 364 
f 300 365 301 
f 300 364 365 
f 301 366 302 
f 301 365 366 
f 302 367 303 
f 302 366 367 
f 303 368 304 
f 303 367 368 
f 304 369 305 
f 304 368 369 
f 305 370 306 
f 305 369 370 
f 306 371 307 
f 306 370 371 
f 307 372 308 
f 307 371 372 
f 308 373 309 
f 308 372 373 
f 309 374 310 
f 309 373 374 
f 310 375 311 
f 310 374 375 
f 311 376 312 
f 311 375 376 
f 312 377 313 
f 312 376 377 
f 313 378 314 
f 313 377 378 
f 314 379 315 
f 314 378 379 
f 315 380 316 
f 315 379 380 
f 316 381 317 
f 316 380 381 
f 317 382 318 
f 317 381 382 
f 318 383 319 
f 318 382 383 
f 319 384 320 
f 319 383 384 
f 320 321 257 
f 320 384 321 
f 321 386 322 
f 321 385 386 
f 322 387 323 
f 322 386 387 
f 323 388 324 
f 323 387 388 
f 324 389 325 
f 324 388 389 
f 325 390 326 
f 325 389 390 
f 326 391 327 
f 326 390 391 
f 327 392 328 
f 327 391 392 
f 328 393 329 
f 328 392 393 
f 329 394 330 
f 329 393 394 
f 330 395 331 
f 330 394 395 
f 331 396 332 
f 331 395 396 
f 332 397 333 
f 332 396 397 
f 333 398 334 
f 333 397 398 
f 334 399 335 
f 334 398 399 
f 335 400 336 
f 335 399 400 
f 336 401 337 
f 336 400 401 
f 337 402 338 
f 337 401 402 
f 338 403 339 
f 338 402 403 
f 339 404 340 
f 339 403 404 
f 340 405 341 
f 340 404 405 
f 341 406 342 
f 341 405 406 
f 342 407 343 
f 342 406 407 
f 343 408 344 
f 343 407 408 
f 344 409 345 
f 344 408 409 
f 345 410 346 
f 345 409 410 
f 346 411 347 
f 346 410 411 
f 347 412 348 
f 347 411 412 
f 348 413 349 
f 348 412 413 
f 349 414 350 
f 349 413 414 
f 350 415 351 
f 350 414 415 
f 351 416 352 
f 351 415 416 
f 352 417 353 
f 352 416 417 
f 353 418 354 
f 353 417 418 
f 354 419 355 
f 354 418 419 
f 355 420 356 
f 355 419 420 
f 356 421 357 
f 356 420 421 
f 357 422 358 
f 357 421 422 
f 358 423 359 
f 358 422 423 
f 359 424 360 
f 359 423 424 
f 360 425 361 
f 360 424 425 
f 361 426 362 
f 361 425 426 
f 362 427 363 
f 362 426 427 
f 363 428 364 
f 363 427 428 
f 364 429 365 
f 364 428 429 
f 365 430 366 
f 365 429 430 
f 366 431 367 
f 366 430 431 
f 367 432 368 
f 367 431 432 
f 368 433 369 
f 368 432 433 
f 369 434 370 
f 369 433 434 
f 370 435 371 
f 370 434 435 
f 371 436 372 
f 371 435 436 
f 372 437 373 
f 372 436 437 
f 373 438 374 
f 373 437 438 
f 374 439 375 
f 374 438 439 
f 375 440 376 
f 375 439 440 
f 376 441 377 
f 376 440 441 
f 377 442 378 
f 377 441 442 
f 378 443 379 
f 378 442 443 
f 379 444 380 
f 379 443 444 
f 380 445 381 
f 380 444 445 
f 381 446 382 
f 381 445 446 
f 382 447 383 
f 382 446 447 
f 383 448 384 
f 383 447 448 
f 384 385 321 
f 384 448 385 
f 385 450 386 
f 385 449 450 
f 386 451 387 
f 386 450 451 
f 387 452 388 
f 387 451 452 
f 388 453 389 
f 388 452 453 
f 389 454 390 
f 389 453 454 
f 390 455 391 
f 390 454 455 
f 391 456 392 
f 391 455 456 
f 392 457 393 
f 392 456 457 
f 393 458 394 
f 393 457 458 
f 394 459 395 
f 394 458 459 
f 395 460 396 
f 395 459 460 
f 396 461 397 
f 396 460 461 
f 397 462 398 
f 397 461 462 
f 398 463 399 
f 398 462 463 
f 399 464 400 
f 399 463 464 
f 400 465 401 
f 400 464 465 
f 401 466 402 
f 401 465 466 
f 402 467 403 
f 402 466 467 
f 403 468 404 
f 403 467 468 
f 404 469 405 
f 404 468 469 
f 405 470 406 
f 405 469 470 
f 406 471 407 
f 406 470 471 
f 407 472 408 
f 407 471 472 
f 408 473 409 
f 408 472 473 
f 409 474 410 
f 409 473 474 
f 410 475 411 
f 410 474 475 
f 411 476 412 
f 411 475 476 
f 412 477 413 
f 412 476 477 
f 413 478 414 
f 413 477 478 
f 414 479 415 
f 414 478 479 
f 415 480 416 
f 415 479 480 
f 416 481 417 
f 416 480 481 
f 417 482 418 
f 417 481 482 
f 418 483 419 
f 418 482 483 
f 419 484 420 
f 419 483 484 
f 420 485 421 
f 420 484 485 
f 421 486 422 
f 421 485 486 
f 422 487 423 
f 422 486 487 
f 423 488 424 
f 423 487 488 
f 424 489 425 
f 424 488 489 
f 425 490 426 
f 425 489 490 
f 426 491 427 
f 426 490 491 
f 427 492 428 
f 427 491 492 
f 428 493 429 
f 428 492 493 
f 429 494 430 
f 429 493 494 
f 430 495 431 
f 430 494 495 
f 431 496 432 
f 431 495 496 
f 432 497 433 
f 432 496 497 
f 433 498 434 
f 433 497 498 
f 434 499 435 
f 434 498 499 
f 435 500 436 
f 435 499 500 
f 436 501 437 
f 436 500 501 
f 437 502 438 
f 437 501 502 
f 438 503 439 
f 438 502 503 
f 439 504 440 
f 439 503 504 
f 440 505 441 
f 440 504 505 
f 441 506 442 
f 441 505 506 
f 442 507 443 
f 442 506 507 
f 443 508 444 
f 443 507 508 
f 444 509 445 
f 444 508 509 
f 445 510 446 
f 445 509 510 
f 446 511 447 
f 446 510 511 
f 447 512 448 
f 447 511 512 
f 448 449 385 
f 448 512 449 
f 449 514 450 
f 449 513 514 
f 450 515 451 
f 450 514 515 
f 451 516 452 
f 451 515 516 
f 452 517 453 
f 452 516 517 
f 453 518 454 
f 453 517 518 
f 454 519 455 
f 454 518 519 
f 455 520 456 
f 455 519 520 
f 456 521 457 
f 456 520 521 
f 457 522 458 
f 457 521 522 
f 458 523 459 
f 458 522 523 
f 459 524 460 
f 459 523 524 
f 460 525 461 
f 460 524 525 
f 461 526 462 
f 461 525 526 
f 462 527 463 
f 462 526 527 
f 463 528 464 
f 463 527 528 
f 464 529 465 
f 464 528 529 
f 465 530 466 
f 465 529 530 
f 466 531 467 
f 466 530 531 
f 467 532 468 
f 467 531 532 
f 468 533 469 
f 468 532 533 
f 469 534 470 
f 469 533 534 
f 470 535 471 
f 470 534 535 
f 471 536 472 
f 471 535 536 
f 472 537 473 
f 472 536 537 
f 473 538 474 
f 473 537 538 
f 474 539 475 
f 474 538 539 
f 475 540 476 
f 475 539 540 
f 476 541 477 
f 476 540 541 
f 477 542 478 
f 477 541 542 
f 478 543 479 
f 478 542 543 
f 479 544 480 
f 479 543 544 
f 480 545 481 
f 480 544 545 
f 481 546 482 
f 481 545 546 
f 482 547 483 
f 482 546 547 
f 483 548 484 
f 483 547 548 
f 484 549 485 
f 484 548 549 
f 485 550 486 
f 485 549 550 
f 486 551 487 
f 486 550 551 
f 487 552 488 
f 487 551 552 
f 488 553 489 
f 488 552 553 
f 489 554 490 
f 489 553 554 
f 490 555 491 
f 490 554 555 
f 491 556 492 
f 491 555 556 
f 492 557 493 
f 492 556 557 
f 493 558 494 
f 493 557 558 
f 494 559 495 
f 494 558 559 
f 495 560 496 
f 495 559 560 
f 496 561 497 
f 496 560 561 
f 497 562 498 
f 497 561 562 
f 498 563 499 
f 498 562 563 
f 499 564 500 
f 499 563 564 
f 500 565 501 
f 500 564 565 
f 501 566 502 
f 501 565 566 
f 502 567 503 
f 502 566 567 
f 503 568 504 
f 503 567 568 
f 504 569 505 
f 504 568 569 
f 505 570 506 
f 505 569 570 
f 506 571 507 
f 506 570 571 
f 507 572 508 
f 507 571 572 
f 508 573 509 
f 508 572 573 
f 509 574 510 
f 509 573 574 
f 510 575 511 
f 510 574 575 
f 511 576 512 
f 511 575 576 
f 512 513 449 
f 512 576 513 
f 513 578 514 
f 513 577 578 
f 514 579 515 
f 514 578 579 
f 515 580 516 
f 515 579 580 
f 516 581 517 
f 516 580 581 
f 517 582 518 
f 517 581 582 
f 518 583 519 
f 518 582 583 
f 519 584 520 
f 519 583 584 
f 520 585 521 
f 520 584 585 
f 521 586 522 
f 521 585 586 
f 522 587 523 
f 522 586 587 
f 523 588 524 
f 523 587 588 
f 524 589 525 
f 524 588 589 
f 525 590 526 
f 525 589 590 
f 526 591 527 
f 526 590 591 
f 527 592 528 
f 527 591 592 
f 528 593 529 
f 528 592 593 
f 529 594 530 
f 529 593 594 
f 530 595 531 
f 530 594 595 
f 531 596 532 
f 531 595 596 
f 532 597 533 
f 532 596 597 
f 533 598 534 
f 533 597 598 
f 534 599 535 
f 534 598 599 
f 535 600 536 
f 535 599 600 
f 536 601 537 
f 536 600 601 
f 537 602 538 
f 537 601 602 
f 538 603 539 
f 538 602 603 
f 539 604 540 
f 539 603 604 
f 540 605 541 
f 540 604 605 
f 541 606 542 
f 541 605 606 
f 542 607 543 
f 542 606 607 
f 543 608 544 
f 543 607 608 
f 544 609 545 
f 544 608 609 
f 545 610 546 
f 545 609 610 
f 546 611 547 
f 546 610 611 
f 547 612 548 
f 547 611 612 
f 548 613 549 
f 548 612 613 
f 549 614 550 
f 549 613 614 
f 550 615 551 
f 550 614 615 
f 551 616 552 
f 551 615 616 
f 552 617 553 
f 552 616 617 
f 553 618 554 
f 553 617 618 
f 554 619 555 
f 554 618 619 
f 555 620 556 
f 555 619 620 
f 556 621 557 
f 556 620 621 
f 557 622 558 
f 557 621 622 
f 558 623 559 
f 558 622 623 
f 559 624 560 
f 559 623 624 
f 560 625 561 
f 560 624 625 
f 561 626 562 
f 561 625 626 
f 562 627 563 
f 562 626 627 
f 563 628 564 
f 563 627 628 
f 564 629 565 
f 564 628 629 
f 565 630 566 
f 565 629 630 
f 566 631 567 
f 566 630 631 
f 567 632 568 
f 567 631 632 
f 568 633 569 
f 568 632 633 
f 569 634 570 
f 569 633 634 
f 570 635 571 
f 570 634 635 
f 571 636 572 
f 571 635 636 
f 572 637 573 
f 572 636 637 
f 573 638 574 
f 573 637 638 
f 574 639 575 
f 574 638 639 
f 575 640 576 
f 575 639 640 
f 576 577 513 
f 576 640 577 
