# Branch
v 4.99512 9.53542 -25.8406
vn 0.362327 -0.0307385 0.931544
v 5.08684 9.52442 -25.882
vn 0.451255 -0.0414011 0.891434
v 5.17408 9.51383 -25.9322
vn 0.535836 -0.051665 0.84274
v 5.256 9.50376 -25.9908
vn 0.615257 -0.0614313 0.785929
v 5.33181 9.4943 -26.0572
vn 0.688753 -0.070606 0.72155
v 5.40077 9.48554 -26.1308
vn 0.755616 -0.0791007 0.650221
v 5.46223 9.47756 -26.2108
vn 0.815202 -0.0868337 0.572631
v 5.5156 9.47045 -26.2966
vn 0.866937 -0.0937304 0.489526
v 5.56035 9.46426 -26.3871
vn 0.910323 -0.0997244 0.401706
v 5.59605 9.45907 -26.4817
vn 0.944942 -0.104758 0.310018
v 5.62237 9.45492 -26.5794
vn 0.97046 -0.108783 0.215344
v 5.63906 9.45185 -26.6791
vn 0.986633 -0.11176 0.118596
v 5.64594 9.44989 -26.7801
vn 0.993304 -0.113661 0.0207062
v 5.64295 9.44906 -26.8813
vn 0.990409 -0.114467 -0.0773831
v 5.63013 9.44936 -26.9817
vn 0.977975 -0.114171 -0.174727
v 5.60759 9.4508 -27.0804
vn 0.956123 -0.112775 -0.270389
v 5.57555 9.45336 -27.1764
vn 0.925064 -0.110293 -0.363446
v 5.53432 9.45702 -27.2687
vn 0.885095 -0.106749 -0.453003
v 5.48431 9.46173 -27.3566
vn 0.836602 -0.102177 -0.538198
v 5.42598 9.46746 -27.4391
vn 0.780053 -0.096621 -0.618209
v 5.3599 9.47416 -27.5155
vn 0.715991 -0.0901344 -0.692267
v 5.28671 9.48174 -27.585
vn 0.645033 -0.0827798 -0.759657
v 5.20712 9.49015 -27.647
vn 0.567864 -0.074628 -0.819732
v 5.12188 9.4993 -27.7008
vn 0.485226 -0.0657574 -0.871913
v 5.03182 9.5091 -27.746
vn 0.397915 -0.0562536 -0.915696
v 4.93781 9.51946 -27.782
vn 0.306771 -0.046208 -0.950661
v 4.84076 9.53028 -27.8087
vn 0.212674 -0.0357175 -0.97647
v 4.74159 9.54146 -27.8256
vn 0.116528 -0.0248829 -0.992876
v 4.64126 9.55288 -27.8326
vn 0.0192599 -0.0138087 -0.999719
v 4.54074 9.56444 -27.8298
vn -0.0781937 -0.00260151 -0.996935
v 4.441 9.57603 -27.817
vn -0.174894 0.00863073 -0.984549
v 4.34299 9.58753 -27.7944
vn -0.26991 0.0197798 -0.962682
v 4.24767 9.59883 -27.7623
vn -0.362327 0.0307385 -0.931544
v 4.15595 9.60983 -27.7209
vn -0.451255 0.0414011 -0.891434
v 4.0687 9.62041 -27.6707
vn -0.535836 0.051665 -0.84274
v 3.98679 9.63049 -27.6121
vn -0.615257 0.0614313 -0.785929
v 3.91098 9.63995 -27.5457
vn -0.688753 0.070606 -0.72155
v 3.84201 9.64871 -27.4721
vn -0.755616 0.0791007 -0.650221
v 3.78055 9.65669 -27.3921
vn -0.815202 0.0868337 -0.572631
v 3.72719 9.6638 -27.3064
vn -0.866937 0.0937304 -0.489526
v 3.68244 9.66998 -27.2158
vn -0.910323 0.0997244 -0.401706
v 3.64673 9.67518 -27.1212
vn -0.944942 0.104758 -0.310018
v 3.62041 9.67933 -27.0236
vn -0.97046 0.108783 -0.215344
v 3.60373 9.6824 -26.9238
vn -0.986633 0.11176 -0.118596
v 3.59685 9.68436 -26.8228
vn -0.993304 0.113661 -0.0207062
v 3.59984 9.68519 -26.7217
vn -0.990409 0.114467 0.0773831
v 3.61266 9.68489 -26.6213
vn -0.977975 0.114171 0.174727
v 3.6352 9.68345 -26.5226
vn -0.956123 0.112775 0.270389
v 3.66724 9.68089 -26.4266
vn -0.925064 0.110293 0.363446
v 3.70846 9.67723 -26.3342
vn -0.885095 0.106749 0.453003
v 3.75848 9.67251 -26.2464
vn -0.836602 0.102177 0.538198
v 3.81681 9.66678 -26.1638
vn -0.780053 0.096621 0.618209
v 3.88288 9.66009 -26.0874
vn -0.715991 0.0901344 0.692267
v 3.95607 9.65251 -26.0179
vn -0.645033 0.0827798 0.759657
v 4.03567 9.6441 -25.956
vn -0.567864 0.074628 0.819732
v 4.12091 9.63495 -25.9021
vn -0.485226 0.0657574 0.871913
v 4.21096 9.62515 -25.857
vn -0.397915 0.0562536 0.915696
v 4.30497 9.61479 -25.8209
vn -0.306771 0.046208 0.950661
v 4.40203 9.60397 -25.7943
vn -0.212674 0.0357175 0.97647
v 4.5012 9.59279 -25.7774
vn -0.116528 0.0248829 0.992876
v 4.60153 9.58137 -25.7703
vn -0.0192599 0.0138087 0.999719
v 4.70205 9.56981 -25.7732
vn 0.0781937 0.00260151 0.996935
v 4.80179 9.55822 -25.786
vn 0.174894 -0.00863073 0.984549
v 4.89979 9.54672 -25.8085
vn 0.26991 -0.0197798 0.962682
v 4.76431 7.50275 -25.8113
vn 0.362112 -0.0326096 0.931564
v 4.85676 7.49168 -25.853
vn 0.45104 -0.0432632 0.891454
v 4.94469 7.48103 -25.9036
vn 0.535625 -0.0535001 0.84276
v 5.02726 7.47093 -25.9626
vn 0.615051 -0.0632218 0.785948
v 5.10368 7.46145 -26.0296
vn 0.688554 -0.0723347 0.721568
v 5.1732 7.4527 -26.1037
vn 0.755426 -0.0807509 0.650239
v 5.23515 7.44476 -26.1844
vn 0.815023 -0.0883894 0.572647
v 5.28895 7.43771 -26.2708
vn 0.86677 -0.0951768 0.489541
v 5.33407 7.4316 -26.3621
vn 0.91017 -0.101047 0.40172
v 5.37007 7.42651 -26.4574
vn 0.944805 -0.105945 0.31003
v 5.39662 7.42248 -26.5558
vn 0.970341 -0.109822 0.215355
v 5.41345 7.41955 -26.6564
vn 0.986532 -0.112642 0.118606
v 5.42041 7.41775 -26.7582
vn 0.993221 -0.114377 0.0207139
v 5.41742 7.41709 -26.8601
vn 0.990346 -0.11501 -0.0773773
v 5.40451 7.41758 -26.9613
vn 0.977933 -0.114536 -0.174723
v 5.38182 7.41922 -27.0608
vn 0.956102 -0.112958 -0.270387
v 5.34955 7.42199 -27.1575
vn 0.925064 -0.110293 -0.363446
v 5.30802 7.42587 -27.2506
vn 0.885116 -0.106566 -0.453005
v 5.25763 7.43081 -27.3392
vn 0.836644 -0.101812 -0.538202
v 5.19886 7.43677 -27.4224
vn 0.780115 -0.0960778 -0.618215
v 5.13228 7.44369 -27.4994
vn 0.716073 -0.0894184 -0.692274
v 5.05854 7.45151 -27.5694
vn 0.645135 -0.0818978 -0.759667
v 4.97833 7.46015 -27.6319
vn 0.567984 -0.0735884 -0.819743
v 4.89244 7.46952 -27.6862
vn 0.485362 -0.0645704 -0.871925
v 4.80169 7.47955 -27.7317
vn 0.398067 -0.0549305 -0.91571
v 4.70695 7.49012 -27.768
vn 0.306938 -0.0447616 -0.950676
v 4.60914 7.50114 -27.7949
vn 0.212853 -0.0341617 -0.976487
v 4.5092 7.5125 -27.8119
vn 0.116718 -0.0232327 -0.992893
v 4.40809 7.52409 -27.819
vn 0.0194587 -0.01208 -0.999738
v 4.30678 7.53581 -27.8161
vn -0.0779877 -0.000810966 -0.996954
v 4.20626 7.54753 -27.8033
vn -0.174683 0.0104659 -0.984569
v 4.10748 7.55915 -27.7805
vn -0.269696 0.0216419 -0.962702
v 4.01141 7.57055 -27.7482
vn -0.362112 0.0326096 -0.931564
v 3.91896 7.58163 -27.7065
vn -0.45104 0.0432632 -0.891454
v 3.83103 7.59227 -27.6558
vn -0.535625 0.0535001 -0.84276
v 3.74845 7.60238 -27.5968
vn -0.615051 0.0632218 -0.785948
v 3.67204 7.61185 -27.5298
vn -0.688554 0.0723347 -0.721568
v 3.60252 7.6206 -27.4557
vn -0.755426 0.0807509 -0.650239
v 3.54056 7.62854 -27.375
vn -0.815023 0.0883894 -0.572647
v 3.48677 7.6356 -27.2886
vn -0.86677 0.0951768 -0.489541
v 3.44165 7.6417 -27.1973
vn -0.91017 0.101047 -0.40172
v 3.40564 7.64679 -27.102
vn -0.944805 0.105945 -0.31003
v 3.3791 7.65082 -27.0036
vn -0.970341 0.109822 -0.215355
v 3.36227 7.65375 -26.903
vn -0.986532 0.112642 -0.118606
v 3.35531 7.65556 -26.8012
vn -0.993221 0.114377 -0.0207139
v 3.3583 7.65622 -26.6993
vn -0.990346 0.11501 0.0773773
v 3.3712 7.65572 -26.5981
vn -0.977933 0.114536 0.174723
v 3.3939 7.65408 -26.4986
vn -0.956102 0.112958 0.270387
v 3.42617 7.65131 -26.4019
vn -0.925064 0.110293 0.363446
v 3.4677 7.64744 -26.3088
vn -0.885116 0.106566 0.453005
v 3.51809 7.64249 -26.2202
vn -0.836644 0.101812 0.538202
v 3.57685 7.63653 -26.137
vn -0.780115 0.0960778 0.618215
v 3.64343 7.62961 -26.06
vn -0.716073 0.0894184 0.692274
v 3.71718 7.62179 -25.99
vn -0.645135 0.0818978 0.759667
v 3.79739 7.61315 -25.9275
vn -0.567984 0.0735884 0.819743
v 3.88328 7.60378 -25.8733
vn -0.485362 0.0645704 0.871925
v 3.97403 7.59376 -25.8277
vn -0.398067 0.0549305 0.91571
v 4.06877 7.58319 -25.7914
vn -0.306938 0.0447616 0.950676
v 4.16658 7.57217 -25.7646
vn -0.212853 0.0341617 0.976487
v 4.26652 7.5608 -25.7475
vn -0.116718 0.0232327 0.992893
v 4.36763 7.54921 -25.7404
vn -0.0194587 0.01208 0.999738
v 4.46893 7.53749 -25.7433
vn 0.0779877 0.000810966 0.996954
v 4.56946 7.52577 -25.7561
vn 0.174683 -0.0104659 0.984569
v 4.66823 7.51415 -25.7789
vn 0.269696 -0.0216419 0.962702
v 4.53322 5.47987 -25.7856
vn 0.361893 -0.0344986 0.931581
v 4.62639 5.46872 -25.8276
vn 0.450823 -0.0451431 0.891471
v 4.71502 5.45802 -25.8786
vn 0.535411 -0.0553528 0.842776
v 4.79824 5.44788 -25.9381
vn 0.614842 -0.0650295 0.785965
v 4.87526 5.4384 -26.0056
vn 0.688352 -0.0740799 0.721584
v 4.94534 5.42966 -26.0803
vn 0.755233 -0.0824169 0.650254
v 5.00779 5.42176 -26.1616
vn 0.814841 -0.0899601 0.572662
v 5.06202 5.41477 -26.2487
vn 0.866601 -0.096637 0.489554
v 5.10751 5.40875 -26.3407
vn 0.910016 -0.102383 0.401732
v 5.14381 5.40376 -26.4368
vn 0.944666 -0.107143 0.310041
v 5.17058 5.39985 -26.536
vn 0.970219 -0.110872 0.215364
v 5.18757 5.39706 -26.6373
vn 0.986429 -0.113532 0.118614
v 5.1946 5.39542 -26.7399
vn 0.993138 -0.1151 0.0207204
v 5.19161 5.39494 -26.8427
vn 0.990283 -0.115558 -0.0773724
v 5.17862 5.39563 -26.9447
vn 0.977891 -0.114904 -0.17472
v 5.15577 5.39747 -27.0449
vn 0.956081 -0.113143 -0.270385
v 5.12327 5.40046 -27.1424
vn 0.925064 -0.110293 -0.363446
v 5.08144 5.40456 -27.2363
vn 0.885137 -0.106381 -0.453007
v 5.03068 5.40973 -27.3255
vn 0.836687 -0.101443 -0.538205
v 4.97147 5.41593 -27.4094
vn 0.780178 -0.0955295 -0.61822
v 4.90439 5.42309 -27.487
vn 0.716157 -0.0886955 -0.692281
v 4.83009 5.43114 -27.5576
vn 0.645238 -0.0810073 -0.759675
v 4.74927 5.44001 -27.6205
vn 0.568105 -0.072539 -0.819753
v 4.66273 5.44962 -27.6752
vn 0.485501 -0.063372 -0.871936
v 4.57128 5.45986 -27.7211
vn 0.398221 -0.0535948 -0.915722
v 4.47582 5.47065 -27.7577
vn 0.307107 -0.0433014 -0.950689
v 4.37725 5.48187 -27.7847
vn 0.213034 -0.032591 -0.976501
v 4.27654 5.49342 -27.8019
vn 0.11691 -0.0215667 -0.992908
v 4.17465 5.50519 -27.8091
vn 0.0196606 -0.0103348 -0.999753
v 4.07256 5.51706 -27.8062
vn -0.0777786 0.000996714 -0.99697
v 3.97125 5.52892 -27.7932
vn -0.174469 0.0123186 -0.984586
v 3.8717 5.54066 -27.7703
vn -0.269479 0.0235219 -0.962719
v 3.77488 5.55216 -27.7377
vn -0.361893 0.0344986 -0.931581
v 3.6817 5.56331 -27.6957
vn -0.450823 0.0451431 -0.891471
v 3.59308 5.57401 -27.6446
vn -0.535411 0.0553528 -0.842776
v 3.50985 5.58415 -27.5851
vn -0.614842 0.0650295 -0.785965
v 3.43283 5.59363 -27.5177
vn -0.688352 0.0740799 -0.721584
v 3.36276 5.60237 -27.4429
vn -0.755233 0.0824169 -0.650254
v 3.30031 5.61027 -27.3616
vn -0.814841 0.0899601 -0.572662
v 3.24607 5.61727 -27.2745
vn -0.866601 0.096637 -0.489554
v 3.20059 5.62329 -27.1825
vn -0.910016 0.102383 -0.401732
v 3.16428 5.62827 -27.0865
vn -0.944666 0.107143 -0.310041
v 3.13751 5.63218 -26.9873
vn -0.970219 0.110872 -0.215364
v 3.12053 5.63497 -26.8859
vn -0.986429 0.113532 -0.118614
v 3.1135 5.63661 -26.7833
vn -0.993138 0.1151 -0.0207204
v 3.11649 5.63709 -26.6806
vn -0.990283 0.115558 0.0773724
v 3.12947 5.63641 -26.5786
vn -0.977891 0.114904 0.17472
v 3.15232 5.63456 -26.4783
vn -0.956081 0.113143 0.270385
v 3.18482 5.63157 -26.3808
vn -0.925064 0.110293 0.363446
v 3.22665 5.62748 -26.287
vn -0.885137 0.106381 0.453007
v 3.27742 5.6223 -26.1977
vn -0.836687 0.101443 0.538205
v 3.33662 5.61611 -26.1139
vn -0.780178 0.0955295 0.61822
v 3.4037 5.60895 -26.0363
vn -0.716157 0.0886955 0.692281
v 3.47801 5.60089 -25.9657
vn -0.645238 0.0810073 0.759675
v 3.55882 5.59202 -25.9027
vn -0.568105 0.072539 0.819753
v 3.64537 5.58241 -25.8481
vn -0.485501 0.063372 0.871936
v 3.73681 5.57217 -25.8022
vn -0.398221 0.0535948 0.915722
v 3.83228 5.56138 -25.7655
vn -0.307107 0.0433014 0.950689
v 3.93084 5.55016 -25.7385
vn -0.213034 0.032591 0.976501
v 4.03156 5.53861 -25.7213
vn -0.11691 0.0215667 0.992908
v 4.13345 5.52684 -25.7141
vn -0.0196606 0.0103348 0.999753
v 4.23554 5.51497 -25.7171
vn 0.0777786 -0.000996714 0.99697
v 4.33684 5.50311 -25.73
vn 0.174469 -0.0123186 0.984586
v 4.43639 5.49137 -25.7529
vn 0.269479 -0.0235219 0.962719
v 4.30184 3.46678 -25.7636
vn 0.361671 -0.0364058 0.931595
v 4.39574 3.45555 -25.8059
vn 0.450602 -0.0470411 0.891485
v 4.48506 3.4448 -25.8573
vn 0.535193 -0.0572234 0.842789
v 4.56894 3.43463 -25.9173
vn 0.61463 -0.0668546 0.785978
v 4.64656 3.42514 -25.9853
vn 0.688147 -0.0758419 0.721596
v 4.71719 3.41642 -26.0606
vn 0.755038 -0.0840988 0.650266
v 4.78014 3.40856 -26.1426
vn 0.814656 -0.0915459 0.572673
v 4.83481 3.40162 -26.2303
vn 0.86643 -0.0981112 0.489565
v 4.88066 3.39569 -26.323
vn 0.909859 -0.103732 0.401742
v 4.91727 3.39081 -26.4199
vn 0.944526 -0.108353 0.31005
v 4.94427 3.38703 -26.5198
vn 0.970096 -0.111931 0.215372
v 4.9614 3.38439 -26.622
vn 0.986324 -0.114431 0.11862
v 4.96851 3.38292 -26.7253
vn 0.993053 -0.115829 0.0207256
v 4.96551 3.38262 -26.8289
vn 0.990218 -0.116112 -0.0773684
v 4.95245 3.3835 -26.9317
vn 0.977847 -0.115276 -0.174717
v 4.92945 3.38555 -27.0327
vn 0.956059 -0.11333 -0.270384
v 4.89672 3.38876 -27.131
vn 0.925064 -0.110293 -0.363446
v 4.85458 3.39309 -27.2256
vn 0.885159 -0.106194 -0.453008
v 4.80345 3.3985 -27.3155
vn 0.83673 -0.101071 -0.538207
v 4.7438 3.40493 -27.4
vn 0.780243 -0.0949759 -0.618224
v 4.67623 3.41234 -27.4782
vn 0.716242 -0.0879656 -0.692286
v 4.60137 3.42063 -27.5494
vn 0.645343 -0.0801083 -0.759681
v 4.51994 3.42974 -27.6128
vn 0.568228 -0.0714794 -0.81976
v 4.43274 3.43958 -27.6679
vn 0.485642 -0.0621621 -0.871945
v 4.3406 3.45005 -27.7141
vn 0.398378 -0.0522462 -0.915732
v 4.24441 3.46105 -27.7511
vn 0.307278 -0.0418272 -0.9507
v 4.14509 3.47248 -27.7783
vn 0.213219 -0.0310053 -0.976512
v 4.04361 3.48422 -27.7956
vn 0.117106 -0.0198848 -0.99292
v 3.94093 3.49617 -27.8029
vn 0.0198658 -0.00857279 -0.999766
v 3.83806 3.5082 -27.7999
vn -0.0775661 0.00282176 -0.996983
v 3.73597 3.5202 -27.7869
vn -0.174251 0.0141891 -0.984599
v 3.63565 3.53206 -27.7638
vn -0.269258 0.0254199 -0.962733
v 3.53808 3.54366 -27.7309
vn -0.361671 0.0364058 -0.931595
v 3.44418 3.55489 -27.6885
vn -0.450602 0.0470411 -0.891485
v 3.35486 3.56564 -27.6371
vn -0.535193 0.0572234 -0.842789
v 3.27098 3.57581 -27.5771
vn -0.61463 0.0668546 -0.785978
v 3.19335 3.5853 -27.5092
vn -0.688147 0.0758419 -0.721596
v 3.12273 3.59402 -27.4338
vn -0.755038 0.0840988 -0.650266
v 3.05978 3.60188 -27.3519
vn -0.814656 0.0915459 -0.572673
v 3.00511 3.60881 -27.2642
vn -0.86643 0.0981112 -0.489565
v 2.95925 3.61475 -27.1714
vn -0.909859 0.103732 -0.401742
v 2.92265 3.61963 -27.0746
vn -0.944526 0.108353 -0.31005
v 2.89565 3.6234 -26.9746
vn -0.970096 0.111931 -0.215372
v 2.87851 3.62604 -26.8725
vn -0.986324 0.114431 -0.11862
v 2.87141 3.62752 -26.7691
vn -0.993053 0.115829 -0.0207256
v 2.8744 3.62782 -26.6655
vn -0.990218 0.116112 0.0773684
v 2.88746 3.62694 -26.5627
vn -0.977847 0.115276 0.174717
v 2.91047 3.62488 -26.4617
vn -0.956059 0.11333 0.270384
v 2.9432 3.62167 -26.3635
vn -0.925064 0.110293 0.363446
v 2.98533 3.61735 -26.2689
vn -0.885159 0.106194 0.453008
v 3.03647 3.61194 -26.1789
vn -0.83673 0.101071 0.538207
v 3.09611 3.6055 -26.0945
vn -0.780243 0.0949759 0.618224
v 3.16369 3.5981 -26.0163
vn -0.716242 0.0879656 0.692286
v 3.23855 3.5898 -25.9451
vn -0.645343 0.0801083 0.759681
v 3.31998 3.58069 -25.8817
vn -0.568228 0.0714794 0.81976
v 3.40718 3.57085 -25.8266
vn -0.485642 0.0621621 0.871945
v 3.49932 3.56038 -25.7803
vn -0.398378 0.0522462 0.915732
v 3.59551 3.54938 -25.7434
vn -0.307278 0.0418272 0.9507
v 3.69482 3.53796 -25.7161
vn -0.213219 0.0310053 0.976512
v 3.79631 3.52621 -25.6988
vn -0.117106 0.0198848 0.99292
v 3.89898 3.51427 -25.6916
vn -0.0198658 0.00857279 0.999766
v 4.00186 3.50224 -25.6945
vn 0.0775661 -0.00282176 0.996983
v 4.10395 3.49024 -25.7076
vn 0.174251 -0.0141891 0.984599
v 4.20426 3.47838 -25.7307
vn 0.269258 -0.0254199 0.962733
v 4.07018 1.46347 -25.7453
vn 0.361446 -0.0383313 0.931605
v 4.16481 1.45217 -25.788
vn 0.450377 -0.0489574 0.891495
v 4.25482 1.44136 -25.8398
vn 0.534972 -0.0591119 0.8428
v 4.33935 1.43116 -25.9002
vn 0.614414 -0.0686972 0.785988
v 4.41758 1.42167 -25.9687
vn 0.687939 -0.0776209 0.721606
v 4.48876 1.41297 -26.0446
vn 0.754839 -0.085797 0.650275
v 4.55221 1.40515 -26.1272
vn 0.814469 -0.0931469 0.572681
v 4.60731 1.39828 -26.2156
vn 0.866255 -0.0995997 0.489573
v 4.65354 1.39244 -26.3091
vn 0.909699 -0.105093 0.401749
v 4.69044 1.38767 -26.4066
vn 0.944383 -0.109575 0.310056
v 4.71767 1.38402 -26.5074
vn 0.969971 -0.113001 0.215378
v 4.73496 1.38153 -26.6103
vn 0.986218 -0.115339 0.118625
v 4.74214 1.38023 -26.7145
vn 0.992967 -0.116566 0.0207295
v 4.73914 1.38012 -26.8188
vn 0.990153 -0.116671 -0.0773654
v 4.726 1.3812 -26.9224
vn 0.977803 -0.115652 -0.174715
v 4.70284 1.38347 -27.0242
vn 0.956037 -0.113519 -0.270383
v 4.66989 1.3869 -27.1232
vn 0.925064 -0.110293 -0.363446
v 4.62745 1.39147 -27.2185
vn 0.885181 -0.106005 -0.453009
v 4.57594 1.39711 -27.3092
vn 0.836774 -0.100696 -0.538209
v 4.51586 1.4038 -27.3943
vn 0.780308 -0.0944169 -0.618227
v 4.44779 1.41144 -27.4731
vn 0.716328 -0.0872288 -0.69229
v 4.37237 1.41999 -27.5449
vn 0.645449 -0.0792006 -0.759686
v 4.29034 1.42934 -27.6088
vn 0.568354 -0.0704096 -0.819766
v 4.20248 1.43942 -27.6643
vn 0.485785 -0.0609406 -0.871951
v 4.10965 1.45011 -27.7109
vn 0.398538 -0.0508846 -0.915739
v 4.01273 1.46134 -27.7481
vn 0.307453 -0.0403387 -0.950708
v 3.91266 1.47297 -27.7756
vn 0.213407 -0.0294042 -0.976521
v 3.81041 1.48491 -27.793
vn 0.117305 -0.0181866 -0.992929
v 3.70695 1.49703 -27.8003
vn 0.0200741 -0.0067938 -0.999775
v 3.60329 1.50922 -27.7974
vn -0.0773503 0.00466441 -0.996993
v 3.50042 1.52136 -27.7842
vn -0.17403 0.0160777 -0.984609
v 3.39933 1.53334 -27.7609
vn -0.269033 0.0273361 -0.962743
v 3.301 1.54504 -27.7278
vn -0.361446 0.0383313 -0.931605
v 3.20638 1.55635 -27.6851
vn -0.450377 0.0489574 -0.891495
v 3.11637 1.56715 -27.6333
vn -0.534972 0.0591119 -0.8428
v 3.03184 1.57735 -27.5728
vn -0.614414 0.0686972 -0.785988
v 2.95361 1.58685 -27.5043
vn -0.687939 0.0776209 -0.721606
v 2.88242 1.59555 -27.4284
vn -0.754839 0.085797 -0.650275
v 2.81897 1.60337 -27.3459
vn -0.814469 0.0931469 -0.572681
v 2.76387 1.61023 -27.2574
vn -0.866255 0.0995997 -0.489573
v 2.71765 1.61608 -27.164
vn -0.909699 0.105093 -0.401749
v 2.68074 1.62085 -27.0664
vn -0.944383 0.109575 -0.310056
v 2.65352 1.62449 -26.9657
vn -0.969971 0.113001 -0.215378
v 2.63623 1.62698 -26.8627
vn -0.986218 0.115339 -0.118625
v 2.62905 1.62829 -26.7586
vn -0.992967 0.116566 -0.0207295
v 2.63204 1.6284 -26.6542
vn -0.990153 0.116671 0.0773654
v 2.64518 1.62731 -26.5506
vn -0.977803 0.115652 0.174715
v 2.66834 1.62505 -26.4488
vn -0.956037 0.113519 0.270383
v 2.7013 1.62161 -26.3498
vn -0.925064 0.110293 0.363446
v 2.74373 1.61705 -26.2545
vn -0.885181 0.106005 0.453009
v 2.79524 1.6114 -26.1639
vn -0.836774 0.100696 0.538209
v 2.85532 1.60472 -26.0787
vn -0.780308 0.0944169 0.618227
v 2.9234 1.59707 -25.9999
vn -0.716328 0.0872288 0.69229
v 2.99882 1.58853 -25.9282
vn -0.645449 0.0792006 0.759686
v 3.08085 1.57918 -25.8643
vn -0.568354 0.0704096 0.819766
v 3.1687 1.5691 -25.8087
vn -0.485785 0.0609406 0.871951
v 3.26154 1.5584 -25.7622
vn -0.398538 0.0508846 0.915739
v 3.35845 1.54718 -25.7249
vn -0.307453 0.0403387 0.950708
v 3.45852 1.53554 -25.6975
vn -0.213407 0.0294042 0.976521
v 3.56078 1.52361 -25.68
vn -0.117305 0.0181866 0.992929
v 3.66423 1.51149 -25.6727
vn -0.0200741 0.0067938 0.999775
v 3.7679 1.49929 -25.6757
vn 0.0773503 -0.00466441 0.996993
v 3.87077 1.48715 -25.6889
vn 0.17403 -0.0160777 0.984609
v 3.97185 1.47517 -25.7121
vn 0.269033 -0.0273361 0.962743
v 3.83824 -0.530048 -25.7307
vn 0.361217 -0.0402755 0.931612
v 3.93359 -0.541431 -25.7737
vn 0.450149 -0.0508922 0.891502
v 4.02429 -0.552288 -25.8259
vn 0.534747 -0.0610188 0.842806
v 4.10947 -0.562516 -25.8868
vn 0.614195 -0.0705577 0.785994
v 4.18831 -0.572015 -25.9558
vn 0.687727 -0.0794171 0.721612
v 4.26005 -0.580693 -26.0323
vn 0.754637 -0.0875117 0.650281
v 4.324 -0.588469 -26.1155
vn 0.814278 -0.0947634 0.572687
v 4.37954 -0.595265 -26.2046
vn 0.866078 -0.101103 0.489578
v 4.42613 -0.601018 -26.2988
vn 0.909537 -0.106468 0.401754
v 4.46334 -0.605671 -26.3971
vn 0.944237 -0.110808 0.310061
v 4.49079 -0.609181 -26.4986
vn 0.969843 -0.114081 0.215382
v 4.50823 -0.611512 -26.6023
vn 0.98611 -0.116256 0.118628
v 4.51549 -0.612643 -26.7073
vn 0.992879 -0.11731 0.0207321
v 4.51249 -0.612562 -26.8125
vn 0.990086 -0.117235 -0.0773634
v 4.49928 -0.611271 -26.9168
vn 0.977759 -0.116031 -0.174714
v 4.47596 -0.608782 -27.0194
vn 0.956015 -0.11371 -0.270382
v 4.44278 -0.605119 -27.1192
vn 0.925064 -0.110293 -0.363446
v 4.40004 -0.600317 -27.2152
vn 0.885204 -0.105814 -0.45301
v 4.34817 -0.594422 -27.3066
vn 0.836819 -0.100316 -0.538211
v 4.28765 -0.587492 -27.3924
vn 0.780375 -0.0938525 -0.618229
v 4.21907 -0.579592 -27.4718
vn 0.716416 -0.0864848 -0.692293
v 4.1431 -0.5708 -27.544
vn 0.645557 -0.0782841 -0.759689
v 4.06046 -0.561199 -27.6085
vn 0.568481 -0.0693295 -0.81977
v 3.97195 -0.550882 -27.6644
vn 0.48593 -0.0597072 -0.871956
v 3.87843 -0.539949 -27.7114
vn 0.3987 -0.0495099 -0.915744
v 3.78078 -0.528504 -27.7488
vn 0.30763 -0.0388358 -0.950713
v 3.67996 -0.516659 -27.7765
vn 0.213597 -0.0277877 -0.976527
v 3.57694 -0.504526 -27.7941
vn 0.117507 -0.016472 -0.992935
v 3.4727 -0.492224 -27.8015
vn 0.0202858 -0.0049976 -0.999782
v 3.36825 -0.47987 -27.7985
vn -0.077131 0.00652489 -0.997
v 3.2646 -0.467583 -27.7852
vn -0.173805 0.0179845 -0.984616
v 3.16274 -0.455482 -27.7618
vn -0.268805 0.029271 -0.96275
v 3.06366 -0.443683 -27.7284
vn -0.361217 0.0402755 -0.931612
v 2.96831 -0.4323 -27.6854
vn -0.450149 0.0508922 -0.891502
v 2.87761 -0.421443 -27.6332
vn -0.534747 0.0610188 -0.842806
v 2.79243 -0.411216 -27.5722
vn -0.614195 0.0705577 -0.785994
v 2.71359 -0.401717 -27.5032
vn -0.687727 0.0794171 -0.721612
v 2.64185 -0.393038 -27.4267
vn -0.754637 0.0875117 -0.650281
v 2.5779 -0.385263 -27.3435
vn -0.814278 0.0947634 -0.572687
v 2.52236 -0.378466 -27.2544
vn -0.866078 0.101103 -0.489578
v 2.47577 -0.372713 -27.1603
vn -0.909537 0.106468 -0.401754
v 2.43856 -0.36806 -27.062
vn -0.944237 0.110808 -0.310061
v 2.41111 -0.364551 -26.9604
vn -0.969843 0.114081 -0.215382
v 2.39367 -0.362219 -26.8567
vn -0.98611 0.116256 -0.118628
v 2.38641 -0.361089 -26.7517
vn -0.992879 0.11731 -0.0207321
v 2.38941 -0.361169 -26.6466
vn -0.990086 0.117235 0.0773634
v 2.40262 -0.36246 -26.5422
vn -0.977759 0.116031 0.174714
v 2.42594 -0.364949 -26.4396
vn -0.956015 0.11371 0.270382
v 2.45912 -0.368612 -26.3398
vn -0.925064 0.110293 0.363446
v 2.50186 -0.373414 -26.2438
vn -0.885204 0.105814 0.45301
v 2.55374 -0.379309 -26.1525
vn -0.836819 0.100316 0.538211
v 2.61425 -0.386239 -26.0667
vn -0.780375 0.0938525 0.618229
v 2.68283 -0.394139 -25.9873
vn -0.716416 0.0864848 0.692293
v 2.7588 -0.402932 -25.915
vn -0.645557 0.0782841 0.759689
v 2.84144 -0.412532 -25.8506
vn -0.568481 0.0693295 0.81977
v 2.92995 -0.422849 -25.7946
vn -0.48593 0.0597072 0.871956
v 3.02347 -0.433782 -25.7477
vn -0.3987 0.0495099 0.915744
v 3.12112 -0.445227 -25.7102
vn -0.30763 0.0388358 0.950713
v 3.22194 -0.457072 -25.6825
vn -0.213597 0.0277877 0.976527
v 3.32496 -0.469205 -25.6649
vn -0.117507 0.016472 0.992935
v 3.4292 -0.481507 -25.6576
vn -0.0202858 0.0049976 0.999782
v 3.53365 -0.493861 -25.6606
vn 0.077131 -0.00652489 0.997
v 3.6373 -0.506148 -25.6738
vn 0.173805 -0.0179845 0.984616
v 3.73916 -0.518249 -25.6973
vn 0.268805 -0.029271 0.96275
v 3.60601 -2.51378 -25.7198
vn 0.360984 -0.0422386 0.931615
v 3.70208 -2.52524 -25.7631
vn 0.449918 -0.0528458 0.891505
v 3.79348 -2.53615 -25.8157
vn 0.534519 -0.0629441 0.84281
v 3.87932 -2.54641 -25.8771
vn 0.613972 -0.0724362 0.785997
v 3.95876 -2.55591 -25.9466
vn 0.687512 -0.0812307 0.721615
v 4.03106 -2.56456 -26.0237
vn 0.754431 -0.0892429 0.650284
v 4.0955 -2.57229 -26.1075
vn 0.814085 -0.0963957 0.57269
v 4.15148 -2.57901 -26.1973
vn 0.865898 -0.10262 0.48958
v 4.19844 -2.58467 -26.2922
vn 0.909373 -0.107856 0.401756
v 4.23595 -2.58921 -26.3912
vn 0.94409 -0.112054 0.310063
v 4.26363 -2.59257 -26.4935
vn 0.969714 -0.115172 0.215383
v 4.28122 -2.59474 -26.598
vn 0.986 -0.117181 0.11863
v 4.28856 -2.5957 -26.7038
vn 0.99279 -0.118062 0.0207334
v 4.28557 -2.59542 -26.8098
vn 0.990019 -0.117805 -0.0773625
v 4.27227 -2.59392 -26.9149
vn 0.977713 -0.116414 -0.174713
v 4.24881 -2.5912 -27.0183
vn 0.955992 -0.113902 -0.270382
v 4.21539 -2.5873 -27.1188
vn 0.925064 -0.110293 -0.363446
v 4.17236 -2.58226 -27.2156
vn 0.885226 -0.105622 -0.45301
v 4.12011 -2.57611 -27.3076
vn 0.836864 -0.0999335 -0.538211
v 4.05916 -2.56893 -27.3941
vn 0.780442 -0.0932827 -0.61823
v 3.99008 -2.56077 -27.4741
vn 0.716505 -0.0857335 -0.692294
v 3.91356 -2.55172 -27.5469
vn 0.645667 -0.0773587 -0.759691
v 3.83031 -2.54187 -27.6118
vn 0.56861 -0.0682388 -0.819772
v 3.74115 -2.53131 -27.6682
vn 0.486078 -0.0584618 -0.871958
v 3.64693 -2.52014 -27.7155
vn 0.398865 -0.0481218 -0.915746
v 3.54856 -2.50847 -27.7533
vn 0.30781 -0.0373183 -0.950716
v 3.44699 -2.49641 -27.7812
vn 0.213791 -0.0261554 -0.976529
v 3.3432 -2.48408 -27.7989
vn 0.117713 -0.0147407 -0.992938
v 3.23818 -2.47159 -27.8063
vn 0.0205008 -0.00318395 -0.999785
v 3.13295 -2.45907 -27.8033
vn -0.0769083 0.00840344 -0.997003
v 3.02851 -2.44664 -27.7899
vn -0.173577 0.0199099 -0.984619
v 2.92589 -2.43442 -27.7663
vn -0.268574 0.0312246 -0.962753
v 2.82605 -2.42252 -27.7326
vn -0.360984 0.0422386 -0.931615
v 2.72998 -2.41106 -27.6893
vn -0.449918 0.0528458 -0.891505
v 2.63858 -2.40015 -27.6367
vn -0.534519 0.0629441 -0.84281
v 2.55275 -2.3899 -27.5753
vn -0.613972 0.0724362 -0.785997
v 2.4733 -2.3804 -27.5058
vn -0.687512 0.0812307 -0.721615
v 2.401 -2.37174 -27.4287
vn -0.754431 0.0892429 -0.650284
v 2.33656 -2.36401 -27.3449
vn -0.814085 0.0963957 -0.57269
v 2.28058 -2.35729 -27.2551
vn -0.865898 0.10262 -0.48958
v 2.23362 -2.35163 -27.1602
vn -0.909373 0.107856 -0.401756
v 2.19611 -2.3471 -27.0612
vn -0.94409 0.112054 -0.310063
v 2.16843 -2.34373 -26.9589
vn -0.969714 0.115172 -0.215383
v 2.15084 -2.34156 -26.8544
vn -0.986 0.117181 -0.11863
v 2.1435 -2.34061 -26.7486
vn -0.99279 0.118062 -0.0207334
v 2.1465 -2.34088 -26.6426
vn -0.990019 0.117805 0.0773625
v 2.15979 -2.34239 -26.5375
vn -0.977713 0.116414 0.174713
v 2.18326 -2.3451 -26.4341
vn -0.955992 0.113902 0.270382
v 2.21667 -2.349 -26.3336
vn -0.925064 0.110293 0.363446
v 2.2597 -2.35405 -26.2368
vn -0.885226 0.105622 0.45301
v 2.31195 -2.36019 -26.1448
vn -0.836864 0.0999335 0.538211
v 2.3729 -2.36738 -26.0583
vn -0.780442 0.0932827 0.61823
v 2.44198 -2.37553 -25.9783
vn -0.716505 0.0857335 0.692294
v 2.51851 -2.38458 -25.9055
vn -0.645667 0.0773587 0.759691
v 2.60175 -2.39443 -25.8406
vn -0.56861 0.0682388 0.819772
v 2.69091 -2.40499 -25.7842
vn -0.486078 0.0584618 0.871958
v 2.78513 -2.41616 -25.7369
vn -0.398865 0.0481218 0.915746
v 2.8835 -2.42784 -25.6991
vn -0.30781 0.0373183 0.950716
v 2.98507 -2.4399 -25.6712
vn -0.213791 0.0261554 0.976529
v 3.08886 -2.45223 -25.6535
vn -0.117713 0.0147407 0.992938
v 3.19388 -2.46471 -25.6461
vn -0.0205008 0.00318395 0.999785
v 3.29912 -2.47723 -25.6491
vn 0.0769083 -0.00840344 0.997003
v 3.40355 -2.48966 -25.6625
vn 0.173577 -0.0199099 0.984619
v 3.50618 -2.50188 -25.6861
vn 0.268574 -0.0312246 0.962753
v 3.37349 -4.48773 -25.7125
vn 0.360747 -0.0442208 0.931615
v 3.4703 -4.49927 -25.7562
vn 0.449682 -0.0548185 0.891505
v 3.56238 -4.51023 -25.8092
vn 0.534287 -0.0648883 0.842809
v 3.64887 -4.52051 -25.871
vn 0.613746 -0.0743331 0.785997
v 3.72893 -4.53001 -25.9411
vn 0.687294 -0.0830621 0.721615
v 3.80178 -4.53864 -26.0188
vn 0.754223 -0.0909911 0.650284
v 3.86672 -4.54632 -26.1032
vn 0.813888 -0.0980438 0.57269
v 3.92313 -4.55297 -26.1937
vn 0.865716 -0.104152 0.48958
v 3.97047 -4.55852 -26.2893
vn 0.909206 -0.109258 0.401756
v 4.00828 -4.56294 -26.3891
vn 0.94394 -0.113311 0.310063
v 4.03619 -4.56616 -26.4921
vn 0.969583 -0.116273 0.215383
v 4.05394 -4.56816 -26.5974
vn 0.985888 -0.118115 0.118629
v 4.06135 -4.56893 -26.704
vn 0.992699 -0.11882 0.0207332
v 4.05836 -4.56845 -26.8108
vn 0.98995 -0.118381 -0.0773626
v 4.04499 -4.56673 -26.9167
vn 0.977667 -0.116801 -0.174713
v 4.02137 -4.56379 -27.0209
vn 0.955969 -0.114096 -0.270382
v 3.98773 -4.55965 -27.1222
vn 0.925064 -0.110293 -0.363446
v 3.9444 -4.55435 -27.2197
vn 0.88525 -0.105428 -0.45301
v 3.89178 -4.54795 -27.3124
vn 0.83691 -0.0995468 -0.538211
v 3.83039 -4.54051 -27.3995
vn 0.780511 -0.0927073 -0.61823
v 3.76082 -4.53209 -27.4801
vn 0.716595 -0.084975 -0.692294
v 3.68374 -4.52279 -27.5535
vn 0.645778 -0.0764243 -0.759691
v 3.59989 -4.51268 -27.6189
vn 0.568742 -0.0671376 -0.819772
v 3.51007 -4.50186 -27.6757
vn 0.486228 -0.0572043 -0.871958
v 3.41516 -4.49045 -27.7233
vn 0.399032 -0.0467201 -0.915746
v 3.31607 -4.47855 -27.7614
vn 0.307993 -0.035786 -0.950715
v 3.21375 -4.46628 -27.7895
vn 0.213987 -0.0245073 -0.976529
v 3.10919 -4.45374 -27.8073
vn 0.117921 -0.0129925 -0.992938
v 3.00339 -4.44107 -27.8148
vn 0.0207193 -0.00135262 -0.999784
v 2.89737 -4.42839 -27.8118
vn -0.076682 0.0103003 -0.997002
v 2.79215 -4.41581 -27.7983
vn -0.173345 0.021854 -0.984619
v 2.68876 -4.40347 -27.7745
vn -0.268338 0.0331973 -0.962753
v 2.58817 -4.39147 -27.7406
vn -0.360747 0.0442208 -0.931615
v 2.49137 -4.37993 -27.6969
vn -0.449682 0.0548185 -0.891505
v 2.39928 -4.36897 -27.6439
vn -0.534287 0.0648883 -0.842809
v 2.31279 -4.35869 -27.5821
vn -0.613746 0.0743331 -0.785997
v 2.23274 -4.34919 -27.512
vn -0.687294 0.0830621 -0.721615
v 2.15989 -4.34056 -27.4344
vn -0.754223 0.0909911 -0.650284
v 2.09495 -4.33288 -27.3499
vn -0.813888 0.0980438 -0.57269
v 2.03853 -4.32623 -27.2595
vn -0.865716 0.104152 -0.48958
v 1.9912 -4.32068 -27.1639
vn -0.909206 0.109258 -0.401756
v 1.95339 -4.31627 -27.0641
vn -0.94394 0.113311 -0.310063
v 1.92548 -4.31304 -26.961
vn -0.969583 0.116273 -0.215383
v 1.90773 -4.31104 -26.8557
vn -0.985888 0.118115 -0.118629
v 1.90032 -4.31027 -26.7491
vn -0.992699 0.11882 -0.0207332
v 1.90331 -4.31075 -26.6424
vn -0.98995 0.118381 0.0773626
v 1.91668 -4.31247 -26.5364
vn -0.977667 0.116801 0.174713
v 1.9403 -4.31541 -26.4323
vn -0.955969 0.114096 0.270382
v 1.97394 -4.31955 -26.331
vn -0.925064 0.110293 0.363446
v 2.01727 -4.32485 -26.2335
vn -0.88525 0.105428 0.45301
v 2.06989 -4.33125 -26.1407
vn -0.83691 0.0995468 0.538211
v 2.13128 -4.33869 -26.0537
vn -0.780511 0.0927073 0.61823
v 2.20085 -4.34711 -25.973
vn -0.716595 0.084975 0.692294
v 2.27793 -4.35642 -25.8997
vn -0.645778 0.0764243 0.759691
v 2.36178 -4.36652 -25.8343
vn -0.568742 0.0671376 0.819772
v 2.45159 -4.37734 -25.7775
vn -0.486228 0.0572043 0.871958
v 2.5465 -4.38875 -25.7298
vn -0.399032 0.0467201 0.915746
v 2.6456 -4.40065 -25.6918
vn -0.307993 0.035786 0.950715
v 2.74792 -4.41292 -25.6637
vn -0.213987 0.0245073 0.976529
v 2.85248 -4.42546 -25.6458
vn -0.117921 0.0129925 0.992938
v 2.95828 -4.43813 -25.6383
vn -0.0207193 0.00135262 0.999784
v 3.0643 -4.45081 -25.6414
vn 0.076682 -0.0103003 0.997002
v 3.16951 -4.46339 -25.6548
vn 0.173345 -0.021854 0.984619
v 3.27291 -4.47573 -25.6787
vn 0.268338 -0.0331973 0.962753
v 3.14069 -6.4519 -25.709
vn 0.360507 -0.0462224 0.93161
v 3.23822 -6.46351 -25.753
vn 0.449443 -0.0568105 0.891501
v 3.331 -6.47452 -25.8064
vn 0.534051 -0.0668514 0.842805
v 3.41815 -6.48483 -25.8687
vn 0.613516 -0.0762485 0.785993
v 3.49881 -6.49433 -25.9393
vn 0.687072 -0.0849113 0.721611
v 3.57221 -6.50293 -26.0175
vn 0.754011 -0.0927564 0.65028
v 3.63766 -6.51055 -26.1026
vn 0.813688 -0.0997081 0.572686
v 3.69451 -6.51712 -26.1938
vn 0.86553 -0.1057 0.489577
v 3.74222 -6.52258 -26.2901
vn 0.909036 -0.110673 0.401753
v 3.78032 -6.52686 -26.3906
vn 0.943787 -0.114581 0.31006
v 3.80847 -6.52994 -26.4944
vn 0.969449 -0.117385 0.215381
v 3.82637 -6.53177 -26.6005
vn 0.985775 -0.119059 0.118627
v 3.83386 -6.53235 -26.7079
vn 0.992607 -0.119586 0.0207317
v 3.83087 -6.53167 -26.8155
vn 0.98988 -0.118962 -0.0773638
v 3.81743 -6.52972 -26.9222
vn 0.97762 -0.117191 -0.174714
v 3.79366 -6.52655 -27.0271
vn 0.955945 -0.114293 -0.270382
v 3.75979 -6.52216 -27.1292
vn 0.925064 -0.110293 -0.363446
v 3.71616 -6.51661 -27.2274
vn 0.885273 -0.105231 -0.45301
v 3.66317 -6.50995 -27.3208
vn 0.836957 -0.0991563 -0.538211
v 3.60135 -6.50224 -27.4086
vn 0.780581 -0.0921262 -0.618228
v 3.53128 -6.49356 -27.4898
vn 0.716687 -0.084209 -0.692292
v 3.45365 -6.48398 -27.5637
vn 0.645891 -0.0754807 -0.759689
v 3.36919 -6.47362 -27.6296
vn 0.568875 -0.0660255 -0.819769
v 3.27873 -6.46255 -27.6868
vn 0.48638 -0.0559345 -0.871955
v 3.18313 -6.45089 -27.7348
vn 0.399202 -0.0453048 -0.915743
v 3.08331 -6.43876 -27.7732
vn 0.308178 -0.0342388 -0.950712
v 2.98024 -6.42626 -27.8015
vn 0.214187 -0.022843 -0.976526
v 2.87491 -6.41352 -27.8195
vn 0.118133 -0.0112273 -0.992934
v 2.76832 -6.40067 -27.827
vn 0.0209413 0.000496626 -0.999781
v 2.66152 -6.38782 -27.8239
vn -0.0764521 0.0122157 -0.996998
v 2.55553 -6.37509 -27.8104
vn -0.173109 0.0238172 -0.984615
v 2.45136 -6.36262 -27.7864
vn -0.268099 0.0351893 -0.962748
v 2.35002 -6.35052 -27.7522
vn -0.360507 0.0462224 -0.93161
v 2.2525 -6.33891 -27.7083
vn -0.449443 0.0568105 -0.891501
v 2.15972 -6.3279 -27.6549
vn -0.534051 0.0668514 -0.842805
v 2.07257 -6.3176 -27.5926
vn -0.613516 0.0762485 -0.785993
v 1.99191 -6.3081 -27.522
vn -0.687072 0.0849113 -0.721611
v 1.91851 -6.29949 -27.4437
vn -0.754011 0.0927564 -0.65028
v 1.85306 -6.29187 -27.3586
vn -0.813688 0.0997081 -0.572686
v 1.79621 -6.2853 -27.2675
vn -0.86553 0.1057 -0.489577
v 1.7485 -6.27985 -27.1712
vn -0.909036 0.110673 -0.401753
v 1.7104 -6.27556 -27.0706
vn -0.943787 0.114581 -0.31006
v 1.68225 -6.27249 -26.9668
vn -0.969449 0.117385 -0.215381
v 1.66435 -6.27065 -26.8607
vn -0.985775 0.119059 -0.118627
v 1.65686 -6.27007 -26.7534
vn -0.992607 0.119586 -0.0207317
v 1.65985 -6.27076 -26.6458
vn -0.98988 0.118962 0.0773638
v 1.67329 -6.2727 -26.539
vn -0.97762 0.117191 0.174714
v 1.69706 -6.27588 -26.4341
vn -0.955945 0.114293 0.270382
v 1.73093 -6.28026 -26.3321
vn -0.925064 0.110293 0.363446
v 1.77456 -6.28581 -26.2339
vn -0.885273 0.105231 0.45301
v 1.82755 -6.29248 -26.1404
vn -0.836957 0.0991563 0.538211
v 1.88937 -6.30018 -26.0527
vn -0.780581 0.0921262 0.618228
v 1.95943 -6.30887 -25.9715
vn -0.716687 0.084209 0.692292
v 2.03707 -6.31844 -25.8976
vn -0.645891 0.0754807 0.759689
v 2.12153 -6.32881 -25.8317
vn -0.568875 0.0660255 0.819769
v 2.21199 -6.33987 -25.7744
vn -0.48638 0.0559345 0.871955
v 2.30759 -6.35153 -25.7264
vn -0.399202 0.0453048 0.915743
v 2.40741 -6.36366 -25.6881
vn -0.308178 0.0342388 0.950712
v 2.51048 -6.37616 -25.6598
vn -0.214187 0.022843 0.976526
v 2.61581 -6.3889 -25.6418
vn -0.118133 0.0112273 0.992934
v 2.7224 -6.40176 -25.6343
vn -0.0209413 -0.000496626 0.999781
v 2.8292 -6.41461 -25.6373
vn 0.0764521 -0.0122157 0.996998
v 2.93519 -6.42733 -25.6509
vn 0.173109 -0.0238172 0.984615
v 3.03936 -6.4398 -25.6749
vn 0.268099 -0.0351893 0.962748
v 2.90761 -8.40628 -25.7092
vn 0.360263 -0.0482437 0.931602
v 3.00586 -8.41797 -25.7535
vn 0.4492 -0.058822 0.891493
v 3.09934 -8.42903 -25.8073
vn 0.533812 -0.0688338 0.842797
v 3.18713 -8.43936 -25.8701
vn 0.613282 -0.0781827 0.785985
v 3.2684 -8.44885 -25.9412
vn 0.686846 -0.0867787 0.721604
v 3.34237 -8.45743 -26.02
vn 0.753796 -0.094539 0.650273
v 3.40831 -8.46499 -26.1057
vn 0.813485 -0.101389 0.572679
v 3.4656 -8.47148 -26.1975
vn 0.865341 -0.107262 0.489571
v 3.51368 -8.47683 -26.2946
vn 0.908863 -0.112102 0.401747
v 3.55209 -8.48099 -26.3959
vn 0.943632 -0.115863 0.310055
v 3.58046 -8.48391 -26.5004
vn 0.969314 -0.118508 0.215376
v 3.59852 -8.48557 -26.6073
vn 0.98566 -0.120012 0.118624
v 3.60609 -8.48595 -26.7155
vn 0.992514 -0.12036 0.0207286
v 3.6031 -8.48506 -26.8239
vn 0.989809 -0.119548 -0.0773661
v 3.58958 -8.48289 -26.9314
vn 0.977573 -0.117586 -0.174716
v 3.56566 -8.47947 -27.0371
vn 0.955921 -0.114491 -0.270383
v 3.53157 -8.47483 -27.1399
vn 0.925064 -0.110293 -0.363446
v 3.48764 -8.46902 -27.2388
vn 0.885297 -0.105033 -0.453009
v 3.43429 -8.46209 -27.333
vn 0.837005 -0.098762 -0.538209
v 3.37204 -8.45411 -27.4214
vn 0.780652 -0.0915395 -0.618226
v 3.30147 -8.44516 -27.5032
vn 0.716781 -0.0834355 -0.692289
v 3.22329 -8.43532 -27.5776
vn 0.646006 -0.0745279 -0.759685
v 3.13822 -8.42469 -27.644
vn 0.569011 -0.0649026 -0.819765
v 3.04711 -8.41336 -27.7017
vn 0.486535 -0.0546522 -0.87195
v 2.95082 -8.40146 -27.75
vn 0.399374 -0.0438755 -0.915737
v 2.85028 -8.38908 -27.7887
vn 0.308367 -0.0326763 -0.950706
v 2.74646 -8.37636 -27.8172
vn 0.21439 -0.0211624 -0.976519
v 2.64035 -8.36342 -27.8353
vn 0.118348 -0.00944465 -0.992927
v 2.53299 -8.35037 -27.8429
vn 0.0211669 0.00236403 -0.999773
v 2.42541 -8.33735 -27.8398
vn -0.0762184 0.01415 -0.996991
v 2.31863 -8.32448 -27.8261
vn -0.17287 0.0257996 -0.984607
v 2.21369 -8.31189 -27.802
vn -0.267856 0.0372008 -0.96274
v 2.11161 -8.29969 -27.7676
vn -0.360263 0.0482437 -0.931602
v 2.01335 -8.288 -27.7233
vn -0.4492 0.058822 -0.891493
v 1.91988 -8.27694 -27.6695
vn -0.533812 0.0688338 -0.842797
v 1.83208 -8.26661 -27.6067
vn -0.613282 0.0781827 -0.785985
v 1.75081 -8.25712 -27.5356
vn -0.686846 0.0867787 -0.721604
v 1.67685 -8.24854 -27.4568
vn -0.753796 0.094539 -0.650273
v 1.61091 -8.24098 -27.3711
vn -0.813485 0.101389 -0.572679
v 1.55362 -8.23449 -27.2792
vn -0.865341 0.107262 -0.489571
v 1.50554 -8.22914 -27.1822
vn -0.908863 0.112102 -0.401747
v 1.46713 -8.22499 -27.0809
vn -0.943632 0.115863 -0.310055
v 1.43876 -8.22206 -26.9763
vn -0.969314 0.118508 -0.215376
v 1.4207 -8.2204 -26.8694
vn -0.98566 0.120012 -0.118624
v 1.41313 -8.22002 -26.7613
vn -0.992514 0.12036 -0.0207286
v 1.41611 -8.22091 -26.6529
vn -0.989809 0.119548 0.0773661
v 1.42963 -8.22308 -26.5454
vn -0.977573 0.117586 0.174716
v 1.45355 -8.2265 -26.4397
vn -0.955921 0.114491 0.270383
v 1.48764 -8.23114 -26.3369
vn -0.925064 0.110293 0.363446
v 1.53157 -8.23695 -26.2379
vn -0.885297 0.105033 0.453009
v 1.58493 -8.24388 -26.1438
vn -0.837005 0.098762 0.538209
v 1.64718 -8.25186 -26.0554
vn -0.780652 0.0915395 0.618226
v 1.71774 -8.26081 -25.9736
vn -0.716781 0.0834355 0.692289
v 1.79593 -8.27065 -25.8991
vn -0.646006 0.0745279 0.759685
v 1.88099 -8.28128 -25.8327
vn -0.569011 0.0649026 0.819765
v 1.97211 -8.29261 -25.7751
vn -0.486535 0.0546522 0.87195
v 2.0684 -8.30451 -25.7267
vn -0.399374 0.0438755 0.915737
v 2.16894 -8.31689 -25.6881
vn -0.308367 0.0326763 0.950706
v 2.27276 -8.32961 -25.6596
vn -0.21439 0.0211624 0.976519
v 2.37886 -8.34255 -25.6414
vn -0.118348 0.00944465 0.992927
v 2.48622 -8.3556 -25.6339
vn -0.0211669 -0.00236403 0.999773
v 2.59381 -8.36862 -25.637
vn 0.0762184 -0.01415 0.996991
v 2.70059 -8.38149 -25.6506
vn 0.17287 -0.0257996 0.984607
v 2.80552 -8.39408 -25.6748
vn 0.267856 -0.0372008 0.96274
f 1 66 2 
f 1 65 66 
f 2 67 3 
f 2 66 67 
f 3 68 4 
f 3 67 68 
f 4 69 5 
f 4 68 69 
f 5 70 6 
f 5 69 70 
f 6 71 7 
f 6 70 71 
f 7 72 8 
f 7 71 72 
f 8 73 9 
f 8 72 73 
f 9 74 10 
f 9 73 74 
f 10 75 11 
f 10 74 75 
f 11 76 12 
f 11 75 76 
f 12 77 13 
f 12 76 77 
f 13 78 14 
f 13 77 78 
f 14 79 15 
f 14 78 79 
f 15 80 16 
f 15 79 80 
f 16 81 17 
f 16 80 81 
f 17 82 18 
f 17 81 82 
f 18 83 19 
f 18 82 83 
f 19 84 20 
f 19 83 84 
f 20 85 21 
f 20 84 85 
f 21 86 22 
f 21 85 86 
f 22 87 23 
f 22 86 87 
f 23 88 24 
f 23 87 88 
f 24 89 25 
f 24 88 89 
f 25 90 26 
f 25 89 90 
f 26 91 27 
f 26 90 91 
f 27 92 28 
f 27 91 92 
f 28 93 29 
f 28 92 93 
f 29 94 30 
f 29 93 94 
f 30 95 31 
f 30 94 95 
f 31 96 32 
f 31 95 96 
f 32 97 33 
f 32 96 97 
f 33 98 34 
f 33 97 98 
f 34 99 35 
f 34 98 99 
f 35 100 36 
f 35 99 100 
f 36 101 37 
f 36 100 101 
f 37 102 38 
f 37 101 102 
f 38 103 39 
f 38 102 103 
f 39 104 40 
f 39 103 104 
f 40 105 41 
f 40 104 105 
f 41 106 42 
f 41 105 106 
f 42 107 43 
f 42 106 107 
f 43 108 44 
f 43 107 108 
f 44 109 45 
f 44 108 109 
f 45 110 46 
f 45 109 110 
f 46 111 47 
f 46 110 111 
f 47 112 48 
f 47 111 112 
f 48 113 49 
f 48 112 113 
f 49 114 50 
f 49 113 114 
f 50 115 51 
f 50 114 115 
f 51 116 52 
f 51 115 116 
f 52 117 53 
f 52 116 117 
f 53 118 54 
f 53 117 118 
f 54 119 55 
f 54 118 119 
f 55 120 56 
f 55 119 120 
f 56 121 57 
f 56 120 121 
f 57 122 58 
f 57 121 122 
f 58 123 59 
f 58 122 123 
f 59 124 60 
f 59 123 124 
f 60 125 61 
f 60 124 125 
f 61 126 62 
f 61 125 126 
f 62 127 63 
f 62 126 127 
f 63 128 64 
f 63 127 128 
f 64 65 1 
f 64 128 65 
f 65 130 66 
f 65 129 130 
f 66 131 67 
f 66 130 131 
f 67 132 68 
f 67 131 132 
f 68 133 69 
f 68 132 133 
f 69 134 70 
f 69 133 134 
f 70 135 71 
f 70 134 135 
f 71 136 72 
f 71 135 136 
f 72 137 73 
f 72 136 137 
f 73 138 74 
f 73 137 138 
f 74 139 75 
f 74 138 139 
f 75 140 76 
f 75 139 140 
f 76 141 77 
f 76 140 141 
f 77 142 78 
f 77 141 142 
f 78 143 79 
f 78 142 143 
f 79 144 80 
f 79 143 144 
f 80 145 81 
f 80 144 145 
f 81 146 82 
f 81 145 146 
f 82 147 83 
f 82 146 147 
f 83 148 84 
f 83 147 148 
f 84 149 85 
f 84 148 149 
f 85 150 86 
f 85 149 150 
f 86 151 87 
f 86 150 151 
f 87 152 88 
f 87 151 152 
f 88 153 89 
f 88 152 153 
f 89 154 90 
f 89 153 154 
f 90 155 91 
f 90 154 155 
f 91 156 92 
f 91 155 156 
f 92 157 93 
f 92 156 157 
f 93 158 94 
f 93 157 158 
f 94 159 95 
f 94 158 159 
f 95 160 96 
f 95 159 160 
f 96 161 97 
f 96 160 161 
f 97 162 98 
f 97 161 162 
f 98 163 99 
f 98 162 163 
f 99 164 100 
f 99 163 164 
f 100 165 101 
f 100 164 165 
f 101 166 102 
f 101 165 166 
f 102 167 103 
f 102 166 167 
f 103 168 104 
f 103 167 168 
f 104 169 105 
f 104 168 169 
f 105 170 106 
f 105 169 170 
f 106 171 107 
f 106 170 171 
f 107 172 108 
f 107 171 172 
f 108 173 109 
f 108 172 173 
f 109 174 110 
f 109 173 174 
f 110 175 111 
f 110 174 175 
f 111 176 112 
f 111 175 176 
f 112 177 113 
f 112 176 177 
f 113 178 114 
f 113 177 178 
f 114 179 115 
f 114 178 179 
f 115 180 116 
f 115 179 180 
f 116 181 117 
f 116 180 181 
f 117 182 118 
f 117 181 182 
f 118 183 119 
f 118 182 183 
f 119 184 120 
f 119 183 184 
f 120 185 121 
f 120 184 185 
f 121 186 122 
f 121 185 186 
f 122 187 123 
f 122 186 187 
f 123 188 124 
f 123 187 188 
f 124 189 125 
f 124 188 189 
f 125 190 126 
f 125 189 190 
f 126 191 127 
f 126 190 191 
f 127 192 128 
f 127 191 192 
f 128 129 65 
f 128 192 129 
f 129 194 130 
f 129 193 194 
f 130 195 131 
f 130 194 195 
f 131 196 132 
f 131 195 196 
f 132 197 133 
f 132 196 197 
f 133 198 134 
f 133 197 198 
f 134 199 135 
f 134 198 199 
f 135 200 136 
f 135 199 200 
f 136 201 137 
f 136 200 201 
f 137 202 138 
f 137 201 202 
f 138 203 139 
f 138 202 203 
f 139 204 140 
f 139 203 204 
f 140 205 141 
f 140 204 205 
f 141 206 142 
f 141 205 206 
f 142 207 143 
f 142 206 207 
f 143 208 144 
f 143 207 208 
f 144 209 145 
f 144 208 209 
f 145 210 146 
f 145 209 210 
f 146 211 147 
f 146 210 211 
f 147 212 148 
f 147 211 212 
f 148 213 149 
f 148 212 213 
f 149 214 150 
f 149 213 214 
f 150 215 151 
f 150 214 215 
f 151 216 152 
f 151 215 216 
f 152 217 153 
f 152 216 217 
f 153 218 154 
f 153 217 218 
f 154 219 155 
f 154 218 219 
f 155 220 156 
f 155 219 220 
f 156 221 157 
f 156 220 221 
f 157 222 158 
f 157 221 222 
f 158 223 159 
f 158 222 223 
f 159 224 160 
f 159 223 224 
f 160 225 161 
f 160 224 225 
f 161 226 162 
f 161 225 226 
f 162 227 163 
f 162 226 227 
f 163 228 164 
f 163 227 228 
f 164 229 165 
f 164 228 229 
f 165 230 166 
f 165 229 230 
f 166 231 167 
f 166 230 231 
f 167 232 168 
f 167 231 232 
f 168 233 169 
f 168 232 233 
f 169 234 170 
f 169 233 234 
f 170 235 171 
f 170 234 235 
f 171 236 172 
f 171 235 236 
f 172 237 173 
f 172 236 237 
f 173 238 174 
f 173 237 238 
f 174 239 175 
f 174 238 239 
f 175 240 176 
f 175 239 240 
f 176 241 177 
f 176 240 241 
f 177 242 178 
f 177 241 242 
f 178 243 179 
f 178 242 243 
f 179 244 180 
f 179 243 244 
f 180 245 181 
f 180 244 245 
f 181 246 182 
f 181 245 246 
f 182 247 183 
f 182 246 247 
f 183 248 184 
f 183 247 248 
f 184 249 185 
f 184 248 249 
f 185 250 186 
f 185 249 250 
f 186 251 187 
f 186 250 251 
f 187 252 188 
f 187 251 252 
f 188 253 189 
f 188 252 253 
f 189 254 190 
f 189 253 254 
f 190 255 191 
f 190 254 255 
f 191 256 192 
f 191 255 256 
f 192 193 129 
f 192 256 193 
f 193 258 194 
f 193 257 258 
f 194 259 195 
f 194 258 259 
f 195 260 196 
f 195 259 260 
f 196 261 197 
f 196 260 261 
f 197 262 198 
f 197 261 262 
f 198 263 199 
f 198 262 263 
f 199 264 200 
f 199 263 264 
f 200 265 201 
f 200 264 265 
f 201 266 202 
f 201 265 266 
f 202 267 203 
f 202 266 267 
f 203 268 204 
f 203 267 268 
f 204 269 205 
f 204 268 269 
f 205 270 206 
f 205 269 270 
f 206 271 207 
f 206 270 271 
f 207 272 208 
f 207 271 272 
f 208 273 209 
f 208 272 273 
f 209 274 210 
f 209 273 274 
f 210 275 211 
f 210 274 275 
f 211 276 212 
f 211 275 276 
f 212 277 213 
f 212 276 277 
f 213 278 214 
f 213 277 278 
f 214 279 215 
f 214 278 279 
f 215 280 216 
f 215 279 280 
f 216 281 217 
f 216 280 281 
f 217 282 218 
f 217 281 282 
f 218 283 219 
f 218 282 283 
f 219 284 220 
f 219 283 284 
f 220 285 221 
f 220 284 285 
f 221 286 222 
f 221 285 286 
f 222 287 223 
f 222 286 287 
f 223 288 224 
f 223 287 288 
f 224 289 225 
f 224 288 289 
f 225 290 226 
f 225 289 290 
f 226 291 227 
f 226 290 291 
f 227 292 228 
f 227 291 292 
f 228 293 229 
f 228 292 293 
f 229 294 230 
f 229 293 294 
f 230 295 231 
f 230 294 295 
f 231 296 232 
f 231 295 296 
f 232 297 233 
f 232 296 297 
f 233 298 234 
f 233 297 298 
f 234 299 235 
f 234 298 299 
f 235 300 236 
f 235 299 300 
f 236 301 237 
f 236 300 301 
f 237 302 238 
f 237 301 302 
f 238 303 239 
f 238 302 303 
f 239 304 240 
f 239 303 304 
f 240 305 241 
f 240 304 305 
f 241 306 242 
f 241 305 306 
f 242 307 243 
f 242 306 307 
f 243 308 244 
f 243 307 308 
f 244 309 245 
f 244 308 309 
f 245 310 246 
f 245 309 310 
f 246 311 247 
f 246 310 311 
f 247 312 248 
f 247 311 312 
f 248 313 249 
f 248 312 313 
f 249 314 250 
f 249 313 314 
f 250 315 251 
f 250 314 315 
f 251 316 252 
f 251 315 316 
f 252 317 253 
f 252 316 317 
f 253 318 254 
f 253 317 318 
f 254 319 255 
f 254 318 319 
f 255 320 256 
f 255 319 320 
f 256 257 193 
f 256 320 257 
f 257 322 258 
f 257 321 322 
f 258 323 259 
f 258 322 323 
f 259 324 260 
f 259 323 324 
f 260 325 261 
f 260 324 325 
f 261 326 262 
f 261 325 326 
f 262 327 263 
f 262 326 327 
f 263 328 264 
f 263 327 328 
f 264 329 265 
f 264 328 329 
f 265 330 266 
f 265 329 330 
f 266 331 267 
f 266 330 331 
f 267 332 268 
f 267 331 332 
f 268 333 269 
f 268 332 333 
f 269 334 270 
f 269 333 334 
f 270 335 271 
f 270 334 335 
f 271 336 272 
f 271 335 336 
f 272 337 273 
f 272 336 337 
f 273 338 274 
f 273 337 338 
f 274 339 275 
f 274 338 339 
f 275 340 276 
f 275 339 340 
f 276 341 277 
f 276 340 341 
f 277 342 278 
f 277 341 342 
f 278 343 279 
f 278 342 343 
f 279 344 280 
f 279 343 344 
f 280 345 281 
f 280 344 345 
f 281 346 282 
f 281 345 346 
f 282 347 283 
f 282 346 347 
f 283 348 284 
f 283 347 348 
f 284 349 285 
f 284 348 349 
f 285 350 286 
f 285 349 350 
f 286 351 287 
f 286 350 351 
f 287 352 288 
f 287 351 352 
f 288 353 289 
f 288 352 353 
f 289 354 290 
f 289 353 354 
f 290 355 291 
f 290 354 355 
f 291 356 292 
f 291 355 356 
f 292 357 293 
f 292 356 357 
f 293 358 294 
f 293 357 358 
f 294 359 295 
f 294 358 359 
f 295 360 296 
f 295 359 360 
f 296 361 297 
f 296 360 361 
f 297 362 298 
f 297 361 362 
f 298 363 299 
f 298 362 363 
f 299 364 300 
f 299 363 364 
f 300 365 301 
f 300 364 365 
f 301 366 302 
f 301 365 366 
f 302 367 303 
f 302 366 367 
f 303 368 304 
f 303 367 368 
f 304 369 305 
f 304 368 369 
f 305 370 306 
f 305 369 370 
f 306 371 307 
f 306 370 371 
f 307 372 308 
f 307 371 372 
f 308 373 309 
f 308 372 373 
f 309 374 310 
f 309 373 374 
f 310 375 311 
f 310 374 375 
f 311 376 312 
f 311 375 376 
f 312 377 313 
f 312 376 377 
f 313 378 314 
f 313 377 378 
f 314 379 315 
f 314 378 379 
f 315 380 316 
f 315 379 380 
f 316 381 317 
f 316 380 381 
f 317 382 318 
f 317 381 382 
f 318 383 319 
f 318 382 383 
f 319 384 320 
f 319 383 384 
f 320 321 257 
f 320 384 321 
f 321 386 322 
f 321 385 386 
f 322 387 323 
f 322 386 387 
f 323 388 324 
f 323 387 388 
f 324 389 325 
f 324 388 389 
f 325 390 326 
f 325 389 390 
f 326 391 327 
f 326 390 391 
f 327 392 328 
f 327 391 392 
f 328 393 329 
f 328 392 393 
f 329 394 330 
f 329 393 394 
f 330 395 331 
f 330 394 395 
f 331 396 332 
f 331 395 396 
f 332 397 333 
f 332 396 397 
f 333 398 334 
f 333 397 398 
f 334 399 335 
f 334 398 399 
f 335 400 336 
f 335 399 400 
f 336 401 337 
f 336 400 401 
f 337 402 338 
f 337 401 402 
f 338 403 339 
f 338 402 403 
f 339 404 340 
f 339 403 404 
f 340 405 341 
f 340 404 405 
f 341 406 342 
f 341 405 406 
f 342 407 343 
f 342 406 407 
f 343 408 344 
f 343 407 408 
f 344 409 345 
f 344 408 409 
f 345 410 346 
f 345 409 410 
f 346 411 347 
f 346 410 411 
f 347 412 348 
f 347 411 412 
f 348 413 349 
f 348 412 413 
f 349 414 350 
f 349 413 414 
f 350 415 351 
f 350 414 415 
f 351 416 352 
f 351 415 416 
f 352 417 353 
f 352 416 417 
f 353 418 354 
f 353 417 418 
f 354 419 355 
f 354 418 419 
f 355 420 356 
f 355 419 420 
f 356 421 357 
f 356 420 421 
f 357 422 358 
f 357 421 422 
f 358 423 359 
f 358 422 423 
f 359 424 360 
f 359 423 424 
f 360 425 361 
f 360 424 425 
f 361 426 362 
f 361 425 426 
f 362 427 363 
f 362 426 427 
f 363 428 364 
f 363 427 428 
f 364 429 365 
f 364 428 429 
f 365 430 366 
f 365 429 430 
f 366 431 367 
f 366 430 431 
f 367 432 368 
f 367 431 432 
f 368 433 369 
f 368 432 433 
f 369 434 370 
f 369 433 434 
f 370 435 371 
f 370 434 435 
f 371 436 372 
f 371 435 436 
f 372 437 373 
f 372 436 437 
f 373 438 374 
f 373 437 438 
f 374 439 375 
f 374 438 439 
f 375 440 376 
f 375 439 440 
f 376 441 377 
f 376 440 441 
f 377 442 378 
f 377 441 442 
f 378 443 379 
f 378 442 443 
f 379 444 380 
f 379 443 444 
f 380 445 381 
f 380 444 445 
f 381 446 382 
f 381 445 446 
f 382 447 383 
f 382 446 447 
f 383 448 384 
f 383 447 448 
f 384 385 321 
f 384 448 385 
f 385 450 386 
f 385 449 450 
f 386 451 387 
f 386 450 451 
f 387 452 388 
f 387 451 452 
f 388 453 389 
f 388 452 453 
f 389 454 390 
f 389 453 454 
f 390 455 391 
f 390 454 455 
f 391 456 392 
f 391 455 456 
f 392 457 393 
f 392 456 457 
f 393 458 394 
f 393 457 458 
f 394 459 395 
f 394 458 459 
f 395 460 396 
f 395 459 460 
f 396 461 397 
f 396 460 461 
f 397 462 398 
f 397 461 462 
f 398 463 399 
f 398 462 463 
f 399 464 400 
f 399 463 464 
f 400 465 401 
f 400 464 465 
f 401 466 402 
f 401 465 466 
f 402 467 403 
f 402 466 467 
f 403 468 404 
f 403 467 468 
f 404 469 405 
f 404 468 469 
f 405 470 406 
f 405 469 470 
f 406 471 407 
f 406 470 471 
f 407 472 408 
f 407 471 472 
f 408 473 409 
f 408 472 473 
f 409 474 410 
f 409 473 474 
f 410 475 411 
f 410 474 475 
f 411 476 412 
f 411 475 476 
f 412 477 413 
f 412 476 477 
f 413 478 414 
f 413 477 478 
f 414 479 415 
f 414 478 479 
f 415 480 416 
f 415 479 480 
f 416 481 417 
f 416 480 481 
f 417 482 418 
f 417 481 482 
f 418 483 419 
f 418 482 483 
f 419 484 420 
f 419 483 484 
f 420 485 421 
f 420 484 485 
f 421 486 422 
f 421 485 486 
f 422 487 423 
f 422 486 487 
f 423 488 424 
f 423 487 488 
f 424 489 425 
f 424 488 489 
f 425 490 426 
f 425 489 490 
f 426 491 427 
f 426 490 491 
f 427 492 428 
f 427 491 492 
f 428 493 429 
f 428 492 493 
f 429 494 430 
f 429 493 494 
f 430 495 431 
f 430 494 495 
f 431 496 432 
f 431 495 496 
f 432 497 433 
f 432 496 497 
f 433 498 434 
f 433 497 498 
f 434 499 435 
f 434 498 499 
f 435 500 436 
f 435 499 500 
f 436 501 437 
f 436 500 501 
f 437 502 438 
f 437 501 502 
f 438 503 439 
f 438 502 503 
f 439 504 440 
f 439 503 504 
f 440 505 441 
f 440 504 505 
f 441 506 442 
f 441 505 506 
f 442 507 443 
f 442 506 507 
f 443 508 444 
f 443 507 508 
f 444 509 445 
f 444 508 509 
f 445 510 446 
f 445 509 510 
f 446 511 447 
f 446 510 511 
f 447 512 448 
f 447 511 512 
f 448 449 385 
f 448 512 449 
f 449 514 450 
f 449 513 514 
f 450 515 451 
f 450 514 515 
f 451 516 452 
f 451 515 516 
f 452 517 453 
f 452 516 517 
f 453 518 454 
f 453 517 518 
f 454 519 455 
f 454 518 519 
f 455 520 456 
f 455 519 520 
f 456 521 457 
f 456 520 521 
f 457 522 458 
f 457 521 522 
f 458 523 459 
f 458 522 523 
f 459 524 460 
f 459 523 524 
f 460 525 461 
f 460 524 525 
f 461 526 462 
f 461 525 526 
f 462 527 463 
f 462 526 527 
f 463 528 464 
f 463 527 528 
f 464 529 465 
f 464 528 529 
f 465 530 466 
f 465 529 530 
f 466 531 467 
f 466 530 531 
f 467 532 468 
f 467 531 532 
f 468 533 469 
f 468 532 533 
f 469 534 470 
f 469 533 534 
f 470 535 471 
f 470 534 535 
f 471 536 472 
f 471 535 536 
f 472 537 473 
f 472 536 537 
f 473 538 474 
f 473 537 538 
f 474 539 475 
f 474 538 539 
f 475 540 476 
f 475 539 540 
f 476 541 477 
f 476 540 541 
f 477 542 478 
f 477 541 542 
f 478 543 479 
f 478 542 543 
f 479 544 480 
f 479 543 544 
f 480 545 481 
f 480 544 545 
f 481 546 482 
f 481 545 546 
f 482 547 483 
f 482 546 547 
f 483 548 484 
f 483 547 548 
f 484 549 485 
f 484 548 549 
f 485 550 486 
f 485 549 550 
f 486 551 487 
f 486 550 551 
f 487 552 488 
f 487 551 552 
f 488 553 489 
f 488 552 553 
f 489 554 490 
f 489 553 554 
f 490 555 491 
f 490 554 555 
f 491 556 492 
f 491 555 556 
f 492 557 493 
f 492 556 557 
f 493 558 494 
f 493 557 558 
f 494 559 495 
f 494 558 559 
f 495 560 496 
f 495 559 560 
f 496 561 497 
f 496 560 561 
f 497 562 498 
f 497 561 562 
f 498 563 499 
f 498 562 563 
f 499 564 500 
f 499 563 564 
f 500 565 501 
f 500 564 565 
f 501 566 502 
f 501 565 566 
f 502 567 503 
f 502 566 567 
f 503 568 504 
f 503 567 568 
f 504 569 505 
f 504 568 569 
f 505 570 506 
f 505 569 570 
f 506 571 507 
f 506 570 571 
f 507 572 508 
f 507 571 572 
f 508 573 509 
f 508 572 573 
f 509 574 510 
f 509 573 574 
f 510 575 511 
f 510 574 575 
f 511 576 512 
f 511 575 576 
f 512 513 449 
f 512 576 513 
f 513 578 514 
f 513 577 578 
f 514 579 515 
f 514 578 579 
f 515 580 516 
f 515 579 580 
f 516 581 517 
f 516 580 581 
f 517 582 518 
f 517 581 582 
f 518 583 519 
f 518 582 583 
f 519 584 520 
f 519 583 584 
f 520 585 521 
f 520 584 585 
f 521 586 522 
f 521 585 586 
f 522 587 523 
f 522 586 587 
f 523 588 524 
f 523 587 588 
f 524 589 525 
f 524 588 589 
f 525 590 526 
f 525 589 590 
f 526 591 527 
f 526 590 591 
f 527 592 528 
f 527 591 592 
f 528 593 529 
f 528 592 593 
f 529 594 530 
f 529 593 594 
f 530 595 531 
f 530 594 595 
f 531 596 532 
f 531 595 596 
f 532 597 533 
f 532 596 597 
f 533 598 534 
f 533 597 598 
f 534 599 535 
f 534 598 599 
f 535 600 536 
f 535 599 600 
f 536 601 537 
f 536 600 601 
f 537 602 538 
f 537 601 602 
f 538 603 539 
f 538 602 603 
f 539 604 540 
f 539 603 604 
f 540 605 541 
f 540 604 605 
f 541 606 542 
f 541 605 606 
f 542 607 543 
f 542 606 607 
f 543 608 544 
f 543 607 608 
f 544 609 545 
f 544 608 609 
f 545 610 546 
f 545 609 610 
f 546 611 547 
f 546 610 611 
f 547 612 548 
f 547 611 612 
f 548 613 549 
f 548 612 613 
f 549 614 550 
f 549 613 614 
f 550 615 551 
f 550 614 615 
f 551 616 552 
f 551 615 616 
f 552 617 553 
f 552 616 617 
f 553 618 554 
f 553 617 618 
f 554 619 555 
f 554 618 619 
f 555 620 556 
f 555 619 620 
f 556 621 557 
f 556 620 621 
f 557 622 558 
f 557 621 622 
f 558 623 559 
f 558 622 623 
f 559 624 560 
f 559 623 624 
f 560 625 561 
f 560 624 625 
f 561 626 562 
f 561 625 626 
f 562 627 563 
f 562 626 627 
f 563 628 564 
f 563 627 628 
f 564 629 565 
f 564 628 629 
f 565 630 566 
f 565 629 630 
f 566 631 567 
f 566 630 631 
f 567 632 568 
f 567 631 632 
f 568 633 569 
f 568 632 633 
f 569 634 570 
f 569 633 634 
f 570 635 571 
f 570 634 635 
f 571 636 572 
f 571 635 636 
f 572 637 573 
f 572 636 637 
f 573 638 574 
f 573 637 638 
f 574 639 575 
f 574 638 639 
f 575 640 576 
f 575 639 640 
f 576 577 513 
f 576 640 577 
