# Branch
v 0.0 0.0 -1.12321e-16
vn 0.138157 0.988957 0.0536343
v 0.0 0.0 -1.12321e-16
vn 0.0488829 0.998705 0.0140653
v 0.0 0.0 -1.12321e-16
vn -0.0408616 0.998836 -0.0256392
v 0.0 0.0 -1.12321e-16
vn -0.130213 0.989347 -0.0650968
v 0.0 0.0 -1.12321e-16
vn -0.21831 0.97033 -0.103927
v 0.0 0.0 -1.12321e-16
vn -0.304304 0.941968 -0.141757
v 0.0 0.0 -1.12321e-16
vn -0.387368 0.904535 -0.178222
v 0.0 0.0 -1.12321e-16
vn -0.466702 0.85839 -0.21297
v 0.0 0.0 -1.12321e-16
vn -0.54154 0.803979 -0.245667
v 0.0 0.0 -1.12321e-16
vn -0.611164 0.741825 -0.275999
v 0.0 0.0 -1.12321e-16
vn -0.674901 0.672526 -0.303672
v 0.0 0.0 -1.12321e-16
vn -0.732139 0.596751 -0.328421
v 0.0 0.0 -1.12321e-16
vn -0.782326 0.515229 -0.350006
v 0.0 0.0 -1.12321e-16
vn -0.824979 0.428745 -0.368222
v 0.0 0.0 -1.12321e-16
vn -0.859687 0.338132 -0.38289
v 0.0 0.0 -1.12321e-16
vn -0.886116 0.244262 -0.393872
v 0.0 0.0 -1.12321e-16
vn -0.90401 0.14804 -0.40106
v 0.0 0.0 -1.12321e-16
vn -0.913199 0.0503928 -0.404386
v 0.0 0.0 -1.12321e-16
vn -0.913593 -0.0477401 -0.403818
v 0.0 0.0 -1.12321e-16
vn -0.905189 -0.145413 -0.39936
v 0.0 0.0 -1.12321e-16
vn -0.888067 -0.241686 -0.391056
v 0.0 0.0 -1.12321e-16
vn -0.862393 -0.335631 -0.378987
v 0.0 0.0 -1.12321e-16
vn -0.828413 -0.426344 -0.363267
v 0.0 0.0 -1.12321e-16
vn -0.786455 -0.512951 -0.344049
v 0.0 0.0 -1.12321e-16
vn -0.736923 -0.594618 -0.321518
v 0.0 0.0 -1.12321e-16
vn -0.680295 -0.670558 -0.29589
v 0.0 0.0 -1.12321e-16
vn -0.617114 -0.740041 -0.267412
v 0.0 0.0 -1.12321e-16
vn -0.547991 -0.802396 -0.23636
v 0.0 0.0 -1.12321e-16
vn -0.47359 -0.857025 -0.203031
v 0.0 0.0 -1.12321e-16
vn -0.394628 -0.903399 -0.167746
v 0.0 0.0 -1.12321e-16
vn -0.311866 -0.941073 -0.130847
v 0.0 0.0 -1.12321e-16
vn -0.2261 -0.969684 -0.0926868
v 0.0 0.0 -1.12321e-16
vn -0.138157 -0.988957 -0.0536343
v 0.0 0.0 -1.12321e-16
vn -0.0488829 -0.998705 -0.0140653
v 0.0 0.0 -1.12321e-16
vn 0.0408616 -0.998836 0.0256392
v 0.0 0.0 -1.12321e-16
vn 0.130213 -0.989347 0.0650968
v 0.0 0.0 -1.12321e-16
vn 0.21831 -0.97033 0.103927
v 0.0 0.0 -1.12321e-16
vn 0.304304 -0.941968 0.141757
v 0.0 0.0 -1.12321e-16
vn 0.387368 -0.904535 0.178222
v 0.0 0.0 -1.12321e-16
vn 0.466702 -0.85839 0.21297
v 0.0 0.0 -1.12321e-16
vn 0.54154 -0.803979 0.245667
v 0.0 0.0 -1.12321e-16
vn 0.611164 -0.741825 0.275999
v 0.0 0.0 -1.12321e-16
vn 0.674901 -0.672526 0.303672
v 0.0 0.0 -1.12321e-16
vn 0.732139 -0.596751 0.328421
v 0.0 0.0 -1.12321e-16
vn 0.782326 -0.515229 0.350006
v 0.0 0.0 -1.12321e-16
vn 0.824979 -0.428745 0.368222
v 0.0 0.0 -1.12321e-16
vn 0.859687 -0.338132 0.38289
v 0.0 0.0 -1.12321e-16
vn 0.886116 -0.244262 0.393872
v 0.0 0.0 -1.12321e-16
vn 0.90401 -0.14804 0.40106
v 0.0 0.0 -1.12321e-16
vn 0.913199 -0.0503928 0.404386
v 0.0 0.0 -1.12321e-16
vn 0.913593 0.0477401 0.403818
v 0.0 0.0 -1.12321e-16
vn 0.905189 0.145413 0.39936
v 0.0 0.0 -1.12321e-16
vn 0.888067 0.241686 0.391056
v 0.0 0.0 -1.12321e-16
vn 0.862393 0.335631 0.378987
v 0.0 0.0 -1.12321e-16
vn 0.828413 0.426344 0.363267
v 0.0 0.0 -1.12321e-16
vn 0.786455 0.512951 0.344049
v 0.0 0.0 -1.12321e-16
vn 0.736923 0.594618 0.321518
v 0.0 0.0 -1.12321e-16
vn 0.680295 0.670558 0.29589
v 0.0 0.0 -1.12321e-16
vn 0.617114 0.740041 0.267412
v 0.0 0.0 -1.12321e-16
vn 0.547991 0.802396 0.23636
v 0.0 0.0 -1.12321e-16
vn 0.47359 0.857025 0.203031
v 0.0 0.0 -1.12321e-16
vn 0.394628 0.903399 0.167746
v 0.0 0.0 -1.12321e-16
vn 0.311866 0.941073 0.130847
v 0.0 0.0 -1.12321e-16
vn 0.2261 0.969684 0.0926868
v 2.53911 -0.110481 -5.76406
vn 0.153155 0.98801 0.0194781
v 2.53527 -0.110062 -5.76576
vn 0.0638089 0.997763 -0.0199264
v 2.53141 -0.110056 -5.76744
vn -0.0261516 0.997907 -0.0591391
v 2.52756 -0.110463 -5.7691
vn -0.11586 0.988441 -0.0977822
v 2.52375 -0.111278 -5.77072
vn -0.204453 0.969455 -0.135484
v 2.52003 -0.112494 -5.77228
vn -0.291077 0.941133 -0.17188
v 2.51643 -0.1141 -5.77377
vn -0.374898 0.903747 -0.206622
v 2.51299 -0.116079 -5.77518
vn -0.455108 0.857658 -0.239373
v 2.50973 -0.118413 -5.77649
vn -0.530935 0.803309 -0.269819
v 2.50669 -0.121079 -5.77768
vn -0.601649 0.741224 -0.297667
v 2.50391 -0.124052 -5.77876
vn -0.666569 0.672 -0.322648
v 2.50139 -0.127303 -5.7797
vn -0.725069 0.596305 -0.344522
v 2.49918 -0.1308 -5.78049
vn -0.776587 0.514867 -0.363077
v 2.49729 -0.134511 -5.78114
vn -0.820625 0.42847 -0.378137
v 2.49574 -0.138398 -5.78163
vn -0.856761 0.337947 -0.389554
v 2.49454 -0.142426 -5.78196
vn -0.884645 0.24417 -0.39722
v 2.49371 -0.146554 -5.78212
vn -0.90401 0.14804 -0.40106
v 2.49325 -0.150743 -5.78212
vn -0.914669 0.0504857 -0.401038
v 2.49317 -0.154954 -5.78196
vn -0.916519 -0.0475553 -0.397154
v 2.49347 -0.159145 -5.78163
vn -0.909542 -0.145138 -0.389445
v 2.49415 -0.163275 -5.78113
vn -0.893806 -0.241324 -0.377985
v 2.49519 -0.167306 -5.78049
vn -0.869463 -0.335185 -0.362886
v 2.4966 -0.171199 -5.77969
vn -0.836745 -0.425818 -0.344291
v 2.49835 -0.174915 -5.77875
vn -0.79597 -0.51235 -0.322381
v 2.50043 -0.178419 -5.77767
vn -0.747529 -0.593948 -0.297366
v 2.50282 -0.181678 -5.77647
vn -0.691888 -0.669826 -0.269487
v 2.50549 -0.184659 -5.77517
vn -0.629585 -0.739254 -0.239013
v 2.50843 -0.187335 -5.77376
vn -0.561218 -0.801561 -0.206237
v 2.5116 -0.189679 -5.77227
vn -0.487446 -0.85615 -0.171475
v 2.51497 -0.191669 -5.7707
vn -0.40898 -0.902493 -0.135061
v 2.51851 -0.193286 -5.76908
vn -0.326576 -0.940145 -0.0973468
v 2.52218 -0.194515 -5.76742
vn -0.241026 -0.968742 -0.0586951
v 2.52596 -0.195342 -5.76574
vn -0.153155 -0.98801 -0.0194781
v 2.52979 -0.195761 -5.76405
vn -0.0638089 -0.997763 0.0199264
v 2.53366 -0.195767 -5.76236
vn 0.0261516 -0.997907 0.0591391
v 2.53751 -0.195361 -5.7607
vn 0.11586 -0.988441 0.0977822
v 2.54131 -0.194545 -5.75908
vn 0.204453 -0.969455 0.135484
v 2.54503 -0.193329 -5.75752
vn 0.291077 -0.941133 0.17188
v 2.54863 -0.191723 -5.75603
vn 0.374898 -0.903747 0.206622
v 2.55208 -0.189744 -5.75462
vn 0.455108 -0.857658 0.239373
v 2.55533 -0.18741 -5.75331
vn 0.530935 -0.803309 0.269819
v 2.55837 -0.184744 -5.75212
vn 0.601649 -0.741224 0.297667
v 2.56116 -0.181771 -5.75104
vn 0.666569 -0.672 0.322648
v 2.56367 -0.17852 -5.75011
vn 0.725069 -0.596305 0.344522
v 2.56588 -0.175023 -5.74931
vn 0.776587 -0.514867 0.363077
v 2.56777 -0.171312 -5.74866
vn 0.820625 -0.42847 0.378137
v 2.56933 -0.167425 -5.74817
vn 0.856761 -0.337947 0.389554
v 2.57052 -0.163398 -5.74784
vn 0.884645 -0.24417 0.39722
v 2.57136 -0.159269 -5.74768
vn 0.90401 -0.14804 0.40106
v 2.57181 -0.15508 -5.74768
vn 0.914669 -0.0504857 0.401038
v 2.57189 -0.150869 -5.74785
vn 0.916519 0.0475553 0.397154
v 2.57159 -0.146679 -5.74818
vn 0.909542 0.145138 0.389445
v 2.57092 -0.142548 -5.74867
vn 0.893806 0.241324 0.377985
v 2.56987 -0.138517 -5.74932
vn 0.869463 0.335185 0.362886
v 2.56847 -0.134625 -5.75012
vn 0.836745 0.425818 0.344291
v 2.56672 -0.130909 -5.75106
vn 0.79597 0.51235 0.322381
v 2.56464 -0.127404 -5.75213
vn 0.747529 0.593948 0.297366
v 2.56225 -0.124146 -5.75333
vn 0.691888 0.669826 0.269487
v 2.55957 -0.121164 -5.75464
vn 0.629585 0.739254 0.239013
v 2.55663 -0.118488 -5.75604
vn 0.561218 0.801561 0.206237
v 2.55347 -0.116144 -5.75754
vn 0.487446 0.85615 0.171475
v 2.5501 -0.114154 -5.7591
vn 0.40898 0.902493 0.135061
v 2.54656 -0.112537 -5.76072
vn 0.326576 0.940145 0.0973468
v 2.54288 -0.111309 -5.76238
vn 0.241026 0.968742 0.0586951
v 4.7447 -0.434653 -10.8552
vn 0.172139 0.984768 -0.0245096
v 4.73701 -0.433814 -10.8586
vn 0.0827014 0.994536 -0.0637023
v 4.72926 -0.433798 -10.8619
vn -0.00753245 0.994727 -0.102282
v 4.72152 -0.434604 -10.8651
vn -0.0976938 0.985338 -0.139876
v 4.71386 -0.436226 -10.8683
vn -0.186914 0.966459 -0.176123
v 4.70635 -0.438647 -10.8712
vn -0.274335 0.938273 -0.210674
v 4.69907 -0.441844 -10.874
vn -0.359113 0.901051 -0.243196
v 4.69208 -0.445786 -10.8766
vn -0.440433 0.855152 -0.273376
v 4.68546 -0.450436 -10.879
vn -0.517511 0.801016 -0.300923
v 4.67927 -0.455748 -10.8811
vn -0.589606 0.739167 -0.325572
v 4.67356 -0.461672 -10.8829
vn -0.656022 0.670199 -0.347086
v 4.6684 -0.46815 -10.8845
vn -0.71612 0.594776 -0.365257
v 4.66383 -0.47512 -10.8858
vn -0.769322 0.513626 -0.379911
v 4.6599 -0.482515 -10.8867
vn -0.815115 0.427529 -0.390906
v 4.65664 -0.490264 -10.8873
vn -0.853057 0.337315 -0.398136
v 4.65409 -0.498291 -10.8876
vn -0.882785 0.243852 -0.401531
v 4.65226 -0.50652 -10.8876
vn -0.90401 0.14804 -0.40106
v 4.65119 -0.514872 -10.8872
vn -0.91653 0.0508035 -0.396727
v 4.65087 -0.523266 -10.8865
vn -0.920223 -0.0469228 -0.388572
v 4.65132 -0.531621 -10.8855
vn -0.915053 -0.144197 -0.376676
v 4.65252 -0.539857 -10.8841
vn -0.901071 -0.240083 -0.361152
v 4.65446 -0.547894 -10.8825
vn -0.878412 -0.333656 -0.34215
v 4.65714 -0.555655 -10.8806
vn -0.847292 -0.424017 -0.319853
v 4.66051 -0.563065 -10.8784
vn -0.808013 -0.510293 -0.294475
v 4.66455 -0.570054 -10.876
vn -0.760952 -0.591656 -0.266262
v 4.66922 -0.576552 -10.8733
vn -0.706563 -0.66732 -0.235484
v 4.67448 -0.582499 -10.8705
vn -0.645369 -0.736558 -0.202438
v 4.68027 -0.587837 -10.8675
vn -0.57796 -0.798702 -0.167443
v 4.68654 -0.592514 -10.8644
vn -0.504985 -0.853154 -0.130835
v 4.69322 -0.596485 -10.8611
vn -0.427147 -0.89939 -0.0929675
v 4.70026 -0.599712 -10.8578
vn -0.345195 -0.936964 -0.0542043
v 4.70759 -0.602165 -10.8544
vn -0.259918 -0.965515 -0.0149192
v 4.71513 -0.603818 -10.851
vn -0.172139 -0.984768 0.0245096
v 4.72281 -0.604657 -10.8477
vn -0.0827014 -0.994536 0.0637023
v 4.73056 -0.604674 -10.8443
vn 0.00753245 -0.994727 0.102282
v 4.7383 -0.603867 -10.8411
vn 0.0976938 -0.985338 0.139876
v 4.74597 -0.602246 -10.838
vn 0.186914 -0.966459 0.176123
v 4.75347 -0.599825 -10.835
vn 0.274335 -0.938273 0.210674
v 4.76076 -0.596628 -10.8322
vn 0.359113 -0.901051 0.243196
v 4.76774 -0.592685 -10.8296
vn 0.440433 -0.855152 0.273376
v 4.77436 -0.588036 -10.8273
vn 0.517511 -0.801016 0.300923
v 4.78055 -0.582723 -10.8252
vn 0.589606 -0.739167 0.325572
v 4.78626 -0.5768 -10.8233
vn 0.656022 -0.670199 0.347086
v 4.79142 -0.570322 -10.8218
vn 0.71612 -0.594776 0.365257
v 4.79599 -0.563351 -10.8205
vn 0.769322 -0.513626 0.379911
v 4.79992 -0.555957 -10.8195
vn 0.815115 -0.427529 0.390906
v 4.80318 -0.548208 -10.8189
vn 0.853057 -0.337315 0.398136
v 4.80573 -0.54018 -10.8186
vn 0.882785 -0.243852 0.401531
v 4.80756 -0.531951 -10.8187
vn 0.90401 -0.14804 0.40106
v 4.80863 -0.523599 -10.819
vn 0.91653 -0.0508035 0.396727
v 4.80895 -0.515206 -10.8197
vn 0.920223 0.0469228 0.388572
v 4.80851 -0.506851 -10.8208
vn 0.915053 0.144197 0.376676
v 4.8073 -0.498615 -10.8221
vn 0.901071 0.240083 0.361152
v 4.80536 -0.490578 -10.8237
vn 0.878412 0.333656 0.34215
v 4.80269 -0.482817 -10.8257
vn 0.847292 0.424017 0.319853
v 4.79931 -0.475406 -10.8278
vn 0.808013 0.510293 0.294475
v 4.79527 -0.468418 -10.8303
vn 0.760952 0.591656 0.266262
v 4.7906 -0.461919 -10.8329
vn 0.706563 0.66732 0.235484
v 4.78534 -0.455972 -10.8357
vn 0.645369 0.736558 0.202438
v 4.77955 -0.450635 -10.8387
vn 0.57796 0.798702 0.167443
v 4.77328 -0.445958 -10.8419
vn 0.504985 0.853154 0.130835
v 4.7666 -0.441986 -10.8451
vn 0.427147 0.89939 0.0929675
v 4.75956 -0.438759 -10.8485
vn 0.345195 0.936964 0.0542043
v 4.75224 -0.436307 -10.8518
vn 0.259918 0.965515 0.0149192
v 6.61748 -0.973105 -15.2753
vn 0.196719 0.976957 -0.0827986
v 6.60594 -0.971842 -15.2803
vn 0.107164 0.986764 -0.121711
v 6.59427 -0.971803 -15.2852
vn 0.0165759 0.987067 -0.159451
v 6.58258 -0.972988 -15.2899
vn -0.0741715 0.977864 -0.195655
v 6.57098 -0.975387 -15.2943
vn -0.164205 0.959244 -0.229975
v 6.55958 -0.978976 -15.2984
vn -0.252656 0.931385 -0.26208
v 6.5485 -0.983721 -15.3022
vn -0.338675 0.894557 -0.291662
v 6.53784 -0.989576 -15.3057
vn -0.421432 0.849114 -0.318434
v 6.5277 -0.996484 -15.3087
vn -0.50013 0.795494 -0.34214
v 6.51818 -1.00438 -15.3114
vn -0.574012 0.734212 -0.362551
v 6.50938 -1.01319 -15.3136
vn -0.642366 0.66586 -0.37947
v 6.50137 -1.02282 -15.3153
vn -0.704533 0.591095 -0.392735
v 6.49423 -1.03318 -15.3165
vn -0.759915 0.510637 -0.402217
v 6.48804 -1.04418 -15.3172
vn -0.807979 0.425262 -0.407826
v 6.48285 -1.05571 -15.3174
vn -0.848262 0.335791 -0.409507
v 6.47871 -1.06765 -15.3171
vn -0.880375 0.243086 -0.407245
v 6.47567 -1.0799 -15.3163
vn -0.90401 0.14804 -0.40106
v 6.47374 -1.09233 -15.315
vn -0.918939 0.051569 -0.391013
v 6.47296 -1.10482 -15.3133
vn -0.925018 -0.0453991 -0.377201
v 6.47332 -1.11726 -15.311
vn -0.922189 -0.14193 -0.359756
v 6.47483 -1.12952 -15.3083
vn -0.910478 -0.237094 -0.338846
v 6.47747 -1.14149 -15.3052
vn -0.889999 -0.329975 -0.314673
v 6.48121 -1.15304 -15.3017
vn -0.860949 -0.419677 -0.287469
v 6.48602 -1.16408 -15.2978
vn -0.823607 -0.505338 -0.257497
v 6.49186 -1.17449 -15.2937
vn -0.778334 -0.586133 -0.225045
v 6.49866 -1.18417 -15.2892
vn -0.725564 -0.661282 -0.190426
v 6.50635 -1.19303 -15.2845
vn -0.665808 -0.730064 -0.153973
v 6.51488 -1.20099 -15.2796
vn -0.599639 -0.791814 -0.116037
v 6.52415 -1.20796 -15.2746
vn -0.527695 -0.845938 -0.0769832
v 6.53407 -1.21388 -15.2695
vn -0.450669 -0.891916 -0.0371883
v 6.54456 -1.2187 -15.2643
vn -0.369303 -0.929304 0.0029647
v 6.5555 -1.22236 -15.2591
vn -0.284381 -0.957743 0.0430892
v 6.56679 -1.22484 -15.254
vn -0.196719 -0.976957 0.0827986
v 6.57833 -1.2261 -15.249
vn -0.107164 -0.986764 0.121711
v 6.59 -1.22614 -15.2441
vn -0.0165759 -0.987067 0.159451
v 6.60169 -1.22496 -15.2395
vn 0.0741715 -0.977864 0.195655
v 6.61329 -1.22256 -15.235
vn 0.164205 -0.959244 0.229975
v 6.62469 -1.21897 -15.2309
vn 0.252656 -0.931385 0.26208
v 6.63577 -1.21422 -15.2271
vn 0.338675 -0.894557 0.291662
v 6.64643 -1.20837 -15.2236
vn 0.421432 -0.849114 0.318434
v 6.65657 -1.20146 -15.2206
vn 0.50013 -0.795494 0.34214
v 6.66609 -1.19357 -15.218
vn 0.574012 -0.734212 0.362551
v 6.67489 -1.18476 -15.2158
vn 0.642366 -0.66586 0.37947
v 6.6829 -1.17513 -15.2141
vn 0.704533 -0.591095 0.392735
v 6.69004 -1.16476 -15.2128
vn 0.759915 -0.510637 0.402217
v 6.69623 -1.15376 -15.2121
vn 0.807979 -0.425262 0.407826
v 6.70142 -1.14223 -15.2119
vn 0.848262 -0.335791 0.409507
v 6.70556 -1.13029 -15.2122
vn 0.880375 -0.243086 0.407245
v 6.7086 -1.11805 -15.213
vn 0.90401 -0.14804 0.40106
v 6.71053 -1.10562 -15.2143
vn 0.918939 -0.051569 0.391013
v 6.71131 -1.09312 -15.2161
vn 0.925018 0.0453991 0.377201
v 6.71095 -1.08069 -15.2183
vn 0.922189 0.14193 0.359756
v 6.70944 -1.06843 -15.221
vn 0.910478 0.237094 0.338846
v 6.7068 -1.05646 -15.2241
vn 0.889999 0.329975 0.314673
v 6.70306 -1.0449 -15.2276
vn 0.860949 0.419677 0.287469
v 6.69825 -1.03387 -15.2315
vn 0.823607 0.505338 0.257497
v 6.69241 -1.02346 -15.2357
vn 0.778334 0.586133 0.225045
v 6.68561 -1.01378 -15.2401
vn 0.725564 0.661282 0.190426
v 6.67792 -1.00491 -15.2448
vn 0.665808 0.730064 0.153973
v 6.66939 -0.996958 -15.2497
vn 0.599639 0.791814 0.116037
v 6.66012 -0.989985 -15.2547
vn 0.527695 0.845938 0.0769832
v 6.6502 -0.984061 -15.2599
vn 0.450669 0.891916 0.0371883
v 6.63971 -0.979245 -15.265
vn 0.369303 0.929304 -0.0029647
v 6.62877 -0.975581 -15.2702
vn 0.284381 0.957743 -0.0430892
v 8.15859 -1.72726 -19.0274
vn 0.229253 0.959707 -0.162498
v 8.14318 -1.72556 -19.0341
vn 0.139541 0.969596 -0.201027
v 8.12753 -1.72547 -19.0403
vn 0.0484843 0.970148 -0.237619
v 8.11181 -1.72698 -19.0462
vn -0.0430389 0.961356 -0.271923
v 8.09616 -1.73008 -19.0517
vn -0.134148 0.943306 -0.303608
v 8.08073 -1.73474 -19.0566
vn -0.223964 0.916172 -0.332369
v 8.06567 -1.74092 -19.061
vn -0.311624 0.880214 -0.35793
v 8.05113 -1.74855 -19.0648
vn -0.396283 0.835779 -0.380043
v 8.03724 -1.75757 -19.068
vn -0.477125 0.783296 -0.398496
v 8.02415 -1.76788 -19.0705
vn -0.553373 0.723268 -0.413112
v 8.01196 -1.77939 -19.0723
vn -0.624291 0.656276 -0.423749
v 8.00081 -1.79198 -19.0734
vn -0.689197 0.582963 -0.430305
v 7.9908 -1.80554 -19.0739
vn -0.747465 0.504035 -0.432717
v 7.98203 -1.81993 -19.0736
vn -0.798535 0.420254 -0.430962
v 7.97458 -1.83502 -19.0725
vn -0.841915 0.332425 -0.425056
v 7.96852 -1.85065 -19.0708
vn -0.877187 0.241395 -0.415057
v 7.96391 -1.86669 -19.0684
vn -0.90401 0.14804 -0.40106
v 7.9608 -1.88297 -19.0654
vn -0.922128 0.0532599 -0.383201
v 7.95921 -1.89934 -19.0617
vn -0.931365 -0.0420336 -0.361652
v 7.95917 -1.91564 -19.0574
vn -0.931633 -0.136922 -0.33662
v 7.96066 -1.93172 -19.0525
vn -0.922928 -0.230492 -0.308346
v 7.96368 -1.94741 -19.0471
vn -0.905335 -0.321843 -0.277102
v 7.9682 -1.96257 -19.0413
vn -0.879023 -0.410093 -0.24319
v 7.97418 -1.97705 -19.0351
vn -0.844246 -0.494395 -0.206936
v 7.98155 -1.99071 -19.0285
vn -0.801338 -0.573935 -0.168689
v 7.99025 -2.00343 -19.0217
vn -0.750713 -0.647948 -0.128817
v 8.00018 -2.01507 -19.0146
vn -0.692858 -0.71572 -0.0877046
v 8.01127 -2.02553 -19.0074
vn -0.628331 -0.7766 -0.0457476
v 8.02339 -2.0347 -19.0001
vn -0.557752 -0.830001 -0.00335008
v 8.03644 -2.0425 -18.9928
vn -0.481802 -0.875408 0.0390797
v 8.05028 -2.04885 -18.9856
vn -0.401212 -0.912385 0.0811332
v 8.06479 -2.0537 -18.9785
vn -0.316758 -0.940575 0.122405
v 8.07982 -2.05698 -18.9716
vn -0.229253 -0.959707 0.162498
v 8.09523 -2.05868 -18.965
vn -0.139541 -0.969596 0.201027
v 8.11088 -2.05878 -18.9587
vn -0.0484843 -0.970148 0.237619
v 8.1266 -2.05727 -18.9528
vn 0.0430389 -0.961356 0.271923
v 8.14225 -2.05416 -18.9474
vn 0.134148 -0.943306 0.303608
v 8.15768 -2.0495 -18.9424
vn 0.223964 -0.916172 0.332369
v 8.17274 -2.04333 -18.938
vn 0.311624 -0.880214 0.35793
v 8.18728 -2.03569 -18.9342
vn 0.396283 -0.835779 0.380043
v 8.20117 -2.02668 -18.9311
vn 0.477125 -0.783296 0.398496
v 8.21426 -2.01637 -18.9286
vn 0.553373 -0.723268 0.413112
v 8.22645 -2.00486 -18.9267
vn 0.624291 -0.656276 0.423749
v 8.2376 -1.99226 -18.9256
vn 0.689197 -0.582963 0.430305
v 8.24761 -1.97871 -18.9252
vn 0.747465 -0.504035 0.432717
v 8.25638 -1.96431 -18.9255
vn 0.798535 -0.420254 0.430962
v 8.26383 -1.94923 -18.9265
vn 0.841915 -0.332425 0.425056
v 8.26989 -1.93359 -18.9282
vn 0.877187 -0.241395 0.415057
v 8.2745 -1.91755 -18.9306
vn 0.90401 -0.14804 0.40106
v 8.27761 -1.90127 -18.9337
vn 0.922128 -0.0532599 0.383201
v 8.2792 -1.8849 -18.9374
vn 0.931365 0.0420336 0.361652
v 8.27924 -1.8686 -18.9417
vn 0.931633 0.136922 0.33662
v 8.27775 -1.85253 -18.9466
vn 0.922928 0.230492 0.308346
v 8.27472 -1.83684 -18.9519
vn 0.905335 0.321843 0.277102
v 8.2702 -1.82168 -18.9578
vn 0.879023 0.410093 0.24319
v 8.26423 -1.80719 -18.964
vn 0.844246 0.494395 0.206936
v 8.25686 -1.79353 -18.9705
vn 0.801338 0.573935 0.168689
v 8.24816 -1.78082 -18.9774
vn 0.750713 0.647948 0.128817
v 8.23822 -1.76917 -18.9845
vn 0.692858 0.71572 0.0877046
v 8.22714 -1.75872 -18.9917
vn 0.628331 0.7766 0.0457476
v 8.21502 -1.74954 -18.999
vn 0.557752 0.830001 0.00335008
v 8.20197 -1.74174 -19.0062
vn 0.481802 0.875408 -0.0390797
v 8.18813 -1.73539 -19.0135
vn 0.401212 0.912385 -0.0811332
v 8.17362 -1.73055 -19.0206
vn 0.316758 0.940575 -0.122405
v 9.36971 -2.7007 -22.1167
vn 0.272835 0.922026 -0.274643
v 9.3504 -2.69854 -22.1248
vn 0.182913 0.932097 -0.312632
v 9.33071 -2.6983 -22.1324
vn 0.0912289 0.933191 -0.347609
v 9.31083 -2.7 -22.1391
vn -0.00133349 0.925298 -0.379239
v 9.29096 -2.70361 -22.1452
vn -0.0938831 0.908494 -0.407217
v 9.27128 -2.70909 -22.1503
vn -0.185528 0.88294 -0.431272
v 9.25199 -2.71641 -22.1546
vn -0.275387 0.848884 -0.451175
v 9.23326 -2.72547 -22.1579
vn -0.362594 0.806652 -0.466732
v 9.21529 -2.73621 -22.1603
vn -0.446308 0.756651 -0.477795
v 9.19823 -2.74851 -22.1617
vn -0.525725 0.699364 -0.484256
v 9.18227 -2.76226 -22.1621
vn -0.600078 0.635341 -0.486053
v 9.16754 -2.77732 -22.1615
vn -0.668652 0.5652 -0.48317
v 9.1542 -2.79355 -22.1598
vn -0.730787 0.489616 -0.475633
v 9.14237 -2.81079 -22.1572
vn -0.785884 0.409316 -0.463516
v 9.13216 -2.82888 -22.1537
vn -0.833413 0.325074 -0.446934
v 9.12368 -2.84764 -22.1492
vn -0.872915 0.237702 -0.426049
v 9.117 -2.8669 -22.1438
vn -0.90401 0.14804 -0.40106
v 9.1122 -2.88645 -22.1376
vn -0.9264 0.0569532 -0.372209
v 9.10931 -2.90613 -22.1307
vn -0.939868 -0.0346825 -0.339774
v 9.10836 -2.92574 -22.123
vn -0.944284 -0.125984 -0.304066
v 9.10936 -2.94508 -22.1147
vn -0.939606 -0.216073 -0.26543
v 9.11231 -2.96398 -22.1059
vn -0.925879 -0.30408 -0.224238
v 9.11717 -2.98225 -22.0966
vn -0.903236 -0.389159 -0.180886
v 9.1239 -2.99971 -22.0869
vn -0.871894 -0.47049 -0.135792
v 9.13243 -3.0162 -22.0769
vn -0.832155 -0.54729 -0.0893902
v 9.14269 -3.03156 -22.0668
vn -0.784402 -0.61882 -0.0421277
v 9.15456 -3.04564 -22.0565
vn -0.729095 -0.68439 0.00554048
v 9.16795 -3.05831 -22.0463
vn -0.666767 -0.743369 0.0531553
v 9.18271 -3.06943 -22.0362
vn -0.598016 -0.795188 0.100258
v 9.19871 -3.07891 -22.0263
vn -0.523507 -0.83935 0.146396
v 9.21579 -3.08666 -22.0167
vn -0.443956 -0.875428 0.191123
v 9.23379 -3.0926 -22.0075
vn -0.36013 -0.903076 0.23401
v 9.25254 -3.09667 -21.9987
vn -0.272835 -0.922026 0.274643
v 9.27184 -3.09883 -21.9906
vn -0.182913 -0.932097 0.312632
v 9.29153 -3.09907 -21.9831
vn -0.0912289 -0.933191 0.347609
v 9.31141 -3.09737 -21.9763
vn 0.00133349 -0.925298 0.379239
v 9.33128 -3.09376 -21.9703
vn 0.0938831 -0.908494 0.407217
v 9.35096 -3.08827 -21.9651
vn 0.185528 -0.88294 0.431272
v 9.37025 -3.08096 -21.9608
vn 0.275387 -0.848884 0.451175
v 9.38898 -3.07189 -21.9575
vn 0.362594 -0.806652 0.466732
v 9.40695 -3.06116 -21.9551
vn 0.446308 -0.756651 0.477795
v 9.42401 -3.04886 -21.9537
vn 0.525725 -0.699364 0.484256
v 9.43997 -3.03511 -21.9533
vn 0.600078 -0.635341 0.486053
v 9.4547 -3.02005 -21.954
vn 0.668652 -0.5652 0.48317
v 9.46804 -3.00382 -21.9556
vn 0.730787 -0.489616 0.475633
v 9.47987 -2.98658 -21.9582
vn 0.785884 -0.409316 0.463516
v 9.49008 -2.96849 -21.9617
vn 0.833413 -0.325074 0.446934
v 9.49856 -2.94972 -21.9662
vn 0.872915 -0.237702 0.426049
v 9.50524 -2.93047 -21.9716
vn 0.90401 -0.14804 0.40106
v 9.51004 -2.91091 -21.9778
vn 0.9264 -0.0569532 0.372209
v 9.51294 -2.89124 -21.9848
vn 0.939868 0.0346825 0.339774
v 9.51388 -2.87163 -21.9924
vn 0.944284 0.125984 0.304066
v 9.51288 -2.85229 -22.0007
vn 0.939606 0.216073 0.26543
v 9.50993 -2.83339 -22.0096
vn 0.925879 0.30408 0.224238
v 9.50507 -2.81512 -22.0189
vn 0.903236 0.389159 0.180886
v 9.49834 -2.79766 -22.0286
vn 0.871894 0.47049 0.135792
v 9.48981 -2.78117 -22.0385
vn 0.832155 0.54729 0.0893902
v 9.47955 -2.76581 -22.0487
vn 0.784402 0.61882 0.0421277
v 9.46768 -2.75173 -22.0589
vn 0.729095 0.68439 -0.00554048
v 9.45429 -2.73906 -22.0691
vn 0.666767 0.743369 -0.0531553
v 9.43953 -2.72794 -22.0792
vn 0.598016 0.795188 -0.100258
v 9.42353 -2.71845 -22.0891
vn 0.523507 0.83935 -0.146396
v 9.40645 -2.71071 -22.0987
vn 0.443956 0.875428 -0.191123
v 9.38845 -2.70477 -22.108
vn 0.36013 0.903076 -0.23401
v 10.2528 -3.90254 -24.5509
vn 0.329638 0.838738 -0.433424
v 10.2296 -3.89984 -24.5605
vn 0.239442 0.84921 -0.470648
v 10.2057 -3.89925 -24.5689
vn 0.146941 0.851503 -0.503339
v 10.1815 -3.90077 -24.5761
vn 0.0530238 0.845596 -0.531183
v 10.1572 -3.90439 -24.5819
vn -0.0414037 0.831546 -0.553911
v 10.133 -3.91008 -24.5864
vn -0.135432 0.809487 -0.571305
v 10.1091 -3.91777 -24.5895
vn -0.228157 0.779632 -0.583196
v 10.0858 -3.9274 -24.5911
vn -0.318684 0.742269 -0.589471
v 10.0632 -3.93887 -24.5913
vn -0.406142 0.697758 -0.59007
v 10.0417 -3.95207 -24.5899
vn -0.489689 0.646527 -0.584985
v 10.0214 -3.96687 -24.5872
vn -0.56852 0.589069 -0.574267
v 10.0025 -3.98314 -24.583
vn -0.641876 0.525939 -0.558018
v 9.98518 -4.00071 -24.5774
vn -0.70905 0.457743 -0.536396
v 9.96963 -4.01942 -24.5705
vn -0.769395 0.385139 -0.509607
v 9.95599 -4.03908 -24.5624
vn -0.822331 0.308826 -0.477911
v 9.94439 -4.05951 -24.553
vn -0.867347 0.229538 -0.441612
v 9.93494 -4.08051 -24.5426
vn -0.90401 0.14804 -0.40106
v 9.92774 -4.10188 -24.5311
vn -0.931967 0.0651169 -0.356646
v 9.92285 -4.12341 -24.5188
vn -0.950949 -0.0184338 -0.308797
v 9.92032 -4.14489 -24.5057
vn -0.960773 -0.101807 -0.257974
v 9.92017 -4.16612 -24.492
vn -0.961344 -0.1842 -0.204667
v 9.92241 -4.18689 -24.4777
vn -0.952656 -0.264819 -0.149389
v 9.92701 -4.20701 -24.4631
vn -0.934794 -0.342887 -0.0926718
v 9.93393 -4.22628 -24.4482
vn -0.90793 -0.417653 -0.0350624
v 9.94311 -4.2445 -24.4333
vn -0.872321 -0.488397 0.0228848
v 9.95445 -4.26152 -24.4184
vn -0.828312 -0.554438 0.0806115
v 9.96784 -4.27716 -24.4038
vn -0.776325 -0.615139 0.137562
v 9.98317 -4.29128 -24.3894
vn -0.716863 -0.669915 0.193188
v 10.0003 -4.30373 -24.3756
vn -0.650496 -0.718241 0.246953
v 10.019 -4.3144 -24.3623
vn -0.577865 -0.759649 0.298339
v 10.0391 -4.32318 -24.3498
vn -0.499668 -0.793741 0.346853
v 10.0605 -4.33 -24.3382
vn -0.41666 -0.820189 0.392026
v 10.0829 -4.33478 -24.3275
vn -0.329638 -0.838738 0.433424
v 10.1062 -4.33748 -24.3179
vn -0.239442 -0.84921 0.470648
v 10.13 -4.33807 -24.3095
vn -0.146941 -0.851503 0.503339
v 10.1542 -4.33655 -24.3023
vn -0.0530238 -0.845596 0.531183
v 10.1785 -4.33292 -24.2965
vn 0.0414037 -0.831546 0.553911
v 10.2028 -4.32724 -24.292
vn 0.135432 -0.809487 0.571305
v 10.2267 -4.31955 -24.2889
vn 0.228157 -0.779632 0.583196
v 10.25 -4.30992 -24.2873
vn 0.318684 -0.742269 0.589471
v 10.2725 -4.29845 -24.2872
vn 0.406142 -0.697758 0.59007
v 10.2941 -4.28525 -24.2885
vn 0.489689 -0.646527 0.584985
v 10.3144 -4.27045 -24.2912
vn 0.56852 -0.589069 0.574267
v 10.3333 -4.25418 -24.2954
vn 0.641876 -0.525939 0.558018
v 10.3506 -4.23661 -24.301
vn 0.70905 -0.457743 0.536396
v 10.3661 -4.2179 -24.3079
vn 0.769395 -0.385139 0.509607
v 10.3798 -4.19823 -24.3161
vn 0.822331 -0.308826 0.477911
v 10.3914 -4.1778 -24.3254
vn 0.867347 -0.229538 0.441612
v 10.4008 -4.1568 -24.3359
vn 0.90401 -0.14804 0.40106
v 10.408 -4.13544 -24.3473
vn 0.931967 -0.0651169 0.356646
v 10.4129 -4.11391 -24.3596
vn 0.950949 0.0184338 0.308797
v 10.4154 -4.09243 -24.3727
vn 0.960773 0.101807 0.257974
v 10.4156 -4.0712 -24.3865
vn 0.961344 0.1842 0.204667
v 10.4134 -4.05042 -24.4007
vn 0.952656 0.264819 0.149389
v 10.4088 -4.03031 -24.4153
vn 0.934794 0.342887 0.0926718
v 10.4018 -4.01104 -24.4302
vn 0.90793 0.417653 0.0350624
v 10.3927 -3.99281 -24.4451
vn 0.872321 0.488397 -0.0228848
v 10.3813 -3.9758 -24.46
vn 0.828312 0.554438 -0.0806115
v 10.3679 -3.96015 -24.4747
vn 0.776325 0.615139 -0.137562
v 10.3526 -3.94604 -24.489
vn 0.716863 0.669915 -0.193188
v 10.3355 -3.93359 -24.5028
vn 0.650496 0.718241 -0.246953
v 10.3168 -3.92292 -24.5161
vn 0.577865 0.759649 -0.298339
v 10.2966 -3.91413 -24.5286
vn 0.499668 0.793741 -0.346853
v 10.2752 -3.90732 -24.5402
vn 0.41666 0.820189 -0.392026
v 10.8075 -5.35386 -26.3368
vn 0.392489 0.659268 -0.64134
v 10.7803 -5.35045 -26.3477
vn 0.301991 0.670604 -0.677563
v 10.7522 -5.34898 -26.3567
vn 0.208584 0.675482 -0.70726
v 10.7235 -5.34947 -26.3635
vn 0.113169 0.673854 -0.730146
v 10.6945 -5.35191 -26.3683
vn 0.0166632 0.665737 -0.746
v 10.6654 -5.35628 -26.3709
vn -0.0800027 0.651208 -0.75467
v 10.6366 -5.36253 -26.3713
vn -0.175898 0.630408 -0.756072
v 10.6083 -5.37061 -26.3696
vn -0.2701 0.603537 -0.750193
v 10.5808 -5.38044 -26.3656
vn -0.3617 0.570853 -0.737089
v 10.5543 -5.39191 -26.3595
vn -0.449817 0.532672 -0.716886
v 10.5291 -5.40494 -26.3514
vn -0.533602 0.489361 -0.689779
v 10.5054 -5.41937 -26.3413
vn -0.612248 0.441337 -0.656029
v 10.4836 -5.43509 -26.3292
vn -0.684997 0.389063 -0.615962
v 10.4637 -5.45193 -26.3154
vn -0.75115 0.333041 -0.569962
v 10.446 -5.46973 -26.2999
vn -0.810069 0.273813 -0.518473
v 10.4306 -5.48833 -26.2829
vn -0.861187 0.211947 -0.461991
v 10.4177 -5.50754 -26.2646
vn -0.90401 0.14804 -0.40106
v 10.4075 -5.52718 -26.2451
vn -0.938128 0.082708 -0.336267
v 10.3999 -5.54706 -26.2247
vn -0.963211 0.0165791 -0.268235
v 10.3952 -5.56699 -26.2034
vn -0.979018 -0.0497096 -0.197619
v 10.3933 -5.58677 -26.1816
vn -0.985396 -0.115519 -0.125101
v 10.3942 -5.60622 -26.1595
vn -0.982284 -0.180217 -0.0513778
v 10.398 -5.62515 -26.1372
vn -0.969713 -0.243179 0.0228402
v 10.4046 -5.64337 -26.1149
vn -0.947802 -0.303798 0.0968383
v 10.4139 -5.66072 -26.093
vn -0.916764 -0.361493 0.169904
v 10.4259 -5.67701 -26.0715
vn -0.876897 -0.415705 0.241333
v 10.4404 -5.69211 -26.0507
vn -0.828584 -0.465915 0.310438
v 10.4573 -5.70585 -26.0308
vn -0.772292 -0.511637 0.376553
v 10.4765 -5.71812 -26.0121
vn -0.708563 -0.552432 0.439042
v 10.4977 -5.72878 -25.9945
vn -0.638009 -0.587906 0.497303
v 10.5207 -5.73774 -25.9785
vn -0.561312 -0.617719 0.550774
v 10.5454 -5.74492 -25.964
vn -0.479208 -0.641583 0.598941
v 10.5715 -5.75023 -25.9512
vn -0.392489 -0.659268 0.64134
v 10.5987 -5.75364 -25.9404
vn -0.301991 -0.670604 0.677563
v 10.6268 -5.75511 -25.9314
vn -0.208584 -0.675482 0.70726
v 10.6555 -5.75462 -25.9245
vn -0.113169 -0.673854 0.730146
v 10.6845 -5.75218 -25.9198
vn -0.0166632 -0.665737 0.746
v 10.7135 -5.74781 -25.9172
vn 0.0800027 -0.651208 0.75467
v 10.7424 -5.74156 -25.9167
vn 0.175898 -0.630408 0.756072
v 10.7707 -5.73348 -25.9185
vn 0.2701 -0.603537 0.750193
v 10.7982 -5.72365 -25.9225
vn 0.3617 -0.570853 0.737089
v 10.8247 -5.71218 -25.9285
vn 0.449817 -0.532672 0.716886
v 10.8499 -5.69916 -25.9367
vn 0.533602 -0.489361 0.689779
v 10.8735 -5.68472 -25.9468
vn 0.612248 -0.441337 0.656029
v 10.8954 -5.669 -25.9589
vn 0.684997 -0.389063 0.615962
v 10.9153 -5.65216 -25.9727
vn 0.75115 -0.333041 0.569962
v 10.933 -5.63436 -25.9882
vn 0.810069 -0.273813 0.518473
v 10.9484 -5.61576 -26.0052
vn 0.861187 -0.211947 0.461991
v 10.9612 -5.59655 -26.0235
vn 0.90401 -0.14804 0.40106
v 10.9715 -5.57691 -26.043
vn 0.938128 -0.082708 0.336267
v 10.979 -5.55703 -26.0634
vn 0.963211 -0.0165791 0.268235
v 10.9838 -5.5371 -26.0846
vn 0.979018 0.0497096 0.197619
v 10.9857 -5.51732 -26.1064
vn 0.985396 0.115519 0.125101
v 10.9848 -5.49787 -26.1286
vn 0.982284 0.180217 0.0513778
v 10.981 -5.47894 -26.1509
vn 0.969713 0.243179 -0.0228402
v 10.9744 -5.46072 -26.1731
vn 0.947802 0.303798 -0.0968383
v 10.9651 -5.44337 -26.1951
vn 0.916764 0.361493 -0.169904
v 10.9531 -5.42708 -26.2166
vn 0.876897 0.415705 -0.241333
v 10.9386 -5.41198 -26.2374
vn 0.828584 0.465915 -0.310438
v 10.9217 -5.39824 -26.2572
vn 0.772292 0.511637 -0.376553
v 10.9025 -5.38597 -26.276
vn 0.708563 0.552432 -0.439042
v 10.8813 -5.37531 -26.2935
vn 0.638009 0.587906 -0.497303
v 10.8582 -5.36635 -26.3096
vn 0.561312 0.617719 -0.550774
v 10.8335 -5.35917 -26.3241
vn 0.479208 0.641583 -0.598941
v 11.0228 -7.08377 -27.4607
vn 0.427393 0.33494 -0.839732
v 10.9916 -7.07934 -27.4728
vn 0.336727 0.347837 -0.875
v 10.9594 -7.07606 -27.482
vn 0.242817 0.357385 -0.90184
v 10.9263 -7.07396 -27.4883
vn 0.146569 0.363491 -0.919995
v 10.8927 -7.07307 -27.4915
vn 0.0489101 0.366096 -0.929291
v 10.859 -7.07338 -27.4916
vn -0.0492203 0.365176 -0.929636
v 10.8255 -7.07491 -27.4886
vn -0.146877 0.360739 -0.921029
v 10.7924 -7.07763 -27.4826
vn -0.243119 0.352828 -0.903552
v 10.7602 -7.08151 -27.4736
vn -0.337019 0.341518 -0.877373
v 10.729 -7.08653 -27.4617
vn -0.427674 0.32692 -0.842744
v 10.6993 -7.09262 -27.447
vn -0.51421 0.309174 -0.8
v 10.6712 -7.09974 -27.4297
vn -0.595794 0.288449 -0.749551
v 10.6452 -7.10782 -27.4099
vn -0.67164 0.264947 -0.691883
v 10.6214 -7.11677 -27.3878
vn -0.741018 0.238894 -0.627552
v 10.6 -7.12651 -27.3636
vn -0.80326 0.210539 -0.557178
v 10.5812 -7.13695 -27.3376
vn -0.857765 0.180157 -0.481437
v 10.5654 -7.14798 -27.31
vn -0.90401 0.14804 -0.40106
v 10.5525 -7.15951 -27.281
vn -0.941549 0.114498 -0.316821
v 10.5427 -7.17141 -27.251
vn -0.97002 0.0798524 -0.22953
v 10.5361 -7.18358 -27.2203
vn -0.98915 0.044438 -0.140029
v 10.5328 -7.19589 -27.1891
vn -0.998753 0.0085957 -0.0491797
v 10.5328 -7.20823 -27.1577
vn -0.998738 -0.0273294 0.0421435
v 10.5361 -7.22049 -27.1265
vn -0.989104 -0.0629913 0.133061
v 10.5427 -7.23253 -27.0957
vn -0.969945 -0.0980466 0.222697
v 10.5525 -7.24425 -27.0656
vn -0.941444 -0.132158 0.310188
v 10.5654 -7.25553 -27.0366
vn -0.903878 -0.164996 0.394692
v 10.5813 -7.26627 -27.0089
vn -0.857606 -0.196245 0.475395
v 10.6 -7.27635 -26.9827
vn -0.803075 -0.225605 0.551519
v 10.6214 -7.2857 -26.9584
vn -0.74081 -0.252791 0.622332
v 10.6453 -7.2942 -26.9361
vn -0.67141 -0.277543 0.687152
v 10.6713 -7.30178 -26.9161
vn -0.595545 -0.299623 0.745354
v 10.6994 -7.30838 -26.8986
vn -0.513944 -0.318816 0.796378
v 10.7291 -7.31392 -26.8837
vn -0.427393 -0.33494 0.839732
v 10.7603 -7.31835 -26.8716
vn -0.336727 -0.347837 0.875
v 10.7925 -7.32163 -26.8623
vn -0.242817 -0.357385 0.90184
v 10.8256 -7.32373 -26.8561
vn -0.146569 -0.363491 0.919995
v 10.8591 -7.32462 -26.8529
vn -0.0489101 -0.366096 0.929291
v 10.8929 -7.32431 -26.8528
vn 0.0492203 -0.365176 0.929636
v 10.9264 -7.32278 -26.8558
vn 0.146877 -0.360739 0.921029
v 10.9595 -7.32006 -26.8618
vn 0.243119 -0.352828 0.903552
v 10.9917 -7.31618 -26.8707
vn 0.337019 -0.341518 0.877373
v 11.0229 -7.31116 -26.8826
vn 0.427674 -0.32692 0.842744
v 11.0526 -7.30507 -26.8973
vn 0.51421 -0.309174 0.8
v 11.0806 -7.29795 -26.9147
vn 0.595794 -0.288449 0.749551
v 11.1067 -7.28987 -26.9345
vn 0.67164 -0.264947 0.691883
v 11.1305 -7.28092 -26.9566
vn 0.741018 -0.238894 0.627552
v 11.1519 -7.27118 -26.9808
vn 0.80326 -0.210539 0.557178
v 11.1706 -7.26074 -27.0068
vn 0.857765 -0.180157 0.481437
v 11.1865 -7.24971 -27.0344
vn 0.90401 -0.14804 0.40106
v 11.1994 -7.23818 -27.0633
vn 0.941549 -0.114498 0.316821
v 11.2092 -7.22628 -27.0933
vn 0.97002 -0.0798524 0.22953
v 11.2158 -7.21411 -27.1241
vn 0.98915 -0.044438 0.140029
v 11.2191 -7.2018 -27.1553
vn 0.998753 -0.0085957 0.0491797
v 11.2191 -7.18946 -27.1867
vn 0.998738 0.0273294 -0.0421435
v 11.2158 -7.1772 -27.2179
vn 0.989104 0.0629913 -0.133061
v 11.2092 -7.16516 -27.2487
vn 0.969945 0.0980466 -0.222697
v 11.1994 -7.15344 -27.2788
vn 0.941444 0.132158 -0.310188
v 11.1865 -7.14216 -27.3078
vn 0.903878 0.164996 -0.394692
v 11.1706 -7.13142 -27.3355
vn 0.857606 0.196245 -0.475395
v 11.1518 -7.12134 -27.3617
vn 0.803075 0.225605 -0.551519
v 11.1305 -7.112 -27.386
vn 0.74081 0.252791 -0.622332
v 11.1066 -7.10349 -27.4083
vn 0.67141 0.277543 -0.687152
v 11.0805 -7.09591 -27.4283
vn 0.595545 0.299623 -0.745354
v 11.0525 -7.08931 -27.4458
vn 0.513944 0.318816 -0.796378
v 10.8807 -9.08136 -27.8777
vn 0.39694 -0.0577151 -0.916028
v 10.8457 -9.07565 -27.8912
vn 0.306421 -0.0429266 -0.950928
v 10.8095 -9.06977 -27.9011
vn 0.21295 -0.0277248 -0.97667
v 10.7726 -9.06379 -27.9075
vn 0.117428 -0.012256 -0.993006
v 10.7353 -9.05777 -27.9101
vn 0.0207754 0.00333087 -0.999779
v 10.6978 -9.05176 -27.909
vn -0.0760773 0.0188856 -0.996923
v 10.6607 -9.04582 -27.9042
vn -0.172197 0.0342585 -0.984467
v 10.6242 -9.04 -27.8957
vn -0.266659 0.0493015 -0.962529
v 10.5887 -9.03437 -27.8836
vn -0.358553 0.0638697 -0.931322
v 10.5545 -9.02898 -27.8681
vn -0.446993 0.0778228 -0.891146
v 10.522 -9.02388 -27.8492
vn -0.531129 0.0910264 -0.842387
v 10.4914 -9.01911 -27.8273
vn -0.61015 0.103353 -0.785516
v 10.4631 -9.01473 -27.8024
vn -0.683294 0.114685 -0.72108
v 10.4374 -9.01078 -27.7748
vn -0.749858 0.124912 -0.6497
v 10.4145 -9.00729 -27.7448
vn -0.809201 0.133936 -0.572062
v 10.3946 -9.0043 -27.7126
vn -0.86075 0.141671 -0.488915
v 10.3778 -9.00184 -27.6787
vn -0.90401 0.14804 -0.40106
v 10.3645 -8.99993 -27.6432
vn -0.938564 0.152985 -0.309343
v 10.3546 -8.99859 -27.6066
vn -0.964079 0.156456 -0.214646
v 10.3483 -8.99783 -27.5692
vn -0.98031 0.15842 -0.117882
v 10.3457 -8.99766 -27.5314
vn -0.987099 0.158858 -0.0199826
v 10.3468 -8.99808 -27.4935
vn -0.984382 0.157767 0.078109
v 10.3515 -8.99909 -27.4558
vn -0.972185 0.155156 0.175448
v 10.3598 -9.00068 -27.4189
vn -0.950626 0.151051 0.271098
v 10.3717 -9.00282 -27.3829
vn -0.919911 0.145491 0.364137
v 10.387 -9.00551 -27.3483
vn -0.880337 0.13853 0.453669
v 10.4056 -9.00872 -27.3154
vn -0.832285 0.130235 0.538832
v 10.4272 -9.01241 -27.2845
vn -0.776218 0.120686 0.618806
v 10.4518 -9.01655 -27.2559
vn -0.712675 0.109974 0.69282
v 10.479 -9.0211 -27.2298
vn -0.642269 0.0982037 0.760162
v 10.5086 -9.02602 -27.2066
vn -0.565677 0.0854873 0.820184
v 10.5403 -9.03125 -27.1865
vn -0.483638 0.0719476 0.872306
v 10.5738 -9.03675 -27.1696
vn -0.39694 0.0577151 0.916028
v 10.6088 -9.04247 -27.1561
vn -0.306421 0.0429266 0.950928
v 10.6449 -9.04834 -27.1462
vn -0.21295 0.0277248 0.97667
v 10.6819 -9.05432 -27.1398
vn -0.117428 0.012256 0.993006
v 10.7192 -9.06035 -27.1372
vn -0.0207754 -0.00333087 0.999779
v 10.7566 -9.06636 -27.1383
vn 0.0760773 -0.0188856 0.996923
v 10.7938 -9.0723 -27.1431
vn 0.172197 -0.0342585 0.984467
v 10.8303 -9.07811 -27.1516
vn 0.266659 -0.0493015 0.962529
v 10.8658 -9.08374 -27.1637
vn 0.358553 -0.0638697 0.931322
v 10.9 -9.08914 -27.1792
vn 0.446993 -0.0778228 0.891146
v 10.9325 -9.09424 -27.1981
vn 0.531129 -0.0910264 0.842387
v 10.9631 -9.099 -27.22
vn 0.61015 -0.103353 0.785516
v 10.9913 -9.10338 -27.2449
vn 0.683294 -0.114685 0.72108
v 11.0171 -9.10734 -27.2725
vn 0.749858 -0.124912 0.6497
v 11.04 -9.11083 -27.3025
vn 0.809201 -0.133936 0.572062
v 11.0599 -9.11381 -27.3347
vn 0.86075 -0.141671 0.488915
v 11.0766 -9.11628 -27.3686
vn 0.90401 -0.14804 0.40106
v 11.09 -9.11819 -27.4041
vn 0.938564 -0.152985 0.309343
v 11.0999 -9.11953 -27.4407
vn 0.964079 -0.156456 0.214646
v 11.1061 -9.12029 -27.4781
vn 0.98031 -0.15842 0.117882
v 11.1088 -9.12046 -27.5159
vn 0.987099 -0.158858 0.0199826
v 11.1077 -9.12004 -27.5538
vn 0.984382 -0.157767 -0.078109
v 11.103 -9.11903 -27.5915
vn 0.972185 -0.155156 -0.175448
v 11.0947 -9.11744 -27.6284
vn 0.950626 -0.151051 -0.271098
v 11.0828 -9.11529 -27.6644
vn 0.919911 -0.145491 -0.364137
v 11.0675 -9.1126 -27.699
vn 0.880337 -0.13853 -0.453669
v 11.0489 -9.10939 -27.7319
vn 0.832285 -0.130235 -0.538832
v 11.0273 -9.1057 -27.7628
vn 0.776218 -0.120686 -0.618806
v 11.0027 -9.10156 -27.7914
vn 0.712675 -0.109974 -0.69282
v 10.9755 -9.09701 -27.8175
vn 0.642269 -0.0982037 -0.760162
v 10.9459 -9.0921 -27.8407
vn 0.565677 -0.0854873 -0.820184
v 10.9142 -9.08687 -27.8608
vn 0.483638 -0.0719476 -0.872306
f 1 66 2 
f 1 65 66 
f 2 67 3 
f 2 66 67 
f 3 68 4 
f 3 67 68 
f 4 69 5 
f 4 68 69 
f 5 70 6 
f 5 69 70 
f 6 71 7 
f 6 70 71 
f 7 72 8 
f 7 71 72 
f 8 73 9 
f 8 72 73 
f 9 74 10 
f 9 73 74 
f 10 75 11 
f 10 74 75 
f 11 76 12 
f 11 75 76 
f 12 77 13 
f 12 76 77 
f 13 78 14 
f 13 77 78 
f 14 79 15 
f 14 78 79 
f 15 80 16 
f 15 79 80 
f 16 81 17 
f 16 80 81 
f 17 82 18 
f 17 81 82 
f 18 83 19 
f 18 82 83 
f 19 84 20 
f 19 83 84 
f 20 85 21 
f 20 84 85 
f 21 86 22 
f 21 85 86 
f 22 87 23 
f 22 86 87 
f 23 88 24 
f 23 87 88 
f 24 89 25 
f 24 88 89 
f 25 90 26 
f 25 89 90 
f 26 91 27 
f 26 90 91 
f 27 92 28 
f 27 91 92 
f 28 93 29 
f 28 92 93 
f 29 94 30 
f 29 93 94 
f 30 95 31 
f 30 94 95 
f 31 96 32 
f 31 95 96 
f 32 97 33 
f 32 96 97 
f 33 98 34 
f 33 97 98 
f 34 99 35 
f 34 98 99 
f 35 100 36 
f 35 99 100 
f 36 101 37 
f 36 100 101 
f 37 102 38 
f 37 101 102 
f 38 103 39 
f 38 102 103 
f 39 104 40 
f 39 103 104 
f 40 105 41 
f 40 104 105 
f 41 106 42 
f 41 105 106 
f 42 107 43 
f 42 106 107 
f 43 108 44 
f 43 107 108 
f 44 109 45 
f 44 108 109 
f 45 110 46 
f 45 109 110 
f 46 111 47 
f 46 110 111 
f 47 112 48 
f 47 111 112 
f 48 113 49 
f 48 112 113 
f 49 114 50 
f 49 113 114 
f 50 115 51 
f 50 114 115 
f 51 116 52 
f 51 115 116 
f 52 117 53 
f 52 116 117 
f 53 118 54 
f 53 117 118 
f 54 119 55 
f 54 118 119 
f 55 120 56 
f 55 119 120 
f 56 121 57 
f 56 120 121 
f 57 122 58 
f 57 121 122 
f 58 123 59 
f 58 122 123 
f 59 124 60 
f 59 123 124 
f 60 125 61 
f 60 124 125 
f 61 126 62 
f 61 125 126 
f 62 127 63 
f 62 126 127 
f 63 128 64 
f 63 127 128 
f 64 65 1 
f 64 128 65 
f 65 130 66 
f 65 129 130 
f 66 131 67 
f 66 130 131 
f 67 132 68 
f 67 131 132 
f 68 133 69 
f 68 132 133 
f 69 134 70 
f 69 133 134 
f 70 135 71 
f 70 134 135 
f 71 136 72 
f 71 135 136 
f 72 137 73 
f 72 136 137 
f 73 138 74 
f 73 137 138 
f 74 139 75 
f 74 138 139 
f 75 140 76 
f 75 139 140 
f 76 141 77 
f 76 140 141 
f 77 142 78 
f 77 141 142 
f 78 143 79 
f 78 142 143 
f 79 144 80 
f 79 143 144 
f 80 145 81 
f 80 144 145 
f 81 146 82 
f 81 145 146 
f 82 147 83 
f 82 146 147 
f 83 148 84 
f 83 147 148 
f 84 149 85 
f 84 148 149 
f 85 150 86 
f 85 149 150 
f 86 151 87 
f 86 150 151 
f 87 152 88 
f 87 151 152 
f 88 153 89 
f 88 152 153 
f 89 154 90 
f 89 153 154 
f 90 155 91 
f 90 154 155 
f 91 156 92 
f 91 155 156 
f 92 157 93 
f 92 156 157 
f 93 158 94 
f 93 157 158 
f 94 159 95 
f 94 158 159 
f 95 160 96 
f 95 159 160 
f 96 161 97 
f 96 160 161 
f 97 162 98 
f 97 161 162 
f 98 163 99 
f 98 162 163 
f 99 164 100 
f 99 163 164 
f 100 165 101 
f 100 164 165 
f 101 166 102 
f 101 165 166 
f 102 167 103 
f 102 166 167 
f 103 168 104 
f 103 167 168 
f 104 169 105 
f 104 168 169 
f 105 170 106 
f 105 169 170 
f 106 171 107 
f 106 170 171 
f 107 172 108 
f 107 171 172 
f 108 173 109 
f 108 172 173 
f 109 174 110 
f 109 173 174 
f 110 175 111 
f 110 174 175 
f 111 176 112 
f 111 175 176 
f 112 177 113 
f 112 176 177 
f 113 178 114 
f 113 177 178 
f 114 179 115 
f 114 178 179 
f 115 180 116 
f 115 179 180 
f 116 181 117 
f 116 180 181 
f 117 182 118 
f 117 181 182 
f 118 183 119 
f 118 182 183 
f 119 184 120 
f 119 183 184 
f 120 185 121 
f 120 184 185 
f 121 186 122 
f 121 185 186 
f 122 187 123 
f 122 186 187 
f 123 188 124 
f 123 187 188 
f 124 189 125 
f 124 188 189 
f 125 190 126 
f 125 189 190 
f 126 191 127 
f 126 190 191 
f 127 192 128 
f 127 191 192 
f 128 129 65 
f 128 192 129 
f 129 194 130 
f 129 193 194 
f 130 195 131 
f 130 194 195 
f 131 196 132 
f 131 195 196 
f 132 197 133 
f 132 196 197 
f 133 198 134 
f 133 197 198 
f 134 199 135 
f 134 198 199 
f 135 200 136 
f 135 199 200 
f 136 201 137 
f 136 200 201 
f 137 202 138 
f 137 201 202 
f 138 203 139 
f 138 202 203 
f 139 204 140 
f 139 203 204 
f 140 205 141 
f 140 204 205 
f 141 206 142 
f 141 205 206 
f 142 207 143 
f 142 206 207 
f 143 208 144 
f 143 207 208 
f 144 209 145 
f 144 208 209 
f 145 210 146 
f 145 209 210 
f 146 211 147 
f 146 210 211 
f 147 212 148 
f 147 211 212 
f 148 213 149 
f 148 212 213 
f 149 214 150 
f 149 213 214 
f 150 215 151 
f 150 214 215 
f 151 216 152 
f 151 215 216 
f 152 217 153 
f 152 216 217 
f 153 218 154 
f 153 217 218 
f 154 219 155 
f 154 218 219 
f 155 220 156 
f 155 219 220 
f 156 221 157 
f 156 220 221 
f 157 222 158 
f 157 221 222 
f 158 223 159 
f 158 222 223 
f 159 224 160 
f 159 223 224 
f 160 225 161 
f 160 224 225 
f 161 226 162 
f 161 225 226 
f 162 227 163 
f 162 226 227 
f 163 228 164 
f 163 227 228 
f 164 229 165 
f 164 228 229 
f 165 230 166 
f 165 229 230 
f 166 231 167 
f 166 230 231 
f 167 232 168 
f 167 231 232 
f 168 233 169 
f 168 232 233 
f 169 234 170 
f 169 233 234 
f 170 235 171 
f 170 234 235 
f 171 236 172 
f 171 235 236 
f 172 237 173 
f 172 236 237 
f 173 238 174 
f 173 237 238 
f 174 239 175 
f 174 238 239 
f 175 240 176 
f 175 239 240 
f 176 241 177 
f 176 240 241 
f 177 242 178 
f 177 241 242 
f 178 243 179 
f 178 242 243 
f 179 244 180 
f 179 243 244 
f 180 245 181 
f 180 244 245 
f 181 246 182 
f 181 245 246 
f 182 247 183 
f 182 246 247 
f 183 248 184 
f 183 247 248 
f 184 249 185 
f 184 248 249 
f 185 250 186 
f 185 249 250 
f 186 251 187 
f 186 250 251 
f 187 252 188 
f 187 251 252 
f 188 253 189 
f 188 252 253 
f 189 254 190 
f 189 253 254 
f 190 255 191 
f 190 254 255 
f 191 256 192 
f 191 255 256 
f 192 193 129 
f 192 256 193 
f 193 258 194 
f 193 257 258 
f 194 259 195 
f 194 258 259 
f 195 260 196 
f 195 259 260 
f 196 261 197 
f 196 260 261 
f 197 262 198 
f 197 261 262 
f 198 263 199 
f 198 262 263 
f 199 264 200 
f 199 263 264 
f 200 265 201 
f 200 264 265 
f 201 266 202 
f 201 265 266 
f 202 267 203 
f 202 266 267 
f 203 268 204 
f 203 267 268 
f 204 269 205 
f 204 268 269 
f 205 270 206 
f 205 269 270 
f 206 271 207 
f 206 270 271 
f 207 272 208 
f 207 271 272 
f 208 273 209 
f 208 272 273 
f 209 274 210 
f 209 273 274 
f 210 275 211 
f 210 274 275 
f 211 276 212 
f 211 275 276 
f 212 277 213 
f 212 276 277 
f 213 278 214 
f 213 277 278 
f 214 279 215 
f 214 278 279 
f 215 280 216 
f 215 279 280 
f 216 281 217 
f 216 280 281 
f 217 282 218 
f 217 281 282 
f 218 283 219 
f 218 282 283 
f 219 284 220 
f 219 283 284 
f 220 285 221 
f 220 284 285 
f 221 286 222 
f 221 285 286 
f 222 287 223 
f 222 286 287 
f 223 288 224 
f 223 287 288 
f 224 289 225 
f 224 288 289 
f 225 290 226 
f 225 289 290 
f 226 291 227 
f 226 290 291 
f 227 292 228 
f 227 291 292 
f 228 293 229 
f 228 292 293 
f 229 294 230 
f 229 293 294 
f 230 295 231 
f 230 294 295 
f 231 296 232 
f 231 295 296 
f 232 297 233 
f 232 296 297 
f 233 298 234 
f 233 297 298 
f 234 299 235 
f 234 298 299 
f 235 300 236 
f 235 299 300 
f 236 301 237 
f 236 300 301 
f 237 302 238 
f 237 301 302 
f 238 303 239 
f 238 302 303 
f 239 304 240 
f 239 303 304 
f 240 305 241 
f 240 304 305 
f 241 306 242 
f 241 305 306 
f 242 307 243 
f 242 306 307 
f 243 308 244 
f 243 307 308 
f 244 309 245 
f 244 308 309 
f 245 310 246 
f 245 309 310 
f 246 311 247 
f 246 310 311 
f 247 312 248 
f 247 311 312 
f 248 313 249 
f 248 312 313 
f 249 314 250 
f 249 313 314 
f 250 315 251 
f 250 314 315 
f 251 316 252 
f 251 315 316 
f 252 317 253 
f 252 316 317 
f 253 318 254 
f 253 317 318 
f 254 319 255 
f 254 318 319 
f 255 320 256 
f 255 319 320 
f 256 257 193 
f 256 320 257 
f 257 322 258 
f 257 321 322 
f 258 323 259 
f 258 322 323 
f 259 324 260 
f 259 323 324 
f 260 325 261 
f 260 324 325 
f 261 326 262 
f 261 325 326 
f 262 327 263 
f 262 326 327 
f 263 328 264 
f 263 327 328 
f 264 329 265 
f 264 328 329 
f 265 330 266 
f 265 329 330 
f 266 331 267 
f 266 330 331 
f 267 332 268 
f 267 331 332 
f 268 333 269 
f 268 332 333 
f 269 334 270 
f 269 333 334 
f 270 335 271 
f 270 334 335 
f 271 336 272 
f 271 335 336 
f 272 337 273 
f 272 336 337 
f 273 338 274 
f 273 337 338 
f 274 339 275 
f 274 338 339 
f 275 340 276 
f 275 339 340 
f 276 341 277 
f 276 340 341 
f 277 342 278 
f 277 341 342 
f 278 343 279 
f 278 342 343 
f 279 344 280 
f 279 343 344 
f 280 345 281 
f 280 344 345 
f 281 346 282 
f 281 345 346 
f 282 347 283 
f 282 346 347 
f 283 348 284 
f 283 347 348 
f 284 349 285 
f 284 348 349 
f 285 350 286 
f 285 349 350 
f 286 351 287 
f 286 350 351 
f 287 352 288 
f 287 351 352 
f 288 353 289 
f 288 352 353 
f 289 354 290 
f 289 353 354 
f 290 355 291 
f 290 354 355 
f 291 356 292 
f 291 355 356 
f 292 357 293 
f 292 356 357 
f 293 358 294 
f 293 357 358 
f 294 359 295 
f 294 358 359 
f 295 360 296 
f 295 359 360 
f 296 361 297 
f 296 360 361 
f 297 362 298 
f 297 361 362 
f 298 363 299 
f 298 362 363 
f 299 364 300 
f 299 363 364 
f 300 365 301 
f 300 364 365 
f 301 366 302 
f 301 365 366 
f 302 367 303 
f 302 366 367 
f 303 368 304 
f 303 367 368 
f 304 369 305 
f 304 368 369 
f 305 370 306 
f 305 369 370 
f 306 371 307 
f 306 370 371 
f 307 372 308 
f 307 371 372 
f 308 373 309 
f 308 372 373 
f 309 374 310 
f 309 373 374 
f 310 375 311 
f 310 374 375 
f 311 376 312 
f 311 375 376 
f 312 377 313 
f 312 376 377 
f 313 378 314 
f 313 377 378 
f 314 379 315 
f 314 378 379 
f 315 380 316 
f 315 379 380 
f 316 381 317 
f 316 380 381 
f 317 382 318 
f 317 381 382 
f 318 383 319 
f 318 382 383 
f 319 384 320 
f 319 383 384 
f 320 321 257 
f 320 384 321 
f 321 386 322 
f 321 385 386 
f 322 387 323 
f 322 386 387 
f 323 388 324 
f 323 387 388 
f 324 389 325 
f 324 388 389 
f 325 390 326 
f 325 389 390 
f 326 391 327 
f 326 390 391 
f 327 392 328 
f 327 391 392 
f 328 393 329 
f 328 392 393 
f 329 394 330 
f 329 393 394 
f 330 395 331 
f 330 394 395 
f 331 396 332 
f 331 395 396 
f 332 397 333 
f 332 396 397 
f 333 398 334 
f 333 397 398 
f 334 399 335 
f 334 398 399 
f 335 400 336 
f 335 399 400 
f 336 401 337 
f 336 400 401 
f 337 402 338 
f 337 401 402 
f 338 403 339 
f 338 402 403 
f 339 404 340 
f 339 403 404 
f 340 405 341 
f 340 404 405 
f 341 406 342 
f 341 405 406 
f 342 407 343 
f 342 406 407 
f 343 408 344 
f 343 407 408 
f 344 409 345 
f 344 408 409 
f 345 410 346 
f 345 409 410 
f 346 411 347 
f 346 410 411 
f 347 412 348 
f 347 411 412 
f 348 413 349 
f 348 412 413 
f 349 414 350 
f 349 413 414 
f 350 415 351 
f 350 414 415 
f 351 416 352 
f 351 415 416 
f 352 417 353 
f 352 416 417 
f 353 418 354 
f 353 417 418 
f 354 419 355 
f 354 418 419 
f 355 420 356 
f 355 419 420 
f 356 421 357 
f 356 420 421 
f 357 422 358 
f 357 421 422 
f 358 423 359 
f 358 422 423 
f 359 424 360 
f 359 423 424 
f 360 425 361 
f 360 424 425 
f 361 426 362 
f 361 425 426 
f 362 427 363 
f 362 426 427 
f 363 428 364 
f 363 427 428 
f 364 429 365 
f 364 428 429 
f 365 430 366 
f 365 429 430 
f 366 431 367 
f 366 430 431 
f 367 432 368 
f 367 431 432 
f 368 433 369 
f 368 432 433 
f 369 434 370 
f 369 433 434 
f 370 435 371 
f 370 434 435 
f 371 436 372 
f 371 435 436 
f 372 437 373 
f 372 436 437 
f 373 438 374 
f 373 437 438 
f 374 439 375 
f 374 438 439 
f 375 440 376 
f 375 439 440 
f 376 441 377 
f 376 440 441 
f 377 442 378 
f 377 441 442 
f 378 443 379 
f 378 442 443 
f 379 444 380 
f 379 443 444 
f 380 445 381 
f 380 444 445 
f 381 446 382 
f 381 445 446 
f 382 447 383 
f 382 446 447 
f 383 448 384 
f 383 447 448 
f 384 385 321 
f 384 448 385 
f 385 450 386 
f 385 449 450 
f 386 451 387 
f 386 450 451 
f 387 452 388 
f 387 451 452 
f 388 453 389 
f 388 452 453 
f 389 454 390 
f 389 453 454 
f 390 455 391 
f 390 454 455 
f 391 456 392 
f 391 455 456 
f 392 457 393 
f 392 456 457 
f 393 458 394 
f 393 457 458 
f 394 459 395 
f 394 458 459 
f 395 460 396 
f 395 459 460 
f 396 461 397 
f 396 460 461 
f 397 462 398 
f 397 461 462 
f 398 463 399 
f 398 462 463 
f 399 464 400 
f 399 463 464 
f 400 465 401 
f 400 464 465 
f 401 466 402 
f 401 465 466 
f 402 467 403 
f 402 466 467 
f 403 468 404 
f 403 467 468 
f 404 469 405 
f 404 468 469 
f 405 470 406 
f 405 469 470 
f 406 471 407 
f 406 470 471 
f 407 472 408 
f 407 471 472 
f 408 473 409 
f 408 472 473 
f 409 474 410 
f 409 473 474 
f 410 475 411 
f 410 474 475 
f 411 476 412 
f 411 475 476 
f 412 477 413 
f 412 476 477 
f 413 478 414 
f 413 477 478 
f 414 479 415 
f 414 478 479 
f 415 480 416 
f 415 479 480 
f 416 481 417 
f 416 480 481 
f 417 482 418 
f 417 481 482 
f 418 483 419 
f 418 482 483 
f 419 484 420 
f 419 483 484 
f 420 485 421 
f 420 484 485 
f 421 486 422 
f 421 485 486 
f 422 487 423 
f 422 486 487 
f 423 488 424 
f 423 487 488 
f 424 489 425 
f 424 488 489 
f 425 490 426 
f 425 489 490 
f 426 491 427 
f 426 490 491 
f 427 492 428 
f 427 491 492 
f 428 493 429 
f 428 492 493 
f 429 494 430 
f 429 493 494 
f 430 495 431 
f 430 494 495 
f 431 496 432 
f 431 495 496 
f 432 497 433 
f 432 496 497 
f 433 498 434 
f 433 497 498 
f 434 499 435 
f 434 498 499 
f 435 500 436 
f 435 499 500 
f 436 501 437 
f 436 500 501 
f 437 502 438 
f 437 501 502 
f 438 503 439 
f 438 502 503 
f 439 504 440 
f 439 503 504 
f 440 505 441 
f 440 504 505 
f 441 506 442 
f 441 505 506 
f 442 507 443 
f 442 506 507 
f 443 508 444 
f 443 507 508 
f 444 509 445 
f 444 508 509 
f 445 510 446 
f 445 509 510 
f 446 511 447 
f 446 510 511 
f 447 512 448 
f 447 511 512 
f 448 449 385 
f 448 512 449 
f 449 514 450 
f 449 513 514 
f 450 515 451 
f 450 514 515 
f 451 516 452 
f 451 515 516 
f 452 517 453 
f 452 516 517 
f 453 518 454 
f 453 517 518 
f 454 519 455 
f 454 518 519 
f 455 520 456 
f 455 519 520 
f 456 521 457 
f 456 520 521 
f 457 522 458 
f 457 521 522 
f 458 523 459 
f 458 522 523 
f 459 524 460 
f 459 523 524 
f 460 525 461 
f 460 524 525 
f 461 526 462 
f 461 525 526 
f 462 527 463 
f 462 526 527 
f 463 528 464 
f 463 527 528 
f 464 529 465 
f 464 528 529 
f 465 530 466 
f 465 529 530 
f 466 531 467 
f 466 530 531 
f 467 532 468 
f 467 531 532 
f 468 533 469 
f 468 532 533 
f 469 534 470 
f 469 533 534 
f 470 535 471 
f 470 534 535 
f 471 536 472 
f 471 535 536 
f 472 537 473 
f 472 536 537 
f 473 538 474 
f 473 537 538 
f 474 539 475 
f 474 538 539 
f 475 540 476 
f 475 539 540 
f 476 541 477 
f 476 540 541 
f 477 542 478 
f 477 541 542 
f 478 543 479 
f 478 542 543 
f 479 544 480 
f 479 543 544 
f 480 545 481 
f 480 544 545 
f 481 546 482 
f 481 545 546 
f 482 547 483 
f 482 546 547 
f 483 548 484 
f 483 547 548 
f 484 549 485 
f 484 548 549 
f 485 550 486 
f 485 549 550 
f 486 551 487 
f 486 550 551 
f 487 552 488 
f 487 551 552 
f 488 553 489 
f 488 552 553 
f 489 554 490 
f 489 553 554 
f 490 555 491 
f 490 554 555 
f 491 556 492 
f 491 555 556 
f 492 557 493 
f 492 556 557 
f 493 558 494 
f 493 557 558 
f 494 559 495 
f 494 558 559 
f 495 560 496 
f 495 559 560 
f 496 561 497 
f 496 560 561 
f 497 562 498 
f 497 561 562 
f 498 563 499 
f 498 562 563 
f 499 564 500 
f 499 563 564 
f 500 565 501 
f 500 564 565 
f 501 566 502 
f 501 565 566 
f 502 567 503 
f 502 566 567 
f 503 568 504 
f 503 567 568 
f 504 569 505 
f 504 568 569 
f 505 570 506 
f 505 569 570 
f 506 571 507 
f 506 570 571 
f 507 572 508 
f 507 571 572 
f 508 573 509 
f 508 572 573 
f 509 574 510 
f 509 573 574 
f 510 575 511 
f 510 574 575 
f 511 576 512 
f 511 575 576 
f 512 513 449 
f 512 576 513 
f 513 578 514 
f 513 577 578 
f 514 579 515 
f 514 578 579 
f 515 580 516 
f 515 579 580 
f 516 581 517 
f 516 580 581 
f 517 582 518 
f 517 581 582 
f 518 583 519 
f 518 582 583 
f 519 584 520 
f 519 583 584 
f 520 585 521 
f 520 584 585 
f 521 586 522 
f 521 585 586 
f 522 587 523 
f 522 586 587 
f 523 588 524 
f 523 587 588 
f 524 589 525 
f 524 588 589 
f 525 590 526 
f 525 589 590 
f 526 591 527 
f 526 590 591 
f 527 592 528 
f 527 591 592 
f 528 593 529 
f 528 592 593 
f 529 594 530 
f 529 593 594 
f 530 595 531 
f 530 594 595 
f 531 596 532 
f 531 595 596 
f 532 597 533 
f 532 596 597 
f 533 598 534 
f 533 597 598 
f 534 599 535 
f 534 598 599 
f 535 600 536 
f 535 599 600 
f 536 601 537 
f 536 600 601 
f 537 602 538 
f 537 601 602 
f 538 603 539 
f 538 602 603 
f 539 604 540 
f 539 603 604 
f 540 605 541 
f 540 604 605 
f 541 606 542 
f 541 605 606 
f 542 607 543 
f 542 606 607 
f 543 608 544 
f 543 607 608 
f 544 609 545 
f 544 608 609 
f 545 610 546 
f 545 609 610 
f 546 611 547 
f 546 610 611 
f 547 612 548 
f 547 611 612 
f 548 613 549 
f 548 612 613 
f 549 614 550 
f 549 613 614 
f 550 615 551 
f 550 614 615 
f 551 616 552 
f 551 615 616 
f 552 617 553 
f 552 616 617 
f 553 618 554 
f 553 617 618 
f 554 619 555 
f 554 618 619 
f 555 620 556 
f 555 619 620 
f 556 621 557 
f 556 620 621 
f 557 622 558 
f 557 621 622 
f 558 623 559 
f 558 622 623 
f 559 624 560 
f 559 623 624 
f 560 625 561 
f 560 624 625 
f 561 626 562 
f 561 625 626 
f 562 627 563 
f 562 626 627 
f 563 628 564 
f 563 627 628 
f 564 629 565 
f 564 628 629 
f 565 630 566 
f 565 629 630 
f 566 631 567 
f 566 630 631 
f 567 632 568 
f 567 631 632 
f 568 633 569 
f 568 632 633 
f 569 634 570 
f 569 633 634 
f 570 635 571 
f 570 634 635 
f 571 636 572 
f 571 635 636 
f 572 637 573 
f 572 636 637 
f 573 638 574 
f 573 637 638 
f 574 639 575 
f 574 638 639 
f 575 640 576 
f 575 639 640 
f 576 577 513 
f 576 640 577 
