# Branch
v -3.75788 9.72848 -28.914
vn -0.439676 0.213961 0.872299
v -3.7361 9.72742 -28.9041
vn -0.350414 0.209591 0.912843
v -3.71349 9.72586 -28.8963
vn -0.257777 0.203203 0.944595
v -3.69028 9.72382 -28.8908
vn -0.162658 0.194857 0.96725
v -3.66668 9.72133 -28.8876
vn -0.0659726 0.184635 0.98059
v -3.64293 9.7184 -28.8866
vn 0.0313483 0.172635 0.984487
v -3.61926 9.71507 -28.888
vn 0.128367 0.158972 0.978902
v -3.59588 9.71136 -28.8916
vn 0.22415 0.143778 0.96389
v -3.57303 9.70731 -28.8976
vn 0.317774 0.1272 0.939596
v -3.55093 9.70297 -28.9057
vn 0.408338 0.109397 0.906252
v -3.52979 9.69836 -28.916
vn 0.494969 0.0905397 0.864181
v -3.50981 9.69355 -28.9283
vn 0.576833 0.0708108 0.813787
v -3.49119 9.68857 -28.9425
vn 0.653143 0.0504 0.755556
v -3.4741 9.68347 -28.9585
vn 0.723162 0.0295038 0.690048
v -3.45871 9.6783 -28.9761
vn 0.786216 0.00832342 0.617895
v -3.44517 9.67311 -28.9951
vn 0.841699 -0.0129371 0.539792
v -3.43361 9.66795 -29.0155
vn 0.889076 -0.034073 0.456489
v -3.42414 9.66288 -29.0369
vn 0.927891 -0.0548808 0.368791
v -3.41685 9.65793 -29.0591
vn 0.957769 -0.07516 0.277541
v -3.4118 9.65315 -29.0821
vn 0.978424 -0.0947155 0.183618
v -3.40906 9.6486 -29.1054
vn 0.989656 -0.113359 0.0879268
v -3.40865 9.64432 -29.129
vn 0.991357 -0.13091 -0.00861125
v -3.41056 9.64034 -29.1525
vn 0.98351 -0.147201 -0.105066
v -3.41479 9.63672 -29.1758
vn 0.966192 -0.162074 -0.20051
v -3.42129 9.63347 -29.1986
vn 0.939569 -0.175387 -0.294022
v -3.42999 9.63063 -29.2208
vn 0.903898 -0.18701 -0.384703
v -3.44082 9.62823 -29.242
vn 0.859521 -0.196832 -0.471678
v -3.45367 9.6263 -29.2621
vn 0.806867 -0.204759 -0.554112
v -3.46842 9.62485 -29.2809
vn 0.746442 -0.210713 -0.631208
v -3.48492 9.62389 -29.2982
vn 0.678829 -0.214639 -0.702226
v -3.50302 9.62343 -29.3139
vn 0.604678 -0.216497 -0.766482
v -3.52253 9.62349 -29.3278
vn 0.524703 -0.216271 -0.823355
v -3.54328 9.62405 -29.3398
vn 0.439676 -0.213961 -0.872299
v -3.56507 9.62512 -29.3496
vn 0.350414 -0.209591 -0.912843
v -3.58767 9.62668 -29.3574
vn 0.257777 -0.203203 -0.944595
v -3.61089 9.62871 -29.3629
vn 0.162658 -0.194857 -0.96725
v -3.63448 9.63121 -29.3662
vn 0.0659726 -0.184635 -0.98059
v -3.65823 9.63414 -29.3671
vn -0.0313483 -0.172635 -0.984487
v -3.68191 9.63747 -29.3658
vn -0.128367 -0.158972 -0.978902
v -3.70529 9.64118 -29.3621
vn -0.22415 -0.143778 -0.96389
v -3.72814 9.64523 -29.3562
vn -0.317774 -0.1272 -0.939596
v -3.75024 9.64957 -29.348
vn -0.408338 -0.109397 -0.906252
v -3.77138 9.65417 -29.3378
vn -0.494969 -0.0905397 -0.864181
v -3.79136 9.65899 -29.3255
vn -0.576833 -0.0708108 -0.813787
v -3.80998 9.66397 -29.3113
vn -0.653143 -0.0504 -0.755556
v -3.82707 9.66907 -29.2953
vn -0.723162 -0.0295038 -0.690048
v -3.84246 9.67424 -29.2777
vn -0.786216 -0.00832342 -0.617895
v -3.856 9.67943 -29.2586
vn -0.841699 0.0129371 -0.539792
v -3.86756 9.68458 -29.2383
vn -0.889076 0.034073 -0.456489
v -3.87703 9.68966 -29.2169
vn -0.927891 0.0548808 -0.368791
v -3.88432 9.69461 -29.1946
vn -0.957769 0.07516 -0.277541
v -3.88936 9.69938 -29.1717
vn -0.978424 0.0947155 -0.183618
v -3.8921 9.70393 -29.1483
vn -0.989656 0.113359 -0.0879268
v -3.89252 9.70822 -29.1248
vn -0.991357 0.13091 0.00861125
v -3.89061 9.71219 -29.1012
vn -0.98351 0.147201 0.105066
v -3.88638 9.71582 -29.0779
vn -0.966192 0.162074 0.20051
v -3.87988 9.71907 -29.0551
vn -0.939569 0.175387 0.294022
v -3.87118 9.72191 -29.033
vn -0.903898 0.18701 0.384703
v -3.86035 9.7243 -29.0118
vn -0.859521 0.196832 0.471678
v -3.8475 9.72624 -28.9916
vn -0.806867 0.204759 0.554112
v -3.83275 9.72769 -28.9728
vn -0.746442 0.210713 0.631208
v -3.81625 9.72865 -28.9555
vn -0.678829 0.214639 0.702226
v -3.79815 9.7291 -28.9398
vn -0.604678 0.216497 0.766482
v -3.77864 9.72905 -28.9259
vn -0.524703 0.216271 0.823355
v -3.99733 7.81565 -28.5904
vn -0.442249 0.193451 0.875781
v -3.97566 7.81461 -28.5806
vn -0.352975 0.18918 0.916308
v -3.95318 7.81313 -28.5729
vn -0.260301 0.183087 0.94801
v -3.93008 7.81123 -28.5674
vn -0.165121 0.17523 0.970582
v -3.9066 7.80891 -28.5642
vn -0.0683504 0.165687 0.983807
v -3.88295 7.80621 -28.5633
vn 0.0290785 0.154547 0.987557
v -3.85938 7.80314 -28.5647
vn 0.126227 0.141919 0.981797
v -3.8361 7.79975 -28.5684
vn 0.222161 0.127924 0.966582
v -3.81334 7.79605 -28.5743
vn 0.315954 0.112697 0.942057
v -3.79132 7.79209 -28.5825
vn 0.406705 0.0963854 0.908461
v -3.77025 7.78791 -28.5928
vn 0.493539 0.0791451 0.866115
v -3.75033 7.78354 -28.6051
vn 0.57562 0.0611426 0.815428
v -3.73176 7.77903 -28.6193
vn 0.652158 0.0425513 0.756888
v -3.71471 7.77442 -28.6352
vn 0.722415 0.0235501 0.691059
v -3.69935 7.76975 -28.6528
vn 0.785714 0.00432217 0.618575
v -3.68582 7.76508 -28.6719
vn 0.841447 -0.0149474 0.540133
v -3.67427 7.76044 -28.6922
vn 0.889076 -0.034073 0.456489
v -3.66479 7.75588 -28.7135
vn 0.928143 -0.0528705 0.36845
v -3.65748 7.75144 -28.7358
vn 0.958271 -0.0711588 0.276862
v -3.6524 7.74717 -28.7586
vn 0.979171 -0.0887618 0.182607
v -3.64962 7.7431 -28.7819
vn 0.990641 -0.10551 0.0865944
v -3.64915 7.73928 -28.8054
vn 0.99257 -0.121242 -0.0102525
v -3.651 7.73575 -28.8289
vn 0.98494 -0.135806 -0.107001
v -3.65516 7.73253 -28.8521
vn 0.967825 -0.149063 -0.202718
v -3.66157 7.72967 -28.8749
vn 0.941389 -0.160884 -0.296484
v -3.67019 7.72717 -28.8969
vn 0.905887 -0.171156 -0.387394
v -3.68092 7.72508 -28.9181
vn 0.861661 -0.179779 -0.474573
v -3.69366 7.72341 -28.9381
vn 0.809137 -0.186671 -0.557182
v -3.7083 7.72217 -28.9569
vn 0.74882 -0.191765 -0.634425
v -3.72469 7.72138 -28.9741
vn 0.681291 -0.195012 -0.705558
v -3.74267 7.72105 -28.9898
vn 0.607202 -0.196382 -0.769896
v -3.76206 7.72118 -29.0036
vn 0.527264 -0.19586 -0.82682
v -3.78269 7.72176 -29.0155
vn 0.442249 -0.193451 -0.875781
v -3.80436 7.7228 -29.0253
vn 0.352975 -0.18918 -0.916308
v -3.82685 7.72428 -29.033
vn 0.260301 -0.183087 -0.94801
v -3.84994 7.72618 -29.0385
vn 0.165121 -0.17523 -0.970582
v -3.87342 7.7285 -29.0417
vn 0.0683504 -0.165687 -0.983807
v -3.89707 7.7312 -29.0426
vn -0.0290785 -0.154547 -0.987557
v -3.92064 7.73427 -29.0412
vn -0.126227 -0.141919 -0.981797
v -3.94392 7.73766 -29.0375
vn -0.222161 -0.127924 -0.966582
v -3.96668 7.74136 -29.0315
vn -0.315954 -0.112697 -0.942057
v -3.9887 7.74532 -29.0234
vn -0.406705 -0.0963854 -0.908461
v -4.00977 7.7495 -29.0131
vn -0.493539 -0.0791451 -0.866115
v -4.02969 7.75387 -29.0008
vn -0.57562 -0.0611426 -0.815428
v -4.04826 7.75838 -28.9866
vn -0.652158 -0.0425513 -0.756888
v -4.06531 7.76299 -28.9706
vn -0.722415 -0.0235501 -0.691059
v -4.08067 7.76766 -28.953
vn -0.785714 -0.00432217 -0.618575
v -4.0942 7.77233 -28.934
vn -0.841447 0.0149474 -0.540133
v -4.10575 7.77697 -28.9137
vn -0.889076 0.034073 -0.456489
v -4.11523 7.78154 -28.8923
vn -0.928143 0.0528705 -0.36845
v -4.12255 7.78597 -28.8701
vn -0.958271 0.0711588 -0.276862
v -4.12762 7.79024 -28.8472
vn -0.979171 0.0887618 -0.182607
v -4.1304 7.79431 -28.824
vn -0.990641 0.10551 -0.0865944
v -4.13087 7.79813 -28.8005
vn -0.99257 0.121242 0.0102525
v -4.12902 7.80166 -28.777
vn -0.98494 0.135806 0.107001
v -4.12486 7.80488 -28.7537
vn -0.967825 0.149063 0.202718
v -4.11845 7.80775 -28.731
vn -0.941389 0.160884 0.296484
v -4.10983 7.81024 -28.7089
vn -0.905887 0.171156 0.387394
v -4.0991 7.81233 -28.6878
vn -0.861661 0.179779 0.474573
v -4.08636 7.814 -28.6677
vn -0.809137 0.186671 0.557182
v -4.07172 7.81524 -28.649
vn -0.74882 0.191765 0.634425
v -4.05533 7.81603 -28.6317
vn -0.681291 0.195012 0.705558
v -4.03735 7.81636 -28.6161
vn -0.607202 0.196382 0.769896
v -4.01796 7.81623 -28.6023
vn -0.527264 0.19586 0.82682
v -4.21578 5.91774 -28.3066
vn -0.444684 0.172352 0.878949
v -4.19423 5.91673 -28.2968
vn -0.355398 0.168182 0.91946
v -4.17187 5.91533 -28.2892
vn -0.26269 0.162393 0.951117
v -4.14889 5.91356 -28.2838
vn -0.167451 0.15504 0.973613
v -4.12552 5.91142 -28.2806
vn -0.0706001 0.146193 0.986734
v -4.10199 5.90895 -28.2797
vn 0.026931 0.135939 0.990351
v -4.07852 5.90616 -28.2812
vn 0.124203 0.124375 0.984431
v -4.05534 5.90308 -28.2849
vn 0.220278 0.111614 0.96903
v -4.03267 5.89974 -28.2909
vn 0.314232 0.0977779 0.944297
v -4.01073 5.89618 -28.299
vn 0.40516 0.0830001 0.91047
v -3.98973 5.89242 -28.3093
vn 0.492186 0.0674229 0.867875
v -3.96988 5.8885 -28.3216
vn 0.574472 0.0511964 0.816921
v -3.95136 5.88447 -28.3358
vn 0.651226 0.0344768 0.7581
v -3.93435 5.88036 -28.3517
vn 0.721708 0.0174253 0.691979
v -3.91902 5.8762 -28.3693
vn 0.785239 0.000205871 0.619193
v -3.90552 5.87205 -28.3883
vn 0.841208 -0.0170155 0.540443
v -3.89397 5.86793 -28.4086
vn 0.889076 -0.034073 0.456489
v -3.88449 5.86389 -28.4299
vn 0.928382 -0.0508024 0.368139
v -3.87716 5.85998 -28.452
vn 0.958746 -0.0670425 0.276244
v -3.87206 5.85621 -28.4749
vn 0.979878 -0.0826369 0.181688
v -3.86924 5.85264 -28.4981
vn 0.991573 -0.0974356 0.0853822
v -3.86872 5.8493 -28.5215
vn 0.993718 -0.111296 -0.0117457
v -3.87052 5.84621 -28.5449
vn 0.986293 -0.124084 -0.108761
v -3.8746 5.84342 -28.5681
vn 0.96937 -0.135678 -0.204728
v -3.88093 5.84093 -28.5908
vn 0.943111 -0.145964 -0.298724
v -3.88946 5.83879 -28.6128
vn 0.90777 -0.154845 -0.389843
v -3.9001 5.83701 -28.6338
vn 0.863686 -0.162235 -0.477207
v -3.91274 5.8356 -28.6538
vn 0.811284 -0.168063 -0.559976
v -3.92727 5.83459 -28.6725
vn 0.751069 -0.172272 -0.637352
v -3.94354 5.83397 -28.6897
vn 0.683622 -0.174821 -0.708589
v -3.9614 5.83376 -28.7052
vn 0.60959 -0.175687 -0.773003
v -3.98068 5.83396 -28.7189
vn 0.529688 -0.174862 -0.829972
v -4.00119 5.83457 -28.7308
vn 0.444684 -0.172352 -0.878949
v -4.02274 5.83557 -28.7405
vn 0.355398 -0.168182 -0.91946
v -4.0451 5.83697 -28.7482
vn 0.26269 -0.162393 -0.951117
v -4.06808 5.83874 -28.7536
vn 0.167451 -0.15504 -0.973613
v -4.09145 5.84088 -28.7568
vn 0.0706001 -0.146193 -0.986734
v -4.11498 5.84335 -28.7576
vn -0.026931 -0.135939 -0.990351
v -4.13845 5.84614 -28.7562
vn -0.124203 -0.124375 -0.984431
v -4.16163 5.84922 -28.7525
vn -0.220278 -0.111614 -0.96903
v -4.1843 5.85256 -28.7465
vn -0.314232 -0.0977779 -0.944297
v -4.20624 5.85612 -28.7384
vn -0.40516 -0.0830001 -0.91047
v -4.22724 5.85988 -28.7281
vn -0.492186 -0.0674229 -0.867875
v -4.24709 5.8638 -28.7158
vn -0.574472 -0.0511964 -0.816921
v -4.26561 5.86783 -28.7016
vn -0.651226 -0.0344768 -0.7581
v -4.28262 5.87195 -28.6856
vn -0.721708 -0.0174253 -0.691979
v -4.29795 5.8761 -28.6681
vn -0.785239 -0.000205871 -0.619193
v -4.31145 5.88026 -28.6491
vn -0.841208 0.0170155 -0.540443
v -4.323 5.88437 -28.6288
vn -0.889076 0.034073 -0.456489
v -4.33248 5.88841 -28.6075
vn -0.928382 0.0508024 -0.368139
v -4.33981 5.89233 -28.5853
vn -0.958746 0.0670425 -0.276244
v -4.34491 5.89609 -28.5625
vn -0.979878 0.0826369 -0.181688
v -4.34773 5.89966 -28.5393
vn -0.991573 0.0974356 -0.0853822
v -4.34825 5.903 -28.5159
vn -0.993718 0.111296 0.0117457
v -4.34645 5.90609 -28.4924
vn -0.986293 0.124084 0.108761
v -4.34237 5.90889 -28.4693
vn -0.96937 0.135678 0.204728
v -4.33604 5.91137 -28.4466
vn -0.943111 0.145964 0.298724
v -4.32751 5.91351 -28.4246
vn -0.90777 0.154845 0.389843
v -4.31687 5.91529 -28.4036
vn -0.863686 0.162235 0.477207
v -4.30423 5.9167 -28.3836
vn -0.811284 0.168063 0.559976
v -4.2897 5.91772 -28.3649
vn -0.751069 0.172272 0.637352
v -4.27343 5.91833 -28.3477
vn -0.683622 0.174821 0.708589
v -4.25557 5.91854 -28.3322
vn -0.60959 0.175687 0.773003
v -4.23629 5.91834 -28.3184
vn -0.529688 0.174862 0.829972
v -4.41323 4.03475 -28.0626
vn -0.446965 0.150668 0.881772
v -4.39181 4.03377 -28.0529
vn -0.357668 0.146603 0.92227
v -4.36956 4.03246 -28.0453
vn -0.264926 0.141125 0.953886
v -4.3467 4.03082 -28.0399
vn -0.169634 0.134289 0.976315
v -4.32345 4.02887 -28.0368
vn -0.072707 0.12616 0.989342
v -4.30003 4.02663 -28.036
vn 0.0249197 0.116815 0.992841
v -4.27667 4.02412 -28.0374
vn 0.122306 0.106346 0.986778
v -4.25359 4.02136 -28.0411
vn 0.218515 0.0948521 0.971213
v -4.23101 4.01838 -28.0471
vn 0.31262 0.082445 0.946294
v -4.20916 4.01522 -28.0553
vn 0.403714 0.0692439 0.912261
v -4.18824 4.01189 -28.0656
vn 0.490919 0.0553759 0.869443
v -4.16845 4.00843 -28.0778
vn 0.573397 0.0409746 0.818252
v -4.14999 4.00489 -28.092
vn 0.650353 0.0261787 0.759181
v -4.13303 4.00128 -28.1079
vn 0.721046 0.0111307 0.692798
v -4.11774 3.99764 -28.1255
vn 0.784794 -0.00402447 0.619743
v -4.10426 3.99401 -28.1444
vn 0.840985 -0.0191409 0.54072
v -4.09273 3.99043 -28.1646
vn 0.889076 -0.034073 0.456489
v -4.08324 3.98693 -28.1859
vn 0.928605 -0.048677 0.367863
v -4.07591 3.98354 -28.208
vn 0.959191 -0.0628121 0.275693
v -4.07078 3.98029 -28.2307
vn 0.98054 -0.0763424 0.180868
v -4.06793 3.97722 -28.2539
vn 0.992445 -0.0891374 0.0843018
v -4.06736 3.97436 -28.2773
vn 0.994793 -0.101074 -0.0130766
v -4.0691 3.97173 -28.3006
vn 0.98756 -0.112037 -0.110329
v -4.07312 3.96936 -28.3237
vn 0.970817 -0.121921 -0.206519
v -4.07938 3.96727 -28.3463
vn 0.944724 -0.130632 -0.30072
v -4.08782 3.96548 -28.3682
vn 0.909532 -0.138084 -0.392025
v -4.09836 3.96401 -28.3892
vn 0.865582 -0.144206 -0.479555
v -4.1109 3.96288 -28.4091
vn 0.813295 -0.148939 -0.562466
v -4.12533 3.96208 -28.4277
vn 0.753176 -0.152238 -0.63996
v -4.14149 3.96164 -28.4448
vn 0.685804 -0.154071 -0.711291
v -4.15924 3.96156 -28.4602
vn 0.611827 -0.15442 -0.775772
v -4.1784 3.96183 -28.4739
vn 0.531957 -0.153282 -0.832782
v -4.19878 3.96246 -28.4857
vn 0.446965 -0.150668 -0.881772
v -4.22021 3.96344 -28.4954
vn 0.357668 -0.146603 -0.92227
v -4.24245 3.96475 -28.503
vn 0.264926 -0.141125 -0.953886
v -4.26531 3.96639 -28.5083
vn 0.169634 -0.134289 -0.976315
v -4.28857 3.96834 -28.5115
vn 0.072707 -0.12616 -0.989342
v -4.31199 3.97058 -28.5123
vn -0.0249197 -0.116815 -0.992841
v -4.33535 3.97309 -28.5109
vn -0.122306 -0.106346 -0.986778
v -4.35843 3.97585 -28.5071
vn -0.218515 -0.0948521 -0.971213
v -4.381 3.97883 -28.5011
vn -0.31262 -0.082445 -0.946294
v -4.40286 3.98199 -28.493
vn -0.403714 -0.0692439 -0.912261
v -4.42378 3.98532 -28.4827
vn -0.490919 -0.0553759 -0.869443
v -4.44356 3.98878 -28.4704
vn -0.573397 -0.0409746 -0.818252
v -4.46202 3.99232 -28.4563
vn -0.650353 -0.0261787 -0.759181
v -4.47898 3.99593 -28.4403
vn -0.721046 -0.0111307 -0.692798
v -4.49428 3.99957 -28.4228
vn -0.784794 0.00402447 -0.619743
v -4.50775 4.0032 -28.4038
vn -0.840985 0.0191409 -0.54072
v -4.51929 4.00678 -28.3836
vn -0.889076 0.034073 -0.456489
v -4.52877 4.01028 -28.3624
vn -0.928605 0.048677 -0.367863
v -4.53611 4.01367 -28.3403
vn -0.959191 0.0628121 -0.275693
v -4.54123 4.01692 -28.3175
vn -0.98054 0.0763424 -0.180868
v -4.54409 4.01999 -28.2944
vn -0.992445 0.0891374 -0.0843018
v -4.54465 4.02285 -28.271
vn -0.994793 0.101074 0.0130766
v -4.54292 4.02548 -28.2477
vn -0.98756 0.112037 0.110329
v -4.5389 4.02785 -28.2246
vn -0.970817 0.121921 0.206519
v -4.53264 4.02994 -28.202
vn -0.944724 0.130632 0.30072
v -4.5242 4.03173 -28.1801
vn -0.909532 0.138084 0.392025
v -4.51366 4.0332 -28.1591
vn -0.865582 0.144206 0.479555
v -4.50111 4.03433 -28.1392
vn -0.813295 0.148939 0.562466
v -4.48669 4.03513 -28.1206
vn -0.753176 0.152238 0.63996
v -4.47053 4.03557 -28.1035
vn -0.685804 0.154071 0.711291
v -4.45278 4.03565 -28.088
vn -0.611827 0.15442 0.775772
v -4.43362 4.03538 -28.0744
vn -0.531957 0.153282 0.832782
v -4.58969 2.16669 -27.8584
vn -0.449075 0.128408 0.884219
v -4.56839 2.16575 -27.8487
vn -0.359767 0.12445 0.924705
v -4.54626 2.16452 -27.8412
vn -0.266996 0.119293 0.956286
v -4.52352 2.16302 -27.8358
vn -0.171652 0.112988 0.978657
v -4.50039 2.16125 -27.8327
vn -0.0746561 0.105594 0.991603
v -4.47708 2.15925 -27.8319
vn 0.0230592 0.0971837 0.994999
v -4.45383 2.15702 -27.8334
vn 0.120552 0.0878373 0.988813
v -4.43085 2.15459 -27.8372
vn 0.216885 0.0776449 0.973104
v -4.40837 2.15198 -27.8431
vn 0.311128 0.0667048 0.948024
v -4.38661 2.14922 -27.8513
vn 0.402375 0.0551223 0.913814
v -4.36577 2.14633 -27.8616
vn 0.489747 0.0430089 0.870803
v -4.34606 2.14334 -27.8738
vn 0.572403 0.0304813 0.819406
v -4.32766 2.14028 -27.888
vn 0.649546 0.0176602 0.760117
v -4.31075 2.13718 -27.9038
vn 0.720433 0.00466899 0.693508
v -4.2955 2.13407 -27.9213
vn 0.784383 -0.00836718 0.620221
v -4.28205 2.13098 -27.9402
vn 0.840778 -0.0213228 0.54096
v -4.27053 2.12794 -27.9604
vn 0.889076 -0.034073 0.456489
v -4.26105 2.12498 -27.9816
vn 0.928812 -0.0464951 0.367623
v -4.25371 2.12212 -28.0036
vn 0.959603 -0.0584694 0.275216
v -4.24857 2.1194 -28.0263
vn 0.981152 -0.0698807 0.180158
v -4.24568 2.11684 -28.0494
vn 0.993253 -0.0806189 0.0833653
v -4.24508 2.11446 -28.0726
vn 0.995787 -0.0905808 -0.0142302
v -4.24676 2.1123 -28.0959
vn 0.988732 -0.0996702 -0.111689
v -4.25071 2.11036 -28.1189
vn 0.972155 -0.1078 -0.208072
v -4.2569 2.10867 -28.1414
vn 0.946215 -0.114891 -0.302451
v -4.26526 2.10724 -28.1632
vn 0.911163 -0.120876 -0.393917
v -4.27571 2.10609 -28.1841
vn 0.867336 -0.125697 -0.481589
v -4.28816 2.10523 -28.2039
vn 0.815156 -0.129308 -0.564624
v -4.30248 2.10466 -28.2224
vn 0.755126 -0.131673 -0.642221
v -4.31853 2.1044 -28.2395
vn 0.687823 -0.13277 -0.713633
v -4.33616 2.10444 -28.2549
vn 0.613896 -0.132588 -0.778172
v -4.3552 2.10479 -28.2685
vn 0.534057 -0.131129 -0.835218
v -4.37547 2.10544 -28.2801
vn 0.449075 -0.128408 -0.884219
v -4.39677 2.10639 -28.2898
vn 0.359767 -0.12445 -0.924705
v -4.4189 2.10762 -28.2973
vn 0.266996 -0.119293 -0.956286
v -4.44164 2.10912 -28.3027
vn 0.171652 -0.112988 -0.978657
v -4.46478 2.11088 -28.3058
vn 0.0746561 -0.105594 -0.991603
v -4.48808 2.11289 -28.3066
vn -0.0230592 -0.0971837 -0.994999
v -4.51133 2.11512 -28.3051
vn -0.120552 -0.0878373 -0.988813
v -4.53431 2.11755 -28.3013
vn -0.216885 -0.0776449 -0.973104
v -4.55679 2.12016 -28.2954
vn -0.311128 -0.0667048 -0.948024
v -4.57855 2.12292 -28.2872
vn -0.402375 -0.0551223 -0.913814
v -4.59939 2.12581 -28.2769
vn -0.489747 -0.0430089 -0.870803
v -4.6191 2.1288 -28.2647
vn -0.572403 -0.0304813 -0.819406
v -4.6375 2.13186 -28.2505
vn -0.649546 -0.0176602 -0.760117
v -4.65441 2.13495 -28.2347
vn -0.720433 -0.00466899 -0.693508
v -4.66966 2.13806 -28.2172
vn -0.784383 0.00836718 -0.620221
v -4.68311 2.14115 -28.1983
vn -0.840778 0.0213228 -0.54096
v -4.69463 2.14419 -28.1781
vn -0.889076 0.034073 -0.456489
v -4.70411 2.14716 -28.1569
vn -0.928812 0.0464951 -0.367623
v -4.71145 2.15001 -28.1349
vn -0.959603 0.0584694 -0.275216
v -4.71659 2.15274 -28.1122
vn -0.981152 0.0698807 -0.180158
v -4.71948 2.1553 -28.0891
vn -0.993253 0.0806189 -0.0833653
v -4.72009 2.15767 -28.0659
vn -0.995787 0.0905808 0.0142302
v -4.7184 2.15984 -28.0426
vn -0.988732 0.0996702 0.111689
v -4.71445 2.16178 -28.0196
vn -0.972155 0.1078 0.208072
v -4.70826 2.16347 -27.9971
vn -0.946215 0.114891 0.302451
v -4.6999 2.1649 -27.9753
vn -0.911163 0.120876 0.393917
v -4.68945 2.16605 -27.9544
vn -0.867336 0.125697 0.481589
v -4.677 2.16691 -27.9346
vn -0.815156 0.129308 0.564624
v -4.66269 2.16747 -27.9161
vn -0.755126 0.131673 0.642221
v -4.64663 2.16773 -27.899
vn -0.687823 0.13277 0.713633
v -4.629 2.16769 -27.8837
vn -0.613896 0.132588 0.778172
v -4.60996 2.16734 -27.87
vn -0.534057 0.131129 0.835218
v -4.74514 0.313576 -27.6939
vn -0.450996 0.105584 0.886259
v -4.72397 0.312664 -27.6843
vn -0.36168 0.101736 0.926735
v -4.70196 0.311519 -27.6768
vn -0.26888 0.096908 0.958286
v -4.67934 0.310153 -27.6715
vn -0.173491 0.0911468 0.980608
v -4.65633 0.308578 -27.6685
vn -0.0764316 0.0845078 0.993487
v -4.63314 0.306811 -27.6677
vn 0.0213643 0.0770549 0.996798
v -4.61 0.304868 -27.6692
vn 0.118954 0.06886 0.990509
v -4.58713 0.302767 -27.6729
vn 0.215399 0.0600019 0.974681
v -4.56475 0.30053 -27.6789
vn 0.309769 0.050566 0.949466
v -4.54308 0.298177 -27.6871
vn 0.401156 0.040643 0.915108
v -4.52232 0.295731 -27.6973
vn 0.48868 0.0303287 0.871936
v -4.50269 0.293216 -27.7095
vn 0.571497 0.0197223 0.820367
v -4.48435 0.290656 -27.7236
vn 0.64881 0.00892592 0.760898
v -4.4675 0.288076 -27.7395
vn 0.719875 -0.0019564 0.6941
v -4.45229 0.2855 -27.7569
vn 0.784008 -0.0128199 0.620619
v -4.43888 0.282953 -27.7757
vn 0.84059 -0.0235599 0.54116
v -4.42738 0.28046 -27.7958
vn 0.889076 -0.034073 0.456489
v -4.41791 0.278045 -27.8169
vn 0.929 -0.044258 0.367423
v -4.41057 0.275731 -27.8389
vn 0.959978 -0.0540167 0.274818
v -4.40541 0.27354 -27.8615
vn 0.98171 -0.0632553 0.179566
v -4.4025 0.271494 -27.8845
vn 0.993988 -0.0718846 0.0825848
v -4.40186 0.269612 -27.9077
vn 0.996693 -0.0798217 -0.0151916
v -4.4035 0.267912 -27.9308
vn 0.9898 -0.08699 -0.112822
v -4.40739 0.266411 -27.9537
vn 0.973374 -0.0933206 -0.209365
v -4.41351 0.265123 -27.9761
vn 0.947574 -0.0987525 -0.303893
v -4.42179 0.26406 -27.9978
vn 0.912649 -0.103233 -0.395493
v -4.43216 0.263234 -28.0187
vn 0.868934 -0.10672 -0.483285
v -4.44451 0.26265 -28.0384
vn 0.816851 -0.109179 -0.566423
v -4.45872 0.262317 -28.0568
vn 0.756901 -0.110586 -0.644105
v -4.47467 0.262236 -28.0737
vn 0.689662 -0.110929 -0.715585
v -4.49219 0.262408 -28.0891
vn 0.615781 -0.110203 -0.780173
v -4.51111 0.262831 -28.1026
vn 0.535969 -0.108415 -0.837247
v -4.53126 0.263503 -28.1142
vn 0.450996 -0.105584 -0.886259
v -4.55244 0.264415 -28.1238
vn 0.36168 -0.101736 -0.926735
v -4.57444 0.26556 -28.1313
vn 0.26888 -0.096908 -0.958286
v -4.59706 0.266926 -28.1366
vn 0.173491 -0.0911468 -0.980608
v -4.62008 0.268501 -28.1396
vn 0.0764316 -0.0845078 -0.993487
v -4.64327 0.270268 -28.1404
vn -0.0213643 -0.0770549 -0.996798
v -4.66641 0.272211 -28.1389
vn -0.118954 -0.06886 -0.990509
v -4.68928 0.274312 -28.1352
vn -0.215399 -0.0600019 -0.974681
v -4.71166 0.276549 -28.1292
vn -0.309769 -0.050566 -0.949466
v -4.73333 0.278902 -28.1211
vn -0.401156 -0.040643 -0.915108
v -4.75408 0.281348 -28.1108
vn -0.48868 -0.0303287 -0.871936
v -4.77372 0.283863 -28.0986
vn -0.571497 -0.0197223 -0.820367
v -4.79205 0.286423 -28.0845
vn -0.64881 -0.00892592 -0.760898
v -4.8089 0.289003 -28.0686
vn -0.719875 0.0019564 -0.6941
v -4.82411 0.291579 -28.0512
vn -0.784008 0.0128199 -0.620619
v -4.83753 0.294126 -28.0324
vn -0.84059 0.0235599 -0.54116
v -4.84902 0.296619 -28.0123
vn -0.889076 0.034073 -0.456489
v -4.85849 0.299034 -27.9912
vn -0.929 0.044258 -0.367423
v -4.86584 0.301348 -27.9692
vn -0.959978 0.0540167 -0.274818
v -4.87099 0.303539 -27.9466
vn -0.98171 0.0632553 -0.179566
v -4.8739 0.305585 -27.9236
vn -0.993988 0.0718846 -0.0825848
v -4.87454 0.307467 -27.9005
vn -0.996693 0.0798217 0.0151916
v -4.87291 0.309167 -27.8773
vn -0.9898 0.08699 0.112822
v -4.86901 0.310668 -27.8544
vn -0.973374 0.0933206 0.209365
v -4.8629 0.311956 -27.832
vn -0.947574 0.0987525 0.303893
v -4.85461 0.313019 -27.8103
vn -0.912649 0.103233 0.395493
v -4.84425 0.313845 -27.7895
vn -0.868934 0.10672 0.483285
v -4.8319 0.314428 -27.7697
vn -0.816851 0.109179 0.566423
v -4.81768 0.314762 -27.7513
vn -0.756901 0.110586 0.644105
v -4.80174 0.314843 -27.7344
vn -0.689662 0.110929 0.715585
v -4.78422 0.314671 -27.7191
vn -0.615781 0.110203 0.780173
v -4.76529 0.314247 -27.7055
vn -0.535969 0.108415 0.837247
v -4.8796 -1.5246 -27.5692
vn -0.452713 0.0822126 0.887858
v -4.85854 -1.52548 -27.5597
vn -0.363389 0.078477 0.928326
v -4.83666 -1.52654 -27.5523
vn -0.270564 0.0739856 0.959855
v -4.81416 -1.52777 -27.547
vn -0.175134 0.0687817 0.982139
v -4.79126 -1.52915 -27.544
vn -0.0780178 0.0629154 0.994965
v -4.76819 -1.53067 -27.5432
vn 0.0198501 0.0564432 0.998208
v -4.74517 -1.53233 -27.5447
vn 0.117527 0.0494274 0.991839
v -4.72241 -1.53409 -27.5485
vn 0.214072 0.0419355 0.975917
v -4.70013 -1.53596 -27.5545
vn 0.308555 0.0340399 0.950597
v -4.67856 -1.53789 -27.5626
vn 0.400067 0.0258164 0.916122
v -4.6579 -1.53989 -27.5728
vn 0.487726 0.0173442 0.872825
v -4.63834 -1.54193 -27.585
vn 0.570688 0.00870506 0.821121
v -4.62008 -1.54398 -27.599
vn 0.648153 -1.79412e-05 0.76151
v -4.60329 -1.54604 -27.6148
vn 0.719377 -0.00874077 0.694565
v -4.58813 -1.54808 -27.6322
vn 0.783673 -0.0173794 0.620931
v -4.57475 -1.55007 -27.6509
vn 0.840421 -0.0258507 0.541317
v -4.56328 -1.55201 -27.6709
vn 0.889076 -0.034073 0.456489
v -4.55383 -1.55387 -27.692
vn 0.929169 -0.0419672 0.367266
v -4.54649 -1.55564 -27.7138
vn 0.960313 -0.0494572 0.274506
v -4.54133 -1.55729 -27.7363
vn 0.982209 -0.0564709 0.179102
v -4.53839 -1.55882 -27.7592
vn 0.994645 -0.0629408 0.0819728
v -4.53772 -1.5602 -27.7823
vn 0.997503 -0.0688045 -0.0159456
v -4.53931 -1.56143 -27.8054
vn 0.990754 -0.0740056 -0.11371
v -4.54315 -1.56248 -27.8281
vn 0.974463 -0.0784939 -0.21038
v -4.5492 -1.56336 -27.8505
vn 0.948788 -0.0822264 -0.305024
v -4.55741 -1.56406 -27.8721
vn 0.913976 -0.0851669 -0.39673
v -4.56769 -1.56456 -27.8928
vn 0.870362 -0.0872873 -0.484615
v -4.57995 -1.56486 -27.9124
vn 0.818365 -0.088567 -0.567833
v -4.59407 -1.56496 -27.9307
vn 0.758487 -0.0889938 -0.645583
v -4.6099 -1.56486 -27.9476
vn 0.691305 -0.0885635 -0.717115
v -4.62731 -1.56456 -27.9628
vn 0.617465 -0.0872803 -0.781741
v -4.64612 -1.56406 -27.9763
vn 0.537678 -0.0851565 -0.838839
v -4.66615 -1.56336 -27.9879
vn 0.452713 -0.0822126 -0.887858
v -4.68721 -1.56248 -27.9974
vn 0.363389 -0.078477 -0.928326
v -4.70909 -1.56142 -28.0048
vn 0.270564 -0.0739856 -0.959855
v -4.73159 -1.56019 -28.0101
vn 0.175134 -0.0687817 -0.982139
v -4.75448 -1.55881 -28.0131
vn 0.0780178 -0.0629154 -0.994965
v -4.77755 -1.55729 -28.0139
vn -0.0198501 -0.0564432 -0.998208
v -4.80058 -1.55563 -28.0124
vn -0.117527 -0.0494274 -0.991839
v -4.82334 -1.55387 -28.0086
vn -0.214072 -0.0419355 -0.975917
v -4.84561 -1.552 -28.0026
vn -0.308555 -0.0340399 -0.950597
v -4.86718 -1.55007 -27.9945
vn -0.400067 -0.0258164 -0.916122
v -4.88785 -1.54807 -27.9843
vn -0.487726 -0.0173442 -0.872825
v -4.90741 -1.54603 -27.9721
vn -0.570688 -0.00870506 -0.821121
v -4.92567 -1.54398 -27.9581
vn -0.648153 1.79412e-05 -0.76151
v -4.94246 -1.54192 -27.9423
vn -0.719377 0.00874077 -0.694565
v -4.95762 -1.53988 -27.9249
vn -0.783673 0.0173794 -0.620931
v -4.97099 -1.53789 -27.9062
vn -0.840421 0.0258507 -0.541317
v -4.98246 -1.53595 -27.8862
vn -0.889076 0.034073 -0.456489
v -4.99192 -1.53409 -27.8651
vn -0.929169 0.0419672 -0.367266
v -4.99926 -1.53232 -27.8433
vn -0.960313 0.0494572 -0.274506
v -5.00442 -1.53067 -27.8208
vn -0.982209 0.0564709 -0.179102
v -5.00735 -1.52914 -27.7979
vn -0.994645 0.0629408 -0.0819728
v -5.00802 -1.52776 -27.7748
vn -0.997503 0.0688045 0.0159456
v -5.00643 -1.52653 -27.7517
vn -0.990754 0.0740056 0.11371
v -5.00259 -1.52548 -27.729
vn -0.974463 0.0784939 0.21038
v -4.99654 -1.5246 -27.7066
vn -0.948788 0.0822264 0.305024
v -4.98833 -1.5239 -27.685
vn -0.913976 0.0851669 0.39673
v -4.97805 -1.5234 -27.6643
vn -0.870362 0.0872873 0.484615
v -4.96579 -1.5231 -27.6447
vn -0.818365 0.088567 0.567833
v -4.95168 -1.523 -27.6264
vn -0.758487 0.0889938 0.645583
v -4.93584 -1.5231 -27.6095
vn -0.691305 0.0885635 0.717115
v -4.91843 -1.5234 -27.5943
vn -0.617465 0.0872803 0.781741
v -4.89963 -1.52391 -27.5808
vn -0.537678 0.0851565 0.838839
v -4.99304 -3.34783 -27.4844
vn -0.454208 0.0583139 0.888985
v -4.9721 -3.34867 -27.4749
vn -0.364876 0.0546933 0.929448
v -4.95034 -3.34965 -27.4675
vn -0.27203 0.0505461 0.96096
v -4.92797 -3.35073 -27.4623
vn -0.176565 0.045912 0.983218
v -4.9052 -3.35192 -27.4593
vn -0.0793987 0.0408358 0.996006
v -4.88225 -3.3532 -27.4586
vn 0.0185319 0.0353663 0.999203
v -4.85934 -3.35456 -27.4601
vn 0.116284 0.0295562 0.992776
v -4.83669 -3.35599 -27.4638
vn 0.212916 0.0234615 0.976789
v -4.81453 -3.35747 -27.4698
vn 0.307498 0.0171409 0.951394
v -4.79306 -3.35899 -27.4779
vn 0.399119 0.0106551 0.916837
v -4.77248 -3.36054 -27.488
vn 0.486895 0.00406677 0.873451
v -4.75301 -3.36209 -27.5002
vn 0.569983 -0.00256075 0.821652
v -4.73483 -3.36364 -27.5142
vn 0.647581 -0.00916361 0.761941
v -4.7181 -3.36517 -27.5299
vn 0.718943 -0.0156782 0.694892
v -4.703 -3.36666 -27.5472
vn 0.783381 -0.0220418 0.621151
v -4.68967 -3.3681 -27.5658
vn 0.840275 -0.0281932 0.541427
v -4.67823 -3.36948 -27.5858
vn 0.889076 -0.034073 0.456489
v -4.6688 -3.37078 -27.6067
vn 0.929315 -0.0396247 0.367156
v -4.66147 -3.37199 -27.6285
vn 0.960604 -0.0447948 0.274286
v -4.6563 -3.3731 -27.6508
vn 0.982642 -0.0495335 0.178774
v -4.65336 -3.3741 -27.6736
vn 0.995217 -0.0537951 0.0815414
v -4.65266 -3.37498 -27.6966
vn 0.998207 -0.0575387 -0.0164769
v -4.65421 -3.37572 -27.7195
vn 0.991584 -0.0607281 -0.114337
v -4.658 -3.37633 -27.7422
vn 0.975412 -0.0633327 -0.211095
v -4.66399 -3.3768 -27.7644
vn 0.949845 -0.0653274 -0.305821
v -4.67212 -3.37712 -27.7859
vn 0.915131 -0.0666929 -0.397601
v -4.68233 -3.37729 -27.8065
vn 0.871604 -0.0674161 -0.485552
v -4.69449 -3.37731 -27.826
vn 0.819683 -0.0674901 -0.568827
v -4.70851 -3.37717 -27.8443
vn 0.759868 -0.0669142 -0.646624
v -4.72424 -3.37689 -27.861
vn 0.692735 -0.0656938 -0.718194
v -4.74154 -3.37645 -27.8762
vn 0.618931 -0.0638407 -0.782847
v -4.76023 -3.37587 -27.8896
vn 0.539166 -0.0613728 -0.839961
v -4.78014 -3.37516 -27.9011
vn 0.454208 -0.0583139 -0.888985
v -4.80108 -3.37431 -27.9106
vn 0.364876 -0.0546933 -0.929448
v -4.82284 -3.37334 -27.9179
vn 0.27203 -0.0505461 -0.96096
v -4.84521 -3.37225 -27.9232
vn 0.176565 -0.045912 -0.983218
v -4.86798 -3.37106 -27.9262
vn 0.0793987 -0.0408358 -0.996006
v -4.89093 -3.36978 -27.9269
vn -0.0185319 -0.0353663 -0.999203
v -4.91384 -3.36842 -27.9254
vn -0.116284 -0.0295562 -0.992776
v -4.93649 -3.36699 -27.9216
vn -0.212916 -0.0234615 -0.976789
v -4.95866 -3.36551 -27.9157
vn -0.307498 -0.0171409 -0.951394
v -4.98013 -3.36399 -27.9076
vn -0.399119 -0.0106551 -0.916837
v -5.0007 -3.36244 -27.8974
vn -0.486895 -0.00406677 -0.873451
v -5.02017 -3.36089 -27.8853
vn -0.569983 0.00256075 -0.821652
v -5.03836 -3.35934 -27.8713
vn -0.647581 0.00916361 -0.761941
v -5.05508 -3.35782 -27.8556
vn -0.718943 0.0156782 -0.694892
v -5.07018 -3.35633 -27.8383
vn -0.783381 0.0220418 -0.621151
v -5.08352 -3.35488 -27.8196
vn -0.840275 0.0281932 -0.541427
v -5.09495 -3.35351 -27.7997
vn -0.889076 0.034073 -0.456489
v -5.10438 -3.35221 -27.7788
vn -0.929315 0.0396247 -0.367156
v -5.11172 -3.35099 -27.757
vn -0.960604 0.0447948 -0.274286
v -5.11688 -3.34988 -27.7346
vn -0.982642 0.0495335 -0.178774
v -5.11983 -3.34888 -27.7118
vn -0.995217 0.0537951 -0.0815414
v -5.12053 -3.34801 -27.6889
vn -0.998207 0.0575387 0.0164769
v -5.11898 -3.34726 -27.6659
vn -0.991584 0.0607281 0.114337
v -5.11519 -3.34665 -27.6433
vn -0.975412 0.0633327 0.211095
v -5.10919 -3.34618 -27.6211
vn -0.949845 0.0653274 0.305821
v -5.10106 -3.34586 -27.5996
vn -0.915131 0.0666929 0.397601
v -5.09086 -3.34569 -27.5789
vn -0.871604 0.0674161 0.485552
v -5.07869 -3.34567 -27.5594
vn -0.819683 0.0674901 0.568827
v -5.06467 -3.34581 -27.5412
vn -0.759868 0.0669142 0.646624
v -5.04894 -3.3461 -27.5244
vn -0.692735 0.0656938 0.718194
v -5.03164 -3.34653 -27.5093
vn -0.618931 0.0638407 0.782847
v -5.01295 -3.34711 -27.4959
vn -0.539166 0.0613728 0.839961
v -5.08547 -5.15609 -27.4393
vn -0.455463 0.0339123 0.889608
v -5.06466 -5.15691 -27.4299
vn -0.366125 0.0304093 0.930069
v -5.04302 -5.15779 -27.4226
vn -0.273261 0.0266134 0.961572
v -5.02077 -5.15874 -27.4174
vn -0.177766 0.0225612 0.983814
v -4.99813 -5.15973 -27.4144
vn -0.0805584 0.0182917 0.996582
v -4.9753 -5.16077 -27.4137
vn 0.017425 0.0138461 0.999752
v -4.95251 -5.16183 -27.4152
vn 0.11524 0.00926711 0.993294
v -4.92998 -5.16292 -27.4189
vn 0.211946 0.00459889 0.977271
v -4.90793 -5.16402 -27.4248
vn 0.306611 -0.000113626 0.951835
v -4.88656 -5.16512 -27.4329
vn 0.398322 -0.00482505 0.917233
v -4.86609 -5.1662 -27.443
vn 0.486198 -0.00949 0.873797
v -4.84671 -5.16727 -27.4551
vn 0.569391 -0.0140636 0.821946
v -4.8286 -5.1683 -27.469
vn 0.647101 -0.0185017 0.76218
v -4.81195 -5.1693 -27.4847
vn 0.718579 -0.0227616 0.695073
v -4.79691 -5.17024 -27.5019
vn 0.783136 -0.0268023 0.621272
v -4.78363 -5.17112 -27.5204
vn 0.840152 -0.030585 0.541488
v -4.77223 -5.17193 -27.5402
vn 0.889076 -0.034073 0.456489
v -4.76283 -5.17267 -27.5611
vn 0.929438 -0.0372329 0.367094
v -4.75551 -5.17332 -27.5827
vn 0.960849 -0.0400343 0.274164
v -4.75035 -5.17388 -27.605
vn 0.983007 -0.0424501 0.178593
v -4.74739 -5.17435 -27.6277
vn 0.995697 -0.044457 0.0813029
v -4.74667 -5.17472 -27.6505
vn 0.998799 -0.0460359 -0.0167708
v -4.74818 -5.17498 -27.6733
vn 0.992282 -0.0471713 -0.114683
v -4.75193 -5.17514 -27.6959
vn 0.976208 -0.0478525 -0.211491
v -4.75786 -5.17519 -27.7179
vn 0.950733 -0.0480729 -0.306261
v -4.76593 -5.17514 -27.7393
vn 0.916102 -0.0478303 -0.398083
v -4.77606 -5.17497 -27.7598
vn 0.872648 -0.047127 -0.48607
v -4.78814 -5.1747 -27.7792
vn 0.82079 -0.0459699 -0.569377
v -4.80206 -5.17433 -27.7974
vn 0.761028 -0.0443701 -0.6472
v -4.81769 -5.17386 -27.8141
vn 0.693936 -0.0423429 -0.71879
v -4.83488 -5.17329 -27.8291
vn 0.620162 -0.039908 -0.783458
v -4.85346 -5.17263 -27.8424
vn 0.540415 -0.0370888 -0.840581
v -4.87325 -5.17189 -27.8538
vn 0.455463 -0.0339123 -0.889608
v -4.89406 -5.17108 -27.8633
vn 0.366125 -0.0304093 -0.930069
v -4.9157 -5.17019 -27.8706
vn 0.273261 -0.0266134 -0.961572
v -4.93794 -5.16925 -27.8758
vn 0.177766 -0.0225612 -0.983814
v -4.96059 -5.16826 -27.8788
vn 0.0805584 -0.0182917 -0.996582
v -4.98342 -5.16722 -27.8795
vn -0.017425 -0.0138461 -0.999752
v -5.00621 -5.16615 -27.878
vn -0.11524 -0.00926711 -0.993294
v -5.02874 -5.16507 -27.8743
vn -0.211946 -0.00459889 -0.977271
v -5.05079 -5.16397 -27.8683
vn -0.306611 0.000113626 -0.951835
v -5.07216 -5.16287 -27.8603
vn -0.398322 0.00482505 -0.917233
v -5.09263 -5.16178 -27.8502
vn -0.486198 0.00949 -0.873797
v -5.11201 -5.16072 -27.8381
vn -0.569391 0.0140636 -0.821946
v -5.13012 -5.15968 -27.8242
vn -0.647101 0.0185017 -0.76218
v -5.14677 -5.15869 -27.8085
vn -0.718579 0.0227616 -0.695073
v -5.16181 -5.15775 -27.7913
vn -0.783136 0.0268023 -0.621272
v -5.17509 -5.15687 -27.7727
vn -0.840152 0.030585 -0.541488
v -5.18649 -5.15606 -27.7529
vn -0.889076 0.034073 -0.456489
v -5.19589 -5.15532 -27.7321
vn -0.929438 0.0372329 -0.367094
v -5.20321 -5.15467 -27.7105
vn -0.960849 0.0400343 -0.274164
v -5.20837 -5.1541 -27.6882
vn -0.983007 0.0424501 -0.178593
v -5.21133 -5.15364 -27.6655
vn -0.995697 0.044457 -0.0813029
v -5.21205 -5.15327 -27.6427
vn -0.998799 0.0460359 0.0167708
v -5.21053 -5.153 -27.6199
vn -0.992282 0.0471713 0.114683
v -5.20679 -5.15285 -27.5973
vn -0.976208 0.0478525 0.211491
v -5.20085 -5.15279 -27.5752
vn -0.950733 0.0480729 0.306261
v -5.19279 -5.15285 -27.5539
vn -0.916102 0.0478303 0.398083
v -5.18266 -5.15301 -27.5334
vn -0.872648 0.047127 0.48607
v -5.17058 -5.15328 -27.5139
vn -0.82079 0.0459699 0.569377
v -5.15666 -5.15366 -27.4958
vn -0.761028 0.0443701 0.6472
v -5.14103 -5.15413 -27.4791
vn -0.693936 0.0423429 0.71879
v -5.12384 -5.1547 -27.4641
vn -0.620162 0.039908 0.783458
v -5.10526 -5.15535 -27.4508
vn -0.540415 0.0370888 0.840581
v -5.15689 -6.94939 -27.4341
vn -0.456462 0.00903713 0.889697
v -5.1362 -6.95018 -27.4247
vn -0.367119 0.00565387 0.930157
v -5.11469 -6.95097 -27.4174
vn -0.274241 0.00221616 0.961658
v -5.09257 -6.95178 -27.4123
vn -0.178722 -0.00124288 0.983899
v -5.07005 -6.95257 -27.4093
vn -0.0814811 -0.00468996 0.996664
v -5.04734 -6.95336 -27.4086
vn 0.0165441 -0.00809187 0.99983
v -5.02468 -6.95413 -27.4101
vn 0.11441 -0.0114159 0.993368
v -5.00227 -6.95488 -27.4138
vn 0.211174 -0.0146299 0.977339
v -4.98033 -6.95559 -27.4197
vn 0.305904 -0.017703 0.951898
v -4.95908 -6.95626 -27.4277
vn 0.397689 -0.0206057 0.917289
v -4.93871 -6.95689 -27.4378
vn 0.485643 -0.0233099 0.873846
v -4.91942 -6.95746 -27.4498
vn 0.56892 -0.0257896 0.821988
v -4.9014 -6.95798 -27.4636
vn 0.646719 -0.028021 0.762214
v -4.88483 -6.95843 -27.4792
vn 0.718289 -0.0299825 0.695099
v -4.86986 -6.95882 -27.4963
vn 0.782941 -0.0316553 0.621289
v -4.85663 -6.95914 -27.5147
vn 0.840054 -0.0330231 0.541497
v -4.84528 -6.95938 -27.5344
vn 0.889076 -0.034073 0.456489
v -4.83591 -6.95955 -27.5551
vn 0.929536 -0.0347947 0.367086
v -4.82861 -6.95964 -27.5767
vn 0.961044 -0.0351814 0.274147
v -4.82346 -6.95965 -27.5988
vn 0.983297 -0.0352292 0.178568
v -4.8205 -6.95958 -27.6213
vn 0.99608 -0.0349377 0.081269
v -4.81976 -6.95943 -27.644
vn 0.99927 -0.0343098 -0.0168125
v -4.82125 -6.95921 -27.6667
vn 0.992836 -0.0333514 -0.114732
v -4.82495 -6.95892 -27.6891
vn 0.976842 -0.0320719 -0.211547
v -4.83083 -6.95855 -27.7111
vn 0.951439 -0.0304835 -0.306324
v -4.83884 -6.95811 -27.7324
vn 0.916874 -0.0286015 -0.398151
v -4.84889 -6.95761 -27.7527
vn 0.873478 -0.026444 -0.486144
v -4.86089 -6.95705 -27.772
vn 0.821671 -0.0240319 -0.569455
v -4.87472 -6.95644 -27.79
vn 0.761951 -0.0213884 -0.647282
v -4.89025 -6.95578 -27.8066
vn 0.694892 -0.0185389 -0.718875
v -4.90733 -6.95508 -27.8216
vn 0.621141 -0.0155108 -0.783545
v -4.92579 -6.95434 -27.8348
vn 0.541409 -0.0123333 -0.840669
v -4.94546 -6.95358 -27.8462
vn 0.456462 -0.00903713 -0.889697
v -4.96616 -6.9528 -27.8556
vn 0.367119 -0.00565387 -0.930157
v -4.98766 -6.952 -27.8629
vn 0.274241 -0.00221616 -0.961658
v -5.00979 -6.9512 -27.868
vn 0.178722 0.00124288 -0.983899
v -5.03231 -6.9504 -27.871
vn 0.0814811 0.00468996 -0.996664
v -5.05501 -6.94961 -27.8717
vn -0.0165441 0.00809187 -0.99983
v -5.07767 -6.94884 -27.8702
vn -0.11441 0.0114159 -0.993368
v -5.10008 -6.9481 -27.8665
vn -0.211174 0.0146299 -0.977339
v -5.12202 -6.94739 -27.8606
vn -0.305904 0.017703 -0.951898
v -5.14328 -6.94672 -27.8526
vn -0.397689 0.0206057 -0.917289
v -5.16365 -6.94609 -27.8425
vn -0.485643 0.0233099 -0.873846
v -5.18293 -6.94552 -27.8305
vn -0.56892 0.0257896 -0.821988
v -5.20095 -6.945 -27.8167
vn -0.646719 0.028021 -0.762214
v -5.21752 -6.94454 -27.8011
vn -0.718289 0.0299825 -0.695099
v -5.2325 -6.94416 -27.784
vn -0.782941 0.0316553 -0.621289
v -5.24572 -6.94384 -27.7655
vn -0.840054 0.0330231 -0.541497
v -5.25708 -6.9436 -27.7459
vn -0.889076 0.034073 -0.456489
v -5.26645 -6.94343 -27.7252
vn -0.929536 0.0347947 -0.367086
v -5.27374 -6.94334 -27.7036
vn -0.961044 0.0351814 -0.274147
v -5.2789 -6.94333 -27.6815
vn -0.983297 0.0352292 -0.178568
v -5.28186 -6.9434 -27.659
vn -0.99608 0.0349377 -0.081269
v -5.2826 -6.94354 -27.6363
vn -0.99927 0.0343098 0.0168125
v -5.28111 -6.94376 -27.6136
vn -0.992836 0.0333514 0.114732
v -5.2774 -6.94406 -27.5912
vn -0.976842 0.0320719 0.211547
v -5.27152 -6.94443 -27.5692
vn -0.951439 0.0304835 0.306324
v -5.26351 -6.94486 -27.5479
vn -0.916874 0.0286015 0.398151
v -5.25346 -6.94536 -27.5276
vn -0.873478 0.026444 0.486144
v -5.24147 -6.94592 -27.5083
vn -0.821671 0.0240319 0.569455
v -5.22763 -6.94653 -27.4902
vn -0.761951 0.0213884 0.647282
v -5.2121 -6.94719 -27.4737
vn -0.694892 0.0185389 0.718875
v -5.19502 -6.9479 -27.4587
vn -0.621141 0.0155108 0.783545
v -5.17656 -6.94863 -27.4455
vn -0.541409 0.0123333 0.840669
f 1 66 2 
f 1 65 66 
f 2 67 3 
f 2 66 67 
f 3 68 4 
f 3 67 68 
f 4 69 5 
f 4 68 69 
f 5 70 6 
f 5 69 70 
f 6 71 7 
f 6 70 71 
f 7 72 8 
f 7 71 72 
f 8 73 9 
f 8 72 73 
f 9 74 10 
f 9 73 74 
f 10 75 11 
f 10 74 75 
f 11 76 12 
f 11 75 76 
f 12 77 13 
f 12 76 77 
f 13 78 14 
f 13 77 78 
f 14 79 15 
f 14 78 79 
f 15 80 16 
f 15 79 80 
f 16 81 17 
f 16 80 81 
f 17 82 18 
f 17 81 82 
f 18 83 19 
f 18 82 83 
f 19 84 20 
f 19 83 84 
f 20 85 21 
f 20 84 85 
f 21 86 22 
f 21 85 86 
f 22 87 23 
f 22 86 87 
f 23 88 24 
f 23 87 88 
f 24 89 25 
f 24 88 89 
f 25 90 26 
f 25 89 90 
f 26 91 27 
f 26 90 91 
f 27 92 28 
f 27 91 92 
f 28 93 29 
f 28 92 93 
f 29 94 30 
f 29 93 94 
f 30 95 31 
f 30 94 95 
f 31 96 32 
f 31 95 96 
f 32 97 33 
f 32 96 97 
f 33 98 34 
f 33 97 98 
f 34 99 35 
f 34 98 99 
f 35 100 36 
f 35 99 100 
f 36 101 37 
f 36 100 101 
f 37 102 38 
f 37 101 102 
f 38 103 39 
f 38 102 103 
f 39 104 40 
f 39 103 104 
f 40 105 41 
f 40 104 105 
f 41 106 42 
f 41 105 106 
f 42 107 43 
f 42 106 107 
f 43 108 44 
f 43 107 108 
f 44 109 45 
f 44 108 109 
f 45 110 46 
f 45 109 110 
f 46 111 47 
f 46 110 111 
f 47 112 48 
f 47 111 112 
f 48 113 49 
f 48 112 113 
f 49 114 50 
f 49 113 114 
f 50 115 51 
f 50 114 115 
f 51 116 52 
f 51 115 116 
f 52 117 53 
f 52 116 117 
f 53 118 54 
f 53 117 118 
f 54 119 55 
f 54 118 119 
f 55 120 56 
f 55 119 120 
f 56 121 57 
f 56 120 121 
f 57 122 58 
f 57 121 122 
f 58 123 59 
f 58 122 123 
f 59 124 60 
f 59 123 124 
f 60 125 61 
f 60 124 125 
f 61 126 62 
f 61 125 126 
f 62 127 63 
f 62 126 127 
f 63 128 64 
f 63 127 128 
f 64 65 1 
f 64 128 65 
f 65 130 66 
f 65 129 130 
f 66 131 67 
f 66 130 131 
f 67 132 68 
f 67 131 132 
f 68 133 69 
f 68 132 133 
f 69 134 70 
f 69 133 134 
f 70 135 71 
f 70 134 135 
f 71 136 72 
f 71 135 136 
f 72 137 73 
f 72 136 137 
f 73 138 74 
f 73 137 138 
f 74 139 75 
f 74 138 139 
f 75 140 76 
f 75 139 140 
f 76 141 77 
f 76 140 141 
f 77 142 78 
f 77 141 142 
f 78 143 79 
f 78 142 143 
f 79 144 80 
f 79 143 144 
f 80 145 81 
f 80 144 145 
f 81 146 82 
f 81 145 146 
f 82 147 83 
f 82 146 147 
f 83 148 84 
f 83 147 148 
f 84 149 85 
f 84 148 149 
f 85 150 86 
f 85 149 150 
f 86 151 87 
f 86 150 151 
f 87 152 88 
f 87 151 152 
f 88 153 89 
f 88 152 153 
f 89 154 90 
f 89 153 154 
f 90 155 91 
f 90 154 155 
f 91 156 92 
f 91 155 156 
f 92 157 93 
f 92 156 157 
f 93 158 94 
f 93 157 158 
f 94 159 95 
f 94 158 159 
f 95 160 96 
f 95 159 160 
f 96 161 97 
f 96 160 161 
f 97 162 98 
f 97 161 162 
f 98 163 99 
f 98 162 163 
f 99 164 100 
f 99 163 164 
f 100 165 101 
f 100 164 165 
f 101 166 102 
f 101 165 166 
f 102 167 103 
f 102 166 167 
f 103 168 104 
f 103 167 168 
f 104 169 105 
f 104 168 169 
f 105 170 106 
f 105 169 170 
f 106 171 107 
f 106 170 171 
f 107 172 108 
f 107 171 172 
f 108 173 109 
f 108 172 173 
f 109 174 110 
f 109 173 174 
f 110 175 111 
f 110 174 175 
f 111 176 112 
f 111 175 176 
f 112 177 113 
f 112 176 177 
f 113 178 114 
f 113 177 178 
f 114 179 115 
f 114 178 179 
f 115 180 116 
f 115 179 180 
f 116 181 117 
f 116 180 181 
f 117 182 118 
f 117 181 182 
f 118 183 119 
f 118 182 183 
f 119 184 120 
f 119 183 184 
f 120 185 121 
f 120 184 185 
f 121 186 122 
f 121 185 186 
f 122 187 123 
f 122 186 187 
f 123 188 124 
f 123 187 188 
f 124 189 125 
f 124 188 189 
f 125 190 126 
f 125 189 190 
f 126 191 127 
f 126 190 191 
f 127 192 128 
f 127 191 192 
f 128 129 65 
f 128 192 129 
f 129 194 130 
f 129 193 194 
f 130 195 131 
f 130 194 195 
f 131 196 132 
f 131 195 196 
f 132 197 133 
f 132 196 197 
f 133 198 134 
f 133 197 198 
f 134 199 135 
f 134 198 199 
f 135 200 136 
f 135 199 200 
f 136 201 137 
f 136 200 201 
f 137 202 138 
f 137 201 202 
f 138 203 139 
f 138 202 203 
f 139 204 140 
f 139 203 204 
f 140 205 141 
f 140 204 205 
f 141 206 142 
f 141 205 206 
f 142 207 143 
f 142 206 207 
f 143 208 144 
f 143 207 208 
f 144 209 145 
f 144 208 209 
f 145 210 146 
f 145 209 210 
f 146 211 147 
f 146 210 211 
f 147 212 148 
f 147 211 212 
f 148 213 149 
f 148 212 213 
f 149 214 150 
f 149 213 214 
f 150 215 151 
f 150 214 215 
f 151 216 152 
f 151 215 216 
f 152 217 153 
f 152 216 217 
f 153 218 154 
f 153 217 218 
f 154 219 155 
f 154 218 219 
f 155 220 156 
f 155 219 220 
f 156 221 157 
f 156 220 221 
f 157 222 158 
f 157 221 222 
f 158 223 159 
f 158 222 223 
f 159 224 160 
f 159 223 224 
f 160 225 161 
f 160 224 225 
f 161 226 162 
f 161 225 226 
f 162 227 163 
f 162 226 227 
f 163 228 164 
f 163 227 228 
f 164 229 165 
f 164 228 229 
f 165 230 166 
f 165 229 230 
f 166 231 167 
f 166 230 231 
f 167 232 168 
f 167 231 232 
f 168 233 169 
f 168 232 233 
f 169 234 170 
f 169 233 234 
f 170 235 171 
f 170 234 235 
f 171 236 172 
f 171 235 236 
f 172 237 173 
f 172 236 237 
f 173 238 174 
f 173 237 238 
f 174 239 175 
f 174 238 239 
f 175 240 176 
f 175 239 240 
f 176 241 177 
f 176 240 241 
f 177 242 178 
f 177 241 242 
f 178 243 179 
f 178 242 243 
f 179 244 180 
f 179 243 244 
f 180 245 181 
f 180 244 245 
f 181 246 182 
f 181 245 246 
f 182 247 183 
f 182 246 247 
f 183 248 184 
f 183 247 248 
f 184 249 185 
f 184 248 249 
f 185 250 186 
f 185 249 250 
f 186 251 187 
f 186 250 251 
f 187 252 188 
f 187 251 252 
f 188 253 189 
f 188 252 253 
f 189 254 190 
f 189 253 254 
f 190 255 191 
f 190 254 255 
f 191 256 192 
f 191 255 256 
f 192 193 129 
f 192 256 193 
f 193 258 194 
f 193 257 258 
f 194 259 195 
f 194 258 259 
f 195 260 196 
f 195 259 260 
f 196 261 197 
f 196 260 261 
f 197 262 198 
f 197 261 262 
f 198 263 199 
f 198 262 263 
f 199 264 200 
f 199 263 264 
f 200 265 201 
f 200 264 265 
f 201 266 202 
f 201 265 266 
f 202 267 203 
f 202 266 267 
f 203 268 204 
f 203 267 268 
f 204 269 205 
f 204 268 269 
f 205 270 206 
f 205 269 270 
f 206 271 207 
f 206 270 271 
f 207 272 208 
f 207 271 272 
f 208 273 209 
f 208 272 273 
f 209 274 210 
f 209 273 274 
f 210 275 211 
f 210 274 275 
f 211 276 212 
f 211 275 276 
f 212 277 213 
f 212 276 277 
f 213 278 214 
f 213 277 278 
f 214 279 215 
f 214 278 279 
f 215 280 216 
f 215 279 280 
f 216 281 217 
f 216 280 281 
f 217 282 218 
f 217 281 282 
f 218 283 219 
f 218 282 283 
f 219 284 220 
f 219 283 284 
f 220 285 221 
f 220 284 285 
f 221 286 222 
f 221 285 286 
f 222 287 223 
f 222 286 287 
f 223 288 224 
f 223 287 288 
f 224 289 225 
f 224 288 289 
f 225 290 226 
f 225 289 290 
f 226 291 227 
f 226 290 291 
f 227 292 228 
f 227 291 292 
f 228 293 229 
f 228 292 293 
f 229 294 230 
f 229 293 294 
f 230 295 231 
f 230 294 295 
f 231 296 232 
f 231 295 296 
f 232 297 233 
f 232 296 297 
f 233 298 234 
f 233 297 298 
f 234 299 235 
f 234 298 299 
f 235 300 236 
f 235 299 300 
f 236 301 237 
f 236 300 301 
f 237 302 238 
f 237 301 302 
f 238 303 239 
f 238 302 303 
f 239 304 240 
f 239 303 304 
f 240 305 241 
f 240 304 305 
f 241 306 242 
f 241 305 306 
f 242 307 243 
f 242 306 307 
f 243 308 244 
f 243 307 308 
f 244 309 245 
f 244 308 309 
f 245 310 246 
f 245 309 310 
f 246 311 247 
f 246 310 311 
f 247 312 248 
f 247 311 312 
f 248 313 249 
f 248 312 313 
f 249 314 250 
f 249 313 314 
f 250 315 251 
f 250 314 315 
f 251 316 252 
f 251 315 316 
f 252 317 253 
f 252 316 317 
f 253 318 254 
f 253 317 318 
f 254 319 255 
f 254 318 319 
f 255 320 256 
f 255 319 320 
f 256 257 193 
f 256 320 257 
f 257 322 258 
f 257 321 322 
f 258 323 259 
f 258 322 323 
f 259 324 260 
f 259 323 324 
f 260 325 261 
f 260 324 325 
f 261 326 262 
f 261 325 326 
f 262 327 263 
f 262 326 327 
f 263 328 264 
f 263 327 328 
f 264 329 265 
f 264 328 329 
f 265 330 266 
f 265 329 330 
f 266 331 267 
f 266 330 331 
f 267 332 268 
f 267 331 332 
f 268 333 269 
f 268 332 333 
f 269 334 270 
f 269 333 334 
f 270 335 271 
f 270 334 335 
f 271 336 272 
f 271 335 336 
f 272 337 273 
f 272 336 337 
f 273 338 274 
f 273 337 338 
f 274 339 275 
f 274 338 339 
f 275 340 276 
f 275 339 340 
f 276 341 277 
f 276 340 341 
f 277 342 278 
f 277 341 342 
f 278 343 279 
f 278 342 343 
f 279 344 280 
f 279 343 344 
f 280 345 281 
f 280 344 345 
f 281 346 282 
f 281 345 346 
f 282 347 283 
f 282 346 347 
f 283 348 284 
f 283 347 348 
f 284 349 285 
f 284 348 349 
f 285 350 286 
f 285 349 350 
f 286 351 287 
f 286 350 351 
f 287 352 288 
f 287 351 352 
f 288 353 289 
f 288 352 353 
f 289 354 290 
f 289 353 354 
f 290 355 291 
f 290 354 355 
f 291 356 292 
f 291 355 356 
f 292 357 293 
f 292 356 357 
f 293 358 294 
f 293 357 358 
f 294 359 295 
f 294 358 359 
f 295 360 296 
f 295 359 360 
f 296 361 297 
f 296 360 361 
f 297 362 298 
f 297 361 362 
f 298 363 299 
f 298 362 363 
f 299 364 300 
f 299 363 364 
f 300 365 301 
f 300 364 365 
f 301 366 302 
f 301 365 366 
f 302 367 303 
f 302 366 367 
f 303 368 304 
f 303 367 368 
f 304 369 305 
f 304 368 369 
f 305 370 306 
f 305 369 370 
f 306 371 307 
f 306 370 371 
f 307 372 308 
f 307 371 372 
f 308 373 309 
f 308 372 373 
f 309 374 310 
f 309 373 374 
f 310 375 311 
f 310 374 375 
f 311 376 312 
f 311 375 376 
f 312 377 313 
f 312 376 377 
f 313 378 314 
f 313 377 378 
f 314 379 315 
f 314 378 379 
f 315 380 316 
f 315 379 380 
f 316 381 317 
f 316 380 381 
f 317 382 318 
f 317 381 382 
f 318 383 319 
f 318 382 383 
f 319 384 320 
f 319 383 384 
f 320 321 257 
f 320 384 321 
f 321 386 322 
f 321 385 386 
f 322 387 323 
f 322 386 387 
f 323 388 324 
f 323 387 388 
f 324 389 325 
f 324 388 389 
f 325 390 326 
f 325 389 390 
f 326 391 327 
f 326 390 391 
f 327 392 328 
f 327 391 392 
f 328 393 329 
f 328 392 393 
f 329 394 330 
f 329 393 394 
f 330 395 331 
f 330 394 395 
f 331 396 332 
f 331 395 396 
f 332 397 333 
f 332 396 397 
f 333 398 334 
f 333 397 398 
f 334 399 335 
f 334 398 399 
f 335 400 336 
f 335 399 400 
f 336 401 337 
f 336 400 401 
f 337 402 338 
f 337 401 402 
f 338 403 339 
f 338 402 403 
f 339 404 340 
f 339 403 404 
f 340 405 341 
f 340 404 405 
f 341 406 342 
f 341 405 406 
f 342 407 343 
f 342 406 407 
f 343 408 344 
f 343 407 408 
f 344 409 345 
f 344 408 409 
f 345 410 346 
f 345 409 410 
f 346 411 347 
f 346 410 411 
f 347 412 348 
f 347 411 412 
f 348 413 349 
f 348 412 413 
f 349 414 350 
f 349 413 414 
f 350 415 351 
f 350 414 415 
f 351 416 352 
f 351 415 416 
f 352 417 353 
f 352 416 417 
f 353 418 354 
f 353 417 418 
f 354 419 355 
f 354 418 419 
f 355 420 356 
f 355 419 420 
f 356 421 357 
f 356 420 421 
f 357 422 358 
f 357 421 422 
f 358 423 359 
f 358 422 423 
f 359 424 360 
f 359 423 424 
f 360 425 361 
f 360 424 425 
f 361 426 362 
f 361 425 426 
f 362 427 363 
f 362 426 427 
f 363 428 364 
f 363 427 428 
f 364 429 365 
f 364 428 429 
f 365 430 366 
f 365 429 430 
f 366 431 367 
f 366 430 431 
f 367 432 368 
f 367 431 432 
f 368 433 369 
f 368 432 433 
f 369 434 370 
f 369 433 434 
f 370 435 371 
f 370 434 435 
f 371 436 372 
f 371 435 436 
f 372 437 373 
f 372 436 437 
f 373 438 374 
f 373 437 438 
f 374 439 375 
f 374 438 439 
f 375 440 376 
f 375 439 440 
f 376 441 377 
f 376 440 441 
f 377 442 378 
f 377 441 442 
f 378 443 379 
f 378 442 443 
f 379 444 380 
f 379 443 444 
f 380 445 381 
f 380 444 445 
f 381 446 382 
f 381 445 446 
f 382 447 383 
f 382 446 447 
f 383 448 384 
f 383 447 448 
f 384 385 321 
f 384 448 385 
f 385 450 386 
f 385 449 450 
f 386 451 387 
f 386 450 451 
f 387 452 388 
f 387 451 452 
f 388 453 389 
f 388 452 453 
f 389 454 390 
f 389 453 454 
f 390 455 391 
f 390 454 455 
f 391 456 392 
f 391 455 456 
f 392 457 393 
f 392 456 457 
f 393 458 394 
f 393 457 458 
f 394 459 395 
f 394 458 459 
f 395 460 396 
f 395 459 460 
f 396 461 397 
f 396 460 461 
f 397 462 398 
f 397 461 462 
f 398 463 399 
f 398 462 463 
f 399 464 400 
f 399 463 464 
f 400 465 401 
f 400 464 465 
f 401 466 402 
f 401 465 466 
f 402 467 403 
f 402 466 467 
f 403 468 404 
f 403 467 468 
f 404 469 405 
f 404 468 469 
f 405 470 406 
f 405 469 470 
f 406 471 407 
f 406 470 471 
f 407 472 408 
f 407 471 472 
f 408 473 409 
f 408 472 473 
f 409 474 410 
f 409 473 474 
f 410 475 411 
f 410 474 475 
f 411 476 412 
f 411 475 476 
f 412 477 413 
f 412 476 477 
f 413 478 414 
f 413 477 478 
f 414 479 415 
f 414 478 479 
f 415 480 416 
f 415 479 480 
f 416 481 417 
f 416 480 481 
f 417 482 418 
f 417 481 482 
f 418 483 419 
f 418 482 483 
f 419 484 420 
f 419 483 484 
f 420 485 421 
f 420 484 485 
f 421 486 422 
f 421 485 486 
f 422 487 423 
f 422 486 487 
f 423 488 424 
f 423 487 488 
f 424 489 425 
f 424 488 489 
f 425 490 426 
f 425 489 490 
f 426 491 427 
f 426 490 491 
f 427 492 428 
f 427 491 492 
f 428 493 429 
f 428 492 493 
f 429 494 430 
f 429 493 494 
f 430 495 431 
f 430 494 495 
f 431 496 432 
f 431 495 496 
f 432 497 433 
f 432 496 497 
f 433 498 434 
f 433 497 498 
f 434 499 435 
f 434 498 499 
f 435 500 436 
f 435 499 500 
f 436 501 437 
f 436 500 501 
f 437 502 438 
f 437 501 502 
f 438 503 439 
f 438 502 503 
f 439 504 440 
f 439 503 504 
f 440 505 441 
f 440 504 505 
f 441 506 442 
f 441 505 506 
f 442 507 443 
f 442 506 507 
f 443 508 444 
f 443 507 508 
f 444 509 445 
f 444 508 509 
f 445 510 446 
f 445 509 510 
f 446 511 447 
f 446 510 511 
f 447 512 448 
f 447 511 512 
f 448 449 385 
f 448 512 449 
f 449 514 450 
f 449 513 514 
f 450 515 451 
f 450 514 515 
f 451 516 452 
f 451 515 516 
f 452 517 453 
f 452 516 517 
f 453 518 454 
f 453 517 518 
f 454 519 455 
f 454 518 519 
f 455 520 456 
f 455 519 520 
f 456 521 457 
f 456 520 521 
f 457 522 458 
f 457 521 522 
f 458 523 459 
f 458 522 523 
f 459 524 460 
f 459 523 524 
f 460 525 461 
f 460 524 525 
f 461 526 462 
f 461 525 526 
f 462 527 463 
f 462 526 527 
f 463 528 464 
f 463 527 528 
f 464 529 465 
f 464 528 529 
f 465 530 466 
f 465 529 530 
f 466 531 467 
f 466 530 531 
f 467 532 468 
f 467 531 532 
f 468 533 469 
f 468 532 533 
f 469 534 470 
f 469 533 534 
f 470 535 471 
f 470 534 535 
f 471 536 472 
f 471 535 536 
f 472 537 473 
f 472 536 537 
f 473 538 474 
f 473 537 538 
f 474 539 475 
f 474 538 539 
f 475 540 476 
f 475 539 540 
f 476 541 477 
f 476 540 541 
f 477 542 478 
f 477 541 542 
f 478 543 479 
f 478 542 543 
f 479 544 480 
f 479 543 544 
f 480 545 481 
f 480 544 545 
f 481 546 482 
f 481 545 546 
f 482 547 483 
f 482 546 547 
f 483 548 484 
f 483 547 548 
f 484 549 485 
f 484 548 549 
f 485 550 486 
f 485 549 550 
f 486 551 487 
f 486 550 551 
f 487 552 488 
f 487 551 552 
f 488 553 489 
f 488 552 553 
f 489 554 490 
f 489 553 554 
f 490 555 491 
f 490 554 555 
f 491 556 492 
f 491 555 556 
f 492 557 493 
f 492 556 557 
f 493 558 494 
f 493 557 558 
f 494 559 495 
f 494 558 559 
f 495 560 496 
f 495 559 560 
f 496 561 497 
f 496 560 561 
f 497 562 498 
f 497 561 562 
f 498 563 499 
f 498 562 563 
f 499 564 500 
f 499 563 564 
f 500 565 501 
f 500 564 565 
f 501 566 502 
f 501 565 566 
f 502 567 503 
f 502 566 567 
f 503 568 504 
f 503 567 568 
f 504 569 505 
f 504 568 569 
f 505 570 506 
f 505 569 570 
f 506 571 507 
f 506 570 571 
f 507 572 508 
f 507 571 572 
f 508 573 509 
f 508 572 573 
f 509 574 510 
f 509 573 574 
f 510 575 511 
f 510 574 575 
f 511 576 512 
f 511 575 576 
f 512 513 449 
f 512 576 513 
f 513 578 514 
f 513 577 578 
f 514 579 515 
f 514 578 579 
f 515 580 516 
f 515 579 580 
f 516 581 517 
f 516 580 581 
f 517 582 518 
f 517 581 582 
f 518 583 519 
f 518 582 583 
f 519 584 520 
f 519 583 584 
f 520 585 521 
f 520 584 585 
f 521 586 522 
f 521 585 586 
f 522 587 523 
f 522 586 587 
f 523 588 524 
f 523 587 588 
f 524 589 525 
f 524 588 589 
f 525 590 526 
f 525 589 590 
f 526 591 527 
f 526 590 591 
f 527 592 528 
f 527 591 592 
f 528 593 529 
f 528 592 593 
f 529 594 530 
f 529 593 594 
f 530 595 531 
f 530 594 595 
f 531 596 532 
f 531 595 596 
f 532 597 533 
f 532 596 597 
f 533 598 534 
f 533 597 598 
f 534 599 535 
f 534 598 599 
f 535 600 536 
f 535 599 600 
f 536 601 537 
f 536 600 601 
f 537 602 538 
f 537 601 602 
f 538 603 539 
f 538 602 603 
f 539 604 540 
f 539 603 604 
f 540 605 541 
f 540 604 605 
f 541 606 542 
f 541 605 606 
f 542 607 543 
f 542 606 607 
f 543 608 544 
f 543 607 608 
f 544 609 545 
f 544 608 609 
f 545 610 546 
f 545 609 610 
f 546 611 547 
f 546 610 611 
f 547 612 548 
f 547 611 612 
f 548 613 549 
f 548 612 613 
f 549 614 550 
f 549 613 614 
f 550 615 551 
f 550 614 615 
f 551 616 552 
f 551 615 616 
f 552 617 553 
f 552 616 617 
f 553 618 554 
f 553 617 618 
f 554 619 555 
f 554 618 619 
f 555 620 556 
f 555 619 620 
f 556 621 557 
f 556 620 621 
f 557 622 558 
f 557 621 622 
f 558 623 559 
f 558 622 623 
f 559 624 560 
f 559 623 624 
f 560 625 561 
f 560 624 625 
f 561 626 562 
f 561 625 626 
f 562 627 563 
f 562 626 627 
f 563 628 564 
f 563 627 628 
f 564 629 565 
f 564 628 629 
f 565 630 566 
f 565 629 630 
f 566 631 567 
f 566 630 631 
f 567 632 568 
f 567 631 632 
f 568 633 569 
f 568 632 633 
f 569 634 570 
f 569 633 634 
f 570 635 571 
f 570 634 635 
f 571 636 572 
f 571 635 636 
f 572 637 573 
f 572 636 637 
f 573 638 574 
f 573 637 638 
f 574 639 575 
f 574 638 639 
f 575 640 576 
f 575 639 640 
f 576 577 513 
f 576 640 577 
