# Branch
v 4.67992 6.22164 -29.3807
vn 0.764994 0.15692 -0.624628
v 4.65119 6.23172 -29.4101
vn 0.698306 0.180324 -0.692713
v 4.61955 6.24106 -29.4365
vn 0.624894 0.201991 -0.754127
v 4.58532 6.24956 -29.4599
vn 0.545463 0.221713 -0.808278
v 4.54883 6.25714 -29.4798
vn 0.460779 0.2393 -0.854645
v 4.51042 6.26372 -29.4963
vn 0.371658 0.254582 -0.892781
v 4.47048 6.26925 -29.509
vn 0.278957 0.267413 -0.922319
v 4.42937 6.27367 -29.5179
vn 0.18357 0.277668 -0.942975
v 4.3875 6.27694 -29.5229
vn 0.0864148 0.285249 -0.95455
v 4.34528 6.27902 -29.5239
vn -0.0115724 0.290083 -0.956931
v 4.3031 6.2799 -29.521
vn -0.109448 0.292124 -0.950097
v 4.26138 6.27957 -29.5141
vn -0.20627 0.291351 -0.934113
v 4.22051 6.27803 -29.5033
vn -0.301105 0.287772 -0.909133
v 4.18089 6.27529 -29.4888
vn -0.393041 0.281422 -0.875397
v 4.1429 6.27139 -29.4706
vn -0.481191 0.272361 -0.833231
v 4.10691 6.26635 -29.449
vn -0.564707 0.260678 -0.783041
v 4.07327 6.26023 -29.4241
vn -0.642785 0.246484 -0.725309
v 4.04229 6.25309 -29.3962
vn -0.714672 0.229916 -0.660592
v 4.01428 6.245 -29.3656
vn -0.779677 0.211134 -0.589514
v 3.9895 6.23603 -29.3325
vn -0.837173 0.190319 -0.512757
v 3.9682 6.22627 -29.2973
vn -0.886606 0.167671 -0.431063
v 3.95057 6.21582 -29.2603
vn -0.927501 0.143408 -0.345218
v 3.9368 6.20476 -29.2219
vn -0.959464 0.117764 -0.256048
v 3.92701 6.19323 -29.1824
vn -0.982187 0.0909858 -0.164412
v 3.92129 6.18131 -29.1422
vn -0.99545 0.0633314 -0.0711921
v 3.91971 6.16913 -29.1018
vn -0.999127 0.0350671 0.0227129
v 3.92227 6.1568 -29.0614
vn -0.993181 0.00646511 0.116399
v 3.92895 6.14445 -29.0215
vn -0.977671 -0.0221992 0.208965
v 3.9397 6.13219 -28.9825
vn -0.952745 -0.0506496 0.299517
v 3.95439 6.12014 -28.9447
vn -0.918644 -0.0786123 0.387186
v 3.9729 6.10842 -28.9085
vn -0.875696 -0.105818 0.471125
v 3.99504 6.09713 -28.8743
vn -0.824314 -0.132004 0.550528
v 4.0206 6.0864 -28.8424
vn -0.764994 -0.15692 0.624628
v 4.04934 6.07631 -28.813
vn -0.698306 -0.180324 0.692713
v 4.08098 6.06697 -28.7866
vn -0.624894 -0.201991 0.754127
v 4.11521 6.05847 -28.7632
vn -0.545463 -0.221713 0.808278
v 4.1517 6.05089 -28.7433
vn -0.460779 -0.2393 0.854645
v 4.1901 6.04431 -28.7268
vn -0.371658 -0.254582 0.892781
v 4.23005 6.03878 -28.7141
vn -0.278957 -0.267413 0.922319
v 4.27116 6.03436 -28.7052
vn -0.18357 -0.277668 0.942975
v 4.31303 6.03109 -28.7002
vn -0.0864148 -0.285249 0.95455
v 4.35525 6.02901 -28.6992
vn 0.0115724 -0.290083 0.956931
v 4.39743 6.02813 -28.7021
vn 0.109448 -0.292124 0.950097
v 4.43915 6.02846 -28.709
vn 0.20627 -0.291351 0.934113
v 4.48002 6.03001 -28.7198
vn 0.301105 -0.287772 0.909133
v 4.51964 6.03274 -28.7343
vn 0.393041 -0.281422 0.875397
v 4.55762 6.03665 -28.7525
vn 0.481191 -0.272361 0.833231
v 4.59361 6.04168 -28.7741
vn 0.564707 -0.260678 0.783041
v 4.62726 6.0478 -28.799
vn 0.642785 -0.246484 0.725309
v 4.65824 6.05494 -28.8269
vn 0.714672 -0.229916 0.660592
v 4.68625 6.06303 -28.8575
vn 0.779677 -0.211134 0.589514
v 4.71103 6.072 -28.8906
vn 0.837173 -0.190319 0.512757
v 4.73233 6.08176 -28.9258
vn 0.886606 -0.167671 0.431063
v 4.74995 6.09222 -28.9628
vn 0.927501 -0.143408 0.345218
v 4.76373 6.10327 -29.0012
vn 0.959464 -0.117764 0.256048
v 4.77352 6.11481 -29.0407
vn 0.982187 -0.0909858 0.164412
v 4.77923 6.12673 -29.0809
vn 0.99545 -0.0633314 0.0711921
v 4.78082 6.13891 -29.1213
vn 0.999127 -0.0350671 -0.0227129
v 4.77826 6.15123 -29.1617
vn 0.993181 -0.00646511 -0.116399
v 4.77157 6.16358 -29.2016
vn 0.977671 0.0221992 -0.208965
v 4.76083 6.17584 -29.2406
vn 0.952745 0.0506496 -0.299517
v 4.74614 6.18789 -29.2784
vn 0.918644 0.0786123 -0.387186
v 4.72763 6.19962 -29.3146
vn 0.875696 0.105818 -0.471125
v 4.70549 6.2109 -29.3488
vn 0.824314 0.132004 -0.550528
v 4.59442 4.50466 -29.8884
vn 0.763788 0.13356 -0.631498
v 4.56541 4.5149 -29.918
vn 0.697106 0.157076 -0.69955
v 4.53348 4.52447 -29.9447
vn 0.623711 0.17908 -0.760865
v 4.49893 4.53329 -29.9682
vn 0.544309 0.199359 -0.814852
v 4.46211 4.54128 -29.9883
vn 0.459665 0.217718 -0.860992
v 4.42336 4.54835 -30.0047
vn 0.370594 0.233981 -0.89884
v 4.38305 4.55445 -30.0174
vn 0.277954 0.24799 -0.928031
v 4.34159 4.5595 -30.0263
vn 0.182638 0.259611 -0.948286
v 4.29935 4.56347 -30.0311
vn 0.0855621 0.268731 -0.959407
v 4.25676 4.56631 -30.0319
vn -0.0123375 0.275264 -0.96129
v 4.21422 4.568 -30.0287
vn -0.110118 0.279146 -0.953914
v 4.17214 4.56852 -30.0215
vn -0.206839 0.280339 -0.937352
v 4.13093 4.56787 -30.0104
vn -0.301567 0.278832 -0.911762
v 4.09098 4.56604 -29.9954
vn -0.393391 0.274641 -0.877392
v 4.05268 4.56307 -29.9768
vn -0.481426 0.267804 -0.834572
v 4.0164 4.55897 -29.9547
vn -0.564825 0.258388 -0.783714
v 3.98248 4.55379 -29.9292
vn -0.642785 0.246484 -0.725309
v 3.95126 4.54758 -29.9008
vn -0.714554 0.232206 -0.659919
v 3.92303 4.5404 -29.8696
vn -0.779442 0.215691 -0.588173
v 3.89807 4.53231 -29.8359
vn -0.836823 0.1971 -0.510763
v 3.87661 4.52339 -29.8001
vn -0.886145 0.17661 -0.428434
v 3.85886 4.51374 -29.7625
vn -0.926933 0.15442 -0.341979
v 3.845 4.50344 -29.7234
vn -0.958794 0.130742 -0.252231
v 3.83516 4.49259 -29.6833
vn -0.981421 0.105805 -0.160053
v 3.82942 4.4813 -29.6426
vn -0.994597 0.0798495 -0.0663345
v 3.82786 4.46967 -29.6015
vn -0.998195 0.0531247 0.0280233
v 3.83048 4.45782 -29.5606
vn -0.992179 0.0258883 0.122111
v 3.83725 4.44586 -29.5201
vn -0.976608 -0.00159741 0.215023
v 3.84812 4.43391 -29.4806
vn -0.951631 -0.0290677 0.305864
v 3.86297 4.42208 -29.4424
vn -0.91749 -0.0562581 0.39376
v 3.88167 4.41049 -29.4058
vn -0.874513 -0.0829067 0.477863
v 3.90403 4.39924 -29.3712
vn -0.823114 -0.108757 0.557364
v 3.92984 4.38845 -29.339
vn -0.763788 -0.13356 0.631498
v 3.95885 4.37822 -29.3094
vn -0.697106 -0.157076 0.69955
v 3.99078 4.36865 -29.2827
vn -0.623711 -0.17908 0.760865
v 4.02532 4.35983 -29.2592
vn -0.544309 -0.199359 0.814852
v 4.06215 4.35184 -29.2391
vn -0.459665 -0.217718 0.860992
v 4.1009 4.34476 -29.2227
vn -0.370594 -0.233981 0.89884
v 4.1412 4.33867 -29.21
vn -0.277954 -0.24799 0.928031
v 4.18267 4.33361 -29.2011
vn -0.182638 -0.259611 0.948286
v 4.22491 4.32965 -29.1963
vn -0.0855621 -0.268731 0.959407
v 4.2675 4.3268 -29.1955
vn 0.0123375 -0.275264 0.96129
v 4.31004 4.32511 -29.1987
vn 0.110118 -0.279146 0.953914
v 4.35212 4.3246 -29.2059
vn 0.206839 -0.280339 0.937352
v 4.39333 4.32525 -29.217
vn 0.301567 -0.278832 0.911762
v 4.43328 4.32707 -29.232
vn 0.393391 -0.274641 0.877392
v 4.47158 4.33005 -29.2506
vn 0.481426 -0.267804 0.834572
v 4.50786 4.33415 -29.2727
vn 0.564825 -0.258388 0.783714
v 4.54178 4.33932 -29.2981
vn 0.642785 -0.246484 0.725309
v 4.573 4.34554 -29.3266
vn 0.714554 -0.232206 0.659919
v 4.60123 4.35272 -29.3578
vn 0.779442 -0.215691 0.588173
v 4.62619 4.36081 -29.3915
vn 0.836823 -0.1971 0.510763
v 4.64765 4.36972 -29.4273
vn 0.886145 -0.17661 0.428434
v 4.6654 4.37938 -29.4649
vn 0.926933 -0.15442 0.341979
v 4.67926 4.38968 -29.504
vn 0.958794 -0.130742 0.252231
v 4.6891 4.40053 -29.5441
vn 0.981421 -0.105805 0.160053
v 4.69483 4.41182 -29.5848
vn 0.994597 -0.0798495 0.0663345
v 4.6964 4.42345 -29.6259
vn 0.998195 -0.0531247 -0.0280233
v 4.69378 4.4353 -29.6668
vn 0.992179 -0.0258883 -0.122111
v 4.68701 4.44725 -29.7072
vn 0.976608 0.00159741 -0.215023
v 4.67614 4.4592 -29.7468
vn 0.951631 0.0290677 -0.305864
v 4.66129 4.47103 -29.785
vn 0.91749 0.0562581 -0.39376
v 4.64259 4.48263 -29.8216
vn 0.874513 0.0829067 -0.477863
v 4.62023 4.49387 -29.8562
vn 0.823114 0.108757 -0.557364
v 4.47564 2.78394 -30.3679
vn 0.762123 0.110057 -0.638009
v 4.44636 2.79432 -30.3978
vn 0.695449 0.133686 -0.70603
v 4.41413 2.80413 -30.4247
vn 0.622078 0.156029 -0.767251
v 4.37928 2.81328 -30.4483
vn 0.542716 0.176868 -0.821083
v 4.34213 2.82169 -30.4685
vn 0.458127 0.196004 -0.867008
v 4.30304 2.82926 -30.485
vn 0.369126 0.213253 -0.904582
v 4.26239 2.83593 -30.4977
vn 0.27657 0.228448 -0.933446
v 4.22057 2.84164 -30.5064
vn 0.181351 0.241443 -0.953319
v 4.17799 2.84633 -30.5111
vn 0.0843847 0.252112 -0.964012
v 4.13505 2.84995 -30.5117
vn -0.0133938 0.260354 -0.96542
v 4.09216 2.85247 -30.5083
vn -0.111043 0.266088 -0.957531
v 4.04974 2.85386 -30.5007
vn -0.207623 0.26926 -0.940421
v 4.00821 2.85411 -30.4892
vn -0.302204 0.269838 -0.914254
v 3.96795 2.85322 -30.4739
vn -0.393874 0.267818 -0.879282
v 3.92935 2.8512 -30.4548
vn -0.481751 0.263219 -0.835842
v 3.8928 2.84807 -30.4322
vn -0.564989 0.256084 -0.784352
v 3.85863 2.84386 -30.4063
vn -0.642785 0.246484 -0.725309
v 3.82718 2.8386 -30.3773
vn -0.714391 0.234509 -0.659281
v 3.79876 2.83235 -30.3455
vn -0.779117 0.220277 -0.586903
v 3.77363 2.82516 -30.3112
vn -0.836339 0.203923 -0.508873
v 3.75203 2.81712 -30.2748
vn -0.885508 0.185604 -0.425943
v 3.73418 2.80829 -30.2366
vn -0.926148 0.165499 -0.33891
v 3.72025 2.79876 -30.1969
vn -0.957869 0.1438 -0.248613
v 3.71037 2.78862 -30.1562
vn -0.980365 0.120715 -0.155923
v 3.70464 2.77797 -30.1148
vn -0.99342 0.0964686 -0.0617301
v 3.70311 2.76692 -30.0732
vn -0.996908 0.0712927 0.0330568
v 3.70579 2.75556 -30.0317
vn -0.990794 0.0454303 0.127525
v 3.71267 2.74401 -29.9908
vn -0.975139 0.0191304 0.220766
v 3.72367 2.73238 -29.9508
vn -0.950093 -0.00735381 0.31188
v 3.73869 2.72077 -29.9121
vn -0.915897 -0.0337672 0.399991
v 3.75758 2.70932 -29.8751
vn -0.87288 -0.0598553 0.48425
v 3.78016 2.69811 -29.8401
vn -0.821457 -0.085367 0.563845
v 3.80622 2.68727 -29.8075
vn -0.762123 -0.110057 0.638009
v 3.8355 2.67689 -29.7776
vn -0.695449 -0.133686 0.70603
v 3.86772 2.66708 -29.7508
vn -0.622078 -0.156029 0.767251
v 3.90258 2.65793 -29.7271
vn -0.542716 -0.176868 0.821083
v 3.93973 2.64952 -29.707
vn -0.458127 -0.196004 0.867008
v 3.97882 2.64195 -29.6904
vn -0.369126 -0.213253 0.904582
v 4.01946 2.63528 -29.6778
vn -0.27657 -0.228448 0.933446
v 4.06128 2.62957 -29.669
vn -0.181351 -0.241443 0.953319
v 4.10387 2.62488 -29.6643
vn -0.0843847 -0.252112 0.964012
v 4.14681 2.62126 -29.6637
vn 0.0133938 -0.260354 0.96542
v 4.1897 2.61874 -29.6672
vn 0.111043 -0.266088 0.957531
v 4.23211 2.61735 -29.6747
vn 0.207623 -0.26926 0.940421
v 4.27365 2.6171 -29.6862
vn 0.302204 -0.269838 0.914254
v 4.31391 2.61798 -29.7016
vn 0.393874 -0.267818 0.879282
v 4.3525 2.62 -29.7206
vn 0.481751 -0.263219 0.835842
v 4.38906 2.62314 -29.7433
vn 0.564989 -0.256084 0.784352
v 4.42323 2.62735 -29.7692
vn 0.642785 -0.246484 0.725309
v 4.45467 2.63261 -29.7982
vn 0.714391 -0.234509 0.659281
v 4.4831 2.63886 -29.83
vn 0.779117 -0.220277 0.586903
v 4.50823 2.64605 -29.8642
vn 0.836339 -0.203923 0.508873
v 4.52982 2.65409 -29.9007
vn 0.885508 -0.185604 0.425943
v 4.54767 2.66292 -29.9389
vn 0.926148 -0.165499 0.33891
v 4.5616 2.67245 -29.9785
vn 0.957869 -0.1438 0.248613
v 4.57148 2.68259 -30.0192
vn 0.980365 -0.120715 0.155923
v 4.57722 2.69324 -30.0606
vn 0.99342 -0.0964686 0.0617301
v 4.57875 2.70429 -30.1022
vn 0.996908 -0.0712927 -0.0330568
v 4.57606 2.71565 -30.1437
vn 0.990794 -0.0454303 -0.127525
v 4.56919 2.7272 -30.1847
vn 0.975139 -0.0191304 -0.220766
v 4.55819 2.73883 -30.2247
vn 0.950093 0.00735381 -0.31188
v 4.54317 2.75043 -30.2634
vn 0.915897 0.0337672 -0.399991
v 4.52428 2.76189 -30.3004
vn 0.87288 0.0598553 -0.48425
v 4.5017 2.7731 -30.3354
vn 0.821457 0.085367 -0.563845
v 4.32357 1.05948 -30.8192
vn 0.759999 0.0864522 -0.644149
v 4.29402 1.07001 -30.8493
vn 0.693335 0.110196 -0.71214
v 4.26151 1.08006 -30.8764
vn 0.619995 0.132878 -0.773272
v 4.22635 1.08955 -30.9002
vn 0.540683 0.15428 -0.826958
v 4.18888 1.09838 -30.9205
vn 0.456164 0.174197 -0.87268
v 4.14947 1.10646 -30.937
vn 0.367253 0.192436 -0.909997
v 4.10848 1.11373 -30.9497
vn 0.274804 0.208821 -0.93855
v 4.06633 1.1201 -30.9583
vn 0.179709 0.223196 -0.958065
v 4.0234 1.12552 -30.9629
vn 0.0828828 0.235421 -0.968353
v 3.98013 1.12993 -30.9633
vn -0.0147412 0.245379 -0.969315
v 3.93691 1.1333 -30.9596
vn -0.112223 0.252974 -0.960942
v 3.89418 1.13559 -30.9518
vn -0.208625 0.258133 -0.943315
v 3.85233 1.13677 -30.94
vn -0.303017 0.260805 -0.916603
v 3.81178 1.13684 -30.9242
vn -0.394491 0.260966 -0.881064
v 3.77292 1.1358 -30.9047
vn -0.482166 0.258614 -0.83704
v 3.73611 1.13365 -30.8816
vn -0.565197 0.253771 -0.784954
v 3.70171 1.13042 -30.8552
vn -0.642785 0.246484 -0.725309
v 3.67006 1.12614 -30.8256
vn -0.714183 0.236823 -0.658679
v 3.64146 1.12085 -30.7933
vn -0.778702 0.224882 -0.585705
v 3.61618 1.11459 -30.7584
vn -0.835723 0.210775 -0.507091
v 3.59447 1.10744 -30.7214
vn -0.884695 0.194638 -0.423593
v 3.57654 1.09945 -30.6826
vn -0.925147 0.176626 -0.336016
v 3.56256 1.09072 -30.6423
vn -0.956689 0.156914 -0.245203
v 3.55266 1.08131 -30.601
vn -0.979018 0.13569 -0.152028
v 3.54694 1.07132 -30.5591
vn -0.991918 0.113159 -0.057389
v 3.54546 1.06085 -30.5169
vn -0.995266 0.0895392 0.0378025
v 3.54822 1.05 -30.4748
vn -0.989028 0.0650567 0.13263
v 3.55521 1.03886 -30.4334
vn -0.973266 0.0399476 0.22618
v 3.56635 1.02756 -30.3929
vn -0.948131 0.0144538 0.317552
v 3.58154 1.0162 -30.3537
vn -0.913864 -0.0111791 0.405866
v 3.60063 1.00488 -30.3163
vn -0.870797 -0.0367044 0.490271
v 3.62344 0.993725 -30.281
vn -0.819343 -0.0618763 0.569954
v 3.64975 0.982831 -30.2481
vn -0.759999 -0.0864522 0.644149
v 3.6793 0.972305 -30.2179
vn -0.693335 -0.110196 0.71214
v 3.71182 0.96225 -30.1908
vn -0.619995 -0.132878 0.773272
v 3.74697 0.952762 -30.167
vn -0.540683 -0.15428 0.826958
v 3.78444 0.943933 -30.1468
vn -0.456164 -0.174197 0.87268
v 3.82386 0.935848 -30.1302
vn -0.367253 -0.192436 0.909997
v 3.86484 0.928584 -30.1176
vn -0.274804 -0.208821 0.93855
v 3.907 0.922212 -30.1089
vn -0.179709 -0.223196 0.958065
v 3.94992 0.916792 -30.1044
vn -0.0828828 -0.235421 0.968353
v 3.9932 0.912378 -30.1039
vn 0.0147412 -0.245379 0.969315
v 4.03641 0.909011 -30.1076
vn 0.112223 -0.252974 0.960942
v 4.07914 0.906724 -30.1155
vn 0.208625 -0.258133 0.943315
v 4.12099 0.905539 -30.1273
vn 0.303017 -0.260805 0.916603
v 4.16154 0.905468 -30.1431
vn 0.394491 -0.260966 0.881064
v 4.20041 0.906511 -30.1626
vn 0.482166 -0.258614 0.83704
v 4.23721 0.908658 -30.1857
vn 0.565197 -0.253771 0.784954
v 4.27161 0.911888 -30.2121
vn 0.642785 -0.246484 0.725309
v 4.30326 0.916171 -30.2416
vn 0.714183 -0.236823 0.658679
v 4.33186 0.921464 -30.274
vn 0.778702 -0.224882 0.585705
v 4.35714 0.927718 -30.3088
vn 0.835723 -0.210775 0.507091
v 4.37885 0.934872 -30.3459
vn 0.884695 -0.194638 0.423593
v 4.39678 0.942856 -30.3847
vn 0.925147 -0.176626 0.336016
v 4.41076 0.951595 -30.4249
vn 0.956689 -0.156914 0.245203
v 4.42066 0.961003 -30.4662
vn 0.979018 -0.13569 0.152028
v 4.42638 0.970991 -30.5082
vn 0.991918 -0.113159 0.057389
v 4.42787 0.981462 -30.5504
vn 0.995266 -0.0895392 -0.0378025
v 4.4251 0.992315 -30.5924
vn 0.989028 -0.0650567 -0.13263
v 4.41811 1.00345 -30.6339
vn 0.973266 -0.0399476 -0.22618
v 4.40697 1.01475 -30.6744
vn 0.948131 -0.0144538 -0.317552
v 4.39178 1.02611 -30.7136
vn 0.913864 0.0111791 -0.405866
v 4.37269 1.03743 -30.751
vn 0.870797 0.0367044 -0.490271
v 4.34988 1.04859 -30.7863
vn 0.819343 0.0618763 -0.569954
v 4.13822 -0.668697 -31.2422
vn 0.757419 0.0627885 -0.649904
v 4.10839 -0.658022 -31.2726
vn 0.690767 0.0866458 -0.717867
v 4.0756 -0.647721 -31.2999
vn 0.617464 0.109669 -0.778917
v 4.04014 -0.637893 -31.3239
vn 0.538214 0.131635 -0.832465
v 4.00236 -0.628632 -31.3443
vn 0.45378 0.152334 -0.877996
v 3.96263 -0.620027 -31.3609
vn 0.364977 0.171566 -0.915072
v 3.92132 -0.612161 -31.3735
vn 0.272658 0.189146 -0.943335
v 3.87884 -0.605111 -31.3821
vn 0.177714 0.204904 -0.962513
v 3.83559 -0.598943 -31.3865
vn 0.0810582 0.218689 -0.972422
v 3.792 -0.593718 -31.3868
vn -0.0163782 0.230367 -0.972966
v 3.74847 -0.589485 -31.3828
vn -0.113657 0.239827 -0.96414
v 3.70544 -0.586286 -31.3747
vn -0.209841 0.246978 -0.946028
v 3.66331 -0.584151 -31.3625
vn -0.304004 0.251749 -0.918806
v 3.62249 -0.5831 -31.3464
vn -0.39524 0.254097 -0.882735
v 3.58337 -0.583145 -31.3264
vn -0.482669 0.253997 -0.838162
v 3.54633 -0.584284 -31.3029
vn -0.56545 0.251451 -0.785518
v 3.51173 -0.586507 -31.276
vn -0.642785 0.246484 -0.725309
v 3.4799 -0.589791 -31.2459
vn -0.71393 0.239143 -0.658115
v 3.45114 -0.594106 -31.213
vn -0.778199 0.229498 -0.584583
v 3.42574 -0.599411 -31.1776
vn -0.834974 0.217644 -0.50542
v 3.40393 -0.605652 -31.14
vn -0.883707 0.203693 -0.421391
v 3.38594 -0.612772 -31.1006
vn -0.92393 0.187781 -0.333303
v 3.37192 -0.620701 -31.0597
vn -0.955255 0.17006 -0.242005
v 3.36202 -0.629362 -31.0178
vn -0.977381 0.150702 -0.148377
v 3.35633 -0.638673 -30.9753
vn -0.990093 0.129892 -0.0533197
v 3.35491 -0.648543 -30.9325
vn -0.993271 0.107831 0.0422511
v 3.35777 -0.658879 -30.8899
vn -0.986883 0.0847323 0.137415
v 3.36488 -0.669579 -30.848
vn -0.97099 0.0608171 0.231255
v 3.37617 -0.680541 -30.807
vn -0.945747 0.0363162 0.322869
v 3.39154 -0.69166 -30.7674
vn -0.911395 0.0114656 0.411373
v 3.41084 -0.702828 -30.7295
vn -0.868266 -0.0134955 0.495915
v 3.43388 -0.713938 -30.6939
vn -0.816775 -0.0383266 0.575681
v 3.46044 -0.724883 -30.6606
vn -0.757419 -0.0627885 0.649904
v 3.49026 -0.735558 -30.6302
vn -0.690767 -0.0866458 0.717867
v 3.52306 -0.745859 -30.6029
vn -0.617464 -0.109669 0.778917
v 3.55852 -0.755687 -30.579
vn -0.538214 -0.131635 0.832465
v 3.59629 -0.764949 -30.5586
vn -0.45378 -0.152334 0.877996
v 3.63603 -0.773553 -30.542
vn -0.364977 -0.171566 0.915072
v 3.67733 -0.781419 -30.5294
vn -0.272658 -0.189146 0.943335
v 3.71981 -0.78847 -30.5208
vn -0.177714 -0.204904 0.962513
v 3.76306 -0.794637 -30.5163
vn -0.0810582 -0.218689 0.972422
v 3.80665 -0.799863 -30.5161
vn 0.0163782 -0.230367 0.972966
v 3.85018 -0.804095 -30.52
vn 0.113657 -0.239827 0.96414
v 3.89322 -0.807295 -30.5282
vn 0.209841 -0.246978 0.946028
v 3.93535 -0.80943 -30.5403
vn 0.304004 -0.251749 0.918806
v 3.97617 -0.81048 -30.5565
vn 0.39524 -0.254097 0.882735
v 4.01529 -0.810435 -30.5764
vn 0.482669 -0.253997 0.838162
v 4.05232 -0.809296 -30.6
vn 0.56545 -0.251451 0.785518
v 4.08693 -0.807074 -30.6269
vn 0.642785 -0.246484 0.725309
v 4.11876 -0.803789 -30.657
vn 0.71393 -0.239143 0.658115
v 4.14751 -0.799474 -30.6899
vn 0.778199 -0.229498 0.584583
v 4.17292 -0.79417 -30.7253
vn 0.834974 -0.217644 0.50542
v 4.19472 -0.787928 -30.7629
vn 0.883707 -0.203693 0.421391
v 4.21272 -0.780808 -30.8023
vn 0.92393 -0.187781 0.333303
v 4.22673 -0.77288 -30.8431
vn 0.955255 -0.17006 0.242005
v 4.23663 -0.764218 -30.885
vn 0.977381 -0.150702 0.148377
v 4.24232 -0.754907 -30.9276
vn 0.990093 -0.129892 0.0533197
v 4.24374 -0.745037 -30.9703
vn 0.993271 -0.107831 -0.0422511
v 4.24088 -0.734702 -31.0129
vn 0.986883 -0.0847323 -0.137415
v 4.23377 -0.724001 -31.0549
vn 0.97099 -0.0608171 -0.231255
v 4.22248 -0.713039 -31.0959
vn 0.945747 -0.0363162 -0.322869
v 4.20711 -0.70192 -31.1355
vn 0.911395 -0.0114656 -0.411373
v 4.18781 -0.690752 -31.1733
vn 0.868266 0.0134955 -0.495915
v 4.16477 -0.679642 -31.209
vn 0.816775 0.0383266 -0.575681
v 3.91957 -2.40057 -31.637
vn 0.754387 0.0391082 -0.655264
v 3.88948 -2.38975 -31.6677
vn 0.68775 0.0630795 -0.723202
v 3.8564 -2.3792 -31.6952
vn 0.61449 0.0864434 -0.784174
v 3.82065 -2.36902 -31.7193
vn 0.535313 0.108975 -0.837595
v 3.78257 -2.35932 -31.7398
vn 0.450979 0.130457 -0.882949
v 3.74252 -2.35019 -31.7564
vn 0.362303 0.150682 -0.9198
v 3.70091 -2.34171 -31.7691
vn 0.270138 0.169456 -0.947792
v 3.65812 -2.33397 -31.7776
vn 0.17537 0.186599 -0.966657
v 3.61456 -2.32704 -31.7819
vn 0.0789144 0.201944 -0.976213
v 3.57066 -2.32099 -31.782
vn -0.0183016 0.215345 -0.976367
v 3.52684 -2.31588 -31.7778
vn -0.115341 0.226671 -0.967118
v 3.48353 -2.31175 -31.7694
vn -0.21127 0.235815 -0.948555
v 3.44113 -2.30865 -31.7569
vn -0.305165 0.242687 -0.920857
v 3.40006 -2.3066 -31.7404
vn -0.39612 0.247223 -0.884291
v 3.36071 -2.30562 -31.7201
vn -0.48326 0.249377 -0.839208
v 3.32346 -2.30574 -31.696
vn -0.565747 0.24913 -0.786044
v 3.28868 -2.30693 -31.6686
vn -0.642785 0.246484 -0.725309
v 3.25669 -2.3092 -31.638
vn -0.713633 0.241464 -0.657589
v 3.2278 -2.31252 -31.6046
vn -0.777608 0.234118 -0.583537
v 3.20229 -2.31685 -31.5686
vn -0.834094 0.224518 -0.503864
v 3.18041 -2.32216 -31.5305
vn -0.882547 0.212755 -0.419339
v 3.16237 -2.3284 -31.4905
vn -0.922501 0.198944 -0.330776
v 3.14834 -2.3355 -31.449
vn -0.953571 0.183216 -0.239027
v 3.13846 -2.3434 -31.4066
vn -0.975457 0.165725 -0.144976
v 3.13282 -2.35202 -31.3635
vn -0.98795 0.146637 -0.0495293
v 3.13147 -2.36127 -31.3202
vn -0.990927 0.126137 0.0463948
v 3.13444 -2.37108 -31.277
vn -0.984362 0.104422 0.141872
v 3.14168 -2.38134 -31.2345
vn -0.968317 0.0817013 0.235983
v 3.15314 -2.39195 -31.1931
vn -0.942946 0.058194 0.327821
v 3.1687 -2.40282 -31.153
vn -0.908494 0.0341262 0.416503
v 3.1882 -2.41384 -31.1148
vn -0.865293 0.00972983 0.501173
v 3.21147 -2.4249 -31.0787
vn -0.813758 -0.0147603 0.581016
v 3.23828 -2.43589 -31.0452
vn -0.754387 -0.0391082 0.655264
v 3.26837 -2.44671 -31.0145
vn -0.68775 -0.0630795 0.723202
v 3.30145 -2.45726 -30.987
vn -0.61449 -0.0864434 0.784174
v 3.33721 -2.46744 -30.9629
vn -0.535313 -0.108975 0.837595
v 3.37529 -2.47714 -30.9424
vn -0.450979 -0.130457 0.882949
v 3.41533 -2.48627 -30.9258
vn -0.362303 -0.150682 0.9198
v 3.45695 -2.49475 -30.9131
vn -0.270138 -0.169456 0.947792
v 3.49974 -2.50249 -30.9046
vn -0.17537 -0.186599 0.966657
v 3.54329 -2.50942 -30.9003
vn -0.0789144 -0.201944 0.976213
v 3.58719 -2.51547 -30.9002
vn 0.0183016 -0.215345 0.976367
v 3.63101 -2.52058 -30.9044
vn 0.115341 -0.226671 0.967118
v 3.67433 -2.52471 -30.9128
vn 0.21127 -0.235815 0.948555
v 3.71672 -2.52782 -30.9253
vn 0.305165 -0.242687 0.920857
v 3.75779 -2.52986 -30.9418
vn 0.39612 -0.247223 0.884291
v 3.79714 -2.53084 -30.9622
vn 0.48326 -0.249377 0.839208
v 3.83439 -2.53073 -30.9862
vn 0.565747 -0.24913 0.786044
v 3.86918 -2.52953 -31.0136
vn 0.642785 -0.246484 0.725309
v 3.90117 -2.52726 -31.0442
vn 0.713633 -0.241464 0.657589
v 3.93006 -2.52395 -31.0776
vn 0.777608 -0.234118 0.583537
v 3.95556 -2.51961 -31.1136
vn 0.834094 -0.224518 0.503864
v 3.97744 -2.5143 -31.1518
vn 0.882547 -0.212755 0.419339
v 3.99548 -2.50806 -31.1917
vn 0.922501 -0.198944 0.330776
v 4.00951 -2.50096 -31.2332
vn 0.953571 -0.183216 0.239027
v 4.01939 -2.49306 -31.2756
vn 0.975457 -0.165725 0.144976
v 4.02504 -2.48445 -31.3187
vn 0.98795 -0.146637 0.0495293
v 4.02638 -2.47519 -31.3621
vn 0.990927 -0.126137 -0.0463948
v 4.02342 -2.46538 -31.4052
vn 0.984362 -0.104422 -0.141872
v 4.01617 -2.45512 -31.4477
vn 0.968317 -0.0817013 -0.235983
v 4.00471 -2.44451 -31.4891
vn 0.942946 -0.058194 -0.327821
v 3.98916 -2.43364 -31.5292
vn 0.908494 -0.0341262 -0.416503
v 3.96965 -2.42262 -31.5674
vn 0.865293 -0.00972983 -0.501173
v 3.94638 -2.41157 -31.6035
vn 0.813758 0.0147603 -0.581016
v 3.66763 -4.13613 -32.0035
vn 0.750911 0.0154538 -0.660222
v 3.63727 -4.12515 -32.0345
vn 0.684291 0.039539 -0.728136
v 3.60391 -4.11435 -32.0622
vn 0.611081 0.0632435 -0.789037
v 3.56787 -4.10383 -32.0865
vn 0.531987 0.0863388 -0.84234
v 3.5295 -4.09368 -32.1071
vn 0.447768 0.108603 -0.88753
v 3.48916 -4.08401 -32.1238
vn 0.359238 0.129821 -0.924173
v 3.44724 -4.07491 -32.1364
vn 0.267248 0.149788 -0.951915
v 3.40415 -4.06647 -32.1449
vn 0.172684 0.168314 -0.97049
v 3.3603 -4.05877 -32.1491
vn 0.0764567 0.185218 -0.979719
v 3.31612 -4.05188 -32.149
vn -0.0205065 0.200338 -0.979512
v 3.27202 -4.04587 -32.1446
vn -0.117272 0.213529 -0.969872
v 3.22844 -4.04079 -32.136
vn -0.212909 0.224664 -0.950892
v 3.1858 -4.03671 -32.1231
vn -0.306495 0.233635 -0.922754
v 3.1445 -4.03364 -32.1063
vn -0.397129 0.240356 -0.88573
v 3.10494 -4.03164 -32.0855
vn -0.483939 0.244763 -0.840175
v 3.06751 -4.0307 -32.0611
vn -0.566088 0.246812 -0.78653
v 3.03256 -4.03085 -32.0332
vn -0.642785 0.246484 -0.725309
v 3.00043 -4.03208 -32.0021
vn -0.713292 0.243782 -0.657103
v 2.97143 -4.03438 -31.9681
vn -0.77693 0.238733 -0.582569
v 2.94584 -4.03773 -31.9316
vn -0.833085 0.231384 -0.502425
v 2.92391 -4.0421 -31.8929
vn -0.881217 0.221807 -0.417442
v 2.90585 -4.04743 -31.8523
vn -0.920863 0.210094 -0.328439
v 2.89182 -4.05369 -31.8103
vn -0.95164 0.196358 -0.236273
v 2.88197 -4.06081 -31.7673
vn -0.973252 0.180731 -0.141831
v 2.8764 -4.06873 -31.7236
vn -0.985492 0.163363 -0.0460232
v 2.87514 -4.07736 -31.6798
vn -0.988241 0.144422 0.0502276
v 2.87823 -4.08662 -31.6361
vn -0.981472 0.12409 0.145995
v 2.88562 -4.09643 -31.5931
vn -0.965251 0.102563 0.240356
v 2.89725 -4.10669 -31.5512
vn -0.939735 0.0800478 0.332402
v 2.913 -4.1173 -31.5107
vn -0.905168 0.0567621 0.421247
v 2.93272 -4.12816 -31.4721
vn -0.861884 0.0329297 0.506036
v 2.95623 -4.13917 -31.4357
vn -0.810299 0.00878025 0.585951
v 2.98329 -4.15021 -31.4018
vn -0.750911 -0.0154538 0.660222
v 3.01365 -4.16119 -31.3709
vn -0.684291 -0.039539 0.728136
v 3.04701 -4.17199 -31.3431
vn -0.611081 -0.0632435 0.789037
v 3.08305 -4.18251 -31.3188
vn -0.531987 -0.0863388 0.84234
v 3.12142 -4.19266 -31.2982
vn -0.447768 -0.108603 0.88753
v 3.16176 -4.20232 -31.2815
vn -0.359238 -0.129821 0.924173
v 3.20368 -4.21142 -31.2689
vn -0.267248 -0.149788 0.951915
v 3.24677 -4.21986 -31.2604
vn -0.172684 -0.168314 0.97049
v 3.29062 -4.22757 -31.2562
vn -0.0764567 -0.185218 0.979719
v 3.3348 -4.23446 -31.2563
vn 0.0205065 -0.200338 0.979512
v 3.3789 -4.24047 -31.2607
vn 0.117272 -0.213529 0.969872
v 3.42248 -4.24554 -31.2694
vn 0.212909 -0.224664 0.950892
v 3.46512 -4.24963 -31.2822
vn 0.306495 -0.233635 0.922754
v 3.50642 -4.25269 -31.2991
vn 0.397129 -0.240356 0.88573
v 3.54598 -4.2547 -31.3198
vn 0.483939 -0.244763 0.840175
v 3.58341 -4.25563 -31.3443
vn 0.566088 -0.246812 0.78653
v 3.61836 -4.25548 -31.3722
vn 0.642785 -0.246484 0.725309
v 3.65049 -4.25425 -31.4032
vn 0.713292 -0.243782 0.657103
v 3.67949 -4.25195 -31.4372
vn 0.77693 -0.238733 0.582569
v 3.70508 -4.2486 -31.4737
vn 0.833085 -0.231384 0.502425
v 3.72701 -4.24424 -31.5125
vn 0.881217 -0.221807 0.417442
v 3.74507 -4.2389 -31.553
vn 0.920863 -0.210094 0.328439
v 3.7591 -4.23264 -31.595
vn 0.95164 -0.196358 0.236273
v 3.76895 -4.22552 -31.638
vn 0.973252 -0.180731 0.141831
v 3.77452 -4.21761 -31.6817
vn 0.985492 -0.163363 0.0460232
v 3.77578 -4.20898 -31.7256
vn 0.988241 -0.144422 -0.0502276
v 3.77269 -4.19971 -31.7692
vn 0.981472 -0.12409 -0.145995
v 3.7653 -4.1899 -31.8122
vn 0.965251 -0.102563 -0.240356
v 3.75367 -4.17964 -31.8541
vn 0.939735 -0.0800478 -0.332402
v 3.73792 -4.16903 -31.8946
vn 0.905168 -0.0567621 -0.421247
v 3.7182 -4.15817 -31.9333
vn 0.861884 -0.0329297 -0.506036
v 3.69469 -4.14717 -31.9697
vn 0.810299 -0.00878025 -0.585951
v 3.3824 -5.87534 -32.3418
vn 0.747001 -0.00813258 -0.664773
v 3.35177 -5.86421 -32.373
vn 0.6804 0.0160662 -0.732664
v 3.31814 -5.85316 -32.401
vn 0.607247 0.0401103 -0.7935
v 3.28181 -5.84228 -32.4254
vn 0.528245 0.0637681 -0.846694
v 3.24315 -5.83168 -32.4461
vn 0.444156 0.0868117 -0.891734
v 3.20252 -5.82147 -32.4629
vn 0.35579 0.109019 -0.928186
v 3.16031 -5.81175 -32.4755
vn 0.263997 0.130177 -0.955699
v 3.11694 -5.80259 -32.484
vn 0.169661 0.150081 -0.974008
v 3.07281 -5.79411 -32.4881
vn 0.0736921 0.16854 -0.982936
v 3.02836 -5.78637 -32.4878
vn -0.0229869 0.185375 -0.982399
v 2.98401 -5.77945 -32.4832
vn -0.119444 0.200426 -0.9724
v 2.94018 -5.77341 -32.4743
vn -0.214752 0.213546 -0.953037
v 2.89731 -5.76833 -32.4612
vn -0.307991 0.224609 -0.924496
v 2.85581 -5.76423 -32.444
vn -0.398264 0.23351 -0.887051
v 2.81606 -5.76118 -32.4228
vn -0.484701 0.240161 -0.841063
v 2.77846 -5.75918 -32.398
vn -0.566471 0.2445 -0.786976
v 2.74337 -5.75827 -32.3696
vn -0.642785 0.246484 -0.725309
v 2.71113 -5.75845 -32.338
vn -0.712909 0.246094 -0.656657
v 2.68205 -5.75972 -32.3036
vn -0.776167 0.243334 -0.581682
v 2.6564 -5.76206 -32.2665
vn -0.83195 0.238231 -0.501104
v 2.63443 -5.76546 -32.2273
vn -0.879721 0.230834 -0.415701
v 2.61636 -5.76989 -32.1861
vn -0.91902 0.221213 -0.326294
v 2.60236 -5.77529 -32.1436
vn -0.949468 0.209462 -0.233744
v 2.59257 -5.78162 -32.1
vn -0.970772 0.195694 -0.138944
v 2.58707 -5.78882 -32.0558
vn -0.982727 0.180041 -0.0428056
v 2.58592 -5.79681 -32.0114
vn -0.985218 0.162654 0.0537452
v 2.58914 -5.80553 -31.9672
vn -0.978221 0.143701 0.149778
v 2.59669 -5.81488 -31.9238
vn -0.961803 0.123364 0.244369
v 2.6085 -5.82478 -31.8813
vn -0.936122 0.101839 0.336606
v 2.62445 -5.83512 -31.8404
vn -0.901426 0.0793329 0.425602
v 2.6444 -5.84582 -31.8014
vn -0.858049 0.0560629 0.510499
v 2.66814 -5.85677 -31.7646
vn -0.806408 0.0322531 0.590479
v 2.69546 -5.86786 -31.7305
vn -0.747001 0.00813258 0.664773
v 2.72608 -5.87899 -31.6992
vn -0.6804 -0.0160662 0.732664
v 2.75972 -5.89004 -31.6713
vn -0.607247 -0.0401103 0.7935
v 2.79604 -5.90092 -31.6468
vn -0.528245 -0.0637681 0.846694
v 2.8347 -5.91152 -31.6261
vn -0.444156 -0.0868117 0.891734
v 2.87533 -5.92173 -31.6093
vn -0.35579 -0.109019 0.928186
v 2.91754 -5.93146 -31.5967
vn -0.263997 -0.130177 0.955699
v 2.96092 -5.94061 -31.5883
vn -0.169661 -0.150081 0.974008
v 3.00504 -5.9491 -31.5842
vn -0.0736921 -0.16854 0.982936
v 3.0495 -5.95684 -31.5844
vn 0.0229869 -0.185375 0.982399
v 3.09385 -5.96376 -31.589
vn 0.119444 -0.200426 0.9724
v 3.13767 -5.96979 -31.5979
vn 0.214752 -0.213546 0.953037
v 3.18054 -5.97488 -31.611
vn 0.307991 -0.224609 0.924496
v 3.22205 -5.97897 -31.6283
vn 0.398264 -0.23351 0.887051
v 3.26179 -5.98203 -31.6494
vn 0.484701 -0.240161 0.841063
v 3.29939 -5.98402 -31.6743
vn 0.566471 -0.2445 0.786976
v 3.33448 -5.98493 -31.7026
vn 0.642785 -0.246484 0.725309
v 3.36672 -5.98475 -31.7342
vn 0.712909 -0.246094 0.656657
v 3.39581 -5.98349 -31.7687
vn 0.776167 -0.243334 0.581682
v 3.42146 -5.98114 -31.8057
vn 0.83195 -0.238231 0.501104
v 3.44342 -5.97774 -31.845
vn 0.879721 -0.230834 0.415701
v 3.46149 -5.97331 -31.8861
vn 0.91902 -0.221213 0.326294
v 3.47549 -5.96791 -31.9286
vn 0.949468 -0.209462 0.233744
v 3.48529 -5.96158 -31.9722
vn 0.970772 -0.195694 0.138944
v 3.49078 -5.95438 -32.0164
vn 0.982727 -0.180041 0.0428056
v 3.49193 -5.94639 -32.0608
vn 0.985218 -0.162654 -0.0537452
v 3.48871 -5.93767 -32.105
vn 0.978221 -0.143701 -0.149778
v 3.48116 -5.92832 -32.1485
vn 0.961803 -0.123364 -0.244369
v 3.46935 -5.91843 -32.1909
vn 0.936122 -0.101839 -0.336606
v 3.4534 -5.90808 -32.2318
vn 0.901426 -0.0793329 -0.425602
v 3.43346 -5.89738 -32.2708
vn 0.858049 -0.0560629 -0.510499
v 3.40971 -5.88643 -32.3076
vn 0.806408 -0.0322531 -0.590479
v 3.06387 -7.61819 -32.6518
vn 0.742669 -0.0316095 -0.668912
v 3.03298 -7.60691 -32.6833
vn 0.676089 -0.00729769 -0.736784
v 2.99907 -7.5956 -32.7114
vn 0.602998 0.0170844 -0.79756
v 2.96247 -7.58437 -32.7361
vn 0.5241 0.041302 -0.850655
v 2.92352 -7.57332 -32.7569
vn 0.440154 0.0651219 -0.895558
v 2.88261 -7.56256 -32.7737
vn 0.351969 0.0883145 -0.931836
v 2.84013 -7.55219 -32.7864
vn 0.260395 0.110657 -0.95914
v 2.79648 -7.54232 -32.7948
vn 0.166313 0.131933 -0.977207
v 2.75209 -7.53304 -32.7988
vn 0.0706289 0.151939 -0.985863
v 2.70739 -7.52444 -32.7984
vn -0.0257351 0.170482 -0.985025
v 2.6628 -7.5166 -32.7936
vn -0.121851 0.187382 -0.9747
v 2.61875 -7.50959 -32.7845
vn -0.216794 0.202479 -0.954988
v 2.57567 -7.5035 -32.7711
vn -0.309649 0.215625 -0.92608
v 2.53398 -7.49836 -32.7535
vn -0.399521 0.226695 -0.888252
v 2.49407 -7.49424 -32.732
vn -0.485546 0.235581 -0.841871
v 2.45633 -7.49117 -32.7067
vn -0.566895 0.242199 -0.787381
v 2.42112 -7.48918 -32.6779
vn -0.642785 0.246484 -0.725309
v 2.38879 -7.48829 -32.6459
vn -0.712484 0.248395 -0.656252
v 2.35964 -7.48852 -32.6109
vn -0.775322 0.247914 -0.580874
v 2.33395 -7.48985 -32.5734
vn -0.830692 0.245046 -0.499903
v 2.31197 -7.49227 -32.5336
vn -0.878063 0.239818 -0.414117
v 2.29392 -7.49577 -32.4919
vn -0.916978 0.23228 -0.324343
v 2.27996 -7.5003 -32.4488
vn -0.947061 0.222505 -0.231445
v 2.27024 -7.50583 -32.4047
vn -0.968024 0.210587 -0.136318
v 2.26484 -7.5123 -32.3599
vn -0.979664 0.196642 -0.0398788
v 2.26382 -7.51965 -32.315
vn -0.98187 0.180802 0.0569447
v 2.26718 -7.52781 -32.2704
vn -0.974619 0.163221 0.15322
v 2.2749 -7.53669 -32.2264
vn -0.957983 0.144069 0.248019
v 2.2869 -7.54622 -32.1835
vn -0.93212 0.123529 0.34043
v 2.30306 -7.5563 -32.1422
vn -0.897281 0.101799 0.429563
v 2.32323 -7.56684 -32.1027
vn -0.8538 0.0790888 0.514558
v 2.34722 -7.57773 -32.0656
vn -0.802097 0.055617 0.594598
v 2.37479 -7.58886 -32.0311
vn -0.742669 0.0316095 0.668912
v 2.40567 -7.60014 -31.9996
vn -0.676089 0.00729769 0.736784
v 2.43958 -7.61146 -31.9714
vn -0.602998 -0.0170844 0.79756
v 2.47619 -7.62269 -31.9468
vn -0.5241 -0.041302 0.850655
v 2.51513 -7.63374 -31.926
vn -0.440154 -0.0651219 0.895558
v 2.55604 -7.6445 -31.9091
vn -0.351969 -0.0883145 0.931836
v 2.59852 -7.65487 -31.8965
vn -0.260395 -0.110657 0.95914
v 2.64217 -7.66474 -31.8881
vn -0.166313 -0.131933 0.977207
v 2.68656 -7.67402 -31.8841
vn -0.0706289 -0.151939 0.985863
v 2.73127 -7.68262 -31.8845
vn 0.0257351 -0.170482 0.985025
v 2.77586 -7.69046 -31.8893
vn 0.121851 -0.187382 0.9747
v 2.8199 -7.69746 -31.8984
vn 0.216794 -0.202479 0.954988
v 2.86298 -7.70356 -31.9118
vn 0.309649 -0.215625 0.92608
v 2.90467 -7.7087 -31.9294
vn 0.399521 -0.226695 0.888252
v 2.94458 -7.71282 -31.9509
vn 0.485546 -0.235581 0.841871
v 2.98232 -7.71589 -31.9762
vn 0.566895 -0.242199 0.787381
v 3.01753 -7.71788 -32.005
vn 0.642785 -0.246484 0.725309
v 3.04986 -7.71877 -32.037
vn 0.712484 -0.248395 0.656252
v 3.07902 -7.71854 -32.072
vn 0.775322 -0.247914 0.580874
v 3.1047 -7.71721 -32.1095
vn 0.830692 -0.245046 0.499903
v 3.12668 -7.71479 -32.1493
vn 0.878063 -0.239818 0.414117
v 3.14473 -7.71129 -32.191
vn 0.916978 -0.23228 0.324343
v 3.15869 -7.70675 -32.2341
vn 0.947061 -0.222505 0.231445
v 3.16841 -7.70123 -32.2782
vn 0.968024 -0.210587 0.136318
v 3.17381 -7.69476 -32.3229
vn 0.979664 -0.196642 0.0398788
v 3.17484 -7.68741 -32.3679
vn 0.98187 -0.180802 -0.0569447
v 3.17147 -7.67925 -32.4125
vn 0.974619 -0.163221 -0.15322
v 3.16376 -7.67037 -32.4565
vn 0.957983 -0.144069 -0.248019
v 3.15176 -7.66084 -32.4994
vn 0.93212 -0.123529 -0.34043
v 3.13559 -7.65076 -32.5407
vn 0.897281 -0.101799 -0.429563
v 3.11542 -7.64022 -32.5802
vn 0.8538 -0.0790888 -0.514558
v 3.09144 -7.62933 -32.6173
vn 0.802097 -0.055617 -0.594598
v 2.71204 -9.36467 -32.9335
vn 0.737929 -0.0549368 -0.672639
v 2.68089 -9.35323 -32.9652
vn 0.671372 -0.0305127 -0.740492
v 2.64671 -9.34167 -32.9937
vn 0.598349 -0.00579464 -0.801215
v 2.60984 -9.33007 -33.0185
vn 0.519564 0.0189792 -0.854221
v 2.57062 -9.31856 -33.0394
vn 0.435774 0.0435702 -0.899001
v 2.52944 -9.30725 -33.0563
vn 0.347789 0.0677417 -0.935123
v 2.48669 -9.29624 -33.069
vn 0.256453 0.0912608 -0.962239
v 2.44279 -9.28564 -33.0774
vn 0.162648 0.113901 -0.980088
v 2.39815 -9.27556 -33.0813
vn 0.0672771 0.135444 -0.988498
v 2.35321 -9.26609 -33.0808
vn -0.0287422 0.155683 -0.987389
v 2.3084 -9.25732 -33.0758
vn -0.124485 0.174423 -0.97677
v 2.26414 -9.24933 -33.0665
vn -0.219028 0.191482 -0.956745
v 2.22088 -9.24221 -33.0528
vn -0.311463 0.206698 -0.927506
v 2.17902 -9.23602 -33.0349
vn -0.400897 0.219923 -0.889334
v 2.13897 -9.23082 -33.013
vn -0.486471 0.23103 -0.842598
v 2.10111 -9.22666 -32.9874
vn -0.56736 0.239912 -0.787747
v 2.06581 -9.22359 -32.9581
vn -0.642785 0.246484 -0.725309
v 2.0334 -9.22162 -32.9256
vn -0.712019 0.250682 -0.655886
v 2.00421 -9.22079 -32.8902
vn -0.774397 0.252465 -0.580147
v 1.9785 -9.22109 -32.8521
vn -0.829316 0.251818 -0.498821
v 1.95654 -9.22253 -32.8118
vn -0.876249 0.248745 -0.412691
v 1.93852 -9.22509 -32.7696
vn -0.914743 0.243276 -0.322586
v 1.92462 -9.22874 -32.726
vn -0.944428 0.235465 -0.229375
v 1.91499 -9.23346 -32.6814
vn -0.965017 0.225386 -0.133954
v 1.9097 -9.2392 -32.6361
vn -0.976312 0.213137 -0.0372437
v 1.90882 -9.24589 -32.5907
vn -0.978205 0.198834 0.0598254
v 1.91234 -9.25348 -32.5455
vn -0.970678 0.182617 0.156318
v 1.92024 -9.26189 -32.501
vn -0.953802 0.164642 0.251306
v 1.93244 -9.27105 -32.4577
vn -0.927741 0.14508 0.343873
v 1.94881 -9.28086 -32.4159
vn -0.892745 0.124122 0.433129
v 1.96922 -9.29123 -32.3761
vn -0.849151 0.101968 0.518213
v 1.99345 -9.30206 -32.3386
vn -0.79738 0.0788319 0.598307
v 2.02128 -9.31324 -32.3038
vn -0.737929 0.0549368 0.672639
v 2.05243 -9.32467 -32.2721
vn -0.671372 0.0305127 0.740492
v 2.08661 -9.33624 -32.2437
vn -0.598349 0.00579464 0.801215
v 2.12348 -9.34784 -32.2188
vn -0.519564 -0.0189792 0.854221
v 2.1627 -9.35935 -32.1979
vn -0.435774 -0.0435702 0.899001
v 2.20388 -9.37066 -32.181
vn -0.347789 -0.0677417 0.935123
v 2.24663 -9.38167 -32.1683
vn -0.256453 -0.0912608 0.962239
v 2.29053 -9.39226 -32.1599
vn -0.162648 -0.113901 0.980088
v 2.33517 -9.40235 -32.156
vn -0.0672771 -0.135444 0.988498
v 2.38011 -9.41182 -32.1565
vn 0.0287422 -0.155683 0.987389
v 2.42492 -9.42059 -32.1615
vn 0.124485 -0.174423 0.97677
v 2.46918 -9.42858 -32.1709
vn 0.219028 -0.191482 0.956745
v 2.51244 -9.4357 -32.1845
vn 0.311463 -0.206698 0.927506
v 2.5543 -9.44189 -32.2024
vn 0.400897 -0.219923 0.889334
v 2.59435 -9.44709 -32.2243
vn 0.486471 -0.23103 0.842598
v 2.63221 -9.45124 -32.25
vn 0.56736 -0.239912 0.787747
v 2.66751 -9.45432 -32.2792
vn 0.642785 -0.246484 0.725309
v 2.69992 -9.45628 -32.3117
vn 0.712019 -0.250682 0.655886
v 2.72911 -9.45712 -32.3471
vn 0.774397 -0.252465 0.580147
v 2.75482 -9.45682 -32.3852
vn 0.829316 -0.251818 0.498821
v 2.77678 -9.45538 -32.4255
vn 0.876249 -0.248745 0.412691
v 2.7948 -9.45282 -32.4677
vn 0.914743 -0.243276 0.322586
v 2.8087 -9.44916 -32.5113
vn 0.944428 -0.235465 0.229375
v 2.81833 -9.44444 -32.556
vn 0.965017 -0.225386 0.133954
v 2.82362 -9.43871 -32.6012
vn 0.976312 -0.213137 0.0372437
v 2.8245 -9.43202 -32.6467
vn 0.978205 -0.198834 -0.0598254
v 2.82098 -9.42443 -32.6918
vn 0.970678 -0.182617 -0.156318
v 2.81308 -9.41601 -32.7363
vn 0.953802 -0.164642 -0.251306
v 2.80089 -9.40686 -32.7796
vn 0.927741 -0.14508 -0.343873
v 2.78451 -9.39705 -32.8214
vn 0.892745 -0.124122 -0.433129
v 2.7641 -9.38668 -32.8612
vn 0.849151 -0.101968 -0.518213
v 2.73987 -9.37585 -32.8987
vn 0.79738 -0.0788319 -0.598307
f 1 66 2 
f 1 65 66 
f 2 67 3 
f 2 66 67 
f 3 68 4 
f 3 67 68 
f 4 69 5 
f 4 68 69 
f 5 70 6 
f 5 69 70 
f 6 71 7 
f 6 70 71 
f 7 72 8 
f 7 71 72 
f 8 73 9 
f 8 72 73 
f 9 74 10 
f 9 73 74 
f 10 75 11 
f 10 74 75 
f 11 76 12 
f 11 75 76 
f 12 77 13 
f 12 76 77 
f 13 78 14 
f 13 77 78 
f 14 79 15 
f 14 78 79 
f 15 80 16 
f 15 79 80 
f 16 81 17 
f 16 80 81 
f 17 82 18 
f 17 81 82 
f 18 83 19 
f 18 82 83 
f 19 84 20 
f 19 83 84 
f 20 85 21 
f 20 84 85 
f 21 86 22 
f 21 85 86 
f 22 87 23 
f 22 86 87 
f 23 88 24 
f 23 87 88 
f 24 89 25 
f 24 88 89 
f 25 90 26 
f 25 89 90 
f 26 91 27 
f 26 90 91 
f 27 92 28 
f 27 91 92 
f 28 93 29 
f 28 92 93 
f 29 94 30 
f 29 93 94 
f 30 95 31 
f 30 94 95 
f 31 96 32 
f 31 95 96 
f 32 97 33 
f 32 96 97 
f 33 98 34 
f 33 97 98 
f 34 99 35 
f 34 98 99 
f 35 100 36 
f 35 99 100 
f 36 101 37 
f 36 100 101 
f 37 102 38 
f 37 101 102 
f 38 103 39 
f 38 102 103 
f 39 104 40 
f 39 103 104 
f 40 105 41 
f 40 104 105 
f 41 106 42 
f 41 105 106 
f 42 107 43 
f 42 106 107 
f 43 108 44 
f 43 107 108 
f 44 109 45 
f 44 108 109 
f 45 110 46 
f 45 109 110 
f 46 111 47 
f 46 110 111 
f 47 112 48 
f 47 111 112 
f 48 113 49 
f 48 112 113 
f 49 114 50 
f 49 113 114 
f 50 115 51 
f 50 114 115 
f 51 116 52 
f 51 115 116 
f 52 117 53 
f 52 116 117 
f 53 118 54 
f 53 117 118 
f 54 119 55 
f 54 118 119 
f 55 120 56 
f 55 119 120 
f 56 121 57 
f 56 120 121 
f 57 122 58 
f 57 121 122 
f 58 123 59 
f 58 122 123 
f 59 124 60 
f 59 123 124 
f 60 125 61 
f 60 124 125 
f 61 126 62 
f 61 125 126 
f 62 127 63 
f 62 126 127 
f 63 128 64 
f 63 127 128 
f 64 65 1 
f 64 128 65 
f 65 130 66 
f 65 129 130 
f 66 131 67 
f 66 130 131 
f 67 132 68 
f 67 131 132 
f 68 133 69 
f 68 132 133 
f 69 134 70 
f 69 133 134 
f 70 135 71 
f 70 134 135 
f 71 136 72 
f 71 135 136 
f 72 137 73 
f 72 136 137 
f 73 138 74 
f 73 137 138 
f 74 139 75 
f 74 138 139 
f 75 140 76 
f 75 139 140 
f 76 141 77 
f 76 140 141 
f 77 142 78 
f 77 141 142 
f 78 143 79 
f 78 142 143 
f 79 144 80 
f 79 143 144 
f 80 145 81 
f 80 144 145 
f 81 146 82 
f 81 145 146 
f 82 147 83 
f 82 146 147 
f 83 148 84 
f 83 147 148 
f 84 149 85 
f 84 148 149 
f 85 150 86 
f 85 149 150 
f 86 151 87 
f 86 150 151 
f 87 152 88 
f 87 151 152 
f 88 153 89 
f 88 152 153 
f 89 154 90 
f 89 153 154 
f 90 155 91 
f 90 154 155 
f 91 156 92 
f 91 155 156 
f 92 157 93 
f 92 156 157 
f 93 158 94 
f 93 157 158 
f 94 159 95 
f 94 158 159 
f 95 160 96 
f 95 159 160 
f 96 161 97 
f 96 160 161 
f 97 162 98 
f 97 161 162 
f 98 163 99 
f 98 162 163 
f 99 164 100 
f 99 163 164 
f 100 165 101 
f 100 164 165 
f 101 166 102 
f 101 165 166 
f 102 167 103 
f 102 166 167 
f 103 168 104 
f 103 167 168 
f 104 169 105 
f 104 168 169 
f 105 170 106 
f 105 169 170 
f 106 171 107 
f 106 170 171 
f 107 172 108 
f 107 171 172 
f 108 173 109 
f 108 172 173 
f 109 174 110 
f 109 173 174 
f 110 175 111 
f 110 174 175 
f 111 176 112 
f 111 175 176 
f 112 177 113 
f 112 176 177 
f 113 178 114 
f 113 177 178 
f 114 179 115 
f 114 178 179 
f 115 180 116 
f 115 179 180 
f 116 181 117 
f 116 180 181 
f 117 182 118 
f 117 181 182 
f 118 183 119 
f 118 182 183 
f 119 184 120 
f 119 183 184 
f 120 185 121 
f 120 184 185 
f 121 186 122 
f 121 185 186 
f 122 187 123 
f 122 186 187 
f 123 188 124 
f 123 187 188 
f 124 189 125 
f 124 188 189 
f 125 190 126 
f 125 189 190 
f 126 191 127 
f 126 190 191 
f 127 192 128 
f 127 191 192 
f 128 129 65 
f 128 192 129 
f 129 194 130 
f 129 193 194 
f 130 195 131 
f 130 194 195 
f 131 196 132 
f 131 195 196 
f 132 197 133 
f 132 196 197 
f 133 198 134 
f 133 197 198 
f 134 199 135 
f 134 198 199 
f 135 200 136 
f 135 199 200 
f 136 201 137 
f 136 200 201 
f 137 202 138 
f 137 201 202 
f 138 203 139 
f 138 202 203 
f 139 204 140 
f 139 203 204 
f 140 205 141 
f 140 204 205 
f 141 206 142 
f 141 205 206 
f 142 207 143 
f 142 206 207 
f 143 208 144 
f 143 207 208 
f 144 209 145 
f 144 208 209 
f 145 210 146 
f 145 209 210 
f 146 211 147 
f 146 210 211 
f 147 212 148 
f 147 211 212 
f 148 213 149 
f 148 212 213 
f 149 214 150 
f 149 213 214 
f 150 215 151 
f 150 214 215 
f 151 216 152 
f 151 215 216 
f 152 217 153 
f 152 216 217 
f 153 218 154 
f 153 217 218 
f 154 219 155 
f 154 218 219 
f 155 220 156 
f 155 219 220 
f 156 221 157 
f 156 220 221 
f 157 222 158 
f 157 221 222 
f 158 223 159 
f 158 222 223 
f 159 224 160 
f 159 223 224 
f 160 225 161 
f 160 224 225 
f 161 226 162 
f 161 225 226 
f 162 227 163 
f 162 226 227 
f 163 228 164 
f 163 227 228 
f 164 229 165 
f 164 228 229 
f 165 230 166 
f 165 229 230 
f 166 231 167 
f 166 230 231 
f 167 232 168 
f 167 231 232 
f 168 233 169 
f 168 232 233 
f 169 234 170 
f 169 233 234 
f 170 235 171 
f 170 234 235 
f 171 236 172 
f 171 235 236 
f 172 237 173 
f 172 236 237 
f 173 238 174 
f 173 237 238 
f 174 239 175 
f 174 238 239 
f 175 240 176 
f 175 239 240 
f 176 241 177 
f 176 240 241 
f 177 242 178 
f 177 241 242 
f 178 243 179 
f 178 242 243 
f 179 244 180 
f 179 243 244 
f 180 245 181 
f 180 244 245 
f 181 246 182 
f 181 245 246 
f 182 247 183 
f 182 246 247 
f 183 248 184 
f 183 247 248 
f 184 249 185 
f 184 248 249 
f 185 250 186 
f 185 249 250 
f 186 251 187 
f 186 250 251 
f 187 252 188 
f 187 251 252 
f 188 253 189 
f 188 252 253 
f 189 254 190 
f 189 253 254 
f 190 255 191 
f 190 254 255 
f 191 256 192 
f 191 255 256 
f 192 193 129 
f 192 256 193 
f 193 258 194 
f 193 257 258 
f 194 259 195 
f 194 258 259 
f 195 260 196 
f 195 259 260 
f 196 261 197 
f 196 260 261 
f 197 262 198 
f 197 261 262 
f 198 263 199 
f 198 262 263 
f 199 264 200 
f 199 263 264 
f 200 265 201 
f 200 264 265 
f 201 266 202 
f 201 265 266 
f 202 267 203 
f 202 266 267 
f 203 268 204 
f 203 267 268 
f 204 269 205 
f 204 268 269 
f 205 270 206 
f 205 269 270 
f 206 271 207 
f 206 270 271 
f 207 272 208 
f 207 271 272 
f 208 273 209 
f 208 272 273 
f 209 274 210 
f 209 273 274 
f 210 275 211 
f 210 274 275 
f 211 276 212 
f 211 275 276 
f 212 277 213 
f 212 276 277 
f 213 278 214 
f 213 277 278 
f 214 279 215 
f 214 278 279 
f 215 280 216 
f 215 279 280 
f 216 281 217 
f 216 280 281 
f 217 282 218 
f 217 281 282 
f 218 283 219 
f 218 282 283 
f 219 284 220 
f 219 283 284 
f 220 285 221 
f 220 284 285 
f 221 286 222 
f 221 285 286 
f 222 287 223 
f 222 286 287 
f 223 288 224 
f 223 287 288 
f 224 289 225 
f 224 288 289 
f 225 290 226 
f 225 289 290 
f 226 291 227 
f 226 290 291 
f 227 292 228 
f 227 291 292 
f 228 293 229 
f 228 292 293 
f 229 294 230 
f 229 293 294 
f 230 295 231 
f 230 294 295 
f 231 296 232 
f 231 295 296 
f 232 297 233 
f 232 296 297 
f 233 298 234 
f 233 297 298 
f 234 299 235 
f 234 298 299 
f 235 300 236 
f 235 299 300 
f 236 301 237 
f 236 300 301 
f 237 302 238 
f 237 301 302 
f 238 303 239 
f 238 302 303 
f 239 304 240 
f 239 303 304 
f 240 305 241 
f 240 304 305 
f 241 306 242 
f 241 305 306 
f 242 307 243 
f 242 306 307 
f 243 308 244 
f 243 307 308 
f 244 309 245 
f 244 308 309 
f 245 310 246 
f 245 309 310 
f 246 311 247 
f 246 310 311 
f 247 312 248 
f 247 311 312 
f 248 313 249 
f 248 312 313 
f 249 314 250 
f 249 313 314 
f 250 315 251 
f 250 314 315 
f 251 316 252 
f 251 315 316 
f 252 317 253 
f 252 316 317 
f 253 318 254 
f 253 317 318 
f 254 319 255 
f 254 318 319 
f 255 320 256 
f 255 319 320 
f 256 257 193 
f 256 320 257 
f 257 322 258 
f 257 321 322 
f 258 323 259 
f 258 322 323 
f 259 324 260 
f 259 323 324 
f 260 325 261 
f 260 324 325 
f 261 326 262 
f 261 325 326 
f 262 327 263 
f 262 326 327 
f 263 328 264 
f 263 327 328 
f 264 329 265 
f 264 328 329 
f 265 330 266 
f 265 329 330 
f 266 331 267 
f 266 330 331 
f 267 332 268 
f 267 331 332 
f 268 333 269 
f 268 332 333 
f 269 334 270 
f 269 333 334 
f 270 335 271 
f 270 334 335 
f 271 336 272 
f 271 335 336 
f 272 337 273 
f 272 336 337 
f 273 338 274 
f 273 337 338 
f 274 339 275 
f 274 338 339 
f 275 340 276 
f 275 339 340 
f 276 341 277 
f 276 340 341 
f 277 342 278 
f 277 341 342 
f 278 343 279 
f 278 342 343 
f 279 344 280 
f 279 343 344 
f 280 345 281 
f 280 344 345 
f 281 346 282 
f 281 345 346 
f 282 347 283 
f 282 346 347 
f 283 348 284 
f 283 347 348 
f 284 349 285 
f 284 348 349 
f 285 350 286 
f 285 349 350 
f 286 351 287 
f 286 350 351 
f 287 352 288 
f 287 351 352 
f 288 353 289 
f 288 352 353 
f 289 354 290 
f 289 353 354 
f 290 355 291 
f 290 354 355 
f 291 356 292 
f 291 355 356 
f 292 357 293 
f 292 356 357 
f 293 358 294 
f 293 357 358 
f 294 359 295 
f 294 358 359 
f 295 360 296 
f 295 359 360 
f 296 361 297 
f 296 360 361 
f 297 362 298 
f 297 361 362 
f 298 363 299 
f 298 362 363 
f 299 364 300 
f 299 363 364 
f 300 365 301 
f 300 364 365 
f 301 366 302 
f 301 365 366 
f 302 367 303 
f 302 366 367 
f 303 368 304 
f 303 367 368 
f 304 369 305 
f 304 368 369 
f 305 370 306 
f 305 369 370 
f 306 371 307 
f 306 370 371 
f 307 372 308 
f 307 371 372 
f 308 373 309 
f 308 372 373 
f 309 374 310 
f 309 373 374 
f 310 375 311 
f 310 374 375 
f 311 376 312 
f 311 375 376 
f 312 377 313 
f 312 376 377 
f 313 378 314 
f 313 377 378 
f 314 379 315 
f 314 378 379 
f 315 380 316 
f 315 379 380 
f 316 381 317 
f 316 380 381 
f 317 382 318 
f 317 381 382 
f 318 383 319 
f 318 382 383 
f 319 384 320 
f 319 383 384 
f 320 321 257 
f 320 384 321 
f 321 386 322 
f 321 385 386 
f 322 387 323 
f 322 386 387 
f 323 388 324 
f 323 387 388 
f 324 389 325 
f 324 388 389 
f 325 390 326 
f 325 389 390 
f 326 391 327 
f 326 390 391 
f 327 392 328 
f 327 391 392 
f 328 393 329 
f 328 392 393 
f 329 394 330 
f 329 393 394 
f 330 395 331 
f 330 394 395 
f 331 396 332 
f 331 395 396 
f 332 397 333 
f 332 396 397 
f 333 398 334 
f 333 397 398 
f 334 399 335 
f 334 398 399 
f 335 400 336 
f 335 399 400 
f 336 401 337 
f 336 400 401 
f 337 402 338 
f 337 401 402 
f 338 403 339 
f 338 402 403 
f 339 404 340 
f 339 403 404 
f 340 405 341 
f 340 404 405 
f 341 406 342 
f 341 405 406 
f 342 407 343 
f 342 406 407 
f 343 408 344 
f 343 407 408 
f 344 409 345 
f 344 408 409 
f 345 410 346 
f 345 409 410 
f 346 411 347 
f 346 410 411 
f 347 412 348 
f 347 411 412 
f 348 413 349 
f 348 412 413 
f 349 414 350 
f 349 413 414 
f 350 415 351 
f 350 414 415 
f 351 416 352 
f 351 415 416 
f 352 417 353 
f 352 416 417 
f 353 418 354 
f 353 417 418 
f 354 419 355 
f 354 418 419 
f 355 420 356 
f 355 419 420 
f 356 421 357 
f 356 420 421 
f 357 422 358 
f 357 421 422 
f 358 423 359 
f 358 422 423 
f 359 424 360 
f 359 423 424 
f 360 425 361 
f 360 424 425 
f 361 426 362 
f 361 425 426 
f 362 427 363 
f 362 426 427 
f 363 428 364 
f 363 427 428 
f 364 429 365 
f 364 428 429 
f 365 430 366 
f 365 429 430 
f 366 431 367 
f 366 430 431 
f 367 432 368 
f 367 431 432 
f 368 433 369 
f 368 432 433 
f 369 434 370 
f 369 433 434 
f 370 435 371 
f 370 434 435 
f 371 436 372 
f 371 435 436 
f 372 437 373 
f 372 436 437 
f 373 438 374 
f 373 437 438 
f 374 439 375 
f 374 438 439 
f 375 440 376 
f 375 439 440 
f 376 441 377 
f 376 440 441 
f 377 442 378 
f 377 441 442 
f 378 443 379 
f 378 442 443 
f 379 444 380 
f 379 443 444 
f 380 445 381 
f 380 444 445 
f 381 446 382 
f 381 445 446 
f 382 447 383 
f 382 446 447 
f 383 448 384 
f 383 447 448 
f 384 385 321 
f 384 448 385 
f 385 450 386 
f 385 449 450 
f 386 451 387 
f 386 450 451 
f 387 452 388 
f 387 451 452 
f 388 453 389 
f 388 452 453 
f 389 454 390 
f 389 453 454 
f 390 455 391 
f 390 454 455 
f 391 456 392 
f 391 455 456 
f 392 457 393 
f 392 456 457 
f 393 458 394 
f 393 457 458 
f 394 459 395 
f 394 458 459 
f 395 460 396 
f 395 459 460 
f 396 461 397 
f 396 460 461 
f 397 462 398 
f 397 461 462 
f 398 463 399 
f 398 462 463 
f 399 464 400 
f 399 463 464 
f 400 465 401 
f 400 464 465 
f 401 466 402 
f 401 465 466 
f 402 467 403 
f 402 466 467 
f 403 468 404 
f 403 467 468 
f 404 469 405 
f 404 468 469 
f 405 470 406 
f 405 469 470 
f 406 471 407 
f 406 470 471 
f 407 472 408 
f 407 471 472 
f 408 473 409 
f 408 472 473 
f 409 474 410 
f 409 473 474 
f 410 475 411 
f 410 474 475 
f 411 476 412 
f 411 475 476 
f 412 477 413 
f 412 476 477 
f 413 478 414 
f 413 477 478 
f 414 479 415 
f 414 478 479 
f 415 480 416 
f 415 479 480 
f 416 481 417 
f 416 480 481 
f 417 482 418 
f 417 481 482 
f 418 483 419 
f 418 482 483 
f 419 484 420 
f 419 483 484 
f 420 485 421 
f 420 484 485 
f 421 486 422 
f 421 485 486 
f 422 487 423 
f 422 486 487 
f 423 488 424 
f 423 487 488 
f 424 489 425 
f 424 488 489 
f 425 490 426 
f 425 489 490 
f 426 491 427 
f 426 490 491 
f 427 492 428 
f 427 491 492 
f 428 493 429 
f 428 492 493 
f 429 494 430 
f 429 493 494 
f 430 495 431 
f 430 494 495 
f 431 496 432 
f 431 495 496 
f 432 497 433 
f 432 496 497 
f 433 498 434 
f 433 497 498 
f 434 499 435 
f 434 498 499 
f 435 500 436 
f 435 499 500 
f 436 501 437 
f 436 500 501 
f 437 502 438 
f 437 501 502 
f 438 503 439 
f 438 502 503 
f 439 504 440 
f 439 503 504 
f 440 505 441 
f 440 504 505 
f 441 506 442 
f 441 505 506 
f 442 507 443 
f 442 506 507 
f 443 508 444 
f 443 507 508 
f 444 509 445 
f 444 508 509 
f 445 510 446 
f 445 509 510 
f 446 511 447 
f 446 510 511 
f 447 512 448 
f 447 511 512 
f 448 449 385 
f 448 512 449 
f 449 514 450 
f 449 513 514 
f 450 515 451 
f 450 514 515 
f 451 516 452 
f 451 515 516 
f 452 517 453 
f 452 516 517 
f 453 518 454 
f 453 517 518 
f 454 519 455 
f 454 518 519 
f 455 520 456 
f 455 519 520 
f 456 521 457 
f 456 520 521 
f 457 522 458 
f 457 521 522 
f 458 523 459 
f 458 522 523 
f 459 524 460 
f 459 523 524 
f 460 525 461 
f 460 524 525 
f 461 526 462 
f 461 525 526 
f 462 527 463 
f 462 526 527 
f 463 528 464 
f 463 527 528 
f 464 529 465 
f 464 528 529 
f 465 530 466 
f 465 529 530 
f 466 531 467 
f 466 530 531 
f 467 532 468 
f 467 531 532 
f 468 533 469 
f 468 532 533 
f 469 534 470 
f 469 533 534 
f 470 535 471 
f 470 534 535 
f 471 536 472 
f 471 535 536 
f 472 537 473 
f 472 536 537 
f 473 538 474 
f 473 537 538 
f 474 539 475 
f 474 538 539 
f 475 540 476 
f 475 539 540 
f 476 541 477 
f 476 540 541 
f 477 542 478 
f 477 541 542 
f 478 543 479 
f 478 542 543 
f 479 544 480 
f 479 543 544 
f 480 545 481 
f 480 544 545 
f 481 546 482 
f 481 545 546 
f 482 547 483 
f 482 546 547 
f 483 548 484 
f 483 547 548 
f 484 549 485 
f 484 548 549 
f 485 550 486 
f 485 549 550 
f 486 551 487 
f 486 550 551 
f 487 552 488 
f 487 551 552 
f 488 553 489 
f 488 552 553 
f 489 554 490 
f 489 553 554 
f 490 555 491 
f 490 554 555 
f 491 556 492 
f 491 555 556 
f 492 557 493 
f 492 556 557 
f 493 558 494 
f 493 557 558 
f 494 559 495 
f 494 558 559 
f 495 560 496 
f 495 559 560 
f 496 561 497 
f 496 560 561 
f 497 562 498 
f 497 561 562 
f 498 563 499 
f 498 562 563 
f 499 564 500 
f 499 563 564 
f 500 565 501 
f 500 564 565 
f 501 566 502 
f 501 565 566 
f 502 567 503 
f 502 566 567 
f 503 568 504 
f 503 567 568 
f 504 569 505 
f 504 568 569 
f 505 570 506 
f 505 569 570 
f 506 571 507 
f 506 570 571 
f 507 572 508 
f 507 571 572 
f 508 573 509 
f 508 572 573 
f 509 574 510 
f 509 573 574 
f 510 575 511 
f 510 574 575 
f 511 576 512 
f 511 575 576 
f 512 513 449 
f 512 576 513 
f 513 578 514 
f 513 577 578 
f 514 579 515 
f 514 578 579 
f 515 580 516 
f 515 579 580 
f 516 581 517 
f 516 580 581 
f 517 582 518 
f 517 581 582 
f 518 583 519 
f 518 582 583 
f 519 584 520 
f 519 583 584 
f 520 585 521 
f 520 584 585 
f 521 586 522 
f 521 585 586 
f 522 587 523 
f 522 586 587 
f 523 588 524 
f 523 587 588 
f 524 589 525 
f 524 588 589 
f 525 590 526 
f 525 589 590 
f 526 591 527 
f 526 590 591 
f 527 592 528 
f 527 591 592 
f 528 593 529 
f 528 592 593 
f 529 594 530 
f 529 593 594 
f 530 595 531 
f 530 594 595 
f 531 596 532 
f 531 595 596 
f 532 597 533 
f 532 596 597 
f 533 598 534 
f 533 597 598 
f 534 599 535 
f 534 598 599 
f 535 600 536 
f 535 599 600 
f 536 601 537 
f 536 600 601 
f 537 602 538 
f 537 601 602 
f 538 603 539 
f 538 602 603 
f 539 604 540 
f 539 603 604 
f 540 605 541 
f 540 604 605 
f 541 606 542 
f 541 605 606 
f 542 607 543 
f 542 606 607 
f 543 608 544 
f 543 607 608 
f 544 609 545 
f 544 608 609 
f 545 610 546 
f 545 609 610 
f 546 611 547 
f 546 610 611 
f 547 612 548 
f 547 611 612 
f 548 613 549 
f 548 612 613 
f 549 614 550 
f 549 613 614 
f 550 615 551 
f 550 614 615 
f 551 616 552 
f 551 615 616 
f 552 617 553 
f 552 616 617 
f 553 618 554 
f 553 617 618 
f 554 619 555 
f 554 618 619 
f 555 620 556 
f 555 619 620 
f 556 621 557 
f 556 620 621 
f 557 622 558 
f 557 621 622 
f 558 623 559 
f 558 622 623 
f 559 624 560 
f 559 623 624 
f 560 625 561 
f 560 624 625 
f 561 626 562 
f 561 625 626 
f 562 627 563 
f 562 626 627 
f 563 628 564 
f 563 627 628 
f 564 629 565 
f 564 628 629 
f 565 630 566 
f 565 629 630 
f 566 631 567 
f 566 630 631 
f 567 632 568 
f 567 631 632 
f 568 633 569 
f 568 632 633 
f 569 634 570 
f 569 633 634 
f 570 635 571 
f 570 634 635 
f 571 636 572 
f 571 635 636 
f 572 637 573 
f 572 636 637 
f 573 638 574 
f 573 637 638 
f 574 639 575 
f 574 638 639 
f 575 640 576 
f 575 639 640 
f 576 577 513 
f 576 640 577 
