# Branch
v -4.75109 4.83019 -29.3935
vn 0.141471 0.333526 0.932066
v -4.73715 4.82874 -29.3958
vn 0.237742 0.323539 0.915861
v -4.72355 4.82684 -29.3994
vn 0.331724 0.310435 0.890836
v -4.7104 4.82451 -29.4043
vn 0.422511 0.294343 0.857232
v -4.69785 4.82177 -29.4104
vn 0.50923 0.275415 0.815372
v -4.686 4.81865 -29.4176
vn 0.591044 0.253835 0.76566
v -4.67498 4.81517 -29.4258
vn 0.667166 0.22981 0.708574
v -4.66489 4.81137 -29.4351
vn 0.736862 0.203572 0.644664
v -4.65582 4.80729 -29.4452
vn 0.799463 0.175374 0.574546
v -4.64788 4.80296 -29.4562
vn 0.854364 0.145487 0.498894
v -4.64112 4.79843 -29.4678
vn 0.901037 0.114198 0.418438
v -4.63562 4.79374 -29.4801
vn 0.939033 0.0818102 0.333952
v -4.63142 4.78894 -29.4928
vn 0.967985 0.0486341 0.24625
v -4.62858 4.78407 -29.5058
vn 0.987615 0.0149897 0.156176
v -4.62712 4.77918 -29.5191
vn 0.997734 -0.0187991 0.0645988
v -4.62704 4.77431 -29.5324
vn 0.998244 -0.0524069 -0.027601
v -4.62836 4.76952 -29.5457
vn 0.989141 -0.0855099 -0.119535
v -4.63106 4.76484 -29.5589
vn 0.970511 -0.117789 -0.210318
v -4.63511 4.76033 -29.5717
vn 0.942535 -0.148935 -0.299075
v -4.64047 4.75603 -29.5842
vn 0.905482 -0.178645 -0.384952
v -4.6471 4.75198 -29.596
vn 0.859708 -0.206636 -0.467122
v -4.65493 4.74822 -29.6073
vn 0.805655 -0.232636 -0.544793
v -4.66388 4.74478 -29.6178
vn 0.743844 -0.256396 -0.617218
v -4.67386 4.74169 -29.6274
vn 0.674868 -0.277687 -0.683698
v -4.68479 4.739 -29.6361
vn 0.599393 -0.296303 -0.743594
v -4.69655 4.73672 -29.6437
vn 0.518146 -0.312066 -0.796329
v -4.70904 4.73487 -29.6502
vn 0.431909 -0.324824 -0.841394
v -4.72213 4.73347 -29.6556
vn 0.341512 -0.334453 -0.878357
v -4.73569 4.73255 -29.6597
vn 0.247826 -0.340861 -0.90686
v -4.7496 4.73209 -29.6626
vn 0.151754 -0.343987 -0.92663
v -4.76372 4.73212 -29.6642
vn 0.0542195 -0.3438 -0.937476
v -4.77792 4.73263 -29.6644
vn -0.0438366 -0.340302 -0.939294
v -4.79206 4.73361 -29.6634
vn -0.141471 -0.333526 -0.932066
v -4.806 4.73505 -29.661
vn -0.237742 -0.323539 -0.915861
v -4.8196 4.73695 -29.6574
vn -0.331724 -0.310435 -0.890836
v -4.83275 4.73928 -29.6525
vn -0.422511 -0.294343 -0.857232
v -4.8453 4.74202 -29.6465
vn -0.50923 -0.275415 -0.815372
v -4.85715 4.74515 -29.6393
vn -0.591044 -0.253835 -0.76566
v -4.86817 4.74863 -29.631
vn -0.667166 -0.22981 -0.708574
v -4.87826 4.75242 -29.6218
vn -0.736862 -0.203572 -0.644664
v -4.88732 4.75651 -29.6116
vn -0.799463 -0.175374 -0.574546
v -4.89527 4.76083 -29.6006
vn -0.854364 -0.145487 -0.498894
v -4.90203 4.76536 -29.589
vn -0.901037 -0.114198 -0.418438
v -4.90753 4.77005 -29.5768
vn -0.939033 -0.0818102 -0.333952
v -4.91172 4.77486 -29.5641
vn -0.967985 -0.0486341 -0.24625
v -4.91457 4.77973 -29.551
vn -0.987615 -0.0149897 -0.156176
v -4.91603 4.78462 -29.5378
vn -0.997734 0.0187991 -0.0645988
v -4.91611 4.78949 -29.5244
vn -0.998244 0.0524069 0.027601
v -4.91479 4.79428 -29.5111
vn -0.989141 0.0855099 0.119535
v -4.91209 4.79895 -29.498
vn -0.970511 0.117789 0.210318
v -4.90804 4.80346 -29.4851
vn -0.942535 0.148935 0.299075
v -4.90267 4.80776 -29.4727
vn -0.905482 0.178645 0.384952
v -4.89605 4.81182 -29.4608
vn -0.859708 0.206636 0.467122
v -4.88822 4.81558 -29.4495
vn -0.805655 0.232636 0.544793
v -4.87927 4.81902 -29.4391
vn -0.743844 0.256396 0.617218
v -4.86929 4.8221 -29.4294
vn -0.674868 0.277687 0.683698
v -4.85836 4.8248 -29.4208
vn -0.599393 0.296303 0.743594
v -4.84659 4.82708 -29.4131
vn -0.518146 0.312066 0.796329
v -4.83411 4.82893 -29.4066
vn -0.431909 0.324824 0.841394
v -4.82102 4.83032 -29.4012
vn -0.341512 0.334453 0.878357
v -4.80746 4.83125 -29.3971
vn -0.247826 0.340861 0.90686
v -4.79355 4.8317 -29.3943
vn -0.151754 0.343987 0.92663
v -4.77942 4.83168 -29.3927
vn -0.0542195 0.3438 0.937476
v -4.76523 4.83117 -29.3924
vn 0.0438366 0.340302 0.939294
v -4.81027 3.61583 -29.0145
vn 0.137037 0.24265 0.960386
v -4.79629 3.61445 -29.0168
vn 0.23333 0.2331 0.944045
v -4.78263 3.61273 -29.0205
vn 0.327376 0.221305 0.918613
v -4.76943 3.61071 -29.0255
vn 0.418269 0.207379 0.884333
v -4.75682 3.6084 -29.0317
vn 0.505133 0.191456 0.841537
v -4.74491 3.60582 -29.0391
vn 0.587133 0.173689 0.790637
v -4.73383 3.603 -29.0476
vn 0.663479 0.154249 0.732122
v -4.72367 3.59996 -29.0571
vn 0.733435 0.133324 0.666556
v -4.71454 3.59673 -29.0676
vn 0.796328 0.111115 0.594572
v -4.70652 3.59335 -29.0789
vn 0.851551 0.0878353 0.516861
v -4.69969 3.58985 -29.0909
vn 0.898574 0.0637101 0.434172
v -4.69412 3.58626 -29.1035
vn 0.936943 0.0389713 0.347302
v -4.68986 3.58261 -29.1166
vn 0.966289 0.0138572 0.257088
v -4.68695 3.57895 -29.1301
vn 0.986328 -0.0113904 0.164398
v -4.68542 3.5753 -29.1437
vn 0.996869 -0.0365282 0.0701239
v -4.68528 3.5717 -29.1575
vn 0.99781 -0.0613143 -0.0248251
v -4.68654 3.56818 -29.1713
vn 0.989141 -0.0855099 -0.119535
v -4.68918 3.56479 -29.1849
vn 0.970946 -0.108882 -0.213094
v -4.69318 3.56155 -29.1982
vn 0.9434 -0.131206 -0.3046
v -4.6985 3.55849 -29.211
vn 0.906769 -0.152265 -0.393173
v -4.70509 3.55564 -29.2233
vn 0.861405 -0.171859 -0.47796
v -4.71288 3.55304 -29.235
vn 0.807746 -0.189797 -0.558143
v -4.7218 3.5507 -29.2458
vn 0.746307 -0.205908 -0.632952
v -4.73176 3.54865 -29.2558
vn 0.677681 -0.220035 -0.701664
v -4.74268 3.5469 -29.2648
vn 0.602528 -0.232044 -0.76362
v -4.75443 3.54549 -29.2727
vn 0.521573 -0.241818 -0.818221
v -4.76692 3.5444 -29.2795
vn 0.435595 -0.249263 -0.864942
v -4.78001 3.54367 -29.2851
vn 0.345422 -0.254307 -0.903334
v -4.79359 3.5433 -29.2894
vn 0.251922 -0.256902 -0.933025
v -4.80752 3.54328 -29.2924
vn 0.155996 -0.257024 -0.953732
v -4.82166 3.54362 -29.2941
vn 0.058568 -0.25467 -0.965253
v -4.83589 3.54432 -29.2944
vn -0.0394243 -0.249863 -0.967478
v -4.85007 3.54536 -29.2934
vn -0.137037 -0.24265 -0.960386
v -4.86405 3.54675 -29.291
vn -0.23333 -0.2331 -0.944045
v -4.87771 3.54846 -29.2873
vn -0.327376 -0.221305 -0.918613
v -4.89091 3.55049 -29.2823
vn -0.418269 -0.207379 -0.884333
v -4.90352 3.5528 -29.2761
vn -0.505133 -0.191456 -0.841537
v -4.91543 3.55538 -29.2687
vn -0.587133 -0.173689 -0.790637
v -4.92651 3.5582 -29.2602
vn -0.663479 -0.154249 -0.732122
v -4.93667 3.56124 -29.2507
vn -0.733435 -0.133324 -0.666556
v -4.9458 3.56446 -29.2403
vn -0.796328 -0.111115 -0.594572
v -4.95382 3.56785 -29.229
vn -0.851551 -0.0878353 -0.516861
v -4.96065 3.57135 -29.217
vn -0.898574 -0.0637101 -0.434172
v -4.96622 3.57494 -29.2044
vn -0.936943 -0.0389713 -0.347302
v -4.97048 3.57859 -29.1913
vn -0.966289 -0.0138572 -0.257088
v -4.97339 3.58225 -29.1778
vn -0.986328 0.0113904 -0.164398
v -4.97492 3.5859 -29.1641
vn -0.996869 0.0365282 -0.0701239
v -4.97506 3.5895 -29.1503
vn -0.99781 0.0613143 0.0248251
v -4.9738 3.59302 -29.1366
vn -0.989141 0.0855099 0.119535
v -4.97116 3.59641 -29.123
vn -0.970946 0.108882 0.213094
v -4.96716 3.59965 -29.1097
vn -0.9434 0.131206 0.3046
v -4.96184 3.60271 -29.0968
vn -0.906769 0.152265 0.393173
v -4.95525 3.60555 -29.0845
vn -0.861405 0.171859 0.47796
v -4.94746 3.60816 -29.0729
vn -0.807746 0.189797 0.558143
v -4.93854 3.6105 -29.062
vn -0.746307 0.205908 0.632952
v -4.92857 3.61255 -29.052
vn -0.677681 0.220035 0.701664
v -4.91766 3.61429 -29.043
vn -0.602528 0.232044 0.76362
v -4.90591 3.61571 -29.0351
vn -0.521573 0.241818 0.818221
v -4.89342 3.61679 -29.0283
vn -0.435595 0.249263 0.864942
v -4.88033 3.61753 -29.0228
vn -0.345422 0.254307 0.903334
v -4.86675 3.6179 -29.0184
vn -0.251922 0.256902 0.933025
v -4.85282 3.61792 -29.0154
vn -0.155996 0.257024 0.953732
v -4.83867 3.61758 -29.0138
vn -0.058568 0.25467 0.965253
v -4.82444 3.61688 -29.0134
vn 0.0394243 0.249863 0.967478
v -4.88618 2.37078 -28.7519
vn 0.131371 0.149746 0.979958
v -4.87215 2.36945 -28.7543
vn 0.227691 0.140644 0.963523
v -4.85844 2.36793 -28.7581
vn 0.321818 0.130187 0.937808
v -4.84518 2.36623 -28.7631
vn 0.412846 0.118476 0.903062
v -4.83251 2.36435 -28.7694
vn 0.499898 0.105624 0.859619
v -4.82053 2.36233 -28.777
vn 0.582136 0.0917553 0.807897
v -4.80937 2.36019 -28.7856
vn 0.658768 0.0770027 0.748395
v -4.79913 2.35793 -28.7954
vn 0.729055 0.0615085 0.681686
v -4.78992 2.35559 -28.806
vn 0.792321 0.045422 0.608411
v -4.78182 2.35318 -28.8176
vn 0.847957 0.028898 0.529277
v -4.7749 2.35073 -28.8298
vn 0.895426 0.0120957 0.445046
v -4.76925 2.34827 -28.8427
vn 0.934272 -0.00482312 0.356529
v -4.7649 2.34581 -28.8561
vn 0.96412 -0.0216955 0.264578
v -4.76191 2.34339 -28.8699
vn 0.984684 -0.0383588 0.170079
v -4.76029 2.34101 -28.8839
vn 0.995764 -0.0546528 0.0739421
v -4.76008 2.33872 -28.898
vn 0.997254 -0.0704205 -0.0229068
v -4.76126 2.33652 -28.912
vn 0.989141 -0.0855099 -0.119535
v -4.76383 2.33444 -28.9259
vn 0.971501 -0.0997759 -0.215012
v -4.76776 2.3325 -28.9396
vn 0.944506 -0.113081 -0.308419
v -4.77301 2.33073 -28.9527
vn 0.908414 -0.125297 -0.398855
v -4.77954 2.32912 -28.9653
vn 0.863574 -0.136306 -0.48545
v -4.78728 2.32771 -28.9773
vn 0.810417 -0.146003 -0.56737
v -4.79616 2.3265 -28.9884
vn 0.749455 -0.154293 -0.643825
v -4.80609 2.32551 -28.9986
vn 0.681275 -0.161098 -0.714081
v -4.81698 2.32475 -29.0079
vn 0.606535 -0.166351 -0.777459
v -4.82871 2.32421 -29.016
vn 0.525953 -0.170002 -0.83335
v -4.84118 2.32392 -29.023
vn 0.440306 -0.172016 -0.881215
v -4.85427 2.32387 -29.0287
vn 0.350419 -0.172374 -0.920594
v -4.86786 2.32406 -29.0331
vn 0.257157 -0.171071 -0.951107
v -4.8818 2.32449 -29.0363
vn 0.161418 -0.16812 -0.972461
v -4.89597 2.32515 -29.038
vn 0.0641253 -0.163551 -0.984449
v -4.91023 2.32605 -29.0384
vn -0.0337854 -0.157407 -0.986956
v -4.92444 2.32716 -29.0373
vn -0.131371 -0.149746 -0.979958
v -4.93847 2.32849 -29.035
vn -0.227691 -0.140644 -0.963523
v -4.95217 2.33001 -29.0312
vn -0.321818 -0.130187 -0.937808
v -4.96543 2.33172 -29.0261
vn -0.412846 -0.118476 -0.903062
v -4.97811 2.33359 -29.0198
vn -0.499898 -0.105624 -0.859619
v -4.99008 2.33561 -29.0123
vn -0.582136 -0.0917553 -0.807897
v -5.00124 2.33776 -29.0036
vn -0.658768 -0.0770027 -0.748395
v -5.01148 2.34001 -28.9939
vn -0.729055 -0.0615085 -0.681686
v -5.02069 2.34236 -28.9832
vn -0.792321 -0.045422 -0.608411
v -5.0288 2.34476 -28.9717
vn -0.847957 -0.028898 -0.529277
v -5.03571 2.34721 -28.9594
vn -0.895426 -0.0120957 -0.445046
v -5.04137 2.34967 -28.9466
vn -0.934272 0.00482312 -0.356529
v -5.04571 2.35213 -28.9332
vn -0.96412 0.0216955 -0.264578
v -5.04871 2.35456 -28.9194
vn -0.984684 0.0383588 -0.170079
v -5.05032 2.35693 -28.9054
vn -0.995764 0.0546528 -0.0739421
v -5.05054 2.35923 -28.8913
vn -0.997254 0.0704205 0.0229068
v -5.04936 2.36143 -28.8772
vn -0.989141 0.0855099 0.119535
v -5.04679 2.3635 -28.8633
vn -0.971501 0.0997759 0.215012
v -5.04286 2.36544 -28.8497
vn -0.944506 0.113081 0.308419
v -5.0376 2.36722 -28.8366
vn -0.908414 0.125297 0.398855
v -5.03107 2.36882 -28.8239
vn -0.863574 0.136306 0.48545
v -5.02333 2.37024 -28.812
vn -0.810417 0.146003 0.56737
v -5.01445 2.37144 -28.8009
vn -0.749455 0.154293 0.643825
v -5.00452 2.37243 -28.7906
vn -0.681275 0.161098 0.714081
v -4.99364 2.3732 -28.7814
vn -0.606535 0.166351 0.777459
v -4.9819 2.37373 -28.7733
vn -0.525953 0.170002 0.83335
v -4.96943 2.37402 -28.7663
vn -0.440306 0.172016 0.881215
v -4.95634 2.37408 -28.7606
vn -0.350419 0.172374 0.920594
v -4.94276 2.37389 -28.7561
vn -0.257157 0.171071 0.951107
v -4.92881 2.37346 -28.753
vn -0.161418 0.16812 0.972461
v -4.91465 2.37279 -28.7513
vn -0.0641253 0.163551 0.984449
v -4.90039 2.3719 -28.7509
vn 0.0337854 0.157407 0.986956
v -4.97878 1.09539 -28.6059
vn 0.124662 0.0573442 0.990541
v -4.96471 1.09413 -28.6083
vn 0.221014 0.0486866 0.974055
v -4.95094 1.09279 -28.612
vn 0.315238 0.0395602 0.948188
v -4.93763 1.09141 -28.6172
vn 0.406426 0.0300528 0.913189
v -4.92488 1.08998 -28.6235
vn 0.4937 0.0202559 0.869396
v -4.91283 1.08852 -28.6312
vn 0.576219 0.010264 0.817231
v -4.90159 1.08704 -28.6399
vn 0.653189 0.000173188 0.757194
v -4.89126 1.08557 -28.6498
vn 0.723869 -0.00991926 0.689866
v -4.88196 1.08411 -28.6606
vn 0.787577 -0.0199162 0.615894
v -4.87376 1.08268 -28.6722
vn 0.843701 -0.0297213 0.535991
v -4.86675 1.08129 -28.6847
vn 0.891699 -0.0392402 0.450925
v -4.86099 1.07995 -28.6977
vn 0.931109 -0.0483812 0.361517
v -4.85655 1.07868 -28.7113
vn 0.961553 -0.0570562 0.268628
v -4.85345 1.0775 -28.7252
vn 0.982736 -0.0651818 0.173151
v -4.85174 1.0764 -28.7394
vn 0.994455 -0.0726796 0.0760067
v -4.85143 1.07541 -28.7537
vn 0.996597 -0.0794775 -0.0218695
v -4.85252 1.07453 -28.768
vn 0.989141 -0.0855099 -0.119535
v -4.855 1.07377 -28.7821
vn 0.972159 -0.0907189 -0.216049
v -4.85885 1.07313 -28.7959
vn 0.945814 -0.0950542 -0.310483
v -4.86402 1.07263 -28.8092
vn 0.910361 -0.098474 -0.401927
v -4.87048 1.07227 -28.822
vn 0.866141 -0.100946 -0.4895
v -4.87816 1.07205 -28.8341
vn 0.813579 -0.102445 -0.572358
v -4.88698 1.07198 -28.8454
vn 0.753182 -0.102958 -0.649705
v -4.89686 1.07205 -28.8558
vn 0.685532 -0.102479 -0.720794
v -4.90771 1.07226 -28.8652
vn 0.611279 -0.101013 -0.784942
v -4.91941 1.07262 -28.8734
vn 0.53114 -0.0985746 -0.841531
v -4.93186 1.07311 -28.8805
vn 0.445885 -0.0951867 -0.890015
v -4.94494 1.07374 -28.8863
vn 0.356336 -0.0908822 -0.929927
v -4.95852 1.0745 -28.8909
vn 0.263356 -0.0857024 -0.960884
v -4.97247 1.07538 -28.894
vn 0.167839 -0.0796972 -0.982588
v -4.98666 1.07637 -28.8958
vn 0.0707056 -0.0729245 -0.994828
v -5.00095 1.07746 -28.8962
vn -0.0271085 -0.0654495 -0.997488
v -5.01519 1.07864 -28.8952
vn -0.124662 -0.0573442 -0.990541
v -5.02927 1.07991 -28.8928
vn -0.221014 -0.0486866 -0.974055
v -5.04303 1.08124 -28.889
vn -0.315238 -0.0395602 -0.948188
v -5.05635 1.08263 -28.8839
vn -0.406426 -0.0300528 -0.913189
v -5.06909 1.08406 -28.8775
vn -0.4937 -0.0202559 -0.869396
v -5.08115 1.08552 -28.8699
vn -0.576219 -0.010264 -0.817231
v -5.09239 1.08699 -28.8611
vn -0.653189 -0.000173188 -0.757194
v -5.10271 1.08847 -28.8513
vn -0.723869 0.00991926 -0.689866
v -5.11201 1.08993 -28.8405
vn -0.787577 0.0199162 -0.615894
v -5.12021 1.09136 -28.8288
vn -0.843701 0.0297213 -0.535991
v -5.12722 1.09275 -28.8164
vn -0.891699 0.0392402 -0.450925
v -5.13298 1.09408 -28.8033
vn -0.931109 0.0483812 -0.361517
v -5.13742 1.09535 -28.7898
vn -0.961553 0.0570562 -0.268628
v -5.14052 1.09654 -28.7758
vn -0.982736 0.0651818 -0.173151
v -5.14223 1.09763 -28.7616
vn -0.994455 0.0726796 -0.0760067
v -5.14254 1.09862 -28.7473
vn -0.996597 0.0794775 0.0218695
v -5.14145 1.09951 -28.7331
vn -0.989141 0.0855099 0.119535
v -5.13897 1.10027 -28.719
vn -0.972159 0.0907189 0.216049
v -5.13513 1.1009 -28.7052
vn -0.945814 0.0950542 0.310483
v -5.12995 1.1014 -28.6918
vn -0.910361 0.098474 0.401927
v -5.12349 1.10176 -28.679
vn -0.866141 0.100946 0.4895
v -5.11581 1.10198 -28.6669
vn -0.813579 0.102445 0.572358
v -5.10699 1.10205 -28.6556
vn -0.753182 0.102958 0.649705
v -5.09711 1.10198 -28.6453
vn -0.685532 0.102479 0.720794
v -5.08627 1.10177 -28.6359
vn -0.611279 0.101013 0.784942
v -5.07456 1.10141 -28.6276
vn -0.53114 0.0985746 0.841531
v -5.06211 1.10092 -28.6205
vn -0.445885 0.0951867 0.890015
v -5.04903 1.10029 -28.6147
vn -0.356336 0.0908822 0.929927
v -5.03545 1.09953 -28.6102
vn -0.263356 0.0857024 0.960884
v -5.0215 1.09866 -28.607
vn -0.167839 0.0796972 0.982588
v -5.00731 1.09767 -28.6052
vn -0.0707056 0.0729245 0.994828
v -4.99303 1.09658 -28.6048
vn 0.0271085 0.0654495 0.997488
v -5.08805 -0.209985 -28.5762
vn 0.117167 -0.0322089 0.99259
v -5.07393 -0.21119 -28.5786
vn 0.213556 -0.0404352 0.976094
v -5.06011 -0.212338 -28.5824
vn 0.307888 -0.0482722 0.950197
v -5.04673 -0.213418 -28.5876
vn 0.399255 -0.0556442 0.91515
v -5.03391 -0.214419 -28.594
vn 0.486776 -0.0624804 0.871289
v -5.02177 -0.215333 -28.6016
vn 0.56961 -0.0687148 0.819038
v -5.01044 -0.216149 -28.6104
vn 0.646958 -0.0742875 0.758898
v -5.00003 -0.21686 -28.6203
vn 0.718076 -0.0791447 0.69145
v -4.99062 -0.21746 -28.6312
vn 0.782278 -0.0832398 0.617343
v -4.98232 -0.217943 -28.6429
vn 0.838946 -0.0865332 0.53729
v -4.9752 -0.218303 -28.6554
vn 0.887535 -0.0889932 0.452064
v -4.96934 -0.218538 -28.6685
vn 0.927577 -0.0905962 0.362483
v -4.96478 -0.218645 -28.6821
vn 0.958685 -0.0913267 0.269412
v -4.96158 -0.218623 -28.6962
vn 0.980561 -0.0911776 0.173746
v -4.95976 -0.218472 -28.7104
vn 0.992993 -0.0901505 0.0764064
v -4.95934 -0.218195 -28.7248
vn 0.995862 -0.0882552 -0.0216686
v -4.96032 -0.217793 -28.7391
vn 0.989141 -0.0855099 -0.119535
v -4.9627 -0.21727 -28.7533
vn 0.972893 -0.0819412 -0.21625
v -4.96645 -0.216632 -28.7671
vn 0.947276 -0.0775832 -0.310883
v -4.97154 -0.215884 -28.7806
vn 0.912537 -0.0724782 -0.402521
v -4.97792 -0.215034 -28.7934
vn 0.869009 -0.0666751 -0.490284
v -4.98552 -0.21409 -28.8056
vn 0.817112 -0.0602299 -0.573324
v -4.99427 -0.213061 -28.8169
vn 0.757346 -0.0532046 -0.650843
v -5.0041 -0.211957 -28.8274
vn 0.690286 -0.045667 -0.722094
v -5.01489 -0.210788 -28.8368
vn 0.616578 -0.0376895 -0.786391
v -5.02656 -0.209566 -28.8451
vn 0.536933 -0.0293491 -0.843114
v -5.03898 -0.208303 -28.8522
vn 0.452116 -0.0207261 -0.891718
v -5.05204 -0.207011 -28.8581
vn 0.362945 -0.0119034 -0.931734
v -5.06562 -0.205702 -28.8626
vn 0.270279 -0.00296611 -0.962777
v -5.07957 -0.204389 -28.8658
vn 0.17501 0.00599975 -0.984548
v -5.09377 -0.203084 -28.8676
vn 0.0780557 0.0149078 -0.996838
v -5.10809 -0.2018 -28.868
vn -0.0196505 0.0236723 -0.999527
v -5.12237 -0.20055 -28.867
vn -0.117167 0.0322089 -0.99259
v -5.13649 -0.199345 -28.8646
vn -0.213556 0.0404352 -0.976094
v -5.15031 -0.198197 -28.8608
vn -0.307888 0.0482722 -0.950197
v -5.16369 -0.197117 -28.8557
vn -0.399255 0.0556442 -0.91515
v -5.17651 -0.196115 -28.8492
vn -0.486776 0.0624804 -0.871289
v -5.18864 -0.195202 -28.8416
vn -0.56961 0.0687148 -0.819038
v -5.19997 -0.194386 -28.8328
vn -0.646958 0.0742875 -0.758898
v -5.21039 -0.193675 -28.8229
vn -0.718076 0.0791447 -0.69145
v -5.21979 -0.193075 -28.812
vn -0.782278 0.0832398 -0.617343
v -5.22809 -0.192592 -28.8003
vn -0.838946 0.0865332 -0.53729
v -5.23521 -0.192232 -28.7878
vn -0.887535 0.0889932 -0.452064
v -5.24108 -0.191997 -28.7747
vn -0.927577 0.0905962 -0.362483
v -5.24563 -0.19189 -28.7611
vn -0.958685 0.0913267 -0.269412
v -5.24884 -0.191912 -28.7471
vn -0.980561 0.0911776 -0.173746
v -5.25066 -0.192062 -28.7328
vn -0.992993 0.0901505 -0.0764064
v -5.25108 -0.19234 -28.7184
vn -0.995862 0.0882552 0.0216686
v -5.25009 -0.192742 -28.7041
vn -0.989141 0.0855099 0.119535
v -5.24771 -0.193265 -28.6899
vn -0.972893 0.0819412 0.21625
v -5.24396 -0.193903 -28.6761
vn -0.947276 0.0775832 0.310883
v -5.23887 -0.194651 -28.6626
vn -0.912537 0.0724782 0.402521
v -5.2325 -0.195501 -28.6498
vn -0.869009 0.0666751 0.490284
v -5.2249 -0.196445 -28.6376
vn -0.817112 0.0602299 0.573324
v -5.21614 -0.197474 -28.6263
vn -0.757346 0.0532046 0.650843
v -5.20632 -0.198578 -28.6158
vn -0.690286 0.045667 0.722094
v -5.19552 -0.199747 -28.6064
vn -0.616578 0.0376895 0.786391
v -5.18386 -0.200968 -28.5981
vn -0.536933 0.0293491 0.843114
v -5.17143 -0.202232 -28.591
vn -0.452116 0.0207261 0.891718
v -5.15837 -0.203524 -28.5851
vn -0.362945 0.0119034 0.931734
v -5.1448 -0.204833 -28.5806
vn -0.270279 0.00296611 0.962777
v -5.13084 -0.206146 -28.5774
vn -0.17501 -0.00599975 0.984548
v -5.11664 -0.207451 -28.5756
vn -0.0780557 -0.0149078 0.996838
v -5.10233 -0.208735 -28.5752
vn 0.0196505 -0.0236723 0.999527
v -5.21393 -1.54507 -28.6629
vn 0.109174 -0.11701 0.987112
v -5.19977 -1.54622 -28.6653
vn 0.205602 -0.124828 0.970642
v -5.18589 -1.54719 -28.6691
vn 0.300049 -0.131444 0.944825
v -5.17244 -1.54798 -28.6742
vn 0.391606 -0.136794 0.909908
v -5.15955 -1.54857 -28.6806
vn 0.479392 -0.140826 0.866228
v -5.14733 -1.54896 -28.6883
vn 0.562561 -0.143503 0.814206
v -5.13591 -1.54915 -28.6971
vn 0.640312 -0.144797 0.754343
v -5.12539 -1.54914 -28.7069
vn 0.711897 -0.144697 0.687215
v -5.11588 -1.54892 -28.7178
vn 0.776626 -0.143203 0.613469
v -5.10747 -1.54849 -28.7295
vn 0.833876 -0.14033 0.533815
v -5.10024 -1.54787 -28.7419
vn 0.883095 -0.136106 0.44902
v -5.09426 -1.54706 -28.755
vn 0.923809 -0.130571 0.359901
v -5.08959 -1.54606 -28.7686
vn 0.955626 -0.123779 0.267315
v -5.08627 -1.54489 -28.7826
vn 0.97824 -0.115794 0.172156
v -5.08433 -1.54355 -28.7968
vn 0.991434 -0.106694 0.0753377
v -5.08379 -1.54207 -28.8111
vn 0.995079 -0.0965672 -0.0222056
v -5.08467 -1.54044 -28.8254
vn 0.989141 -0.0855099 -0.119535
v -5.08694 -1.5387 -28.8396
vn 0.973677 -0.0736292 -0.215713
v -5.09059 -1.53685 -28.8534
vn 0.948836 -0.0610394 -0.309814
v -5.09558 -1.53491 -28.8668
vn 0.914857 -0.0478617 -0.400931
v -5.10186 -1.53291 -28.8796
vn 0.872068 -0.0342231 -0.488187
v -5.10938 -1.53086 -28.8917
vn 0.82088 -0.0202549 -0.570742
v -5.11806 -1.52877 -28.903
vn 0.761786 -0.00609167 -0.6478
v -5.12782 -1.52669 -28.9134
vn 0.695357 0.00813025 -0.718619
v -5.13857 -1.52461 -28.9228
vn 0.62223 0.0222739 -0.782517
v -5.15019 -1.52256 -28.9311
vn 0.543111 0.036203 -0.83888
v -5.16258 -1.52057 -28.9382
vn 0.458762 0.0497834 -0.887164
v -5.17562 -1.51864 -28.944
vn 0.369994 0.0628844 -0.926903
v -5.18918 -1.51681 -28.9486
vn 0.277664 0.0753799 -0.957716
v -5.20314 -1.51508 -28.9517
vn 0.182659 0.0871493 -0.979306
v -5.21735 -1.51347 -28.9535
vn 0.0858951 0.0980795 -0.991465
v -5.23169 -1.51201 -28.9539
vn -0.011696 0.108065 -0.994075
v -5.24601 -1.51069 -28.9529
vn -0.109174 0.11701 -0.987112
v -5.26017 -1.50954 -28.9505
vn -0.205602 0.124828 -0.970642
v -5.27405 -1.50857 -28.9467
vn -0.300049 0.131444 -0.944825
v -5.2875 -1.50779 -28.9415
vn -0.391606 0.136794 -0.909908
v -5.30039 -1.50719 -28.9351
vn -0.479392 0.140826 -0.866228
v -5.31261 -1.5068 -28.9275
vn -0.562561 0.143503 -0.814206
v -5.32403 -1.50661 -28.9187
vn -0.640312 0.144797 -0.754343
v -5.33455 -1.50662 -28.9088
vn -0.711897 0.144697 -0.687215
v -5.34406 -1.50684 -28.898
vn -0.776626 0.143203 -0.613469
v -5.35247 -1.50727 -28.8863
vn -0.833876 0.14033 -0.533815
v -5.3597 -1.50789 -28.8738
vn -0.883095 0.136106 -0.44902
v -5.36568 -1.5087 -28.8607
vn -0.923809 0.130571 -0.359901
v -5.37035 -1.5097 -28.8471
vn -0.955626 0.123779 -0.267315
v -5.37367 -1.51087 -28.8332
vn -0.97824 0.115794 -0.172156
v -5.37561 -1.51221 -28.8189
vn -0.991434 0.106694 -0.0753377
v -5.37615 -1.51369 -28.8046
vn -0.995079 0.0965672 0.0222056
v -5.37528 -1.51532 -28.7903
vn -0.989141 0.0855099 0.119535
v -5.373 -1.51706 -28.7762
vn -0.973677 0.0736292 0.215713
v -5.36936 -1.51891 -28.7624
vn -0.948836 0.0610394 0.309814
v -5.36436 -1.52085 -28.749
vn -0.914857 0.0478617 0.400931
v -5.35808 -1.52285 -28.7362
vn -0.872068 0.0342231 0.488187
v -5.35056 -1.5249 -28.724
vn -0.82088 0.0202549 0.570742
v -5.34188 -1.52699 -28.7127
vn -0.761786 0.00609167 0.6478
v -5.33212 -1.52907 -28.7023
vn -0.695357 -0.00813025 0.718619
v -5.32138 -1.53115 -28.6929
vn -0.62223 -0.0222739 0.782517
v -5.30975 -1.5332 -28.6846
vn -0.543111 -0.036203 0.83888
v -5.29736 -1.53519 -28.6776
vn -0.458762 -0.0497834 0.887164
v -5.28432 -1.53712 -28.6717
vn -0.369994 -0.0628844 0.926903
v -5.27076 -1.53895 -28.6672
vn -0.277664 -0.0753799 0.957716
v -5.2568 -1.54068 -28.664
vn -0.182659 -0.0871493 0.979306
v -5.24259 -1.54229 -28.6622
vn -0.0858951 -0.0980795 0.991465
v -5.22825 -1.54375 -28.6618
vn 0.011696 -0.108065 0.994075
v -5.3564 -2.90966 -28.8656
vn 0.100959 -0.195739 0.975445
v -5.34219 -2.91075 -28.868
vn 0.197425 -0.203178 0.959032
v -5.32826 -2.91156 -28.8718
vn 0.29199 -0.20866 0.933382
v -5.31474 -2.91207 -28.8769
vn 0.383744 -0.212133 0.898744
v -5.30177 -2.91228 -28.8833
vn 0.471801 -0.213563 0.85545
v -5.28947 -2.91219 -28.8909
vn 0.555315 -0.212936 0.803918
v -5.27795 -2.9118 -28.8996
vn 0.633481 -0.210258 0.744643
v -5.26733 -2.9111 -28.9094
vn 0.705546 -0.205555 0.678197
v -5.25772 -2.91012 -28.9202
vn 0.770817 -0.198873 0.60522
v -5.2492 -2.90885 -28.9318
vn 0.828664 -0.190276 0.526414
v -5.24185 -2.90732 -28.9441
vn 0.87853 -0.179846 0.442539
v -5.23575 -2.90553 -28.9571
vn 0.919936 -0.167684 0.354401
v -5.23095 -2.9035 -28.9706
vn 0.952482 -0.153907 0.262851
v -5.22751 -2.90125 -28.9845
vn 0.975855 -0.138648 0.168769
v -5.22545 -2.8988 -28.9986
vn 0.989831 -0.122054 0.0730617
v -5.2248 -2.89618 -29.0128
vn 0.994273 -0.104284 -0.0233491
v -5.22555 -2.89342 -29.0269
vn 0.989141 -0.0855099 -0.119535
v -5.22771 -2.89053 -29.0409
vn 0.974482 -0.0659124 -0.21457
v -5.23126 -2.88755 -29.0546
vn 0.950439 -0.04568 -0.307538
v -5.23615 -2.88451 -29.0679
vn 0.917242 -0.0250078 -0.397545
v -5.24234 -2.88142 -29.0806
vn 0.875212 -0.00409468 -0.483723
v -5.24977 -2.87834 -29.0926
vn 0.824753 0.0168578 -0.565242
v -5.25838 -2.87527 -29.1038
vn 0.766351 0.037648 -0.641318
v -5.26807 -2.87227 -29.1141
vn 0.700569 0.0580756 -0.711218
v -5.27875 -2.86934 -29.1234
vn 0.62804 0.0779439 -0.774268
v -5.29033 -2.86652 -29.1316
vn 0.549462 0.0970616 -0.829862
v -5.30268 -2.86384 -29.1386
vn 0.465593 0.115245 -0.877463
v -5.3157 -2.86133 -29.1444
vn 0.37724 0.132318 -0.916614
v -5.32925 -2.859 -29.1488
vn 0.285254 0.148116 -0.946938
v -5.34321 -2.85688 -29.152
vn 0.190521 0.162489 -0.968142
v -5.35744 -2.855 -29.1537
vn 0.0939531 0.175296 -0.980023
v -5.3718 -2.85336 -29.1541
vn -0.00351968 0.186415 -0.982465
v -5.38615 -2.85198 -29.153
vn -0.100959 0.195739 -0.975445
v -5.40036 -2.85089 -29.1506
vn -0.197425 0.203178 -0.959032
v -5.41429 -2.85008 -29.1468
vn -0.29199 0.20866 -0.933382
v -5.42781 -2.84957 -29.1417
vn -0.383744 0.212133 -0.898744
v -5.44078 -2.84936 -29.1354
vn -0.471801 0.213563 -0.85545
v -5.45309 -2.84945 -29.1278
vn -0.555315 0.212936 -0.803918
v -5.4646 -2.84985 -29.119
vn -0.633481 0.210258 -0.744643
v -5.47522 -2.85054 -29.1092
vn -0.705546 0.205555 -0.678197
v -5.48484 -2.85152 -29.0985
vn -0.770817 0.198873 -0.60522
v -5.49336 -2.85279 -29.0869
vn -0.828664 0.190276 -0.526414
v -5.5007 -2.85433 -29.0745
vn -0.87853 0.179846 -0.442539
v -5.5068 -2.85612 -29.0615
vn -0.919936 0.167684 -0.354401
v -5.5116 -2.85815 -29.0481
vn -0.952482 0.153907 -0.262851
v -5.51504 -2.8604 -29.0342
vn -0.975855 0.138648 -0.168769
v -5.5171 -2.86284 -29.0201
vn -0.989831 0.122054 -0.0730617
v -5.51776 -2.86546 -29.0059
vn -0.994273 0.104284 0.0233491
v -5.517 -2.86822 -28.9917
vn -0.989141 0.0855099 0.119535
v -5.51484 -2.87111 -28.9777
vn -0.974482 0.0659124 0.21457
v -5.5113 -2.87409 -28.964
vn -0.950439 0.04568 0.307538
v -5.50641 -2.87714 -28.9508
vn -0.917242 0.0250078 0.397545
v -5.50022 -2.88022 -28.9381
vn -0.875212 0.00409468 0.483723
v -5.49278 -2.8833 -28.9261
vn -0.824753 -0.0168578 0.565242
v -5.48418 -2.88637 -28.9149
vn -0.766351 -0.037648 0.641318
v -5.47449 -2.88938 -28.9046
vn -0.700569 -0.0580756 0.711218
v -5.4638 -2.8923 -28.8953
vn -0.62804 -0.0779439 0.774268
v -5.45223 -2.89512 -28.8871
vn -0.549462 -0.0970616 0.829862
v -5.43987 -2.8978 -28.8801
vn -0.465593 -0.115245 0.877463
v -5.42685 -2.90031 -28.8743
vn -0.37724 -0.132318 0.916614
v -5.4133 -2.90264 -28.8698
vn -0.285254 -0.148116 0.946938
v -5.39934 -2.90476 -28.8667
vn -0.190521 -0.162489 0.968142
v -5.38512 -2.90665 -28.865
vn -0.0939531 -0.175296 0.980023
v -5.37076 -2.90828 -28.8646
vn 0.00351968 -0.186415 0.982465
v -5.51542 -4.30364 -29.1843
vn 0.0927572 -0.26767 0.959035
v -5.50116 -4.30469 -29.1867
vn 0.189263 -0.274762 0.942701
v -5.48717 -4.30534 -29.1905
vn 0.283947 -0.279209 0.917288
v -5.47359 -4.3056 -29.1955
vn 0.375896 -0.280966 0.883041
v -5.46054 -4.30546 -29.2018
vn 0.464224 -0.280018 0.840289
v -5.44815 -4.30492 -29.2093
vn 0.548082 -0.276373 0.789445
v -5.43654 -4.30399 -29.218
vn 0.626662 -0.270066 0.730999
v -5.42582 -4.30268 -29.2277
vn 0.699207 -0.261158 0.665512
v -5.4161 -4.30099 -29.2383
vn 0.765017 -0.249736 0.593616
v -5.40746 -4.29895 -29.2497
vn 0.823461 -0.235908 0.516004
v -5.4 -4.29657 -29.2619
vn 0.873974 -0.219808 0.433422
v -5.39378 -4.29388 -29.2748
vn 0.91607 -0.201592 0.346666
v -5.38886 -4.2909 -29.2881
vn 0.949344 -0.181434 0.256571
v -5.3853 -4.28766 -29.3018
vn 0.973475 -0.159528 0.164005
v -5.38312 -4.2842 -29.3157
vn 0.988231 -0.136087 0.0698603
v -5.38234 -4.28054 -29.3297
vn 0.99347 -0.111334 -0.0249575
v -5.38298 -4.27672 -29.3436
vn 0.989141 -0.0855099 -0.119535
v -5.38503 -4.27279 -29.3574
vn 0.975286 -0.0588619 -0.212961
v -5.38846 -4.26877 -29.3709
vn 0.952039 -0.0316471 -0.304337
v -5.39325 -4.2647 -29.384
vn 0.919623 -0.00412745 -0.392781
v -5.39935 -4.26063 -29.3965
vn 0.87835 0.0234319 -0.477443
v -5.4067 -4.25659 -29.4084
vn 0.828619 0.0507657 -0.557507
v -5.41523 -4.25262 -29.4194
vn 0.770907 0.0776105 -0.632201
v -5.42485 -4.24877 -29.4295
vn 0.705772 0.103708 -0.700807
v -5.43548 -4.24506 -29.4387
vn 0.633839 0.128806 -0.762665
v -5.44701 -4.24154 -29.4467
vn 0.555802 0.152665 -0.817177
v -5.45933 -4.23823 -29.4536
vn 0.472412 0.175053 -0.863819
v -5.47232 -4.23517 -29.4593
vn 0.384473 0.195755 -0.902142
v -5.48586 -4.23239 -29.4636
vn 0.292831 0.214571 -0.931777
v -5.49982 -4.22991 -29.4667
vn 0.198369 0.231322 -0.952439
v -5.51405 -4.22777 -29.4684
vn 0.101997 0.245844 -0.963928
v -5.52844 -4.22597 -29.4687
vn 0.00464221 0.257999 -0.966134
v -5.54283 -4.22454 -29.4677
vn -0.0927572 0.26767 -0.959035
v -5.55709 -4.2235 -29.4653
vn -0.189263 0.274762 -0.942701
v -5.57108 -4.22284 -29.4615
vn -0.283947 0.279209 -0.917288
v -5.58466 -4.22258 -29.4564
vn -0.375896 0.280966 -0.883041
v -5.59771 -4.22272 -29.4501
vn -0.464224 0.280018 -0.840289
v -5.6101 -4.22326 -29.4426
vn -0.548082 0.276373 -0.789445
v -5.62171 -4.22419 -29.434
vn -0.626662 0.270066 -0.730999
v -5.63243 -4.22551 -29.4243
vn -0.699207 0.261158 -0.665512
v -5.64215 -4.22719 -29.4137
vn -0.765017 0.249736 -0.593616
v -5.65079 -4.22924 -29.4022
vn -0.823461 0.235908 -0.516004
v -5.65825 -4.23162 -29.39
vn -0.873974 0.219808 -0.433422
v -5.66447 -4.23431 -29.3772
vn -0.91607 0.201592 -0.346666
v -5.66939 -4.23728 -29.3639
vn -0.949344 0.181434 -0.256571
v -5.67295 -4.24052 -29.3502
vn -0.973475 0.159528 -0.164005
v -5.67513 -4.24398 -29.3363
vn -0.988231 0.136087 -0.0698603
v -5.67591 -4.24764 -29.3223
vn -0.99347 0.111334 0.0249575
v -5.67527 -4.25146 -29.3083
vn -0.989141 0.0855099 0.119535
v -5.67322 -4.25539 -29.2945
vn -0.975286 0.0588619 0.212961
v -5.66978 -4.25942 -29.281
vn -0.952039 0.0316471 0.304337
v -5.665 -4.26348 -29.2679
vn -0.919623 0.00412745 0.392781
v -5.6589 -4.26755 -29.2554
vn -0.87835 -0.0234319 0.477443
v -5.65155 -4.27159 -29.2436
vn -0.828619 -0.0507657 0.557507
v -5.64302 -4.27556 -29.2326
vn -0.770907 -0.0776105 0.632201
v -5.6334 -4.27941 -29.2224
vn -0.705772 -0.103708 0.700807
v -5.62277 -4.28312 -29.2133
vn -0.633839 -0.128806 0.762665
v -5.61124 -4.28665 -29.2052
vn -0.555802 -0.152665 0.817177
v -5.59892 -4.28995 -29.1984
vn -0.472412 -0.175053 0.863819
v -5.58593 -4.29301 -29.1927
vn -0.384473 -0.195755 0.902142
v -5.57239 -4.29579 -29.1883
vn -0.292831 -0.214571 0.931777
v -5.55843 -4.29827 -29.1853
vn -0.198369 -0.231322 0.952439
v -5.54419 -4.30041 -29.1836
vn -0.101997 -0.245844 0.963928
v -5.52981 -4.30221 -29.1832
vn -0.00464221 -0.257999 0.966134
v -5.69096 -5.72697 -29.6186
vn 0.0847555 -0.332583 0.939258
v -5.67665 -5.72797 -29.6211
vn 0.1813 -0.339363 0.923019
v -5.6626 -5.72849 -29.6248
vn 0.276099 -0.342874 0.89789
v -5.64895 -5.72852 -29.6298
vn 0.368238 -0.343084 0.864115
v -5.63583 -5.72807 -29.636
vn 0.456832 -0.339989 0.822017
v -5.62335 -5.72712 -29.6434
vn 0.541025 -0.333621 0.772003
v -5.61165 -5.7257 -29.6519
vn 0.620009 -0.324039 0.714554
v -5.60083 -5.72382 -29.6615
vn 0.693021 -0.311337 0.650224
v -5.591 -5.72149 -29.6719
vn 0.759359 -0.295636 0.579632
v -5.58225 -5.71875 -29.6832
vn 0.818384 -0.277088 0.503457
v -5.57468 -5.7156 -29.6952
vn 0.869528 -0.255872 0.422434
v -5.56834 -5.71209 -29.7078
vn 0.912298 -0.232191 0.337343
v -5.5633 -5.70825 -29.7209
vn 0.946281 -0.206275 0.249002
v -5.55962 -5.70412 -29.7344
vn 0.971152 -0.178372 0.158264
v -5.55732 -5.69973 -29.748
vn 0.98667 -0.148751 0.0660019
v -5.55643 -5.69513 -29.7618
vn 0.992685 -0.117697 -0.0268961
v -5.55695 -5.69036 -29.7755
vn 0.989141 -0.0855099 -0.119535
v -5.55889 -5.68547 -29.7891
vn 0.97607 -0.0524994 -0.211023
v -5.56222 -5.6805 -29.8023
vn 0.9536 -0.0189832 -0.300478
v -5.56691 -5.67551 -29.8152
vn 0.921945 0.0147157 -0.38704
v -5.57292 -5.67054 -29.8274
vn 0.881412 0.048273 -0.469874
v -5.58018 -5.66563 -29.839
vn 0.832391 0.0813653 -0.548184
v -5.58863 -5.66085 -29.8499
vn 0.775353 0.113674 -0.621213
v -5.59819 -5.65622 -29.8598
vn 0.710848 0.144888 -0.688261
v -5.60876 -5.6518 -29.8687
vn 0.639497 0.174707 -0.74868
v -5.62025 -5.64763 -29.8766
vn 0.561987 0.202843 -0.801888
v -5.63253 -5.64375 -29.8834
vn 0.479066 0.229026 -0.847374
v -5.6455 -5.6402 -29.8889
vn 0.39153 0.253003 -0.8847
v -5.65903 -5.63701 -29.8932
vn 0.300224 0.274543 -0.913505
v -5.67299 -5.63421 -29.8961
vn 0.206026 0.293439 -0.933513
v -5.68724 -5.63183 -29.8978
vn 0.109845 0.30951 -0.94453
v -5.70165 -5.62989 -29.8981
vn 0.0126054 0.3226 -0.946452
v -5.71607 -5.62841 -29.897
vn -0.0847555 0.332583 -0.939258
v -5.73038 -5.62741 -29.8946
vn -0.1813 0.339363 -0.923019
v -5.74442 -5.62689 -29.8909
vn -0.276099 0.342874 -0.89789
v -5.75808 -5.62685 -29.8859
vn -0.368238 0.343084 -0.864115
v -5.7712 -5.62731 -29.8796
vn -0.456832 0.339989 -0.822017
v -5.78368 -5.62826 -29.8722
vn -0.541025 0.333621 -0.772003
v -5.79538 -5.62968 -29.8637
vn -0.620009 0.324039 -0.714554
v -5.8062 -5.63156 -29.8542
vn -0.693021 0.311337 -0.650224
v -5.81603 -5.63389 -29.8437
vn -0.759359 0.295636 -0.579632
v -5.82477 -5.63663 -29.8324
vn -0.818384 0.277088 -0.503457
v -5.83235 -5.63978 -29.8204
vn -0.869528 0.255872 -0.422434
v -5.83869 -5.64329 -29.8078
vn -0.912298 0.232191 -0.337343
v -5.84372 -5.64713 -29.7947
vn -0.946281 0.206275 -0.249002
v -5.84741 -5.65126 -29.7813
vn -0.971152 0.178372 -0.158264
v -5.84971 -5.65565 -29.7676
vn -0.98667 0.148751 -0.0660019
v -5.8506 -5.66025 -29.7538
vn -0.992685 0.117697 0.0268961
v -5.85007 -5.66502 -29.7401
vn -0.989141 0.0855099 0.119535
v -5.84814 -5.66991 -29.7265
vn -0.97607 0.0524994 0.211023
v -5.84481 -5.67488 -29.7133
vn -0.9536 0.0189832 0.300478
v -5.84012 -5.67987 -29.7005
vn -0.921945 -0.0147157 0.38704
v -5.83411 -5.68484 -29.6882
vn -0.881412 -0.048273 0.469874
v -5.82685 -5.68975 -29.6766
vn -0.832391 -0.0813653 0.548184
v -5.8184 -5.69453 -29.6658
vn -0.775353 -0.113674 0.621213
v -5.80884 -5.69916 -29.6558
vn -0.710848 -0.144888 0.688261
v -5.79827 -5.70358 -29.6469
vn -0.639497 -0.174707 0.74868
v -5.78678 -5.70774 -29.639
vn -0.561987 -0.202843 0.801888
v -5.7745 -5.71162 -29.6323
vn -0.479066 -0.229026 0.847374
v -5.76153 -5.71518 -29.6267
vn -0.39153 -0.253003 0.8847
v -5.748 -5.71837 -29.6225
vn -0.300224 -0.274543 0.913505
v -5.73404 -5.72117 -29.6195
vn -0.206026 -0.293439 0.933513
v -5.71979 -5.72355 -29.6179
vn -0.109845 -0.30951 0.94453
v -5.70538 -5.72549 -29.6176
vn -0.0126054 -0.3226 0.946452
v -5.88299 -7.17966 -30.1685
vn 0.0770844 -0.390639 0.917311
v -5.86864 -7.18063 -30.1709
vn 0.173666 -0.397139 0.901177
v -5.85454 -7.18103 -30.1746
vn 0.268575 -0.399815 0.876365
v -5.84082 -7.18085 -30.1796
vn 0.360898 -0.39864 0.843113
v -5.82762 -7.18011 -30.1857
vn 0.449744 -0.393627 0.801741
v -5.81506 -7.1788 -30.193
vn 0.53426 -0.384822 0.752648
v -5.80327 -7.17694 -30.2014
vn 0.61363 -0.372311 0.696306
v -5.79235 -7.17455 -30.2107
vn 0.687091 -0.356215 0.633259
v -5.78242 -7.17165 -30.221
vn 0.753935 -0.336688 0.564113
v -5.77356 -7.16826 -30.2321
vn 0.813518 -0.313919 0.489534
v -5.76587 -7.16443 -30.2439
vn 0.865266 -0.288126 0.410241
v -5.75942 -7.16018 -30.2563
vn 0.908682 -0.259559 0.326997
v -5.75427 -7.15557 -30.2691
vn 0.943346 -0.228492 0.240604
v -5.75047 -7.15062 -30.2823
vn 0.968925 -0.195224 0.151893
v -5.74806 -7.1454 -30.2957
vn 0.985173 -0.160077 0.0617203
v -5.74705 -7.13995 -30.3092
vn 0.991933 -0.123387 -0.0290473
v -5.74747 -7.13432 -30.3226
vn 0.989141 -0.0855099 -0.119535
v -5.7493 -7.12857 -30.3359
vn 0.976822 -0.0468089 -0.208872
v -5.75253 -7.12275 -30.3489
vn 0.955096 -0.00765701 -0.296197
v -5.75712 -7.11693 -30.3614
vn 0.924172 0.0315686 -0.380669
v -5.76304 -7.11114 -30.3734
vn 0.884348 0.0704902 -0.461476
v -5.77022 -7.10546 -30.3848
vn 0.836007 0.108733 -0.537838
v -5.7786 -7.09993 -30.3953
vn 0.779615 0.145928 -0.60902
v -5.7881 -7.09461 -30.405
vn 0.715714 0.181719 -0.674338
v -5.79862 -7.08956 -30.4138
vn 0.644921 0.215759 -0.733161
v -5.81006 -7.08481 -30.4215
vn 0.567917 0.247721 -0.784923
v -5.82231 -7.08041 -30.428
vn 0.485444 0.277298 -0.829126
v -5.83526 -7.07641 -30.4334
vn 0.398295 0.304204 -0.865344
v -5.84878 -7.07285 -30.4376
vn 0.307311 0.32818 -0.893229
v -5.86274 -7.06976 -30.4404
vn 0.213367 0.348996 -0.912511
v -5.87701 -7.06716 -30.442
vn 0.117369 0.366451 -0.923005
v -5.89144 -7.0651 -30.4422
vn 0.0202396 0.380376 -0.92461
v -5.9059 -7.06357 -30.4411
vn -0.0770844 0.390639 -0.917311
v -5.92025 -7.0626 -30.4387
vn -0.173666 0.397139 -0.901177
v -5.93435 -7.06221 -30.4351
vn -0.268575 0.399815 -0.876365
v -5.94807 -7.06238 -30.4301
vn -0.360898 0.39864 -0.843113
v -5.96127 -7.06313 -30.424
vn -0.449744 0.393627 -0.801741
v -5.97383 -7.06443 -30.4167
vn -0.53426 0.384822 -0.752648
v -5.98563 -7.06629 -30.4083
vn -0.61363 0.372311 -0.696306
v -5.99654 -7.06869 -30.3989
vn -0.687091 0.356215 -0.633259
v -6.00647 -7.07159 -30.3887
vn -0.753935 0.336688 -0.564113
v -6.01533 -7.07497 -30.3776
vn -0.813518 0.313919 -0.489534
v -6.02302 -7.0788 -30.3658
vn -0.865266 0.288126 -0.410241
v -6.02947 -7.08305 -30.3534
vn -0.908682 0.259559 -0.326997
v -6.03462 -7.08766 -30.3406
vn -0.943346 0.228492 -0.240604
v -6.03842 -7.09261 -30.3274
vn -0.968925 0.195224 -0.151893
v -6.04084 -7.09783 -30.314
vn -0.985173 0.160077 -0.0617203
v -6.04184 -7.10328 -30.3005
vn -0.991933 0.123387 0.0290473
v -6.04142 -7.10891 -30.2871
vn -0.989141 0.0855099 0.119535
v -6.03959 -7.11466 -30.2738
vn -0.976822 0.0468089 0.208872
v -6.03637 -7.12048 -30.2608
vn -0.955096 0.00765701 0.296197
v -6.03177 -7.12631 -30.2483
vn -0.924172 -0.0315686 0.380669
v -6.02585 -7.13209 -30.2363
vn -0.884348 -0.0704902 0.461476
v -6.01867 -7.13777 -30.2249
vn -0.836007 -0.108733 0.537838
v -6.01029 -7.1433 -30.2143
vn -0.779615 -0.145928 0.60902
v -6.0008 -7.14862 -30.2046
vn -0.715714 -0.181719 0.674338
v -5.99028 -7.15368 -30.1959
vn -0.644921 -0.215759 0.733161
v -5.97883 -7.15843 -30.1882
vn -0.567917 -0.247721 0.784923
v -5.96658 -7.16282 -30.1816
vn -0.485444 -0.277298 0.829126
v -5.95363 -7.16682 -30.1763
vn -0.398295 -0.304204 0.865344
v -5.94011 -7.17038 -30.1721
vn -0.307311 -0.32818 0.893229
v -5.92615 -7.17347 -30.1692
vn -0.213367 -0.348996 0.912511
v -5.91189 -7.17607 -30.1677
vn -0.117369 -0.366451 0.923005
v -5.89745 -7.17814 -30.1674
vn -0.0202396 -0.380376 0.92461
f 1 66 2 
f 1 65 66 
f 2 67 3 
f 2 66 67 
f 3 68 4 
f 3 67 68 
f 4 69 5 
f 4 68 69 
f 5 70 6 
f 5 69 70 
f 6 71 7 
f 6 70 71 
f 7 72 8 
f 7 71 72 
f 8 73 9 
f 8 72 73 
f 9 74 10 
f 9 73 74 
f 10 75 11 
f 10 74 75 
f 11 76 12 
f 11 75 76 
f 12 77 13 
f 12 76 77 
f 13 78 14 
f 13 77 78 
f 14 79 15 
f 14 78 79 
f 15 80 16 
f 15 79 80 
f 16 81 17 
f 16 80 81 
f 17 82 18 
f 17 81 82 
f 18 83 19 
f 18 82 83 
f 19 84 20 
f 19 83 84 
f 20 85 21 
f 20 84 85 
f 21 86 22 
f 21 85 86 
f 22 87 23 
f 22 86 87 
f 23 88 24 
f 23 87 88 
f 24 89 25 
f 24 88 89 
f 25 90 26 
f 25 89 90 
f 26 91 27 
f 26 90 91 
f 27 92 28 
f 27 91 92 
f 28 93 29 
f 28 92 93 
f 29 94 30 
f 29 93 94 
f 30 95 31 
f 30 94 95 
f 31 96 32 
f 31 95 96 
f 32 97 33 
f 32 96 97 
f 33 98 34 
f 33 97 98 
f 34 99 35 
f 34 98 99 
f 35 100 36 
f 35 99 100 
f 36 101 37 
f 36 100 101 
f 37 102 38 
f 37 101 102 
f 38 103 39 
f 38 102 103 
f 39 104 40 
f 39 103 104 
f 40 105 41 
f 40 104 105 
f 41 106 42 
f 41 105 106 
f 42 107 43 
f 42 106 107 
f 43 108 44 
f 43 107 108 
f 44 109 45 
f 44 108 109 
f 45 110 46 
f 45 109 110 
f 46 111 47 
f 46 110 111 
f 47 112 48 
f 47 111 112 
f 48 113 49 
f 48 112 113 
f 49 114 50 
f 49 113 114 
f 50 115 51 
f 50 114 115 
f 51 116 52 
f 51 115 116 
f 52 117 53 
f 52 116 117 
f 53 118 54 
f 53 117 118 
f 54 119 55 
f 54 118 119 
f 55 120 56 
f 55 119 120 
f 56 121 57 
f 56 120 121 
f 57 122 58 
f 57 121 122 
f 58 123 59 
f 58 122 123 
f 59 124 60 
f 59 123 124 
f 60 125 61 
f 60 124 125 
f 61 126 62 
f 61 125 126 
f 62 127 63 
f 62 126 127 
f 63 128 64 
f 63 127 128 
f 64 65 1 
f 64 128 65 
f 65 130 66 
f 65 129 130 
f 66 131 67 
f 66 130 131 
f 67 132 68 
f 67 131 132 
f 68 133 69 
f 68 132 133 
f 69 134 70 
f 69 133 134 
f 70 135 71 
f 70 134 135 
f 71 136 72 
f 71 135 136 
f 72 137 73 
f 72 136 137 
f 73 138 74 
f 73 137 138 
f 74 139 75 
f 74 138 139 
f 75 140 76 
f 75 139 140 
f 76 141 77 
f 76 140 141 
f 77 142 78 
f 77 141 142 
f 78 143 79 
f 78 142 143 
f 79 144 80 
f 79 143 144 
f 80 145 81 
f 80 144 145 
f 81 146 82 
f 81 145 146 
f 82 147 83 
f 82 146 147 
f 83 148 84 
f 83 147 148 
f 84 149 85 
f 84 148 149 
f 85 150 86 
f 85 149 150 
f 86 151 87 
f 86 150 151 
f 87 152 88 
f 87 151 152 
f 88 153 89 
f 88 152 153 
f 89 154 90 
f 89 153 154 
f 90 155 91 
f 90 154 155 
f 91 156 92 
f 91 155 156 
f 92 157 93 
f 92 156 157 
f 93 158 94 
f 93 157 158 
f 94 159 95 
f 94 158 159 
f 95 160 96 
f 95 159 160 
f 96 161 97 
f 96 160 161 
f 97 162 98 
f 97 161 162 
f 98 163 99 
f 98 162 163 
f 99 164 100 
f 99 163 164 
f 100 165 101 
f 100 164 165 
f 101 166 102 
f 101 165 166 
f 102 167 103 
f 102 166 167 
f 103 168 104 
f 103 167 168 
f 104 169 105 
f 104 168 169 
f 105 170 106 
f 105 169 170 
f 106 171 107 
f 106 170 171 
f 107 172 108 
f 107 171 172 
f 108 173 109 
f 108 172 173 
f 109 174 110 
f 109 173 174 
f 110 175 111 
f 110 174 175 
f 111 176 112 
f 111 175 176 
f 112 177 113 
f 112 176 177 
f 113 178 114 
f 113 177 178 
f 114 179 115 
f 114 178 179 
f 115 180 116 
f 115 179 180 
f 116 181 117 
f 116 180 181 
f 117 182 118 
f 117 181 182 
f 118 183 119 
f 118 182 183 
f 119 184 120 
f 119 183 184 
f 120 185 121 
f 120 184 185 
f 121 186 122 
f 121 185 186 
f 122 187 123 
f 122 186 187 
f 123 188 124 
f 123 187 188 
f 124 189 125 
f 124 188 189 
f 125 190 126 
f 125 189 190 
f 126 191 127 
f 126 190 191 
f 127 192 128 
f 127 191 192 
f 128 129 65 
f 128 192 129 
f 129 194 130 
f 129 193 194 
f 130 195 131 
f 130 194 195 
f 131 196 132 
f 131 195 196 
f 132 197 133 
f 132 196 197 
f 133 198 134 
f 133 197 198 
f 134 199 135 
f 134 198 199 
f 135 200 136 
f 135 199 200 
f 136 201 137 
f 136 200 201 
f 137 202 138 
f 137 201 202 
f 138 203 139 
f 138 202 203 
f 139 204 140 
f 139 203 204 
f 140 205 141 
f 140 204 205 
f 141 206 142 
f 141 205 206 
f 142 207 143 
f 142 206 207 
f 143 208 144 
f 143 207 208 
f 144 209 145 
f 144 208 209 
f 145 210 146 
f 145 209 210 
f 146 211 147 
f 146 210 211 
f 147 212 148 
f 147 211 212 
f 148 213 149 
f 148 212 213 
f 149 214 150 
f 149 213 214 
f 150 215 151 
f 150 214 215 
f 151 216 152 
f 151 215 216 
f 152 217 153 
f 152 216 217 
f 153 218 154 
f 153 217 218 
f 154 219 155 
f 154 218 219 
f 155 220 156 
f 155 219 220 
f 156 221 157 
f 156 220 221 
f 157 222 158 
f 157 221 222 
f 158 223 159 
f 158 222 223 
f 159 224 160 
f 159 223 224 
f 160 225 161 
f 160 224 225 
f 161 226 162 
f 161 225 226 
f 162 227 163 
f 162 226 227 
f 163 228 164 
f 163 227 228 
f 164 229 165 
f 164 228 229 
f 165 230 166 
f 165 229 230 
f 166 231 167 
f 166 230 231 
f 167 232 168 
f 167 231 232 
f 168 233 169 
f 168 232 233 
f 169 234 170 
f 169 233 234 
f 170 235 171 
f 170 234 235 
f 171 236 172 
f 171 235 236 
f 172 237 173 
f 172 236 237 
f 173 238 174 
f 173 237 238 
f 174 239 175 
f 174 238 239 
f 175 240 176 
f 175 239 240 
f 176 241 177 
f 176 240 241 
f 177 242 178 
f 177 241 242 
f 178 243 179 
f 178 242 243 
f 179 244 180 
f 179 243 244 
f 180 245 181 
f 180 244 245 
f 181 246 182 
f 181 245 246 
f 182 247 183 
f 182 246 247 
f 183 248 184 
f 183 247 248 
f 184 249 185 
f 184 248 249 
f 185 250 186 
f 185 249 250 
f 186 251 187 
f 186 250 251 
f 187 252 188 
f 187 251 252 
f 188 253 189 
f 188 252 253 
f 189 254 190 
f 189 253 254 
f 190 255 191 
f 190 254 255 
f 191 256 192 
f 191 255 256 
f 192 193 129 
f 192 256 193 
f 193 258 194 
f 193 257 258 
f 194 259 195 
f 194 258 259 
f 195 260 196 
f 195 259 260 
f 196 261 197 
f 196 260 261 
f 197 262 198 
f 197 261 262 
f 198 263 199 
f 198 262 263 
f 199 264 200 
f 199 263 264 
f 200 265 201 
f 200 264 265 
f 201 266 202 
f 201 265 266 
f 202 267 203 
f 202 266 267 
f 203 268 204 
f 203 267 268 
f 204 269 205 
f 204 268 269 
f 205 270 206 
f 205 269 270 
f 206 271 207 
f 206 270 271 
f 207 272 208 
f 207 271 272 
f 208 273 209 
f 208 272 273 
f 209 274 210 
f 209 273 274 
f 210 275 211 
f 210 274 275 
f 211 276 212 
f 211 275 276 
f 212 277 213 
f 212 276 277 
f 213 278 214 
f 213 277 278 
f 214 279 215 
f 214 278 279 
f 215 280 216 
f 215 279 280 
f 216 281 217 
f 216 280 281 
f 217 282 218 
f 217 281 282 
f 218 283 219 
f 218 282 283 
f 219 284 220 
f 219 283 284 
f 220 285 221 
f 220 284 285 
f 221 286 222 
f 221 285 286 
f 222 287 223 
f 222 286 287 
f 223 288 224 
f 223 287 288 
f 224 289 225 
f 224 288 289 
f 225 290 226 
f 225 289 290 
f 226 291 227 
f 226 290 291 
f 227 292 228 
f 227 291 292 
f 228 293 229 
f 228 292 293 
f 229 294 230 
f 229 293 294 
f 230 295 231 
f 230 294 295 
f 231 296 232 
f 231 295 296 
f 232 297 233 
f 232 296 297 
f 233 298 234 
f 233 297 298 
f 234 299 235 
f 234 298 299 
f 235 300 236 
f 235 299 300 
f 236 301 237 
f 236 300 301 
f 237 302 238 
f 237 301 302 
f 238 303 239 
f 238 302 303 
f 239 304 240 
f 239 303 304 
f 240 305 241 
f 240 304 305 
f 241 306 242 
f 241 305 306 
f 242 307 243 
f 242 306 307 
f 243 308 244 
f 243 307 308 
f 244 309 245 
f 244 308 309 
f 245 310 246 
f 245 309 310 
f 246 311 247 
f 246 310 311 
f 247 312 248 
f 247 311 312 
f 248 313 249 
f 248 312 313 
f 249 314 250 
f 249 313 314 
f 250 315 251 
f 250 314 315 
f 251 316 252 
f 251 315 316 
f 252 317 253 
f 252 316 317 
f 253 318 254 
f 253 317 318 
f 254 319 255 
f 254 318 319 
f 255 320 256 
f 255 319 320 
f 256 257 193 
f 256 320 257 
f 257 322 258 
f 257 321 322 
f 258 323 259 
f 258 322 323 
f 259 324 260 
f 259 323 324 
f 260 325 261 
f 260 324 325 
f 261 326 262 
f 261 325 326 
f 262 327 263 
f 262 326 327 
f 263 328 264 
f 263 327 328 
f 264 329 265 
f 264 328 329 
f 265 330 266 
f 265 329 330 
f 266 331 267 
f 266 330 331 
f 267 332 268 
f 267 331 332 
f 268 333 269 
f 268 332 333 
f 269 334 270 
f 269 333 334 
f 270 335 271 
f 270 334 335 
f 271 336 272 
f 271 335 336 
f 272 337 273 
f 272 336 337 
f 273 338 274 
f 273 337 338 
f 274 339 275 
f 274 338 339 
f 275 340 276 
f 275 339 340 
f 276 341 277 
f 276 340 341 
f 277 342 278 
f 277 341 342 
f 278 343 279 
f 278 342 343 
f 279 344 280 
f 279 343 344 
f 280 345 281 
f 280 344 345 
f 281 346 282 
f 281 345 346 
f 282 347 283 
f 282 346 347 
f 283 348 284 
f 283 347 348 
f 284 349 285 
f 284 348 349 
f 285 350 286 
f 285 349 350 
f 286 351 287 
f 286 350 351 
f 287 352 288 
f 287 351 352 
f 288 353 289 
f 288 352 353 
f 289 354 290 
f 289 353 354 
f 290 355 291 
f 290 354 355 
f 291 356 292 
f 291 355 356 
f 292 357 293 
f 292 356 357 
f 293 358 294 
f 293 357 358 
f 294 359 295 
f 294 358 359 
f 295 360 296 
f 295 359 360 
f 296 361 297 
f 296 360 361 
f 297 362 298 
f 297 361 362 
f 298 363 299 
f 298 362 363 
f 299 364 300 
f 299 363 364 
f 300 365 301 
f 300 364 365 
f 301 366 302 
f 301 365 366 
f 302 367 303 
f 302 366 367 
f 303 368 304 
f 303 367 368 
f 304 369 305 
f 304 368 369 
f 305 370 306 
f 305 369 370 
f 306 371 307 
f 306 370 371 
f 307 372 308 
f 307 371 372 
f 308 373 309 
f 308 372 373 
f 309 374 310 
f 309 373 374 
f 310 375 311 
f 310 374 375 
f 311 376 312 
f 311 375 376 
f 312 377 313 
f 312 376 377 
f 313 378 314 
f 313 377 378 
f 314 379 315 
f 314 378 379 
f 315 380 316 
f 315 379 380 
f 316 381 317 
f 316 380 381 
f 317 382 318 
f 317 381 382 
f 318 383 319 
f 318 382 383 
f 319 384 320 
f 319 383 384 
f 320 321 257 
f 320 384 321 
f 321 386 322 
f 321 385 386 
f 322 387 323 
f 322 386 387 
f 323 388 324 
f 323 387 388 
f 324 389 325 
f 324 388 389 
f 325 390 326 
f 325 389 390 
f 326 391 327 
f 326 390 391 
f 327 392 328 
f 327 391 392 
f 328 393 329 
f 328 392 393 
f 329 394 330 
f 329 393 394 
f 330 395 331 
f 330 394 395 
f 331 396 332 
f 331 395 396 
f 332 397 333 
f 332 396 397 
f 333 398 334 
f 333 397 398 
f 334 399 335 
f 334 398 399 
f 335 400 336 
f 335 399 400 
f 336 401 337 
f 336 400 401 
f 337 402 338 
f 337 401 402 
f 338 403 339 
f 338 402 403 
f 339 404 340 
f 339 403 404 
f 340 405 341 
f 340 404 405 
f 341 406 342 
f 341 405 406 
f 342 407 343 
f 342 406 407 
f 343 408 344 
f 343 407 408 
f 344 409 345 
f 344 408 409 
f 345 410 346 
f 345 409 410 
f 346 411 347 
f 346 410 411 
f 347 412 348 
f 347 411 412 
f 348 413 349 
f 348 412 413 
f 349 414 350 
f 349 413 414 
f 350 415 351 
f 350 414 415 
f 351 416 352 
f 351 415 416 
f 352 417 353 
f 352 416 417 
f 353 418 354 
f 353 417 418 
f 354 419 355 
f 354 418 419 
f 355 420 356 
f 355 419 420 
f 356 421 357 
f 356 420 421 
f 357 422 358 
f 357 421 422 
f 358 423 359 
f 358 422 423 
f 359 424 360 
f 359 423 424 
f 360 425 361 
f 360 424 425 
f 361 426 362 
f 361 425 426 
f 362 427 363 
f 362 426 427 
f 363 428 364 
f 363 427 428 
f 364 429 365 
f 364 428 429 
f 365 430 366 
f 365 429 430 
f 366 431 367 
f 366 430 431 
f 367 432 368 
f 367 431 432 
f 368 433 369 
f 368 432 433 
f 369 434 370 
f 369 433 434 
f 370 435 371 
f 370 434 435 
f 371 436 372 
f 371 435 436 
f 372 437 373 
f 372 436 437 
f 373 438 374 
f 373 437 438 
f 374 439 375 
f 374 438 439 
f 375 440 376 
f 375 439 440 
f 376 441 377 
f 376 440 441 
f 377 442 378 
f 377 441 442 
f 378 443 379 
f 378 442 443 
f 379 444 380 
f 379 443 444 
f 380 445 381 
f 380 444 445 
f 381 446 382 
f 381 445 446 
f 382 447 383 
f 382 446 447 
f 383 448 384 
f 383 447 448 
f 384 385 321 
f 384 448 385 
f 385 450 386 
f 385 449 450 
f 386 451 387 
f 386 450 451 
f 387 452 388 
f 387 451 452 
f 388 453 389 
f 388 452 453 
f 389 454 390 
f 389 453 454 
f 390 455 391 
f 390 454 455 
f 391 456 392 
f 391 455 456 
f 392 457 393 
f 392 456 457 
f 393 458 394 
f 393 457 458 
f 394 459 395 
f 394 458 459 
f 395 460 396 
f 395 459 460 
f 396 461 397 
f 396 460 461 
f 397 462 398 
f 397 461 462 
f 398 463 399 
f 398 462 463 
f 399 464 400 
f 399 463 464 
f 400 465 401 
f 400 464 465 
f 401 466 402 
f 401 465 466 
f 402 467 403 
f 402 466 467 
f 403 468 404 
f 403 467 468 
f 404 469 405 
f 404 468 469 
f 405 470 406 
f 405 469 470 
f 406 471 407 
f 406 470 471 
f 407 472 408 
f 407 471 472 
f 408 473 409 
f 408 472 473 
f 409 474 410 
f 409 473 474 
f 410 475 411 
f 410 474 475 
f 411 476 412 
f 411 475 476 
f 412 477 413 
f 412 476 477 
f 413 478 414 
f 413 477 478 
f 414 479 415 
f 414 478 479 
f 415 480 416 
f 415 479 480 
f 416 481 417 
f 416 480 481 
f 417 482 418 
f 417 481 482 
f 418 483 419 
f 418 482 483 
f 419 484 420 
f 419 483 484 
f 420 485 421 
f 420 484 485 
f 421 486 422 
f 421 485 486 
f 422 487 423 
f 422 486 487 
f 423 488 424 
f 423 487 488 
f 424 489 425 
f 424 488 489 
f 425 490 426 
f 425 489 490 
f 426 491 427 
f 426 490 491 
f 427 492 428 
f 427 491 492 
f 428 493 429 
f 428 492 493 
f 429 494 430 
f 429 493 494 
f 430 495 431 
f 430 494 495 
f 431 496 432 
f 431 495 496 
f 432 497 433 
f 432 496 497 
f 433 498 434 
f 433 497 498 
f 434 499 435 
f 434 498 499 
f 435 500 436 
f 435 499 500 
f 436 501 437 
f 436 500 501 
f 437 502 438 
f 437 501 502 
f 438 503 439 
f 438 502 503 
f 439 504 440 
f 439 503 504 
f 440 505 441 
f 440 504 505 
f 441 506 442 
f 441 505 506 
f 442 507 443 
f 442 506 507 
f 443 508 444 
f 443 507 508 
f 444 509 445 
f 444 508 509 
f 445 510 446 
f 445 509 510 
f 446 511 447 
f 446 510 511 
f 447 512 448 
f 447 511 512 
f 448 449 385 
f 448 512 449 
f 449 514 450 
f 449 513 514 
f 450 515 451 
f 450 514 515 
f 451 516 452 
f 451 515 516 
f 452 517 453 
f 452 516 517 
f 453 518 454 
f 453 517 518 
f 454 519 455 
f 454 518 519 
f 455 520 456 
f 455 519 520 
f 456 521 457 
f 456 520 521 
f 457 522 458 
f 457 521 522 
f 458 523 459 
f 458 522 523 
f 459 524 460 
f 459 523 524 
f 460 525 461 
f 460 524 525 
f 461 526 462 
f 461 525 526 
f 462 527 463 
f 462 526 527 
f 463 528 464 
f 463 527 528 
f 464 529 465 
f 464 528 529 
f 465 530 466 
f 465 529 530 
f 466 531 467 
f 466 530 531 
f 467 532 468 
f 467 531 532 
f 468 533 469 
f 468 532 533 
f 469 534 470 
f 469 533 534 
f 470 535 471 
f 470 534 535 
f 471 536 472 
f 471 535 536 
f 472 537 473 
f 472 536 537 
f 473 538 474 
f 473 537 538 
f 474 539 475 
f 474 538 539 
f 475 540 476 
f 475 539 540 
f 476 541 477 
f 476 540 541 
f 477 542 478 
f 477 541 542 
f 478 543 479 
f 478 542 543 
f 479 544 480 
f 479 543 544 
f 480 545 481 
f 480 544 545 
f 481 546 482 
f 481 545 546 
f 482 547 483 
f 482 546 547 
f 483 548 484 
f 483 547 548 
f 484 549 485 
f 484 548 549 
f 485 550 486 
f 485 549 550 
f 486 551 487 
f 486 550 551 
f 487 552 488 
f 487 551 552 
f 488 553 489 
f 488 552 553 
f 489 554 490 
f 489 553 554 
f 490 555 491 
f 490 554 555 
f 491 556 492 
f 491 555 556 
f 492 557 493 
f 492 556 557 
f 493 558 494 
f 493 557 558 
f 494 559 495 
f 494 558 559 
f 495 560 496 
f 495 559 560 
f 496 561 497 
f 496 560 561 
f 497 562 498 
f 497 561 562 
f 498 563 499 
f 498 562 563 
f 499 564 500 
f 499 563 564 
f 500 565 501 
f 500 564 565 
f 501 566 502 
f 501 565 566 
f 502 567 503 
f 502 566 567 
f 503 568 504 
f 503 567 568 
f 504 569 505 
f 504 568 569 
f 505 570 506 
f 505 569 570 
f 506 571 507 
f 506 570 571 
f 507 572 508 
f 507 571 572 
f 508 573 509 
f 508 572 573 
f 509 574 510 
f 509 573 574 
f 510 575 511 
f 510 574 575 
f 511 576 512 
f 511 575 576 
f 512 513 449 
f 512 576 513 
f 513 578 514 
f 513 577 578 
f 514 579 515 
f 514 578 579 
f 515 580 516 
f 515 579 580 
f 516 581 517 
f 516 580 581 
f 517 582 518 
f 517 581 582 
f 518 583 519 
f 518 582 583 
f 519 584 520 
f 519 583 584 
f 520 585 521 
f 520 584 585 
f 521 586 522 
f 521 585 586 
f 522 587 523 
f 522 586 587 
f 523 588 524 
f 523 587 588 
f 524 589 525 
f 524 588 589 
f 525 590 526 
f 525 589 590 
f 526 591 527 
f 526 590 591 
f 527 592 528 
f 527 591 592 
f 528 593 529 
f 528 592 593 
f 529 594 530 
f 529 593 594 
f 530 595 531 
f 530 594 595 
f 531 596 532 
f 531 595 596 
f 532 597 533 
f 532 596 597 
f 533 598 534 
f 533 597 598 
f 534 599 535 
f 534 598 599 
f 535 600 536 
f 535 599 600 
f 536 601 537 
f 536 600 601 
f 537 602 538 
f 537 601 602 
f 538 603 539 
f 538 602 603 
f 539 604 540 
f 539 603 604 
f 540 605 541 
f 540 604 605 
f 541 606 542 
f 541 605 606 
f 542 607 543 
f 542 606 607 
f 543 608 544 
f 543 607 608 
f 544 609 545 
f 544 608 609 
f 545 610 546 
f 545 609 610 
f 546 611 547 
f 546 610 611 
f 547 612 548 
f 547 611 612 
f 548 613 549 
f 548 612 613 
f 549 614 550 
f 549 613 614 
f 550 615 551 
f 550 614 615 
f 551 616 552 
f 551 615 616 
f 552 617 553 
f 552 616 617 
f 553 618 554 
f 553 617 618 
f 554 619 555 
f 554 618 619 
f 555 620 556 
f 555 619 620 
f 556 621 557 
f 556 620 621 
f 557 622 558 
f 557 621 622 
f 558 623 559 
f 558 622 623 
f 559 624 560 
f 559 623 624 
f 560 625 561 
f 560 624 625 
f 561 626 562 
f 561 625 626 
f 562 627 563 
f 562 626 627 
f 563 628 564 
f 563 627 628 
f 564 629 565 
f 564 628 629 
f 565 630 566 
f 565 629 630 
f 566 631 567 
f 566 630 631 
f 567 632 568 
f 567 631 632 
f 568 633 569 
f 568 632 633 
f 569 634 570 
f 569 633 634 
f 570 635 571 
f 570 634 635 
f 571 636 572 
f 571 635 636 
f 572 637 573 
f 572 636 637 
f 573 638 574 
f 573 637 638 
f 574 639 575 
f 574 638 639 
f 575 640 576 
f 575 639 640 
f 576 577 513 
f 576 640 577 
