# Branch
v -5.47685 9.78219 -26.8202
vn 0.316535 0.0571005 0.946861
v -5.3688 9.75362 -26.8607
vn 0.405719 0.0335206 0.913383
v -5.26548 9.72466 -26.9119
vn 0.490996 0.0096179 0.871109
v -5.16789 9.69559 -26.9733
vn 0.571544 -0.0143774 0.820446
v -5.07697 9.66669 -27.0443
vn 0.646588 -0.0382343 0.761881
v -4.99359 9.63823 -27.1241
vn 0.715405 -0.061723 0.695979
v -4.91857 9.61049 -27.2121
vn 0.777332 -0.0846172 0.623374
v -4.85261 9.58374 -27.3073
vn 0.831773 -0.106697 0.544766
v -4.79635 9.55824 -27.4089
vn 0.878203 -0.127748 0.460912
v -4.75035 9.53422 -27.5159
vn 0.916176 -0.14757 0.372618
v -4.71503 9.51193 -27.6272
vn 0.945326 -0.16597 0.280736
v -4.69074 9.49157 -27.7418
vn 0.965372 -0.182772 0.186151
v -4.67772 9.47335 -27.8586
vn 0.97612 -0.197814 0.0897728
v -4.67609 9.45743 -27.9764
vn 0.977468 -0.210951 -0.00746997
v -4.68586 9.44398 -28.0941
vn 0.969403 -0.222056 -0.104641
v -4.70694 9.43311 -28.2106
vn 0.952001 -0.231022 -0.200804
v -4.73913 9.42494 -28.3248
vn 0.925432 -0.237764 -0.295033
v -4.78212 9.41955 -28.4355
vn 0.88995 -0.242216 -0.386421
v -4.83549 9.41698 -28.5417
vn 0.845897 -0.244335 -0.474087
v -4.89874 9.41727 -28.6424
vn 0.793698 -0.244101 -0.557188
v -4.97124 9.4204 -28.7366
vn 0.733855 -0.241517 -0.634923
v -5.05231 9.42635 -28.8234
vn 0.666944 -0.236606 -0.706543
v -5.14116 9.43506 -28.9019
vn 0.593611 -0.229417 -0.771359
v -5.23693 9.44644 -28.9714
vn 0.514561 -0.220018 -0.828746
v -5.33871 9.4604 -29.0313
vn 0.430555 -0.208501 -0.878151
v -5.44551 9.47679 -29.0809
vn 0.342403 -0.194975 -0.9191
v -5.55631 9.49545 -29.1198
vn 0.250953 -0.179572 -0.951197
v -5.67004 9.51621 -29.1476
vn 0.157086 -0.162439 -0.974134
v -5.7856 9.53886 -29.164
vn 0.061707 -0.143742 -0.987689
v -5.90188 9.56319 -29.1689
vn -0.0342667 -0.123661 -0.991733
v -6.01776 9.58896 -29.1622
vn -0.12991 -0.102389 -0.986225
v -6.13212 9.61593 -29.1441
vn -0.224303 -0.0801305 -0.97122
v -6.24387 9.64383 -29.1145
vn -0.316535 -0.0571005 -0.946861
v -6.35192 9.6724 -29.074
vn -0.405719 -0.0335206 -0.913383
v -6.45524 9.70136 -29.0228
vn -0.490996 -0.0096179 -0.871109
v -6.55283 9.73043 -28.9614
vn -0.571544 0.0143774 -0.820446
v -6.64375 9.75934 -28.8904
vn -0.646588 0.0382343 -0.761881
v -6.72712 9.78779 -28.8106
vn -0.715405 0.061723 -0.695979
v -6.80215 9.81553 -28.7226
vn -0.777332 0.0846172 -0.623374
v -6.86811 9.84228 -28.6274
vn -0.831773 0.106697 -0.544766
v -6.92437 9.86779 -28.5258
vn -0.878203 0.127748 -0.460912
v -6.97037 9.8918 -28.4188
vn -0.916176 0.14757 -0.372618
v -7.00569 9.9141 -28.3075
vn -0.945326 0.16597 -0.280736
v -7.02998 9.93445 -28.1929
vn -0.965372 0.182772 -0.186151
v -7.043 9.95268 -28.0761
vn -0.97612 0.197814 -0.0897728
v -7.04463 9.96859 -27.9583
vn -0.977468 0.210951 0.00746997
v -7.03486 9.98205 -27.8406
vn -0.969403 0.222056 0.104641
v -7.01378 9.99291 -27.7241
vn -0.952001 0.231022 0.200804
v -6.98159 10.0011 -27.6099
vn -0.925432 0.237764 0.295033
v -6.9386 10.0065 -27.4992
vn -0.88995 0.242216 0.386421
v -6.88523 10.009 -27.393
vn -0.845897 0.244335 0.474087
v -6.82198 10.0088 -27.2923
vn -0.793698 0.244101 0.557188
v -6.74948 10.0056 -27.1981
vn -0.733855 0.241517 0.634923
v -6.66841 9.99968 -27.1113
vn -0.666944 0.236606 0.706543
v -6.57956 9.99097 -27.0328
vn -0.593611 0.229417 0.771359
v -6.48379 9.97958 -26.9633
vn -0.514561 0.220018 0.828746
v -6.38201 9.96563 -26.9034
vn -0.430555 0.208501 0.878151
v -6.27521 9.94924 -26.8538
vn -0.342403 0.194975 0.9191
v -6.16441 9.93058 -26.8149
vn -0.250953 0.179572 0.951197
v -6.05068 9.90982 -26.7871
vn -0.157086 0.162439 0.974134
v -5.93512 9.88717 -26.7707
vn -0.061707 0.143742 0.987689
v -5.81884 9.86284 -26.7658
vn 0.0342667 0.123661 0.991733
v -5.70296 9.83706 -26.7725
vn 0.12991 0.102389 0.986225
v -5.5886 9.8101 -26.7906
vn 0.224303 0.0801305 0.97122
v -5.98937 7.52423 -26.6081
vn 0.299022 -0.0199704 0.954037
v -5.88098 7.49605 -26.6488
vn 0.38829 -0.0431792 0.920525
v -5.77713 7.46838 -26.7002
vn 0.473819 -0.0659721 0.878148
v -5.67881 7.44147 -26.762
vn 0.554785 -0.0881297 0.827313
v -5.58699 7.4156 -26.8334
vn 0.630408 -0.109439 0.768511
v -5.50254 7.39101 -26.9138
vn 0.699959 -0.129693 0.702308
v -5.42627 7.36793 -27.0024
vn 0.76277 -0.148699 0.629341
v -5.35893 7.34659 -27.0983
vn 0.818235 -0.166273 0.550314
v -5.30115 7.3272 -27.2007
vn 0.865819 -0.182246 0.465986
v -5.2535 7.30993 -27.3085
vn 0.905066 -0.196463 0.377171
v -5.21642 7.29497 -27.4208
vn 0.935596 -0.208788 0.284724
v -5.19029 7.28244 -27.5364
vn 0.957116 -0.219103 0.189534
v -5.17536 7.27248 -27.6542
vn 0.969418 -0.227308 0.0925192
v -5.17176 7.26518 -27.7731
vn 0.972384 -0.233323 -0.00538669
v -5.17952 7.2606 -27.8919
vn 0.965986 -0.237091 -0.103241
v -5.19859 7.2588 -28.0095
vn 0.950285 -0.238577 -0.2001
v -5.22877 7.25978 -28.1248
vn 0.925432 -0.237764 -0.295033
v -5.26977 7.26355 -28.2366
vn 0.891666 -0.234662 -0.387124
v -5.32119 7.27006 -28.3439
vn 0.849313 -0.229299 -0.475488
v -5.38255 7.27925 -28.4456
vn 0.798781 -0.221729 -0.559271
v -5.45325 7.29104 -28.5408
vn 0.740557 -0.212023 -0.637669
v -5.5326 7.3053 -28.6285
vn 0.6752 -0.200275 -0.709926
v -5.61986 7.32191 -28.708
vn 0.603341 -0.186599 -0.775346
v -5.71417 7.3407 -28.7783
vn 0.525671 -0.171125 -0.833299
v -5.81462 7.36149 -28.8389
vn 0.442939 -0.154003 -0.883226
v -5.92026 7.38408 -28.8892
vn 0.355941 -0.135399 -0.924648
v -6.03005 7.40825 -28.9287
vn 0.265515 -0.11549 -0.957165
v -6.14296 7.43378 -28.957
vn 0.172532 -0.0944689 -0.980463
v -6.25788 7.46041 -28.9738
vn 0.0778871 -0.0725381 -0.99432
v -6.37371 7.48788 -28.979
vn -0.0175075 -0.0499088 -0.9986
v -6.48933 7.51594 -28.9726
vn -0.112734 -0.0267988 -0.993264
v -6.60364 7.54432 -28.9545
vn -0.206874 -0.00343072 -0.978362
v -6.71553 7.57273 -28.9249
vn -0.299022 0.0199704 -0.954037
v -6.82392 7.60091 -28.8842
vn -0.38829 0.0431792 -0.920525
v -6.92777 7.62859 -28.8328
vn -0.473819 0.0659721 -0.878148
v -7.02608 7.65549 -28.7711
vn -0.554785 0.0881297 -0.827313
v -7.1179 7.68137 -28.6997
vn -0.630408 0.109439 -0.768511
v -7.20236 7.70596 -28.6193
vn -0.699959 0.129693 -0.702308
v -7.27862 7.72904 -28.5307
vn -0.76277 0.148699 -0.629341
v -7.34597 7.75038 -28.4347
vn -0.818235 0.166273 -0.550314
v -7.40375 7.76977 -28.3323
vn -0.865819 0.182246 -0.465986
v -7.4514 7.78703 -28.2245
vn -0.905066 0.196463 -0.377171
v -7.48847 7.802 -28.1122
vn -0.935596 0.208788 -0.284724
v -7.5146 7.81452 -27.9967
vn -0.957116 0.219103 -0.189534
v -7.52954 7.82449 -27.8789
vn -0.969418 0.227308 -0.0925192
v -7.53314 7.83179 -27.76
vn -0.972384 0.233323 0.00538669
v -7.52537 7.83637 -27.6412
vn -0.965986 0.237091 0.103241
v -7.50631 7.83817 -27.5235
vn -0.950285 0.238577 0.2001
v -7.47613 7.83718 -27.4083
vn -0.925432 0.237764 0.295033
v -7.43513 7.83342 -27.2965
vn -0.891666 0.234662 0.387124
v -7.3837 7.8269 -27.1892
vn -0.849313 0.229299 0.475488
v -7.32235 7.81771 -27.0874
vn -0.798781 0.221729 0.559271
v -7.25165 7.80593 -26.9922
vn -0.740557 0.212023 0.637669
v -7.17229 7.79166 -26.9045
vn -0.6752 0.200275 0.709926
v -7.08504 7.77506 -26.8251
vn -0.603341 0.186599 0.775346
v -6.99073 7.75627 -26.7547
vn -0.525671 0.171125 0.833299
v -6.89027 7.73548 -26.6941
vn -0.442939 0.154003 0.883226
v -6.78464 7.71289 -26.6438
vn -0.355941 0.135399 0.924648
v -6.67484 7.68871 -26.6043
vn -0.265515 0.11549 0.957165
v -6.56194 7.66319 -26.576
vn -0.172532 0.0944689 0.980463
v -6.44702 7.63656 -26.5592
vn -0.0778871 0.0725381 0.99432
v -6.33119 7.60908 -26.554
vn 0.0175075 0.0499088 0.9986
v -6.21556 7.58102 -26.5605
vn 0.112734 0.0267988 0.993264
v -6.10126 7.55265 -26.5786
vn 0.206874 0.00343072 0.978362
v -6.56623 5.22941 -26.5682
vn 0.280418 -0.0939135 0.955273
v -6.45749 5.2016 -26.609
vn 0.369776 -0.116766 0.921754
v -6.35309 5.17516 -26.6605
vn 0.455573 -0.138494 0.879359
v -6.25402 5.15034 -26.7224
vn 0.536982 -0.158889 0.828495
v -6.16125 5.12739 -26.794
vn 0.61322 -0.177753 0.769653
v -6.07567 5.10652 -26.8747
vn 0.683552 -0.194905 0.703398
v -5.99809 5.08793 -26.9635
vn 0.747301 -0.210181 0.630369
v -5.92927 5.0718 -27.0598
vn 0.803854 -0.223432 0.551269
v -5.86988 5.0583 -27.1625
vn 0.852665 -0.234531 0.46686
v -5.82047 5.04754 -27.2707
vn 0.893264 -0.243372 0.377955
v -5.78154 5.03963 -27.3833
vn 0.92526 -0.249869 0.28541
v -5.75344 5.03465 -27.4993
vn 0.948346 -0.25396 0.190116
v -5.73647 5.03265 -27.6175
vn 0.962299 -0.255604 0.092992
v -5.73076 5.03365 -27.7367
vn 0.966984 -0.254788 -0.00502806
v -5.7364 5.03763 -27.856
vn 0.962357 -0.251517 -0.103
v -5.7533 5.04455 -27.974
vn 0.948461 -0.245824 -0.199979
v -5.78133 5.05436 -28.0896
vn 0.925432 -0.237764 -0.295033
v -5.8202 5.06696 -28.2018
vn 0.89349 -0.227414 -0.387246
v -5.86954 5.08222 -28.3095
vn 0.852943 -0.214874 -0.475729
v -5.92887 5.09999 -28.4116
vn 0.804182 -0.200264 -0.55963
v -5.99764 5.12012 -28.5072
vn 0.747676 -0.183726 -0.638142
v -6.07516 5.1424 -28.5952
vn 0.68397 -0.165419 -0.710508
v -6.1607 5.16661 -28.675
vn 0.613676 -0.145518 -0.776032
v -6.25343 5.19254 -28.7456
vn 0.537473 -0.124216 -0.834082
v -6.35246 5.21991 -28.8065
vn 0.456093 -0.101718 -0.8841
v -6.45683 5.24848 -28.857
vn 0.370321 -0.0782398 -0.925603
v -6.56554 5.27797 -28.8966
vn 0.280983 -0.0540084 -0.958192
v -6.67755 5.30809 -28.925
vn 0.188939 -0.0292569 -0.981553
v -6.79177 5.33855 -28.942
vn 0.0950748 -0.0042236 -0.995461
v -6.9071 5.36906 -28.9472
vn 0.000295184 0.0208503 -0.999783
v -7.02244 5.39933 -28.9408
vn -0.0944872 0.0457235 -0.994476
v -7.13667 5.42906 -28.9227
vn -0.18836 0.0701563 -0.979591
v -7.2487 5.45797 -28.8931
vn -0.280418 0.0939135 -0.955273
v -7.35744 5.48578 -28.8523
vn -0.369776 0.116766 -0.921754
v -7.46184 5.51222 -28.8007
vn -0.455573 0.138494 -0.879359
v -7.5609 5.53704 -28.7388
vn -0.536982 0.158889 -0.828495
v -7.65368 5.56 -28.6672
vn -0.61322 0.177753 -0.769653
v -7.73926 5.58087 -28.5866
vn -0.683552 0.194905 -0.703398
v -7.81684 5.59946 -28.4977
vn -0.747301 0.210181 -0.630369
v -7.88565 5.61558 -28.4014
vn -0.803854 0.223432 -0.551269
v -7.94505 5.62909 -28.2987
vn -0.852665 0.234531 -0.46686
v -7.99445 5.63985 -28.1905
vn -0.893264 0.243372 -0.377955
v -8.03339 5.64775 -28.0779
vn -0.92526 0.249869 -0.28541
v -8.06148 5.65273 -27.962
vn -0.948346 0.25396 -0.190116
v -8.07846 5.65473 -27.8438
vn -0.962299 0.255604 -0.092992
v -8.08416 5.65374 -27.7245
vn -0.966984 0.254788 0.00502806
v -8.07853 5.64976 -27.6053
vn -0.962357 0.251517 0.103
v -8.06162 5.64283 -27.4873
vn -0.948461 0.245824 0.199979
v -8.0336 5.63302 -27.3716
vn -0.925432 0.237764 0.295033
v -7.99473 5.62043 -27.2594
vn -0.89349 0.227414 0.387246
v -7.94539 5.60517 -27.1517
vn -0.852943 0.214874 0.475729
v -7.88605 5.58739 -27.0496
vn -0.804182 0.200264 0.55963
v -7.81729 5.56726 -26.9541
vn -0.747676 0.183726 0.638142
v -7.73977 5.54499 -26.866
vn -0.68397 0.165419 0.710508
v -7.65423 5.52077 -26.7863
vn -0.613676 0.145518 0.776032
v -7.5615 5.49485 -26.7156
vn -0.537473 0.124216 0.834082
v -7.46247 5.46747 -26.6548
vn -0.456093 0.101718 0.8841
v -7.3581 5.4389 -26.6043
vn -0.370321 0.0782398 0.925603
v -7.24939 5.40941 -26.5646
vn -0.280983 0.0540084 0.958192
v -7.13738 5.37929 -26.5362
vn -0.188939 0.0292569 0.981553
v -7.02316 5.34883 -26.5193
vn -0.0950748 0.0042236 0.995461
v -6.90782 5.31832 -26.514
vn -0.000295184 -0.0208503 0.999783
v -6.79248 5.28805 -26.5205
vn 0.0944872 -0.0457235 0.994476
v -6.67825 5.25832 -26.5386
vn 0.18836 -0.0701563 0.979591
v -7.20685 2.89898 -26.6995
vn 0.261216 -0.163716 0.951295
v -7.09776 2.87152 -26.7404
vn 0.350667 -0.186233 0.917796
v -6.99279 2.84625 -26.792
vn 0.43674 -0.206956 0.875458
v -6.89295 2.82341 -26.8539
vn 0.518607 -0.225686 0.824689
v -6.7992 2.80322 -26.9255
vn 0.59548 -0.242242 0.765978
v -6.71245 2.78587 -27.0061
vn 0.666618 -0.256466 0.69989
v -6.63352 2.77154 -27.0949
vn 0.731336 -0.268219 0.627062
v -6.56319 2.76035 -27.1911
vn 0.789011 -0.27739 0.548194
v -6.50212 2.75243 -27.2937
vn 0.839087 -0.283889 0.464048
v -6.4509 2.74783 -27.4018
vn 0.881082 -0.287654 0.375432
v -6.41004 2.74662 -27.5143
vn 0.914592 -0.288649 0.2832
v -6.37991 2.7488 -27.6301
vn 0.939294 -0.286864 0.188242
v -6.36082 2.75434 -27.7481
vn 0.954951 -0.282317 0.09147
v -6.35294 2.76321 -27.8672
vn 0.96141 -0.27505 -0.00618259
v -6.35636 2.7753 -27.9862
vn 0.958611 -0.265135 -0.103776
v -6.37103 2.7905 -28.104
vn 0.946579 -0.252666 -0.200369
v -6.39682 2.80868 -28.2195
vn 0.925432 -0.237764 -0.295033
v -6.43348 2.82964 -28.3314
vn 0.895372 -0.220572 -0.386856
v -6.48065 2.8532 -28.4389
vn 0.856689 -0.201256 -0.474953
v -6.53789 2.87912 -28.5407
vn 0.809756 -0.180002 -0.558476
v -6.60464 2.90715 -28.636
vn 0.755024 -0.157014 -0.63662
v -6.68025 2.93703 -28.7239
vn 0.693021 -0.132514 -0.708634
v -6.764 2.96847 -28.8034
vn 0.624344 -0.106738 -0.773823
v -6.85509 3.00116 -28.8738
vn 0.549654 -0.0799337 -0.831559
v -6.95263 3.03478 -28.9344
vn 0.469671 -0.0523598 -0.881287
v -7.05569 3.06902 -28.9847
vn 0.385165 -0.0242817 -0.922528
v -7.16327 3.10355 -29.0242
vn 0.296949 0.00403029 -0.954885
v -7.27434 3.13803 -29.0524
vn 0.205873 0.0323035 -0.978045
v -7.38783 3.17213 -29.0692
vn 0.112815 0.0602655 -0.991787
v -7.50264 3.20553 -29.0743
vn 0.0186701 0.0876472 -0.995977
v -7.61767 3.23789 -29.0677
vn -0.0756544 0.114185 -0.990575
v -7.73181 3.26891 -29.0495
vn -0.16925 0.139623 -0.975633
v -7.84397 3.29829 -29.0198
vn -0.261216 0.163716 -0.951295
v -7.95306 3.32575 -28.9789
vn -0.350667 0.186233 -0.917796
v -8.05802 3.35103 -28.9273
vn -0.43674 0.206956 -0.875458
v -8.15786 3.37387 -28.8654
vn -0.518607 0.225686 -0.824689
v -8.25161 3.39406 -28.7938
vn -0.59548 0.242242 -0.765978
v -8.33837 3.4114 -28.7132
vn -0.666618 0.256466 -0.69989
v -8.41729 3.42574 -28.6244
vn -0.731336 0.268219 -0.627062
v -8.48763 3.43692 -28.5282
vn -0.789011 0.27739 -0.548194
v -8.5487 3.44485 -28.4256
vn -0.839087 0.283889 -0.464048
v -8.59991 3.44944 -28.3175
vn -0.881082 0.287654 -0.375432
v -8.64078 3.45065 -28.205
vn -0.914592 0.288649 -0.2832
v -8.6709 3.44848 -28.0892
vn -0.939294 0.286864 -0.188242
v -8.69 3.44293 -27.9712
vn -0.954951 0.282317 -0.09147
v -8.69787 3.43407 -27.8521
vn -0.96141 0.27505 0.00618259
v -8.69446 3.42198 -27.7331
vn -0.958611 0.265135 0.103776
v -8.67979 3.40677 -27.6153
vn -0.946579 0.252666 0.200369
v -8.654 3.3886 -27.4999
vn -0.925432 0.237764 0.295033
v -8.61734 3.36763 -27.3879
vn -0.895372 0.220572 0.386856
v -8.57016 3.34407 -27.2804
vn -0.856689 0.201256 0.474953
v -8.51293 3.31815 -27.1786
vn -0.809756 0.180002 0.558476
v -8.44618 3.29012 -27.0833
vn -0.755024 0.157014 0.63662
v -8.37057 3.26024 -26.9955
vn -0.693021 0.132514 0.708634
v -8.28681 3.22881 -26.916
vn -0.624344 0.106738 0.773823
v -8.19573 3.19612 -26.8456
vn -0.549654 0.0799337 0.831559
v -8.09819 3.16249 -26.7849
vn -0.469671 0.0523598 0.881287
v -7.99513 3.12825 -26.7346
vn -0.385165 0.0242817 0.922528
v -7.88755 3.09372 -26.6952
vn -0.296949 -0.00403029 0.954885
v -7.77648 3.05924 -26.6669
vn -0.205873 -0.0323035 0.978045
v -7.66299 3.02514 -26.6502
vn -0.112815 -0.0602655 0.991787
v -7.54818 2.99175 -26.645
vn -0.0186701 -0.0876472 0.995977
v -7.43315 2.95939 -26.6516
vn 0.0756544 -0.114185 0.990575
v -7.319 2.92836 -26.6699
vn 0.16925 -0.139623 0.975633
v -7.91068 0.533798 -27.0012
vn 0.241865 -0.228707 0.942971
v -7.80124 0.506662 -27.0421
vn 0.331408 -0.250911 0.909512
v -7.6957 0.482478 -27.0937
vn 0.41776 -0.270698 0.867294
v -7.59508 0.461481 -27.1555
vn 0.500089 -0.287878 0.816723
v -7.50035 0.443872 -27.2269
vn 0.577601 -0.302286 0.758287
v -7.41241 0.429821 -27.3072
vn 0.649551 -0.313783 0.692549
v -7.33212 0.419463 -27.3957
vn 0.715246 -0.322258 0.62014
v -7.26025 0.412898 -27.4915
vn 0.774052 -0.327629 0.541759
v -7.19749 0.41019 -27.5937
vn 0.825403 -0.329845 0.458161
v -7.14444 0.411364 -27.7013
vn 0.868806 -0.328884 0.370151
v -7.10163 0.416409 -27.8132
vn 0.903841 -0.324756 0.278576
v -7.06944 0.425277 -27.9284
vn 0.930172 -0.317501 0.184318
v -7.04821 0.437881 -28.0457
vn 0.947545 -0.307188 0.0882844
v -7.03813 0.454101 -28.1642
vn 0.955793 -0.293916 -0.00859903
v -7.0393 0.473781 -28.2825
vn 0.954835 -0.277814 -0.1054
v -7.05171 0.496731 -28.3995
vn 0.944682 -0.259036 -0.201185
v -7.07524 0.522729 -28.5142
vn 0.925432 -0.237764 -0.295033
v -7.10966 0.551526 -28.6255
vn 0.897269 -0.214202 -0.38604
v -7.15464 0.582845 -28.7321
vn 0.860464 -0.188577 -0.473329
v -7.20975 0.616383 -28.8332
vn 0.815373 -0.161136 -0.556059
v -7.27446 0.651817 -28.9278
vn 0.76243 -0.132143 -0.633434
v -7.34814 0.688807 -29.0149
vn 0.702144 -0.101877 -0.704709
v -7.43008 0.726996 -29.0937
vn 0.635095 -0.0706307 -0.769198
v -7.5195 0.766016 -29.1635
vn 0.561931 -0.0387038 -0.826278
v -7.61553 0.805492 -29.2235
vn 0.483355 -0.00640424 -0.875401
v -7.71726 0.845043 -29.2733
vn 0.400124 0.025957 -0.916094
v -7.82369 0.884289 -29.3122
vn 0.313039 0.0580683 -0.947963
v -7.93381 0.922851 -29.34
vn 0.22294 0.0896204 -0.970704
v -8.04655 0.960359 -29.3564
vn 0.130693 0.120309 -0.984096
v -8.16083 0.99645 -29.3612
vn 0.0371884 0.14984 -0.988011
v -8.27555 1.03078 -29.3543
vn -0.0566747 0.177927 -0.98241
v -8.3896 1.06301 -29.3359
vn -0.149992 0.204301 -0.967349
v -8.50188 1.09284 -29.3061
vn -0.241865 0.228707 -0.942971
v -8.61132 1.11998 -29.2652
vn -0.331408 0.250911 -0.909512
v -8.71686 1.14416 -29.2136
vn -0.41776 0.270698 -0.867294
v -8.81748 1.16516 -29.1518
vn -0.500089 0.287878 -0.816723
v -8.91221 1.18277 -29.0804
vn -0.577601 0.302286 -0.758287
v -9.00015 1.19682 -29.0001
vn -0.649551 0.313783 -0.692549
v -9.08044 1.20718 -28.9116
vn -0.715246 0.322258 -0.62014
v -9.15231 1.21374 -28.8158
vn -0.774052 0.327629 -0.541759
v -9.21507 1.21645 -28.7136
vn -0.825403 0.329845 -0.458161
v -9.26812 1.21527 -28.606
vn -0.868806 0.328884 -0.370151
v -9.31094 1.21023 -28.4941
vn -0.903841 0.324756 -0.278576
v -9.34312 1.20136 -28.3789
vn -0.930172 0.317501 -0.184318
v -9.36435 1.18876 -28.2615
vn -0.947545 0.307188 -0.0882844
v -9.37443 1.17254 -28.1431
vn -0.955793 0.293916 0.00859903
v -9.37326 1.15286 -28.0248
vn -0.954835 0.277814 0.1054
v -9.36085 1.12991 -27.9078
vn -0.944682 0.259036 0.201185
v -9.33732 1.10391 -27.7931
vn -0.925432 0.237764 0.295033
v -9.3029 1.07511 -27.6818
vn -0.897269 0.214202 0.38604
v -9.25792 1.04379 -27.5752
vn -0.860464 0.188577 0.473329
v -9.20281 1.01026 -27.474
vn -0.815373 0.161136 0.556059
v -9.13811 0.974821 -27.3795
vn -0.76243 0.132143 0.633434
v -9.06443 0.937832 -27.2924
vn -0.702144 0.101877 0.704709
v -8.98248 0.899643 -27.2135
vn -0.635095 0.0706307 0.769198
v -8.89306 0.860622 -27.1438
vn -0.561931 0.0387038 0.826278
v -8.79703 0.821146 -27.0837
vn -0.483355 0.00640424 0.875401
v -8.6953 0.781595 -27.034
vn -0.400124 -0.025957 0.916094
v -8.58887 0.742349 -26.9951
vn -0.313039 -0.0580683 0.947963
v -8.47875 0.703787 -26.9673
vn -0.22294 -0.0896204 0.970704
v -8.36601 0.66628 -26.9509
vn -0.130693 -0.120309 0.984096
v -8.25173 0.630188 -26.9461
vn -0.0371884 -0.14984 0.988011
v -8.13701 0.595861 -26.953
vn 0.0566747 -0.177927 0.98241
v -8.02296 0.563627 -26.9714
vn 0.149992 -0.204301 0.967349
v -8.67726 -1.86567 -27.472
vn 0.22274 -0.288537 0.9312
v -8.56747 -1.89251 -27.5129
vn 0.312376 -0.310453 0.897797
v -8.46137 -1.91569 -27.5644
vn 0.399003 -0.329379 0.855749
v -8.35997 -1.93499 -27.626
vn 0.481788 -0.345132 0.805459
v -8.26426 -1.95021 -27.6971
vn 0.559933 -0.357562 0.747412
v -8.17515 -1.96122 -27.777
vn 0.632685 -0.366548 0.682167
v -8.0935 -1.9679 -27.865
vn 0.699344 -0.372005 0.610353
v -8.02011 -1.9702 -27.9601
vn 0.759268 -0.373878 0.53266
v -7.95567 -1.96808 -28.0616
vn 0.81188 -0.372151 0.449838
v -7.9008 -1.96158 -28.1683
vn 0.856673 -0.36684 0.362683
v -7.85604 -1.95075 -28.2794
vn 0.893216 -0.357996 0.272036
v -7.82182 -1.93569 -28.3936
vn 0.921157 -0.345705 0.178769
v -7.79846 -1.91656 -28.5099
vn 0.940226 -0.330084 0.0837796
v -7.7862 -1.89353 -28.6273
vn 0.950241 -0.311284 -0.0120161
v -7.78514 -1.86683 -28.7445
vn 0.951104 -0.289486 -0.107696
v -7.7953 -1.83672 -28.8604
vn 0.942808 -0.264901 -0.202339
v -7.81658 -1.80348 -28.9739
vn 0.925432 -0.237764 -0.295033
v -7.84878 -1.76744 -29.084
vn 0.899143 -0.208337 -0.384886
v -7.89159 -1.72894 -29.1895
vn 0.864195 -0.176905 -0.471032
v -7.94459 -1.68835 -29.2895
vn 0.820925 -0.143768 -0.552642
v -8.00727 -1.64607 -29.3829
vn 0.769748 -0.109247 -0.62893
v -8.07903 -1.6025 -29.4689
vn 0.711159 -0.0736735 -0.69916
v -8.15918 -1.55806 -29.5467
vn 0.64572 -0.0373907 -0.762658
v -8.24695 -1.51318 -29.6155
vn 0.574063 -0.000747822 -0.818811
v -8.34149 -1.46829 -29.6746
vn 0.496878 0.0359023 -0.867078
v -8.44189 -1.42382 -29.7235
vn 0.414907 0.0722066 -0.906994
v -8.54718 -1.38021 -29.7617
vn 0.32894 0.107816 -0.938176
v -8.65636 -1.33786 -29.7888
vn 0.239806 0.142386 -0.960322
v -8.76836 -1.2972 -29.8046
vn 0.148362 0.175586 -0.973221
v -8.88212 -1.25861 -29.8089
vn 0.0554894 0.207094 -0.976746
v -8.99652 -1.22246 -29.8017
vn -0.0379177 0.236608 -0.970865
v -9.11048 -1.1891 -29.7831
vn -0.13096 0.263843 -0.955634
v -9.2229 -1.15885 -29.7531
vn -0.22274 0.288537 -0.9312
v -9.33269 -1.13201 -29.7122
vn -0.312376 0.310453 -0.897797
v -9.43879 -1.10883 -29.6607
vn -0.399003 0.329379 -0.855749
v -9.54019 -1.08953 -29.5991
vn -0.481788 0.345132 -0.805459
v -9.6359 -1.07431 -29.528
vn -0.559933 0.357562 -0.747412
v -9.72501 -1.0633 -29.4481
vn -0.632685 0.366548 -0.682167
v -9.80666 -1.05662 -29.3601
vn -0.699344 0.372005 -0.610353
v -9.88006 -1.05432 -29.265
vn -0.759268 0.373878 -0.53266
v -9.9445 -1.05644 -29.1635
vn -0.81188 0.372151 -0.449838
v -9.99936 -1.06294 -29.0568
vn -0.856673 0.36684 -0.362683
v -10.0441 -1.07378 -28.9458
vn -0.893216 0.357996 -0.272036
v -10.0783 -1.08883 -28.8315
vn -0.921157 0.345705 -0.178769
v -10.1017 -1.10796 -28.7152
vn -0.940226 0.330084 -0.0837796
v -10.114 -1.13099 -28.5978
vn -0.950241 0.311284 0.0120161
v -10.115 -1.15769 -28.4807
vn -0.951104 0.289486 0.107696
v -10.1049 -1.1878 -28.3647
vn -0.942808 0.264901 0.202339
v -10.0836 -1.22104 -28.2512
vn -0.925432 0.237764 0.295033
v -10.0514 -1.25708 -28.1411
vn -0.899143 0.208337 0.384886
v -10.0086 -1.29558 -28.0356
vn -0.864195 0.176905 0.471032
v -9.95557 -1.33617 -27.9357
vn -0.820925 0.143768 0.552642
v -9.89289 -1.37845 -27.8422
vn -0.769748 0.109247 0.62893
v -9.82113 -1.42202 -27.7562
vn -0.711159 0.0736735 0.69916
v -9.74098 -1.46646 -27.6784
vn -0.64572 0.0373907 0.762658
v -9.65321 -1.51135 -27.6097
vn -0.574063 0.000747822 0.818811
v -9.55867 -1.55624 -27.5505
vn -0.496878 -0.0359023 0.867078
v -9.45827 -1.6007 -27.5017
vn -0.414907 -0.0722066 0.906994
v -9.35298 -1.64432 -27.4635
vn -0.32894 -0.107816 0.938176
v -9.2438 -1.68666 -27.4363
vn -0.239806 -0.142386 0.960322
v -9.1318 -1.72732 -27.4205
vn -0.148362 -0.175586 0.973221
v -9.01805 -1.76592 -27.4162
vn -0.0554894 -0.207094 0.976746
v -8.90364 -1.80207 -27.4234
vn 0.0379177 -0.236608 0.970865
v -8.78968 -1.83542 -27.4421
vn 0.13096 -0.263843 0.955634
v -9.50624 -4.29929 -28.111
vn 0.204136 -0.343128 0.916838
v -9.3961 -4.32587 -28.1519
vn 0.293861 -0.364781 0.883505
v -9.28944 -4.34813 -28.2033
vn 0.380756 -0.382921 0.841663
v -9.18728 -4.36587 -28.2646
vn 0.463985 -0.397373 0.791715
v -9.0906 -4.37891 -28.3353
vn 0.542744 -0.407998 0.734143
v -9.00034 -4.38713 -28.4146
vn 0.616277 -0.414693 0.669501
v -8.91737 -4.39045 -28.5019
vn 0.683875 -0.417395 0.598411
v -8.84247 -4.38883 -28.5962
vn 0.744887 -0.416078 0.521558
v -8.77639 -4.3823 -28.6967
vn 0.798725 -0.410753 0.439682
v -8.71975 -4.3709 -28.8024
vn 0.844871 -0.401472 0.353572
v -8.67309 -4.35477 -28.9123
vn 0.88288 -0.388325 0.264057
v -8.63687 -4.33404 -29.0253
vn 0.912387 -0.371439 0.171998
v -8.61144 -4.30892 -29.1403
vn 0.933107 -0.350975 0.0782836
v -8.59704 -4.27965 -29.2563
vn 0.94484 -0.327131 -0.0161851
v -8.5938 -4.24652 -29.3721
vn 0.947475 -0.300136 -0.110498
v -8.60177 -4.20983 -29.4865
vn 0.940984 -0.270252 -0.203747
v -8.62086 -4.16996 -29.5986
vn 0.925432 -0.237764 -0.295033
v -8.65089 -4.12727 -29.7071
vn 0.900967 -0.202987 -0.383478
v -8.69157 -4.08218 -29.8112
vn 0.867825 -0.166254 -0.46823
v -8.74251 -4.03513 -29.9097
vn 0.826325 -0.127921 -0.548473
v -8.80322 -3.98656 -30.0017
vn 0.776868 -0.0883558 -0.623434
v -8.87311 -3.93695 -30.0863
vn 0.719929 -0.0479396 -0.69239
v -8.95151 -3.88677 -30.1628
vn 0.656056 -0.00706169 -0.754679
v -9.03767 -3.83651 -30.2303
vn 0.585866 0.0338842 -0.809699
v -9.13075 -3.78665 -30.2883
vn 0.510033 0.0745038 -0.856922
v -9.22987 -3.73767 -30.3361
vn 0.429288 0.114406 -0.895892
v -9.33405 -3.69005 -30.3734
vn 0.344409 0.153206 -0.926234
v -9.44231 -3.64423 -30.3997
vn 0.256214 0.190531 -0.947656
v -9.5536 -3.60067 -30.4147
vn 0.16555 0.226021 -0.959952
v -9.66684 -3.55978 -30.4185
vn 0.0732926 0.259334 -0.963003
v -9.78096 -3.52195 -30.4109
vn -0.0196709 0.29015 -0.956779
v -9.89483 -3.48756 -30.3919
vn -0.112445 0.318171 -0.941341
v -10.0074 -3.45692 -30.3618
vn -0.204136 0.343128 -0.916838
v -10.1175 -3.43034 -30.3209
vn -0.293861 0.364781 -0.883505
v -10.2242 -3.40808 -30.2696
vn -0.380756 0.382921 -0.841663
v -10.3263 -3.39034 -30.2082
vn -0.463985 0.397373 -0.791715
v -10.423 -3.3773 -30.1376
vn -0.542744 0.407998 -0.734143
v -10.5133 -3.36908 -30.0582
vn -0.616277 0.414693 -0.669501
v -10.5963 -3.36576 -29.971
vn -0.683875 0.417395 -0.598411
v -10.6711 -3.36738 -29.8766
vn -0.744887 0.416078 -0.521558
v -10.7372 -3.37391 -29.7761
vn -0.798725 0.410753 -0.439682
v -10.7939 -3.38531 -29.6704
vn -0.844871 0.401472 -0.353572
v -10.8405 -3.40144 -29.5606
vn -0.88288 0.388325 -0.264057
v -10.8767 -3.42217 -29.4476
vn -0.912387 0.371439 -0.171998
v -10.9022 -3.44729 -29.3325
vn -0.933107 0.350975 -0.0782836
v -10.9166 -3.47656 -29.2166
vn -0.94484 0.327131 0.0161851
v -10.9198 -3.50969 -29.1008
vn -0.947475 0.300136 0.110498
v -10.9119 -3.54638 -28.9863
vn -0.940984 0.270252 0.203747
v -10.8928 -3.58625 -28.8743
vn -0.925432 0.237764 0.295033
v -10.8627 -3.62894 -28.7657
vn -0.900967 0.202987 0.383478
v -10.822 -3.67403 -28.6617
vn -0.867825 0.166254 0.46823
v -10.7711 -3.72108 -28.5632
vn -0.826325 0.127921 0.548473
v -10.7104 -3.76965 -28.4712
vn -0.776868 0.0883558 0.623434
v -10.6405 -3.81926 -28.3865
vn -0.719929 0.0479396 0.69239
v -10.5621 -3.86944 -28.3101
vn -0.656056 0.00706169 0.754679
v -10.4759 -3.9197 -28.2425
vn -0.585866 -0.0338842 0.809699
v -10.3829 -3.96956 -28.1846
vn -0.510033 -0.0745038 0.856922
v -10.2838 -4.01854 -28.1367
vn -0.429288 -0.114406 0.895892
v -10.1796 -4.06616 -28.0995
vn -0.344409 -0.153206 0.926234
v -10.0713 -4.11198 -28.0732
vn -0.256214 -0.190531 0.947656
v -9.96002 -4.15554 -28.0581
vn -0.16555 -0.226021 0.959952
v -9.84677 -4.19643 -28.0544
vn -0.0732926 -0.259334 0.963003
v -9.73266 -4.23426 -28.062
vn 0.0196709 -0.29015 0.956779
v -9.61879 -4.26865 -28.0809
vn 0.112445 -0.318171 0.941341
v -10.3973 -6.76717 -28.9173
vn 0.186263 -0.392605 0.900648
v -10.2869 -6.79351 -28.9582
vn 0.276074 -0.414019 0.867393
v -10.1796 -6.81495 -29.0094
vn 0.363227 -0.431447 0.825785
v -10.0767 -6.83127 -29.0704
vn 0.446881 -0.444719 0.776223
v -9.97913 -6.84233 -29.1405
vn 0.526232 -0.453708 0.719186
v -9.88775 -6.84802 -29.2192
vn 0.600515 -0.458328 0.655223
v -9.80349 -6.84827 -29.3057
vn 0.669014 -0.458534 0.58495
v -9.72715 -6.84309 -29.399
vn 0.731071 -0.454324 0.509044
v -9.65947 -6.83253 -29.4984
vn 0.786087 -0.445738 0.428235
v -9.60111 -6.81669 -29.6029
vn 0.833532 -0.43286 0.343302
v -9.55262 -6.79572 -29.7115
vn 0.872951 -0.415813 0.255062
v -9.51447 -6.76982 -29.823
vn 0.903962 -0.394762 0.164367
v -9.48703 -6.73925 -29.9365
vn 0.926267 -0.369909 0.0720882
v -9.47057 -6.70429 -30.0509
vn 0.939652 -0.341493 -0.0208847
v -9.46524 -6.66529 -30.165
vn 0.943988 -0.309789 -0.113656
v -9.47109 -6.62262 -30.2778
vn 0.939232 -0.275101 -0.205333
v -9.48806 -6.57669 -30.3882
vn 0.925432 -0.237764 -0.295033
v -9.516 -6.52795 -30.495
vn 0.902718 -0.198137 -0.381891
v -9.55464 -6.47685 -30.5973
vn 0.871312 -0.156602 -0.465072
v -9.60359 -6.4239 -30.6941
vn 0.831514 -0.113559 -0.543774
v -9.6624 -6.36961 -30.7845
vn 0.783708 -0.0694219 -0.617238
v -9.73049 -6.31449 -30.8676
vn 0.728354 -0.0246165 -0.684759
v -9.80721 -6.25909 -30.9425
vn 0.665986 0.020426 -0.745684
v -9.89183 -6.20392 -31.0086
vn 0.597204 0.0652718 -0.799429
v -9.98351 -6.14953 -31.0653
vn 0.522671 0.109489 -0.845474
v -10.0814 -6.09643 -31.1119
vn 0.443104 0.152652 -0.883378
v -10.1845 -6.04514 -31.1481
vn 0.35927 0.194344 -0.912773
v -10.2919 -5.99616 -31.1734
vn 0.271976 0.234165 -0.933379
v -10.4025 -5.94995 -31.1877
vn 0.182063 0.271731 -0.944995
v -10.5153 -5.90695 -31.1908
vn 0.0903959 0.30668 -0.94751
v -10.6291 -5.8676 -31.1827
vn -0.00214138 0.338676 -0.940901
v -10.7429 -5.83225 -31.1634
vn -0.0946581 0.367409 -0.92523
v -10.8556 -5.80126 -31.1331
vn -0.186263 0.392605 -0.900648
v -10.9661 -5.77491 -31.0922
vn -0.276074 0.414019 -0.867393
v -11.0733 -5.75348 -31.0411
vn -0.363227 0.431447 -0.825785
v -11.1762 -5.73715 -30.9801
vn -0.446881 0.444719 -0.776223
v -11.2738 -5.72609 -30.9099
vn -0.526232 0.453708 -0.719186
v -11.3652 -5.72041 -30.8312
vn -0.600515 0.458328 -0.655223
v -11.4494 -5.72015 -30.7448
vn -0.669014 0.458534 -0.58495
v -11.5258 -5.72533 -30.6514
vn -0.731071 0.454324 -0.509044
v -11.5935 -5.73589 -30.552
vn -0.786087 0.445738 -0.428235
v -11.6518 -5.75174 -30.4475
vn -0.833532 0.43286 -0.343302
v -11.7003 -5.77271 -30.339
vn -0.872951 0.415813 -0.255062
v -11.7385 -5.7986 -30.2274
vn -0.903962 0.394762 -0.164367
v -11.7659 -5.82918 -30.1139
vn -0.926267 0.369909 -0.0720882
v -11.7824 -5.86413 -29.9995
vn -0.939652 0.341493 0.0208847
v -11.7877 -5.90313 -29.8854
vn -0.943988 0.309789 0.113656
v -11.7818 -5.9458 -29.7726
vn -0.939232 0.275101 0.205333
v -11.7649 -5.99173 -29.6623
vn -0.925432 0.237764 0.295033
v -11.7369 -6.04048 -29.5554
vn -0.902718 0.198137 0.381891
v -11.6983 -6.09157 -29.4531
vn -0.871312 0.156602 0.465072
v -11.6493 -6.14452 -29.3563
vn -0.831514 0.113559 0.543774
v -11.5905 -6.19881 -29.2659
vn -0.783708 0.0694219 0.617238
v -11.5224 -6.25393 -29.1829
vn -0.728354 0.0246165 0.684759
v -11.4457 -6.30934 -29.1079
vn -0.665986 -0.020426 0.745684
v -11.3611 -6.3645 -29.0418
vn -0.597204 -0.0652718 0.799429
v -11.2694 -6.4189 -28.9852
vn -0.522671 -0.109489 0.845474
v -11.1715 -6.47199 -28.9386
vn -0.443104 -0.152652 0.883378
v -11.0684 -6.52328 -28.9024
vn -0.35927 -0.194344 0.912773
v -10.961 -6.57227 -28.877
vn -0.271976 -0.234165 0.933379
v -10.8504 -6.61848 -28.8628
vn -0.182063 -0.271731 0.944995
v -10.7377 -6.66147 -28.8597
vn -0.0903959 -0.30668 0.94751
v -10.6238 -6.70083 -28.8678
vn 0.00214138 -0.338676 0.940901
v -10.51 -6.73617 -28.8871
vn 0.0946581 -0.367409 0.92523
v -11.3504 -9.26959 -29.8901
vn 0.169259 -0.437232 0.883278
v -11.2396 -9.29573 -29.931
vn 0.259153 -0.458432 0.850106
v -11.1318 -9.31642 -29.982
vn 0.34655 -0.475216 0.808747
v -11.0282 -9.33147 -30.0425
vn 0.43061 -0.487424 0.7596
v -10.9297 -9.34073 -30.1121
vn 0.510523 -0.494938 0.703138
v -10.8372 -9.34412 -30.1901
vn 0.585519 -0.497686 0.639904
v -10.7517 -9.3416 -30.2757
vn 0.654876 -0.49564 0.570507
v -10.674 -9.33319 -30.368
vn 0.717927 -0.488821 0.495616
v -10.6048 -9.31898 -30.4662
vn 0.774063 -0.477294 0.415952
v -10.5448 -9.29911 -30.5693
vn 0.822745 -0.461171 0.332282
v -10.4945 -9.27375 -30.6764
vn 0.863504 -0.440607 0.245412
v -10.4545 -9.24317 -30.7864
vn 0.895946 -0.415799 0.156178
v -10.4252 -9.20765 -30.8983
vn 0.91976 -0.386987 0.0654406
v -10.4067 -9.16754 -31.0109
vn 0.934716 -0.354448 -0.0259272
v -10.3994 -9.12322 -31.1233
vn 0.940671 -0.318495 -0.117045
v -10.4032 -9.07511 -31.2342
vn 0.937566 -0.279475 -0.207036
v -10.4182 -9.02369 -31.3427
vn 0.925432 -0.237764 -0.295033
v -10.4441 -8.96945 -31.4477
vn 0.904385 -0.193763 -0.380189
v -10.4808 -8.9129 -31.5481
vn 0.874629 -0.147896 -0.461683
v -10.5279 -8.8546 -31.6431
vn 0.836449 -0.100604 -0.538731
v -10.5849 -8.79511 -31.7317
vn 0.790215 -0.0523437 -0.610591
v -10.6513 -8.73499 -31.813
vn 0.73637 -0.00357925 -0.67657
v -10.7264 -8.67484 -31.8863
vn 0.675433 0.0452197 -0.736034
v -10.8095 -8.61521 -31.9509
vn 0.607991 0.0935832 -0.788409
v -10.8999 -8.5567 -32.0061
vn 0.534695 0.141045 -0.833191
v -10.9966 -8.49987 -32.0514
vn 0.456248 0.187149 -0.86995
v -11.0987 -8.44525 -32.0864
vn 0.373408 0.231451 -0.89833
v -11.2053 -8.39339 -32.1107
vn 0.286972 0.273523 -0.918059
v -11.3152 -8.34477 -32.1242
vn 0.197772 0.312962 -0.928946
v -11.4276 -8.29986 -32.1265
vn 0.106667 0.349386 -0.930887
v -11.5411 -8.25911 -32.1179
vn 0.0145356 0.382446 -0.923864
v -11.6549 -8.22289 -32.0983
vn -0.0777362 0.411822 -0.907943
v -11.7677 -8.19157 -32.0679
vn -0.169259 0.437232 -0.883278
v -11.8785 -8.16543 -32.027
vn -0.259153 0.458432 -0.850106
v -11.9863 -8.14474 -31.976
vn -0.34655 0.475216 -0.808747
v -12.0899 -8.12969 -31.9154
vn -0.43061 0.487424 -0.7596
v -12.1884 -8.12043 -31.8458
vn -0.510523 0.494938 -0.703138
v -12.2809 -8.11704 -31.7678
vn -0.585519 0.497686 -0.639904
v -12.3664 -8.11956 -31.6823
vn -0.654876 0.49564 -0.570507
v -12.4441 -8.12797 -31.59
vn -0.717927 0.488821 -0.495616
v -12.5133 -8.14218 -31.4917
vn -0.774063 0.477294 -0.415952
v -12.5733 -8.16206 -31.3886
vn -0.822745 0.461171 -0.332282
v -12.6236 -8.18741 -31.2815
vn -0.863504 0.440607 -0.245412
v -12.6636 -8.21799 -31.1715
vn -0.895946 0.415799 -0.156178
v -12.6929 -8.25351 -31.0596
vn -0.91976 0.386987 -0.0654406
v -12.7114 -8.29362 -30.947
vn -0.934716 0.354448 0.0259272
v -12.7187 -8.33795 -30.8347
vn -0.940671 0.318495 0.117045
v -12.7149 -8.38605 -30.7237
vn -0.937566 0.279475 0.207036
v -12.6999 -8.43747 -30.6153
vn -0.925432 0.237764 0.295033
v -12.674 -8.49171 -30.5103
vn -0.904385 0.193763 0.380189
v -12.6373 -8.54826 -30.4098
vn -0.874629 0.147896 0.461683
v -12.5902 -8.60656 -30.3148
vn -0.836449 0.100604 0.538731
v -12.5332 -8.66605 -30.2262
vn -0.790215 0.0523437 0.610591
v -12.4668 -8.72617 -30.1449
vn -0.73637 0.00357925 0.67657
v -12.3917 -8.78633 -30.0716
vn -0.675433 -0.0452197 0.736034
v -12.3086 -8.84595 -30.007
vn -0.607991 -0.0935832 0.788409
v -12.2182 -8.90446 -29.9518
vn -0.534695 -0.141045 0.833191
v -12.1215 -8.9613 -29.9065
vn -0.456248 -0.187149 0.86995
v -12.0194 -9.01591 -29.8715
vn -0.373408 -0.231451 0.89833
v -11.9128 -9.06778 -29.8472
vn -0.286972 -0.273523 0.918059
v -11.8029 -9.1164 -29.8338
vn -0.197772 -0.312962 0.928946
v -11.6905 -9.1613 -29.8314
vn -0.106667 -0.349386 0.930887
v -11.577 -9.20205 -29.84
vn -0.0145356 -0.382446 0.923864
v -11.4632 -9.23827 -29.8597
vn 0.0777362 -0.411822 0.907943
v -12.3653 -11.807 -31.0287
vn 0.153202 -0.47736 0.86525
v -12.2541 -11.8329 -31.0696
vn 0.243173 -0.498366 0.832165
v -12.1459 -11.8529 -31.1203
vn 0.330801 -0.514573 0.791066
v -12.0416 -11.8668 -31.1805
vn 0.415244 -0.525824 0.742349
v -11.9422 -11.8745 -31.2495
vn 0.495688 -0.532011 0.686482
v -11.8487 -11.8758 -31.3267
vn 0.571358 -0.533075 0.624004
v -11.762 -11.8708 -31.4113
vn 0.641525 -0.529005 0.555517
v -11.6829 -11.8594 -31.5026
vn 0.705515 -0.51984 0.48168
v -11.6123 -11.8419 -31.5995
vn 0.762709 -0.505669 0.403204
v -11.5507 -11.8184 -31.7013
vn 0.812559 -0.486628 0.320845
v -11.4988 -11.7891 -31.8068
vn 0.854583 -0.4629 0.235396
v -11.457 -11.7543 -31.9152
vn 0.888377 -0.434715 0.14768
v -11.4258 -11.7143 -32.0253
vn 0.913615 -0.402343 0.0585416
v -11.4055 -11.6695 -32.1361
vn 0.930055 -0.366096 -0.0311604
v -11.3963 -11.6204 -32.2466
vn 0.937538 -0.326324 -0.120562
v -11.3982 -11.5673 -32.3556
vn 0.935992 -0.283409 -0.208803
v -11.4113 -11.511 -32.4621
vn 0.925432 -0.237764 -0.295033
v -11.4353 -11.4517 -32.5652
vn 0.905959 -0.18983 -0.378422
v -11.4701 -11.3903 -32.6637
vn 0.877761 -0.140067 -0.458166
v -11.5154 -11.3271 -32.7567
vn 0.841111 -0.0889558 -0.533498
v -11.5707 -11.2629 -32.8435
vn 0.796359 -0.0369877 -0.603692
v -11.6355 -11.1983 -32.923
vn 0.743939 0.0153366 -0.668072
v -11.7091 -11.1338 -32.9946
vn 0.684354 0.0675132 -0.726018
v -11.7908 -11.0701 -33.0575
vn 0.618178 0.11904 -0.776972
v -11.88 -11.0079 -33.1112
vn 0.546049 0.16942 -0.820444
v -11.9756 -10.9477 -33.1552
vn 0.468661 0.218168 -0.856014
v -12.0767 -10.8901 -33.189
vn 0.386759 0.264815 -0.88334
v -12.1825 -10.8356 -33.2122
vn 0.301133 0.308912 -0.90216
v -12.2919 -10.7848 -33.2247
vn 0.212607 0.350034 -0.912291
v -12.4038 -10.7381 -33.2264
vn 0.122033 0.387785 -0.913636
v -12.5171 -10.6961 -33.2172
vn 0.0302841 0.421802 -0.906182
v -12.6309 -10.6591 -33.1972
vn -0.0617566 0.451756 -0.890001
v -12.7438 -10.6275 -33.1666
vn -0.153202 0.47736 -0.86525
v -12.855 -10.6015 -33.1257
vn -0.243173 0.498366 -0.832165
v -12.9632 -10.5815 -33.075
vn -0.330801 0.514573 -0.791066
v -13.0676 -10.5676 -33.0148
vn -0.415244 0.525824 -0.742349
v -13.167 -10.5599 -32.9457
vn -0.495688 0.532011 -0.686482
v -13.2604 -10.5586 -32.8686
vn -0.571358 0.533075 -0.624004
v -13.3471 -10.5637 -32.7839
vn -0.641525 0.529005 -0.555517
v -13.4262 -10.575 -32.6927
vn -0.705515 0.51984 -0.48168
v -13.4968 -10.5925 -32.5958
vn -0.762709 0.505669 -0.403204
v -13.5584 -10.616 -32.494
vn -0.812559 0.486628 -0.320845
v -13.6103 -10.6453 -32.3885
vn -0.854583 0.4629 -0.235396
v -13.6521 -10.6802 -32.2801
vn -0.888377 0.434715 -0.14768
v -13.6833 -10.7201 -32.17
vn -0.913615 0.402343 -0.0585416
v -13.7036 -10.7649 -32.0591
vn -0.930055 0.366096 0.0311604
v -13.7128 -10.8141 -31.9487
vn -0.937538 0.326324 0.120562
v -13.7109 -10.8671 -31.8397
vn -0.935992 0.283409 0.208803
v -13.6979 -10.9235 -31.7331
vn -0.925432 0.237764 0.295033
v -13.6738 -10.9827 -31.6301
vn -0.905959 0.18983 0.378422
v -13.639 -11.0442 -31.5316
vn -0.877761 0.140067 0.458166
v -13.5937 -11.1073 -31.4385
vn -0.841111 0.0889558 0.533498
v -13.5384 -11.1715 -31.3518
vn -0.796359 0.0369877 0.603692
v -13.4737 -11.2362 -31.2723
vn -0.743939 -0.0153366 0.668072
v -13.4 -11.3006 -31.2007
vn -0.684354 -0.0675132 0.726018
v -13.3183 -11.3643 -31.1377
vn -0.618178 -0.11904 0.776972
v -13.2292 -11.4265 -31.084
vn -0.546049 -0.16942 0.820444
v -13.1336 -11.4867 -31.0401
vn -0.468661 -0.218168 0.856014
v -13.0324 -11.5444 -31.0063
vn -0.386759 -0.264815 0.88334
v -12.9266 -11.5989 -30.9831
vn -0.301133 -0.308912 0.90216
v -12.8172 -11.6497 -30.9706
vn -0.212607 -0.350034 0.912291
v -12.7053 -11.6963 -30.9689
vn -0.122033 -0.387785 0.913636
v -12.592 -11.7383 -30.9781
vn -0.0302841 -0.421802 0.906182
v -12.4783 -11.7753 -30.9981
vn 0.0617566 -0.451756 0.890001
f 1 66 2 
f 1 65 66 
f 2 67 3 
f 2 66 67 
f 3 68 4 
f 3 67 68 
f 4 69 5 
f 4 68 69 
f 5 70 6 
f 5 69 70 
f 6 71 7 
f 6 70 71 
f 7 72 8 
f 7 71 72 
f 8 73 9 
f 8 72 73 
f 9 74 10 
f 9 73 74 
f 10 75 11 
f 10 74 75 
f 11 76 12 
f 11 75 76 
f 12 77 13 
f 12 76 77 
f 13 78 14 
f 13 77 78 
f 14 79 15 
f 14 78 79 
f 15 80 16 
f 15 79 80 
f 16 81 17 
f 16 80 81 
f 17 82 18 
f 17 81 82 
f 18 83 19 
f 18 82 83 
f 19 84 20 
f 19 83 84 
f 20 85 21 
f 20 84 85 
f 21 86 22 
f 21 85 86 
f 22 87 23 
f 22 86 87 
f 23 88 24 
f 23 87 88 
f 24 89 25 
f 24 88 89 
f 25 90 26 
f 25 89 90 
f 26 91 27 
f 26 90 91 
f 27 92 28 
f 27 91 92 
f 28 93 29 
f 28 92 93 
f 29 94 30 
f 29 93 94 
f 30 95 31 
f 30 94 95 
f 31 96 32 
f 31 95 96 
f 32 97 33 
f 32 96 97 
f 33 98 34 
f 33 97 98 
f 34 99 35 
f 34 98 99 
f 35 100 36 
f 35 99 100 
f 36 101 37 
f 36 100 101 
f 37 102 38 
f 37 101 102 
f 38 103 39 
f 38 102 103 
f 39 104 40 
f 39 103 104 
f 40 105 41 
f 40 104 105 
f 41 106 42 
f 41 105 106 
f 42 107 43 
f 42 106 107 
f 43 108 44 
f 43 107 108 
f 44 109 45 
f 44 108 109 
f 45 110 46 
f 45 109 110 
f 46 111 47 
f 46 110 111 
f 47 112 48 
f 47 111 112 
f 48 113 49 
f 48 112 113 
f 49 114 50 
f 49 113 114 
f 50 115 51 
f 50 114 115 
f 51 116 52 
f 51 115 116 
f 52 117 53 
f 52 116 117 
f 53 118 54 
f 53 117 118 
f 54 119 55 
f 54 118 119 
f 55 120 56 
f 55 119 120 
f 56 121 57 
f 56 120 121 
f 57 122 58 
f 57 121 122 
f 58 123 59 
f 58 122 123 
f 59 124 60 
f 59 123 124 
f 60 125 61 
f 60 124 125 
f 61 126 62 
f 61 125 126 
f 62 127 63 
f 62 126 127 
f 63 128 64 
f 63 127 128 
f 64 65 1 
f 64 128 65 
f 65 130 66 
f 65 129 130 
f 66 131 67 
f 66 130 131 
f 67 132 68 
f 67 131 132 
f 68 133 69 
f 68 132 133 
f 69 134 70 
f 69 133 134 
f 70 135 71 
f 70 134 135 
f 71 136 72 
f 71 135 136 
f 72 137 73 
f 72 136 137 
f 73 138 74 
f 73 137 138 
f 74 139 75 
f 74 138 139 
f 75 140 76 
f 75 139 140 
f 76 141 77 
f 76 140 141 
f 77 142 78 
f 77 141 142 
f 78 143 79 
f 78 142 143 
f 79 144 80 
f 79 143 144 
f 80 145 81 
f 80 144 145 
f 81 146 82 
f 81 145 146 
f 82 147 83 
f 82 146 147 
f 83 148 84 
f 83 147 148 
f 84 149 85 
f 84 148 149 
f 85 150 86 
f 85 149 150 
f 86 151 87 
f 86 150 151 
f 87 152 88 
f 87 151 152 
f 88 153 89 
f 88 152 153 
f 89 154 90 
f 89 153 154 
f 90 155 91 
f 90 154 155 
f 91 156 92 
f 91 155 156 
f 92 157 93 
f 92 156 157 
f 93 158 94 
f 93 157 158 
f 94 159 95 
f 94 158 159 
f 95 160 96 
f 95 159 160 
f 96 161 97 
f 96 160 161 
f 97 162 98 
f 97 161 162 
f 98 163 99 
f 98 162 163 
f 99 164 100 
f 99 163 164 
f 100 165 101 
f 100 164 165 
f 101 166 102 
f 101 165 166 
f 102 167 103 
f 102 166 167 
f 103 168 104 
f 103 167 168 
f 104 169 105 
f 104 168 169 
f 105 170 106 
f 105 169 170 
f 106 171 107 
f 106 170 171 
f 107 172 108 
f 107 171 172 
f 108 173 109 
f 108 172 173 
f 109 174 110 
f 109 173 174 
f 110 175 111 
f 110 174 175 
f 111 176 112 
f 111 175 176 
f 112 177 113 
f 112 176 177 
f 113 178 114 
f 113 177 178 
f 114 179 115 
f 114 178 179 
f 115 180 116 
f 115 179 180 
f 116 181 117 
f 116 180 181 
f 117 182 118 
f 117 181 182 
f 118 183 119 
f 118 182 183 
f 119 184 120 
f 119 183 184 
f 120 185 121 
f 120 184 185 
f 121 186 122 
f 121 185 186 
f 122 187 123 
f 122 186 187 
f 123 188 124 
f 123 187 188 
f 124 189 125 
f 124 188 189 
f 125 190 126 
f 125 189 190 
f 126 191 127 
f 126 190 191 
f 127 192 128 
f 127 191 192 
f 128 129 65 
f 128 192 129 
f 129 194 130 
f 129 193 194 
f 130 195 131 
f 130 194 195 
f 131 196 132 
f 131 195 196 
f 132 197 133 
f 132 196 197 
f 133 198 134 
f 133 197 198 
f 134 199 135 
f 134 198 199 
f 135 200 136 
f 135 199 200 
f 136 201 137 
f 136 200 201 
f 137 202 138 
f 137 201 202 
f 138 203 139 
f 138 202 203 
f 139 204 140 
f 139 203 204 
f 140 205 141 
f 140 204 205 
f 141 206 142 
f 141 205 206 
f 142 207 143 
f 142 206 207 
f 143 208 144 
f 143 207 208 
f 144 209 145 
f 144 208 209 
f 145 210 146 
f 145 209 210 
f 146 211 147 
f 146 210 211 
f 147 212 148 
f 147 211 212 
f 148 213 149 
f 148 212 213 
f 149 214 150 
f 149 213 214 
f 150 215 151 
f 150 214 215 
f 151 216 152 
f 151 215 216 
f 152 217 153 
f 152 216 217 
f 153 218 154 
f 153 217 218 
f 154 219 155 
f 154 218 219 
f 155 220 156 
f 155 219 220 
f 156 221 157 
f 156 220 221 
f 157 222 158 
f 157 221 222 
f 158 223 159 
f 158 222 223 
f 159 224 160 
f 159 223 224 
f 160 225 161 
f 160 224 225 
f 161 226 162 
f 161 225 226 
f 162 227 163 
f 162 226 227 
f 163 228 164 
f 163 227 228 
f 164 229 165 
f 164 228 229 
f 165 230 166 
f 165 229 230 
f 166 231 167 
f 166 230 231 
f 167 232 168 
f 167 231 232 
f 168 233 169 
f 168 232 233 
f 169 234 170 
f 169 233 234 
f 170 235 171 
f 170 234 235 
f 171 236 172 
f 171 235 236 
f 172 237 173 
f 172 236 237 
f 173 238 174 
f 173 237 238 
f 174 239 175 
f 174 238 239 
f 175 240 176 
f 175 239 240 
f 176 241 177 
f 176 240 241 
f 177 242 178 
f 177 241 242 
f 178 243 179 
f 178 242 243 
f 179 244 180 
f 179 243 244 
f 180 245 181 
f 180 244 245 
f 181 246 182 
f 181 245 246 
f 182 247 183 
f 182 246 247 
f 183 248 184 
f 183 247 248 
f 184 249 185 
f 184 248 249 
f 185 250 186 
f 185 249 250 
f 186 251 187 
f 186 250 251 
f 187 252 188 
f 187 251 252 
f 188 253 189 
f 188 252 253 
f 189 254 190 
f 189 253 254 
f 190 255 191 
f 190 254 255 
f 191 256 192 
f 191 255 256 
f 192 193 129 
f 192 256 193 
f 193 258 194 
f 193 257 258 
f 194 259 195 
f 194 258 259 
f 195 260 196 
f 195 259 260 
f 196 261 197 
f 196 260 261 
f 197 262 198 
f 197 261 262 
f 198 263 199 
f 198 262 263 
f 199 264 200 
f 199 263 264 
f 200 265 201 
f 200 264 265 
f 201 266 202 
f 201 265 266 
f 202 267 203 
f 202 266 267 
f 203 268 204 
f 203 267 268 
f 204 269 205 
f 204 268 269 
f 205 270 206 
f 205 269 270 
f 206 271 207 
f 206 270 271 
f 207 272 208 
f 207 271 272 
f 208 273 209 
f 208 272 273 
f 209 274 210 
f 209 273 274 
f 210 275 211 
f 210 274 275 
f 211 276 212 
f 211 275 276 
f 212 277 213 
f 212 276 277 
f 213 278 214 
f 213 277 278 
f 214 279 215 
f 214 278 279 
f 215 280 216 
f 215 279 280 
f 216 281 217 
f 216 280 281 
f 217 282 218 
f 217 281 282 
f 218 283 219 
f 218 282 283 
f 219 284 220 
f 219 283 284 
f 220 285 221 
f 220 284 285 
f 221 286 222 
f 221 285 286 
f 222 287 223 
f 222 286 287 
f 223 288 224 
f 223 287 288 
f 224 289 225 
f 224 288 289 
f 225 290 226 
f 225 289 290 
f 226 291 227 
f 226 290 291 
f 227 292 228 
f 227 291 292 
f 228 293 229 
f 228 292 293 
f 229 294 230 
f 229 293 294 
f 230 295 231 
f 230 294 295 
f 231 296 232 
f 231 295 296 
f 232 297 233 
f 232 296 297 
f 233 298 234 
f 233 297 298 
f 234 299 235 
f 234 298 299 
f 235 300 236 
f 235 299 300 
f 236 301 237 
f 236 300 301 
f 237 302 238 
f 237 301 302 
f 238 303 239 
f 238 302 303 
f 239 304 240 
f 239 303 304 
f 240 305 241 
f 240 304 305 
f 241 306 242 
f 241 305 306 
f 242 307 243 
f 242 306 307 
f 243 308 244 
f 243 307 308 
f 244 309 245 
f 244 308 309 
f 245 310 246 
f 245 309 310 
f 246 311 247 
f 246 310 311 
f 247 312 248 
f 247 311 312 
f 248 313 249 
f 248 312 313 
f 249 314 250 
f 249 313 314 
f 250 315 251 
f 250 314 315 
f 251 316 252 
f 251 315 316 
f 252 317 253 
f 252 316 317 
f 253 318 254 
f 253 317 318 
f 254 319 255 
f 254 318 319 
f 255 320 256 
f 255 319 320 
f 256 257 193 
f 256 320 257 
f 257 322 258 
f 257 321 322 
f 258 323 259 
f 258 322 323 
f 259 324 260 
f 259 323 324 
f 260 325 261 
f 260 324 325 
f 261 326 262 
f 261 325 326 
f 262 327 263 
f 262 326 327 
f 263 328 264 
f 263 327 328 
f 264 329 265 
f 264 328 329 
f 265 330 266 
f 265 329 330 
f 266 331 267 
f 266 330 331 
f 267 332 268 
f 267 331 332 
f 268 333 269 
f 268 332 333 
f 269 334 270 
f 269 333 334 
f 270 335 271 
f 270 334 335 
f 271 336 272 
f 271 335 336 
f 272 337 273 
f 272 336 337 
f 273 338 274 
f 273 337 338 
f 274 339 275 
f 274 338 339 
f 275 340 276 
f 275 339 340 
f 276 341 277 
f 276 340 341 
f 277 342 278 
f 277 341 342 
f 278 343 279 
f 278 342 343 
f 279 344 280 
f 279 343 344 
f 280 345 281 
f 280 344 345 
f 281 346 282 
f 281 345 346 
f 282 347 283 
f 282 346 347 
f 283 348 284 
f 283 347 348 
f 284 349 285 
f 284 348 349 
f 285 350 286 
f 285 349 350 
f 286 351 287 
f 286 350 351 
f 287 352 288 
f 287 351 352 
f 288 353 289 
f 288 352 353 
f 289 354 290 
f 289 353 354 
f 290 355 291 
f 290 354 355 
f 291 356 292 
f 291 355 356 
f 292 357 293 
f 292 356 357 
f 293 358 294 
f 293 357 358 
f 294 359 295 
f 294 358 359 
f 295 360 296 
f 295 359 360 
f 296 361 297 
f 296 360 361 
f 297 362 298 
f 297 361 362 
f 298 363 299 
f 298 362 363 
f 299 364 300 
f 299 363 364 
f 300 365 301 
f 300 364 365 
f 301 366 302 
f 301 365 366 
f 302 367 303 
f 302 366 367 
f 303 368 304 
f 303 367 368 
f 304 369 305 
f 304 368 369 
f 305 370 306 
f 305 369 370 
f 306 371 307 
f 306 370 371 
f 307 372 308 
f 307 371 372 
f 308 373 309 
f 308 372 373 
f 309 374 310 
f 309 373 374 
f 310 375 311 
f 310 374 375 
f 311 376 312 
f 311 375 376 
f 312 377 313 
f 312 376 377 
f 313 378 314 
f 313 377 378 
f 314 379 315 
f 314 378 379 
f 315 380 316 
f 315 379 380 
f 316 381 317 
f 316 380 381 
f 317 382 318 
f 317 381 382 
f 318 383 319 
f 318 382 383 
f 319 384 320 
f 319 383 384 
f 320 321 257 
f 320 384 321 
f 321 386 322 
f 321 385 386 
f 322 387 323 
f 322 386 387 
f 323 388 324 
f 323 387 388 
f 324 389 325 
f 324 388 389 
f 325 390 326 
f 325 389 390 
f 326 391 327 
f 326 390 391 
f 327 392 328 
f 327 391 392 
f 328 393 329 
f 328 392 393 
f 329 394 330 
f 329 393 394 
f 330 395 331 
f 330 394 395 
f 331 396 332 
f 331 395 396 
f 332 397 333 
f 332 396 397 
f 333 398 334 
f 333 397 398 
f 334 399 335 
f 334 398 399 
f 335 400 336 
f 335 399 400 
f 336 401 337 
f 336 400 401 
f 337 402 338 
f 337 401 402 
f 338 403 339 
f 338 402 403 
f 339 404 340 
f 339 403 404 
f 340 405 341 
f 340 404 405 
f 341 406 342 
f 341 405 406 
f 342 407 343 
f 342 406 407 
f 343 408 344 
f 343 407 408 
f 344 409 345 
f 344 408 409 
f 345 410 346 
f 345 409 410 
f 346 411 347 
f 346 410 411 
f 347 412 348 
f 347 411 412 
f 348 413 349 
f 348 412 413 
f 349 414 350 
f 349 413 414 
f 350 415 351 
f 350 414 415 
f 351 416 352 
f 351 415 416 
f 352 417 353 
f 352 416 417 
f 353 418 354 
f 353 417 418 
f 354 419 355 
f 354 418 419 
f 355 420 356 
f 355 419 420 
f 356 421 357 
f 356 420 421 
f 357 422 358 
f 357 421 422 
f 358 423 359 
f 358 422 423 
f 359 424 360 
f 359 423 424 
f 360 425 361 
f 360 424 425 
f 361 426 362 
f 361 425 426 
f 362 427 363 
f 362 426 427 
f 363 428 364 
f 363 427 428 
f 364 429 365 
f 364 428 429 
f 365 430 366 
f 365 429 430 
f 366 431 367 
f 366 430 431 
f 367 432 368 
f 367 431 432 
f 368 433 369 
f 368 432 433 
f 369 434 370 
f 369 433 434 
f 370 435 371 
f 370 434 435 
f 371 436 372 
f 371 435 436 
f 372 437 373 
f 372 436 437 
f 373 438 374 
f 373 437 438 
f 374 439 375 
f 374 438 439 
f 375 440 376 
f 375 439 440 
f 376 441 377 
f 376 440 441 
f 377 442 378 
f 377 441 442 
f 378 443 379 
f 378 442 443 
f 379 444 380 
f 379 443 444 
f 380 445 381 
f 380 444 445 
f 381 446 382 
f 381 445 446 
f 382 447 383 
f 382 446 447 
f 383 448 384 
f 383 447 448 
f 384 385 321 
f 384 448 385 
f 385 450 386 
f 385 449 450 
f 386 451 387 
f 386 450 451 
f 387 452 388 
f 387 451 452 
f 388 453 389 
f 388 452 453 
f 389 454 390 
f 389 453 454 
f 390 455 391 
f 390 454 455 
f 391 456 392 
f 391 455 456 
f 392 457 393 
f 392 456 457 
f 393 458 394 
f 393 457 458 
f 394 459 395 
f 394 458 459 
f 395 460 396 
f 395 459 460 
f 396 461 397 
f 396 460 461 
f 397 462 398 
f 397 461 462 
f 398 463 399 
f 398 462 463 
f 399 464 400 
f 399 463 464 
f 400 465 401 
f 400 464 465 
f 401 466 402 
f 401 465 466 
f 402 467 403 
f 402 466 467 
f 403 468 404 
f 403 467 468 
f 404 469 405 
f 404 468 469 
f 405 470 406 
f 405 469 470 
f 406 471 407 
f 406 470 471 
f 407 472 408 
f 407 471 472 
f 408 473 409 
f 408 472 473 
f 409 474 410 
f 409 473 474 
f 410 475 411 
f 410 474 475 
f 411 476 412 
f 411 475 476 
f 412 477 413 
f 412 476 477 
f 413 478 414 
f 413 477 478 
f 414 479 415 
f 414 478 479 
f 415 480 416 
f 415 479 480 
f 416 481 417 
f 416 480 481 
f 417 482 418 
f 417 481 482 
f 418 483 419 
f 418 482 483 
f 419 484 420 
f 419 483 484 
f 420 485 421 
f 420 484 485 
f 421 486 422 
f 421 485 486 
f 422 487 423 
f 422 486 487 
f 423 488 424 
f 423 487 488 
f 424 489 425 
f 424 488 489 
f 425 490 426 
f 425 489 490 
f 426 491 427 
f 426 490 491 
f 427 492 428 
f 427 491 492 
f 428 493 429 
f 428 492 493 
f 429 494 430 
f 429 493 494 
f 430 495 431 
f 430 494 495 
f 431 496 432 
f 431 495 496 
f 432 497 433 
f 432 496 497 
f 433 498 434 
f 433 497 498 
f 434 499 435 
f 434 498 499 
f 435 500 436 
f 435 499 500 
f 436 501 437 
f 436 500 501 
f 437 502 438 
f 437 501 502 
f 438 503 439 
f 438 502 503 
f 439 504 440 
f 439 503 504 
f 440 505 441 
f 440 504 505 
f 441 506 442 
f 441 505 506 
f 442 507 443 
f 442 506 507 
f 443 508 444 
f 443 507 508 
f 444 509 445 
f 444 508 509 
f 445 510 446 
f 445 509 510 
f 446 511 447 
f 446 510 511 
f 447 512 448 
f 447 511 512 
f 448 449 385 
f 448 512 449 
f 449 514 450 
f 449 513 514 
f 450 515 451 
f 450 514 515 
f 451 516 452 
f 451 515 516 
f 452 517 453 
f 452 516 517 
f 453 518 454 
f 453 517 518 
f 454 519 455 
f 454 518 519 
f 455 520 456 
f 455 519 520 
f 456 521 457 
f 456 520 521 
f 457 522 458 
f 457 521 522 
f 458 523 459 
f 458 522 523 
f 459 524 460 
f 459 523 524 
f 460 525 461 
f 460 524 525 
f 461 526 462 
f 461 525 526 
f 462 527 463 
f 462 526 527 
f 463 528 464 
f 463 527 528 
f 464 529 465 
f 464 528 529 
f 465 530 466 
f 465 529 530 
f 466 531 467 
f 466 530 531 
f 467 532 468 
f 467 531 532 
f 468 533 469 
f 468 532 533 
f 469 534 470 
f 469 533 534 
f 470 535 471 
f 470 534 535 
f 471 536 472 
f 471 535 536 
f 472 537 473 
f 472 536 537 
f 473 538 474 
f 473 537 538 
f 474 539 475 
f 474 538 539 
f 475 540 476 
f 475 539 540 
f 476 541 477 
f 476 540 541 
f 477 542 478 
f 477 541 542 
f 478 543 479 
f 478 542 543 
f 479 544 480 
f 479 543 544 
f 480 545 481 
f 480 544 545 
f 481 546 482 
f 481 545 546 
f 482 547 483 
f 482 546 547 
f 483 548 484 
f 483 547 548 
f 484 549 485 
f 484 548 549 
f 485 550 486 
f 485 549 550 
f 486 551 487 
f 486 550 551 
f 487 552 488 
f 487 551 552 
f 488 553 489 
f 488 552 553 
f 489 554 490 
f 489 553 554 
f 490 555 491 
f 490 554 555 
f 491 556 492 
f 491 555 556 
f 492 557 493 
f 492 556 557 
f 493 558 494 
f 493 557 558 
f 494 559 495 
f 494 558 559 
f 495 560 496 
f 495 559 560 
f 496 561 497 
f 496 560 561 
f 497 562 498 
f 497 561 562 
f 498 563 499 
f 498 562 563 
f 499 564 500 
f 499 563 564 
f 500 565 501 
f 500 564 565 
f 501 566 502 
f 501 565 566 
f 502 567 503 
f 502 566 567 
f 503 568 504 
f 503 567 568 
f 504 569 505 
f 504 568 569 
f 505 570 506 
f 505 569 570 
f 506 571 507 
f 506 570 571 
f 507 572 508 
f 507 571 572 
f 508 573 509 
f 508 572 573 
f 509 574 510 
f 509 573 574 
f 510 575 511 
f 510 574 575 
f 511 576 512 
f 511 575 576 
f 512 513 449 
f 512 576 513 
f 513 578 514 
f 513 577 578 
f 514 579 515 
f 514 578 579 
f 515 580 516 
f 515 579 580 
f 516 581 517 
f 516 580 581 
f 517 582 518 
f 517 581 582 
f 518 583 519 
f 518 582 583 
f 519 584 520 
f 519 583 584 
f 520 585 521 
f 520 584 585 
f 521 586 522 
f 521 585 586 
f 522 587 523 
f 522 586 587 
f 523 588 524 
f 523 587 588 
f 524 589 525 
f 524 588 589 
f 525 590 526 
f 525 589 590 
f 526 591 527 
f 526 590 591 
f 527 592 528 
f 527 591 592 
f 528 593 529 
f 528 592 593 
f 529 594 530 
f 529 593 594 
f 530 595 531 
f 530 594 595 
f 531 596 532 
f 531 595 596 
f 532 597 533 
f 532 596 597 
f 533 598 534 
f 533 597 598 
f 534 599 535 
f 534 598 599 
f 535 600 536 
f 535 599 600 
f 536 601 537 
f 536 600 601 
f 537 602 538 
f 537 601 602 
f 538 603 539 
f 538 602 603 
f 539 604 540 
f 539 603 604 
f 540 605 541 
f 540 604 605 
f 541 606 542 
f 541 605 606 
f 542 607 543 
f 542 606 607 
f 543 608 544 
f 543 607 608 
f 544 609 545 
f 544 608 609 
f 545 610 546 
f 545 609 610 
f 546 611 547 
f 546 610 611 
f 547 612 548 
f 547 611 612 
f 548 613 549 
f 548 612 613 
f 549 614 550 
f 549 613 614 
f 550 615 551 
f 550 614 615 
f 551 616 552 
f 551 615 616 
f 552 617 553 
f 552 616 617 
f 553 618 554 
f 553 617 618 
f 554 619 555 
f 554 618 619 
f 555 620 556 
f 555 619 620 
f 556 621 557 
f 556 620 621 
f 557 622 558 
f 557 621 622 
f 558 623 559 
f 558 622 623 
f 559 624 560 
f 559 623 624 
f 560 625 561 
f 560 624 625 
f 561 626 562 
f 561 625 626 
f 562 627 563 
f 562 626 627 
f 563 628 564 
f 563 627 628 
f 564 629 565 
f 564 628 629 
f 565 630 566 
f 565 629 630 
f 566 631 567 
f 566 630 631 
f 567 632 568 
f 567 631 632 
f 568 633 569 
f 568 632 633 
f 569 634 570 
f 569 633 634 
f 570 635 571 
f 570 634 635 
f 571 636 572 
f 571 635 636 
f 572 637 573 
f 572 636 637 
f 573 638 574 
f 573 637 638 
f 574 639 575 
f 574 638 639 
f 575 640 576 
f 575 639 640 
f 576 577 513 
f 576 640 577 
