# Branch
v -2.07338 9.16432 -27.936
vn 0.307085 0.327871 -0.89342
v -2.09255 9.16598 -27.9408
vn 0.212327 0.336032 -0.917605
v -2.11213 9.16697 -27.944
vn 0.115524 0.340958 -0.932953
v -2.13194 9.1673 -27.9452
vn 0.0176093 0.3426 -0.939316
v -2.15179 9.16697 -27.9447
vn -0.0804754 0.340942 -0.936633
v -2.17148 9.16597 -27.9423
vn -0.177785 0.336001 -0.92493
v -2.19082 9.16431 -27.9382
vn -0.273382 0.327824 -0.904319
v -2.20963 9.16202 -27.9322
vn -0.366347 0.31649 -0.874999
v -2.22772 9.15911 -27.9246
vn -0.455784 0.302108 -0.837253
v -2.24493 9.15561 -27.9153
vn -0.540831 0.284816 -0.791443
v -2.26108 9.15156 -27.9045
vn -0.620669 0.264782 -0.738011
v -2.27602 9.14699 -27.8923
vn -0.694531 0.242197 -0.677472
v -2.28961 9.14195 -27.8787
vn -0.761703 0.217281 -0.610408
v -2.30172 9.13648 -27.8639
vn -0.82154 0.190271 -0.537465
v -2.31223 9.13065 -27.8481
vn -0.873465 0.161429 -0.459347
v -2.32103 9.1245 -27.8314
vn -0.916978 0.131033 -0.376805
v -2.32805 9.11809 -27.814
vn -0.95166 0.0993742 -0.290634
v -2.33321 9.1115 -27.796
vn -0.977177 0.0667587 -0.201664
v -2.33647 9.10477 -27.7776
vn -0.993283 0.0335003 -0.110752
v -2.33779 9.09797 -27.759
vn -0.999824 -8.07005e-05 -0.0187731
v -2.33717 9.09118 -27.7403
vn -0.996735 -0.0336609 0.0733864
v -2.3346 9.08445 -27.7218
vn -0.984048 -0.066917 0.164839
v -2.33012 9.07785 -27.7037
vn -0.961883 -0.0995286 0.254704
v -2.32376 9.07145 -27.686
vn -0.930456 -0.131182 0.342117
v -2.31559 9.0653 -27.669
vn -0.890067 -0.161572 0.426234
v -2.30568 9.05947 -27.6528
vn -0.841106 -0.190405 0.506247
v -2.29414 9.054 -27.6376
vn -0.784045 -0.217405 0.581384
v -2.28106 9.04896 -27.6235
vn -0.719434 -0.242312 0.650922
v -2.26659 9.0444 -27.6107
vn -0.647894 -0.264884 0.714192
v -2.25085 9.04035 -27.5993
vn -0.570114 -0.284906 0.770583
v -2.234 9.03685 -27.5894
vn -0.486844 -0.302184 0.819554
v -2.21621 9.03394 -27.5811
vn -0.398885 -0.316552 0.860631
v -2.19764 9.03165 -27.5744
vn -0.307085 -0.327871 0.89342
v -2.17846 9.03 -27.5695
vn -0.212327 -0.336032 0.917605
v -2.15888 9.02901 -27.5664
vn -0.115524 -0.340958 0.932953
v -2.13907 9.02867 -27.5652
vn -0.0176093 -0.3426 0.939316
v -2.11922 9.02901 -27.5657
vn 0.0804754 -0.340942 0.936633
v -2.09954 9.03001 -27.5681
vn 0.177785 -0.336001 0.92493
v -2.08019 9.03166 -27.5722
vn 0.273382 -0.327824 0.904319
v -2.06139 9.03396 -27.5782
vn 0.366347 -0.31649 0.874999
v -2.04329 9.03687 -27.5858
vn 0.455784 -0.302108 0.837253
v -2.02608 9.04036 -27.5951
vn 0.540831 -0.284816 0.791443
v -2.00993 9.04442 -27.6059
vn 0.620669 -0.264782 0.738011
v -1.99499 9.04899 -27.6181
vn 0.694531 -0.242197 0.677472
v -1.9814 9.05403 -27.6317
vn 0.761703 -0.217281 0.610408
v -1.96929 9.05949 -27.6465
vn 0.82154 -0.190271 0.537465
v -1.95878 9.06533 -27.6623
vn 0.873465 -0.161429 0.459347
v -1.94998 9.07148 -27.679
vn 0.916978 -0.131033 0.376805
v -1.94296 9.07788 -27.6964
vn 0.95166 -0.0993742 0.290634
v -1.9378 9.08448 -27.7144
vn 0.977177 -0.0667587 0.201664
v -1.93454 9.09121 -27.7328
vn 0.993283 -0.0335003 0.110752
v -1.93322 9.09801 -27.7514
vn 0.999824 8.07005e-05 0.0187731
v -1.93384 9.1048 -27.77
vn 0.996735 0.0336609 -0.0733864
v -1.93641 9.11153 -27.7885
vn 0.984048 0.066917 -0.164839
v -1.9409 9.11813 -27.8067
vn 0.961883 0.0995286 -0.254704
v -1.94725 9.12453 -27.8244
vn 0.930456 0.131182 -0.342117
v -1.95543 9.13068 -27.8414
vn 0.890067 0.161572 -0.426234
v -1.96533 9.13651 -27.8576
vn 0.841106 0.190405 -0.506247
v -1.97688 9.14197 -27.8728
vn 0.784045 0.217405 -0.581384
v -1.98995 9.14701 -27.8869
vn 0.719434 0.242312 -0.650922
v -2.00442 9.15158 -27.8997
vn 0.647894 0.264884 -0.714192
v -2.02016 9.15563 -27.9111
vn 0.570114 0.284906 -0.770583
v -2.03701 9.15913 -27.921
vn 0.486844 0.302184 -0.819554
v -2.0548 9.16203 -27.9293
vn 0.398885 0.316552 -0.860631
v -2.06717 7.16329 -28.6405
vn 0.307146 0.301416 -0.902668
v -2.08681 7.16501 -28.6455
vn 0.212388 0.309705 -0.926808
v -2.10688 7.16611 -28.6486
vn 0.115585 0.315011 -0.942023
v -2.12718 7.16658 -28.6499
vn 0.0176684 0.317284 -0.948166
v -2.14752 7.16642 -28.6493
vn -0.0804183 0.316501 -0.945177
v -2.16769 7.16562 -28.6468
vn -0.177731 0.31267 -0.933086
v -2.18751 7.1642 -28.6424
vn -0.273331 0.305828 -0.912009
v -2.20679 7.16218 -28.6362
vn -0.366299 0.29604 -0.882148
v -2.22533 7.15955 -28.6283
vn -0.45574 0.283402 -0.843792
v -2.24296 7.15637 -28.6186
vn -0.540792 0.268034 -0.79731
v -2.25952 7.15265 -28.6074
vn -0.620635 0.250084 -0.743149
v -2.27483 7.14843 -28.5947
vn -0.694501 0.229727 -0.681831
v -2.28876 7.14375 -28.5806
vn -0.761679 0.207157 -0.613947
v -2.30116 7.13866 -28.5653
vn -0.821522 0.182592 -0.54015
v -2.31193 7.1332 -28.5489
vn -0.873453 0.156268 -0.461151
v -2.32095 7.12743 -28.5316
vn -0.916972 0.12844 -0.377711
v -2.32814 7.1214 -28.5136
vn -0.95166 0.0993742 -0.290634
v -2.33343 7.11518 -28.495
vn -0.977183 0.0693517 -0.200757
v -2.33677 7.10882 -28.4759
vn -0.993295 0.0386614 -0.108948
v -2.33813 7.10238 -28.4567
vn -0.999842 0.00759869 -0.0160886
v -2.33749 7.09592 -28.4374
vn -0.996759 -0.0235372 0.0769254
v -2.33486 7.08951 -28.4183
vn -0.984077 -0.0544464 0.169199
v -2.33027 7.08321 -28.3995
vn -0.961918 -0.0848312 0.259842
v -2.32376 7.07708 -28.3812
vn -0.930495 -0.114399 0.347983
v -2.31538 7.07118 -28.3636
vn -0.89011 -0.142865 0.432773
v -2.30523 7.06557 -28.3469
vn -0.841154 -0.169956 0.513396
v -2.2934 7.06029 -28.3312
vn -0.784097 -0.195409 0.589073
v -2.28001 7.0554 -28.3167
vn -0.719488 -0.218981 0.659078
v -2.26518 7.05095 -28.3035
vn -0.647951 -0.240443 0.722736
v -2.24905 7.04698 -28.2917
vn -0.570173 -0.25959 0.779433
v -2.23179 7.04353 -28.2815
vn -0.486904 -0.276238 0.828624
v -2.21356 7.04063 -28.273
vn -0.398946 -0.290224 0.869834
v -2.19452 7.03831 -28.2662
vn -0.307146 -0.301416 0.902668
v -2.17488 7.03659 -28.2612
vn -0.212388 -0.309705 0.926808
v -2.15481 7.03549 -28.258
vn -0.115585 -0.315011 0.942023
v -2.13451 7.03502 -28.2568
vn -0.0176684 -0.317284 0.948166
v -2.11417 7.03518 -28.2574
vn 0.0804183 -0.316501 0.945177
v -2.094 7.03598 -28.2599
vn 0.177731 -0.31267 0.933086
v -2.07418 7.0374 -28.2643
vn 0.273331 -0.305828 0.912009
v -2.05491 7.03943 -28.2704
vn 0.366299 -0.29604 0.882148
v -2.03636 7.04205 -28.2784
vn 0.45574 -0.283402 0.843792
v -2.01873 7.04523 -28.288
vn 0.540792 -0.268034 0.79731
v -2.00218 7.04895 -28.2993
vn 0.620635 -0.250084 0.743149
v -1.98686 7.05317 -28.312
vn 0.694501 -0.229727 0.681831
v -1.97294 7.05785 -28.3261
vn 0.761679 -0.207157 0.613947
v -1.96053 7.06295 -28.3414
vn 0.821522 -0.182592 0.54015
v -1.94976 7.0684 -28.3577
vn 0.873453 -0.156268 0.461151
v -1.94074 7.07417 -28.375
vn 0.916972 -0.12844 0.377711
v -1.93355 7.0802 -28.3931
vn 0.95166 -0.0993742 0.290634
v -1.92826 7.08642 -28.4117
vn 0.977183 -0.0693517 0.200757
v -1.92492 7.09279 -28.4307
vn 0.993295 -0.0386614 0.108948
v -1.92356 7.09923 -28.45
vn 0.999842 -0.00759869 0.0160886
v -1.9242 7.10568 -28.4693
vn 0.996759 0.0235372 -0.0769254
v -1.92683 7.11209 -28.4884
vn 0.984077 0.0544464 -0.169199
v -1.93142 7.11839 -28.5072
vn 0.961918 0.0848312 -0.259842
v -1.93794 7.12452 -28.5255
vn 0.930495 0.114399 -0.347983
v -1.94631 7.13042 -28.5431
vn 0.89011 0.142865 -0.432773
v -1.95646 7.13604 -28.5598
vn 0.841154 0.169956 -0.513396
v -1.96829 7.14131 -28.5755
vn 0.784097 0.195409 -0.589073
v -1.98168 7.1462 -28.59
vn 0.719488 0.218981 -0.659078
v -1.99651 7.15065 -28.6032
vn 0.647951 0.240443 -0.722736
v -2.01264 7.15462 -28.6149
vn 0.570173 0.25959 -0.779433
v -2.0299 7.15807 -28.6251
vn 0.486904 0.276238 -0.828624
v -2.04814 7.16097 -28.6337
vn 0.398946 0.290224 -0.869834
v -2.07922 5.14193 -29.2922
vn 0.306968 0.274782 -0.911189
v -2.09934 5.14372 -29.2973
vn 0.21221 0.283199 -0.935289
v -2.11989 5.14493 -29.3005
vn 0.11541 0.288889 -0.950381
v -2.14068 5.14555 -29.3017
vn 0.0174973 0.291797 -0.95632
v -2.16151 5.14557 -29.301
vn -0.0805835 0.291894 -0.95305
v -2.18216 5.14499 -29.2984
vn -0.177888 0.289181 -0.940601
v -2.20246 5.14382 -29.2938
vn -0.27348 0.283682 -0.919094
v -2.2222 5.14208 -29.2874
vn -0.366438 0.275452 -0.888735
v -2.24118 5.13977 -29.2791
vn -0.455866 0.264568 -0.849817
v -2.25924 5.13691 -29.2691
vn -0.540905 0.251137 -0.802715
v -2.27619 5.13355 -29.2575
vn -0.620734 0.235287 -0.747883
v -2.29187 5.1297 -29.2443
vn -0.694586 0.217172 -0.685848
v -2.30613 5.12541 -29.2297
vn -0.761748 0.196964 -0.617208
v -2.31883 5.12072 -29.2139
vn -0.821574 0.17486 -0.542624
v -2.32985 5.11567 -29.197
vn -0.873488 0.151072 -0.462814
v -2.33909 5.11031 -29.1791
vn -0.916989 0.125829 -0.378547
v -2.34645 5.10469 -29.1604
vn -0.95166 0.0993742 -0.290634
v -2.35186 5.09887 -29.1411
vn -0.977166 0.0719623 -0.199922
v -2.35528 5.0929 -29.1215
vn -0.99326 0.0438574 -0.107285
v -2.35667 5.08685 -29.1016
vn -0.99979 0.0153301 -0.013615
v -2.35601 5.08076 -29.0817
vn -0.996691 -0.0133448 0.0801863
v -2.35331 5.0747 -29.0619
vn -0.983993 -0.0418912 0.173215
v -2.34861 5.06872 -29.0425
vn -0.961818 -0.0700342 0.264576
v -2.34193 5.06289 -29.0237
vn -0.930381 -0.0975027 0.353389
v -2.33335 5.05726 -29.0055
vn -0.889984 -0.124032 0.438799
v -2.32296 5.05188 -28.9883
vn -0.841016 -0.149367 0.519983
v -2.31084 5.04681 -28.9721
vn -0.783948 -0.173264 0.596159
v -2.29712 5.04209 -28.9572
vn -0.719331 -0.195492 0.666593
v -2.28193 5.03777 -28.9436
vn -0.647786 -0.215837 0.730608
v -2.26542 5.03389 -28.9315
vn -0.570002 -0.234103 0.787587
v -2.24774 5.03049 -28.921
vn -0.486729 -0.250115 0.836981
v -2.22906 5.0276 -28.9122
vn -0.398768 -0.263719 0.878314
v -2.20957 5.02525 -28.9052
vn -0.306968 -0.274782 0.911189
v -2.18945 5.02347 -28.9001
vn -0.21221 -0.283199 0.935289
v -2.1689 5.02226 -28.8969
vn -0.11541 -0.288889 0.950381
v -2.14811 5.02164 -28.8957
vn -0.0174973 -0.291797 0.95632
v -2.12729 5.02162 -28.8963
vn 0.0805835 -0.291894 0.95305
v -2.10663 5.0222 -28.899
vn 0.177888 -0.289181 0.940601
v -2.08633 5.02336 -28.9036
vn 0.27348 -0.283682 0.919094
v -2.0666 5.02511 -28.91
vn 0.366438 -0.275452 0.888735
v -2.04761 5.02742 -28.9183
vn 0.455866 -0.264568 0.849817
v -2.02955 5.03027 -28.9283
vn 0.540905 -0.251137 0.802715
v -2.0126 5.03364 -28.9399
vn 0.620734 -0.235287 0.747883
v -1.99692 5.03748 -28.9531
vn 0.694586 -0.217172 0.685848
v -1.98267 5.04177 -28.9677
vn 0.761748 -0.196964 0.617208
v -1.96996 5.04647 -28.9835
vn 0.821574 -0.17486 0.542624
v -1.95894 5.05152 -29.0004
vn 0.873488 -0.151072 0.462814
v -1.9497 5.05688 -29.0183
vn 0.916989 -0.125829 0.378547
v -1.94234 5.06249 -29.037
vn 0.95166 -0.0993742 0.290634
v -1.93693 5.06831 -29.0562
vn 0.977166 -0.0719623 0.199922
v -1.93351 5.07428 -29.0759
vn 0.99326 -0.0438574 0.107285
v -1.93213 5.08034 -29.0958
vn 0.99979 -0.0153301 0.013615
v -1.93278 5.08643 -29.1157
vn 0.996691 0.0133448 -0.0801863
v -1.93548 5.09249 -29.1355
vn 0.983993 0.0418912 -0.173215
v -1.94019 5.09846 -29.1549
vn 0.961818 0.0700342 -0.264576
v -1.94686 5.10429 -29.1737
vn 0.930381 0.0975027 -0.353389
v -1.95544 5.10993 -29.1919
vn 0.889984 0.124032 -0.438799
v -1.96584 5.11531 -29.2091
vn 0.841016 0.149367 -0.519983
v -1.97795 5.12038 -29.2253
vn 0.783948 0.173264 -0.596159
v -1.99167 5.1251 -29.2402
vn 0.719331 0.195492 -0.666593
v -2.00686 5.12942 -29.2538
vn 0.647786 0.215837 -0.730608
v -2.02338 5.1333 -29.2659
vn 0.570002 0.234103 -0.787587
v -2.04106 5.1367 -29.2764
vn 0.486729 0.250115 -0.836981
v -2.05973 5.13958 -29.2852
vn 0.398768 0.263719 -0.878314
v -2.10954 3.10027 -29.891
vn 0.306551 0.248033 -0.91897
v -2.13013 3.10212 -29.8962
vn 0.211796 0.256579 -0.943032
v -2.15117 3.10344 -29.8995
vn 0.115001 0.262654 -0.958012
v -2.17244 3.10422 -29.9007
vn 0.0170984 0.266199 -0.963766
v -2.19375 3.10443 -29.8999
vn -0.0809686 0.267181 -0.960239
v -2.21489 3.10408 -29.8972
vn -0.178256 0.26559 -0.947463
v -2.23566 3.10318 -29.8924
vn -0.273826 0.261441 -0.925563
v -2.25586 3.10173 -29.8857
vn -0.36676 0.254774 -0.89475
v -2.27529 3.09975 -29.8771
vn -0.456161 0.245654 -0.855319
v -2.29376 3.09725 -29.8668
vn -0.541169 0.234168 -0.807652
v -2.3111 3.09427 -29.8547
vn -0.620966 0.220426 -0.752206
v -2.32714 3.09082 -29.8411
vn -0.694782 0.204562 -0.689516
v -2.34173 3.08695 -29.826
vn -0.761907 0.186728 -0.620185
v -2.35472 3.08268 -29.8097
vn -0.821695 0.167095 -0.544882
v -2.36599 3.07806 -29.7922
vn -0.873569 0.145854 -0.464332
v -2.37544 3.07314 -29.7737
vn -0.91703 0.123207 -0.379309
v -2.38296 3.06796 -29.7544
vn -0.95166 0.0993742 -0.290634
v -2.3885 3.06257 -29.7346
vn -0.977125 0.0745842 -0.19916
v -2.39199 3.05703 -29.7143
vn -0.993179 0.0490759 -0.105767
v -2.3934 3.05139 -29.6937
vn -0.999669 0.023095 -0.0113563
v -2.39272 3.04569 -29.6732
vn -0.996531 -0.00310829 0.083164
v -2.38995 3.04 -29.6528
vn -0.983796 -0.0292817 0.176883
v -2.38512 3.03438 -29.6328
vn -0.961587 -0.0551731 0.268899
v -2.37828 3.02887 -29.6134
vn -0.930117 -0.0805331 0.358326
v -2.3695 3.02352 -29.5947
vn -0.889689 -0.105118 0.444301
v -2.35885 3.0184 -29.577
vn -0.840694 -0.12869 0.525997
v -2.34644 3.01355 -29.5603
vn -0.783601 -0.151022 0.602628
v -2.3324 3.00901 -29.5449
vn -0.718963 -0.171901 0.673456
v -2.31684 3.00483 -29.5309
vn -0.6474 -0.191124 0.737797
v -2.29994 3.00106 -29.5185
vn -0.569603 -0.208506 0.795033
v -2.28184 2.99771 -29.5077
vn -0.48632 -0.22388 0.844613
v -2.26272 2.99484 -29.4987
vn -0.398354 -0.237098 0.886058
v -2.24277 2.99247 -29.4916
vn -0.306551 -0.248033 0.91897
v -2.22218 2.99061 -29.4863
vn -0.211796 -0.256579 0.943032
v -2.20115 2.98929 -29.4831
vn -0.115001 -0.262654 0.958012
v -2.17987 2.98852 -29.4818
vn -0.0170984 -0.266199 0.963766
v -2.15856 2.9883 -29.4826
vn 0.0809686 -0.267181 0.960239
v -2.13742 2.98865 -29.4854
vn 0.178256 -0.26559 0.947463
v -2.11665 2.98955 -29.4901
vn 0.273826 -0.261441 0.925563
v -2.09645 2.991 -29.4968
vn 0.36676 -0.254774 0.89475
v -2.07703 2.99298 -29.5054
vn 0.456161 -0.245654 0.855319
v -2.05855 2.99548 -29.5158
vn 0.541169 -0.234168 0.807652
v -2.04121 2.99847 -29.5278
vn 0.620966 -0.220426 0.752206
v -2.02517 3.00191 -29.5414
vn 0.694782 -0.204562 0.689516
v -2.01058 3.00579 -29.5565
vn 0.761907 -0.186728 0.620185
v -1.99759 3.01005 -29.5729
vn 0.821695 -0.167095 0.544882
v -1.98632 3.01467 -29.5904
vn 0.873569 -0.145854 0.464332
v -1.97687 3.01959 -29.6088
vn 0.91703 -0.123207 0.379309
v -1.96935 3.02477 -29.6281
vn 0.95166 -0.0993742 0.290634
v -1.96381 3.03016 -29.648
vn 0.977125 -0.0745842 0.19916
v -1.96033 3.0357 -29.6683
vn 0.993179 -0.0490759 0.105767
v -1.95892 3.04135 -29.6888
vn 0.999669 -0.023095 0.0113563
v -1.9596 3.04704 -29.7093
vn 0.996531 0.00310829 -0.083164
v -1.96236 3.05273 -29.7297
vn 0.983796 0.0292817 -0.176883
v -1.96719 3.05836 -29.7497
vn 0.961587 0.0551731 -0.268899
v -1.97403 3.06387 -29.7691
vn 0.930117 0.0805331 -0.358326
v -1.98282 3.06921 -29.7878
vn 0.889689 0.105118 -0.444301
v -1.99346 3.07433 -29.8056
vn 0.840694 0.12869 -0.525997
v -2.00587 3.07919 -29.8222
vn 0.783601 0.151022 -0.602628
v -2.01992 3.08372 -29.8376
vn 0.718963 0.171901 -0.673456
v -2.03547 3.0879 -29.8516
vn 0.6474 0.191124 -0.737797
v -2.05237 3.09168 -29.864
vn 0.569603 0.208506 -0.795033
v -2.07047 3.09502 -29.8748
vn 0.48632 0.22388 -0.844613
v -2.08959 3.09789 -29.8838
vn 0.398354 0.237098 -0.886058
v -2.15812 1.0383 -30.4369
vn 0.3059 0.221233 -0.926003
v -2.17919 1.04023 -30.4423
vn 0.211148 0.229908 -0.950031
v -2.2007 1.04167 -30.4456
vn 0.114362 0.236369 -0.96491
v -2.22246 1.0426 -30.4468
vn 0.0164756 0.240553 -0.970496
v -2.24426 1.04301 -30.446
vn -0.0815699 0.242421 -0.966736
v -2.26588 1.04291 -30.4431
vn -0.17883 0.241954 -0.953666
v -2.28712 1.04229 -30.4381
vn -0.274368 0.239157 -0.931411
v -2.30777 1.04115 -30.4312
vn -0.367263 0.234057 -0.900186
v -2.32764 1.03952 -30.4223
vn -0.456621 0.226703 -0.860292
v -2.34652 1.0374 -30.4116
vn -0.541582 0.217166 -0.812113
v -2.36425 1.03481 -30.3992
vn -0.621328 0.205537 -0.756113
v -2.38065 1.03179 -30.3851
vn -0.695089 0.191929 -0.692831
v -2.39556 1.02835 -30.3695
vn -0.762156 0.176472 -0.622877
v -2.40884 1.02454 -30.3527
vn -0.821884 0.159316 -0.546924
v -2.42036 1.02038 -30.3346
vn -0.873696 0.140625 -0.465704
v -2.43 1.01593 -30.3155
vn -0.917094 0.12058 -0.379999
v -2.43769 1.01121 -30.2957
vn -0.95166 0.0993742 -0.290634
v -2.44334 1.00629 -30.2752
vn -0.977061 0.0772111 -0.19847
v -2.44689 1.00119 -30.2543
vn -0.993052 0.0543044 -0.104395
v -2.44832 0.995985 -30.2331
vn -0.99948 0.0308748 -0.00931482
v -2.44761 0.990711 -30.212
vn -0.996282 0.00714776 0.0858553
v -2.44477 0.985421 -30.191
vn -0.983489 -0.0166481 0.180199
v -2.43982 0.980166 -30.1704
vn -0.961225 -0.0402836 0.272806
v -2.43281 0.974998 -30.1504
vn -0.929704 -0.0635311 0.362787
v -2.42381 0.969966 -30.1312
vn -0.889229 -0.0861669 0.449274
v -2.41291 0.965118 -30.1129
vn -0.84019 -0.107973 0.531434
v -2.40021 0.960502 -30.0958
vn -0.78306 -0.128739 0.608476
v -2.38583 0.956161 -30.08
vn -0.718389 -0.148265 0.679658
v -2.36992 0.952137 -30.0656
vn -0.646799 -0.166363 0.744294
v -2.35262 0.94847 -30.0528
vn -0.56898 -0.18286 0.801763
v -2.3341 0.945194 -30.0418
vn -0.485682 -0.197595 0.85151
v -2.31454 0.942342 -30.0325
vn -0.397706 -0.210427 0.893057
v -2.29413 0.939939 -30.0252
vn -0.3059 -0.221233 0.926003
v -2.27307 0.938011 -30.0199
vn -0.211148 -0.229908 0.950031
v -2.25155 0.936575 -30.0166
vn -0.114362 -0.236369 0.96491
v -2.22979 0.935644 -30.0153
vn -0.0164756 -0.240553 0.970496
v -2.20799 0.935229 -30.0162
vn 0.0815699 -0.242421 0.966736
v -2.18637 0.935333 -30.0191
vn 0.17883 -0.241954 0.953666
v -2.16513 0.935955 -30.024
vn 0.274368 -0.239157 0.931411
v -2.14448 0.937088 -30.0309
vn 0.367263 -0.234057 0.900186
v -2.12461 0.938723 -30.0398
vn 0.456621 -0.226703 0.860292
v -2.10573 0.940844 -30.0505
vn 0.541582 -0.217166 0.812113
v -2.088 0.943429 -30.063
vn 0.621328 -0.205537 0.756113
v -2.0716 0.946454 -30.077
vn 0.695089 -0.191929 0.692831
v -2.05669 0.94989 -30.0926
vn 0.762156 -0.176472 0.622877
v -2.04341 0.953704 -30.1095
vn 0.821884 -0.159316 0.546924
v -2.03189 0.957859 -30.1275
vn 0.873696 -0.140625 0.465704
v -2.02225 0.962315 -30.1466
vn 0.917094 -0.12058 0.379999
v -2.01456 0.96703 -30.1665
vn 0.95166 -0.0993742 0.290634
v -2.00892 0.971957 -30.1869
vn 0.977061 -0.0772111 0.19847
v -2.00536 0.977049 -30.2079
vn 0.993052 -0.0543044 0.104395
v -2.00393 0.982258 -30.229
vn 0.99948 -0.0308748 0.00931482
v -2.00464 0.987533 -30.2502
vn 0.996282 -0.00714776 -0.0858553
v -2.00749 0.992823 -30.2711
vn 0.983489 0.0166481 -0.180199
v -2.01244 0.998077 -30.2917
vn 0.961225 0.0402836 -0.272806
v -2.01944 1.00325 -30.3117
vn 0.929704 0.0635311 -0.362787
v -2.02844 1.00828 -30.3309
vn 0.889229 0.0861669 -0.449274
v -2.03934 1.01313 -30.3492
vn 0.84019 0.107973 -0.531434
v -2.05204 1.01774 -30.3663
vn 0.78306 0.128739 -0.608476
v -2.06642 1.02208 -30.3822
vn 0.718389 0.148265 -0.679658
v -2.08234 1.02611 -30.3965
vn 0.646799 0.166363 -0.744294
v -2.09964 1.02977 -30.4093
vn 0.56898 0.18286 -0.801763
v -2.11815 1.03305 -30.4204
vn 0.485682 0.197595 -0.85151
v -2.13771 1.0359 -30.4296
vn 0.397706 0.210427 -0.893057
v -2.22497 -1.04394 -30.93
vn 0.305021 0.194445 -0.932284
v -2.24651 -1.04194 -30.9355
vn 0.210273 0.203249 -0.956282
v -2.26851 -1.04039 -30.9388
vn 0.1135 0.210095 -0.97107
v -2.29075 -1.03929 -30.94
vn 0.0156344 0.214919 -0.976507
v -2.31303 -1.03866 -30.9391
vn -0.082382 0.217672 -0.972539
v -2.33513 -1.03851 -30.9361
vn -0.179605 0.218329 -0.959205
v -2.35684 -1.03884 -30.931
vn -0.275098 0.216884 -0.936633
v -2.37794 -1.03965 -30.9238
vn -0.367942 0.21335 -0.905042
v -2.39824 -1.04092 -30.9146
vn -0.457243 0.207761 -0.864734
v -2.41754 -1.04264 -30.9036
vn -0.54214 0.200172 -0.816098
v -2.43565 -1.04481 -30.8907
vn -0.621816 0.190654 -0.759603
v -2.4524 -1.04739 -30.8762
vn -0.695503 0.179301 -0.695792
v -2.46762 -1.05036 -30.8602
vn -0.762493 0.16622 -0.62528
v -2.48118 -1.0537 -30.8428
vn -0.822139 0.151539 -0.548747
v -2.49294 -1.05737 -30.8242
vn -0.873867 0.135399 -0.466929
v -2.50279 -1.06133 -30.8046
vn -0.91718 0.117955 -0.380614
v -2.51062 -1.06555 -30.7841
vn -0.95166 0.0993742 -0.290634
v -2.51638 -1.07 -30.7631
vn -0.976975 0.0798368 -0.197855
v -2.51999 -1.07461 -30.7415
vn -0.992881 0.0595305 -0.10317
v -2.52144 -1.07936 -30.7198
vn -0.999225 0.0386509 -0.0074915
v -2.52069 -1.08419 -30.698
vn -0.995946 0.0173991 0.088259
v -2.51776 -1.08906 -30.6764
vn -0.983075 -0.0040203 0.183159
v -2.51269 -1.09392 -30.6553
vn -0.960737 -0.025401 0.276296
v -2.50551 -1.09872 -30.6347
vn -0.929146 -0.046537 0.366772
v -2.49629 -1.10342 -30.615
vn -0.888608 -0.0672249 0.453715
v -2.48513 -1.10798 -30.5962
vn -0.839511 -0.0872653 0.536289
v -2.47213 -1.11234 -30.5786
vn -0.78233 -0.106465 0.613698
v -2.45742 -1.11647 -30.5623
vn -0.717614 -0.12464 0.685197
v -2.44114 -1.12033 -30.5476
vn -0.645987 -0.141614 0.750097
v -2.42345 -1.12388 -30.5345
vn -0.568139 -0.157225 0.807774
v -2.40451 -1.12709 -30.5231
vn -0.48482 -0.171321 0.857671
v -2.38451 -1.12991 -30.5137
vn -0.396831 -0.183768 0.899308
v -2.36364 -1.13234 -30.5062
vn -0.305021 -0.194445 0.932284
v -2.3421 -1.13434 -30.5007
vn -0.210273 -0.203249 0.956282
v -2.3201 -1.1359 -30.4974
vn -0.1135 -0.210095 0.97107
v -2.29786 -1.13699 -30.4961
vn -0.0156344 -0.214919 0.976507
v -2.27558 -1.13762 -30.497
vn 0.082382 -0.217672 0.972539
v -2.25348 -1.13777 -30.5
vn 0.179605 -0.218329 0.959205
v -2.23177 -1.13744 -30.5052
vn 0.275098 -0.216884 0.936633
v -2.21067 -1.13664 -30.5124
vn 0.367942 -0.21335 0.905042
v -2.19037 -1.13537 -30.5215
vn 0.457243 -0.207761 0.864734
v -2.17107 -1.13364 -30.5326
vn 0.54214 -0.200172 0.816098
v -2.15296 -1.13148 -30.5454
vn 0.621816 -0.190654 0.759603
v -2.13621 -1.1289 -30.5599
vn 0.695503 -0.179301 0.695792
v -2.12099 -1.12593 -30.576
vn 0.762493 -0.16622 0.62528
v -2.10743 -1.12259 -30.5933
vn 0.822139 -0.151539 0.548747
v -2.09567 -1.11892 -30.6119
vn 0.873867 -0.135399 0.466929
v -2.08582 -1.11495 -30.6316
vn 0.91718 -0.117955 0.380614
v -2.07799 -1.11073 -30.652
vn 0.95166 -0.0993742 0.290634
v -2.07223 -1.10629 -30.6731
vn 0.976975 -0.0798368 0.197855
v -2.06862 -1.10167 -30.6946
vn 0.992881 -0.0595305 0.10317
v -2.06717 -1.09693 -30.7164
vn 0.999225 -0.0386509 0.0074915
v -2.06792 -1.0921 -30.7381
vn 0.995946 -0.0173991 -0.088259
v -2.07085 -1.08723 -30.7597
vn 0.983075 0.0040203 -0.183159
v -2.07592 -1.08237 -30.7809
vn 0.960737 0.025401 -0.276296
v -2.0831 -1.07756 -30.8015
vn 0.929146 0.046537 -0.366772
v -2.09232 -1.07286 -30.8212
vn 0.888608 0.0672249 -0.453715
v -2.10348 -1.06831 -30.84
vn 0.839511 0.0872653 -0.536289
v -2.11648 -1.06394 -30.8576
vn 0.78233 0.106465 -0.613698
v -2.13119 -1.05981 -30.8738
vn 0.717614 0.12464 -0.685197
v -2.14747 -1.05595 -30.8886
vn 0.645987 0.141614 -0.750097
v -2.16516 -1.0524 -30.9017
vn 0.568139 0.157225 -0.807774
v -2.1841 -1.0492 -30.913
vn 0.48482 0.171321 -0.857671
v -2.2041 -1.04637 -30.9225
vn 0.396831 0.183768 -0.899308
v -2.31009 -3.14646 -31.3702
vn 0.303921 0.167731 -0.937816
v -2.3321 -3.14439 -31.3757
vn 0.209178 0.176664 -0.961787
v -2.35458 -3.14271 -31.3792
vn 0.112421 0.183895 -0.976496
v -2.37731 -3.14144 -31.3804
vn 0.0145817 0.189355 -0.9818
v -2.40007 -3.14059 -31.3794
vn -0.0833984 0.192992 -0.97765
v -2.42264 -3.14018 -31.3763
vn -0.180575 0.19477 -0.964084
v -2.44481 -3.1402 -31.371
vn -0.276013 0.194673 -0.941233
v -2.46637 -3.14066 -31.3636
vn -0.368793 0.1927 -0.909318
v -2.48709 -3.14155 -31.3541
vn -0.458021 0.188872 -0.868645
v -2.5068 -3.14286 -31.3427
vn -0.542838 0.183225 -0.819607
v -2.52529 -3.14458 -31.3295
vn -0.622427 0.175813 -0.762676
v -2.54238 -3.1467 -31.3146
vn -0.696022 0.166708 -0.6984
v -2.55792 -3.14919 -31.2981
vn -0.762914 0.155998 -0.627397
v -2.57175 -3.15202 -31.2802
vn -0.822458 0.143785 -0.550353
v -2.58375 -3.15518 -31.261
vn -0.874082 0.130187 -0.468008
v -2.59378 -3.15863 -31.2409
vn -0.917288 0.115336 -0.381156
v -2.60177 -3.16234 -31.2198
vn -0.95166 0.0993742 -0.290634
v -2.60762 -3.16627 -31.1982
vn -0.976867 0.0824552 -0.197312
v -2.61129 -3.17039 -31.176
vn -0.992666 0.0647421 -0.102091
v -2.61274 -3.17465 -31.1537
vn -0.998905 0.0464054 -0.00588572
v -2.61196 -3.17901 -31.1313
vn -0.995525 0.0276219 0.0903759
v -2.60895 -3.18343 -31.1092
vn -0.982556 0.00857237 0.185767
v -2.60374 -3.18788 -31.0874
vn -0.960126 -0.0105597 0.279369
v -2.59638 -3.1923 -31.0663
vn -0.928448 -0.0295901 0.370281
v -2.58694 -3.19665 -31.046
vn -0.88783 -0.0483356 0.457627
v -2.57552 -3.2009 -31.0267
vn -0.838661 -0.0666155 0.540565
v -2.56222 -3.205 -31.0087
vn -0.781415 -0.0842539 0.618298
v -2.54717 -3.20891 -30.992
vn -0.716644 -0.101081 0.690076
v -2.53052 -3.21259 -30.9769
vn -0.644971 -0.116934 0.755208
v -2.51243 -3.21601 -30.9634
vn -0.567086 -0.131662 0.813067
v -2.49307 -3.21914 -30.9518
vn -0.483741 -0.145121 0.863096
v -2.47263 -3.22194 -30.9421
vn -0.395736 -0.157183 0.904813
v -2.4513 -3.22439 -30.9345
vn -0.303921 -0.167731 0.937816
v -2.42929 -3.22647 -30.9289
vn -0.209178 -0.176664 0.961787
v -2.40681 -3.22815 -30.9255
vn -0.112421 -0.183895 0.976496
v -2.38408 -3.22941 -30.9242
vn -0.0145817 -0.189355 0.9818
v -2.36132 -3.23026 -30.9252
vn 0.0833984 -0.192992 0.97765
v -2.33875 -3.23067 -30.9284
vn 0.180575 -0.19477 0.964084
v -2.31658 -3.23065 -30.9337
vn 0.276013 -0.194673 0.941233
v -2.29502 -3.23019 -30.9411
vn 0.368793 -0.1927 0.909318
v -2.27429 -3.2293 -30.9505
vn 0.458021 -0.188872 0.868645
v -2.25459 -3.22799 -30.9619
vn 0.542838 -0.183225 0.819607
v -2.2361 -3.22627 -30.9751
vn 0.622427 -0.175813 0.762676
v -2.21901 -3.22415 -30.9901
vn 0.696022 -0.166708 0.6984
v -2.20347 -3.22166 -31.0066
vn 0.762914 -0.155998 0.627397
v -2.18963 -3.21883 -31.0245
vn 0.822458 -0.143785 0.550353
v -2.17764 -3.21567 -31.0436
vn 0.874082 -0.130187 0.468008
v -2.1676 -3.21222 -31.0638
vn 0.917288 -0.115336 0.381156
v -2.15962 -3.20851 -31.0848
vn 0.95166 -0.0993742 0.290634
v -2.15376 -3.20458 -31.1065
vn 0.976867 -0.0824552 0.197312
v -2.15009 -3.20047 -31.1286
vn 0.992666 -0.0647421 0.102091
v -2.14864 -3.19621 -31.1509
vn 0.998905 -0.0464054 0.00588572
v -2.14943 -3.19184 -31.1733
vn 0.995525 -0.0276219 -0.0903759
v -2.15244 -3.18742 -31.1955
vn 0.982556 -0.00857237 -0.185767
v -2.15765 -3.18297 -31.2172
vn 0.960126 0.0105597 -0.279369
v -2.16501 -3.17855 -31.2383
vn 0.928448 0.0295901 -0.370281
v -2.17445 -3.1742 -31.2586
vn 0.88783 0.0483356 -0.457627
v -2.18587 -3.16995 -31.2779
vn 0.838661 0.0666155 -0.540565
v -2.19917 -3.16585 -31.2959
vn 0.781415 0.0842539 -0.618298
v -2.21421 -3.16194 -31.3126
vn 0.716644 0.101081 -0.690076
v -2.23086 -3.15826 -31.3278
vn 0.644971 0.116934 -0.755208
v -2.24896 -3.15484 -31.3412
vn 0.567086 0.131662 -0.813067
v -2.26832 -3.15171 -31.3528
vn 0.483741 0.145121 -0.863096
v -2.28876 -3.14891 -31.3625
vn 0.395736 0.157183 -0.904813
v -2.41348 -5.26923 -31.7574
vn 0.302608 0.141152 -0.942605
v -2.43596 -5.26708 -31.7631
vn 0.207872 0.150213 -0.966553
v -2.45892 -5.26528 -31.7666
vn 0.111134 0.157827 -0.981193
v -2.48213 -5.26383 -31.7678
vn 0.0133254 0.163921 -0.986383
v -2.50537 -5.26276 -31.7668
vn -0.0846112 0.168436 -0.982074
v -2.52842 -5.26207 -31.7635
vn -0.181733 0.17133 -0.968307
v -2.55105 -5.26178 -31.7581
vn -0.277105 0.172573 -0.945215
v -2.57305 -5.26188 -31.7504
vn -0.369808 0.172154 -0.91302
v -2.5942 -5.26237 -31.7407
vn -0.458949 0.170078 -0.872032
v -2.61431 -5.26325 -31.729
vn -0.543671 0.166363 -0.822645
v -2.63317 -5.26451 -31.7154
vn -0.623156 0.161047 -0.765337
v -2.65061 -5.26614 -31.7
vn -0.696641 0.154179 -0.700657
v -2.66645 -5.26812 -31.6831
vn -0.763416 0.145826 -0.62923
v -2.68055 -5.27044 -31.6647
vn -0.822839 0.136069 -0.551743
v -2.69277 -5.27306 -31.645
vn -0.874338 0.125002 -0.468943
v -2.703 -5.27598 -31.6243
vn -0.917417 0.112731 -0.381626
v -2.71112 -5.27915 -31.6027
vn -0.95166 0.0993742 -0.290634
v -2.71707 -5.28254 -31.5805
vn -0.976738 0.0850604 -0.196843
v -2.72079 -5.28613 -31.5578
vn -0.99241 0.0699273 -0.101156
v -2.72224 -5.28988 -31.5348
vn -0.998524 0.0541209 -0.00449545
v -2.72141 -5.29376 -31.5119
vn -0.995022 0.0377932 0.0922087
v -2.71831 -5.29772 -31.4891
vn -0.981938 0.0211016 0.188025
v -2.71296 -5.30173 -31.4668
vn -0.959396 0.00420674 0.28203
v -2.70542 -5.30575 -31.4452
vn -0.927616 -0.0127286 0.373319
v -2.69576 -5.30974 -31.4244
vn -0.886901 -0.0295414 0.461013
v -2.68407 -5.31366 -31.4046
vn -0.837646 -0.0460697 0.544267
v -2.67046 -5.31748 -31.3861
vn -0.780323 -0.0621543 0.62228
v -2.65508 -5.32115 -31.369
vn -0.715486 -0.0776403 0.6943
v -2.63806 -5.32465 -31.3535
vn -0.643758 -0.0923786 0.759633
v -2.61956 -5.32794 -31.3397
vn -0.56583 -0.106227 0.81765
v -2.59978 -5.33098 -31.3278
vn -0.482453 -0.119053 0.867793
v -2.57889 -5.33375 -31.3179
vn -0.39443 -0.130732 0.909579
v -2.5571 -5.33622 -31.3101
vn -0.302608 -0.141152 0.942605
v -2.53462 -5.33837 -31.3044
vn -0.207872 -0.150213 0.966553
v -2.51167 -5.34018 -31.3009
vn -0.111134 -0.157827 0.981193
v -2.48846 -5.34163 -31.2997
vn -0.0133254 -0.163921 0.986383
v -2.46521 -5.3427 -31.3007
vn 0.0846112 -0.168436 0.982074
v -2.44217 -5.34338 -31.304
vn 0.181733 -0.17133 0.968307
v -2.41954 -5.34368 -31.3095
vn 0.277105 -0.172573 0.945215
v -2.39754 -5.34358 -31.3171
vn 0.369808 -0.172154 0.91302
v -2.37638 -5.34309 -31.3268
vn 0.458949 -0.170078 0.872032
v -2.35628 -5.34221 -31.3386
vn 0.543671 -0.166363 0.822645
v -2.33742 -5.34094 -31.3522
vn 0.623156 -0.161047 0.765337
v -2.31998 -5.33931 -31.3675
vn 0.696641 -0.154179 0.700657
v -2.30413 -5.33733 -31.3845
vn 0.763416 -0.145826 0.62923
v -2.29003 -5.33502 -31.4028
vn 0.822839 -0.136069 0.551743
v -2.27781 -5.33239 -31.4225
vn 0.874338 -0.125002 0.468943
v -2.26759 -5.32948 -31.4432
vn 0.917417 -0.112731 0.381626
v -2.25946 -5.32631 -31.4648
vn 0.95166 -0.0993742 0.290634
v -2.25351 -5.32291 -31.4871
vn 0.976738 -0.0850604 0.196843
v -2.24979 -5.31932 -31.5098
vn 0.99241 -0.0699273 0.101156
v -2.24834 -5.31557 -31.5327
vn 0.998524 -0.0541209 0.00449545
v -2.24917 -5.3117 -31.5556
vn 0.995022 -0.0377932 -0.0922087
v -2.25228 -5.30773 -31.5784
vn 0.981938 -0.0211016 -0.188025
v -2.25763 -5.30373 -31.6007
vn 0.959396 -0.00420674 -0.28203
v -2.26517 -5.29971 -31.6224
vn 0.927616 0.0127286 -0.373319
v -2.27483 -5.29572 -31.6432
vn 0.886901 0.0295414 -0.461013
v -2.28652 -5.2918 -31.6629
vn 0.837646 0.0460697 -0.544267
v -2.30012 -5.28798 -31.6814
vn 0.780323 0.0621543 -0.62228
v -2.31551 -5.2843 -31.6985
vn 0.715486 0.0776403 -0.6943
v -2.33253 -5.28081 -31.714
vn 0.643758 0.0923786 -0.759633
v -2.35102 -5.27752 -31.7278
vn 0.56583 0.106227 -0.81765
v -2.37081 -5.27448 -31.7397
vn 0.482453 0.119053 -0.867793
v -2.39169 -5.2717 -31.7496
vn 0.39443 0.130732 -0.909579
v -2.53515 -7.41224 -32.0918
vn 0.301092 0.114765 -0.946664
v -2.5581 -7.41001 -32.0976
vn 0.206363 0.123953 -0.970593
v -2.58153 -7.40808 -32.1011
vn 0.109647 0.131947 -0.985174
v -2.60522 -7.40645 -32.1024
vn 0.0118749 0.13867 -0.990267
v -2.62894 -7.40514 -32.1013
vn -0.0860117 0.144058 -0.985824
v -2.65246 -7.40417 -32.0979
vn -0.18307 0.148058 -0.971887
v -2.67555 -7.40355 -32.0923
vn -0.278365 0.150633 -0.94859
v -2.69799 -7.40328 -32.0844
vn -0.370979 0.151757 -0.916157
v -2.71956 -7.40336 -32.0744
vn -0.460021 0.151419 -0.874902
v -2.74006 -7.40379 -32.0624
vn -0.544632 0.149624 -0.82522
v -2.7593 -7.40458 -32.0484
vn -0.623999 0.146387 -0.767592
v -2.77707 -7.40571 -32.0327
vn -0.697355 0.14174 -0.70257
v -2.79322 -7.40716 -32.0153
vn -0.763996 0.135729 -0.630783
v -2.80758 -7.40894 -31.9964
vn -0.823279 0.12841 -0.552921
v -2.82002 -7.41101 -31.9763
vn -0.874634 0.119854 -0.469734
v -2.83043 -7.41336 -31.955
vn -0.917565 0.110145 -0.382024
v -2.83869 -7.41597 -31.9329
vn -0.95166 0.0993742 -0.290634
v -2.84473 -7.41881 -31.91
vn -0.97659 0.0876467 -0.196445
v -2.84849 -7.42186 -31.8868
vn -0.992114 0.0750752 -0.100364
v -2.84994 -7.42508 -31.8632
vn -0.998084 0.0617806 -0.00331726
v -2.84905 -7.42844 -31.8397
vn -0.994442 0.0478911 0.0937619
v -2.84585 -7.43192 -31.8164
vn -0.981223 0.0335403 0.189938
v -2.84036 -7.43548 -31.7936
vn -0.958554 0.0188665 0.284285
v -2.83263 -7.43908 -31.7714
vn -0.926654 0.00401107 0.375894
v -2.82274 -7.44269 -31.75
vn -0.885829 -0.010883 0.463883
v -2.81078 -7.44627 -31.7298
vn -0.836474 -0.0256723 0.547405
v -2.79687 -7.44979 -31.7108
vn -0.779063 -0.0402144 0.625655
v -2.78114 -7.45322 -31.6933
vn -0.714149 -0.0543691 0.697879
v -2.76374 -7.45652 -31.6775
vn -0.642357 -0.0680003 0.763383
v -2.74485 -7.45967 -31.6634
vn -0.564379 -0.0809766 0.821534
v -2.72464 -7.46262 -31.6512
vn -0.480966 -0.093173 0.871774
v -2.70331 -7.46536 -31.6411
vn -0.392921 -0.104472 0.913618
v -2.68106 -7.46786 -31.6331
vn -0.301092 -0.114765 0.946664
v -2.6581 -7.47008 -31.6273
vn -0.206363 -0.123953 0.970593
v -2.63467 -7.47202 -31.6237
vn -0.109647 -0.131947 0.985174
v -2.61098 -7.47365 -31.6225
vn -0.0118749 -0.13867 0.990267
v -2.58726 -7.47495 -31.6236
vn 0.0860117 -0.144058 0.985824
v -2.56374 -7.47592 -31.627
vn 0.18307 -0.148058 0.971887
v -2.54065 -7.47655 -31.6326
vn 0.278365 -0.150633 0.94859
v -2.51821 -7.47682 -31.6405
vn 0.370979 -0.151757 0.916157
v -2.49664 -7.47674 -31.6505
vn 0.460021 -0.151419 0.874902
v -2.47614 -7.4763 -31.6625
vn 0.544632 -0.149624 0.82522
v -2.45691 -7.47552 -31.6765
vn 0.623999 -0.146387 0.767592
v -2.43913 -7.47439 -31.6922
vn 0.697355 -0.14174 0.70257
v -2.42299 -7.47294 -31.7096
vn 0.763996 -0.135729 0.630783
v -2.40862 -7.47116 -31.7285
vn 0.823279 -0.12841 0.552921
v -2.39618 -7.46909 -31.7486
vn 0.874634 -0.119854 0.469734
v -2.38578 -7.46674 -31.7699
vn 0.917565 -0.110145 0.382024
v -2.37752 -7.46413 -31.792
vn 0.95166 -0.0993742 0.290634
v -2.37148 -7.46129 -31.8148
vn 0.97659 -0.0876467 0.196445
v -2.36771 -7.45824 -31.8381
vn 0.992114 -0.0750752 0.100364
v -2.36627 -7.45502 -31.8616
vn 0.998084 -0.0617806 0.00331726
v -2.36715 -7.45165 -31.8852
vn 0.994442 -0.0478911 -0.0937619
v -2.37035 -7.44818 -31.9085
vn 0.981223 -0.0335403 -0.189938
v -2.37585 -7.44462 -31.9313
vn 0.958554 -0.0188665 -0.284285
v -2.38357 -7.44102 -31.9535
vn 0.926654 -0.00401107 -0.375894
v -2.39347 -7.43741 -31.9748
vn 0.885829 0.010883 -0.463883
v -2.40543 -7.43383 -31.9951
vn 0.836474 0.0256723 -0.547405
v -2.41934 -7.4303 -32.014
vn 0.779063 0.0402144 -0.625655
v -2.43506 -7.42687 -32.0315
vn 0.714149 0.0543691 -0.697879
v -2.45246 -7.42357 -32.0474
vn 0.642357 0.0680003 -0.763383
v -2.47135 -7.42043 -32.0615
vn 0.564379 0.0809766 -0.821534
v -2.49156 -7.41747 -32.0737
vn 0.480966 0.093173 -0.871774
v -2.5129 -7.41474 -32.0838
vn 0.392921 0.104472 -0.913618
v -2.67508 -9.57547 -32.3733
vn 0.299384 0.0886245 -0.950008
v -2.69851 -9.57317 -32.3792
vn 0.204663 0.0979381 -0.97392
v -2.72242 -9.5711 -32.3828
vn 0.107971 0.106309 -0.988454
v -2.74659 -9.56928 -32.384
vn 0.01024 0.113655 -0.993467
v -2.77078 -9.56774 -32.3829
vn -0.08759 0.119907 -0.988914
v -2.79476 -9.56648 -32.3794
vn -0.184577 0.125005 -0.974836
v -2.81831 -9.56551 -32.3736
vn -0.279786 0.128898 -0.95137
v -2.84119 -9.56486 -32.3655
vn -0.3723 0.13155 -0.918742
v -2.86318 -9.56451 -32.3553
vn -0.461229 0.132935 -0.877266
v -2.88407 -9.56449 -32.3429
vn -0.545716 0.13304 -0.827342
v -2.90367 -9.56478 -32.3286
vn -0.624948 0.131864 -0.769449
v -2.92177 -9.56538 -32.3125
vn -0.698161 0.129418 -0.704147
v -2.93821 -9.5663 -32.2946
vn -0.76465 0.125725 -0.632063
v -2.95284 -9.56751 -32.2753
vn -0.823775 0.120822 -0.553892
v -2.96549 -9.56901 -32.2547
vn -0.874967 0.114755 -0.470387
v -2.97607 -9.57078 -32.2329
vn -0.917733 0.107582 -0.382351
v -2.98446 -9.57281 -32.2102
vn -0.95166 0.0993742 -0.290634
v -2.99058 -9.57508 -32.1868
vn -0.976422 0.090209 -0.196117
v -2.99438 -9.57756 -32.163
vn -0.991781 0.080175 -0.0997121
v -2.99582 -9.58023 -32.1389
vn -0.997588 0.0693688 -0.00234654
v -2.99488 -9.58307 -32.1148
vn -0.993788 0.0578947 0.0950416
v -2.99157 -9.58605 -32.091
vn -0.980418 0.0458629 0.191514
v -2.98593 -9.58913 -32.0676
vn -0.957605 0.0333895 0.286143
v -2.97801 -9.5923 -32.0448
vn -0.92557 0.0205945 0.378016
v -2.96788 -9.59551 -32.023
vn -0.884621 0.00760118 0.466248
v -2.95565 -9.59874 -32.0023
vn -0.835153 -0.00546534 0.54999
v -2.94143 -9.60196 -31.9829
vn -0.777642 -0.0184792 0.628435
v -2.92535 -9.60513 -31.965
vn -0.712642 -0.0313152 0.700828
v -2.90758 -9.60823 -31.9488
vn -0.640779 -0.0438495 0.766472
v -2.88828 -9.61123 -31.9344
vn -0.562745 -0.0559616 0.824734
v -2.86765 -9.61409 -31.9219
vn -0.479291 -0.0675347 0.875054
v -2.84587 -9.61679 -31.9116
vn -0.391221 -0.0784574 0.916946
v -2.82316 -9.6193 -31.9034
vn -0.299384 -0.0886245 0.950008
v -2.79973 -9.62161 -31.8975
vn -0.204663 -0.0979381 0.97392
v -2.77582 -9.62368 -31.8939
vn -0.107971 -0.106309 0.988454
v -2.75165 -9.62549 -31.8926
vn -0.01024 -0.113655 0.993467
v -2.72746 -9.62704 -31.8938
vn 0.08759 -0.119907 0.988914
v -2.70347 -9.6283 -31.8973
vn 0.184577 -0.125005 0.974836
v -2.67993 -9.62926 -31.9031
vn 0.279786 -0.128898 0.95137
v -2.65705 -9.62992 -31.9111
vn 0.3723 -0.13155 0.918742
v -2.63506 -9.63026 -31.9214
vn 0.461229 -0.132935 0.877266
v -2.61417 -9.63029 -31.9337
vn 0.545716 -0.13304 0.827342
v -2.59457 -9.63 -31.948
vn 0.624948 -0.131864 0.769449
v -2.57647 -9.62939 -31.9642
vn 0.698161 -0.129418 0.704147
v -2.56003 -9.62848 -31.982
vn 0.76465 -0.125725 0.632063
v -2.5454 -9.62727 -32.0014
vn 0.823775 -0.120822 0.553892
v -2.53274 -9.62577 -32.022
vn 0.874967 -0.114755 0.470387
v -2.52217 -9.62399 -32.0438
vn 0.917733 -0.107582 0.382351
v -2.51378 -9.62196 -32.0665
vn 0.95166 -0.0993742 0.290634
v -2.50766 -9.6197 -32.0898
vn 0.976422 -0.090209 0.196117
v -2.50386 -9.61722 -32.1137
vn 0.991781 -0.080175 0.0997121
v -2.50242 -9.61454 -32.1377
vn 0.997588 -0.0693688 0.00234654
v -2.50336 -9.61171 -32.1618
vn 0.993788 -0.0578947 -0.0950416
v -2.50667 -9.60873 -32.1857
vn 0.980418 -0.0458629 -0.191514
v -2.51231 -9.60565 -32.2091
vn 0.957605 -0.0333895 -0.286143
v -2.52023 -9.60248 -32.2318
vn 0.92557 -0.0205945 -0.378016
v -2.53036 -9.59927 -32.2536
vn 0.884621 -0.00760118 -0.466248
v -2.54259 -9.59604 -32.2743
vn 0.835153 0.00546534 -0.54999
v -2.55681 -9.59282 -32.2937
vn 0.777642 0.0184792 -0.628435
v -2.57289 -9.58964 -32.3116
vn 0.712642 0.0313152 -0.700828
v -2.59066 -9.58654 -32.3279
vn 0.640779 0.0438495 -0.766472
v -2.60996 -9.58355 -32.3423
vn 0.562745 0.0559616 -0.824734
v -2.63059 -9.58069 -32.3547
vn 0.479291 0.0675347 -0.875054
v -2.65237 -9.57799 -32.3651
vn 0.391221 0.0784574 -0.916946
f 1 66 2 
f 1 65 66 
f 2 67 3 
f 2 66 67 
f 3 68 4 
f 3 67 68 
f 4 69 5 
f 4 68 69 
f 5 70 6 
f 5 69 70 
f 6 71 7 
f 6 70 71 
f 7 72 8 
f 7 71 72 
f 8 73 9 
f 8 72 73 
f 9 74 10 
f 9 73 74 
f 10 75 11 
f 10 74 75 
f 11 76 12 
f 11 75 76 
f 12 77 13 
f 12 76 77 
f 13 78 14 
f 13 77 78 
f 14 79 15 
f 14 78 79 
f 15 80 16 
f 15 79 80 
f 16 81 17 
f 16 80 81 
f 17 82 18 
f 17 81 82 
f 18 83 19 
f 18 82 83 
f 19 84 20 
f 19 83 84 
f 20 85 21 
f 20 84 85 
f 21 86 22 
f 21 85 86 
f 22 87 23 
f 22 86 87 
f 23 88 24 
f 23 87 88 
f 24 89 25 
f 24 88 89 
f 25 90 26 
f 25 89 90 
f 26 91 27 
f 26 90 91 
f 27 92 28 
f 27 91 92 
f 28 93 29 
f 28 92 93 
f 29 94 30 
f 29 93 94 
f 30 95 31 
f 30 94 95 
f 31 96 32 
f 31 95 96 
f 32 97 33 
f 32 96 97 
f 33 98 34 
f 33 97 98 
f 34 99 35 
f 34 98 99 
f 35 100 36 
f 35 99 100 
f 36 101 37 
f 36 100 101 
f 37 102 38 
f 37 101 102 
f 38 103 39 
f 38 102 103 
f 39 104 40 
f 39 103 104 
f 40 105 41 
f 40 104 105 
f 41 106 42 
f 41 105 106 
f 42 107 43 
f 42 106 107 
f 43 108 44 
f 43 107 108 
f 44 109 45 
f 44 108 109 
f 45 110 46 
f 45 109 110 
f 46 111 47 
f 46 110 111 
f 47 112 48 
f 47 111 112 
f 48 113 49 
f 48 112 113 
f 49 114 50 
f 49 113 114 
f 50 115 51 
f 50 114 115 
f 51 116 52 
f 51 115 116 
f 52 117 53 
f 52 116 117 
f 53 118 54 
f 53 117 118 
f 54 119 55 
f 54 118 119 
f 55 120 56 
f 55 119 120 
f 56 121 57 
f 56 120 121 
f 57 122 58 
f 57 121 122 
f 58 123 59 
f 58 122 123 
f 59 124 60 
f 59 123 124 
f 60 125 61 
f 60 124 125 
f 61 126 62 
f 61 125 126 
f 62 127 63 
f 62 126 127 
f 63 128 64 
f 63 127 128 
f 64 65 1 
f 64 128 65 
f 65 130 66 
f 65 129 130 
f 66 131 67 
f 66 130 131 
f 67 132 68 
f 67 131 132 
f 68 133 69 
f 68 132 133 
f 69 134 70 
f 69 133 134 
f 70 135 71 
f 70 134 135 
f 71 136 72 
f 71 135 136 
f 72 137 73 
f 72 136 137 
f 73 138 74 
f 73 137 138 
f 74 139 75 
f 74 138 139 
f 75 140 76 
f 75 139 140 
f 76 141 77 
f 76 140 141 
f 77 142 78 
f 77 141 142 
f 78 143 79 
f 78 142 143 
f 79 144 80 
f 79 143 144 
f 80 145 81 
f 80 144 145 
f 81 146 82 
f 81 145 146 
f 82 147 83 
f 82 146 147 
f 83 148 84 
f 83 147 148 
f 84 149 85 
f 84 148 149 
f 85 150 86 
f 85 149 150 
f 86 151 87 
f 86 150 151 
f 87 152 88 
f 87 151 152 
f 88 153 89 
f 88 152 153 
f 89 154 90 
f 89 153 154 
f 90 155 91 
f 90 154 155 
f 91 156 92 
f 91 155 156 
f 92 157 93 
f 92 156 157 
f 93 158 94 
f 93 157 158 
f 94 159 95 
f 94 158 159 
f 95 160 96 
f 95 159 160 
f 96 161 97 
f 96 160 161 
f 97 162 98 
f 97 161 162 
f 98 163 99 
f 98 162 163 
f 99 164 100 
f 99 163 164 
f 100 165 101 
f 100 164 165 
f 101 166 102 
f 101 165 166 
f 102 167 103 
f 102 166 167 
f 103 168 104 
f 103 167 168 
f 104 169 105 
f 104 168 169 
f 105 170 106 
f 105 169 170 
f 106 171 107 
f 106 170 171 
f 107 172 108 
f 107 171 172 
f 108 173 109 
f 108 172 173 
f 109 174 110 
f 109 173 174 
f 110 175 111 
f 110 174 175 
f 111 176 112 
f 111 175 176 
f 112 177 113 
f 112 176 177 
f 113 178 114 
f 113 177 178 
f 114 179 115 
f 114 178 179 
f 115 180 116 
f 115 179 180 
f 116 181 117 
f 116 180 181 
f 117 182 118 
f 117 181 182 
f 118 183 119 
f 118 182 183 
f 119 184 120 
f 119 183 184 
f 120 185 121 
f 120 184 185 
f 121 186 122 
f 121 185 186 
f 122 187 123 
f 122 186 187 
f 123 188 124 
f 123 187 188 
f 124 189 125 
f 124 188 189 
f 125 190 126 
f 125 189 190 
f 126 191 127 
f 126 190 191 
f 127 192 128 
f 127 191 192 
f 128 129 65 
f 128 192 129 
f 129 194 130 
f 129 193 194 
f 130 195 131 
f 130 194 195 
f 131 196 132 
f 131 195 196 
f 132 197 133 
f 132 196 197 
f 133 198 134 
f 133 197 198 
f 134 199 135 
f 134 198 199 
f 135 200 136 
f 135 199 200 
f 136 201 137 
f 136 200 201 
f 137 202 138 
f 137 201 202 
f 138 203 139 
f 138 202 203 
f 139 204 140 
f 139 203 204 
f 140 205 141 
f 140 204 205 
f 141 206 142 
f 141 205 206 
f 142 207 143 
f 142 206 207 
f 143 208 144 
f 143 207 208 
f 144 209 145 
f 144 208 209 
f 145 210 146 
f 145 209 210 
f 146 211 147 
f 146 210 211 
f 147 212 148 
f 147 211 212 
f 148 213 149 
f 148 212 213 
f 149 214 150 
f 149 213 214 
f 150 215 151 
f 150 214 215 
f 151 216 152 
f 151 215 216 
f 152 217 153 
f 152 216 217 
f 153 218 154 
f 153 217 218 
f 154 219 155 
f 154 218 219 
f 155 220 156 
f 155 219 220 
f 156 221 157 
f 156 220 221 
f 157 222 158 
f 157 221 222 
f 158 223 159 
f 158 222 223 
f 159 224 160 
f 159 223 224 
f 160 225 161 
f 160 224 225 
f 161 226 162 
f 161 225 226 
f 162 227 163 
f 162 226 227 
f 163 228 164 
f 163 227 228 
f 164 229 165 
f 164 228 229 
f 165 230 166 
f 165 229 230 
f 166 231 167 
f 166 230 231 
f 167 232 168 
f 167 231 232 
f 168 233 169 
f 168 232 233 
f 169 234 170 
f 169 233 234 
f 170 235 171 
f 170 234 235 
f 171 236 172 
f 171 235 236 
f 172 237 173 
f 172 236 237 
f 173 238 174 
f 173 237 238 
f 174 239 175 
f 174 238 239 
f 175 240 176 
f 175 239 240 
f 176 241 177 
f 176 240 241 
f 177 242 178 
f 177 241 242 
f 178 243 179 
f 178 242 243 
f 179 244 180 
f 179 243 244 
f 180 245 181 
f 180 244 245 
f 181 246 182 
f 181 245 246 
f 182 247 183 
f 182 246 247 
f 183 248 184 
f 183 247 248 
f 184 249 185 
f 184 248 249 
f 185 250 186 
f 185 249 250 
f 186 251 187 
f 186 250 251 
f 187 252 188 
f 187 251 252 
f 188 253 189 
f 188 252 253 
f 189 254 190 
f 189 253 254 
f 190 255 191 
f 190 254 255 
f 191 256 192 
f 191 255 256 
f 192 193 129 
f 192 256 193 
f 193 258 194 
f 193 257 258 
f 194 259 195 
f 194 258 259 
f 195 260 196 
f 195 259 260 
f 196 261 197 
f 196 260 261 
f 197 262 198 
f 197 261 262 
f 198 263 199 
f 198 262 263 
f 199 264 200 
f 199 263 264 
f 200 265 201 
f 200 264 265 
f 201 266 202 
f 201 265 266 
f 202 267 203 
f 202 266 267 
f 203 268 204 
f 203 267 268 
f 204 269 205 
f 204 268 269 
f 205 270 206 
f 205 269 270 
f 206 271 207 
f 206 270 271 
f 207 272 208 
f 207 271 272 
f 208 273 209 
f 208 272 273 
f 209 274 210 
f 209 273 274 
f 210 275 211 
f 210 274 275 
f 211 276 212 
f 211 275 276 
f 212 277 213 
f 212 276 277 
f 213 278 214 
f 213 277 278 
f 214 279 215 
f 214 278 279 
f 215 280 216 
f 215 279 280 
f 216 281 217 
f 216 280 281 
f 217 282 218 
f 217 281 282 
f 218 283 219 
f 218 282 283 
f 219 284 220 
f 219 283 284 
f 220 285 221 
f 220 284 285 
f 221 286 222 
f 221 285 286 
f 222 287 223 
f 222 286 287 
f 223 288 224 
f 223 287 288 
f 224 289 225 
f 224 288 289 
f 225 290 226 
f 225 289 290 
f 226 291 227 
f 226 290 291 
f 227 292 228 
f 227 291 292 
f 228 293 229 
f 228 292 293 
f 229 294 230 
f 229 293 294 
f 230 295 231 
f 230 294 295 
f 231 296 232 
f 231 295 296 
f 232 297 233 
f 232 296 297 
f 233 298 234 
f 233 297 298 
f 234 299 235 
f 234 298 299 
f 235 300 236 
f 235 299 300 
f 236 301 237 
f 236 300 301 
f 237 302 238 
f 237 301 302 
f 238 303 239 
f 238 302 303 
f 239 304 240 
f 239 303 304 
f 240 305 241 
f 240 304 305 
f 241 306 242 
f 241 305 306 
f 242 307 243 
f 242 306 307 
f 243 308 244 
f 243 307 308 
f 244 309 245 
f 244 308 309 
f 245 310 246 
f 245 309 310 
f 246 311 247 
f 246 310 311 
f 247 312 248 
f 247 311 312 
f 248 313 249 
f 248 312 313 
f 249 314 250 
f 249 313 314 
f 250 315 251 
f 250 314 315 
f 251 316 252 
f 251 315 316 
f 252 317 253 
f 252 316 317 
f 253 318 254 
f 253 317 318 
f 254 319 255 
f 254 318 319 
f 255 320 256 
f 255 319 320 
f 256 257 193 
f 256 320 257 
f 257 322 258 
f 257 321 322 
f 258 323 259 
f 258 322 323 
f 259 324 260 
f 259 323 324 
f 260 325 261 
f 260 324 325 
f 261 326 262 
f 261 325 326 
f 262 327 263 
f 262 326 327 
f 263 328 264 
f 263 327 328 
f 264 329 265 
f 264 328 329 
f 265 330 266 
f 265 329 330 
f 266 331 267 
f 266 330 331 
f 267 332 268 
f 267 331 332 
f 268 333 269 
f 268 332 333 
f 269 334 270 
f 269 333 334 
f 270 335 271 
f 270 334 335 
f 271 336 272 
f 271 335 336 
f 272 337 273 
f 272 336 337 
f 273 338 274 
f 273 337 338 
f 274 339 275 
f 274 338 339 
f 275 340 276 
f 275 339 340 
f 276 341 277 
f 276 340 341 
f 277 342 278 
f 277 341 342 
f 278 343 279 
f 278 342 343 
f 279 344 280 
f 279 343 344 
f 280 345 281 
f 280 344 345 
f 281 346 282 
f 281 345 346 
f 282 347 283 
f 282 346 347 
f 283 348 284 
f 283 347 348 
f 284 349 285 
f 284 348 349 
f 285 350 286 
f 285 349 350 
f 286 351 287 
f 286 350 351 
f 287 352 288 
f 287 351 352 
f 288 353 289 
f 288 352 353 
f 289 354 290 
f 289 353 354 
f 290 355 291 
f 290 354 355 
f 291 356 292 
f 291 355 356 
f 292 357 293 
f 292 356 357 
f 293 358 294 
f 293 357 358 
f 294 359 295 
f 294 358 359 
f 295 360 296 
f 295 359 360 
f 296 361 297 
f 296 360 361 
f 297 362 298 
f 297 361 362 
f 298 363 299 
f 298 362 363 
f 299 364 300 
f 299 363 364 
f 300 365 301 
f 300 364 365 
f 301 366 302 
f 301 365 366 
f 302 367 303 
f 302 366 367 
f 303 368 304 
f 303 367 368 
f 304 369 305 
f 304 368 369 
f 305 370 306 
f 305 369 370 
f 306 371 307 
f 306 370 371 
f 307 372 308 
f 307 371 372 
f 308 373 309 
f 308 372 373 
f 309 374 310 
f 309 373 374 
f 310 375 311 
f 310 374 375 
f 311 376 312 
f 311 375 376 
f 312 377 313 
f 312 376 377 
f 313 378 314 
f 313 377 378 
f 314 379 315 
f 314 378 379 
f 315 380 316 
f 315 379 380 
f 316 381 317 
f 316 380 381 
f 317 382 318 
f 317 381 382 
f 318 383 319 
f 318 382 383 
f 319 384 320 
f 319 383 384 
f 320 321 257 
f 320 384 321 
f 321 386 322 
f 321 385 386 
f 322 387 323 
f 322 386 387 
f 323 388 324 
f 323 387 388 
f 324 389 325 
f 324 388 389 
f 325 390 326 
f 325 389 390 
f 326 391 327 
f 326 390 391 
f 327 392 328 
f 327 391 392 
f 328 393 329 
f 328 392 393 
f 329 394 330 
f 329 393 394 
f 330 395 331 
f 330 394 395 
f 331 396 332 
f 331 395 396 
f 332 397 333 
f 332 396 397 
f 333 398 334 
f 333 397 398 
f 334 399 335 
f 334 398 399 
f 335 400 336 
f 335 399 400 
f 336 401 337 
f 336 400 401 
f 337 402 338 
f 337 401 402 
f 338 403 339 
f 338 402 403 
f 339 404 340 
f 339 403 404 
f 340 405 341 
f 340 404 405 
f 341 406 342 
f 341 405 406 
f 342 407 343 
f 342 406 407 
f 343 408 344 
f 343 407 408 
f 344 409 345 
f 344 408 409 
f 345 410 346 
f 345 409 410 
f 346 411 347 
f 346 410 411 
f 347 412 348 
f 347 411 412 
f 348 413 349 
f 348 412 413 
f 349 414 350 
f 349 413 414 
f 350 415 351 
f 350 414 415 
f 351 416 352 
f 351 415 416 
f 352 417 353 
f 352 416 417 
f 353 418 354 
f 353 417 418 
f 354 419 355 
f 354 418 419 
f 355 420 356 
f 355 419 420 
f 356 421 357 
f 356 420 421 
f 357 422 358 
f 357 421 422 
f 358 423 359 
f 358 422 423 
f 359 424 360 
f 359 423 424 
f 360 425 361 
f 360 424 425 
f 361 426 362 
f 361 425 426 
f 362 427 363 
f 362 426 427 
f 363 428 364 
f 363 427 428 
f 364 429 365 
f 364 428 429 
f 365 430 366 
f 365 429 430 
f 366 431 367 
f 366 430 431 
f 367 432 368 
f 367 431 432 
f 368 433 369 
f 368 432 433 
f 369 434 370 
f 369 433 434 
f 370 435 371 
f 370 434 435 
f 371 436 372 
f 371 435 436 
f 372 437 373 
f 372 436 437 
f 373 438 374 
f 373 437 438 
f 374 439 375 
f 374 438 439 
f 375 440 376 
f 375 439 440 
f 376 441 377 
f 376 440 441 
f 377 442 378 
f 377 441 442 
f 378 443 379 
f 378 442 443 
f 379 444 380 
f 379 443 444 
f 380 445 381 
f 380 444 445 
f 381 446 382 
f 381 445 446 
f 382 447 383 
f 382 446 447 
f 383 448 384 
f 383 447 448 
f 384 385 321 
f 384 448 385 
f 385 450 386 
f 385 449 450 
f 386 451 387 
f 386 450 451 
f 387 452 388 
f 387 451 452 
f 388 453 389 
f 388 452 453 
f 389 454 390 
f 389 453 454 
f 390 455 391 
f 390 454 455 
f 391 456 392 
f 391 455 456 
f 392 457 393 
f 392 456 457 
f 393 458 394 
f 393 457 458 
f 394 459 395 
f 394 458 459 
f 395 460 396 
f 395 459 460 
f 396 461 397 
f 396 460 461 
f 397 462 398 
f 397 461 462 
f 398 463 399 
f 398 462 463 
f 399 464 400 
f 399 463 464 
f 400 465 401 
f 400 464 465 
f 401 466 402 
f 401 465 466 
f 402 467 403 
f 402 466 467 
f 403 468 404 
f 403 467 468 
f 404 469 405 
f 404 468 469 
f 405 470 406 
f 405 469 470 
f 406 471 407 
f 406 470 471 
f 407 472 408 
f 407 471 472 
f 408 473 409 
f 408 472 473 
f 409 474 410 
f 409 473 474 
f 410 475 411 
f 410 474 475 
f 411 476 412 
f 411 475 476 
f 412 477 413 
f 412 476 477 
f 413 478 414 
f 413 477 478 
f 414 479 415 
f 414 478 479 
f 415 480 416 
f 415 479 480 
f 416 481 417 
f 416 480 481 
f 417 482 418 
f 417 481 482 
f 418 483 419 
f 418 482 483 
f 419 484 420 
f 419 483 484 
f 420 485 421 
f 420 484 485 
f 421 486 422 
f 421 485 486 
f 422 487 423 
f 422 486 487 
f 423 488 424 
f 423 487 488 
f 424 489 425 
f 424 488 489 
f 425 490 426 
f 425 489 490 
f 426 491 427 
f 426 490 491 
f 427 492 428 
f 427 491 492 
f 428 493 429 
f 428 492 493 
f 429 494 430 
f 429 493 494 
f 430 495 431 
f 430 494 495 
f 431 496 432 
f 431 495 496 
f 432 497 433 
f 432 496 497 
f 433 498 434 
f 433 497 498 
f 434 499 435 
f 434 498 499 
f 435 500 436 
f 435 499 500 
f 436 501 437 
f 436 500 501 
f 437 502 438 
f 437 501 502 
f 438 503 439 
f 438 502 503 
f 439 504 440 
f 439 503 504 
f 440 505 441 
f 440 504 505 
f 441 506 442 
f 441 505 506 
f 442 507 443 
f 442 506 507 
f 443 508 444 
f 443 507 508 
f 444 509 445 
f 444 508 509 
f 445 510 446 
f 445 509 510 
f 446 511 447 
f 446 510 511 
f 447 512 448 
f 447 511 512 
f 448 449 385 
f 448 512 449 
f 449 514 450 
f 449 513 514 
f 450 515 451 
f 450 514 515 
f 451 516 452 
f 451 515 516 
f 452 517 453 
f 452 516 517 
f 453 518 454 
f 453 517 518 
f 454 519 455 
f 454 518 519 
f 455 520 456 
f 455 519 520 
f 456 521 457 
f 456 520 521 
f 457 522 458 
f 457 521 522 
f 458 523 459 
f 458 522 523 
f 459 524 460 
f 459 523 524 
f 460 525 461 
f 460 524 525 
f 461 526 462 
f 461 525 526 
f 462 527 463 
f 462 526 527 
f 463 528 464 
f 463 527 528 
f 464 529 465 
f 464 528 529 
f 465 530 466 
f 465 529 530 
f 466 531 467 
f 466 530 531 
f 467 532 468 
f 467 531 532 
f 468 533 469 
f 468 532 533 
f 469 534 470 
f 469 533 534 
f 470 535 471 
f 470 534 535 
f 471 536 472 
f 471 535 536 
f 472 537 473 
f 472 536 537 
f 473 538 474 
f 473 537 538 
f 474 539 475 
f 474 538 539 
f 475 540 476 
f 475 539 540 
f 476 541 477 
f 476 540 541 
f 477 542 478 
f 477 541 542 
f 478 543 479 
f 478 542 543 
f 479 544 480 
f 479 543 544 
f 480 545 481 
f 480 544 545 
f 481 546 482 
f 481 545 546 
f 482 547 483 
f 482 546 547 
f 483 548 484 
f 483 547 548 
f 484 549 485 
f 484 548 549 
f 485 550 486 
f 485 549 550 
f 486 551 487 
f 486 550 551 
f 487 552 488 
f 487 551 552 
f 488 553 489 
f 488 552 553 
f 489 554 490 
f 489 553 554 
f 490 555 491 
f 490 554 555 
f 491 556 492 
f 491 555 556 
f 492 557 493 
f 492 556 557 
f 493 558 494 
f 493 557 558 
f 494 559 495 
f 494 558 559 
f 495 560 496 
f 495 559 560 
f 496 561 497 
f 496 560 561 
f 497 562 498 
f 497 561 562 
f 498 563 499 
f 498 562 563 
f 499 564 500 
f 499 563 564 
f 500 565 501 
f 500 564 565 
f 501 566 502 
f 501 565 566 
f 502 567 503 
f 502 566 567 
f 503 568 504 
f 503 567 568 
f 504 569 505 
f 504 568 569 
f 505 570 506 
f 505 569 570 
f 506 571 507 
f 506 570 571 
f 507 572 508 
f 507 571 572 
f 508 573 509 
f 508 572 573 
f 509 574 510 
f 509 573 574 
f 510 575 511 
f 510 574 575 
f 511 576 512 
f 511 575 576 
f 512 513 449 
f 512 576 513 
f 513 578 514 
f 513 577 578 
f 514 579 515 
f 514 578 579 
f 515 580 516 
f 515 579 580 
f 516 581 517 
f 516 580 581 
f 517 582 518 
f 517 581 582 
f 518 583 519 
f 518 582 583 
f 519 584 520 
f 519 583 584 
f 520 585 521 
f 520 584 585 
f 521 586 522 
f 521 585 586 
f 522 587 523 
f 522 586 587 
f 523 588 524 
f 523 587 588 
f 524 589 525 
f 524 588 589 
f 525 590 526 
f 525 589 590 
f 526 591 527 
f 526 590 591 
f 527 592 528 
f 527 591 592 
f 528 593 529 
f 528 592 593 
f 529 594 530 
f 529 593 594 
f 530 595 531 
f 530 594 595 
f 531 596 532 
f 531 595 596 
f 532 597 533 
f 532 596 597 
f 533 598 534 
f 533 597 598 
f 534 599 535 
f 534 598 599 
f 535 600 536 
f 535 599 600 
f 536 601 537 
f 536 600 601 
f 537 602 538 
f 537 601 602 
f 538 603 539 
f 538 602 603 
f 539 604 540 
f 539 603 604 
f 540 605 541 
f 540 604 605 
f 541 606 542 
f 541 605 606 
f 542 607 543 
f 542 606 607 
f 543 608 544 
f 543 607 608 
f 544 609 545 
f 544 608 609 
f 545 610 546 
f 545 609 610 
f 546 611 547 
f 546 610 611 
f 547 612 548 
f 547 611 612 
f 548 613 549 
f 548 612 613 
f 549 614 550 
f 549 613 614 
f 550 615 551 
f 550 614 615 
f 551 616 552 
f 551 615 616 
f 552 617 553 
f 552 616 617 
f 553 618 554 
f 553 617 618 
f 554 619 555 
f 554 618 619 
f 555 620 556 
f 555 619 620 
f 556 621 557 
f 556 620 621 
f 557 622 558 
f 557 621 622 
f 558 623 559 
f 558 622 623 
f 559 624 560 
f 559 623 624 
f 560 625 561 
f 560 624 625 
f 561 626 562 
f 561 625 626 
f 562 627 563 
f 562 626 627 
f 563 628 564 
f 563 627 628 
f 564 629 565 
f 564 628 629 
f 565 630 566 
f 565 629 630 
f 566 631 567 
f 566 630 631 
f 567 632 568 
f 567 631 632 
f 568 633 569 
f 568 632 633 
f 569 634 570 
f 569 633 634 
f 570 635 571 
f 570 634 635 
f 571 636 572 
f 571 635 636 
f 572 637 573 
f 572 636 637 
f 573 638 574 
f 573 637 638 
f 574 639 575 
f 574 638 639 
f 575 640 576 
f 575 639 640 
f 576 577 513 
f 576 640 577 
