# Branch
v 7.76027 4.41959 -31.9442
vn 0.0514242 0.344538 0.937363
v 7.82026 4.3886 -31.9397
vn 0.138413 0.299595 0.943973
v 7.87933 4.35561 -31.9414
vn 0.224068 0.251767 0.941492
v 7.93691 4.32096 -31.9493
vn 0.307566 0.201514 0.929944
v 7.99245 4.28497 -31.9635
vn 0.388101 0.149321 0.90944
v 8.04541 4.24798 -31.9836
vn 0.464899 0.0956893 0.880177
v 8.09528 4.21036 -32.0097
vn 0.53722 0.0411363 0.842438
v 8.14159 4.17247 -32.0413
vn 0.604367 -0.0138129 0.796586
v 8.18388 4.13467 -32.0782
vn 0.665694 -0.0686291 0.743063
v 8.22175 4.09732 -32.12
vn 0.720609 -0.122784 0.682383
v 8.25483 4.06079 -32.1664
vn 0.768585 -0.175757 0.615131
v 8.28281 4.02543 -32.2169
vn 0.809159 -0.227037 0.541956
v 8.30542 3.99157 -32.2709
vn 0.84194 -0.276131 0.463561
v 8.32243 3.95955 -32.3281
vn 0.866613 -0.322565 0.380702
v 8.33369 3.92967 -32.3878
vn 0.88294 -0.365893 0.294176
v 8.33909 3.90222 -32.4494
vn 0.890764 -0.405697 0.204817
v 8.33857 3.87747 -32.5124
vn 0.890009 -0.441594 0.113486
v 8.33213 3.85564 -32.5761
vn 0.880683 -0.473238 0.0210622
v 8.31985 3.83697 -32.64
vn 0.862875 -0.500325 -0.0715648
v 8.30184 3.82161 -32.7034
vn 0.836758 -0.522593 -0.163503
v 8.27828 3.80972 -32.7657
vn 0.802582 -0.539829 -0.253866
v 8.24938 3.80142 -32.8263
vn 0.760676 -0.551865 -0.341784
v 8.21543 3.79679 -32.8847
vn 0.711446 -0.558587 -0.426411
v 8.17675 3.79586 -32.9402
vn 0.655363 -0.559929 -0.506931
v 8.13373 3.79865 -32.9924
vn 0.592969 -0.555879 -0.582569
v 8.08676 3.80514 -33.0407
vn 0.524864 -0.546476 -0.652596
v 8.03631 3.81525 -33.0846
vn 0.451705 -0.531809 -0.716339
v 7.98286 3.8289 -33.1238
vn 0.374195 -0.512021 -0.773183
v 7.92692 3.84595 -33.1579
vn 0.293082 -0.487302 -0.822581
v 7.86904 3.86623 -33.1865
vn 0.209146 -0.45789 -0.864057
v 7.80977 3.88955 -33.2093
vn 0.123196 -0.424068 -0.897212
v 7.74968 3.91569 -33.2263
vn 0.0360595 -0.386163 -0.921726
v 7.68935 3.9444 -33.237
vn -0.0514242 -0.344538 -0.937363
v 7.62936 3.97539 -33.2416
vn -0.138413 -0.299595 -0.943973
v 7.57029 4.00837 -33.2399
vn -0.224068 -0.251767 -0.941492
v 7.51271 4.04303 -33.2319
vn -0.307566 -0.201514 -0.929944
v 7.45717 4.07902 -33.2178
vn -0.388101 -0.149321 -0.90944
v 7.40421 4.116 -33.1976
vn -0.464899 -0.0956893 -0.880177
v 7.35434 4.15362 -33.1716
vn -0.53722 -0.0411363 -0.842438
v 7.30803 4.19152 -33.14
vn -0.604367 0.0138129 -0.796586
v 7.26574 4.22932 -33.103
vn -0.665694 0.0686291 -0.743063
v 7.22787 4.26667 -33.0612
vn -0.720609 0.122784 -0.682383
v 7.19479 4.3032 -33.0148
vn -0.768585 0.175757 -0.615131
v 7.16681 4.33856 -32.9644
vn -0.809159 0.227037 -0.541956
v 7.1442 4.37241 -32.9103
vn -0.84194 0.276131 -0.463561
v 7.12719 4.40444 -32.8532
vn -0.866613 0.322565 -0.380702
v 7.11593 4.43431 -32.7935
vn -0.88294 0.365893 -0.294176
v 7.11053 4.46176 -32.7319
vn -0.890764 0.405697 -0.204817
v 7.11105 4.48652 -32.6689
vn -0.890009 0.441594 -0.113486
v 7.11749 4.50834 -32.6051
vn -0.880683 0.473238 -0.0210622
v 7.12977 4.52702 -32.5413
vn -0.862875 0.500325 0.0715648
v 7.14778 4.54238 -32.4779
vn -0.836758 0.522593 0.163503
v 7.17134 4.55426 -32.4156
vn -0.802582 0.539829 0.253866
v 7.20024 4.56256 -32.3549
vn -0.760676 0.551865 0.341784
v 7.23419 4.5672 -32.2966
vn -0.711446 0.558587 0.426411
v 7.27287 4.56812 -32.241
vn -0.655363 0.559929 0.506931
v 7.31589 4.56533 -32.1889
vn -0.592969 0.555879 0.582569
v 7.36286 4.55885 -32.1406
vn -0.524864 0.546476 0.652596
v 7.41331 4.54873 -32.0966
vn -0.451705 0.531809 0.716339
v 7.46676 4.53509 -32.0574
vn -0.374195 0.512021 0.773183
v 7.5227 4.51804 -32.0234
vn -0.293082 0.487302 0.822581
v 7.58058 4.49776 -31.9948
vn -0.209146 0.45789 0.864057
v 7.63985 4.47443 -31.9719
vn -0.123196 0.424068 0.897212
v 7.69994 4.44829 -31.955
vn -0.0360595 0.386163 0.921726
v 6.95661 2.93386 -31.4227
vn 0.0179862 0.282715 0.959035
v 7.01671 2.90307 -31.4182
vn 0.105136 0.23807 0.965541
v 7.07613 2.87069 -31.4202
vn 0.191273 0.191132 0.962748
v 7.13427 2.83705 -31.4285
vn 0.275568 0.142353 0.950683
v 7.19058 2.80246 -31.4431
vn 0.357209 0.0922038 0.929462
v 7.24451 2.76726 -31.4639
vn 0.43541 0.0411663 0.899291
v 7.29556 2.73178 -31.4907
vn 0.509417 -0.0102676 0.860458
v 7.34322 2.69638 -31.5232
vn 0.578519 -0.0616027 0.813339
v 7.38704 2.66138 -31.5611
vn 0.642049 -0.112344 0.758387
v 7.42659 2.62713 -31.604
vn 0.699396 -0.162004 0.696132
v 7.4615 2.59395 -31.6516
vn 0.750008 -0.210104 0.627172
v 7.49143 2.56217 -31.7033
vn 0.793396 -0.25618 0.552172
v 7.51608 2.53209 -31.7587
vn 0.829144 -0.299789 0.471855
v 7.53523 2.504 -31.8173
vn 0.856906 -0.340511 0.386993
v 7.54869 2.47818 -31.8784
vn 0.876416 -0.377954 0.298404
v 7.55632 2.45486 -31.9415
vn 0.887486 -0.411757 0.206942
v 7.55806 2.43428 -32.0059
vn 0.890009 -0.441594 0.113486
v 7.55389 2.41664 -32.0711
vn 0.88396 -0.467178 0.0189379
v 7.54385 2.40209 -32.1365
vn 0.869399 -0.488264 -0.0757929
v 7.52803 2.3908 -32.2013
vn 0.846464 -0.504647 -0.169794
v 7.50659 2.38285 -32.265
vn 0.815378 -0.51617 -0.262159
v 7.47973 2.37833 -32.327
vn 0.776439 -0.522722 -0.352
v 7.44772 2.37728 -32.3866
vn 0.730023 -0.52424 -0.438451
v 7.41085 2.37972 -32.4433
vn 0.676576 -0.520709 -0.52068
v 7.3695 2.38561 -32.4966
vn 0.616613 -0.512164 -0.597893
v 7.32404 2.39491 -32.5459
vn 0.550712 -0.498686 -0.669349
v 7.27493 2.40752 -32.5907
vn 0.479507 -0.480405 -0.734359
v 7.22263 2.42331 -32.6307
vn 0.403685 -0.457498 -0.792297
v 7.16765 2.44215 -32.6654
vn 0.323975 -0.430185 -0.842604
v 7.11052 2.46385 -32.6945
vn 0.241144 -0.398729 -0.884796
v 7.05179 2.48819 -32.7177
vn 0.155992 -0.363433 -0.918468
v 6.99202 2.51495 -32.7348
vn 0.0693366 -0.324637 -0.943294
v 6.93179 2.54387 -32.7457
vn -0.0179862 -0.282715 -0.959035
v 6.87168 2.57466 -32.7501
vn -0.105136 -0.23807 -0.965541
v 6.81227 2.60704 -32.7482
vn -0.191273 -0.191132 -0.962748
v 6.75413 2.64068 -32.7399
vn -0.275568 -0.142353 -0.950683
v 6.69782 2.67527 -32.7253
vn -0.357209 -0.0922038 -0.929462
v 6.64389 2.71047 -32.7045
vn -0.43541 -0.0411663 -0.899291
v 6.59284 2.74595 -32.6777
vn -0.509417 0.0102676 -0.860458
v 6.54518 2.78135 -32.6452
vn -0.578519 0.0616027 -0.813339
v 6.50136 2.81635 -32.6073
vn -0.642049 0.112344 -0.758387
v 6.46181 2.8506 -32.5643
vn -0.699396 0.162004 -0.696132
v 6.4269 2.88378 -32.5168
vn -0.750008 0.210104 -0.627172
v 6.39697 2.91556 -32.465
vn -0.793396 0.25618 -0.552172
v 6.37232 2.94564 -32.4096
vn -0.829144 0.299789 -0.471855
v 6.35317 2.97373 -32.3511
vn -0.856906 0.340511 -0.386993
v 6.33971 2.99955 -32.29
vn -0.876416 0.377954 -0.298404
v 6.33207 3.02287 -32.2269
vn -0.887486 0.411757 -0.206942
v 6.33033 3.04344 -32.1625
vn -0.890009 0.441594 -0.113486
v 6.33451 3.06109 -32.0972
vn -0.88396 0.467178 -0.0189379
v 6.34455 3.07563 -32.0319
vn -0.869399 0.488264 0.0757929
v 6.36037 3.08693 -31.9671
vn -0.846464 0.504647 0.169794
v 6.38181 3.09488 -31.9034
vn -0.815378 0.51617 0.262159
v 6.40867 3.0994 -31.8414
vn -0.776439 0.522722 0.352
v 6.44068 3.10045 -31.7818
vn -0.730023 0.52424 0.438451
v 6.47755 3.09801 -31.7251
vn -0.676576 0.520709 0.52068
v 6.5189 3.09212 -31.6718
vn -0.616613 0.512164 0.597893
v 6.56436 3.08282 -31.6225
vn -0.550712 0.498686 0.669349
v 6.61347 3.07021 -31.5777
vn -0.479507 0.480405 0.734359
v 6.66577 3.05441 -31.5377
vn -0.403685 0.457498 0.792297
v 6.72075 3.03558 -31.503
vn -0.323975 0.430185 0.842604
v 6.77788 3.01388 -31.4739
vn -0.241144 0.398729 0.884796
v 6.83661 2.98954 -31.4507
vn -0.155992 0.363433 0.918468
v 6.89638 2.96278 -31.4336
vn -0.0693366 0.324637 0.943294
v 6.1604 1.42941 -31.0326
vn -0.0164608 0.217622 0.975894
v 6.22063 1.39883 -31.0282
vn 0.0708546 0.17329 0.982319
v 6.2804 1.3671 -31.0302
vn 0.157488 0.127289 0.979283
v 6.33912 1.33452 -31.0388
vn 0.242604 0.0800629 0.966816
v 6.39622 1.30141 -31.0539
vn 0.325384 0.0320654 0.945038
v 6.45117 1.26808 -31.0752
vn 0.40503 -0.0162409 0.914159
v 6.50342 1.23487 -31.1025
vn 0.480776 -0.0643908 0.874476
v 6.55248 1.20208 -31.1357
vn 0.551891 -0.111921 0.826372
v 6.59787 1.17003 -31.1744
vn 0.617692 -0.158372 0.770308
v 6.63916 1.13904 -31.2182
vn 0.677543 -0.203299 0.706827
v 6.67595 1.1094 -31.2667
vn 0.73087 -0.246268 0.636538
v 6.70788 1.08139 -31.3194
vn 0.777158 -0.286865 0.560119
v 6.73465 1.05529 -31.3758
vn 0.815962 -0.324699 0.478306
v 6.756 1.03135 -31.4355
vn 0.846907 -0.359407 0.391887
v 6.77172 1.00979 -31.4977
vn 0.869696 -0.390653 0.301693
v 6.78166 0.990834 -31.5619
vn 0.88411 -0.418137 0.208594
v 6.78573 0.974652 -31.6275
vn 0.890009 -0.441594 0.113486
v 6.78389 0.961404 -31.6939
vn 0.887337 -0.460798 0.0172854
v 6.77615 0.951217 -31.7604
vn 0.876119 -0.475565 -0.0790819
v 6.76259 0.94419 -31.8263
vn 0.856464 -0.485751 -0.174688
v 6.74334 0.94039 -31.8911
vn 0.82856 -0.49126 -0.268611
v 6.71858 0.939854 -31.9541
vn 0.792677 -0.492037 -0.359947
v 6.68856 0.942586 -32.0147
vn 0.74916 -0.488076 -0.447818
v 6.65357 0.948562 -32.0724
vn 0.698429 -0.479414 -0.531375
v 6.61393 0.957722 -32.1265
vn 0.640971 -0.466136 -0.609815
v 6.57003 0.969979 -32.1765
vn 0.57734 -0.448368 -0.682382
v 6.5223 0.985215 -32.2221
vn 0.508149 -0.426282 -0.748377
v 6.4712 1.00328 -32.2626
vn 0.434064 -0.400091 -0.807165
v 6.4172 1.02401 -32.2978
vn 0.355799 -0.370047 -0.85818
v 6.36085 1.04719 -32.3273
vn 0.274108 -0.336439 -0.900929
v 6.30267 1.07261 -32.3508
vn 0.189777 -0.299591 -0.935003
v 6.24324 1.10002 -32.3681
vn 0.103618 -0.259857 -0.960072
v 6.18311 1.12916 -32.379
vn 0.0164608 -0.217622 -0.975894
v 6.12288 1.15974 -32.3835
vn -0.0708546 -0.17329 -0.982319
v 6.06311 1.19148 -32.3814
vn -0.157488 -0.127289 -0.979283
v 6.00439 1.22405 -32.3728
vn -0.242604 -0.0800629 -0.966816
v 5.94729 1.25717 -32.3577
vn -0.325384 -0.0320654 -0.945038
v 5.89235 1.29049 -32.3364
vn -0.40503 0.0162409 -0.914159
v 5.84009 1.32371 -32.3091
vn -0.480776 0.0643908 -0.874476
v 5.79103 1.35649 -32.2759
vn -0.551891 0.111921 -0.826372
v 5.74564 1.38854 -32.2372
vn -0.617692 0.158372 -0.770308
v 5.70435 1.41953 -32.1934
vn -0.677543 0.203299 -0.706827
v 5.66756 1.44917 -32.1449
vn -0.73087 0.246268 -0.636538
v 5.63563 1.47718 -32.0922
vn -0.777158 0.286865 -0.560119
v 5.60886 1.50328 -32.0358
vn -0.815962 0.324699 -0.478306
v 5.58752 1.52722 -31.9761
vn -0.846907 0.359407 -0.391887
v 5.57179 1.54878 -31.9139
vn -0.869696 0.390653 -0.301693
v 5.56185 1.56774 -31.8497
vn -0.88411 0.418137 -0.208594
v 5.55778 1.58392 -31.7841
vn -0.890009 0.441594 -0.113486
v 5.55963 1.59717 -31.7177
vn -0.887337 0.460798 -0.0172854
v 5.56736 1.60736 -31.6512
vn -0.876119 0.475565 0.0790819
v 5.58092 1.61438 -31.5853
vn -0.856464 0.485751 0.174688
v 5.60017 1.61818 -31.5205
vn -0.82856 0.49126 0.268611
v 5.62493 1.61872 -31.4575
vn -0.792677 0.492037 0.359947
v 5.65495 1.61599 -31.3969
vn -0.74916 0.488076 0.447818
v 5.68994 1.61001 -31.3392
vn -0.698429 0.479414 0.531375
v 5.72958 1.60085 -31.2851
vn -0.640971 0.466136 0.609815
v 5.77348 1.58859 -31.2351
vn -0.57734 0.448368 0.682382
v 5.82121 1.57336 -31.1895
vn -0.508149 0.426282 0.748377
v 5.87232 1.55529 -31.149
vn -0.434064 0.400091 0.807165
v 5.92631 1.53456 -31.1138
vn -0.355799 0.370047 0.85818
v 5.98266 1.51138 -31.0843
vn -0.274108 0.336439 0.900929
v 6.04084 1.48596 -31.0608
vn -0.189777 0.299591 0.935003
v 6.10027 1.45855 -31.0435
vn -0.103618 0.259857 0.960072
v 5.37204 -0.0930882 -30.7743
vn -0.051355 0.15023 0.987316
v 5.43241 -0.123452 -30.7699
vn 0.0361284 0.106222 0.993686
v 5.49253 -0.154522 -30.7721
vn 0.123264 0.0611923 0.990485
v 5.55183 -0.185998 -30.7809
vn 0.209212 0.0155728 0.977746
v 5.60974 -0.217578 -30.7961
vn 0.293146 -0.0301967 0.955591
v 5.6657 -0.248957 -30.8178
vn 0.374256 -0.0756753 0.924232
v 5.71918 -0.279833 -30.8456
vn 0.451762 -0.120425 0.883973
v 5.76966 -0.309909 -30.8792
vn 0.524918 -0.164015 0.835201
v 5.81664 -0.338895 -30.9184
vn 0.593018 -0.206026 0.778385
v 5.85969 -0.366512 -30.9628
vn 0.655407 -0.246052 0.714073
v 5.89838 -0.392494 -31.0119
vn 0.711484 -0.283709 0.642884
v 5.93235 -0.416591 -31.0653
vn 0.760709 -0.318633 0.565504
v 5.96126 -0.438571 -31.1224
vn 0.802608 -0.350489 0.482677
v 5.98483 -0.458222 -31.1828
vn 0.836778 -0.37897 0.395202
v 6.00285 -0.475354 -31.2458
vn 0.862889 -0.4038 0.303922
v 6.01513 -0.489804 -31.3108
vn 0.880689 -0.424742 0.209714
v 6.02156 -0.501431 -31.3772
vn 0.890009 -0.441594 0.113486
v 6.02208 -0.510124 -31.4443
vn 0.890757 -0.454193 0.0161659
v 6.01667 -0.515798 -31.5116
vn 0.882926 -0.462417 -0.0813102
v 6.0054 -0.5184 -31.5783
vn 0.866593 -0.466188 -0.178003
v 5.98838 -0.517905 -31.6438
vn 0.841914 -0.46547 -0.272982
v 5.96575 -0.514316 -31.7075
vn 0.809126 -0.460269 -0.365332
v 5.93775 -0.507669 -31.7688
vn 0.768547 -0.450635 -0.454163
v 5.90465 -0.498027 -31.8271
vn 0.720565 -0.436661 -0.538621
v 5.86675 -0.485484 -31.8818
vn 0.665645 -0.418482 -0.617891
v 5.82444 -0.470161 -31.9324
vn 0.604314 -0.396273 -0.691211
v 5.77811 -0.452204 -31.9784
vn 0.537163 -0.370248 -0.757874
v 5.7282 -0.431787 -32.0193
vn 0.464838 -0.340657 -0.817238
v 5.67521 -0.409106 -32.0549
vn 0.388037 -0.307785 -0.868732
v 5.61964 -0.38438 -32.0846
vn 0.3075 -0.271949 -0.91186
v 5.56203 -0.357847 -32.1083
vn 0.224 -0.233494 -0.946205
v 5.50293 -0.329763 -32.1257
vn 0.138344 -0.19279 -0.971439
v 5.44291 -0.300397 -32.1367
vn 0.051355 -0.15023 -0.987316
v 5.38255 -0.270033 -32.1411
vn -0.0361284 -0.106222 -0.993686
v 5.32243 -0.238964 -32.1389
vn -0.123264 -0.0611923 -0.990485
v 5.26313 -0.207487 -32.1301
vn -0.209212 -0.0155728 -0.977746
v 5.20521 -0.175908 -32.1148
vn -0.293146 0.0301967 -0.955591
v 5.14925 -0.144529 -32.0932
vn -0.374256 0.0756753 -0.924232
v 5.09577 -0.113653 -32.0654
vn -0.451762 0.120425 -0.883973
v 5.0453 -0.0835765 -32.0317
vn -0.524918 0.164015 -0.835201
v 4.99831 -0.0545904 -31.9925
vn -0.593018 0.206026 -0.778385
v 4.95526 -0.0269732 -31.9482
vn -0.655407 0.246052 -0.714073
v 4.91657 -0.00099106 -31.899
vn -0.711484 0.283709 -0.642884
v 4.88261 0.0231059 -31.8457
vn -0.760709 0.318633 -0.565504
v 4.8537 0.0450856 -31.7885
vn -0.802608 0.350489 -0.482677
v 4.83012 0.0647364 -31.7282
vn -0.836778 0.37897 -0.395202
v 4.81211 0.081869 -31.6652
vn -0.862889 0.4038 -0.303922
v 4.79982 0.0963184 -31.6002
vn -0.880689 0.424742 -0.209714
v 4.79339 0.107945 -31.5338
vn -0.890009 0.441594 -0.113486
v 4.79288 0.116638 -31.4666
vn -0.890757 0.454193 -0.0161659
v 4.79828 0.122313 -31.3994
vn -0.882926 0.462417 0.0813102
v 4.80955 0.124915 -31.3327
vn -0.866593 0.466188 0.178003
v 4.82658 0.124419 -31.2671
vn -0.841914 0.46547 0.272982
v 4.8492 0.120831 -31.2034
vn -0.809126 0.460269 0.365332
v 4.8772 0.114184 -31.1421
vn -0.768547 0.450635 0.454163
v 4.91031 0.104542 -31.0838
vn -0.720565 0.436661 0.538621
v 4.9482 0.0919991 -31.0291
vn -0.665645 0.418482 0.617891
v 4.99052 0.0766754 -30.9786
vn -0.604314 0.396273 0.691211
v 5.03685 0.0587185 -30.9326
vn -0.537163 0.370248 0.757874
v 5.08675 0.0383014 -30.8916
vn -0.464838 0.340657 0.817238
v 5.13974 0.0156206 -30.8561
vn -0.388037 0.307785 0.868732
v 5.19531 -0.00910526 -30.8263
vn -0.3075 0.271949 0.91186
v 5.25292 -0.0356382 -30.8026
vn -0.224 0.233494 0.946205
v 5.31202 -0.0637227 -30.7852
vn -0.138344 0.19279 0.971439
v 4.59196 -1.63286 -30.648
vn -0.0860843 0.0816782 0.992934
v 4.65245 -1.663 -30.6436
vn 0.00156633 0.0380011 0.999276
v 4.71292 -1.69339 -30.6459
vn 0.0892019 -0.00604193 0.995995
v 4.77281 -1.72375 -30.6548
vn 0.175978 -0.0500268 0.983122
v 4.83152 -1.75377 -30.6702
vn 0.26106 -0.0935299 0.960781
v 4.8885 -1.78317 -30.692
vn 0.343628 -0.136132 0.929187
v 4.9432 -1.81166 -30.72
vn 0.422886 -0.177424 0.888644
v 4.99508 -1.83898 -30.7538
vn 0.498072 -0.217006 0.839543
v 5.04366 -1.86485 -30.7933
vn 0.56846 -0.254499 0.782357
v 5.08845 -1.88903 -30.838
vn 0.633375 -0.289541 0.717637
v 5.12904 -1.91129 -30.8874
vn 0.692189 -0.321794 0.646005
v 5.16503 -1.93141 -30.9411
vn 0.744338 -0.350948 0.568152
v 5.19607 -1.9492 -30.9986
vn 0.789318 -0.376723 0.484827
v 5.22187 -1.96448 -31.0593
vn 0.826696 -0.398869 0.396833
v 5.24217 -1.97711 -31.1227
vn 0.856113 -0.417174 0.305017
v 5.25678 -1.98697 -31.1881
vn 0.877285 -0.431462 0.210264
v 5.26556 -1.99396 -31.2549
vn 0.890009 -0.441594 0.113486
v 5.26842 -1.99802 -31.3224
vn 0.894161 -0.447473 0.0156152
v 5.26534 -1.9991 -31.3901
vn 0.889702 -0.449043 -0.0824062
v 5.25635 -1.9972 -31.4572
vn 0.876674 -0.446289 -0.179634
v 5.24154 -1.99234 -31.5231
vn 0.855204 -0.439236 -0.275132
v 5.22104 -1.98455 -31.5871
vn 0.825498 -0.427954 -0.36798
v 5.19505 -1.97392 -31.6488
vn 0.787841 -0.41255 -0.457284
v 5.16383 -1.96055 -31.7074
vn 0.742597 -0.393173 -0.542185
v 5.12767 -1.94456 -31.7623
vn 0.690202 -0.370009 -0.621864
v 5.08693 -1.92612 -31.8132
vn 0.63116 -0.343282 -0.695554
v 5.04199 -1.90539 -31.8594
vn 0.566039 -0.313249 -0.762545
v 4.99328 -1.88259 -31.9006
vn 0.495467 -0.2802 -0.822193
v 4.94129 -1.85792 -31.9363
vn 0.420123 -0.244451 -0.873922
v 4.8865 -1.83162 -31.9662
vn 0.340733 -0.206349 -0.917235
v 4.82945 -1.80396 -31.99
vn 0.258062 -0.166259 -0.951715
v 4.77069 -1.77519 -32.0074
vn 0.172906 -0.124569 -0.977029
v 4.71077 -1.74559 -32.0184
vn 0.0860843 -0.0816782 -0.992934
v 4.65028 -1.71545 -32.0228
vn -0.00156633 -0.0380011 -0.999276
v 4.58981 -1.68505 -32.0205
vn -0.0892019 0.00604193 -0.995995
v 4.52992 -1.6547 -32.0116
vn -0.175978 0.0500268 -0.983122
v 4.47121 -1.62468 -31.9962
vn -0.26106 0.0935299 -0.960781
v 4.41423 -1.59528 -31.9744
vn -0.343628 0.136132 -0.929187
v 4.35953 -1.56678 -31.9464
vn -0.422886 0.177424 -0.888644
v 4.30765 -1.53947 -31.9126
vn -0.498072 0.217006 -0.839543
v 4.25907 -1.51359 -31.8731
vn -0.56846 0.254499 -0.782357
v 4.21428 -1.48941 -31.8284
vn -0.633375 0.289541 -0.717637
v 4.17369 -1.46715 -31.779
vn -0.692189 0.321794 -0.646005
v 4.1377 -1.44703 -31.7253
vn -0.744338 0.350948 -0.568152
v 4.10666 -1.42925 -31.6678
vn -0.789318 0.376723 -0.484827
v 4.08087 -1.41396 -31.6071
vn -0.826696 0.398869 -0.396833
v 4.06057 -1.40133 -31.5437
vn -0.856113 0.417174 -0.305017
v 4.04595 -1.39147 -31.4783
vn -0.877285 0.431462 -0.210264
v 4.03717 -1.38448 -31.4115
vn -0.890009 0.441594 -0.113486
v 4.03431 -1.38042 -31.344
vn -0.894161 0.447473 -0.0156152
v 4.03739 -1.37934 -31.2763
vn -0.889702 0.449043 0.0824062
v 4.04638 -1.38124 -31.2092
vn -0.876674 0.446289 0.179634
v 4.06119 -1.38611 -31.1433
vn -0.855204 0.439236 0.275132
v 4.08169 -1.39389 -31.0793
vn -0.825498 0.427954 0.36798
v 4.10768 -1.40452 -31.0176
vn -0.787841 0.41255 0.457284
v 4.1389 -1.4179 -30.959
vn -0.742597 0.393173 0.542185
v 4.17506 -1.43388 -30.9041
vn -0.690202 0.370009 0.621864
v 4.2158 -1.45232 -30.8532
vn -0.63116 0.343282 0.695554
v 4.26074 -1.47305 -30.807
vn -0.566039 0.313249 0.762545
v 4.30945 -1.49586 -30.7658
vn -0.495467 0.2802 0.822193
v 4.36144 -1.52053 -30.7301
vn -0.420123 0.244451 0.873922
v 4.41623 -1.54682 -30.7002
vn -0.340733 0.206349 0.917235
v 4.47328 -1.57449 -30.6764
vn -0.258062 0.166259 0.951715
v 4.53204 -1.60326 -30.659
vn -0.172906 0.124569 0.977029
v 3.82057 -3.18905 -30.6538
vn -0.120038 0.0131811 0.992682
v 3.88118 -3.21897 -30.6494
vn -0.0322241 -0.0301661 0.999025
v 3.942 -3.24869 -30.6517
vn 0.0559004 -0.0732229 0.995748
v 4.00246 -3.27792 -30.6606
vn 0.143487 -0.115574 0.982881
v 4.06196 -3.30639 -30.676
vn 0.229691 -0.156813 0.960548
v 4.11993 -3.33381 -30.6978
vn 0.313683 -0.196541 0.928964
v 4.17582 -3.35992 -30.7258
vn 0.394654 -0.234377 0.888434
v 4.22908 -3.38448 -30.7596
vn 0.471825 -0.269955 0.839348
v 4.27921 -3.40724 -30.7991
vn 0.544451 -0.302934 0.782179
v 4.32572 -3.42799 -30.8438
vn 0.611835 -0.332995 0.717477
v 4.36816 -3.44653 -30.8932
vn 0.673326 -0.359849 0.645865
v 4.40613 -3.46267 -30.9469
vn 0.728332 -0.383238 0.568033
v 4.43925 -3.47626 -31.0044
vn 0.776324 -0.402935 0.484731
v 4.46722 -3.48718 -31.0651
vn 0.81684 -0.418753 0.39676
v 4.48975 -3.49532 -31.1285
vn 0.849489 -0.430537 0.304968
v 4.50664 -3.50059 -31.1939
vn 0.873957 -0.438176 0.21024
v 4.51772 -3.50295 -31.2606
vn 0.890009 -0.441594 0.113486
v 4.52288 -3.50237 -31.3282
vn 0.897489 -0.44076 0.01564
v 4.52208 -3.49887 -31.3958
vn 0.896326 -0.43568 -0.0823569
v 4.51532 -3.49246 -31.4629
vn 0.886531 -0.426405 -0.179561
v 4.50267 -3.48323 -31.5288
vn 0.868198 -0.413024 -0.275035
v 4.48424 -3.47125 -31.5929
vn 0.841503 -0.395665 -0.367861
v 4.46022 -3.45663 -31.6545
vn 0.806705 -0.374495 -0.457144
v 4.43084 -3.43953 -31.7131
vn 0.764138 -0.349719 -0.542025
v 4.39638 -3.42011 -31.7681
vn 0.714211 -0.321575 -0.621685
v 4.35717 -3.39854 -31.8189
vn 0.657406 -0.290333 -0.695358
v 4.3136 -3.37505 -31.8652
vn 0.594271 -0.256296 -0.762335
v 4.26607 -3.34986 -31.9063
vn 0.525411 -0.219791 -0.82197
v 4.21505 -3.3232 -31.942
vn 0.451492 -0.181168 -0.873689
v 4.16103 -3.29534 -31.9719
vn 0.373225 -0.140802 -0.916994
v 4.10452 -3.26654 -31.9957
vn 0.291364 -0.0990786 -0.951468
v 4.04608 -3.23708 -32.0132
vn 0.206696 -0.0564014 -0.976778
v 3.98627 -3.20725 -32.0241
vn 0.120038 -0.0131811 -0.992682
v 3.92566 -3.17733 -32.0285
vn 0.0322241 0.0301661 -0.999025
v 3.86484 -3.14761 -32.0263
vn -0.0559004 0.0732229 -0.995748
v 3.80438 -3.11838 -32.0174
vn -0.143487 0.115574 -0.982881
v 3.74488 -3.08992 -32.002
vn -0.229691 0.156813 -0.960548
v 3.68691 -3.0625 -31.9802
vn -0.313683 0.196541 -0.928964
v 3.63102 -3.03638 -31.9522
vn -0.394654 0.234377 -0.888434
v 3.57776 -3.01182 -31.9183
vn -0.471825 0.269955 -0.839348
v 3.52763 -2.98906 -31.8789
vn -0.544451 0.302934 -0.782179
v 3.48112 -2.96831 -31.8342
vn -0.611835 0.332995 -0.717477
v 3.43868 -2.94978 -31.7848
vn -0.673326 0.359849 -0.645865
v 3.40071 -2.93363 -31.731
vn -0.728332 0.383238 -0.568033
v 3.36759 -2.92004 -31.6735
vn -0.776324 0.402935 -0.484731
v 3.33962 -2.90912 -31.6128
vn -0.81684 0.418753 -0.39676
v 3.31709 -2.90099 -31.5495
vn -0.849489 0.430537 -0.304968
v 3.3002 -2.89571 -31.4841
vn -0.873957 0.438176 -0.21024
v 3.28912 -2.89336 -31.4173
vn -0.890009 0.441594 -0.113486
v 3.28396 -2.89393 -31.3498
vn -0.897489 0.44076 -0.01564
v 3.28476 -2.89744 -31.2821
vn -0.896326 0.43568 0.0823569
v 3.29152 -2.90384 -31.215
vn -0.886531 0.426405 0.179561
v 3.30417 -2.91308 -31.1491
vn -0.868198 0.413024 0.275035
v 3.3226 -2.92506 -31.0851
vn -0.841503 0.395665 0.367861
v 3.34662 -2.93967 -31.0234
vn -0.806705 0.374495 0.457144
v 3.376 -2.95677 -30.9649
vn -0.764138 0.349719 0.542025
v 3.41046 -2.9762 -30.9099
vn -0.714211 0.321575 0.621685
v 3.44967 -2.99776 -30.859
vn -0.657406 0.290333 0.695358
v 3.49324 -3.02125 -30.8128
vn -0.594271 0.256296 0.762335
v 3.54077 -3.04645 -30.7716
vn -0.525411 0.219791 0.82197
v 3.59179 -3.07311 -30.7359
vn -0.451492 0.181168 0.873689
v 3.64581 -3.10097 -30.7061
vn -0.373225 0.140802 0.916994
v 3.70231 -3.12977 -30.6823
vn -0.291364 0.0990786 0.951468
v 3.76075 -3.15922 -30.6648
vn -0.206696 0.0564014 0.976778
v 3.05825 -4.76086 -30.7916
vn -0.15266 -0.0540784 0.986798
v 3.11898 -4.79057 -30.7872
vn -0.0646888 -0.0971018 0.99317
v 3.18014 -4.81962 -30.7894
vn 0.0239054 -0.13919 0.989977
v 3.24114 -4.84775 -30.7982
vn 0.112269 -0.179938 0.97725
v 3.3014 -4.87468 -30.8135
vn 0.199552 -0.218953 0.955112
v 3.36033 -4.90016 -30.8351
vn 0.284913 -0.255859 0.923775
v 3.41736 -4.92394 -30.8629
vn 0.36753 -0.290301 0.883542
v 3.47195 -4.94579 -30.8965
vn 0.446608 -0.321947 0.8348
v 3.52357 -4.96549 -30.9357
vn 0.521384 -0.350493 0.778019
v 3.57173 -4.98287 -30.9801
vn 0.59114 -0.375664 0.713744
v 3.61595 -4.99775 -31.0292
vn 0.655202 -0.397216 0.642596
v 3.65582 -5.00998 -31.0826
vn 0.712954 -0.414943 0.565259
v 3.69095 -5.01946 -31.1397
vn 0.76384 -0.428675 0.482479
v 3.721 -5.02609 -31.2001
vn 0.80737 -0.438277 0.395052
v 3.74568 -5.02981 -31.2631
vn 0.843125 -0.443659 0.30382
v 3.76476 -5.03057 -31.3281
vn 0.87076 -0.444768 0.209663
v 3.77805 -5.02838 -31.3945
vn 0.890009 -0.441594 0.113486
v 3.78542 -5.02325 -31.4616
vn 0.900686 -0.434167 0.0162167
v 3.7868 -5.01524 -31.5289
vn 0.90269 -0.422559 -0.0812091
v 3.78218 -5.00442 -31.5956
vn 0.896 -0.406881 -0.177853
v 3.77161 -4.99089 -31.6611
vn 0.880681 -0.387285 -0.272784
v 3.75518 -4.97479 -31.7248
vn 0.856881 -0.363959 -0.365087
v 3.73305 -4.95626 -31.7861
vn 0.824829 -0.337128 -0.453875
v 3.70544 -4.9355 -31.8444
vn 0.784833 -0.30705 -0.538292
v 3.67261 -4.9127 -31.8991
vn 0.737278 -0.274015 -0.617525
v 3.63488 -4.88807 -31.9497
vn 0.682623 -0.238341 -0.69081
v 3.59261 -4.86186 -31.9957
vn 0.621395 -0.200372 -0.757443
v 3.54621 -4.83431 -32.0367
vn 0.554181 -0.160473 -0.816781
v 3.49613 -4.8057 -32.0722
vn 0.481631 -0.119029 -0.868253
v 3.44284 -4.7763 -32.102
vn 0.404442 -0.0764381 -0.911364
v 3.38687 -4.74639 -32.1257
vn 0.323359 -0.0331114 -0.945697
v 3.32874 -4.71626 -32.1431
vn 0.239161 0.0105342 -0.970923
v 3.26903 -4.6862 -32.154
vn 0.15266 0.0540784 -0.986798
v 3.2083 -4.6565 -32.1584
vn 0.0646888 0.0971018 -0.99317
v 3.14714 -4.62744 -32.1562
vn -0.0239054 0.13919 -0.989977
v 3.08614 -4.59931 -32.1474
vn -0.112269 0.179938 -0.97725
v 3.02588 -4.57238 -32.1322
vn -0.199552 0.218953 -0.955112
v 2.96695 -4.5469 -32.1105
vn -0.284913 0.255859 -0.923775
v 2.90992 -4.52313 -32.0828
vn -0.36753 0.290301 -0.883542
v 2.85533 -4.50128 -32.0491
vn -0.446608 0.321947 -0.8348
v 2.80371 -4.48157 -32.0099
vn -0.521384 0.350493 -0.778019
v 2.75555 -4.4642 -31.9655
vn -0.59114 0.375664 -0.713744
v 2.71133 -4.44932 -31.9164
vn -0.655202 0.397216 -0.642596
v 2.67146 -4.43708 -31.863
vn -0.712954 0.414943 -0.565259
v 2.63633 -4.4276 -31.8059
vn -0.76384 0.428675 -0.482479
v 2.60628 -4.42097 -31.7455
vn -0.80737 0.438277 -0.395052
v 2.5816 -4.41726 -31.6825
vn -0.843125 0.443659 -0.30382
v 2.56252 -4.41649 -31.6175
vn -0.87076 0.444768 -0.209663
v 2.54923 -4.41868 -31.5512
vn -0.890009 0.441594 -0.113486
v 2.54186 -4.42381 -31.484
vn -0.900686 0.434167 -0.0162167
v 2.54048 -4.43182 -31.4167
vn -0.90269 0.422559 0.0812091
v 2.54509 -4.44265 -31.35
vn -0.896 0.406881 0.177853
v 2.55567 -4.45617 -31.2845
vn -0.880681 0.387285 0.272784
v 2.5721 -4.47228 -31.2208
vn -0.856881 0.363959 0.365087
v 2.59423 -4.4908 -31.1595
vn -0.824829 0.337128 0.453875
v 2.62184 -4.51156 -31.1012
vn -0.784833 0.30705 0.538292
v 2.65467 -4.53437 -31.0465
vn -0.737278 0.274015 0.617525
v 2.6924 -4.559 -30.9959
vn -0.682623 0.238341 0.69081
v 2.73467 -4.58521 -30.9499
vn -0.621395 0.200372 0.757443
v 2.78107 -4.61275 -30.909
vn -0.554181 0.160473 0.816781
v 2.83115 -4.64136 -30.8734
vn -0.481631 0.119029 0.868253
v 2.88444 -4.67076 -30.8437
vn -0.404442 0.0764381 0.911364
v 2.94041 -4.70067 -30.82
vn -0.323359 0.0331114 0.945697
v 2.99854 -4.7308 -30.8025
vn -0.239161 -0.0105342 0.970923
v 2.30533 -6.34756 -31.061
vn -0.18349 -0.119045 0.975787
v 2.36618 -6.37705 -31.0565
vn -0.0953704 -0.161755 0.982212
v 2.42765 -6.40546 -31.0586
vn -0.0063323 -0.202908 0.979177
v 2.48917 -6.43253 -31.0672
vn 0.0827668 -0.242107 0.966713
v 2.55014 -6.45798 -31.0823
vn 0.171069 -0.278974 0.944939
v 2.60997 -6.48158 -31.1036
vn 0.257723 -0.313154 0.914064
v 2.66809 -6.5031 -31.131
vn 0.341896 -0.344319 0.874387
v 2.72394 -6.52233 -31.1642
vn 0.422776 -0.372167 0.826288
v 2.77697 -6.53908 -31.2029
vn 0.499584 -0.396431 0.770232
v 2.82668 -6.5532 -31.2467
vn 0.571581 -0.416878 0.706759
v 2.87259 -6.56455 -31.2952
vn 0.638074 -0.43331 0.636478
v 2.91426 -6.57301 -31.348
vn 0.698421 -0.445568 0.560069
v 2.95128 -6.57851 -31.4045
vn 0.752042 -0.453536 0.478265
v 2.98331 -6.581 -31.4641
vn 0.798421 -0.457136 0.391856
v 3.01002 -6.58044 -31.5264
vn 0.83711 -0.456333 0.301672
v 3.03117 -6.57685 -31.5907
vn 0.867738 -0.451136 0.208584
v 3.04654 -6.57027 -31.6563
vn 0.890009 -0.441594 0.113486
v 3.056 -6.56074 -31.7228
vn 0.903708 -0.427799 0.017296
v 3.05945 -6.54837 -31.7893
vn 0.908705 -0.409884 -0.0790609
v 3.05686 -6.53328 -31.8553
vn 0.90495 -0.388022 -0.174656
v 3.04825 -6.5156 -31.9201
vn 0.89248 -0.362423 -0.26857
v 3.0337 -6.49552 -31.9832
vn 0.871414 -0.333334 -0.359897
v 3.01337 -6.47322 -32.0439
vn 0.841957 -0.301034 -0.447758
v 2.98743 -6.44891 -32.1015
vn 0.804391 -0.265836 -0.531306
v 2.95614 -6.42284 -32.1557
vn 0.759078 -0.228077 -0.609739
v 2.91981 -6.39525 -32.2058
vn 0.706455 -0.188121 -0.682298
v 2.87878 -6.36641 -32.2514
vn 0.647029 -0.146354 -0.748287
v 2.83344 -6.3366 -32.2919
vn 0.581371 -0.103178 -0.80707
v 2.78424 -6.3061 -32.3272
vn 0.510114 -0.0590077 -0.85808
v 2.73165 -6.27521 -32.3567
vn 0.433945 -0.0142693 -0.900826
v 2.67617 -6.24423 -32.3802
vn 0.353597 0.0306066 -0.934897
v 2.61834 -6.21345 -32.3975
vn 0.269843 0.0751877 -0.959964
v 2.55872 -6.18317 -32.4084
vn 0.18349 0.119045 -0.975787
v 2.49788 -6.15368 -32.4129
vn 0.0953704 0.161755 -0.982212
v 2.4364 -6.12526 -32.4108
vn 0.0063323 0.202908 -0.979177
v 2.37488 -6.0982 -32.4022
vn -0.0827668 0.242107 -0.966713
v 2.31391 -6.07274 -32.3871
vn -0.171069 0.278974 -0.944939
v 2.25408 -6.04914 -32.3658
vn -0.257723 0.313154 -0.914064
v 2.19596 -6.02762 -32.3384
vn -0.341896 0.344319 -0.874387
v 2.14012 -6.00839 -32.3052
vn -0.422776 0.372167 -0.826288
v 2.08708 -5.99164 -32.2665
vn -0.499584 0.396431 -0.770232
v 2.03737 -5.97752 -32.2227
vn -0.571581 0.416878 -0.706759
v 1.99146 -5.96618 -32.1742
vn -0.638074 0.43331 -0.636478
v 1.94979 -5.95771 -32.1214
vn -0.698421 0.445568 -0.560069
v 1.91277 -5.95221 -32.0649
vn -0.752042 0.453536 -0.478265
v 1.88075 -5.94973 -32.0053
vn -0.798421 0.457136 -0.391856
v 1.85403 -5.95028 -31.943
vn -0.83711 0.456333 -0.301672
v 1.83289 -5.95387 -31.8787
vn -0.867738 0.451136 -0.208584
v 1.81751 -5.96046 -31.8131
vn -0.890009 0.441594 -0.113486
v 1.80805 -5.96998 -31.7466
vn -0.903708 0.427799 -0.017296
v 1.8046 -5.98235 -31.6801
vn -0.908705 0.409884 0.0790609
v 1.80719 -5.99745 -31.6141
vn -0.90495 0.388022 0.174656
v 1.8158 -6.01512 -31.5493
vn -0.89248 0.362423 0.26857
v 1.83035 -6.03521 -31.4862
vn -0.871414 0.333334 0.359897
v 1.85069 -6.05751 -31.4255
vn -0.841957 0.301034 0.447758
v 1.87662 -6.08181 -31.3678
vn -0.804391 0.265836 0.531306
v 1.90791 -6.10788 -31.3137
vn -0.759078 0.228077 0.609739
v 1.94424 -6.13547 -31.2636
vn -0.706455 0.188121 0.682298
v 1.98528 -6.16431 -31.218
vn -0.647029 0.146354 0.748287
v 2.03061 -6.19412 -31.1774
vn -0.581371 0.103178 0.80707
v 2.07981 -6.22462 -31.1422
vn -0.510114 0.0590077 0.85808
v 2.1324 -6.25551 -31.1127
vn -0.433945 0.0142693 0.900826
v 2.18788 -6.28649 -31.0892
vn -0.353597 -0.0306066 0.934897
v 2.24571 -6.31728 -31.0719
vn -0.269843 -0.0751877 0.959964
v 1.56204 -7.94854 -31.4614
vn -0.212193 -0.180861 0.960346
v 1.62299 -7.97783 -31.4569
vn -0.123935 -0.223274 0.966845
v 1.68476 -8.00564 -31.4589
vn -0.0344832 -0.263537 0.964033
v 1.74677 -8.03169 -31.4672
vn 0.0553003 -0.301261 0.951937
v 1.8084 -8.05574 -31.4819
vn 0.144551 -0.336085 0.930673
v 1.86908 -8.07755 -31.5028
vn 0.23241 -0.367671 0.900446
v 1.92821 -8.09692 -31.5297
vn 0.318031 -0.395717 0.861548
v 1.98522 -8.11366 -31.5623
vn 0.400589 -0.419952 0.814352
v 2.03957 -8.1276 -31.6003
vn 0.479288 -0.440142 0.759314
v 2.09073 -8.13861 -31.6433
vn 0.553373 -0.456094 0.696963
v 2.13821 -8.1466 -31.691
vn 0.622127 -0.467653 0.6279
v 2.18155 -8.15147 -31.7429
vn 0.684891 -0.474708 0.55279
v 2.22034 -8.15318 -31.7984
vn 0.741058 -0.477192 0.472356
v 2.2542 -8.15173 -31.8571
vn 0.790089 -0.47508 0.387373
v 2.28281 -8.14711 -31.9184
vn 0.831511 -0.468393 0.29866
v 2.30588 -8.13938 -31.9816
vn 0.864925 -0.457195 0.20707
v 2.3232 -8.1286 -32.0463
vn 0.890009 -0.441594 0.113486
v 2.33461 -8.11489 -32.1116
vn 0.906522 -0.42174 0.0188095
v 2.33998 -8.09837 -32.1772
vn 0.914304 -0.397825 -0.0760485
v 2.33928 -8.07921 -32.2422
vn 0.913282 -0.370078 -0.170174
v 2.3325 -8.05759 -32.306
vn 0.903463 -0.338767 -0.262661
v 2.31971 -8.03371 -32.3681
vn 0.884945 -0.304194 -0.352618
v 2.30103 -8.00782 -32.4279
vn 0.857903 -0.266691 -0.439179
v 2.27665 -7.98014 -32.4848
vn 0.8226 -0.22662 -0.521511
v 2.2468 -7.95096 -32.5382
vn 0.779374 -0.184366 -0.59882
v 2.21177 -7.92056 -32.5876
vn 0.728643 -0.140337 -0.670362
v 2.17189 -7.88922 -32.6325
vn 0.670894 -0.0949559 -0.735449
v 2.12755 -7.85725 -32.6726
vn 0.606684 -0.0486607 -0.793452
v 2.07917 -7.82495 -32.7074
vn 0.536632 -0.00189682 -0.843814
v 2.02722 -7.79265 -32.7365
vn 0.461411 0.0448853 -0.88605
v 1.97221 -7.76064 -32.7598
vn 0.381747 0.0912352 -0.919753
v 1.91465 -7.72924 -32.777
vn 0.298407 0.136706 -0.944598
v 1.85512 -7.69874 -32.7878
vn 0.212193 0.180861 -0.960346
v 1.79417 -7.66945 -32.7923
vn 0.123935 0.223274 -0.966845
v 1.73239 -7.64165 -32.7904
vn 0.0344832 0.263537 -0.964033
v 1.67039 -7.6156 -32.782
vn -0.0553003 0.301261 -0.951937
v 1.60875 -7.59155 -32.7673
vn -0.144551 0.336085 -0.930673
v 1.54808 -7.56974 -32.7465
vn -0.23241 0.367671 -0.900446
v 1.48895 -7.55037 -32.7196
vn -0.318031 0.395717 -0.861548
v 1.43194 -7.53363 -32.687
vn -0.400589 0.419952 -0.814352
v 1.37759 -7.51969 -32.649
vn -0.479288 0.440142 -0.759314
v 1.32643 -7.50867 -32.6059
vn -0.553373 0.456094 -0.696963
v 1.27895 -7.50069 -32.5583
vn -0.622127 0.467653 -0.6279
v 1.2356 -7.49582 -32.5064
vn -0.684891 0.474708 -0.55279
v 1.19681 -7.4941 -32.4508
vn -0.741058 0.477192 -0.472356
v 1.16295 -7.49556 -32.3921
vn -0.790089 0.47508 -0.387373
v 1.13435 -7.50018 -32.3309
vn -0.831511 0.468393 -0.29866
v 1.11127 -7.50791 -32.2676
vn -0.864925 0.457195 -0.20707
v 1.09395 -7.51869 -32.203
vn -0.890009 0.441594 -0.113486
v 1.08255 -7.5324 -32.1376
vn -0.906522 0.42174 -0.0188095
v 1.07717 -7.54891 -32.0721
vn -0.914304 0.397825 0.0760485
v 1.07788 -7.56807 -32.0071
vn -0.913282 0.370078 0.170174
v 1.08466 -7.5897 -31.9432
vn -0.903463 0.338767 0.262661
v 1.09745 -7.61357 -31.8811
vn -0.884945 0.304194 0.352618
v 1.11612 -7.63947 -31.8213
vn -0.857903 0.266691 0.439179
v 1.1405 -7.66714 -31.7645
vn -0.8226 0.22662 0.521511
v 1.17035 -7.69632 -31.7111
vn -0.779374 0.184366 0.59882
v 1.20539 -7.72673 -31.6617
vn -0.728643 0.140337 0.670362
v 1.24527 -7.75807 -31.6167
vn -0.670894 0.0949559 0.735449
v 1.28961 -7.79004 -31.5767
vn -0.606684 0.0486607 0.793452
v 1.33799 -7.82233 -31.5419
vn -0.536632 0.00189682 0.843814
v 1.38993 -7.85464 -31.5127
vn -0.461411 -0.0448853 0.88605
v 1.44495 -7.88665 -31.4895
vn -0.381747 -0.0912352 0.919753
v 1.5025 -7.91805 -31.4723
vn -0.298407 -0.136706 0.944598
v 0.82852 -9.56339 -31.9925
vn -0.238562 -0.238907 0.941282
v 0.889568 -9.59249 -31.9879
vn -0.150177 -0.28104 0.947873
v 0.951615 -9.61972 -31.9897
vn -0.0603461 -0.320467 0.945336
v 1.01406 -9.64482 -31.9977
vn 0.0300662 -0.356807 0.933694
v 1.07631 -9.66755 -32.012
vn 0.120189 -0.389712 0.91306
v 1.13776 -9.68769 -32.0323
vn 0.209154 -0.418863 0.883634
v 1.19782 -9.70503 -32.0585
vn 0.296105 -0.44398 0.845697
v 1.25591 -9.71943 -32.0903
vn 0.380205 -0.464822 0.799616
v 1.31147 -9.73073 -32.1275
vn 0.460642 -0.481187 0.745834
v 1.36396 -9.73884 -32.1696
vn 0.536644 -0.492918 0.684869
v 1.41289 -9.74366 -32.2162
vn 0.607477 -0.499901 0.617309
v 1.45777 -9.74516 -32.267
vn 0.67246 -0.502071 0.543803
v 1.49818 -9.74332 -32.3214
vn 0.730967 -0.499405 0.465061
v 1.53373 -9.73815 -32.3789
vn 0.782434 -0.49193 0.381839
v 1.56407 -9.72972 -32.4389
vn 0.826366 -0.479717 0.294941
v 1.58892 -9.71809 -32.5009
vn 0.86234 -0.462885 0.205202
v 1.60803 -9.70339 -32.5642
vn 0.890009 -0.441594 0.113486
v 1.62122 -9.68574 -32.6283
vn 0.909106 -0.416051 0.020678
v 1.62837 -9.66533 -32.6926
vn 0.919449 -0.3865 -0.0723293
v 1.62939 -9.64235 -32.7563
vn 0.920936 -0.353228 -0.16464
v 1.6243 -9.61702 -32.819
vn 0.913555 -0.316554 -0.255365
v 1.61312 -9.58958 -32.88
vn 0.897375 -0.276831 -0.343631
v 1.59598 -9.56031 -32.9387
vn 0.872553 -0.234442 -0.428588
v 1.57303 -9.52947 -32.9945
vn 0.839328 -0.189796 -0.509417
v 1.5445 -9.49737 -33.0469
vn 0.79802 -0.143321 -0.58534
v 1.51065 -9.46431 -33.0955
vn 0.749027 -0.0954668 -0.655626
v 1.47183 -9.43063 -33.1397
vn 0.69282 -0.0466927 -0.719598
v 1.4284 -9.39663 -33.1791
vn 0.62994 0.00253101 -0.77664
v 1.38078 -9.36264 -33.2133
vn 0.560994 0.0517304 -0.826202
v 1.32943 -9.32901 -33.242
vn 0.486646 0.100432 -0.867807
v 1.27484 -9.29604 -33.265
vn 0.40761 0.148166 -0.901055
v 1.21753 -9.26405 -33.282
vn 0.324649 0.194473 -0.925626
v 1.15807 -9.23336 -33.2928
vn 0.238562 0.238907 -0.941282
v 1.09703 -9.20426 -33.2973
vn 0.150177 0.28104 -0.947873
v 1.03498 -9.17703 -33.2956
vn 0.0603461 0.320467 -0.945336
v 0.97253 -9.15193 -33.2875
vn -0.0300662 0.356807 -0.933694
v 0.910281 -9.1292 -33.2733
vn -0.120189 0.389712 -0.91306
v 0.848832 -9.10906 -33.253
vn -0.209154 0.418863 -0.883634
v 0.788775 -9.09171 -33.2268
vn -0.296105 0.44398 -0.845697
v 0.730687 -9.07732 -33.1949
vn -0.380205 0.464822 -0.799616
v 0.675128 -9.06602 -33.1578
vn -0.460642 0.481187 -0.745834
v 0.622633 -9.05791 -33.1157
vn -0.536644 0.492918 -0.684869
v 0.573708 -9.05309 -33.069
vn -0.607477 0.499901 -0.617309
v 0.528824 -9.05159 -33.0182
vn -0.67246 0.502071 -0.543803
v 0.488413 -9.05343 -32.9638
vn -0.730967 0.499405 -0.465061
v 0.452864 -9.0586 -32.9064
vn -0.782434 0.49193 -0.381839
v 0.42252 -9.06703 -32.8463
vn -0.826366 0.479717 -0.294941
v 0.397672 -9.07866 -32.7844
vn -0.86234 0.462885 -0.205202
v 0.378561 -9.09336 -32.721
vn -0.890009 0.441594 -0.113486
v 0.365371 -9.11101 -32.6569
vn -0.909106 0.416051 -0.020678
v 0.358227 -9.13142 -32.5927
vn -0.919449 0.3865 0.0723293
v 0.3572 -9.1544 -32.5289
vn -0.920936 0.353228 0.16464
v 0.362298 -9.17973 -32.4662
vn -0.913555 0.316554 0.255365
v 0.373473 -9.20717 -32.4053
vn -0.897375 0.276831 0.343631
v 0.390618 -9.23644 -32.3466
vn -0.872553 0.234442 0.428588
v 0.413567 -9.26728 -32.2908
vn -0.839328 0.189796 0.509417
v 0.442099 -9.29938 -32.2383
vn -0.79802 0.143321 0.58534
v 0.475939 -9.33244 -32.1898
vn -0.749027 0.0954668 0.655626
v 0.514761 -9.36612 -32.1456
vn -0.69282 0.0466927 0.719598
v 0.558193 -9.40012 -32.1062
vn -0.62994 -0.00253101 0.77664
v 0.605814 -9.43411 -32.072
vn -0.560994 -0.0517304 0.826202
v 0.657167 -9.46774 -32.0432
vn -0.486646 -0.100432 0.867807
v 0.711758 -9.50071 -32.0203
vn -0.40761 -0.148166 0.901055
v 0.769059 -9.5327 -32.0033
vn -0.324649 -0.194473 0.925626
f 1 66 2 
f 1 65 66 
f 2 67 3 
f 2 66 67 
f 3 68 4 
f 3 67 68 
f 4 69 5 
f 4 68 69 
f 5 70 6 
f 5 69 70 
f 6 71 7 
f 6 70 71 
f 7 72 8 
f 7 71 72 
f 8 73 9 
f 8 72 73 
f 9 74 10 
f 9 73 74 
f 10 75 11 
f 10 74 75 
f 11 76 12 
f 11 75 76 
f 12 77 13 
f 12 76 77 
f 13 78 14 
f 13 77 78 
f 14 79 15 
f 14 78 79 
f 15 80 16 
f 15 79 80 
f 16 81 17 
f 16 80 81 
f 17 82 18 
f 17 81 82 
f 18 83 19 
f 18 82 83 
f 19 84 20 
f 19 83 84 
f 20 85 21 
f 20 84 85 
f 21 86 22 
f 21 85 86 
f 22 87 23 
f 22 86 87 
f 23 88 24 
f 23 87 88 
f 24 89 25 
f 24 88 89 
f 25 90 26 
f 25 89 90 
f 26 91 27 
f 26 90 91 
f 27 92 28 
f 27 91 92 
f 28 93 29 
f 28 92 93 
f 29 94 30 
f 29 93 94 
f 30 95 31 
f 30 94 95 
f 31 96 32 
f 31 95 96 
f 32 97 33 
f 32 96 97 
f 33 98 34 
f 33 97 98 
f 34 99 35 
f 34 98 99 
f 35 100 36 
f 35 99 100 
f 36 101 37 
f 36 100 101 
f 37 102 38 
f 37 101 102 
f 38 103 39 
f 38 102 103 
f 39 104 40 
f 39 103 104 
f 40 105 41 
f 40 104 105 
f 41 106 42 
f 41 105 106 
f 42 107 43 
f 42 106 107 
f 43 108 44 
f 43 107 108 
f 44 109 45 
f 44 108 109 
f 45 110 46 
f 45 109 110 
f 46 111 47 
f 46 110 111 
f 47 112 48 
f 47 111 112 
f 48 113 49 
f 48 112 113 
f 49 114 50 
f 49 113 114 
f 50 115 51 
f 50 114 115 
f 51 116 52 
f 51 115 116 
f 52 117 53 
f 52 116 117 
f 53 118 54 
f 53 117 118 
f 54 119 55 
f 54 118 119 
f 55 120 56 
f 55 119 120 
f 56 121 57 
f 56 120 121 
f 57 122 58 
f 57 121 122 
f 58 123 59 
f 58 122 123 
f 59 124 60 
f 59 123 124 
f 60 125 61 
f 60 124 125 
f 61 126 62 
f 61 125 126 
f 62 127 63 
f 62 126 127 
f 63 128 64 
f 63 127 128 
f 64 65 1 
f 64 128 65 
f 65 130 66 
f 65 129 130 
f 66 131 67 
f 66 130 131 
f 67 132 68 
f 67 131 132 
f 68 133 69 
f 68 132 133 
f 69 134 70 
f 69 133 134 
f 70 135 71 
f 70 134 135 
f 71 136 72 
f 71 135 136 
f 72 137 73 
f 72 136 137 
f 73 138 74 
f 73 137 138 
f 74 139 75 
f 74 138 139 
f 75 140 76 
f 75 139 140 
f 76 141 77 
f 76 140 141 
f 77 142 78 
f 77 141 142 
f 78 143 79 
f 78 142 143 
f 79 144 80 
f 79 143 144 
f 80 145 81 
f 80 144 145 
f 81 146 82 
f 81 145 146 
f 82 147 83 
f 82 146 147 
f 83 148 84 
f 83 147 148 
f 84 149 85 
f 84 148 149 
f 85 150 86 
f 85 149 150 
f 86 151 87 
f 86 150 151 
f 87 152 88 
f 87 151 152 
f 88 153 89 
f 88 152 153 
f 89 154 90 
f 89 153 154 
f 90 155 91 
f 90 154 155 
f 91 156 92 
f 91 155 156 
f 92 157 93 
f 92 156 157 
f 93 158 94 
f 93 157 158 
f 94 159 95 
f 94 158 159 
f 95 160 96 
f 95 159 160 
f 96 161 97 
f 96 160 161 
f 97 162 98 
f 97 161 162 
f 98 163 99 
f 98 162 163 
f 99 164 100 
f 99 163 164 
f 100 165 101 
f 100 164 165 
f 101 166 102 
f 101 165 166 
f 102 167 103 
f 102 166 167 
f 103 168 104 
f 103 167 168 
f 104 169 105 
f 104 168 169 
f 105 170 106 
f 105 169 170 
f 106 171 107 
f 106 170 171 
f 107 172 108 
f 107 171 172 
f 108 173 109 
f 108 172 173 
f 109 174 110 
f 109 173 174 
f 110 175 111 
f 110 174 175 
f 111 176 112 
f 111 175 176 
f 112 177 113 
f 112 176 177 
f 113 178 114 
f 113 177 178 
f 114 179 115 
f 114 178 179 
f 115 180 116 
f 115 179 180 
f 116 181 117 
f 116 180 181 
f 117 182 118 
f 117 181 182 
f 118 183 119 
f 118 182 183 
f 119 184 120 
f 119 183 184 
f 120 185 121 
f 120 184 185 
f 121 186 122 
f 121 185 186 
f 122 187 123 
f 122 186 187 
f 123 188 124 
f 123 187 188 
f 124 189 125 
f 124 188 189 
f 125 190 126 
f 125 189 190 
f 126 191 127 
f 126 190 191 
f 127 192 128 
f 127 191 192 
f 128 129 65 
f 128 192 129 
f 129 194 130 
f 129 193 194 
f 130 195 131 
f 130 194 195 
f 131 196 132 
f 131 195 196 
f 132 197 133 
f 132 196 197 
f 133 198 134 
f 133 197 198 
f 134 199 135 
f 134 198 199 
f 135 200 136 
f 135 199 200 
f 136 201 137 
f 136 200 201 
f 137 202 138 
f 137 201 202 
f 138 203 139 
f 138 202 203 
f 139 204 140 
f 139 203 204 
f 140 205 141 
f 140 204 205 
f 141 206 142 
f 141 205 206 
f 142 207 143 
f 142 206 207 
f 143 208 144 
f 143 207 208 
f 144 209 145 
f 144 208 209 
f 145 210 146 
f 145 209 210 
f 146 211 147 
f 146 210 211 
f 147 212 148 
f 147 211 212 
f 148 213 149 
f 148 212 213 
f 149 214 150 
f 149 213 214 
f 150 215 151 
f 150 214 215 
f 151 216 152 
f 151 215 216 
f 152 217 153 
f 152 216 217 
f 153 218 154 
f 153 217 218 
f 154 219 155 
f 154 218 219 
f 155 220 156 
f 155 219 220 
f 156 221 157 
f 156 220 221 
f 157 222 158 
f 157 221 222 
f 158 223 159 
f 158 222 223 
f 159 224 160 
f 159 223 224 
f 160 225 161 
f 160 224 225 
f 161 226 162 
f 161 225 226 
f 162 227 163 
f 162 226 227 
f 163 228 164 
f 163 227 228 
f 164 229 165 
f 164 228 229 
f 165 230 166 
f 165 229 230 
f 166 231 167 
f 166 230 231 
f 167 232 168 
f 167 231 232 
f 168 233 169 
f 168 232 233 
f 169 234 170 
f 169 233 234 
f 170 235 171 
f 170 234 235 
f 171 236 172 
f 171 235 236 
f 172 237 173 
f 172 236 237 
f 173 238 174 
f 173 237 238 
f 174 239 175 
f 174 238 239 
f 175 240 176 
f 175 239 240 
f 176 241 177 
f 176 240 241 
f 177 242 178 
f 177 241 242 
f 178 243 179 
f 178 242 243 
f 179 244 180 
f 179 243 244 
f 180 245 181 
f 180 244 245 
f 181 246 182 
f 181 245 246 
f 182 247 183 
f 182 246 247 
f 183 248 184 
f 183 247 248 
f 184 249 185 
f 184 248 249 
f 185 250 186 
f 185 249 250 
f 186 251 187 
f 186 250 251 
f 187 252 188 
f 187 251 252 
f 188 253 189 
f 188 252 253 
f 189 254 190 
f 189 253 254 
f 190 255 191 
f 190 254 255 
f 191 256 192 
f 191 255 256 
f 192 193 129 
f 192 256 193 
f 193 258 194 
f 193 257 258 
f 194 259 195 
f 194 258 259 
f 195 260 196 
f 195 259 260 
f 196 261 197 
f 196 260 261 
f 197 262 198 
f 197 261 262 
f 198 263 199 
f 198 262 263 
f 199 264 200 
f 199 263 264 
f 200 265 201 
f 200 264 265 
f 201 266 202 
f 201 265 266 
f 202 267 203 
f 202 266 267 
f 203 268 204 
f 203 267 268 
f 204 269 205 
f 204 268 269 
f 205 270 206 
f 205 269 270 
f 206 271 207 
f 206 270 271 
f 207 272 208 
f 207 271 272 
f 208 273 209 
f 208 272 273 
f 209 274 210 
f 209 273 274 
f 210 275 211 
f 210 274 275 
f 211 276 212 
f 211 275 276 
f 212 277 213 
f 212 276 277 
f 213 278 214 
f 213 277 278 
f 214 279 215 
f 214 278 279 
f 215 280 216 
f 215 279 280 
f 216 281 217 
f 216 280 281 
f 217 282 218 
f 217 281 282 
f 218 283 219 
f 218 282 283 
f 219 284 220 
f 219 283 284 
f 220 285 221 
f 220 284 285 
f 221 286 222 
f 221 285 286 
f 222 287 223 
f 222 286 287 
f 223 288 224 
f 223 287 288 
f 224 289 225 
f 224 288 289 
f 225 290 226 
f 225 289 290 
f 226 291 227 
f 226 290 291 
f 227 292 228 
f 227 291 292 
f 228 293 229 
f 228 292 293 
f 229 294 230 
f 229 293 294 
f 230 295 231 
f 230 294 295 
f 231 296 232 
f 231 295 296 
f 232 297 233 
f 232 296 297 
f 233 298 234 
f 233 297 298 
f 234 299 235 
f 234 298 299 
f 235 300 236 
f 235 299 300 
f 236 301 237 
f 236 300 301 
f 237 302 238 
f 237 301 302 
f 238 303 239 
f 238 302 303 
f 239 304 240 
f 239 303 304 
f 240 305 241 
f 240 304 305 
f 241 306 242 
f 241 305 306 
f 242 307 243 
f 242 306 307 
f 243 308 244 
f 243 307 308 
f 244 309 245 
f 244 308 309 
f 245 310 246 
f 245 309 310 
f 246 311 247 
f 246 310 311 
f 247 312 248 
f 247 311 312 
f 248 313 249 
f 248 312 313 
f 249 314 250 
f 249 313 314 
f 250 315 251 
f 250 314 315 
f 251 316 252 
f 251 315 316 
f 252 317 253 
f 252 316 317 
f 253 318 254 
f 253 317 318 
f 254 319 255 
f 254 318 319 
f 255 320 256 
f 255 319 320 
f 256 257 193 
f 256 320 257 
f 257 322 258 
f 257 321 322 
f 258 323 259 
f 258 322 323 
f 259 324 260 
f 259 323 324 
f 260 325 261 
f 260 324 325 
f 261 326 262 
f 261 325 326 
f 262 327 263 
f 262 326 327 
f 263 328 264 
f 263 327 328 
f 264 329 265 
f 264 328 329 
f 265 330 266 
f 265 329 330 
f 266 331 267 
f 266 330 331 
f 267 332 268 
f 267 331 332 
f 268 333 269 
f 268 332 333 
f 269 334 270 
f 269 333 334 
f 270 335 271 
f 270 334 335 
f 271 336 272 
f 271 335 336 
f 272 337 273 
f 272 336 337 
f 273 338 274 
f 273 337 338 
f 274 339 275 
f 274 338 339 
f 275 340 276 
f 275 339 340 
f 276 341 277 
f 276 340 341 
f 277 342 278 
f 277 341 342 
f 278 343 279 
f 278 342 343 
f 279 344 280 
f 279 343 344 
f 280 345 281 
f 280 344 345 
f 281 346 282 
f 281 345 346 
f 282 347 283 
f 282 346 347 
f 283 348 284 
f 283 347 348 
f 284 349 285 
f 284 348 349 
f 285 350 286 
f 285 349 350 
f 286 351 287 
f 286 350 351 
f 287 352 288 
f 287 351 352 
f 288 353 289 
f 288 352 353 
f 289 354 290 
f 289 353 354 
f 290 355 291 
f 290 354 355 
f 291 356 292 
f 291 355 356 
f 292 357 293 
f 292 356 357 
f 293 358 294 
f 293 357 358 
f 294 359 295 
f 294 358 359 
f 295 360 296 
f 295 359 360 
f 296 361 297 
f 296 360 361 
f 297 362 298 
f 297 361 362 
f 298 363 299 
f 298 362 363 
f 299 364 300 
f 299 363 364 
f 300 365 301 
f 300 364 365 
f 301 366 302 
f 301 365 366 
f 302 367 303 
f 302 366 367 
f 303 368 304 
f 303 367 368 
f 304 369 305 
f 304 368 369 
f 305 370 306 
f 305 369 370 
f 306 371 307 
f 306 370 371 
f 307 372 308 
f 307 371 372 
f 308 373 309 
f 308 372 373 
f 309 374 310 
f 309 373 374 
f 310 375 311 
f 310 374 375 
f 311 376 312 
f 311 375 376 
f 312 377 313 
f 312 376 377 
f 313 378 314 
f 313 377 378 
f 314 379 315 
f 314 378 379 
f 315 380 316 
f 315 379 380 
f 316 381 317 
f 316 380 381 
f 317 382 318 
f 317 381 382 
f 318 383 319 
f 318 382 383 
f 319 384 320 
f 319 383 384 
f 320 321 257 
f 320 384 321 
f 321 386 322 
f 321 385 386 
f 322 387 323 
f 322 386 387 
f 323 388 324 
f 323 387 388 
f 324 389 325 
f 324 388 389 
f 325 390 326 
f 325 389 390 
f 326 391 327 
f 326 390 391 
f 327 392 328 
f 327 391 392 
f 328 393 329 
f 328 392 393 
f 329 394 330 
f 329 393 394 
f 330 395 331 
f 330 394 395 
f 331 396 332 
f 331 395 396 
f 332 397 333 
f 332 396 397 
f 333 398 334 
f 333 397 398 
f 334 399 335 
f 334 398 399 
f 335 400 336 
f 335 399 400 
f 336 401 337 
f 336 400 401 
f 337 402 338 
f 337 401 402 
f 338 403 339 
f 338 402 403 
f 339 404 340 
f 339 403 404 
f 340 405 341 
f 340 404 405 
f 341 406 342 
f 341 405 406 
f 342 407 343 
f 342 406 407 
f 343 408 344 
f 343 407 408 
f 344 409 345 
f 344 408 409 
f 345 410 346 
f 345 409 410 
f 346 411 347 
f 346 410 411 
f 347 412 348 
f 347 411 412 
f 348 413 349 
f 348 412 413 
f 349 414 350 
f 349 413 414 
f 350 415 351 
f 350 414 415 
f 351 416 352 
f 351 415 416 
f 352 417 353 
f 352 416 417 
f 353 418 354 
f 353 417 418 
f 354 419 355 
f 354 418 419 
f 355 420 356 
f 355 419 420 
f 356 421 357 
f 356 420 421 
f 357 422 358 
f 357 421 422 
f 358 423 359 
f 358 422 423 
f 359 424 360 
f 359 423 424 
f 360 425 361 
f 360 424 425 
f 361 426 362 
f 361 425 426 
f 362 427 363 
f 362 426 427 
f 363 428 364 
f 363 427 428 
f 364 429 365 
f 364 428 429 
f 365 430 366 
f 365 429 430 
f 366 431 367 
f 366 430 431 
f 367 432 368 
f 367 431 432 
f 368 433 369 
f 368 432 433 
f 369 434 370 
f 369 433 434 
f 370 435 371 
f 370 434 435 
f 371 436 372 
f 371 435 436 
f 372 437 373 
f 372 436 437 
f 373 438 374 
f 373 437 438 
f 374 439 375 
f 374 438 439 
f 375 440 376 
f 375 439 440 
f 376 441 377 
f 376 440 441 
f 377 442 378 
f 377 441 442 
f 378 443 379 
f 378 442 443 
f 379 444 380 
f 379 443 444 
f 380 445 381 
f 380 444 445 
f 381 446 382 
f 381 445 446 
f 382 447 383 
f 382 446 447 
f 383 448 384 
f 383 447 448 
f 384 385 321 
f 384 448 385 
f 385 450 386 
f 385 449 450 
f 386 451 387 
f 386 450 451 
f 387 452 388 
f 387 451 452 
f 388 453 389 
f 388 452 453 
f 389 454 390 
f 389 453 454 
f 390 455 391 
f 390 454 455 
f 391 456 392 
f 391 455 456 
f 392 457 393 
f 392 456 457 
f 393 458 394 
f 393 457 458 
f 394 459 395 
f 394 458 459 
f 395 460 396 
f 395 459 460 
f 396 461 397 
f 396 460 461 
f 397 462 398 
f 397 461 462 
f 398 463 399 
f 398 462 463 
f 399 464 400 
f 399 463 464 
f 400 465 401 
f 400 464 465 
f 401 466 402 
f 401 465 466 
f 402 467 403 
f 402 466 467 
f 403 468 404 
f 403 467 468 
f 404 469 405 
f 404 468 469 
f 405 470 406 
f 405 469 470 
f 406 471 407 
f 406 470 471 
f 407 472 408 
f 407 471 472 
f 408 473 409 
f 408 472 473 
f 409 474 410 
f 409 473 474 
f 410 475 411 
f 410 474 475 
f 411 476 412 
f 411 475 476 
f 412 477 413 
f 412 476 477 
f 413 478 414 
f 413 477 478 
f 414 479 415 
f 414 478 479 
f 415 480 416 
f 415 479 480 
f 416 481 417 
f 416 480 481 
f 417 482 418 
f 417 481 482 
f 418 483 419 
f 418 482 483 
f 419 484 420 
f 419 483 484 
f 420 485 421 
f 420 484 485 
f 421 486 422 
f 421 485 486 
f 422 487 423 
f 422 486 487 
f 423 488 424 
f 423 487 488 
f 424 489 425 
f 424 488 489 
f 425 490 426 
f 425 489 490 
f 426 491 427 
f 426 490 491 
f 427 492 428 
f 427 491 492 
f 428 493 429 
f 428 492 493 
f 429 494 430 
f 429 493 494 
f 430 495 431 
f 430 494 495 
f 431 496 432 
f 431 495 496 
f 432 497 433 
f 432 496 497 
f 433 498 434 
f 433 497 498 
f 434 499 435 
f 434 498 499 
f 435 500 436 
f 435 499 500 
f 436 501 437 
f 436 500 501 
f 437 502 438 
f 437 501 502 
f 438 503 439 
f 438 502 503 
f 439 504 440 
f 439 503 504 
f 440 505 441 
f 440 504 505 
f 441 506 442 
f 441 505 506 
f 442 507 443 
f 442 506 507 
f 443 508 444 
f 443 507 508 
f 444 509 445 
f 444 508 509 
f 445 510 446 
f 445 509 510 
f 446 511 447 
f 446 510 511 
f 447 512 448 
f 447 511 512 
f 448 449 385 
f 448 512 449 
f 449 514 450 
f 449 513 514 
f 450 515 451 
f 450 514 515 
f 451 516 452 
f 451 515 516 
f 452 517 453 
f 452 516 517 
f 453 518 454 
f 453 517 518 
f 454 519 455 
f 454 518 519 
f 455 520 456 
f 455 519 520 
f 456 521 457 
f 456 520 521 
f 457 522 458 
f 457 521 522 
f 458 523 459 
f 458 522 523 
f 459 524 460 
f 459 523 524 
f 460 525 461 
f 460 524 525 
f 461 526 462 
f 461 525 526 
f 462 527 463 
f 462 526 527 
f 463 528 464 
f 463 527 528 
f 464 529 465 
f 464 528 529 
f 465 530 466 
f 465 529 530 
f 466 531 467 
f 466 530 531 
f 467 532 468 
f 467 531 532 
f 468 533 469 
f 468 532 533 
f 469 534 470 
f 469 533 534 
f 470 535 471 
f 470 534 535 
f 471 536 472 
f 471 535 536 
f 472 537 473 
f 472 536 537 
f 473 538 474 
f 473 537 538 
f 474 539 475 
f 474 538 539 
f 475 540 476 
f 475 539 540 
f 476 541 477 
f 476 540 541 
f 477 542 478 
f 477 541 542 
f 478 543 479 
f 478 542 543 
f 479 544 480 
f 479 543 544 
f 480 545 481 
f 480 544 545 
f 481 546 482 
f 481 545 546 
f 482 547 483 
f 482 546 547 
f 483 548 484 
f 483 547 548 
f 484 549 485 
f 484 548 549 
f 485 550 486 
f 485 549 550 
f 486 551 487 
f 486 550 551 
f 487 552 488 
f 487 551 552 
f 488 553 489 
f 488 552 553 
f 489 554 490 
f 489 553 554 
f 490 555 491 
f 490 554 555 
f 491 556 492 
f 491 555 556 
f 492 557 493 
f 492 556 557 
f 493 558 494 
f 493 557 558 
f 494 559 495 
f 494 558 559 
f 495 560 496 
f 495 559 560 
f 496 561 497 
f 496 560 561 
f 497 562 498 
f 497 561 562 
f 498 563 499 
f 498 562 563 
f 499 564 500 
f 499 563 564 
f 500 565 501 
f 500 564 565 
f 501 566 502 
f 501 565 566 
f 502 567 503 
f 502 566 567 
f 503 568 504 
f 503 567 568 
f 504 569 505 
f 504 568 569 
f 505 570 506 
f 505 569 570 
f 506 571 507 
f 506 570 571 
f 507 572 508 
f 507 571 572 
f 508 573 509 
f 508 572 573 
f 509 574 510 
f 509 573 574 
f 510 575 511 
f 510 574 575 
f 511 576 512 
f 511 575 576 
f 512 513 449 
f 512 576 513 
f 513 578 514 
f 513 577 578 
f 514 579 515 
f 514 578 579 
f 515 580 516 
f 515 579 580 
f 516 581 517 
f 516 580 581 
f 517 582 518 
f 517 581 582 
f 518 583 519 
f 518 582 583 
f 519 584 520 
f 519 583 584 
f 520 585 521 
f 520 584 585 
f 521 586 522 
f 521 585 586 
f 522 587 523 
f 522 586 587 
f 523 588 524 
f 523 587 588 
f 524 589 525 
f 524 588 589 
f 525 590 526 
f 525 589 590 
f 526 591 527 
f 526 590 591 
f 527 592 528 
f 527 591 592 
f 528 593 529 
f 528 592 593 
f 529 594 530 
f 529 593 594 
f 530 595 531 
f 530 594 595 
f 531 596 532 
f 531 595 596 
f 532 597 533 
f 532 596 597 
f 533 598 534 
f 533 597 598 
f 534 599 535 
f 534 598 599 
f 535 600 536 
f 535 599 600 
f 536 601 537 
f 536 600 601 
f 537 602 538 
f 537 601 602 
f 538 603 539 
f 538 602 603 
f 539 604 540 
f 539 603 604 
f 540 605 541 
f 540 604 605 
f 541 606 542 
f 541 605 606 
f 542 607 543 
f 542 606 607 
f 543 608 544 
f 543 607 608 
f 544 609 545 
f 544 608 609 
f 545 610 546 
f 545 609 610 
f 546 611 547 
f 546 610 611 
f 547 612 548 
f 547 611 612 
f 548 613 549 
f 548 612 613 
f 549 614 550 
f 549 613 614 
f 550 615 551 
f 550 614 615 
f 551 616 552 
f 551 615 616 
f 552 617 553 
f 552 616 617 
f 553 618 554 
f 553 617 618 
f 554 619 555 
f 554 618 619 
f 555 620 556 
f 555 619 620 
f 556 621 557 
f 556 620 621 
f 557 622 558 
f 557 621 622 
f 558 623 559 
f 558 622 623 
f 559 624 560 
f 559 623 624 
f 560 625 561 
f 560 624 625 
f 561 626 562 
f 561 625 626 
f 562 627 563 
f 562 626 627 
f 563 628 564 
f 563 627 628 
f 564 629 565 
f 564 628 629 
f 565 630 566 
f 565 629 630 
f 566 631 567 
f 566 630 631 
f 567 632 568 
f 567 631 632 
f 568 633 569 
f 568 632 633 
f 569 634 570 
f 569 633 634 
f 570 635 571 
f 570 634 635 
f 571 636 572 
f 571 635 636 
f 572 637 573 
f 572 636 637 
f 573 638 574 
f 573 637 638 
f 574 639 575 
f 574 638 639 
f 575 640 576 
f 575 639 640 
f 576 577 513 
f 576 640 577 
