# Branch
v -8.79097 3.08522 -28.2635
vn 0.352282 0.256402 0.900086
v -8.72595 3.07714 -28.2905
vn 0.442318 0.24521 0.862686
v -8.664 3.06735 -28.3235
vn 0.528095 0.231657 0.816977
v -8.60573 3.05595 -28.3622
vn 0.608785 0.215873 0.7634
v -8.55169 3.04305 -28.4062
vn 0.683613 0.19801 0.702471
v -8.50241 3.02877 -28.4551
vn 0.751856 0.17824 0.634778
v -8.45836 3.01326 -28.5084
vn 0.81286 0.156753 0.56097
v -8.41996 2.99665 -28.5656
vn 0.866034 0.133757 0.481761
v -8.38758 2.97911 -28.6262
vn 0.910869 0.109472 0.397912
v -8.36154 2.96081 -28.6895
vn 0.946931 0.0841334 0.31023
v -8.34208 2.94193 -28.755
vn 0.973874 0.0579844 0.219562
v -8.3294 2.92264 -28.822
vn 0.991438 0.031277 0.126778
v -8.32361 2.90314 -28.8899
vn 0.999454 0.00426836 0.0327737
v -8.32477 2.88361 -28.958
vn 0.997844 -0.0227814 -0.0615464
v -8.33287 2.86423 -29.0257
vn 0.986625 -0.0496117 -0.155274
v -8.34784 2.8452 -29.0923
vn 0.965904 -0.0759643 -0.247506
v -8.36952 2.8267 -29.1571
vn 0.935881 -0.101585 -0.337354
v -8.39771 2.8089 -29.2197
vn 0.896845 -0.126228 -0.423953
v -8.43214 2.79198 -29.2793
vn 0.849171 -0.149655 -0.50647
v -8.47247 2.77611 -29.3353
vn 0.79332 -0.171641 -0.584109
v -8.51832 2.76142 -29.3873
vn 0.729828 -0.191973 -0.656122
v -8.56925 2.74808 -29.4348
vn 0.659308 -0.210457 -0.721817
v -8.62476 2.73619 -29.4772
vn 0.582439 -0.226914 -0.780561
v -8.68432 2.72588 -29.5142
vn 0.49996 -0.241186 -0.831787
v -8.74736 2.71726 -29.5454
vn 0.412666 -0.253135 -0.875002
v -8.81327 2.71039 -29.5705
vn 0.321399 -0.262647 -0.909791
v -8.88141 2.70534 -29.5893
vn 0.227035 -0.269628 -0.935818
v -8.95114 2.70218 -29.6016
vn 0.130486 -0.274013 -0.952833
v -9.02177 2.70092 -29.6073
vn 0.0326796 -0.27576 -0.960671
v -9.09263 2.70157 -29.6062
vn -0.0654414 -0.27485 -0.959257
v -9.16303 2.70414 -29.5986
vn -0.162932 -0.271294 -0.948606
v -9.2323 2.7086 -29.5843
vn -0.258854 -0.265125 -0.928818
v -9.29977 2.7149 -29.5635
vn -0.352282 -0.256402 -0.900086
v -9.36479 2.72298 -29.5365
vn -0.442318 -0.24521 -0.862686
v -9.42673 2.73277 -29.5035
vn -0.528095 -0.231657 -0.816977
v -9.485 2.74416 -29.4648
vn -0.608785 -0.215873 -0.7634
v -9.53904 2.75706 -29.4208
vn -0.683613 -0.19801 -0.702471
v -9.58832 2.77134 -29.3719
vn -0.751856 -0.17824 -0.634778
v -9.63238 2.78686 -29.3186
vn -0.81286 -0.156753 -0.56097
v -9.67078 2.80347 -29.2614
vn -0.866034 -0.133757 -0.481761
v -9.70315 2.821 -29.2009
vn -0.910869 -0.109472 -0.397912
v -9.7292 2.8393 -29.1376
vn -0.946931 -0.0841334 -0.31023
v -9.74865 2.85818 -29.0721
vn -0.973874 -0.0579844 -0.219562
v -9.76134 2.87747 -29.0051
vn -0.991438 -0.031277 -0.126778
v -9.76713 2.89698 -28.9372
vn -0.999454 -0.00426836 -0.0327737
v -9.76596 2.91651 -28.8691
vn -0.997844 0.0227814 0.0615464
v -9.75786 2.93588 -28.8014
vn -0.986625 0.0496117 0.155274
v -9.7429 2.95492 -28.7348
vn -0.965904 0.0759643 0.247506
v -9.72122 2.97342 -28.6699
vn -0.935881 0.101585 0.337354
v -9.69303 2.99121 -28.6074
vn -0.896845 0.126228 0.423953
v -9.6586 3.00813 -28.5478
vn -0.849171 0.149655 0.50647
v -9.61827 3.02401 -28.4917
vn -0.79332 0.171641 0.584109
v -9.57241 3.03869 -28.4397
vn -0.729828 0.191973 0.656122
v -9.52149 3.05204 -28.3923
vn -0.659308 0.210457 0.721817
v -9.46598 3.06392 -28.3498
vn -0.582439 0.226914 0.780561
v -9.40641 3.07423 -28.3128
vn -0.49996 0.241186 0.831787
v -9.34338 3.08286 -28.2816
vn -0.412666 0.253135 0.875002
v -9.27747 3.08973 -28.2565
vn -0.321399 0.262647 0.909791
v -9.20932 3.09477 -28.2377
vn -0.227035 0.269628 0.935818
v -9.1396 3.09794 -28.2254
vn -0.130486 0.274013 0.952833
v -9.06897 3.0992 -28.2198
vn -0.0326796 0.27576 0.960671
v -8.99811 3.09854 -28.2208
vn 0.0654414 0.27485 0.959257
v -8.92771 3.09597 -28.2285
vn 0.162932 0.271294 0.948606
v -8.85844 3.09152 -28.2428
vn 0.258854 0.265125 0.928818
v -8.83766 1.75419 -27.9923
vn 0.349099 0.13827 0.926828
v -8.77546 1.74685 -28.0182
vn 0.439151 0.127647 0.889299
v -8.71619 1.73866 -28.05
vn 0.524973 0.115795 0.843205
v -8.6604 1.72971 -28.0875
vn 0.605739 0.102828 0.788991
v -8.60865 1.72007 -28.1302
vn 0.680672 0.08887 0.727178
v -8.56142 1.70984 -28.1777
vn 0.749049 0.0740565 0.658362
v -8.51917 1.69911 -28.2296
vn 0.810213 0.0585297 0.583206
v -8.48232 1.688 -28.2854
vn 0.863574 0.0424393 0.502433
v -8.4512 1.6766 -28.3445
vn 0.908618 0.0259402 0.416821
v -8.42614 1.66503 -28.4064
vn 0.944912 0.00919124 0.327196
v -8.40735 1.6534 -28.4705
vn 0.972106 -0.00764622 0.234419
v -8.39504 1.64183 -28.5361
vn 0.989937 -0.0244101 0.139384
v -8.3893 1.63041 -28.6027
vn 0.998236 -0.0409388 0.0430075
v -8.39021 1.61926 -28.6696
vn 0.99692 -0.0570733 -0.0537835
v -8.39775 1.6085 -28.7361
vn 0.986004 -0.0726581 -0.150057
v -8.41185 1.59822 -28.8016
vn 0.965592 -0.0875432 -0.244884
v -8.43237 1.58852 -28.8654
vn 0.935881 -0.101585 -0.337354
v -8.45912 1.5795 -28.9271
vn 0.897156 -0.114649 -0.426575
v -8.49183 1.57124 -28.9858
vn 0.849792 -0.126608 -0.511687
v -8.5302 1.56382 -29.0412
vn 0.794244 -0.137349 -0.591872
v -8.57385 1.55731 -29.0927
vn 0.731047 -0.146766 -0.666356
v -8.62237 1.55179 -29.1397
vn 0.660809 -0.15477 -0.734424
v -8.67527 1.54729 -29.1818
vn 0.584207 -0.161284 -0.795418
v -8.73207 1.54386 -29.2187
vn 0.501979 -0.166244 -0.848752
v -8.7922 1.54154 -29.2498
vn 0.414917 -0.169603 -0.893912
v -8.8551 1.54035 -29.2751
vn 0.323859 -0.171329 -0.930463
v -8.92014 1.5403 -29.2941
vn 0.229682 -0.171405 -0.958053
v -8.98672 1.54138 -29.3068
vn 0.133293 -0.16983 -0.976417
v -9.05418 1.5436 -29.313
vn 0.0356202 -0.16662 -0.985378
v -9.12188 1.54693 -29.3127
vn -0.0623955 -0.161805 -0.984848
v -9.18917 1.55133 -29.3057
vn -0.15981 -0.155432 -0.974834
v -9.25539 1.55676 -29.2923
vn -0.255686 -0.147561 -0.955432
v -9.31991 1.56318 -29.2726
vn -0.349099 -0.13827 -0.926828
v -9.38211 1.57052 -29.2467
vn -0.439151 -0.127647 -0.889299
v -9.44138 1.57871 -29.2148
vn -0.524973 -0.115795 -0.843205
v -9.49717 1.58766 -29.1774
vn -0.605739 -0.102828 -0.788991
v -9.54893 1.5973 -29.1347
vn -0.680672 -0.08887 -0.727178
v -9.59615 1.60753 -29.0872
vn -0.749049 -0.0740565 -0.658362
v -9.6384 1.61826 -29.0352
vn -0.810213 -0.0585297 -0.583206
v -9.67526 1.62937 -28.9795
vn -0.863574 -0.0424393 -0.502433
v -9.70637 1.64077 -28.9203
vn -0.908618 -0.0259402 -0.416821
v -9.73144 1.65234 -28.8584
vn -0.944912 -0.00919124 -0.327196
v -9.75022 1.66397 -28.7943
vn -0.972106 0.00764622 -0.234419
v -9.76254 1.67555 -28.7287
vn -0.989937 0.0244101 -0.139384
v -9.76827 1.68696 -28.6621
vn -0.998236 0.0409388 -0.0430075
v -9.76736 1.69811 -28.5953
vn -0.99692 0.0570733 0.0537835
v -9.75982 1.70887 -28.5288
vn -0.986004 0.0726581 0.150057
v -9.74572 1.71915 -28.4633
vn -0.965592 0.0875432 0.244884
v -9.7252 1.72885 -28.3994
vn -0.935881 0.101585 0.337354
v -9.69845 1.73787 -28.3378
vn -0.897156 0.114649 0.426575
v -9.66574 1.74613 -28.279
vn -0.849792 0.126608 0.511687
v -9.62737 1.75355 -28.2236
vn -0.794244 0.137349 0.591872
v -9.58372 1.76006 -28.1722
vn -0.731047 0.146766 0.666356
v -9.53521 1.76559 -28.1252
vn -0.660809 0.15477 0.734424
v -9.4823 1.77008 -28.083
vn -0.584207 0.161284 0.795418
v -9.4255 1.77351 -28.0462
vn -0.501979 0.166244 0.848752
v -9.36537 1.77583 -28.015
vn -0.414917 0.169603 0.893912
v -9.30248 1.77702 -27.9898
vn -0.323859 0.171329 0.930463
v -9.23743 1.77707 -27.9707
vn -0.229682 0.171405 0.958053
v -9.17085 1.77599 -27.958
vn -0.133293 0.16983 0.976417
v -9.10339 1.77377 -27.9518
vn -0.0356202 0.16662 0.985378
v -9.03569 1.77044 -27.9522
vn 0.0623955 0.161805 0.984848
v -8.9684 1.76604 -27.9591
vn 0.15981 0.155432 0.974834
v -8.90218 1.76061 -27.9725
vn 0.255686 0.147561 0.955432
v -8.94169 0.402185 -27.8737
vn 0.340902 0.0193437 0.9399
v -8.8823 0.39556 -27.8985
vn 0.430993 0.00929342 0.902307
v -8.82565 0.388875 -27.929
vn 0.516933 -0.000846323 0.856025
v -8.77227 0.382196 -27.965
vn 0.597895 -0.0109779 0.801499
v -8.72269 0.375586 -28.006
vn 0.673099 -0.0210038 0.739254
v -8.67739 0.36911 -28.0517
vn 0.74182 -0.0308274 0.66989
v -8.6368 0.36283 -28.1017
vn 0.803397 -0.0403541 0.594074
v -8.6013 0.356805 -28.1555
vn 0.857237 -0.0494921 0.512537
v -8.57125 0.351095 -28.2125
vn 0.902822 -0.0581536 0.426064
v -8.54693 0.345755 -28.2722
vn 0.939712 -0.066255 0.335488
v -8.52858 0.340834 -28.334
vn 0.967552 -0.0737183 0.241681
v -8.51637 0.336382 -28.3974
vn 0.986073 -0.0804716 0.145546
v -8.51042 0.332441 -28.4617
vn 0.995099 -0.08645 0.0480097
v -8.51078 0.329049 -28.5263
vn 0.994541 -0.0915958 -0.0499891
v -8.51747 0.326238 -28.5906
vn 0.984405 -0.0958595 -0.147506
v -8.5304 0.324036 -28.654
vn 0.964788 -0.0992001 -0.243603
v -8.54946 0.322463 -28.7158
vn 0.935881 -0.101585 -0.337354
v -8.57446 0.321536 -28.7754
vn 0.89796 -0.102992 -0.427856
v -8.60516 0.321262 -28.8324
vn 0.851391 -0.103407 -0.514237
v -8.64126 0.321645 -28.8861
vn 0.796623 -0.102826 -0.595666
v -8.68242 0.322681 -28.936
vn 0.734183 -0.101255 -0.671358
v -8.72825 0.32436 -28.9816
vn 0.664673 -0.0987087 -0.740585
v -8.77829 0.326665 -29.0225
vn 0.588761 -0.0952118 -0.80268
v -8.83208 0.329575 -29.0584
vn 0.507179 -0.0907979 -0.857044
v -8.88908 0.333061 -29.0888
vn 0.420713 -0.0855096 -0.903155
v -8.94875 0.33709 -29.1134
vn 0.330195 -0.0793978 -0.940567
v -9.01052 0.341623 -29.1321
vn 0.236498 -0.0725214 -0.968922
v -9.07379 0.346617 -29.1447
vn 0.140522 -0.0649465 -0.987945
v -9.13796 0.352023 -29.1509
vn 0.0431934 -0.0567462 -0.997454
v -9.2024 0.35779 -29.1509
vn -0.0545513 -0.0479994 -0.997357
v -9.26649 0.363861 -29.1445
vn -0.151771 -0.0387903 -0.987654
v -9.32961 0.370178 -29.1318
vn -0.247528 -0.0292076 -0.96844
v -9.39117 0.376681 -29.113
vn -0.340902 -0.0193437 -0.9399
v -9.45056 0.383306 -29.0882
vn -0.430993 -0.00929342 -0.902307
v -9.50722 0.389991 -29.0577
vn -0.516933 0.000846323 -0.856025
v -9.56059 0.39667 -29.0218
vn -0.597895 0.0109779 -0.801499
v -9.61017 0.40328 -28.9807
vn -0.673099 0.0210038 -0.739254
v -9.65548 0.409756 -28.935
vn -0.74182 0.0308274 -0.66989
v -9.69607 0.416036 -28.885
vn -0.803397 0.0403541 -0.594074
v -9.73156 0.422061 -28.8313
vn -0.857237 0.0494921 -0.512537
v -9.76162 0.427771 -28.7742
vn -0.902822 0.0581536 -0.426064
v -9.78593 0.433111 -28.7145
vn -0.939712 0.066255 -0.335488
v -9.80429 0.438032 -28.6527
vn -0.967552 0.0737183 -0.241681
v -9.8165 0.442484 -28.5893
vn -0.986073 0.0804716 -0.145546
v -9.82245 0.446425 -28.525
vn -0.995099 0.08645 -0.0480097
v -9.82208 0.449817 -28.4604
vn -0.994541 0.0915958 0.0499891
v -9.8154 0.452628 -28.3961
vn -0.984405 0.0958595 0.147506
v -9.80247 0.45483 -28.3328
vn -0.964788 0.0992001 0.243603
v -9.78341 0.456403 -28.271
vn -0.935881 0.101585 0.337354
v -9.75841 0.45733 -28.2113
vn -0.89796 0.102992 0.427856
v -9.72771 0.457604 -28.1544
vn -0.851391 0.103407 0.514237
v -9.6916 0.457221 -28.1007
vn -0.796623 0.102826 0.595666
v -9.65044 0.456185 -28.0508
vn -0.734183 0.101255 0.671358
v -9.60462 0.454506 -28.0051
vn -0.664673 0.0987087 0.740585
v -9.55457 0.452201 -27.9642
vn -0.588761 0.0952118 0.80268
v -9.50079 0.449291 -27.9284
vn -0.507179 0.0907979 0.857044
v -9.44379 0.445805 -27.898
vn -0.420713 0.0855096 0.903155
v -9.38411 0.441776 -27.8733
vn -0.330195 0.0793978 0.940567
v -9.32234 0.437242 -27.8546
vn -0.236498 0.0725214 0.968922
v -9.25907 0.432249 -27.8421
vn -0.140522 0.0649465 0.987945
v -9.19491 0.426843 -27.8358
vn -0.0431934 0.0567462 0.997454
v -9.13047 0.421076 -27.8359
vn 0.0545513 0.0479994 0.997357
v -9.06638 0.415005 -27.8423
vn 0.151771 0.0387903 0.987654
v -9.00325 0.408688 -27.8549
vn 0.247528 0.0292076 0.96844
v -9.10215 -0.967575 -27.9064
vn 0.328384 -0.095374 0.939717
v -9.04555 -0.973537 -27.93
vn 0.418535 -0.104872 0.902125
v -8.99149 -0.978866 -27.9591
vn 0.504656 -0.11336 0.855846
v -8.94047 -0.983509 -27.9933
vn 0.585916 -0.120756 0.801324
v -8.893 -0.987422 -28.0324
vn 0.661534 -0.126989 0.739085
v -8.84953 -0.990568 -28.0759
vn 0.73078 -0.131999 0.669729
v -8.81047 -0.992915 -28.1235
vn 0.792989 -0.135738 0.593922
v -8.77621 -0.994442 -28.1747
vn 0.847561 -0.13817 0.512396
v -8.74708 -0.995133 -28.229
vn 0.89397 -0.139271 0.425935
v -8.72335 -0.994982 -28.2858
vn 0.93177 -0.139031 0.335372
v -8.70525 -0.993991 -28.3447
vn 0.960597 -0.137452 0.241579
v -8.69296 -0.992168 -28.405
vn 0.980172 -0.134549 0.14546
v -8.6866 -0.989533 -28.4663
vn 0.990308 -0.130351 0.0479396
v -8.68622 -0.986109 -28.5278
vn 0.990907 -0.124897 -0.0500422
v -8.69184 -0.98193 -28.589
vn 0.981963 -0.11824 -0.147542
v -8.70339 -0.977036 -28.6493
vn 0.963562 -0.110444 -0.243621
v -8.72077 -0.971474 -28.7081
vn 0.935881 -0.101585 -0.337354
v -8.7438 -0.965298 -28.765
vn 0.899187 -0.0917478 -0.427838
v -8.77228 -0.958567 -28.8192
vn 0.853833 -0.0810267 -0.514201
v -8.80591 -0.951347 -28.8703
vn 0.800257 -0.0695254 -0.595613
v -8.84438 -0.943706 -28.9178
vn 0.738974 -0.0573544 -0.671288
v -8.88732 -0.935718 -28.9612
vn 0.670574 -0.0446312 -0.740499
v -8.93432 -0.927461 -29.0002
vn 0.595716 -0.0314781 -0.802578
v -8.98492 -0.919013 -29.0343
vn 0.515121 -0.0180218 -0.856928
v -9.03863 -0.910457 -29.0633
vn 0.429565 -0.00439197 -0.903025
v -9.09494 -0.901873 -29.0868
vn 0.339872 0.00928014 -0.940426
v -9.1533 -0.893346 -29.1045
vn 0.246906 0.0228629 -0.96877
v -9.21316 -0.884957 -29.1165
vn 0.151562 0.0362254 -0.987784
v -9.27393 -0.876787 -29.1224
vn 0.0547585 0.0492391 -0.997285
v -9.33503 -0.868915 -29.1224
vn -0.0425723 0.0617786 -0.997182
v -9.39588 -0.861416 -29.1163
vn -0.139493 0.0737232 -0.987475
v -9.45588 -0.854363 -29.1042
vn -0.235071 0.0849577 -0.968258
v -9.51446 -0.847824 -29.0863
vn -0.328384 0.095374 -0.939717
v -9.57106 -0.841861 -29.0627
vn -0.418535 0.104872 -0.902125
v -9.62513 -0.836533 -29.0337
vn -0.504656 0.11336 -0.855846
v -9.67614 -0.831889 -28.9994
vn -0.585916 0.120756 -0.801324
v -9.72361 -0.827976 -28.9604
vn -0.661534 0.126989 -0.739085
v -9.76709 -0.824831 -28.9168
vn -0.73078 0.131999 -0.669729
v -9.80614 -0.822484 -28.8692
vn -0.792989 0.135738 -0.593922
v -9.8404 -0.820957 -28.818
vn -0.847561 0.13817 -0.512396
v -9.86954 -0.820266 -28.7638
vn -0.89397 0.139271 -0.425935
v -9.89327 -0.820416 -28.7069
vn -0.93177 0.139031 -0.335372
v -9.91136 -0.821408 -28.648
vn -0.960597 0.137452 -0.241579
v -9.92365 -0.82323 -28.5877
vn -0.980172 0.134549 -0.14546
v -9.93002 -0.825866 -28.5265
vn -0.990308 0.130351 -0.0479396
v -9.93039 -0.82929 -28.4649
vn -0.990907 0.124897 0.0500422
v -9.92478 -0.833469 -28.4037
vn -0.981963 0.11824 0.147542
v -9.91323 -0.838363 -28.3434
vn -0.963562 0.110444 0.243621
v -9.89585 -0.843925 -28.2846
vn -0.935881 0.101585 0.337354
v -9.87281 -0.850101 -28.2278
vn -0.899187 0.0917478 0.427838
v -9.84434 -0.856831 -28.1735
vn -0.853833 0.0810267 0.514201
v -9.8107 -0.864052 -28.1224
vn -0.800257 0.0695254 0.595613
v -9.77223 -0.871692 -28.0749
vn -0.738974 0.0573544 0.671288
v -9.72929 -0.87968 -28.0315
vn -0.670574 0.0446312 0.740499
v -9.68229 -0.887938 -27.9925
vn -0.595716 0.0314781 0.802578
v -9.6317 -0.896385 -27.9584
vn -0.515121 0.0180218 0.856928
v -9.57799 -0.904942 -27.9294
vn -0.429565 0.00439197 0.903025
v -9.52168 -0.913525 -27.906
vn -0.339872 -0.00928014 0.940426
v -9.46331 -0.922052 -27.8882
vn -0.246906 -0.0228629 0.96877
v -9.40346 -0.930441 -27.8762
vn -0.151562 -0.0362254 0.987784
v -9.34268 -0.938611 -27.8703
vn -0.0547585 -0.0492391 0.997285
v -9.28158 -0.946484 -27.8703
vn 0.0425723 -0.0617786 0.997182
v -9.22073 -0.953982 -27.8764
vn 0.139493 -0.0737232 0.987475
v -9.16073 -0.961035 -27.8885
vn 0.235071 -0.0849577 0.968258
v -9.31796 -2.35311 -28.0879
vn 0.312657 -0.201892 0.928162
v -9.26415 -2.35847 -28.1103
vn 0.402884 -0.210877 0.890626
v -9.21266 -2.36261 -28.1378
vn 0.489231 -0.217831 0.844513
v -9.16398 -2.36551 -28.1701
vn 0.570866 -0.222687 0.790267
v -9.11857 -2.36713 -28.207
vn 0.647004 -0.225399 0.72841
v -9.07689 -2.36745 -28.2481
vn 0.71691 -0.22594 0.659538
v -9.03932 -2.36647 -28.2929
vn 0.779913 -0.224305 0.584315
v -9.00622 -2.36421 -28.3412
vn 0.835404 -0.220509 0.503464
v -8.97793 -2.36068 -28.3923
vn 0.88285 -0.214591 0.417765
v -8.95471 -2.35592 -28.4458
vn 0.921793 -0.206605 0.328042
v -8.93678 -2.34997 -28.5012
vn 0.95186 -0.19663 0.23516
v -8.92431 -2.34289 -28.5579
vn 0.972759 -0.184761 0.140013
v -8.91744 -2.33475 -28.6154
vn 0.98429 -0.171113 0.0435179
v -8.91621 -2.32563 -28.6732
vn 0.986342 -0.155817 -0.0533963
v -8.92065 -2.31561 -28.7307
vn 0.978894 -0.13902 -0.149796
v -8.93072 -2.3048 -28.7873
vn 0.96202 -0.120885 -0.244754
v -8.94631 -2.29329 -28.8426
vn 0.935881 -0.101585 -0.337354
v -8.96727 -2.2812 -28.8959
vn 0.900728 -0.0813072 -0.426705
v -8.9934 -2.26864 -28.9467
vn 0.856902 -0.0602462 -0.511947
v -9.02446 -2.25573 -28.9946
vn 0.804822 -0.0386049 -0.592259
v -9.06014 -2.24261 -29.0391
vn 0.744992 -0.0165919 -0.666867
v -9.1001 -2.22938 -29.0797
vn 0.677987 0.00558092 -0.735052
v -9.14395 -2.21619 -29.1162
vn 0.604453 0.0277 -0.796159
v -9.19127 -2.20316 -29.148
vn 0.525098 0.0495523 -0.849598
v -9.24161 -2.19041 -29.175
vn 0.440686 0.0709274 -0.894855
v -9.29448 -2.17807 -29.1969
vn 0.352029 0.0916194 -0.931494
v -9.34937 -2.16626 -29.2134
vn 0.259982 0.111429 -0.959162
v -9.40576 -2.15509 -29.2244
vn 0.165432 0.130166 -0.977594
v -9.46309 -2.14466 -29.2297
vn 0.0692884 0.147649 -0.98661
v -9.52082 -2.13508 -29.2295
vn -0.0275226 0.16371 -0.986125
v -9.5784 -2.12645 -29.2235
vn -0.124068 0.178194 -0.976142
v -9.63526 -2.11883 -29.2119
vn -0.219419 0.190962 -0.956759
v -9.69086 -2.11232 -29.1949
vn -0.312657 0.201892 -0.928162
v -9.74467 -2.10696 -29.1725
vn -0.402884 0.210877 -0.890626
v -9.79616 -2.10281 -29.145
vn -0.489231 0.217831 -0.844513
v -9.84484 -2.09991 -29.1127
vn -0.570866 0.222687 -0.790267
v -9.89024 -2.0983 -29.0758
vn -0.647004 0.225399 -0.72841
v -9.93193 -2.09797 -29.0347
vn -0.71691 0.22594 -0.659538
v -9.9695 -2.09895 -28.9898
vn -0.779913 0.224305 -0.584315
v -10.0026 -2.10121 -28.9416
vn -0.835404 0.220509 -0.503464
v -10.0309 -2.10474 -28.8905
vn -0.88285 0.214591 -0.417765
v -10.0541 -2.1095 -28.837
vn -0.921793 0.206605 -0.328042
v -10.072 -2.11545 -28.7816
vn -0.95186 0.19663 -0.23516
v -10.0845 -2.12253 -28.7249
vn -0.972759 0.184761 -0.140013
v -10.0914 -2.13067 -28.6673
vn -0.98429 0.171113 -0.0435179
v -10.0926 -2.13979 -28.6095
vn -0.986342 0.155817 0.0533963
v -10.0882 -2.14981 -28.5521
vn -0.978894 0.13902 0.149796
v -10.0781 -2.16062 -28.4954
vn -0.96202 0.120885 0.244754
v -10.0625 -2.17213 -28.4402
vn -0.935881 0.101585 0.337354
v -10.0416 -2.18422 -28.3869
vn -0.900728 0.0813072 0.426705
v -10.0154 -2.19678 -28.3361
vn -0.856902 0.0602462 0.511947
v -9.98436 -2.20969 -28.2882
vn -0.804822 0.0386049 0.592259
v -9.94868 -2.22282 -28.2437
vn -0.744992 0.0165919 0.666867
v -9.90872 -2.23604 -28.203
vn -0.677987 -0.00558092 0.735052
v -9.86487 -2.24923 -28.1666
vn -0.604453 -0.0277 0.796159
v -9.81755 -2.26226 -28.1347
vn -0.525098 -0.0495523 0.849598
v -9.76721 -2.27501 -28.1078
vn -0.440686 -0.0709274 0.894855
v -9.71434 -2.28735 -28.0859
vn -0.352029 -0.0916194 0.931494
v -9.65945 -2.29916 -28.0694
vn -0.259982 -0.111429 0.959162
v -9.60306 -2.31033 -28.0584
vn -0.165432 -0.130166 0.977594
v -9.54573 -2.32076 -28.053
vn -0.0692884 -0.147649 0.98661
v -9.488 -2.33034 -28.0533
vn 0.0275226 -0.16371 0.986125
v -9.43042 -2.33898 -28.0593
vn 0.124068 -0.178194 0.976142
v -9.37356 -2.34659 -28.0708
vn 0.219419 -0.190962 0.956759
v -9.58812 -3.75379 -28.4156
vn 0.294962 -0.297743 0.907935
v -9.5371 -3.75861 -28.4367
vn 0.385274 -0.306266 0.870497
v -9.48818 -3.76176 -28.4626
vn 0.471876 -0.31184 0.824675
v -9.44183 -3.76321 -28.493
vn 0.553933 -0.314411 0.770911
v -9.39849 -3.76295 -28.5276
vn 0.630655 -0.313954 0.709723
v -9.35858 -3.76099 -28.566
vn 0.701304 -0.310473 0.6417
v -9.32249 -3.75733 -28.6079
vn 0.765199 -0.304002 0.567497
v -9.29056 -3.75202 -28.6529
vn 0.821725 -0.294603 0.487828
v -9.2631 -3.74511 -28.7006
vn 0.870337 -0.282368 0.403462
v -9.24037 -3.73666 -28.7504
vn 0.910568 -0.267413 0.31521
v -9.2226 -3.72676 -28.802
vn 0.942029 -0.249882 0.223922
v -9.20995 -3.7155 -28.8548
vn 0.964417 -0.229945 0.130478
v -9.20255 -3.70298 -28.9083
vn 0.977518 -0.207794 0.0357774
v -9.20047 -3.68934 -28.9619
vn 0.981205 -0.183641 -0.0592679
v -9.20372 -3.6747 -29.0153
vn 0.975442 -0.15772 -0.153742
v -9.21229 -3.6592 -29.0678
vn 0.960286 -0.13028 -0.246736
v -9.22607 -3.64299 -29.119
vn 0.935881 -0.101585 -0.337354
v -9.24495 -3.62623 -29.1684
vn 0.902463 -0.0719121 -0.424723
v -9.26874 -3.60907 -29.2154
vn 0.860354 -0.0415465 -0.508001
v -9.2972 -3.59169 -29.2597
vn 0.809959 -0.0107808 -0.586387
v -9.33008 -3.57426 -29.3008
vn 0.751764 0.0200888 -0.659126
v -9.36704 -3.55693 -29.3383
vn 0.686329 0.0507649 -0.725517
v -9.40774 -3.53987 -29.3719
vn 0.614284 0.0809521 -0.784921
v -9.45178 -3.52326 -29.4011
vn 0.536324 0.11036 -0.836766
v -9.49873 -3.50725 -29.4259
vn 0.453198 0.138704 -0.880552
v -9.54816 -3.49199 -29.4458
vn 0.365708 0.165713 -0.915859
v -9.59957 -3.47764 -29.4608
vn 0.274696 0.191126 -0.942344
v -9.65247 -3.46432 -29.4706
vn 0.181038 0.214699 -0.959755
v -9.70637 -3.45217 -29.4752
vn 0.0856367 0.236204 -0.967923
v -9.76072 -3.44131 -29.4746
vn -0.0105892 0.255434 -0.966769
v -9.81502 -3.43184 -29.4687
vn -0.106713 0.272204 -0.956304
v -9.86874 -3.42385 -29.4576
vn -0.201809 0.286352 -0.93663
v -9.92136 -3.41741 -29.4413
vn -0.294962 0.297743 -0.907935
v -9.97238 -3.4126 -29.4202
vn -0.385274 0.306266 -0.870497
v -10.0213 -3.40945 -29.3943
vn -0.471876 0.31184 -0.824675
v -10.0677 -3.408 -29.3639
vn -0.553933 0.314411 -0.770911
v -10.111 -3.40825 -29.3294
vn -0.630655 0.313954 -0.709723
v -10.1509 -3.41022 -29.291
vn -0.701304 0.310473 -0.6417
v -10.187 -3.41388 -29.249
vn -0.765199 0.304002 -0.567497
v -10.2189 -3.41919 -29.204
vn -0.821725 0.294603 -0.487828
v -10.2464 -3.4261 -29.1564
vn -0.870337 0.282368 -0.403462
v -10.2691 -3.43455 -29.1065
vn -0.910568 0.267413 -0.31521
v -10.2869 -3.44445 -29.055
vn -0.942029 0.249882 -0.223922
v -10.2995 -3.45571 -29.0022
vn -0.964417 0.229945 -0.130478
v -10.3069 -3.46822 -28.9487
vn -0.977518 0.207794 -0.0357774
v -10.309 -3.48187 -28.895
vn -0.981205 0.183641 0.0592679
v -10.3058 -3.49651 -28.8416
vn -0.975442 0.15772 0.153742
v -10.2972 -3.51201 -28.7891
vn -0.960286 0.13028 0.246736
v -10.2834 -3.52822 -28.7379
vn -0.935881 0.101585 0.337354
v -10.2645 -3.54498 -28.6885
vn -0.902463 0.0719121 0.424723
v -10.2407 -3.56213 -28.6415
vn -0.860354 0.0415465 0.508001
v -10.2123 -3.57951 -28.5972
vn -0.809959 0.0107808 0.586387
v -10.1794 -3.59695 -28.5561
vn -0.751764 -0.0200888 0.659126
v -10.1424 -3.61428 -28.5186
vn -0.686329 -0.0507649 0.725517
v -10.1017 -3.63133 -28.4851
vn -0.614284 -0.0809521 0.784921
v -10.0577 -3.64794 -28.4558
vn -0.536324 -0.11036 0.836766
v -10.0107 -3.66396 -28.4311
vn -0.453198 -0.138704 0.880552
v -9.96132 -3.67921 -28.4111
vn -0.365708 -0.165713 0.915859
v -9.90991 -3.69357 -28.3961
vn -0.274696 -0.191126 0.942344
v -9.85701 -3.70688 -28.3863
vn -0.181038 -0.214699 0.959755
v -9.80312 -3.71903 -28.3817
vn -0.0856367 -0.236204 0.967923
v -9.74876 -3.72989 -28.3823
vn 0.0105892 -0.255434 0.966769
v -9.69446 -3.73937 -28.3883
vn 0.106713 -0.272204 0.956304
v -9.64074 -3.74736 -28.3994
vn 0.201809 -0.286352 0.93663
v -9.91185 -5.17013 -28.8872
vn 0.276423 -0.381971 0.881867
v -9.86362 -5.17446 -28.9071
vn 0.366824 -0.390088 0.844554
v -9.81728 -5.17679 -28.9313
vn 0.453693 -0.394449 0.799107
v -9.77328 -5.17709 -28.9597
vn 0.536192 -0.395012 0.745965
v -9.73202 -5.17536 -28.9918
vn 0.613527 -0.39177 0.685639
v -9.69392 -5.17162 -29.0275
vn 0.684954 -0.384755 0.61871
v -9.65934 -5.1659 -29.0664
vn 0.749785 -0.374035 0.545822
v -9.62861 -5.15826 -29.1081
vn 0.807394 -0.359712 0.467677
v -9.60202 -5.14877 -29.1522
vn 0.857228 -0.341926 0.385029
v -9.57984 -5.13753 -29.1983
vn 0.898806 -0.320846 0.298672
v -9.56228 -5.12463 -29.2459
vn 0.931729 -0.296676 0.209439
v -9.54951 -5.11022 -29.2945
vn 0.955678 -0.26965 0.11819
v -9.54164 -5.09441 -29.3438
vn 0.970423 -0.240026 0.0258014
v -9.53876 -5.07738 -29.3932
vn 0.975823 -0.208091 -0.0668352
v -9.54089 -5.05927 -29.4423
vn 0.971825 -0.174152 -0.158828
v -9.54802 -5.04028 -29.4906
vn 0.958468 -0.138536 -0.249291
v -9.56007 -5.02056 -29.5375
vn 0.935881 -0.101585 -0.337354
v -9.57692 -5.00033 -29.5828
vn 0.90428 -0.0636564 -0.422168
v -9.59843 -4.97977 -29.6259
vn 0.863971 -0.0251145 -0.502915
v -9.62437 -4.95908 -29.6663
vn 0.815341 0.0136692 -0.57882
v -9.6545 -4.93847 -29.7039
vn 0.758859 0.0523213 -0.64915
v -9.68853 -4.91812 -29.738
vn 0.695068 0.0904695 -0.713229
v -9.72612 -4.89823 -29.7686
vn 0.624584 0.127746 -0.770438
v -9.76693 -4.879 -29.7951
vn 0.548085 0.163793 -0.820228
v -9.81055 -4.86062 -29.8175
vn 0.466307 0.198262 -0.862119
v -9.85657 -4.84325 -29.8354
vn 0.380039 0.230822 -0.895707
v -9.90454 -4.82706 -29.8487
vn 0.29011 0.261159 -0.920669
v -9.95401 -4.81222 -29.8573
vn 0.197388 0.288981 -0.936765
v -10.0045 -4.79887 -29.8611
vn 0.102765 0.31402 -0.943838
v -10.0555 -4.78712 -29.86
vn 0.00715183 0.336034 -0.941823
v -10.1065 -4.77711 -29.8541
vn -0.08853 0.354813 -0.930736
v -10.1571 -4.76891 -29.8434
vn -0.183359 0.370174 -0.910687
v -10.2068 -4.76262 -29.828
vn -0.276423 0.381971 -0.881867
v -10.255 -4.75829 -29.8081
vn -0.366824 0.390088 -0.844554
v -10.3013 -4.75596 -29.7839
vn -0.453693 0.394449 -0.799107
v -10.3453 -4.75566 -29.7555
vn -0.536192 0.395012 -0.745965
v -10.3866 -4.75739 -29.7233
vn -0.613527 0.39177 -0.685639
v -10.4247 -4.76113 -29.6876
vn -0.684954 0.384755 -0.61871
v -10.4593 -4.76685 -29.6487
vn -0.749785 0.374035 -0.545822
v -10.49 -4.77449 -29.6071
vn -0.807394 0.359712 -0.467677
v -10.5166 -4.78398 -29.563
vn -0.857228 0.341926 -0.385029
v -10.5388 -4.79522 -29.5169
vn -0.898806 0.320846 -0.298672
v -10.5563 -4.80812 -29.4693
vn -0.931729 0.296676 -0.209439
v -10.5691 -4.82253 -29.4206
vn -0.955678 0.26965 -0.11819
v -10.577 -4.83834 -29.3713
vn -0.970423 0.240026 -0.0258014
v -10.5798 -4.85537 -29.3219
vn -0.975823 0.208091 0.0668352
v -10.5777 -4.87348 -29.2729
vn -0.971825 0.174152 0.158828
v -10.5706 -4.89248 -29.2246
vn -0.958468 0.138536 0.249291
v -10.5585 -4.91219 -29.1776
vn -0.935881 0.101585 0.337354
v -10.5417 -4.93242 -29.1324
vn -0.90428 0.0636564 0.422168
v -10.5202 -4.95298 -29.0893
vn -0.863971 0.0251145 0.502915
v -10.4942 -4.97367 -29.0488
vn -0.815341 -0.0136692 0.57882
v -10.4641 -4.99429 -29.0113
vn -0.758859 -0.0523213 0.64915
v -10.4301 -5.01463 -28.9771
vn -0.695068 -0.0904695 0.713229
v -10.3925 -5.03452 -28.9466
vn -0.624584 -0.127746 0.770438
v -10.3517 -5.05375 -28.92
vn -0.548085 -0.163793 0.820228
v -10.308 -5.07214 -28.8977
vn -0.466307 -0.198262 0.862119
v -10.262 -5.0895 -28.8798
vn -0.380039 -0.230822 0.895707
v -10.2141 -5.10569 -28.8665
vn -0.29011 -0.261159 0.920669
v -10.1646 -5.12053 -28.8579
vn -0.197388 -0.288981 0.936765
v -10.1141 -5.13388 -28.8541
vn -0.102765 -0.31402 0.943838
v -10.0631 -5.14563 -28.8552
vn -0.00715183 -0.336034 0.941823
v -10.0121 -5.15564 -28.8611
vn 0.08853 -0.354813 0.930736
v -9.96149 -5.16384 -28.8718
vn 0.183359 -0.370174 0.910687
v -10.2886 -6.60331 -29.5008
vn 0.257915 -0.454772 0.852445
v -10.2432 -6.60721 -29.5195
vn 0.348405 -0.46254 0.815274
v -10.1995 -6.60888 -29.5421
vn 0.43554 -0.465852 0.770251
v -10.1578 -6.60829 -29.5684
vn 0.518481 -0.464679 0.71781
v -10.1187 -6.60545 -29.5982
vn 0.596428 -0.45903 0.658457
v -10.0824 -6.6004 -29.6312
vn 0.668632 -0.44896 0.592762
v -10.0494 -6.59317 -29.667
vn 0.734396 -0.434567 0.521358
v -10.02 -6.58385 -29.7054
vn 0.793087 -0.415989 0.444934
v -9.99434 -6.57251 -29.7459
vn 0.844141 -0.393404 0.364224
v -9.9728 -6.55927 -29.7882
vn 0.887065 -0.367031 0.280007
v -9.95554 -6.54426 -29.8318
vn 0.921446 -0.337123 0.193093
v -9.94273 -6.52761 -29.8764
vn 0.946953 -0.303968 0.10432
v -9.93451 -6.5095 -29.9214
vn 0.963341 -0.267886 0.0145421
v -9.93094 -6.49009 -29.9666
vn 0.970451 -0.229224 -0.0753759
v -9.93206 -6.46958 -30.0114
vn 0.968215 -0.188355 -0.164568
v -9.93786 -6.44815 -30.0553
vn 0.956654 -0.145672 -0.252175
v -9.94829 -6.42602 -30.0981
vn 0.935881 -0.101585 -0.337354
v -9.96324 -6.4034 -30.1392
vn 0.906094 -0.0565206 -0.419284
v -9.98258 -6.3805 -30.1783
vn 0.867581 -0.0109116 -0.497175
v -10.0061 -6.35756 -30.215
vn 0.820713 0.0348024 -0.570279
v -10.0336 -6.33478 -30.249
vn 0.765941 0.0801813 -0.637891
v -10.0648 -6.31239 -30.2798
vn 0.703793 0.124788 -0.699359
v -10.0994 -6.2906 -30.3073
vn 0.634867 0.168193 -0.754092
v -10.1371 -6.26962 -30.3311
vn 0.559826 0.209978 -0.801563
v -10.1774 -6.24966 -30.3511
vn 0.479394 0.249741 -0.841315
v -10.2201 -6.23091 -30.367
vn 0.394346 0.287099 -0.872964
v -10.2647 -6.21354 -30.3786
vn 0.305499 0.321692 -0.896206
v -10.3108 -6.19773 -30.386
vn 0.213711 0.353186 -0.910817
v -10.3579 -6.18363 -30.3889
vn 0.119864 0.38128 -0.916656
v -10.4056 -6.17137 -30.3874
vn 0.0248628 0.405701 -0.913667
v -10.4534 -6.16107 -30.3815
vn -0.0703777 0.426216 -0.90188
v -10.5009 -6.15284 -30.3712
vn -0.16494 0.442625 -0.881406
v -10.5476 -6.14674 -30.3567
vn -0.257915 0.454772 -0.852445
v -10.593 -6.14284 -30.338
vn -0.348405 0.46254 -0.815274
v -10.6367 -6.14118 -30.3154
vn -0.43554 0.465852 -0.770251
v -10.6784 -6.14177 -30.2891
vn -0.518481 0.464679 -0.71781
v -10.7175 -6.1446 -30.2593
vn -0.596428 0.45903 -0.658457
v -10.7537 -6.14966 -30.2263
vn -0.668632 0.44896 -0.592762
v -10.7867 -6.15688 -30.1905
vn -0.734396 0.434567 -0.521358
v -10.8162 -6.16621 -30.1521
vn -0.793087 0.415989 -0.444934
v -10.8418 -6.17754 -30.1116
vn -0.844141 0.393404 -0.364224
v -10.8634 -6.19078 -30.0693
vn -0.887065 0.367031 -0.280007
v -10.8806 -6.2058 -30.0257
vn -0.921446 0.337123 -0.193093
v -10.8934 -6.22244 -29.9811
vn -0.946953 0.303968 -0.10432
v -10.9017 -6.24055 -29.936
vn -0.963341 0.267886 -0.0145421
v -10.9052 -6.25996 -29.8909
vn -0.970451 0.229224 0.0753759
v -10.9041 -6.28048 -29.8461
vn -0.968215 0.188355 0.164568
v -10.8983 -6.3019 -29.8022
vn -0.956654 0.145672 0.252175
v -10.8879 -6.32403 -29.7594
vn -0.935881 0.101585 0.337354
v -10.8729 -6.34665 -29.7183
vn -0.906094 0.0565206 0.419284
v -10.8536 -6.36955 -29.6792
vn -0.867581 0.0109116 0.497175
v -10.8301 -6.3925 -29.6425
vn -0.820713 -0.0348024 0.570279
v -10.8026 -6.41528 -29.6085
vn -0.765941 -0.0801813 0.637891
v -10.7714 -6.43767 -29.5777
vn -0.703793 -0.124788 0.699359
v -10.7368 -6.45946 -29.5502
vn -0.634867 -0.168193 0.754092
v -10.6991 -6.48043 -29.5264
vn -0.559826 -0.209978 0.801563
v -10.6587 -6.50039 -29.5064
vn -0.479394 -0.249741 0.841315
v -10.616 -6.51915 -29.4905
vn -0.394346 -0.287099 0.872964
v -10.5714 -6.53651 -29.4789
vn -0.305499 -0.321692 0.896206
v -10.5254 -6.55232 -29.4715
vn -0.213711 -0.353186 0.910817
v -10.4783 -6.56642 -29.4686
vn -0.119864 -0.38128 0.916656
v -10.4306 -6.57868 -29.4701
vn -0.0248628 -0.405701 0.913667
v -10.3828 -6.58898 -29.476
vn 0.0703777 -0.426216 0.90188
v -10.3353 -6.59722 -29.4863
vn 0.16494 -0.442625 0.881406
v -10.7182 -8.05485 -30.2554
vn 0.240038 -0.517054 0.821606
v -10.6755 -8.05836 -30.2728
vn 0.330614 -0.524522 0.784583
v -10.6344 -8.0595 -30.2938
vn 0.418007 -0.526938 0.740005
v -10.5952 -8.05825 -30.3181
vn 0.501374 -0.524279 0.688299
v -10.5582 -8.05462 -30.3455
vn 0.579912 -0.516571 0.629965
v -10.5239 -8.04865 -30.3758
vn 0.652866 -0.503888 0.565564
v -10.4925 -8.0404 -30.4087
vn 0.719532 -0.486353 0.495717
v -10.4644 -8.02995 -30.4438
vn 0.779268 -0.464134 0.421095
v -10.4399 -8.01739 -30.4808
vn 0.8315 -0.437444 0.342418
v -10.419 -8.00285 -30.5194
vn 0.875724 -0.406542 0.260443
v -10.4022 -7.98647 -30.5592
vn 0.911514 -0.371725 0.17596
v -10.3895 -7.9684 -30.5997
vn 0.938526 -0.333328 0.0897828
v -10.381 -7.94882 -30.6407
vn 0.9565 -0.291721 0.00274061
v -10.3769 -7.92792 -30.6816
vn 0.965261 -0.247304 -0.084328
v -10.3772 -7.9059 -30.7222
vn 0.964727 -0.200506 -0.170584
v -10.3818 -7.88297 -30.762
vn 0.954902 -0.151776 -0.255198
v -10.3907 -7.85936 -30.8007
vn 0.935881 -0.101585 -0.337354
v -10.4039 -7.83528 -30.8378
vn 0.907846 -0.0504159 -0.416261
v -10.4212 -7.81098 -30.8731
vn 0.871069 0.00123904 -0.491159
v -10.4425 -7.78668 -30.9061
vn 0.825903 0.052882 -0.561327
v -10.4675 -7.76262 -30.9365
vn 0.772783 0.104016 -0.626089
v -10.496 -7.73903 -30.9642
vn 0.71222 0.154148 -0.684822
v -10.5277 -7.71614 -30.9887
vn 0.644798 0.202795 -0.736959
v -10.5624 -7.69417 -31.0099
vn 0.571167 0.249489 -0.781999
v -10.5996 -7.67333 -31.0276
vn 0.492035 0.293781 -0.819508
v -10.639 -7.65382 -31.0415
vn 0.408165 0.335244 -0.849125
v -10.6804 -7.63583 -31.0516
vn 0.320363 0.373477 -0.870564
v -10.7231 -7.61953 -31.0577
vn 0.229477 0.408114 -0.883619
v -10.7669 -7.60508 -31.0599
vn 0.13638 0.438821 -0.888165
v -10.8114 -7.59262 -31.058
vn 0.0419698 0.465302 -0.884157
v -10.856 -7.58227 -31.0521
vn -0.0528444 0.487301 -0.871634
v -10.9003 -7.57413 -31.0422
vn -0.14715 0.504608 -0.850716
v -10.944 -7.56827 -31.0285
vn -0.240038 0.517054 -0.821606
v -10.9867 -7.56476 -31.0111
vn -0.330614 0.524522 -0.784583
v -11.0278 -7.56362 -30.9901
vn -0.418007 0.526938 -0.740005
v -11.067 -7.56487 -30.9658
vn -0.501374 0.524279 -0.688299
v -11.104 -7.5685 -30.9384
vn -0.579912 0.516571 -0.629965
v -11.1383 -7.57446 -30.9081
vn -0.652866 0.503888 -0.565564
v -11.1697 -7.58272 -30.8752
vn -0.719532 0.486353 -0.495717
v -11.1978 -7.59317 -30.8401
vn -0.779268 0.464134 -0.421095
v -11.2223 -7.60573 -30.8031
vn -0.8315 0.437444 -0.342418
v -11.2432 -7.62027 -30.7645
vn -0.875724 0.406542 -0.260443
v -11.26 -7.63665 -30.7247
vn -0.911514 0.371725 -0.17596
v -11.2727 -7.65472 -30.6842
vn -0.938526 0.333328 -0.0897828
v -11.2812 -7.6743 -30.6432
vn -0.9565 0.291721 -0.00274061
v -11.2853 -7.69519 -30.6023
vn -0.965261 0.247304 0.084328
v -11.285 -7.71721 -30.5617
vn -0.964727 0.200506 0.170584
v -11.2804 -7.74014 -30.5219
vn -0.954902 0.151776 0.255198
v -11.2715 -7.76376 -30.4832
vn -0.935881 0.101585 0.337354
v -11.2583 -7.78784 -30.4461
vn -0.907846 0.0504159 0.416261
v -11.241 -7.81214 -30.4108
vn -0.871069 -0.00123904 0.491159
v -11.2197 -7.83644 -30.3778
vn -0.825903 -0.052882 0.561327
v -11.1947 -7.8605 -30.3474
vn -0.772783 -0.104016 0.626089
v -11.1662 -7.88409 -30.3197
vn -0.71222 -0.154148 0.684822
v -11.1345 -7.90698 -30.2952
vn -0.644798 -0.202795 0.736959
v -11.0999 -7.92895 -30.274
vn -0.571167 -0.249489 0.781999
v -11.0626 -7.94979 -30.2563
vn -0.492035 -0.293781 0.819508
v -11.0232 -7.9693 -30.2424
vn -0.408165 -0.335244 0.849125
v -10.9818 -7.98729 -30.2323
vn -0.320363 -0.373477 0.870564
v -10.9391 -8.00359 -30.2262
vn -0.229477 -0.408114 0.883619
v -10.8953 -8.01804 -30.224
vn -0.13638 -0.438821 0.888165
v -10.8508 -8.0305 -30.2259
vn -0.0419698 -0.465302 0.884157
v -10.8062 -8.04085 -30.2318
vn 0.0528444 -0.487301 0.871634
v -10.7619 -8.04899 -30.2417
vn 0.14715 -0.504608 0.850716
v -11.2004 -9.52627 -31.15
vn 0.223153 -0.570053 0.790722
v -11.1606 -9.52943 -31.1662
vn 0.313811 -0.577266 0.753848
v -11.1221 -9.53016 -31.1856
vn 0.401446 -0.578918 0.709714
v -11.0853 -9.52844 -31.208
vn 0.485216 -0.574996 0.658746
v -11.0506 -9.52428 -31.2331
vn 0.564312 -0.565536 0.601433
v -11.0182 -9.51774 -31.2608
vn 0.637974 -0.550629 0.538327
v -10.9886 -9.50887 -31.2908
vn 0.705492 -0.53042 0.470038
v -10.9619 -9.49775 -31.3228
vn 0.766216 -0.505102 0.397222
v -10.9385 -9.4845 -31.3564
vn 0.81956 -0.47492 0.32058
v -10.9185 -9.46924 -31.3914
vn 0.865012 -0.440164 0.240851
v -10.9022 -9.45211 -31.4275
vn 0.902133 -0.40117 0.158802
v -10.8898 -9.4333 -31.4642
vn 0.930567 -0.358311 0.0752244
v -10.8812 -9.41296 -31.5012
vn 0.950038 -0.312003 -0.00907802
v -10.8767 -9.39131 -31.5382
vn 0.96036 -0.262689 -0.093293
v -10.8762 -9.36855 -31.5747
vn 0.961433 -0.210845 -0.176609
v -10.8798 -9.34489 -31.6106
vn 0.953247 -0.156971 -0.258225
v -10.8874 -9.32057 -31.6453
vn 0.935881 -0.101585 -0.337354
v -10.899 -9.29583 -31.6786
vn 0.909501 -0.0452211 -0.413234
v -10.9144 -9.27089 -31.7102
vn 0.874363 0.0115786 -0.485134
v -10.9336 -9.246 -31.7397
vn 0.830804 0.0682668 -0.552362
v -10.9562 -9.22139 -31.7669
vn 0.779244 0.124297 -0.614271
v -10.9821 -9.19732 -31.7915
vn 0.72018 0.179131 -0.670264
v -11.0111 -9.174 -31.8132
vn 0.654179 0.23224 -0.719801
v -11.0429 -9.15166 -31.832
vn 0.581879 0.283112 -0.762407
v -11.0771 -9.13052 -31.8474
vn 0.503975 0.331257 -0.79767
v -11.1134 -9.11078 -31.8595
vn 0.421217 0.376212 -0.825252
v -11.1515 -9.09264 -31.8682
vn 0.334403 0.417544 -0.844885
v -11.191 -9.07625 -31.8732
vn 0.244368 0.454855 -0.856382
v -11.2316 -9.06179 -31.8746
vn 0.15198 0.487786 -0.859632
v -11.2728 -9.0494 -31.8724
vn 0.058128 0.516018 -0.854603
v -11.3143 -9.03918 -31.8666
vn -0.0362836 0.539282 -0.841343
v -11.3556 -9.03125 -31.8572
vn -0.130346 0.557351 -0.819981
v -11.3963 -9.02567 -31.8444
vn -0.223153 0.570053 -0.790722
v -11.4361 -9.02251 -31.8282
vn -0.313811 0.577266 -0.753848
v -11.4746 -9.02178 -31.8088
vn -0.401446 0.578918 -0.709714
v -11.5114 -9.0235 -31.7864
vn -0.485216 0.574996 -0.658746
v -11.5461 -9.02766 -31.7613
vn -0.564312 0.565536 -0.601433
v -11.5785 -9.0342 -31.7336
vn -0.637974 0.550629 -0.538327
v -11.6081 -9.04307 -31.7036
vn -0.705492 0.53042 -0.470038
v -11.6348 -9.05419 -31.6716
vn -0.766216 0.505102 -0.397222
v -11.6582 -9.06744 -31.638
vn -0.81956 0.47492 -0.32058
v -11.6782 -9.0827 -31.6029
vn -0.865012 0.440164 -0.240851
v -11.6945 -9.09983 -31.5669
vn -0.902133 0.40117 -0.158802
v -11.7069 -9.11864 -31.5302
vn -0.930567 0.358311 -0.0752244
v -11.7155 -9.13898 -31.4932
vn -0.950038 0.312003 0.00907802
v -11.72 -9.16063 -31.4562
vn -0.96036 0.262689 0.093293
v -11.7205 -9.18339 -31.4197
vn -0.961433 0.210845 0.176609
v -11.7169 -9.20705 -31.3838
vn -0.953247 0.156971 0.258225
v -11.7093 -9.23137 -31.3491
vn -0.935881 0.101585 0.337354
v -11.6977 -9.25611 -31.3158
vn -0.909501 0.0452211 0.413234
v -11.6823 -9.28105 -31.2842
vn -0.874363 -0.0115786 0.485134
v -11.6631 -9.30594 -31.2547
vn -0.830804 -0.0682668 0.552362
v -11.6405 -9.33055 -31.2275
vn -0.779244 -0.124297 0.614271
v -11.6146 -9.35462 -31.2029
vn -0.72018 -0.179131 0.670264
v -11.5856 -9.37794 -31.1811
vn -0.654179 -0.23224 0.719801
v -11.5538 -9.40028 -31.1624
vn -0.581879 -0.283112 0.762407
v -11.5196 -9.42142 -31.147
vn -0.503975 -0.331257 0.79767
v -11.4833 -9.44116 -31.1348
vn -0.421217 -0.376212 0.825252
v -11.4452 -9.4593 -31.1262
vn -0.334403 -0.417544 0.844885
v -11.4056 -9.47569 -31.1212
vn -0.244368 -0.454855 0.856382
v -11.3651 -9.49015 -31.1198
vn -0.15198 -0.487786 0.859632
v -11.3239 -9.50254 -31.122
vn -0.058128 -0.516018 0.854603
v -11.2824 -9.51276 -31.1278
vn 0.0362836 -0.539282 0.841343
v -11.2411 -9.52069 -31.1372
vn 0.130346 -0.557351 0.819981
f 1 66 2 
f 1 65 66 
f 2 67 3 
f 2 66 67 
f 3 68 4 
f 3 67 68 
f 4 69 5 
f 4 68 69 
f 5 70 6 
f 5 69 70 
f 6 71 7 
f 6 70 71 
f 7 72 8 
f 7 71 72 
f 8 73 9 
f 8 72 73 
f 9 74 10 
f 9 73 74 
f 10 75 11 
f 10 74 75 
f 11 76 12 
f 11 75 76 
f 12 77 13 
f 12 76 77 
f 13 78 14 
f 13 77 78 
f 14 79 15 
f 14 78 79 
f 15 80 16 
f 15 79 80 
f 16 81 17 
f 16 80 81 
f 17 82 18 
f 17 81 82 
f 18 83 19 
f 18 82 83 
f 19 84 20 
f 19 83 84 
f 20 85 21 
f 20 84 85 
f 21 86 22 
f 21 85 86 
f 22 87 23 
f 22 86 87 
f 23 88 24 
f 23 87 88 
f 24 89 25 
f 24 88 89 
f 25 90 26 
f 25 89 90 
f 26 91 27 
f 26 90 91 
f 27 92 28 
f 27 91 92 
f 28 93 29 
f 28 92 93 
f 29 94 30 
f 29 93 94 
f 30 95 31 
f 30 94 95 
f 31 96 32 
f 31 95 96 
f 32 97 33 
f 32 96 97 
f 33 98 34 
f 33 97 98 
f 34 99 35 
f 34 98 99 
f 35 100 36 
f 35 99 100 
f 36 101 37 
f 36 100 101 
f 37 102 38 
f 37 101 102 
f 38 103 39 
f 38 102 103 
f 39 104 40 
f 39 103 104 
f 40 105 41 
f 40 104 105 
f 41 106 42 
f 41 105 106 
f 42 107 43 
f 42 106 107 
f 43 108 44 
f 43 107 108 
f 44 109 45 
f 44 108 109 
f 45 110 46 
f 45 109 110 
f 46 111 47 
f 46 110 111 
f 47 112 48 
f 47 111 112 
f 48 113 49 
f 48 112 113 
f 49 114 50 
f 49 113 114 
f 50 115 51 
f 50 114 115 
f 51 116 52 
f 51 115 116 
f 52 117 53 
f 52 116 117 
f 53 118 54 
f 53 117 118 
f 54 119 55 
f 54 118 119 
f 55 120 56 
f 55 119 120 
f 56 121 57 
f 56 120 121 
f 57 122 58 
f 57 121 122 
f 58 123 59 
f 58 122 123 
f 59 124 60 
f 59 123 124 
f 60 125 61 
f 60 124 125 
f 61 126 62 
f 61 125 126 
f 62 127 63 
f 62 126 127 
f 63 128 64 
f 63 127 128 
f 64 65 1 
f 64 128 65 
f 65 130 66 
f 65 129 130 
f 66 131 67 
f 66 130 131 
f 67 132 68 
f 67 131 132 
f 68 133 69 
f 68 132 133 
f 69 134 70 
f 69 133 134 
f 70 135 71 
f 70 134 135 
f 71 136 72 
f 71 135 136 
f 72 137 73 
f 72 136 137 
f 73 138 74 
f 73 137 138 
f 74 139 75 
f 74 138 139 
f 75 140 76 
f 75 139 140 
f 76 141 77 
f 76 140 141 
f 77 142 78 
f 77 141 142 
f 78 143 79 
f 78 142 143 
f 79 144 80 
f 79 143 144 
f 80 145 81 
f 80 144 145 
f 81 146 82 
f 81 145 146 
f 82 147 83 
f 82 146 147 
f 83 148 84 
f 83 147 148 
f 84 149 85 
f 84 148 149 
f 85 150 86 
f 85 149 150 
f 86 151 87 
f 86 150 151 
f 87 152 88 
f 87 151 152 
f 88 153 89 
f 88 152 153 
f 89 154 90 
f 89 153 154 
f 90 155 91 
f 90 154 155 
f 91 156 92 
f 91 155 156 
f 92 157 93 
f 92 156 157 
f 93 158 94 
f 93 157 158 
f 94 159 95 
f 94 158 159 
f 95 160 96 
f 95 159 160 
f 96 161 97 
f 96 160 161 
f 97 162 98 
f 97 161 162 
f 98 163 99 
f 98 162 163 
f 99 164 100 
f 99 163 164 
f 100 165 101 
f 100 164 165 
f 101 166 102 
f 101 165 166 
f 102 167 103 
f 102 166 167 
f 103 168 104 
f 103 167 168 
f 104 169 105 
f 104 168 169 
f 105 170 106 
f 105 169 170 
f 106 171 107 
f 106 170 171 
f 107 172 108 
f 107 171 172 
f 108 173 109 
f 108 172 173 
f 109 174 110 
f 109 173 174 
f 110 175 111 
f 110 174 175 
f 111 176 112 
f 111 175 176 
f 112 177 113 
f 112 176 177 
f 113 178 114 
f 113 177 178 
f 114 179 115 
f 114 178 179 
f 115 180 116 
f 115 179 180 
f 116 181 117 
f 116 180 181 
f 117 182 118 
f 117 181 182 
f 118 183 119 
f 118 182 183 
f 119 184 120 
f 119 183 184 
f 120 185 121 
f 120 184 185 
f 121 186 122 
f 121 185 186 
f 122 187 123 
f 122 186 187 
f 123 188 124 
f 123 187 188 
f 124 189 125 
f 124 188 189 
f 125 190 126 
f 125 189 190 
f 126 191 127 
f 126 190 191 
f 127 192 128 
f 127 191 192 
f 128 129 65 
f 128 192 129 
f 129 194 130 
f 129 193 194 
f 130 195 131 
f 130 194 195 
f 131 196 132 
f 131 195 196 
f 132 197 133 
f 132 196 197 
f 133 198 134 
f 133 197 198 
f 134 199 135 
f 134 198 199 
f 135 200 136 
f 135 199 200 
f 136 201 137 
f 136 200 201 
f 137 202 138 
f 137 201 202 
f 138 203 139 
f 138 202 203 
f 139 204 140 
f 139 203 204 
f 140 205 141 
f 140 204 205 
f 141 206 142 
f 141 205 206 
f 142 207 143 
f 142 206 207 
f 143 208 144 
f 143 207 208 
f 144 209 145 
f 144 208 209 
f 145 210 146 
f 145 209 210 
f 146 211 147 
f 146 210 211 
f 147 212 148 
f 147 211 212 
f 148 213 149 
f 148 212 213 
f 149 214 150 
f 149 213 214 
f 150 215 151 
f 150 214 215 
f 151 216 152 
f 151 215 216 
f 152 217 153 
f 152 216 217 
f 153 218 154 
f 153 217 218 
f 154 219 155 
f 154 218 219 
f 155 220 156 
f 155 219 220 
f 156 221 157 
f 156 220 221 
f 157 222 158 
f 157 221 222 
f 158 223 159 
f 158 222 223 
f 159 224 160 
f 159 223 224 
f 160 225 161 
f 160 224 225 
f 161 226 162 
f 161 225 226 
f 162 227 163 
f 162 226 227 
f 163 228 164 
f 163 227 228 
f 164 229 165 
f 164 228 229 
f 165 230 166 
f 165 229 230 
f 166 231 167 
f 166 230 231 
f 167 232 168 
f 167 231 232 
f 168 233 169 
f 168 232 233 
f 169 234 170 
f 169 233 234 
f 170 235 171 
f 170 234 235 
f 171 236 172 
f 171 235 236 
f 172 237 173 
f 172 236 237 
f 173 238 174 
f 173 237 238 
f 174 239 175 
f 174 238 239 
f 175 240 176 
f 175 239 240 
f 176 241 177 
f 176 240 241 
f 177 242 178 
f 177 241 242 
f 178 243 179 
f 178 242 243 
f 179 244 180 
f 179 243 244 
f 180 245 181 
f 180 244 245 
f 181 246 182 
f 181 245 246 
f 182 247 183 
f 182 246 247 
f 183 248 184 
f 183 247 248 
f 184 249 185 
f 184 248 249 
f 185 250 186 
f 185 249 250 
f 186 251 187 
f 186 250 251 
f 187 252 188 
f 187 251 252 
f 188 253 189 
f 188 252 253 
f 189 254 190 
f 189 253 254 
f 190 255 191 
f 190 254 255 
f 191 256 192 
f 191 255 256 
f 192 193 129 
f 192 256 193 
f 193 258 194 
f 193 257 258 
f 194 259 195 
f 194 258 259 
f 195 260 196 
f 195 259 260 
f 196 261 197 
f 196 260 261 
f 197 262 198 
f 197 261 262 
f 198 263 199 
f 198 262 263 
f 199 264 200 
f 199 263 264 
f 200 265 201 
f 200 264 265 
f 201 266 202 
f 201 265 266 
f 202 267 203 
f 202 266 267 
f 203 268 204 
f 203 267 268 
f 204 269 205 
f 204 268 269 
f 205 270 206 
f 205 269 270 
f 206 271 207 
f 206 270 271 
f 207 272 208 
f 207 271 272 
f 208 273 209 
f 208 272 273 
f 209 274 210 
f 209 273 274 
f 210 275 211 
f 210 274 275 
f 211 276 212 
f 211 275 276 
f 212 277 213 
f 212 276 277 
f 213 278 214 
f 213 277 278 
f 214 279 215 
f 214 278 279 
f 215 280 216 
f 215 279 280 
f 216 281 217 
f 216 280 281 
f 217 282 218 
f 217 281 282 
f 218 283 219 
f 218 282 283 
f 219 284 220 
f 219 283 284 
f 220 285 221 
f 220 284 285 
f 221 286 222 
f 221 285 286 
f 222 287 223 
f 222 286 287 
f 223 288 224 
f 223 287 288 
f 224 289 225 
f 224 288 289 
f 225 290 226 
f 225 289 290 
f 226 291 227 
f 226 290 291 
f 227 292 228 
f 227 291 292 
f 228 293 229 
f 228 292 293 
f 229 294 230 
f 229 293 294 
f 230 295 231 
f 230 294 295 
f 231 296 232 
f 231 295 296 
f 232 297 233 
f 232 296 297 
f 233 298 234 
f 233 297 298 
f 234 299 235 
f 234 298 299 
f 235 300 236 
f 235 299 300 
f 236 301 237 
f 236 300 301 
f 237 302 238 
f 237 301 302 
f 238 303 239 
f 238 302 303 
f 239 304 240 
f 239 303 304 
f 240 305 241 
f 240 304 305 
f 241 306 242 
f 241 305 306 
f 242 307 243 
f 242 306 307 
f 243 308 244 
f 243 307 308 
f 244 309 245 
f 244 308 309 
f 245 310 246 
f 245 309 310 
f 246 311 247 
f 246 310 311 
f 247 312 248 
f 247 311 312 
f 248 313 249 
f 248 312 313 
f 249 314 250 
f 249 313 314 
f 250 315 251 
f 250 314 315 
f 251 316 252 
f 251 315 316 
f 252 317 253 
f 252 316 317 
f 253 318 254 
f 253 317 318 
f 254 319 255 
f 254 318 319 
f 255 320 256 
f 255 319 320 
f 256 257 193 
f 256 320 257 
f 257 322 258 
f 257 321 322 
f 258 323 259 
f 258 322 323 
f 259 324 260 
f 259 323 324 
f 260 325 261 
f 260 324 325 
f 261 326 262 
f 261 325 326 
f 262 327 263 
f 262 326 327 
f 263 328 264 
f 263 327 328 
f 264 329 265 
f 264 328 329 
f 265 330 266 
f 265 329 330 
f 266 331 267 
f 266 330 331 
f 267 332 268 
f 267 331 332 
f 268 333 269 
f 268 332 333 
f 269 334 270 
f 269 333 334 
f 270 335 271 
f 270 334 335 
f 271 336 272 
f 271 335 336 
f 272 337 273 
f 272 336 337 
f 273 338 274 
f 273 337 338 
f 274 339 275 
f 274 338 339 
f 275 340 276 
f 275 339 340 
f 276 341 277 
f 276 340 341 
f 277 342 278 
f 277 341 342 
f 278 343 279 
f 278 342 343 
f 279 344 280 
f 279 343 344 
f 280 345 281 
f 280 344 345 
f 281 346 282 
f 281 345 346 
f 282 347 283 
f 282 346 347 
f 283 348 284 
f 283 347 348 
f 284 349 285 
f 284 348 349 
f 285 350 286 
f 285 349 350 
f 286 351 287 
f 286 350 351 
f 287 352 288 
f 287 351 352 
f 288 353 289 
f 288 352 353 
f 289 354 290 
f 289 353 354 
f 290 355 291 
f 290 354 355 
f 291 356 292 
f 291 355 356 
f 292 357 293 
f 292 356 357 
f 293 358 294 
f 293 357 358 
f 294 359 295 
f 294 358 359 
f 295 360 296 
f 295 359 360 
f 296 361 297 
f 296 360 361 
f 297 362 298 
f 297 361 362 
f 298 363 299 
f 298 362 363 
f 299 364 300 
f 299 363 364 
f 300 365 301 
f 300 364 365 
f 301 366 302 
f 301 365 366 
f 302 367 303 
f 302 366 367 
f 303 368 304 
f 303 367 368 
f 304 369 305 
f 304 368 369 
f 305 370 306 
f 305 369 370 
f 306 371 307 
f 306 370 371 
f 307 372 308 
f 307 371 372 
f 308 373 309 
f 308 372 373 
f 309 374 310 
f 309 373 374 
f 310 375 311 
f 310 374 375 
f 311 376 312 
f 311 375 376 
f 312 377 313 
f 312 376 377 
f 313 378 314 
f 313 377 378 
f 314 379 315 
f 314 378 379 
f 315 380 316 
f 315 379 380 
f 316 381 317 
f 316 380 381 
f 317 382 318 
f 317 381 382 
f 318 383 319 
f 318 382 383 
f 319 384 320 
f 319 383 384 
f 320 321 257 
f 320 384 321 
f 321 386 322 
f 321 385 386 
f 322 387 323 
f 322 386 387 
f 323 388 324 
f 323 387 388 
f 324 389 325 
f 324 388 389 
f 325 390 326 
f 325 389 390 
f 326 391 327 
f 326 390 391 
f 327 392 328 
f 327 391 392 
f 328 393 329 
f 328 392 393 
f 329 394 330 
f 329 393 394 
f 330 395 331 
f 330 394 395 
f 331 396 332 
f 331 395 396 
f 332 397 333 
f 332 396 397 
f 333 398 334 
f 333 397 398 
f 334 399 335 
f 334 398 399 
f 335 400 336 
f 335 399 400 
f 336 401 337 
f 336 400 401 
f 337 402 338 
f 337 401 402 
f 338 403 339 
f 338 402 403 
f 339 404 340 
f 339 403 404 
f 340 405 341 
f 340 404 405 
f 341 406 342 
f 341 405 406 
f 342 407 343 
f 342 406 407 
f 343 408 344 
f 343 407 408 
f 344 409 345 
f 344 408 409 
f 345 410 346 
f 345 409 410 
f 346 411 347 
f 346 410 411 
f 347 412 348 
f 347 411 412 
f 348 413 349 
f 348 412 413 
f 349 414 350 
f 349 413 414 
f 350 415 351 
f 350 414 415 
f 351 416 352 
f 351 415 416 
f 352 417 353 
f 352 416 417 
f 353 418 354 
f 353 417 418 
f 354 419 355 
f 354 418 419 
f 355 420 356 
f 355 419 420 
f 356 421 357 
f 356 420 421 
f 357 422 358 
f 357 421 422 
f 358 423 359 
f 358 422 423 
f 359 424 360 
f 359 423 424 
f 360 425 361 
f 360 424 425 
f 361 426 362 
f 361 425 426 
f 362 427 363 
f 362 426 427 
f 363 428 364 
f 363 427 428 
f 364 429 365 
f 364 428 429 
f 365 430 366 
f 365 429 430 
f 366 431 367 
f 366 430 431 
f 367 432 368 
f 367 431 432 
f 368 433 369 
f 368 432 433 
f 369 434 370 
f 369 433 434 
f 370 435 371 
f 370 434 435 
f 371 436 372 
f 371 435 436 
f 372 437 373 
f 372 436 437 
f 373 438 374 
f 373 437 438 
f 374 439 375 
f 374 438 439 
f 375 440 376 
f 375 439 440 
f 376 441 377 
f 376 440 441 
f 377 442 378 
f 377 441 442 
f 378 443 379 
f 378 442 443 
f 379 444 380 
f 379 443 444 
f 380 445 381 
f 380 444 445 
f 381 446 382 
f 381 445 446 
f 382 447 383 
f 382 446 447 
f 383 448 384 
f 383 447 448 
f 384 385 321 
f 384 448 385 
f 385 450 386 
f 385 449 450 
f 386 451 387 
f 386 450 451 
f 387 452 388 
f 387 451 452 
f 388 453 389 
f 388 452 453 
f 389 454 390 
f 389 453 454 
f 390 455 391 
f 390 454 455 
f 391 456 392 
f 391 455 456 
f 392 457 393 
f 392 456 457 
f 393 458 394 
f 393 457 458 
f 394 459 395 
f 394 458 459 
f 395 460 396 
f 395 459 460 
f 396 461 397 
f 396 460 461 
f 397 462 398 
f 397 461 462 
f 398 463 399 
f 398 462 463 
f 399 464 400 
f 399 463 464 
f 400 465 401 
f 400 464 465 
f 401 466 402 
f 401 465 466 
f 402 467 403 
f 402 466 467 
f 403 468 404 
f 403 467 468 
f 404 469 405 
f 404 468 469 
f 405 470 406 
f 405 469 470 
f 406 471 407 
f 406 470 471 
f 407 472 408 
f 407 471 472 
f 408 473 409 
f 408 472 473 
f 409 474 410 
f 409 473 474 
f 410 475 411 
f 410 474 475 
f 411 476 412 
f 411 475 476 
f 412 477 413 
f 412 476 477 
f 413 478 414 
f 413 477 478 
f 414 479 415 
f 414 478 479 
f 415 480 416 
f 415 479 480 
f 416 481 417 
f 416 480 481 
f 417 482 418 
f 417 481 482 
f 418 483 419 
f 418 482 483 
f 419 484 420 
f 419 483 484 
f 420 485 421 
f 420 484 485 
f 421 486 422 
f 421 485 486 
f 422 487 423 
f 422 486 487 
f 423 488 424 
f 423 487 488 
f 424 489 425 
f 424 488 489 
f 425 490 426 
f 425 489 490 
f 426 491 427 
f 426 490 491 
f 427 492 428 
f 427 491 492 
f 428 493 429 
f 428 492 493 
f 429 494 430 
f 429 493 494 
f 430 495 431 
f 430 494 495 
f 431 496 432 
f 431 495 496 
f 432 497 433 
f 432 496 497 
f 433 498 434 
f 433 497 498 
f 434 499 435 
f 434 498 499 
f 435 500 436 
f 435 499 500 
f 436 501 437 
f 436 500 501 
f 437 502 438 
f 437 501 502 
f 438 503 439 
f 438 502 503 
f 439 504 440 
f 439 503 504 
f 440 505 441 
f 440 504 505 
f 441 506 442 
f 441 505 506 
f 442 507 443 
f 442 506 507 
f 443 508 444 
f 443 507 508 
f 444 509 445 
f 444 508 509 
f 445 510 446 
f 445 509 510 
f 446 511 447 
f 446 510 511 
f 447 512 448 
f 447 511 512 
f 448 449 385 
f 448 512 449 
f 449 514 450 
f 449 513 514 
f 450 515 451 
f 450 514 515 
f 451 516 452 
f 451 515 516 
f 452 517 453 
f 452 516 517 
f 453 518 454 
f 453 517 518 
f 454 519 455 
f 454 518 519 
f 455 520 456 
f 455 519 520 
f 456 521 457 
f 456 520 521 
f 457 522 458 
f 457 521 522 
f 458 523 459 
f 458 522 523 
f 459 524 460 
f 459 523 524 
f 460 525 461 
f 460 524 525 
f 461 526 462 
f 461 525 526 
f 462 527 463 
f 462 526 527 
f 463 528 464 
f 463 527 528 
f 464 529 465 
f 464 528 529 
f 465 530 466 
f 465 529 530 
f 466 531 467 
f 466 530 531 
f 467 532 468 
f 467 531 532 
f 468 533 469 
f 468 532 533 
f 469 534 470 
f 469 533 534 
f 470 535 471 
f 470 534 535 
f 471 536 472 
f 471 535 536 
f 472 537 473 
f 472 536 537 
f 473 538 474 
f 473 537 538 
f 474 539 475 
f 474 538 539 
f 475 540 476 
f 475 539 540 
f 476 541 477 
f 476 540 541 
f 477 542 478 
f 477 541 542 
f 478 543 479 
f 478 542 543 
f 479 544 480 
f 479 543 544 
f 480 545 481 
f 480 544 545 
f 481 546 482 
f 481 545 546 
f 482 547 483 
f 482 546 547 
f 483 548 484 
f 483 547 548 
f 484 549 485 
f 484 548 549 
f 485 550 486 
f 485 549 550 
f 486 551 487 
f 486 550 551 
f 487 552 488 
f 487 551 552 
f 488 553 489 
f 488 552 553 
f 489 554 490 
f 489 553 554 
f 490 555 491 
f 490 554 555 
f 491 556 492 
f 491 555 556 
f 492 557 493 
f 492 556 557 
f 493 558 494 
f 493 557 558 
f 494 559 495 
f 494 558 559 
f 495 560 496 
f 495 559 560 
f 496 561 497 
f 496 560 561 
f 497 562 498 
f 497 561 562 
f 498 563 499 
f 498 562 563 
f 499 564 500 
f 499 563 564 
f 500 565 501 
f 500 564 565 
f 501 566 502 
f 501 565 566 
f 502 567 503 
f 502 566 567 
f 503 568 504 
f 503 567 568 
f 504 569 505 
f 504 568 569 
f 505 570 506 
f 505 569 570 
f 506 571 507 
f 506 570 571 
f 507 572 508 
f 507 571 572 
f 508 573 509 
f 508 572 573 
f 509 574 510 
f 509 573 574 
f 510 575 511 
f 510 574 575 
f 511 576 512 
f 511 575 576 
f 512 513 449 
f 512 576 513 
f 513 578 514 
f 513 577 578 
f 514 579 515 
f 514 578 579 
f 515 580 516 
f 515 579 580 
f 516 581 517 
f 516 580 581 
f 517 582 518 
f 517 581 582 
f 518 583 519 
f 518 582 583 
f 519 584 520 
f 519 583 584 
f 520 585 521 
f 520 584 585 
f 521 586 522 
f 521 585 586 
f 522 587 523 
f 522 586 587 
f 523 588 524 
f 523 587 588 
f 524 589 525 
f 524 588 589 
f 525 590 526 
f 525 589 590 
f 526 591 527 
f 526 590 591 
f 527 592 528 
f 527 591 592 
f 528 593 529 
f 528 592 593 
f 529 594 530 
f 529 593 594 
f 530 595 531 
f 530 594 595 
f 531 596 532 
f 531 595 596 
f 532 597 533 
f 532 596 597 
f 533 598 534 
f 533 597 598 
f 534 599 535 
f 534 598 599 
f 535 600 536 
f 535 599 600 
f 536 601 537 
f 536 600 601 
f 537 602 538 
f 537 601 602 
f 538 603 539 
f 538 602 603 
f 539 604 540 
f 539 603 604 
f 540 605 541 
f 540 604 605 
f 541 606 542 
f 541 605 606 
f 542 607 543 
f 542 606 607 
f 543 608 544 
f 543 607 608 
f 544 609 545 
f 544 608 609 
f 545 610 546 
f 545 609 610 
f 546 611 547 
f 546 610 611 
f 547 612 548 
f 547 611 612 
f 548 613 549 
f 548 612 613 
f 549 614 550 
f 549 613 614 
f 550 615 551 
f 550 614 615 
f 551 616 552 
f 551 615 616 
f 552 617 553 
f 552 616 617 
f 553 618 554 
f 553 617 618 
f 554 619 555 
f 554 618 619 
f 555 620 556 
f 555 619 620 
f 556 621 557 
f 556 620 621 
f 557 622 558 
f 557 621 622 
f 558 623 559 
f 558 622 623 
f 559 624 560 
f 559 623 624 
f 560 625 561 
f 560 624 625 
f 561 626 562 
f 561 625 626 
f 562 627 563 
f 562 626 627 
f 563 628 564 
f 563 627 628 
f 564 629 565 
f 564 628 629 
f 565 630 566 
f 565 629 630 
f 566 631 567 
f 566 630 631 
f 567 632 568 
f 567 631 632 
f 568 633 569 
f 568 632 633 
f 569 634 570 
f 569 633 634 
f 570 635 571 
f 570 634 635 
f 571 636 572 
f 571 635 636 
f 572 637 573 
f 572 636 637 
f 573 638 574 
f 573 637 638 
f 574 639 575 
f 574 638 639 
f 575 640 576 
f 575 639 640 
f 576 577 513 
f 576 640 577 
