# Branch
v -0.560686 10.7791 -28.8388
vn 0.181926 0.0488108 0.9821
v -0.458118 10.7709 -28.8627
vn 0.27722 0.0412113 0.959922
v -0.358424 10.7623 -28.8965
vn 0.369844 0.0332148 0.9285
v -0.262563 10.7534 -28.94
vn 0.458907 0.0248985 0.888135
v -0.171459 10.7442 -28.9926
vn 0.54355 0.0163424 0.839218
v -0.0859899 10.7348 -29.054
vn 0.622958 0.00762896 0.782218
v -0.00697788 10.7253 -29.1234
vn 0.696367 -0.00115799 0.717685
v 0.0648159 10.7159 -29.2003
vn 0.763069 -0.00993379 0.646241
v 0.1287 10.7065 -29.2839
vn 0.822423 -0.0186139 0.568573
v 0.184059 10.6974 -29.3734
vn 0.873856 -0.0271148 0.485429
v 0.23036 10.6885 -29.4679
vn 0.916873 -0.0353545 0.39761
v 0.267157 10.68 -29.5666
vn 0.951061 -0.0432538 0.305962
v 0.294096 10.672 -29.6684
vn 0.976089 -0.0507365 0.211367
v 0.310917 10.6644 -29.7724
vn 0.991717 -0.0577306 0.114737
v 0.317458 10.6575 -29.8776
vn 0.997794 -0.0641687 0.0170017
v 0.313656 10.6512 -29.983
vn 0.994262 -0.0699888 -0.0808972
v 0.299548 10.6457 -30.0875
vn 0.981155 -0.0751349 -0.178017
v 0.27527 10.6409 -30.1902
vn 0.958598 -0.0795574 -0.273422
v 0.241055 10.637 -30.29
vn 0.92681 -0.0832137 -0.366195
v 0.197234 10.6339 -30.3861
vn 0.886096 -0.0860686 -0.45544
v 0.144227 10.6318 -30.4774
vn 0.836849 -0.0880947 -0.5403
v 0.0825461 10.6305 -30.5632
vn 0.779542 -0.0892723 -0.619956
v 0.0127845 10.6301 -30.6425
vn 0.714728 -0.0895902 -0.693641
v -0.0643856 10.6307 -30.7146
vn 0.64303 -0.0890453 -0.760647
v -0.148221 10.6322 -30.7788
vn 0.56514 -0.0876429 -0.820327
v -0.237915 10.6347 -30.8346
vn 0.481807 -0.0853963 -0.872106
v -0.332603 10.638 -30.8813
vn 0.393834 -0.0823274 -0.915487
v -0.431373 10.6421 -30.9185
vn 0.302068 -0.0784656 -0.950051
v -0.533274 10.6471 -30.9458
vn 0.207394 -0.0738482 -0.975466
v -0.637326 10.6528 -30.9631
vn 0.110722 -0.0685196 -0.991487
v -0.742524 10.6593 -30.97
vn 0.0129831 -0.062531 -0.997959
v -0.847858 10.6664 -30.9666
vn -0.0848803 -0.0559403 -0.99482
v -0.952311 10.674 -30.953
vn -0.181926 -0.0488108 -0.9821
v -1.05488 10.6822 -30.9291
vn -0.27722 -0.0412113 -0.959922
v -1.15457 10.6908 -30.8953
vn -0.369844 -0.0332148 -0.9285
v -1.25043 10.6998 -30.8518
vn -0.458907 -0.0248985 -0.888135
v -1.34154 10.709 -30.7992
vn -0.54355 -0.0163424 -0.839218
v -1.42701 10.7184 -30.7378
vn -0.622958 -0.00762896 -0.782218
v -1.50602 10.7278 -30.6684
vn -0.696367 0.00115799 -0.717685
v -1.57781 10.7373 -30.5915
vn -0.763069 0.00993379 -0.646241
v -1.6417 10.7466 -30.5079
vn -0.822423 0.0186139 -0.568573
v -1.69706 10.7558 -30.4184
vn -0.873856 0.0271148 -0.485429
v -1.74336 10.7646 -30.3239
vn -0.916873 0.0353545 -0.39761
v -1.78015 10.7731 -30.2252
vn -0.951061 0.0432538 -0.305962
v -1.80709 10.7812 -30.1234
vn -0.976089 0.0507365 -0.211367
v -1.82391 10.7887 -30.0194
vn -0.991717 0.0577306 -0.114737
v -1.83045 10.7956 -29.9142
vn -0.997794 0.0641687 -0.0170017
v -1.82665 10.8019 -29.8088
vn -0.994262 0.0699888 0.0808972
v -1.81255 10.8074 -29.7043
vn -0.981155 0.0751349 0.178017
v -1.78827 10.8122 -29.6016
vn -0.958598 0.0795574 0.273422
v -1.75405 10.8161 -29.5017
vn -0.92681 0.0832137 0.366195
v -1.71023 10.8192 -29.4057
vn -0.886096 0.0860686 0.45544
v -1.65722 10.8214 -29.3144
vn -0.836849 0.0880947 0.5403
v -1.59554 10.8227 -29.2286
vn -0.779542 0.0892723 0.619956
v -1.52578 10.823 -29.1493
vn -0.714728 0.0895902 0.693641
v -1.44861 10.8224 -29.0772
vn -0.64303 0.0890453 0.760647
v -1.36478 10.8209 -29.0129
vn -0.56514 0.0876429 0.820327
v -1.27508 10.8185 -28.9572
vn -0.481807 0.0853963 0.872106
v -1.18039 10.8152 -28.9105
vn -0.393834 0.0823274 0.915487
v -1.08162 10.811 -28.8733
vn -0.302068 0.0784656 0.950051
v -0.979723 10.8061 -28.846
vn -0.207394 0.0738482 0.975466
v -0.875671 10.8003 -28.8287
vn -0.110722 0.0685196 0.991487
v -0.770473 10.7939 -28.8218
vn -0.0129831 0.062531 0.997959
v -0.665139 10.7868 -28.8251
vn 0.0848803 0.0559403 0.99482
v -0.723267 8.40124 -28.7313
vn 0.180697 0.0304606 0.983067
v -0.622418 8.39329 -28.7548
vn 0.275996 0.0229494 0.960885
v -0.524381 8.38511 -28.788
vn 0.368638 0.0152172 0.929448
v -0.430102 8.37677 -28.8308
vn 0.45773 0.00733847 0.889061
v -0.340487 8.36836 -28.8826
vn 0.542414 -0.000610957 0.840111
v -0.2564 8.35995 -28.9429
vn 0.621873 -0.00855449 0.783071
v -0.178651 8.35163 -29.0113
vn 0.695344 -0.0164156 0.718489
v -0.107988 8.34348 -29.0869
vn 0.762118 -0.0241187 0.646988
v -0.0450929 8.33557 -29.1692
vn 0.821553 -0.0315895 0.569256
v 0.00942994 8.32799 -29.2573
vn 0.873076 -0.0387561 0.486042
v 0.055055 8.3208 -29.3503
vn 0.91619 -0.0455494 0.398147
v 0.0913428 8.31408 -29.4473
vn 0.950481 -0.051904 0.306418
v 0.117944 8.30788 -29.5475
vn 0.975618 -0.0577588 0.211737
v 0.134602 8.30227 -29.6499
vn 0.99136 -0.0630574 0.115018
v 0.141157 8.29731 -29.7534
vn 0.997554 -0.0677486 0.0171904
v 0.137546 8.29303 -29.8571
vn 0.994142 -0.0717874 -0.0808024
v 0.123803 8.28949 -29.96
vn 0.981155 -0.0751349 -0.178017
v 0.10006 8.28671 -30.061
vn 0.958719 -0.0777588 -0.273517
v 0.0665474 8.28473 -30.1593
vn 0.92705 -0.0796338 -0.366383
v 0.0235865 8.28356 -30.2539
vn 0.886453 -0.0807419 -0.455721
v -0.0284086 8.28321 -30.3438
vn 0.837319 -0.0810724 -0.54067
v -0.088937 8.28368 -30.4281
vn 0.780121 -0.0806221 -0.620412
v -0.157416 8.28498 -30.5062
vn 0.715411 -0.0793954 -0.694179
v -0.233186 8.28709 -30.5772
vn 0.64381 -0.0774041 -0.76126
v -0.315517 8.28999 -30.6404
vn 0.566009 -0.0746673 -0.82101
v -0.403617 8.29364 -30.6953
vn 0.482758 -0.0712114 -0.872854
v -0.496636 8.29803 -30.7413
vn 0.394857 -0.0670698 -0.916291
v -0.59368 8.30309 -30.7779
vn 0.303153 -0.0622822 -0.950904
v -0.693813 8.30879 -30.8048
vn 0.20853 -0.0568948 -0.97636
v -0.796072 8.31507 -30.8218
vn 0.111898 -0.0509595 -0.992412
v -0.89947 8.32188 -30.8287
vn 0.0141893 -0.0445334 -0.998907
v -1.00301 8.32913 -30.8254
vn -0.0836565 -0.0376784 -0.995782
v -1.1057 8.33677 -30.8119
vn -0.180697 -0.0304606 -0.983067
v -1.20655 8.34472 -30.7884
vn -0.275996 -0.0229494 -0.960885
v -1.30459 8.3529 -30.7552
vn -0.368638 -0.0152172 -0.929448
v -1.39887 8.36124 -30.7124
vn -0.45773 -0.00733847 -0.889061
v -1.48848 8.36965 -30.6606
vn -0.542414 0.000610957 -0.840111
v -1.57257 8.37805 -30.6003
vn -0.621873 0.00855449 -0.783071
v -1.65032 8.38637 -30.5319
vn -0.695344 0.0164156 -0.718489
v -1.72098 8.39452 -30.4563
vn -0.762118 0.0241187 -0.646988
v -1.78388 8.40243 -30.374
vn -0.821553 0.0315895 -0.569256
v -1.8384 8.41001 -30.2859
vn -0.873076 0.0387561 -0.486042
v -1.88403 8.4172 -30.1929
vn -0.91619 0.0455494 -0.398147
v -1.92031 8.42393 -30.0959
vn -0.950481 0.051904 -0.306418
v -1.94692 8.43012 -29.9957
vn -0.975618 0.0577588 -0.211737
v -1.96357 8.43573 -29.8933
vn -0.99136 0.0630574 -0.115018
v -1.97013 8.4407 -29.7898
vn -0.997554 0.0677486 -0.0171904
v -1.96652 8.44497 -29.6861
vn -0.994142 0.0717874 0.0808024
v -1.95277 8.44851 -29.5832
vn -0.981155 0.0751349 0.178017
v -1.92903 8.45129 -29.4822
vn -0.958719 0.0777588 0.273517
v -1.89552 8.45327 -29.3839
vn -0.92705 0.0796338 0.366383
v -1.85256 8.45445 -29.2893
vn -0.886453 0.0807419 0.455721
v -1.80056 8.4548 -29.1994
vn -0.837319 0.0810724 0.54067
v -1.74003 8.45432 -29.1151
vn -0.780121 0.0806221 0.620412
v -1.67156 8.45302 -29.037
vn -0.715411 0.0793954 0.694179
v -1.59579 8.45091 -28.966
vn -0.64381 0.0774041 0.76126
v -1.51345 8.44802 -28.9028
vn -0.566009 0.0746673 0.82101
v -1.42536 8.44436 -28.8479
vn -0.482758 0.0712114 0.872854
v -1.33234 8.43998 -28.802
vn -0.394857 0.0670698 0.916291
v -1.23529 8.43491 -28.7653
vn -0.303153 0.0622822 0.950904
v -1.13516 8.42921 -28.7384
vn -0.20853 0.0568948 0.97636
v -1.0329 8.42293 -28.7214
vn -0.111898 0.0509595 0.992412
v -0.929502 8.41613 -28.7145
vn -0.0141893 0.0445334 0.998907
v -0.825958 8.40887 -28.7178
vn 0.0836565 0.0376784 0.995782
v -0.893261 6.02989 -28.6674
vn 0.179397 0.0119855 0.983704
v -0.79413 6.02217 -28.6904
vn 0.274703 0.00456325 0.961518
v -0.697751 6.01441 -28.7231
vn 0.367364 -0.00290291 0.930073
v -0.605051 6.00667 -28.7652
vn 0.456487 -0.0103411 0.88967
v -0.516924 5.99904 -28.8161
vn 0.541213 -0.0176797 0.8407
v -0.434219 5.99158 -28.8755
vn 0.620727 -0.0248481 0.783633
v -0.357732 5.98437 -28.9427
vn 0.694264 -0.0317772 0.719019
v -0.288199 5.97748 -29.0171
vn 0.761114 -0.0384002 0.64748
v -0.22629 5.97098 -29.098
vn 0.820634 -0.0446534 0.569707
v -0.172601 5.96492 -29.1846
vn 0.872251 -0.0504766 0.486446
v -0.12765 5.95937 -29.276
vn 0.915468 -0.0558136 0.398501
v -0.0918688 5.95438 -29.3715
vn 0.949869 -0.0606131 0.306718
v -0.0656028 5.94999 -29.4701
vn 0.975121 -0.0648289 0.211981
v -0.0491045 5.94626 -29.5707
vn 0.990983 -0.0684204 0.115202
v -0.042533 5.94321 -29.6725
vn 0.997301 -0.0713529 0.0173146
v -0.0459515 5.94087 -29.7745
vn 0.994014 -0.0735983 -0.08074
v -0.059327 5.93927 -29.8757
vn 0.981155 -0.0751349 -0.178017
v -0.0825309 5.93843 -29.9751
vn 0.958846 -0.0759479 -0.27358
v -0.11534 5.93834 -30.0718
vn 0.927303 -0.0760294 -0.366508
v -0.157437 5.93902 -30.1647
vn 0.88683 -0.0753788 -0.455906
v -0.208418 5.94045 -30.2532
vn 0.837816 -0.0740022 -0.540913
v -0.267791 5.94263 -30.3362
vn 0.780734 -0.071913 -0.620712
v -0.334985 5.94552 -30.4129
vn 0.716133 -0.0691312 -0.694532
v -0.409353 5.94911 -30.4828
vn 0.644634 -0.0656836 -0.761664
v -0.490177 5.95335 -30.545
vn 0.566928 -0.0616034 -0.821461
v -0.576681 5.95821 -30.5989
vn 0.483762 -0.05693 -0.873346
v -0.668031 5.96364 -30.6442
vn 0.395937 -0.0517083 -0.916821
v -0.763347 5.96959 -30.6802
vn 0.304299 -0.0459886 -0.951466
v -0.861711 5.976 -30.7067
vn 0.20973 -0.039826 -0.976948
v -0.962175 5.98281 -30.7234
vn 0.113142 -0.0332799 -0.993021
v -1.06377 5.98995 -30.7302
vn 0.0154636 -0.0264133 -0.999531
v -1.16553 5.99736 -30.7269
vn -0.0823635 -0.0192923 -0.996416
v -1.26645 6.00496 -30.7137
vn -0.179397 -0.0119855 -0.983704
v -1.36559 6.01268 -30.6906
vn -0.274703 -0.00456325 -0.961518
v -1.46196 6.02044 -30.6579
vn -0.367364 0.00290291 -0.930073
v -1.55466 6.02818 -30.6159
vn -0.456487 0.0103411 -0.88967
v -1.64279 6.03581 -30.565
vn -0.541213 0.0176797 -0.8407
v -1.7255 6.04327 -30.5056
vn -0.620727 0.0248481 -0.783633
v -1.80198 6.05048 -30.4384
vn -0.694264 0.0317772 -0.719019
v -1.87152 6.05737 -30.364
vn -0.761114 0.0384002 -0.64748
v -1.93343 6.06387 -30.2831
vn -0.820634 0.0446534 -0.569707
v -1.98711 6.06993 -30.1965
vn -0.872251 0.0504766 -0.486446
v -2.03207 6.07548 -30.105
vn -0.915468 0.0558136 -0.398501
v -2.06785 6.08047 -30.0096
vn -0.949869 0.0606131 -0.306718
v -2.09411 6.08486 -29.911
vn -0.975121 0.0648289 -0.211981
v -2.11061 6.08859 -29.8104
vn -0.990983 0.0684204 -0.115202
v -2.11718 6.09164 -29.7086
vn -0.997301 0.0713529 -0.0173146
v -2.11376 6.09398 -29.6066
vn -0.994014 0.0735983 0.08074
v -2.10039 6.09558 -29.5054
vn -0.981155 0.0751349 0.178017
v -2.07718 6.09642 -29.406
vn -0.958846 0.0759479 0.27358
v -2.04438 6.09651 -29.3093
vn -0.927303 0.0760294 0.366508
v -2.00228 6.09583 -29.2163
vn -0.88683 0.0753788 0.455906
v -1.9513 6.0944 -29.1279
vn -0.837816 0.0740022 0.540913
v -1.89192 6.09222 -29.0449
vn -0.780734 0.071913 0.620712
v -1.82473 6.08933 -28.9681
vn -0.716133 0.0691312 0.694532
v -1.75036 6.08574 -28.8983
vn -0.644634 0.0656836 0.761664
v -1.66954 6.0815 -28.8361
vn -0.566928 0.0616034 0.821461
v -1.58303 6.07664 -28.7821
vn -0.483762 0.05693 0.873346
v -1.49168 6.07121 -28.7369
vn -0.395937 0.0517083 0.916821
v -1.39637 6.06526 -28.7009
vn -0.304299 0.0459886 0.951466
v -1.298 6.05885 -28.6744
vn -0.20973 0.039826 0.976948
v -1.19754 6.05204 -28.6577
vn -0.113142 0.0332799 0.993021
v -1.09594 6.0449 -28.6509
vn -0.0154636 0.0264133 0.999531
v -0.994189 6.03749 -28.6541
vn 0.0823635 0.0192923 0.996416
v -1.07066 3.6651 -28.647
vn 0.178029 -0.0065966 0.984003
v -0.97325 3.65761 -28.6697
vn 0.273341 -0.0139293 0.961816
v -0.878527 3.65025 -28.7018
vn 0.366022 -0.0211279 0.930366
v -0.787408 3.6431 -28.7431
vn 0.455177 -0.0281231 0.889957
v -0.700768 3.63623 -28.7932
vn 0.539949 -0.0348473 0.840976
v -0.619443 3.6297 -28.8515
vn 0.61952 -0.041236 0.783897
v -0.544216 3.62357 -28.9176
vn 0.693126 -0.0472276 0.719268
v -0.475811 3.61792 -28.9907
vn 0.760056 -0.0527643 0.647712
v -0.414887 3.61278 -29.0702
vn 0.819666 -0.0577929 0.569918
v -0.362031 3.60821 -29.1554
vn 0.871383 -0.0622649 0.486636
v -0.317752 3.60425 -29.2453
vn 0.914708 -0.0661373 0.398667
v -0.282476 3.60094 -29.3391
vn 0.949223 -0.0693727 0.306859
v -0.256543 3.59832 -29.4359
vn 0.974597 -0.07194 0.212095
v -0.240202 3.5964 -29.5349
vn 0.990586 -0.0738145 0.115289
v -0.233612 3.59521 -29.635
vn 0.997034 -0.0749781 0.017373
v -0.236835 3.59476 -29.7352
vn 0.99388 -0.0754197 -0.0807106
v -0.249841 3.59505 -29.8346
vn 0.981155 -0.0751349 -0.178017
v -0.272504 3.59608 -29.9323
vn 0.95898 -0.0741265 -0.273609
v -0.304606 3.59784 -30.0274
vn 0.92757 -0.0724043 -0.366566
v -0.345838 3.60032 -30.1187
vn 0.887228 -0.0699847 -0.455993
v -0.395802 3.60348 -30.2057
vn 0.83834 -0.0668912 -0.541028
v -0.454018 3.6073 -30.2872
vn 0.781379 -0.0631534 -0.620853
v -0.519925 3.61174 -30.3627
vn 0.716893 -0.0588075 -0.694699
v -0.592888 3.61676 -30.4313
vn 0.645503 -0.0538952 -0.761854
v -0.672205 3.62231 -30.4925
vn 0.567896 -0.0484639 -0.821672
v -0.757111 3.62834 -30.5455
vn 0.48482 -0.0425658 -0.873578
v -0.84679 3.63479 -30.59
vn 0.397075 -0.0362578 -0.91707
v -0.940376 3.64159 -30.6254
vn 0.305506 -0.0296007 -0.95173
v -1.03697 3.64868 -30.6515
vn 0.210995 -0.0226584 -0.977225
v -1.13564 3.656 -30.6679
vn 0.114451 -0.015498 -0.993308
v -1.23544 3.66347 -30.6746
vn 0.0168059 -0.00818824 -0.999825
v -1.3354 3.67102 -30.6714
vn -0.0810014 -0.000799668 -0.996714
v -1.43456 3.67858 -30.6584
vn -0.178029 0.0065966 -0.984003
v -1.53198 3.68608 -30.6357
vn -0.273341 0.0139293 -0.961816
v -1.6267 3.69344 -30.6036
vn -0.366022 0.0211279 -0.930366
v -1.71782 3.70058 -30.5623
vn -0.455177 0.0281231 -0.889957
v -1.80446 3.70746 -30.5122
vn -0.539949 0.0348473 -0.840976
v -1.88578 3.71399 -30.4539
vn -0.61952 0.041236 -0.783897
v -1.96101 3.72011 -30.3878
vn -0.693126 0.0472276 -0.719268
v -2.02942 3.72577 -30.3147
vn -0.760056 0.0527643 -0.647712
v -2.09034 3.73091 -30.2352
vn -0.819666 0.0577929 -0.569918
v -2.1432 3.73548 -30.1501
vn -0.871383 0.0622649 -0.486636
v -2.18747 3.73944 -30.0602
vn -0.914708 0.0661373 -0.398667
v -2.22275 3.74274 -29.9663
vn -0.949223 0.0693727 -0.306859
v -2.24868 3.74537 -29.8695
vn -0.974597 0.07194 -0.212095
v -2.26502 3.74728 -29.7705
vn -0.990586 0.0738145 -0.115289
v -2.27161 3.74847 -29.6705
vn -0.997034 0.0749781 -0.017373
v -2.26839 3.74892 -29.5702
vn -0.99388 0.0754197 0.0807106
v -2.25539 3.74863 -29.4708
vn -0.981155 0.0751349 0.178017
v -2.23272 3.7476 -29.3731
vn -0.95898 0.0741265 0.273609
v -2.20062 3.74584 -29.2781
vn -0.92757 0.0724043 0.366566
v -2.15939 3.74337 -29.1867
vn -0.887228 0.0699847 0.455993
v -2.10942 3.74021 -29.0998
vn -0.83834 0.0668912 0.541028
v -2.05121 3.73639 -29.0182
vn -0.781379 0.0631534 0.620853
v -1.9853 3.73195 -28.9427
vn -0.716893 0.0588075 0.694699
v -1.91234 3.72692 -28.8741
vn -0.645503 0.0538952 0.761854
v -1.83302 3.72137 -28.8129
vn -0.567896 0.0484639 0.821672
v -1.74812 3.71535 -28.7599
vn -0.48482 0.0425658 0.873578
v -1.65844 3.7089 -28.7154
vn -0.397075 0.0362578 0.91707
v -1.56485 3.70209 -28.68
vn -0.305506 0.0296007 0.95173
v -1.46826 3.695 -28.654
vn -0.210995 0.0226584 0.977225
v -1.36959 3.68768 -28.6375
vn -0.114451 0.015498 0.993308
v -1.26979 3.68021 -28.6309
vn -0.0168059 0.00818824 0.999825
v -1.16983 3.67266 -28.634
vn 0.0810014 0.000799668 0.996714
v -1.25547 1.30689 -28.6703
vn 0.176591 -0.0252671 0.98396
v -1.15977 1.29962 -28.6925
vn 0.271911 -0.0325099 0.961773
v -1.06671 1.29266 -28.7241
vn 0.364612 -0.0394396 0.930324
v -0.977167 1.28608 -28.7647
vn 0.453801 -0.0459896 0.889915
v -0.892014 1.27995 -28.8139
vn 0.538621 -0.0520966 0.840936
v -0.812069 1.27432 -28.8712
vn 0.618253 -0.0577019 0.783859
v -0.738101 1.26925 -28.936
vn 0.69193 -0.0627515 0.719232
v -0.670823 1.26479 -29.0079
vn 0.758945 -0.0671968 0.647679
v -0.610883 1.26098 -29.086
vn 0.81865 -0.0709949 0.569888
v -0.558858 1.25785 -29.1696
vn 0.870471 -0.0741093 0.486609
v -0.515249 1.25544 -29.2579
vn 0.913909 -0.07651 0.398643
v -0.480476 1.25377 -29.3501
vn 0.948546 -0.0781739 0.306839
v -0.454874 1.25286 -29.4452
vn 0.974047 -0.0790849 0.212079
v -0.43869 1.25271 -29.5424
vn 0.990168 -0.0792342 0.115277
v -0.432079 1.25332 -29.6407
vn 0.996753 -0.0786206 0.0173646
v -0.435105 1.2547 -29.7391
vn 0.993739 -0.0772497 -0.0807149
v -0.447739 1.25682 -29.8368
vn 0.981155 -0.0751349 -0.178017
v -0.469859 1.25967 -29.9328
vn 0.959121 -0.0722965 -0.273605
v -0.501252 1.26322 -30.0261
vn 0.927851 -0.0687618 -0.366558
v -0.541617 1.26743 -30.1159
vn 0.887645 -0.064565 -0.45598
v -0.590563 1.27227 -30.2012
vn 0.83889 -0.0597463 -0.541011
v -0.64762 1.27769 -30.2814
vn 0.782057 -0.0543522 -0.620832
v -0.712239 1.28363 -30.3555
vn 0.717692 -0.0484348 -0.694675
v -0.783796 1.29004 -30.4229
vn 0.646415 -0.0420508 -0.761827
v -0.861603 1.29685 -30.483
vn 0.568912 -0.0352619 -0.821642
v -0.944911 1.30401 -30.5351
vn 0.485931 -0.0281334 -0.873544
v -1.03292 1.31144 -30.5787
vn 0.39827 -0.0207339 -0.917034
v -1.12477 1.31907 -30.6135
vn 0.306774 -0.0131348 -0.951692
v -1.2196 1.32682 -30.6391
vn 0.212323 -0.00540916 -0.977185
v -1.31647 1.33463 -30.6553
vn 0.115827 0.00236856 -0.993267
v -1.41447 1.34242 -30.6618
vn 0.0182159 0.0101235 -0.999783
v -1.51264 1.3501 -30.6587
vn -0.0795707 0.0177809 -0.996671
v -1.61004 1.35762 -30.6459
vn -0.176591 0.0252671 -0.98396
v -1.70573 1.36489 -30.6237
vn -0.271911 0.0325099 -0.961773
v -1.7988 1.37185 -30.5921
vn -0.364612 0.0394396 -0.930324
v -1.88834 1.37842 -30.5515
vn -0.453801 0.0459896 -0.889915
v -1.97349 1.38455 -30.5023
vn -0.538621 0.0520966 -0.840936
v -2.05344 1.39018 -30.445
vn -0.618253 0.0577019 -0.783859
v -2.12741 1.39525 -30.3802
vn -0.69193 0.0627515 -0.719232
v -2.19468 1.39971 -30.3083
vn -0.758945 0.0671968 -0.647679
v -2.25462 1.40353 -30.2302
vn -0.81865 0.0709949 -0.569888
v -2.30665 1.40665 -30.1466
vn -0.870471 0.0741093 -0.486609
v -2.35026 1.40906 -30.0583
vn -0.913909 0.07651 -0.398643
v -2.38503 1.41073 -29.9661
vn -0.948546 0.0781739 -0.306839
v -2.41063 1.41165 -29.871
vn -0.974047 0.0790849 -0.212079
v -2.42682 1.4118 -29.7738
vn -0.990168 0.0792342 -0.115277
v -2.43343 1.41118 -29.6755
vn -0.996753 0.0786206 -0.0173646
v -2.4304 1.40981 -29.5771
vn -0.993739 0.0772497 0.0807149
v -2.41777 1.40768 -29.4794
vn -0.981155 0.0751349 0.178017
v -2.39565 1.40483 -29.3834
vn -0.959121 0.0722965 0.273605
v -2.36425 1.40129 -29.2901
vn -0.927851 0.0687618 0.366558
v -2.32389 1.39707 -29.2003
vn -0.887645 0.064565 0.45598
v -2.27494 1.39223 -29.115
vn -0.83889 0.0597463 0.541011
v -2.21789 1.38682 -29.0348
vn -0.782057 0.0543522 0.620832
v -2.15327 1.38088 -28.9607
vn -0.717692 0.0484348 0.694675
v -2.08171 1.37447 -28.8933
vn -0.646415 0.0420508 0.761827
v -2.0039 1.36765 -28.8332
vn -0.568912 0.0352619 0.821642
v -1.9206 1.3605 -28.7811
vn -0.485931 0.0281334 0.873544
v -1.83259 1.35307 -28.7375
vn -0.39827 0.0207339 0.917034
v -1.74073 1.34544 -28.7027
vn -0.306774 0.0131348 0.951692
v -1.64591 1.33768 -28.6771
vn -0.212323 0.00540916 0.977185
v -1.54904 1.32988 -28.6609
vn -0.115827 -0.00236856 0.993267
v -1.45104 1.32209 -28.6544
vn -0.0182159 -0.0101235 0.999783
v -1.35287 1.3144 -28.6575
vn 0.0795707 -0.0177809 0.996671
v -1.44767 -1.04473 -28.7371
vn 0.175085 -0.0440068 0.983569
v -1.3537 -1.05178 -28.759
vn 0.270412 -0.0511594 0.961384
v -1.26229 -1.05834 -28.79
vn 0.363135 -0.0578193 0.929941
v -1.17433 -1.06436 -28.8298
vn 0.45236 -0.0639223 0.889542
v -1.09066 -1.06977 -28.8781
vn 0.537229 -0.0694098 0.840575
v -1.01209 -1.07452 -28.9343
vn 0.616924 -0.0742288 0.783514
v -0.939383 -1.07857 -28.998
vn 0.690678 -0.078333 0.718907
v -0.873231 -1.08187 -29.0685
vn 0.757781 -0.0816828 0.647377
v -0.814274 -1.08439 -29.1452
vn 0.817585 -0.0842459 0.569611
v -0.763079 -1.08612 -29.2273
vn 0.869516 -0.0859976 0.486361
v -0.720139 -1.08703 -29.3139
vn 0.913072 -0.0869212 0.398426
v -0.685868 -1.08712 -29.4044
vn 0.947836 -0.0870077 0.306654
v -0.660596 -1.08638 -29.4978
vn 0.973471 -0.0862562 0.211929
v -0.644566 -1.08482 -29.5932
vn 0.989731 -0.0846741 0.115163
v -0.637933 -1.08245 -29.6897
vn 0.99646 -0.0822765 0.0172884
v -0.640761 -1.07931 -29.7863
vn 0.993592 -0.0790865 -0.0807532
v -0.653021 -1.07541 -29.8822
vn 0.981155 -0.0751349 -0.178017
v -0.674597 -1.0708 -29.9764
vn 0.959269 -0.0704597 -0.273566
v -0.70528 -1.06553 -30.068
vn 0.928145 -0.0651059 -0.366481
v -0.744775 -1.05963 -30.1561
vn 0.888082 -0.0591251 -0.455867
v -0.792702 -1.05317 -30.2399
vn 0.839467 -0.0525749 -0.540862
v -0.848599 -1.04622 -30.3186
vn 0.782767 -0.0455184 -0.620648
v -0.911927 -1.03883 -30.3913
vn 0.718528 -0.0380235 -0.694458
v -0.982078 -1.03108 -30.4575
vn 0.64737 -0.0301625 -0.761579
v -1.05837 -1.02304 -30.5165
vn 0.569977 -0.0220109 -0.821366
v -1.14008 -1.0148 -30.5676
vn 0.487095 -0.0136474 -0.873242
v -1.22641 -1.00642 -30.6104
vn 0.399522 -0.00515243 -0.916709
v -1.31654 -0.997998 -30.6446
vn 0.308102 0.00339215 -0.951347
v -1.40959 -0.989607 -30.6697
vn 0.213714 0.0119041 -0.976824
v -1.50467 -0.981329 -30.6856
vn 0.117268 0.0203013 -0.992893
v -1.60086 -0.973243 -30.692
vn 0.0196929 0.0285031 -0.9994
v -1.69724 -0.965428 -30.6889
vn -0.0780721 0.0364303 -0.996282
v -1.79288 -0.957959 -30.6764
vn -0.175085 0.0440068 -0.983569
v -1.88686 -0.950908 -30.6545
vn -0.270412 0.0511594 -0.961384
v -1.97827 -0.944342 -30.6235
vn -0.363135 0.0578193 -0.929941
v -2.06623 -0.938326 -30.5837
vn -0.45236 0.0639223 -0.889542
v -2.1499 -0.932916 -30.5354
vn -0.537229 0.0694098 -0.840575
v -2.22846 -0.928165 -30.4791
vn -0.616924 0.0742288 -0.783514
v -2.30117 -0.924119 -30.4154
vn -0.690678 0.078333 -0.718907
v -2.36732 -0.920817 -30.3449
vn -0.757781 0.0816828 -0.647377
v -2.42628 -0.91829 -30.2683
vn -0.817585 0.0842459 -0.569611
v -2.47748 -0.916563 -30.1862
vn -0.869516 0.0859976 -0.486361
v -2.52042 -0.915653 -30.0995
vn -0.913072 0.0869212 -0.398426
v -2.55469 -0.915567 -30.009
vn -0.947836 0.0870077 -0.306654
v -2.57996 -0.916308 -29.9157
vn -0.973471 0.0862562 -0.211929
v -2.59599 -0.917868 -29.8203
vn -0.989731 0.0846741 -0.115163
v -2.60262 -0.920231 -29.7238
vn -0.99646 0.0822765 -0.0172884
v -2.59979 -0.923376 -29.6271
vn -0.993592 0.0790865 0.0807532
v -2.58753 -0.927272 -29.5312
vn -0.981155 0.0751349 0.178017
v -2.56596 -0.931881 -29.437
vn -0.959269 0.0704597 0.273566
v -2.53527 -0.937159 -29.3454
vn -0.928145 0.0651059 0.366481
v -2.49578 -0.943055 -29.2573
vn -0.888082 0.0591251 0.455867
v -2.44785 -0.949512 -29.1735
vn -0.839467 0.0525749 0.540862
v -2.39196 -0.956469 -29.0949
vn -0.782767 0.0455184 0.620648
v -2.32863 -0.963858 -29.0221
vn -0.718528 0.0380235 0.694458
v -2.25848 -0.971607 -28.9559
vn -0.64737 0.0301625 0.761579
v -2.18218 -0.979643 -28.897
vn -0.569977 0.0220109 0.821366
v -2.10047 -0.987888 -28.8459
vn -0.487095 0.0136474 0.873242
v -2.01414 -0.996263 -28.803
vn -0.399522 0.00515243 0.916709
v -1.92401 -1.00469 -28.7689
vn -0.308102 -0.00339215 0.951347
v -1.83096 -1.01308 -28.7437
vn -0.213714 -0.0119041 0.976824
v -1.73588 -1.02136 -28.7279
vn -0.117268 -0.0203013 0.992893
v -1.63969 -1.02944 -28.7215
vn -0.0196929 -0.0285031 0.9994
v -1.54331 -1.03726 -28.7246
vn 0.0780721 -0.0364303 0.996282
v -1.64727 -3.38971 -28.8475
vn 0.173512 -0.0627961 0.982828
v -1.55501 -3.39655 -28.8689
vn 0.268846 -0.0698582 0.960646
v -1.46526 -3.40273 -28.8993
vn 0.361592 -0.0762476 0.929214
v -1.37888 -3.4082 -28.9384
vn 0.450855 -0.0819026 0.888832
v -1.2967 -3.41291 -28.9858
vn 0.535776 -0.0867689 0.83989
v -1.21951 -3.41681 -29.041
vn 0.615537 -0.0907996 0.78286
v -1.14806 -3.41987 -29.1035
vn 0.68937 -0.0939558 0.71829
v -1.08303 -3.42205 -29.1726
vn 0.756564 -0.0962071 0.646803
v -1.02506 -3.42333 -29.2479
vn 0.816473 -0.0975319 0.569087
v -0.974691 -3.4237 -29.3284
vn 0.868518 -0.0979175 0.48589
v -0.932419 -3.42316 -29.4134
vn 0.912198 -0.09736 0.398014
v -0.898649 -3.42172 -29.5022
vn 0.947094 -0.0958649 0.306305
v -0.873706 -3.41938 -29.5938
vn 0.972869 -0.0934466 0.211646
v -0.85783 -3.41616 -29.6873
vn 0.989274 -0.0901284 0.114948
v -0.851174 -3.41211 -29.782
vn 0.996153 -0.0859421 0.0171437
v -0.853801 -3.40726 -29.8768
vn 0.993437 -0.0809282 -0.0808258
v -0.865688 -3.40165 -29.9709
vn 0.981155 -0.0751349 -0.178017
v -0.886718 -3.39535 -30.0632
vn 0.959423 -0.068618 -0.273494
v -0.91669 -3.3884 -30.1531
vn 0.928452 -0.0614403 -0.366337
v -0.955315 -3.38088 -30.2395
vn 0.888539 -0.0536709 -0.455651
v -1.00222 -3.37286 -30.3217
vn 0.840069 -0.0453846 -0.540578
v -1.05696 -3.36442 -30.3989
vn 0.783508 -0.0366612 -0.620299
v -1.11899 -3.35564 -30.4702
vn 0.719402 -0.0275847 -0.694046
v -1.18774 -3.3466 -30.5351
vn 0.648368 -0.0182426 -0.761108
v -1.26252 -3.33739 -30.5929
vn 0.57109 -0.00872485 -0.820841
v -1.34263 -3.3281 -30.6431
vn 0.488312 0.000876969 -0.872669
v -1.42729 -3.31881 -30.6851
vn 0.400831 0.0104703 -0.916092
v -1.51568 -3.30963 -30.7186
vn 0.309489 0.0199629 -0.950693
v -1.60696 -3.30063 -30.7432
vn 0.215168 0.0292632 -0.976139
v -1.70024 -3.2919 -30.7587
vn 0.118774 0.0382816 -0.992183
v -1.79463 -3.28353 -30.765
vn 0.021236 0.0469314 -0.998672
v -1.88922 -3.27559 -30.762
vn -0.0765062 0.0551292 -0.995544
v -1.9831 -3.26817 -30.7497
vn -0.173512 0.0627961 -0.982828
v -2.07536 -3.26134 -30.7282
vn -0.268846 0.0698582 -0.960646
v -2.16511 -3.25516 -30.6978
vn -0.361592 0.0762476 -0.929214
v -2.25149 -3.24968 -30.6587
vn -0.450855 0.0819026 -0.888832
v -2.33367 -3.24497 -30.6114
vn -0.535776 0.0867689 -0.83989
v -2.41086 -3.24107 -30.5562
vn -0.615537 0.0907996 -0.78286
v -2.48231 -3.23802 -30.4937
vn -0.68937 0.0939558 -0.71829
v -2.54734 -3.23584 -30.4245
vn -0.756564 0.0962071 -0.646803
v -2.60532 -3.23456 -30.3493
vn -0.816473 0.0975319 -0.569087
v -2.65568 -3.23419 -30.2688
vn -0.868518 0.0979175 -0.48589
v -2.69795 -3.23473 -30.1837
vn -0.912198 0.09736 -0.398014
v -2.73172 -3.23617 -30.095
vn -0.947094 0.0958649 -0.306305
v -2.75667 -3.23851 -30.0034
vn -0.972869 0.0934466 -0.211646
v -2.77254 -3.24172 -29.9098
vn -0.989274 0.0901284 -0.114948
v -2.7792 -3.24577 -29.8152
vn -0.996153 0.0859421 -0.0171437
v -2.77657 -3.25063 -29.7204
vn -0.993437 0.0809282 0.0808258
v -2.76468 -3.25623 -29.6263
vn -0.981155 0.0751349 0.178017
v -2.74365 -3.26254 -29.5339
vn -0.959423 0.068618 0.273494
v -2.71368 -3.26949 -29.4441
vn -0.928452 0.0614403 0.366337
v -2.67506 -3.277 -29.3576
vn -0.888539 0.0536709 0.455651
v -2.62815 -3.28502 -29.2754
vn -0.840069 0.0453846 0.540578
v -2.57341 -3.29347 -29.1983
vn -0.783508 0.0366612 0.620299
v -2.51138 -3.30225 -29.1269
vn -0.719402 0.0275847 0.694046
v -2.44263 -3.31129 -29.062
vn -0.648368 0.0182426 0.761108
v -2.36785 -3.3205 -29.0042
vn -0.57109 0.00872485 0.820841
v -2.28774 -3.32979 -28.9541
vn -0.488312 -0.000876969 0.872669
v -2.20308 -3.33908 -28.912
vn -0.400831 -0.0104703 0.916092
v -2.11469 -3.34826 -28.8786
vn -0.309489 -0.0199629 0.950693
v -2.02341 -3.35726 -28.8539
vn -0.215168 -0.0292632 0.976139
v -1.93013 -3.36599 -28.8384
vn -0.118774 -0.0382816 0.992183
v -1.83574 -3.37436 -28.8321
vn -0.021236 -0.0469314 0.998672
v -1.74115 -3.38229 -28.8352
vn 0.0765062 -0.0551292 0.995544
v -1.85426 -5.72806 -29.0014
vn 0.171872 -0.0816151 0.981733
v -1.76372 -5.73468 -29.0224
vn 0.267214 -0.0885866 0.959557
v -1.67562 -5.74049 -29.0523
vn 0.359983 -0.094705 0.92814
v -1.59082 -5.74543 -29.0906
vn 0.449285 -0.0999113 0.887784
v -1.51012 -5.74946 -29.137
vn 0.534261 -0.104155 0.838879
v -1.43432 -5.75254 -29.1911
vn 0.614091 -0.107396 0.781894
v -1.36412 -5.75464 -29.2524
vn 0.688007 -0.109603 0.71738
v -1.30022 -5.75573 -29.3202
vn 0.755297 -0.110754 0.645957
v -1.24323 -5.75581 -29.394
vn 0.815313 -0.110839 0.568313
v -1.19369 -5.75488 -29.4729
vn 0.867477 -0.109856 0.485196
v -1.15209 -5.75294 -29.5563
vn 0.911287 -0.107815 0.397406
v -1.11882 -5.75001 -29.6433
vn 0.946321 -0.104736 0.305789
v -1.0942 -5.74613 -29.7331
vn 0.972241 -0.100648 0.211227
v -1.07848 -5.74133 -29.8248
vn 0.988798 -0.0955912 0.11463
v -1.0718 -5.73565 -29.9176
vn 0.995833 -0.0896135 0.0169301
v -1.07423 -5.72916 -30.0105
vn 0.993277 -0.0827728 -0.0809332
v -1.08574 -5.7219 -30.1027
vn 0.981155 -0.0751349 -0.178017
v -1.10622 -5.71396 -30.1933
vn 0.959584 -0.0667734 -0.273386
v -1.13548 -5.70541 -30.2813
vn 0.928772 -0.0577689 -0.366123
v -1.17324 -5.69633 -30.3661
vn 0.889015 -0.048208 -0.455334
v -1.21912 -5.68681 -30.4466
vn 0.840696 -0.0381828 -0.540159
v -1.2727 -5.67694 -30.5222
vn 0.784281 -0.02779 -0.619783
v -1.33344 -5.66682 -30.5922
vn 0.720313 -0.0171294 -0.693437
v -1.40078 -5.65654 -30.6558
vn 0.649408 -0.00630397 -0.760414
v -1.47405 -5.6462 -30.7124
vn 0.572249 0.00458221 -0.820067
v -1.55256 -5.6359 -30.7616
vn 0.489579 0.0154243 -0.871822
v -1.63554 -5.62575 -30.8027
vn 0.402194 0.0261178 -0.915182
v -1.7222 -5.61583 -30.8356
vn 0.310936 0.0365598 -0.949728
v -1.81171 -5.60625 -30.8597
vn 0.216683 0.0466497 -0.975127
v -1.9032 -5.5971 -30.8749
vn 0.120343 0.0562903 -0.991135
v -1.99578 -5.58846 -30.881
vn 0.0228443 0.0653888 -0.997598
v -2.08858 -5.58041 -30.878
vn -0.0748743 0.0738576 -0.994454
v -2.18069 -5.57305 -30.8659
vn -0.171872 0.0816151 -0.981733
v -2.27123 -5.56643 -30.8449
vn -0.267214 0.0885866 -0.959557
v -2.35933 -5.56062 -30.8151
vn -0.359983 0.094705 -0.92814
v -2.44414 -5.55567 -30.7767
vn -0.449285 0.0999113 -0.887784
v -2.52483 -5.55164 -30.7303
vn -0.534261 0.104155 -0.838879
v -2.60064 -5.54856 -30.6762
vn -0.614091 0.107396 -0.781894
v -2.67083 -5.54647 -30.6149
vn -0.688007 0.109603 -0.71738
v -2.73474 -5.54538 -30.5471
vn -0.755297 0.110754 -0.645957
v -2.79173 -5.5453 -30.4733
vn -0.815313 0.110839 -0.568313
v -2.84127 -5.54623 -30.3944
vn -0.867477 0.109856 -0.485196
v -2.88287 -5.54817 -30.311
vn -0.911287 0.107815 -0.397406
v -2.91614 -5.55109 -30.224
vn -0.946321 0.104736 -0.305789
v -2.94075 -5.55497 -30.1342
vn -0.972241 0.100648 -0.211227
v -2.95648 -5.55978 -30.0425
vn -0.988798 0.0955912 -0.11463
v -2.96316 -5.56545 -29.9497
vn -0.995833 0.0896135 -0.0169301
v -2.96073 -5.57195 -29.8568
vn -0.993277 0.0827728 0.0809332
v -2.94922 -5.5792 -29.7646
vn -0.981155 0.0751349 0.178017
v -2.92873 -5.58714 -29.674
vn -0.959584 0.0667734 0.273386
v -2.89947 -5.59569 -29.586
vn -0.928772 0.0577689 0.366123
v -2.86172 -5.60477 -29.5013
vn -0.889015 0.048208 0.455334
v -2.81583 -5.61429 -29.4207
vn -0.840696 0.0381828 0.540159
v -2.76226 -5.62416 -29.3451
vn -0.784281 0.02779 0.619783
v -2.70151 -5.63429 -29.2751
vn -0.720313 0.0171294 0.693437
v -2.63418 -5.64457 -29.2115
vn -0.649408 0.00630397 0.760414
v -2.56091 -5.6549 -29.1549
vn -0.572249 -0.00458221 0.820067
v -2.4824 -5.6652 -29.1057
vn -0.489579 -0.0154243 0.871822
v -2.39942 -5.67535 -29.0646
vn -0.402194 -0.0261178 0.915182
v -2.31275 -5.68527 -29.0318
vn -0.310936 -0.0365598 0.949728
v -2.22325 -5.69485 -29.0076
vn -0.216683 -0.0466497 0.975127
v -2.13176 -5.70401 -28.9924
vn -0.120343 -0.0562903 0.991135
v -2.03917 -5.71265 -28.9863
vn -0.0228443 -0.0653888 0.997598
v -1.94637 -5.72069 -28.9893
vn 0.0748743 -0.0738576 0.994454
v -2.06864 -8.05973 -29.1988
vn 0.170167 -0.100444 0.980283
v -1.97982 -8.06614 -29.2194
vn 0.265518 -0.107324 0.958114
v -1.89337 -8.07159 -29.2487
vn 0.358311 -0.113172 0.926717
v -1.81015 -8.07602 -29.2863
vn 0.447654 -0.117929 0.886396
v -1.73094 -8.0794 -29.3318
vn 0.532686 -0.121551 0.837539
v -1.65651 -8.08168 -29.3848
vn 0.612587 -0.124002 0.780616
v -1.58757 -8.08285 -29.4448
vn 0.686589 -0.125259 0.716174
v -1.5248 -8.0829 -29.5113
vn 0.753979 -0.125309 0.644836
v -1.46878 -8.08182 -29.5835
vn 0.814107 -0.124153 0.567288
v -1.42007 -8.07963 -29.6608
vn 0.866396 -0.121801 0.484276
v -1.37914 -8.07634 -29.7425
vn 0.91034 -0.118276 0.3966
v -1.34637 -8.072 -29.8277
vn 0.945517 -0.113612 0.305105
v -1.32208 -8.06664 -29.9157
vn 0.971589 -0.107854 0.210672
v -1.30651 -8.0603 -30.0056
vn 0.988303 -0.101057 0.114209
v -1.29981 -8.05307 -30.0965
vn 0.9955 -0.0932868 0.0166472
v -1.30204 -8.04499 -30.1875
vn 0.99311 -0.0846183 -0.0810753
v -1.31317 -8.03616 -30.2778
vn 0.981155 -0.0751349 -0.178017
v -1.33311 -8.02665 -30.3665
vn 0.959751 -0.0649279 -0.273244
v -1.36166 -8.01656 -30.4528
vn 0.929104 -0.0540956 -0.36584
v -1.39854 -8.00598 -30.5357
vn 0.88951 -0.0427424 -0.454913
v -1.44341 -7.99502 -30.6146
vn 0.841349 -0.0309775 -0.539604
v -1.49582 -7.98379 -30.6887
vn 0.785085 -0.0189143 -0.619099
v -1.55527 -7.97238 -30.7572
vn 0.721261 -0.0066689 -0.692632
v -1.6212 -7.96091 -30.8195
vn 0.65049 0.00564069 -0.759494
v -1.69296 -7.9495 -30.8749
vn 0.573455 0.017896 -0.819042
v -1.76987 -7.93824 -30.9231
vn 0.490897 0.0299789 -0.870702
v -1.85118 -7.92725 -30.9634
vn 0.403612 0.0417731 -0.913976
v -1.93611 -7.91664 -30.9955
vn 0.312439 0.053165 -0.948449
v -2.02384 -7.90651 -31.0191
vn 0.218258 0.0640449 -0.973787
v -2.11353 -7.89695 -31.0339
vn 0.121975 0.074308 -0.989748
v -2.20432 -7.88805 -31.0399
vn 0.0245165 0.0838555 -0.996176
v -2.29532 -7.87991 -31.037
vn -0.0731776 0.0925954 -0.993011
v -2.38567 -7.8726 -31.0251
vn -0.170167 0.100444 -0.980283
v -2.47449 -7.86619 -31.0045
vn -0.265518 0.107324 -0.958114
v -2.56093 -7.86074 -30.9752
vn -0.358311 0.113172 -0.926717
v -2.64416 -7.85631 -30.9377
vn -0.447654 0.117929 -0.886396
v -2.72337 -7.85294 -30.8922
vn -0.532686 0.121551 -0.837539
v -2.7978 -7.85065 -30.8391
vn -0.612587 0.124002 -0.780616
v -2.86674 -7.84948 -30.7791
vn -0.686589 0.125259 -0.716174
v -2.92951 -7.84944 -30.7127
vn -0.753979 0.125309 -0.644836
v -2.98553 -7.85051 -30.6404
vn -0.814107 0.124153 -0.567288
v -3.03423 -7.8527 -30.5631
vn -0.866396 0.121801 -0.484276
v -3.07517 -7.85599 -30.4814
vn -0.91034 0.118276 -0.3966
v -3.10794 -7.86033 -30.3962
vn -0.945517 0.113612 -0.305105
v -3.13223 -7.8657 -30.3082
vn -0.971589 0.107854 -0.210672
v -3.1478 -7.87203 -30.2184
vn -0.988303 0.101057 -0.114209
v -3.1545 -7.87927 -30.1275
vn -0.9955 0.0932868 -0.0166472
v -3.15227 -7.88734 -30.0364
vn -0.99311 0.0846183 0.0810753
v -3.14114 -7.89618 -29.9461
vn -0.981155 0.0751349 0.178017
v -3.1212 -7.90568 -29.8574
vn -0.959751 0.0649279 0.273244
v -3.09265 -7.91577 -29.7712
vn -0.929104 0.0540956 0.36584
v -3.05577 -7.92635 -29.6882
vn -0.88951 0.0427424 0.454913
v -3.0109 -7.93731 -29.6093
vn -0.841349 0.0309775 0.539604
v -2.95849 -7.94855 -29.5352
vn -0.785085 0.0189143 0.619099
v -2.89904 -7.95995 -29.4668
vn -0.721261 0.0066689 0.692632
v -2.83311 -7.97142 -29.4045
vn -0.65049 -0.00564069 0.759494
v -2.76135 -7.98284 -29.349
vn -0.573455 -0.017896 0.819042
v -2.68444 -7.99409 -29.3009
vn -0.490897 -0.0299789 0.870702
v -2.60313 -8.00508 -29.2606
vn -0.403612 -0.0417731 0.913976
v -2.5182 -8.01569 -29.2284
vn -0.312439 -0.053165 0.948449
v -2.43047 -8.02583 -29.2048
vn -0.218258 -0.0640449 0.973787
v -2.34078 -8.03539 -29.19
vn -0.121975 -0.074308 0.989748
v -2.24999 -8.04428 -29.184
vn -0.0245165 -0.0838555 0.996176
v -2.15899 -8.05242 -29.1869
vn 0.0731776 -0.0925954 0.993011
v -2.29039 -10.3847 -29.4397
vn 0.168399 -0.119261 0.978478
v -2.20329 -10.3909 -29.46
vn 0.263758 -0.126051 0.956317
v -2.1185 -10.396 -29.4886
vn 0.356577 -0.131628 0.924947
v -2.03686 -10.4 -29.5254
vn 0.445962 -0.135936 0.884669
v -1.95913 -10.4027 -29.57
vn 0.531052 -0.138936 0.835871
v -1.88608 -10.4042 -29.6219
vn 0.611027 -0.140597 0.779024
v -1.8184 -10.4045 -29.6807
vn 0.685119 -0.140905 0.714674
v -1.75675 -10.4035 -29.7458
vn 0.752612 -0.139855 0.643441
v -1.70172 -10.4013 -29.8165
vn 0.812857 -0.137459 0.566011
v -1.65384 -10.3979 -29.8922
vn 0.865274 -0.133739 0.483131
v -1.61357 -10.3934 -29.9721
vn 0.909358 -0.12873 0.395597
v -1.58131 -10.3877 -30.0556
vn 0.944684 -0.122482 0.304254
v -1.55735 -10.3809 -30.1417
vn 0.970912 -0.115055 0.209981
v -1.54193 -10.3731 -30.2297
vn 0.98779 -0.106519 0.113685
v -1.5352 -10.3644 -30.3186
vn 0.995155 -0.0969579 0.0162951
v -1.53723 -10.3548 -30.4077
vn 0.992936 -0.0864627 -0.0812522
v -1.54799 -10.3444 -30.4961
vn 0.981155 -0.0751349 -0.178017
v -1.56738 -10.3334 -30.5829
vn 0.959924 -0.0630835 -0.273067
v -1.59522 -10.3218 -30.6673
vn 0.929449 -0.0504245 -0.365488
v -1.63123 -10.3098 -30.7486
vn 0.890023 -0.0372799 -0.454389
v -1.67508 -10.2975 -30.8258
vn 0.842025 -0.0237763 -0.538913
v -1.72633 -10.285 -30.8982
vn 0.785919 -0.0100437 -0.618248
v -1.78449 -10.2723 -30.9653
vn 0.722243 0.00378557 -0.691629
v -1.84901 -10.2597 -31.0262
vn 0.651612 0.0175784 -0.758349
v -1.91926 -10.2473 -31.0805
vn 0.574705 0.031202 -0.817765
v -1.99456 -10.2351 -31.1276
vn 0.492264 0.044525 -0.869306
v -2.0742 -10.2233 -31.167
vn 0.405082 0.0574193 -0.912475
v -2.1574 -10.2121 -31.1984
vn 0.313999 0.0697606 -0.946857
v -2.24336 -10.2014 -31.2215
vn 0.219892 0.0814301 -0.97212
v -2.33125 -10.1915 -31.236
vn 0.123667 0.0923153 -0.98802
v -2.42024 -10.1823 -31.2418
vn 0.026251 0.102311 -0.994406
v -2.50945 -10.1741 -31.2389
vn -0.0714176 0.111322 -0.991215
v -2.59804 -10.1668 -31.2273
vn -0.168399 0.119261 -0.978478
v -2.68514 -10.1606 -31.207
vn -0.263758 0.126051 -0.956317
v -2.76993 -10.1556 -31.1784
vn -0.356577 0.131628 -0.924947
v -2.85157 -10.1516 -31.1416
vn -0.445962 0.135936 -0.884669
v -2.9293 -10.1489 -31.097
vn -0.531052 0.138936 -0.835871
v -3.00235 -10.1474 -31.0451
vn -0.611027 0.140597 -0.779024
v -3.07003 -10.1471 -30.9863
vn -0.685119 0.140905 -0.714674
v -3.13168 -10.148 -30.9212
vn -0.752612 0.139855 -0.643441
v -3.18671 -10.1502 -30.8505
vn -0.812857 0.137459 -0.566011
v -3.23459 -10.1536 -30.7748
vn -0.865274 0.133739 -0.483131
v -3.27486 -10.1582 -30.6949
vn -0.909358 0.12873 -0.395597
v -3.30713 -10.1639 -30.6114
vn -0.944684 0.122482 -0.304254
v -3.33108 -10.1707 -30.5253
vn -0.970912 0.115055 -0.209981
v -3.3465 -10.1785 -30.4373
vn -0.98779 0.106519 -0.113685
v -3.35323 -10.1872 -30.3484
vn -0.995155 0.0969579 -0.0162951
v -3.3512 -10.1968 -30.2593
vn -0.992936 0.0864627 0.0812522
v -3.34044 -10.2072 -30.1709
vn -0.981155 0.0751349 0.178017
v -3.32105 -10.2182 -30.0841
vn -0.959924 0.0630835 0.273067
v -3.29321 -10.2297 -29.9996
vn -0.929449 0.0504245 0.365488
v -3.2572 -10.2417 -29.9184
vn -0.890023 0.0372799 0.454389
v -3.21335 -10.2541 -29.8412
vn -0.842025 0.0237763 0.538913
v -3.1621 -10.2666 -29.7688
vn -0.785919 0.0100437 0.618248
v -3.10394 -10.2792 -29.7017
vn -0.722243 -0.00378557 0.691629
v -3.03942 -10.2918 -29.6408
vn -0.651612 -0.0175784 0.758349
v -2.96917 -10.3043 -29.5865
vn -0.574705 -0.031202 0.817765
v -2.89387 -10.3165 -29.5394
vn -0.492264 -0.044525 0.869306
v -2.81423 -10.3282 -29.5
vn -0.405082 -0.0574193 0.912475
v -2.73103 -10.3395 -29.4686
vn -0.313999 -0.0697606 0.946857
v -2.64507 -10.3502 -29.4455
vn -0.219892 -0.0814301 0.97212
v -2.55718 -10.3601 -29.431
vn -0.123667 -0.0923153 0.98802
v -2.46819 -10.3692 -29.4252
vn -0.026251 -0.102311 0.994406
v -2.37898 -10.3775 -29.4281
vn 0.0714176 -0.111322 0.991215
f 1 66 2 
f 1 65 66 
f 2 67 3 
f 2 66 67 
f 3 68 4 
f 3 67 68 
f 4 69 5 
f 4 68 69 
f 5 70 6 
f 5 69 70 
f 6 71 7 
f 6 70 71 
f 7 72 8 
f 7 71 72 
f 8 73 9 
f 8 72 73 
f 9 74 10 
f 9 73 74 
f 10 75 11 
f 10 74 75 
f 11 76 12 
f 11 75 76 
f 12 77 13 
f 12 76 77 
f 13 78 14 
f 13 77 78 
f 14 79 15 
f 14 78 79 
f 15 80 16 
f 15 79 80 
f 16 81 17 
f 16 80 81 
f 17 82 18 
f 17 81 82 
f 18 83 19 
f 18 82 83 
f 19 84 20 
f 19 83 84 
f 20 85 21 
f 20 84 85 
f 21 86 22 
f 21 85 86 
f 22 87 23 
f 22 86 87 
f 23 88 24 
f 23 87 88 
f 24 89 25 
f 24 88 89 
f 25 90 26 
f 25 89 90 
f 26 91 27 
f 26 90 91 
f 27 92 28 
f 27 91 92 
f 28 93 29 
f 28 92 93 
f 29 94 30 
f 29 93 94 
f 30 95 31 
f 30 94 95 
f 31 96 32 
f 31 95 96 
f 32 97 33 
f 32 96 97 
f 33 98 34 
f 33 97 98 
f 34 99 35 
f 34 98 99 
f 35 100 36 
f 35 99 100 
f 36 101 37 
f 36 100 101 
f 37 102 38 
f 37 101 102 
f 38 103 39 
f 38 102 103 
f 39 104 40 
f 39 103 104 
f 40 105 41 
f 40 104 105 
f 41 106 42 
f 41 105 106 
f 42 107 43 
f 42 106 107 
f 43 108 44 
f 43 107 108 
f 44 109 45 
f 44 108 109 
f 45 110 46 
f 45 109 110 
f 46 111 47 
f 46 110 111 
f 47 112 48 
f 47 111 112 
f 48 113 49 
f 48 112 113 
f 49 114 50 
f 49 113 114 
f 50 115 51 
f 50 114 115 
f 51 116 52 
f 51 115 116 
f 52 117 53 
f 52 116 117 
f 53 118 54 
f 53 117 118 
f 54 119 55 
f 54 118 119 
f 55 120 56 
f 55 119 120 
f 56 121 57 
f 56 120 121 
f 57 122 58 
f 57 121 122 
f 58 123 59 
f 58 122 123 
f 59 124 60 
f 59 123 124 
f 60 125 61 
f 60 124 125 
f 61 126 62 
f 61 125 126 
f 62 127 63 
f 62 126 127 
f 63 128 64 
f 63 127 128 
f 64 65 1 
f 64 128 65 
f 65 130 66 
f 65 129 130 
f 66 131 67 
f 66 130 131 
f 67 132 68 
f 67 131 132 
f 68 133 69 
f 68 132 133 
f 69 134 70 
f 69 133 134 
f 70 135 71 
f 70 134 135 
f 71 136 72 
f 71 135 136 
f 72 137 73 
f 72 136 137 
f 73 138 74 
f 73 137 138 
f 74 139 75 
f 74 138 139 
f 75 140 76 
f 75 139 140 
f 76 141 77 
f 76 140 141 
f 77 142 78 
f 77 141 142 
f 78 143 79 
f 78 142 143 
f 79 144 80 
f 79 143 144 
f 80 145 81 
f 80 144 145 
f 81 146 82 
f 81 145 146 
f 82 147 83 
f 82 146 147 
f 83 148 84 
f 83 147 148 
f 84 149 85 
f 84 148 149 
f 85 150 86 
f 85 149 150 
f 86 151 87 
f 86 150 151 
f 87 152 88 
f 87 151 152 
f 88 153 89 
f 88 152 153 
f 89 154 90 
f 89 153 154 
f 90 155 91 
f 90 154 155 
f 91 156 92 
f 91 155 156 
f 92 157 93 
f 92 156 157 
f 93 158 94 
f 93 157 158 
f 94 159 95 
f 94 158 159 
f 95 160 96 
f 95 159 160 
f 96 161 97 
f 96 160 161 
f 97 162 98 
f 97 161 162 
f 98 163 99 
f 98 162 163 
f 99 164 100 
f 99 163 164 
f 100 165 101 
f 100 164 165 
f 101 166 102 
f 101 165 166 
f 102 167 103 
f 102 166 167 
f 103 168 104 
f 103 167 168 
f 104 169 105 
f 104 168 169 
f 105 170 106 
f 105 169 170 
f 106 171 107 
f 106 170 171 
f 107 172 108 
f 107 171 172 
f 108 173 109 
f 108 172 173 
f 109 174 110 
f 109 173 174 
f 110 175 111 
f 110 174 175 
f 111 176 112 
f 111 175 176 
f 112 177 113 
f 112 176 177 
f 113 178 114 
f 113 177 178 
f 114 179 115 
f 114 178 179 
f 115 180 116 
f 115 179 180 
f 116 181 117 
f 116 180 181 
f 117 182 118 
f 117 181 182 
f 118 183 119 
f 118 182 183 
f 119 184 120 
f 119 183 184 
f 120 185 121 
f 120 184 185 
f 121 186 122 
f 121 185 186 
f 122 187 123 
f 122 186 187 
f 123 188 124 
f 123 187 188 
f 124 189 125 
f 124 188 189 
f 125 190 126 
f 125 189 190 
f 126 191 127 
f 126 190 191 
f 127 192 128 
f 127 191 192 
f 128 129 65 
f 128 192 129 
f 129 194 130 
f 129 193 194 
f 130 195 131 
f 130 194 195 
f 131 196 132 
f 131 195 196 
f 132 197 133 
f 132 196 197 
f 133 198 134 
f 133 197 198 
f 134 199 135 
f 134 198 199 
f 135 200 136 
f 135 199 200 
f 136 201 137 
f 136 200 201 
f 137 202 138 
f 137 201 202 
f 138 203 139 
f 138 202 203 
f 139 204 140 
f 139 203 204 
f 140 205 141 
f 140 204 205 
f 141 206 142 
f 141 205 206 
f 142 207 143 
f 142 206 207 
f 143 208 144 
f 143 207 208 
f 144 209 145 
f 144 208 209 
f 145 210 146 
f 145 209 210 
f 146 211 147 
f 146 210 211 
f 147 212 148 
f 147 211 212 
f 148 213 149 
f 148 212 213 
f 149 214 150 
f 149 213 214 
f 150 215 151 
f 150 214 215 
f 151 216 152 
f 151 215 216 
f 152 217 153 
f 152 216 217 
f 153 218 154 
f 153 217 218 
f 154 219 155 
f 154 218 219 
f 155 220 156 
f 155 219 220 
f 156 221 157 
f 156 220 221 
f 157 222 158 
f 157 221 222 
f 158 223 159 
f 158 222 223 
f 159 224 160 
f 159 223 224 
f 160 225 161 
f 160 224 225 
f 161 226 162 
f 161 225 226 
f 162 227 163 
f 162 226 227 
f 163 228 164 
f 163 227 228 
f 164 229 165 
f 164 228 229 
f 165 230 166 
f 165 229 230 
f 166 231 167 
f 166 230 231 
f 167 232 168 
f 167 231 232 
f 168 233 169 
f 168 232 233 
f 169 234 170 
f 169 233 234 
f 170 235 171 
f 170 234 235 
f 171 236 172 
f 171 235 236 
f 172 237 173 
f 172 236 237 
f 173 238 174 
f 173 237 238 
f 174 239 175 
f 174 238 239 
f 175 240 176 
f 175 239 240 
f 176 241 177 
f 176 240 241 
f 177 242 178 
f 177 241 242 
f 178 243 179 
f 178 242 243 
f 179 244 180 
f 179 243 244 
f 180 245 181 
f 180 244 245 
f 181 246 182 
f 181 245 246 
f 182 247 183 
f 182 246 247 
f 183 248 184 
f 183 247 248 
f 184 249 185 
f 184 248 249 
f 185 250 186 
f 185 249 250 
f 186 251 187 
f 186 250 251 
f 187 252 188 
f 187 251 252 
f 188 253 189 
f 188 252 253 
f 189 254 190 
f 189 253 254 
f 190 255 191 
f 190 254 255 
f 191 256 192 
f 191 255 256 
f 192 193 129 
f 192 256 193 
f 193 258 194 
f 193 257 258 
f 194 259 195 
f 194 258 259 
f 195 260 196 
f 195 259 260 
f 196 261 197 
f 196 260 261 
f 197 262 198 
f 197 261 262 
f 198 263 199 
f 198 262 263 
f 199 264 200 
f 199 263 264 
f 200 265 201 
f 200 264 265 
f 201 266 202 
f 201 265 266 
f 202 267 203 
f 202 266 267 
f 203 268 204 
f 203 267 268 
f 204 269 205 
f 204 268 269 
f 205 270 206 
f 205 269 270 
f 206 271 207 
f 206 270 271 
f 207 272 208 
f 207 271 272 
f 208 273 209 
f 208 272 273 
f 209 274 210 
f 209 273 274 
f 210 275 211 
f 210 274 275 
f 211 276 212 
f 211 275 276 
f 212 277 213 
f 212 276 277 
f 213 278 214 
f 213 277 278 
f 214 279 215 
f 214 278 279 
f 215 280 216 
f 215 279 280 
f 216 281 217 
f 216 280 281 
f 217 282 218 
f 217 281 282 
f 218 283 219 
f 218 282 283 
f 219 284 220 
f 219 283 284 
f 220 285 221 
f 220 284 285 
f 221 286 222 
f 221 285 286 
f 222 287 223 
f 222 286 287 
f 223 288 224 
f 223 287 288 
f 224 289 225 
f 224 288 289 
f 225 290 226 
f 225 289 290 
f 226 291 227 
f 226 290 291 
f 227 292 228 
f 227 291 292 
f 228 293 229 
f 228 292 293 
f 229 294 230 
f 229 293 294 
f 230 295 231 
f 230 294 295 
f 231 296 232 
f 231 295 296 
f 232 297 233 
f 232 296 297 
f 233 298 234 
f 233 297 298 
f 234 299 235 
f 234 298 299 
f 235 300 236 
f 235 299 300 
f 236 301 237 
f 236 300 301 
f 237 302 238 
f 237 301 302 
f 238 303 239 
f 238 302 303 
f 239 304 240 
f 239 303 304 
f 240 305 241 
f 240 304 305 
f 241 306 242 
f 241 305 306 
f 242 307 243 
f 242 306 307 
f 243 308 244 
f 243 307 308 
f 244 309 245 
f 244 308 309 
f 245 310 246 
f 245 309 310 
f 246 311 247 
f 246 310 311 
f 247 312 248 
f 247 311 312 
f 248 313 249 
f 248 312 313 
f 249 314 250 
f 249 313 314 
f 250 315 251 
f 250 314 315 
f 251 316 252 
f 251 315 316 
f 252 317 253 
f 252 316 317 
f 253 318 254 
f 253 317 318 
f 254 319 255 
f 254 318 319 
f 255 320 256 
f 255 319 320 
f 256 257 193 
f 256 320 257 
f 257 322 258 
f 257 321 322 
f 258 323 259 
f 258 322 323 
f 259 324 260 
f 259 323 324 
f 260 325 261 
f 260 324 325 
f 261 326 262 
f 261 325 326 
f 262 327 263 
f 262 326 327 
f 263 328 264 
f 263 327 328 
f 264 329 265 
f 264 328 329 
f 265 330 266 
f 265 329 330 
f 266 331 267 
f 266 330 331 
f 267 332 268 
f 267 331 332 
f 268 333 269 
f 268 332 333 
f 269 334 270 
f 269 333 334 
f 270 335 271 
f 270 334 335 
f 271 336 272 
f 271 335 336 
f 272 337 273 
f 272 336 337 
f 273 338 274 
f 273 337 338 
f 274 339 275 
f 274 338 339 
f 275 340 276 
f 275 339 340 
f 276 341 277 
f 276 340 341 
f 277 342 278 
f 277 341 342 
f 278 343 279 
f 278 342 343 
f 279 344 280 
f 279 343 344 
f 280 345 281 
f 280 344 345 
f 281 346 282 
f 281 345 346 
f 282 347 283 
f 282 346 347 
f 283 348 284 
f 283 347 348 
f 284 349 285 
f 284 348 349 
f 285 350 286 
f 285 349 350 
f 286 351 287 
f 286 350 351 
f 287 352 288 
f 287 351 352 
f 288 353 289 
f 288 352 353 
f 289 354 290 
f 289 353 354 
f 290 355 291 
f 290 354 355 
f 291 356 292 
f 291 355 356 
f 292 357 293 
f 292 356 357 
f 293 358 294 
f 293 357 358 
f 294 359 295 
f 294 358 359 
f 295 360 296 
f 295 359 360 
f 296 361 297 
f 296 360 361 
f 297 362 298 
f 297 361 362 
f 298 363 299 
f 298 362 363 
f 299 364 300 
f 299 363 364 
f 300 365 301 
f 300 364 365 
f 301 366 302 
f 301 365 366 
f 302 367 303 
f 302 366 367 
f 303 368 304 
f 303 367 368 
f 304 369 305 
f 304 368 369 
f 305 370 306 
f 305 369 370 
f 306 371 307 
f 306 370 371 
f 307 372 308 
f 307 371 372 
f 308 373 309 
f 308 372 373 
f 309 374 310 
f 309 373 374 
f 310 375 311 
f 310 374 375 
f 311 376 312 
f 311 375 376 
f 312 377 313 
f 312 376 377 
f 313 378 314 
f 313 377 378 
f 314 379 315 
f 314 378 379 
f 315 380 316 
f 315 379 380 
f 316 381 317 
f 316 380 381 
f 317 382 318 
f 317 381 382 
f 318 383 319 
f 318 382 383 
f 319 384 320 
f 319 383 384 
f 320 321 257 
f 320 384 321 
f 321 386 322 
f 321 385 386 
f 322 387 323 
f 322 386 387 
f 323 388 324 
f 323 387 388 
f 324 389 325 
f 324 388 389 
f 325 390 326 
f 325 389 390 
f 326 391 327 
f 326 390 391 
f 327 392 328 
f 327 391 392 
f 328 393 329 
f 328 392 393 
f 329 394 330 
f 329 393 394 
f 330 395 331 
f 330 394 395 
f 331 396 332 
f 331 395 396 
f 332 397 333 
f 332 396 397 
f 333 398 334 
f 333 397 398 
f 334 399 335 
f 334 398 399 
f 335 400 336 
f 335 399 400 
f 336 401 337 
f 336 400 401 
f 337 402 338 
f 337 401 402 
f 338 403 339 
f 338 402 403 
f 339 404 340 
f 339 403 404 
f 340 405 341 
f 340 404 405 
f 341 406 342 
f 341 405 406 
f 342 407 343 
f 342 406 407 
f 343 408 344 
f 343 407 408 
f 344 409 345 
f 344 408 409 
f 345 410 346 
f 345 409 410 
f 346 411 347 
f 346 410 411 
f 347 412 348 
f 347 411 412 
f 348 413 349 
f 348 412 413 
f 349 414 350 
f 349 413 414 
f 350 415 351 
f 350 414 415 
f 351 416 352 
f 351 415 416 
f 352 417 353 
f 352 416 417 
f 353 418 354 
f 353 417 418 
f 354 419 355 
f 354 418 419 
f 355 420 356 
f 355 419 420 
f 356 421 357 
f 356 420 421 
f 357 422 358 
f 357 421 422 
f 358 423 359 
f 358 422 423 
f 359 424 360 
f 359 423 424 
f 360 425 361 
f 360 424 425 
f 361 426 362 
f 361 425 426 
f 362 427 363 
f 362 426 427 
f 363 428 364 
f 363 427 428 
f 364 429 365 
f 364 428 429 
f 365 430 366 
f 365 429 430 
f 366 431 367 
f 366 430 431 
f 367 432 368 
f 367 431 432 
f 368 433 369 
f 368 432 433 
f 369 434 370 
f 369 433 434 
f 370 435 371 
f 370 434 435 
f 371 436 372 
f 371 435 436 
f 372 437 373 
f 372 436 437 
f 373 438 374 
f 373 437 438 
f 374 439 375 
f 374 438 439 
f 375 440 376 
f 375 439 440 
f 376 441 377 
f 376 440 441 
f 377 442 378 
f 377 441 442 
f 378 443 379 
f 378 442 443 
f 379 444 380 
f 379 443 444 
f 380 445 381 
f 380 444 445 
f 381 446 382 
f 381 445 446 
f 382 447 383 
f 382 446 447 
f 383 448 384 
f 383 447 448 
f 384 385 321 
f 384 448 385 
f 385 450 386 
f 385 449 450 
f 386 451 387 
f 386 450 451 
f 387 452 388 
f 387 451 452 
f 388 453 389 
f 388 452 453 
f 389 454 390 
f 389 453 454 
f 390 455 391 
f 390 454 455 
f 391 456 392 
f 391 455 456 
f 392 457 393 
f 392 456 457 
f 393 458 394 
f 393 457 458 
f 394 459 395 
f 394 458 459 
f 395 460 396 
f 395 459 460 
f 396 461 397 
f 396 460 461 
f 397 462 398 
f 397 461 462 
f 398 463 399 
f 398 462 463 
f 399 464 400 
f 399 463 464 
f 400 465 401 
f 400 464 465 
f 401 466 402 
f 401 465 466 
f 402 467 403 
f 402 466 467 
f 403 468 404 
f 403 467 468 
f 404 469 405 
f 404 468 469 
f 405 470 406 
f 405 469 470 
f 406 471 407 
f 406 470 471 
f 407 472 408 
f 407 471 472 
f 408 473 409 
f 408 472 473 
f 409 474 410 
f 409 473 474 
f 410 475 411 
f 410 474 475 
f 411 476 412 
f 411 475 476 
f 412 477 413 
f 412 476 477 
f 413 478 414 
f 413 477 478 
f 414 479 415 
f 414 478 479 
f 415 480 416 
f 415 479 480 
f 416 481 417 
f 416 480 481 
f 417 482 418 
f 417 481 482 
f 418 483 419 
f 418 482 483 
f 419 484 420 
f 419 483 484 
f 420 485 421 
f 420 484 485 
f 421 486 422 
f 421 485 486 
f 422 487 423 
f 422 486 487 
f 423 488 424 
f 423 487 488 
f 424 489 425 
f 424 488 489 
f 425 490 426 
f 425 489 490 
f 426 491 427 
f 426 490 491 
f 427 492 428 
f 427 491 492 
f 428 493 429 
f 428 492 493 
f 429 494 430 
f 429 493 494 
f 430 495 431 
f 430 494 495 
f 431 496 432 
f 431 495 496 
f 432 497 433 
f 432 496 497 
f 433 498 434 
f 433 497 498 
f 434 499 435 
f 434 498 499 
f 435 500 436 
f 435 499 500 
f 436 501 437 
f 436 500 501 
f 437 502 438 
f 437 501 502 
f 438 503 439 
f 438 502 503 
f 439 504 440 
f 439 503 504 
f 440 505 441 
f 440 504 505 
f 441 506 442 
f 441 505 506 
f 442 507 443 
f 442 506 507 
f 443 508 444 
f 443 507 508 
f 444 509 445 
f 444 508 509 
f 445 510 446 
f 445 509 510 
f 446 511 447 
f 446 510 511 
f 447 512 448 
f 447 511 512 
f 448 449 385 
f 448 512 449 
f 449 514 450 
f 449 513 514 
f 450 515 451 
f 450 514 515 
f 451 516 452 
f 451 515 516 
f 452 517 453 
f 452 516 517 
f 453 518 454 
f 453 517 518 
f 454 519 455 
f 454 518 519 
f 455 520 456 
f 455 519 520 
f 456 521 457 
f 456 520 521 
f 457 522 458 
f 457 521 522 
f 458 523 459 
f 458 522 523 
f 459 524 460 
f 459 523 524 
f 460 525 461 
f 460 524 525 
f 461 526 462 
f 461 525 526 
f 462 527 463 
f 462 526 527 
f 463 528 464 
f 463 527 528 
f 464 529 465 
f 464 528 529 
f 465 530 466 
f 465 529 530 
f 466 531 467 
f 466 530 531 
f 467 532 468 
f 467 531 532 
f 468 533 469 
f 468 532 533 
f 469 534 470 
f 469 533 534 
f 470 535 471 
f 470 534 535 
f 471 536 472 
f 471 535 536 
f 472 537 473 
f 472 536 537 
f 473 538 474 
f 473 537 538 
f 474 539 475 
f 474 538 539 
f 475 540 476 
f 475 539 540 
f 476 541 477 
f 476 540 541 
f 477 542 478 
f 477 541 542 
f 478 543 479 
f 478 542 543 
f 479 544 480 
f 479 543 544 
f 480 545 481 
f 480 544 545 
f 481 546 482 
f 481 545 546 
f 482 547 483 
f 482 546 547 
f 483 548 484 
f 483 547 548 
f 484 549 485 
f 484 548 549 
f 485 550 486 
f 485 549 550 
f 486 551 487 
f 486 550 551 
f 487 552 488 
f 487 551 552 
f 488 553 489 
f 488 552 553 
f 489 554 490 
f 489 553 554 
f 490 555 491 
f 490 554 555 
f 491 556 492 
f 491 555 556 
f 492 557 493 
f 492 556 557 
f 493 558 494 
f 493 557 558 
f 494 559 495 
f 494 558 559 
f 495 560 496 
f 495 559 560 
f 496 561 497 
f 496 560 561 
f 497 562 498 
f 497 561 562 
f 498 563 499 
f 498 562 563 
f 499 564 500 
f 499 563 564 
f 500 565 501 
f 500 564 565 
f 501 566 502 
f 501 565 566 
f 502 567 503 
f 502 566 567 
f 503 568 504 
f 503 567 568 
f 504 569 505 
f 504 568 569 
f 505 570 506 
f 505 569 570 
f 506 571 507 
f 506 570 571 
f 507 572 508 
f 507 571 572 
f 508 573 509 
f 508 572 573 
f 509 574 510 
f 509 573 574 
f 510 575 511 
f 510 574 575 
f 511 576 512 
f 511 575 576 
f 512 513 449 
f 512 576 513 
f 513 578 514 
f 513 577 578 
f 514 579 515 
f 514 578 579 
f 515 580 516 
f 515 579 580 
f 516 581 517 
f 516 580 581 
f 517 582 518 
f 517 581 582 
f 518 583 519 
f 518 582 583 
f 519 584 520 
f 519 583 584 
f 520 585 521 
f 520 584 585 
f 521 586 522 
f 521 585 586 
f 522 587 523 
f 522 586 587 
f 523 588 524 
f 523 587 588 
f 524 589 525 
f 524 588 589 
f 525 590 526 
f 525 589 590 
f 526 591 527 
f 526 590 591 
f 527 592 528 
f 527 591 592 
f 528 593 529 
f 528 592 593 
f 529 594 530 
f 529 593 594 
f 530 595 531 
f 530 594 595 
f 531 596 532 
f 531 595 596 
f 532 597 533 
f 532 596 597 
f 533 598 534 
f 533 597 598 
f 534 599 535 
f 534 598 599 
f 535 600 536 
f 535 599 600 
f 536 601 537 
f 536 600 601 
f 537 602 538 
f 537 601 602 
f 538 603 539 
f 538 602 603 
f 539 604 540 
f 539 603 604 
f 540 605 541 
f 540 604 605 
f 541 606 542 
f 541 605 606 
f 542 607 543 
f 542 606 607 
f 543 608 544 
f 543 607 608 
f 544 609 545 
f 544 608 609 
f 545 610 546 
f 545 609 610 
f 546 611 547 
f 546 610 611 
f 547 612 548 
f 547 611 612 
f 548 613 549 
f 548 612 613 
f 549 614 550 
f 549 613 614 
f 550 615 551 
f 550 614 615 
f 551 616 552 
f 551 615 616 
f 552 617 553 
f 552 616 617 
f 553 618 554 
f 553 617 618 
f 554 619 555 
f 554 618 619 
f 555 620 556 
f 555 619 620 
f 556 621 557 
f 556 620 621 
f 557 622 558 
f 557 621 622 
f 558 623 559 
f 558 622 623 
f 559 624 560 
f 559 623 624 
f 560 625 561 
f 560 624 625 
f 561 626 562 
f 561 625 626 
f 562 627 563 
f 562 626 627 
f 563 628 564 
f 563 627 628 
f 564 629 565 
f 564 628 629 
f 565 630 566 
f 565 629 630 
f 566 631 567 
f 566 630 631 
f 567 632 568 
f 567 631 632 
f 568 633 569 
f 568 632 633 
f 569 634 570 
f 569 633 634 
f 570 635 571 
f 570 634 635 
f 571 636 572 
f 571 635 636 
f 572 637 573 
f 572 636 637 
f 573 638 574 
f 573 637 638 
f 574 639 575 
f 574 638 639 
f 575 640 576 
f 575 639 640 
f 576 577 513 
f 576 640 577 
