# Branch
v 7.38196 7.68427 -29.5723
vn 0.887161 -0.0940539 -0.451773
v 7.37472 7.68049 -29.5842
vn 0.837839 -0.119816 -0.532607
v 7.3663 7.67688 -29.5953
vn 0.780447 -0.144425 -0.608312
v 7.35678 7.67347 -29.6056
vn 0.71554 -0.167643 -0.678158
v 7.34624 7.6703 -29.6148
vn 0.643741 -0.189246 -0.741474
v 7.3348 7.6674 -29.6231
vn 0.565743 -0.209027 -0.797648
v 7.32256 7.66479 -29.6302
vn 0.482297 -0.226794 -0.846141
v 7.30963 7.6625 -29.6361
vn 0.394206 -0.242378 -0.886485
v 7.29615 7.66056 -29.6408
vn 0.302318 -0.255627 -0.918291
v 7.28224 7.65898 -29.6442
vn 0.207519 -0.266414 -0.941254
v 7.26804 7.65777 -29.6462
vn 0.110721 -0.274636 -0.955152
v 7.25368 7.65695 -29.6469
vn 0.0128571 -0.280213 -0.959852
v 7.2393 7.65653 -29.6462
vn -0.0851307 -0.283091 -0.955307
v 7.22504 7.65651 -29.6442
vn -0.182299 -0.283243 -0.941563
v 7.21104 7.65688 -29.6409
vn -0.277711 -0.280667 -0.918751
v 7.19743 7.65766 -29.6362
vn -0.370449 -0.275388 -0.88709
v 7.18435 7.65882 -29.6303
vn -0.459619 -0.267457 -0.846887
v 7.17192 7.66036 -29.6232
vn -0.544363 -0.25695 -0.798527
v 7.16025 7.66227 -29.615
vn -0.623864 -0.243969 -0.742477
v 7.14947 7.66452 -29.6057
vn -0.697357 -0.228638 -0.679277
v 7.13967 7.66709 -29.5955
vn -0.764134 -0.211105 -0.609535
v 7.13095 7.66996 -29.5844
vn -0.823553 -0.191539 -0.533923
v 7.1234 7.6731 -29.5725
vn -0.87504 -0.170129 -0.453169
v 7.11708 7.67649 -29.5601
vn -0.918099 -0.14708 -0.36805
v 7.11206 7.68008 -29.547
vn -0.952317 -0.122615 -0.279387
v 7.10838 7.68384 -29.5336
vn -0.977364 -0.0969683 -0.188034
v 7.10609 7.68774 -29.52
vn -0.992998 -0.0703882 -0.0948694
v 7.1052 7.69174 -29.5062
vn -0.999069 -0.0431302 -0.000791278
v 7.10572 7.6958 -29.4924
vn -0.995519 -0.0154569 0.0932945
v 7.10765 7.69988 -29.4787
vn -0.982381 0.0123653 0.186482
v 7.11096 7.70395 -29.4653
vn -0.959782 0.0400684 0.277873
v 7.11563 7.70795 -29.4523
vn -0.92794 0.0673856 0.366588
v 7.12162 7.71187 -29.4398
vn -0.887161 0.0940539 0.451773
v 7.12885 7.71565 -29.4279
vn -0.837839 0.119816 0.532607
v 7.13728 7.71926 -29.4168
vn -0.780447 0.144425 0.608312
v 7.1468 7.72266 -29.4065
vn -0.71554 0.167643 0.678158
v 7.15733 7.72583 -29.3973
vn -0.643741 0.189246 0.741474
v 7.16878 7.72874 -29.389
vn -0.565743 0.209027 0.797648
v 7.18102 7.73134 -29.3819
vn -0.482297 0.226794 0.846141
v 7.19395 7.73363 -29.376
vn -0.394206 0.242378 0.886485
v 7.20743 7.73557 -29.3713
vn -0.302318 0.255627 0.918291
v 7.22134 7.73716 -29.3679
vn -0.207519 0.266414 0.941254
v 7.23554 7.73836 -29.3659
vn -0.110721 0.274636 0.955152
v 7.2499 7.73918 -29.3652
vn -0.0128571 0.280213 0.959852
v 7.26428 7.7396 -29.3659
vn 0.0851307 0.283091 0.955307
v 7.27854 7.73963 -29.3679
vn 0.182299 0.283243 0.941563
v 7.29254 7.73925 -29.3712
vn 0.277711 0.280667 0.918751
v 7.30614 7.73847 -29.3759
vn 0.370449 0.275388 0.88709
v 7.31923 7.73731 -29.3818
vn 0.459619 0.267457 0.846887
v 7.33166 7.73577 -29.3889
vn 0.544363 0.25695 0.798527
v 7.34333 7.73386 -29.3971
vn 0.623864 0.243969 0.742477
v 7.35411 7.73161 -29.4064
vn 0.697357 0.228638 0.679277
v 7.36391 7.72904 -29.4166
vn 0.764134 0.211105 0.609535
v 7.37263 7.72617 -29.4277
vn 0.823553 0.191539 0.533923
v 7.38018 7.72303 -29.4396
vn 0.87504 0.170129 0.453169
v 7.3865 7.71965 -29.452
vn 0.918099 0.14708 0.36805
v 7.39152 7.71606 -29.4651
vn 0.952317 0.122615 0.279387
v 7.3952 7.71229 -29.4785
vn 0.977364 0.0969683 0.188034
v 7.39749 7.70839 -29.4921
vn 0.992998 0.0703882 0.0948694
v 7.39838 7.7044 -29.5059
vn 0.999069 0.0431302 0.000791278
v 7.39786 7.70033 -29.5197
vn 0.995519 0.0154569 -0.0932945
v 7.39593 7.69625 -29.5334
vn 0.982381 -0.0123653 -0.186482
v 7.39262 7.69219 -29.5468
vn 0.959782 -0.0400684 -0.277873
v 7.38794 7.68818 -29.5598
vn 0.92794 -0.0673856 -0.366588
v 7.43502 6.33216 -29.1741
vn 0.887367 -0.0991482 -0.450276
v 7.42788 6.32844 -29.1858
vn 0.838044 -0.124886 -0.531117
v 7.41957 6.32488 -29.1968
vn 0.78065 -0.149421 -0.606844
v 7.41017 6.32154 -29.2069
vn 0.715737 -0.172518 -0.676726
v 7.39977 6.31843 -29.2161
vn 0.643932 -0.193952 -0.740091
v 7.38848 6.3156 -29.2242
vn 0.565925 -0.213519 -0.796328
v 7.3764 6.31307 -29.2313
vn 0.482468 -0.23103 -0.844896
v 7.36364 6.31085 -29.2371
vn 0.394365 -0.246316 -0.885328
v 7.35033 6.30898 -29.2417
vn 0.302464 -0.259229 -0.917233
v 7.3366 6.30748 -29.2451
vn 0.20765 -0.269646 -0.940305
v 7.32259 6.30634 -29.2471
vn 0.110836 -0.277466 -0.954321
v 7.30841 6.3056 -29.2478
vn 0.0129544 -0.282614 -0.959146
v 7.29422 6.30525 -29.2472
vn -0.0850518 -0.28504 -0.954735
v 7.28015 6.30529 -29.2452
vn -0.182239 -0.284722 -0.941128
v 7.26633 6.30574 -29.2419
vn -0.277671 -0.281661 -0.918459
v 7.2529 6.30657 -29.2373
vn -0.370429 -0.275887 -0.886944
v 7.23999 6.30779 -29.2315
vn -0.459619 -0.267457 -0.846887
v 7.22771 6.30939 -29.2246
vn -0.544383 -0.256451 -0.798674
v 7.2162 6.31134 -29.2165
vn -0.623904 -0.242975 -0.742769
v 7.20556 6.31363 -29.2073
vn -0.697417 -0.227159 -0.679712
v 7.19589 6.31623 -29.1973
vn -0.764213 -0.209156 -0.610108
v 7.18728 6.31913 -29.1863
vn -0.82365 -0.189138 -0.534629
v 7.17982 6.32229 -29.1747
vn -0.875154 -0.167299 -0.454
v 7.17358 6.32569 -29.1624
vn -0.91823 -0.143848 -0.369
v 7.16863 6.32929 -29.1495
vn -0.952463 -0.119012 -0.280446
v 7.165 6.33305 -29.1363
vn -0.977523 -0.0930304 -0.189191
v 7.16273 6.33694 -29.1228
vn -0.99317 -0.0661525 -0.096114
v 7.16185 6.34092 -29.1092
vn -0.999251 -0.0386375 -0.00211141
v 7.16237 6.34496 -29.0956
vn -0.995709 -0.0107504 0.0919115
v 7.16427 6.34901 -29.0821
vn -0.982578 0.0172402 0.185049
v 7.16754 6.35304 -29.0689
vn -0.959984 0.0450648 0.276405
v 7.17215 6.35701 -29.0561
vn -0.928145 0.0724554 0.365099
v 7.17805 6.36087 -29.0437
vn -0.887367 0.0991482 0.450276
v 7.18519 6.3646 -29.032
vn -0.838044 0.124886 0.531117
v 7.19351 6.36815 -29.0211
vn -0.78065 0.149421 0.606844
v 7.2029 6.3715 -29.0109
vn -0.715737 0.172518 0.676726
v 7.2133 6.3746 -29.0018
vn -0.643932 0.193952 0.740091
v 7.2246 6.37743 -28.9936
vn -0.565925 0.213519 0.796328
v 7.23668 6.37997 -28.9866
vn -0.482468 0.23103 0.844896
v 7.24944 6.38218 -28.9807
vn -0.394365 0.246316 0.885328
v 7.26274 6.38405 -28.9761
vn -0.302464 0.259229 0.917233
v 7.27647 6.38556 -28.9728
vn -0.20765 0.269646 0.940305
v 7.29049 6.38669 -28.9707
vn -0.110836 0.277466 0.954321
v 7.30466 6.38744 -28.97
vn -0.0129544 0.282614 0.959146
v 7.31885 6.38779 -28.9707
vn 0.0850518 0.28504 0.954735
v 7.33292 6.38774 -28.9727
vn 0.182239 0.284722 0.941128
v 7.34674 6.3873 -28.9759
vn 0.277671 0.281661 0.918459
v 7.36017 6.38646 -28.9805
vn 0.370429 0.275887 0.886944
v 7.37309 6.38524 -28.9863
vn 0.459619 0.267457 0.846887
v 7.38536 6.38365 -28.9933
vn 0.544383 0.256451 0.798674
v 7.39687 6.3817 -29.0014
vn 0.623904 0.242975 0.742769
v 7.40752 6.37941 -29.0105
vn 0.697417 0.227159 0.679712
v 7.41719 6.3768 -29.0206
vn 0.764213 0.209156 0.610108
v 7.4258 6.3739 -29.0315
vn 0.82365 0.189138 0.534629
v 7.43325 6.37074 -29.0432
vn 0.875154 0.167299 0.454
v 7.43949 6.36735 -29.0555
vn 0.91823 0.143848 0.369
v 7.44445 6.36375 -29.0683
vn 0.952463 0.119012 0.280446
v 7.44808 6.35999 -29.0815
vn 0.977523 0.0930304 0.189191
v 7.45034 6.3561 -29.095
vn 0.99317 0.0661525 0.096114
v 7.45122 6.35211 -29.1086
vn 0.999251 0.0386375 0.00211141
v 7.45071 6.34807 -29.1222
vn 0.995709 0.0107504 -0.0919115
v 7.44881 6.34402 -29.1357
vn 0.982578 -0.0172402 -0.185049
v 7.44554 6.33999 -29.1489
vn 0.959984 -0.0450648 -0.276405
v 7.44093 6.33603 -29.1618
vn 0.928145 -0.0724554 -0.365099
v 7.4807 4.99888 -28.7778
vn 0.887553 -0.104379 -0.448725
v 7.47365 4.9952 -28.7894
vn 0.838229 -0.130091 -0.529574
v 7.46545 4.99171 -28.8002
vn 0.780832 -0.154551 -0.605323
v 7.45618 4.98843 -28.8102
vn 0.715915 -0.177523 -0.675242
v 7.44592 4.98539 -28.8193
vn 0.644104 -0.198785 -0.738658
v 7.43478 4.98263 -28.8273
vn 0.566089 -0.218132 -0.79496
v 7.42285 4.98016 -28.8343
vn 0.482623 -0.235379 -0.843607
v 7.41026 4.97802 -28.84
vn 0.394509 -0.250359 -0.884129
v 7.39713 4.97623 -28.8446
vn 0.302595 -0.262927 -0.916136
v 7.38359 4.97479 -28.8479
vn 0.207768 -0.272964 -0.939321
v 7.36975 4.97373 -28.8499
vn 0.110939 -0.280372 -0.953459
v 7.35577 4.97306 -28.8507
vn 0.013042 -0.28508 -0.958415
v 7.34177 4.97278 -28.85
vn -0.0849806 -0.287042 -0.954141
v 7.32788 4.9729 -28.8481
vn -0.182185 -0.28624 -0.940678
v 7.31424 4.9734 -28.8449
vn -0.277634 -0.282681 -0.918156
v 7.30099 4.9743 -28.8404
vn -0.37041 -0.2764 -0.886792
v 7.28825 4.97558 -28.8347
vn -0.459619 -0.267457 -0.846887
v 7.27614 4.97722 -28.8279
vn -0.544401 -0.255938 -0.798826
v 7.26477 4.97922 -28.8199
vn -0.623941 -0.241955 -0.743072
v 7.25427 4.98155 -28.8109
vn -0.697471 -0.225641 -0.680162
v 7.24472 4.98419 -28.801
vn -0.764284 -0.207154 -0.610702
v 7.23623 4.98712 -28.7902
vn -0.823737 -0.186672 -0.53536
v 7.22887 4.9903 -28.7787
vn -0.875257 -0.164393 -0.454862
v 7.22271 4.99371 -28.7666
vn -0.918348 -0.14053 -0.369984
v 7.21782 4.99731 -28.754
vn -0.952595 -0.115314 -0.281543
v 7.21424 5.00107 -28.7409
vn -0.977667 -0.0889872 -0.19039
v 7.212 5.00496 -28.7277
vn -0.993324 -0.0618036 -0.0974036
v 7.21113 5.00893 -28.7142
vn -0.999415 -0.0340247 -0.00347925
v 7.21164 5.01294 -28.7008
vn -0.995881 -0.00591817 0.0904786
v 7.21351 5.01697 -28.6875
vn -0.982756 0.0222454 0.183565
v 7.21674 5.02096 -28.6745
vn -0.960166 0.0501947 0.274884
v 7.22129 5.02488 -28.6618
vn -0.92833 0.0776606 0.363555
v 7.22711 5.0287 -28.6496
vn -0.887553 0.104379 0.448725
v 7.23416 5.03237 -28.6381
vn -0.838229 0.130091 0.529574
v 7.24236 5.03587 -28.6273
vn -0.780832 0.154551 0.605323
v 7.25163 5.03915 -28.6173
vn -0.715915 0.177523 0.675242
v 7.26189 5.04218 -28.6082
vn -0.644104 0.198785 0.738658
v 7.27304 5.04495 -28.6002
vn -0.566089 0.218132 0.79496
v 7.28496 5.04741 -28.5932
vn -0.482623 0.235379 0.843607
v 7.29755 5.04955 -28.5874
vn -0.394509 0.250359 0.884129
v 7.31068 5.05135 -28.5829
vn -0.302595 0.262927 0.916136
v 7.32423 5.05278 -28.5796
vn -0.207768 0.272964 0.939321
v 7.33806 5.05384 -28.5775
vn -0.110939 0.280372 0.953459
v 7.35204 5.05451 -28.5768
vn -0.013042 0.28508 0.958415
v 7.36605 5.05479 -28.5774
vn 0.0849806 0.287042 0.954141
v 7.37993 5.05468 -28.5794
vn 0.182185 0.28624 0.940678
v 7.39357 5.05417 -28.5826
vn 0.277634 0.282681 0.918156
v 7.40682 5.05327 -28.5871
vn 0.37041 0.2764 0.886792
v 7.41957 5.052 -28.5928
vn 0.459619 0.267457 0.846887
v 7.43168 5.05035 -28.5996
vn 0.544401 0.255938 0.798826
v 7.44304 5.04835 -28.6076
vn 0.623941 0.241955 0.743072
v 7.45354 5.04602 -28.6166
vn 0.697471 0.225641 0.680162
v 7.46309 5.04338 -28.6265
vn 0.764284 0.207154 0.610702
v 7.47158 5.04045 -28.6373
vn 0.823737 0.186672 0.53536
v 7.47894 5.03727 -28.6488
vn 0.875257 0.164393 0.454862
v 7.4851 5.03386 -28.6609
vn 0.918348 0.14053 0.369984
v 7.48999 5.03026 -28.6735
vn 0.952595 0.115314 0.281543
v 7.49357 5.0265 -28.6865
vn 0.977667 0.0889872 0.19039
v 7.49581 5.02262 -28.6998
vn 0.993324 0.0618036 0.0974036
v 7.49668 5.01865 -28.7132
vn 0.999415 0.0340247 0.00347925
v 7.49617 5.01463 -28.7267
vn 0.995881 0.00591817 -0.0904786
v 7.4943 5.01061 -28.74
vn 0.982756 -0.0222454 -0.183565
v 7.49107 5.00662 -28.753
vn 0.960166 -0.0501947 -0.274884
v 7.48652 5.00269 -28.7657
vn 0.92833 -0.0776606 -0.363555
v 7.51899 3.68441 -28.3835
vn 0.887717 -0.10975 -0.447118
v 7.51204 3.68079 -28.3949
vn 0.838391 -0.135437 -0.527974
v 7.50395 3.67735 -28.4056
vn 0.780992 -0.15982 -0.603746
v 7.49481 3.67413 -28.4154
vn 0.716071 -0.182663 -0.673703
v 7.48469 3.67116 -28.4244
vn 0.644255 -0.203747 -0.737172
v 7.47369 3.66847 -28.4323
vn 0.566233 -0.222869 -0.793542
v 7.46193 3.66608 -28.4392
vn 0.482759 -0.239845 -0.84227
v 7.44951 3.66401 -28.4449
vn 0.394635 -0.254511 -0.882886
v 7.43655 3.66229 -28.4494
vn 0.302711 -0.266726 -0.914999
v 7.42319 3.66093 -28.4527
vn 0.207871 -0.276372 -0.938301
v 7.40954 3.65994 -28.4547
vn 0.11103 -0.283356 -0.952566
v 7.39575 3.65934 -28.4554
vn 0.013119 -0.287612 -0.957657
v 7.38193 3.65914 -28.4549
vn -0.0849181 -0.289098 -0.953526
v 7.36823 3.65932 -28.453
vn -0.182137 -0.287799 -0.940211
v 7.35478 3.65989 -28.4498
vn -0.277603 -0.283729 -0.917842
v 7.3417 3.66085 -28.4454
vn -0.370394 -0.276927 -0.886634
v 7.32913 3.66218 -28.4398
vn -0.459619 -0.267457 -0.846887
v 7.31718 3.66388 -28.4331
vn -0.544417 -0.255412 -0.798984
v 7.30597 3.66593 -28.4253
vn -0.623972 -0.240907 -0.743386
v 7.2956 3.6683 -28.4164
vn -0.697518 -0.224082 -0.680629
v 7.28618 3.67097 -28.4066
vn -0.764347 -0.205099 -0.611317
v 7.2778 3.67393 -28.396
vn -0.823814 -0.18414 -0.536118
v 7.27054 3.67713 -28.3847
vn -0.875348 -0.161409 -0.455755
v 7.26447 3.68055 -28.3728
vn -0.918452 -0.137122 -0.371004
v 7.25964 3.68416 -28.3603
vn -0.95271 -0.111516 -0.282679
v 7.25611 3.68792 -28.3475
vn -0.977793 -0.084835 -0.191633
v 7.2539 3.69179 -28.3344
vn -0.99346 -0.0573373 -0.0987404
v 7.25304 3.69575 -28.3212
vn -0.999559 -0.0292874 -0.00489714
v 7.25354 3.69974 -28.308
vn -0.996032 -0.000955486 0.0889933
v 7.25538 3.70373 -28.2948
vn -0.982912 0.0273856 0.182027
v 7.25857 3.70769 -28.282
vn -0.960327 0.055463 0.273307
v 7.26305 3.71157 -28.2695
vn -0.928493 0.0830063 0.361955
v 7.2688 3.71534 -28.2575
vn -0.887717 0.10975 0.447118
v 7.27575 3.71896 -28.2461
vn -0.838391 0.135437 0.527974
v 7.28384 3.7224 -28.2354
vn -0.780992 0.15982 0.603746
v 7.29299 3.72562 -28.2256
vn -0.716071 0.182663 0.673703
v 7.30311 3.72859 -28.2166
vn -0.644255 0.203747 0.737172
v 7.3141 3.73128 -28.2087
vn -0.566233 0.222869 0.793542
v 7.32587 3.73367 -28.2018
vn -0.482759 0.239845 0.84227
v 7.33828 3.73574 -28.1961
vn -0.394635 0.254511 0.882886
v 7.35124 3.73746 -28.1916
vn -0.302711 0.266726 0.914999
v 7.3646 3.73882 -28.1883
vn -0.207871 0.276372 0.938301
v 7.37825 3.73981 -28.1863
vn -0.11103 0.283356 0.952566
v 7.39205 3.74041 -28.1855
vn -0.013119 0.287612 0.957657
v 7.40586 3.74061 -28.1861
vn 0.0849181 0.289098 0.953526
v 7.41956 3.74043 -28.188
vn 0.182137 0.287799 0.940211
v 7.43302 3.73986 -28.1912
vn 0.277603 0.283729 0.917842
v 7.44609 3.7389 -28.1956
vn 0.370394 0.276927 0.886634
v 7.45867 3.73756 -28.2012
vn 0.459619 0.267457 0.846887
v 7.47062 3.73587 -28.2079
vn 0.544417 0.255412 0.798984
v 7.48183 3.73382 -28.2157
vn 0.623972 0.240907 0.743386
v 7.49219 3.73145 -28.2246
vn 0.697518 0.224082 0.680629
v 7.50161 3.72878 -28.2343
vn 0.764347 0.205099 0.611317
v 7.50999 3.72582 -28.2449
vn 0.823814 0.18414 0.536118
v 7.51725 3.72262 -28.2563
vn 0.875348 0.161409 0.455755
v 7.52332 3.7192 -28.2682
vn 0.918452 0.137122 0.371004
v 7.52815 3.71559 -28.2807
vn 0.95271 0.111516 0.282679
v 7.53169 3.71183 -28.2935
vn 0.977793 0.084835 0.191633
v 7.5339 3.70795 -28.3066
vn 0.99346 0.0573373 0.0987404
v 7.53475 3.704 -28.3198
vn 0.999559 0.0292874 0.00489714
v 7.53426 3.70001 -28.333
vn 0.996032 0.000955486 -0.0889933
v 7.53241 3.69602 -28.3461
vn 0.982912 -0.0273856 -0.182027
v 7.52923 3.69206 -28.359
vn 0.960327 -0.055463 -0.273307
v 7.52474 3.68818 -28.3715
vn 0.928493 -0.0830063 -0.361955
v 7.54991 2.38876 -27.9911
vn 0.887855 -0.115268 -0.44545
v 7.54305 2.38519 -28.0023
vn 0.83853 -0.140928 -0.526315
v 7.53507 2.38182 -28.0129
vn 0.781128 -0.165232 -0.60211
v 7.52605 2.37866 -28.0226
vn 0.716204 -0.187943 -0.672108
v 7.51607 2.37575 -28.0314
vn 0.644383 -0.208845 -0.735632
v 7.50522 2.37313 -28.0393
vn 0.566356 -0.227736 -0.792072
v 7.49362 2.37081 -28.0461
vn 0.482874 -0.244433 -0.840883
v 7.48137 2.36882 -28.0517
vn 0.394742 -0.258776 -0.881597
v 7.46859 2.36717 -28.0562
vn 0.302809 -0.270628 -0.91382
v 7.45541 2.36588 -28.0594
vn 0.207959 -0.279872 -0.937243
v 7.44195 2.36497 -28.0615
vn 0.111107 -0.286422 -0.951639
v 7.42834 2.36445 -28.0622
vn 0.0131844 -0.290213 -0.956871
v 7.41471 2.36431 -28.0616
vn -0.084865 -0.291209 -0.952888
v 7.4012 2.36456 -28.0598
vn -0.182097 -0.289401 -0.939727
v 7.38793 2.3652 -28.0567
vn -0.277576 -0.284806 -0.917517
v 7.37503 2.36622 -28.0524
vn -0.370381 -0.277467 -0.886471
v 7.36263 2.36761 -28.0469
vn -0.459619 -0.267457 -0.846887
v 7.35084 2.36936 -28.0403
vn -0.544431 -0.254871 -0.799147
v 7.33978 2.37145 -28.0326
vn -0.624 -0.23983 -0.743711
v 7.32956 2.37386 -28.0239
vn -0.697559 -0.22248 -0.681113
v 7.32027 2.37657 -28.0142
vn -0.7644 -0.202987 -0.611955
v 7.312 2.37955 -28.0038
vn -0.82388 -0.181539 -0.536904
v 7.30484 2.38277 -27.9927
vn -0.875425 -0.158343 -0.456682
v 7.29885 2.38621 -27.9809
vn -0.91854 -0.133622 -0.372062
v 7.29408 2.38982 -27.9686
vn -0.952808 -0.107614 -0.283858
v 7.2906 2.39358 -27.956
vn -0.977901 -0.0805695 -0.192922
v 7.28842 2.39745 -27.9431
vn -0.993575 -0.0527492 -0.100127
v 7.28757 2.40139 -27.9301
vn -0.999681 -0.024421 -0.00636757
v 7.28806 2.40536 -27.917
vn -0.99616 0.00414248 0.0874529
v 7.28988 2.40932 -27.9041
vn -0.983045 0.032666 0.180431
v 7.29302 2.41324 -27.8914
vn -0.960463 0.060875 0.271672
v 7.29744 2.41708 -27.8791
vn -0.928631 0.0884977 0.360296
v 7.30311 2.4208 -27.8673
vn -0.887855 0.115268 0.44545
v 7.30997 2.42437 -27.856
vn -0.83853 0.140928 0.526315
v 7.31794 2.42775 -27.8455
vn -0.781128 0.165232 0.60211
v 7.32697 2.4309 -27.8358
vn -0.716204 0.187943 0.672108
v 7.33695 2.43381 -27.8269
vn -0.644383 0.208845 0.735632
v 7.34779 2.43643 -27.8191
vn -0.566356 0.227736 0.792072
v 7.3594 2.43875 -27.8123
vn -0.482874 0.244433 0.840883
v 7.37164 2.44075 -27.8067
vn -0.394742 0.258776 0.881597
v 7.38442 2.44239 -27.8022
vn -0.302809 0.270628 0.91382
v 7.3976 2.44368 -27.7989
vn -0.207959 0.279872 0.937243
v 7.41107 2.44459 -27.7969
vn -0.111107 0.286422 0.951639
v 7.42468 2.44512 -27.7962
vn -0.0131844 0.290213 0.956871
v 7.4383 2.44525 -27.7968
vn 0.084865 0.291209 0.952888
v 7.45182 2.445 -27.7986
vn 0.182097 0.289401 0.939727
v 7.46509 2.44436 -27.8017
vn 0.277576 0.284806 0.917517
v 7.47798 2.44334 -27.806
vn 0.370381 0.277467 0.886471
v 7.49039 2.44195 -27.8115
vn 0.459619 0.267457 0.846887
v 7.50217 2.4402 -27.8181
vn 0.544431 0.254871 0.799147
v 7.51323 2.43811 -27.8258
vn 0.624 0.23983 0.743711
v 7.52346 2.4357 -27.8345
vn 0.697559 0.22248 0.681113
v 7.53275 2.43299 -27.8441
vn 0.7644 0.202987 0.611955
v 7.54101 2.43001 -27.8546
vn 0.82388 0.181539 0.536904
v 7.54818 2.42679 -27.8657
vn 0.875425 0.158343 0.456682
v 7.55417 2.42335 -27.8775
vn 0.91854 0.133622 0.372062
v 7.55893 2.41974 -27.8897
vn 0.952808 0.107614 0.283858
v 7.56242 2.41598 -27.9024
vn 0.977901 0.0805695 0.192922
v 7.5646 2.41211 -27.9153
vn 0.993575 0.0527492 0.100127
v 7.56545 2.40817 -27.9283
vn 0.999681 0.024421 0.00636757
v 7.56496 2.40421 -27.9413
vn 0.99616 -0.00414248 -0.0874529
v 7.56313 2.40024 -27.9543
vn 0.983045 -0.032666 -0.180431
v 7.56 2.39632 -27.9669
vn 0.960463 -0.060875 -0.271672
v 7.55557 2.39248 -27.9793
vn 0.928631 -0.0884977 -0.360296
v 7.57343 1.11193 -27.6006
vn 0.887967 -0.120938 -0.44372
v 7.56667 1.10842 -27.6117
vn 0.838641 -0.146571 -0.524593
v 7.55881 1.1051 -27.6221
vn 0.781238 -0.170793 -0.600414
v 7.54991 1.102 -27.6317
vn 0.716312 -0.193369 -0.670452
v 7.54006 1.09917 -27.6404
vn 0.644486 -0.214084 -0.734034
v 7.52937 1.09661 -27.6482
vn 0.566454 -0.232736 -0.790546
v 7.51793 1.09436 -27.6549
vn 0.482967 -0.249147 -0.839445
v 7.50585 1.09244 -27.6605
vn 0.394829 -0.263159 -0.88026
v 7.49325 1.09087 -27.6649
vn 0.302888 -0.274637 -0.912597
v 7.48025 1.08966 -27.6681
vn 0.20803 -0.283469 -0.936146
v 7.46697 1.08882 -27.6701
vn 0.111169 -0.289572 -0.950678
v 7.45355 1.08837 -27.6708
vn 0.0132372 -0.292886 -0.956056
v 7.44011 1.0883 -27.6703
vn -0.0848221 -0.293379 -0.952226
v 7.42679 1.08862 -27.6685
vn -0.182065 -0.291047 -0.939225
v 7.4137 1.08932 -27.6655
vn -0.277554 -0.285912 -0.91718
v 7.40098 1.0904 -27.6613
vn -0.37037 -0.278023 -0.886301
v 7.38875 1.09185 -27.6559
vn -0.459619 -0.267457 -0.846887
v 7.37713 1.09365 -27.6494
vn -0.544442 -0.254315 -0.799317
v 7.36622 1.09579 -27.6418
vn -0.624021 -0.238724 -0.744048
v 7.35614 1.09824 -27.6332
vn -0.697591 -0.220834 -0.681615
v 7.34697 1.10098 -27.6238
vn -0.764443 -0.200817 -0.612617
v 7.33882 1.10399 -27.6135
vn -0.823933 -0.178866 -0.537719
v 7.33176 1.10724 -27.6025
vn -0.875487 -0.155193 -0.457643
v 7.32585 1.11069 -27.591
vn -0.918611 -0.130025 -0.373159
v 7.32115 1.11431 -27.5789
vn -0.952887 -0.103605 -0.285082
v 7.31771 1.11806 -27.5664
vn -0.977987 -0.0761866 -0.194259
v 7.31556 1.12192 -27.5537
vn -0.993669 -0.0480349 -0.101565
v 7.31472 1.12584 -27.5409
vn -0.99978 -0.0194205 -0.00789316
v 7.3152 1.12979 -27.5281
vn -0.996264 0.00938081 0.0858547
v 7.317 1.13373 -27.5153
vn -0.983152 0.0380918 0.178776
v 7.3201 1.13761 -27.5028
vn -0.960573 0.066436 0.269975
v 7.32446 1.14141 -27.4907
vn -0.928742 0.0941403 0.358574
v 7.33005 1.14508 -27.479
vn -0.887967 0.120938 0.44372
v 7.33681 1.14859 -27.4679
vn -0.838641 0.146571 0.524593
v 7.34467 1.15191 -27.4575
vn -0.781238 0.170793 0.600414
v 7.35357 1.15501 -27.4479
vn -0.716312 0.193369 0.670452
v 7.36341 1.15784 -27.4392
vn -0.644486 0.214084 0.734034
v 7.37411 1.1604 -27.4315
vn -0.566454 0.232736 0.790546
v 7.38555 1.16265 -27.4248
vn -0.482967 0.249147 0.839445
v 7.39763 1.16457 -27.4192
vn -0.394829 0.263159 0.88026
v 7.41023 1.16614 -27.4147
vn -0.302888 0.274637 0.912597
v 7.42323 1.16735 -27.4115
vn -0.20803 0.283469 0.936146
v 7.4365 1.16819 -27.4095
vn -0.111169 0.289572 0.950678
v 7.44993 1.16864 -27.4088
vn -0.0132372 0.292886 0.956056
v 7.46336 1.16871 -27.4093
vn 0.0848221 0.293379 0.952226
v 7.47669 1.16839 -27.4111
vn 0.182065 0.291047 0.939225
v 7.48978 1.16769 -27.4141
vn 0.277554 0.285912 0.91718
v 7.5025 1.16661 -27.4184
vn 0.37037 0.278023 0.886301
v 7.51473 1.16516 -27.4238
vn 0.459619 0.267457 0.846887
v 7.52635 1.16336 -27.4303
vn 0.544442 0.254315 0.799317
v 7.53726 1.16122 -27.4378
vn 0.624021 0.238724 0.744048
v 7.54734 1.15877 -27.4464
vn 0.697591 0.220834 0.681615
v 7.5565 1.15603 -27.4559
vn 0.764443 0.200817 0.612617
v 7.56466 1.15302 -27.4661
vn 0.823933 0.178866 0.537719
v 7.57172 1.14977 -27.4771
vn 0.875487 0.155193 0.457643
v 7.57763 1.14632 -27.4887
vn 0.918611 0.130025 0.373159
v 7.58233 1.1427 -27.5007
vn 0.952887 0.103605 0.285082
v 7.58577 1.13895 -27.5132
vn 0.977987 0.0761866 0.194259
v 7.58792 1.13509 -27.5259
vn 0.993669 0.0480349 0.101565
v 7.58876 1.13117 -27.5387
vn 0.99978 0.0194205 0.00789316
v 7.58827 1.12722 -27.5516
vn 0.996264 -0.00938081 -0.0858547
v 7.58648 1.12328 -27.5643
vn 0.983152 -0.0380918 -0.178776
v 7.58338 1.1194 -27.5768
vn 0.960573 -0.066436 -0.269975
v 7.57902 1.1156 -27.589
vn 0.928742 -0.0941403 -0.358574
v 7.58958 -0.14608 -27.2121
vn 0.88805 -0.126766 -0.441925
v 7.58291 -0.149539 -27.223
vn 0.838723 -0.152371 -0.522806
v 7.57516 -0.152801 -27.2333
vn 0.781319 -0.176508 -0.598653
v 7.56638 -0.155832 -27.2427
vn 0.716391 -0.198946 -0.668734
v 7.55668 -0.158605 -27.2513
vn 0.644563 -0.219468 -0.732375
v 7.54614 -0.161092 -27.259
vn 0.566527 -0.237876 -0.788963
v 7.53486 -0.16327 -27.2656
vn 0.483036 -0.253993 -0.837952
v 7.52295 -0.165117 -27.2711
vn 0.394893 -0.267664 -0.878872
v 7.51052 -0.166616 -27.2755
vn 0.302947 -0.278758 -0.911327
v 7.49771 -0.167752 -27.2787
vn 0.208083 -0.287166 -0.935006
v 7.48462 -0.168514 -27.2807
vn 0.111215 -0.29281 -0.949681
v 7.47139 -0.168896 -27.2814
vn 0.0132762 -0.295633 -0.955209
v 7.45814 -0.168892 -27.281
vn -0.0847905 -0.295609 -0.951539
v 7.445 -0.168505 -27.2792
vn -0.182041 -0.292739 -0.938704
v 7.43209 -0.167736 -27.2763
vn -0.277538 -0.287049 -0.916829
v 7.41955 -0.166594 -27.2721
vn -0.370362 -0.278594 -0.886125
v 7.40749 -0.165089 -27.2668
vn -0.459619 -0.267457 -0.846887
v 7.39603 -0.163236 -27.2604
vn -0.54445 -0.253744 -0.799493
v 7.38528 -0.161053 -27.253
vn -0.624037 -0.237587 -0.744399
v 7.37534 -0.158561 -27.2446
vn -0.697615 -0.219142 -0.682136
v 7.3663 -0.155784 -27.2353
vn -0.764475 -0.198587 -0.613304
v 7.35826 -0.152748 -27.2252
vn -0.823972 -0.176119 -0.538565
v 7.3513 -0.149483 -27.2144
vn -0.875533 -0.151955 -0.45864
v 7.34547 -0.146021 -27.203
vn -0.918663 -0.126328 -0.374298
v 7.34084 -0.142394 -27.1911
vn -0.952946 -0.0994838 -0.286351
v 7.33745 -0.138637 -27.1788
vn -0.978051 -0.0716818 -0.195647
v 7.33533 -0.134788 -27.1663
vn -0.993737 -0.0431894 -0.103058
v 7.3345 -0.130882 -27.1537
vn -0.999853 -0.0142811 -0.00947673
v 7.33498 -0.126957 -27.141
vn -0.99634 0.0147648 0.0841958
v 7.33675 -0.123052 -27.1285
vn -0.983231 0.0436685 0.177057
v 7.3398 -0.119204 -27.1161
vn -0.960654 0.0721516 0.268214
v 7.3441 -0.115449 -27.1042
vn -0.928824 0.0999399 0.356787
v 7.34961 -0.111825 -27.0927
vn -0.88805 0.126766 0.441925
v 7.35627 -0.108365 -27.0818
vn -0.838723 0.152371 0.522806
v 7.36403 -0.105104 -27.0715
vn -0.781319 0.176508 0.598653
v 7.3728 -0.102073 -27.062
vn -0.716391 0.198946 0.668734
v 7.3825 -0.0992999 -27.0534
vn -0.644563 0.219468 0.732375
v 7.39305 -0.0968127 -27.0458
vn -0.566527 0.237876 0.788963
v 7.40433 -0.0946351 -27.0392
vn -0.483036 0.253993 0.837952
v 7.41624 -0.092788 -27.0336
vn -0.394893 0.267664 0.878872
v 7.42866 -0.0912891 -27.0293
vn -0.302947 0.278758 0.911327
v 7.44148 -0.090153 -27.0261
vn -0.208083 0.287166 0.935006
v 7.45457 -0.0893905 -27.0241
vn -0.111215 0.29281 0.949681
v 7.4678 -0.0890091 -27.0233
vn -0.0132762 0.295633 0.955209
v 7.48105 -0.0890123 -27.0238
vn 0.0847905 0.295609 0.951539
v 7.49419 -0.0894001 -27.0256
vn 0.182041 0.292739 0.938704
v 7.50709 -0.0901689 -27.0285
vn 0.277538 0.287049 0.916829
v 7.51963 -0.0913112 -27.0327
vn 0.370362 0.278594 0.886125
v 7.53169 -0.0928159 -27.038
vn 0.459619 0.267457 0.846887
v 7.54315 -0.0946687 -27.0444
vn 0.54445 0.253744 0.799493
v 7.55391 -0.0968517 -27.0518
vn 0.624037 0.237587 0.744399
v 7.56385 -0.0993438 -27.0602
vn 0.697615 0.219142 0.682136
v 7.57288 -0.102121 -27.0695
vn 0.764475 0.198587 0.613304
v 7.58092 -0.105157 -27.0796
vn 0.823972 0.176119 0.538565
v 7.58789 -0.108422 -27.0904
vn 0.875533 0.151955 0.45864
v 7.59371 -0.111884 -27.1018
vn 0.918663 0.126328 0.374298
v 7.59835 -0.115511 -27.1137
vn 0.952946 0.0994838 0.286351
v 7.60174 -0.119267 -27.126
vn 0.978051 0.0716818 0.195647
v 7.60386 -0.123117 -27.1385
vn 0.993737 0.0431894 0.103058
v 7.60468 -0.127023 -27.1511
vn 0.999853 0.0142811 0.00947673
v 7.60421 -0.130947 -27.1638
vn 0.99634 -0.0147648 -0.0841958
v 7.60244 -0.134852 -27.1763
vn 0.983231 -0.0436685 -0.177057
v 7.59939 -0.138701 -27.1886
vn 0.960654 -0.0721516 -0.268214
v 7.59509 -0.142455 -27.2006
vn 0.928824 -0.0999399 -0.356787
v 7.59834 -1.38527 -26.8255
vn 0.888101 -0.132757 -0.44006
v 7.59177 -1.38868 -26.8363
vn 0.838774 -0.158333 -0.520951
v 7.58412 -1.39188 -26.8464
vn 0.781369 -0.182384 -0.596824
v 7.57548 -1.39485 -26.8557
vn 0.716439 -0.204679 -0.66695
v 7.56591 -1.39756 -26.8642
vn 0.644609 -0.225003 -0.730652
v 7.55552 -1.39997 -26.8717
vn 0.566572 -0.243159 -0.787318
v 7.5444 -1.40208 -26.8783
vn 0.483078 -0.258974 -0.836402
v 7.53266 -1.40385 -26.8837
vn 0.394932 -0.272295 -0.87743
v 7.52042 -1.40528 -26.8881
vn 0.302982 -0.282994 -0.910009
v 7.50778 -1.40634 -26.8913
vn 0.208115 -0.290967 -0.933824
v 7.49488 -1.40703 -26.8932
vn 0.111243 -0.296138 -0.948645
v 7.48184 -1.40734 -26.894
vn 0.0133 -0.298457 -0.95433
v 7.46878 -1.40726 -26.8935
vn -0.0847712 -0.297902 -0.950825
v 7.45582 -1.40681 -26.8918
vn -0.182026 -0.294478 -0.938163
v 7.44311 -1.40597 -26.8889
vn -0.277528 -0.288218 -0.916466
v 7.43074 -1.40477 -26.8849
vn -0.370357 -0.279182 -0.885942
v 7.41886 -1.40321 -26.8797
vn -0.459619 -0.267457 -0.846887
v 7.40756 -1.40131 -26.8734
vn -0.544455 -0.253157 -0.799675
v 7.39696 -1.39908 -26.8661
vn -0.624047 -0.236418 -0.744763
v 7.38716 -1.39654 -26.8578
vn -0.69763 -0.217403 -0.682677
v 7.37825 -1.39373 -26.8487
vn -0.764494 -0.196294 -0.614018
v 7.37033 -1.39067 -26.8387
vn -0.823995 -0.173295 -0.539444
v 7.36346 -1.38738 -26.8281
vn -0.875561 -0.148627 -0.459676
v 7.35772 -1.38391 -26.8169
vn -0.918695 -0.122527 -0.375481
v 7.35315 -1.38028 -26.8052
vn -0.952982 -0.0952474 -0.28767
v 7.34981 -1.37652 -26.7931
vn -0.97809 -0.0670505 -0.197088
v 7.34772 -1.37268 -26.7808
vn -0.993779 -0.0382079 -0.104608
v 7.3469 -1.36879 -26.7684
vn -0.999898 -0.00899726 -0.0111212
v 7.34737 -1.36489 -26.7559
vn -0.996387 0.0203 0.0824731
v 7.34912 -1.36101 -26.7436
vn -0.98328 0.0494017 0.175273
v 7.35212 -1.3572 -26.7314
vn -0.960703 0.0780277 0.266385
v 7.35636 -1.35349 -26.7196
vn -0.928875 0.105902 0.354932
v 7.36179 -1.34991 -26.7083
vn -0.888101 0.132757 0.44006
v 7.36836 -1.34651 -26.6975
vn -0.838774 0.158333 0.520951
v 7.37601 -1.3433 -26.6874
vn -0.781369 0.182384 0.596824
v 7.38465 -1.34033 -26.6781
vn -0.716439 0.204679 0.66695
v 7.39422 -1.33763 -26.6696
vn -0.644609 0.225003 0.730652
v 7.40461 -1.33521 -26.662
vn -0.566572 0.243159 0.787318
v 7.41573 -1.3331 -26.6555
vn -0.483078 0.258974 0.836402
v 7.42747 -1.33133 -26.65
vn -0.394932 0.272295 0.87743
v 7.43972 -1.3299 -26.6457
vn -0.302982 0.282994 0.910009
v 7.45235 -1.32884 -26.6425
vn -0.208115 0.290967 0.933824
v 7.46525 -1.32815 -26.6406
vn -0.111243 0.296138 0.948645
v 7.47829 -1.32784 -26.6398
vn -0.0133 0.298457 0.95433
v 7.49136 -1.32792 -26.6403
vn 0.0847712 0.297902 0.950825
v 7.50431 -1.32837 -26.642
vn 0.182026 0.294478 0.938163
v 7.51703 -1.32921 -26.6448
vn 0.277528 0.288218 0.916466
v 7.52939 -1.33041 -26.6489
vn 0.370357 0.279182 0.885942
v 7.54128 -1.33197 -26.6541
vn 0.459619 0.267457 0.846887
v 7.55257 -1.33388 -26.6604
vn 0.544455 0.253157 0.799675
v 7.56317 -1.33611 -26.6677
vn 0.624047 0.236418 0.744763
v 7.57297 -1.33864 -26.676
vn 0.69763 0.217403 0.682677
v 7.58188 -1.34145 -26.6851
vn 0.764494 0.196294 0.614018
v 7.5898 -1.34451 -26.6951
vn 0.823995 0.173295 0.539444
v 7.59667 -1.3478 -26.7057
vn 0.875561 0.148627 0.459676
v 7.60241 -1.35127 -26.7169
vn 0.918695 0.122527 0.375481
v 7.60698 -1.35491 -26.7286
vn 0.952982 0.0952474 0.28767
v 7.61032 -1.35866 -26.7406
vn 0.97809 0.0670505 0.197088
v 7.61241 -1.3625 -26.753
vn 0.993779 0.0382079 0.104608
v 7.61323 -1.36639 -26.7654
vn 0.999898 0.00899726 0.0111212
v 7.61276 -1.37029 -26.7779
vn 0.996387 -0.0203 -0.0824731
v 7.61101 -1.37417 -26.7902
vn 0.98328 -0.0494017 -0.175273
v 7.60801 -1.37798 -26.8024
vn 0.960703 -0.0780277 -0.266385
v 7.60377 -1.38169 -26.8142
vn 0.928875 -0.105902 -0.354932
v 7.59972 -2.60564 -26.4408
vn 0.888116 -0.138918 -0.438123
v 7.59324 -2.609 -26.4515
vn 0.838789 -0.164464 -0.519023
v 7.58571 -2.61214 -26.4614
vn 0.781384 -0.188427 -0.594924
v 7.57719 -2.61505 -26.4706
vn 0.716454 -0.210575 -0.665096
v 7.56776 -2.61769 -26.479
vn 0.644624 -0.230695 -0.728862
v 7.55752 -2.62004 -26.4864
vn 0.566586 -0.248593 -0.785609
v 7.54656 -2.62207 -26.4929
vn 0.483091 -0.264097 -0.834791
v 7.53499 -2.62377 -26.4983
vn 0.394944 -0.277058 -0.875933
v 7.52292 -2.62512 -26.5026
vn 0.302993 -0.287351 -0.908639
v 7.51047 -2.62611 -26.5057
vn 0.208125 -0.294876 -0.932594
v 7.49776 -2.62673 -26.5077
vn 0.111252 -0.299561 -0.947569
v 7.48491 -2.62696 -26.5085
vn 0.0133073 -0.301362 -0.953417
v 7.47204 -2.62682 -26.508
vn -0.0847652 -0.30026 -0.950084
v 7.45927 -2.62629 -26.5064
vn -0.182021 -0.296266 -0.9376
v 7.44674 -2.6254 -26.5036
vn -0.277525 -0.289419 -0.916088
v 7.43456 -2.62413 -26.4996
vn -0.370355 -0.279786 -0.885752
v 7.42284 -2.62251 -26.4945
vn -0.459619 -0.267457 -0.846887
v 7.41171 -2.62056 -26.4883
vn -0.544456 -0.252553 -0.799865
v 7.40126 -2.61828 -26.4811
vn -0.62405 -0.235216 -0.745141
v 7.3916 -2.61571 -26.473
vn -0.697634 -0.215615 -0.68324
v 7.38283 -2.61286 -26.464
vn -0.7645 -0.193936 -0.614759
v 7.37502 -2.60977 -26.4543
vn -0.824003 -0.170391 -0.540358
v 7.36825 -2.60647 -26.4438
vn -0.87557 -0.145204 -0.460753
v 7.36259 -2.60298 -26.4328
vn -0.918705 -0.118618 -0.37671
v 7.35809 -2.59934 -26.4213
vn -0.952993 -0.0908908 -0.28904
v 7.3548 -2.59559 -26.4094
vn -0.978102 -0.0622879 -0.198586
v 7.35274 -2.59175 -26.3973
vn -0.993792 -0.0330851 -0.106219
v 7.35193 -2.58788 -26.385
vn -0.999911 -0.00356363 -0.0128298
v 7.35239 -2.584 -26.3728
vn -0.996401 0.0259921 0.0806832
v 7.35411 -2.58016 -26.3606
vn -0.983294 0.0552976 0.173419
v 7.35708 -2.57638 -26.3486
vn -0.960718 0.0840705 0.264485
v 7.36125 -2.57271 -26.337
vn -0.92889 0.112034 0.353004
v 7.3666 -2.56918 -26.3258
vn -0.888116 0.138918 0.438123
v 7.37308 -2.56583 -26.3152
vn -0.838789 0.164464 0.519023
v 7.38061 -2.56268 -26.3053
vn -0.781384 0.188427 0.594924
v 7.38913 -2.55978 -26.2961
vn -0.716454 0.210575 0.665096
v 7.39856 -2.55714 -26.2877
vn -0.644624 0.230695 0.728862
v 7.4088 -2.55479 -26.2802
vn -0.566586 0.248593 0.785609
v 7.41976 -2.55275 -26.2738
vn -0.483091 0.264097 0.834791
v 7.43133 -2.55105 -26.2684
vn -0.394944 0.277058 0.875933
v 7.4434 -2.5497 -26.2641
vn -0.302993 0.287351 0.908639
v 7.45585 -2.54871 -26.2609
vn -0.208125 0.294876 0.932594
v 7.46856 -2.5481 -26.259
vn -0.111252 0.299561 0.947569
v 7.48141 -2.54786 -26.2582
vn -0.0133073 0.301362 0.953417
v 7.49428 -2.54801 -26.2587
vn 0.0847652 0.30026 0.950084
v 7.50705 -2.54853 -26.2603
vn 0.182021 0.296266 0.9376
v 7.51958 -2.54943 -26.2631
vn 0.277525 0.289419 0.916088
v 7.53177 -2.55069 -26.2671
vn 0.370355 0.279786 0.885752
v 7.54348 -2.55231 -26.2722
vn 0.459619 0.267457 0.846887
v 7.55461 -2.55427 -26.2784
vn 0.544456 0.252553 0.799865
v 7.56506 -2.55654 -26.2855
vn 0.62405 0.235216 0.745141
v 7.57472 -2.55912 -26.2937
vn 0.697634 0.215615 0.68324
v 7.58349 -2.56196 -26.3027
vn 0.7645 0.193936 0.614759
v 7.5913 -2.56505 -26.3124
vn 0.824003 0.170391 0.540358
v 7.59807 -2.56836 -26.3229
vn 0.87557 0.145204 0.460753
v 7.60373 -2.57184 -26.3339
vn 0.918705 0.118618 0.37671
v 7.60823 -2.57548 -26.3454
vn 0.952993 0.0908908 0.28904
v 7.61152 -2.57924 -26.3573
vn 0.978102 0.0622879 0.198586
v 7.61358 -2.58307 -26.3694
vn 0.993792 0.0330851 0.106219
v 7.61439 -2.58694 -26.3817
vn 0.999911 0.00356363 0.0128298
v 7.61393 -2.59082 -26.3939
vn 0.996401 -0.0259921 -0.0806832
v 7.61221 -2.59467 -26.4061
vn 0.983294 -0.0552976 -0.173419
v 7.60924 -2.59845 -26.4181
vn 0.960718 -0.0840705 -0.264485
v 7.60507 -2.60212 -26.4297
vn 0.92889 -0.112034 -0.353004
v 7.59371 -3.8072 -26.0581
vn 0.888093 -0.145256 -0.436109
v 7.58733 -3.8105 -26.0686
vn 0.838766 -0.170771 -0.517018
v 7.57991 -3.81358 -26.0784
vn 0.781362 -0.194643 -0.592949
v 7.57151 -3.81643 -26.0875
vn 0.716432 -0.21664 -0.663169
v 7.56222 -3.819 -26.0957
vn 0.644603 -0.23655 -0.727002
v 7.55213 -3.82128 -26.1031
vn 0.566566 -0.254182 -0.783833
v 7.54134 -3.82324 -26.1094
vn 0.483072 -0.269367 -0.833116
v 7.52994 -3.82487 -26.1148
vn 0.394926 -0.281957 -0.874376
v 7.51805 -3.82615 -26.119
vn 0.302977 -0.291832 -0.907215
v 7.50578 -3.82706 -26.1221
vn 0.20811 -0.298896 -0.931317
v 7.49326 -3.8276 -26.1241
vn 0.111239 -0.303082 -0.94645
v 7.48059 -3.82777 -26.1249
vn 0.0132966 -0.304349 -0.952468
v 7.46791 -3.82755 -26.1245
vn -0.0847739 -0.302685 -0.949313
v 7.45534 -3.82696 -26.1229
vn -0.182028 -0.298106 -0.937016
v 7.44299 -3.826 -26.1201
vn -0.277529 -0.290656 -0.915695
v 7.43099 -3.82467 -26.1162
vn -0.370357 -0.280407 -0.885555
v 7.41945 -3.823 -26.1112
vn -0.459619 -0.267457 -0.846887
v 7.40848 -3.82099 -26.1052
vn -0.544454 -0.251932 -0.800063
v 7.39818 -3.81867 -26.0981
vn -0.624046 -0.23398 -0.745533
v 7.38867 -3.81606 -26.0901
vn -0.697628 -0.213775 -0.683824
v 7.38002 -3.81318 -26.0813
vn -0.764491 -0.191511 -0.61553
v 7.37233 -3.81006 -26.0717
vn -0.823992 -0.167403 -0.541307
v 7.36566 -3.80673 -26.0614
vn -0.875557 -0.141683 -0.461871
v 7.36009 -3.80323 -26.0506
vn -0.918691 -0.114598 -0.377988
v 7.35565 -3.79959 -26.0393
vn -0.952977 -0.0864095 -0.290464
v 7.35241 -3.79584 -26.0276
vn -0.978085 -0.0573889 -0.200142
v 7.35038 -3.79201 -26.0157
vn -0.993773 -0.0278156 -0.107894
v 7.34959 -3.78815 -26.0036
vn -0.999891 0.00202559 -0.0146058
v 7.35004 -3.7843 -25.9915
vn -0.99638 0.0318473 0.0788226
v 7.35174 -3.78048 -25.9795
vn -0.983273 0.0613622 0.171492
v 7.35466 -3.77674 -25.9678
vn -0.960696 0.0902862 0.26251
v 7.35877 -3.77311 -25.9563
vn -0.928867 0.118341 0.351
v 7.36404 -3.76963 -25.9453
vn -0.888093 0.145256 0.436109
v 7.37042 -3.76633 -25.9349
vn -0.838766 0.170771 0.517018
v 7.37784 -3.76325 -25.9251
vn -0.781362 0.194643 0.592949
v 7.38624 -3.7604 -25.916
vn -0.716432 0.21664 0.663169
v 7.39553 -3.75783 -25.9077
vn -0.644603 0.23655 0.727002
v 7.40562 -3.75555 -25.9004
vn -0.566566 0.254182 0.783833
v 7.41641 -3.75358 -25.894
vn -0.483072 0.269367 0.833116
v 7.42781 -3.75196 -25.8887
vn -0.394926 0.281957 0.874376
v 7.4397 -3.75068 -25.8844
vn -0.302977 0.291832 0.907215
v 7.45197 -3.74977 -25.8813
vn -0.20811 0.298896 0.931317
v 7.46449 -3.74923 -25.8793
vn -0.111239 0.303082 0.94645
v 7.47716 -3.74906 -25.8786
vn -0.0132966 0.304349 0.952468
v 7.48984 -3.74928 -25.879
vn 0.0847739 0.302685 0.949313
v 7.50241 -3.74987 -25.8806
vn 0.182028 0.298106 0.937016
v 7.51476 -3.75083 -25.8833
vn 0.277529 0.290656 0.915695
v 7.52676 -3.75216 -25.8872
vn 0.370357 0.280407 0.885555
v 7.53831 -3.75383 -25.8922
vn 0.459619 0.267457 0.846887
v 7.54927 -3.75584 -25.8983
vn 0.544454 0.251932 0.800063
v 7.55957 -3.75816 -25.9053
vn 0.624046 0.23398 0.745533
v 7.56908 -3.76077 -25.9133
vn 0.697628 0.213775 0.683824
v 7.57773 -3.76365 -25.9221
vn 0.764491 0.191511 0.61553
v 7.58542 -3.76677 -25.9317
vn 0.823992 0.167403 0.541307
v 7.59209 -3.77009 -25.942
vn 0.875557 0.141683 0.461871
v 7.59766 -3.7736 -25.9528
vn 0.918691 0.114598 0.377988
v 7.6021 -3.77724 -25.9642
vn 0.952977 0.0864095 0.290464
v 7.60534 -3.78099 -25.9758
vn 0.978085 0.0573889 0.200142
v 7.60737 -3.78482 -25.9878
vn 0.993773 0.0278156 0.107894
v 7.60816 -3.78868 -25.9998
vn 0.999891 -0.00202559 0.0146058
v 7.60771 -3.79253 -26.0119
vn 0.99638 -0.0318473 -0.0788226
v 7.60602 -3.79635 -26.0239
vn 0.983273 -0.0613622 -0.171492
v 7.6031 -3.80009 -26.0357
vn 0.960696 -0.0902862 -0.26251
v 7.59898 -3.80372 -26.0471
vn 0.928867 -0.118341 -0.351
f 1 66 2 
f 1 65 66 
f 2 67 3 
f 2 66 67 
f 3 68 4 
f 3 67 68 
f 4 69 5 
f 4 68 69 
f 5 70 6 
f 5 69 70 
f 6 71 7 
f 6 70 71 
f 7 72 8 
f 7 71 72 
f 8 73 9 
f 8 72 73 
f 9 74 10 
f 9 73 74 
f 10 75 11 
f 10 74 75 
f 11 76 12 
f 11 75 76 
f 12 77 13 
f 12 76 77 
f 13 78 14 
f 13 77 78 
f 14 79 15 
f 14 78 79 
f 15 80 16 
f 15 79 80 
f 16 81 17 
f 16 80 81 
f 17 82 18 
f 17 81 82 
f 18 83 19 
f 18 82 83 
f 19 84 20 
f 19 83 84 
f 20 85 21 
f 20 84 85 
f 21 86 22 
f 21 85 86 
f 22 87 23 
f 22 86 87 
f 23 88 24 
f 23 87 88 
f 24 89 25 
f 24 88 89 
f 25 90 26 
f 25 89 90 
f 26 91 27 
f 26 90 91 
f 27 92 28 
f 27 91 92 
f 28 93 29 
f 28 92 93 
f 29 94 30 
f 29 93 94 
f 30 95 31 
f 30 94 95 
f 31 96 32 
f 31 95 96 
f 32 97 33 
f 32 96 97 
f 33 98 34 
f 33 97 98 
f 34 99 35 
f 34 98 99 
f 35 100 36 
f 35 99 100 
f 36 101 37 
f 36 100 101 
f 37 102 38 
f 37 101 102 
f 38 103 39 
f 38 102 103 
f 39 104 40 
f 39 103 104 
f 40 105 41 
f 40 104 105 
f 41 106 42 
f 41 105 106 
f 42 107 43 
f 42 106 107 
f 43 108 44 
f 43 107 108 
f 44 109 45 
f 44 108 109 
f 45 110 46 
f 45 109 110 
f 46 111 47 
f 46 110 111 
f 47 112 48 
f 47 111 112 
f 48 113 49 
f 48 112 113 
f 49 114 50 
f 49 113 114 
f 50 115 51 
f 50 114 115 
f 51 116 52 
f 51 115 116 
f 52 117 53 
f 52 116 117 
f 53 118 54 
f 53 117 118 
f 54 119 55 
f 54 118 119 
f 55 120 56 
f 55 119 120 
f 56 121 57 
f 56 120 121 
f 57 122 58 
f 57 121 122 
f 58 123 59 
f 58 122 123 
f 59 124 60 
f 59 123 124 
f 60 125 61 
f 60 124 125 
f 61 126 62 
f 61 125 126 
f 62 127 63 
f 62 126 127 
f 63 128 64 
f 63 127 128 
f 64 65 1 
f 64 128 65 
f 65 130 66 
f 65 129 130 
f 66 131 67 
f 66 130 131 
f 67 132 68 
f 67 131 132 
f 68 133 69 
f 68 132 133 
f 69 134 70 
f 69 133 134 
f 70 135 71 
f 70 134 135 
f 71 136 72 
f 71 135 136 
f 72 137 73 
f 72 136 137 
f 73 138 74 
f 73 137 138 
f 74 139 75 
f 74 138 139 
f 75 140 76 
f 75 139 140 
f 76 141 77 
f 76 140 141 
f 77 142 78 
f 77 141 142 
f 78 143 79 
f 78 142 143 
f 79 144 80 
f 79 143 144 
f 80 145 81 
f 80 144 145 
f 81 146 82 
f 81 145 146 
f 82 147 83 
f 82 146 147 
f 83 148 84 
f 83 147 148 
f 84 149 85 
f 84 148 149 
f 85 150 86 
f 85 149 150 
f 86 151 87 
f 86 150 151 
f 87 152 88 
f 87 151 152 
f 88 153 89 
f 88 152 153 
f 89 154 90 
f 89 153 154 
f 90 155 91 
f 90 154 155 
f 91 156 92 
f 91 155 156 
f 92 157 93 
f 92 156 157 
f 93 158 94 
f 93 157 158 
f 94 159 95 
f 94 158 159 
f 95 160 96 
f 95 159 160 
f 96 161 97 
f 96 160 161 
f 97 162 98 
f 97 161 162 
f 98 163 99 
f 98 162 163 
f 99 164 100 
f 99 163 164 
f 100 165 101 
f 100 164 165 
f 101 166 102 
f 101 165 166 
f 102 167 103 
f 102 166 167 
f 103 168 104 
f 103 167 168 
f 104 169 105 
f 104 168 169 
f 105 170 106 
f 105 169 170 
f 106 171 107 
f 106 170 171 
f 107 172 108 
f 107 171 172 
f 108 173 109 
f 108 172 173 
f 109 174 110 
f 109 173 174 
f 110 175 111 
f 110 174 175 
f 111 176 112 
f 111 175 176 
f 112 177 113 
f 112 176 177 
f 113 178 114 
f 113 177 178 
f 114 179 115 
f 114 178 179 
f 115 180 116 
f 115 179 180 
f 116 181 117 
f 116 180 181 
f 117 182 118 
f 117 181 182 
f 118 183 119 
f 118 182 183 
f 119 184 120 
f 119 183 184 
f 120 185 121 
f 120 184 185 
f 121 186 122 
f 121 185 186 
f 122 187 123 
f 122 186 187 
f 123 188 124 
f 123 187 188 
f 124 189 125 
f 124 188 189 
f 125 190 126 
f 125 189 190 
f 126 191 127 
f 126 190 191 
f 127 192 128 
f 127 191 192 
f 128 129 65 
f 128 192 129 
f 129 194 130 
f 129 193 194 
f 130 195 131 
f 130 194 195 
f 131 196 132 
f 131 195 196 
f 132 197 133 
f 132 196 197 
f 133 198 134 
f 133 197 198 
f 134 199 135 
f 134 198 199 
f 135 200 136 
f 135 199 200 
f 136 201 137 
f 136 200 201 
f 137 202 138 
f 137 201 202 
f 138 203 139 
f 138 202 203 
f 139 204 140 
f 139 203 204 
f 140 205 141 
f 140 204 205 
f 141 206 142 
f 141 205 206 
f 142 207 143 
f 142 206 207 
f 143 208 144 
f 143 207 208 
f 144 209 145 
f 144 208 209 
f 145 210 146 
f 145 209 210 
f 146 211 147 
f 146 210 211 
f 147 212 148 
f 147 211 212 
f 148 213 149 
f 148 212 213 
f 149 214 150 
f 149 213 214 
f 150 215 151 
f 150 214 215 
f 151 216 152 
f 151 215 216 
f 152 217 153 
f 152 216 217 
f 153 218 154 
f 153 217 218 
f 154 219 155 
f 154 218 219 
f 155 220 156 
f 155 219 220 
f 156 221 157 
f 156 220 221 
f 157 222 158 
f 157 221 222 
f 158 223 159 
f 158 222 223 
f 159 224 160 
f 159 223 224 
f 160 225 161 
f 160 224 225 
f 161 226 162 
f 161 225 226 
f 162 227 163 
f 162 226 227 
f 163 228 164 
f 163 227 228 
f 164 229 165 
f 164 228 229 
f 165 230 166 
f 165 229 230 
f 166 231 167 
f 166 230 231 
f 167 232 168 
f 167 231 232 
f 168 233 169 
f 168 232 233 
f 169 234 170 
f 169 233 234 
f 170 235 171 
f 170 234 235 
f 171 236 172 
f 171 235 236 
f 172 237 173 
f 172 236 237 
f 173 238 174 
f 173 237 238 
f 174 239 175 
f 174 238 239 
f 175 240 176 
f 175 239 240 
f 176 241 177 
f 176 240 241 
f 177 242 178 
f 177 241 242 
f 178 243 179 
f 178 242 243 
f 179 244 180 
f 179 243 244 
f 180 245 181 
f 180 244 245 
f 181 246 182 
f 181 245 246 
f 182 247 183 
f 182 246 247 
f 183 248 184 
f 183 247 248 
f 184 249 185 
f 184 248 249 
f 185 250 186 
f 185 249 250 
f 186 251 187 
f 186 250 251 
f 187 252 188 
f 187 251 252 
f 188 253 189 
f 188 252 253 
f 189 254 190 
f 189 253 254 
f 190 255 191 
f 190 254 255 
f 191 256 192 
f 191 255 256 
f 192 193 129 
f 192 256 193 
f 193 258 194 
f 193 257 258 
f 194 259 195 
f 194 258 259 
f 195 260 196 
f 195 259 260 
f 196 261 197 
f 196 260 261 
f 197 262 198 
f 197 261 262 
f 198 263 199 
f 198 262 263 
f 199 264 200 
f 199 263 264 
f 200 265 201 
f 200 264 265 
f 201 266 202 
f 201 265 266 
f 202 267 203 
f 202 266 267 
f 203 268 204 
f 203 267 268 
f 204 269 205 
f 204 268 269 
f 205 270 206 
f 205 269 270 
f 206 271 207 
f 206 270 271 
f 207 272 208 
f 207 271 272 
f 208 273 209 
f 208 272 273 
f 209 274 210 
f 209 273 274 
f 210 275 211 
f 210 274 275 
f 211 276 212 
f 211 275 276 
f 212 277 213 
f 212 276 277 
f 213 278 214 
f 213 277 278 
f 214 279 215 
f 214 278 279 
f 215 280 216 
f 215 279 280 
f 216 281 217 
f 216 280 281 
f 217 282 218 
f 217 281 282 
f 218 283 219 
f 218 282 283 
f 219 284 220 
f 219 283 284 
f 220 285 221 
f 220 284 285 
f 221 286 222 
f 221 285 286 
f 222 287 223 
f 222 286 287 
f 223 288 224 
f 223 287 288 
f 224 289 225 
f 224 288 289 
f 225 290 226 
f 225 289 290 
f 226 291 227 
f 226 290 291 
f 227 292 228 
f 227 291 292 
f 228 293 229 
f 228 292 293 
f 229 294 230 
f 229 293 294 
f 230 295 231 
f 230 294 295 
f 231 296 232 
f 231 295 296 
f 232 297 233 
f 232 296 297 
f 233 298 234 
f 233 297 298 
f 234 299 235 
f 234 298 299 
f 235 300 236 
f 235 299 300 
f 236 301 237 
f 236 300 301 
f 237 302 238 
f 237 301 302 
f 238 303 239 
f 238 302 303 
f 239 304 240 
f 239 303 304 
f 240 305 241 
f 240 304 305 
f 241 306 242 
f 241 305 306 
f 242 307 243 
f 242 306 307 
f 243 308 244 
f 243 307 308 
f 244 309 245 
f 244 308 309 
f 245 310 246 
f 245 309 310 
f 246 311 247 
f 246 310 311 
f 247 312 248 
f 247 311 312 
f 248 313 249 
f 248 312 313 
f 249 314 250 
f 249 313 314 
f 250 315 251 
f 250 314 315 
f 251 316 252 
f 251 315 316 
f 252 317 253 
f 252 316 317 
f 253 318 254 
f 253 317 318 
f 254 319 255 
f 254 318 319 
f 255 320 256 
f 255 319 320 
f 256 257 193 
f 256 320 257 
f 257 322 258 
f 257 321 322 
f 258 323 259 
f 258 322 323 
f 259 324 260 
f 259 323 324 
f 260 325 261 
f 260 324 325 
f 261 326 262 
f 261 325 326 
f 262 327 263 
f 262 326 327 
f 263 328 264 
f 263 327 328 
f 264 329 265 
f 264 328 329 
f 265 330 266 
f 265 329 330 
f 266 331 267 
f 266 330 331 
f 267 332 268 
f 267 331 332 
f 268 333 269 
f 268 332 333 
f 269 334 270 
f 269 333 334 
f 270 335 271 
f 270 334 335 
f 271 336 272 
f 271 335 336 
f 272 337 273 
f 272 336 337 
f 273 338 274 
f 273 337 338 
f 274 339 275 
f 274 338 339 
f 275 340 276 
f 275 339 340 
f 276 341 277 
f 276 340 341 
f 277 342 278 
f 277 341 342 
f 278 343 279 
f 278 342 343 
f 279 344 280 
f 279 343 344 
f 280 345 281 
f 280 344 345 
f 281 346 282 
f 281 345 346 
f 282 347 283 
f 282 346 347 
f 283 348 284 
f 283 347 348 
f 284 349 285 
f 284 348 349 
f 285 350 286 
f 285 349 350 
f 286 351 287 
f 286 350 351 
f 287 352 288 
f 287 351 352 
f 288 353 289 
f 288 352 353 
f 289 354 290 
f 289 353 354 
f 290 355 291 
f 290 354 355 
f 291 356 292 
f 291 355 356 
f 292 357 293 
f 292 356 357 
f 293 358 294 
f 293 357 358 
f 294 359 295 
f 294 358 359 
f 295 360 296 
f 295 359 360 
f 296 361 297 
f 296 360 361 
f 297 362 298 
f 297 361 362 
f 298 363 299 
f 298 362 363 
f 299 364 300 
f 299 363 364 
f 300 365 301 
f 300 364 365 
f 301 366 302 
f 301 365 366 
f 302 367 303 
f 302 366 367 
f 303 368 304 
f 303 367 368 
f 304 369 305 
f 304 368 369 
f 305 370 306 
f 305 369 370 
f 306 371 307 
f 306 370 371 
f 307 372 308 
f 307 371 372 
f 308 373 309 
f 308 372 373 
f 309 374 310 
f 309 373 374 
f 310 375 311 
f 310 374 375 
f 311 376 312 
f 311 375 376 
f 312 377 313 
f 312 376 377 
f 313 378 314 
f 313 377 378 
f 314 379 315 
f 314 378 379 
f 315 380 316 
f 315 379 380 
f 316 381 317 
f 316 380 381 
f 317 382 318 
f 317 381 382 
f 318 383 319 
f 318 382 383 
f 319 384 320 
f 319 383 384 
f 320 321 257 
f 320 384 321 
f 321 386 322 
f 321 385 386 
f 322 387 323 
f 322 386 387 
f 323 388 324 
f 323 387 388 
f 324 389 325 
f 324 388 389 
f 325 390 326 
f 325 389 390 
f 326 391 327 
f 326 390 391 
f 327 392 328 
f 327 391 392 
f 328 393 329 
f 328 392 393 
f 329 394 330 
f 329 393 394 
f 330 395 331 
f 330 394 395 
f 331 396 332 
f 331 395 396 
f 332 397 333 
f 332 396 397 
f 333 398 334 
f 333 397 398 
f 334 399 335 
f 334 398 399 
f 335 400 336 
f 335 399 400 
f 336 401 337 
f 336 400 401 
f 337 402 338 
f 337 401 402 
f 338 403 339 
f 338 402 403 
f 339 404 340 
f 339 403 404 
f 340 405 341 
f 340 404 405 
f 341 406 342 
f 341 405 406 
f 342 407 343 
f 342 406 407 
f 343 408 344 
f 343 407 408 
f 344 409 345 
f 344 408 409 
f 345 410 346 
f 345 409 410 
f 346 411 347 
f 346 410 411 
f 347 412 348 
f 347 411 412 
f 348 413 349 
f 348 412 413 
f 349 414 350 
f 349 413 414 
f 350 415 351 
f 350 414 415 
f 351 416 352 
f 351 415 416 
f 352 417 353 
f 352 416 417 
f 353 418 354 
f 353 417 418 
f 354 419 355 
f 354 418 419 
f 355 420 356 
f 355 419 420 
f 356 421 357 
f 356 420 421 
f 357 422 358 
f 357 421 422 
f 358 423 359 
f 358 422 423 
f 359 424 360 
f 359 423 424 
f 360 425 361 
f 360 424 425 
f 361 426 362 
f 361 425 426 
f 362 427 363 
f 362 426 427 
f 363 428 364 
f 363 427 428 
f 364 429 365 
f 364 428 429 
f 365 430 366 
f 365 429 430 
f 366 431 367 
f 366 430 431 
f 367 432 368 
f 367 431 432 
f 368 433 369 
f 368 432 433 
f 369 434 370 
f 369 433 434 
f 370 435 371 
f 370 434 435 
f 371 436 372 
f 371 435 436 
f 372 437 373 
f 372 436 437 
f 373 438 374 
f 373 437 438 
f 374 439 375 
f 374 438 439 
f 375 440 376 
f 375 439 440 
f 376 441 377 
f 376 440 441 
f 377 442 378 
f 377 441 442 
f 378 443 379 
f 378 442 443 
f 379 444 380 
f 379 443 444 
f 380 445 381 
f 380 444 445 
f 381 446 382 
f 381 445 446 
f 382 447 383 
f 382 446 447 
f 383 448 384 
f 383 447 448 
f 384 385 321 
f 384 448 385 
f 385 450 386 
f 385 449 450 
f 386 451 387 
f 386 450 451 
f 387 452 388 
f 387 451 452 
f 388 453 389 
f 388 452 453 
f 389 454 390 
f 389 453 454 
f 390 455 391 
f 390 454 455 
f 391 456 392 
f 391 455 456 
f 392 457 393 
f 392 456 457 
f 393 458 394 
f 393 457 458 
f 394 459 395 
f 394 458 459 
f 395 460 396 
f 395 459 460 
f 396 461 397 
f 396 460 461 
f 397 462 398 
f 397 461 462 
f 398 463 399 
f 398 462 463 
f 399 464 400 
f 399 463 464 
f 400 465 401 
f 400 464 465 
f 401 466 402 
f 401 465 466 
f 402 467 403 
f 402 466 467 
f 403 468 404 
f 403 467 468 
f 404 469 405 
f 404 468 469 
f 405 470 406 
f 405 469 470 
f 406 471 407 
f 406 470 471 
f 407 472 408 
f 407 471 472 
f 408 473 409 
f 408 472 473 
f 409 474 410 
f 409 473 474 
f 410 475 411 
f 410 474 475 
f 411 476 412 
f 411 475 476 
f 412 477 413 
f 412 476 477 
f 413 478 414 
f 413 477 478 
f 414 479 415 
f 414 478 479 
f 415 480 416 
f 415 479 480 
f 416 481 417 
f 416 480 481 
f 417 482 418 
f 417 481 482 
f 418 483 419 
f 418 482 483 
f 419 484 420 
f 419 483 484 
f 420 485 421 
f 420 484 485 
f 421 486 422 
f 421 485 486 
f 422 487 423 
f 422 486 487 
f 423 488 424 
f 423 487 488 
f 424 489 425 
f 424 488 489 
f 425 490 426 
f 425 489 490 
f 426 491 427 
f 426 490 491 
f 427 492 428 
f 427 491 492 
f 428 493 429 
f 428 492 493 
f 429 494 430 
f 429 493 494 
f 430 495 431 
f 430 494 495 
f 431 496 432 
f 431 495 496 
f 432 497 433 
f 432 496 497 
f 433 498 434 
f 433 497 498 
f 434 499 435 
f 434 498 499 
f 435 500 436 
f 435 499 500 
f 436 501 437 
f 436 500 501 
f 437 502 438 
f 437 501 502 
f 438 503 439 
f 438 502 503 
f 439 504 440 
f 439 503 504 
f 440 505 441 
f 440 504 505 
f 441 506 442 
f 441 505 506 
f 442 507 443 
f 442 506 507 
f 443 508 444 
f 443 507 508 
f 444 509 445 
f 444 508 509 
f 445 510 446 
f 445 509 510 
f 446 511 447 
f 446 510 511 
f 447 512 448 
f 447 511 512 
f 448 449 385 
f 448 512 449 
f 449 514 450 
f 449 513 514 
f 450 515 451 
f 450 514 515 
f 451 516 452 
f 451 515 516 
f 452 517 453 
f 452 516 517 
f 453 518 454 
f 453 517 518 
f 454 519 455 
f 454 518 519 
f 455 520 456 
f 455 519 520 
f 456 521 457 
f 456 520 521 
f 457 522 458 
f 457 521 522 
f 458 523 459 
f 458 522 523 
f 459 524 460 
f 459 523 524 
f 460 525 461 
f 460 524 525 
f 461 526 462 
f 461 525 526 
f 462 527 463 
f 462 526 527 
f 463 528 464 
f 463 527 528 
f 464 529 465 
f 464 528 529 
f 465 530 466 
f 465 529 530 
f 466 531 467 
f 466 530 531 
f 467 532 468 
f 467 531 532 
f 468 533 469 
f 468 532 533 
f 469 534 470 
f 469 533 534 
f 470 535 471 
f 470 534 535 
f 471 536 472 
f 471 535 536 
f 472 537 473 
f 472 536 537 
f 473 538 474 
f 473 537 538 
f 474 539 475 
f 474 538 539 
f 475 540 476 
f 475 539 540 
f 476 541 477 
f 476 540 541 
f 477 542 478 
f 477 541 542 
f 478 543 479 
f 478 542 543 
f 479 544 480 
f 479 543 544 
f 480 545 481 
f 480 544 545 
f 481 546 482 
f 481 545 546 
f 482 547 483 
f 482 546 547 
f 483 548 484 
f 483 547 548 
f 484 549 485 
f 484 548 549 
f 485 550 486 
f 485 549 550 
f 486 551 487 
f 486 550 551 
f 487 552 488 
f 487 551 552 
f 488 553 489 
f 488 552 553 
f 489 554 490 
f 489 553 554 
f 490 555 491 
f 490 554 555 
f 491 556 492 
f 491 555 556 
f 492 557 493 
f 492 556 557 
f 493 558 494 
f 493 557 558 
f 494 559 495 
f 494 558 559 
f 495 560 496 
f 495 559 560 
f 496 561 497 
f 496 560 561 
f 497 562 498 
f 497 561 562 
f 498 563 499 
f 498 562 563 
f 499 564 500 
f 499 563 564 
f 500 565 501 
f 500 564 565 
f 501 566 502 
f 501 565 566 
f 502 567 503 
f 502 566 567 
f 503 568 504 
f 503 567 568 
f 504 569 505 
f 504 568 569 
f 505 570 506 
f 505 569 570 
f 506 571 507 
f 506 570 571 
f 507 572 508 
f 507 571 572 
f 508 573 509 
f 508 572 573 
f 509 574 510 
f 509 573 574 
f 510 575 511 
f 510 574 575 
f 511 576 512 
f 511 575 576 
f 512 513 449 
f 512 576 513 
f 513 578 514 
f 513 577 578 
f 514 579 515 
f 514 578 579 
f 515 580 516 
f 515 579 580 
f 516 581 517 
f 516 580 581 
f 517 582 518 
f 517 581 582 
f 518 583 519 
f 518 582 583 
f 519 584 520 
f 519 583 584 
f 520 585 521 
f 520 584 585 
f 521 586 522 
f 521 585 586 
f 522 587 523 
f 522 586 587 
f 523 588 524 
f 523 587 588 
f 524 589 525 
f 524 588 589 
f 525 590 526 
f 525 589 590 
f 526 591 527 
f 526 590 591 
f 527 592 528 
f 527 591 592 
f 528 593 529 
f 528 592 593 
f 529 594 530 
f 529 593 594 
f 530 595 531 
f 530 594 595 
f 531 596 532 
f 531 595 596 
f 532 597 533 
f 532 596 597 
f 533 598 534 
f 533 597 598 
f 534 599 535 
f 534 598 599 
f 535 600 536 
f 535 599 600 
f 536 601 537 
f 536 600 601 
f 537 602 538 
f 537 601 602 
f 538 603 539 
f 538 602 603 
f 539 604 540 
f 539 603 604 
f 540 605 541 
f 540 604 605 
f 541 606 542 
f 541 605 606 
f 542 607 543 
f 542 606 607 
f 543 608 544 
f 543 607 608 
f 544 609 545 
f 544 608 609 
f 545 610 546 
f 545 609 610 
f 546 611 547 
f 546 610 611 
f 547 612 548 
f 547 611 612 
f 548 613 549 
f 548 612 613 
f 549 614 550 
f 549 613 614 
f 550 615 551 
f 550 614 615 
f 551 616 552 
f 551 615 616 
f 552 617 553 
f 552 616 617 
f 553 618 554 
f 553 617 618 
f 554 619 555 
f 554 618 619 
f 555 620 556 
f 555 619 620 
f 556 621 557 
f 556 620 621 
f 557 622 558 
f 557 621 622 
f 558 623 559 
f 558 622 623 
f 559 624 560 
f 559 623 624 
f 560 625 561 
f 560 624 625 
f 561 626 562 
f 561 625 626 
f 562 627 563 
f 562 626 627 
f 563 628 564 
f 563 627 628 
f 564 629 565 
f 564 628 629 
f 565 630 566 
f 565 629 630 
f 566 631 567 
f 566 630 631 
f 567 632 568 
f 567 631 632 
f 568 633 569 
f 568 632 633 
f 569 634 570 
f 569 633 634 
f 570 635 571 
f 570 634 635 
f 571 636 572 
f 571 635 636 
f 572 637 573 
f 572 636 637 
f 573 638 574 
f 573 637 638 
f 574 639 575 
f 574 638 639 
f 575 640 576 
f 575 639 640 
f 576 577 513 
f 576 640 577 
