# Branch
v -11.8812 -6.06644 -27.2466
vn 0.193603 0.369051 0.909021
v -11.8766 -6.03362 -27.2629
vn 0.20595 0.456236 0.865698
v -11.8727 -6.00246 -27.2824
vn 0.216314 0.539027 0.814038
v -11.8696 -5.97325 -27.3048
vn 0.224594 0.616627 0.754538
v -11.8673 -5.94628 -27.3299
vn 0.230712 0.688289 0.687772
v -11.8658 -5.9218 -27.3575
vn 0.234608 0.753322 0.614382
v -11.8652 -5.90005 -27.3874
vn 0.236244 0.8111 0.535075
v -11.8654 -5.88124 -27.4192
vn 0.235605 0.861067 0.450616
v -11.8665 -5.86556 -27.4526
vn 0.232697 0.902741 0.361816
v -11.8684 -5.85314 -27.4873
vn 0.227549 0.935721 0.269532
v -11.8712 -5.84412 -27.523
vn 0.220208 0.95969 0.174652
v -11.8748 -5.83858 -27.5594
vn 0.210747 0.974416 0.0780907
v -11.8791 -5.83657 -27.596
vn 0.199257 0.979759 -0.0192231
v -11.8841 -5.83811 -27.6326
vn 0.185847 0.975665 -0.116352
v -11.8899 -5.84318 -27.6687
vn 0.170648 0.962176 -0.21236
v -11.8962 -5.85175 -27.7041
vn 0.153805 0.93942 -0.306323
v -11.9031 -5.86372 -27.7383
vn 0.135481 0.907617 -0.397336
v -11.9105 -5.87898 -27.7712
vn 0.115852 0.867074 -0.484522
v -11.9183 -5.89738 -27.8022
vn 0.095108 0.818179 -0.567042
v -11.9265 -5.91875 -27.8312
vn 0.0734475 0.761406 -0.644102
v -11.9349 -5.94288 -27.8579
vn 0.0510798 0.697299 -0.714958
v -11.9435 -5.96954 -27.882
vn 0.0282201 0.626478 -0.778928
v -11.9522 -5.99847 -27.9032
vn 0.00508861 0.549622 -0.835398
v -11.9609 -6.02939 -27.9214
vn -0.0180919 0.467474 -0.883822
v -11.9696 -6.062 -27.9365
vn -0.0410981 0.380824 -0.923734
v -11.9781 -6.096 -27.9481
vn -0.0637085 0.290506 -0.95475
v -11.9864 -6.13105 -27.9564
vn -0.0857054 0.19739 -0.976571
v -11.9943 -6.16681 -27.961
vn -0.106877 0.102374 -0.988988
v -12.0019 -6.20295 -27.9621
vn -0.127019 0.00637138 -0.99188
v -12.009 -6.23911 -27.9596
vn -0.145938 -0.0896924 -0.985219
v -12.0156 -6.27494 -27.9535
vn -0.163452 -0.184892 -0.969071
v -12.0216 -6.3101 -27.9439
vn -0.179391 -0.278312 -0.94359
v -12.027 -6.34426 -27.9309
vn -0.193603 -0.369051 -0.909021
v -12.0316 -6.37707 -27.9146
vn -0.20595 -0.456236 -0.865698
v -12.0355 -6.40824 -27.8952
vn -0.216314 -0.539027 -0.814038
v -12.0386 -6.43744 -27.8728
vn -0.224594 -0.616627 -0.754538
v -12.0409 -6.46442 -27.8477
vn -0.230712 -0.688289 -0.687772
v -12.0424 -6.4889 -27.82
vn -0.234608 -0.753322 -0.614382
v -12.043 -6.51064 -27.7902
vn -0.236244 -0.8111 -0.535075
v -12.0428 -6.52945 -27.7584
vn -0.235605 -0.861067 -0.450616
v -12.0417 -6.54514 -27.725
vn -0.232697 -0.902741 -0.361816
v -12.0397 -6.55755 -27.6902
vn -0.227549 -0.935721 -0.269532
v -12.037 -6.56657 -27.6545
vn -0.220208 -0.95969 -0.174652
v -12.0334 -6.57212 -27.6182
vn -0.210747 -0.974416 -0.0780907
v -12.0291 -6.57413 -27.5815
vn -0.199257 -0.979759 0.0192231
v -12.0241 -6.57259 -27.545
vn -0.185847 -0.975665 0.116352
v -12.0183 -6.56751 -27.5088
vn -0.170648 -0.962176 0.21236
v -12.012 -6.55894 -27.4735
vn -0.153805 -0.93942 0.306323
v -12.0051 -6.54697 -27.4392
vn -0.135481 -0.907617 0.397336
v -11.9977 -6.53171 -27.4064
vn -0.115852 -0.867074 0.484522
v -11.9899 -6.51331 -27.3753
vn -0.095108 -0.818179 0.567042
v -11.9817 -6.49194 -27.3463
vn -0.0734475 -0.761406 0.644102
v -11.9733 -6.46781 -27.3197
vn -0.0510798 -0.697299 0.714958
v -11.9647 -6.44115 -27.2956
vn -0.0282201 -0.626478 0.778928
v -11.956 -6.41222 -27.2743
vn -0.00508861 -0.549622 0.835398
v -11.9473 -6.3813 -27.2561
vn 0.0180919 -0.467474 0.883822
v -11.9386 -6.34869 -27.2411
vn 0.0410981 -0.380824 0.923734
v -11.9301 -6.31469 -27.2294
vn 0.0637085 -0.290506 0.95475
v -11.9218 -6.27964 -27.2212
vn 0.0857054 -0.19739 0.976571
v -11.9139 -6.24388 -27.2165
vn 0.106877 -0.102374 0.988988
v -11.9063 -6.20774 -27.2154
vn 0.127019 -0.00637138 0.99188
v -11.8992 -6.17159 -27.2179
vn 0.145938 0.0896924 0.985219
v -11.8926 -6.13575 -27.224
vn 0.163452 0.184892 0.969071
v -11.8866 -6.10059 -27.2336
vn 0.179391 0.278312 0.94359
v -10.2748 -6.41157 -27.4873
vn 0.244042 0.358108 0.901223
v -10.2702 -6.37798 -27.5039
vn 0.256146 0.445346 0.857937
v -10.2664 -6.34603 -27.5238
vn 0.265784 0.528294 0.80639
v -10.2637 -6.31605 -27.5466
vn 0.272861 0.606155 0.747076
v -10.262 -6.28832 -27.5722
vn 0.277312 0.678179 0.680567
v -10.2613 -6.2631 -27.6004
vn 0.279091 0.743671 0.607505
v -10.2617 -6.24063 -27.6308
vn 0.278183 0.802001 0.528591
v -10.263 -6.22114 -27.6631
vn 0.274595 0.852608 0.444587
v -10.2654 -6.20482 -27.6971
vn 0.268363 0.895003 0.356302
v -10.2688 -6.19181 -27.7324
vn 0.259547 0.928779 0.264585
v -10.2732 -6.18225 -27.7687
vn 0.248231 0.95361 0.17032
v -10.2785 -6.17622 -27.8057
vn 0.234524 0.969258 0.0744145
v -10.2846 -6.17379 -27.8429
vn 0.218559 0.975571 -0.0222074
v -10.2916 -6.17498 -27.88
vn 0.200489 0.972489 -0.118616
v -10.2993 -6.17977 -27.9167
vn 0.180488 0.960041 -0.213881
v -10.3077 -6.18813 -27.9526
vn 0.158749 0.938348 -0.307087
v -10.3166 -6.19996 -27.9873
vn 0.135481 0.907617 -0.397336
v -10.3261 -6.21516 -28.0206
vn 0.110909 0.868146 -0.483758
v -10.336 -6.23358 -28.0521
vn 0.0852678 0.820314 -0.565521
v -10.3461 -6.25504 -28.0815
vn 0.0588059 0.764582 -0.641838
v -10.3566 -6.27934 -28.1085
vn 0.0317776 0.701487 -0.711973
v -10.3671 -6.30624 -28.1328
vn 0.00444331 0.631636 -0.775252
v -10.3776 -6.33548 -28.1543
vn -0.0229338 0.555702 -0.831065
v -10.3881 -6.36678 -28.1728
vn -0.05009 0.474416 -0.878874
v -10.3984 -6.39984 -28.1879
vn -0.0767638 0.388562 -0.91822
v -10.4083 -6.43435 -28.1997
vn -0.102698 0.298965 -0.948722
v -10.4179 -6.46996 -28.2079
vn -0.127644 0.206489 -0.970087
v -10.4271 -6.50634 -28.2125
vn -0.15136 0.112025 -0.98211
v -10.4356 -6.54313 -28.2135
vn -0.173619 0.0164815 -0.984675
v -10.4436 -6.57998 -28.2108
vn -0.194205 -0.0792206 -0.977757
v -10.4508 -6.61654 -28.2045
vn -0.212921 -0.17416 -0.961422
v -10.4572 -6.65246 -28.1947
vn -0.229587 -0.267422 -0.935829
v -10.4628 -6.68738 -28.1814
vn -0.244042 -0.358108 -0.901223
v -10.4674 -6.72097 -28.1647
vn -0.256146 -0.445346 -0.857937
v -10.4711 -6.75292 -28.1448
vn -0.265784 -0.528294 -0.80639
v -10.4739 -6.7829 -28.122
vn -0.272861 -0.606155 -0.747076
v -10.4756 -6.81064 -28.0964
vn -0.277312 -0.678179 -0.680567
v -10.4763 -6.83586 -28.0683
vn -0.279091 -0.743671 -0.607505
v -10.4759 -6.85832 -28.0379
vn -0.278183 -0.802001 -0.528591
v -10.4745 -6.87781 -28.0055
vn -0.274595 -0.852608 -0.444587
v -10.4721 -6.89413 -27.9715
vn -0.268363 -0.895003 -0.356302
v -10.4687 -6.90714 -27.9362
vn -0.259547 -0.928779 -0.264585
v -10.4644 -6.9167 -27.8999
vn -0.248231 -0.95361 -0.17032
v -10.4591 -6.92273 -27.863
vn -0.234524 -0.969258 -0.0744145
v -10.453 -6.92516 -27.8258
vn -0.218559 -0.975571 0.0222074
v -10.446 -6.92397 -27.7886
vn -0.200489 -0.972489 0.118616
v -10.4383 -6.91918 -27.7519
vn -0.180488 -0.960041 0.213881
v -10.4299 -6.91082 -27.7161
vn -0.158749 -0.938348 0.307087
v -10.421 -6.89899 -27.6813
vn -0.135481 -0.907617 0.397336
v -10.4115 -6.88379 -27.648
vn -0.110909 -0.868146 0.483758
v -10.4016 -6.86537 -27.6165
vn -0.0852678 -0.820314 0.565521
v -10.3914 -6.84391 -27.5871
vn -0.0588059 -0.764582 0.641838
v -10.381 -6.81961 -27.5601
vn -0.0317776 -0.701487 0.711973
v -10.3705 -6.79271 -27.5358
vn -0.00444331 -0.631636 0.775252
v -10.36 -6.76347 -27.5143
vn 0.0229338 -0.555702 0.831065
v -10.3495 -6.73217 -27.4959
vn 0.05009 -0.474416 0.878874
v -10.3392 -6.69911 -27.4807
vn 0.0767638 -0.388562 0.91822
v -10.3292 -6.6646 -27.469
vn 0.102698 -0.298965 0.948722
v -10.3196 -6.62899 -27.4607
vn 0.127644 -0.206489 0.970087
v -10.3105 -6.59262 -27.4561
vn 0.15136 -0.112025 0.98211
v -10.3019 -6.55582 -27.4551
vn 0.173619 -0.0164815 0.984675
v -10.294 -6.51897 -27.4578
vn 0.194205 0.0792206 0.977757
v -10.2868 -6.48241 -27.4641
vn 0.212921 0.17416 0.961422
v -10.2804 -6.44649 -27.4739
vn 0.229587 0.267422 0.935829
v -8.65386 -6.7955 -27.8115
vn 0.291668 0.346727 0.891465
v -8.64919 -6.76113 -27.8286
vn 0.303543 0.43402 0.848227
v -8.64566 -6.7284 -27.8488
vn 0.312495 0.517132 0.79682
v -8.64332 -6.69763 -27.8721
vn 0.318437 0.595265 0.737738
v -8.64219 -6.66912 -27.8981
vn 0.321312 0.667664 0.671553
v -8.64227 -6.64314 -27.9268
vn 0.321093 0.733634 0.598899
v -8.64358 -6.61995 -27.9576
vn 0.317782 0.792538 0.520478
v -8.64609 -6.59976 -27.9905
vn 0.311411 0.84381 0.437045
v -8.64978 -6.58277 -28.025
vn 0.30204 0.886955 0.349402
v -8.65461 -6.56914 -28.0608
vn 0.289761 0.921559 0.258395
v -8.66055 -6.55901 -28.0977
vn 0.27469 0.947287 0.164899
v -8.66752 -6.55247 -28.1351
vn 0.256975 0.963893 0.0698149
v -8.67547 -6.54959 -28.1728
vn 0.236785 0.971216 -0.0259415
v -8.68432 -6.55039 -28.2104
vn 0.214314 0.969185 -0.121448
v -8.69398 -6.55486 -28.2476
vn 0.18978 0.957821 -0.215785
v -8.70436 -6.56297 -28.2839
vn 0.163417 0.937232 -0.308044
v -8.71537 -6.57463 -28.3191
vn 0.135481 0.907617 -0.397336
v -8.72688 -6.58974 -28.3527
vn 0.10624 0.869262 -0.482801
v -8.7388 -6.60814 -28.3845
vn 0.0759764 0.822535 -0.563617
v -8.751 -6.62966 -28.4142
vn 0.0449807 0.767886 -0.639005
v -8.76338 -6.65409 -28.4415
vn 0.0135518 0.705842 -0.708239
v -8.77581 -6.6812 -28.4661
vn -0.0180075 0.637001 -0.770653
v -8.78817 -6.71072 -28.4877
vn -0.0493935 0.562025 -0.825644
v -8.80034 -6.74238 -28.5062
vn -0.0803038 0.481636 -0.872684
v -8.8122 -6.77586 -28.5215
vn -0.110441 0.396609 -0.91132
v -8.82365 -6.81084 -28.5332
vn -0.139514 0.307763 -0.941179
v -8.83457 -6.847 -28.5414
vn -0.167244 0.215952 -0.961974
v -8.84486 -6.88397 -28.5459
vn -0.193363 0.122062 -0.973505
v -8.85441 -6.92141 -28.5468
vn -0.21762 0.026996 -0.97566
v -8.86314 -6.95894 -28.5439
vn -0.239781 -0.0683298 -0.968419
v -8.87095 -6.99622 -28.5374
vn -0.259632 -0.162998 -0.951852
v -8.87779 -7.03288 -28.5273
vn -0.276984 -0.256095 -0.926118
v -8.88357 -7.06857 -28.5136
vn -0.291668 -0.346727 -0.891465
v -8.88825 -7.10295 -28.4966
vn -0.303543 -0.43402 -0.848227
v -8.89177 -7.13567 -28.4764
vn -0.312495 -0.517132 -0.79682
v -8.89411 -7.16644 -28.4531
vn -0.318437 -0.595265 -0.737738
v -8.89524 -7.19495 -28.427
vn -0.321312 -0.667664 -0.671553
v -8.89516 -7.22093 -28.3984
vn -0.321093 -0.733634 -0.598899
v -8.89385 -7.24412 -28.3675
vn -0.317782 -0.792538 -0.520478
v -8.89134 -7.26431 -28.3347
vn -0.311411 -0.84381 -0.437045
v -8.88765 -7.2813 -28.3002
vn -0.30204 -0.886955 -0.349402
v -8.88282 -7.29493 -28.2643
vn -0.289761 -0.921559 -0.258395
v -8.87688 -7.30506 -28.2275
vn -0.27469 -0.947287 -0.164899
v -8.86991 -7.3116 -28.1901
vn -0.256975 -0.963893 -0.0698149
v -8.86196 -7.31448 -28.1524
vn -0.236785 -0.971216 0.0259415
v -8.85311 -7.31368 -28.1148
vn -0.214314 -0.969185 0.121448
v -8.84345 -7.30921 -28.0776
vn -0.18978 -0.957821 0.215785
v -8.83307 -7.3011 -28.0413
vn -0.163417 -0.937232 0.308044
v -8.82207 -7.28944 -28.0061
vn -0.135481 -0.907617 0.397336
v -8.81055 -7.27434 -27.9725
vn -0.10624 -0.869262 0.482801
v -8.79863 -7.25594 -27.9406
vn -0.0759764 -0.822535 0.563617
v -8.78643 -7.23442 -27.911
vn -0.0449807 -0.767886 0.639005
v -8.77405 -7.20998 -27.8837
vn -0.0135518 -0.705842 0.708239
v -8.76162 -7.18288 -27.8591
vn 0.0180075 -0.637001 0.770653
v -8.74927 -7.15335 -27.8375
vn 0.0493935 -0.562025 0.825644
v -8.73709 -7.1217 -27.8189
vn 0.0803038 -0.481636 0.872684
v -8.72523 -7.08821 -27.8037
vn 0.110441 -0.396609 0.91132
v -8.71378 -7.05323 -27.792
vn 0.139514 -0.307763 0.941179
v -8.70286 -7.01707 -27.7838
vn 0.167244 -0.215952 0.961974
v -8.69257 -6.9801 -27.7792
vn 0.193363 -0.122062 0.973505
v -8.68302 -6.94267 -27.7784
vn 0.21762 -0.026996 0.97566
v -8.67429 -6.90513 -27.7812
vn 0.239781 0.0683298 0.968419
v -8.66648 -6.86785 -27.7878
vn 0.259632 0.162998 0.951852
v -8.65964 -6.83119 -27.7979
vn 0.276984 0.256095 0.926118
v -7.01849 -7.21817 -28.2194
vn 0.336371 0.335079 0.8801
v -7.0138 -7.18301 -28.2368
vn 0.348031 0.422427 0.836917
v -7.01046 -7.14949 -28.2574
vn 0.356339 0.505708 0.785673
v -7.0085 -7.11794 -28.2811
vn 0.361216 0.584118 0.726863
v -7.00793 -7.08864 -28.3076
vn 0.362613 0.656903 0.661053
v -7.00878 -7.06189 -28.3366
vn 0.360519 0.723361 0.588876
v -7.01102 -7.03795 -28.3679
vn 0.354952 0.782853 0.511029
v -7.01463 -7.01704 -28.4013
vn 0.345967 0.834806 0.42826
v -7.01959 -6.99937 -28.4362
vn 0.33365 0.878719 0.341366
v -7.02584 -6.9851 -28.4725
vn 0.31812 0.914169 0.251185
v -7.03332 -6.97437 -28.5098
vn 0.299526 0.940816 0.158585
v -7.04197 -6.9673 -28.5477
vn 0.278048 0.958402 0.0644575
v -7.05169 -6.96393 -28.5858
vn 0.253892 0.966758 -0.0302906
v -7.0624 -6.96432 -28.6238
vn 0.227291 0.965804 -0.124747
v -7.07398 -6.96844 -28.6614
vn 0.198501 0.955548 -0.218002
v -7.08634 -6.97628 -28.6981
vn 0.167799 0.93609 -0.309158
v -7.09935 -6.98774 -28.7335
vn 0.135481 0.907617 -0.397336
v -7.11288 -7.00271 -28.7675
vn 0.101859 0.870403 -0.481687
v -7.12681 -7.02106 -28.7996
vn 0.0672552 0.824807 -0.5614
v -7.14099 -7.04261 -28.8295
vn 0.0320039 0.771267 -0.635706
v -7.15531 -7.06715 -28.8569
vn -0.00355548 0.7103 -0.70389
v -7.1696 -7.09444 -28.8816
vn -0.0390807 0.642492 -0.765295
v -7.18375 -7.12422 -28.9034
vn -0.0742295 0.568496 -0.81933
v -7.19761 -7.15621 -28.922
vn -0.108663 0.489026 -0.865474
v -7.21105 -7.19009 -28.9372
vn -0.142051 0.404846 -0.903284
v -7.22393 -7.22554 -28.9489
vn -0.17407 0.316767 -0.932394
v -7.23615 -7.26221 -28.957
vn -0.204413 0.225637 -0.952525
v -7.24757 -7.29977 -28.9614
vn -0.232788 0.132335 -0.963482
v -7.25808 -7.33783 -28.9621
vn -0.25892 0.0377576 -0.96516
v -7.2676 -7.37604 -28.959
vn -0.282559 -0.0571831 -0.957544
v -7.27602 -7.41403 -28.9522
vn -0.303477 -0.151573 -0.940706
v -7.28326 -7.45143 -28.9418
vn -0.321472 -0.244503 -0.914808
v -7.28926 -7.48789 -28.9278
vn -0.336371 -0.335079 -0.8801
v -7.29395 -7.52304 -28.9105
vn -0.348031 -0.422427 -0.836917
v -7.29729 -7.55656 -28.8898
vn -0.356339 -0.505708 -0.785673
v -7.29925 -7.58812 -28.8662
vn -0.361216 -0.584118 -0.726863
v -7.29982 -7.61741 -28.8397
vn -0.362613 -0.656903 -0.661053
v -7.29897 -7.64416 -28.8106
vn -0.360519 -0.723361 -0.588876
v -7.29673 -7.6681 -28.7793
vn -0.354952 -0.782853 -0.511029
v -7.29312 -7.68901 -28.746
vn -0.345967 -0.834806 -0.42826
v -7.28816 -7.70669 -28.711
vn -0.33365 -0.878719 -0.341366
v -7.28191 -7.72096 -28.6747
vn -0.31812 -0.914169 -0.251185
v -7.27443 -7.73168 -28.6374
vn -0.299526 -0.940816 -0.158585
v -7.26578 -7.73876 -28.5996
vn -0.278048 -0.958402 -0.0644575
v -7.25606 -7.74212 -28.5614
vn -0.253892 -0.966758 0.0302906
v -7.24535 -7.74174 -28.5234
vn -0.227291 -0.965804 0.124747
v -7.23377 -7.73761 -28.4859
vn -0.198501 -0.955548 0.218002
v -7.22141 -7.72978 -28.4492
vn -0.167799 -0.93609 0.309158
v -7.2084 -7.71832 -28.4137
vn -0.135481 -0.907617 0.397336
v -7.19487 -7.70334 -28.3798
vn -0.101859 -0.870403 0.481687
v -7.18094 -7.68499 -28.3477
vn -0.0672552 -0.824807 0.5614
v -7.16676 -7.66344 -28.3178
vn -0.0320039 -0.771267 0.635706
v -7.15244 -7.6389 -28.2903
vn 0.00355548 -0.7103 0.70389
v -7.13815 -7.61161 -28.2656
vn 0.0390807 -0.642492 0.765295
v -7.124 -7.58183 -28.2439
vn 0.0742295 -0.568496 0.81933
v -7.11014 -7.54985 -28.2253
vn 0.108663 -0.489026 0.865474
v -7.0967 -7.51597 -28.2101
vn 0.142051 -0.404846 0.903284
v -7.08382 -7.48052 -28.1984
vn 0.17407 -0.316767 0.932394
v -7.0716 -7.44384 -28.1903
vn 0.204413 -0.225637 0.952525
v -7.06018 -7.40629 -28.1858
vn 0.232788 -0.132335 0.963482
v -7.04967 -7.36822 -28.1852
vn 0.25892 -0.0377576 0.96516
v -7.04015 -7.33001 -28.1882
vn 0.282559 0.0571831 0.957544
v -7.03173 -7.29202 -28.195
vn 0.303477 0.151573 0.940706
v -7.02449 -7.25462 -28.2054
vn 0.321472 0.244503 0.914808
v -5.3688 -7.67951 -28.7107
vn 0.378123 0.323314 0.867463
v -5.36409 -7.64358 -28.7285
vn 0.389581 0.410719 0.82434
v -5.36092 -7.60927 -28.7495
vn 0.397288 0.494169 0.773278
v -5.35932 -7.57691 -28.7735
vn 0.401169 0.57286 0.714769
v -5.35931 -7.54682 -28.8004
vn 0.401186 0.646033 0.649377
v -5.3609 -7.5193 -28.8299
vn 0.39734 0.712985 0.577731
v -5.36405 -7.49459 -28.8616
vn 0.389667 0.773071 0.500521
v -5.36875 -7.47295 -28.8953
vn 0.378241 0.825711 0.41849
v -5.37494 -7.45457 -28.9307
vn 0.363173 0.8704 0.33243
v -5.38258 -7.43964 -28.9674
vn 0.344607 0.906706 0.243168
v -5.39158 -7.42831 -29.0051
vn 0.322722 0.93428 0.151564
v -5.40185 -7.42067 -29.0434
vn 0.297729 0.952856 0.0585001
v -5.41331 -7.4168 -29.0819
vn 0.26987 0.962256 -0.0351269
v -5.42583 -7.41675 -29.1202
vn 0.239411 0.962389 -0.128416
v -5.4393 -7.42051 -29.1581
vn 0.206646 0.953253 -0.220468
v -5.45359 -7.42804 -29.195
vn 0.171891 0.934937 -0.310396
v -5.46856 -7.43927 -29.2308
vn 0.135481 0.907617 -0.397336
v -5.48407 -7.4541 -29.265
vn 0.0977663 0.871557 -0.480449
v -5.49996 -7.47237 -29.2972
vn 0.0591099 0.827102 -0.558935
v -5.51609 -7.49393 -29.3273
vn 0.0198842 0.774682 -0.632038
v -5.5323 -7.51855 -29.3548
vn -0.0195329 0.714802 -0.699054
v -5.54843 -7.546 -29.3796
vn -0.058762 0.648038 -0.759338
v -5.56433 -7.57602 -29.4014
vn -0.0974251 0.575032 -0.812309
v -5.57984 -7.60831 -29.42
vn -0.13515 0.496489 -0.857457
v -5.59481 -7.64257 -29.4351
vn -0.171573 0.413165 -0.894348
v -5.60911 -7.67847 -29.4468
vn -0.206344 0.325861 -0.922625
v -5.62259 -7.71565 -29.4547
vn -0.239128 0.235419 -0.942017
v -5.63512 -7.75377 -29.459
vn -0.269609 0.14271 -0.952337
v -5.64659 -7.79246 -29.4594
vn -0.297493 0.0486268 -0.953485
v -5.65687 -7.83133 -29.4561
vn -0.322513 -0.0459249 -0.94545
v -5.66588 -7.87003 -29.4491
vn -0.344426 -0.140034 -0.928311
v -5.67353 -7.90817 -29.4384
vn -0.363022 -0.232795 -0.902231
v -5.67974 -7.94538 -29.4241
vn -0.378123 -0.323314 -0.867463
v -5.68445 -7.98132 -29.4063
vn -0.389581 -0.410719 -0.82434
v -5.68762 -8.01563 -29.3854
vn -0.397288 -0.494169 -0.773278
v -5.68921 -8.04799 -29.3613
vn -0.401169 -0.57286 -0.714769
v -5.68922 -8.07808 -29.3344
vn -0.401186 -0.646033 -0.649377
v -5.68764 -8.1056 -29.305
vn -0.39734 -0.712985 -0.577731
v -5.68448 -8.13031 -29.2732
vn -0.389667 -0.773071 -0.500521
v -5.67979 -8.15195 -29.2395
vn -0.378241 -0.825711 -0.41849
v -5.67359 -8.17033 -29.2041
vn -0.363173 -0.8704 -0.33243
v -5.66596 -8.18525 -29.1674
vn -0.344607 -0.906706 -0.243168
v -5.65696 -8.19659 -29.1297
vn -0.322722 -0.93428 -0.151564
v -5.64668 -8.20423 -29.0915
vn -0.297729 -0.952856 -0.0585001
v -5.63523 -8.2081 -29.053
vn -0.26987 -0.962256 0.0351269
v -5.62271 -8.20815 -29.0146
vn -0.239411 -0.962389 0.128416
v -5.60923 -8.20439 -28.9768
vn -0.206646 -0.953253 0.220468
v -5.59494 -8.19686 -28.9398
vn -0.171891 -0.934937 0.310396
v -5.57997 -8.18563 -28.904
vn -0.135481 -0.907617 0.397336
v -5.56447 -8.1708 -28.8699
vn -0.0977663 -0.871557 0.480449
v -5.54857 -8.15252 -28.8376
vn -0.0591099 -0.827102 0.558935
v -5.53244 -8.13097 -28.8075
vn -0.0198842 -0.774682 0.632038
v -5.51624 -8.10635 -28.78
vn 0.0195329 -0.714802 0.699054
v -5.50011 -8.0789 -28.7552
vn 0.058762 -0.648038 0.759338
v -5.48421 -8.04888 -28.7334
vn 0.0974251 -0.575032 0.812309
v -5.4687 -8.01659 -28.7149
vn 0.13515 -0.496489 0.857457
v -5.45372 -7.98233 -28.6997
vn 0.171573 -0.413165 0.894348
v -5.43943 -7.94643 -28.6881
vn 0.206344 -0.325861 0.922625
v -5.42595 -7.90925 -28.6801
vn 0.239128 -0.235419 0.942017
v -5.41341 -7.87113 -28.6758
vn 0.269609 -0.14271 0.952337
v -5.40195 -7.83244 -28.6754
vn 0.297493 -0.0486268 0.953485
v -5.39166 -7.79357 -28.6787
vn 0.322513 0.0459249 0.94545
v -5.38265 -7.75487 -28.6857
vn 0.344426 0.140034 0.928311
v -5.37501 -7.71673 -28.6964
vn 0.363022 0.232795 0.902231
v -3.70483 -8.17949 -29.2854
vn 0.416956 0.311562 0.85386
v -3.7001 -8.14277 -29.3035
vn 0.428228 0.399024 0.810802
v -3.6971 -8.10766 -29.3249
vn 0.435376 0.482643 0.759937
v -3.69586 -8.07451 -29.3493
vn 0.43833 0.561614 0.701752
v -3.69639 -8.04362 -29.3766
vn 0.437064 0.635176 0.63681
v -3.69869 -8.0153 -29.4064
vn 0.431588 0.702621 0.565734
v -3.70273 -7.98983 -29.4385
vn 0.421956 0.7633 0.48921
v -3.70848 -7.96744 -29.4727
vn 0.40826 0.816627 0.407975
v -3.71589 -7.94835 -29.5084
vn 0.390632 0.86209 0.322811
v -3.72487 -7.93275 -29.5455
vn 0.369243 0.899251 0.234538
v -3.73534 -7.92078 -29.5835
vn 0.344297 0.927751 0.144006
v -3.74721 -7.91257 -29.6221
vn 0.316036 0.947316 0.0520878
v -3.76035 -7.90818 -29.6609
vn 0.284731 0.957759 -0.0403325
v -3.77464 -7.90767 -29.6995
vn 0.250683 0.958977 -0.132364
v -3.78995 -7.91104 -29.7376
vn 0.214222 0.95096 -0.223121
v -3.80613 -7.91825 -29.7748
vn 0.175698 0.933785 -0.31173
v -3.82301 -7.92924 -29.8108
vn 0.135481 0.907617 -0.397336
v -3.84045 -7.94389 -29.8451
vn 0.09396 0.872708 -0.479115
v -3.85826 -7.96208 -29.8775
vn 0.0515338 0.829395 -0.556281
v -3.87628 -7.98362 -29.9077
vn 0.00861139 0.778094 -0.628089
v -3.89434 -8.0083 -29.9353
vn -0.034394 0.719299 -0.693848
v -3.91225 -8.0359 -29.9601
vn -0.0770681 0.653578 -0.752926
v -3.92986 -8.06613 -29.9818
vn -0.119 0.581561 -0.804752
v -3.94698 -8.09872 -30.0003
vn -0.159786 0.503945 -0.848828
v -3.96346 -8.13334 -30.0154
vn -0.199033 0.421475 -0.884729
v -3.97913 -8.16967 -30.0269
vn -0.236363 0.334945 -0.91211
v -3.99385 -8.20736 -30.0347
vn -0.271417 0.245191 -0.930706
v -4.00747 -8.24603 -30.0388
vn -0.303857 0.153074 -0.94034
v -4.01986 -8.28533 -30.039
vn -0.333371 0.0594841 -0.940917
v -4.03091 -8.32486 -30.0354
vn -0.359674 -0.0346791 -0.932433
v -4.0405 -8.36426 -30.0281
vn -0.382514 -0.128508 -0.914969
v -4.04854 -8.40313 -30.0171
vn -0.401669 -0.2211 -0.888694
v -4.05496 -8.44111 -30.0024
vn -0.416956 -0.311562 -0.85386
v -4.05969 -8.47784 -29.9844
vn -0.428228 -0.399024 -0.810802
v -4.06269 -8.51294 -29.963
vn -0.435376 -0.482643 -0.759937
v -4.06393 -8.5461 -29.9386
vn -0.43833 -0.561614 -0.701752
v -4.0634 -8.57699 -29.9113
vn -0.437064 -0.635176 -0.63681
v -4.0611 -8.6053 -29.8815
vn -0.431588 -0.702621 -0.565734
v -4.05706 -8.63078 -29.8493
vn -0.421956 -0.7633 -0.48921
v -4.05131 -8.65317 -29.8152
vn -0.40826 -0.816627 -0.407975
v -4.0439 -8.67226 -29.7795
vn -0.390632 -0.86209 -0.322811
v -4.03492 -8.68786 -29.7424
vn -0.369243 -0.899251 -0.234538
v -4.02445 -8.69982 -29.7044
vn -0.344297 -0.927751 -0.144006
v -4.01258 -8.70804 -29.6658
vn -0.316036 -0.947316 -0.0520878
v -3.99944 -8.71242 -29.627
vn -0.284731 -0.957759 0.0403325
v -3.98515 -8.71294 -29.5884
vn -0.250683 -0.958977 0.132364
v -3.96984 -8.70957 -29.5503
vn -0.214222 -0.95096 0.223121
v -3.95366 -8.70236 -29.5131
vn -0.175698 -0.933785 0.31173
v -3.93678 -8.69137 -29.4771
vn -0.135481 -0.907617 0.397336
v -3.91934 -8.67671 -29.4428
vn -0.09396 -0.872708 0.479115
v -3.90153 -8.65853 -29.4104
vn -0.0515338 -0.829395 0.556281
v -3.88351 -8.63699 -29.3802
vn -0.00861139 -0.778094 0.628089
v -3.86545 -8.61231 -29.3526
vn 0.034394 -0.719299 0.693848
v -3.84754 -8.58471 -29.3278
vn 0.0770681 -0.653578 0.752926
v -3.82993 -8.55448 -29.3061
vn 0.119 -0.581561 0.804752
v -3.81281 -8.52189 -29.2876
vn 0.159786 -0.503945 0.848828
v -3.79633 -8.48726 -29.2725
vn 0.199033 -0.421475 0.884729
v -3.78066 -8.45093 -29.261
vn 0.236363 -0.334945 0.91211
v -3.76594 -8.41325 -29.2532
vn 0.271417 -0.245191 0.930706
v -3.75232 -8.37457 -29.2491
vn 0.303857 -0.153074 0.94034
v -3.73993 -8.33528 -29.2489
vn 0.333371 -0.0594841 0.940917
v -3.72888 -8.29574 -29.2525
vn 0.359674 0.0346791 0.932433
v -3.71929 -8.25635 -29.2598
vn 0.382514 0.128508 0.914969
v -3.71125 -8.21747 -29.2708
vn 0.401669 0.2211 0.888694
v -2.02664 -8.71805 -29.9434
vn 0.452958 0.299931 0.839566
v -2.02189 -8.68055 -29.9619
vn 0.464057 0.387448 0.796577
v -2.01905 -8.64464 -29.9836
vn 0.470686 0.471235 0.745917
v -2.01815 -8.61068 -30.0084
vn 0.472782 0.550483 0.688074
v -2.0192 -8.57899 -30.036
vn 0.470325 0.62443 0.623604
v -2.02219 -8.54988 -30.0662
vn 0.463339 0.692363 0.553128
v -2.0271 -8.52362 -30.0987
vn 0.451891 0.753628 0.477325
v -2.03387 -8.50048 -30.1331
vn 0.43609 0.807636 0.396926
v -2.04244 -8.48067 -30.1692
vn 0.41609 0.853865 0.312704
v -2.05273 -8.46438 -30.2066
vn 0.392082 0.891872 0.22547
v -2.06464 -8.45177 -30.2449
vn 0.364299 0.921289 0.136065
v -2.07805 -8.44297 -30.2838
vn 0.333007 0.941833 0.0453496
v -2.09283 -8.43805 -30.3229
vn 0.298508 0.953307 -0.0458026
v -2.10885 -8.43707 -30.3617
vn 0.261134 0.955601 -0.136514
v -2.12594 -8.44003 -30.4
vn 0.221246 0.948691 -0.22591
v -2.14395 -8.44691 -30.4374
vn 0.179227 0.932645 -0.313131
v -2.1627 -8.45763 -30.4735
vn 0.135481 0.907617 -0.397336
v -2.182 -8.4721 -30.508
vn 0.0904311 0.873849 -0.477714
v -2.20168 -8.49018 -30.5404
vn 0.0445102 0.831664 -0.553492
v -2.22154 -8.51169 -30.5706
vn -0.00183948 0.78147 -0.62394
v -2.2414 -8.53643 -30.5982
vn -0.0481714 0.723751 -0.688378
v -2.26106 -8.56415 -30.623
vn -0.0940394 0.659061 -0.746187
v -2.28032 -8.59459 -30.6447
vn -0.139002 0.588024 -0.79681
v -2.29902 -8.62746 -30.6631
vn -0.182625 0.511324 -0.839759
v -2.31696 -8.66244 -30.6781
vn -0.22449 0.429699 -0.874621
v -2.33398 -8.69919 -30.6894
vn -0.264193 0.343937 -0.90106
v -2.3499 -8.73737 -30.697
vn -0.301352 0.254862 -0.918821
v -2.36458 -8.77659 -30.7008
vn -0.335608 0.163333 -0.927734
v -2.37788 -8.81649 -30.7008
vn -0.366633 0.0702304 -0.927711
v -2.38966 -8.85668 -30.697
vn -0.394126 -0.0235482 -0.918755
v -2.39981 -8.89677 -30.6893
vn -0.417824 -0.1171 -0.90095
v -2.40824 -8.93638 -30.678
vn -0.437498 -0.209524 -0.874469
v -2.41487 -8.97512 -30.663
vn -0.452958 -0.299931 -0.839566
v -2.41963 -9.01263 -30.6446
vn -0.464057 -0.387448 -0.796577
v -2.42247 -9.04853 -30.6229
vn -0.470686 -0.471235 -0.745917
v -2.42337 -9.0825 -30.5981
vn -0.472782 -0.550483 -0.688074
v -2.42231 -9.11419 -30.5705
vn -0.470325 -0.62443 -0.623604
v -2.41932 -9.1433 -30.5403
vn -0.463339 -0.692363 -0.553128
v -2.41441 -9.16955 -30.5078
vn -0.451891 -0.753628 -0.477325
v -2.40764 -9.1927 -30.4733
vn -0.43609 -0.807636 -0.396926
v -2.39907 -9.21251 -30.4372
vn -0.41609 -0.853865 -0.312704
v -2.38878 -9.2288 -30.3999
vn -0.392082 -0.891872 -0.22547
v -2.37688 -9.2414 -30.3615
vn -0.364299 -0.921289 -0.136065
v -2.36347 -9.25021 -30.3227
vn -0.333007 -0.941833 -0.0453496
v -2.34868 -9.25512 -30.2836
vn -0.298508 -0.953307 0.0458026
v -2.33266 -9.25611 -30.2447
vn -0.261134 -0.955601 0.136514
v -2.31557 -9.25315 -30.2064
vn -0.221246 -0.948691 0.22591
v -2.29756 -9.24627 -30.169
vn -0.179227 -0.932645 0.313131
v -2.27882 -9.23554 -30.133
vn -0.135481 -0.907617 0.397336
v -2.25951 -9.22107 -30.0985
vn -0.0904311 -0.873849 0.477714
v -2.23983 -9.20299 -30.066
vn -0.0445102 -0.831664 0.553492
v -2.21997 -9.18148 -30.0358
vn 0.00183948 -0.78147 0.62394
v -2.20011 -9.15675 -30.0082
vn 0.0481714 -0.723751 0.688378
v -2.18046 -9.12903 -29.9835
vn 0.0940394 -0.659061 0.746187
v -2.16119 -9.09858 -29.9618
vn 0.139002 -0.588024 0.79681
v -2.14249 -9.06571 -29.9434
vn 0.182625 -0.511324 0.839759
v -2.12455 -9.03073 -29.9284
vn 0.22449 -0.429699 0.874621
v -2.10754 -8.99398 -29.9171
vn 0.264193 -0.343937 0.90106
v -2.09161 -8.95581 -29.9095
vn 0.301352 -0.254862 0.918821
v -2.07693 -8.91658 -29.9057
vn 0.335608 -0.163333 0.927734
v -2.06364 -8.87668 -29.9057
vn 0.366633 -0.0702304 0.927711
v -2.05185 -8.8365 -29.9095
vn 0.394126 0.0235482 0.918755
v -2.0417 -8.7964 -29.9171
vn 0.417824 0.1171 0.90095
v -2.03327 -8.7568 -29.9285
vn 0.437498 0.209524 0.874469
v -0.334244 -9.29516 -30.6846
vn 0.486251 0.288505 0.824818
v -0.329461 -9.25687 -30.7034
vn 0.497189 0.376078 0.781901
v -0.326772 -9.22016 -30.7255
vn 0.503339 0.460029 0.731453
v -0.326203 -9.18539 -30.7506
vn 0.504641 0.539549 0.673961
v -0.327758 -9.15289 -30.7786
vn 0.501084 0.613874 0.609979
v -0.331424 -9.12298 -30.8091
vn 0.4927 0.682286 0.540122
v -0.337164 -9.09594 -30.8419
vn 0.479572 0.744128 0.465063
v -0.344924 -9.07204 -30.8767
vn 0.461825 0.798804 0.385526
v -0.354628 -9.05149 -30.9131
vn 0.439631 0.845786 0.302276
v -0.366183 -9.03451 -30.9508
vn 0.413203 0.884623 0.216114
v -0.379479 -9.02126 -30.9894
vn 0.382795 0.914941 0.127872
v -0.394386 -9.01185 -31.0285
vn 0.348701 0.936447 0.0383977
v -0.410762 -9.00639 -31.0678
vn 0.311248 0.948935 -0.0514462
v -0.428448 -9.00493 -31.1068
vn 0.270799 0.952284 -0.140795
v -0.447274 -9.00747 -31.1453
vn 0.227741 0.946462 -0.228787
v -0.46706 -9.01401 -31.1828
vn 0.18249 0.931525 -0.314576
v -0.487614 -9.02446 -31.219
vn 0.135481 0.907617 -0.397336
v -0.508738 -9.03873 -31.2535
vn 0.0871679 0.874968 -0.476269
v -0.53023 -9.05669 -31.286
vn 0.0380151 0.833893 -0.550615
v -0.551881 -9.07816 -31.3162
vn -0.0115038 0.784787 -0.619659
v -0.573484 -9.10294 -31.3438
vn -0.0609119 0.728123 -0.682735
v -0.594831 -9.13078 -31.3685
vn -0.109733 0.664447 -0.739235
v -0.615715 -9.16142 -31.3901
vn -0.157498 0.594371 -0.788617
v -0.635937 -9.19456 -31.4084
vn -0.203746 0.518572 -0.830404
v -0.6553 -9.22989 -31.4231
vn -0.248032 0.437779 -0.864193
v -0.673619 -9.26706 -31.4343
vn -0.289929 0.352769 -0.88966
v -0.690717 -9.30571 -31.4417
vn -0.329034 0.264362 -0.906559
v -0.70643 -9.34548 -31.4452
vn -0.36497 0.173409 -0.914727
v -0.720606 -9.38598 -31.4449
vn -0.397391 0.0807864 -0.914086
v -0.733108 -9.42682 -31.4408
vn -0.425985 -0.0126145 -0.904642
v -0.743817 -9.4676 -31.4329
vn -0.450477 -0.105894 -0.886486
v -0.752629 -9.50794 -31.4212
vn -0.47063 -0.198154 -0.859792
v -0.759459 -9.54745 -31.4059
vn -0.486251 -0.288505 -0.824818
v -0.764241 -9.58574 -31.3872
vn -0.497189 -0.376078 -0.781901
v -0.76693 -9.62245 -31.3651
vn -0.503339 -0.460029 -0.731453
v -0.7675 -9.65721 -31.34
vn -0.504641 -0.539549 -0.673961
v -0.765944 -9.68971 -31.312
vn -0.501084 -0.613874 -0.609979
v -0.762279 -9.71963 -31.2814
vn -0.4927 -0.682286 -0.540122
v -0.756539 -9.74666 -31.2486
vn -0.479572 -0.744128 -0.465063
v -0.748779 -9.77057 -31.2138
vn -0.461825 -0.798804 -0.385526
v -0.739075 -9.79111 -31.1774
vn -0.439631 -0.845786 -0.302276
v -0.727519 -9.80809 -31.1398
vn -0.413203 -0.884623 -0.216114
v -0.714224 -9.82135 -31.1012
vn -0.382795 -0.914941 -0.127872
v -0.699317 -9.83075 -31.0621
vn -0.348701 -0.936447 -0.0383977
v -0.682941 -9.83621 -31.0228
vn -0.311248 -0.948935 0.0514462
v -0.665255 -9.83768 -30.9837
vn -0.270799 -0.952284 0.140795
v -0.646428 -9.83513 -30.9452
vn -0.227741 -0.946462 0.228787
v -0.626643 -9.8286 -30.9077
vn -0.18249 -0.931525 0.314576
v -0.606089 -9.81815 -30.8715
vn -0.135481 -0.907617 0.397336
v -0.584964 -9.80387 -30.837
vn -0.0871679 -0.874968 0.476269
v -0.563473 -9.78591 -30.8045
vn -0.0380151 -0.833893 0.550615
v -0.541821 -9.76444 -30.7743
vn 0.0115038 -0.784787 0.619659
v -0.520218 -9.73967 -30.7468
vn 0.0609119 -0.728123 0.682735
v -0.498872 -9.71182 -30.7221
vn 0.109733 -0.664447 0.739235
v -0.477987 -9.68119 -30.7005
vn 0.157498 -0.594371 0.788617
v -0.457766 -9.64804 -30.6822
vn 0.203746 -0.518572 0.830404
v -0.438402 -9.61272 -30.6674
vn 0.248032 -0.437779 0.864193
v -0.420083 -9.57555 -30.6563
vn 0.289929 -0.352769 0.88966
v -0.402985 -9.53689 -30.6489
vn 0.329034 -0.264362 0.906559
v -0.387273 -9.49712 -30.6453
vn 0.36497 -0.173409 0.914727
v -0.373097 -9.45663 -30.6456
vn 0.397391 -0.0807864 0.914086
v -0.360594 -9.41579 -30.6497
vn 0.425985 0.0126145 0.904642
v -0.349886 -9.375 -30.6577
vn 0.450477 0.105894 0.886486
v -0.341074 -9.33466 -30.6693
vn 0.47063 0.198154 0.859792
v 1.37236 -9.91077 -31.5089
vn 0.51698 0.277352 0.809819
v 1.37717 -9.8717 -31.528
vn 0.52777 0.364978 0.766974
v 1.37971 -9.83419 -31.5504
vn 0.533478 0.44909 0.716743
v 1.37997 -9.79861 -31.5759
vn 0.534047 0.528876 0.659608
v 1.37793 -9.7653 -31.6042
vn 0.529474 0.60357 0.596122
v 1.37361 -9.73458 -31.6351
vn 0.519801 0.67245 0.526894
v 1.36707 -9.70676 -31.6682
vn 0.505123 0.734855 0.452592
v 1.35835 -9.68208 -31.7033
vn 0.485579 0.790182 0.373932
v 1.34755 -9.66081 -31.74
vn 0.46136 0.8379 0.29167
v 1.33477 -9.64313 -31.7779
vn 0.432697 0.877548 0.206599
v 1.32013 -9.62921 -31.8168
vn 0.399867 0.908745 0.119539
v 1.30378 -9.61921 -31.8561
vn 0.363187 0.93119 0.0313274
v 1.28586 -9.6132 -31.8956
vn 0.323008 0.944667 -0.0571859
v 1.26655 -9.61124 -31.9348
vn 0.279719 0.949047 -0.145148
v 1.24605 -9.61337 -31.9734
vn 0.233736 0.944286 -0.231713
v 1.22454 -9.61954 -32.011
vn 0.185502 0.930432 -0.316046
v 1.20223 -9.62972 -32.0472
vn 0.135481 0.907617 -0.397336
v 1.17935 -9.64379 -32.0818
vn 0.0841559 0.876062 -0.474799
v 1.1561 -9.66162 -32.1143
vn 0.0320201 0.836069 -0.547689
v 1.13271 -9.68305 -32.1444
vn -0.020424 0.788025 -0.615305
v 1.10941 -9.70786 -32.172
vn -0.0726714 0.732391 -0.676995
v 1.08643 -9.73581 -32.1966
vn -0.124219 0.669704 -0.732165
v 1.06397 -9.76664 -32.218
vn -0.17457 0.600568 -0.780284
v 1.04227 -9.80005 -32.2361
vn -0.22324 0.525648 -0.820889
v 1.02153 -9.83572 -32.2507
vn -0.26976 0.445665 -0.853588
v 1.00194 -9.8733 -32.2616
vn -0.313683 0.361391 -0.878066
v 0.9837 -9.91243 -32.2688
vn -0.354584 0.273636 -0.894088
v 0.966984 -9.95274 -32.2721
vn -0.39207 0.183245 -0.9015
v 0.951951 -9.99383 -32.2715
vn -0.425781 0.0910905 -0.900229
v 0.938747 -10.0353 -32.2671
vn -0.455391 -0.00194163 -0.890289
v 0.927499 -10.0768 -32.2588
vn -0.480615 -0.0949551 -0.871775
v 0.918315 -10.1179 -32.2468
vn -0.501211 -0.187054 -0.844866
v 0.911283 -10.1581 -32.2312
vn -0.51698 -0.277352 -0.809819
v 0.906471 -10.1972 -32.2121
vn -0.52777 -0.364978 -0.766974
v 0.903926 -10.2347 -32.1897
vn -0.533478 -0.44909 -0.716743
v 0.903672 -10.2703 -32.1642
vn -0.534047 -0.528876 -0.659608
v 0.905712 -10.3036 -32.1359
vn -0.529474 -0.60357 -0.596122
v 0.910025 -10.3343 -32.105
vn -0.519801 -0.67245 -0.526894
v 0.916571 -10.3621 -32.0719
vn -0.505123 -0.734855 -0.452592
v 0.925286 -10.3868 -32.0368
vn -0.485579 -0.790182 -0.373932
v 0.936086 -10.4081 -32.0001
vn -0.46136 -0.8379 -0.29167
v 0.948867 -10.4258 -31.9622
vn -0.432697 -0.877548 -0.206599
v 0.963507 -10.4397 -31.9234
vn -0.399867 -0.908745 -0.119539
v 0.979864 -10.4497 -31.884
vn -0.363187 -0.93119 -0.0313274
v 0.997781 -10.4557 -31.8446
vn -0.323008 -0.944667 0.0571859
v 1.01708 -10.4577 -31.8053
vn -0.279719 -0.949047 0.145148
v 1.03759 -10.4555 -31.7667
vn -0.233736 -0.944286 0.231713
v 1.0591 -10.4494 -31.7291
vn -0.185502 -0.930432 0.316046
v 1.0814 -10.4392 -31.6929
vn -0.135481 -0.907617 0.397336
v 1.10429 -10.4251 -31.6583
vn -0.0841559 -0.876062 0.474799
v 1.12754 -10.4073 -31.6258
vn -0.0320201 -0.836069 0.547689
v 1.15093 -10.3859 -31.5957
vn 0.020424 -0.788025 0.615305
v 1.17423 -10.361 -31.5682
vn 0.0726714 -0.732391 0.676995
v 1.19721 -10.3331 -31.5436
vn 0.124219 -0.669704 0.732165
v 1.21967 -10.3023 -31.5221
vn 0.17457 -0.600568 0.780284
v 1.24137 -10.2689 -31.504
vn 0.22324 -0.525648 0.820889
v 1.26211 -10.2332 -31.4894
vn 0.26976 -0.445665 0.853588
v 1.2817 -10.1956 -31.4785
vn 0.313683 -0.361391 0.878066
v 1.29994 -10.1565 -31.4714
vn 0.354584 -0.273636 0.894088
v 1.31666 -10.1162 -31.4681
vn 0.39207 -0.183245 0.9015
v 1.33169 -10.0751 -31.4686
vn 0.425781 -0.0910905 0.900229
v 1.34489 -10.0336 -31.4731
vn 0.455391 0.00194163 0.890289
v 1.35614 -9.99211 -31.4813
vn 0.480615 0.0949551 0.871775
v 1.36532 -9.95104 -31.4933
vn 0.501211 0.187054 0.844866
v 3.09316 -10.5649 -32.4163
vn 0.545307 0.266521 0.794737
v 3.09801 -10.525 -32.4358
vn 0.55596 0.354199 0.751965
v 3.10042 -10.4867 -32.4585
vn 0.56126 0.438467 0.70195
v 3.10037 -10.4503 -32.4843
vn 0.561154 0.518512 0.645176
v 3.09786 -10.4162 -32.5129
vn 0.555644 0.593563 0.582188
v 3.09293 -10.3847 -32.5441
vn 0.544783 0.662898 0.513593
v 3.0856 -10.356 -32.5776
vn 0.528675 0.725849 0.440052
v 3.07597 -10.3306 -32.6129
vn 0.507476 0.78181 0.362273
v 3.06411 -10.3086 -32.6499
vn 0.48139 0.830241 0.281005
v 3.05014 -10.2902 -32.688
vn 0.450667 0.870677 0.197031
v 3.0342 -10.2756 -32.7271
vn 0.415605 0.902727 0.11116
v 3.01644 -10.265 -32.7666
vn 0.37654 0.926084 0.0242176
v 2.99703 -10.2584 -32.8062
vn 0.333848 0.940522 -0.0629577
v 2.97616 -10.256 -32.8456
vn 0.287942 0.945902 -0.149527
v 2.95403 -10.2577 -32.8843
vn 0.239262 0.942173 -0.234656
v 2.93085 -10.2635 -32.922
vn 0.188278 0.92937 -0.317525
v 2.90685 -10.2734 -32.9582
vn 0.135481 0.907617 -0.397336
v 2.88225 -10.2873 -32.9928
vn 0.0813794 0.877123 -0.47332
v 2.8573 -10.305 -33.0253
vn 0.0264939 0.838182 -0.544747
v 2.83223 -10.3263 -33.0553
vn -0.0286468 0.791169 -0.610927
v 2.80729 -10.3512 -33.0828
vn -0.0835116 0.736536 -0.671223
v 2.78271 -10.3792 -33.1072
vn -0.137572 0.67481 -0.725055
v 2.75874 -10.4103 -33.1285
vn -0.190308 0.606585 -0.771905
v 2.7356 -10.4439 -33.1465
vn -0.241211 0.532519 -0.811321
v 2.71351 -10.4799 -33.1608
vn -0.28979 0.453324 -0.842923
v 2.6927 -10.5179 -33.1715
vn -0.33558 0.369763 -0.866407
v 2.67335 -10.5575 -33.1784
vn -0.378137 0.282641 -0.881548
v 2.65566 -10.5984 -33.1814
vn -0.417052 0.192798 -0.888198
v 2.63979 -10.6401 -33.1805
vn -0.451951 0.101097 -0.886295
v 2.6259 -10.6822 -33.1758
vn -0.482498 0.00842304 -0.875857
v 2.61413 -10.7244 -33.1672
vn -0.508398 -0.0843322 -0.856983
v 2.60458 -10.7662 -33.1549
vn -0.529402 -0.176275 -0.829856
v 2.59735 -10.8072 -33.1389
vn -0.545307 -0.266521 -0.794737
v 2.59251 -10.8471 -33.1195
vn -0.55596 -0.354199 -0.751965
v 2.5901 -10.8854 -33.0967
vn -0.56126 -0.438467 -0.70195
v 2.59014 -10.9218 -33.0709
vn -0.561154 -0.518512 -0.645176
v 2.59265 -10.9559 -33.0423
vn -0.555644 -0.593563 -0.582188
v 2.59759 -10.9874 -33.0111
vn -0.544783 -0.662898 -0.513593
v 2.60491 -11.016 -32.9777
vn -0.528675 -0.725849 -0.440052
v 2.61455 -11.0415 -32.9423
vn -0.507476 -0.78181 -0.362273
v 2.62641 -11.0635 -32.9054
vn -0.48139 -0.830241 -0.281005
v 2.64037 -11.0819 -32.8672
vn -0.450667 -0.870677 -0.197031
v 2.65631 -11.0964 -32.8281
vn -0.415605 -0.902727 -0.11116
v 2.67407 -11.107 -32.7886
vn -0.37654 -0.926084 -0.0242176
v 2.69348 -11.1136 -32.749
vn -0.333848 -0.940522 0.0629577
v 2.71435 -11.1161 -32.7096
vn -0.287942 -0.945902 0.149527
v 2.73648 -11.1144 -32.6709
vn -0.239262 -0.942173 0.234656
v 2.75966 -11.1085 -32.6333
vn -0.188278 -0.92937 0.317525
v 2.78366 -11.0986 -32.597
vn -0.135481 -0.907617 0.397336
v 2.80826 -11.0848 -32.5624
vn -0.0813794 -0.877123 0.47332
v 2.83321 -11.0671 -32.53
vn -0.0264939 -0.838182 0.544747
v 2.85828 -11.0457 -32.4999
vn 0.0286468 -0.791169 0.610927
v 2.88322 -11.0209 -32.4725
vn 0.0835116 -0.736536 0.671223
v 2.9078 -10.9928 -32.448
vn 0.137572 -0.67481 0.725055
v 2.93177 -10.9618 -32.4267
vn 0.190308 -0.606585 0.771905
v 2.95492 -10.9281 -32.4088
vn 0.241211 -0.532519 0.811321
v 2.977 -10.8921 -32.3944
vn 0.28979 -0.453324 0.842923
v 2.99782 -10.8541 -32.3837
vn 0.33558 -0.369763 0.866407
v 3.01717 -10.8145 -32.3768
vn 0.378137 -0.282641 0.881548
v 3.03486 -10.7737 -32.3738
vn 0.417052 -0.192798 0.888198
v 3.05072 -10.732 -32.3747
vn 0.451951 -0.101097 0.886295
v 3.06461 -10.6899 -32.3794
vn 0.482498 -0.00842304 0.875857
v 3.07638 -10.6477 -32.388
vn 0.508398 0.0843322 0.856983
v 3.08593 -10.6059 -32.4003
vn 0.529402 0.176275 0.829856
f 1 66 2 
f 1 65 66 
f 2 67 3 
f 2 66 67 
f 3 68 4 
f 3 67 68 
f 4 69 5 
f 4 68 69 
f 5 70 6 
f 5 69 70 
f 6 71 7 
f 6 70 71 
f 7 72 8 
f 7 71 72 
f 8 73 9 
f 8 72 73 
f 9 74 10 
f 9 73 74 
f 10 75 11 
f 10 74 75 
f 11 76 12 
f 11 75 76 
f 12 77 13 
f 12 76 77 
f 13 78 14 
f 13 77 78 
f 14 79 15 
f 14 78 79 
f 15 80 16 
f 15 79 80 
f 16 81 17 
f 16 80 81 
f 17 82 18 
f 17 81 82 
f 18 83 19 
f 18 82 83 
f 19 84 20 
f 19 83 84 
f 20 85 21 
f 20 84 85 
f 21 86 22 
f 21 85 86 
f 22 87 23 
f 22 86 87 
f 23 88 24 
f 23 87 88 
f 24 89 25 
f 24 88 89 
f 25 90 26 
f 25 89 90 
f 26 91 27 
f 26 90 91 
f 27 92 28 
f 27 91 92 
f 28 93 29 
f 28 92 93 
f 29 94 30 
f 29 93 94 
f 30 95 31 
f 30 94 95 
f 31 96 32 
f 31 95 96 
f 32 97 33 
f 32 96 97 
f 33 98 34 
f 33 97 98 
f 34 99 35 
f 34 98 99 
f 35 100 36 
f 35 99 100 
f 36 101 37 
f 36 100 101 
f 37 102 38 
f 37 101 102 
f 38 103 39 
f 38 102 103 
f 39 104 40 
f 39 103 104 
f 40 105 41 
f 40 104 105 
f 41 106 42 
f 41 105 106 
f 42 107 43 
f 42 106 107 
f 43 108 44 
f 43 107 108 
f 44 109 45 
f 44 108 109 
f 45 110 46 
f 45 109 110 
f 46 111 47 
f 46 110 111 
f 47 112 48 
f 47 111 112 
f 48 113 49 
f 48 112 113 
f 49 114 50 
f 49 113 114 
f 50 115 51 
f 50 114 115 
f 51 116 52 
f 51 115 116 
f 52 117 53 
f 52 116 117 
f 53 118 54 
f 53 117 118 
f 54 119 55 
f 54 118 119 
f 55 120 56 
f 55 119 120 
f 56 121 57 
f 56 120 121 
f 57 122 58 
f 57 121 122 
f 58 123 59 
f 58 122 123 
f 59 124 60 
f 59 123 124 
f 60 125 61 
f 60 124 125 
f 61 126 62 
f 61 125 126 
f 62 127 63 
f 62 126 127 
f 63 128 64 
f 63 127 128 
f 64 65 1 
f 64 128 65 
f 65 130 66 
f 65 129 130 
f 66 131 67 
f 66 130 131 
f 67 132 68 
f 67 131 132 
f 68 133 69 
f 68 132 133 
f 69 134 70 
f 69 133 134 
f 70 135 71 
f 70 134 135 
f 71 136 72 
f 71 135 136 
f 72 137 73 
f 72 136 137 
f 73 138 74 
f 73 137 138 
f 74 139 75 
f 74 138 139 
f 75 140 76 
f 75 139 140 
f 76 141 77 
f 76 140 141 
f 77 142 78 
f 77 141 142 
f 78 143 79 
f 78 142 143 
f 79 144 80 
f 79 143 144 
f 80 145 81 
f 80 144 145 
f 81 146 82 
f 81 145 146 
f 82 147 83 
f 82 146 147 
f 83 148 84 
f 83 147 148 
f 84 149 85 
f 84 148 149 
f 85 150 86 
f 85 149 150 
f 86 151 87 
f 86 150 151 
f 87 152 88 
f 87 151 152 
f 88 153 89 
f 88 152 153 
f 89 154 90 
f 89 153 154 
f 90 155 91 
f 90 154 155 
f 91 156 92 
f 91 155 156 
f 92 157 93 
f 92 156 157 
f 93 158 94 
f 93 157 158 
f 94 159 95 
f 94 158 159 
f 95 160 96 
f 95 159 160 
f 96 161 97 
f 96 160 161 
f 97 162 98 
f 97 161 162 
f 98 163 99 
f 98 162 163 
f 99 164 100 
f 99 163 164 
f 100 165 101 
f 100 164 165 
f 101 166 102 
f 101 165 166 
f 102 167 103 
f 102 166 167 
f 103 168 104 
f 103 167 168 
f 104 169 105 
f 104 168 169 
f 105 170 106 
f 105 169 170 
f 106 171 107 
f 106 170 171 
f 107 172 108 
f 107 171 172 
f 108 173 109 
f 108 172 173 
f 109 174 110 
f 109 173 174 
f 110 175 111 
f 110 174 175 
f 111 176 112 
f 111 175 176 
f 112 177 113 
f 112 176 177 
f 113 178 114 
f 113 177 178 
f 114 179 115 
f 114 178 179 
f 115 180 116 
f 115 179 180 
f 116 181 117 
f 116 180 181 
f 117 182 118 
f 117 181 182 
f 118 183 119 
f 118 182 183 
f 119 184 120 
f 119 183 184 
f 120 185 121 
f 120 184 185 
f 121 186 122 
f 121 185 186 
f 122 187 123 
f 122 186 187 
f 123 188 124 
f 123 187 188 
f 124 189 125 
f 124 188 189 
f 125 190 126 
f 125 189 190 
f 126 191 127 
f 126 190 191 
f 127 192 128 
f 127 191 192 
f 128 129 65 
f 128 192 129 
f 129 194 130 
f 129 193 194 
f 130 195 131 
f 130 194 195 
f 131 196 132 
f 131 195 196 
f 132 197 133 
f 132 196 197 
f 133 198 134 
f 133 197 198 
f 134 199 135 
f 134 198 199 
f 135 200 136 
f 135 199 200 
f 136 201 137 
f 136 200 201 
f 137 202 138 
f 137 201 202 
f 138 203 139 
f 138 202 203 
f 139 204 140 
f 139 203 204 
f 140 205 141 
f 140 204 205 
f 141 206 142 
f 141 205 206 
f 142 207 143 
f 142 206 207 
f 143 208 144 
f 143 207 208 
f 144 209 145 
f 144 208 209 
f 145 210 146 
f 145 209 210 
f 146 211 147 
f 146 210 211 
f 147 212 148 
f 147 211 212 
f 148 213 149 
f 148 212 213 
f 149 214 150 
f 149 213 214 
f 150 215 151 
f 150 214 215 
f 151 216 152 
f 151 215 216 
f 152 217 153 
f 152 216 217 
f 153 218 154 
f 153 217 218 
f 154 219 155 
f 154 218 219 
f 155 220 156 
f 155 219 220 
f 156 221 157 
f 156 220 221 
f 157 222 158 
f 157 221 222 
f 158 223 159 
f 158 222 223 
f 159 224 160 
f 159 223 224 
f 160 225 161 
f 160 224 225 
f 161 226 162 
f 161 225 226 
f 162 227 163 
f 162 226 227 
f 163 228 164 
f 163 227 228 
f 164 229 165 
f 164 228 229 
f 165 230 166 
f 165 229 230 
f 166 231 167 
f 166 230 231 
f 167 232 168 
f 167 231 232 
f 168 233 169 
f 168 232 233 
f 169 234 170 
f 169 233 234 
f 170 235 171 
f 170 234 235 
f 171 236 172 
f 171 235 236 
f 172 237 173 
f 172 236 237 
f 173 238 174 
f 173 237 238 
f 174 239 175 
f 174 238 239 
f 175 240 176 
f 175 239 240 
f 176 241 177 
f 176 240 241 
f 177 242 178 
f 177 241 242 
f 178 243 179 
f 178 242 243 
f 179 244 180 
f 179 243 244 
f 180 245 181 
f 180 244 245 
f 181 246 182 
f 181 245 246 
f 182 247 183 
f 182 246 247 
f 183 248 184 
f 183 247 248 
f 184 249 185 
f 184 248 249 
f 185 250 186 
f 185 249 250 
f 186 251 187 
f 186 250 251 
f 187 252 188 
f 187 251 252 
f 188 253 189 
f 188 252 253 
f 189 254 190 
f 189 253 254 
f 190 255 191 
f 190 254 255 
f 191 256 192 
f 191 255 256 
f 192 193 129 
f 192 256 193 
f 193 258 194 
f 193 257 258 
f 194 259 195 
f 194 258 259 
f 195 260 196 
f 195 259 260 
f 196 261 197 
f 196 260 261 
f 197 262 198 
f 197 261 262 
f 198 263 199 
f 198 262 263 
f 199 264 200 
f 199 263 264 
f 200 265 201 
f 200 264 265 
f 201 266 202 
f 201 265 266 
f 202 267 203 
f 202 266 267 
f 203 268 204 
f 203 267 268 
f 204 269 205 
f 204 268 269 
f 205 270 206 
f 205 269 270 
f 206 271 207 
f 206 270 271 
f 207 272 208 
f 207 271 272 
f 208 273 209 
f 208 272 273 
f 209 274 210 
f 209 273 274 
f 210 275 211 
f 210 274 275 
f 211 276 212 
f 211 275 276 
f 212 277 213 
f 212 276 277 
f 213 278 214 
f 213 277 278 
f 214 279 215 
f 214 278 279 
f 215 280 216 
f 215 279 280 
f 216 281 217 
f 216 280 281 
f 217 282 218 
f 217 281 282 
f 218 283 219 
f 218 282 283 
f 219 284 220 
f 219 283 284 
f 220 285 221 
f 220 284 285 
f 221 286 222 
f 221 285 286 
f 222 287 223 
f 222 286 287 
f 223 288 224 
f 223 287 288 
f 224 289 225 
f 224 288 289 
f 225 290 226 
f 225 289 290 
f 226 291 227 
f 226 290 291 
f 227 292 228 
f 227 291 292 
f 228 293 229 
f 228 292 293 
f 229 294 230 
f 229 293 294 
f 230 295 231 
f 230 294 295 
f 231 296 232 
f 231 295 296 
f 232 297 233 
f 232 296 297 
f 233 298 234 
f 233 297 298 
f 234 299 235 
f 234 298 299 
f 235 300 236 
f 235 299 300 
f 236 301 237 
f 236 300 301 
f 237 302 238 
f 237 301 302 
f 238 303 239 
f 238 302 303 
f 239 304 240 
f 239 303 304 
f 240 305 241 
f 240 304 305 
f 241 306 242 
f 241 305 306 
f 242 307 243 
f 242 306 307 
f 243 308 244 
f 243 307 308 
f 244 309 245 
f 244 308 309 
f 245 310 246 
f 245 309 310 
f 246 311 247 
f 246 310 311 
f 247 312 248 
f 247 311 312 
f 248 313 249 
f 248 312 313 
f 249 314 250 
f 249 313 314 
f 250 315 251 
f 250 314 315 
f 251 316 252 
f 251 315 316 
f 252 317 253 
f 252 316 317 
f 253 318 254 
f 253 317 318 
f 254 319 255 
f 254 318 319 
f 255 320 256 
f 255 319 320 
f 256 257 193 
f 256 320 257 
f 257 322 258 
f 257 321 322 
f 258 323 259 
f 258 322 323 
f 259 324 260 
f 259 323 324 
f 260 325 261 
f 260 324 325 
f 261 326 262 
f 261 325 326 
f 262 327 263 
f 262 326 327 
f 263 328 264 
f 263 327 328 
f 264 329 265 
f 264 328 329 
f 265 330 266 
f 265 329 330 
f 266 331 267 
f 266 330 331 
f 267 332 268 
f 267 331 332 
f 268 333 269 
f 268 332 333 
f 269 334 270 
f 269 333 334 
f 270 335 271 
f 270 334 335 
f 271 336 272 
f 271 335 336 
f 272 337 273 
f 272 336 337 
f 273 338 274 
f 273 337 338 
f 274 339 275 
f 274 338 339 
f 275 340 276 
f 275 339 340 
f 276 341 277 
f 276 340 341 
f 277 342 278 
f 277 341 342 
f 278 343 279 
f 278 342 343 
f 279 344 280 
f 279 343 344 
f 280 345 281 
f 280 344 345 
f 281 346 282 
f 281 345 346 
f 282 347 283 
f 282 346 347 
f 283 348 284 
f 283 347 348 
f 284 349 285 
f 284 348 349 
f 285 350 286 
f 285 349 350 
f 286 351 287 
f 286 350 351 
f 287 352 288 
f 287 351 352 
f 288 353 289 
f 288 352 353 
f 289 354 290 
f 289 353 354 
f 290 355 291 
f 290 354 355 
f 291 356 292 
f 291 355 356 
f 292 357 293 
f 292 356 357 
f 293 358 294 
f 293 357 358 
f 294 359 295 
f 294 358 359 
f 295 360 296 
f 295 359 360 
f 296 361 297 
f 296 360 361 
f 297 362 298 
f 297 361 362 
f 298 363 299 
f 298 362 363 
f 299 364 300 
f 299 363 364 
f 300 365 301 
f 300 364 365 
f 301 366 302 
f 301 365 366 
f 302 367 303 
f 302 366 367 
f 303 368 304 
f 303 367 368 
f 304 369 305 
f 304 368 369 
f 305 370 306 
f 305 369 370 
f 306 371 307 
f 306 370 371 
f 307 372 308 
f 307 371 372 
f 308 373 309 
f 308 372 373 
f 309 374 310 
f 309 373 374 
f 310 375 311 
f 310 374 375 
f 311 376 312 
f 311 375 376 
f 312 377 313 
f 312 376 377 
f 313 378 314 
f 313 377 378 
f 314 379 315 
f 314 378 379 
f 315 380 316 
f 315 379 380 
f 316 381 317 
f 316 380 381 
f 317 382 318 
f 317 381 382 
f 318 383 319 
f 318 382 383 
f 319 384 320 
f 319 383 384 
f 320 321 257 
f 320 384 321 
f 321 386 322 
f 321 385 386 
f 322 387 323 
f 322 386 387 
f 323 388 324 
f 323 387 388 
f 324 389 325 
f 324 388 389 
f 325 390 326 
f 325 389 390 
f 326 391 327 
f 326 390 391 
f 327 392 328 
f 327 391 392 
f 328 393 329 
f 328 392 393 
f 329 394 330 
f 329 393 394 
f 330 395 331 
f 330 394 395 
f 331 396 332 
f 331 395 396 
f 332 397 333 
f 332 396 397 
f 333 398 334 
f 333 397 398 
f 334 399 335 
f 334 398 399 
f 335 400 336 
f 335 399 400 
f 336 401 337 
f 336 400 401 
f 337 402 338 
f 337 401 402 
f 338 403 339 
f 338 402 403 
f 339 404 340 
f 339 403 404 
f 340 405 341 
f 340 404 405 
f 341 406 342 
f 341 405 406 
f 342 407 343 
f 342 406 407 
f 343 408 344 
f 343 407 408 
f 344 409 345 
f 344 408 409 
f 345 410 346 
f 345 409 410 
f 346 411 347 
f 346 410 411 
f 347 412 348 
f 347 411 412 
f 348 413 349 
f 348 412 413 
f 349 414 350 
f 349 413 414 
f 350 415 351 
f 350 414 415 
f 351 416 352 
f 351 415 416 
f 352 417 353 
f 352 416 417 
f 353 418 354 
f 353 417 418 
f 354 419 355 
f 354 418 419 
f 355 420 356 
f 355 419 420 
f 356 421 357 
f 356 420 421 
f 357 422 358 
f 357 421 422 
f 358 423 359 
f 358 422 423 
f 359 424 360 
f 359 423 424 
f 360 425 361 
f 360 424 425 
f 361 426 362 
f 361 425 426 
f 362 427 363 
f 362 426 427 
f 363 428 364 
f 363 427 428 
f 364 429 365 
f 364 428 429 
f 365 430 366 
f 365 429 430 
f 366 431 367 
f 366 430 431 
f 367 432 368 
f 367 431 432 
f 368 433 369 
f 368 432 433 
f 369 434 370 
f 369 433 434 
f 370 435 371 
f 370 434 435 
f 371 436 372 
f 371 435 436 
f 372 437 373 
f 372 436 437 
f 373 438 374 
f 373 437 438 
f 374 439 375 
f 374 438 439 
f 375 440 376 
f 375 439 440 
f 376 441 377 
f 376 440 441 
f 377 442 378 
f 377 441 442 
f 378 443 379 
f 378 442 443 
f 379 444 380 
f 379 443 444 
f 380 445 381 
f 380 444 445 
f 381 446 382 
f 381 445 446 
f 382 447 383 
f 382 446 447 
f 383 448 384 
f 383 447 448 
f 384 385 321 
f 384 448 385 
f 385 450 386 
f 385 449 450 
f 386 451 387 
f 386 450 451 
f 387 452 388 
f 387 451 452 
f 388 453 389 
f 388 452 453 
f 389 454 390 
f 389 453 454 
f 390 455 391 
f 390 454 455 
f 391 456 392 
f 391 455 456 
f 392 457 393 
f 392 456 457 
f 393 458 394 
f 393 457 458 
f 394 459 395 
f 394 458 459 
f 395 460 396 
f 395 459 460 
f 396 461 397 
f 396 460 461 
f 397 462 398 
f 397 461 462 
f 398 463 399 
f 398 462 463 
f 399 464 400 
f 399 463 464 
f 400 465 401 
f 400 464 465 
f 401 466 402 
f 401 465 466 
f 402 467 403 
f 402 466 467 
f 403 468 404 
f 403 467 468 
f 404 469 405 
f 404 468 469 
f 405 470 406 
f 405 469 470 
f 406 471 407 
f 406 470 471 
f 407 472 408 
f 407 471 472 
f 408 473 409 
f 408 472 473 
f 409 474 410 
f 409 473 474 
f 410 475 411 
f 410 474 475 
f 411 476 412 
f 411 475 476 
f 412 477 413 
f 412 476 477 
f 413 478 414 
f 413 477 478 
f 414 479 415 
f 414 478 479 
f 415 480 416 
f 415 479 480 
f 416 481 417 
f 416 480 481 
f 417 482 418 
f 417 481 482 
f 418 483 419 
f 418 482 483 
f 419 484 420 
f 419 483 484 
f 420 485 421 
f 420 484 485 
f 421 486 422 
f 421 485 486 
f 422 487 423 
f 422 486 487 
f 423 488 424 
f 423 487 488 
f 424 489 425 
f 424 488 489 
f 425 490 426 
f 425 489 490 
f 426 491 427 
f 426 490 491 
f 427 492 428 
f 427 491 492 
f 428 493 429 
f 428 492 493 
f 429 494 430 
f 429 493 494 
f 430 495 431 
f 430 494 495 
f 431 496 432 
f 431 495 496 
f 432 497 433 
f 432 496 497 
f 433 498 434 
f 433 497 498 
f 434 499 435 
f 434 498 499 
f 435 500 436 
f 435 499 500 
f 436 501 437 
f 436 500 501 
f 437 502 438 
f 437 501 502 
f 438 503 439 
f 438 502 503 
f 439 504 440 
f 439 503 504 
f 440 505 441 
f 440 504 505 
f 441 506 442 
f 441 505 506 
f 442 507 443 
f 442 506 507 
f 443 508 444 
f 443 507 508 
f 444 509 445 
f 444 508 509 
f 445 510 446 
f 445 509 510 
f 446 511 447 
f 446 510 511 
f 447 512 448 
f 447 511 512 
f 448 449 385 
f 448 512 449 
f 449 514 450 
f 449 513 514 
f 450 515 451 
f 450 514 515 
f 451 516 452 
f 451 515 516 
f 452 517 453 
f 452 516 517 
f 453 518 454 
f 453 517 518 
f 454 519 455 
f 454 518 519 
f 455 520 456 
f 455 519 520 
f 456 521 457 
f 456 520 521 
f 457 522 458 
f 457 521 522 
f 458 523 459 
f 458 522 523 
f 459 524 460 
f 459 523 524 
f 460 525 461 
f 460 524 525 
f 461 526 462 
f 461 525 526 
f 462 527 463 
f 462 526 527 
f 463 528 464 
f 463 527 528 
f 464 529 465 
f 464 528 529 
f 465 530 466 
f 465 529 530 
f 466 531 467 
f 466 530 531 
f 467 532 468 
f 467 531 532 
f 468 533 469 
f 468 532 533 
f 469 534 470 
f 469 533 534 
f 470 535 471 
f 470 534 535 
f 471 536 472 
f 471 535 536 
f 472 537 473 
f 472 536 537 
f 473 538 474 
f 473 537 538 
f 474 539 475 
f 474 538 539 
f 475 540 476 
f 475 539 540 
f 476 541 477 
f 476 540 541 
f 477 542 478 
f 477 541 542 
f 478 543 479 
f 478 542 543 
f 479 544 480 
f 479 543 544 
f 480 545 481 
f 480 544 545 
f 481 546 482 
f 481 545 546 
f 482 547 483 
f 482 546 547 
f 483 548 484 
f 483 547 548 
f 484 549 485 
f 484 548 549 
f 485 550 486 
f 485 549 550 
f 486 551 487 
f 486 550 551 
f 487 552 488 
f 487 551 552 
f 488 553 489 
f 488 552 553 
f 489 554 490 
f 489 553 554 
f 490 555 491 
f 490 554 555 
f 491 556 492 
f 491 555 556 
f 492 557 493 
f 492 556 557 
f 493 558 494 
f 493 557 558 
f 494 559 495 
f 494 558 559 
f 495 560 496 
f 495 559 560 
f 496 561 497 
f 496 560 561 
f 497 562 498 
f 497 561 562 
f 498 563 499 
f 498 562 563 
f 499 564 500 
f 499 563 564 
f 500 565 501 
f 500 564 565 
f 501 566 502 
f 501 565 566 
f 502 567 503 
f 502 566 567 
f 503 568 504 
f 503 567 568 
f 504 569 505 
f 504 568 569 
f 505 570 506 
f 505 569 570 
f 506 571 507 
f 506 570 571 
f 507 572 508 
f 507 571 572 
f 508 573 509 
f 508 572 573 
f 509 574 510 
f 509 573 574 
f 510 575 511 
f 510 574 575 
f 511 576 512 
f 511 575 576 
f 512 513 449 
f 512 576 513 
f 513 578 514 
f 513 577 578 
f 514 579 515 
f 514 578 579 
f 515 580 516 
f 515 579 580 
f 516 581 517 
f 516 580 581 
f 517 582 518 
f 517 581 582 
f 518 583 519 
f 518 582 583 
f 519 584 520 
f 519 583 584 
f 520 585 521 
f 520 584 585 
f 521 586 522 
f 521 585 586 
f 522 587 523 
f 522 586 587 
f 523 588 524 
f 523 587 588 
f 524 589 525 
f 524 588 589 
f 525 590 526 
f 525 589 590 
f 526 591 527 
f 526 590 591 
f 527 592 528 
f 527 591 592 
f 528 593 529 
f 528 592 593 
f 529 594 530 
f 529 593 594 
f 530 595 531 
f 530 594 595 
f 531 596 532 
f 531 595 596 
f 532 597 533 
f 532 596 597 
f 533 598 534 
f 533 597 598 
f 534 599 535 
f 534 598 599 
f 535 600 536 
f 535 599 600 
f 536 601 537 
f 536 600 601 
f 537 602 538 
f 537 601 602 
f 538 603 539 
f 538 602 603 
f 539 604 540 
f 539 603 604 
f 540 605 541 
f 540 604 605 
f 541 606 542 
f 541 605 606 
f 542 607 543 
f 542 606 607 
f 543 608 544 
f 543 607 608 
f 544 609 545 
f 544 608 609 
f 545 610 546 
f 545 609 610 
f 546 611 547 
f 546 610 611 
f 547 612 548 
f 547 611 612 
f 548 613 549 
f 548 612 613 
f 549 614 550 
f 549 613 614 
f 550 615 551 
f 550 614 615 
f 551 616 552 
f 551 615 616 
f 552 617 553 
f 552 616 617 
f 553 618 554 
f 553 617 618 
f 554 619 555 
f 554 618 619 
f 555 620 556 
f 555 619 620 
f 556 621 557 
f 556 620 621 
f 557 622 558 
f 557 621 622 
f 558 623 559 
f 558 622 623 
f 559 624 560 
f 559 623 624 
f 560 625 561 
f 560 624 625 
f 561 626 562 
f 561 625 626 
f 562 627 563 
f 562 626 627 
f 563 628 564 
f 563 627 628 
f 564 629 565 
f 564 628 629 
f 565 630 566 
f 565 629 630 
f 566 631 567 
f 566 630 631 
f 567 632 568 
f 567 631 632 
f 568 633 569 
f 568 632 633 
f 569 634 570 
f 569 633 634 
f 570 635 571 
f 570 634 635 
f 571 636 572 
f 571 635 636 
f 572 637 573 
f 572 636 637 
f 573 638 574 
f 573 637 638 
f 574 639 575 
f 574 638 639 
f 575 640 576 
f 575 639 640 
f 576 577 513 
f 576 640 577 
