# Branch
v 12.3486 11.5106 -30.8532
vn -0.0933771 0.464428 0.880675
v 12.4618 11.4796 -30.8315
vn -0.000290567 0.438977 0.898498
v 12.5751 11.4435 -30.8204
vn 0.0927988 0.409298 0.907669
v 12.6872 11.4026 -30.8198
vn 0.184994 0.375678 0.908099
v 12.7971 11.3573 -30.8299
vn 0.275408 0.338439 0.899783
v 12.9039 11.3081 -30.8506
vn 0.36317 0.297942 0.882801
v 13.0063 11.2554 -30.8816
vn 0.447434 0.254574 0.857318
v 13.1036 11.1996 -30.9226
vn 0.527389 0.208756 0.823578
v 13.1946 11.1415 -30.9733
vn 0.602265 0.160927 0.781907
v 13.2786 11.0814 -31.0331
vn 0.671341 0.111548 0.732706
v 13.3548 11.0201 -31.1015
vn 0.733952 0.0610943 0.676448
v 13.4223 10.958 -31.1779
vn 0.789494 0.0100527 0.613676
v 13.4806 10.8958 -31.2614
vn 0.837433 -0.0410858 0.544993
v 13.5291 10.8341 -31.3513
vn 0.877307 -0.0918285 0.471063
v 13.5673 10.7735 -31.4467
vn 0.908732 -0.141687 0.392595
v 13.5949 10.7145 -31.5468
vn 0.931406 -0.190181 0.310347
v 13.6116 10.6577 -31.6504
vn 0.945109 -0.236843 0.225109
v 13.6172 10.6038 -31.7567
vn 0.949711 -0.281225 0.137704
v 13.6116 10.5531 -31.8646
vn 0.945166 -0.322898 0.0489728
v 13.595 10.5062 -31.9731
vn 0.931519 -0.361461 -0.0402302
v 13.5675 10.4635 -32.0811
vn 0.908901 -0.396543 -0.129046
v 13.5294 10.4255 -32.1876
vn 0.877529 -0.427807 -0.216618
v 13.481 10.3925 -32.2916
vn 0.837707 -0.45495 -0.302105
v 13.4227 10.3648 -32.392
vn 0.789817 -0.477712 -0.384682
v 13.3552 10.3427 -32.4879
vn 0.734321 -0.495873 -0.463555
v 13.2791 10.3264 -32.5784
vn 0.671752 -0.509259 -0.537963
v 13.1952 10.3161 -32.6626
vn 0.602715 -0.51774 -0.60719
v 13.1042 10.3119 -32.7397
vn 0.527873 -0.521236 -0.67057
v 13.007 10.3137 -32.8089
vn 0.447947 -0.519711 -0.727492
v 12.9045 10.3217 -32.8696
vn 0.363707 -0.513181 -0.777407
v 12.7978 10.3356 -32.9212
vn 0.275965 -0.50171 -0.819836
v 12.6879 10.3554 -32.9632
vn 0.185564 -0.485406 -0.854369
v 12.5758 10.381 -32.9952
vn 0.0933771 -0.464428 -0.880675
v 12.4626 10.4119 -33.0169
vn 0.000290567 -0.438977 -0.898498
v 12.3493 10.448 -33.028
vn -0.0927988 -0.409298 -0.907669
v 12.2372 10.4889 -33.0286
vn -0.184994 -0.375678 -0.908099
v 12.1273 10.5342 -33.0184
vn -0.275408 -0.338439 -0.899783
v 12.0205 10.5834 -32.9978
vn -0.36317 -0.297942 -0.882801
v 11.9181 10.6362 -32.9668
vn -0.447434 -0.254574 -0.857318
v 11.8208 10.6919 -32.9258
vn -0.527389 -0.208756 -0.823578
v 11.7298 10.7501 -32.8751
vn -0.602265 -0.160927 -0.781907
v 11.6458 10.8101 -32.8153
vn -0.671341 -0.111548 -0.732706
v 11.5696 10.8715 -32.7468
vn -0.733952 -0.0610943 -0.676448
v 11.5021 10.9335 -32.6705
vn -0.789494 -0.0100527 -0.613676
v 11.4438 10.9957 -32.587
vn -0.837433 0.0410858 -0.544993
v 11.3953 11.0574 -32.4971
vn -0.877307 0.0918285 -0.471063
v 11.3571 11.1181 -32.4016
vn -0.908732 0.141687 -0.392595
v 11.3295 11.177 -32.3016
vn -0.931406 0.190181 -0.310347
v 11.3128 11.2338 -32.198
vn -0.945109 0.236843 -0.225109
v 11.3072 11.2878 -32.0917
vn -0.949711 0.281225 -0.137704
v 11.3128 11.3384 -31.9838
vn -0.945166 0.322898 -0.0489728
v 11.3294 11.3853 -31.8753
vn -0.931519 0.361461 0.0402302
v 11.3569 11.428 -31.7673
vn -0.908901 0.396543 0.129046
v 11.395 11.466 -31.6608
vn -0.877529 0.427807 0.216618
v 11.4434 11.499 -31.5568
vn -0.837707 0.45495 0.302105
v 11.5017 11.5267 -31.4564
vn -0.789817 0.477712 0.384682
v 11.5692 11.5488 -31.3605
vn -0.734321 0.495873 0.463555
v 11.6453 11.5651 -31.27
vn -0.671752 0.509259 0.537963
v 11.7292 11.5754 -31.1858
vn -0.602715 0.51774 0.60719
v 11.8202 11.5797 -31.1087
vn -0.527873 0.521236 0.67057
v 11.9174 11.5778 -31.0395
vn -0.447947 0.519711 0.727492
v 12.0199 11.5699 -30.9788
vn -0.363707 0.513181 0.777407
v 12.1266 11.5559 -30.9272
vn -0.275965 0.50171 0.819836
v 12.2365 11.5361 -30.8852
vn -0.185564 0.485406 0.854369
v 11.4673 9.00821 -29.7856
vn -0.121034 0.386169 0.914453
v 11.5793 8.97808 -29.7644
vn -0.0278142 0.361095 0.932114
v 11.6917 8.94376 -29.754
vn 0.0656733 0.332543 0.940799
v 11.8033 8.9056 -29.7544
vn 0.158528 0.300789 0.940423
v 11.913 8.86395 -29.7658
vn 0.249857 0.266138 0.93099
v 12.0199 8.81923 -29.7879
vn 0.338779 0.228924 0.912591
v 12.1229 8.77185 -29.8205
vn 0.424438 0.189505 0.885404
v 12.2209 8.72228 -29.8635
vn 0.50601 0.148261 0.849689
v 12.3131 8.67099 -29.9162
vn 0.582709 0.10559 0.805792
v 12.3985 8.61849 -29.9783
vn 0.653796 0.0619011 0.754135
v 12.4764 8.56526 -30.0491
vn 0.718587 0.0176164 0.695214
v 12.5459 8.51183 -30.128
vn 0.776457 -0.026838 0.629599
v 12.6065 8.45872 -30.2141
vn 0.826849 -0.0710339 0.55792
v 12.6575 8.40642 -30.3067
vn 0.869279 -0.114546 0.480868
v 12.6984 8.35545 -30.4049
vn 0.903337 -0.156954 0.399185
v 12.7289 8.3063 -30.5077
vn 0.928695 -0.197851 0.313657
v 12.7486 8.25944 -30.6141
vn 0.945109 -0.236843 0.225109
v 12.7574 8.21531 -30.7232
vn 0.952421 -0.273554 0.134393
v 12.7552 8.17436 -30.8337
vn 0.950562 -0.30763 0.042383
v 12.742 8.13696 -30.9448
vn 0.939547 -0.338744 -0.0500355
v 12.7178 8.10349 -31.0553
vn 0.919485 -0.366595 -0.141972
v 12.6831 8.07426 -31.1642
vn 0.890567 -0.390916 -0.232541
v 12.638 8.04955 -31.2703
vn 0.853072 -0.411472 -0.320871
v 12.5831 8.02961 -31.3728
vn 0.807362 -0.428066 -0.406111
v 12.5188 8.01462 -31.4705
vn 0.753877 -0.440536 -0.487439
v 12.4458 8.00473 -31.5626
vn 0.693131 -0.448765 -0.564074
v 12.3648 8.00004 -31.6482
vn 0.62571 -0.452671 -0.635276
v 12.2765 8.00058 -31.7264
vn 0.552264 -0.452218 -0.70036
v 12.1818 8.00636 -31.7965
vn 0.473498 -0.44741 -0.758699
v 12.0817 8.01732 -31.8579
vn 0.390173 -0.438293 -0.809731
v 11.977 8.03335 -31.9098
vn 0.30309 -0.424955 -0.852965
v 11.8688 8.0543 -31.9519
vn 0.213088 -0.407525 -0.887985
v 11.7582 8.07997 -31.9837
vn 0.121034 -0.386169 -0.914453
v 11.6462 8.1101 -32.005
vn 0.0278142 -0.361095 -0.932114
v 11.5338 8.14442 -32.0154
vn -0.0656733 -0.332543 -0.940799
v 11.4222 8.18258 -32.0149
vn -0.158528 -0.300789 -0.940423
v 11.3125 8.22423 -32.0036
vn -0.249857 -0.266138 -0.93099
v 11.2056 8.26895 -31.9815
vn -0.338779 -0.228924 -0.912591
v 11.1026 8.31633 -31.9488
vn -0.424438 -0.189505 -0.885404
v 11.0046 8.3659 -31.9059
vn -0.50601 -0.148261 -0.849689
v 10.9124 8.41719 -31.8531
vn -0.582709 -0.10559 -0.805792
v 10.827 8.46969 -31.791
vn -0.653796 -0.0619011 -0.754135
v 10.7491 8.52292 -31.7202
vn -0.718587 -0.0176164 -0.695214
v 10.6795 8.57635 -31.6414
vn -0.776457 0.026838 -0.629599
v 10.619 8.62946 -31.5552
vn -0.826849 0.0710339 -0.55792
v 10.568 8.68176 -31.4626
vn -0.869279 0.114546 -0.480868
v 10.5271 8.73273 -31.3644
vn -0.903337 0.156954 -0.399185
v 10.4966 8.78188 -31.2617
vn -0.928695 0.197851 -0.313657
v 10.4768 8.82874 -31.1552
vn -0.945109 0.236843 -0.225109
v 10.4681 8.87287 -31.0462
vn -0.952421 0.273554 -0.134393
v 10.4703 8.91382 -30.9356
vn -0.950562 0.30763 -0.042383
v 10.4835 8.95122 -30.8245
vn -0.939547 0.338744 0.0500355
v 10.5076 8.98469 -30.714
vn -0.919485 0.366595 0.141972
v 10.5424 9.01392 -30.6052
vn -0.890567 0.390916 0.232541
v 10.5875 9.03863 -30.499
vn -0.853072 0.411472 0.320871
v 10.6424 9.05857 -30.3966
vn -0.807362 0.428066 0.406111
v 10.7067 9.07356 -30.2988
vn -0.753877 0.440536 0.487439
v 10.7797 9.08345 -30.2067
vn -0.693131 0.448765 0.564074
v 10.8607 9.08814 -30.1212
vn -0.62571 0.452671 0.635276
v 10.949 9.0876 -30.0429
vn -0.552264 0.452218 0.70036
v 11.0437 9.08182 -29.9728
vn -0.473498 0.44741 0.758699
v 11.1438 9.07086 -29.9115
vn -0.390173 0.438293 0.809731
v 11.2485 9.05483 -29.8595
vn -0.30309 0.424955 0.852965
v 11.3566 9.03388 -29.8174
vn -0.213088 0.407525 0.887985
v 10.6485 6.49522 -28.9922
vn -0.149882 0.297941 0.942744
v 10.7594 6.46594 -28.9714
vn -0.0565237 0.273292 0.960269
v 10.8709 6.43354 -28.9616
vn 0.0373793 0.246011 0.968546
v 10.982 6.39833 -28.9628
vn 0.130922 0.21636 0.967496
v 11.0916 6.36064 -28.9751
vn 0.223204 0.184626 0.957127
v 11.1987 6.32084 -28.9984
vn 0.313337 0.151114 0.937542
v 11.3021 6.27931 -29.0324
vn 0.400452 0.116146 0.908927
v 11.401 6.23646 -29.0767
vn 0.48371 0.0800601 0.871559
v 11.4944 6.19269 -29.1311
vn 0.56231 0.0432029 0.825797
v 11.5813 6.14842 -29.1949
vn 0.635495 0.00592976 0.772082
v 11.6609 6.10409 -29.2675
vn 0.702559 -0.0314005 0.710932
v 11.7325 6.06011 -29.3483
vn 0.762858 -0.0684284 0.642935
v 11.7954 6.01692 -29.4364
vn 0.815809 -0.104797 0.568746
v 11.849 5.97492 -29.531
vn 0.860904 -0.140157 0.48908
v 11.8927 5.93453 -29.6312
vn 0.897708 -0.174167 0.404704
v 11.9261 5.89614 -29.736
vn 0.925867 -0.206499 0.31643
v 11.949 5.8601 -29.8445
vn 0.945109 -0.236843 0.225109
v 11.961 5.82677 -29.9555
vn 0.955249 -0.264906 0.13162
v 11.9621 5.79647 -30.068
vn 0.95619 -0.290418 0.0368637
v 11.9523 5.7695 -30.181
vn 0.947922 -0.313133 -0.058248
v 11.9316 5.7461 -30.2933
vn 0.930524 -0.332832 -0.152799
v 11.9003 5.72651 -30.4038
vn 0.904166 -0.349326 -0.245878
v 11.8587 5.71092 -30.5115
vn 0.8691 -0.362455 -0.336589
v 11.8071 5.69947 -30.6154
vn 0.825663 -0.372094 -0.424059
v 11.7461 5.69228 -30.7145
vn 0.774276 -0.37815 -0.507444
v 11.6762 5.68942 -30.8077
vn 0.715431 -0.380563 -0.585943
v 11.5981 5.6909 -30.8942
vn 0.649697 -0.379312 -0.658799
v 11.5126 5.69673 -30.9732
vn 0.577706 -0.374408 -0.72531
v 11.4205 5.70683 -31.0439
vn 0.500151 -0.365898 -0.784836
v 11.3227 5.72112 -31.1056
vn 0.417779 -0.353864 -0.836804
v 11.2201 5.73946 -31.1578
vn 0.331384 -0.338422 -0.880713
v 11.1137 5.76167 -31.1998
vn 0.241797 -0.319721 -0.91614
v 11.0045 5.78754 -31.2314
vn 0.149882 -0.297941 -0.942744
v 10.8937 5.81681 -31.2522
vn 0.0565237 -0.273292 -0.960269
v 10.7822 5.84921 -31.2621
vn -0.0373793 -0.246011 -0.968546
v 10.6711 5.88442 -31.2608
vn -0.130922 -0.21636 -0.967496
v 10.5615 5.92211 -31.2485
vn -0.223204 -0.184626 -0.957127
v 10.4544 5.96191 -31.2252
vn -0.313337 -0.151114 -0.937542
v 10.351 6.00344 -31.1913
vn -0.400452 -0.116146 -0.908927
v 10.2521 6.0463 -31.1469
vn -0.48371 -0.0800601 -0.871559
v 10.1587 6.09007 -31.0925
vn -0.56231 -0.0432029 -0.825797
v 10.0718 6.13433 -31.0287
vn -0.635495 -0.00592976 -0.772082
v 9.99218 6.17867 -30.9561
vn -0.702559 0.0314005 -0.710932
v 9.92057 6.22264 -30.8754
vn -0.762858 0.0684284 -0.642935
v 9.85768 6.26584 -30.7873
vn -0.815809 0.104797 -0.568746
v 9.80412 6.30783 -30.6926
vn -0.860904 0.140157 -0.48908
v 9.76042 6.34822 -30.5924
vn -0.897708 0.174167 -0.404704
v 9.72697 6.38662 -30.4876
vn -0.925867 0.206499 -0.31643
v 9.70412 6.42265 -30.3792
vn -0.945109 0.236843 -0.225109
v 9.69208 6.45598 -30.2681
vn -0.955249 0.264906 -0.13162
v 9.69096 6.48628 -30.1556
vn -0.95619 0.290418 -0.0368637
v 9.70078 6.51326 -30.0426
vn -0.947922 0.313133 0.058248
v 9.72144 6.53665 -29.9303
vn -0.930524 0.332832 0.152799
v 9.75275 6.55624 -29.8198
vn -0.904166 0.349326 0.245878
v 9.79439 6.57183 -29.7121
vn -0.8691 0.362455 0.336589
v 9.84598 6.58328 -29.6082
vn -0.825663 0.372094 0.424059
v 9.90701 6.59047 -29.5092
vn -0.774276 0.37815 0.507444
v 9.97689 6.59334 -29.4159
vn -0.715431 0.380563 0.585943
v 10.055 6.59185 -29.3294
vn -0.649697 0.379312 0.658799
v 10.1405 6.58603 -29.2504
vn -0.577706 0.374408 0.72531
v 10.2326 6.57592 -29.1797
vn -0.500151 0.365898 0.784836
v 10.3304 6.56163 -29.118
vn -0.417779 0.353864 0.836804
v 10.433 6.54329 -29.0659
vn -0.331384 0.338422 0.880713
v 10.5394 6.52108 -29.0238
vn -0.241797 0.319721 0.91614
v 9.89349 3.97331 -28.4755
vn -0.179062 0.200863 0.963115
v 10.0032 3.94493 -28.4551
vn -0.0855629 0.176681 0.980542
v 10.1139 3.91456 -28.4457
vn 0.00876028 0.150798 0.988526
v 10.2244 3.88249 -28.4475
vn 0.102999 0.123462 0.98699
v 10.3339 3.84902 -28.4605
vn 0.196246 0.0949375 0.975948
v 10.4411 3.81448 -28.4844
vn 0.287603 0.0654985 0.955508
v 10.545 3.77919 -28.5192
vn 0.37619 0.0354287 0.925865
v 10.6447 3.74351 -28.5645
vn 0.461154 0.00501769 0.887306
v 10.7392 3.70777 -28.6197
vn 0.541677 -0.0254416 0.840202
v 10.8275 3.67232 -28.6845
vn 0.616983 -0.0556559 0.785006
v 10.9089 3.6375 -28.7581
vn 0.686348 -0.0853342 0.72225
v 10.9826 3.60364 -28.8399
vn 0.749103 -0.114191 0.652538
v 11.0477 3.57107 -28.9291
vn 0.804643 -0.141947 0.576542
v 11.1038 3.5401 -29.0248
vn 0.852434 -0.168337 0.494994
v 11.1502 3.51104 -29.1261
vn 0.892016 -0.193106 0.408678
v 11.1866 3.48416 -29.232
vn 0.923007 -0.216015 0.318427
v 11.2125 3.45972 -29.3415
vn 0.945109 -0.236843 0.225109
v 11.2278 3.43796 -29.4535
vn 0.958109 -0.255391 0.129624
v 11.2322 3.41908 -29.567
vn 0.961882 -0.271479 0.0328895
v 11.2258 3.40327 -29.6809
vn 0.956392 -0.284952 -0.0641614
v 11.2085 3.39068 -29.794
vn 0.941691 -0.295682 -0.160594
v 11.1806 3.38144 -29.9054
vn 0.917921 -0.303563 -0.255481
v 11.1424 3.37562 -30.0138
vn 0.885311 -0.308522 -0.347907
v 11.0941 3.37329 -30.1183
vn 0.844175 -0.310509 -0.436982
v 11.0363 3.37446 -30.2179
vn 0.794909 -0.309505 -0.521849
v 10.9695 3.37914 -30.3116
vn 0.737988 -0.305521 -0.60169
v 10.8944 3.38727 -30.3985
vn 0.673959 -0.298595 -0.675737
v 10.8116 3.39877 -30.4777
vn 0.60344 -0.288793 -0.743276
v 10.7221 3.41353 -30.5486
vn 0.527109 -0.276209 -0.803657
v 10.6266 3.43142 -30.6103
vn 0.445702 -0.260966 -0.856298
v 10.526 3.45225 -30.6624
vn 0.360003 -0.24321 -0.900693
v 10.4214 3.47584 -30.7043
vn 0.270837 -0.223111 -0.936413
v 10.3137 3.50194 -30.7357
vn 0.179062 -0.200863 -0.963115
v 10.204 3.53031 -30.7561
vn 0.0855629 -0.176681 -0.980542
v 10.0933 3.56068 -30.7655
vn -0.00876028 -0.150798 -0.988526
v 9.98274 3.59276 -30.7637
vn -0.102999 -0.123462 -0.98699
v 9.87333 3.62623 -30.7507
vn -0.196246 -0.0949375 -0.975948
v 9.76613 3.66077 -30.7267
vn -0.287603 -0.0654985 -0.955508
v 9.66219 3.69605 -30.692
vn -0.37619 -0.0354287 -0.925865
v 9.5625 3.73174 -30.6467
vn -0.461154 -0.00501769 -0.887306
v 9.46801 3.76748 -30.5914
vn -0.541677 0.0254416 -0.840202
v 9.37965 3.80293 -30.5267
vn -0.616983 0.0556559 -0.785006
v 9.29826 3.83775 -30.453
vn -0.686348 0.0853342 -0.72225
v 9.22463 3.87161 -30.3713
vn -0.749103 0.114191 -0.652538
v 9.15946 3.90418 -30.2821
vn -0.804643 0.141947 -0.576542
v 9.10339 3.93514 -30.1864
vn -0.852434 0.168337 -0.494994
v 9.05694 3.96421 -30.0851
vn -0.892016 0.193106 -0.408678
v 9.02058 3.99109 -29.9792
vn -0.923007 0.216015 -0.318427
v 8.99465 4.01553 -29.8697
vn -0.945109 0.236843 -0.225109
v 8.97939 4.03729 -29.7577
vn -0.958109 0.255391 -0.129624
v 8.97496 4.05617 -29.6442
vn -0.961882 0.271479 -0.0328895
v 8.98141 4.07197 -29.5303
vn -0.956392 0.284952 0.0641614
v 8.99866 4.08456 -29.4172
vn -0.941691 0.295682 0.160594
v 9.02655 4.09381 -29.3058
vn -0.917921 0.303563 0.255481
v 9.06481 4.09963 -29.1974
vn -0.885311 0.308522 0.347907
v 9.11308 4.10196 -29.0929
vn -0.844175 0.310509 0.436982
v 9.17088 4.10078 -28.9933
vn -0.794909 0.309505 0.521849
v 9.23767 4.09611 -28.8996
vn -0.737988 0.305521 0.60169
v 9.3128 4.08798 -28.8127
vn -0.673959 0.298595 0.675737
v 9.39554 4.07648 -28.7335
vn -0.60344 0.288793 0.743276
v 9.48511 4.06172 -28.6626
vn -0.527109 0.276209 0.803657
v 9.58063 4.04383 -28.6009
vn -0.445702 0.260966 0.856298
v 9.68118 4.023 -28.5488
vn -0.360003 0.24321 0.900693
v 9.78581 3.99941 -28.5068
vn -0.270837 0.223111 0.936413
v 9.20339 1.44547 -28.2378
vn -0.207495 0.0971771 0.973397
v 9.31192 1.41802 -28.2176
vn -0.113859 0.0734945 0.990775
v 9.42173 1.38975 -28.2085
vn -0.0191261 0.0491041 0.998611
v 9.53174 1.36093 -28.2106
vn 0.0757907 0.0242408 0.996829
v 9.64092 1.33184 -28.2238
vn 0.169978 -0.000855968 0.985448
v 9.74819 1.30276 -28.248
vn 0.262527 -0.0259445 0.964576
v 9.85253 1.27397 -28.2829
vn 0.352549 -0.0507832 0.934414
v 9.95294 1.24575 -28.3283
vn 0.439175 -0.0751327 0.895254
v 10.0484 1.21836 -28.3837
vn 0.521572 -0.0987588 0.847472
v 10.1381 1.19208 -28.4486
vn 0.598946 -0.121434 0.791529
v 10.2211 1.16715 -28.5222
vn 0.670552 -0.142939 0.727962
v 10.2966 1.14382 -28.604
vn 0.735699 -0.163068 0.657385
v 10.3639 1.12231 -28.6932
vn 0.793762 -0.181626 0.580477
v 10.4224 1.10282 -28.7888
vn 0.84418 -0.198436 0.497979
v 10.4714 1.08556 -28.89
vn 0.886469 -0.213334 0.410684
v 10.5105 1.07067 -28.9958
vn 0.92022 -0.226178 0.319435
v 10.5394 1.05831 -29.1051
vn 0.945109 -0.236843 0.225109
v 10.5577 1.04859 -29.2169
vn 0.960896 -0.245228 0.128616
v 10.5652 1.04161 -29.3302
vn 0.967429 -0.251251 0.0308835
v 10.562 1.03743 -29.4439
vn 0.964645 -0.254854 -0.0671462
v 10.548 1.0361 -29.5567
vn 0.952572 -0.256003 -0.164529
v 10.5234 1.03762 -29.6678
vn 0.931324 -0.254686 -0.260328
v 10.4884 1.04199 -29.7759
vn 0.901107 -0.250917 -0.353619
v 10.4433 1.04916 -29.8801
vn 0.862212 -0.244731 -0.443505
v 10.3886 1.05907 -29.9793
vn 0.815014 -0.236188 -0.52912
v 10.3248 1.0716 -30.0727
vn 0.759966 -0.225371 -0.609639
v 10.2525 1.08666 -30.1592
vn 0.6976 -0.212383 -0.684286
v 10.1724 1.10408 -30.2381
vn 0.628515 -0.19735 -0.752344
v 10.0853 1.12371 -30.3086
vn 0.553378 -0.180416 -0.813156
v 9.99205 1.14535 -30.37
vn 0.472911 -0.161745 -0.866137
v 9.8935 1.1688 -30.4217
vn 0.387889 -0.141516 -0.910777
v 9.79062 1.19383 -30.4633
vn 0.299132 -0.119924 -0.946646
v 9.6844 1.22019 -30.4943
vn 0.207495 -0.0971771 -0.973397
v 9.57587 1.24764 -30.5144
vn 0.113859 -0.0734945 -0.990775
v 9.46606 1.27591 -30.5235
vn 0.0191261 -0.0491041 -0.998611
v 9.35605 1.30473 -30.5214
vn -0.0757907 -0.0242408 -0.996829
v 9.24687 1.33382 -30.5083
vn -0.169978 0.000855968 -0.985448
v 9.1396 1.3629 -30.4841
vn -0.262527 0.0259445 -0.964576
v 9.03526 1.39169 -30.4491
vn -0.352549 0.0507832 -0.934414
v 8.93485 1.41992 -30.4037
vn -0.439175 0.0751327 -0.895254
v 8.83934 1.4473 -30.3483
vn -0.521572 0.0987588 -0.847472
v 8.74966 1.47359 -30.2835
vn -0.598946 0.121434 -0.791529
v 8.66666 1.49851 -30.2098
vn -0.670552 0.142939 -0.727962
v 8.59115 1.52184 -30.128
vn -0.735699 0.163068 -0.657385
v 8.52385 1.54335 -30.0389
vn -0.793762 0.181626 -0.580477
v 8.46541 1.56284 -29.9432
vn -0.84418 0.198436 -0.497979
v 8.41639 1.58011 -29.842
vn -0.886469 0.213334 -0.410684
v 8.37727 1.59499 -29.7363
vn -0.92022 0.226178 -0.319435
v 8.34842 1.60736 -29.6269
vn -0.945109 0.236843 -0.225109
v 8.33012 1.61707 -29.5151
vn -0.960896 0.245228 -0.128616
v 8.32255 1.62406 -29.4018
vn -0.967429 0.251251 -0.0308835
v 8.32577 1.62823 -29.2882
vn -0.964645 0.254854 0.0671462
v 8.33977 1.62956 -29.1753
vn -0.952572 0.256003 0.164529
v 8.3644 1.62804 -29.0643
vn -0.931324 0.254686 0.260328
v 8.39942 1.62367 -28.9561
vn -0.901107 0.250917 0.353619
v 8.4445 1.6165 -28.852
vn -0.862212 0.244731 0.443505
v 8.49921 1.6066 -28.7527
vn -0.815014 0.236188 0.52912
v 8.56302 1.59406 -28.6594
vn -0.759966 0.225371 0.609639
v 8.63531 1.579 -28.5729
vn -0.6976 0.212383 0.684286
v 8.71538 1.56158 -28.494
vn -0.628515 0.19735 0.752344
v 8.80247 1.54195 -28.4235
vn -0.553378 0.180416 0.813156
v 8.89574 1.52031 -28.3621
vn -0.472911 0.161745 0.866137
v 8.99429 1.49686 -28.3103
vn -0.387889 0.141516 0.910777
v 9.09717 1.47184 -28.2688
vn -0.299132 0.119924 0.946646
v 8.57952 -1.0843 -28.2801
vn -0.234031 -0.0098714 0.972179
v 8.68686 -1.11082 -28.2602
vn -0.140267 -0.0330386 0.989562
v 8.79575 -1.13698 -28.2512
vn -0.0451522 -0.0558875 0.997416
v 8.90514 -1.16253 -28.2532
vn 0.0503973 -0.0781983 0.995663
v 9.01398 -1.18721 -28.2662
vn 0.145461 -0.0997559 0.984322
v 9.12121 -1.21079 -28.29
vn 0.239125 -0.120353 0.963501
v 9.2258 -1.23304 -28.3245
vn 0.330485 -0.139791 0.933401
v 9.32675 -1.25375 -28.3693
vn 0.418663 -0.157882 0.894312
v 9.42308 -1.27272 -28.4239
vn 0.502808 -0.174454 0.846611
v 9.51387 -1.28977 -28.4878
vn 0.582112 -0.189345 0.790756
v 9.59824 -1.30473 -28.5605
vn 0.655809 -0.202412 0.727285
v 9.67539 -1.31746 -28.6412
vn 0.72319 -0.21353 0.656811
v 9.74455 -1.32783 -28.7291
vn 0.783607 -0.222592 0.580011
v 9.80508 -1.33575 -28.8234
vn 0.836477 -0.22951 0.497625
v 9.85639 -1.34114 -28.9232
vn 0.881292 -0.234218 0.410447
v 9.89798 -1.34395 -29.0275
vn 0.917619 -0.23667 0.319316
v 9.92945 -1.34415 -29.1354
vn 0.945109 -0.236843 0.225109
v 9.9505 -1.34174 -29.2457
vn 0.963497 -0.234735 0.128735
v 9.96093 -1.33673 -29.3575
vn 0.972606 -0.230366 0.0311212
v 9.96063 -1.32919 -29.4696
vn 0.972349 -0.223779 -0.0667925
v 9.94962 -1.31918 -29.5809
vn 0.962727 -0.215037 -0.164063
v 9.92799 -1.3068 -29.6905
vn 0.943833 -0.204224 -0.259753
v 9.89595 -1.29217 -29.7972
vn 0.91585 -0.191444 -0.352942
v 9.85382 -1.27543 -29.9
vn 0.879047 -0.17682 -0.442732
v 9.80199 -1.25674 -29.9979
vn 0.833778 -0.160493 -0.528258
v 9.74097 -1.23628 -30.09
vn 0.780479 -0.142621 -0.608697
v 9.67135 -1.21425 -30.1753
vn 0.719664 -0.123375 -0.683273
v 9.59379 -1.19085 -30.2532
vn 0.651918 -0.102941 -0.75127
v 9.50904 -1.16632 -30.3228
vn 0.577894 -0.081516 -0.812031
v 9.41793 -1.1409 -30.3834
vn 0.498304 -0.0593056 -0.864972
v 9.32131 -1.11482 -30.4344
vn 0.413915 -0.0365241 -0.909582
v 9.22014 -1.08833 -30.4755
vn 0.325541 -0.0133908 -0.945433
v 9.11537 -1.0617 -30.5061
vn 0.234031 0.0098714 -0.972179
v 9.00803 -1.03518 -30.526
vn 0.140267 0.0330386 -0.989562
v 8.89914 -1.00902 -30.535
vn 0.0451522 0.0558875 -0.997416
v 8.78975 -0.983476 -30.533
vn -0.0503973 0.0781983 -0.995663
v 8.68092 -0.958796 -30.52
vn -0.145461 0.0997559 -0.984322
v 8.57369 -0.935216 -30.4962
vn -0.239125 0.120353 -0.963501
v 8.46909 -0.912962 -30.4617
vn -0.330485 0.139791 -0.933401
v 8.36814 -0.89225 -30.417
vn -0.418663 0.157882 -0.894312
v 8.27181 -0.873279 -30.3623
vn -0.502808 0.174454 -0.846611
v 8.18102 -0.856231 -30.2984
vn -0.582112 0.189345 -0.790756
v 8.09665 -0.841271 -30.2257
vn -0.655809 0.202412 -0.727285
v 8.01951 -0.828542 -30.145
vn -0.72319 0.21353 -0.656811
v 7.95034 -0.818168 -30.0571
vn -0.783607 0.222592 -0.580011
v 7.88981 -0.810247 -29.9628
vn -0.836477 0.22951 -0.497625
v 7.8385 -0.804858 -29.863
vn -0.881292 0.234218 -0.410447
v 7.79692 -0.80205 -29.7587
vn -0.917619 0.23667 -0.319316
v 7.76544 -0.801852 -29.6508
vn -0.945109 0.236843 -0.225109
v 7.74439 -0.804266 -29.5405
vn -0.963497 0.234735 -0.128735
v 7.73396 -0.809267 -29.4287
vn -0.972606 0.230366 -0.0311212
v 7.73426 -0.816809 -29.3166
vn -0.972349 0.223779 0.0667925
v 7.74527 -0.826817 -29.2053
vn -0.962727 0.215037 0.164063
v 7.7669 -0.839197 -29.0957
vn -0.943833 0.204224 0.259753
v 7.79894 -0.853828 -28.989
vn -0.91585 0.191444 0.352942
v 7.84108 -0.87057 -28.8862
vn -0.879047 0.17682 0.442732
v 7.8929 -0.889261 -28.7883
vn -0.833778 0.160493 0.528258
v 7.95392 -0.909722 -28.6962
vn -0.780479 0.142621 0.608697
v 8.02354 -0.931755 -28.6109
vn -0.719664 0.123375 0.683273
v 8.1011 -0.955149 -28.533
vn -0.651918 0.102941 0.75127
v 8.18585 -0.979678 -28.4635
vn -0.577894 0.081516 0.812031
v 8.27697 -1.00511 -28.4028
vn -0.498304 0.0593056 0.864972
v 8.37358 -1.03119 -28.3518
vn -0.413915 0.0365241 0.909582
v 8.47475 -1.05767 -28.3107
vn -0.325541 0.0133908 0.945433
v 8.02295 -3.61155 -28.6024
vn -0.257651 -0.116472 0.959192
v 8.12909 -3.63717 -28.5827
vn -0.163774 -0.139126 0.976638
v 8.23701 -3.66126 -28.5736
vn -0.0683191 -0.16044 0.984678
v 8.34567 -3.68361 -28.5752
vn 0.0277937 -0.180208 0.983236
v 8.45403 -3.704 -28.5875
vn 0.123639 -0.198242 0.972324
v 8.56105 -3.72223 -28.6105
vn 0.218293 -0.214366 0.952048
v 8.66569 -3.73813 -28.6437
vn 0.310845 -0.228426 0.922603
v 8.76694 -3.75154 -28.6871
vn 0.400404 -0.240286 0.884274
v 8.86383 -3.76233 -28.74
vn 0.486106 -0.249831 0.837428
v 8.95543 -3.7704 -28.8021
vn 0.567127 -0.256971 0.782517
v 9.04086 -3.77568 -28.8727
vn 0.642686 -0.261636 0.72007
v 9.11929 -3.7781 -28.9512
vn 0.712056 -0.263781 0.650689
v 9.18996 -3.77765 -29.0367
vn 0.774568 -0.263386 0.575041
v 9.25221 -3.77434 -29.1285
vn 0.829621 -0.260455 0.493855
v 9.30542 -3.76819 -29.2256
vn 0.876684 -0.255015 0.407913
v 9.34908 -3.75926 -29.3273
vn 0.915304 -0.247119 0.318043
v 9.38278 -3.74764 -29.4323
vn 0.945109 -0.236843 0.225109
v 9.40618 -3.73345 -29.5398
vn 0.965812 -0.224286 0.130008
v 9.41907 -3.71681 -29.6488
vn 0.977214 -0.20957 0.0336547
v 9.42133 -3.69789 -29.7581
vn 0.979205 -0.192835 -0.0630227
v 9.41291 -3.67687 -29.8667
vn 0.971766 -0.174243 -0.159093
v 9.39392 -3.65395 -29.9736
vn 0.954968 -0.153973 -0.253631
v 9.36453 -3.62936 -30.0777
vn 0.928973 -0.13222 -0.345727
v 9.32503 -3.60333 -30.1781
vn 0.894032 -0.109193 -0.434493
v 9.27579 -3.5761 -30.2737
vn 0.85048 -0.0851154 -0.519075
v 9.21729 -3.54795 -30.3637
vn 0.798738 -0.0602178 -0.598658
v 9.1501 -3.51915 -30.4471
vn 0.739304 -0.0347403 -0.672475
v 9.07485 -3.48997 -30.5233
vn 0.67275 -0.00892815 -0.739816
v 8.99228 -3.46069 -30.5913
vn 0.599716 0.0169699 -0.800033
v 8.90318 -3.43159 -30.6507
vn 0.520908 0.0427046 -0.852544
v 8.80841 -3.40296 -30.7008
vn 0.437082 0.068028 -0.896845
v 8.70888 -3.37507 -30.7411
vn 0.349048 0.0926962 -0.932509
v 8.60555 -3.34819 -30.7713
vn 0.257651 0.116472 -0.959192
v 8.49941 -3.32258 -30.791
vn 0.163774 0.139126 -0.976638
v 8.39149 -3.29848 -30.8001
vn 0.0683191 0.16044 -0.984678
v 8.28282 -3.27613 -30.7985
vn -0.0277937 0.180208 -0.983236
v 8.17446 -3.25574 -30.7861
vn -0.123639 0.198242 -0.972324
v 8.06745 -3.23751 -30.7632
vn -0.218293 0.214366 -0.952048
v 7.96281 -3.22162 -30.7299
vn -0.310845 0.228426 -0.922603
v 7.86156 -3.20821 -30.6866
vn -0.400404 0.240286 -0.884274
v 7.76466 -3.19742 -30.6336
vn -0.486106 0.249831 -0.837428
v 7.67306 -3.18934 -30.5715
vn -0.567127 0.256971 -0.782517
v 7.58764 -3.18407 -30.5009
vn -0.642686 0.261636 -0.72007
v 7.50921 -3.18164 -30.4225
vn -0.712056 0.263781 -0.650689
v 7.43853 -3.18209 -30.337
vn -0.774568 0.263386 -0.575041
v 7.37629 -3.18541 -30.2452
vn -0.829621 0.260455 -0.493855
v 7.32308 -3.19156 -30.148
vn -0.876684 0.255015 -0.407913
v 7.27942 -3.20048 -30.0464
vn -0.915304 0.247119 -0.318043
v 7.24572 -3.2121 -29.9413
vn -0.945109 0.236843 -0.225109
v 7.22231 -3.2263 -29.8338
vn -0.965812 0.224286 -0.130008
v 7.20942 -3.24294 -29.7249
vn -0.977214 0.20957 -0.0336547
v 7.20717 -3.26186 -29.6156
vn -0.979205 0.192835 0.0630227
v 7.21558 -3.28288 -29.507
vn -0.971766 0.174243 0.159093
v 7.23457 -3.30579 -29.4001
vn -0.954968 0.153973 0.253631
v 7.26396 -3.33039 -29.296
vn -0.928973 0.13222 0.345727
v 7.30347 -3.35642 -29.1956
vn -0.894032 0.109193 0.434493
v 7.35271 -3.38364 -29.1
vn -0.85048 0.0851154 0.519075
v 7.4112 -3.41179 -29.01
vn -0.798738 0.0602178 0.598658
v 7.4784 -3.4406 -28.9265
vn -0.739304 0.0347403 0.672475
v 7.55365 -3.46978 -28.8504
vn -0.67275 0.00892815 0.739816
v 7.63622 -3.49906 -28.7823
vn -0.599716 -0.0169699 0.800033
v 7.72532 -3.52815 -28.723
vn -0.520908 -0.0427046 0.852544
v 7.82009 -3.55678 -28.6729
vn -0.437082 -0.068028 0.896845
v 7.91962 -3.58467 -28.6325
vn -0.349048 -0.0926962 0.932509
v 7.53435 -6.13214 -29.203
vn -0.277654 -0.218894 0.935411
v 7.63925 -6.15688 -29.1834
vn -0.18368 -0.241055 0.952971
v 7.74613 -6.17903 -29.174
vn -0.0879373 -0.260894 0.961354
v 7.85396 -6.19837 -29.175
vn 0.00865235 -0.278221 0.960478
v 7.96169 -6.21472 -29.1863
vn 0.105159 -0.292868 0.950353
v 8.06829 -6.22792 -29.2078
vn 0.200652 -0.304695 0.931075
v 8.17274 -6.23785 -29.2393
vn 0.294214 -0.313587 0.90283
v 8.27402 -6.24441 -29.2806
vn 0.384941 -0.319459 0.86589
v 8.37117 -6.24753 -29.3311
vn 0.471962 -0.322255 0.820612
v 8.46324 -6.24718 -29.3905
vn 0.554437 -0.321947 0.76743
v 8.54935 -6.24338 -29.4581
vn 0.631573 -0.318539 0.706858
v 8.62866 -6.23615 -29.5333
vn 0.702627 -0.312063 0.639478
v 8.70043 -6.22557 -29.6154
vn 0.766913 -0.302582 0.56594
v 8.76395 -6.21173 -29.7036
vn 0.823814 -0.290186 0.486952
v 8.81861 -6.19477 -29.797
vn 0.872781 -0.274996 0.403274
v 8.86389 -6.17486 -29.8948
vn 0.913343 -0.257158 0.315712
v 8.89936 -6.15218 -29.9959
vn 0.945109 -0.236843 0.225109
v 8.92466 -6.12696 -30.0995
vn 0.967773 -0.214247 0.132339
v 8.93955 -6.09943 -30.2045
vn 0.981117 -0.189588 0.0382943
v 8.9439 -6.06986 -30.3099
vn 0.985012 -0.163103 -0.0561193
v 8.93766 -6.03854 -30.4146
vn 0.979421 -0.135047 -0.149992
v 8.92089 -6.00577 -30.5178
vn 0.964397 -0.105691 -0.242421
v 8.89375 -5.97186 -30.6184
vn 0.940086 -0.0753167 -0.332515
v 8.8565 -5.93715 -30.7154
vn 0.906721 -0.0442171 -0.419407
v 8.80951 -5.90195 -30.8079
vn 0.864624 -0.0126917 -0.502259
v 8.75322 -5.86662 -30.895
vn 0.8142 0.018956 -0.580275
v 8.68817 -5.8315 -30.9758
vn 0.755935 0.050421 -0.652702
v 8.615 -5.79691 -31.0497
vn 0.69039 0.0814005 -0.718843
v 8.53441 -5.76321 -31.1158
vn 0.618196 0.111596 -0.778061
v 8.44717 -5.7307 -31.1735
vn 0.540049 0.140717 -0.829787
v 8.35413 -5.6997 -31.2223
vn 0.456701 0.168483 -0.873521
v 8.25618 -5.67052 -31.2618
vn 0.368954 0.194626 -0.908842
v 8.15425 -5.64343 -31.2914
vn 0.277654 0.218894 -0.935411
v 8.04935 -5.61869 -31.311
vn 0.18368 0.241055 -0.952971
v 7.94247 -5.59654 -31.3204
vn 0.0879373 0.260894 -0.961354
v 7.83464 -5.5772 -31.3194
vn -0.00865235 0.278221 -0.960478
v 7.72691 -5.56085 -31.3081
vn -0.105159 0.292868 -0.950353
v 7.62031 -5.54764 -31.2866
vn -0.200652 0.304695 -0.931075
v 7.51586 -5.53772 -31.2551
vn -0.294214 0.313587 -0.90283
v 7.41458 -5.53116 -31.2138
vn -0.384941 0.319459 -0.86589
v 7.31743 -5.52804 -31.1633
vn -0.471962 0.322255 -0.820612
v 7.22536 -5.52838 -31.1039
vn -0.554437 0.321947 -0.76743
v 7.13926 -5.53219 -31.0363
vn -0.631573 0.318539 -0.706858
v 7.05994 -5.53942 -30.9611
vn -0.702627 0.312063 -0.639478
v 6.98817 -5.55 -30.879
vn -0.766913 0.302582 -0.56594
v 6.92465 -5.56384 -30.7908
vn -0.823814 0.290186 -0.486952
v 6.86999 -5.5808 -30.6974
vn -0.872781 0.274996 -0.403274
v 6.82471 -5.60071 -30.5996
vn -0.913343 0.257158 -0.315712
v 6.78925 -5.62339 -30.4985
vn -0.945109 0.236843 -0.225109
v 6.76395 -5.64861 -30.3949
vn -0.967773 0.214247 -0.132339
v 6.74905 -5.67614 -30.29
vn -0.981117 0.189588 -0.0382943
v 6.7447 -5.70571 -30.1846
vn -0.985012 0.163103 0.0561193
v 6.75094 -5.73703 -30.0798
vn -0.979421 0.135047 0.149992
v 6.76771 -5.7698 -29.9766
vn -0.964397 0.105691 0.242421
v 6.79485 -5.80371 -29.876
vn -0.940086 0.0753167 0.332515
v 6.8321 -5.83842 -29.779
vn -0.906721 0.0442171 0.419407
v 6.87909 -5.87362 -29.6865
vn -0.864624 0.0126917 0.502259
v 6.93538 -5.90895 -29.5994
vn -0.8142 -0.018956 0.580275
v 7.00043 -5.94407 -29.5186
vn -0.755935 -0.050421 0.652702
v 7.0736 -5.97865 -29.4447
vn -0.69039 -0.0814005 0.718843
v 7.15419 -6.01236 -29.3786
vn -0.618196 -0.111596 0.778061
v 7.24143 -6.04487 -29.3209
vn -0.540049 -0.140717 0.829787
v 7.33447 -6.07587 -29.2721
vn -0.456701 -0.168483 0.873521
v 7.43243 -6.10505 -29.2326
vn -0.368954 -0.194626 0.908842
v 7.11387 -8.6429 -30.0793
vn -0.293747 -0.314105 0.902802
v 7.21752 -8.66682 -30.0597
vn -0.199695 -0.335807 0.920519
v 7.3233 -8.68717 -30.05
vn -0.103721 -0.354276 0.929371
v 7.43017 -8.70377 -30.0501
vn -0.00674744 -0.369332 0.929273
v 7.53711 -8.71644 -30.0601
vn 0.090291 -0.380831 0.920226
v 7.6431 -8.72507 -30.0798
vn 0.18646 -0.388663 0.902316
v 7.7471 -8.72958 -30.1091
vn 0.280833 -0.392752 0.875716
v 7.84813 -8.72992 -30.1477
vn 0.372502 -0.393058 0.840683
v 7.9452 -8.72608 -30.1953
vn 0.460583 -0.389579 0.797553
v 8.03738 -8.71811 -30.2513
vn 0.544228 -0.382348 0.746743
v 8.12379 -8.70609 -30.3152
vn 0.622633 -0.371435 0.688741
v 8.20359 -8.69012 -30.3864
vn 0.695041 -0.356945 0.624106
v 8.27601 -8.67036 -30.4643
vn 0.760755 -0.339017 0.553461
v 8.34036 -8.647 -30.548
vn 0.819143 -0.317825 0.477486
v 8.39601 -8.62027 -30.6368
vn 0.869642 -0.293571 0.396912
v 8.44244 -8.59043 -30.7298
vn 0.911766 -0.26649 0.312515
v 8.47918 -8.55775 -30.8261
vn 0.945109 -0.236843 0.225109
v 8.5059 -8.52257 -30.9249
vn 0.96935 -0.204915 0.135535
v 8.52233 -8.48521 -31.025
vn 0.984256 -0.171013 0.044656
v 8.52831 -8.44603 -31.1256
vn 0.989683 -0.135465 -0.0466533
v 8.52379 -8.40541 -31.2258
vn 0.985579 -0.0986116 -0.137513
v 8.5088 -8.36375 -31.3245
vn 0.971983 -0.0608088 -0.227049
v 8.4835 -8.32144 -31.4207
vn 0.949026 -0.0224203 -0.314398
v 8.44813 -8.2789 -31.5136
vn 0.91693 0.0161841 -0.398719
v 8.40303 -8.23653 -31.6023
vn 0.876003 0.0546326 -0.479201
v 8.34862 -8.19473 -31.686
vn 0.82664 0.092555 -0.555067
v 8.28545 -8.15392 -31.7637
vn 0.769316 0.129586 -0.625588
v 8.21411 -8.11449 -31.8348
vn 0.704583 0.165369 -0.690084
v 8.13529 -8.07681 -31.8985
vn 0.633064 0.199559 -0.747934
v 8.04975 -8.04124 -31.9543
vn 0.555449 0.231828 -0.798581
v 7.95832 -8.00814 -32.0017
vn 0.472484 0.261864 -0.841538
v 7.86187 -7.97782 -32.0401
vn 0.384969 0.289378 -0.87639
v 7.76133 -7.95057 -32.0692
vn 0.293747 0.314105 -0.902802
v 7.65768 -7.92665 -32.0887
vn 0.199695 0.335807 -0.920519
v 7.55191 -7.9063 -32.0985
vn 0.103721 0.354276 -0.929371
v 7.44504 -7.8897 -32.0984
vn 0.00674744 0.369332 -0.929273
v 7.3381 -7.87703 -32.0884
vn -0.090291 0.380831 -0.920226
v 7.23211 -7.8684 -32.0686
vn -0.18646 0.388663 -0.902316
v 7.1281 -7.86389 -32.0393
vn -0.280833 0.392752 -0.875716
v 7.02708 -7.86356 -32.0007
vn -0.372502 0.393058 -0.840683
v 6.93001 -7.86739 -31.9532
vn -0.460583 0.389579 -0.797553
v 6.83782 -7.87536 -31.8972
vn -0.544228 0.382348 -0.746743
v 6.75142 -7.88739 -31.8333
vn -0.622633 0.371435 -0.688741
v 6.67162 -7.90336 -31.762
vn -0.695041 0.356945 -0.624106
v 6.59919 -7.92311 -31.6842
vn -0.760755 0.339017 -0.553461
v 6.53485 -7.94647 -31.6005
vn -0.819143 0.317825 -0.477486
v 6.47919 -7.9732 -31.5117
vn -0.869642 0.293571 -0.396912
v 6.43277 -8.00304 -31.4186
vn -0.911766 0.26649 -0.312515
v 6.39602 -8.03572 -31.3223
vn -0.945109 0.236843 -0.225109
v 6.36931 -8.0709 -31.2236
vn -0.96935 0.204915 -0.135535
v 6.35288 -8.10827 -31.1234
vn -0.984256 0.171013 -0.044656
v 6.3469 -8.14744 -31.0228
vn -0.989683 0.135465 0.0466533
v 6.35142 -8.18806 -30.9227
vn -0.985579 0.0986116 0.137513
v 6.36641 -8.22972 -30.824
vn -0.971983 0.0608088 0.227049
v 6.39171 -8.27203 -30.7277
vn -0.949026 0.0224203 0.314398
v 6.42708 -8.31457 -30.6348
vn -0.91693 -0.0161841 0.398719
v 6.47218 -8.35694 -30.5461
vn -0.876003 -0.0546326 0.479201
v 6.52658 -8.39874 -30.4625
vn -0.82664 -0.092555 0.555067
v 6.58976 -8.43955 -30.3848
vn -0.769316 -0.129586 0.625588
v 6.6611 -8.47898 -30.3137
vn -0.704583 -0.165369 0.690084
v 6.73992 -8.51667 -30.2499
vn -0.633064 -0.199559 0.747934
v 6.82546 -8.55223 -30.1941
vn -0.555449 -0.231828 0.798581
v 6.91689 -8.58533 -30.1468
vn -0.472484 -0.261864 0.841538
v 7.01334 -8.61565 -30.1084
vn -0.384969 -0.289378 0.87639
v 6.76125 -11.142 -31.2282
vn -0.306028 -0.400131 0.863853
v 6.86363 -11.1652 -31.2087
vn -0.211917 -0.421418 0.881758
v 6.96823 -11.1839 -31.1985
vn -0.115766 -0.438648 0.891171
v 7.07403 -11.198 -31.1976
vn -0.0184996 -0.451653 0.892002
v 7.18004 -11.2075 -31.206
vn 0.0789448 -0.460308 0.884242
v 7.28521 -11.2121 -31.2237
vn 0.175629 -0.464531 0.867966
v 7.38854 -11.2118 -31.2505
vn 0.270622 -0.464279 0.843332
v 7.48904 -11.2066 -31.2861
vn 0.363008 -0.459557 0.810575
v 7.58574 -11.1967 -31.3303
vn 0.451899 -0.450408 0.770013
v 7.6777 -11.182 -31.3825
vn 0.536437 -0.436922 0.722035
v 7.76405 -11.1628 -31.4422
vn 0.61581 -0.419228 0.667103
v 7.84394 -11.1391 -31.509
vn 0.689251 -0.397497 0.605746
v 7.91661 -11.1113 -31.582
vn 0.756055 -0.371938 0.538556
v 7.98136 -11.0796 -31.6608
vn 0.815578 -0.342797 0.46618
v 8.03756 -11.0443 -31.7444
vn 0.867246 -0.310354 0.389313
v 8.08468 -11.0058 -31.8321
vn 0.910562 -0.274922 0.308698
v 8.12226 -10.9644 -31.923
vn 0.945109 -0.236843 0.225109
v 8.14994 -10.9205 -32.0163
vn 0.970554 -0.196483 0.139353
v 8.16746 -10.8745 -32.1111
vn 0.986652 -0.154231 0.0522545
v 8.17463 -10.8269 -32.2064
vn 0.993248 -0.110493 -0.0353472
v 8.1714 -10.7782 -32.3013
vn 0.990279 -0.0656912 -0.122608
v 8.1578 -10.7288 -32.3949
vn 0.977772 -0.0202568 -0.208689
v 8.13395 -10.6791 -32.4864
vn 0.955849 0.0253728 -0.29276
v 8.10009 -10.6298 -32.5748
vn 0.924721 0.0707579 -0.374011
v 8.05654 -10.5811 -32.6592
vn 0.884687 0.115462 -0.45166
v 8.00372 -10.5337 -32.739
vn 0.836133 0.159053 -0.52496
v 7.94214 -10.488 -32.8132
vn 0.779527 0.201113 -0.593204
v 7.8724 -10.4443 -32.8812
vn 0.715414 0.241237 -0.655735
v 7.79516 -10.4032 -32.9424
vn 0.64441 0.279036 -0.711951
v 7.71117 -10.365 -32.9961
vn 0.567201 0.314149 -0.76131
v 7.62124 -10.3301 -33.0418
vn 0.484529 0.346236 -0.803338
v 7.52623 -10.2988 -33.0791
vn 0.397191 0.374989 -0.837629
v 7.42706 -10.2715 -33.1076
vn 0.306028 0.400131 -0.863853
v 7.32469 -10.2483 -33.1271
vn 0.211917 0.421418 -0.881758
v 7.22009 -10.2296 -33.1373
vn 0.115766 0.438648 -0.891171
v 7.11428 -10.2154 -33.1382
vn 0.0184996 0.451653 -0.892002
v 7.00828 -10.206 -33.1298
vn -0.0789448 0.460308 -0.884242
v 6.9031 -10.2014 -33.1121
vn -0.175629 0.464531 -0.867966
v 6.79977 -10.2017 -33.0853
vn -0.270622 0.464279 -0.843332
v 6.69927 -10.2068 -33.0497
vn -0.363008 0.459557 -0.810575
v 6.60257 -10.2168 -33.0055
vn -0.451899 0.450408 -0.770013
v 6.51061 -10.2314 -32.9533
vn -0.536437 0.436922 -0.722035
v 6.42427 -10.2507 -32.8936
vn -0.61581 0.419228 -0.667103
v 6.34438 -10.2743 -32.8268
vn -0.689251 0.397497 -0.605746
v 6.27171 -10.3021 -32.7538
vn -0.756055 0.371938 -0.538556
v 6.20696 -10.3338 -32.675
vn -0.815578 0.342797 -0.46618
v 6.15075 -10.3691 -32.5914
vn -0.867246 0.310354 -0.389313
v 6.10363 -10.4077 -32.5037
vn -0.910562 0.274922 -0.308698
v 6.06605 -10.4491 -32.4128
vn -0.945109 0.236843 -0.225109
v 6.03837 -10.493 -32.3195
vn -0.970554 0.196483 -0.139353
v 6.02086 -10.539 -32.2247
vn -0.986652 0.154231 -0.0522545
v 6.01368 -10.5865 -32.1294
vn -0.993248 0.110493 0.0353472
v 6.01691 -10.6353 -32.0345
vn -0.990279 0.0656912 0.122608
v 6.03052 -10.6847 -31.9409
vn -0.977772 0.0202568 0.208689
v 6.05437 -10.7343 -31.8494
vn -0.955849 -0.0253728 0.29276
v 6.08823 -10.7837 -31.761
vn -0.924721 -0.0707579 0.374011
v 6.13178 -10.8323 -31.6766
vn -0.884687 -0.115462 0.45166
v 6.1846 -10.8797 -31.5968
vn -0.836133 -0.159053 0.52496
v 6.24617 -10.9255 -31.5226
vn -0.779527 -0.201113 0.593204
v 6.31592 -10.9691 -31.4546
vn -0.715414 -0.241237 0.655735
v 6.39316 -11.0103 -31.3934
vn -0.64441 -0.279036 0.711951
v 6.47715 -11.0485 -31.3397
vn -0.567201 -0.314149 0.76131
v 6.56708 -11.0834 -31.294
vn -0.484529 -0.346236 0.803338
v 6.66209 -11.1146 -31.2567
vn -0.397191 -0.374989 0.837629
f 1 66 2 
f 1 65 66 
f 2 67 3 
f 2 66 67 
f 3 68 4 
f 3 67 68 
f 4 69 5 
f 4 68 69 
f 5 70 6 
f 5 69 70 
f 6 71 7 
f 6 70 71 
f 7 72 8 
f 7 71 72 
f 8 73 9 
f 8 72 73 
f 9 74 10 
f 9 73 74 
f 10 75 11 
f 10 74 75 
f 11 76 12 
f 11 75 76 
f 12 77 13 
f 12 76 77 
f 13 78 14 
f 13 77 78 
f 14 79 15 
f 14 78 79 
f 15 80 16 
f 15 79 80 
f 16 81 17 
f 16 80 81 
f 17 82 18 
f 17 81 82 
f 18 83 19 
f 18 82 83 
f 19 84 20 
f 19 83 84 
f 20 85 21 
f 20 84 85 
f 21 86 22 
f 21 85 86 
f 22 87 23 
f 22 86 87 
f 23 88 24 
f 23 87 88 
f 24 89 25 
f 24 88 89 
f 25 90 26 
f 25 89 90 
f 26 91 27 
f 26 90 91 
f 27 92 28 
f 27 91 92 
f 28 93 29 
f 28 92 93 
f 29 94 30 
f 29 93 94 
f 30 95 31 
f 30 94 95 
f 31 96 32 
f 31 95 96 
f 32 97 33 
f 32 96 97 
f 33 98 34 
f 33 97 98 
f 34 99 35 
f 34 98 99 
f 35 100 36 
f 35 99 100 
f 36 101 37 
f 36 100 101 
f 37 102 38 
f 37 101 102 
f 38 103 39 
f 38 102 103 
f 39 104 40 
f 39 103 104 
f 40 105 41 
f 40 104 105 
f 41 106 42 
f 41 105 106 
f 42 107 43 
f 42 106 107 
f 43 108 44 
f 43 107 108 
f 44 109 45 
f 44 108 109 
f 45 110 46 
f 45 109 110 
f 46 111 47 
f 46 110 111 
f 47 112 48 
f 47 111 112 
f 48 113 49 
f 48 112 113 
f 49 114 50 
f 49 113 114 
f 50 115 51 
f 50 114 115 
f 51 116 52 
f 51 115 116 
f 52 117 53 
f 52 116 117 
f 53 118 54 
f 53 117 118 
f 54 119 55 
f 54 118 119 
f 55 120 56 
f 55 119 120 
f 56 121 57 
f 56 120 121 
f 57 122 58 
f 57 121 122 
f 58 123 59 
f 58 122 123 
f 59 124 60 
f 59 123 124 
f 60 125 61 
f 60 124 125 
f 61 126 62 
f 61 125 126 
f 62 127 63 
f 62 126 127 
f 63 128 64 
f 63 127 128 
f 64 65 1 
f 64 128 65 
f 65 130 66 
f 65 129 130 
f 66 131 67 
f 66 130 131 
f 67 132 68 
f 67 131 132 
f 68 133 69 
f 68 132 133 
f 69 134 70 
f 69 133 134 
f 70 135 71 
f 70 134 135 
f 71 136 72 
f 71 135 136 
f 72 137 73 
f 72 136 137 
f 73 138 74 
f 73 137 138 
f 74 139 75 
f 74 138 139 
f 75 140 76 
f 75 139 140 
f 76 141 77 
f 76 140 141 
f 77 142 78 
f 77 141 142 
f 78 143 79 
f 78 142 143 
f 79 144 80 
f 79 143 144 
f 80 145 81 
f 80 144 145 
f 81 146 82 
f 81 145 146 
f 82 147 83 
f 82 146 147 
f 83 148 84 
f 83 147 148 
f 84 149 85 
f 84 148 149 
f 85 150 86 
f 85 149 150 
f 86 151 87 
f 86 150 151 
f 87 152 88 
f 87 151 152 
f 88 153 89 
f 88 152 153 
f 89 154 90 
f 89 153 154 
f 90 155 91 
f 90 154 155 
f 91 156 92 
f 91 155 156 
f 92 157 93 
f 92 156 157 
f 93 158 94 
f 93 157 158 
f 94 159 95 
f 94 158 159 
f 95 160 96 
f 95 159 160 
f 96 161 97 
f 96 160 161 
f 97 162 98 
f 97 161 162 
f 98 163 99 
f 98 162 163 
f 99 164 100 
f 99 163 164 
f 100 165 101 
f 100 164 165 
f 101 166 102 
f 101 165 166 
f 102 167 103 
f 102 166 167 
f 103 168 104 
f 103 167 168 
f 104 169 105 
f 104 168 169 
f 105 170 106 
f 105 169 170 
f 106 171 107 
f 106 170 171 
f 107 172 108 
f 107 171 172 
f 108 173 109 
f 108 172 173 
f 109 174 110 
f 109 173 174 
f 110 175 111 
f 110 174 175 
f 111 176 112 
f 111 175 176 
f 112 177 113 
f 112 176 177 
f 113 178 114 
f 113 177 178 
f 114 179 115 
f 114 178 179 
f 115 180 116 
f 115 179 180 
f 116 181 117 
f 116 180 181 
f 117 182 118 
f 117 181 182 
f 118 183 119 
f 118 182 183 
f 119 184 120 
f 119 183 184 
f 120 185 121 
f 120 184 185 
f 121 186 122 
f 121 185 186 
f 122 187 123 
f 122 186 187 
f 123 188 124 
f 123 187 188 
f 124 189 125 
f 124 188 189 
f 125 190 126 
f 125 189 190 
f 126 191 127 
f 126 190 191 
f 127 192 128 
f 127 191 192 
f 128 129 65 
f 128 192 129 
f 129 194 130 
f 129 193 194 
f 130 195 131 
f 130 194 195 
f 131 196 132 
f 131 195 196 
f 132 197 133 
f 132 196 197 
f 133 198 134 
f 133 197 198 
f 134 199 135 
f 134 198 199 
f 135 200 136 
f 135 199 200 
f 136 201 137 
f 136 200 201 
f 137 202 138 
f 137 201 202 
f 138 203 139 
f 138 202 203 
f 139 204 140 
f 139 203 204 
f 140 205 141 
f 140 204 205 
f 141 206 142 
f 141 205 206 
f 142 207 143 
f 142 206 207 
f 143 208 144 
f 143 207 208 
f 144 209 145 
f 144 208 209 
f 145 210 146 
f 145 209 210 
f 146 211 147 
f 146 210 211 
f 147 212 148 
f 147 211 212 
f 148 213 149 
f 148 212 213 
f 149 214 150 
f 149 213 214 
f 150 215 151 
f 150 214 215 
f 151 216 152 
f 151 215 216 
f 152 217 153 
f 152 216 217 
f 153 218 154 
f 153 217 218 
f 154 219 155 
f 154 218 219 
f 155 220 156 
f 155 219 220 
f 156 221 157 
f 156 220 221 
f 157 222 158 
f 157 221 222 
f 158 223 159 
f 158 222 223 
f 159 224 160 
f 159 223 224 
f 160 225 161 
f 160 224 225 
f 161 226 162 
f 161 225 226 
f 162 227 163 
f 162 226 227 
f 163 228 164 
f 163 227 228 
f 164 229 165 
f 164 228 229 
f 165 230 166 
f 165 229 230 
f 166 231 167 
f 166 230 231 
f 167 232 168 
f 167 231 232 
f 168 233 169 
f 168 232 233 
f 169 234 170 
f 169 233 234 
f 170 235 171 
f 170 234 235 
f 171 236 172 
f 171 235 236 
f 172 237 173 
f 172 236 237 
f 173 238 174 
f 173 237 238 
f 174 239 175 
f 174 238 239 
f 175 240 176 
f 175 239 240 
f 176 241 177 
f 176 240 241 
f 177 242 178 
f 177 241 242 
f 178 243 179 
f 178 242 243 
f 179 244 180 
f 179 243 244 
f 180 245 181 
f 180 244 245 
f 181 246 182 
f 181 245 246 
f 182 247 183 
f 182 246 247 
f 183 248 184 
f 183 247 248 
f 184 249 185 
f 184 248 249 
f 185 250 186 
f 185 249 250 
f 186 251 187 
f 186 250 251 
f 187 252 188 
f 187 251 252 
f 188 253 189 
f 188 252 253 
f 189 254 190 
f 189 253 254 
f 190 255 191 
f 190 254 255 
f 191 256 192 
f 191 255 256 
f 192 193 129 
f 192 256 193 
f 193 258 194 
f 193 257 258 
f 194 259 195 
f 194 258 259 
f 195 260 196 
f 195 259 260 
f 196 261 197 
f 196 260 261 
f 197 262 198 
f 197 261 262 
f 198 263 199 
f 198 262 263 
f 199 264 200 
f 199 263 264 
f 200 265 201 
f 200 264 265 
f 201 266 202 
f 201 265 266 
f 202 267 203 
f 202 266 267 
f 203 268 204 
f 203 267 268 
f 204 269 205 
f 204 268 269 
f 205 270 206 
f 205 269 270 
f 206 271 207 
f 206 270 271 
f 207 272 208 
f 207 271 272 
f 208 273 209 
f 208 272 273 
f 209 274 210 
f 209 273 274 
f 210 275 211 
f 210 274 275 
f 211 276 212 
f 211 275 276 
f 212 277 213 
f 212 276 277 
f 213 278 214 
f 213 277 278 
f 214 279 215 
f 214 278 279 
f 215 280 216 
f 215 279 280 
f 216 281 217 
f 216 280 281 
f 217 282 218 
f 217 281 282 
f 218 283 219 
f 218 282 283 
f 219 284 220 
f 219 283 284 
f 220 285 221 
f 220 284 285 
f 221 286 222 
f 221 285 286 
f 222 287 223 
f 222 286 287 
f 223 288 224 
f 223 287 288 
f 224 289 225 
f 224 288 289 
f 225 290 226 
f 225 289 290 
f 226 291 227 
f 226 290 291 
f 227 292 228 
f 227 291 292 
f 228 293 229 
f 228 292 293 
f 229 294 230 
f 229 293 294 
f 230 295 231 
f 230 294 295 
f 231 296 232 
f 231 295 296 
f 232 297 233 
f 232 296 297 
f 233 298 234 
f 233 297 298 
f 234 299 235 
f 234 298 299 
f 235 300 236 
f 235 299 300 
f 236 301 237 
f 236 300 301 
f 237 302 238 
f 237 301 302 
f 238 303 239 
f 238 302 303 
f 239 304 240 
f 239 303 304 
f 240 305 241 
f 240 304 305 
f 241 306 242 
f 241 305 306 
f 242 307 243 
f 242 306 307 
f 243 308 244 
f 243 307 308 
f 244 309 245 
f 244 308 309 
f 245 310 246 
f 245 309 310 
f 246 311 247 
f 246 310 311 
f 247 312 248 
f 247 311 312 
f 248 313 249 
f 248 312 313 
f 249 314 250 
f 249 313 314 
f 250 315 251 
f 250 314 315 
f 251 316 252 
f 251 315 316 
f 252 317 253 
f 252 316 317 
f 253 318 254 
f 253 317 318 
f 254 319 255 
f 254 318 319 
f 255 320 256 
f 255 319 320 
f 256 257 193 
f 256 320 257 
f 257 322 258 
f 257 321 322 
f 258 323 259 
f 258 322 323 
f 259 324 260 
f 259 323 324 
f 260 325 261 
f 260 324 325 
f 261 326 262 
f 261 325 326 
f 262 327 263 
f 262 326 327 
f 263 328 264 
f 263 327 328 
f 264 329 265 
f 264 328 329 
f 265 330 266 
f 265 329 330 
f 266 331 267 
f 266 330 331 
f 267 332 268 
f 267 331 332 
f 268 333 269 
f 268 332 333 
f 269 334 270 
f 269 333 334 
f 270 335 271 
f 270 334 335 
f 271 336 272 
f 271 335 336 
f 272 337 273 
f 272 336 337 
f 273 338 274 
f 273 337 338 
f 274 339 275 
f 274 338 339 
f 275 340 276 
f 275 339 340 
f 276 341 277 
f 276 340 341 
f 277 342 278 
f 277 341 342 
f 278 343 279 
f 278 342 343 
f 279 344 280 
f 279 343 344 
f 280 345 281 
f 280 344 345 
f 281 346 282 
f 281 345 346 
f 282 347 283 
f 282 346 347 
f 283 348 284 
f 283 347 348 
f 284 349 285 
f 284 348 349 
f 285 350 286 
f 285 349 350 
f 286 351 287 
f 286 350 351 
f 287 352 288 
f 287 351 352 
f 288 353 289 
f 288 352 353 
f 289 354 290 
f 289 353 354 
f 290 355 291 
f 290 354 355 
f 291 356 292 
f 291 355 356 
f 292 357 293 
f 292 356 357 
f 293 358 294 
f 293 357 358 
f 294 359 295 
f 294 358 359 
f 295 360 296 
f 295 359 360 
f 296 361 297 
f 296 360 361 
f 297 362 298 
f 297 361 362 
f 298 363 299 
f 298 362 363 
f 299 364 300 
f 299 363 364 
f 300 365 301 
f 300 364 365 
f 301 366 302 
f 301 365 366 
f 302 367 303 
f 302 366 367 
f 303 368 304 
f 303 367 368 
f 304 369 305 
f 304 368 369 
f 305 370 306 
f 305 369 370 
f 306 371 307 
f 306 370 371 
f 307 372 308 
f 307 371 372 
f 308 373 309 
f 308 372 373 
f 309 374 310 
f 309 373 374 
f 310 375 311 
f 310 374 375 
f 311 376 312 
f 311 375 376 
f 312 377 313 
f 312 376 377 
f 313 378 314 
f 313 377 378 
f 314 379 315 
f 314 378 379 
f 315 380 316 
f 315 379 380 
f 316 381 317 
f 316 380 381 
f 317 382 318 
f 317 381 382 
f 318 383 319 
f 318 382 383 
f 319 384 320 
f 319 383 384 
f 320 321 257 
f 320 384 321 
f 321 386 322 
f 321 385 386 
f 322 387 323 
f 322 386 387 
f 323 388 324 
f 323 387 388 
f 324 389 325 
f 324 388 389 
f 325 390 326 
f 325 389 390 
f 326 391 327 
f 326 390 391 
f 327 392 328 
f 327 391 392 
f 328 393 329 
f 328 392 393 
f 329 394 330 
f 329 393 394 
f 330 395 331 
f 330 394 395 
f 331 396 332 
f 331 395 396 
f 332 397 333 
f 332 396 397 
f 333 398 334 
f 333 397 398 
f 334 399 335 
f 334 398 399 
f 335 400 336 
f 335 399 400 
f 336 401 337 
f 336 400 401 
f 337 402 338 
f 337 401 402 
f 338 403 339 
f 338 402 403 
f 339 404 340 
f 339 403 404 
f 340 405 341 
f 340 404 405 
f 341 406 342 
f 341 405 406 
f 342 407 343 
f 342 406 407 
f 343 408 344 
f 343 407 408 
f 344 409 345 
f 344 408 409 
f 345 410 346 
f 345 409 410 
f 346 411 347 
f 346 410 411 
f 347 412 348 
f 347 411 412 
f 348 413 349 
f 348 412 413 
f 349 414 350 
f 349 413 414 
f 350 415 351 
f 350 414 415 
f 351 416 352 
f 351 415 416 
f 352 417 353 
f 352 416 417 
f 353 418 354 
f 353 417 418 
f 354 419 355 
f 354 418 419 
f 355 420 356 
f 355 419 420 
f 356 421 357 
f 356 420 421 
f 357 422 358 
f 357 421 422 
f 358 423 359 
f 358 422 423 
f 359 424 360 
f 359 423 424 
f 360 425 361 
f 360 424 425 
f 361 426 362 
f 361 425 426 
f 362 427 363 
f 362 426 427 
f 363 428 364 
f 363 427 428 
f 364 429 365 
f 364 428 429 
f 365 430 366 
f 365 429 430 
f 366 431 367 
f 366 430 431 
f 367 432 368 
f 367 431 432 
f 368 433 369 
f 368 432 433 
f 369 434 370 
f 369 433 434 
f 370 435 371 
f 370 434 435 
f 371 436 372 
f 371 435 436 
f 372 437 373 
f 372 436 437 
f 373 438 374 
f 373 437 438 
f 374 439 375 
f 374 438 439 
f 375 440 376 
f 375 439 440 
f 376 441 377 
f 376 440 441 
f 377 442 378 
f 377 441 442 
f 378 443 379 
f 378 442 443 
f 379 444 380 
f 379 443 444 
f 380 445 381 
f 380 444 445 
f 381 446 382 
f 381 445 446 
f 382 447 383 
f 382 446 447 
f 383 448 384 
f 383 447 448 
f 384 385 321 
f 384 448 385 
f 385 450 386 
f 385 449 450 
f 386 451 387 
f 386 450 451 
f 387 452 388 
f 387 451 452 
f 388 453 389 
f 388 452 453 
f 389 454 390 
f 389 453 454 
f 390 455 391 
f 390 454 455 
f 391 456 392 
f 391 455 456 
f 392 457 393 
f 392 456 457 
f 393 458 394 
f 393 457 458 
f 394 459 395 
f 394 458 459 
f 395 460 396 
f 395 459 460 
f 396 461 397 
f 396 460 461 
f 397 462 398 
f 397 461 462 
f 398 463 399 
f 398 462 463 
f 399 464 400 
f 399 463 464 
f 400 465 401 
f 400 464 465 
f 401 466 402 
f 401 465 466 
f 402 467 403 
f 402 466 467 
f 403 468 404 
f 403 467 468 
f 404 469 405 
f 404 468 469 
f 405 470 406 
f 405 469 470 
f 406 471 407 
f 406 470 471 
f 407 472 408 
f 407 471 472 
f 408 473 409 
f 408 472 473 
f 409 474 410 
f 409 473 474 
f 410 475 411 
f 410 474 475 
f 411 476 412 
f 411 475 476 
f 412 477 413 
f 412 476 477 
f 413 478 414 
f 413 477 478 
f 414 479 415 
f 414 478 479 
f 415 480 416 
f 415 479 480 
f 416 481 417 
f 416 480 481 
f 417 482 418 
f 417 481 482 
f 418 483 419 
f 418 482 483 
f 419 484 420 
f 419 483 484 
f 420 485 421 
f 420 484 485 
f 421 486 422 
f 421 485 486 
f 422 487 423 
f 422 486 487 
f 423 488 424 
f 423 487 488 
f 424 489 425 
f 424 488 489 
f 425 490 426 
f 425 489 490 
f 426 491 427 
f 426 490 491 
f 427 492 428 
f 427 491 492 
f 428 493 429 
f 428 492 493 
f 429 494 430 
f 429 493 494 
f 430 495 431 
f 430 494 495 
f 431 496 432 
f 431 495 496 
f 432 497 433 
f 432 496 497 
f 433 498 434 
f 433 497 498 
f 434 499 435 
f 434 498 499 
f 435 500 436 
f 435 499 500 
f 436 501 437 
f 436 500 501 
f 437 502 438 
f 437 501 502 
f 438 503 439 
f 438 502 503 
f 439 504 440 
f 439 503 504 
f 440 505 441 
f 440 504 505 
f 441 506 442 
f 441 505 506 
f 442 507 443 
f 442 506 507 
f 443 508 444 
f 443 507 508 
f 444 509 445 
f 444 508 509 
f 445 510 446 
f 445 509 510 
f 446 511 447 
f 446 510 511 
f 447 512 448 
f 447 511 512 
f 448 449 385 
f 448 512 449 
f 449 514 450 
f 449 513 514 
f 450 515 451 
f 450 514 515 
f 451 516 452 
f 451 515 516 
f 452 517 453 
f 452 516 517 
f 453 518 454 
f 453 517 518 
f 454 519 455 
f 454 518 519 
f 455 520 456 
f 455 519 520 
f 456 521 457 
f 456 520 521 
f 457 522 458 
f 457 521 522 
f 458 523 459 
f 458 522 523 
f 459 524 460 
f 459 523 524 
f 460 525 461 
f 460 524 525 
f 461 526 462 
f 461 525 526 
f 462 527 463 
f 462 526 527 
f 463 528 464 
f 463 527 528 
f 464 529 465 
f 464 528 529 
f 465 530 466 
f 465 529 530 
f 466 531 467 
f 466 530 531 
f 467 532 468 
f 467 531 532 
f 468 533 469 
f 468 532 533 
f 469 534 470 
f 469 533 534 
f 470 535 471 
f 470 534 535 
f 471 536 472 
f 471 535 536 
f 472 537 473 
f 472 536 537 
f 473 538 474 
f 473 537 538 
f 474 539 475 
f 474 538 539 
f 475 540 476 
f 475 539 540 
f 476 541 477 
f 476 540 541 
f 477 542 478 
f 477 541 542 
f 478 543 479 
f 478 542 543 
f 479 544 480 
f 479 543 544 
f 480 545 481 
f 480 544 545 
f 481 546 482 
f 481 545 546 
f 482 547 483 
f 482 546 547 
f 483 548 484 
f 483 547 548 
f 484 549 485 
f 484 548 549 
f 485 550 486 
f 485 549 550 
f 486 551 487 
f 486 550 551 
f 487 552 488 
f 487 551 552 
f 488 553 489 
f 488 552 553 
f 489 554 490 
f 489 553 554 
f 490 555 491 
f 490 554 555 
f 491 556 492 
f 491 555 556 
f 492 557 493 
f 492 556 557 
f 493 558 494 
f 493 557 558 
f 494 559 495 
f 494 558 559 
f 495 560 496 
f 495 559 560 
f 496 561 497 
f 496 560 561 
f 497 562 498 
f 497 561 562 
f 498 563 499 
f 498 562 563 
f 499 564 500 
f 499 563 564 
f 500 565 501 
f 500 564 565 
f 501 566 502 
f 501 565 566 
f 502 567 503 
f 502 566 567 
f 503 568 504 
f 503 567 568 
f 504 569 505 
f 504 568 569 
f 505 570 506 
f 505 569 570 
f 506 571 507 
f 506 570 571 
f 507 572 508 
f 507 571 572 
f 508 573 509 
f 508 572 573 
f 509 574 510 
f 509 573 574 
f 510 575 511 
f 510 574 575 
f 511 576 512 
f 511 575 576 
f 512 513 449 
f 512 576 513 
f 513 578 514 
f 513 577 578 
f 514 579 515 
f 514 578 579 
f 515 580 516 
f 515 579 580 
f 516 581 517 
f 516 580 581 
f 517 582 518 
f 517 581 582 
f 518 583 519 
f 518 582 583 
f 519 584 520 
f 519 583 584 
f 520 585 521 
f 520 584 585 
f 521 586 522 
f 521 585 586 
f 522 587 523 
f 522 586 587 
f 523 588 524 
f 523 587 588 
f 524 589 525 
f 524 588 589 
f 525 590 526 
f 525 589 590 
f 526 591 527 
f 526 590 591 
f 527 592 528 
f 527 591 592 
f 528 593 529 
f 528 592 593 
f 529 594 530 
f 529 593 594 
f 530 595 531 
f 530 594 595 
f 531 596 532 
f 531 595 596 
f 532 597 533 
f 532 596 597 
f 533 598 534 
f 533 597 598 
f 534 599 535 
f 534 598 599 
f 535 600 536 
f 535 599 600 
f 536 601 537 
f 536 600 601 
f 537 602 538 
f 537 601 602 
f 538 603 539 
f 538 602 603 
f 539 604 540 
f 539 603 604 
f 540 605 541 
f 540 604 605 
f 541 606 542 
f 541 605 606 
f 542 607 543 
f 542 606 607 
f 543 608 544 
f 543 607 608 
f 544 609 545 
f 544 608 609 
f 545 610 546 
f 545 609 610 
f 546 611 547 
f 546 610 611 
f 547 612 548 
f 547 611 612 
f 548 613 549 
f 548 612 613 
f 549 614 550 
f 549 613 614 
f 550 615 551 
f 550 614 615 
f 551 616 552 
f 551 615 616 
f 552 617 553 
f 552 616 617 
f 553 618 554 
f 553 617 618 
f 554 619 555 
f 554 618 619 
f 555 620 556 
f 555 619 620 
f 556 621 557 
f 556 620 621 
f 557 622 558 
f 557 621 622 
f 558 623 559 
f 558 622 623 
f 559 624 560 
f 559 623 624 
f 560 625 561 
f 560 624 625 
f 561 626 562 
f 561 625 626 
f 562 627 563 
f 562 626 627 
f 563 628 564 
f 563 627 628 
f 564 629 565 
f 564 628 629 
f 565 630 566 
f 565 629 630 
f 566 631 567 
f 566 630 631 
f 567 632 568 
f 567 631 632 
f 568 633 569 
f 568 632 633 
f 569 634 570 
f 569 633 634 
f 570 635 571 
f 570 634 635 
f 571 636 572 
f 571 635 636 
f 572 637 573 
f 572 636 637 
f 573 638 574 
f 573 637 638 
f 574 639 575 
f 574 638 639 
f 575 640 576 
f 575 639 640 
f 576 577 513 
f 576 640 577 
