# Branch
v 11.7162 10.1841 -28.8086
vn -0.261461 0.359088 0.895932
v 11.7935 10.1662 -28.7834
vn -0.170346 0.337941 0.925623
v 11.8721 10.1455 -28.7658
vn -0.0775917 0.313539 0.9464
v 11.9514 10.1222 -28.7559
vn 0.0159102 0.286118 0.958062
v 12.0306 10.0966 -28.7538
vn 0.109259 0.255941 0.960498
v 12.1089 10.0689 -28.7596
vn 0.201555 0.223299 0.953684
v 12.1855 10.0394 -28.7732
vn 0.291911 0.188507 0.937685
v 12.2598 10.0084 -28.7944
vn 0.379455 0.1519 0.912656
v 12.3309 9.97608 -28.8231
vn 0.463345 0.113829 0.878837
v 12.3983 9.94286 -28.8589
vn 0.542772 0.0746629 0.836555
v 12.4612 9.90903 -28.9016
vn 0.616972 0.0347772 0.786216
v 12.5191 9.87491 -28.9508
vn 0.685231 -0.00544339 0.728305
v 12.5714 9.84084 -29.0058
vn 0.74689 -0.0456116 0.663381
v 12.6176 9.80714 -29.0663
vn 0.801357 -0.0853405 0.592068
v 12.6573 9.77414 -29.1316
vn 0.848106 -0.124247 0.515053
v 12.69 9.74216 -29.2012
vn 0.886687 -0.161958 0.433077
v 12.7155 9.7115 -29.2742
vn 0.916729 -0.198109 0.346931
v 12.7335 9.68245 -29.3501
vn 0.937942 -0.232351 0.257444
v 12.7438 9.65531 -29.4281
vn 0.950123 -0.264357 0.165477
v 12.7464 9.63032 -29.5075
vn 0.953153 -0.293816 0.0719171
v 12.7412 9.60773 -29.5874
vn 0.947004 -0.320446 -0.0223357
v 12.7282 9.58777 -29.6672
vn 0.931734 -0.343989 -0.116373
v 12.7077 9.57061 -29.746
vn 0.907492 -0.36422 -0.20929
v 12.6797 9.55642 -29.8231
vn 0.87451 -0.380943 -0.300192
v 12.6446 9.54535 -29.8978
vn 0.833106 -0.393997 -0.388202
v 12.6026 9.5375 -29.9692
vn 0.783678 -0.403257 -0.472474
v 12.5543 9.53293 -30.0369
vn 0.726704 -0.408634 -0.552196
v 12.5001 9.53171 -30.1
vn 0.662731 -0.410075 -0.626599
v 12.4404 9.53384 -30.1579
vn 0.592375 -0.407567 -0.694968
v 12.3759 9.5393 -30.2103
vn 0.516314 -0.401134 -0.756645
v 12.3071 9.54803 -30.2564
vn 0.435282 -0.390837 -0.811034
v 12.2349 9.55996 -30.2959
vn 0.350057 -0.376777 -0.857613
v 12.1597 9.57496 -30.3284
vn 0.261461 -0.359088 -0.895932
v 12.0824 9.5929 -30.3536
vn 0.170346 -0.337941 -0.925623
v 12.0038 9.61359 -30.3712
vn 0.0775917 -0.313539 -0.9464
v 11.9244 9.63685 -30.3811
vn -0.0159102 -0.286118 -0.958062
v 11.8453 9.66245 -30.3832
vn -0.109259 -0.255941 -0.960498
v 11.767 9.69013 -30.3774
vn -0.201555 -0.223299 -0.953684
v 11.6904 9.71964 -30.3638
vn -0.291911 -0.188507 -0.937685
v 11.6161 9.75069 -30.3426
vn -0.379455 -0.1519 -0.912656
v 11.5449 9.78298 -30.3139
vn -0.463345 -0.113829 -0.878837
v 11.4776 9.8162 -30.278
vn -0.542772 -0.0746629 -0.836555
v 11.4146 9.85003 -30.2353
vn -0.616972 -0.0347772 -0.786216
v 11.3567 9.88415 -30.1862
vn -0.685231 0.00544339 -0.728305
v 11.3044 9.91821 -30.1312
vn -0.74689 0.0456116 -0.663381
v 11.2583 9.95191 -30.0707
vn -0.801357 0.0853405 -0.592068
v 11.2186 9.98491 -30.0053
vn -0.848106 0.124247 -0.515053
v 11.1859 10.0169 -29.9358
vn -0.886687 0.161958 -0.433077
v 11.1604 10.0476 -29.8627
vn -0.916729 0.198109 -0.346931
v 11.1424 10.0766 -29.7868
vn -0.937942 0.232351 -0.257444
v 11.1321 10.1037 -29.7088
vn -0.950123 0.264357 -0.165477
v 11.1295 10.1287 -29.6295
vn -0.953153 0.293816 -0.0719171
v 11.1347 10.1513 -29.5495
vn -0.947004 0.320446 0.0223357
v 11.1477 10.1713 -29.4698
vn -0.931734 0.343989 0.116373
v 11.1682 10.1885 -29.391
vn -0.907492 0.36422 0.20929
v 11.1962 10.2026 -29.3139
vn -0.87451 0.380943 0.300192
v 11.2313 10.2137 -29.2392
vn -0.833106 0.393997 0.388202
v 11.2732 10.2216 -29.1678
vn -0.783678 0.403257 0.472474
v 11.3216 10.2261 -29.1001
vn -0.726704 0.408634 0.552196
v 11.3758 10.2273 -29.037
vn -0.662731 0.410075 0.626599
v 11.4355 10.2252 -28.979
vn -0.592375 0.407567 0.694968
v 11.5 10.2198 -28.9267
vn -0.516314 0.401134 0.756645
v 11.5687 10.211 -28.8806
vn -0.435282 0.390837 0.811034
v 11.641 10.1991 -28.8411
vn -0.350057 0.376777 0.857613
v 11.1287 8.30643 -28.3285
vn -0.29065 0.265076 0.919379
v 11.2071 8.28866 -28.3031
vn -0.199396 0.244381 0.948957
v 11.2871 8.26886 -28.2856
vn -0.106221 0.221333 0.969396
v 11.368 8.24724 -28.276
vn -0.0120226 0.196154 0.980499
v 11.449 8.22399 -28.2746
vn 0.0822911 0.169085 0.98216
v 11.5293 8.19934 -28.2813
vn 0.175812 0.140388 0.974362
v 11.6082 8.17354 -28.2961
vn 0.26764 0.110339 0.95718
v 11.6849 8.14682 -28.3187
vn 0.356891 0.0792274 0.93078
v 11.7586 8.11944 -28.3491
vn 0.442704 0.0473528 0.895416
v 11.8286 8.09167 -28.3869
vn 0.524254 0.0150221 0.851429
v 11.8943 8.06378 -28.4317
vn 0.600756 -0.0174532 0.799242
v 11.955 8.03604 -28.4831
vn 0.671471 -0.0497605 0.739358
v 12.0102 8.0087 -28.5407
vn 0.73572 -0.0815885 0.672354
v 12.0593 7.98204 -28.6038
vn 0.792883 -0.112631 0.598874
v 12.1018 7.95631 -28.6719
vn 0.842411 -0.142588 0.519627
v 12.1374 7.93176 -28.7442
vn 0.883826 -0.171173 0.435376
v 12.1657 7.90863 -28.8202
vn 0.916729 -0.198109 0.346931
v 12.1864 7.88713 -28.899
vn 0.940803 -0.223137 0.255146
v 12.1992 7.86748 -28.9799
vn 0.955817 -0.246016 0.160903
v 12.2042 7.84987 -29.0622
vn 0.961626 -0.266526 0.0651109
v 12.2013 7.83446 -29.145
vn 0.958174 -0.284469 -0.0313084
v 12.1904 7.8214 -29.2276
vn 0.945494 -0.299672 -0.127426
v 12.1717 7.81082 -29.3091
vn 0.923709 -0.311989 -0.222317
v 12.1453 7.80282 -29.3887
vn 0.893027 -0.321302 -0.315066
v 12.1116 7.79748 -29.4658
vn 0.853746 -0.327521 -0.404782
v 12.0708 7.79485 -29.5395
vn 0.806242 -0.330585 -0.490599
v 12.0233 7.79496 -29.6091
vn 0.750974 -0.330466 -0.571691
v 11.9696 7.79779 -29.674
vn 0.688474 -0.327164 -0.647277
v 11.9103 7.80333 -29.7336
vn 0.619343 -0.320711 -0.71663
v 11.8458 7.81153 -29.7872
vn 0.544247 -0.311169 -0.779082
v 11.7768 7.8223 -29.8344
vn 0.46391 -0.298631 -0.83403
v 11.7039 7.83553 -29.8747
vn 0.379106 -0.283217 -0.880947
v 11.628 7.85111 -29.9077
vn 0.29065 -0.265076 -0.919379
v 11.5496 7.86889 -29.9331
vn 0.199396 -0.244381 -0.948957
v 11.4696 7.88868 -29.9507
vn 0.106221 -0.221333 -0.969396
v 11.3887 7.91031 -29.9602
vn 0.0120226 -0.196154 -0.980499
v 11.3077 7.93355 -29.9616
vn -0.0822911 -0.169085 -0.98216
v 11.2274 7.9582 -29.9549
vn -0.175812 -0.140388 -0.974362
v 11.1485 7.98401 -29.9402
vn -0.26764 -0.110339 -0.95718
v 11.0718 8.01073 -29.9175
vn -0.356891 -0.0792274 -0.93078
v 10.9981 8.0381 -29.8871
vn -0.442704 -0.0473528 -0.895416
v 10.9281 8.06587 -29.8494
vn -0.524254 -0.0150221 -0.851429
v 10.8624 8.09376 -29.8045
vn -0.600756 0.0174532 -0.799242
v 10.8017 8.12151 -29.7531
vn -0.671471 0.0497605 -0.739358
v 10.7465 8.14884 -29.6956
vn -0.73572 0.0815885 -0.672354
v 10.6974 8.1755 -29.6325
vn -0.792883 0.112631 -0.598874
v 10.6549 8.20123 -29.5644
vn -0.842411 0.142588 -0.519627
v 10.6193 8.22578 -29.492
vn -0.883826 0.171173 -0.435376
v 10.591 8.24892 -29.4161
vn -0.916729 0.198109 -0.346931
v 10.5704 8.27041 -29.3373
vn -0.940803 0.223137 -0.255146
v 10.5575 8.29006 -29.2563
vn -0.955817 0.246016 -0.160903
v 10.5525 8.30767 -29.174
vn -0.961626 0.266526 -0.0651109
v 10.5554 8.32308 -29.0912
vn -0.958174 0.284469 0.0313084
v 10.5663 8.33614 -29.0087
vn -0.945494 0.299672 0.127426
v 10.585 8.34672 -28.9272
vn -0.923709 0.311989 0.222317
v 10.6114 8.35472 -28.8475
vn -0.893027 0.321302 0.315066
v 10.6451 8.36006 -28.7705
vn -0.853746 0.327521 0.404782
v 10.6859 8.36269 -28.6968
vn -0.806242 0.330585 0.490599
v 10.7334 8.36259 -28.6271
vn -0.750974 0.330466 0.571691
v 10.7871 8.35975 -28.5622
vn -0.688474 0.327164 0.647277
v 10.8464 8.35421 -28.5027
vn -0.619343 0.320711 0.71663
v 10.9109 8.34602 -28.449
vn -0.544247 0.311169 0.779082
v 10.9799 8.33525 -28.4018
vn -0.46391 0.298631 0.83403
v 11.0528 8.32201 -28.3615
vn -0.379106 0.283217 0.880947
v 10.6111 6.406 -28.046
vn -0.317908 0.164193 0.933796
v 10.6906 6.38843 -28.0203
vn -0.226522 0.143984 0.963305
v 10.7719 6.36965 -28.0027
vn -0.132954 0.122389 0.983537
v 10.8544 6.34985 -27.9934
vn -0.0381063 0.0996147 0.994296
v 10.9372 6.32921 -27.9923
vn 0.0571086 0.0758814 0.99548
v 11.0195 6.30794 -27.9996
vn 0.151773 0.0514173 0.987077
v 11.1005 6.28624 -28.0152
vn 0.244977 0.026458 0.969168
v 11.1795 6.26431 -28.0389
vn 0.335821 0.00124388 0.941925
v 11.2557 6.24238 -28.0705
vn 0.42343 -0.0239822 0.905611
v 11.3283 6.22065 -28.1096
vn 0.506962 -0.0489773 0.860576
v 11.3967 6.19932 -28.156
vn 0.585612 -0.0735008 0.807252
v 11.4602 6.17861 -28.2091
vn 0.658622 -0.0973163 0.746155
v 11.5182 6.15872 -28.2685
vn 0.725289 -0.120195 0.677871
v 11.5701 6.13984 -28.3336
vn 0.784971 -0.141916 0.603059
v 11.6154 6.12214 -28.4037
vn 0.837093 -0.16227 0.52244
v 11.6537 6.1058 -28.4781
vn 0.881154 -0.181061 0.436789
v 11.6846 6.09098 -28.5563
vn 0.916729 -0.198109 0.346931
v 11.7079 6.07781 -28.6373
vn 0.943475 -0.213248 0.253733
v 11.7232 6.06643 -28.7205
vn 0.961135 -0.226334 0.15809
v 11.7305 6.05695 -28.8049
vn 0.969538 -0.237241 0.0609257
v 11.7297 6.04945 -28.8899
vn 0.968605 -0.245862 -0.0368257
v 11.7208 6.04402 -28.9746
vn 0.958343 -0.252116 -0.134222
v 11.7039 6.04069 -29.0582
vn 0.938852 -0.255942 -0.230327
v 11.6791 6.03951 -29.1398
vn 0.910319 -0.257303 -0.324213
v 11.6466 6.04048 -29.2187
vn 0.87302 -0.256186 -0.414976
v 11.6069 6.04359 -29.2942
vn 0.827313 -0.252601 -0.501743
v 11.5602 6.04883 -29.3654
vn 0.773638 -0.246585 -0.583679
v 11.5071 6.05612 -29.4318
vn 0.712512 -0.238193 -0.659993
v 11.4479 6.06541 -29.4926
vn 0.644525 -0.227507 -0.72995
v 11.3834 6.07661 -29.5473
vn 0.570331 -0.214631 -0.792879
v 11.3141 6.0896 -29.5954
vn 0.490644 -0.199687 -0.848171
v 11.2408 6.10427 -29.6364
vn 0.406232 -0.18282 -0.895295
v 11.164 6.12047 -29.6699
vn 0.317908 -0.164193 -0.933796
v 11.0845 6.13804 -29.6955
vn 0.226522 -0.143984 -0.963305
v 11.0031 6.15681 -29.7131
vn 0.132954 -0.122389 -0.983537
v 10.9207 6.17662 -29.7225
vn 0.0381063 -0.0996147 -0.994296
v 10.8379 6.19725 -29.7235
vn -0.0571086 -0.0758814 -0.99548
v 10.7556 6.21852 -29.7162
vn -0.151773 -0.0514173 -0.987077
v 10.6745 6.24023 -29.7006
vn -0.244977 -0.026458 -0.969168
v 10.5955 6.26215 -29.6769
vn -0.335821 -0.00124388 -0.941925
v 10.5194 6.28408 -29.6453
vn -0.42343 0.0239822 -0.905611
v 10.4467 6.30582 -29.6062
vn -0.506962 0.0489773 -0.860576
v 10.3783 6.32714 -29.5598
vn -0.585612 0.0735008 -0.807252
v 10.3149 6.34785 -29.5067
vn -0.658622 0.0973163 -0.746155
v 10.2569 6.36774 -29.4473
vn -0.725289 0.120195 -0.677871
v 10.205 6.38663 -29.3823
vn -0.784971 0.141916 -0.603059
v 10.1597 6.40433 -29.3122
vn -0.837093 0.16227 -0.52244
v 10.1214 6.42066 -29.2377
vn -0.881154 0.181061 -0.436789
v 10.0904 6.43549 -29.1596
vn -0.916729 0.198109 -0.346931
v 10.0672 6.44865 -29.0785
vn -0.943475 0.213248 -0.253733
v 10.0518 6.46003 -28.9954
vn -0.961135 0.226334 -0.15809
v 10.0445 6.46951 -28.9109
vn -0.969538 0.237241 -0.0609257
v 10.0453 6.47701 -28.8259
vn -0.968605 0.245862 0.0368257
v 10.0543 6.48245 -28.7412
vn -0.958343 0.252116 0.134222
v 10.0712 6.48577 -28.6576
vn -0.938852 0.255942 0.230327
v 10.096 6.48696 -28.576
vn -0.910319 0.257303 0.324213
v 10.1284 6.48599 -28.4971
vn -0.87302 0.256186 0.414976
v 10.1682 6.48287 -28.4216
vn -0.827313 0.252601 0.501743
v 10.2149 6.47764 -28.3504
vn -0.773638 0.246585 0.583679
v 10.268 6.47034 -28.284
vn -0.712512 0.238193 0.659993
v 10.3271 6.46105 -28.2232
vn -0.644525 0.227507 0.72995
v 10.3916 6.44985 -28.1685
vn -0.570331 0.214631 0.792879
v 10.4609 6.43686 -28.1204
vn -0.490644 0.199687 0.848171
v 10.5343 6.42219 -28.0795
vn -0.406232 0.18282 0.895295
v 10.1644 4.48519 -27.9624
vn -0.342068 0.0593979 0.937796
v 10.2449 4.46784 -27.9365
vn -0.250566 0.0396938 0.967286
v 10.3276 4.45017 -27.9187
vn -0.15665 0.0196075 0.987459
v 10.4116 4.43232 -27.9093
vn -0.0612263 -0.000667669 0.998124
v 10.4961 4.41448 -27.9084
vn 0.0347874 -0.0209364 0.999175
v 10.5803 4.39682 -27.916
vn 0.130466 -0.0410035 0.990605
v 10.6634 4.3795 -27.9319
vn 0.224888 -0.0606757 0.972494
v 10.7446 4.3627 -27.9561
vn 0.317145 -0.0797636 0.945017
v 10.8231 4.34658 -27.9883
vn 0.406347 -0.0980833 0.908439
v 10.8982 4.33129 -28.0282
vn 0.491635 -0.115458 0.863113
v 10.9691 4.31697 -28.0754
vn 0.572189 -0.131722 0.809474
v 11.0351 4.30377 -28.1294
vn 0.647233 -0.146716 0.74804
v 11.0957 4.29182 -28.1899
vn 0.716043 -0.160298 0.679402
v 11.1502 4.28122 -28.256
vn 0.777958 -0.172336 0.60422
v 11.1981 4.27209 -28.3273
vn 0.83238 -0.182714 0.52322
v 11.239 4.2645 -28.4031
vn 0.878786 -0.191333 0.437181
v 11.2723 4.25854 -28.4825
vn 0.916729 -0.198109 0.346931
v 11.298 4.25425 -28.5649
vn 0.945843 -0.202977 0.253341
v 11.3156 4.25169 -28.6494
vn 0.965848 -0.20589 0.15731
v 11.325 4.25087 -28.7352
vn 0.976552 -0.20682 0.0597647
v 11.3261 4.25181 -28.8216
vn 0.977851 -0.205759 -0.0383564
v 11.319 4.25448 -28.9076
vn 0.969732 -0.202716 -0.136108
v 11.3036 4.25888 -28.9925
vn 0.952275 -0.197721 -0.232549
v 11.2802 4.26495 -29.0754
vn 0.925647 -0.190822 -0.32675
v 11.2489 4.27264 -29.1556
vn 0.890104 -0.182085 -0.417805
v 11.2101 4.28188 -29.2322
vn 0.845989 -0.171594 -0.504835
v 11.1641 4.29256 -29.3045
vn 0.793726 -0.159451 -0.587004
v 11.1114 4.3046 -29.3719
vn 0.73382 -0.145772 -0.66352
v 11.0524 4.31788 -29.4336
vn 0.666846 -0.130689 -0.733646
v 10.9878 4.33226 -29.4891
vn 0.593451 -0.114348 -0.796706
v 10.9182 4.34761 -29.5378
vn 0.51434 -0.0969057 -0.852094
v 10.8442 4.36379 -29.5794
vn 0.430276 -0.0785299 -0.899275
v 10.7666 4.38063 -29.6133
vn 0.342068 -0.0593979 -0.937796
v 10.686 4.39797 -29.6392
vn 0.250566 -0.0396938 -0.967286
v 10.6034 4.41565 -29.657
vn 0.15665 -0.0196075 -0.987459
v 10.5194 4.4335 -29.6664
vn 0.0612263 0.000667669 -0.998124
v 10.4349 4.45134 -29.6673
vn -0.0347874 0.0209364 -0.999175
v 10.3506 4.469 -29.6597
vn -0.130466 0.0410035 -0.990605
v 10.2675 4.48631 -29.6438
vn -0.224888 0.0606757 -0.972494
v 10.1863 4.50311 -29.6196
vn -0.317145 0.0797636 -0.945017
v 10.1078 4.51924 -29.5874
vn -0.406347 0.0980833 -0.908439
v 10.0328 4.53453 -29.5475
vn -0.491635 0.115458 -0.863113
v 9.96186 4.54884 -29.5003
vn -0.572189 0.131722 -0.809474
v 9.8958 4.56204 -29.4462
vn -0.647233 0.146716 -0.74804
v 9.83524 4.574 -29.3858
vn -0.716043 0.160298 -0.679402
v 9.78075 4.58459 -29.3197
vn -0.777958 0.172336 -0.60422
v 9.73284 4.59373 -29.2484
vn -0.83238 0.182714 -0.52322
v 9.692 4.60131 -29.1726
vn -0.878786 0.191333 -0.437181
v 9.6586 4.60728 -29.0932
vn -0.916729 0.198109 -0.346931
v 9.63298 4.61156 -29.0108
vn -0.945843 0.202977 -0.253341
v 9.61537 4.61412 -28.9263
vn -0.965848 0.20589 -0.15731
v 9.60595 4.61494 -28.8405
vn -0.976552 0.20682 -0.0597647
v 9.60481 4.61401 -28.7541
vn -0.977851 0.205759 0.0383564
v 9.61195 4.61133 -28.6681
vn -0.969732 0.202716 0.136108
v 9.62732 4.60693 -28.5832
vn -0.952275 0.197721 0.232549
v 9.65075 4.60086 -28.5003
vn -0.925647 0.190822 0.32675
v 9.68204 4.59317 -28.4201
vn -0.890104 0.182085 0.417805
v 9.72087 4.58394 -28.3435
vn -0.845989 0.171594 0.504835
v 9.76687 4.57325 -28.2712
vn -0.793726 0.159451 0.587004
v 9.81959 4.56121 -28.2038
vn -0.73382 0.145772 0.66352
v 9.87854 4.54794 -28.1421
vn -0.666846 0.130689 0.733646
v 9.94314 4.53355 -28.0866
vn -0.593451 0.114348 0.796706
v 10.0128 4.5182 -28.0379
vn -0.51434 0.0969057 0.852094
v 10.0868 4.50203 -27.9963
vn -0.430276 0.0785299 0.899275
v 9.78952 2.54702 -28.0786
vn -0.362213 -0.0457731 0.930971
v 9.87112 2.52992 -28.0523
vn -0.270614 -0.0649707 0.960493
v 9.95504 2.51338 -28.0342
vn -0.176408 -0.0835427 0.980765
v 10.0405 2.49755 -28.0246
vn -0.0805037 -0.10131 0.991592
v 10.1266 2.48259 -28.0235
vn 0.0161759 -0.118102 0.99287
v 10.2126 2.46865 -28.0308
vn 0.1127 -0.133756 0.984585
v 10.2976 2.45585 -28.0467
vn 0.208138 -0.148122 0.966819
v 10.3808 2.44432 -28.0708
vn 0.301572 -0.161062 0.939741
v 10.4615 2.43418 -28.103
vn 0.392102 -0.17245 0.903613
v 10.5388 2.42551 -28.1429
vn 0.478856 -0.182178 0.858783
v 10.6119 2.41841 -28.1902
vn 0.560997 -0.190152 0.805682
v 10.6803 2.41294 -28.2444
vn 0.637737 -0.196294 0.744823
v 10.7432 2.40915 -28.305
vn 0.708334 -0.200545 0.67679
v 10.8 2.40708 -28.3714
vn 0.77211 -0.202865 0.602239
v 10.8502 2.40676 -28.443
vn 0.82845 -0.203232 0.521888
v 10.8933 2.40817 -28.5191
vn 0.876811 -0.201641 0.436512
v 10.9288 2.41132 -28.5989
vn 0.916729 -0.198109 0.346931
v 10.9565 2.41617 -28.6817
vn 0.947818 -0.192668 0.25401
v 10.9761 2.42267 -28.7666
vn 0.969778 -0.185372 0.158642
v 10.9873 2.43076 -28.8529
vn 0.9824 -0.176291 0.0617459
v 10.9902 2.44036 -28.9398
vn 0.98556 -0.165512 -0.0357445
v 10.9845 2.45138 -29.0263
vn 0.979229 -0.153139 -0.132891
v 10.9705 2.46372 -29.1117
vn 0.963467 -0.139291 -0.228757
v 10.9482 2.47725 -29.1952
vn 0.938426 -0.124102 -0.32242
v 10.9178 2.49184 -29.2758
vn 0.904348 -0.107718 -0.412978
v 10.8797 2.50736 -29.353
vn 0.861561 -0.0902957 -0.499559
v 10.8342 2.52366 -29.4258
vn 0.810476 -0.0720043 -0.581329
v 10.7817 2.54057 -29.4937
vn 0.751586 -0.0530195 -0.657501
v 10.7228 2.55794 -29.5559
vn 0.685458 -0.0335241 -0.72734
v 10.658 2.57559 -29.6118
vn 0.612728 -0.0137058 -0.790175
v 10.588 2.59336 -29.661
vn 0.534098 0.0062445 -0.8454
v 10.5133 2.61108 -29.703
vn 0.450324 0.0261346 -0.892483
v 10.4349 2.62858 -29.7373
vn 0.362213 0.0457731 -0.930971
v 10.3533 2.64568 -29.7636
vn 0.270614 0.0649707 -0.960493
v 10.2693 2.66222 -29.7816
vn 0.176408 0.0835427 -0.980765
v 10.1839 2.67805 -29.7913
vn 0.0805037 0.10131 -0.991592
v 10.0978 2.69301 -29.7924
vn -0.0161759 0.118102 -0.99287
v 10.0118 2.70695 -29.785
vn -0.1127 0.133756 -0.984585
v 9.92677 2.71975 -29.7692
vn -0.208138 0.148122 -0.966819
v 9.84354 2.73128 -29.7451
vn -0.301572 0.161062 -0.939741
v 9.76289 2.74142 -29.7129
vn -0.392102 0.17245 -0.903613
v 9.68561 2.75009 -29.673
vn -0.478856 0.182178 -0.858783
v 9.61243 2.75719 -29.6257
vn -0.560997 0.190152 -0.805682
v 9.54407 2.76266 -29.5714
vn -0.637737 0.196294 -0.744823
v 9.48118 2.76645 -29.5108
vn -0.708334 0.200545 -0.67679
v 9.42437 2.76852 -29.4444
vn -0.77211 0.202865 -0.602239
v 9.37418 2.76885 -29.3728
vn -0.82845 0.203232 -0.521888
v 9.3311 2.76743 -29.2968
vn -0.876811 0.201641 -0.436512
v 9.29554 2.76428 -29.217
vn -0.916729 0.198109 -0.346931
v 9.26784 2.75943 -29.1342
vn -0.947818 0.192668 -0.25401
v 9.24828 2.75294 -29.0493
vn -0.969778 0.185372 -0.158642
v 9.23704 2.74485 -28.9629
vn -0.9824 0.176291 -0.0617459
v 9.23422 2.73524 -28.8761
vn -0.98556 0.165512 0.0357445
v 9.23986 2.72422 -28.7896
vn -0.979229 0.153139 0.132891
v 9.2539 2.71188 -28.7041
vn -0.963467 0.139291 0.228757
v 9.27621 2.69835 -28.6207
vn -0.938426 0.124102 0.32242
v 9.30657 2.68376 -28.54
vn -0.904348 0.107718 0.412978
v 9.34468 2.66824 -28.4629
vn -0.861561 0.0902957 0.499559
v 9.39019 2.65194 -28.3901
vn -0.810476 0.0720043 0.581329
v 9.44265 2.63503 -28.3222
vn -0.751586 0.0530195 0.657501
v 9.50156 2.61766 -28.26
vn -0.685458 0.0335241 0.72734
v 9.56635 2.60001 -28.204
vn -0.612728 0.0137058 0.790175
v 9.6364 2.58224 -28.1548
vn -0.534098 -0.0062445 0.8454
v 9.71103 2.56452 -28.1129
vn -0.450324 -0.0261346 0.892483
v 9.48705 0.594689 -28.3942
vn -0.377835 -0.147777 0.914004
v 9.56969 0.577826 -28.3675
vn -0.286161 -0.166483 0.943608
v 9.65482 0.562407 -28.349
vn -0.19173 -0.183587 0.964124
v 9.74161 0.548583 -28.3389
vn -0.0954533 -0.198922 0.975356
v 9.82923 0.536485 -28.3372
vn 0.00174283 -0.212341 0.977194
v 9.91684 0.526231 -28.3441
vn 0.0989222 -0.223715 0.969621
v 10.0036 0.51792 -28.3593
vn 0.195149 -0.232935 0.952711
v 10.0886 0.51163 -28.3828
vn 0.289496 -0.239912 0.926625
v 10.1712 0.507424 -28.4144
vn 0.381055 -0.244578 0.891616
v 10.2504 0.505341 -28.4537
vn 0.468945 -0.246889 0.848019
v 10.3256 0.505401 -28.5003
vn 0.552318 -0.246822 0.796256
v 10.3959 0.507604 -28.5539
vn 0.630372 -0.244378 0.736824
v 10.4608 0.511929 -28.6139
vn 0.702356 -0.23958 0.670297
v 10.5196 0.518334 -28.6797
vn 0.767575 -0.232476 0.597314
v 10.5718 0.526757 -28.7507
vn 0.825402 -0.223132 0.518578
v 10.6167 0.537118 -28.8262
vn 0.87528 -0.211639 0.434849
v 10.6541 0.549316 -28.9054
vn 0.916729 -0.198109 0.346931
v 10.6835 0.563234 -28.9877
vn 0.949349 -0.18267 0.255673
v 10.7047 0.578737 -29.0722
vn 0.972826 -0.165472 0.161952
v 10.7174 0.595678 -29.1581
vn 0.986934 -0.146681 0.0666712
v 10.7215 0.613891 -29.2445
vn 0.991538 -0.126477 -0.0292514
v 10.7171 0.633203 -29.3308
vn 0.986593 -0.105055 -0.124892
v 10.704 0.653427 -29.4159
vn 0.972146 -0.0826209 -0.21933
v 10.6826 0.674368 -29.4991
vn 0.948337 -0.0593914 -0.311656
v 10.6529 0.695825 -29.5796
vn 0.915395 -0.0355899 -0.400981
v 10.6152 0.717591 -29.6567
vn 0.873637 -0.0114457 -0.486444
v 10.57 0.739456 -29.7295
vn 0.823466 0.0128087 -0.567222
v 10.5176 0.76121 -29.7974
vn 0.765364 0.0369398 -0.642537
v 10.4586 0.782643 -29.8597
vn 0.699891 0.0607152 -0.711664
v 10.3935 0.80355 -29.9159
vn 0.627678 0.0839058 -0.773938
v 10.323 0.823727 -29.9653
vn 0.54942 0.106288 -0.828758
v 10.2476 0.842982 -30.0075
vn 0.465871 0.127647 -0.875597
v 10.1683 0.861129 -30.0421
vn 0.377835 0.147777 -0.914004
v 10.0856 0.877993 -30.0688
vn 0.286161 0.166483 -0.943608
v 10.0005 0.893411 -30.0873
vn 0.19173 0.183587 -0.964124
v 9.91371 0.907235 -30.0974
vn 0.0954533 0.198922 -0.975356
v 9.82609 0.919333 -30.0991
vn -0.00174283 0.212341 -0.977194
v 9.73849 0.929587 -30.0923
vn -0.0989222 0.223715 -0.969621
v 9.65174 0.937898 -30.077
vn -0.195149 0.232935 -0.952711
v 9.56669 0.944188 -30.0535
vn -0.289496 0.239912 -0.926625
v 9.48415 0.948394 -30.022
vn -0.381055 0.244578 -0.891616
v 9.40491 0.950477 -29.9826
vn -0.468945 0.246889 -0.848019
v 9.32975 0.950417 -29.936
vn -0.552318 0.246822 -0.796256
v 9.25939 0.948214 -29.8824
vn -0.630372 0.244378 -0.736824
v 9.1945 0.943889 -29.8224
vn -0.702356 0.23958 -0.670297
v 9.1357 0.937484 -29.7566
vn -0.767575 0.232476 -0.597314
v 9.08357 0.929061 -29.6857
vn -0.825402 0.223132 -0.518578
v 9.03861 0.9187 -29.6102
vn -0.87528 0.211639 -0.434849
v 9.00124 0.906503 -29.5309
vn -0.916729 0.198109 -0.346931
v 8.97183 0.892585 -29.4487
vn -0.949349 0.18267 -0.255673
v 8.95067 0.877081 -29.3642
vn -0.972826 0.165472 -0.161952
v 8.93795 0.860141 -29.2783
vn -0.986934 0.146681 -0.0666712
v 8.9338 0.841927 -29.1918
vn -0.991538 0.126477 0.0292514
v 8.93826 0.822615 -29.1056
vn -0.986593 0.105055 0.124892
v 8.95128 0.802391 -29.0204
vn -0.972146 0.0826209 0.21933
v 8.97275 0.78145 -28.9372
vn -0.948337 0.0593914 0.311656
v 9.00244 0.759993 -28.8567
vn -0.915395 0.0355899 0.400981
v 9.04009 0.738227 -28.7796
vn -0.873637 0.0114457 0.486444
v 9.08532 0.716362 -28.7068
vn -0.823466 -0.0128087 0.567222
v 9.13769 0.694608 -28.6389
vn -0.765364 -0.0369398 0.642537
v 9.19672 0.673175 -28.5766
vn -0.699891 -0.0607152 0.711664
v 9.26182 0.652269 -28.5205
vn -0.627678 -0.0839058 0.773938
v 9.33237 0.632091 -28.471
vn -0.54942 -0.106288 0.828758
v 9.40768 0.612836 -28.4288
vn -0.465871 -0.127647 0.875597
v 9.25718 -1.36899 -28.9081
vn -0.388892 -0.243626 0.888487
v 9.34085 -1.38563 -28.881
vn -0.297164 -0.261871 0.918214
v 9.42713 -1.39997 -28.8619
vn -0.202575 -0.277594 0.939098
v 9.51519 -1.41188 -28.8511
vn -0.106034 -0.290644 0.950938
v 9.60418 -1.42123 -28.8487
vn -0.00847236 -0.300894 0.95362
v 9.69324 -1.42793 -28.8546
vn 0.0891709 -0.308247 0.947118
v 9.78153 -1.43193 -28.8689
vn 0.185955 -0.312631 0.931495
v 9.86818 -1.43319 -28.8913
vn 0.280949 -0.314005 0.906901
v 9.95236 -1.43168 -28.9217
vn 0.373237 -0.312354 0.873573
v 10.0333 -1.42743 -28.9598
vn 0.461931 -0.307695 0.831832
v 10.1101 -1.42048 -29.0052
vn 0.546175 -0.300073 0.78208
v 10.1821 -1.41089 -29.0574
vn 0.62516 -0.289561 0.724796
v 10.2487 -1.39876 -29.116
vn 0.698124 -0.27626 0.660532
v 10.3091 -1.3842 -29.1805
vn 0.764365 -0.260299 0.589907
v 10.3628 -1.36735 -29.2501
vn 0.823245 -0.241831 0.5136
v 10.4093 -1.34838 -29.3242
vn 0.874196 -0.221034 0.432348
v 10.4481 -1.32747 -29.4021
vn 0.916729 -0.198109 0.346931
v 10.4788 -1.30482 -29.4831
vn 0.950433 -0.173275 0.258174
v 10.5012 -1.28065 -29.5663
vn 0.974983 -0.146773 0.16693
v 10.5151 -1.25518 -29.651
vn 0.990144 -0.118857 0.0740783
v 10.5202 -1.22867 -29.7363
vn 0.995769 -0.0897967 -0.0194866
v 10.5166 -1.20138 -29.8215
vn 0.991805 -0.0598715 -0.112864
v 10.5043 -1.17356 -29.9057
vn 0.978289 -0.0293697 -0.205154
v 10.4833 -1.14548 -29.9881
vn 0.955351 0.00141492 -0.295469
v 10.454 -1.11741 -30.0678
vn 0.923213 0.0321859 -0.382938
v 10.4166 -1.08962 -30.1443
vn 0.882184 0.062647 -0.466719
v 10.3714 -1.06239 -30.2166
vn 0.832659 0.0925047 -0.546005
v 10.3189 -1.03596 -30.2841
vn 0.775115 0.121472 -0.620033
v 10.2596 -1.01061 -30.3462
vn 0.710106 0.149269 -0.68809
v 10.1941 -0.986566 -30.4022
vn 0.638259 0.175628 -0.74952
v 10.123 -0.964064 -30.4517
vn 0.560264 0.200296 -0.803732
v 10.0469 -0.943323 -30.4941
vn 0.476874 0.223035 -0.850204
v 9.96664 -0.92454 -30.529
vn 0.388892 0.243626 -0.888487
v 9.88297 -0.907898 -30.5561
vn 0.297164 0.261871 -0.918214
v 9.79669 -0.893556 -30.5752
vn 0.202575 0.277594 -0.939098
v 9.70863 -0.881653 -30.586
vn 0.106034 0.290644 -0.950938
v 9.61963 -0.872303 -30.5884
vn 0.00847236 0.300894 -0.95362
v 9.53057 -0.865596 -30.5825
vn -0.0891709 0.308247 -0.947118
v 9.44229 -0.861597 -30.5682
vn -0.185955 0.312631 -0.931495
v 9.35564 -0.860345 -30.5458
vn -0.280949 0.314005 -0.906901
v 9.27146 -0.86185 -30.5154
vn -0.373237 0.312354 -0.873573
v 9.19055 -0.8661 -30.4773
vn -0.461931 0.307695 -0.831832
v 9.11371 -0.873052 -30.4319
vn -0.546175 0.300073 -0.78208
v 9.04166 -0.882641 -30.3797
vn -0.62516 0.289561 -0.724796
v 8.97511 -0.894773 -30.3211
vn -0.698124 0.27626 -0.660532
v 8.91469 -0.909332 -30.2566
vn -0.764365 0.260299 -0.589907
v 8.86098 -0.926178 -30.187
vn -0.823245 0.241831 -0.5136
v 8.8145 -0.945148 -30.1129
vn -0.874196 0.221034 -0.432348
v 8.77571 -0.96606 -30.035
vn -0.916729 0.198109 -0.346931
v 8.74496 -0.988712 -29.954
vn -0.950433 0.173275 -0.258174
v 8.72257 -1.01289 -29.8708
vn -0.974983 0.146773 -0.16693
v 8.70874 -1.03835 -29.7861
vn -0.990144 0.118857 -0.0740783
v 8.70361 -1.06486 -29.7008
vn -0.995769 0.0897967 0.0194866
v 8.70723 -1.09215 -29.6156
vn -0.991805 0.0598715 0.112864
v 8.71955 -1.11998 -29.5314
vn -0.978289 0.0293697 0.205154
v 8.74048 -1.14806 -29.449
vn -0.955351 -0.00141492 0.295469
v 8.76979 -1.17612 -29.3693
vn -0.923213 -0.0321859 0.382938
v 8.80722 -1.20391 -29.2928
vn -0.882184 -0.062647 0.466719
v 8.85239 -1.23114 -29.2205
vn -0.832659 -0.0925047 0.546005
v 8.90488 -1.25757 -29.153
vn -0.775115 -0.121472 0.620033
v 8.96418 -1.28292 -29.0909
vn -0.710106 -0.149269 0.68809
v 9.02972 -1.30697 -29.0349
vn -0.638259 -0.175628 0.74952
v 9.10086 -1.32947 -28.9854
vn -0.560264 -0.200296 0.803732
v 9.17692 -1.35021 -28.943
vn -0.476874 -0.223035 0.850204
v 9.09972 -3.34191 -29.6186
vn -0.395739 -0.331255 0.85654
v 9.1844 -3.35836 -29.5911
vn -0.303978 -0.349078 0.886421
v 9.27178 -3.3717 -29.5714
vn -0.20929 -0.363539 0.907765
v 9.36102 -3.38182 -29.5597
vn -0.112586 -0.374499 0.920367
v 9.45126 -3.3886 -29.5563
vn -0.0147979 -0.381852 0.924105
v 9.54163 -3.392 -29.5611
vn 0.0831326 -0.385528 0.918943
v 9.63126 -3.39196 -29.574
vn 0.180263 -0.385491 0.904932
v 9.7193 -3.3885 -29.595
vn 0.275656 -0.381742 0.882205
v 9.80488 -3.38165 -29.6238
vn 0.368396 -0.374316 0.850983
v 9.88719 -3.37147 -29.6602
vn 0.457587 -0.363286 0.811565
v 9.96543 -3.35806 -29.7037
vn 0.542372 -0.348757 0.764331
v 10.0388 -3.34156 -29.7541
vn 0.621933 -0.330869 0.709736
v 10.1067 -3.32211 -29.8108
vn 0.695504 -0.309794 0.648306
v 10.1685 -3.29991 -29.8733
vn 0.762378 -0.285736 0.580633
v 10.2234 -3.27517 -29.9409
vn 0.821909 -0.258927 0.507368
v 10.271 -3.24812 -30.013
vn 0.873525 -0.229623 0.429216
v 10.3109 -3.21904 -30.0889
vn 0.916729 -0.198109 0.346931
v 10.3426 -3.1882 -30.1679
vn 0.951104 -0.164686 0.261305
v 10.3659 -3.15589 -30.2493
vn 0.976319 -0.129677 0.173162
v 10.3805 -3.12243 -30.3322
vn 0.992132 -0.09342 0.083352
v 10.3862 -3.08814 -30.4158
vn 0.99839 -0.0562629 -0.00726112
v 10.3831 -3.05336 -30.4993
vn 0.995033 -0.0185639 -0.0978043
v 10.3712 -3.0184 -30.582
vn 0.982093 0.0193139 -0.187406
v 10.3505 -2.98362 -30.663
vn 0.959695 0.0570056 -0.275202
v 10.3213 -2.94934 -30.7416
vn 0.928055 0.0941484 -0.360348
v 10.2839 -2.9159 -30.817
vn 0.887477 0.130384 -0.442024
v 10.2386 -2.88362 -30.8884
vn 0.838352 0.165365 -0.519443
v 10.1858 -2.85281 -30.9553
vn 0.781153 0.198753 -0.591859
v 10.1261 -2.82377 -31.0168
vn 0.716432 0.230226 -0.658575
v 10.06 -2.79677 -31.0725
vn 0.644811 0.259483 -0.718949
v 9.98813 -2.77208 -31.1219
vn 0.56698 0.286241 -0.772399
v 9.91127 -2.74993 -31.1643
vn 0.483688 0.310242 -0.818411
v 9.83011 -2.73054 -31.1995
vn 0.395739 0.331255 -0.85654
v 9.74543 -2.71409 -31.2271
vn 0.303978 0.349078 -0.886421
v 9.65805 -2.70074 -31.2468
vn 0.20929 0.363539 -0.907765
v 9.56881 -2.69063 -31.2584
vn 0.112586 0.374499 -0.920367
v 9.47857 -2.68384 -31.2619
vn 0.0147979 0.381852 -0.924105
v 9.3882 -2.68045 -31.2571
vn -0.0831326 0.385528 -0.918943
v 9.29857 -2.68049 -31.2442
vn -0.180263 0.385491 -0.904932
v 9.21053 -2.68395 -31.2232
vn -0.275656 0.381742 -0.882205
v 9.12495 -2.6908 -31.1944
vn -0.368396 0.374316 -0.850983
v 9.04265 -2.70098 -31.158
vn -0.457587 0.363286 -0.811565
v 8.9644 -2.71438 -31.1144
vn -0.542372 0.348757 -0.764331
v 8.89098 -2.73089 -31.064
vn -0.621933 0.330869 -0.709736
v 8.82309 -2.75034 -31.0074
vn -0.695504 0.309794 -0.648306
v 8.76138 -2.77254 -30.9449
vn -0.762378 0.285736 -0.580633
v 8.70644 -2.79728 -30.8773
vn -0.821909 0.258927 -0.507368
v 8.65881 -2.82432 -30.8052
vn -0.873525 0.229623 -0.429216
v 8.61894 -2.85341 -30.7292
vn -0.916729 0.198109 -0.346931
v 8.58722 -2.88425 -30.6502
vn -0.951104 0.164686 -0.261305
v 8.56395 -2.91656 -30.5689
vn -0.976319 0.129677 -0.173162
v 8.54936 -2.95001 -30.486
vn -0.992132 0.09342 -0.083352
v 8.54358 -2.9843 -30.4024
vn -0.99839 0.0562629 0.00726112
v 8.54668 -3.01909 -30.3188
vn -0.995033 0.0185639 0.0978043
v 8.55862 -3.05405 -30.2361
vn -0.982093 -0.0193139 0.187406
v 8.57929 -3.08883 -30.1551
vn -0.959695 -0.0570056 0.275202
v 8.60849 -3.12311 -30.0765
vn -0.928055 -0.0941484 0.360348
v 8.64594 -3.15655 -30.0012
vn -0.887477 -0.130384 0.442024
v 8.69127 -3.18883 -29.9297
vn -0.838352 -0.165365 0.519443
v 8.74405 -3.21964 -29.8629
vn -0.781153 -0.198753 0.591859
v 8.80378 -3.24868 -29.8013
vn -0.716432 -0.230226 0.658575
v 8.86987 -3.27568 -29.7456
vn -0.644811 -0.259483 0.718949
v 8.9417 -3.30037 -29.6963
vn -0.56698 -0.286241 0.772399
v 9.01856 -3.32252 -29.6538
vn -0.483688 -0.310242 0.818411
v 9.01424 -5.32282 -30.5239
vn -0.398988 -0.4096 0.820388
v 9.09991 -5.33911 -30.4959
vn -0.307211 -0.427046 0.850443
v 9.18835 -5.35155 -30.4755
vn -0.212476 -0.440379 0.872307
v 9.27869 -5.36004 -30.4629
vn -0.115695 -0.449471 0.885771
v 9.37007 -5.36449 -30.4583
vn -0.0177997 -0.454234 0.890704
v 9.46162 -5.36485 -30.4617
vn 0.0802672 -0.454623 0.88706
v 9.55244 -5.36112 -30.4731
vn 0.177561 -0.450634 0.874872
v 9.64167 -5.35335 -30.4923
vn 0.273145 -0.442304 0.854259
v 9.72844 -5.3416 -30.5192
vn 0.366098 -0.429715 0.825419
v 9.81192 -5.32598 -30.5536
vn 0.455526 -0.412988 0.78863
v 9.8913 -5.30666 -30.595
vn 0.540566 -0.392283 0.744246
v 9.96582 -5.2838 -30.6431
vn 0.620401 -0.367801 0.692694
v 10.0348 -5.25764 -30.6975
vn 0.694261 -0.339776 0.634472
v 10.0975 -5.22843 -30.7575
vn 0.761435 -0.308479 0.570139
v 10.1533 -5.19644 -30.8227
vn 0.821275 -0.274211 0.500315
v 10.2018 -5.16198 -30.8924
vn 0.873207 -0.237303 0.425673
v 10.2424 -5.1254 -30.9659
vn 0.916729 -0.198109 0.346931
v 10.2748 -5.08703 -31.0425
vn 0.951422 -0.157007 0.264849
v 10.2987 -5.04725 -31.1215
vn 0.976953 -0.114393 0.180215
v 10.3137 -5.00644 -31.2022
vn 0.993075 -0.0706775 0.0938465
v 10.3198 -4.965 -31.2836
vn 0.999633 -0.0262813 0.00657381
v 10.317 -4.92332 -31.3652
vn 0.996564 0.018368 -0.0807621
v 10.3051 -4.88181 -31.446
vn 0.983898 0.0628404 -0.16732
v 10.2845 -4.84086 -31.5252
vn 0.961756 0.106708 -0.252267
v 10.2552 -4.80087 -31.6023
vn 0.930352 0.149547 -0.334784
v 10.2175 -4.76222 -31.6763
vn 0.889988 0.190947 -0.414078
v 10.1718 -4.72529 -31.7466
vn 0.841053 0.230507 -0.489383
v 10.1186 -4.69044 -31.8125
vn 0.784019 0.267848 -0.559975
v 10.0583 -4.65799 -31.8734
vn 0.719434 0.302609 -0.625175
v 9.99151 -4.62826 -31.9286
vn 0.64792 0.334455 -0.684353
v 9.91893 -4.60154 -31.9777
vn 0.570166 0.363081 -0.736941
v 9.84122 -4.57808 -32.0201
vn 0.486922 0.38821 -0.782432
v 9.75914 -4.55811 -32.0556
vn 0.398988 0.4096 -0.820388
v 9.67347 -4.54183 -32.0836
vn 0.307211 0.427046 -0.850443
v 9.58503 -4.52938 -32.104
vn 0.212476 0.440379 -0.872307
v 9.49469 -4.52089 -32.1166
vn 0.115695 0.449471 -0.885771
v 9.40331 -4.51645 -32.1212
vn 0.0177997 0.454234 -0.890704
v 9.31176 -4.51608 -32.1178
vn -0.0802672 0.454623 -0.88706
v 9.22094 -4.51981 -32.1064
vn -0.177561 0.450634 -0.874872
v 9.13171 -4.52758 -32.0872
vn -0.273145 0.442304 -0.854259
v 9.04494 -4.53933 -32.0603
vn -0.366098 0.429715 -0.825419
v 8.96147 -4.55495 -32.0259
vn -0.455526 0.412988 -0.78863
v 8.88208 -4.57428 -31.9845
vn -0.540566 0.392283 -0.744246
v 8.80756 -4.59713 -31.9364
vn -0.620401 0.367801 -0.692694
v 8.73861 -4.62329 -31.882
vn -0.694261 0.339776 -0.634472
v 8.6759 -4.65251 -31.822
vn -0.761435 0.308479 -0.570139
v 8.62004 -4.68449 -31.7568
vn -0.821275 0.274211 -0.500315
v 8.57157 -4.71895 -31.6871
vn -0.873207 0.237303 -0.425673
v 8.53094 -4.75554 -31.6136
vn -0.916729 0.198109 -0.346931
v 8.49855 -4.7939 -31.537
vn -0.951422 0.157007 -0.264849
v 8.47472 -4.83368 -31.458
vn -0.976953 0.114393 -0.180215
v 8.45967 -4.87449 -31.3774
vn -0.993075 0.0706775 -0.0938465
v 8.45355 -4.91593 -31.2959
vn -0.999633 0.0262813 -0.00657381
v 8.45642 -4.95761 -31.2144
vn -0.996564 -0.018368 0.0807621
v 8.46824 -4.99913 -31.1336
vn -0.983898 -0.0628404 0.16732
v 8.48891 -5.04008 -31.0543
vn -0.961756 -0.106708 0.252267
v 8.51822 -5.08007 -30.9772
vn -0.930352 -0.149547 0.334784
v 8.5559 -5.11871 -30.9032
vn -0.889988 -0.190947 0.414078
v 8.60158 -5.15564 -30.8329
vn -0.841053 -0.230507 0.489383
v 8.65482 -5.1905 -30.767
vn -0.784019 -0.267848 0.559975
v 8.71511 -5.22295 -30.7062
vn -0.719434 -0.302609 0.625175
v 8.78187 -5.25267 -30.6509
vn -0.64792 -0.334455 0.684353
v 8.85445 -5.2794 -30.6018
vn -0.570166 -0.363081 0.736941
v 8.93216 -5.30285 -30.5594
vn -0.486922 -0.38821 0.782432
v 9.00018 -7.31124 -31.6222
vn -0.399357 -0.47847 0.782036
v 9.08683 -7.3274 -31.5937
vn -0.307579 -0.495584 0.812276
v 9.17628 -7.33905 -31.5725
vn -0.212838 -0.507926 0.834692
v 9.26767 -7.34608 -31.5589
vn -0.116048 -0.515375 0.849071
v 9.3601 -7.34843 -31.5531
vn -0.0181406 -0.517862 0.855272
v 9.45271 -7.34607 -31.555
vn 0.0799417 -0.515361 0.853236
v 9.54459 -7.33902 -31.5647
vn 0.177254 -0.507897 0.842984
v 9.63485 -7.32736 -31.582
vn 0.27286 -0.495541 0.824613
v 9.72264 -7.31118 -31.6069
vn 0.365837 -0.478414 0.7983
v 9.80709 -7.29066 -31.639
vn 0.455292 -0.456678 0.7643
v 9.88741 -7.26599 -31.678
vn 0.540361 -0.430545 0.722939
v 9.96282 -7.2374 -31.7237
vn 0.620227 -0.400266 0.674615
v 10.0326 -7.20517 -31.7754
vn 0.69412 -0.366131 0.619795
v 10.096 -7.16962 -31.8328
vn 0.761328 -0.328471 0.559006
v 10.1526 -7.13107 -31.8953
vn 0.821203 -0.287647 0.492833
v 10.2016 -7.08991 -31.9622
vn 0.873171 -0.244053 0.421914
v 10.2428 -7.04654 -32.033
vn 0.916729 -0.198109 0.346931
v 10.2755 -7.00136 -32.107
vn 0.951458 -0.150256 0.268608
v 10.2997 -6.95481 -32.1834
vn 0.977025 -0.100957 0.187697
v 10.3149 -6.90735 -32.2615
vn 0.993182 -0.0506856 0.104979
v 10.3212 -6.85942 -32.3405
vn 0.999774 7.41077e-05 0.0212504
v 10.3183 -6.8115 -32.4198
vn 0.996738 0.0508331 -0.0626832
v 10.3064 -6.76404 -32.4985
vn 0.984103 0.101103 -0.146013
v 10.2855 -6.71749 -32.5758
vn 0.96199 0.150398 -0.227937
v 10.2559 -6.67232 -32.6511
vn 0.930613 0.198246 -0.307666
v 10.2178 -6.62895 -32.7236
vn 0.890274 0.244184 -0.384431
v 10.1716 -6.58779 -32.7925
vn 0.84136 0.28777 -0.457495
v 10.1178 -6.54926 -32.8574
vn 0.784344 0.328585 -0.526152
v 10.0568 -6.51371 -32.9174
vn 0.719774 0.366236 -0.589742
v 9.9893 -6.48149 -32.9721
vn 0.648273 0.40036 -0.647653
v 9.91589 -6.45292 -33.0209
vn 0.570528 0.430628 -0.699327
v 9.8373 -6.42826 -33.0633
vn 0.487289 0.456748 -0.744265
v 9.75428 -6.40775 -33.0989
vn 0.399357 0.47847 -0.782036
v 9.66763 -6.39159 -33.1275
vn 0.307579 0.495584 -0.812276
v 9.57818 -6.37994 -33.1487
vn 0.212838 0.507926 -0.834692
v 9.4868 -6.3729 -33.1622
vn 0.116048 0.515375 -0.849071
v 9.39436 -6.37056 -33.1681
vn 0.0181406 0.517862 -0.855272
v 9.30176 -6.37292 -33.1662
vn -0.0799417 0.515361 -0.853236
v 9.20988 -6.37996 -33.1565
vn -0.177254 0.507897 -0.842984
v 9.11961 -6.39163 -33.1391
vn -0.27286 0.495541 -0.824613
v 9.03183 -6.4078 -33.1143
vn -0.365837 0.478414 -0.7983
v 8.94737 -6.42832 -33.0822
vn -0.455292 0.456678 -0.7643
v 8.86705 -6.45299 -33.0432
vn -0.540361 0.430545 -0.722939
v 8.79165 -6.48158 -32.9975
vn -0.620227 0.400266 -0.674615
v 8.72188 -6.51381 -32.9458
vn -0.69412 0.366131 -0.619795
v 8.65843 -6.54937 -32.8884
vn -0.761328 0.328471 -0.559006
v 8.6019 -6.58791 -32.8259
vn -0.821203 0.287647 -0.492833
v 8.55283 -6.62907 -32.7589
vn -0.873171 0.244053 -0.421914
v 8.51171 -6.67245 -32.6881
vn -0.916729 0.198109 -0.346931
v 8.47892 -6.71763 -32.6142
vn -0.951458 0.150256 -0.268608
v 8.45478 -6.76417 -32.5378
vn -0.977025 0.100957 -0.187697
v 8.43952 -6.81164 -32.4597
vn -0.993182 0.0506856 -0.104979
v 8.4333 -6.85956 -32.3807
vn -0.999774 -7.41077e-05 -0.0212504
v 8.43617 -6.90749 -32.3014
vn -0.996738 -0.0508331 0.0626832
v 8.4481 -6.95495 -32.2227
vn -0.984103 -0.101103 0.146013
v 8.46897 -7.00149 -32.1454
vn -0.96199 -0.150398 0.227937
v 8.4986 -7.04666 -32.0701
vn -0.930613 -0.198246 0.307666
v 8.53668 -7.09004 -31.9976
vn -0.890274 -0.244184 0.384431
v 8.58287 -7.13119 -31.9287
vn -0.84136 -0.28777 0.457495
v 8.6367 -7.16972 -31.8638
vn -0.784344 -0.328585 0.526152
v 8.69766 -7.20527 -31.8038
vn -0.719774 -0.366236 0.589742
v 8.76517 -7.23749 -31.7491
vn -0.648273 -0.40036 0.647653
v 8.83857 -7.26607 -31.7003
vn -0.570528 -0.430628 0.699327
v 8.91716 -7.29073 -31.6579
vn -0.487289 -0.456748 0.744265
f 1 66 2 
f 1 65 66 
f 2 67 3 
f 2 66 67 
f 3 68 4 
f 3 67 68 
f 4 69 5 
f 4 68 69 
f 5 70 6 
f 5 69 70 
f 6 71 7 
f 6 70 71 
f 7 72 8 
f 7 71 72 
f 8 73 9 
f 8 72 73 
f 9 74 10 
f 9 73 74 
f 10 75 11 
f 10 74 75 
f 11 76 12 
f 11 75 76 
f 12 77 13 
f 12 76 77 
f 13 78 14 
f 13 77 78 
f 14 79 15 
f 14 78 79 
f 15 80 16 
f 15 79 80 
f 16 81 17 
f 16 80 81 
f 17 82 18 
f 17 81 82 
f 18 83 19 
f 18 82 83 
f 19 84 20 
f 19 83 84 
f 20 85 21 
f 20 84 85 
f 21 86 22 
f 21 85 86 
f 22 87 23 
f 22 86 87 
f 23 88 24 
f 23 87 88 
f 24 89 25 
f 24 88 89 
f 25 90 26 
f 25 89 90 
f 26 91 27 
f 26 90 91 
f 27 92 28 
f 27 91 92 
f 28 93 29 
f 28 92 93 
f 29 94 30 
f 29 93 94 
f 30 95 31 
f 30 94 95 
f 31 96 32 
f 31 95 96 
f 32 97 33 
f 32 96 97 
f 33 98 34 
f 33 97 98 
f 34 99 35 
f 34 98 99 
f 35 100 36 
f 35 99 100 
f 36 101 37 
f 36 100 101 
f 37 102 38 
f 37 101 102 
f 38 103 39 
f 38 102 103 
f 39 104 40 
f 39 103 104 
f 40 105 41 
f 40 104 105 
f 41 106 42 
f 41 105 106 
f 42 107 43 
f 42 106 107 
f 43 108 44 
f 43 107 108 
f 44 109 45 
f 44 108 109 
f 45 110 46 
f 45 109 110 
f 46 111 47 
f 46 110 111 
f 47 112 48 
f 47 111 112 
f 48 113 49 
f 48 112 113 
f 49 114 50 
f 49 113 114 
f 50 115 51 
f 50 114 115 
f 51 116 52 
f 51 115 116 
f 52 117 53 
f 52 116 117 
f 53 118 54 
f 53 117 118 
f 54 119 55 
f 54 118 119 
f 55 120 56 
f 55 119 120 
f 56 121 57 
f 56 120 121 
f 57 122 58 
f 57 121 122 
f 58 123 59 
f 58 122 123 
f 59 124 60 
f 59 123 124 
f 60 125 61 
f 60 124 125 
f 61 126 62 
f 61 125 126 
f 62 127 63 
f 62 126 127 
f 63 128 64 
f 63 127 128 
f 64 65 1 
f 64 128 65 
f 65 130 66 
f 65 129 130 
f 66 131 67 
f 66 130 131 
f 67 132 68 
f 67 131 132 
f 68 133 69 
f 68 132 133 
f 69 134 70 
f 69 133 134 
f 70 135 71 
f 70 134 135 
f 71 136 72 
f 71 135 136 
f 72 137 73 
f 72 136 137 
f 73 138 74 
f 73 137 138 
f 74 139 75 
f 74 138 139 
f 75 140 76 
f 75 139 140 
f 76 141 77 
f 76 140 141 
f 77 142 78 
f 77 141 142 
f 78 143 79 
f 78 142 143 
f 79 144 80 
f 79 143 144 
f 80 145 81 
f 80 144 145 
f 81 146 82 
f 81 145 146 
f 82 147 83 
f 82 146 147 
f 83 148 84 
f 83 147 148 
f 84 149 85 
f 84 148 149 
f 85 150 86 
f 85 149 150 
f 86 151 87 
f 86 150 151 
f 87 152 88 
f 87 151 152 
f 88 153 89 
f 88 152 153 
f 89 154 90 
f 89 153 154 
f 90 155 91 
f 90 154 155 
f 91 156 92 
f 91 155 156 
f 92 157 93 
f 92 156 157 
f 93 158 94 
f 93 157 158 
f 94 159 95 
f 94 158 159 
f 95 160 96 
f 95 159 160 
f 96 161 97 
f 96 160 161 
f 97 162 98 
f 97 161 162 
f 98 163 99 
f 98 162 163 
f 99 164 100 
f 99 163 164 
f 100 165 101 
f 100 164 165 
f 101 166 102 
f 101 165 166 
f 102 167 103 
f 102 166 167 
f 103 168 104 
f 103 167 168 
f 104 169 105 
f 104 168 169 
f 105 170 106 
f 105 169 170 
f 106 171 107 
f 106 170 171 
f 107 172 108 
f 107 171 172 
f 108 173 109 
f 108 172 173 
f 109 174 110 
f 109 173 174 
f 110 175 111 
f 110 174 175 
f 111 176 112 
f 111 175 176 
f 112 177 113 
f 112 176 177 
f 113 178 114 
f 113 177 178 
f 114 179 115 
f 114 178 179 
f 115 180 116 
f 115 179 180 
f 116 181 117 
f 116 180 181 
f 117 182 118 
f 117 181 182 
f 118 183 119 
f 118 182 183 
f 119 184 120 
f 119 183 184 
f 120 185 121 
f 120 184 185 
f 121 186 122 
f 121 185 186 
f 122 187 123 
f 122 186 187 
f 123 188 124 
f 123 187 188 
f 124 189 125 
f 124 188 189 
f 125 190 126 
f 125 189 190 
f 126 191 127 
f 126 190 191 
f 127 192 128 
f 127 191 192 
f 128 129 65 
f 128 192 129 
f 129 194 130 
f 129 193 194 
f 130 195 131 
f 130 194 195 
f 131 196 132 
f 131 195 196 
f 132 197 133 
f 132 196 197 
f 133 198 134 
f 133 197 198 
f 134 199 135 
f 134 198 199 
f 135 200 136 
f 135 199 200 
f 136 201 137 
f 136 200 201 
f 137 202 138 
f 137 201 202 
f 138 203 139 
f 138 202 203 
f 139 204 140 
f 139 203 204 
f 140 205 141 
f 140 204 205 
f 141 206 142 
f 141 205 206 
f 142 207 143 
f 142 206 207 
f 143 208 144 
f 143 207 208 
f 144 209 145 
f 144 208 209 
f 145 210 146 
f 145 209 210 
f 146 211 147 
f 146 210 211 
f 147 212 148 
f 147 211 212 
f 148 213 149 
f 148 212 213 
f 149 214 150 
f 149 213 214 
f 150 215 151 
f 150 214 215 
f 151 216 152 
f 151 215 216 
f 152 217 153 
f 152 216 217 
f 153 218 154 
f 153 217 218 
f 154 219 155 
f 154 218 219 
f 155 220 156 
f 155 219 220 
f 156 221 157 
f 156 220 221 
f 157 222 158 
f 157 221 222 
f 158 223 159 
f 158 222 223 
f 159 224 160 
f 159 223 224 
f 160 225 161 
f 160 224 225 
f 161 226 162 
f 161 225 226 
f 162 227 163 
f 162 226 227 
f 163 228 164 
f 163 227 228 
f 164 229 165 
f 164 228 229 
f 165 230 166 
f 165 229 230 
f 166 231 167 
f 166 230 231 
f 167 232 168 
f 167 231 232 
f 168 233 169 
f 168 232 233 
f 169 234 170 
f 169 233 234 
f 170 235 171 
f 170 234 235 
f 171 236 172 
f 171 235 236 
f 172 237 173 
f 172 236 237 
f 173 238 174 
f 173 237 238 
f 174 239 175 
f 174 238 239 
f 175 240 176 
f 175 239 240 
f 176 241 177 
f 176 240 241 
f 177 242 178 
f 177 241 242 
f 178 243 179 
f 178 242 243 
f 179 244 180 
f 179 243 244 
f 180 245 181 
f 180 244 245 
f 181 246 182 
f 181 245 246 
f 182 247 183 
f 182 246 247 
f 183 248 184 
f 183 247 248 
f 184 249 185 
f 184 248 249 
f 185 250 186 
f 185 249 250 
f 186 251 187 
f 186 250 251 
f 187 252 188 
f 187 251 252 
f 188 253 189 
f 188 252 253 
f 189 254 190 
f 189 253 254 
f 190 255 191 
f 190 254 255 
f 191 256 192 
f 191 255 256 
f 192 193 129 
f 192 256 193 
f 193 258 194 
f 193 257 258 
f 194 259 195 
f 194 258 259 
f 195 260 196 
f 195 259 260 
f 196 261 197 
f 196 260 261 
f 197 262 198 
f 197 261 262 
f 198 263 199 
f 198 262 263 
f 199 264 200 
f 199 263 264 
f 200 265 201 
f 200 264 265 
f 201 266 202 
f 201 265 266 
f 202 267 203 
f 202 266 267 
f 203 268 204 
f 203 267 268 
f 204 269 205 
f 204 268 269 
f 205 270 206 
f 205 269 270 
f 206 271 207 
f 206 270 271 
f 207 272 208 
f 207 271 272 
f 208 273 209 
f 208 272 273 
f 209 274 210 
f 209 273 274 
f 210 275 211 
f 210 274 275 
f 211 276 212 
f 211 275 276 
f 212 277 213 
f 212 276 277 
f 213 278 214 
f 213 277 278 
f 214 279 215 
f 214 278 279 
f 215 280 216 
f 215 279 280 
f 216 281 217 
f 216 280 281 
f 217 282 218 
f 217 281 282 
f 218 283 219 
f 218 282 283 
f 219 284 220 
f 219 283 284 
f 220 285 221 
f 220 284 285 
f 221 286 222 
f 221 285 286 
f 222 287 223 
f 222 286 287 
f 223 288 224 
f 223 287 288 
f 224 289 225 
f 224 288 289 
f 225 290 226 
f 225 289 290 
f 226 291 227 
f 226 290 291 
f 227 292 228 
f 227 291 292 
f 228 293 229 
f 228 292 293 
f 229 294 230 
f 229 293 294 
f 230 295 231 
f 230 294 295 
f 231 296 232 
f 231 295 296 
f 232 297 233 
f 232 296 297 
f 233 298 234 
f 233 297 298 
f 234 299 235 
f 234 298 299 
f 235 300 236 
f 235 299 300 
f 236 301 237 
f 236 300 301 
f 237 302 238 
f 237 301 302 
f 238 303 239 
f 238 302 303 
f 239 304 240 
f 239 303 304 
f 240 305 241 
f 240 304 305 
f 241 306 242 
f 241 305 306 
f 242 307 243 
f 242 306 307 
f 243 308 244 
f 243 307 308 
f 244 309 245 
f 244 308 309 
f 245 310 246 
f 245 309 310 
f 246 311 247 
f 246 310 311 
f 247 312 248 
f 247 311 312 
f 248 313 249 
f 248 312 313 
f 249 314 250 
f 249 313 314 
f 250 315 251 
f 250 314 315 
f 251 316 252 
f 251 315 316 
f 252 317 253 
f 252 316 317 
f 253 318 254 
f 253 317 318 
f 254 319 255 
f 254 318 319 
f 255 320 256 
f 255 319 320 
f 256 257 193 
f 256 320 257 
f 257 322 258 
f 257 321 322 
f 258 323 259 
f 258 322 323 
f 259 324 260 
f 259 323 324 
f 260 325 261 
f 260 324 325 
f 261 326 262 
f 261 325 326 
f 262 327 263 
f 262 326 327 
f 263 328 264 
f 263 327 328 
f 264 329 265 
f 264 328 329 
f 265 330 266 
f 265 329 330 
f 266 331 267 
f 266 330 331 
f 267 332 268 
f 267 331 332 
f 268 333 269 
f 268 332 333 
f 269 334 270 
f 269 333 334 
f 270 335 271 
f 270 334 335 
f 271 336 272 
f 271 335 336 
f 272 337 273 
f 272 336 337 
f 273 338 274 
f 273 337 338 
f 274 339 275 
f 274 338 339 
f 275 340 276 
f 275 339 340 
f 276 341 277 
f 276 340 341 
f 277 342 278 
f 277 341 342 
f 278 343 279 
f 278 342 343 
f 279 344 280 
f 279 343 344 
f 280 345 281 
f 280 344 345 
f 281 346 282 
f 281 345 346 
f 282 347 283 
f 282 346 347 
f 283 348 284 
f 283 347 348 
f 284 349 285 
f 284 348 349 
f 285 350 286 
f 285 349 350 
f 286 351 287 
f 286 350 351 
f 287 352 288 
f 287 351 352 
f 288 353 289 
f 288 352 353 
f 289 354 290 
f 289 353 354 
f 290 355 291 
f 290 354 355 
f 291 356 292 
f 291 355 356 
f 292 357 293 
f 292 356 357 
f 293 358 294 
f 293 357 358 
f 294 359 295 
f 294 358 359 
f 295 360 296 
f 295 359 360 
f 296 361 297 
f 296 360 361 
f 297 362 298 
f 297 361 362 
f 298 363 299 
f 298 362 363 
f 299 364 300 
f 299 363 364 
f 300 365 301 
f 300 364 365 
f 301 366 302 
f 301 365 366 
f 302 367 303 
f 302 366 367 
f 303 368 304 
f 303 367 368 
f 304 369 305 
f 304 368 369 
f 305 370 306 
f 305 369 370 
f 306 371 307 
f 306 370 371 
f 307 372 308 
f 307 371 372 
f 308 373 309 
f 308 372 373 
f 309 374 310 
f 309 373 374 
f 310 375 311 
f 310 374 375 
f 311 376 312 
f 311 375 376 
f 312 377 313 
f 312 376 377 
f 313 378 314 
f 313 377 378 
f 314 379 315 
f 314 378 379 
f 315 380 316 
f 315 379 380 
f 316 381 317 
f 316 380 381 
f 317 382 318 
f 317 381 382 
f 318 383 319 
f 318 382 383 
f 319 384 320 
f 319 383 384 
f 320 321 257 
f 320 384 321 
f 321 386 322 
f 321 385 386 
f 322 387 323 
f 322 386 387 
f 323 388 324 
f 323 387 388 
f 324 389 325 
f 324 388 389 
f 325 390 326 
f 325 389 390 
f 326 391 327 
f 326 390 391 
f 327 392 328 
f 327 391 392 
f 328 393 329 
f 328 392 393 
f 329 394 330 
f 329 393 394 
f 330 395 331 
f 330 394 395 
f 331 396 332 
f 331 395 396 
f 332 397 333 
f 332 396 397 
f 333 398 334 
f 333 397 398 
f 334 399 335 
f 334 398 399 
f 335 400 336 
f 335 399 400 
f 336 401 337 
f 336 400 401 
f 337 402 338 
f 337 401 402 
f 338 403 339 
f 338 402 403 
f 339 404 340 
f 339 403 404 
f 340 405 341 
f 340 404 405 
f 341 406 342 
f 341 405 406 
f 342 407 343 
f 342 406 407 
f 343 408 344 
f 343 407 408 
f 344 409 345 
f 344 408 409 
f 345 410 346 
f 345 409 410 
f 346 411 347 
f 346 410 411 
f 347 412 348 
f 347 411 412 
f 348 413 349 
f 348 412 413 
f 349 414 350 
f 349 413 414 
f 350 415 351 
f 350 414 415 
f 351 416 352 
f 351 415 416 
f 352 417 353 
f 352 416 417 
f 353 418 354 
f 353 417 418 
f 354 419 355 
f 354 418 419 
f 355 420 356 
f 355 419 420 
f 356 421 357 
f 356 420 421 
f 357 422 358 
f 357 421 422 
f 358 423 359 
f 358 422 423 
f 359 424 360 
f 359 423 424 
f 360 425 361 
f 360 424 425 
f 361 426 362 
f 361 425 426 
f 362 427 363 
f 362 426 427 
f 363 428 364 
f 363 427 428 
f 364 429 365 
f 364 428 429 
f 365 430 366 
f 365 429 430 
f 366 431 367 
f 366 430 431 
f 367 432 368 
f 367 431 432 
f 368 433 369 
f 368 432 433 
f 369 434 370 
f 369 433 434 
f 370 435 371 
f 370 434 435 
f 371 436 372 
f 371 435 436 
f 372 437 373 
f 372 436 437 
f 373 438 374 
f 373 437 438 
f 374 439 375 
f 374 438 439 
f 375 440 376 
f 375 439 440 
f 376 441 377 
f 376 440 441 
f 377 442 378 
f 377 441 442 
f 378 443 379 
f 378 442 443 
f 379 444 380 
f 379 443 444 
f 380 445 381 
f 380 444 445 
f 381 446 382 
f 381 445 446 
f 382 447 383 
f 382 446 447 
f 383 448 384 
f 383 447 448 
f 384 385 321 
f 384 448 385 
f 385 450 386 
f 385 449 450 
f 386 451 387 
f 386 450 451 
f 387 452 388 
f 387 451 452 
f 388 453 389 
f 388 452 453 
f 389 454 390 
f 389 453 454 
f 390 455 391 
f 390 454 455 
f 391 456 392 
f 391 455 456 
f 392 457 393 
f 392 456 457 
f 393 458 394 
f 393 457 458 
f 394 459 395 
f 394 458 459 
f 395 460 396 
f 395 459 460 
f 396 461 397 
f 396 460 461 
f 397 462 398 
f 397 461 462 
f 398 463 399 
f 398 462 463 
f 399 464 400 
f 399 463 464 
f 400 465 401 
f 400 464 465 
f 401 466 402 
f 401 465 466 
f 402 467 403 
f 402 466 467 
f 403 468 404 
f 403 467 468 
f 404 469 405 
f 404 468 469 
f 405 470 406 
f 405 469 470 
f 406 471 407 
f 406 470 471 
f 407 472 408 
f 407 471 472 
f 408 473 409 
f 408 472 473 
f 409 474 410 
f 409 473 474 
f 410 475 411 
f 410 474 475 
f 411 476 412 
f 411 475 476 
f 412 477 413 
f 412 476 477 
f 413 478 414 
f 413 477 478 
f 414 479 415 
f 414 478 479 
f 415 480 416 
f 415 479 480 
f 416 481 417 
f 416 480 481 
f 417 482 418 
f 417 481 482 
f 418 483 419 
f 418 482 483 
f 419 484 420 
f 419 483 484 
f 420 485 421 
f 420 484 485 
f 421 486 422 
f 421 485 486 
f 422 487 423 
f 422 486 487 
f 423 488 424 
f 423 487 488 
f 424 489 425 
f 424 488 489 
f 425 490 426 
f 425 489 490 
f 426 491 427 
f 426 490 491 
f 427 492 428 
f 427 491 492 
f 428 493 429 
f 428 492 493 
f 429 494 430 
f 429 493 494 
f 430 495 431 
f 430 494 495 
f 431 496 432 
f 431 495 496 
f 432 497 433 
f 432 496 497 
f 433 498 434 
f 433 497 498 
f 434 499 435 
f 434 498 499 
f 435 500 436 
f 435 499 500 
f 436 501 437 
f 436 500 501 
f 437 502 438 
f 437 501 502 
f 438 503 439 
f 438 502 503 
f 439 504 440 
f 439 503 504 
f 440 505 441 
f 440 504 505 
f 441 506 442 
f 441 505 506 
f 442 507 443 
f 442 506 507 
f 443 508 444 
f 443 507 508 
f 444 509 445 
f 444 508 509 
f 445 510 446 
f 445 509 510 
f 446 511 447 
f 446 510 511 
f 447 512 448 
f 447 511 512 
f 448 449 385 
f 448 512 449 
f 449 514 450 
f 449 513 514 
f 450 515 451 
f 450 514 515 
f 451 516 452 
f 451 515 516 
f 452 517 453 
f 452 516 517 
f 453 518 454 
f 453 517 518 
f 454 519 455 
f 454 518 519 
f 455 520 456 
f 455 519 520 
f 456 521 457 
f 456 520 521 
f 457 522 458 
f 457 521 522 
f 458 523 459 
f 458 522 523 
f 459 524 460 
f 459 523 524 
f 460 525 461 
f 460 524 525 
f 461 526 462 
f 461 525 526 
f 462 527 463 
f 462 526 527 
f 463 528 464 
f 463 527 528 
f 464 529 465 
f 464 528 529 
f 465 530 466 
f 465 529 530 
f 466 531 467 
f 466 530 531 
f 467 532 468 
f 467 531 532 
f 468 533 469 
f 468 532 533 
f 469 534 470 
f 469 533 534 
f 470 535 471 
f 470 534 535 
f 471 536 472 
f 471 535 536 
f 472 537 473 
f 472 536 537 
f 473 538 474 
f 473 537 538 
f 474 539 475 
f 474 538 539 
f 475 540 476 
f 475 539 540 
f 476 541 477 
f 476 540 541 
f 477 542 478 
f 477 541 542 
f 478 543 479 
f 478 542 543 
f 479 544 480 
f 479 543 544 
f 480 545 481 
f 480 544 545 
f 481 546 482 
f 481 545 546 
f 482 547 483 
f 482 546 547 
f 483 548 484 
f 483 547 548 
f 484 549 485 
f 484 548 549 
f 485 550 486 
f 485 549 550 
f 486 551 487 
f 486 550 551 
f 487 552 488 
f 487 551 552 
f 488 553 489 
f 488 552 553 
f 489 554 490 
f 489 553 554 
f 490 555 491 
f 490 554 555 
f 491 556 492 
f 491 555 556 
f 492 557 493 
f 492 556 557 
f 493 558 494 
f 493 557 558 
f 494 559 495 
f 494 558 559 
f 495 560 496 
f 495 559 560 
f 496 561 497 
f 496 560 561 
f 497 562 498 
f 497 561 562 
f 498 563 499 
f 498 562 563 
f 499 564 500 
f 499 563 564 
f 500 565 501 
f 500 564 565 
f 501 566 502 
f 501 565 566 
f 502 567 503 
f 502 566 567 
f 503 568 504 
f 503 567 568 
f 504 569 505 
f 504 568 569 
f 505 570 506 
f 505 569 570 
f 506 571 507 
f 506 570 571 
f 507 572 508 
f 507 571 572 
f 508 573 509 
f 508 572 573 
f 509 574 510 
f 509 573 574 
f 510 575 511 
f 510 574 575 
f 511 576 512 
f 511 575 576 
f 512 513 449 
f 512 576 513 
f 513 578 514 
f 513 577 578 
f 514 579 515 
f 514 578 579 
f 515 580 516 
f 515 579 580 
f 516 581 517 
f 516 580 581 
f 517 582 518 
f 517 581 582 
f 518 583 519 
f 518 582 583 
f 519 584 520 
f 519 583 584 
f 520 585 521 
f 520 584 585 
f 521 586 522 
f 521 585 586 
f 522 587 523 
f 522 586 587 
f 523 588 524 
f 523 587 588 
f 524 589 525 
f 524 588 589 
f 525 590 526 
f 525 589 590 
f 526 591 527 
f 526 590 591 
f 527 592 528 
f 527 591 592 
f 528 593 529 
f 528 592 593 
f 529 594 530 
f 529 593 594 
f 530 595 531 
f 530 594 595 
f 531 596 532 
f 531 595 596 
f 532 597 533 
f 532 596 597 
f 533 598 534 
f 533 597 598 
f 534 599 535 
f 534 598 599 
f 535 600 536 
f 535 599 600 
f 536 601 537 
f 536 600 601 
f 537 602 538 
f 537 601 602 
f 538 603 539 
f 538 602 603 
f 539 604 540 
f 539 603 604 
f 540 605 541 
f 540 604 605 
f 541 606 542 
f 541 605 606 
f 542 607 543 
f 542 606 607 
f 543 608 544 
f 543 607 608 
f 544 609 545 
f 544 608 609 
f 545 610 546 
f 545 609 610 
f 546 611 547 
f 546 610 611 
f 547 612 548 
f 547 611 612 
f 548 613 549 
f 548 612 613 
f 549 614 550 
f 549 613 614 
f 550 615 551 
f 550 614 615 
f 551 616 552 
f 551 615 616 
f 552 617 553 
f 552 616 617 
f 553 618 554 
f 553 617 618 
f 554 619 555 
f 554 618 619 
f 555 620 556 
f 555 619 620 
f 556 621 557 
f 556 620 621 
f 557 622 558 
f 557 621 622 
f 558 623 559 
f 558 622 623 
f 559 624 560 
f 559 623 624 
f 560 625 561 
f 560 624 625 
f 561 626 562 
f 561 625 626 
f 562 627 563 
f 562 626 627 
f 563 628 564 
f 563 627 628 
f 564 629 565 
f 564 628 629 
f 565 630 566 
f 565 629 630 
f 566 631 567 
f 566 630 631 
f 567 632 568 
f 567 631 632 
f 568 633 569 
f 568 632 633 
f 569 634 570 
f 569 633 634 
f 570 635 571 
f 570 634 635 
f 571 636 572 
f 571 635 636 
f 572 637 573 
f 572 636 637 
f 573 638 574 
f 573 637 638 
f 574 639 575 
f 574 638 639 
f 575 640 576 
f 575 639 640 
f 576 577 513 
f 576 640 577 
