# Branch
v -0.0379121 -0.499601 -6.4992
vn -0.751672 0.640381 -0.157802
v -0.0426095 -0.505571 -6.49868
vn -0.812215 0.563433 -0.151163
v -0.0467 -0.511962 -6.49805
vn -0.864936 0.481059 -0.143068
v -0.0501443 -0.518713 -6.49732
vn -0.909327 0.394052 -0.133596
v -0.052909 -0.525758 -6.49649
vn -0.944961 0.30325 -0.122836
v -0.0549677 -0.53303 -6.49556
vn -0.971494 0.209527 -0.110894
v -0.0563005 -0.540458 -6.49455
vn -0.988671 0.113787 -0.0978839
v -0.0568945 -0.547971 -6.49347
vn -0.996327 0.0169507 -0.0839309
v -0.056744 -0.555497 -6.49232
vn -0.994388 -0.0800488 -0.0691697
v -0.0558505 -0.562963 -6.49112
vn -0.982872 -0.176277 -0.0537423
v -0.0542226 -0.570298 -6.48989
vn -0.961891 -0.270808 -0.0377974
v -0.051876 -0.57743 -6.48862
vn -0.931646 -0.362731 -0.0214884
v -0.0488332 -0.584291 -6.48734
vn -0.892429 -0.451161 -0.00497252
v -0.0451236 -0.590815 -6.48606
vn -0.844617 -0.535245 0.0115913
v -0.0407829 -0.596939 -6.48478
vn -0.788671 -0.614175 0.0280434
v -0.0358528 -0.602604 -6.48352
vn -0.72513 -0.68719 0.0442255
v -0.030381 -0.607756 -6.4823
vn -0.654606 -0.753587 0.0599817
v -0.02442 -0.612344 -6.48112
vn -0.577777 -0.812727 0.0751602
v -0.0180273 -0.616325 -6.48
vn -0.495384 -0.864039 0.0896149
v -0.0112644 -0.619661 -6.47895
vn -0.40822 -0.907031 0.103207
v -0.00419651 -0.622319 -6.47797
vn -0.317124 -0.941287 0.115804
v 0.00310834 -0.624273 -6.47708
vn -0.222975 -0.966478 0.127287
v 0.0105798 -0.625506 -6.47628
vn -0.126678 -0.982362 0.137543
v 0.0181459 -0.626004 -6.47559
vn -0.0291615 -0.988784 0.146475
v 0.0257338 -0.625764 -6.47501
vn 0.0686361 -0.985685 0.153997
v 0.0332705 -0.624787 -6.47454
vn 0.165773 -0.973092 0.160035
v 0.0406832 -0.623083 -6.47419
vn 0.261313 -0.951128 0.164532
v 0.0479007 -0.620668 -6.47396
vn 0.354336 -0.920004 0.167444
v 0.0548534 -0.617565 -6.47386
vn 0.443947 -0.88002 0.168744
v 0.0614745 -0.613806 -6.47389
vn 0.529283 -0.831561 0.168419
v 0.0677 -0.609424 -6.47404
vn 0.609521 -0.775094 0.166472
v 0.0734701 -0.604464 -6.47431
vn 0.68389 -0.711162 0.162922
v 0.0787291 -0.598972 -6.47471
vn 0.751672 -0.640381 0.157802
v 0.0834265 -0.593002 -6.47523
vn 0.812215 -0.563433 0.151163
v 0.0875171 -0.586611 -6.47585
vn 0.864936 -0.481059 0.143068
v 0.0909613 -0.57986 -6.47659
vn 0.909327 -0.394052 0.133596
v 0.093726 -0.572815 -6.47742
vn 0.944961 -0.30325 0.122836
v 0.0957847 -0.565543 -6.47835
vn 0.971494 -0.209527 0.110894
v 0.0971175 -0.558115 -6.47936
vn 0.988671 -0.113787 0.0978839
v 0.0977115 -0.550602 -6.48044
vn 0.996327 -0.0169507 0.0839309
v 0.097561 -0.543076 -6.48159
vn 0.994388 0.0800488 0.0691697
v 0.0966675 -0.535609 -6.48278
vn 0.982872 0.176277 0.0537423
v 0.0950396 -0.528275 -6.48402
vn 0.961891 0.270808 0.0377974
v 0.092693 -0.521143 -6.48529
vn 0.931646 0.362731 0.0214884
v 0.0896502 -0.514282 -6.48657
vn 0.892429 0.451161 0.00497252
v 0.0859406 -0.507758 -6.48785
vn 0.844617 0.535245 -0.0115913
v 0.0815999 -0.501634 -6.48913
vn 0.788671 0.614175 -0.0280434
v 0.0766698 -0.495969 -6.49039
vn 0.72513 0.68719 -0.0442255
v 0.071198 -0.490817 -6.49161
vn 0.654606 0.753587 -0.0599817
v 0.065237 -0.486229 -6.49279
vn 0.577777 0.812727 -0.0751602
v 0.0588443 -0.482247 -6.49391
vn 0.495384 0.864039 -0.0896149
v 0.0520814 -0.478912 -6.49496
vn 0.40822 0.907031 -0.103207
v 0.0450135 -0.476254 -6.49594
vn 0.317124 0.941287 -0.115804
v 0.0377087 -0.474299 -6.49683
vn 0.222975 0.966478 -0.127287
v 0.0302372 -0.473067 -6.49763
vn 0.126678 0.982362 -0.137543
v 0.0226711 -0.472569 -6.49832
vn 0.0291615 0.988784 -0.146475
v 0.0150832 -0.472809 -6.4989
vn -0.0686361 0.985685 -0.153997
v 0.00754655 -0.473786 -6.49937
vn -0.165773 0.973092 -0.160035
v 0.000133789 -0.47549 -6.49972
vn -0.261313 0.951128 -0.164532
v -0.00708371 -0.477905 -6.49995
vn -0.354336 0.920004 -0.167444
v -0.0140364 -0.481008 -6.50005
vn -0.443947 0.88002 -0.168744
v -0.0206575 -0.484767 -6.50002
vn -0.529283 0.831561 -0.168419
v -0.026883 -0.489149 -6.49987
vn -0.609521 0.775094 -0.166472
v -0.0326531 -0.494109 -6.4996
vn -0.68389 0.711162 -0.162922
v 0.381794 -1.2566 -11.4294
vn -0.750541 0.638362 -0.170828
v 0.376556 -1.26326 -11.4289
vn -0.811089 0.561424 -0.164126
v 0.371993 -1.27038 -11.4281
vn -0.863827 0.479079 -0.155844
v 0.36815 -1.27791 -11.4273
vn -0.908245 0.39212 -0.146061
v 0.365064 -1.28576 -11.4263
vn -0.943916 0.301384 -0.134871
v 0.362764 -1.29386 -11.4253
vn -0.970497 0.207747 -0.122382
v 0.361273 -1.30213 -11.4241
vn -0.987731 0.112108 -0.108714
v 0.360605 -1.3105 -11.4228
vn -0.995453 0.0153899 -0.094
v 0.360766 -1.31888 -11.4214
vn -0.993589 -0.0814765 -0.0783803
v 0.361755 -1.3272 -11.42
vn -0.982155 -0.177558 -0.0620058
v 0.363563 -1.33536 -11.4186
vn -0.961263 -0.27193 -0.0450341
v 0.366171 -1.3433 -11.4171
vn -0.931113 -0.363683 -0.0276287
v 0.369556 -1.35093 -11.4155
vn -0.891996 -0.451933 -0.00995725
v 0.373683 -1.35819 -11.414
vn -0.844289 -0.535831 0.0078101
v 0.378514 -1.36501 -11.4125
vn -0.788451 -0.614569 0.0255022
v 0.384002 -1.37131 -11.4109
vn -0.725019 -0.687388 0.0429488
v 0.390095 -1.37703 -11.4095
vn -0.654606 -0.753587 0.0599817
v 0.396732 -1.38213 -11.4081
vn -0.577888 -0.812529 0.0764369
v 0.403851 -1.38656 -11.4067
vn -0.495604 -0.863646 0.0921561
v 0.411384 -1.39026 -11.4054
vn -0.408548 -0.906445 0.106988
v 0.419256 -1.39321 -11.4042
vn -0.317557 -0.940514 0.120789
v 0.427393 -1.39537 -11.4031
vn -0.223508 -0.965526 0.133427
v 0.435717 -1.39673 -11.4021
vn -0.127306 -0.98124 0.14478
v 0.444146 -1.39727 -11.4013
vn -0.0298789 -0.987504 0.154739
v 0.4526 -1.39699 -11.4005
vn 0.0678365 -0.984257 0.163207
v 0.460998 -1.39589 -11.3999
vn 0.164899 -0.971531 0.170104
v 0.469259 -1.39398 -11.3995
vn 0.260373 -0.949449 0.175362
v 0.477302 -1.39128 -11.3992
vn 0.353339 -0.918224 0.178932
v 0.485051 -1.38781 -11.399
vn 0.442903 -0.878155 0.180779
v 0.492431 -1.38361 -11.399
vn 0.528201 -0.829629 0.180884
v 0.499371 -1.37872 -11.3992
vn 0.608412 -0.773114 0.179248
v 0.505804 -1.37319 -11.3994
vn 0.682764 -0.709153 0.175885
v 0.511668 -1.36706 -11.3999
vn 0.750541 -0.638362 0.170828
v 0.516907 -1.36041 -11.4005
vn 0.811089 -0.561424 0.164126
v 0.521469 -1.35328 -11.4012
vn 0.863827 -0.479079 0.155844
v 0.525313 -1.34576 -11.402
vn 0.908245 -0.39212 0.146061
v 0.528399 -1.33791 -11.403
vn 0.943916 -0.301384 0.134871
v 0.530699 -1.32981 -11.4041
vn 0.970497 -0.207747 0.122382
v 0.53219 -1.32153 -11.4053
vn 0.987731 -0.112108 0.108714
v 0.532858 -1.31316 -11.4065
vn 0.995453 -0.0153899 0.094
v 0.532696 -1.30478 -11.4079
vn 0.993589 0.0814765 0.0783803
v 0.531707 -1.29647 -11.4093
vn 0.982155 0.177558 0.0620058
v 0.5299 -1.28831 -11.4108
vn 0.961263 0.27193 0.0450341
v 0.527291 -1.28037 -11.4123
vn 0.931113 0.363683 0.0276287
v 0.523907 -1.27273 -11.4138
vn 0.891996 0.451933 0.00995725
v 0.519779 -1.26547 -11.4153
vn 0.844289 0.535831 -0.0078101
v 0.514948 -1.25866 -11.4169
vn 0.788451 0.614569 -0.0255022
v 0.50946 -1.25236 -11.4184
vn 0.725019 0.687388 -0.0429488
v 0.503368 -1.24663 -11.4199
vn 0.654606 0.753587 -0.0599817
v 0.49673 -1.24153 -11.4213
vn 0.577888 0.812529 -0.0764369
v 0.489611 -1.23711 -11.4226
vn 0.495604 0.863646 -0.0921561
v 0.482079 -1.23341 -11.4239
vn 0.408548 0.906445 -0.106988
v 0.474206 -1.23046 -11.4251
vn 0.317557 0.940514 -0.120789
v 0.466069 -1.2283 -11.4262
vn 0.223508 0.965526 -0.133427
v 0.457746 -1.22694 -11.4272
vn 0.127306 0.98124 -0.14478
v 0.449316 -1.22639 -11.4281
vn 0.0298789 0.987504 -0.154739
v 0.440862 -1.22668 -11.4288
vn -0.0678365 0.984257 -0.163207
v 0.432464 -1.22778 -11.4294
vn -0.164899 0.971531 -0.170104
v 0.424204 -1.22969 -11.4298
vn -0.260373 0.949449 -0.175362
v 0.41616 -1.23239 -11.4301
vn -0.353339 0.918224 -0.178932
v 0.408411 -1.23586 -11.4303
vn -0.442903 0.878155 -0.180779
v 0.401031 -1.24005 -11.4303
vn -0.528201 0.829629 -0.180884
v 0.394091 -1.24494 -11.4302
vn -0.608412 0.773114 -0.179248
v 0.387658 -1.25048 -11.4299
vn -0.682764 0.709153 -0.175885
v 0.801332 -1.96682 -15.7738
vn -0.748898 0.635608 -0.187495
v 0.795552 -1.97417 -15.7732
vn -0.809454 0.558683 -0.180713
v 0.790516 -1.98202 -15.7723
vn -0.862215 0.476378 -0.172191
v 0.786272 -1.99032 -15.7714
vn -0.906672 0.389484 -0.16201
v 0.782862 -1.99897 -15.7702
vn -0.942398 0.29884 -0.150269
v 0.780318 -2.0079 -15.769
vn -0.969048 0.205318 -0.137081
v 0.778665 -2.01701 -15.7676
vn -0.986365 0.109818 -0.122573
v 0.777919 -2.02623 -15.7661
vn -0.994183 0.0132611 -0.106884
v 0.778087 -2.03546 -15.7645
vn -0.992427 -0.0834238 -0.0901658
v 0.779167 -2.04461 -15.7628
vn -0.981113 -0.179305 -0.0725794
v 0.781148 -2.0536 -15.7611
vn -0.96035 -0.27346 -0.0542939
v 0.784013 -2.06233 -15.7593
vn -0.930338 -0.364981 -0.0354856
v 0.787733 -2.07073 -15.7575
vn -0.891367 -0.452987 -0.0163355
v 0.792272 -2.07872 -15.7556
vn -0.843812 -0.536631 0.00297184
v 0.797587 -2.08621 -15.7538
vn -0.78813 -0.615106 0.0222506
v 0.803627 -2.09313 -15.752
vn -0.724858 -0.687658 0.0413151
v 0.810332 -2.09942 -15.7502
vn -0.654606 -0.753587 0.0599817
v 0.81764 -2.10503 -15.7485
vn -0.578049 -0.812259 0.0780706
v 0.825479 -2.10988 -15.7468
vn -0.495925 -0.863108 0.0954077
v 0.833774 -2.11394 -15.7452
vn -0.409025 -0.905645 0.111826
v 0.842444 -2.11717 -15.7438
vn -0.318186 -0.939461 0.127167
v 0.851408 -2.11953 -15.7424
vn -0.224283 -0.964228 0.141284
v 0.860577 -2.12101 -15.7412
vn -0.128219 -0.97971 0.15404
v 0.869864 -2.12159 -15.7401
vn -0.0309213 -0.985756 0.165312
v 0.87918 -2.12126 -15.7392
vn 0.0666746 -0.98231 0.174993
v 0.888434 -2.12002 -15.7384
vn 0.163628 -0.969402 0.182988
v 0.897538 -2.1179 -15.7378
vn 0.259006 -0.94716 0.189221
v 0.906404 -2.11491 -15.7374
vn 0.35189 -0.915795 0.193631
v 0.914947 -2.11107 -15.7372
vn 0.441385 -0.875611 0.196177
v 0.923084 -2.10643 -15.7371
vn 0.526628 -0.826994 0.196834
v 0.930736 -2.10103 -15.7372
vn 0.606801 -0.770413 0.195595
v 0.937831 -2.09492 -15.7375
vn 0.681129 -0.706412 0.192472
v 0.9443 -2.08816 -15.738
vn 0.748898 -0.635608 0.187495
v 0.95008 -2.08082 -15.7387
vn 0.809454 -0.558683 0.180713
v 0.955116 -2.07296 -15.7395
vn 0.862215 -0.476378 0.172191
v 0.95936 -2.06467 -15.7404
vn 0.906672 -0.389484 0.16201
v 0.96277 -2.05602 -15.7416
vn 0.942398 -0.29884 0.150269
v 0.965313 -2.04709 -15.7428
vn 0.969048 -0.205318 0.137081
v 0.966966 -2.03798 -15.7442
vn 0.986365 -0.109818 0.122573
v 0.967713 -2.02876 -15.7457
vn 0.994183 -0.0132611 0.106884
v 0.967545 -2.01953 -15.7473
vn 0.992427 0.0834238 0.0901658
v 0.966465 -2.01038 -15.749
vn 0.981113 0.179305 0.0725794
v 0.964483 -2.00139 -15.7507
vn 0.96035 0.27346 0.0542939
v 0.961619 -1.99266 -15.7525
vn 0.930338 0.364981 0.0354856
v 0.957899 -1.98425 -15.7543
vn 0.891367 0.452987 0.0163355
v 0.953359 -1.97627 -15.7562
vn 0.843812 0.536631 -0.00297184
v 0.948044 -1.96878 -15.758
vn 0.78813 0.615106 -0.0222506
v 0.942005 -1.96185 -15.7598
vn 0.724858 0.687658 -0.0413151
v 0.935299 -1.95556 -15.7616
vn 0.654606 0.753587 -0.0599817
v 0.927992 -1.94996 -15.7634
vn 0.578049 0.812259 -0.0780706
v 0.920153 -1.94511 -15.765
vn 0.495925 0.863108 -0.0954077
v 0.911858 -1.94105 -15.7666
vn 0.409025 0.905645 -0.111826
v 0.903187 -1.93782 -15.768
vn 0.318186 0.939461 -0.127167
v 0.894224 -1.93546 -15.7694
vn 0.224283 0.964228 -0.141284
v 0.885055 -1.93398 -15.7706
vn 0.128219 0.97971 -0.15404
v 0.875767 -1.9334 -15.7717
vn 0.0309213 0.985756 -0.165312
v 0.866452 -1.93373 -15.7726
vn -0.0666746 0.98231 -0.174993
v 0.857197 -1.93496 -15.7734
vn -0.163628 0.969402 -0.182988
v 0.848093 -1.93708 -15.774
vn -0.259006 0.94716 -0.189221
v 0.839227 -1.94008 -15.7744
vn -0.35189 0.915795 -0.193631
v 0.830685 -1.94391 -15.7746
vn -0.441385 0.875611 -0.196177
v 0.822548 -1.94856 -15.7747
vn -0.526628 0.826994 -0.196834
v 0.814895 -1.95396 -15.7746
vn -0.606801 0.770413 -0.195595
v 0.807801 -1.96006 -15.7743
vn -0.681129 0.706412 -0.192472
v 1.22075 -2.63033 -19.5326
vn -0.746381 0.631666 -0.209556
v 1.21443 -2.63836 -19.5318
vn -0.806949 0.55476 -0.202668
v 1.20892 -2.64694 -19.5309
vn -0.859746 0.472511 -0.193828
v 1.20427 -2.656 -19.5298
vn -0.904264 0.385712 -0.183121
v 1.20053 -2.66545 -19.5285
vn -0.940073 0.295198 -0.170651
v 1.19774 -2.6752 -19.527
vn -0.966828 0.201841 -0.156537
v 1.19592 -2.68515 -19.5254
vn -0.984272 0.10654 -0.140916
v 1.19509 -2.6952 -19.5236
vn -0.992237 0.0102137 -0.123937
v 1.19525 -2.70527 -19.5217
vn -0.990647 -0.0862114 -0.105765
v 1.19642 -2.71524 -19.5197
vn -0.979516 -0.181806 -0.0865746
v 1.19856 -2.72504 -19.5176
vn -0.958952 -0.27565 -0.0665503
v 1.20167 -2.73456 -19.5155
vn -0.929152 -0.366839 -0.045885
v 1.20572 -2.74371 -19.5133
vn -0.890404 -0.454496 -0.0247779
v 1.21066 -2.7524 -19.511
vn -0.843081 -0.537775 -0.00343208
v 1.21645 -2.76055 -19.5088
vn -0.787639 -0.615875 0.0179468
v 1.22302 -2.76809 -19.5066
vn -0.724612 -0.688044 0.0391528
v 1.23033 -2.77493 -19.5044
vn -0.654606 -0.753587 0.0599817
v 1.2383 -2.78101 -19.5023
vn -0.578295 -0.811873 0.080233
v 1.24684 -2.78628 -19.5003
vn -0.496416 -0.862339 0.0997116
v 1.25589 -2.79068 -19.4983
vn -0.409756 -0.904501 0.11823
v 1.26535 -2.79417 -19.4965
vn -0.319149 -0.937952 0.13561
v 1.27513 -2.79672 -19.4948
vn -0.225469 -0.96237 0.151683
v 1.28513 -2.7983 -19.4933
vn -0.129618 -0.97752 0.166296
v 1.29527 -2.7989 -19.492
vn -0.032518 -0.983256 0.179308
v 1.30544 -2.79851 -19.4908
vn 0.0648949 -0.979522 0.190592
v 1.31554 -2.79714 -19.4898
vn 0.161683 -0.966355 0.200041
v 1.32548 -2.79479 -19.489
vn 0.256914 -0.943882 0.207564
v 1.33516 -2.7915 -19.4884
vn 0.34967 -0.912318 0.213087
v 1.34449 -2.78729 -19.4881
vn 0.439059 -0.871969 0.216559
v 1.35338 -2.7822 -19.4879
vn 0.52422 -0.823221 0.217945
v 1.36175 -2.77628 -19.488
vn 0.604332 -0.766546 0.217232
v 1.3695 -2.7696 -19.4883
vn 0.678624 -0.702489 0.214426
v 1.37657 -2.7622 -19.4888
vn 0.746381 -0.631666 0.209556
v 1.3829 -2.75418 -19.4895
vn 0.806949 -0.55476 0.202668
v 1.38841 -2.74559 -19.4905
vn 0.859746 -0.472511 0.193828
v 1.39305 -2.73653 -19.4916
vn 0.904264 -0.385712 0.183121
v 1.39679 -2.72708 -19.4929
vn 0.940073 -0.295198 0.170651
v 1.39958 -2.71734 -19.4943
vn 0.966828 -0.201841 0.156537
v 1.4014 -2.70739 -19.496
vn 0.984272 -0.10654 0.140916
v 1.40224 -2.69733 -19.4977
vn 0.992237 -0.0102137 0.123937
v 1.40207 -2.68727 -19.4996
vn 0.990647 0.0862114 0.105765
v 1.40091 -2.67729 -19.5016
vn 0.979516 0.181806 0.0865746
v 1.39876 -2.66749 -19.5037
vn 0.958952 0.27565 0.0665503
v 1.39565 -2.65797 -19.5059
vn 0.929152 0.366839 0.045885
v 1.39161 -2.64882 -19.5081
vn 0.890404 0.454496 0.0247779
v 1.38667 -2.64013 -19.5103
vn 0.843081 0.537775 0.00343208
v 1.38088 -2.63198 -19.5126
vn 0.787639 0.615875 -0.0179468
v 1.3743 -2.62445 -19.5148
vn 0.724612 0.688044 -0.0391528
v 1.36699 -2.6176 -19.5169
vn 0.654606 0.753587 -0.0599817
v 1.35903 -2.61152 -19.5191
vn 0.578295 0.811873 -0.080233
v 1.35048 -2.60625 -19.5211
vn 0.496416 0.862339 -0.0997116
v 1.34143 -2.60185 -19.523
vn 0.409756 0.904501 -0.11823
v 1.33198 -2.59836 -19.5248
vn 0.319149 0.937952 -0.13561
v 1.3222 -2.59581 -19.5265
vn 0.225469 0.96237 -0.151683
v 1.31219 -2.59423 -19.528
vn 0.129618 0.97752 -0.166296
v 1.30206 -2.59363 -19.5294
vn 0.032518 0.983256 -0.179308
v 1.29189 -2.59402 -19.5306
vn -0.0648949 0.979522 -0.190592
v 1.28179 -2.59539 -19.5316
vn -0.161683 0.966355 -0.200041
v 1.27184 -2.59774 -19.5323
vn -0.256914 0.943882 -0.207564
v 1.26216 -2.60104 -19.5329
vn -0.34967 0.912318 -0.213087
v 1.25283 -2.60525 -19.5333
vn -0.439059 0.871969 -0.216559
v 1.24394 -2.61034 -19.5334
vn -0.52422 0.823221 -0.217945
v 1.23558 -2.61625 -19.5334
vn -0.604332 0.766546 -0.217232
v 1.22782 -2.62294 -19.5331
vn -0.678624 0.702489 -0.214426
v 1.64016 -3.24726 -22.7062
vn -0.742247 0.625646 -0.240074
v 1.6333 -3.25597 -22.7054
vn -0.802836 0.548769 -0.233039
v 1.62731 -3.26528 -22.7043
vn -0.855692 0.466607 -0.22376
v 1.62225 -3.2751 -22.7031
vn -0.900308 0.379951 -0.212325
v 1.61818 -3.28533 -22.7015
vn -0.936254 0.289636 -0.198846
v 1.61513 -3.29588 -22.6998
vn -0.963183 0.196532 -0.183452
v 1.61313 -3.30665 -22.6978
vn -0.980835 0.101535 -0.166291
v 1.6122 -3.31752 -22.6957
vn -0.989042 0.00556041 -0.147528
v 1.61235 -3.32841 -22.6934
vn -0.987724 -0.0904679 -0.127345
v 1.61357 -3.33919 -22.691
vn -0.976894 -0.185625 -0.105935
v 1.61587 -3.34977 -22.6885
vn -0.956655 -0.278994 -0.0835053
v 1.6192 -3.36004 -22.6858
vn -0.927203 -0.369677 -0.0602712
v 1.62355 -3.36992 -22.6831
vn -0.888822 -0.456799 -0.0364567
v 1.62887 -3.37929 -22.6804
vn -0.841881 -0.539523 -0.012291
v 1.63511 -3.38808 -22.6776
vn -0.786833 -0.61705 0.011993
v 1.64221 -3.39619 -22.6749
vn -0.724206 -0.688634 0.0361614
v 1.65009 -3.40355 -22.6722
vn -0.654606 -0.753587 0.0599817
v 1.65869 -3.41009 -22.6696
vn -0.5787 -0.811283 0.0832243
v 1.66793 -3.41574 -22.667
vn -0.497222 -0.861165 0.105665
v 1.6777 -3.42045 -22.6646
vn -0.410955 -0.902754 0.127089
v 1.68793 -3.42418 -22.6623
vn -0.320731 -0.935648 0.147288
v 1.6985 -3.42688 -22.6602
vn -0.227418 -0.959532 0.166069
v 1.70932 -3.42854 -22.6582
vn -0.131914 -0.974175 0.183251
v 1.72029 -3.42914 -22.6565
vn -0.0351402 -0.979437 0.198668
v 1.73129 -3.42867 -22.655
vn 0.0619721 -0.975265 0.212172
v 1.74223 -3.42713 -22.6537
vn 0.158488 -0.961702 0.223632
v 1.75299 -3.42454 -22.6526
vn 0.253477 -0.938877 0.232939
v 1.76348 -3.42093 -22.6518
vn 0.346025 -0.907009 0.240002
v 1.77359 -3.41633 -22.6513
vn 0.43524 -0.866407 0.244754
v 1.78323 -3.41079 -22.651
vn 0.520264 -0.817461 0.247149
v 1.79229 -3.40435 -22.651
vn 0.600278 -0.760642 0.247163
v 1.8007 -3.39708 -22.6513
vn 0.674511 -0.696498 0.244798
v 1.80838 -3.38905 -22.6518
vn 0.742247 -0.625646 0.240074
v 1.81525 -3.38034 -22.6526
vn 0.802836 -0.548769 0.233039
v 1.82123 -3.37103 -22.6536
vn 0.855692 -0.466607 0.22376
v 1.82629 -3.36121 -22.6549
vn 0.900308 -0.379951 0.212325
v 1.83036 -3.35097 -22.6565
vn 0.936254 -0.289636 0.198846
v 1.83342 -3.34042 -22.6582
vn 0.963183 -0.196532 0.183452
v 1.83542 -3.32966 -22.6602
vn 0.980835 -0.101535 0.166291
v 1.83635 -3.31878 -22.6623
vn 0.989042 -0.00556041 0.147528
v 1.8362 -3.3079 -22.6646
vn 0.987724 0.0904679 0.127345
v 1.83497 -3.29712 -22.667
vn 0.976894 0.185625 0.105935
v 1.83268 -3.28654 -22.6695
vn 0.956655 0.278994 0.0835053
v 1.82934 -3.27626 -22.6722
vn 0.927203 0.369677 0.0602712
v 1.82499 -3.26639 -22.6749
vn 0.888822 0.456799 0.0364567
v 1.81967 -3.25702 -22.6776
vn 0.841881 0.539523 0.012291
v 1.81343 -3.24823 -22.6804
vn 0.786833 0.61705 -0.011993
v 1.80634 -3.24012 -22.6831
vn 0.724206 0.688634 -0.0361614
v 1.79845 -3.23276 -22.6858
vn 0.654606 0.753587 -0.0599817
v 1.78985 -3.22622 -22.6884
vn 0.5787 0.811283 -0.0832243
v 1.78061 -3.22057 -22.691
vn 0.497222 0.861165 -0.105665
v 1.77084 -3.21586 -22.6934
vn 0.410955 0.902754 -0.127089
v 1.76061 -3.21213 -22.6957
vn 0.320731 0.935648 -0.147288
v 1.75004 -3.20942 -22.6978
vn 0.227418 0.959532 -0.166069
v 1.73922 -3.20776 -22.6998
vn 0.131914 0.974175 -0.183251
v 1.72825 -3.20717 -22.7015
vn 0.0351402 0.979437 -0.198668
v 1.71725 -3.20764 -22.703
vn -0.0619721 0.975265 -0.212172
v 1.70631 -3.20918 -22.7043
vn -0.158488 0.961702 -0.223632
v 1.69555 -3.21176 -22.7054
vn -0.253477 0.938877 -0.232939
v 1.68506 -3.21538 -22.7062
vn -0.346025 0.907009 -0.240002
v 1.67495 -3.21998 -22.7067
vn -0.43524 0.866407 -0.244754
v 1.66532 -3.22552 -22.707
vn -0.520264 0.817461 -0.247149
v 1.65625 -3.23196 -22.707
vn -0.600278 0.760642 -0.247163
v 1.64784 -3.23923 -22.7067
vn -0.674511 0.696498 -0.244798
v 2.05982 -3.8179 -25.2957
vn -0.734773 0.615587 -0.284887
v 2.05241 -3.82729 -25.2948
vn -0.795398 0.538759 -0.277636
v 2.04593 -3.83732 -25.2936
vn -0.848362 0.456741 -0.267711
v 2.04045 -3.84788 -25.292
vn -0.893156 0.370325 -0.255208
v 2.03603 -3.85888 -25.2902
vn -0.929349 0.280343 -0.240247
v 2.0327 -3.87021 -25.2881
vn -0.956591 0.187661 -0.222973
v 2.0305 -3.88177 -25.2857
vn -0.974621 0.0931714 -0.203551
v 2.02944 -3.89343 -25.2831
vn -0.983265 -0.00221535 -0.182168
v 2.02954 -3.90508 -25.2803
vn -0.982439 -0.0975808 -0.159032
v 2.0308 -3.91663 -25.2773
vn -0.972152 -0.192006 -0.134364
v 2.0332 -3.92795 -25.2741
vn -0.952503 -0.284583 -0.108402
v 2.03672 -3.93893 -25.2708
vn -0.92368 -0.374419 -0.0813956
v 2.04133 -3.94947 -25.2674
vn -0.885962 -0.460649 -0.0536056
v 2.04699 -3.95947 -25.2639
vn -0.839712 -0.542443 -0.0252994
v 2.05363 -3.96883 -25.2604
vn -0.785375 -0.619012 0.0032505
v 2.0612 -3.97746 -25.257
vn -0.723474 -0.68962 0.0317691
v 2.06962 -3.98528 -25.2535
vn -0.654606 -0.753587 0.0599817
v 2.07881 -3.99221 -25.2501
vn -0.579433 -0.810297 0.0876166
v 2.08868 -3.99819 -25.2469
vn -0.49868 -0.859202 0.114408
v 2.09914 -4.00316 -25.2437
vn -0.413125 -0.899834 0.140097
v 2.11008 -4.00707 -25.2407
vn -0.323591 -0.931799 0.164437
v 2.12141 -4.00988 -25.238
vn -0.230941 -0.95479 0.187194
v 2.13301 -4.01156 -25.2354
vn -0.136066 -0.968587 0.208148
v 2.14477 -4.01211 -25.2331
vn -0.0398816 -0.973055 0.227097
v 2.15657 -4.01151 -25.231
vn 0.0566872 -0.968153 0.243859
v 2.16831 -4.00977 -25.2293
vn 0.15271 -0.953926 0.258272
v 2.17987 -4.00691 -25.2278
vn 0.247262 -0.930513 0.270199
v 2.19114 -4.00295 -25.2267
vn 0.339433 -0.898138 0.279523
v 2.202 -3.99794 -25.2259
vn 0.428335 -0.857114 0.286155
v 2.21237 -3.99191 -25.2254
vn 0.513112 -0.807835 0.290031
v 2.22213 -3.98494 -25.2253
vn 0.592948 -0.750776 0.291115
v 2.23119 -3.97708 -25.2255
vn 0.667073 -0.686487 0.289394
v 2.23947 -3.96841 -25.226
vn 0.734773 -0.615587 0.284887
v 2.24688 -3.95902 -25.2269
vn 0.795398 -0.538759 0.277636
v 2.25335 -3.94899 -25.2281
vn 0.848362 -0.456741 0.267711
v 2.25883 -3.93843 -25.2296
vn 0.893156 -0.370325 0.255208
v 2.26325 -3.92743 -25.2315
vn 0.929349 -0.280343 0.240247
v 2.26658 -3.9161 -25.2336
vn 0.956591 -0.187661 0.222973
v 2.26879 -3.90455 -25.236
vn 0.974621 -0.0931714 0.203551
v 2.26984 -3.89288 -25.2386
vn 0.983265 0.00221535 0.182168
v 2.26974 -3.88123 -25.2414
vn 0.982439 0.0975808 0.159032
v 2.26849 -3.86968 -25.2444
vn 0.972152 0.192006 0.134364
v 2.26608 -3.85837 -25.2476
vn 0.952503 0.284583 0.108402
v 2.26256 -3.84738 -25.2509
vn 0.92368 0.374419 0.0813956
v 2.25795 -3.83684 -25.2543
vn 0.885962 0.460649 0.0536056
v 2.25229 -3.82684 -25.2577
vn 0.839712 0.542443 0.0252994
v 2.24565 -3.81748 -25.2612
vn 0.785375 0.619012 -0.0032505
v 2.23808 -3.80885 -25.2647
vn 0.723474 0.68962 -0.0317691
v 2.22967 -3.80103 -25.2682
vn 0.654606 0.753587 -0.0599817
v 2.22048 -3.7941 -25.2716
vn 0.579433 0.810297 -0.0876166
v 2.2106 -3.78812 -25.2748
vn 0.49868 0.859202 -0.114408
v 2.20015 -3.78315 -25.278
vn 0.413125 0.899834 -0.140097
v 2.1892 -3.77924 -25.2809
vn 0.323591 0.931799 -0.164437
v 2.17787 -3.77643 -25.2837
vn 0.230941 0.95479 -0.187194
v 2.16628 -3.77475 -25.2863
vn 0.136066 0.968587 -0.208148
v 2.15452 -3.7742 -25.2886
vn 0.0398816 0.973055 -0.227097
v 2.14271 -3.7748 -25.2907
vn -0.0566872 0.968153 -0.243859
v 2.13097 -3.77654 -25.2924
vn -0.15271 0.953926 -0.258272
v 2.11941 -3.7794 -25.2939
vn -0.247262 0.930513 -0.270199
v 2.10815 -3.78336 -25.295
vn -0.339433 0.898138 -0.279523
v 2.09728 -3.78837 -25.2958
vn -0.428335 0.857114 -0.286155
v 2.08691 -3.7944 -25.2963
vn -0.513112 0.807835 -0.290031
v 2.07715 -3.80137 -25.2964
vn -0.592948 0.750776 -0.291115
v 2.06809 -3.80923 -25.2962
vn -0.667073 0.686487 -0.289394
v 2.48043 -4.34303 -27.303
vn -0.719228 0.596391 -0.356411
v 2.47246 -4.3531 -27.302
vn -0.779928 0.519655 -0.348815
v 2.46549 -4.36382 -27.3005
vn -0.833116 0.437914 -0.33786
v 2.45956 -4.3751 -27.2987
vn -0.87828 0.351956 -0.323652
v 2.45475 -4.38682 -27.2964
vn -0.914987 0.262608 -0.306327
v 2.45109 -4.39887 -27.2937
vn -0.942882 0.170731 -0.286051
v 2.44862 -4.41114 -27.2907
vn -0.961696 0.0772103 -0.263021
v 2.44737 -4.42351 -27.2874
vn -0.971248 -0.0170543 -0.237457
v 2.44734 -4.43585 -27.2837
vn -0.971447 -0.111155 -0.209607
v 2.44854 -4.44805 -27.2798
vn -0.96229 -0.204184 -0.179738
v 2.45096 -4.46 -27.2757
vn -0.943866 -0.295248 -0.148138
v 2.45457 -4.47157 -27.2713
vn -0.916352 -0.383468 -0.115112
v 2.45933 -4.48266 -27.2668
vn -0.880013 -0.467995 -0.0809766
v 2.46521 -4.49316 -27.2623
vn -0.835199 -0.548015 -0.0460617
v 2.47215 -4.50296 -27.2576
vn -0.782342 -0.622757 -0.0107031
v 2.48007 -4.51198 -27.253
vn -0.72195 -0.691502 0.0247585
v 2.4889 -4.52013 -27.2483
vn -0.654606 -0.753587 0.0599817
v 2.49856 -4.52732 -27.2438
vn -0.580957 -0.808415 0.0946272
v 2.50896 -4.53349 -27.2394
vn -0.501713 -0.855457 0.128361
v 2.51999 -4.53858 -27.2351
vn -0.417638 -0.894261 0.160859
v 2.53154 -4.54254 -27.2311
vn -0.32954 -0.924453 0.191808
v 2.54352 -4.54533 -27.2272
vn -0.238269 -0.945741 0.22091
v 2.55579 -4.54693 -27.2237
vn -0.144703 -0.957922 0.247884
v 2.56825 -4.54732 -27.2205
vn -0.0497434 -0.960877 0.272471
v 2.58077 -4.54649 -27.2176
vn 0.0456951 -0.954579 0.294434
v 2.59323 -4.54446 -27.2151
vn 0.140694 -0.939087 0.313561
v 2.60551 -4.54124 -27.213
vn 0.234337 -0.914552 0.329669
v 2.6175 -4.53687 -27.2113
vn 0.325724 -0.881208 0.342601
v 2.62908 -4.53138 -27.21
vn 0.413974 -0.839379 0.352235
v 2.64013 -4.52483 -27.2092
vn 0.498237 -0.789465 0.358476
v 2.65056 -4.51729 -27.2088
vn 0.577701 -0.731949 0.361264
v 2.66025 -4.50882 -27.2089
vn 0.651602 -0.667384 0.360574
v 2.66912 -4.4995 -27.2095
vn 0.719228 -0.596391 0.356411
v 2.67709 -4.48944 -27.2105
vn 0.779928 -0.519655 0.348815
v 2.68406 -4.47872 -27.2119
vn 0.833116 -0.437914 0.33786
v 2.68999 -4.46744 -27.2138
vn 0.87828 -0.351956 0.323652
v 2.6948 -4.45572 -27.216
vn 0.914987 -0.262608 0.306327
v 2.69846 -4.44367 -27.2187
vn 0.942882 -0.170731 0.286051
v 2.70093 -4.4314 -27.2217
vn 0.961696 -0.0772103 0.263021
v 2.70218 -4.41903 -27.2251
vn 0.971248 0.0170543 0.237457
v 2.70221 -4.40669 -27.2287
vn 0.971447 0.111155 0.209607
v 2.70101 -4.39448 -27.2326
vn 0.96229 0.204184 0.179738
v 2.69859 -4.38254 -27.2368
vn 0.943866 0.295248 0.148138
v 2.69498 -4.37097 -27.2411
vn 0.916352 0.383468 0.115112
v 2.69021 -4.35988 -27.2456
vn 0.880013 0.467995 0.0809766
v 2.68434 -4.34938 -27.2502
vn 0.835199 0.548015 0.0460617
v 2.6774 -4.33958 -27.2548
vn 0.782342 0.622757 0.0107031
v 2.66948 -4.33056 -27.2595
vn 0.72195 0.691502 -0.0247585
v 2.66065 -4.32241 -27.2641
vn 0.654606 0.753587 -0.0599817
v 2.65098 -4.31522 -27.2686
vn 0.580957 0.808415 -0.0946272
v 2.64059 -4.30905 -27.2731
vn 0.501713 0.855457 -0.128361
v 2.62956 -4.30396 -27.2773
vn 0.417638 0.894261 -0.160859
v 2.618 -4.3 -27.2814
vn 0.32954 0.924453 -0.191808
v 2.60603 -4.29721 -27.2852
vn 0.238269 0.945741 -0.22091
v 2.59376 -4.29561 -27.2887
vn 0.144703 0.957922 -0.247884
v 2.5813 -4.29522 -27.292
vn 0.0497434 0.960877 -0.272471
v 2.56878 -4.29605 -27.2948
vn -0.0456951 0.954579 -0.294434
v 2.55632 -4.29808 -27.2974
vn -0.140694 0.939087 -0.313561
v 2.54403 -4.3013 -27.2995
vn -0.234337 0.914552 -0.329669
v 2.53205 -4.30567 -27.3012
vn -0.325724 0.881208 -0.342601
v 2.52047 -4.31116 -27.3024
vn -0.413974 0.839379 -0.352235
v 2.50942 -4.31771 -27.3032
vn -0.498237 0.789465 -0.358476
v 2.49899 -4.32525 -27.3036
vn -0.577701 0.731949 -0.361264
v 2.4893 -4.33372 -27.3035
vn -0.651602 0.667384 -0.360574
v 2.90452 -4.82526 -28.733
vn -0.679056 0.551281 -0.48474
v 2.89599 -4.83598 -28.7319
vn -0.739949 0.474762 -0.476526
v 2.88846 -4.84734 -28.7301
vn -0.793715 0.393671 -0.463724
v 2.882 -4.85923 -28.7277
vn -0.839838 0.308788 -0.446455
v 2.87667 -4.87154 -28.7247
vn -0.877873 0.220932 -0.424887
v 2.87252 -4.88415 -28.7211
vn -0.907453 0.130948 -0.399227
v 2.8696 -4.89693 -28.7169
vn -0.928294 0.0397026 -0.369722
v 2.86794 -4.90977 -28.7123
vn -0.940195 -0.0519248 -0.336657
v 2.86754 -4.92254 -28.7072
vn -0.943041 -0.143052 -0.300349
v 2.86841 -4.93512 -28.7017
vn -0.936805 -0.232802 -0.261149
v 2.87055 -4.94738 -28.6959
vn -0.921548 -0.32031 -0.219434
v 2.87393 -4.95921 -28.6897
vn -0.897415 -0.404733 -0.175606
v 2.87852 -4.97049 -28.6834
vn -0.86464 -0.485258 -0.130086
v 2.88428 -4.98112 -28.6768
vn -0.823538 -0.56111 -0.0833136
v 2.89115 -4.99099 -28.6701
vn -0.774505 -0.631558 -0.0357388
v 2.89907 -5.00001 -28.6634
vn -0.718013 -0.695924 0.0121801
v 2.90795 -5.00808 -28.6567
vn -0.654606 -0.753587 0.0599817
v 2.91772 -5.01515 -28.6501
vn -0.584894 -0.803994 0.107206
v 2.92827 -5.02112 -28.6436
vn -0.50955 -0.846657 0.153397
v 2.93952 -5.02596 -28.6374
vn -0.429299 -0.881166 0.198111
v 2.95134 -5.02961 -28.6314
vn -0.344913 -0.90719 0.240918
v 2.96363 -5.03203 -28.6257
vn -0.257206 -0.924477 0.281404
v 2.97627 -5.0332 -28.6204
vn -0.167021 -0.93286 0.31918
v 2.98913 -5.03312 -28.6155
vn -0.0752284 -0.93226 0.353882
v 3.00209 -5.03178 -28.6112
vn 0.017289 -0.922681 0.385176
v 3.01503 -5.02919 -28.6073
vn 0.10964 -0.904217 0.412761
v 3.02782 -5.02538 -28.604
vn 0.200935 -0.877044 0.43637
v 3.04034 -5.02039 -28.6013
vn 0.290295 -0.841425 0.455777
v 3.05247 -5.01427 -28.5992
vn 0.376859 -0.797703 0.470795
v 3.06409 -5.00706 -28.5977
vn 0.459794 -0.746298 0.481279
v 3.07509 -4.99885 -28.5969
vn 0.538301 -0.687706 0.487127
v 3.08536 -4.98972 -28.5967
vn 0.611624 -0.622491 0.488285
v 3.09481 -4.97974 -28.5972
vn 0.679056 -0.551281 0.48474
v 3.10334 -4.96902 -28.5984
vn 0.739949 -0.474762 0.476526
v 3.11088 -4.95766 -28.6002
vn 0.793715 -0.393671 0.463724
v 3.11734 -4.94576 -28.6026
vn 0.839838 -0.308788 0.446455
v 3.12267 -4.93345 -28.6056
vn 0.877873 -0.220932 0.424887
v 3.12681 -4.92084 -28.6092
vn 0.907453 -0.130948 0.399227
v 3.12973 -4.90806 -28.6133
vn 0.928294 -0.0397026 0.369722
v 3.1314 -4.89522 -28.618
vn 0.940195 0.0519248 0.336657
v 3.1318 -4.88245 -28.623
vn 0.943041 0.143052 0.300349
v 3.13093 -4.86988 -28.6285
vn 0.936805 0.232802 0.261149
v 3.12879 -4.85762 -28.6344
vn 0.921548 0.32031 0.219434
v 3.12541 -4.84579 -28.6405
vn 0.897415 0.404733 0.175606
v 3.12082 -4.83451 -28.6469
vn 0.86464 0.485258 0.130086
v 3.11506 -4.82388 -28.6535
vn 0.823538 0.56111 0.0833136
v 3.10819 -4.81401 -28.6601
vn 0.774505 0.631558 0.0357388
v 3.10027 -4.80499 -28.6668
vn 0.718013 0.695924 -0.0121801
v 3.09139 -4.79691 -28.6735
vn 0.654606 0.753587 -0.0599817
v 3.08162 -4.78985 -28.6802
vn 0.584894 0.803994 -0.107206
v 3.07106 -4.78387 -28.6866
vn 0.50955 0.846657 -0.153397
v 3.05982 -4.77904 -28.6929
vn 0.429299 0.881166 -0.198111
v 3.048 -4.77539 -28.6989
vn 0.344913 0.90719 -0.240918
v 3.03571 -4.77297 -28.7046
vn 0.257206 0.924477 -0.281404
v 3.02307 -4.77179 -28.7099
vn 0.167021 0.93286 -0.31918
v 3.01021 -4.77188 -28.7147
vn 0.0752284 0.93226 -0.353882
v 2.99725 -4.77322 -28.7191
vn -0.017289 0.922681 -0.385176
v 2.98431 -4.77581 -28.723
vn -0.10964 0.904217 -0.412761
v 2.97151 -4.77961 -28.7263
vn -0.200935 0.877044 -0.43637
v 2.95899 -4.7846 -28.729
vn -0.290295 0.841425 -0.455777
v 2.94687 -4.79073 -28.7311
vn -0.376859 0.797703 -0.470795
v 2.93525 -4.79793 -28.7326
vn -0.459794 0.746298 -0.481279
v 2.92425 -4.80614 -28.7334
vn -0.538301 0.687706 -0.487127
v 2.91397 -4.81528 -28.7335
vn -0.611624 0.622491 -0.488285
v 3.34475 -5.27653 -29.5982
vn -0.533869 0.404651 -0.742456
v 3.33557 -5.28783 -29.5968
vn -0.595461 0.328838 -0.733001
v 3.32725 -5.2996 -29.5944
vn -0.651318 0.249859 -0.716488
v 3.31986 -5.31173 -29.5909
vn -0.700903 0.168472 -0.693074
v 3.31347 -5.3241 -29.5864
vn -0.743738 0.0854638 -0.662986
v 3.30816 -5.3366 -29.581
vn -0.77941 0.00163207 -0.626512
v 3.30396 -5.34909 -29.5746
vn -0.807576 -0.0822153 -0.584005
v 3.30092 -5.36147 -29.5674
vn -0.827964 -0.165271 -0.535874
v 3.29907 -5.37361 -29.5595
vn -0.840379 -0.246735 -0.482582
v 3.29843 -5.3854 -29.5509
vn -0.8447 -0.325823 -0.424643
v 3.299 -5.39672 -29.5416
vn -0.840887 -0.401773 -0.362613
v 3.30077 -5.40746 -29.5319
vn -0.828975 -0.473853 -0.297092
v 3.30374 -5.41753 -29.5217
vn -0.80908 -0.54137 -0.22871
v 3.30786 -5.42681 -29.5111
vn -0.781393 -0.603674 -0.158125
v 3.31311 -5.43523 -29.5004
vn -0.74618 -0.660164 -0.0860168
v 3.31943 -5.4427 -29.4895
vn -0.703782 -0.710296 -0.0130805
v 3.32676 -5.44916 -29.4786
vn -0.654606 -0.753587 0.0599817
v 3.33503 -5.45453 -29.4678
vn -0.599125 -0.789621 0.132466
v 3.34416 -5.45877 -29.4572
vn -0.537875 -0.818051 0.203675
v 3.35406 -5.46183 -29.4469
vn -0.471444 -0.838602 0.272922
v 3.36464 -5.46369 -29.437
vn -0.400474 -0.851077 0.339541
v 3.37579 -5.46433 -29.4275
vn -0.325646 -0.855356 0.40289
v 3.38741 -5.46374 -29.4187
vn -0.247683 -0.851397 0.462359
v 3.39938 -5.46192 -29.4105
vn -0.167334 -0.839239 0.517375
v 3.4116 -5.45891 -29.403
vn -0.0853733 -0.818998 0.567409
v 3.42394 -5.45471 -29.3964
vn -0.00259069 -0.79087 0.611978
v 3.43628 -5.44939 -29.3906
vn 0.0802169 -0.755126 0.650654
v 3.44851 -5.44298 -29.3858
vn 0.162252 -0.712109 0.683063
v 3.4605 -5.43554 -29.3819
vn 0.242724 -0.662234 0.708894
v 3.47215 -5.42716 -29.3791
vn 0.320859 -0.605982 0.727898
v 3.48333 -5.4179 -29.3773
vn 0.395904 -0.543894 0.739892
v 3.49395 -5.40787 -29.3766
vn 0.467136 -0.476567 0.74476
v 3.5039 -5.39715 -29.3769
vn 0.533869 -0.404651 0.742456
v 3.51308 -5.38585 -29.3783
vn 0.595461 -0.328838 0.733001
v 3.5214 -5.37408 -29.3808
vn 0.651318 -0.249859 0.716488
v 3.52879 -5.36195 -29.3843
vn 0.700903 -0.168472 0.693074
v 3.53517 -5.34958 -29.3888
vn 0.743738 -0.0854638 0.662986
v 3.54049 -5.33708 -29.3942
vn 0.77941 -0.00163207 0.626512
v 3.54469 -5.32459 -29.4005
vn 0.807576 0.0822153 0.584005
v 3.54773 -5.31221 -29.4077
vn 0.827964 0.165271 0.535874
v 3.54958 -5.30006 -29.4157
vn 0.840379 0.246735 0.482582
v 3.55022 -5.28828 -29.4243
vn 0.8447 0.325823 0.424643
v 3.54965 -5.27696 -29.4335
vn 0.840887 0.401773 0.362613
v 3.54788 -5.26621 -29.4433
vn 0.828975 0.473853 0.297092
v 3.54491 -5.25615 -29.4535
vn 0.80908 0.54137 0.22871
v 3.54079 -5.24686 -29.464
vn 0.781393 0.603674 0.158125
v 3.53554 -5.23845 -29.4748
vn 0.74618 0.660164 0.0860168
v 3.52922 -5.23097 -29.4856
vn 0.703782 0.710296 0.0130805
v 3.52189 -5.22452 -29.4965
vn 0.654606 0.753587 -0.0599817
v 3.51362 -5.21915 -29.5073
vn 0.599125 0.789621 -0.132466
v 3.50449 -5.21491 -29.5179
vn 0.537875 0.818051 -0.203675
v 3.49459 -5.21185 -29.5283
vn 0.471444 0.838602 -0.272922
v 3.48401 -5.20999 -29.5382
vn 0.400474 0.851077 -0.339541
v 3.47286 -5.20935 -29.5476
vn 0.325646 0.855356 -0.40289
v 3.46124 -5.20994 -29.5565
vn 0.247683 0.851397 -0.462359
v 3.44927 -5.21175 -29.5647
vn 0.167334 0.839239 -0.517375
v 3.43705 -5.21477 -29.5721
vn 0.0853733 0.818998 -0.567409
v 3.42471 -5.21896 -29.5788
vn 0.00259069 0.79087 -0.611978
v 3.41237 -5.22429 -29.5846
vn -0.0802169 0.755126 -0.650654
v 3.40014 -5.2307 -29.5894
vn -0.162252 0.712109 -0.683063
v 3.38815 -5.23814 -29.5932
vn -0.242724 0.662234 -0.708894
v 3.3765 -5.24652 -29.5961
vn -0.320859 0.605982 -0.727898
v 3.36532 -5.25577 -29.5979
vn -0.395904 0.543894 -0.739892
v 3.3547 -5.26581 -29.5986
vn -0.467136 0.476567 -0.74476
v 3.85473 -5.74198 -29.8804
vn 0.0379205 -0.111976 -0.992987
v 3.84457 -5.75357 -29.8787
vn -0.0264247 -0.185302 -0.982326
v 3.83444 -5.76487 -29.8756
vn -0.0905153 -0.256842 -0.962205
v 3.82446 -5.77578 -29.8709
vn -0.153734 -0.32591 -0.932818
v 3.8147 -5.7862 -29.8649
vn -0.215473 -0.391838 -0.894446
v 3.80528 -5.79601 -29.8574
vn -0.275136 -0.453993 -0.847461
v 3.79627 -5.80514 -29.8487
vn -0.33215 -0.511776 -0.792315
v 3.78777 -5.81349 -29.8388
vn -0.385964 -0.56463 -0.729537
v 3.77986 -5.82098 -29.8278
vn -0.436062 -0.612046 -0.659734
v 3.7726 -5.82754 -29.8158
vn -0.48196 -0.653568 -0.583578
v 3.76609 -5.83311 -29.8028
vn -0.523217 -0.688796 -0.501801
v 3.76037 -5.83762 -29.7891
vn -0.559435 -0.71739 -0.415192
v 3.7555 -5.84105 -29.7748
vn -0.590265 -0.739075 -0.324584
v 3.75152 -5.84335 -29.76
vn -0.615411 -0.753643 -0.23085
v 3.74849 -5.84451 -29.7449
vn -0.63463 -0.760953 -0.134893
v 3.74642 -5.8445 -29.7295
vn -0.647737 -0.760934 -0.0376369
v 3.74533 -5.84334 -29.7141
vn -0.654606 -0.753587 0.0599817
v 3.74524 -5.84104 -29.6988
vn -0.65517 -0.738983 0.157023
v 3.74615 -5.8376 -29.6837
vn -0.649425 -0.717262 0.252551
v 3.74804 -5.83308 -29.669
vn -0.637426 -0.688633 0.345648
v 3.75091 -5.82751 -29.6548
vn -0.619288 -0.653372 0.435416
v 3.75472 -5.82095 -29.6413
vn -0.595186 -0.611819 0.52099
v 3.75943 -5.81345 -29.6285
vn -0.565352 -0.564374 0.601547
v 3.765 -5.8051 -29.6167
vn -0.530073 -0.511494 0.676311
v 3.77138 -5.79597 -29.6059
vn -0.48969 -0.453687 0.744561
v 3.77851 -5.78614 -29.5963
vn -0.44459 -0.391512 0.805641
v 3.78631 -5.77573 -29.5879
vn -0.395209 -0.325566 0.858963
v 3.79471 -5.76481 -29.5807
vn -0.342022 -0.256484 0.904012
v 3.80363 -5.75351 -29.575
vn -0.285541 -0.184933 0.940354
v 3.81299 -5.74192 -29.5707
vn -0.22631 -0.1116 0.967641
v 3.82269 -5.73017 -29.5679
vn -0.164899 -0.0371928 0.985609
v 3.83265 -5.71836 -29.5665
vn -0.1019 0.0375728 0.994085
v 3.84275 -5.7066 -29.5667
vn -0.0379205 0.111976 0.992987
v 3.85292 -5.69502 -29.5684
vn 0.0264247 0.185302 0.982326
v 3.86304 -5.68372 -29.5716
vn 0.0905153 0.256842 0.962205
v 3.87303 -5.67281 -29.5762
vn 0.153734 0.32591 0.932818
v 3.88278 -5.66239 -29.5823
vn 0.215473 0.391838 0.894446
v 3.89221 -5.65257 -29.5897
vn 0.275136 0.453993 0.847461
v 3.90122 -5.64345 -29.5984
vn 0.33215 0.511776 0.792315
v 3.90972 -5.6351 -29.6083
vn 0.385964 0.56463 0.729537
v 3.91763 -5.6276 -29.6193
vn 0.436062 0.612046 0.659734
v 3.92488 -5.62105 -29.6314
vn 0.48196 0.653568 0.583578
v 3.9314 -5.61548 -29.6443
vn 0.523217 0.688796 0.501801
v 3.93712 -5.61096 -29.658
vn 0.559435 0.71739 0.415192
v 3.94199 -5.60754 -29.6723
vn 0.590265 0.739075 0.324584
v 3.94596 -5.60524 -29.6871
vn 0.615411 0.753643 0.23085
v 3.949 -5.60408 -29.7022
vn 0.63463 0.760953 0.134893
v 3.95107 -5.60408 -29.7176
vn 0.647737 0.760934 0.0376369
v 3.95216 -5.60524 -29.733
vn 0.654606 0.753587 -0.0599817
v 3.95224 -5.60755 -29.7484
vn 0.65517 0.738983 -0.157023
v 3.95134 -5.61098 -29.7635
vn 0.649425 0.717262 -0.252551
v 3.94944 -5.61551 -29.7782
vn 0.637426 0.688633 -0.345648
v 3.94658 -5.62108 -29.7923
vn 0.619288 0.653372 -0.435416
v 3.94277 -5.62764 -29.8059
vn 0.595186 0.611819 -0.52099
v 3.93806 -5.63514 -29.8186
vn 0.565352 0.564374 -0.601547
v 3.93248 -5.64349 -29.8304
vn 0.530073 0.511494 -0.676311
v 3.9261 -5.65262 -29.8412
vn 0.48969 0.453687 -0.744561
v 3.91898 -5.66244 -29.8508
vn 0.44459 0.391512 -0.805641
v 3.91118 -5.67286 -29.8593
vn 0.395209 0.325566 -0.858963
v 3.90277 -5.68378 -29.8664
vn 0.342022 0.256484 -0.904012
v 3.89385 -5.69508 -29.8721
vn 0.285541 0.184933 -0.940354
v 3.88449 -5.70666 -29.8764
vn 0.22631 0.1116 -0.967641
v 3.87479 -5.71842 -29.8793
vn 0.164899 0.0371928 -0.985609
v 3.86484 -5.73023 -29.8806
vn 0.1019 -0.0375728 -0.994085
f 1 66 2 
f 1 65 66 
f 2 67 3 
f 2 66 67 
f 3 68 4 
f 3 67 68 
f 4 69 5 
f 4 68 69 
f 5 70 6 
f 5 69 70 
f 6 71 7 
f 6 70 71 
f 7 72 8 
f 7 71 72 
f 8 73 9 
f 8 72 73 
f 9 74 10 
f 9 73 74 
f 10 75 11 
f 10 74 75 
f 11 76 12 
f 11 75 76 
f 12 77 13 
f 12 76 77 
f 13 78 14 
f 13 77 78 
f 14 79 15 
f 14 78 79 
f 15 80 16 
f 15 79 80 
f 16 81 17 
f 16 80 81 
f 17 82 18 
f 17 81 82 
f 18 83 19 
f 18 82 83 
f 19 84 20 
f 19 83 84 
f 20 85 21 
f 20 84 85 
f 21 86 22 
f 21 85 86 
f 22 87 23 
f 22 86 87 
f 23 88 24 
f 23 87 88 
f 24 89 25 
f 24 88 89 
f 25 90 26 
f 25 89 90 
f 26 91 27 
f 26 90 91 
f 27 92 28 
f 27 91 92 
f 28 93 29 
f 28 92 93 
f 29 94 30 
f 29 93 94 
f 30 95 31 
f 30 94 95 
f 31 96 32 
f 31 95 96 
f 32 97 33 
f 32 96 97 
f 33 98 34 
f 33 97 98 
f 34 99 35 
f 34 98 99 
f 35 100 36 
f 35 99 100 
f 36 101 37 
f 36 100 101 
f 37 102 38 
f 37 101 102 
f 38 103 39 
f 38 102 103 
f 39 104 40 
f 39 103 104 
f 40 105 41 
f 40 104 105 
f 41 106 42 
f 41 105 106 
f 42 107 43 
f 42 106 107 
f 43 108 44 
f 43 107 108 
f 44 109 45 
f 44 108 109 
f 45 110 46 
f 45 109 110 
f 46 111 47 
f 46 110 111 
f 47 112 48 
f 47 111 112 
f 48 113 49 
f 48 112 113 
f 49 114 50 
f 49 113 114 
f 50 115 51 
f 50 114 115 
f 51 116 52 
f 51 115 116 
f 52 117 53 
f 52 116 117 
f 53 118 54 
f 53 117 118 
f 54 119 55 
f 54 118 119 
f 55 120 56 
f 55 119 120 
f 56 121 57 
f 56 120 121 
f 57 122 58 
f 57 121 122 
f 58 123 59 
f 58 122 123 
f 59 124 60 
f 59 123 124 
f 60 125 61 
f 60 124 125 
f 61 126 62 
f 61 125 126 
f 62 127 63 
f 62 126 127 
f 63 128 64 
f 63 127 128 
f 64 65 1 
f 64 128 65 
f 65 130 66 
f 65 129 130 
f 66 131 67 
f 66 130 131 
f 67 132 68 
f 67 131 132 
f 68 133 69 
f 68 132 133 
f 69 134 70 
f 69 133 134 
f 70 135 71 
f 70 134 135 
f 71 136 72 
f 71 135 136 
f 72 137 73 
f 72 136 137 
f 73 138 74 
f 73 137 138 
f 74 139 75 
f 74 138 139 
f 75 140 76 
f 75 139 140 
f 76 141 77 
f 76 140 141 
f 77 142 78 
f 77 141 142 
f 78 143 79 
f 78 142 143 
f 79 144 80 
f 79 143 144 
f 80 145 81 
f 80 144 145 
f 81 146 82 
f 81 145 146 
f 82 147 83 
f 82 146 147 
f 83 148 84 
f 83 147 148 
f 84 149 85 
f 84 148 149 
f 85 150 86 
f 85 149 150 
f 86 151 87 
f 86 150 151 
f 87 152 88 
f 87 151 152 
f 88 153 89 
f 88 152 153 
f 89 154 90 
f 89 153 154 
f 90 155 91 
f 90 154 155 
f 91 156 92 
f 91 155 156 
f 92 157 93 
f 92 156 157 
f 93 158 94 
f 93 157 158 
f 94 159 95 
f 94 158 159 
f 95 160 96 
f 95 159 160 
f 96 161 97 
f 96 160 161 
f 97 162 98 
f 97 161 162 
f 98 163 99 
f 98 162 163 
f 99 164 100 
f 99 163 164 
f 100 165 101 
f 100 164 165 
f 101 166 102 
f 101 165 166 
f 102 167 103 
f 102 166 167 
f 103 168 104 
f 103 167 168 
f 104 169 105 
f 104 168 169 
f 105 170 106 
f 105 169 170 
f 106 171 107 
f 106 170 171 
f 107 172 108 
f 107 171 172 
f 108 173 109 
f 108 172 173 
f 109 174 110 
f 109 173 174 
f 110 175 111 
f 110 174 175 
f 111 176 112 
f 111 175 176 
f 112 177 113 
f 112 176 177 
f 113 178 114 
f 113 177 178 
f 114 179 115 
f 114 178 179 
f 115 180 116 
f 115 179 180 
f 116 181 117 
f 116 180 181 
f 117 182 118 
f 117 181 182 
f 118 183 119 
f 118 182 183 
f 119 184 120 
f 119 183 184 
f 120 185 121 
f 120 184 185 
f 121 186 122 
f 121 185 186 
f 122 187 123 
f 122 186 187 
f 123 188 124 
f 123 187 188 
f 124 189 125 
f 124 188 189 
f 125 190 126 
f 125 189 190 
f 126 191 127 
f 126 190 191 
f 127 192 128 
f 127 191 192 
f 128 129 65 
f 128 192 129 
f 129 194 130 
f 129 193 194 
f 130 195 131 
f 130 194 195 
f 131 196 132 
f 131 195 196 
f 132 197 133 
f 132 196 197 
f 133 198 134 
f 133 197 198 
f 134 199 135 
f 134 198 199 
f 135 200 136 
f 135 199 200 
f 136 201 137 
f 136 200 201 
f 137 202 138 
f 137 201 202 
f 138 203 139 
f 138 202 203 
f 139 204 140 
f 139 203 204 
f 140 205 141 
f 140 204 205 
f 141 206 142 
f 141 205 206 
f 142 207 143 
f 142 206 207 
f 143 208 144 
f 143 207 208 
f 144 209 145 
f 144 208 209 
f 145 210 146 
f 145 209 210 
f 146 211 147 
f 146 210 211 
f 147 212 148 
f 147 211 212 
f 148 213 149 
f 148 212 213 
f 149 214 150 
f 149 213 214 
f 150 215 151 
f 150 214 215 
f 151 216 152 
f 151 215 216 
f 152 217 153 
f 152 216 217 
f 153 218 154 
f 153 217 218 
f 154 219 155 
f 154 218 219 
f 155 220 156 
f 155 219 220 
f 156 221 157 
f 156 220 221 
f 157 222 158 
f 157 221 222 
f 158 223 159 
f 158 222 223 
f 159 224 160 
f 159 223 224 
f 160 225 161 
f 160 224 225 
f 161 226 162 
f 161 225 226 
f 162 227 163 
f 162 226 227 
f 163 228 164 
f 163 227 228 
f 164 229 165 
f 164 228 229 
f 165 230 166 
f 165 229 230 
f 166 231 167 
f 166 230 231 
f 167 232 168 
f 167 231 232 
f 168 233 169 
f 168 232 233 
f 169 234 170 
f 169 233 234 
f 170 235 171 
f 170 234 235 
f 171 236 172 
f 171 235 236 
f 172 237 173 
f 172 236 237 
f 173 238 174 
f 173 237 238 
f 174 239 175 
f 174 238 239 
f 175 240 176 
f 175 239 240 
f 176 241 177 
f 176 240 241 
f 177 242 178 
f 177 241 242 
f 178 243 179 
f 178 242 243 
f 179 244 180 
f 179 243 244 
f 180 245 181 
f 180 244 245 
f 181 246 182 
f 181 245 246 
f 182 247 183 
f 182 246 247 
f 183 248 184 
f 183 247 248 
f 184 249 185 
f 184 248 249 
f 185 250 186 
f 185 249 250 
f 186 251 187 
f 186 250 251 
f 187 252 188 
f 187 251 252 
f 188 253 189 
f 188 252 253 
f 189 254 190 
f 189 253 254 
f 190 255 191 
f 190 254 255 
f 191 256 192 
f 191 255 256 
f 192 193 129 
f 192 256 193 
f 193 258 194 
f 193 257 258 
f 194 259 195 
f 194 258 259 
f 195 260 196 
f 195 259 260 
f 196 261 197 
f 196 260 261 
f 197 262 198 
f 197 261 262 
f 198 263 199 
f 198 262 263 
f 199 264 200 
f 199 263 264 
f 200 265 201 
f 200 264 265 
f 201 266 202 
f 201 265 266 
f 202 267 203 
f 202 266 267 
f 203 268 204 
f 203 267 268 
f 204 269 205 
f 204 268 269 
f 205 270 206 
f 205 269 270 
f 206 271 207 
f 206 270 271 
f 207 272 208 
f 207 271 272 
f 208 273 209 
f 208 272 273 
f 209 274 210 
f 209 273 274 
f 210 275 211 
f 210 274 275 
f 211 276 212 
f 211 275 276 
f 212 277 213 
f 212 276 277 
f 213 278 214 
f 213 277 278 
f 214 279 215 
f 214 278 279 
f 215 280 216 
f 215 279 280 
f 216 281 217 
f 216 280 281 
f 217 282 218 
f 217 281 282 
f 218 283 219 
f 218 282 283 
f 219 284 220 
f 219 283 284 
f 220 285 221 
f 220 284 285 
f 221 286 222 
f 221 285 286 
f 222 287 223 
f 222 286 287 
f 223 288 224 
f 223 287 288 
f 224 289 225 
f 224 288 289 
f 225 290 226 
f 225 289 290 
f 226 291 227 
f 226 290 291 
f 227 292 228 
f 227 291 292 
f 228 293 229 
f 228 292 293 
f 229 294 230 
f 229 293 294 
f 230 295 231 
f 230 294 295 
f 231 296 232 
f 231 295 296 
f 232 297 233 
f 232 296 297 
f 233 298 234 
f 233 297 298 
f 234 299 235 
f 234 298 299 
f 235 300 236 
f 235 299 300 
f 236 301 237 
f 236 300 301 
f 237 302 238 
f 237 301 302 
f 238 303 239 
f 238 302 303 
f 239 304 240 
f 239 303 304 
f 240 305 241 
f 240 304 305 
f 241 306 242 
f 241 305 306 
f 242 307 243 
f 242 306 307 
f 243 308 244 
f 243 307 308 
f 244 309 245 
f 244 308 309 
f 245 310 246 
f 245 309 310 
f 246 311 247 
f 246 310 311 
f 247 312 248 
f 247 311 312 
f 248 313 249 
f 248 312 313 
f 249 314 250 
f 249 313 314 
f 250 315 251 
f 250 314 315 
f 251 316 252 
f 251 315 316 
f 252 317 253 
f 252 316 317 
f 253 318 254 
f 253 317 318 
f 254 319 255 
f 254 318 319 
f 255 320 256 
f 255 319 320 
f 256 257 193 
f 256 320 257 
f 257 322 258 
f 257 321 322 
f 258 323 259 
f 258 322 323 
f 259 324 260 
f 259 323 324 
f 260 325 261 
f 260 324 325 
f 261 326 262 
f 261 325 326 
f 262 327 263 
f 262 326 327 
f 263 328 264 
f 263 327 328 
f 264 329 265 
f 264 328 329 
f 265 330 266 
f 265 329 330 
f 266 331 267 
f 266 330 331 
f 267 332 268 
f 267 331 332 
f 268 333 269 
f 268 332 333 
f 269 334 270 
f 269 333 334 
f 270 335 271 
f 270 334 335 
f 271 336 272 
f 271 335 336 
f 272 337 273 
f 272 336 337 
f 273 338 274 
f 273 337 338 
f 274 339 275 
f 274 338 339 
f 275 340 276 
f 275 339 340 
f 276 341 277 
f 276 340 341 
f 277 342 278 
f 277 341 342 
f 278 343 279 
f 278 342 343 
f 279 344 280 
f 279 343 344 
f 280 345 281 
f 280 344 345 
f 281 346 282 
f 281 345 346 
f 282 347 283 
f 282 346 347 
f 283 348 284 
f 283 347 348 
f 284 349 285 
f 284 348 349 
f 285 350 286 
f 285 349 350 
f 286 351 287 
f 286 350 351 
f 287 352 288 
f 287 351 352 
f 288 353 289 
f 288 352 353 
f 289 354 290 
f 289 353 354 
f 290 355 291 
f 290 354 355 
f 291 356 292 
f 291 355 356 
f 292 357 293 
f 292 356 357 
f 293 358 294 
f 293 357 358 
f 294 359 295 
f 294 358 359 
f 295 360 296 
f 295 359 360 
f 296 361 297 
f 296 360 361 
f 297 362 298 
f 297 361 362 
f 298 363 299 
f 298 362 363 
f 299 364 300 
f 299 363 364 
f 300 365 301 
f 300 364 365 
f 301 366 302 
f 301 365 366 
f 302 367 303 
f 302 366 367 
f 303 368 304 
f 303 367 368 
f 304 369 305 
f 304 368 369 
f 305 370 306 
f 305 369 370 
f 306 371 307 
f 306 370 371 
f 307 372 308 
f 307 371 372 
f 308 373 309 
f 308 372 373 
f 309 374 310 
f 309 373 374 
f 310 375 311 
f 310 374 375 
f 311 376 312 
f 311 375 376 
f 312 377 313 
f 312 376 377 
f 313 378 314 
f 313 377 378 
f 314 379 315 
f 314 378 379 
f 315 380 316 
f 315 379 380 
f 316 381 317 
f 316 380 381 
f 317 382 318 
f 317 381 382 
f 318 383 319 
f 318 382 383 
f 319 384 320 
f 319 383 384 
f 320 321 257 
f 320 384 321 
f 321 386 322 
f 321 385 386 
f 322 387 323 
f 322 386 387 
f 323 388 324 
f 323 387 388 
f 324 389 325 
f 324 388 389 
f 325 390 326 
f 325 389 390 
f 326 391 327 
f 326 390 391 
f 327 392 328 
f 327 391 392 
f 328 393 329 
f 328 392 393 
f 329 394 330 
f 329 393 394 
f 330 395 331 
f 330 394 395 
f 331 396 332 
f 331 395 396 
f 332 397 333 
f 332 396 397 
f 333 398 334 
f 333 397 398 
f 334 399 335 
f 334 398 399 
f 335 400 336 
f 335 399 400 
f 336 401 337 
f 336 400 401 
f 337 402 338 
f 337 401 402 
f 338 403 339 
f 338 402 403 
f 339 404 340 
f 339 403 404 
f 340 405 341 
f 340 404 405 
f 341 406 342 
f 341 405 406 
f 342 407 343 
f 342 406 407 
f 343 408 344 
f 343 407 408 
f 344 409 345 
f 344 408 409 
f 345 410 346 
f 345 409 410 
f 346 411 347 
f 346 410 411 
f 347 412 348 
f 347 411 412 
f 348 413 349 
f 348 412 413 
f 349 414 350 
f 349 413 414 
f 350 415 351 
f 350 414 415 
f 351 416 352 
f 351 415 416 
f 352 417 353 
f 352 416 417 
f 353 418 354 
f 353 417 418 
f 354 419 355 
f 354 418 419 
f 355 420 356 
f 355 419 420 
f 356 421 357 
f 356 420 421 
f 357 422 358 
f 357 421 422 
f 358 423 359 
f 358 422 423 
f 359 424 360 
f 359 423 424 
f 360 425 361 
f 360 424 425 
f 361 426 362 
f 361 425 426 
f 362 427 363 
f 362 426 427 
f 363 428 364 
f 363 427 428 
f 364 429 365 
f 364 428 429 
f 365 430 366 
f 365 429 430 
f 366 431 367 
f 366 430 431 
f 367 432 368 
f 367 431 432 
f 368 433 369 
f 368 432 433 
f 369 434 370 
f 369 433 434 
f 370 435 371 
f 370 434 435 
f 371 436 372 
f 371 435 436 
f 372 437 373 
f 372 436 437 
f 373 438 374 
f 373 437 438 
f 374 439 375 
f 374 438 439 
f 375 440 376 
f 375 439 440 
f 376 441 377 
f 376 440 441 
f 377 442 378 
f 377 441 442 
f 378 443 379 
f 378 442 443 
f 379 444 380 
f 379 443 444 
f 380 445 381 
f 380 444 445 
f 381 446 382 
f 381 445 446 
f 382 447 383 
f 382 446 447 
f 383 448 384 
f 383 447 448 
f 384 385 321 
f 384 448 385 
f 385 450 386 
f 385 449 450 
f 386 451 387 
f 386 450 451 
f 387 452 388 
f 387 451 452 
f 388 453 389 
f 388 452 453 
f 389 454 390 
f 389 453 454 
f 390 455 391 
f 390 454 455 
f 391 456 392 
f 391 455 456 
f 392 457 393 
f 392 456 457 
f 393 458 394 
f 393 457 458 
f 394 459 395 
f 394 458 459 
f 395 460 396 
f 395 459 460 
f 396 461 397 
f 396 460 461 
f 397 462 398 
f 397 461 462 
f 398 463 399 
f 398 462 463 
f 399 464 400 
f 399 463 464 
f 400 465 401 
f 400 464 465 
f 401 466 402 
f 401 465 466 
f 402 467 403 
f 402 466 467 
f 403 468 404 
f 403 467 468 
f 404 469 405 
f 404 468 469 
f 405 470 406 
f 405 469 470 
f 406 471 407 
f 406 470 471 
f 407 472 408 
f 407 471 472 
f 408 473 409 
f 408 472 473 
f 409 474 410 
f 409 473 474 
f 410 475 411 
f 410 474 475 
f 411 476 412 
f 411 475 476 
f 412 477 413 
f 412 476 477 
f 413 478 414 
f 413 477 478 
f 414 479 415 
f 414 478 479 
f 415 480 416 
f 415 479 480 
f 416 481 417 
f 416 480 481 
f 417 482 418 
f 417 481 482 
f 418 483 419 
f 418 482 483 
f 419 484 420 
f 419 483 484 
f 420 485 421 
f 420 484 485 
f 421 486 422 
f 421 485 486 
f 422 487 423 
f 422 486 487 
f 423 488 424 
f 423 487 488 
f 424 489 425 
f 424 488 489 
f 425 490 426 
f 425 489 490 
f 426 491 427 
f 426 490 491 
f 427 492 428 
f 427 491 492 
f 428 493 429 
f 428 492 493 
f 429 494 430 
f 429 493 494 
f 430 495 431 
f 430 494 495 
f 431 496 432 
f 431 495 496 
f 432 497 433 
f 432 496 497 
f 433 498 434 
f 433 497 498 
f 434 499 435 
f 434 498 499 
f 435 500 436 
f 435 499 500 
f 436 501 437 
f 436 500 501 
f 437 502 438 
f 437 501 502 
f 438 503 439 
f 438 502 503 
f 439 504 440 
f 439 503 504 
f 440 505 441 
f 440 504 505 
f 441 506 442 
f 441 505 506 
f 442 507 443 
f 442 506 507 
f 443 508 444 
f 443 507 508 
f 444 509 445 
f 444 508 509 
f 445 510 446 
f 445 509 510 
f 446 511 447 
f 446 510 511 
f 447 512 448 
f 447 511 512 
f 448 449 385 
f 448 512 449 
f 449 514 450 
f 449 513 514 
f 450 515 451 
f 450 514 515 
f 451 516 452 
f 451 515 516 
f 452 517 453 
f 452 516 517 
f 453 518 454 
f 453 517 518 
f 454 519 455 
f 454 518 519 
f 455 520 456 
f 455 519 520 
f 456 521 457 
f 456 520 521 
f 457 522 458 
f 457 521 522 
f 458 523 459 
f 458 522 523 
f 459 524 460 
f 459 523 524 
f 460 525 461 
f 460 524 525 
f 461 526 462 
f 461 525 526 
f 462 527 463 
f 462 526 527 
f 463 528 464 
f 463 527 528 
f 464 529 465 
f 464 528 529 
f 465 530 466 
f 465 529 530 
f 466 531 467 
f 466 530 531 
f 467 532 468 
f 467 531 532 
f 468 533 469 
f 468 532 533 
f 469 534 470 
f 469 533 534 
f 470 535 471 
f 470 534 535 
f 471 536 472 
f 471 535 536 
f 472 537 473 
f 472 536 537 
f 473 538 474 
f 473 537 538 
f 474 539 475 
f 474 538 539 
f 475 540 476 
f 475 539 540 
f 476 541 477 
f 476 540 541 
f 477 542 478 
f 477 541 542 
f 478 543 479 
f 478 542 543 
f 479 544 480 
f 479 543 544 
f 480 545 481 
f 480 544 545 
f 481 546 482 
f 481 545 546 
f 482 547 483 
f 482 546 547 
f 483 548 484 
f 483 547 548 
f 484 549 485 
f 484 548 549 
f 485 550 486 
f 485 549 550 
f 486 551 487 
f 486 550 551 
f 487 552 488 
f 487 551 552 
f 488 553 489 
f 488 552 553 
f 489 554 490 
f 489 553 554 
f 490 555 491 
f 490 554 555 
f 491 556 492 
f 491 555 556 
f 492 557 493 
f 492 556 557 
f 493 558 494 
f 493 557 558 
f 494 559 495 
f 494 558 559 
f 495 560 496 
f 495 559 560 
f 496 561 497 
f 496 560 561 
f 497 562 498 
f 497 561 562 
f 498 563 499 
f 498 562 563 
f 499 564 500 
f 499 563 564 
f 500 565 501 
f 500 564 565 
f 501 566 502 
f 501 565 566 
f 502 567 503 
f 502 566 567 
f 503 568 504 
f 503 567 568 
f 504 569 505 
f 504 568 569 
f 505 570 506 
f 505 569 570 
f 506 571 507 
f 506 570 571 
f 507 572 508 
f 507 571 572 
f 508 573 509 
f 508 572 573 
f 509 574 510 
f 509 573 574 
f 510 575 511 
f 510 574 575 
f 511 576 512 
f 511 575 576 
f 512 513 449 
f 512 576 513 
f 513 578 514 
f 513 577 578 
f 514 579 515 
f 514 578 579 
f 515 580 516 
f 515 579 580 
f 516 581 517 
f 516 580 581 
f 517 582 518 
f 517 581 582 
f 518 583 519 
f 518 582 583 
f 519 584 520 
f 519 583 584 
f 520 585 521 
f 520 584 585 
f 521 586 522 
f 521 585 586 
f 522 587 523 
f 522 586 587 
f 523 588 524 
f 523 587 588 
f 524 589 525 
f 524 588 589 
f 525 590 526 
f 525 589 590 
f 526 591 527 
f 526 590 591 
f 527 592 528 
f 527 591 592 
f 528 593 529 
f 528 592 593 
f 529 594 530 
f 529 593 594 
f 530 595 531 
f 530 594 595 
f 531 596 532 
f 531 595 596 
f 532 597 533 
f 532 596 597 
f 533 598 534 
f 533 597 598 
f 534 599 535 
f 534 598 599 
f 535 600 536 
f 535 599 600 
f 536 601 537 
f 536 600 601 
f 537 602 538 
f 537 601 602 
f 538 603 539 
f 538 602 603 
f 539 604 540 
f 539 603 604 
f 540 605 541 
f 540 604 605 
f 541 606 542 
f 541 605 606 
f 542 607 543 
f 542 606 607 
f 543 608 544 
f 543 607 608 
f 544 609 545 
f 544 608 609 
f 545 610 546 
f 545 609 610 
f 546 611 547 
f 546 610 611 
f 547 612 548 
f 547 611 612 
f 548 613 549 
f 548 612 613 
f 549 614 550 
f 549 613 614 
f 550 615 551 
f 550 614 615 
f 551 616 552 
f 551 615 616 
f 552 617 553 
f 552 616 617 
f 553 618 554 
f 553 617 618 
f 554 619 555 
f 554 618 619 
f 555 620 556 
f 555 619 620 
f 556 621 557 
f 556 620 621 
f 557 622 558 
f 557 621 622 
f 558 623 559 
f 558 622 623 
f 559 624 560 
f 559 623 624 
f 560 625 561 
f 560 624 625 
f 561 626 562 
f 561 625 626 
f 562 627 563 
f 562 626 627 
f 563 628 564 
f 563 627 628 
f 564 629 565 
f 564 628 629 
f 565 630 566 
f 565 629 630 
f 566 631 567 
f 566 630 631 
f 567 632 568 
f 567 631 632 
f 568 633 569 
f 568 632 633 
f 569 634 570 
f 569 633 634 
f 570 635 571 
f 570 634 635 
f 571 636 572 
f 571 635 636 
f 572 637 573 
f 572 636 637 
f 573 638 574 
f 573 637 638 
f 574 639 575 
f 574 638 639 
f 575 640 576 
f 575 639 640 
f 576 577 513 
f 576 640 577 
