# Branch
v -12.9693 8.28848 -27.9193
vn -0.543373 0.175387 -0.820966
v -12.9675 8.27504 -27.9225
vn -0.530787 0.080743 -0.84365
v -12.965 8.26149 -27.9246
vn -0.513089 -0.014679 -0.85821
v -12.9618 8.24795 -27.9255
vn -0.49045 -0.10996 -0.864504
v -12.9579 8.23457 -27.9252
vn -0.463087 -0.204181 -0.862473
v -12.9534 8.22147 -27.9237
vn -0.431265 -0.296436 -0.852136
v -12.9482 8.20877 -27.9211
vn -0.39529 -0.385837 -0.833592
v -12.9426 8.1966 -27.9173
vn -0.355507 -0.471522 -0.807021
v -12.9365 8.18507 -27.9125
vn -0.312301 -0.552665 -0.772677
v -12.9299 8.1743 -27.9065
vn -0.266087 -0.628486 -0.730892
v -12.923 8.16439 -27.8996
vn -0.217311 -0.698255 -0.682068
v -12.9157 8.15544 -27.8917
vn -0.166442 -0.761299 -0.626675
v -12.9083 8.14752 -27.883
vn -0.11397 -0.817011 -0.565247
v -12.9007 8.14073 -27.8735
vn -0.0604001 -0.864855 -0.498376
v -12.893 8.13511 -27.8633
vn -0.0062488 -0.90437 -0.426704
v -12.8853 8.13074 -27.8526
vn 0.0479627 -0.935175 -0.350924
v -12.8777 8.12764 -27.8413
vn 0.101712 -0.956974 -0.271764
v -12.8702 8.12585 -27.8297
vn 0.154482 -0.969557 -0.189986
v -12.8629 8.12539 -27.8178
vn 0.205765 -0.972802 -0.106379
v -12.8559 8.12626 -27.8058
vn 0.255065 -0.966679 -0.0217479
v -12.8492 8.12845 -27.7937
vn 0.30191 -0.951246 0.0630931
v -12.843 8.13195 -27.7818
vn 0.345846 -0.926653 0.147326
v -12.8372 8.13671 -27.77
vn 0.386452 -0.893135 0.230141
v -12.832 8.14269 -27.7586
vn 0.423337 -0.851015 0.310739
v -12.8273 8.14984 -27.7475
vn 0.456144 -0.8007 0.388345
v -12.8233 8.15808 -27.7371
vn 0.484558 -0.742674 0.46221
v -12.8199 8.16734 -27.7272
vn 0.508306 -0.677495 0.531624
v -12.8172 8.17752 -27.7181
vn 0.527159 -0.605792 0.595919
v -12.8153 8.18854 -27.7097
vn 0.540935 -0.528255 0.654474
v -12.814 8.20027 -27.7023
vn 0.549501 -0.44563 0.706727
v -12.8136 8.21262 -27.6959
vn 0.552775 -0.358714 0.752173
v -12.8139 8.22546 -27.6904
vn 0.550726 -0.268343 0.790375
v -12.8149 8.23866 -27.6861
vn 0.543373 -0.175387 0.820966
v -12.8167 8.2521 -27.6829
vn 0.530787 -0.080743 0.84365
v -12.8192 8.26566 -27.6808
vn 0.513089 0.014679 0.85821
v -12.8224 8.27919 -27.6799
vn 0.49045 0.10996 0.864504
v -12.8263 8.29257 -27.6802
vn 0.463087 0.204181 0.862473
v -12.8308 8.30568 -27.6817
vn 0.431265 0.296436 0.852136
v -12.836 8.31838 -27.6843
vn 0.39529 0.385837 0.833592
v -12.8416 8.33055 -27.6881
vn 0.355507 0.471522 0.807021
v -12.8477 8.34207 -27.693
vn 0.312301 0.552665 0.772677
v -12.8543 8.35284 -27.6989
vn 0.266087 0.628486 0.730892
v -12.8612 8.36275 -27.7058
vn 0.217311 0.698255 0.682068
v -12.8685 8.37171 -27.7137
vn 0.166442 0.761299 0.626675
v -12.8759 8.37962 -27.7224
vn 0.11397 0.817011 0.565247
v -12.8835 8.38642 -27.7319
vn 0.0604001 0.864855 0.498376
v -12.8912 8.39203 -27.7421
vn 0.0062488 0.90437 0.426704
v -12.8989 8.39641 -27.7529
vn -0.0479627 0.935175 0.350924
v -12.9065 8.3995 -27.7641
vn -0.101712 0.956974 0.271764
v -12.914 8.40129 -27.7757
vn -0.154482 0.969557 0.189986
v -12.9213 8.40175 -27.7876
vn -0.205765 0.972802 0.106379
v -12.9283 8.40088 -27.7996
vn -0.255065 0.966679 0.0217479
v -12.935 8.39869 -27.8117
vn -0.30191 0.951246 -0.0630931
v -12.9412 8.3952 -27.8236
vn -0.345846 0.926653 -0.147326
v -12.947 8.39043 -27.8354
vn -0.386452 0.893135 -0.230141
v -12.9522 8.38445 -27.8468
vn -0.423337 0.851015 -0.310739
v -12.9569 8.37731 -27.8579
vn -0.456144 0.8007 -0.388345
v -12.9609 8.36906 -27.8684
vn -0.484558 0.742674 -0.46221
v -12.9643 8.35981 -27.8782
vn -0.508306 0.677495 -0.531624
v -12.967 8.34962 -27.8874
vn -0.527159 0.605792 -0.595919
v -12.9689 8.33861 -27.8957
vn -0.540935 0.528255 -0.654474
v -12.9702 8.32687 -27.9031
vn -0.549501 0.44563 -0.706727
v -12.9706 8.31452 -27.9095
vn -0.552775 0.358714 -0.752173
v -12.9703 8.30169 -27.915
vn -0.550726 0.268343 -0.790375
v -12.2497 8.47279 -28.299
vn -0.427575 0.204607 -0.88052
v -12.2479 8.45855 -28.3024
vn -0.415547 0.109822 -0.902917
v -12.2455 8.44415 -28.3044
vn -0.399517 0.0139793 -0.916619
v -12.2425 8.42974 -28.3052
vn -0.379639 -0.081998 -0.921494
v -12.239 8.41544 -28.3046
vn -0.356105 -0.177186 -0.917494
v -12.2349 8.4014 -28.3026
vn -0.329141 -0.270667 -0.904658
v -12.2304 8.38775 -28.2994
vn -0.299008 -0.361542 -0.883109
v -12.2254 8.37462 -28.2949
vn -0.265995 -0.448934 -0.853056
v -12.2201 8.36214 -28.2891
vn -0.23042 -0.532004 -0.814788
v -12.2144 8.35044 -28.2822
vn -0.192626 -0.609949 -0.768672
v -12.2085 8.33961 -28.2742
vn -0.152977 -0.682021 -0.715154
v -12.2023 8.32977 -28.2651
vn -0.111855 -0.747524 -0.654748
v -12.1959 8.32101 -28.2551
vn -0.0696561 -0.805829 -0.588037
v -12.1895 8.31342 -28.2442
vn -0.026786 -0.856373 -0.515663
v -12.183 8.30707 -28.2326
vn 0.0163421 -0.898669 -0.438323
v -12.1766 8.30201 -28.2203
vn 0.0593128 -0.932311 -0.356761
v -12.1702 8.29831 -28.2076
vn 0.101712 -0.956974 -0.271764
v -12.164 8.29599 -28.1944
vn 0.143132 -0.972421 -0.184149
v -12.158 8.29508 -28.181
vn 0.183174 -0.978503 -0.094761
v -12.1522 8.29558 -28.1674
vn 0.221451 -0.975161 -0.00446034
v -12.1468 8.29749 -28.1538
vn 0.257596 -0.962428 0.0858833
v -12.1417 8.30079 -28.1404
vn 0.29126 -0.940427 0.1754
v -12.1371 8.30546 -28.1272
vn 0.322119 -0.909368 0.263227
v -12.1329 8.31144 -28.1144
vn 0.349876 -0.869552 0.34852
v -12.1293 8.31868 -28.1021
vn 0.374263 -0.821362 0.430455
v -12.1261 8.32711 -28.0904
vn 0.395046 -0.765261 0.508246
v -12.1236 8.33664 -28.0795
vn 0.412024 -0.701791 0.581142
v -12.1216 8.34719 -28.0693
vn 0.425035 -0.631562 0.648441
v -12.1203 8.35865 -28.0602
vn 0.433952 -0.55525 0.709495
v -12.1196 8.37092 -28.052
vn 0.43869 -0.473592 0.763716
v -12.1195 8.38387 -28.045
vn 0.439203 -0.387372 0.810582
v -12.1201 8.39738 -28.0391
vn 0.435486 -0.297422 0.849642
v -12.1213 8.41132 -28.0345
vn 0.427575 -0.204607 0.88052
v -12.1231 8.42556 -28.0311
vn 0.415547 -0.109822 0.902917
v -12.1255 8.43995 -28.0291
vn 0.399517 -0.0139793 0.916619
v -12.1285 8.45437 -28.0283
vn 0.379639 0.081998 0.921494
v -12.132 8.46867 -28.0289
vn 0.356105 0.177186 0.917494
v -12.136 8.48271 -28.0309
vn 0.329141 0.270667 0.904658
v -12.1406 8.49636 -28.0341
vn 0.299008 0.361542 0.883109
v -12.1455 8.50949 -28.0386
vn 0.265995 0.448934 0.853056
v -12.1509 8.52197 -28.0444
vn 0.23042 0.532004 0.814788
v -12.1566 8.53367 -28.0513
vn 0.192626 0.609949 0.768672
v -12.1625 8.5445 -28.0593
vn 0.152977 0.682021 0.715154
v -12.1687 8.55434 -28.0684
vn 0.111855 0.747524 0.654748
v -12.175 8.5631 -28.0784
vn 0.0696561 0.805829 0.588037
v -12.1815 8.57069 -28.0893
vn 0.026786 0.856373 0.515663
v -12.1879 8.57704 -28.1009
vn -0.0163421 0.898669 0.438323
v -12.1944 8.58209 -28.1132
vn -0.0593128 0.932311 0.356761
v -12.2008 8.5858 -28.1259
vn -0.101712 0.956974 0.271764
v -12.207 8.58812 -28.1391
vn -0.143132 0.972421 0.184149
v -12.213 8.58903 -28.1525
vn -0.183174 0.978503 0.094761
v -12.2187 8.58853 -28.1661
vn -0.221451 0.975161 0.00446034
v -12.2242 8.58662 -28.1796
vn -0.257596 0.962428 -0.0858833
v -12.2292 8.58331 -28.1931
vn -0.29126 0.940427 -0.1754
v -12.2339 8.57865 -28.2063
vn -0.322119 0.909368 -0.263227
v -12.238 8.57267 -28.2191
vn -0.349876 0.869552 -0.34852
v -12.2417 8.56543 -28.2314
vn -0.374263 0.821362 -0.430455
v -12.2448 8.557 -28.2431
vn -0.395046 0.765261 -0.508246
v -12.2474 8.54747 -28.254
vn -0.412024 0.701791 -0.581142
v -12.2493 8.53692 -28.2641
vn -0.425035 0.631562 -0.648441
v -12.2507 8.52546 -28.2733
vn -0.433952 0.55525 -0.709495
v -12.2514 8.51319 -28.2815
vn -0.43869 0.473592 -0.763716
v -12.2515 8.50024 -28.2885
vn -0.439203 0.387372 -0.810582
v -12.2509 8.48673 -28.2944
vn -0.435486 0.297422 -0.849642
v -11.4883 8.6326 -28.5768
vn -0.301119 0.230749 -0.925247
v -11.4865 8.61757 -28.5803
vn -0.2897 0.135838 -0.947429
v -11.4843 8.60233 -28.5824
vn -0.27549 0.0396192 -0.960487
v -11.4816 8.58704 -28.583
vn -0.258628 -0.0569815 -0.964295
v -11.4785 8.57182 -28.5821
vn -0.239275 -0.153034 -0.958816
v -11.4751 8.55684 -28.5798
vn -0.217617 -0.247612 -0.944103
v -11.4713 8.54224 -28.576
vn -0.193863 -0.339805 -0.920299
v -11.4673 8.52816 -28.5709
vn -0.168243 -0.428726 -0.887631
v -11.463 8.51473 -28.5643
vn -0.141002 -0.513518 -0.846414
v -11.4584 8.50209 -28.5565
vn -0.112403 -0.593365 -0.797047
v -11.4537 8.49035 -28.5475
vn -0.0827223 -0.667497 -0.740003
v -11.4489 8.47962 -28.5373
vn -0.0522445 -0.735201 -0.675833
v -11.444 8.47002 -28.5261
vn -0.0212635 -0.795825 -0.605154
v -11.4391 8.46164 -28.514
vn 0.00992227 -0.848784 -0.528647
v -11.4341 8.45454 -28.5011
vn 0.0410125 -0.893569 -0.447049
v -11.4293 8.44881 -28.4875
vn 0.0717077 -0.929748 -0.361145
v -11.4245 8.4445 -28.4733
vn 0.101712 -0.956974 -0.271764
v -11.4199 8.44165 -28.4587
vn 0.130737 -0.974983 -0.179765
v -11.4155 8.44028 -28.4439
vn 0.158503 -0.983603 -0.0860352
v -11.4114 8.44042 -28.4289
vn 0.184743 -0.98275 0.00852325
v -11.4075 8.44205 -28.414
vn 0.209203 -0.972433 0.103
v -11.4039 8.44517 -28.3992
vn 0.231649 -0.95275 0.196484
v -11.4007 8.44974 -28.3847
vn 0.251864 -0.923892 0.288076
v -11.3979 8.45572 -28.3706
vn 0.269653 -0.886137 0.376894
v -11.3955 8.46305 -28.3571
vn 0.284845 -0.839847 0.462082
v -11.3935 8.47166 -28.3443
vn 0.297294 -0.785469 0.54282
v -11.392 8.48147 -28.3323
vn 0.30688 -0.723527 0.618331
v -11.391 8.49239 -28.3213
vn 0.313511 -0.654617 0.687886
v -11.3904 8.5043 -28.3114
vn 0.317122 -0.579403 0.750817
v -11.3903 8.51709 -28.3025
vn 0.317679 -0.498608 0.806517
v -11.3907 8.53065 -28.295
vn 0.315177 -0.413012 0.85445
v -11.3916 8.54484 -28.2887
vn 0.309639 -0.323438 0.894154
v -11.3929 8.55952 -28.2837
vn 0.301119 -0.230749 0.925247
v -11.3947 8.57455 -28.2802
vn 0.2897 -0.135838 0.947429
v -11.397 8.58979 -28.2782
vn 0.27549 -0.0396192 0.960487
v -11.3997 8.60508 -28.2776
vn 0.258628 0.0569815 0.964295
v -11.4027 8.6203 -28.2784
vn 0.239275 0.153034 0.958816
v -11.4062 8.63527 -28.2808
vn 0.217617 0.247612 0.944103
v -11.4099 8.64988 -28.2845
vn 0.193863 0.339805 0.920299
v -11.414 8.66396 -28.2897
vn 0.168243 0.428726 0.887631
v -11.4183 8.67739 -28.2962
vn 0.141002 0.513518 0.846414
v -11.4228 8.69003 -28.304
vn 0.112403 0.593365 0.797047
v -11.4275 8.70177 -28.3131
vn 0.0827223 0.667497 0.740003
v -11.4324 8.7125 -28.3232
vn 0.0522445 0.735201 0.675833
v -11.4373 8.7221 -28.3344
vn 0.0212635 0.795825 0.605154
v -11.4422 8.73048 -28.3466
vn -0.00992227 0.848784 0.528647
v -11.4471 8.73758 -28.3595
vn -0.0410125 0.893569 0.447049
v -11.452 8.74331 -28.3731
vn -0.0717077 0.929748 0.361145
v -11.4567 8.74762 -28.3872
vn -0.101712 0.956974 0.271764
v -11.4613 8.75047 -28.4018
vn -0.130737 0.974983 0.179765
v -11.4657 8.75184 -28.4166
vn -0.158503 0.983603 0.0860352
v -11.4699 8.7517 -28.4316
vn -0.184743 0.98275 -0.00852325
v -11.4738 8.75007 -28.4466
vn -0.209203 0.972433 -0.103
v -11.4773 8.74695 -28.4614
vn -0.231649 0.95275 -0.196484
v -11.4805 8.74238 -28.4759
vn -0.251864 0.923892 -0.288076
v -11.4833 8.7364 -28.49
vn -0.269653 0.886137 -0.376894
v -11.4857 8.72907 -28.5035
vn -0.284845 0.839847 -0.462082
v -11.4877 8.72046 -28.5162
vn -0.297294 0.785469 -0.54282
v -11.4892 8.71065 -28.5282
vn -0.30688 0.723527 -0.618331
v -11.4903 8.69973 -28.5392
vn -0.313511 0.654617 -0.687886
v -11.4909 8.68782 -28.5492
vn -0.317122 0.579403 -0.750817
v -11.4909 8.67503 -28.558
vn -0.317679 0.498608 -0.806517
v -11.4905 8.66147 -28.5656
vn -0.315177 0.413012 -0.85445
v -11.4897 8.64728 -28.5719
vn -0.309639 0.323438 -0.894154
v -10.686 8.76761 -28.7519
vn -0.170787 0.252327 -0.952451
v -10.6842 8.75179 -28.7556
vn -0.159995 0.157312 -0.974502
v -10.6821 8.73571 -28.7577
vn -0.147662 0.0607825 -0.987168
v -10.6798 8.71954 -28.7582
vn -0.133907 -0.0363328 -0.990328
v -10.6773 8.70342 -28.7572
vn -0.118863 -0.133098 -0.983949
v -10.6746 8.68752 -28.7545
vn -0.102674 -0.228582 -0.968095
v -10.6718 8.67199 -28.7503
vn -0.0854958 -0.321864 -0.942918
v -10.6688 8.65697 -28.7446
vn -0.0674945 -0.412046 -0.90866
v -10.6657 8.64261 -28.7375
vn -0.0488431 -0.49826 -0.865651
v -10.6625 8.62905 -28.7289
vn -0.0297214 -0.579676 -0.814305
v -10.6592 8.61642 -28.7191
vn -0.0103134 -0.655509 -0.755117
v -10.656 8.60484 -28.708
vn 0.00919387 -0.725029 -0.688657
v -10.6528 8.59443 -28.6958
vn 0.0286126 -0.787567 -0.615564
v -10.6496 8.58528 -28.6827
vn 0.0477558 -0.84252 -0.536544
v -10.6465 8.57748 -28.6686
vn 0.0664391 -0.889359 -0.452356
v -10.6435 8.5711 -28.6539
vn 0.0844825 -0.927633 -0.363812
v -10.6406 8.56622 -28.6386
vn 0.101712 -0.956974 -0.271764
v -10.6379 8.56286 -28.6228
vn 0.117963 -0.977098 -0.177099
v -10.6354 8.56108 -28.6067
vn 0.133077 -0.987813 -0.080728
v -10.6331 8.56088 -28.5906
vn 0.146909 -0.989014 0.0164202
v -10.631 8.56227 -28.5744
vn 0.159327 -0.98069 0.11341
v -10.6292 8.56522 -28.5584
vn 0.170211 -0.962922 0.209308
v -10.6276 8.56973 -28.5428
vn 0.179455 -0.93588 0.30319
v -10.6264 8.57573 -28.5277
vn 0.186971 -0.899826 0.394152
v -10.6254 8.58318 -28.5131
vn 0.192686 -0.855105 0.481318
v -10.6248 8.592 -28.4994
vn 0.196546 -0.802149 0.563849
v -10.6245 8.60211 -28.4866
vn 0.198513 -0.741469 0.64095
v -10.6245 8.6134 -28.4747
vn 0.198568 -0.673647 0.711878
v -10.6248 8.62578 -28.4641
vn 0.19671 -0.599338 0.77595
v -10.6254 8.63911 -28.4546
vn 0.192958 -0.519257 0.83255
v -10.6263 8.65328 -28.4466
vn 0.187348 -0.434175 0.881131
v -10.6276 8.66815 -28.4399
vn 0.179934 -0.344912 0.921227
v -10.6291 8.68357 -28.4347
vn 0.170787 -0.252327 0.952451
v -10.6309 8.69939 -28.431
vn 0.159995 -0.157312 0.974502
v -10.6329 8.71547 -28.4289
vn 0.147662 -0.0607825 0.987168
v -10.6352 8.73164 -28.4284
vn 0.133907 0.0363328 0.990328
v -10.6377 8.74775 -28.4294
vn 0.118863 0.133098 0.983949
v -10.6404 8.76366 -28.4321
vn 0.102674 0.228582 0.968095
v -10.6433 8.77919 -28.4363
vn 0.0854958 0.321864 0.942918
v -10.6463 8.79421 -28.442
vn 0.0674945 0.412046 0.90866
v -10.6494 8.80857 -28.4491
vn 0.0488431 0.49826 0.865651
v -10.6526 8.82213 -28.4577
vn 0.0297214 0.579676 0.814305
v -10.6558 8.83476 -28.4675
vn 0.0103134 0.655509 0.755117
v -10.6591 8.84633 -28.4786
vn -0.00919387 0.725029 0.688657
v -10.6623 8.85675 -28.4908
vn -0.0286126 0.787567 0.615564
v -10.6655 8.8659 -28.5039
vn -0.0477558 0.84252 0.536544
v -10.6686 8.8737 -28.518
vn -0.0664391 0.889359 0.452356
v -10.6716 8.88008 -28.5327
vn -0.0844825 0.927633 0.363812
v -10.6745 8.88496 -28.548
vn -0.101712 0.956974 0.271764
v -10.6772 8.88831 -28.5638
vn -0.117963 0.977098 0.177099
v -10.6797 8.8901 -28.5799
vn -0.133077 0.987813 0.080728
v -10.682 8.8903 -28.596
vn -0.146909 0.989014 -0.0164202
v -10.6841 8.88891 -28.6122
vn -0.159327 0.98069 -0.11341
v -10.6859 8.88595 -28.6282
vn -0.170211 0.962922 -0.209308
v -10.6874 8.88145 -28.6438
vn -0.179455 0.93588 -0.30319
v -10.6887 8.87544 -28.6589
vn -0.186971 0.899826 -0.394152
v -10.6896 8.868 -28.6735
vn -0.192686 0.855105 -0.481318
v -10.6903 8.85918 -28.6872
vn -0.196546 0.802149 -0.563849
v -10.6906 8.84907 -28.7
vn -0.198513 0.741469 -0.64095
v -10.6906 8.83778 -28.7119
vn -0.198568 0.673647 -0.711878
v -10.6903 8.8254 -28.7225
vn -0.19671 0.599338 -0.77595
v -10.6897 8.81207 -28.732
vn -0.192958 0.519257 -0.83255
v -10.6887 8.7979 -28.74
vn -0.187348 0.434175 -0.881131
v -10.6875 8.78303 -28.7467
vn -0.179934 0.344912 -0.921227
v -9.84383 8.87757 -28.8239
vn -0.043714 0.268617 -0.962255
v -9.84205 8.86096 -28.8278
vn -0.0335339 0.173524 -0.984259
v -9.84021 8.84405 -28.83
vn -0.0230309 0.0767595 -0.996784
v -9.83834 8.82702 -28.8305
vn -0.0123061 -0.0207442 -0.999709
v -9.83644 8.81002 -28.8293
vn -0.00146281 -0.118048 -0.993007
v -9.83455 8.79322 -28.8265
vn 0.00939459 -0.214215 -0.976741
v -9.83267 8.77678 -28.822
vn 0.0201615 -0.308319 -0.951069
v -9.83082 8.76085 -28.8159
vn 0.0307343 -0.399454 -0.916238
v -9.82902 8.7456 -28.8083
vn 0.041011 -0.486742 -0.872583
v -9.8273 8.73117 -28.7992
vn 0.0508929 -0.569342 -0.820524
v -9.82566 8.7177 -28.7887
vn 0.0602845 -0.646459 -0.760563
v -9.82412 8.70532 -28.7769
vn 0.0690957 -0.71735 -0.693278
v -9.82269 8.69414 -28.764
vn 0.0772413 -0.781333 -0.619316
v -9.8214 8.68428 -28.7501
vn 0.0846431 -0.837791 -0.53939
v -9.82025 8.67582 -28.7352
vn 0.0912298 -0.886181 -0.454268
v -9.81925 8.66886 -28.7196
vn 0.0969379 -0.926037 -0.364773
v -9.81842 8.66345 -28.7033
vn 0.101712 -0.956974 -0.271764
v -9.81776 8.65966 -28.6866
vn 0.105507 -0.978695 -0.176138
v -9.81727 8.65751 -28.6696
vn 0.108286 -0.990991 -0.0788154
v -9.81697 8.65703 -28.6525
vn 0.110022 -0.993742 0.019266
v -9.81685 8.65822 -28.6354
vn 0.110699 -0.986924 0.117162
v -9.81692 8.66107 -28.6185
vn 0.110309 -0.970601 0.213929
v -9.81717 8.66556 -28.6019
vn 0.108857 -0.94493 0.308637
v -9.81761 8.67163 -28.5859
vn 0.106357 -0.91016 0.400372
v -9.81822 8.67924 -28.5705
vn 0.102832 -0.866624 0.488251
v -9.81901 8.6883 -28.556
vn 0.098317 -0.814742 0.571428
v -9.81997 8.69874 -28.5424
vn 0.0928552 -0.755013 0.649102
v -9.82108 8.71044 -28.5299
vn 0.0864991 -0.688014 0.720524
v -9.82233 8.7233 -28.5187
vn 0.0793101 -0.614388 0.785008
v -9.82372 8.7372 -28.5087
vn 0.0713572 -0.534846 0.841931
v -9.82523 8.752 -28.5002
vn 0.0627171 -0.450152 0.890747
v -9.82685 8.76755 -28.4932
vn 0.053473 -0.361124 0.930984
v -9.82855 8.78371 -28.4877
vn 0.043714 -0.268617 0.962255
v -9.83033 8.80033 -28.4839
vn 0.0335339 -0.173524 0.984259
v -9.83217 8.81723 -28.4817
vn 0.0230309 -0.0767595 0.996784
v -9.83404 8.83426 -28.4812
vn 0.0123061 0.0207442 0.999709
v -9.83593 8.85126 -28.4823
vn 0.00146281 0.118048 0.993007
v -9.83783 8.86807 -28.4852
vn -0.00939459 0.214215 0.976741
v -9.83971 8.88451 -28.4897
vn -0.0201615 0.308319 0.951069
v -9.84156 8.90043 -28.4958
vn -0.0307343 0.399454 0.916238
v -9.84335 8.91568 -28.5034
vn -0.041011 0.486742 0.872583
v -9.84508 8.93011 -28.5125
vn -0.0508929 0.569342 0.820524
v -9.84672 8.94358 -28.523
vn -0.0602845 0.646459 0.760563
v -9.84826 8.95597 -28.5347
vn -0.0690957 0.71735 0.693278
v -9.84968 8.96714 -28.5476
vn -0.0772413 0.781333 0.619316
v -9.85098 8.97701 -28.5616
vn -0.0846431 0.837791 0.53939
v -9.85213 8.98546 -28.5765
vn -0.0912298 0.886181 0.454268
v -9.85312 8.99242 -28.5921
vn -0.0969379 0.926037 0.364773
v -9.85396 8.99783 -28.6083
vn -0.101712 0.956974 0.271764
v -9.85462 9.00162 -28.6251
vn -0.105507 0.978695 0.176138
v -9.85511 9.00377 -28.6421
vn -0.108286 0.990991 0.0788154
v -9.85541 9.00425 -28.6592
vn -0.110022 0.993742 -0.019266
v -9.85553 9.00306 -28.6763
vn -0.110699 0.986924 -0.117162
v -9.85546 9.00021 -28.6932
vn -0.110309 0.970601 -0.213929
v -9.85521 8.99572 -28.7097
vn -0.108857 0.94493 -0.308637
v -9.85477 8.98965 -28.7258
vn -0.106357 0.91016 -0.400372
v -9.85415 8.98204 -28.7411
vn -0.102832 0.866624 -0.488251
v -9.85337 8.97298 -28.7557
vn -0.098317 0.814742 -0.571428
v -9.85241 8.96254 -28.7692
vn -0.0928552 0.755013 -0.649102
v -9.8513 8.95084 -28.7817
vn -0.0864991 0.688014 -0.720524
v -9.85004 8.93798 -28.793
vn -0.0793101 0.614388 -0.785008
v -9.84866 8.92408 -28.8029
vn -0.0713572 0.534846 -0.841931
v -9.84715 8.90928 -28.8114
vn -0.0627171 0.450152 -0.890747
v -9.84553 8.89373 -28.8185
vn -0.053473 0.361124 -0.930984
v -8.96301 8.96237 -28.7929
vn 0.0743587 0.27973 -0.957195
v -8.96125 8.94497 -28.7969
vn 0.0839702 0.184583 -0.979223
v -8.95964 8.92725 -28.7992
vn 0.092773 0.0876585 -0.991821
v -8.95819 8.90937 -28.7998
vn 0.100682 -0.0101101 -0.994867
v -8.95693 8.89151 -28.7986
vn 0.107622 -0.107781 -0.988332
v -8.95585 8.87383 -28.7956
vn 0.113525 -0.204415 -0.972279
v -8.95497 8.85652 -28.791
vn 0.118335 -0.299079 -0.946862
v -8.9543 8.83974 -28.7847
vn 0.122006 -0.390864 -0.912327
v -8.95384 8.82364 -28.7768
vn 0.124501 -0.478884 -0.869005
v -8.9536 8.80839 -28.7673
vn 0.125797 -0.562292 -0.817314
v -8.95359 8.79413 -28.7564
vn 0.125882 -0.640285 -0.757752
v -8.95379 8.78099 -28.7442
vn 0.124755 -0.712112 -0.690893
v -8.95422 8.76911 -28.7307
vn 0.122426 -0.777081 -0.61738
v -8.95486 8.7586 -28.7162
vn 0.118918 -0.834566 -0.537921
v -8.95571 8.74956 -28.7007
vn 0.114265 -0.884013 -0.453281
v -8.95676 8.74207 -28.6845
vn 0.108511 -0.924947 -0.364277
v -8.95801 8.73621 -28.6675
vn 0.101712 -0.956974 -0.271764
v -8.95943 8.73204 -28.6501
vn 0.0939341 -0.979784 -0.176634
v -8.96102 8.7296 -28.6324
vn 0.0852513 -0.993158 -0.0798025
v -8.96275 8.7289 -28.6146
vn 0.0757475 -0.996968 0.0177973
v -8.96463 8.72996 -28.5968
vn 0.0655141 -0.991177 0.115226
v -8.96661 8.73276 -28.5792
vn 0.0546498 -0.975839 0.211544
v -8.9687 8.73729 -28.5619
vn 0.0432592 -0.951104 0.305826
v -8.97085 8.74349 -28.5452
vn 0.031452 -0.91721 0.397162
v -8.97307 8.7513 -28.5292
vn 0.0193419 -0.874482 0.484673
v -8.97532 8.76065 -28.5141
vn 0.00704557 -0.823332 0.567517
v -8.97758 8.77146 -28.4999
vn -0.00531865 -0.764253 0.644895
v -8.97983 8.78361 -28.4869
vn -0.0176317 -0.697814 0.716062
v -8.98205 8.79699 -28.4751
vn -0.0297749 -0.624655 0.780333
v -8.98422 8.81146 -28.4648
vn -0.0416313 -0.54548 0.83709
v -8.98631 8.8269 -28.4559
vn -0.0530868 -0.461051 0.885784
v -8.98832 8.84316 -28.4485
vn -0.0640311 -0.372183 0.925948
v -8.9902 8.86006 -28.4428
vn -0.0743587 -0.27973 0.957195
v -8.99196 8.87746 -28.4388
vn -0.0839702 -0.184583 0.979223
v -8.99357 8.89519 -28.4365
vn -0.092773 -0.0876585 0.991821
v -8.99502 8.91307 -28.4359
vn -0.100682 0.0101101 0.994867
v -8.99629 8.93093 -28.4371
vn -0.107622 0.107781 0.988332
v -8.99737 8.9486 -28.44
vn -0.113525 0.204415 0.972279
v -8.99825 8.96591 -28.4447
vn -0.118335 0.299079 0.946862
v -8.99892 8.98269 -28.451
vn -0.122006 0.390864 0.912327
v -8.99937 8.99879 -28.4589
vn -0.124501 0.478884 0.869005
v -8.99961 9.01404 -28.4684
vn -0.125797 0.562292 0.817314
v -8.99963 9.02831 -28.4793
vn -0.125882 0.640285 0.757752
v -8.99942 9.04144 -28.4915
vn -0.124755 0.712112 0.690893
v -8.99899 9.05332 -28.5049
vn -0.122426 0.777081 0.61738
v -8.99835 9.06383 -28.5195
vn -0.118918 0.834566 0.537921
v -8.9975 9.07288 -28.535
vn -0.114265 0.884013 0.453281
v -8.99645 9.08036 -28.5512
vn -0.108511 0.924947 0.364277
v -8.99521 9.08622 -28.5681
vn -0.101712 0.956974 0.271764
v -8.99378 9.09039 -28.5855
vn -0.0939341 0.979784 0.176634
v -8.9922 9.09283 -28.6033
vn -0.0852513 0.993158 0.0798025
v -8.99046 9.09353 -28.6211
vn -0.0757475 0.996968 -0.0177973
v -8.98859 9.09247 -28.6389
vn -0.0655141 0.991177 -0.115226
v -8.9866 9.08967 -28.6565
vn -0.0546498 0.975839 -0.211544
v -8.98452 9.08514 -28.6738
vn -0.0432592 0.951104 -0.305826
v -8.98236 9.07895 -28.6905
vn -0.031452 0.91721 -0.397162
v -8.98014 9.07113 -28.7065
vn -0.0193419 0.874482 -0.484673
v -8.97789 9.06178 -28.7216
vn -0.00704557 0.823332 -0.567517
v -8.97563 9.05098 -28.7358
vn 0.00531865 0.764253 -0.644895
v -8.97338 9.03883 -28.7488
vn 0.0176317 0.697814 -0.716062
v -8.97116 9.02545 -28.7605
vn 0.0297749 0.624655 -0.780333
v -8.96899 9.01097 -28.7709
vn 0.0416313 0.54548 -0.83709
v -8.9669 8.99553 -28.7798
vn 0.0530868 0.461051 -0.885784
v -8.9649 8.97928 -28.7872
vn 0.0640311 0.372183 -0.925948
v -8.0444 9.02202 -28.6591
vn 0.18 0.286375 -0.941057
v -8.04266 9.00384 -28.6634
vn 0.189103 0.191196 -0.963164
v -8.04127 8.98531 -28.6658
vn 0.196385 0.0941763 -0.975994
v -8.04024 8.9666 -28.6665
vn 0.201775 -0.00375086 -0.979425
v -8.03958 8.9479 -28.6653
vn 0.205222 -0.101642 -0.973423
v -8.0393 8.92938 -28.6624
vn 0.206693 -0.198554 -0.958047
v -8.0394 8.91124 -28.6577
vn 0.206173 -0.293554 -0.933445
v -8.03987 8.89363 -28.6513
vn 0.203668 -0.385727 -0.899852
v -8.04073 8.87673 -28.6432
vn 0.199201 -0.474185 -0.857594
v -8.04195 8.8607 -28.6335
vn 0.192816 -0.558076 -0.807077
v -8.04352 8.8457 -28.6224
vn 0.184574 -0.636593 -0.748787
v -8.04544 8.83187 -28.6099
vn 0.174554 -0.708979 -0.683286
v -8.04767 8.81935 -28.5961
vn 0.162853 -0.774538 -0.611204
v -8.05021 8.80825 -28.5812
vn 0.149584 -0.832637 -0.533236
v -8.05302 8.79868 -28.5654
vn 0.134874 -0.882717 -0.450133
v -8.05607 8.79074 -28.5486
vn 0.118866 -0.924296 -0.362695
v -8.05935 8.7845 -28.5313
vn 0.101712 -0.956974 -0.271764
v -8.06282 8.78002 -28.5134
vn 0.0835794 -0.980435 -0.178215
v -8.06643 8.77734 -28.4952
vn 0.0646416 -0.994455 -0.0829507
v -8.07017 8.77649 -28.4769
vn 0.0450813 -0.998897 0.0131128
v -8.07399 8.77748 -28.4585
vn 0.0250868 -0.99372 0.10905
v -8.07786 8.7803 -28.4404
vn 0.00485069 -0.978972 0.203937
v -8.08173 8.78492 -28.4227
vn -0.0154321 -0.954796 0.29686
v -8.08558 8.79129 -28.4054
vn -0.0355663 -0.921425 0.386924
v -8.08936 8.79936 -28.389
vn -0.055358 -0.879181 0.473262
v -8.09304 8.80905 -28.3733
vn -0.0746165 -0.828469 0.555042
v -8.09658 8.82026 -28.3587
vn -0.0931565 -0.769779 0.631477
v -8.09995 8.83289 -28.3453
vn -0.110799 -0.703675 0.70183
v -8.10311 8.84681 -28.3331
vn -0.127375 -0.630794 0.765424
v -8.10605 8.86189 -28.3224
vn -0.142724 -0.551839 0.821647
v -8.10872 8.87799 -28.3132
vn -0.156699 -0.467569 0.869957
v -8.1111 8.89495 -28.3055
vn -0.169164 -0.378796 0.909888
v -8.11317 8.91261 -28.2996
vn -0.18 -0.286375 0.941057
v -8.11491 8.93079 -28.2954
vn -0.189103 -0.191196 0.963164
v -8.1163 8.94932 -28.2929
vn -0.196385 -0.0941763 0.975994
v -8.11733 8.96803 -28.2923
vn -0.201775 0.00375086 0.979425
v -8.11799 8.98673 -28.2934
vn -0.205222 0.101642 0.973423
v -8.11827 9.00525 -28.2963
vn -0.206693 0.198554 0.958047
v -8.11817 9.02339 -28.301
vn -0.206173 0.293554 0.933445
v -8.11769 9.041 -28.3075
vn -0.203668 0.385727 0.899852
v -8.11684 9.0579 -28.3155
vn -0.199201 0.474185 0.857594
v -8.11562 9.07393 -28.3252
vn -0.192816 0.558076 0.807077
v -8.11404 9.08893 -28.3363
vn -0.184574 0.636593 0.748787
v -8.11213 9.10276 -28.3488
vn -0.174554 0.708979 0.683286
v -8.10989 9.11528 -28.3626
vn -0.162853 0.774538 0.611204
v -8.10736 9.12638 -28.3775
vn -0.149584 0.832637 0.533236
v -8.10455 9.13595 -28.3934
vn -0.134874 0.882717 0.450133
v -8.10149 9.14389 -28.4101
vn -0.118866 0.924296 0.362695
v -8.09821 9.15013 -28.4274
vn -0.101712 0.956974 0.271764
v -8.09475 9.15461 -28.4453
vn -0.0835794 0.980435 0.178215
v -8.09113 9.15729 -28.4635
vn -0.0646416 0.994455 0.0829507
v -8.08739 9.15814 -28.4819
vn -0.0450813 0.998897 -0.0131128
v -8.08357 9.15715 -28.5002
vn -0.0250868 0.99372 -0.10905
v -8.07971 9.15433 -28.5183
vn -0.00485069 0.978972 -0.203937
v -8.07583 9.14971 -28.5361
vn 0.0154321 0.954796 -0.29686
v -8.07199 9.14334 -28.5533
vn 0.0355663 0.921425 -0.386924
v -8.06821 9.13527 -28.5698
vn 0.055358 0.879181 -0.473262
v -8.06453 9.12558 -28.5854
vn 0.0746165 0.828469 -0.555042
v -8.06099 9.11437 -28.6
vn 0.0931565 0.769779 -0.631477
v -8.05762 9.10174 -28.6134
vn 0.110799 0.703675 -0.70183
v -8.05445 9.08782 -28.6256
vn 0.127375 0.630794 -0.765424
v -8.05152 9.07274 -28.6363
vn 0.142724 0.551839 -0.821647
v -8.04885 9.05664 -28.6456
vn 0.156699 0.467569 -0.869957
v -8.04647 9.03968 -28.6532
vn 0.169164 0.378796 -0.909888
v -7.08853 9.05661 -28.4232
vn 0.272014 0.289524 -0.917706
v -7.0868 9.03765 -28.4276
vn 0.280674 0.19433 -0.939925
v -7.08562 9.01831 -28.4302
vn 0.286631 0.0972641 -0.953091
v -7.08498 8.99879 -28.431
vn 0.289827 -0.000738083 -0.957079
v -7.0849 8.97927 -28.43
vn 0.290232 -0.0987332 -0.951849
v -7.08538 8.95994 -28.4271
vn 0.287842 -0.195777 -0.937453
v -7.0864 8.94098 -28.4224
vn 0.28268 -0.290936 -0.914029
v -7.08798 8.92258 -28.416
vn 0.274795 -0.383293 -0.881801
v -7.09007 8.90492 -28.4079
vn 0.264265 -0.471959 -0.841082
v -7.09268 8.88817 -28.3982
vn 0.251189 -0.556079 -0.792263
v -7.09576 8.87248 -28.3869
vn 0.235694 -0.634844 -0.735814
v -7.0993 8.858 -28.3743
vn 0.217929 -0.707495 -0.672278
v -7.10326 8.84489 -28.3603
vn 0.198065 -0.773333 -0.602268
v -7.1076 8.83326 -28.3452
vn 0.176294 -0.831723 -0.526458
v -7.11227 8.82322 -28.3291
vn 0.152825 -0.882103 -0.445578
v -7.11724 8.81488 -28.3122
vn 0.127885 -0.923988 -0.360406
v -7.12245 8.80831 -28.2945
vn 0.101712 -0.956974 -0.271764
v -7.12786 8.80357 -28.2763
vn 0.0745605 -0.980744 -0.180504
v -7.13341 8.80072 -28.2578
vn 0.0466906 -0.995069 -0.0875064
v -7.13906 8.79977 -28.2391
vn 0.0183711 -0.999811 0.00633425
v -7.14473 8.80075 -28.2204
vn -0.0101254 -0.994924 0.100114
v -7.15039 8.80363 -28.2019
vn -0.0385243 -0.980456 0.192929
v -7.15597 8.80839 -28.1838
vn -0.0665523 -0.956545 0.283887
v -7.16143 8.81499 -28.1662
vn -0.0939393 -0.923423 0.37211
v -7.1667 8.82336 -28.1494
vn -0.120422 -0.881407 0.45675
v -7.17175 8.83342 -28.1334
vn -0.145744 -0.830903 0.536991
v -7.17651 8.84507 -28.1185
vn -0.169663 -0.772396 0.612061
v -7.18095 8.85821 -28.1047
vn -0.191948 -0.706451 0.681236
v -7.18502 8.8727 -28.0922
vn -0.212385 -0.633703 0.74385
v -7.18869 8.88841 -28.0812
vn -0.230776 -0.554852 0.799301
v -7.19191 8.90518 -28.0716
vn -0.246944 -0.470657 0.847054
v -7.19465 8.92286 -28.0638
vn -0.260735 -0.381929 0.88665
v -7.1969 8.94126 -28.0576
vn -0.272014 -0.289524 0.917706
v -7.19863 8.96023 -28.0531
vn -0.280674 -0.19433 0.939925
v -7.19981 8.97956 -28.0505
vn -0.286631 -0.0972641 0.953091
v -7.20045 8.99908 -28.0497
vn -0.289827 0.000738083 0.957079
v -7.20053 9.0186 -28.0508
vn -0.290232 0.0987332 0.951849
v -7.20005 9.03794 -28.0536
vn -0.287842 0.195777 0.937453
v -7.19902 9.05689 -28.0583
vn -0.28268 0.290936 0.914029
v -7.19745 9.07529 -28.0647
vn -0.274795 0.383293 0.881801
v -7.19536 9.09295 -28.0728
vn -0.264265 0.471959 0.841082
v -7.19275 9.10971 -28.0826
vn -0.251189 0.556079 0.792263
v -7.18967 9.1254 -28.0938
vn -0.235694 0.634844 0.735814
v -7.18613 9.13987 -28.1065
vn -0.217929 0.707495 0.672278
v -7.18217 9.15299 -28.1204
vn -0.198065 0.773333 0.602268
v -7.17783 9.16462 -28.1355
vn -0.176294 0.831723 0.526458
v -7.17316 9.17465 -28.1516
vn -0.152825 0.882103 0.445578
v -7.16819 9.183 -28.1686
vn -0.127885 0.923988 0.360406
v -7.16298 9.18957 -28.1862
vn -0.101712 0.956974 0.271764
v -7.15757 9.1943 -28.2044
vn -0.0745605 0.980744 0.180504
v -7.15202 9.19716 -28.2229
vn -0.0466906 0.995069 0.0875064
v -7.14637 9.1981 -28.2416
vn -0.0183711 0.999811 -0.00633425
v -7.1407 9.19713 -28.2603
vn 0.0101254 0.994924 -0.100114
v -7.13504 9.19424 -28.2788
vn 0.0385243 0.980456 -0.192929
v -7.12946 9.18948 -28.2969
vn 0.0665523 0.956545 -0.283887
v -7.124 9.18288 -28.3145
vn 0.0939393 0.923423 -0.37211
v -7.11873 9.17451 -28.3314
vn 0.120422 0.881407 -0.45675
v -7.11368 9.16445 -28.3473
vn 0.145744 0.830903 -0.536991
v -7.10892 9.1528 -28.3623
vn 0.169663 0.772396 -0.612061
v -7.10448 9.13966 -28.3761
vn 0.191948 0.706451 -0.681236
v -7.10041 9.12517 -28.3885
vn 0.212385 0.633703 -0.74385
v -7.09674 9.10946 -28.3996
vn 0.230776 0.554852 -0.799301
v -7.09352 9.09269 -28.4091
vn 0.246944 0.470657 -0.847054
v -7.09078 9.07502 -28.417
vn 0.260735 0.381929 -0.88665
v -6.09566 9.06625 -28.0855
vn 0.350799 0.290135 -0.890372
v -6.09395 9.04651 -28.0902
vn 0.359079 0.194938 -0.912722
v -6.09295 9.02638 -28.093
vn 0.363901 0.0978636 -0.926282
v -6.09267 9.00605 -28.0939
vn 0.365219 -0.000153184 -0.930922
v -6.09313 8.98573 -28.093
vn 0.363019 -0.0981685 -0.926596
v -6.09431 8.9656 -28.0903
vn 0.357324 -0.195238 -0.913346
v -6.0962 8.94586 -28.0857
vn 0.348187 -0.290428 -0.891301
v -6.09879 8.9267 -28.0794
vn 0.335697 -0.382821 -0.860672
v -6.10205 8.9083 -28.0713
vn 0.319974 -0.471526 -0.821754
v -6.10595 8.89085 -28.0616
vn 0.301169 -0.555691 -0.774922
v -6.11045 8.87451 -28.0503
vn 0.279464 -0.634504 -0.720627
v -6.11551 8.85943 -28.0376
vn 0.255068 -0.707207 -0.659393
v -6.12108 8.84577 -28.0236
vn 0.228215 -0.773099 -0.591808
v -6.12711 8.83365 -28.0084
vn 0.199164 -0.831545 -0.518523
v -6.13353 8.82319 -27.9922
vn 0.168195 -0.881983 -0.440245
v -6.14029 8.81449 -27.9751
vn 0.135607 -0.923928 -0.357727
v -6.14731 8.80764 -27.9572
vn 0.101712 -0.956974 -0.271764
v -6.15455 8.8027 -27.9389
vn 0.0668383 -0.980804 -0.183183
v -6.16191 8.79971 -27.9201
vn 0.0313205 -0.995188 -0.092839
v -6.16934 8.79872 -27.9012
vn -0.00449884 -0.999989 -0.00160043
v -6.17676 8.79972 -27.8823
vn -0.0402749 -0.995158 0.0896535
v -6.1841 8.80271 -27.8635
vn -0.0756631 -0.980744 0.180044
v -6.19128 8.80766 -27.8452
vn -0.110323 -0.956885 0.268701
v -6.19825 8.81451 -27.8273
vn -0.14392 -0.92381 0.35477
v -6.20493 8.82322 -27.8102
vn -0.176131 -0.881839 0.437422
v -6.21126 8.83368 -27.7939
vn -0.206645 -0.831375 0.515862
v -6.21717 8.84581 -27.7787
vn -0.23517 -0.772904 0.589333
v -6.22262 8.85948 -27.7646
vn -0.26143 -0.70699 0.657129
v -6.22754 8.87456 -27.7519
vn -0.285172 -0.634268 0.718597
v -6.23189 8.8909 -27.7406
vn -0.306168 -0.555437 0.773144
v -6.23564 8.90836 -27.7308
vn -0.324215 -0.471256 0.820245
v -6.23873 8.92676 -27.7227
vn -0.33914 -0.382538 0.859447
v -6.24115 8.94592 -27.7162
vn -0.350799 -0.290135 0.890372
v -6.24287 8.96566 -27.7116
vn -0.359079 -0.194938 0.912722
v -6.24387 8.98579 -27.7088
vn -0.363901 -0.0978636 0.926282
v -6.24414 9.00611 -27.7078
vn -0.365219 0.000153184 0.930922
v -6.24368 9.02644 -27.7087
vn -0.363019 0.0981685 0.926596
v -6.2425 9.04657 -27.7115
vn -0.357324 0.195238 0.913346
v -6.24061 9.06631 -27.7161
vn -0.348187 0.290428 0.891301
v -6.23802 9.08547 -27.7224
vn -0.335697 0.382821 0.860672
v -6.23476 9.10386 -27.7305
vn -0.319974 0.471526 0.821754
v -6.23086 9.12131 -27.7402
vn -0.301169 0.555691 0.774922
v -6.22636 9.13766 -27.7514
vn -0.279464 0.634504 0.720627
v -6.2213 9.15273 -27.7641
vn -0.255068 0.707207 0.659393
v -6.21573 9.1664 -27.7782
vn -0.228215 0.773099 0.591808
v -6.20971 9.17852 -27.7934
vn -0.199164 0.831545 0.518523
v -6.20328 9.18898 -27.8096
vn -0.168195 0.881983 0.440245
v -6.19653 9.19767 -27.8267
vn -0.135607 0.923928 0.357727
v -6.1895 9.20453 -27.8445
vn -0.101712 0.956974 0.271764
v -6.18227 9.20947 -27.8629
vn -0.0668383 0.980804 0.183183
v -6.1749 9.21245 -27.8816
vn -0.0313205 0.995188 0.092839
v -6.16747 9.21345 -27.9006
vn 0.00449884 0.999989 0.00160043
v -6.16005 9.21244 -27.9195
vn 0.0402749 0.995158 -0.0896535
v -6.15272 9.20946 -27.9382
vn 0.0756631 0.980744 -0.180044
v -6.14553 9.20451 -27.9566
vn 0.110323 0.956885 -0.268701
v -6.13856 9.19765 -27.9744
vn 0.14392 0.92381 -0.35477
v -6.13188 9.18895 -27.9916
vn 0.176131 0.881839 -0.437422
v -6.12555 9.17848 -28.0079
vn 0.206645 0.831375 -0.515862
v -6.11964 9.16636 -28.0231
vn 0.23517 0.772904 -0.589333
v -6.11419 9.15269 -28.0371
vn 0.26143 0.70699 -0.657129
v -6.10927 9.13761 -28.0499
vn 0.285172 0.634268 -0.718597
v -6.10492 9.12126 -28.0612
vn 0.306168 0.555437 -0.773144
v -6.10117 9.1038 -28.071
vn 0.324215 0.471256 -0.820245
v -6.09808 9.08541 -28.0791
vn 0.33914 0.382538 -0.859447
v -5.06584 9.05104 -27.6466
vn 0.41763 0.289018 -0.861426
v -5.06413 9.03053 -27.6514
vn 0.425589 0.193826 -0.883915
v -5.0633 9.00961 -27.6544
vn 0.429448 0.096768 -0.897892
v -5.06335 8.98849 -27.6556
vn 0.429173 -0.00122215 -0.903222
v -5.0643 8.96737 -27.6548
vn 0.424763 -0.0992005 -0.899853
v -5.06614 8.94646 -27.6522
vn 0.416264 -0.196224 -0.887818
v -5.06883 8.92595 -27.6478
vn 0.403755 -0.291357 -0.867233
v -5.07237 8.90605 -27.6416
vn 0.387358 -0.383684 -0.838296
v -5.07671 8.88695 -27.6336
vn 0.367231 -0.472316 -0.801286
v -5.08181 8.86883 -27.624
vn 0.343566 -0.5564 -0.756559
v -5.08762 8.85186 -27.6127
vn 0.316594 -0.635125 -0.704546
v -5.09409 8.83621 -27.6001
vn 0.286572 -0.707734 -0.645747
v -5.10116 8.82203 -27.5861
vn 0.25379 -0.773526 -0.58073
v -5.10875 8.80946 -27.5708
vn 0.218564 -0.83187 -0.51012
v -5.11679 8.79861 -27.5546
vn 0.181234 -0.882201 -0.434598
v -5.12522 8.78959 -27.5374
vn 0.142157 -0.924037 -0.35489
v -5.13393 8.78249 -27.5195
vn 0.101712 -0.956974 -0.271764
v -5.14286 8.77738 -27.501
vn 0.0602877 -0.980694 -0.186021
v -5.15191 8.7743 -27.4821
vn 0.0182824 -0.99497 -0.0984862
v -5.16101 8.77329 -27.463
vn -0.023899 -0.999664 -0.0100031
v -5.17005 8.77435 -27.444
vn -0.0658501 -0.994731 0.0785763
v -5.17895 8.77748 -27.425
vn -0.107167 -0.980218 0.166399
v -5.18764 8.78265 -27.4064
vn -0.147452 -0.956264 0.252619
v -5.19601 8.78979 -27.3884
vn -0.186317 -0.923102 0.336406
v -5.204 8.79886 -27.371
vn -0.223388 -0.881049 0.416954
v -5.21153 8.80975 -27.3545
vn -0.258307 -0.830512 0.493486
v -5.21852 8.82237 -27.3391
vn -0.290738 -0.771976 0.565265
v -5.2249 8.83658 -27.3248
vn -0.32037 -0.706005 0.631601
v -5.23063 8.85227 -27.3118
vn -0.346916 -0.633236 0.691854
v -5.23563 8.86927 -27.3002
vn -0.370122 -0.554368 0.745444
v -5.23986 8.88742 -27.2902
vn -0.389762 -0.470161 0.791855
v -5.24329 8.90654 -27.2819
vn -0.405649 -0.381426 0.83064
v -5.24587 8.92646 -27.2752
vn -0.41763 -0.289018 0.861426
v -5.24758 8.94697 -27.2704
vn -0.425589 -0.193826 0.883915
v -5.24841 8.96789 -27.2674
vn -0.429448 -0.096768 0.897892
v -5.24836 8.98901 -27.2662
vn -0.429173 0.00122215 0.903222
v -5.24741 9.01013 -27.2669
vn -0.424763 0.0992005 0.899853
v -5.24557 9.03104 -27.2695
vn -0.416264 0.196224 0.887818
v -5.24288 9.05155 -27.274
vn -0.403755 0.291357 0.867233
v -5.23934 9.07145 -27.2802
vn -0.387358 0.383684 0.838296
v -5.235 9.09055 -27.2882
vn -0.367231 0.472316 0.801286
v -5.2299 9.10867 -27.2978
vn -0.343566 0.5564 0.756559
v -5.22409 9.12564 -27.309
vn -0.316594 0.635125 0.704546
v -5.21762 9.14129 -27.3217
vn -0.286572 0.707734 0.645747
v -5.21055 9.15547 -27.3357
vn -0.25379 0.773526 0.58073
v -5.20296 9.16805 -27.3509
vn -0.218564 0.83187 0.51012
v -5.19492 9.17889 -27.3672
vn -0.181234 0.882201 0.434598
v -5.18649 9.18791 -27.3844
vn -0.142157 0.924037 0.35489
v -5.17778 9.19501 -27.4023
vn -0.101712 0.956974 0.271764
v -5.16885 9.20012 -27.4208
vn -0.0602877 0.980694 0.186021
v -5.1598 9.2032 -27.4397
vn -0.0182824 0.99497 0.0984862
v -5.1507 9.20421 -27.4587
vn 0.023899 0.999664 0.0100031
v -5.14166 9.20315 -27.4778
vn 0.0658501 0.994731 -0.0785763
v -5.13276 9.20002 -27.4968
vn 0.107167 0.980218 -0.166399
v -5.12407 9.19486 -27.5153
vn 0.147452 0.956264 -0.252619
v -5.1157 9.18771 -27.5334
vn 0.186317 0.923102 -0.336406
v -5.10771 9.17864 -27.5508
vn 0.223388 0.881049 -0.416954
v -5.10018 9.16775 -27.5672
vn 0.258307 0.830512 -0.493486
v -5.09319 9.15514 -27.5827
vn 0.290738 0.771976 -0.565265
v -5.08681 9.14092 -27.597
vn 0.32037 0.706005 -0.631601
v -5.08108 9.12523 -27.61
vn 0.346916 0.633236 -0.691854
v -5.07608 9.10823 -27.6216
vn 0.370122 0.554368 -0.745444
v -5.07185 9.09009 -27.6316
vn 0.389762 0.470161 -0.791855
v -5.06842 9.07096 -27.6399
vn 0.405649 0.381426 -0.83064
f 1 66 2 
f 1 65 66 
f 2 67 3 
f 2 66 67 
f 3 68 4 
f 3 67 68 
f 4 69 5 
f 4 68 69 
f 5 70 6 
f 5 69 70 
f 6 71 7 
f 6 70 71 
f 7 72 8 
f 7 71 72 
f 8 73 9 
f 8 72 73 
f 9 74 10 
f 9 73 74 
f 10 75 11 
f 10 74 75 
f 11 76 12 
f 11 75 76 
f 12 77 13 
f 12 76 77 
f 13 78 14 
f 13 77 78 
f 14 79 15 
f 14 78 79 
f 15 80 16 
f 15 79 80 
f 16 81 17 
f 16 80 81 
f 17 82 18 
f 17 81 82 
f 18 83 19 
f 18 82 83 
f 19 84 20 
f 19 83 84 
f 20 85 21 
f 20 84 85 
f 21 86 22 
f 21 85 86 
f 22 87 23 
f 22 86 87 
f 23 88 24 
f 23 87 88 
f 24 89 25 
f 24 88 89 
f 25 90 26 
f 25 89 90 
f 26 91 27 
f 26 90 91 
f 27 92 28 
f 27 91 92 
f 28 93 29 
f 28 92 93 
f 29 94 30 
f 29 93 94 
f 30 95 31 
f 30 94 95 
f 31 96 32 
f 31 95 96 
f 32 97 33 
f 32 96 97 
f 33 98 34 
f 33 97 98 
f 34 99 35 
f 34 98 99 
f 35 100 36 
f 35 99 100 
f 36 101 37 
f 36 100 101 
f 37 102 38 
f 37 101 102 
f 38 103 39 
f 38 102 103 
f 39 104 40 
f 39 103 104 
f 40 105 41 
f 40 104 105 
f 41 106 42 
f 41 105 106 
f 42 107 43 
f 42 106 107 
f 43 108 44 
f 43 107 108 
f 44 109 45 
f 44 108 109 
f 45 110 46 
f 45 109 110 
f 46 111 47 
f 46 110 111 
f 47 112 48 
f 47 111 112 
f 48 113 49 
f 48 112 113 
f 49 114 50 
f 49 113 114 
f 50 115 51 
f 50 114 115 
f 51 116 52 
f 51 115 116 
f 52 117 53 
f 52 116 117 
f 53 118 54 
f 53 117 118 
f 54 119 55 
f 54 118 119 
f 55 120 56 
f 55 119 120 
f 56 121 57 
f 56 120 121 
f 57 122 58 
f 57 121 122 
f 58 123 59 
f 58 122 123 
f 59 124 60 
f 59 123 124 
f 60 125 61 
f 60 124 125 
f 61 126 62 
f 61 125 126 
f 62 127 63 
f 62 126 127 
f 63 128 64 
f 63 127 128 
f 64 65 1 
f 64 128 65 
f 65 130 66 
f 65 129 130 
f 66 131 67 
f 66 130 131 
f 67 132 68 
f 67 131 132 
f 68 133 69 
f 68 132 133 
f 69 134 70 
f 69 133 134 
f 70 135 71 
f 70 134 135 
f 71 136 72 
f 71 135 136 
f 72 137 73 
f 72 136 137 
f 73 138 74 
f 73 137 138 
f 74 139 75 
f 74 138 139 
f 75 140 76 
f 75 139 140 
f 76 141 77 
f 76 140 141 
f 77 142 78 
f 77 141 142 
f 78 143 79 
f 78 142 143 
f 79 144 80 
f 79 143 144 
f 80 145 81 
f 80 144 145 
f 81 146 82 
f 81 145 146 
f 82 147 83 
f 82 146 147 
f 83 148 84 
f 83 147 148 
f 84 149 85 
f 84 148 149 
f 85 150 86 
f 85 149 150 
f 86 151 87 
f 86 150 151 
f 87 152 88 
f 87 151 152 
f 88 153 89 
f 88 152 153 
f 89 154 90 
f 89 153 154 
f 90 155 91 
f 90 154 155 
f 91 156 92 
f 91 155 156 
f 92 157 93 
f 92 156 157 
f 93 158 94 
f 93 157 158 
f 94 159 95 
f 94 158 159 
f 95 160 96 
f 95 159 160 
f 96 161 97 
f 96 160 161 
f 97 162 98 
f 97 161 162 
f 98 163 99 
f 98 162 163 
f 99 164 100 
f 99 163 164 
f 100 165 101 
f 100 164 165 
f 101 166 102 
f 101 165 166 
f 102 167 103 
f 102 166 167 
f 103 168 104 
f 103 167 168 
f 104 169 105 
f 104 168 169 
f 105 170 106 
f 105 169 170 
f 106 171 107 
f 106 170 171 
f 107 172 108 
f 107 171 172 
f 108 173 109 
f 108 172 173 
f 109 174 110 
f 109 173 174 
f 110 175 111 
f 110 174 175 
f 111 176 112 
f 111 175 176 
f 112 177 113 
f 112 176 177 
f 113 178 114 
f 113 177 178 
f 114 179 115 
f 114 178 179 
f 115 180 116 
f 115 179 180 
f 116 181 117 
f 116 180 181 
f 117 182 118 
f 117 181 182 
f 118 183 119 
f 118 182 183 
f 119 184 120 
f 119 183 184 
f 120 185 121 
f 120 184 185 
f 121 186 122 
f 121 185 186 
f 122 187 123 
f 122 186 187 
f 123 188 124 
f 123 187 188 
f 124 189 125 
f 124 188 189 
f 125 190 126 
f 125 189 190 
f 126 191 127 
f 126 190 191 
f 127 192 128 
f 127 191 192 
f 128 129 65 
f 128 192 129 
f 129 194 130 
f 129 193 194 
f 130 195 131 
f 130 194 195 
f 131 196 132 
f 131 195 196 
f 132 197 133 
f 132 196 197 
f 133 198 134 
f 133 197 198 
f 134 199 135 
f 134 198 199 
f 135 200 136 
f 135 199 200 
f 136 201 137 
f 136 200 201 
f 137 202 138 
f 137 201 202 
f 138 203 139 
f 138 202 203 
f 139 204 140 
f 139 203 204 
f 140 205 141 
f 140 204 205 
f 141 206 142 
f 141 205 206 
f 142 207 143 
f 142 206 207 
f 143 208 144 
f 143 207 208 
f 144 209 145 
f 144 208 209 
f 145 210 146 
f 145 209 210 
f 146 211 147 
f 146 210 211 
f 147 212 148 
f 147 211 212 
f 148 213 149 
f 148 212 213 
f 149 214 150 
f 149 213 214 
f 150 215 151 
f 150 214 215 
f 151 216 152 
f 151 215 216 
f 152 217 153 
f 152 216 217 
f 153 218 154 
f 153 217 218 
f 154 219 155 
f 154 218 219 
f 155 220 156 
f 155 219 220 
f 156 221 157 
f 156 220 221 
f 157 222 158 
f 157 221 222 
f 158 223 159 
f 158 222 223 
f 159 224 160 
f 159 223 224 
f 160 225 161 
f 160 224 225 
f 161 226 162 
f 161 225 226 
f 162 227 163 
f 162 226 227 
f 163 228 164 
f 163 227 228 
f 164 229 165 
f 164 228 229 
f 165 230 166 
f 165 229 230 
f 166 231 167 
f 166 230 231 
f 167 232 168 
f 167 231 232 
f 168 233 169 
f 168 232 233 
f 169 234 170 
f 169 233 234 
f 170 235 171 
f 170 234 235 
f 171 236 172 
f 171 235 236 
f 172 237 173 
f 172 236 237 
f 173 238 174 
f 173 237 238 
f 174 239 175 
f 174 238 239 
f 175 240 176 
f 175 239 240 
f 176 241 177 
f 176 240 241 
f 177 242 178 
f 177 241 242 
f 178 243 179 
f 178 242 243 
f 179 244 180 
f 179 243 244 
f 180 245 181 
f 180 244 245 
f 181 246 182 
f 181 245 246 
f 182 247 183 
f 182 246 247 
f 183 248 184 
f 183 247 248 
f 184 249 185 
f 184 248 249 
f 185 250 186 
f 185 249 250 
f 186 251 187 
f 186 250 251 
f 187 252 188 
f 187 251 252 
f 188 253 189 
f 188 252 253 
f 189 254 190 
f 189 253 254 
f 190 255 191 
f 190 254 255 
f 191 256 192 
f 191 255 256 
f 192 193 129 
f 192 256 193 
f 193 258 194 
f 193 257 258 
f 194 259 195 
f 194 258 259 
f 195 260 196 
f 195 259 260 
f 196 261 197 
f 196 260 261 
f 197 262 198 
f 197 261 262 
f 198 263 199 
f 198 262 263 
f 199 264 200 
f 199 263 264 
f 200 265 201 
f 200 264 265 
f 201 266 202 
f 201 265 266 
f 202 267 203 
f 202 266 267 
f 203 268 204 
f 203 267 268 
f 204 269 205 
f 204 268 269 
f 205 270 206 
f 205 269 270 
f 206 271 207 
f 206 270 271 
f 207 272 208 
f 207 271 272 
f 208 273 209 
f 208 272 273 
f 209 274 210 
f 209 273 274 
f 210 275 211 
f 210 274 275 
f 211 276 212 
f 211 275 276 
f 212 277 213 
f 212 276 277 
f 213 278 214 
f 213 277 278 
f 214 279 215 
f 214 278 279 
f 215 280 216 
f 215 279 280 
f 216 281 217 
f 216 280 281 
f 217 282 218 
f 217 281 282 
f 218 283 219 
f 218 282 283 
f 219 284 220 
f 219 283 284 
f 220 285 221 
f 220 284 285 
f 221 286 222 
f 221 285 286 
f 222 287 223 
f 222 286 287 
f 223 288 224 
f 223 287 288 
f 224 289 225 
f 224 288 289 
f 225 290 226 
f 225 289 290 
f 226 291 227 
f 226 290 291 
f 227 292 228 
f 227 291 292 
f 228 293 229 
f 228 292 293 
f 229 294 230 
f 229 293 294 
f 230 295 231 
f 230 294 295 
f 231 296 232 
f 231 295 296 
f 232 297 233 
f 232 296 297 
f 233 298 234 
f 233 297 298 
f 234 299 235 
f 234 298 299 
f 235 300 236 
f 235 299 300 
f 236 301 237 
f 236 300 301 
f 237 302 238 
f 237 301 302 
f 238 303 239 
f 238 302 303 
f 239 304 240 
f 239 303 304 
f 240 305 241 
f 240 304 305 
f 241 306 242 
f 241 305 306 
f 242 307 243 
f 242 306 307 
f 243 308 244 
f 243 307 308 
f 244 309 245 
f 244 308 309 
f 245 310 246 
f 245 309 310 
f 246 311 247 
f 246 310 311 
f 247 312 248 
f 247 311 312 
f 248 313 249 
f 248 312 313 
f 249 314 250 
f 249 313 314 
f 250 315 251 
f 250 314 315 
f 251 316 252 
f 251 315 316 
f 252 317 253 
f 252 316 317 
f 253 318 254 
f 253 317 318 
f 254 319 255 
f 254 318 319 
f 255 320 256 
f 255 319 320 
f 256 257 193 
f 256 320 257 
f 257 322 258 
f 257 321 322 
f 258 323 259 
f 258 322 323 
f 259 324 260 
f 259 323 324 
f 260 325 261 
f 260 324 325 
f 261 326 262 
f 261 325 326 
f 262 327 263 
f 262 326 327 
f 263 328 264 
f 263 327 328 
f 264 329 265 
f 264 328 329 
f 265 330 266 
f 265 329 330 
f 266 331 267 
f 266 330 331 
f 267 332 268 
f 267 331 332 
f 268 333 269 
f 268 332 333 
f 269 334 270 
f 269 333 334 
f 270 335 271 
f 270 334 335 
f 271 336 272 
f 271 335 336 
f 272 337 273 
f 272 336 337 
f 273 338 274 
f 273 337 338 
f 274 339 275 
f 274 338 339 
f 275 340 276 
f 275 339 340 
f 276 341 277 
f 276 340 341 
f 277 342 278 
f 277 341 342 
f 278 343 279 
f 278 342 343 
f 279 344 280 
f 279 343 344 
f 280 345 281 
f 280 344 345 
f 281 346 282 
f 281 345 346 
f 282 347 283 
f 282 346 347 
f 283 348 284 
f 283 347 348 
f 284 349 285 
f 284 348 349 
f 285 350 286 
f 285 349 350 
f 286 351 287 
f 286 350 351 
f 287 352 288 
f 287 351 352 
f 288 353 289 
f 288 352 353 
f 289 354 290 
f 289 353 354 
f 290 355 291 
f 290 354 355 
f 291 356 292 
f 291 355 356 
f 292 357 293 
f 292 356 357 
f 293 358 294 
f 293 357 358 
f 294 359 295 
f 294 358 359 
f 295 360 296 
f 295 359 360 
f 296 361 297 
f 296 360 361 
f 297 362 298 
f 297 361 362 
f 298 363 299 
f 298 362 363 
f 299 364 300 
f 299 363 364 
f 300 365 301 
f 300 364 365 
f 301 366 302 
f 301 365 366 
f 302 367 303 
f 302 366 367 
f 303 368 304 
f 303 367 368 
f 304 369 305 
f 304 368 369 
f 305 370 306 
f 305 369 370 
f 306 371 307 
f 306 370 371 
f 307 372 308 
f 307 371 372 
f 308 373 309 
f 308 372 373 
f 309 374 310 
f 309 373 374 
f 310 375 311 
f 310 374 375 
f 311 376 312 
f 311 375 376 
f 312 377 313 
f 312 376 377 
f 313 378 314 
f 313 377 378 
f 314 379 315 
f 314 378 379 
f 315 380 316 
f 315 379 380 
f 316 381 317 
f 316 380 381 
f 317 382 318 
f 317 381 382 
f 318 383 319 
f 318 382 383 
f 319 384 320 
f 319 383 384 
f 320 321 257 
f 320 384 321 
f 321 386 322 
f 321 385 386 
f 322 387 323 
f 322 386 387 
f 323 388 324 
f 323 387 388 
f 324 389 325 
f 324 388 389 
f 325 390 326 
f 325 389 390 
f 326 391 327 
f 326 390 391 
f 327 392 328 
f 327 391 392 
f 328 393 329 
f 328 392 393 
f 329 394 330 
f 329 393 394 
f 330 395 331 
f 330 394 395 
f 331 396 332 
f 331 395 396 
f 332 397 333 
f 332 396 397 
f 333 398 334 
f 333 397 398 
f 334 399 335 
f 334 398 399 
f 335 400 336 
f 335 399 400 
f 336 401 337 
f 336 400 401 
f 337 402 338 
f 337 401 402 
f 338 403 339 
f 338 402 403 
f 339 404 340 
f 339 403 404 
f 340 405 341 
f 340 404 405 
f 341 406 342 
f 341 405 406 
f 342 407 343 
f 342 406 407 
f 343 408 344 
f 343 407 408 
f 344 409 345 
f 344 408 409 
f 345 410 346 
f 345 409 410 
f 346 411 347 
f 346 410 411 
f 347 412 348 
f 347 411 412 
f 348 413 349 
f 348 412 413 
f 349 414 350 
f 349 413 414 
f 350 415 351 
f 350 414 415 
f 351 416 352 
f 351 415 416 
f 352 417 353 
f 352 416 417 
f 353 418 354 
f 353 417 418 
f 354 419 355 
f 354 418 419 
f 355 420 356 
f 355 419 420 
f 356 421 357 
f 356 420 421 
f 357 422 358 
f 357 421 422 
f 358 423 359 
f 358 422 423 
f 359 424 360 
f 359 423 424 
f 360 425 361 
f 360 424 425 
f 361 426 362 
f 361 425 426 
f 362 427 363 
f 362 426 427 
f 363 428 364 
f 363 427 428 
f 364 429 365 
f 364 428 429 
f 365 430 366 
f 365 429 430 
f 366 431 367 
f 366 430 431 
f 367 432 368 
f 367 431 432 
f 368 433 369 
f 368 432 433 
f 369 434 370 
f 369 433 434 
f 370 435 371 
f 370 434 435 
f 371 436 372 
f 371 435 436 
f 372 437 373 
f 372 436 437 
f 373 438 374 
f 373 437 438 
f 374 439 375 
f 374 438 439 
f 375 440 376 
f 375 439 440 
f 376 441 377 
f 376 440 441 
f 377 442 378 
f 377 441 442 
f 378 443 379 
f 378 442 443 
f 379 444 380 
f 379 443 444 
f 380 445 381 
f 380 444 445 
f 381 446 382 
f 381 445 446 
f 382 447 383 
f 382 446 447 
f 383 448 384 
f 383 447 448 
f 384 385 321 
f 384 448 385 
f 385 450 386 
f 385 449 450 
f 386 451 387 
f 386 450 451 
f 387 452 388 
f 387 451 452 
f 388 453 389 
f 388 452 453 
f 389 454 390 
f 389 453 454 
f 390 455 391 
f 390 454 455 
f 391 456 392 
f 391 455 456 
f 392 457 393 
f 392 456 457 
f 393 458 394 
f 393 457 458 
f 394 459 395 
f 394 458 459 
f 395 460 396 
f 395 459 460 
f 396 461 397 
f 396 460 461 
f 397 462 398 
f 397 461 462 
f 398 463 399 
f 398 462 463 
f 399 464 400 
f 399 463 464 
f 400 465 401 
f 400 464 465 
f 401 466 402 
f 401 465 466 
f 402 467 403 
f 402 466 467 
f 403 468 404 
f 403 467 468 
f 404 469 405 
f 404 468 469 
f 405 470 406 
f 405 469 470 
f 406 471 407 
f 406 470 471 
f 407 472 408 
f 407 471 472 
f 408 473 409 
f 408 472 473 
f 409 474 410 
f 409 473 474 
f 410 475 411 
f 410 474 475 
f 411 476 412 
f 411 475 476 
f 412 477 413 
f 412 476 477 
f 413 478 414 
f 413 477 478 
f 414 479 415 
f 414 478 479 
f 415 480 416 
f 415 479 480 
f 416 481 417 
f 416 480 481 
f 417 482 418 
f 417 481 482 
f 418 483 419 
f 418 482 483 
f 419 484 420 
f 419 483 484 
f 420 485 421 
f 420 484 485 
f 421 486 422 
f 421 485 486 
f 422 487 423 
f 422 486 487 
f 423 488 424 
f 423 487 488 
f 424 489 425 
f 424 488 489 
f 425 490 426 
f 425 489 490 
f 426 491 427 
f 426 490 491 
f 427 492 428 
f 427 491 492 
f 428 493 429 
f 428 492 493 
f 429 494 430 
f 429 493 494 
f 430 495 431 
f 430 494 495 
f 431 496 432 
f 431 495 496 
f 432 497 433 
f 432 496 497 
f 433 498 434 
f 433 497 498 
f 434 499 435 
f 434 498 499 
f 435 500 436 
f 435 499 500 
f 436 501 437 
f 436 500 501 
f 437 502 438 
f 437 501 502 
f 438 503 439 
f 438 502 503 
f 439 504 440 
f 439 503 504 
f 440 505 441 
f 440 504 505 
f 441 506 442 
f 441 505 506 
f 442 507 443 
f 442 506 507 
f 443 508 444 
f 443 507 508 
f 444 509 445 
f 444 508 509 
f 445 510 446 
f 445 509 510 
f 446 511 447 
f 446 510 511 
f 447 512 448 
f 447 511 512 
f 448 449 385 
f 448 512 449 
f 449 514 450 
f 449 513 514 
f 450 515 451 
f 450 514 515 
f 451 516 452 
f 451 515 516 
f 452 517 453 
f 452 516 517 
f 453 518 454 
f 453 517 518 
f 454 519 455 
f 454 518 519 
f 455 520 456 
f 455 519 520 
f 456 521 457 
f 456 520 521 
f 457 522 458 
f 457 521 522 
f 458 523 459 
f 458 522 523 
f 459 524 460 
f 459 523 524 
f 460 525 461 
f 460 524 525 
f 461 526 462 
f 461 525 526 
f 462 527 463 
f 462 526 527 
f 463 528 464 
f 463 527 528 
f 464 529 465 
f 464 528 529 
f 465 530 466 
f 465 529 530 
f 466 531 467 
f 466 530 531 
f 467 532 468 
f 467 531 532 
f 468 533 469 
f 468 532 533 
f 469 534 470 
f 469 533 534 
f 470 535 471 
f 470 534 535 
f 471 536 472 
f 471 535 536 
f 472 537 473 
f 472 536 537 
f 473 538 474 
f 473 537 538 
f 474 539 475 
f 474 538 539 
f 475 540 476 
f 475 539 540 
f 476 541 477 
f 476 540 541 
f 477 542 478 
f 477 541 542 
f 478 543 479 
f 478 542 543 
f 479 544 480 
f 479 543 544 
f 480 545 481 
f 480 544 545 
f 481 546 482 
f 481 545 546 
f 482 547 483 
f 482 546 547 
f 483 548 484 
f 483 547 548 
f 484 549 485 
f 484 548 549 
f 485 550 486 
f 485 549 550 
f 486 551 487 
f 486 550 551 
f 487 552 488 
f 487 551 552 
f 488 553 489 
f 488 552 553 
f 489 554 490 
f 489 553 554 
f 490 555 491 
f 490 554 555 
f 491 556 492 
f 491 555 556 
f 492 557 493 
f 492 556 557 
f 493 558 494 
f 493 557 558 
f 494 559 495 
f 494 558 559 
f 495 560 496 
f 495 559 560 
f 496 561 497 
f 496 560 561 
f 497 562 498 
f 497 561 562 
f 498 563 499 
f 498 562 563 
f 499 564 500 
f 499 563 564 
f 500 565 501 
f 500 564 565 
f 501 566 502 
f 501 565 566 
f 502 567 503 
f 502 566 567 
f 503 568 504 
f 503 567 568 
f 504 569 505 
f 504 568 569 
f 505 570 506 
f 505 569 570 
f 506 571 507 
f 506 570 571 
f 507 572 508 
f 507 571 572 
f 508 573 509 
f 508 572 573 
f 509 574 510 
f 509 573 574 
f 510 575 511 
f 510 574 575 
f 511 576 512 
f 511 575 576 
f 512 513 449 
f 512 576 513 
f 513 578 514 
f 513 577 578 
f 514 579 515 
f 514 578 579 
f 515 580 516 
f 515 579 580 
f 516 581 517 
f 516 580 581 
f 517 582 518 
f 517 581 582 
f 518 583 519 
f 518 582 583 
f 519 584 520 
f 519 583 584 
f 520 585 521 
f 520 584 585 
f 521 586 522 
f 521 585 586 
f 522 587 523 
f 522 586 587 
f 523 588 524 
f 523 587 588 
f 524 589 525 
f 524 588 589 
f 525 590 526 
f 525 589 590 
f 526 591 527 
f 526 590 591 
f 527 592 528 
f 527 591 592 
f 528 593 529 
f 528 592 593 
f 529 594 530 
f 529 593 594 
f 530 595 531 
f 530 594 595 
f 531 596 532 
f 531 595 596 
f 532 597 533 
f 532 596 597 
f 533 598 534 
f 533 597 598 
f 534 599 535 
f 534 598 599 
f 535 600 536 
f 535 599 600 
f 536 601 537 
f 536 600 601 
f 537 602 538 
f 537 601 602 
f 538 603 539 
f 538 602 603 
f 539 604 540 
f 539 603 604 
f 540 605 541 
f 540 604 605 
f 541 606 542 
f 541 605 606 
f 542 607 543 
f 542 606 607 
f 543 608 544 
f 543 607 608 
f 544 609 545 
f 544 608 609 
f 545 610 546 
f 545 609 610 
f 546 611 547 
f 546 610 611 
f 547 612 548 
f 547 611 612 
f 548 613 549 
f 548 612 613 
f 549 614 550 
f 549 613 614 
f 550 615 551 
f 550 614 615 
f 551 616 552 
f 551 615 616 
f 552 617 553 
f 552 616 617 
f 553 618 554 
f 553 617 618 
f 554 619 555 
f 554 618 619 
f 555 620 556 
f 555 619 620 
f 556 621 557 
f 556 620 621 
f 557 622 558 
f 557 621 622 
f 558 623 559 
f 558 622 623 
f 559 624 560 
f 559 623 624 
f 560 625 561 
f 560 624 625 
f 561 626 562 
f 561 625 626 
f 562 627 563 
f 562 626 627 
f 563 628 564 
f 563 627 628 
f 564 629 565 
f 564 628 629 
f 565 630 566 
f 565 629 630 
f 566 631 567 
f 566 630 631 
f 567 632 568 
f 567 631 632 
f 568 633 569 
f 568 632 633 
f 569 634 570 
f 569 633 634 
f 570 635 571 
f 570 634 635 
f 571 636 572 
f 571 635 636 
f 572 637 573 
f 572 636 637 
f 573 638 574 
f 573 637 638 
f 574 639 575 
f 574 638 639 
f 575 640 576 
f 575 639 640 
f 576 577 513 
f 576 640 577 
