# Branch
v 6.16642 -6.16341 -32.8426
vn -0.947075 -0.305795 -0.0976626
v 6.15712 -6.12527 -32.8516
vn -0.969746 -0.212852 -0.119529
v 6.15165 -6.0863 -32.8601
vn -0.983077 -0.117858 -0.140244
v 6.15007 -6.04686 -32.868
vn -0.986941 -0.0217303 -0.159609
v 6.15238 -6.00733 -32.8753
vn -0.9813 0.0746071 -0.177437
v 6.15857 -5.96809 -32.8819
vn -0.966209 0.170226 -0.193555
v 6.16858 -5.92953 -32.8878
vn -0.941812 0.264206 -0.20781
v 6.18232 -5.89202 -32.8928
vn -0.908346 0.355641 -0.220064
v 6.19964 -5.85591 -32.897
vn -0.866131 0.443651 -0.230198
v 6.22038 -5.82155 -32.9002
vn -0.815575 0.527388 -0.238115
v 6.24435 -5.78927 -32.9025
vn -0.757165 0.606047 -0.243739
v 6.2713 -5.7594 -32.9039
vn -0.691463 0.678869 -0.247015
v 6.30099 -5.7322 -32.9042
vn -0.619101 0.745153 -0.247913
v 6.33313 -5.70795 -32.9036
vn -0.540778 0.804261 -0.246423
v 6.3674 -5.68687 -32.902
vn -0.457246 0.855623 -0.24256
v 6.40348 -5.66918 -32.8995
vn -0.369311 0.898745 -0.236361
v 6.44102 -5.65504 -32.896
vn -0.277819 0.933212 -0.227886
v 6.47966 -5.64458 -32.8916
vn -0.183652 0.958691 -0.217216
v 6.51902 -5.63792 -32.8864
vn -0.0877156 0.974938 -0.204454
v 6.55873 -5.6351 -32.8804
vn 0.00906521 0.981796 -0.189723
v 6.59841 -5.63617 -32.8736
vn 0.105759 0.979198 -0.173165
v 6.63766 -5.6411 -32.8661
vn 0.201434 0.96717 -0.15494
v 6.67612 -5.64986 -32.858
vn 0.295169 0.945828 -0.135222
v 6.71342 -5.66235 -32.8494
vn 0.386061 0.915377 -0.114202
v 6.74919 -5.67847 -32.8403
vn 0.473236 0.87611 -0.0920818
v 6.78308 -5.69804 -32.8309
vn 0.555853 0.828406 -0.069075
v 6.81479 -5.72089 -32.8212
vn 0.633116 0.772724 -0.0454031
v 6.84399 -5.74679 -32.8113
vn 0.704283 0.7096 -0.0212939
v 6.8704 -5.77549 -32.8013
vn 0.768667 0.639642 0.00302035
v 6.89378 -5.80672 -32.7913
vn 0.825648 0.563525 0.0273055
v 6.9139 -5.84018 -32.7815
vn 0.874678 0.48198 0.0513277
v 6.93056 -5.87554 -32.7718
vn 0.915284 0.395793 0.0748556
v 6.9436 -5.91247 -32.7624
vn 0.947075 0.305795 0.0976626
v 6.95291 -5.9506 -32.7535
vn 0.969746 0.212852 0.119529
v 6.95838 -5.98958 -32.745
vn 0.983077 0.117858 0.140244
v 6.95996 -6.02902 -32.737
vn 0.986941 0.0217303 0.159609
v 6.95765 -6.06855 -32.7297
vn 0.9813 -0.0746071 0.177437
v 6.95146 -6.10778 -32.7231
vn 0.966209 -0.170226 0.193555
v 6.94145 -6.14634 -32.7173
vn 0.941812 -0.264206 0.20781
v 6.92771 -6.18386 -32.7122
vn 0.908346 -0.355641 0.220064
v 6.91039 -6.21997 -32.7081
vn 0.866131 -0.443651 0.230198
v 6.88965 -6.25433 -32.7048
vn 0.815575 -0.527388 0.238115
v 6.86568 -6.2866 -32.7025
vn 0.757165 -0.606047 0.243739
v 6.83873 -6.31648 -32.7012
vn 0.691463 -0.678869 0.247015
v 6.80904 -6.34368 -32.7008
vn 0.619101 -0.745153 0.247913
v 6.7769 -6.36793 -32.7014
vn 0.540778 -0.804261 0.246423
v 6.74263 -6.38901 -32.703
vn 0.457246 -0.855623 0.24256
v 6.70654 -6.4067 -32.7055
vn 0.369311 -0.898745 0.236361
v 6.66901 -6.42084 -32.709
vn 0.277819 -0.933212 0.227886
v 6.63037 -6.4313 -32.7134
vn 0.183652 -0.958691 0.217216
v 6.591 -6.43796 -32.7186
vn 0.0877156 -0.974938 0.204454
v 6.5513 -6.44078 -32.7247
vn -0.00906521 -0.981796 0.189723
v 6.51162 -6.43971 -32.7315
vn -0.105759 -0.979198 0.173165
v 6.47237 -6.43477 -32.7389
vn -0.201434 -0.96717 0.15494
v 6.43391 -6.42602 -32.747
vn -0.295169 -0.945828 0.135222
v 6.39661 -6.41352 -32.7557
vn -0.386061 -0.915377 0.114202
v 6.36084 -6.39741 -32.7647
vn -0.473236 -0.87611 0.0920818
v 6.32695 -6.37784 -32.7742
vn -0.555853 -0.828406 0.069075
v 6.29524 -6.35499 -32.7839
vn -0.633116 -0.772724 0.0454031
v 6.26604 -6.32909 -32.7938
vn -0.704283 -0.7096 0.0212939
v 6.23963 -6.30039 -32.8038
vn -0.768667 -0.639642 -0.00302035
v 6.21625 -6.26916 -32.8137
vn -0.825648 -0.563525 -0.0273055
v 6.19613 -6.2357 -32.8236
vn -0.874678 -0.48198 -0.0513277
v 6.17947 -6.20034 -32.8332
vn -0.915284 -0.395793 -0.0748556
v 5.44847 -5.25744 -28.2573
vn -0.947747 -0.304994 -0.0935623
v 5.43998 -5.2226 -28.2655
vn -0.970415 -0.212054 -0.115448
v 5.43498 -5.187 -28.2733
vn -0.983736 -0.117073 -0.136223
v 5.43354 -5.15097 -28.2806
vn -0.987584 -0.0209636 -0.155685
v 5.43566 -5.11488 -28.2873
vn -0.981921 0.0753474 -0.173648
v 5.44133 -5.07905 -28.2934
vn -0.966801 0.170933 -0.189939
v 5.45049 -5.04384 -28.2988
vn -0.942371 0.264872 -0.204401
v 5.46305 -5.00958 -28.3035
vn -0.908865 0.35626 -0.216894
v 5.47889 -4.97661 -28.3074
vn -0.866606 0.444217 -0.227298
v 5.49786 -4.94525 -28.3105
vn -0.816002 0.527897 -0.235513
v 5.51977 -4.91579 -28.3127
vn -0.757538 0.606492 -0.241461
v 5.54442 -4.88852 -28.3141
vn -0.691779 0.679246 -0.245082
v 5.57156 -4.8637 -28.3146
vn -0.619358 0.745459 -0.246344
v 5.60094 -4.84157 -28.3141
vn -0.540973 0.804493 -0.245233
v 5.63228 -4.82235 -28.3128
vn -0.457377 0.855779 -0.24176
v 5.66526 -4.80621 -28.3107
vn -0.369377 0.898824 -0.235959
v 5.69958 -4.79333 -28.3076
vn -0.277819 0.933212 -0.227886
v 5.7349 -4.7838 -28.3038
vn -0.183586 0.958613 -0.217618
v 5.77089 -4.77774 -28.2992
vn -0.0875845 0.974782 -0.205254
v 5.80719 -4.7752 -28.2938
vn 0.00926031 0.981563 -0.190914
v 5.84345 -4.7762 -28.2877
vn 0.106016 0.978891 -0.174734
v 5.87934 -4.78074 -28.281
vn 0.20175 0.966793 -0.156872
v 5.91449 -4.78876 -28.2738
vn 0.295542 0.945383 -0.1375
v 5.94858 -4.8002 -28.266
vn 0.386488 0.914869 -0.116803
v 5.98127 -4.81494 -28.2578
vn 0.473711 0.875544 -0.0949811
v 6.01226 -4.83284 -28.2493
vn 0.556372 0.827787 -0.0722447
v 6.04123 -4.85373 -28.2405
vn 0.633675 0.772058 -0.0488124
v 6.06792 -4.87741 -28.2316
vn 0.704876 0.708893 -0.0249101
v 6.09206 -4.90364 -28.2225
vn 0.769288 0.638902 -0.000767893
v 6.11343 -4.93218 -28.2135
vn 0.826291 0.562758 0.0233817
v 6.13181 -4.96275 -28.2045
vn 0.875337 0.481194 0.0473062
v 6.14704 -4.99506 -28.1957
vn 0.915953 0.394996 0.070775
v 6.15895 -5.0288 -28.1872
vn 0.947747 0.304994 0.0935623
v 6.16745 -5.06363 -28.179
vn 0.970415 0.212054 0.115448
v 6.17244 -5.09924 -28.1712
vn 0.983736 0.117073 0.136223
v 6.17389 -5.13526 -28.1639
vn 0.987584 0.0209636 0.155685
v 6.17176 -5.17136 -28.1571
vn 0.981921 -0.0753474 0.173648
v 6.1661 -5.20719 -28.151
vn 0.966801 -0.170933 0.189939
v 6.15694 -5.2424 -28.1456
vn 0.942371 -0.264872 0.204401
v 6.14438 -5.27665 -28.1409
vn 0.908865 -0.35626 0.216894
v 6.12854 -5.30962 -28.137
vn 0.866606 -0.444217 0.227298
v 6.10957 -5.34099 -28.134
vn 0.816002 -0.527897 0.235513
v 6.08766 -5.37045 -28.1317
vn 0.757538 -0.606492 0.241461
v 6.06301 -5.39772 -28.1304
vn 0.691779 -0.679246 0.245082
v 6.03587 -5.42253 -28.1299
vn 0.619358 -0.745459 0.246344
v 6.00648 -5.44466 -28.1303
vn 0.540973 -0.804493 0.245233
v 5.97515 -5.46389 -28.1316
vn 0.457377 -0.855779 0.24176
v 5.94217 -5.48002 -28.1338
vn 0.369377 -0.898824 0.235959
v 5.90785 -5.49291 -28.1368
vn 0.277819 -0.933212 0.227886
v 5.87253 -5.50243 -28.1407
vn 0.183586 -0.958613 0.217618
v 5.83654 -5.50849 -28.1453
vn 0.0875845 -0.974782 0.205254
v 5.80024 -5.51103 -28.1507
vn -0.00926031 -0.981563 0.190914
v 5.76398 -5.51003 -28.1567
vn -0.106016 -0.978891 0.174734
v 5.72809 -5.5055 -28.1634
vn -0.20175 -0.966793 0.156872
v 5.69294 -5.49747 -28.1707
vn -0.295542 -0.945383 0.1375
v 5.65885 -5.48603 -28.1784
vn -0.386488 -0.914869 0.116803
v 5.62616 -5.47129 -28.1866
vn -0.473711 -0.875544 0.0949811
v 5.59517 -5.45339 -28.1952
vn -0.556372 -0.827787 0.0722447
v 5.5662 -5.4325 -28.2039
vn -0.633675 -0.772058 0.0488124
v 5.53951 -5.40883 -28.2129
vn -0.704876 -0.708893 0.0249101
v 5.51537 -5.38259 -28.2219
vn -0.769288 -0.638902 0.000767893
v 5.494 -5.35405 -28.231
vn -0.826291 -0.562758 -0.0233817
v 5.47562 -5.32348 -28.24
vn -0.875337 -0.481194 -0.0473062
v 5.46039 -5.29117 -28.2488
vn -0.915953 -0.394996 -0.070775
v 4.83719 -4.44991 -24.2052
vn -0.948585 -0.303957 -0.0882978
v 4.82949 -4.41837 -24.2126
vn -0.971248 -0.211023 -0.110209
v 4.82498 -4.38614 -24.2197
vn -0.984558 -0.116056 -0.131059
v 4.82368 -4.35354 -24.2263
vn -0.988386 -0.019972 -0.150647
v 4.82561 -4.32087 -24.2325
vn -0.982695 0.0763047 -0.168785
v 4.83075 -4.28845 -24.2381
vn -0.96754 0.171847 -0.185296
v 4.83906 -4.25659 -24.2431
vn -0.943068 0.265733 -0.200024
v 4.85044 -4.22559 -24.2474
vn -0.909513 0.357061 -0.212824
v 4.8648 -4.19577 -24.2511
vn -0.867199 0.44495 -0.223576
v 4.882 -4.1674 -24.254
vn -0.816533 0.528554 -0.232174
v 4.90186 -4.14076 -24.2562
vn -0.758004 0.607068 -0.238536
v 4.9242 -4.1161 -24.2575
vn -0.692174 0.679735 -0.242601
v 4.9488 -4.09366 -24.2581
vn -0.619679 0.745856 -0.244329
v 4.97542 -4.07366 -24.2579
vn -0.541216 0.804794 -0.243705
v 5.00382 -4.05629 -24.2569
vn -0.457541 0.855981 -0.240733
v 5.03371 -4.04171 -24.2551
vn -0.369459 0.898925 -0.235443
v 5.06481 -4.03008 -24.2525
vn -0.277819 0.933212 -0.227886
v 5.09681 -4.02149 -24.2492
vn -0.183504 0.958511 -0.218134
v 5.12942 -4.01604 -24.2452
vn -0.0874211 0.97458 -0.206281
v 5.16231 -4.01377 -24.2405
vn 0.00950345 0.981262 -0.192442
v 5.19517 -4.01471 -24.2352
vn 0.106336 0.978495 -0.176749
v 5.22768 -4.01885 -24.2293
vn 0.202145 0.966304 -0.159354
v 5.25953 -4.02614 -24.2229
vn 0.296007 0.944807 -0.140425
v 5.29042 -4.03653 -24.216
vn 0.387019 0.914211 -0.120143
v 5.32004 -4.0499 -24.2087
vn 0.474303 0.874811 -0.0987037
v 5.34811 -4.06613 -24.2011
vn 0.55702 0.826986 -0.0763142
v 5.37436 -4.08506 -24.1933
vn 0.634372 0.771196 -0.0531897
v 5.39853 -4.10651 -24.1852
vn 0.705614 0.70798 -0.029553
v 5.4204 -4.13028 -24.1771
vn 0.770061 0.637945 -0.00563166
v 5.43975 -4.15613 -24.169
vn 0.827093 0.561766 0.0183439
v 5.4564 -4.18381 -24.1609
vn 0.876158 0.480178 0.0421428
v 5.47019 -4.21307 -24.153
vn 0.916786 0.393965 0.0655359
v 5.48098 -4.24361 -24.1452
vn 0.948585 0.303957 0.0882978
v 5.48867 -4.27515 -24.1378
vn 0.971248 0.211023 0.110209
v 5.49319 -4.30738 -24.1307
vn 0.984558 0.116056 0.131059
v 5.49449 -4.33998 -24.1241
vn 0.988386 0.019972 0.150647
v 5.49256 -4.37266 -24.1179
vn 0.982695 -0.0763047 0.168785
v 5.48741 -4.40508 -24.1123
vn 0.96754 -0.171847 0.185296
v 5.47911 -4.43694 -24.1073
vn 0.943068 -0.265733 0.200024
v 5.46772 -4.46793 -24.103
vn 0.909513 -0.357061 0.212824
v 5.45336 -4.49775 -24.0993
vn 0.867199 -0.44495 0.223576
v 5.43617 -4.52612 -24.0964
vn 0.816533 -0.528554 0.232174
v 5.41631 -4.55277 -24.0943
vn 0.758004 -0.607068 0.238536
v 5.39397 -4.57743 -24.0929
vn 0.692174 -0.679735 0.242601
v 5.36937 -4.59986 -24.0923
vn 0.619679 -0.745856 0.244329
v 5.34274 -4.61987 -24.0925
vn 0.541216 -0.804794 0.243705
v 5.31435 -4.63724 -24.0935
vn 0.457541 -0.855981 0.240733
v 5.28446 -4.65181 -24.0953
vn 0.369459 -0.898925 0.235443
v 5.25336 -4.66344 -24.0979
vn 0.277819 -0.933212 0.227886
v 5.22136 -4.67203 -24.1012
vn 0.183504 -0.958511 0.218134
v 5.18875 -4.67748 -24.1052
vn 0.0874211 -0.97458 0.206281
v 5.15586 -4.67975 -24.1099
vn -0.00950345 -0.981262 0.192442
v 5.123 -4.67881 -24.1152
vn -0.106336 -0.978495 0.176749
v 5.09049 -4.67467 -24.1211
vn -0.202145 -0.966304 0.159354
v 5.05863 -4.66738 -24.1276
vn -0.296007 -0.944807 0.140425
v 5.02775 -4.657 -24.1344
vn -0.387019 -0.914211 0.120143
v 4.99813 -4.64363 -24.1417
vn -0.474303 -0.874811 0.0987037
v 4.97006 -4.6274 -24.1493
vn -0.55702 -0.826986 0.0763142
v 4.94381 -4.60846 -24.1572
vn -0.634372 -0.771196 0.0531897
v 4.91964 -4.58701 -24.1652
vn -0.705614 -0.70798 0.029553
v 4.89777 -4.56325 -24.1733
vn -0.770061 -0.637945 0.00563166
v 4.87841 -4.53739 -24.1814
vn -0.827093 -0.561766 -0.0183439
v 4.86176 -4.50971 -24.1895
vn -0.876158 -0.480178 -0.0421428
v 4.84798 -4.48045 -24.1974
vn -0.916786 -0.393965 -0.0655359
v 4.33256 -3.74081 -20.6862
vn -0.949656 -0.302565 -0.0812921
v 4.32567 -3.71257 -20.6928
vn -0.972314 -0.209638 -0.103237
v 4.32163 -3.68372 -20.6992
vn -0.985608 -0.114691 -0.124188
v 4.32048 -3.65454 -20.7052
vn -0.98941 -0.0186399 -0.143943
v 4.32222 -3.62529 -20.7108
vn -0.983684 0.0775907 -0.162312
v 4.32683 -3.59628 -20.7159
vn -0.968484 0.173074 -0.179118
v 4.33429 -3.56777 -20.7205
vn -0.943958 0.266891 -0.194199
v 4.3445 -3.54005 -20.7245
vn -0.91034 0.358137 -0.207409
v 4.35738 -3.51337 -20.7279
vn -0.867956 0.445934 -0.218622
v 4.3728 -3.48799 -20.7307
vn -0.817212 0.529437 -0.227729
v 4.39061 -3.46417 -20.7328
vn -0.758598 0.607841 -0.234644
v 4.41064 -3.44212 -20.7342
vn -0.692679 0.680391 -0.239298
v 4.4327 -3.42207 -20.7349
vn -0.620089 0.746389 -0.241648
v 4.45657 -3.4042 -20.7349
vn -0.541527 0.805198 -0.241671
v 4.48203 -3.38868 -20.7342
vn -0.457749 0.856253 -0.239366
v 4.50883 -3.37568 -20.7328
vn -0.369564 0.899062 -0.234757
v 4.5367 -3.3653 -20.7307
vn -0.277819 0.933212 -0.227886
v 4.5654 -3.35765 -20.7279
vn -0.183399 0.958375 -0.218821
v 4.59462 -3.35281 -20.7246
vn -0.0872122 0.974308 -0.207648
v 4.62411 -3.35082 -20.7205
vn 0.00981425 0.980858 -0.194475
v 4.65356 -3.3517 -20.716
vn 0.106746 0.977962 -0.17943
v 4.6827 -3.35544 -20.7109
vn 0.20265 0.965648 -0.162657
v 4.71125 -3.36201 -20.7053
vn 0.296602 0.944034 -0.144317
v 4.73893 -3.37134 -20.6993
vn 0.387698 0.913328 -0.124587
v 4.76548 -3.38334 -20.693
vn 0.47506 0.873827 -0.103657
v 4.79064 -3.3979 -20.6863
vn 0.557847 0.82591 -0.0817296
v 4.81416 -3.41488 -20.6794
vn 0.635262 0.770039 -0.0590147
v 4.83582 -3.43411 -20.6723
vn 0.706558 0.706752 -0.0357314
v 4.85542 -3.45541 -20.6651
vn 0.771051 0.636659 -0.0121041
v 4.87276 -3.47857 -20.6579
vn 0.828117 0.560434 0.0116399
v 4.88768 -3.50338 -20.6507
vn 0.877208 0.478812 0.0352718
v 4.90003 -3.52958 -20.6437
vn 0.917852 0.392579 0.0585639
v 4.90969 -3.55693 -20.6368
vn 0.949656 0.302565 0.0812921
v 4.91658 -3.58517 -20.6301
vn 0.972314 0.209638 0.103237
v 4.92062 -3.61402 -20.6237
vn 0.985608 0.114691 0.124188
v 4.92177 -3.64321 -20.6177
vn 0.98941 0.0186399 0.143943
v 4.92003 -3.67245 -20.6121
vn 0.983684 -0.0775907 0.162312
v 4.91541 -3.70146 -20.607
vn 0.968484 -0.173074 0.179118
v 4.90796 -3.72997 -20.6024
vn 0.943958 -0.266891 0.194199
v 4.89775 -3.7577 -20.5984
vn 0.91034 -0.358137 0.207409
v 4.88487 -3.78438 -20.595
vn 0.867956 -0.445934 0.218622
v 4.86945 -3.80975 -20.5923
vn 0.817212 -0.529437 0.227729
v 4.85164 -3.83357 -20.5902
vn 0.758598 -0.607841 0.234644
v 4.83161 -3.85562 -20.5887
vn 0.692679 -0.680391 0.239298
v 4.80955 -3.87567 -20.588
vn 0.620089 -0.746389 0.241648
v 4.78568 -3.89354 -20.588
vn 0.541527 -0.805198 0.241671
v 4.76022 -3.90906 -20.5887
vn 0.457749 -0.856253 0.239366
v 4.73342 -3.92207 -20.5901
vn 0.369564 -0.899062 0.234757
v 4.70554 -3.93244 -20.5922
vn 0.277819 -0.933212 0.227886
v 4.67685 -3.94009 -20.595
vn 0.183399 -0.958375 0.218821
v 4.64763 -3.94493 -20.5984
vn 0.0872122 -0.974308 0.207648
v 4.61814 -3.94692 -20.6024
vn -0.00981425 -0.980858 0.194475
v 4.58869 -3.94604 -20.6069
vn -0.106746 -0.977962 0.17943
v 4.55955 -3.9423 -20.612
vn -0.20265 -0.965648 0.162657
v 4.531 -3.93573 -20.6176
vn -0.296602 -0.944034 0.144317
v 4.50332 -3.9264 -20.6236
vn -0.387698 -0.913328 0.124587
v 4.47677 -3.9144 -20.63
vn -0.47506 -0.873827 0.103657
v 4.45161 -3.89984 -20.6366
vn -0.557847 -0.82591 0.0817296
v 4.42809 -3.88286 -20.6435
vn -0.635262 -0.770039 0.0590147
v 4.40642 -3.86363 -20.6506
vn -0.706558 -0.706752 0.0357314
v 4.38683 -3.84233 -20.6578
vn -0.771051 -0.636659 0.0121041
v 4.36949 -3.81917 -20.665
vn -0.828117 -0.560434 -0.0116399
v 4.35457 -3.79437 -20.6722
vn -0.877208 -0.478812 -0.0352718
v 4.34222 -3.76816 -20.6792
vn -0.917852 -0.392579 -0.0585639
v 3.93458 -3.13012 -17.7002
vn -0.951066 -0.300597 -0.0715122
v 3.9285 -3.10518 -17.7061
vn -0.973718 -0.207679 -0.0935046
v 3.92494 -3.07971 -17.7117
vn -0.986992 -0.112761 -0.114596
v 3.92393 -3.05394 -17.7171
vn -0.99076 -0.0167565 -0.134585
v 3.92548 -3.02813 -17.7221
vn -0.984988 0.0794091 -0.153277
v 3.92957 -3.00253 -17.7267
vn -0.969729 0.17481 -0.170493
v 3.93617 -2.97738 -17.7309
vn -0.945131 0.268527 -0.186067
v 3.94522 -2.95292 -17.7346
vn -0.911431 0.359659 -0.199849
v 3.95662 -2.92939 -17.7378
vn -0.868953 0.447326 -0.211706
v 3.97027 -2.90702 -17.7404
vn -0.818107 0.530686 -0.221525
v 3.98603 -2.88602 -17.7425
vn -0.759382 0.608935 -0.22921
v 4.00375 -2.86659 -17.744
vn -0.693344 0.681319 -0.234688
v 4.02327 -2.84892 -17.7448
vn -0.620629 0.747142 -0.237906
v 4.04439 -2.83319 -17.7451
vn -0.541936 0.805769 -0.238832
v 4.06691 -2.81954 -17.7447
vn -0.458025 0.856637 -0.237458
v 4.09061 -2.8081 -17.7437
vn -0.369702 0.899255 -0.233798
v 4.11527 -2.79898 -17.7421
vn -0.277819 0.933212 -0.227886
v 4.14065 -2.79228 -17.74
vn -0.18326 0.958182 -0.219779
v 4.1665 -2.78806 -17.7372
vn -0.0869369 0.973924 -0.209556
v 4.19258 -2.78635 -17.7339
vn 0.0102238 0.980287 -0.197314
v 4.21863 -2.78718 -17.7301
vn 0.107286 0.977209 -0.183173
v 4.2444 -2.79053 -17.7259
vn 0.203315 0.96472 -0.167267
v 4.26965 -2.79637 -17.7212
vn 0.297386 0.94294 -0.14975
v 4.29413 -2.80466 -17.7161
vn 0.388593 0.912079 -0.130791
v 4.3176 -2.8153 -17.7106
vn 0.476058 0.872435 -0.110573
v 4.33985 -2.82819 -17.7049
vn 0.558938 0.824388 -0.0892896
v 4.36065 -2.84322 -17.699
vn 0.636435 0.768402 -0.0671464
v 4.3798 -2.86023 -17.6929
vn 0.707803 0.705016 -0.0443565
v 4.39712 -2.87906 -17.6866
vn 0.772354 0.63484 -0.0211395
v 4.41245 -2.89954 -17.6804
vn 0.829467 0.558551 0.00228112
v 4.42564 -2.92146 -17.6741
vn 0.878592 0.476882 0.0256798
v 4.43655 -2.94461 -17.6679
vn 0.919256 0.390621 0.0488311
v 4.44509 -2.96877 -17.6618
vn 0.951066 0.300597 0.0715122
v 4.45117 -2.99371 -17.6559
vn 0.973718 0.207679 0.0935046
v 4.45473 -3.01918 -17.6502
vn 0.986992 0.112761 0.114596
v 4.45574 -3.04495 -17.6448
vn 0.99076 0.0167565 0.134585
v 4.45419 -3.07076 -17.6398
vn 0.984988 -0.0794091 0.153277
v 4.4501 -3.09636 -17.6352
vn 0.969729 -0.17481 0.170493
v 4.4435 -3.12152 -17.631
vn 0.945131 -0.268527 0.186067
v 4.43445 -3.14597 -17.6273
vn 0.911431 -0.359659 0.199849
v 4.42305 -3.1695 -17.6241
vn 0.868953 -0.447326 0.211706
v 4.4094 -3.19188 -17.6215
vn 0.818107 -0.530686 0.221525
v 4.39364 -3.21288 -17.6195
vn 0.759382 -0.608935 0.22921
v 4.37592 -3.2323 -17.618
vn 0.693344 -0.681319 0.234688
v 4.3564 -3.24997 -17.6171
vn 0.620629 -0.747142 0.237906
v 4.33528 -3.2657 -17.6169
vn 0.541936 -0.805769 0.238832
v 4.31276 -3.27936 -17.6172
vn 0.458025 -0.856637 0.237458
v 4.28906 -3.29079 -17.6182
vn 0.369702 -0.899255 0.233798
v 4.2644 -3.29991 -17.6198
vn 0.277819 -0.933212 0.227886
v 4.23902 -3.30661 -17.622
vn 0.18326 -0.958182 0.219779
v 4.21317 -3.31083 -17.6247
vn 0.0869369 -0.973924 0.209556
v 4.18709 -3.31254 -17.628
vn -0.0102238 -0.980287 0.197314
v 4.16104 -3.31172 -17.6318
vn -0.107286 -0.977209 0.183173
v 4.13527 -3.30836 -17.6361
vn -0.203315 -0.96472 0.167267
v 4.11002 -3.30252 -17.6408
vn -0.297386 -0.94294 0.14975
v 4.08554 -3.29424 -17.6459
vn -0.388593 -0.912079 0.130791
v 4.06207 -3.2836 -17.6513
vn -0.476058 -0.872435 0.110573
v 4.03982 -3.2707 -17.657
vn -0.558938 -0.824388 0.0892896
v 4.01902 -3.25568 -17.6629
vn -0.636435 -0.768402 0.0671464
v 3.99987 -3.23866 -17.6691
vn -0.707803 -0.705016 0.0443565
v 3.98255 -3.21983 -17.6753
vn -0.772354 -0.63484 0.0211395
v 3.96722 -3.19935 -17.6816
vn -0.829467 -0.558551 -0.00228112
v 3.95403 -3.17744 -17.6879
vn -0.878592 -0.476882 -0.0256798
v 3.94312 -3.15428 -17.6941
vn -0.919256 -0.390621 -0.0488311
v 3.64326 -2.6178 -15.247
vn -0.952992 -0.297604 -0.0569094
v 3.63798 -2.59616 -15.2521
vn -0.975634 -0.204701 -0.0789721
v 3.6349 -2.57407 -15.2571
vn -0.98888 -0.109825 -0.100274
v 3.63403 -2.55172 -15.2618
vn -0.992603 -0.0138925 -0.120611
v 3.63539 -2.52935 -15.2663
vn -0.986766 0.0821741 -0.139786
v 3.63896 -2.50716 -15.2705
vn -0.971427 0.177449 -0.157614
v 3.64472 -2.48537 -15.2743
vn -0.946732 0.271016 -0.173925
v 3.65259 -2.46418 -15.2777
vn -0.912919 0.361972 -0.188561
v 3.66251 -2.44381 -15.2807
vn -0.870315 0.449442 -0.201381
v 3.67439 -2.42445 -15.2832
vn -0.819328 0.532584 -0.212261
v 3.6881 -2.40628 -15.2852
vn -0.760452 0.610597 -0.221097
v 3.70352 -2.38948 -15.2868
vn -0.694252 0.68273 -0.227804
v 3.7205 -2.37421 -15.2879
vn -0.621365 0.748287 -0.232317
v 3.73887 -2.36062 -15.2884
vn -0.542495 0.806638 -0.234593
v 3.75845 -2.34884 -15.2884
vn -0.4584 0.857221 -0.23461
v 3.77907 -2.33898 -15.2879
vn -0.369891 0.899548 -0.232367
v 3.80051 -2.33114 -15.2868
vn -0.277819 0.933212 -0.227886
v 3.82258 -2.32539 -15.2853
vn -0.183072 0.957889 -0.22121
v 3.84506 -2.32179 -15.2832
vn -0.0865614 0.97334 -0.212405
v 3.86773 -2.32037 -15.2807
vn 0.0107826 0.979418 -0.201553
v 3.89038 -2.32116 -15.2777
vn 0.108023 0.976064 -0.188761
v 3.91278 -2.32413 -15.2743
vn 0.204223 0.963309 -0.174151
v 3.93473 -2.32926 -15.2705
vn 0.298456 0.941278 -0.157863
v 3.95601 -2.3365 -15.2664
vn 0.389814 0.910181 -0.140055
v 3.97641 -2.34578 -15.2619
vn 0.477419 0.870319 -0.120899
v 3.99574 -2.35702 -15.2572
vn 0.560426 0.822075 -0.100578
v 4.01382 -2.3701 -15.2522
vn 0.638036 0.765914 -0.0792882
v 4.03046 -2.3849 -15.2471
vn 0.709501 0.702377 -0.0572351
v 4.04552 -2.40127 -15.2418
vn 0.774133 0.632075 -0.0346308
v 4.05883 -2.41906 -15.2365
vn 0.831309 0.555687 -0.0116929
v 4.07029 -2.4381 -15.2311
vn 0.88048 0.473947 0.0113575
v 4.07976 -2.4582 -15.2258
vn 0.921172 0.387642 0.0342986
v 4.08717 -2.47917 -15.2205
vn 0.952992 0.297604 0.0569094
v 4.09245 -2.50081 -15.2154
vn 0.975634 0.204701 0.0789721
v 4.09553 -2.52291 -15.2104
vn 0.98888 0.109825 0.100274
v 4.0964 -2.54525 -15.2057
vn 0.992603 0.0138925 0.120611
v 4.09504 -2.56763 -15.2012
vn 0.986766 -0.0821741 0.139786
v 4.09147 -2.58982 -15.197
vn 0.971427 -0.177449 0.157614
v 4.08572 -2.61161 -15.1932
vn 0.946732 -0.271016 0.173925
v 4.07784 -2.63279 -15.1898
vn 0.912919 -0.361972 0.188561
v 4.06792 -2.65317 -15.1868
vn 0.870315 -0.449442 0.201381
v 4.05604 -2.67253 -15.1843
vn 0.819328 -0.532584 0.212261
v 4.04233 -2.6907 -15.1823
vn 0.760452 -0.610597 0.221097
v 4.02691 -2.7075 -15.1807
vn 0.694252 -0.68273 0.227804
v 4.00994 -2.72277 -15.1796
vn 0.621365 -0.748287 0.232317
v 3.99157 -2.73636 -15.1791
vn 0.542495 -0.806638 0.234593
v 3.97198 -2.74814 -15.1791
vn 0.4584 -0.857221 0.23461
v 3.95137 -2.758 -15.1796
vn 0.369891 -0.899548 0.232367
v 3.92992 -2.76584 -15.1807
vn 0.277819 -0.933212 0.227886
v 3.90785 -2.77159 -15.1822
vn 0.183072 -0.957889 0.22121
v 3.88538 -2.77519 -15.1843
vn 0.0865614 -0.97334 0.212405
v 3.8627 -2.7766 -15.1868
vn -0.0107826 -0.979418 0.201553
v 3.84006 -2.77582 -15.1898
vn -0.108023 -0.976064 0.188761
v 3.81765 -2.77285 -15.1932
vn -0.204223 -0.963309 0.174151
v 3.7957 -2.76772 -15.197
vn -0.298456 -0.941278 0.157863
v 3.77443 -2.76048 -15.2011
vn -0.389814 -0.910181 0.140055
v 3.75402 -2.75119 -15.2056
vn -0.477419 -0.870319 0.120899
v 3.73469 -2.73995 -15.2103
vn -0.560426 -0.822075 0.100578
v 3.71661 -2.72687 -15.2153
vn -0.638036 -0.765914 0.0792882
v 3.69997 -2.71208 -15.2204
vn -0.709501 -0.702377 0.0572351
v 3.68492 -2.6957 -15.2257
vn -0.774133 -0.632075 0.0346308
v 3.6716 -2.67791 -15.231
vn -0.831309 -0.555687 0.0116929
v 3.66015 -2.65887 -15.2364
vn -0.88048 -0.473947 -0.0113575
v 3.65067 -2.63877 -15.2417
vn -0.921172 -0.387642 -0.0342986
v 3.45859 -2.20375 -13.3263
vn -0.955699 -0.292516 -0.0327724
v 3.45412 -2.18541 -13.3307
vn -0.978328 -0.199637 -0.0549513
v 3.45151 -2.16669 -13.3349
vn -0.991535 -0.104835 -0.0766011
v 3.45079 -2.14778 -13.3391
vn -0.995193 -0.00902346 -0.097513
v 3.45196 -2.12884 -13.343
vn -0.989267 0.086875 -0.117486
v 3.45501 -2.11008 -13.3467
vn -0.973814 0.181937 -0.136327
v 3.45991 -2.09165 -13.3502
vn -0.948982 0.275246 -0.153856
v 3.46662 -2.07376 -13.3533
vn -0.915012 0.365905 -0.169903
v 3.47507 -2.05655 -13.3562
vn -0.872229 0.45304 -0.184313
v 3.48517 -2.04021 -13.3587
vn -0.821046 0.535812 -0.196949
v 3.49684 -2.02489 -13.3608
vn -0.761956 0.613424 -0.207688
v 3.50995 -2.01073 -13.3625
vn -0.695528 0.685128 -0.216426
v 3.52439 -1.99788 -13.3638
vn -0.622401 0.750234 -0.223081
v 3.54001 -1.98645 -13.3647
vn -0.543281 0.808115 -0.227587
v 3.55666 -1.97656 -13.3652
vn -0.458928 0.858213 -0.229901
v 3.57419 -1.9683 -13.3652
vn -0.370156 0.900047 -0.230001
v 3.59242 -1.96175 -13.3648
vn -0.277819 0.933212 -0.227886
v 3.61118 -1.95698 -13.3639
vn -0.182806 0.95739 -0.223576
v 3.63028 -1.95403 -13.3627
vn -0.0860332 0.972348 -0.217114
v 3.64955 -1.95292 -13.361
vn 0.0115685 0.977941 -0.20856
v 3.6688 -1.95368 -13.3589
vn 0.109059 0.974117 -0.197998
v 3.68784 -1.95628 -13.3564
vn 0.205499 0.960911 -0.185529
v 3.70649 -1.96072 -13.3536
vn 0.29996 0.938451 -0.171273
v 3.72457 -1.96694 -13.3505
vn 0.391532 0.906953 -0.155368
v 3.7419 -1.97488 -13.347
vn 0.479333 0.866721 -0.137966
v 3.75832 -1.98447 -13.3433
vn 0.562519 0.818142 -0.119236
v 3.77368 -1.99562 -13.3394
vn 0.640287 0.761683 -0.0993573
v 3.78781 -2.00821 -13.3353
vn 0.711888 0.697889 -0.078522
v 3.8006 -2.02213 -13.331
vn 0.776634 0.627375 -0.0569304
v 3.8119 -2.03725 -13.3267
vn 0.8339 0.550818 -0.0347905
v 3.82162 -2.05341 -13.3222
vn 0.883136 0.468956 -0.0123156
v 3.82966 -2.07046 -13.3178
vn 0.923866 0.382578 0.0102779
v 3.83595 -2.08824 -13.3133
vn 0.955699 0.292516 0.0327724
v 3.84042 -2.10658 -13.309
vn 0.978328 0.199637 0.0549513
v 3.84302 -2.1253 -13.3047
vn 0.991535 0.104835 0.0766011
v 3.84375 -2.14421 -13.3006
vn 0.995193 0.00902346 0.097513
v 3.84258 -2.16315 -13.2966
vn 0.989267 -0.086875 0.117486
v 3.83952 -2.18191 -13.2929
vn 0.973814 -0.181937 0.136327
v 3.83462 -2.20034 -13.2894
vn 0.948982 -0.275246 0.153856
v 3.82792 -2.21823 -13.2863
vn 0.915012 -0.365905 0.169903
v 3.81947 -2.23544 -13.2834
vn 0.872229 -0.45304 0.184313
v 3.80936 -2.25178 -13.2809
vn 0.821046 -0.535812 0.196949
v 3.7977 -2.2671 -13.2788
vn 0.761956 -0.613424 0.207688
v 3.78458 -2.28126 -13.2771
vn 0.695528 -0.685128 0.216426
v 3.77015 -2.29411 -13.2758
vn 0.622401 -0.750234 0.223081
v 3.75453 -2.30554 -13.2749
vn 0.543281 -0.808115 0.227587
v 3.73787 -2.31543 -13.2744
vn 0.458928 -0.858213 0.229901
v 3.72035 -2.32369 -13.2744
vn 0.370156 -0.900047 0.230001
v 3.70212 -2.33024 -13.2748
vn 0.277819 -0.933212 0.227886
v 3.68336 -2.33501 -13.2757
vn 0.182806 -0.95739 0.223576
v 3.66425 -2.33796 -13.2769
vn 0.0860332 -0.972348 0.217114
v 3.64498 -2.33907 -13.2786
vn -0.0115685 -0.977941 0.20856
v 3.62574 -2.33831 -13.2807
vn -0.109059 -0.974117 0.197998
v 3.6067 -2.33571 -13.2832
vn -0.205499 -0.960911 0.185529
v 3.58805 -2.33127 -13.286
vn -0.29996 -0.938451 0.171273
v 3.56997 -2.32505 -13.2891
vn -0.391532 -0.906953 0.155368
v 3.55263 -2.31711 -13.2926
vn -0.479333 -0.866721 0.137966
v 3.53621 -2.30752 -13.2963
vn -0.562519 -0.818142 0.119236
v 3.52086 -2.29637 -13.3002
vn -0.640287 -0.761683 0.0993573
v 3.50672 -2.28378 -13.3043
vn -0.711888 -0.697889 0.078522
v 3.49394 -2.26986 -13.3086
vn -0.776634 -0.627375 0.0569304
v 3.48263 -2.25474 -13.3129
vn -0.8339 -0.550818 0.0347905
v 3.47291 -2.23858 -13.3174
vn -0.883136 -0.468956 0.0123156
v 3.46487 -2.22153 -13.3218
vn -0.923866 -0.382578 -0.0102779
v 3.38063 -1.88764 -11.9368
vn -0.959298 -0.282018 0.0146063
v 3.37697 -1.87261 -11.9404
vn -0.98191 -0.189189 -0.00780073
v 3.37484 -1.85728 -11.944
vn -0.995065 -0.0945385 -0.0301327
v 3.37426 -1.8418 -11.9476
vn -0.998637 0.0010227 -0.0521744
v 3.37524 -1.82633 -11.9511
vn -0.992592 0.0965741 -0.0737137
v 3.37777 -1.811 -11.9544
vn -0.976988 0.191195 -0.094543
v 3.38182 -1.79598 -11.9577
vn -0.951975 0.283975 -0.114462
v 3.38735 -1.7814 -11.9607
vn -0.917794 0.374021 -0.133278
v 3.39432 -1.7674 -11.9636
vn -0.874774 0.460464 -0.150811
v 3.40265 -1.75412 -11.9662
vn -0.823329 0.542472 -0.166892
v 3.41227 -1.74168 -11.9685
vn -0.763955 0.619257 -0.181365
v 3.42308 -1.73021 -11.9706
vn -0.697224 0.690077 -0.194092
v 3.43497 -1.71982 -11.9723
vn -0.623779 0.754252 -0.20495
v 3.44784 -1.7106 -11.9738
vn -0.544326 0.811163 -0.213833
v 3.46155 -1.70265 -11.9749
vn -0.459631 0.860262 -0.220658
v 3.47599 -1.69604 -11.9756
vn -0.370509 0.901076 -0.225357
v 3.491 -1.69084 -11.976
vn -0.277819 0.933212 -0.227886
v 3.50644 -1.68709 -11.9761
vn -0.182454 0.956361 -0.22822
v 3.52217 -1.68483 -11.9758
vn -0.0853311 0.9703 -0.226357
v 3.53803 -1.68409 -11.9751
vn 0.0126133 0.974894 -0.222313
v 3.55387 -1.68486 -11.9741
vn 0.110436 0.970099 -0.216129
v 3.56954 -1.68715 -11.9728
vn 0.207195 0.955962 -0.207863
v 3.58489 -1.69093 -11.9711
vn 0.301959 0.932618 -0.197595
v 3.59977 -1.69617 -11.9692
vn 0.393815 0.900293 -0.185424
v 3.61403 -1.70281 -11.9669
vn 0.481878 0.859297 -0.171468
v 3.62754 -1.71079 -11.9644
vn 0.565301 0.810026 -0.15586
v 3.64017 -1.72003 -11.9616
vn 0.643279 0.752954 -0.138751
v 3.65179 -1.73045 -11.9586
vn 0.715062 0.688631 -0.120306
v 3.6623 -1.74194 -11.9554
vn 0.779959 0.617675 -0.100703
v 3.6716 -1.75439 -11.9521
vn 0.837344 0.540772 -0.0801292
v 3.67958 -1.76769 -11.9486
vn 0.886665 0.45866 -0.058784
v 3.68619 -1.7817 -11.9451
vn 0.927448 0.372131 -0.0368727
v 3.69135 -1.7963 -11.9415
vn 0.959298 0.282018 -0.0146063
v 3.69501 -1.81133 -11.9379
vn 0.98191 0.189189 0.00780073
v 3.69714 -1.82666 -11.9342
vn 0.995065 0.0945385 0.0301327
v 3.69772 -1.84213 -11.9307
vn 0.998637 -0.0010227 0.0521744
v 3.69674 -1.85761 -11.9272
vn 0.992592 -0.0965741 0.0737137
v 3.69421 -1.87293 -11.9238
vn 0.976988 -0.191195 0.094543
v 3.69016 -1.88796 -11.9206
vn 0.951975 -0.283975 0.114462
v 3.68462 -1.90254 -11.9175
vn 0.917794 -0.374021 0.133278
v 3.67766 -1.91654 -11.9147
vn 0.874774 -0.460464 0.150811
v 3.66933 -1.92982 -11.9121
vn 0.823329 -0.542472 0.166892
v 3.65971 -1.94225 -11.9098
vn 0.763955 -0.619257 0.181365
v 3.6489 -1.95372 -11.9077
vn 0.697224 -0.690077 0.194092
v 3.63701 -1.96412 -11.9059
vn 0.623779 -0.754252 0.20495
v 3.62414 -1.97333 -11.9045
vn 0.544326 -0.811163 0.213833
v 3.61043 -1.98129 -11.9034
vn 0.459631 -0.860262 0.220658
v 3.59599 -1.98789 -11.9026
vn 0.370509 -0.901076 0.225357
v 3.58098 -1.9931 -11.9022
vn 0.277819 -0.933212 0.227886
v 3.56554 -1.99685 -11.9022
vn 0.182454 -0.956361 0.22822
v 3.54981 -1.99911 -11.9025
vn 0.0853311 -0.9703 0.226357
v 3.53395 -1.99985 -11.9031
vn -0.0126133 -0.974894 0.222313
v 3.5181 -1.99907 -11.9041
vn -0.110436 -0.970099 0.216129
v 3.50243 -1.99678 -11.9055
vn -0.207195 -0.955962 0.207863
v 3.48709 -1.993 -11.9071
vn -0.301959 -0.932618 0.197595
v 3.47221 -1.98777 -11.9091
vn -0.393815 -0.900293 0.185424
v 3.45795 -1.98113 -11.9114
vn -0.481878 -0.859297 0.171468
v 3.44444 -1.97315 -11.9139
vn -0.565301 -0.810026 0.15586
v 3.43181 -1.96391 -11.9167
vn -0.643279 -0.752954 0.138751
v 3.42019 -1.95349 -11.9196
vn -0.715062 -0.688631 0.120306
v 3.40968 -1.942 -11.9228
vn -0.779959 -0.617675 0.100703
v 3.40038 -1.92954 -11.9262
vn -0.837344 -0.540772 0.0801292
v 3.3924 -1.91625 -11.9296
vn -0.886665 -0.45866 0.058784
v 3.38579 -1.90223 -11.9332
vn -0.927448 -0.372131 0.0368727
v 3.41032 -1.6679 -11.0731
vn -0.957233 -0.248992 0.147334
v 3.40746 -1.65618 -11.076
vn -0.979855 -0.156322 0.124288
v 3.40579 -1.64427 -11.0791
vn -0.99304 -0.0621469 0.100045
v 3.40534 -1.63228 -11.0823
vn -0.996662 0.0326268 0.0748385
v 3.40609 -1.62033 -11.0855
vn -0.990685 0.127086 0.0489112
v 3.40805 -1.60854 -11.0889
vn -0.975167 0.220322 0.0225128
v 3.4112 -1.59702 -11.0922
vn -0.950258 0.311436 -0.00410247
v 3.41551 -1.58588 -11.0956
vn -0.916198 0.39955 -0.0306782
v 3.42094 -1.57522 -11.0989
vn -0.873314 0.483817 -0.0569584
v 3.42742 -1.56515 -11.1022
vn -0.822019 0.563424 -0.0826902
v 3.43491 -1.55577 -11.1053
vn -0.762808 0.637605 -0.107626
v 3.44333 -1.54716 -11.1084
vn -0.696251 0.705646 -0.131524
v 3.45259 -1.53942 -11.1112
vn -0.622989 0.76689 -0.154157
v 3.46262 -1.53261 -11.1139
vn -0.543726 0.82075 -0.175304
v 3.4733 -1.5268 -11.1163
vn -0.459228 0.866705 -0.194764
v 3.48455 -1.52204 -11.1186
vn -0.370307 0.904313 -0.212347
v 3.49625 -1.51838 -11.1205
vn -0.277819 0.933212 -0.227886
v 3.50828 -1.51587 -11.1222
vn -0.182656 0.953124 -0.24123
v 3.52054 -1.51451 -11.1236
vn -0.0857338 0.963856 -0.252251
v 3.5329 -1.51433 -11.1247
vn 0.0120139 0.965307 -0.260842
v 3.54525 -1.51532 -11.1255
vn 0.109646 0.957461 -0.266922
v 3.55746 -1.51748 -11.1259
vn 0.206222 0.940393 -0.27043
v 3.56942 -1.52078 -11.126
vn 0.300812 0.91427 -0.271335
v 3.58102 -1.5252 -11.1258
vn 0.392505 0.879341 -0.269626
v 3.59214 -1.53069 -11.1253
vn 0.480418 0.835944 -0.265321
v 3.60267 -1.53719 -11.1244
vn 0.563705 0.784497 -0.25846
v 3.61252 -1.54465 -11.1232
vn 0.641562 0.725494 -0.249111
v 3.62158 -1.553 -11.1217
vn 0.713241 0.659504 -0.237362
v 3.62978 -1.56215 -11.12
vn 0.778052 0.587163 -0.223327
v 3.63703 -1.57201 -11.1179
vn 0.835369 0.509167 -0.207142
v 3.64326 -1.5825 -11.1156
vn 0.884641 0.426268 -0.188962
v 3.64841 -1.5935 -11.1131
vn 0.925393 0.339264 -0.168962
v 3.65244 -1.60492 -11.1104
vn 0.957233 0.248992 -0.147334
v 3.6553 -1.61664 -11.1074
vn 0.979855 0.156322 -0.124288
v 3.65697 -1.62855 -11.1044
vn 0.99304 0.0621469 -0.100045
v 3.65743 -1.64053 -11.1012
vn 0.996662 -0.0326268 -0.0748385
v 3.65667 -1.65248 -11.0979
vn 0.990685 -0.127086 -0.0489112
v 3.65471 -1.66427 -11.0946
vn 0.975167 -0.220322 -0.0225128
v 3.65156 -1.67579 -11.0912
vn 0.950258 -0.311436 0.00410247
v 3.64725 -1.68694 -11.0878
vn 0.916198 -0.39955 0.0306782
v 3.64183 -1.69759 -11.0845
vn 0.873314 -0.483817 0.0569584
v 3.63534 -1.70766 -11.0813
vn 0.822019 -0.563424 0.0826902
v 3.62785 -1.71704 -11.0781
vn 0.762808 -0.637605 0.107626
v 3.61944 -1.72565 -11.0751
vn 0.696251 -0.705646 0.131524
v 3.61017 -1.73339 -11.0722
vn 0.622989 -0.76689 0.154157
v 3.60015 -1.7402 -11.0695
vn 0.543726 -0.82075 0.175304
v 3.58946 -1.74602 -11.0671
vn 0.459228 -0.866705 0.194764
v 3.57821 -1.75077 -11.0649
vn 0.370307 -0.904313 0.212347
v 3.56652 -1.75443 -11.0629
vn 0.277819 -0.933212 0.227886
v 3.55448 -1.75695 -11.0612
vn 0.182656 -0.953124 0.24123
v 3.54222 -1.7583 -11.0598
vn 0.0857338 -0.963856 0.252251
v 3.52986 -1.75849 -11.0587
vn -0.0120139 -0.965307 0.260842
v 3.51751 -1.75749 -11.058
vn -0.109646 -0.957461 0.266922
v 3.5053 -1.75534 -11.0575
vn -0.206222 -0.940393 0.27043
v 3.49334 -1.75203 -11.0574
vn -0.300812 -0.91427 0.271335
v 3.48174 -1.74761 -11.0576
vn -0.392505 -0.879341 0.269626
v 3.47062 -1.74213 -11.0582
vn -0.480418 -0.835944 0.265321
v 3.46009 -1.73562 -11.059
vn -0.563705 -0.784497 0.25846
v 3.45024 -1.72816 -11.0602
vn -0.641562 -0.725494 0.249111
v 3.44118 -1.71981 -11.0617
vn -0.713241 -0.659504 0.237362
v 3.43298 -1.71066 -11.0635
vn -0.778052 -0.587163 0.223327
v 3.42573 -1.7008 -11.0655
vn -0.835369 -0.509167 0.207142
v 3.4195 -1.69032 -11.0678
vn -0.884641 -0.426268 0.188962
v 3.41435 -1.67931 -11.0703
vn -0.925393 -0.339264 0.168962
v 3.6031 -1.51759 -10.6926
vn -0.333459 0.128789 0.933926
v 3.60077 -1.50933 -10.695
vn -0.359084 0.21964 0.907093
v 3.59875 -1.50125 -10.6983
vn -0.381251 0.308375 0.871523
v 3.59707 -1.49345 -10.7023
vn -0.399747 0.394141 0.82756
v 3.59574 -1.48599 -10.707
vn -0.414393 0.47611 0.775627
v 3.59477 -1.47895 -10.7124
vn -0.425048 0.553495 0.716225
v 3.59417 -1.47239 -10.7184
vn -0.431609 0.625549 0.649925
v 3.59395 -1.46638 -10.725
vn -0.434014 0.691579 0.577366
v 3.59412 -1.46098 -10.7322
vn -0.432239 0.750948 0.499246
v 3.59466 -1.45624 -10.7397
vn -0.426301 0.803085 0.416318
v 3.59557 -1.4522 -10.7476
vn -0.416258 0.847489 0.329382
v 3.59685 -1.4489 -10.7558
vn -0.402206 0.88373 0.239272
v 3.59848 -1.44638 -10.7642
vn -0.384281 0.911461 0.146859
v 3.60045 -1.44465 -10.7728
vn -0.362654 0.930414 0.0530313
v 3.60273 -1.44374 -10.7813
vn -0.337535 0.940406 -0.0413071
v 3.60531 -1.44366 -10.7899
vn -0.309166 0.941342 -0.135248
v 3.60817 -1.4444 -10.7983
vn -0.277819 0.933212 -0.227886
v 3.61126 -1.44596 -10.8065
vn -0.243797 0.916095 -0.318329
v 3.61457 -1.44832 -10.8145
vn -0.207426 0.890155 -0.405707
v 3.61806 -1.45146 -10.8221
vn -0.169058 0.855643 -0.489178
v 3.6217 -1.45535 -10.8293
vn -0.129062 0.81289 -0.567937
v 3.62545 -1.45995 -10.8359
vn -0.087823 0.762309 -0.641227
v 3.62928 -1.46522 -10.842
vn -0.0457382 0.704386 -0.708342
v 3.63315 -1.47111 -10.8475
vn -0.00321287 0.63968 -0.768635
v 3.63702 -1.47756 -10.8523
vn 0.0393434 0.568813 -0.821525
v 3.64086 -1.4845 -10.8564
vn 0.0815208 0.492468 -0.866504
v 3.64463 -1.49188 -10.8598
vn 0.122913 0.411381 -0.903138
v 3.64829 -1.49962 -10.8623
vn 0.163122 0.326331 -0.931074
v 3.6518 -1.50764 -10.864
vn 0.201759 0.238139 -0.950044
v 3.65514 -1.51588 -10.8649
vn 0.238454 0.147654 -0.959864
v 3.65827 -1.52424 -10.865
vn 0.272852 0.0557463 -0.96044
v 3.66116 -1.53265 -10.8642
vn 0.304622 -0.036698 -0.951766
v 3.66379 -1.54103 -10.8626
vn 0.333459 -0.128789 -0.933926
v 3.66612 -1.5493 -10.8601
vn 0.359084 -0.21964 -0.907093
v 3.66813 -1.55737 -10.8569
vn 0.381251 -0.308375 -0.871523
v 3.66982 -1.56517 -10.8529
vn 0.399747 -0.394141 -0.82756
v 3.67115 -1.57263 -10.8482
vn 0.414393 -0.47611 -0.775627
v 3.67212 -1.57967 -10.8427
vn 0.425048 -0.553495 -0.716225
v 3.67272 -1.58623 -10.8367
vn 0.431609 -0.625549 -0.649925
v 3.67293 -1.59224 -10.8301
vn 0.434014 -0.691579 -0.577366
v 3.67277 -1.59764 -10.823
vn 0.432239 -0.750948 -0.499246
v 3.67223 -1.60238 -10.8155
vn 0.426301 -0.803085 -0.416318
v 3.67132 -1.60642 -10.8075
vn 0.416258 -0.847489 -0.329382
v 3.67004 -1.60972 -10.7993
vn 0.402206 -0.88373 -0.239272
v 3.66841 -1.61224 -10.7909
vn 0.384281 -0.911461 -0.146859
v 3.66644 -1.61397 -10.7824
vn 0.362654 -0.930414 -0.0530313
v 3.66416 -1.61488 -10.7738
vn 0.337535 -0.940406 0.0413071
v 3.66157 -1.61496 -10.7653
vn 0.309166 -0.941342 0.135248
v 3.65872 -1.61422 -10.7568
vn 0.277819 -0.933212 0.227886
v 3.65563 -1.61266 -10.7486
vn 0.243797 -0.916095 0.318329
v 3.65232 -1.6103 -10.7407
vn 0.207426 -0.890155 0.405707
v 3.64883 -1.60716 -10.7331
vn 0.169058 -0.855643 0.489178
v 3.64519 -1.60327 -10.7259
vn 0.129062 -0.81289 0.567937
v 3.64144 -1.59867 -10.7192
vn 0.087823 -0.762309 0.641227
v 3.63761 -1.5934 -10.7131
vn 0.0457382 -0.704386 0.708342
v 3.63374 -1.58751 -10.7076
vn 0.00321287 -0.63968 0.768635
v 3.62986 -1.58107 -10.7028
vn -0.0393434 -0.568813 0.821525
v 3.62603 -1.57412 -10.6987
vn -0.0815208 -0.492468 0.866504
v 3.62226 -1.56674 -10.6954
vn -0.122913 -0.411381 0.903138
v 3.6186 -1.559 -10.6929
vn -0.163122 -0.326331 0.931074
v 3.61509 -1.55098 -10.6911
vn -0.201759 -0.238139 0.950044
v 3.61175 -1.54275 -10.6902
vn -0.238454 -0.147654 0.959864
v 3.60862 -1.53438 -10.6902
vn -0.272852 -0.0557463 0.96044
v 3.60573 -1.52597 -10.691
vn -0.304622 0.036698 0.951766
f 1 66 2 
f 1 65 66 
f 2 67 3 
f 2 66 67 
f 3 68 4 
f 3 67 68 
f 4 69 5 
f 4 68 69 
f 5 70 6 
f 5 69 70 
f 6 71 7 
f 6 70 71 
f 7 72 8 
f 7 71 72 
f 8 73 9 
f 8 72 73 
f 9 74 10 
f 9 73 74 
f 10 75 11 
f 10 74 75 
f 11 76 12 
f 11 75 76 
f 12 77 13 
f 12 76 77 
f 13 78 14 
f 13 77 78 
f 14 79 15 
f 14 78 79 
f 15 80 16 
f 15 79 80 
f 16 81 17 
f 16 80 81 
f 17 82 18 
f 17 81 82 
f 18 83 19 
f 18 82 83 
f 19 84 20 
f 19 83 84 
f 20 85 21 
f 20 84 85 
f 21 86 22 
f 21 85 86 
f 22 87 23 
f 22 86 87 
f 23 88 24 
f 23 87 88 
f 24 89 25 
f 24 88 89 
f 25 90 26 
f 25 89 90 
f 26 91 27 
f 26 90 91 
f 27 92 28 
f 27 91 92 
f 28 93 29 
f 28 92 93 
f 29 94 30 
f 29 93 94 
f 30 95 31 
f 30 94 95 
f 31 96 32 
f 31 95 96 
f 32 97 33 
f 32 96 97 
f 33 98 34 
f 33 97 98 
f 34 99 35 
f 34 98 99 
f 35 100 36 
f 35 99 100 
f 36 101 37 
f 36 100 101 
f 37 102 38 
f 37 101 102 
f 38 103 39 
f 38 102 103 
f 39 104 40 
f 39 103 104 
f 40 105 41 
f 40 104 105 
f 41 106 42 
f 41 105 106 
f 42 107 43 
f 42 106 107 
f 43 108 44 
f 43 107 108 
f 44 109 45 
f 44 108 109 
f 45 110 46 
f 45 109 110 
f 46 111 47 
f 46 110 111 
f 47 112 48 
f 47 111 112 
f 48 113 49 
f 48 112 113 
f 49 114 50 
f 49 113 114 
f 50 115 51 
f 50 114 115 
f 51 116 52 
f 51 115 116 
f 52 117 53 
f 52 116 117 
f 53 118 54 
f 53 117 118 
f 54 119 55 
f 54 118 119 
f 55 120 56 
f 55 119 120 
f 56 121 57 
f 56 120 121 
f 57 122 58 
f 57 121 122 
f 58 123 59 
f 58 122 123 
f 59 124 60 
f 59 123 124 
f 60 125 61 
f 60 124 125 
f 61 126 62 
f 61 125 126 
f 62 127 63 
f 62 126 127 
f 63 128 64 
f 63 127 128 
f 64 65 1 
f 64 128 65 
f 65 130 66 
f 65 129 130 
f 66 131 67 
f 66 130 131 
f 67 132 68 
f 67 131 132 
f 68 133 69 
f 68 132 133 
f 69 134 70 
f 69 133 134 
f 70 135 71 
f 70 134 135 
f 71 136 72 
f 71 135 136 
f 72 137 73 
f 72 136 137 
f 73 138 74 
f 73 137 138 
f 74 139 75 
f 74 138 139 
f 75 140 76 
f 75 139 140 
f 76 141 77 
f 76 140 141 
f 77 142 78 
f 77 141 142 
f 78 143 79 
f 78 142 143 
f 79 144 80 
f 79 143 144 
f 80 145 81 
f 80 144 145 
f 81 146 82 
f 81 145 146 
f 82 147 83 
f 82 146 147 
f 83 148 84 
f 83 147 148 
f 84 149 85 
f 84 148 149 
f 85 150 86 
f 85 149 150 
f 86 151 87 
f 86 150 151 
f 87 152 88 
f 87 151 152 
f 88 153 89 
f 88 152 153 
f 89 154 90 
f 89 153 154 
f 90 155 91 
f 90 154 155 
f 91 156 92 
f 91 155 156 
f 92 157 93 
f 92 156 157 
f 93 158 94 
f 93 157 158 
f 94 159 95 
f 94 158 159 
f 95 160 96 
f 95 159 160 
f 96 161 97 
f 96 160 161 
f 97 162 98 
f 97 161 162 
f 98 163 99 
f 98 162 163 
f 99 164 100 
f 99 163 164 
f 100 165 101 
f 100 164 165 
f 101 166 102 
f 101 165 166 
f 102 167 103 
f 102 166 167 
f 103 168 104 
f 103 167 168 
f 104 169 105 
f 104 168 169 
f 105 170 106 
f 105 169 170 
f 106 171 107 
f 106 170 171 
f 107 172 108 
f 107 171 172 
f 108 173 109 
f 108 172 173 
f 109 174 110 
f 109 173 174 
f 110 175 111 
f 110 174 175 
f 111 176 112 
f 111 175 176 
f 112 177 113 
f 112 176 177 
f 113 178 114 
f 113 177 178 
f 114 179 115 
f 114 178 179 
f 115 180 116 
f 115 179 180 
f 116 181 117 
f 116 180 181 
f 117 182 118 
f 117 181 182 
f 118 183 119 
f 118 182 183 
f 119 184 120 
f 119 183 184 
f 120 185 121 
f 120 184 185 
f 121 186 122 
f 121 185 186 
f 122 187 123 
f 122 186 187 
f 123 188 124 
f 123 187 188 
f 124 189 125 
f 124 188 189 
f 125 190 126 
f 125 189 190 
f 126 191 127 
f 126 190 191 
f 127 192 128 
f 127 191 192 
f 128 129 65 
f 128 192 129 
f 129 194 130 
f 129 193 194 
f 130 195 131 
f 130 194 195 
f 131 196 132 
f 131 195 196 
f 132 197 133 
f 132 196 197 
f 133 198 134 
f 133 197 198 
f 134 199 135 
f 134 198 199 
f 135 200 136 
f 135 199 200 
f 136 201 137 
f 136 200 201 
f 137 202 138 
f 137 201 202 
f 138 203 139 
f 138 202 203 
f 139 204 140 
f 139 203 204 
f 140 205 141 
f 140 204 205 
f 141 206 142 
f 141 205 206 
f 142 207 143 
f 142 206 207 
f 143 208 144 
f 143 207 208 
f 144 209 145 
f 144 208 209 
f 145 210 146 
f 145 209 210 
f 146 211 147 
f 146 210 211 
f 147 212 148 
f 147 211 212 
f 148 213 149 
f 148 212 213 
f 149 214 150 
f 149 213 214 
f 150 215 151 
f 150 214 215 
f 151 216 152 
f 151 215 216 
f 152 217 153 
f 152 216 217 
f 153 218 154 
f 153 217 218 
f 154 219 155 
f 154 218 219 
f 155 220 156 
f 155 219 220 
f 156 221 157 
f 156 220 221 
f 157 222 158 
f 157 221 222 
f 158 223 159 
f 158 222 223 
f 159 224 160 
f 159 223 224 
f 160 225 161 
f 160 224 225 
f 161 226 162 
f 161 225 226 
f 162 227 163 
f 162 226 227 
f 163 228 164 
f 163 227 228 
f 164 229 165 
f 164 228 229 
f 165 230 166 
f 165 229 230 
f 166 231 167 
f 166 230 231 
f 167 232 168 
f 167 231 232 
f 168 233 169 
f 168 232 233 
f 169 234 170 
f 169 233 234 
f 170 235 171 
f 170 234 235 
f 171 236 172 
f 171 235 236 
f 172 237 173 
f 172 236 237 
f 173 238 174 
f 173 237 238 
f 174 239 175 
f 174 238 239 
f 175 240 176 
f 175 239 240 
f 176 241 177 
f 176 240 241 
f 177 242 178 
f 177 241 242 
f 178 243 179 
f 178 242 243 
f 179 244 180 
f 179 243 244 
f 180 245 181 
f 180 244 245 
f 181 246 182 
f 181 245 246 
f 182 247 183 
f 182 246 247 
f 183 248 184 
f 183 247 248 
f 184 249 185 
f 184 248 249 
f 185 250 186 
f 185 249 250 
f 186 251 187 
f 186 250 251 
f 187 252 188 
f 187 251 252 
f 188 253 189 
f 188 252 253 
f 189 254 190 
f 189 253 254 
f 190 255 191 
f 190 254 255 
f 191 256 192 
f 191 255 256 
f 192 193 129 
f 192 256 193 
f 193 258 194 
f 193 257 258 
f 194 259 195 
f 194 258 259 
f 195 260 196 
f 195 259 260 
f 196 261 197 
f 196 260 261 
f 197 262 198 
f 197 261 262 
f 198 263 199 
f 198 262 263 
f 199 264 200 
f 199 263 264 
f 200 265 201 
f 200 264 265 
f 201 266 202 
f 201 265 266 
f 202 267 203 
f 202 266 267 
f 203 268 204 
f 203 267 268 
f 204 269 205 
f 204 268 269 
f 205 270 206 
f 205 269 270 
f 206 271 207 
f 206 270 271 
f 207 272 208 
f 207 271 272 
f 208 273 209 
f 208 272 273 
f 209 274 210 
f 209 273 274 
f 210 275 211 
f 210 274 275 
f 211 276 212 
f 211 275 276 
f 212 277 213 
f 212 276 277 
f 213 278 214 
f 213 277 278 
f 214 279 215 
f 214 278 279 
f 215 280 216 
f 215 279 280 
f 216 281 217 
f 216 280 281 
f 217 282 218 
f 217 281 282 
f 218 283 219 
f 218 282 283 
f 219 284 220 
f 219 283 284 
f 220 285 221 
f 220 284 285 
f 221 286 222 
f 221 285 286 
f 222 287 223 
f 222 286 287 
f 223 288 224 
f 223 287 288 
f 224 289 225 
f 224 288 289 
f 225 290 226 
f 225 289 290 
f 226 291 227 
f 226 290 291 
f 227 292 228 
f 227 291 292 
f 228 293 229 
f 228 292 293 
f 229 294 230 
f 229 293 294 
f 230 295 231 
f 230 294 295 
f 231 296 232 
f 231 295 296 
f 232 297 233 
f 232 296 297 
f 233 298 234 
f 233 297 298 
f 234 299 235 
f 234 298 299 
f 235 300 236 
f 235 299 300 
f 236 301 237 
f 236 300 301 
f 237 302 238 
f 237 301 302 
f 238 303 239 
f 238 302 303 
f 239 304 240 
f 239 303 304 
f 240 305 241 
f 240 304 305 
f 241 306 242 
f 241 305 306 
f 242 307 243 
f 242 306 307 
f 243 308 244 
f 243 307 308 
f 244 309 245 
f 244 308 309 
f 245 310 246 
f 245 309 310 
f 246 311 247 
f 246 310 311 
f 247 312 248 
f 247 311 312 
f 248 313 249 
f 248 312 313 
f 249 314 250 
f 249 313 314 
f 250 315 251 
f 250 314 315 
f 251 316 252 
f 251 315 316 
f 252 317 253 
f 252 316 317 
f 253 318 254 
f 253 317 318 
f 254 319 255 
f 254 318 319 
f 255 320 256 
f 255 319 320 
f 256 257 193 
f 256 320 257 
f 257 322 258 
f 257 321 322 
f 258 323 259 
f 258 322 323 
f 259 324 260 
f 259 323 324 
f 260 325 261 
f 260 324 325 
f 261 326 262 
f 261 325 326 
f 262 327 263 
f 262 326 327 
f 263 328 264 
f 263 327 328 
f 264 329 265 
f 264 328 329 
f 265 330 266 
f 265 329 330 
f 266 331 267 
f 266 330 331 
f 267 332 268 
f 267 331 332 
f 268 333 269 
f 268 332 333 
f 269 334 270 
f 269 333 334 
f 270 335 271 
f 270 334 335 
f 271 336 272 
f 271 335 336 
f 272 337 273 
f 272 336 337 
f 273 338 274 
f 273 337 338 
f 274 339 275 
f 274 338 339 
f 275 340 276 
f 275 339 340 
f 276 341 277 
f 276 340 341 
f 277 342 278 
f 277 341 342 
f 278 343 279 
f 278 342 343 
f 279 344 280 
f 279 343 344 
f 280 345 281 
f 280 344 345 
f 281 346 282 
f 281 345 346 
f 282 347 283 
f 282 346 347 
f 283 348 284 
f 283 347 348 
f 284 349 285 
f 284 348 349 
f 285 350 286 
f 285 349 350 
f 286 351 287 
f 286 350 351 
f 287 352 288 
f 287 351 352 
f 288 353 289 
f 288 352 353 
f 289 354 290 
f 289 353 354 
f 290 355 291 
f 290 354 355 
f 291 356 292 
f 291 355 356 
f 292 357 293 
f 292 356 357 
f 293 358 294 
f 293 357 358 
f 294 359 295 
f 294 358 359 
f 295 360 296 
f 295 359 360 
f 296 361 297 
f 296 360 361 
f 297 362 298 
f 297 361 362 
f 298 363 299 
f 298 362 363 
f 299 364 300 
f 299 363 364 
f 300 365 301 
f 300 364 365 
f 301 366 302 
f 301 365 366 
f 302 367 303 
f 302 366 367 
f 303 368 304 
f 303 367 368 
f 304 369 305 
f 304 368 369 
f 305 370 306 
f 305 369 370 
f 306 371 307 
f 306 370 371 
f 307 372 308 
f 307 371 372 
f 308 373 309 
f 308 372 373 
f 309 374 310 
f 309 373 374 
f 310 375 311 
f 310 374 375 
f 311 376 312 
f 311 375 376 
f 312 377 313 
f 312 376 377 
f 313 378 314 
f 313 377 378 
f 314 379 315 
f 314 378 379 
f 315 380 316 
f 315 379 380 
f 316 381 317 
f 316 380 381 
f 317 382 318 
f 317 381 382 
f 318 383 319 
f 318 382 383 
f 319 384 320 
f 319 383 384 
f 320 321 257 
f 320 384 321 
f 321 386 322 
f 321 385 386 
f 322 387 323 
f 322 386 387 
f 323 388 324 
f 323 387 388 
f 324 389 325 
f 324 388 389 
f 325 390 326 
f 325 389 390 
f 326 391 327 
f 326 390 391 
f 327 392 328 
f 327 391 392 
f 328 393 329 
f 328 392 393 
f 329 394 330 
f 329 393 394 
f 330 395 331 
f 330 394 395 
f 331 396 332 
f 331 395 396 
f 332 397 333 
f 332 396 397 
f 333 398 334 
f 333 397 398 
f 334 399 335 
f 334 398 399 
f 335 400 336 
f 335 399 400 
f 336 401 337 
f 336 400 401 
f 337 402 338 
f 337 401 402 
f 338 403 339 
f 338 402 403 
f 339 404 340 
f 339 403 404 
f 340 405 341 
f 340 404 405 
f 341 406 342 
f 341 405 406 
f 342 407 343 
f 342 406 407 
f 343 408 344 
f 343 407 408 
f 344 409 345 
f 344 408 409 
f 345 410 346 
f 345 409 410 
f 346 411 347 
f 346 410 411 
f 347 412 348 
f 347 411 412 
f 348 413 349 
f 348 412 413 
f 349 414 350 
f 349 413 414 
f 350 415 351 
f 350 414 415 
f 351 416 352 
f 351 415 416 
f 352 417 353 
f 352 416 417 
f 353 418 354 
f 353 417 418 
f 354 419 355 
f 354 418 419 
f 355 420 356 
f 355 419 420 
f 356 421 357 
f 356 420 421 
f 357 422 358 
f 357 421 422 
f 358 423 359 
f 358 422 423 
f 359 424 360 
f 359 423 424 
f 360 425 361 
f 360 424 425 
f 361 426 362 
f 361 425 426 
f 362 427 363 
f 362 426 427 
f 363 428 364 
f 363 427 428 
f 364 429 365 
f 364 428 429 
f 365 430 366 
f 365 429 430 
f 366 431 367 
f 366 430 431 
f 367 432 368 
f 367 431 432 
f 368 433 369 
f 368 432 433 
f 369 434 370 
f 369 433 434 
f 370 435 371 
f 370 434 435 
f 371 436 372 
f 371 435 436 
f 372 437 373 
f 372 436 437 
f 373 438 374 
f 373 437 438 
f 374 439 375 
f 374 438 439 
f 375 440 376 
f 375 439 440 
f 376 441 377 
f 376 440 441 
f 377 442 378 
f 377 441 442 
f 378 443 379 
f 378 442 443 
f 379 444 380 
f 379 443 444 
f 380 445 381 
f 380 444 445 
f 381 446 382 
f 381 445 446 
f 382 447 383 
f 382 446 447 
f 383 448 384 
f 383 447 448 
f 384 385 321 
f 384 448 385 
f 385 450 386 
f 385 449 450 
f 386 451 387 
f 386 450 451 
f 387 452 388 
f 387 451 452 
f 388 453 389 
f 388 452 453 
f 389 454 390 
f 389 453 454 
f 390 455 391 
f 390 454 455 
f 391 456 392 
f 391 455 456 
f 392 457 393 
f 392 456 457 
f 393 458 394 
f 393 457 458 
f 394 459 395 
f 394 458 459 
f 395 460 396 
f 395 459 460 
f 396 461 397 
f 396 460 461 
f 397 462 398 
f 397 461 462 
f 398 463 399 
f 398 462 463 
f 399 464 400 
f 399 463 464 
f 400 465 401 
f 400 464 465 
f 401 466 402 
f 401 465 466 
f 402 467 403 
f 402 466 467 
f 403 468 404 
f 403 467 468 
f 404 469 405 
f 404 468 469 
f 405 470 406 
f 405 469 470 
f 406 471 407 
f 406 470 471 
f 407 472 408 
f 407 471 472 
f 408 473 409 
f 408 472 473 
f 409 474 410 
f 409 473 474 
f 410 475 411 
f 410 474 475 
f 411 476 412 
f 411 475 476 
f 412 477 413 
f 412 476 477 
f 413 478 414 
f 413 477 478 
f 414 479 415 
f 414 478 479 
f 415 480 416 
f 415 479 480 
f 416 481 417 
f 416 480 481 
f 417 482 418 
f 417 481 482 
f 418 483 419 
f 418 482 483 
f 419 484 420 
f 419 483 484 
f 420 485 421 
f 420 484 485 
f 421 486 422 
f 421 485 486 
f 422 487 423 
f 422 486 487 
f 423 488 424 
f 423 487 488 
f 424 489 425 
f 424 488 489 
f 425 490 426 
f 425 489 490 
f 426 491 427 
f 426 490 491 
f 427 492 428 
f 427 491 492 
f 428 493 429 
f 428 492 493 
f 429 494 430 
f 429 493 494 
f 430 495 431 
f 430 494 495 
f 431 496 432 
f 431 495 496 
f 432 497 433 
f 432 496 497 
f 433 498 434 
f 433 497 498 
f 434 499 435 
f 434 498 499 
f 435 500 436 
f 435 499 500 
f 436 501 437 
f 436 500 501 
f 437 502 438 
f 437 501 502 
f 438 503 439 
f 438 502 503 
f 439 504 440 
f 439 503 504 
f 440 505 441 
f 440 504 505 
f 441 506 442 
f 441 505 506 
f 442 507 443 
f 442 506 507 
f 443 508 444 
f 443 507 508 
f 444 509 445 
f 444 508 509 
f 445 510 446 
f 445 509 510 
f 446 511 447 
f 446 510 511 
f 447 512 448 
f 447 511 512 
f 448 449 385 
f 448 512 449 
f 449 514 450 
f 449 513 514 
f 450 515 451 
f 450 514 515 
f 451 516 452 
f 451 515 516 
f 452 517 453 
f 452 516 517 
f 453 518 454 
f 453 517 518 
f 454 519 455 
f 454 518 519 
f 455 520 456 
f 455 519 520 
f 456 521 457 
f 456 520 521 
f 457 522 458 
f 457 521 522 
f 458 523 459 
f 458 522 523 
f 459 524 460 
f 459 523 524 
f 460 525 461 
f 460 524 525 
f 461 526 462 
f 461 525 526 
f 462 527 463 
f 462 526 527 
f 463 528 464 
f 463 527 528 
f 464 529 465 
f 464 528 529 
f 465 530 466 
f 465 529 530 
f 466 531 467 
f 466 530 531 
f 467 532 468 
f 467 531 532 
f 468 533 469 
f 468 532 533 
f 469 534 470 
f 469 533 534 
f 470 535 471 
f 470 534 535 
f 471 536 472 
f 471 535 536 
f 472 537 473 
f 472 536 537 
f 473 538 474 
f 473 537 538 
f 474 539 475 
f 474 538 539 
f 475 540 476 
f 475 539 540 
f 476 541 477 
f 476 540 541 
f 477 542 478 
f 477 541 542 
f 478 543 479 
f 478 542 543 
f 479 544 480 
f 479 543 544 
f 480 545 481 
f 480 544 545 
f 481 546 482 
f 481 545 546 
f 482 547 483 
f 482 546 547 
f 483 548 484 
f 483 547 548 
f 484 549 485 
f 484 548 549 
f 485 550 486 
f 485 549 550 
f 486 551 487 
f 486 550 551 
f 487 552 488 
f 487 551 552 
f 488 553 489 
f 488 552 553 
f 489 554 490 
f 489 553 554 
f 490 555 491 
f 490 554 555 
f 491 556 492 
f 491 555 556 
f 492 557 493 
f 492 556 557 
f 493 558 494 
f 493 557 558 
f 494 559 495 
f 494 558 559 
f 495 560 496 
f 495 559 560 
f 496 561 497 
f 496 560 561 
f 497 562 498 
f 497 561 562 
f 498 563 499 
f 498 562 563 
f 499 564 500 
f 499 563 564 
f 500 565 501 
f 500 564 565 
f 501 566 502 
f 501 565 566 
f 502 567 503 
f 502 566 567 
f 503 568 504 
f 503 567 568 
f 504 569 505 
f 504 568 569 
f 505 570 506 
f 505 569 570 
f 506 571 507 
f 506 570 571 
f 507 572 508 
f 507 571 572 
f 508 573 509 
f 508 572 573 
f 509 574 510 
f 509 573 574 
f 510 575 511 
f 510 574 575 
f 511 576 512 
f 511 575 576 
f 512 513 449 
f 512 576 513 
f 513 578 514 
f 513 577 578 
f 514 579 515 
f 514 578 579 
f 515 580 516 
f 515 579 580 
f 516 581 517 
f 516 580 581 
f 517 582 518 
f 517 581 582 
f 518 583 519 
f 518 582 583 
f 519 584 520 
f 519 583 584 
f 520 585 521 
f 520 584 585 
f 521 586 522 
f 521 585 586 
f 522 587 523 
f 522 586 587 
f 523 588 524 
f 523 587 588 
f 524 589 525 
f 524 588 589 
f 525 590 526 
f 525 589 590 
f 526 591 527 
f 526 590 591 
f 527 592 528 
f 527 591 592 
f 528 593 529 
f 528 592 593 
f 529 594 530 
f 529 593 594 
f 530 595 531 
f 530 594 595 
f 531 596 532 
f 531 595 596 
f 532 597 533 
f 532 596 597 
f 533 598 534 
f 533 597 598 
f 534 599 535 
f 534 598 599 
f 535 600 536 
f 535 599 600 
f 536 601 537 
f 536 600 601 
f 537 602 538 
f 537 601 602 
f 538 603 539 
f 538 602 603 
f 539 604 540 
f 539 603 604 
f 540 605 541 
f 540 604 605 
f 541 606 542 
f 541 605 606 
f 542 607 543 
f 542 606 607 
f 543 608 544 
f 543 607 608 
f 544 609 545 
f 544 608 609 
f 545 610 546 
f 545 609 610 
f 546 611 547 
f 546 610 611 
f 547 612 548 
f 547 611 612 
f 548 613 549 
f 548 612 613 
f 549 614 550 
f 549 613 614 
f 550 615 551 
f 550 614 615 
f 551 616 552 
f 551 615 616 
f 552 617 553 
f 552 616 617 
f 553 618 554 
f 553 617 618 
f 554 619 555 
f 554 618 619 
f 555 620 556 
f 555 619 620 
f 556 621 557 
f 556 620 621 
f 557 622 558 
f 557 621 622 
f 558 623 559 
f 558 622 623 
f 559 624 560 
f 559 623 624 
f 560 625 561 
f 560 624 625 
f 561 626 562 
f 561 625 626 
f 562 627 563 
f 562 626 627 
f 563 628 564 
f 563 627 628 
f 564 629 565 
f 564 628 629 
f 565 630 566 
f 565 629 630 
f 566 631 567 
f 566 630 631 
f 567 632 568 
f 567 631 632 
f 568 633 569 
f 568 632 633 
f 569 634 570 
f 569 633 634 
f 570 635 571 
f 570 634 635 
f 571 636 572 
f 571 635 636 
f 572 637 573 
f 572 636 637 
f 573 638 574 
f 573 637 638 
f 574 639 575 
f 574 638 639 
f 575 640 576 
f 575 639 640 
f 576 577 513 
f 576 640 577 
