# Branch
v 4.57467 8.81886 -27.8083
vn 0.295133 0.168524 -0.940477
v 4.5252 8.79517 -27.8251
vn 0.210495 0.12799 -0.96918
v 4.47454 8.77075 -27.8364
vn 0.123829 0.0862232 -0.98855
v 4.42319 8.74586 -27.8422
vn 0.0359714 0.0436259 -0.9984
v 4.37164 8.72071 -27.8423
vn -0.0522329 0.000608521 -0.998635
v 4.32038 8.69557 -27.8369
vn -0.139934 -0.0424147 -0.989252
v 4.2699 8.67066 -27.8258
vn -0.226288 -0.0850295 -0.970342
v 4.22071 8.64623 -27.8093
vn -0.310462 -0.126825 -0.942087
v 4.17326 8.62251 -27.7875
vn -0.391647 -0.1674 -0.90476
v 4.12801 8.59974 -27.7606
vn -0.469059 -0.206362 -0.858719
v 4.0854 8.57813 -27.7288
vn -0.541955 -0.243337 -0.804408
v 4.04585 8.55789 -27.6925
vn -0.609631 -0.277969 -0.74235
v 4.00972 8.53921 -27.6521
vn -0.671435 -0.309923 -0.673143
v 3.97738 8.52228 -27.6079
vn -0.726774 -0.338893 -0.597454
v 3.94912 8.50725 -27.5603
vn -0.775114 -0.364599 -0.51601
v 3.92523 8.49428 -27.5097
vn -0.815988 -0.386794 -0.429597
v 3.90594 8.48349 -27.4568
vn -0.849005 -0.405263 -0.339047
v 3.89142 8.47497 -27.402
vn -0.873844 -0.41983 -0.245232
v 3.88182 8.46882 -27.3458
vn -0.890269 -0.430354 -0.149054
v 3.87723 8.46509 -27.2887
vn -0.898119 -0.436733 -0.0514418
v 3.8777 8.46382 -27.2314
vn -0.89732 -0.438906 0.0466663
v 3.88321 8.46502 -27.1743
vn -0.88788 -0.436852 0.144325
v 3.89373 8.46868 -27.118
vn -0.869888 -0.430591 0.240594
v 3.90914 8.47477 -27.0631
vn -0.84352 -0.420184 0.334545
v 3.9293 8.48321 -27.0101
vn -0.809027 -0.405729 0.425275
v 3.95402 8.49395 -26.9594
vn -0.766743 -0.387367 0.511909
v 3.98305 8.50686 -26.9117
vn -0.717076 -0.365275 0.593613
v 4.01611 8.52183 -26.8673
vn -0.660502 -0.339665 0.669601
v 4.0529 8.53871 -26.8266
vn -0.597567 -0.310784 0.739139
v 4.09305 8.55734 -26.7902
vn -0.528877 -0.278909 0.80156
v 4.13617 8.57754 -26.7582
vn -0.455094 -0.244349 0.856261
v 4.18186 8.59911 -26.731
vn -0.376929 -0.207436 0.902716
v 4.22967 8.62186 -26.709
vn -0.295133 -0.168524 0.940477
v 4.27914 8.64555 -26.6922
vn -0.210495 -0.12799 0.96918
v 4.32979 8.66996 -26.6809
vn -0.123829 -0.0862232 0.98855
v 4.38114 8.69486 -26.6751
vn -0.0359714 -0.0436259 0.9984
v 4.4327 8.72 -26.675
vn 0.0522329 -0.000608521 0.998635
v 4.48396 8.74515 -26.6805
vn 0.139934 0.0424147 0.989252
v 4.53443 8.77006 -26.6915
vn 0.226288 0.0850295 0.970342
v 4.58363 8.79448 -26.708
vn 0.310462 0.126825 0.942087
v 4.63108 8.8182 -26.7298
vn 0.391647 0.1674 0.90476
v 4.67632 8.84097 -26.7567
vn 0.469059 0.206362 0.858719
v 4.71893 8.86258 -26.7885
vn 0.541955 0.243337 0.804408
v 4.75849 8.88283 -26.8248
vn 0.609631 0.277969 0.74235
v 4.79461 8.9015 -26.8652
vn 0.671435 0.309923 0.673143
v 4.82695 8.91843 -26.9095
vn 0.726774 0.338893 0.597454
v 4.85521 8.93346 -26.9571
vn 0.775114 0.364599 0.51601
v 4.8791 8.94643 -27.0076
vn 0.815988 0.386794 0.429597
v 4.8984 8.95723 -27.0605
vn 0.849005 0.405263 0.339047
v 4.91292 8.96574 -27.1153
vn 0.873844 0.41983 0.245232
v 4.92251 8.97189 -27.1715
vn 0.890269 0.430354 0.149054
v 4.9271 8.97562 -27.2286
vn 0.898119 0.436733 0.0514418
v 4.92664 8.97689 -27.2859
vn 0.89732 0.438906 -0.0466663
v 4.92112 8.97569 -27.343
vn 0.88788 0.436852 -0.144325
v 4.9106 8.97203 -27.3993
vn 0.869888 0.430591 -0.240594
v 4.89519 8.96595 -27.4542
vn 0.84352 0.420184 -0.334545
v 4.87503 8.9575 -27.5072
vn 0.809027 0.405729 -0.425275
v 4.85032 8.94677 -27.5579
vn 0.766743 0.387367 -0.511909
v 4.82129 8.93385 -27.6056
vn 0.717076 0.365275 -0.593613
v 4.78822 8.91889 -27.65
vn 0.660502 0.339665 -0.669601
v 4.75144 8.90201 -27.6907
vn 0.597567 0.310784 -0.739139
v 4.71129 8.88338 -27.7272
vn 0.528877 0.278909 -0.80156
v 4.66816 8.86318 -27.7591
vn 0.455094 0.244349 -0.856261
v 4.62248 8.8416 -27.7863
vn 0.376929 0.207436 -0.902716
v 5.11054 7.49367 -27.5662
vn 0.428488 -0.152602 -0.890568
v 5.06426 7.47251 -27.5819
vn 0.343208 -0.19159 -0.919512
v 5.0162 7.45236 -27.5928
vn 0.254622 -0.228733 -0.9396
v 4.9668 7.4334 -27.5988
vn 0.163584 -0.263673 -0.95064
v 4.91655 7.41582 -27.5998
vn 0.0709713 -0.296073 -0.952525
v 4.86592 7.39979 -27.5959
vn -0.0223253 -0.325623 -0.945236
v 4.81542 7.38546 -27.587
vn -0.115407 -0.352036 -0.928844
v 4.76551 7.37296 -27.5732
vn -0.207377 -0.375059 -0.903507
v 4.71669 7.36243 -27.5548
vn -0.29735 -0.39447 -0.869469
v 4.66943 7.35396 -27.5318
vn -0.384459 -0.410082 -0.827057
v 4.62417 7.34763 -27.5044
vn -0.467866 -0.421745 -0.77668
v 4.58136 7.34351 -27.473
vn -0.546767 -0.429346 -0.718823
v 4.5414 7.34163 -27.4379
vn -0.620403 -0.432813 -0.654044
v 4.50469 7.34201 -27.3993
vn -0.688063 -0.432111 -0.582966
v 4.47157 7.34465 -27.3577
vn -0.749097 -0.427248 -0.506273
v 4.44237 7.34952 -27.3134
vn -0.802917 -0.41827 -0.424705
v 4.41736 7.35657 -27.267
vn -0.849005 -0.405263 -0.339047
v 4.39679 7.36575 -27.2187
vn -0.886915 -0.388354 -0.250123
v 4.38086 7.37695 -27.1691
vn -0.916285 -0.367705 -0.158791
v 4.36971 7.39008 -27.1188
vn -0.93683 -0.343515 -0.0659296
v 4.36346 7.405 -27.068
vn -0.948353 -0.316016 0.0275669
v 4.36216 7.42157 -27.0174
vn -0.950743 -0.285474 0.120798
v 4.36583 7.43964 -26.9675
vn -0.943977 -0.252183 0.212866
v 4.37444 7.45902 -26.9186
vn -0.928119 -0.216463 0.302883
v 4.38789 7.47953 -26.8714
vn -0.903324 -0.178659 0.389984
v 4.40606 7.50098 -26.8262
vn -0.869828 -0.139134 0.473329
v 4.42878 7.52315 -26.7834
vn -0.827956 -0.0982685 0.552116
v 4.45583 7.54584 -26.7435
vn -0.778111 -0.0564571 0.625585
v 4.48694 7.56882 -26.7069
vn -0.720771 -0.0141019 0.69303
v 4.52182 7.59188 -26.674
vn -0.65649 0.0283891 0.7538
v 4.56013 7.61478 -26.6449
vn -0.585887 0.0706066 0.807311
v 4.6015 7.63732 -26.6201
vn -0.509642 0.112144 0.853047
v 4.64554 7.65927 -26.5998
vn -0.428488 0.152602 0.890568
v 4.69181 7.68043 -26.5841
vn -0.343208 0.19159 0.919512
v 4.73988 7.70058 -26.5732
vn -0.254622 0.228733 0.9396
v 4.78928 7.71954 -26.5672
vn -0.163584 0.263673 0.95064
v 4.83953 7.73712 -26.5661
vn -0.0709713 0.296073 0.952525
v 4.89015 7.75316 -26.5701
vn 0.0223253 0.325623 0.945236
v 4.94066 7.76749 -26.579
vn 0.115407 0.352036 0.928844
v 4.99056 7.77998 -26.5927
vn 0.207377 0.375059 0.903507
v 5.03938 7.79051 -26.6112
vn 0.29735 0.39447 0.869469
v 5.08665 7.79898 -26.6342
vn 0.384459 0.410082 0.827057
v 5.1319 7.80531 -26.6616
vn 0.467866 0.421745 0.77668
v 5.17472 7.80944 -26.693
vn 0.546767 0.429346 0.718823
v 5.21467 7.81132 -26.7281
vn 0.620403 0.432813 0.654044
v 5.25138 7.81094 -26.7667
vn 0.688063 0.432111 0.582966
v 5.2845 7.8083 -26.8083
vn 0.749097 0.427248 0.506273
v 5.3137 7.80343 -26.8525
vn 0.802917 0.41827 0.424705
v 5.33871 7.79637 -26.899
vn 0.849005 0.405263 0.339047
v 5.35928 7.78719 -26.9473
vn 0.886915 0.388354 0.250123
v 5.37522 7.77599 -26.9968
vn 0.916285 0.367705 0.158791
v 5.38637 7.76286 -27.0472
vn 0.93683 0.343515 0.0659296
v 5.39262 7.74794 -27.0979
vn 0.948353 0.316016 -0.0275669
v 5.39392 7.73137 -27.1485
vn 0.950743 0.285474 -0.120798
v 5.39024 7.71331 -27.1985
vn 0.943977 0.252183 -0.212866
v 5.38164 7.69393 -27.2473
vn 0.928119 0.216463 -0.302883
v 5.36819 7.67341 -27.2946
vn 0.903324 0.178659 -0.389984
v 5.35001 7.65197 -27.3398
vn 0.869828 0.139134 -0.473329
v 5.32729 7.62979 -27.3826
vn 0.827956 0.0982685 -0.552116
v 5.30024 7.60711 -27.4224
vn 0.778111 0.0564571 -0.625585
v 5.26913 7.58412 -27.459
vn 0.720771 0.0141019 -0.69303
v 5.23425 7.56107 -27.492
vn 0.65649 -0.0283891 -0.7538
v 5.19594 7.53816 -27.521
vn 0.585887 -0.0706066 -0.807311
v 5.15457 7.51562 -27.5459
vn 0.509642 -0.112144 -0.853047
v 5.43298 6.2352 -26.8694
vn 0.505012 -0.433634 -0.746274
v 5.3901 6.21636 -26.8842
vn 0.419364 -0.471268 -0.775913
v 5.34519 6.19978 -26.8953
vn 0.329676 -0.504364 -0.798079
v 5.29869 6.18564 -26.9026
vn 0.236814 -0.532603 -0.81256
v 5.25105 6.17407 -26.9059
vn 0.141671 -0.555713 -0.819215
v 5.20272 6.16518 -26.9053
vn 0.0451631 -0.573471 -0.81798
v 5.15418 6.15905 -26.9007
vn -0.0517793 -0.585705 -0.808868
v 5.10589 6.15575 -26.8923
vn -0.148223 -0.5923 -0.791967
v 5.05831 6.15531 -26.88
vn -0.243239 -0.59319 -0.767438
v 5.01191 6.15772 -26.864
vn -0.335913 -0.588367 -0.735518
v 4.96713 6.16297 -26.8445
vn -0.425352 -0.577878 -0.696515
v 4.92439 6.17101 -26.8216
vn -0.510694 -0.561824 -0.650804
v 4.88412 6.18176 -26.7956
vn -0.591118 -0.540359 -0.598825
v 4.8467 6.19511 -26.7667
vn -0.665849 -0.51369 -0.54108
v 4.81249 6.21094 -26.7351
vn -0.734168 -0.482074 -0.478123
v 4.78182 6.2291 -26.7013
vn -0.795416 -0.445816 -0.410562
v 4.75499 6.24941 -26.6655
vn -0.849005 -0.405263 -0.339047
v 4.73225 6.27167 -26.628
vn -0.894416 -0.360808 -0.264267
v 4.71383 6.29567 -26.5893
vn -0.931214 -0.312879 -0.186942
v 4.69989 6.32117 -26.5497
vn -0.959044 -0.261936 -0.107816
v 4.69058 6.34795 -26.5096
vn -0.977638 -0.20847 -0.027652
v 4.68599 6.37572 -26.4693
vn -0.986816 -0.152997 0.0527783
v 4.68615 6.40424 -26.4293
vn -0.986491 -0.0960503 0.1327
v 4.69107 6.43321 -26.3899
vn -0.976666 -0.0381786 0.211344
v 4.7007 6.46238 -26.3515
vn -0.957434 0.0200607 0.287953
v 4.71494 6.49144 -26.3146
vn -0.928983 0.0781069 0.361788
v 4.73367 6.52013 -26.2793
vn -0.891584 0.135401 0.43214
v 4.7567 6.54817 -26.2462
vn -0.845599 0.191391 0.498329
v 4.7838 6.57528 -26.2155
vn -0.79147 0.245538 0.559719
v 4.81472 6.60121 -26.1874
vn -0.72972 0.29732 0.615719
v 4.84916 6.6257 -26.1623
vn -0.660941 0.346239 0.665789
v 4.88679 6.64853 -26.1405
vn -0.585798 0.391823 0.709448
v 4.92724 6.66946 -26.122
vn -0.505012 0.433634 0.746274
v 4.97012 6.68831 -26.1072
vn -0.419364 0.471268 0.775913
v 5.01503 6.70488 -26.0961
vn -0.329676 0.504364 0.798079
v 5.06153 6.71902 -26.0888
vn -0.236814 0.532603 0.81256
v 5.10917 6.73059 -26.0855
vn -0.141671 0.555713 0.819215
v 5.1575 6.73948 -26.0861
vn -0.0451631 0.573471 0.81798
v 5.20604 6.74561 -26.0907
vn 0.0517793 0.585705 0.808868
v 5.25433 6.74891 -26.0992
vn 0.148223 0.5923 0.791967
v 5.30191 6.74936 -26.1114
vn 0.243239 0.59319 0.767438
v 5.34831 6.74694 -26.1274
vn 0.335913 0.588367 0.735518
v 5.39309 6.74169 -26.147
vn 0.425352 0.577878 0.696515
v 5.43583 6.73365 -26.1698
vn 0.510694 0.561824 0.650804
v 5.4761 6.7229 -26.1959
vn 0.591118 0.540359 0.598825
v 5.51352 6.70955 -26.2248
vn 0.665849 0.51369 0.54108
v 5.54773 6.69372 -26.2563
vn 0.734168 0.482074 0.478123
v 5.5784 6.67556 -26.2901
vn 0.795416 0.445816 0.410562
v 5.60523 6.65526 -26.3259
vn 0.849005 0.405263 0.339047
v 5.62797 6.633 -26.3634
vn 0.894416 0.360808 0.264267
v 5.64639 6.609 -26.4021
vn 0.931214 0.312879 0.186942
v 5.66033 6.58349 -26.4417
vn 0.959044 0.261936 0.107816
v 5.66964 6.55672 -26.4819
vn 0.977638 0.20847 0.027652
v 5.67423 6.52894 -26.5221
vn 0.986816 0.152997 -0.0527783
v 5.67407 6.50043 -26.5622
vn 0.986491 0.0960503 -0.1327
v 5.66915 6.47145 -26.6015
vn 0.976666 0.0381786 -0.211344
v 5.65952 6.44229 -26.6399
vn 0.957434 -0.0200607 -0.287953
v 5.64527 6.41322 -26.6769
vn 0.928983 -0.0781069 -0.361788
v 5.62655 6.38453 -26.7121
vn 0.891584 -0.135401 -0.43214
v 5.60352 6.3565 -26.7452
vn 0.845599 -0.191391 -0.498329
v 5.57642 6.32938 -26.776
vn 0.79147 -0.245538 -0.559719
v 5.5455 6.30346 -26.804
vn 0.72972 -0.29732 -0.615719
v 5.51106 6.27896 -26.8291
vn 0.660941 -0.346239 -0.665789
v 5.47343 6.25614 -26.851
vn 0.585798 -0.391823 -0.709448
v 5.55055 5.06365 -25.7634
vn 0.527774 -0.61956 -0.581034
v 5.5112 5.0468 -25.7774
vn 0.442016 -0.656299 -0.611468
v 5.4699 5.03284 -25.7887
vn 0.352001 -0.686718 -0.636014
v 5.42704 5.02192 -25.7971
vn 0.258595 -0.710523 -0.654435
v 5.38304 5.01413 -25.8027
vn 0.1627 -0.727486 -0.666553
v 5.33832 5.00956 -25.8053
vn 0.0652373 -0.737443 -0.672252
v 5.29331 5.00825 -25.8049
vn -0.0328535 -0.740297 -0.671476
v 5.24845 5.01022 -25.8016
vn -0.130628 -0.736023 -0.664234
v 5.20416 5.01543 -25.7954
vn -0.227144 -0.724659 -0.650595
v 5.16088 5.02385 -25.7862
vn -0.321473 -0.706317 -0.630691
v 5.11902 5.03538 -25.7743
vn -0.412706 -0.681173 -0.604712
v 5.07898 5.04993 -25.7597
vn -0.499964 -0.649469 -0.57291
v 5.04115 5.06735 -25.7426
vn -0.582407 -0.61151 -0.535591
v 5.00589 5.08747 -25.7231
vn -0.659242 -0.567662 -0.493113
v 4.97355 5.1101 -25.7014
vn -0.729728 -0.518347 -0.445886
v 4.94443 5.13501 -25.6778
vn -0.793185 -0.464039 -0.394366
v 4.91882 5.16198 -25.6524
vn -0.849005 -0.405263 -0.339047
v 4.89696 5.19074 -25.6255
vn -0.896647 -0.342585 -0.280463
v 4.87906 5.22102 -25.5974
vn -0.935655 -0.276606 -0.219178
v 4.8653 5.25251 -25.5683
vn -0.965651 -0.207964 -0.155783
v 4.8558 5.28493 -25.5385
vn -0.986348 -0.137319 -0.0908866
v 4.85066 5.31795 -25.5084
vn -0.997546 -0.065352 -0.0251153
v 4.84993 5.35126 -25.4781
vn -0.999137 0.0072447 0.0408978
v 4.85362 5.38454 -25.448
vn -0.991106 0.0797717 0.106517
v 4.86168 5.41747 -25.4183
vn -0.97353 0.15153 0.17111
v 4.87405 5.44972 -25.3894
vn -0.946578 0.22183 0.234056
v 4.8906 5.481 -25.3616
vn -0.91051 0.289993 0.294747
v 4.91117 5.51099 -25.3351
vn -0.865673 0.355363 0.3526
v 4.93557 5.53942 -25.3101
vn -0.8125 0.417311 0.407057
v 4.96356 5.566 -25.2869
vn -0.751501 0.47524 0.457594
v 4.99487 5.59048 -25.2657
vn -0.683266 0.528592 0.503725
v 5.0292 5.61262 -25.2468
vn -0.60845 0.576854 0.545003
v 5.06622 5.63222 -25.2302
vn -0.527774 0.61956 0.581034
v 5.10557 5.64908 -25.2163
vn -0.442016 0.656299 0.611468
v 5.14687 5.66303 -25.205
vn -0.352001 0.686718 0.636014
v 5.18973 5.67396 -25.1966
vn -0.258595 0.710523 0.654435
v 5.23373 5.68174 -25.191
vn -0.1627 0.727486 0.666553
v 5.27845 5.68631 -25.1884
vn -0.0652373 0.737443 0.672252
v 5.32346 5.68762 -25.1887
vn 0.0328535 0.740297 0.671476
v 5.36832 5.68566 -25.1921
vn 0.130628 0.736023 0.664234
v 5.41261 5.68044 -25.1983
vn 0.227144 0.724659 0.650595
v 5.45589 5.67203 -25.2075
vn 0.321473 0.706317 0.630691
v 5.49775 5.66049 -25.2194
vn 0.412706 0.681173 0.604712
v 5.53779 5.64594 -25.234
vn 0.499964 0.649469 0.57291
v 5.57562 5.62853 -25.2511
vn 0.582407 0.61151 0.535591
v 5.61087 5.60841 -25.2706
vn 0.659242 0.567662 0.493113
v 5.64322 5.58578 -25.2923
vn 0.729728 0.518347 0.445886
v 5.67233 5.56086 -25.3159
vn 0.793185 0.464039 0.394366
v 5.69795 5.53389 -25.3413
vn 0.849005 0.405263 0.339047
v 5.71981 5.50513 -25.3682
vn 0.896647 0.342585 0.280463
v 5.73771 5.47486 -25.3963
vn 0.935655 0.276606 0.219178
v 5.75147 5.44336 -25.4254
vn 0.965651 0.207964 0.155783
v 5.76097 5.41095 -25.4551
vn 0.986348 0.137319 0.0908866
v 5.7661 5.37792 -25.4853
vn 0.997546 0.065352 0.0251153
v 5.76683 5.34461 -25.5156
vn 0.999137 -0.0072447 -0.0408978
v 5.76315 5.31133 -25.5457
vn 0.991106 -0.0797717 -0.106517
v 5.75508 5.27841 -25.5754
vn 0.97353 -0.15153 -0.17111
v 5.74272 5.24615 -25.6042
vn 0.946578 -0.22183 -0.234056
v 5.72617 5.21488 -25.6321
vn 0.91051 -0.289993 -0.294747
v 5.70559 5.18488 -25.6586
vn 0.865673 -0.355363 -0.3526
v 5.6812 5.15646 -25.6836
vn 0.8125 -0.417311 -0.407057
v 5.65321 5.12988 -25.7068
vn 0.751501 -0.47524 -0.457594
v 5.6219 5.10539 -25.728
vn 0.683266 -0.528592 -0.503725
v 5.58757 5.08325 -25.7469
vn 0.60845 -0.576854 -0.545003
v 5.48134 3.95957 -24.2704
vn 0.523983 -0.728406 -0.441436
v 5.44559 3.94447 -24.2834
vn 0.438243 -0.764621 -0.472543
v 5.40808 3.93244 -24.2945
vn 0.348282 -0.793473 -0.499099
v 5.36917 3.92359 -24.3035
vn 0.254968 -0.814683 -0.520848
v 5.32924 3.91802 -24.3105
vn 0.159197 -0.828047 -0.537582
v 5.28867 3.91577 -24.3153
vn 0.0618939 -0.833437 -0.549138
v 5.24785 3.91687 -24.3179
vn -0.0360056 -0.8308 -0.555405
v 5.20717 3.92131 -24.3183
vn -0.133558 -0.820162 -0.556324
v 5.16703 3.92904 -24.3165
vn -0.229825 -0.801626 -0.551885
v 5.12781 3.93999 -24.3124
vn -0.323878 -0.775369 -0.542131
v 5.0899 3.95405 -24.3062
vn -0.414812 -0.741645 -0.527156
v 5.05365 3.97109 -24.2978
vn -0.501751 -0.700779 -0.507104
v 5.01941 3.99094 -24.2874
vn -0.583858 -0.653164 -0.482169
v 4.98752 4.01342 -24.2751
vn -0.660342 -0.599258 -0.45259
v 4.95828 4.0383 -24.2609
vn -0.730467 -0.539581 -0.418652
v 4.93197 4.06535 -24.2451
vn -0.793557 -0.474708 -0.380683
v 4.90885 4.09431 -24.2277
vn -0.849005 -0.405263 -0.339047
v 4.88914 4.12489 -24.209
vn -0.896276 -0.331916 -0.294146
v 4.87303 4.15681 -24.1891
vn -0.934915 -0.255371 -0.246412
v 4.86067 4.18975 -24.1682
vn -0.964551 -0.176368 -0.196306
v 4.85219 4.2234 -24.1465
vn -0.984898 -0.0956656 -0.144308
v 4.84766 4.25743 -24.1243
vn -0.995759 -0.0140422 -0.0909211
v 4.84713 4.29152 -24.1016
vn -0.997031 0.0677166 -0.0366584
v 4.8506 4.32534 -24.0789
vn -0.988701 0.148823 0.0179574
v 4.85805 4.35856 -24.0562
vn -0.970849 0.228496 0.0724002
v 4.86939 4.39087 -24.0338
vn -0.943647 0.305969 0.126146
v 4.88452 4.42194 -24.0119
vn -0.907358 0.380495 0.178677
v 4.9033 4.45149 -23.9907
vn -0.86233 0.451357 0.229486
v 4.92554 4.47922 -23.9704
vn -0.808997 0.517872 0.278086
v 4.95102 4.50488 -23.9513
vn -0.747874 0.5794 0.324008
v 4.97951 4.52821 -23.9334
vn -0.679548 0.635347 0.366809
v 5.01073 4.54898 -23.917
vn -0.604677 0.685176 0.406078
v 5.04438 4.56701 -23.9023
vn -0.523983 0.728406 0.441436
v 5.08013 4.58211 -23.8893
vn -0.438243 0.764621 0.472543
v 5.11764 4.59414 -23.8783
vn -0.348282 0.793473 0.499099
v 5.15655 4.60298 -23.8692
vn -0.254968 0.814683 0.520848
v 5.19648 4.60856 -23.8622
vn -0.159197 0.828047 0.537582
v 5.23705 4.6108 -23.8574
vn -0.0618939 0.833437 0.549138
v 5.27787 4.6097 -23.8548
vn 0.0360056 0.8308 0.555405
v 5.31855 4.60527 -23.8544
vn 0.133558 0.820162 0.556324
v 5.35869 4.59754 -23.8562
vn 0.229825 0.801626 0.551885
v 5.39791 4.58659 -23.8603
vn 0.323878 0.775369 0.542131
v 5.43582 4.57253 -23.8666
vn 0.414812 0.741645 0.527156
v 5.47207 4.55549 -23.8749
vn 0.501751 0.700779 0.507104
v 5.50631 4.53564 -23.8853
vn 0.583858 0.653164 0.482169
v 5.5382 4.51316 -23.8976
vn 0.660342 0.599258 0.45259
v 5.56744 4.48828 -23.9118
vn 0.730467 0.539581 0.418652
v 5.59375 4.46123 -23.9276
vn 0.793557 0.474708 0.380683
v 5.61687 4.43227 -23.945
vn 0.849005 0.405263 0.339047
v 5.63658 4.40169 -23.9637
vn 0.896276 0.331916 0.294146
v 5.65269 4.36977 -23.9836
vn 0.934915 0.255371 0.246412
v 5.66504 4.33683 -24.0045
vn 0.964551 0.176368 0.196306
v 5.67353 4.30318 -24.0262
vn 0.984898 0.0956656 0.144308
v 5.67806 4.26914 -24.0485
vn 0.995759 0.0140422 0.0909211
v 5.67859 4.23505 -24.0711
vn 0.997031 -0.0677166 0.0366584
v 5.67511 4.20123 -24.0939
vn 0.988701 -0.148823 -0.0179574
v 5.66767 4.16801 -24.1166
vn 0.970849 -0.228496 -0.0724002
v 5.65633 4.13571 -24.139
vn 0.943647 -0.305969 -0.126146
v 5.6412 4.10463 -24.1609
vn 0.907358 -0.380495 -0.178677
v 5.62242 4.07509 -24.1821
vn 0.86233 -0.451357 -0.229486
v 5.60018 4.04735 -24.2023
vn 0.808997 -0.517872 -0.278086
v 5.5747 4.0217 -24.2215
vn 0.747874 -0.5794 -0.324008
v 5.54621 3.99837 -24.2393
vn 0.679548 -0.635347 -0.366809
v 5.51499 3.97759 -24.2557
vn 0.604677 -0.685176 -0.406078
v 5.23537 2.9015 -22.3898
vn 0.511432 -0.791519 -0.334567
v 5.20323 2.88803 -22.4016
vn 0.425752 -0.82743 -0.366189
v 5.16956 2.87755 -22.4122
vn 0.335972 -0.855373 -0.394284
v 5.13467 2.87015 -22.4213
vn 0.242957 -0.875078 -0.418581
v 5.0989 2.86592 -22.4289
vn 0.147601 -0.886356 -0.438848
v 5.0626 2.8649 -22.4349
vn 0.0508245 -0.889097 -0.454888
v 5.02612 2.86708 -22.4393
vn -0.0464418 -0.883276 -0.466547
v 4.9898 2.87245 -22.442
vn -0.143261 -0.868949 -0.473713
v 4.954 2.88097 -22.4429
vn -0.2387 -0.846253 -0.476317
v 4.91907 2.89254 -22.4422
vn -0.331841 -0.815407 -0.474334
v 4.88533 2.90705 -22.4397
vn -0.421785 -0.776709 -0.467783
v 4.85312 2.92437 -22.4356
vn -0.507668 -0.73053 -0.456727
v 4.82274 2.94433 -22.4298
vn -0.588661 -0.677316 -0.441272
v 4.79448 2.96674 -22.4224
vn -0.663986 -0.617579 -0.421568
v 4.76863 2.99138 -22.4135
vn -0.732916 -0.551894 -0.397803
v 4.74542 3.01801 -22.4031
vn -0.794787 -0.480894 -0.370208
v 4.72509 3.04638 -22.3915
vn -0.849005 -0.405263 -0.339047
v 4.70782 3.07621 -22.3785
vn -0.895045 -0.32573 -0.304621
v 4.69378 3.10722 -22.3645
vn -0.932467 -0.243059 -0.267261
v 4.68311 3.1391 -22.3495
vn -0.960907 -0.158047 -0.227328
v 4.67592 3.17156 -22.3337
vn -0.980094 -0.0715134 -0.185205
v 4.67226 3.20428 -22.3173
vn -0.989842 0.015709 -0.141299
v 4.67218 3.23694 -22.3003
vn -0.990058 0.10278 -0.0960316
v 4.67568 3.26922 -22.283
vn -0.980738 0.188861 -0.0498395
v 4.68271 3.30083 -22.2655
vn -0.961974 0.273124 -0.00316754
v 4.69323 3.33145 -22.2479
vn -0.933945 0.354756 0.043535
v 4.70711 3.36079 -22.2306
vn -0.896922 0.432972 0.0898182
v 4.72424 3.38856 -22.2136
vn -0.85126 0.507018 0.135236
v 4.74444 3.4145 -22.197
vn -0.797401 0.576181 0.179352
v 4.76752 3.43836 -22.1811
vn -0.735863 0.639795 0.221741
v 4.79327 3.45991 -22.166
vn -0.667237 0.697247 0.261994
v 4.82142 3.47894 -22.1519
vn -0.592186 0.747985 0.299724
v 4.85171 3.49527 -22.1388
vn -0.511432 0.791519 0.334567
v 4.88384 3.50874 -22.1269
vn -0.425752 0.82743 0.366189
v 4.91752 3.51922 -22.1164
vn -0.335972 0.855373 0.394284
v 4.95241 3.52661 -22.1073
vn -0.242957 0.875078 0.418581
v 4.98817 3.53084 -22.0997
vn -0.147601 0.886356 0.438848
v 5.02447 3.53187 -22.0937
vn -0.0508245 0.889097 0.454888
v 5.06096 3.52969 -22.0893
vn 0.0464418 0.883276 0.466547
v 5.09727 3.52432 -22.0866
vn 0.143261 0.868949 0.473713
v 5.13307 3.5158 -22.0856
vn 0.2387 0.846253 0.476317
v 5.16801 3.50423 -22.0864
vn 0.331841 0.815407 0.474334
v 5.20174 3.48972 -22.0888
vn 0.421785 0.776709 0.467783
v 5.23396 3.4724 -22.093
vn 0.507668 0.73053 0.456727
v 5.26434 3.45244 -22.0988
vn 0.588661 0.677316 0.441272
v 5.29259 3.43003 -22.1062
vn 0.663986 0.617579 0.421568
v 5.31844 3.40539 -22.1151
vn 0.732916 0.551894 0.397803
v 5.34165 3.37876 -22.1254
vn 0.794787 0.480894 0.370208
v 5.36199 3.35039 -22.1371
vn 0.849005 0.405263 0.339047
v 5.37926 3.32056 -22.15
vn 0.895045 0.32573 0.304621
v 5.39329 3.28955 -22.164
vn 0.932467 0.243059 0.267261
v 5.40396 3.25767 -22.179
vn 0.960907 0.158047 0.227328
v 5.41116 3.22521 -22.1948
vn 0.980094 0.0715134 0.185205
v 5.41481 3.19249 -22.2113
vn 0.989842 -0.015709 0.141299
v 5.41489 3.15983 -22.2283
vn 0.990058 -0.10278 0.0960316
v 5.4114 3.12755 -22.2456
vn 0.980738 -0.188861 0.0498395
v 5.40436 3.09594 -22.2631
vn 0.961974 -0.273124 0.00316754
v 5.39385 3.06532 -22.2806
vn 0.933945 -0.354756 -0.043535
v 5.37996 3.03598 -22.298
vn 0.896922 -0.432972 -0.0898182
v 5.36283 3.00821 -22.315
vn 0.85126 -0.507018 -0.135236
v 5.34263 2.98227 -22.3316
vn 0.797401 -0.576181 -0.179352
v 5.31955 2.95841 -22.3475
vn 0.735863 -0.639795 -0.221741
v 5.29381 2.93686 -22.3625
vn 0.667237 -0.697247 -0.261994
v 5.26566 2.91783 -22.3767
vn 0.592186 -0.747985 -0.299724
v 4.81616 1.87685 -20.1153
vn 0.497417 -0.829454 -0.254131
v 4.78763 1.86494 -20.1259
vn 0.411805 -0.865182 -0.28614
v 4.75778 1.85581 -20.1357
vn 0.322227 -0.892579 -0.315393
v 4.7269 1.84955 -20.1444
vn 0.229546 -0.911379 -0.341608
v 4.69528 1.84621 -20.1521
vn 0.134654 -0.921403 -0.364534
v 4.66323 1.84583 -20.1585
vn 0.038465 -0.922553 -0.383949
v 4.63106 1.8484 -20.1638
vn -0.0580942 -0.914818 -0.399667
v 4.59907 1.85392 -20.1677
vn -0.154094 -0.898273 -0.411535
v 4.56758 1.86231 -20.1703
vn -0.24861 -0.873077 -0.41944
v 4.53688 1.87351 -20.1716
vn -0.340731 -0.839473 -0.423306
v 4.50728 1.8874 -20.1716
vn -0.429571 -0.797784 -0.423095
v 4.47906 1.90385 -20.1701
vn -0.514274 -0.748412 -0.418809
v 4.45248 1.9227 -20.1674
vn -0.594025 -0.691833 -0.41049
v 4.42782 1.94378 -20.1633
vn -0.668054 -0.628591 -0.398218
v 4.40529 1.96687 -20.1579
vn -0.73565 -0.559295 -0.382111
v 4.38513 1.99175 -20.1513
vn -0.796161 -0.484613 -0.362324
v 4.36752 2.01819 -20.1436
vn -0.849005 -0.405263 -0.339047
v 4.35264 2.04593 -20.1347
vn -0.893672 -0.322011 -0.312505
v 4.34062 2.0747 -20.1249
vn -0.929732 -0.235658 -0.282954
v 4.33159 2.10423 -20.1141
vn -0.956839 -0.147035 -0.250677
v 4.32563 2.13424 -20.1026
vn -0.974731 -0.0569964 -0.215987
v 4.32279 2.16442 -20.0903
vn -0.983236 0.0335913 -0.179216
v 4.32312 2.1945 -20.0775
vn -0.982272 0.123856 -0.14072
v 4.32659 2.22418 -20.0642
vn -0.971848 0.212927 -0.100868
v 4.33318 2.25317 -20.0506
vn -0.952064 0.299948 -0.0600447
v 4.34283 2.2812 -20.0368
vn -0.923112 0.38408 -0.0186433
v 4.35544 2.30801 -20.0229
vn -0.885269 0.464513 0.0229377
v 4.37089 2.33332 -20.0092
vn -0.838901 0.540473 0.0642978
v 4.38903 2.35689 -19.9956
vn -0.784454 0.611228 0.105039
v 4.40969 2.37851 -19.9824
vn -0.722452 0.676096 0.144768
v 4.43267 2.39795 -19.9696
vn -0.653492 0.734453 0.183103
v 4.45774 2.41504 -19.9574
vn -0.578239 0.785737 0.219675
v 4.48467 2.42961 -19.9459
vn -0.497417 0.829454 0.254131
v 4.5132 2.44151 -19.9352
vn -0.411805 0.865182 0.28614
v 4.54305 2.45064 -19.9255
vn -0.322227 0.892579 0.315393
v 4.57393 2.4569 -19.9168
vn -0.229546 0.911379 0.341608
v 4.60555 2.46024 -19.9091
vn -0.134654 0.921403 0.364534
v 4.6376 2.46063 -19.9027
vn -0.038465 0.922553 0.383949
v 4.66977 2.45805 -19.8974
vn 0.0580942 0.914818 0.399667
v 4.70176 2.45254 -19.8935
vn 0.154094 0.898273 0.411535
v 4.73325 2.44414 -19.8908
vn 0.24861 0.873077 0.41944
v 4.76395 2.43294 -19.8895
vn 0.340731 0.839473 0.423306
v 4.79355 2.41905 -19.8896
vn 0.429571 0.797784 0.423095
v 4.82178 2.4026 -19.891
vn 0.514274 0.748412 0.418809
v 4.84835 2.38375 -19.8938
vn 0.594025 0.691833 0.41049
v 4.87302 2.36268 -19.8979
vn 0.668054 0.628591 0.398218
v 4.89554 2.33959 -19.9033
vn 0.73565 0.559295 0.382111
v 4.9157 2.3147 -19.9099
vn 0.796161 0.484613 0.362324
v 4.93331 2.28826 -19.9176
vn 0.849005 0.405263 0.339047
v 4.94819 2.26052 -19.9265
vn 0.893672 0.322011 0.312505
v 4.96021 2.23175 -19.9363
vn 0.929732 0.235658 0.282954
v 4.96924 2.20222 -19.9471
vn 0.956839 0.147035 0.250677
v 4.9752 2.17222 -19.9586
vn 0.974731 0.0569964 0.215987
v 4.97804 2.14203 -19.9709
vn 0.983236 -0.0335913 0.179216
v 4.97772 2.11196 -19.9837
vn 0.982272 -0.123856 0.14072
v 4.97424 2.08228 -19.997
vn 0.971848 -0.212927 0.100868
v 4.96765 2.05328 -20.0106
vn 0.952064 -0.299948 0.0600447
v 4.958 2.02525 -20.0244
vn 0.923112 -0.38408 0.0186433
v 4.94539 1.99845 -20.0382
vn 0.885269 -0.464513 -0.0229377
v 4.92994 1.97314 -20.052
vn 0.838901 -0.540473 -0.0642978
v 4.9118 1.94956 -20.0656
vn 0.784454 -0.611228 -0.105039
v 4.89114 1.92795 -20.0788
vn 0.722452 -0.676096 -0.144768
v 4.86816 1.9085 -20.0916
vn 0.653492 -0.734453 -0.183103
v 4.84309 1.89141 -20.1038
vn 0.578239 -0.785737 -0.219675
v 4.2246 0.879213 -17.4415
vn 0.48436 -0.853342 -0.19288
v 4.19968 0.868837 -17.4509
vn 0.398811 -0.888956 -0.225183
v 4.17364 0.860956 -17.4597
vn 0.30942 -0.916008 -0.255318
v 4.14673 0.855645 -17.4677
vn 0.21705 -0.934239 -0.282995
v 4.11921 0.852955 -17.475
vn 0.12259 -0.943473 -0.307945
v 4.09135 0.852912 -17.4814
vn 0.0269493 -0.943621 -0.32993
v 4.06341 0.855517 -17.4869
vn -0.0689511 -0.93468 -0.348738
v 4.03566 0.860743 -17.4914
vn -0.164188 -0.916739 -0.364187
v 4.00838 0.868542 -17.4949
vn -0.257843 -0.889969 -0.376129
v 3.98182 0.878838 -17.4973
vn -0.349015 -0.854627 -0.384448
v 3.95624 0.891532 -17.4986
vn -0.436826 -0.811056 -0.389066
v 3.93188 0.906501 -17.4989
vn -0.520429 -0.759673 -0.389936
v 3.90898 0.923601 -17.4981
vn -0.599021 -0.700975 -0.38705
v 3.88777 0.942669 -17.4961
vn -0.671844 -0.635525 -0.380438
v 3.86844 0.963519 -17.4931
vn -0.738197 -0.563955 -0.370161
v 3.85118 0.985951 -17.4891
vn -0.797441 -0.486954 -0.35632
v 3.83616 1.00975 -17.4841
vn -0.849005 -0.405263 -0.339047
v 3.82352 1.03469 -17.4781
vn -0.892392 -0.31967 -0.318509
v 3.81338 1.06052 -17.4712
vn -0.927185 -0.230998 -0.294903
v 3.80585 1.087 -17.4635
vn -0.953049 -0.140101 -0.268458
v 3.80099 1.11387 -17.455
vn -0.969734 -0.0478547 -0.239427
v 3.79885 1.14088 -17.4459
vn -0.977081 0.0448523 -0.20809
v 3.79945 1.16776 -17.4362
vn -0.975017 0.137127 -0.174749
v 3.80278 1.19426 -17.426
vn -0.963564 0.228082 -0.139725
v 3.80882 1.22012 -17.4154
vn -0.942831 0.31684 -0.103356
v 3.81751 1.24509 -17.4045
vn -0.913018 0.402546 -0.0659911
v 3.82876 1.26893 -17.3934
vn -0.874412 0.484376 -0.0279907
v 3.84246 1.29141 -17.3823
vn -0.827385 0.561541 0.0102791
v 3.85848 1.31231 -17.3712
vn -0.77239 0.633298 0.04845
v 3.87667 1.33144 -17.3602
vn -0.709956 0.698956 0.0861543
v 3.89685 1.34861 -17.3495
vn -0.640686 0.757882 0.123029
v 3.91882 1.36365 -17.3391
vn -0.565245 0.80951 0.158719
v 3.94239 1.37642 -17.3291
vn -0.48436 0.853342 0.19288
v 3.96731 1.38679 -17.3197
vn -0.398811 0.888956 0.225183
v 3.99335 1.39467 -17.3109
vn -0.30942 0.916008 0.255318
v 4.02026 1.39998 -17.3028
vn -0.21705 0.934239 0.282995
v 4.04778 1.40267 -17.2956
vn -0.12259 0.943473 0.307945
v 4.07564 1.40272 -17.2892
vn -0.0269493 0.943621 0.32993
v 4.10358 1.40011 -17.2837
vn 0.0689511 0.93468 0.348738
v 4.13133 1.39489 -17.2792
vn 0.164188 0.916739 0.364187
v 4.15861 1.38709 -17.2757
vn 0.257843 0.889969 0.376129
v 4.18517 1.37679 -17.2733
vn 0.349015 0.854627 0.384448
v 4.21076 1.3641 -17.2719
vn 0.436826 0.811056 0.389066
v 4.23511 1.34913 -17.2717
vn 0.520429 0.759673 0.389936
v 4.25801 1.33203 -17.2725
vn 0.599021 0.700975 0.38705
v 4.27922 1.31296 -17.2745
vn 0.671844 0.635525 0.380438
v 4.29855 1.29211 -17.2775
vn 0.738197 0.563955 0.370161
v 4.31581 1.26968 -17.2815
vn 0.797441 0.486954 0.35632
v 4.33083 1.24588 -17.2865
vn 0.849005 0.405263 0.339047
v 4.34347 1.22094 -17.2925
vn 0.892392 0.31967 0.318509
v 4.35361 1.19511 -17.2994
vn 0.927185 0.230998 0.294903
v 4.36114 1.16863 -17.3071
vn 0.953049 0.140101 0.268458
v 4.36601 1.14176 -17.3155
vn 0.969734 0.0478547 0.239427
v 4.36815 1.11475 -17.3247
vn 0.977081 -0.0448523 0.20809
v 4.36754 1.08787 -17.3344
vn 0.975017 -0.137127 0.174749
v 4.36421 1.06137 -17.3446
vn 0.963564 -0.228082 0.139725
v 4.35817 1.03551 -17.3552
vn 0.942831 -0.31684 0.103356
v 4.34948 1.01054 -17.3661
vn 0.913018 -0.402546 0.0659911
v 4.33824 0.986703 -17.3771
vn 0.874412 -0.484376 0.0279907
v 4.32454 0.964222 -17.3883
vn 0.827385 -0.561541 -0.0102791
v 4.30851 0.943318 -17.3994
vn 0.77239 -0.633298 -0.04845
v 4.29033 0.92419 -17.4104
vn 0.709956 -0.698956 -0.0861543
v 4.27014 0.907023 -17.4211
vn 0.640686 -0.757882 -0.123029
v 4.24817 0.891982 -17.4315
vn 0.565245 -0.80951 -0.158719
v 3.46073 -0.0946403 -14.3646
vn 0.472867 -0.869072 -0.145298
v 3.43941 -0.103505 -14.3728
vn 0.387373 -0.90461 -0.177831
v 3.41715 -0.110197 -14.3804
vn 0.298148 -0.931436 -0.208651
v 3.39418 -0.114651 -14.3876
vn 0.206052 -0.949292 -0.237462
v 3.37071 -0.116825 -14.3942
vn 0.111972 -0.958005 -0.263985
v 3.34697 -0.116697 -14.4002
vn 0.0168131 -0.957493 -0.287967
v 3.32319 -0.114269 -14.4055
vn -0.0785075 -0.947759 -0.309175
v 3.29961 -0.109564 -14.4101
vn -0.173072 -0.928898 -0.327406
v 3.27643 -0.102627 -14.4138
vn -0.26597 -0.901091 -0.342484
v 3.2539 -0.0935263 -14.4168
vn -0.356306 -0.864606 -0.354263
v 3.23222 -0.0823482 -14.4188
vn -0.443211 -0.819795 -0.36263
v 3.21161 -0.0692007 -14.4201
vn -0.525847 -0.767088 -0.367506
v 3.19226 -0.0542104 -14.4204
vn -0.60342 -0.706994 -0.368842
v 3.17436 -0.0375216 -14.4198
vn -0.675181 -0.640091 -0.366625
v 3.15808 -0.0192952 -14.4184
vn -0.740439 -0.567024 -0.360878
v 3.14358 0.000293435 -14.4161
vn -0.798567 -0.488496 -0.351656
v 3.131 0.0210556 -14.413
vn -0.849005 -0.405263 -0.339047
v 3.12045 0.0427913 -14.409
vn -0.891265 -0.318128 -0.323173
v 3.11205 0.0652912 -14.4043
vn -0.924943 -0.227929 -0.304186
v 3.10587 0.0883387 -14.3988
vn -0.949713 -0.135535 -0.28227
v 3.10198 0.111712 -14.3927
vn -0.965336 -0.0418352 -0.257635
v 3.1004 0.135185 -14.3859
vn -0.971663 0.0522671 -0.23052
v 3.10115 0.158533 -14.3786
vn -0.968632 0.145866 -0.201184
v 3.10424 0.181531 -14.3708
vn -0.956273 0.23806 -0.169911
v 3.10962 0.203957 -14.3626
vn -0.934704 0.327962 -0.137001
v 3.11724 0.225595 -14.354
vn -0.904134 0.414705 -0.102772
v 3.12704 0.246236 -14.3452
vn -0.864856 0.497454 -0.0675536
v 3.13892 0.265683 -14.3363
vn -0.817249 0.575413 -0.0316843
v 3.15276 0.283747 -14.3273
vn -0.761772 0.64783 0.00449009
v 3.16842 0.300255 -14.3183
vn -0.698958 0.714008 0.0406213
v 3.18577 0.315048 -14.3093
vn -0.629413 0.77331 0.0763613
v 3.20463 0.327983 -14.3006
vn -0.553807 0.825164 0.111366
v 3.22482 0.338935 -14.2921
vn -0.472867 0.869072 0.145298
v 3.24615 0.3478 -14.284
vn -0.387373 0.90461 0.177831
v 3.26841 0.354492 -14.2763
vn -0.298148 0.931436 0.208651
v 3.29138 0.358946 -14.2692
vn -0.206052 0.949292 0.237462
v 3.31485 0.36112 -14.2625
vn -0.111972 0.958005 0.263985
v 3.33858 0.360992 -14.2566
vn -0.0168131 0.957493 0.287967
v 3.36236 0.358564 -14.2513
vn 0.0785075 0.947759 0.309175
v 3.38595 0.353859 -14.2467
vn 0.173072 0.928898 0.327406
v 3.40912 0.346922 -14.243
vn 0.26597 0.901091 0.342484
v 3.43166 0.337821 -14.24
vn 0.356306 0.864606 0.354263
v 3.45334 0.326643 -14.2379
vn 0.443211 0.819795 0.36263
v 3.47395 0.313496 -14.2367
vn 0.525847 0.767088 0.367506
v 3.4933 0.298505 -14.2364
vn 0.60342 0.706994 0.368842
v 3.5112 0.281817 -14.2369
vn 0.675181 0.640091 0.366625
v 3.52748 0.26359 -14.2384
vn 0.740439 0.567024 0.360878
v 3.54198 0.244002 -14.2407
vn 0.798567 0.488496 0.351656
v 3.55456 0.22324 -14.2438
vn 0.849005 0.405263 0.339047
v 3.5651 0.201504 -14.2478
vn 0.891265 0.318128 0.323173
v 3.5735 0.179004 -14.2525
vn 0.924943 0.227929 0.304186
v 3.57968 0.155956 -14.258
vn 0.949713 0.135535 0.28227
v 3.58358 0.132583 -14.2641
vn 0.965336 0.0418352 0.257635
v 3.58516 0.10911 -14.2709
vn 0.971663 -0.0522671 0.23052
v 3.5844 0.0857616 -14.2782
vn 0.968632 -0.145866 0.201184
v 3.58132 0.062764 -14.286
vn 0.956273 -0.23806 0.169911
v 3.57594 0.0403382 -14.2942
vn 0.934704 -0.327962 0.137001
v 3.56831 0.0187004 -14.3028
vn 0.904134 -0.414705 0.102772
v 3.55851 -0.00194125 -14.3115
vn 0.864856 -0.497454 0.0675536
v 3.54664 -0.0213878 -14.3205
vn 0.817249 -0.575413 0.0316843
v 3.5328 -0.0394521 -14.3295
vn 0.761772 -0.64783 -0.00449009
v 3.51713 -0.05596 -14.3385
vn 0.698958 -0.714008 -0.0406213
v 3.49978 -0.0707527 -14.3474
vn 0.629413 -0.77331 -0.0763613
v 3.48092 -0.0836876 -14.3562
vn 0.553807 -0.825164 -0.111366
v 2.52435 -1.0464 -10.8822
vn 0.462935 -0.879843 -0.107552
v 2.50662 -1.05377 -10.889
vn 0.377488 -0.915329 -0.140267
v 2.48813 -1.0593 -10.8955
vn 0.288407 -0.942 -0.17163
v 2.46906 -1.06296 -10.9017
vn 0.196548 -0.959599 -0.201341
v 2.4496 -1.06469 -10.9074
vn 0.102796 -0.967957 -0.229113
v 2.42993 -1.06449 -10.9127
vn 0.00805387 -0.966992 -0.254678
v 2.41025 -1.06236 -10.9175
vn -0.0867656 -0.956715 -0.277791
v 2.39074 -1.05831 -10.9218
vn -0.18075 -0.937224 -0.298228
v 2.3716 -1.05239 -10.9254
vn -0.272993 -0.908708 -0.315793
v 2.353 -1.04466 -10.9284
vn -0.362607 -0.87144 -0.330317
v 2.33512 -1.03518 -10.9308
vn -0.448729 -0.825779 -0.34166
v 2.31814 -1.02405 -10.9325
vn -0.530529 -0.772166 -0.349712
v 2.30222 -1.01138 -10.9334
vn -0.607221 -0.711116 -0.354397
v 2.28752 -0.997285 -10.9337
vn -0.678064 -0.643218 -0.355668
v 2.27417 -0.981906 -10.9333
vn -0.742377 -0.569125 -0.353515
v 2.2623 -0.965389 -10.9321
vn -0.799541 -0.489552 -0.347956
v 2.25204 -0.947893 -10.9303
vn -0.849005 -0.405263 -0.339047
v 2.24347 -0.929588 -10.9277
vn -0.890292 -0.317072 -0.326872
v 2.23667 -0.910648 -10.9246
vn -0.923005 -0.225828 -0.31155
v 2.23173 -0.891257 -10.9207
vn -0.946829 -0.132408 -0.293227
v 2.22868 -0.871602 -10.9164
vn -0.961535 -0.0377132 -0.27208
v 2.22755 -0.851871 -10.9114
vn -0.966981 0.0573448 -0.248313
v 2.22835 -0.832255 -10.906
vn -0.963114 0.15185 -0.222154
v 2.23108 -0.812942 -10.9001
vn -0.949972 0.244894 -0.193857
v 2.2357 -0.794118 -10.8939
vn -0.927681 0.335579 -0.163692
v 2.24219 -0.775966 -10.8873
vn -0.896456 0.423032 -0.13195
v 2.25046 -0.758659 -10.8804
vn -0.856598 0.506411 -0.0989381
v 2.26044 -0.742365 -10.8734
vn -0.80849 0.584913 -0.0649731
v 2.27205 -0.727239 -10.8662
vn -0.752596 0.657782 -0.0303824
v 2.28515 -0.713429 -10.859
vn -0.689454 0.724316 0.00450083
v 2.29964 -0.701067 -10.8517
vn -0.619672 0.783874 0.0393408
v 2.31536 -0.690271 -10.8446
vn -0.543922 0.835884 0.0738018
v 2.33217 -0.681147 -10.8376
vn -0.462935 0.879843 0.107552
v 2.34991 -0.673781 -10.8308
vn -0.377488 0.915329 0.140267
v 2.3684 -0.668245 -10.8243
vn -0.288407 0.942 0.17163
v 2.38746 -0.664592 -10.8181
vn -0.196548 0.959599 0.201341
v 2.40692 -0.662857 -10.8123
vn -0.102796 0.967957 0.229113
v 2.42659 -0.663057 -10.807
vn -0.00805387 0.966992 0.254678
v 2.44627 -0.66519 -10.8022
vn 0.0867656 0.956715 0.277791
v 2.46578 -0.669236 -10.798
vn 0.18075 0.937224 0.298228
v 2.48493 -0.675155 -10.7943
vn 0.272993 0.908708 0.315793
v 2.50353 -0.682891 -10.7913
vn 0.362607 0.87144 0.330317
v 2.5214 -0.692369 -10.789
vn 0.448729 0.825779 0.34166
v 2.53838 -0.703497 -10.7873
vn 0.530529 0.772166 0.349712
v 2.5543 -0.716169 -10.7863
vn 0.607221 0.711116 0.354397
v 2.56901 -0.730262 -10.7861
vn 0.678064 0.643218 0.355668
v 2.58235 -0.745642 -10.7865
vn 0.742377 0.569125 0.353515
v 2.59422 -0.762159 -10.7877
vn 0.799541 0.489552 0.347956
v 2.60449 -0.779654 -10.7895
vn 0.849005 0.405263 0.339047
v 2.61306 -0.79796 -10.792
vn 0.890292 0.317072 0.326872
v 2.61985 -0.816899 -10.7952
vn 0.923005 0.225828 0.31155
v 2.62479 -0.83629 -10.799
vn 0.946829 0.132408 0.293227
v 2.62785 -0.855946 -10.8034
vn 0.961535 0.0377132 0.27208
v 2.62898 -0.875677 -10.8083
vn 0.966981 -0.0573448 0.248313
v 2.62817 -0.895293 -10.8138
vn 0.963114 -0.15185 0.222154
v 2.62544 -0.914606 -10.8196
vn 0.949972 -0.244894 0.193857
v 2.62082 -0.933429 -10.8259
vn 0.927681 -0.335579 0.163692
v 2.61434 -0.951582 -10.8325
vn 0.896456 -0.423032 0.13195
v 2.60606 -0.968888 -10.8393
vn 0.856598 -0.506411 0.0989381
v 2.59608 -0.985183 -10.8464
vn 0.80849 -0.584913 0.0649731
v 2.58448 -1.00031 -10.8536
vn 0.752596 -0.657782 0.0303824
v 2.57137 -1.01412 -10.8608
vn 0.689454 -0.724316 -0.00450083
v 2.55689 -1.02648 -10.8681
vn 0.619672 -0.783874 -0.0393408
v 2.54116 -1.03728 -10.8752
vn 0.543922 -0.835884 -0.0738018
f 1 66 2 
f 1 65 66 
f 2 67 3 
f 2 66 67 
f 3 68 4 
f 3 67 68 
f 4 69 5 
f 4 68 69 
f 5 70 6 
f 5 69 70 
f 6 71 7 
f 6 70 71 
f 7 72 8 
f 7 71 72 
f 8 73 9 
f 8 72 73 
f 9 74 10 
f 9 73 74 
f 10 75 11 
f 10 74 75 
f 11 76 12 
f 11 75 76 
f 12 77 13 
f 12 76 77 
f 13 78 14 
f 13 77 78 
f 14 79 15 
f 14 78 79 
f 15 80 16 
f 15 79 80 
f 16 81 17 
f 16 80 81 
f 17 82 18 
f 17 81 82 
f 18 83 19 
f 18 82 83 
f 19 84 20 
f 19 83 84 
f 20 85 21 
f 20 84 85 
f 21 86 22 
f 21 85 86 
f 22 87 23 
f 22 86 87 
f 23 88 24 
f 23 87 88 
f 24 89 25 
f 24 88 89 
f 25 90 26 
f 25 89 90 
f 26 91 27 
f 26 90 91 
f 27 92 28 
f 27 91 92 
f 28 93 29 
f 28 92 93 
f 29 94 30 
f 29 93 94 
f 30 95 31 
f 30 94 95 
f 31 96 32 
f 31 95 96 
f 32 97 33 
f 32 96 97 
f 33 98 34 
f 33 97 98 
f 34 99 35 
f 34 98 99 
f 35 100 36 
f 35 99 100 
f 36 101 37 
f 36 100 101 
f 37 102 38 
f 37 101 102 
f 38 103 39 
f 38 102 103 
f 39 104 40 
f 39 103 104 
f 40 105 41 
f 40 104 105 
f 41 106 42 
f 41 105 106 
f 42 107 43 
f 42 106 107 
f 43 108 44 
f 43 107 108 
f 44 109 45 
f 44 108 109 
f 45 110 46 
f 45 109 110 
f 46 111 47 
f 46 110 111 
f 47 112 48 
f 47 111 112 
f 48 113 49 
f 48 112 113 
f 49 114 50 
f 49 113 114 
f 50 115 51 
f 50 114 115 
f 51 116 52 
f 51 115 116 
f 52 117 53 
f 52 116 117 
f 53 118 54 
f 53 117 118 
f 54 119 55 
f 54 118 119 
f 55 120 56 
f 55 119 120 
f 56 121 57 
f 56 120 121 
f 57 122 58 
f 57 121 122 
f 58 123 59 
f 58 122 123 
f 59 124 60 
f 59 123 124 
f 60 125 61 
f 60 124 125 
f 61 126 62 
f 61 125 126 
f 62 127 63 
f 62 126 127 
f 63 128 64 
f 63 127 128 
f 64 65 1 
f 64 128 65 
f 65 130 66 
f 65 129 130 
f 66 131 67 
f 66 130 131 
f 67 132 68 
f 67 131 132 
f 68 133 69 
f 68 132 133 
f 69 134 70 
f 69 133 134 
f 70 135 71 
f 70 134 135 
f 71 136 72 
f 71 135 136 
f 72 137 73 
f 72 136 137 
f 73 138 74 
f 73 137 138 
f 74 139 75 
f 74 138 139 
f 75 140 76 
f 75 139 140 
f 76 141 77 
f 76 140 141 
f 77 142 78 
f 77 141 142 
f 78 143 79 
f 78 142 143 
f 79 144 80 
f 79 143 144 
f 80 145 81 
f 80 144 145 
f 81 146 82 
f 81 145 146 
f 82 147 83 
f 82 146 147 
f 83 148 84 
f 83 147 148 
f 84 149 85 
f 84 148 149 
f 85 150 86 
f 85 149 150 
f 86 151 87 
f 86 150 151 
f 87 152 88 
f 87 151 152 
f 88 153 89 
f 88 152 153 
f 89 154 90 
f 89 153 154 
f 90 155 91 
f 90 154 155 
f 91 156 92 
f 91 155 156 
f 92 157 93 
f 92 156 157 
f 93 158 94 
f 93 157 158 
f 94 159 95 
f 94 158 159 
f 95 160 96 
f 95 159 160 
f 96 161 97 
f 96 160 161 
f 97 162 98 
f 97 161 162 
f 98 163 99 
f 98 162 163 
f 99 164 100 
f 99 163 164 
f 100 165 101 
f 100 164 165 
f 101 166 102 
f 101 165 166 
f 102 167 103 
f 102 166 167 
f 103 168 104 
f 103 167 168 
f 104 169 105 
f 104 168 169 
f 105 170 106 
f 105 169 170 
f 106 171 107 
f 106 170 171 
f 107 172 108 
f 107 171 172 
f 108 173 109 
f 108 172 173 
f 109 174 110 
f 109 173 174 
f 110 175 111 
f 110 174 175 
f 111 176 112 
f 111 175 176 
f 112 177 113 
f 112 176 177 
f 113 178 114 
f 113 177 178 
f 114 179 115 
f 114 178 179 
f 115 180 116 
f 115 179 180 
f 116 181 117 
f 116 180 181 
f 117 182 118 
f 117 181 182 
f 118 183 119 
f 118 182 183 
f 119 184 120 
f 119 183 184 
f 120 185 121 
f 120 184 185 
f 121 186 122 
f 121 185 186 
f 122 187 123 
f 122 186 187 
f 123 188 124 
f 123 187 188 
f 124 189 125 
f 124 188 189 
f 125 190 126 
f 125 189 190 
f 126 191 127 
f 126 190 191 
f 127 192 128 
f 127 191 192 
f 128 129 65 
f 128 192 129 
f 129 194 130 
f 129 193 194 
f 130 195 131 
f 130 194 195 
f 131 196 132 
f 131 195 196 
f 132 197 133 
f 132 196 197 
f 133 198 134 
f 133 197 198 
f 134 199 135 
f 134 198 199 
f 135 200 136 
f 135 199 200 
f 136 201 137 
f 136 200 201 
f 137 202 138 
f 137 201 202 
f 138 203 139 
f 138 202 203 
f 139 204 140 
f 139 203 204 
f 140 205 141 
f 140 204 205 
f 141 206 142 
f 141 205 206 
f 142 207 143 
f 142 206 207 
f 143 208 144 
f 143 207 208 
f 144 209 145 
f 144 208 209 
f 145 210 146 
f 145 209 210 
f 146 211 147 
f 146 210 211 
f 147 212 148 
f 147 211 212 
f 148 213 149 
f 148 212 213 
f 149 214 150 
f 149 213 214 
f 150 215 151 
f 150 214 215 
f 151 216 152 
f 151 215 216 
f 152 217 153 
f 152 216 217 
f 153 218 154 
f 153 217 218 
f 154 219 155 
f 154 218 219 
f 155 220 156 
f 155 219 220 
f 156 221 157 
f 156 220 221 
f 157 222 158 
f 157 221 222 
f 158 223 159 
f 158 222 223 
f 159 224 160 
f 159 223 224 
f 160 225 161 
f 160 224 225 
f 161 226 162 
f 161 225 226 
f 162 227 163 
f 162 226 227 
f 163 228 164 
f 163 227 228 
f 164 229 165 
f 164 228 229 
f 165 230 166 
f 165 229 230 
f 166 231 167 
f 166 230 231 
f 167 232 168 
f 167 231 232 
f 168 233 169 
f 168 232 233 
f 169 234 170 
f 169 233 234 
f 170 235 171 
f 170 234 235 
f 171 236 172 
f 171 235 236 
f 172 237 173 
f 172 236 237 
f 173 238 174 
f 173 237 238 
f 174 239 175 
f 174 238 239 
f 175 240 176 
f 175 239 240 
f 176 241 177 
f 176 240 241 
f 177 242 178 
f 177 241 242 
f 178 243 179 
f 178 242 243 
f 179 244 180 
f 179 243 244 
f 180 245 181 
f 180 244 245 
f 181 246 182 
f 181 245 246 
f 182 247 183 
f 182 246 247 
f 183 248 184 
f 183 247 248 
f 184 249 185 
f 184 248 249 
f 185 250 186 
f 185 249 250 
f 186 251 187 
f 186 250 251 
f 187 252 188 
f 187 251 252 
f 188 253 189 
f 188 252 253 
f 189 254 190 
f 189 253 254 
f 190 255 191 
f 190 254 255 
f 191 256 192 
f 191 255 256 
f 192 193 129 
f 192 256 193 
f 193 258 194 
f 193 257 258 
f 194 259 195 
f 194 258 259 
f 195 260 196 
f 195 259 260 
f 196 261 197 
f 196 260 261 
f 197 262 198 
f 197 261 262 
f 198 263 199 
f 198 262 263 
f 199 264 200 
f 199 263 264 
f 200 265 201 
f 200 264 265 
f 201 266 202 
f 201 265 266 
f 202 267 203 
f 202 266 267 
f 203 268 204 
f 203 267 268 
f 204 269 205 
f 204 268 269 
f 205 270 206 
f 205 269 270 
f 206 271 207 
f 206 270 271 
f 207 272 208 
f 207 271 272 
f 208 273 209 
f 208 272 273 
f 209 274 210 
f 209 273 274 
f 210 275 211 
f 210 274 275 
f 211 276 212 
f 211 275 276 
f 212 277 213 
f 212 276 277 
f 213 278 214 
f 213 277 278 
f 214 279 215 
f 214 278 279 
f 215 280 216 
f 215 279 280 
f 216 281 217 
f 216 280 281 
f 217 282 218 
f 217 281 282 
f 218 283 219 
f 218 282 283 
f 219 284 220 
f 219 283 284 
f 220 285 221 
f 220 284 285 
f 221 286 222 
f 221 285 286 
f 222 287 223 
f 222 286 287 
f 223 288 224 
f 223 287 288 
f 224 289 225 
f 224 288 289 
f 225 290 226 
f 225 289 290 
f 226 291 227 
f 226 290 291 
f 227 292 228 
f 227 291 292 
f 228 293 229 
f 228 292 293 
f 229 294 230 
f 229 293 294 
f 230 295 231 
f 230 294 295 
f 231 296 232 
f 231 295 296 
f 232 297 233 
f 232 296 297 
f 233 298 234 
f 233 297 298 
f 234 299 235 
f 234 298 299 
f 235 300 236 
f 235 299 300 
f 236 301 237 
f 236 300 301 
f 237 302 238 
f 237 301 302 
f 238 303 239 
f 238 302 303 
f 239 304 240 
f 239 303 304 
f 240 305 241 
f 240 304 305 
f 241 306 242 
f 241 305 306 
f 242 307 243 
f 242 306 307 
f 243 308 244 
f 243 307 308 
f 244 309 245 
f 244 308 309 
f 245 310 246 
f 245 309 310 
f 246 311 247 
f 246 310 311 
f 247 312 248 
f 247 311 312 
f 248 313 249 
f 248 312 313 
f 249 314 250 
f 249 313 314 
f 250 315 251 
f 250 314 315 
f 251 316 252 
f 251 315 316 
f 252 317 253 
f 252 316 317 
f 253 318 254 
f 253 317 318 
f 254 319 255 
f 254 318 319 
f 255 320 256 
f 255 319 320 
f 256 257 193 
f 256 320 257 
f 257 322 258 
f 257 321 322 
f 258 323 259 
f 258 322 323 
f 259 324 260 
f 259 323 324 
f 260 325 261 
f 260 324 325 
f 261 326 262 
f 261 325 326 
f 262 327 263 
f 262 326 327 
f 263 328 264 
f 263 327 328 
f 264 329 265 
f 264 328 329 
f 265 330 266 
f 265 329 330 
f 266 331 267 
f 266 330 331 
f 267 332 268 
f 267 331 332 
f 268 333 269 
f 268 332 333 
f 269 334 270 
f 269 333 334 
f 270 335 271 
f 270 334 335 
f 271 336 272 
f 271 335 336 
f 272 337 273 
f 272 336 337 
f 273 338 274 
f 273 337 338 
f 274 339 275 
f 274 338 339 
f 275 340 276 
f 275 339 340 
f 276 341 277 
f 276 340 341 
f 277 342 278 
f 277 341 342 
f 278 343 279 
f 278 342 343 
f 279 344 280 
f 279 343 344 
f 280 345 281 
f 280 344 345 
f 281 346 282 
f 281 345 346 
f 282 347 283 
f 282 346 347 
f 283 348 284 
f 283 347 348 
f 284 349 285 
f 284 348 349 
f 285 350 286 
f 285 349 350 
f 286 351 287 
f 286 350 351 
f 287 352 288 
f 287 351 352 
f 288 353 289 
f 288 352 353 
f 289 354 290 
f 289 353 354 
f 290 355 291 
f 290 354 355 
f 291 356 292 
f 291 355 356 
f 292 357 293 
f 292 356 357 
f 293 358 294 
f 293 357 358 
f 294 359 295 
f 294 358 359 
f 295 360 296 
f 295 359 360 
f 296 361 297 
f 296 360 361 
f 297 362 298 
f 297 361 362 
f 298 363 299 
f 298 362 363 
f 299 364 300 
f 299 363 364 
f 300 365 301 
f 300 364 365 
f 301 366 302 
f 301 365 366 
f 302 367 303 
f 302 366 367 
f 303 368 304 
f 303 367 368 
f 304 369 305 
f 304 368 369 
f 305 370 306 
f 305 369 370 
f 306 371 307 
f 306 370 371 
f 307 372 308 
f 307 371 372 
f 308 373 309 
f 308 372 373 
f 309 374 310 
f 309 373 374 
f 310 375 311 
f 310 374 375 
f 311 376 312 
f 311 375 376 
f 312 377 313 
f 312 376 377 
f 313 378 314 
f 313 377 378 
f 314 379 315 
f 314 378 379 
f 315 380 316 
f 315 379 380 
f 316 381 317 
f 316 380 381 
f 317 382 318 
f 317 381 382 
f 318 383 319 
f 318 382 383 
f 319 384 320 
f 319 383 384 
f 320 321 257 
f 320 384 321 
f 321 386 322 
f 321 385 386 
f 322 387 323 
f 322 386 387 
f 323 388 324 
f 323 387 388 
f 324 389 325 
f 324 388 389 
f 325 390 326 
f 325 389 390 
f 326 391 327 
f 326 390 391 
f 327 392 328 
f 327 391 392 
f 328 393 329 
f 328 392 393 
f 329 394 330 
f 329 393 394 
f 330 395 331 
f 330 394 395 
f 331 396 332 
f 331 395 396 
f 332 397 333 
f 332 396 397 
f 333 398 334 
f 333 397 398 
f 334 399 335 
f 334 398 399 
f 335 400 336 
f 335 399 400 
f 336 401 337 
f 336 400 401 
f 337 402 338 
f 337 401 402 
f 338 403 339 
f 338 402 403 
f 339 404 340 
f 339 403 404 
f 340 405 341 
f 340 404 405 
f 341 406 342 
f 341 405 406 
f 342 407 343 
f 342 406 407 
f 343 408 344 
f 343 407 408 
f 344 409 345 
f 344 408 409 
f 345 410 346 
f 345 409 410 
f 346 411 347 
f 346 410 411 
f 347 412 348 
f 347 411 412 
f 348 413 349 
f 348 412 413 
f 349 414 350 
f 349 413 414 
f 350 415 351 
f 350 414 415 
f 351 416 352 
f 351 415 416 
f 352 417 353 
f 352 416 417 
f 353 418 354 
f 353 417 418 
f 354 419 355 
f 354 418 419 
f 355 420 356 
f 355 419 420 
f 356 421 357 
f 356 420 421 
f 357 422 358 
f 357 421 422 
f 358 423 359 
f 358 422 423 
f 359 424 360 
f 359 423 424 
f 360 425 361 
f 360 424 425 
f 361 426 362 
f 361 425 426 
f 362 427 363 
f 362 426 427 
f 363 428 364 
f 363 427 428 
f 364 429 365 
f 364 428 429 
f 365 430 366 
f 365 429 430 
f 366 431 367 
f 366 430 431 
f 367 432 368 
f 367 431 432 
f 368 433 369 
f 368 432 433 
f 369 434 370 
f 369 433 434 
f 370 435 371 
f 370 434 435 
f 371 436 372 
f 371 435 436 
f 372 437 373 
f 372 436 437 
f 373 438 374 
f 373 437 438 
f 374 439 375 
f 374 438 439 
f 375 440 376 
f 375 439 440 
f 376 441 377 
f 376 440 441 
f 377 442 378 
f 377 441 442 
f 378 443 379 
f 378 442 443 
f 379 444 380 
f 379 443 444 
f 380 445 381 
f 380 444 445 
f 381 446 382 
f 381 445 446 
f 382 447 383 
f 382 446 447 
f 383 448 384 
f 383 447 448 
f 384 385 321 
f 384 448 385 
f 385 450 386 
f 385 449 450 
f 386 451 387 
f 386 450 451 
f 387 452 388 
f 387 451 452 
f 388 453 389 
f 388 452 453 
f 389 454 390 
f 389 453 454 
f 390 455 391 
f 390 454 455 
f 391 456 392 
f 391 455 456 
f 392 457 393 
f 392 456 457 
f 393 458 394 
f 393 457 458 
f 394 459 395 
f 394 458 459 
f 395 460 396 
f 395 459 460 
f 396 461 397 
f 396 460 461 
f 397 462 398 
f 397 461 462 
f 398 463 399 
f 398 462 463 
f 399 464 400 
f 399 463 464 
f 400 465 401 
f 400 464 465 
f 401 466 402 
f 401 465 466 
f 402 467 403 
f 402 466 467 
f 403 468 404 
f 403 467 468 
f 404 469 405 
f 404 468 469 
f 405 470 406 
f 405 469 470 
f 406 471 407 
f 406 470 471 
f 407 472 408 
f 407 471 472 
f 408 473 409 
f 408 472 473 
f 409 474 410 
f 409 473 474 
f 410 475 411 
f 410 474 475 
f 411 476 412 
f 411 475 476 
f 412 477 413 
f 412 476 477 
f 413 478 414 
f 413 477 478 
f 414 479 415 
f 414 478 479 
f 415 480 416 
f 415 479 480 
f 416 481 417 
f 416 480 481 
f 417 482 418 
f 417 481 482 
f 418 483 419 
f 418 482 483 
f 419 484 420 
f 419 483 484 
f 420 485 421 
f 420 484 485 
f 421 486 422 
f 421 485 486 
f 422 487 423 
f 422 486 487 
f 423 488 424 
f 423 487 488 
f 424 489 425 
f 424 488 489 
f 425 490 426 
f 425 489 490 
f 426 491 427 
f 426 490 491 
f 427 492 428 
f 427 491 492 
f 428 493 429 
f 428 492 493 
f 429 494 430 
f 429 493 494 
f 430 495 431 
f 430 494 495 
f 431 496 432 
f 431 495 496 
f 432 497 433 
f 432 496 497 
f 433 498 434 
f 433 497 498 
f 434 499 435 
f 434 498 499 
f 435 500 436 
f 435 499 500 
f 436 501 437 
f 436 500 501 
f 437 502 438 
f 437 501 502 
f 438 503 439 
f 438 502 503 
f 439 504 440 
f 439 503 504 
f 440 505 441 
f 440 504 505 
f 441 506 442 
f 441 505 506 
f 442 507 443 
f 442 506 507 
f 443 508 444 
f 443 507 508 
f 444 509 445 
f 444 508 509 
f 445 510 446 
f 445 509 510 
f 446 511 447 
f 446 510 511 
f 447 512 448 
f 447 511 512 
f 448 449 385 
f 448 512 449 
f 449 514 450 
f 449 513 514 
f 450 515 451 
f 450 514 515 
f 451 516 452 
f 451 515 516 
f 452 517 453 
f 452 516 517 
f 453 518 454 
f 453 517 518 
f 454 519 455 
f 454 518 519 
f 455 520 456 
f 455 519 520 
f 456 521 457 
f 456 520 521 
f 457 522 458 
f 457 521 522 
f 458 523 459 
f 458 522 523 
f 459 524 460 
f 459 523 524 
f 460 525 461 
f 460 524 525 
f 461 526 462 
f 461 525 526 
f 462 527 463 
f 462 526 527 
f 463 528 464 
f 463 527 528 
f 464 529 465 
f 464 528 529 
f 465 530 466 
f 465 529 530 
f 466 531 467 
f 466 530 531 
f 467 532 468 
f 467 531 532 
f 468 533 469 
f 468 532 533 
f 469 534 470 
f 469 533 534 
f 470 535 471 
f 470 534 535 
f 471 536 472 
f 471 535 536 
f 472 537 473 
f 472 536 537 
f 473 538 474 
f 473 537 538 
f 474 539 475 
f 474 538 539 
f 475 540 476 
f 475 539 540 
f 476 541 477 
f 476 540 541 
f 477 542 478 
f 477 541 542 
f 478 543 479 
f 478 542 543 
f 479 544 480 
f 479 543 544 
f 480 545 481 
f 480 544 545 
f 481 546 482 
f 481 545 546 
f 482 547 483 
f 482 546 547 
f 483 548 484 
f 483 547 548 
f 484 549 485 
f 484 548 549 
f 485 550 486 
f 485 549 550 
f 486 551 487 
f 486 550 551 
f 487 552 488 
f 487 551 552 
f 488 553 489 
f 488 552 553 
f 489 554 490 
f 489 553 554 
f 490 555 491 
f 490 554 555 
f 491 556 492 
f 491 555 556 
f 492 557 493 
f 492 556 557 
f 493 558 494 
f 493 557 558 
f 494 559 495 
f 494 558 559 
f 495 560 496 
f 495 559 560 
f 496 561 497 
f 496 560 561 
f 497 562 498 
f 497 561 562 
f 498 563 499 
f 498 562 563 
f 499 564 500 
f 499 563 564 
f 500 565 501 
f 500 564 565 
f 501 566 502 
f 501 565 566 
f 502 567 503 
f 502 566 567 
f 503 568 504 
f 503 567 568 
f 504 569 505 
f 504 568 569 
f 505 570 506 
f 505 569 570 
f 506 571 507 
f 506 570 571 
f 507 572 508 
f 507 571 572 
f 508 573 509 
f 508 572 573 
f 509 574 510 
f 509 573 574 
f 510 575 511 
f 510 574 575 
f 511 576 512 
f 511 575 576 
f 512 513 449 
f 512 576 513 
f 513 578 514 
f 513 577 578 
f 514 579 515 
f 514 578 579 
f 515 580 516 
f 515 579 580 
f 516 581 517 
f 516 580 581 
f 517 582 518 
f 517 581 582 
f 518 583 519 
f 518 582 583 
f 519 584 520 
f 519 583 584 
f 520 585 521 
f 520 584 585 
f 521 586 522 
f 521 585 586 
f 522 587 523 
f 522 586 587 
f 523 588 524 
f 523 587 588 
f 524 589 525 
f 524 588 589 
f 525 590 526 
f 525 589 590 
f 526 591 527 
f 526 590 591 
f 527 592 528 
f 527 591 592 
f 528 593 529 
f 528 592 593 
f 529 594 530 
f 529 593 594 
f 530 595 531 
f 530 594 595 
f 531 596 532 
f 531 595 596 
f 532 597 533 
f 532 596 597 
f 533 598 534 
f 533 597 598 
f 534 599 535 
f 534 598 599 
f 535 600 536 
f 535 599 600 
f 536 601 537 
f 536 600 601 
f 537 602 538 
f 537 601 602 
f 538 603 539 
f 538 602 603 
f 539 604 540 
f 539 603 604 
f 540 605 541 
f 540 604 605 
f 541 606 542 
f 541 605 606 
f 542 607 543 
f 542 606 607 
f 543 608 544 
f 543 607 608 
f 544 609 545 
f 544 608 609 
f 545 610 546 
f 545 609 610 
f 546 611 547 
f 546 610 611 
f 547 612 548 
f 547 611 612 
f 548 613 549 
f 548 612 613 
f 549 614 550 
f 549 613 614 
f 550 615 551 
f 550 614 615 
f 551 616 552 
f 551 615 616 
f 552 617 553 
f 552 616 617 
f 553 618 554 
f 553 617 618 
f 554 619 555 
f 554 618 619 
f 555 620 556 
f 555 619 620 
f 556 621 557 
f 556 620 621 
f 557 622 558 
f 557 621 622 
f 558 623 559 
f 558 622 623 
f 559 624 560 
f 559 623 624 
f 560 625 561 
f 560 624 625 
f 561 626 562 
f 561 625 626 
f 562 627 563 
f 562 626 627 
f 563 628 564 
f 563 627 628 
f 564 629 565 
f 564 628 629 
f 565 630 566 
f 565 629 630 
f 566 631 567 
f 566 630 631 
f 567 632 568 
f 567 631 632 
f 568 633 569 
f 568 632 633 
f 569 634 570 
f 569 633 634 
f 570 635 571 
f 570 634 635 
f 571 636 572 
f 571 635 636 
f 572 637 573 
f 572 636 637 
f 573 638 574 
f 573 637 638 
f 574 639 575 
f 574 638 639 
f 575 640 576 
f 575 639 640 
f 576 577 513 
f 576 640 577 
