# Branch
v 7.26859 5.34732 -22.0335
vn 0.427113 0.684986 -0.590228
v 7.23264 5.35994 -22.0416
vn 0.336557 0.716779 -0.610702
v 7.1954 5.36982 -22.0474
vn 0.242759 0.74167 -0.625295
v 7.15724 5.37687 -22.0508
vn 0.146623 0.759418 -0.633866
v 7.11851 5.38101 -22.0518
vn 0.049075 0.769853 -0.636332
v 7.0796 5.38221 -22.0504
vn -0.0489455 0.772873 -0.63267
v 7.04087 5.38045 -22.0465
vn -0.146495 0.76845 -0.622915
v 7.00271 5.37576 -22.0402
vn -0.242633 0.756627 -0.607161
v 6.96547 5.36817 -22.0317
vn -0.336434 0.737517 -0.58556
v 6.92952 5.35777 -22.0208
vn -0.426996 0.711304 -0.55832
v 6.8952 5.34464 -22.0079
vn -0.513445 0.678241 -0.525702
v 6.86284 5.32892 -21.9929
vn -0.59495 0.638646 -0.488022
v 6.83276 5.31076 -21.9761
vn -0.670725 0.592901 -0.445642
v 6.80524 5.29033 -21.9576
vn -0.74004 0.541445 -0.39897
v 6.78055 5.26784 -21.9375
vn -0.802229 0.484776 -0.348456
v 6.75893 5.24348 -21.9161
vn -0.856691 0.423437 -0.294586
v 6.74058 5.21751 -21.8936
vn -0.902903 0.358021 -0.237879
v 6.72569 5.19018 -21.8702
vn -0.94042 0.289156 -0.178881
v 6.71439 5.16173 -21.8461
vn -0.96888 0.217507 -0.118161
v 6.7068 5.13246 -21.8215
vn -0.988009 0.143764 -0.0563021
v 6.70298 5.10263 -21.7968
vn -0.997623 0.0686354 0.00609872
v 6.70298 5.07254 -21.772
vn -0.99763 -0.00715385 0.0684408
v 6.70679 5.04248 -21.7475
vn -0.988028 -0.0828742 0.130124
v 6.71438 5.01274 -21.7235
vn -0.968912 -0.157796 0.190554
v 6.72567 4.9836 -21.7003
vn -0.940464 -0.231199 0.249148
v 6.74056 4.95534 -21.678
vn -0.902959 -0.302375 0.305343
v 6.7589 4.92824 -21.6568
vn -0.856758 -0.370639 0.358598
v 6.78052 4.90256 -21.6371
vn -0.802306 -0.435334 0.408399
v 6.80521 4.87854 -21.6188
vn -0.740127 -0.495836 0.454267
v 6.83272 4.85642 -21.6024
vn -0.670821 -0.551562 0.49576
v 6.8628 4.8364 -21.5878
vn -0.595054 -0.601977 0.532479
v 6.89515 4.81869 -21.5753
vn -0.513557 -0.646595 0.56407
v 6.92947 4.80345 -21.5649
vn -0.427113 -0.684986 0.590228
v 6.96542 4.79083 -21.5567
vn -0.336557 -0.716779 0.610702
v 7.00266 4.78094 -21.5509
vn -0.242759 -0.74167 0.625295
v 7.04082 4.7739 -21.5475
vn -0.146623 -0.759418 0.633866
v 7.07955 4.76976 -21.5466
vn -0.049075 -0.769853 0.636332
v 7.11846 4.76856 -21.548
vn 0.0489455 -0.772873 0.63267
v 7.15719 4.77031 -21.5519
vn 0.146495 -0.76845 0.622915
v 7.19536 4.77501 -21.5581
vn 0.242633 -0.756627 0.607161
v 7.23259 4.78259 -21.5667
vn 0.336434 -0.737517 0.58556
v 7.26855 4.793 -21.5775
vn 0.426996 -0.711304 0.55832
v 7.30287 4.80612 -21.5905
vn 0.513445 -0.678241 0.525702
v 7.33522 4.82184 -21.6054
vn 0.59495 -0.638646 0.488022
v 7.3653 4.84 -21.6223
vn 0.670725 -0.592901 0.445642
v 7.39282 4.86043 -21.6408
vn 0.74004 -0.541445 0.39897
v 7.41751 4.88293 -21.6609
vn 0.802229 -0.484776 0.348456
v 7.43913 4.90728 -21.6822
vn 0.856691 -0.423437 0.294586
v 7.45748 4.93325 -21.7048
vn 0.902903 -0.358021 0.237879
v 7.47237 4.96059 -21.7282
vn 0.94042 -0.289156 0.178881
v 7.48367 4.98903 -21.7523
vn 0.96888 -0.217507 0.118161
v 7.49126 5.01831 -21.7768
vn 0.988009 -0.143764 0.0563021
v 7.49508 5.04813 -21.8016
vn 0.997623 -0.0686354 -0.00609872
v 7.49508 5.07822 -21.8264
vn 0.99763 0.00715385 -0.0684408
v 7.49127 5.10828 -21.8508
vn 0.988028 0.0828742 -0.130124
v 7.48368 5.13803 -21.8748
vn 0.968912 0.157796 -0.190554
v 7.47239 5.16717 -21.8981
vn 0.940464 0.231199 -0.249148
v 7.4575 5.19542 -21.9204
vn 0.902959 0.302375 -0.305343
v 7.43916 5.22252 -21.9415
vn 0.856758 0.370639 -0.358598
v 7.41754 5.24821 -21.9613
vn 0.802306 0.435334 -0.408399
v 7.39286 5.27223 -21.9795
vn 0.740127 0.495836 -0.454267
v 7.36534 5.29435 -21.996
vn 0.670821 0.551562 -0.49576
v 7.33526 5.31436 -22.0106
vn 0.595054 0.601977 -0.532479
v 7.30291 5.33208 -22.0231
vn 0.513557 0.646595 -0.56407
v 7.18684 4.34139 -23.2372
vn 0.424784 0.658526 -0.62121
v 7.14918 4.35467 -23.2456
vn 0.334239 0.690447 -0.641535
v 7.11018 4.36518 -23.2515
vn 0.240474 0.715719 -0.655682
v 7.07022 4.37282 -23.2548
vn 0.144394 0.734098 -0.663514
v 7.02968 4.37753 -23.2554
vn 0.0469231 0.745407 -0.664956
v 6.98895 4.37925 -23.2533
vn -0.0509997 0.749538 -0.659994
v 6.94843 4.37796 -23.2486
vn -0.148431 0.74645 -0.648676
v 6.9085 4.37369 -23.2413
vn -0.244433 0.736173 -0.631111
v 6.86955 4.36647 -23.2315
vn -0.338081 0.718807 -0.607468
v 6.83195 4.35636 -23.2192
vn -0.428474 0.694518 -0.577975
v 6.79607 4.34348 -23.2046
vn -0.514739 0.663541 -0.542915
v 6.76226 4.32794 -23.1879
vn -0.596048 0.626173 -0.502627
v 6.73083 4.30989 -23.1691
vn -0.671616 0.582775 -0.457499
v 6.70209 4.2895 -23.1485
vn -0.740716 0.533764 -0.407964
v 6.67631 4.26698 -23.1262
vn -0.802683 0.479614 -0.354501
v 6.65375 4.24254 -23.1026
vn -0.85692 0.420844 -0.297623
v 6.63463 4.21641 -23.0777
vn -0.902903 0.358021 -0.237879
v 6.61912 4.18884 -23.0519
vn -0.940192 0.29175 -0.175844
v 6.60738 4.16011 -23.0254
vn -0.968426 0.22267 -0.112116
v 6.59951 4.13049 -22.9985
vn -0.987333 0.151445 -0.0473083
v 6.5956 4.10026 -22.9713
vn -0.996732 0.0787612 0.0179552
v 6.59569 4.06971 -22.9443
vn -0.996532 0.00531928 0.0830459
v 6.59976 4.03914 -22.9175
vn -0.986734 -0.0681739 0.147337
v 6.60779 4.00885 -22.8914
vn -0.967434 -0.14101 0.210209
v 6.61969 3.97912 -22.8661
vn -0.938817 -0.212489 0.271056
v 6.63535 3.95024 -22.8418
vn -0.901158 -0.281921 0.329293
v 6.65463 3.92249 -22.8189
vn -0.854821 -0.348638 0.384359
v 6.67732 3.89614 -22.7976
vn -0.800252 -0.411998 0.435723
v 6.70323 3.87144 -22.778
vn -0.737975 -0.47139 0.482891
v 6.73208 3.84862 -22.7603
vn -0.668592 -0.526242 0.525409
v 6.76362 3.82792 -22.7447
vn -0.59277 -0.576026 0.562866
v 6.79753 3.80952 -22.7314
vn -0.511239 -0.620263 0.594903
v 6.83349 3.7936 -22.7204
vn -0.424784 -0.658526 0.62121
v 6.87115 3.78033 -22.712
vn -0.334239 -0.690447 0.641535
v 6.91015 3.76981 -22.7061
vn -0.240474 -0.715719 0.655682
v 6.95011 3.76217 -22.7028
vn -0.144394 -0.734098 0.663514
v 6.99065 3.75747 -22.7022
vn -0.0469231 -0.745407 0.664956
v 7.03138 3.75575 -22.7043
vn 0.0509997 -0.749538 0.659994
v 7.0719 3.75703 -22.709
vn 0.148431 -0.74645 0.648676
v 7.11183 3.76131 -22.7163
vn 0.244433 -0.736173 0.631111
v 7.15078 3.76853 -22.7261
vn 0.338081 -0.718807 0.607468
v 7.18838 3.77863 -22.7384
vn 0.428474 -0.694518 0.577975
v 7.22426 3.79152 -22.753
vn 0.514739 -0.663541 0.542915
v 7.25808 3.80706 -22.7698
vn 0.596048 -0.626173 0.502627
v 7.28951 3.82511 -22.7885
vn 0.671616 -0.582775 0.457499
v 7.31825 3.84549 -22.8091
vn 0.740716 -0.533764 0.407964
v 7.34402 3.86802 -22.8314
vn 0.802683 -0.479614 0.354501
v 7.36658 3.89246 -22.855
vn 0.85692 -0.420844 0.297623
v 7.3857 3.91859 -22.8799
vn 0.902903 -0.358021 0.237879
v 7.40121 3.94615 -22.9057
vn 0.940192 -0.29175 0.175844
v 7.41296 3.97488 -22.9322
vn 0.968426 -0.22267 0.112116
v 7.42082 4.00451 -22.9591
vn 0.987333 -0.151445 0.0473083
v 7.42473 4.03474 -22.9863
vn 0.996732 -0.0787612 -0.0179552
v 7.42464 4.06529 -23.0133
vn 0.996532 -0.00531928 -0.0830459
v 7.42057 4.09585 -23.0401
vn 0.986734 0.0681739 -0.147337
v 7.41254 4.12615 -23.0662
vn 0.967434 0.14101 -0.210209
v 7.40064 4.15588 -23.0915
vn 0.938817 0.212489 -0.271056
v 7.38498 4.18475 -23.1158
vn 0.901158 0.281921 -0.329293
v 7.3657 4.2125 -23.1387
vn 0.854821 0.348638 -0.384359
v 7.34301 4.23886 -23.16
vn 0.800252 0.411998 -0.435723
v 7.31711 4.26356 -23.1797
vn 0.737975 0.47139 -0.482891
v 7.28825 4.28637 -23.1973
vn 0.668592 0.526242 -0.525409
v 7.25671 4.30708 -23.2129
vn 0.59277 0.576026 -0.562866
v 7.2228 4.32548 -23.2262
vn 0.511239 0.620263 -0.594903
v 7.07558 3.26738 -24.4313
vn 0.421911 0.632332 -0.649729
v 7.03621 3.28131 -24.4401
vn 0.331379 0.664379 -0.669916
v 6.99545 3.29246 -24.4461
vn 0.237656 0.690028 -0.683652
v 6.9537 3.30073 -24.4492
vn 0.141645 0.709032 -0.690804
v 6.91136 3.30602 -24.4494
vn 0.0442688 0.721207 -0.691303
v 6.86883 3.3083 -24.4467
vn -0.0535334 0.726437 -0.685145
v 6.82653 3.30753 -24.4412
vn -0.15082 0.724671 -0.672388
v 6.78485 3.30373 -24.4328
vn -0.246654 0.715925 -0.653156
v 6.74421 3.29693 -24.4217
vn -0.340113 0.700285 -0.627633
v 6.705 3.28719 -24.408
vn -0.430296 0.677901 -0.596066
v 6.66758 3.27462 -24.3918
vn -0.516336 0.648988 -0.558759
v 6.63233 3.25933 -24.3732
vn -0.597402 0.613825 -0.516071
v 6.59958 3.24147 -24.3525
vn -0.672716 0.572751 -0.468412
v 6.56965 3.22121 -24.3298
vn -0.74155 0.526161 -0.416242
v 6.54282 3.19874 -24.3054
vn -0.803244 0.474503 -0.360064
v 6.51936 3.17429 -24.2794
vn -0.857201 0.418276 -0.300418
v 6.49948 3.14809 -24.2522
vn -0.902903 0.358021 -0.237879
v 6.48339 3.12039 -24.224
vn -0.93991 0.294317 -0.173049
v 6.47123 3.09146 -24.1951
vn -0.967865 0.22778 -0.106553
v 6.46313 3.06157 -24.1657
vn -0.986499 0.159048 -0.03903
v 6.45916 3.03101 -24.1362
vn -0.995632 0.088785 0.0288686
v 6.45936 3.00009 -24.1068
vn -0.995177 0.0176668 0.0964892
v 6.46372 2.96909 -24.0778
vn -0.985138 -0.0536215 0.163181
v 6.47221 2.93831 -24.0495
vn -0.965611 -0.124393 0.2283
v 6.48475 2.90806 -24.0221
vn -0.936785 -0.193967 0.291221
v 6.50121 2.87862 -23.996
vn -0.898938 -0.261673 0.351338
v 6.52143 2.85027 -23.9713
vn -0.852432 -0.326859 0.408071
v 6.54522 2.82329 -23.9484
vn -0.797718 -0.388897 0.460874
v 6.57236 2.79795 -23.9273
vn -0.735321 -0.44719 0.509238
v 6.60257 2.77447 -23.9084
vn -0.665843 -0.501176 0.552699
v 6.63557 2.75309 -23.8919
vn -0.589952 -0.550336 0.590836
v 6.67104 2.73402 -23.8777
vn -0.508379 -0.594195 0.623284
v 6.70864 2.71744 -23.8662
vn -0.421911 -0.632332 0.649729
v 6.74801 2.7035 -23.8575
vn -0.331379 -0.664379 0.669916
v 6.78877 2.69235 -23.8515
vn -0.237656 -0.690028 0.683652
v 6.83052 2.68408 -23.8484
vn -0.141645 -0.709032 0.690804
v 6.87286 2.67879 -23.8482
vn -0.0442688 -0.721207 0.691303
v 6.91539 2.67652 -23.8508
vn 0.0535334 -0.726437 0.685145
v 6.95769 2.67728 -23.8564
vn 0.15082 -0.724671 0.672388
v 6.99937 2.68109 -23.8648
vn 0.246654 -0.715925 0.653156
v 7.04001 2.68789 -23.8759
vn 0.340113 -0.700285 0.627633
v 7.07922 2.69762 -23.8896
vn 0.430296 -0.677901 0.596066
v 7.11664 2.71019 -23.9058
vn 0.516336 -0.648988 0.558759
v 7.15189 2.72548 -23.9244
vn 0.597402 -0.613825 0.516071
v 7.18464 2.74335 -23.9451
vn 0.672716 -0.572751 0.468412
v 7.21457 2.76361 -23.9678
vn 0.74155 -0.526161 0.416242
v 7.2414 2.78607 -23.9922
vn 0.803244 -0.474503 0.360064
v 7.26486 2.81052 -24.0181
vn 0.857201 -0.418276 0.300418
v 7.28474 2.83672 -24.0453
vn 0.902903 -0.358021 0.237879
v 7.30083 2.86442 -24.0735
vn 0.93991 -0.294317 0.173049
v 7.31299 2.89336 -24.1024
vn 0.967865 -0.22778 0.106553
v 7.32109 2.92324 -24.1318
vn 0.986499 -0.159048 0.03903
v 7.32506 2.9538 -24.1613
vn 0.995632 -0.088785 -0.0288686
v 7.32486 2.98472 -24.1907
vn 0.995177 -0.0176668 -0.0964892
v 7.3205 3.01572 -24.2197
vn 0.985138 0.0536215 -0.163181
v 7.31201 3.0465 -24.2481
vn 0.965611 0.124393 -0.2283
v 7.29947 3.07675 -24.2754
vn 0.936785 0.193967 -0.291221
v 7.28301 3.10619 -24.3016
vn 0.898938 0.261673 -0.351338
v 7.26279 3.13454 -24.3262
vn 0.852432 0.326859 -0.408071
v 7.239 3.16152 -24.3492
vn 0.797718 0.388897 -0.460874
v 7.21186 3.18687 -24.3702
vn 0.735321 0.44719 -0.509238
v 7.18165 3.21034 -24.3891
vn 0.665843 0.501176 -0.552699
v 7.14865 3.23172 -24.4057
vn 0.589952 0.550336 -0.590836
v 7.11318 3.25079 -24.4198
vn 0.508379 0.594195 -0.623284
v 6.93481 2.12536 -25.6158
vn 0.418593 0.606571 -0.675908
v 6.89374 2.13995 -25.6249
vn 0.328078 0.638742 -0.69597
v 6.85123 2.15176 -25.631
vn 0.234402 0.664762 -0.709329
v 6.8077 2.16066 -25.6339
vn 0.13847 0.68438 -0.715856
v 6.76356 2.16658 -25.6338
vn 0.0412036 0.697407 -0.71549
v 6.71924 2.16944 -25.6305
vn -0.0564594 0.703717 -0.708233
v 6.67517 2.16923 -25.6241
vn -0.153579 0.703251 -0.694156
v 6.63177 2.16594 -25.6147
vn -0.249219 0.696011 -0.673393
v 6.58946 2.15962 -25.6023
vn -0.342459 0.682069 -0.646145
v 6.54865 2.15031 -25.5871
vn -0.432401 0.661558 -0.612675
v 6.50973 2.13811 -25.5693
vn -0.518179 0.634676 -0.573304
v 6.47307 2.12314 -25.5489
vn -0.598966 0.601682 -0.528412
v 6.43902 2.10554 -25.5262
vn -0.673985 0.562893 -0.478431
v 6.40793 2.08547 -25.5014
vn -0.742513 0.518683 -0.423842
v 6.38008 2.06315 -25.4748
vn -0.803891 0.469478 -0.365172
v 6.35574 2.03877 -25.4466
vn -0.857526 0.415751 -0.302984
v 6.33515 2.01257 -25.417
vn -0.902903 0.358021 -0.237879
v 6.3185 1.98481 -25.3865
vn -0.939585 0.296842 -0.170483
v 6.30596 1.95575 -25.3551
vn -0.967218 0.232805 -0.101445
v 6.29765 1.92567 -25.3234
vn -0.985536 0.166526 -0.0314305
v 6.29364 1.89487 -25.2915
vn -0.994363 0.0986435 0.0388871
v 6.29398 1.86364 -25.2597
vn -0.993613 0.0298107 0.10883
v 6.29867 1.83227 -25.2285
vn -0.983295 -0.0393092 0.177725
v 6.30765 1.80108 -25.198
vn -0.963507 -0.108051 0.244908
v 6.32084 1.77036 -25.1686
vn -0.934439 -0.175751 0.309733
v 6.33811 1.7404 -25.1405
vn -0.896373 -0.241759 0.371575
v 6.3593 1.71151 -25.1141
vn -0.849674 -0.305439 0.429838
v 6.3842 1.68394 -25.0895
vn -0.794792 -0.366178 0.483962
v 6.41258 1.65798 -25.067
vn -0.732256 -0.42339 0.533425
v 6.44416 1.63387 -25.0469
vn -0.662668 -0.476524 0.577751
v 6.47863 1.61184 -25.0293
vn -0.586698 -0.525069 0.616513
v 6.51567 1.59211 -25.0144
vn -0.505078 -0.568558 0.649337
v 6.55492 1.57486 -25.0024
vn -0.418593 -0.606571 0.675908
v 6.59599 1.56026 -24.9933
vn -0.328078 -0.638742 0.69597
v 6.6385 1.54845 -24.9872
vn -0.234402 -0.664762 0.709329
v 6.68203 1.53955 -24.9843
vn -0.13847 -0.68438 0.715856
v 6.72617 1.53364 -24.9844
vn -0.0412036 -0.697407 0.71549
v 6.77048 1.53078 -24.9877
vn 0.0564594 -0.703717 0.708233
v 6.81455 1.53099 -24.9941
vn 0.153579 -0.703251 0.694156
v 6.85795 1.53427 -25.0035
vn 0.249219 -0.696011 0.673393
v 6.90026 1.5406 -25.0159
vn 0.342459 -0.682069 0.646145
v 6.94108 1.54991 -25.0311
vn 0.432401 -0.661558 0.612675
v 6.98 1.56211 -25.049
vn 0.518179 -0.634676 0.573304
v 7.01666 1.57708 -25.0693
vn 0.598966 -0.601682 0.528412
v 7.0507 1.59468 -25.092
vn 0.673985 -0.562893 0.478431
v 7.0818 1.61474 -25.1168
vn 0.742513 -0.518683 0.423842
v 7.10965 1.63707 -25.1434
vn 0.803891 -0.469478 0.365172
v 7.13399 1.66145 -25.1716
vn 0.857526 -0.415751 0.302984
v 7.15458 1.68765 -25.2012
vn 0.902903 -0.358021 0.237879
v 7.17123 1.71541 -25.2317
vn 0.939585 -0.296842 0.170483
v 7.18377 1.74447 -25.2631
vn 0.967218 -0.232805 0.101445
v 7.19208 1.77454 -25.2948
vn 0.985536 -0.166526 0.0314305
v 7.19608 1.80535 -25.3267
vn 0.994363 -0.0986435 -0.0388871
v 7.19574 1.83658 -25.3585
vn 0.993613 -0.0298107 -0.10883
v 7.19106 1.86795 -25.3898
vn 0.983295 0.0393092 -0.177725
v 7.18208 1.89914 -25.4202
vn 0.963507 0.108051 -0.244908
v 7.16889 1.92986 -25.4497
vn 0.934439 0.175751 -0.309733
v 7.15162 1.95981 -25.4777
vn 0.896373 0.241759 -0.371575
v 7.13043 1.98871 -25.5042
vn 0.849674 0.305439 -0.429838
v 7.10552 2.01627 -25.5287
vn 0.794792 0.366178 -0.483962
v 7.07715 2.04223 -25.5512
vn 0.732256 0.42339 -0.533425
v 7.04557 2.06634 -25.5713
vn 0.662668 0.476524 -0.577751
v 7.01109 2.08837 -25.5889
vn 0.586698 0.525069 -0.616513
v 6.97406 2.10811 -25.6038
vn 0.505078 0.568558 -0.649337
v 6.76456 0.915422 -26.7906
vn 0.41492 0.581373 -0.69989
v 6.72178 0.930687 -26.8001
vn 0.324422 0.613666 -0.719836
v 6.67753 0.943158 -26.8062
vn 0.2308 0.640049 -0.73285
v 6.63222 0.952715 -26.809
vn 0.134955 0.660268 -0.738806
v 6.5863 0.959267 -26.8085
vn 0.0378102 0.674128 -0.737647
v 6.54021 0.96275 -26.8046
vn -0.0596986 0.681495 -0.729383
v 6.49439 0.96313 -26.7973
vn -0.156633 0.6823 -0.714096
v 6.44928 0.960404 -26.7869
vn -0.252058 0.676534 -0.691931
v 6.40532 0.954599 -26.7732
vn -0.345056 0.664252 -0.663103
v 6.36293 0.945769 -26.7566
vn -0.434731 0.645573 -0.627889
v 6.32252 0.934001 -26.7371
vn -0.520219 0.620677 -0.586627
v 6.28447 0.919407 -26.7149
vn -0.600698 0.589804 -0.539717
v 6.24917 0.902128 -26.6903
vn -0.675391 0.55325 -0.487608
v 6.21693 0.88233 -26.6634
vn -0.74358 0.511368 -0.430804
v 6.18808 0.860204 -26.6346
vn -0.804607 0.464562 -0.36985
v 6.1629 0.835964 -26.6041
vn -0.857886 0.413281 -0.305335
v 6.14162 0.809842 -26.5722
vn -0.902903 0.358021 -0.237879
v 6.12445 0.78209 -26.5393
vn -0.939225 0.299312 -0.168133
v 6.11156 0.752975 -26.5055
vn -0.966501 0.237721 -0.0967666
v 6.10306 0.722779 -26.4713
vn -0.98447 0.173841 -0.0244688
v 6.09905 0.691791 -26.4371
vn -0.992957 0.108286 0.0480646
v 6.09956 0.660309 -26.403
vn -0.991882 0.0416887 0.120135
v 6.10458 0.628639 -26.3695
vn -0.981254 -0.0253103 0.191049
v 6.11407 0.597083 -26.3368
vn -0.961176 -0.0920655 0.260122
v 6.12794 0.565947 -26.3054
vn -0.931842 -0.157934 0.326691
v 6.14605 0.535529 -26.2754
vn -0.893534 -0.222282 0.390113
v 6.16822 0.506124 -26.2472
vn -0.84662 -0.284489 0.449779
v 6.19426 0.478013 -26.221
vn -0.791553 -0.343956 0.505112
v 6.22389 0.451469 -26.1972
vn -0.728863 -0.40011 0.555582
v 6.25684 0.426745 -26.1758
vn -0.659153 -0.452412 0.6007
v 6.29279 0.404082 -26.1572
vn -0.583096 -0.500356 0.640034
v 6.3314 0.383696 -26.1416
vn -0.501422 -0.543482 0.673204
v 6.37229 0.365784 -26.1289
vn -0.41492 -0.581373 0.69989
v 6.41507 0.35052 -26.1195
vn -0.324422 -0.613666 0.719836
v 6.45933 0.338048 -26.1134
vn -0.2308 -0.640049 0.73285
v 6.50463 0.328491 -26.1105
vn -0.134955 -0.660268 0.738806
v 6.55055 0.321939 -26.1111
vn -0.0378102 -0.674128 0.737647
v 6.59665 0.318456 -26.115
vn 0.0596986 -0.681495 0.729383
v 6.64247 0.318076 -26.1222
vn 0.156633 -0.6823 0.714096
v 6.68758 0.320802 -26.1327
vn 0.252058 -0.676534 0.691931
v 6.73154 0.326607 -26.1463
vn 0.345056 -0.664252 0.663103
v 6.77393 0.335437 -26.163
vn 0.434731 -0.645573 0.627889
v 6.81434 0.347205 -26.1825
vn 0.520219 -0.620677 0.586627
v 6.85238 0.361799 -26.2047
vn 0.600698 -0.589804 0.539717
v 6.88769 0.379079 -26.2293
vn 0.675391 -0.55325 0.487608
v 6.91992 0.398876 -26.2561
vn 0.74358 -0.511368 0.430804
v 6.94877 0.421002 -26.285
vn 0.804607 -0.464562 0.36985
v 6.97395 0.445243 -26.3154
vn 0.857886 -0.413281 0.305335
v 6.99523 0.471365 -26.3473
vn 0.902903 -0.358021 0.237879
v 7.0124 0.499116 -26.3803
vn 0.939225 -0.299312 0.168133
v 7.0253 0.528231 -26.414
vn 0.966501 -0.237721 0.0967666
v 7.03379 0.558427 -26.4482
vn 0.98447 -0.173841 0.0244688
v 7.0378 0.589416 -26.4825
vn 0.992957 -0.108286 -0.0480646
v 7.0373 0.620897 -26.5166
vn 0.991882 -0.0416887 -0.120135
v 7.03227 0.652567 -26.5501
vn 0.981254 0.0253103 -0.191049
v 7.02278 0.684123 -26.5827
vn 0.961176 0.0920655 -0.260122
v 7.00891 0.715259 -26.6142
vn 0.931842 0.157934 -0.326691
v 6.99081 0.745677 -26.6442
vn 0.893534 0.222282 -0.390113
v 6.96863 0.775082 -26.6724
vn 0.84662 0.284489 -0.449779
v 6.9426 0.803193 -26.6986
vn 0.791553 0.343956 -0.505112
v 6.91296 0.829738 -26.7224
vn 0.728863 0.40011 -0.555582
v 6.88001 0.854461 -26.7437
vn 0.659153 0.452412 -0.6007
v 6.84406 0.877124 -26.7623
vn 0.583096 0.500356 -0.640034
v 6.80545 0.89751 -26.778
vn 0.501422 0.543482 -0.673204
v 6.56485 -0.362347 -27.9557
vn 0.410972 0.556842 -0.721824
v 6.52036 -0.346412 -27.9654
vn 0.320493 0.589252 -0.741664
v 6.47436 -0.333268 -27.9717
vn 0.226927 0.615988 -0.754362
v 6.42729 -0.32304 -27.9744
vn 0.131176 0.636792 -0.759795
v 6.37959 -0.315827 -27.9734
vn 0.0341621 0.651463 -0.757911
v 6.33174 -0.311699 -27.9689
vn -0.0631811 0.65986 -0.748727
v 6.28418 -0.310695 -27.9609
vn -0.159916 0.661903 -0.732333
v 6.23738 -0.312825 -27.9493
vn -0.25511 0.65757 -0.708886
v 6.19179 -0.318068 -27.9344
vn -0.347848 0.646905 -0.678613
v 6.14784 -0.326374 -27.9163
vn -0.437236 0.63001 -0.641803
v 6.10596 -0.337663 -27.8952
vn -0.522413 0.607048 -0.598813
v 6.06656 -0.351827 -27.8712
vn -0.602559 0.578239 -0.550056
v 6.03001 -0.368728 -27.8447
vn -0.676902 0.543862 -0.496002
v 5.99667 -0.388204 -27.8157
vn -0.744726 0.504247 -0.437171
v 5.96685 -0.410067 -27.7847
vn -0.805378 0.459776 -0.374129
v 5.94084 -0.434108 -27.752
vn -0.858273 0.410877 -0.307485
v 5.9189 -0.460094 -27.7178
vn -0.902903 0.358021 -0.237879
v 5.90124 -0.487774 -27.6824
vn -0.938838 0.301717 -0.165983
v 5.88801 -0.516884 -27.6463
vn -0.965731 0.242507 -0.0924875
v 5.87936 -0.547142 -27.6097
vn -0.983323 0.180962 -0.0181018
v 5.87537 -0.578256 -27.5731
vn -0.991446 0.117674 0.0564583
v 5.87607 -0.609928 -27.5367
vn -0.99002 0.0532529 0.130475
v 5.88146 -0.641852 -27.5009
vn -0.97906 -0.0116812 0.203235
v 5.89148 -0.67372 -27.4661
vn -0.958671 -0.0765027 0.274037
v 5.90605 -0.705226 -27.4326
vn -0.92905 -0.140587 0.342201
v 5.92501 -0.736067 -27.4007
vn -0.890481 -0.203318 0.407068
v 5.94819 -0.765945 -27.3707
vn -0.843337 -0.264091 0.468016
v 5.97536 -0.794572 -27.343
vn -0.78807 -0.322321 0.524456
v 6.00626 -0.821674 -27.3177
vn -0.725215 -0.377446 0.575846
v 6.0406 -0.846988 -27.2952
vn -0.655374 -0.428936 0.62169
v 6.07803 -0.870272 -27.2756
vn -0.579223 -0.476296 0.661546
v 6.11822 -0.8913 -27.2591
vn -0.497493 -0.519068 0.695032
v 6.16075 -0.909871 -27.2459
vn -0.410972 -0.556842 0.721824
v 6.20523 -0.925805 -27.2362
vn -0.320493 -0.589252 0.741664
v 6.25123 -0.938949 -27.2299
vn -0.226927 -0.615988 0.754362
v 6.29831 -0.949177 -27.2273
vn -0.131176 -0.636792 0.759795
v 6.346 -0.95639 -27.2282
vn -0.0341621 -0.651463 0.757911
v 6.39386 -0.960518 -27.2327
vn 0.0631811 -0.65986 0.748727
v 6.44142 -0.961522 -27.2408
vn 0.159916 -0.661903 0.732333
v 6.48822 -0.959393 -27.2523
vn 0.25511 -0.65757 0.708886
v 6.53381 -0.954149 -27.2672
vn 0.347848 -0.646905 0.678613
v 6.57776 -0.945843 -27.2853
vn 0.437236 -0.63001 0.641803
v 6.61964 -0.934554 -27.3064
vn 0.522413 -0.607048 0.598813
v 6.65904 -0.920391 -27.3304
vn 0.602559 -0.578239 0.550056
v 6.69559 -0.90349 -27.357
vn 0.676902 -0.543862 0.496002
v 6.72893 -0.884014 -27.3859
vn 0.744726 -0.504247 0.437171
v 6.75875 -0.86215 -27.4169
vn 0.805378 -0.459776 0.374129
v 6.78476 -0.83811 -27.4496
vn 0.858273 -0.410877 0.307485
v 6.8067 -0.812124 -27.4839
vn 0.902903 -0.358021 0.237879
v 6.82436 -0.784443 -27.5192
vn 0.938838 -0.301717 0.165983
v 6.83759 -0.755333 -27.5553
vn 0.965731 -0.242507 0.0924875
v 6.84623 -0.725076 -27.5919
vn 0.983323 -0.180962 0.0181018
v 6.85023 -0.693961 -27.6286
vn 0.991446 -0.117674 -0.0564583
v 6.84953 -0.66229 -27.665
vn 0.99002 -0.0532529 -0.130475
v 6.84414 -0.630366 -27.7007
vn 0.97906 0.0116812 -0.203235
v 6.83412 -0.598497 -27.7355
vn 0.958671 0.0765027 -0.274037
v 6.81955 -0.566991 -27.7691
vn 0.92905 0.140587 -0.342201
v 6.80059 -0.53615 -27.8009
vn 0.890481 0.203318 -0.407068
v 6.77741 -0.506273 -27.8309
vn 0.843337 0.264091 -0.468016
v 6.75024 -0.477645 -27.8587
vn 0.78807 0.322321 -0.524456
v 6.71934 -0.450544 -27.8839
vn 0.725215 0.377446 -0.575846
v 6.685 -0.425229 -27.9065
vn 0.655374 0.428936 -0.62169
v 6.64757 -0.401946 -27.9261
vn 0.579223 0.476296 -0.661546
v 6.60738 -0.380917 -27.9425
vn 0.497493 0.519068 -0.695032
v 6.33569 -1.70787 -29.111
vn 0.406817 0.53305 -0.741861
v 6.2895 -1.69127 -29.121
vn 0.316358 0.565575 -0.761605
v 6.24176 -1.67744 -29.1274
vn 0.222852 0.592654 -0.774014
v 6.19293 -1.66653 -29.1299
vn 0.1272 0.614025 -0.77897
v 6.14346 -1.65864 -29.1286
vn 0.0303235 0.629482 -0.776423
v 6.09385 -1.65384 -29.1235
vn -0.0668454 0.638878 -0.766399
v 6.04457 -1.65218 -29.1146
vn -0.16337 0.64212 -0.748994
v 5.99609 -1.65369 -29.102
vn -0.258322 0.639179 -0.724375
v 5.94888 -1.65833 -29.0859
vn -0.350786 0.630082 -0.692781
v 5.9034 -1.66607 -29.0664
vn -0.439872 0.614917 -0.654515
v 5.86008 -1.67684 -29.0436
vn -0.524721 0.59383 -0.609945
v 5.81934 -1.69053 -29.0179
vn -0.604518 0.567024 -0.559502
v 5.78157 -1.707 -28.9894
vn -0.678492 0.534757 -0.50367
v 5.74714 -1.7261 -28.9584
vn -0.745932 0.497341 -0.442987
v 5.71637 -1.74765 -28.9252
vn -0.806188 0.455134 -0.378038
v 5.68957 -1.77144 -28.8902
vn -0.858681 0.408545 -0.309449
v 5.66699 -1.79724 -28.8537
vn -0.902903 0.358021 -0.237879
v 5.64886 -1.82479 -28.8159
vn -0.938431 0.304049 -0.164019
v 5.63533 -1.85384 -28.7774
vn -0.96492 0.247149 -0.0885785
v 5.62655 -1.88411 -28.7385
vn -0.982117 0.187868 -0.0122853
v 5.6226 -1.9153 -28.6995
vn -0.989856 0.126779 0.0641263
v 5.62352 -1.94711 -28.6608
vn -0.988062 0.0644682 0.13992
v 5.62929 -1.97924 -28.6228
vn -0.976752 0.00153677 0.214367
v 5.63987 -2.01138 -28.5858
vn -0.956036 -0.0614094 0.286749
v 5.65514 -2.04322 -28.5503
vn -0.926112 -0.123764 0.356369
v 5.67498 -2.07444 -28.5165
vn -0.887269 -0.184927 0.422557
v 5.69917 -2.10476 -28.4847
vn -0.839882 -0.244309 0.484676
v 5.72749 -2.13388 -28.4554
vn -0.784406 -0.301338 0.542128
v 5.75968 -2.16151 -28.4287
vn -0.721376 -0.355465 0.594358
v 5.7954 -2.1874 -28.405
vn -0.651398 -0.406169 0.640864
v 5.83433 -2.21129 -28.3844
vn -0.575148 -0.452961 0.681199
v 5.87609 -2.23295 -28.3672
vn -0.493358 -0.495391 0.714973
v 5.92028 -2.25218 -28.3534
vn -0.406817 -0.53305 0.741861
v 5.96646 -2.26879 -28.3434
vn -0.316358 -0.565575 0.761605
v 6.0142 -2.28261 -28.337
vn -0.222852 -0.592654 0.774014
v 6.06304 -2.29352 -28.3345
vn -0.1272 -0.614025 0.77897
v 6.1125 -2.30142 -28.3358
vn -0.0303235 -0.629482 0.776423
v 6.16211 -2.30621 -28.3409
vn 0.0668454 -0.638878 0.766399
v 6.21139 -2.30787 -28.3498
vn 0.16337 -0.64212 0.748994
v 6.25987 -2.30637 -28.3624
vn 0.258322 -0.639179 0.724375
v 6.30708 -2.30172 -28.3785
vn 0.350786 -0.630082 0.692781
v 6.35256 -2.29398 -28.398
vn 0.439872 -0.614917 0.654515
v 6.39588 -2.28321 -28.4208
vn 0.524721 -0.59383 0.609945
v 6.43663 -2.26953 -28.4465
vn 0.604518 -0.567024 0.559502
v 6.47439 -2.25305 -28.475
vn 0.678492 -0.534757 0.50367
v 6.50883 -2.23395 -28.506
vn 0.745932 -0.497341 0.442987
v 6.53959 -2.2124 -28.5392
vn 0.806188 -0.455134 0.378038
v 6.56639 -2.18861 -28.5742
vn 0.858681 -0.408545 0.309449
v 6.58897 -2.16282 -28.6107
vn 0.902903 -0.358021 0.237879
v 6.60711 -2.13526 -28.6485
vn 0.938431 -0.304049 0.164019
v 6.62063 -2.10621 -28.687
vn 0.96492 -0.247149 0.0885785
v 6.62941 -2.07595 -28.7259
vn 0.982117 -0.187868 0.0122853
v 6.63336 -2.04476 -28.7649
vn 0.989856 -0.126779 -0.0641263
v 6.63245 -2.01294 -28.8036
vn 0.988062 -0.0644682 -0.13992
v 6.62667 -1.98081 -28.8416
vn 0.976752 -0.00153677 -0.214367
v 6.6161 -1.94867 -28.8786
vn 0.956036 0.0614094 -0.286749
v 6.60082 -1.91684 -28.9141
vn 0.926112 0.123764 -0.356369
v 6.58099 -1.88561 -28.9479
vn 0.887269 0.184927 -0.422557
v 6.55679 -1.85529 -28.9797
vn 0.839882 0.244309 -0.484676
v 6.52847 -1.82618 -29.009
vn 0.784406 0.301338 -0.542128
v 6.49629 -1.79854 -29.0357
vn 0.721376 0.355465 -0.594358
v 6.46056 -1.77265 -29.0594
vn 0.651398 0.406169 -0.640864
v 6.42163 -1.74876 -29.08
vn 0.575148 0.452961 -0.681199
v 6.37987 -1.7271 -29.0972
vn 0.493358 0.495391 -0.714973
v 6.0771 -3.12109 -30.2564
vn 0.402516 0.51005 -0.760152
v 6.02922 -3.10381 -30.2668
vn 0.312077 0.542686 -0.779807
v 5.97974 -3.08929 -30.2733
vn 0.218634 0.570096 -0.791953
v 5.92915 -3.07769 -30.2757
vn 0.123084 0.592015 -0.796472
v 5.87793 -3.0691 -30.274
vn 0.0263497 0.608233 -0.793321
v 5.82657 -3.06361 -30.2683
vn -0.0706387 0.618594 -0.782529
v 5.77558 -3.06128 -30.2586
vn -0.166947 0.622997 -0.764202
v 5.72543 -3.06213 -30.245
vn -0.261647 0.6214 -0.738514
v 5.67663 -3.06614 -30.2276
vn -0.353828 0.613819 -0.705714
v 5.62962 -3.07329 -30.2066
vn -0.442601 0.600326 -0.666118
v 5.58487 -3.08349 -30.1823
vn -0.527111 0.581052 -0.620107
v 5.54281 -3.09666 -30.1548
vn -0.606545 0.556182 -0.568124
v 5.50385 -3.11266 -30.1243
vn -0.680138 0.525956 -0.510669
v 5.46835 -3.13135 -30.0913
vn -0.747181 0.490664 -0.448297
v 5.43666 -3.15254 -30.056
vn -0.807028 0.450647 -0.381607
v 5.40909 -3.17603 -30.0187
vn -0.859102 0.40629 -0.311242
v 5.3859 -3.20158 -29.9799
vn -0.902903 0.358021 -0.237879
v 5.36731 -3.22897 -29.9398
vn -0.938009 0.306303 -0.162226
v 5.3535 -3.25791 -29.899
vn -0.964081 0.251636 -0.0850102
v 5.34461 -3.28814 -29.8576
vn -0.980869 0.194545 -0.00697583
v 5.34073 -3.31936 -29.8163
vn -0.98821 0.13558 0.0711257
v 5.34188 -3.35128 -29.7753
vn -0.986034 0.0753103 0.148542
v 5.34806 -3.38357 -29.7351
vn -0.974362 0.0143149 0.224528
v 5.35921 -3.41594 -29.696
vn -0.953307 -0.0468184 0.298352
v 5.37522 -3.44807 -29.6584
vn -0.923071 -0.107501 0.369302
v 5.39593 -3.47966 -29.6227
vn -0.883945 -0.167148 0.436696
v 5.42116 -3.51039 -29.5893
vn -0.836306 -0.225185 0.499884
v 5.45065 -3.53997 -29.5583
vn -0.780613 -0.281054 0.558258
v 5.48412 -3.56812 -29.5303
vn -0.717402 -0.334216 0.611256
v 5.52124 -3.59456 -29.5053
vn -0.647282 -0.384159 0.658367
v 5.56167 -3.61905 -29.4838
vn -0.570929 -0.430403 0.699138
v 5.60501 -3.64134 -29.4657
vn -0.489077 -0.472502 0.733175
v 5.65085 -3.66122 -29.4514
vn -0.402516 -0.51005 0.760152
v 5.69873 -3.6785 -29.441
vn -0.312077 -0.542686 0.779807
v 5.74821 -3.69301 -29.4346
vn -0.218634 -0.570096 0.791953
v 5.7988 -3.70462 -29.4322
vn -0.123084 -0.592015 0.796472
v 5.85002 -3.71321 -29.4339
vn -0.0263497 -0.608233 0.793321
v 5.90138 -3.71869 -29.4396
vn 0.0706387 -0.618594 0.782529
v 5.95237 -3.72102 -29.4493
vn 0.166947 -0.622997 0.764202
v 6.00251 -3.72018 -29.4629
vn 0.261647 -0.6214 0.738514
v 6.05132 -3.71616 -29.4803
vn 0.353828 -0.613819 0.705714
v 6.09833 -3.70902 -29.5012
vn 0.442601 -0.600326 0.666118
v 6.14307 -3.69881 -29.5256
vn 0.527111 -0.581052 0.620107
v 6.18513 -3.68565 -29.5531
vn 0.606545 -0.556182 0.568124
v 6.2241 -3.66964 -29.5835
vn 0.680138 -0.525956 0.510669
v 6.2596 -3.65095 -29.6166
vn 0.747181 -0.490664 0.448297
v 6.29129 -3.62977 -29.6519
vn 0.807028 -0.450647 0.381607
v 6.31886 -3.60628 -29.6891
vn 0.859102 -0.40629 0.311242
v 6.34205 -3.58072 -29.728
vn 0.902903 -0.358021 0.237879
v 6.36064 -3.55334 -29.768
vn 0.938009 -0.306303 0.162226
v 6.37445 -3.52439 -29.8089
vn 0.964081 -0.251636 0.0850102
v 6.38333 -3.49416 -29.8502
vn 0.980869 -0.194545 0.00697583
v 6.38722 -3.46294 -29.8916
vn 0.98821 -0.13558 -0.0711257
v 6.38607 -3.43103 -29.9326
vn 0.986034 -0.0753103 -0.148542
v 6.37989 -3.39873 -29.9728
vn 0.974362 -0.0143149 -0.224528
v 6.36874 -3.36636 -30.0119
vn 0.953307 0.0468184 -0.298352
v 6.35273 -3.33423 -30.0495
vn 0.923071 0.107501 -0.369302
v 6.33201 -3.30265 -30.0852
vn 0.883945 0.167148 -0.436696
v 6.30679 -3.27192 -30.1186
vn 0.836306 0.225185 -0.499884
v 6.2773 -3.24234 -30.1495
vn 0.780613 0.281054 -0.558258
v 6.24383 -3.21419 -30.1776
vn 0.717402 0.334216 -0.611256
v 6.2067 -3.18774 -30.2025
vn 0.647282 0.384159 -0.658367
v 6.16628 -3.16326 -30.2241
vn 0.570929 0.430403 -0.699138
v 6.12294 -3.14097 -30.2421
vn 0.489077 0.472502 -0.733175
v 5.78911 -4.60193 -31.3921
vn 0.398119 0.487874 -0.77684
v 5.73953 -4.58397 -31.4028
vn 0.307702 0.520616 -0.796416
v 5.68831 -4.56876 -31.4093
vn 0.214321 0.548346 -0.808321
v 5.63597 -4.55645 -31.4116
vn 0.118877 0.570794 -0.812442
v 5.583 -4.54715 -31.4096
vn 0.0222878 0.587745 -0.808739
v 5.52991 -4.54096 -31.4033
vn -0.0745162 0.599036 -0.797247
v 5.47721 -4.53793 -31.3927
vn -0.170602 0.604558 -0.778078
v 5.42542 -4.5381 -31.3781
vn -0.265046 0.604257 -0.751415
v 5.37503 -4.54145 -31.3595
vn -0.356937 0.598138 -0.717515
v 5.32652 -4.54797 -31.3372
vn -0.44539 0.586257 -0.676705
v 5.28036 -4.55758 -31.3112
vn -0.529554 0.568731 -0.629379
v 5.237 -4.5702 -31.2819
vn -0.608618 0.545728 -0.575991
v 5.19685 -4.58569 -31.2496
vn -0.68182 0.517469 -0.517056
v 5.16031 -4.60393 -31.2145
vn -0.748457 0.484227 -0.453141
v 5.12772 -4.62471 -31.1771
vn -0.807885 0.446321 -0.384862
v 5.09939 -4.64786 -31.1376
vn -0.859533 0.404117 -0.312877
v 5.07561 -4.67314 -31.0965
vn -0.902903 0.358021 -0.237879
v 5.05659 -4.70031 -31.0541
vn -0.937578 0.308477 -0.16059
v 5.04253 -4.72911 -31.0109
vn -0.963224 0.255962 -0.0817544
v 5.03355 -4.75926 -30.9672
vn -0.979593 0.200982 -0.00213137
v 5.02975 -4.79048 -30.9235
vn -0.986528 0.144067 0.0775122
v 5.03115 -4.82245 -30.8803
vn -0.983962 0.0857642 0.156409
v 5.03776 -4.85488 -30.8378
vn -0.97192 0.0266354 0.2338
v 5.04949 -4.88744 -30.7966
vn -0.950518 -0.0327499 0.308939
v 5.06625 -4.91984 -30.757
vn -0.919962 -0.0918197 0.381103
v 5.08787 -4.95175 -30.7195
vn -0.880546 -0.150005 0.449597
v 5.11414 -4.98287 -30.6843
vn -0.83265 -0.206746 0.51376
v 5.1448 -5.01289 -30.6518
vn -0.776735 -0.261496 0.572976
v 5.17957 -5.04154 -30.6224
vn -0.71334 -0.313728 0.626674
v 5.2181 -5.06853 -30.5962
vn -0.643075 -0.362938 0.674337
v 5.26003 -5.0936 -30.5736
vn -0.566617 -0.408653 0.715506
v 5.30496 -5.11651 -30.5548
vn -0.484702 -0.450432 0.749783
v 5.35244 -5.13704 -30.54
vn -0.398119 -0.487874 0.77684
v 5.40203 -5.155 -30.5293
vn -0.307702 -0.520616 0.796416
v 5.45324 -5.17021 -30.5227
vn -0.214321 -0.548346 0.808321
v 5.50558 -5.18252 -30.5205
vn -0.118877 -0.570794 0.812442
v 5.55855 -5.19181 -30.5225
vn -0.0222878 -0.587745 0.808739
v 5.61164 -5.19801 -30.5288
vn 0.0745162 -0.599036 0.797247
v 5.66434 -5.20103 -30.5393
vn 0.170602 -0.604558 0.778078
v 5.71613 -5.20087 -30.5539
vn 0.265046 -0.604257 0.751415
v 5.76653 -5.19751 -30.5725
vn 0.356937 -0.598138 0.717515
v 5.81504 -5.191 -30.5949
vn 0.44539 -0.586257 0.676705
v 5.86119 -5.18139 -30.6209
vn 0.529554 -0.568731 0.629379
v 5.90455 -5.16877 -30.6501
vn 0.608618 -0.545728 0.575991
v 5.9447 -5.15327 -30.6825
vn 0.68182 -0.517469 0.517056
v 5.98124 -5.13504 -30.7175
vn 0.748457 -0.484227 0.453141
v 6.01383 -5.11425 -30.755
vn 0.807885 -0.446321 0.384862
v 6.04216 -5.09111 -30.7944
vn 0.859533 -0.404117 0.312877
v 6.06594 -5.06583 -30.8356
vn 0.902903 -0.358021 0.237879
v 6.08496 -5.03866 -30.878
vn 0.937578 -0.308477 0.16059
v 6.09902 -5.00986 -30.9212
vn 0.963224 -0.255962 0.0817544
v 6.108 -4.97971 -30.9649
vn 0.979593 -0.200982 0.00213137
v 6.11181 -4.94849 -31.0085
vn 0.986528 -0.144067 -0.0775122
v 6.1104 -4.91652 -31.0518
vn 0.983962 -0.0857642 -0.156409
v 6.10379 -4.88409 -31.0943
vn 0.97192 -0.0266354 -0.2338
v 6.09206 -4.85152 -31.1355
vn 0.950518 0.0327499 -0.308939
v 6.0753 -4.81913 -31.175
vn 0.919962 0.0918197 -0.381103
v 6.05368 -4.78722 -31.2126
vn 0.880546 0.150005 -0.449597
v 6.02742 -4.7561 -31.2478
vn 0.83265 0.206746 -0.51376
v 5.99675 -4.72608 -31.2803
vn 0.776735 0.261496 -0.572976
v 5.96198 -4.69743 -31.3097
vn 0.71334 0.313728 -0.626674
v 5.92345 -4.67044 -31.3359
vn 0.643075 0.362938 -0.674337
v 5.88152 -4.64537 -31.3584
vn 0.566617 0.408653 -0.715506
v 5.8366 -4.62246 -31.3772
vn 0.484702 0.450432 -0.749783
v 5.47173 -6.15034 -32.5179
vn 0.39367 0.466537 -0.792065
v 5.42045 -6.1317 -32.5289
vn 0.303274 0.499383 -0.811567
v 5.36751 -6.11579 -32.5355
vn 0.209958 0.527419 -0.823254
v 5.31342 -6.10277 -32.5377
vn 0.114619 0.550376 -0.827012
v 5.2587 -6.09275 -32.5353
vn 0.0181773 0.568033 -0.822805
v 5.20388 -6.08584 -32.5284
vn -0.07844 0.580219 -0.810675
v 5.1495 -6.08209 -32.5171
vn -0.174302 0.586817 -0.790737
v 5.09606 -6.08156 -32.5015
vn -0.268485 0.587764 -0.763184
v 5.0441 -6.08423 -32.4817
vn -0.360083 0.583051 -0.728281
v 4.9941 -6.09009 -32.4579
vn -0.448212 0.572722 -0.686364
v 4.94654 -6.09908 -32.4304
vn -0.532026 0.556878 -0.637837
v 4.9019 -6.11111 -32.3993
vn -0.610715 0.53567 -0.583168
v 4.86059 -6.12607 -32.3651
vn -0.683523 0.509304 -0.522882
v 4.82302 -6.14381 -32.3281
vn -0.749748 0.478033 -0.457561
v 4.78954 -6.16417 -32.2885
vn -0.808753 0.442158 -0.387833
v 4.76049 -6.18694 -32.2468
vn -0.859969 0.402025 -0.31437
v 4.73613 -6.2119 -32.2034
vn -0.902903 0.358021 -0.237879
v 4.7167 -6.23882 -32.1587
vn -0.937142 0.310568 -0.159098
v 4.7024 -6.26744 -32.1132
vn -0.962356 0.260125 -0.0787842
v 4.69335 -6.29748 -32.0672
vn -0.978301 0.207176 0.00228817
v 4.68965 -6.32865 -32.0212
vn -0.984825 0.152232 0.0833385
v 4.69133 -6.36066 -31.9757
vn -0.981864 0.095822 0.163586
v 4.69837 -6.39319 -31.931
vn -0.969448 0.0384892 0.242258
v 4.71072 -6.42592 -31.8877
vn -0.947695 -0.0192143 0.318598
v 4.72824 -6.45856 -31.8462
vn -0.916816 -0.0767327 0.391869
v 4.75076 -6.49077 -31.8067
vn -0.877107 -0.133512 0.461366
v 4.77809 -6.52225 -31.7698
vn -0.828951 -0.189006 0.526419
v 4.80994 -6.55271 -31.7358
vn -0.772812 -0.242679 0.586404
v 4.84601 -6.58183 -31.705
vn -0.70923 -0.294016 0.64074
v 4.88596 -6.60935 -31.6776
vn -0.638818 -0.34252 0.688906
v 4.92939 -6.635 -31.6541
vn -0.562253 -0.387726 0.730438
v 4.97591 -6.65853 -31.6345
vn -0.480274 -0.429199 0.764935
v 5.02504 -6.67971 -31.6191
vn -0.39367 -0.466537 0.792065
v 5.07633 -6.69835 -31.608
vn -0.303274 -0.499383 0.811567
v 5.12927 -6.71425 -31.6014
vn -0.209958 -0.527419 0.823254
v 5.18336 -6.72728 -31.5993
vn -0.114619 -0.550376 0.827012
v 5.23807 -6.73729 -31.6017
vn -0.0181773 -0.568033 0.822805
v 5.29289 -6.74421 -31.6085
vn 0.07844 -0.580219 0.810675
v 5.34728 -6.74795 -31.6199
vn 0.174302 -0.586817 0.790737
v 5.40071 -6.74849 -31.6355
vn 0.268485 -0.587764 0.763184
v 5.45268 -6.74581 -31.6553
vn 0.360083 -0.583051 0.728281
v 5.50268 -6.73995 -31.6791
vn 0.448212 -0.572722 0.686364
v 5.55023 -6.73097 -31.7066
vn 0.532026 -0.556878 0.637837
v 5.59487 -6.71893 -31.7376
vn 0.610715 -0.53567 0.583168
v 5.63618 -6.70397 -31.7718
vn 0.683523 -0.509304 0.522882
v 5.67375 -6.68623 -31.8089
vn 0.749748 -0.478033 0.457561
v 5.70723 -6.66588 -31.8484
vn 0.808753 -0.442158 0.387833
v 5.73629 -6.64311 -31.8901
vn 0.859969 -0.402025 0.31437
v 5.76065 -6.61814 -31.9335
vn 0.902903 -0.358021 0.237879
v 5.78007 -6.59122 -31.9782
vn 0.937142 -0.310568 0.159098
v 5.79438 -6.5626 -32.0238
vn 0.962356 -0.260125 0.0787842
v 5.80342 -6.53256 -32.0698
vn 0.978301 -0.207176 -0.00228817
v 5.80712 -6.50139 -32.1158
vn 0.984825 -0.152232 -0.0833385
v 5.80544 -6.46939 -32.1613
vn 0.981864 -0.095822 -0.163586
v 5.7984 -6.43686 -32.2059
vn 0.969448 -0.0384892 -0.242258
v 5.78606 -6.40412 -32.2492
vn 0.947695 0.0192143 -0.318598
v 5.76854 -6.37149 -32.2908
vn 0.916816 0.0767327 -0.391869
v 5.74601 -6.33928 -32.3302
vn 0.877107 0.133512 -0.461366
v 5.71869 -6.30779 -32.3671
vn 0.828951 0.189006 -0.526419
v 5.68684 -6.27734 -32.4012
vn 0.772812 0.242679 -0.586404
v 5.65077 -6.24821 -32.432
vn 0.70923 0.294016 -0.64074
v 5.61082 -6.2207 -32.4593
vn 0.638818 0.34252 -0.688906
v 5.56738 -6.19505 -32.4829
vn 0.562253 0.387726 -0.730438
v 5.52087 -6.17152 -32.5025
vn 0.480274 0.429199 -0.764935
f 1 66 2 
f 1 65 66 
f 2 67 3 
f 2 66 67 
f 3 68 4 
f 3 67 68 
f 4 69 5 
f 4 68 69 
f 5 70 6 
f 5 69 70 
f 6 71 7 
f 6 70 71 
f 7 72 8 
f 7 71 72 
f 8 73 9 
f 8 72 73 
f 9 74 10 
f 9 73 74 
f 10 75 11 
f 10 74 75 
f 11 76 12 
f 11 75 76 
f 12 77 13 
f 12 76 77 
f 13 78 14 
f 13 77 78 
f 14 79 15 
f 14 78 79 
f 15 80 16 
f 15 79 80 
f 16 81 17 
f 16 80 81 
f 17 82 18 
f 17 81 82 
f 18 83 19 
f 18 82 83 
f 19 84 20 
f 19 83 84 
f 20 85 21 
f 20 84 85 
f 21 86 22 
f 21 85 86 
f 22 87 23 
f 22 86 87 
f 23 88 24 
f 23 87 88 
f 24 89 25 
f 24 88 89 
f 25 90 26 
f 25 89 90 
f 26 91 27 
f 26 90 91 
f 27 92 28 
f 27 91 92 
f 28 93 29 
f 28 92 93 
f 29 94 30 
f 29 93 94 
f 30 95 31 
f 30 94 95 
f 31 96 32 
f 31 95 96 
f 32 97 33 
f 32 96 97 
f 33 98 34 
f 33 97 98 
f 34 99 35 
f 34 98 99 
f 35 100 36 
f 35 99 100 
f 36 101 37 
f 36 100 101 
f 37 102 38 
f 37 101 102 
f 38 103 39 
f 38 102 103 
f 39 104 40 
f 39 103 104 
f 40 105 41 
f 40 104 105 
f 41 106 42 
f 41 105 106 
f 42 107 43 
f 42 106 107 
f 43 108 44 
f 43 107 108 
f 44 109 45 
f 44 108 109 
f 45 110 46 
f 45 109 110 
f 46 111 47 
f 46 110 111 
f 47 112 48 
f 47 111 112 
f 48 113 49 
f 48 112 113 
f 49 114 50 
f 49 113 114 
f 50 115 51 
f 50 114 115 
f 51 116 52 
f 51 115 116 
f 52 117 53 
f 52 116 117 
f 53 118 54 
f 53 117 118 
f 54 119 55 
f 54 118 119 
f 55 120 56 
f 55 119 120 
f 56 121 57 
f 56 120 121 
f 57 122 58 
f 57 121 122 
f 58 123 59 
f 58 122 123 
f 59 124 60 
f 59 123 124 
f 60 125 61 
f 60 124 125 
f 61 126 62 
f 61 125 126 
f 62 127 63 
f 62 126 127 
f 63 128 64 
f 63 127 128 
f 64 65 1 
f 64 128 65 
f 65 130 66 
f 65 129 130 
f 66 131 67 
f 66 130 131 
f 67 132 68 
f 67 131 132 
f 68 133 69 
f 68 132 133 
f 69 134 70 
f 69 133 134 
f 70 135 71 
f 70 134 135 
f 71 136 72 
f 71 135 136 
f 72 137 73 
f 72 136 137 
f 73 138 74 
f 73 137 138 
f 74 139 75 
f 74 138 139 
f 75 140 76 
f 75 139 140 
f 76 141 77 
f 76 140 141 
f 77 142 78 
f 77 141 142 
f 78 143 79 
f 78 142 143 
f 79 144 80 
f 79 143 144 
f 80 145 81 
f 80 144 145 
f 81 146 82 
f 81 145 146 
f 82 147 83 
f 82 146 147 
f 83 148 84 
f 83 147 148 
f 84 149 85 
f 84 148 149 
f 85 150 86 
f 85 149 150 
f 86 151 87 
f 86 150 151 
f 87 152 88 
f 87 151 152 
f 88 153 89 
f 88 152 153 
f 89 154 90 
f 89 153 154 
f 90 155 91 
f 90 154 155 
f 91 156 92 
f 91 155 156 
f 92 157 93 
f 92 156 157 
f 93 158 94 
f 93 157 158 
f 94 159 95 
f 94 158 159 
f 95 160 96 
f 95 159 160 
f 96 161 97 
f 96 160 161 
f 97 162 98 
f 97 161 162 
f 98 163 99 
f 98 162 163 
f 99 164 100 
f 99 163 164 
f 100 165 101 
f 100 164 165 
f 101 166 102 
f 101 165 166 
f 102 167 103 
f 102 166 167 
f 103 168 104 
f 103 167 168 
f 104 169 105 
f 104 168 169 
f 105 170 106 
f 105 169 170 
f 106 171 107 
f 106 170 171 
f 107 172 108 
f 107 171 172 
f 108 173 109 
f 108 172 173 
f 109 174 110 
f 109 173 174 
f 110 175 111 
f 110 174 175 
f 111 176 112 
f 111 175 176 
f 112 177 113 
f 112 176 177 
f 113 178 114 
f 113 177 178 
f 114 179 115 
f 114 178 179 
f 115 180 116 
f 115 179 180 
f 116 181 117 
f 116 180 181 
f 117 182 118 
f 117 181 182 
f 118 183 119 
f 118 182 183 
f 119 184 120 
f 119 183 184 
f 120 185 121 
f 120 184 185 
f 121 186 122 
f 121 185 186 
f 122 187 123 
f 122 186 187 
f 123 188 124 
f 123 187 188 
f 124 189 125 
f 124 188 189 
f 125 190 126 
f 125 189 190 
f 126 191 127 
f 126 190 191 
f 127 192 128 
f 127 191 192 
f 128 129 65 
f 128 192 129 
f 129 194 130 
f 129 193 194 
f 130 195 131 
f 130 194 195 
f 131 196 132 
f 131 195 196 
f 132 197 133 
f 132 196 197 
f 133 198 134 
f 133 197 198 
f 134 199 135 
f 134 198 199 
f 135 200 136 
f 135 199 200 
f 136 201 137 
f 136 200 201 
f 137 202 138 
f 137 201 202 
f 138 203 139 
f 138 202 203 
f 139 204 140 
f 139 203 204 
f 140 205 141 
f 140 204 205 
f 141 206 142 
f 141 205 206 
f 142 207 143 
f 142 206 207 
f 143 208 144 
f 143 207 208 
f 144 209 145 
f 144 208 209 
f 145 210 146 
f 145 209 210 
f 146 211 147 
f 146 210 211 
f 147 212 148 
f 147 211 212 
f 148 213 149 
f 148 212 213 
f 149 214 150 
f 149 213 214 
f 150 215 151 
f 150 214 215 
f 151 216 152 
f 151 215 216 
f 152 217 153 
f 152 216 217 
f 153 218 154 
f 153 217 218 
f 154 219 155 
f 154 218 219 
f 155 220 156 
f 155 219 220 
f 156 221 157 
f 156 220 221 
f 157 222 158 
f 157 221 222 
f 158 223 159 
f 158 222 223 
f 159 224 160 
f 159 223 224 
f 160 225 161 
f 160 224 225 
f 161 226 162 
f 161 225 226 
f 162 227 163 
f 162 226 227 
f 163 228 164 
f 163 227 228 
f 164 229 165 
f 164 228 229 
f 165 230 166 
f 165 229 230 
f 166 231 167 
f 166 230 231 
f 167 232 168 
f 167 231 232 
f 168 233 169 
f 168 232 233 
f 169 234 170 
f 169 233 234 
f 170 235 171 
f 170 234 235 
f 171 236 172 
f 171 235 236 
f 172 237 173 
f 172 236 237 
f 173 238 174 
f 173 237 238 
f 174 239 175 
f 174 238 239 
f 175 240 176 
f 175 239 240 
f 176 241 177 
f 176 240 241 
f 177 242 178 
f 177 241 242 
f 178 243 179 
f 178 242 243 
f 179 244 180 
f 179 243 244 
f 180 245 181 
f 180 244 245 
f 181 246 182 
f 181 245 246 
f 182 247 183 
f 182 246 247 
f 183 248 184 
f 183 247 248 
f 184 249 185 
f 184 248 249 
f 185 250 186 
f 185 249 250 
f 186 251 187 
f 186 250 251 
f 187 252 188 
f 187 251 252 
f 188 253 189 
f 188 252 253 
f 189 254 190 
f 189 253 254 
f 190 255 191 
f 190 254 255 
f 191 256 192 
f 191 255 256 
f 192 193 129 
f 192 256 193 
f 193 258 194 
f 193 257 258 
f 194 259 195 
f 194 258 259 
f 195 260 196 
f 195 259 260 
f 196 261 197 
f 196 260 261 
f 197 262 198 
f 197 261 262 
f 198 263 199 
f 198 262 263 
f 199 264 200 
f 199 263 264 
f 200 265 201 
f 200 264 265 
f 201 266 202 
f 201 265 266 
f 202 267 203 
f 202 266 267 
f 203 268 204 
f 203 267 268 
f 204 269 205 
f 204 268 269 
f 205 270 206 
f 205 269 270 
f 206 271 207 
f 206 270 271 
f 207 272 208 
f 207 271 272 
f 208 273 209 
f 208 272 273 
f 209 274 210 
f 209 273 274 
f 210 275 211 
f 210 274 275 
f 211 276 212 
f 211 275 276 
f 212 277 213 
f 212 276 277 
f 213 278 214 
f 213 277 278 
f 214 279 215 
f 214 278 279 
f 215 280 216 
f 215 279 280 
f 216 281 217 
f 216 280 281 
f 217 282 218 
f 217 281 282 
f 218 283 219 
f 218 282 283 
f 219 284 220 
f 219 283 284 
f 220 285 221 
f 220 284 285 
f 221 286 222 
f 221 285 286 
f 222 287 223 
f 222 286 287 
f 223 288 224 
f 223 287 288 
f 224 289 225 
f 224 288 289 
f 225 290 226 
f 225 289 290 
f 226 291 227 
f 226 290 291 
f 227 292 228 
f 227 291 292 
f 228 293 229 
f 228 292 293 
f 229 294 230 
f 229 293 294 
f 230 295 231 
f 230 294 295 
f 231 296 232 
f 231 295 296 
f 232 297 233 
f 232 296 297 
f 233 298 234 
f 233 297 298 
f 234 299 235 
f 234 298 299 
f 235 300 236 
f 235 299 300 
f 236 301 237 
f 236 300 301 
f 237 302 238 
f 237 301 302 
f 238 303 239 
f 238 302 303 
f 239 304 240 
f 239 303 304 
f 240 305 241 
f 240 304 305 
f 241 306 242 
f 241 305 306 
f 242 307 243 
f 242 306 307 
f 243 308 244 
f 243 307 308 
f 244 309 245 
f 244 308 309 
f 245 310 246 
f 245 309 310 
f 246 311 247 
f 246 310 311 
f 247 312 248 
f 247 311 312 
f 248 313 249 
f 248 312 313 
f 249 314 250 
f 249 313 314 
f 250 315 251 
f 250 314 315 
f 251 316 252 
f 251 315 316 
f 252 317 253 
f 252 316 317 
f 253 318 254 
f 253 317 318 
f 254 319 255 
f 254 318 319 
f 255 320 256 
f 255 319 320 
f 256 257 193 
f 256 320 257 
f 257 322 258 
f 257 321 322 
f 258 323 259 
f 258 322 323 
f 259 324 260 
f 259 323 324 
f 260 325 261 
f 260 324 325 
f 261 326 262 
f 261 325 326 
f 262 327 263 
f 262 326 327 
f 263 328 264 
f 263 327 328 
f 264 329 265 
f 264 328 329 
f 265 330 266 
f 265 329 330 
f 266 331 267 
f 266 330 331 
f 267 332 268 
f 267 331 332 
f 268 333 269 
f 268 332 333 
f 269 334 270 
f 269 333 334 
f 270 335 271 
f 270 334 335 
f 271 336 272 
f 271 335 336 
f 272 337 273 
f 272 336 337 
f 273 338 274 
f 273 337 338 
f 274 339 275 
f 274 338 339 
f 275 340 276 
f 275 339 340 
f 276 341 277 
f 276 340 341 
f 277 342 278 
f 277 341 342 
f 278 343 279 
f 278 342 343 
f 279 344 280 
f 279 343 344 
f 280 345 281 
f 280 344 345 
f 281 346 282 
f 281 345 346 
f 282 347 283 
f 282 346 347 
f 283 348 284 
f 283 347 348 
f 284 349 285 
f 284 348 349 
f 285 350 286 
f 285 349 350 
f 286 351 287 
f 286 350 351 
f 287 352 288 
f 287 351 352 
f 288 353 289 
f 288 352 353 
f 289 354 290 
f 289 353 354 
f 290 355 291 
f 290 354 355 
f 291 356 292 
f 291 355 356 
f 292 357 293 
f 292 356 357 
f 293 358 294 
f 293 357 358 
f 294 359 295 
f 294 358 359 
f 295 360 296 
f 295 359 360 
f 296 361 297 
f 296 360 361 
f 297 362 298 
f 297 361 362 
f 298 363 299 
f 298 362 363 
f 299 364 300 
f 299 363 364 
f 300 365 301 
f 300 364 365 
f 301 366 302 
f 301 365 366 
f 302 367 303 
f 302 366 367 
f 303 368 304 
f 303 367 368 
f 304 369 305 
f 304 368 369 
f 305 370 306 
f 305 369 370 
f 306 371 307 
f 306 370 371 
f 307 372 308 
f 307 371 372 
f 308 373 309 
f 308 372 373 
f 309 374 310 
f 309 373 374 
f 310 375 311 
f 310 374 375 
f 311 376 312 
f 311 375 376 
f 312 377 313 
f 312 376 377 
f 313 378 314 
f 313 377 378 
f 314 379 315 
f 314 378 379 
f 315 380 316 
f 315 379 380 
f 316 381 317 
f 316 380 381 
f 317 382 318 
f 317 381 382 
f 318 383 319 
f 318 382 383 
f 319 384 320 
f 319 383 384 
f 320 321 257 
f 320 384 321 
f 321 386 322 
f 321 385 386 
f 322 387 323 
f 322 386 387 
f 323 388 324 
f 323 387 388 
f 324 389 325 
f 324 388 389 
f 325 390 326 
f 325 389 390 
f 326 391 327 
f 326 390 391 
f 327 392 328 
f 327 391 392 
f 328 393 329 
f 328 392 393 
f 329 394 330 
f 329 393 394 
f 330 395 331 
f 330 394 395 
f 331 396 332 
f 331 395 396 
f 332 397 333 
f 332 396 397 
f 333 398 334 
f 333 397 398 
f 334 399 335 
f 334 398 399 
f 335 400 336 
f 335 399 400 
f 336 401 337 
f 336 400 401 
f 337 402 338 
f 337 401 402 
f 338 403 339 
f 338 402 403 
f 339 404 340 
f 339 403 404 
f 340 405 341 
f 340 404 405 
f 341 406 342 
f 341 405 406 
f 342 407 343 
f 342 406 407 
f 343 408 344 
f 343 407 408 
f 344 409 345 
f 344 408 409 
f 345 410 346 
f 345 409 410 
f 346 411 347 
f 346 410 411 
f 347 412 348 
f 347 411 412 
f 348 413 349 
f 348 412 413 
f 349 414 350 
f 349 413 414 
f 350 415 351 
f 350 414 415 
f 351 416 352 
f 351 415 416 
f 352 417 353 
f 352 416 417 
f 353 418 354 
f 353 417 418 
f 354 419 355 
f 354 418 419 
f 355 420 356 
f 355 419 420 
f 356 421 357 
f 356 420 421 
f 357 422 358 
f 357 421 422 
f 358 423 359 
f 358 422 423 
f 359 424 360 
f 359 423 424 
f 360 425 361 
f 360 424 425 
f 361 426 362 
f 361 425 426 
f 362 427 363 
f 362 426 427 
f 363 428 364 
f 363 427 428 
f 364 429 365 
f 364 428 429 
f 365 430 366 
f 365 429 430 
f 366 431 367 
f 366 430 431 
f 367 432 368 
f 367 431 432 
f 368 433 369 
f 368 432 433 
f 369 434 370 
f 369 433 434 
f 370 435 371 
f 370 434 435 
f 371 436 372 
f 371 435 436 
f 372 437 373 
f 372 436 437 
f 373 438 374 
f 373 437 438 
f 374 439 375 
f 374 438 439 
f 375 440 376 
f 375 439 440 
f 376 441 377 
f 376 440 441 
f 377 442 378 
f 377 441 442 
f 378 443 379 
f 378 442 443 
f 379 444 380 
f 379 443 444 
f 380 445 381 
f 380 444 445 
f 381 446 382 
f 381 445 446 
f 382 447 383 
f 382 446 447 
f 383 448 384 
f 383 447 448 
f 384 385 321 
f 384 448 385 
f 385 450 386 
f 385 449 450 
f 386 451 387 
f 386 450 451 
f 387 452 388 
f 387 451 452 
f 388 453 389 
f 388 452 453 
f 389 454 390 
f 389 453 454 
f 390 455 391 
f 390 454 455 
f 391 456 392 
f 391 455 456 
f 392 457 393 
f 392 456 457 
f 393 458 394 
f 393 457 458 
f 394 459 395 
f 394 458 459 
f 395 460 396 
f 395 459 460 
f 396 461 397 
f 396 460 461 
f 397 462 398 
f 397 461 462 
f 398 463 399 
f 398 462 463 
f 399 464 400 
f 399 463 464 
f 400 465 401 
f 400 464 465 
f 401 466 402 
f 401 465 466 
f 402 467 403 
f 402 466 467 
f 403 468 404 
f 403 467 468 
f 404 469 405 
f 404 468 469 
f 405 470 406 
f 405 469 470 
f 406 471 407 
f 406 470 471 
f 407 472 408 
f 407 471 472 
f 408 473 409 
f 408 472 473 
f 409 474 410 
f 409 473 474 
f 410 475 411 
f 410 474 475 
f 411 476 412 
f 411 475 476 
f 412 477 413 
f 412 476 477 
f 413 478 414 
f 413 477 478 
f 414 479 415 
f 414 478 479 
f 415 480 416 
f 415 479 480 
f 416 481 417 
f 416 480 481 
f 417 482 418 
f 417 481 482 
f 418 483 419 
f 418 482 483 
f 419 484 420 
f 419 483 484 
f 420 485 421 
f 420 484 485 
f 421 486 422 
f 421 485 486 
f 422 487 423 
f 422 486 487 
f 423 488 424 
f 423 487 488 
f 424 489 425 
f 424 488 489 
f 425 490 426 
f 425 489 490 
f 426 491 427 
f 426 490 491 
f 427 492 428 
f 427 491 492 
f 428 493 429 
f 428 492 493 
f 429 494 430 
f 429 493 494 
f 430 495 431 
f 430 494 495 
f 431 496 432 
f 431 495 496 
f 432 497 433 
f 432 496 497 
f 433 498 434 
f 433 497 498 
f 434 499 435 
f 434 498 499 
f 435 500 436 
f 435 499 500 
f 436 501 437 
f 436 500 501 
f 437 502 438 
f 437 501 502 
f 438 503 439 
f 438 502 503 
f 439 504 440 
f 439 503 504 
f 440 505 441 
f 440 504 505 
f 441 506 442 
f 441 505 506 
f 442 507 443 
f 442 506 507 
f 443 508 444 
f 443 507 508 
f 444 509 445 
f 444 508 509 
f 445 510 446 
f 445 509 510 
f 446 511 447 
f 446 510 511 
f 447 512 448 
f 447 511 512 
f 448 449 385 
f 448 512 449 
f 449 514 450 
f 449 513 514 
f 450 515 451 
f 450 514 515 
f 451 516 452 
f 451 515 516 
f 452 517 453 
f 452 516 517 
f 453 518 454 
f 453 517 518 
f 454 519 455 
f 454 518 519 
f 455 520 456 
f 455 519 520 
f 456 521 457 
f 456 520 521 
f 457 522 458 
f 457 521 522 
f 458 523 459 
f 458 522 523 
f 459 524 460 
f 459 523 524 
f 460 525 461 
f 460 524 525 
f 461 526 462 
f 461 525 526 
f 462 527 463 
f 462 526 527 
f 463 528 464 
f 463 527 528 
f 464 529 465 
f 464 528 529 
f 465 530 466 
f 465 529 530 
f 466 531 467 
f 466 530 531 
f 467 532 468 
f 467 531 532 
f 468 533 469 
f 468 532 533 
f 469 534 470 
f 469 533 534 
f 470 535 471 
f 470 534 535 
f 471 536 472 
f 471 535 536 
f 472 537 473 
f 472 536 537 
f 473 538 474 
f 473 537 538 
f 474 539 475 
f 474 538 539 
f 475 540 476 
f 475 539 540 
f 476 541 477 
f 476 540 541 
f 477 542 478 
f 477 541 542 
f 478 543 479 
f 478 542 543 
f 479 544 480 
f 479 543 544 
f 480 545 481 
f 480 544 545 
f 481 546 482 
f 481 545 546 
f 482 547 483 
f 482 546 547 
f 483 548 484 
f 483 547 548 
f 484 549 485 
f 484 548 549 
f 485 550 486 
f 485 549 550 
f 486 551 487 
f 486 550 551 
f 487 552 488 
f 487 551 552 
f 488 553 489 
f 488 552 553 
f 489 554 490 
f 489 553 554 
f 490 555 491 
f 490 554 555 
f 491 556 492 
f 491 555 556 
f 492 557 493 
f 492 556 557 
f 493 558 494 
f 493 557 558 
f 494 559 495 
f 494 558 559 
f 495 560 496 
f 495 559 560 
f 496 561 497 
f 496 560 561 
f 497 562 498 
f 497 561 562 
f 498 563 499 
f 498 562 563 
f 499 564 500 
f 499 563 564 
f 500 565 501 
f 500 564 565 
f 501 566 502 
f 501 565 566 
f 502 567 503 
f 502 566 567 
f 503 568 504 
f 503 567 568 
f 504 569 505 
f 504 568 569 
f 505 570 506 
f 505 569 570 
f 506 571 507 
f 506 570 571 
f 507 572 508 
f 507 571 572 
f 508 573 509 
f 508 572 573 
f 509 574 510 
f 509 573 574 
f 510 575 511 
f 510 574 575 
f 511 576 512 
f 511 575 576 
f 512 513 449 
f 512 576 513 
f 513 578 514 
f 513 577 578 
f 514 579 515 
f 514 578 579 
f 515 580 516 
f 515 579 580 
f 516 581 517 
f 516 580 581 
f 517 582 518 
f 517 581 582 
f 518 583 519 
f 518 582 583 
f 519 584 520 
f 519 583 584 
f 520 585 521 
f 520 584 585 
f 521 586 522 
f 521 585 586 
f 522 587 523 
f 522 586 587 
f 523 588 524 
f 523 587 588 
f 524 589 525 
f 524 588 589 
f 525 590 526 
f 525 589 590 
f 526 591 527 
f 526 590 591 
f 527 592 528 
f 527 591 592 
f 528 593 529 
f 528 592 593 
f 529 594 530 
f 529 593 594 
f 530 595 531 
f 530 594 595 
f 531 596 532 
f 531 595 596 
f 532 597 533 
f 532 596 597 
f 533 598 534 
f 533 597 598 
f 534 599 535 
f 534 598 599 
f 535 600 536 
f 535 599 600 
f 536 601 537 
f 536 600 601 
f 537 602 538 
f 537 601 602 
f 538 603 539 
f 538 602 603 
f 539 604 540 
f 539 603 604 
f 540 605 541 
f 540 604 605 
f 541 606 542 
f 541 605 606 
f 542 607 543 
f 542 606 607 
f 543 608 544 
f 543 607 608 
f 544 609 545 
f 544 608 609 
f 545 610 546 
f 545 609 610 
f 546 611 547 
f 546 610 611 
f 547 612 548 
f 547 611 612 
f 548 613 549 
f 548 612 613 
f 549 614 550 
f 549 613 614 
f 550 615 551 
f 550 614 615 
f 551 616 552 
f 551 615 616 
f 552 617 553 
f 552 616 617 
f 553 618 554 
f 553 617 618 
f 554 619 555 
f 554 618 619 
f 555 620 556 
f 555 619 620 
f 556 621 557 
f 556 620 621 
f 557 622 558 
f 557 621 622 
f 558 623 559 
f 558 622 623 
f 559 624 560 
f 559 623 624 
f 560 625 561 
f 560 624 625 
f 561 626 562 
f 561 625 626 
f 562 627 563 
f 562 626 627 
f 563 628 564 
f 563 627 628 
f 564 629 565 
f 564 628 629 
f 565 630 566 
f 565 629 630 
f 566 631 567 
f 566 630 631 
f 567 632 568 
f 567 631 632 
f 568 633 569 
f 568 632 633 
f 569 634 570 
f 569 633 634 
f 570 635 571 
f 570 634 635 
f 571 636 572 
f 571 635 636 
f 572 637 573 
f 572 636 637 
f 573 638 574 
f 573 637 638 
f 574 639 575 
f 574 638 639 
f 575 640 576 
f 575 639 640 
f 576 577 513 
f 576 640 577 
