# Branch
v 7.24821 6.39138 -26.7842
vn 0.107754 -0.00451828 0.994167
v 7.29343 6.38486 -26.7914
vn 0.203695 -0.0183608 0.978862
v 7.33773 6.37842 -26.803
vn 0.297675 -0.0320264 0.95413
v 7.38068 6.37212 -26.819
vn 0.388787 -0.0453836 0.920209
v 7.42186 6.36603 -26.8392
vn 0.476156 -0.0583038 0.877426
v 7.46089 6.36021 -26.8633
vn 0.558938 -0.0706624 0.826193
v 7.49737 6.3547 -26.8912
vn 0.636338 -0.0823406 0.767003
v 7.53097 6.34957 -26.9226
vn 0.70761 -0.0932257 0.700427
v 7.56135 6.34486 -26.9572
vn 0.772067 -0.103213 0.627105
v 7.58823 6.34062 -26.9946
vn 0.829088 -0.112206 0.547743
v 7.61134 6.33689 -27.0345
vn 0.878125 -0.120119 0.463107
v 7.63047 6.33371 -27.0765
vn 0.918705 -0.126875 0.37401
v 7.64543 6.3311 -27.1202
vn 0.950437 -0.132409 0.281312
v 7.65607 6.32909 -27.1652
vn 0.973017 -0.136668 0.185905
v 7.6623 6.32771 -27.211
vn 0.986225 -0.139611 0.0887068
v 7.66405 6.32695 -27.2572
vn 0.989936 -0.141209 -0.00934537
v 7.6613 6.32684 -27.3034
vn 0.984113 -0.141447 -0.107308
v 7.65409 6.32737 -27.3491
vn 0.968812 -0.140323 -0.204236
v 7.64248 6.32854 -27.3938
vn 0.944181 -0.137848 -0.299198
v 7.62658 6.33033 -27.4372
vn 0.910458 -0.134045 -0.391278
v 7.60655 6.33273 -27.4789
vn 0.867966 -0.128951 -0.479591
v 7.58258 6.33572 -27.5183
vn 0.817115 -0.122615 -0.563284
v 7.5549 6.33926 -27.5552
vn 0.758395 -0.115099 -0.641553
v 7.52378 6.34333 -27.5892
vn 0.692371 -0.106474 -0.713643
v 7.48952 6.34787 -27.6199
vn 0.619679 -0.0968232 -0.77886
v 7.45244 6.35286 -27.6471
vn 0.541019 -0.0862403 -0.836577
v 7.4129 6.35824 -27.6705
vn 0.457149 -0.0748269 -0.886237
v 7.3713 6.36396 -27.6899
vn 0.368877 -0.0626929 -0.927362
v 7.32801 6.36997 -27.7051
vn 0.277052 -0.0499551 -0.959556
v 7.28347 6.3762 -27.7159
vn 0.182558 -0.0367362 -0.982508
v 7.2381 6.3826 -27.7223
vn 0.0863069 -0.0231635 -0.995999
v 7.19234 6.3891 -27.7241
vn -0.0107757 -0.0093677 -0.999898
v 7.14662 6.39564 -27.7214
vn -0.107754 0.00451828 -0.994167
v 7.1014 6.40217 -27.7142
vn -0.203695 0.0183608 -0.978862
v 7.0571 6.40861 -27.7025
vn -0.297675 0.0320264 -0.95413
v 7.01415 6.41491 -27.6866
vn -0.388787 0.0453836 -0.920209
v 6.97297 6.421 -27.6664
vn -0.476156 0.0583038 -0.877426
v 6.93395 6.42682 -27.6422
vn -0.558938 0.0706624 -0.826193
v 6.89746 6.43233 -27.6143
vn -0.636338 0.0823406 -0.767003
v 6.86387 6.43746 -27.583
vn -0.70761 0.0932257 -0.700427
v 6.83348 6.44217 -27.5484
vn -0.772067 0.103213 -0.627105
v 6.8066 6.44641 -27.511
vn -0.829088 0.112206 -0.547743
v 6.78349 6.45014 -27.4711
vn -0.878125 0.120119 -0.463107
v 6.76436 6.45332 -27.4291
vn -0.918705 0.126875 -0.37401
v 6.7494 6.45593 -27.3854
vn -0.950437 0.132409 -0.281312
v 6.73876 6.45794 -27.3404
vn -0.973017 0.136668 -0.185905
v 6.73253 6.45932 -27.2946
vn -0.986225 0.139611 -0.0887068
v 6.73079 6.46008 -27.2484
vn -0.989936 0.141209 0.00934537
v 6.73353 6.46019 -27.2022
vn -0.984113 0.141447 0.107308
v 6.74074 6.45966 -27.1565
vn -0.968812 0.140323 0.204236
v 6.75235 6.45849 -27.1118
vn -0.944181 0.137848 0.299198
v 6.76825 6.4567 -27.0683
vn -0.910458 0.134045 0.391278
v 6.78828 6.4543 -27.0267
vn -0.867966 0.128951 0.479591
v 6.81225 6.45131 -26.9873
vn -0.817115 0.122615 0.563284
v 6.83993 6.44777 -26.9504
vn -0.758395 0.115099 0.641553
v 6.87105 6.4437 -26.9164
vn -0.692371 0.106474 0.713643
v 6.90532 6.43915 -26.8857
vn -0.619679 0.0968232 0.77886
v 6.94239 6.43417 -26.8584
vn -0.541019 0.0862403 0.836577
v 6.98193 6.42879 -26.835
vn -0.457149 0.0748269 0.886237
v 7.02354 6.42307 -26.8157
vn -0.368877 0.0626929 0.927362
v 7.06682 6.41706 -26.8005
vn -0.277052 0.0499551 0.959556
v 7.11136 6.41083 -26.7897
vn -0.182558 0.0367362 0.982508
v 7.15673 6.40443 -26.7833
vn -0.0863069 0.0231635 0.995999
v 7.2025 6.39793 -26.7815
vn 0.0107757 0.0093677 0.999898
v 7.02064 4.84029 -26.8266
vn 0.0948951 -0.0917722 0.991248
v 7.06692 4.83382 -26.8339
vn 0.190898 -0.105194 0.975957
v 7.11232 4.82784 -26.8459
vn 0.285063 -0.117604 0.951267
v 7.15639 4.8224 -26.8622
vn 0.376482 -0.12888 0.917416
v 7.19871 4.81756 -26.8827
vn 0.464275 -0.138916 0.874729
v 7.23888 4.81337 -26.9074
vn 0.547598 -0.147613 0.823618
v 7.2765 4.80986 -26.9358
vn 0.625646 -0.154889 0.764576
v 7.31122 4.80707 -26.9679
vn 0.697669 -0.160674 0.69817
v 7.34271 4.80503 -27.0031
vn 0.762974 -0.164911 0.62504
v 7.37065 4.80375 -27.0413
vn 0.82093 -0.16756 0.545891
v 7.39477 4.80326 -27.082
vn 0.870981 -0.168595 0.461485
v 7.41486 4.80354 -27.1248
vn 0.912643 -0.168006 0.372634
v 7.4307 4.8046 -27.1694
vn 0.945516 -0.1658 0.280195
v 7.44216 4.80644 -27.2152
vn 0.969284 -0.161996 0.185057
v 7.44912 4.80902 -27.2619
vn 0.983716 -0.156633 0.0881373
v 7.45151 4.81233 -27.3091
vn 0.988675 -0.149761 -0.0096315
v 7.44931 4.81634 -27.3562
vn 0.984113 -0.141447 -0.107308
v 7.44254 4.82101 -27.4027
vn 0.970073 -0.131771 -0.20395
v 7.43127 4.82628 -27.4484
vn 0.94669 -0.120825 -0.298629
v 7.4156 4.83212 -27.4926
vn 0.914191 -0.108716 -0.390431
v 7.39569 4.83846 -27.5351
vn 0.872887 -0.0955603 -0.478473
v 7.37173 4.84525 -27.5753
vn 0.823177 -0.081484 -0.561908
v 7.34394 4.85241 -27.6129
vn 0.765539 -0.066623 -0.639931
v 7.3126 4.85989 -27.6476
vn 0.700529 -0.0511204 -0.711791
v 7.27801 4.8676 -27.6789
vn 0.628772 -0.0351254 -0.776796
v 7.2405 4.87547 -27.7066
vn 0.55096 -0.0187922 -0.83432
v 7.20043 4.88343 -27.7305
vn 0.467841 -0.00227798 -0.88381
v 7.15819 4.8914 -27.7502
vn 0.380218 0.0142582 -0.924787
v 7.11418 4.89931 -27.7657
vn 0.288932 0.030657 -0.956859
v 7.06884 4.90707 -27.7767
vn 0.194864 0.0467606 -0.979715
v 7.02258 4.91462 -27.7832
vn 0.0989191 0.0624138 -0.993136
v 6.97587 4.92187 -27.7851
vn 0.00202176 0.077466 -0.996993
v 6.92915 4.92877 -27.7823
vn -0.0948951 0.0917722 -0.991248
v 6.88287 4.93524 -27.7749
vn -0.190898 0.105194 -0.975957
v 6.83748 4.94122 -27.763
vn -0.285063 0.117604 -0.951267
v 6.79341 4.94666 -27.7467
vn -0.376482 0.12888 -0.917416
v 6.75108 4.9515 -27.7261
vn -0.464275 0.138916 -0.874729
v 6.71092 4.95569 -27.7015
vn -0.547598 0.147613 -0.823618
v 6.67329 4.9592 -27.673
vn -0.625646 0.154889 -0.764576
v 6.63857 4.96199 -27.641
vn -0.697669 0.160674 -0.69817
v 6.60709 4.96403 -27.6057
vn -0.762974 0.164911 -0.62504
v 6.57915 4.96531 -27.5676
vn -0.82093 0.16756 -0.545891
v 6.55502 4.96581 -27.5269
vn -0.870981 0.168595 -0.461485
v 6.53494 4.96552 -27.4841
vn -0.912643 0.168006 -0.372634
v 6.51909 4.96446 -27.4395
vn -0.945516 0.1658 -0.280195
v 6.50763 4.96262 -27.3936
vn -0.969284 0.161996 -0.185057
v 6.50068 4.96004 -27.3469
vn -0.983716 0.156633 -0.0881373
v 6.49829 4.95673 -27.2998
vn -0.988675 0.149761 0.0096315
v 6.50049 4.95272 -27.2527
vn -0.984113 0.141447 0.107308
v 6.50725 4.94805 -27.2061
vn -0.970073 0.131771 0.20395
v 6.51853 4.94278 -27.1605
vn -0.94669 0.120825 0.298629
v 6.53419 4.93694 -27.1162
vn -0.914191 0.108716 0.390431
v 6.5541 4.9306 -27.0738
vn -0.872887 0.0955603 0.478473
v 6.57807 4.92381 -27.0336
vn -0.823177 0.081484 0.561908
v 6.60585 4.91665 -26.9959
vn -0.765539 0.066623 0.639931
v 6.63719 4.90917 -26.9613
vn -0.700529 0.0511204 0.711791
v 6.67179 4.90146 -26.93
vn -0.628772 0.0351254 0.776796
v 6.7093 4.89359 -26.9022
vn -0.55096 0.0187922 0.83432
v 6.74937 4.88563 -26.8784
vn -0.467841 0.00227798 0.88381
v 6.79161 4.87766 -26.8586
vn -0.380218 -0.0142582 0.924787
v 6.83561 4.86975 -26.8432
vn -0.288932 -0.030657 0.956859
v 6.88096 4.86199 -26.8321
vn -0.194864 -0.0467606 0.979715
v 6.92721 4.85444 -26.8257
vn -0.0989191 -0.0624138 0.993136
v 6.97392 4.84719 -26.8238
vn -0.00202176 -0.077466 0.996993
v 6.77159 3.24517 -27.0081
vn 0.0823023 -0.172094 0.981636
v 6.81893 3.23875 -27.0156
vn 0.178366 -0.18513 0.966392
v 6.86542 3.23321 -27.0277
vn 0.272712 -0.196382 0.94184
v 6.91061 3.22859 -27.0442
vn 0.364431 -0.205744 0.908218
v 6.95408 3.22496 -27.0651
vn 0.452641 -0.213124 0.865849
v 6.9954 3.22233 -27.0901
vn 0.536492 -0.218451 0.815142
v 7.03417 3.22074 -27.1189
vn 0.615176 -0.221675 0.756584
v 7.07003 3.22021 -27.1514
vn 0.687935 -0.222764 0.69074
v 7.10261 3.22073 -27.1871
vn 0.754069 -0.221707 0.618244
v 7.13162 3.2223 -27.2258
vn 0.812941 -0.218515 0.539794
v 7.15678 3.22491 -27.267
vn 0.863985 -0.213219 0.456145
v 7.17783 3.22853 -27.3104
vn 0.906707 -0.20587 0.368103
v 7.19458 3.23313 -27.3555
vn 0.940697 -0.196538 0.276517
v 7.20686 3.23866 -27.402
vn 0.965628 -0.185313 0.182267
v 7.21457 3.24507 -27.4493
vn 0.98126 -0.172303 0.0862621
v 7.21761 3.2523 -27.497
vn 0.987441 -0.157634 -0.0105736
v 7.21597 3.26028 -27.5446
vn 0.984113 -0.141447 -0.107308
v 7.20966 3.26892 -27.5918
vn 0.971307 -0.123898 -0.203008
v 7.19874 3.27816 -27.638
vn 0.949147 -0.105155 -0.296753
v 7.18332 3.28789 -27.6828
vn 0.917846 -0.0854 -0.387641
v 7.16354 3.29803 -27.7257
vn 0.877706 -0.0648223 -0.474795
v 7.13959 3.30848 -27.7664
vn 0.829113 -0.0436204 -0.557377
v 7.11171 3.31914 -27.8045
vn 0.772535 -0.0219984 -0.634591
v 7.08017 3.3299 -27.8395
vn 0.708517 -0.000164537 -0.705693
v 7.04526 3.34065 -27.8712
vn 0.637676 0.0216709 -0.77
v 7.00733 3.35131 -27.8992
vn 0.560694 0.0432977 -0.82689
v 6.96673 3.36176 -27.9233
vn 0.478312 0.0645074 -0.875818
v 6.92387 3.37191 -27.9433
vn 0.391323 0.085096 -0.91631
v 6.87914 3.38165 -27.9589
vn 0.300566 0.104865 -0.947979
v 6.83299 3.39089 -27.97
vn 0.206914 0.123624 -0.970517
v 6.78586 3.39955 -27.9765
vn 0.11127 0.141193 -0.983709
v 6.73821 3.40754 -27.9783
vn 0.0145539 0.157401 -0.987427
v 6.69048 3.41478 -27.9755
vn -0.0823023 0.172094 -0.981636
v 6.64314 3.4212 -27.968
vn -0.178366 0.18513 -0.966392
v 6.59665 3.42675 -27.9559
vn -0.272712 0.196382 -0.94184
v 6.55145 3.43136 -27.9393
vn -0.364431 0.205744 -0.908218
v 6.50799 3.435 -27.9184
vn -0.452641 0.213124 -0.865849
v 6.46667 3.43762 -27.8934
vn -0.536492 0.218451 -0.815142
v 6.4279 3.43921 -27.8646
vn -0.615176 0.221675 -0.756584
v 6.39204 3.43975 -27.8321
vn -0.687935 0.222764 -0.69074
v 6.35945 3.43923 -27.7964
vn -0.754069 0.221707 -0.618244
v 6.33044 3.43765 -27.7578
vn -0.812941 0.218515 -0.539794
v 6.30529 3.43504 -27.7165
vn -0.863985 0.213219 -0.456145
v 6.28424 3.43142 -27.6732
vn -0.906707 0.20587 -0.368103
v 6.26749 3.42682 -27.628
vn -0.940697 0.196538 -0.276517
v 6.2552 3.42129 -27.5816
vn -0.965628 0.185313 -0.182267
v 6.2475 3.41488 -27.5343
vn -0.98126 0.172303 -0.0862621
v 6.24446 3.40765 -27.4866
vn -0.987441 0.157634 0.0105736
v 6.2461 3.39968 -27.4389
vn -0.984113 0.141447 0.107308
v 6.25241 3.39103 -27.3917
vn -0.971307 0.123898 0.203008
v 6.26333 3.38179 -27.3455
vn -0.949147 0.105155 0.296753
v 6.27875 3.37206 -27.3008
vn -0.917846 0.0854 0.387641
v 6.29853 3.36192 -27.2578
vn -0.877706 0.0648223 0.474795
v 6.32247 3.35147 -27.2171
vn -0.829113 0.0436204 0.557377
v 6.35035 3.34082 -27.1791
vn -0.772535 0.0219984 0.634591
v 6.3819 3.33006 -27.144
vn -0.708517 0.000164537 0.705693
v 6.41681 3.3193 -27.1123
vn -0.637676 -0.0216709 0.77
v 6.45474 3.30864 -27.0843
vn -0.560694 -0.0432977 0.82689
v 6.49534 3.29819 -27.0602
vn -0.478312 -0.0645074 0.875818
v 6.5382 3.28804 -27.0402
vn -0.391323 -0.085096 0.91631
v 6.58292 3.2783 -27.0246
vn -0.300566 -0.104865 0.947979
v 6.62907 3.26906 -27.0135
vn -0.206914 -0.123624 0.970517
v 6.6762 3.2604 -27.007
vn -0.11127 -0.141193 0.983709
v 6.72386 3.25241 -27.0052
vn -0.0145539 -0.157401 0.987427
v 6.50119 1.60658 -27.328
vn 0.0702502 -0.244852 0.967012
v 6.54959 1.60019 -27.3356
vn 0.166372 -0.257537 0.951838
v 6.59717 1.59505 -27.3478
vn 0.260891 -0.267742 0.927497
v 6.64349 1.59121 -27.3646
vn 0.352898 -0.275368 0.894223
v 6.68811 1.58871 -27.3857
vn 0.441506 -0.280343 0.852338
v 6.73058 1.58756 -27.4109
vn 0.525863 -0.282618 0.802244
v 6.7705 1.58779 -27.44
vn 0.605155 -0.28217 0.744424
v 6.80748 1.58938 -27.4727
vn 0.678619 -0.279006 0.679435
v 6.84118 1.59233 -27.5087
vn 0.745547 -0.273154 0.607903
v 6.87126 1.5966 -27.5477
vn 0.805296 -0.264672 0.530516
v 6.89744 1.60215 -27.5892
vn 0.857289 -0.253641 0.44802
v 6.91946 1.60894 -27.633
vn 0.901026 -0.240167 0.36121
v 6.93711 1.61688 -27.6784
vn 0.936085 -0.224381 0.27092
v 6.95022 1.62592 -27.7252
vn 0.96213 -0.206433 0.178022
v 6.95867 1.63596 -27.7728
vn 0.978908 -0.186497 0.0834091
v 6.96237 1.6469 -27.8209
vn 0.98626 -0.164766 -0.012007
v 6.96129 1.65864 -27.8688
vn 0.984113 -0.141447 -0.107308
v 6.95544 1.67106 -27.9163
vn 0.972488 -0.116766 -0.201575
v 6.94487 1.68406 -27.9628
vn 0.951498 -0.0909609 -0.2939
v 6.92969 1.69749 -28.0078
vn 0.921345 -0.0642796 -0.383396
v 6.91004 1.71123 -28.051
vn 0.882318 -0.0369793 -0.469199
v 6.88611 1.72516 -28.092
vn 0.834794 -0.00932283 -0.550483
v 6.85814 1.73913 -28.1302
vn 0.779231 0.0184234 -0.626466
v 6.82639 1.75301 -28.1654
vn 0.716163 0.0459923 -0.696416
v 6.79116 1.76666 -28.1973
vn 0.646198 0.0731182 -0.759659
v 6.7528 1.77997 -28.2254
vn 0.57001 0.0995399 -0.815586
v 6.71168 1.79279 -28.2496
vn 0.488333 0.125003 -0.863658
v 6.66819 1.805 -28.2696
vn 0.401952 0.149262 -0.903413
v 6.62275 1.81649 -28.2853
vn 0.311701 0.172084 -0.934468
v 6.5758 1.82714 -28.2964
vn 0.218448 0.193249 -0.956523
v 6.52779 1.83686 -28.3028
vn 0.12309 0.212552 -0.969366
v 6.47919 1.84555 -28.3046
vn 0.026548 0.229808 -0.972874
v 6.43045 1.85313 -28.3017
vn -0.0702502 0.244852 -0.967012
v 6.38206 1.85951 -28.294
vn -0.166372 0.257537 -0.951838
v 6.33447 1.86465 -28.2818
vn -0.260891 0.267742 -0.927497
v 6.28815 1.86849 -28.265
vn -0.352898 0.275368 -0.894223
v 6.24354 1.87099 -28.2439
vn -0.441506 0.280343 -0.852338
v 6.20107 1.87214 -28.2187
vn -0.525863 0.282618 -0.802244
v 6.16115 1.87191 -28.1896
vn -0.605155 0.28217 -0.744424
v 6.12416 1.87032 -28.1569
vn -0.678619 0.279006 -0.679435
v 6.09047 1.86737 -28.1209
vn -0.745547 0.273154 -0.607903
v 6.06039 1.8631 -28.0819
vn -0.805296 0.264672 -0.530516
v 6.03421 1.85755 -28.0404
vn -0.857289 0.253641 -0.44802
v 6.01219 1.85077 -27.9967
vn -0.901026 0.240167 -0.36121
v 5.99454 1.84282 -27.9512
vn -0.936085 0.224381 -0.27092
v 5.98143 1.83378 -27.9044
vn -0.96213 0.206433 -0.178022
v 5.97298 1.82375 -27.8568
vn -0.978908 0.186497 -0.0834091
v 5.96928 1.8128 -27.8088
vn -0.98626 0.164766 0.012007
v 5.97036 1.80106 -27.7608
vn -0.984113 0.141447 0.107308
v 5.97621 1.78864 -27.7133
vn -0.972488 0.116766 0.201575
v 5.98678 1.77565 -27.6668
vn -0.951498 0.0909609 0.2939
v 6.00196 1.76221 -27.6218
vn -0.921345 0.0642796 0.383396
v 6.02161 1.74847 -27.5786
vn -0.882318 0.0369793 0.469199
v 6.04553 1.73455 -27.5377
vn -0.834794 0.00932283 0.550483
v 6.07351 1.72058 -27.4994
vn -0.779231 -0.0184234 0.626466
v 6.10526 1.7067 -27.4642
vn -0.716163 -0.0459923 0.696416
v 6.14049 1.69304 -27.4323
vn -0.646198 -0.0731182 0.759659
v 6.17884 1.67974 -27.4042
vn -0.57001 -0.0995399 0.815586
v 6.21997 1.66692 -27.38
vn -0.488333 -0.125003 0.863658
v 6.26345 1.6547 -27.36
vn -0.401952 -0.149262 0.903413
v 6.30889 1.64321 -27.3443
vn -0.311701 -0.172084 0.934468
v 6.35584 1.63256 -27.3332
vn -0.218448 -0.193249 0.956523
v 6.40385 1.62284 -27.3268
vn -0.12309 -0.212552 0.969366
v 6.45246 1.61415 -27.325
vn -0.026548 -0.229808 0.972874
v 6.20956 -0.075223 -27.7856
vn 0.0589161 -0.30998 0.948916
v 6.25901 -0.081584 -27.7934
vn 0.155092 -0.322351 0.933829
v 6.30769 -0.0863488 -27.8058
vn 0.249775 -0.331618 0.909748
v 6.35514 -0.0894715 -27.8227
vn 0.342052 -0.337692 0.876906
v 6.40089 -0.0909222 -27.8439
vn 0.431035 -0.340513 0.835619
v 6.4445 -0.0906867 -27.8693
vn 0.515867 -0.340055 0.786285
v 6.48557 -0.0887674 -27.8985
vn 0.595731 -0.336322 0.729378
v 6.52368 -0.0851827 -27.9314
vn 0.669857 -0.329351 0.665447
v 6.55848 -0.0799673 -27.9676
vn 0.737533 -0.319207 0.595107
v 6.58962 -0.0731712 -28.0067
vn 0.798105 -0.305989 0.519036
v 6.61681 -0.06486 -28.0484
vn 0.850992 -0.289824 0.437967
v 6.63979 -0.0551136 -28.0922
vn 0.895683 -0.270869 0.352679
v 6.65833 -0.0440261 -28.1378
vn 0.931748 -0.249304 0.263995
v 6.67226 -0.031704 -28.1847
vn 0.95884 -0.225339 0.172769
v 6.68144 -0.0182662 -28.2325
vn 0.976697 -0.199203 0.0798787
v 6.68579 -0.00384196 -28.2806
vn 0.985149 -0.171149 -0.0137808
v 6.68526 0.0114297 -28.3287
vn 0.984113 -0.141447 -0.107308
v 6.67985 0.0274018 -28.3763
vn 0.973599 -0.110383 -0.199801
v 6.66963 0.0439205 -28.4228
vn 0.953709 -0.0782551 -0.29037
v 6.65468 0.0608266 -28.468
vn 0.924635 -0.045374 -0.378143
v 6.63515 0.0779574 -28.5112
vn 0.886655 -0.0120559 -0.462274
v 6.61123 0.0951479 -28.5522
vn 0.840137 0.0213783 -0.541953
v 6.58315 0.112233 -28.5905
vn 0.785528 0.0546066 -0.616412
v 6.55119 0.129047 -28.6257
vn 0.723353 0.087309 -0.684936
v 6.51564 0.145429 -28.6575
vn 0.654213 0.119171 -0.746863
v 6.47685 0.161221 -28.6857
vn 0.578772 0.149884 -0.801597
v 6.43519 0.17627 -28.7099
vn 0.497757 0.179155 -0.848612
v 6.39107 0.190433 -28.7298
vn 0.411948 0.2067 -0.887454
v 6.34491 0.203572 -28.7454
vn 0.322172 0.232254 -0.917749
v 6.29716 0.215561 -28.7564
vn 0.229294 0.255572 -0.939206
v 6.24827 0.226285 -28.7628
vn 0.134207 0.276429 -0.951617
v 6.19872 0.235639 -28.7645
vn 0.0378275 0.294623 -0.954865
v 6.14897 0.243535 -28.7614
vn -0.0589161 0.30998 -0.948916
v 6.09952 0.249896 -28.7537
vn -0.155092 0.322351 -0.933829
v 6.05084 0.254661 -28.7413
vn -0.249775 0.331618 -0.909748
v 6.0034 0.257784 -28.7244
vn -0.342052 0.337692 -0.876906
v 5.95765 0.259234 -28.7032
vn -0.431035 0.340513 -0.835619
v 5.91403 0.258999 -28.6778
vn -0.515867 0.340055 -0.786285
v 5.87297 0.25708 -28.6486
vn -0.595731 0.336322 -0.729378
v 5.83485 0.253495 -28.6157
vn -0.669857 0.329351 -0.665447
v 5.80006 0.248279 -28.5795
vn -0.737533 0.319207 -0.595107
v 5.76891 0.241483 -28.5404
vn -0.798105 0.305989 -0.519036
v 5.74172 0.233172 -28.4987
vn -0.850992 0.289824 -0.437967
v 5.71874 0.223426 -28.4549
vn -0.895683 0.270869 -0.352679
v 5.7002 0.212338 -28.4093
vn -0.931748 0.249304 -0.263995
v 5.68627 0.200016 -28.3624
vn -0.95884 0.225339 -0.172769
v 5.67709 0.186578 -28.3146
vn -0.976697 0.199203 -0.0798787
v 5.67274 0.172154 -28.2665
vn -0.985149 0.171149 0.0137808
v 5.67328 0.156882 -28.2184
vn -0.984113 0.141447 0.107308
v 5.67868 0.14091 -28.1708
vn -0.973599 0.110383 0.199801
v 5.68891 0.124392 -28.1242
vn -0.953709 0.0782551 0.29037
v 5.70386 0.107486 -28.0791
vn -0.924635 0.045374 0.378143
v 5.72338 0.0903548 -28.0359
vn -0.886655 0.0120559 0.462274
v 5.7473 0.0731642 -27.9949
vn -0.840137 -0.0213783 0.541953
v 5.77538 0.0560796 -27.9566
vn -0.785528 -0.0546066 0.616412
v 5.80735 0.0392653 -27.9214
vn -0.723353 -0.087309 0.684936
v 5.8429 0.0228834 -27.8895
vn -0.654213 -0.119171 0.746863
v 5.88169 0.00709151 -27.8614
vn -0.578772 -0.149884 0.801597
v 5.92334 -0.00795818 -27.8372
vn -0.497757 -0.179155 0.848612
v 5.96746 -0.0221207 -27.8172
vn -0.411948 -0.2067 0.887454
v 6.01362 -0.0352598 -27.8017
vn -0.322172 -0.232254 0.917749
v 6.06137 -0.0472488 -27.7906
vn -0.229294 -0.255572 0.939206
v 6.11026 -0.0579724 -27.7843
vn -0.134207 -0.276429 0.951617
v 6.15982 -0.0673271 -27.7826
vn -0.0378275 -0.294623 0.954865
v 5.89676 -1.80016 -28.3806
vn 0.048394 -0.367807 0.928642
v 5.94727 -1.8065 -28.3884
vn 0.144621 -0.3799 0.913653
v 5.99704 -1.81093 -28.4009
vn 0.239455 -0.388334 0.889864
v 6.04561 -1.81339 -28.4179
vn 0.331983 -0.393029 0.857505
v 6.09249 -1.81387 -28.4392
vn 0.421314 -0.393938 0.816889
v 6.13725 -1.81236 -28.4647
vn 0.506587 -0.391054 0.768405
v 6.17944 -1.80887 -28.494
vn 0.586982 -0.384404 0.712521
v 6.21867 -1.80343 -28.5269
vn 0.661724 -0.374051 0.649775
v 6.25456 -1.79611 -28.5632
vn 0.730093 -0.360097 0.580771
v 6.28675 -1.78696 -28.6023
vn 0.79143 -0.342674 0.506175
v 6.31494 -1.77609 -28.644
vn 0.845146 -0.321951 0.426703
v 6.33886 -1.76358 -28.6879
vn 0.890723 -0.298128 0.343122
v 6.35828 -1.74957 -28.7335
vn 0.927721 -0.271433 0.256237
v 6.37301 -1.73419 -28.7804
vn 0.955785 -0.242125 0.166884
v 6.38291 -1.71758 -28.8281
vn 0.974644 -0.210485 0.0759235
v 6.38788 -1.69991 -28.8762
vn 0.984117 -0.176817 -0.0157679
v 6.38788 -1.68135 -28.9243
vn 0.984113 -0.141447 -0.107308
v 6.3829 -1.66207 -28.9718
vn 0.974631 -0.104715 -0.197814
v 6.373 -1.64226 -29.0183
vn 0.955762 -0.0669736 -0.286415
v 6.35827 -1.62211 -29.0634
vn 0.927689 -0.0285877 -0.372257
v 6.33884 -1.60182 -29.1065
vn 0.890682 0.0100735 -0.454515
v 6.31492 -1.58158 -29.1474
vn 0.845097 0.0486377 -0.532396
v 6.28672 -1.56159 -29.1856
vn 0.791374 0.0867335 -0.605149
v 6.25452 -1.54203 -29.2207
vn 0.730029 0.123994 -0.672074
v 6.21864 -1.5231 -29.2524
vn 0.661653 0.16006 -0.732527
v 6.1794 -1.50498 -29.2805
vn 0.586905 0.194585 -0.785925
v 6.13721 -1.48784 -29.3045
vn 0.506506 0.227236 -0.831755
v 6.09245 -1.47185 -29.3244
vn 0.421228 0.257699 -0.869574
v 6.04556 -1.45717 -29.3398
vn 0.331893 0.28568 -0.899018
v 5.99699 -1.44393 -29.3507
vn 0.239363 0.310909 -0.919805
v 5.94722 -1.43226 -29.357
vn 0.144527 0.333144 -0.931733
v 5.89671 -1.42227 -29.3586
vn 0.0482989 0.352171 -0.934689
v 5.84596 -1.41406 -29.3554
vn -0.048394 0.367807 -0.928642
v 5.79546 -1.40772 -29.3475
vn -0.144621 0.3799 -0.913653
v 5.74568 -1.40329 -29.335
vn -0.239455 0.388334 -0.889864
v 5.69712 -1.40083 -29.318
vn -0.331983 0.393029 -0.857505
v 5.65023 -1.40035 -29.2967
vn -0.421314 0.393938 -0.816889
v 5.60548 -1.40186 -29.2713
vn -0.506587 0.391054 -0.768405
v 5.56328 -1.40535 -29.2419
vn -0.586982 0.384404 -0.712521
v 5.52405 -1.41079 -29.209
vn -0.661724 0.374051 -0.649775
v 5.48817 -1.41811 -29.1728
vn -0.730093 0.360097 -0.580771
v 5.45598 -1.42726 -29.1336
vn -0.79143 0.342674 -0.506175
v 5.42778 -1.43813 -29.0919
vn -0.845146 0.321951 -0.426703
v 5.40386 -1.45064 -29.0481
vn -0.890723 0.298128 -0.343122
v 5.38444 -1.46465 -29.0025
vn -0.927721 0.271433 -0.256237
v 5.36971 -1.48003 -28.9556
vn -0.955785 0.242125 -0.166884
v 5.35982 -1.49664 -28.9078
vn -0.974644 0.210485 -0.0759235
v 5.35484 -1.51431 -28.8597
vn -0.984117 0.176817 0.0157679
v 5.35485 -1.53287 -28.8117
vn -0.984113 0.141447 0.107308
v 5.35982 -1.55215 -28.7641
vn -0.974631 0.104715 0.197814
v 5.36973 -1.57196 -28.7176
vn -0.955762 0.0669736 0.286415
v 5.38446 -1.59211 -28.6726
vn -0.927689 0.0285877 0.372257
v 5.40388 -1.6124 -28.6294
vn -0.890682 -0.0100735 0.454515
v 5.42781 -1.63264 -28.5885
vn -0.845097 -0.0486377 0.532396
v 5.45601 -1.65263 -28.5504
vn -0.791374 -0.0867335 0.605149
v 5.4882 -1.67219 -28.5152
vn -0.730029 -0.123994 0.672074
v 5.52409 -1.69112 -28.4835
vn -0.661653 -0.16006 0.732527
v 5.56332 -1.70924 -28.4555
vn -0.586905 -0.194585 0.785925
v 5.60552 -1.72638 -28.4314
vn -0.506506 -0.227236 0.831755
v 5.65028 -1.74236 -28.4116
vn -0.421228 -0.257699 0.869574
v 5.69717 -1.75705 -28.3961
vn -0.331893 -0.28568 0.899018
v 5.74573 -1.77029 -28.3852
vn -0.239363 -0.310909 0.919805
v 5.79551 -1.78196 -28.3789
vn -0.144527 -0.333144 0.931733
v 5.84601 -1.79195 -28.3774
vn -0.0482989 -0.352171 0.934689
v 5.56285 -3.56829 -29.1122
vn 0.0387143 -0.418893 0.90721
v 5.61441 -3.57463 -29.1202
vn 0.134988 -0.43074 0.892323
v 5.66527 -3.57875 -29.1328
vn 0.229961 -0.438439 0.868843
v 5.71495 -3.58061 -29.1498
vn 0.32272 -0.441916 0.836996
v 5.76296 -3.5802 -29.1712
vn 0.412371 -0.441136 0.797088
v 5.80885 -3.5775 -29.1967
vn 0.49805 -0.436109 0.749503
v 5.85216 -3.57256 -29.2261
vn 0.578933 -0.426881 0.694701
v 5.89249 -3.56542 -29.259
vn 0.654241 -0.413542 0.633207
v 5.92945 -3.55614 -29.2952
vn 0.723248 -0.39622 0.565616
v 5.96268 -3.54482 -29.3343
vn 0.78529 -0.375083 0.492578
v 5.99185 -3.53157 -29.376
vn 0.839768 -0.350334 0.414796
v 6.0167 -3.51651 -29.4198
vn 0.88616 -0.32221 0.333019
v 6.03697 -3.49978 -29.4653
vn 0.924017 -0.290984 0.248035
v 6.05248 -3.48156 -29.5121
vn 0.952975 -0.256955 0.160662
v 6.06308 -3.46201 -29.5597
vn 0.972756 -0.220451 0.0717422
v 6.06865 -3.44132 -29.6077
vn 0.983169 -0.181825 -0.0178687
v 6.06916 -3.4197 -29.6556
vn 0.984113 -0.141447 -0.107308
v 6.06459 -3.39734 -29.7029
vn 0.975579 -0.0997072 -0.195713
v 6.05499 -3.37448 -29.7493
vn 0.95765 -0.0570071 -0.282233
v 6.04044 -3.35131 -29.7941
vn 0.930499 -0.013758 -0.366036
v 6.0211 -3.32808 -29.8371
vn 0.894386 0.0296235 -0.446313
v 5.99715 -3.305 -29.8778
vn 0.84966 0.0727198 -0.522293
v 5.96882 -3.2823 -29.9158
vn 0.796751 0.115116 -0.593242
v 5.93637 -3.26018 -29.9508
vn 0.736169 0.156403 -0.658478
v 5.90013 -3.23888 -29.9823
vn 0.668498 0.196184 -0.717372
v 5.86044 -3.21859 -30.0101
vn 0.594388 0.234076 -0.769358
v 5.81768 -3.1995 -30.034
vn 0.514554 0.269713 -0.813934
v 5.77228 -3.18181 -30.0537
vn 0.429765 0.302753 -0.850672
v 5.72465 -3.16567 -30.069
vn 0.340836 0.332878 -0.879217
v 5.67527 -3.15126 -30.0797
vn 0.248626 0.359796 -0.899295
v 5.6246 -3.1387 -30.0858
vn 0.15402 0.383249 -0.910713
v 5.57314 -3.12811 -30.0873
vn 0.057932 0.403012 -0.913359
v 5.52138 -3.11961 -30.084
vn -0.0387143 0.418893 -0.90721
v 5.46982 -3.11326 -30.076
vn -0.134988 0.43074 -0.892323
v 5.41896 -3.10914 -30.0634
vn -0.229961 0.438439 -0.868843
v 5.36928 -3.10728 -30.0464
vn -0.32272 0.441916 -0.836996
v 5.32127 -3.10769 -30.025
vn -0.412371 0.441136 -0.797088
v 5.27538 -3.11039 -29.9995
vn -0.49805 0.436109 -0.749503
v 5.23206 -3.11533 -29.9702
vn -0.578933 0.426881 -0.694701
v 5.19173 -3.12247 -29.9372
vn -0.654241 0.413542 -0.633207
v 5.15478 -3.13175 -29.901
vn -0.723248 0.39622 -0.565616
v 5.12155 -3.14307 -29.8619
vn -0.78529 0.375083 -0.492578
v 5.09237 -3.15632 -29.8202
vn -0.839768 0.350334 -0.414796
v 5.06753 -3.17139 -29.7765
vn -0.88616 0.32221 -0.333019
v 5.04725 -3.18811 -29.7309
vn -0.924017 0.290984 -0.248035
v 5.03175 -3.20633 -29.6841
vn -0.952975 0.256955 -0.160662
v 5.02115 -3.22588 -29.6365
vn -0.972756 0.220451 -0.0717422
v 5.01558 -3.24657 -29.5885
vn -0.983169 0.181825 0.0178687
v 5.01507 -3.26819 -29.5406
vn -0.984113 0.141447 0.107308
v 5.01964 -3.29055 -29.4933
vn -0.975579 0.0997072 0.195713
v 5.02924 -3.31342 -29.447
vn -0.95765 0.0570071 0.282233
v 5.04378 -3.33658 -29.4021
vn -0.930499 0.013758 0.366036
v 5.06312 -3.35981 -29.3591
vn -0.894386 -0.0296235 0.446313
v 5.08708 -3.38289 -29.3184
vn -0.84966 -0.0727198 0.522293
v 5.11541 -3.4056 -29.2804
vn -0.796751 -0.115116 0.593242
v 5.14786 -3.42771 -29.2455
vn -0.736169 -0.156403 0.658478
v 5.1841 -3.44901 -29.2139
vn -0.668498 -0.196184 0.717372
v 5.22379 -3.46931 -29.1861
vn -0.594388 -0.234076 0.769358
v 5.26654 -3.48839 -29.1622
vn -0.514554 -0.269713 0.813934
v 5.31195 -3.50609 -29.1425
vn -0.429765 -0.302753 0.850672
v 5.35958 -3.52222 -29.1272
vn -0.340836 -0.332878 0.879217
v 5.40896 -3.53664 -29.1165
vn -0.248626 -0.359796 0.899295
v 5.45963 -3.5492 -29.1104
vn -0.15402 -0.383249 0.910713
v 5.51109 -3.55978 -29.109
vn -0.057932 -0.403012 0.913359
v 5.20783 -5.37976 -29.9803
vn 0.0298637 -0.46391 0.885379
v 5.26044 -5.38612 -29.9884
vn 0.12618 -0.47554 0.870598
v 5.31239 -5.38997 -30.001
vn 0.221281 -0.482591 0.847432
v 5.36318 -5.39128 -30.0181
vn 0.314251 -0.484994 0.816105
v 5.41231 -5.39004 -30.0395
vn 0.404194 -0.482726 0.776919
v 5.45931 -5.38626 -30.065
vn 0.490245 -0.475809 0.73025
v 5.50374 -5.37998 -30.0944
vn 0.571574 -0.46431 0.676549
v 5.54516 -5.37126 -30.1273
vn 0.647399 -0.44834 0.616332
v 5.58317 -5.36018 -30.1634
vn 0.71699 -0.428052 0.55018
v 5.61741 -5.34684 -30.2024
vn 0.779675 -0.403641 0.478729
v 5.64755 -5.33138 -30.244
vn 0.834851 -0.375343 0.402667
v 5.6733 -5.31395 -30.2876
vn 0.881988 -0.343431 0.322728
v 5.69441 -5.29471 -30.333
vn 0.92063 -0.308211 0.239681
v 5.71068 -5.27385 -30.3796
vn 0.950406 -0.270022 0.154325
v 5.72194 -5.25157 -30.4271
vn 0.971029 -0.229233 0.0674832
v 5.7281 -5.22808 -30.4749
vn 0.982301 -0.186237 -0.0200085
v 5.72909 -5.20362 -30.5225
vn 0.984113 -0.141447 -0.107308
v 5.7249 -5.17841 -30.5697
vn 0.976447 -0.0952948 -0.193573
v 5.71558 -5.1527 -30.6158
vn 0.959377 -0.0482249 -0.277975
v 5.7012 -5.12673 -30.6604
vn 0.933068 -0.000690487 -0.359699
v 5.68193 -5.10076 -30.7032
vn 0.897773 0.0468505 -0.437959
v 5.65792 -5.07504 -30.7436
vn 0.853832 0.0939404 -0.512002
v 5.62943 -5.04981 -30.7814
vn 0.801668 0.140125 -0.581113
v 5.59672 -5.02532 -30.8161
vn 0.741784 0.184961 -0.644628
v 5.5601 -5.0018 -30.8474
vn 0.674756 0.228015 -0.701935
v 5.51994 -4.97948 -30.875
vn 0.60123 0.268874 -0.752482
v 5.47661 -4.95858 -30.8986
vn 0.521913 0.307143 -0.795783
v 5.43054 -4.93929 -30.9181
vn 0.43757 0.342454 -0.831419
v 5.38217 -4.9218 -30.9332
vn 0.349013 0.374467 -0.859048
v 5.33196 -4.90628 -30.9438
vn 0.257095 0.402874 -0.878405
v 5.28039 -4.89289 -30.9497
vn 0.162701 0.427401 -0.889301
v 5.22797 -4.88174 -30.951
vn 0.0667401 0.447812 -0.891634
v 5.1752 -4.87294 -30.9476
vn -0.0298637 0.46391 -0.885379
v 5.12259 -4.86659 -30.9395
vn -0.12618 0.47554 -0.870598
v 5.07064 -4.86274 -30.9268
vn -0.221281 0.482591 -0.847432
v 5.01986 -4.86143 -30.9097
vn -0.314251 0.484994 -0.816105
v 4.97073 -4.86266 -30.8883
vn -0.404194 0.482726 -0.776919
v 4.92372 -4.86644 -30.8628
vn -0.490245 0.475809 -0.73025
v 4.8793 -4.87272 -30.8335
vn -0.571574 0.46431 -0.676549
v 4.83788 -4.88145 -30.8006
vn -0.647399 0.44834 -0.616332
v 4.79986 -4.89253 -30.7645
vn -0.71699 0.428052 -0.55018
v 4.76562 -4.90586 -30.7254
vn -0.779675 0.403641 -0.478729
v 4.73548 -4.92132 -30.6839
vn -0.834851 0.375343 -0.402667
v 4.70973 -4.93875 -30.6402
vn -0.881988 0.343431 -0.322728
v 4.68862 -4.95799 -30.5949
vn -0.92063 0.308211 -0.239681
v 4.67236 -4.97885 -30.5482
vn -0.950406 0.270022 -0.154325
v 4.66109 -5.00113 -30.5008
vn -0.971029 0.229233 -0.0674832
v 4.65494 -5.02462 -30.453
vn -0.982301 0.186237 0.0200085
v 4.65395 -5.04909 -30.4053
vn -0.984113 0.141447 0.107308
v 4.65814 -5.0743 -30.3582
vn -0.976447 0.0952948 0.193573
v 4.66746 -5.10001 -30.3121
vn -0.959377 0.0482249 0.277975
v 4.68183 -5.12598 -30.2674
vn -0.933068 0.000690487 0.359699
v 4.70111 -5.15194 -30.2247
vn -0.897773 -0.0468505 0.437959
v 4.72511 -5.17767 -30.1842
vn -0.853832 -0.0939404 0.512002
v 4.75361 -5.2029 -30.1465
vn -0.801668 -0.140125 0.581113
v 4.78632 -5.22739 -30.1118
vn -0.741784 -0.184961 0.644628
v 4.82293 -5.25091 -30.0805
vn -0.674756 -0.228015 0.701935
v 4.8631 -5.27322 -30.0529
vn -0.60123 -0.268874 0.752482
v 4.90642 -5.29413 -30.0292
vn -0.521913 -0.307143 0.795783
v 4.9525 -5.31342 -30.0098
vn -0.43757 -0.342454 0.831419
v 5.00087 -5.3309 -29.9947
vn -0.349013 -0.374467 0.859048
v 5.05108 -5.34642 -29.9841
vn -0.257095 -0.402874 0.878405
v 5.10264 -5.35982 -29.9782
vn -0.162701 -0.427401 0.889301
v 5.15506 -5.37097 -29.9769
vn -0.0667401 -0.447812 0.891634
v 4.83172 -7.23478 -30.9844
vn 0.0218014 -0.503549 0.863691
v 4.88538 -7.24115 -30.9926
vn 0.118156 -0.514989 0.849014
v 4.93841 -7.24476 -31.0053
vn 0.213373 -0.521469 0.826161
v 4.9903 -7.24557 -31.0225
vn 0.306535 -0.522927 0.795351
v 5.04054 -7.24358 -31.0439
vn 0.396746 -0.519348 0.756882
v 5.08865 -7.2388 -31.0694
vn 0.483135 -0.510768 0.711123
v 5.13418 -7.23128 -31.0987
vn 0.564871 -0.49727 0.658516
v 5.17667 -7.2211 -31.1315
vn 0.641167 -0.478982 0.599567
v 5.21572 -7.20834 -31.1676
vn 0.711289 -0.456081 0.534844
v 5.25096 -7.19314 -31.2065
vn 0.77456 -0.428788 0.46497
v 5.28205 -7.17564 -31.2479
vn 0.830372 -0.397366 0.390618
v 5.30868 -7.15601 -31.2914
vn 0.878187 -0.362117 0.312505
v 5.3306 -7.13443 -31.3366
vn 0.917545 -0.32338 0.231381
v 5.3476 -7.11113 -31.383
vn 0.948066 -0.281529 0.148029
v 5.35951 -7.08631 -31.4302
vn 0.969457 -0.236967 0.0632522
v 5.36622 -7.06022 -31.4778
vn 0.981511 -0.190122 -0.0221342
v 5.36767 -7.03311 -31.5252
vn 0.984113 -0.141447 -0.107308
v 5.36384 -7.00524 -31.5721
vn 0.977237 -0.0914094 -0.191447
v 5.35477 -6.97688 -31.6179
vn 0.96095 -0.0404915 -0.273743
v 5.34055 -6.94831 -31.6623
vn 0.935409 0.0108163 -0.353403
v 5.3213 -6.91979 -31.7048
vn 0.900859 0.06202 -0.42966
v 5.29723 -6.8916 -31.7449
vn 0.857633 0.112626 -0.501778
v 5.26856 -6.86402 -31.7824
vn 0.806148 0.162148 -0.569064
v 5.23556 -6.83731 -31.8168
vn 0.746899 0.210108 -0.63087
v 5.19855 -6.81173 -31.8479
vn 0.680457 0.256045 -0.6866
v 5.1579 -6.78752 -31.8752
vn 0.607462 0.299516 -0.735718
v 5.11399 -6.76491 -31.8986
vn 0.528617 0.340102 -0.77775
v 5.06724 -6.74413 -31.9179
vn 0.44468 0.377413 -0.812292
v 5.01811 -6.72538 -31.9327
vn 0.356462 0.411089 -0.839012
v 4.96706 -6.70882 -31.9431
vn 0.26481 0.440807 -0.857651
v 4.9146 -6.69464 -31.9489
vn 0.170608 0.466279 -0.86803
v 4.86121 -6.68295 -31.95
vn 0.0747635 0.48726 -0.87005
v 4.80743 -6.67388 -31.9465
vn -0.0218014 0.503549 -0.863691
v 4.75377 -6.66751 -31.9383
vn -0.118156 0.514989 -0.849014
v 4.70074 -6.6639 -31.9256
vn -0.213373 0.521469 -0.826161
v 4.64885 -6.66309 -31.9084
vn -0.306535 0.522927 -0.795351
v 4.59861 -6.66508 -31.887
vn -0.396746 0.519348 -0.756882
v 4.5505 -6.66986 -31.8615
vn -0.483135 0.510768 -0.711123
v 4.50497 -6.67738 -31.8322
vn -0.564871 0.49727 -0.658516
v 4.46248 -6.68756 -31.7994
vn -0.641167 0.478982 -0.599567
v 4.42343 -6.70032 -31.7633
vn -0.711289 0.456081 -0.534844
v 4.38819 -6.71552 -31.7244
vn -0.77456 0.428788 -0.46497
v 4.3571 -6.73302 -31.683
vn -0.830372 0.397366 -0.390618
v 4.33047 -6.75265 -31.6395
vn -0.878187 0.362117 -0.312505
v 4.30855 -6.77422 -31.5943
vn -0.917545 0.32338 -0.231381
v 4.29156 -6.79753 -31.5479
vn -0.948066 0.281529 -0.148029
v 4.27964 -6.82235 -31.5007
vn -0.969457 0.236967 -0.0632522
v 4.27293 -6.84844 -31.4531
vn -0.981511 0.190122 0.0221342
v 4.27148 -6.87555 -31.4057
vn -0.984113 0.141447 0.107308
v 4.27531 -6.90342 -31.3588
vn -0.977237 0.0914094 0.191447
v 4.28438 -6.93178 -31.313
vn -0.96095 0.0404915 0.273743
v 4.2986 -6.96035 -31.2686
vn -0.935409 -0.0108163 0.353403
v 4.31785 -6.98887 -31.2262
vn -0.900859 -0.06202 0.42966
v 4.34192 -7.01706 -31.186
vn -0.857633 -0.112626 0.501778
v 4.3706 -7.04464 -31.1485
vn -0.806148 -0.162148 0.569064
v 4.40359 -7.07135 -31.1141
vn -0.746899 -0.210108 0.63087
v 4.4406 -7.09693 -31.0831
vn -0.680457 -0.256045 0.6866
v 4.48125 -7.12114 -31.0557
vn -0.607462 -0.299516 0.735718
v 4.52517 -7.14375 -31.0323
vn -0.528617 -0.340102 0.77775
v 4.57191 -7.16453 -31.0131
vn -0.44468 -0.377413 0.812292
v 4.62105 -7.18328 -30.9982
vn -0.356462 -0.411089 0.839012
v 4.67209 -7.19983 -30.9878
vn -0.26481 -0.440807 0.857651
v 4.72456 -7.21402 -30.982
vn -0.170608 -0.466279 0.86803
v 4.77794 -7.22571 -30.9809
vn -0.0747635 -0.48726 0.87005
v 4.4345 -9.13354 -32.1244
vn 0.0144718 -0.538479 0.842515
v 4.48922 -9.13994 -32.1327
vn 0.110862 -0.54975 0.82794
v 4.54333 -9.14333 -32.1455
vn 0.206185 -0.555727 0.805391
v 4.59631 -9.14369 -32.1627
vn 0.299521 -0.556352 0.775086
v 4.64765 -9.141 -32.1841
vn 0.389974 -0.551619 0.737317
v 4.69686 -9.1353 -32.2096
vn 0.476671 -0.541574 0.692447
v 4.74347 -9.12663 -32.2389
vn 0.558777 -0.526313 0.640908
v 4.78702 -9.11509 -32.2716
vn 0.635501 -0.505983 0.583197
v 4.8271 -9.10079 -32.3076
vn 0.706106 -0.48078 0.51987
v 4.86332 -9.08385 -32.3464
vn 0.76991 -0.450948 0.451536
v 4.89533 -9.06445 -32.3876
vn 0.8263 -0.416772 0.378853
v 4.92282 -9.04278 -32.431
vn 0.874732 -0.378582 0.302522
v 4.94553 -9.01903 -32.4759
vn 0.91474 -0.336747 0.223277
v 4.96324 -8.99344 -32.5221
vn 0.945938 -0.291669 0.141882
v 4.97578 -8.96626 -32.5691
vn 0.968027 -0.243781 0.0591208
v 4.98303 -8.93774 -32.6164
vn 0.980792 -0.193546 -0.0242099
v 4.98491 -8.90817 -32.6636
vn 0.984113 -0.141447 -0.107308
v 4.98141 -8.87782 -32.7102
vn 0.977955 -0.0879857 -0.189372
v 4.97257 -8.84699 -32.7557
vn 0.96238 -0.0336771 -0.269612
v 4.95847 -8.81598 -32.7998
vn 0.937536 0.0209559 -0.347256
v 4.93924 -8.78508 -32.842
vn 0.903663 0.0753871 -0.421556
v 4.91508 -8.7546 -32.8818
vn 0.861088 0.129092 -0.491795
v 4.8862 -8.72482 -32.919
vn 0.81022 0.181554 -0.557299
v 4.8529 -8.69603 -32.9532
vn 0.751549 0.232268 -0.617435
v 4.81548 -8.66852 -32.9839
vn 0.68564 0.280744 -0.671626
v 4.77432 -8.64253 -33.011
vn 0.613128 0.326517 -0.719348
v 4.72981 -8.61834 -33.0342
vn 0.534711 0.369145 -0.760142
v 4.68238 -8.59616 -33.0532
vn 0.451145 0.408219 -0.793616
v 4.63247 -8.57621 -33.0678
vn 0.363233 0.44336 -0.819447
v 4.58059 -8.55868 -33.078
vn 0.271824 0.474233 -0.837386
v 4.52721 -8.54375 -33.0836
vn 0.177797 0.500538 -0.847261
v 4.47287 -8.53156 -33.0846
vn 0.0820578 0.522022 -0.848976
v 4.41807 -8.52221 -33.0809
vn -0.0144718 0.538479 -0.842515
v 4.36336 -8.51582 -33.0726
vn -0.110862 0.54975 -0.82794
v 4.30925 -8.51242 -33.0598
vn -0.206185 0.555727 -0.805391
v 4.25627 -8.51207 -33.0426
vn -0.299521 0.556352 -0.775086
v 4.20492 -8.51476 -33.0212
vn -0.389974 0.551619 -0.737317
v 4.15571 -8.52046 -32.9957
vn -0.476671 0.541574 -0.692447
v 4.1091 -8.52912 -32.9665
vn -0.558777 0.526313 -0.640908
v 4.06555 -8.54066 -32.9337
vn -0.635501 0.505983 -0.583197
v 4.02547 -8.55497 -32.8978
vn -0.706106 0.48078 -0.51987
v 3.98925 -8.5719 -32.859
vn -0.76991 0.450948 -0.451536
v 3.95725 -8.5913 -32.8177
vn -0.8263 0.416772 -0.378853
v 3.92975 -8.61298 -32.7744
vn -0.874732 0.378582 -0.302522
v 3.90704 -8.63673 -32.7294
vn -0.91474 0.336747 -0.223277
v 3.88933 -8.66231 -32.6832
vn -0.945938 0.291669 -0.141882
v 3.8768 -8.6895 -32.6362
vn -0.968027 0.243781 -0.0591208
v 3.86955 -8.71801 -32.5889
vn -0.980792 0.193546 0.0242099
v 3.86766 -8.74759 -32.5418
vn -0.984113 0.141447 0.107308
v 3.87116 -8.77793 -32.4952
vn -0.977955 0.0879857 0.189372
v 3.88 -8.80876 -32.4496
vn -0.96238 0.0336771 0.269612
v 3.8941 -8.83977 -32.4056
vn -0.937536 -0.0209559 0.347256
v 3.91333 -8.87067 -32.3634
vn -0.903663 -0.0753871 0.421556
v 3.9375 -8.90116 -32.3235
vn -0.861088 -0.129092 0.491795
v 3.96637 -8.93093 -32.2863
vn -0.81022 -0.181554 0.557299
v 3.99968 -8.95972 -32.2522
vn -0.751549 -0.232268 0.617435
v 4.03709 -8.98724 -32.2214
vn -0.68564 -0.280744 0.671626
v 4.07825 -9.01322 -32.1943
vn -0.613128 -0.326517 0.719348
v 4.12276 -9.03742 -32.1712
vn -0.534711 -0.369145 0.760142
v 4.1702 -9.0596 -32.1522
vn -0.451145 -0.408219 0.793616
v 4.2201 -9.07955 -32.1375
vn -0.363233 -0.44336 0.819447
v 4.27199 -9.09707 -32.1273
vn -0.271824 -0.474233 0.837386
v 4.32536 -9.112 -32.1217
vn -0.177797 -0.500538 0.847261
v 4.37971 -9.1242 -32.1208
vn -0.0820578 -0.522022 0.848976
f 1 66 2 
f 1 65 66 
f 2 67 3 
f 2 66 67 
f 3 68 4 
f 3 67 68 
f 4 69 5 
f 4 68 69 
f 5 70 6 
f 5 69 70 
f 6 71 7 
f 6 70 71 
f 7 72 8 
f 7 71 72 
f 8 73 9 
f 8 72 73 
f 9 74 10 
f 9 73 74 
f 10 75 11 
f 10 74 75 
f 11 76 12 
f 11 75 76 
f 12 77 13 
f 12 76 77 
f 13 78 14 
f 13 77 78 
f 14 79 15 
f 14 78 79 
f 15 80 16 
f 15 79 80 
f 16 81 17 
f 16 80 81 
f 17 82 18 
f 17 81 82 
f 18 83 19 
f 18 82 83 
f 19 84 20 
f 19 83 84 
f 20 85 21 
f 20 84 85 
f 21 86 22 
f 21 85 86 
f 22 87 23 
f 22 86 87 
f 23 88 24 
f 23 87 88 
f 24 89 25 
f 24 88 89 
f 25 90 26 
f 25 89 90 
f 26 91 27 
f 26 90 91 
f 27 92 28 
f 27 91 92 
f 28 93 29 
f 28 92 93 
f 29 94 30 
f 29 93 94 
f 30 95 31 
f 30 94 95 
f 31 96 32 
f 31 95 96 
f 32 97 33 
f 32 96 97 
f 33 98 34 
f 33 97 98 
f 34 99 35 
f 34 98 99 
f 35 100 36 
f 35 99 100 
f 36 101 37 
f 36 100 101 
f 37 102 38 
f 37 101 102 
f 38 103 39 
f 38 102 103 
f 39 104 40 
f 39 103 104 
f 40 105 41 
f 40 104 105 
f 41 106 42 
f 41 105 106 
f 42 107 43 
f 42 106 107 
f 43 108 44 
f 43 107 108 
f 44 109 45 
f 44 108 109 
f 45 110 46 
f 45 109 110 
f 46 111 47 
f 46 110 111 
f 47 112 48 
f 47 111 112 
f 48 113 49 
f 48 112 113 
f 49 114 50 
f 49 113 114 
f 50 115 51 
f 50 114 115 
f 51 116 52 
f 51 115 116 
f 52 117 53 
f 52 116 117 
f 53 118 54 
f 53 117 118 
f 54 119 55 
f 54 118 119 
f 55 120 56 
f 55 119 120 
f 56 121 57 
f 56 120 121 
f 57 122 58 
f 57 121 122 
f 58 123 59 
f 58 122 123 
f 59 124 60 
f 59 123 124 
f 60 125 61 
f 60 124 125 
f 61 126 62 
f 61 125 126 
f 62 127 63 
f 62 126 127 
f 63 128 64 
f 63 127 128 
f 64 65 1 
f 64 128 65 
f 65 130 66 
f 65 129 130 
f 66 131 67 
f 66 130 131 
f 67 132 68 
f 67 131 132 
f 68 133 69 
f 68 132 133 
f 69 134 70 
f 69 133 134 
f 70 135 71 
f 70 134 135 
f 71 136 72 
f 71 135 136 
f 72 137 73 
f 72 136 137 
f 73 138 74 
f 73 137 138 
f 74 139 75 
f 74 138 139 
f 75 140 76 
f 75 139 140 
f 76 141 77 
f 76 140 141 
f 77 142 78 
f 77 141 142 
f 78 143 79 
f 78 142 143 
f 79 144 80 
f 79 143 144 
f 80 145 81 
f 80 144 145 
f 81 146 82 
f 81 145 146 
f 82 147 83 
f 82 146 147 
f 83 148 84 
f 83 147 148 
f 84 149 85 
f 84 148 149 
f 85 150 86 
f 85 149 150 
f 86 151 87 
f 86 150 151 
f 87 152 88 
f 87 151 152 
f 88 153 89 
f 88 152 153 
f 89 154 90 
f 89 153 154 
f 90 155 91 
f 90 154 155 
f 91 156 92 
f 91 155 156 
f 92 157 93 
f 92 156 157 
f 93 158 94 
f 93 157 158 
f 94 159 95 
f 94 158 159 
f 95 160 96 
f 95 159 160 
f 96 161 97 
f 96 160 161 
f 97 162 98 
f 97 161 162 
f 98 163 99 
f 98 162 163 
f 99 164 100 
f 99 163 164 
f 100 165 101 
f 100 164 165 
f 101 166 102 
f 101 165 166 
f 102 167 103 
f 102 166 167 
f 103 168 104 
f 103 167 168 
f 104 169 105 
f 104 168 169 
f 105 170 106 
f 105 169 170 
f 106 171 107 
f 106 170 171 
f 107 172 108 
f 107 171 172 
f 108 173 109 
f 108 172 173 
f 109 174 110 
f 109 173 174 
f 110 175 111 
f 110 174 175 
f 111 176 112 
f 111 175 176 
f 112 177 113 
f 112 176 177 
f 113 178 114 
f 113 177 178 
f 114 179 115 
f 114 178 179 
f 115 180 116 
f 115 179 180 
f 116 181 117 
f 116 180 181 
f 117 182 118 
f 117 181 182 
f 118 183 119 
f 118 182 183 
f 119 184 120 
f 119 183 184 
f 120 185 121 
f 120 184 185 
f 121 186 122 
f 121 185 186 
f 122 187 123 
f 122 186 187 
f 123 188 124 
f 123 187 188 
f 124 189 125 
f 124 188 189 
f 125 190 126 
f 125 189 190 
f 126 191 127 
f 126 190 191 
f 127 192 128 
f 127 191 192 
f 128 129 65 
f 128 192 129 
f 129 194 130 
f 129 193 194 
f 130 195 131 
f 130 194 195 
f 131 196 132 
f 131 195 196 
f 132 197 133 
f 132 196 197 
f 133 198 134 
f 133 197 198 
f 134 199 135 
f 134 198 199 
f 135 200 136 
f 135 199 200 
f 136 201 137 
f 136 200 201 
f 137 202 138 
f 137 201 202 
f 138 203 139 
f 138 202 203 
f 139 204 140 
f 139 203 204 
f 140 205 141 
f 140 204 205 
f 141 206 142 
f 141 205 206 
f 142 207 143 
f 142 206 207 
f 143 208 144 
f 143 207 208 
f 144 209 145 
f 144 208 209 
f 145 210 146 
f 145 209 210 
f 146 211 147 
f 146 210 211 
f 147 212 148 
f 147 211 212 
f 148 213 149 
f 148 212 213 
f 149 214 150 
f 149 213 214 
f 150 215 151 
f 150 214 215 
f 151 216 152 
f 151 215 216 
f 152 217 153 
f 152 216 217 
f 153 218 154 
f 153 217 218 
f 154 219 155 
f 154 218 219 
f 155 220 156 
f 155 219 220 
f 156 221 157 
f 156 220 221 
f 157 222 158 
f 157 221 222 
f 158 223 159 
f 158 222 223 
f 159 224 160 
f 159 223 224 
f 160 225 161 
f 160 224 225 
f 161 226 162 
f 161 225 226 
f 162 227 163 
f 162 226 227 
f 163 228 164 
f 163 227 228 
f 164 229 165 
f 164 228 229 
f 165 230 166 
f 165 229 230 
f 166 231 167 
f 166 230 231 
f 167 232 168 
f 167 231 232 
f 168 233 169 
f 168 232 233 
f 169 234 170 
f 169 233 234 
f 170 235 171 
f 170 234 235 
f 171 236 172 
f 171 235 236 
f 172 237 173 
f 172 236 237 
f 173 238 174 
f 173 237 238 
f 174 239 175 
f 174 238 239 
f 175 240 176 
f 175 239 240 
f 176 241 177 
f 176 240 241 
f 177 242 178 
f 177 241 242 
f 178 243 179 
f 178 242 243 
f 179 244 180 
f 179 243 244 
f 180 245 181 
f 180 244 245 
f 181 246 182 
f 181 245 246 
f 182 247 183 
f 182 246 247 
f 183 248 184 
f 183 247 248 
f 184 249 185 
f 184 248 249 
f 185 250 186 
f 185 249 250 
f 186 251 187 
f 186 250 251 
f 187 252 188 
f 187 251 252 
f 188 253 189 
f 188 252 253 
f 189 254 190 
f 189 253 254 
f 190 255 191 
f 190 254 255 
f 191 256 192 
f 191 255 256 
f 192 193 129 
f 192 256 193 
f 193 258 194 
f 193 257 258 
f 194 259 195 
f 194 258 259 
f 195 260 196 
f 195 259 260 
f 196 261 197 
f 196 260 261 
f 197 262 198 
f 197 261 262 
f 198 263 199 
f 198 262 263 
f 199 264 200 
f 199 263 264 
f 200 265 201 
f 200 264 265 
f 201 266 202 
f 201 265 266 
f 202 267 203 
f 202 266 267 
f 203 268 204 
f 203 267 268 
f 204 269 205 
f 204 268 269 
f 205 270 206 
f 205 269 270 
f 206 271 207 
f 206 270 271 
f 207 272 208 
f 207 271 272 
f 208 273 209 
f 208 272 273 
f 209 274 210 
f 209 273 274 
f 210 275 211 
f 210 274 275 
f 211 276 212 
f 211 275 276 
f 212 277 213 
f 212 276 277 
f 213 278 214 
f 213 277 278 
f 214 279 215 
f 214 278 279 
f 215 280 216 
f 215 279 280 
f 216 281 217 
f 216 280 281 
f 217 282 218 
f 217 281 282 
f 218 283 219 
f 218 282 283 
f 219 284 220 
f 219 283 284 
f 220 285 221 
f 220 284 285 
f 221 286 222 
f 221 285 286 
f 222 287 223 
f 222 286 287 
f 223 288 224 
f 223 287 288 
f 224 289 225 
f 224 288 289 
f 225 290 226 
f 225 289 290 
f 226 291 227 
f 226 290 291 
f 227 292 228 
f 227 291 292 
f 228 293 229 
f 228 292 293 
f 229 294 230 
f 229 293 294 
f 230 295 231 
f 230 294 295 
f 231 296 232 
f 231 295 296 
f 232 297 233 
f 232 296 297 
f 233 298 234 
f 233 297 298 
f 234 299 235 
f 234 298 299 
f 235 300 236 
f 235 299 300 
f 236 301 237 
f 236 300 301 
f 237 302 238 
f 237 301 302 
f 238 303 239 
f 238 302 303 
f 239 304 240 
f 239 303 304 
f 240 305 241 
f 240 304 305 
f 241 306 242 
f 241 305 306 
f 242 307 243 
f 242 306 307 
f 243 308 244 
f 243 307 308 
f 244 309 245 
f 244 308 309 
f 245 310 246 
f 245 309 310 
f 246 311 247 
f 246 310 311 
f 247 312 248 
f 247 311 312 
f 248 313 249 
f 248 312 313 
f 249 314 250 
f 249 313 314 
f 250 315 251 
f 250 314 315 
f 251 316 252 
f 251 315 316 
f 252 317 253 
f 252 316 317 
f 253 318 254 
f 253 317 318 
f 254 319 255 
f 254 318 319 
f 255 320 256 
f 255 319 320 
f 256 257 193 
f 256 320 257 
f 257 322 258 
f 257 321 322 
f 258 323 259 
f 258 322 323 
f 259 324 260 
f 259 323 324 
f 260 325 261 
f 260 324 325 
f 261 326 262 
f 261 325 326 
f 262 327 263 
f 262 326 327 
f 263 328 264 
f 263 327 328 
f 264 329 265 
f 264 328 329 
f 265 330 266 
f 265 329 330 
f 266 331 267 
f 266 330 331 
f 267 332 268 
f 267 331 332 
f 268 333 269 
f 268 332 333 
f 269 334 270 
f 269 333 334 
f 270 335 271 
f 270 334 335 
f 271 336 272 
f 271 335 336 
f 272 337 273 
f 272 336 337 
f 273 338 274 
f 273 337 338 
f 274 339 275 
f 274 338 339 
f 275 340 276 
f 275 339 340 
f 276 341 277 
f 276 340 341 
f 277 342 278 
f 277 341 342 
f 278 343 279 
f 278 342 343 
f 279 344 280 
f 279 343 344 
f 280 345 281 
f 280 344 345 
f 281 346 282 
f 281 345 346 
f 282 347 283 
f 282 346 347 
f 283 348 284 
f 283 347 348 
f 284 349 285 
f 284 348 349 
f 285 350 286 
f 285 349 350 
f 286 351 287 
f 286 350 351 
f 287 352 288 
f 287 351 352 
f 288 353 289 
f 288 352 353 
f 289 354 290 
f 289 353 354 
f 290 355 291 
f 290 354 355 
f 291 356 292 
f 291 355 356 
f 292 357 293 
f 292 356 357 
f 293 358 294 
f 293 357 358 
f 294 359 295 
f 294 358 359 
f 295 360 296 
f 295 359 360 
f 296 361 297 
f 296 360 361 
f 297 362 298 
f 297 361 362 
f 298 363 299 
f 298 362 363 
f 299 364 300 
f 299 363 364 
f 300 365 301 
f 300 364 365 
f 301 366 302 
f 301 365 366 
f 302 367 303 
f 302 366 367 
f 303 368 304 
f 303 367 368 
f 304 369 305 
f 304 368 369 
f 305 370 306 
f 305 369 370 
f 306 371 307 
f 306 370 371 
f 307 372 308 
f 307 371 372 
f 308 373 309 
f 308 372 373 
f 309 374 310 
f 309 373 374 
f 310 375 311 
f 310 374 375 
f 311 376 312 
f 311 375 376 
f 312 377 313 
f 312 376 377 
f 313 378 314 
f 313 377 378 
f 314 379 315 
f 314 378 379 
f 315 380 316 
f 315 379 380 
f 316 381 317 
f 316 380 381 
f 317 382 318 
f 317 381 382 
f 318 383 319 
f 318 382 383 
f 319 384 320 
f 319 383 384 
f 320 321 257 
f 320 384 321 
f 321 386 322 
f 321 385 386 
f 322 387 323 
f 322 386 387 
f 323 388 324 
f 323 387 388 
f 324 389 325 
f 324 388 389 
f 325 390 326 
f 325 389 390 
f 326 391 327 
f 326 390 391 
f 327 392 328 
f 327 391 392 
f 328 393 329 
f 328 392 393 
f 329 394 330 
f 329 393 394 
f 330 395 331 
f 330 394 395 
f 331 396 332 
f 331 395 396 
f 332 397 333 
f 332 396 397 
f 333 398 334 
f 333 397 398 
f 334 399 335 
f 334 398 399 
f 335 400 336 
f 335 399 400 
f 336 401 337 
f 336 400 401 
f 337 402 338 
f 337 401 402 
f 338 403 339 
f 338 402 403 
f 339 404 340 
f 339 403 404 
f 340 405 341 
f 340 404 405 
f 341 406 342 
f 341 405 406 
f 342 407 343 
f 342 406 407 
f 343 408 344 
f 343 407 408 
f 344 409 345 
f 344 408 409 
f 345 410 346 
f 345 409 410 
f 346 411 347 
f 346 410 411 
f 347 412 348 
f 347 411 412 
f 348 413 349 
f 348 412 413 
f 349 414 350 
f 349 413 414 
f 350 415 351 
f 350 414 415 
f 351 416 352 
f 351 415 416 
f 352 417 353 
f 352 416 417 
f 353 418 354 
f 353 417 418 
f 354 419 355 
f 354 418 419 
f 355 420 356 
f 355 419 420 
f 356 421 357 
f 356 420 421 
f 357 422 358 
f 357 421 422 
f 358 423 359 
f 358 422 423 
f 359 424 360 
f 359 423 424 
f 360 425 361 
f 360 424 425 
f 361 426 362 
f 361 425 426 
f 362 427 363 
f 362 426 427 
f 363 428 364 
f 363 427 428 
f 364 429 365 
f 364 428 429 
f 365 430 366 
f 365 429 430 
f 366 431 367 
f 366 430 431 
f 367 432 368 
f 367 431 432 
f 368 433 369 
f 368 432 433 
f 369 434 370 
f 369 433 434 
f 370 435 371 
f 370 434 435 
f 371 436 372 
f 371 435 436 
f 372 437 373 
f 372 436 437 
f 373 438 374 
f 373 437 438 
f 374 439 375 
f 374 438 439 
f 375 440 376 
f 375 439 440 
f 376 441 377 
f 376 440 441 
f 377 442 378 
f 377 441 442 
f 378 443 379 
f 378 442 443 
f 379 444 380 
f 379 443 444 
f 380 445 381 
f 380 444 445 
f 381 446 382 
f 381 445 446 
f 382 447 383 
f 382 446 447 
f 383 448 384 
f 383 447 448 
f 384 385 321 
f 384 448 385 
f 385 450 386 
f 385 449 450 
f 386 451 387 
f 386 450 451 
f 387 452 388 
f 387 451 452 
f 388 453 389 
f 388 452 453 
f 389 454 390 
f 389 453 454 
f 390 455 391 
f 390 454 455 
f 391 456 392 
f 391 455 456 
f 392 457 393 
f 392 456 457 
f 393 458 394 
f 393 457 458 
f 394 459 395 
f 394 458 459 
f 395 460 396 
f 395 459 460 
f 396 461 397 
f 396 460 461 
f 397 462 398 
f 397 461 462 
f 398 463 399 
f 398 462 463 
f 399 464 400 
f 399 463 464 
f 400 465 401 
f 400 464 465 
f 401 466 402 
f 401 465 466 
f 402 467 403 
f 402 466 467 
f 403 468 404 
f 403 467 468 
f 404 469 405 
f 404 468 469 
f 405 470 406 
f 405 469 470 
f 406 471 407 
f 406 470 471 
f 407 472 408 
f 407 471 472 
f 408 473 409 
f 408 472 473 
f 409 474 410 
f 409 473 474 
f 410 475 411 
f 410 474 475 
f 411 476 412 
f 411 475 476 
f 412 477 413 
f 412 476 477 
f 413 478 414 
f 413 477 478 
f 414 479 415 
f 414 478 479 
f 415 480 416 
f 415 479 480 
f 416 481 417 
f 416 480 481 
f 417 482 418 
f 417 481 482 
f 418 483 419 
f 418 482 483 
f 419 484 420 
f 419 483 484 
f 420 485 421 
f 420 484 485 
f 421 486 422 
f 421 485 486 
f 422 487 423 
f 422 486 487 
f 423 488 424 
f 423 487 488 
f 424 489 425 
f 424 488 489 
f 425 490 426 
f 425 489 490 
f 426 491 427 
f 426 490 491 
f 427 492 428 
f 427 491 492 
f 428 493 429 
f 428 492 493 
f 429 494 430 
f 429 493 494 
f 430 495 431 
f 430 494 495 
f 431 496 432 
f 431 495 496 
f 432 497 433 
f 432 496 497 
f 433 498 434 
f 433 497 498 
f 434 499 435 
f 434 498 499 
f 435 500 436 
f 435 499 500 
f 436 501 437 
f 436 500 501 
f 437 502 438 
f 437 501 502 
f 438 503 439 
f 438 502 503 
f 439 504 440 
f 439 503 504 
f 440 505 441 
f 440 504 505 
f 441 506 442 
f 441 505 506 
f 442 507 443 
f 442 506 507 
f 443 508 444 
f 443 507 508 
f 444 509 445 
f 444 508 509 
f 445 510 446 
f 445 509 510 
f 446 511 447 
f 446 510 511 
f 447 512 448 
f 447 511 512 
f 448 449 385 
f 448 512 449 
f 449 514 450 
f 449 513 514 
f 450 515 451 
f 450 514 515 
f 451 516 452 
f 451 515 516 
f 452 517 453 
f 452 516 517 
f 453 518 454 
f 453 517 518 
f 454 519 455 
f 454 518 519 
f 455 520 456 
f 455 519 520 
f 456 521 457 
f 456 520 521 
f 457 522 458 
f 457 521 522 
f 458 523 459 
f 458 522 523 
f 459 524 460 
f 459 523 524 
f 460 525 461 
f 460 524 525 
f 461 526 462 
f 461 525 526 
f 462 527 463 
f 462 526 527 
f 463 528 464 
f 463 527 528 
f 464 529 465 
f 464 528 529 
f 465 530 466 
f 465 529 530 
f 466 531 467 
f 466 530 531 
f 467 532 468 
f 467 531 532 
f 468 533 469 
f 468 532 533 
f 469 534 470 
f 469 533 534 
f 470 535 471 
f 470 534 535 
f 471 536 472 
f 471 535 536 
f 472 537 473 
f 472 536 537 
f 473 538 474 
f 473 537 538 
f 474 539 475 
f 474 538 539 
f 475 540 476 
f 475 539 540 
f 476 541 477 
f 476 540 541 
f 477 542 478 
f 477 541 542 
f 478 543 479 
f 478 542 543 
f 479 544 480 
f 479 543 544 
f 480 545 481 
f 480 544 545 
f 481 546 482 
f 481 545 546 
f 482 547 483 
f 482 546 547 
f 483 548 484 
f 483 547 548 
f 484 549 485 
f 484 548 549 
f 485 550 486 
f 485 549 550 
f 486 551 487 
f 486 550 551 
f 487 552 488 
f 487 551 552 
f 488 553 489 
f 488 552 553 
f 489 554 490 
f 489 553 554 
f 490 555 491 
f 490 554 555 
f 491 556 492 
f 491 555 556 
f 492 557 493 
f 492 556 557 
f 493 558 494 
f 493 557 558 
f 494 559 495 
f 494 558 559 
f 495 560 496 
f 495 559 560 
f 496 561 497 
f 496 560 561 
f 497 562 498 
f 497 561 562 
f 498 563 499 
f 498 562 563 
f 499 564 500 
f 499 563 564 
f 500 565 501 
f 500 564 565 
f 501 566 502 
f 501 565 566 
f 502 567 503 
f 502 566 567 
f 503 568 504 
f 503 567 568 
f 504 569 505 
f 504 568 569 
f 505 570 506 
f 505 569 570 
f 506 571 507 
f 506 570 571 
f 507 572 508 
f 507 571 572 
f 508 573 509 
f 508 572 573 
f 509 574 510 
f 509 573 574 
f 510 575 511 
f 510 574 575 
f 511 576 512 
f 511 575 576 
f 512 513 449 
f 512 576 513 
f 513 578 514 
f 513 577 578 
f 514 579 515 
f 514 578 579 
f 515 580 516 
f 515 579 580 
f 516 581 517 
f 516 580 581 
f 517 582 518 
f 517 581 582 
f 518 583 519 
f 518 582 583 
f 519 584 520 
f 519 583 584 
f 520 585 521 
f 520 584 585 
f 521 586 522 
f 521 585 586 
f 522 587 523 
f 522 586 587 
f 523 588 524 
f 523 587 588 
f 524 589 525 
f 524 588 589 
f 525 590 526 
f 525 589 590 
f 526 591 527 
f 526 590 591 
f 527 592 528 
f 527 591 592 
f 528 593 529 
f 528 592 593 
f 529 594 530 
f 529 593 594 
f 530 595 531 
f 530 594 595 
f 531 596 532 
f 531 595 596 
f 532 597 533 
f 532 596 597 
f 533 598 534 
f 533 597 598 
f 534 599 535 
f 534 598 599 
f 535 600 536 
f 535 599 600 
f 536 601 537 
f 536 600 601 
f 537 602 538 
f 537 601 602 
f 538 603 539 
f 538 602 603 
f 539 604 540 
f 539 603 604 
f 540 605 541 
f 540 604 605 
f 541 606 542 
f 541 605 606 
f 542 607 543 
f 542 606 607 
f 543 608 544 
f 543 607 608 
f 544 609 545 
f 544 608 609 
f 545 610 546 
f 545 609 610 
f 546 611 547 
f 546 610 611 
f 547 612 548 
f 547 611 612 
f 548 613 549 
f 548 612 613 
f 549 614 550 
f 549 613 614 
f 550 615 551 
f 550 614 615 
f 551 616 552 
f 551 615 616 
f 552 617 553 
f 552 616 617 
f 553 618 554 
f 553 617 618 
f 554 619 555 
f 554 618 619 
f 555 620 556 
f 555 619 620 
f 556 621 557 
f 556 620 621 
f 557 622 558 
f 557 621 622 
f 558 623 559 
f 558 622 623 
f 559 624 560 
f 559 623 624 
f 560 625 561 
f 560 624 625 
f 561 626 562 
f 561 625 626 
f 562 627 563 
f 562 626 627 
f 563 628 564 
f 563 627 628 
f 564 629 565 
f 564 628 629 
f 565 630 566 
f 565 629 630 
f 566 631 567 
f 566 630 631 
f 567 632 568 
f 567 631 632 
f 568 633 569 
f 568 632 633 
f 569 634 570 
f 569 633 634 
f 570 635 571 
f 570 634 635 
f 571 636 572 
f 571 635 636 
f 572 637 573 
f 572 636 637 
f 573 638 574 
f 573 637 638 
f 574 639 575 
f 574 638 639 
f 575 640 576 
f 575 639 640 
f 576 577 513 
f 576 640 577 
