# Branch
v -3.79738 1.42308 -10.9849
vn 0.321598 0.0495066 0.945581
v -3.79153 1.42396 -10.9872
vn 0.411689 0.0631368 0.909135
v -3.78595 1.42481 -10.9902
vn 0.497815 0.076159 0.863933
v -3.78067 1.42561 -10.9937
vn 0.579147 0.0884478 0.810411
v -3.77575 1.42635 -10.9976
vn 0.654902 0.0998847 0.749084
v -3.77125 1.42703 -11.0021
vn 0.724349 0.11036 0.680543
v -3.7672 1.42764 -11.0069
vn 0.786821 0.119772 0.605448
v -3.76363 1.42818 -11.0122
vn 0.841715 0.128031 0.524522
v -3.7606 1.42863 -11.0178
vn 0.888503 0.135056 0.438545
v -3.75812 1.429 -11.0236
vn 0.926734 0.140781 0.348345
v -3.75622 1.42929 -11.0297
vn 0.956041 0.145151 0.254789
v -3.75491 1.42948 -11.0359
vn 0.97614 0.148122 0.15878
v -3.75422 1.42958 -11.0423
vn 0.986838 0.149667 0.0612419
v -3.75414 1.42959 -11.0486
vn 0.988033 0.14977 -0.0368861
v -3.75468 1.4295 -11.055
vn 0.979712 0.148431 -0.134659
v -3.75583 1.42932 -11.0612
vn 0.961956 0.145663 -0.231135
v -3.75759 1.42905 -11.0673
vn 0.934936 0.141492 -0.325385
v -3.75992 1.42869 -11.0733
vn 0.898912 0.135958 -0.416501
v -3.76282 1.42825 -11.0789
vn 0.854231 0.129115 -0.503606
v -3.76626 1.42772 -11.0842
vn 0.801323 0.121028 -0.585862
v -3.77019 1.42712 -11.0892
vn 0.740698 0.111776 -0.662475
v -3.77458 1.42645 -11.0938
vn 0.67294 0.101447 -0.732708
v -3.7794 1.42572 -11.0979
vn 0.598701 0.0901418 -0.795884
v -3.78459 1.42493 -11.1015
vn 0.518696 0.077968 -0.851396
v -3.79011 1.42409 -11.1045
vn 0.433696 0.0650434 -0.898709
v -3.79589 1.42321 -11.107
vn 0.344519 0.0514924 -0.937366
v -3.80189 1.4223 -11.109
vn 0.252024 0.0374454 -0.966996
v -3.80805 1.42136 -11.1103
vn 0.157102 0.0230379 -0.987314
v -3.81431 1.42041 -11.111
vn 0.060667 0.00840846 -0.998123
v -3.8206 1.41946 -11.1111
vn -0.0363522 -0.00630193 -0.999319
v -3.82688 1.41851 -11.1105
vn -0.133021 -0.0209516 -0.990892
v -3.83306 1.41757 -11.1094
vn -0.228409 -0.0353996 -0.972921
v -3.83911 1.41666 -11.1076
vn -0.321598 -0.0495066 -0.945581
v -3.84496 1.41577 -11.1052
vn -0.411689 -0.0631368 -0.909135
v -3.85054 1.41493 -11.1023
vn -0.497815 -0.076159 -0.863933
v -3.85582 1.41413 -11.0988
vn -0.579147 -0.0884478 -0.810411
v -3.86074 1.41339 -11.0948
vn -0.654902 -0.0998847 -0.749084
v -3.86524 1.41271 -11.0904
vn -0.724349 -0.11036 -0.680543
v -3.86929 1.4121 -11.0855
vn -0.786821 -0.119772 -0.605448
v -3.87286 1.41156 -11.0803
vn -0.841715 -0.128031 -0.524522
v -3.87589 1.41111 -11.0747
vn -0.888503 -0.135056 -0.438545
v -3.87837 1.41073 -11.0688
vn -0.926734 -0.140781 -0.348345
v -3.88027 1.41045 -11.0628
vn -0.956041 -0.145151 -0.254789
v -3.88158 1.41026 -11.0565
vn -0.97614 -0.148122 -0.15878
v -3.88227 1.41016 -11.0502
vn -0.986838 -0.149667 -0.0612419
v -3.88235 1.41015 -11.0438
vn -0.988033 -0.14977 0.0368861
v -3.88181 1.41024 -11.0375
vn -0.979712 -0.148431 0.134659
v -3.88066 1.41042 -11.0312
vn -0.961956 -0.145663 0.231135
v -3.8789 1.41069 -11.0251
vn -0.934936 -0.141492 0.325385
v -3.87657 1.41105 -11.0192
vn -0.898912 -0.135958 0.416501
v -3.87367 1.41149 -11.0136
vn -0.854231 -0.129115 0.503606
v -3.87024 1.41202 -11.0082
vn -0.801323 -0.121028 0.585862
v -3.8663 1.41262 -11.0032
vn -0.740698 -0.111776 0.662475
v -3.86191 1.41329 -10.9987
vn -0.67294 -0.101447 0.732708
v -3.85709 1.41402 -10.9946
vn -0.598701 -0.0901418 0.795884
v -3.8519 1.41481 -10.991
vn -0.518696 -0.077968 0.851396
v -3.84638 1.41565 -10.9879
vn -0.433696 -0.0650434 0.898709
v -3.8406 1.41653 -10.9854
vn -0.344519 -0.0514924 0.937366
v -3.8346 1.41744 -10.9835
vn -0.252024 -0.0374454 0.966996
v -3.82844 1.41837 -10.9822
vn -0.157102 -0.0230379 0.987314
v -3.82218 1.41932 -10.9815
vn -0.060667 -0.00840846 0.998123
v -3.81589 1.42028 -10.9814
vn 0.0363522 0.00630193 0.999319
v -3.80961 1.42123 -10.9819
vn 0.133021 0.0209516 0.990892
v -3.80343 1.42217 -10.9831
vn 0.228409 0.0353996 0.972921
v -3.7971 0.77372 -11.2665
vn 0.340826 -0.613108 0.712696
v -3.79044 0.774965 -11.2691
vn 0.430825 -0.596287 0.677371
v -3.78409 0.776634 -11.2722
vn 0.516674 -0.573724 0.635523
v -3.77811 0.778713 -11.2757
vn 0.597548 -0.545635 0.587554
v -3.77255 0.781181 -11.2797
vn 0.672667 -0.512291 0.533926
v -3.76747 0.784013 -11.284
vn 0.741307 -0.474014 0.475157
v -3.76292 0.787184 -11.2887
vn 0.802809 -0.431172 0.411811
v -3.75894 0.790661 -11.2937
vn 0.856579 -0.384177 0.3445
v -3.75557 0.794413 -11.2989
vn 0.9021 -0.333483 0.273871
v -3.75284 0.798402 -11.3044
vn 0.938933 -0.279577 0.200604
v -3.75079 0.802591 -11.3099
vn 0.966723 -0.222978 0.125405
v -3.74942 0.806938 -11.3156
vn 0.985204 -0.164232 0.048999
v -3.74875 0.811403 -11.3213
vn 0.994196 -0.103905 -0.0278793
v -3.7488 0.815941 -11.3269
vn 0.993614 -0.0425766 -0.104489
v -3.74955 0.82051 -11.3325
vn 0.983463 0.0191617 -0.180092
v -3.751 0.825065 -11.338
vn 0.963841 0.0807154 -0.253962
v -3.75314 0.829563 -11.3433
vn 0.934936 0.141492 -0.325385
v -3.75594 0.83396 -11.3483
vn 0.897027 0.200906 -0.393674
v -3.75939 0.838213 -11.3531
vn 0.850479 0.258385 -0.458173
v -3.76344 0.842283 -11.3576
vn 0.795741 0.313375 -0.518259
v -3.76806 0.846129 -11.3616
vn 0.733339 0.365348 -0.573354
v -3.7732 0.849715 -11.3653
vn 0.663875 0.413802 -0.622927
v -3.77881 0.853006 -11.3685
vn 0.588018 0.458271 -0.666501
v -3.78484 0.85597 -11.3713
vn 0.506497 0.498326 -0.703656
v -3.79124 0.858579 -11.3735
vn 0.420099 0.533583 -0.734034
v -3.79793 0.860808 -11.3752
vn 0.329655 0.5637 -0.757344
v -3.80486 0.862635 -11.3764
vn 0.236036 0.588389 -0.77336
v -3.81195 0.864043 -11.3771
vn 0.140144 0.607412 -0.781928
v -3.81915 0.865018 -11.3771
vn 0.0429022 0.620584 -0.782965
v -3.82638 0.86555 -11.3767
vn -0.0547526 0.627781 -0.776462
v -3.83357 0.865635 -11.3756
vn -0.15188 0.628931 -0.762482
v -3.84065 0.865272 -11.374
vn -0.247545 0.624024 -0.741158
v -3.84755 0.864464 -11.3719
vn -0.340826 0.613108 -0.712696
v -3.85421 0.863219 -11.3693
vn -0.430825 0.596287 -0.677371
v -3.86056 0.86155 -11.3662
vn -0.516674 0.573724 -0.635523
v -3.86655 0.859471 -11.3627
vn -0.597548 0.545635 -0.587554
v -3.87211 0.857003 -11.3587
vn -0.672667 0.512291 -0.533926
v -3.87719 0.854171 -11.3544
vn -0.741307 0.474014 -0.475157
v -3.88174 0.851 -11.3497
vn -0.802809 0.431172 -0.411811
v -3.88572 0.847523 -11.3447
vn -0.856579 0.384177 -0.3445
v -3.88908 0.843771 -11.3395
vn -0.9021 0.333483 -0.273871
v -3.89181 0.839782 -11.334
vn -0.938933 0.279577 -0.200604
v -3.89387 0.835593 -11.3285
vn -0.966723 0.222978 -0.125405
v -3.89523 0.831246 -11.3228
vn -0.985204 0.164232 -0.048999
v -3.8959 0.826781 -11.3171
vn -0.994196 0.103905 0.0278793
v -3.89586 0.822243 -11.3115
vn -0.993614 0.0425766 0.104489
v -3.89511 0.817674 -11.3059
vn -0.983463 -0.0191617 0.180092
v -3.89365 0.813119 -11.3004
vn -0.963841 -0.0807154 0.253962
v -3.89151 0.808621 -11.2951
vn -0.934936 -0.141492 0.325385
v -3.88871 0.804224 -11.2901
vn -0.897027 -0.200906 0.393674
v -3.88526 0.799971 -11.2853
vn -0.850479 -0.258385 0.458173
v -3.88121 0.795901 -11.2808
vn -0.795741 -0.313375 0.518259
v -3.8766 0.792055 -11.2768
vn -0.733339 -0.365348 0.573354
v -3.87146 0.788469 -11.2731
vn -0.663875 -0.413802 0.622927
v -3.86584 0.785178 -11.2699
vn -0.588018 -0.458271 0.666501
v -3.85981 0.782214 -11.2671
vn -0.506497 -0.498326 0.703656
v -3.85342 0.779605 -11.2649
vn -0.420099 -0.533583 0.734034
v -3.84672 0.777376 -11.2632
vn -0.329655 -0.5637 0.757344
v -3.83979 0.775549 -11.262
vn -0.236036 -0.588389 0.77336
v -3.8327 0.774141 -11.2613
vn -0.140144 -0.607412 0.781928
v -3.8255 0.773166 -11.2613
vn -0.0429022 -0.620584 0.782965
v -3.81827 0.772634 -11.2617
vn 0.0547526 -0.627781 0.776462
v -3.81109 0.772549 -11.2628
vn 0.15188 -0.628931 0.762482
v -3.80401 0.772912 -11.2644
vn 0.247545 -0.624024 0.741158
v -3.96626 -0.0120038 -12.0942
vn 0.306239 -0.784942 0.538595
v -3.95876 -0.0105368 -12.097
vn 0.396404 -0.767293 0.504108
v -3.95158 -0.00845547 -12.1003
vn 0.482751 -0.742255 0.464767
v -3.94479 -0.00577994 -12.1039
vn 0.56445 -0.710069 0.420949
v -3.93845 -0.00253595 -12.1079
vn 0.640712 -0.671045 0.373078
v -3.93263 0.00124525 -12.1122
vn 0.710804 -0.625558 0.321613
v -3.92737 0.00552725 -12.1167
vn 0.774051 -0.574046 0.267051
v -3.92273 0.0102688 -12.1215
vn 0.829843 -0.517007 0.209918
v -3.91876 0.0154242 -12.1264
vn 0.877643 -0.454988 0.150762
v -3.91549 0.0209439 -12.1314
vn 0.916991 -0.388587 0.0901552
v -3.91295 0.0267747 -12.1365
vn 0.947508 -0.318444 0.0286798
v -3.91117 0.0328604 -12.1417
vn 0.9689 -0.245234 -0.0330718
v -3.91017 0.0391425 -12.1468
vn 0.98096 -0.169663 -0.094505
v -3.90995 0.0455603 -12.1518
vn 0.983574 -0.0924573 -0.155028
v -3.91052 0.0520522 -12.1567
vn 0.976715 -0.0143614 -0.214058
v -3.91187 0.0585556 -12.1615
vn 0.96045 0.0638728 -0.271026
v -3.914 0.0650078 -12.166
vn 0.934936 0.141492 -0.325385
v -3.91687 0.0713468 -12.1702
vn 0.900417 0.217748 -0.37661
v -3.92046 0.0775114 -12.1742
vn 0.857227 0.291908 -0.424207
v -3.92473 0.0834424 -12.1778
vn 0.805781 0.363256 -0.46772
v -3.92965 0.0890825 -12.1811
vn 0.746575 0.431106 -0.506728
v -3.93517 0.0943776 -12.1839
vn 0.68018 0.494804 -0.540856
v -3.94124 0.0992765 -12.1863
vn 0.607234 0.553736 -0.569775
v -3.94779 0.103732 -12.1882
vn 0.528439 0.607336 -0.593207
v -3.95476 0.107701 -12.1897
vn 0.444556 0.655087 -0.610926
v -3.96209 0.111146 -12.1907
vn 0.356391 0.696529 -0.622762
v -3.9697 0.114034 -12.1912
vn 0.264794 0.731264 -0.6286
v -3.97753 0.116336 -12.1912
vn 0.170647 0.758955 -0.628384
v -3.98549 0.11803 -12.1906
vn 0.0748567 0.779338 -0.622116
v -3.99351 0.119101 -12.1896
vn -0.0216547 0.792215 -0.609858
v -4.00152 0.119537 -12.1881
vn -0.117957 0.797463 -0.591726
v -4.00943 0.119335 -12.1861
vn -0.213124 0.79503 -0.567895
v -4.01717 0.118496 -12.1837
vn -0.306239 0.784942 -0.538595
v -4.02467 0.117029 -12.1808
vn -0.396404 0.767293 -0.504108
v -4.03184 0.114948 -12.1776
vn -0.482751 0.742255 -0.464767
v -4.03864 0.112272 -12.1739
vn -0.56445 0.710069 -0.420949
v -4.04497 0.109028 -12.1699
vn -0.640712 0.671045 -0.373078
v -4.0508 0.105247 -12.1657
vn -0.710804 0.625558 -0.321613
v -4.05606 0.100965 -12.1611
vn -0.774051 0.574046 -0.267051
v -4.0607 0.0962232 -12.1564
vn -0.829843 0.517007 -0.209918
v -4.06467 0.0910678 -12.1515
vn -0.877643 0.454988 -0.150762
v -4.06794 0.0855481 -12.1464
vn -0.916991 0.388587 -0.0901552
v -4.07048 0.0797173 -12.1413
vn -0.947508 0.318444 -0.0286798
v -4.07226 0.0736316 -12.1362
vn -0.9689 0.245234 0.0330718
v -4.07326 0.0673496 -12.1311
vn -0.98096 0.169663 0.094505
v -4.07348 0.0609317 -12.126
vn -0.983574 0.0924573 0.155028
v -4.07291 0.0544398 -12.1211
vn -0.976715 0.0143614 0.214058
v -4.07155 0.0479365 -12.1164
vn -0.96045 -0.0638728 0.271026
v -4.06943 0.0414842 -12.1119
vn -0.934936 -0.141492 0.325385
v -4.06656 0.0351453 -12.1076
vn -0.900417 -0.217748 0.37661
v -4.06297 0.0289806 -12.1037
vn -0.857227 -0.291908 0.424207
v -4.0587 0.0230496 -12.1001
vn -0.805781 -0.363256 0.46772
v -4.05377 0.0174095 -12.0968
vn -0.746575 -0.431106 0.506728
v -4.04826 0.0121145 -12.094
vn -0.68018 -0.494804 0.540856
v -4.04219 0.00721556 -12.0916
vn -0.607234 -0.553736 0.569775
v -4.03564 0.00275995 -12.0896
vn -0.528439 -0.607336 0.593207
v -4.02867 -0.00120945 -12.0881
vn -0.444556 -0.655087 0.610926
v -4.02134 -0.00465441 -12.0872
vn -0.356391 -0.696529 0.622762
v -4.01373 -0.00754176 -12.0867
vn -0.264794 -0.731264 0.6286
v -4.0059 -0.00984369 -12.0867
vn -0.170647 -0.758955 0.628384
v -3.99794 -0.011538 -12.0872
vn -0.0748567 -0.779338 0.622116
v -3.98991 -0.0126085 -12.0882
vn 0.0216547 -0.792215 0.609858
v -3.98191 -0.0130447 -12.0897
vn 0.117957 -0.797463 0.591726
v -3.974 -0.0128425 -12.0917
vn 0.213124 -0.79503 0.567895
v -4.30013 -0.955728 -13.4639
vn 0.284823 -0.846155 0.450441
v -4.29181 -0.954072 -13.467
vn 0.375091 -0.828212 0.416379
v -4.28381 -0.951681 -13.4705
vn 0.461747 -0.802293 0.378307
v -4.27623 -0.948577 -13.4744
vn 0.543956 -0.768647 0.336591
v -4.26913 -0.944791 -13.4785
vn 0.620926 -0.727599 0.291634
v -4.26258 -0.940358 -13.4829
vn 0.691917 -0.679544 0.243868
v -4.25665 -0.935321 -13.4875
vn 0.756244 -0.624944 0.193754
v -4.25138 -0.929729 -13.4923
vn 0.813288 -0.564325 0.141774
v -4.24684 -0.923635 -13.4973
vn 0.862499 -0.498272 0.0884282
v -4.24307 -0.917099 -13.5023
vn 0.903405 -0.427421 0.034231
v -4.2401 -0.910183 -13.5073
vn 0.93561 -0.352453 -0.0202959
v -4.23796 -0.902954 -13.5123
vn 0.958804 -0.27409 -0.0746273
v -4.23667 -0.895482 -13.5173
vn 0.972765 -0.193088 -0.12824
v -4.23625 -0.887838 -13.5221
vn 0.977357 -0.110227 -0.180618
v -4.23669 -0.880096 -13.5268
vn 0.972537 -0.0263036 -0.231256
v -4.238 -0.872331 -13.5312
vn 0.958351 0.0578728 -0.279667
v -4.24016 -0.864617 -13.5354
vn 0.934936 0.141492 -0.325385
v -4.24315 -0.857029 -13.5394
vn 0.902516 0.223748 -0.367969
v -4.24694 -0.849639 -13.543
vn 0.861405 0.30385 -0.407009
v -4.2515 -0.84252 -13.5462
vn 0.811998 0.381025 -0.44213
v -4.25678 -0.835739 -13.5491
vn 0.754771 0.454531 -0.472993
v -4.26273 -0.829362 -13.5515
vn 0.690275 0.52366 -0.4993
v -4.26929 -0.82345 -13.5535
vn 0.619132 0.587745 -0.520799
v -4.27641 -0.81806 -13.555
vn 0.542026 0.64617 -0.537283
v -4.284 -0.813244 -13.556
vn 0.459699 0.698372 -0.548592
v -4.29201 -0.809049 -13.5566
vn 0.372946 0.743848 -0.554618
v -4.30034 -0.805515 -13.5567
vn 0.282601 0.782161 -0.555302
v -4.30893 -0.802675 -13.5562
vn 0.189535 0.812941 -0.550639
v -4.31768 -0.800558 -13.5553
vn 0.0946426 0.835892 -0.540673
v -4.32652 -0.799183 -13.5539
vn -0.00116072 0.850793 -0.5255
v -4.33535 -0.798565 -13.552
vn -0.0969529 0.8575 -0.505266
v -4.3441 -0.798708 -13.5497
vn -0.191811 0.855949 -0.480166
v -4.35268 -0.799611 -13.547
vn -0.284823 0.846155 -0.450441
v -4.36101 -0.801267 -13.5438
vn -0.375091 0.828212 -0.416379
v -4.36901 -0.803658 -13.5403
vn -0.461747 0.802293 -0.378307
v -4.37659 -0.806761 -13.5365
vn -0.543956 0.768647 -0.336591
v -4.38369 -0.810548 -13.5323
vn -0.620926 0.727599 -0.291634
v -4.39024 -0.814981 -13.5279
vn -0.691917 0.679544 -0.243868
v -4.39617 -0.820018 -13.5233
vn -0.756244 0.624944 -0.193754
v -4.40144 -0.82561 -13.5185
vn -0.813288 0.564325 -0.141774
v -4.40598 -0.831704 -13.5136
vn -0.862499 0.498272 -0.0884282
v -4.40975 -0.83824 -13.5086
vn -0.903405 0.427421 -0.034231
v -4.41272 -0.845156 -13.5036
vn -0.93561 0.352453 0.0202959
v -4.41486 -0.852384 -13.4985
vn -0.958804 0.27409 0.0746273
v -4.41615 -0.859857 -13.4936
vn -0.972765 0.193088 0.12824
v -4.41657 -0.867501 -13.4888
vn -0.977357 0.110227 0.180618
v -4.41613 -0.875243 -13.4841
vn -0.972537 0.0263036 0.231256
v -4.41482 -0.883008 -13.4796
vn -0.958351 -0.0578728 0.279667
v -4.41266 -0.890722 -13.4754
vn -0.934936 -0.141492 0.325385
v -4.40967 -0.89831 -13.4715
vn -0.902516 -0.223748 0.367969
v -4.40587 -0.9057 -13.4679
vn -0.861405 -0.30385 0.407009
v -4.40132 -0.912819 -13.4646
vn -0.811998 -0.381025 0.44213
v -4.39604 -0.9196 -13.4618
vn -0.754771 -0.454531 0.472993
v -4.39009 -0.925977 -13.4594
vn -0.690275 -0.52366 0.4993
v -4.38352 -0.931889 -13.4574
vn -0.619132 -0.587745 0.520799
v -4.37641 -0.937279 -13.4559
vn -0.542026 -0.64617 0.537283
v -4.36882 -0.942094 -13.4548
vn -0.459699 -0.698372 0.548592
v -4.36081 -0.94629 -13.4543
vn -0.372946 -0.743848 0.554618
v -4.35248 -0.949824 -13.4542
vn -0.282601 -0.782161 0.555302
v -4.34389 -0.952664 -13.4546
vn -0.189535 -0.812941 0.550639
v -4.33514 -0.954781 -13.4555
vn -0.0946426 -0.835892 0.540673
v -4.3263 -0.956155 -13.4569
vn 0.00116072 -0.850793 0.5255
v -4.31747 -0.956774 -13.4588
vn 0.0969529 -0.8575 0.505266
v -4.30872 -0.956631 -13.4611
vn 0.191811 -0.855949 0.480166
v -4.79888 -2.06241 -15.3782
vn 0.271559 -0.87557 0.399541
v -4.78973 -2.06058 -15.3816
vn 0.361892 -0.857485 0.365724
v -4.78092 -2.05791 -15.3854
vn 0.448738 -0.831142 0.328385
v -4.77256 -2.05443 -15.3895
vn 0.531264 -0.796795 0.287883
v -4.76471 -2.05017 -15.3939
vn 0.608673 -0.754774 0.244609
v -4.75746 -2.04517 -15.3985
vn 0.68022 -0.705485 0.198979
v -4.75087 -2.03949 -15.4033
vn 0.745216 -0.649401 0.151432
v -4.74501 -2.03317 -15.4083
vn 0.803035 -0.587063 0.102428
v -4.73993 -2.02627 -15.4134
vn 0.853121 -0.519071 0.0524366
v -4.73568 -2.01888 -15.4185
vn 0.894991 -0.446081 0.00194052
v -4.73231 -2.01104 -15.4236
vn 0.928241 -0.368794 -0.0485743
v -4.72985 -2.00285 -15.4287
vn 0.952552 -0.287956 -0.0986213
v -4.72831 -1.99437 -15.4337
vn 0.967689 -0.204345 -0.147719
v -4.72772 -1.98569 -15.4385
vn 0.973507 -0.118765 -0.195393
v -4.72808 -1.9769 -15.4431
vn 0.96995 -0.032042 -0.241186
v -4.72939 -1.96808 -15.4475
vn 0.957051 0.0549897 -0.284656
v -4.73163 -1.95931 -15.4517
vn 0.934936 0.141492 -0.325385
v -4.73479 -1.95068 -15.4555
vn 0.903816 0.226631 -0.36298
v -4.73883 -1.94227 -15.4589
vn 0.863993 0.309588 -0.397079
v -4.74371 -1.93416 -15.462
vn 0.815848 0.389564 -0.427355
v -4.74938 -1.92644 -15.4646
vn 0.759847 0.465787 -0.453514
v -4.7558 -1.91916 -15.4669
vn 0.696527 0.537525 -0.475306
v -4.7629 -1.91242 -15.4686
vn 0.6265 0.604087 -0.492521
v -4.77061 -1.90626 -15.4699
vn 0.55044 0.66483 -0.504992
v -4.77886 -1.90075 -15.4706
vn 0.469078 0.719171 -0.5126
v -4.78757 -1.89594 -15.4709
vn 0.383199 0.766586 -0.515272
v -4.79665 -1.89188 -15.4707
vn 0.293629 0.806618 -0.512981
v -4.80601 -1.88861 -15.4699
vn 0.201232 0.838882 -0.505749
v -4.81558 -1.88616 -15.4687
vn 0.106896 0.863067 -0.493648
v -4.82524 -1.88455 -15.467
vn 0.0115313 0.878941 -0.476792
v -4.83492 -1.8838 -15.4648
vn -0.0839446 0.886349 -0.455344
v -4.84452 -1.88392 -15.4622
vn -0.178612 0.885222 -0.429511
v -4.85394 -1.88489 -15.4592
vn -0.271559 0.87557 -0.399541
v -4.8631 -1.88673 -15.4558
vn -0.361892 0.857485 -0.365724
v -4.8719 -1.8894 -15.452
vn -0.448738 0.831142 -0.328385
v -4.88027 -1.89288 -15.4479
vn -0.531264 0.796795 -0.287883
v -4.88812 -1.89714 -15.4435
vn -0.608673 0.754774 -0.244609
v -4.89537 -1.90214 -15.4388
vn -0.68022 0.705485 -0.198979
v -4.90196 -1.90782 -15.434
vn -0.745216 0.649401 -0.151432
v -4.90782 -1.91414 -15.4291
vn -0.803035 0.587063 -0.102428
v -4.9129 -1.92103 -15.424
vn -0.853121 0.519071 -0.0524366
v -4.91714 -1.92843 -15.4189
vn -0.894991 0.446081 -0.00194052
v -4.92051 -1.93627 -15.4138
vn -0.928241 0.368794 0.0485743
v -4.92298 -1.94446 -15.4087
vn -0.952552 0.287956 0.0986213
v -4.92451 -1.95294 -15.4037
vn -0.967689 0.204345 0.147719
v -4.9251 -1.96161 -15.3989
vn -0.973507 0.118765 0.195393
v -4.92474 -1.97041 -15.3942
vn -0.96995 0.032042 0.241186
v -4.92343 -1.97923 -15.3898
vn -0.957051 -0.0549897 0.284656
v -4.92119 -1.988 -15.3857
vn -0.934936 -0.141492 0.325385
v -4.91804 -1.99663 -15.3819
vn -0.903816 -0.226631 0.36298
v -4.914 -2.00504 -15.3784
vn -0.863993 -0.309588 0.397079
v -4.90912 -2.01315 -15.3754
vn -0.815848 -0.389564 0.427355
v -4.90344 -2.02087 -15.3727
vn -0.759847 -0.465787 0.453514
v -4.89702 -2.02815 -15.3705
vn -0.696527 -0.537525 0.475306
v -4.88992 -2.03489 -15.3687
vn -0.6265 -0.604087 0.492521
v -4.88221 -2.04105 -15.3675
vn -0.55044 -0.66483 0.504992
v -4.87396 -2.04656 -15.3667
vn -0.469078 -0.719171 0.5126
v -4.86526 -2.05137 -15.3664
vn -0.383199 -0.766586 0.515272
v -4.85618 -2.05542 -15.3667
vn -0.293629 -0.806618 0.512981
v -4.84681 -2.05869 -15.3674
vn -0.201232 -0.838882 0.505749
v -4.83725 -2.06115 -15.3686
vn -0.106896 -0.863067 0.493648
v -4.82758 -2.06276 -15.3703
vn -0.0115313 -0.878941 0.476792
v -4.8179 -2.06351 -15.3725
vn 0.0839446 -0.886349 0.455344
v -4.80831 -2.06339 -15.3751
vn 0.178612 -0.885222 0.429511
v -5.46269 -3.33332 -17.8382
vn 0.262713 -0.89244 0.366787
v -5.45271 -3.33131 -17.8419
vn 0.353088 -0.874274 0.333128
v -5.4431 -3.32838 -17.846
vn 0.440062 -0.847688 0.29626
v -5.43395 -3.32454 -17.8503
vn 0.522798 -0.812939 0.256539
v -5.42537 -3.31983 -17.855
vn 0.6005 -0.77036 0.214348
v -5.41742 -3.31431 -17.8599
vn 0.672418 -0.720363 0.170092
v -5.41019 -3.30802 -17.865
vn 0.73786 -0.663428 0.124198
v -5.40374 -3.30102 -17.8702
vn 0.796197 -0.600104 0.0771082
v -5.39815 -3.29338 -17.8755
vn 0.846866 -0.531001 0.0292757
v -5.39345 -3.28518 -17.8808
vn 0.889379 -0.456783 -0.0188387
v -5.3897 -3.2765 -17.8861
vn 0.923326 -0.378167 -0.0667717
v -5.38693 -3.26741 -17.8913
vn 0.948382 -0.295909 -0.114062
v -5.38517 -3.258 -17.8964
vn 0.964304 -0.210801 -0.160253
v -5.38444 -3.24837 -17.9013
vn 0.970939 -0.123662 -0.204901
v -5.38474 -3.23861 -17.906
vn 0.968224 -0.0353333 -0.247576
v -5.38607 -3.22882 -17.9105
vn 0.956184 0.0533361 -0.287867
v -5.38841 -3.21907 -17.9146
vn 0.934936 0.141492 -0.325385
v -5.39176 -3.20948 -17.9184
vn 0.904683 0.228285 -0.359769
v -5.39606 -3.20014 -17.9219
vn 0.865718 0.31288 -0.390689
v -5.40129 -3.19112 -17.9249
vn 0.818416 0.394461 -0.417847
v -5.40739 -3.18253 -17.9274
vn 0.763232 0.472243 -0.44098
v -5.4143 -3.17443 -17.9295
vn 0.700698 0.545478 -0.459866
v -5.42195 -3.16692 -17.9311
vn 0.631415 0.613459 -0.474324
v -5.43028 -3.16006 -17.9322
vn 0.556052 0.675533 -0.484213
v -5.4392 -3.15392 -17.9328
vn 0.475333 0.7311 -0.489439
v -5.44862 -3.14856 -17.9328
vn 0.390037 0.779627 -0.489952
v -5.45846 -3.14403 -17.9324
vn 0.300984 0.820645 -0.485746
v -5.46862 -3.14037 -17.9314
vn 0.209033 0.853761 -0.476863
v -5.47901 -3.13762 -17.9299
vn 0.115069 0.878654 -0.463386
v -5.48951 -3.1358 -17.9279
vn 0.0199967 0.895085 -0.445447
v -5.50004 -3.13494 -17.9255
vn -0.0752683 0.902896 -0.423219
v -5.51049 -3.13504 -17.9225
vn -0.169808 0.902011 -0.396914
v -5.52075 -3.1361 -17.9192
vn -0.262713 0.89244 -0.366787
v -5.53074 -3.1381 -17.9155
vn -0.353088 0.874274 -0.333128
v -5.54035 -3.14104 -17.9114
vn -0.440062 0.847688 -0.29626
v -5.54949 -3.14488 -17.907
vn -0.522798 0.812939 -0.256539
v -5.55808 -3.14959 -17.9024
vn -0.6005 0.77036 -0.214348
v -5.56602 -3.15511 -17.8975
vn -0.672418 0.720363 -0.170092
v -5.57325 -3.1614 -17.8924
vn -0.73786 0.663428 -0.124198
v -5.5797 -3.1684 -17.8872
vn -0.796197 0.600104 -0.0771082
v -5.5853 -3.17603 -17.8819
vn -0.846866 0.531001 -0.0292757
v -5.59 -3.18424 -17.8766
vn -0.889379 0.456783 0.0188387
v -5.59375 -3.19292 -17.8713
vn -0.923326 0.378167 0.0667717
v -5.59652 -3.20201 -17.8661
vn -0.948382 0.295909 0.114062
v -5.59827 -3.21142 -17.861
vn -0.964304 0.210801 0.160253
v -5.59901 -3.22104 -17.856
vn -0.970939 0.123662 0.204901
v -5.59871 -3.2308 -17.8513
vn -0.968224 0.0353333 0.247576
v -5.59738 -3.2406 -17.8469
vn -0.956184 -0.0533361 0.287867
v -5.59503 -3.25034 -17.8427
vn -0.934936 -0.141492 0.325385
v -5.59169 -3.25993 -17.8389
vn -0.904683 -0.228285 0.359769
v -5.58738 -3.26928 -17.8355
vn -0.865718 -0.31288 0.390689
v -5.58215 -3.2783 -17.8325
vn -0.818416 -0.394461 0.417847
v -5.57606 -3.28689 -17.83
vn -0.763232 -0.472243 0.44098
v -5.56915 -3.29498 -17.8279
vn -0.700698 -0.545478 0.459866
v -5.56149 -3.30249 -17.8263
vn -0.631415 -0.613459 0.474324
v -5.55316 -3.30935 -17.8252
vn -0.556052 -0.675533 0.484213
v -5.54424 -3.31549 -17.8246
vn -0.475333 -0.7311 0.489439
v -5.53482 -3.32086 -17.8245
vn -0.390037 -0.779627 0.489952
v -5.52498 -3.32539 -17.825
vn -0.300984 -0.820645 0.485746
v -5.51482 -3.32905 -17.826
vn -0.209033 -0.853761 0.476863
v -5.50444 -3.3318 -17.8275
vn -0.115069 -0.878654 0.463386
v -5.49393 -3.33361 -17.8295
vn -0.0199967 -0.895085 0.445447
v -5.48341 -3.33448 -17.8319
vn 0.0752683 -0.902896 0.423219
v -5.47296 -3.33438 -17.8348
vn 0.169808 -0.902011 0.396914
v -6.29166 -4.76888 -20.8443
vn 0.256435 -0.903258 0.344043
v -6.28085 -4.7667 -20.8483
vn 0.34684 -0.88504 0.310493
v -6.27044 -4.7635 -20.8527
vn 0.433904 -0.858299 0.273953
v -6.26052 -4.75931 -20.8574
vn 0.51679 -0.823291 0.234774
v -6.2512 -4.75418 -20.8623
vn 0.594699 -0.780355 0.193335
v -6.24257 -4.74814 -20.8675
vn 0.666881 -0.729904 0.150034
v -6.2347 -4.74127 -20.8729
vn 0.73264 -0.672423 0.105287
v -6.22768 -4.73362 -20.8783
vn 0.791344 -0.608467 0.0595269
v -6.22157 -4.72527 -20.8839
vn 0.842426 -0.53865 0.0131934
v -6.21643 -4.71629 -20.8894
vn 0.885396 -0.463646 -0.0332673
v -6.21231 -4.70679 -20.895
vn 0.919838 -0.384177 -0.0794075
v -6.20925 -4.69684 -20.9004
vn 0.945422 -0.301008 -0.124783
v -6.20728 -4.68654 -20.9057
vn 0.961901 -0.214941 -0.168957
v -6.20641 -4.676 -20.9108
vn 0.969117 -0.126803 -0.211503
v -6.20667 -4.66531 -20.9156
vn 0.966999 -0.0374438 -0.252013
v -6.20803 -4.65458 -20.9202
vn 0.955569 0.0522757 -0.290096
v -6.2105 -4.64391 -20.9244
vn 0.934936 0.141492 -0.325385
v -6.21405 -4.6334 -20.9282
vn 0.905299 0.229345 -0.35754
v -6.21863 -4.62315 -20.9317
vn 0.866943 0.31499 -0.386252
v -6.22422 -4.61327 -20.9347
vn 0.820239 0.397601 -0.411244
v -6.23075 -4.60385 -20.9372
vn 0.765635 0.476383 -0.432276
v -6.23817 -4.59497 -20.9392
vn 0.703657 0.550578 -0.449145
v -6.24639 -4.58673 -20.9407
vn 0.634903 0.61947 -0.461688
v -6.25535 -4.5792 -20.9417
vn 0.560035 0.682396 -0.469784
v -6.26495 -4.57246 -20.9421
vn 0.479773 0.73875 -0.473357
v -6.2751 -4.56657 -20.942
vn 0.39489 0.78799 -0.472371
v -6.28571 -4.56159 -20.9413
vn 0.306205 0.82964 -0.466835
v -6.29667 -4.55756 -20.9401
vn 0.21457 0.863301 -0.456804
v -6.30788 -4.55453 -20.9384
vn 0.12087 0.888648 -0.442374
v -6.31923 -4.55252 -20.9361
vn 0.0260047 0.905437 -0.423683
v -6.33061 -4.55156 -20.9334
vn -0.0691106 0.913506 -0.400912
v -6.3419 -4.55165 -20.9302
vn -0.16356 0.912777 -0.37428
v -6.35301 -4.55278 -20.9266
vn -0.256435 0.903258 -0.344043
v -6.36383 -4.55496 -20.9226
vn -0.34684 0.88504 -0.310493
v -6.37424 -4.55816 -20.9182
vn -0.433904 0.858299 -0.273953
v -6.38416 -4.56235 -20.9135
vn -0.51679 0.823291 -0.234774
v -6.39348 -4.56749 -20.9086
vn -0.594699 0.780355 -0.193335
v -6.40211 -4.57352 -20.9034
vn -0.666881 0.729904 -0.150034
v -6.40998 -4.5804 -20.8981
vn -0.73264 0.672423 -0.105287
v -6.417 -4.58805 -20.8926
vn -0.791344 0.608467 -0.0595269
v -6.42311 -4.5964 -20.887
vn -0.842426 0.53865 -0.0131934
v -6.42825 -4.60537 -20.8815
vn -0.885396 0.463646 0.0332673
v -6.43237 -4.61488 -20.876
vn -0.919838 0.384177 0.0794075
v -6.43543 -4.62483 -20.8705
vn -0.945422 0.301008 0.124783
v -6.4374 -4.63512 -20.8653
vn -0.961901 0.214941 0.168957
v -6.43827 -4.64566 -20.8602
vn -0.969117 0.126803 0.211503
v -6.43801 -4.65635 -20.8553
vn -0.966999 0.0374438 0.252013
v -6.43664 -4.66709 -20.8508
vn -0.955569 -0.0522757 0.290096
v -6.43418 -4.67776 -20.8465
vn -0.934936 -0.141492 0.325385
v -6.43063 -4.68827 -20.8427
vn -0.905299 -0.229345 0.35754
v -6.42604 -4.69851 -20.8393
vn -0.866943 -0.31499 0.386252
v -6.42046 -4.70839 -20.8363
vn -0.820239 -0.397601 0.411244
v -6.41392 -4.71782 -20.8338
vn -0.765635 -0.476383 0.432276
v -6.40651 -4.72669 -20.8317
vn -0.703657 -0.550578 0.449145
v -6.39829 -4.73493 -20.8302
vn -0.634903 -0.61947 0.461688
v -6.38933 -4.74246 -20.8293
vn -0.560035 -0.682396 0.469784
v -6.37973 -4.7492 -20.8288
vn -0.479773 -0.73875 0.473357
v -6.36958 -4.75509 -20.829
vn -0.39489 -0.78799 0.472371
v -6.35897 -4.76007 -20.8296
vn -0.306205 -0.82964 0.466835
v -6.34801 -4.7641 -20.8308
vn -0.21457 -0.863301 0.456804
v -6.3368 -4.76713 -20.8325
vn -0.12087 -0.888648 0.442374
v -6.32545 -4.76914 -20.8348
vn -0.0260047 -0.905437 0.423683
v -6.31407 -4.77011 -20.8375
vn 0.0691106 -0.913506 0.400912
v -6.30277 -4.77002 -20.8407
vn 0.16356 -0.912777 0.37428
v -7.28585 -6.36928 -24.3968
vn 0.251762 -0.910741 0.327363
v -7.27421 -6.36693 -24.4012
vn 0.342189 -0.892487 0.293893
v -7.26299 -6.36347 -24.4058
vn 0.429321 -0.865638 0.257593
v -7.25231 -6.35894 -24.4108
vn 0.512319 -0.830452 0.218812
v -7.24226 -6.35338 -24.4161
vn 0.590382 -0.787269 0.177924
v -7.23294 -6.34685 -24.4216
vn 0.66276 -0.736503 0.135323
v -7.22444 -6.3394 -24.4272
vn 0.728755 -0.678645 0.0914179
v -7.21685 -6.33111 -24.433
vn 0.787732 -0.614251 0.0466327
v -7.21023 -6.32205 -24.4388
vn 0.839122 -0.543941 0.00139847
v -7.20466 -6.31233 -24.4446
vn 0.882431 -0.468393 -0.0438493
v -7.20017 -6.30202 -24.4504
vn 0.917242 -0.388335 -0.0886747
v -7.19683 -6.29123 -24.4561
vn 0.943219 -0.304536 -0.132646
v -7.19465 -6.28007 -24.4616
vn 0.960113 -0.217804 -0.17534
v -7.19367 -6.26863 -24.4668
vn 0.96776 -0.128975 -0.216346
v -7.19389 -6.25703 -24.4719
vn 0.966088 -0.0389037 -0.255267
v -7.1953 -6.24539 -24.4766
vn 0.955111 0.0515423 -0.291731
v -7.1979 -6.23381 -24.4809
vn 0.934936 0.141492 -0.325385
v -7.20165 -6.2224 -24.4848
vn 0.905757 0.230079 -0.355905
v -7.20653 -6.21128 -24.4883
vn 0.867855 0.31645 -0.382998
v -7.21249 -6.20056 -24.4913
vn 0.821595 0.399773 -0.406402
v -7.21946 -6.19033 -24.4938
vn 0.767423 0.479247 -0.425893
v -7.22739 -6.18069 -24.4958
vn 0.70586 0.554105 -0.441281
v -7.23619 -6.17174 -24.4972
vn 0.637499 0.623627 -0.452421
v -7.24578 -6.16356 -24.4981
vn 0.562999 0.687143 -0.459202
v -7.25607 -6.15624 -24.4984
vn 0.483077 0.744041 -0.461562
v -7.26696 -6.14983 -24.4981
vn 0.398502 0.793774 -0.459477
v -7.27834 -6.14441 -24.4973
vn 0.31009 0.835862 -0.452966
v -7.29011 -6.14003 -24.4959
vn 0.218691 0.869901 -0.442093
v -7.30215 -6.13673 -24.494
vn 0.125187 0.895562 -0.426963
v -7.31434 -6.13453 -24.4915
vn 0.0304763 0.912598 -0.407721
v -7.32657 -6.13347 -24.4885
vn -0.0645275 0.920845 -0.384552
v -7.33872 -6.13355 -24.485
vn -0.15891 0.920224 -0.35768
v -7.35068 -6.13477 -24.4811
vn -0.251762 0.910741 -0.327363
v -7.36232 -6.13712 -24.4768
vn -0.342189 0.892487 -0.293893
v -7.37354 -6.14058 -24.4722
vn -0.429321 0.865638 -0.257593
v -7.38422 -6.14511 -24.4672
vn -0.512319 0.830452 -0.218812
v -7.39427 -6.15067 -24.4619
vn -0.590382 0.787269 -0.177924
v -7.40359 -6.15721 -24.4564
vn -0.66276 0.736503 -0.135323
v -7.41209 -6.16465 -24.4508
vn -0.728755 0.678645 -0.0914179
v -7.41968 -6.17294 -24.445
vn -0.787732 0.614251 -0.0466327
v -7.42629 -6.182 -24.4392
vn -0.839122 0.543941 -0.00139847
v -7.43187 -6.19172 -24.4333
vn -0.882431 0.468393 0.0438493
v -7.43635 -6.20203 -24.4276
vn -0.917242 0.388335 0.0886747
v -7.4397 -6.21282 -24.4219
vn -0.943219 0.304536 0.132646
v -7.44187 -6.22398 -24.4164
vn -0.960113 0.217804 0.17534
v -7.44286 -6.23542 -24.4111
vn -0.96776 0.128975 0.216346
v -7.44264 -6.24702 -24.4061
vn -0.966088 0.0389037 0.255267
v -7.44123 -6.25866 -24.4014
vn -0.955111 -0.0515423 0.291731
v -7.43863 -6.27024 -24.3971
vn -0.934936 -0.141492 0.325385
v -7.43487 -6.28165 -24.3932
vn -0.905757 -0.230079 0.355905
v -7.42999 -6.29277 -24.3897
vn -0.867855 -0.31645 0.382998
v -7.42404 -6.30349 -24.3867
vn -0.821595 -0.399773 0.406402
v -7.41706 -6.31373 -24.3842
vn -0.767423 -0.479247 0.425893
v -7.40914 -6.32336 -24.3822
vn -0.70586 -0.554105 0.441281
v -7.40034 -6.33231 -24.3807
vn -0.637499 -0.623627 0.452421
v -7.39075 -6.34049 -24.3799
vn -0.562999 -0.687143 0.459202
v -7.38046 -6.34782 -24.3796
vn -0.483077 -0.744041 0.461562
v -7.36957 -6.35422 -24.3798
vn -0.398502 -0.793774 0.459477
v -7.35819 -6.35964 -24.3807
vn -0.31009 -0.835862 0.452966
v -7.34642 -6.36402 -24.3821
vn -0.218691 -0.869901 0.442093
v -7.33438 -6.36732 -24.384
vn -0.125187 -0.895562 0.426963
v -7.32219 -6.36952 -24.3865
vn -0.0304763 -0.912598 0.407721
v -7.30996 -6.37058 -24.3895
vn 0.0645275 -0.920845 0.384552
v -7.2978 -6.3705 -24.3929
vn 0.15891 -0.920224 0.35768
v -8.44528 -8.1346 -28.4959
vn 0.248154 -0.916206 0.314619
v -8.43281 -8.13208 -28.5005
vn 0.338599 -0.897926 0.281211
v -8.42079 -8.12837 -28.5055
vn 0.425783 -0.870998 0.245095
v -8.40934 -8.1235 -28.5108
vn 0.508866 -0.835682 0.206618
v -8.39856 -8.11752 -28.5164
vn 0.587049 -0.792318 0.166151
v -8.38856 -8.11049 -28.5222
vn 0.659578 -0.741323 0.124084
v -8.37944 -8.10248 -28.5281
vn 0.725755 -0.683189 0.0808224
v -8.37128 -8.09356 -28.5342
vn 0.784943 -0.618476 0.0367822
v -8.36416 -8.08381 -28.5403
vn 0.836571 -0.547806 -0.00761229
v -8.35815 -8.07334 -28.5464
vn 0.880142 -0.471861 -0.0519334
v -8.35331 -8.06225 -28.5525
vn 0.915238 -0.391371 -0.0957544
v -8.34969 -8.05063 -28.5584
vn 0.941519 -0.307112 -0.138653
v -8.34732 -8.03861 -28.5641
vn 0.958732 -0.219896 -0.180217
v -8.34622 -8.02629 -28.5696
vn 0.966713 -0.130561 -0.220045
v -8.3464 -8.0138 -28.5748
vn 0.965384 -0.0399699 -0.257753
v -8.34786 -8.00126 -28.5797
vn 0.954757 0.0510066 -0.29298
v -8.3506 -7.98878 -28.5841
vn 0.934936 0.141492 -0.325385
v -8.35457 -7.97649 -28.5882
vn 0.90611 0.230614 -0.354656
v -8.35975 -7.96451 -28.5917
vn 0.868559 0.317516 -0.380512
v -8.36608 -7.95295 -28.5948
vn 0.822642 0.40136 -0.402703
v -8.3735 -7.94193 -28.5973
vn 0.768804 0.481338 -0.421016
v -8.38195 -7.93154 -28.5993
vn 0.707561 0.556681 -0.435274
v -8.39133 -7.92189 -28.6007
vn 0.639504 0.626663 -0.445341
v -8.40156 -7.91308 -28.6015
vn 0.565288 0.69061 -0.451118
v -8.41254 -7.90518 -28.6017
vn 0.485628 0.747906 -0.452551
v -8.42417 -7.89827 -28.6013
vn 0.401291 0.797999 -0.449626
v -8.43633 -7.89242 -28.6003
vn 0.31309 0.840406 -0.442371
v -8.44891 -7.88769 -28.5987
vn 0.221873 0.874721 -0.430855
v -8.46178 -7.88412 -28.5965
vn 0.12852 0.900611 -0.41519
v -8.47482 -7.88175 -28.5938
vn 0.0339289 0.917828 -0.395526
v -8.4879 -7.8806 -28.5906
vn -0.060989 0.926205 -0.372054
v -8.50091 -7.88067 -28.5869
vn -0.155319 0.925663 -0.344998
v -8.51371 -7.88197 -28.5827
vn -0.248154 0.916206 -0.314619
v -8.52618 -7.88449 -28.5781
vn -0.338599 0.897926 -0.281211
v -8.5382 -7.88821 -28.5731
vn -0.425783 0.870998 -0.245095
v -8.54965 -7.89308 -28.5678
vn -0.508866 0.835682 -0.206618
v -8.56043 -7.89905 -28.5622
vn -0.587049 0.792318 -0.166151
v -8.57043 -7.90608 -28.5564
vn -0.659578 0.741323 -0.124084
v -8.57955 -7.9141 -28.5504
vn -0.725755 0.683189 -0.0808224
v -8.58771 -7.92302 -28.5444
vn -0.784943 0.618476 -0.0367822
v -8.59483 -7.93276 -28.5382
vn -0.836571 0.547806 0.00761229
v -8.60084 -7.94323 -28.5321
vn -0.880142 0.471861 0.0519334
v -8.60568 -7.95433 -28.5261
vn -0.915238 0.391371 0.0957544
v -8.6093 -7.96595 -28.5202
vn -0.941519 0.307112 0.138653
v -8.61167 -7.97797 -28.5144
vn -0.958732 0.219896 0.180217
v -8.61277 -7.99029 -28.509
vn -0.966713 0.130561 0.220045
v -8.61259 -8.00278 -28.5038
vn -0.965384 0.0399699 0.257753
v -8.61112 -8.01532 -28.4989
vn -0.954757 -0.0510066 0.29298
v -8.60839 -8.0278 -28.4944
vn -0.934936 -0.141492 0.325385
v -8.60442 -8.04008 -28.4904
vn -0.90611 -0.230614 0.354656
v -8.59924 -8.05206 -28.4868
vn -0.868559 -0.317516 0.380512
v -8.59291 -8.06362 -28.4838
vn -0.822642 -0.40136 0.402703
v -8.58549 -8.07465 -28.4812
vn -0.768804 -0.481338 0.421016
v -8.57704 -8.08504 -28.4793
vn -0.707561 -0.556681 0.435274
v -8.56766 -8.09468 -28.4779
vn -0.639504 -0.626663 0.445341
v -8.55743 -8.1035 -28.4771
vn -0.565288 -0.69061 0.451118
v -8.54645 -8.1114 -28.4769
vn -0.485628 -0.747906 0.452551
v -8.53482 -8.11831 -28.4773
vn -0.401291 -0.797999 0.449626
v -8.52266 -8.12415 -28.4783
vn -0.31309 -0.840406 0.442371
v -8.51008 -8.12888 -28.4799
vn -0.221873 -0.874721 0.430855
v -8.49721 -8.13245 -28.482
vn -0.12852 -0.900611 0.41519
v -8.48417 -8.13483 -28.4848
vn -0.0339289 -0.917828 0.395526
v -8.47109 -8.13598 -28.488
vn 0.060989 -0.926205 0.372054
v -8.45808 -8.13591 -28.4917
vn 0.155319 -0.925663 0.344998
v -9.76998 -10.0649 -33.1416
vn 0.245287 -0.920364 0.304573
v -9.75668 -10.0622 -33.1465
vn 0.335745 -0.902064 0.271213
v -9.74386 -10.0582 -33.1518
vn 0.422971 -0.875076 0.235241
v -9.73164 -10.053 -33.1574
vn 0.506122 -0.83966 0.197004
v -9.72013 -10.0466 -33.1633
vn 0.5844 -0.796159 0.156869
v -9.70945 -10.0391 -33.1694
vn 0.657049 -0.74499 0.115224
v -9.6997 -10.0306 -33.1757
vn 0.723371 -0.686646 0.0724689
v -9.69098 -10.021 -33.1821
vn 0.782726 -0.621689 0.029016
v -9.68336 -10.0106 -33.1885
vn 0.834543 -0.550746 -0.0147163
v -9.67693 -9.99937 -33.1949
vn 0.878323 -0.474498 -0.0583069
v -9.67174 -9.98749 -33.2012
vn 0.913645 -0.393681 -0.101336
v -9.66784 -9.97505 -33.2074
vn 0.940167 -0.309072 -0.143389
v -9.66527 -9.96218 -33.2134
vn 0.957635 -0.221487 -0.184061
v -9.66406 -9.94899 -33.2191
vn 0.965881 -0.131768 -0.222961
v -9.66421 -9.93562 -33.2245
vn 0.964824 -0.040781 -0.259713
v -9.66573 -9.92218 -33.2296
vn 0.954476 0.0505991 -0.293965
v -9.66861 -9.90882 -33.2342
vn 0.934936 0.141492 -0.325385
v -9.6728 -9.89566 -33.2383
vn 0.906391 0.231022 -0.353671
v -9.67828 -9.88283 -33.242
vn 0.869118 0.318327 -0.378552
v -9.68499 -9.87045 -33.2451
vn 0.823475 0.402567 -0.399787
v -9.69286 -9.85863 -33.2477
vn 0.769901 0.482929 -0.417171
v -9.70183 -9.84751 -33.2496
vn 0.708912 0.558641 -0.430538
v -9.7118 -9.83717 -33.251
vn 0.641097 0.628973 -0.439759
v -9.72267 -9.82772 -33.2517
vn 0.567107 0.693247 -0.444745
v -9.73435 -9.81925 -33.2518
vn 0.487655 0.750845 -0.445447
v -9.74672 -9.81185 -33.2513
vn 0.403508 0.801212 -0.44186
v -9.75966 -9.80558 -33.2501
vn 0.315474 0.843863 -0.434017
v -9.77305 -9.80051 -33.2484
vn 0.224402 0.878387 -0.421995
v -9.78675 -9.79668 -33.246
vn 0.131169 0.904452 -0.405908
v -9.80064 -9.79412 -33.2431
vn 0.0366727 0.921806 -0.385912
v -9.81458 -9.79288 -33.2396
vn -0.0581768 0.930283 -0.3622
v -9.82844 -9.79295 -33.2356
vn -0.152466 0.929801 -0.335
v -9.84209 -9.79434 -33.2311
vn -0.245287 0.920364 -0.304573
v -9.85538 -9.79703 -33.2262
vn -0.335745 0.902064 -0.271213
v -9.86821 -9.80099 -33.2209
vn -0.422971 0.875076 -0.235241
v -9.88043 -9.8062 -33.2153
vn -0.506122 0.83966 -0.197004
v -9.89193 -9.81259 -33.2094
vn -0.5844 0.796159 -0.156869
v -9.90261 -9.82011 -33.2033
vn -0.657049 0.74499 -0.115224
v -9.91236 -9.82869 -33.197
vn -0.723371 0.686646 -0.0724689
v -9.92109 -9.83824 -33.1906
vn -0.782726 0.621689 -0.029016
v -9.9287 -9.84867 -33.1842
vn -0.834543 0.550746 0.0147163
v -9.93514 -9.85987 -33.1778
vn -0.878323 0.474498 0.0583069
v -9.94033 -9.87175 -33.1714
vn -0.913645 0.393681 0.101336
v -9.94423 -9.88419 -33.1653
vn -0.940167 0.309072 0.143389
v -9.9468 -9.89706 -33.1593
vn -0.957635 0.221487 0.184061
v -9.94801 -9.91025 -33.1536
vn -0.965881 0.131768 0.222961
v -9.94785 -9.92363 -33.1482
vn -0.964824 0.040781 0.259713
v -9.94633 -9.93706 -33.1431
vn -0.954476 -0.0505991 0.293965
v -9.94346 -9.95042 -33.1385
vn -0.934936 -0.141492 0.325385
v -9.93926 -9.96358 -33.1344
vn -0.906391 -0.231022 0.353671
v -9.93378 -9.97641 -33.1307
vn -0.869118 -0.318327 0.378552
v -9.92708 -9.98879 -33.1276
vn -0.823475 -0.402567 0.399787
v -9.9192 -10.0006 -33.125
vn -0.769901 -0.482929 0.417171
v -9.91024 -10.0117 -33.1231
vn -0.708912 -0.558641 0.430538
v -9.90027 -10.0221 -33.1217
vn -0.641097 -0.628973 0.439759
v -9.88939 -10.0315 -33.121
vn -0.567107 -0.693247 0.444745
v -9.87771 -10.04 -33.1209
vn -0.487655 -0.750845 0.445447
v -9.86534 -10.0474 -33.1214
vn -0.403508 -0.801212 0.44186
v -9.8524 -10.0537 -33.1225
vn -0.315474 -0.843863 0.434017
v -9.83902 -10.0587 -33.1243
vn -0.224402 -0.878387 0.421995
v -9.82531 -10.0626 -33.1267
vn -0.131169 -0.904452 0.405908
v -9.81142 -10.0651 -33.1296
vn -0.0366727 -0.921806 0.385912
v -9.79748 -10.0664 -33.1331
vn 0.0581768 -0.930283 0.3622
v -9.78362 -10.0663 -33.1371
vn 0.152466 -0.929801 0.335
f 1 66 2 
f 1 65 66 
f 2 67 3 
f 2 66 67 
f 3 68 4 
f 3 67 68 
f 4 69 5 
f 4 68 69 
f 5 70 6 
f 5 69 70 
f 6 71 7 
f 6 70 71 
f 7 72 8 
f 7 71 72 
f 8 73 9 
f 8 72 73 
f 9 74 10 
f 9 73 74 
f 10 75 11 
f 10 74 75 
f 11 76 12 
f 11 75 76 
f 12 77 13 
f 12 76 77 
f 13 78 14 
f 13 77 78 
f 14 79 15 
f 14 78 79 
f 15 80 16 
f 15 79 80 
f 16 81 17 
f 16 80 81 
f 17 82 18 
f 17 81 82 
f 18 83 19 
f 18 82 83 
f 19 84 20 
f 19 83 84 
f 20 85 21 
f 20 84 85 
f 21 86 22 
f 21 85 86 
f 22 87 23 
f 22 86 87 
f 23 88 24 
f 23 87 88 
f 24 89 25 
f 24 88 89 
f 25 90 26 
f 25 89 90 
f 26 91 27 
f 26 90 91 
f 27 92 28 
f 27 91 92 
f 28 93 29 
f 28 92 93 
f 29 94 30 
f 29 93 94 
f 30 95 31 
f 30 94 95 
f 31 96 32 
f 31 95 96 
f 32 97 33 
f 32 96 97 
f 33 98 34 
f 33 97 98 
f 34 99 35 
f 34 98 99 
f 35 100 36 
f 35 99 100 
f 36 101 37 
f 36 100 101 
f 37 102 38 
f 37 101 102 
f 38 103 39 
f 38 102 103 
f 39 104 40 
f 39 103 104 
f 40 105 41 
f 40 104 105 
f 41 106 42 
f 41 105 106 
f 42 107 43 
f 42 106 107 
f 43 108 44 
f 43 107 108 
f 44 109 45 
f 44 108 109 
f 45 110 46 
f 45 109 110 
f 46 111 47 
f 46 110 111 
f 47 112 48 
f 47 111 112 
f 48 113 49 
f 48 112 113 
f 49 114 50 
f 49 113 114 
f 50 115 51 
f 50 114 115 
f 51 116 52 
f 51 115 116 
f 52 117 53 
f 52 116 117 
f 53 118 54 
f 53 117 118 
f 54 119 55 
f 54 118 119 
f 55 120 56 
f 55 119 120 
f 56 121 57 
f 56 120 121 
f 57 122 58 
f 57 121 122 
f 58 123 59 
f 58 122 123 
f 59 124 60 
f 59 123 124 
f 60 125 61 
f 60 124 125 
f 61 126 62 
f 61 125 126 
f 62 127 63 
f 62 126 127 
f 63 128 64 
f 63 127 128 
f 64 65 1 
f 64 128 65 
f 65 130 66 
f 65 129 130 
f 66 131 67 
f 66 130 131 
f 67 132 68 
f 67 131 132 
f 68 133 69 
f 68 132 133 
f 69 134 70 
f 69 133 134 
f 70 135 71 
f 70 134 135 
f 71 136 72 
f 71 135 136 
f 72 137 73 
f 72 136 137 
f 73 138 74 
f 73 137 138 
f 74 139 75 
f 74 138 139 
f 75 140 76 
f 75 139 140 
f 76 141 77 
f 76 140 141 
f 77 142 78 
f 77 141 142 
f 78 143 79 
f 78 142 143 
f 79 144 80 
f 79 143 144 
f 80 145 81 
f 80 144 145 
f 81 146 82 
f 81 145 146 
f 82 147 83 
f 82 146 147 
f 83 148 84 
f 83 147 148 
f 84 149 85 
f 84 148 149 
f 85 150 86 
f 85 149 150 
f 86 151 87 
f 86 150 151 
f 87 152 88 
f 87 151 152 
f 88 153 89 
f 88 152 153 
f 89 154 90 
f 89 153 154 
f 90 155 91 
f 90 154 155 
f 91 156 92 
f 91 155 156 
f 92 157 93 
f 92 156 157 
f 93 158 94 
f 93 157 158 
f 94 159 95 
f 94 158 159 
f 95 160 96 
f 95 159 160 
f 96 161 97 
f 96 160 161 
f 97 162 98 
f 97 161 162 
f 98 163 99 
f 98 162 163 
f 99 164 100 
f 99 163 164 
f 100 165 101 
f 100 164 165 
f 101 166 102 
f 101 165 166 
f 102 167 103 
f 102 166 167 
f 103 168 104 
f 103 167 168 
f 104 169 105 
f 104 168 169 
f 105 170 106 
f 105 169 170 
f 106 171 107 
f 106 170 171 
f 107 172 108 
f 107 171 172 
f 108 173 109 
f 108 172 173 
f 109 174 110 
f 109 173 174 
f 110 175 111 
f 110 174 175 
f 111 176 112 
f 111 175 176 
f 112 177 113 
f 112 176 177 
f 113 178 114 
f 113 177 178 
f 114 179 115 
f 114 178 179 
f 115 180 116 
f 115 179 180 
f 116 181 117 
f 116 180 181 
f 117 182 118 
f 117 181 182 
f 118 183 119 
f 118 182 183 
f 119 184 120 
f 119 183 184 
f 120 185 121 
f 120 184 185 
f 121 186 122 
f 121 185 186 
f 122 187 123 
f 122 186 187 
f 123 188 124 
f 123 187 188 
f 124 189 125 
f 124 188 189 
f 125 190 126 
f 125 189 190 
f 126 191 127 
f 126 190 191 
f 127 192 128 
f 127 191 192 
f 128 129 65 
f 128 192 129 
f 129 194 130 
f 129 193 194 
f 130 195 131 
f 130 194 195 
f 131 196 132 
f 131 195 196 
f 132 197 133 
f 132 196 197 
f 133 198 134 
f 133 197 198 
f 134 199 135 
f 134 198 199 
f 135 200 136 
f 135 199 200 
f 136 201 137 
f 136 200 201 
f 137 202 138 
f 137 201 202 
f 138 203 139 
f 138 202 203 
f 139 204 140 
f 139 203 204 
f 140 205 141 
f 140 204 205 
f 141 206 142 
f 141 205 206 
f 142 207 143 
f 142 206 207 
f 143 208 144 
f 143 207 208 
f 144 209 145 
f 144 208 209 
f 145 210 146 
f 145 209 210 
f 146 211 147 
f 146 210 211 
f 147 212 148 
f 147 211 212 
f 148 213 149 
f 148 212 213 
f 149 214 150 
f 149 213 214 
f 150 215 151 
f 150 214 215 
f 151 216 152 
f 151 215 216 
f 152 217 153 
f 152 216 217 
f 153 218 154 
f 153 217 218 
f 154 219 155 
f 154 218 219 
f 155 220 156 
f 155 219 220 
f 156 221 157 
f 156 220 221 
f 157 222 158 
f 157 221 222 
f 158 223 159 
f 158 222 223 
f 159 224 160 
f 159 223 224 
f 160 225 161 
f 160 224 225 
f 161 226 162 
f 161 225 226 
f 162 227 163 
f 162 226 227 
f 163 228 164 
f 163 227 228 
f 164 229 165 
f 164 228 229 
f 165 230 166 
f 165 229 230 
f 166 231 167 
f 166 230 231 
f 167 232 168 
f 167 231 232 
f 168 233 169 
f 168 232 233 
f 169 234 170 
f 169 233 234 
f 170 235 171 
f 170 234 235 
f 171 236 172 
f 171 235 236 
f 172 237 173 
f 172 236 237 
f 173 238 174 
f 173 237 238 
f 174 239 175 
f 174 238 239 
f 175 240 176 
f 175 239 240 
f 176 241 177 
f 176 240 241 
f 177 242 178 
f 177 241 242 
f 178 243 179 
f 178 242 243 
f 179 244 180 
f 179 243 244 
f 180 245 181 
f 180 244 245 
f 181 246 182 
f 181 245 246 
f 182 247 183 
f 182 246 247 
f 183 248 184 
f 183 247 248 
f 184 249 185 
f 184 248 249 
f 185 250 186 
f 185 249 250 
f 186 251 187 
f 186 250 251 
f 187 252 188 
f 187 251 252 
f 188 253 189 
f 188 252 253 
f 189 254 190 
f 189 253 254 
f 190 255 191 
f 190 254 255 
f 191 256 192 
f 191 255 256 
f 192 193 129 
f 192 256 193 
f 193 258 194 
f 193 257 258 
f 194 259 195 
f 194 258 259 
f 195 260 196 
f 195 259 260 
f 196 261 197 
f 196 260 261 
f 197 262 198 
f 197 261 262 
f 198 263 199 
f 198 262 263 
f 199 264 200 
f 199 263 264 
f 200 265 201 
f 200 264 265 
f 201 266 202 
f 201 265 266 
f 202 267 203 
f 202 266 267 
f 203 268 204 
f 203 267 268 
f 204 269 205 
f 204 268 269 
f 205 270 206 
f 205 269 270 
f 206 271 207 
f 206 270 271 
f 207 272 208 
f 207 271 272 
f 208 273 209 
f 208 272 273 
f 209 274 210 
f 209 273 274 
f 210 275 211 
f 210 274 275 
f 211 276 212 
f 211 275 276 
f 212 277 213 
f 212 276 277 
f 213 278 214 
f 213 277 278 
f 214 279 215 
f 214 278 279 
f 215 280 216 
f 215 279 280 
f 216 281 217 
f 216 280 281 
f 217 282 218 
f 217 281 282 
f 218 283 219 
f 218 282 283 
f 219 284 220 
f 219 283 284 
f 220 285 221 
f 220 284 285 
f 221 286 222 
f 221 285 286 
f 222 287 223 
f 222 286 287 
f 223 288 224 
f 223 287 288 
f 224 289 225 
f 224 288 289 
f 225 290 226 
f 225 289 290 
f 226 291 227 
f 226 290 291 
f 227 292 228 
f 227 291 292 
f 228 293 229 
f 228 292 293 
f 229 294 230 
f 229 293 294 
f 230 295 231 
f 230 294 295 
f 231 296 232 
f 231 295 296 
f 232 297 233 
f 232 296 297 
f 233 298 234 
f 233 297 298 
f 234 299 235 
f 234 298 299 
f 235 300 236 
f 235 299 300 
f 236 301 237 
f 236 300 301 
f 237 302 238 
f 237 301 302 
f 238 303 239 
f 238 302 303 
f 239 304 240 
f 239 303 304 
f 240 305 241 
f 240 304 305 
f 241 306 242 
f 241 305 306 
f 242 307 243 
f 242 306 307 
f 243 308 244 
f 243 307 308 
f 244 309 245 
f 244 308 309 
f 245 310 246 
f 245 309 310 
f 246 311 247 
f 246 310 311 
f 247 312 248 
f 247 311 312 
f 248 313 249 
f 248 312 313 
f 249 314 250 
f 249 313 314 
f 250 315 251 
f 250 314 315 
f 251 316 252 
f 251 315 316 
f 252 317 253 
f 252 316 317 
f 253 318 254 
f 253 317 318 
f 254 319 255 
f 254 318 319 
f 255 320 256 
f 255 319 320 
f 256 257 193 
f 256 320 257 
f 257 322 258 
f 257 321 322 
f 258 323 259 
f 258 322 323 
f 259 324 260 
f 259 323 324 
f 260 325 261 
f 260 324 325 
f 261 326 262 
f 261 325 326 
f 262 327 263 
f 262 326 327 
f 263 328 264 
f 263 327 328 
f 264 329 265 
f 264 328 329 
f 265 330 266 
f 265 329 330 
f 266 331 267 
f 266 330 331 
f 267 332 268 
f 267 331 332 
f 268 333 269 
f 268 332 333 
f 269 334 270 
f 269 333 334 
f 270 335 271 
f 270 334 335 
f 271 336 272 
f 271 335 336 
f 272 337 273 
f 272 336 337 
f 273 338 274 
f 273 337 338 
f 274 339 275 
f 274 338 339 
f 275 340 276 
f 275 339 340 
f 276 341 277 
f 276 340 341 
f 277 342 278 
f 277 341 342 
f 278 343 279 
f 278 342 343 
f 279 344 280 
f 279 343 344 
f 280 345 281 
f 280 344 345 
f 281 346 282 
f 281 345 346 
f 282 347 283 
f 282 346 347 
f 283 348 284 
f 283 347 348 
f 284 349 285 
f 284 348 349 
f 285 350 286 
f 285 349 350 
f 286 351 287 
f 286 350 351 
f 287 352 288 
f 287 351 352 
f 288 353 289 
f 288 352 353 
f 289 354 290 
f 289 353 354 
f 290 355 291 
f 290 354 355 
f 291 356 292 
f 291 355 356 
f 292 357 293 
f 292 356 357 
f 293 358 294 
f 293 357 358 
f 294 359 295 
f 294 358 359 
f 295 360 296 
f 295 359 360 
f 296 361 297 
f 296 360 361 
f 297 362 298 
f 297 361 362 
f 298 363 299 
f 298 362 363 
f 299 364 300 
f 299 363 364 
f 300 365 301 
f 300 364 365 
f 301 366 302 
f 301 365 366 
f 302 367 303 
f 302 366 367 
f 303 368 304 
f 303 367 368 
f 304 369 305 
f 304 368 369 
f 305 370 306 
f 305 369 370 
f 306 371 307 
f 306 370 371 
f 307 372 308 
f 307 371 372 
f 308 373 309 
f 308 372 373 
f 309 374 310 
f 309 373 374 
f 310 375 311 
f 310 374 375 
f 311 376 312 
f 311 375 376 
f 312 377 313 
f 312 376 377 
f 313 378 314 
f 313 377 378 
f 314 379 315 
f 314 378 379 
f 315 380 316 
f 315 379 380 
f 316 381 317 
f 316 380 381 
f 317 382 318 
f 317 381 382 
f 318 383 319 
f 318 382 383 
f 319 384 320 
f 319 383 384 
f 320 321 257 
f 320 384 321 
f 321 386 322 
f 321 385 386 
f 322 387 323 
f 322 386 387 
f 323 388 324 
f 323 387 388 
f 324 389 325 
f 324 388 389 
f 325 390 326 
f 325 389 390 
f 326 391 327 
f 326 390 391 
f 327 392 328 
f 327 391 392 
f 328 393 329 
f 328 392 393 
f 329 394 330 
f 329 393 394 
f 330 395 331 
f 330 394 395 
f 331 396 332 
f 331 395 396 
f 332 397 333 
f 332 396 397 
f 333 398 334 
f 333 397 398 
f 334 399 335 
f 334 398 399 
f 335 400 336 
f 335 399 400 
f 336 401 337 
f 336 400 401 
f 337 402 338 
f 337 401 402 
f 338 403 339 
f 338 402 403 
f 339 404 340 
f 339 403 404 
f 340 405 341 
f 340 404 405 
f 341 406 342 
f 341 405 406 
f 342 407 343 
f 342 406 407 
f 343 408 344 
f 343 407 408 
f 344 409 345 
f 344 408 409 
f 345 410 346 
f 345 409 410 
f 346 411 347 
f 346 410 411 
f 347 412 348 
f 347 411 412 
f 348 413 349 
f 348 412 413 
f 349 414 350 
f 349 413 414 
f 350 415 351 
f 350 414 415 
f 351 416 352 
f 351 415 416 
f 352 417 353 
f 352 416 417 
f 353 418 354 
f 353 417 418 
f 354 419 355 
f 354 418 419 
f 355 420 356 
f 355 419 420 
f 356 421 357 
f 356 420 421 
f 357 422 358 
f 357 421 422 
f 358 423 359 
f 358 422 423 
f 359 424 360 
f 359 423 424 
f 360 425 361 
f 360 424 425 
f 361 426 362 
f 361 425 426 
f 362 427 363 
f 362 426 427 
f 363 428 364 
f 363 427 428 
f 364 429 365 
f 364 428 429 
f 365 430 366 
f 365 429 430 
f 366 431 367 
f 366 430 431 
f 367 432 368 
f 367 431 432 
f 368 433 369 
f 368 432 433 
f 369 434 370 
f 369 433 434 
f 370 435 371 
f 370 434 435 
f 371 436 372 
f 371 435 436 
f 372 437 373 
f 372 436 437 
f 373 438 374 
f 373 437 438 
f 374 439 375 
f 374 438 439 
f 375 440 376 
f 375 439 440 
f 376 441 377 
f 376 440 441 
f 377 442 378 
f 377 441 442 
f 378 443 379 
f 378 442 443 
f 379 444 380 
f 379 443 444 
f 380 445 381 
f 380 444 445 
f 381 446 382 
f 381 445 446 
f 382 447 383 
f 382 446 447 
f 383 448 384 
f 383 447 448 
f 384 385 321 
f 384 448 385 
f 385 450 386 
f 385 449 450 
f 386 451 387 
f 386 450 451 
f 387 452 388 
f 387 451 452 
f 388 453 389 
f 388 452 453 
f 389 454 390 
f 389 453 454 
f 390 455 391 
f 390 454 455 
f 391 456 392 
f 391 455 456 
f 392 457 393 
f 392 456 457 
f 393 458 394 
f 393 457 458 
f 394 459 395 
f 394 458 459 
f 395 460 396 
f 395 459 460 
f 396 461 397 
f 396 460 461 
f 397 462 398 
f 397 461 462 
f 398 463 399 
f 398 462 463 
f 399 464 400 
f 399 463 464 
f 400 465 401 
f 400 464 465 
f 401 466 402 
f 401 465 466 
f 402 467 403 
f 402 466 467 
f 403 468 404 
f 403 467 468 
f 404 469 405 
f 404 468 469 
f 405 470 406 
f 405 469 470 
f 406 471 407 
f 406 470 471 
f 407 472 408 
f 407 471 472 
f 408 473 409 
f 408 472 473 
f 409 474 410 
f 409 473 474 
f 410 475 411 
f 410 474 475 
f 411 476 412 
f 411 475 476 
f 412 477 413 
f 412 476 477 
f 413 478 414 
f 413 477 478 
f 414 479 415 
f 414 478 479 
f 415 480 416 
f 415 479 480 
f 416 481 417 
f 416 480 481 
f 417 482 418 
f 417 481 482 
f 418 483 419 
f 418 482 483 
f 419 484 420 
f 419 483 484 
f 420 485 421 
f 420 484 485 
f 421 486 422 
f 421 485 486 
f 422 487 423 
f 422 486 487 
f 423 488 424 
f 423 487 488 
f 424 489 425 
f 424 488 489 
f 425 490 426 
f 425 489 490 
f 426 491 427 
f 426 490 491 
f 427 492 428 
f 427 491 492 
f 428 493 429 
f 428 492 493 
f 429 494 430 
f 429 493 494 
f 430 495 431 
f 430 494 495 
f 431 496 432 
f 431 495 496 
f 432 497 433 
f 432 496 497 
f 433 498 434 
f 433 497 498 
f 434 499 435 
f 434 498 499 
f 435 500 436 
f 435 499 500 
f 436 501 437 
f 436 500 501 
f 437 502 438 
f 437 501 502 
f 438 503 439 
f 438 502 503 
f 439 504 440 
f 439 503 504 
f 440 505 441 
f 440 504 505 
f 441 506 442 
f 441 505 506 
f 442 507 443 
f 442 506 507 
f 443 508 444 
f 443 507 508 
f 444 509 445 
f 444 508 509 
f 445 510 446 
f 445 509 510 
f 446 511 447 
f 446 510 511 
f 447 512 448 
f 447 511 512 
f 448 449 385 
f 448 512 449 
f 449 514 450 
f 449 513 514 
f 450 515 451 
f 450 514 515 
f 451 516 452 
f 451 515 516 
f 452 517 453 
f 452 516 517 
f 453 518 454 
f 453 517 518 
f 454 519 455 
f 454 518 519 
f 455 520 456 
f 455 519 520 
f 456 521 457 
f 456 520 521 
f 457 522 458 
f 457 521 522 
f 458 523 459 
f 458 522 523 
f 459 524 460 
f 459 523 524 
f 460 525 461 
f 460 524 525 
f 461 526 462 
f 461 525 526 
f 462 527 463 
f 462 526 527 
f 463 528 464 
f 463 527 528 
f 464 529 465 
f 464 528 529 
f 465 530 466 
f 465 529 530 
f 466 531 467 
f 466 530 531 
f 467 532 468 
f 467 531 532 
f 468 533 469 
f 468 532 533 
f 469 534 470 
f 469 533 534 
f 470 535 471 
f 470 534 535 
f 471 536 472 
f 471 535 536 
f 472 537 473 
f 472 536 537 
f 473 538 474 
f 473 537 538 
f 474 539 475 
f 474 538 539 
f 475 540 476 
f 475 539 540 
f 476 541 477 
f 476 540 541 
f 477 542 478 
f 477 541 542 
f 478 543 479 
f 478 542 543 
f 479 544 480 
f 479 543 544 
f 480 545 481 
f 480 544 545 
f 481 546 482 
f 481 545 546 
f 482 547 483 
f 482 546 547 
f 483 548 484 
f 483 547 548 
f 484 549 485 
f 484 548 549 
f 485 550 486 
f 485 549 550 
f 486 551 487 
f 486 550 551 
f 487 552 488 
f 487 551 552 
f 488 553 489 
f 488 552 553 
f 489 554 490 
f 489 553 554 
f 490 555 491 
f 490 554 555 
f 491 556 492 
f 491 555 556 
f 492 557 493 
f 492 556 557 
f 493 558 494 
f 493 557 558 
f 494 559 495 
f 494 558 559 
f 495 560 496 
f 495 559 560 
f 496 561 497 
f 496 560 561 
f 497 562 498 
f 497 561 562 
f 498 563 499 
f 498 562 563 
f 499 564 500 
f 499 563 564 
f 500 565 501 
f 500 564 565 
f 501 566 502 
f 501 565 566 
f 502 567 503 
f 502 566 567 
f 503 568 504 
f 503 567 568 
f 504 569 505 
f 504 568 569 
f 505 570 506 
f 505 569 570 
f 506 571 507 
f 506 570 571 
f 507 572 508 
f 507 571 572 
f 508 573 509 
f 508 572 573 
f 509 574 510 
f 509 573 574 
f 510 575 511 
f 510 574 575 
f 511 576 512 
f 511 575 576 
f 512 513 449 
f 512 576 513 
f 513 578 514 
f 513 577 578 
f 514 579 515 
f 514 578 579 
f 515 580 516 
f 515 579 580 
f 516 581 517 
f 516 580 581 
f 517 582 518 
f 517 581 582 
f 518 583 519 
f 518 582 583 
f 519 584 520 
f 519 583 584 
f 520 585 521 
f 520 584 585 
f 521 586 522 
f 521 585 586 
f 522 587 523 
f 522 586 587 
f 523 588 524 
f 523 587 588 
f 524 589 525 
f 524 588 589 
f 525 590 526 
f 525 589 590 
f 526 591 527 
f 526 590 591 
f 527 592 528 
f 527 591 592 
f 528 593 529 
f 528 592 593 
f 529 594 530 
f 529 593 594 
f 530 595 531 
f 530 594 595 
f 531 596 532 
f 531 595 596 
f 532 597 533 
f 532 596 597 
f 533 598 534 
f 533 597 598 
f 534 599 535 
f 534 598 599 
f 535 600 536 
f 535 599 600 
f 536 601 537 
f 536 600 601 
f 537 602 538 
f 537 601 602 
f 538 603 539 
f 538 602 603 
f 539 604 540 
f 539 603 604 
f 540 605 541 
f 540 604 605 
f 541 606 542 
f 541 605 606 
f 542 607 543 
f 542 606 607 
f 543 608 544 
f 543 607 608 
f 544 609 545 
f 544 608 609 
f 545 610 546 
f 545 609 610 
f 546 611 547 
f 546 610 611 
f 547 612 548 
f 547 611 612 
f 548 613 549 
f 548 612 613 
f 549 614 550 
f 549 613 614 
f 550 615 551 
f 550 614 615 
f 551 616 552 
f 551 615 616 
f 552 617 553 
f 552 616 617 
f 553 618 554 
f 553 617 618 
f 554 619 555 
f 554 618 619 
f 555 620 556 
f 555 619 620 
f 556 621 557 
f 556 620 621 
f 557 622 558 
f 557 621 622 
f 558 623 559 
f 558 622 623 
f 559 624 560 
f 559 623 624 
f 560 625 561 
f 560 624 625 
f 561 626 562 
f 561 625 626 
f 562 627 563 
f 562 626 627 
f 563 628 564 
f 563 627 628 
f 564 629 565 
f 564 628 629 
f 565 630 566 
f 565 629 630 
f 566 631 567 
f 566 630 631 
f 567 632 568 
f 567 631 632 
f 568 633 569 
f 568 632 633 
f 569 634 570 
f 569 633 634 
f 570 635 571 
f 570 634 635 
f 571 636 572 
f 571 635 636 
f 572 637 573 
f 572 636 637 
f 573 638 574 
f 573 637 638 
f 574 639 575 
f 574 638 639 
f 575 640 576 
f 575 639 640 
f 576 577 513 
f 576 640 577 
