# Branch
v -12.6757 -3.55314 -27.4804
vn 0.794773 -0.0450411 0.605233
v -12.673 -3.53969 -27.4841
vn 0.813148 0.0480178 0.580074
v -12.6715 -3.5263 -27.4885
vn 0.823691 0.140614 0.549328
v -12.6711 -3.51312 -27.4937
vn 0.826301 0.231856 0.513292
v -12.6719 -3.50025 -27.4996
vn 0.820954 0.320866 0.472313
v -12.6738 -3.48783 -27.5062
vn 0.807701 0.406785 0.426785
v -12.6768 -3.47598 -27.5134
vn 0.786669 0.488787 0.377147
v -12.681 -3.46481 -27.5211
vn 0.758061 0.566081 0.323877
v -12.6862 -3.45443 -27.5292
vn 0.722152 0.637924 0.267488
v -12.6924 -3.44493 -27.5378
vn 0.679289 0.703623 0.208522
v -12.6995 -3.43642 -27.5466
vn 0.629884 0.762546 0.147549
v -12.7075 -3.42896 -27.5556
vn 0.574412 0.814125 0.0851545
v -12.7163 -3.42264 -27.5647
vn 0.513409 0.857864 0.02194
v -12.7259 -3.41751 -27.5739
vn 0.447461 0.893341 -0.0414859
v -12.736 -3.41363 -27.583
vn 0.377204 0.920214 -0.104512
v -12.7467 -3.41103 -27.592
vn 0.303315 0.938226 -0.166532
v -12.7578 -3.40973 -27.6007
vn 0.226504 0.947201 -0.226948
v -12.7692 -3.40975 -27.6091
vn 0.147512 0.947055 -0.285178
v -12.7808 -3.41109 -27.6171
vn 0.0670992 0.937788 -0.340662
v -12.7926 -3.41373 -27.6247
vn -0.0139597 0.91949 -0.392865
v -12.8043 -3.41766 -27.6317
vn -0.0948842 0.892337 -0.441285
v -12.8158 -3.42282 -27.6381
vn -0.174895 0.856589 -0.485455
v -12.8271 -3.42918 -27.6438
vn -0.253221 0.812593 -0.52495
v -12.8381 -3.43667 -27.6487
vn -0.329109 0.76077 -0.559389
v -12.8486 -3.44522 -27.6529
vn -0.401827 0.701621 -0.588441
v -12.8586 -3.45475 -27.6563
vn -0.470676 0.635715 -0.611825
v -12.8679 -3.46516 -27.6588
vn -0.534991 0.563687 -0.629318
v -12.8764 -3.47635 -27.6605
vn -0.594154 0.48623 -0.64075
v -12.8841 -3.48822 -27.6613
vn -0.647596 0.404091 -0.646011
v -12.891 -3.50066 -27.6611
vn -0.6948 0.31806 -0.645051
v -12.8968 -3.51353 -27.6601
vn -0.735313 0.228965 -0.637879
v -12.9016 -3.52673 -27.6582
vn -0.768745 0.137666 -0.624563
v -12.9054 -3.54012 -27.6554
vn -0.794773 0.0450411 -0.605233
v -12.9081 -3.55357 -27.6517
vn -0.813148 -0.0480178 -0.580074
v -12.9096 -3.56695 -27.6473
vn -0.823691 -0.140614 -0.549328
v -12.91 -3.58014 -27.6421
vn -0.826301 -0.231856 -0.513292
v -12.9092 -3.593 -27.6362
vn -0.820954 -0.320866 -0.472313
v -12.9073 -3.60542 -27.6296
vn -0.807701 -0.406785 -0.426785
v -12.9042 -3.61727 -27.6224
vn -0.786669 -0.488787 -0.377147
v -12.9001 -3.62844 -27.6147
vn -0.758061 -0.566081 -0.323877
v -12.8949 -3.63882 -27.6065
vn -0.722152 -0.637924 -0.267488
v -12.8887 -3.64832 -27.598
vn -0.679289 -0.703623 -0.208522
v -12.8816 -3.65684 -27.5892
vn -0.629884 -0.762546 -0.147549
v -12.8736 -3.66429 -27.5802
vn -0.574412 -0.814125 -0.0851545
v -12.8647 -3.67061 -27.5711
vn -0.513409 -0.857864 -0.02194
v -12.8552 -3.67574 -27.5619
vn -0.447461 -0.893341 0.0414859
v -12.8451 -3.67962 -27.5528
vn -0.377204 -0.920214 0.104512
v -12.8344 -3.68223 -27.5438
vn -0.303315 -0.938226 0.166532
v -12.8233 -3.68352 -27.5351
vn -0.226504 -0.947201 0.226948
v -12.8119 -3.6835 -27.5267
vn -0.147512 -0.947055 0.285178
v -12.8002 -3.68216 -27.5187
vn -0.0670992 -0.937788 0.340662
v -12.7885 -3.67952 -27.5111
vn 0.0139597 -0.91949 0.392865
v -12.7768 -3.67559 -27.5041
vn 0.0948842 -0.892337 0.441285
v -12.7653 -3.67043 -27.4977
vn 0.174895 -0.856589 0.485455
v -12.7539 -3.66407 -27.492
vn 0.253221 -0.812593 0.52495
v -12.743 -3.65658 -27.487
vn 0.329109 -0.76077 0.559389
v -12.7325 -3.64803 -27.4828
vn 0.401827 -0.701621 0.588441
v -12.7225 -3.6385 -27.4795
vn 0.470676 -0.635715 0.611825
v -12.7132 -3.62809 -27.4769
vn 0.534991 -0.563687 0.629318
v -12.7047 -3.6169 -27.4753
vn 0.594154 -0.48623 0.64075
v -12.6969 -3.60503 -27.4745
vn 0.647596 -0.404091 0.646011
v -12.6901 -3.59259 -27.4747
vn 0.6948 -0.31806 0.645051
v -12.6843 -3.57972 -27.4757
vn 0.735313 -0.228965 0.637879
v -12.6794 -3.56652 -27.4776
vn 0.768745 -0.137666 0.624563
v -12.4516 -3.68988 -27.8275
vn 0.859342 -0.0846539 0.504345
v -12.4489 -3.67611 -27.8311
vn 0.877406 0.00859571 0.479672
v -12.4475 -3.66235 -27.8355
vn 0.887019 0.101763 0.450379
v -12.4473 -3.64874 -27.8404
vn 0.88809 0.193949 0.416749
v -12.4484 -3.6354 -27.846
vn 0.880608 0.284268 0.379105
v -12.4508 -3.62246 -27.8521
vn 0.864646 0.37185 0.33781
v -12.4544 -3.61006 -27.8587
vn 0.840356 0.45585 0.293262
v -12.4592 -3.5983 -27.8657
vn 0.807973 0.53546 0.24589
v -12.4651 -3.58731 -27.873
vn 0.767809 0.609913 0.19615
v -12.4721 -3.57718 -27.8806
vn 0.720251 0.678493 0.14452
v -12.4802 -3.56802 -27.8885
vn 0.665756 0.740538 0.091499
v -12.4892 -3.55991 -27.8964
vn 0.60485 0.795452 0.0375966
v -12.499 -3.55293 -27.9044
vn 0.538118 0.842704 -0.0166679
v -12.5096 -3.54715 -27.9124
vn 0.466205 0.881842 -0.0707719
v -12.5209 -3.54262 -27.9203
vn 0.389801 0.912486 -0.124194
v -12.5328 -3.5394 -27.928
vn 0.309644 0.934343 -0.176421
v -12.545 -3.5375 -27.9355
vn 0.226504 0.947201 -0.226948
v -12.5576 -3.53695 -27.9426
vn 0.141183 0.950938 -0.27529
v -12.5704 -3.53775 -27.9494
vn 0.0545024 0.945516 -0.32098
v -12.5833 -3.53989 -27.9557
vn -0.0327032 0.930989 -0.363579
v -12.5961 -3.54336 -27.9614
vn -0.119594 0.907496 -0.402677
v -12.6088 -3.54812 -27.9666
vn -0.205333 0.875263 -0.437897
v -12.6212 -3.55413 -27.9712
vn -0.289094 0.8346 -0.4689
v -12.6331 -3.56132 -27.9751
vn -0.370071 0.7859 -0.495387
v -12.6446 -3.56963 -27.9783
vn -0.447484 0.729632 -0.517103
v -12.6554 -3.57898 -27.9808
vn -0.520588 0.666337 -0.533839
v -12.6654 -3.58927 -27.9825
vn -0.588678 0.596624 -0.545433
v -12.6746 -3.60041 -27.9834
vn -0.651099 0.521166 -0.551775
v -12.6829 -3.6123 -27.9836
vn -0.70725 0.440688 -0.552804
v -12.6902 -3.62481 -27.983
vn -0.756589 0.355967 -0.548508
v -12.6964 -3.63783 -27.9816
vn -0.798642 0.267817 -0.53893
v -12.7015 -3.65123 -27.9794
vn -0.833003 0.177088 -0.524162
v -12.7054 -3.66488 -27.9764
vn -0.859342 0.0846539 -0.504345
v -12.7081 -3.67865 -27.9728
vn -0.877406 -0.00859571 -0.479672
v -12.7095 -3.69241 -27.9685
vn -0.887019 -0.101763 -0.450379
v -12.7096 -3.70602 -27.9635
vn -0.88809 -0.193949 -0.416749
v -12.7085 -3.71936 -27.9579
vn -0.880608 -0.284268 -0.379105
v -12.7062 -3.73229 -27.9519
vn -0.864646 -0.37185 -0.33781
v -12.7026 -3.7447 -27.9453
vn -0.840356 -0.45585 -0.293262
v -12.6978 -3.75645 -27.9383
vn -0.807973 -0.53546 -0.24589
v -12.6919 -3.76745 -27.9309
vn -0.767809 -0.609913 -0.19615
v -12.6848 -3.77758 -27.9233
vn -0.720251 -0.678493 -0.14452
v -12.6768 -3.78674 -27.9155
vn -0.665756 -0.740538 -0.091499
v -12.6678 -3.79485 -27.9075
vn -0.60485 -0.795452 -0.0375966
v -12.6579 -3.80183 -27.8995
vn -0.538118 -0.842704 0.0166679
v -12.6473 -3.80761 -27.8915
vn -0.466205 -0.881842 0.0707719
v -12.636 -3.81213 -27.8836
vn -0.389801 -0.912486 0.124194
v -12.6242 -3.81536 -27.8759
vn -0.309644 -0.934343 0.176421
v -12.6119 -3.81726 -27.8684
vn -0.226504 -0.947201 0.226948
v -12.5993 -3.81781 -27.8613
vn -0.141183 -0.950938 0.27529
v -12.5865 -3.81701 -27.8546
vn -0.0545024 -0.945516 0.32098
v -12.5736 -3.81487 -27.8483
vn 0.0327032 -0.930989 0.363579
v -12.5608 -3.8114 -27.8425
vn 0.119594 -0.907496 0.402677
v -12.5482 -3.80664 -27.8373
vn 0.205333 -0.875263 0.437897
v -12.5358 -3.80063 -27.8327
vn 0.289094 -0.8346 0.4689
v -12.5238 -3.79344 -27.8288
vn 0.370071 -0.7859 0.495387
v -12.5124 -3.78513 -27.8256
vn 0.447484 -0.729632 0.517103
v -12.5016 -3.77578 -27.8231
vn 0.520588 -0.666337 0.533839
v -12.4915 -3.76549 -27.8214
vn 0.588678 -0.596624 0.545433
v -12.4823 -3.75434 -27.8205
vn 0.651099 -0.521166 0.551775
v -12.474 -3.74246 -27.8203
vn 0.70725 -0.440688 0.552804
v -12.4667 -3.72995 -27.821
vn 0.756589 -0.355967 0.548508
v -12.4605 -3.71693 -27.8224
vn 0.798642 -0.267817 0.53893
v -12.4555 -3.70353 -27.8246
vn 0.833003 -0.177088 0.524162
v -12.2502 -3.8368 -28.2397
vn 0.901085 -0.115317 0.418028
v -12.2475 -3.82272 -28.2434
vn 0.918947 -0.0219201 0.39377
v -12.2462 -3.8086 -28.2476
vn 0.92796 0.0716883 0.36572
v -12.2461 -3.79458 -28.2524
vn 0.928035 0.164606 0.334148
v -12.2475 -3.78081 -28.2576
vn 0.919173 0.255939 0.299358
v -12.2501 -3.7674 -28.2633
vn 0.901459 0.344807 0.261685
v -12.2541 -3.7545 -28.2694
vn 0.875064 0.430354 0.221492
v -12.2594 -3.74222 -28.2757
vn 0.840241 0.511757 0.179166
v -12.2659 -3.73069 -28.2824
vn 0.797326 0.588231 0.135114
v -12.2735 -3.72001 -28.2892
vn 0.746732 0.65904 0.089761
v -12.2822 -3.71028 -28.2962
vn 0.688947 0.723502 0.0435436
v -12.2919 -3.70161 -28.3032
vn 0.624527 0.780997 -0.00309321
v -12.3025 -3.69407 -28.3103
vn 0.554093 0.83097 -0.0497002
v -12.314 -3.68774 -28.3172
vn 0.478322 0.87294 -0.0958285
v -12.3261 -3.68268 -28.324
vn 0.397945 0.906504 -0.141034
v -12.3388 -3.67894 -28.3306
vn 0.313735 0.931337 -0.184881
v -12.352 -3.67654 -28.337
vn 0.226504 0.947201 -0.226948
v -12.3654 -3.67553 -28.343
vn 0.137091 0.953943 -0.266829
v -12.3791 -3.6759 -28.3486
vn 0.0463588 0.951499 -0.30414
v -12.3929 -3.67765 -28.3538
vn -0.0448204 0.93989 -0.338523
v -12.4066 -3.68076 -28.3585
vn -0.135568 0.91923 -0.369645
v -12.4201 -3.68521 -28.3627
vn -0.22501 0.889717 -0.397207
v -12.4332 -3.69096 -28.3663
vn -0.312285 0.851636 -0.420944
v -12.4459 -3.69794 -28.3692
vn -0.396552 0.805353 -0.440627
v -12.4581 -3.70609 -28.3715
vn -0.477001 0.751314 -0.456067
v -12.4695 -3.71533 -28.3732
vn -0.552856 0.69004 -0.467114
v -12.4801 -3.72558 -28.3742
vn -0.623386 0.62212 -0.473663
v -12.4899 -3.73672 -28.3745
vn -0.687913 0.548209 -0.47565
v -12.4986 -3.74867 -28.3741
vn -0.745815 0.469018 -0.473057
v -12.5063 -3.76129 -28.373
vn -0.796534 0.38531 -0.465907
v -12.5127 -3.77448 -28.3713
vn -0.839582 0.297891 -0.454271
v -12.518 -3.7881 -28.3689
vn -0.874545 0.207604 -0.43826
v -12.522 -3.80202 -28.3658
vn -0.901085 0.115317 -0.418028
v -12.5247 -3.8161 -28.3622
vn -0.918947 0.0219201 -0.39377
v -12.5261 -3.83022 -28.3579
vn -0.92796 -0.0716883 -0.36572
v -12.5261 -3.84424 -28.3532
vn -0.928035 -0.164606 -0.334148
v -12.5248 -3.85801 -28.3479
vn -0.919173 -0.255939 -0.299358
v -12.5221 -3.87142 -28.3422
vn -0.901459 -0.344807 -0.261685
v -12.5181 -3.88432 -28.3362
vn -0.875064 -0.430354 -0.221492
v -12.5128 -3.8966 -28.3298
vn -0.840241 -0.511757 -0.179166
v -12.5064 -3.90813 -28.3231
vn -0.797326 -0.588231 -0.135114
v -12.4987 -3.91881 -28.3163
vn -0.746732 -0.65904 -0.089761
v -12.49 -3.92853 -28.3093
vn -0.688947 -0.723502 -0.0435436
v -12.4803 -3.93721 -28.3023
vn -0.624527 -0.780997 0.00309321
v -12.4697 -3.94474 -28.2953
vn -0.554093 -0.83097 0.0497002
v -12.4583 -3.95107 -28.2883
vn -0.478322 -0.87294 0.0958285
v -12.4461 -3.95614 -28.2815
vn -0.397945 -0.906504 0.141034
v -12.4334 -3.95988 -28.2749
vn -0.313735 -0.931337 0.184881
v -12.4203 -3.96227 -28.2685
vn -0.226504 -0.947201 0.226948
v -12.4068 -3.96329 -28.2625
vn -0.137091 -0.953943 0.266829
v -12.3931 -3.96292 -28.2569
vn -0.0463588 -0.951499 0.30414
v -12.3794 -3.96117 -28.2517
vn 0.0448204 -0.93989 0.338523
v -12.3657 -3.95806 -28.247
vn 0.135568 -0.91923 0.369645
v -12.3522 -3.9536 -28.2429
vn 0.22501 -0.889717 0.397207
v -12.339 -3.94786 -28.2393
vn 0.312285 -0.851636 0.420944
v -12.3263 -3.94088 -28.2363
vn 0.396552 -0.805353 0.440627
v -12.3142 -3.93273 -28.234
vn 0.477001 -0.751314 0.456067
v -12.3027 -3.92349 -28.2323
vn 0.552856 -0.69004 0.467114
v -12.2921 -3.91324 -28.2313
vn 0.623386 -0.62212 0.473663
v -12.2824 -3.9021 -28.231
vn 0.687913 -0.548209 0.47565
v -12.2736 -3.89015 -28.2314
vn 0.745815 -0.469018 0.473057
v -12.266 -3.87753 -28.2325
vn 0.796534 -0.38531 0.465907
v -12.2595 -3.86434 -28.2342
vn 0.839582 -0.297891 0.454271
v -12.2542 -3.85072 -28.2367
vn 0.874545 -0.207604 0.43826
v -12.0706 -3.99413 -28.717
vn 0.927957 -0.139055 0.345774
v -12.0678 -3.97973 -28.7207
vn 0.94569 -0.0455436 0.321864
v -12.0665 -3.96526 -28.7249
vn 0.954315 0.0484066 0.294855
v -12.0666 -3.95087 -28.7295
vn 0.95375 0.141891 0.265006
v -12.0681 -3.93668 -28.7345
vn 0.944 0.234008 0.232604
v -12.071 -3.92285 -28.7398
vn 0.925158 0.323872 0.197963
v -12.0753 -3.90949 -28.7454
vn 0.897407 0.410617 0.161415
v -12.0809 -3.89674 -28.7513
vn 0.861013 0.493407 0.123313
v -12.0877 -3.88473 -28.7573
vn 0.816327 0.571446 0.0840227
v -12.0958 -3.87356 -28.7635
vn 0.76378 0.643981 0.0439236
v -12.1051 -3.86334 -28.7698
vn 0.703876 0.710314 0.0034014
v -12.1153 -3.85418 -28.776
vn 0.637195 0.769807 -0.0371535
v -12.1265 -3.84616 -28.7822
vn 0.564376 0.821886 -0.0773506
v -12.1386 -3.83936 -28.7883
vn 0.486122 0.86605 -0.116803
v -12.1514 -3.83385 -28.7942
vn 0.403187 0.901873 -0.15513
v -12.1647 -3.82967 -28.7998
vn 0.316369 0.929011 -0.191963
v -12.1786 -3.82687 -28.8052
vn 0.226504 0.947201 -0.226948
v -12.1927 -3.82547 -28.8103
vn 0.134458 0.95627 -0.259747
v -12.2071 -3.82549 -28.8149
vn 0.0411163 0.95613 -0.290044
v -12.2215 -3.82693 -28.8192
vn -0.0526209 0.946781 -0.317549
v -12.2359 -3.82977 -28.8229
vn -0.145851 0.928314 -0.341995
v -12.25 -3.83399 -28.8262
vn -0.237677 0.900907 -0.363147
v -12.2638 -3.83955 -28.8289
vn -0.327214 0.864824 -0.380802
v -12.2771 -3.84639 -28.8311
vn -0.4136 0.820412 -0.39479
v -12.2898 -3.85444 -28.8326
vn -0.496002 0.768099 -0.404976
v -12.3018 -3.86364 -28.8336
vn -0.573628 0.708389 -0.411261
v -12.3129 -3.87388 -28.834
vn -0.645729 0.641857 -0.413586
v -12.323 -3.88508 -28.8337
vn -0.711612 0.569143 -0.411928
v -12.3321 -3.89712 -28.8328
vn -0.770641 0.490948 -0.406303
v -12.3401 -3.90989 -28.8314
vn -0.822249 0.408026 -0.396765
v -12.3468 -3.92326 -28.8293
vn -0.865938 0.321173 -0.383405
v -12.3522 -3.93711 -28.8267
vn -0.901287 0.231228 -0.366354
v -12.3563 -3.9513 -28.8235
vn -0.927957 0.139055 -0.345774
v -12.3591 -3.9657 -28.8198
vn -0.94569 0.0455436 -0.321864
v -12.3604 -3.98017 -28.8157
vn -0.954315 -0.0484066 -0.294855
v -12.3603 -3.99457 -28.8111
vn -0.95375 -0.141891 -0.265006
v -12.3588 -4.00875 -28.8061
vn -0.944 -0.234008 -0.232604
v -12.3559 -4.02259 -28.8008
vn -0.925158 -0.323872 -0.197963
v -12.3516 -4.03594 -28.7951
vn -0.897407 -0.410617 -0.161415
v -12.346 -4.04869 -28.7893
vn -0.861013 -0.493407 -0.123313
v -12.3391 -4.06071 -28.7832
vn -0.816327 -0.571446 -0.0840227
v -12.3311 -4.07188 -28.777
vn -0.76378 -0.643981 -0.0439236
v -12.3218 -4.08209 -28.7708
vn -0.703876 -0.710314 -0.0034014
v -12.3116 -4.09125 -28.7646
vn -0.637195 -0.769807 0.0371535
v -12.3003 -4.09927 -28.7584
vn -0.564376 -0.821886 0.0773506
v -12.2883 -4.10607 -28.7523
vn -0.486122 -0.86605 0.116803
v -12.2755 -4.11159 -28.7464
vn -0.403187 -0.901873 0.15513
v -12.2622 -4.11577 -28.7407
vn -0.316369 -0.929011 0.191963
v -12.2483 -4.11857 -28.7353
vn -0.226504 -0.947201 0.226948
v -12.2342 -4.11996 -28.7303
vn -0.134458 -0.95627 0.259747
v -12.2198 -4.11994 -28.7256
vn -0.0411163 -0.95613 0.290044
v -12.2053 -4.1185 -28.7214
vn 0.0526209 -0.946781 0.317549
v -12.191 -4.11566 -28.7176
vn 0.145851 -0.928314 0.341995
v -12.1768 -4.11144 -28.7144
vn 0.237677 -0.900907 0.363147
v -12.1631 -4.10588 -28.7116
vn 0.327214 -0.864824 0.380802
v -12.1498 -4.09904 -28.7095
vn 0.4136 -0.820412 0.39479
v -12.1371 -4.09099 -28.7079
vn 0.496002 -0.768099 0.404976
v -12.1251 -4.08179 -28.707
vn 0.573628 -0.708389 0.411261
v -12.114 -4.07155 -28.7066
vn 0.645729 -0.641857 0.413586
v -12.1039 -4.06035 -28.7069
vn 0.711612 -0.569143 0.411928
v -12.0948 -4.04831 -28.7077
vn 0.770641 -0.490948 0.406303
v -12.0868 -4.03554 -28.7092
vn 0.822249 -0.408026 0.396765
v -12.0801 -4.02217 -28.7112
vn 0.865938 -0.321173 0.383405
v -12.0747 -4.00832 -28.7139
vn 0.901287 -0.231228 0.366354
v -11.9119 -4.16207 -29.2596
vn 0.945291 -0.157611 0.285627
v -11.9092 -4.14736 -29.2634
vn 0.962941 -0.0640105 0.262007
v -11.9079 -4.13256 -29.2675
vn 0.971317 0.0302069 0.235864
v -11.908 -4.1178 -29.2719
vn 0.970338 0.124133 0.207449
v -11.9096 -4.10323 -29.2767
vn 0.960015 0.216864 0.177036
v -11.9127 -4.08898 -29.2818
vn 0.940446 0.307507 0.144918
v -11.9172 -4.07521 -29.287
vn 0.91182 0.395188 0.111405
v -11.9231 -4.06203 -29.2925
vn 0.874413 0.479063 0.0768185
v -11.9303 -4.04957 -29.298
vn 0.828584 0.558324 0.0414924
v -11.9387 -4.03796 -29.3036
vn 0.774776 0.632209 0.00576677
v -11.9484 -4.02731 -29.3092
vn 0.713507 0.700005 -0.0300144
v -11.9591 -4.01772 -29.3148
vn 0.645366 0.76106 -0.0655066
v -11.9708 -4.00927 -29.3203
vn 0.57101 0.814785 -0.100368
v -11.9833 -4.00207 -29.3256
vn 0.491154 0.860663 -0.134262
v -11.9966 -3.99616 -29.3307
vn 0.406569 0.898253 -0.166864
v -12.0105 -3.99161 -29.3356
vn 0.318068 0.927192 -0.197859
v -12.0249 -3.98847 -29.3402
vn 0.226504 0.947201 -0.226948
v -12.0396 -3.98676 -29.3444
vn 0.132759 0.958089 -0.253851
v -12.0545 -3.9865 -29.3483
vn 0.0377346 0.95975 -0.27831
v -12.0695 -3.98769 -29.3517
vn -0.0576528 0.952167 -0.300089
v -12.0844 -3.99032 -29.3547
vn -0.152485 0.935415 -0.318977
v -12.0991 -3.99437 -29.3571
vn -0.245849 0.909655 -0.334794
v -12.1134 -3.99979 -29.3591
vn -0.336845 0.875133 -0.347386
v -12.1272 -4.00654 -29.3606
vn -0.424597 0.832184 -0.356633
v -12.1403 -4.01455 -29.3615
vn -0.508259 0.781221 -0.362445
v -12.1527 -4.02374 -29.3618
vn -0.587028 0.722734 -0.364767
v -12.1642 -4.03402 -29.3617
vn -0.660142 0.657286 -0.363576
v -12.1747 -4.0453 -29.3609
vn -0.726899 0.585509 -0.358883
v -12.1841 -4.05746 -29.3596
vn -0.786656 0.508092 -0.350734
v -12.1923 -4.0704 -29.3578
vn -0.838837 0.425783 -0.339208
v -12.1992 -4.08398 -29.3555
vn -0.882939 0.339373 -0.324414
v -12.2048 -4.09807 -29.3527
vn -0.918538 0.249694 -0.306497
v -12.209 -4.11254 -29.3494
vn -0.945291 0.157611 -0.285627
v -12.2118 -4.12724 -29.3457
vn -0.962941 0.0640105 -0.262007
v -12.2131 -4.14205 -29.3416
vn -0.971317 -0.0302069 -0.235864
v -12.2129 -4.15681 -29.3371
vn -0.970338 -0.124133 -0.207449
v -12.2113 -4.17138 -29.3323
vn -0.960015 -0.216864 -0.177036
v -12.2082 -4.18562 -29.3273
vn -0.940446 -0.307507 -0.144918
v -12.2037 -4.1994 -29.322
vn -0.91182 -0.395188 -0.111405
v -12.1979 -4.21258 -29.3166
vn -0.874413 -0.479063 -0.0768185
v -12.1907 -4.22503 -29.311
vn -0.828584 -0.558324 -0.0414924
v -12.1822 -4.23664 -29.3054
vn -0.774776 -0.632209 -0.00576677
v -12.1726 -4.24729 -29.2998
vn -0.713507 -0.700005 0.0300144
v -12.1619 -4.25689 -29.2942
vn -0.645366 -0.76106 0.0655066
v -12.1502 -4.26533 -29.2888
vn -0.57101 -0.814785 0.100368
v -12.1376 -4.27254 -29.2834
vn -0.491154 -0.860663 0.134262
v -12.1244 -4.27844 -29.2783
vn -0.406569 -0.898253 0.166864
v -12.1105 -4.28299 -29.2734
vn -0.318068 -0.927192 0.197859
v -12.0961 -4.28614 -29.2689
vn -0.226504 -0.947201 0.226948
v -12.0813 -4.28785 -29.2646
vn -0.132759 -0.958089 0.253851
v -12.0664 -4.28811 -29.2608
vn -0.0377346 -0.95975 0.27831
v -12.0514 -4.28692 -29.2574
vn 0.0576528 -0.952167 0.300089
v -12.0365 -4.28428 -29.2544
vn 0.152485 -0.935415 0.318977
v -12.0218 -4.28024 -29.2519
vn 0.245849 -0.909655 0.334794
v -12.0075 -4.27481 -29.2499
vn 0.336845 -0.875133 0.347386
v -11.9938 -4.26806 -29.2485
vn 0.424597 -0.832184 0.356633
v -11.9806 -4.26006 -29.2476
vn 0.508259 -0.781221 0.362445
v -11.9682 -4.25087 -29.2472
vn 0.587028 -0.722734 0.364767
v -11.9567 -4.24058 -29.2474
vn 0.660142 -0.657286 0.363576
v -11.9463 -4.2293 -29.2481
vn 0.726899 -0.585509 0.358883
v -11.9369 -4.21714 -29.2494
vn 0.786656 -0.508092 0.350734
v -11.9287 -4.20421 -29.2512
vn 0.838837 -0.425783 0.339208
v -11.9217 -4.19063 -29.2536
vn 0.882939 -0.339373 0.324414
v -11.9161 -4.17654 -29.2564
vn 0.918538 -0.249694 0.306497
v -11.7739 -4.34078 -29.8678
vn 0.956495 -0.172319 0.235423
v -11.7711 -4.32577 -29.8715
vn 0.97409 -0.0786476 0.212045
v -11.7698 -4.31063 -29.8756
vn 0.982305 0.0157816 0.186624
v -11.77 -4.29552 -29.88
vn 0.981059 0.110059 0.159406
v -11.7717 -4.28058 -29.8846
vn 0.970365 0.203276 0.130653
v -11.7749 -4.26596 -29.8894
vn 0.950326 0.294536 0.100642
v -11.7796 -4.25178 -29.8943
vn 0.921135 0.382959 0.0696615
v -11.7857 -4.2382 -29.8994
vn 0.883073 0.467694 0.0380101
v -11.7931 -4.22534 -29.9045
vn 0.836506 0.547924 0.0059927
v -11.8019 -4.21333 -29.9097
vn 0.781884 0.622878 -0.0260824
v -11.8118 -4.20228 -29.9148
vn 0.719731 0.691834 -0.0579064
v -11.8229 -4.19229 -29.9198
vn 0.650647 0.754126 -0.0891726
v -11.835 -4.18347 -29.9247
vn 0.575297 0.809156 -0.11958
v -11.848 -4.1759 -29.9294
vn 0.494407 0.856394 -0.148836
v -11.8617 -4.16965 -29.9338
vn 0.408755 0.895383 -0.176658
v -11.876 -4.16478 -29.938
vn 0.319166 0.92575 -0.20278
v -11.8909 -4.16135 -29.9419
vn 0.226504 0.947201 -0.226948
v -11.9061 -4.15937 -29.9454
vn 0.13166 0.959531 -0.248931
v -11.9215 -4.15887 -29.9485
vn 0.0355489 0.962619 -0.268516
v -11.937 -4.15986 -29.9513
vn -0.060905 0.956437 -0.285515
v -11.9523 -4.16233 -29.9535
vn -0.156772 0.941044 -0.299765
v -11.9674 -4.16625 -29.9554
vn -0.25113 0.916588 -0.311128
v -11.9822 -4.17159 -29.9567
vn -0.343069 0.883305 -0.319494
v -11.9964 -4.17828 -29.9576
vn -0.431704 0.841515 -0.324784
v -12.0099 -4.18628 -29.9579
vn -0.516181 0.791621 -0.326946
v -12.0227 -4.1955 -29.9577
vn -0.595688 0.734103 -0.325959
v -12.0345 -4.20585 -29.9571
vn -0.669457 0.669515 -0.321833
v -12.0453 -4.21724 -29.9559
vn -0.73678 0.59848 -0.314607
v -12.0549 -4.22955 -29.9543
vn -0.797007 0.521681 -0.304352
v -12.0634 -4.24266 -29.9522
vn -0.849558 0.439857 -0.291165
v -12.0705 -4.25646 -29.9496
vn -0.893927 0.353798 -0.275175
v -12.0762 -4.2708 -29.9466
vn -0.929688 0.264332 -0.256534
v -12.0805 -4.28554 -29.9432
vn -0.956495 0.172319 -0.235423
v -12.0833 -4.30056 -29.9395
vn -0.97409 0.0786476 -0.212045
v -12.0846 -4.31569 -29.9354
vn -0.982305 -0.0157816 -0.186624
v -12.0844 -4.3308 -29.931
vn -0.981059 -0.110059 -0.159406
v -12.0827 -4.34575 -29.9264
vn -0.970365 -0.203276 -0.130653
v -12.0795 -4.36037 -29.9216
vn -0.950326 -0.294536 -0.100642
v -12.0748 -4.37455 -29.9167
vn -0.921135 -0.382959 -0.0696615
v -12.0687 -4.38813 -29.9116
vn -0.883073 -0.467694 -0.0380101
v -12.0613 -4.40099 -29.9065
vn -0.836506 -0.547924 -0.0059927
v -12.0525 -4.413 -29.9013
vn -0.781884 -0.622878 0.0260824
v -12.0426 -4.42405 -29.8962
vn -0.719731 -0.691834 0.0579064
v -12.0315 -4.43404 -29.8912
vn -0.650647 -0.754126 0.0891726
v -12.0194 -4.44286 -29.8863
vn -0.575297 -0.809156 0.11958
v -12.0064 -4.45043 -29.8816
vn -0.494407 -0.856394 0.148836
v -11.9927 -4.45668 -29.8772
vn -0.408755 -0.895383 0.176658
v -11.9784 -4.46154 -29.873
vn -0.319166 -0.92575 0.20278
v -11.9635 -4.46498 -29.8691
vn -0.226504 -0.947201 0.226948
v -11.9483 -4.46696 -29.8656
vn -0.13166 -0.959531 0.248931
v -11.9329 -4.46745 -29.8625
vn -0.0355489 -0.962619 0.268516
v -11.9174 -4.46646 -29.8597
vn 0.060905 -0.956437 0.285515
v -11.9021 -4.464 -29.8575
vn 0.156772 -0.941044 0.299765
v -11.8869 -4.46008 -29.8556
vn 0.25113 -0.916588 0.311128
v -11.8722 -4.45474 -29.8543
vn 0.343069 -0.883305 0.319494
v -11.858 -4.44804 -29.8534
vn 0.431704 -0.841515 0.324784
v -11.8445 -4.44005 -29.8531
vn 0.516181 -0.791621 0.326946
v -11.8317 -4.43083 -29.8533
vn 0.595688 -0.734103 0.325959
v -11.8199 -4.42047 -29.8539
vn 0.669457 -0.669515 0.321833
v -11.8091 -4.40909 -29.8551
vn 0.73678 -0.59848 0.314607
v -11.7995 -4.39678 -29.8567
vn 0.797007 -0.521681 0.304352
v -11.791 -4.38366 -29.8588
vn 0.849558 -0.439857 0.291165
v -11.7839 -4.36987 -29.8614
vn 0.893927 -0.353798 0.275175
v -11.7782 -4.35553 -29.8644
vn 0.929688 -0.264332 0.256534
v -11.6561 -4.5304 -30.5416
vn 0.963715 -0.184153 0.193239
v -11.6532 -4.51508 -30.5454
vn 0.981276 -0.0904243 0.170064
v -11.6519 -4.49962 -30.5495
vn 0.989386 0.00417529 0.145251
v -11.6521 -4.48417 -30.5537
vn 0.987968 0.0987346 0.119039
v -11.6539 -4.46887 -30.5582
vn 0.977036 0.192343 0.0916806
v -11.6573 -4.45387 -30.5628
vn 0.956694 0.284099 0.0634393
v -11.6621 -4.43932 -30.5675
vn 0.927138 0.373119 0.034587
v -11.6684 -4.42536 -30.5723
vn 0.888654 0.458546 0.00540169
v -11.6761 -4.41212 -30.5771
vn 0.841612 0.539557 -0.0238357
v -11.6851 -4.39973 -30.5818
vn 0.786464 0.615371 -0.0528435
v -11.6953 -4.38831 -30.5865
vn 0.723742 0.685259 -0.0813424
v -11.7067 -4.37797 -30.591
vn 0.654051 0.748548 -0.109058
v -11.7191 -4.3688 -30.5954
vn 0.57806 0.804628 -0.135723
v -11.7325 -4.3609 -30.5995
vn 0.496502 0.852958 -0.161081
v -11.7466 -4.35435 -30.6034
vn 0.410163 0.893075 -0.184888
v -11.7613 -4.3492 -30.607
vn 0.319874 0.92459 -0.206914
v -11.7766 -4.3455 -30.6103
vn 0.226504 0.947201 -0.226948
v -11.7922 -4.3433 -30.6132
vn 0.130953 0.960691 -0.244796
v -11.808 -4.3426 -30.6157
vn 0.0341403 0.964928 -0.260286
v -11.8239 -4.34343 -30.6179
vn -0.0630009 0.959872 -0.27327
v -11.8397 -4.34577 -30.6195
vn -0.159535 0.945572 -0.283622
v -11.8552 -4.34959 -30.6208
vn -0.254533 0.922166 -0.291243
v -11.8703 -4.35487 -30.6216
vn -0.34708 0.889879 -0.296058
v -11.8849 -4.36155 -30.6219
vn -0.436284 0.849022 -0.298023
v -11.8988 -4.36956 -30.6218
vn -0.521287 0.799988 -0.297117
v -11.9119 -4.37883 -30.6211
vn -0.601269 0.74325 -0.29335
v -11.924 -4.38928 -30.6201
vn -0.675461 0.679355 -0.286758
v -11.9351 -4.40079 -30.6185
vn -0.743147 0.608916 -0.277404
v -11.945 -4.41326 -30.6166
vn -0.803677 0.532613 -0.265379
v -11.9536 -4.42657 -30.6142
vn -0.856467 0.451181 -0.250798
v -11.9609 -4.44058 -30.6114
vn -0.901009 0.365404 -0.233802
v -11.9667 -4.45518 -30.6083
vn -0.936873 0.276108 -0.214554
v -11.9711 -4.47021 -30.6048
vn -0.963715 0.184153 -0.193239
v -11.974 -4.48553 -30.601
vn -0.981276 0.0904243 -0.170064
v -11.9753 -4.50099 -30.5969
vn -0.989386 -0.00417529 -0.145251
v -11.9751 -4.51644 -30.5926
vn -0.987968 -0.0987346 -0.119039
v -11.9733 -4.53174 -30.5882
vn -0.977036 -0.192343 -0.0916806
v -11.97 -4.54673 -30.5836
vn -0.956694 -0.284099 -0.0634393
v -11.9651 -4.56128 -30.5788
vn -0.927138 -0.373119 -0.034587
v -11.9588 -4.57524 -30.5741
vn -0.888654 -0.458546 -0.00540169
v -11.9512 -4.58848 -30.5693
vn -0.841612 -0.539557 0.0238357
v -11.9421 -4.60087 -30.5646
vn -0.786464 -0.615371 0.0528435
v -11.9319 -4.6123 -30.5599
vn -0.723742 -0.685259 0.0813424
v -11.9205 -4.62264 -30.5554
vn -0.654051 -0.748548 0.109058
v -11.9081 -4.63181 -30.551
vn -0.57806 -0.804628 0.135723
v -11.8948 -4.6397 -30.5469
vn -0.496502 -0.852958 0.161081
v -11.8806 -4.64626 -30.543
vn -0.410163 -0.893075 0.184888
v -11.8659 -4.65141 -30.5394
vn -0.319874 -0.92459 0.206914
v -11.8506 -4.65511 -30.5361
vn -0.226504 -0.947201 0.226948
v -11.835 -4.65731 -30.5332
vn -0.130953 -0.960691 0.244796
v -11.8192 -4.658 -30.5307
vn -0.0341403 -0.964928 0.260286
v -11.8033 -4.65718 -30.5285
vn 0.0630009 -0.959872 0.27327
v -11.7875 -4.65484 -30.5268
vn 0.159535 -0.945572 0.283622
v -11.772 -4.65102 -30.5256
vn 0.254533 -0.922166 0.291243
v -11.7569 -4.64574 -30.5248
vn 0.34708 -0.889879 0.296058
v -11.7423 -4.63906 -30.5245
vn 0.436284 -0.849022 0.298023
v -11.7284 -4.63105 -30.5246
vn 0.521287 -0.799988 0.297117
v -11.7153 -4.62177 -30.5253
vn 0.601269 -0.74325 0.29335
v -11.7032 -4.61133 -30.5263
vn 0.675461 -0.679355 0.286758
v -11.6922 -4.59982 -30.5279
vn 0.743147 -0.608916 0.277404
v -11.6823 -4.58735 -30.5298
vn 0.803677 -0.532613 0.265379
v -11.6736 -4.57404 -30.5322
vn 0.856467 -0.451181 0.250798
v -11.6664 -4.56002 -30.535
vn 0.901009 -0.365404 0.233802
v -11.6605 -4.54543 -30.5381
vn 0.936873 -0.276108 0.214554
v -11.5584 -4.73101 -31.2814
vn 0.968313 -0.193815 0.157501
v -11.5555 -4.71539 -31.2852
vn 0.985851 -0.10004 0.134497
v -11.5542 -4.6996 -31.2893
vn 0.993895 -0.00530141 0.110199
v -11.5544 -4.68381 -31.2935
vn 0.992368 0.0894883 0.0848392
v -11.5563 -4.66817 -31.2978
vn 0.981283 0.183416 0.0586624
v -11.5597 -4.65281 -31.3023
vn 0.960749 0.275578 0.0319206
v -11.5646 -4.6379 -31.3068
vn 0.930961 0.365085 0.00487145
v -11.5711 -4.62358 -31.3113
vn 0.892208 0.451077 -0.0222246
v -11.579 -4.60998 -31.3158
vn 0.844863 0.532724 -0.0491067
v -11.5882 -4.59723 -31.3202
vn 0.789381 0.609241 -0.0755158
v -11.5987 -4.58546 -31.3245
vn 0.726297 0.679891 -0.101198
v -11.6104 -4.57478 -31.3286
vn 0.656218 0.743993 -0.125905
v -11.6231 -4.5653 -31.3325
vn 0.57982 0.80093 -0.1494
v -11.6368 -4.5571 -31.3362
vn 0.497837 0.850154 -0.171456
v -11.6513 -4.55026 -31.3396
vn 0.41106 0.89119 -0.19186
v -11.6664 -4.54486 -31.3427
vn 0.320325 0.923643 -0.210417
v -11.682 -4.54093 -31.3454
vn 0.226504 0.947201 -0.226948
v -11.698 -4.53853 -31.3478
vn 0.130502 0.961638 -0.241293
v -11.7142 -4.53767 -31.3498
vn 0.0332434 0.966813 -0.253314
v -11.7304 -4.53836 -31.3514
vn -0.0643355 0.962677 -0.262896
v -11.7466 -4.54059 -31.3526
vn -0.161295 0.94927 -0.269945
v -11.7625 -4.54434 -31.3533
vn -0.256701 0.926721 -0.274396
v -11.778 -4.54959 -31.3536
vn -0.349634 0.895247 -0.276203
v -11.7929 -4.55627 -31.3535
vn -0.439201 0.855152 -0.27535
v -11.8071 -4.56432 -31.3529
vn -0.524538 0.806821 -0.271846
v -11.8205 -4.57366 -31.3519
vn -0.604823 0.75072 -0.265724
v -11.8329 -4.58421 -31.3504
vn -0.679284 0.687389 -0.257043
v -11.8442 -4.59587 -31.3486
vn -0.747202 0.617438 -0.245886
v -11.8543 -4.60851 -31.3463
vn -0.807925 0.54154 -0.232361
v -11.8631 -4.62202 -31.3437
vn -0.860867 0.460428 -0.216598
v -11.8706 -4.63627 -31.3407
vn -0.905518 0.374881 -0.19875
v -11.8766 -4.65112 -31.3374
vn -0.941449 0.285724 -0.178987
v -11.881 -4.66643 -31.3339
vn -0.968313 0.193815 -0.157501
v -11.884 -4.68206 -31.33
vn -0.985851 0.10004 -0.134497
v -11.8853 -4.69784 -31.326
vn -0.993895 0.00530141 -0.110199
v -11.885 -4.71363 -31.3217
vn -0.992368 -0.0894883 -0.0848392
v -11.8832 -4.72927 -31.3174
vn -0.981283 -0.183416 -0.0586624
v -11.8798 -4.74463 -31.3129
vn -0.960749 -0.275578 -0.0319206
v -11.8748 -4.75954 -31.3084
vn -0.930961 -0.365085 -0.00487145
v -11.8684 -4.77386 -31.3039
vn -0.892208 -0.451077 0.0222246
v -11.8605 -4.78746 -31.2994
vn -0.844863 -0.532724 0.0491067
v -11.8512 -4.80021 -31.295
vn -0.789381 -0.609241 0.0755158
v -11.8407 -4.81198 -31.2908
vn -0.726297 -0.679891 0.101198
v -11.829 -4.82266 -31.2866
vn -0.656218 -0.743993 0.125905
v -11.8163 -4.83214 -31.2827
vn -0.57982 -0.80093 0.1494
v -11.8027 -4.84034 -31.2791
vn -0.497837 -0.850154 0.171456
v -11.7882 -4.84718 -31.2757
vn -0.41106 -0.89119 0.19186
v -11.7731 -4.85258 -31.2726
vn -0.320325 -0.923643 0.210417
v -11.7575 -4.85651 -31.2698
vn -0.226504 -0.947201 0.226948
v -11.7415 -4.85891 -31.2674
vn -0.130502 -0.961638 0.241293
v -11.7253 -4.85977 -31.2654
vn -0.0332434 -0.966813 0.253314
v -11.709 -4.85909 -31.2638
vn 0.0643355 -0.962677 0.262896
v -11.6929 -4.85685 -31.2626
vn 0.161295 -0.94927 0.269945
v -11.677 -4.8531 -31.2619
vn 0.256701 -0.926721 0.274396
v -11.6615 -4.84785 -31.2616
vn 0.349634 -0.895247 0.276203
v -11.6466 -4.84117 -31.2617
vn 0.439201 -0.855152 0.27535
v -11.6323 -4.83312 -31.2623
vn 0.524538 -0.806821 0.271846
v -11.619 -4.82378 -31.2633
vn 0.604823 -0.75072 0.265724
v -11.6066 -4.81323 -31.2648
vn 0.679284 -0.687389 0.257043
v -11.5953 -4.80157 -31.2667
vn 0.747202 -0.617438 0.245886
v -11.5851 -4.78893 -31.2689
vn 0.807925 -0.54154 0.232361
v -11.5763 -4.77542 -31.2715
vn 0.860867 -0.460428 0.216598
v -11.5689 -4.76117 -31.2745
vn 0.905518 -0.374881 0.19875
v -11.5629 -4.74632 -31.2778
vn 0.941449 -0.285724 0.178987
v -11.4807 -4.94267 -32.0872
vn 0.971161 -0.201815 0.126957
v -11.4777 -4.92675 -32.0911
vn 0.988685 -0.108001 0.104101
v -11.4764 -4.91065 -32.0951
vn 0.996689 -0.0131469 0.0802424
v -11.4766 -4.89452 -32.0993
vn 0.995093 0.0818336 0.0556109
v -11.4785 -4.87854 -32.1036
vn 0.983915 0.176026 0.0304439
v -11.482 -4.86284 -32.1079
vn 0.96326 0.268523 0.00498369
v -11.4871 -4.84758 -32.1122
vn 0.933329 0.358434 -0.0205245
v -11.4937 -4.8329 -32.1165
vn 0.89441 0.444893 -0.0458351
v -11.5018 -4.81895 -32.1208
vn 0.846877 0.527068 -0.0707042
v -11.5112 -4.80587 -32.1249
vn 0.791188 0.604167 -0.0948924
v -11.522 -4.79377 -32.1288
vn 0.727879 0.675447 -0.118167
v -11.5339 -4.78277 -32.1326
vn 0.657561 0.740222 -0.140303
v -11.5469 -4.77299 -32.1361
vn 0.580909 0.797869 -0.161088
v -11.5609 -4.76451 -32.1394
vn 0.498664 0.847832 -0.180322
v -11.5757 -4.75742 -32.1423
vn 0.411616 0.889629 -0.197819
v -11.5911 -4.75177 -32.145
vn 0.320604 0.922859 -0.213411
v -11.6071 -4.74764 -32.1473
vn 0.226504 0.947201 -0.226948
v -11.6234 -4.74506 -32.1492
vn 0.130223 0.962422 -0.238299
v -11.64 -4.74405 -32.1507
vn 0.0326877 0.968373 -0.247355
v -11.6566 -4.74462 -32.1519
vn -0.0651622 0.964999 -0.254029
v -11.6731 -4.74677 -32.1526
vn -0.162385 0.952331 -0.258257
v -11.6893 -4.75048 -32.1529
vn -0.258043 0.930492 -0.259997
v -11.7051 -4.75571 -32.1528
vn -0.351217 0.899691 -0.259234
v -11.7204 -4.76241 -32.1522
vn -0.441008 0.860226 -0.255974
v -11.7349 -4.77051 -32.1512
vn -0.526552 0.812477 -0.250249
v -11.7486 -4.77994 -32.1499
vn -0.607025 0.756903 -0.242113
v -11.7612 -4.79061 -32.1481
vn -0.681652 0.69404 -0.231647
v -11.7728 -4.80242 -32.1459
vn -0.749714 0.624492 -0.218949
v -11.7831 -4.81524 -32.1434
vn -0.810556 0.548931 -0.204142
v -11.7921 -4.82897 -32.1406
vn -0.863592 0.468083 -0.18737
v -11.7997 -4.84345 -32.1374
vn -0.908311 0.382727 -0.168793
v -11.8058 -4.85857 -32.134
vn -0.944283 0.293685 -0.148591
v -11.8104 -4.87416 -32.1303
vn -0.971161 0.201815 -0.126957
v -11.8133 -4.89008 -32.1264
vn -0.988685 0.108001 -0.104101
v -11.8147 -4.90618 -32.1224
vn -0.996689 0.0131469 -0.0802424
v -11.8144 -4.9223 -32.1182
vn -0.995093 -0.0818336 -0.0556109
v -11.8125 -4.93829 -32.1139
vn -0.983915 -0.176026 -0.0304439
v -11.809 -4.95399 -32.1096
vn -0.96326 -0.268523 -0.00498369
v -11.804 -4.96925 -32.1053
vn -0.933329 -0.358434 0.0205245
v -11.7973 -4.98393 -32.101
vn -0.89441 -0.444893 0.0458351
v -11.7893 -4.99788 -32.0968
vn -0.846877 -0.527068 0.0707042
v -11.7798 -5.01096 -32.0927
vn -0.791188 -0.604167 0.0948924
v -11.7691 -5.02306 -32.0887
vn -0.727879 -0.675447 0.118167
v -11.7571 -5.03406 -32.0849
vn -0.657561 -0.740222 0.140303
v -11.7441 -5.04384 -32.0814
vn -0.580909 -0.797869 0.161088
v -11.7302 -5.05232 -32.0782
vn -0.498664 -0.847832 0.180322
v -11.7154 -5.05941 -32.0752
vn -0.411616 -0.889629 0.197819
v -11.7 -5.06505 -32.0725
vn -0.320604 -0.922859 0.213411
v -11.684 -5.06919 -32.0702
vn -0.226504 -0.947201 0.226948
v -11.6676 -5.07177 -32.0683
vn -0.130223 -0.962422 0.238299
v -11.6511 -5.07278 -32.0668
vn -0.0326877 -0.968373 0.247355
v -11.6345 -5.07221 -32.0656
vn 0.0651622 -0.964999 0.254029
v -11.618 -5.07006 -32.0649
vn 0.162385 -0.952331 0.258257
v -11.6017 -5.06635 -32.0646
vn 0.258043 -0.930492 0.259997
v -11.5859 -5.06112 -32.0648
vn 0.351217 -0.899691 0.259234
v -11.5707 -5.05442 -32.0653
vn 0.441008 -0.860226 0.255974
v -11.5562 -5.04632 -32.0663
vn 0.526552 -0.812477 0.250249
v -11.5425 -5.03689 -32.0677
vn 0.607025 -0.756903 0.242113
v -11.5298 -5.02622 -32.0694
vn 0.681652 -0.69404 0.231647
v -11.5183 -5.01441 -32.0716
vn 0.749714 -0.624492 0.218949
v -11.508 -5.00159 -32.0741
vn 0.810556 -0.548931 0.204142
v -11.499 -4.98786 -32.077
vn 0.863592 -0.468083 0.18737
v -11.4914 -4.97338 -32.0801
vn 0.908311 -0.382727 0.168793
v -11.4853 -4.95826 -32.0835
vn 0.944283 -0.293685 0.148591
v -11.4229 -5.16544 -32.9592
vn 0.972827 -0.208521 0.100629
v -11.4198 -5.14921 -32.9632
vn 0.990344 -0.114675 0.0778993
v -11.4184 -5.1328 -32.9672
vn 0.998323 -0.0197249 0.0544197
v -11.4187 -5.11635 -32.9714
vn 0.996688 0.0754155 0.0304161
v -11.4207 -5.10003 -32.9756
vn 0.985454 0.16983 0.00611949
v -11.4243 -5.08399 -32.9798
vn 0.96473 0.262608 -0.018236
v -11.4294 -5.06838 -32.984
vn 0.934715 0.352858 -0.0424159
v -11.4362 -5.05337 -32.9881
vn 0.895698 0.439709 -0.0661873
v -11.4444 -5.03908 -32.9921
vn 0.848055 0.522326 -0.0893213
v -11.4541 -5.02567 -32.9959
vn 0.792245 0.599912 -0.111595
v -11.465 -5.01326 -32.9996
vn 0.728805 0.671721 -0.132794
v -11.4772 -5.00196 -33.003
vn 0.658346 0.737061 -0.152714
v -11.4905 -4.99189 -33.0062
vn 0.581547 0.795302 -0.171164
v -11.5047 -4.98315 -33.0091
vn 0.499148 0.845885 -0.187965
v -11.5198 -4.97581 -33.0117
vn 0.411941 0.888321 -0.202956
v -11.5356 -4.96995 -33.014
vn 0.320767 0.922202 -0.215992
v -11.5519 -4.96563 -33.0159
vn 0.226504 0.947201 -0.226948
v -11.5686 -4.96289 -33.0174
vn 0.13006 0.963079 -0.235718
v -11.5854 -4.96174 -33.0185
vn 0.0323626 0.969682 -0.242219
v -11.6024 -4.96222 -33.0192
vn -0.065646 0.966946 -0.246387
v -11.6192 -4.9643 -33.0195
vn -0.163022 0.954898 -0.248181
v -11.6358 -4.96797 -33.0194
vn -0.258829 0.933653 -0.247586
v -11.6519 -4.9732 -33.0189
vn -0.352143 0.903417 -0.244607
v -11.6675 -4.97993 -33.018
vn -0.442065 0.864481 -0.239271
v -11.6823 -4.9881 -33.0167
vn -0.52773 0.817219 -0.231632
v -11.6962 -4.99763 -33.015
vn -0.608313 0.762087 -0.221761
v -11.7091 -5.00843 -33.0129
vn -0.683037 0.699616 -0.209755
v -11.7209 -5.0204 -33.0105
vn -0.751184 0.630407 -0.195729
v -11.7314 -5.03341 -33.0077
vn -0.812096 0.555127 -0.179818
v -11.7406 -5.04735 -33.0047
vn -0.865187 0.474501 -0.162175
v -11.7484 -5.06208 -33.0013
vn -0.909946 0.389305 -0.14297
v -11.7546 -5.07746 -32.9978
vn -0.945941 0.300359 -0.122389
v -11.7592 -5.09334 -32.994
vn -0.972827 0.208521 -0.100629
v -11.7623 -5.10956 -32.9901
vn -0.990344 0.114675 -0.0778993
v -11.7636 -5.12598 -32.986
vn -0.998323 0.0197249 -0.0544197
v -11.7633 -5.14242 -32.9819
vn -0.996688 -0.0754155 -0.0304161
v -11.7614 -5.15875 -32.9777
vn -0.985454 -0.16983 -0.00611949
v -11.7578 -5.17479 -32.9735
vn -0.96473 -0.262608 0.018236
v -11.7526 -5.19039 -32.9693
vn -0.934715 -0.352858 0.0424159
v -11.7459 -5.20541 -32.9652
vn -0.895698 -0.439709 0.0661873
v -11.7377 -5.21969 -32.9612
vn -0.848055 -0.522326 0.0893213
v -11.728 -5.2331 -32.9573
vn -0.792245 -0.599912 0.111595
v -11.717 -5.24552 -32.9537
vn -0.728805 -0.671721 0.132794
v -11.7049 -5.25681 -32.9502
vn -0.658346 -0.737061 0.152714
v -11.6916 -5.26688 -32.947
vn -0.581547 -0.795302 0.171164
v -11.6773 -5.27563 -32.9441
vn -0.499148 -0.845885 0.187965
v -11.6623 -5.28296 -32.9415
vn -0.411941 -0.888321 0.202956
v -11.6465 -5.28882 -32.9393
vn -0.320767 -0.922202 0.215992
v -11.6302 -5.29314 -32.9374
vn -0.226504 -0.947201 0.226948
v -11.6135 -5.29589 -32.9359
vn -0.13006 -0.963079 0.235718
v -11.5966 -5.29703 -32.9348
vn -0.0323626 -0.969682 0.242219
v -11.5797 -5.29656 -32.934
vn 0.065646 -0.966946 0.246387
v -11.5629 -5.29447 -32.9337
vn 0.163022 -0.954898 0.248181
v -11.5463 -5.2908 -32.9338
vn 0.258829 -0.933653 0.247586
v -11.5302 -5.28557 -32.9343
vn 0.352143 -0.903417 0.244607
v -11.5146 -5.27884 -32.9353
vn 0.442065 -0.864481 0.239271
v -11.4998 -5.27067 -32.9366
vn 0.52773 -0.817219 0.231632
v -11.4859 -5.26114 -32.9383
vn 0.608313 -0.762087 0.221761
v -11.473 -5.25034 -32.9404
vn 0.683037 -0.699616 0.209755
v -11.4612 -5.23837 -32.9428
vn 0.751184 -0.630407 0.195729
v -11.4506 -5.22536 -32.9455
vn 0.812096 -0.555127 0.179818
v -11.4415 -5.21142 -32.9486
vn 0.865187 -0.474501 0.162175
v -11.4337 -5.19669 -32.9519
vn 0.909946 -0.389305 0.14297
v -11.4275 -5.18131 -32.9555
vn 0.945941 -0.300359 0.122389
f 1 66 2 
f 1 65 66 
f 2 67 3 
f 2 66 67 
f 3 68 4 
f 3 67 68 
f 4 69 5 
f 4 68 69 
f 5 70 6 
f 5 69 70 
f 6 71 7 
f 6 70 71 
f 7 72 8 
f 7 71 72 
f 8 73 9 
f 8 72 73 
f 9 74 10 
f 9 73 74 
f 10 75 11 
f 10 74 75 
f 11 76 12 
f 11 75 76 
f 12 77 13 
f 12 76 77 
f 13 78 14 
f 13 77 78 
f 14 79 15 
f 14 78 79 
f 15 80 16 
f 15 79 80 
f 16 81 17 
f 16 80 81 
f 17 82 18 
f 17 81 82 
f 18 83 19 
f 18 82 83 
f 19 84 20 
f 19 83 84 
f 20 85 21 
f 20 84 85 
f 21 86 22 
f 21 85 86 
f 22 87 23 
f 22 86 87 
f 23 88 24 
f 23 87 88 
f 24 89 25 
f 24 88 89 
f 25 90 26 
f 25 89 90 
f 26 91 27 
f 26 90 91 
f 27 92 28 
f 27 91 92 
f 28 93 29 
f 28 92 93 
f 29 94 30 
f 29 93 94 
f 30 95 31 
f 30 94 95 
f 31 96 32 
f 31 95 96 
f 32 97 33 
f 32 96 97 
f 33 98 34 
f 33 97 98 
f 34 99 35 
f 34 98 99 
f 35 100 36 
f 35 99 100 
f 36 101 37 
f 36 100 101 
f 37 102 38 
f 37 101 102 
f 38 103 39 
f 38 102 103 
f 39 104 40 
f 39 103 104 
f 40 105 41 
f 40 104 105 
f 41 106 42 
f 41 105 106 
f 42 107 43 
f 42 106 107 
f 43 108 44 
f 43 107 108 
f 44 109 45 
f 44 108 109 
f 45 110 46 
f 45 109 110 
f 46 111 47 
f 46 110 111 
f 47 112 48 
f 47 111 112 
f 48 113 49 
f 48 112 113 
f 49 114 50 
f 49 113 114 
f 50 115 51 
f 50 114 115 
f 51 116 52 
f 51 115 116 
f 52 117 53 
f 52 116 117 
f 53 118 54 
f 53 117 118 
f 54 119 55 
f 54 118 119 
f 55 120 56 
f 55 119 120 
f 56 121 57 
f 56 120 121 
f 57 122 58 
f 57 121 122 
f 58 123 59 
f 58 122 123 
f 59 124 60 
f 59 123 124 
f 60 125 61 
f 60 124 125 
f 61 126 62 
f 61 125 126 
f 62 127 63 
f 62 126 127 
f 63 128 64 
f 63 127 128 
f 64 65 1 
f 64 128 65 
f 65 130 66 
f 65 129 130 
f 66 131 67 
f 66 130 131 
f 67 132 68 
f 67 131 132 
f 68 133 69 
f 68 132 133 
f 69 134 70 
f 69 133 134 
f 70 135 71 
f 70 134 135 
f 71 136 72 
f 71 135 136 
f 72 137 73 
f 72 136 137 
f 73 138 74 
f 73 137 138 
f 74 139 75 
f 74 138 139 
f 75 140 76 
f 75 139 140 
f 76 141 77 
f 76 140 141 
f 77 142 78 
f 77 141 142 
f 78 143 79 
f 78 142 143 
f 79 144 80 
f 79 143 144 
f 80 145 81 
f 80 144 145 
f 81 146 82 
f 81 145 146 
f 82 147 83 
f 82 146 147 
f 83 148 84 
f 83 147 148 
f 84 149 85 
f 84 148 149 
f 85 150 86 
f 85 149 150 
f 86 151 87 
f 86 150 151 
f 87 152 88 
f 87 151 152 
f 88 153 89 
f 88 152 153 
f 89 154 90 
f 89 153 154 
f 90 155 91 
f 90 154 155 
f 91 156 92 
f 91 155 156 
f 92 157 93 
f 92 156 157 
f 93 158 94 
f 93 157 158 
f 94 159 95 
f 94 158 159 
f 95 160 96 
f 95 159 160 
f 96 161 97 
f 96 160 161 
f 97 162 98 
f 97 161 162 
f 98 163 99 
f 98 162 163 
f 99 164 100 
f 99 163 164 
f 100 165 101 
f 100 164 165 
f 101 166 102 
f 101 165 166 
f 102 167 103 
f 102 166 167 
f 103 168 104 
f 103 167 168 
f 104 169 105 
f 104 168 169 
f 105 170 106 
f 105 169 170 
f 106 171 107 
f 106 170 171 
f 107 172 108 
f 107 171 172 
f 108 173 109 
f 108 172 173 
f 109 174 110 
f 109 173 174 
f 110 175 111 
f 110 174 175 
f 111 176 112 
f 111 175 176 
f 112 177 113 
f 112 176 177 
f 113 178 114 
f 113 177 178 
f 114 179 115 
f 114 178 179 
f 115 180 116 
f 115 179 180 
f 116 181 117 
f 116 180 181 
f 117 182 118 
f 117 181 182 
f 118 183 119 
f 118 182 183 
f 119 184 120 
f 119 183 184 
f 120 185 121 
f 120 184 185 
f 121 186 122 
f 121 185 186 
f 122 187 123 
f 122 186 187 
f 123 188 124 
f 123 187 188 
f 124 189 125 
f 124 188 189 
f 125 190 126 
f 125 189 190 
f 126 191 127 
f 126 190 191 
f 127 192 128 
f 127 191 192 
f 128 129 65 
f 128 192 129 
f 129 194 130 
f 129 193 194 
f 130 195 131 
f 130 194 195 
f 131 196 132 
f 131 195 196 
f 132 197 133 
f 132 196 197 
f 133 198 134 
f 133 197 198 
f 134 199 135 
f 134 198 199 
f 135 200 136 
f 135 199 200 
f 136 201 137 
f 136 200 201 
f 137 202 138 
f 137 201 202 
f 138 203 139 
f 138 202 203 
f 139 204 140 
f 139 203 204 
f 140 205 141 
f 140 204 205 
f 141 206 142 
f 141 205 206 
f 142 207 143 
f 142 206 207 
f 143 208 144 
f 143 207 208 
f 144 209 145 
f 144 208 209 
f 145 210 146 
f 145 209 210 
f 146 211 147 
f 146 210 211 
f 147 212 148 
f 147 211 212 
f 148 213 149 
f 148 212 213 
f 149 214 150 
f 149 213 214 
f 150 215 151 
f 150 214 215 
f 151 216 152 
f 151 215 216 
f 152 217 153 
f 152 216 217 
f 153 218 154 
f 153 217 218 
f 154 219 155 
f 154 218 219 
f 155 220 156 
f 155 219 220 
f 156 221 157 
f 156 220 221 
f 157 222 158 
f 157 221 222 
f 158 223 159 
f 158 222 223 
f 159 224 160 
f 159 223 224 
f 160 225 161 
f 160 224 225 
f 161 226 162 
f 161 225 226 
f 162 227 163 
f 162 226 227 
f 163 228 164 
f 163 227 228 
f 164 229 165 
f 164 228 229 
f 165 230 166 
f 165 229 230 
f 166 231 167 
f 166 230 231 
f 167 232 168 
f 167 231 232 
f 168 233 169 
f 168 232 233 
f 169 234 170 
f 169 233 234 
f 170 235 171 
f 170 234 235 
f 171 236 172 
f 171 235 236 
f 172 237 173 
f 172 236 237 
f 173 238 174 
f 173 237 238 
f 174 239 175 
f 174 238 239 
f 175 240 176 
f 175 239 240 
f 176 241 177 
f 176 240 241 
f 177 242 178 
f 177 241 242 
f 178 243 179 
f 178 242 243 
f 179 244 180 
f 179 243 244 
f 180 245 181 
f 180 244 245 
f 181 246 182 
f 181 245 246 
f 182 247 183 
f 182 246 247 
f 183 248 184 
f 183 247 248 
f 184 249 185 
f 184 248 249 
f 185 250 186 
f 185 249 250 
f 186 251 187 
f 186 250 251 
f 187 252 188 
f 187 251 252 
f 188 253 189 
f 188 252 253 
f 189 254 190 
f 189 253 254 
f 190 255 191 
f 190 254 255 
f 191 256 192 
f 191 255 256 
f 192 193 129 
f 192 256 193 
f 193 258 194 
f 193 257 258 
f 194 259 195 
f 194 258 259 
f 195 260 196 
f 195 259 260 
f 196 261 197 
f 196 260 261 
f 197 262 198 
f 197 261 262 
f 198 263 199 
f 198 262 263 
f 199 264 200 
f 199 263 264 
f 200 265 201 
f 200 264 265 
f 201 266 202 
f 201 265 266 
f 202 267 203 
f 202 266 267 
f 203 268 204 
f 203 267 268 
f 204 269 205 
f 204 268 269 
f 205 270 206 
f 205 269 270 
f 206 271 207 
f 206 270 271 
f 207 272 208 
f 207 271 272 
f 208 273 209 
f 208 272 273 
f 209 274 210 
f 209 273 274 
f 210 275 211 
f 210 274 275 
f 211 276 212 
f 211 275 276 
f 212 277 213 
f 212 276 277 
f 213 278 214 
f 213 277 278 
f 214 279 215 
f 214 278 279 
f 215 280 216 
f 215 279 280 
f 216 281 217 
f 216 280 281 
f 217 282 218 
f 217 281 282 
f 218 283 219 
f 218 282 283 
f 219 284 220 
f 219 283 284 
f 220 285 221 
f 220 284 285 
f 221 286 222 
f 221 285 286 
f 222 287 223 
f 222 286 287 
f 223 288 224 
f 223 287 288 
f 224 289 225 
f 224 288 289 
f 225 290 226 
f 225 289 290 
f 226 291 227 
f 226 290 291 
f 227 292 228 
f 227 291 292 
f 228 293 229 
f 228 292 293 
f 229 294 230 
f 229 293 294 
f 230 295 231 
f 230 294 295 
f 231 296 232 
f 231 295 296 
f 232 297 233 
f 232 296 297 
f 233 298 234 
f 233 297 298 
f 234 299 235 
f 234 298 299 
f 235 300 236 
f 235 299 300 
f 236 301 237 
f 236 300 301 
f 237 302 238 
f 237 301 302 
f 238 303 239 
f 238 302 303 
f 239 304 240 
f 239 303 304 
f 240 305 241 
f 240 304 305 
f 241 306 242 
f 241 305 306 
f 242 307 243 
f 242 306 307 
f 243 308 244 
f 243 307 308 
f 244 309 245 
f 244 308 309 
f 245 310 246 
f 245 309 310 
f 246 311 247 
f 246 310 311 
f 247 312 248 
f 247 311 312 
f 248 313 249 
f 248 312 313 
f 249 314 250 
f 249 313 314 
f 250 315 251 
f 250 314 315 
f 251 316 252 
f 251 315 316 
f 252 317 253 
f 252 316 317 
f 253 318 254 
f 253 317 318 
f 254 319 255 
f 254 318 319 
f 255 320 256 
f 255 319 320 
f 256 257 193 
f 256 320 257 
f 257 322 258 
f 257 321 322 
f 258 323 259 
f 258 322 323 
f 259 324 260 
f 259 323 324 
f 260 325 261 
f 260 324 325 
f 261 326 262 
f 261 325 326 
f 262 327 263 
f 262 326 327 
f 263 328 264 
f 263 327 328 
f 264 329 265 
f 264 328 329 
f 265 330 266 
f 265 329 330 
f 266 331 267 
f 266 330 331 
f 267 332 268 
f 267 331 332 
f 268 333 269 
f 268 332 333 
f 269 334 270 
f 269 333 334 
f 270 335 271 
f 270 334 335 
f 271 336 272 
f 271 335 336 
f 272 337 273 
f 272 336 337 
f 273 338 274 
f 273 337 338 
f 274 339 275 
f 274 338 339 
f 275 340 276 
f 275 339 340 
f 276 341 277 
f 276 340 341 
f 277 342 278 
f 277 341 342 
f 278 343 279 
f 278 342 343 
f 279 344 280 
f 279 343 344 
f 280 345 281 
f 280 344 345 
f 281 346 282 
f 281 345 346 
f 282 347 283 
f 282 346 347 
f 283 348 284 
f 283 347 348 
f 284 349 285 
f 284 348 349 
f 285 350 286 
f 285 349 350 
f 286 351 287 
f 286 350 351 
f 287 352 288 
f 287 351 352 
f 288 353 289 
f 288 352 353 
f 289 354 290 
f 289 353 354 
f 290 355 291 
f 290 354 355 
f 291 356 292 
f 291 355 356 
f 292 357 293 
f 292 356 357 
f 293 358 294 
f 293 357 358 
f 294 359 295 
f 294 358 359 
f 295 360 296 
f 295 359 360 
f 296 361 297 
f 296 360 361 
f 297 362 298 
f 297 361 362 
f 298 363 299 
f 298 362 363 
f 299 364 300 
f 299 363 364 
f 300 365 301 
f 300 364 365 
f 301 366 302 
f 301 365 366 
f 302 367 303 
f 302 366 367 
f 303 368 304 
f 303 367 368 
f 304 369 305 
f 304 368 369 
f 305 370 306 
f 305 369 370 
f 306 371 307 
f 306 370 371 
f 307 372 308 
f 307 371 372 
f 308 373 309 
f 308 372 373 
f 309 374 310 
f 309 373 374 
f 310 375 311 
f 310 374 375 
f 311 376 312 
f 311 375 376 
f 312 377 313 
f 312 376 377 
f 313 378 314 
f 313 377 378 
f 314 379 315 
f 314 378 379 
f 315 380 316 
f 315 379 380 
f 316 381 317 
f 316 380 381 
f 317 382 318 
f 317 381 382 
f 318 383 319 
f 318 382 383 
f 319 384 320 
f 319 383 384 
f 320 321 257 
f 320 384 321 
f 321 386 322 
f 321 385 386 
f 322 387 323 
f 322 386 387 
f 323 388 324 
f 323 387 388 
f 324 389 325 
f 324 388 389 
f 325 390 326 
f 325 389 390 
f 326 391 327 
f 326 390 391 
f 327 392 328 
f 327 391 392 
f 328 393 329 
f 328 392 393 
f 329 394 330 
f 329 393 394 
f 330 395 331 
f 330 394 395 
f 331 396 332 
f 331 395 396 
f 332 397 333 
f 332 396 397 
f 333 398 334 
f 333 397 398 
f 334 399 335 
f 334 398 399 
f 335 400 336 
f 335 399 400 
f 336 401 337 
f 336 400 401 
f 337 402 338 
f 337 401 402 
f 338 403 339 
f 338 402 403 
f 339 404 340 
f 339 403 404 
f 340 405 341 
f 340 404 405 
f 341 406 342 
f 341 405 406 
f 342 407 343 
f 342 406 407 
f 343 408 344 
f 343 407 408 
f 344 409 345 
f 344 408 409 
f 345 410 346 
f 345 409 410 
f 346 411 347 
f 346 410 411 
f 347 412 348 
f 347 411 412 
f 348 413 349 
f 348 412 413 
f 349 414 350 
f 349 413 414 
f 350 415 351 
f 350 414 415 
f 351 416 352 
f 351 415 416 
f 352 417 353 
f 352 416 417 
f 353 418 354 
f 353 417 418 
f 354 419 355 
f 354 418 419 
f 355 420 356 
f 355 419 420 
f 356 421 357 
f 356 420 421 
f 357 422 358 
f 357 421 422 
f 358 423 359 
f 358 422 423 
f 359 424 360 
f 359 423 424 
f 360 425 361 
f 360 424 425 
f 361 426 362 
f 361 425 426 
f 362 427 363 
f 362 426 427 
f 363 428 364 
f 363 427 428 
f 364 429 365 
f 364 428 429 
f 365 430 366 
f 365 429 430 
f 366 431 367 
f 366 430 431 
f 367 432 368 
f 367 431 432 
f 368 433 369 
f 368 432 433 
f 369 434 370 
f 369 433 434 
f 370 435 371 
f 370 434 435 
f 371 436 372 
f 371 435 436 
f 372 437 373 
f 372 436 437 
f 373 438 374 
f 373 437 438 
f 374 439 375 
f 374 438 439 
f 375 440 376 
f 375 439 440 
f 376 441 377 
f 376 440 441 
f 377 442 378 
f 377 441 442 
f 378 443 379 
f 378 442 443 
f 379 444 380 
f 379 443 444 
f 380 445 381 
f 380 444 445 
f 381 446 382 
f 381 445 446 
f 382 447 383 
f 382 446 447 
f 383 448 384 
f 383 447 448 
f 384 385 321 
f 384 448 385 
f 385 450 386 
f 385 449 450 
f 386 451 387 
f 386 450 451 
f 387 452 388 
f 387 451 452 
f 388 453 389 
f 388 452 453 
f 389 454 390 
f 389 453 454 
f 390 455 391 
f 390 454 455 
f 391 456 392 
f 391 455 456 
f 392 457 393 
f 392 456 457 
f 393 458 394 
f 393 457 458 
f 394 459 395 
f 394 458 459 
f 395 460 396 
f 395 459 460 
f 396 461 397 
f 396 460 461 
f 397 462 398 
f 397 461 462 
f 398 463 399 
f 398 462 463 
f 399 464 400 
f 399 463 464 
f 400 465 401 
f 400 464 465 
f 401 466 402 
f 401 465 466 
f 402 467 403 
f 402 466 467 
f 403 468 404 
f 403 467 468 
f 404 469 405 
f 404 468 469 
f 405 470 406 
f 405 469 470 
f 406 471 407 
f 406 470 471 
f 407 472 408 
f 407 471 472 
f 408 473 409 
f 408 472 473 
f 409 474 410 
f 409 473 474 
f 410 475 411 
f 410 474 475 
f 411 476 412 
f 411 475 476 
f 412 477 413 
f 412 476 477 
f 413 478 414 
f 413 477 478 
f 414 479 415 
f 414 478 479 
f 415 480 416 
f 415 479 480 
f 416 481 417 
f 416 480 481 
f 417 482 418 
f 417 481 482 
f 418 483 419 
f 418 482 483 
f 419 484 420 
f 419 483 484 
f 420 485 421 
f 420 484 485 
f 421 486 422 
f 421 485 486 
f 422 487 423 
f 422 486 487 
f 423 488 424 
f 423 487 488 
f 424 489 425 
f 424 488 489 
f 425 490 426 
f 425 489 490 
f 426 491 427 
f 426 490 491 
f 427 492 428 
f 427 491 492 
f 428 493 429 
f 428 492 493 
f 429 494 430 
f 429 493 494 
f 430 495 431 
f 430 494 495 
f 431 496 432 
f 431 495 496 
f 432 497 433 
f 432 496 497 
f 433 498 434 
f 433 497 498 
f 434 499 435 
f 434 498 499 
f 435 500 436 
f 435 499 500 
f 436 501 437 
f 436 500 501 
f 437 502 438 
f 437 501 502 
f 438 503 439 
f 438 502 503 
f 439 504 440 
f 439 503 504 
f 440 505 441 
f 440 504 505 
f 441 506 442 
f 441 505 506 
f 442 507 443 
f 442 506 507 
f 443 508 444 
f 443 507 508 
f 444 509 445 
f 444 508 509 
f 445 510 446 
f 445 509 510 
f 446 511 447 
f 446 510 511 
f 447 512 448 
f 447 511 512 
f 448 449 385 
f 448 512 449 
f 449 514 450 
f 449 513 514 
f 450 515 451 
f 450 514 515 
f 451 516 452 
f 451 515 516 
f 452 517 453 
f 452 516 517 
f 453 518 454 
f 453 517 518 
f 454 519 455 
f 454 518 519 
f 455 520 456 
f 455 519 520 
f 456 521 457 
f 456 520 521 
f 457 522 458 
f 457 521 522 
f 458 523 459 
f 458 522 523 
f 459 524 460 
f 459 523 524 
f 460 525 461 
f 460 524 525 
f 461 526 462 
f 461 525 526 
f 462 527 463 
f 462 526 527 
f 463 528 464 
f 463 527 528 
f 464 529 465 
f 464 528 529 
f 465 530 466 
f 465 529 530 
f 466 531 467 
f 466 530 531 
f 467 532 468 
f 467 531 532 
f 468 533 469 
f 468 532 533 
f 469 534 470 
f 469 533 534 
f 470 535 471 
f 470 534 535 
f 471 536 472 
f 471 535 536 
f 472 537 473 
f 472 536 537 
f 473 538 474 
f 473 537 538 
f 474 539 475 
f 474 538 539 
f 475 540 476 
f 475 539 540 
f 476 541 477 
f 476 540 541 
f 477 542 478 
f 477 541 542 
f 478 543 479 
f 478 542 543 
f 479 544 480 
f 479 543 544 
f 480 545 481 
f 480 544 545 
f 481 546 482 
f 481 545 546 
f 482 547 483 
f 482 546 547 
f 483 548 484 
f 483 547 548 
f 484 549 485 
f 484 548 549 
f 485 550 486 
f 485 549 550 
f 486 551 487 
f 486 550 551 
f 487 552 488 
f 487 551 552 
f 488 553 489 
f 488 552 553 
f 489 554 490 
f 489 553 554 
f 490 555 491 
f 490 554 555 
f 491 556 492 
f 491 555 556 
f 492 557 493 
f 492 556 557 
f 493 558 494 
f 493 557 558 
f 494 559 495 
f 494 558 559 
f 495 560 496 
f 495 559 560 
f 496 561 497 
f 496 560 561 
f 497 562 498 
f 497 561 562 
f 498 563 499 
f 498 562 563 
f 499 564 500 
f 499 563 564 
f 500 565 501 
f 500 564 565 
f 501 566 502 
f 501 565 566 
f 502 567 503 
f 502 566 567 
f 503 568 504 
f 503 567 568 
f 504 569 505 
f 504 568 569 
f 505 570 506 
f 505 569 570 
f 506 571 507 
f 506 570 571 
f 507 572 508 
f 507 571 572 
f 508 573 509 
f 508 572 573 
f 509 574 510 
f 509 573 574 
f 510 575 511 
f 510 574 575 
f 511 576 512 
f 511 575 576 
f 512 513 449 
f 512 576 513 
f 513 578 514 
f 513 577 578 
f 514 579 515 
f 514 578 579 
f 515 580 516 
f 515 579 580 
f 516 581 517 
f 516 580 581 
f 517 582 518 
f 517 581 582 
f 518 583 519 
f 518 582 583 
f 519 584 520 
f 519 583 584 
f 520 585 521 
f 520 584 585 
f 521 586 522 
f 521 585 586 
f 522 587 523 
f 522 586 587 
f 523 588 524 
f 523 587 588 
f 524 589 525 
f 524 588 589 
f 525 590 526 
f 525 589 590 
f 526 591 527 
f 526 590 591 
f 527 592 528 
f 527 591 592 
f 528 593 529 
f 528 592 593 
f 529 594 530 
f 529 593 594 
f 530 595 531 
f 530 594 595 
f 531 596 532 
f 531 595 596 
f 532 597 533 
f 532 596 597 
f 533 598 534 
f 533 597 598 
f 534 599 535 
f 534 598 599 
f 535 600 536 
f 535 599 600 
f 536 601 537 
f 536 600 601 
f 537 602 538 
f 537 601 602 
f 538 603 539 
f 538 602 603 
f 539 604 540 
f 539 603 604 
f 540 605 541 
f 540 604 605 
f 541 606 542 
f 541 605 606 
f 542 607 543 
f 542 606 607 
f 543 608 544 
f 543 607 608 
f 544 609 545 
f 544 608 609 
f 545 610 546 
f 545 609 610 
f 546 611 547 
f 546 610 611 
f 547 612 548 
f 547 611 612 
f 548 613 549 
f 548 612 613 
f 549 614 550 
f 549 613 614 
f 550 615 551 
f 550 614 615 
f 551 616 552 
f 551 615 616 
f 552 617 553 
f 552 616 617 
f 553 618 554 
f 553 617 618 
f 554 619 555 
f 554 618 619 
f 555 620 556 
f 555 619 620 
f 556 621 557 
f 556 620 621 
f 557 622 558 
f 557 621 622 
f 558 623 559 
f 558 622 623 
f 559 624 560 
f 559 623 624 
f 560 625 561 
f 560 624 625 
f 561 626 562 
f 561 625 626 
f 562 627 563 
f 562 626 627 
f 563 628 564 
f 563 627 628 
f 564 629 565 
f 564 628 629 
f 565 630 566 
f 565 629 630 
f 566 631 567 
f 566 630 631 
f 567 632 568 
f 567 631 632 
f 568 633 569 
f 568 632 633 
f 569 634 570 
f 569 633 634 
f 570 635 571 
f 570 634 635 
f 571 636 572 
f 571 635 636 
f 572 637 573 
f 572 636 637 
f 573 638 574 
f 573 637 638 
f 574 639 575 
f 574 638 639 
f 575 640 576 
f 575 639 640 
f 576 577 513 
f 576 640 577 
