# Branch
v -4.37202 -1.43336 -32.5501
vn -0.570397 0.480495 0.666162
v -4.35816 -1.40804 -32.5587
vn -0.525256 0.562985 0.638086
v -4.34276 -1.38439 -32.5692
vn -0.475057 0.640053 0.603865
v -4.32595 -1.36263 -32.5815
vn -0.420283 0.710957 0.563828
v -4.30789 -1.34297 -32.5954
vn -0.361461 0.775014 0.518362
v -4.28877 -1.3256 -32.6109
vn -0.299158 0.831608 0.467903
v -4.26877 -1.31069 -32.6278
vn -0.233974 0.880192 0.412938
v -4.24807 -1.29838 -32.6459
vn -0.166536 0.9203 0.353997
v -4.22688 -1.28879 -32.665
vn -0.0974953 0.951545 0.291646
v -4.2054 -1.28201 -32.685
vn -0.0275153 0.973626 0.226486
v -4.18385 -1.27811 -32.7057
vn 0.0427298 0.98633 0.159145
v -4.16241 -1.27713 -32.7268
vn 0.112563 0.989535 0.0902719
v -4.14131 -1.27907 -32.7482
vn 0.181313 0.983211 0.0205292
v -4.12075 -1.28392 -32.7697
vn 0.248316 0.967418 -0.0494113
v -4.10092 -1.29162 -32.791
vn 0.312928 0.942308 -0.118876
v -4.08202 -1.30211 -32.812
vn 0.374526 0.908123 -0.187196
v -4.06422 -1.31529 -32.8324
vn 0.432518 0.865193 -0.253713
v -4.0477 -1.33102 -32.8521
vn 0.486344 0.81393 -0.317786
v -4.03262 -1.34916 -32.8708
vn 0.535486 0.754828 -0.3788
v -4.01912 -1.36953 -32.8884
vn 0.579471 0.688457 -0.436165
v -4.00733 -1.39194 -32.9047
vn 0.617876 0.615456 -0.489329
v -3.99737 -1.41616 -32.9196
vn 0.65033 0.536528 -0.537781
v -3.98933 -1.44197 -32.9329
vn 0.676521 0.452433 -0.581054
v -3.98329 -1.46911 -32.9444
vn 0.696197 0.36398 -0.618731
v -3.97931 -1.49734 -32.9541
vn 0.709168 0.272022 -0.65045
v -3.97743 -1.52636 -32.962
vn 0.715309 0.177445 -0.675904
v -3.97766 -1.55591 -32.9678
vn 0.714562 0.0811583 -0.694849
v -3.98 -1.58571 -32.9715
vn 0.706933 -0.0159097 -0.707102
v -3.98443 -1.61545 -32.9732
vn 0.692496 -0.112825 -0.712545
v -3.99091 -1.64486 -32.9728
vn 0.671389 -0.208653 -0.711126
v -3.99937 -1.67365 -32.9702
vn 0.643817 -0.302472 -0.702859
v -4.00973 -1.70155 -32.9656
vn 0.610045 -0.393378 -0.687822
v -4.0219 -1.72829 -32.959
vn 0.570397 -0.480495 -0.666162
v -4.03576 -1.75361 -32.9504
vn 0.525256 -0.562985 -0.638086
v -4.05116 -1.77726 -32.9399
vn 0.475057 -0.640053 -0.603865
v -4.06797 -1.79902 -32.9276
vn 0.420283 -0.710957 -0.563828
v -4.08603 -1.81868 -32.9136
vn 0.361461 -0.775014 -0.518362
v -4.10515 -1.83605 -32.8981
vn 0.299158 -0.831608 -0.467903
v -4.12515 -1.85096 -32.8813
vn 0.233974 -0.880192 -0.412938
v -4.14585 -1.86327 -32.8632
vn 0.166536 -0.9203 -0.353997
v -4.16704 -1.87286 -32.844
vn 0.0974953 -0.951545 -0.291646
v -4.18852 -1.87963 -32.824
vn 0.0275153 -0.973626 -0.226486
v -4.21007 -1.88353 -32.8034
vn -0.0427298 -0.98633 -0.159145
v -4.23151 -1.88452 -32.7822
vn -0.112563 -0.989535 -0.0902719
v -4.25261 -1.88258 -32.7608
vn -0.181313 -0.983211 -0.0205292
v -4.27317 -1.87773 -32.7394
vn -0.248316 -0.967418 0.0494113
v -4.293 -1.87002 -32.718
vn -0.312928 -0.942308 0.118876
v -4.3119 -1.85953 -32.6971
vn -0.374526 -0.908123 0.187196
v -4.3297 -1.84635 -32.6767
vn -0.432518 -0.865193 0.253713
v -4.34622 -1.83062 -32.657
vn -0.486344 -0.81393 0.317786
v -4.3613 -1.81248 -32.6383
vn -0.535486 -0.754828 0.3788
v -4.3748 -1.79211 -32.6207
vn -0.579471 -0.688457 0.436165
v -4.38659 -1.76971 -32.6043
vn -0.617876 -0.615456 0.489329
v -4.39655 -1.74549 -32.5895
vn -0.65033 -0.536528 0.537781
v -4.40459 -1.71968 -32.5762
vn -0.676521 -0.452433 0.581054
v -4.41063 -1.69253 -32.5646
vn -0.696197 -0.36398 0.618731
v -4.41461 -1.66431 -32.5549
vn -0.709168 -0.272022 0.65045
v -4.41649 -1.63528 -32.5471
vn -0.715309 -0.177445 0.675904
v -4.41626 -1.60573 -32.5413
vn -0.714562 -0.0811583 0.694849
v -4.41392 -1.57594 -32.5375
vn -0.706933 0.0159097 0.707102
v -4.40949 -1.5462 -32.5358
vn -0.692496 0.112825 0.712545
v -4.40301 -1.51679 -32.5363
vn -0.671389 0.208653 0.711126
v -4.39455 -1.48799 -32.5388
vn -0.643817 0.302472 0.702859
v -4.38419 -1.46009 -32.5434
vn -0.610045 0.393378 0.687822
v -3.48191 -1.63055 -31.7051
vn -0.537416 0.473331 0.697956
v -3.46862 -1.60617 -31.7134
vn -0.492434 0.555855 0.669727
v -3.45394 -1.58337 -31.7237
vn -0.442709 0.633026 0.635048
v -3.43799 -1.56238 -31.7357
vn -0.388722 0.704101 0.594253
v -3.42093 -1.54339 -31.7495
vn -0.33099 0.768395 0.547735
v -3.40294 -1.52658 -31.7648
vn -0.270071 0.825289 0.495943
v -3.38418 -1.51212 -31.7815
vn -0.206551 0.874235 0.439374
v -3.36482 -1.50015 -31.7995
vn -0.141042 0.914762 0.378574
v -3.34507 -1.49078 -31.8185
vn -0.0741741 0.946479 0.314127
v -3.32511 -1.48411 -31.8384
vn -0.0065922 0.969081 0.246656
v -3.30513 -1.48019 -31.8591
vn 0.0610532 0.98235 0.176809
v -3.28532 -1.47906 -31.8802
vn 0.128111 0.986158 0.105259
v -3.26587 -1.48074 -31.9016
vn 0.193934 0.98047 0.0326961
v -3.24698 -1.48521 -31.9231
vn 0.25789 0.965338 -0.0401821
v -3.22882 -1.49243 -31.9446
vn 0.319362 0.94091 -0.112673
v -3.21157 -1.50232 -31.9657
vn 0.377759 0.907421 -0.184079
v -3.1954 -1.51479 -31.9862
vn 0.432518 0.865193 -0.253713
v -3.18045 -1.52973 -32.0061
vn 0.483111 0.814632 -0.320903
v -3.16688 -1.54698 -32.025
vn 0.529052 0.756226 -0.385002
v -3.15482 -1.56639 -32.0428
vn 0.569897 0.690537 -0.445394
v -3.14437 -1.58775 -32.0594
vn 0.605254 0.618198 -0.501496
v -3.13565 -1.61088 -32.0746
vn 0.634783 0.539905 -0.552769
v -3.12873 -1.63555 -32.0881
vn 0.658198 0.456413 -0.598718
v -3.12369 -1.66151 -32.1
vn 0.675274 0.368525 -0.638901
v -3.12057 -1.68852 -32.1101
vn 0.685847 0.277088 -0.672931
v -3.1194 -1.71631 -32.1182
vn 0.689814 0.182983 -0.700481
v -3.12019 -1.74463 -32.1243
vn 0.687139 0.0871152 -0.721284
v -3.12293 -1.7732 -32.1284
vn 0.677846 -0.00959141 -0.735141
v -3.1276 -1.80174 -32.1304
vn 0.662025 -0.106206 -0.741919
v -3.13416 -1.82998 -32.1303
vn 0.639828 -0.201797 -0.741551
v -3.14254 -1.85764 -32.1281
vn 0.61147 -0.295445 -0.734042
v -3.15265 -1.88446 -32.1238
vn 0.577222 -0.386248 -0.719463
v -3.16441 -1.91019 -32.1175
vn 0.537416 -0.473331 -0.697956
v -3.1777 -1.93456 -32.1091
vn 0.492434 -0.555855 -0.669727
v -3.19239 -1.95736 -32.0989
vn 0.442709 -0.633026 -0.635048
v -3.20834 -1.97835 -32.0868
vn 0.388722 -0.704101 -0.594253
v -3.22539 -1.99735 -32.0731
vn 0.33099 -0.768395 -0.547735
v -3.24338 -2.01415 -32.0578
vn 0.270071 -0.825289 -0.495943
v -3.26215 -2.02861 -32.0411
vn 0.206551 -0.874235 -0.439374
v -3.2815 -2.04058 -32.0231
vn 0.141042 -0.914762 -0.378574
v -3.30125 -2.04995 -32.0041
vn 0.0741741 -0.946479 -0.314127
v -3.32121 -2.05663 -31.9841
vn 0.0065922 -0.969081 -0.246656
v -3.3412 -2.06055 -31.9635
vn -0.0610532 -0.98235 -0.176809
v -3.361 -2.06167 -31.9424
vn -0.128111 -0.986158 -0.105259
v -3.38045 -2.05999 -31.9209
vn -0.193934 -0.98047 -0.0326961
v -3.39934 -2.05552 -31.8994
vn -0.25789 -0.965338 0.0401821
v -3.4175 -2.04831 -31.878
vn -0.319362 -0.94091 0.112673
v -3.43475 -2.03841 -31.8569
vn -0.377759 -0.907421 0.184079
v -3.45092 -2.02594 -31.8363
vn -0.432518 -0.865193 0.253713
v -3.46587 -2.011 -31.8165
vn -0.483111 -0.814632 0.320903
v -3.47944 -1.99375 -31.7976
vn -0.529052 -0.756226 0.385002
v -3.49151 -1.97435 -31.7797
vn -0.569897 -0.690537 0.445394
v -3.50195 -1.95298 -31.7631
vn -0.605254 -0.618198 0.501496
v -3.51067 -1.92985 -31.748
vn -0.634783 -0.539905 0.552769
v -3.51759 -1.90519 -31.7344
vn -0.658198 -0.456413 0.598718
v -3.52263 -1.87923 -31.7226
vn -0.675274 -0.368525 0.638901
v -3.52576 -1.85222 -31.7125
vn -0.685847 -0.277088 0.672931
v -3.52693 -1.82442 -31.7044
vn -0.689814 -0.182983 0.700481
v -3.52614 -1.7961 -31.6982
vn -0.687139 -0.0871152 0.721284
v -3.52339 -1.76753 -31.6941
vn -0.677846 0.00959141 0.735141
v -3.51872 -1.73899 -31.6921
vn -0.662025 0.106206 0.741919
v -3.51216 -1.71076 -31.6922
vn -0.639828 0.201797 0.741551
v -3.50379 -1.68309 -31.6944
vn -0.61147 0.295445 0.734042
v -3.49367 -1.65627 -31.6988
vn -0.577222 0.386248 0.719463
v -2.60511 -1.84544 -30.9432
vn -0.499445 0.464184 0.731497
v -2.5924 -1.822 -30.9512
vn -0.454646 0.546753 0.703106
v -2.57844 -1.80005 -30.9612
vn -0.405468 0.624056 0.667944
v -2.56337 -1.77981 -30.973
vn -0.352386 0.695349 0.62635
v -2.54733 -1.76147 -30.9865
vn -0.29591 0.759945 0.578723
v -2.53049 -1.74521 -31.0017
vn -0.236584 0.817223 0.525523
v -2.513 -1.73119 -31.0182
vn -0.174979 0.86663 0.467262
v -2.49504 -1.71953 -31.036
vn -0.11169 0.907692 0.404501
v -2.47677 -1.71036 -31.0549
vn -0.0473248 0.940012 0.337844
v -2.45836 -1.70375 -31.0748
vn 0.0174961 0.963278 0.267934
v -2.44001 -1.69978 -31.0954
vn 0.0821486 0.977268 0.195443
v -2.42188 -1.69848 -31.1165
vn 0.14601 0.981847 0.12107
v -2.40415 -1.69987 -31.1379
vn 0.208465 0.976969 0.0455316
v -2.38699 -1.70392 -31.1595
vn 0.268912 0.962683 -0.0304457
v -2.37057 -1.71061 -31.181
vn 0.32677 0.939126 -0.10613
v -2.35504 -1.71986 -31.2022
vn 0.381481 0.906524 -0.180792
v -2.34055 -1.7316 -31.2229
vn 0.432518 0.865193 -0.253713
v -2.32724 -1.7457 -31.2429
vn 0.479389 0.815528 -0.32419
v -2.31525 -1.76202 -31.262
vn 0.521644 0.75801 -0.391546
v -2.30468 -1.78042 -31.28
vn 0.558875 0.693192 -0.45513
v -2.29564 -1.80072 -31.2968
vn 0.590724 0.621698 -0.514332
v -2.28821 -1.82272 -31.3122
vn 0.616883 0.544217 -0.56858
v -2.28247 -1.8462 -31.3261
vn 0.637102 0.461494 -0.617352
v -2.27847 -1.87094 -31.3382
vn 0.651185 0.374327 -0.660179
v -2.27625 -1.89671 -31.3486
vn 0.658997 0.283556 -0.696648
v -2.27584 -1.92326 -31.3571
vn 0.660463 0.190053 -0.726408
v -2.27723 -1.95032 -31.3635
vn 0.655567 0.09472 -0.749173
v -2.28041 -1.97764 -31.3679
vn 0.644359 -0.00152515 -0.764722
v -2.28535 -2.00496 -31.3703
vn 0.626944 -0.0977556 -0.772906
v -2.29201 -2.03201 -31.3705
vn 0.603492 -0.193045 -0.773648
v -2.30032 -2.05853 -31.3686
vn 0.574228 -0.286475 -0.766938
v -2.3102 -2.08427 -31.3646
vn 0.539434 -0.377146 -0.752843
v -2.32155 -2.10898 -31.3585
vn 0.499445 -0.464184 -0.731497
v -2.33427 -2.13242 -31.3504
vn 0.454646 -0.546753 -0.703106
v -2.34823 -2.15437 -31.3405
vn 0.405468 -0.624056 -0.667944
v -2.3633 -2.1746 -31.3286
vn 0.352386 -0.695349 -0.62635
v -2.37933 -2.19294 -31.3151
vn 0.29591 -0.759945 -0.578723
v -2.39617 -2.2092 -31.3
vn 0.236584 -0.817223 -0.525523
v -2.41366 -2.22323 -31.2835
vn 0.174979 -0.86663 -0.467262
v -2.43162 -2.23488 -31.2657
vn 0.11169 -0.907692 -0.404501
v -2.4499 -2.24406 -31.2467
vn 0.0473248 -0.940012 -0.337844
v -2.4683 -2.25066 -31.2269
vn -0.0174961 -0.963278 -0.267934
v -2.48665 -2.25464 -31.2063
vn -0.0821486 -0.977268 -0.195443
v -2.50478 -2.25594 -31.1852
vn -0.14601 -0.981847 -0.12107
v -2.52251 -2.25455 -31.1638
vn -0.208465 -0.976969 -0.0455316
v -2.53967 -2.2505 -31.1422
vn -0.268912 -0.962683 0.0304457
v -2.5561 -2.24381 -31.1207
vn -0.32677 -0.939126 0.10613
v -2.57163 -2.23455 -31.0995
vn -0.381481 -0.906524 0.180792
v -2.58611 -2.22282 -31.0788
vn -0.432518 -0.865193 0.253713
v -2.59942 -2.20872 -31.0588
vn -0.479389 -0.815528 0.32419
v -2.61142 -2.19239 -31.0397
vn -0.521644 -0.75801 0.391546
v -2.62199 -2.17399 -31.0216
vn -0.558875 -0.693192 0.45513
v -2.63103 -2.1537 -31.0048
vn -0.590724 -0.621698 0.514332
v -2.63845 -2.1317 -30.9894
vn -0.616883 -0.544217 0.56858
v -2.64419 -2.10822 -30.9756
vn -0.637102 -0.461494 0.617352
v -2.64819 -2.08347 -30.9634
vn -0.651185 -0.374327 0.660179
v -2.65041 -2.0577 -30.9531
vn -0.658997 -0.283556 0.696648
v -2.65082 -2.03116 -30.9446
vn -0.660463 -0.190053 0.726408
v -2.64943 -2.0041 -30.9382
vn -0.655567 -0.09472 0.749173
v -2.64625 -1.97678 -30.9337
vn -0.644359 0.00152515 0.764722
v -2.64131 -1.94946 -30.9314
vn -0.626944 0.0977556 0.772906
v -2.63465 -1.92241 -30.9312
vn -0.603492 0.193045 0.773648
v -2.62634 -1.89588 -30.9331
vn -0.574228 0.286475 0.766938
v -2.61647 -1.87014 -30.9371
vn -0.539434 0.377146 0.752843
v -1.7416 -2.07808 -30.2644
vn -0.455732 0.452587 0.766468
v -1.72945 -2.05557 -30.2722
vn -0.411143 0.535211 0.73791
v -1.71623 -2.03447 -30.2819
vn -0.362595 0.612681 0.702244
v -1.70205 -2.01498 -30.2935
vn -0.310555 0.684251 0.659816
v -1.68707 -1.99728 -30.3068
vn -0.255524 0.749231 0.611033
v -1.67141 -1.98155 -30.3217
vn -0.198032 0.806995 0.556365
v -1.65523 -1.96793 -30.338
vn -0.138633 0.856987 0.49634
v -1.63869 -1.95656 -30.3557
vn -0.0778989 0.898727 0.431534
v -1.62194 -1.94755 -30.3744
vn -0.0164146 0.931811 0.362573
v -1.60515 -1.94098 -30.3942
vn 0.0452277 0.955921 0.29012
v -1.58848 -1.93693 -30.4147
vn 0.106435 0.970825 0.214873
v -1.57209 -1.93541 -30.4357
vn 0.166616 0.97638 0.137556
v -1.55613 -1.93646 -30.4571
vn 0.225193 0.972531 0.0589148
v -1.54077 -1.94006 -30.4787
vn 0.281602 0.959317 -0.0202939
v -1.52614 -1.94618 -30.5002
vn 0.335298 0.936863 -0.0993072
v -1.5124 -1.95475 -30.5215
vn 0.385766 0.905388 -0.177364
v -1.49966 -1.9657 -30.5423
vn 0.432518 0.865193 -0.253713
v -1.48806 -1.97891 -30.5624
vn 0.475105 0.816665 -0.327618
v -1.47771 -1.99427 -30.5817
vn 0.513116 0.760273 -0.398368
v -1.4687 -2.01163 -30.5999
vn 0.546186 0.696559 -0.465282
v -1.46113 -2.03081 -30.6169
vn 0.573995 0.626136 -0.527715
v -1.45506 -2.05163 -30.6325
vn 0.596277 0.549684 -0.585065
v -1.45056 -2.0739 -30.6466
vn 0.612816 0.467938 -0.636782
v -1.44766 -2.09739 -30.659
vn 0.623454 0.381685 -0.682365
v -1.4464 -2.12188 -30.6697
vn 0.628087 0.291756 -0.721377
v -1.44678 -2.14714 -30.6784
vn 0.626672 0.199018 -0.753442
v -1.44881 -2.17292 -30.6852
vn 0.619221 0.104363 -0.77825
v -1.45247 -2.19898 -30.6899
vn 0.605807 0.00870297 -0.795564
v -1.45771 -2.22506 -30.6925
vn 0.586558 -0.0870409 -0.805216
v -1.46449 -2.2509 -30.693
vn 0.561661 -0.181946 -0.807114
v -1.47274 -2.27628 -30.6914
vn 0.531355 -0.2751 -0.801238
v -1.48239 -2.30093 -30.6877
vn 0.495931 -0.365604 -0.787646
v -1.49334 -2.32462 -30.682
vn 0.455732 -0.452587 -0.766468
v -1.50549 -2.34712 -30.6742
vn 0.411143 -0.535211 -0.73791
v -1.51871 -2.36822 -30.6645
vn 0.362595 -0.612681 -0.702244
v -1.53288 -2.38772 -30.6529
vn 0.310555 -0.684251 -0.659816
v -1.54787 -2.40541 -30.6396
vn 0.255524 -0.749231 -0.611033
v -1.56353 -2.42115 -30.6247
vn 0.198032 -0.806995 -0.556365
v -1.57971 -2.43476 -30.6084
vn 0.138633 -0.856987 -0.49634
v -1.59625 -2.44613 -30.5907
vn 0.0778989 -0.898727 -0.431534
v -1.613 -2.45514 -30.5719
vn 0.0164146 -0.931811 -0.362573
v -1.62979 -2.46171 -30.5522
vn -0.0452277 -0.955921 -0.29012
v -1.64646 -2.46577 -30.5317
vn -0.106435 -0.970825 -0.214873
v -1.66285 -2.46728 -30.5107
vn -0.166616 -0.97638 -0.137556
v -1.6788 -2.46624 -30.4892
vn -0.225193 -0.972531 -0.0589148
v -1.69417 -2.46264 -30.4677
vn -0.281602 -0.959317 0.0202939
v -1.70879 -2.45652 -30.4461
vn -0.335298 -0.936863 0.0993072
v -1.72254 -2.44795 -30.4249
vn -0.385766 -0.905388 0.177364
v -1.73527 -2.437 -30.4041
vn -0.432518 -0.865193 0.253713
v -1.74687 -2.42378 -30.384
vn -0.475105 -0.816665 0.327618
v -1.75723 -2.40842 -30.3647
vn -0.513116 -0.760273 0.398368
v -1.76623 -2.39107 -30.3465
vn -0.546186 -0.696559 0.465282
v -1.77381 -2.37189 -30.3295
vn -0.573995 -0.626136 0.527715
v -1.77988 -2.35106 -30.3138
vn -0.596277 -0.549684 0.585065
v -1.78438 -2.3288 -30.2998
vn -0.612816 -0.467938 0.636782
v -1.78728 -2.30531 -30.2873
vn -0.623454 -0.381685 0.682365
v -1.78854 -2.28081 -30.2767
vn -0.628087 -0.291756 0.721377
v -1.78815 -2.25555 -30.268
vn -0.626672 -0.199018 0.753442
v -1.78612 -2.22977 -30.2612
vn -0.619221 -0.104363 0.77825
v -1.78247 -2.20372 -30.2565
vn -0.605807 -0.00870297 0.795564
v -1.77723 -2.17764 -30.2539
vn -0.586558 0.0870409 0.805216
v -1.77045 -2.15179 -30.2534
vn -0.561661 0.181946 0.807114
v -1.76219 -2.12642 -30.255
vn -0.531355 0.2751 0.801238
v -1.75254 -2.10177 -30.2587
vn -0.495931 0.365604 0.787646
v -0.891352 -2.32853 -29.6691
vn -0.405506 0.437994 0.802326
v -0.879784 -2.30696 -29.6766
vn -0.361159 0.520688 0.773594
v -0.867309 -2.2867 -29.686
vn -0.313334 0.598368 0.737412
v -0.854046 -2.26794 -29.6973
vn -0.262492 0.670286 0.694129
v -0.840124 -2.25086 -29.7103
vn -0.209121 0.735748 0.644161
v -0.825677 -2.23563 -29.725
vn -0.153737 0.794125 0.587989
v -0.810843 -2.2224 -29.7411
vn -0.0968718 0.844854 0.526154
v -0.795766 -2.21129 -29.7586
vn -0.0390739 0.887446 0.459253
v -0.780591 -2.20241 -29.7772
vn 0.0191003 0.921492 0.387928
v -0.765464 -2.19584 -29.7967
vn 0.0770906 0.946663 0.312867
v -0.75053 -2.19165 -29.8171
vn 0.134338 0.962718 0.234794
v -0.735934 -2.18988 -29.8381
vn 0.190292 0.9695 0.154459
v -0.721817 -2.19055 -29.8594
vn 0.244414 0.966947 0.0726368
v -0.708313 -2.19365 -29.8809
vn 0.296182 0.955081 -0.0098851
v -0.695553 -2.19914 -29.9024
vn 0.345097 0.934016 -0.0923117
v -0.68366 -2.20698 -29.9237
vn 0.390689 0.903957 -0.173849
v -0.672748 -2.21709 -29.9445
vn 0.432518 0.865193 -0.253713
v -0.662924 -2.22938 -29.9647
vn 0.470182 0.818096 -0.331133
v -0.65428 -2.24372 -29.9841
vn 0.503317 0.76312 -0.405364
v -0.646901 -2.25998 -30.0024
vn 0.531606 0.700795 -0.475691
v -0.640857 -2.278 -30.0196
vn 0.554775 0.631721 -0.541437
v -0.636207 -2.2976 -30.0354
vn 0.572601 0.556563 -0.601968
v -0.632995 -2.31861 -30.0497
vn 0.584912 0.476045 -0.656703
v -0.631253 -2.34081 -30.0623
vn 0.591591 0.390943 -0.705113
v -0.630997 -2.36399 -30.0731
vn 0.592572 0.302075 -0.746732
v -0.63223 -2.38793 -30.0821
vn 0.587847 0.210299 -0.78116
v -0.634939 -2.4124 -30.0891
vn 0.57746 0.116497 -0.808065
v -0.6391 -2.43716 -30.0941
vn 0.561512 0.0215731 -0.827188
v -0.64467 -2.46197 -30.097
vn 0.540156 -0.0735584 -0.838344
v -0.651598 -2.4866 -30.0978
vn 0.513598 -0.167982 -0.841427
v -0.659816 -2.51081 -30.0965
vn 0.482094 -0.260787 -0.836406
v -0.669245 -2.53437 -30.0931
vn 0.445947 -0.351081 -0.823331
v -0.679795 -2.55704 -30.0876
vn 0.405506 -0.437994 -0.802326
v -0.691363 -2.57861 -30.0801
vn 0.361159 -0.520688 -0.773594
v -0.703838 -2.59887 -30.0707
vn 0.313334 -0.598368 -0.737412
v -0.717101 -2.61763 -30.0594
vn 0.262492 -0.670286 -0.694129
v -0.731023 -2.63471 -30.0464
vn 0.209121 -0.735748 -0.644161
v -0.74547 -2.64994 -30.0317
vn 0.153737 -0.794125 -0.587989
v -0.760304 -2.66317 -30.0156
vn 0.0968718 -0.844854 -0.526154
v -0.775381 -2.67428 -29.9981
vn 0.0390739 -0.887446 -0.459253
v -0.790556 -2.68316 -29.9795
vn -0.0191003 -0.921492 -0.387928
v -0.805683 -2.68973 -29.96
vn -0.0770906 -0.946663 -0.312867
v -0.820617 -2.69392 -29.9396
vn -0.134338 -0.962718 -0.234794
v -0.835213 -2.69569 -29.9186
vn -0.190292 -0.9695 -0.154459
v -0.84933 -2.69502 -29.8973
vn -0.244414 -0.966947 -0.0726368
v -0.862834 -2.69192 -29.8758
vn -0.296182 -0.955081 0.0098851
v -0.875594 -2.68643 -29.8543
vn -0.345097 -0.934016 0.0923117
v -0.887487 -2.67859 -29.833
vn -0.390689 -0.903957 0.173849
v -0.898399 -2.66848 -29.8122
vn -0.432518 -0.865193 0.253713
v -0.908223 -2.65619 -29.792
vn -0.470182 -0.818096 0.331133
v -0.916867 -2.64185 -29.7726
vn -0.503317 -0.76312 0.405364
v -0.924246 -2.62559 -29.7543
vn -0.531606 -0.700795 0.475691
v -0.93029 -2.60757 -29.7371
vn -0.554775 -0.631721 0.541437
v -0.93494 -2.58797 -29.7213
vn -0.572601 -0.556563 0.601968
v -0.938152 -2.56696 -29.707
vn -0.584912 -0.476045 0.656703
v -0.939894 -2.54477 -29.6944
vn -0.591591 -0.390943 0.705113
v -0.94015 -2.52158 -29.6836
vn -0.592572 -0.302075 0.746732
v -0.938917 -2.49764 -29.6746
vn -0.587847 -0.210299 0.78116
v -0.936208 -2.47317 -29.6676
vn -0.57746 -0.116497 0.808065
v -0.932047 -2.44841 -29.6626
vn -0.561512 -0.0215731 0.827188
v -0.926477 -2.4236 -29.6597
vn -0.540156 0.0735584 0.838344
v -0.919549 -2.39897 -29.6589
vn -0.513598 0.167982 0.841427
v -0.911331 -2.37476 -29.6602
vn -0.482094 0.260787 0.836406
v -0.901902 -2.3512 -29.6636
vn -0.445947 0.351081 0.823331
v -0.0544332 -2.59685 -29.1573
vn -0.34806 0.419803 0.838224
v -0.0434445 -2.5762 -29.1645
vn -0.30399 0.502585 0.80932
v -0.0317259 -2.55677 -29.1737
vn -0.256992 0.580527 0.772621
v -0.0193902 -2.53873 -29.1847
vn -0.20752 0.652878 0.728482
v -0.00655612 -2.52226 -29.1974
vn -0.156048 0.718942 0.677326
v 0.00665266 -2.50751 -29.2118
vn -0.103074 0.778082 0.619648
v 0.020109 -2.49463 -29.2277
vn -0.0491075 0.829729 0.556003
v 0.0336832 -2.48375 -29.2449
vn 0.00533221 0.873384 0.487002
v 0.0472446 -2.47496 -29.2632
vn 0.0597205 0.908629 0.413312
v 0.0606626 -2.46835 -29.2826
vn 0.113534 0.935123 0.335641
v 0.073808 -2.46399 -29.3028
vn 0.166254 0.952611 0.254738
v 0.0865541 -2.46192 -29.3236
vn 0.217372 0.960925 0.171381
v 0.0987783 -2.46215 -29.3448
vn 0.266397 0.959985 0.0863744
v 0.110363 -2.46469 -29.3662
vn 0.312857 0.9498 0.000535633
v 0.121196 -2.46951 -29.3876
vn 0.356304 0.930468 -0.0853083
v 0.131174 -2.47657 -29.4088
vn 0.396319 0.902174 -0.170331
v 0.140199 -2.48579 -29.4296
vn 0.432518 0.865193 -0.253713
v 0.148187 -2.49709 -29.4497
vn 0.464551 0.819879 -0.334651
v 0.155058 -2.51036 -29.4691
vn 0.49211 0.766669 -0.412367
v 0.160748 -2.52546 -29.4875
vn 0.51493 0.706075 -0.486112
v 0.165202 -2.54227 -29.5047
vn 0.532791 0.638682 -0.555175
v 0.168376 -2.56061 -29.5206
vn 0.545521 0.565138 -0.618891
v 0.17024 -2.5803 -29.535
vn 0.552997 0.486151 -0.676647
v 0.170777 -2.60116 -29.5478
vn 0.555148 0.402483 -0.727886
v 0.16998 -2.62299 -29.5588
vn 0.551952 0.314938 -0.772116
v 0.167857 -2.64558 -29.568
vn 0.543441 0.22436 -0.80891
v 0.16443 -2.6687 -29.5752
vn 0.529695 0.131622 -0.837913
v 0.159731 -2.69214 -29.5805
vn 0.510849 0.0376159 -0.858847
v 0.153805 -2.71567 -29.5836
vn 0.487083 -0.0567524 -0.87151
v 0.146709 -2.73907 -29.5847
vn 0.458626 -0.150574 -0.875779
v 0.138512 -2.7621 -29.5836
vn 0.425752 -0.242946 -0.871615
v 0.129293 -2.78455 -29.5805
vn 0.388778 -0.332978 -0.859056
v 0.11914 -2.8062 -29.5753
vn 0.34806 -0.419803 -0.838224
v 0.108152 -2.82684 -29.5681
vn 0.30399 -0.502585 -0.80932
v 0.0964332 -2.84627 -29.559
vn 0.256992 -0.580527 -0.772621
v 0.0840974 -2.86431 -29.5479
vn 0.20752 -0.652878 -0.728482
v 0.0712634 -2.88078 -29.5352
vn 0.156048 -0.718942 -0.677326
v 0.0580546 -2.89553 -29.5208
vn 0.103074 -0.778082 -0.619648
v 0.0445983 -2.90841 -29.5049
vn 0.0491075 -0.829729 -0.556003
v 0.0310241 -2.91929 -29.4877
vn -0.00533221 -0.873384 -0.487002
v 0.0174626 -2.92808 -29.4694
vn -0.0597205 -0.908629 -0.413312
v 0.00404464 -2.93469 -29.45
vn -0.113534 -0.935123 -0.335641
v -0.00910073 -2.93905 -29.4298
vn -0.166254 -0.952611 -0.254738
v -0.0218469 -2.94112 -29.409
vn -0.217372 -0.960925 -0.171381
v -0.034071 -2.94089 -29.3878
vn -0.266397 -0.959985 -0.0863744
v -0.0456555 -2.93835 -29.3664
vn -0.312857 -0.9498 -0.000535633
v -0.0564887 -2.93353 -29.345
vn -0.356304 -0.930468 0.0853083
v -0.0664663 -2.92647 -29.3238
vn -0.396319 -0.902174 0.170331
v -0.0754922 -2.91725 -29.303
vn -0.432518 -0.865193 0.253713
v -0.0834795 -2.90595 -29.2829
vn -0.464551 -0.819879 0.334651
v -0.0903512 -2.89268 -29.2635
vn -0.49211 -0.766669 0.412367
v -0.0960413 -2.87758 -29.2451
vn -0.51493 -0.706075 0.486112
v -0.100495 -2.86077 -29.2279
vn -0.532791 -0.638682 0.555175
v -0.103669 -2.84243 -29.212
vn -0.545521 -0.565138 0.618891
v -0.105533 -2.82274 -29.1976
vn -0.552997 -0.486151 0.676647
v -0.106069 -2.80188 -29.1848
vn -0.555148 -0.402483 0.727886
v -0.105272 -2.78005 -29.1738
vn -0.551952 -0.314938 0.772116
v -0.10315 -2.75746 -29.1646
vn -0.543441 -0.22436 0.80891
v -0.0997229 -2.73434 -29.1574
vn -0.529695 -0.131622 0.837913
v -0.0950237 -2.7109 -29.1522
vn -0.510849 -0.0376159 0.858847
v -0.0890977 -2.68737 -29.149
vn -0.487083 0.0567524 0.87151
v -0.0820021 -2.66398 -29.1479
vn -0.458626 0.150574 0.875779
v -0.0738053 -2.64094 -29.149
vn -0.425752 0.242946 0.871615
v -0.064586 -2.61849 -29.1521
vn -0.388778 0.332978 0.859056
v 0.769037 -2.88304 -28.7294
vn -0.28287 0.3974 0.872959
v 0.779444 -2.86333 -28.7364
vn -0.239114 0.48029 0.843888
v 0.790398 -2.84471 -28.7452
vn -0.193055 0.558554 0.806689
v 0.801795 -2.82738 -28.7559
vn -0.145137 0.63144 0.761721
v 0.813524 -2.81149 -28.7683
vn -0.0958206 0.698244 0.709418
v 0.825472 -2.7972 -28.7824
vn -0.0455818 0.758324 0.650282
v 0.837525 -2.78465 -28.798
vn 0.00509605 0.811101 0.584884
v 0.849566 -2.77395 -28.8149
vn 0.0557248 0.856067 0.513853
v 0.86148 -2.76522 -28.8329
vn 0.105817 0.892788 0.437873
v 0.873151 -2.75853 -28.852
vn 0.15489 0.920911 0.357677
v 0.884467 -2.75395 -28.8719
vn 0.202471 0.940165 0.274036
v 0.89532 -2.75153 -28.8924
vn 0.248103 0.950365 0.187755
v 0.905604 -2.75128 -28.9134
vn 0.291345 0.951412 0.099667
v 0.915221 -2.75321 -28.9345
vn 0.331781 0.943297 0.0106187
v 0.924078 -2.7573 -28.9557
vn 0.369022 0.926097 -0.0785318
v 0.93209 -2.76351 -28.9768
vn 0.402709 0.899978 -0.166926
v 0.939179 -2.77178 -28.9974
vn 0.432518 0.865193 -0.253713
v 0.945278 -2.78204 -29.0175
vn 0.458161 0.822074 -0.338056
v 0.950328 -2.79418 -29.0367
vn 0.479392 0.771039 -0.419144
v 0.954279 -2.80808 -29.0551
vn 0.496007 0.712579 -0.496195
v 0.957094 -2.82362 -29.0723
vn 0.507844 0.647255 -0.568467
v 0.958747 -2.84063 -29.0881
vn 0.514791 0.575699 -0.635265
v 0.95922 -2.85897 -29.1026
vn 0.51678 0.498598 -0.695945
v 0.958509 -2.87845 -29.1154
vn 0.513792 0.416695 -0.749922
v 0.956622 -2.89888 -29.1265
vn 0.505856 0.33078 -0.796677
v 0.953575 -2.92007 -29.1358
vn 0.493048 0.241678 -0.83576
v 0.9494 -2.94182 -29.1432
vn 0.475492 0.150249 -0.866794
v 0.944136 -2.96391 -29.1486
vn 0.453357 0.0573737 -0.889481
v 0.937833 -2.98613 -29.152
vn 0.426855 -0.0360546 -0.903601
v 0.930552 -3.00827 -29.1533
vn 0.396243 -0.129136 -0.909019
v 0.922364 -3.03011 -29.1525
vn 0.361815 -0.220973 -0.905683
v 0.913347 -3.05144 -29.1496
vn 0.323902 -0.310682 -0.893624
v 0.903588 -3.07207 -29.1447
vn 0.28287 -0.3974 -0.872959
v 0.893182 -3.09178 -29.1378
vn 0.239114 -0.48029 -0.843888
v 0.882228 -3.1104 -29.1289
vn 0.193055 -0.558554 -0.806689
v 0.870831 -3.12773 -29.1182
vn 0.145137 -0.63144 -0.761721
v 0.859102 -3.14362 -29.1058
vn 0.0958206 -0.698244 -0.709418
v 0.847154 -3.15791 -29.0917
vn 0.0455818 -0.758324 -0.650282
v 0.835101 -3.17046 -29.0762
vn -0.00509605 -0.811101 -0.584884
v 0.82306 -3.18115 -29.0593
vn -0.0557248 -0.856067 -0.513853
v 0.811146 -3.18989 -29.0412
vn -0.105817 -0.892788 -0.437873
v 0.799475 -3.19658 -29.0221
vn -0.15489 -0.920911 -0.357677
v 0.788159 -3.20115 -29.0022
vn -0.202471 -0.940165 -0.274036
v 0.777306 -3.20358 -28.9817
vn -0.248103 -0.950365 -0.187755
v 0.767022 -3.20383 -28.9608
vn -0.291345 -0.951412 -0.099667
v 0.757405 -3.2019 -28.9396
vn -0.331781 -0.943297 -0.0106187
v 0.748548 -3.19781 -28.9184
vn -0.369022 -0.926097 0.0785318
v 0.740536 -3.1916 -28.8974
vn -0.402709 -0.899978 0.166926
v 0.733446 -3.18332 -28.8767
vn -0.432518 -0.865193 0.253713
v 0.727348 -3.17307 -28.8567
vn -0.458161 -0.822074 0.338056
v 0.722298 -3.16093 -28.8374
vn -0.479392 -0.771039 0.419144
v 0.718347 -3.14703 -28.8191
vn -0.496007 -0.712579 0.496195
v 0.715531 -3.13149 -28.8019
vn -0.507844 -0.647255 0.568467
v 0.713879 -3.11447 -28.786
vn -0.514791 -0.575699 0.635265
v 0.713406 -3.09614 -28.7715
vn -0.51678 -0.498598 0.695945
v 0.714117 -3.07666 -28.7587
vn -0.513792 -0.416695 0.749922
v 0.716004 -3.05622 -28.7476
vn -0.505856 -0.33078 0.796677
v 0.71905 -3.03503 -28.7383
vn -0.493048 -0.241678 0.83576
v 0.723226 -3.01329 -28.7309
vn -0.475492 -0.150249 0.866794
v 0.72849 -2.9912 -28.7255
vn -0.453357 -0.0573737 0.889481
v 0.734793 -2.96898 -28.7222
vn -0.426855 0.0360546 0.903601
v 0.742074 -2.94684 -28.7209
vn -0.396243 0.129136 0.909019
v 0.750262 -2.925 -28.7217
vn -0.361815 0.220973 0.905683
v 0.759279 -2.90366 -28.7245
vn -0.323902 0.310682 0.893624
v 1.57883 -3.18709 -28.3858
vn -0.209764 0.370233 0.904946
v 1.58865 -3.1683 -28.3924
vn -0.16636 0.453254 0.87572
v 1.59884 -3.1505 -28.4009
vn -0.121354 0.53191 0.83806
v 1.60929 -3.13386 -28.4113
vn -0.0751785 0.605443 0.79233
v 1.6199 -3.11854 -28.4234
vn -0.0282794 0.673146 0.738969
v 1.63058 -3.10468 -28.4371
vn 0.018892 0.734365 0.678491
v 1.64121 -3.09243 -28.4522
vn 0.0658815 0.788513 0.611479
v 1.65171 -3.08189 -28.4687
vn 0.112236 0.835066 0.538579
v 1.66195 -3.07318 -28.4864
vn 0.157511 0.873578 0.460491
v 1.67186 -3.06636 -28.5051
vn 0.201268 0.903676 0.377969
v 1.68132 -3.06152 -28.5246
vn 0.243087 0.925072 0.291806
v 1.69025 -3.0587 -28.5447
vn 0.282564 0.937558 0.202834
v 1.69857 -3.05791 -28.5653
vn 0.319321 0.941016 0.111908
v 1.7062 -3.05918 -28.5861
vn 0.353002 0.935411 0.0199038
v 1.71305 -3.06249 -28.607
vn 0.383284 0.920797 -0.0722916
v 1.71907 -3.0678 -28.6277
vn 0.409875 0.897316 -0.163791
v 1.72419 -3.07507 -28.648
vn 0.432518 0.865193 -0.253713
v 1.72837 -3.08423 -28.6678
vn 0.450996 0.824737 -0.341191
v 1.73157 -3.09518 -28.6869
vn 0.46513 0.776339 -0.425384
v 1.73376 -3.10783 -28.705
vn 0.474785 0.720465 -0.50548
v 1.73491 -3.12205 -28.722
vn 0.479868 0.657652 -0.580708
v 1.73501 -3.13769 -28.7378
vn 0.480329 0.588505 -0.650343
v 1.73407 -3.15463 -28.7521
vn 0.476164 0.513691 -0.713715
v 1.73209 -3.17268 -28.7649
vn 0.467414 0.43393 -0.770214
v 1.72909 -3.19168 -28.776
vn 0.454162 0.349989 -0.819295
v 1.7251 -3.21144 -28.7854
vn 0.436536 0.262678 -0.860486
v 1.72016 -3.23177 -28.7928
vn 0.414707 0.172838 -0.89339
v 1.71432 -3.25248 -28.7983
vn 0.388883 0.0813325 -0.91769
v 1.70762 -3.27336 -28.8018
vn 0.359314 -0.0109559 -0.933152
v 1.70015 -3.29423 -28.8033
vn 0.326285 -0.103139 -0.939628
v 1.69196 -3.31486 -28.8027
vn 0.290114 -0.194329 -0.937054
v 1.68314 -3.33508 -28.8001
vn 0.251148 -0.283647 -0.925456
v 1.67378 -3.35468 -28.7954
vn 0.209764 -0.370233 -0.904946
v 1.66395 -3.37346 -28.7888
vn 0.16636 -0.453254 -0.87572
v 1.65377 -3.39127 -28.7803
vn 0.121354 -0.53191 -0.83806
v 1.64332 -3.40791 -28.7699
vn 0.0751785 -0.605443 -0.79233
v 1.6327 -3.42323 -28.7579
vn 0.0282794 -0.673146 -0.738969
v 1.62203 -3.43709 -28.7442
vn -0.018892 -0.734365 -0.678491
v 1.61139 -3.44934 -28.729
vn -0.0658815 -0.788513 -0.611479
v 1.6009 -3.45988 -28.7125
vn -0.112236 -0.835066 -0.538579
v 1.59066 -3.46859 -28.6948
vn -0.157511 -0.873578 -0.460491
v 1.58075 -3.4754 -28.6762
vn -0.201268 -0.903676 -0.377969
v 1.57129 -3.48025 -28.6567
vn -0.243087 -0.925072 -0.291806
v 1.56235 -3.48307 -28.6365
vn -0.282564 -0.937558 -0.202834
v 1.55404 -3.48385 -28.6159
vn -0.319321 -0.941016 -0.111908
v 1.54641 -3.48259 -28.5951
vn -0.353002 -0.935411 -0.0199038
v 1.53956 -3.47928 -28.5743
vn -0.383284 -0.920797 0.0722916
v 1.53354 -3.47396 -28.5535
vn -0.409875 -0.897316 0.163791
v 1.52842 -3.46669 -28.5332
vn -0.432518 -0.865193 0.253713
v 1.52424 -3.45754 -28.5134
vn -0.450996 -0.824737 0.341191
v 1.52104 -3.44659 -28.4943
vn -0.46513 -0.776339 0.425384
v 1.51885 -3.43394 -28.4762
vn -0.474785 -0.720465 0.50548
v 1.5177 -3.41972 -28.4592
vn -0.479868 -0.657652 0.580708
v 1.5176 -3.40407 -28.4434
vn -0.480329 -0.588505 0.650343
v 1.51854 -3.38714 -28.4291
vn -0.476164 -0.513691 0.713715
v 1.52052 -3.36909 -28.4163
vn -0.467414 -0.43393 0.770214
v 1.52352 -3.35009 -28.4052
vn -0.454162 -0.349989 0.819295
v 1.52751 -3.33033 -28.3959
vn -0.436536 -0.262678 0.860486
v 1.53245 -3.31 -28.3884
vn -0.414707 -0.172838 0.89339
v 1.53829 -3.28929 -28.3829
vn -0.388883 -0.0813325 0.91769
v 1.54498 -3.2684 -28.3794
vn -0.359314 0.0109559 0.933152
v 1.55246 -3.24754 -28.378
vn -0.326285 0.103139 0.939628
v 1.56065 -3.2269 -28.3785
vn -0.290114 0.194329 0.937054
v 1.56946 -3.20669 -28.3812
vn -0.251148 0.283647 0.925456
v 2.37459 -3.50892 -28.1267
vn -0.129122 0.337932 0.932271
v 2.38383 -3.49106 -28.133
vn -0.0861057 0.421109 0.902914
v 2.39325 -3.47406 -28.1412
vn -0.0422606 0.50023 0.864861
v 2.40276 -3.4581 -28.1512
vn 0.00199157 0.574533 0.818479
v 2.41226 -3.44333 -28.1628
vn 0.0462245 0.643304 0.764215
v 2.42166 -3.42989 -28.176
vn 0.0900123 0.705879 0.70259
v 2.43088 -3.4179 -28.1907
vn 0.132933 0.761656 0.6342
v 2.43983 -3.4075 -28.2067
vn 0.174574 0.810098 0.559702
v 2.44841 -3.39877 -28.2239
vn 0.214533 0.850738 0.479813
v 2.45655 -3.3918 -28.2421
vn 0.252427 0.883185 0.395304
v 2.46417 -3.38666 -28.261
vn 0.287889 0.907126 0.306988
v 2.47119 -3.38339 -28.2806
vn 0.320579 0.922332 0.215715
v 2.47755 -3.38203 -28.3007
vn 0.350182 0.928655 0.122365
v 2.48318 -3.38259 -28.321
vn 0.376412 0.926034 0.027836
v 2.48804 -3.38507 -28.3414
vn 0.399017 0.914495 -0.0669607
v 2.49207 -3.38944 -28.3616
vn 0.417779 0.89415 -0.161113
v 2.49524 -3.39566 -28.3815
vn 0.432518 0.865193 -0.253713
v 2.49751 -3.40367 -28.4008
vn 0.443091 0.827903 -0.34387
v 2.49886 -3.4134 -28.4195
vn 0.449397 0.782641 -0.430715
v 2.49929 -3.42474 -28.4373
vn 0.451376 0.729841 -0.513412
v 2.49878 -3.43759 -28.454
vn 0.449007 0.670013 -0.591165
v 2.49734 -3.45183 -28.4694
vn 0.442314 0.603732 -0.663224
v 2.49499 -3.46731 -28.4835
vn 0.431362 0.531636 -0.728897
v 2.49174 -3.4839 -28.4961
vn 0.416255 0.454421 -0.787549
v 2.48764 -3.50143 -28.5071
vn 0.397139 0.372829 -0.838617
v 2.48271 -3.51972 -28.5163
vn 0.374199 0.287647 -0.881609
v 2.47701 -3.53862 -28.5238
vn 0.347655 0.199695 -0.91611
v 2.47059 -3.55792 -28.5293
vn 0.317763 0.109819 -0.941789
v 2.46351 -3.57746 -28.5328
vn 0.28481 0.0188862 -0.958398
v 2.45584 -3.59703 -28.5344
vn 0.249115 -0.0722289 -0.965777
v 2.44766 -3.61645 -28.534
vn 0.211021 -0.162648 -0.963855
v 2.43904 -3.63554 -28.5316
vn 0.170894 -0.251501 -0.95265
v 2.43006 -3.6541 -28.5272
vn 0.129122 -0.337932 -0.932271
v 2.42082 -3.67197 -28.5209
vn 0.0861057 -0.421109 -0.902914
v 2.41141 -3.68897 -28.5127
vn 0.0422606 -0.50023 -0.864861
v 2.4019 -3.70493 -28.5028
vn -0.00199157 -0.574533 -0.818479
v 2.3924 -3.7197 -28.4911
vn -0.0462245 -0.643304 -0.764215
v 2.38299 -3.73314 -28.4779
vn -0.0900123 -0.705879 -0.70259
v 2.37377 -3.74512 -28.4632
vn -0.132933 -0.761656 -0.6342
v 2.36483 -3.75553 -28.4472
vn -0.174574 -0.810098 -0.559702
v 2.35624 -3.76426 -28.43
vn -0.214533 -0.850738 -0.479813
v 2.3481 -3.77123 -28.4119
vn -0.252427 -0.883185 -0.395304
v 2.34049 -3.77637 -28.3929
vn -0.287889 -0.907126 -0.306988
v 2.33347 -3.77964 -28.3733
vn -0.320579 -0.922332 -0.215715
v 2.32711 -3.781 -28.3533
vn -0.350182 -0.928655 -0.122365
v 2.32147 -3.78043 -28.3329
vn -0.376412 -0.926034 -0.027836
v 2.31662 -3.77795 -28.3126
vn -0.399017 -0.914495 0.0669607
v 2.31259 -3.77358 -28.2924
vn -0.417779 -0.89415 0.161113
v 2.30942 -3.76736 -28.2725
vn -0.432518 -0.865193 0.253713
v 2.30715 -3.75935 -28.2531
vn -0.443091 -0.827903 0.34387
v 2.30579 -3.74963 -28.2344
vn -0.449397 -0.782641 0.430715
v 2.30537 -3.73829 -28.2167
vn -0.451376 -0.729841 0.513412
v 2.30588 -3.72544 -28.2
vn -0.449007 -0.670013 0.591165
v 2.30732 -3.7112 -28.1845
vn -0.442314 -0.603732 0.663224
v 2.30967 -3.69571 -28.1704
vn -0.431362 -0.531636 0.728897
v 2.31291 -3.67913 -28.1578
vn -0.416255 -0.454421 0.787549
v 2.31702 -3.6616 -28.1468
vn -0.397139 -0.372829 0.838617
v 2.32195 -3.6433 -28.1376
vn -0.374199 -0.287647 0.881609
v 2.32765 -3.62441 -28.1302
vn -0.347655 -0.199695 0.91611
v 2.33407 -3.6051 -28.1247
vn -0.317763 -0.109819 0.941789
v 2.34115 -3.58557 -28.1211
vn -0.28481 -0.0188862 0.958398
v 2.34882 -3.566 -28.1195
vn -0.249115 0.0722289 0.965777
v 2.357 -3.54658 -28.1199
vn -0.211021 0.162648 0.963855
v 2.36562 -3.52749 -28.1223
vn -0.170894 0.251501 0.95265
v 3.15583 -3.84836 -27.9524
vn -0.0420519 0.300446 0.952871
v 3.16449 -3.83141 -27.9584
vn 0.000544753 0.383803 0.923415
v 3.17315 -3.81522 -27.9662
vn 0.0431362 0.463464 0.885065
v 3.18173 -3.79993 -27.9757
vn 0.0853121 0.538661 0.838192
v 3.19013 -3.7857 -27.9869
vn 0.126667 0.608671 0.783247
v 3.19829 -3.77266 -27.9996
vn 0.166801 0.672819 0.720758
v 3.20613 -3.76094 -28.0137
vn 0.205329 0.730487 0.651328
v 3.21356 -3.75064 -28.0291
vn 0.24188 0.78112 0.575626
v 3.22051 -3.74188 -28.0456
vn 0.276101 0.824231 0.49438
v 3.22693 -3.73473 -28.0631
vn 0.307663 0.859404 0.408373
v 3.23274 -3.72926 -28.0814
vn 0.336263 0.8863 0.318432
v 3.2379 -3.72553 -28.1003
vn 0.361623 0.904661 0.225426
v 3.24235 -3.72357 -28.1196
vn 0.383502 0.914309 0.130248
v 3.24604 -3.72339 -28.1392
vn 0.401687 0.915153 0.033816
v 3.24896 -3.72501 -28.1589
vn 0.416003 0.907182 -0.0629418
v 3.25105 -3.72841 -28.1785
vn 0.426313 0.890475 -0.159093
v 3.25231 -3.73355 -28.1977
vn 0.432518 0.865193 -0.253713
v 3.25273 -3.74038 -28.2164
vn 0.434557 0.831578 -0.345889
v 3.25229 -3.74885 -28.2345
vn 0.432411 0.789954 -0.434734
v 3.25101 -3.75885 -28.2517
vn 0.426101 0.740723 -0.519392
v 3.24889 -3.77031 -28.2679
vn 0.415687 0.684358 -0.599048
v 3.24596 -3.78311 -28.2829
vn 0.40127 0.621402 -0.672935
v 3.24224 -3.79713 -28.2966
vn 0.382988 0.552462 -0.740341
v 3.23778 -3.81222 -28.3089
vn 0.361018 0.478202 -0.800618
v 3.2326 -3.82826 -28.3196
vn 0.335571 0.399336 -0.853184
v 3.22677 -3.84507 -28.3286
vn 0.306893 0.316624 -0.897533
v 3.22034 -3.86251 -28.3358
vn 0.275259 0.230863 -0.933239
v 3.21337 -3.88039 -28.3413
vn 0.240974 0.142879 -0.959957
v 3.20593 -3.89856 -28.3448
vn 0.204368 0.0535188 -0.97743
v 3.19809 -3.91683 -28.3465
vn 0.165794 -0.0363569 -0.98549
v 3.18992 -3.93503 -28.3462
vn 0.125624 -0.125882 -0.984059
v 3.18151 -3.95298 -28.344
vn 0.0842436 -0.214196 -0.973151
v 3.17293 -3.97052 -28.3398
vn 0.0420519 -0.300446 -0.952871
v 3.16427 -3.98747 -28.3338
vn -0.000544753 -0.383803 -0.923415
v 3.15561 -4.00366 -28.3261
vn -0.0431362 -0.463464 -0.885065
v 3.14704 -4.01895 -28.3165
vn -0.0853121 -0.538661 -0.838192
v 3.13863 -4.03318 -28.3054
vn -0.126667 -0.608671 -0.783247
v 3.13047 -4.04622 -28.2926
vn -0.166801 -0.672819 -0.720758
v 3.12264 -4.05794 -28.2785
vn -0.205329 -0.730487 -0.651328
v 3.11521 -4.06824 -28.2631
vn -0.24188 -0.78112 -0.575626
v 3.10825 -4.077 -28.2466
vn -0.276101 -0.824231 -0.49438
v 3.10184 -4.08415 -28.2291
vn -0.307663 -0.859404 -0.408373
v 3.09602 -4.08962 -28.2109
vn -0.336263 -0.8863 -0.318432
v 3.09087 -4.09335 -28.192
vn -0.361623 -0.904661 -0.225426
v 3.08642 -4.09531 -28.1726
vn -0.383502 -0.914309 -0.130248
v 3.08272 -4.09549 -28.153
vn -0.401687 -0.915153 -0.033816
v 3.07981 -4.09387 -28.1333
vn -0.416003 -0.907182 0.0629418
v 3.07772 -4.09047 -28.1138
vn -0.426313 -0.890475 0.159093
v 3.07646 -4.08533 -28.0945
vn -0.432518 -0.865193 0.253713
v 3.07604 -4.0785 -28.0758
vn -0.434557 -0.831578 0.345889
v 3.07648 -4.07003 -28.0577
vn -0.432411 -0.789954 0.434734
v 3.07776 -4.06003 -28.0405
vn -0.426101 -0.740723 0.519392
v 3.07988 -4.04857 -28.0243
vn -0.415687 -0.684358 0.599048
v 3.08281 -4.03577 -28.0093
vn -0.40127 -0.621402 0.672935
v 3.08652 -4.02175 -27.9956
vn -0.382988 -0.552462 0.740341
v 3.09099 -4.00666 -27.9834
vn -0.361018 -0.478202 0.800618
v 3.09616 -3.99062 -27.9727
vn -0.335571 -0.399336 0.853184
v 3.10199 -3.97381 -27.9637
vn -0.306893 -0.316624 0.897533
v 3.10843 -3.95637 -27.9564
vn -0.275259 -0.230863 0.933239
v 3.1154 -3.93849 -27.951
vn -0.240974 -0.142879 0.959957
v 3.12284 -3.92032 -27.9474
vn -0.204368 -0.0535188 0.97743
v 3.13068 -3.90205 -27.9458
vn -0.165794 0.0363569 0.98549
v 3.13885 -3.88385 -27.9461
vn -0.125624 0.125882 0.984059
v 3.14726 -3.86589 -27.9483
vn -0.0842436 0.214196 0.973151
f 1 66 2 
f 1 65 66 
f 2 67 3 
f 2 66 67 
f 3 68 4 
f 3 67 68 
f 4 69 5 
f 4 68 69 
f 5 70 6 
f 5 69 70 
f 6 71 7 
f 6 70 71 
f 7 72 8 
f 7 71 72 
f 8 73 9 
f 8 72 73 
f 9 74 10 
f 9 73 74 
f 10 75 11 
f 10 74 75 
f 11 76 12 
f 11 75 76 
f 12 77 13 
f 12 76 77 
f 13 78 14 
f 13 77 78 
f 14 79 15 
f 14 78 79 
f 15 80 16 
f 15 79 80 
f 16 81 17 
f 16 80 81 
f 17 82 18 
f 17 81 82 
f 18 83 19 
f 18 82 83 
f 19 84 20 
f 19 83 84 
f 20 85 21 
f 20 84 85 
f 21 86 22 
f 21 85 86 
f 22 87 23 
f 22 86 87 
f 23 88 24 
f 23 87 88 
f 24 89 25 
f 24 88 89 
f 25 90 26 
f 25 89 90 
f 26 91 27 
f 26 90 91 
f 27 92 28 
f 27 91 92 
f 28 93 29 
f 28 92 93 
f 29 94 30 
f 29 93 94 
f 30 95 31 
f 30 94 95 
f 31 96 32 
f 31 95 96 
f 32 97 33 
f 32 96 97 
f 33 98 34 
f 33 97 98 
f 34 99 35 
f 34 98 99 
f 35 100 36 
f 35 99 100 
f 36 101 37 
f 36 100 101 
f 37 102 38 
f 37 101 102 
f 38 103 39 
f 38 102 103 
f 39 104 40 
f 39 103 104 
f 40 105 41 
f 40 104 105 
f 41 106 42 
f 41 105 106 
f 42 107 43 
f 42 106 107 
f 43 108 44 
f 43 107 108 
f 44 109 45 
f 44 108 109 
f 45 110 46 
f 45 109 110 
f 46 111 47 
f 46 110 111 
f 47 112 48 
f 47 111 112 
f 48 113 49 
f 48 112 113 
f 49 114 50 
f 49 113 114 
f 50 115 51 
f 50 114 115 
f 51 116 52 
f 51 115 116 
f 52 117 53 
f 52 116 117 
f 53 118 54 
f 53 117 118 
f 54 119 55 
f 54 118 119 
f 55 120 56 
f 55 119 120 
f 56 121 57 
f 56 120 121 
f 57 122 58 
f 57 121 122 
f 58 123 59 
f 58 122 123 
f 59 124 60 
f 59 123 124 
f 60 125 61 
f 60 124 125 
f 61 126 62 
f 61 125 126 
f 62 127 63 
f 62 126 127 
f 63 128 64 
f 63 127 128 
f 64 65 1 
f 64 128 65 
f 65 130 66 
f 65 129 130 
f 66 131 67 
f 66 130 131 
f 67 132 68 
f 67 131 132 
f 68 133 69 
f 68 132 133 
f 69 134 70 
f 69 133 134 
f 70 135 71 
f 70 134 135 
f 71 136 72 
f 71 135 136 
f 72 137 73 
f 72 136 137 
f 73 138 74 
f 73 137 138 
f 74 139 75 
f 74 138 139 
f 75 140 76 
f 75 139 140 
f 76 141 77 
f 76 140 141 
f 77 142 78 
f 77 141 142 
f 78 143 79 
f 78 142 143 
f 79 144 80 
f 79 143 144 
f 80 145 81 
f 80 144 145 
f 81 146 82 
f 81 145 146 
f 82 147 83 
f 82 146 147 
f 83 148 84 
f 83 147 148 
f 84 149 85 
f 84 148 149 
f 85 150 86 
f 85 149 150 
f 86 151 87 
f 86 150 151 
f 87 152 88 
f 87 151 152 
f 88 153 89 
f 88 152 153 
f 89 154 90 
f 89 153 154 
f 90 155 91 
f 90 154 155 
f 91 156 92 
f 91 155 156 
f 92 157 93 
f 92 156 157 
f 93 158 94 
f 93 157 158 
f 94 159 95 
f 94 158 159 
f 95 160 96 
f 95 159 160 
f 96 161 97 
f 96 160 161 
f 97 162 98 
f 97 161 162 
f 98 163 99 
f 98 162 163 
f 99 164 100 
f 99 163 164 
f 100 165 101 
f 100 164 165 
f 101 166 102 
f 101 165 166 
f 102 167 103 
f 102 166 167 
f 103 168 104 
f 103 167 168 
f 104 169 105 
f 104 168 169 
f 105 170 106 
f 105 169 170 
f 106 171 107 
f 106 170 171 
f 107 172 108 
f 107 171 172 
f 108 173 109 
f 108 172 173 
f 109 174 110 
f 109 173 174 
f 110 175 111 
f 110 174 175 
f 111 176 112 
f 111 175 176 
f 112 177 113 
f 112 176 177 
f 113 178 114 
f 113 177 178 
f 114 179 115 
f 114 178 179 
f 115 180 116 
f 115 179 180 
f 116 181 117 
f 116 180 181 
f 117 182 118 
f 117 181 182 
f 118 183 119 
f 118 182 183 
f 119 184 120 
f 119 183 184 
f 120 185 121 
f 120 184 185 
f 121 186 122 
f 121 185 186 
f 122 187 123 
f 122 186 187 
f 123 188 124 
f 123 187 188 
f 124 189 125 
f 124 188 189 
f 125 190 126 
f 125 189 190 
f 126 191 127 
f 126 190 191 
f 127 192 128 
f 127 191 192 
f 128 129 65 
f 128 192 129 
f 129 194 130 
f 129 193 194 
f 130 195 131 
f 130 194 195 
f 131 196 132 
f 131 195 196 
f 132 197 133 
f 132 196 197 
f 133 198 134 
f 133 197 198 
f 134 199 135 
f 134 198 199 
f 135 200 136 
f 135 199 200 
f 136 201 137 
f 136 200 201 
f 137 202 138 
f 137 201 202 
f 138 203 139 
f 138 202 203 
f 139 204 140 
f 139 203 204 
f 140 205 141 
f 140 204 205 
f 141 206 142 
f 141 205 206 
f 142 207 143 
f 142 206 207 
f 143 208 144 
f 143 207 208 
f 144 209 145 
f 144 208 209 
f 145 210 146 
f 145 209 210 
f 146 211 147 
f 146 210 211 
f 147 212 148 
f 147 211 212 
f 148 213 149 
f 148 212 213 
f 149 214 150 
f 149 213 214 
f 150 215 151 
f 150 214 215 
f 151 216 152 
f 151 215 216 
f 152 217 153 
f 152 216 217 
f 153 218 154 
f 153 217 218 
f 154 219 155 
f 154 218 219 
f 155 220 156 
f 155 219 220 
f 156 221 157 
f 156 220 221 
f 157 222 158 
f 157 221 222 
f 158 223 159 
f 158 222 223 
f 159 224 160 
f 159 223 224 
f 160 225 161 
f 160 224 225 
f 161 226 162 
f 161 225 226 
f 162 227 163 
f 162 226 227 
f 163 228 164 
f 163 227 228 
f 164 229 165 
f 164 228 229 
f 165 230 166 
f 165 229 230 
f 166 231 167 
f 166 230 231 
f 167 232 168 
f 167 231 232 
f 168 233 169 
f 168 232 233 
f 169 234 170 
f 169 233 234 
f 170 235 171 
f 170 234 235 
f 171 236 172 
f 171 235 236 
f 172 237 173 
f 172 236 237 
f 173 238 174 
f 173 237 238 
f 174 239 175 
f 174 238 239 
f 175 240 176 
f 175 239 240 
f 176 241 177 
f 176 240 241 
f 177 242 178 
f 177 241 242 
f 178 243 179 
f 178 242 243 
f 179 244 180 
f 179 243 244 
f 180 245 181 
f 180 244 245 
f 181 246 182 
f 181 245 246 
f 182 247 183 
f 182 246 247 
f 183 248 184 
f 183 247 248 
f 184 249 185 
f 184 248 249 
f 185 250 186 
f 185 249 250 
f 186 251 187 
f 186 250 251 
f 187 252 188 
f 187 251 252 
f 188 253 189 
f 188 252 253 
f 189 254 190 
f 189 253 254 
f 190 255 191 
f 190 254 255 
f 191 256 192 
f 191 255 256 
f 192 193 129 
f 192 256 193 
f 193 258 194 
f 193 257 258 
f 194 259 195 
f 194 258 259 
f 195 260 196 
f 195 259 260 
f 196 261 197 
f 196 260 261 
f 197 262 198 
f 197 261 262 
f 198 263 199 
f 198 262 263 
f 199 264 200 
f 199 263 264 
f 200 265 201 
f 200 264 265 
f 201 266 202 
f 201 265 266 
f 202 267 203 
f 202 266 267 
f 203 268 204 
f 203 267 268 
f 204 269 205 
f 204 268 269 
f 205 270 206 
f 205 269 270 
f 206 271 207 
f 206 270 271 
f 207 272 208 
f 207 271 272 
f 208 273 209 
f 208 272 273 
f 209 274 210 
f 209 273 274 
f 210 275 211 
f 210 274 275 
f 211 276 212 
f 211 275 276 
f 212 277 213 
f 212 276 277 
f 213 278 214 
f 213 277 278 
f 214 279 215 
f 214 278 279 
f 215 280 216 
f 215 279 280 
f 216 281 217 
f 216 280 281 
f 217 282 218 
f 217 281 282 
f 218 283 219 
f 218 282 283 
f 219 284 220 
f 219 283 284 
f 220 285 221 
f 220 284 285 
f 221 286 222 
f 221 285 286 
f 222 287 223 
f 222 286 287 
f 223 288 224 
f 223 287 288 
f 224 289 225 
f 224 288 289 
f 225 290 226 
f 225 289 290 
f 226 291 227 
f 226 290 291 
f 227 292 228 
f 227 291 292 
f 228 293 229 
f 228 292 293 
f 229 294 230 
f 229 293 294 
f 230 295 231 
f 230 294 295 
f 231 296 232 
f 231 295 296 
f 232 297 233 
f 232 296 297 
f 233 298 234 
f 233 297 298 
f 234 299 235 
f 234 298 299 
f 235 300 236 
f 235 299 300 
f 236 301 237 
f 236 300 301 
f 237 302 238 
f 237 301 302 
f 238 303 239 
f 238 302 303 
f 239 304 240 
f 239 303 304 
f 240 305 241 
f 240 304 305 
f 241 306 242 
f 241 305 306 
f 242 307 243 
f 242 306 307 
f 243 308 244 
f 243 307 308 
f 244 309 245 
f 244 308 309 
f 245 310 246 
f 245 309 310 
f 246 311 247 
f 246 310 311 
f 247 312 248 
f 247 311 312 
f 248 313 249 
f 248 312 313 
f 249 314 250 
f 249 313 314 
f 250 315 251 
f 250 314 315 
f 251 316 252 
f 251 315 316 
f 252 317 253 
f 252 316 317 
f 253 318 254 
f 253 317 318 
f 254 319 255 
f 254 318 319 
f 255 320 256 
f 255 319 320 
f 256 257 193 
f 256 320 257 
f 257 322 258 
f 257 321 322 
f 258 323 259 
f 258 322 323 
f 259 324 260 
f 259 323 324 
f 260 325 261 
f 260 324 325 
f 261 326 262 
f 261 325 326 
f 262 327 263 
f 262 326 327 
f 263 328 264 
f 263 327 328 
f 264 329 265 
f 264 328 329 
f 265 330 266 
f 265 329 330 
f 266 331 267 
f 266 330 331 
f 267 332 268 
f 267 331 332 
f 268 333 269 
f 268 332 333 
f 269 334 270 
f 269 333 334 
f 270 335 271 
f 270 334 335 
f 271 336 272 
f 271 335 336 
f 272 337 273 
f 272 336 337 
f 273 338 274 
f 273 337 338 
f 274 339 275 
f 274 338 339 
f 275 340 276 
f 275 339 340 
f 276 341 277 
f 276 340 341 
f 277 342 278 
f 277 341 342 
f 278 343 279 
f 278 342 343 
f 279 344 280 
f 279 343 344 
f 280 345 281 
f 280 344 345 
f 281 346 282 
f 281 345 346 
f 282 347 283 
f 282 346 347 
f 283 348 284 
f 283 347 348 
f 284 349 285 
f 284 348 349 
f 285 350 286 
f 285 349 350 
f 286 351 287 
f 286 350 351 
f 287 352 288 
f 287 351 352 
f 288 353 289 
f 288 352 353 
f 289 354 290 
f 289 353 354 
f 290 355 291 
f 290 354 355 
f 291 356 292 
f 291 355 356 
f 292 357 293 
f 292 356 357 
f 293 358 294 
f 293 357 358 
f 294 359 295 
f 294 358 359 
f 295 360 296 
f 295 359 360 
f 296 361 297 
f 296 360 361 
f 297 362 298 
f 297 361 362 
f 298 363 299 
f 298 362 363 
f 299 364 300 
f 299 363 364 
f 300 365 301 
f 300 364 365 
f 301 366 302 
f 301 365 366 
f 302 367 303 
f 302 366 367 
f 303 368 304 
f 303 367 368 
f 304 369 305 
f 304 368 369 
f 305 370 306 
f 305 369 370 
f 306 371 307 
f 306 370 371 
f 307 372 308 
f 307 371 372 
f 308 373 309 
f 308 372 373 
f 309 374 310 
f 309 373 374 
f 310 375 311 
f 310 374 375 
f 311 376 312 
f 311 375 376 
f 312 377 313 
f 312 376 377 
f 313 378 314 
f 313 377 378 
f 314 379 315 
f 314 378 379 
f 315 380 316 
f 315 379 380 
f 316 381 317 
f 316 380 381 
f 317 382 318 
f 317 381 382 
f 318 383 319 
f 318 382 383 
f 319 384 320 
f 319 383 384 
f 320 321 257 
f 320 384 321 
f 321 386 322 
f 321 385 386 
f 322 387 323 
f 322 386 387 
f 323 388 324 
f 323 387 388 
f 324 389 325 
f 324 388 389 
f 325 390 326 
f 325 389 390 
f 326 391 327 
f 326 390 391 
f 327 392 328 
f 327 391 392 
f 328 393 329 
f 328 392 393 
f 329 394 330 
f 329 393 394 
f 330 395 331 
f 330 394 395 
f 331 396 332 
f 331 395 396 
f 332 397 333 
f 332 396 397 
f 333 398 334 
f 333 397 398 
f 334 399 335 
f 334 398 399 
f 335 400 336 
f 335 399 400 
f 336 401 337 
f 336 400 401 
f 337 402 338 
f 337 401 402 
f 338 403 339 
f 338 402 403 
f 339 404 340 
f 339 403 404 
f 340 405 341 
f 340 404 405 
f 341 406 342 
f 341 405 406 
f 342 407 343 
f 342 406 407 
f 343 408 344 
f 343 407 408 
f 344 409 345 
f 344 408 409 
f 345 410 346 
f 345 409 410 
f 346 411 347 
f 346 410 411 
f 347 412 348 
f 347 411 412 
f 348 413 349 
f 348 412 413 
f 349 414 350 
f 349 413 414 
f 350 415 351 
f 350 414 415 
f 351 416 352 
f 351 415 416 
f 352 417 353 
f 352 416 417 
f 353 418 354 
f 353 417 418 
f 354 419 355 
f 354 418 419 
f 355 420 356 
f 355 419 420 
f 356 421 357 
f 356 420 421 
f 357 422 358 
f 357 421 422 
f 358 423 359 
f 358 422 423 
f 359 424 360 
f 359 423 424 
f 360 425 361 
f 360 424 425 
f 361 426 362 
f 361 425 426 
f 362 427 363 
f 362 426 427 
f 363 428 364 
f 363 427 428 
f 364 429 365 
f 364 428 429 
f 365 430 366 
f 365 429 430 
f 366 431 367 
f 366 430 431 
f 367 432 368 
f 367 431 432 
f 368 433 369 
f 368 432 433 
f 369 434 370 
f 369 433 434 
f 370 435 371 
f 370 434 435 
f 371 436 372 
f 371 435 436 
f 372 437 373 
f 372 436 437 
f 373 438 374 
f 373 437 438 
f 374 439 375 
f 374 438 439 
f 375 440 376 
f 375 439 440 
f 376 441 377 
f 376 440 441 
f 377 442 378 
f 377 441 442 
f 378 443 379 
f 378 442 443 
f 379 444 380 
f 379 443 444 
f 380 445 381 
f 380 444 445 
f 381 446 382 
f 381 445 446 
f 382 447 383 
f 382 446 447 
f 383 448 384 
f 383 447 448 
f 384 385 321 
f 384 448 385 
f 385 450 386 
f 385 449 450 
f 386 451 387 
f 386 450 451 
f 387 452 388 
f 387 451 452 
f 388 453 389 
f 388 452 453 
f 389 454 390 
f 389 453 454 
f 390 455 391 
f 390 454 455 
f 391 456 392 
f 391 455 456 
f 392 457 393 
f 392 456 457 
f 393 458 394 
f 393 457 458 
f 394 459 395 
f 394 458 459 
f 395 460 396 
f 395 459 460 
f 396 461 397 
f 396 460 461 
f 397 462 398 
f 397 461 462 
f 398 463 399 
f 398 462 463 
f 399 464 400 
f 399 463 464 
f 400 465 401 
f 400 464 465 
f 401 466 402 
f 401 465 466 
f 402 467 403 
f 402 466 467 
f 403 468 404 
f 403 467 468 
f 404 469 405 
f 404 468 469 
f 405 470 406 
f 405 469 470 
f 406 471 407 
f 406 470 471 
f 407 472 408 
f 407 471 472 
f 408 473 409 
f 408 472 473 
f 409 474 410 
f 409 473 474 
f 410 475 411 
f 410 474 475 
f 411 476 412 
f 411 475 476 
f 412 477 413 
f 412 476 477 
f 413 478 414 
f 413 477 478 
f 414 479 415 
f 414 478 479 
f 415 480 416 
f 415 479 480 
f 416 481 417 
f 416 480 481 
f 417 482 418 
f 417 481 482 
f 418 483 419 
f 418 482 483 
f 419 484 420 
f 419 483 484 
f 420 485 421 
f 420 484 485 
f 421 486 422 
f 421 485 486 
f 422 487 423 
f 422 486 487 
f 423 488 424 
f 423 487 488 
f 424 489 425 
f 424 488 489 
f 425 490 426 
f 425 489 490 
f 426 491 427 
f 426 490 491 
f 427 492 428 
f 427 491 492 
f 428 493 429 
f 428 492 493 
f 429 494 430 
f 429 493 494 
f 430 495 431 
f 430 494 495 
f 431 496 432 
f 431 495 496 
f 432 497 433 
f 432 496 497 
f 433 498 434 
f 433 497 498 
f 434 499 435 
f 434 498 499 
f 435 500 436 
f 435 499 500 
f 436 501 437 
f 436 500 501 
f 437 502 438 
f 437 501 502 
f 438 503 439 
f 438 502 503 
f 439 504 440 
f 439 503 504 
f 440 505 441 
f 440 504 505 
f 441 506 442 
f 441 505 506 
f 442 507 443 
f 442 506 507 
f 443 508 444 
f 443 507 508 
f 444 509 445 
f 444 508 509 
f 445 510 446 
f 445 509 510 
f 446 511 447 
f 446 510 511 
f 447 512 448 
f 447 511 512 
f 448 449 385 
f 448 512 449 
f 449 514 450 
f 449 513 514 
f 450 515 451 
f 450 514 515 
f 451 516 452 
f 451 515 516 
f 452 517 453 
f 452 516 517 
f 453 518 454 
f 453 517 518 
f 454 519 455 
f 454 518 519 
f 455 520 456 
f 455 519 520 
f 456 521 457 
f 456 520 521 
f 457 522 458 
f 457 521 522 
f 458 523 459 
f 458 522 523 
f 459 524 460 
f 459 523 524 
f 460 525 461 
f 460 524 525 
f 461 526 462 
f 461 525 526 
f 462 527 463 
f 462 526 527 
f 463 528 464 
f 463 527 528 
f 464 529 465 
f 464 528 529 
f 465 530 466 
f 465 529 530 
f 466 531 467 
f 466 530 531 
f 467 532 468 
f 467 531 532 
f 468 533 469 
f 468 532 533 
f 469 534 470 
f 469 533 534 
f 470 535 471 
f 470 534 535 
f 471 536 472 
f 471 535 536 
f 472 537 473 
f 472 536 537 
f 473 538 474 
f 473 537 538 
f 474 539 475 
f 474 538 539 
f 475 540 476 
f 475 539 540 
f 476 541 477 
f 476 540 541 
f 477 542 478 
f 477 541 542 
f 478 543 479 
f 478 542 543 
f 479 544 480 
f 479 543 544 
f 480 545 481 
f 480 544 545 
f 481 546 482 
f 481 545 546 
f 482 547 483 
f 482 546 547 
f 483 548 484 
f 483 547 548 
f 484 549 485 
f 484 548 549 
f 485 550 486 
f 485 549 550 
f 486 551 487 
f 486 550 551 
f 487 552 488 
f 487 551 552 
f 488 553 489 
f 488 552 553 
f 489 554 490 
f 489 553 554 
f 490 555 491 
f 490 554 555 
f 491 556 492 
f 491 555 556 
f 492 557 493 
f 492 556 557 
f 493 558 494 
f 493 557 558 
f 494 559 495 
f 494 558 559 
f 495 560 496 
f 495 559 560 
f 496 561 497 
f 496 560 561 
f 497 562 498 
f 497 561 562 
f 498 563 499 
f 498 562 563 
f 499 564 500 
f 499 563 564 
f 500 565 501 
f 500 564 565 
f 501 566 502 
f 501 565 566 
f 502 567 503 
f 502 566 567 
f 503 568 504 
f 503 567 568 
f 504 569 505 
f 504 568 569 
f 505 570 506 
f 505 569 570 
f 506 571 507 
f 506 570 571 
f 507 572 508 
f 507 571 572 
f 508 573 509 
f 508 572 573 
f 509 574 510 
f 509 573 574 
f 510 575 511 
f 510 574 575 
f 511 576 512 
f 511 575 576 
f 512 513 449 
f 512 576 513 
f 513 578 514 
f 513 577 578 
f 514 579 515 
f 514 578 579 
f 515 580 516 
f 515 579 580 
f 516 581 517 
f 516 580 581 
f 517 582 518 
f 517 581 582 
f 518 583 519 
f 518 582 583 
f 519 584 520 
f 519 583 584 
f 520 585 521 
f 520 584 585 
f 521 586 522 
f 521 585 586 
f 522 587 523 
f 522 586 587 
f 523 588 524 
f 523 587 588 
f 524 589 525 
f 524 588 589 
f 525 590 526 
f 525 589 590 
f 526 591 527 
f 526 590 591 
f 527 592 528 
f 527 591 592 
f 528 593 529 
f 528 592 593 
f 529 594 530 
f 529 593 594 
f 530 595 531 
f 530 594 595 
f 531 596 532 
f 531 595 596 
f 532 597 533 
f 532 596 597 
f 533 598 534 
f 533 597 598 
f 534 599 535 
f 534 598 599 
f 535 600 536 
f 535 599 600 
f 536 601 537 
f 536 600 601 
f 537 602 538 
f 537 601 602 
f 538 603 539 
f 538 602 603 
f 539 604 540 
f 539 603 604 
f 540 605 541 
f 540 604 605 
f 541 606 542 
f 541 605 606 
f 542 607 543 
f 542 606 607 
f 543 608 544 
f 543 607 608 
f 544 609 545 
f 544 608 609 
f 545 610 546 
f 545 609 610 
f 546 611 547 
f 546 610 611 
f 547 612 548 
f 547 611 612 
f 548 613 549 
f 548 612 613 
f 549 614 550 
f 549 613 614 
f 550 615 551 
f 550 614 615 
f 551 616 552 
f 551 615 616 
f 552 617 553 
f 552 616 617 
f 553 618 554 
f 553 617 618 
f 554 619 555 
f 554 618 619 
f 555 620 556 
f 555 619 620 
f 556 621 557 
f 556 620 621 
f 557 622 558 
f 557 621 622 
f 558 623 559 
f 558 622 623 
f 559 624 560 
f 559 623 624 
f 560 625 561 
f 560 624 625 
f 561 626 562 
f 561 625 626 
f 562 627 563 
f 562 626 627 
f 563 628 564 
f 563 627 628 
f 564 629 565 
f 564 628 629 
f 565 630 566 
f 565 629 630 
f 566 631 567 
f 566 630 631 
f 567 632 568 
f 567 631 632 
f 568 633 569 
f 568 632 633 
f 569 634 570 
f 569 633 634 
f 570 635 571 
f 570 634 635 
f 571 636 572 
f 571 635 636 
f 572 637 573 
f 572 636 637 
f 573 638 574 
f 573 637 638 
f 574 639 575 
f 574 638 639 
f 575 640 576 
f 575 639 640 
f 576 577 513 
f 576 640 577 
