# Branch
v -3.11442 2.33103 -11.0142
vn -0.111849 0.989285 -0.093833
v -3.12106 2.33009 -11.0126
vn -0.206314 0.975918 -0.0708483
v -3.12757 2.32849 -11.0109
vn -0.298792 0.953151 -0.0471812
v -3.13387 2.32624 -11.0092
vn -0.388392 0.921206 -0.0230598
v -3.13991 2.32337 -11.0075
vn -0.474251 0.880389 0.00128377
v -3.14563 2.3199 -11.0058
vn -0.555544 0.831093 0.0256149
v -3.15097 2.31587 -11.0041
vn -0.631486 0.773793 0.0496994
v -3.15588 2.31132 -11.0024
vn -0.701347 0.709041 0.0733053
v -3.16032 2.30628 -11.0008
vn -0.764453 0.637461 0.0962052
v -3.16424 2.30082 -10.9993
vn -0.820197 0.559741 0.118179
v -3.16761 2.29497 -10.9978
vn -0.868042 0.476631 0.139014
v -3.17039 2.2888 -10.9964
vn -0.907528 0.388931 0.15851
v -3.17255 2.28237 -10.9952
vn -0.938274 0.297485 0.17648
v -3.17408 2.27574 -10.994
vn -0.959983 0.203175 0.19275
v -3.17495 2.26896 -10.993
vn -0.972447 0.106907 0.207165
v -3.17517 2.26212 -10.9921
vn -0.975546 0.00961005 0.219583
v -3.17473 2.25527 -10.9914
vn -0.96925 -0.0877795 0.229888
v -3.17363 2.24848 -10.9908
vn -0.95362 -0.184324 0.237978
v -3.17188 2.24181 -10.9904
vn -0.928806 -0.279093 0.243776
v -3.16951 2.23534 -10.9902
vn -0.895047 -0.371174 0.247227
v -3.16653 2.22911 -10.9901
vn -0.852668 -0.459681 0.248297
v -3.16297 2.2232 -10.9902
vn -0.802077 -0.54376 0.246975
v -3.15887 2.21765 -10.9905
vn -0.743762 -0.622603 0.243275
v -3.15426 2.21253 -10.9909
vn -0.678284 -0.69545 0.237233
v -3.1492 2.20788 -10.9915
vn -0.606274 -0.7616 0.228905
v -3.14372 2.20374 -10.9922
vn -0.528425 -0.820414 0.218373
v -3.13789 2.20016 -10.9931
vn -0.445487 -0.871328 0.205738
v -3.13175 2.19717 -10.9941
vn -0.358259 -0.913851 0.191122
v -3.12537 2.19479 -10.9953
vn -0.267581 -0.947572 0.174665
v -3.11881 2.19306 -10.9966
vn -0.174325 -0.972168 0.156525
v -3.11214 2.19199 -10.998
vn -0.0793912 -0.987401 0.136879
v -3.10541 2.19159 -10.9994
vn 0.0163076 -0.993125 0.115914
v -3.09869 2.19186 -11.001
vn 0.111849 -0.989285 0.093833
v -3.09204 2.1928 -11.0026
vn 0.206314 -0.975918 0.0708483
v -3.08554 2.1944 -11.0043
vn 0.298792 -0.953151 0.0471812
v -3.07923 2.19665 -11.006
vn 0.388392 -0.921206 0.0230598
v -3.07319 2.19952 -11.0077
vn 0.474251 -0.880389 -0.00128377
v -3.06748 2.20299 -11.0094
vn 0.555544 -0.831093 -0.0256149
v -3.06213 2.20702 -11.0111
vn 0.631486 -0.773793 -0.0496994
v -3.05722 2.21157 -11.0127
vn 0.701347 -0.709041 -0.0733053
v -3.05278 2.21661 -11.0143
vn 0.764453 -0.637461 -0.0962052
v -3.04886 2.22207 -11.0159
vn 0.820197 -0.559741 -0.118179
v -3.0455 2.22792 -11.0174
vn 0.868042 -0.476631 -0.139014
v -3.04272 2.23409 -11.0187
vn 0.907528 -0.388931 -0.15851
v -3.04056 2.24052 -11.02
vn 0.938274 -0.297485 -0.17648
v -3.03903 2.24715 -11.0211
vn 0.959983 -0.203175 -0.19275
v -3.03815 2.25393 -11.0222
vn 0.972447 -0.106907 -0.207165
v -3.03793 2.26077 -11.023
vn 0.975546 -0.00961005 -0.219583
v -3.03838 2.26762 -11.0238
vn 0.96925 0.0877795 -0.229888
v -3.03948 2.27441 -11.0243
vn 0.95362 0.184324 -0.237978
v -3.04122 2.28108 -11.0247
vn 0.928806 0.279093 -0.243776
v -3.0436 2.28755 -11.025
vn 0.895047 0.371174 -0.247227
v -3.04658 2.29378 -11.025
vn 0.852668 0.459681 -0.248297
v -3.05014 2.29969 -11.025
vn 0.802077 0.54376 -0.246975
v -3.05424 2.30524 -11.0247
vn 0.743762 0.622603 -0.243275
v -3.05884 2.31036 -11.0243
vn 0.678284 0.69545 -0.237233
v -3.06391 2.31501 -11.0237
vn 0.606274 0.7616 -0.228905
v -3.06938 2.31915 -11.0229
vn 0.528425 0.820414 -0.218373
v -3.07522 2.32273 -11.0221
vn 0.445487 0.871328 -0.205738
v -3.08135 2.32572 -11.021
vn 0.358259 0.913851 -0.191122
v -3.08773 2.3281 -11.0199
vn 0.267581 0.947572 -0.174665
v -3.09429 2.32983 -11.0186
vn 0.174325 0.972168 -0.156525
v -3.10097 2.3309 -11.0172
vn 0.0793912 0.987401 -0.136879
v -3.1077 2.3313 -11.0157
vn -0.0163076 0.993125 -0.115914
v -3.92021 1.84267 -14.598
vn -0.120585 0.983785 -0.132762
v -3.92828 1.84153 -14.596
vn -0.215007 0.970444 -0.10959
v -3.93617 1.83959 -14.594
vn -0.307359 0.947757 -0.0853625
v -3.94382 1.83687 -14.5918
vn -0.396751 0.915943 -0.0603127
v -3.95113 1.83339 -14.5896
vn -0.482322 0.875307 -0.0346822
v -3.95805 1.8292 -14.5874
vn -0.563248 0.826242 -0.0087176
v -3.96451 1.82432 -14.5852
vn -0.638749 0.76922 0.0173309
v -3.97044 1.81881 -14.583
vn -0.708099 0.70479 0.0432125
v -3.97578 1.81272 -14.5808
vn -0.77063 0.633572 0.068678
v -3.98049 1.80611 -14.5787
vn -0.825739 0.556252 0.0934821
v -3.98452 1.79905 -14.5766
vn -0.872895 0.473576 0.117386
v -3.98784 1.79159 -14.5747
vn -0.911646 0.386339 0.140159
v -3.9904 1.78381 -14.5728
vn -0.941616 0.295381 0.161583
v -3.99219 1.77579 -14.5711
vn -0.962519 0.201578 0.18145
v -3.99318 1.76761 -14.5696
vn -0.974151 0.105834 0.19957
v -3.99337 1.75933 -14.5682
vn -0.976403 0.00907097 0.215768
v -3.99276 1.75105 -14.567
vn -0.96925 -0.0877795 0.229888
v -3.99135 1.74284 -14.566
vn -0.952764 -0.183785 0.241794
v -3.98916 1.73479 -14.5652
vn -0.927102 -0.27802 0.251371
v -3.9862 1.72696 -14.5646
vn -0.892511 -0.369578 0.258528
v -3.98251 1.71944 -14.5642
vn -0.849325 -0.457576 0.263194
v -3.97812 1.71229 -14.564
vn -0.797959 -0.541168 0.265327
v -3.97307 1.70559 -14.564
vn -0.738909 -0.619548 0.264903
v -3.96741 1.6994 -14.5643
vn -0.672743 -0.691961 0.261929
v -3.9612 1.69378 -14.5647
vn -0.600097 -0.757711 0.256432
v -3.9545 1.68878 -14.5654
vn -0.521673 -0.816163 0.248466
v -3.94736 1.68445 -14.5663
vn -0.438224 -0.866755 0.238107
v -3.93987 1.68084 -14.5674
vn -0.350555 -0.909 0.225454
v -3.93208 1.67798 -14.5686
vn -0.25951 -0.942491 0.210631
v -3.92409 1.67589 -14.5701
vn -0.165966 -0.966905 0.193778
v -3.91595 1.6746 -14.5717
vn -0.0708238 -0.982007 0.17506
v -3.90776 1.67412 -14.5734
vn 0.0250008 -0.987652 0.154656
v -3.89959 1.67445 -14.5753
vn 0.120585 -0.983785 0.132762
v -3.89151 1.67559 -14.5773
vn 0.215007 -0.970444 0.10959
v -3.88362 1.67753 -14.5794
vn 0.307359 -0.947757 0.0853625
v -3.87598 1.68025 -14.5815
vn 0.396751 -0.915943 0.0603127
v -3.86866 1.68372 -14.5837
vn 0.482322 -0.875307 0.0346822
v -3.86174 1.68792 -14.5859
vn 0.563248 -0.826242 0.0087176
v -3.85529 1.69279 -14.5881
vn 0.638749 -0.76922 -0.0173309
v -3.84936 1.6983 -14.5903
vn 0.708099 -0.70479 -0.0432125
v -3.84401 1.70439 -14.5925
vn 0.77063 -0.633572 -0.068678
v -3.8393 1.711 -14.5946
vn 0.825739 -0.556252 -0.0934821
v -3.83527 1.71807 -14.5967
vn 0.872895 -0.473576 -0.117386
v -3.83196 1.72553 -14.5986
vn 0.911646 -0.386339 -0.140159
v -3.82939 1.7333 -14.6005
vn 0.941616 -0.295381 -0.161583
v -3.82761 1.74132 -14.6022
vn 0.962519 -0.201578 -0.18145
v -3.82661 1.74951 -14.6037
vn 0.974151 -0.105834 -0.19957
v -3.82642 1.75778 -14.6051
vn 0.976403 -0.00907097 -0.215768
v -3.82703 1.76606 -14.6063
vn 0.96925 0.0877795 -0.229888
v -3.82844 1.77427 -14.6073
vn 0.952764 0.183785 -0.241794
v -3.83063 1.78233 -14.6081
vn 0.927102 0.27802 -0.251371
v -3.83359 1.79015 -14.6088
vn 0.892511 0.369578 -0.258528
v -3.83728 1.79768 -14.6092
vn 0.849325 0.457576 -0.263194
v -3.84167 1.80482 -14.6093
vn 0.797959 0.541168 -0.265327
v -3.84672 1.81153 -14.6093
vn 0.738909 0.619548 -0.264903
v -3.85238 1.81772 -14.609
vn 0.672743 0.691961 -0.261929
v -3.85859 1.82334 -14.6086
vn 0.600097 0.757711 -0.256432
v -3.8653 1.82834 -14.6079
vn 0.521673 0.816163 -0.248466
v -3.87243 1.83266 -14.607
vn 0.438224 0.866755 -0.238107
v -3.87993 1.83627 -14.6059
vn 0.350555 0.909 -0.225454
v -3.88771 1.83914 -14.6047
vn 0.25951 0.942491 -0.210631
v -3.89571 1.84122 -14.6032
vn 0.165966 0.966905 -0.193778
v -3.90384 1.84251 -14.6016
vn 0.0708238 0.982007 -0.17506
v -3.91203 1.843 -14.5999
vn -0.0250008 0.987652 -0.154656
v -4.64987 1.24393 -17.903
vn -0.1305 0.975379 -0.177777
v -4.65937 1.24259 -17.9007
vn -0.224875 0.962079 -0.154388
v -4.66865 1.24032 -17.8982
vn -0.317084 0.939513 -0.129512
v -4.67763 1.23714 -17.8956
vn -0.406239 0.907899 -0.103389
v -4.68621 1.23308 -17.8928
vn -0.491482 0.867541 -0.0762705
v -4.69431 1.22817 -17.89
vn -0.571992 0.818829 -0.0484172
v -4.70186 1.22248 -17.8872
vn -0.646993 0.762231 -0.0200976
v -4.70878 1.21604 -17.8843
vn -0.715764 0.698292 0.00841556
v -4.71501 1.20893 -17.8814
vn -0.777641 0.627628 0.0368477
v -4.72048 1.20121 -17.8786
vn -0.832029 0.55092 0.0649249
v -4.72515 1.19295 -17.8759
vn -0.878404 0.468906 0.0923769
v -4.72897 1.18424 -17.8732
vn -0.91632 0.382376 0.118939
v -4.7319 1.17516 -17.8706
vn -0.945411 0.292164 0.144356
v -4.73391 1.1658 -17.8682
vn -0.965397 0.199138 0.168383
v -4.73498 1.15624 -17.8659
vn -0.976086 0.104194 0.190788
v -4.73511 1.14659 -17.8639
vn -0.977374 0.00824705 0.211355
v -4.7343 1.13692 -17.862
vn -0.96925 -0.0877795 0.229888
v -4.73254 1.12734 -17.8604
vn -0.951792 -0.182961 0.246206
v -4.72986 1.11794 -17.859
vn -0.925167 -0.27638 0.260153
v -4.72628 1.1088 -17.8578
vn -0.889633 -0.367137 0.271595
v -4.72184 1.10002 -17.8569
vn -0.84553 -0.454359 0.280421
v -4.71658 1.09169 -17.8563
vn -0.793285 -0.537205 0.286546
v -4.71056 1.08387 -17.856
vn -0.7334 -0.614878 0.289912
v -4.70382 1.07665 -17.8559
vn -0.666452 -0.686629 0.290486
v -4.69643 1.07009 -17.8561
vn -0.593086 -0.751767 0.288263
v -4.68847 1.06426 -17.8566
vn -0.514008 -0.809665 0.283263
v -4.68002 1.05922 -17.8574
vn -0.42998 -0.859766 0.275535
v -4.67114 1.05501 -17.8585
vn -0.341811 -0.901587 0.265154
v -4.66194 1.05167 -17.8598
vn -0.25035 -0.934725 0.252219
v -4.65249 1.04924 -17.8613
vn -0.156478 -0.958861 0.236855
v -4.64289 1.04774 -17.8631
vn -0.0610989 -0.973763 0.21921
v -4.63323 1.04719 -17.8651
vn 0.0348684 -0.979287 0.199454
v -4.6236 1.04758 -17.8673
vn 0.1305 -0.975379 0.177777
v -4.6141 1.04892 -17.8696
vn 0.224875 -0.962079 0.154388
v -4.60482 1.05119 -17.8721
vn 0.317084 -0.939513 0.129512
v -4.59585 1.05437 -17.8747
vn 0.406239 -0.907899 0.103389
v -4.58727 1.05844 -17.8775
vn 0.491482 -0.867541 0.0762705
v -4.57917 1.06334 -17.8803
vn 0.571992 -0.818829 0.0484172
v -4.57162 1.06904 -17.8831
vn 0.646993 -0.762231 0.0200976
v -4.5647 1.07547 -17.886
vn 0.715764 -0.698292 -0.00841556
v -4.55847 1.08258 -17.8889
vn 0.777641 -0.627628 -0.0368477
v -4.55299 1.0903 -17.8917
vn 0.832029 -0.55092 -0.0649249
v -4.54833 1.09856 -17.8944
vn 0.878404 -0.468906 -0.0923769
v -4.54451 1.10727 -17.8971
vn 0.91632 -0.382376 -0.118939
v -4.54158 1.11635 -17.8997
vn 0.945411 -0.292164 -0.144356
v -4.53957 1.12571 -17.9021
vn 0.965397 -0.199138 -0.168383
v -4.53849 1.13527 -17.9044
vn 0.976086 -0.104194 -0.190788
v -4.53836 1.14493 -17.9064
vn 0.977374 -0.00824705 -0.211355
v -4.53918 1.15459 -17.9083
vn 0.96925 0.0877795 -0.229888
v -4.54094 1.16417 -17.9099
vn 0.951792 0.182961 -0.246206
v -4.54362 1.17357 -17.9113
vn 0.925167 0.27638 -0.260153
v -4.54719 1.18271 -17.9125
vn 0.889633 0.367137 -0.271595
v -4.55163 1.19149 -17.9134
vn 0.84553 0.454359 -0.280421
v -4.55689 1.19983 -17.914
vn 0.793285 0.537205 -0.286546
v -4.56292 1.20764 -17.9143
vn 0.7334 0.614878 -0.289912
v -4.56966 1.21487 -17.9144
vn 0.666452 0.686629 -0.290486
v -4.57704 1.22142 -17.9142
vn 0.593086 0.751767 -0.288263
v -4.585 1.22725 -17.9137
vn 0.514008 0.809665 -0.283263
v -4.59346 1.23229 -17.9129
vn 0.42998 0.859766 -0.275535
v -4.60233 1.2365 -17.9118
vn 0.341811 0.901587 -0.265154
v -4.61154 1.23984 -17.9105
vn 0.25035 0.934725 -0.252219
v -4.62099 1.24227 -17.909
vn 0.156478 0.958861 -0.236855
v -4.63059 1.24377 -17.9072
vn 0.0610989 0.973763 -0.21921
v -4.64025 1.24432 -17.9052
vn -0.0348684 0.979287 -0.199454
v -5.30349 0.534541 -20.9297
vn -0.141757 0.962801 -0.230042
v -5.31442 0.533008 -20.927
vn -0.236078 0.949561 -0.206402
v -5.32508 0.530416 -20.924
vn -0.328125 0.927176 -0.180773
v -5.33537 0.526789 -20.9208
vn -0.417012 0.895862 -0.153404
v -5.3452 0.522164 -20.9175
vn -0.501883 0.85592 -0.124557
v -5.35447 0.516583 -20.914
vn -0.58192 0.807736 -0.0945109
v -5.36309 0.510102 -20.9104
vn -0.656353 0.751772 -0.0635545
v -5.37098 0.502783 -20.9068
vn -0.724466 0.688568 -0.0319859
v -5.37806 0.494695 -20.9031
vn -0.785601 0.618734 -0.000109353
v -5.38426 0.485918 -20.8994
vn -0.83917 0.54294 0.0317683
v -5.38953 0.476535 -20.8957
vn -0.884658 0.461917 0.0633399
v -5.39381 0.466636 -20.8921
vn -0.921626 0.376447 0.0943016
v -5.39706 0.456318 -20.8887
vn -0.949719 0.28735 0.124355
v -5.39926 0.44568 -20.8853
vn -0.968665 0.195487 0.153211
v -5.40037 0.434823 -20.8822
vn -0.978282 0.10174 0.180591
v -5.40039 0.423853 -20.8792
vn -0.978478 0.00701413 0.206233
v -5.39933 0.412875 -20.8764
vn -0.96925 -0.0877795 0.229888
v -5.39718 0.401995 -20.874
vn -0.950689 -0.181728 0.251329
v -5.39397 0.391317 -20.8718
vn -0.922971 -0.273926 0.270349
v -5.38973 0.380946 -20.8699
vn -0.886365 -0.363486 0.286767
v -5.3845 0.370979 -20.8683
vn -0.841223 -0.449546 0.300422
v -5.37833 0.361514 -20.867
vn -0.787979 -0.531276 0.311184
v -5.37129 0.352641 -20.8661
vn -0.727146 -0.60789 0.318949
v -5.36343 0.344447 -20.8656
vn -0.659311 -0.678649 0.323643
v -5.35484 0.337009 -20.8654
vn -0.585126 -0.742873 0.32522
v -5.3456 0.3304 -20.8656
vn -0.505306 -0.799942 0.323664
v -5.33579 0.324683 -20.8661
vn -0.42062 -0.849307 0.318992
v -5.32551 0.319913 -20.867
vn -0.331883 -0.890494 0.311248
v -5.31487 0.316137 -20.8683
vn -0.23995 -0.923104 0.300506
v -5.30395 0.31339 -20.8698
vn -0.145705 -0.946824 0.28687
v -5.29288 0.311699 -20.8717
vn -0.0500581 -0.961426 0.270471
v -5.28174 0.31108 -20.8739
vn 0.0460713 -0.966769 0.251468
v -5.27066 0.31154 -20.8764
vn 0.141757 -0.962801 0.230042
v -5.25974 0.313073 -20.8792
vn 0.236078 -0.949561 0.206402
v -5.24908 0.315665 -20.8821
vn 0.328125 -0.927176 0.180773
v -5.23878 0.319292 -20.8853
vn 0.417012 -0.895862 0.153404
v -5.22896 0.323917 -20.8886
vn 0.501883 -0.85592 0.124557
v -5.21969 0.329498 -20.8921
vn 0.58192 -0.807736 0.0945109
v -5.21107 0.335979 -20.8957
vn 0.656353 -0.751772 0.0635545
v -5.20318 0.343298 -20.8994
vn 0.724466 -0.688568 0.0319859
v -5.1961 0.351386 -20.9031
vn 0.785601 -0.618734 0.000109353
v -5.18989 0.360163 -20.9067
vn 0.83917 -0.54294 -0.0317683
v -5.18463 0.369546 -20.9104
vn 0.884658 -0.461917 -0.0633399
v -5.18035 0.379445 -20.914
vn 0.921626 -0.376447 -0.0943016
v -5.17709 0.389763 -20.9175
vn 0.949719 -0.28735 -0.124355
v -5.1749 0.400401 -20.9208
vn 0.968665 -0.195487 -0.153211
v -5.17378 0.411258 -20.924
vn 0.978282 -0.10174 -0.180591
v -5.17376 0.422228 -20.9269
vn 0.978478 -0.00701413 -0.206233
v -5.17483 0.433206 -20.9297
vn 0.96925 0.0877795 -0.229888
v -5.17698 0.444086 -20.9322
vn 0.950689 0.181728 -0.251329
v -5.18019 0.454764 -20.9344
vn 0.922971 0.273926 -0.270349
v -5.18443 0.465135 -20.9363
vn 0.886365 0.363486 -0.286767
v -5.18966 0.475102 -20.9379
vn 0.841223 0.449546 -0.300422
v -5.19582 0.484567 -20.9391
vn 0.787979 0.531276 -0.311184
v -5.20287 0.493439 -20.94
vn 0.727146 0.60789 -0.318949
v -5.21072 0.501634 -20.9405
vn 0.659311 0.678649 -0.323643
v -5.21932 0.509072 -20.9407
vn 0.585126 0.742873 -0.32522
v -5.22856 0.515681 -20.9405
vn 0.505306 0.799942 -0.323664
v -5.23837 0.521398 -20.94
vn 0.42062 0.849307 -0.318992
v -5.24864 0.526168 -20.9391
vn 0.331883 0.890494 -0.311248
v -5.25929 0.529944 -20.9379
vn 0.23995 0.923104 -0.300506
v -5.2702 0.532691 -20.9363
vn 0.145705 0.946824 -0.28687
v -5.28128 0.534382 -20.9344
vn 0.0500581 0.961426 -0.270471
v -5.29241 0.535001 -20.9322
vn -0.0460713 0.966769 -0.251468
v -5.88115 -0.285929 -23.6785
vn -0.154494 0.944216 -0.290841
v -5.89349 -0.287651 -23.6754
vn -0.248753 0.931065 -0.266908
v -5.90552 -0.290548 -23.6719
vn -0.340617 0.908948 -0.240404
v -5.91713 -0.294591 -23.6681
vn -0.4292 0.878077 -0.211585
v -5.92819 -0.299742 -23.6641
vn -0.51365 0.83875 -0.180728
v -5.9386 -0.30595 -23.6598
vn -0.593153 0.791345 -0.148131
v -5.94826 -0.313157 -23.6553
vn -0.666944 0.736319 -0.114107
v -5.95709 -0.321292 -23.6507
vn -0.734312 0.674202 -0.0789839
v -5.96498 -0.330277 -23.646
vn -0.794607 0.605592 -0.0431005
v -5.97188 -0.340027 -23.6413
vn -0.847251 0.53115 -0.00680201
v -5.9777 -0.350446 -23.6365
vn -0.891735 0.451592 0.029562
v -5.9824 -0.361435 -23.6318
vn -0.927631 0.367686 0.0656413
v -5.98593 -0.372888 -23.6272
vn -0.954593 0.280238 0.101088
v -5.98826 -0.384694 -23.6226
vn -0.972362 0.190092 0.135562
v -5.98936 -0.396739 -23.6183
vn -0.980767 0.0981144 0.16873
v -5.98923 -0.408909 -23.6142
vn -0.979726 0.00519246 0.200273
v -5.98785 -0.421085 -23.6103
vn -0.96925 -0.0877795 0.229888
v -5.98526 -0.433151 -23.6067
vn -0.94944 -0.179906 0.257288
v -5.98147 -0.444989 -23.6034
vn -0.920486 -0.2703 0.282211
v -5.97651 -0.456487 -23.6005
vn -0.882668 -0.358091 0.304415
v -5.97045 -0.467533 -23.598
vn -0.836348 -0.442433 0.323689
v -5.96333 -0.478021 -23.5959
vn -0.781975 -0.522515 0.339844
v -5.95522 -0.48785 -23.5942
vn -0.72007 -0.597564 0.352727
v -5.9462 -0.496925 -23.593
vn -0.651231 -0.666859 0.362213
v -5.93637 -0.505159 -23.5922
vn -0.57612 -0.729731 0.368211
v -5.9258 -0.512473 -23.5919
vn -0.49546 -0.785575 0.370662
v -5.91462 -0.518796 -23.592
vn -0.410029 -0.833854 0.369544
v -5.90291 -0.524067 -23.5926
vn -0.32065 -0.874103 0.364867
v -5.8908 -0.528235 -23.5937
vn -0.228182 -0.905933 0.356676
v -5.8784 -0.531261 -23.5952
vn -0.133517 -0.929039 0.34505
v -5.86584 -0.533116 -23.5972
vn -0.0375657 -0.943198 0.330101
v -5.85322 -0.53378 -23.5995
vn 0.0587471 -0.948273 0.311973
v -5.84068 -0.533249 -23.6023
vn 0.154494 -0.944216 0.290841
v -5.82834 -0.531527 -23.6054
vn 0.248753 -0.931065 0.266908
v -5.81631 -0.52863 -23.6089
vn 0.340617 -0.908948 0.240404
v -5.8047 -0.524587 -23.6127
vn 0.4292 -0.878077 0.211585
v -5.79364 -0.519437 -23.6167
vn 0.51365 -0.83875 0.180728
v -5.78323 -0.513228 -23.621
vn 0.593153 -0.791345 0.148131
v -5.77357 -0.506022 -23.6255
vn 0.666944 -0.736319 0.114107
v -5.76475 -0.497886 -23.6301
vn 0.734312 -0.674202 0.0789839
v -5.75685 -0.488901 -23.6348
vn 0.794607 -0.605592 0.0431005
v -5.74995 -0.479152 -23.6395
vn 0.847251 -0.53115 0.00680201
v -5.74413 -0.468732 -23.6443
vn 0.891735 -0.451592 -0.029562
v -5.73943 -0.457743 -23.649
vn 0.927631 -0.367686 -0.0656413
v -5.7359 -0.446291 -23.6536
vn 0.954593 -0.280238 -0.101088
v -5.73357 -0.434485 -23.6582
vn 0.972362 -0.190092 -0.135562
v -5.73247 -0.422439 -23.6625
vn 0.980767 -0.0981144 -0.16873
v -5.7326 -0.410269 -23.6666
vn 0.979726 -0.00519246 -0.200273
v -5.73398 -0.398093 -23.6705
vn 0.96925 0.0877795 -0.229888
v -5.73657 -0.386028 -23.6741
vn 0.94944 0.179906 -0.257288
v -5.74036 -0.374189 -23.6774
vn 0.920486 0.2703 -0.282211
v -5.74532 -0.362691 -23.6803
vn 0.882668 0.358091 -0.304415
v -5.75138 -0.351645 -23.6828
vn 0.836348 0.442433 -0.323689
v -5.7585 -0.341158 -23.6849
vn 0.781975 0.522515 -0.339844
v -5.76661 -0.331329 -23.6866
vn 0.72007 0.597564 -0.352727
v -5.77563 -0.322253 -23.6878
vn 0.651231 0.666859 -0.362213
v -5.78546 -0.314019 -23.6886
vn 0.57612 0.729731 -0.368211
v -5.79603 -0.306706 -23.6889
vn 0.49546 0.785575 -0.370662
v -5.80722 -0.300383 -23.6888
vn 0.410029 0.833854 -0.369544
v -5.81892 -0.295112 -23.6882
vn 0.32065 0.874103 -0.364867
v -5.83103 -0.290943 -23.6871
vn 0.228182 0.905933 -0.356676
v -5.84343 -0.287917 -23.6856
vn 0.133517 0.929039 -0.34505
v -5.856 -0.286062 -23.6836
vn 0.0375657 0.943198 -0.330101
v -5.86861 -0.285398 -23.6813
vn -0.0587471 0.948273 -0.311973
v -6.38291 -1.21814 -26.15
vn -0.16877 0.917 -0.361424
v -6.39668 -1.22004 -26.1464
vn -0.262961 0.903981 -0.337151
v -6.41007 -1.22322 -26.1424
vn -0.354619 0.882255 -0.309631
v -6.42296 -1.22763 -26.1379
vn -0.442862 0.852033 -0.279129
v -6.43523 -1.23325 -26.1331
vn -0.52684 0.813606 -0.245938
v -6.44676 -1.24001 -26.1279
vn -0.605744 0.767343 -0.210379
v -6.45744 -1.24785 -26.1224
vn -0.678814 0.71369 -0.172795
v -6.46716 -1.25669 -26.1167
vn -0.745347 0.653164 -0.133546
v -6.47584 -1.26645 -26.1108
vn -0.804702 0.586347 -0.0930104
v -6.48338 -1.27704 -26.1047
vn -0.856308 0.513884 -0.0515795
v -6.48971 -1.28835 -26.0986
vn -0.899666 0.436472 -0.00965193
v -6.49478 -1.30028 -26.0924
vn -0.93436 0.354856 0.0323686
v -6.49854 -1.31271 -26.0863
vn -0.960056 0.269823 0.0740775
v -6.50094 -1.32551 -26.0803
vn -0.976506 0.182191 0.115073
v -6.50197 -1.33857 -26.0745
vn -0.983552 0.092805 0.15496
v -6.50162 -1.35176 -26.0689
vn -0.981126 0.00252487 0.193355
v -6.49988 -1.36496 -26.0636
vn -0.96925 -0.0877795 0.229888
v -6.49678 -1.37803 -26.0586
vn -0.948041 -0.177239 0.264206
v -6.49235 -1.39085 -26.0539
vn -0.917701 -0.264991 0.295981
v -6.48662 -1.4033 -26.0497
vn -0.878523 -0.350191 0.324905
v -6.47966 -1.41526 -26.0459
vn -0.830885 -0.432018 0.3507
v -6.47153 -1.42661 -26.0426
vn -0.775245 -0.509685 0.373117
v -6.46231 -1.43724 -26.0399
vn -0.712138 -0.582444 0.391941
v -6.45209 -1.44705 -26.0377
vn -0.642174 -0.649593 0.406991
v -6.44096 -1.45595 -26.0361
vn -0.566025 -0.710486 0.418121
v -6.42904 -1.46385 -26.035
vn -0.484425 -0.764537 0.425224
v -6.41643 -1.47067 -26.0346
vn -0.398159 -0.811225 0.428232
v -6.40327 -1.47635 -26.0348
vn -0.308059 -0.850101 0.427116
v -6.38967 -1.48084 -26.0355
vn -0.214993 -0.880789 0.421887
v -6.37576 -1.48408 -26.0369
vn -0.119855 -0.902995 0.412594
v -6.36169 -1.48605 -26.0388
vn -0.0235638 -0.916505 0.399328
v -6.34759 -1.48674 -26.0413
vn 0.0729546 -0.921188 0.382217
v -6.33359 -1.48613 -26.0443
vn 0.16877 -0.917 0.361424
v -6.31983 -1.48422 -26.0479
vn 0.262961 -0.903981 0.337151
v -6.30643 -1.48105 -26.0519
vn 0.354619 -0.882255 0.309631
v -6.29354 -1.47663 -26.0564
vn 0.442862 -0.852033 0.279129
v -6.28127 -1.47102 -26.0612
vn 0.52684 -0.813606 0.245938
v -6.26974 -1.46426 -26.0664
vn 0.605744 -0.767343 0.210379
v -6.25906 -1.45642 -26.0719
vn 0.678814 -0.71369 0.172795
v -6.24934 -1.44757 -26.0776
vn 0.745347 -0.653164 0.133546
v -6.24067 -1.43781 -26.0836
vn 0.804702 -0.586347 0.0930104
v -6.23312 -1.42722 -26.0896
vn 0.856308 -0.513884 0.0515795
v -6.22679 -1.41591 -26.0958
vn 0.899666 -0.436472 0.00965193
v -6.22172 -1.40399 -26.1019
vn 0.93436 -0.354856 -0.0323686
v -6.21796 -1.39156 -26.108
vn 0.960056 -0.269823 -0.0740775
v -6.21556 -1.37876 -26.114
vn 0.976506 -0.182191 -0.115073
v -6.21453 -1.36569 -26.1198
vn 0.983552 -0.092805 -0.15496
v -6.21489 -1.3525 -26.1254
vn 0.981126 -0.00252487 -0.193355
v -6.21662 -1.33931 -26.1308
vn 0.96925 0.0877795 -0.229888
v -6.21972 -1.32623 -26.1358
vn 0.948041 0.177239 -0.264206
v -6.22415 -1.31341 -26.1404
vn 0.917701 0.264991 -0.295981
v -6.22988 -1.30096 -26.1446
vn 0.878523 0.350191 -0.324905
v -6.23684 -1.28901 -26.1484
vn 0.830885 0.432018 -0.3507
v -6.24497 -1.27766 -26.1517
vn 0.775245 0.509685 -0.373117
v -6.25419 -1.26702 -26.1544
vn 0.712138 0.582444 -0.391941
v -6.26441 -1.25721 -26.1566
vn 0.642174 0.649593 -0.406991
v -6.27554 -1.24831 -26.1583
vn 0.566025 0.710486 -0.418121
v -6.28747 -1.24042 -26.1593
vn 0.484425 0.764537 -0.425224
v -6.30007 -1.23359 -26.1597
vn 0.398159 0.811225 -0.428232
v -6.31324 -1.22791 -26.1596
vn 0.308059 0.850101 -0.427116
v -6.32684 -1.22343 -26.1588
vn 0.214993 0.880789 -0.421887
v -6.34074 -1.22018 -26.1575
vn 0.119855 0.902995 -0.412594
v -6.35481 -1.21821 -26.1555
vn 0.0235638 0.916505 -0.399328
v -6.36891 -1.21753 -26.153
vn -0.0729546 0.921188 -0.382217
v -6.80883 -2.26307 -28.3447
vn -0.184461 0.877513 -0.442656
v -6.82401 -2.26513 -28.3408
vn -0.278576 0.864684 -0.417992
v -6.83876 -2.26855 -28.3361
vn -0.370008 0.843527 -0.389302
v -6.85293 -2.27327 -28.3309
vn -0.457877 0.814247 -0.356863
v -6.86639 -2.27926 -28.3251
vn -0.541336 0.777125 -0.320987
v -6.87901 -2.28645 -28.3188
vn -0.619582 0.732519 -0.28202
v -6.89067 -2.29478 -28.3121
vn -0.69186 0.680858 -0.240336
v -6.90125 -2.30417 -28.305
vn -0.757476 0.62264 -0.196339
v -6.91066 -2.31453 -28.2976
vn -0.815797 0.558426 -0.15045
v -6.91879 -2.32575 -28.29
vn -0.866262 0.488834 -0.103112
v -6.92559 -2.33773 -28.2822
vn -0.908383 0.414534 -0.0547819
v -6.93097 -2.35036 -28.2743
vn -0.941757 0.336242 -0.00592382
v -6.93489 -2.36351 -28.2664
vn -0.966061 0.254712 0.0429914
v -6.93731 -2.37706 -28.2586
vn -0.981061 0.170729 0.0914925
v -6.9382 -2.39087 -28.2509
vn -0.986613 0.0851015 0.139113
v -6.93757 -2.40481 -28.2434
vn -0.982664 -0.0013455 0.185393
v -6.9354 -2.41875 -28.2363
vn -0.96925 -0.0877795 0.229888
v -6.93174 -2.43255 -28.2294
vn -0.946503 -0.173368 0.272169
v -6.9266 -2.44609 -28.2231
vn -0.91464 -0.257287 0.311828
v -6.92004 -2.45922 -28.2171
vn -0.873969 -0.338728 0.348485
v -6.91212 -2.47183 -28.2118
vn -0.82488 -0.416908 0.381786
v -6.90292 -2.48379 -28.207
vn -0.767848 -0.491072 0.411409
v -6.89253 -2.49499 -28.2029
vn -0.703421 -0.560506 0.437071
v -6.88105 -2.50532 -28.1994
vn -0.63222 -0.624543 0.458524
v -6.86858 -2.51467 -28.1966
vn -0.55493 -0.682565 0.47556
v -6.85526 -2.52297 -28.1946
vn -0.472296 -0.734014 0.488017
v -6.84119 -2.53013 -28.1934
vn -0.385113 -0.778393 0.495774
v -6.82654 -2.53608 -28.1929
vn -0.294221 -0.815277 0.498756
v -6.81142 -2.54076 -28.1932
vn -0.200496 -0.844308 0.496935
v -6.79599 -2.54413 -28.1943
vn -0.10484 -0.865209 0.490328
v -6.7804 -2.54616 -28.1961
vn -0.00817475 -0.877777 0.478999
v -6.7648 -2.54682 -28.1987
vn 0.0885696 -0.881892 0.463058
v -6.74933 -2.54612 -28.202
vn 0.184461 -0.877513 0.442656
v -6.73416 -2.54405 -28.2059
vn 0.278576 -0.864684 0.417992
v -6.71941 -2.54063 -28.2106
vn 0.370008 -0.843527 0.389302
v -6.70524 -2.53591 -28.2158
vn 0.457877 -0.814247 0.356863
v -6.69178 -2.52992 -28.2216
vn 0.541336 -0.777125 0.320987
v -6.67916 -2.52273 -28.2279
vn 0.619582 -0.732519 0.28202
v -6.6675 -2.5144 -28.2346
vn 0.69186 -0.680858 0.240336
v -6.65692 -2.50501 -28.2417
vn 0.757476 -0.62264 0.196339
v -6.64751 -2.49465 -28.2491
vn 0.815797 -0.558426 0.15045
v -6.63937 -2.48343 -28.2567
vn 0.866262 -0.488834 0.103112
v -6.63258 -2.47145 -28.2645
vn 0.908383 -0.414534 0.0547819
v -6.6272 -2.45882 -28.2724
vn 0.941757 -0.336242 0.00592382
v -6.62328 -2.44567 -28.2803
vn 0.966061 -0.254712 -0.0429914
v -6.62086 -2.43213 -28.2881
vn 0.981061 -0.170729 -0.0914925
v -6.61996 -2.41832 -28.2958
vn 0.986613 -0.0851015 -0.139113
v -6.6206 -2.40437 -28.3032
vn 0.982664 0.0013455 -0.185393
v -6.62276 -2.39043 -28.3104
vn 0.96925 0.0877795 -0.229888
v -6.62643 -2.37663 -28.3172
vn 0.946503 0.173368 -0.272169
v -6.63157 -2.3631 -28.3236
vn 0.91464 0.257287 -0.311828
v -6.63813 -2.34996 -28.3295
vn 0.873969 0.338728 -0.348485
v -6.64605 -2.33735 -28.3349
vn 0.82488 0.416908 -0.381786
v -6.65525 -2.32539 -28.3397
vn 0.767848 0.491072 -0.411409
v -6.66564 -2.31419 -28.3438
vn 0.703421 0.560506 -0.437071
v -6.67712 -2.30386 -28.3473
vn 0.63222 0.624543 -0.458524
v -6.68959 -2.29451 -28.35
vn 0.55493 0.682565 -0.47556
v -6.70291 -2.28621 -28.352
vn 0.472296 0.734014 -0.488017
v -6.71697 -2.27905 -28.3533
vn 0.385113 0.778393 -0.495774
v -6.73163 -2.2731 -28.3538
vn 0.294221 0.815277 -0.498756
v -6.74675 -2.26842 -28.3535
vn 0.200496 0.844308 -0.496935
v -6.76218 -2.26505 -28.3524
vn 0.10484 0.865209 -0.490328
v -6.77777 -2.26302 -28.3506
vn 0.00817475 0.877777 -0.478999
v -6.79337 -2.26236 -28.348
vn -0.0885696 0.881892 -0.463058
v -7.15889 -3.4221 -30.2632
vn -0.201085 0.821016 -0.53432
v -7.17549 -3.42432 -30.2588
vn -0.29512 0.808459 -0.509214
v -7.19157 -3.42791 -30.2535
vn -0.386313 0.788115 -0.479204
v -7.20701 -3.43284 -30.2474
vn -0.473785 0.760182 -0.444579
v -7.22164 -3.43906 -30.2405
vn -0.556695 0.724928 -0.405673
v -7.23532 -3.44651 -30.233
vn -0.634243 0.682692 -0.36286
v -7.24792 -3.45512 -30.2248
vn -0.705683 0.633882 -0.316552
v -7.25933 -3.46481 -30.2161
vn -0.770327 0.578967 -0.267196
v -7.26943 -3.47548 -30.2069
vn -0.827552 0.518476 -0.215266
v -7.27812 -3.48704 -30.1974
vn -0.876808 0.452993 -0.161263
v -7.28532 -3.49936 -30.1876
vn -0.917619 0.383146 -0.105707
v -7.29096 -3.51234 -30.1776
vn -0.949593 0.30961 -0.0491337
v -7.29499 -3.52584 -30.1675
vn -0.972423 0.233091 0.00791323
v -7.29736 -3.53973 -30.1575
vn -0.985887 0.154329 0.064884
v -7.29806 -3.55389 -30.1476
vn -0.989856 0.0740794 0.12123
v -7.29708 -3.56818 -30.1378
vn -0.984293 -0.00688321 0.176408
v -7.29443 -3.58245 -30.1284
vn -0.96925 -0.0877795 0.229888
v -7.29013 -3.59657 -30.1193
vn -0.944873 -0.16783 0.281153
v -7.28422 -3.61041 -30.1108
vn -0.911397 -0.246265 0.329711
v -7.27676 -3.62383 -30.1028
vn -0.869143 -0.322328 0.375094
v -7.26783 -3.63671 -30.0954
vn -0.818519 -0.395287 0.416864
v -7.25751 -3.64891 -30.0887
vn -0.760012 -0.464439 0.454619
v -7.24589 -3.66032 -30.0828
vn -0.694185 -0.529118 0.487997
v -7.2331 -3.67083 -30.0778
vn -0.621674 -0.588702 0.516674
v -7.21925 -3.68034 -30.0736
vn -0.543175 -0.642615 0.540376
v -7.20448 -3.68876 -30.0703
vn -0.459445 -0.690341 0.558874
v -7.18892 -3.69601 -30.068
vn -0.37129 -0.731418 0.571989
v -7.17274 -3.70202 -30.0667
vn -0.27956 -0.76545 0.579596
v -7.15608 -3.70672 -30.0663
vn -0.185138 -0.792112 0.581621
v -7.13911 -3.71008 -30.067
vn -0.088932 -0.811144 0.578045
v -7.12198 -3.71206 -30.0686
vn 0.00813002 -0.822365 0.568902
v -7.10487 -3.71264 -30.0711
vn 0.105114 -0.825666 0.55428
v -7.08794 -3.71182 -30.0747
vn 0.201085 -0.821016 0.53432
v -7.07135 -3.7096 -30.0791
vn 0.29512 -0.808459 0.509214
v -7.05526 -3.70601 -30.0844
vn 0.386313 -0.788115 0.479204
v -7.03982 -3.70109 -30.0905
vn 0.473785 -0.760182 0.444579
v -7.02519 -3.69487 -30.0974
vn 0.556695 -0.724928 0.405673
v -7.01151 -3.68741 -30.1049
vn 0.634243 -0.682692 0.36286
v -6.99891 -3.6788 -30.1131
vn 0.705683 -0.633882 0.316552
v -6.9875 -3.66911 -30.1218
vn 0.770327 -0.578967 0.267196
v -6.9774 -3.65844 -30.131
vn 0.827552 -0.518476 0.215266
v -6.96871 -3.64689 -30.1405
vn 0.876808 -0.452993 0.161263
v -6.96151 -3.63456 -30.1503
vn 0.917619 -0.383146 0.105707
v -6.95587 -3.62159 -30.1603
vn 0.949593 -0.30961 0.0491337
v -6.95184 -3.60809 -30.1703
vn 0.972423 -0.233091 -0.00791323
v -6.94947 -3.59419 -30.1804
vn 0.985887 -0.154329 -0.064884
v -6.94877 -3.58003 -30.1903
vn 0.989856 -0.0740794 -0.12123
v -6.94975 -3.56575 -30.2001
vn 0.984293 0.00688321 -0.176408
v -6.9524 -3.55147 -30.2095
vn 0.96925 0.0877795 -0.229888
v -6.9567 -3.53735 -30.2186
vn 0.944873 0.16783 -0.281153
v -6.96261 -3.52351 -30.2271
vn 0.911397 0.246265 -0.329711
v -6.97007 -3.51009 -30.2351
vn 0.869143 0.322328 -0.375094
v -6.979 -3.49722 -30.2425
vn 0.818519 0.395287 -0.416864
v -6.98932 -3.48502 -30.2492
vn 0.760012 0.464439 -0.454619
v -7.00094 -3.47361 -30.255
vn 0.694185 0.529118 -0.487997
v -7.01373 -3.46309 -30.2601
vn 0.621674 0.588702 -0.516674
v -7.02758 -3.45358 -30.2643
vn 0.543175 0.642615 -0.540376
v -7.04235 -3.44516 -30.2676
vn 0.459445 0.690341 -0.558874
v -7.05791 -3.43791 -30.2699
vn 0.37129 0.731418 -0.571989
v -7.07409 -3.43191 -30.2712
vn 0.27956 0.76545 -0.579596
v -7.09075 -3.4272 -30.2716
vn 0.185138 0.792112 -0.581621
v -7.10772 -3.42385 -30.2709
vn 0.088932 0.811144 -0.578045
v -7.12485 -3.42187 -30.2693
vn -0.00813002 0.822365 -0.568902
v -7.14196 -3.42128 -30.2667
vn -0.105114 0.825666 -0.55428
v -7.43293 -4.69707 -31.9054
vn -0.21758 0.742092 -0.634002
v -7.45093 -4.6994 -31.9005
vn -0.311536 0.729915 -0.608416
v -7.46836 -4.70308 -31.8945
vn -0.402491 0.710708 -0.576971
v -7.48504 -4.70807 -31.8874
vn -0.48957 0.684657 -0.539969
v -7.50082 -4.71433 -31.8793
vn -0.571934 0.652012 -0.497767
v -7.51555 -4.72178 -31.8703
vn -0.64879 0.613088 -0.450772
v -7.52908 -4.73037 -31.8605
vn -0.719398 0.568259 -0.399435
v -7.54128 -4.74001 -31.8499
vn -0.783078 0.517958 -0.344251
v -7.55203 -4.7506 -31.8387
vn -0.839216 0.462669 -0.285752
v -7.56124 -4.76205 -31.827
vn -0.887272 0.402924 -0.224501
v -7.56881 -4.77424 -31.8148
vn -0.926783 0.339298 -0.161088
v -7.57467 -4.78706 -31.8024
vn -0.957369 0.272405 -0.0961236
v -7.57876 -4.80038 -31.7898
vn -0.978735 0.202889 -0.0302335
v -7.58105 -4.81407 -31.7771
vn -0.990675 0.131418 0.0359477
v -7.58151 -4.828 -31.7645
vn -0.993074 0.0586821 0.101783
v -7.58014 -4.84205 -31.752
vn -0.98591 -0.0146191 0.166638
v -7.57695 -4.85607 -31.7399
vn -0.96925 -0.0877795 0.229888
v -7.57197 -4.86992 -31.7282
vn -0.943257 -0.160095 0.290924
v -7.56525 -4.88348 -31.7171
vn -0.908179 -0.230868 0.349158
v -7.55685 -4.89661 -31.7066
vn -0.864355 -0.299418 0.40403
v -7.54686 -4.9092 -31.6968
vn -0.812206 -0.365084 0.455011
v -7.53537 -4.9211 -31.6879
vn -0.752236 -0.427234 0.501609
v -7.52249 -4.93222 -31.6799
vn -0.685021 -0.48527 0.543377
v -7.50835 -4.94245 -31.6729
vn -0.611209 -0.538633 0.579912
v -7.49308 -4.95168 -31.6669
vn -0.531511 -0.586808 0.610862
v -7.47683 -4.95982 -31.6621
vn -0.446694 -0.629332 0.635929
v -7.45975 -4.96681 -31.6585
vn -0.357575 -0.665795 0.654872
v -7.44202 -4.97257 -31.6561
vn -0.265013 -0.695846 0.667508
v -7.4238 -4.97704 -31.6549
vn -0.169898 -0.719195 0.673716
v -7.40526 -4.98019 -31.6549
vn -0.0731473 -0.735619 0.673435
v -7.38659 -4.98198 -31.6562
vn 0.0243081 -0.744958 0.666669
v -7.36796 -4.98239 -31.6588
vn 0.121529 -0.747122 0.653482
v -7.34956 -4.98143 -31.6625
vn 0.21758 -0.742092 0.634002
v -7.33156 -4.97909 -31.6674
vn 0.311536 -0.729915 0.608416
v -7.31413 -4.97541 -31.6734
vn 0.402491 -0.710708 0.576971
v -7.29745 -4.97042 -31.6805
vn 0.48957 -0.684657 0.539969
v -7.28167 -4.96417 -31.6886
vn 0.571934 -0.652012 0.497767
v -7.26694 -4.95671 -31.6976
vn 0.64879 -0.613088 0.450772
v -7.25341 -4.94812 -31.7074
vn 0.719398 -0.568259 0.399435
v -7.24121 -4.93849 -31.718
vn 0.783078 -0.517958 0.344251
v -7.23046 -4.92789 -31.7292
vn 0.839216 -0.462669 0.285752
v -7.22125 -4.91645 -31.741
vn 0.887272 -0.402924 0.224501
v -7.21368 -4.90426 -31.7531
vn 0.926783 -0.339298 0.161088
v -7.20782 -4.89144 -31.7656
vn 0.957369 -0.272405 0.0961236
v -7.20372 -4.87812 -31.7782
vn 0.978735 -0.202889 0.0302335
v -7.20144 -4.86443 -31.7909
vn 0.990675 -0.131418 -0.0359477
v -7.20098 -4.85049 -31.8035
vn 0.993074 -0.0586821 -0.101783
v -7.20235 -4.83645 -31.8159
vn 0.98591 0.0146191 -0.166638
v -7.20554 -4.82243 -31.828
vn 0.96925 0.0877795 -0.229888
v -7.21052 -4.80857 -31.8397
vn 0.943257 0.160095 -0.290924
v -7.21724 -4.79502 -31.8509
vn 0.908179 0.230868 -0.349158
v -7.22564 -4.78188 -31.8614
vn 0.864355 0.299418 -0.40403
v -7.23563 -4.7693 -31.8711
vn 0.812206 0.365084 -0.455011
v -7.24712 -4.75739 -31.8801
vn 0.752236 0.427234 -0.501609
v -7.26 -4.74627 -31.8881
vn 0.685021 0.48527 -0.543377
v -7.27414 -4.73605 -31.8951
vn 0.611209 0.538633 -0.579912
v -7.28941 -4.72682 -31.901
vn 0.531511 0.586808 -0.610862
v -7.30566 -4.71867 -31.9058
vn 0.446694 0.629332 -0.635929
v -7.32274 -4.71169 -31.9094
vn 0.357575 0.665795 -0.654872
v -7.34047 -4.70593 -31.9119
vn 0.265013 0.695846 -0.667508
v -7.35869 -4.70145 -31.913
vn 0.169898 0.719195 -0.673716
v -7.37723 -4.69831 -31.913
vn 0.0731473 0.735619 -0.673435
v -7.3959 -4.69652 -31.9117
vn -0.0243081 0.744958 -0.666669
v -7.41453 -4.6961 -31.9092
vn -0.121529 0.747122 -0.653482
v -7.63057 -6.08993 -33.2705
vn -0.232136 0.636137 -0.735828
v -7.64998 -6.09234 -33.2652
vn -0.326021 0.62447 -0.709752
v -7.66874 -6.09599 -33.2584
vn -0.416767 0.606788 -0.676841
v -7.68667 -6.10086 -33.2502
vn -0.503499 0.583264 -0.637411
v -7.7036 -6.10688 -33.2408
vn -0.585382 0.554122 -0.591842
v -7.71936 -6.11401 -33.2302
vn -0.661627 0.519643 -0.540574
v -7.73381 -6.12217 -33.2185
vn -0.7315 0.480161 -0.4841
v -7.7468 -6.13129 -33.2059
vn -0.794329 0.436053 -0.422964
v -7.75821 -6.14128 -33.1924
vn -0.849508 0.387747 -0.357754
v -7.76792 -6.15204 -33.1782
vn -0.896506 0.335706 -0.289099
v -7.77586 -6.16347 -33.1634
vn -0.93487 0.280433 -0.21766
v -7.78193 -6.17545 -33.1482
vn -0.964231 0.222458 -0.144124
v -7.78608 -6.18788 -33.1327
vn -0.984305 0.162341 -0.0692008
v -7.78827 -6.20064 -33.1171
vn -0.9949 0.100661 0.00638911
v -7.78848 -6.21359 -33.1015
vn -0.995914 0.0380112 0.0819175
v -7.7867 -6.22662 -33.086
vn -0.987337 -0.0250046 0.156657
v -7.78296 -6.2396 -33.0709
vn -0.96925 -0.0877795 0.229888
v -7.77729 -6.2524 -33.0562
vn -0.94183 -0.149709 0.300904
v -7.76975 -6.26491 -33.0421
vn -0.905339 -0.210197 0.369023
v -7.7604 -6.27699 -33.0288
vn -0.860129 -0.26866 0.433588
v -7.74934 -6.28855 -33.0163
vn -0.806636 -0.324537 0.493978
v -7.73668 -6.29945 -33.0048
vn -0.745375 -0.377287 0.54961
v -7.72253 -6.30961 -32.9944
vn -0.676935 -0.426405 0.599949
v -7.70703 -6.31891 -32.9852
vn -0.601975 -0.471415 0.64451
v -7.69033 -6.32728 -32.9772
vn -0.521219 -0.511886 0.682864
v -7.6726 -6.33463 -32.9707
vn -0.435443 -0.547427 0.714642
v -7.654 -6.34089 -32.9655
vn -0.345473 -0.577696 0.739538
v -7.63471 -6.34599 -32.9618
vn -0.252176 -0.602401 0.757311
v -7.61492 -6.3499 -32.9597
vn -0.156451 -0.621305 0.767791
v -7.59481 -6.35257 -32.959
vn -0.0592185 -0.634226 0.770877
v -7.57459 -6.35398 -32.9599
vn 0.0385839 -0.641038 0.766538
v -7.55445 -6.35411 -32.9624
vn 0.136015 -0.641677 0.754818
v -7.53458 -6.35297 -32.9663
vn 0.232136 -0.636137 0.735828
v -7.51517 -6.35056 -32.9717
vn 0.326021 -0.62447 0.709752
v -7.4964 -6.3469 -32.9785
vn 0.416767 -0.606788 0.676841
v -7.47847 -6.34204 -32.9866
vn 0.503499 -0.583264 0.637411
v -7.46154 -6.33601 -32.996
vn 0.585382 -0.554122 0.591842
v -7.44578 -6.32888 -33.0066
vn 0.661627 -0.519643 0.540574
v -7.43133 -6.32072 -33.0183
vn 0.7315 -0.480161 0.4841
v -7.41834 -6.3116 -33.031
vn 0.794329 -0.436053 0.422964
v -7.40693 -6.30161 -33.0444
vn 0.849508 -0.387747 0.357754
v -7.39722 -6.29086 -33.0586
vn 0.896506 -0.335706 0.289099
v -7.38929 -6.27943 -33.0734
vn 0.93487 -0.280433 0.21766
v -7.38322 -6.26744 -33.0886
vn 0.964231 -0.222458 0.144124
v -7.37907 -6.25501 -33.1041
vn 0.984305 -0.162341 0.0692008
v -7.37687 -6.24226 -33.1197
vn 0.9949 -0.100661 -0.00638911
v -7.37667 -6.22931 -33.1353
vn 0.995914 -0.0380112 -0.0819175
v -7.37844 -6.21628 -33.1508
vn 0.987337 0.0250046 -0.156657
v -7.38218 -6.2033 -33.1659
vn 0.96925 0.0877795 -0.229888
v -7.38785 -6.1905 -33.1806
vn 0.94183 0.149709 -0.300904
v -7.39539 -6.17799 -33.1947
vn 0.905339 0.210197 -0.369023
v -7.40474 -6.1659 -33.2081
vn 0.860129 0.26866 -0.433588
v -7.4158 -6.15435 -33.2205
vn 0.806636 0.324537 -0.493978
v -7.42846 -6.14344 -33.232
vn 0.745375 0.377287 -0.54961
v -7.44261 -6.13329 -33.2425
vn 0.676935 0.426405 -0.599949
v -7.45811 -6.12398 -33.2517
vn 0.601975 0.471415 -0.64451
v -7.47481 -6.11562 -33.2596
vn 0.521219 0.511886 -0.682864
v -7.49254 -6.10827 -33.2662
vn 0.435443 0.547427 -0.714642
v -7.51114 -6.10201 -33.2713
vn 0.345473 0.577696 -0.739538
v -7.53043 -6.0969 -33.275
vn 0.252176 0.602401 -0.757311
v -7.55022 -6.09299 -33.2772
vn 0.156451 0.621305 -0.767791
v -7.57033 -6.09032 -33.2778
vn 0.0592185 0.634226 -0.770877
v -7.59055 -6.08891 -33.2769
vn -0.0385839 0.641038 -0.766538
v -7.61069 -6.08878 -33.2745
vn -0.136015 0.641677 -0.754818
f 1 66 2 
f 1 65 66 
f 2 67 3 
f 2 66 67 
f 3 68 4 
f 3 67 68 
f 4 69 5 
f 4 68 69 
f 5 70 6 
f 5 69 70 
f 6 71 7 
f 6 70 71 
f 7 72 8 
f 7 71 72 
f 8 73 9 
f 8 72 73 
f 9 74 10 
f 9 73 74 
f 10 75 11 
f 10 74 75 
f 11 76 12 
f 11 75 76 
f 12 77 13 
f 12 76 77 
f 13 78 14 
f 13 77 78 
f 14 79 15 
f 14 78 79 
f 15 80 16 
f 15 79 80 
f 16 81 17 
f 16 80 81 
f 17 82 18 
f 17 81 82 
f 18 83 19 
f 18 82 83 
f 19 84 20 
f 19 83 84 
f 20 85 21 
f 20 84 85 
f 21 86 22 
f 21 85 86 
f 22 87 23 
f 22 86 87 
f 23 88 24 
f 23 87 88 
f 24 89 25 
f 24 88 89 
f 25 90 26 
f 25 89 90 
f 26 91 27 
f 26 90 91 
f 27 92 28 
f 27 91 92 
f 28 93 29 
f 28 92 93 
f 29 94 30 
f 29 93 94 
f 30 95 31 
f 30 94 95 
f 31 96 32 
f 31 95 96 
f 32 97 33 
f 32 96 97 
f 33 98 34 
f 33 97 98 
f 34 99 35 
f 34 98 99 
f 35 100 36 
f 35 99 100 
f 36 101 37 
f 36 100 101 
f 37 102 38 
f 37 101 102 
f 38 103 39 
f 38 102 103 
f 39 104 40 
f 39 103 104 
f 40 105 41 
f 40 104 105 
f 41 106 42 
f 41 105 106 
f 42 107 43 
f 42 106 107 
f 43 108 44 
f 43 107 108 
f 44 109 45 
f 44 108 109 
f 45 110 46 
f 45 109 110 
f 46 111 47 
f 46 110 111 
f 47 112 48 
f 47 111 112 
f 48 113 49 
f 48 112 113 
f 49 114 50 
f 49 113 114 
f 50 115 51 
f 50 114 115 
f 51 116 52 
f 51 115 116 
f 52 117 53 
f 52 116 117 
f 53 118 54 
f 53 117 118 
f 54 119 55 
f 54 118 119 
f 55 120 56 
f 55 119 120 
f 56 121 57 
f 56 120 121 
f 57 122 58 
f 57 121 122 
f 58 123 59 
f 58 122 123 
f 59 124 60 
f 59 123 124 
f 60 125 61 
f 60 124 125 
f 61 126 62 
f 61 125 126 
f 62 127 63 
f 62 126 127 
f 63 128 64 
f 63 127 128 
f 64 65 1 
f 64 128 65 
f 65 130 66 
f 65 129 130 
f 66 131 67 
f 66 130 131 
f 67 132 68 
f 67 131 132 
f 68 133 69 
f 68 132 133 
f 69 134 70 
f 69 133 134 
f 70 135 71 
f 70 134 135 
f 71 136 72 
f 71 135 136 
f 72 137 73 
f 72 136 137 
f 73 138 74 
f 73 137 138 
f 74 139 75 
f 74 138 139 
f 75 140 76 
f 75 139 140 
f 76 141 77 
f 76 140 141 
f 77 142 78 
f 77 141 142 
f 78 143 79 
f 78 142 143 
f 79 144 80 
f 79 143 144 
f 80 145 81 
f 80 144 145 
f 81 146 82 
f 81 145 146 
f 82 147 83 
f 82 146 147 
f 83 148 84 
f 83 147 148 
f 84 149 85 
f 84 148 149 
f 85 150 86 
f 85 149 150 
f 86 151 87 
f 86 150 151 
f 87 152 88 
f 87 151 152 
f 88 153 89 
f 88 152 153 
f 89 154 90 
f 89 153 154 
f 90 155 91 
f 90 154 155 
f 91 156 92 
f 91 155 156 
f 92 157 93 
f 92 156 157 
f 93 158 94 
f 93 157 158 
f 94 159 95 
f 94 158 159 
f 95 160 96 
f 95 159 160 
f 96 161 97 
f 96 160 161 
f 97 162 98 
f 97 161 162 
f 98 163 99 
f 98 162 163 
f 99 164 100 
f 99 163 164 
f 100 165 101 
f 100 164 165 
f 101 166 102 
f 101 165 166 
f 102 167 103 
f 102 166 167 
f 103 168 104 
f 103 167 168 
f 104 169 105 
f 104 168 169 
f 105 170 106 
f 105 169 170 
f 106 171 107 
f 106 170 171 
f 107 172 108 
f 107 171 172 
f 108 173 109 
f 108 172 173 
f 109 174 110 
f 109 173 174 
f 110 175 111 
f 110 174 175 
f 111 176 112 
f 111 175 176 
f 112 177 113 
f 112 176 177 
f 113 178 114 
f 113 177 178 
f 114 179 115 
f 114 178 179 
f 115 180 116 
f 115 179 180 
f 116 181 117 
f 116 180 181 
f 117 182 118 
f 117 181 182 
f 118 183 119 
f 118 182 183 
f 119 184 120 
f 119 183 184 
f 120 185 121 
f 120 184 185 
f 121 186 122 
f 121 185 186 
f 122 187 123 
f 122 186 187 
f 123 188 124 
f 123 187 188 
f 124 189 125 
f 124 188 189 
f 125 190 126 
f 125 189 190 
f 126 191 127 
f 126 190 191 
f 127 192 128 
f 127 191 192 
f 128 129 65 
f 128 192 129 
f 129 194 130 
f 129 193 194 
f 130 195 131 
f 130 194 195 
f 131 196 132 
f 131 195 196 
f 132 197 133 
f 132 196 197 
f 133 198 134 
f 133 197 198 
f 134 199 135 
f 134 198 199 
f 135 200 136 
f 135 199 200 
f 136 201 137 
f 136 200 201 
f 137 202 138 
f 137 201 202 
f 138 203 139 
f 138 202 203 
f 139 204 140 
f 139 203 204 
f 140 205 141 
f 140 204 205 
f 141 206 142 
f 141 205 206 
f 142 207 143 
f 142 206 207 
f 143 208 144 
f 143 207 208 
f 144 209 145 
f 144 208 209 
f 145 210 146 
f 145 209 210 
f 146 211 147 
f 146 210 211 
f 147 212 148 
f 147 211 212 
f 148 213 149 
f 148 212 213 
f 149 214 150 
f 149 213 214 
f 150 215 151 
f 150 214 215 
f 151 216 152 
f 151 215 216 
f 152 217 153 
f 152 216 217 
f 153 218 154 
f 153 217 218 
f 154 219 155 
f 154 218 219 
f 155 220 156 
f 155 219 220 
f 156 221 157 
f 156 220 221 
f 157 222 158 
f 157 221 222 
f 158 223 159 
f 158 222 223 
f 159 224 160 
f 159 223 224 
f 160 225 161 
f 160 224 225 
f 161 226 162 
f 161 225 226 
f 162 227 163 
f 162 226 227 
f 163 228 164 
f 163 227 228 
f 164 229 165 
f 164 228 229 
f 165 230 166 
f 165 229 230 
f 166 231 167 
f 166 230 231 
f 167 232 168 
f 167 231 232 
f 168 233 169 
f 168 232 233 
f 169 234 170 
f 169 233 234 
f 170 235 171 
f 170 234 235 
f 171 236 172 
f 171 235 236 
f 172 237 173 
f 172 236 237 
f 173 238 174 
f 173 237 238 
f 174 239 175 
f 174 238 239 
f 175 240 176 
f 175 239 240 
f 176 241 177 
f 176 240 241 
f 177 242 178 
f 177 241 242 
f 178 243 179 
f 178 242 243 
f 179 244 180 
f 179 243 244 
f 180 245 181 
f 180 244 245 
f 181 246 182 
f 181 245 246 
f 182 247 183 
f 182 246 247 
f 183 248 184 
f 183 247 248 
f 184 249 185 
f 184 248 249 
f 185 250 186 
f 185 249 250 
f 186 251 187 
f 186 250 251 
f 187 252 188 
f 187 251 252 
f 188 253 189 
f 188 252 253 
f 189 254 190 
f 189 253 254 
f 190 255 191 
f 190 254 255 
f 191 256 192 
f 191 255 256 
f 192 193 129 
f 192 256 193 
f 193 258 194 
f 193 257 258 
f 194 259 195 
f 194 258 259 
f 195 260 196 
f 195 259 260 
f 196 261 197 
f 196 260 261 
f 197 262 198 
f 197 261 262 
f 198 263 199 
f 198 262 263 
f 199 264 200 
f 199 263 264 
f 200 265 201 
f 200 264 265 
f 201 266 202 
f 201 265 266 
f 202 267 203 
f 202 266 267 
f 203 268 204 
f 203 267 268 
f 204 269 205 
f 204 268 269 
f 205 270 206 
f 205 269 270 
f 206 271 207 
f 206 270 271 
f 207 272 208 
f 207 271 272 
f 208 273 209 
f 208 272 273 
f 209 274 210 
f 209 273 274 
f 210 275 211 
f 210 274 275 
f 211 276 212 
f 211 275 276 
f 212 277 213 
f 212 276 277 
f 213 278 214 
f 213 277 278 
f 214 279 215 
f 214 278 279 
f 215 280 216 
f 215 279 280 
f 216 281 217 
f 216 280 281 
f 217 282 218 
f 217 281 282 
f 218 283 219 
f 218 282 283 
f 219 284 220 
f 219 283 284 
f 220 285 221 
f 220 284 285 
f 221 286 222 
f 221 285 286 
f 222 287 223 
f 222 286 287 
f 223 288 224 
f 223 287 288 
f 224 289 225 
f 224 288 289 
f 225 290 226 
f 225 289 290 
f 226 291 227 
f 226 290 291 
f 227 292 228 
f 227 291 292 
f 228 293 229 
f 228 292 293 
f 229 294 230 
f 229 293 294 
f 230 295 231 
f 230 294 295 
f 231 296 232 
f 231 295 296 
f 232 297 233 
f 232 296 297 
f 233 298 234 
f 233 297 298 
f 234 299 235 
f 234 298 299 
f 235 300 236 
f 235 299 300 
f 236 301 237 
f 236 300 301 
f 237 302 238 
f 237 301 302 
f 238 303 239 
f 238 302 303 
f 239 304 240 
f 239 303 304 
f 240 305 241 
f 240 304 305 
f 241 306 242 
f 241 305 306 
f 242 307 243 
f 242 306 307 
f 243 308 244 
f 243 307 308 
f 244 309 245 
f 244 308 309 
f 245 310 246 
f 245 309 310 
f 246 311 247 
f 246 310 311 
f 247 312 248 
f 247 311 312 
f 248 313 249 
f 248 312 313 
f 249 314 250 
f 249 313 314 
f 250 315 251 
f 250 314 315 
f 251 316 252 
f 251 315 316 
f 252 317 253 
f 252 316 317 
f 253 318 254 
f 253 317 318 
f 254 319 255 
f 254 318 319 
f 255 320 256 
f 255 319 320 
f 256 257 193 
f 256 320 257 
f 257 322 258 
f 257 321 322 
f 258 323 259 
f 258 322 323 
f 259 324 260 
f 259 323 324 
f 260 325 261 
f 260 324 325 
f 261 326 262 
f 261 325 326 
f 262 327 263 
f 262 326 327 
f 263 328 264 
f 263 327 328 
f 264 329 265 
f 264 328 329 
f 265 330 266 
f 265 329 330 
f 266 331 267 
f 266 330 331 
f 267 332 268 
f 267 331 332 
f 268 333 269 
f 268 332 333 
f 269 334 270 
f 269 333 334 
f 270 335 271 
f 270 334 335 
f 271 336 272 
f 271 335 336 
f 272 337 273 
f 272 336 337 
f 273 338 274 
f 273 337 338 
f 274 339 275 
f 274 338 339 
f 275 340 276 
f 275 339 340 
f 276 341 277 
f 276 340 341 
f 277 342 278 
f 277 341 342 
f 278 343 279 
f 278 342 343 
f 279 344 280 
f 279 343 344 
f 280 345 281 
f 280 344 345 
f 281 346 282 
f 281 345 346 
f 282 347 283 
f 282 346 347 
f 283 348 284 
f 283 347 348 
f 284 349 285 
f 284 348 349 
f 285 350 286 
f 285 349 350 
f 286 351 287 
f 286 350 351 
f 287 352 288 
f 287 351 352 
f 288 353 289 
f 288 352 353 
f 289 354 290 
f 289 353 354 
f 290 355 291 
f 290 354 355 
f 291 356 292 
f 291 355 356 
f 292 357 293 
f 292 356 357 
f 293 358 294 
f 293 357 358 
f 294 359 295 
f 294 358 359 
f 295 360 296 
f 295 359 360 
f 296 361 297 
f 296 360 361 
f 297 362 298 
f 297 361 362 
f 298 363 299 
f 298 362 363 
f 299 364 300 
f 299 363 364 
f 300 365 301 
f 300 364 365 
f 301 366 302 
f 301 365 366 
f 302 367 303 
f 302 366 367 
f 303 368 304 
f 303 367 368 
f 304 369 305 
f 304 368 369 
f 305 370 306 
f 305 369 370 
f 306 371 307 
f 306 370 371 
f 307 372 308 
f 307 371 372 
f 308 373 309 
f 308 372 373 
f 309 374 310 
f 309 373 374 
f 310 375 311 
f 310 374 375 
f 311 376 312 
f 311 375 376 
f 312 377 313 
f 312 376 377 
f 313 378 314 
f 313 377 378 
f 314 379 315 
f 314 378 379 
f 315 380 316 
f 315 379 380 
f 316 381 317 
f 316 380 381 
f 317 382 318 
f 317 381 382 
f 318 383 319 
f 318 382 383 
f 319 384 320 
f 319 383 384 
f 320 321 257 
f 320 384 321 
f 321 386 322 
f 321 385 386 
f 322 387 323 
f 322 386 387 
f 323 388 324 
f 323 387 388 
f 324 389 325 
f 324 388 389 
f 325 390 326 
f 325 389 390 
f 326 391 327 
f 326 390 391 
f 327 392 328 
f 327 391 392 
f 328 393 329 
f 328 392 393 
f 329 394 330 
f 329 393 394 
f 330 395 331 
f 330 394 395 
f 331 396 332 
f 331 395 396 
f 332 397 333 
f 332 396 397 
f 333 398 334 
f 333 397 398 
f 334 399 335 
f 334 398 399 
f 335 400 336 
f 335 399 400 
f 336 401 337 
f 336 400 401 
f 337 402 338 
f 337 401 402 
f 338 403 339 
f 338 402 403 
f 339 404 340 
f 339 403 404 
f 340 405 341 
f 340 404 405 
f 341 406 342 
f 341 405 406 
f 342 407 343 
f 342 406 407 
f 343 408 344 
f 343 407 408 
f 344 409 345 
f 344 408 409 
f 345 410 346 
f 345 409 410 
f 346 411 347 
f 346 410 411 
f 347 412 348 
f 347 411 412 
f 348 413 349 
f 348 412 413 
f 349 414 350 
f 349 413 414 
f 350 415 351 
f 350 414 415 
f 351 416 352 
f 351 415 416 
f 352 417 353 
f 352 416 417 
f 353 418 354 
f 353 417 418 
f 354 419 355 
f 354 418 419 
f 355 420 356 
f 355 419 420 
f 356 421 357 
f 356 420 421 
f 357 422 358 
f 357 421 422 
f 358 423 359 
f 358 422 423 
f 359 424 360 
f 359 423 424 
f 360 425 361 
f 360 424 425 
f 361 426 362 
f 361 425 426 
f 362 427 363 
f 362 426 427 
f 363 428 364 
f 363 427 428 
f 364 429 365 
f 364 428 429 
f 365 430 366 
f 365 429 430 
f 366 431 367 
f 366 430 431 
f 367 432 368 
f 367 431 432 
f 368 433 369 
f 368 432 433 
f 369 434 370 
f 369 433 434 
f 370 435 371 
f 370 434 435 
f 371 436 372 
f 371 435 436 
f 372 437 373 
f 372 436 437 
f 373 438 374 
f 373 437 438 
f 374 439 375 
f 374 438 439 
f 375 440 376 
f 375 439 440 
f 376 441 377 
f 376 440 441 
f 377 442 378 
f 377 441 442 
f 378 443 379 
f 378 442 443 
f 379 444 380 
f 379 443 444 
f 380 445 381 
f 380 444 445 
f 381 446 382 
f 381 445 446 
f 382 447 383 
f 382 446 447 
f 383 448 384 
f 383 447 448 
f 384 385 321 
f 384 448 385 
f 385 450 386 
f 385 449 450 
f 386 451 387 
f 386 450 451 
f 387 452 388 
f 387 451 452 
f 388 453 389 
f 388 452 453 
f 389 454 390 
f 389 453 454 
f 390 455 391 
f 390 454 455 
f 391 456 392 
f 391 455 456 
f 392 457 393 
f 392 456 457 
f 393 458 394 
f 393 457 458 
f 394 459 395 
f 394 458 459 
f 395 460 396 
f 395 459 460 
f 396 461 397 
f 396 460 461 
f 397 462 398 
f 397 461 462 
f 398 463 399 
f 398 462 463 
f 399 464 400 
f 399 463 464 
f 400 465 401 
f 400 464 465 
f 401 466 402 
f 401 465 466 
f 402 467 403 
f 402 466 467 
f 403 468 404 
f 403 467 468 
f 404 469 405 
f 404 468 469 
f 405 470 406 
f 405 469 470 
f 406 471 407 
f 406 470 471 
f 407 472 408 
f 407 471 472 
f 408 473 409 
f 408 472 473 
f 409 474 410 
f 409 473 474 
f 410 475 411 
f 410 474 475 
f 411 476 412 
f 411 475 476 
f 412 477 413 
f 412 476 477 
f 413 478 414 
f 413 477 478 
f 414 479 415 
f 414 478 479 
f 415 480 416 
f 415 479 480 
f 416 481 417 
f 416 480 481 
f 417 482 418 
f 417 481 482 
f 418 483 419 
f 418 482 483 
f 419 484 420 
f 419 483 484 
f 420 485 421 
f 420 484 485 
f 421 486 422 
f 421 485 486 
f 422 487 423 
f 422 486 487 
f 423 488 424 
f 423 487 488 
f 424 489 425 
f 424 488 489 
f 425 490 426 
f 425 489 490 
f 426 491 427 
f 426 490 491 
f 427 492 428 
f 427 491 492 
f 428 493 429 
f 428 492 493 
f 429 494 430 
f 429 493 494 
f 430 495 431 
f 430 494 495 
f 431 496 432 
f 431 495 496 
f 432 497 433 
f 432 496 497 
f 433 498 434 
f 433 497 498 
f 434 499 435 
f 434 498 499 
f 435 500 436 
f 435 499 500 
f 436 501 437 
f 436 500 501 
f 437 502 438 
f 437 501 502 
f 438 503 439 
f 438 502 503 
f 439 504 440 
f 439 503 504 
f 440 505 441 
f 440 504 505 
f 441 506 442 
f 441 505 506 
f 442 507 443 
f 442 506 507 
f 443 508 444 
f 443 507 508 
f 444 509 445 
f 444 508 509 
f 445 510 446 
f 445 509 510 
f 446 511 447 
f 446 510 511 
f 447 512 448 
f 447 511 512 
f 448 449 385 
f 448 512 449 
f 449 514 450 
f 449 513 514 
f 450 515 451 
f 450 514 515 
f 451 516 452 
f 451 515 516 
f 452 517 453 
f 452 516 517 
f 453 518 454 
f 453 517 518 
f 454 519 455 
f 454 518 519 
f 455 520 456 
f 455 519 520 
f 456 521 457 
f 456 520 521 
f 457 522 458 
f 457 521 522 
f 458 523 459 
f 458 522 523 
f 459 524 460 
f 459 523 524 
f 460 525 461 
f 460 524 525 
f 461 526 462 
f 461 525 526 
f 462 527 463 
f 462 526 527 
f 463 528 464 
f 463 527 528 
f 464 529 465 
f 464 528 529 
f 465 530 466 
f 465 529 530 
f 466 531 467 
f 466 530 531 
f 467 532 468 
f 467 531 532 
f 468 533 469 
f 468 532 533 
f 469 534 470 
f 469 533 534 
f 470 535 471 
f 470 534 535 
f 471 536 472 
f 471 535 536 
f 472 537 473 
f 472 536 537 
f 473 538 474 
f 473 537 538 
f 474 539 475 
f 474 538 539 
f 475 540 476 
f 475 539 540 
f 476 541 477 
f 476 540 541 
f 477 542 478 
f 477 541 542 
f 478 543 479 
f 478 542 543 
f 479 544 480 
f 479 543 544 
f 480 545 481 
f 480 544 545 
f 481 546 482 
f 481 545 546 
f 482 547 483 
f 482 546 547 
f 483 548 484 
f 483 547 548 
f 484 549 485 
f 484 548 549 
f 485 550 486 
f 485 549 550 
f 486 551 487 
f 486 550 551 
f 487 552 488 
f 487 551 552 
f 488 553 489 
f 488 552 553 
f 489 554 490 
f 489 553 554 
f 490 555 491 
f 490 554 555 
f 491 556 492 
f 491 555 556 
f 492 557 493 
f 492 556 557 
f 493 558 494 
f 493 557 558 
f 494 559 495 
f 494 558 559 
f 495 560 496 
f 495 559 560 
f 496 561 497 
f 496 560 561 
f 497 562 498 
f 497 561 562 
f 498 563 499 
f 498 562 563 
f 499 564 500 
f 499 563 564 
f 500 565 501 
f 500 564 565 
f 501 566 502 
f 501 565 566 
f 502 567 503 
f 502 566 567 
f 503 568 504 
f 503 567 568 
f 504 569 505 
f 504 568 569 
f 505 570 506 
f 505 569 570 
f 506 571 507 
f 506 570 571 
f 507 572 508 
f 507 571 572 
f 508 573 509 
f 508 572 573 
f 509 574 510 
f 509 573 574 
f 510 575 511 
f 510 574 575 
f 511 576 512 
f 511 575 576 
f 512 513 449 
f 512 576 513 
f 513 578 514 
f 513 577 578 
f 514 579 515 
f 514 578 579 
f 515 580 516 
f 515 579 580 
f 516 581 517 
f 516 580 581 
f 517 582 518 
f 517 581 582 
f 518 583 519 
f 518 582 583 
f 519 584 520 
f 519 583 584 
f 520 585 521 
f 520 584 585 
f 521 586 522 
f 521 585 586 
f 522 587 523 
f 522 586 587 
f 523 588 524 
f 523 587 588 
f 524 589 525 
f 524 588 589 
f 525 590 526 
f 525 589 590 
f 526 591 527 
f 526 590 591 
f 527 592 528 
f 527 591 592 
f 528 593 529 
f 528 592 593 
f 529 594 530 
f 529 593 594 
f 530 595 531 
f 530 594 595 
f 531 596 532 
f 531 595 596 
f 532 597 533 
f 532 596 597 
f 533 598 534 
f 533 597 598 
f 534 599 535 
f 534 598 599 
f 535 600 536 
f 535 599 600 
f 536 601 537 
f 536 600 601 
f 537 602 538 
f 537 601 602 
f 538 603 539 
f 538 602 603 
f 539 604 540 
f 539 603 604 
f 540 605 541 
f 540 604 605 
f 541 606 542 
f 541 605 606 
f 542 607 543 
f 542 606 607 
f 543 608 544 
f 543 607 608 
f 544 609 545 
f 544 608 609 
f 545 610 546 
f 545 609 610 
f 546 611 547 
f 546 610 611 
f 547 612 548 
f 547 611 612 
f 548 613 549 
f 548 612 613 
f 549 614 550 
f 549 613 614 
f 550 615 551 
f 550 614 615 
f 551 616 552 
f 551 615 616 
f 552 617 553 
f 552 616 617 
f 553 618 554 
f 553 617 618 
f 554 619 555 
f 554 618 619 
f 555 620 556 
f 555 619 620 
f 556 621 557 
f 556 620 621 
f 557 622 558 
f 557 621 622 
f 558 623 559 
f 558 622 623 
f 559 624 560 
f 559 623 624 
f 560 625 561 
f 560 624 625 
f 561 626 562 
f 561 625 626 
f 562 627 563 
f 562 626 627 
f 563 628 564 
f 563 627 628 
f 564 629 565 
f 564 628 629 
f 565 630 566 
f 565 629 630 
f 566 631 567 
f 566 630 631 
f 567 632 568 
f 567 631 632 
f 568 633 569 
f 568 632 633 
f 569 634 570 
f 569 633 634 
f 570 635 571 
f 570 634 635 
f 571 636 572 
f 571 635 636 
f 572 637 573 
f 572 636 637 
f 573 638 574 
f 573 637 638 
f 574 639 575 
f 574 638 639 
f 575 640 576 
f 575 639 640 
f 576 577 513 
f 576 640 577 
