# Branch
v 7.19947 7.34623 -28.4254
vn 0.0487683 0.249081 0.967254
v 7.25259 7.32944 -28.4266
vn 0.142321 0.219515 0.965173
v 7.30494 7.31145 -28.433
vn 0.234502 0.187834 0.953796
v 7.356 7.29243 -28.4447
vn 0.324426 0.154345 0.933234
v 7.40529 7.27257 -28.4615
vn 0.411225 0.119369 0.903684
v 7.45233 7.25206 -28.4832
vn 0.494063 0.0832434 0.865432
v 7.49667 7.23109 -28.5097
vn 0.572144 0.0463163 0.818845
v 7.53788 7.20987 -28.5406
vn 0.644714 0.00894314 0.764371
v 7.57556 7.18859 -28.5757
vn 0.711076 -0.0285161 0.702537
v 7.60936 7.16748 -28.6147
vn 0.770589 -0.0657008 0.633937
v 7.63894 7.14672 -28.6571
vn 0.822681 -0.102253 0.559231
v 7.66402 7.12653 -28.7026
vn 0.866851 -0.13782 0.47914
v 7.68436 7.10708 -28.7507
vn 0.902672 -0.17206 0.394435
v 7.69976 7.08858 -28.8009
vn 0.9298 -0.204643 0.305931
v 7.71008 7.0712 -28.8528
vn 0.947973 -0.235255 0.21448
v 7.71522 7.0551 -28.9059
vn 0.957017 -0.263601 0.120964
v 7.71512 7.04045 -28.9597
vn 0.956845 -0.289409 0.0262832
v 7.70979 7.02737 -29.0136
vn 0.947457 -0.312429 -0.0686508
v 7.69928 7.01601 -29.0671
vn 0.928945 -0.332441 -0.162924
v 7.68369 7.00646 -29.1198
vn 0.901487 -0.349251 -0.255628
v 7.66316 6.99883 -29.171
vn 0.865346 -0.362698 -0.34587
v 7.63791 6.99318 -29.2204
vn 0.820872 -0.372652 -0.432781
v 7.60817 6.98956 -29.2674
vn 0.768493 -0.379017 -0.515524
v 7.57422 6.98802 -29.3115
vn 0.708713 -0.381731 -0.593302
v 7.5364 6.98857 -29.3525
vn 0.642107 -0.38077 -0.665367
v 7.49506 6.9912 -29.3897
vn 0.569317 -0.376141 -0.731024
v 7.45062 6.99588 -29.423
vn 0.491045 -0.36789 -0.78964
v 7.40348 7.00258 -29.452
vn 0.408044 -0.356096 -0.840652
v 7.35412 7.01122 -29.4764
vn 0.321113 -0.340873 -0.883568
v 7.303 7.02173 -29.4959
vn 0.231089 -0.322367 -0.917975
v 7.25062 7.034 -29.5104
vn 0.13884 -0.300756 -0.943541
v 7.19747 7.04792 -29.5198
vn 0.0452537 -0.276249 -0.96002
v 7.14408 7.06335 -29.5239
vn -0.0487683 -0.249081 -0.967254
v 7.09096 7.08014 -29.5227
vn -0.142321 -0.219515 -0.965173
v 7.03861 7.09813 -29.5162
vn -0.234502 -0.187834 -0.953796
v 6.98755 7.11714 -29.5046
vn -0.324426 -0.154345 -0.933234
v 6.93826 7.137 -29.4878
vn -0.411225 -0.119369 -0.903684
v 6.89122 7.15752 -29.4661
vn -0.494063 -0.0832434 -0.865432
v 6.84688 7.17849 -29.4396
vn -0.572144 -0.0463163 -0.818845
v 6.80568 7.19971 -29.4087
vn -0.644714 -0.00894314 -0.764371
v 6.76799 7.22098 -29.3736
vn -0.711076 0.0285161 -0.702537
v 6.7342 7.2421 -29.3346
vn -0.770589 0.0657008 -0.633937
v 6.70462 7.26285 -29.2922
vn -0.822681 0.102253 -0.559231
v 6.67953 7.28305 -29.2467
vn -0.866851 0.13782 -0.47914
v 6.65919 7.30249 -29.1986
vn -0.902672 0.17206 -0.394435
v 6.64379 7.32099 -29.1484
vn -0.9298 0.204643 -0.305931
v 6.63347 7.33838 -29.0964
vn -0.947973 0.235255 -0.21448
v 6.62833 7.35447 -29.0433
vn -0.957017 0.263601 -0.120964
v 6.62843 7.36913 -28.9896
vn -0.956845 0.289409 -0.0262832
v 6.63376 7.3822 -28.9357
vn -0.947457 0.312429 0.0686508
v 6.64427 7.39356 -28.8821
vn -0.928945 0.332441 0.162924
v 6.65987 7.40311 -28.8295
vn -0.901487 0.349251 0.255628
v 6.68039 7.41075 -28.7782
vn -0.865346 0.362698 0.34587
v 6.70564 7.4164 -28.7289
vn -0.820872 0.372652 0.432781
v 6.73539 7.42001 -28.6819
vn -0.768493 0.379017 0.515524
v 6.76933 7.42155 -28.6377
vn -0.708713 0.381731 0.593302
v 6.80716 7.42101 -28.5968
vn -0.642107 0.38077 0.665367
v 6.84849 7.41838 -28.5595
vn -0.569317 0.376141 0.731024
v 6.89294 7.41369 -28.5262
vn -0.491045 0.36789 0.78964
v 6.94007 7.407 -28.4973
vn -0.408044 0.356096 0.840652
v 6.98943 7.39835 -28.4729
vn -0.321113 0.340873 0.883568
v 7.04055 7.38784 -28.4534
vn -0.231089 0.322367 0.917975
v 7.09294 7.37557 -28.4388
vn -0.13884 0.300756 0.943541
v 7.14608 7.36165 -28.4295
vn -0.0452537 0.276249 0.96002
v 6.80808 6.07747 -28.1474
vn 0.0273139 0.179611 0.983358
v 6.85975 6.06134 -28.1486
vn 0.12097 0.150379 0.9812
v 6.91077 6.04442 -28.155
vn 0.21346 0.119699 0.969591
v 6.96066 6.02686 -28.1666
vn 0.303895 0.0878661 0.948645
v 7.00893 6.00883 -28.1832
vn 0.391403 0.055187 0.918563
v 7.05512 5.99051 -28.2047
vn 0.475142 0.0219764 0.879635
v 7.09879 5.97207 -28.2308
vn 0.554305 -0.0114458 0.832235
v 7.13952 5.9537 -28.2614
vn 0.62813 -0.0447578 0.77682
v 7.1769 5.93556 -28.2961
vn 0.695905 -0.0776387 0.713924
v 7.21059 5.91783 -28.3346
vn 0.756979 -0.109772 0.644153
v 7.24026 5.90069 -28.3765
vn 0.810762 -0.140848 0.568178
v 7.26562 5.8843 -28.4214
vn 0.856737 -0.170568 0.486732
v 7.28643 5.86881 -28.4689
vn 0.894462 -0.198645 0.400598
v 7.30249 5.85438 -28.5186
vn 0.923572 -0.224809 0.310605
v 7.31364 5.84114 -28.5699
vn 0.943788 -0.248808 0.217622
v 7.31978 5.82922 -28.6223
vn 0.954914 -0.27041 0.122543
v 7.32085 5.81874 -28.6754
vn 0.956845 -0.289409 0.0262832
v 7.31683 5.8098 -28.7286
vn 0.94956 -0.30562 -0.0702293
v 7.30777 5.80248 -28.7815
vn 0.93313 -0.318888 -0.166066
v 7.29374 5.79685 -28.8335
vn 0.907714 -0.329085 -0.260302
v 7.2749 5.79298 -28.8841
vn 0.873557 -0.336113 -0.352032
v 7.25142 5.79088 -28.9328
vn 0.830986 -0.339904 -0.440372
v 7.22352 5.7906 -28.9792
vn 0.780412 -0.340421 -0.524471
v 7.19148 5.79212 -29.0228
vn 0.722323 -0.33766 -0.603519
v 7.15559 5.79544 -29.0632
vn 0.657277 -0.331647 -0.676754
v 7.11622 5.80052 -29.1
vn 0.585902 -0.32244 -0.743472
v 7.07374 5.80731 -29.1329
vn 0.508884 -0.310128 -0.80303
v 7.02855 5.81575 -29.1615
vn 0.426965 -0.294829 -0.854855
v 6.98109 5.82575 -29.1855
vn 0.340934 -0.276691 -0.898447
v 6.93182 5.83723 -29.2048
vn 0.25162 -0.255888 -0.933386
v 6.88121 5.85007 -29.2191
vn 0.159882 -0.232621 -0.959336
v 6.82976 5.86414 -29.2283
vn 0.0666048 -0.207113 -0.976047
v 6.77795 5.87931 -29.2324
vn -0.0273139 -0.179611 -0.983358
v 6.72629 5.89543 -29.2312
vn -0.12097 -0.150379 -0.9812
v 6.67526 5.91236 -29.2248
vn -0.21346 -0.119699 -0.969591
v 6.62538 5.92992 -29.2132
vn -0.303895 -0.0878661 -0.948645
v 6.5771 5.94794 -29.1966
vn -0.391403 -0.055187 -0.918563
v 6.53091 5.96626 -29.1751
vn -0.475142 -0.0219764 -0.879635
v 6.48724 5.9847 -29.149
vn -0.554305 0.0114458 -0.832235
v 6.44652 6.00308 -29.1184
vn -0.62813 0.0447578 -0.77682
v 6.40913 6.02122 -29.0837
vn -0.695905 0.0776387 -0.713924
v 6.37544 6.03894 -29.0452
vn -0.756979 0.109772 -0.644153
v 6.34577 6.05608 -29.0033
vn -0.810762 0.140848 -0.568178
v 6.32041 6.07248 -28.9584
vn -0.856737 0.170568 -0.486732
v 6.2996 6.08797 -28.9109
vn -0.894462 0.198645 -0.400598
v 6.28354 6.1024 -28.8612
vn -0.923572 0.224809 -0.310605
v 6.27239 6.11564 -28.81
vn -0.943788 0.248808 -0.217622
v 6.26625 6.12756 -28.7575
vn -0.954914 0.27041 -0.122543
v 6.26519 6.13804 -28.7044
vn -0.956845 0.289409 -0.0262832
v 6.2692 6.14698 -28.6512
vn -0.94956 0.30562 0.0702293
v 6.27827 6.1543 -28.5983
vn -0.93313 0.318888 0.166066
v 6.29229 6.15992 -28.5463
vn -0.907714 0.329085 0.260302
v 6.31113 6.1638 -28.4957
vn -0.873557 0.336113 0.352032
v 6.33461 6.16589 -28.447
vn -0.830986 0.339904 0.440372
v 6.36251 6.16618 -28.4006
vn -0.780412 0.340421 0.524471
v 6.39456 6.16465 -28.357
vn -0.722323 0.33766 0.603519
v 6.43044 6.16134 -28.3166
vn -0.657277 0.331647 0.676754
v 6.46981 6.15626 -28.2798
vn -0.585902 0.32244 0.743472
v 6.5123 6.14947 -28.2469
vn -0.508884 0.310128 0.80303
v 6.55749 6.14103 -28.2183
vn -0.426965 0.294829 0.854855
v 6.60494 6.13102 -28.1943
vn -0.340934 0.276691 0.898447
v 6.65421 6.11954 -28.175
vn -0.25162 0.255888 0.933386
v 6.70482 6.10671 -28.1607
vn -0.159882 0.232621 0.959336
v 6.75627 6.09264 -28.1515
vn -0.0666048 0.207113 0.976047
v 6.41969 4.80918 -27.9733
vn 0.00508079 0.107092 0.994236
v 6.46989 4.79372 -27.9745
vn 0.0988435 0.0782089 0.992025
v 6.51959 4.77785 -27.9808
vn 0.191654 0.048573 0.98026
v 6.56829 4.76173 -27.9921
vn 0.282619 0.0184694 0.959054
v 6.61554 4.74552 -28.0084
vn 0.370863 -0.0118122 0.928613
v 6.66088 4.72936 -28.0295
vn 0.455534 -0.04198 0.889228
v 6.70386 4.71343 -28.0552
vn 0.535819 -0.0717435 0.841279
v 6.74408 4.69786 -28.0852
vn 0.610943 -0.100816 0.785229
v 6.78116 4.68282 -28.1193
vn 0.680184 -0.128918 0.721616
v 6.81472 4.66843 -28.157
vn 0.742874 -0.155778 0.651054
v 6.84446 4.65486 -28.1982
vn 0.79841 -0.181138 0.574222
v 6.87008 4.64221 -28.2423
vn 0.846257 -0.204753 0.491859
v 6.89133 4.63062 -28.2889
vn 0.885954 -0.226397 0.40476
v 6.90802 4.6202 -28.3376
vn 0.917118 -0.24586 0.313763
v 6.91998 4.61105 -28.388
vn 0.93945 -0.262955 0.219744
v 6.92709 4.60325 -28.4395
vn 0.952735 -0.277518 0.123609
v 6.92929 4.59689 -28.4916
vn 0.956845 -0.289409 0.0262832
v 6.92656 4.59201 -28.5438
vn 0.951739 -0.298512 -0.0712955
v 6.91891 4.58868 -28.5957
vn 0.937468 -0.30474 -0.168188
v 6.90644 4.58691 -28.6467
vn 0.914168 -0.308034 -0.26346
v 6.88925 4.58674 -28.6964
vn 0.882065 -0.308361 -0.356195
v 6.86751 4.58815 -28.7442
vn 0.841467 -0.305718 -0.4455
v 6.84144 4.59114 -28.7897
vn 0.792765 -0.300132 -0.530514
v 6.81127 4.59568 -28.8325
vn 0.736428 -0.291654 -0.61042
v 6.77731 4.60173 -28.8721
vn 0.672999 -0.280368 -0.684446
v 6.73988 4.60921 -28.9082
vn 0.603088 -0.266382 -0.751881
v 6.69934 4.61808 -28.9404
vn 0.52737 -0.24983 -0.812075
v 6.65608 4.62823 -28.9685
vn 0.446573 -0.230873 -0.864448
v 6.61051 4.63957 -28.9921
vn 0.361475 -0.209692 -0.908496
v 6.56309 4.65199 -29.011
vn 0.272895 -0.186491 -0.943795
v 6.51425 4.66537 -29.025
vn 0.181688 -0.161495 -0.970005
v 6.46448 4.67959 -29.034
vn 0.0887309 -0.134943 -0.986872
v 6.41425 4.6945 -29.038
vn -0.00508079 -0.107092 -0.994236
v 6.36405 4.70997 -29.0368
vn -0.0988435 -0.0782089 -0.992025
v 6.31436 4.72583 -29.0305
vn -0.191654 -0.048573 -0.98026
v 6.26565 4.74195 -29.0191
vn -0.282619 -0.0184694 -0.959054
v 6.2184 4.75817 -29.0028
vn -0.370863 0.0118122 -0.928613
v 6.17307 4.77432 -28.9817
vn -0.455534 0.04198 -0.889228
v 6.13008 4.79025 -28.9561
vn -0.535819 0.0717435 -0.841279
v 6.08986 4.80582 -28.9261
vn -0.610943 0.100816 -0.785229
v 6.05279 4.82087 -28.892
vn -0.680184 0.128918 -0.721616
v 6.01922 4.83525 -28.8542
vn -0.742874 0.155778 -0.651054
v 5.98948 4.84883 -28.8131
vn -0.79841 0.181138 -0.574222
v 5.96387 4.86147 -28.769
vn -0.846257 0.204753 -0.491859
v 5.94261 4.87306 -28.7224
vn -0.885954 0.226397 -0.40476
v 5.92593 4.88348 -28.6736
vn -0.917118 0.24586 -0.313763
v 5.91397 4.89263 -28.6233
vn -0.93945 0.262955 -0.219744
v 5.90685 4.90043 -28.5718
vn -0.952735 0.277518 -0.123609
v 5.90465 4.9068 -28.5197
vn -0.956845 0.289409 -0.0262832
v 5.90739 4.91167 -28.4675
vn -0.951739 0.298512 0.0712955
v 5.91503 4.91501 -28.4156
vn -0.937468 0.30474 0.168188
v 5.9275 4.91677 -28.3646
vn -0.914168 0.308034 0.26346
v 5.94469 4.91695 -28.3149
vn -0.882065 0.308361 0.356195
v 5.96643 4.91553 -28.2671
vn -0.841467 0.305718 0.4455
v 5.99251 4.91254 -28.2216
vn -0.792765 0.300132 0.530514
v 6.02267 4.908 -28.1788
vn -0.736428 0.291654 0.61042
v 6.05663 4.90196 -28.1392
vn -0.672999 0.280368 0.684446
v 6.09406 4.89447 -28.1031
vn -0.603088 0.266382 0.751881
v 6.13461 4.88561 -28.0708
vn -0.52737 0.24983 0.812075
v 6.17787 4.87546 -28.0428
vn -0.446573 0.230873 0.864448
v 6.22343 4.86412 -28.0192
vn -0.361475 0.209692 0.908496
v 6.27086 4.85169 -28.0003
vn -0.272895 0.186491 0.943795
v 6.31969 4.83831 -27.9863
vn -0.181688 0.161495 0.970005
v 6.36946 4.82409 -27.9772
vn -0.0887309 0.134943 0.986872
v 6.03452 3.54211 -27.903
vn -0.0175664 0.0326763 0.999312
v 6.08326 3.5273 -27.9041
vn 0.0763053 0.00415193 0.997076
v 6.13162 3.51247 -27.9103
vn 0.169442 -0.0244124 0.985238
v 6.17913 3.49777 -27.9214
vn 0.260947 -0.0527417 0.963911
v 6.22533 3.48332 -27.9373
vn 0.349939 -0.080563 0.933302
v 6.26979 3.46928 -27.9578
vn 0.435561 -0.107608 0.893704
v 6.31207 3.45577 -27.9828
vn 0.516988 -0.133618 0.845499
v 6.35176 3.44294 -28.0121
vn 0.593437 -0.15834 0.789152
v 6.38849 3.43089 -28.0453
vn 0.66417 -0.181537 0.725205
v 6.42189 3.41976 -28.0821
vn 0.728507 -0.202986 0.654274
v 6.45165 3.40963 -28.1222
vn 0.785828 -0.222481 0.577041
v 6.47748 3.40063 -28.1652
vn 0.835581 -0.239832 0.494252
v 6.49914 3.39282 -28.2107
vn 0.877287 -0.254874 0.406703
v 6.51641 3.38628 -28.2582
vn 0.910544 -0.267462 0.315236
v 6.52912 3.38108 -28.3072
vn 0.935032 -0.277473 0.220734
v 6.53716 3.37727 -28.3574
vn 0.950515 -0.284812 0.124106
v 6.54045 3.37489 -28.4082
vn 0.956845 -0.289409 0.0262832
v 6.53895 3.37395 -28.4591
vn 0.953959 -0.291218 -0.071793
v 6.53268 3.37446 -28.5097
vn 0.941886 -0.290223 -0.169178
v 6.5217 3.37643 -28.5594
vn 0.920743 -0.286432 -0.264933
v 6.50612 3.37983 -28.6078
vn 0.890732 -0.279884 -0.358137
v 6.48608 3.38463 -28.6544
vn 0.852142 -0.270639 -0.447892
v 6.46179 3.39078 -28.6987
vn 0.805347 -0.258789 -0.533334
v 6.43346 3.39823 -28.7404
vn 0.750795 -0.244446 -0.613639
v 6.40138 3.4069 -28.7791
vn 0.689013 -0.227749 -0.688035
v 6.36586 3.41671 -28.8143
vn 0.620595 -0.208858 -0.755804
v 6.32723 3.42756 -28.8457
vn 0.5462 -0.187956 -0.816295
v 6.28588 3.43935 -28.873
vn 0.466546 -0.165244 -0.868924
v 6.24219 3.45197 -28.896
vn 0.382398 -0.140941 -0.913185
v 6.19658 3.46529 -28.9144
vn 0.294567 -0.11528 -0.948652
v 6.14951 3.47919 -28.9281
vn 0.2039 -0.0885093 -0.974983
v 6.10141 3.49354 -28.9368
vn 0.111269 -0.060886 -0.991923
v 6.05276 3.50818 -28.9407
vn 0.0175664 -0.0326763 -0.999312
v 6.00402 3.52299 -28.9395
vn -0.0763053 -0.00415193 -0.997076
v 5.95567 3.53782 -28.9334
vn -0.169442 0.0244124 -0.985238
v 5.90816 3.55253 -28.9223
vn -0.260947 0.0527417 -0.963911
v 5.86195 3.56698 -28.9064
vn -0.349939 0.080563 -0.933302
v 5.81749 3.58102 -28.8858
vn -0.435561 0.107608 -0.893704
v 5.77522 3.59452 -28.8608
vn -0.516988 0.133618 -0.845499
v 5.73552 3.60736 -28.8316
vn -0.593437 0.15834 -0.789152
v 5.6988 3.61941 -28.7984
vn -0.66417 0.181537 -0.725205
v 5.66539 3.63054 -28.7615
vn -0.728507 0.202986 -0.654274
v 5.63563 3.64066 -28.7214
vn -0.785828 0.222481 -0.577041
v 5.6098 3.64967 -28.6785
vn -0.835581 0.239832 -0.494252
v 5.58815 3.65748 -28.633
vn -0.877287 0.254874 -0.406703
v 5.57088 3.66402 -28.5855
vn -0.910544 0.267462 -0.315236
v 5.55816 3.66922 -28.5364
vn -0.935032 0.277473 -0.220734
v 5.55012 3.67303 -28.4863
vn -0.950515 0.284812 -0.124106
v 5.54684 3.67541 -28.4355
vn -0.956845 0.289409 -0.0262832
v 5.54834 3.67635 -28.3846
vn -0.953959 0.291218 0.071793
v 5.55461 3.67584 -28.334
vn -0.941886 0.290223 0.169178
v 5.56558 3.67387 -28.2843
vn -0.920743 0.286432 0.264933
v 5.58117 3.67047 -28.2359
vn -0.890732 0.279884 0.358137
v 5.6012 3.66567 -28.1893
vn -0.852142 0.270639 0.447892
v 5.6255 3.65951 -28.1449
vn -0.805347 0.258789 0.533334
v 5.65382 3.65207 -28.1032
vn -0.750795 0.244446 0.613639
v 5.6859 3.6434 -28.0646
vn -0.689013 0.227749 0.688035
v 5.72142 3.63359 -28.0294
vn -0.620595 0.208858 0.755804
v 5.76005 3.62274 -27.998
vn -0.5462 0.187956 0.816295
v 5.80141 3.61095 -27.9707
vn -0.466546 0.165244 0.868924
v 5.8451 3.59833 -27.9477
vn -0.382398 0.140941 0.913185
v 5.8907 3.585 -27.9293
vn -0.294567 0.11528 0.948652
v 5.93778 3.5711 -27.9156
vn -0.2039 0.0885093 0.974983
v 5.98587 3.55676 -27.9068
vn -0.111269 0.060886 0.991923
v 5.6528 2.27702 -27.9363
vn -0.0402214 -0.0423182 0.998294
v 5.70007 2.26286 -27.9375
vn 0.0537594 -0.0704814 0.996063
v 5.74708 2.24903 -27.9434
vn 0.147223 -0.0979659 0.98424
v 5.79338 2.23568 -27.9541
vn 0.239268 -0.124507 0.962938
v 5.83852 2.22294 -27.9695
vn 0.329009 -0.149849 0.932362
v 5.88206 2.21092 -27.9894
vn 0.415581 -0.173748 0.892807
v 5.9236 2.19974 -28.0136
vn 0.498152 -0.195973 0.844654
v 5.96272 2.18951 -28.0419
vn 0.575924 -0.216311 0.788366
v 5.99905 2.18032 -28.0741
vn 0.648151 -0.234566 0.724486
v 6.03224 2.17228 -28.1097
vn 0.714135 -0.250562 0.653628
v 6.06197 2.16545 -28.1485
vn 0.773241 -0.264145 0.576476
v 6.08795 2.15989 -28.1901
vn 0.824901 -0.275184 0.493772
v 6.10994 2.15567 -28.2341
vn 0.868617 -0.283573 0.406313
v 6.12772 2.15283 -28.2801
vn 0.903968 -0.289231 0.314941
v 6.14112 2.15138 -28.3276
vn 0.930612 -0.292104 0.220536
v 6.15002 2.15135 -28.3761
vn 0.948295 -0.292163 0.124007
v 6.15432 2.15274 -28.4253
vn 0.956845 -0.289409 0.0262832
v 6.15398 2.15553 -28.4745
vn 0.95618 -0.283867 -0.0716933
v 6.14902 2.15969 -28.5235
vn 0.946306 -0.275592 -0.168979
v 6.13947 2.16519 -28.5716
vn 0.927319 -0.264663 -0.264638
v 6.12542 2.17196 -28.6184
vn 0.899401 -0.251184 -0.357748
v 6.10702 2.17996 -28.6635
vn 0.862822 -0.235287 -0.447413
v 6.08445 2.1891 -28.7065
vn 0.817933 -0.217124 -0.532769
v 6.0579 2.19929 -28.7468
vn 0.765167 -0.19687 -0.612994
v 6.02766 2.21043 -28.7842
vn 0.705032 -0.174719 -0.687316
v 5.99399 2.22241 -28.8183
vn 0.638107 -0.150887 -0.755018
v 5.95724 2.23513 -28.8487
vn 0.565037 -0.125601 -0.815449
v 5.91775 2.24846 -28.8751
vn 0.486526 -0.0991051 -0.868027
v 5.8759 2.26227 -28.8973
vn 0.403328 -0.0716551 -0.912245
v 5.8321 2.27642 -28.9152
vn 0.316247 -0.043515 -0.947678
v 5.78677 2.29079 -28.9284
vn 0.22612 -0.0149558 -0.973985
v 5.74034 2.30522 -28.9369
vn 0.133815 0.0137474 -0.990911
v 5.69326 2.3196 -28.9406
vn 0.0402214 0.0423182 -0.998294
v 5.64599 2.33376 -28.9395
vn -0.0537594 0.0704814 -0.996063
v 5.59898 2.34759 -28.9336
vn -0.147223 0.0979659 -0.98424
v 5.55268 2.36094 -28.9228
vn -0.239268 0.124507 -0.962938
v 5.50754 2.37368 -28.9075
vn -0.329009 0.149849 -0.932362
v 5.46399 2.3857 -28.8876
vn -0.415581 0.173748 -0.892807
v 5.42246 2.39688 -28.8633
vn -0.498152 0.195973 -0.844654
v 5.38334 2.40711 -28.835
vn -0.575924 0.216311 -0.788366
v 5.34701 2.4163 -28.8029
vn -0.648151 0.234566 -0.724486
v 5.31382 2.42434 -28.7673
vn -0.714135 0.250562 -0.653628
v 5.28409 2.43117 -28.7285
vn -0.773241 0.264145 -0.576476
v 5.25811 2.43673 -28.6869
vn -0.824901 0.275184 -0.493772
v 5.23612 2.44095 -28.6429
vn -0.868617 0.283573 -0.406313
v 5.21834 2.44379 -28.5969
vn -0.903968 0.289231 -0.314941
v 5.20493 2.44524 -28.5494
vn -0.930612 0.292104 -0.220536
v 5.19604 2.44527 -28.5009
vn -0.948295 0.292163 -0.124007
v 5.19174 2.44388 -28.4517
vn -0.956845 0.289409 -0.0262832
v 5.19207 2.44109 -28.4024
vn -0.95618 0.283867 0.0716933
v 5.19704 2.43693 -28.3535
vn -0.946306 0.275592 0.168979
v 5.20659 2.43143 -28.3054
vn -0.927319 0.264663 0.264638
v 5.22063 2.42465 -28.2585
vn -0.899401 0.251184 0.357748
v 5.23903 2.41666 -28.2134
vn -0.862822 0.235287 0.447413
v 5.26161 2.40752 -28.1705
vn -0.817933 0.217124 0.532769
v 5.28815 2.39733 -28.1302
vn -0.765167 0.19687 0.612994
v 5.3184 2.38619 -28.0928
vn -0.705032 0.174719 0.687316
v 5.35206 2.37421 -28.0587
vn -0.638107 0.150887 0.755018
v 5.38882 2.36149 -28.0283
vn -0.565037 0.125601 0.815449
v 5.42831 2.34816 -28.0019
vn -0.486526 0.0991051 0.868027
v 5.47015 2.33435 -27.9796
vn -0.403328 0.0716551 0.912245
v 5.51396 2.3202 -27.9618
vn -0.316247 0.043515 0.947678
v 5.55929 2.30583 -27.9486
vn -0.22612 0.0149558 0.973985
v 5.60572 2.29139 -27.9401
vn -0.133815 -0.0137474 0.990911
v 5.27472 1.0146 -28.0731
vn -0.0624714 -0.116523 0.991221
v 5.32052 1.00107 -28.0742
vn 0.0316166 -0.144329 0.989024
v 5.36617 0.988208 -28.0799
vn 0.1254 -0.170745 0.977303
v 5.41124 0.976149 -28.0902
vn 0.217976 -0.195517 0.956169
v 5.45528 0.965008 -28.1049
vn 0.308453 -0.218406 0.925827
v 5.49787 0.95489 -28.124
vn 0.395959 -0.239191 0.886569
v 5.53861 0.945893 -28.1473
vn 0.479651 -0.257673 0.838773
v 5.57711 0.938104 -28.1745
vn 0.558725 -0.273673 0.782898
v 5.61298 0.931599 -28.2054
vn 0.632417 -0.287037 0.719484
v 5.64589 0.926439 -28.2396
vn 0.700019 -0.297638 0.649141
v 5.67551 0.922674 -28.2769
vn 0.76088 -0.305372 0.572547
v 5.70157 0.920341 -28.3169
vn 0.814413 -0.310165 0.490438
v 5.72381 0.919462 -28.3591
vn 0.860102 -0.311971 0.403607
v 5.74202 0.920045 -28.4033
vn 0.897509 -0.310772 0.312888
v 5.75602 0.922086 -28.4489
vn 0.926272 -0.306581 0.219156
v 5.76568 0.925563 -28.4956
vn 0.946114 -0.299437 0.123313
v 5.7709 0.930444 -28.5428
vn 0.956845 -0.289409 0.0262832
v 5.77164 0.936683 -28.5902
vn 0.95836 -0.276594 -0.071
v 5.76789 0.944217 -28.6372
vn 0.950647 -0.261115 -0.167599
v 5.75968 0.952976 -28.6834
vn 0.933778 -0.243122 -0.262585
v 5.74709 0.962875 -28.7284
vn 0.907916 -0.222787 -0.355041
v 5.73024 0.973818 -28.7718
vn 0.87331 -0.200307 -0.444079
v 5.7093 0.9857 -28.813
vn 0.830295 -0.175898 -0.528839
v 5.68447 0.998406 -28.8518
vn 0.779282 -0.149794 -0.608507
v 5.65599 1.01182 -28.8877
vn 0.720765 -0.122248 -0.682314
v 5.62412 1.0258 -28.9205
vn 0.655307 -0.0935252 -0.74955
v 5.58918 1.04022 -28.9497
vn 0.583537 -0.0639012 -0.809568
v 5.55151 1.05494 -28.9751
vn 0.506148 -0.0336619 -0.861789
v 5.51147 1.06982 -28.9965
vn 0.423885 -0.00309832 -0.905711
v 5.46944 1.08471 -29.0136
vn 0.337539 0.0274951 -0.94091
v 5.42582 1.09947 -29.0263
vn 0.247942 0.0578236 -0.967048
v 5.38105 1.11396 -29.0345
vn 0.155958 0.0875954 -0.983872
v 5.33554 1.12805 -29.0381
vn 0.0624714 0.116523 -0.991221
v 5.28974 1.14158 -29.037
vn -0.0316166 0.144329 -0.989024
v 5.24409 1.15444 -29.0313
vn -0.1254 0.170745 -0.977303
v 5.19902 1.1665 -29.0211
vn -0.217976 0.195517 -0.956169
v 5.15498 1.17764 -29.0063
vn -0.308453 0.218406 -0.925827
v 5.11238 1.18776 -28.9872
vn -0.395959 0.239191 -0.886569
v 5.07164 1.19675 -28.9639
vn -0.479651 0.257673 -0.838773
v 5.03315 1.20454 -28.9367
vn -0.558725 0.273673 -0.782898
v 4.99728 1.21105 -28.9058
vn -0.632417 0.287037 -0.719484
v 4.96437 1.21621 -28.8716
vn -0.700019 0.297638 -0.649141
v 4.93474 1.21997 -28.8343
vn -0.76088 0.305372 -0.572547
v 4.90869 1.22231 -28.7943
vn -0.814413 0.310165 -0.490438
v 4.88645 1.22319 -28.7521
vn -0.860102 0.311971 -0.403607
v 4.86824 1.2226 -28.7079
vn -0.897509 0.310772 -0.312888
v 4.85424 1.22056 -28.6623
vn -0.926272 0.306581 -0.219156
v 4.84458 1.21708 -28.6156
vn -0.946114 0.299437 -0.123313
v 4.83935 1.2122 -28.5684
vn -0.956845 0.289409 -0.0262832
v 4.83861 1.20597 -28.521
vn -0.95836 0.276594 0.071
v 4.84237 1.19843 -28.474
vn -0.950647 0.261115 0.167599
v 4.85058 1.18967 -28.4278
vn -0.933778 0.243122 0.262585
v 4.86317 1.17977 -28.3828
vn -0.907916 0.222787 0.355041
v 4.88002 1.16883 -28.3394
vn -0.87331 0.200307 0.444079
v 4.90096 1.15695 -28.2982
vn -0.830295 0.175898 0.528839
v 4.92579 1.14424 -28.2594
vn -0.779282 0.149794 0.608507
v 4.95427 1.13083 -28.2235
vn -0.720765 0.122248 0.682314
v 4.98614 1.11685 -28.1907
vn -0.655307 0.0935252 0.74955
v 5.02107 1.10243 -28.1615
vn -0.583537 0.0639012 0.809568
v 5.05874 1.08771 -28.1361
vn -0.506148 0.0336619 0.861789
v 5.09879 1.07283 -28.1147
vn -0.423885 0.00309832 0.905711
v 5.14082 1.05794 -28.0976
vn -0.337539 -0.0274951 0.94091
v 5.18443 1.04318 -28.0849
vn -0.247942 -0.0578236 0.967048
v 5.22921 1.02868 -28.0767
vn -0.155958 -0.0875954 0.983872
v 4.90045 -0.244578 -28.3128
vn -0.0839338 -0.188642 0.978453
v 4.94477 -0.257499 -28.3138
vn 0.0102576 -0.216101 0.976317
v 4.98905 -0.269441 -28.3192
vn 0.10435 -0.241478 0.964779
v 5.03285 -0.280289 -28.329
vn 0.197438 -0.26453 0.94395
v 5.07576 -0.289937 -28.3431
vn 0.288624 -0.285034 0.91403
v 5.11736 -0.298294 -28.3613
vn 0.37703 -0.302794 0.875308
v 5.15726 -0.305279 -28.3835
vn 0.461806 -0.317637 0.828156
v 5.19506 -0.310825 -28.4094
vn 0.542134 -0.329421 0.773028
v 5.2304 -0.314877 -28.4389
vn 0.617241 -0.338033 0.710455
v 5.26295 -0.317397 -28.4715
vn 0.686404 -0.343389 0.641041
v 5.29238 -0.318362 -28.5071
vn 0.748956 -0.345439 0.565453
v 5.31842 -0.317761 -28.5452
vn 0.804296 -0.344161 0.484419
v 5.34082 -0.3156 -28.5856
vn 0.851889 -0.339569 0.39872
v 5.35935 -0.3119 -28.6277
vn 0.891279 -0.331707 0.309181
v 5.37385 -0.306697 -28.6712
vn 0.922085 -0.32065 0.216665
v 5.38417 -0.300041 -28.7157
vn 0.94401 -0.306505 0.122062
v 5.39021 -0.291996 -28.7608
vn 0.956845 -0.289409 0.0262832
v 5.39191 -0.282639 -28.806
vn 0.960464 -0.269525 -0.0697484
v 5.38926 -0.272061 -28.8509
vn 0.954834 -0.247046 -0.165108
v 5.38228 -0.260363 -28.895
vn 0.940008 -0.222187 -0.258878
v 5.37105 -0.247659 -28.938
vn 0.916129 -0.195189 -0.350155
v 5.35566 -0.23407 -28.9793
vn 0.883428 -0.166311 -0.43806
v 5.33627 -0.219727 -29.0187
vn 0.842218 -0.135831 -0.521745
v 5.31306 -0.204768 -29.0557
vn 0.792898 -0.104043 -0.600406
v 5.28626 -0.189338 -29.09
vn 0.735941 -0.0712529 -0.673285
v 5.25612 -0.173585 -29.1213
vn 0.671898 -0.0377768 -0.73968
v 5.22294 -0.157661 -29.1491
vn 0.601383 -0.00393683 -0.798951
v 5.18703 -0.141719 -29.1734
vn 0.525076 0.029941 -0.850528
v 5.14874 -0.125913 -29.1938
vn 0.443713 0.0635305 -0.893914
v 5.10844 -0.110395 -29.2102
vn 0.358077 0.0965082 -0.928691
v 5.06652 -0.095314 -29.2224
vn 0.268992 0.128556 -0.954524
v 5.02338 -0.0808156 -29.2302
vn 0.177317 0.159367 -0.971165
v 4.97944 -0.0670395 -29.2336
vn 0.0839338 0.188642 -0.978453
v 4.93512 -0.0541183 -29.2326
vn -0.0102576 0.216101 -0.976317
v 4.89084 -0.0421764 -29.2272
vn -0.10435 0.241478 -0.964779
v 4.84704 -0.0313289 -29.2174
vn -0.197438 0.26453 -0.94395
v 4.80413 -0.0216802 -29.2033
vn -0.288624 0.285034 -0.91403
v 4.76253 -0.0133231 -29.1851
vn -0.37703 0.302794 -0.875308
v 4.72263 -0.00633836 -29.1629
vn -0.461806 0.317637 -0.828156
v 4.68483 -0.000793056 -29.1369
vn -0.542134 0.329421 -0.773028
v 4.64949 0.00325936 -29.1075
vn -0.617241 0.338033 -0.710455
v 4.61694 0.00577987 -29.0748
vn -0.686404 0.343389 -0.641041
v 4.58751 0.00674419 -29.0393
vn -0.748956 0.345439 -0.565453
v 4.56147 0.00614303 -29.0011
vn -0.804296 0.344161 -0.484419
v 4.53907 0.00398219 -28.9608
vn -0.851889 0.339569 -0.39872
v 4.52054 0.000282481 -28.9187
vn -0.891279 0.331707 -0.309181
v 4.50604 -0.00492048 -28.8751
vn -0.922085 0.32065 -0.216665
v 4.49572 -0.0115766 -28.8306
vn -0.94401 0.306505 -0.122062
v 4.48968 -0.0196217 -28.7856
vn -0.956845 0.289409 -0.0262832
v 4.48798 -0.0289784 -28.7404
vn -0.960464 0.269525 0.0697484
v 4.49063 -0.0395565 -28.6955
vn -0.954834 0.247046 0.165108
v 4.49761 -0.0512542 -28.6514
vn -0.940008 0.222187 0.258878
v 4.50884 -0.0639588 -28.6084
vn -0.916129 0.195189 0.350155
v 4.52423 -0.077548 -28.567
vn -0.883428 0.166311 0.43806
v 4.54362 -0.0918909 -28.5277
vn -0.842218 0.135831 0.521745
v 4.56683 -0.106849 -28.4906
vn -0.792898 0.104043 0.600406
v 4.59363 -0.122279 -28.4564
vn -0.735941 0.0712529 0.673285
v 4.62377 -0.138032 -28.4251
vn -0.671898 0.0377768 0.73968
v 4.65695 -0.153956 -28.3972
vn -0.601383 0.00393683 0.798951
v 4.69286 -0.169898 -28.373
vn -0.525076 -0.029941 0.850528
v 4.73115 -0.185704 -28.3525
vn -0.443713 -0.0635305 0.893914
v 4.77144 -0.201223 -28.3362
vn -0.358077 -0.0965082 0.928691
v 4.81336 -0.216304 -28.324
vn -0.268992 -0.128556 0.954524
v 4.8565 -0.230802 -28.3162
vn -0.177317 -0.159367 0.971165
v 4.53009 -1.50011 -28.6548
vn -0.104287 -0.257555 0.960619
v 4.57293 -1.51243 -28.6557
vn -0.00999798 -0.284681 0.95857
v 4.61582 -1.52351 -28.6608
vn 0.0843877 -0.309067 0.947289
v 4.65833 -1.53324 -28.6701
vn 0.177961 -0.330475 0.926885
v 4.70007 -1.54152 -28.6834
vn 0.26982 -0.348701 0.897555
v 4.74063 -1.54828 -28.7007
vn 0.35908 -0.363569 0.859581
v 4.77961 -1.55344 -28.7217
vn 0.444883 -0.374936 0.813328
v 4.81665 -1.55697 -28.7463
vn 0.526401 -0.382691 0.759243
v 4.85138 -1.55882 -28.7742
vn 0.602849 -0.386762 0.697846
v 4.88348 -1.55897 -28.8051
vn 0.673492 -0.387107 0.629728
v 4.91263 -1.55744 -28.8388
vn 0.737648 -0.383724 0.555545
v 4.93855 -1.55422 -28.8749
vn 0.794701 -0.376646 0.476013
v 4.961 -1.54936 -28.9132
vn 0.8441 -0.365941 0.391896
v 4.97975 -1.54289 -28.9531
vn 0.88537 -0.351711 0.304005
v 4.99463 -1.53489 -28.9944
vn 0.918114 -0.334094 0.213186
v 5.00549 -1.52542 -29.0366
vn 0.942015 -0.31326 0.120314
v 5.01222 -1.51458 -29.0793
vn 0.956845 -0.289409 0.0262832
v 5.01478 -1.50248 -29.1221
vn 0.962459 -0.26277 -0.0680005
v 5.01311 -1.48923 -29.1647
vn 0.958805 -0.233602 -0.161629
v 5.00726 -1.47495 -29.2065
vn 0.945916 -0.202183 -0.253702
v 4.99726 -1.45979 -29.2472
vn 0.923918 -0.168817 -0.343331
v 4.98323 -1.44389 -29.2864
vn 0.893022 -0.133825 -0.429653
v 4.96528 -1.42741 -29.3238
vn 0.853526 -0.097545 -0.511838
v 4.9436 -1.4105 -29.3589
vn 0.80581 -0.0603251 -0.589093
v 4.91839 -1.39332 -29.3914
vn 0.750334 -0.0225243 -0.660675
v 4.88991 -1.37605 -29.421
vn 0.687631 0.0154934 -0.725895
v 4.85841 -1.35884 -29.4475
vn 0.618306 0.0533619 -0.784124
v 4.8242 -1.34187 -29.4705
vn 0.543027 0.0907165 -0.834801
v 4.78762 -1.3253 -29.4899
vn 0.462518 0.127197 -0.877439
v 4.74902 -1.30928 -29.5054
vn 0.377554 0.162453 -0.911626
v 4.70876 -1.29397 -29.517
vn 0.288955 0.196145 -0.937034
v 4.66724 -1.27952 -29.5244
vn 0.197572 0.227947 -0.953418
v 4.62486 -1.26607 -29.5277
vn 0.104287 0.257555 -0.960619
v 4.58202 -1.25374 -29.5268
vn 0.00999798 0.284681 -0.95857
v 4.53913 -1.24266 -29.5216
vn -0.0843877 0.309067 -0.947289
v 4.49662 -1.23293 -29.5124
vn -0.177961 0.330475 -0.926885
v 4.45488 -1.22465 -29.499
vn -0.26982 0.348701 -0.897555
v 4.41433 -1.2179 -29.4818
vn -0.35908 0.363569 -0.859581
v 4.37534 -1.21273 -29.4608
vn -0.444883 0.374936 -0.813328
v 4.3383 -1.20921 -29.4362
vn -0.526401 0.382691 -0.759243
v 4.30357 -1.20736 -29.4083
vn -0.602849 0.386762 -0.697846
v 4.27147 -1.2072 -29.3773
vn -0.673492 0.387107 -0.629728
v 4.24232 -1.20874 -29.3436
vn -0.737648 0.383724 -0.555545
v 4.2164 -1.21196 -29.3075
vn -0.794701 0.376646 -0.476013
v 4.19395 -1.21682 -29.2693
vn -0.8441 0.365941 -0.391896
v 4.1752 -1.22329 -29.2294
vn -0.88537 0.351711 -0.304005
v 4.16032 -1.23129 -29.1881
vn -0.918114 0.334094 -0.213186
v 4.14947 -1.24076 -29.1459
vn -0.942015 0.31326 -0.120314
v 4.14273 -1.25159 -29.1032
vn -0.956845 0.289409 -0.0262832
v 4.14018 -1.2637 -29.0603
vn -0.962459 0.26277 0.0680005
v 4.14184 -1.27695 -29.0178
vn -0.958805 0.233602 0.161629
v 4.14769 -1.29122 -28.976
vn -0.945916 0.202183 0.253702
v 4.15769 -1.30638 -28.9352
vn -0.923918 0.168817 0.343331
v 4.17173 -1.32228 -28.896
vn -0.893022 0.133825 0.429653
v 4.18967 -1.33877 -28.8587
vn -0.853526 0.097545 0.511838
v 4.21135 -1.35568 -28.8236
vn -0.80581 0.0603251 0.589093
v 4.23656 -1.37285 -28.791
vn -0.750334 0.0225243 0.660675
v 4.26505 -1.39013 -28.7614
vn -0.687631 -0.0154934 0.725895
v 4.29654 -1.40733 -28.735
vn -0.618306 -0.0533619 0.784124
v 4.33075 -1.42431 -28.7119
vn -0.543027 -0.0907165 0.834801
v 4.36733 -1.44088 -28.6926
vn -0.462518 -0.127197 0.877439
v 4.40593 -1.4569 -28.677
vn -0.377554 -0.162453 0.911626
v 4.44619 -1.47221 -28.6655
vn -0.288955 -0.196145 0.937034
v 4.48771 -1.48666 -28.658
vn -0.197572 -0.227947 0.953418
v 4.1637 -2.75177 -29.0985
vn -0.123293 -0.322395 0.938542
v 4.20505 -2.76352 -29.0994
vn -0.0289116 -0.349209 0.936599
v 4.24653 -2.77379 -29.1042
vn 0.0657477 -0.372661 0.925636
v 4.28773 -2.7825 -29.1129
vn 0.159774 -0.392523 0.905758
v 4.32825 -2.78954 -29.1254
vn 0.252261 -0.408606 0.877158
v 4.36771 -2.79486 -29.1416
vn 0.342319 -0.420753 0.84011
v 4.40572 -2.79841 -29.1614
vn 0.42908 -0.428848 0.794971
v 4.44192 -2.80015 -29.1845
vn 0.511709 -0.432813 0.742177
v 4.47597 -2.80006 -29.2108
vn 0.58941 -0.43261 0.682234
v 4.50753 -2.79814 -29.24
vn 0.661435 -0.428241 0.615722
v 4.53629 -2.79442 -29.2717
vn 0.72709 -0.419748 0.54328
v 4.56199 -2.78893 -29.3057
vn 0.785742 -0.407212 0.465605
v 4.58437 -2.78172 -29.3417
vn 0.836827 -0.390754 0.383447
v 4.60322 -2.77286 -29.3793
vn 0.879853 -0.370533 0.297596
v 4.61836 -2.76244 -29.4182
vn 0.914406 -0.346744 0.208879
v 4.62964 -2.75055 -29.458
vn 0.940152 -0.319615 0.11815
v 4.63696 -2.73732 -29.4982
vn 0.956845 -0.289409 0.0262832
v 4.64023 -2.72286 -29.5386
vn 0.964322 -0.256415 -0.0658365
v 4.63944 -2.70732 -29.5787
vn 0.962512 -0.220952 -0.157322
v 4.63459 -2.69085 -29.6181
vn 0.951433 -0.183361 -0.247293
v 4.62572 -2.67361 -29.6565
vn 0.931191 -0.144004 -0.334882
v 4.61292 -2.65576 -29.6934
vn 0.901981 -0.10326 -0.419246
v 4.59632 -2.63747 -29.7286
vn 0.864085 -0.0615218 -0.499572
v 4.57606 -2.61892 -29.7617
vn 0.817867 -0.0191911 -0.575087
v 4.55236 -2.60029 -29.7924
vn 0.763772 0.0233245 -0.645064
v 4.52544 -2.58177 -29.8203
vn 0.702322 0.0656154 -0.708829
v 4.49555 -2.56351 -29.8452
vn 0.634108 0.107274 -0.765767
v 4.46299 -2.54571 -29.867
vn 0.559788 0.1479 -0.81533
v 4.42806 -2.52854 -29.8852
vn 0.480076 0.187102 -0.857041
v 4.39111 -2.51215 -29.8999
vn 0.395741 0.224501 -0.890499
v 4.35249 -2.49671 -29.9108
vn 0.307595 0.259739 -0.91538
v 4.31257 -2.48237 -29.9178
vn 0.216486 0.292475 -0.931446
v 4.27174 -2.46926 -29.9209
vn 0.123293 0.322395 -0.938542
v 4.23039 -2.45751 -29.9201
vn 0.0289116 0.349209 -0.936599
v 4.18892 -2.44724 -29.9153
vn -0.0657477 0.372661 -0.925636
v 4.14772 -2.43853 -29.9066
vn -0.159774 0.392523 -0.905758
v 4.1072 -2.43149 -29.894
vn -0.252261 0.408606 -0.877158
v 4.06774 -2.42616 -29.8778
vn -0.342319 0.420753 -0.84011
v 4.02972 -2.42262 -29.858
vn -0.42908 0.428848 -0.794971
v 3.99352 -2.42088 -29.8349
vn -0.511709 0.432813 -0.742177
v 3.95948 -2.42097 -29.8086
vn -0.58941 0.43261 -0.682234
v 3.92792 -2.42288 -29.7795
vn -0.661435 0.428241 -0.615722
v 3.89915 -2.4266 -29.7478
vn -0.72709 0.419748 -0.54328
v 3.87345 -2.4321 -29.7137
vn -0.785742 0.407212 -0.465605
v 3.85107 -2.43931 -29.6777
vn -0.836827 0.390754 -0.383447
v 3.83222 -2.44817 -29.6401
vn -0.879853 0.370533 -0.297596
v 3.81708 -2.45859 -29.6012
vn -0.914406 0.346744 -0.208879
v 3.8058 -2.47048 -29.5615
vn -0.940152 0.319615 -0.11815
v 3.79849 -2.48371 -29.5212
vn -0.956845 0.289409 -0.0262832
v 3.79521 -2.49817 -29.4809
vn -0.964322 0.256415 0.0658365
v 3.796 -2.51371 -29.4408
vn -0.962512 0.220952 0.157322
v 3.80086 -2.53018 -29.4014
vn -0.951433 0.183361 0.247293
v 3.80973 -2.54742 -29.363
vn -0.931191 0.144004 0.334882
v 3.82253 -2.56527 -29.326
vn -0.901981 0.10326 0.419246
v 3.83913 -2.58356 -29.2908
vn -0.864085 0.0615218 0.499572
v 3.85938 -2.60211 -29.2578
vn -0.817867 0.0191911 0.575087
v 3.88308 -2.62073 -29.2271
vn -0.763772 -0.0233245 0.645064
v 3.91 -2.63926 -29.1992
vn -0.702322 -0.0656154 0.708829
v 3.93989 -2.65752 -29.1742
vn -0.634108 -0.107274 0.765767
v 3.97246 -2.67532 -29.1525
vn -0.559788 -0.1479 0.81533
v 4.00738 -2.69249 -29.1342
vn -0.480076 -0.187102 0.857041
v 4.04433 -2.70888 -29.1196
vn -0.395741 -0.224501 0.890499
v 4.08295 -2.72432 -29.1087
vn -0.307595 -0.259739 0.91538
v 4.12287 -2.73866 -29.1016
vn -0.216486 -0.292475 0.931446
v 3.80128 -3.99951 -29.6434
vn -0.140798 -0.382579 0.913131
v 3.84113 -4.0107 -29.6442
vn -0.0463329 -0.409104 0.911311
v 3.88118 -4.02023 -29.6487
vn 0.0485785 -0.431689 0.900714
v 3.92103 -4.028 -29.6568
vn 0.143022 -0.450116 0.881442
v 3.9603 -4.03395 -29.6685
vn 0.236088 -0.464209 0.853682
v 3.9986 -4.03801 -29.6837
vn 0.326881 -0.473831 0.8177
v 4.03558 -4.04014 -29.7022
vn 0.414525 -0.47889 0.773843
v 4.07088 -4.04033 -29.7238
vn 0.498177 -0.479337 0.722534
v 4.10415 -4.03857 -29.7484
vn 0.577032 -0.475167 0.664267
v 4.13508 -4.03488 -29.7757
vn 0.65033 -0.466422 0.599602
v 4.16336 -4.0293 -29.8054
vn 0.717364 -0.453184 0.529162
v 4.18873 -4.02187 -29.8373
vn 0.77749 -0.435582 0.453627
v 4.21094 -4.01268 -29.871
vn 0.830128 -0.413786 0.373723
v 4.22978 -4.0018 -29.9062
vn 0.874772 -0.388004 0.29022
v 4.24506 -3.98934 -29.9427
vn 0.910991 -0.358485 0.203921
v 4.25664 -3.97543 -29.9799
vn 0.938437 -0.325515 0.115659
v 4.26441 -3.9602 -30.0176
vn 0.956845 -0.289409 0.0262832
v 4.26828 -3.94379 -30.0554
vn 0.966038 -0.250516 -0.0633459
v 4.26824 -3.92636 -30.093
vn 0.965927 -0.20921 -0.152365
v 4.26427 -3.90808 -30.1299
vn 0.956515 -0.16589 -0.239917
v 4.25641 -3.88913 -30.1659
vn 0.93789 -0.120972 -0.325158
v 4.24474 -3.86968 -30.2005
vn 0.910233 -0.0748892 -0.407267
v 4.22937 -3.84994 -30.2335
vn 0.87381 -0.028085 -0.485455
v 4.21045 -3.83007 -30.2645
vn 0.828972 0.0189896 -0.558967
v 4.18816 -3.81029 -30.2933
vn 0.776151 0.0658814 -0.627096
v 4.16272 -3.79077 -30.3195
vn 0.715854 0.112139 -0.689186
v 4.13437 -3.77171 -30.3429
vn 0.648664 0.157316 -0.744639
v 4.10339 -3.75329 -30.3632
vn 0.575226 0.200978 -0.79292
v 4.07007 -3.73568 -30.3804
vn 0.496249 0.242705 -0.833565
v 4.03473 -3.71906 -30.3942
vn 0.412493 0.282095 -0.866183
v 3.99771 -3.70359 -30.4044
vn 0.324764 0.318767 -0.890458
v 3.95938 -3.68941 -30.411
vn 0.233907 0.35237 -0.906158
v 3.92009 -3.67667 -30.414
vn 0.140798 0.382579 -0.913131
v 3.88023 -3.66547 -30.4132
vn 0.0463329 0.409104 -0.911311
v 3.84019 -3.65594 -30.4087
vn -0.0485785 0.431689 -0.900714
v 3.80034 -3.64817 -30.4006
vn -0.143022 0.450116 -0.881442
v 3.76107 -3.64222 -30.3889
vn -0.236088 0.464209 -0.853682
v 3.72276 -3.63816 -30.3737
vn -0.326881 0.473831 -0.8177
v 3.68578 -3.63603 -30.3552
vn -0.414525 0.47889 -0.773843
v 3.65049 -3.63584 -30.3336
vn -0.498177 0.479337 -0.722534
v 3.61722 -3.6376 -30.309
vn -0.577032 0.475167 -0.664267
v 3.58629 -3.64129 -30.2817
vn -0.65033 0.466422 -0.599602
v 3.55801 -3.64687 -30.252
vn -0.717364 0.453184 -0.529162
v 3.53264 -3.6543 -30.2201
vn -0.77749 0.435582 -0.453627
v 3.51043 -3.6635 -30.1864
vn -0.830128 0.413786 -0.373723
v 3.49159 -3.67438 -30.1511
vn -0.874772 0.388004 -0.29022
v 3.47631 -3.68683 -30.1147
vn -0.910991 0.358485 -0.203921
v 3.46473 -3.70074 -30.0775
vn -0.938437 0.325515 -0.115659
v 3.45696 -3.71598 -30.0398
vn -0.956845 0.289409 -0.0262832
v 3.45308 -3.73239 -30.002
vn -0.966038 0.250516 0.0633459
v 3.45313 -3.74981 -29.9644
vn -0.965927 0.20921 0.152365
v 3.4571 -3.76809 -29.9275
vn -0.956515 0.16589 0.239917
v 3.46496 -3.78704 -29.8915
vn -0.93789 0.120972 0.325158
v 3.47663 -3.80649 -29.8569
vn -0.910233 0.0748892 0.407267
v 3.492 -3.82624 -29.8239
vn -0.87381 0.028085 0.485455
v 3.51092 -3.8461 -29.7928
vn -0.828972 -0.0189896 0.558967
v 3.5332 -3.86588 -29.7641
vn -0.776151 -0.0658814 0.627096
v 3.55864 -3.8854 -29.7379
vn -0.715854 -0.112139 0.689186
v 3.58699 -3.90446 -29.7145
vn -0.648664 -0.157316 0.744639
v 3.61798 -3.92289 -29.6941
vn -0.575226 -0.200978 0.79292
v 3.6513 -3.94049 -29.677
vn -0.496249 -0.242705 0.833565
v 3.68664 -3.95711 -29.6632
vn -0.412493 -0.282095 0.866183
v 3.72366 -3.97258 -29.653
vn -0.324764 -0.318767 0.890458
v 3.76199 -3.98676 -29.6464
vn -0.233907 -0.35237 0.906158
f 1 66 2 
f 1 65 66 
f 2 67 3 
f 2 66 67 
f 3 68 4 
f 3 67 68 
f 4 69 5 
f 4 68 69 
f 5 70 6 
f 5 69 70 
f 6 71 7 
f 6 70 71 
f 7 72 8 
f 7 71 72 
f 8 73 9 
f 8 72 73 
f 9 74 10 
f 9 73 74 
f 10 75 11 
f 10 74 75 
f 11 76 12 
f 11 75 76 
f 12 77 13 
f 12 76 77 
f 13 78 14 
f 13 77 78 
f 14 79 15 
f 14 78 79 
f 15 80 16 
f 15 79 80 
f 16 81 17 
f 16 80 81 
f 17 82 18 
f 17 81 82 
f 18 83 19 
f 18 82 83 
f 19 84 20 
f 19 83 84 
f 20 85 21 
f 20 84 85 
f 21 86 22 
f 21 85 86 
f 22 87 23 
f 22 86 87 
f 23 88 24 
f 23 87 88 
f 24 89 25 
f 24 88 89 
f 25 90 26 
f 25 89 90 
f 26 91 27 
f 26 90 91 
f 27 92 28 
f 27 91 92 
f 28 93 29 
f 28 92 93 
f 29 94 30 
f 29 93 94 
f 30 95 31 
f 30 94 95 
f 31 96 32 
f 31 95 96 
f 32 97 33 
f 32 96 97 
f 33 98 34 
f 33 97 98 
f 34 99 35 
f 34 98 99 
f 35 100 36 
f 35 99 100 
f 36 101 37 
f 36 100 101 
f 37 102 38 
f 37 101 102 
f 38 103 39 
f 38 102 103 
f 39 104 40 
f 39 103 104 
f 40 105 41 
f 40 104 105 
f 41 106 42 
f 41 105 106 
f 42 107 43 
f 42 106 107 
f 43 108 44 
f 43 107 108 
f 44 109 45 
f 44 108 109 
f 45 110 46 
f 45 109 110 
f 46 111 47 
f 46 110 111 
f 47 112 48 
f 47 111 112 
f 48 113 49 
f 48 112 113 
f 49 114 50 
f 49 113 114 
f 50 115 51 
f 50 114 115 
f 51 116 52 
f 51 115 116 
f 52 117 53 
f 52 116 117 
f 53 118 54 
f 53 117 118 
f 54 119 55 
f 54 118 119 
f 55 120 56 
f 55 119 120 
f 56 121 57 
f 56 120 121 
f 57 122 58 
f 57 121 122 
f 58 123 59 
f 58 122 123 
f 59 124 60 
f 59 123 124 
f 60 125 61 
f 60 124 125 
f 61 126 62 
f 61 125 126 
f 62 127 63 
f 62 126 127 
f 63 128 64 
f 63 127 128 
f 64 65 1 
f 64 128 65 
f 65 130 66 
f 65 129 130 
f 66 131 67 
f 66 130 131 
f 67 132 68 
f 67 131 132 
f 68 133 69 
f 68 132 133 
f 69 134 70 
f 69 133 134 
f 70 135 71 
f 70 134 135 
f 71 136 72 
f 71 135 136 
f 72 137 73 
f 72 136 137 
f 73 138 74 
f 73 137 138 
f 74 139 75 
f 74 138 139 
f 75 140 76 
f 75 139 140 
f 76 141 77 
f 76 140 141 
f 77 142 78 
f 77 141 142 
f 78 143 79 
f 78 142 143 
f 79 144 80 
f 79 143 144 
f 80 145 81 
f 80 144 145 
f 81 146 82 
f 81 145 146 
f 82 147 83 
f 82 146 147 
f 83 148 84 
f 83 147 148 
f 84 149 85 
f 84 148 149 
f 85 150 86 
f 85 149 150 
f 86 151 87 
f 86 150 151 
f 87 152 88 
f 87 151 152 
f 88 153 89 
f 88 152 153 
f 89 154 90 
f 89 153 154 
f 90 155 91 
f 90 154 155 
f 91 156 92 
f 91 155 156 
f 92 157 93 
f 92 156 157 
f 93 158 94 
f 93 157 158 
f 94 159 95 
f 94 158 159 
f 95 160 96 
f 95 159 160 
f 96 161 97 
f 96 160 161 
f 97 162 98 
f 97 161 162 
f 98 163 99 
f 98 162 163 
f 99 164 100 
f 99 163 164 
f 100 165 101 
f 100 164 165 
f 101 166 102 
f 101 165 166 
f 102 167 103 
f 102 166 167 
f 103 168 104 
f 103 167 168 
f 104 169 105 
f 104 168 169 
f 105 170 106 
f 105 169 170 
f 106 171 107 
f 106 170 171 
f 107 172 108 
f 107 171 172 
f 108 173 109 
f 108 172 173 
f 109 174 110 
f 109 173 174 
f 110 175 111 
f 110 174 175 
f 111 176 112 
f 111 175 176 
f 112 177 113 
f 112 176 177 
f 113 178 114 
f 113 177 178 
f 114 179 115 
f 114 178 179 
f 115 180 116 
f 115 179 180 
f 116 181 117 
f 116 180 181 
f 117 182 118 
f 117 181 182 
f 118 183 119 
f 118 182 183 
f 119 184 120 
f 119 183 184 
f 120 185 121 
f 120 184 185 
f 121 186 122 
f 121 185 186 
f 122 187 123 
f 122 186 187 
f 123 188 124 
f 123 187 188 
f 124 189 125 
f 124 188 189 
f 125 190 126 
f 125 189 190 
f 126 191 127 
f 126 190 191 
f 127 192 128 
f 127 191 192 
f 128 129 65 
f 128 192 129 
f 129 194 130 
f 129 193 194 
f 130 195 131 
f 130 194 195 
f 131 196 132 
f 131 195 196 
f 132 197 133 
f 132 196 197 
f 133 198 134 
f 133 197 198 
f 134 199 135 
f 134 198 199 
f 135 200 136 
f 135 199 200 
f 136 201 137 
f 136 200 201 
f 137 202 138 
f 137 201 202 
f 138 203 139 
f 138 202 203 
f 139 204 140 
f 139 203 204 
f 140 205 141 
f 140 204 205 
f 141 206 142 
f 141 205 206 
f 142 207 143 
f 142 206 207 
f 143 208 144 
f 143 207 208 
f 144 209 145 
f 144 208 209 
f 145 210 146 
f 145 209 210 
f 146 211 147 
f 146 210 211 
f 147 212 148 
f 147 211 212 
f 148 213 149 
f 148 212 213 
f 149 214 150 
f 149 213 214 
f 150 215 151 
f 150 214 215 
f 151 216 152 
f 151 215 216 
f 152 217 153 
f 152 216 217 
f 153 218 154 
f 153 217 218 
f 154 219 155 
f 154 218 219 
f 155 220 156 
f 155 219 220 
f 156 221 157 
f 156 220 221 
f 157 222 158 
f 157 221 222 
f 158 223 159 
f 158 222 223 
f 159 224 160 
f 159 223 224 
f 160 225 161 
f 160 224 225 
f 161 226 162 
f 161 225 226 
f 162 227 163 
f 162 226 227 
f 163 228 164 
f 163 227 228 
f 164 229 165 
f 164 228 229 
f 165 230 166 
f 165 229 230 
f 166 231 167 
f 166 230 231 
f 167 232 168 
f 167 231 232 
f 168 233 169 
f 168 232 233 
f 169 234 170 
f 169 233 234 
f 170 235 171 
f 170 234 235 
f 171 236 172 
f 171 235 236 
f 172 237 173 
f 172 236 237 
f 173 238 174 
f 173 237 238 
f 174 239 175 
f 174 238 239 
f 175 240 176 
f 175 239 240 
f 176 241 177 
f 176 240 241 
f 177 242 178 
f 177 241 242 
f 178 243 179 
f 178 242 243 
f 179 244 180 
f 179 243 244 
f 180 245 181 
f 180 244 245 
f 181 246 182 
f 181 245 246 
f 182 247 183 
f 182 246 247 
f 183 248 184 
f 183 247 248 
f 184 249 185 
f 184 248 249 
f 185 250 186 
f 185 249 250 
f 186 251 187 
f 186 250 251 
f 187 252 188 
f 187 251 252 
f 188 253 189 
f 188 252 253 
f 189 254 190 
f 189 253 254 
f 190 255 191 
f 190 254 255 
f 191 256 192 
f 191 255 256 
f 192 193 129 
f 192 256 193 
f 193 258 194 
f 193 257 258 
f 194 259 195 
f 194 258 259 
f 195 260 196 
f 195 259 260 
f 196 261 197 
f 196 260 261 
f 197 262 198 
f 197 261 262 
f 198 263 199 
f 198 262 263 
f 199 264 200 
f 199 263 264 
f 200 265 201 
f 200 264 265 
f 201 266 202 
f 201 265 266 
f 202 267 203 
f 202 266 267 
f 203 268 204 
f 203 267 268 
f 204 269 205 
f 204 268 269 
f 205 270 206 
f 205 269 270 
f 206 271 207 
f 206 270 271 
f 207 272 208 
f 207 271 272 
f 208 273 209 
f 208 272 273 
f 209 274 210 
f 209 273 274 
f 210 275 211 
f 210 274 275 
f 211 276 212 
f 211 275 276 
f 212 277 213 
f 212 276 277 
f 213 278 214 
f 213 277 278 
f 214 279 215 
f 214 278 279 
f 215 280 216 
f 215 279 280 
f 216 281 217 
f 216 280 281 
f 217 282 218 
f 217 281 282 
f 218 283 219 
f 218 282 283 
f 219 284 220 
f 219 283 284 
f 220 285 221 
f 220 284 285 
f 221 286 222 
f 221 285 286 
f 222 287 223 
f 222 286 287 
f 223 288 224 
f 223 287 288 
f 224 289 225 
f 224 288 289 
f 225 290 226 
f 225 289 290 
f 226 291 227 
f 226 290 291 
f 227 292 228 
f 227 291 292 
f 228 293 229 
f 228 292 293 
f 229 294 230 
f 229 293 294 
f 230 295 231 
f 230 294 295 
f 231 296 232 
f 231 295 296 
f 232 297 233 
f 232 296 297 
f 233 298 234 
f 233 297 298 
f 234 299 235 
f 234 298 299 
f 235 300 236 
f 235 299 300 
f 236 301 237 
f 236 300 301 
f 237 302 238 
f 237 301 302 
f 238 303 239 
f 238 302 303 
f 239 304 240 
f 239 303 304 
f 240 305 241 
f 240 304 305 
f 241 306 242 
f 241 305 306 
f 242 307 243 
f 242 306 307 
f 243 308 244 
f 243 307 308 
f 244 309 245 
f 244 308 309 
f 245 310 246 
f 245 309 310 
f 246 311 247 
f 246 310 311 
f 247 312 248 
f 247 311 312 
f 248 313 249 
f 248 312 313 
f 249 314 250 
f 249 313 314 
f 250 315 251 
f 250 314 315 
f 251 316 252 
f 251 315 316 
f 252 317 253 
f 252 316 317 
f 253 318 254 
f 253 317 318 
f 254 319 255 
f 254 318 319 
f 255 320 256 
f 255 319 320 
f 256 257 193 
f 256 320 257 
f 257 322 258 
f 257 321 322 
f 258 323 259 
f 258 322 323 
f 259 324 260 
f 259 323 324 
f 260 325 261 
f 260 324 325 
f 261 326 262 
f 261 325 326 
f 262 327 263 
f 262 326 327 
f 263 328 264 
f 263 327 328 
f 264 329 265 
f 264 328 329 
f 265 330 266 
f 265 329 330 
f 266 331 267 
f 266 330 331 
f 267 332 268 
f 267 331 332 
f 268 333 269 
f 268 332 333 
f 269 334 270 
f 269 333 334 
f 270 335 271 
f 270 334 335 
f 271 336 272 
f 271 335 336 
f 272 337 273 
f 272 336 337 
f 273 338 274 
f 273 337 338 
f 274 339 275 
f 274 338 339 
f 275 340 276 
f 275 339 340 
f 276 341 277 
f 276 340 341 
f 277 342 278 
f 277 341 342 
f 278 343 279 
f 278 342 343 
f 279 344 280 
f 279 343 344 
f 280 345 281 
f 280 344 345 
f 281 346 282 
f 281 345 346 
f 282 347 283 
f 282 346 347 
f 283 348 284 
f 283 347 348 
f 284 349 285 
f 284 348 349 
f 285 350 286 
f 285 349 350 
f 286 351 287 
f 286 350 351 
f 287 352 288 
f 287 351 352 
f 288 353 289 
f 288 352 353 
f 289 354 290 
f 289 353 354 
f 290 355 291 
f 290 354 355 
f 291 356 292 
f 291 355 356 
f 292 357 293 
f 292 356 357 
f 293 358 294 
f 293 357 358 
f 294 359 295 
f 294 358 359 
f 295 360 296 
f 295 359 360 
f 296 361 297 
f 296 360 361 
f 297 362 298 
f 297 361 362 
f 298 363 299 
f 298 362 363 
f 299 364 300 
f 299 363 364 
f 300 365 301 
f 300 364 365 
f 301 366 302 
f 301 365 366 
f 302 367 303 
f 302 366 367 
f 303 368 304 
f 303 367 368 
f 304 369 305 
f 304 368 369 
f 305 370 306 
f 305 369 370 
f 306 371 307 
f 306 370 371 
f 307 372 308 
f 307 371 372 
f 308 373 309 
f 308 372 373 
f 309 374 310 
f 309 373 374 
f 310 375 311 
f 310 374 375 
f 311 376 312 
f 311 375 376 
f 312 377 313 
f 312 376 377 
f 313 378 314 
f 313 377 378 
f 314 379 315 
f 314 378 379 
f 315 380 316 
f 315 379 380 
f 316 381 317 
f 316 380 381 
f 317 382 318 
f 317 381 382 
f 318 383 319 
f 318 382 383 
f 319 384 320 
f 319 383 384 
f 320 321 257 
f 320 384 321 
f 321 386 322 
f 321 385 386 
f 322 387 323 
f 322 386 387 
f 323 388 324 
f 323 387 388 
f 324 389 325 
f 324 388 389 
f 325 390 326 
f 325 389 390 
f 326 391 327 
f 326 390 391 
f 327 392 328 
f 327 391 392 
f 328 393 329 
f 328 392 393 
f 329 394 330 
f 329 393 394 
f 330 395 331 
f 330 394 395 
f 331 396 332 
f 331 395 396 
f 332 397 333 
f 332 396 397 
f 333 398 334 
f 333 397 398 
f 334 399 335 
f 334 398 399 
f 335 400 336 
f 335 399 400 
f 336 401 337 
f 336 400 401 
f 337 402 338 
f 337 401 402 
f 338 403 339 
f 338 402 403 
f 339 404 340 
f 339 403 404 
f 340 405 341 
f 340 404 405 
f 341 406 342 
f 341 405 406 
f 342 407 343 
f 342 406 407 
f 343 408 344 
f 343 407 408 
f 344 409 345 
f 344 408 409 
f 345 410 346 
f 345 409 410 
f 346 411 347 
f 346 410 411 
f 347 412 348 
f 347 411 412 
f 348 413 349 
f 348 412 413 
f 349 414 350 
f 349 413 414 
f 350 415 351 
f 350 414 415 
f 351 416 352 
f 351 415 416 
f 352 417 353 
f 352 416 417 
f 353 418 354 
f 353 417 418 
f 354 419 355 
f 354 418 419 
f 355 420 356 
f 355 419 420 
f 356 421 357 
f 356 420 421 
f 357 422 358 
f 357 421 422 
f 358 423 359 
f 358 422 423 
f 359 424 360 
f 359 423 424 
f 360 425 361 
f 360 424 425 
f 361 426 362 
f 361 425 426 
f 362 427 363 
f 362 426 427 
f 363 428 364 
f 363 427 428 
f 364 429 365 
f 364 428 429 
f 365 430 366 
f 365 429 430 
f 366 431 367 
f 366 430 431 
f 367 432 368 
f 367 431 432 
f 368 433 369 
f 368 432 433 
f 369 434 370 
f 369 433 434 
f 370 435 371 
f 370 434 435 
f 371 436 372 
f 371 435 436 
f 372 437 373 
f 372 436 437 
f 373 438 374 
f 373 437 438 
f 374 439 375 
f 374 438 439 
f 375 440 376 
f 375 439 440 
f 376 441 377 
f 376 440 441 
f 377 442 378 
f 377 441 442 
f 378 443 379 
f 378 442 443 
f 379 444 380 
f 379 443 444 
f 380 445 381 
f 380 444 445 
f 381 446 382 
f 381 445 446 
f 382 447 383 
f 382 446 447 
f 383 448 384 
f 383 447 448 
f 384 385 321 
f 384 448 385 
f 385 450 386 
f 385 449 450 
f 386 451 387 
f 386 450 451 
f 387 452 388 
f 387 451 452 
f 388 453 389 
f 388 452 453 
f 389 454 390 
f 389 453 454 
f 390 455 391 
f 390 454 455 
f 391 456 392 
f 391 455 456 
f 392 457 393 
f 392 456 457 
f 393 458 394 
f 393 457 458 
f 394 459 395 
f 394 458 459 
f 395 460 396 
f 395 459 460 
f 396 461 397 
f 396 460 461 
f 397 462 398 
f 397 461 462 
f 398 463 399 
f 398 462 463 
f 399 464 400 
f 399 463 464 
f 400 465 401 
f 400 464 465 
f 401 466 402 
f 401 465 466 
f 402 467 403 
f 402 466 467 
f 403 468 404 
f 403 467 468 
f 404 469 405 
f 404 468 469 
f 405 470 406 
f 405 469 470 
f 406 471 407 
f 406 470 471 
f 407 472 408 
f 407 471 472 
f 408 473 409 
f 408 472 473 
f 409 474 410 
f 409 473 474 
f 410 475 411 
f 410 474 475 
f 411 476 412 
f 411 475 476 
f 412 477 413 
f 412 476 477 
f 413 478 414 
f 413 477 478 
f 414 479 415 
f 414 478 479 
f 415 480 416 
f 415 479 480 
f 416 481 417 
f 416 480 481 
f 417 482 418 
f 417 481 482 
f 418 483 419 
f 418 482 483 
f 419 484 420 
f 419 483 484 
f 420 485 421 
f 420 484 485 
f 421 486 422 
f 421 485 486 
f 422 487 423 
f 422 486 487 
f 423 488 424 
f 423 487 488 
f 424 489 425 
f 424 488 489 
f 425 490 426 
f 425 489 490 
f 426 491 427 
f 426 490 491 
f 427 492 428 
f 427 491 492 
f 428 493 429 
f 428 492 493 
f 429 494 430 
f 429 493 494 
f 430 495 431 
f 430 494 495 
f 431 496 432 
f 431 495 496 
f 432 497 433 
f 432 496 497 
f 433 498 434 
f 433 497 498 
f 434 499 435 
f 434 498 499 
f 435 500 436 
f 435 499 500 
f 436 501 437 
f 436 500 501 
f 437 502 438 
f 437 501 502 
f 438 503 439 
f 438 502 503 
f 439 504 440 
f 439 503 504 
f 440 505 441 
f 440 504 505 
f 441 506 442 
f 441 505 506 
f 442 507 443 
f 442 506 507 
f 443 508 444 
f 443 507 508 
f 444 509 445 
f 444 508 509 
f 445 510 446 
f 445 509 510 
f 446 511 447 
f 446 510 511 
f 447 512 448 
f 447 511 512 
f 448 449 385 
f 448 512 449 
f 449 514 450 
f 449 513 514 
f 450 515 451 
f 450 514 515 
f 451 516 452 
f 451 515 516 
f 452 517 453 
f 452 516 517 
f 453 518 454 
f 453 517 518 
f 454 519 455 
f 454 518 519 
f 455 520 456 
f 455 519 520 
f 456 521 457 
f 456 520 521 
f 457 522 458 
f 457 521 522 
f 458 523 459 
f 458 522 523 
f 459 524 460 
f 459 523 524 
f 460 525 461 
f 460 524 525 
f 461 526 462 
f 461 525 526 
f 462 527 463 
f 462 526 527 
f 463 528 464 
f 463 527 528 
f 464 529 465 
f 464 528 529 
f 465 530 466 
f 465 529 530 
f 466 531 467 
f 466 530 531 
f 467 532 468 
f 467 531 532 
f 468 533 469 
f 468 532 533 
f 469 534 470 
f 469 533 534 
f 470 535 471 
f 470 534 535 
f 471 536 472 
f 471 535 536 
f 472 537 473 
f 472 536 537 
f 473 538 474 
f 473 537 538 
f 474 539 475 
f 474 538 539 
f 475 540 476 
f 475 539 540 
f 476 541 477 
f 476 540 541 
f 477 542 478 
f 477 541 542 
f 478 543 479 
f 478 542 543 
f 479 544 480 
f 479 543 544 
f 480 545 481 
f 480 544 545 
f 481 546 482 
f 481 545 546 
f 482 547 483 
f 482 546 547 
f 483 548 484 
f 483 547 548 
f 484 549 485 
f 484 548 549 
f 485 550 486 
f 485 549 550 
f 486 551 487 
f 486 550 551 
f 487 552 488 
f 487 551 552 
f 488 553 489 
f 488 552 553 
f 489 554 490 
f 489 553 554 
f 490 555 491 
f 490 554 555 
f 491 556 492 
f 491 555 556 
f 492 557 493 
f 492 556 557 
f 493 558 494 
f 493 557 558 
f 494 559 495 
f 494 558 559 
f 495 560 496 
f 495 559 560 
f 496 561 497 
f 496 560 561 
f 497 562 498 
f 497 561 562 
f 498 563 499 
f 498 562 563 
f 499 564 500 
f 499 563 564 
f 500 565 501 
f 500 564 565 
f 501 566 502 
f 501 565 566 
f 502 567 503 
f 502 566 567 
f 503 568 504 
f 503 567 568 
f 504 569 505 
f 504 568 569 
f 505 570 506 
f 505 569 570 
f 506 571 507 
f 506 570 571 
f 507 572 508 
f 507 571 572 
f 508 573 509 
f 508 572 573 
f 509 574 510 
f 509 573 574 
f 510 575 511 
f 510 574 575 
f 511 576 512 
f 511 575 576 
f 512 513 449 
f 512 576 513 
f 513 578 514 
f 513 577 578 
f 514 579 515 
f 514 578 579 
f 515 580 516 
f 515 579 580 
f 516 581 517 
f 516 580 581 
f 517 582 518 
f 517 581 582 
f 518 583 519 
f 518 582 583 
f 519 584 520 
f 519 583 584 
f 520 585 521 
f 520 584 585 
f 521 586 522 
f 521 585 586 
f 522 587 523 
f 522 586 587 
f 523 588 524 
f 523 587 588 
f 524 589 525 
f 524 588 589 
f 525 590 526 
f 525 589 590 
f 526 591 527 
f 526 590 591 
f 527 592 528 
f 527 591 592 
f 528 593 529 
f 528 592 593 
f 529 594 530 
f 529 593 594 
f 530 595 531 
f 530 594 595 
f 531 596 532 
f 531 595 596 
f 532 597 533 
f 532 596 597 
f 533 598 534 
f 533 597 598 
f 534 599 535 
f 534 598 599 
f 535 600 536 
f 535 599 600 
f 536 601 537 
f 536 600 601 
f 537 602 538 
f 537 601 602 
f 538 603 539 
f 538 602 603 
f 539 604 540 
f 539 603 604 
f 540 605 541 
f 540 604 605 
f 541 606 542 
f 541 605 606 
f 542 607 543 
f 542 606 607 
f 543 608 544 
f 543 607 608 
f 544 609 545 
f 544 608 609 
f 545 610 546 
f 545 609 610 
f 546 611 547 
f 546 610 611 
f 547 612 548 
f 547 611 612 
f 548 613 549 
f 548 612 613 
f 549 614 550 
f 549 613 614 
f 550 615 551 
f 550 614 615 
f 551 616 552 
f 551 615 616 
f 552 617 553 
f 552 616 617 
f 553 618 554 
f 553 617 618 
f 554 619 555 
f 554 618 619 
f 555 620 556 
f 555 619 620 
f 556 621 557 
f 556 620 621 
f 557 622 558 
f 557 621 622 
f 558 623 559 
f 558 622 623 
f 559 624 560 
f 559 623 624 
f 560 625 561 
f 560 624 625 
f 561 626 562 
f 561 625 626 
f 562 627 563 
f 562 626 627 
f 563 628 564 
f 563 627 628 
f 564 629 565 
f 564 628 629 
f 565 630 566 
f 565 629 630 
f 566 631 567 
f 566 630 631 
f 567 632 568 
f 567 631 632 
f 568 633 569 
f 568 632 633 
f 569 634 570 
f 569 633 634 
f 570 635 571 
f 570 634 635 
f 571 636 572 
f 571 635 636 
f 572 637 573 
f 572 636 637 
f 573 638 574 
f 573 637 638 
f 574 639 575 
f 574 638 639 
f 575 640 576 
f 575 639 640 
f 576 577 513 
f 576 640 577 
