# Branch
v 6.65327 7.98317 -28.8853
vn 0.0167791 0.688474 0.725067
v 6.68837 7.97505 -28.8808
vn 0.111666 0.666506 0.737089
v 6.72307 7.96455 -28.879
vn 0.205477 0.63812 0.742012
v 6.75703 7.95178 -28.8798
vn 0.297309 0.603588 0.73979
v 6.78994 7.93685 -28.8833
vn 0.386278 0.563243 0.730443
v 6.82147 7.91993 -28.8893
vn 0.471527 0.517474 0.714061
v 6.85133 7.90115 -28.8979
vn 0.552234 0.466721 0.690803
v 6.87921 7.88072 -28.909
vn 0.627624 0.411474 0.660891
v 6.90486 7.85882 -28.9224
vn 0.696969 0.352264 0.624615
v 6.92803 7.83566 -28.9381
vn 0.759602 0.289661 0.582324
v 6.94849 7.81148 -28.9558
vn 0.81492 0.224269 0.534425
v 6.96604 7.78649 -28.9754
vn 0.862389 0.156716 0.481378
v 6.98053 7.76095 -28.9967
vn 0.901553 0.087655 0.423696
v 6.99181 7.73509 -29.0196
vn 0.932035 0.0177495 0.361933
v 6.99976 7.70917 -29.0437
vn 0.953541 -0.052327 0.296685
v 7.00432 7.68344 -29.0689
vn 0.965863 -0.1219 0.22858
v 7.00543 7.65814 -29.0949
vn 0.968884 -0.190298 0.158273
v 7.0031 7.63352 -29.1215
vn 0.962574 -0.256864 0.0864416
v 6.99734 7.60981 -29.1484
vn 0.946994 -0.320956 0.013778
v 6.9882 7.58725 -29.1753
vn 0.922294 -0.381957 -0.0590182
v 6.97578 7.56604 -29.202
vn 0.888711 -0.43928 -0.131246
v 6.96019 7.54641 -29.2283
vn 0.84657 -0.492372 -0.20221
v 6.94159 7.52852 -29.2538
vn 0.796276 -0.540723 -0.271227
v 6.92015 7.51256 -29.2783
vn 0.738313 -0.583866 -0.337631
v 6.89608 7.49869 -29.3017
vn 0.67324 -0.621386 -0.400784
v 6.86962 7.48702 -29.3236
vn 0.601683 -0.652922 -0.460077
v 6.84101 7.47768 -29.3439
vn 0.524332 -0.678169 -0.514939
v 6.81053 7.47076 -29.3624
vn 0.441931 -0.696886 -0.564843
v 6.77847 7.46632 -29.3788
vn 0.355274 -0.708891 -0.609306
v 6.74516 7.46441 -29.3931
vn 0.265196 -0.714069 -0.647902
v 6.71089 7.46503 -29.4051
vn 0.172563 -0.712371 -0.680257
v 6.67602 7.4682 -29.4146
vn 0.0782689 -0.703811 -0.706062
v 6.64086 7.47387 -29.4216
vn -0.0167791 -0.688474 -0.725067
v 6.60576 7.482 -29.4261
vn -0.111666 -0.666506 -0.737089
v 6.57107 7.4925 -29.4279
vn -0.205477 -0.63812 -0.742012
v 6.5371 7.50527 -29.4271
vn -0.297309 -0.603588 -0.73979
v 6.50419 7.52019 -29.4236
vn -0.386278 -0.563243 -0.730443
v 6.47266 7.53712 -29.4176
vn -0.471527 -0.517474 -0.714061
v 6.44281 7.55589 -29.409
vn -0.552234 -0.466721 -0.690803
v 6.41492 7.57633 -29.3979
vn -0.627624 -0.411474 -0.660891
v 6.38927 7.59823 -29.3845
vn -0.696969 -0.352264 -0.624615
v 6.36611 7.62138 -29.3688
vn -0.759602 -0.289661 -0.582324
v 6.34565 7.64557 -29.3511
vn -0.81492 -0.224269 -0.534425
v 6.32809 7.67056 -29.3315
vn -0.862389 -0.156716 -0.481378
v 6.3136 7.6961 -29.3102
vn -0.901553 -0.087655 -0.423696
v 6.30233 7.72196 -29.2873
vn -0.932035 -0.0177495 -0.361933
v 6.29437 7.74788 -29.2632
vn -0.953541 0.052327 -0.296685
v 6.28982 7.77361 -29.238
vn -0.965863 0.1219 -0.22858
v 6.2887 7.79891 -29.212
vn -0.968884 0.190298 -0.158273
v 6.29103 7.82353 -29.1854
vn -0.962574 0.256864 -0.0864416
v 6.29679 7.84724 -29.1586
vn -0.946994 0.320956 -0.013778
v 6.30593 7.8698 -29.1316
vn -0.922294 0.381957 0.0590182
v 6.31835 7.891 -29.1049
vn -0.888711 0.43928 0.131246
v 6.33394 7.91064 -29.0787
vn -0.84657 0.492372 0.20221
v 6.35254 7.92852 -29.0531
vn -0.796276 0.540723 0.271227
v 6.37398 7.94448 -29.0286
vn -0.738313 0.583866 0.337631
v 6.39805 7.95836 -29.0052
vn -0.67324 0.621386 0.400784
v 6.42452 7.97002 -28.9833
vn -0.601683 0.652922 0.460077
v 6.45313 7.97936 -28.963
vn -0.524332 0.678169 0.514939
v 6.48361 7.98629 -28.9445
vn -0.441931 0.696886 0.564843
v 6.51566 7.99073 -28.9281
vn -0.355274 0.708891 0.609306
v 6.54898 7.99264 -28.9138
vn -0.265196 0.714069 0.647902
v 6.58324 7.99201 -28.9018
vn -0.172563 0.712371 0.680257
v 6.61812 7.98885 -28.8923
vn -0.0782689 0.703811 0.706062
v 6.08361 6.25765 -27.4727
vn -0.0231116 0.567098 0.823326
v 6.11889 6.24971 -27.4684
vn 0.0719669 0.545714 0.834875
v 6.15391 6.23983 -27.4671
vn 0.166352 0.519076 0.838384
v 6.18834 6.22809 -27.4688
vn 0.259136 0.487438 0.833818
v 6.22184 6.2146 -27.4734
vn 0.349424 0.451106 0.821223
v 6.2541 6.19951 -27.4811
vn 0.436346 0.410429 0.800718
v 6.28479 6.18295 -27.4915
vn 0.519067 0.3658 0.772502
v 6.31364 6.16508 -27.5048
vn 0.596788 0.317648 0.736847
v 6.34034 6.14608 -27.5206
vn 0.668762 0.266437 0.694095
v 6.36466 6.12612 -27.539
vn 0.734296 0.21266 0.644659
v 6.38635 6.10541 -27.5596
vn 0.792758 0.156835 0.589015
v 6.40522 6.08413 -27.5824
vn 0.843585 0.0994999 0.527697
v 6.42106 6.0625 -27.607
vn 0.886288 0.0412062 0.461298
v 6.43374 6.04072 -27.6333
vn 0.920455 -0.0174843 0.390457
v 6.44313 6.01901 -27.661
vn 0.945758 -0.0760064 0.315855
v 6.44914 5.99756 -27.6898
vn 0.961953 -0.133797 0.238211
v 6.45171 5.97659 -27.7195
vn 0.968884 -0.190298 0.158273
v 6.45082 5.95631 -27.7497
vn 0.966484 -0.244967 0.0768105
v 6.44648 5.9369 -27.7802
vn 0.954776 -0.297277 -0.00539142
v 6.43872 5.91855 -27.8107
vn 0.933873 -0.346724 -0.0875414
v 6.42763 5.90144 -27.8408
vn 0.903977 -0.392831 -0.168848
v 6.4133 5.88573 -27.8704
vn 0.865374 -0.435156 -0.248529
v 6.39588 5.87158 -27.8991
vn 0.818438 -0.47329 -0.325817
v 6.37554 5.85912 -27.9266
vn 0.763619 -0.506865 -0.399966
v 6.35247 5.84848 -27.9527
vn 0.701447 -0.53556 -0.470264
v 6.32689 5.83974 -27.9771
vn 0.632519 -0.559096 -0.536033
v 6.29906 5.83301 -27.9996
vn 0.5575 -0.577248 -0.596639
v 6.26923 5.82833 -28.0199
vn 0.477111 -0.589841 -0.6515
v 6.23769 5.82577 -28.038
vn 0.392128 -0.596754 -0.700086
v 6.20475 5.82534 -28.0535
vn 0.303369 -0.597919 -0.74193
v 6.17073 5.82704 -28.0664
vn 0.211687 -0.593326 -0.776629
v 6.13596 5.83087 -28.0765
vn 0.117968 -0.583019 -0.803848
v 6.10076 5.83677 -28.0837
vn 0.0231116 -0.567098 -0.823326
v 6.06548 5.84471 -28.088
vn -0.0719669 -0.545714 -0.834875
v 6.03045 5.85459 -28.0893
vn -0.166352 -0.519076 -0.838384
v 5.99602 5.86633 -28.0876
vn -0.259136 -0.487438 -0.833818
v 5.96252 5.87982 -28.0829
vn -0.349424 -0.451106 -0.821223
v 5.93026 5.89491 -28.0753
vn -0.436346 -0.410429 -0.800718
v 5.89957 5.91147 -28.0648
vn -0.519067 -0.3658 -0.772502
v 5.87073 5.92934 -28.0516
vn -0.596788 -0.317648 -0.736847
v 5.84402 5.94834 -28.0357
vn -0.668762 -0.266437 -0.694095
v 5.8197 5.9683 -28.0174
vn -0.734296 -0.21266 -0.644659
v 5.79801 5.98901 -27.9968
vn -0.792758 -0.156835 -0.589015
v 5.77915 6.01029 -27.974
vn -0.843585 -0.0994999 -0.527697
v 5.7633 6.03192 -27.9494
vn -0.886288 -0.0412062 -0.461298
v 5.75062 6.0537 -27.9231
vn -0.920455 0.0174843 -0.390457
v 5.74123 6.07541 -27.8954
vn -0.945758 0.0760064 -0.315855
v 5.73522 6.09686 -27.8666
vn -0.961953 0.133797 -0.238211
v 5.73265 6.11782 -27.8369
vn -0.968884 0.190298 -0.158273
v 5.73354 6.13811 -27.8067
vn -0.966484 0.244967 -0.0768105
v 5.73789 6.15752 -27.7762
vn -0.954776 0.297277 0.00539142
v 5.74564 6.17587 -27.7457
vn -0.933873 0.346724 0.0875414
v 5.75674 6.19298 -27.7155
vn -0.903977 0.392831 0.168848
v 5.77106 6.20869 -27.686
vn -0.865374 0.435156 0.248529
v 5.78848 6.22284 -27.6573
vn -0.818438 0.47329 0.325817
v 5.80882 6.2353 -27.6298
vn -0.763619 0.506865 0.399966
v 5.83189 6.24594 -27.6037
vn -0.701447 0.53556 0.470264
v 5.85747 6.25468 -27.5793
vn -0.632519 0.559096 0.536033
v 5.88531 6.26141 -27.5568
vn -0.5575 0.577248 0.596639
v 5.91514 6.26609 -27.5364
vn -0.477111 0.589841 0.6515
v 5.94667 6.26865 -27.5184
vn -0.392128 0.596754 0.700086
v 5.97961 6.26908 -27.5029
vn -0.303369 0.597919 0.74193
v 6.01363 6.26738 -27.49
vn -0.211687 0.593326 0.776629
v 6.04841 6.26355 -27.4799
vn -0.117968 0.583019 0.803848
v 5.57906 4.48976 -26.5097
vn -0.072127 0.394624 0.916007
v 5.61455 4.48211 -26.5055
vn 0.0231875 0.374072 0.92711
v 5.64995 4.47312 -26.5047
vn 0.118279 0.349916 0.929284
v 5.68492 4.46287 -26.5072
vn 0.212231 0.322391 0.922508
v 5.71914 4.45147 -26.5131
vn 0.304139 0.291761 0.906849
v 5.75226 4.43902 -26.5222
vn 0.393118 0.258322 0.882456
v 5.78398 4.42564 -26.5344
vn 0.478312 0.222394 0.849564
v 5.81398 4.41147 -26.5497
vn 0.558899 0.184325 0.80849
v 5.84198 4.39664 -26.5679
vn 0.634103 0.14448 0.759631
v 5.8677 4.38129 -26.5888
vn 0.703201 0.103244 0.703455
v 5.8909 4.36557 -26.6122
vn 0.765526 0.0610143 0.640505
v 5.91136 4.34963 -26.638
vn 0.820479 0.0181966 0.571387
v 5.92887 4.33362 -26.6657
vn 0.86753 -0.0247964 0.496766
v 5.94328 4.31771 -26.6953
vn 0.906227 -0.0675506 0.41736
v 5.95444 4.30203 -26.7264
vn 0.936196 -0.109654 0.333936
v 5.96224 4.28675 -26.7586
vn 0.957149 -0.150702 0.247295
v 5.96661 4.27201 -26.7918
vn 0.968884 -0.190298 0.158273
v 5.9675 4.25795 -26.8255
vn 0.971288 -0.228062 0.0677262
v 5.96491 4.24471 -26.8594
vn 0.964339 -0.263629 -0.0234726
v 5.95887 4.23241 -26.8933
vn 0.948102 -0.296657 -0.114445
v 5.94943 4.22118 -26.9267
vn 0.922734 -0.326829 -0.204316
v 5.93667 4.21112 -26.9595
vn 0.88848 -0.353853 -0.292219
v 5.92074 4.20233 -26.9911
vn 0.845669 -0.377469 -0.377307
v 5.90177 4.19489 -27.0215
vn 0.794714 -0.397449 -0.458762
v 5.87995 4.18888 -27.0501
vn 0.736106 -0.413603 -0.535799
v 5.85549 4.18435 -27.0769
vn 0.670408 -0.425773 -0.607676
v 5.82863 4.18134 -27.1015
vn 0.598255 -0.433842 -0.673701
v 5.79962 4.1799 -27.1236
vn 0.520339 -0.437733 -0.733237
v 5.76875 4.18002 -27.1432
vn 0.437413 -0.437409 -0.785712
v 5.73631 4.18171 -27.1599
vn 0.350273 -0.432873 -0.83062
v 5.70262 4.18495 -27.1736
vn 0.259761 -0.424167 -0.867529
v 5.66799 4.18971 -27.1843
vn 0.166747 -0.411377 -0.896083
v 5.63277 4.19594 -27.1917
vn 0.072127 -0.394624 -0.916007
v 5.59728 4.2036 -27.1958
vn -0.0231875 -0.374072 -0.92711
v 5.56188 4.21259 -27.1966
vn -0.118279 -0.349916 -0.929284
v 5.52691 4.22283 -27.1941
vn -0.212231 -0.322391 -0.922508
v 5.49269 4.23424 -27.1883
vn -0.304139 -0.291761 -0.906849
v 5.45957 4.24669 -27.1792
vn -0.393118 -0.258322 -0.882456
v 5.42785 4.26006 -27.1669
vn -0.478312 -0.222394 -0.849564
v 5.39785 4.27423 -27.1517
vn -0.558899 -0.184325 -0.80849
v 5.36985 4.28907 -27.1335
vn -0.634103 -0.14448 -0.759631
v 5.34413 4.30442 -27.1126
vn -0.703201 -0.103244 -0.703455
v 5.32093 4.32014 -27.0891
vn -0.765526 -0.0610143 -0.640505
v 5.30047 4.33608 -27.0634
vn -0.820479 -0.0181966 -0.571387
v 5.28296 4.35208 -27.0356
vn -0.86753 0.0247964 -0.496766
v 5.26855 4.368 -27.006
vn -0.906227 0.0675506 -0.41736
v 5.25739 4.38367 -26.975
vn -0.936196 0.109654 -0.333936
v 5.24959 4.39896 -26.9427
vn -0.957149 0.150702 -0.247295
v 5.24522 4.4137 -26.9096
vn -0.968884 0.190298 -0.158273
v 5.24433 4.42775 -26.8759
vn -0.971288 0.228062 -0.0677262
v 5.24692 4.441 -26.8419
vn -0.964339 0.263629 0.0234726
v 5.25296 4.45329 -26.8081
vn -0.948102 0.296657 0.114445
v 5.2624 4.46452 -26.7746
vn -0.922734 0.326829 0.204316
v 5.27516 4.47458 -26.7419
vn -0.88848 0.353853 0.292219
v 5.29109 4.48337 -26.7102
vn -0.845669 0.377469 0.377307
v 5.31006 4.49081 -26.6799
vn -0.794714 0.397449 0.458762
v 5.33188 4.49683 -26.6512
vn -0.736106 0.413603 0.535799
v 5.35634 4.50136 -26.6245
vn -0.670408 0.425773 0.607676
v 5.3832 4.50436 -26.5999
vn -0.598255 0.433842 0.673701
v 5.41221 4.50581 -26.5777
vn -0.520339 0.437733 0.733237
v 5.44308 4.50569 -26.5582
vn -0.437413 0.437409 0.785712
v 5.47552 4.504 -26.5415
vn -0.350273 0.432873 0.83062
v 5.50921 4.50076 -26.5277
vn -0.259761 0.424167 0.867529
v 5.54384 4.496 -26.5171
vn -0.166747 0.411377 0.896083
v 5.14124 2.67951 -26.006
vn -0.125924 0.17153 0.977098
v 5.17693 2.67224 -26.002
vn -0.0303508 0.152051 0.987906
v 5.21274 2.66442 -26.0015
vn 0.0655151 0.131109 0.989201
v 5.2483 2.65613 -26.0046
vn 0.16075 0.108903 0.980969
v 5.28329 2.64744 -26.0112
vn 0.254437 0.0856489 0.963289
v 5.31737 2.63845 -26.0212
vn 0.345673 0.0615699 0.936333
v 5.3502 2.62923 -26.0347
vn 0.433581 0.0368978 0.900359
v 5.38147 2.61989 -26.0513
vn 0.517313 0.0118705 0.855714
v 5.41088 2.6105 -26.0711
vn 0.596062 -0.0132712 0.802828
v 5.43815 2.60115 -26.0937
vn 0.669072 -0.0382851 0.742211
v 5.46301 2.59195 -26.119
vn 0.735638 -0.0629303 0.674446
v 5.48522 2.58297 -26.1468
vn 0.795119 -0.0869694 0.600185
v 5.50458 2.57431 -26.1767
vn 0.846943 -0.110171 0.520144
v 5.52089 2.56604 -26.2084
vn 0.89061 -0.132312 0.435094
v 5.53399 2.55824 -26.2418
vn 0.925701 -0.153178 0.345854
v 5.54377 2.551 -26.2763
vn 0.951876 -0.172569 0.253283
v 5.55012 2.54438 -26.3118
vn 0.968884 -0.190298 0.158273
v 5.55299 2.53844 -26.3479
vn 0.976561 -0.206195 0.0617383
v 5.55234 2.53325 -26.3841
vn 0.974834 -0.220105 -0.0353908
v 5.54819 2.52885 -26.4203
vn 0.963718 -0.231896 -0.132179
v 5.54057 2.52528 -26.456
vn 0.943321 -0.241454 -0.227694
v 5.52956 2.52257 -26.4908
vn 0.91384 -0.248687 -0.321017
v 5.51526 2.52077 -26.5245
vn 0.875558 -0.253524 -0.411248
v 5.49782 2.51987 -26.5567
vn 0.828843 -0.25592 -0.497518
v 5.47739 2.5199 -26.5872
vn 0.774147 -0.255851 -0.578997
v 5.45418 2.52085 -26.6155
vn 0.711994 -0.253318 -0.6549
v 5.42841 2.5227 -26.6415
vn 0.642985 -0.248346 -0.724496
v 5.40032 2.52545 -26.6649
vn 0.567784 -0.240982 -0.787114
v 5.37019 2.52907 -26.6854
vn 0.487115 -0.231297 -0.842153
v 5.33831 2.53352 -26.703
vn 0.401754 -0.219384 -0.88908
v 5.30499 2.53876 -26.7173
vn 0.312525 -0.205359 -0.927446
v 5.27054 2.54473 -26.7283
vn 0.220285 -0.189356 -0.95688
v 5.2353 2.55139 -26.7358
vn 0.125924 -0.17153 -0.977098
v 5.1996 2.55867 -26.7399
vn 0.0303508 -0.152051 -0.987906
v 5.1638 2.56649 -26.7404
vn -0.0655151 -0.131109 -0.989201
v 5.12823 2.57478 -26.7373
vn -0.16075 -0.108903 -0.980969
v 5.09324 2.58347 -26.7307
vn -0.254437 -0.0856489 -0.963289
v 5.05917 2.59246 -26.7206
vn -0.345673 -0.0615699 -0.936333
v 5.02634 2.60167 -26.7072
vn -0.433581 -0.0368978 -0.900359
v 4.99507 2.61102 -26.6905
vn -0.517313 -0.0118705 -0.855714
v 4.96565 2.62041 -26.6708
vn -0.596062 0.0132712 -0.802828
v 4.93839 2.62975 -26.6481
vn -0.669072 0.0382851 -0.742211
v 4.91353 2.63896 -26.6228
vn -0.735638 0.0629303 -0.674446
v 4.89131 2.64793 -26.5951
vn -0.795119 0.0869694 -0.600185
v 4.87196 2.6566 -26.5652
vn -0.846943 0.110171 -0.520144
v 4.85565 2.66487 -26.5334
vn -0.89061 0.132312 -0.435094
v 4.84254 2.67266 -26.5001
vn -0.925701 0.153178 -0.345854
v 4.83277 2.6799 -26.4655
vn -0.951876 0.172569 -0.253283
v 4.82642 2.68652 -26.43
vn -0.968884 0.190298 -0.158273
v 4.82355 2.69246 -26.394
vn -0.976561 0.206195 -0.0617383
v 4.82419 2.69766 -26.3577
vn -0.974834 0.220105 0.0353908
v 4.82835 2.70206 -26.3216
vn -0.963718 0.231896 0.132179
v 4.83596 2.70563 -26.2859
vn -0.943321 0.241454 0.227694
v 4.84697 2.70833 -26.251
vn -0.91384 0.248687 0.321017
v 4.86127 2.71014 -26.2173
vn -0.875558 0.253524 0.411248
v 4.87872 2.71103 -26.1851
vn -0.828843 0.25592 0.497518
v 4.89914 2.71101 -26.1547
vn -0.774147 0.255851 0.578997
v 4.92236 2.71006 -26.1263
vn -0.711994 0.253318 0.6549
v 4.94813 2.7082 -26.1003
vn -0.642985 0.248346 0.724496
v 4.97622 2.70545 -26.077
vn -0.567784 0.240982 0.787114
v 5.00634 2.70184 -26.0564
vn -0.487115 0.231297 0.842153
v 5.03822 2.69739 -26.0389
vn -0.401754 0.219384 0.88908
v 5.07155 2.69215 -26.0246
vn -0.312525 0.205359 0.927446
v 5.106 2.68617 -26.0136
vn -0.220285 0.189356 0.95688
v 4.77359 0.836679 -25.9712
vn -0.175205 -0.0756153 0.981624
v 4.80949 0.829827 -25.9671
vn -0.0793945 -0.0939037 0.99241
v 4.84568 0.823313 -25.9667
vn 0.017181 -0.111288 0.99364
v 4.8818 0.817202 -25.9698
vn 0.113591 -0.1276 0.9853
v 4.91751 0.81155 -25.9765
vn 0.208907 -0.142683 0.967471
v 4.95247 0.806414 -25.9866
vn 0.302211 -0.156393 0.940324
v 4.98634 0.801842 -26.0002
vn 0.392605 -0.168596 0.904122
v 5.01879 0.797878 -26.017
vn 0.479218 -0.179175 0.859213
v 5.04951 0.79456 -26.0369
vn 0.561216 -0.188029 0.806029
v 5.07821 0.791922 -26.0598
vn 0.637808 -0.195072 0.745082
v 5.1046 0.789987 -26.0853
vn 0.708259 -0.200237 0.67696
v 5.12844 0.788774 -26.1133
vn 0.771888 -0.203473 0.602318
v 5.1495 0.788296 -26.1434
vn 0.828084 -0.204749 0.521876
v 5.16757 0.788556 -26.1754
vn 0.876305 -0.204054 0.436408
v 5.18247 0.789553 -26.209
vn 0.916086 -0.201393 0.346737
v 5.19407 0.791277 -26.2439
vn 0.947045 -0.196793 0.253727
v 5.20225 0.79371 -26.2796
vn 0.968884 -0.190298 0.158273
v 5.20694 0.796831 -26.316
vn 0.981392 -0.18197 0.0612947
v 5.20808 0.800607 -26.3525
vn 0.984448 -0.17189 -0.0362737
v 5.20568 0.805004 -26.389
vn 0.978024 -0.160154 -0.133493
v 5.19974 0.809979 -26.4249
vn 0.96218 -0.146876 -0.229426
v 5.19033 0.815484 -26.46
vn 0.937071 -0.132183 -0.32315
v 5.17754 0.821466 -26.494
vn 0.902937 -0.116218 -0.413762
v 5.1615 0.827867 -26.5264
vn 0.860107 -0.0991326 -0.500389
v 5.14235 0.834626 -26.5571
vn 0.808993 -0.081093 -0.582197
v 5.12028 0.841678 -26.5856
vn 0.750089 -0.0622724 -0.658398
v 5.0955 0.848954 -26.6118
vn 0.683961 -0.0428521 -0.728259
v 5.06826 0.856385 -26.6353
vn 0.611246 -0.0230192 -0.791106
v 5.03881 0.863899 -26.656
vn 0.532645 -0.00296449 -0.846334
v 5.00743 0.871424 -26.6737
vn 0.448913 0.0171187 -0.893411
v 4.97444 0.878886 -26.6881
vn 0.360859 0.0370371 -0.931885
v 4.94015 0.886216 -26.6991
vn 0.269329 0.0565988 -0.961384
v 4.90488 0.893341 -26.7067
vn 0.175205 0.0756153 -0.981624
v 4.86899 0.900193 -26.7108
vn 0.0793945 0.0939037 -0.99241
v 4.8328 0.906706 -26.7112
vn -0.017181 0.111288 -0.99364
v 4.79668 0.912818 -26.7081
vn -0.113591 0.1276 -0.9853
v 4.76097 0.918469 -26.7014
vn -0.208907 0.142683 -0.967471
v 4.72601 0.923605 -26.6913
vn -0.302211 0.156393 -0.940324
v 4.69214 0.928178 -26.6777
vn -0.392605 0.168596 -0.904122
v 4.65969 0.932141 -26.6609
vn -0.479218 0.179175 -0.859213
v 4.62897 0.935459 -26.6409
vn -0.561216 0.188029 -0.806029
v 4.60027 0.938098 -26.6181
vn -0.637808 0.195072 -0.745082
v 4.57387 0.940033 -26.5926
vn -0.708259 0.200237 -0.67696
v 4.55003 0.941245 -26.5646
vn -0.771888 0.203473 -0.602318
v 4.52898 0.941723 -26.5345
vn -0.828084 0.204749 -0.521876
v 4.51091 0.941463 -26.5025
vn -0.876305 0.204054 -0.436408
v 4.49601 0.940466 -26.4689
vn -0.916086 0.201393 -0.346737
v 4.48441 0.938742 -26.434
vn -0.947045 0.196793 -0.253727
v 4.47623 0.936309 -26.3982
vn -0.968884 0.190298 -0.158273
v 4.47154 0.933189 -26.3619
vn -0.981392 0.18197 -0.0612947
v 4.47039 0.929412 -26.3254
vn -0.984448 0.17189 0.0362737
v 4.4728 0.925015 -26.2889
vn -0.978024 0.160154 0.133493
v 4.47874 0.92004 -26.253
vn -0.96218 0.146876 0.229426
v 4.48815 0.914535 -26.2179
vn -0.937071 0.132183 0.32315
v 4.50093 0.908553 -26.1839
vn -0.902937 0.116218 0.413762
v 4.51698 0.902152 -26.1515
vn -0.860107 0.0991326 0.500389
v 4.53613 0.895393 -26.1208
vn -0.808993 0.081093 0.582197
v 4.5582 0.888341 -26.0923
vn -0.750089 0.0622724 0.658398
v 4.58298 0.881065 -26.0661
vn -0.683961 0.0428521 0.728259
v 4.61022 0.873634 -26.0425
vn -0.611246 0.0230192 0.791106
v 4.63967 0.86612 -26.0218
vn -0.532645 0.00296449 0.846334
v 4.67104 0.858596 -26.0042
vn -0.448913 -0.0171187 0.893411
v 4.70404 0.851133 -25.9898
vn -0.360859 -0.0370371 0.931885
v 4.73833 0.843804 -25.9787
vn -0.269329 -0.0565988 0.961384
v 4.47936 -1.02265 -26.4055
vn -0.211418 -0.303759 0.928995
v 4.51544 -1.02911 -26.4014
vn -0.115433 -0.320949 0.940036
v 4.55194 -1.03441 -26.4006
vn -0.0183358 -0.335048 0.942023
v 4.5885 -1.0385 -26.4033
vn 0.0789378 -0.34592 0.934937
v 4.62478 -1.04133 -26.4094
vn 0.175451 -0.353461 0.918848
v 4.66042 -1.04289 -26.4187
vn 0.270275 -0.357598 0.89391
v 4.69508 -1.04315 -26.4313
vn 0.362496 -0.358291 0.860363
v 4.72843 -1.04211 -26.4471
vn 0.451225 -0.355533 0.81853
v 4.76015 -1.03979 -26.4657
vn 0.535609 -0.349352 0.768815
v 4.78993 -1.0362 -26.4872
vn 0.614835 -0.339805 0.711695
v 4.81748 -1.03138 -26.5113
vn 0.68814 -0.326987 0.647721
v 4.84254 -1.02538 -26.5377
vn 0.754818 -0.311019 0.57751
v 4.86487 -1.01825 -26.5661
vn 0.814226 -0.292056 0.501736
v 4.88425 -1.01007 -26.5964
vn 0.865793 -0.270281 0.421131
v 4.9005 -1.0009 -26.6283
vn 0.909022 -0.245902 0.33647
v 4.91346 -0.990851 -26.6613
vn 0.943496 -0.219155 0.248568
v 4.923 -0.980004 -26.6952
vn 0.968884 -0.190298 0.158273
v 4.92904 -0.968469 -26.7297
vn 0.984941 -0.159608 0.0664531
v 4.93151 -0.956355 -26.7645
vn 0.991513 -0.127381 -0.0260065
v 4.93039 -0.943781 -26.7992
vn 0.988536 -0.0939273 -0.118216
v 4.92569 -0.930867 -26.8334
vn 0.976038 -0.0595689 -0.209286
v 4.91746 -0.917737 -26.8669
vn 0.954141 -0.0246368 -0.298341
v 4.90578 -0.904518 -26.8993
vn 0.923055 0.0105326 -0.384523
v 4.89075 -0.891337 -26.9303
vn 0.88308 0.0456005 -0.467002
v 4.87253 -0.878321 -26.9596
vn 0.8346 0.0802293 -0.544983
v 4.85129 -0.865595 -26.9869
vn 0.778082 0.114085 -0.617716
v 4.82723 -0.853283 -27.012
vn 0.714071 0.146843 -0.6845
v 4.80058 -0.841502 -27.0346
vn 0.643183 0.178186 -0.744692
v 4.77161 -0.830366 -27.0546
vn 0.566101 0.207813 -0.797712
v 4.74059 -0.819982 -27.0716
vn 0.483567 0.235439 -0.843049
v 4.70782 -0.810451 -27.0856
vn 0.396376 0.260798 -0.880268
v 4.67361 -0.801863 -27.0964
vn 0.305367 0.283644 -0.909009
v 4.6383 -0.794303 -27.1039
vn 0.211418 0.303759 -0.928995
v 4.60222 -0.787841 -27.1081
vn 0.115433 0.320949 -0.940036
v 4.56572 -0.782542 -27.1088
vn 0.0183358 0.335048 -0.942023
v 4.52916 -0.778456 -27.1061
vn -0.0789378 0.34592 -0.934937
v 4.49288 -0.775621 -27.1001
vn -0.175451 0.353461 -0.918848
v 4.45724 -0.774066 -27.0907
vn -0.270275 0.357598 -0.89391
v 4.42258 -0.773806 -27.0781
vn -0.362496 0.358291 -0.860363
v 4.38923 -0.774842 -27.0624
vn -0.451225 0.355533 -0.81853
v 4.35751 -0.777166 -27.0437
vn -0.535609 0.349352 -0.768815
v 4.32773 -0.780754 -27.0222
vn -0.614835 0.339805 -0.711695
v 4.30018 -0.785572 -26.9982
vn -0.68814 0.326987 -0.647721
v 4.27512 -0.791574 -26.9718
vn -0.754818 0.311019 -0.57751
v 4.25279 -0.798701 -26.9433
vn -0.814226 0.292056 -0.501736
v 4.2334 -0.806886 -26.913
vn -0.865793 0.270281 -0.421131
v 4.21716 -0.816049 -26.8812
vn -0.909022 0.245902 -0.33647
v 4.2042 -0.826103 -26.8482
vn -0.943496 0.219155 -0.248568
v 4.19465 -0.836949 -26.8142
vn -0.968884 0.190298 -0.158273
v 4.18862 -0.848485 -26.7797
vn -0.984941 0.159608 -0.0664531
v 4.18615 -0.860598 -26.7449
vn -0.991513 0.127381 0.0260065
v 4.18727 -0.873172 -26.7103
vn -0.988536 0.0939273 0.118216
v 4.19197 -0.886086 -26.6761
vn -0.976038 0.0595689 0.209286
v 4.2002 -0.899216 -26.6426
vn -0.954141 0.0246368 0.298341
v 4.21188 -0.912435 -26.6102
vn -0.923055 -0.0105326 0.384523
v 4.22691 -0.925616 -26.5792
vn -0.88308 -0.0456005 0.467002
v 4.24513 -0.938632 -26.5499
vn -0.8346 -0.0802293 0.544983
v 4.26637 -0.951358 -26.5225
vn -0.778082 -0.114085 0.617716
v 4.29043 -0.96367 -26.4974
vn -0.714071 -0.146843 0.6845
v 4.31708 -0.975451 -26.4748
vn -0.643183 -0.178186 0.744692
v 4.34605 -0.986587 -26.4549
vn -0.566101 -0.207813 0.797712
v 4.37707 -0.996971 -26.4378
vn -0.483567 -0.235439 0.843049
v 4.40984 -1.0065 -26.4239
vn -0.396376 -0.260798 0.880268
v 4.44405 -1.01509 -26.4131
vn -0.305367 -0.283644 0.909009
v 4.25922 -2.88763 -27.3003
vn -0.232889 -0.484338 0.843314
v 4.29546 -2.89379 -27.296
vn -0.1368 -0.500659 0.854767
v 4.33218 -2.89812 -27.2947
vn -0.0393941 -0.512157 0.857988
v 4.36906 -2.9006 -27.2966
vn 0.0583914 -0.518723 0.852946
v 4.40572 -2.90119 -27.3016
vn 0.155615 -0.520294 0.839689
v 4.44181 -2.8999 -27.3097
vn 0.251339 -0.516854 0.818346
v 4.47699 -2.89672 -27.3207
vn 0.344643 -0.508437 0.789122
v 4.51092 -2.8917 -27.3346
vn 0.434628 -0.495122 0.752298
v 4.54328 -2.88488 -27.3512
vn 0.520427 -0.47704 0.708229
v 4.57374 -2.87633 -27.3704
vn 0.601214 -0.454363 0.657339
v 4.60202 -2.86613 -27.392
vn 0.676212 -0.427311 0.600119
v 4.62784 -2.85438 -27.4157
vn 0.744696 -0.396143 0.53712
v 4.65096 -2.84119 -27.4414
vn 0.806009 -0.361161 0.468947
v 4.67115 -2.82669 -27.4689
vn 0.85956 -0.3227 0.396259
v 4.68822 -2.81101 -27.4977
vn 0.904833 -0.281131 0.319754
v 4.70201 -2.79432 -27.5277
vn 0.941392 -0.236855 0.24017
v 4.71237 -2.77676 -27.5586
vn 0.968884 -0.190298 0.158273
v 4.71922 -2.75852 -27.59
vn 0.987046 -0.141908 0.0748513
v 4.72249 -2.73975 -27.6218
vn 0.995702 -0.0921519 -0.00929091
v 4.72213 -2.72066 -27.6535
vn 0.994768 -0.041508 -0.0933437
v 4.71817 -2.70141 -27.6848
vn 0.984255 0.00953563 -0.176498
v 4.71063 -2.6822 -27.7155
vn 0.964263 0.0604875 -0.257952
v 4.69959 -2.66321 -27.7453
vn 0.934984 0.110857 -0.336921
v 4.68516 -2.64462 -27.7739
vn 0.896701 0.160158 -0.412647
v 4.66746 -2.62661 -27.8009
vn 0.849782 0.207918 -0.484398
v 4.64669 -2.60935 -27.8262
vn 0.794679 0.253675 -0.551484
v 4.62302 -2.59302 -27.8495
vn 0.731923 0.296989 -0.613259
v 4.5967 -2.57777 -27.8706
vn 0.662118 0.337442 -0.669128
v 4.56798 -2.56374 -27.8892
vn 0.585937 0.374646 -0.718553
v 4.53712 -2.55107 -27.9052
vn 0.504113 0.408242 -0.761057
v 4.50444 -2.53989 -27.9185
vn 0.417434 0.437906 -0.796233
v 4.47024 -2.53029 -27.9289
vn 0.326735 0.463354 -0.82374
v 4.43485 -2.52238 -27.9363
vn 0.232889 0.484338 -0.843314
v 4.39862 -2.51622 -27.9406
vn 0.1368 0.500659 -0.854767
v 4.36189 -2.51189 -27.9418
vn 0.0393941 0.512157 -0.857988
v 4.32502 -2.50941 -27.9399
vn -0.0583914 0.518723 -0.852946
v 4.28836 -2.50882 -27.9349
vn -0.155615 0.520294 -0.839689
v 4.25227 -2.51012 -27.9268
vn -0.251339 0.516854 -0.818346
v 4.21708 -2.51329 -27.9158
vn -0.344643 0.508437 -0.789122
v 4.18315 -2.51831 -27.9019
vn -0.434628 0.495122 -0.752298
v 4.1508 -2.52513 -27.8853
vn -0.520427 0.47704 -0.708229
v 4.12034 -2.53368 -27.8661
vn -0.601214 0.454363 -0.657339
v 4.09206 -2.54388 -27.8446
vn -0.676212 0.427311 -0.600119
v 4.06624 -2.55563 -27.8208
vn -0.744696 0.396143 -0.53712
v 4.04312 -2.56882 -27.7951
vn -0.806009 0.361161 -0.468947
v 4.02293 -2.58333 -27.7677
vn -0.85956 0.3227 -0.396259
v 4.00585 -2.599 -27.7388
vn -0.904833 0.281131 -0.319754
v 3.99207 -2.6157 -27.7088
vn -0.941392 0.236855 -0.24017
v 3.9817 -2.63325 -27.6779
vn -0.968884 0.190298 -0.158273
v 3.97485 -2.6515 -27.6465
vn -0.987046 0.141908 -0.0748513
v 3.97159 -2.67026 -27.6148
vn -0.995702 0.0921519 0.00929091
v 3.97194 -2.68935 -27.5831
vn -0.994768 0.041508 0.0933437
v 3.97591 -2.7086 -27.5517
vn -0.984255 -0.00953563 0.176498
v 3.98345 -2.72781 -27.521
vn -0.964263 -0.0604875 0.257952
v 3.99449 -2.74681 -27.4912
vn -0.934984 -0.110857 0.336921
v 4.00892 -2.7654 -27.4627
vn -0.896701 -0.160158 0.412647
v 4.02661 -2.78341 -27.4356
vn -0.849782 -0.207918 0.484398
v 4.04739 -2.80066 -27.4103
vn -0.794679 -0.253675 0.551484
v 4.07105 -2.81699 -27.387
vn -0.731923 -0.296989 0.613259
v 4.09737 -2.83224 -27.366
vn -0.662118 -0.337442 0.669128
v 4.1261 -2.84627 -27.3473
vn -0.585937 -0.374646 0.718553
v 4.15695 -2.85894 -27.3313
vn -0.504113 -0.408242 0.761057
v 4.18964 -2.87013 -27.318
vn -0.417434 -0.437906 0.796233
v 4.22384 -2.87972 -27.3077
vn -0.326735 -0.463354 0.82374
v 4.11184 -4.75707 -28.6457
vn -0.243295 -0.614634 0.750355
v 4.1482 -4.76301 -28.6412
vn -0.147156 -0.630326 0.762256
v 4.1851 -4.76665 -28.6395
vn -0.0496 -0.639949 0.766815
v 4.22219 -4.76796 -28.6406
vn 0.0484336 -0.643408 0.76399
v 4.25909 -4.76692 -28.6444
vn 0.146001 -0.640671 0.753806
v 4.29547 -4.76355 -28.651
vn 0.242162 -0.631764 0.736364
v 4.33096 -4.75788 -28.6603
vn 0.335991 -0.616773 0.711829
v 4.36523 -4.74997 -28.6722
vn 0.426584 -0.595842 0.68044
v 4.39794 -4.73988 -28.6865
vn 0.513069 -0.569173 0.642497
v 4.42879 -4.72772 -28.7032
vn 0.594613 -0.537022 0.598367
v 4.45747 -4.7136 -28.7221
vn 0.67043 -0.499699 0.548474
v 4.48371 -4.69766 -28.743
vn 0.739791 -0.457564 0.493299
v 4.50725 -4.68005 -28.7656
vn 0.802027 -0.411023 0.433374
v 4.52787 -4.66095 -28.7899
vn 0.856539 -0.360523 0.369274
v 4.54537 -4.64054 -28.8155
vn 0.902803 -0.306551 0.301619
v 4.55958 -4.619 -28.8422
vn 0.940372 -0.249626 0.231058
v 4.57036 -4.59656 -28.8697
vn 0.968884 -0.190298 0.158273
v 4.57762 -4.57343 -28.8978
vn 0.988066 -0.129137 0.0839629
v 4.58128 -4.54982 -28.9262
vn 0.997732 -0.0667326 0.00884449
v 4.5813 -4.52597 -28.9547
vn 0.997789 -0.0036853 -0.0663591
v 4.57768 -4.50211 -28.9829
vn 0.988237 0.0593975 -0.140924
v 4.57047 -4.47846 -29.0106
vn 0.969168 0.121908 -0.214131
v 4.55973 -4.45526 -29.0375
vn 0.940765 0.183245 -0.285276
v 4.54556 -4.43273 -29.0634
vn 0.903302 0.242817 -0.353674
v 4.52809 -4.41108 -29.0879
vn 0.85714 0.30005 -0.418666
v 4.50751 -4.39052 -29.111
vn 0.802723 0.354394 -0.479625
v 4.484 -4.37126 -29.1323
vn 0.740575 0.405325 -0.535966
v 4.4578 -4.35347 -29.1517
vn 0.671296 0.452352 -0.587145
v 4.42914 -4.33733 -29.1689
vn 0.595551 0.495023 -0.63267
v 4.39832 -4.32299 -29.1838
vn 0.514071 0.532927 -0.672101
v 4.36563 -4.31059 -29.1963
vn 0.42764 0.565698 -0.70506
v 4.33138 -4.30026 -29.2062
vn 0.337091 0.593021 -0.731229
v 4.2959 -4.29208 -29.2134
vn 0.243295 0.614634 -0.750355
v 4.25953 -4.28615 -29.2179
vn 0.147156 0.630326 -0.762256
v 4.22263 -4.28251 -29.2196
vn 0.0496 0.639949 -0.766815
v 4.18555 -4.2812 -29.2186
vn -0.0484336 0.643408 -0.76399
v 4.14864 -4.28223 -29.2147
vn -0.146001 0.640671 -0.753806
v 4.11226 -4.2856 -29.2081
vn -0.242162 0.631764 -0.736364
v 4.07677 -4.29127 -29.1988
vn -0.335991 0.616773 -0.711829
v 4.0425 -4.29919 -29.187
vn -0.426584 0.595842 -0.68044
v 4.00979 -4.30928 -29.1726
vn -0.513069 0.569173 -0.642497
v 3.97894 -4.32144 -29.1559
vn -0.594613 0.537022 -0.598367
v 3.95026 -4.33556 -29.137
vn -0.67043 0.499699 -0.548474
v 3.92403 -4.3515 -29.1162
vn -0.739791 0.457564 -0.493299
v 3.90049 -4.3691 -29.0935
vn -0.802027 0.411023 -0.433374
v 3.87987 -4.3882 -29.0693
vn -0.856539 0.360523 -0.369274
v 3.86237 -4.40862 -29.0437
vn -0.902803 0.306551 -0.301619
v 3.84815 -4.43015 -29.017
vn -0.940372 0.249626 -0.231058
v 3.83737 -4.45259 -28.9894
vn -0.968884 0.190298 -0.158273
v 3.83011 -4.47573 -28.9613
vn -0.988066 0.129137 -0.0839629
v 3.82646 -4.49934 -28.9329
vn -0.997732 0.0667326 -0.00884449
v 3.82644 -4.52318 -28.9045
vn -0.997789 0.0036853 0.0663591
v 3.83005 -4.54705 -28.8763
vn -0.988237 -0.0593975 0.140924
v 3.83726 -4.57069 -28.8486
vn -0.969168 -0.121908 0.214131
v 3.84801 -4.59389 -28.8217
vn -0.940765 -0.183245 0.285276
v 3.86218 -4.61643 -28.7958
vn -0.903302 -0.242817 0.353674
v 3.87964 -4.63808 -28.7712
vn -0.85714 -0.30005 0.418666
v 3.90022 -4.65863 -28.7481
vn -0.802723 -0.354394 0.479625
v 3.92373 -4.6779 -28.7268
vn -0.740575 -0.405325 0.535966
v 3.94994 -4.69569 -28.7075
vn -0.671296 -0.452352 0.587145
v 3.97859 -4.71183 -28.6903
vn -0.595551 -0.495023 0.63267
v 4.00941 -4.72617 -28.6753
vn -0.514071 -0.532927 0.672101
v 4.0421 -4.73856 -28.6629
vn -0.42764 -0.565698 0.70506
v 4.07636 -4.7489 -28.653
vn -0.337091 -0.593021 0.731229
v 4.03556 -6.63482 -30.4365
vn -0.247071 -0.705282 0.66448
v 4.07205 -6.64061 -30.4318
vn -0.150914 -0.720538 0.676794
v 4.10909 -6.64377 -30.4296
vn -0.0533034 -0.728855 0.68259
v 4.14632 -6.64426 -30.4299
vn 0.0448202 -0.730153 0.681812
v 4.18339 -6.64209 -30.4327
vn 0.142512 -0.724419 0.674468
v 4.21994 -6.63726 -30.438
vn 0.238832 -0.711709 0.660628
v 4.25562 -6.62984 -30.4456
vn 0.332851 -0.692144 0.640426
v 4.29008 -6.61989 -30.4556
vn 0.423665 -0.665914 0.614057
v 4.32299 -6.6075 -30.4679
vn 0.510399 -0.633271 0.581774
v 4.35404 -6.5928 -30.4823
vn 0.592217 -0.594529 0.543888
v 4.38292 -6.57592 -30.4986
vn 0.668333 -0.550061 0.500764
v 4.40936 -6.55704 -30.5168
vn 0.738011 -0.500296 0.452818
v 4.43311 -6.53633 -30.5367
vn 0.800582 -0.445712 0.40051
v 4.45392 -6.51398 -30.558
vn 0.855443 -0.386837 0.344346
v 4.47162 -6.49023 -30.5805
vn 0.902066 -0.324235 0.284865
v 4.48601 -6.46529 -30.6042
vn 0.940001 -0.258512 0.222641
v 4.49697 -6.43941 -30.6286
vn 0.968884 -0.190298 0.158273
v 4.50439 -6.41283 -30.6536
vn 0.988436 -0.120252 0.0923802
v 4.5082 -6.38581 -30.6789
vn 0.998468 -0.049048 0.025598
v 4.50836 -6.35861 -30.7044
vn 0.998885 0.0226285 -0.0414308
v 4.50486 -6.33149 -30.7297
vn 0.989682 0.0940871 -0.108061
v 4.49775 -6.30472 -30.7545
vn 0.970948 0.16464 -0.17365
v 4.4871 -6.27855 -30.7788
vn 0.942863 0.233606 -0.237566
v 4.47299 -6.25323 -30.8022
vn 0.905698 0.300324 -0.299195
v 4.45558 -6.22901 -30.8245
vn 0.85981 0.364148 -0.357943
v 4.43503 -6.20612 -30.8455
vn 0.805642 0.424466 -0.413243
v 4.41153 -6.18479 -30.8649
vn 0.743715 0.480696 -0.464563
v 4.38531 -6.16521 -30.8827
vn 0.674626 0.532297 -0.51141
v 4.35663 -6.14757 -30.8986
vn 0.599039 0.578772 -0.553331
v 4.32576 -6.13205 -30.9125
vn 0.517684 0.619672 -0.589923
v 4.29299 -6.11879 -30.9242
vn 0.431343 0.654605 -0.620835
v 4.25865 -6.10793 -30.9337
vn 0.340848 0.683233 -0.645767
v 4.22307 -6.09956 -30.9408
vn 0.247071 0.705282 -0.66448
v 4.18658 -6.09377 -30.9455
vn 0.150914 0.720538 -0.676794
v 4.14954 -6.09062 -30.9477
vn 0.0533034 0.728855 -0.68259
v 4.11231 -6.09013 -30.9474
vn -0.0448202 0.730153 -0.681812
v 4.07523 -6.0923 -30.9446
vn -0.142512 0.724419 -0.674468
v 4.03868 -6.09712 -30.9393
vn -0.238832 0.711709 -0.660628
v 4.00301 -6.10455 -30.9317
vn -0.332851 0.692144 -0.640426
v 3.96855 -6.1145 -30.9217
vn -0.423665 0.665914 -0.614057
v 3.93563 -6.12689 -30.9094
vn -0.510399 0.633271 -0.581774
v 3.90459 -6.14159 -30.895
vn -0.592217 0.594529 -0.543888
v 3.8757 -6.15846 -30.8787
vn -0.668333 0.550061 -0.500764
v 3.84926 -6.17735 -30.8605
vn -0.738011 0.500296 -0.452818
v 3.82552 -6.19806 -30.8406
vn -0.800582 0.445712 -0.40051
v 3.8047 -6.2204 -30.8193
vn -0.855443 0.386837 -0.344346
v 3.78701 -6.24416 -30.7967
vn -0.902066 0.324235 -0.284865
v 3.77262 -6.2691 -30.7731
vn -0.940001 0.258512 -0.222641
v 3.76166 -6.29498 -30.7487
vn -0.968884 0.190298 -0.158273
v 3.75424 -6.32156 -30.7237
vn -0.988436 0.120252 -0.0923802
v 3.75043 -6.34858 -30.6984
vn -0.998468 0.049048 -0.025598
v 3.75027 -6.37578 -30.6729
vn -0.998885 -0.0226285 0.0414308
v 3.75376 -6.4029 -30.6476
vn -0.989682 -0.0940871 0.108061
v 3.76087 -6.42967 -30.6228
vn -0.970948 -0.16464 0.17365
v 3.77153 -6.45584 -30.5985
vn -0.942863 -0.233606 0.237566
v 3.78563 -6.48116 -30.5751
vn -0.905698 -0.300324 0.299195
v 3.80305 -6.50538 -30.5528
vn -0.85981 -0.364148 0.357943
v 3.8236 -6.52826 -30.5318
vn -0.805642 -0.424466 0.413243
v 3.8471 -6.5496 -30.5124
vn -0.743715 -0.480696 0.464563
v 3.87332 -6.56918 -30.4946
vn -0.674626 -0.532297 0.51141
v 3.902 -6.58682 -30.4787
vn -0.599039 -0.578772 0.553331
v 3.93287 -6.60234 -30.4648
vn -0.517684 -0.619672 0.589923
v 3.96563 -6.61559 -30.4531
vn -0.431343 -0.654605 0.620835
v 3.99997 -6.62646 -30.4436
vn -0.340848 -0.683233 0.645767
v 4.02922 -8.5253 -32.6707
vn -0.247342 -0.768261 0.590421
v 4.06583 -8.53099 -32.6659
vn -0.151184 -0.783214 0.603091
v 4.10299 -8.53381 -32.6633
vn -0.05357 -0.790624 0.609954
v 4.14034 -8.53374 -32.6629
vn 0.0445602 -0.790421 0.610942
v 4.17753 -8.53076 -32.6648
vn 0.142261 -0.782604 0.606046
v 4.2142 -8.52492 -32.6689
vn 0.238592 -0.767252 0.595314
v 4.25 -8.51626 -32.6751
vn 0.332625 -0.74451 0.578849
v 4.28457 -8.50487 -32.6835
vn 0.423455 -0.714598 0.556809
v 4.3176 -8.49087 -32.694
vn 0.510207 -0.677804 0.529406
v 4.34875 -8.47438 -32.7063
vn 0.592045 -0.634482 0.496906
v 4.37773 -8.45556 -32.7205
vn 0.668182 -0.58505 0.459619
v 4.40426 -8.4346 -32.7364
vn 0.737883 -0.529984 0.417907
v 4.42809 -8.41169 -32.7538
vn 0.800478 -0.469813 0.372169
v 4.44899 -8.38707 -32.7726
vn 0.855365 -0.405118 0.322848
v 4.46674 -8.36095 -32.7925
vn 0.902013 -0.336522 0.270417
v 4.48119 -8.33361 -32.8135
vn 0.939975 -0.264685 0.215382
v 4.4922 -8.30529 -32.8352
vn 0.968884 -0.190298 0.158273
v 4.49965 -8.27628 -32.8576
vn 0.988462 -0.114079 0.0996392
v 4.50348 -8.24685 -32.8802
vn 0.998521 -0.0367614 0.0400462
v 4.50365 -8.21728 -32.9031
vn 0.998964 0.0409104 -0.0199326
v 4.50015 -8.18786 -32.9258
vn 0.989786 0.118188 -0.0797194
v 4.49303 -8.15888 -32.9483
vn 0.971076 0.194328 -0.138738
v 4.48235 -8.13061 -32.9703
vn 0.943014 0.268596 -0.196421
v 4.46821 -8.10332 -32.9915
vn 0.90587 0.340277 -0.252213
v 4.45075 -8.07728 -33.0118
vn 0.860002 0.408681 -0.305575
v 4.43014 -8.05274 -33.031
vn 0.805852 0.47315 -0.355994
v 4.40657 -8.02993 -33.0489
vn 0.743941 0.533062 -0.402985
v 4.38028 -8.00908 -33.0653
vn 0.674865 0.58784 -0.446096
v 4.35151 -7.99039 -33.0801
vn 0.599291 0.636957 -0.484909
v 4.32054 -7.97402 -33.0931
vn 0.517944 0.679939 -0.519053
v 4.28768 -7.96015 -33.1042
vn 0.43161 0.716374 -0.548199
v 4.25323 -7.94891 -33.1132
vn 0.341119 0.745909 -0.572064
v 4.21753 -7.9404 -33.1202
vn 0.247342 0.768261 -0.590421
v 4.18093 -7.93471 -33.1251
vn 0.151184 0.783214 -0.603091
v 4.14377 -7.93189 -33.1277
vn 0.05357 0.790624 -0.609954
v 4.10642 -7.93197 -33.128
vn -0.0445602 0.790421 -0.610942
v 4.06923 -7.93494 -33.1262
vn -0.142261 0.782604 -0.606046
v 4.03256 -7.94079 -33.1221
vn -0.238592 0.767252 -0.595314
v 3.99676 -7.94944 -33.1158
vn -0.332625 0.74451 -0.578849
v 3.96218 -7.96083 -33.1074
vn -0.423455 0.714598 -0.556809
v 3.92916 -7.97484 -33.097
vn -0.510207 0.677804 -0.529406
v 3.89801 -7.99133 -33.0846
vn -0.592045 0.634482 -0.496906
v 3.86903 -8.01014 -33.0704
vn -0.668182 0.58505 -0.459619
v 3.84249 -8.03111 -33.0546
vn -0.737883 0.529984 -0.417907
v 3.81867 -8.05401 -33.0372
vn -0.800478 0.469813 -0.372169
v 3.79777 -8.07864 -33.0184
vn -0.855365 0.405118 -0.322848
v 3.78001 -8.10475 -32.9984
vn -0.902013 0.336522 -0.270417
v 3.76556 -8.1321 -32.9775
vn -0.939975 0.264685 -0.215382
v 3.75456 -8.16041 -32.9557
vn -0.968884 0.190298 -0.158273
v 3.74711 -8.18943 -32.9334
vn -0.988462 0.114079 -0.0996392
v 3.74328 -8.21886 -32.9107
vn -0.998521 0.0367614 -0.0400462
v 3.74311 -8.24843 -32.8879
vn -0.998964 -0.0409104 0.0199326
v 3.7466 -8.27784 -32.8651
vn -0.989786 -0.118188 0.0797194
v 3.75373 -8.30683 -32.8427
vn -0.971076 -0.194328 0.138738
v 3.76441 -8.3351 -32.8207
vn -0.943014 -0.268596 0.196421
v 3.77855 -8.36238 -32.7995
vn -0.90587 -0.340277 0.252213
v 3.79601 -8.38842 -32.7792
vn -0.860002 -0.408681 0.305575
v 3.81662 -8.41296 -32.76
vn -0.805852 -0.47315 0.355994
v 3.84019 -8.43577 -32.7421
vn -0.743941 -0.533062 0.402985
v 3.86648 -8.45662 -32.7257
vn -0.674865 -0.58784 0.446096
v 3.89525 -8.47532 -32.7109
vn -0.599291 -0.636957 0.484909
v 3.92622 -8.49168 -32.6979
vn -0.517944 -0.679939 0.519053
v 3.95908 -8.50555 -32.6868
vn -0.43161 -0.716374 0.548199
v 3.99353 -8.51679 -32.6777
vn -0.341119 -0.745909 0.572064
f 1 66 2 
f 1 65 66 
f 2 67 3 
f 2 66 67 
f 3 68 4 
f 3 67 68 
f 4 69 5 
f 4 68 69 
f 5 70 6 
f 5 69 70 
f 6 71 7 
f 6 70 71 
f 7 72 8 
f 7 71 72 
f 8 73 9 
f 8 72 73 
f 9 74 10 
f 9 73 74 
f 10 75 11 
f 10 74 75 
f 11 76 12 
f 11 75 76 
f 12 77 13 
f 12 76 77 
f 13 78 14 
f 13 77 78 
f 14 79 15 
f 14 78 79 
f 15 80 16 
f 15 79 80 
f 16 81 17 
f 16 80 81 
f 17 82 18 
f 17 81 82 
f 18 83 19 
f 18 82 83 
f 19 84 20 
f 19 83 84 
f 20 85 21 
f 20 84 85 
f 21 86 22 
f 21 85 86 
f 22 87 23 
f 22 86 87 
f 23 88 24 
f 23 87 88 
f 24 89 25 
f 24 88 89 
f 25 90 26 
f 25 89 90 
f 26 91 27 
f 26 90 91 
f 27 92 28 
f 27 91 92 
f 28 93 29 
f 28 92 93 
f 29 94 30 
f 29 93 94 
f 30 95 31 
f 30 94 95 
f 31 96 32 
f 31 95 96 
f 32 97 33 
f 32 96 97 
f 33 98 34 
f 33 97 98 
f 34 99 35 
f 34 98 99 
f 35 100 36 
f 35 99 100 
f 36 101 37 
f 36 100 101 
f 37 102 38 
f 37 101 102 
f 38 103 39 
f 38 102 103 
f 39 104 40 
f 39 103 104 
f 40 105 41 
f 40 104 105 
f 41 106 42 
f 41 105 106 
f 42 107 43 
f 42 106 107 
f 43 108 44 
f 43 107 108 
f 44 109 45 
f 44 108 109 
f 45 110 46 
f 45 109 110 
f 46 111 47 
f 46 110 111 
f 47 112 48 
f 47 111 112 
f 48 113 49 
f 48 112 113 
f 49 114 50 
f 49 113 114 
f 50 115 51 
f 50 114 115 
f 51 116 52 
f 51 115 116 
f 52 117 53 
f 52 116 117 
f 53 118 54 
f 53 117 118 
f 54 119 55 
f 54 118 119 
f 55 120 56 
f 55 119 120 
f 56 121 57 
f 56 120 121 
f 57 122 58 
f 57 121 122 
f 58 123 59 
f 58 122 123 
f 59 124 60 
f 59 123 124 
f 60 125 61 
f 60 124 125 
f 61 126 62 
f 61 125 126 
f 62 127 63 
f 62 126 127 
f 63 128 64 
f 63 127 128 
f 64 65 1 
f 64 128 65 
f 65 130 66 
f 65 129 130 
f 66 131 67 
f 66 130 131 
f 67 132 68 
f 67 131 132 
f 68 133 69 
f 68 132 133 
f 69 134 70 
f 69 133 134 
f 70 135 71 
f 70 134 135 
f 71 136 72 
f 71 135 136 
f 72 137 73 
f 72 136 137 
f 73 138 74 
f 73 137 138 
f 74 139 75 
f 74 138 139 
f 75 140 76 
f 75 139 140 
f 76 141 77 
f 76 140 141 
f 77 142 78 
f 77 141 142 
f 78 143 79 
f 78 142 143 
f 79 144 80 
f 79 143 144 
f 80 145 81 
f 80 144 145 
f 81 146 82 
f 81 145 146 
f 82 147 83 
f 82 146 147 
f 83 148 84 
f 83 147 148 
f 84 149 85 
f 84 148 149 
f 85 150 86 
f 85 149 150 
f 86 151 87 
f 86 150 151 
f 87 152 88 
f 87 151 152 
f 88 153 89 
f 88 152 153 
f 89 154 90 
f 89 153 154 
f 90 155 91 
f 90 154 155 
f 91 156 92 
f 91 155 156 
f 92 157 93 
f 92 156 157 
f 93 158 94 
f 93 157 158 
f 94 159 95 
f 94 158 159 
f 95 160 96 
f 95 159 160 
f 96 161 97 
f 96 160 161 
f 97 162 98 
f 97 161 162 
f 98 163 99 
f 98 162 163 
f 99 164 100 
f 99 163 164 
f 100 165 101 
f 100 164 165 
f 101 166 102 
f 101 165 166 
f 102 167 103 
f 102 166 167 
f 103 168 104 
f 103 167 168 
f 104 169 105 
f 104 168 169 
f 105 170 106 
f 105 169 170 
f 106 171 107 
f 106 170 171 
f 107 172 108 
f 107 171 172 
f 108 173 109 
f 108 172 173 
f 109 174 110 
f 109 173 174 
f 110 175 111 
f 110 174 175 
f 111 176 112 
f 111 175 176 
f 112 177 113 
f 112 176 177 
f 113 178 114 
f 113 177 178 
f 114 179 115 
f 114 178 179 
f 115 180 116 
f 115 179 180 
f 116 181 117 
f 116 180 181 
f 117 182 118 
f 117 181 182 
f 118 183 119 
f 118 182 183 
f 119 184 120 
f 119 183 184 
f 120 185 121 
f 120 184 185 
f 121 186 122 
f 121 185 186 
f 122 187 123 
f 122 186 187 
f 123 188 124 
f 123 187 188 
f 124 189 125 
f 124 188 189 
f 125 190 126 
f 125 189 190 
f 126 191 127 
f 126 190 191 
f 127 192 128 
f 127 191 192 
f 128 129 65 
f 128 192 129 
f 129 194 130 
f 129 193 194 
f 130 195 131 
f 130 194 195 
f 131 196 132 
f 131 195 196 
f 132 197 133 
f 132 196 197 
f 133 198 134 
f 133 197 198 
f 134 199 135 
f 134 198 199 
f 135 200 136 
f 135 199 200 
f 136 201 137 
f 136 200 201 
f 137 202 138 
f 137 201 202 
f 138 203 139 
f 138 202 203 
f 139 204 140 
f 139 203 204 
f 140 205 141 
f 140 204 205 
f 141 206 142 
f 141 205 206 
f 142 207 143 
f 142 206 207 
f 143 208 144 
f 143 207 208 
f 144 209 145 
f 144 208 209 
f 145 210 146 
f 145 209 210 
f 146 211 147 
f 146 210 211 
f 147 212 148 
f 147 211 212 
f 148 213 149 
f 148 212 213 
f 149 214 150 
f 149 213 214 
f 150 215 151 
f 150 214 215 
f 151 216 152 
f 151 215 216 
f 152 217 153 
f 152 216 217 
f 153 218 154 
f 153 217 218 
f 154 219 155 
f 154 218 219 
f 155 220 156 
f 155 219 220 
f 156 221 157 
f 156 220 221 
f 157 222 158 
f 157 221 222 
f 158 223 159 
f 158 222 223 
f 159 224 160 
f 159 223 224 
f 160 225 161 
f 160 224 225 
f 161 226 162 
f 161 225 226 
f 162 227 163 
f 162 226 227 
f 163 228 164 
f 163 227 228 
f 164 229 165 
f 164 228 229 
f 165 230 166 
f 165 229 230 
f 166 231 167 
f 166 230 231 
f 167 232 168 
f 167 231 232 
f 168 233 169 
f 168 232 233 
f 169 234 170 
f 169 233 234 
f 170 235 171 
f 170 234 235 
f 171 236 172 
f 171 235 236 
f 172 237 173 
f 172 236 237 
f 173 238 174 
f 173 237 238 
f 174 239 175 
f 174 238 239 
f 175 240 176 
f 175 239 240 
f 176 241 177 
f 176 240 241 
f 177 242 178 
f 177 241 242 
f 178 243 179 
f 178 242 243 
f 179 244 180 
f 179 243 244 
f 180 245 181 
f 180 244 245 
f 181 246 182 
f 181 245 246 
f 182 247 183 
f 182 246 247 
f 183 248 184 
f 183 247 248 
f 184 249 185 
f 184 248 249 
f 185 250 186 
f 185 249 250 
f 186 251 187 
f 186 250 251 
f 187 252 188 
f 187 251 252 
f 188 253 189 
f 188 252 253 
f 189 254 190 
f 189 253 254 
f 190 255 191 
f 190 254 255 
f 191 256 192 
f 191 255 256 
f 192 193 129 
f 192 256 193 
f 193 258 194 
f 193 257 258 
f 194 259 195 
f 194 258 259 
f 195 260 196 
f 195 259 260 
f 196 261 197 
f 196 260 261 
f 197 262 198 
f 197 261 262 
f 198 263 199 
f 198 262 263 
f 199 264 200 
f 199 263 264 
f 200 265 201 
f 200 264 265 
f 201 266 202 
f 201 265 266 
f 202 267 203 
f 202 266 267 
f 203 268 204 
f 203 267 268 
f 204 269 205 
f 204 268 269 
f 205 270 206 
f 205 269 270 
f 206 271 207 
f 206 270 271 
f 207 272 208 
f 207 271 272 
f 208 273 209 
f 208 272 273 
f 209 274 210 
f 209 273 274 
f 210 275 211 
f 210 274 275 
f 211 276 212 
f 211 275 276 
f 212 277 213 
f 212 276 277 
f 213 278 214 
f 213 277 278 
f 214 279 215 
f 214 278 279 
f 215 280 216 
f 215 279 280 
f 216 281 217 
f 216 280 281 
f 217 282 218 
f 217 281 282 
f 218 283 219 
f 218 282 283 
f 219 284 220 
f 219 283 284 
f 220 285 221 
f 220 284 285 
f 221 286 222 
f 221 285 286 
f 222 287 223 
f 222 286 287 
f 223 288 224 
f 223 287 288 
f 224 289 225 
f 224 288 289 
f 225 290 226 
f 225 289 290 
f 226 291 227 
f 226 290 291 
f 227 292 228 
f 227 291 292 
f 228 293 229 
f 228 292 293 
f 229 294 230 
f 229 293 294 
f 230 295 231 
f 230 294 295 
f 231 296 232 
f 231 295 296 
f 232 297 233 
f 232 296 297 
f 233 298 234 
f 233 297 298 
f 234 299 235 
f 234 298 299 
f 235 300 236 
f 235 299 300 
f 236 301 237 
f 236 300 301 
f 237 302 238 
f 237 301 302 
f 238 303 239 
f 238 302 303 
f 239 304 240 
f 239 303 304 
f 240 305 241 
f 240 304 305 
f 241 306 242 
f 241 305 306 
f 242 307 243 
f 242 306 307 
f 243 308 244 
f 243 307 308 
f 244 309 245 
f 244 308 309 
f 245 310 246 
f 245 309 310 
f 246 311 247 
f 246 310 311 
f 247 312 248 
f 247 311 312 
f 248 313 249 
f 248 312 313 
f 249 314 250 
f 249 313 314 
f 250 315 251 
f 250 314 315 
f 251 316 252 
f 251 315 316 
f 252 317 253 
f 252 316 317 
f 253 318 254 
f 253 317 318 
f 254 319 255 
f 254 318 319 
f 255 320 256 
f 255 319 320 
f 256 257 193 
f 256 320 257 
f 257 322 258 
f 257 321 322 
f 258 323 259 
f 258 322 323 
f 259 324 260 
f 259 323 324 
f 260 325 261 
f 260 324 325 
f 261 326 262 
f 261 325 326 
f 262 327 263 
f 262 326 327 
f 263 328 264 
f 263 327 328 
f 264 329 265 
f 264 328 329 
f 265 330 266 
f 265 329 330 
f 266 331 267 
f 266 330 331 
f 267 332 268 
f 267 331 332 
f 268 333 269 
f 268 332 333 
f 269 334 270 
f 269 333 334 
f 270 335 271 
f 270 334 335 
f 271 336 272 
f 271 335 336 
f 272 337 273 
f 272 336 337 
f 273 338 274 
f 273 337 338 
f 274 339 275 
f 274 338 339 
f 275 340 276 
f 275 339 340 
f 276 341 277 
f 276 340 341 
f 277 342 278 
f 277 341 342 
f 278 343 279 
f 278 342 343 
f 279 344 280 
f 279 343 344 
f 280 345 281 
f 280 344 345 
f 281 346 282 
f 281 345 346 
f 282 347 283 
f 282 346 347 
f 283 348 284 
f 283 347 348 
f 284 349 285 
f 284 348 349 
f 285 350 286 
f 285 349 350 
f 286 351 287 
f 286 350 351 
f 287 352 288 
f 287 351 352 
f 288 353 289 
f 288 352 353 
f 289 354 290 
f 289 353 354 
f 290 355 291 
f 290 354 355 
f 291 356 292 
f 291 355 356 
f 292 357 293 
f 292 356 357 
f 293 358 294 
f 293 357 358 
f 294 359 295 
f 294 358 359 
f 295 360 296 
f 295 359 360 
f 296 361 297 
f 296 360 361 
f 297 362 298 
f 297 361 362 
f 298 363 299 
f 298 362 363 
f 299 364 300 
f 299 363 364 
f 300 365 301 
f 300 364 365 
f 301 366 302 
f 301 365 366 
f 302 367 303 
f 302 366 367 
f 303 368 304 
f 303 367 368 
f 304 369 305 
f 304 368 369 
f 305 370 306 
f 305 369 370 
f 306 371 307 
f 306 370 371 
f 307 372 308 
f 307 371 372 
f 308 373 309 
f 308 372 373 
f 309 374 310 
f 309 373 374 
f 310 375 311 
f 310 374 375 
f 311 376 312 
f 311 375 376 
f 312 377 313 
f 312 376 377 
f 313 378 314 
f 313 377 378 
f 314 379 315 
f 314 378 379 
f 315 380 316 
f 315 379 380 
f 316 381 317 
f 316 380 381 
f 317 382 318 
f 317 381 382 
f 318 383 319 
f 318 382 383 
f 319 384 320 
f 319 383 384 
f 320 321 257 
f 320 384 321 
f 321 386 322 
f 321 385 386 
f 322 387 323 
f 322 386 387 
f 323 388 324 
f 323 387 388 
f 324 389 325 
f 324 388 389 
f 325 390 326 
f 325 389 390 
f 326 391 327 
f 326 390 391 
f 327 392 328 
f 327 391 392 
f 328 393 329 
f 328 392 393 
f 329 394 330 
f 329 393 394 
f 330 395 331 
f 330 394 395 
f 331 396 332 
f 331 395 396 
f 332 397 333 
f 332 396 397 
f 333 398 334 
f 333 397 398 
f 334 399 335 
f 334 398 399 
f 335 400 336 
f 335 399 400 
f 336 401 337 
f 336 400 401 
f 337 402 338 
f 337 401 402 
f 338 403 339 
f 338 402 403 
f 339 404 340 
f 339 403 404 
f 340 405 341 
f 340 404 405 
f 341 406 342 
f 341 405 406 
f 342 407 343 
f 342 406 407 
f 343 408 344 
f 343 407 408 
f 344 409 345 
f 344 408 409 
f 345 410 346 
f 345 409 410 
f 346 411 347 
f 346 410 411 
f 347 412 348 
f 347 411 412 
f 348 413 349 
f 348 412 413 
f 349 414 350 
f 349 413 414 
f 350 415 351 
f 350 414 415 
f 351 416 352 
f 351 415 416 
f 352 417 353 
f 352 416 417 
f 353 418 354 
f 353 417 418 
f 354 419 355 
f 354 418 419 
f 355 420 356 
f 355 419 420 
f 356 421 357 
f 356 420 421 
f 357 422 358 
f 357 421 422 
f 358 423 359 
f 358 422 423 
f 359 424 360 
f 359 423 424 
f 360 425 361 
f 360 424 425 
f 361 426 362 
f 361 425 426 
f 362 427 363 
f 362 426 427 
f 363 428 364 
f 363 427 428 
f 364 429 365 
f 364 428 429 
f 365 430 366 
f 365 429 430 
f 366 431 367 
f 366 430 431 
f 367 432 368 
f 367 431 432 
f 368 433 369 
f 368 432 433 
f 369 434 370 
f 369 433 434 
f 370 435 371 
f 370 434 435 
f 371 436 372 
f 371 435 436 
f 372 437 373 
f 372 436 437 
f 373 438 374 
f 373 437 438 
f 374 439 375 
f 374 438 439 
f 375 440 376 
f 375 439 440 
f 376 441 377 
f 376 440 441 
f 377 442 378 
f 377 441 442 
f 378 443 379 
f 378 442 443 
f 379 444 380 
f 379 443 444 
f 380 445 381 
f 380 444 445 
f 381 446 382 
f 381 445 446 
f 382 447 383 
f 382 446 447 
f 383 448 384 
f 383 447 448 
f 384 385 321 
f 384 448 385 
f 385 450 386 
f 385 449 450 
f 386 451 387 
f 386 450 451 
f 387 452 388 
f 387 451 452 
f 388 453 389 
f 388 452 453 
f 389 454 390 
f 389 453 454 
f 390 455 391 
f 390 454 455 
f 391 456 392 
f 391 455 456 
f 392 457 393 
f 392 456 457 
f 393 458 394 
f 393 457 458 
f 394 459 395 
f 394 458 459 
f 395 460 396 
f 395 459 460 
f 396 461 397 
f 396 460 461 
f 397 462 398 
f 397 461 462 
f 398 463 399 
f 398 462 463 
f 399 464 400 
f 399 463 464 
f 400 465 401 
f 400 464 465 
f 401 466 402 
f 401 465 466 
f 402 467 403 
f 402 466 467 
f 403 468 404 
f 403 467 468 
f 404 469 405 
f 404 468 469 
f 405 470 406 
f 405 469 470 
f 406 471 407 
f 406 470 471 
f 407 472 408 
f 407 471 472 
f 408 473 409 
f 408 472 473 
f 409 474 410 
f 409 473 474 
f 410 475 411 
f 410 474 475 
f 411 476 412 
f 411 475 476 
f 412 477 413 
f 412 476 477 
f 413 478 414 
f 413 477 478 
f 414 479 415 
f 414 478 479 
f 415 480 416 
f 415 479 480 
f 416 481 417 
f 416 480 481 
f 417 482 418 
f 417 481 482 
f 418 483 419 
f 418 482 483 
f 419 484 420 
f 419 483 484 
f 420 485 421 
f 420 484 485 
f 421 486 422 
f 421 485 486 
f 422 487 423 
f 422 486 487 
f 423 488 424 
f 423 487 488 
f 424 489 425 
f 424 488 489 
f 425 490 426 
f 425 489 490 
f 426 491 427 
f 426 490 491 
f 427 492 428 
f 427 491 492 
f 428 493 429 
f 428 492 493 
f 429 494 430 
f 429 493 494 
f 430 495 431 
f 430 494 495 
f 431 496 432 
f 431 495 496 
f 432 497 433 
f 432 496 497 
f 433 498 434 
f 433 497 498 
f 434 499 435 
f 434 498 499 
f 435 500 436 
f 435 499 500 
f 436 501 437 
f 436 500 501 
f 437 502 438 
f 437 501 502 
f 438 503 439 
f 438 502 503 
f 439 504 440 
f 439 503 504 
f 440 505 441 
f 440 504 505 
f 441 506 442 
f 441 505 506 
f 442 507 443 
f 442 506 507 
f 443 508 444 
f 443 507 508 
f 444 509 445 
f 444 508 509 
f 445 510 446 
f 445 509 510 
f 446 511 447 
f 446 510 511 
f 447 512 448 
f 447 511 512 
f 448 449 385 
f 448 512 449 
f 449 514 450 
f 449 513 514 
f 450 515 451 
f 450 514 515 
f 451 516 452 
f 451 515 516 
f 452 517 453 
f 452 516 517 
f 453 518 454 
f 453 517 518 
f 454 519 455 
f 454 518 519 
f 455 520 456 
f 455 519 520 
f 456 521 457 
f 456 520 521 
f 457 522 458 
f 457 521 522 
f 458 523 459 
f 458 522 523 
f 459 524 460 
f 459 523 524 
f 460 525 461 
f 460 524 525 
f 461 526 462 
f 461 525 526 
f 462 527 463 
f 462 526 527 
f 463 528 464 
f 463 527 528 
f 464 529 465 
f 464 528 529 
f 465 530 466 
f 465 529 530 
f 466 531 467 
f 466 530 531 
f 467 532 468 
f 467 531 532 
f 468 533 469 
f 468 532 533 
f 469 534 470 
f 469 533 534 
f 470 535 471 
f 470 534 535 
f 471 536 472 
f 471 535 536 
f 472 537 473 
f 472 536 537 
f 473 538 474 
f 473 537 538 
f 474 539 475 
f 474 538 539 
f 475 540 476 
f 475 539 540 
f 476 541 477 
f 476 540 541 
f 477 542 478 
f 477 541 542 
f 478 543 479 
f 478 542 543 
f 479 544 480 
f 479 543 544 
f 480 545 481 
f 480 544 545 
f 481 546 482 
f 481 545 546 
f 482 547 483 
f 482 546 547 
f 483 548 484 
f 483 547 548 
f 484 549 485 
f 484 548 549 
f 485 550 486 
f 485 549 550 
f 486 551 487 
f 486 550 551 
f 487 552 488 
f 487 551 552 
f 488 553 489 
f 488 552 553 
f 489 554 490 
f 489 553 554 
f 490 555 491 
f 490 554 555 
f 491 556 492 
f 491 555 556 
f 492 557 493 
f 492 556 557 
f 493 558 494 
f 493 557 558 
f 494 559 495 
f 494 558 559 
f 495 560 496 
f 495 559 560 
f 496 561 497 
f 496 560 561 
f 497 562 498 
f 497 561 562 
f 498 563 499 
f 498 562 563 
f 499 564 500 
f 499 563 564 
f 500 565 501 
f 500 564 565 
f 501 566 502 
f 501 565 566 
f 502 567 503 
f 502 566 567 
f 503 568 504 
f 503 567 568 
f 504 569 505 
f 504 568 569 
f 505 570 506 
f 505 569 570 
f 506 571 507 
f 506 570 571 
f 507 572 508 
f 507 571 572 
f 508 573 509 
f 508 572 573 
f 509 574 510 
f 509 573 574 
f 510 575 511 
f 510 574 575 
f 511 576 512 
f 511 575 576 
f 512 513 449 
f 512 576 513 
f 513 578 514 
f 513 577 578 
f 514 579 515 
f 514 578 579 
f 515 580 516 
f 515 579 580 
f 516 581 517 
f 516 580 581 
f 517 582 518 
f 517 581 582 
f 518 583 519 
f 518 582 583 
f 519 584 520 
f 519 583 584 
f 520 585 521 
f 520 584 585 
f 521 586 522 
f 521 585 586 
f 522 587 523 
f 522 586 587 
f 523 588 524 
f 523 587 588 
f 524 589 525 
f 524 588 589 
f 525 590 526 
f 525 589 590 
f 526 591 527 
f 526 590 591 
f 527 592 528 
f 527 591 592 
f 528 593 529 
f 528 592 593 
f 529 594 530 
f 529 593 594 
f 530 595 531 
f 530 594 595 
f 531 596 532 
f 531 595 596 
f 532 597 533 
f 532 596 597 
f 533 598 534 
f 533 597 598 
f 534 599 535 
f 534 598 599 
f 535 600 536 
f 535 599 600 
f 536 601 537 
f 536 600 601 
f 537 602 538 
f 537 601 602 
f 538 603 539 
f 538 602 603 
f 539 604 540 
f 539 603 604 
f 540 605 541 
f 540 604 605 
f 541 606 542 
f 541 605 606 
f 542 607 543 
f 542 606 607 
f 543 608 544 
f 543 607 608 
f 544 609 545 
f 544 608 609 
f 545 610 546 
f 545 609 610 
f 546 611 547 
f 546 610 611 
f 547 612 548 
f 547 611 612 
f 548 613 549 
f 548 612 613 
f 549 614 550 
f 549 613 614 
f 550 615 551 
f 550 614 615 
f 551 616 552 
f 551 615 616 
f 552 617 553 
f 552 616 617 
f 553 618 554 
f 553 617 618 
f 554 619 555 
f 554 618 619 
f 555 620 556 
f 555 619 620 
f 556 621 557 
f 556 620 621 
f 557 622 558 
f 557 621 622 
f 558 623 559 
f 558 622 623 
f 559 624 560 
f 559 623 624 
f 560 625 561 
f 560 624 625 
f 561 626 562 
f 561 625 626 
f 562 627 563 
f 562 626 627 
f 563 628 564 
f 563 627 628 
f 564 629 565 
f 564 628 629 
f 565 630 566 
f 565 629 630 
f 566 631 567 
f 566 630 631 
f 567 632 568 
f 567 631 632 
f 568 633 569 
f 568 632 633 
f 569 634 570 
f 569 633 634 
f 570 635 571 
f 570 634 635 
f 571 636 572 
f 571 635 636 
f 572 637 573 
f 572 636 637 
f 573 638 574 
f 573 637 638 
f 574 639 575 
f 574 638 639 
f 575 640 576 
f 575 639 640 
f 576 577 513 
f 576 640 577 
