# Branch
v -2.30031 0.515452 -9.47041
vn -0.113159 0.979284 -0.167923
v -2.30432 0.514955 -9.46939
vn -0.207572 0.967587 -0.143838
v -2.30824 0.514063 -9.46831
vn -0.299985 0.946572 -0.118368
v -2.31204 0.512785 -9.46718
vn -0.389509 0.916441 -0.0917574
v -2.31568 0.511132 -9.46601
vn -0.475281 0.877484 -0.0642633
v -2.31912 0.50912 -9.46482
vn -0.556477 0.830076 -0.0361504
v -2.32234 0.50677 -9.46361
vn -0.632313 0.774674 -0.00768926
v -2.3253 0.504102 -9.4624
vn -0.70206 0.711812 0.0208459
v -2.32797 0.501144 -9.4612
vn -0.765046 0.642095 0.0491803
v -2.33033 0.497923 -9.46002
vn -0.820664 0.566194 0.077041
v -2.33236 0.494471 -9.45887
vn -0.868378 0.48484 0.10416
v -2.33403 0.490821 -9.45776
vn -0.90773 0.398817 0.130276
v -2.33533 0.487008 -9.4567
vn -0.938339 0.308953 0.155137
v -2.33624 0.483069 -9.45571
vn -0.959912 0.216113 0.178504
v -2.33677 0.479041 -9.45479
vn -0.972241 0.121193 0.200152
v -2.33689 0.474964 -9.45396
vn -0.975206 0.0251051 0.219872
v -2.33662 0.470876 -9.45321
vn -0.968779 -0.0712245 0.237475
v -2.33595 0.466818 -9.45256
vn -0.953023 -0.166868 0.252791
v -2.33489 0.462828 -9.45201
vn -0.928088 -0.260905 0.265672
v -2.33346 0.458944 -9.45158
vn -0.894215 -0.352429 0.275995
v -2.33165 0.455205 -9.45125
vn -0.851731 -0.440559 0.28366
v -2.3295 0.451645 -9.45104
vn -0.801044 -0.524446 0.288593
v -2.32702 0.4483 -9.45095
vn -0.742642 -0.603282 0.290746
v -2.32424 0.445202 -9.45098
vn -0.677089 -0.676308 0.2901
v -2.32118 0.442379 -9.45112
vn -0.605014 -0.742821 0.28666
v -2.31788 0.439861 -9.45139
vn -0.527113 -0.802181 0.280459
v -2.31436 0.43767 -9.45176
vn -0.444136 -0.853815 0.271557
v -2.31066 0.435828 -9.45225
vn -0.356882 -0.897226 0.26004
v -2.30681 0.434352 -9.45285
vn -0.26619 -0.931997 0.246019
v -2.30285 0.433258 -9.45354
vn -0.172935 -0.957791 0.229628
v -2.29882 0.432555 -9.45433
vn -0.0780142 -0.974362 0.211026
v -2.29476 0.43225 -9.45521
vn 0.0176576 -0.981549 0.190391
v -2.29071 0.432346 -9.45616
vn 0.113159 -0.979284 0.167923
v -2.2867 0.432842 -9.45718
vn 0.207572 -0.967587 0.143838
v -2.28278 0.433734 -9.45826
vn 0.299985 -0.946572 0.118368
v -2.27898 0.435012 -9.45939
vn 0.389509 -0.916441 0.0917574
v -2.27535 0.436665 -9.46056
vn 0.475281 -0.877484 0.0642633
v -2.2719 0.438677 -9.46175
vn 0.556477 -0.830076 0.0361504
v -2.26868 0.441028 -9.46296
vn 0.632313 -0.774674 0.00768926
v -2.26572 0.443695 -9.46417
vn 0.70206 -0.711812 -0.0208459
v -2.26305 0.446653 -9.46537
vn 0.765046 -0.642095 -0.0491803
v -2.26069 0.449874 -9.46656
vn 0.820664 -0.566194 -0.077041
v -2.25867 0.453326 -9.46771
vn 0.868378 -0.48484 -0.10416
v -2.257 0.456976 -9.46881
vn 0.90773 -0.398817 -0.130276
v -2.2557 0.460789 -9.46987
vn 0.938339 -0.308953 -0.155137
v -2.25478 0.464729 -9.47086
vn 0.959912 -0.216113 -0.178504
v -2.25426 0.468756 -9.47178
vn 0.972241 -0.121193 -0.200152
v -2.25413 0.472833 -9.47262
vn 0.975206 -0.0251051 -0.219872
v -2.25441 0.476921 -9.47336
vn 0.968779 0.0712245 -0.237475
v -2.25507 0.480979 -9.47401
vn 0.953023 0.166868 -0.252791
v -2.25613 0.484969 -9.47456
vn 0.928088 0.260905 -0.265672
v -2.25757 0.488853 -9.475
vn 0.894215 0.352429 -0.275995
v -2.25937 0.492592 -9.47532
vn 0.851731 0.440559 -0.28366
v -2.26152 0.496152 -9.47553
vn 0.801044 0.524446 -0.288593
v -2.264 0.499497 -9.47562
vn 0.742642 0.603282 -0.290746
v -2.26678 0.502596 -9.4756
vn 0.677089 0.676308 -0.2901
v -2.26984 0.505418 -9.47545
vn 0.605014 0.742821 -0.28666
v -2.27315 0.507937 -9.47519
vn 0.527113 0.802181 -0.280459
v -2.27667 0.510128 -9.47481
vn 0.444136 0.853815 -0.271557
v -2.28037 0.51197 -9.47432
vn 0.356882 0.897226 -0.26004
v -2.28422 0.513445 -9.47373
vn 0.26619 0.931997 -0.246019
v -2.28817 0.51454 -9.47303
vn 0.172935 0.957791 -0.229628
v -2.2922 0.515243 -9.47224
vn 0.0780142 0.974362 -0.211026
v -2.29626 0.515548 -9.47137
vn -0.0176576 0.981549 -0.190391
v -2.94356 -0.051152 -12.2645
vn -0.117539 0.975307 -0.186981
v -2.94909 -0.0518357 -12.2631
vn -0.21193 0.963629 -0.162804
v -2.95449 -0.0530628 -12.2615
vn -0.304279 0.942671 -0.137059
v -2.95973 -0.0548214 -12.26
vn -0.393699 0.912635 -0.109994
v -2.96474 -0.0570947 -12.2583
vn -0.479327 0.873809 -0.0818699
v -2.96948 -0.0598606 -12.2566
vn -0.560339 0.826569 -0.0529573
v -2.97391 -0.0630926 -12.2549
vn -0.635955 0.771368 -0.0235348
v -2.97798 -0.0667596 -12.2532
vn -0.705445 0.708738 0.00611445
v -2.98165 -0.0708262 -12.2514
vn -0.768143 0.639283 0.0357048
v -2.98489 -0.0752533 -12.2497
vn -0.823442 0.563671 0.0649513
v -2.98766 -0.0799982 -12.248
vn -0.870811 0.48263 0.0935722
v -2.98995 -0.0850152 -12.2464
vn -0.909794 0.396942 0.121292
v -2.99171 -0.0902561 -12.2449
vn -0.940015 0.307431 0.147844
v -2.99295 -0.0956704 -12.2434
vn -0.961183 0.214959 0.172972
v -2.99365 -0.101206 -12.242
vn -0.973095 0.120417 0.196434
v -2.9938 -0.106809 -12.2408
vn -0.975635 0.0247152 0.218004
v -2.9934 -0.112426 -12.2396
vn -0.968779 -0.0712245 0.237475
v -2.99245 -0.118003 -12.2386
vn -0.952593 -0.166478 0.254659
v -2.99097 -0.123487 -12.2377
vn -0.927234 -0.260129 0.26939
v -2.98896 -0.128823 -12.237
vn -0.892944 -0.351274 0.281527
v -2.98645 -0.133962 -12.2365
vn -0.850055 -0.439037 0.290952
v -2.98346 -0.138853 -12.2361
vn -0.79898 -0.522571 0.297576
v -2.98002 -0.143449 -12.2359
vn -0.740209 -0.601072 0.301334
v -2.97616 -0.147706 -12.2358
vn -0.674311 -0.673785 0.30219
v -2.97192 -0.151584 -12.2359
vn -0.601918 -0.740009 0.300135
v -2.96734 -0.155044 -12.2362
vn -0.523728 -0.799107 0.29519
v -2.96247 -0.158053 -12.2367
vn -0.440495 -0.850508 0.287403
v -2.95735 -0.160583 -12.2373
vn -0.35302 -0.893719 0.276847
v -2.95203 -0.162609 -12.2381
vn -0.262144 -0.928322 0.263625
v -2.94656 -0.164112 -12.239
vn -0.168744 -0.953986 0.247865
v -2.94099 -0.165077 -12.2401
vn -0.0737193 -0.970462 0.229717
v -2.93539 -0.165494 -12.2413
vn 0.0220156 -0.977591 0.209357
v -2.9298 -0.16536 -12.2426
vn 0.117539 -0.975307 0.186981
v -2.92427 -0.164677 -12.244
vn 0.21193 -0.963629 0.162804
v -2.91886 -0.16345 -12.2455
vn 0.304279 -0.942671 0.137059
v -2.91363 -0.161691 -12.2471
vn 0.393699 -0.912635 0.109994
v -2.90861 -0.159418 -12.2487
vn 0.479327 -0.873809 0.0818699
v -2.90387 -0.156652 -12.2504
vn 0.560339 -0.826569 0.0529573
v -2.89944 -0.15342 -12.2521
vn 0.635955 -0.771368 0.0235348
v -2.89537 -0.149753 -12.2539
vn 0.705445 -0.708738 -0.00611445
v -2.8917 -0.145686 -12.2556
vn 0.768143 -0.639283 -0.0357048
v -2.88846 -0.141259 -12.2573
vn 0.823442 -0.563671 -0.0649513
v -2.88569 -0.136514 -12.259
vn 0.870811 -0.48263 -0.0935722
v -2.88341 -0.131497 -12.2606
vn 0.909794 -0.396942 -0.121292
v -2.88164 -0.126256 -12.2622
vn 0.940015 -0.307431 -0.147844
v -2.8804 -0.120842 -12.2636
vn 0.961183 -0.214959 -0.172972
v -2.8797 -0.115307 -12.265
vn 0.973095 -0.120417 -0.196434
v -2.87955 -0.109703 -12.2663
vn 0.975635 -0.0247152 -0.218004
v -2.87995 -0.104086 -12.2674
vn 0.968779 0.0712245 -0.237475
v -2.8809 -0.0985089 -12.2684
vn 0.952593 0.166478 -0.254659
v -2.88239 -0.0930257 -12.2693
vn 0.927234 0.260129 -0.26939
v -2.8844 -0.0876891 -12.27
vn 0.892944 0.351274 -0.281527
v -2.88691 -0.0825506 -12.2706
vn 0.850055 0.439037 -0.290952
v -2.8899 -0.0776597 -12.2709
vn 0.79898 0.522571 -0.297576
v -2.89334 -0.0730634 -12.2712
vn 0.740209 0.601072 -0.301334
v -2.8972 -0.0688061 -12.2712
vn 0.674311 0.673785 -0.30219
v -2.90143 -0.0649287 -12.2711
vn 0.601918 0.740009 -0.300135
v -2.90601 -0.0614685 -12.2708
vn 0.523728 0.799107 -0.29519
v -2.91089 -0.058459 -12.2703
vn 0.440495 0.850508 -0.287403
v -2.91601 -0.055929 -12.2697
vn 0.35302 0.893719 -0.276847
v -2.92133 -0.0539029 -12.269
vn 0.262144 0.928322 -0.263625
v -2.9268 -0.0524004 -12.268
vn 0.168744 0.953986 -0.247865
v -2.93236 -0.0514357 -12.267
vn 0.0737193 0.970462 -0.229717
v -2.93797 -0.0510182 -12.2658
vn -0.0220156 0.977591 -0.209357
v -3.57348 -0.668771 -15.0195
vn -0.121961 0.970845 -0.206361
v -3.58052 -0.669641 -15.0176
vn -0.216331 0.959189 -0.18209
v -3.58741 -0.671201 -15.0157
vn -0.308617 0.938296 -0.156066
v -3.59408 -0.673436 -15.0136
vn -0.397931 0.908366 -0.128539
v -3.60046 -0.676324 -15.0115
vn -0.483413 0.869688 -0.0997747
v -3.6065 -0.679838 -15.0093
vn -0.564239 0.822634 -0.0700489
v -3.61213 -0.683943 -15.007
vn -0.639632 0.767658 -0.0396486
v -3.6173 -0.6886 -15.0047
vn -0.708864 0.705289 -0.00886648
v -3.62196 -0.693764 -15.0024
vn -0.77127 0.636128 0.0220011
v -3.62606 -0.699385 -15.0001
vn -0.826248 0.560841 0.0526567
v -3.62957 -0.70541 -14.9979
vn -0.873268 0.480152 0.0828053
v -3.63246 -0.71178 -14.9957
vn -0.911879 0.394839 0.112156
v -3.63468 -0.718434 -14.9936
vn -0.941708 0.305724 0.140427
v -3.63623 -0.725308 -14.9916
vn -0.962467 0.213664 0.167346
v -3.63709 -0.732336 -14.9897
vn -0.973958 0.119547 0.192653
v -3.63725 -0.739449 -14.9879
vn -0.976068 0.024278 0.216104
v -3.63671 -0.74658 -14.9863
vn -0.968779 -0.0712245 0.237475
v -3.63546 -0.75366 -14.9849
vn -0.95216 -0.166041 0.256558
v -3.63354 -0.76062 -14.9837
vn -0.926371 -0.259258 0.273171
v -3.63095 -0.767394 -14.9826
vn -0.89166 -0.349979 0.287153
v -3.62771 -0.773917 -14.9818
vn -0.848363 -0.437329 0.298369
v -3.62387 -0.780124 -14.9811
vn -0.796895 -0.520468 0.306712
v -3.61946 -0.785958 -14.9807
vn -0.737752 -0.598594 0.312101
v -3.61451 -0.791361 -14.9806
vn -0.671505 -0.670955 0.314484
v -3.60908 -0.796282 -14.9806
vn -0.598791 -0.736855 0.313839
v -3.60322 -0.800672 -14.9809
vn -0.52031 -0.795658 0.310171
v -3.59699 -0.804491 -14.9814
vn -0.436818 -0.846799 0.303516
v -3.59044 -0.807701 -14.9821
vn -0.349119 -0.889784 0.293939
v -3.58364 -0.81027 -14.983
vn -0.258058 -0.924201 0.28153
v -3.57665 -0.812176 -14.9842
vn -0.164512 -0.949716 0.26641
v -3.56955 -0.813398 -14.9855
vn -0.0693817 -0.966086 0.248724
v -3.5624 -0.813925 -14.987
vn 0.0264169 -0.973152 0.228643
v -3.55526 -0.813753 -14.9886
vn 0.121961 -0.970845 0.206361
v -3.54822 -0.812883 -14.9905
vn 0.216331 -0.959189 0.18209
v -3.54133 -0.811323 -14.9924
vn 0.308617 -0.938296 0.156066
v -3.53466 -0.809088 -14.9944
vn 0.397931 -0.908366 0.128539
v -3.52827 -0.8062 -14.9966
vn 0.483413 -0.869688 0.0997747
v -3.52224 -0.802687 -14.9988
vn 0.564239 -0.822634 0.0700489
v -3.51661 -0.798582 -15.0011
vn 0.639632 -0.767658 0.0396486
v -3.51144 -0.793925 -15.0034
vn 0.708864 -0.705289 0.00886648
v -3.50678 -0.78876 -15.0057
vn 0.77127 -0.636128 -0.0220011
v -3.50267 -0.783139 -15.008
vn 0.826248 -0.560841 -0.0526567
v -3.49916 -0.777114 -15.0102
vn 0.873268 -0.480152 -0.0828053
v -3.49628 -0.770744 -15.0124
vn 0.911879 -0.394839 -0.112156
v -3.49405 -0.76409 -15.0145
vn 0.941708 -0.305724 -0.140427
v -3.4925 -0.757216 -15.0165
vn 0.962467 -0.213664 -0.167346
v -3.49165 -0.750188 -15.0184
vn 0.973958 -0.119547 -0.192653
v -3.49149 -0.743075 -15.0202
vn 0.976068 -0.024278 -0.216104
v -3.49203 -0.735944 -15.0218
vn 0.968779 0.0712245 -0.237475
v -3.49327 -0.728864 -15.0232
vn 0.95216 0.166041 -0.256558
v -3.4952 -0.721904 -15.0244
vn 0.926371 0.259258 -0.273171
v -3.49779 -0.71513 -15.0255
vn 0.89166 0.349979 -0.287153
v -3.50102 -0.708608 -15.0263
vn 0.848363 0.437329 -0.298369
v -3.50487 -0.7024 -15.0269
vn 0.796895 0.520468 -0.306712
v -3.50928 -0.696566 -15.0274
vn 0.737752 0.598594 -0.312101
v -3.51423 -0.691163 -15.0275
vn 0.671505 0.670955 -0.314484
v -3.51966 -0.686243 -15.0275
vn 0.598791 0.736855 -0.313839
v -3.52552 -0.681852 -15.0272
vn 0.52031 0.795658 -0.310171
v -3.53175 -0.678033 -15.0267
vn 0.436818 0.846799 -0.303516
v -3.5383 -0.674824 -15.026
vn 0.349119 0.889784 -0.293939
v -3.5451 -0.672254 -15.0251
vn 0.258058 0.924201 -0.28153
v -3.55209 -0.670349 -15.0239
vn 0.164512 0.949716 -0.26641
v -3.55919 -0.669126 -15.0226
vn 0.0693817 0.966086 -0.248724
v -3.56634 -0.668599 -15.0211
vn -0.0264169 0.973152 -0.228643
v -4.19007 -1.33743 -17.7354
vn -0.126421 0.965878 -0.226046
v -4.19863 -1.33849 -17.7332
vn -0.22077 0.954246 -0.201681
v -4.207 -1.34038 -17.7308
vn -0.312992 0.933424 -0.175374
v -4.2151 -1.34308 -17.7282
vn -0.4022 0.903612 -0.147378
v -4.22285 -1.34658 -17.7256
vn -0.487534 0.865099 -0.117962
v -4.23017 -1.35083 -17.7228
vn -0.568173 0.818254 -0.0874102
v -4.23699 -1.3558 -17.7199
vn -0.64334 0.763528 -0.0560167
v -4.24326 -1.36144 -17.717
vn -0.712312 0.70145 -0.0240838
v -4.2489 -1.36769 -17.7141
vn -0.774424 0.632616 0.00808115
v -4.25386 -1.37449 -17.7112
vn -0.829077 0.557689 0.0401682
v -4.25809 -1.38178 -17.7083
vn -0.875746 0.477392 0.0718685
v -4.26157 -1.38949 -17.7055
vn -0.913981 0.392497 0.102877
v -4.26424 -1.39754 -17.7028
vn -0.943415 0.303823 0.132894
v -4.26608 -1.40585 -17.7002
vn -0.963762 0.212222 0.161631
v -4.26709 -1.41435 -17.6977
vn -0.974828 0.118578 0.188812
v -4.26724 -1.42296 -17.6954
vn -0.976506 0.0237911 0.214175
v -4.26654 -1.43159 -17.6933
vn -0.968779 -0.0712245 0.237475
v -4.26499 -1.44015 -17.6914
vn -0.951723 -0.165554 0.258488
v -4.26261 -1.44857 -17.6897
vn -0.925501 -0.258289 0.277011
v -4.25942 -1.45676 -17.6883
vn -0.890366 -0.348537 0.292867
v -4.25545 -1.46465 -17.6871
vn -0.846656 -0.435428 0.305902
v -4.25074 -1.47216 -17.6862
vn -0.794792 -0.518126 0.315992
v -4.24534 -1.47921 -17.6855
vn -0.735274 -0.595834 0.323038
v -4.23929 -1.48575 -17.6852
vn -0.668675 -0.667804 0.326973
v -4.23266 -1.4917 -17.6851
vn -0.595637 -0.733342 0.327759
v -4.22551 -1.49701 -17.6853
vn -0.516862 -0.791818 0.325389
v -4.21791 -1.50162 -17.6858
vn -0.433109 -0.842669 0.319885
v -4.20993 -1.5055 -17.6866
vn -0.345185 -0.885404 0.3113
v -4.20164 -1.50861 -17.6877
vn -0.253937 -0.919612 0.299717
v -4.19314 -1.51091 -17.689
vn -0.160244 -0.944963 0.285248
v -4.18449 -1.51238 -17.6905
vn -0.0650071 -0.961214 0.268032
v -4.17579 -1.51302 -17.6923
vn 0.0308558 -0.968208 0.248234
v -4.16711 -1.51281 -17.6943
vn 0.126421 -0.965878 0.226046
v -4.15855 -1.51175 -17.6966
vn 0.22077 -0.954246 0.201681
v -4.15017 -1.50986 -17.6989
vn 0.312992 -0.933424 0.175374
v -4.14207 -1.50715 -17.7015
vn 0.4022 -0.903612 0.147378
v -4.13433 -1.50366 -17.7042
vn 0.487534 -0.865099 0.117962
v -4.12701 -1.49941 -17.7069
vn 0.568173 -0.818254 0.0874102
v -4.12018 -1.49444 -17.7098
vn 0.64334 -0.763528 0.0560167
v -4.11392 -1.4888 -17.7127
vn 0.712312 -0.70145 0.0240838
v -4.10828 -1.48255 -17.7156
vn 0.774424 -0.632616 -0.00808115
v -4.10332 -1.47575 -17.7185
vn 0.829077 -0.557689 -0.0401682
v -4.09908 -1.46846 -17.7214
vn 0.875746 -0.477392 -0.0718685
v -4.09561 -1.46075 -17.7242
vn 0.913981 -0.392497 -0.102877
v -4.09294 -1.4527 -17.7269
vn 0.943415 -0.303823 -0.132894
v -4.09109 -1.44439 -17.7295
vn 0.963762 -0.212222 -0.161631
v -4.09009 -1.43588 -17.732
vn 0.974828 -0.118578 -0.188812
v -4.08994 -1.42728 -17.7343
vn 0.976506 -0.0237911 -0.214175
v -4.09064 -1.41865 -17.7364
vn 0.968779 0.0712245 -0.237475
v -4.09219 -1.41009 -17.7383
vn 0.951723 0.165554 -0.258488
v -4.09457 -1.40167 -17.74
vn 0.925501 0.258289 -0.277011
v -4.09776 -1.39348 -17.7415
vn 0.890366 0.348537 -0.292867
v -4.10172 -1.38559 -17.7426
vn 0.846656 0.435428 -0.305902
v -4.10643 -1.37808 -17.7435
vn 0.794792 0.518126 -0.315992
v -4.11184 -1.37103 -17.7442
vn 0.735274 0.595834 -0.323038
v -4.11788 -1.36449 -17.7445
vn 0.668675 0.667804 -0.326973
v -4.12451 -1.35854 -17.7446
vn 0.595637 0.733342 -0.327759
v -4.13166 -1.35323 -17.7444
vn 0.516862 0.791818 -0.325389
v -4.13927 -1.34862 -17.7439
vn 0.433109 0.842669 -0.319885
v -4.14725 -1.34474 -17.7431
vn 0.345185 0.885404 -0.3113
v -4.15553 -1.34163 -17.7421
vn 0.253937 0.919612 -0.299717
v -4.16404 -1.33933 -17.7408
vn 0.160244 0.944963 -0.285248
v -4.17269 -1.33785 -17.7392
vn 0.0650071 0.961214 -0.268032
v -4.18139 -1.33722 -17.7374
vn -0.0308558 0.968208 -0.248234
v -4.79333 -2.05716 -20.4123
vn -0.130913 0.960384 -0.246018
v -4.80341 -2.0584 -20.4097
vn -0.22524 0.948778 -0.221557
v -4.81327 -2.06062 -20.4068
vn -0.317397 0.928035 -0.194962
v -4.82279 -2.06379 -20.4038
vn -0.406498 0.898354 -0.16649
v -4.8319 -2.06789 -20.4005
vn -0.491684 0.860022 -0.136414
v -4.8405 -2.07287 -20.3972
vn -0.572134 0.813408 -0.105024
v -4.84851 -2.07869 -20.3937
vn -0.647075 0.75896 -0.0726228
v -4.85586 -2.08529 -20.3902
vn -0.715784 0.697202 -0.0395223
v -4.86246 -2.09261 -20.3866
vn -0.7776 0.62873 -0.00604118
v -4.86827 -2.10058 -20.383
vn -0.831927 0.554204 0.0274981
v -4.87322 -2.10912 -20.3795
vn -0.878242 0.47434 0.0607726
v -4.87727 -2.11814 -20.376
vn -0.916099 0.389907 0.0934618
v -4.88037 -2.12757 -20.3726
vn -0.945133 0.30172 0.125251
v -4.8825 -2.13731 -20.3693
vn -0.965066 0.210627 0.155834
v -4.88364 -2.14727 -20.3662
vn -0.975704 0.117506 0.184916
v -4.88377 -2.15734 -20.3633
vn -0.976946 0.0232525 0.212217
v -4.8829 -2.16744 -20.3606
vn -0.968779 -0.0712245 0.237475
v -4.88103 -2.17747 -20.3581
vn -0.951282 -0.165016 0.260445
v -4.87818 -2.18732 -20.3559
vn -0.924624 -0.257217 0.280908
v -4.87438 -2.19692 -20.354
vn -0.889062 -0.346942 0.298665
v -4.86966 -2.20615 -20.3524
vn -0.844937 -0.433326 0.313545
v -4.86408 -2.21494 -20.3512
vn -0.792675 -0.515536 0.325406
v -4.85767 -2.2232 -20.3502
vn -0.732779 -0.592782 0.334134
v -4.85051 -2.23085 -20.3497
vn -0.665826 -0.664318 0.339643
v -4.84267 -2.23781 -20.3494
vn -0.592461 -0.729457 0.341881
v -4.83422 -2.24402 -20.3495
vn -0.51339 -0.787571 0.340827
v -4.82524 -2.24942 -20.35
vn -0.429374 -0.8381 0.336491
v -4.81581 -2.25396 -20.3508
vn -0.341224 -0.880558 0.328914
v -4.80604 -2.25759 -20.352
vn -0.249788 -0.914535 0.318169
v -4.79601 -2.26029 -20.3534
vn -0.155946 -0.939705 0.30436
v -4.78581 -2.26201 -20.3552
vn -0.0606017 -0.955825 0.28762
v -4.77556 -2.26275 -20.3573
vn 0.0353259 -0.96274 0.26811
v -4.76534 -2.2625 -20.3597
vn 0.130913 -0.960384 0.246018
v -4.75526 -2.26126 -20.3623
vn 0.22524 -0.948778 0.221557
v -4.7454 -2.25904 -20.3651
vn 0.317397 -0.928035 0.194962
v -4.73588 -2.25586 -20.3682
vn 0.406498 -0.898354 0.16649
v -4.72677 -2.25177 -20.3714
vn 0.491684 -0.860022 0.136414
v -4.71817 -2.24678 -20.3747
vn 0.572134 -0.813408 0.105024
v -4.71016 -2.24096 -20.3782
vn 0.647075 -0.75896 0.0726228
v -4.70281 -2.23436 -20.3817
vn 0.715784 -0.697202 0.0395223
v -4.69621 -2.22704 -20.3853
vn 0.7776 -0.62873 0.00604118
v -4.6904 -2.21907 -20.3889
vn 0.831927 -0.554204 -0.0274981
v -4.68545 -2.21054 -20.3925
vn 0.878242 -0.47434 -0.0607726
v -4.6814 -2.20151 -20.396
vn 0.916099 -0.389907 -0.0934618
v -4.6783 -2.19208 -20.3994
vn 0.945133 -0.30172 -0.125251
v -4.67617 -2.18234 -20.4026
vn 0.965066 -0.210627 -0.155834
v -4.67503 -2.17239 -20.4057
vn 0.975704 -0.117506 -0.184916
v -4.6749 -2.16231 -20.4087
vn 0.976946 -0.0232525 -0.212217
v -4.67577 -2.15221 -20.4114
vn 0.968779 0.0712245 -0.237475
v -4.67764 -2.14219 -20.4138
vn 0.951282 0.165016 -0.260445
v -4.68049 -2.13233 -20.416
vn 0.924624 0.257217 -0.280908
v -4.68429 -2.12274 -20.4179
vn 0.889062 0.346942 -0.298665
v -4.68901 -2.1135 -20.4195
vn 0.844937 0.433326 -0.313545
v -4.69459 -2.10471 -20.4208
vn 0.792675 0.515536 -0.325406
v -4.701 -2.09646 -20.4217
vn 0.732779 0.592782 -0.334134
v -4.70816 -2.08881 -20.4223
vn 0.665826 0.664318 -0.339643
v -4.716 -2.08184 -20.4225
vn 0.592461 0.729457 -0.341881
v -4.72445 -2.07563 -20.4224
vn 0.51339 0.787571 -0.340827
v -4.73343 -2.07023 -20.4219
vn 0.429374 0.8381 -0.336491
v -4.74286 -2.06569 -20.4211
vn 0.341224 0.880558 -0.328914
v -4.75263 -2.06206 -20.42
vn 0.249788 0.914535 -0.318169
v -4.76266 -2.05937 -20.4185
vn 0.155946 0.939705 -0.30436
v -4.77286 -2.05765 -20.4167
vn 0.0606017 0.955825 -0.28762
v -4.78311 -2.05691 -20.4146
vn -0.0353259 0.96274 -0.26811
v -5.38327 -2.82798 -23.0501
vn -0.135429 0.954341 -0.266255
v -5.39487 -2.82941 -23.0471
vn -0.229734 0.942765 -0.241696
v -5.4062 -2.83195 -23.0438
vn -0.321827 0.922109 -0.214809
v -5.41715 -2.83558 -23.0402
vn -0.41082 0.892572 -0.185854
v -5.42761 -2.84027 -23.0364
vn -0.495856 0.85444 -0.155109
v -5.43748 -2.84597 -23.0325
vn -0.576117 0.808079 -0.122871
v -5.44668 -2.85264 -23.0284
vn -0.65083 0.753936 -0.0894486
v -5.4551 -2.86019 -23.0241
vn -0.719275 0.692532 -0.0551651
v -5.46266 -2.86856 -23.0199
vn -0.780793 0.624458 -0.0203503
v -5.46931 -2.87768 -23.0156
vn -0.834792 0.55037 0.0146604
v -5.47496 -2.88744 -23.0113
vn -0.880751 0.470983 0.04953
v -5.47957 -2.89777 -23.007
vn -0.918228 0.387059 0.0839226
v -5.48309 -2.90855 -23.0029
vn -0.946862 0.299408 0.117507
v -5.48549 -2.91969 -22.9989
vn -0.966377 0.208873 0.14996
v -5.48675 -2.93108 -22.9951
vn -0.976585 0.116327 0.180968
v -5.48685 -2.9426 -22.9915
vn -0.977388 0.0226603 0.210234
v -5.48579 -2.95415 -22.9881
vn -0.968779 -0.0712245 0.237475
v -5.48358 -2.96561 -22.9851
vn -0.95084 -0.164423 0.262429
v -5.48025 -2.97688 -22.9823
vn -0.923743 -0.256039 0.284855
v -5.47582 -2.98785 -22.9799
vn -0.887751 -0.345188 0.304539
v -5.47034 -2.99841 -22.9778
vn -0.843209 -0.431013 0.321289
v -5.46386 -3.00846 -22.9762
vn -0.790546 -0.512688 0.334946
v -5.45645 -3.0179 -22.9749
vn -0.73027 -0.589425 0.345376
v -5.44817 -3.02664 -22.974
vn -0.662961 -0.660485 0.352481
v -5.4391 -3.0346 -22.9735
vn -0.589267 -0.725185 0.35619
v -5.42934 -3.0417 -22.9735
vn -0.509899 -0.7829 0.35647
v -5.41897 -3.04787 -22.9739
vn -0.425619 -0.833076 0.353316
v -5.4081 -3.05306 -22.9747
vn -0.337241 -0.875229 0.34676
v -5.39683 -3.05721 -22.9759
vn -0.245615 -0.908953 0.336865
v -5.38526 -3.06028 -22.9775
vn -0.151624 -0.933923 0.323725
v -5.37352 -3.06224 -22.9795
vn -0.0561722 -0.949899 0.307468
v -5.36171 -3.06308 -22.9819
vn 0.0398204 -0.956727 0.288249
v -5.34995 -3.06279 -22.9846
vn 0.135429 -0.954341 0.266255
v -5.33835 -3.06137 -22.9876
vn 0.229734 -0.942765 0.241696
v -5.32702 -3.05883 -22.9909
vn 0.321827 -0.922109 0.214809
v -5.31607 -3.05519 -22.9945
vn 0.41082 -0.892572 0.185854
v -5.30561 -3.0505 -22.9983
vn 0.495856 -0.85444 0.155109
v -5.29573 -3.0448 -23.0022
vn 0.576117 -0.808079 0.122871
v -5.28654 -3.03814 -23.0064
vn 0.65083 -0.753936 0.0894486
v -5.27812 -3.03058 -23.0106
vn 0.719275 -0.692532 0.0551651
v -5.27055 -3.02221 -23.0149
vn 0.780793 -0.624458 0.0203503
v -5.26391 -3.01309 -23.0192
vn 0.834792 -0.55037 -0.0146604
v -5.25826 -3.00333 -23.0235
vn 0.880751 -0.470983 -0.04953
v -5.25365 -2.993 -23.0277
vn 0.918228 -0.387059 -0.0839226
v -5.25012 -2.98222 -23.0318
vn 0.946862 -0.299408 -0.117507
v -5.24772 -2.97108 -23.0358
vn 0.966377 -0.208873 -0.14996
v -5.24647 -2.9597 -23.0396
vn 0.976585 -0.116327 -0.180968
v -5.24637 -2.94817 -23.0432
vn 0.977388 -0.0226603 -0.210234
v -5.24743 -2.93662 -23.0466
vn 0.968779 0.0712245 -0.237475
v -5.24963 -2.92516 -23.0496
vn 0.95084 0.164423 -0.262429
v -5.25297 -2.91389 -23.0524
vn 0.923743 0.256039 -0.284855
v -5.2574 -2.90292 -23.0548
vn 0.887751 0.345188 -0.304539
v -5.26288 -2.89236 -23.0569
vn 0.843209 0.431013 -0.321289
v -5.26935 -2.88231 -23.0586
vn 0.790546 0.512688 -0.334946
v -5.27677 -2.87287 -23.0599
vn 0.73027 0.589425 -0.345376
v -5.28505 -2.86413 -23.0607
vn 0.662961 0.660485 -0.352481
v -5.29412 -2.85617 -23.0612
vn 0.589267 0.725185 -0.35619
v -5.30388 -2.84907 -23.0612
vn 0.509899 0.7829 -0.35647
v -5.31425 -2.8429 -23.0608
vn 0.425619 0.833076 -0.353316
v -5.32512 -2.83771 -23.06
vn 0.337241 0.875229 -0.34676
v -5.33639 -2.83356 -23.0588
vn 0.245615 0.908953 -0.336865
v -5.34796 -2.83049 -23.0572
vn 0.151624 0.933923 -0.323725
v -5.3597 -2.82853 -23.0552
vn 0.0561722 0.949899 -0.307468
v -5.37151 -2.82769 -23.0528
vn -0.0398204 0.956727 -0.288249
v -5.95989 -3.64993 -25.6489
vn -0.139963 0.947732 -0.28673
v -5.973 -3.65153 -25.6455
vn -0.234246 0.936187 -0.262073
v -5.98581 -3.6544 -25.6417
vn -0.326273 0.915627 -0.234892
v -5.99818 -3.65848 -25.6376
vn -0.415158 0.886248 -0.205448
v -6.00999 -3.66376 -25.6333
vn -0.500044 0.848334 -0.174027
v -6.02113 -3.67017 -25.6287
vn -0.580115 0.80225 -0.140929
v -6.03149 -3.67766 -25.6239
vn -0.6546 0.74844 -0.106474
v -6.04098 -3.68615 -25.6189
vn -0.72278 0.687423 -0.0709931
v -6.0495 -3.69556 -25.6139
vn -0.783999 0.619785 -0.0348289
v -6.05696 -3.7058 -25.6088
vn -0.837668 0.546178 0.00167074
v -6.06331 -3.71677 -25.6037
vn -0.883269 0.467311 0.0381543
v -6.06847 -3.72837 -25.5987
vn -0.920365 0.383943 0.0742704
v -6.0724 -3.74049 -25.5938
vn -0.948597 0.296879 0.109671
v -6.07506 -3.753 -25.589
vn -0.967693 0.206955 0.144016
v -6.07642 -3.76579 -25.5844
vn -0.97747 0.115037 0.176973
v -6.07647 -3.77873 -25.5801
vn -0.977833 0.0220125 0.208227
v -6.07521 -3.79171 -25.576
vn -0.968779 -0.0712245 0.237475
v -6.07265 -3.80458 -25.5723
vn -0.950395 -0.163776 0.264436
v -6.06882 -3.81724 -25.5689
vn -0.922859 -0.254749 0.28885
v -6.06375 -3.82956 -25.5658
vn -0.886435 -0.34327 0.310483
v -6.05749 -3.84142 -25.5633
vn -0.841474 -0.428484 0.329125
v -6.05011 -3.8527 -25.5611
vn -0.788409 -0.509572 0.344598
v -6.04167 -3.8633 -25.5594
vn -0.727751 -0.585753 0.356752
v -6.03225 -3.87311 -25.5582
vn -0.660085 -0.656292 0.36547
v -6.02196 -3.88205 -25.5575
vn -0.586062 -0.720511 0.370669
v -6.01087 -3.89002 -25.5572
vn -0.506394 -0.777791 0.372298
v -5.99911 -3.89695 -25.5575
vn -0.42185 -0.827581 0.370341
v -5.98678 -3.90276 -25.5583
vn -0.333243 -0.8694 0.364818
v -5.974 -3.90742 -25.5595
vn -0.241427 -0.902847 0.355782
v -5.9609 -3.91086 -25.5613
vn -0.147286 -0.927598 0.343319
v -5.94761 -3.91306 -25.5635
vn -0.0517261 -0.943417 0.32755
v -5.93424 -3.914 -25.5661
vn 0.0443318 -0.95015 0.308626
v -5.92094 -3.91366 -25.5692
vn 0.139963 -0.947732 0.28673
v -5.90782 -3.91206 -25.5726
vn 0.234246 -0.936187 0.262073
v -5.89501 -3.9092 -25.5764
vn 0.326273 -0.915627 0.234892
v -5.88265 -3.90511 -25.5805
vn 0.415158 -0.886248 0.205448
v -5.87083 -3.89983 -25.5848
vn 0.500044 -0.848334 0.174027
v -5.85969 -3.89342 -25.5894
vn 0.580115 -0.80225 0.140929
v -5.84933 -3.88593 -25.5942
vn 0.6546 -0.74844 0.106474
v -5.83984 -3.87744 -25.5992
vn 0.72278 -0.687423 0.0709931
v -5.83132 -3.86803 -25.6042
vn 0.783999 -0.619785 0.0348289
v -5.82386 -3.85779 -25.6093
vn 0.837668 -0.546178 -0.00167074
v -5.81751 -3.84682 -25.6144
vn 0.883269 -0.467311 -0.0381543
v -5.81235 -3.83522 -25.6194
vn 0.920365 -0.383943 -0.0742704
v -5.80842 -3.8231 -25.6243
vn 0.948597 -0.296879 -0.109671
v -5.80577 -3.81059 -25.6291
vn 0.967693 -0.206955 -0.144016
v -5.80441 -3.7978 -25.6337
vn 0.97747 -0.115037 -0.176973
v -5.80435 -3.78486 -25.638
vn 0.977833 -0.0220125 -0.208227
v -5.80561 -3.77189 -25.6421
vn 0.968779 0.0712245 -0.237475
v -5.80817 -3.75901 -25.6458
vn 0.950395 0.163776 -0.264436
v -5.812 -3.74635 -25.6492
vn 0.922859 0.254749 -0.28885
v -5.81707 -3.73403 -25.6522
vn 0.886435 0.34327 -0.310483
v -5.82333 -3.72218 -25.6548
vn 0.841474 0.428484 -0.329125
v -5.83071 -3.71089 -25.657
vn 0.788409 0.509572 -0.344598
v -5.83915 -3.70029 -25.6587
vn 0.727751 0.585753 -0.356752
v -5.84857 -3.69048 -25.6599
vn 0.660085 0.656292 -0.36547
v -5.85887 -3.68154 -25.6606
vn 0.586062 0.720511 -0.370669
v -5.86995 -3.67357 -25.6608
vn 0.506394 0.777791 -0.372298
v -5.88171 -3.66665 -25.6606
vn 0.42185 0.827581 -0.370341
v -5.89404 -3.66083 -25.6598
vn 0.333243 0.8694 -0.364818
v -5.90682 -3.65617 -25.6585
vn 0.241427 0.902847 -0.355782
v -5.91992 -3.65273 -25.6568
vn 0.147286 0.927598 -0.343319
v -5.93321 -3.65053 -25.6546
vn 0.0517261 0.943417 -0.32755
v -5.94658 -3.64959 -25.652
vn -0.0443318 0.95015 -0.308626
v -6.52318 -4.52303 -28.2087
vn -0.144505 0.940538 -0.307418
v -6.53781 -4.52482 -28.2049
vn -0.238766 0.929028 -0.282661
v -6.55209 -4.52799 -28.2006
vn -0.330728 0.908571 -0.255182
v -6.56587 -4.53253 -28.196
vn -0.419504 0.879364 -0.225246
v -6.57903 -4.53838 -28.191
vn -0.504241 0.841688 -0.19314
v -6.59143 -4.54549 -28.1857
vn -0.584121 0.795906 -0.159174
v -6.60296 -4.55378 -28.1802
vn -0.658376 0.742459 -0.123675
v -6.6135 -4.56319 -28.1745
vn -0.726291 0.681862 -0.0869852
v -6.62296 -4.57362 -28.1687
vn -0.787211 0.614698 -0.0494575
v -6.63124 -4.58497 -28.1628
vn -0.840549 0.541614 -0.0114536
v -6.63827 -4.59712 -28.1569
vn -0.885793 0.463314 0.0266606
v -6.64397 -4.60997 -28.151
vn -0.922506 0.380552 0.0645181
v -6.64829 -4.62339 -28.1452
vn -0.950335 0.294126 0.101754
v -6.65119 -4.63725 -28.1396
vn -0.969011 0.204866 0.13801
v -6.65264 -4.65141 -28.1342
vn -0.978356 0.113634 0.172937
v -6.65263 -4.66575 -28.129
vn -0.978278 0.0213074 0.206199
v -6.65115 -4.68012 -28.1242
vn -0.968779 -0.0712245 0.237475
v -6.64823 -4.69438 -28.1196
vn -0.94995 -0.16307 0.266464
v -6.64388 -4.70839 -28.1155
vn -0.921973 -0.253346 0.292886
v -6.63816 -4.72203 -28.1119
vn -0.885116 -0.341181 0.316488
v -6.63112 -4.73516 -28.1087
vn -0.839735 -0.425731 0.337042
v -6.62281 -4.74765 -28.106
vn -0.786268 -0.506181 0.35435
v -6.61334 -4.75938 -28.1038
vn -0.725228 -0.581756 0.368246
v -6.60278 -4.77024 -28.1022
vn -0.657203 -0.651728 0.378595
v -6.59123 -4.78013 -28.1012
vn -0.58285 -0.715424 0.385298
v -6.57882 -4.78895 -28.1007
vn -0.502883 -0.77223 0.38829
v -6.56565 -4.79662 -28.1009
vn -0.418073 -0.821599 0.387543
v -6.55186 -4.80305 -28.1015
vn -0.329237 -0.863056 0.383064
v -6.53757 -4.8082 -28.1028
vn -0.23723 -0.896201 0.374895
v -6.52293 -4.81201 -28.1046
vn -0.142939 -0.920714 0.363116
v -6.50808 -4.81444 -28.107
vn -0.047271 -0.936361 0.34784
v -6.49315 -4.81546 -28.1099
vn 0.0488523 -0.942991 0.329215
v -6.4783 -4.81508 -28.1133
vn 0.144505 -0.940538 0.307418
v -6.46367 -4.8133 -28.1171
vn 0.238766 -0.929028 0.282661
v -6.44939 -4.81012 -28.1214
vn 0.330728 -0.908571 0.255182
v -6.43561 -4.80559 -28.126
vn 0.419504 -0.879364 0.225246
v -6.42245 -4.79974 -28.131
vn 0.504241 -0.841688 0.19314
v -6.41005 -4.79263 -28.1363
vn 0.584121 -0.795906 0.159174
v -6.39852 -4.78433 -28.1418
vn 0.658376 -0.742459 0.123675
v -6.38798 -4.77492 -28.1475
vn 0.726291 -0.681862 0.0869852
v -6.37852 -4.76449 -28.1533
vn 0.787211 -0.614698 0.0494575
v -6.37024 -4.75315 -28.1592
vn 0.840549 -0.541614 0.0114536
v -6.36321 -4.74099 -28.1652
vn 0.885793 -0.463314 -0.0266606
v -6.35751 -4.72814 -28.171
vn 0.922506 -0.380552 -0.0645181
v -6.35319 -4.71472 -28.1768
vn 0.950335 -0.294126 -0.101754
v -6.35029 -4.70086 -28.1824
vn 0.969011 -0.204866 -0.13801
v -6.34884 -4.6867 -28.1879
vn 0.978356 -0.113634 -0.172937
v -6.34885 -4.67237 -28.193
vn 0.978278 -0.0213074 -0.206199
v -6.35033 -4.658 -28.1979
vn 0.968779 0.0712245 -0.237475
v -6.35325 -4.64374 -28.2024
vn 0.94995 0.16307 -0.266464
v -6.3576 -4.62972 -28.2065
vn 0.921973 0.253346 -0.292886
v -6.36332 -4.61609 -28.2102
vn 0.885116 0.341181 -0.316488
v -6.37036 -4.60296 -28.2133
vn 0.839735 0.425731 -0.337042
v -6.37866 -4.59047 -28.216
vn 0.786268 0.506181 -0.35435
v -6.38814 -4.57873 -28.2182
vn 0.725228 0.581756 -0.368246
v -6.3987 -4.56787 -28.2198
vn 0.657203 0.651728 -0.378595
v -6.41025 -4.55798 -28.2208
vn 0.58285 0.715424 -0.385298
v -6.42266 -4.54916 -28.2213
vn 0.502883 0.77223 -0.38829
v -6.43583 -4.5415 -28.2212
vn 0.418073 0.821599 -0.387543
v -6.44962 -4.53506 -28.2205
vn 0.329237 0.863056 -0.383064
v -6.46391 -4.52991 -28.2192
vn 0.23723 0.896201 -0.374895
v -6.47855 -4.52611 -28.2174
vn 0.142939 0.920714 -0.363116
v -6.4934 -4.52368 -28.215
vn 0.047271 0.936361 -0.34784
v -6.50832 -4.52265 -28.2121
vn -0.0488523 0.942991 -0.329215
v -7.07314 -5.44732 -30.7295
vn -0.149048 0.932744 -0.328289
v -7.08929 -5.44929 -30.7253
vn -0.243287 0.921271 -0.303431
v -7.10504 -5.45277 -30.7205
vn -0.335183 0.900926 -0.275652
v -7.12023 -5.45775 -30.7153
vn -0.423852 0.871905 -0.245218
v -7.13473 -5.46416 -30.7097
vn -0.508438 0.834487 -0.212422
v -7.14839 -5.47195 -30.7037
vn -0.588128 0.789032 -0.17758
v -7.16107 -5.48104 -30.6975
vn -0.662154 0.735978 -0.141028
v -7.17267 -5.49135 -30.691
vn -0.729803 0.675836 -0.103118
v -7.18306 -5.50277 -30.6843
vn -0.790423 0.609186 -0.0642152
v -7.19214 -5.5152 -30.6775
vn -0.843431 0.536669 -0.0246937
v -7.19983 -5.52851 -30.6707
vn -0.888317 0.458984 0.0150656
v -7.20606 -5.54258 -30.6639
vn -0.924648 0.376878 0.0546798
v -7.21076 -5.55727 -30.6572
vn -0.952073 0.291143 0.0937674
v -7.21389 -5.57245 -30.6507
vn -0.97033 0.202604 0.131952
v -7.21541 -5.58796 -30.6443
vn -0.979242 0.112113 0.168866
v -7.21533 -5.60365 -30.6383
vn -0.978723 0.0205434 0.204153
v -7.21362 -5.61938 -30.6326
vn -0.968779 -0.0712245 0.237475
v -7.21032 -5.63498 -30.6273
vn -0.949505 -0.162306 0.268509
v -7.20545 -5.65033 -30.6224
vn -0.921086 -0.251825 0.296958
v -7.19906 -5.66525 -30.618
vn -0.883797 -0.338919 0.322546
v -7.19121 -5.67962 -30.6142
vn -0.837997 -0.422748 0.345029
v -7.18198 -5.69329 -30.6109
vn -0.784126 -0.502507 0.364188
v -7.17145 -5.70613 -30.6082
vn -0.722704 -0.577426 0.379841
v -7.15973 -5.71801 -30.6061
vn -0.654321 -0.646784 0.391835
v -7.14693 -5.72883 -30.6047
vn -0.579637 -0.709913 0.400055
v -7.13318 -5.73848 -30.604
vn -0.499371 -0.766205 0.404423
v -7.1186 -5.74686 -30.6039
vn -0.414296 -0.815118 0.404896
v -7.10333 -5.7539 -30.6045
vn -0.325231 -0.856182 0.40147
v -7.08753 -5.75952 -30.6057
vn -0.233033 -0.888999 0.394177
v -7.07135 -5.76368 -30.6076
vn -0.138592 -0.913256 0.383088
v -7.05493 -5.76633 -30.6102
vn -0.0428154 -0.928717 0.36831
v -7.03845 -5.76745 -30.6133
vn 0.0533733 -0.935234 0.349985
v -7.02205 -5.76702 -30.617
vn 0.149048 -0.932744 0.328289
v -7.0059 -5.76505 -30.6213
vn 0.243287 -0.921271 0.303431
v -6.99015 -5.76157 -30.626
vn 0.335183 -0.900926 0.275652
v -6.97496 -5.75659 -30.6313
vn 0.423852 -0.871905 0.245218
v -6.96046 -5.75018 -30.6369
vn 0.508438 -0.834487 0.212422
v -6.9468 -5.74239 -30.6429
vn 0.588128 -0.789032 0.17758
v -6.93412 -5.7333 -30.6491
vn 0.662154 -0.735978 0.141028
v -6.92252 -5.72299 -30.6556
vn 0.729803 -0.675836 0.103118
v -6.91214 -5.71157 -30.6623
vn 0.790423 -0.609186 0.0642152
v -6.90305 -5.69914 -30.6691
vn 0.843431 -0.536669 0.0246937
v -6.89536 -5.68583 -30.6759
vn 0.888317 -0.458984 -0.0150656
v -6.88913 -5.67176 -30.6827
vn 0.924648 -0.376878 -0.0546798
v -6.88443 -5.65706 -30.6894
vn 0.952073 -0.291143 -0.0937674
v -6.8813 -5.64189 -30.6959
vn 0.97033 -0.202604 -0.131952
v -6.87978 -5.62638 -30.7022
vn 0.979242 -0.112113 -0.168866
v -6.87987 -5.61069 -30.7083
vn 0.978723 -0.0205434 -0.204153
v -6.88157 -5.59496 -30.714
vn 0.968779 0.0712245 -0.237475
v -6.88487 -5.57935 -30.7193
vn 0.949505 0.162306 -0.268509
v -6.88974 -5.56401 -30.7242
vn 0.921086 0.251825 -0.296958
v -6.89613 -5.54909 -30.7286
vn 0.883797 0.338919 -0.322546
v -6.90398 -5.53472 -30.7324
vn 0.837997 0.422748 -0.345029
v -6.91322 -5.52105 -30.7357
vn 0.784126 0.502507 -0.364188
v -6.92374 -5.50821 -30.7384
vn 0.722704 0.577426 -0.379841
v -6.93546 -5.49633 -30.7404
vn 0.654321 0.646784 -0.391835
v -6.94826 -5.48551 -30.7418
vn 0.579637 0.709913 -0.400055
v -6.96202 -5.47586 -30.7426
vn 0.499371 0.766205 -0.404423
v -6.9766 -5.46748 -30.7427
vn 0.414296 0.815118 -0.404896
v -6.99186 -5.46044 -30.7421
vn 0.325231 0.856182 -0.40147
v -7.00766 -5.45482 -30.7408
vn 0.233033 0.888999 -0.394177
v -7.02384 -5.45066 -30.7389
vn 0.138592 0.913256 -0.383088
v -7.04026 -5.44801 -30.7364
vn 0.0428154 0.928717 -0.36831
v -7.05674 -5.44689 -30.7333
vn -0.0533733 0.935234 -0.349985
v -7.60978 -6.42283 -33.2113
vn -0.153582 0.924335 -0.34931
v -7.62744 -6.42497 -33.2067
vn -0.2478 0.912903 -0.324351
v -7.64466 -6.42876 -33.2014
vn -0.339631 0.892679 -0.296269
v -7.66126 -6.43416 -33.1956
vn -0.428191 0.863858 -0.265333
v -7.67709 -6.44113 -33.1893
vn -0.512627 0.826718 -0.231842
v -7.692 -6.44958 -33.1826
vn -0.592127 0.781616 -0.196119
v -7.70584 -6.45945 -33.1756
vn -0.665924 0.728986 -0.158506
v -7.71847 -6.47064 -33.1682
vn -0.733308 0.669336 -0.119368
v -7.72978 -6.48303 -33.1607
vn -0.793629 0.60324 -0.0790791
v -7.73966 -6.49651 -33.153
vn -0.846308 0.531335 -0.0380292
v -7.74801 -6.51095 -33.1452
vn -0.890836 0.454312 0.00338707
v -7.75475 -6.52621 -33.1374
vn -0.926785 0.372914 0.0447707
v -7.75981 -6.54215 -33.1298
vn -0.953809 0.287925 0.0857231
v -7.76316 -6.5586 -33.1222
vn -0.971646 0.200163 0.12585
v -7.76475 -6.57542 -33.1149
vn -0.980127 0.110473 0.164765
v -7.76457 -6.59244 -33.1079
vn -0.979168 0.0197192 0.202093
v -7.76262 -6.60949 -33.1013
vn -0.968779 -0.0712245 0.237475
v -7.75892 -6.62641 -33.0951
vn -0.94906 -0.161482 0.27057
v -7.75351 -6.64304 -33.0894
vn -0.920202 -0.250185 0.301059
v -7.74644 -6.65922 -33.0842
vn -0.882481 -0.336478 0.328648
v -7.73777 -6.67479 -33.0796
vn -0.836262 -0.419531 0.353073
v -7.7276 -6.68961 -33.0757
vn -0.781989 -0.498543 0.374097
v -7.71601 -6.70352 -33.0724
vn -0.720184 -0.572754 0.391519
v -7.70312 -6.7164 -33.0699
vn -0.651445 -0.641449 0.40517
v -7.68906 -6.72812 -33.068
vn -0.576431 -0.703967 0.414919
v -7.67395 -6.73857 -33.067
vn -0.495866 -0.759705 0.420672
v -7.65795 -6.74765 -33.0666
vn -0.410526 -0.808127 0.422374
v -7.64121 -6.75527 -33.0671
vn -0.321232 -0.848766 0.420008
v -7.62389 -6.76136 -33.0683
vn -0.228844 -0.881231 0.413598
v -7.60615 -6.76585 -33.0702
vn -0.134252 -0.905209 0.403204
v -7.58817 -6.76872 -33.0729
vn -0.038368 -0.920469 0.388927
v -7.57013 -6.76991 -33.0763
vn 0.057886 -0.926865 0.370904
v -7.55218 -6.76944 -33.0803
vn 0.153582 -0.924335 0.34931
v -7.53452 -6.7673 -33.085
vn 0.2478 -0.912903 0.324351
v -7.5173 -6.7635 -33.0903
vn 0.339631 -0.892679 0.296269
v -7.5007 -6.7581 -33.0961
vn 0.428191 -0.863858 0.265333
v -7.48486 -6.75114 -33.1024
vn 0.512627 -0.826718 0.231842
v -7.46996 -6.74268 -33.1091
vn 0.592127 -0.781616 0.196119
v -7.45612 -6.73281 -33.1161
vn 0.665924 -0.728986 0.158506
v -7.44349 -6.72163 -33.1235
vn 0.733308 -0.669336 0.119368
v -7.43218 -6.70924 -33.131
vn 0.793629 -0.60324 0.0790791
v -7.4223 -6.69575 -33.1387
vn 0.846308 -0.531335 0.0380292
v -7.41395 -6.68131 -33.1465
vn 0.890836 -0.454312 -0.00338707
v -7.40721 -6.66605 -33.1542
vn 0.926785 -0.372914 -0.0447707
v -7.40215 -6.65012 -33.1619
vn 0.953809 -0.287925 -0.0857231
v -7.3988 -6.63366 -33.1694
vn 0.971646 -0.200163 -0.12585
v -7.39721 -6.61685 -33.1767
vn 0.980127 -0.110473 -0.164765
v -7.39739 -6.59983 -33.1837
vn 0.979168 -0.0197192 -0.202093
v -7.39934 -6.58278 -33.1904
vn 0.968779 0.0712245 -0.237475
v -7.40304 -6.56586 -33.1966
vn 0.94906 0.161482 -0.27057
v -7.40845 -6.54922 -33.2023
vn 0.920202 0.250185 -0.301059
v -7.41552 -6.53304 -33.2075
vn 0.882481 0.336478 -0.328648
v -7.42419 -6.51747 -33.212
vn 0.836262 0.419531 -0.353073
v -7.43436 -6.50266 -33.216
vn 0.781989 0.498543 -0.374097
v -7.44595 -6.48874 -33.2192
vn 0.720184 0.572754 -0.391519
v -7.45884 -6.47586 -33.2218
vn 0.651445 0.641449 -0.40517
v -7.4729 -6.46414 -33.2236
vn 0.576431 0.703967 -0.414919
v -7.48801 -6.45369 -33.2247
vn 0.495866 0.759705 -0.420672
v -7.50401 -6.44461 -33.225
vn 0.410526 0.808127 -0.422374
v -7.52075 -6.43699 -33.2246
vn 0.321232 0.848766 -0.420008
v -7.53807 -6.43091 -33.2234
vn 0.228844 0.881231 -0.413598
v -7.55581 -6.42641 -33.2214
vn 0.134252 0.905209 -0.403204
v -7.57379 -6.42355 -33.2188
vn 0.038368 0.920469 -0.388927
v -7.59183 -6.42235 -33.2154
vn -0.057886 0.926865 -0.370904
f 1 66 2 
f 1 65 66 
f 2 67 3 
f 2 66 67 
f 3 68 4 
f 3 67 68 
f 4 69 5 
f 4 68 69 
f 5 70 6 
f 5 69 70 
f 6 71 7 
f 6 70 71 
f 7 72 8 
f 7 71 72 
f 8 73 9 
f 8 72 73 
f 9 74 10 
f 9 73 74 
f 10 75 11 
f 10 74 75 
f 11 76 12 
f 11 75 76 
f 12 77 13 
f 12 76 77 
f 13 78 14 
f 13 77 78 
f 14 79 15 
f 14 78 79 
f 15 80 16 
f 15 79 80 
f 16 81 17 
f 16 80 81 
f 17 82 18 
f 17 81 82 
f 18 83 19 
f 18 82 83 
f 19 84 20 
f 19 83 84 
f 20 85 21 
f 20 84 85 
f 21 86 22 
f 21 85 86 
f 22 87 23 
f 22 86 87 
f 23 88 24 
f 23 87 88 
f 24 89 25 
f 24 88 89 
f 25 90 26 
f 25 89 90 
f 26 91 27 
f 26 90 91 
f 27 92 28 
f 27 91 92 
f 28 93 29 
f 28 92 93 
f 29 94 30 
f 29 93 94 
f 30 95 31 
f 30 94 95 
f 31 96 32 
f 31 95 96 
f 32 97 33 
f 32 96 97 
f 33 98 34 
f 33 97 98 
f 34 99 35 
f 34 98 99 
f 35 100 36 
f 35 99 100 
f 36 101 37 
f 36 100 101 
f 37 102 38 
f 37 101 102 
f 38 103 39 
f 38 102 103 
f 39 104 40 
f 39 103 104 
f 40 105 41 
f 40 104 105 
f 41 106 42 
f 41 105 106 
f 42 107 43 
f 42 106 107 
f 43 108 44 
f 43 107 108 
f 44 109 45 
f 44 108 109 
f 45 110 46 
f 45 109 110 
f 46 111 47 
f 46 110 111 
f 47 112 48 
f 47 111 112 
f 48 113 49 
f 48 112 113 
f 49 114 50 
f 49 113 114 
f 50 115 51 
f 50 114 115 
f 51 116 52 
f 51 115 116 
f 52 117 53 
f 52 116 117 
f 53 118 54 
f 53 117 118 
f 54 119 55 
f 54 118 119 
f 55 120 56 
f 55 119 120 
f 56 121 57 
f 56 120 121 
f 57 122 58 
f 57 121 122 
f 58 123 59 
f 58 122 123 
f 59 124 60 
f 59 123 124 
f 60 125 61 
f 60 124 125 
f 61 126 62 
f 61 125 126 
f 62 127 63 
f 62 126 127 
f 63 128 64 
f 63 127 128 
f 64 65 1 
f 64 128 65 
f 65 130 66 
f 65 129 130 
f 66 131 67 
f 66 130 131 
f 67 132 68 
f 67 131 132 
f 68 133 69 
f 68 132 133 
f 69 134 70 
f 69 133 134 
f 70 135 71 
f 70 134 135 
f 71 136 72 
f 71 135 136 
f 72 137 73 
f 72 136 137 
f 73 138 74 
f 73 137 138 
f 74 139 75 
f 74 138 139 
f 75 140 76 
f 75 139 140 
f 76 141 77 
f 76 140 141 
f 77 142 78 
f 77 141 142 
f 78 143 79 
f 78 142 143 
f 79 144 80 
f 79 143 144 
f 80 145 81 
f 80 144 145 
f 81 146 82 
f 81 145 146 
f 82 147 83 
f 82 146 147 
f 83 148 84 
f 83 147 148 
f 84 149 85 
f 84 148 149 
f 85 150 86 
f 85 149 150 
f 86 151 87 
f 86 150 151 
f 87 152 88 
f 87 151 152 
f 88 153 89 
f 88 152 153 
f 89 154 90 
f 89 153 154 
f 90 155 91 
f 90 154 155 
f 91 156 92 
f 91 155 156 
f 92 157 93 
f 92 156 157 
f 93 158 94 
f 93 157 158 
f 94 159 95 
f 94 158 159 
f 95 160 96 
f 95 159 160 
f 96 161 97 
f 96 160 161 
f 97 162 98 
f 97 161 162 
f 98 163 99 
f 98 162 163 
f 99 164 100 
f 99 163 164 
f 100 165 101 
f 100 164 165 
f 101 166 102 
f 101 165 166 
f 102 167 103 
f 102 166 167 
f 103 168 104 
f 103 167 168 
f 104 169 105 
f 104 168 169 
f 105 170 106 
f 105 169 170 
f 106 171 107 
f 106 170 171 
f 107 172 108 
f 107 171 172 
f 108 173 109 
f 108 172 173 
f 109 174 110 
f 109 173 174 
f 110 175 111 
f 110 174 175 
f 111 176 112 
f 111 175 176 
f 112 177 113 
f 112 176 177 
f 113 178 114 
f 113 177 178 
f 114 179 115 
f 114 178 179 
f 115 180 116 
f 115 179 180 
f 116 181 117 
f 116 180 181 
f 117 182 118 
f 117 181 182 
f 118 183 119 
f 118 182 183 
f 119 184 120 
f 119 183 184 
f 120 185 121 
f 120 184 185 
f 121 186 122 
f 121 185 186 
f 122 187 123 
f 122 186 187 
f 123 188 124 
f 123 187 188 
f 124 189 125 
f 124 188 189 
f 125 190 126 
f 125 189 190 
f 126 191 127 
f 126 190 191 
f 127 192 128 
f 127 191 192 
f 128 129 65 
f 128 192 129 
f 129 194 130 
f 129 193 194 
f 130 195 131 
f 130 194 195 
f 131 196 132 
f 131 195 196 
f 132 197 133 
f 132 196 197 
f 133 198 134 
f 133 197 198 
f 134 199 135 
f 134 198 199 
f 135 200 136 
f 135 199 200 
f 136 201 137 
f 136 200 201 
f 137 202 138 
f 137 201 202 
f 138 203 139 
f 138 202 203 
f 139 204 140 
f 139 203 204 
f 140 205 141 
f 140 204 205 
f 141 206 142 
f 141 205 206 
f 142 207 143 
f 142 206 207 
f 143 208 144 
f 143 207 208 
f 144 209 145 
f 144 208 209 
f 145 210 146 
f 145 209 210 
f 146 211 147 
f 146 210 211 
f 147 212 148 
f 147 211 212 
f 148 213 149 
f 148 212 213 
f 149 214 150 
f 149 213 214 
f 150 215 151 
f 150 214 215 
f 151 216 152 
f 151 215 216 
f 152 217 153 
f 152 216 217 
f 153 218 154 
f 153 217 218 
f 154 219 155 
f 154 218 219 
f 155 220 156 
f 155 219 220 
f 156 221 157 
f 156 220 221 
f 157 222 158 
f 157 221 222 
f 158 223 159 
f 158 222 223 
f 159 224 160 
f 159 223 224 
f 160 225 161 
f 160 224 225 
f 161 226 162 
f 161 225 226 
f 162 227 163 
f 162 226 227 
f 163 228 164 
f 163 227 228 
f 164 229 165 
f 164 228 229 
f 165 230 166 
f 165 229 230 
f 166 231 167 
f 166 230 231 
f 167 232 168 
f 167 231 232 
f 168 233 169 
f 168 232 233 
f 169 234 170 
f 169 233 234 
f 170 235 171 
f 170 234 235 
f 171 236 172 
f 171 235 236 
f 172 237 173 
f 172 236 237 
f 173 238 174 
f 173 237 238 
f 174 239 175 
f 174 238 239 
f 175 240 176 
f 175 239 240 
f 176 241 177 
f 176 240 241 
f 177 242 178 
f 177 241 242 
f 178 243 179 
f 178 242 243 
f 179 244 180 
f 179 243 244 
f 180 245 181 
f 180 244 245 
f 181 246 182 
f 181 245 246 
f 182 247 183 
f 182 246 247 
f 183 248 184 
f 183 247 248 
f 184 249 185 
f 184 248 249 
f 185 250 186 
f 185 249 250 
f 186 251 187 
f 186 250 251 
f 187 252 188 
f 187 251 252 
f 188 253 189 
f 188 252 253 
f 189 254 190 
f 189 253 254 
f 190 255 191 
f 190 254 255 
f 191 256 192 
f 191 255 256 
f 192 193 129 
f 192 256 193 
f 193 258 194 
f 193 257 258 
f 194 259 195 
f 194 258 259 
f 195 260 196 
f 195 259 260 
f 196 261 197 
f 196 260 261 
f 197 262 198 
f 197 261 262 
f 198 263 199 
f 198 262 263 
f 199 264 200 
f 199 263 264 
f 200 265 201 
f 200 264 265 
f 201 266 202 
f 201 265 266 
f 202 267 203 
f 202 266 267 
f 203 268 204 
f 203 267 268 
f 204 269 205 
f 204 268 269 
f 205 270 206 
f 205 269 270 
f 206 271 207 
f 206 270 271 
f 207 272 208 
f 207 271 272 
f 208 273 209 
f 208 272 273 
f 209 274 210 
f 209 273 274 
f 210 275 211 
f 210 274 275 
f 211 276 212 
f 211 275 276 
f 212 277 213 
f 212 276 277 
f 213 278 214 
f 213 277 278 
f 214 279 215 
f 214 278 279 
f 215 280 216 
f 215 279 280 
f 216 281 217 
f 216 280 281 
f 217 282 218 
f 217 281 282 
f 218 283 219 
f 218 282 283 
f 219 284 220 
f 219 283 284 
f 220 285 221 
f 220 284 285 
f 221 286 222 
f 221 285 286 
f 222 287 223 
f 222 286 287 
f 223 288 224 
f 223 287 288 
f 224 289 225 
f 224 288 289 
f 225 290 226 
f 225 289 290 
f 226 291 227 
f 226 290 291 
f 227 292 228 
f 227 291 292 
f 228 293 229 
f 228 292 293 
f 229 294 230 
f 229 293 294 
f 230 295 231 
f 230 294 295 
f 231 296 232 
f 231 295 296 
f 232 297 233 
f 232 296 297 
f 233 298 234 
f 233 297 298 
f 234 299 235 
f 234 298 299 
f 235 300 236 
f 235 299 300 
f 236 301 237 
f 236 300 301 
f 237 302 238 
f 237 301 302 
f 238 303 239 
f 238 302 303 
f 239 304 240 
f 239 303 304 
f 240 305 241 
f 240 304 305 
f 241 306 242 
f 241 305 306 
f 242 307 243 
f 242 306 307 
f 243 308 244 
f 243 307 308 
f 244 309 245 
f 244 308 309 
f 245 310 246 
f 245 309 310 
f 246 311 247 
f 246 310 311 
f 247 312 248 
f 247 311 312 
f 248 313 249 
f 248 312 313 
f 249 314 250 
f 249 313 314 
f 250 315 251 
f 250 314 315 
f 251 316 252 
f 251 315 316 
f 252 317 253 
f 252 316 317 
f 253 318 254 
f 253 317 318 
f 254 319 255 
f 254 318 319 
f 255 320 256 
f 255 319 320 
f 256 257 193 
f 256 320 257 
f 257 322 258 
f 257 321 322 
f 258 323 259 
f 258 322 323 
f 259 324 260 
f 259 323 324 
f 260 325 261 
f 260 324 325 
f 261 326 262 
f 261 325 326 
f 262 327 263 
f 262 326 327 
f 263 328 264 
f 263 327 328 
f 264 329 265 
f 264 328 329 
f 265 330 266 
f 265 329 330 
f 266 331 267 
f 266 330 331 
f 267 332 268 
f 267 331 332 
f 268 333 269 
f 268 332 333 
f 269 334 270 
f 269 333 334 
f 270 335 271 
f 270 334 335 
f 271 336 272 
f 271 335 336 
f 272 337 273 
f 272 336 337 
f 273 338 274 
f 273 337 338 
f 274 339 275 
f 274 338 339 
f 275 340 276 
f 275 339 340 
f 276 341 277 
f 276 340 341 
f 277 342 278 
f 277 341 342 
f 278 343 279 
f 278 342 343 
f 279 344 280 
f 279 343 344 
f 280 345 281 
f 280 344 345 
f 281 346 282 
f 281 345 346 
f 282 347 283 
f 282 346 347 
f 283 348 284 
f 283 347 348 
f 284 349 285 
f 284 348 349 
f 285 350 286 
f 285 349 350 
f 286 351 287 
f 286 350 351 
f 287 352 288 
f 287 351 352 
f 288 353 289 
f 288 352 353 
f 289 354 290 
f 289 353 354 
f 290 355 291 
f 290 354 355 
f 291 356 292 
f 291 355 356 
f 292 357 293 
f 292 356 357 
f 293 358 294 
f 293 357 358 
f 294 359 295 
f 294 358 359 
f 295 360 296 
f 295 359 360 
f 296 361 297 
f 296 360 361 
f 297 362 298 
f 297 361 362 
f 298 363 299 
f 298 362 363 
f 299 364 300 
f 299 363 364 
f 300 365 301 
f 300 364 365 
f 301 366 302 
f 301 365 366 
f 302 367 303 
f 302 366 367 
f 303 368 304 
f 303 367 368 
f 304 369 305 
f 304 368 369 
f 305 370 306 
f 305 369 370 
f 306 371 307 
f 306 370 371 
f 307 372 308 
f 307 371 372 
f 308 373 309 
f 308 372 373 
f 309 374 310 
f 309 373 374 
f 310 375 311 
f 310 374 375 
f 311 376 312 
f 311 375 376 
f 312 377 313 
f 312 376 377 
f 313 378 314 
f 313 377 378 
f 314 379 315 
f 314 378 379 
f 315 380 316 
f 315 379 380 
f 316 381 317 
f 316 380 381 
f 317 382 318 
f 317 381 382 
f 318 383 319 
f 318 382 383 
f 319 384 320 
f 319 383 384 
f 320 321 257 
f 320 384 321 
f 321 386 322 
f 321 385 386 
f 322 387 323 
f 322 386 387 
f 323 388 324 
f 323 387 388 
f 324 389 325 
f 324 388 389 
f 325 390 326 
f 325 389 390 
f 326 391 327 
f 326 390 391 
f 327 392 328 
f 327 391 392 
f 328 393 329 
f 328 392 393 
f 329 394 330 
f 329 393 394 
f 330 395 331 
f 330 394 395 
f 331 396 332 
f 331 395 396 
f 332 397 333 
f 332 396 397 
f 333 398 334 
f 333 397 398 
f 334 399 335 
f 334 398 399 
f 335 400 336 
f 335 399 400 
f 336 401 337 
f 336 400 401 
f 337 402 338 
f 337 401 402 
f 338 403 339 
f 338 402 403 
f 339 404 340 
f 339 403 404 
f 340 405 341 
f 340 404 405 
f 341 406 342 
f 341 405 406 
f 342 407 343 
f 342 406 407 
f 343 408 344 
f 343 407 408 
f 344 409 345 
f 344 408 409 
f 345 410 346 
f 345 409 410 
f 346 411 347 
f 346 410 411 
f 347 412 348 
f 347 411 412 
f 348 413 349 
f 348 412 413 
f 349 414 350 
f 349 413 414 
f 350 415 351 
f 350 414 415 
f 351 416 352 
f 351 415 416 
f 352 417 353 
f 352 416 417 
f 353 418 354 
f 353 417 418 
f 354 419 355 
f 354 418 419 
f 355 420 356 
f 355 419 420 
f 356 421 357 
f 356 420 421 
f 357 422 358 
f 357 421 422 
f 358 423 359 
f 358 422 423 
f 359 424 360 
f 359 423 424 
f 360 425 361 
f 360 424 425 
f 361 426 362 
f 361 425 426 
f 362 427 363 
f 362 426 427 
f 363 428 364 
f 363 427 428 
f 364 429 365 
f 364 428 429 
f 365 430 366 
f 365 429 430 
f 366 431 367 
f 366 430 431 
f 367 432 368 
f 367 431 432 
f 368 433 369 
f 368 432 433 
f 369 434 370 
f 369 433 434 
f 370 435 371 
f 370 434 435 
f 371 436 372 
f 371 435 436 
f 372 437 373 
f 372 436 437 
f 373 438 374 
f 373 437 438 
f 374 439 375 
f 374 438 439 
f 375 440 376 
f 375 439 440 
f 376 441 377 
f 376 440 441 
f 377 442 378 
f 377 441 442 
f 378 443 379 
f 378 442 443 
f 379 444 380 
f 379 443 444 
f 380 445 381 
f 380 444 445 
f 381 446 382 
f 381 445 446 
f 382 447 383 
f 382 446 447 
f 383 448 384 
f 383 447 448 
f 384 385 321 
f 384 448 385 
f 385 450 386 
f 385 449 450 
f 386 451 387 
f 386 450 451 
f 387 452 388 
f 387 451 452 
f 388 453 389 
f 388 452 453 
f 389 454 390 
f 389 453 454 
f 390 455 391 
f 390 454 455 
f 391 456 392 
f 391 455 456 
f 392 457 393 
f 392 456 457 
f 393 458 394 
f 393 457 458 
f 394 459 395 
f 394 458 459 
f 395 460 396 
f 395 459 460 
f 396 461 397 
f 396 460 461 
f 397 462 398 
f 397 461 462 
f 398 463 399 
f 398 462 463 
f 399 464 400 
f 399 463 464 
f 400 465 401 
f 400 464 465 
f 401 466 402 
f 401 465 466 
f 402 467 403 
f 402 466 467 
f 403 468 404 
f 403 467 468 
f 404 469 405 
f 404 468 469 
f 405 470 406 
f 405 469 470 
f 406 471 407 
f 406 470 471 
f 407 472 408 
f 407 471 472 
f 408 473 409 
f 408 472 473 
f 409 474 410 
f 409 473 474 
f 410 475 411 
f 410 474 475 
f 411 476 412 
f 411 475 476 
f 412 477 413 
f 412 476 477 
f 413 478 414 
f 413 477 478 
f 414 479 415 
f 414 478 479 
f 415 480 416 
f 415 479 480 
f 416 481 417 
f 416 480 481 
f 417 482 418 
f 417 481 482 
f 418 483 419 
f 418 482 483 
f 419 484 420 
f 419 483 484 
f 420 485 421 
f 420 484 485 
f 421 486 422 
f 421 485 486 
f 422 487 423 
f 422 486 487 
f 423 488 424 
f 423 487 488 
f 424 489 425 
f 424 488 489 
f 425 490 426 
f 425 489 490 
f 426 491 427 
f 426 490 491 
f 427 492 428 
f 427 491 492 
f 428 493 429 
f 428 492 493 
f 429 494 430 
f 429 493 494 
f 430 495 431 
f 430 494 495 
f 431 496 432 
f 431 495 496 
f 432 497 433 
f 432 496 497 
f 433 498 434 
f 433 497 498 
f 434 499 435 
f 434 498 499 
f 435 500 436 
f 435 499 500 
f 436 501 437 
f 436 500 501 
f 437 502 438 
f 437 501 502 
f 438 503 439 
f 438 502 503 
f 439 504 440 
f 439 503 504 
f 440 505 441 
f 440 504 505 
f 441 506 442 
f 441 505 506 
f 442 507 443 
f 442 506 507 
f 443 508 444 
f 443 507 508 
f 444 509 445 
f 444 508 509 
f 445 510 446 
f 445 509 510 
f 446 511 447 
f 446 510 511 
f 447 512 448 
f 447 511 512 
f 448 449 385 
f 448 512 449 
f 449 514 450 
f 449 513 514 
f 450 515 451 
f 450 514 515 
f 451 516 452 
f 451 515 516 
f 452 517 453 
f 452 516 517 
f 453 518 454 
f 453 517 518 
f 454 519 455 
f 454 518 519 
f 455 520 456 
f 455 519 520 
f 456 521 457 
f 456 520 521 
f 457 522 458 
f 457 521 522 
f 458 523 459 
f 458 522 523 
f 459 524 460 
f 459 523 524 
f 460 525 461 
f 460 524 525 
f 461 526 462 
f 461 525 526 
f 462 527 463 
f 462 526 527 
f 463 528 464 
f 463 527 528 
f 464 529 465 
f 464 528 529 
f 465 530 466 
f 465 529 530 
f 466 531 467 
f 466 530 531 
f 467 532 468 
f 467 531 532 
f 468 533 469 
f 468 532 533 
f 469 534 470 
f 469 533 534 
f 470 535 471 
f 470 534 535 
f 471 536 472 
f 471 535 536 
f 472 537 473 
f 472 536 537 
f 473 538 474 
f 473 537 538 
f 474 539 475 
f 474 538 539 
f 475 540 476 
f 475 539 540 
f 476 541 477 
f 476 540 541 
f 477 542 478 
f 477 541 542 
f 478 543 479 
f 478 542 543 
f 479 544 480 
f 479 543 544 
f 480 545 481 
f 480 544 545 
f 481 546 482 
f 481 545 546 
f 482 547 483 
f 482 546 547 
f 483 548 484 
f 483 547 548 
f 484 549 485 
f 484 548 549 
f 485 550 486 
f 485 549 550 
f 486 551 487 
f 486 550 551 
f 487 552 488 
f 487 551 552 
f 488 553 489 
f 488 552 553 
f 489 554 490 
f 489 553 554 
f 490 555 491 
f 490 554 555 
f 491 556 492 
f 491 555 556 
f 492 557 493 
f 492 556 557 
f 493 558 494 
f 493 557 558 
f 494 559 495 
f 494 558 559 
f 495 560 496 
f 495 559 560 
f 496 561 497 
f 496 560 561 
f 497 562 498 
f 497 561 562 
f 498 563 499 
f 498 562 563 
f 499 564 500 
f 499 563 564 
f 500 565 501 
f 500 564 565 
f 501 566 502 
f 501 565 566 
f 502 567 503 
f 502 566 567 
f 503 568 504 
f 503 567 568 
f 504 569 505 
f 504 568 569 
f 505 570 506 
f 505 569 570 
f 506 571 507 
f 506 570 571 
f 507 572 508 
f 507 571 572 
f 508 573 509 
f 508 572 573 
f 509 574 510 
f 509 573 574 
f 510 575 511 
f 510 574 575 
f 511 576 512 
f 511 575 576 
f 512 513 449 
f 512 576 513 
f 513 578 514 
f 513 577 578 
f 514 579 515 
f 514 578 579 
f 515 580 516 
f 515 579 580 
f 516 581 517 
f 516 580 581 
f 517 582 518 
f 517 581 582 
f 518 583 519 
f 518 582 583 
f 519 584 520 
f 519 583 584 
f 520 585 521 
f 520 584 585 
f 521 586 522 
f 521 585 586 
f 522 587 523 
f 522 586 587 
f 523 588 524 
f 523 587 588 
f 524 589 525 
f 524 588 589 
f 525 590 526 
f 525 589 590 
f 526 591 527 
f 526 590 591 
f 527 592 528 
f 527 591 592 
f 528 593 529 
f 528 592 593 
f 529 594 530 
f 529 593 594 
f 530 595 531 
f 530 594 595 
f 531 596 532 
f 531 595 596 
f 532 597 533 
f 532 596 597 
f 533 598 534 
f 533 597 598 
f 534 599 535 
f 534 598 599 
f 535 600 536 
f 535 599 600 
f 536 601 537 
f 536 600 601 
f 537 602 538 
f 537 601 602 
f 538 603 539 
f 538 602 603 
f 539 604 540 
f 539 603 604 
f 540 605 541 
f 540 604 605 
f 541 606 542 
f 541 605 606 
f 542 607 543 
f 542 606 607 
f 543 608 544 
f 543 607 608 
f 544 609 545 
f 544 608 609 
f 545 610 546 
f 545 609 610 
f 546 611 547 
f 546 610 611 
f 547 612 548 
f 547 611 612 
f 548 613 549 
f 548 612 613 
f 549 614 550 
f 549 613 614 
f 550 615 551 
f 550 614 615 
f 551 616 552 
f 551 615 616 
f 552 617 553 
f 552 616 617 
f 553 618 554 
f 553 617 618 
f 554 619 555 
f 554 618 619 
f 555 620 556 
f 555 619 620 
f 556 621 557 
f 556 620 621 
f 557 622 558 
f 557 621 622 
f 558 623 559 
f 558 622 623 
f 559 624 560 
f 559 623 624 
f 560 625 561 
f 560 624 625 
f 561 626 562 
f 561 625 626 
f 562 627 563 
f 562 626 627 
f 563 628 564 
f 563 627 628 
f 564 629 565 
f 564 628 629 
f 565 630 566 
f 565 629 630 
f 566 631 567 
f 566 630 631 
f 567 632 568 
f 567 631 632 
f 568 633 569 
f 568 632 633 
f 569 634 570 
f 569 633 634 
f 570 635 571 
f 570 634 635 
f 571 636 572 
f 571 635 636 
f 572 637 573 
f 572 636 637 
f 573 638 574 
f 573 637 638 
f 574 639 575 
f 574 638 639 
f 575 640 576 
f 575 639 640 
f 576 577 513 
f 576 640 577 
