# Branch
v 11.238 5.24948 -27.4891
vn -0.448207 0.0448078 0.892806
v 11.2601 5.2492 -27.4793
vn -0.358474 0.0436601 0.932518
v 11.2831 5.24881 -27.4717
vn -0.265288 0.0420919 0.96325
v 11.3067 5.24833 -27.4664
vn -0.169547 0.0401183 0.984705
v 11.3307 5.24775 -27.4635
vn -0.0721728 0.0377584 0.996677
v 11.3549 5.24707 -27.4629
vn 0.025896 0.0350348 0.999051
v 11.379 5.24632 -27.4647
vn 0.123715 0.0319738 0.991802
v 11.4028 5.24549 -27.4688
vn 0.220343 0.0286049 0.975003
v 11.4261 5.24459 -27.4753
vn 0.314849 0.0249605 0.948813
v 11.4486 5.24364 -27.484
vn 0.406323 0.0210757 0.913486
v 11.4702 5.24263 -27.4949
vn 0.493884 0.016988 0.869362
v 11.4906 5.24158 -27.5078
vn 0.576688 0.0127367 0.816865
v 11.5096 5.2405 -27.5227
vn 0.653939 0.00836265 0.756501
v 11.5271 5.23941 -27.5393
vn 0.724891 0.00390811 0.688852
v 11.5429 5.2383 -27.5576
vn 0.788863 -0.00058407 0.614569
v 11.5567 5.23719 -27.5774
vn 0.845237 -0.00507063 0.534367
v 11.5686 5.2361 -27.5984
vn 0.893472 -0.00950835 0.449019
v 11.5784 5.23503 -27.6205
vn 0.933101 -0.0138545 0.359346
v 11.5859 5.23399 -27.6435
vn 0.963745 -0.0180672 0.266213
v 11.5912 5.233 -27.6671
vn 0.985107 -0.022106 0.170516
v 11.5941 5.23205 -27.691
vn 0.996982 -0.0259318 0.0731773
v 11.5947 5.23117 -27.7152
vn 0.999255 -0.0295079 -0.0248665
v 11.5929 5.23036 -27.7393
vn 0.991905 -0.0327998 -0.122671
v 11.5887 5.22963 -27.7631
vn 0.975003 -0.0357759 -0.219294
v 11.5822 5.22898 -27.7864
vn 0.94871 -0.0384074 -0.313805
v 11.5735 5.22842 -27.8089
vn 0.913281 -0.040669 -0.405294
v 11.5626 5.22796 -27.8305
vn 0.869057 -0.0425389 -0.492879
v 11.5497 5.2276 -27.8509
vn 0.816463 -0.0439992 -0.575718
v 11.5348 5.22735 -27.87
vn 0.756006 -0.0450357 -0.653013
v 11.5181 5.2272 -27.8875
vn 0.688269 -0.0456386 -0.724019
v 11.4997 5.22716 -27.9032
vn 0.613903 -0.0458019 -0.788052
v 11.48 5.22723 -27.9172
vn 0.533625 -0.0455241 -0.844495
v 11.4589 5.2274 -27.9291
vn 0.448207 -0.0448078 -0.892806
v 11.4368 5.22768 -27.9388
vn 0.358474 -0.0436601 -0.932518
v 11.4138 5.22807 -27.9464
vn 0.265288 -0.0420919 -0.96325
v 11.3903 5.22856 -27.9517
vn 0.169547 -0.0401183 -0.984705
v 11.3663 5.22914 -27.9547
vn 0.0721728 -0.0377584 -0.996677
v 11.3421 5.22981 -27.9552
vn -0.025896 -0.0350348 -0.999051
v 11.318 5.23056 -27.9535
vn -0.123715 -0.0319738 -0.991802
v 11.2942 5.23139 -27.9493
vn -0.220343 -0.0286049 -0.975003
v 11.2709 5.23229 -27.9429
vn -0.314849 -0.0249605 -0.948813
v 11.2484 5.23325 -27.9342
vn -0.406323 -0.0210757 -0.913486
v 11.2268 5.23426 -27.9233
vn -0.493884 -0.016988 -0.869362
v 11.2064 5.2353 -27.9103
vn -0.576688 -0.0127367 -0.816865
v 11.1873 5.23638 -27.8955
vn -0.653939 -0.00836265 -0.756501
v 11.1699 5.23748 -27.8788
vn -0.724891 -0.00390811 -0.688852
v 11.1541 5.23859 -27.8605
vn -0.788863 0.00058407 -0.614569
v 11.1402 5.23969 -27.8407
vn -0.845237 0.00507063 -0.534367
v 11.1283 5.24079 -27.8197
vn -0.893472 0.00950835 -0.449019
v 11.1186 5.24186 -27.7976
vn -0.933101 0.0138545 -0.359346
v 11.111 5.24289 -27.7747
vn -0.963745 0.0180672 -0.266213
v 11.1057 5.24389 -27.7511
vn -0.985107 0.022106 -0.170516
v 11.1028 5.24483 -27.7271
vn -0.996982 0.0259318 -0.0731773
v 11.1023 5.24571 -27.7029
vn -0.999255 0.0295079 0.0248665
v 11.1041 5.24652 -27.6788
vn -0.991905 0.0327998 0.122671
v 11.1082 5.24726 -27.655
vn -0.975003 0.0357759 0.219294
v 11.1147 5.24791 -27.6317
vn -0.94871 0.0384074 0.313805
v 11.1234 5.24846 -27.6092
vn -0.913281 0.040669 0.405294
v 11.1343 5.24892 -27.5876
vn -0.869057 0.0425389 0.492879
v 11.1473 5.24928 -27.5672
vn -0.816463 0.0439992 0.575718
v 11.1622 5.24954 -27.5482
vn -0.756006 0.0450357 0.653013
v 11.1789 5.24969 -27.5307
vn -0.688269 0.0456386 0.724019
v 11.1972 5.24973 -27.5149
vn -0.613903 0.0458019 0.788052
v 11.217 5.24966 -27.501
vn -0.533625 0.0455241 0.844495
v 11.2188 3.56798 -27.4864
vn -0.448992 -0.0427098 0.892514
v 11.2418 3.56779 -27.4762
vn -0.359255 -0.0434361 0.932228
v 11.2657 3.56771 -27.4683
vn -0.266057 -0.0437442 0.962964
v 11.2903 3.56774 -27.4628
vn -0.170298 -0.0436309 0.984426
v 11.3153 3.56788 -27.4597
vn -0.0728979 -0.0430974 0.996408
v 11.3405 3.56812 -27.4591
vn 0.0252038 -0.0421489 0.998793
v 11.3656 3.56847 -27.4609
vn 0.123063 -0.0407945 0.99156
v 11.3904 3.56892 -27.4652
vn 0.219737 -0.0390472 0.974777
v 11.4147 3.56946 -27.472
vn 0.314294 -0.0369238 0.948607
v 11.4381 3.5701 -27.481
vn 0.405825 -0.0344449 0.913301
v 11.4606 3.57082 -27.4923
vn 0.493448 -0.0316342 0.8692
v 11.4819 3.57162 -27.5058
vn 0.576318 -0.0285189 0.816728
v 11.5017 3.57249 -27.5213
vn 0.653638 -0.0251289 0.75639
v 11.52 3.57342 -27.5386
vn 0.724664 -0.0214969 0.688767
v 11.5364 3.57441 -27.5577
vn 0.78871 -0.0176579 0.614512
v 11.5509 3.57544 -27.5783
vn 0.84516 -0.0136489 0.534338
v 11.5633 3.5765 -27.6002
vn 0.893472 -0.00950835 0.449019
v 11.5735 3.57758 -27.6232
vn 0.933178 -0.00527627 0.359375
v 11.5814 3.57868 -27.6471
vn 0.963898 -0.000993374 0.26627
v 11.5869 3.57978 -27.6716
vn 0.985335 0.00329909 0.170601
v 11.5899 3.58088 -27.6966
vn 0.997282 0.00755977 0.0732889
v 11.5905 3.58195 -27.7217
vn 0.999625 0.0117477 -0.0247291
v 11.5887 3.583 -27.7468
vn 0.992341 0.0158224 -0.122509
v 11.5843 3.58401 -27.7716
vn 0.975501 0.0197448 -0.219109
v 11.5776 3.58496 -27.7959
vn 0.949265 0.023477 -0.313599
v 11.5685 3.58586 -27.8193
vn 0.913888 0.0269831 -0.405068
v 11.5572 3.5867 -27.8418
vn 0.86971 0.0302294 -0.492637
v 11.5437 3.58745 -27.8631
vn 0.817155 0.0331845 -0.575461
v 11.5282 3.58813 -27.8829
vn 0.756732 0.03582 -0.652744
v 11.5108 3.58872 -27.9011
vn 0.68902 0.0381106 -0.72374
v 11.4917 3.58921 -27.9176
vn 0.614673 0.0400342 -0.787766
v 11.4711 3.58961 -27.932
vn 0.534406 0.0415722 -0.844205
v 11.4492 3.5899 -27.9444
vn 0.448992 0.0427098 -0.892514
v 11.4262 3.59009 -27.9546
vn 0.359255 0.0434361 -0.932228
v 11.4023 3.59016 -27.9625
vn 0.266057 0.0437442 -0.962964
v 11.3777 3.59014 -27.968
vn 0.170298 0.0436309 -0.984426
v 11.3527 3.59 -27.9711
vn 0.0728979 0.0430974 -0.996408
v 11.3275 3.58975 -27.9717
vn -0.0252038 0.0421489 -0.998793
v 11.3024 3.58941 -27.9699
vn -0.123063 0.0407945 -0.99156
v 11.2776 3.58896 -27.9656
vn -0.219737 0.0390472 -0.974777
v 11.2533 3.58841 -27.9588
vn -0.314294 0.0369238 -0.948607
v 11.2298 3.58778 -27.9498
vn -0.405825 0.0344449 -0.913301
v 11.2074 3.58706 -27.9385
vn -0.493448 0.0316342 -0.8692
v 11.1861 3.58626 -27.925
vn -0.576318 0.0285189 -0.816728
v 11.1663 3.58539 -27.9095
vn -0.653638 0.0251289 -0.75639
v 11.148 3.58445 -27.8922
vn -0.724664 0.0214969 -0.688767
v 11.1316 3.58347 -27.8731
vn -0.78871 0.0176579 -0.614512
v 11.1171 3.58244 -27.8525
vn -0.84516 0.0136489 -0.534338
v 11.1047 3.58138 -27.8306
vn -0.893472 0.00950835 -0.449019
v 11.0945 3.58029 -27.8076
vn -0.933178 0.00527627 -0.359375
v 11.0866 3.57919 -27.7837
vn -0.963898 0.000993374 -0.26627
v 11.0811 3.57809 -27.7592
vn -0.985335 -0.00329909 -0.170601
v 11.0781 3.577 -27.7342
vn -0.997282 -0.00755977 -0.0732889
v 11.0775 3.57592 -27.709
vn -0.999625 -0.0117477 0.0247291
v 11.0793 3.57488 -27.684
vn -0.992341 -0.0158224 0.122509
v 11.0837 3.57387 -27.6592
vn -0.975501 -0.0197448 0.219109
v 11.0904 3.57291 -27.6349
vn -0.949265 -0.023477 0.313599
v 11.0995 3.57201 -27.6114
vn -0.913888 -0.0269831 0.405068
v 11.1108 3.57118 -27.589
vn -0.86971 -0.0302294 0.492637
v 11.1243 3.57042 -27.5677
vn -0.817155 -0.0331845 0.575461
v 11.1398 3.56975 -27.5479
vn -0.756732 -0.03582 0.652744
v 11.1572 3.56916 -27.5297
vn -0.68902 -0.0381106 0.72374
v 11.1763 3.56866 -27.5132
vn -0.614673 -0.0400342 0.787766
v 11.1969 3.56827 -27.4987
vn -0.534406 -0.0415722 0.844205
v 11.2653 1.84522 -27.6153
vn -0.446569 -0.125203 0.885946
v 11.2892 1.84513 -27.6047
vn -0.356843 -0.125532 0.925691
v 11.3141 1.84537 -27.5965
vn -0.263681 -0.124652 0.956522
v 11.3396 1.84592 -27.5907
vn -0.167979 -0.122572 0.978141
v 11.3656 1.84679 -27.5875
vn -0.0706593 -0.119311 0.990339
v 11.3917 1.84797 -27.5868
vn 0.0273408 -0.114901 0.993001
v 11.4178 1.84944 -27.5886
vn 0.125078 -0.109385 0.986099
v 11.4436 1.85119 -27.593
vn 0.22161 -0.102815 0.9697
v 11.4688 1.85321 -27.5999
vn 0.316008 -0.0952552 0.943963
v 11.4931 1.85547 -27.6092
vn 0.407362 -0.0867779 0.909134
v 11.5165 1.85796 -27.6208
vn 0.494794 -0.0774649 0.865551
v 11.5385 1.86064 -27.6346
vn 0.57746 -0.0674058 0.813631
v 11.5591 1.8635 -27.6506
vn 0.654566 -0.0566976 0.753876
v 11.578 1.8665 -27.6685
vn 0.725367 -0.0454434 0.686861
v 11.595 1.86962 -27.6881
vn 0.789183 -0.0337515 0.613231
v 11.61 1.87283 -27.7093
vn 0.845398 -0.0217346 0.533695
v 11.6229 1.87609 -27.7319
vn 0.893472 -0.00950835 0.449019
v 11.6334 1.87938 -27.7557
vn 0.932941 0.00280946 0.360019
v 11.6415 1.88266 -27.7804
vn 0.963425 0.0151002 0.267552
v 11.6472 1.8859 -27.8057
vn 0.984631 0.0272455 0.172508
v 11.6503 1.88907 -27.8315
vn 0.996355 0.0391285 0.0758025
v 11.6509 1.89214 -27.8575
vn 0.998483 0.0506346 -0.0216328
v 11.6489 1.89508 -27.8835
vn 0.990995 0.0616531 -0.11886
v 11.6443 1.89786 -27.9091
vn 0.973963 0.0720778 -0.214942
v 11.6373 1.90046 -27.9342
vn 0.947552 0.0818084 -0.308954
v 11.6278 1.90285 -27.9585
vn 0.912015 0.0907511 -0.399991
v 11.616 1.905 -27.9818
vn 0.867695 0.0988198 -0.487176
v 11.6019 1.9069 -28.0038
vn 0.815018 0.105937 -0.569669
v 11.5858 1.90853 -28.0243
vn 0.754493 0.112034 -0.646675
v 11.5677 1.90987 -28.0432
vn 0.686701 0.117052 -0.717454
v 11.5478 1.9109 -28.0603
vn 0.612296 0.120942 -0.781324
v 11.5264 1.91163 -28.0753
vn 0.531994 0.123668 -0.837668
v 11.5036 1.91204 -28.0882
vn 0.446569 0.125203 -0.885946
v 11.4797 1.91213 -28.0988
vn 0.356843 0.125532 -0.925691
v 11.4548 1.91189 -28.107
vn 0.263681 0.124652 -0.956522
v 11.4293 1.91134 -28.1128
vn 0.167979 0.122572 -0.978141
v 11.4033 1.91047 -28.116
vn 0.0706593 0.119311 -0.990339
v 11.3771 1.90929 -28.1167
vn -0.0273408 0.114901 -0.993001
v 11.3511 1.90782 -28.1149
vn -0.125078 0.109385 -0.986099
v 11.3253 1.90607 -28.1105
vn -0.22161 0.102815 -0.9697
v 11.3001 1.90405 -28.1037
vn -0.316008 0.0952552 -0.943963
v 11.2757 1.90179 -28.0944
vn -0.407362 0.0867779 -0.909134
v 11.2524 1.8993 -28.0827
vn -0.494794 0.0774649 -0.865551
v 11.2303 1.89662 -28.0689
vn -0.57746 0.0674058 -0.813631
v 11.2098 1.89376 -28.0529
vn -0.654566 0.0566976 -0.753876
v 11.1909 1.89076 -28.0351
vn -0.725367 0.0454434 -0.686861
v 11.1738 1.88764 -28.0154
vn -0.789183 0.0337515 -0.613231
v 11.1588 1.88443 -27.9942
vn -0.845398 0.0217346 -0.533695
v 11.146 1.88117 -27.9716
vn -0.893472 0.00950835 -0.449019
v 11.1355 1.87788 -27.9478
vn -0.932941 -0.00280946 -0.360019
v 11.1273 1.8746 -27.9232
vn -0.963425 -0.0151002 -0.267552
v 11.1217 1.87136 -27.8978
vn -0.984631 -0.0272455 -0.172508
v 11.1186 1.86819 -27.872
vn -0.996355 -0.0391285 -0.0758025
v 11.118 1.86512 -27.846
vn -0.998483 -0.0506346 0.0216328
v 11.12 1.86218 -27.82
vn -0.990995 -0.0616531 0.11886
v 11.1245 1.8594 -27.7944
vn -0.973963 -0.0720778 0.214942
v 11.1316 1.8568 -27.7693
vn -0.947552 -0.0818084 0.308954
v 11.1411 1.85441 -27.745
vn -0.912015 -0.0907511 0.399991
v 11.1529 1.85226 -27.7218
vn -0.867695 -0.0988198 0.487176
v 11.1669 1.85036 -27.6997
vn -0.815018 -0.105937 0.569669
v 11.1831 1.84873 -27.6792
vn -0.754493 -0.112034 0.646675
v 11.2012 1.84739 -27.6603
vn -0.686701 -0.117052 0.717454
v 11.221 1.84636 -27.6433
vn -0.612296 -0.120942 0.781324
v 11.2425 1.84563 -27.6282
vn -0.531994 -0.123668 0.837668
v 11.3774 0.0816733 -27.8759
vn -0.441535 -0.201554 0.874313
v 11.4023 0.081684 -27.8649
vn -0.351834 -0.201515 0.914114
v 11.4281 0.0822324 -27.8563
vn -0.258744 -0.199536 0.945112
v 11.4546 0.0833132 -27.8502
vn -0.163162 -0.195635 0.967008
v 11.4815 0.0849161 -27.8467
vn -0.0660086 -0.18985 0.979592
v 11.5086 0.0870256 -27.8459
vn 0.0317802 -0.182237 0.982741
v 11.5356 0.0896214 -27.8476
vn 0.129263 -0.172868 0.976426
v 11.5623 0.0926785 -27.852
vn 0.225501 -0.161835 0.960707
v 11.5883 0.0961674 -27.8589
vn 0.319567 -0.149243 0.935737
v 11.6135 0.100055 -27.8683
vn 0.410556 -0.135214 0.901754
v 11.6377 0.104303 -27.8801
vn 0.497591 -0.119883 0.859088
v 11.6604 0.10887 -27.8942
vn 0.579833 -0.103397 0.808147
v 11.6817 0.113714 -27.9105
vn 0.656492 -0.0859158 0.749424
v 11.7012 0.118787 -27.9288
vn 0.726828 -0.0676069 0.683484
v 11.7187 0.124041 -27.9489
vn 0.790165 -0.0486468 0.610961
v 11.7342 0.129424 -27.9706
vn 0.845891 -0.0292183 0.532554
v 11.7474 0.134885 -27.9938
vn 0.893472 -0.00950835 0.449019
v 11.7582 0.140372 -28.0181
vn 0.932447 0.0102932 0.361159
v 11.7665 0.145831 -28.0434
vn 0.962443 0.0299955 0.269821
v 11.7722 0.15121 -28.0694
vn 0.98317 0.049409 0.175885
v 11.7753 0.156457 -28.0959
vn 0.994428 0.0683467 0.0802543
v 11.7758 0.161522 -28.1226
vn 0.99611 0.0866262 -0.0161489
v 11.7736 0.166356 -28.1493
vn 0.988198 0.104071 -0.112397
v 11.7688 0.170912 -28.1757
vn 0.97077 0.120514 -0.207562
v 11.7614 0.175146 -28.2015
vn 0.943993 0.135797 -0.300728
v 11.7514 0.179018 -28.2265
vn 0.908124 0.149771 -0.390998
v 11.7391 0.182491 -28.2505
vn 0.863509 0.162303 -0.477503
v 11.7244 0.18553 -28.2732
vn 0.810579 0.173272 -0.559409
v 11.7076 0.188107 -28.2944
vn 0.749842 0.182573 -0.635928
v 11.6887 0.190197 -28.3139
vn 0.681884 0.190115 -0.706322
v 11.6681 0.191779 -28.3315
vn 0.607359 0.195826 -0.769914
v 11.6458 0.192839 -28.3471
vn 0.526985 0.199651 -0.826091
v 11.6221 0.193366 -28.3604
vn 0.441535 0.201554 -0.874313
v 11.5973 0.193356 -28.3715
vn 0.351834 0.201515 -0.914114
v 11.5715 0.192807 -28.38
vn 0.258744 0.199536 -0.945112
v 11.545 0.191726 -28.3861
vn 0.163162 0.195635 -0.967008
v 11.5181 0.190123 -28.3896
vn 0.0660086 0.18985 -0.979592
v 11.491 0.188014 -28.3905
vn -0.0317802 0.182237 -0.982741
v 11.464 0.185418 -28.3887
vn -0.129263 0.172868 -0.976426
v 11.4373 0.182361 -28.3844
vn -0.225501 0.161835 -0.960707
v 11.4112 0.178872 -28.3774
vn -0.319567 0.149243 -0.935737
v 11.386 0.174985 -28.368
vn -0.410556 0.135214 -0.901754
v 11.3619 0.170737 -28.3562
vn -0.497591 0.119883 -0.859088
v 11.3391 0.166169 -28.3421
vn -0.579833 0.103397 -0.808147
v 11.3179 0.161325 -28.3258
vn -0.656492 0.0859158 -0.749424
v 11.2984 0.156252 -28.3076
vn -0.726828 0.0676069 -0.683484
v 11.2809 0.150999 -28.2875
vn -0.790165 0.0486468 -0.610961
v 11.2654 0.145616 -28.2657
vn -0.845891 0.0292183 -0.532554
v 11.2522 0.140154 -28.2426
vn -0.893472 0.00950835 -0.449019
v 11.2414 0.134668 -28.2182
vn -0.932447 -0.0102932 -0.361159
v 11.2331 0.129209 -28.1929
vn -0.962443 -0.0299955 -0.269821
v 11.2274 0.12383 -28.1669
vn -0.98317 -0.049409 -0.175885
v 11.2243 0.118582 -28.1404
vn -0.994428 -0.0683467 -0.0802543
v 11.2238 0.113517 -28.1137
vn -0.99611 -0.0866262 0.0161489
v 11.226 0.108684 -28.087
vn -0.988198 -0.104071 0.112397
v 11.2308 0.104128 -28.0607
vn -0.97077 -0.120514 0.207562
v 11.2382 0.0998933 -28.0348
vn -0.943993 -0.135797 0.300728
v 11.2482 0.0960212 -28.0098
vn -0.908124 -0.149771 0.390998
v 11.2605 0.0925488 -27.9859
vn -0.863509 -0.162303 0.477503
v 11.2752 0.0895095 -27.9632
vn -0.810579 -0.173272 0.559409
v 11.292 0.0869326 -27.942
vn -0.749842 -0.182573 0.635928
v 11.3109 0.0848428 -27.9225
vn -0.681884 -0.190115 0.706322
v 11.3315 0.0832603 -27.9048
vn -0.607359 -0.195826 0.769914
v 11.3538 0.0822004 -27.8893
vn -0.526985 -0.199651 0.826091
v 11.5552 -1.72231 -28.2679
vn -0.434514 -0.271195 0.858866
v 11.581 -1.7222 -28.2564
vn -0.344846 -0.270821 0.898742
v 11.6077 -1.72135 -28.2474
vn -0.251857 -0.267839 0.929962
v 11.6351 -1.71975 -28.241
vn -0.156443 -0.262278 0.952227
v 11.663 -1.71742 -28.2373
vn -0.0595215 -0.25419 0.965321
v 11.691 -1.7144 -28.2362
vn 0.0379728 -0.243655 0.969118
v 11.7189 -1.7107 -28.2378
vn 0.135101 -0.230773 0.963583
v 11.7464 -1.70636 -28.242
vn 0.230929 -0.215669 0.948767
v 11.7733 -1.70142 -28.2489
vn 0.324532 -0.198487 0.924814
v 11.7993 -1.69594 -28.2584
vn 0.41501 -0.179394 0.891955
v 11.8241 -1.68995 -28.2703
vn 0.501492 -0.158574 0.850506
v 11.8476 -1.68353 -28.2845
vn 0.583143 -0.136226 0.800866
v 11.8695 -1.67674 -28.301
vn 0.659179 -0.112566 0.743513
v 11.8895 -1.66963 -28.3195
vn 0.728866 -0.0878227 0.679
v 11.9075 -1.66227 -28.34
vn 0.791534 -0.0622332 0.607948
v 11.9233 -1.65475 -28.3621
vn 0.84658 -0.0360443 0.53104
v 11.9368 -1.64713 -28.3856
vn 0.893472 -0.00950835 0.449019
v 11.9478 -1.63948 -28.4104
vn 0.931759 0.0171192 0.362673
v 11.9562 -1.63187 -28.4362
vn 0.961073 0.0435819 0.272835
v 11.9619 -1.62439 -28.4628
vn 0.981132 0.0696249 0.180369
v 11.965 -1.6171 -28.4899
vn 0.991741 0.0949973 0.0861655
v 11.9653 -1.61007 -28.5172
vn 0.9928 0.119455 -0.00886742
v 11.9629 -1.60338 -28.5444
vn 0.984297 0.142762 -0.103815
v 11.9577 -1.59708 -28.5714
vn 0.966316 0.164694 -0.197763
v 11.9499 -1.59123 -28.5979
vn 0.939027 0.185041 -0.289806
v 11.9394 -1.5859 -28.6235
vn 0.902696 0.203605 -0.379058
v 11.9265 -1.58113 -28.6481
vn 0.857671 0.220208 -0.46466
v 11.9112 -1.57697 -28.6714
vn 0.804387 0.234691 -0.545786
v 11.8936 -1.57345 -28.6932
vn 0.743355 0.246913 -0.621657
v 11.874 -1.57063 -28.7133
vn 0.675165 0.256757 -0.69154
v 11.8526 -1.56851 -28.7315
vn 0.600472 0.264129 -0.754764
v 11.8295 -1.56712 -28.7475
vn 0.519997 0.268957 -0.810719
v 11.8049 -1.56648 -28.7614
vn 0.434514 0.271195 -0.858866
v 11.7791 -1.56659 -28.7728
vn 0.344846 0.270821 -0.898742
v 11.7524 -1.56744 -28.7818
vn 0.251857 0.267839 -0.929962
v 11.725 -1.56904 -28.7882
vn 0.156443 0.262278 -0.952227
v 11.6972 -1.57136 -28.792
vn 0.0595215 0.25419 -0.965321
v 11.6692 -1.57439 -28.7931
vn -0.0379728 0.243655 -0.969118
v 11.6412 -1.57809 -28.7915
vn -0.135101 0.230773 -0.963583
v 11.6137 -1.58243 -28.7872
vn -0.230929 0.215669 -0.948767
v 11.5868 -1.58737 -28.7803
vn -0.324532 0.198487 -0.924814
v 11.5608 -1.59285 -28.7709
vn -0.41501 0.179394 -0.891955
v 11.536 -1.59884 -28.759
vn -0.501492 0.158574 -0.850506
v 11.5125 -1.60526 -28.7447
vn -0.583143 0.136226 -0.800866
v 11.4907 -1.61205 -28.7282
vn -0.659179 0.112566 -0.743513
v 11.4707 -1.61916 -28.7097
vn -0.728866 0.0878227 -0.679
v 11.4527 -1.62651 -28.6893
vn -0.791534 0.0622332 -0.607948
v 11.4368 -1.63404 -28.6672
vn -0.84658 0.0360443 -0.53104
v 11.4234 -1.64166 -28.6436
vn -0.893472 0.00950835 -0.449019
v 11.4124 -1.64931 -28.6188
vn -0.931759 -0.0171192 -0.362673
v 11.4039 -1.65692 -28.593
vn -0.961073 -0.0435819 -0.272835
v 11.3982 -1.6644 -28.5664
vn -0.981132 -0.0696249 -0.180369
v 11.3951 -1.67169 -28.5394
vn -0.991741 -0.0949973 -0.0861655
v 11.3948 -1.67871 -28.5121
vn -0.9928 -0.119455 0.00886742
v 11.3973 -1.68541 -28.4848
vn -0.984297 -0.142762 0.103815
v 11.4024 -1.69171 -28.4578
vn -0.966316 -0.164694 0.197763
v 11.4103 -1.69756 -28.4314
vn -0.939027 -0.185041 0.289806
v 11.4207 -1.70289 -28.4057
vn -0.902696 -0.203605 0.379058
v 11.4337 -1.70766 -28.3811
vn -0.857671 -0.220208 0.46466
v 11.449 -1.71182 -28.3578
vn -0.804387 -0.234691 0.545786
v 11.4665 -1.71533 -28.336
vn -0.743355 -0.246913 0.621657
v 11.4861 -1.71816 -28.3159
vn -0.675165 -0.256757 0.69154
v 11.5075 -1.72028 -28.2978
vn -0.600472 -0.264129 0.754764
v 11.5307 -1.72167 -28.2817
vn -0.519997 -0.268957 0.810719
v 11.7985 -3.56649 -28.791
vn -0.426085 -0.334015 0.840765
v 11.8252 -3.56629 -28.7791
vn -0.336458 -0.333338 0.880728
v 11.8528 -3.56513 -28.7697
vn -0.243591 -0.329452 0.912209
v 11.8811 -3.56303 -28.763
vn -0.148377 -0.322392 0.934905
v 11.9099 -3.56001 -28.7589
vn -0.0517347 -0.312228 0.948597
v 11.9388 -3.55609 -28.7575
vn 0.045406 -0.299057 0.953154
v 11.9675 -3.55131 -28.7589
vn 0.142109 -0.283006 0.948532
v 11.9959 -3.54573 -28.763
vn 0.237444 -0.264229 0.934774
v 12.0236 -3.53938 -28.7698
vn 0.330492 -0.242908 0.912015
v 12.0503 -3.53234 -28.7791
vn 0.420357 -0.219247 0.880472
v 12.0759 -3.52468 -28.7911
vn 0.506174 -0.193475 0.840449
v 12.0999 -3.51645 -28.8054
vn 0.587116 -0.165839 0.792333
v 12.1223 -3.50776 -28.822
vn 0.662404 -0.136607 0.736586
v 12.1428 -3.49867 -28.8407
vn 0.731313 -0.106058 0.673745
v 12.1613 -3.48927 -28.8613
vn 0.793179 -0.0744887 0.604416
v 12.1774 -3.47967 -28.8836
vn 0.847406 -0.0422017 0.529266
v 12.1911 -3.46994 -28.9075
vn 0.893472 -0.00950835 0.449019
v 12.2022 -3.46019 -28.9327
vn 0.930933 0.0232766 0.364447
v 12.2107 -3.4505 -28.9589
vn 0.959429 0.0558374 0.276366
v 12.2164 -3.44097 -28.9859
vn 0.978685 0.0878605 0.185623
v 12.2194 -3.43169 -29.0134
vn 0.988516 0.119037 0.0930926
v 12.2195 -3.42276 -29.0412
vn 0.988827 0.149068 -0.000334499
v 12.2167 -3.41425 -29.069
vn 0.979615 0.177663 -0.0937584
v 12.2112 -3.40625 -29.0965
vn 0.960969 0.204547 -0.186279
v 12.2029 -3.39884 -29.1235
vn 0.933068 0.229461 -0.277006
v 12.1919 -3.39208 -29.1497
vn 0.896181 0.252165 -0.365065
v 12.1784 -3.38605 -29.1749
vn 0.850663 0.272441 -0.449609
v 12.1624 -3.3808 -29.1988
vn 0.796953 0.290093 -0.529822
v 12.1441 -3.37638 -29.2211
vn 0.735568 0.304951 -0.604933
v 12.1237 -3.37283 -29.2417
vn 0.667099 0.316872 -0.674218
v 12.1015 -3.37019 -29.2604
vn 0.592206 0.325742 -0.73701
v 12.0775 -3.36849 -29.277
vn 0.511609 0.331474 -0.792705
v 12.052 -3.36773 -29.2913
vn 0.426085 0.334015 -0.840765
v 12.0254 -3.36793 -29.3032
vn 0.336458 0.333338 -0.880728
v 11.9977 -3.36909 -29.3125
vn 0.243591 0.329452 -0.912209
v 11.9694 -3.37119 -29.3193
vn 0.148377 0.322392 -0.934905
v 11.9407 -3.37421 -29.3234
vn 0.0517347 0.312228 -0.948597
v 11.9117 -3.37813 -29.3247
vn -0.045406 0.299057 -0.953154
v 11.883 -3.38291 -29.3233
vn -0.142109 0.283006 -0.948532
v 11.8546 -3.3885 -29.3192
vn -0.237444 0.264229 -0.934774
v 11.8269 -3.39484 -29.3125
vn -0.330492 0.242908 -0.912015
v 11.8002 -3.40188 -29.3031
vn -0.420357 0.219247 -0.880472
v 11.7747 -3.40955 -29.2912
vn -0.506174 0.193475 -0.840449
v 11.7506 -3.41777 -29.2769
vn -0.587116 0.165839 -0.792333
v 11.7282 -3.42647 -29.2603
vn -0.662404 0.136607 -0.736586
v 11.7077 -3.43556 -29.2416
vn -0.731313 0.106058 -0.673745
v 11.6893 -3.44495 -29.2209
vn -0.793179 0.0744887 -0.604416
v 11.6731 -3.45456 -29.1986
vn -0.847406 0.0422017 -0.529266
v 11.6594 -3.46428 -29.1747
vn -0.893472 0.00950835 -0.449019
v 11.6483 -3.47404 -29.1496
vn -0.930933 -0.0232766 -0.364447
v 11.6398 -3.48373 -29.1233
vn -0.959429 -0.0558374 -0.276366
v 11.6341 -3.49325 -29.0963
vn -0.978685 -0.0878605 -0.185623
v 11.6311 -3.50253 -29.0688
vn -0.988516 -0.119037 -0.0930926
v 11.6311 -3.51146 -29.041
vn -0.988827 -0.149068 0.000334499
v 11.6338 -3.51997 -29.0132
vn -0.979615 -0.177663 0.0937584
v 11.6393 -3.52797 -28.9857
vn -0.960969 -0.204547 0.186279
v 11.6476 -3.53538 -28.9587
vn -0.933068 -0.229461 0.277006
v 11.6586 -3.54214 -28.9325
vn -0.896181 -0.252165 0.365065
v 11.6722 -3.54817 -28.9073
vn -0.850663 -0.272441 0.449609
v 11.6881 -3.55342 -28.8835
vn -0.796953 -0.290093 0.529822
v 11.7064 -3.55784 -28.8611
vn -0.735568 -0.304951 0.604933
v 11.7268 -3.56139 -28.8405
vn -0.667099 -0.316872 0.674218
v 11.7491 -3.56403 -28.8218
vn -0.592206 -0.325742 0.73701
v 11.773 -3.56574 -28.8053
vn -0.511609 -0.331474 0.792705
v 12.1071 -5.45073 -29.445
vn -0.41675 -0.390231 0.820999
v 12.1347 -5.45044 -29.4327
vn -0.327168 -0.389284 0.861057
v 12.1632 -5.44899 -29.4229
vn -0.234435 -0.384588 0.892823
v 12.1925 -5.44641 -29.4157
vn -0.139444 -0.376188 0.91599
v 12.2221 -5.44271 -29.4113
vn -0.0431101 -0.364165 0.930336
v 12.2519 -5.43793 -29.4097
vn 0.0536389 -0.348635 0.935722
v 12.2815 -5.43211 -29.4108
vn 0.149871 -0.329748 0.932097
v 12.3107 -5.42532 -29.4147
vn 0.24466 -0.307685 0.919495
v 12.3391 -5.41762 -29.4213
vn 0.337093 -0.282658 0.898038
v 12.3666 -5.40908 -29.4305
vn 0.42628 -0.25491 0.867932
v 12.3927 -5.39979 -29.4424
vn 0.511361 -0.224707 0.829468
v 12.4174 -5.38983 -29.4567
vn 0.591517 -0.192339 0.783015
v 12.4403 -5.37929 -29.4733
vn 0.665977 -0.15812 0.729022
v 12.4613 -5.36829 -29.4921
vn 0.734023 -0.122377 0.668008
v 12.48 -5.35693 -29.5128
vn 0.795 -0.0854559 0.60056
v 12.4965 -5.34532 -29.5354
vn 0.848321 -0.0477119 0.527329
v 12.5103 -5.33356 -29.5595
vn 0.893472 -0.00950835 0.449019
v 12.5216 -5.32177 -29.5849
vn 0.930018 0.0287868 0.366385
v 12.5301 -5.31007 -29.6114
vn 0.957608 0.0668047 0.280222
v 12.5357 -5.29857 -29.6388
vn 0.975975 0.104179 0.191361
v 12.5385 -5.28738 -29.6667
vn 0.984944 0.14055 0.100657
v 12.5383 -5.2766 -29.6949
vn 0.984426 0.175568 0.0089831
v 12.5353 -5.26634 -29.7231
vn 0.974429 0.208895 -0.082777
v 12.5293 -5.25671 -29.7511
vn 0.955046 0.24021 -0.17374
v 12.5205 -5.24778 -29.7786
vn 0.926467 0.269212 -0.26303
v 12.509 -5.23965 -29.8053
vn 0.888965 0.295621 -0.349786
v 12.4948 -5.2324 -29.831
vn 0.842901 0.319183 -0.433174
v 12.4781 -5.2261 -29.8553
vn 0.78872 0.339671 -0.51239
v 12.4591 -5.2208 -29.8782
vn 0.726944 0.356888 -0.586672
v 12.4379 -5.21656 -29.8993
vn 0.658166 0.370668 -0.655304
v 12.4148 -5.21341 -29.9185
vn 0.58305 0.380878 -0.717624
v 12.39 -5.2114 -29.9356
vn 0.502319 0.38742 -0.773034
v 12.3636 -5.21054 -29.9503
vn 0.41675 0.390231 -0.820999
v 12.3361 -5.21083 -29.9626
vn 0.327168 0.389284 -0.861057
v 12.3075 -5.21227 -29.9724
vn 0.234435 0.384588 -0.892823
v 12.2783 -5.21486 -29.9796
vn 0.139444 0.376188 -0.91599
v 12.2486 -5.21856 -29.984
vn 0.0431101 0.364165 -0.930336
v 12.2189 -5.22334 -29.9856
vn -0.0536389 0.348635 -0.935722
v 12.1892 -5.22915 -29.9845
vn -0.149871 0.329748 -0.932097
v 12.1601 -5.23594 -29.9806
vn -0.24466 0.307685 -0.919495
v 12.1316 -5.24364 -29.974
vn -0.337093 0.282658 -0.898038
v 12.1042 -5.25218 -29.9648
vn -0.42628 0.25491 -0.867932
v 12.078 -5.26148 -29.9529
vn -0.511361 0.224707 -0.829468
v 12.0533 -5.27144 -29.9386
vn -0.591517 0.192339 -0.783015
v 12.0304 -5.28197 -29.922
vn -0.665977 0.15812 -0.729022
v 12.0095 -5.29297 -29.9032
vn -0.734023 0.122377 -0.668008
v 11.9907 -5.30433 -29.8825
vn -0.795 0.0854559 -0.60056
v 11.9743 -5.31595 -29.8599
vn -0.848321 0.0477119 -0.527329
v 11.9604 -5.32771 -29.8358
vn -0.893472 0.00950835 -0.449019
v 11.9492 -5.33949 -29.8104
vn -0.930018 -0.0287868 -0.366385
v 11.9407 -5.35119 -29.7839
vn -0.957608 -0.0668047 -0.280222
v 11.935 -5.36269 -29.7565
vn -0.975975 -0.104179 -0.191361
v 11.9322 -5.37389 -29.7286
vn -0.984944 -0.14055 -0.100657
v 11.9324 -5.38466 -29.7004
vn -0.984426 -0.175568 -0.0089831
v 11.9355 -5.39492 -29.6722
vn -0.974429 -0.208895 0.082777
v 11.9415 -5.40456 -29.6442
vn -0.955046 -0.24021 0.17374
v 11.9502 -5.41348 -29.6167
vn -0.926467 -0.269212 0.26303
v 11.9618 -5.42161 -29.59
vn -0.888965 -0.295621 0.349786
v 11.976 -5.42886 -29.5643
vn -0.842901 -0.319183 0.433174
v 11.9926 -5.43517 -29.54
vn -0.78872 -0.339671 0.51239
v 12.0117 -5.44047 -29.5171
vn -0.726944 -0.356888 0.586672
v 12.0328 -5.44471 -29.496
vn -0.658166 -0.370668 0.655304
v 12.0559 -5.44785 -29.4768
vn -0.58305 -0.380878 0.717624
v 12.0808 -5.44986 -29.4597
vn -0.502319 -0.38742 0.773034
v 12.481 -7.37496 -30.2297
vn -0.406912 -0.440272 0.800364
v 12.5095 -7.37458 -30.217
vn -0.317378 -0.439084 0.840522
v 12.5389 -7.37286 -30.2068
vn -0.224786 -0.433668 0.872584
v 12.5691 -7.3698 -30.1992
vn -0.13003 -0.424074 0.896244
v 12.5996 -7.36546 -30.1945
vn -0.0340213 -0.410397 0.911272
v 12.6302 -7.35985 -30.1925
vn 0.0623149 -0.392768 0.917524
v 12.6607 -7.35304 -30.1933
vn 0.158051 -0.371356 0.91494
v 12.6906 -7.3451 -30.1969
vn 0.252265 -0.346367 0.903544
v 12.7198 -7.33609 -30.2033
vn 0.344049 -0.318043 0.883447
v 12.7479 -7.32611 -30.2124
vn 0.43252 -0.286656 0.854842
v 12.7747 -7.31525 -30.2241
vn 0.516826 -0.252508 0.818004
v 12.8 -7.30362 -30.2383
vn 0.596154 -0.215929 0.773288
v 12.8234 -7.29133 -30.2549
vn 0.669742 -0.177269 0.721125
v 12.8447 -7.27849 -30.2737
vn 0.736879 -0.136903 0.662018
v 12.8638 -7.26523 -30.2945
vn 0.796919 -0.0952185 0.596534
v 12.8805 -7.25169 -30.3172
vn 0.849285 -0.0526168 0.525306
v 12.8945 -7.23798 -30.3414
vn 0.893472 -0.00950835 0.449019
v 12.9058 -7.22424 -30.3671
vn 0.929054 0.0336917 0.368407
v 12.9143 -7.21061 -30.3938
vn 0.955689 0.0765672 0.284248
v 12.9198 -7.19721 -30.4215
vn 0.97312 0.118705 0.197351
v 12.9224 -7.18417 -30.4497
vn 0.981179 0.1597 0.108553
v 12.922 -7.17163 -30.4783
vn 0.979789 0.199157 0.0187103
v 12.9185 -7.15969 -30.5069
vn 0.968963 0.236696 -0.0713129
v 12.9121 -7.14848 -30.5353
vn 0.948806 0.271956 -0.160649
v 12.9028 -7.1381 -30.5632
vn 0.91951 0.304596 -0.248439
v 12.8907 -7.12865 -30.5904
vn 0.88136 0.334303 -0.333835
v 12.8758 -7.12023 -30.6165
vn 0.834722 0.36079 -0.416017
v 12.8584 -7.11291 -30.6414
vn 0.780044 0.383803 -0.494192
v 12.8387 -7.10677 -30.6647
vn 0.717855 0.40312 -0.567608
v 12.8167 -7.10186 -30.6863
vn 0.648752 0.418554 -0.635557
v 12.7927 -7.09824 -30.706
vn 0.573401 0.429958 -0.697386
v 12.767 -7.09593 -30.7235
vn 0.492529 0.43722 -0.752498
v 12.7398 -7.09496 -30.7387
vn 0.406912 0.440272 -0.800364
v 12.7113 -7.09534 -30.7515
vn 0.317378 0.439084 -0.840522
v 12.6819 -7.09706 -30.7617
vn 0.224786 0.433668 -0.872584
v 12.6518 -7.10011 -30.7692
vn 0.13003 0.424074 -0.896244
v 12.6212 -7.10446 -30.774
vn 0.0340213 0.410397 -0.911272
v 12.5906 -7.11006 -30.776
vn -0.0623149 0.392768 -0.917524
v 12.5601 -7.11687 -30.7752
vn -0.158051 0.371356 -0.91494
v 12.5302 -7.12482 -30.7715
vn -0.252265 0.346367 -0.903544
v 12.501 -7.13382 -30.7652
vn -0.344049 0.318043 -0.883447
v 12.4729 -7.1438 -30.7561
vn -0.43252 0.286656 -0.854842
v 12.4461 -7.15466 -30.7443
vn -0.516826 0.252508 -0.818004
v 12.4208 -7.16629 -30.7301
vn -0.596154 0.215929 -0.773288
v 12.3974 -7.17859 -30.7135
vn -0.669742 0.177269 -0.721125
v 12.3761 -7.19142 -30.6947
vn -0.736879 0.136903 -0.662018
v 12.357 -7.20468 -30.6739
vn -0.796919 0.0952185 -0.596534
v 12.3403 -7.21823 -30.6513
vn -0.849285 0.0526168 -0.525306
v 12.3263 -7.23193 -30.627
vn -0.893472 0.00950835 -0.449019
v 12.315 -7.24567 -30.6014
vn -0.929054 -0.0336917 -0.368407
v 12.3065 -7.2593 -30.5746
vn -0.955689 -0.0765672 -0.284248
v 12.301 -7.2727 -30.547
vn -0.97312 -0.118705 -0.197351
v 12.2984 -7.28574 -30.5187
vn -0.981179 -0.1597 -0.108553
v 12.2989 -7.29829 -30.4902
vn -0.979789 -0.199157 -0.0187103
v 12.3023 -7.31022 -30.4616
vn -0.968963 -0.236696 0.0713129
v 12.3087 -7.32143 -30.4331
vn -0.948806 -0.271956 0.160649
v 12.318 -7.33181 -30.4052
vn -0.91951 -0.304596 0.248439
v 12.3301 -7.34126 -30.3781
vn -0.88136 -0.334303 0.333835
v 12.345 -7.34968 -30.3519
vn -0.834722 -0.36079 0.416017
v 12.3624 -7.357 -30.3271
vn -0.780044 -0.383803 0.494192
v 12.3821 -7.36314 -30.3037
vn -0.717855 -0.40312 0.567608
v 12.4041 -7.36805 -30.2821
vn -0.648752 -0.418554 0.635557
v 12.4281 -7.37168 -30.2625
vn -0.573401 -0.429958 0.697386
v 12.4538 -7.37399 -30.2449
vn -0.492529 -0.43722 0.752498
v 12.9201 -9.33916 -31.145
vn -0.396883 -0.484679 0.779468
v 12.9495 -9.3387 -31.1318
vn -0.307397 -0.483277 0.819726
v 12.9798 -9.33671 -31.1212
vn -0.21495 -0.477221 0.85209
v 13.0108 -9.33322 -31.1133
vn -0.120433 -0.466569 0.876247
v 13.0422 -9.32825 -31.1081
vn -0.0247557 -0.451424 0.891966
v 13.0737 -9.32185 -31.1058
vn 0.0711596 -0.431931 0.899095
v 13.105 -9.31408 -31.1063
vn 0.16639 -0.408278 0.897565
v 13.1357 -9.30503 -31.1096
vn 0.260017 -0.380694 0.887391
v 13.1656 -9.29477 -31.1157
vn 0.351141 -0.349443 0.868671
v 13.1944 -9.28341 -31.1246
vn 0.438883 -0.314827 0.841585
v 13.2218 -9.27106 -31.1362
vn 0.522398 -0.277179 0.806395
v 13.2476 -9.25782 -31.1503
vn 0.600882 -0.236862 0.763438
v 13.2714 -9.24384 -31.1668
vn 0.673579 -0.194263 0.713129
v 13.2932 -9.22925 -31.1856
vn 0.73979 -0.149794 0.655952
v 13.3126 -9.21418 -31.2064
vn 0.798876 -0.103882 0.592458
v 13.3294 -9.19878 -31.2291
vn 0.850268 -0.0569694 0.523258
v 13.3436 -9.1832 -31.2535
vn 0.893472 -0.00950835 0.449019
v 13.355 -9.1676 -31.2793
vn 0.928071 0.0380443 0.370456
v 13.3634 -9.15211 -31.3062
vn 0.953732 0.0852305 0.288324
v 13.3688 -9.13689 -31.3341
vn 0.970208 0.131596 0.203417
v 13.3711 -9.12209 -31.3626
vn 0.977341 0.176694 0.11655
v 13.3704 -9.10785 -31.3915
vn 0.975061 0.22009 0.0285608
v 13.3666 -9.0943 -31.4204
vn 0.963391 0.261367 -0.0597035
v 13.3597 -9.08158 -31.4492
vn 0.942443 0.300127 -0.147393
v 13.3498 -9.06981 -31.4775
vn 0.912419 0.335996 -0.233663
v 13.3371 -9.0591 -31.5051
vn 0.873608 0.36863 -0.317682
v 13.3216 -9.04955 -31.5317
vn 0.826383 0.397713 -0.398642
v 13.3035 -9.04126 -31.557
vn 0.7712 0.422966 -0.475763
v 13.2829 -9.03431 -31.5808
vn 0.708589 0.444146 -0.548302
v 13.2601 -9.02876 -31.6029
vn 0.639155 0.461049 -0.615561
v 13.2353 -9.02467 -31.623
vn 0.563565 0.473511 -0.676891
v 13.2087 -9.02208 -31.641
vn 0.482548 0.481413 -0.731703
v 13.1806 -9.02101 -31.6567
vn 0.396883 0.484679 -0.779468
v 13.1512 -9.02147 -31.6699
vn 0.307397 0.483277 -0.819726
v 13.1209 -9.02346 -31.6805
vn 0.21495 0.477221 -0.85209
v 13.0899 -9.02695 -31.6884
vn 0.120433 0.466569 -0.876247
v 13.0585 -9.03192 -31.6936
vn 0.0247557 0.451424 -0.891966
v 13.027 -9.03832 -31.6959
vn -0.0711596 0.431931 -0.899095
v 12.9957 -9.04608 -31.6954
vn -0.16639 0.408278 -0.897565
v 12.965 -9.05514 -31.6921
vn -0.260017 0.380694 -0.887391
v 12.9351 -9.06539 -31.686
vn -0.351141 0.349443 -0.868671
v 12.9063 -9.07675 -31.6771
vn -0.438883 0.314827 -0.841585
v 12.8789 -9.08911 -31.6655
vn -0.522398 0.277179 -0.806395
v 12.8531 -9.10234 -31.6514
vn -0.600882 0.236862 -0.763438
v 12.8293 -9.11632 -31.6349
vn -0.673579 0.194263 -0.713129
v 12.8076 -9.13092 -31.6161
vn -0.73979 0.149794 -0.655952
v 12.7882 -9.14599 -31.5953
vn -0.798876 0.103882 -0.592458
v 12.7713 -9.16139 -31.5726
vn -0.850268 0.0569694 -0.523258
v 12.7571 -9.17696 -31.5482
vn -0.893472 0.00950835 -0.449019
v 12.7458 -9.19257 -31.5224
vn -0.928071 -0.0380443 -0.370456
v 12.7373 -9.20806 -31.4955
vn -0.953732 -0.0852305 -0.288324
v 12.7319 -9.22327 -31.4676
vn -0.970208 -0.131596 -0.203417
v 12.7296 -9.23808 -31.4391
vn -0.977341 -0.176694 -0.11655
v 12.7303 -9.25232 -31.4102
vn -0.975061 -0.22009 -0.0285608
v 12.7342 -9.26587 -31.3813
vn -0.963391 -0.261367 0.0597035
v 12.741 -9.27859 -31.3525
vn -0.942443 -0.300127 0.147393
v 12.7509 -9.29036 -31.3242
vn -0.912419 -0.335996 0.233663
v 12.7636 -9.30107 -31.2966
vn -0.873608 -0.36863 0.317682
v 12.7791 -9.31062 -31.27
vn -0.826383 -0.397713 0.398642
v 12.7972 -9.31891 -31.2447
vn -0.7712 -0.422966 0.475763
v 12.8178 -9.32586 -31.2209
vn -0.708589 -0.444146 0.548302
v 12.8406 -9.3314 -31.1988
vn -0.639155 -0.461049 0.615561
v 12.8654 -9.33549 -31.1787
vn -0.563565 -0.473511 0.676891
v 12.892 -9.33809 -31.1607
vn -0.482548 -0.481413 0.731703
v 13.4243 -11.3434 -32.1907
vn -0.386892 -0.524032 0.758753
v 13.4546 -11.3428 -32.1771
vn -0.297453 -0.52244 0.79911
v 13.4858 -11.3406 -32.166
vn -0.20515 -0.515818 0.831773
v 13.5177 -11.3367 -32.1577
vn -0.110871 -0.504227 0.856424
v 13.55 -11.3311 -32.1521
vn -0.0155246 -0.487781 0.872828
v 13.5823 -11.3239 -32.1494
vn 0.0799716 -0.466637 0.880826
v 13.6144 -11.3153 -32.1496
vn 0.174698 -0.440999 0.880341
v 13.6458 -11.3051 -32.1526
vn 0.267741 -0.411114 0.871378
v 13.6765 -11.2937 -32.1585
vn 0.358206 -0.37727 0.854023
v 13.7059 -11.281 -32.1671
vn 0.445221 -0.339792 0.828444
v 13.7339 -11.2672 -32.1785
vn 0.527949 -0.299042 0.794886
v 13.7602 -11.2525 -32.1924
vn 0.605592 -0.255413 0.753673
v 13.7845 -11.2369 -32.2088
vn 0.677403 -0.209323 0.705201
v 13.8066 -11.2206 -32.2276
vn 0.74269 -0.161217 0.649938
v 13.8263 -11.2038 -32.2484
vn 0.800825 -0.111559 0.588416
v 13.8433 -11.1866 -32.2711
vn 0.851247 -0.0608267 0.521227
v 13.8576 -11.1692 -32.2955
vn 0.893472 -0.00950835 0.449019
v 13.869 -11.1518 -32.3215
vn 0.927091 0.0419015 0.372486
v 13.8773 -11.1346 -32.3486
vn 0.951783 0.0929079 0.292366
v 13.8826 -11.1176 -32.3766
vn 0.967308 0.143019 0.20943
v 13.8847 -11.1011 -32.4054
vn 0.973517 0.191754 0.124477
v 13.8836 -11.0852 -32.4345
vn 0.970351 0.238641 0.0383258
v 13.8794 -11.0702 -32.4638
vn 0.95784 0.283231 -0.0481948
v 13.872 -11.056 -32.4929
vn 0.936105 0.325092 -0.134251
v 13.8616 -11.0429 -32.5216
vn 0.905354 0.363823 -0.219015
v 13.8483 -11.031 -32.5496
vn 0.865884 0.39905 -0.301669
v 13.8321 -11.0203 -32.5766
vn 0.818075 0.430434 -0.381418
v 13.8132 -11.0111 -32.6023
vn 0.762388 0.457673 -0.457494
v 13.7919 -11.0034 -32.6266
vn 0.699358 0.480504 -0.529164
v 13.7683 -10.9972 -32.6491
vn 0.629593 0.498707 -0.595738
v 13.7426 -10.9927 -32.6697
vn 0.553765 0.512108 -0.656574
v 13.7152 -10.9898 -32.6882
vn 0.472604 0.520577 -0.711087
v 13.6862 -10.9887 -32.7043
vn 0.386892 0.524032 -0.758753
v 13.6559 -10.9892 -32.718
vn 0.297453 0.52244 -0.79911
v 13.6247 -10.9914 -32.729
vn 0.20515 0.515818 -0.831773
v 13.5928 -10.9954 -32.7374
vn 0.110871 0.504227 -0.856424
v 13.5605 -11.0009 -32.7429
vn 0.0155246 0.487781 -0.872828
v 13.5282 -11.0081 -32.7456
vn -0.0799716 0.466637 -0.880826
v 13.4961 -11.0168 -32.7455
vn -0.174698 0.440999 -0.880341
v 13.4646 -11.0269 -32.7424
vn -0.267741 0.411114 -0.871378
v 13.434 -11.0383 -32.7365
vn -0.358206 0.37727 -0.854023
v 13.4046 -11.051 -32.7279
vn -0.445221 0.339792 -0.828444
v 13.3766 -11.0648 -32.7165
vn -0.527949 0.299042 -0.794886
v 13.3503 -11.0796 -32.7026
vn -0.605592 0.255413 -0.753673
v 13.326 -11.0952 -32.6862
vn -0.677403 0.209323 -0.705201
v 13.3039 -11.1115 -32.6675
vn -0.74269 0.161217 -0.649938
v 13.2842 -11.1283 -32.6467
vn -0.800825 0.111559 -0.588416
v 13.2671 -11.1454 -32.6239
vn -0.851247 0.0608267 -0.521227
v 13.2528 -11.1628 -32.5995
vn -0.893472 0.00950835 -0.449019
v 13.2415 -11.1802 -32.5736
vn -0.927091 -0.0419015 -0.372486
v 13.2331 -11.1975 -32.5465
vn -0.951783 -0.0929079 -0.292366
v 13.2279 -11.2144 -32.5184
vn -0.967308 -0.143019 -0.20943
v 13.2258 -11.2309 -32.4896
vn -0.973517 -0.191754 -0.124477
v 13.2268 -11.2468 -32.4605
vn -0.970351 -0.238641 -0.0383258
v 13.2311 -11.2619 -32.4312
vn -0.95784 -0.283231 0.0481948
v 13.2384 -11.276 -32.4021
vn -0.936105 -0.325092 0.134251
v 13.2488 -11.2891 -32.3734
vn -0.905354 -0.363823 0.219015
v 13.2622 -11.3011 -32.3454
vn -0.865884 -0.39905 0.301669
v 13.2784 -11.3117 -32.3184
vn -0.818075 -0.430434 0.381418
v 13.2972 -11.3209 -32.2927
vn -0.762388 -0.457673 0.457494
v 13.3185 -11.3286 -32.2684
vn -0.699358 -0.480504 0.529164
v 13.3422 -11.3348 -32.2459
vn -0.629593 -0.498707 0.595738
v 13.3678 -11.3393 -32.2253
vn -0.553765 -0.512108 0.656574
v 13.3953 -11.3422 -32.2069
vn -0.472604 -0.520577 0.711087
f 1 66 2 
f 1 65 66 
f 2 67 3 
f 2 66 67 
f 3 68 4 
f 3 67 68 
f 4 69 5 
f 4 68 69 
f 5 70 6 
f 5 69 70 
f 6 71 7 
f 6 70 71 
f 7 72 8 
f 7 71 72 
f 8 73 9 
f 8 72 73 
f 9 74 10 
f 9 73 74 
f 10 75 11 
f 10 74 75 
f 11 76 12 
f 11 75 76 
f 12 77 13 
f 12 76 77 
f 13 78 14 
f 13 77 78 
f 14 79 15 
f 14 78 79 
f 15 80 16 
f 15 79 80 
f 16 81 17 
f 16 80 81 
f 17 82 18 
f 17 81 82 
f 18 83 19 
f 18 82 83 
f 19 84 20 
f 19 83 84 
f 20 85 21 
f 20 84 85 
f 21 86 22 
f 21 85 86 
f 22 87 23 
f 22 86 87 
f 23 88 24 
f 23 87 88 
f 24 89 25 
f 24 88 89 
f 25 90 26 
f 25 89 90 
f 26 91 27 
f 26 90 91 
f 27 92 28 
f 27 91 92 
f 28 93 29 
f 28 92 93 
f 29 94 30 
f 29 93 94 
f 30 95 31 
f 30 94 95 
f 31 96 32 
f 31 95 96 
f 32 97 33 
f 32 96 97 
f 33 98 34 
f 33 97 98 
f 34 99 35 
f 34 98 99 
f 35 100 36 
f 35 99 100 
f 36 101 37 
f 36 100 101 
f 37 102 38 
f 37 101 102 
f 38 103 39 
f 38 102 103 
f 39 104 40 
f 39 103 104 
f 40 105 41 
f 40 104 105 
f 41 106 42 
f 41 105 106 
f 42 107 43 
f 42 106 107 
f 43 108 44 
f 43 107 108 
f 44 109 45 
f 44 108 109 
f 45 110 46 
f 45 109 110 
f 46 111 47 
f 46 110 111 
f 47 112 48 
f 47 111 112 
f 48 113 49 
f 48 112 113 
f 49 114 50 
f 49 113 114 
f 50 115 51 
f 50 114 115 
f 51 116 52 
f 51 115 116 
f 52 117 53 
f 52 116 117 
f 53 118 54 
f 53 117 118 
f 54 119 55 
f 54 118 119 
f 55 120 56 
f 55 119 120 
f 56 121 57 
f 56 120 121 
f 57 122 58 
f 57 121 122 
f 58 123 59 
f 58 122 123 
f 59 124 60 
f 59 123 124 
f 60 125 61 
f 60 124 125 
f 61 126 62 
f 61 125 126 
f 62 127 63 
f 62 126 127 
f 63 128 64 
f 63 127 128 
f 64 65 1 
f 64 128 65 
f 65 130 66 
f 65 129 130 
f 66 131 67 
f 66 130 131 
f 67 132 68 
f 67 131 132 
f 68 133 69 
f 68 132 133 
f 69 134 70 
f 69 133 134 
f 70 135 71 
f 70 134 135 
f 71 136 72 
f 71 135 136 
f 72 137 73 
f 72 136 137 
f 73 138 74 
f 73 137 138 
f 74 139 75 
f 74 138 139 
f 75 140 76 
f 75 139 140 
f 76 141 77 
f 76 140 141 
f 77 142 78 
f 77 141 142 
f 78 143 79 
f 78 142 143 
f 79 144 80 
f 79 143 144 
f 80 145 81 
f 80 144 145 
f 81 146 82 
f 81 145 146 
f 82 147 83 
f 82 146 147 
f 83 148 84 
f 83 147 148 
f 84 149 85 
f 84 148 149 
f 85 150 86 
f 85 149 150 
f 86 151 87 
f 86 150 151 
f 87 152 88 
f 87 151 152 
f 88 153 89 
f 88 152 153 
f 89 154 90 
f 89 153 154 
f 90 155 91 
f 90 154 155 
f 91 156 92 
f 91 155 156 
f 92 157 93 
f 92 156 157 
f 93 158 94 
f 93 157 158 
f 94 159 95 
f 94 158 159 
f 95 160 96 
f 95 159 160 
f 96 161 97 
f 96 160 161 
f 97 162 98 
f 97 161 162 
f 98 163 99 
f 98 162 163 
f 99 164 100 
f 99 163 164 
f 100 165 101 
f 100 164 165 
f 101 166 102 
f 101 165 166 
f 102 167 103 
f 102 166 167 
f 103 168 104 
f 103 167 168 
f 104 169 105 
f 104 168 169 
f 105 170 106 
f 105 169 170 
f 106 171 107 
f 106 170 171 
f 107 172 108 
f 107 171 172 
f 108 173 109 
f 108 172 173 
f 109 174 110 
f 109 173 174 
f 110 175 111 
f 110 174 175 
f 111 176 112 
f 111 175 176 
f 112 177 113 
f 112 176 177 
f 113 178 114 
f 113 177 178 
f 114 179 115 
f 114 178 179 
f 115 180 116 
f 115 179 180 
f 116 181 117 
f 116 180 181 
f 117 182 118 
f 117 181 182 
f 118 183 119 
f 118 182 183 
f 119 184 120 
f 119 183 184 
f 120 185 121 
f 120 184 185 
f 121 186 122 
f 121 185 186 
f 122 187 123 
f 122 186 187 
f 123 188 124 
f 123 187 188 
f 124 189 125 
f 124 188 189 
f 125 190 126 
f 125 189 190 
f 126 191 127 
f 126 190 191 
f 127 192 128 
f 127 191 192 
f 128 129 65 
f 128 192 129 
f 129 194 130 
f 129 193 194 
f 130 195 131 
f 130 194 195 
f 131 196 132 
f 131 195 196 
f 132 197 133 
f 132 196 197 
f 133 198 134 
f 133 197 198 
f 134 199 135 
f 134 198 199 
f 135 200 136 
f 135 199 200 
f 136 201 137 
f 136 200 201 
f 137 202 138 
f 137 201 202 
f 138 203 139 
f 138 202 203 
f 139 204 140 
f 139 203 204 
f 140 205 141 
f 140 204 205 
f 141 206 142 
f 141 205 206 
f 142 207 143 
f 142 206 207 
f 143 208 144 
f 143 207 208 
f 144 209 145 
f 144 208 209 
f 145 210 146 
f 145 209 210 
f 146 211 147 
f 146 210 211 
f 147 212 148 
f 147 211 212 
f 148 213 149 
f 148 212 213 
f 149 214 150 
f 149 213 214 
f 150 215 151 
f 150 214 215 
f 151 216 152 
f 151 215 216 
f 152 217 153 
f 152 216 217 
f 153 218 154 
f 153 217 218 
f 154 219 155 
f 154 218 219 
f 155 220 156 
f 155 219 220 
f 156 221 157 
f 156 220 221 
f 157 222 158 
f 157 221 222 
f 158 223 159 
f 158 222 223 
f 159 224 160 
f 159 223 224 
f 160 225 161 
f 160 224 225 
f 161 226 162 
f 161 225 226 
f 162 227 163 
f 162 226 227 
f 163 228 164 
f 163 227 228 
f 164 229 165 
f 164 228 229 
f 165 230 166 
f 165 229 230 
f 166 231 167 
f 166 230 231 
f 167 232 168 
f 167 231 232 
f 168 233 169 
f 168 232 233 
f 169 234 170 
f 169 233 234 
f 170 235 171 
f 170 234 235 
f 171 236 172 
f 171 235 236 
f 172 237 173 
f 172 236 237 
f 173 238 174 
f 173 237 238 
f 174 239 175 
f 174 238 239 
f 175 240 176 
f 175 239 240 
f 176 241 177 
f 176 240 241 
f 177 242 178 
f 177 241 242 
f 178 243 179 
f 178 242 243 
f 179 244 180 
f 179 243 244 
f 180 245 181 
f 180 244 245 
f 181 246 182 
f 181 245 246 
f 182 247 183 
f 182 246 247 
f 183 248 184 
f 183 247 248 
f 184 249 185 
f 184 248 249 
f 185 250 186 
f 185 249 250 
f 186 251 187 
f 186 250 251 
f 187 252 188 
f 187 251 252 
f 188 253 189 
f 188 252 253 
f 189 254 190 
f 189 253 254 
f 190 255 191 
f 190 254 255 
f 191 256 192 
f 191 255 256 
f 192 193 129 
f 192 256 193 
f 193 258 194 
f 193 257 258 
f 194 259 195 
f 194 258 259 
f 195 260 196 
f 195 259 260 
f 196 261 197 
f 196 260 261 
f 197 262 198 
f 197 261 262 
f 198 263 199 
f 198 262 263 
f 199 264 200 
f 199 263 264 
f 200 265 201 
f 200 264 265 
f 201 266 202 
f 201 265 266 
f 202 267 203 
f 202 266 267 
f 203 268 204 
f 203 267 268 
f 204 269 205 
f 204 268 269 
f 205 270 206 
f 205 269 270 
f 206 271 207 
f 206 270 271 
f 207 272 208 
f 207 271 272 
f 208 273 209 
f 208 272 273 
f 209 274 210 
f 209 273 274 
f 210 275 211 
f 210 274 275 
f 211 276 212 
f 211 275 276 
f 212 277 213 
f 212 276 277 
f 213 278 214 
f 213 277 278 
f 214 279 215 
f 214 278 279 
f 215 280 216 
f 215 279 280 
f 216 281 217 
f 216 280 281 
f 217 282 218 
f 217 281 282 
f 218 283 219 
f 218 282 283 
f 219 284 220 
f 219 283 284 
f 220 285 221 
f 220 284 285 
f 221 286 222 
f 221 285 286 
f 222 287 223 
f 222 286 287 
f 223 288 224 
f 223 287 288 
f 224 289 225 
f 224 288 289 
f 225 290 226 
f 225 289 290 
f 226 291 227 
f 226 290 291 
f 227 292 228 
f 227 291 292 
f 228 293 229 
f 228 292 293 
f 229 294 230 
f 229 293 294 
f 230 295 231 
f 230 294 295 
f 231 296 232 
f 231 295 296 
f 232 297 233 
f 232 296 297 
f 233 298 234 
f 233 297 298 
f 234 299 235 
f 234 298 299 
f 235 300 236 
f 235 299 300 
f 236 301 237 
f 236 300 301 
f 237 302 238 
f 237 301 302 
f 238 303 239 
f 238 302 303 
f 239 304 240 
f 239 303 304 
f 240 305 241 
f 240 304 305 
f 241 306 242 
f 241 305 306 
f 242 307 243 
f 242 306 307 
f 243 308 244 
f 243 307 308 
f 244 309 245 
f 244 308 309 
f 245 310 246 
f 245 309 310 
f 246 311 247 
f 246 310 311 
f 247 312 248 
f 247 311 312 
f 248 313 249 
f 248 312 313 
f 249 314 250 
f 249 313 314 
f 250 315 251 
f 250 314 315 
f 251 316 252 
f 251 315 316 
f 252 317 253 
f 252 316 317 
f 253 318 254 
f 253 317 318 
f 254 319 255 
f 254 318 319 
f 255 320 256 
f 255 319 320 
f 256 257 193 
f 256 320 257 
f 257 322 258 
f 257 321 322 
f 258 323 259 
f 258 322 323 
f 259 324 260 
f 259 323 324 
f 260 325 261 
f 260 324 325 
f 261 326 262 
f 261 325 326 
f 262 327 263 
f 262 326 327 
f 263 328 264 
f 263 327 328 
f 264 329 265 
f 264 328 329 
f 265 330 266 
f 265 329 330 
f 266 331 267 
f 266 330 331 
f 267 332 268 
f 267 331 332 
f 268 333 269 
f 268 332 333 
f 269 334 270 
f 269 333 334 
f 270 335 271 
f 270 334 335 
f 271 336 272 
f 271 335 336 
f 272 337 273 
f 272 336 337 
f 273 338 274 
f 273 337 338 
f 274 339 275 
f 274 338 339 
f 275 340 276 
f 275 339 340 
f 276 341 277 
f 276 340 341 
f 277 342 278 
f 277 341 342 
f 278 343 279 
f 278 342 343 
f 279 344 280 
f 279 343 344 
f 280 345 281 
f 280 344 345 
f 281 346 282 
f 281 345 346 
f 282 347 283 
f 282 346 347 
f 283 348 284 
f 283 347 348 
f 284 349 285 
f 284 348 349 
f 285 350 286 
f 285 349 350 
f 286 351 287 
f 286 350 351 
f 287 352 288 
f 287 351 352 
f 288 353 289 
f 288 352 353 
f 289 354 290 
f 289 353 354 
f 290 355 291 
f 290 354 355 
f 291 356 292 
f 291 355 356 
f 292 357 293 
f 292 356 357 
f 293 358 294 
f 293 357 358 
f 294 359 295 
f 294 358 359 
f 295 360 296 
f 295 359 360 
f 296 361 297 
f 296 360 361 
f 297 362 298 
f 297 361 362 
f 298 363 299 
f 298 362 363 
f 299 364 300 
f 299 363 364 
f 300 365 301 
f 300 364 365 
f 301 366 302 
f 301 365 366 
f 302 367 303 
f 302 366 367 
f 303 368 304 
f 303 367 368 
f 304 369 305 
f 304 368 369 
f 305 370 306 
f 305 369 370 
f 306 371 307 
f 306 370 371 
f 307 372 308 
f 307 371 372 
f 308 373 309 
f 308 372 373 
f 309 374 310 
f 309 373 374 
f 310 375 311 
f 310 374 375 
f 311 376 312 
f 311 375 376 
f 312 377 313 
f 312 376 377 
f 313 378 314 
f 313 377 378 
f 314 379 315 
f 314 378 379 
f 315 380 316 
f 315 379 380 
f 316 381 317 
f 316 380 381 
f 317 382 318 
f 317 381 382 
f 318 383 319 
f 318 382 383 
f 319 384 320 
f 319 383 384 
f 320 321 257 
f 320 384 321 
f 321 386 322 
f 321 385 386 
f 322 387 323 
f 322 386 387 
f 323 388 324 
f 323 387 388 
f 324 389 325 
f 324 388 389 
f 325 390 326 
f 325 389 390 
f 326 391 327 
f 326 390 391 
f 327 392 328 
f 327 391 392 
f 328 393 329 
f 328 392 393 
f 329 394 330 
f 329 393 394 
f 330 395 331 
f 330 394 395 
f 331 396 332 
f 331 395 396 
f 332 397 333 
f 332 396 397 
f 333 398 334 
f 333 397 398 
f 334 399 335 
f 334 398 399 
f 335 400 336 
f 335 399 400 
f 336 401 337 
f 336 400 401 
f 337 402 338 
f 337 401 402 
f 338 403 339 
f 338 402 403 
f 339 404 340 
f 339 403 404 
f 340 405 341 
f 340 404 405 
f 341 406 342 
f 341 405 406 
f 342 407 343 
f 342 406 407 
f 343 408 344 
f 343 407 408 
f 344 409 345 
f 344 408 409 
f 345 410 346 
f 345 409 410 
f 346 411 347 
f 346 410 411 
f 347 412 348 
f 347 411 412 
f 348 413 349 
f 348 412 413 
f 349 414 350 
f 349 413 414 
f 350 415 351 
f 350 414 415 
f 351 416 352 
f 351 415 416 
f 352 417 353 
f 352 416 417 
f 353 418 354 
f 353 417 418 
f 354 419 355 
f 354 418 419 
f 355 420 356 
f 355 419 420 
f 356 421 357 
f 356 420 421 
f 357 422 358 
f 357 421 422 
f 358 423 359 
f 358 422 423 
f 359 424 360 
f 359 423 424 
f 360 425 361 
f 360 424 425 
f 361 426 362 
f 361 425 426 
f 362 427 363 
f 362 426 427 
f 363 428 364 
f 363 427 428 
f 364 429 365 
f 364 428 429 
f 365 430 366 
f 365 429 430 
f 366 431 367 
f 366 430 431 
f 367 432 368 
f 367 431 432 
f 368 433 369 
f 368 432 433 
f 369 434 370 
f 369 433 434 
f 370 435 371 
f 370 434 435 
f 371 436 372 
f 371 435 436 
f 372 437 373 
f 372 436 437 
f 373 438 374 
f 373 437 438 
f 374 439 375 
f 374 438 439 
f 375 440 376 
f 375 439 440 
f 376 441 377 
f 376 440 441 
f 377 442 378 
f 377 441 442 
f 378 443 379 
f 378 442 443 
f 379 444 380 
f 379 443 444 
f 380 445 381 
f 380 444 445 
f 381 446 382 
f 381 445 446 
f 382 447 383 
f 382 446 447 
f 383 448 384 
f 383 447 448 
f 384 385 321 
f 384 448 385 
f 385 450 386 
f 385 449 450 
f 386 451 387 
f 386 450 451 
f 387 452 388 
f 387 451 452 
f 388 453 389 
f 388 452 453 
f 389 454 390 
f 389 453 454 
f 390 455 391 
f 390 454 455 
f 391 456 392 
f 391 455 456 
f 392 457 393 
f 392 456 457 
f 393 458 394 
f 393 457 458 
f 394 459 395 
f 394 458 459 
f 395 460 396 
f 395 459 460 
f 396 461 397 
f 396 460 461 
f 397 462 398 
f 397 461 462 
f 398 463 399 
f 398 462 463 
f 399 464 400 
f 399 463 464 
f 400 465 401 
f 400 464 465 
f 401 466 402 
f 401 465 466 
f 402 467 403 
f 402 466 467 
f 403 468 404 
f 403 467 468 
f 404 469 405 
f 404 468 469 
f 405 470 406 
f 405 469 470 
f 406 471 407 
f 406 470 471 
f 407 472 408 
f 407 471 472 
f 408 473 409 
f 408 472 473 
f 409 474 410 
f 409 473 474 
f 410 475 411 
f 410 474 475 
f 411 476 412 
f 411 475 476 
f 412 477 413 
f 412 476 477 
f 413 478 414 
f 413 477 478 
f 414 479 415 
f 414 478 479 
f 415 480 416 
f 415 479 480 
f 416 481 417 
f 416 480 481 
f 417 482 418 
f 417 481 482 
f 418 483 419 
f 418 482 483 
f 419 484 420 
f 419 483 484 
f 420 485 421 
f 420 484 485 
f 421 486 422 
f 421 485 486 
f 422 487 423 
f 422 486 487 
f 423 488 424 
f 423 487 488 
f 424 489 425 
f 424 488 489 
f 425 490 426 
f 425 489 490 
f 426 491 427 
f 426 490 491 
f 427 492 428 
f 427 491 492 
f 428 493 429 
f 428 492 493 
f 429 494 430 
f 429 493 494 
f 430 495 431 
f 430 494 495 
f 431 496 432 
f 431 495 496 
f 432 497 433 
f 432 496 497 
f 433 498 434 
f 433 497 498 
f 434 499 435 
f 434 498 499 
f 435 500 436 
f 435 499 500 
f 436 501 437 
f 436 500 501 
f 437 502 438 
f 437 501 502 
f 438 503 439 
f 438 502 503 
f 439 504 440 
f 439 503 504 
f 440 505 441 
f 440 504 505 
f 441 506 442 
f 441 505 506 
f 442 507 443 
f 442 506 507 
f 443 508 444 
f 443 507 508 
f 444 509 445 
f 444 508 509 
f 445 510 446 
f 445 509 510 
f 446 511 447 
f 446 510 511 
f 447 512 448 
f 447 511 512 
f 448 449 385 
f 448 512 449 
f 449 514 450 
f 449 513 514 
f 450 515 451 
f 450 514 515 
f 451 516 452 
f 451 515 516 
f 452 517 453 
f 452 516 517 
f 453 518 454 
f 453 517 518 
f 454 519 455 
f 454 518 519 
f 455 520 456 
f 455 519 520 
f 456 521 457 
f 456 520 521 
f 457 522 458 
f 457 521 522 
f 458 523 459 
f 458 522 523 
f 459 524 460 
f 459 523 524 
f 460 525 461 
f 460 524 525 
f 461 526 462 
f 461 525 526 
f 462 527 463 
f 462 526 527 
f 463 528 464 
f 463 527 528 
f 464 529 465 
f 464 528 529 
f 465 530 466 
f 465 529 530 
f 466 531 467 
f 466 530 531 
f 467 532 468 
f 467 531 532 
f 468 533 469 
f 468 532 533 
f 469 534 470 
f 469 533 534 
f 470 535 471 
f 470 534 535 
f 471 536 472 
f 471 535 536 
f 472 537 473 
f 472 536 537 
f 473 538 474 
f 473 537 538 
f 474 539 475 
f 474 538 539 
f 475 540 476 
f 475 539 540 
f 476 541 477 
f 476 540 541 
f 477 542 478 
f 477 541 542 
f 478 543 479 
f 478 542 543 
f 479 544 480 
f 479 543 544 
f 480 545 481 
f 480 544 545 
f 481 546 482 
f 481 545 546 
f 482 547 483 
f 482 546 547 
f 483 548 484 
f 483 547 548 
f 484 549 485 
f 484 548 549 
f 485 550 486 
f 485 549 550 
f 486 551 487 
f 486 550 551 
f 487 552 488 
f 487 551 552 
f 488 553 489 
f 488 552 553 
f 489 554 490 
f 489 553 554 
f 490 555 491 
f 490 554 555 
f 491 556 492 
f 491 555 556 
f 492 557 493 
f 492 556 557 
f 493 558 494 
f 493 557 558 
f 494 559 495 
f 494 558 559 
f 495 560 496 
f 495 559 560 
f 496 561 497 
f 496 560 561 
f 497 562 498 
f 497 561 562 
f 498 563 499 
f 498 562 563 
f 499 564 500 
f 499 563 564 
f 500 565 501 
f 500 564 565 
f 501 566 502 
f 501 565 566 
f 502 567 503 
f 502 566 567 
f 503 568 504 
f 503 567 568 
f 504 569 505 
f 504 568 569 
f 505 570 506 
f 505 569 570 
f 506 571 507 
f 506 570 571 
f 507 572 508 
f 507 571 572 
f 508 573 509 
f 508 572 573 
f 509 574 510 
f 509 573 574 
f 510 575 511 
f 510 574 575 
f 511 576 512 
f 511 575 576 
f 512 513 449 
f 512 576 513 
f 513 578 514 
f 513 577 578 
f 514 579 515 
f 514 578 579 
f 515 580 516 
f 515 579 580 
f 516 581 517 
f 516 580 581 
f 517 582 518 
f 517 581 582 
f 518 583 519 
f 518 582 583 
f 519 584 520 
f 519 583 584 
f 520 585 521 
f 520 584 585 
f 521 586 522 
f 521 585 586 
f 522 587 523 
f 522 586 587 
f 523 588 524 
f 523 587 588 
f 524 589 525 
f 524 588 589 
f 525 590 526 
f 525 589 590 
f 526 591 527 
f 526 590 591 
f 527 592 528 
f 527 591 592 
f 528 593 529 
f 528 592 593 
f 529 594 530 
f 529 593 594 
f 530 595 531 
f 530 594 595 
f 531 596 532 
f 531 595 596 
f 532 597 533 
f 532 596 597 
f 533 598 534 
f 533 597 598 
f 534 599 535 
f 534 598 599 
f 535 600 536 
f 535 599 600 
f 536 601 537 
f 536 600 601 
f 537 602 538 
f 537 601 602 
f 538 603 539 
f 538 602 603 
f 539 604 540 
f 539 603 604 
f 540 605 541 
f 540 604 605 
f 541 606 542 
f 541 605 606 
f 542 607 543 
f 542 606 607 
f 543 608 544 
f 543 607 608 
f 544 609 545 
f 544 608 609 
f 545 610 546 
f 545 609 610 
f 546 611 547 
f 546 610 611 
f 547 612 548 
f 547 611 612 
f 548 613 549 
f 548 612 613 
f 549 614 550 
f 549 613 614 
f 550 615 551 
f 550 614 615 
f 551 616 552 
f 551 615 616 
f 552 617 553 
f 552 616 617 
f 553 618 554 
f 553 617 618 
f 554 619 555 
f 554 618 619 
f 555 620 556 
f 555 619 620 
f 556 621 557 
f 556 620 621 
f 557 622 558 
f 557 621 622 
f 558 623 559 
f 558 622 623 
f 559 624 560 
f 559 623 624 
f 560 625 561 
f 560 624 625 
f 561 626 562 
f 561 625 626 
f 562 627 563 
f 562 626 627 
f 563 628 564 
f 563 627 628 
f 564 629 565 
f 564 628 629 
f 565 630 566 
f 565 629 630 
f 566 631 567 
f 566 630 631 
f 567 632 568 
f 567 631 632 
f 568 633 569 
f 568 632 633 
f 569 634 570 
f 569 633 634 
f 570 635 571 
f 570 634 635 
f 571 636 572 
f 571 635 636 
f 572 637 573 
f 572 636 637 
f 573 638 574 
f 573 637 638 
f 574 639 575 
f 574 638 639 
f 575 640 576 
f 575 639 640 
f 576 577 513 
f 576 640 577 
