# Branch
v -3.19369 1.89641 -11.0417
vn 0.175637 0.0873426 0.980573
v -3.1906 1.89769 -11.0425
vn 0.263571 0.123766 0.956667
v -3.18761 1.89892 -11.0437
vn 0.348967 0.158997 0.923548
v -3.18474 1.90011 -11.0452
vn 0.431002 0.192697 0.881535
v -3.18201 1.90122 -11.0469
vn 0.508887 0.224541 0.831033
v -3.17945 1.90226 -11.049
vn 0.58187 0.254223 0.772527
v -3.17709 1.90322 -11.0513
vn 0.64925 0.281457 0.706581
v -3.17494 1.90408 -11.0538
vn 0.710377 0.30598 0.63383
v -3.17304 1.90483 -11.0566
vn 0.764663 0.327556 0.554976
v -3.1714 1.90548 -11.0596
vn 0.811584 0.345978 0.470776
v -3.17002 1.90601 -11.0627
vn 0.85069 0.361067 0.382043
v -3.16894 1.90641 -11.0659
vn 0.881603 0.37268 0.28963
v -3.16816 1.9067 -11.0692
vn 0.904026 0.380703 0.194429
v -3.16767 1.90685 -11.0726
vn 0.917742 0.38506 0.0973542
v -3.1675 1.90687 -11.0761
vn 0.92262 0.385709 -0.000657695
v -3.16764 1.90676 -11.0795
vn 0.918613 0.382643 -0.0986632
v -3.16809 1.90653 -11.0829
vn 0.905759 0.375891 -0.195719
v -3.16885 1.90616 -11.0863
vn 0.884182 0.36552 -0.290889
v -3.16991 1.90568 -11.0895
vn 0.85409 0.351629 -0.383258
v -3.17125 1.90507 -11.0926
vn 0.815773 0.334352 -0.471936
v -3.17287 1.90435 -11.0956
vn 0.769599 0.313854 -0.556069
v -3.17475 1.90353 -11.0983
vn 0.716014 0.290334 -0.634847
v -3.17687 1.90261 -11.1009
vn 0.655532 0.264017 -0.707511
v -3.17921 1.90159 -11.1032
vn 0.588738 0.235159 -0.773361
v -3.18175 1.9005 -11.1052
vn 0.516274 0.204035 -0.831764
v -3.18446 1.89934 -11.107
vn 0.438838 0.170946 -0.882156
v -3.18732 1.89813 -11.1084
vn 0.357176 0.136211 -0.924052
v -3.19031 1.89686 -11.1096
vn 0.272074 0.100165 -0.957049
v -3.19338 1.89556 -11.1104
vn 0.184351 0.0631534 -0.980829
v -3.19652 1.89425 -11.1109
vn 0.0948537 0.0255339 -0.995164
v -3.19969 1.89292 -11.1111
vn 0.00444249 -0.0123315 -0.999914
v -3.20286 1.8916 -11.1109
vn -0.0860115 -0.0500782 -0.995035
v -3.206 1.89029 -11.1104
vn -0.175637 -0.0873426 -0.980573
v -3.20908 1.88901 -11.1096
vn -0.263571 -0.123766 -0.956667
v -3.21208 1.88778 -11.1084
vn -0.348967 -0.158997 -0.923548
v -3.21495 1.8866 -11.107
vn -0.431002 -0.192697 -0.881535
v -3.21768 1.88548 -11.1052
vn -0.508887 -0.224541 -0.831033
v -3.22024 1.88444 -11.1031
vn -0.58187 -0.254223 -0.772527
v -3.2226 1.88349 -11.1008
vn -0.64925 -0.281457 -0.706581
v -3.22474 1.88263 -11.0983
vn -0.710377 -0.30598 -0.63383
v -3.22665 1.88187 -11.0955
vn -0.764663 -0.327556 -0.554976
v -3.22829 1.88122 -11.0926
vn -0.811584 -0.345978 -0.470776
v -3.22966 1.88069 -11.0895
vn -0.85069 -0.361067 -0.382043
v -3.23075 1.88029 -11.0862
vn -0.881603 -0.37268 -0.28963
v -3.23153 1.88001 -11.0829
vn -0.904026 -0.380703 -0.194429
v -3.23201 1.87985 -11.0795
vn -0.917742 -0.38506 -0.0973542
v -3.23218 1.87983 -11.076
vn -0.92262 -0.385709 0.000657695
v -3.23204 1.87994 -11.0726
vn -0.918613 -0.382643 0.0986632
v -3.23159 1.88018 -11.0692
vn -0.905759 -0.375891 0.195719
v -3.23084 1.88054 -11.0659
vn -0.884182 -0.36552 0.290889
v -3.22978 1.88103 -11.0626
vn -0.85409 -0.351629 0.383258
v -3.22844 1.88163 -11.0595
vn -0.815773 -0.334352 0.471936
v -3.22682 1.88235 -11.0566
vn -0.769599 -0.313854 0.556069
v -3.22494 1.88317 -11.0538
vn -0.716014 -0.290334 0.634847
v -3.22282 1.8841 -11.0513
vn -0.655532 -0.264017 0.707511
v -3.22048 1.88511 -11.049
vn -0.588738 -0.235159 0.773361
v -3.21794 1.8862 -11.0469
vn -0.516274 -0.204035 0.831764
v -3.21523 1.88736 -11.0451
vn -0.438838 -0.170946 0.882156
v -3.21236 1.88858 -11.0437
vn -0.357176 -0.136211 0.924052
v -3.20938 1.88984 -11.0425
vn -0.272074 -0.100165 0.957049
v -3.20631 1.89114 -11.0417
vn -0.184351 -0.0631534 0.980829
v -3.20317 1.89246 -11.0412
vn -0.0948537 -0.0255339 0.995164
v -3.2 1.89378 -11.041
vn -0.00444249 0.0123315 0.999914
v -3.19683 1.89511 -11.0412
vn 0.0860115 0.0500782 0.995035
v -3.13633 1.60984 -11.3266
vn 0.423434 -0.821701 0.381459
v -3.13273 1.61153 -11.3275
vn 0.510175 -0.780901 0.360438
v -3.12934 1.61353 -11.3285
vn 0.592003 -0.73258 0.335946
v -3.12619 1.61582 -11.3296
vn 0.668129 -0.677204 0.308219
v -3.1233 1.61839 -11.3309
vn 0.737821 -0.615306 0.277524
v -3.12071 1.6212 -11.3323
vn 0.800407 -0.547482 0.244155
v -3.11844 1.62422 -11.3338
vn 0.855285 -0.474386 0.208436
v -3.11651 1.62744 -11.3353
vn 0.901926 -0.396721 0.170709
v -3.11493 1.63082 -11.337
vn 0.939881 -0.315235 0.131338
v -3.11374 1.63432 -11.3387
vn 0.968785 -0.230714 0.0907023
v -3.11293 1.63791 -11.3404
vn 0.988359 -0.14397 0.049193
v -3.11251 1.64156 -11.3421
vn 0.998414 -0.0558406 0.00720996
v -3.11249 1.64523 -11.3439
vn 0.998854 0.032827 -0.0348425
v -3.11287 1.64889 -11.3456
vn 0.989674 0.121178 -0.0765594
v -3.11365 1.6525 -11.3473
vn 0.970963 0.208363 -0.117539
v -3.11481 1.65603 -11.3489
vn 0.942902 0.293541 -0.157387
v -3.11635 1.65944 -11.3505
vn 0.905759 0.375891 -0.195719
v -3.11825 1.6627 -11.352
vn 0.859894 0.454622 -0.232166
v -3.12049 1.66578 -11.3534
vn 0.805747 0.528975 -0.266377
v -3.12305 1.66865 -11.3548
vn 0.743841 0.598233 -0.298023
v -3.12591 1.67128 -11.356
vn 0.674771 0.66173 -0.326798
v -3.12905 1.67365 -11.357
vn 0.599203 0.718854 -0.352427
v -3.13241 1.67573 -11.3579
vn 0.517864 0.769055 -0.374661
v -3.13599 1.6775 -11.3587
vn 0.431538 0.81185 -0.393287
v -3.13974 1.67895 -11.3593
vn 0.341056 0.846826 -0.408126
v -3.14362 1.68006 -11.3598
vn 0.247289 0.873647 -0.419034
v -3.1476 1.68082 -11.3601
vn 0.151141 0.892054 -0.425907
v -3.15165 1.68123 -11.3602
vn 0.0535367 0.90187 -0.428678
v -3.15571 1.68127 -11.3601
vn -0.0445828 0.903 -0.42732
v -3.15976 1.68096 -11.3599
vn -0.142273 0.895435 -0.421847
v -3.16375 1.68029 -11.3595
vn -0.238593 0.879245 -0.412312
v -3.16764 1.67927 -11.3589
vn -0.332615 0.854588 -0.398806
v -3.1714 1.67791 -11.3582
vn -0.423434 0.821701 -0.381459
v -3.175 1.67622 -11.3573
vn -0.510175 0.780901 -0.360438
v -3.17838 1.67422 -11.3563
vn -0.592003 0.73258 -0.335946
v -3.18154 1.67192 -11.3552
vn -0.668129 0.677204 -0.308219
v -3.18442 1.66936 -11.3539
vn -0.737821 0.615306 -0.277524
v -3.18702 1.66655 -11.3525
vn -0.800407 0.547482 -0.244155
v -3.18929 1.66352 -11.351
vn -0.855285 0.474386 -0.208436
v -3.19122 1.6603 -11.3495
vn -0.901926 0.396721 -0.170709
v -3.19279 1.65693 -11.3479
vn -0.939881 0.315235 -0.131338
v -3.19399 1.65343 -11.3462
vn -0.968785 0.230714 -0.0907023
v -3.1948 1.64984 -11.3445
vn -0.988359 0.14397 -0.049193
v -3.19522 1.64619 -11.3427
vn -0.998414 0.0558406 -0.00720996
v -3.19524 1.64251 -11.341
vn -0.998854 -0.032827 0.0348425
v -3.19486 1.63885 -11.3392
vn -0.989674 -0.121178 0.0765594
v -3.19408 1.63524 -11.3375
vn -0.970963 -0.208363 0.117539
v -3.19292 1.63171 -11.3359
vn -0.942902 -0.293541 0.157387
v -3.19138 1.6283 -11.3343
vn -0.905759 -0.375891 0.195719
v -3.18948 1.62504 -11.3328
vn -0.859894 -0.454622 0.232166
v -3.18724 1.62196 -11.3314
vn -0.805747 -0.528975 0.266377
v -3.18467 1.61909 -11.3301
vn -0.743841 -0.598233 0.298023
v -3.18181 1.61646 -11.3289
vn -0.674771 -0.66173 0.326798
v -3.17868 1.6141 -11.3278
vn -0.599203 -0.718854 0.352427
v -3.17531 1.61202 -11.3269
vn -0.517864 -0.769055 0.374661
v -3.17174 1.61025 -11.3261
vn -0.431538 -0.81185 0.393287
v -3.16799 1.6088 -11.3255
vn -0.341056 -0.846826 0.408126
v -3.16411 1.60769 -11.3251
vn -0.247289 -0.873647 0.419034
v -3.16012 1.60692 -11.3248
vn -0.151141 -0.892054 0.425907
v -3.15608 1.60652 -11.3247
vn -0.0535367 -0.90187 0.428678
v -3.15202 1.60647 -11.3247
vn 0.0445828 -0.903 0.42732
v -3.14797 1.60678 -11.3249
vn 0.142273 -0.895435 0.421847
v -3.14398 1.60745 -11.3253
vn 0.238593 -0.879245 0.412312
v -3.14009 1.60847 -11.3259
vn 0.332615 -0.854588 0.398806
v -3.20099 1.34205 -12.1402
vn 0.40917 -0.89593 0.172886
v -3.19684 1.34401 -12.1411
vn 0.49598 -0.854772 0.15287
v -3.19292 1.34637 -12.1421
vn 0.578013 -0.805382 0.131381
v -3.18926 1.3491 -12.1432
vn 0.654479 -0.748236 0.108628
v -3.18591 1.35218 -12.1444
vn 0.724643 -0.683884 0.0848276
v -3.18289 1.35557 -12.1455
vn 0.787828 -0.612946 0.0602108
v -3.18023 1.35924 -12.1468
vn 0.843425 -0.536104 0.0350141
v -3.17796 1.36316 -12.148
vn 0.8909 -0.4541 0.00948015
v -3.17611 1.36729 -12.1492
vn 0.929795 -0.367723 -0.0161451
v -3.17468 1.37158 -12.1504
vn 0.959736 -0.277804 -0.0416148
v -3.17369 1.37601 -12.1516
vn 0.980434 -0.18521 -0.0666837
v -3.17315 1.38052 -12.1528
vn 0.99169 -0.0908317 -0.0911105
v -3.17307 1.38507 -12.1539
vn 0.993395 0.00442092 -0.11466
v -3.17344 1.38962 -12.155
vn 0.985533 0.099631 -0.137105
v -3.17427 1.39413 -12.156
vn 0.96818 0.193882 -0.15823
v -3.17555 1.39854 -12.1569
vn 0.941503 0.286265 -0.17783
v -3.17725 1.40282 -12.1578
vn 0.905759 0.375891 -0.195719
v -3.17938 1.40693 -12.1585
vn 0.861292 0.461898 -0.211722
v -3.1819 1.41083 -12.1592
vn 0.80853 0.543456 -0.225686
v -3.18479 1.41448 -12.1598
vn 0.747982 0.61978 -0.237477
v -3.18803 1.41784 -12.1602
vn 0.68023 0.690136 -0.246981
v -3.19158 1.42089 -12.1606
vn 0.605927 0.753845 -0.254106
v -3.19541 1.42358 -12.1608
vn 0.525789 0.810294 -0.258784
v -3.19948 1.42591 -12.1609
vn 0.440587 0.85894 -0.26097
v -3.20376 1.42784 -12.1609
vn 0.351142 0.899314 -0.260643
v -3.20819 1.42935 -12.1607
vn 0.258315 0.931026 -0.257805
v -3.21275 1.43044 -12.1605
vn 0.163001 0.953773 -0.252485
v -3.21738 1.43109 -12.1601
vn 0.0661163 0.967334 -0.244733
v -3.22204 1.43129 -12.1596
vn -0.0314047 0.971579 -0.234624
v -3.22669 1.43105 -12.159
vn -0.128623 0.966467 -0.222256
v -3.23127 1.43036 -12.1584
vn -0.224603 0.952048 -0.207747
v -3.23576 1.42923 -12.1576
vn -0.31842 0.92846 -0.191237
v -3.24009 1.42768 -12.1567
vn -0.40917 0.89593 -0.172886
v -3.24424 1.42571 -12.1557
vn -0.49598 0.854772 -0.15287
v -3.24816 1.42335 -12.1547
vn -0.578013 0.805382 -0.131381
v -3.25182 1.42062 -12.1536
vn -0.654479 0.748236 -0.108628
v -3.25517 1.41754 -12.1525
vn -0.724643 0.683884 -0.0848276
v -3.25819 1.41415 -12.1513
vn -0.787828 0.612946 -0.0602108
v -3.26084 1.41048 -12.1501
vn -0.843425 0.536104 -0.0350141
v -3.26311 1.40656 -12.1489
vn -0.8909 0.4541 -0.00948015
v -3.26497 1.40243 -12.1477
vn -0.929795 0.367723 0.0161451
v -3.2664 1.39814 -12.1464
vn -0.959736 0.277804 0.0416148
v -3.26739 1.39371 -12.1452
vn -0.980434 0.18521 0.0666837
v -3.26793 1.3892 -12.1441
vn -0.99169 0.0908317 0.0911105
v -3.26801 1.38465 -12.1429
vn -0.993395 -0.00442092 0.11466
v -3.26764 1.3801 -12.1419
vn -0.985533 -0.099631 0.137105
v -3.26681 1.3756 -12.1409
vn -0.96818 -0.193882 0.15823
v -3.26553 1.37118 -12.1399
vn -0.941503 -0.286265 0.17783
v -3.26382 1.3669 -12.1391
vn -0.905759 -0.375891 0.195719
v -3.2617 1.36279 -12.1383
vn -0.861292 -0.461898 0.211722
v -3.25918 1.35889 -12.1376
vn -0.80853 -0.543456 0.225686
v -3.25628 1.35524 -12.1371
vn -0.747982 -0.61978 0.237477
v -3.25305 1.35188 -12.1366
vn -0.68023 -0.690136 0.246981
v -3.2495 1.34884 -12.1363
vn -0.605927 -0.753845 0.254106
v -3.24567 1.34614 -12.1361
vn -0.525789 -0.810294 0.258784
v -3.24159 1.34381 -12.136
vn -0.440587 -0.85894 0.26097
v -3.23732 1.34188 -12.136
vn -0.351142 -0.899314 0.260643
v -3.23288 1.34037 -12.1361
vn -0.258315 -0.931026 0.257805
v -3.22833 1.33928 -12.1364
vn -0.163001 -0.953773 0.252485
v -3.2237 1.33863 -12.1367
vn -0.0661163 -0.967334 0.244733
v -3.21904 1.33843 -12.1372
vn 0.0314047 -0.971579 0.234624
v -3.21439 1.33867 -12.1378
vn 0.128623 -0.966467 0.222256
v -3.20981 1.33936 -12.1385
vn 0.224603 -0.952048 0.207747
v -3.20532 1.34049 -12.1393
vn 0.31842 -0.92846 0.191237
v -3.37825 1.06693 -13.4889
vn 0.399165 -0.911835 0.0960377
v -3.37355 1.06917 -13.49
vn 0.486023 -0.870601 0.0763915
v -3.3691 1.07186 -13.4911
vn 0.5682 -0.820982 0.0560095
v -3.36494 1.07497 -13.4922
vn 0.644905 -0.763457 0.0350882
v -3.36112 1.07848 -13.4933
vn 0.7154 -0.698579 0.013829
v -3.35768 1.08236 -13.4945
vn 0.779004 -0.626973 -0.00756345
v -3.35464 1.08657 -13.4957
vn 0.835107 -0.549329 -0.028883
v -3.35204 1.09106 -13.4968
vn 0.883166 -0.466395 -0.0499244
v -3.3499 1.09579 -13.4979
vn 0.922721 -0.37897 -0.0704851
v -3.34824 1.10073 -13.499
vn 0.953389 -0.287894 -0.0903669
v -3.34707 1.10581 -13.5
vn 0.974876 -0.194046 -0.109378
v -3.34642 1.11099 -13.501
vn 0.986974 -0.0983296 -0.127337
v -3.34628 1.11623 -13.5019
vn 0.989566 -0.00166588 -0.144068
v -3.34665 1.12146 -13.5027
vn 0.982629 0.0950139 -0.159413
v -3.34754 1.12665 -13.5035
vn 0.966229 0.190779 -0.173222
v -3.34893 1.13173 -13.5041
vn 0.940523 0.284706 -0.185363
v -3.35082 1.13667 -13.5047
vn 0.905759 0.375891 -0.195719
v -3.35317 1.14142 -13.5052
vn 0.862273 0.463457 -0.20419
v -3.35598 1.14592 -13.5055
vn 0.810482 0.546559 -0.210694
v -3.3592 1.15013 -13.5057
vn 0.750886 0.624398 -0.215169
v -3.36282 1.15402 -13.5059
vn 0.684059 0.696223 -0.217572
v -3.3668 1.15755 -13.5059
vn 0.610643 0.761343 -0.21788
v -3.37109 1.16068 -13.5058
vn 0.531347 0.819131 -0.21609
v -3.37566 1.16338 -13.5056
vn 0.446934 0.86903 -0.212218
v -3.38047 1.16563 -13.5053
vn 0.358216 0.91056 -0.206303
v -3.38546 1.1674 -13.5048
vn 0.266049 0.943321 -0.198401
v -3.39059 1.16868 -13.5043
vn 0.171319 0.966998 -0.188588
v -3.39581 1.16946 -13.5037
vn 0.0749397 0.981361 -0.176959
v -3.40107 1.16973 -13.503
vn -0.0221615 0.986274 -0.163626
v -3.40632 1.16948 -13.5021
vn -0.119049 0.981688 -0.148716
v -3.4115 1.16872 -13.5013
vn -0.21479 0.967648 -0.132375
v -3.41657 1.16746 -13.5003
vn -0.308463 0.944289 -0.114759
v -3.42149 1.1657 -13.4993
vn -0.399165 0.911835 -0.0960377
v -3.42619 1.16346 -13.4982
vn -0.486023 0.870601 -0.0763915
v -3.43064 1.16078 -13.4971
vn -0.5682 0.820982 -0.0560095
v -3.43479 1.15766 -13.496
vn -0.644905 0.763457 -0.0350882
v -3.43861 1.15415 -13.4948
vn -0.7154 0.698579 -0.013829
v -3.44206 1.15027 -13.4937
vn -0.779004 0.626973 0.00756345
v -3.44509 1.14607 -13.4925
vn -0.835107 0.549329 0.028883
v -3.4477 1.14157 -13.4914
vn -0.883166 0.466395 0.0499244
v -3.44984 1.13684 -13.4903
vn -0.922721 0.37897 0.0704851
v -3.4515 1.13191 -13.4892
vn -0.953389 0.287894 0.0903669
v -3.45266 1.12683 -13.4882
vn -0.974876 0.194046 0.109378
v -3.45332 1.12164 -13.4872
vn -0.986974 0.0983296 0.127337
v -3.45346 1.11641 -13.4863
vn -0.989566 0.00166588 0.144068
v -3.45308 1.11117 -13.4855
vn -0.982629 -0.0950139 0.159413
v -3.4522 1.10598 -13.4847
vn -0.966229 -0.190779 0.173222
v -3.4508 1.1009 -13.4841
vn -0.940523 -0.284706 0.185363
v -3.44892 1.09596 -13.4835
vn -0.905759 -0.375891 0.195719
v -3.44657 1.09122 -13.483
vn -0.862273 -0.463457 0.20419
v -3.44376 1.08672 -13.4827
vn -0.810482 -0.546559 0.210694
v -3.44053 1.0825 -13.4824
vn -0.750886 -0.624398 0.215169
v -3.43691 1.07861 -13.4823
vn -0.684059 -0.696223 0.217572
v -3.43294 1.07508 -13.4823
vn -0.610643 -0.761343 0.21788
v -3.42864 1.07196 -13.4824
vn -0.531347 -0.819131 0.21609
v -3.42407 1.06925 -13.4826
vn -0.446934 -0.86903 0.212218
v -3.41927 1.067 -13.4829
vn -0.358216 -0.91056 0.206303
v -3.41428 1.06523 -13.4834
vn -0.266049 -0.943321 0.198401
v -3.40915 1.06395 -13.4839
vn -0.171319 -0.966998 0.188588
v -3.40393 1.06317 -13.4845
vn -0.0749397 -0.981361 0.176959
v -3.39867 1.0629 -13.4852
vn 0.0221615 -0.986274 0.163626
v -3.39342 1.06315 -13.486
vn 0.119049 -0.981688 0.148716
v -3.38824 1.06391 -13.4869
vn 0.21479 -0.967648 0.132375
v -3.38316 1.06518 -13.4879
vn 0.308463 -0.944289 0.114759
v -3.66806 0.782696 -15.376
vn 0.393148 -0.917713 0.0569015
v -3.6628 0.785193 -15.3772
vn 0.480035 -0.87645 0.0374438
v -3.65782 0.788201 -15.3784
vn 0.562298 -0.826747 0.0176254
v -3.65317 0.791691 -15.3796
vn 0.639147 -0.769081 -0.00236274
v -3.64889 0.79563 -15.3808
vn 0.70984 -0.704009 -0.0223281
v -3.64502 0.799979 -15.382
vn 0.773697 -0.632157 -0.0420784
v -3.64161 0.804696 -15.3831
vn 0.830103 -0.554216 -0.0614235
v -3.63868 0.809736 -15.3843
vn 0.878515 -0.470939 -0.0801771
v -3.63626 0.815051 -15.3854
vn 0.918466 -0.383126 -0.0981585
v -3.63438 0.820589 -15.3864
vn 0.949572 -0.291623 -0.115195
v -3.63305 0.826297 -15.3874
vn 0.971532 -0.197312 -0.131121
v -3.63229 0.83212 -15.3882
vn 0.984137 -0.1011 -0.145785
v -3.6321 0.838002 -15.389
vn 0.987264 -0.0039151 -0.159045
v -3.63248 0.843887 -15.3898
vn 0.980882 0.0933077 -0.170773
v -3.63344 0.849717 -15.3904
vn 0.965055 0.189632 -0.180857
v -3.63496 0.855436 -15.3909
vn 0.939933 0.28413 -0.189199
v -3.63703 0.86099 -15.3913
vn 0.905759 0.375891 -0.195719
v -3.63963 0.866324 -15.3915
vn 0.862863 0.464033 -0.200354
v -3.64273 0.871389 -15.3917
vn 0.811656 0.547706 -0.203059
v -3.6463 0.876134 -15.3918
vn 0.752633 0.626104 -0.203809
v -3.65031 0.880514 -15.3917
vn 0.686361 0.698472 -0.202596
v -3.65472 0.884486 -15.3915
vn 0.61348 0.764114 -0.199432
v -3.65949 0.888014 -15.3912
vn 0.53469 0.822396 -0.194347
v -3.66457 0.891062 -15.3908
vn 0.450751 0.872759 -0.18739
v -3.66991 0.893602 -15.3902
vn 0.362471 0.914716 -0.178629
v -3.67547 0.895608 -15.3896
vn 0.2707 0.947865 -0.168148
v -3.68118 0.897062 -15.3889
vn 0.176322 0.971885 -0.156047
v -3.68699 0.897949 -15.388
vn 0.0802466 0.986545 -0.142444
v -3.69286 0.898261 -15.3871
vn -0.0166021 0.991704 -0.127468
v -3.69871 0.897995 -15.3862
vn -0.113291 0.987312 -0.111265
v -3.70449 0.897154 -15.3851
vn -0.208889 0.973412 -0.093991
v -3.71016 0.895745 -15.384
vn -0.302475 0.950138 -0.0758113
v -3.71565 0.893783 -15.3829
vn -0.393148 0.917713 -0.0569015
v -3.7209 0.891286 -15.3817
vn -0.480035 0.87645 -0.0374438
v -3.72588 0.888277 -15.3805
vn -0.562298 0.826747 -0.0176254
v -3.73053 0.884787 -15.3793
vn -0.639147 0.769081 0.00236274
v -3.73481 0.880849 -15.3781
vn -0.70984 0.704009 0.0223281
v -3.73868 0.8765 -15.3769
vn -0.773697 0.632157 0.0420784
v -3.74209 0.871783 -15.3757
vn -0.830103 0.554216 0.0614235
v -3.74502 0.866742 -15.3746
vn -0.878515 0.470939 0.0801771
v -3.74744 0.861428 -15.3735
vn -0.918466 0.383126 0.0981585
v -3.74932 0.855889 -15.3724
vn -0.949572 0.291623 0.115195
v -3.75065 0.850181 -15.3715
vn -0.971532 0.197312 0.131121
v -3.75142 0.844358 -15.3706
vn -0.984137 0.1011 0.145785
v -3.7516 0.838476 -15.3698
vn -0.987264 0.0039151 0.159045
v -3.75122 0.832592 -15.3691
vn -0.980882 -0.0933077 0.170773
v -3.75026 0.826762 -15.3685
vn -0.965055 -0.189632 0.180857
v -3.74874 0.821043 -15.368
vn -0.939933 -0.28413 0.189199
v -3.74667 0.815489 -15.3676
vn -0.905759 -0.375891 0.195719
v -3.74408 0.810154 -15.3673
vn -0.862863 -0.464033 0.200354
v -3.74098 0.80509 -15.3671
vn -0.811656 -0.547706 0.203059
v -3.7374 0.800345 -15.3671
vn -0.752633 -0.626104 0.203809
v -3.73339 0.795965 -15.3672
vn -0.686361 -0.698472 0.202596
v -3.72898 0.791992 -15.3674
vn -0.61348 -0.764114 0.199432
v -3.72421 0.788465 -15.3677
vn -0.53469 -0.822396 0.194347
v -3.71913 0.785416 -15.3681
vn -0.450751 -0.872759 0.18739
v -3.71379 0.782877 -15.3686
vn -0.362471 -0.914716 0.178629
v -3.70824 0.780871 -15.3692
vn -0.2707 -0.947865 0.168148
v -3.70252 0.779417 -15.37
vn -0.176322 -0.971885 0.156047
v -3.69671 0.77853 -15.3708
vn -0.0802466 -0.986545 0.142444
v -3.69085 0.778217 -15.3717
vn 0.0166021 -0.991704 0.127468
v -3.68499 0.778483 -15.3727
vn 0.113291 -0.987312 0.111265
v -3.67921 0.779325 -15.3737
vn 0.208889 -0.973412 0.093991
v -3.67354 0.780733 -15.3748
vn 0.302475 -0.950138 0.0758113
v -4.07045 0.489053 -17.8022
vn 0.389221 -0.920542 0.0332963
v -4.06464 0.491814 -17.8035
vn 0.476127 -0.879266 0.0139522
v -4.05913 0.495141 -17.8048
vn 0.558447 -0.829522 -0.00552626
v -4.05399 0.499003 -17.8061
vn 0.63539 -0.771789 -0.0249515
v -4.04925 0.503362 -17.8074
vn 0.706213 -0.706623 -0.0441365
v -4.04497 0.508177 -17.8086
vn 0.770234 -0.634652 -0.0628964
v -4.04118 0.5134 -17.8098
vn 0.826839 -0.556569 -0.0810506
v -4.03793 0.518981 -17.811
vn 0.87548 -0.473126 -0.0984242
v -4.03524 0.524868 -17.8121
vn 0.915689 -0.385126 -0.11485
v -4.03314 0.531002 -17.8131
vn 0.947081 -0.293418 -0.13017
v -4.03165 0.537326 -17.8141
vn 0.969351 -0.198884 -0.144236
v -4.03078 0.543778 -17.8149
vn 0.982286 -0.102434 -0.156913
v -4.03055 0.550295 -17.8156
vn 0.985761 -0.00499785 -0.168078
v -4.03095 0.556816 -17.8163
vn 0.979743 0.0924864 -0.177626
v -4.03199 0.563278 -17.8168
vn 0.964289 0.18908 -0.185462
v -4.03364 0.569617 -17.8172
vn 0.939548 0.283853 -0.191513
v -4.0359 0.575774 -17.8175
vn 0.905759 0.375891 -0.195719
v -4.03874 0.581688 -17.8177
vn 0.863247 0.46431 -0.19804
v -4.04214 0.587304 -17.8177
vn 0.812422 0.548258 -0.198454
v -4.04607 0.592566 -17.8176
vn 0.753773 0.626925 -0.196956
v -4.05048 0.597424 -17.8174
vn 0.687864 0.699555 -0.193562
v -4.05533 0.601832 -17.817
vn 0.615331 0.765447 -0.188304
v -4.06058 0.605746 -17.8165
vn 0.536872 0.823968 -0.181233
v -4.06617 0.60913 -17.8159
vn 0.453242 0.874554 -0.172416
v -4.07206 0.611951 -17.8152
vn 0.365248 0.916717 -0.161938
v -4.07818 0.61418 -17.8144
vn 0.273735 0.950052 -0.149901
v -4.08448 0.615798 -17.8135
vn 0.179587 0.974237 -0.13642
v -4.09089 0.616788 -17.8125
vn 0.0837095 0.98904 -0.121626
v -4.09736 0.617141 -17.8115
vn -0.0129745 0.994318 -0.10566
v -4.10382 0.616854 -17.8103
vn -0.109533 0.99002 -0.0886767
v -4.1102 0.615929 -17.8091
vn -0.205038 0.976187 -0.0708394
v -4.11646 0.614375 -17.8079
vn -0.298567 0.952953 -0.0523198
v -4.12252 0.612206 -17.8066
vn -0.389221 0.920542 -0.0332963
v -4.12834 0.609445 -17.8053
vn -0.476127 0.879266 -0.0139522
v -4.13384 0.606118 -17.804
vn -0.558447 0.829522 0.00552626
v -4.13899 0.602256 -17.8027
vn -0.63539 0.771789 0.0249515
v -4.14373 0.597897 -17.8015
vn -0.706213 0.706623 0.0441365
v -4.14801 0.593083 -17.8002
vn -0.770234 0.634652 0.0628964
v -4.1518 0.58786 -17.799
vn -0.826839 0.556569 0.0810506
v -4.15505 0.582278 -17.7978
vn -0.87548 0.473126 0.0984242
v -4.15774 0.576391 -17.7967
vn -0.915689 0.385126 0.11485
v -4.15984 0.570257 -17.7957
vn -0.947081 0.293418 0.13017
v -4.16133 0.563933 -17.7948
vn -0.969351 0.198884 0.144236
v -4.1622 0.557482 -17.7939
vn -0.982286 0.102434 0.156913
v -4.16243 0.550964 -17.7932
vn -0.985761 0.00499785 0.168078
v -4.16203 0.544443 -17.7925
vn -0.979743 -0.0924864 0.177626
v -4.16099 0.537982 -17.792
vn -0.964289 -0.18908 0.185462
v -4.15934 0.531642 -17.7916
vn -0.939548 -0.283853 0.191513
v -4.15708 0.525486 -17.7913
vn -0.905759 -0.375891 0.195719
v -4.15423 0.519571 -17.7912
vn -0.863247 -0.46431 0.19804
v -4.15083 0.513956 -17.7911
vn -0.812422 -0.548258 0.198454
v -4.14691 0.508693 -17.7912
vn -0.753773 -0.626925 0.196956
v -4.1425 0.503835 -17.7915
vn -0.687864 -0.699555 0.193562
v -4.13765 0.499427 -17.7918
vn -0.615331 -0.765447 0.188304
v -4.1324 0.495513 -17.7923
vn -0.536872 -0.823968 0.181233
v -4.12681 0.492129 -17.7929
vn -0.453242 -0.874554 0.172416
v -4.12092 0.489309 -17.7936
vn -0.365248 -0.916717 0.161938
v -4.1148 0.487079 -17.7944
vn -0.273735 -0.950052 0.149901
v -4.1085 0.485461 -17.7953
vn -0.179587 -0.974237 0.13642
v -4.10209 0.484471 -17.7963
vn -0.0837095 -0.98904 0.121626
v -4.09562 0.484118 -17.7973
vn 0.0129745 -0.994318 0.10566
v -4.08916 0.484405 -17.7985
vn 0.109533 -0.99002 0.0886767
v -4.08277 0.485331 -17.7997
vn 0.205038 -0.976187 0.0708394
v -4.07652 0.486885 -17.8009
vn 0.298567 -0.952953 0.0523198
v -4.58547 0.185932 -20.7678
vn 0.386475 -0.922133 0.0175332
v -4.5791 0.188956 -20.7692
vn 0.473394 -0.880849 -0.00173501
v -4.57307 0.192602 -20.7706
vn 0.555754 -0.831082 -0.0209865
v -4.56742 0.196835 -20.772
vn 0.632762 -0.773311 -0.0400359
v -4.56223 0.201613 -20.7733
vn 0.703676 -0.708092 -0.0586997
v -4.55753 0.20689 -20.7747
vn 0.767813 -0.636055 -0.0767982
v -4.55337 0.212616 -20.7759
vn 0.824555 -0.557892 -0.0941571
v -4.5498 0.218736 -20.7771
vn 0.873357 -0.474355 -0.110609
v -4.54684 0.225191 -20.7783
vn 0.913748 -0.386251 -0.125996
v -4.54452 0.231918 -20.7793
vn 0.945339 -0.294427 -0.14017
v -4.54288 0.238852 -20.7802
vn 0.967825 -0.199767 -0.152993
v -4.54191 0.245928 -20.7811
vn 0.980992 -0.103184 -0.164343
v -4.54164 0.253077 -20.7818
vn 0.98471 -0.00560661 -0.174111
v -4.54206 0.260229 -20.7824
vn 0.978945 0.0920246 -0.182201
v -4.54318 0.267317 -20.7829
vn 0.963753 0.18877 -0.188537
v -4.54497 0.274271 -20.7832
vn 0.939279 0.283697 -0.193058
v -4.54742 0.281025 -20.7834
vn 0.905759 0.375891 -0.195719
v -4.55052 0.287514 -20.7834
vn 0.863517 0.464466 -0.196495
v -4.55422 0.293675 -20.7834
vn 0.812958 0.548568 -0.195378
v -4.5585 0.29945 -20.7831
vn 0.75457 0.627387 -0.192381
v -4.56331 0.304781 -20.7828
vn 0.688915 0.700164 -0.18753
v -4.56861 0.309619 -20.7823
vn 0.616625 0.766197 -0.180874
v -4.57434 0.313916 -20.7817
vn 0.538397 0.824852 -0.172475
v -4.58045 0.317631 -20.7809
vn 0.454984 0.875563 -0.162415
v -4.58688 0.320728 -20.7801
vn 0.367189 0.917842 -0.150792
v -4.59357 0.323178 -20.7791
vn 0.275858 0.951282 -0.137716
v -4.60046 0.324957 -20.7781
vn 0.18187 0.97556 -0.123314
v -4.60747 0.326047 -20.7769
vn 0.0861312 0.990443 -0.107724
v -4.61454 0.326439 -20.7757
vn -0.0104375 0.995787 -0.0910968
v -4.62161 0.326127 -20.7744
vn -0.106906 0.991542 -0.0735923
v -4.6286 0.325117 -20.7731
vn -0.202344 0.977747 -0.0553791
v -4.63545 0.323416 -20.7717
vn -0.295834 0.954537 -0.0366325
v -4.64209 0.321043 -20.7703
vn -0.386475 0.922133 -0.0175332
v -4.64846 0.318018 -20.7689
vn -0.473394 0.880849 0.00173501
v -4.65449 0.314372 -20.7675
vn -0.555754 0.831082 0.0209865
v -4.66014 0.31014 -20.7661
vn -0.632762 0.773311 0.0400359
v -4.66533 0.305362 -20.7647
vn -0.703676 0.708092 0.0586997
v -4.67003 0.300085 -20.7634
vn -0.767813 0.636055 0.0767982
v -4.67419 0.294358 -20.7621
vn -0.824555 0.557892 0.0941571
v -4.67776 0.288239 -20.7609
vn -0.873357 0.474355 0.110609
v -4.68072 0.281784 -20.7598
vn -0.913748 0.386251 0.125996
v -4.68304 0.275057 -20.7588
vn -0.945339 0.294427 0.14017
v -4.68468 0.268122 -20.7578
vn -0.967825 0.199767 0.152993
v -4.68565 0.261047 -20.757
vn -0.980992 0.103184 0.164343
v -4.68592 0.253898 -20.7563
vn -0.98471 0.00560661 0.174111
v -4.6855 0.246746 -20.7557
vn -0.978945 -0.0920246 0.182201
v -4.68438 0.239658 -20.7552
vn -0.963753 -0.18877 0.188537
v -4.68259 0.232704 -20.7549
vn -0.939279 -0.283697 0.193058
v -4.68014 0.22595 -20.7547
vn -0.905759 -0.375891 0.195719
v -4.67704 0.219461 -20.7546
vn -0.863517 -0.464466 0.196495
v -4.67334 0.213299 -20.7547
vn -0.812958 -0.548568 0.195378
v -4.66906 0.207525 -20.7549
vn -0.75457 -0.627387 0.192381
v -4.66425 0.202193 -20.7553
vn -0.688915 -0.700164 0.18753
v -4.65895 0.197356 -20.7558
vn -0.616625 -0.766197 0.180874
v -4.65322 0.193059 -20.7564
vn -0.538397 -0.824852 0.172475
v -4.64711 0.189344 -20.7571
vn -0.454984 -0.875563 0.162415
v -4.64068 0.186246 -20.758
vn -0.367189 -0.917842 0.150792
v -4.63399 0.183797 -20.759
vn -0.275858 -0.951282 0.137716
v -4.6271 0.182018 -20.76
vn -0.18187 -0.97556 0.123314
v -4.62009 0.180928 -20.7611
vn -0.0861312 -0.990443 0.107724
v -4.61302 0.180536 -20.7624
vn 0.0104375 -0.995787 0.0910968
v -4.60595 0.180847 -20.7637
vn 0.106906 -0.991542 0.0735923
v -4.59896 0.181858 -20.765
vn 0.202344 -0.977747 0.0553791
v -4.59211 0.183558 -20.7664
vn 0.295834 -0.954537 0.0366325
v -5.21311 -0.126694 -24.2728
vn 0.384452 -0.923124 0.00626892
v -5.20619 -0.123406 -24.2744
vn 0.471381 -0.881835 -0.012945
v -5.19963 -0.119442 -24.2759
vn 0.55377 -0.832053 -0.0320343
v -5.19349 -0.11484 -24.2774
vn 0.630826 -0.774259 -0.0508151
v -5.18784 -0.109644 -24.2788
vn 0.701807 -0.709008 -0.0691065
v -5.18273 -0.103905 -24.2802
vn 0.766029 -0.636928 -0.0867324
v -5.1782 -0.0976769 -24.2816
vn 0.822873 -0.558715 -0.103523
v -5.17431 -0.0910205 -24.2828
vn 0.871793 -0.475121 -0.119317
v -5.17108 -0.0839998 -24.284
vn 0.912317 -0.386952 -0.133961
v -5.16855 -0.0766823 -24.2851
vn 0.944055 -0.295055 -0.147316
v -5.16675 -0.0691386 -24.286
vn 0.966702 -0.200318 -0.159251
v -5.16569 -0.0614412 -24.2868
vn 0.980038 -0.103651 -0.169653
v -5.16538 -0.0536643 -24.2875
vn 0.983936 -0.00598565 -0.178421
v -5.16582 -0.0458829 -24.2881
vn 0.978358 0.0917371 -0.185471
v -5.16702 -0.0381718 -24.2885
vn 0.963358 0.188576 -0.190735
v -5.16895 -0.0306053 -24.2888
vn 0.939081 0.2836 -0.194162
v -5.1716 -0.0232563 -24.2889
vn 0.905759 0.375891 -0.195719
v -5.17495 -0.0161956 -24.2889
vn 0.863715 0.464563 -0.195391
v -5.17896 -0.00949108 -24.2887
vn 0.813352 0.548761 -0.193181
v -5.18359 -0.00320741 -24.2884
vn 0.755157 0.627674 -0.189111
v -5.18881 0.00259492 -24.2879
vn 0.689689 0.700543 -0.183219
v -5.19455 0.00786003 -24.2873
vn 0.617579 0.766664 -0.175564
v -5.20077 0.0125372 -24.2866
vn 0.539521 0.825402 -0.166217
v -5.20739 0.0165814 -24.2857
vn 0.456267 0.876191 -0.155269
v -5.21437 0.0199538 -24.2847
vn 0.36862 0.918542 -0.142827
v -5.22164 0.0226217 -24.2836
vn 0.277422 0.952047 -0.129009
v -5.22911 0.0245595 -24.2824
vn 0.183552 0.976383 -0.113948
v -5.23673 0.0257486 -24.2811
vn 0.0879153 0.991316 -0.0977898
v -5.24441 0.0261775 -24.2798
vn -0.00856856 0.996702 -0.08069
v -5.25208 0.025842 -24.2783
vn -0.10497 0.99249 -0.0628131
v -5.25968 0.0247455 -24.2769
vn -0.20036 0.978719 -0.0443313
v -5.26712 0.0228984 -24.2754
vn -0.293821 0.955522 -0.0254225
v -5.27434 0.0203185 -24.2738
vn -0.384452 0.923124 -0.00626892
v -5.28126 0.0170308 -24.2723
vn -0.471381 0.881835 0.012945
v -5.28782 0.0130668 -24.2708
vn -0.55377 0.832053 0.0320343
v -5.29396 0.00846477 -24.2693
vn -0.630826 0.774259 0.0508151
v -5.29961 0.00326897 -24.2678
vn -0.701807 0.709008 0.0691065
v -5.30472 -0.00247054 -24.2664
vn -0.766029 0.636928 0.0867324
v -5.30925 -0.00869849 -24.2651
vn -0.822873 0.558715 0.103523
v -5.31315 -0.0153549 -24.2638
vn -0.871793 0.475121 0.119317
v -5.31637 -0.0223756 -24.2627
vn -0.912317 0.386952 0.133961
v -5.3189 -0.0296931 -24.2616
vn -0.944055 0.295055 0.147316
v -5.3207 -0.0372369 -24.2607
vn -0.966702 0.200318 0.159251
v -5.32176 -0.0449342 -24.2598
vn -0.980038 0.103651 0.169653
v -5.32207 -0.0527111 -24.2591
vn -0.983936 0.00598565 0.178421
v -5.32163 -0.0604925 -24.2586
vn -0.978358 -0.0917371 0.185471
v -5.32044 -0.0682036 -24.2581
vn -0.963358 -0.188576 0.190735
v -5.3185 -0.0757701 -24.2579
vn -0.939081 -0.2836 0.194162
v -5.31585 -0.0831191 -24.2578
vn -0.905759 -0.375891 0.195719
v -5.3125 -0.0901799 -24.2578
vn -0.863715 -0.464563 0.195391
v -5.30849 -0.0968844 -24.258
vn -0.813352 -0.548761 0.193181
v -5.30386 -0.103168 -24.2583
vn -0.755157 -0.627674 0.189111
v -5.29864 -0.10897 -24.2587
vn -0.689689 -0.700543 0.183219
v -5.2929 -0.114235 -24.2594
vn -0.617579 -0.766664 0.175564
v -5.28669 -0.118913 -24.2601
vn -0.539521 -0.825402 0.166217
v -5.28006 -0.122957 -24.261
vn -0.456267 -0.876191 0.155269
v -5.27308 -0.126329 -24.262
vn -0.36862 -0.918542 0.142827
v -5.26582 -0.128997 -24.2631
vn -0.277422 -0.952047 0.129009
v -5.25834 -0.130935 -24.2643
vn -0.183552 -0.976383 0.113948
v -5.25073 -0.132124 -24.2655
vn -0.0879153 -0.991316 0.0977898
v -5.24304 -0.132553 -24.2669
vn 0.00856856 -0.996702 0.08069
v -5.23537 -0.132217 -24.2683
vn 0.10497 -0.99249 0.0628131
v -5.22777 -0.131121 -24.2698
vn 0.20036 -0.978719 0.0443313
v -5.22033 -0.129274 -24.2713
vn 0.293821 -0.955522 0.0254225
v -5.9534 -0.448837 -28.3175
vn 0.382902 -0.923786 -0.0021789
v -5.94592 -0.445286 -28.3191
vn 0.469838 -0.882494 -0.0213522
v -5.93884 -0.441004 -28.3208
vn 0.552249 -0.832703 -0.0403198
v -5.93221 -0.436033 -28.3224
vn 0.629342 -0.774893 -0.0588992
v -5.9261 -0.43042 -28.3239
vn 0.700374 -0.70962 -0.0769113
v -5.92057 -0.424219 -28.3254
vn 0.764661 -0.637513 -0.0941827
v -5.91567 -0.41749 -28.3268
vn 0.821584 -0.559266 -0.110547
v -5.91146 -0.410298 -28.3281
vn 0.870595 -0.475634 -0.125847
v -5.90797 -0.402712 -28.3293
vn 0.911221 -0.38742 -0.139935
v -5.90523 -0.394805 -28.3304
vn 0.943072 -0.295476 -0.152675
v -5.90327 -0.386654 -28.3314
vn 0.96584 -0.200686 -0.163945
v -5.90211 -0.378336 -28.3322
vn 0.979307 -0.103963 -0.173636
v -5.90176 -0.369932 -28.3329
vn 0.983343 -0.00623931 -0.181654
v -5.90223 -0.361523 -28.3334
vn 0.977908 0.0915447 -0.187924
v -5.90351 -0.35319 -28.3338
vn 0.963056 0.188447 -0.192383
v -5.90558 -0.345013 -28.3341
vn 0.938929 0.283535 -0.19499
v -5.90843 -0.33707 -28.3341
vn 0.905759 0.375891 -0.195719
v -5.91204 -0.329439 -28.334
vn 0.863867 0.464628 -0.194563
v -5.91636 -0.322193 -28.3338
vn 0.813655 0.548891 -0.191533
v -5.92135 -0.315402 -28.3333
vn 0.755607 0.627867 -0.186659
v -5.92696 -0.30913 -28.3328
vn 0.690282 0.700796 -0.179987
v -5.93315 -0.303439 -28.332
vn 0.61831 0.766977 -0.171581
v -5.93986 -0.298383 -28.3312
vn 0.540382 0.825771 -0.161524
v -5.947 -0.294011 -28.3302
vn 0.457251 0.876612 -0.14991
v -5.95453 -0.290364 -28.3291
vn 0.369716 0.919011 -0.136853
v -5.96237 -0.287479 -28.3278
vn 0.27862 0.95256 -0.122478
v -5.97043 -0.285383 -28.3265
vn 0.184842 0.976934 -0.106924
v -5.97865 -0.284096 -28.3251
vn 0.0892826 0.991901 -0.0903395
v -5.98694 -0.283631 -28.3236
vn -0.00713623 0.997315 -0.0728852
v -5.99523 -0.283991 -28.322
vn -0.103486 0.993124 -0.054729
v -6.00343 -0.285174 -28.3204
vn -0.19884 0.979369 -0.0360458
v -6.01146 -0.287168 -28.3188
vn -0.292278 0.956182 -0.0170154
v -6.01925 -0.289954 -28.3171
vn -0.382902 0.923786 0.0021789
v -6.02673 -0.293505 -28.3155
vn -0.469838 0.882494 0.0213522
v -6.03382 -0.297787 -28.3138
vn -0.552249 0.832703 0.0403198
v -6.04045 -0.302758 -28.3122
vn -0.629342 0.774893 0.0588992
v -6.04656 -0.308371 -28.3107
vn -0.700374 0.70962 0.0769113
v -6.05208 -0.314572 -28.3092
vn -0.764661 0.637513 0.0941827
v -6.05698 -0.321301 -28.3078
vn -0.821584 0.559266 0.110547
v -6.06119 -0.328493 -28.3065
vn -0.870595 0.475634 0.125847
v -6.06469 -0.336079 -28.3053
vn -0.911221 0.38742 0.139935
v -6.06743 -0.343986 -28.3042
vn -0.943072 0.295476 0.152675
v -6.06938 -0.352137 -28.3032
vn -0.96584 0.200686 0.163945
v -6.07054 -0.360455 -28.3024
vn -0.979307 0.103963 0.173636
v -6.07089 -0.368859 -28.3017
vn -0.983343 0.00623931 0.181654
v -6.07042 -0.377268 -28.3011
vn -0.977908 -0.0915447 0.187924
v -6.06914 -0.385601 -28.3007
vn -0.963056 -0.188447 0.192383
v -6.06707 -0.393778 -28.3005
vn -0.938929 -0.283535 0.19499
v -6.06422 -0.40172 -28.3005
vn -0.905759 -0.375891 0.195719
v -6.06061 -0.409351 -28.3006
vn -0.863867 -0.464628 0.194563
v -6.0563 -0.416598 -28.3008
vn -0.813655 -0.548891 0.191533
v -6.05131 -0.423389 -28.3012
vn -0.755607 -0.627867 0.186659
v -6.04569 -0.429661 -28.3018
vn -0.690282 -0.700796 0.179987
v -6.0395 -0.435352 -28.3025
vn -0.61831 -0.766977 0.171581
v -6.0328 -0.440408 -28.3034
vn -0.540382 -0.825771 0.161524
v -6.02565 -0.44478 -28.3044
vn -0.457251 -0.876612 0.14991
v -6.01812 -0.448426 -28.3055
vn -0.369716 -0.919011 0.136853
v -6.01029 -0.451311 -28.3068
vn -0.27862 -0.95256 0.122478
v -6.00222 -0.453408 -28.3081
vn -0.184842 -0.976934 0.106924
v -5.994 -0.454695 -28.3095
vn -0.0892826 -0.991901 0.0903395
v -5.98571 -0.45516 -28.311
vn 0.00713623 -0.997315 0.0728852
v -5.97743 -0.4548 -28.3126
vn 0.103486 -0.993124 0.054729
v -5.96923 -0.453617 -28.3142
vn 0.19884 -0.979369 0.0360458
v -5.96119 -0.451623 -28.3158
vn 0.292278 -0.956182 0.0170154
v -6.80633 -0.780503 -32.9017
vn 0.381677 -0.924254 -0.00874784
v -6.7983 -0.776689 -32.9035
vn 0.468619 -0.88296 -0.0278895
v -6.79068 -0.77209 -32.9052
vn 0.551048 -0.833162 -0.0467626
v -6.78356 -0.766749 -32.9069
vn 0.62817 -0.775341 -0.0651853
v -6.777 -0.760719 -32.9086
vn 0.699242 -0.710052 -0.0829802
v -6.77105 -0.754057 -32.9101
vn 0.763581 -0.637926 -0.099976
v -6.76579 -0.746828 -32.9116
vn 0.820566 -0.559655 -0.116009
v -6.76126 -0.7391 -32.913
vn 0.869648 -0.475995 -0.130925
v -6.7575 -0.73095 -32.9143
vn 0.910355 -0.387751 -0.14458
v -6.75455 -0.722454 -32.9154
vn 0.942295 -0.295773 -0.156842
v -6.75243 -0.713696 -32.9164
vn 0.96516 -0.200946 -0.167594
v -6.75118 -0.704759 -32.9172
vn 0.97873 -0.104184 -0.176732
v -6.7508 -0.695729 -32.9179
vn 0.982874 -0.00641842 -0.184168
v -6.75129 -0.686693 -32.9184
vn 0.977552 0.0914088 -0.18983
v -6.75265 -0.677739 -32.9188
vn 0.962817 0.188356 -0.193665
v -6.75487 -0.668952 -32.919
vn 0.938809 0.283489 -0.195634
v -6.75792 -0.660417 -32.919
vn 0.905759 0.375891 -0.195719
v -6.76178 -0.652217 -32.9188
vn 0.863987 0.464674 -0.193919
v -6.76641 -0.64443 -32.9185
vn 0.813894 0.548982 -0.190251
v -6.77176 -0.637131 -32.918
vn 0.755963 0.628003 -0.184752
v -6.77778 -0.630391 -32.9173
vn 0.690751 0.700975 -0.177473
v -6.78442 -0.624275 -32.9165
vn 0.618887 0.767197 -0.168485
v -6.79161 -0.618841 -32.9155
vn 0.541063 0.826031 -0.157874
v -6.79928 -0.614141 -32.9144
vn 0.458028 0.876909 -0.145743
v -6.80735 -0.610222 -32.9131
vn 0.370582 0.919342 -0.132208
v -6.81576 -0.607121 -32.9117
vn 0.279567 0.952921 -0.1174
v -6.82441 -0.604867 -32.9103
vn 0.18586 0.977324 -0.101462
v -6.83323 -0.603482 -32.9087
vn 0.0903631 0.992314 -0.0845462
v -6.84213 -0.60298 -32.9071
vn -0.0060043 0.997747 -0.0668163
v -6.85103 -0.603366 -32.9054
vn -0.102314 0.993572 -0.048443
v -6.85983 -0.604635 -32.9036
vn -0.197638 0.979828 -0.0296031
v -6.86846 -0.606776 -32.9019
vn -0.291059 0.956648 -0.0104781
v -6.87683 -0.609768 -32.9001
vn -0.381677 0.924254 0.00874784
v -6.88486 -0.613582 -32.8983
vn -0.468619 0.88296 0.0278895
v -6.89248 -0.618182 -32.8966
vn -0.551048 0.833162 0.0467626
v -6.8996 -0.623523 -32.8949
vn -0.62817 0.775341 0.0651853
v -6.90616 -0.629553 -32.8932
vn -0.699242 0.710052 0.0829802
v -6.91211 -0.636215 -32.8917
vn -0.763581 0.637926 0.099976
v -6.91737 -0.643444 -32.8902
vn -0.820566 0.559655 0.116009
v -6.9219 -0.651171 -32.8888
vn -0.869648 0.475995 0.130925
v -6.92566 -0.659322 -32.8875
vn -0.910355 0.387751 0.14458
v -6.92861 -0.667817 -32.8864
vn -0.942295 0.295773 0.156842
v -6.93073 -0.676576 -32.8854
vn -0.96516 0.200946 0.167594
v -6.93198 -0.685513 -32.8846
vn -0.97873 0.104184 0.176732
v -6.93236 -0.694543 -32.8839
vn -0.982874 0.00641842 0.184168
v -6.93187 -0.703579 -32.8834
vn -0.977552 -0.0914088 0.18983
v -6.93051 -0.712533 -32.883
vn -0.962817 -0.188356 0.193665
v -6.92829 -0.72132 -32.8828
vn -0.938809 -0.283489 0.195634
v -6.92524 -0.729855 -32.8828
vn -0.905759 -0.375891 0.195719
v -6.92138 -0.738055 -32.883
vn -0.863987 -0.464674 0.193919
v -6.91675 -0.745842 -32.8833
vn -0.813894 -0.548982 0.190251
v -6.9114 -0.75314 -32.8838
vn -0.755963 -0.628003 0.184752
v -6.90538 -0.75988 -32.8845
vn -0.690751 -0.700975 0.177473
v -6.89874 -0.765997 -32.8853
vn -0.618887 -0.767197 0.168485
v -6.89155 -0.771431 -32.8863
vn -0.541063 -0.826031 0.157874
v -6.88389 -0.77613 -32.8874
vn -0.458028 -0.876909 0.145743
v -6.87581 -0.78005 -32.8887
vn -0.370582 -0.919342 0.132208
v -6.8674 -0.783151 -32.8901
vn -0.279567 -0.952921 0.1174
v -6.85875 -0.785405 -32.8915
vn -0.18586 -0.977324 0.101462
v -6.84993 -0.78679 -32.8931
vn -0.0903631 -0.992314 0.0845462
v -6.84103 -0.787291 -32.8947
vn 0.0060043 -0.997747 0.0668163
v -6.83213 -0.786906 -32.8964
vn 0.102314 -0.993572 0.048443
v -6.82333 -0.785636 -32.8982
vn 0.197638 -0.979828 0.0296031
v -6.8147 -0.783495 -32.8999
vn 0.291059 -0.956648 0.0104781
f 1 66 2 
f 1 65 66 
f 2 67 3 
f 2 66 67 
f 3 68 4 
f 3 67 68 
f 4 69 5 
f 4 68 69 
f 5 70 6 
f 5 69 70 
f 6 71 7 
f 6 70 71 
f 7 72 8 
f 7 71 72 
f 8 73 9 
f 8 72 73 
f 9 74 10 
f 9 73 74 
f 10 75 11 
f 10 74 75 
f 11 76 12 
f 11 75 76 
f 12 77 13 
f 12 76 77 
f 13 78 14 
f 13 77 78 
f 14 79 15 
f 14 78 79 
f 15 80 16 
f 15 79 80 
f 16 81 17 
f 16 80 81 
f 17 82 18 
f 17 81 82 
f 18 83 19 
f 18 82 83 
f 19 84 20 
f 19 83 84 
f 20 85 21 
f 20 84 85 
f 21 86 22 
f 21 85 86 
f 22 87 23 
f 22 86 87 
f 23 88 24 
f 23 87 88 
f 24 89 25 
f 24 88 89 
f 25 90 26 
f 25 89 90 
f 26 91 27 
f 26 90 91 
f 27 92 28 
f 27 91 92 
f 28 93 29 
f 28 92 93 
f 29 94 30 
f 29 93 94 
f 30 95 31 
f 30 94 95 
f 31 96 32 
f 31 95 96 
f 32 97 33 
f 32 96 97 
f 33 98 34 
f 33 97 98 
f 34 99 35 
f 34 98 99 
f 35 100 36 
f 35 99 100 
f 36 101 37 
f 36 100 101 
f 37 102 38 
f 37 101 102 
f 38 103 39 
f 38 102 103 
f 39 104 40 
f 39 103 104 
f 40 105 41 
f 40 104 105 
f 41 106 42 
f 41 105 106 
f 42 107 43 
f 42 106 107 
f 43 108 44 
f 43 107 108 
f 44 109 45 
f 44 108 109 
f 45 110 46 
f 45 109 110 
f 46 111 47 
f 46 110 111 
f 47 112 48 
f 47 111 112 
f 48 113 49 
f 48 112 113 
f 49 114 50 
f 49 113 114 
f 50 115 51 
f 50 114 115 
f 51 116 52 
f 51 115 116 
f 52 117 53 
f 52 116 117 
f 53 118 54 
f 53 117 118 
f 54 119 55 
f 54 118 119 
f 55 120 56 
f 55 119 120 
f 56 121 57 
f 56 120 121 
f 57 122 58 
f 57 121 122 
f 58 123 59 
f 58 122 123 
f 59 124 60 
f 59 123 124 
f 60 125 61 
f 60 124 125 
f 61 126 62 
f 61 125 126 
f 62 127 63 
f 62 126 127 
f 63 128 64 
f 63 127 128 
f 64 65 1 
f 64 128 65 
f 65 130 66 
f 65 129 130 
f 66 131 67 
f 66 130 131 
f 67 132 68 
f 67 131 132 
f 68 133 69 
f 68 132 133 
f 69 134 70 
f 69 133 134 
f 70 135 71 
f 70 134 135 
f 71 136 72 
f 71 135 136 
f 72 137 73 
f 72 136 137 
f 73 138 74 
f 73 137 138 
f 74 139 75 
f 74 138 139 
f 75 140 76 
f 75 139 140 
f 76 141 77 
f 76 140 141 
f 77 142 78 
f 77 141 142 
f 78 143 79 
f 78 142 143 
f 79 144 80 
f 79 143 144 
f 80 145 81 
f 80 144 145 
f 81 146 82 
f 81 145 146 
f 82 147 83 
f 82 146 147 
f 83 148 84 
f 83 147 148 
f 84 149 85 
f 84 148 149 
f 85 150 86 
f 85 149 150 
f 86 151 87 
f 86 150 151 
f 87 152 88 
f 87 151 152 
f 88 153 89 
f 88 152 153 
f 89 154 90 
f 89 153 154 
f 90 155 91 
f 90 154 155 
f 91 156 92 
f 91 155 156 
f 92 157 93 
f 92 156 157 
f 93 158 94 
f 93 157 158 
f 94 159 95 
f 94 158 159 
f 95 160 96 
f 95 159 160 
f 96 161 97 
f 96 160 161 
f 97 162 98 
f 97 161 162 
f 98 163 99 
f 98 162 163 
f 99 164 100 
f 99 163 164 
f 100 165 101 
f 100 164 165 
f 101 166 102 
f 101 165 166 
f 102 167 103 
f 102 166 167 
f 103 168 104 
f 103 167 168 
f 104 169 105 
f 104 168 169 
f 105 170 106 
f 105 169 170 
f 106 171 107 
f 106 170 171 
f 107 172 108 
f 107 171 172 
f 108 173 109 
f 108 172 173 
f 109 174 110 
f 109 173 174 
f 110 175 111 
f 110 174 175 
f 111 176 112 
f 111 175 176 
f 112 177 113 
f 112 176 177 
f 113 178 114 
f 113 177 178 
f 114 179 115 
f 114 178 179 
f 115 180 116 
f 115 179 180 
f 116 181 117 
f 116 180 181 
f 117 182 118 
f 117 181 182 
f 118 183 119 
f 118 182 183 
f 119 184 120 
f 119 183 184 
f 120 185 121 
f 120 184 185 
f 121 186 122 
f 121 185 186 
f 122 187 123 
f 122 186 187 
f 123 188 124 
f 123 187 188 
f 124 189 125 
f 124 188 189 
f 125 190 126 
f 125 189 190 
f 126 191 127 
f 126 190 191 
f 127 192 128 
f 127 191 192 
f 128 129 65 
f 128 192 129 
f 129 194 130 
f 129 193 194 
f 130 195 131 
f 130 194 195 
f 131 196 132 
f 131 195 196 
f 132 197 133 
f 132 196 197 
f 133 198 134 
f 133 197 198 
f 134 199 135 
f 134 198 199 
f 135 200 136 
f 135 199 200 
f 136 201 137 
f 136 200 201 
f 137 202 138 
f 137 201 202 
f 138 203 139 
f 138 202 203 
f 139 204 140 
f 139 203 204 
f 140 205 141 
f 140 204 205 
f 141 206 142 
f 141 205 206 
f 142 207 143 
f 142 206 207 
f 143 208 144 
f 143 207 208 
f 144 209 145 
f 144 208 209 
f 145 210 146 
f 145 209 210 
f 146 211 147 
f 146 210 211 
f 147 212 148 
f 147 211 212 
f 148 213 149 
f 148 212 213 
f 149 214 150 
f 149 213 214 
f 150 215 151 
f 150 214 215 
f 151 216 152 
f 151 215 216 
f 152 217 153 
f 152 216 217 
f 153 218 154 
f 153 217 218 
f 154 219 155 
f 154 218 219 
f 155 220 156 
f 155 219 220 
f 156 221 157 
f 156 220 221 
f 157 222 158 
f 157 221 222 
f 158 223 159 
f 158 222 223 
f 159 224 160 
f 159 223 224 
f 160 225 161 
f 160 224 225 
f 161 226 162 
f 161 225 226 
f 162 227 163 
f 162 226 227 
f 163 228 164 
f 163 227 228 
f 164 229 165 
f 164 228 229 
f 165 230 166 
f 165 229 230 
f 166 231 167 
f 166 230 231 
f 167 232 168 
f 167 231 232 
f 168 233 169 
f 168 232 233 
f 169 234 170 
f 169 233 234 
f 170 235 171 
f 170 234 235 
f 171 236 172 
f 171 235 236 
f 172 237 173 
f 172 236 237 
f 173 238 174 
f 173 237 238 
f 174 239 175 
f 174 238 239 
f 175 240 176 
f 175 239 240 
f 176 241 177 
f 176 240 241 
f 177 242 178 
f 177 241 242 
f 178 243 179 
f 178 242 243 
f 179 244 180 
f 179 243 244 
f 180 245 181 
f 180 244 245 
f 181 246 182 
f 181 245 246 
f 182 247 183 
f 182 246 247 
f 183 248 184 
f 183 247 248 
f 184 249 185 
f 184 248 249 
f 185 250 186 
f 185 249 250 
f 186 251 187 
f 186 250 251 
f 187 252 188 
f 187 251 252 
f 188 253 189 
f 188 252 253 
f 189 254 190 
f 189 253 254 
f 190 255 191 
f 190 254 255 
f 191 256 192 
f 191 255 256 
f 192 193 129 
f 192 256 193 
f 193 258 194 
f 193 257 258 
f 194 259 195 
f 194 258 259 
f 195 260 196 
f 195 259 260 
f 196 261 197 
f 196 260 261 
f 197 262 198 
f 197 261 262 
f 198 263 199 
f 198 262 263 
f 199 264 200 
f 199 263 264 
f 200 265 201 
f 200 264 265 
f 201 266 202 
f 201 265 266 
f 202 267 203 
f 202 266 267 
f 203 268 204 
f 203 267 268 
f 204 269 205 
f 204 268 269 
f 205 270 206 
f 205 269 270 
f 206 271 207 
f 206 270 271 
f 207 272 208 
f 207 271 272 
f 208 273 209 
f 208 272 273 
f 209 274 210 
f 209 273 274 
f 210 275 211 
f 210 274 275 
f 211 276 212 
f 211 275 276 
f 212 277 213 
f 212 276 277 
f 213 278 214 
f 213 277 278 
f 214 279 215 
f 214 278 279 
f 215 280 216 
f 215 279 280 
f 216 281 217 
f 216 280 281 
f 217 282 218 
f 217 281 282 
f 218 283 219 
f 218 282 283 
f 219 284 220 
f 219 283 284 
f 220 285 221 
f 220 284 285 
f 221 286 222 
f 221 285 286 
f 222 287 223 
f 222 286 287 
f 223 288 224 
f 223 287 288 
f 224 289 225 
f 224 288 289 
f 225 290 226 
f 225 289 290 
f 226 291 227 
f 226 290 291 
f 227 292 228 
f 227 291 292 
f 228 293 229 
f 228 292 293 
f 229 294 230 
f 229 293 294 
f 230 295 231 
f 230 294 295 
f 231 296 232 
f 231 295 296 
f 232 297 233 
f 232 296 297 
f 233 298 234 
f 233 297 298 
f 234 299 235 
f 234 298 299 
f 235 300 236 
f 235 299 300 
f 236 301 237 
f 236 300 301 
f 237 302 238 
f 237 301 302 
f 238 303 239 
f 238 302 303 
f 239 304 240 
f 239 303 304 
f 240 305 241 
f 240 304 305 
f 241 306 242 
f 241 305 306 
f 242 307 243 
f 242 306 307 
f 243 308 244 
f 243 307 308 
f 244 309 245 
f 244 308 309 
f 245 310 246 
f 245 309 310 
f 246 311 247 
f 246 310 311 
f 247 312 248 
f 247 311 312 
f 248 313 249 
f 248 312 313 
f 249 314 250 
f 249 313 314 
f 250 315 251 
f 250 314 315 
f 251 316 252 
f 251 315 316 
f 252 317 253 
f 252 316 317 
f 253 318 254 
f 253 317 318 
f 254 319 255 
f 254 318 319 
f 255 320 256 
f 255 319 320 
f 256 257 193 
f 256 320 257 
f 257 322 258 
f 257 321 322 
f 258 323 259 
f 258 322 323 
f 259 324 260 
f 259 323 324 
f 260 325 261 
f 260 324 325 
f 261 326 262 
f 261 325 326 
f 262 327 263 
f 262 326 327 
f 263 328 264 
f 263 327 328 
f 264 329 265 
f 264 328 329 
f 265 330 266 
f 265 329 330 
f 266 331 267 
f 266 330 331 
f 267 332 268 
f 267 331 332 
f 268 333 269 
f 268 332 333 
f 269 334 270 
f 269 333 334 
f 270 335 271 
f 270 334 335 
f 271 336 272 
f 271 335 336 
f 272 337 273 
f 272 336 337 
f 273 338 274 
f 273 337 338 
f 274 339 275 
f 274 338 339 
f 275 340 276 
f 275 339 340 
f 276 341 277 
f 276 340 341 
f 277 342 278 
f 277 341 342 
f 278 343 279 
f 278 342 343 
f 279 344 280 
f 279 343 344 
f 280 345 281 
f 280 344 345 
f 281 346 282 
f 281 345 346 
f 282 347 283 
f 282 346 347 
f 283 348 284 
f 283 347 348 
f 284 349 285 
f 284 348 349 
f 285 350 286 
f 285 349 350 
f 286 351 287 
f 286 350 351 
f 287 352 288 
f 287 351 352 
f 288 353 289 
f 288 352 353 
f 289 354 290 
f 289 353 354 
f 290 355 291 
f 290 354 355 
f 291 356 292 
f 291 355 356 
f 292 357 293 
f 292 356 357 
f 293 358 294 
f 293 357 358 
f 294 359 295 
f 294 358 359 
f 295 360 296 
f 295 359 360 
f 296 361 297 
f 296 360 361 
f 297 362 298 
f 297 361 362 
f 298 363 299 
f 298 362 363 
f 299 364 300 
f 299 363 364 
f 300 365 301 
f 300 364 365 
f 301 366 302 
f 301 365 366 
f 302 367 303 
f 302 366 367 
f 303 368 304 
f 303 367 368 
f 304 369 305 
f 304 368 369 
f 305 370 306 
f 305 369 370 
f 306 371 307 
f 306 370 371 
f 307 372 308 
f 307 371 372 
f 308 373 309 
f 308 372 373 
f 309 374 310 
f 309 373 374 
f 310 375 311 
f 310 374 375 
f 311 376 312 
f 311 375 376 
f 312 377 313 
f 312 376 377 
f 313 378 314 
f 313 377 378 
f 314 379 315 
f 314 378 379 
f 315 380 316 
f 315 379 380 
f 316 381 317 
f 316 380 381 
f 317 382 318 
f 317 381 382 
f 318 383 319 
f 318 382 383 
f 319 384 320 
f 319 383 384 
f 320 321 257 
f 320 384 321 
f 321 386 322 
f 321 385 386 
f 322 387 323 
f 322 386 387 
f 323 388 324 
f 323 387 388 
f 324 389 325 
f 324 388 389 
f 325 390 326 
f 325 389 390 
f 326 391 327 
f 326 390 391 
f 327 392 328 
f 327 391 392 
f 328 393 329 
f 328 392 393 
f 329 394 330 
f 329 393 394 
f 330 395 331 
f 330 394 395 
f 331 396 332 
f 331 395 396 
f 332 397 333 
f 332 396 397 
f 333 398 334 
f 333 397 398 
f 334 399 335 
f 334 398 399 
f 335 400 336 
f 335 399 400 
f 336 401 337 
f 336 400 401 
f 337 402 338 
f 337 401 402 
f 338 403 339 
f 338 402 403 
f 339 404 340 
f 339 403 404 
f 340 405 341 
f 340 404 405 
f 341 406 342 
f 341 405 406 
f 342 407 343 
f 342 406 407 
f 343 408 344 
f 343 407 408 
f 344 409 345 
f 344 408 409 
f 345 410 346 
f 345 409 410 
f 346 411 347 
f 346 410 411 
f 347 412 348 
f 347 411 412 
f 348 413 349 
f 348 412 413 
f 349 414 350 
f 349 413 414 
f 350 415 351 
f 350 414 415 
f 351 416 352 
f 351 415 416 
f 352 417 353 
f 352 416 417 
f 353 418 354 
f 353 417 418 
f 354 419 355 
f 354 418 419 
f 355 420 356 
f 355 419 420 
f 356 421 357 
f 356 420 421 
f 357 422 358 
f 357 421 422 
f 358 423 359 
f 358 422 423 
f 359 424 360 
f 359 423 424 
f 360 425 361 
f 360 424 425 
f 361 426 362 
f 361 425 426 
f 362 427 363 
f 362 426 427 
f 363 428 364 
f 363 427 428 
f 364 429 365 
f 364 428 429 
f 365 430 366 
f 365 429 430 
f 366 431 367 
f 366 430 431 
f 367 432 368 
f 367 431 432 
f 368 433 369 
f 368 432 433 
f 369 434 370 
f 369 433 434 
f 370 435 371 
f 370 434 435 
f 371 436 372 
f 371 435 436 
f 372 437 373 
f 372 436 437 
f 373 438 374 
f 373 437 438 
f 374 439 375 
f 374 438 439 
f 375 440 376 
f 375 439 440 
f 376 441 377 
f 376 440 441 
f 377 442 378 
f 377 441 442 
f 378 443 379 
f 378 442 443 
f 379 444 380 
f 379 443 444 
f 380 445 381 
f 380 444 445 
f 381 446 382 
f 381 445 446 
f 382 447 383 
f 382 446 447 
f 383 448 384 
f 383 447 448 
f 384 385 321 
f 384 448 385 
f 385 450 386 
f 385 449 450 
f 386 451 387 
f 386 450 451 
f 387 452 388 
f 387 451 452 
f 388 453 389 
f 388 452 453 
f 389 454 390 
f 389 453 454 
f 390 455 391 
f 390 454 455 
f 391 456 392 
f 391 455 456 
f 392 457 393 
f 392 456 457 
f 393 458 394 
f 393 457 458 
f 394 459 395 
f 394 458 459 
f 395 460 396 
f 395 459 460 
f 396 461 397 
f 396 460 461 
f 397 462 398 
f 397 461 462 
f 398 463 399 
f 398 462 463 
f 399 464 400 
f 399 463 464 
f 400 465 401 
f 400 464 465 
f 401 466 402 
f 401 465 466 
f 402 467 403 
f 402 466 467 
f 403 468 404 
f 403 467 468 
f 404 469 405 
f 404 468 469 
f 405 470 406 
f 405 469 470 
f 406 471 407 
f 406 470 471 
f 407 472 408 
f 407 471 472 
f 408 473 409 
f 408 472 473 
f 409 474 410 
f 409 473 474 
f 410 475 411 
f 410 474 475 
f 411 476 412 
f 411 475 476 
f 412 477 413 
f 412 476 477 
f 413 478 414 
f 413 477 478 
f 414 479 415 
f 414 478 479 
f 415 480 416 
f 415 479 480 
f 416 481 417 
f 416 480 481 
f 417 482 418 
f 417 481 482 
f 418 483 419 
f 418 482 483 
f 419 484 420 
f 419 483 484 
f 420 485 421 
f 420 484 485 
f 421 486 422 
f 421 485 486 
f 422 487 423 
f 422 486 487 
f 423 488 424 
f 423 487 488 
f 424 489 425 
f 424 488 489 
f 425 490 426 
f 425 489 490 
f 426 491 427 
f 426 490 491 
f 427 492 428 
f 427 491 492 
f 428 493 429 
f 428 492 493 
f 429 494 430 
f 429 493 494 
f 430 495 431 
f 430 494 495 
f 431 496 432 
f 431 495 496 
f 432 497 433 
f 432 496 497 
f 433 498 434 
f 433 497 498 
f 434 499 435 
f 434 498 499 
f 435 500 436 
f 435 499 500 
f 436 501 437 
f 436 500 501 
f 437 502 438 
f 437 501 502 
f 438 503 439 
f 438 502 503 
f 439 504 440 
f 439 503 504 
f 440 505 441 
f 440 504 505 
f 441 506 442 
f 441 505 506 
f 442 507 443 
f 442 506 507 
f 443 508 444 
f 443 507 508 
f 444 509 445 
f 444 508 509 
f 445 510 446 
f 445 509 510 
f 446 511 447 
f 446 510 511 
f 447 512 448 
f 447 511 512 
f 448 449 385 
f 448 512 449 
f 449 514 450 
f 449 513 514 
f 450 515 451 
f 450 514 515 
f 451 516 452 
f 451 515 516 
f 452 517 453 
f 452 516 517 
f 453 518 454 
f 453 517 518 
f 454 519 455 
f 454 518 519 
f 455 520 456 
f 455 519 520 
f 456 521 457 
f 456 520 521 
f 457 522 458 
f 457 521 522 
f 458 523 459 
f 458 522 523 
f 459 524 460 
f 459 523 524 
f 460 525 461 
f 460 524 525 
f 461 526 462 
f 461 525 526 
f 462 527 463 
f 462 526 527 
f 463 528 464 
f 463 527 528 
f 464 529 465 
f 464 528 529 
f 465 530 466 
f 465 529 530 
f 466 531 467 
f 466 530 531 
f 467 532 468 
f 467 531 532 
f 468 533 469 
f 468 532 533 
f 469 534 470 
f 469 533 534 
f 470 535 471 
f 470 534 535 
f 471 536 472 
f 471 535 536 
f 472 537 473 
f 472 536 537 
f 473 538 474 
f 473 537 538 
f 474 539 475 
f 474 538 539 
f 475 540 476 
f 475 539 540 
f 476 541 477 
f 476 540 541 
f 477 542 478 
f 477 541 542 
f 478 543 479 
f 478 542 543 
f 479 544 480 
f 479 543 544 
f 480 545 481 
f 480 544 545 
f 481 546 482 
f 481 545 546 
f 482 547 483 
f 482 546 547 
f 483 548 484 
f 483 547 548 
f 484 549 485 
f 484 548 549 
f 485 550 486 
f 485 549 550 
f 486 551 487 
f 486 550 551 
f 487 552 488 
f 487 551 552 
f 488 553 489 
f 488 552 553 
f 489 554 490 
f 489 553 554 
f 490 555 491 
f 490 554 555 
f 491 556 492 
f 491 555 556 
f 492 557 493 
f 492 556 557 
f 493 558 494 
f 493 557 558 
f 494 559 495 
f 494 558 559 
f 495 560 496 
f 495 559 560 
f 496 561 497 
f 496 560 561 
f 497 562 498 
f 497 561 562 
f 498 563 499 
f 498 562 563 
f 499 564 500 
f 499 563 564 
f 500 565 501 
f 500 564 565 
f 501 566 502 
f 501 565 566 
f 502 567 503 
f 502 566 567 
f 503 568 504 
f 503 567 568 
f 504 569 505 
f 504 568 569 
f 505 570 506 
f 505 569 570 
f 506 571 507 
f 506 570 571 
f 507 572 508 
f 507 571 572 
f 508 573 509 
f 508 572 573 
f 509 574 510 
f 509 573 574 
f 510 575 511 
f 510 574 575 
f 511 576 512 
f 511 575 576 
f 512 513 449 
f 512 576 513 
f 513 578 514 
f 513 577 578 
f 514 579 515 
f 514 578 579 
f 515 580 516 
f 515 579 580 
f 516 581 517 
f 516 580 581 
f 517 582 518 
f 517 581 582 
f 518 583 519 
f 518 582 583 
f 519 584 520 
f 519 583 584 
f 520 585 521 
f 520 584 585 
f 521 586 522 
f 521 585 586 
f 522 587 523 
f 522 586 587 
f 523 588 524 
f 523 587 588 
f 524 589 525 
f 524 588 589 
f 525 590 526 
f 525 589 590 
f 526 591 527 
f 526 590 591 
f 527 592 528 
f 527 591 592 
f 528 593 529 
f 528 592 593 
f 529 594 530 
f 529 593 594 
f 530 595 531 
f 530 594 595 
f 531 596 532 
f 531 595 596 
f 532 597 533 
f 532 596 597 
f 533 598 534 
f 533 597 598 
f 534 599 535 
f 534 598 599 
f 535 600 536 
f 535 599 600 
f 536 601 537 
f 536 600 601 
f 537 602 538 
f 537 601 602 
f 538 603 539 
f 538 602 603 
f 539 604 540 
f 539 603 604 
f 540 605 541 
f 540 604 605 
f 541 606 542 
f 541 605 606 
f 542 607 543 
f 542 606 607 
f 543 608 544 
f 543 607 608 
f 544 609 545 
f 544 608 609 
f 545 610 546 
f 545 609 610 
f 546 611 547 
f 546 610 611 
f 547 612 548 
f 547 611 612 
f 548 613 549 
f 548 612 613 
f 549 614 550 
f 549 613 614 
f 550 615 551 
f 550 614 615 
f 551 616 552 
f 551 615 616 
f 552 617 553 
f 552 616 617 
f 553 618 554 
f 553 617 618 
f 554 619 555 
f 554 618 619 
f 555 620 556 
f 555 619 620 
f 556 621 557 
f 556 620 621 
f 557 622 558 
f 557 621 622 
f 558 623 559 
f 558 622 623 
f 559 624 560 
f 559 623 624 
f 560 625 561 
f 560 624 625 
f 561 626 562 
f 561 625 626 
f 562 627 563 
f 562 626 627 
f 563 628 564 
f 563 627 628 
f 564 629 565 
f 564 628 629 
f 565 630 566 
f 565 629 630 
f 566 631 567 
f 566 630 631 
f 567 632 568 
f 567 631 632 
f 568 633 569 
f 568 632 633 
f 569 634 570 
f 569 633 634 
f 570 635 571 
f 570 634 635 
f 571 636 572 
f 571 635 636 
f 572 637 573 
f 572 636 637 
f 573 638 574 
f 573 637 638 
f 574 639 575 
f 574 638 639 
f 575 640 576 
f 575 639 640 
f 576 577 513 
f 576 640 577 
