# Branch
v 10.2413 9.43732 -32.8924
vn -0.0506404 0.545203 0.836773
v 10.2636 9.43128 -32.8884
vn 0.0427214 0.519824 0.853204
v 10.2857 9.42404 -32.8865
vn 0.135672 0.489439 0.861419
v 10.3075 9.41568 -32.8865
vn 0.227316 0.45434 0.861338
v 10.3288 9.40628 -32.8885
vn 0.31677 0.414865 0.852962
v 10.3494 9.39593 -32.8925
vn 0.403175 0.371395 0.836371
v 10.3691 9.38473 -32.8983
vn 0.485696 0.324348 0.811725
v 10.3876 9.37278 -32.9061
vn 0.563539 0.274178 0.779262
v 10.4048 9.3602 -32.9156
vn 0.635956 0.221367 0.739295
v 10.4206 9.34712 -32.9268
vn 0.702248 0.166425 0.692207
v 10.4348 9.33365 -32.9396
vn 0.761777 0.109879 0.638453
v 10.4472 9.31994 -32.9538
vn 0.813969 0.0522755 0.578551
v 10.4578 9.3061 -32.9694
vn 0.858323 -0.00583157 0.513077
v 10.4664 9.29228 -32.9862
vn 0.89441 -0.0638825 0.442661
v 10.4729 9.2786 -33.004
vn 0.921884 -0.121318 0.367983
v 10.4774 9.2652 -33.0226
vn 0.94048 -0.177586 0.28976
v 10.4796 9.25221 -33.0419
vn 0.950018 -0.232143 0.208747
v 10.4797 9.23975 -33.0617
vn 0.950407 -0.284464 0.125724
v 10.4776 9.22794 -33.0817
vn 0.941643 -0.334046 0.0414902
v 10.4734 9.2169 -33.1019
vn 0.923811 -0.380411 -0.0431435
v 10.467 9.20673 -33.122
vn 0.897081 -0.423112 -0.127362
v 10.4586 9.19753 -33.1417
vn 0.861713 -0.461739 -0.210353
v 10.4482 9.18939 -33.161
vn 0.818045 -0.495918 -0.291319
v 10.4359 9.18239 -33.1796
vn 0.7665 -0.525322 -0.369479
v 10.4219 9.17659 -33.1974
vn 0.707572 -0.549667 -0.444081
v 10.4062 9.17206 -33.2141
vn 0.641831 -0.568718 -0.514406
v 10.3891 9.16882 -33.2297
vn 0.569908 -0.582291 -0.579777
v 10.3707 9.16693 -33.2439
vn 0.492496 -0.590258 -0.639565
v 10.3511 9.16638 -33.2567
vn 0.410342 -0.592539 -0.693193
v 10.3306 9.1672 -33.2679
vn 0.324236 -0.589114 -0.740146
v 10.3094 9.16937 -33.2774
vn 0.235007 -0.580016 -0.77997
v 10.2876 9.17286 -33.2851
vn 0.143515 -0.565332 -0.812283
v 10.2654 9.17766 -33.2909
vn 0.0506404 -0.545203 -0.836773
v 10.2432 9.1837 -33.2948
vn -0.0427214 -0.519824 -0.853204
v 10.2211 9.19093 -33.2968
vn -0.135672 -0.489439 -0.861419
v 10.1993 9.19929 -33.2967
vn -0.227316 -0.45434 -0.861338
v 10.178 9.20869 -33.2947
vn -0.31677 -0.414865 -0.852962
v 10.1574 9.21905 -33.2908
vn -0.403175 -0.371395 -0.836371
v 10.1377 9.23025 -33.2849
vn -0.485696 -0.324348 -0.811725
v 10.1192 9.2422 -33.2772
vn -0.563539 -0.274178 -0.779262
v 10.1019 9.25477 -33.2677
vn -0.635956 -0.221367 -0.739295
v 10.0862 9.26786 -33.2565
vn -0.702248 -0.166425 -0.692207
v 10.072 9.28132 -33.2437
vn -0.761777 -0.109879 -0.638453
v 10.0596 9.29504 -33.2294
vn -0.813969 -0.0522755 -0.578551
v 10.049 9.30888 -33.2138
vn -0.858323 0.00583157 -0.513077
v 10.0404 9.3227 -33.197
vn -0.89441 0.0638825 -0.442661
v 10.0339 9.33638 -33.1793
vn -0.921884 0.121318 -0.367983
v 10.0294 9.34978 -33.1606
vn -0.94048 0.177586 -0.28976
v 10.0272 9.36277 -33.1413
vn -0.950018 0.232143 -0.208747
v 10.0271 9.37523 -33.1216
vn -0.950407 0.284464 -0.125724
v 10.0291 9.38704 -33.1015
vn -0.941643 0.334046 -0.0414902
v 10.0334 9.39808 -33.0813
vn -0.923811 0.380411 0.0431435
v 10.0398 9.40825 -33.0613
vn -0.897081 0.423112 0.127362
v 10.0482 9.41744 -33.0415
vn -0.861713 0.461739 0.210353
v 10.0586 9.42558 -33.0222
vn -0.818045 0.495918 0.291319
v 10.0709 9.43259 -33.0036
vn -0.7665 0.525322 0.369479
v 10.0849 9.43838 -32.9859
vn -0.707572 0.549667 0.444081
v 10.1005 9.44292 -32.9691
vn -0.641831 0.568718 0.514406
v 10.1177 9.44615 -32.9536
vn -0.569908 0.582291 0.579777
v 10.1361 9.44805 -32.9393
vn -0.492496 0.590258 0.639565
v 10.1557 9.44859 -32.9265
vn -0.410342 0.592539 0.693193
v 10.1762 9.44778 -32.9154
vn -0.324236 0.589114 0.740146
v 10.1974 9.44561 -32.9059
vn -0.235007 0.580016 0.77997
v 10.2192 9.44211 -32.8982
vn -0.143515 0.565332 0.812283
v 9.52008 7.47142 -31.7962
vn -0.0821025 0.459332 0.884462
v 9.54239 7.46546 -31.7923
vn 0.0114109 0.434366 0.900664
v 9.56466 7.45851 -31.7905
vn 0.104814 0.405217 0.908192
v 9.5867 7.45063 -31.7908
vn 0.197209 0.372166 0.906974
v 9.60828 7.44189 -31.7932
vn 0.287703 0.33553 0.897021
v 9.62921 7.43238 -31.7976
vn 0.375427 0.295663 0.878429
v 9.64927 7.42219 -31.8041
vn 0.459536 0.252949 0.851377
v 9.66827 7.41142 -31.8125
vn 0.539219 0.207798 0.816127
v 9.68604 7.40018 -31.8227
vn 0.613709 0.160647 0.773016
v 9.7024 7.38856 -31.8348
vn 0.682289 0.111948 0.722461
v 9.71719 7.37669 -31.8485
vn 0.744297 0.0621714 0.664948
v 9.73027 7.36467 -31.8638
vn 0.799138 0.0117959 0.601032
v 9.74151 7.35263 -31.8804
vn 0.846283 -0.0386932 0.531327
v 9.75081 7.34068 -31.8982
vn 0.885277 -0.0888097 0.456505
v 9.75808 7.32893 -31.9171
vn 0.915746 -0.138071 0.377287
v 9.76324 7.3175 -31.9369
vn 0.937396 -0.186002 0.294435
v 9.76625 7.30649 -31.9573
vn 0.950018 -0.232143 0.208747
v 9.76708 7.29602 -31.9782
vn 0.953491 -0.276047 0.12105
v 9.76572 7.28618 -31.9994
vn 0.947781 -0.317293 0.0321864
v 9.76218 7.27708 -32.0207
vn 0.932944 -0.355484 -0.056987
v 9.7565 7.26878 -32.0418
vn 0.909121 -0.39025 -0.145612
v 9.74873 7.26139 -32.0626
vn 0.876544 -0.421259 -0.232834
v 9.73894 7.25496 -32.0829
vn 0.835525 -0.448211 -0.317814
v 9.72724 7.24956 -32.1025
vn 0.786459 -0.470846 -0.399733
v 9.71373 7.24524 -32.1211
vn 0.729819 -0.488946 -0.477803
v 9.69855 7.24205 -32.1386
vn 0.666151 -0.502338 -0.551271
v 9.68183 7.24001 -32.1549
vn 0.596067 -0.510892 -0.61943
v 9.66375 7.23914 -32.1697
vn 0.520243 -0.514526 -0.681623
v 9.64447 7.23946 -32.183
vn 0.439409 -0.513204 -0.737252
v 9.62418 7.24095 -32.1945
vn 0.354343 -0.50694 -0.785781
v 9.60308 7.24361 -32.2043
vn 0.265864 -0.495794 -0.826743
v 9.58136 7.24741 -32.2122
vn 0.174825 -0.479874 -0.859743
v 9.55925 7.25231 -32.2181
vn 0.0821025 -0.459332 -0.884462
v 9.53694 7.25826 -32.2219
vn -0.0114109 -0.434366 -0.900664
v 9.51467 7.26521 -32.2237
vn -0.104814 -0.405217 -0.908192
v 9.49263 7.2731 -32.2234
vn -0.197209 -0.372166 -0.906974
v 9.47104 7.28183 -32.2211
vn -0.287703 -0.33553 -0.897021
v 9.45012 7.29134 -32.2166
vn -0.375427 -0.295663 -0.878429
v 9.43006 7.30153 -32.2102
vn -0.459536 -0.252949 -0.851377
v 9.41106 7.3123 -32.2018
vn -0.539219 -0.207798 -0.816127
v 9.39329 7.32355 -32.1915
vn -0.613709 -0.160647 -0.773016
v 9.37693 7.33516 -32.1794
vn -0.682289 -0.111948 -0.722461
v 9.36214 7.34703 -32.1657
vn -0.744297 -0.0621714 -0.664948
v 9.34906 7.35905 -32.1505
vn -0.799138 -0.0117959 -0.601032
v 9.33782 7.37109 -32.1338
vn -0.846283 0.0386932 -0.531327
v 9.32852 7.38304 -32.116
vn -0.885277 0.0888097 -0.456505
v 9.32125 7.39479 -32.0971
vn -0.915746 0.138071 -0.377287
v 9.31609 7.40622 -32.0773
vn -0.937396 0.186002 -0.294435
v 9.31308 7.41723 -32.0569
vn -0.950018 0.232143 -0.208747
v 9.31225 7.4277 -32.036
vn -0.953491 0.276047 -0.12105
v 9.31361 7.43754 -32.0148
vn -0.947781 0.317293 -0.0321864
v 9.31715 7.44665 -31.9935
vn -0.932944 0.355484 0.056987
v 9.32283 7.45494 -31.9724
vn -0.909121 0.39025 0.145612
v 9.3306 7.46234 -31.9516
vn -0.876544 0.421259 0.232834
v 9.34038 7.46876 -31.9313
vn -0.835525 0.448211 0.317814
v 9.35209 7.47416 -31.9118
vn -0.786459 0.470846 0.399733
v 9.3656 7.47848 -31.8932
vn -0.729819 0.488946 0.477803
v 9.38078 7.48167 -31.8756
vn -0.666151 0.502338 0.551271
v 9.3975 7.48371 -31.8594
vn -0.596067 0.510892 0.61943
v 9.41558 7.48458 -31.8445
vn -0.520243 0.514526 0.681623
v 9.43486 7.48427 -31.8313
vn -0.439409 0.513204 0.737252
v 9.45515 7.48277 -31.8197
vn -0.354343 0.50694 0.785781
v 9.47625 7.48011 -31.8099
vn -0.265864 0.495794 0.826743
v 9.49797 7.47632 -31.8021
vn -0.174825 0.479874 0.859743
v 8.85557 5.49302 -30.9721
vn -0.116084 0.358036 0.926464
v 8.87795 5.48717 -30.9683
vn -0.0224067 0.333558 0.942463
v 8.90038 5.48056 -30.9666
vn 0.0714861 0.305867 0.949387
v 8.92265 5.47324 -30.9671
vn 0.16469 0.275231 0.947167
v 8.94453 5.46529 -30.9698
vn 0.256309 0.241945 0.935825
v 8.96583 5.45678 -30.9747
vn 0.345459 0.206328 0.915471
v 8.98633 5.44779 -30.9817
vn 0.431282 0.168724 0.8863
v 9.00584 5.43842 -30.9907
vn 0.512951 0.129496 0.848594
v 9.02417 5.42875 -31.0016
vn 0.589681 0.0890198 0.802716
v 9.04114 5.41888 -31.0145
vn 0.660731 0.0476867 0.749106
v 9.05659 5.4089 -31.029
vn 0.725418 0.00589442 0.688283
v 9.07038 5.3989 -31.0451
vn 0.78312 -0.0359547 0.620831
v 9.08236 5.38899 -31.0626
vn 0.833279 -0.0774575 0.5474
v 9.09243 5.37925 -31.0814
vn 0.875413 -0.118214 0.468697
v 9.10048 5.36979 -31.1013
vn 0.909117 -0.157833 0.385481
v 9.10644 5.36068 -31.1221
vn 0.934065 -0.195931 0.298552
v 9.11025 5.35203 -31.1435
vn 0.950018 -0.232143 0.208747
v 9.11187 5.34392 -31.1655
vn 0.956822 -0.266118 0.116933
v 9.1113 5.33641 -31.1877
vn 0.954411 -0.297531 0.0239924
v 9.10852 5.32959 -31.2099
vn 0.942808 -0.326079 -0.0691793
v 9.10358 5.32353 -31.232
vn 0.922126 -0.351486 -0.161685
v 9.09652 5.31826 -31.2538
vn 0.892563 -0.373508 -0.252633
v 9.08741 5.31386 -31.2749
vn 0.854404 -0.391933 -0.341148
v 9.07633 5.31036 -31.2953
vn 0.808017 -0.406584 -0.426378
v 9.06339 5.3078 -31.3146
vn 0.753848 -0.417319 -0.507502
v 9.04871 5.30619 -31.3328
vn 0.692419 -0.424035 -0.583738
v 9.03244 5.30557 -31.3497
vn 0.624322 -0.426667 -0.654353
v 9.01474 5.30592 -31.3651
vn 0.550212 -0.425191 -0.718665
v 8.99577 5.30725 -31.3788
vn 0.470804 -0.419619 -0.776057
v 8.97572 5.30955 -31.3907
vn 0.386861 -0.410006 -0.825974
v 8.95478 5.31279 -31.4007
vn 0.299193 -0.396445 -0.867937
v 8.93315 5.31694 -31.4088
vn 0.208643 -0.379066 -0.901542
v 8.91103 5.32196 -31.4147
vn 0.116084 -0.358036 -0.926464
v 8.88866 5.32781 -31.4185
vn 0.0224067 -0.333558 -0.942463
v 8.86623 5.33442 -31.4202
vn -0.0714861 -0.305867 -0.949387
v 8.84396 5.34174 -31.4197
vn -0.16469 -0.275231 -0.947167
v 8.82208 5.34969 -31.417
vn -0.256309 -0.241945 -0.935825
v 8.80078 5.3582 -31.4121
vn -0.345459 -0.206328 -0.915471
v 8.78028 5.36718 -31.4051
vn -0.431282 -0.168724 -0.8863
v 8.76077 5.37655 -31.3961
vn -0.512951 -0.129496 -0.848594
v 8.74244 5.38622 -31.3852
vn -0.589681 -0.0890198 -0.802716
v 8.72547 5.3961 -31.3723
vn -0.660731 -0.0476867 -0.749106
v 8.71001 5.40608 -31.3578
vn -0.725418 -0.00589442 -0.688283
v 8.69623 5.41608 -31.3417
vn -0.78312 0.0359547 -0.620831
v 8.68425 5.42599 -31.3242
vn -0.833279 0.0774575 -0.5474
v 8.67418 5.43573 -31.3054
vn -0.875413 0.118214 -0.468697
v 8.66613 5.44519 -31.2855
vn -0.909117 0.157833 -0.385481
v 8.66017 5.45429 -31.2647
vn -0.934065 0.195931 -0.298552
v 8.65636 5.46294 -31.2433
vn -0.950018 0.232143 -0.208747
v 8.65474 5.47106 -31.2213
vn -0.956822 0.266118 -0.116933
v 8.65531 5.47856 -31.1991
vn -0.954411 0.297531 -0.0239924
v 8.65808 5.48538 -31.1769
vn -0.942808 0.326079 0.0691793
v 8.66302 5.49145 -31.1548
vn -0.922126 0.351486 0.161685
v 8.67009 5.49671 -31.1331
vn -0.892563 0.373508 0.252633
v 8.6792 5.50111 -31.1119
vn -0.854404 0.391933 0.341148
v 8.69028 5.50461 -31.0915
vn -0.808017 0.406584 0.426378
v 8.70322 5.50718 -31.0722
vn -0.753848 0.417319 0.507502
v 8.7179 5.50878 -31.054
vn -0.692419 0.424035 0.583738
v 8.73416 5.50941 -31.0371
vn -0.624322 0.426667 0.654353
v 8.75187 5.50906 -31.0217
vn -0.550212 0.425191 0.718665
v 8.77084 5.50773 -31.008
vn -0.470804 0.419619 0.776057
v 8.79089 5.50543 -30.9961
vn -0.386861 0.410006 0.825974
v 8.81183 5.50219 -30.9861
vn -0.299193 0.396445 0.867937
v 8.83346 5.49804 -30.978
vn -0.208643 0.379066 0.901542
v 8.2481 3.50236 -30.4212
vn -0.151346 0.242365 0.958308
v 8.27055 3.49663 -30.4174
vn -0.0574989 0.218444 0.974154
v 8.29314 3.49041 -30.4159
vn 0.0369016 0.192419 0.980619
v 8.31564 3.48374 -30.4166
vn 0.130947 0.164541 0.97764
v 8.33784 3.47669 -30.4195
vn 0.223731 0.135079 0.965245
v 8.35952 3.46933 -30.4247
vn 0.31436 0.104315 0.943555
v 8.38048 3.46173 -30.4321
vn 0.401962 0.0725472 0.912778
v 8.40051 3.45396 -30.4416
vn 0.485693 0.0400806 0.87321
v 8.41943 3.4461 -30.453
vn 0.564747 0.007228 0.825233
v 8.43704 3.43822 -30.4664
vn 0.638361 -0.0256942 0.769308
v 8.45318 3.43041 -30.4816
vn 0.705828 -0.058369 0.705974
v 8.4677 3.42272 -30.4984
vn 0.766497 -0.0904817 0.635842
v 8.48045 3.41525 -30.5166
vn 0.819785 -0.121723 0.559586
v 8.49131 3.40805 -30.5361
vn 0.865177 -0.151792 0.477941
v 8.50017 3.40121 -30.5568
vn 0.902238 -0.180399 0.391693
v 8.50696 3.39478 -30.5783
vn 0.930609 -0.207269 0.301673
v 8.51161 3.38883 -30.6005
vn 0.950018 -0.232143 0.208747
v 8.51406 3.38341 -30.6232
vn 0.960278 -0.254781 0.113812
v 8.5143 3.37858 -30.6462
vn 0.96129 -0.274965 0.0177799
v 8.51233 3.37439 -30.6692
vn 0.953044 -0.292501 -0.0784232
v 8.50816 3.37087 -30.6921
vn 0.93562 -0.307221 -0.173871
v 8.50184 3.36805 -30.7145
vn 0.909185 -0.318981 -0.267644
v 8.49342 3.36597 -30.7363
vn 0.873994 -0.32767 -0.35884
v 8.48298 3.36465 -30.7573
vn 0.830387 -0.333203 -0.44658
v 8.47064 3.36409 -30.7773
vn 0.778782 -0.335527 -0.530019
v 8.45649 3.36431 -30.796
vn 0.719677 -0.33462 -0.608354
v 8.4407 3.3653 -30.8134
vn 0.653641 -0.33049 -0.68083
v 8.42339 3.36705 -30.8291
vn 0.58131 -0.323178 -0.746749
v 8.40474 3.36954 -30.8432
vn 0.503381 -0.312753 -0.805477
v 8.38494 3.37276 -30.8554
vn 0.420605 -0.299316 -0.856447
v 8.36417 3.37666 -30.8656
vn 0.333777 -0.282996 -0.89917
v 8.34262 3.38122 -30.8738
vn 0.243735 -0.263951 -0.933232
v 8.32052 3.38638 -30.8798
vn 0.151346 -0.242365 -0.958308
v 8.29806 3.39211 -30.8836
vn 0.0574989 -0.218444 -0.974154
v 8.27548 3.39833 -30.8851
vn -0.0369016 -0.192419 -0.980619
v 8.25298 3.405 -30.8844
vn -0.130947 -0.164541 -0.97764
v 8.23078 3.41205 -30.8814
vn -0.223731 -0.135079 -0.965245
v 8.2091 3.41941 -30.8762
vn -0.31436 -0.104315 -0.943555
v 8.18814 3.42701 -30.8689
vn -0.401962 -0.0725472 -0.912778
v 8.1681 3.43478 -30.8594
vn -0.485693 -0.0400806 -0.87321
v 8.14919 3.44264 -30.8479
vn -0.564747 -0.007228 -0.825233
v 8.13158 3.45052 -30.8345
vn -0.638361 0.0256942 -0.769308
v 8.11543 3.45834 -30.8194
vn -0.705828 0.058369 -0.705974
v 8.10092 3.46602 -30.8026
vn -0.766497 0.0904817 -0.635842
v 8.08817 3.47349 -30.7844
vn -0.819785 0.121723 -0.559586
v 8.07731 3.48069 -30.7648
vn -0.865177 0.151792 -0.477941
v 8.06844 3.48753 -30.7442
vn -0.902238 0.180399 -0.391693
v 8.06165 3.49396 -30.7227
vn -0.930609 0.207269 -0.301673
v 8.05701 3.49991 -30.7004
vn -0.950018 0.232143 -0.208747
v 8.05456 3.50533 -30.6777
vn -0.960278 0.254781 -0.113812
v 8.05431 3.51016 -30.6547
vn -0.96129 0.274965 -0.0177799
v 8.05629 3.51435 -30.6317
vn -0.953044 0.292501 0.0784232
v 8.06046 3.51787 -30.6089
vn -0.93562 0.307221 0.173871
v 8.06678 3.52069 -30.5864
vn -0.909185 0.318981 0.267644
v 8.0752 3.52277 -30.5646
vn -0.873994 0.32767 0.35884
v 8.08563 3.52409 -30.5436
vn -0.830387 0.333203 0.44658
v 8.09798 3.52465 -30.5237
vn -0.778782 0.335527 0.530019
v 8.11212 3.52443 -30.5049
vn -0.719677 0.33462 0.608354
v 8.12792 3.52344 -30.4876
vn -0.653641 0.33049 0.68083
v 8.14523 3.52169 -30.4718
vn -0.58131 0.323178 0.746749
v 8.16387 3.5192 -30.4578
vn -0.503381 0.312753 0.805477
v 8.18368 3.51598 -30.4456
vn -0.420605 0.299316 0.856447
v 8.20445 3.51208 -30.4353
vn -0.333777 0.282996 0.89917
v 8.22599 3.50752 -30.4272
vn -0.243735 0.263951 0.933232
v 7.69808 1.50026 -30.1445
vn -0.186089 0.115808 0.975684
v 7.72061 1.49467 -30.1408
vn -0.0920747 0.092496 0.991447
v 7.74335 1.48887 -30.1393
vn 0.00282616 0.0682936 0.997661
v 7.76609 1.48291 -30.1401
vn 0.0976998 0.0434335 0.994268
v 7.7886 1.47686 -30.1432
vn 0.191633 0.0181552 0.981299
v 7.81066 1.47076 -30.1486
vn 0.28372 -0.00729807 0.958879
v 7.83208 1.46467 -30.1562
vn 0.373075 -0.032681 0.927226
v 7.85263 1.45867 -30.1659
vn 0.458836 -0.0577492 0.886642
v 7.87212 1.45279 -30.1777
vn 0.54018 -0.0822613 0.83752
v 7.89036 1.44711 -30.1914
vn 0.61632 -0.105981 0.780331
v 7.90719 1.44167 -30.2069
vn 0.686526 -0.12868 0.715628
v 7.92243 1.43653 -30.224
vn 0.750119 -0.15014 0.644033
v 7.93593 1.43173 -30.2427
vn 0.806489 -0.170154 0.566236
v 7.94758 1.42733 -30.2626
vn 0.855092 -0.188529 0.482985
v 7.95725 1.42336 -30.2837
vn 0.89546 -0.205089 0.395083
v 7.96486 1.41987 -30.3057
vn 0.927204 -0.219674 0.303376
v 7.97033 1.41688 -30.3283
vn 0.950018 -0.232143 0.208747
v 7.9736 1.41443 -30.3515
vn 0.963683 -0.242376 0.112109
v 7.97465 1.41253 -30.3749
vn 0.968068 -0.250275 0.0143899
v 7.97347 1.41122 -30.3984
vn 0.963129 -0.255764 -0.0834673
v 7.97006 1.41049 -30.4216
vn 0.948915 -0.258789 -0.180521
v 7.96447 1.41037 -30.4444
vn 0.925563 -0.259323 -0.275835
v 7.95674 1.41084 -30.4667
vn 0.893297 -0.257359 -0.368494
v 7.94694 1.4119 -30.488
vn 0.852427 -0.252916 -0.457603
v 7.93518 1.41355 -30.5083
vn 0.803349 -0.246038 -0.542306
v 7.92157 1.41576 -30.5273
vn 0.746534 -0.23679 -0.621786
v 7.90623 1.41853 -30.545
vn 0.682529 -0.225262 -0.695278
v 7.88932 1.42181 -30.561
vn 0.611951 -0.211564 -0.762074
v 7.87099 1.42558 -30.5752
vn 0.53548 -0.195829 -0.82153
v 7.85143 1.4298 -30.5876
vn 0.453852 -0.178208 -0.873075
v 7.83082 1.43444 -30.5979
vn 0.367852 -0.158871 -0.916212
v 7.80937 1.43944 -30.6061
vn 0.278311 -0.138004 -0.950525
v 7.78727 1.44476 -30.6122
vn 0.186089 -0.115808 -0.975684
v 7.76474 1.45034 -30.6159
vn 0.0920747 -0.092496 -0.991447
v 7.742 1.45614 -30.6174
vn -0.00282616 -0.0682936 -0.997661
v 7.71926 1.4621 -30.6166
vn -0.0976998 -0.0434335 -0.994268
v 7.69676 1.46816 -30.6135
vn -0.191633 -0.0181552 -0.981299
v 7.67469 1.47426 -30.6081
vn -0.28372 0.00729807 -0.958879
v 7.65328 1.48034 -30.6005
vn -0.373075 0.032681 -0.927226
v 7.63273 1.48634 -30.5908
vn -0.458836 0.0577492 -0.886642
v 7.61323 1.49222 -30.579
vn -0.54018 0.0822613 -0.83752
v 7.59499 1.4979 -30.5653
vn -0.61632 0.105981 -0.780331
v 7.57816 1.50334 -30.5498
vn -0.686526 0.12868 -0.715628
v 7.56293 1.50848 -30.5327
vn -0.750119 0.15014 -0.644033
v 7.54942 1.51328 -30.514
vn -0.806489 0.170154 -0.566236
v 7.53777 1.51768 -30.4941
vn -0.855092 0.188529 -0.482985
v 7.5281 1.52165 -30.473
vn -0.89546 0.205089 -0.395083
v 7.52049 1.52515 -30.451
vn -0.927204 0.219674 -0.303376
v 7.51502 1.52813 -30.4284
vn -0.950018 0.232143 -0.208747
v 7.51175 1.53059 -30.4052
vn -0.963683 0.242376 -0.112109
v 7.5107 1.53248 -30.3818
vn -0.968068 0.250275 -0.0143899
v 7.51188 1.53379 -30.3583
vn -0.963129 0.255764 0.0834673
v 7.51529 1.53452 -30.3351
vn -0.948915 0.258789 0.180521
v 7.52088 1.53465 -30.3123
vn -0.925563 0.259323 0.275835
v 7.52862 1.53418 -30.29
vn -0.893297 0.257359 0.368494
v 7.53841 1.53311 -30.2687
vn -0.852427 0.252916 0.457603
v 7.55017 1.53146 -30.2484
vn -0.803349 0.246038 0.542306
v 7.56379 1.52925 -30.2294
vn -0.746534 0.23679 0.621786
v 7.57912 1.52649 -30.2117
vn -0.682529 0.225262 0.695278
v 7.59603 1.5232 -30.1957
vn -0.611951 0.211564 0.762074
v 7.61436 1.51943 -30.1815
vn -0.53548 0.195829 0.82153
v 7.63392 1.51521 -30.1691
vn -0.453852 0.178208 0.873075
v 7.65453 1.51058 -30.1588
vn -0.367852 0.158871 0.916212
v 7.67598 1.50558 -30.1506
vn -0.278311 0.138004 0.950525
v 7.20602 -0.511897 -30.1428
vn -0.218266 -0.0158038 0.975761
v 7.22862 -0.517339 -30.139
vn -0.124097 -0.0384816 0.991524
v 7.25151 -0.522693 -30.1376
vn -0.0287326 -0.0607889 0.997737
v 7.27447 -0.527907 -30.1384
vn 0.0669083 -0.0825107 0.994342
v 7.29727 -0.532929 -30.1415
vn 0.161905 -0.103438 0.98137
v 7.31969 -0.537713 -30.1469
vn 0.255342 -0.123369 0.958948
v 7.34153 -0.542211 -30.1545
vn 0.34632 -0.142112 0.92729
v 7.36256 -0.546381 -30.1642
vn 0.433963 -0.159486 0.886702
v 7.38259 -0.550182 -30.176
vn 0.517427 -0.175325 0.837574
v 7.40143 -0.553578 -30.1897
vn 0.595908 -0.189474 0.78038
v 7.41889 -0.556536 -30.2052
vn 0.668649 -0.2018 0.715671
v 7.4348 -0.559028 -30.2224
vn 0.734951 -0.212181 0.64407
v 7.44901 -0.561029 -30.2411
vn 0.794176 -0.22052 0.566265
v 7.46139 -0.562521 -30.2611
vn 0.845751 -0.226734 0.483007
v 7.47181 -0.563488 -30.2822
vn 0.889182 -0.230765 0.395098
v 7.48018 -0.563922 -30.3042
vn 0.92405 -0.232574 0.303384
v 7.48641 -0.563819 -30.3269
vn 0.950018 -0.232143 0.208747
v 7.49045 -0.563178 -30.3501
vn 0.966837 -0.229476 0.112101
v 7.49225 -0.562008 -30.3736
vn 0.974345 -0.224599 0.0143749
v 7.4918 -0.560318 -30.397
vn 0.97247 -0.217559 -0.0834897
v 7.48911 -0.558126 -30.4203
vn 0.961229 -0.208424 -0.18055
v 7.48419 -0.555452 -30.4432
vn 0.940731 -0.197282 -0.275872
v 7.47709 -0.552322 -30.4655
vn 0.911173 -0.184239 -0.368537
v 7.46789 -0.548766 -30.4868
vn 0.87284 -0.169423 -0.457652
v 7.45667 -0.544818 -30.5072
vn 0.826101 -0.152975 -0.542361
v 7.44355 -0.540517 -30.5263
vn 0.771407 -0.135053 -0.621846
v 7.42864 -0.535904 -30.5439
vn 0.709283 -0.115831 -0.695342
v 7.41209 -0.531022 -30.5599
vn 0.640329 -0.0954936 -0.762142
v 7.39406 -0.525921 -30.5742
vn 0.565207 -0.0742363 -0.821602
v 7.37472 -0.520647 -30.5866
vn 0.484643 -0.0522642 -0.873149
v 7.35427 -0.515253 -30.5969
vn 0.399411 -0.0297887 -0.916288
v 7.33289 -0.50979 -30.6052
vn 0.310333 -0.00702628 -0.950602
v 7.31079 -0.504311 -30.6112
vn 0.218266 0.0158038 -0.975761
v 7.28819 -0.498868 -30.615
vn 0.124097 0.0384816 -0.991524
v 7.2653 -0.493514 -30.6165
vn 0.0287326 0.0607889 -0.997737
v 7.24235 -0.488301 -30.6157
vn -0.0669083 0.0825107 -0.994342
v 7.21955 -0.483279 -30.6125
vn -0.161905 0.103438 -0.98137
v 7.19713 -0.478495 -30.6072
vn -0.255342 0.123369 -0.958948
v 7.17529 -0.473997 -30.5996
vn -0.34632 0.142112 -0.92729
v 7.15426 -0.469827 -30.5898
vn -0.433963 0.159486 -0.886702
v 7.13422 -0.466026 -30.578
vn -0.517427 0.175325 -0.837574
v 7.11539 -0.46263 -30.5643
vn -0.595908 0.189474 -0.78038
v 7.09793 -0.459671 -30.5488
vn -0.668649 0.2018 -0.715671
v 7.08202 -0.45718 -30.5316
vn -0.734951 0.212181 -0.64407
v 7.0678 -0.455179 -30.5129
vn -0.794176 0.22052 -0.566265
v 7.05543 -0.453687 -30.4929
vn -0.845751 0.226734 -0.483007
v 7.045 -0.45272 -30.4718
vn -0.889182 0.230765 -0.395098
v 7.03663 -0.452286 -30.4498
vn -0.92405 0.232574 -0.303384
v 7.0304 -0.452389 -30.4271
vn -0.950018 0.232143 -0.208747
v 7.02637 -0.453029 -30.4039
vn -0.966837 0.229476 -0.112101
v 7.02456 -0.4542 -30.3805
vn -0.974345 0.224599 -0.0143749
v 7.02501 -0.455889 -30.357
vn -0.97247 0.217559 0.0834897
v 7.02771 -0.458082 -30.3337
vn -0.961229 0.208424 0.18055
v 7.03263 -0.460756 -30.3108
vn -0.940731 0.197282 0.275872
v 7.03972 -0.463886 -30.2886
vn -0.911173 0.184239 0.368537
v 7.04892 -0.467442 -30.2672
vn -0.87284 0.169423 0.457652
v 7.06014 -0.47139 -30.2468
vn -0.826101 0.152975 0.542361
v 7.07327 -0.475691 -30.2278
vn -0.771407 0.135053 0.621846
v 7.08818 -0.480304 -30.2101
vn -0.709283 0.115831 0.695342
v 7.10473 -0.485185 -30.1941
vn -0.640329 0.0954936 0.762142
v 7.12276 -0.490287 -30.1798
vn -0.565207 0.0742363 0.821602
v 7.14209 -0.49556 -30.1675
vn -0.484643 0.0522642 0.873149
v 7.16255 -0.500954 -30.1571
vn -0.399411 0.0297887 0.916288
v 7.18393 -0.506417 -30.1489
vn -0.310333 0.00702628 0.950602
v 6.77235 -2.53242 -30.4161
vn -0.246099 -0.145434 0.958272
v 6.79502 -2.53772 -30.4123
vn -0.151796 -0.167487 0.974118
v 6.81804 -2.54263 -30.4108
vn -0.0560306 -0.187928 0.980583
v 6.84119 -2.54711 -30.4115
vn 0.040274 -0.206559 0.977605
v 6.86424 -2.55111 -30.4145
vn 0.136191 -0.2232 0.965212
v 6.88698 -2.5546 -30.4197
vn 0.230796 -0.237692 0.943523
v 6.90919 -2.55753 -30.4271
vn 0.323178 -0.249895 0.912748
v 6.93065 -2.55988 -30.4366
vn 0.412448 -0.259691 0.873182
v 6.95115 -2.56164 -30.4481
vn 0.497746 -0.266987 0.825207
v 6.9705 -2.56277 -30.4615
vn 0.578251 -0.271711 0.769285
v 6.98851 -2.56328 -30.4768
vn 0.653186 -0.273818 0.705954
v 7.00501 -2.56315 -30.4936
vn 0.721831 -0.273288 0.635825
v 7.01984 -2.56239 -30.512
vn 0.783524 -0.270127 0.559572
v 7.03286 -2.56101 -30.5316
vn 0.837672 -0.264364 0.47793
v 7.04394 -2.55901 -30.5523
vn 0.883752 -0.256055 0.391686
v 7.05297 -2.55642 -30.574
vn 0.921322 -0.24528 0.301669
v 7.05987 -2.55326 -30.5963
vn 0.950018 -0.232143 0.208747
v 7.06456 -2.54957 -30.6191
vn 0.969565 -0.21677 0.113815
v 7.06702 -2.54537 -30.6422
vn 0.979775 -0.199309 0.0177869
v 7.0672 -2.54071 -30.6653
vn 0.980549 -0.179929 -0.0784127
v 7.06512 -2.53564 -30.6883
vn 0.97188 -0.158817 -0.173857
v 7.06079 -2.53019 -30.7108
vn 0.953851 -0.136175 -0.267627
v 7.05424 -2.52443 -30.7327
vn 0.926636 -0.112221 -0.35882
v 7.04556 -2.51842 -30.7538
vn 0.890497 -0.0871866 -0.446557
v 7.03481 -2.5122 -30.7739
vn 0.845782 -0.0613125 -0.529994
v 7.0221 -2.50584 -30.7927
vn 0.792922 -0.034848 -0.608326
v 7.00756 -2.49939 -30.8101
vn 0.732425 -0.00804791 -0.6808
v 6.99132 -2.49293 -30.826
vn 0.664875 0.0188297 -0.746717
v 6.97355 -2.48652 -30.8401
vn 0.590922 0.045526 -0.805443
v 6.9544 -2.4802 -30.8523
vn 0.511277 0.0717838 -0.856413
v 6.93407 -2.47406 -30.8626
vn 0.426709 0.0973504 -0.899134
v 6.91276 -2.46814 -30.8708
vn 0.338032 0.121979 -0.933196
v 6.89066 -2.4625 -30.8768
vn 0.246099 0.145434 -0.958272
v 6.86799 -2.4572 -30.8806
vn 0.151796 0.167487 -0.974118
v 6.84497 -2.45229 -30.8822
vn 0.0560306 0.187928 -0.980583
v 6.82182 -2.44781 -30.8815
vn -0.040274 0.206559 -0.977605
v 6.79877 -2.44381 -30.8785
vn -0.136191 0.2232 -0.965212
v 6.77603 -2.44032 -30.8733
vn -0.230796 0.237692 -0.943523
v 6.75382 -2.43739 -30.8659
vn -0.323178 0.249895 -0.912748
v 6.73236 -2.43504 -30.8564
vn -0.412448 0.259691 -0.873182
v 6.71186 -2.43328 -30.8448
vn -0.497746 0.266987 -0.825207
v 6.69251 -2.43215 -30.8314
vn -0.578251 0.271711 -0.769285
v 6.67449 -2.43164 -30.8162
vn -0.653186 0.273818 -0.705954
v 6.65799 -2.43177 -30.7993
vn -0.721831 0.273288 -0.635825
v 6.64316 -2.43253 -30.781
vn -0.783524 0.270127 -0.559572
v 6.63015 -2.43391 -30.7613
vn -0.837672 0.264364 -0.47793
v 6.61907 -2.43591 -30.7406
vn -0.883752 0.256055 -0.391686
v 6.61004 -2.4385 -30.719
vn -0.921322 0.24528 -0.301669
v 6.60314 -2.44166 -30.6966
vn -0.950018 0.232143 -0.208747
v 6.59844 -2.44535 -30.6738
vn -0.969565 0.21677 -0.113815
v 6.59599 -2.44955 -30.6507
vn -0.979775 0.199309 -0.0177869
v 6.5958 -2.45421 -30.6276
vn -0.980549 0.179929 0.0784127
v 6.59789 -2.45928 -30.6047
vn -0.97188 0.158817 0.173857
v 6.60222 -2.46473 -30.5821
vn -0.953851 0.136175 0.267627
v 6.60876 -2.47048 -30.5602
vn -0.926636 0.112221 0.35882
v 6.61745 -2.4765 -30.5391
vn -0.890497 0.0871866 0.446557
v 6.6282 -2.48272 -30.5191
vn -0.845782 0.0613125 0.529994
v 6.64091 -2.48908 -30.5002
vn -0.792922 0.034848 0.608326
v 6.65545 -2.49553 -30.4828
vn -0.732425 0.00804791 0.6808
v 6.67168 -2.50199 -30.467
vn -0.664875 -0.0188297 0.746717
v 6.68946 -2.5084 -30.4529
vn -0.590922 -0.045526 0.805443
v 6.70861 -2.51471 -30.4406
vn -0.511277 -0.0717838 0.856413
v 6.72893 -2.52086 -30.4303
vn -0.426709 -0.0973504 0.899134
v 6.75025 -2.52678 -30.4221
vn -0.338032 -0.121979 0.933196
v 6.39731 -4.55975 -30.9639
vn -0.268537 -0.266605 0.92564
v 6.42004 -4.56492 -30.96
vn -0.174126 -0.288075 0.941644
v 6.44318 -4.56942 -30.9583
vn -0.0780382 -0.306771 0.948579
v 6.46649 -4.57321 -30.9589
vn 0.0188014 -0.322512 0.946379
v 6.48976 -4.57625 -30.9616
vn 0.11546 -0.335148 0.935064
v 6.51276 -4.57851 -30.9665
vn 0.211007 -0.344556 0.914745
v 6.53528 -4.57998 -30.9735
vn 0.304521 -0.350645 0.885615
v 6.55708 -4.58063 -30.9826
vn 0.395103 -0.353358 0.847957
v 6.57798 -4.58047 -30.9936
vn 0.48188 -0.352668 0.802133
v 6.59775 -4.57948 -31.0065
vn 0.564016 -0.348581 0.748584
v 6.61622 -4.57769 -31.0211
vn 0.64072 -0.341137 0.687825
v 6.6332 -4.57511 -31.0373
vn 0.711253 -0.330408 0.620443
v 6.64853 -4.57176 -31.055
vn 0.774937 -0.316497 0.547085
v 6.66206 -4.56768 -31.0739
vn 0.831158 -0.299538 0.468458
v 6.67367 -4.5629 -31.0939
vn 0.879375 -0.279694 0.38532
v 6.68324 -4.55747 -31.1149
vn 0.919122 -0.257157 0.298471
v 6.69068 -4.55145 -31.1365
vn 0.950018 -0.232143 0.208747
v 6.69592 -4.54489 -31.1585
vn 0.971765 -0.204893 0.117014
v 6.6989 -4.53785 -31.1809
vn 0.984153 -0.17567 0.024153
v 6.6996 -4.53041 -31.2033
vn 0.987063 -0.144755 -0.0689402
v 6.69801 -4.52263 -31.2256
vn 0.980467 -0.112447 -0.16137
v 6.69415 -4.51459 -31.2474
vn 0.964429 -0.0790549 -0.252245
v 6.68805 -4.50637 -31.2687
vn 0.939103 -0.0449019 -0.340691
v 6.67978 -4.49805 -31.2892
vn 0.904732 -0.0103164 -0.425856
v 6.66941 -4.4897 -31.3088
vn 0.861649 0.0243684 -0.50692
v 6.65704 -4.4814 -31.3271
vn 0.810267 0.0588185 -0.583101
v 6.64279 -4.47324 -31.3441
vn 0.751082 0.0927022 -0.653668
v 6.6268 -4.4653 -31.3596
vn 0.684664 0.125693 -0.717939
v 6.60922 -4.45765 -31.3734
vn 0.611652 0.157474 -0.775296
v 6.59022 -4.45036 -31.3854
vn 0.53275 0.187737 -0.825186
v 6.56999 -4.44351 -31.3955
vn 0.448717 0.216193 -0.86713
v 6.54872 -4.43716 -31.4036
vn 0.360362 0.242567 -0.900722
v 6.52661 -4.43138 -31.4096
vn 0.268537 0.266605 -0.92564
v 6.50389 -4.42621 -31.4134
vn 0.174126 0.288075 -0.941644
v 6.48075 -4.42171 -31.4151
vn 0.0780382 0.306771 -0.948579
v 6.45744 -4.41792 -31.4146
vn -0.0188014 0.322512 -0.946379
v 6.43417 -4.41488 -31.4118
vn -0.11546 0.335148 -0.935064
v 6.41117 -4.41261 -31.4069
vn -0.211007 0.344556 -0.914745
v 6.38865 -4.41114 -31.3999
vn -0.304521 0.350645 -0.885615
v 6.36684 -4.41049 -31.3909
vn -0.395103 0.353358 -0.847957
v 6.34595 -4.41066 -31.3798
vn -0.48188 0.352668 -0.802133
v 6.32618 -4.41164 -31.3669
vn -0.564016 0.348581 -0.748584
v 6.30771 -4.41343 -31.3523
vn -0.64072 0.341137 -0.687825
v 6.29073 -4.41602 -31.3361
vn -0.711253 0.330408 -0.620443
v 6.2754 -4.41937 -31.3184
vn -0.774937 0.316497 -0.547085
v 6.26186 -4.42345 -31.2995
vn -0.831158 0.299538 -0.468458
v 6.25026 -4.42823 -31.2795
vn -0.879375 0.279694 -0.38532
v 6.24069 -4.43365 -31.2586
vn -0.919122 0.257157 -0.298471
v 6.23325 -4.43967 -31.237
vn -0.950018 0.232143 -0.208747
v 6.22801 -4.44623 -31.2149
vn -0.971765 0.204893 -0.117014
v 6.22503 -4.45327 -31.1925
vn -0.984153 0.17567 -0.024153
v 6.22433 -4.46071 -31.1701
vn -0.987063 0.144755 0.0689402
v 6.22592 -4.46849 -31.1479
vn -0.980467 0.112447 0.16137
v 6.22978 -4.47653 -31.126
vn -0.964429 0.0790549 0.252245
v 6.23588 -4.48475 -31.1047
vn -0.939103 0.0449019 0.340691
v 6.24415 -4.49308 -31.0842
vn -0.904732 0.0103164 0.425856
v 6.25452 -4.50143 -31.0647
vn -0.861649 -0.0243684 0.50692
v 6.26689 -4.50972 -31.0463
vn -0.810267 -0.0588185 0.583101
v 6.28114 -4.51788 -31.0293
vn -0.751082 -0.0927022 0.653668
v 6.29713 -4.52582 -31.0139
vn -0.684664 -0.125693 0.717939
v 6.31471 -4.53347 -31.0001
vn -0.611652 -0.157474 0.775296
v 6.33371 -4.54076 -30.9881
vn -0.53275 -0.187737 0.825186
v 6.35394 -4.54761 -30.978
vn -0.448717 -0.216193 0.86713
v 6.37521 -4.55396 -30.9699
vn -0.360362 -0.242567 0.900722
v 6.08097 -6.59279 -31.7851
vn -0.285411 -0.374847 0.88206
v 6.10375 -6.59784 -31.7812
vn -0.190919 -0.395796 0.898274
v 6.12698 -6.60198 -31.7793
vn -0.0945878 -0.412933 0.905836
v 6.15043 -6.60515 -31.7796
vn 0.00265414 -0.426094 0.904675
v 6.17387 -6.60733 -31.782
vn 0.0998705 -0.435151 0.894801
v 6.19708 -6.60851 -31.7865
vn 0.196125 -0.440017 0.87631
v 6.21983 -6.60866 -31.7929
vn 0.290491 -0.440646 0.84938
v 6.24191 -6.60779 -31.8014
vn 0.382059 -0.437031 0.81427
v 6.2631 -6.6059 -31.8118
vn 0.469948 -0.429207 0.771317
v 6.2832 -6.60302 -31.8239
vn 0.553311 -0.417249 0.720937
v 6.30202 -6.59917 -31.8377
vn 0.631345 -0.401274 0.663613
v 6.31937 -6.59438 -31.8531
vn 0.703299 -0.381433 0.599899
v 6.33509 -6.58871 -31.8699
vn 0.76848 -0.35792 0.530407
v 6.34902 -6.58221 -31.8878
vn 0.82626 -0.330959 0.455807
v 6.36103 -6.57494 -31.9069
vn 0.876083 -0.300811 0.376818
v 6.37101 -6.56697 -31.9268
vn 0.917468 -0.267766 0.294199
v 6.37886 -6.55838 -31.9474
vn 0.950018 -0.232143 0.208747
v 6.3845 -6.54926 -31.9685
vn 0.973419 -0.194283 0.121285
v 6.38788 -6.53968 -31.9899
vn 0.987445 -0.154553 0.0326551
v 6.38897 -6.52974 -32.0113
vn 0.991961 -0.113334 -0.0562896
v 6.38776 -6.51953 -32.0326
vn 0.986924 -0.071024 -0.144692
v 6.38425 -6.50917 -32.0536
vn 0.972383 -0.0280297 -0.231701
v 6.37849 -6.49874 -32.0741
vn 0.948477 0.0152344 -0.316479
v 6.37052 -6.48834 -32.0938
vn 0.915437 0.0583519 -0.398209
v 6.36043 -6.47808 -32.1126
vn 0.87358 0.100907 -0.476104
v 6.34831 -6.46805 -32.1302
vn 0.823311 0.142491 -0.549414
v 6.33427 -6.45836 -32.1466
vn 0.765113 0.182703 -0.617432
v 6.31846 -6.44908 -32.1616
vn 0.699546 0.221155 -0.679505
v 6.30103 -6.44033 -32.175
vn 0.627242 0.257477 -0.735033
v 6.28214 -6.43217 -32.1867
vn 0.548897 0.291319 -0.783483
v 6.26197 -6.42468 -32.1965
vn 0.465266 0.322356 -0.824387
v 6.24073 -6.41795 -32.2045
vn 0.377155 0.350288 -0.857352
v 6.21861 -6.41203 -32.2104
vn 0.285411 0.374847 -0.88206
v 6.19582 -6.40697 -32.2143
vn 0.190919 0.395796 -0.898274
v 6.1726 -6.40284 -32.2162
vn 0.0945878 0.412933 -0.905836
v 6.14915 -6.39967 -32.2159
vn -0.00265414 0.426094 -0.904675
v 6.12571 -6.39749 -32.2135
vn -0.0998705 0.435151 -0.894801
v 6.1025 -6.39631 -32.209
vn -0.196125 0.440017 -0.87631
v 6.07975 -6.39616 -32.2026
vn -0.290491 0.440646 -0.84938
v 6.05767 -6.39703 -32.1941
vn -0.382059 0.437031 -0.81427
v 6.03647 -6.39892 -32.1837
vn -0.469948 0.429207 -0.771317
v 6.01637 -6.4018 -32.1716
vn -0.553311 0.417249 -0.720937
v 5.99756 -6.40565 -32.1578
vn -0.631345 0.401274 -0.663613
v 5.98021 -6.41044 -32.1424
vn -0.703299 0.381433 -0.599899
v 5.96449 -6.41611 -32.1256
vn -0.76848 0.35792 -0.530407
v 5.95056 -6.42261 -32.1077
vn -0.82626 0.330959 -0.455807
v 5.93855 -6.42988 -32.0886
vn -0.876083 0.300811 -0.376818
v 5.92857 -6.43785 -32.0687
vn -0.917468 0.267766 -0.294199
v 5.92072 -6.44643 -32.0481
vn -0.950018 0.232143 -0.208747
v 5.91508 -6.45556 -32.027
vn -0.973419 0.194283 -0.121285
v 5.91169 -6.46514 -32.0056
vn -0.987445 0.154553 -0.0326551
v 5.91061 -6.47508 -31.9842
vn -0.991961 0.113334 0.0562896
v 5.91182 -6.48528 -31.9629
vn -0.986924 0.071024 0.144692
v 5.91533 -6.49565 -31.9419
vn -0.972383 0.0280297 0.231701
v 5.92109 -6.50608 -31.9214
vn -0.948477 -0.0152344 0.316479
v 5.92906 -6.51648 -31.9017
vn -0.915437 -0.0583519 0.398209
v 5.93915 -6.52674 -31.883
vn -0.87358 -0.100907 0.476104
v 5.95127 -6.53677 -31.8653
vn -0.823311 -0.142491 0.549414
v 5.9653 -6.54646 -31.8489
vn -0.765113 -0.182703 0.617432
v 5.98111 -6.55573 -31.8339
vn -0.699546 -0.221155 0.679505
v 5.99855 -6.56449 -31.8205
vn -0.627242 -0.257477 0.735033
v 6.01744 -6.57265 -31.8088
vn -0.548897 -0.291319 0.783483
v 6.0376 -6.58014 -31.799
vn -0.465266 -0.322356 0.824387
v 6.05885 -6.58687 -31.791
vn -0.377155 -0.350288 0.857352
v 5.82319 -8.63106 -32.8786
vn -0.297247 -0.468171 0.832142
v 5.84603 -8.63601 -32.8747
vn -0.202698 -0.488671 0.848596
v 5.86933 -8.63983 -32.8727
vn -0.106196 -0.504464 0.856877
v 5.89288 -8.64247 -32.8726
vn -0.00867192 -0.515399 0.856906
v 5.91645 -8.64391 -32.8746
vn 0.0889358 -0.521371 0.848683
v 5.93982 -8.64414 -32.8786
vn 0.185687 -0.522321 0.832287
v 5.96275 -8.64316 -32.8845
vn 0.28065 -0.518242 0.807875
v 5.98503 -8.64097 -32.8923
vn 0.37291 -0.509171 0.775682
v 6.00645 -8.63759 -32.9018
vn 0.461579 -0.495197 0.73602
v 6.02679 -8.63306 -32.9131
vn 0.545802 -0.476453 0.689269
v 6.04586 -8.62743 -32.926
vn 0.62477 -0.453121 0.63588
v 6.06347 -8.62074 -32.9404
vn 0.69772 -0.425426 0.576368
v 6.07947 -8.61306 -32.9561
vn 0.763951 -0.393633 0.511304
v 6.09369 -8.60447 -32.973
vn 0.822824 -0.35805 0.441317
v 6.10599 -8.59504 -32.9909
vn 0.873774 -0.319018 0.367079
v 6.11626 -8.58488 -33.0097
vn 0.916308 -0.276914 0.289306
v 6.1244 -8.57406 -33.0292
vn 0.950018 -0.232143 0.208747
v 6.13033 -8.56271 -33.0491
vn 0.974579 -0.185136 0.126178
v 6.134 -8.55093 -33.0693
vn 0.989754 -0.136346 0.0423936
v 6.13536 -8.53883 -33.0897
vn 0.995397 -0.0862438 -0.0417992
v 6.13441 -8.52653 -33.1099
vn 0.991454 -0.0353105 -0.125589
v 6.13115 -8.51415 -33.1299
vn 0.977962 0.0159628 -0.20817
v 6.12562 -8.5018 -33.1493
vn 0.955053 0.0670824 -0.288746
v 6.11786 -8.48961 -33.1681
vn 0.922945 0.117556 -0.366541
v 6.10796 -8.4777 -33.186
vn 0.88195 0.166897 -0.440806
v 6.09601 -8.46617 -33.2029
vn 0.83246 0.214631 -0.510826
v 6.08212 -8.45514 -33.2187
vn 0.774954 0.260298 -0.575927
v 6.06643 -8.44472 -33.233
vn 0.709984 0.303459 -0.635481
v 6.04909 -8.435 -33.246
vn 0.638177 0.343697 -0.688915
v 6.03027 -8.42608 -33.2573
vn 0.560223 0.380624 -0.735714
v 6.01014 -8.41805 -33.2668
vn 0.476875 0.413886 -0.775428
v 5.9889 -8.41098 -33.2746
vn 0.388934 0.443163 -0.807674
v 5.96676 -8.40494 -33.2805
vn 0.297247 0.468171 -0.832142
v 5.94393 -8.39999 -33.2845
vn 0.202698 0.488671 -0.848596
v 5.92062 -8.39618 -33.2865
vn 0.106196 0.504464 -0.856877
v 5.89707 -8.39354 -33.2865
vn 0.00867192 0.515399 -0.856906
v 5.8735 -8.39209 -33.2845
vn -0.0889358 0.521371 -0.848683
v 5.85013 -8.39187 -33.2806
vn -0.185687 0.522321 -0.832287
v 5.8272 -8.39285 -33.2747
vn -0.28065 0.518242 -0.807875
v 5.80492 -8.39504 -33.2669
vn -0.37291 0.509171 -0.775682
v 5.78351 -8.39842 -33.2573
vn -0.461579 0.495197 -0.73602
v 5.76317 -8.40294 -33.246
vn -0.545802 0.476453 -0.689269
v 5.7441 -8.40858 -33.2331
vn -0.62477 0.453121 -0.63588
v 5.72648 -8.41527 -33.2188
vn -0.69772 0.425426 -0.576368
v 5.71049 -8.42294 -33.2031
vn -0.763951 0.393633 -0.511304
v 5.69627 -8.43154 -33.1862
vn -0.822824 0.35805 -0.441317
v 5.68397 -8.44096 -33.1682
vn -0.873774 0.319018 -0.367079
v 5.67369 -8.45113 -33.1494
vn -0.916308 0.276914 -0.289306
v 5.66555 -8.46194 -33.13
vn -0.950018 0.232143 -0.208747
v 5.65962 -8.47329 -33.1101
vn -0.974579 0.185136 -0.126178
v 5.65596 -8.48508 -33.0898
vn -0.989754 0.136346 -0.0423936
v 5.65459 -8.49718 -33.0695
vn -0.995397 0.0862438 0.0417992
v 5.65555 -8.50948 -33.0493
vn -0.991454 0.0353105 0.125589
v 5.6588 -8.52186 -33.0293
vn -0.977962 -0.0159628 0.20817
v 5.66434 -8.5342 -33.0099
vn -0.955053 -0.0670824 0.288746
v 5.67209 -8.54639 -32.9911
vn -0.922945 -0.117556 0.366541
v 5.68199 -8.55831 -32.9731
vn -0.88195 -0.166897 0.440806
v 5.69394 -8.56984 -32.9562
vn -0.83246 -0.214631 0.510826
v 5.70783 -8.58086 -32.9405
vn -0.774954 -0.260298 0.575927
v 5.72352 -8.59129 -32.9261
vn -0.709984 -0.303459 0.635481
v 5.74086 -8.601 -32.9132
vn -0.638177 -0.343697 0.688915
v 5.75969 -8.60992 -32.9019
vn -0.560223 -0.380624 0.735714
v 5.77981 -8.61795 -32.8923
vn -0.476875 -0.413886 0.775428
v 5.80105 -8.62502 -32.8845
vn -0.388934 -0.443163 0.807674
f 1 66 2 
f 1 65 66 
f 2 67 3 
f 2 66 67 
f 3 68 4 
f 3 67 68 
f 4 69 5 
f 4 68 69 
f 5 70 6 
f 5 69 70 
f 6 71 7 
f 6 70 71 
f 7 72 8 
f 7 71 72 
f 8 73 9 
f 8 72 73 
f 9 74 10 
f 9 73 74 
f 10 75 11 
f 10 74 75 
f 11 76 12 
f 11 75 76 
f 12 77 13 
f 12 76 77 
f 13 78 14 
f 13 77 78 
f 14 79 15 
f 14 78 79 
f 15 80 16 
f 15 79 80 
f 16 81 17 
f 16 80 81 
f 17 82 18 
f 17 81 82 
f 18 83 19 
f 18 82 83 
f 19 84 20 
f 19 83 84 
f 20 85 21 
f 20 84 85 
f 21 86 22 
f 21 85 86 
f 22 87 23 
f 22 86 87 
f 23 88 24 
f 23 87 88 
f 24 89 25 
f 24 88 89 
f 25 90 26 
f 25 89 90 
f 26 91 27 
f 26 90 91 
f 27 92 28 
f 27 91 92 
f 28 93 29 
f 28 92 93 
f 29 94 30 
f 29 93 94 
f 30 95 31 
f 30 94 95 
f 31 96 32 
f 31 95 96 
f 32 97 33 
f 32 96 97 
f 33 98 34 
f 33 97 98 
f 34 99 35 
f 34 98 99 
f 35 100 36 
f 35 99 100 
f 36 101 37 
f 36 100 101 
f 37 102 38 
f 37 101 102 
f 38 103 39 
f 38 102 103 
f 39 104 40 
f 39 103 104 
f 40 105 41 
f 40 104 105 
f 41 106 42 
f 41 105 106 
f 42 107 43 
f 42 106 107 
f 43 108 44 
f 43 107 108 
f 44 109 45 
f 44 108 109 
f 45 110 46 
f 45 109 110 
f 46 111 47 
f 46 110 111 
f 47 112 48 
f 47 111 112 
f 48 113 49 
f 48 112 113 
f 49 114 50 
f 49 113 114 
f 50 115 51 
f 50 114 115 
f 51 116 52 
f 51 115 116 
f 52 117 53 
f 52 116 117 
f 53 118 54 
f 53 117 118 
f 54 119 55 
f 54 118 119 
f 55 120 56 
f 55 119 120 
f 56 121 57 
f 56 120 121 
f 57 122 58 
f 57 121 122 
f 58 123 59 
f 58 122 123 
f 59 124 60 
f 59 123 124 
f 60 125 61 
f 60 124 125 
f 61 126 62 
f 61 125 126 
f 62 127 63 
f 62 126 127 
f 63 128 64 
f 63 127 128 
f 64 65 1 
f 64 128 65 
f 65 130 66 
f 65 129 130 
f 66 131 67 
f 66 130 131 
f 67 132 68 
f 67 131 132 
f 68 133 69 
f 68 132 133 
f 69 134 70 
f 69 133 134 
f 70 135 71 
f 70 134 135 
f 71 136 72 
f 71 135 136 
f 72 137 73 
f 72 136 137 
f 73 138 74 
f 73 137 138 
f 74 139 75 
f 74 138 139 
f 75 140 76 
f 75 139 140 
f 76 141 77 
f 76 140 141 
f 77 142 78 
f 77 141 142 
f 78 143 79 
f 78 142 143 
f 79 144 80 
f 79 143 144 
f 80 145 81 
f 80 144 145 
f 81 146 82 
f 81 145 146 
f 82 147 83 
f 82 146 147 
f 83 148 84 
f 83 147 148 
f 84 149 85 
f 84 148 149 
f 85 150 86 
f 85 149 150 
f 86 151 87 
f 86 150 151 
f 87 152 88 
f 87 151 152 
f 88 153 89 
f 88 152 153 
f 89 154 90 
f 89 153 154 
f 90 155 91 
f 90 154 155 
f 91 156 92 
f 91 155 156 
f 92 157 93 
f 92 156 157 
f 93 158 94 
f 93 157 158 
f 94 159 95 
f 94 158 159 
f 95 160 96 
f 95 159 160 
f 96 161 97 
f 96 160 161 
f 97 162 98 
f 97 161 162 
f 98 163 99 
f 98 162 163 
f 99 164 100 
f 99 163 164 
f 100 165 101 
f 100 164 165 
f 101 166 102 
f 101 165 166 
f 102 167 103 
f 102 166 167 
f 103 168 104 
f 103 167 168 
f 104 169 105 
f 104 168 169 
f 105 170 106 
f 105 169 170 
f 106 171 107 
f 106 170 171 
f 107 172 108 
f 107 171 172 
f 108 173 109 
f 108 172 173 
f 109 174 110 
f 109 173 174 
f 110 175 111 
f 110 174 175 
f 111 176 112 
f 111 175 176 
f 112 177 113 
f 112 176 177 
f 113 178 114 
f 113 177 178 
f 114 179 115 
f 114 178 179 
f 115 180 116 
f 115 179 180 
f 116 181 117 
f 116 180 181 
f 117 182 118 
f 117 181 182 
f 118 183 119 
f 118 182 183 
f 119 184 120 
f 119 183 184 
f 120 185 121 
f 120 184 185 
f 121 186 122 
f 121 185 186 
f 122 187 123 
f 122 186 187 
f 123 188 124 
f 123 187 188 
f 124 189 125 
f 124 188 189 
f 125 190 126 
f 125 189 190 
f 126 191 127 
f 126 190 191 
f 127 192 128 
f 127 191 192 
f 128 129 65 
f 128 192 129 
f 129 194 130 
f 129 193 194 
f 130 195 131 
f 130 194 195 
f 131 196 132 
f 131 195 196 
f 132 197 133 
f 132 196 197 
f 133 198 134 
f 133 197 198 
f 134 199 135 
f 134 198 199 
f 135 200 136 
f 135 199 200 
f 136 201 137 
f 136 200 201 
f 137 202 138 
f 137 201 202 
f 138 203 139 
f 138 202 203 
f 139 204 140 
f 139 203 204 
f 140 205 141 
f 140 204 205 
f 141 206 142 
f 141 205 206 
f 142 207 143 
f 142 206 207 
f 143 208 144 
f 143 207 208 
f 144 209 145 
f 144 208 209 
f 145 210 146 
f 145 209 210 
f 146 211 147 
f 146 210 211 
f 147 212 148 
f 147 211 212 
f 148 213 149 
f 148 212 213 
f 149 214 150 
f 149 213 214 
f 150 215 151 
f 150 214 215 
f 151 216 152 
f 151 215 216 
f 152 217 153 
f 152 216 217 
f 153 218 154 
f 153 217 218 
f 154 219 155 
f 154 218 219 
f 155 220 156 
f 155 219 220 
f 156 221 157 
f 156 220 221 
f 157 222 158 
f 157 221 222 
f 158 223 159 
f 158 222 223 
f 159 224 160 
f 159 223 224 
f 160 225 161 
f 160 224 225 
f 161 226 162 
f 161 225 226 
f 162 227 163 
f 162 226 227 
f 163 228 164 
f 163 227 228 
f 164 229 165 
f 164 228 229 
f 165 230 166 
f 165 229 230 
f 166 231 167 
f 166 230 231 
f 167 232 168 
f 167 231 232 
f 168 233 169 
f 168 232 233 
f 169 234 170 
f 169 233 234 
f 170 235 171 
f 170 234 235 
f 171 236 172 
f 171 235 236 
f 172 237 173 
f 172 236 237 
f 173 238 174 
f 173 237 238 
f 174 239 175 
f 174 238 239 
f 175 240 176 
f 175 239 240 
f 176 241 177 
f 176 240 241 
f 177 242 178 
f 177 241 242 
f 178 243 179 
f 178 242 243 
f 179 244 180 
f 179 243 244 
f 180 245 181 
f 180 244 245 
f 181 246 182 
f 181 245 246 
f 182 247 183 
f 182 246 247 
f 183 248 184 
f 183 247 248 
f 184 249 185 
f 184 248 249 
f 185 250 186 
f 185 249 250 
f 186 251 187 
f 186 250 251 
f 187 252 188 
f 187 251 252 
f 188 253 189 
f 188 252 253 
f 189 254 190 
f 189 253 254 
f 190 255 191 
f 190 254 255 
f 191 256 192 
f 191 255 256 
f 192 193 129 
f 192 256 193 
f 193 258 194 
f 193 257 258 
f 194 259 195 
f 194 258 259 
f 195 260 196 
f 195 259 260 
f 196 261 197 
f 196 260 261 
f 197 262 198 
f 197 261 262 
f 198 263 199 
f 198 262 263 
f 199 264 200 
f 199 263 264 
f 200 265 201 
f 200 264 265 
f 201 266 202 
f 201 265 266 
f 202 267 203 
f 202 266 267 
f 203 268 204 
f 203 267 268 
f 204 269 205 
f 204 268 269 
f 205 270 206 
f 205 269 270 
f 206 271 207 
f 206 270 271 
f 207 272 208 
f 207 271 272 
f 208 273 209 
f 208 272 273 
f 209 274 210 
f 209 273 274 
f 210 275 211 
f 210 274 275 
f 211 276 212 
f 211 275 276 
f 212 277 213 
f 212 276 277 
f 213 278 214 
f 213 277 278 
f 214 279 215 
f 214 278 279 
f 215 280 216 
f 215 279 280 
f 216 281 217 
f 216 280 281 
f 217 282 218 
f 217 281 282 
f 218 283 219 
f 218 282 283 
f 219 284 220 
f 219 283 284 
f 220 285 221 
f 220 284 285 
f 221 286 222 
f 221 285 286 
f 222 287 223 
f 222 286 287 
f 223 288 224 
f 223 287 288 
f 224 289 225 
f 224 288 289 
f 225 290 226 
f 225 289 290 
f 226 291 227 
f 226 290 291 
f 227 292 228 
f 227 291 292 
f 228 293 229 
f 228 292 293 
f 229 294 230 
f 229 293 294 
f 230 295 231 
f 230 294 295 
f 231 296 232 
f 231 295 296 
f 232 297 233 
f 232 296 297 
f 233 298 234 
f 233 297 298 
f 234 299 235 
f 234 298 299 
f 235 300 236 
f 235 299 300 
f 236 301 237 
f 236 300 301 
f 237 302 238 
f 237 301 302 
f 238 303 239 
f 238 302 303 
f 239 304 240 
f 239 303 304 
f 240 305 241 
f 240 304 305 
f 241 306 242 
f 241 305 306 
f 242 307 243 
f 242 306 307 
f 243 308 244 
f 243 307 308 
f 244 309 245 
f 244 308 309 
f 245 310 246 
f 245 309 310 
f 246 311 247 
f 246 310 311 
f 247 312 248 
f 247 311 312 
f 248 313 249 
f 248 312 313 
f 249 314 250 
f 249 313 314 
f 250 315 251 
f 250 314 315 
f 251 316 252 
f 251 315 316 
f 252 317 253 
f 252 316 317 
f 253 318 254 
f 253 317 318 
f 254 319 255 
f 254 318 319 
f 255 320 256 
f 255 319 320 
f 256 257 193 
f 256 320 257 
f 257 322 258 
f 257 321 322 
f 258 323 259 
f 258 322 323 
f 259 324 260 
f 259 323 324 
f 260 325 261 
f 260 324 325 
f 261 326 262 
f 261 325 326 
f 262 327 263 
f 262 326 327 
f 263 328 264 
f 263 327 328 
f 264 329 265 
f 264 328 329 
f 265 330 266 
f 265 329 330 
f 266 331 267 
f 266 330 331 
f 267 332 268 
f 267 331 332 
f 268 333 269 
f 268 332 333 
f 269 334 270 
f 269 333 334 
f 270 335 271 
f 270 334 335 
f 271 336 272 
f 271 335 336 
f 272 337 273 
f 272 336 337 
f 273 338 274 
f 273 337 338 
f 274 339 275 
f 274 338 339 
f 275 340 276 
f 275 339 340 
f 276 341 277 
f 276 340 341 
f 277 342 278 
f 277 341 342 
f 278 343 279 
f 278 342 343 
f 279 344 280 
f 279 343 344 
f 280 345 281 
f 280 344 345 
f 281 346 282 
f 281 345 346 
f 282 347 283 
f 282 346 347 
f 283 348 284 
f 283 347 348 
f 284 349 285 
f 284 348 349 
f 285 350 286 
f 285 349 350 
f 286 351 287 
f 286 350 351 
f 287 352 288 
f 287 351 352 
f 288 353 289 
f 288 352 353 
f 289 354 290 
f 289 353 354 
f 290 355 291 
f 290 354 355 
f 291 356 292 
f 291 355 356 
f 292 357 293 
f 292 356 357 
f 293 358 294 
f 293 357 358 
f 294 359 295 
f 294 358 359 
f 295 360 296 
f 295 359 360 
f 296 361 297 
f 296 360 361 
f 297 362 298 
f 297 361 362 
f 298 363 299 
f 298 362 363 
f 299 364 300 
f 299 363 364 
f 300 365 301 
f 300 364 365 
f 301 366 302 
f 301 365 366 
f 302 367 303 
f 302 366 367 
f 303 368 304 
f 303 367 368 
f 304 369 305 
f 304 368 369 
f 305 370 306 
f 305 369 370 
f 306 371 307 
f 306 370 371 
f 307 372 308 
f 307 371 372 
f 308 373 309 
f 308 372 373 
f 309 374 310 
f 309 373 374 
f 310 375 311 
f 310 374 375 
f 311 376 312 
f 311 375 376 
f 312 377 313 
f 312 376 377 
f 313 378 314 
f 313 377 378 
f 314 379 315 
f 314 378 379 
f 315 380 316 
f 315 379 380 
f 316 381 317 
f 316 380 381 
f 317 382 318 
f 317 381 382 
f 318 383 319 
f 318 382 383 
f 319 384 320 
f 319 383 384 
f 320 321 257 
f 320 384 321 
f 321 386 322 
f 321 385 386 
f 322 387 323 
f 322 386 387 
f 323 388 324 
f 323 387 388 
f 324 389 325 
f 324 388 389 
f 325 390 326 
f 325 389 390 
f 326 391 327 
f 326 390 391 
f 327 392 328 
f 327 391 392 
f 328 393 329 
f 328 392 393 
f 329 394 330 
f 329 393 394 
f 330 395 331 
f 330 394 395 
f 331 396 332 
f 331 395 396 
f 332 397 333 
f 332 396 397 
f 333 398 334 
f 333 397 398 
f 334 399 335 
f 334 398 399 
f 335 400 336 
f 335 399 400 
f 336 401 337 
f 336 400 401 
f 337 402 338 
f 337 401 402 
f 338 403 339 
f 338 402 403 
f 339 404 340 
f 339 403 404 
f 340 405 341 
f 340 404 405 
f 341 406 342 
f 341 405 406 
f 342 407 343 
f 342 406 407 
f 343 408 344 
f 343 407 408 
f 344 409 345 
f 344 408 409 
f 345 410 346 
f 345 409 410 
f 346 411 347 
f 346 410 411 
f 347 412 348 
f 347 411 412 
f 348 413 349 
f 348 412 413 
f 349 414 350 
f 349 413 414 
f 350 415 351 
f 350 414 415 
f 351 416 352 
f 351 415 416 
f 352 417 353 
f 352 416 417 
f 353 418 354 
f 353 417 418 
f 354 419 355 
f 354 418 419 
f 355 420 356 
f 355 419 420 
f 356 421 357 
f 356 420 421 
f 357 422 358 
f 357 421 422 
f 358 423 359 
f 358 422 423 
f 359 424 360 
f 359 423 424 
f 360 425 361 
f 360 424 425 
f 361 426 362 
f 361 425 426 
f 362 427 363 
f 362 426 427 
f 363 428 364 
f 363 427 428 
f 364 429 365 
f 364 428 429 
f 365 430 366 
f 365 429 430 
f 366 431 367 
f 366 430 431 
f 367 432 368 
f 367 431 432 
f 368 433 369 
f 368 432 433 
f 369 434 370 
f 369 433 434 
f 370 435 371 
f 370 434 435 
f 371 436 372 
f 371 435 436 
f 372 437 373 
f 372 436 437 
f 373 438 374 
f 373 437 438 
f 374 439 375 
f 374 438 439 
f 375 440 376 
f 375 439 440 
f 376 441 377 
f 376 440 441 
f 377 442 378 
f 377 441 442 
f 378 443 379 
f 378 442 443 
f 379 444 380 
f 379 443 444 
f 380 445 381 
f 380 444 445 
f 381 446 382 
f 381 445 446 
f 382 447 383 
f 382 446 447 
f 383 448 384 
f 383 447 448 
f 384 385 321 
f 384 448 385 
f 385 450 386 
f 385 449 450 
f 386 451 387 
f 386 450 451 
f 387 452 388 
f 387 451 452 
f 388 453 389 
f 388 452 453 
f 389 454 390 
f 389 453 454 
f 390 455 391 
f 390 454 455 
f 391 456 392 
f 391 455 456 
f 392 457 393 
f 392 456 457 
f 393 458 394 
f 393 457 458 
f 394 459 395 
f 394 458 459 
f 395 460 396 
f 395 459 460 
f 396 461 397 
f 396 460 461 
f 397 462 398 
f 397 461 462 
f 398 463 399 
f 398 462 463 
f 399 464 400 
f 399 463 464 
f 400 465 401 
f 400 464 465 
f 401 466 402 
f 401 465 466 
f 402 467 403 
f 402 466 467 
f 403 468 404 
f 403 467 468 
f 404 469 405 
f 404 468 469 
f 405 470 406 
f 405 469 470 
f 406 471 407 
f 406 470 471 
f 407 472 408 
f 407 471 472 
f 408 473 409 
f 408 472 473 
f 409 474 410 
f 409 473 474 
f 410 475 411 
f 410 474 475 
f 411 476 412 
f 411 475 476 
f 412 477 413 
f 412 476 477 
f 413 478 414 
f 413 477 478 
f 414 479 415 
f 414 478 479 
f 415 480 416 
f 415 479 480 
f 416 481 417 
f 416 480 481 
f 417 482 418 
f 417 481 482 
f 418 483 419 
f 418 482 483 
f 419 484 420 
f 419 483 484 
f 420 485 421 
f 420 484 485 
f 421 486 422 
f 421 485 486 
f 422 487 423 
f 422 486 487 
f 423 488 424 
f 423 487 488 
f 424 489 425 
f 424 488 489 
f 425 490 426 
f 425 489 490 
f 426 491 427 
f 426 490 491 
f 427 492 428 
f 427 491 492 
f 428 493 429 
f 428 492 493 
f 429 494 430 
f 429 493 494 
f 430 495 431 
f 430 494 495 
f 431 496 432 
f 431 495 496 
f 432 497 433 
f 432 496 497 
f 433 498 434 
f 433 497 498 
f 434 499 435 
f 434 498 499 
f 435 500 436 
f 435 499 500 
f 436 501 437 
f 436 500 501 
f 437 502 438 
f 437 501 502 
f 438 503 439 
f 438 502 503 
f 439 504 440 
f 439 503 504 
f 440 505 441 
f 440 504 505 
f 441 506 442 
f 441 505 506 
f 442 507 443 
f 442 506 507 
f 443 508 444 
f 443 507 508 
f 444 509 445 
f 444 508 509 
f 445 510 446 
f 445 509 510 
f 446 511 447 
f 446 510 511 
f 447 512 448 
f 447 511 512 
f 448 449 385 
f 448 512 449 
f 449 514 450 
f 449 513 514 
f 450 515 451 
f 450 514 515 
f 451 516 452 
f 451 515 516 
f 452 517 453 
f 452 516 517 
f 453 518 454 
f 453 517 518 
f 454 519 455 
f 454 518 519 
f 455 520 456 
f 455 519 520 
f 456 521 457 
f 456 520 521 
f 457 522 458 
f 457 521 522 
f 458 523 459 
f 458 522 523 
f 459 524 460 
f 459 523 524 
f 460 525 461 
f 460 524 525 
f 461 526 462 
f 461 525 526 
f 462 527 463 
f 462 526 527 
f 463 528 464 
f 463 527 528 
f 464 529 465 
f 464 528 529 
f 465 530 466 
f 465 529 530 
f 466 531 467 
f 466 530 531 
f 467 532 468 
f 467 531 532 
f 468 533 469 
f 468 532 533 
f 469 534 470 
f 469 533 534 
f 470 535 471 
f 470 534 535 
f 471 536 472 
f 471 535 536 
f 472 537 473 
f 472 536 537 
f 473 538 474 
f 473 537 538 
f 474 539 475 
f 474 538 539 
f 475 540 476 
f 475 539 540 
f 476 541 477 
f 476 540 541 
f 477 542 478 
f 477 541 542 
f 478 543 479 
f 478 542 543 
f 479 544 480 
f 479 543 544 
f 480 545 481 
f 480 544 545 
f 481 546 482 
f 481 545 546 
f 482 547 483 
f 482 546 547 
f 483 548 484 
f 483 547 548 
f 484 549 485 
f 484 548 549 
f 485 550 486 
f 485 549 550 
f 486 551 487 
f 486 550 551 
f 487 552 488 
f 487 551 552 
f 488 553 489 
f 488 552 553 
f 489 554 490 
f 489 553 554 
f 490 555 491 
f 490 554 555 
f 491 556 492 
f 491 555 556 
f 492 557 493 
f 492 556 557 
f 493 558 494 
f 493 557 558 
f 494 559 495 
f 494 558 559 
f 495 560 496 
f 495 559 560 
f 496 561 497 
f 496 560 561 
f 497 562 498 
f 497 561 562 
f 498 563 499 
f 498 562 563 
f 499 564 500 
f 499 563 564 
f 500 565 501 
f 500 564 565 
f 501 566 502 
f 501 565 566 
f 502 567 503 
f 502 566 567 
f 503 568 504 
f 503 567 568 
f 504 569 505 
f 504 568 569 
f 505 570 506 
f 505 569 570 
f 506 571 507 
f 506 570 571 
f 507 572 508 
f 507 571 572 
f 508 573 509 
f 508 572 573 
f 509 574 510 
f 509 573 574 
f 510 575 511 
f 510 574 575 
f 511 576 512 
f 511 575 576 
f 512 513 449 
f 512 576 513 
f 513 578 514 
f 513 577 578 
f 514 579 515 
f 514 578 579 
f 515 580 516 
f 515 579 580 
f 516 581 517 
f 516 580 581 
f 517 582 518 
f 517 581 582 
f 518 583 519 
f 518 582 583 
f 519 584 520 
f 519 583 584 
f 520 585 521 
f 520 584 585 
f 521 586 522 
f 521 585 586 
f 522 587 523 
f 522 586 587 
f 523 588 524 
f 523 587 588 
f 524 589 525 
f 524 588 589 
f 525 590 526 
f 525 589 590 
f 526 591 527 
f 526 590 591 
f 527 592 528 
f 527 591 592 
f 528 593 529 
f 528 592 593 
f 529 594 530 
f 529 593 594 
f 530 595 531 
f 530 594 595 
f 531 596 532 
f 531 595 596 
f 532 597 533 
f 532 596 597 
f 533 598 534 
f 533 597 598 
f 534 599 535 
f 534 598 599 
f 535 600 536 
f 535 599 600 
f 536 601 537 
f 536 600 601 
f 537 602 538 
f 537 601 602 
f 538 603 539 
f 538 602 603 
f 539 604 540 
f 539 603 604 
f 540 605 541 
f 540 604 605 
f 541 606 542 
f 541 605 606 
f 542 607 543 
f 542 606 607 
f 543 608 544 
f 543 607 608 
f 544 609 545 
f 544 608 609 
f 545 610 546 
f 545 609 610 
f 546 611 547 
f 546 610 611 
f 547 612 548 
f 547 611 612 
f 548 613 549 
f 548 612 613 
f 549 614 550 
f 549 613 614 
f 550 615 551 
f 550 614 615 
f 551 616 552 
f 551 615 616 
f 552 617 553 
f 552 616 617 
f 553 618 554 
f 553 617 618 
f 554 619 555 
f 554 618 619 
f 555 620 556 
f 555 619 620 
f 556 621 557 
f 556 620 621 
f 557 622 558 
f 557 621 622 
f 558 623 559 
f 558 622 623 
f 559 624 560 
f 559 623 624 
f 560 625 561 
f 560 624 625 
f 561 626 562 
f 561 625 626 
f 562 627 563 
f 562 626 627 
f 563 628 564 
f 563 627 628 
f 564 629 565 
f 564 628 629 
f 565 630 566 
f 565 629 630 
f 566 631 567 
f 566 630 631 
f 567 632 568 
f 567 631 632 
f 568 633 569 
f 568 632 633 
f 569 634 570 
f 569 633 634 
f 570 635 571 
f 570 634 635 
f 571 636 572 
f 571 635 636 
f 572 637 573 
f 572 636 637 
f 573 638 574 
f 573 637 638 
f 574 639 575 
f 574 638 639 
f 575 640 576 
f 575 639 640 
f 576 577 513 
f 576 640 577 
