# Branch
v -7.37148 10.0232 -28.4122
vn 0.226743 0.142372 0.963493
v -7.27446 10.0233 -28.4402
vn 0.321033 0.142476 0.93629
v -7.18063 10.022 -28.4775
vn 0.41223 0.141209 0.90007
v -7.09088 10.0193 -28.5237
vn 0.499458 0.138582 0.855182
v -7.00608 10.0152 -28.5783
vn 0.581876 0.134619 0.802058
v -6.92704 10.0098 -28.641
vn 0.65869 0.129361 0.74121
v -6.85454 10.0031 -28.7109
vn 0.729161 0.122857 0.673224
v -6.78925 9.99522 -28.7875
vn 0.792609 0.115169 0.598754
v -6.73182 9.98617 -28.8701
vn 0.848424 0.106373 0.518518
v -6.6828 9.97606 -28.9578
vn 0.896069 0.0965516 0.433288
v -6.64266 9.965 -29.0498
vn 0.935083 0.0858007 0.343886
v -6.61178 9.95309 -29.1452
vn 0.965093 0.0742235 0.251171
v -6.59047 9.94044 -29.243
vn 0.985808 0.0619315 0.156038
v -6.57892 9.92718 -29.3425
vn 0.997029 0.0490431 0.0594018
v -6.57726 9.91343 -29.4425
vn 0.998648 0.0356824 -0.0378063
v -6.58549 9.89933 -29.5421
vn 0.990649 0.021978 -0.13465
v -6.60353 9.88501 -29.6404
vn 0.973111 0.00806191 -0.230198
v -6.63122 9.87062 -29.7365
vn 0.9462 -0.00593178 -0.323528
v -6.66829 9.85628 -29.8293
vn 0.910177 -0.0198683 -0.413742
v -6.71437 9.84213 -29.918
vn 0.865389 -0.0336136 -0.499972
v -6.76903 9.82832 -30.0018
vn 0.812266 -0.0470351 -0.581387
v -6.83173 9.81498 -30.0798
vn 0.751321 -0.0600036 -0.657203
v -6.90189 9.80223 -30.1513
vn 0.68314 -0.0723943 -0.72669
v -6.97881 9.7902 -30.2156
vn 0.60838 -0.0840877 -0.789178
v -7.06176 9.779 -30.2721
vn 0.527762 -0.0949714 -0.844066
v -7.14993 9.76874 -30.3202
vn 0.44206 -0.10494 -0.890826
v -7.24249 9.75953 -30.3594
vn 0.352101 -0.113899 -0.929006
v -7.33854 9.75144 -30.3895
vn 0.258752 -0.12176 -0.958239
v -7.43715 9.74456 -30.4101
vn 0.16291 -0.128449 -0.978244
v -7.53738 9.73895 -30.421
vn 0.0654997 -0.133901 -0.988828
v -7.63826 9.73466 -30.4221
vn -0.0325416 -0.138063 -0.989889
v -7.73881 9.73175 -30.4134
vn -0.13027 -0.140896 -0.981416
v -7.83807 9.73023 -30.3949
vn -0.226743 -0.142372 -0.963493
v -7.93509 9.73012 -30.3669
vn -0.321033 -0.142476 -0.93629
v -8.02892 9.73143 -30.3297
vn -0.41223 -0.141209 -0.90007
v -8.11867 9.73413 -30.2835
vn -0.499458 -0.138582 -0.855182
v -8.20347 9.73821 -30.2288
vn -0.581876 -0.134619 -0.802058
v -8.2825 9.74362 -30.1662
vn -0.65869 -0.129361 -0.74121
v -8.35501 9.75031 -30.0963
vn -0.729161 -0.122857 -0.673224
v -8.42029 9.75822 -30.0197
vn -0.792609 -0.115169 -0.598754
v -8.47772 9.76727 -29.9371
vn -0.848424 -0.106373 -0.518518
v -8.52674 9.77738 -29.8494
vn -0.896069 -0.0965516 -0.433288
v -8.56689 9.78844 -29.7574
vn -0.935083 -0.0858007 -0.343886
v -8.59776 9.80035 -29.662
vn -0.965093 -0.0742235 -0.251171
v -8.61908 9.813 -29.5641
vn -0.985808 -0.0619315 -0.156038
v -8.63062 9.82626 -29.4647
vn -0.997029 -0.0490431 -0.0594018
v -8.63229 9.84 -29.3647
vn -0.998648 -0.0356824 0.0378063
v -8.62406 9.85411 -29.265
vn -0.990649 -0.021978 0.13465
v -8.60601 9.86842 -29.1667
vn -0.973111 -0.00806191 0.230198
v -8.57832 9.88282 -29.0707
vn -0.9462 0.00593178 0.323528
v -8.54126 9.89716 -28.9779
vn -0.910177 0.0198683 0.413742
v -8.49518 9.9113 -28.8892
vn -0.865389 0.0336136 0.499972
v -8.44052 9.92511 -28.8054
vn -0.812266 0.0470351 0.581387
v -8.37781 9.93846 -28.7274
vn -0.751321 0.0600036 0.657203
v -8.30766 9.95121 -28.6559
vn -0.68314 0.0723943 0.72669
v -8.23074 9.96324 -28.5916
vn -0.60838 0.0840877 0.789178
v -8.14779 9.97444 -28.5351
vn -0.527762 0.0949714 0.844066
v -8.05961 9.98469 -28.487
vn -0.44206 0.10494 0.890826
v -7.96705 9.99391 -28.4477
vn -0.352101 0.113899 0.929006
v -7.871 10.002 -28.4177
vn -0.258752 0.12176 0.958239
v -7.77239 10.0089 -28.3971
vn -0.16291 0.128449 0.978244
v -7.67217 10.0145 -28.3862
vn -0.0654997 0.133901 0.988828
v -7.57129 10.0188 -28.3851
vn 0.0325416 0.138063 0.989889
v -7.47074 10.0217 -28.3938
vn 0.13027 0.140896 0.981416
v -7.29803 7.79788 -28.1797
vn 0.228933 0.0763767 0.970441
v -7.20117 7.79831 -28.2077
vn 0.323212 0.0767991 0.943205
v -7.1075 7.79799 -28.245
vn 0.414379 0.0764819 0.906885
v -7.01794 7.7969 -28.2913
vn 0.501555 0.0754282 0.861832
v -6.93334 7.79507 -28.3461
vn 0.5839 0.073648 0.808478
v -6.85451 7.79252 -28.4089
vn 0.660622 0.0711586 0.747338
v -6.78223 7.78925 -28.4791
vn 0.730982 0.0679838 0.679001
v -6.71717 7.78532 -28.5561
vn 0.794303 0.0641544 0.604125
v -6.65998 7.78075 -28.639
vn 0.849973 0.0597071 0.523431
v -6.61119 7.77559 -28.727
vn 0.897458 0.0546848 0.437696
v -6.57128 7.76989 -28.8195
vn 0.9363 0.0491358 0.347746
v -6.54064 7.7637 -28.9153
vn 0.966125 0.0431137 0.254447
v -6.51956 7.75709 -29.0137
vn 0.986646 0.0366763 0.158697
v -6.50824 7.75011 -29.1136
vn 0.997665 0.0298857 0.0614189
v -6.50679 7.74284 -29.2142
vn 0.999075 0.0228074 -0.0364507
v -6.51523 7.73534 -29.3144
vn 0.990864 0.0155093 -0.133969
v -6.53347 7.72769 -29.4132
vn 0.973111 0.00806191 -0.230198
v -6.56133 7.71996 -29.5098
vn 0.945985 0.000536867 -0.324209
v -6.59856 7.71222 -29.6032
vn 0.90975 -0.00699335 -0.415098
v -6.64479 7.70456 -29.6925
vn 0.864753 -0.0144562 -0.50199
v -6.69958 7.69703 -29.7768
vn 0.811428 -0.0217799 -0.584047
v -6.76239 7.68972 -29.8553
vn 0.750288 -0.0288937 -0.660479
v -6.83263 7.6827 -29.9273
vn 0.681923 -0.0357294 -0.730551
v -6.90962 7.67603 -29.9921
vn 0.606991 -0.0422209 -0.793587
v -6.99261 7.66978 -30.049
vn 0.526213 -0.0483058 -0.84898
v -7.0808 7.66401 -30.0975
vn 0.440367 -0.0539255 -0.896197
v -7.17336 7.65877 -30.1371
vn 0.35028 -0.0590259 -0.934783
v -7.26938 7.65411 -30.1675
vn 0.25682 -0.0635579 -0.964367
v -7.36794 7.65008 -30.1884
vn 0.160886 -0.0674777 -0.984664
v -7.46809 7.64672 -30.1995
vn 0.0634035 -0.0707477 -0.995477
v -7.56888 7.64406 -30.2007
vn -0.03469 -0.0733363 -0.996704
v -7.66931 7.64213 -30.1921
vn -0.132449 -0.0752187 -0.988332
v -7.76844 7.64094 -30.1738
vn -0.228933 -0.0763767 -0.970441
v -7.8653 7.6405 -30.1458
vn -0.323212 -0.0767991 -0.943205
v -7.95897 7.64083 -30.1085
vn -0.414379 -0.0764819 -0.906885
v -8.04853 7.64191 -30.0622
vn -0.501555 -0.0754282 -0.861832
v -8.13313 7.64374 -30.0074
vn -0.5839 -0.073648 -0.808478
v -8.21196 7.6463 -29.9445
vn -0.660622 -0.0711586 -0.747338
v -8.28424 7.64956 -29.8743
vn -0.730982 -0.0679838 -0.679001
v -8.3493 7.6535 -29.7974
vn -0.794303 -0.0641544 -0.604125
v -8.40649 7.65807 -29.7145
vn -0.849973 -0.0597071 -0.523431
v -8.45528 7.66323 -29.6264
vn -0.897458 -0.0546848 -0.437696
v -8.49519 7.66893 -29.534
vn -0.9363 -0.0491358 -0.347746
v -8.52583 7.67511 -29.4381
vn -0.966125 -0.0431137 -0.254447
v -8.54691 7.68173 -29.3398
vn -0.986646 -0.0366763 -0.158697
v -8.55823 7.6887 -29.2398
vn -0.997665 -0.0298857 -0.0614189
v -8.55968 7.69598 -29.1393
vn -0.999075 -0.0228074 0.0364507
v -8.55124 7.70347 -29.0391
vn -0.990864 -0.0155093 0.133969
v -8.533 7.71113 -28.9402
vn -0.973111 -0.00806191 0.230198
v -8.50514 7.71886 -28.8436
vn -0.945985 -0.000536867 0.324209
v -8.46791 7.72659 -28.7503
vn -0.90975 0.00699335 0.415098
v -8.42168 7.73426 -28.661
vn -0.864753 0.0144562 0.50199
v -8.36689 7.74178 -28.5767
vn -0.811428 0.0217799 0.584047
v -8.30408 7.74909 -28.4982
vn -0.750288 0.0288937 0.660479
v -8.23384 7.75612 -28.4262
vn -0.681923 0.0357294 0.730551
v -8.15685 7.76279 -28.3614
vn -0.606991 0.0422209 0.793587
v -8.07386 7.76904 -28.3045
vn -0.526213 0.0483058 0.84898
v -7.98567 7.77481 -28.256
vn -0.440367 0.0539255 0.896197
v -7.89311 7.78005 -28.2163
vn -0.35028 0.0590259 0.934783
v -7.79709 7.78471 -28.1859
vn -0.25682 0.0635579 0.964367
v -7.69853 7.78873 -28.1651
vn -0.160886 0.0674777 0.984664
v -7.59838 7.79209 -28.154
vn -0.0634035 0.0707477 0.995477
v -7.49759 7.79475 -28.1527
vn 0.03469 0.0733363 0.996704
v -7.39716 7.79669 -28.1613
vn 0.132449 0.0752187 0.988332
v -7.25793 5.54064 -28.0893
vn 0.230101 0.0113819 0.9731
v -7.16122 5.54139 -28.1172
vn 0.324374 0.0121173 0.945851
v -7.06771 5.54203 -28.1545
vn 0.415524 0.012736 0.909493
v -6.97831 5.54254 -28.2008
vn 0.502672 0.0132321 0.864376
v -6.89387 5.54292 -28.2556
vn 0.584979 0.0136007 0.810935
v -6.81521 5.54316 -28.3185
vn 0.661652 0.0138383 0.749683
v -6.74309 5.54327 -28.3887
vn 0.731953 0.0139427 0.681212
v -6.6782 5.54324 -28.4657
vn 0.795205 0.0139128 0.606181
v -6.62117 5.54307 -28.5486
vn 0.850799 0.0137489 0.525312
v -6.57254 5.54276 -28.6368
vn 0.898199 0.0134526 0.439383
v -6.53279 5.54233 -28.7293
vn 0.936949 0.0130267 0.349223
v -6.50229 5.54176 -28.8252
vn 0.966676 0.0124754 0.2557
v -6.48135 5.54107 -28.9237
vn 0.987093 0.0118039 0.159715
v -6.47015 5.54027 -29.0237
vn 0.998003 0.0110188 0.0621908
v -6.46882 5.53935 -29.1244
vn 0.999303 0.0101275 -0.0359319
v -6.47736 5.53834 -29.2247
vn 0.990979 0.00913871 -0.133709
v -6.49569 5.53723 -29.3237
vn 0.973111 0.00806191 -0.230198
v -6.52363 5.53605 -29.4204
vn 0.945871 0.00690747 -0.32447
v -6.56092 5.5348 -29.5139
vn 0.909522 0.0056865 -0.415617
v -6.6072 5.53349 -29.6033
vn 0.864414 0.00441077 -0.502761
v -6.66202 5.53214 -29.6878
vn 0.810981 0.00309256 -0.585064
v -6.72484 5.53075 -29.7664
vn 0.749738 0.00174457 -0.661732
v -6.79508 5.52935 -29.8385
vn 0.681275 0.000379775 -0.732028
v -6.87205 5.52795 -29.9034
vn 0.60625 -0.000988676 -0.795273
v -6.955 5.52655 -29.9604
vn 0.525387 -0.0023476 -0.85086
v -7.04315 5.52518 -30.009
vn 0.439464 -0.00368392 -0.898252
v -7.13564 5.52385 -30.0488
vn 0.349309 -0.00498477 -0.936994
v -7.23158 5.52256 -30.0793
vn 0.25579 -0.0062376 -0.966712
v -7.33005 5.52134 -30.1002
vn 0.159808 -0.00743037 -0.98712
v -7.43009 5.52019 -30.1114
vn 0.0622863 -0.00855157 -0.998022
v -7.53075 5.51912 -30.1127
vn -0.0358351 -0.00959042 -0.999312
v -7.63106 5.51815 -30.1042
vn -0.133611 -0.0105369 -0.990978
v -7.73005 5.51729 -30.0858
vn -0.230101 -0.0113819 -0.9731
v -7.82676 5.51653 -30.0579
vn -0.324374 -0.0121173 -0.945851
v -7.92027 5.5159 -30.0206
vn -0.415524 -0.012736 -0.909493
v -8.00967 5.51539 -29.9743
vn -0.502672 -0.0132321 -0.864376
v -8.09411 5.51501 -29.9195
vn -0.584979 -0.0136007 -0.810935
v -8.17277 5.51477 -29.8566
vn -0.661652 -0.0138383 -0.749683
v -8.24489 5.51466 -29.7864
vn -0.731953 -0.0139427 -0.681212
v -8.30978 5.51469 -29.7094
vn -0.795205 -0.0139128 -0.606181
v -8.36681 5.51486 -29.6265
vn -0.850799 -0.0137489 -0.525312
v -8.41544 5.51516 -29.5383
vn -0.898199 -0.0134526 -0.439383
v -8.45519 5.5156 -29.4458
vn -0.936949 -0.0130267 -0.349223
v -8.48569 5.51616 -29.3499
vn -0.966676 -0.0124754 -0.2557
v -8.50663 5.51685 -29.2514
vn -0.987093 -0.0118039 -0.159715
v -8.51783 5.51766 -29.1513
vn -0.998003 -0.0110188 -0.0621908
v -8.51916 5.51857 -29.0507
vn -0.999303 -0.0101275 0.0359319
v -8.51062 5.51959 -28.9504
vn -0.990979 -0.00913871 0.133709
v -8.49229 5.52069 -28.8514
vn -0.973111 -0.00806191 0.230198
v -8.46435 5.52188 -28.7547
vn -0.945871 -0.00690747 0.32447
v -8.42706 5.52313 -28.6612
vn -0.909522 -0.0056865 0.415617
v -8.38078 5.52444 -28.5718
vn -0.864414 -0.00441077 0.502761
v -8.32596 5.52579 -28.4873
vn -0.810981 -0.00309256 0.585064
v -8.26314 5.52717 -28.4087
vn -0.749738 -0.00174457 0.661732
v -8.1929 5.52857 -28.3366
vn -0.681275 -0.000379775 0.732028
v -8.11593 5.52998 -28.2717
vn -0.60625 0.000988676 0.795273
v -8.03298 5.53137 -28.2147
vn -0.525387 0.0023476 0.85086
v -7.94483 5.53274 -28.166
vn -0.439464 0.00368392 0.898252
v -7.85234 5.53408 -28.1263
vn -0.349309 0.00498477 0.936994
v -7.7564 5.53536 -28.0958
vn -0.25579 0.0062376 0.966712
v -7.65793 5.53659 -28.0749
vn -0.159808 0.00743037 0.98712
v -7.55789 5.53774 -28.0637
vn -0.0622863 0.00855157 0.998022
v -7.45723 5.5388 -28.0624
vn 0.0358351 0.00959042 0.999312
v -7.35692 5.53977 -28.0709
vn 0.133611 0.0105369 0.990978
v -7.25112 3.25228 -28.1406
vn 0.230302 -0.051836 0.971738
v -7.15455 3.25335 -28.1685
vn 0.324575 -0.0507962 0.944495
v -7.06118 3.25492 -28.2057
vn 0.415721 -0.0492672 0.908157
v -6.97191 3.25697 -28.2519
vn 0.502865 -0.0472637 0.863072
v -6.88761 3.25949 -28.3066
vn 0.585165 -0.0448051 0.809676
v -6.80908 3.26245 -28.3693
vn 0.66183 -0.0419149 0.748482
v -6.73707 3.26582 -28.4394
vn 0.732121 -0.0386211 0.680079
v -6.67229 3.26958 -28.5161
vn 0.795361 -0.0349554 0.605128
v -6.61535 3.27368 -28.5989
vn 0.850941 -0.030953 0.524348
v -6.56681 3.27808 -28.6868
vn 0.898327 -0.0266525 0.438519
v -6.52713 3.28275 -28.7791
vn 0.937061 -0.0220953 0.348466
v -6.4967 3.28764 -28.8748
vn 0.966771 -0.0173254 0.255058
v -6.4758 3.29269 -28.973
vn 0.98717 -0.0123886 0.159193
v -6.46465 3.29787 -29.0727
vn 0.998062 -0.00733244 0.0617952
v -6.46334 3.30312 -29.1731
vn 0.999342 -0.00220571 -0.0361978
v -6.47188 3.3084 -29.2731
vn 0.990998 0.00294227 -0.133842
v -6.49021 3.31364 -29.3718
vn 0.973111 0.00806191 -0.230198
v -6.51813 3.31881 -29.4683
vn 0.945851 0.0131039 -0.324336
v -6.55539 3.32384 -29.5615
vn 0.909483 0.0180197 -0.415351
v -6.60161 3.3287 -29.6506
vn 0.864356 0.022762 -0.502366
v -6.65637 3.33333 -29.7348
vn 0.810904 0.027285 -0.584543
v -6.71912 3.3377 -29.8132
vn 0.749643 0.0315453 -0.66109
v -6.78927 3.34175 -29.8851
vn 0.681163 0.0355018 -0.731271
v -6.86614 3.34545 -29.9498
vn 0.606122 0.0391164 -0.794409
v -6.94899 3.34877 -30.0066
vn 0.525245 0.0423542 -0.849896
v -7.03702 3.35167 -30.0551
vn 0.439309 0.0451842 -0.897199
v -7.12938 3.35412 -30.0947
vn 0.349142 0.047579 -0.935861
v -7.22519 3.35611 -30.1251
vn 0.255613 0.0495157 -0.96551
v -7.32352 3.3576 -30.1459
vn 0.159622 0.0509754 -0.985861
v -7.42343 3.35859 -30.157
vn 0.0620936 0.0519442 -0.996718
v -7.52395 3.35907 -30.1583
vn -0.0360326 0.0524128 -0.997975
v -7.62411 3.35904 -30.1498
vn -0.133812 0.0523766 -0.989622
v -7.72295 3.35848 -30.1315
vn -0.230302 0.051836 -0.971738
v -7.81952 3.35742 -30.1035
vn -0.324575 0.0507962 -0.944495
v -7.91289 3.35585 -30.0663
vn -0.415721 0.0492672 -0.908157
v -8.00216 3.3538 -30.0201
vn -0.502865 0.0472637 -0.863072
v -8.08647 3.35128 -29.9654
vn -0.585165 0.0448051 -0.809676
v -8.165 3.34832 -29.9028
vn -0.66183 0.0419149 -0.748482
v -8.237 3.34495 -29.8327
vn -0.732121 0.0386211 -0.680079
v -8.30179 3.34119 -29.7559
vn -0.795361 0.0349554 -0.605128
v -8.35872 3.33709 -29.6732
vn -0.850941 0.030953 -0.524348
v -8.40726 3.33269 -29.5852
vn -0.898327 0.0266525 -0.438519
v -8.44694 3.32802 -29.493
vn -0.937061 0.0220953 -0.348466
v -8.47737 3.32313 -29.3973
vn -0.966771 0.0173254 -0.255058
v -8.49827 3.31807 -29.2991
vn -0.98717 0.0123886 -0.159193
v -8.50943 3.3129 -29.1993
vn -0.998062 0.00733244 -0.0617952
v -8.51074 3.30764 -29.0989
vn -0.999342 0.00220571 0.0361978
v -8.50219 3.30237 -28.9989
vn -0.990998 -0.00294227 0.133842
v -8.48387 3.29713 -28.9002
vn -0.973111 -0.00806191 0.230198
v -8.45594 3.29196 -28.8038
vn -0.945851 -0.0131039 0.324336
v -8.41869 3.28693 -28.7106
vn -0.909483 -0.0180197 0.415351
v -8.37246 3.28207 -28.6214
vn -0.864356 -0.022762 0.502366
v -8.31771 3.27743 -28.5372
vn -0.810904 -0.027285 0.584543
v -8.25495 3.27307 -28.4588
vn -0.749643 -0.0315453 0.66109
v -8.1848 3.26902 -28.3869
vn -0.681163 -0.0355018 0.731271
v -8.10793 3.26531 -28.3223
vn -0.606122 -0.0391164 0.794409
v -8.02509 3.262 -28.2654
vn -0.525245 -0.0423542 0.849896
v -7.93705 3.2591 -28.217
vn -0.439309 -0.0451842 0.897199
v -7.84469 3.25665 -28.1774
vn -0.349142 -0.047579 0.935861
v -7.74888 3.25466 -28.147
vn -0.255613 -0.0495157 0.96551
v -7.65055 3.25317 -28.1261
vn -0.159622 -0.0509754 0.985861
v -7.55064 3.25217 -28.115
vn -0.0620936 -0.0519442 0.996718
v -7.45013 3.25169 -28.1137
vn 0.0360326 -0.0524128 0.997975
v -7.34996 3.25173 -28.1223
vn 0.133812 -0.0523766 0.989622
v -7.2775 0.933467 -28.3333
vn 0.229624 -0.112628 0.966741
v -7.18107 0.93483 -28.3612
vn 0.3239 -0.111296 0.939522
v -7.08783 0.93729 -28.3983
vn 0.415056 -0.108891 0.903256
v -6.99868 0.940822 -28.4443
vn 0.502215 -0.105438 0.85829
v -6.91447 0.945393 -28.4987
vn 0.584538 -0.10097 0.805059
v -6.83603 0.950958 -28.5611
vn 0.661231 -0.0955288 0.744075
v -6.76409 0.957464 -28.6308
vn 0.731556 -0.0891679 0.675925
v -6.69937 0.964849 -28.7072
vn 0.794836 -0.0819483 0.601265
v -6.64247 0.973041 -28.7895
vn 0.850462 -0.0739395 0.520815
v -6.59395 0.981961 -28.8769
vn 0.897896 -0.0652186 0.435349
v -6.55428 0.991524 -28.9686
vn 0.936684 -0.0558696 0.34569
v -6.52383 1.00164 -29.0637
vn 0.966451 -0.0459826 0.252702
v -6.5029 1.0122 -29.1613
vn 0.98691 -0.0356527 0.157281
v -6.4917 1.02312 -29.2605
vn 0.997865 -0.0249795 0.0603447
v -6.49032 1.03428 -29.3602
vn 0.99921 -0.0140657 -0.0371726
v -6.49879 1.04559 -29.4596
vn 0.990932 -0.0030164 -0.134332
v -6.51702 1.05692 -29.5576
vn 0.973111 0.00806191 -0.230198
v -6.54483 1.06817 -29.6534
vn 0.945918 0.0190626 -0.323846
v -6.58196 1.07923 -29.746
vn 0.909615 0.0298797 -0.414376
v -6.62806 1.09 -29.8345
vn 0.864552 0.040409 -0.500915
v -6.68267 1.10038 -29.9181
vn 0.811164 0.0505491 -0.582631
v -6.74527 1.11025 -29.996
vn 0.749963 0.0602025 -0.658735
v -6.81525 1.11953 -30.0673
vn 0.68154 0.0692761 -0.728495
v -6.89196 1.12813 -30.1315
vn 0.606553 0.0776825 -0.791239
v -6.97463 1.13596 -30.1879
vn 0.525724 0.0853407 -0.846363
v -7.06249 1.14296 -30.2359
vn 0.439833 0.0921771 -0.893337
v -7.15468 1.14904 -30.2752
vn 0.349706 0.0981258 -0.931707
v -7.25031 1.15416 -30.3053
vn 0.256211 0.103129 -0.961104
v -7.34846 1.15826 -30.3259
vn 0.160249 0.10714 -0.981245
v -7.4482 1.16131 -30.3368
vn 0.0627428 0.110119 -0.991936
v -7.54855 1.16327 -30.338
vn -0.0353672 0.112037 -0.993074
v -7.64856 1.16413 -30.3293
vn -0.133137 0.112876 -0.984649
v -7.74725 1.16387 -30.311
vn -0.229624 0.112628 -0.966741
v -7.84368 1.16251 -30.2832
vn -0.3239 0.111296 -0.939522
v -7.93692 1.16005 -30.2461
vn -0.415056 0.108891 -0.903256
v -8.02608 1.15652 -30.2001
vn -0.502215 0.105438 -0.85829
v -8.11028 1.15195 -30.1456
vn -0.584538 0.10097 -0.805059
v -8.18873 1.14638 -30.0833
vn -0.661231 0.0955288 -0.744075
v -8.26066 1.13988 -30.0136
vn -0.731556 0.0891679 -0.675925
v -8.32539 1.13249 -29.9372
vn -0.794836 0.0819483 -0.601265
v -8.38229 1.1243 -29.8549
vn -0.850462 0.0739395 -0.520815
v -8.4308 1.11538 -29.7675
vn -0.897896 0.0652186 -0.435349
v -8.47048 1.10582 -29.6758
vn -0.936684 0.0558696 -0.34569
v -8.50093 1.0957 -29.5807
vn -0.966451 0.0459826 -0.252702
v -8.52185 1.08514 -29.4831
vn -0.98691 0.0356527 -0.157281
v -8.53306 1.07422 -29.3839
vn -0.997865 0.0249795 -0.0603447
v -8.53443 1.06306 -29.2842
vn -0.99921 0.0140657 0.0371726
v -8.52597 1.05176 -29.1848
vn -0.990932 0.0030164 0.134332
v -8.50774 1.04042 -29.0867
vn -0.973111 -0.00806191 0.230198
v -8.47992 1.02917 -28.9909
vn -0.945918 -0.0190626 0.323846
v -8.44279 1.01811 -28.8983
vn -0.909615 -0.0298797 0.414376
v -8.3967 1.00734 -28.8098
vn -0.864552 -0.040409 0.500915
v -8.34209 0.996966 -28.7262
vn -0.811164 -0.0505491 0.582631
v -8.27949 0.987092 -28.6484
vn -0.749963 -0.0602025 0.658735
v -8.2095 0.977811 -28.577
vn -0.68154 -0.0692761 0.728495
v -8.1328 0.969212 -28.5128
vn -0.606553 -0.0776825 0.791239
v -8.05012 0.961379 -28.4565
vn -0.525724 -0.0853407 0.846363
v -7.96227 0.954386 -28.4084
vn -0.439833 -0.0921771 0.893337
v -7.87008 0.948301 -28.3692
vn -0.349706 -0.0981258 0.931707
v -7.77445 0.943183 -28.3391
vn -0.256211 -0.103129 0.961104
v -7.67629 0.939081 -28.3185
vn -0.160249 -0.10714 0.981245
v -7.57655 0.936034 -28.3076
vn -0.0627428 -0.110119 0.991936
v -7.4762 0.934072 -28.3064
vn 0.0353672 -0.112037 0.993074
v -7.3762 0.933214 -28.315
vn 0.133137 -0.112876 0.984649
v -7.33697 -1.41531 -28.667
vn 0.228172 -0.170494 0.958577
v -7.24067 -1.41367 -28.6947
vn 0.322455 -0.168883 0.931398
v -7.14754 -1.41036 -28.7316
vn 0.413632 -0.165645 0.895249
v -7.05849 -1.40542 -28.7774
vn 0.500826 -0.160812 0.850478
v -6.97436 -1.39891 -28.8315
vn 0.583197 -0.154431 0.797517
v -6.89597 -1.39087 -28.8934
vn 0.659951 -0.146562 0.736875
v -6.82406 -1.38139 -28.9626
vn 0.730349 -0.137282 0.669137
v -6.75935 -1.37056 -29.0383
vn 0.793714 -0.126679 0.594954
v -6.70244 -1.35849 -29.12
vn 0.849435 -0.114857 0.515042
v -6.65388 -1.34528 -29.2066
vn 0.896975 -0.101928 0.43017
v -6.61415 -1.33107 -29.2976
vn 0.935877 -0.0880182 0.341154
v -6.58362 -1.316 -29.3918
vn 0.965766 -0.0732604 0.248854
v -6.56259 -1.30021 -29.4886
vn 0.986355 -0.057797 0.154157
v -6.55127 -1.28385 -29.5868
vn 0.997444 -0.041777 0.0579748
v -6.54975 -1.26707 -29.6856
vn 0.998927 -0.0253547 -0.0387653
v -6.55806 -1.25005 -29.784
vn 0.990789 -0.00868825 -0.135132
v -6.57612 -1.23294 -29.8811
vn 0.973111 0.00806191 -0.230198
v -6.60375 -1.21591 -29.976
vn 0.94606 0.0247344 -0.323046
v -6.64068 -1.19913 -30.0676
vn 0.909898 0.0411687 -0.412783
v -6.68656 -1.18275 -30.1552
vn 0.864974 0.0572066 -0.498545
v -6.74096 -1.16693 -30.2379
vn 0.811719 0.0726935 -0.579506
v -6.80333 -1.15183 -30.3149
vn 0.750647 0.0874803 -0.654886
v -6.87309 -1.13759 -30.3854
vn 0.682346 0.101425 -0.723959
v -6.94956 -1.12434 -30.4489
vn 0.607474 0.114392 -0.78606
v -7.03201 -1.11222 -30.5045
vn 0.526751 0.126258 -0.84059
v -7.11964 -1.10134 -30.552
vn 0.440955 0.136908 -0.887026
v -7.2116 -1.09181 -30.5907
vn 0.350913 0.14624 -0.924918
v -7.30702 -1.08372 -30.6203
vn 0.257491 0.154163 -0.953904
v -7.40497 -1.07715 -30.6405
vn 0.16159 0.160601 -0.973702
v -7.50451 -1.07215 -30.6511
vn 0.0641321 0.165493 -0.984124
v -7.60468 -1.06878 -30.6521
vn -0.0339432 0.168791 -0.985067
v -7.70451 -1.06707 -30.6434
vn -0.131692 0.170463 -0.976524
v -7.80305 -1.06704 -30.6251
vn -0.228172 0.170494 -0.958577
v -7.89935 -1.06869 -30.5973
vn -0.322455 0.168883 -0.931398
v -7.99248 -1.07199 -30.5604
vn -0.413632 0.165645 -0.895249
v -8.08153 -1.07693 -30.5146
vn -0.500826 0.160812 -0.850478
v -8.16566 -1.08345 -30.4606
vn -0.583197 0.154431 -0.797517
v -8.24405 -1.09148 -30.3986
vn -0.659951 0.146562 -0.736875
v -8.31596 -1.10096 -30.3294
vn -0.730349 0.137282 -0.669137
v -8.38067 -1.11179 -30.2537
vn -0.793714 0.126679 -0.594954
v -8.43759 -1.12387 -30.172
vn -0.849435 0.114857 -0.515042
v -8.48614 -1.13707 -30.0854
vn -0.896975 0.101928 -0.43017
v -8.52587 -1.15128 -29.9944
vn -0.935877 0.0880182 -0.341154
v -8.5564 -1.16635 -29.9002
vn -0.965766 0.0732604 -0.248854
v -8.57743 -1.18215 -29.8035
vn -0.986355 0.057797 -0.154157
v -8.58875 -1.19851 -29.7052
vn -0.997444 0.041777 -0.0579748
v -8.59027 -1.21528 -29.6064
vn -0.998927 0.0253547 0.0387653
v -8.58196 -1.2323 -29.508
vn -0.990789 0.00868825 0.135132
v -8.5639 -1.24941 -29.4109
vn -0.973111 -0.00806191 0.230198
v -8.53627 -1.26644 -29.3161
vn -0.94606 -0.0247344 0.323046
v -8.49934 -1.28322 -29.2244
vn -0.909898 -0.0411687 0.412783
v -8.45346 -1.2996 -29.1368
vn -0.864974 -0.0572066 0.498545
v -8.39906 -1.31542 -29.0541
vn -0.811719 -0.0726935 0.579506
v -8.33669 -1.33053 -28.9771
vn -0.750647 -0.0874803 0.654886
v -8.26693 -1.34477 -28.9066
vn -0.682346 -0.101425 0.723959
v -8.19046 -1.35801 -28.8432
vn -0.607474 -0.114392 0.78606
v -8.10801 -1.37013 -28.7875
vn -0.526751 -0.126258 0.84059
v -8.02038 -1.38101 -28.74
vn -0.440955 -0.136908 0.887026
v -7.92842 -1.39054 -28.7013
vn -0.350913 -0.14624 0.924918
v -7.833 -1.39863 -28.6717
vn -0.257491 -0.154163 0.953904
v -7.73505 -1.40521 -28.6515
vn -0.16159 -0.160601 0.973702
v -7.63551 -1.4102 -28.6409
vn -0.0641321 -0.165493 0.984124
v -7.53534 -1.41357 -28.6399
vn 0.0339432 -0.168791 0.985067
v -7.43551 -1.41528 -28.6486
vn 0.131692 -0.170463 0.976524
v -7.42939 -3.79371 -29.1409
vn 0.226063 -0.225087 0.947751
v -7.33322 -3.7918 -29.1686
vn 0.320356 -0.223213 0.920624
v -7.2402 -3.7877 -29.2053
vn 0.411564 -0.219189 0.884631
v -7.15123 -3.78144 -29.2507
vn 0.498808 -0.213054 0.840118
v -7.06715 -3.77309 -29.3044
vn 0.581248 -0.204868 0.787515
v -6.98878 -3.76273 -29.3657
vn 0.658091 -0.194708 0.727327
v -6.91688 -3.75046 -29.4343
vn 0.728596 -0.182674 0.660135
v -6.85213 -3.73639 -29.5093
vn 0.792084 -0.16888 0.586585
v -6.79516 -3.72066 -29.59
vn 0.847944 -0.15346 0.507387
v -6.74652 -3.70343 -29.6758
vn 0.895638 -0.136562 0.423302
v -6.70668 -3.68486 -29.7657
vn 0.934706 -0.118348 0.33514
v -6.67602 -3.66512 -29.8589
vn 0.964772 -0.0989952 0.24375
v -6.65483 -3.64441 -29.9545
vn 0.985548 -0.0786887 0.150014
v -6.64332 -3.62293 -30.0516
vn 0.996831 -0.0576245 0.0548322
v -6.6416 -3.60088 -30.1492
vn 0.998515 -0.0360052 -0.0408774
v -6.64969 -3.57848 -30.2464
vn 0.990583 -0.0140393 -0.136193
v -6.66751 -3.55594 -30.3423
vn 0.973111 0.00806191 -0.230198
v -6.69489 -3.53348 -30.4359
vn 0.946267 0.0300854 -0.321985
v -6.73156 -3.51131 -30.5263
vn 0.91031 0.0518192 -0.410671
v -6.77717 -3.48965 -30.6127
vn 0.865586 0.073054 -0.495403
v -6.83128 -3.46872 -30.6943
vn 0.812526 0.0935852 -0.575363
v -6.89338 -3.4487 -30.7702
vn 0.751641 0.113215 -0.649783
v -6.96285 -3.42979 -30.8397
vn 0.683518 0.131755 -0.717944
v -7.03904 -3.41218 -30.9022
vn 0.608812 0.149025 -0.779192
v -7.12121 -3.39603 -30.957
vn 0.528242 0.164861 -0.832935
v -7.20857 -3.38149 -31.0036
vn 0.442586 0.179109 -0.878657
v -7.30027 -3.36872 -31.0416
vn 0.352667 0.191632 -0.915917
v -7.39544 -3.35783 -31.0706
vn 0.259351 0.202309 -0.944356
v -7.49315 -3.34893 -31.0903
vn 0.163538 0.211038 -0.9637
v -7.59247 -3.3421 -31.1006
vn 0.06615 0.217735 -0.973764
v -7.69244 -3.33741 -31.1013
vn -0.0318751 0.222335 -0.974449
v -7.7921 -3.3349 -31.0924
vn -0.129593 0.224793 -0.96575
v -7.89049 -3.3346 -31.0741
vn -0.226063 0.225087 -0.947751
v -7.98665 -3.33652 -31.0464
vn -0.320356 0.223213 -0.920624
v -8.07967 -3.34062 -31.0097
vn -0.411564 0.219189 -0.884631
v -8.16864 -3.34688 -30.9643
vn -0.498808 0.213054 -0.840118
v -8.25272 -3.35522 -30.9106
vn -0.581248 0.204868 -0.787515
v -8.33109 -3.36559 -30.8493
vn -0.658091 0.194708 -0.727327
v -8.40299 -3.37786 -30.7807
vn -0.728596 0.182674 -0.660135
v -8.46774 -3.39193 -30.7057
vn -0.792084 0.16888 -0.586585
v -8.52471 -3.40765 -30.625
vn -0.847944 0.15346 -0.507387
v -8.57335 -3.42489 -30.5392
vn -0.895638 0.136562 -0.423302
v -8.61319 -3.44346 -30.4493
vn -0.934706 0.118348 -0.33514
v -8.64385 -3.4632 -30.3561
vn -0.964772 0.0989952 -0.24375
v -8.66504 -3.48391 -30.2605
vn -0.985548 0.0786887 -0.150014
v -8.67655 -3.50539 -30.1634
vn -0.996831 0.0576245 -0.0548322
v -8.67827 -3.52744 -30.0658
vn -0.998515 0.0360052 0.0408774
v -8.67018 -3.54984 -29.9686
vn -0.990583 0.0140393 0.136193
v -8.65236 -3.57238 -29.8727
vn -0.973111 -0.00806191 0.230198
v -8.62498 -3.59484 -29.7791
vn -0.946267 -0.0300854 0.321985
v -8.58831 -3.61701 -29.6887
vn -0.91031 -0.0518192 0.410671
v -8.5427 -3.63866 -29.6023
vn -0.865586 -0.073054 0.495403
v -8.48859 -3.6596 -29.5207
vn -0.812526 -0.0935852 0.575363
v -8.42649 -3.67962 -29.4448
vn -0.751641 -0.113215 0.649783
v -8.35702 -3.69853 -29.3753
vn -0.683518 -0.131755 0.717944
v -8.28083 -3.71614 -29.3128
vn -0.608812 -0.149025 0.779192
v -8.19866 -3.73229 -29.258
vn -0.528242 -0.164861 0.832935
v -8.1113 -3.74682 -29.2114
vn -0.442586 -0.179109 0.878657
v -8.0196 -3.75959 -29.1734
vn -0.352667 -0.191632 0.915917
v -7.92443 -3.77048 -29.1444
vn -0.259351 -0.202309 0.944356
v -7.82672 -3.77938 -29.1247
vn -0.163538 -0.211038 0.9637
v -7.7274 -3.78621 -29.1144
vn -0.06615 -0.217735 0.973764
v -7.62743 -3.79091 -29.1137
vn 0.0318751 -0.222335 0.974449
v -7.52777 -3.79341 -29.1226
vn 0.129593 -0.224793 0.96575
v -7.55464 -6.20154 -29.7548
vn 0.223416 -0.276203 0.934771
v -7.45861 -6.19938 -29.7823
vn 0.317722 -0.274083 0.907707
v -7.36569 -6.19454 -29.8188
vn 0.408968 -0.269323 0.8719
v -7.27678 -6.18705 -29.8638
vn 0.496275 -0.26197 0.827697
v -7.19274 -6.17699 -29.9169
vn 0.578803 -0.252093 0.775523
v -7.11437 -6.16446 -29.9777
vn 0.655757 -0.239789 0.71588
v -7.04244 -6.14958 -30.0454
vn 0.726395 -0.225176 0.649343
v -6.97763 -6.13249 -30.1195
vn 0.790038 -0.208394 0.576552
v -6.92057 -6.11336 -30.1993
vn 0.846072 -0.189605 0.498209
v -6.8718 -6.09236 -30.284
vn 0.893958 -0.16899 0.415067
v -6.83181 -6.06971 -30.3727
vn 0.933235 -0.146747 0.327929
v -6.80096 -6.04562 -30.4647
vn 0.963525 -0.123091 0.237632
v -6.77957 -6.02033 -30.559
vn 0.984535 -0.0982502 0.145047
v -6.76783 -5.99407 -30.6547
vn 0.996063 -0.0724628 0.0510644
v -6.76586 -5.96709 -30.7509
vn 0.997999 -0.0459776 -0.0434096
v -6.77367 -5.93967 -30.8467
vn 0.990323 -0.0190496 -0.137466
v -6.7912 -5.91206 -30.9411
vn 0.973111 0.00806191 -0.230198
v -6.81827 -5.88453 -31.0333
vn 0.946526 0.0350957 -0.320713
v -6.85463 -5.85735 -31.1223
vn 0.910826 0.0617916 -0.408139
v -6.89991 -5.83077 -31.2073
vn 0.866354 0.0878923 -0.491635
v -6.9537 -5.80505 -31.2875
vn 0.813539 0.113147 -0.570396
v -7.01546 -5.78045 -31.3621
vn 0.752889 0.137311 -0.643664
v -7.08461 -5.75718 -31.4304
vn 0.684988 0.160154 -0.710733
v -7.16047 -5.73549 -31.4918
vn 0.610491 0.181453 -0.770958
v -7.24232 -5.71558 -31.5455
vn 0.530114 0.201006 -0.823757
v -7.32937 -5.69764 -31.5912
vn 0.444632 0.218622 -0.868624
v -7.42078 -5.68185 -31.6284
vn 0.354867 0.234134 -0.905125
v -7.51567 -5.66835 -31.6567
vn 0.261686 0.24739 -0.932909
v -7.61313 -5.65727 -31.6758
vn 0.165984 0.258264 -0.951709
v -7.71221 -5.64873 -31.6856
vn 0.068683 0.26665 -0.961343
v -7.81197 -5.64281 -31.686
vn -0.029279 0.272469 -0.961719
v -7.91144 -5.63956 -31.677
vn -0.126959 0.275663 -0.952833
v -8.00967 -5.63901 -31.6586
vn -0.223416 0.276203 -0.934771
v -8.1057 -5.64117 -31.631
vn -0.317722 0.274083 -0.907707
v -8.19862 -5.64601 -31.5946
vn -0.408968 0.269323 -0.8719
v -8.28753 -5.6535 -31.5495
vn -0.496275 0.26197 -0.827697
v -8.37157 -5.66356 -31.4964
vn -0.578803 0.252093 -0.775523
v -8.44993 -5.67609 -31.4357
vn -0.655757 0.239789 -0.71588
v -8.52187 -5.69097 -31.3679
vn -0.726395 0.225176 -0.649343
v -8.58668 -5.70806 -31.2938
vn -0.790038 0.208394 -0.576552
v -8.64374 -5.72719 -31.214
vn -0.846072 0.189605 -0.498209
v -8.6925 -5.74819 -31.1293
vn -0.893958 0.16899 -0.415067
v -8.7325 -5.77084 -31.0406
vn -0.933235 0.146747 -0.327929
v -8.76335 -5.79493 -30.9487
vn -0.963525 0.123091 -0.237632
v -8.78474 -5.82022 -30.8544
vn -0.984535 0.0982502 -0.145047
v -8.79648 -5.84648 -30.7587
vn -0.996063 0.0724628 -0.0510644
v -8.79845 -5.87345 -30.6625
vn -0.997999 0.0459776 0.0434096
v -8.79064 -5.90088 -30.5667
vn -0.990323 0.0190496 0.137466
v -8.77311 -5.92848 -30.4723
vn -0.973111 -0.00806191 0.230198
v -8.74604 -5.95601 -30.3801
vn -0.946526 -0.0350957 0.320713
v -8.70968 -5.9832 -30.291
vn -0.910826 -0.0617916 0.408139
v -8.66439 -6.00978 -30.206
vn -0.866354 -0.0878923 0.491635
v -8.61061 -6.0355 -30.1258
vn -0.813539 -0.113147 0.570396
v -8.54885 -6.0601 -30.0512
vn -0.752889 -0.137311 0.643664
v -8.4797 -6.08336 -29.9829
vn -0.684988 -0.160154 0.710733
v -8.40384 -6.10505 -29.9216
vn -0.610491 -0.181453 0.770958
v -8.32199 -6.12497 -29.8678
vn -0.530114 -0.201006 0.823757
v -8.23494 -6.14291 -29.8221
vn -0.444632 -0.218622 0.868624
v -8.14353 -6.1587 -29.7849
vn -0.354867 -0.234134 0.905125
v -8.04864 -6.1722 -29.7567
vn -0.261686 -0.24739 0.932909
v -7.95118 -6.18327 -29.7375
vn -0.165984 -0.258264 0.951709
v -7.8521 -6.19181 -29.7277
vn -0.068683 -0.26665 0.961343
v -7.75234 -6.19774 -29.7273
vn 0.029279 -0.272469 0.961719
v -7.65287 -6.20099 -29.7364
vn 0.126959 -0.275663 0.952833
v -7.71261 -8.63874 -30.5079
vn 0.220345 -0.323766 0.920122
v -7.61671 -8.63635 -30.5354
vn 0.314665 -0.321417 0.893128
v -7.52388 -8.63081 -30.5715
vn 0.405955 -0.315972 0.857532
v -7.43503 -8.62218 -30.6161
vn 0.493336 -0.307484 0.813679
v -7.35101 -8.61054 -30.6687
vn 0.575965 -0.296036 0.761989
v -7.27263 -8.596 -30.7287
vn 0.653048 -0.281736 0.70296
v -7.20065 -8.5787 -30.7956
vn 0.723841 -0.264723 0.637162
v -7.13575 -8.55881 -30.8688
vn 0.787664 -0.24516 0.565228
v -7.07857 -8.53652 -30.9474
vn 0.8439 -0.223236 0.48785
v -7.02965 -8.51204 -31.0309
vn 0.89201 -0.199163 0.405774
v -6.98946 -8.48561 -31.1183
vn 0.931529 -0.173171 0.31979
v -6.9584 -8.45748 -31.2089
vn 0.962077 -0.145512 0.230726
v -6.93676 -8.42794 -31.3017
vn 0.983359 -0.116452 0.13944
v -6.92475 -8.39725 -31.3959
vn 0.995171 -0.0862695 0.0468119
v -6.92248 -8.36571 -31.4906
vn 0.9974 -0.0552566 -0.0462676
v -6.92999 -8.33363 -31.5847
vn 0.990022 -0.0237115 -0.138901
v -6.94718 -8.30133 -31.6776
vn 0.973111 0.00806191 -0.230198
v -6.97391 -8.2691 -31.7682
vn 0.946827 0.0397577 -0.319277
v -7.00991 -8.23726 -31.8556
vn 0.911425 0.0710706 -0.405281
v -7.05483 -8.20611 -31.9391
vn 0.867246 0.101699 -0.487383
v -7.10824 -8.17597 -32.0178
vn 0.814715 0.131348 -0.56479
v -7.16964 -8.1471 -32.091
vn 0.754337 0.159732 -0.636758
v -7.23842 -8.11981 -32.1579
vn 0.686695 0.186578 -0.702594
v -7.31392 -8.09434 -32.218
vn 0.612439 0.211627 -0.761664
v -7.39542 -8.07094 -32.2706
vn 0.532286 0.234638 -0.813398
v -7.48214 -8.04984 -32.3152
vn 0.447006 0.255389 -0.857299
v -7.57323 -8.03124 -32.3515
vn 0.357421 0.27368 -0.892944
v -7.66782 -8.01532 -32.379
vn 0.264394 0.289336 -0.919989
v -7.765 -8.00223 -32.3975
vn 0.168821 0.302206 -0.938174
v -7.86384 -7.99211 -32.4068
vn 0.0716222 0.312165 -0.947324
v -7.96337 -7.98504 -32.4068
vn -0.0262666 0.319118 -0.947351
v -8.06265 -7.98109 -32.3975
vn -0.123902 0.322997 -0.938254
v -8.16072 -7.98031 -32.3791
vn -0.220345 0.323766 -0.920122
v -8.25663 -7.9827 -32.3517
vn -0.314665 0.321417 -0.893128
v -8.34945 -7.98824 -32.3155
vn -0.405955 0.315972 -0.857532
v -8.4383 -7.99687 -32.2709
vn -0.493336 0.307484 -0.813679
v -8.52232 -8.00851 -32.2183
vn -0.575965 0.296036 -0.761989
v -8.6007 -8.02305 -32.1583
vn -0.653048 0.281736 -0.70296
v -8.67269 -8.04035 -32.0914
vn -0.723841 0.264723 -0.637162
v -8.73758 -8.06024 -32.0182
vn -0.787664 0.24516 -0.565228
v -8.79477 -8.08253 -31.9396
vn -0.8439 0.223236 -0.48785
v -8.84368 -8.10701 -31.8561
vn -0.89201 0.199163 -0.405774
v -8.88387 -8.13344 -31.7687
vn -0.931529 0.173171 -0.31979
v -8.91493 -8.16156 -31.6781
vn -0.962077 0.145512 -0.230726
v -8.93657 -8.19111 -31.5853
vn -0.983359 0.116452 -0.13944
v -8.94858 -8.2218 -31.4911
vn -0.995171 0.0862695 -0.0468119
v -8.95085 -8.25334 -31.3965
vn -0.9974 0.0552566 0.0462676
v -8.94335 -8.28541 -31.3023
vn -0.990022 0.0237115 0.138901
v -8.92615 -8.31772 -31.2094
vn -0.973111 -0.00806191 0.230198
v -8.89942 -8.34995 -31.1189
vn -0.946827 -0.0397577 0.319277
v -8.86343 -8.38179 -31.0314
vn -0.911425 -0.0710706 0.405281
v -8.8185 -8.41293 -30.9479
vn -0.867246 -0.101699 0.487383
v -8.76509 -8.44308 -30.8692
vn -0.814715 -0.131348 0.56479
v -8.70369 -8.47194 -30.796
vn -0.754337 -0.159732 0.636758
v -8.63491 -8.49924 -30.7291
vn -0.686695 -0.186578 0.702594
v -8.55941 -8.52471 -30.669
vn -0.612439 -0.211627 0.761664
v -8.47791 -8.54811 -30.6164
vn -0.532286 -0.234638 0.813398
v -8.39119 -8.56921 -30.5718
vn -0.447006 -0.255389 0.857299
v -8.3001 -8.58781 -30.5355
vn -0.357421 -0.27368 0.892944
v -8.20551 -8.60373 -30.508
vn -0.264394 -0.289336 0.919989
v -8.10833 -8.61681 -30.4895
vn -0.168821 -0.302206 0.938174
v -8.00949 -8.62694 -30.4802
vn -0.0716222 -0.312165 0.947324
v -7.90996 -8.63401 -30.4802
vn 0.0262666 -0.319118 0.947351
v -7.81068 -8.63796 -30.4895
vn 0.123902 -0.322997 0.938254
v -7.90319 -11.1053 -31.3999
vn 0.216953 -0.367799 0.904243
v -7.80741 -11.1027 -31.4273
vn 0.31129 -0.365238 0.877325
v -7.71467 -11.0966 -31.4632
vn 0.402629 -0.359159 0.841959
v -7.62587 -11.0869 -31.5073
vn 0.490091 -0.349621 0.798484
v -7.54186 -11.0738 -31.5593
vn 0.572832 -0.336717 0.747319
v -7.46346 -11.0574 -31.6185
vn 0.650057 -0.320569 0.688957
v -7.39141 -11.0379 -31.6845
vn 0.721021 -0.301335 0.62396
v -7.3264 -11.0154 -31.7566
vn 0.785042 -0.279198 0.552953
v -7.26908 -10.9902 -31.8341
vn 0.841502 -0.254373 0.476622
v -7.21998 -10.9625 -31.9163
vn 0.889858 -0.227097 0.3957
v -7.17959 -10.9326 -32.0023
vn 0.929645 -0.197635 0.310968
v -7.14828 -10.9007 -32.0914
vn 0.960478 -0.166269 0.223241
v -7.12637 -10.8673 -32.1826
vn 0.982061 -0.133302 0.133364
v -7.11406 -10.8325 -32.2752
vn 0.994187 -0.0990516 0.0422025
v -7.11147 -10.7967 -32.3681
vn 0.996738 -0.063847 -0.0493654
v -7.11862 -10.7604 -32.4606
vn 0.98969 -0.0280275 -0.140458
v -7.13546 -10.7237 -32.5517
vn 0.973111 0.00806191 -0.230198
v -7.1618 -10.6872 -32.6406
vn 0.94716 0.0440737 -0.31772
v -7.19741 -10.651 -32.7264
vn 0.912087 0.079661 -0.402183
v -7.24194 -10.6157 -32.8082
vn 0.86823 0.114481 -0.482773
v -7.29496 -10.5814 -32.8853
vn 0.816012 0.148199 -0.558714
v -7.35596 -10.5487 -32.9569
vn 0.755936 0.180489 -0.629273
v -7.42434 -10.5176 -33.0224
vn 0.688579 0.211041 -0.693773
v -7.49947 -10.4887 -33.0811
vn 0.614591 0.239561 -0.751591
v -7.5806 -10.4621 -33.1325
vn 0.534684 0.265774 -0.80217
v -7.66696 -10.438 -33.176
vn 0.449628 0.289427 -0.845025
v -7.75771 -10.4169 -33.2112
vn 0.360241 0.310293 -0.879741
v -7.85199 -10.3987 -33.2379
vn 0.267385 0.32817 -0.905985
v -7.94888 -10.3838 -33.2557
vn 0.171954 0.342887 -0.923504
v -8.04746 -10.3722 -33.2644
vn 0.0748676 0.354302 -0.932129
v -8.14676 -10.3641 -33.2641
vn -0.0229403 0.362305 -0.931777
v -8.24584 -10.3595 -33.2546
vn -0.120527 0.366818 -0.922452
v -8.34375 -10.3585 -33.2361
vn -0.216953 0.367799 -0.904243
v -8.43953 -10.3611 -33.2088
vn -0.31129 0.365238 -0.877325
v -8.53227 -10.3672 -33.1729
vn -0.402629 0.359159 -0.841959
v -8.62107 -10.3769 -33.1287
vn -0.490091 0.349621 -0.798484
v -8.70508 -10.39 -33.0768
vn -0.572832 0.336717 -0.747319
v -8.78348 -10.4064 -33.0175
vn -0.650057 0.320569 -0.688957
v -8.85553 -10.426 -32.9515
vn -0.721021 0.301335 -0.62396
v -8.92054 -10.4484 -32.8794
vn -0.785042 0.279198 -0.552953
v -8.97786 -10.4736 -32.8019
vn -0.841502 0.254373 -0.476622
v -9.02696 -10.5013 -32.7198
vn -0.889858 0.227097 -0.3957
v -9.06735 -10.5312 -32.6337
vn -0.929645 0.197635 -0.310968
v -9.09866 -10.5631 -32.5447
vn -0.960478 0.166269 -0.223241
v -9.12057 -10.5966 -32.4534
vn -0.982061 0.133302 -0.133364
v -9.13288 -10.6313 -32.3609
vn -0.994187 0.0990516 -0.0422025
v -9.13547 -10.6671 -32.2679
vn -0.996738 0.063847 0.0493654
v -9.12832 -10.7035 -32.1754
vn -0.98969 0.0280275 0.140458
v -9.11148 -10.7401 -32.0843
vn -0.973111 -0.00806191 0.230198
v -9.08514 -10.7767 -31.9954
vn -0.94716 -0.0440737 0.31772
v -9.04953 -10.8128 -31.9097
vn -0.912087 -0.079661 0.402183
v -9.005 -10.8481 -31.8279
vn -0.86823 -0.114481 0.482773
v -8.95198 -10.8824 -31.7507
vn -0.816012 -0.148199 0.558714
v -8.89098 -10.9152 -31.6791
vn -0.755936 -0.180489 0.629273
v -8.82259 -10.9462 -31.6136
vn -0.688579 -0.211041 0.693773
v -8.74747 -10.9751 -31.5549
vn -0.614591 -0.239561 0.751591
v -8.66634 -11.0018 -31.5036
vn -0.534684 -0.265774 0.80217
v -8.57998 -11.0258 -31.4601
vn -0.449628 -0.289427 0.845025
v -8.48923 -11.047 -31.4248
vn -0.360241 -0.310293 0.879741
v -8.39495 -11.0651 -31.3982
vn -0.267385 -0.32817 0.905985
v -8.29806 -11.08 -31.3804
vn -0.171954 -0.342887 0.923504
v -8.19948 -11.0916 -31.3716
vn -0.0748676 -0.354302 0.932129
v -8.10018 -11.0998 -31.372
vn 0.0229403 -0.362305 0.931777
v -8.0011 -11.1043 -31.3814
vn 0.120527 -0.366818 0.922452
f 1 66 2 
f 1 65 66 
f 2 67 3 
f 2 66 67 
f 3 68 4 
f 3 67 68 
f 4 69 5 
f 4 68 69 
f 5 70 6 
f 5 69 70 
f 6 71 7 
f 6 70 71 
f 7 72 8 
f 7 71 72 
f 8 73 9 
f 8 72 73 
f 9 74 10 
f 9 73 74 
f 10 75 11 
f 10 74 75 
f 11 76 12 
f 11 75 76 
f 12 77 13 
f 12 76 77 
f 13 78 14 
f 13 77 78 
f 14 79 15 
f 14 78 79 
f 15 80 16 
f 15 79 80 
f 16 81 17 
f 16 80 81 
f 17 82 18 
f 17 81 82 
f 18 83 19 
f 18 82 83 
f 19 84 20 
f 19 83 84 
f 20 85 21 
f 20 84 85 
f 21 86 22 
f 21 85 86 
f 22 87 23 
f 22 86 87 
f 23 88 24 
f 23 87 88 
f 24 89 25 
f 24 88 89 
f 25 90 26 
f 25 89 90 
f 26 91 27 
f 26 90 91 
f 27 92 28 
f 27 91 92 
f 28 93 29 
f 28 92 93 
f 29 94 30 
f 29 93 94 
f 30 95 31 
f 30 94 95 
f 31 96 32 
f 31 95 96 
f 32 97 33 
f 32 96 97 
f 33 98 34 
f 33 97 98 
f 34 99 35 
f 34 98 99 
f 35 100 36 
f 35 99 100 
f 36 101 37 
f 36 100 101 
f 37 102 38 
f 37 101 102 
f 38 103 39 
f 38 102 103 
f 39 104 40 
f 39 103 104 
f 40 105 41 
f 40 104 105 
f 41 106 42 
f 41 105 106 
f 42 107 43 
f 42 106 107 
f 43 108 44 
f 43 107 108 
f 44 109 45 
f 44 108 109 
f 45 110 46 
f 45 109 110 
f 46 111 47 
f 46 110 111 
f 47 112 48 
f 47 111 112 
f 48 113 49 
f 48 112 113 
f 49 114 50 
f 49 113 114 
f 50 115 51 
f 50 114 115 
f 51 116 52 
f 51 115 116 
f 52 117 53 
f 52 116 117 
f 53 118 54 
f 53 117 118 
f 54 119 55 
f 54 118 119 
f 55 120 56 
f 55 119 120 
f 56 121 57 
f 56 120 121 
f 57 122 58 
f 57 121 122 
f 58 123 59 
f 58 122 123 
f 59 124 60 
f 59 123 124 
f 60 125 61 
f 60 124 125 
f 61 126 62 
f 61 125 126 
f 62 127 63 
f 62 126 127 
f 63 128 64 
f 63 127 128 
f 64 65 1 
f 64 128 65 
f 65 130 66 
f 65 129 130 
f 66 131 67 
f 66 130 131 
f 67 132 68 
f 67 131 132 
f 68 133 69 
f 68 132 133 
f 69 134 70 
f 69 133 134 
f 70 135 71 
f 70 134 135 
f 71 136 72 
f 71 135 136 
f 72 137 73 
f 72 136 137 
f 73 138 74 
f 73 137 138 
f 74 139 75 
f 74 138 139 
f 75 140 76 
f 75 139 140 
f 76 141 77 
f 76 140 141 
f 77 142 78 
f 77 141 142 
f 78 143 79 
f 78 142 143 
f 79 144 80 
f 79 143 144 
f 80 145 81 
f 80 144 145 
f 81 146 82 
f 81 145 146 
f 82 147 83 
f 82 146 147 
f 83 148 84 
f 83 147 148 
f 84 149 85 
f 84 148 149 
f 85 150 86 
f 85 149 150 
f 86 151 87 
f 86 150 151 
f 87 152 88 
f 87 151 152 
f 88 153 89 
f 88 152 153 
f 89 154 90 
f 89 153 154 
f 90 155 91 
f 90 154 155 
f 91 156 92 
f 91 155 156 
f 92 157 93 
f 92 156 157 
f 93 158 94 
f 93 157 158 
f 94 159 95 
f 94 158 159 
f 95 160 96 
f 95 159 160 
f 96 161 97 
f 96 160 161 
f 97 162 98 
f 97 161 162 
f 98 163 99 
f 98 162 163 
f 99 164 100 
f 99 163 164 
f 100 165 101 
f 100 164 165 
f 101 166 102 
f 101 165 166 
f 102 167 103 
f 102 166 167 
f 103 168 104 
f 103 167 168 
f 104 169 105 
f 104 168 169 
f 105 170 106 
f 105 169 170 
f 106 171 107 
f 106 170 171 
f 107 172 108 
f 107 171 172 
f 108 173 109 
f 108 172 173 
f 109 174 110 
f 109 173 174 
f 110 175 111 
f 110 174 175 
f 111 176 112 
f 111 175 176 
f 112 177 113 
f 112 176 177 
f 113 178 114 
f 113 177 178 
f 114 179 115 
f 114 178 179 
f 115 180 116 
f 115 179 180 
f 116 181 117 
f 116 180 181 
f 117 182 118 
f 117 181 182 
f 118 183 119 
f 118 182 183 
f 119 184 120 
f 119 183 184 
f 120 185 121 
f 120 184 185 
f 121 186 122 
f 121 185 186 
f 122 187 123 
f 122 186 187 
f 123 188 124 
f 123 187 188 
f 124 189 125 
f 124 188 189 
f 125 190 126 
f 125 189 190 
f 126 191 127 
f 126 190 191 
f 127 192 128 
f 127 191 192 
f 128 129 65 
f 128 192 129 
f 129 194 130 
f 129 193 194 
f 130 195 131 
f 130 194 195 
f 131 196 132 
f 131 195 196 
f 132 197 133 
f 132 196 197 
f 133 198 134 
f 133 197 198 
f 134 199 135 
f 134 198 199 
f 135 200 136 
f 135 199 200 
f 136 201 137 
f 136 200 201 
f 137 202 138 
f 137 201 202 
f 138 203 139 
f 138 202 203 
f 139 204 140 
f 139 203 204 
f 140 205 141 
f 140 204 205 
f 141 206 142 
f 141 205 206 
f 142 207 143 
f 142 206 207 
f 143 208 144 
f 143 207 208 
f 144 209 145 
f 144 208 209 
f 145 210 146 
f 145 209 210 
f 146 211 147 
f 146 210 211 
f 147 212 148 
f 147 211 212 
f 148 213 149 
f 148 212 213 
f 149 214 150 
f 149 213 214 
f 150 215 151 
f 150 214 215 
f 151 216 152 
f 151 215 216 
f 152 217 153 
f 152 216 217 
f 153 218 154 
f 153 217 218 
f 154 219 155 
f 154 218 219 
f 155 220 156 
f 155 219 220 
f 156 221 157 
f 156 220 221 
f 157 222 158 
f 157 221 222 
f 158 223 159 
f 158 222 223 
f 159 224 160 
f 159 223 224 
f 160 225 161 
f 160 224 225 
f 161 226 162 
f 161 225 226 
f 162 227 163 
f 162 226 227 
f 163 228 164 
f 163 227 228 
f 164 229 165 
f 164 228 229 
f 165 230 166 
f 165 229 230 
f 166 231 167 
f 166 230 231 
f 167 232 168 
f 167 231 232 
f 168 233 169 
f 168 232 233 
f 169 234 170 
f 169 233 234 
f 170 235 171 
f 170 234 235 
f 171 236 172 
f 171 235 236 
f 172 237 173 
f 172 236 237 
f 173 238 174 
f 173 237 238 
f 174 239 175 
f 174 238 239 
f 175 240 176 
f 175 239 240 
f 176 241 177 
f 176 240 241 
f 177 242 178 
f 177 241 242 
f 178 243 179 
f 178 242 243 
f 179 244 180 
f 179 243 244 
f 180 245 181 
f 180 244 245 
f 181 246 182 
f 181 245 246 
f 182 247 183 
f 182 246 247 
f 183 248 184 
f 183 247 248 
f 184 249 185 
f 184 248 249 
f 185 250 186 
f 185 249 250 
f 186 251 187 
f 186 250 251 
f 187 252 188 
f 187 251 252 
f 188 253 189 
f 188 252 253 
f 189 254 190 
f 189 253 254 
f 190 255 191 
f 190 254 255 
f 191 256 192 
f 191 255 256 
f 192 193 129 
f 192 256 193 
f 193 258 194 
f 193 257 258 
f 194 259 195 
f 194 258 259 
f 195 260 196 
f 195 259 260 
f 196 261 197 
f 196 260 261 
f 197 262 198 
f 197 261 262 
f 198 263 199 
f 198 262 263 
f 199 264 200 
f 199 263 264 
f 200 265 201 
f 200 264 265 
f 201 266 202 
f 201 265 266 
f 202 267 203 
f 202 266 267 
f 203 268 204 
f 203 267 268 
f 204 269 205 
f 204 268 269 
f 205 270 206 
f 205 269 270 
f 206 271 207 
f 206 270 271 
f 207 272 208 
f 207 271 272 
f 208 273 209 
f 208 272 273 
f 209 274 210 
f 209 273 274 
f 210 275 211 
f 210 274 275 
f 211 276 212 
f 211 275 276 
f 212 277 213 
f 212 276 277 
f 213 278 214 
f 213 277 278 
f 214 279 215 
f 214 278 279 
f 215 280 216 
f 215 279 280 
f 216 281 217 
f 216 280 281 
f 217 282 218 
f 217 281 282 
f 218 283 219 
f 218 282 283 
f 219 284 220 
f 219 283 284 
f 220 285 221 
f 220 284 285 
f 221 286 222 
f 221 285 286 
f 222 287 223 
f 222 286 287 
f 223 288 224 
f 223 287 288 
f 224 289 225 
f 224 288 289 
f 225 290 226 
f 225 289 290 
f 226 291 227 
f 226 290 291 
f 227 292 228 
f 227 291 292 
f 228 293 229 
f 228 292 293 
f 229 294 230 
f 229 293 294 
f 230 295 231 
f 230 294 295 
f 231 296 232 
f 231 295 296 
f 232 297 233 
f 232 296 297 
f 233 298 234 
f 233 297 298 
f 234 299 235 
f 234 298 299 
f 235 300 236 
f 235 299 300 
f 236 301 237 
f 236 300 301 
f 237 302 238 
f 237 301 302 
f 238 303 239 
f 238 302 303 
f 239 304 240 
f 239 303 304 
f 240 305 241 
f 240 304 305 
f 241 306 242 
f 241 305 306 
f 242 307 243 
f 242 306 307 
f 243 308 244 
f 243 307 308 
f 244 309 245 
f 244 308 309 
f 245 310 246 
f 245 309 310 
f 246 311 247 
f 246 310 311 
f 247 312 248 
f 247 311 312 
f 248 313 249 
f 248 312 313 
f 249 314 250 
f 249 313 314 
f 250 315 251 
f 250 314 315 
f 251 316 252 
f 251 315 316 
f 252 317 253 
f 252 316 317 
f 253 318 254 
f 253 317 318 
f 254 319 255 
f 254 318 319 
f 255 320 256 
f 255 319 320 
f 256 257 193 
f 256 320 257 
f 257 322 258 
f 257 321 322 
f 258 323 259 
f 258 322 323 
f 259 324 260 
f 259 323 324 
f 260 325 261 
f 260 324 325 
f 261 326 262 
f 261 325 326 
f 262 327 263 
f 262 326 327 
f 263 328 264 
f 263 327 328 
f 264 329 265 
f 264 328 329 
f 265 330 266 
f 265 329 330 
f 266 331 267 
f 266 330 331 
f 267 332 268 
f 267 331 332 
f 268 333 269 
f 268 332 333 
f 269 334 270 
f 269 333 334 
f 270 335 271 
f 270 334 335 
f 271 336 272 
f 271 335 336 
f 272 337 273 
f 272 336 337 
f 273 338 274 
f 273 337 338 
f 274 339 275 
f 274 338 339 
f 275 340 276 
f 275 339 340 
f 276 341 277 
f 276 340 341 
f 277 342 278 
f 277 341 342 
f 278 343 279 
f 278 342 343 
f 279 344 280 
f 279 343 344 
f 280 345 281 
f 280 344 345 
f 281 346 282 
f 281 345 346 
f 282 347 283 
f 282 346 347 
f 283 348 284 
f 283 347 348 
f 284 349 285 
f 284 348 349 
f 285 350 286 
f 285 349 350 
f 286 351 287 
f 286 350 351 
f 287 352 288 
f 287 351 352 
f 288 353 289 
f 288 352 353 
f 289 354 290 
f 289 353 354 
f 290 355 291 
f 290 354 355 
f 291 356 292 
f 291 355 356 
f 292 357 293 
f 292 356 357 
f 293 358 294 
f 293 357 358 
f 294 359 295 
f 294 358 359 
f 295 360 296 
f 295 359 360 
f 296 361 297 
f 296 360 361 
f 297 362 298 
f 297 361 362 
f 298 363 299 
f 298 362 363 
f 299 364 300 
f 299 363 364 
f 300 365 301 
f 300 364 365 
f 301 366 302 
f 301 365 366 
f 302 367 303 
f 302 366 367 
f 303 368 304 
f 303 367 368 
f 304 369 305 
f 304 368 369 
f 305 370 306 
f 305 369 370 
f 306 371 307 
f 306 370 371 
f 307 372 308 
f 307 371 372 
f 308 373 309 
f 308 372 373 
f 309 374 310 
f 309 373 374 
f 310 375 311 
f 310 374 375 
f 311 376 312 
f 311 375 376 
f 312 377 313 
f 312 376 377 
f 313 378 314 
f 313 377 378 
f 314 379 315 
f 314 378 379 
f 315 380 316 
f 315 379 380 
f 316 381 317 
f 316 380 381 
f 317 382 318 
f 317 381 382 
f 318 383 319 
f 318 382 383 
f 319 384 320 
f 319 383 384 
f 320 321 257 
f 320 384 321 
f 321 386 322 
f 321 385 386 
f 322 387 323 
f 322 386 387 
f 323 388 324 
f 323 387 388 
f 324 389 325 
f 324 388 389 
f 325 390 326 
f 325 389 390 
f 326 391 327 
f 326 390 391 
f 327 392 328 
f 327 391 392 
f 328 393 329 
f 328 392 393 
f 329 394 330 
f 329 393 394 
f 330 395 331 
f 330 394 395 
f 331 396 332 
f 331 395 396 
f 332 397 333 
f 332 396 397 
f 333 398 334 
f 333 397 398 
f 334 399 335 
f 334 398 399 
f 335 400 336 
f 335 399 400 
f 336 401 337 
f 336 400 401 
f 337 402 338 
f 337 401 402 
f 338 403 339 
f 338 402 403 
f 339 404 340 
f 339 403 404 
f 340 405 341 
f 340 404 405 
f 341 406 342 
f 341 405 406 
f 342 407 343 
f 342 406 407 
f 343 408 344 
f 343 407 408 
f 344 409 345 
f 344 408 409 
f 345 410 346 
f 345 409 410 
f 346 411 347 
f 346 410 411 
f 347 412 348 
f 347 411 412 
f 348 413 349 
f 348 412 413 
f 349 414 350 
f 349 413 414 
f 350 415 351 
f 350 414 415 
f 351 416 352 
f 351 415 416 
f 352 417 353 
f 352 416 417 
f 353 418 354 
f 353 417 418 
f 354 419 355 
f 354 418 419 
f 355 420 356 
f 355 419 420 
f 356 421 357 
f 356 420 421 
f 357 422 358 
f 357 421 422 
f 358 423 359 
f 358 422 423 
f 359 424 360 
f 359 423 424 
f 360 425 361 
f 360 424 425 
f 361 426 362 
f 361 425 426 
f 362 427 363 
f 362 426 427 
f 363 428 364 
f 363 427 428 
f 364 429 365 
f 364 428 429 
f 365 430 366 
f 365 429 430 
f 366 431 367 
f 366 430 431 
f 367 432 368 
f 367 431 432 
f 368 433 369 
f 368 432 433 
f 369 434 370 
f 369 433 434 
f 370 435 371 
f 370 434 435 
f 371 436 372 
f 371 435 436 
f 372 437 373 
f 372 436 437 
f 373 438 374 
f 373 437 438 
f 374 439 375 
f 374 438 439 
f 375 440 376 
f 375 439 440 
f 376 441 377 
f 376 440 441 
f 377 442 378 
f 377 441 442 
f 378 443 379 
f 378 442 443 
f 379 444 380 
f 379 443 444 
f 380 445 381 
f 380 444 445 
f 381 446 382 
f 381 445 446 
f 382 447 383 
f 382 446 447 
f 383 448 384 
f 383 447 448 
f 384 385 321 
f 384 448 385 
f 385 450 386 
f 385 449 450 
f 386 451 387 
f 386 450 451 
f 387 452 388 
f 387 451 452 
f 388 453 389 
f 388 452 453 
f 389 454 390 
f 389 453 454 
f 390 455 391 
f 390 454 455 
f 391 456 392 
f 391 455 456 
f 392 457 393 
f 392 456 457 
f 393 458 394 
f 393 457 458 
f 394 459 395 
f 394 458 459 
f 395 460 396 
f 395 459 460 
f 396 461 397 
f 396 460 461 
f 397 462 398 
f 397 461 462 
f 398 463 399 
f 398 462 463 
f 399 464 400 
f 399 463 464 
f 400 465 401 
f 400 464 465 
f 401 466 402 
f 401 465 466 
f 402 467 403 
f 402 466 467 
f 403 468 404 
f 403 467 468 
f 404 469 405 
f 404 468 469 
f 405 470 406 
f 405 469 470 
f 406 471 407 
f 406 470 471 
f 407 472 408 
f 407 471 472 
f 408 473 409 
f 408 472 473 
f 409 474 410 
f 409 473 474 
f 410 475 411 
f 410 474 475 
f 411 476 412 
f 411 475 476 
f 412 477 413 
f 412 476 477 
f 413 478 414 
f 413 477 478 
f 414 479 415 
f 414 478 479 
f 415 480 416 
f 415 479 480 
f 416 481 417 
f 416 480 481 
f 417 482 418 
f 417 481 482 
f 418 483 419 
f 418 482 483 
f 419 484 420 
f 419 483 484 
f 420 485 421 
f 420 484 485 
f 421 486 422 
f 421 485 486 
f 422 487 423 
f 422 486 487 
f 423 488 424 
f 423 487 488 
f 424 489 425 
f 424 488 489 
f 425 490 426 
f 425 489 490 
f 426 491 427 
f 426 490 491 
f 427 492 428 
f 427 491 492 
f 428 493 429 
f 428 492 493 
f 429 494 430 
f 429 493 494 
f 430 495 431 
f 430 494 495 
f 431 496 432 
f 431 495 496 
f 432 497 433 
f 432 496 497 
f 433 498 434 
f 433 497 498 
f 434 499 435 
f 434 498 499 
f 435 500 436 
f 435 499 500 
f 436 501 437 
f 436 500 501 
f 437 502 438 
f 437 501 502 
f 438 503 439 
f 438 502 503 
f 439 504 440 
f 439 503 504 
f 440 505 441 
f 440 504 505 
f 441 506 442 
f 441 505 506 
f 442 507 443 
f 442 506 507 
f 443 508 444 
f 443 507 508 
f 444 509 445 
f 444 508 509 
f 445 510 446 
f 445 509 510 
f 446 511 447 
f 446 510 511 
f 447 512 448 
f 447 511 512 
f 448 449 385 
f 448 512 449 
f 449 514 450 
f 449 513 514 
f 450 515 451 
f 450 514 515 
f 451 516 452 
f 451 515 516 
f 452 517 453 
f 452 516 517 
f 453 518 454 
f 453 517 518 
f 454 519 455 
f 454 518 519 
f 455 520 456 
f 455 519 520 
f 456 521 457 
f 456 520 521 
f 457 522 458 
f 457 521 522 
f 458 523 459 
f 458 522 523 
f 459 524 460 
f 459 523 524 
f 460 525 461 
f 460 524 525 
f 461 526 462 
f 461 525 526 
f 462 527 463 
f 462 526 527 
f 463 528 464 
f 463 527 528 
f 464 529 465 
f 464 528 529 
f 465 530 466 
f 465 529 530 
f 466 531 467 
f 466 530 531 
f 467 532 468 
f 467 531 532 
f 468 533 469 
f 468 532 533 
f 469 534 470 
f 469 533 534 
f 470 535 471 
f 470 534 535 
f 471 536 472 
f 471 535 536 
f 472 537 473 
f 472 536 537 
f 473 538 474 
f 473 537 538 
f 474 539 475 
f 474 538 539 
f 475 540 476 
f 475 539 540 
f 476 541 477 
f 476 540 541 
f 477 542 478 
f 477 541 542 
f 478 543 479 
f 478 542 543 
f 479 544 480 
f 479 543 544 
f 480 545 481 
f 480 544 545 
f 481 546 482 
f 481 545 546 
f 482 547 483 
f 482 546 547 
f 483 548 484 
f 483 547 548 
f 484 549 485 
f 484 548 549 
f 485 550 486 
f 485 549 550 
f 486 551 487 
f 486 550 551 
f 487 552 488 
f 487 551 552 
f 488 553 489 
f 488 552 553 
f 489 554 490 
f 489 553 554 
f 490 555 491 
f 490 554 555 
f 491 556 492 
f 491 555 556 
f 492 557 493 
f 492 556 557 
f 493 558 494 
f 493 557 558 
f 494 559 495 
f 494 558 559 
f 495 560 496 
f 495 559 560 
f 496 561 497 
f 496 560 561 
f 497 562 498 
f 497 561 562 
f 498 563 499 
f 498 562 563 
f 499 564 500 
f 499 563 564 
f 500 565 501 
f 500 564 565 
f 501 566 502 
f 501 565 566 
f 502 567 503 
f 502 566 567 
f 503 568 504 
f 503 567 568 
f 504 569 505 
f 504 568 569 
f 505 570 506 
f 505 569 570 
f 506 571 507 
f 506 570 571 
f 507 572 508 
f 507 571 572 
f 508 573 509 
f 508 572 573 
f 509 574 510 
f 509 573 574 
f 510 575 511 
f 510 574 575 
f 511 576 512 
f 511 575 576 
f 512 513 449 
f 512 576 513 
f 513 578 514 
f 513 577 578 
f 514 579 515 
f 514 578 579 
f 515 580 516 
f 515 579 580 
f 516 581 517 
f 516 580 581 
f 517 582 518 
f 517 581 582 
f 518 583 519 
f 518 582 583 
f 519 584 520 
f 519 583 584 
f 520 585 521 
f 520 584 585 
f 521 586 522 
f 521 585 586 
f 522 587 523 
f 522 586 587 
f 523 588 524 
f 523 587 588 
f 524 589 525 
f 524 588 589 
f 525 590 526 
f 525 589 590 
f 526 591 527 
f 526 590 591 
f 527 592 528 
f 527 591 592 
f 528 593 529 
f 528 592 593 
f 529 594 530 
f 529 593 594 
f 530 595 531 
f 530 594 595 
f 531 596 532 
f 531 595 596 
f 532 597 533 
f 532 596 597 
f 533 598 534 
f 533 597 598 
f 534 599 535 
f 534 598 599 
f 535 600 536 
f 535 599 600 
f 536 601 537 
f 536 600 601 
f 537 602 538 
f 537 601 602 
f 538 603 539 
f 538 602 603 
f 539 604 540 
f 539 603 604 
f 540 605 541 
f 540 604 605 
f 541 606 542 
f 541 605 606 
f 542 607 543 
f 542 606 607 
f 543 608 544 
f 543 607 608 
f 544 609 545 
f 544 608 609 
f 545 610 546 
f 545 609 610 
f 546 611 547 
f 546 610 611 
f 547 612 548 
f 547 611 612 
f 548 613 549 
f 548 612 613 
f 549 614 550 
f 549 613 614 
f 550 615 551 
f 550 614 615 
f 551 616 552 
f 551 615 616 
f 552 617 553 
f 552 616 617 
f 553 618 554 
f 553 617 618 
f 554 619 555 
f 554 618 619 
f 555 620 556 
f 555 619 620 
f 556 621 557 
f 556 620 621 
f 557 622 558 
f 557 621 622 
f 558 623 559 
f 558 622 623 
f 559 624 560 
f 559 623 624 
f 560 625 561 
f 560 624 625 
f 561 626 562 
f 561 625 626 
f 562 627 563 
f 562 626 627 
f 563 628 564 
f 563 627 628 
f 564 629 565 
f 564 628 629 
f 565 630 566 
f 565 629 630 
f 566 631 567 
f 566 630 631 
f 567 632 568 
f 567 631 632 
f 568 633 569 
f 568 632 633 
f 569 634 570 
f 569 633 634 
f 570 635 571 
f 570 634 635 
f 571 636 572 
f 571 635 636 
f 572 637 573 
f 572 636 637 
f 573 638 574 
f 573 637 638 
f 574 639 575 
f 574 638 639 
f 575 640 576 
f 575 639 640 
f 576 577 513 
f 576 640 577 
