# Branch
v -6.01823 -2.65892 -27.7377
vn -0.876896 -0.381335 -0.292636
v -6.01074 -2.67397 -27.7378
vn -0.833168 -0.46919 -0.29273
v -6.00188 -2.68823 -27.7373
vn -0.781417 -0.552526 -0.290005
v -5.99174 -2.70159 -27.7363
vn -0.722139 -0.630541 -0.284487
v -5.9804 -2.71391 -27.7349
vn -0.655908 -0.702483 -0.276229
v -5.96798 -2.72507 -27.7331
vn -0.583359 -0.76766 -0.265311
v -5.95459 -2.73496 -27.7307
vn -0.505192 -0.825444 -0.251838
v -5.94038 -2.74349 -27.728
vn -0.422161 -0.875279 -0.23594
v -5.92547 -2.75058 -27.7249
vn -0.335063 -0.916684 -0.217769
v -5.91 -2.75616 -27.7214
vn -0.244739 -0.949261 -0.197501
v -5.89414 -2.76017 -27.7177
vn -0.152057 -0.972696 -0.175331
v -5.87802 -2.76258 -27.7136
vn -0.0579115 -0.986764 -0.151473
v -5.8618 -2.76336 -27.7092
vn 0.036792 -0.991328 -0.126155
v -5.84565 -2.76251 -27.7047
vn 0.131141 -0.986345 -0.099623
v -5.82971 -2.76003 -27.7
vn 0.224227 -0.971864 -0.0721313
v -5.81415 -2.75594 -27.6952
vn 0.315154 -0.948023 -0.043945
v -5.7991 -2.7503 -27.6903
vn 0.403046 -0.915051 -0.0153354
v -5.78472 -2.74315 -27.6853
vn 0.487056 -0.873268 0.0134218
v -5.77114 -2.73455 -27.6804
vn 0.566375 -0.823074 0.0420498
v -5.75849 -2.7246 -27.6756
vn 0.64024 -0.764954 0.0702728
v -5.7469 -2.71339 -27.6709
vn 0.707939 -0.699466 0.097819
v -5.73648 -2.70103 -27.6663
vn 0.768821 -0.627243 0.124423
v -5.72732 -2.68763 -27.662
vn 0.822298 -0.548979 0.149829
v -5.71952 -2.67332 -27.6579
vn 0.867856 -0.465428 0.173792
v -5.71315 -2.65825 -27.6541
vn 0.905056 -0.377394 0.196081
v -5.70828 -2.64256 -27.6506
vn 0.93354 -0.285726 0.216482
v -5.70494 -2.62639 -27.6474
vn 0.953033 -0.191306 0.234798
v -5.70317 -2.60991 -27.6447
vn 0.963348 -0.0950443 0.250853
v -5.70299 -2.59327 -27.6424
vn 0.964385 0.00213306 0.264492
v -5.70441 -2.57664 -27.6405
vn 0.956135 0.0992899 0.275584
v -5.7074 -2.56017 -27.639
vn 0.938677 0.195491 0.284022
v -5.71193 -2.54402 -27.638
vn 0.912179 0.289809 0.289724
v -5.71797 -2.52835 -27.6375
vn 0.876896 0.381335 0.292636
v -5.72546 -2.51331 -27.6375
vn 0.833168 0.46919 0.29273
v -5.73432 -2.49904 -27.638
vn 0.781417 0.552526 0.290005
v -5.74447 -2.48569 -27.6389
vn 0.722139 0.630541 0.284487
v -5.75581 -2.47337 -27.6403
vn 0.655908 0.702483 0.276229
v -5.76823 -2.46221 -27.6422
vn 0.583359 0.76766 0.265311
v -5.78161 -2.45232 -27.6445
vn 0.505192 0.825444 0.251838
v -5.79583 -2.44379 -27.6472
vn 0.422161 0.875279 0.23594
v -5.81074 -2.4367 -27.6504
vn 0.335063 0.916684 0.217769
v -5.8262 -2.43112 -27.6538
vn 0.244739 0.949261 0.197501
v -5.84207 -2.42711 -27.6576
vn 0.152057 0.972696 0.175331
v -5.85819 -2.4247 -27.6617
vn 0.0579115 0.986764 0.151473
v -5.8744 -2.42392 -27.666
vn -0.036792 0.991328 0.126155
v -5.89055 -2.42477 -27.6706
vn -0.131141 0.986345 0.099623
v -5.90649 -2.42725 -27.6753
vn -0.224227 0.971864 0.0721313
v -5.92206 -2.43133 -27.6801
vn -0.315154 0.948023 0.043945
v -5.93711 -2.43698 -27.685
vn -0.403046 0.915051 0.0153354
v -5.95149 -2.44413 -27.6899
vn -0.487056 0.873268 -0.0134218
v -5.96507 -2.45272 -27.6948
vn -0.566375 0.823074 -0.0420498
v -5.97771 -2.46267 -27.6997
vn -0.64024 0.764954 -0.0702728
v -5.9893 -2.47389 -27.7044
vn -0.707939 0.699466 -0.097819
v -5.99973 -2.48625 -27.7089
vn -0.768821 0.627243 -0.124423
v -6.00888 -2.49965 -27.7133
vn -0.822298 0.548979 -0.149829
v -6.01668 -2.51395 -27.7174
vn -0.867856 0.465428 -0.173792
v -6.02305 -2.52903 -27.7212
vn -0.905056 0.377394 -0.196081
v -6.02793 -2.54472 -27.7247
vn -0.93354 0.285726 -0.216482
v -6.03127 -2.56089 -27.7278
vn -0.953033 0.191306 -0.234798
v -6.03303 -2.57737 -27.7306
vn -0.963348 0.0950443 -0.250853
v -6.03321 -2.594 -27.7329
vn -0.964385 -0.00213306 -0.264492
v -6.0318 -2.61064 -27.7348
vn -0.956135 -0.0992899 -0.275584
v -6.02881 -2.62711 -27.7363
vn -0.938677 -0.195491 -0.284022
v -6.02427 -2.64325 -27.7372
vn -0.912179 -0.289809 -0.289724
v -5.79397 -2.54867 -28.4229
vn -0.840545 -0.363496 -0.40169
v -5.78651 -2.56374 -28.4228
vn -0.796992 -0.451437 -0.401259
v -5.77772 -2.57808 -28.422
vn -0.745764 -0.53503 -0.396964
v -5.76771 -2.59152 -28.4207
vn -0.687353 -0.61347 -0.388845
v -5.75656 -2.60396 -28.4186
vn -0.622323 -0.686002 -0.376982
v -5.74438 -2.61526 -28.416
vn -0.5513 -0.751927 -0.361488
v -5.7313 -2.62532 -28.4127
vn -0.474967 -0.810611 -0.342513
v -5.71743 -2.63405 -28.4089
vn -0.39406 -0.861489 -0.320239
v -5.7029 -2.64135 -28.4045
vn -0.309359 -0.90407 -0.294882
v -5.68787 -2.64715 -28.3997
vn -0.221677 -0.937944 -0.266684
v -5.67247 -2.65141 -28.3944
vn -0.131861 -0.962785 -0.235918
v -5.65685 -2.65408 -28.3888
vn -0.0407755 -0.978354 -0.20288
v -5.64117 -2.65514 -28.3828
vn 0.0507031 -0.984501 -0.167888
v -5.62557 -2.65457 -28.3765
vn 0.141693 -0.981167 -0.13128
v -5.6102 -2.65237 -28.37
vn 0.231319 -0.968384 -0.0934066
v -5.59522 -2.64858 -28.3634
vn 0.318717 -0.946274 -0.0546341
v -5.58076 -2.64323 -28.3566
vn 0.403046 -0.915051 -0.0153354
v -5.56697 -2.63637 -28.3499
vn 0.483493 -0.875016 0.0241109
v -5.55398 -2.62806 -28.3431
vn 0.559283 -0.826554 0.0633251
v -5.5419 -2.61838 -28.3365
vn 0.629688 -0.770132 0.101929
v -5.53087 -2.60744 -28.3301
vn 0.694028 -0.706293 0.139552
v -5.52099 -2.59533 -28.3238
vn 0.751685 -0.635652 0.175831
v -5.51234 -2.58217 -28.3179
vn 0.802102 -0.55889 0.210416
v -5.50502 -2.56808 -28.3123
vn 0.844794 -0.476745 0.242975
v -5.4991 -2.55321 -28.3071
vn 0.879351 -0.390008 0.273194
v -5.49463 -2.5377 -28.3024
vn 0.905439 -0.299516 0.300782
v -5.49165 -2.52169 -28.2982
vn 0.922808 -0.206139 0.325473
v -5.49019 -2.50534 -28.2945
vn 0.931289 -0.110777 0.34703
v -5.49028 -2.4888 -28.2914
vn 0.930801 -0.0143482 0.365245
v -5.4919 -2.47225 -28.2888
vn 0.921349 0.0822189 0.379942
v -5.49504 -2.45583 -28.287
vn 0.903024 0.177994 0.39098
v -5.49967 -2.4397 -28.2857
vn 0.876003 0.272055 0.398253
v -5.50575 -2.42402 -28.2851
vn 0.840545 0.363496 0.40169
v -5.51322 -2.40895 -28.2852
vn 0.796992 0.451437 0.401259
v -5.522 -2.39461 -28.2859
vn 0.745764 0.53503 0.396964
v -5.53202 -2.38117 -28.2873
vn 0.687353 0.61347 0.388845
v -5.54317 -2.36873 -28.2894
vn 0.622323 0.686002 0.376982
v -5.55534 -2.35743 -28.292
vn 0.5513 0.751927 0.361488
v -5.56843 -2.34737 -28.2953
vn 0.474967 0.810611 0.342513
v -5.5823 -2.33864 -28.2991
vn 0.39406 0.861489 0.320239
v -5.59682 -2.33134 -28.3034
vn 0.309359 0.90407 0.294882
v -5.61186 -2.32553 -28.3083
vn 0.221677 0.937944 0.266684
v -5.62726 -2.32128 -28.3135
vn 0.131861 0.962785 0.235918
v -5.64287 -2.31861 -28.3192
vn 0.0407755 0.978354 0.20288
v -5.65856 -2.31755 -28.3252
vn -0.0507031 0.984501 0.167888
v -5.67416 -2.31812 -28.3315
vn -0.141693 0.981167 0.13128
v -5.68952 -2.32032 -28.338
vn -0.231319 0.968384 0.0934066
v -5.70451 -2.32411 -28.3446
vn -0.318717 0.946274 0.0546341
v -5.71897 -2.32946 -28.3514
vn -0.403046 0.915051 0.0153354
v -5.73276 -2.33632 -28.3581
vn -0.483493 0.875016 -0.0241109
v -5.74575 -2.34463 -28.3648
vn -0.559283 0.826554 -0.0633251
v -5.75782 -2.35431 -28.3715
vn -0.629688 0.770132 -0.101929
v -5.76885 -2.36525 -28.3779
vn -0.694028 0.706293 -0.139552
v -5.77874 -2.37736 -28.3841
vn -0.751685 0.635652 -0.175831
v -5.78738 -2.39052 -28.3901
vn -0.802102 0.55889 -0.210416
v -5.7947 -2.40461 -28.3956
vn -0.844794 0.476745 -0.242975
v -5.80063 -2.41948 -28.4008
vn -0.879351 0.390008 -0.273194
v -5.8051 -2.43499 -28.4056
vn -0.905439 0.299516 -0.300782
v -5.80808 -2.451 -28.4098
vn -0.922808 0.206139 -0.325473
v -5.80953 -2.46735 -28.4135
vn -0.931289 0.110777 -0.34703
v -5.80945 -2.48388 -28.4166
vn -0.930801 0.0143482 -0.365245
v -5.80783 -2.50044 -28.4191
vn -0.921349 -0.0822189 -0.379942
v -5.80469 -2.51686 -28.421
vn -0.903024 -0.177994 -0.39098
v -5.80005 -2.53299 -28.4223
vn -0.876003 -0.272055 -0.398253
v -5.53445 -2.42537 -28.959
vn -0.764532 -0.327442 -0.555223
v -5.52703 -2.4405 -28.9588
vn -0.721345 -0.415556 -0.554053
v -5.51842 -2.45494 -28.9576
vn -0.671211 -0.499668 -0.547547
v -5.50871 -2.46855 -28.9556
vn -0.614613 -0.578968 -0.535767
v -5.49797 -2.48121 -28.9527
vn -0.552096 -0.652692 -0.518828
v -5.48633 -2.49279 -28.9489
vn -0.484262 -0.720131 -0.496892
v -5.47388 -2.50318 -28.9444
vn -0.411765 -0.780634 -0.470171
v -5.46075 -2.51228 -28.939
vn -0.335301 -0.833619 -0.438922
v -5.44707 -2.52 -28.9329
vn -0.255609 -0.878576 -0.403446
v -5.43296 -2.52626 -28.9261
vn -0.173455 -0.915072 -0.364084
v -5.41857 -2.53101 -28.9188
vn -0.0896308 -0.942755 -0.321216
v -5.40403 -2.53421 -28.9109
vn -0.00494317 -0.961359 -0.275255
v -5.38948 -2.53581 -28.9025
vn 0.0797921 -0.970704 -0.226643
v -5.37506 -2.53581 -28.8938
vn 0.163759 -0.970701 -0.175848
v -5.36092 -2.53421 -28.8848
vn 0.246149 -0.96135 -0.123359
v -5.34718 -2.53101 -28.8756
vn 0.326168 -0.94274 -0.069683
v -5.33398 -2.52626 -28.8663
vn 0.403046 -0.915051 -0.0153354
v -5.32145 -2.51999 -28.8569
vn 0.476042 -0.87855 0.0391598
v -5.3097 -2.51227 -28.8476
vn 0.544454 -0.833588 0.0932779
v -5.29886 -2.50317 -28.8385
vn 0.607622 -0.780598 0.146498
v -5.28901 -2.49278 -28.8296
vn 0.664939 -0.72009 0.198307
v -5.28027 -2.4812 -28.821
vn 0.715852 -0.652648 0.248206
v -5.27272 -2.46855 -28.8129
vn 0.759871 -0.57892 0.295715
v -5.26641 -2.45493 -28.8052
vn 0.796572 -0.499617 0.340375
v -5.26143 -2.44049 -28.7981
vn 0.825602 -0.415502 0.381758
v -5.25781 -2.42536 -28.7916
vn 0.84668 -0.327386 0.419465
v -5.25559 -2.40969 -28.7858
vn 0.859605 -0.236117 0.453131
v -5.25479 -2.39363 -28.7808
vn 0.864251 -0.142574 0.482434
v -5.25543 -2.37733 -28.7766
vn 0.860574 -0.0476577 0.507091
v -5.25748 -2.36096 -28.7732
vn 0.848609 0.0477174 0.526864
v -5.26094 -2.34466 -28.7707
vn 0.828472 0.142633 0.541563
v -5.26576 -2.3286 -28.769
vn 0.800356 0.236175 0.551047
v -5.27192 -2.31293 -28.7683
vn 0.764532 0.327442 0.555223
v -5.27933 -2.2978 -28.7685
vn 0.721345 0.415556 0.554053
v -5.28794 -2.28336 -28.7696
vn 0.671211 0.499668 0.547547
v -5.29766 -2.26974 -28.7716
vn 0.614613 0.578968 0.535767
v -5.30839 -2.25709 -28.7746
vn 0.552096 0.652692 0.518828
v -5.32004 -2.24551 -28.7783
vn 0.484262 0.720131 0.496892
v -5.33248 -2.23512 -28.7829
vn 0.411765 0.780634 0.470171
v -5.34561 -2.22602 -28.7883
vn 0.335301 0.833619 0.438922
v -5.35929 -2.2183 -28.7944
vn 0.255609 0.878576 0.403446
v -5.3734 -2.21204 -28.8011
vn 0.173455 0.915072 0.364084
v -5.38779 -2.20728 -28.8085
vn 0.0896308 0.942755 0.321216
v -5.40233 -2.20409 -28.8164
vn 0.00494317 0.961359 0.275255
v -5.41688 -2.20249 -28.8247
vn -0.0797921 0.970704 0.226643
v -5.4313 -2.20249 -28.8334
vn -0.163759 0.970701 0.175848
v -5.44544 -2.20409 -28.8425
vn -0.246149 0.96135 0.123359
v -5.45918 -2.20729 -28.8517
vn -0.326168 0.94274 0.069683
v -5.47238 -2.21204 -28.861
vn -0.403046 0.915051 0.0153354
v -5.48491 -2.21831 -28.8704
vn -0.476042 0.87855 -0.0391598
v -5.49666 -2.22603 -28.8796
vn -0.544454 0.833588 -0.0932779
v -5.50751 -2.23513 -28.8888
vn -0.607622 0.780598 -0.146498
v -5.51735 -2.24551 -28.8977
vn -0.664939 0.72009 -0.198307
v -5.52609 -2.25709 -28.9063
vn -0.715852 0.652648 -0.248206
v -5.53365 -2.26975 -28.9144
vn -0.759871 0.57892 -0.295715
v -5.53995 -2.28337 -28.9221
vn -0.796572 0.499617 -0.340375
v -5.54493 -2.29781 -28.9292
vn -0.825602 0.415502 -0.381758
v -5.54855 -2.31294 -28.9357
vn -0.84668 0.327386 -0.419465
v -5.55077 -2.32861 -28.9414
vn -0.859605 0.236117 -0.453131
v -5.55157 -2.34467 -28.9465
vn -0.864251 0.142574 -0.482434
v -5.55094 -2.36097 -28.9507
vn -0.860574 0.0476577 -0.507091
v -5.54888 -2.37734 -28.9541
vn -0.848609 -0.0477174 -0.526864
v -5.54542 -2.39364 -28.9566
vn -0.828472 -0.142633 -0.541563
v -5.5406 -2.4097 -28.9582
vn -0.800356 -0.236175 -0.551047
v -5.2317 -2.28552 -29.3467
vn -0.602802 -0.252829 -0.756775
v -5.22441 -2.30073 -29.3463
vn -0.560394 -0.341302 -0.754634
v -5.21619 -2.31538 -29.3447
vn -0.512589 -0.426488 -0.745225
v -5.20712 -2.32932 -29.3419
vn -0.459847 -0.507567 -0.72864
v -5.19729 -2.34242 -29.3378
vn -0.402677 -0.583758 -0.705037
v -5.18679 -2.35455 -29.3326
vn -0.341629 -0.654327 -0.674645
v -5.17573 -2.3656 -29.3262
vn -0.277291 -0.718595 -0.637755
v -5.16421 -2.37546 -29.3188
vn -0.210282 -0.775942 -0.594723
v -5.15234 -2.38404 -29.3105
vn -0.141249 -0.825816 -0.545964
v -5.14024 -2.39125 -29.3012
vn -0.0708548 -0.867737 -0.491947
v -5.12802 -2.39702 -29.2911
vn 0.000221617 -0.901301 -0.433192
v -5.11579 -2.4013 -29.2802
vn 0.0712959 -0.926186 -0.370266
v -5.10369 -2.40404 -29.2688
vn 0.141683 -0.942151 -0.303773
v -5.09182 -2.40523 -29.2569
vn 0.210707 -0.949042 -0.234355
v -5.08031 -2.40484 -29.2446
vn 0.277701 -0.946793 -0.16268
v -5.06925 -2.40289 -29.232
vn 0.34202 -0.935427 -0.0894385
v -5.05875 -2.39938 -29.2192
vn 0.403046 -0.915051 -0.0153354
v -5.04893 -2.39436 -29.2065
vn 0.46019 -0.885864 0.0589153
v -5.03987 -2.38788 -29.1938
vn 0.512902 -0.848145 0.132599
v -5.03165 -2.37999 -29.1813
vn 0.560675 -0.802257 0.205005
v -5.02437 -2.37077 -29.1692
vn 0.603048 -0.748644 0.275437
v -5.01808 -2.36031 -29.1576
vn 0.639613 -0.687821 0.343216
v -5.01285 -2.34872 -29.1465
vn 0.670019 -0.620373 0.407691
v -5.00873 -2.33609 -29.1361
vn 0.693972 -0.546952 0.468238
v -5.00576 -2.32256 -29.1264
vn 0.711241 -0.468262 0.524277
v -5.00397 -2.30826 -29.1177
vn 0.721661 -0.385063 0.575266
v -5.00338 -2.29332 -29.1099
vn 0.725131 -0.298156 0.620715
v -5.00398 -2.27788 -29.1031
vn 0.721618 -0.208377 0.660187
v -5.00578 -2.2621 -29.0974
vn 0.711155 -0.116592 0.6933
v -5.00875 -2.24612 -29.0928
vn 0.693843 -0.0236836 0.719737
v -5.01288 -2.23011 -29.0895
vn 0.669849 0.0694528 0.739242
v -5.01811 -2.21421 -29.0873
vn 0.639404 0.16192 0.751628
v -5.02441 -2.19858 -29.0865
vn 0.602802 0.252829 0.756775
v -5.0317 -2.18337 -29.0868
vn 0.560394 0.341302 0.754634
v -5.03992 -2.16872 -29.0884
vn 0.512589 0.426488 0.745225
v -5.04899 -2.15478 -29.0913
vn 0.459847 0.507567 0.72864
v -5.05882 -2.14168 -29.0954
vn 0.402677 0.583758 0.705037
v -5.06931 -2.12955 -29.1006
vn 0.341629 0.654327 0.674645
v -5.08038 -2.1185 -29.1069
vn 0.277291 0.718595 0.637755
v -5.0919 -2.10864 -29.1143
vn 0.210282 0.775942 0.594723
v -5.10377 -2.10006 -29.1227
vn 0.141249 0.825816 0.545964
v -5.11587 -2.09285 -29.132
vn 0.0708548 0.867737 0.491947
v -5.12809 -2.08708 -29.1421
vn -0.000221617 0.901301 0.433192
v -5.14031 -2.0828 -29.1529
vn -0.0712959 0.926186 0.370266
v -5.15241 -2.08006 -29.1644
vn -0.141683 0.942151 0.303773
v -5.16428 -2.07887 -29.1763
vn -0.210707 0.949042 0.234355
v -5.1758 -2.07926 -29.1886
vn -0.277701 0.946793 0.16268
v -5.18686 -2.08121 -29.2012
vn -0.34202 0.935427 0.0894385
v -5.19735 -2.08472 -29.2139
vn -0.403046 0.915051 0.0153354
v -5.20718 -2.08974 -29.2267
vn -0.46019 0.885864 -0.0589153
v -5.21624 -2.09622 -29.2394
vn -0.512902 0.848145 -0.132599
v -5.22445 -2.10411 -29.2518
vn -0.560675 0.802257 -0.205005
v -5.23174 -2.11333 -29.2639
vn -0.603048 0.748644 -0.275437
v -5.23803 -2.12379 -29.2756
vn -0.639613 0.687821 -0.343216
v -5.24326 -2.13538 -29.2867
vn -0.670019 0.620373 -0.407691
v -5.24737 -2.14801 -29.2971
vn -0.693972 0.546952 -0.468238
v -5.25034 -2.16154 -29.3067
vn -0.711241 0.468262 -0.524277
v -5.25213 -2.17584 -29.3155
vn -0.721661 0.385063 -0.575266
v -5.25273 -2.19079 -29.3233
vn -0.725131 0.298156 -0.620715
v -5.25213 -2.20622 -29.3301
vn -0.721618 0.208377 -0.660187
v -5.25033 -2.222 -29.3358
vn -0.711155 0.116592 -0.6933
v -5.24735 -2.23798 -29.3403
vn -0.693843 0.0236836 -0.719737
v -5.24323 -2.25399 -29.3437
vn -0.669849 -0.0694528 -0.739242
v -5.23799 -2.26989 -29.3458
vn -0.639404 -0.16192 -0.751628
v -4.87605 -2.12503 -29.5759
vn -0.299484 -0.11604 -0.947019
v -4.869 -2.14038 -29.5754
vn -0.258536 -0.205172 -0.943962
v -4.86152 -2.15538 -29.5733
vn -0.215099 -0.292328 -0.931814
v -4.85368 -2.16991 -29.5696
vn -0.16959 -0.376669 -0.910692
v -4.84556 -2.1838 -29.5645
vn -0.122448 -0.457382 -0.8808
v -4.83724 -2.19694 -29.5579
vn -0.0741265 -0.53369 -0.842425
v -4.8288 -2.2092 -29.5499
vn -0.0250913 -0.604859 -0.795937
v -4.82032 -2.22045 -29.5405
vn 0.0241856 -0.670203 -0.741784
v -4.81187 -2.23059 -29.53
vn 0.0732295 -0.729092 -0.680487
v -4.80355 -2.23952 -29.5183
vn 0.121568 -0.780959 -0.612637
v -4.79543 -2.24715 -29.5056
vn 0.168736 -0.825306 -0.538886
v -4.78759 -2.25342 -29.492
vn 0.214279 -0.861704 -0.459946
v -4.7801 -2.25826 -29.4777
vn 0.257758 -0.889804 -0.376576
v -4.77304 -2.26162 -29.4627
vn 0.298755 -0.909334 -0.28958
v -4.76648 -2.26348 -29.4472
vn 0.336875 -0.920107 -0.199795
v -4.76047 -2.26381 -29.4314
vn 0.37175 -0.922019 -0.108086
v -4.75508 -2.26261 -29.4155
vn 0.403046 -0.915051 -0.0153354
v -4.75036 -2.25989 -29.3995
vn 0.430459 -0.899271 0.0775625
v -4.74636 -2.25568 -29.3836
vn 0.453728 -0.874831 0.169713
v -4.7431 -2.25002 -29.368
vn 0.472626 -0.841965 0.26023
v -4.74063 -2.24297 -29.3529
vn 0.486973 -0.800991 0.34824
v -4.73897 -2.23458 -29.3383
vn 0.49663 -0.752302 0.432897
v -4.73813 -2.22495 -29.3244
vn 0.501504 -0.696369 0.513384
v -4.73812 -2.21417 -29.3114
vn 0.501549 -0.633729 0.588928
v -4.73895 -2.20233 -29.2994
vn 0.496763 -0.564986 0.6588
v -4.74059 -2.18956 -29.2885
vn 0.487193 -0.490802 0.722327
v -4.74305 -2.17597 -29.2787
vn 0.472932 -0.411892 0.778897
v -4.74629 -2.1617 -29.2703
vn 0.454115 -0.329014 0.827967
v -4.75028 -2.14688 -29.2632
vn 0.430926 -0.242968 0.869063
v -4.75499 -2.13167 -29.2576
vn 0.403586 -0.154582 0.901789
v -4.76037 -2.11619 -29.2534
vn 0.372359 -0.0647073 0.92583
v -4.76636 -2.10061 -29.2508
vn 0.337547 0.0257905 0.940955
v -4.77291 -2.08507 -29.2498
vn 0.299484 0.11604 0.947019
v -4.77997 -2.06972 -29.2503
vn 0.258536 0.205172 0.943962
v -4.78744 -2.05472 -29.2524
vn 0.215099 0.292328 0.931814
v -4.79528 -2.04019 -29.256
vn 0.16959 0.376669 0.910692
v -4.8034 -2.0263 -29.2612
vn 0.122448 0.457382 0.8808
v -4.81172 -2.01316 -29.2678
vn 0.0741265 0.53369 0.842425
v -4.82016 -2.0009 -29.2758
vn 0.0250913 0.604859 0.795937
v -4.82864 -1.98965 -29.2851
vn -0.0241856 0.670203 0.741784
v -4.83709 -1.97951 -29.2957
vn -0.0732295 0.729092 0.680487
v -4.84541 -1.97058 -29.3073
vn -0.121568 0.780959 0.612637
v -4.85353 -1.96295 -29.32
vn -0.168736 0.825306 0.538886
v -4.86138 -1.95668 -29.3336
vn -0.214279 0.861704 0.459946
v -4.86886 -1.95184 -29.348
vn -0.257758 0.889804 0.376576
v -4.87592 -1.94848 -29.363
vn -0.298755 0.909334 0.28958
v -4.88248 -1.94662 -29.3784
vn -0.336875 0.920107 0.199795
v -4.88849 -1.94629 -29.3942
vn -0.37175 0.922019 0.108086
v -4.89388 -1.94749 -29.4102
vn -0.403046 0.915051 0.0153354
v -4.8986 -1.95021 -29.4262
vn -0.430459 0.899271 -0.0775625
v -4.9026 -1.95442 -29.442
vn -0.453728 0.874831 -0.169713
v -4.90586 -1.96008 -29.4576
vn -0.472626 0.841965 -0.26023
v -4.90833 -1.96713 -29.4728
vn -0.486973 0.800991 -0.34824
v -4.90999 -1.97552 -29.4874
vn -0.49663 0.752302 -0.432897
v -4.91083 -1.98515 -29.5012
vn -0.501504 0.696369 -0.513384
v -4.91084 -1.99593 -29.5142
vn -0.501549 0.633729 -0.588928
v -4.91001 -2.00777 -29.5263
vn -0.496763 0.564986 -0.6588
v -4.90837 -2.02054 -29.5372
vn -0.487193 0.490802 -0.722327
v -4.90591 -2.03413 -29.5469
vn -0.472932 0.411892 -0.778897
v -4.90267 -2.0484 -29.5554
vn -0.454115 0.329014 -0.827967
v -4.89868 -2.06321 -29.5625
vn -0.430926 0.242968 -0.869063
v -4.89397 -2.07843 -29.5681
vn -0.403586 0.154582 -0.901789
v -4.88859 -2.09391 -29.5722
vn -0.372359 0.0647073 -0.92583
v -4.8826 -2.10949 -29.5748
vn -0.337547 -0.0257905 -0.940955
v -4.47741 -1.94864 -29.6239
vn 0.0873125 0.0551274 -0.994654
v -4.47067 -1.96415 -29.6233
vn 0.126397 -0.0348288 -0.991368
v -4.46414 -1.9796 -29.6211
vn 0.164265 -0.12445 -0.978534
v -4.45788 -1.99485 -29.6173
vn 0.200551 -0.212872 -0.956277
v -4.45196 -2.00974 -29.6118
vn 0.234905 -0.299244 -0.92481
v -4.44643 -2.02414 -29.6049
vn 0.266997 -0.382734 -0.884436
v -4.44134 -2.0379 -29.5964
vn 0.296518 -0.462539 -0.835545
v -4.43674 -2.05089 -29.5866
vn 0.323183 -0.537888 -0.778607
v -4.43268 -2.06299 -29.5755
vn 0.346736 -0.608058 -0.714171
v -4.42919 -2.07408 -29.5632
vn 0.366949 -0.672372 -0.642857
v -4.42631 -2.08405 -29.5498
vn 0.383628 -0.73021 -0.565351
v -4.42408 -2.09281 -29.5355
vn 0.396613 -0.781016 -0.482402
v -4.4225 -2.10028 -29.5204
vn 0.405779 -0.824301 -0.394806
v -4.42159 -2.10637 -29.5047
vn 0.411036 -0.859647 -0.303408
v -4.42137 -2.11104 -29.4884
vn 0.412335 -0.886714 -0.209088
v -4.42183 -2.11423 -29.4718
vn 0.409663 -0.905242 -0.112755
v -4.42297 -2.11593 -29.455
vn 0.403046 -0.915051 -0.0153354
v -4.42478 -2.1161 -29.4382
vn 0.392547 -0.916049 0.0822316
v -4.42724 -2.11475 -29.4215
vn 0.378267 -0.908224 0.179007
v -4.43033 -2.11189 -29.4051
vn 0.360345 -0.891652 0.274058
v -4.43402 -2.10755 -29.3892
vn 0.338953 -0.866494 0.36647
v -4.43827 -2.10178 -29.3739
vn 0.314296 -0.83299 0.455352
v -4.44304 -2.09462 -29.3593
vn 0.286612 -0.791465 0.539849
v -4.44829 -2.08614 -29.3456
vn 0.256168 -0.742317 0.619148
v -4.45397 -2.07643 -29.333
vn 0.223257 -0.68602 0.692483
v -4.46001 -2.06559 -29.3215
vn 0.188196 -0.623116 0.75915
v -4.46637 -2.05371 -29.3112
vn 0.151322 -0.554212 0.818505
v -4.47298 -2.04091 -29.3024
vn 0.112992 -0.47997 0.869978
v -4.47978 -2.02731 -29.2949
vn 0.0735727 -0.401106 0.913072
v -4.4867 -2.01304 -29.289
vn 0.0334451 -0.318379 0.947373
v -4.49367 -1.99825 -29.2847
vn -0.00700451 -0.232586 0.972551
v -4.50063 -1.98307 -29.2819
vn -0.0473867 -0.144553 0.988362
v -4.50752 -1.96765 -29.2809
vn -0.0873125 -0.0551274 0.994654
v -4.51426 -1.95214 -29.2814
vn -0.126397 0.0348288 0.991368
v -4.52079 -1.93669 -29.2836
vn -0.164265 0.12445 0.978534
v -4.52704 -1.92144 -29.2875
vn -0.200551 0.212872 0.956277
v -4.53297 -1.90655 -29.2929
vn -0.234905 0.299244 0.92481
v -4.5385 -1.89215 -29.2999
vn -0.266997 0.382734 0.884436
v -4.54359 -1.87839 -29.3083
vn -0.296518 0.462539 0.835545
v -4.54819 -1.8654 -29.3181
vn -0.323183 0.537888 0.778607
v -4.55225 -1.8533 -29.3292
vn -0.346736 0.608058 0.714171
v -4.55574 -1.84221 -29.3415
vn -0.366949 0.672372 0.642857
v -4.55861 -1.83224 -29.3549
vn -0.383628 0.73021 0.565351
v -4.56085 -1.82348 -29.3692
vn -0.396613 0.781016 0.482402
v -4.56243 -1.81601 -29.3843
vn -0.405779 0.824301 0.394806
v -4.56334 -1.80992 -29.4001
vn -0.411036 0.859647 0.303408
v -4.56356 -1.80525 -29.4163
vn -0.412335 0.886714 0.209088
v -4.5631 -1.80206 -29.4329
vn -0.409663 0.905242 0.112755
v -4.56196 -1.80037 -29.4497
vn -0.403046 0.915051 0.0153354
v -4.56015 -1.80019 -29.4665
vn -0.392547 0.916049 -0.0822316
v -4.55769 -1.80154 -29.4832
vn -0.378267 0.908224 -0.179007
v -4.5546 -1.8044 -29.4996
vn -0.360345 0.891652 -0.274058
v -4.55091 -1.80874 -29.5156
vn -0.338953 0.866494 -0.36647
v -4.54666 -1.81452 -29.5309
vn -0.314296 0.83299 -0.455352
v -4.54188 -1.82168 -29.5455
vn -0.286612 0.791465 -0.539849
v -4.53663 -1.83015 -29.5591
vn -0.256168 0.742317 -0.619148
v -4.53096 -1.83986 -29.5718
vn -0.223257 0.68602 -0.692483
v -4.52491 -1.8507 -29.5833
vn -0.188196 0.623116 -0.75915
v -4.51856 -1.86258 -29.5935
vn -0.151322 0.554212 -0.818505
v -4.51195 -1.87539 -29.6024
vn -0.112992 0.47997 -0.869978
v -4.50515 -1.88898 -29.6098
vn -0.0735727 0.401106 -0.913072
v -4.49823 -1.90325 -29.6157
vn -0.0334451 0.318379 -0.947373
v -4.49126 -1.91804 -29.6201
vn 0.00700451 0.232586 -0.972551
v -4.48429 -1.93322 -29.6228
vn 0.0473867 0.144553 -0.988362
v -4.06468 -1.76908 -29.4909
vn 0.389864 0.186832 -0.901721
v -4.05818 -1.78472 -29.4904
vn 0.427492 0.096242 -0.898882
v -4.0524 -1.80052 -29.4884
vn 0.461003 0.00472478 -0.887386
v -4.04738 -1.81633 -29.485
vn 0.490074 -0.086838 -0.867344
v -4.04317 -1.832 -29.4801
vn 0.514426 -0.177564 -0.83895
v -4.03982 -1.84737 -29.4738
vn 0.533824 -0.266581 -0.802476
v -4.03736 -1.8623 -29.4661
vn 0.54808 -0.35303 -0.758273
v -4.03581 -1.87664 -29.4572
vn 0.557058 -0.436079 -0.706768
v -4.03519 -1.89025 -29.4472
vn 0.560672 -0.514929 -0.648456
v -4.0355 -1.90301 -29.436
vn 0.558886 -0.588819 -0.5839
v -4.03673 -1.91479 -29.4239
vn 0.551717 -0.657039 -0.51372
v -4.03889 -1.92548 -29.4109
vn 0.539235 -0.718931 -0.438593
v -4.04194 -1.93497 -29.3972
vn 0.52156 -0.7739 -0.359242
v -4.04586 -1.94317 -29.3829
vn 0.498862 -0.821415 -0.276431
v -4.05061 -1.95001 -29.3682
vn 0.47136 -0.86102 -0.190958
v -4.05614 -1.95542 -29.3531
vn 0.439318 -0.892332 -0.103646
v -4.06241 -1.95934 -29.3379
vn 0.403046 -0.915051 -0.0153354
v -4.06934 -1.96174 -29.3226
vn 0.362892 -0.928958 0.0731225
v -4.07688 -1.9626 -29.3074
vn 0.319243 -0.933918 0.160876
v -4.08494 -1.9619 -29.2925
vn 0.272519 -0.929884 0.247081
v -4.09347 -1.95966 -29.2781
vn 0.223171 -0.916895 0.330905
v -4.10236 -1.95589 -29.2641
vn 0.171674 -0.895075 0.411543
v -4.11154 -1.95064 -29.2509
vn 0.118523 -0.864636 0.488218
v -4.12091 -1.94394 -29.2385
vn 0.0642315 -0.825869 0.560191
v -4.13039 -1.93588 -29.227
vn 0.00932098 -0.779149 0.626769
v -4.13989 -1.92651 -29.2165
vn -0.0456793 -0.724926 0.687311
v -4.14931 -1.91594 -29.2072
vn -0.10024 -0.663721 0.741233
v -4.15856 -1.90427 -29.1991
vn -0.153835 -0.596124 0.788017
v -4.16756 -1.89161 -29.1924
vn -0.205948 -0.522786 0.827212
v -4.17622 -1.87808 -29.187
vn -0.256078 -0.444413 0.858441
v -4.18445 -1.8638 -29.183
vn -0.303742 -0.36176 0.881402
v -4.19217 -1.84893 -29.1805
vn -0.348481 -0.275623 0.895875
v -4.19932 -1.8336 -29.1795
vn -0.389864 -0.186832 0.901721
v -4.20582 -1.81796 -29.18
vn -0.427492 -0.096242 0.898882
v -4.2116 -1.80215 -29.182
vn -0.461003 -0.00472478 0.887386
v -4.21662 -1.78634 -29.1854
vn -0.490074 0.086838 0.867344
v -4.22083 -1.77068 -29.1903
vn -0.514426 0.177564 0.83895
v -4.22418 -1.75531 -29.1966
vn -0.533824 0.266581 0.802476
v -4.22664 -1.74038 -29.2043
vn -0.54808 0.35303 0.758273
v -4.22819 -1.72604 -29.2132
vn -0.557058 0.436079 0.706768
v -4.22881 -1.71243 -29.2232
vn -0.560672 0.514929 0.648456
v -4.2285 -1.69967 -29.2344
vn -0.558886 0.588819 0.5839
v -4.22727 -1.68789 -29.2465
vn -0.551717 0.657039 0.51372
v -4.22511 -1.6772 -29.2595
vn -0.539235 0.718931 0.438593
v -4.22206 -1.66771 -29.2732
vn -0.52156 0.7739 0.359242
v -4.21814 -1.6595 -29.2875
vn -0.498862 0.821415 0.276431
v -4.21339 -1.65266 -29.3022
vn -0.47136 0.86102 0.190958
v -4.20786 -1.64726 -29.3173
vn -0.439318 0.892332 0.103646
v -4.2016 -1.64334 -29.3326
vn -0.403046 0.915051 0.0153354
v -4.19466 -1.64093 -29.3478
vn -0.362892 0.928958 -0.0731225
v -4.18713 -1.64008 -29.363
vn -0.319243 0.933918 -0.160876
v -4.17906 -1.64077 -29.3779
vn -0.272519 0.929884 -0.247081
v -4.17054 -1.64302 -29.3923
vn -0.223171 0.916895 -0.330905
v -4.16164 -1.64678 -29.4063
vn -0.171674 0.895075 -0.411543
v -4.15247 -1.65204 -29.4195
vn -0.118523 0.864636 -0.488218
v -4.14309 -1.65873 -29.4319
vn -0.0642315 0.825869 -0.560191
v -4.13361 -1.6668 -29.4434
vn -0.00932098 0.779149 -0.626769
v -4.12411 -1.67616 -29.4539
vn 0.0456793 0.724926 -0.687311
v -4.11469 -1.68673 -29.4632
vn 0.10024 0.663721 -0.741233
v -4.10544 -1.69841 -29.4713
vn 0.153835 0.596124 -0.788017
v -4.09644 -1.71107 -29.478
vn 0.205948 0.522786 -0.827212
v -4.08778 -1.7246 -29.4834
vn 0.256078 0.444413 -0.858441
v -4.07955 -1.73887 -29.4874
vn 0.303742 0.36176 -0.881402
v -4.07183 -1.75375 -29.4899
vn 0.348481 0.275623 -0.895875
v -3.64477 -1.58906 -29.1961
vn 0.568621 0.263516 -0.779249
v -3.63841 -1.60479 -29.1957
vn 0.605389 0.172556 -0.777
v -3.63306 -1.62081 -29.194
vn 0.636326 0.0799347 -0.767268
v -3.62877 -1.63696 -29.1911
vn 0.661135 -0.0134565 -0.750147
v -3.62558 -1.65308 -29.1868
vn 0.679576 -0.106718 -0.725801
v -3.62353 -1.66903 -29.1814
vn 0.691474 -0.198952 -0.694465
v -3.62262 -1.68465 -29.1749
vn 0.696711 -0.28927 -0.656442
v -3.62288 -1.69978 -29.1672
vn 0.69524 -0.376802 -0.612096
v -3.62429 -1.71429 -29.1585
vn 0.687072 -0.460705 -0.561856
v -3.62684 -1.72803 -29.1489
vn 0.672288 -0.540172 -0.506205
v -3.63052 -1.74088 -29.1384
vn 0.651029 -0.614436 -0.445679
v -3.63528 -1.75269 -29.1272
vn 0.623501 -0.682783 -0.38086
v -3.64108 -1.76338 -29.1154
vn 0.589968 -0.744554 -0.312374
v -3.64786 -1.77282 -29.103
vn 0.550753 -0.799155 -0.240879
v -3.65556 -1.78093 -29.0902
vn 0.506234 -0.84606 -0.167065
v -3.6641 -1.78763 -29.0772
vn 0.45684 -0.884816 -0.0916414
v -3.6734 -1.79286 -29.064
vn 0.403046 -0.915051 -0.0153354
v -3.68337 -1.79656 -29.0508
vn 0.34537 -0.936474 0.0611182
v -3.69392 -1.79871 -29.0377
vn 0.284369 -0.948878 0.136983
v -3.70494 -1.79927 -29.0248
vn 0.220629 -0.952144 0.211529
v -3.71633 -1.79825 -29.0122
vn 0.154764 -0.94624 0.284038
v -3.72798 -1.79565 -29.0002
vn 0.0874083 -0.931224 0.353811
v -3.73977 -1.79151 -28.9887
vn 0.0192112 -0.907239 0.420177
v -3.7516 -1.78585 -28.9779
vn -0.049171 -0.874517 0.482496
v -3.76334 -1.77873 -28.9679
vn -0.11708 -0.833373 0.540169
v -3.77489 -1.77023 -28.9589
vn -0.183861 -0.784203 0.592639
v -3.78613 -1.76042 -28.9508
vn -0.248871 -0.727481 0.639402
v -3.79695 -1.7494 -28.9438
vn -0.311485 -0.663752 0.680007
v -3.80726 -1.73728 -28.9379
vn -0.371099 -0.593632 0.714064
v -3.81695 -1.72416 -28.9332
vn -0.427139 -0.517794 0.741243
v -3.82593 -1.71019 -28.9297
vn -0.479065 -0.43697 0.761284
v -3.83411 -1.69549 -28.9275
vn -0.526378 -0.351938 0.773994
v -3.84142 -1.6802 -28.9266
vn -0.568621 -0.263516 0.779249
v -3.84778 -1.66447 -28.927
vn -0.605389 -0.172556 0.777
v -3.85312 -1.64845 -28.9287
vn -0.636326 -0.0799347 0.767268
v -3.85741 -1.6323 -28.9316
vn -0.661135 0.0134565 0.750147
v -3.8606 -1.61618 -28.9358
vn -0.679576 0.106718 0.725801
v -3.86266 -1.60023 -28.9413
vn -0.691474 0.198952 0.694465
v -3.86357 -1.58461 -28.9478
vn -0.696711 0.28927 0.656442
v -3.86331 -1.56947 -28.9555
vn -0.69524 0.376802 0.612096
v -3.8619 -1.55497 -28.9642
vn -0.687072 0.460705 0.561856
v -3.85934 -1.54123 -28.9738
vn -0.672288 0.540172 0.506205
v -3.85567 -1.52838 -28.9843
vn -0.651029 0.614436 0.445679
v -3.85091 -1.51657 -28.9955
vn -0.623501 0.682783 0.38086
v -3.84511 -1.50588 -29.0073
vn -0.589968 0.744554 0.312374
v -3.83833 -1.49644 -29.0197
vn -0.550753 0.799155 0.240879
v -3.83063 -1.48833 -29.0325
vn -0.506234 0.84606 0.167065
v -3.82209 -1.48163 -29.0455
vn -0.45684 0.884816 0.0916414
v -3.81279 -1.4764 -29.0587
vn -0.403046 0.915051 0.0153354
v -3.80281 -1.4727 -29.0719
vn -0.34537 0.936474 -0.0611182
v -3.79227 -1.47055 -29.085
vn -0.284369 0.948878 -0.136983
v -3.78124 -1.46999 -29.0979
vn -0.220629 0.952144 -0.211529
v -3.76985 -1.47101 -29.1105
vn -0.154764 0.94624 -0.284038
v -3.75821 -1.47361 -29.1225
vn -0.0874083 0.931224 -0.353811
v -3.74642 -1.47775 -29.134
vn -0.0192112 0.907239 -0.420177
v -3.73459 -1.48341 -29.1448
vn 0.049171 0.874517 -0.482496
v -3.72285 -1.49053 -29.1547
vn 0.11708 0.833373 -0.540169
v -3.7113 -1.49903 -29.1638
vn 0.183861 0.784203 -0.592639
v -3.70006 -1.50884 -29.1719
vn 0.248871 0.727481 -0.639402
v -3.68923 -1.51986 -29.1789
vn 0.311485 0.663752 -0.680007
v -3.67892 -1.53198 -29.1848
vn 0.371099 0.593632 -0.714064
v -3.66923 -1.54509 -29.1895
vn 0.427139 0.517794 -0.741243
v -3.66026 -1.55907 -29.193
vn 0.479065 0.43697 -0.761284
v -3.65207 -1.57377 -29.1952
vn 0.526378 0.351938 -0.773994
v -3.20983 -1.405 -28.748
vn 0.669384 0.306182 -0.676888
v -3.20355 -1.42079 -28.7477
vn 0.705666 0.215017 -0.675132
v -3.19844 -1.43693 -28.7463
vn 0.735152 0.121782 -0.666874
v -3.19456 -1.45328 -28.7437
vn 0.757558 0.0273729 -0.652193
v -3.19195 -1.46967 -28.7401
vn 0.772669 -0.0672993 -0.631232
v -3.19062 -1.48595 -28.7354
vn 0.780338 -0.161323 -0.604191
v -3.19059 -1.50196 -28.7297
vn 0.780492 -0.253794 -0.571332
v -3.19187 -1.51755 -28.7231
vn 0.77313 -0.34382 -0.53297
v -3.19443 -1.53257 -28.7155
vn 0.758322 -0.430535 -0.489476
v -3.19826 -1.54687 -28.7072
vn 0.736211 -0.513104 -0.441268
v -3.20332 -1.56031 -28.6981
vn 0.70701 -0.590732 -0.38881
v -3.20955 -1.57277 -28.6884
vn 0.671 -0.66267 -0.332608
v -3.21691 -1.58412 -28.6781
vn 0.628528 -0.728226 -0.273202
v -3.22531 -1.59426 -28.6673
vn 0.580003 -0.786769 -0.211165
v -3.23468 -1.60308 -28.6562
vn 0.525892 -0.837736 -0.147095
v -3.24492 -1.61051 -28.6449
vn 0.466716 -0.880634 -0.0816082
v -3.25595 -1.61647 -28.6334
vn 0.403046 -0.915051 -0.0153354
v -3.26765 -1.6209 -28.6219
vn 0.335494 -0.940656 0.051085
v -3.2799 -1.62377 -28.6105
vn 0.264711 -0.957202 0.117014
v -3.2926 -1.62504 -28.5993
vn 0.191379 -0.96453 0.181815
v -3.30562 -1.6247 -28.5884
vn 0.116204 -0.962568 0.244866
v -3.31883 -1.62275 -28.5779
vn 0.0399092 -0.951337 0.305558
v -3.33211 -1.61922 -28.5679
vn -0.0367695 -0.930943 0.363308
v -3.34533 -1.61414 -28.5585
vn -0.113094 -0.901584 0.417559
v -3.35835 -1.60755 -28.5498
vn -0.188329 -0.863543 0.467788
v -3.37107 -1.59952 -28.5419
vn -0.261751 -0.817185 0.513513
v -3.38334 -1.59013 -28.5348
vn -0.332652 -0.762957 0.554292
v -3.39507 -1.57947 -28.5287
vn -0.400349 -0.701381 0.589733
v -3.40612 -1.56764 -28.5235
vn -0.464191 -0.633051 0.619495
v -3.4164 -1.55475 -28.5194
vn -0.523562 -0.558624 0.64329
v -3.42581 -1.54093 -28.5163
vn -0.577891 -0.478817 0.66089
v -3.43425 -1.52631 -28.5144
vn -0.626655 -0.394399 0.672126
v -3.44165 -1.51104 -28.5136
vn -0.669384 -0.306182 0.676888
v -3.44794 -1.49525 -28.5139
vn -0.705666 -0.215017 0.675132
v -3.45304 -1.47911 -28.5153
vn -0.735152 -0.121782 0.666874
v -3.45692 -1.46276 -28.5178
vn -0.757558 -0.0273729 0.652193
v -3.45954 -1.44636 -28.5215
vn -0.772669 0.0672993 0.631232
v -3.46087 -1.43008 -28.5262
vn -0.780338 0.161323 0.604191
v -3.46089 -1.41407 -28.5318
vn -0.780492 0.253794 0.571332
v -3.45962 -1.39848 -28.5385
vn -0.77313 0.34382 0.53297
v -3.45705 -1.38347 -28.546
vn -0.758322 0.430535 0.489476
v -3.45322 -1.36917 -28.5544
vn -0.736211 0.513104 0.441268
v -3.44817 -1.35573 -28.5634
vn -0.70701 0.590732 0.38881
v -3.44193 -1.34327 -28.5732
vn -0.671 0.66267 0.332608
v -3.43458 -1.33192 -28.5835
vn -0.628528 0.728226 0.273202
v -3.42618 -1.32178 -28.5942
vn -0.580003 0.786769 0.211165
v -3.41681 -1.31295 -28.6053
vn -0.525892 0.837736 0.147095
v -3.40656 -1.30553 -28.6166
vn -0.466716 0.880634 0.0816082
v -3.39553 -1.29957 -28.6281
vn -0.403046 0.915051 0.0153354
v -3.38384 -1.29513 -28.6396
vn -0.335494 0.940656 -0.051085
v -3.37158 -1.29227 -28.651
vn -0.264711 0.957202 -0.117014
v -3.35888 -1.291 -28.6623
vn -0.191379 0.96453 -0.181815
v -3.34586 -1.29134 -28.6732
vn -0.116204 0.962568 -0.244866
v -3.33265 -1.29328 -28.6837
vn -0.0399092 0.951337 -0.305558
v -3.31937 -1.29681 -28.6937
vn 0.0367695 0.930943 -0.363308
v -3.30616 -1.3019 -28.7031
vn 0.113094 0.901584 -0.417559
v -3.29313 -1.30849 -28.7118
vn 0.188329 0.863543 -0.467788
v -3.28042 -1.31651 -28.7197
vn 0.261751 0.817185 -0.513513
v -3.26814 -1.3259 -28.7268
vn 0.332652 0.762957 -0.554292
v -3.25642 -1.33657 -28.7329
vn 0.400349 0.701381 -0.589733
v -3.24536 -1.3484 -28.738
vn 0.464191 0.633051 -0.619495
v -3.23508 -1.36129 -28.7422
vn 0.523562 0.558624 -0.64329
v -3.22567 -1.37511 -28.7452
vn 0.577891 0.478817 -0.66089
v -3.21723 -1.38972 -28.7472
vn 0.626655 0.394399 -0.672126
v -2.75353 -1.21408 -28.1474
vn 0.729007 0.33114 -0.599079
v -2.74729 -1.22991 -28.1472
vn 0.765002 0.239855 -0.597697
v -2.74233 -1.24614 -28.1459
vn 0.793629 0.14626 -0.59056
v -2.73869 -1.26262 -28.1437
vn 0.814614 0.0512558 -0.577734
v -2.73641 -1.27917 -28.1405
vn 0.827753 -0.0442415 -0.559345
v -2.73551 -1.29566 -28.1364
vn 0.832921 -0.139313 -0.53557
v -2.73601 -1.31191 -28.1314
vn 0.830067 -0.233042 -0.506636
v -2.73789 -1.32778 -28.1255
vn 0.819219 -0.324528 -0.472823
v -2.74114 -1.3431 -28.1188
vn 0.800482 -0.412888 -0.434457
v -2.74572 -1.35773 -28.1115
vn 0.774035 -0.497271 -0.391906
v -2.7516 -1.37153 -28.1034
vn 0.740135 -0.576866 -0.345581
v -2.75872 -1.38437 -28.0948
vn 0.699106 -0.650905 -0.295929
v -2.767 -1.39613 -28.0857
vn 0.651344 -0.718675 -0.243426
v -2.77637 -1.40668 -28.0762
vn 0.59731 -0.779525 -0.188579
v -2.78674 -1.41593 -28.0664
vn 0.537523 -0.832867 -0.131915
v -2.798 -1.42379 -28.0563
vn 0.47256 -0.878188 -0.0739816
v -2.81005 -1.43018 -28.0462
vn 0.403046 -0.915051 -0.0153354
v -2.82278 -1.43504 -28.036
vn 0.32965 -0.943103 0.0434584
v -2.83606 -1.43833 -28.0258
vn 0.253079 -0.962071 0.101834
v -2.84976 -1.44001 -28.0159
vn 0.174071 -0.971774 0.159228
v -2.86375 -1.44007 -28.0062
vn 0.0933869 -0.972119 0.215089
v -2.8779 -1.43851 -27.9969
vn 0.0118032 -0.963102 0.268879
v -2.89206 -1.43534 -27.988
vn -0.0698942 -0.944809 0.320079
v -2.90612 -1.43059 -27.9797
vn -0.150918 -0.917417 0.368197
v -2.91991 -1.42431 -27.9719
vn -0.230489 -0.88119 0.412769
v -2.93333 -1.41655 -27.9649
vn -0.30784 -0.836477 0.453366
v -2.94623 -1.4074 -27.9586
vn -0.382227 -0.783708 0.489596
v -2.95849 -1.39694 -27.9531
vn -0.452932 -0.723392 0.521111
v -2.96999 -1.38528 -27.9485
vn -0.519275 -0.656108 0.547608
v -2.98063 -1.37251 -27.9449
vn -0.580618 -0.582507 0.568831
v -2.99029 -1.35878 -27.9421
vn -0.636369 -0.503295 0.584576
v -2.9989 -1.3442 -27.9404
vn -0.685991 -0.419236 0.594691
v -3.00636 -1.32892 -27.9396
vn -0.729007 -0.33114 0.599079
v -3.0126 -1.3131 -27.9399
vn -0.765002 -0.239855 0.597697
v -3.01756 -1.29687 -27.9411
vn -0.793629 -0.14626 0.59056
v -3.0212 -1.28039 -27.9433
vn -0.814614 -0.0512558 0.577734
v -3.02348 -1.26383 -27.9465
vn -0.827753 0.0442415 0.559345
v -3.02438 -1.24735 -27.9506
vn -0.832921 0.139313 0.53557
v -3.02388 -1.23109 -27.9557
vn -0.830067 0.233042 0.506636
v -3.022 -1.21523 -27.9615
vn -0.819219 0.324528 0.472823
v -3.01875 -1.19991 -27.9682
vn -0.800482 0.412888 0.434457
v -3.01417 -1.18527 -27.9755
vn -0.774035 0.497271 0.391906
v -3.00829 -1.17147 -27.9836
vn -0.740135 0.576866 0.345581
v -3.00117 -1.15863 -27.9922
vn -0.699106 0.650905 0.295929
v -2.99289 -1.14688 -28.0013
vn -0.651344 0.718675 0.243426
v -2.98352 -1.13633 -28.0108
vn -0.59731 0.779525 0.188579
v -2.97315 -1.12708 -28.0206
vn -0.537523 0.832867 0.131915
v -2.96189 -1.11922 -28.0307
vn -0.47256 0.878188 0.0739816
v -2.94984 -1.11283 -28.0408
vn -0.403046 0.915051 0.0153354
v -2.93711 -1.10796 -28.051
vn -0.32965 0.943103 -0.0434584
v -2.92383 -1.10467 -28.0612
vn -0.253079 0.962071 -0.101834
v -2.91013 -1.10299 -28.0711
vn -0.174071 0.971774 -0.159228
v -2.89614 -1.10293 -28.0808
vn -0.0933869 0.972119 -0.215089
v -2.88199 -1.1045 -28.0901
vn -0.0118032 0.963102 -0.268879
v -2.86782 -1.10767 -28.099
vn 0.0698942 0.944809 -0.320079
v -2.85377 -1.11242 -28.1074
vn 0.150918 0.917417 -0.368197
v -2.83998 -1.1187 -28.1151
vn 0.230489 0.88119 -0.412769
v -2.82656 -1.12645 -28.1221
vn 0.30784 0.836477 -0.453366
v -2.81366 -1.1356 -28.1284
vn 0.382227 0.783708 -0.489596
v -2.8014 -1.14606 -28.1339
vn 0.452932 0.723392 -0.521111
v -2.7899 -1.15773 -28.1385
vn 0.519275 0.656108 -0.547608
v -2.77926 -1.17049 -28.1421
vn 0.580618 0.582507 -0.568831
v -2.7696 -1.18423 -28.1449
vn 0.636369 0.503295 -0.584576
v -2.76099 -1.19881 -28.1466
vn 0.685991 0.419236 -0.594691
f 1 66 2 
f 1 65 66 
f 2 67 3 
f 2 66 67 
f 3 68 4 
f 3 67 68 
f 4 69 5 
f 4 68 69 
f 5 70 6 
f 5 69 70 
f 6 71 7 
f 6 70 71 
f 7 72 8 
f 7 71 72 
f 8 73 9 
f 8 72 73 
f 9 74 10 
f 9 73 74 
f 10 75 11 
f 10 74 75 
f 11 76 12 
f 11 75 76 
f 12 77 13 
f 12 76 77 
f 13 78 14 
f 13 77 78 
f 14 79 15 
f 14 78 79 
f 15 80 16 
f 15 79 80 
f 16 81 17 
f 16 80 81 
f 17 82 18 
f 17 81 82 
f 18 83 19 
f 18 82 83 
f 19 84 20 
f 19 83 84 
f 20 85 21 
f 20 84 85 
f 21 86 22 
f 21 85 86 
f 22 87 23 
f 22 86 87 
f 23 88 24 
f 23 87 88 
f 24 89 25 
f 24 88 89 
f 25 90 26 
f 25 89 90 
f 26 91 27 
f 26 90 91 
f 27 92 28 
f 27 91 92 
f 28 93 29 
f 28 92 93 
f 29 94 30 
f 29 93 94 
f 30 95 31 
f 30 94 95 
f 31 96 32 
f 31 95 96 
f 32 97 33 
f 32 96 97 
f 33 98 34 
f 33 97 98 
f 34 99 35 
f 34 98 99 
f 35 100 36 
f 35 99 100 
f 36 101 37 
f 36 100 101 
f 37 102 38 
f 37 101 102 
f 38 103 39 
f 38 102 103 
f 39 104 40 
f 39 103 104 
f 40 105 41 
f 40 104 105 
f 41 106 42 
f 41 105 106 
f 42 107 43 
f 42 106 107 
f 43 108 44 
f 43 107 108 
f 44 109 45 
f 44 108 109 
f 45 110 46 
f 45 109 110 
f 46 111 47 
f 46 110 111 
f 47 112 48 
f 47 111 112 
f 48 113 49 
f 48 112 113 
f 49 114 50 
f 49 113 114 
f 50 115 51 
f 50 114 115 
f 51 116 52 
f 51 115 116 
f 52 117 53 
f 52 116 117 
f 53 118 54 
f 53 117 118 
f 54 119 55 
f 54 118 119 
f 55 120 56 
f 55 119 120 
f 56 121 57 
f 56 120 121 
f 57 122 58 
f 57 121 122 
f 58 123 59 
f 58 122 123 
f 59 124 60 
f 59 123 124 
f 60 125 61 
f 60 124 125 
f 61 126 62 
f 61 125 126 
f 62 127 63 
f 62 126 127 
f 63 128 64 
f 63 127 128 
f 64 65 1 
f 64 128 65 
f 65 130 66 
f 65 129 130 
f 66 131 67 
f 66 130 131 
f 67 132 68 
f 67 131 132 
f 68 133 69 
f 68 132 133 
f 69 134 70 
f 69 133 134 
f 70 135 71 
f 70 134 135 
f 71 136 72 
f 71 135 136 
f 72 137 73 
f 72 136 137 
f 73 138 74 
f 73 137 138 
f 74 139 75 
f 74 138 139 
f 75 140 76 
f 75 139 140 
f 76 141 77 
f 76 140 141 
f 77 142 78 
f 77 141 142 
f 78 143 79 
f 78 142 143 
f 79 144 80 
f 79 143 144 
f 80 145 81 
f 80 144 145 
f 81 146 82 
f 81 145 146 
f 82 147 83 
f 82 146 147 
f 83 148 84 
f 83 147 148 
f 84 149 85 
f 84 148 149 
f 85 150 86 
f 85 149 150 
f 86 151 87 
f 86 150 151 
f 87 152 88 
f 87 151 152 
f 88 153 89 
f 88 152 153 
f 89 154 90 
f 89 153 154 
f 90 155 91 
f 90 154 155 
f 91 156 92 
f 91 155 156 
f 92 157 93 
f 92 156 157 
f 93 158 94 
f 93 157 158 
f 94 159 95 
f 94 158 159 
f 95 160 96 
f 95 159 160 
f 96 161 97 
f 96 160 161 
f 97 162 98 
f 97 161 162 
f 98 163 99 
f 98 162 163 
f 99 164 100 
f 99 163 164 
f 100 165 101 
f 100 164 165 
f 101 166 102 
f 101 165 166 
f 102 167 103 
f 102 166 167 
f 103 168 104 
f 103 167 168 
f 104 169 105 
f 104 168 169 
f 105 170 106 
f 105 169 170 
f 106 171 107 
f 106 170 171 
f 107 172 108 
f 107 171 172 
f 108 173 109 
f 108 172 173 
f 109 174 110 
f 109 173 174 
f 110 175 111 
f 110 174 175 
f 111 176 112 
f 111 175 176 
f 112 177 113 
f 112 176 177 
f 113 178 114 
f 113 177 178 
f 114 179 115 
f 114 178 179 
f 115 180 116 
f 115 179 180 
f 116 181 117 
f 116 180 181 
f 117 182 118 
f 117 181 182 
f 118 183 119 
f 118 182 183 
f 119 184 120 
f 119 183 184 
f 120 185 121 
f 120 184 185 
f 121 186 122 
f 121 185 186 
f 122 187 123 
f 122 186 187 
f 123 188 124 
f 123 187 188 
f 124 189 125 
f 124 188 189 
f 125 190 126 
f 125 189 190 
f 126 191 127 
f 126 190 191 
f 127 192 128 
f 127 191 192 
f 128 129 65 
f 128 192 129 
f 129 194 130 
f 129 193 194 
f 130 195 131 
f 130 194 195 
f 131 196 132 
f 131 195 196 
f 132 197 133 
f 132 196 197 
f 133 198 134 
f 133 197 198 
f 134 199 135 
f 134 198 199 
f 135 200 136 
f 135 199 200 
f 136 201 137 
f 136 200 201 
f 137 202 138 
f 137 201 202 
f 138 203 139 
f 138 202 203 
f 139 204 140 
f 139 203 204 
f 140 205 141 
f 140 204 205 
f 141 206 142 
f 141 205 206 
f 142 207 143 
f 142 206 207 
f 143 208 144 
f 143 207 208 
f 144 209 145 
f 144 208 209 
f 145 210 146 
f 145 209 210 
f 146 211 147 
f 146 210 211 
f 147 212 148 
f 147 211 212 
f 148 213 149 
f 148 212 213 
f 149 214 150 
f 149 213 214 
f 150 215 151 
f 150 214 215 
f 151 216 152 
f 151 215 216 
f 152 217 153 
f 152 216 217 
f 153 218 154 
f 153 217 218 
f 154 219 155 
f 154 218 219 
f 155 220 156 
f 155 219 220 
f 156 221 157 
f 156 220 221 
f 157 222 158 
f 157 221 222 
f 158 223 159 
f 158 222 223 
f 159 224 160 
f 159 223 224 
f 160 225 161 
f 160 224 225 
f 161 226 162 
f 161 225 226 
f 162 227 163 
f 162 226 227 
f 163 228 164 
f 163 227 228 
f 164 229 165 
f 164 228 229 
f 165 230 166 
f 165 229 230 
f 166 231 167 
f 166 230 231 
f 167 232 168 
f 167 231 232 
f 168 233 169 
f 168 232 233 
f 169 234 170 
f 169 233 234 
f 170 235 171 
f 170 234 235 
f 171 236 172 
f 171 235 236 
f 172 237 173 
f 172 236 237 
f 173 238 174 
f 173 237 238 
f 174 239 175 
f 174 238 239 
f 175 240 176 
f 175 239 240 
f 176 241 177 
f 176 240 241 
f 177 242 178 
f 177 241 242 
f 178 243 179 
f 178 242 243 
f 179 244 180 
f 179 243 244 
f 180 245 181 
f 180 244 245 
f 181 246 182 
f 181 245 246 
f 182 247 183 
f 182 246 247 
f 183 248 184 
f 183 247 248 
f 184 249 185 
f 184 248 249 
f 185 250 186 
f 185 249 250 
f 186 251 187 
f 186 250 251 
f 187 252 188 
f 187 251 252 
f 188 253 189 
f 188 252 253 
f 189 254 190 
f 189 253 254 
f 190 255 191 
f 190 254 255 
f 191 256 192 
f 191 255 256 
f 192 193 129 
f 192 256 193 
f 193 258 194 
f 193 257 258 
f 194 259 195 
f 194 258 259 
f 195 260 196 
f 195 259 260 
f 196 261 197 
f 196 260 261 
f 197 262 198 
f 197 261 262 
f 198 263 199 
f 198 262 263 
f 199 264 200 
f 199 263 264 
f 200 265 201 
f 200 264 265 
f 201 266 202 
f 201 265 266 
f 202 267 203 
f 202 266 267 
f 203 268 204 
f 203 267 268 
f 204 269 205 
f 204 268 269 
f 205 270 206 
f 205 269 270 
f 206 271 207 
f 206 270 271 
f 207 272 208 
f 207 271 272 
f 208 273 209 
f 208 272 273 
f 209 274 210 
f 209 273 274 
f 210 275 211 
f 210 274 275 
f 211 276 212 
f 211 275 276 
f 212 277 213 
f 212 276 277 
f 213 278 214 
f 213 277 278 
f 214 279 215 
f 214 278 279 
f 215 280 216 
f 215 279 280 
f 216 281 217 
f 216 280 281 
f 217 282 218 
f 217 281 282 
f 218 283 219 
f 218 282 283 
f 219 284 220 
f 219 283 284 
f 220 285 221 
f 220 284 285 
f 221 286 222 
f 221 285 286 
f 222 287 223 
f 222 286 287 
f 223 288 224 
f 223 287 288 
f 224 289 225 
f 224 288 289 
f 225 290 226 
f 225 289 290 
f 226 291 227 
f 226 290 291 
f 227 292 228 
f 227 291 292 
f 228 293 229 
f 228 292 293 
f 229 294 230 
f 229 293 294 
f 230 295 231 
f 230 294 295 
f 231 296 232 
f 231 295 296 
f 232 297 233 
f 232 296 297 
f 233 298 234 
f 233 297 298 
f 234 299 235 
f 234 298 299 
f 235 300 236 
f 235 299 300 
f 236 301 237 
f 236 300 301 
f 237 302 238 
f 237 301 302 
f 238 303 239 
f 238 302 303 
f 239 304 240 
f 239 303 304 
f 240 305 241 
f 240 304 305 
f 241 306 242 
f 241 305 306 
f 242 307 243 
f 242 306 307 
f 243 308 244 
f 243 307 308 
f 244 309 245 
f 244 308 309 
f 245 310 246 
f 245 309 310 
f 246 311 247 
f 246 310 311 
f 247 312 248 
f 247 311 312 
f 248 313 249 
f 248 312 313 
f 249 314 250 
f 249 313 314 
f 250 315 251 
f 250 314 315 
f 251 316 252 
f 251 315 316 
f 252 317 253 
f 252 316 317 
f 253 318 254 
f 253 317 318 
f 254 319 255 
f 254 318 319 
f 255 320 256 
f 255 319 320 
f 256 257 193 
f 256 320 257 
f 257 322 258 
f 257 321 322 
f 258 323 259 
f 258 322 323 
f 259 324 260 
f 259 323 324 
f 260 325 261 
f 260 324 325 
f 261 326 262 
f 261 325 326 
f 262 327 263 
f 262 326 327 
f 263 328 264 
f 263 327 328 
f 264 329 265 
f 264 328 329 
f 265 330 266 
f 265 329 330 
f 266 331 267 
f 266 330 331 
f 267 332 268 
f 267 331 332 
f 268 333 269 
f 268 332 333 
f 269 334 270 
f 269 333 334 
f 270 335 271 
f 270 334 335 
f 271 336 272 
f 271 335 336 
f 272 337 273 
f 272 336 337 
f 273 338 274 
f 273 337 338 
f 274 339 275 
f 274 338 339 
f 275 340 276 
f 275 339 340 
f 276 341 277 
f 276 340 341 
f 277 342 278 
f 277 341 342 
f 278 343 279 
f 278 342 343 
f 279 344 280 
f 279 343 344 
f 280 345 281 
f 280 344 345 
f 281 346 282 
f 281 345 346 
f 282 347 283 
f 282 346 347 
f 283 348 284 
f 283 347 348 
f 284 349 285 
f 284 348 349 
f 285 350 286 
f 285 349 350 
f 286 351 287 
f 286 350 351 
f 287 352 288 
f 287 351 352 
f 288 353 289 
f 288 352 353 
f 289 354 290 
f 289 353 354 
f 290 355 291 
f 290 354 355 
f 291 356 292 
f 291 355 356 
f 292 357 293 
f 292 356 357 
f 293 358 294 
f 293 357 358 
f 294 359 295 
f 294 358 359 
f 295 360 296 
f 295 359 360 
f 296 361 297 
f 296 360 361 
f 297 362 298 
f 297 361 362 
f 298 363 299 
f 298 362 363 
f 299 364 300 
f 299 363 364 
f 300 365 301 
f 300 364 365 
f 301 366 302 
f 301 365 366 
f 302 367 303 
f 302 366 367 
f 303 368 304 
f 303 367 368 
f 304 369 305 
f 304 368 369 
f 305 370 306 
f 305 369 370 
f 306 371 307 
f 306 370 371 
f 307 372 308 
f 307 371 372 
f 308 373 309 
f 308 372 373 
f 309 374 310 
f 309 373 374 
f 310 375 311 
f 310 374 375 
f 311 376 312 
f 311 375 376 
f 312 377 313 
f 312 376 377 
f 313 378 314 
f 313 377 378 
f 314 379 315 
f 314 378 379 
f 315 380 316 
f 315 379 380 
f 316 381 317 
f 316 380 381 
f 317 382 318 
f 317 381 382 
f 318 383 319 
f 318 382 383 
f 319 384 320 
f 319 383 384 
f 320 321 257 
f 320 384 321 
f 321 386 322 
f 321 385 386 
f 322 387 323 
f 322 386 387 
f 323 388 324 
f 323 387 388 
f 324 389 325 
f 324 388 389 
f 325 390 326 
f 325 389 390 
f 326 391 327 
f 326 390 391 
f 327 392 328 
f 327 391 392 
f 328 393 329 
f 328 392 393 
f 329 394 330 
f 329 393 394 
f 330 395 331 
f 330 394 395 
f 331 396 332 
f 331 395 396 
f 332 397 333 
f 332 396 397 
f 333 398 334 
f 333 397 398 
f 334 399 335 
f 334 398 399 
f 335 400 336 
f 335 399 400 
f 336 401 337 
f 336 400 401 
f 337 402 338 
f 337 401 402 
f 338 403 339 
f 338 402 403 
f 339 404 340 
f 339 403 404 
f 340 405 341 
f 340 404 405 
f 341 406 342 
f 341 405 406 
f 342 407 343 
f 342 406 407 
f 343 408 344 
f 343 407 408 
f 344 409 345 
f 344 408 409 
f 345 410 346 
f 345 409 410 
f 346 411 347 
f 346 410 411 
f 347 412 348 
f 347 411 412 
f 348 413 349 
f 348 412 413 
f 349 414 350 
f 349 413 414 
f 350 415 351 
f 350 414 415 
f 351 416 352 
f 351 415 416 
f 352 417 353 
f 352 416 417 
f 353 418 354 
f 353 417 418 
f 354 419 355 
f 354 418 419 
f 355 420 356 
f 355 419 420 
f 356 421 357 
f 356 420 421 
f 357 422 358 
f 357 421 422 
f 358 423 359 
f 358 422 423 
f 359 424 360 
f 359 423 424 
f 360 425 361 
f 360 424 425 
f 361 426 362 
f 361 425 426 
f 362 427 363 
f 362 426 427 
f 363 428 364 
f 363 427 428 
f 364 429 365 
f 364 428 429 
f 365 430 366 
f 365 429 430 
f 366 431 367 
f 366 430 431 
f 367 432 368 
f 367 431 432 
f 368 433 369 
f 368 432 433 
f 369 434 370 
f 369 433 434 
f 370 435 371 
f 370 434 435 
f 371 436 372 
f 371 435 436 
f 372 437 373 
f 372 436 437 
f 373 438 374 
f 373 437 438 
f 374 439 375 
f 374 438 439 
f 375 440 376 
f 375 439 440 
f 376 441 377 
f 376 440 441 
f 377 442 378 
f 377 441 442 
f 378 443 379 
f 378 442 443 
f 379 444 380 
f 379 443 444 
f 380 445 381 
f 380 444 445 
f 381 446 382 
f 381 445 446 
f 382 447 383 
f 382 446 447 
f 383 448 384 
f 383 447 448 
f 384 385 321 
f 384 448 385 
f 385 450 386 
f 385 449 450 
f 386 451 387 
f 386 450 451 
f 387 452 388 
f 387 451 452 
f 388 453 389 
f 388 452 453 
f 389 454 390 
f 389 453 454 
f 390 455 391 
f 390 454 455 
f 391 456 392 
f 391 455 456 
f 392 457 393 
f 392 456 457 
f 393 458 394 
f 393 457 458 
f 394 459 395 
f 394 458 459 
f 395 460 396 
f 395 459 460 
f 396 461 397 
f 396 460 461 
f 397 462 398 
f 397 461 462 
f 398 463 399 
f 398 462 463 
f 399 464 400 
f 399 463 464 
f 400 465 401 
f 400 464 465 
f 401 466 402 
f 401 465 466 
f 402 467 403 
f 402 466 467 
f 403 468 404 
f 403 467 468 
f 404 469 405 
f 404 468 469 
f 405 470 406 
f 405 469 470 
f 406 471 407 
f 406 470 471 
f 407 472 408 
f 407 471 472 
f 408 473 409 
f 408 472 473 
f 409 474 410 
f 409 473 474 
f 410 475 411 
f 410 474 475 
f 411 476 412 
f 411 475 476 
f 412 477 413 
f 412 476 477 
f 413 478 414 
f 413 477 478 
f 414 479 415 
f 414 478 479 
f 415 480 416 
f 415 479 480 
f 416 481 417 
f 416 480 481 
f 417 482 418 
f 417 481 482 
f 418 483 419 
f 418 482 483 
f 419 484 420 
f 419 483 484 
f 420 485 421 
f 420 484 485 
f 421 486 422 
f 421 485 486 
f 422 487 423 
f 422 486 487 
f 423 488 424 
f 423 487 488 
f 424 489 425 
f 424 488 489 
f 425 490 426 
f 425 489 490 
f 426 491 427 
f 426 490 491 
f 427 492 428 
f 427 491 492 
f 428 493 429 
f 428 492 493 
f 429 494 430 
f 429 493 494 
f 430 495 431 
f 430 494 495 
f 431 496 432 
f 431 495 496 
f 432 497 433 
f 432 496 497 
f 433 498 434 
f 433 497 498 
f 434 499 435 
f 434 498 499 
f 435 500 436 
f 435 499 500 
f 436 501 437 
f 436 500 501 
f 437 502 438 
f 437 501 502 
f 438 503 439 
f 438 502 503 
f 439 504 440 
f 439 503 504 
f 440 505 441 
f 440 504 505 
f 441 506 442 
f 441 505 506 
f 442 507 443 
f 442 506 507 
f 443 508 444 
f 443 507 508 
f 444 509 445 
f 444 508 509 
f 445 510 446 
f 445 509 510 
f 446 511 447 
f 446 510 511 
f 447 512 448 
f 447 511 512 
f 448 449 385 
f 448 512 449 
f 449 514 450 
f 449 513 514 
f 450 515 451 
f 450 514 515 
f 451 516 452 
f 451 515 516 
f 452 517 453 
f 452 516 517 
f 453 518 454 
f 453 517 518 
f 454 519 455 
f 454 518 519 
f 455 520 456 
f 455 519 520 
f 456 521 457 
f 456 520 521 
f 457 522 458 
f 457 521 522 
f 458 523 459 
f 458 522 523 
f 459 524 460 
f 459 523 524 
f 460 525 461 
f 460 524 525 
f 461 526 462 
f 461 525 526 
f 462 527 463 
f 462 526 527 
f 463 528 464 
f 463 527 528 
f 464 529 465 
f 464 528 529 
f 465 530 466 
f 465 529 530 
f 466 531 467 
f 466 530 531 
f 467 532 468 
f 467 531 532 
f 468 533 469 
f 468 532 533 
f 469 534 470 
f 469 533 534 
f 470 535 471 
f 470 534 535 
f 471 536 472 
f 471 535 536 
f 472 537 473 
f 472 536 537 
f 473 538 474 
f 473 537 538 
f 474 539 475 
f 474 538 539 
f 475 540 476 
f 475 539 540 
f 476 541 477 
f 476 540 541 
f 477 542 478 
f 477 541 542 
f 478 543 479 
f 478 542 543 
f 479 544 480 
f 479 543 544 
f 480 545 481 
f 480 544 545 
f 481 546 482 
f 481 545 546 
f 482 547 483 
f 482 546 547 
f 483 548 484 
f 483 547 548 
f 484 549 485 
f 484 548 549 
f 485 550 486 
f 485 549 550 
f 486 551 487 
f 486 550 551 
f 487 552 488 
f 487 551 552 
f 488 553 489 
f 488 552 553 
f 489 554 490 
f 489 553 554 
f 490 555 491 
f 490 554 555 
f 491 556 492 
f 491 555 556 
f 492 557 493 
f 492 556 557 
f 493 558 494 
f 493 557 558 
f 494 559 495 
f 494 558 559 
f 495 560 496 
f 495 559 560 
f 496 561 497 
f 496 560 561 
f 497 562 498 
f 497 561 562 
f 498 563 499 
f 498 562 563 
f 499 564 500 
f 499 563 564 
f 500 565 501 
f 500 564 565 
f 501 566 502 
f 501 565 566 
f 502 567 503 
f 502 566 567 
f 503 568 504 
f 503 567 568 
f 504 569 505 
f 504 568 569 
f 505 570 506 
f 505 569 570 
f 506 571 507 
f 506 570 571 
f 507 572 508 
f 507 571 572 
f 508 573 509 
f 508 572 573 
f 509 574 510 
f 509 573 574 
f 510 575 511 
f 510 574 575 
f 511 576 512 
f 511 575 576 
f 512 513 449 
f 512 576 513 
f 513 578 514 
f 513 577 578 
f 514 579 515 
f 514 578 579 
f 515 580 516 
f 515 579 580 
f 516 581 517 
f 516 580 581 
f 517 582 518 
f 517 581 582 
f 518 583 519 
f 518 582 583 
f 519 584 520 
f 519 583 584 
f 520 585 521 
f 520 584 585 
f 521 586 522 
f 521 585 586 
f 522 587 523 
f 522 586 587 
f 523 588 524 
f 523 587 588 
f 524 589 525 
f 524 588 589 
f 525 590 526 
f 525 589 590 
f 526 591 527 
f 526 590 591 
f 527 592 528 
f 527 591 592 
f 528 593 529 
f 528 592 593 
f 529 594 530 
f 529 593 594 
f 530 595 531 
f 530 594 595 
f 531 596 532 
f 531 595 596 
f 532 597 533 
f 532 596 597 
f 533 598 534 
f 533 597 598 
f 534 599 535 
f 534 598 599 
f 535 600 536 
f 535 599 600 
f 536 601 537 
f 536 600 601 
f 537 602 538 
f 537 601 602 
f 538 603 539 
f 538 602 603 
f 539 604 540 
f 539 603 604 
f 540 605 541 
f 540 604 605 
f 541 606 542 
f 541 605 606 
f 542 607 543 
f 542 606 607 
f 543 608 544 
f 543 607 608 
f 544 609 545 
f 544 608 609 
f 545 610 546 
f 545 609 610 
f 546 611 547 
f 546 610 611 
f 547 612 548 
f 547 611 612 
f 548 613 549 
f 548 612 613 
f 549 614 550 
f 549 613 614 
f 550 615 551 
f 550 614 615 
f 551 616 552 
f 551 615 616 
f 552 617 553 
f 552 616 617 
f 553 618 554 
f 553 617 618 
f 554 619 555 
f 554 618 619 
f 555 620 556 
f 555 619 620 
f 556 621 557 
f 556 620 621 
f 557 622 558 
f 557 621 622 
f 558 623 559 
f 558 622 623 
f 559 624 560 
f 559 623 624 
f 560 625 561 
f 560 624 625 
f 561 626 562 
f 561 625 626 
f 562 627 563 
f 562 626 627 
f 563 628 564 
f 563 627 628 
f 564 629 565 
f 564 628 629 
f 565 630 566 
f 565 629 630 
f 566 631 567 
f 566 630 631 
f 567 632 568 
f 567 631 632 
f 568 633 569 
f 568 632 633 
f 569 634 570 
f 569 633 634 
f 570 635 571 
f 570 634 635 
f 571 636 572 
f 571 635 636 
f 572 637 573 
f 572 636 637 
f 573 638 574 
f 573 637 638 
f 574 639 575 
f 574 638 639 
f 575 640 576 
f 575 639 640 
f 576 577 513 
f 576 640 577 
