# Branch
v 6.00463 6.5266 -29.7534
vn -0.567578 -0.418091 0.709263
v 5.99923 6.54183 -29.7499
vn -0.599623 -0.327708 0.730109
v 5.99481 6.55759 -29.7475
vn -0.625893 -0.234169 0.743924
v 5.9914 6.57373 -29.7464
vn -0.646135 -0.138374 0.750575
v 5.98903 6.59009 -29.7465
vn -0.660154 -0.0412474 0.749997
v 5.98774 6.60653 -29.7478
vn -0.667816 0.0562769 0.742196
v 5.98754 6.62287 -29.7503
vn -0.669046 0.153259 0.727247
v 5.98841 6.63896 -29.754
vn -0.663833 0.248766 0.705295
v 5.99037 6.65465 -29.7589
vn -0.652227 0.341876 0.67655
v 5.99338 6.66978 -29.7648
vn -0.63434 0.431694 0.64129
v 5.99743 6.68421 -29.7718
vn -0.610344 0.517355 0.599854
v 6.00246 6.69781 -29.7798
vn -0.580469 0.598033 0.55264
v 6.00844 6.71043 -29.7886
vn -0.545005 0.672952 0.500105
v 6.0153 6.72196 -29.7983
vn -0.504292 0.74139 0.442753
v 6.02297 6.73229 -29.8087
vn -0.458722 0.802688 0.381138
v 6.0314 6.74132 -29.8197
vn -0.408734 0.856256 0.315851
v 6.04048 6.74895 -29.8312
vn -0.35481 0.901577 0.247523
v 6.05014 6.75513 -29.8431
vn -0.297469 0.938216 0.176811
v 6.06029 6.75978 -29.8553
vn -0.237264 0.965819 0.104397
v 6.07082 6.76286 -29.8676
vn -0.174773 0.984121 0.0309767
v 6.08163 6.76435 -29.8801
vn -0.110599 0.992946 -0.0427416
v 6.09262 6.76422 -29.8924
vn -0.0453602 0.992207 -0.116048
v 6.10369 6.76249 -29.9046
vn 0.0203156 0.981913 -0.188237
v 6.11472 6.75916 -29.9164
vn 0.0857958 0.962163 -0.258614
v 6.12561 6.75427 -29.9279
vn 0.15045 0.933147 -0.326499
v 6.13626 6.74787 -29.9388
vn 0.213655 0.895144 -0.391241
v 6.14657 6.74001 -29.9491
vn 0.274802 0.84852 -0.452214
v 6.15642 6.73078 -29.9586
vn 0.333303 0.793724 -0.508833
v 6.16574 6.72026 -29.9673
vn 0.388594 0.731285 -0.560551
v 6.17442 6.70855 -29.9751
vn 0.440143 0.661803 -0.60687
v 6.1824 6.69577 -29.9819
vn 0.487452 0.585947 -0.647346
v 6.18958 6.68204 -29.9877
vn 0.530068 0.504448 -0.681586
v 6.1959 6.66749 -29.9924
vn 0.567578 0.418091 -0.709263
v 6.2013 6.65226 -29.9959
vn 0.599623 0.327708 -0.730109
v 6.20572 6.6365 -29.9982
vn 0.625893 0.234169 -0.743924
v 6.20913 6.62036 -29.9993
vn 0.646135 0.138374 -0.750575
v 6.2115 6.60399 -29.9992
vn 0.660154 0.0412474 -0.749997
v 6.21279 6.58756 -29.9979
vn 0.667816 -0.0562769 -0.742196
v 6.21299 6.57122 -29.9954
vn 0.669046 -0.153259 -0.727247
v 6.21212 6.55513 -29.9917
vn 0.663833 -0.248766 -0.705295
v 6.21016 6.53944 -29.9869
vn 0.652227 -0.341876 -0.67655
v 6.20715 6.52431 -29.9809
vn 0.63434 -0.431694 -0.64129
v 6.2031 6.50987 -29.9739
vn 0.610344 -0.517355 -0.599854
v 6.19807 6.49628 -29.966
vn 0.580469 -0.598033 -0.55264
v 6.19209 6.48366 -29.9571
vn 0.545005 -0.672952 -0.500105
v 6.18523 6.47213 -29.9475
vn 0.504292 -0.74139 -0.442753
v 6.17756 6.4618 -29.9371
vn 0.458722 -0.802688 -0.381138
v 6.16913 6.45277 -29.9261
vn 0.408734 -0.856256 -0.315851
v 6.16005 6.44514 -29.9146
vn 0.35481 -0.901577 -0.247523
v 6.15039 6.43896 -29.9027
vn 0.297469 -0.938216 -0.176811
v 6.14024 6.43431 -29.8905
vn 0.237264 -0.965819 -0.104397
v 6.12971 6.43123 -29.8781
vn 0.174773 -0.984121 -0.0309767
v 6.1189 6.42974 -29.8657
vn 0.110599 -0.992946 0.0427416
v 6.10791 6.42986 -29.8533
vn 0.0453602 -0.992207 0.116048
v 6.09684 6.4316 -29.8412
vn -0.0203156 -0.981913 0.188237
v 6.08581 6.43493 -29.8293
vn -0.0857958 -0.962163 0.258614
v 6.07492 6.43982 -29.8179
vn -0.15045 -0.933147 0.326499
v 6.06427 6.44622 -29.8069
vn -0.213655 -0.895144 0.391241
v 6.05396 6.45407 -29.7967
vn -0.274802 -0.84852 0.452214
v 6.04411 6.46331 -29.7871
vn -0.333303 -0.793724 0.508833
v 6.03479 6.47383 -29.7784
vn -0.388594 -0.731285 0.560551
v 6.0261 6.48554 -29.7706
vn -0.440143 -0.661803 0.60687
v 6.01813 6.49832 -29.7638
vn -0.487452 -0.585947 0.647346
v 6.01095 6.51205 -29.758
vn -0.530068 -0.504448 0.681586
v 6.55726 6.62206 -29.3089
vn -0.499898 -0.406668 0.764672
v 6.55205 6.63662 -29.3056
vn -0.532268 -0.31634 0.785251
v 6.54765 6.65167 -29.3035
vn -0.559512 -0.222965 0.798268
v 6.54413 6.66707 -29.3026
vn -0.581368 -0.127443 0.803598
v 6.54151 6.68266 -29.303
vn -0.597625 -0.0306938 0.801188
v 6.53982 6.69831 -29.3046
vn -0.608127 0.0663512 0.791062
v 6.53907 6.71385 -29.3075
vn -0.612772 0.162757 0.773318
v 6.53927 6.72914 -29.3116
vn -0.611516 0.257596 0.748126
v 6.54042 6.74402 -29.3168
vn -0.60437 0.349954 0.71573
v 6.54251 6.75837 -29.3231
vn -0.591404 0.438941 0.676441
v 6.54552 6.77203 -29.3305
vn -0.572742 0.523701 0.630637
v 6.54942 6.78488 -29.3389
vn -0.548565 0.603418 0.57876
v 6.55417 6.79679 -29.3481
vn -0.519105 0.677324 0.521309
v 6.55972 6.80766 -29.3582
vn -0.484645 0.744706 0.458837
v 6.56603 6.81736 -29.369
vn -0.445518 0.804917 0.391947
v 6.57303 6.82582 -29.3804
vn -0.4021 0.857376 0.321282
v 6.58065 6.83294 -29.3923
vn -0.35481 0.901577 0.247523
v 6.58883 6.83867 -29.4045
vn -0.304103 0.937097 0.17138
v 6.59747 6.84294 -29.4171
vn -0.250468 0.963591 0.0935871
v 6.60651 6.84571 -29.4298
vn -0.19442 0.980805 0.0148924
v 6.61584 6.84697 -29.4425
vn -0.136499 0.988574 -0.0639456
v 6.62539 6.84668 -29.4551
vn -0.0772646 0.986822 -0.142168
v 6.63506 6.84487 -29.4675
vn -0.0172857 0.975567 -0.219021
v 6.64476 6.84154 -29.4795
vn 0.0428597 0.954916 -0.293765
v 6.65438 6.83673 -29.4911
vn 0.102592 0.925069 -0.365679
v 6.66385 6.83048 -29.5021
vn 0.161337 0.886314 -0.434072
v 6.67307 6.82286 -29.5125
vn 0.218528 0.839022 -0.498285
v 6.68195 6.81393 -29.5221
vn 0.273614 0.78365 -0.557699
v 6.69041 6.80379 -29.5308
vn 0.326065 0.720731 -0.611742
v 6.69836 6.79253 -29.5385
vn 0.375376 0.650871 -0.659893
v 6.70572 6.78026 -29.5453
vn 0.421072 0.574743 -0.70169
v 6.71243 6.76709 -29.5509
vn 0.462713 0.49308 -0.736728
v 6.71843 6.75317 -29.5554
vn 0.499898 0.406668 -0.764672
v 6.72365 6.7386 -29.5587
vn 0.532268 0.31634 -0.785251
v 6.72804 6.72355 -29.5608
vn 0.559512 0.222965 -0.798268
v 6.73156 6.70815 -29.5617
vn 0.581368 0.127443 -0.803598
v 6.73418 6.69256 -29.5613
vn 0.597625 0.0306938 -0.801188
v 6.73588 6.67692 -29.5597
vn 0.608127 -0.0663512 -0.791062
v 6.73662 6.66138 -29.5568
vn 0.612772 -0.162757 -0.773318
v 6.73642 6.64609 -29.5528
vn 0.611516 -0.257596 -0.748126
v 6.73527 6.6312 -29.5475
vn 0.60437 -0.349954 -0.71573
v 6.73318 6.61686 -29.5412
vn 0.591404 -0.438941 -0.676441
v 6.73017 6.60319 -29.5338
vn 0.572742 -0.523701 -0.630637
v 6.72627 6.59034 -29.5255
vn 0.548565 -0.603418 -0.57876
v 6.72153 6.57843 -29.5162
vn 0.519105 -0.677324 -0.521309
v 6.71597 6.56757 -29.5061
vn 0.484645 -0.744706 -0.458837
v 6.70966 6.55786 -29.4953
vn 0.445518 -0.804917 -0.391947
v 6.70266 6.5494 -29.4839
vn 0.4021 -0.857376 -0.321282
v 6.69504 6.54228 -29.4721
vn 0.35481 -0.901577 -0.247523
v 6.68687 6.53655 -29.4598
vn 0.304103 -0.937097 -0.17138
v 6.67822 6.53228 -29.4472
vn 0.250468 -0.963591 -0.0935871
v 6.66919 6.52951 -29.4346
vn 0.19442 -0.980805 -0.0148924
v 6.65985 6.52826 -29.4219
vn 0.136499 -0.988574 0.0639456
v 6.6503 6.52854 -29.4092
vn 0.0772646 -0.986822 0.142168
v 6.64063 6.53035 -29.3969
vn 0.0172857 -0.975567 0.219021
v 6.63094 6.53368 -29.3848
vn -0.0428597 -0.954916 0.293765
v 6.62131 6.53849 -29.3732
vn -0.102592 -0.925069 0.365679
v 6.61184 6.54474 -29.3622
vn -0.161337 -0.886314 0.434072
v 6.60262 6.55236 -29.3518
vn -0.218528 -0.839022 0.498285
v 6.59374 6.56129 -29.3423
vn -0.273614 -0.78365 0.557699
v 6.58529 6.57143 -29.3335
vn -0.326065 -0.720731 0.611742
v 6.57734 6.58269 -29.3258
vn -0.375376 -0.650871 0.659893
v 6.56997 6.59496 -29.319
vn -0.421072 -0.574743 0.70169
v 6.56326 6.60813 -29.3134
vn -0.462713 -0.49308 0.736728
v 7.12545 6.74053 -28.926
vn -0.423865 -0.391095 0.816936
v 7.12041 6.75442 -28.9228
vn -0.456601 -0.300841 0.837263
v 7.11605 6.76876 -28.9209
vn -0.48494 -0.207691 0.849528
v 7.11241 6.7834 -28.9203
vn -0.508609 -0.11254 0.853611
v 7.10952 6.79821 -28.921
vn -0.52738 -0.0163056 0.849473
v 7.10741 6.81305 -28.9229
vn -0.541072 0.080086 0.837154
v 7.10611 6.82776 -28.926
vn -0.549553 0.175706 0.816774
v 7.10562 6.84222 -28.9303
vn -0.552741 0.269634 0.788527
v 7.10595 6.85628 -28.9359
vn -0.550606 0.360966 0.752686
v 7.10709 6.8698 -28.9425
vn -0.543169 0.448821 0.709596
v 7.10904 6.88265 -28.9502
vn -0.530501 0.532354 0.659673
v 7.11178 6.89472 -28.9588
vn -0.512723 0.61076 0.603397
v 7.11527 6.90588 -28.9684
vn -0.490008 0.683283 0.541309
v 7.11949 6.91603 -28.9787
vn -0.462574 0.749227 0.474009
v 7.1244 6.92507 -28.9898
vn -0.430685 0.807955 0.402143
v 7.12995 6.93291 -29.0015
vn -0.394648 0.858902 0.326405
v 7.13608 6.93948 -29.0136
vn -0.35481 0.901577 0.247523
v 7.14274 6.94471 -29.0261
vn -0.311556 0.93557 0.166258
v 7.14986 6.94856 -29.0389
vn -0.265301 0.960553 0.0833909
v 7.15737 6.95098 -29.0517
vn -0.216491 0.976285 -0.000278908
v 7.1652 6.95195 -29.0646
vn -0.165596 0.982614 -0.0839461
v 7.17328 6.95147 -29.0774
vn -0.113106 0.979481 -0.166805
v 7.18152 6.94953 -29.0899
vn -0.0595274 0.966915 -0.248057
v 7.18986 6.94617 -29.102
vn -0.0053752 0.945037 -0.32692
v 7.1982 6.9414 -29.1137
vn 0.0488288 0.914057 -0.402635
v 7.20647 6.93528 -29.1247
vn 0.102563 0.874275 -0.474473
v 7.21459 6.92786 -29.1351
vn 0.155309 0.826073 -0.541741
v 7.22248 6.91922 -29.1446
vn 0.206559 0.769915 -0.603791
v 7.23006 6.90943 -29.1533
vn 0.25582 0.706343 -0.660027
v 7.23726 6.8986 -29.161
vn 0.302617 0.635968 -0.709906
v 7.24401 6.88683 -29.1676
vn 0.3465 0.559469 -0.752949
v 7.25025 6.87422 -29.1731
vn 0.387046 0.477581 -0.78874
v 7.25592 6.86091 -29.1774
vn 0.423865 0.391095 -0.816936
v 7.26096 6.84702 -29.1806
vn 0.456601 0.300841 -0.837263
v 7.26532 6.83269 -29.1824
vn 0.48494 0.207691 -0.849528
v 7.26896 6.81804 -29.1831
vn 0.508609 0.11254 -0.853611
v 7.27185 6.80323 -29.1824
vn 0.52738 0.0163056 -0.849473
v 7.27396 6.7884 -29.1805
vn 0.541072 -0.080086 -0.837154
v 7.27526 6.77368 -29.1774
vn 0.549553 -0.175706 -0.816774
v 7.27575 6.75923 -29.1731
vn 0.552741 -0.269634 -0.788527
v 7.27543 6.74517 -29.1675
vn 0.550606 -0.360966 -0.752686
v 7.27428 6.73165 -29.1609
vn 0.543169 -0.448821 -0.709596
v 7.27233 6.71879 -29.1532
vn 0.530501 -0.532354 -0.659673
v 7.2696 6.70673 -29.1446
vn 0.512723 -0.61076 -0.603397
v 7.2661 6.69556 -29.135
vn 0.490008 -0.683283 -0.541309
v 7.26188 6.68541 -29.1246
vn 0.462574 -0.749227 -0.474009
v 7.25697 6.67638 -29.1136
vn 0.430685 -0.807955 -0.402143
v 7.25142 6.66854 -29.1019
vn 0.394648 -0.858902 -0.326405
v 7.24529 6.66197 -29.0898
vn 0.35481 -0.901577 -0.247523
v 7.23864 6.65674 -29.0773
vn 0.311556 -0.93557 -0.166258
v 7.23152 6.65289 -29.0645
vn 0.265301 -0.960553 -0.0833909
v 7.224 6.65047 -29.0517
vn 0.216491 -0.976285 0.000278908
v 7.21617 6.6495 -29.0388
vn 0.165596 -0.982614 0.0839461
v 7.20809 6.64998 -29.026
vn 0.113106 -0.979481 0.166805
v 7.19985 6.65191 -29.0135
vn 0.0595274 -0.966915 0.248057
v 7.19151 6.65528 -29.0014
vn 0.0053752 -0.945037 0.32692
v 7.18317 6.66005 -28.9897
vn -0.0488288 -0.914057 0.402635
v 7.1749 6.66617 -28.9787
vn -0.102563 -0.874275 0.474473
v 7.16678 6.67359 -28.9683
vn -0.155309 -0.826073 0.541741
v 7.1589 6.68223 -28.9588
vn -0.206559 -0.769915 0.603791
v 7.15131 6.69201 -28.9501
vn -0.25582 -0.706343 0.660027
v 7.14411 6.70285 -28.9424
vn -0.302617 -0.635968 0.709906
v 7.13736 6.71462 -28.9358
vn -0.3465 -0.559469 0.752949
v 7.13112 6.72722 -28.9303
vn -0.387046 -0.477581 0.78874
v 7.70885 6.88196 -28.6048
vn -0.340555 -0.371189 0.863853
v 7.704 6.89518 -28.6019
vn -0.373692 -0.281032 0.883954
v 7.69966 6.90879 -28.6002
vn -0.403231 -0.188168 0.895543
v 7.6959 6.92267 -28.5997
vn -0.428886 -0.0934918 0.898508
v 7.69275 6.93668 -28.6006
vn -0.450411 0.00208461 0.892819
v 7.69023 6.95069 -28.6027
vn -0.467599 0.097641 0.878532
v 7.68837 6.96457 -28.606
vn -0.480283 0.192257 0.855784
v 7.68719 6.97817 -28.6105
vn -0.488342 0.285022 0.824794
v 7.68669 6.99136 -28.6163
vn -0.491697 0.375041 0.785861
v 7.6869 7.00403 -28.6231
vn -0.490318 0.461449 0.73936
v 7.68779 7.01605 -28.6309
vn -0.484216 0.543413 0.685739
v 7.68937 7.0273 -28.6398
vn -0.473451 0.620143 0.625513
v 7.69162 7.03767 -28.6495
vn -0.458127 0.690901 0.559264
v 7.69451 7.04707 -28.66
vn -0.43839 0.755005 0.487628
v 7.69802 7.0554 -28.6712
vn -0.414432 0.811838 0.411296
v 7.70212 7.06259 -28.6829
vn -0.386482 0.860853 0.331004
v 7.70676 7.06856 -28.6952
vn -0.35481 0.901577 0.247523
v 7.71191 7.07326 -28.7078
vn -0.319722 0.933619 0.161659
v 7.7175 7.07663 -28.7206
vn -0.281554 0.956669 0.0742379
v 7.7235 7.07866 -28.7335
vn -0.240675 0.970506 -0.0138982
v 7.72983 7.07932 -28.7464
vn -0.197477 0.974997 -0.1019
v 7.73644 7.0786 -28.7592
vn -0.152378 0.970098 -0.188921
v 7.74327 7.07652 -28.7717
vn -0.105812 0.955856 -0.274123
v 7.75025 7.07308 -28.7838
vn -0.0582266 0.932409 -0.356684
v 7.7573 7.06832 -28.7954
vn -0.0100804 0.899982 -0.435811
v 7.76438 7.0623 -28.8064
vn 0.0381629 0.858888 -0.51074
v 7.7714 7.05506 -28.8166
vn 0.0860387 0.809522 -0.580751
v 7.77829 7.04668 -28.8261
vn 0.133086 0.75236 -0.645168
v 7.785 7.03724 -28.8346
vn 0.178851 0.687953 -0.703373
v 7.79146 7.02682 -28.8421
vn 0.222894 0.61692 -0.754803
v 7.7976 7.01554 -28.8486
vn 0.264791 0.539946 -0.798964
v 7.80337 7.00349 -28.854
vn 0.304137 0.457772 -0.835431
v 7.80871 6.9908 -28.8581
vn 0.340555 0.371189 -0.863853
v 7.81357 6.97758 -28.8611
vn 0.373692 0.281032 -0.883954
v 7.8179 6.96397 -28.8628
vn 0.403231 0.188168 -0.895543
v 7.82166 6.95009 -28.8632
vn 0.428886 0.0934918 -0.898508
v 7.82482 6.93607 -28.8624
vn 0.450411 -0.00208461 -0.892819
v 7.82734 6.92206 -28.8603
vn 0.467599 -0.097641 -0.878532
v 7.8292 6.90819 -28.8569
vn 0.480283 -0.192257 -0.855784
v 7.83038 6.89459 -28.8524
vn 0.488342 -0.285022 -0.824794
v 7.83087 6.88139 -28.8467
vn 0.491697 -0.375041 -0.785861
v 7.83067 6.86873 -28.8399
vn 0.490318 -0.461449 -0.73936
v 7.82977 6.85671 -28.832
vn 0.484216 -0.543413 -0.685739
v 7.82819 6.84546 -28.8232
vn 0.473451 -0.620143 -0.625513
v 7.82595 6.83509 -28.8135
vn 0.458127 -0.690901 -0.559264
v 7.82305 6.82569 -28.803
vn 0.43839 -0.755005 -0.487628
v 7.81954 6.81736 -28.7918
vn 0.414432 -0.811838 -0.411296
v 7.81544 6.81017 -28.78
vn 0.386482 -0.860853 -0.331004
v 7.8108 6.8042 -28.7678
vn 0.35481 -0.901577 -0.247523
v 7.80566 6.7995 -28.7552
vn 0.319722 -0.933619 -0.161659
v 7.80006 6.79612 -28.7424
vn 0.281554 -0.956669 -0.0742379
v 7.79407 6.79409 -28.7294
vn 0.240675 -0.970506 0.0138982
v 7.78773 6.79344 -28.7165
vn 0.197477 -0.974997 0.1019
v 7.78112 6.79415 -28.7038
vn 0.152378 -0.970098 0.188921
v 7.77429 6.79624 -28.6913
vn 0.105812 -0.955856 0.274123
v 7.76732 6.79968 -28.6792
vn 0.0582266 -0.932409 0.356684
v 7.76026 6.80443 -28.6676
vn 0.0100804 -0.899982 0.435811
v 7.75319 6.81046 -28.6566
vn -0.0381629 -0.858888 0.51074
v 7.74617 6.8177 -28.6463
vn -0.0860387 -0.809522 0.580751
v 7.73927 6.82608 -28.6369
vn -0.133086 -0.75236 0.645168
v 7.73256 6.83552 -28.6284
vn -0.178851 -0.687953 0.703373
v 7.7261 6.84593 -28.6208
vn -0.222894 -0.61692 0.754803
v 7.71996 6.85722 -28.6143
vn -0.264791 -0.539946 0.798964
v 7.71419 6.86927 -28.609
vn -0.304137 -0.457772 0.835431
v 8.30705 7.04622 -28.3456
vn -0.251819 -0.34712 0.90338
v 8.30238 7.05876 -28.3429
vn -0.285384 -0.257078 0.923291
v 8.29808 7.07165 -28.3413
vn -0.316201 -0.164561 0.934311
v 8.29421 7.08476 -28.341
vn -0.343972 -0.070459 0.936333
v 8.29081 7.09797 -28.342
vn -0.368431 0.0243217 0.929337
v 8.28789 7.11114 -28.3442
vn -0.389341 0.118868 0.913391
v 8.2855 7.12415 -28.3477
vn -0.406502 0.21227 0.888649
v 8.28366 7.13688 -28.3523
vn -0.419748 0.303627 0.855349
v 8.28238 7.1492 -28.3581
vn -0.428952 0.392061 0.813811
v 8.28167 7.16099 -28.365
vn -0.434024 0.476718 0.764436
v 8.28154 7.17215 -28.3729
vn -0.434917 0.556785 0.707699
v 8.282 7.18255 -28.3818
vn -0.431622 0.631489 0.644146
v 8.28304 7.19211 -28.3915
vn -0.424169 0.700112 0.57439
v 8.28465 7.20073 -28.402
vn -0.412632 0.761992 0.499102
v 8.28681 7.20833 -28.4131
vn -0.39712 0.816534 0.419008
v 8.2895 7.21484 -28.4248
vn -0.377784 0.863212 0.334878
v 8.2927 7.22018 -28.437
vn -0.35481 0.901577 0.247523
v 8.29638 7.22432 -28.4495
vn -0.328419 0.93126 0.157785
v 8.3005 7.2272 -28.4622
vn -0.298865 0.951974 0.0665265
v 8.30502 7.22881 -28.475
vn -0.266433 0.963519 -0.0253723
v 8.30989 7.22913 -28.4878
vn -0.231435 0.965786 -0.117027
v 8.31508 7.22815 -28.5004
vn -0.194208 0.958752 -0.207554
v 8.32053 7.22588 -28.5127
vn -0.155111 0.942484 -0.296083
v 8.32618 7.22235 -28.5247
vn -0.11452 0.917139 -0.38176
v 8.33199 7.21759 -28.5361
vn -0.0728258 0.882962 -0.463761
v 8.3379 7.21164 -28.5469
vn -0.0304304 0.840282 -0.541295
v 8.34384 7.20457 -28.557
vn 0.0122579 0.789509 -0.613616
v 8.34977 7.19644 -28.5662
vn 0.0548282 0.731133 -0.680028
v 8.35563 7.18732 -28.5746
vn 0.0968705 0.665716 -0.739891
v 8.36136 7.17732 -28.5819
vn 0.13798 0.593887 -0.792628
v 8.3669 7.16651 -28.5882
vn 0.17776 0.516339 -0.837732
v 8.3722 7.15502 -28.5934
vn 0.215829 0.433819 -0.874768
v 8.37722 7.14294 -28.5973
vn 0.251819 0.34712 -0.90338
v 8.38189 7.13039 -28.6001
vn 0.285384 0.257078 -0.923291
v 8.38619 7.1175 -28.6017
vn 0.316201 0.164561 -0.934311
v 8.39005 7.10439 -28.6019
vn 0.343972 0.070459 -0.936333
v 8.39346 7.09119 -28.601
vn 0.368431 -0.0243217 -0.929337
v 8.39638 7.07802 -28.5987
vn 0.389341 -0.118868 -0.913391
v 8.39877 7.06501 -28.5953
vn 0.406502 -0.21227 -0.888649
v 8.40061 7.05228 -28.5907
vn 0.419748 -0.303627 -0.855349
v 8.40189 7.03996 -28.5849
vn 0.428952 -0.392061 -0.813811
v 8.4026 7.02816 -28.578
vn 0.434024 -0.476718 -0.764436
v 8.40273 7.01701 -28.5701
vn 0.434917 -0.556785 -0.707699
v 8.40227 7.0066 -28.5612
vn 0.431622 -0.631489 -0.644146
v 8.40123 6.99704 -28.5515
vn 0.424169 -0.700112 -0.57439
v 8.39962 6.98842 -28.541
vn 0.412632 -0.761992 -0.499102
v 8.39746 6.98082 -28.5299
vn 0.39712 -0.816534 -0.419008
v 8.39477 6.97432 -28.5181
vn 0.377784 -0.863212 -0.334878
v 8.39156 6.96897 -28.506
vn 0.35481 -0.901577 -0.247523
v 8.38789 6.96484 -28.4935
vn 0.328419 -0.93126 -0.157785
v 8.38377 6.96195 -28.4808
vn 0.298865 -0.951974 -0.0665265
v 8.37925 6.96035 -28.468
vn 0.266433 -0.963519 0.0253723
v 8.37438 6.96003 -28.4552
vn 0.231435 -0.965786 0.117027
v 8.36919 6.96101 -28.4426
vn 0.194208 -0.958752 0.207554
v 8.36374 6.96328 -28.4302
vn 0.155111 -0.942484 0.296083
v 8.35809 6.96681 -28.4183
vn 0.11452 -0.917139 0.38176
v 8.35228 6.97157 -28.4069
vn 0.0728258 -0.882962 0.463761
v 8.34637 6.97751 -28.3961
vn 0.0304304 -0.840282 0.541295
v 8.34043 6.98459 -28.386
vn -0.0122579 -0.789509 0.613616
v 8.3345 6.99272 -28.3768
vn -0.0548282 -0.731133 0.680028
v 8.32864 7.00183 -28.3684
vn -0.0968705 -0.665716 0.739891
v 8.32291 7.01184 -28.3611
vn -0.13798 -0.593887 0.792628
v 8.31737 7.02264 -28.3548
vn -0.17776 -0.516339 0.837732
v 8.31207 7.03414 -28.3496
vn -0.215829 -0.433819 0.874768
v 8.9196 7.23315 -28.1485
vn -0.160131 -0.319438 0.933979
v 8.91511 7.24502 -28.1458
vn -0.194137 -0.229529 0.953744
v 8.91087 7.25718 -28.1444
vn -0.226274 -0.137411 0.964323
v 8.90692 7.26952 -28.1443
vn -0.256232 -0.0439686 0.965615
v 8.90329 7.28191 -28.1453
vn -0.283722 0.0498969 0.957608
v 8.90002 7.29424 -28.1476
vn -0.308479 0.143282 0.940378
v 8.89714 7.30638 -28.1511
vn -0.330266 0.235287 0.914092
v 8.89469 7.31823 -28.1557
vn -0.348872 0.325026 0.879003
v 8.89267 7.32967 -28.1615
vn -0.364119 0.411635 0.835449
v 8.89112 7.34058 -28.1683
vn -0.375858 0.49428 0.783848
v 8.89005 7.35086 -28.1761
vn -0.383978 0.572164 0.724699
v 8.88947 7.36041 -28.1848
vn -0.3884 0.644538 0.658571
v 8.88938 7.36915 -28.1944
vn -0.389081 0.710705 0.5861
v 8.88978 7.37698 -28.2047
vn -0.386016 0.770028 0.507985
v 8.89068 7.38383 -28.2157
vn -0.379233 0.821935 0.424978
v 8.89206 7.38964 -28.2272
vn -0.368797 0.865926 0.337877
v 8.8939 7.39435 -28.2391
vn -0.35481 0.901577 0.247523
v 8.8962 7.39791 -28.2513
vn -0.337406 0.928546 0.154785
v 8.89893 7.40029 -28.2638
vn -0.316753 0.946573 0.0605568
v 8.90206 7.40146 -28.2763
vn -0.293049 0.955484 -0.034255
v 8.90556 7.40143 -28.2888
vn -0.266523 0.955192 -0.128737
v 8.9094 7.40017 -28.3011
vn -0.23743 0.945702 -0.221979
v 8.91354 7.39772 -28.3131
vn -0.20605 0.927104 -0.313083
v 8.91795 7.39408 -28.3247
vn -0.172686 0.899578 -0.401172
v 8.92257 7.38931 -28.3358
vn -0.137659 0.863388 -0.485398
v 8.92737 7.38343 -28.3463
vn -0.101306 0.818883 -0.564949
v 8.9323 7.37651 -28.3561
vn -0.063978 0.766492 -0.639059
v 8.93731 7.36862 -28.3651
vn -0.0260335 0.706719 -0.707015
v 8.94235 7.35983 -28.3732
vn 0.0121617 0.640141 -0.768161
v 8.94738 7.35023 -28.3803
vn 0.0502398 0.567397 -0.82191
v 8.95234 7.3399 -28.3863
vn 0.0878341 0.489189 -0.867744
v 8.95719 7.32896 -28.3913
vn 0.124582 0.406269 -0.905221
v 8.96188 7.31749 -28.3951
vn 0.160131 0.319438 -0.933979
v 8.96637 7.30562 -28.3977
vn 0.194137 0.229529 -0.953744
v 8.97062 7.29346 -28.3991
vn 0.226274 0.137411 -0.964323
v 8.97457 7.28113 -28.3992
vn 0.256232 0.0439686 -0.965615
v 8.9782 7.26873 -28.3982
vn 0.283722 -0.0498969 -0.957608
v 8.98147 7.25641 -28.3959
vn 0.308479 -0.143282 -0.940378
v 8.98435 7.24426 -28.3924
vn 0.330266 -0.235287 -0.914092
v 8.9868 7.23241 -28.3878
vn 0.348872 -0.325026 -0.879003
v 8.98882 7.22098 -28.3821
vn 0.364119 -0.411635 -0.835449
v 8.99037 7.21007 -28.3752
vn 0.375858 -0.49428 -0.783848
v 8.99144 7.19978 -28.3674
vn 0.383978 -0.572164 -0.724699
v 8.99202 7.19023 -28.3587
vn 0.3884 -0.644538 -0.658571
v 8.99211 7.18149 -28.3491
vn 0.389081 -0.710705 -0.5861
v 8.99171 7.17366 -28.3388
vn 0.386016 -0.770028 -0.507985
v 8.99081 7.16681 -28.3279
vn 0.379233 -0.821935 -0.424978
v 8.98943 7.161 -28.3164
vn 0.368797 -0.865926 -0.337877
v 8.98759 7.15629 -28.3044
vn 0.35481 -0.901577 -0.247523
v 8.98529 7.15273 -28.2922
vn 0.337406 -0.928546 -0.154785
v 8.98256 7.15035 -28.2798
vn 0.316753 -0.946573 -0.0605568
v 8.97943 7.14918 -28.2672
vn 0.293049 -0.955484 0.034255
v 8.97593 7.14922 -28.2548
vn 0.266523 -0.955192 0.128737
v 8.97209 7.15047 -28.2425
vn 0.23743 -0.945702 0.221979
v 8.96795 7.15292 -28.2304
vn 0.20605 -0.927104 0.313083
v 8.96354 7.15656 -28.2188
vn 0.172686 -0.899578 0.401172
v 8.95892 7.16134 -28.2077
vn 0.137659 -0.863388 0.485398
v 8.95412 7.16721 -28.1972
vn 0.101306 -0.818883 0.564949
v 8.94919 7.17413 -28.1874
vn 0.063978 -0.766492 0.639059
v 8.94418 7.18202 -28.1784
vn 0.0260335 -0.706719 0.707015
v 8.93914 7.19081 -28.1703
vn -0.0121617 -0.640141 0.768161
v 8.93411 7.20041 -28.1633
vn -0.0502398 -0.567397 0.82191
v 8.92915 7.21074 -28.1572
vn -0.0878341 -0.489189 0.867744
v 8.9243 7.22169 -28.1523
vn -0.124582 -0.406269 0.905221
v 9.5461 7.44256 -28.0132
vn -0.0682585 -0.289022 0.954886
v 9.5418 7.45376 -28.0107
vn -0.102707 -0.19926 0.97455
v 9.53763 7.46519 -28.0094
vn -0.136167 -0.107579 0.984828
v 9.53362 7.47675 -28.0093
vn -0.168315 -0.0148623 0.985621
v 9.52981 7.48834 -28.0104
vn -0.198843 0.0779977 0.976923
v 9.52624 7.49983 -28.0127
vn -0.227455 0.170106 0.958816
v 9.52295 7.51111 -28.0161
vn -0.253877 0.260577 0.931475
v 9.51996 7.52208 -28.0206
vn -0.277854 0.348538 0.895164
v 9.5173 7.53263 -28.0262
vn -0.299155 0.433142 0.850232
v 9.515 7.54266 -28.0328
vn -0.317575 0.513575 0.797111
v 9.51309 7.55208 -28.0404
vn -0.332936 0.589062 0.736314
v 9.51157 7.56079 -28.0489
vn -0.345092 0.658877 0.668426
v 9.51047 7.5687 -28.0582
vn -0.353923 0.722345 0.594101
v 9.50979 7.57575 -28.0682
vn -0.359347 0.778857 0.514054
v 9.50955 7.58187 -28.0788
vn -0.361309 0.827869 0.429056
v 9.50974 7.58698 -28.0899
vn -0.359792 0.868907 0.339927
v 9.51036 7.59106 -28.1014
vn -0.35481 0.901577 0.247523
v 9.5114 7.59405 -28.1132
vn -0.346411 0.925565 0.152736
v 9.51287 7.59593 -28.1252
vn -0.334676 0.940639 0.0564781
v 9.51473 7.59668 -28.1373
vn -0.319718 0.946654 -0.0403238
v 9.51698 7.59629 -28.1493
vn -0.301681 0.943553 -0.136737
v 9.5196 7.59477 -28.1612
vn -0.280738 0.931364 -0.231834
v 9.52254 7.59214 -28.1728
vn -0.257092 0.910206 -0.324698
v 9.5258 7.5884 -28.184
vn -0.230969 0.880282 -0.414435
v 9.52934 7.58361 -28.1947
vn -0.202623 0.841881 -0.500181
v 9.53312 7.57781 -28.2047
vn -0.172325 0.795371 -0.58111
v 9.5371 7.57106 -28.2141
vn -0.140367 0.741202 -0.656442
v 9.54126 7.56341 -28.2228
vn -0.107058 0.679895 -0.725453
v 9.54554 7.55495 -28.2305
vn -0.0727174 0.61204 -0.787477
v 9.54991 7.54575 -28.2373
vn -0.0376767 0.53829 -0.841917
v 9.55433 7.5359 -28.2431
vn -0.00227315 0.459357 -0.888249
v 9.55875 7.52551 -28.2478
vn 0.0331523 0.376 -0.926026
v 9.56312 7.51466 -28.2514
vn 0.0682585 0.289022 -0.954886
v 9.56742 7.50346 -28.2538
vn 0.102707 0.19926 -0.97455
v 9.57159 7.49203 -28.2551
vn 0.136167 0.107579 -0.984828
v 9.5756 7.48046 -28.2552
vn 0.168315 0.0148623 -0.985621
v 9.57941 7.46888 -28.2541
vn 0.198843 -0.0779977 -0.976923
v 9.58298 7.45739 -28.2519
vn 0.227455 -0.170106 -0.958816
v 9.58628 7.44611 -28.2484
vn 0.253877 -0.260577 -0.931475
v 9.58927 7.43514 -28.2439
vn 0.277854 -0.348538 -0.895164
v 9.59192 7.42458 -28.2383
vn 0.299155 -0.433142 -0.850232
v 9.59422 7.41455 -28.2317
vn 0.317575 -0.513575 -0.797111
v 9.59614 7.40514 -28.2241
vn 0.332936 -0.589062 -0.736314
v 9.59765 7.39643 -28.2156
vn 0.345092 -0.658877 -0.668426
v 9.59875 7.38851 -28.2064
vn 0.353923 -0.722345 -0.594101
v 9.59943 7.38146 -28.1964
vn 0.359347 -0.778857 -0.514054
v 9.59968 7.37535 -28.1858
vn 0.361309 -0.827869 -0.429056
v 9.59949 7.37023 -28.1747
vn 0.359792 -0.868907 -0.339927
v 9.59887 7.36616 -28.1631
vn 0.35481 -0.901577 -0.247523
v 9.59782 7.36317 -28.1513
vn 0.346411 -0.925565 -0.152736
v 9.59635 7.36129 -28.1393
vn 0.334676 -0.940639 -0.0564781
v 9.59449 7.36054 -28.1272
vn 0.319718 -0.946654 0.0403238
v 9.59224 7.36092 -28.1152
vn 0.301681 -0.943553 0.136737
v 9.58963 7.36244 -28.1034
vn 0.280738 -0.931364 0.231834
v 9.58668 7.36508 -28.0918
vn 0.257092 -0.910206 0.324698
v 9.58342 7.36881 -28.0806
vn 0.230969 -0.880282 0.414435
v 9.57988 7.3736 -28.0699
vn 0.202623 -0.841881 0.500181
v 9.5761 7.3794 -28.0598
vn 0.172325 -0.795371 0.58111
v 9.57212 7.38616 -28.0504
vn 0.140367 -0.741202 0.656442
v 9.56796 7.39381 -28.0418
vn 0.107058 -0.679895 0.725453
v 9.56368 7.40227 -28.0341
vn 0.0727174 -0.61204 0.787477
v 9.55931 7.41147 -28.0273
vn 0.0376767 -0.53829 0.841917
v 9.55489 7.42131 -28.0215
vn 0.00227315 -0.459357 0.888249
v 9.55048 7.43171 -28.0168
vn -0.0331523 -0.376 0.926026
v 10.1862 7.67427 -27.9396
vn 0.0211361 -0.256946 0.966195
v 10.1821 7.68479 -27.9373
vn -0.0137432 -0.167338 0.985804
v 10.178 7.6955 -27.9361
vn -0.0484901 -0.0761194 0.995919
v 10.174 7.7063 -27.936
vn -0.08277 0.0158325 0.996443
v 10.1701 7.71708 -27.9371
vn -0.116253 0.107632 0.987371
v 10.1663 7.72774 -27.9393
vn -0.148616 0.198395 0.968789
v 10.1626 7.73817 -27.9425
vn -0.179548 0.287247 0.940878
v 10.1592 7.74828 -27.9469
vn -0.208751 0.373333 0.903906
v 10.156 7.75797 -27.9522
vn -0.235943 0.455824 0.858228
v 10.1531 7.76714 -27.9586
vn -0.260864 0.533924 0.804285
v 10.1505 7.77571 -27.9658
vn -0.283271 0.606883 0.742597
v 10.1482 7.78359 -27.9739
vn -0.302951 0.673997 0.673757
v 10.1462 7.79071 -27.9827
vn -0.319714 0.73462 0.598428
v 10.1446 7.797 -27.9923
vn -0.333397 0.788168 0.517336
v 10.1434 7.80239 -28.0024
vn -0.343869 0.834126 0.431262
v 10.1425 7.80685 -28.013
vn -0.35103 0.872051 0.341035
v 10.1421 7.81031 -28.024
vn -0.35481 0.901577 0.247523
v 10.142 7.81276 -28.0352
vn -0.355174 0.922421 0.151628
v 10.1424 7.81417 -28.0466
vn -0.352116 0.934381 0.0542719
v 10.1431 7.81451 -28.0581
vn -0.345668 0.937343 -0.0436066
v 10.1443 7.8138 -28.0696
vn -0.33589 0.931278 -0.141065
v 10.1458 7.81204 -28.0809
vn -0.322878 0.916244 -0.237165
v 10.1477 7.80923 -28.0919
vn -0.306757 0.892386 -0.330981
v 10.15 7.80542 -28.1025
vn -0.287681 0.859933 -0.421609
v 10.1525 7.80064 -28.1127
vn -0.265834 0.819199 -0.508177
v 10.1554 7.79493 -28.1223
vn -0.241428 0.770576 -0.589852
v 10.1585 7.78835 -28.1312
vn -0.214696 0.714532 -0.665845
v 10.1619 7.78096 -28.1394
vn -0.185897 0.651606 -0.735426
v 10.1655 7.77283 -28.1467
vn -0.155307 0.582406 -0.797924
v 10.1693 7.76405 -28.1532
vn -0.123222 0.507596 -0.852738
v 10.1732 7.75469 -28.1586
vn -0.08995 0.427897 -0.89934
v 10.1772 7.74485 -28.1631
vn -0.0558118 0.344078 -0.937281
v 10.1813 7.73461 -28.1665
vn -0.0211361 0.256946 -0.966195
v 10.1853 7.72409 -28.1688
vn 0.0137432 0.167338 -0.985804
v 10.1894 7.71338 -28.17
vn 0.0484901 0.0761194 -0.995919
v 10.1935 7.70258 -28.17
vn 0.08277 -0.0158325 -0.996443
v 10.1974 7.6918 -28.169
vn 0.116253 -0.107632 -0.987371
v 10.2012 7.68114 -28.1668
vn 0.148616 -0.198395 -0.968789
v 10.2048 7.67071 -28.1635
vn 0.179548 -0.287247 -0.940878
v 10.2082 7.6606 -28.1592
vn 0.208751 -0.373333 -0.903906
v 10.2114 7.65091 -28.1538
vn 0.235943 -0.455824 -0.858228
v 10.2144 7.64174 -28.1475
vn 0.260864 -0.533924 -0.804285
v 10.217 7.63317 -28.1402
vn 0.283271 -0.606883 -0.742597
v 10.2193 7.62529 -28.1321
vn 0.302951 -0.673997 -0.673757
v 10.2213 7.61817 -28.1233
vn 0.319714 -0.73462 -0.598428
v 10.2229 7.61188 -28.1138
vn 0.333397 -0.788168 -0.517336
v 10.2241 7.60649 -28.1037
vn 0.343869 -0.834126 -0.431262
v 10.225 7.60203 -28.0931
vn 0.35103 -0.872051 -0.341035
v 10.2254 7.59857 -28.0821
vn 0.35481 -0.901577 -0.247523
v 10.2254 7.59612 -28.0708
vn 0.355174 -0.922421 -0.151628
v 10.2251 7.59471 -28.0594
vn 0.352116 -0.934381 -0.0542719
v 10.2243 7.59437 -28.0479
vn 0.345668 -0.937343 0.0436066
v 10.2232 7.59508 -28.0365
vn 0.33589 -0.931278 0.141065
v 10.2217 7.59684 -28.0252
vn 0.322878 -0.916244 0.237165
v 10.2198 7.59964 -28.0142
vn 0.306757 -0.892386 0.330981
v 10.2175 7.60346 -28.0035
vn 0.287681 -0.859933 0.421609
v 10.215 7.60824 -27.9933
vn 0.265834 -0.819199 0.508177
v 10.2121 7.61395 -27.9838
vn 0.241428 -0.770576 0.589852
v 10.2089 7.62053 -27.9748
vn 0.214696 -0.714532 0.665845
v 10.2056 7.62792 -27.9667
vn 0.185897 -0.651606 0.735426
v 10.202 7.63605 -27.9593
vn 0.155307 -0.582406 0.797924
v 10.1982 7.64483 -27.9529
vn 0.123222 -0.507596 0.852738
v 10.1943 7.65419 -27.9474
vn 0.08995 -0.427897 0.89934
v 10.1903 7.66403 -27.943
vn 0.0558118 -0.344078 0.937281
v 10.8398 7.92811 -27.9273
vn 0.105847 -0.22431 0.968752
v 10.8359 7.93796 -27.9252
vn 0.0705595 -0.13486 0.988349
v 10.8319 7.94796 -27.9241
vn 0.0345928 -0.0441113 0.998428
v 10.8279 7.958 -27.924
vn -0.00170701 0.0470624 0.99889
v 10.8239 7.96799 -27.925
vn -0.0379904 0.137783 0.989734
v 10.82 7.97784 -27.9271
vn -0.073908 0.227177 0.971045
v 10.8161 7.98744 -27.9302
vn -0.109114 0.314382 0.943005
v 10.8123 7.99671 -27.9342
vn -0.143269 0.39856 0.905883
v 10.8087 8.00556 -27.9393
vn -0.176044 0.4789 0.860037
v 10.8053 8.0139 -27.9453
vn -0.207124 0.554628 0.805908
v 10.8021 8.02165 -27.9521
vn -0.236209 0.625014 0.744018
v 10.7991 8.02874 -27.9597
vn -0.263019 0.689381 0.674963
v 10.7965 8.0351 -27.968
vn -0.287296 0.747109 0.599407
v 10.7941 8.04067 -27.977
vn -0.308807 0.797642 0.518079
v 10.7921 8.04538 -27.9865
vn -0.327343 0.840493 0.431761
v 10.7904 8.04921 -27.9964
vn -0.342727 0.87525 0.341286
v 10.789 8.05211 -28.0068
vn -0.35481 0.901577 0.247523
v 10.7881 8.05406 -28.0173
vn -0.363477 0.919222 0.151377
v 10.7875 8.05502 -28.0281
vn -0.368642 0.928015 0.0537729
v 10.7873 8.05501 -28.0389
vn -0.370258 0.92787 -0.044349
v 10.7876 8.05401 -28.0497
vn -0.368308 0.918789 -0.142044
v 10.7882 8.05203 -28.0603
vn -0.362811 0.90086 -0.238371
v 10.7891 8.0491 -28.0706
vn -0.353819 0.874254 -0.332402
v 10.7905 8.04525 -28.0806
vn -0.341421 0.83923 -0.423232
v 10.7922 8.0405 -28.0902
vn -0.325734 0.796123 -0.509986
v 10.7943 8.03491 -28.0992
vn -0.30691 0.745349 -0.591829
v 10.7967 8.02852 -28.1076
vn -0.28513 0.687397 -0.667972
v 10.7994 8.02141 -28.1153
vn -0.260605 0.622825 -0.737682
v 10.8024 8.01364 -28.1222
vn -0.23357 0.552255 -0.800288
v 10.8056 8.00528 -28.1282
vn -0.204285 0.476366 -0.855186
v 10.8091 7.99642 -28.1333
vn -0.173033 0.395889 -0.901849
v 10.8127 7.98713 -28.1375
vn -0.140115 0.3116 -0.939826
v 10.8165 7.97752 -28.1407
vn -0.105847 0.22431 -0.968752
v 10.8203 7.96767 -28.1429
vn -0.0705595 0.13486 -0.988349
v 10.8243 7.95767 -28.144
vn -0.0345928 0.0441113 -0.998428
v 10.8283 7.94763 -28.144
vn 0.00170701 -0.0470624 -0.99889
v 10.8323 7.93764 -28.143
vn 0.0379904 -0.137783 -0.989734
v 10.8363 7.92779 -28.141
vn 0.073908 -0.227177 -0.971045
v 10.8401 7.91819 -28.1379
vn 0.109114 -0.314382 -0.943005
v 10.8439 7.90892 -28.1338
vn 0.143269 -0.39856 -0.905883
v 10.8475 7.90007 -28.1287
vn 0.176044 -0.4789 -0.860037
v 10.8509 7.89173 -28.1228
vn 0.207124 -0.554628 -0.805908
v 10.8541 7.88398 -28.116
vn 0.236209 -0.625014 -0.744018
v 10.8571 7.87689 -28.1084
vn 0.263019 -0.689381 -0.674963
v 10.8598 7.87053 -28.1
vn 0.287296 -0.747109 -0.599407
v 10.8621 7.86496 -28.0911
vn 0.308807 -0.797642 -0.518079
v 10.8642 7.86024 -28.0816
vn 0.327343 -0.840493 -0.431761
v 10.8659 7.85642 -28.0716
vn 0.342727 -0.87525 -0.341286
v 10.8672 7.85352 -28.0613
vn 0.35481 -0.901577 -0.247523
v 10.8681 7.85157 -28.0507
vn 0.363477 -0.919222 -0.151377
v 10.8687 7.8506 -28.0399
vn 0.368642 -0.928015 -0.0537729
v 10.8689 7.85062 -28.0291
vn 0.370258 -0.92787 0.044349
v 10.8687 7.85162 -28.0184
vn 0.368308 -0.918789 0.142044
v 10.8681 7.8536 -28.0078
vn 0.362811 -0.90086 0.238371
v 10.8671 7.85653 -27.9974
vn 0.353819 -0.874254 0.332402
v 10.8657 7.86038 -27.9874
vn 0.341421 -0.83923 0.423232
v 10.864 7.86513 -27.9779
vn 0.325734 -0.796123 0.509986
v 10.8619 7.87072 -27.9688
vn 0.30691 -0.745349 0.591829
v 10.8595 7.87711 -27.9605
vn 0.28513 -0.687397 0.667972
v 10.8568 7.88422 -27.9528
vn 0.260605 -0.622825 0.737682
v 10.8538 7.89199 -27.9459
vn 0.23357 -0.552255 0.800288
v 10.8506 7.90035 -27.9398
vn 0.204285 -0.476366 0.855186
v 10.8472 7.90921 -27.9347
vn 0.173033 -0.395889 0.901849
v 10.8435 7.9185 -27.9305
vn 0.140115 -0.3116 0.939826
v 11.5067 8.20398 -27.9761
vn 0.184327 -0.192096 0.96391
v 11.503 8.21316 -27.9741
vn 0.148662 -0.102801 0.98353
v 11.4992 8.22245 -27.9731
vn 0.111565 -0.0125156 0.993678
v 11.4953 8.23174 -27.973
vn 0.0733936 0.07789 0.994257
v 11.4913 8.24096 -27.9739
vn 0.0345156 0.167545 0.98526
v 11.4873 8.25002 -27.9758
vn -0.00469485 0.255587 0.966775
v 11.4832 8.25882 -27.9787
vn -0.0438601 0.341168 0.938979
v 11.4793 8.26728 -27.9825
vn -0.0826029 0.423463 0.90214
v 11.4754 8.27533 -27.9872
vn -0.12055 0.501679 0.856613
v 11.4716 8.28288 -27.9927
vn -0.157337 0.575065 0.802836
v 11.4679 8.28985 -27.999
vn -0.192608 0.642912 0.741328
v 11.4645 8.29619 -28.0061
vn -0.226024 0.704567 0.67268
v 11.4613 8.30184 -28.0138
vn -0.257263 0.759437 0.597554
v 11.4583 8.30673 -28.0221
vn -0.286025 0.806993 0.516673
v 11.4557 8.31082 -28.031
vn -0.312032 0.846778 0.430817
v 11.4533 8.31407 -28.0402
vn -0.335035 0.878407 0.340811
v 11.4513 8.31645 -28.0498
vn -0.35481 0.901577 0.247523
v 11.4496 8.31794 -28.0596
vn -0.371169 0.916065 0.151852
v 11.4483 8.31853 -28.0696
vn -0.383953 0.92173 0.0547176
v 11.4473 8.3182 -28.0797
vn -0.39304 0.918518 -0.0429434
v 11.4468 8.31696 -28.0897
vn -0.398341 0.906461 -0.140191
v 11.4466 8.31482 -28.0995
vn -0.399806 0.885674 -0.236088
v 11.4469 8.3118 -28.1092
vn -0.39742 0.856357 -0.329712
v 11.4475 8.30794 -28.1185
vn -0.391208 0.818793 -0.42016
v 11.4485 8.30327 -28.1274
vn -0.381227 0.773344 -0.506562
v 11.4499 8.29783 -28.1357
vn -0.367576 0.720447 -0.588086
v 11.4517 8.29167 -28.1435
vn -0.350384 0.660611 -0.663946
v 11.4538 8.28486 -28.1507
vn -0.329818 0.594414 -0.733411
v 11.4563 8.27747 -28.1571
vn -0.306076 0.522492 -0.795814
v 11.459 8.26955 -28.1627
vn -0.279386 0.445538 -0.850552
v 11.462 8.2612 -28.1675
vn -0.250005 0.364294 -0.8971
v 11.4653 8.25248 -28.1714
vn -0.218217 0.279541 -0.935007
v 11.4688 8.24349 -28.1744
vn -0.184327 0.192096 -0.96391
v 11.4725 8.23431 -28.1764
vn -0.148662 0.102801 -0.98353
v 11.4763 8.22502 -28.1775
vn -0.111565 0.0125156 -0.993678
v 11.4802 8.21572 -28.1775
vn -0.0733936 -0.07789 -0.994257
v 11.4842 8.2065 -28.1766
vn -0.0345156 -0.167545 -0.98526
v 11.4882 8.19745 -28.1747
vn 0.00469485 -0.255587 -0.966775
v 11.4923 8.18865 -28.1718
vn 0.0438601 -0.341168 -0.938979
v 11.4962 8.18018 -28.168
vn 0.0826029 -0.423463 -0.90214
v 11.5002 8.17214 -28.1634
vn 0.12055 -0.501679 -0.856613
v 11.5039 8.16459 -28.1578
vn 0.157337 -0.575065 -0.802836
v 11.5076 8.15761 -28.1515
vn 0.192608 -0.642912 -0.741328
v 11.511 8.15127 -28.1444
vn 0.226024 -0.704567 -0.67268
v 11.5142 8.14563 -28.1367
vn 0.257263 -0.759437 -0.597554
v 11.5172 8.14074 -28.1284
vn 0.286025 -0.806993 -0.516673
v 11.5198 8.13665 -28.1196
vn 0.312032 -0.846778 -0.430817
v 11.5222 8.13339 -28.1103
vn 0.335035 -0.878407 -0.340811
v 11.5242 8.13101 -28.1007
vn 0.35481 -0.901577 -0.247523
v 11.5259 8.12952 -28.0909
vn 0.371169 -0.916065 -0.151852
v 11.5272 8.12894 -28.0809
vn 0.383953 -0.92173 -0.0547176
v 11.5282 8.12927 -28.0708
vn 0.39304 -0.918518 0.0429434
v 11.5287 8.13051 -28.0608
vn 0.398341 -0.906461 0.140191
v 11.5289 8.13265 -28.051
vn 0.399806 -0.885674 0.236088
v 11.5286 8.13566 -28.0414
vn 0.39742 -0.856357 0.329712
v 11.528 8.13953 -28.032
vn 0.391208 -0.818793 0.42016
v 11.527 8.1442 -28.0232
vn 0.381227 -0.773344 0.506562
v 11.5256 8.14964 -28.0148
vn 0.367576 -0.720447 0.588086
v 11.5238 8.15579 -28.007
vn 0.350384 -0.660611 0.663946
v 11.5217 8.1626 -27.9998
vn 0.329818 -0.594414 0.733411
v 11.5192 8.17 -27.9934
vn 0.306076 -0.522492 0.795814
v 11.5165 8.17791 -27.9878
vn 0.279386 -0.445538 0.850552
v 11.5135 8.18627 -27.983
vn 0.250005 -0.364294 0.8971
v 11.5102 8.19498 -27.9791
vn 0.218217 -0.279541 0.935007
f 1 66 2 
f 1 65 66 
f 2 67 3 
f 2 66 67 
f 3 68 4 
f 3 67 68 
f 4 69 5 
f 4 68 69 
f 5 70 6 
f 5 69 70 
f 6 71 7 
f 6 70 71 
f 7 72 8 
f 7 71 72 
f 8 73 9 
f 8 72 73 
f 9 74 10 
f 9 73 74 
f 10 75 11 
f 10 74 75 
f 11 76 12 
f 11 75 76 
f 12 77 13 
f 12 76 77 
f 13 78 14 
f 13 77 78 
f 14 79 15 
f 14 78 79 
f 15 80 16 
f 15 79 80 
f 16 81 17 
f 16 80 81 
f 17 82 18 
f 17 81 82 
f 18 83 19 
f 18 82 83 
f 19 84 20 
f 19 83 84 
f 20 85 21 
f 20 84 85 
f 21 86 22 
f 21 85 86 
f 22 87 23 
f 22 86 87 
f 23 88 24 
f 23 87 88 
f 24 89 25 
f 24 88 89 
f 25 90 26 
f 25 89 90 
f 26 91 27 
f 26 90 91 
f 27 92 28 
f 27 91 92 
f 28 93 29 
f 28 92 93 
f 29 94 30 
f 29 93 94 
f 30 95 31 
f 30 94 95 
f 31 96 32 
f 31 95 96 
f 32 97 33 
f 32 96 97 
f 33 98 34 
f 33 97 98 
f 34 99 35 
f 34 98 99 
f 35 100 36 
f 35 99 100 
f 36 101 37 
f 36 100 101 
f 37 102 38 
f 37 101 102 
f 38 103 39 
f 38 102 103 
f 39 104 40 
f 39 103 104 
f 40 105 41 
f 40 104 105 
f 41 106 42 
f 41 105 106 
f 42 107 43 
f 42 106 107 
f 43 108 44 
f 43 107 108 
f 44 109 45 
f 44 108 109 
f 45 110 46 
f 45 109 110 
f 46 111 47 
f 46 110 111 
f 47 112 48 
f 47 111 112 
f 48 113 49 
f 48 112 113 
f 49 114 50 
f 49 113 114 
f 50 115 51 
f 50 114 115 
f 51 116 52 
f 51 115 116 
f 52 117 53 
f 52 116 117 
f 53 118 54 
f 53 117 118 
f 54 119 55 
f 54 118 119 
f 55 120 56 
f 55 119 120 
f 56 121 57 
f 56 120 121 
f 57 122 58 
f 57 121 122 
f 58 123 59 
f 58 122 123 
f 59 124 60 
f 59 123 124 
f 60 125 61 
f 60 124 125 
f 61 126 62 
f 61 125 126 
f 62 127 63 
f 62 126 127 
f 63 128 64 
f 63 127 128 
f 64 65 1 
f 64 128 65 
f 65 130 66 
f 65 129 130 
f 66 131 67 
f 66 130 131 
f 67 132 68 
f 67 131 132 
f 68 133 69 
f 68 132 133 
f 69 134 70 
f 69 133 134 
f 70 135 71 
f 70 134 135 
f 71 136 72 
f 71 135 136 
f 72 137 73 
f 72 136 137 
f 73 138 74 
f 73 137 138 
f 74 139 75 
f 74 138 139 
f 75 140 76 
f 75 139 140 
f 76 141 77 
f 76 140 141 
f 77 142 78 
f 77 141 142 
f 78 143 79 
f 78 142 143 
f 79 144 80 
f 79 143 144 
f 80 145 81 
f 80 144 145 
f 81 146 82 
f 81 145 146 
f 82 147 83 
f 82 146 147 
f 83 148 84 
f 83 147 148 
f 84 149 85 
f 84 148 149 
f 85 150 86 
f 85 149 150 
f 86 151 87 
f 86 150 151 
f 87 152 88 
f 87 151 152 
f 88 153 89 
f 88 152 153 
f 89 154 90 
f 89 153 154 
f 90 155 91 
f 90 154 155 
f 91 156 92 
f 91 155 156 
f 92 157 93 
f 92 156 157 
f 93 158 94 
f 93 157 158 
f 94 159 95 
f 94 158 159 
f 95 160 96 
f 95 159 160 
f 96 161 97 
f 96 160 161 
f 97 162 98 
f 97 161 162 
f 98 163 99 
f 98 162 163 
f 99 164 100 
f 99 163 164 
f 100 165 101 
f 100 164 165 
f 101 166 102 
f 101 165 166 
f 102 167 103 
f 102 166 167 
f 103 168 104 
f 103 167 168 
f 104 169 105 
f 104 168 169 
f 105 170 106 
f 105 169 170 
f 106 171 107 
f 106 170 171 
f 107 172 108 
f 107 171 172 
f 108 173 109 
f 108 172 173 
f 109 174 110 
f 109 173 174 
f 110 175 111 
f 110 174 175 
f 111 176 112 
f 111 175 176 
f 112 177 113 
f 112 176 177 
f 113 178 114 
f 113 177 178 
f 114 179 115 
f 114 178 179 
f 115 180 116 
f 115 179 180 
f 116 181 117 
f 116 180 181 
f 117 182 118 
f 117 181 182 
f 118 183 119 
f 118 182 183 
f 119 184 120 
f 119 183 184 
f 120 185 121 
f 120 184 185 
f 121 186 122 
f 121 185 186 
f 122 187 123 
f 122 186 187 
f 123 188 124 
f 123 187 188 
f 124 189 125 
f 124 188 189 
f 125 190 126 
f 125 189 190 
f 126 191 127 
f 126 190 191 
f 127 192 128 
f 127 191 192 
f 128 129 65 
f 128 192 129 
f 129 194 130 
f 129 193 194 
f 130 195 131 
f 130 194 195 
f 131 196 132 
f 131 195 196 
f 132 197 133 
f 132 196 197 
f 133 198 134 
f 133 197 198 
f 134 199 135 
f 134 198 199 
f 135 200 136 
f 135 199 200 
f 136 201 137 
f 136 200 201 
f 137 202 138 
f 137 201 202 
f 138 203 139 
f 138 202 203 
f 139 204 140 
f 139 203 204 
f 140 205 141 
f 140 204 205 
f 141 206 142 
f 141 205 206 
f 142 207 143 
f 142 206 207 
f 143 208 144 
f 143 207 208 
f 144 209 145 
f 144 208 209 
f 145 210 146 
f 145 209 210 
f 146 211 147 
f 146 210 211 
f 147 212 148 
f 147 211 212 
f 148 213 149 
f 148 212 213 
f 149 214 150 
f 149 213 214 
f 150 215 151 
f 150 214 215 
f 151 216 152 
f 151 215 216 
f 152 217 153 
f 152 216 217 
f 153 218 154 
f 153 217 218 
f 154 219 155 
f 154 218 219 
f 155 220 156 
f 155 219 220 
f 156 221 157 
f 156 220 221 
f 157 222 158 
f 157 221 222 
f 158 223 159 
f 158 222 223 
f 159 224 160 
f 159 223 224 
f 160 225 161 
f 160 224 225 
f 161 226 162 
f 161 225 226 
f 162 227 163 
f 162 226 227 
f 163 228 164 
f 163 227 228 
f 164 229 165 
f 164 228 229 
f 165 230 166 
f 165 229 230 
f 166 231 167 
f 166 230 231 
f 167 232 168 
f 167 231 232 
f 168 233 169 
f 168 232 233 
f 169 234 170 
f 169 233 234 
f 170 235 171 
f 170 234 235 
f 171 236 172 
f 171 235 236 
f 172 237 173 
f 172 236 237 
f 173 238 174 
f 173 237 238 
f 174 239 175 
f 174 238 239 
f 175 240 176 
f 175 239 240 
f 176 241 177 
f 176 240 241 
f 177 242 178 
f 177 241 242 
f 178 243 179 
f 178 242 243 
f 179 244 180 
f 179 243 244 
f 180 245 181 
f 180 244 245 
f 181 246 182 
f 181 245 246 
f 182 247 183 
f 182 246 247 
f 183 248 184 
f 183 247 248 
f 184 249 185 
f 184 248 249 
f 185 250 186 
f 185 249 250 
f 186 251 187 
f 186 250 251 
f 187 252 188 
f 187 251 252 
f 188 253 189 
f 188 252 253 
f 189 254 190 
f 189 253 254 
f 190 255 191 
f 190 254 255 
f 191 256 192 
f 191 255 256 
f 192 193 129 
f 192 256 193 
f 193 258 194 
f 193 257 258 
f 194 259 195 
f 194 258 259 
f 195 260 196 
f 195 259 260 
f 196 261 197 
f 196 260 261 
f 197 262 198 
f 197 261 262 
f 198 263 199 
f 198 262 263 
f 199 264 200 
f 199 263 264 
f 200 265 201 
f 200 264 265 
f 201 266 202 
f 201 265 266 
f 202 267 203 
f 202 266 267 
f 203 268 204 
f 203 267 268 
f 204 269 205 
f 204 268 269 
f 205 270 206 
f 205 269 270 
f 206 271 207 
f 206 270 271 
f 207 272 208 
f 207 271 272 
f 208 273 209 
f 208 272 273 
f 209 274 210 
f 209 273 274 
f 210 275 211 
f 210 274 275 
f 211 276 212 
f 211 275 276 
f 212 277 213 
f 212 276 277 
f 213 278 214 
f 213 277 278 
f 214 279 215 
f 214 278 279 
f 215 280 216 
f 215 279 280 
f 216 281 217 
f 216 280 281 
f 217 282 218 
f 217 281 282 
f 218 283 219 
f 218 282 283 
f 219 284 220 
f 219 283 284 
f 220 285 221 
f 220 284 285 
f 221 286 222 
f 221 285 286 
f 222 287 223 
f 222 286 287 
f 223 288 224 
f 223 287 288 
f 224 289 225 
f 224 288 289 
f 225 290 226 
f 225 289 290 
f 226 291 227 
f 226 290 291 
f 227 292 228 
f 227 291 292 
f 228 293 229 
f 228 292 293 
f 229 294 230 
f 229 293 294 
f 230 295 231 
f 230 294 295 
f 231 296 232 
f 231 295 296 
f 232 297 233 
f 232 296 297 
f 233 298 234 
f 233 297 298 
f 234 299 235 
f 234 298 299 
f 235 300 236 
f 235 299 300 
f 236 301 237 
f 236 300 301 
f 237 302 238 
f 237 301 302 
f 238 303 239 
f 238 302 303 
f 239 304 240 
f 239 303 304 
f 240 305 241 
f 240 304 305 
f 241 306 242 
f 241 305 306 
f 242 307 243 
f 242 306 307 
f 243 308 244 
f 243 307 308 
f 244 309 245 
f 244 308 309 
f 245 310 246 
f 245 309 310 
f 246 311 247 
f 246 310 311 
f 247 312 248 
f 247 311 312 
f 248 313 249 
f 248 312 313 
f 249 314 250 
f 249 313 314 
f 250 315 251 
f 250 314 315 
f 251 316 252 
f 251 315 316 
f 252 317 253 
f 252 316 317 
f 253 318 254 
f 253 317 318 
f 254 319 255 
f 254 318 319 
f 255 320 256 
f 255 319 320 
f 256 257 193 
f 256 320 257 
f 257 322 258 
f 257 321 322 
f 258 323 259 
f 258 322 323 
f 259 324 260 
f 259 323 324 
f 260 325 261 
f 260 324 325 
f 261 326 262 
f 261 325 326 
f 262 327 263 
f 262 326 327 
f 263 328 264 
f 263 327 328 
f 264 329 265 
f 264 328 329 
f 265 330 266 
f 265 329 330 
f 266 331 267 
f 266 330 331 
f 267 332 268 
f 267 331 332 
f 268 333 269 
f 268 332 333 
f 269 334 270 
f 269 333 334 
f 270 335 271 
f 270 334 335 
f 271 336 272 
f 271 335 336 
f 272 337 273 
f 272 336 337 
f 273 338 274 
f 273 337 338 
f 274 339 275 
f 274 338 339 
f 275 340 276 
f 275 339 340 
f 276 341 277 
f 276 340 341 
f 277 342 278 
f 277 341 342 
f 278 343 279 
f 278 342 343 
f 279 344 280 
f 279 343 344 
f 280 345 281 
f 280 344 345 
f 281 346 282 
f 281 345 346 
f 282 347 283 
f 282 346 347 
f 283 348 284 
f 283 347 348 
f 284 349 285 
f 284 348 349 
f 285 350 286 
f 285 349 350 
f 286 351 287 
f 286 350 351 
f 287 352 288 
f 287 351 352 
f 288 353 289 
f 288 352 353 
f 289 354 290 
f 289 353 354 
f 290 355 291 
f 290 354 355 
f 291 356 292 
f 291 355 356 
f 292 357 293 
f 292 356 357 
f 293 358 294 
f 293 357 358 
f 294 359 295 
f 294 358 359 
f 295 360 296 
f 295 359 360 
f 296 361 297 
f 296 360 361 
f 297 362 298 
f 297 361 362 
f 298 363 299 
f 298 362 363 
f 299 364 300 
f 299 363 364 
f 300 365 301 
f 300 364 365 
f 301 366 302 
f 301 365 366 
f 302 367 303 
f 302 366 367 
f 303 368 304 
f 303 367 368 
f 304 369 305 
f 304 368 369 
f 305 370 306 
f 305 369 370 
f 306 371 307 
f 306 370 371 
f 307 372 308 
f 307 371 372 
f 308 373 309 
f 308 372 373 
f 309 374 310 
f 309 373 374 
f 310 375 311 
f 310 374 375 
f 311 376 312 
f 311 375 376 
f 312 377 313 
f 312 376 377 
f 313 378 314 
f 313 377 378 
f 314 379 315 
f 314 378 379 
f 315 380 316 
f 315 379 380 
f 316 381 317 
f 316 380 381 
f 317 382 318 
f 317 381 382 
f 318 383 319 
f 318 382 383 
f 319 384 320 
f 319 383 384 
f 320 321 257 
f 320 384 321 
f 321 386 322 
f 321 385 386 
f 322 387 323 
f 322 386 387 
f 323 388 324 
f 323 387 388 
f 324 389 325 
f 324 388 389 
f 325 390 326 
f 325 389 390 
f 326 391 327 
f 326 390 391 
f 327 392 328 
f 327 391 392 
f 328 393 329 
f 328 392 393 
f 329 394 330 
f 329 393 394 
f 330 395 331 
f 330 394 395 
f 331 396 332 
f 331 395 396 
f 332 397 333 
f 332 396 397 
f 333 398 334 
f 333 397 398 
f 334 399 335 
f 334 398 399 
f 335 400 336 
f 335 399 400 
f 336 401 337 
f 336 400 401 
f 337 402 338 
f 337 401 402 
f 338 403 339 
f 338 402 403 
f 339 404 340 
f 339 403 404 
f 340 405 341 
f 340 404 405 
f 341 406 342 
f 341 405 406 
f 342 407 343 
f 342 406 407 
f 343 408 344 
f 343 407 408 
f 344 409 345 
f 344 408 409 
f 345 410 346 
f 345 409 410 
f 346 411 347 
f 346 410 411 
f 347 412 348 
f 347 411 412 
f 348 413 349 
f 348 412 413 
f 349 414 350 
f 349 413 414 
f 350 415 351 
f 350 414 415 
f 351 416 352 
f 351 415 416 
f 352 417 353 
f 352 416 417 
f 353 418 354 
f 353 417 418 
f 354 419 355 
f 354 418 419 
f 355 420 356 
f 355 419 420 
f 356 421 357 
f 356 420 421 
f 357 422 358 
f 357 421 422 
f 358 423 359 
f 358 422 423 
f 359 424 360 
f 359 423 424 
f 360 425 361 
f 360 424 425 
f 361 426 362 
f 361 425 426 
f 362 427 363 
f 362 426 427 
f 363 428 364 
f 363 427 428 
f 364 429 365 
f 364 428 429 
f 365 430 366 
f 365 429 430 
f 366 431 367 
f 366 430 431 
f 367 432 368 
f 367 431 432 
f 368 433 369 
f 368 432 433 
f 369 434 370 
f 369 433 434 
f 370 435 371 
f 370 434 435 
f 371 436 372 
f 371 435 436 
f 372 437 373 
f 372 436 437 
f 373 438 374 
f 373 437 438 
f 374 439 375 
f 374 438 439 
f 375 440 376 
f 375 439 440 
f 376 441 377 
f 376 440 441 
f 377 442 378 
f 377 441 442 
f 378 443 379 
f 378 442 443 
f 379 444 380 
f 379 443 444 
f 380 445 381 
f 380 444 445 
f 381 446 382 
f 381 445 446 
f 382 447 383 
f 382 446 447 
f 383 448 384 
f 383 447 448 
f 384 385 321 
f 384 448 385 
f 385 450 386 
f 385 449 450 
f 386 451 387 
f 386 450 451 
f 387 452 388 
f 387 451 452 
f 388 453 389 
f 388 452 453 
f 389 454 390 
f 389 453 454 
f 390 455 391 
f 390 454 455 
f 391 456 392 
f 391 455 456 
f 392 457 393 
f 392 456 457 
f 393 458 394 
f 393 457 458 
f 394 459 395 
f 394 458 459 
f 395 460 396 
f 395 459 460 
f 396 461 397 
f 396 460 461 
f 397 462 398 
f 397 461 462 
f 398 463 399 
f 398 462 463 
f 399 464 400 
f 399 463 464 
f 400 465 401 
f 400 464 465 
f 401 466 402 
f 401 465 466 
f 402 467 403 
f 402 466 467 
f 403 468 404 
f 403 467 468 
f 404 469 405 
f 404 468 469 
f 405 470 406 
f 405 469 470 
f 406 471 407 
f 406 470 471 
f 407 472 408 
f 407 471 472 
f 408 473 409 
f 408 472 473 
f 409 474 410 
f 409 473 474 
f 410 475 411 
f 410 474 475 
f 411 476 412 
f 411 475 476 
f 412 477 413 
f 412 476 477 
f 413 478 414 
f 413 477 478 
f 414 479 415 
f 414 478 479 
f 415 480 416 
f 415 479 480 
f 416 481 417 
f 416 480 481 
f 417 482 418 
f 417 481 482 
f 418 483 419 
f 418 482 483 
f 419 484 420 
f 419 483 484 
f 420 485 421 
f 420 484 485 
f 421 486 422 
f 421 485 486 
f 422 487 423 
f 422 486 487 
f 423 488 424 
f 423 487 488 
f 424 489 425 
f 424 488 489 
f 425 490 426 
f 425 489 490 
f 426 491 427 
f 426 490 491 
f 427 492 428 
f 427 491 492 
f 428 493 429 
f 428 492 493 
f 429 494 430 
f 429 493 494 
f 430 495 431 
f 430 494 495 
f 431 496 432 
f 431 495 496 
f 432 497 433 
f 432 496 497 
f 433 498 434 
f 433 497 498 
f 434 499 435 
f 434 498 499 
f 435 500 436 
f 435 499 500 
f 436 501 437 
f 436 500 501 
f 437 502 438 
f 437 501 502 
f 438 503 439 
f 438 502 503 
f 439 504 440 
f 439 503 504 
f 440 505 441 
f 440 504 505 
f 441 506 442 
f 441 505 506 
f 442 507 443 
f 442 506 507 
f 443 508 444 
f 443 507 508 
f 444 509 445 
f 444 508 509 
f 445 510 446 
f 445 509 510 
f 446 511 447 
f 446 510 511 
f 447 512 448 
f 447 511 512 
f 448 449 385 
f 448 512 449 
f 449 514 450 
f 449 513 514 
f 450 515 451 
f 450 514 515 
f 451 516 452 
f 451 515 516 
f 452 517 453 
f 452 516 517 
f 453 518 454 
f 453 517 518 
f 454 519 455 
f 454 518 519 
f 455 520 456 
f 455 519 520 
f 456 521 457 
f 456 520 521 
f 457 522 458 
f 457 521 522 
f 458 523 459 
f 458 522 523 
f 459 524 460 
f 459 523 524 
f 460 525 461 
f 460 524 525 
f 461 526 462 
f 461 525 526 
f 462 527 463 
f 462 526 527 
f 463 528 464 
f 463 527 528 
f 464 529 465 
f 464 528 529 
f 465 530 466 
f 465 529 530 
f 466 531 467 
f 466 530 531 
f 467 532 468 
f 467 531 532 
f 468 533 469 
f 468 532 533 
f 469 534 470 
f 469 533 534 
f 470 535 471 
f 470 534 535 
f 471 536 472 
f 471 535 536 
f 472 537 473 
f 472 536 537 
f 473 538 474 
f 473 537 538 
f 474 539 475 
f 474 538 539 
f 475 540 476 
f 475 539 540 
f 476 541 477 
f 476 540 541 
f 477 542 478 
f 477 541 542 
f 478 543 479 
f 478 542 543 
f 479 544 480 
f 479 543 544 
f 480 545 481 
f 480 544 545 
f 481 546 482 
f 481 545 546 
f 482 547 483 
f 482 546 547 
f 483 548 484 
f 483 547 548 
f 484 549 485 
f 484 548 549 
f 485 550 486 
f 485 549 550 
f 486 551 487 
f 486 550 551 
f 487 552 488 
f 487 551 552 
f 488 553 489 
f 488 552 553 
f 489 554 490 
f 489 553 554 
f 490 555 491 
f 490 554 555 
f 491 556 492 
f 491 555 556 
f 492 557 493 
f 492 556 557 
f 493 558 494 
f 493 557 558 
f 494 559 495 
f 494 558 559 
f 495 560 496 
f 495 559 560 
f 496 561 497 
f 496 560 561 
f 497 562 498 
f 497 561 562 
f 498 563 499 
f 498 562 563 
f 499 564 500 
f 499 563 564 
f 500 565 501 
f 500 564 565 
f 501 566 502 
f 501 565 566 
f 502 567 503 
f 502 566 567 
f 503 568 504 
f 503 567 568 
f 504 569 505 
f 504 568 569 
f 505 570 506 
f 505 569 570 
f 506 571 507 
f 506 570 571 
f 507 572 508 
f 507 571 572 
f 508 573 509 
f 508 572 573 
f 509 574 510 
f 509 573 574 
f 510 575 511 
f 510 574 575 
f 511 576 512 
f 511 575 576 
f 512 513 449 
f 512 576 513 
f 513 578 514 
f 513 577 578 
f 514 579 515 
f 514 578 579 
f 515 580 516 
f 515 579 580 
f 516 581 517 
f 516 580 581 
f 517 582 518 
f 517 581 582 
f 518 583 519 
f 518 582 583 
f 519 584 520 
f 519 583 584 
f 520 585 521 
f 520 584 585 
f 521 586 522 
f 521 585 586 
f 522 587 523 
f 522 586 587 
f 523 588 524 
f 523 587 588 
f 524 589 525 
f 524 588 589 
f 525 590 526 
f 525 589 590 
f 526 591 527 
f 526 590 591 
f 527 592 528 
f 527 591 592 
f 528 593 529 
f 528 592 593 
f 529 594 530 
f 529 593 594 
f 530 595 531 
f 530 594 595 
f 531 596 532 
f 531 595 596 
f 532 597 533 
f 532 596 597 
f 533 598 534 
f 533 597 598 
f 534 599 535 
f 534 598 599 
f 535 600 536 
f 535 599 600 
f 536 601 537 
f 536 600 601 
f 537 602 538 
f 537 601 602 
f 538 603 539 
f 538 602 603 
f 539 604 540 
f 539 603 604 
f 540 605 541 
f 540 604 605 
f 541 606 542 
f 541 605 606 
f 542 607 543 
f 542 606 607 
f 543 608 544 
f 543 607 608 
f 544 609 545 
f 544 608 609 
f 545 610 546 
f 545 609 610 
f 546 611 547 
f 546 610 611 
f 547 612 548 
f 547 611 612 
f 548 613 549 
f 548 612 613 
f 549 614 550 
f 549 613 614 
f 550 615 551 
f 550 614 615 
f 551 616 552 
f 551 615 616 
f 552 617 553 
f 552 616 617 
f 553 618 554 
f 553 617 618 
f 554 619 555 
f 554 618 619 
f 555 620 556 
f 555 619 620 
f 556 621 557 
f 556 620 621 
f 557 622 558 
f 557 621 622 
f 558 623 559 
f 558 622 623 
f 559 624 560 
f 559 623 624 
f 560 625 561 
f 560 624 625 
f 561 626 562 
f 561 625 626 
f 562 627 563 
f 562 626 627 
f 563 628 564 
f 563 627 628 
f 564 629 565 
f 564 628 629 
f 565 630 566 
f 565 629 630 
f 566 631 567 
f 566 630 631 
f 567 632 568 
f 567 631 632 
f 568 633 569 
f 568 632 633 
f 569 634 570 
f 569 633 634 
f 570 635 571 
f 570 634 635 
f 571 636 572 
f 571 635 636 
f 572 637 573 
f 572 636 637 
f 573 638 574 
f 573 637 638 
f 574 639 575 
f 574 638 639 
f 575 640 576 
f 575 639 640 
f 576 577 513 
f 576 640 577 
