# Branch
v -11.3377 9.61151 -27.7117
vn -0.0465455 0.0089895 -0.998876
v -11.394 9.58808 -27.7063
vn -0.136793 -0.0285668 -0.990188
v -11.4495 9.56482 -27.6949
vn -0.225723 -0.0658479 -0.971964
v -11.5036 9.54195 -27.6777
vn -0.312479 -0.102495 -0.944379
v -11.5559 9.5197 -27.6548
vn -0.396226 -0.138155 -0.907699
v -11.6058 9.49828 -27.6265
vn -0.476157 -0.172484 -0.862278
v -11.6528 9.47789 -27.593
vn -0.551502 -0.205152 -0.808553
v -11.6965 9.45874 -27.5546
vn -0.621536 -0.235845 -0.747041
v -11.7365 9.441 -27.5117
vn -0.685584 -0.264266 -0.678334
v -11.7723 9.42486 -27.4648
vn -0.74303 -0.290142 -0.603095
v -11.8037 9.41046 -27.4142
vn -0.79332 -0.313224 -0.522047
v -11.8303 9.39793 -27.3605
vn -0.83597 -0.33329 -0.435972
v -11.8519 9.38742 -27.3041
vn -0.870569 -0.350146 -0.345699
v -11.8682 9.379 -27.2457
vn -0.896784 -0.363629 -0.252096
v -11.8792 9.37277 -27.1858
vn -0.914362 -0.373611 -0.156065
v -11.8847 9.36879 -27.1249
vn -0.923135 -0.379994 -0.0585311
v -11.8846 9.36709 -27.0637
vn -0.923017 -0.382718 0.0395663
v -11.879 9.36769 -27.0028
vn -0.914011 -0.381757 0.137283
v -11.8679 9.37059 -26.9426
vn -0.896201 -0.377118 0.233677
v -11.8514 9.37575 -26.8839
vn -0.869761 -0.368848 0.327821
v -11.8297 9.38312 -26.8271
vn -0.834945 -0.357026 0.418808
v -11.8029 9.39265 -26.7728
vn -0.792087 -0.341765 0.505761
v -11.7714 9.40422 -26.7216
vn -0.741602 -0.323213 0.587844
v -11.7355 9.41774 -26.6739
vn -0.683974 -0.301548 0.664265
v -11.6954 9.43307 -26.6302
vn -0.619759 -0.276979 0.734289
v -11.6516 9.45007 -26.591
vn -0.549576 -0.249743 0.797242
v -11.6045 9.46856 -26.5565
vn -0.4741 -0.220101 0.852517
v -11.5545 9.48838 -26.5271
vn -0.394058 -0.18834 0.899581
v -11.5022 9.50933 -26.5031
vn -0.310221 -0.154765 0.937982
v -11.4481 9.53121 -26.4848
vn -0.223397 -0.1197 0.96735
v -11.3925 9.55381 -26.4723
vn -0.134421 -0.0834814 0.987402
v -11.3362 9.57691 -26.4657
vn -0.0441502 -0.0464592 0.997944
v -11.2796 9.6003 -26.4651
vn 0.0465455 -0.0089895 0.998876
v -11.2233 9.62373 -26.4706
vn 0.136793 0.0285668 0.990188
v -11.1678 9.64699 -26.4819
vn 0.225723 0.0658479 0.971964
v -11.1137 9.66986 -26.4991
vn 0.312479 0.102495 0.944379
v -11.0614 9.69211 -26.522
vn 0.396226 0.138155 0.907699
v -11.0115 9.71353 -26.5504
vn 0.476157 0.172484 0.862278
v -10.9645 9.73392 -26.5839
vn 0.551502 0.205152 0.808553
v -10.9208 9.75307 -26.6223
vn 0.621536 0.235845 0.747041
v -10.8809 9.7708 -26.6652
vn 0.685584 0.264266 0.678334
v -10.845 9.78695 -26.7121
vn 0.74303 0.290142 0.603095
v -10.8136 9.80135 -26.7627
vn 0.79332 0.313224 0.522047
v -10.787 9.81387 -26.8164
vn 0.83597 0.33329 0.435972
v -10.7654 9.82439 -26.8727
vn 0.870569 0.350146 0.345699
v -10.7491 9.83281 -26.9311
vn 0.896784 0.363629 0.252096
v -10.7381 9.83903 -26.991
vn 0.914362 0.373611 0.156065
v -10.7326 9.84302 -27.0519
vn 0.923135 0.379994 0.0585311
v -10.7327 9.84472 -27.1131
vn 0.923017 0.382718 -0.0395663
v -10.7383 9.84412 -27.1741
vn 0.914011 0.381757 -0.137283
v -10.7494 9.84122 -27.2342
vn 0.896201 0.377118 -0.233677
v -10.7659 9.83606 -27.293
vn 0.869761 0.368848 -0.327821
v -10.7877 9.82869 -27.3498
vn 0.834945 0.357026 -0.418808
v -10.8144 9.81916 -27.404
vn 0.792087 0.341765 -0.505761
v -10.8459 9.80759 -27.4552
vn 0.741602 0.323213 -0.587844
v -10.8819 9.79407 -27.5029
vn 0.683974 0.301548 -0.664265
v -10.9219 9.77874 -27.5466
vn 0.619759 0.276979 -0.734289
v -10.9657 9.76174 -27.5859
vn 0.549576 0.249743 -0.797242
v -11.0128 9.74325 -27.6204
vn 0.4741 0.220101 -0.852517
v -11.0628 9.72343 -27.6498
vn 0.394058 0.18834 -0.899581
v -11.1151 9.70248 -27.6737
vn 0.310221 0.154765 -0.937982
v -11.1693 9.6806 -27.692
vn 0.223397 0.1197 -0.96735
v -11.2248 9.658 -27.7046
vn 0.134421 0.0834814 -0.987402
v -11.2811 9.63489 -27.7111
vn 0.0441502 0.0464592 -0.997944
v -10.6128 7.86224 -27.7216
vn -0.035363 -0.0180145 -0.999212
v -10.6681 7.83934 -27.7163
vn -0.125664 -0.0554408 -0.990522
v -10.7226 7.81676 -27.7051
vn -0.214755 -0.0923331 -0.972294
v -10.7759 7.79472 -27.6882
vn -0.301778 -0.128336 -0.944701
v -10.8273 7.77344 -27.6658
vn -0.385895 -0.163103 -0.90801
v -10.8765 7.75313 -27.638
vn -0.466295 -0.1963 -0.862575
v -10.923 7.73397 -27.6051
vn -0.542204 -0.227606 -0.808833
v -10.9663 7.71615 -27.5674
vn -0.612892 -0.256719 -0.747301
v -11.0059 7.69985 -27.5254
vn -0.677677 -0.283361 -0.678572
v -11.0416 7.68521 -27.4793
vn -0.735936 -0.307274 -0.603308
v -11.0729 7.67239 -27.4297
vn -0.787108 -0.328227 -0.522234
v -11.0996 7.6615 -27.377
vn -0.830699 -0.34602 -0.436131
v -11.1214 7.65265 -27.3217
vn -0.86629 -0.36048 -0.345827
v -11.138 7.64592 -27.2644
vn -0.893538 -0.371468 -0.252193
v -11.1494 7.64139 -27.2056
vn -0.912181 -0.378879 -0.156131
v -11.1555 7.63908 -27.1459
vn -0.922039 -0.382641 -0.0585641
v -11.1561 7.63904 -27.0859
vn -0.923017 -0.382718 0.0395663
v -11.1512 7.64125 -27.026
vn -0.915107 -0.37911 0.137316
v -11.141 7.64569 -26.967
vn -0.898383 -0.37185 0.233743
v -11.1255 7.65232 -26.9094
vn -0.873007 -0.361009 0.327919
v -11.1048 7.66109 -26.8537
vn -0.839224 -0.346692 0.418936
v -11.0792 7.67189 -26.8004
vn -0.797359 -0.329036 0.50592
v -11.0488 7.68464 -26.7502
vn -0.747814 -0.30821 0.588031
v -11.0141 7.6992 -26.7034
vn -0.691068 -0.284417 0.664479
v -10.9753 7.71544 -26.6605
vn -0.627666 -0.257885 0.734527
v -10.9328 7.7332 -26.622
vn -0.55822 -0.228869 0.797502
v -10.887 7.7523 -26.5881
vn -0.483398 -0.197648 0.852796
v -10.8384 7.77257 -26.5593
vn -0.40392 -0.164525 0.899878
v -10.7874 7.79382 -26.5358
vn -0.320552 -0.129817 0.938293
v -10.7344 7.81582 -26.5178
vn -0.234098 -0.0938584 0.967672
v -10.6801 7.83838 -26.5056
vn -0.145388 -0.0569963 0.987732
v -10.625 7.86128 -26.4991
vn -0.0552788 -0.0195852 0.998279
v -10.5695 7.88429 -26.4985
vn 0.035363 0.0180145 0.999212
v -10.5143 7.9072 -26.5039
vn 0.125664 0.0554408 0.990522
v -10.4597 7.92978 -26.515
vn 0.214755 0.0923331 0.972294
v -10.4065 7.95181 -26.5319
vn 0.301778 0.128336 0.944701
v -10.355 7.97309 -26.5544
vn 0.385895 0.163103 0.90801
v -10.3058 7.9934 -26.5822
vn 0.466295 0.1963 0.862575
v -10.2593 8.01256 -26.6151
vn 0.542204 0.227606 0.808833
v -10.2161 8.03038 -26.6527
vn 0.612892 0.256719 0.747301
v -10.1764 8.04669 -26.6948
vn 0.677677 0.283361 0.678572
v -10.1408 8.06132 -26.7408
vn 0.735936 0.307274 0.603308
v -10.1094 8.07415 -26.7905
vn 0.787108 0.328227 0.522234
v -10.0828 8.08504 -26.8432
vn 0.830699 0.34602 0.436131
v -10.061 8.09389 -26.8984
vn 0.86629 0.36048 0.345827
v -10.0443 8.10061 -26.9557
vn 0.893538 0.371468 0.252193
v -10.0329 8.10515 -27.0145
vn 0.912181 0.378879 0.156131
v -10.0269 8.10745 -27.0742
vn 0.922039 0.382641 0.0585641
v -10.0263 8.1075 -27.1343
vn 0.923017 0.382718 -0.0395663
v -10.0311 8.10529 -27.1941
vn 0.915107 0.37911 -0.137316
v -10.0413 8.10084 -27.2531
vn 0.898383 0.37185 -0.233743
v -10.0569 8.09421 -27.3108
vn 0.873007 0.361009 -0.327919
v -10.0776 8.08545 -27.3665
vn 0.839224 0.346692 -0.418936
v -10.1032 8.07464 -27.4197
vn 0.797359 0.329036 -0.50592
v -10.1335 8.0619 -27.47
vn 0.747814 0.30821 -0.588031
v -10.1682 8.04733 -27.5167
vn 0.691068 0.284417 -0.664479
v -10.207 8.0311 -27.5596
vn 0.627666 0.257885 -0.734527
v -10.2495 8.01334 -27.5982
vn 0.55822 0.228869 -0.797502
v -10.2953 7.99423 -27.632
vn 0.483398 0.197648 -0.852796
v -10.344 7.97396 -27.6608
vn 0.40392 0.164525 -0.899878
v -10.395 7.95272 -27.6843
vn 0.320552 0.129817 -0.938293
v -10.4479 7.93071 -27.7023
vn 0.234098 0.0938584 -0.967672
v -10.5022 7.90815 -27.7146
vn 0.145388 0.0569963 -0.987732
v -10.5573 7.88525 -27.721
vn 0.0552788 0.0195852 -0.998279
v -9.8889 6.12106 -27.6761
vn -0.0240647 -0.0452088 -0.998688
v -9.94312 6.09868 -27.6709
vn -0.11442 -0.0825041 -0.990001
v -9.99667 6.07678 -27.66
vn -0.203674 -0.119005 -0.971779
v -10.0491 6.05557 -27.6434
vn -0.290966 -0.154359 -0.944199
v -10.0997 6.03524 -27.6214
vn -0.375456 -0.188228 -0.907526
v -10.1483 6.01601 -27.5941
vn -0.456331 -0.220283 -0.862112
v -10.1942 5.99805 -27.5619
vn -0.53281 -0.250217 -0.808397
v -10.237 5.98153 -27.525
vn -0.604158 -0.277741 -0.746895
v -10.2763 5.96662 -27.4838
vn -0.669688 -0.30259 -0.678201
v -10.3118 5.95346 -27.4387
vn -0.728769 -0.324526 -0.602976
v -10.343 5.94217 -27.39
vn -0.780831 -0.343335 -0.521943
v -10.3697 5.93287 -27.3384
vn -0.825373 -0.358839 -0.435884
v -10.3917 5.92564 -27.2842
vn -0.861966 -0.370886 -0.345627
v -10.4087 5.92055 -27.2281
vn -0.890258 -0.379362 -0.252041
v -10.4205 5.91766 -27.1705
vn -0.909977 -0.384184 -0.156028
v -10.4271 5.91699 -27.112
vn -0.920932 -0.385307 -0.0585127
v -10.4283 5.91854 -27.0531
vn -0.923017 -0.382718 0.0395663
v -10.4242 5.92231 -26.9945
vn -0.916214 -0.376444 0.137264
v -10.4148 5.92825 -26.9367
vn -0.900587 -0.366545 0.23364
v -10.4003 5.9363 -26.8802
vn -0.876287 -0.353115 0.327766
v -10.3806 5.9464 -26.8256
vn -0.843548 -0.336285 0.418736
v -10.3561 5.95844 -26.7734
vn -0.802685 -0.316216 0.505672
v -10.3269 5.97231 -26.7242
vn -0.754091 -0.293102 0.587739
v -10.2934 5.98788 -26.6783
vn -0.698236 -0.267165 0.664146
v -10.2559 6.00498 -26.6363
vn -0.635656 -0.238655 0.734156
v -10.2147 6.02347 -26.5986
vn -0.566954 -0.207847 0.797097
v -10.1702 6.04316 -26.5654
vn -0.492792 -0.175037 0.85236
v -10.1228 6.06386 -26.5372
vn -0.413884 -0.140542 0.899415
v -10.0731 6.08537 -26.5141
vn -0.330991 -0.104692 0.937808
v -10.0214 6.10748 -26.4965
vn -0.244909 -0.0678351 0.96717
v -9.96835 6.12999 -26.4845
vn -0.156469 -0.0303245 0.987217
v -9.91438 6.15267 -26.4782
vn -0.0665227 0.00747818 0.997757
v -9.86002 6.17531 -26.4776
vn 0.0240647 0.0452088 0.998688
v -9.8058 6.19769 -26.4828
vn 0.11442 0.0825041 0.990001
v -9.75225 6.21959 -26.4937
vn 0.203674 0.119005 0.971779
v -9.69987 6.24081 -26.5103
vn 0.290966 0.154359 0.944199
v -9.64917 6.26113 -26.5323
vn 0.375456 0.188228 0.907526
v -9.60064 6.28037 -26.5595
vn 0.456331 0.220283 0.862112
v -9.55475 6.29833 -26.5918
vn 0.53281 0.250217 0.808397
v -9.51194 6.31484 -26.6287
vn 0.604158 0.277741 0.746895
v -9.47262 6.32975 -26.6699
vn 0.669688 0.30259 0.678201
v -9.43717 6.34292 -26.715
vn 0.728769 0.324526 0.602976
v -9.40593 6.3542 -26.7637
vn 0.780831 0.343335 0.521943
v -9.3792 6.3635 -26.8153
vn 0.825373 0.358839 0.435884
v -9.35725 6.37073 -26.8695
vn 0.861966 0.370886 0.345627
v -9.34027 6.37582 -26.9256
vn 0.890258 0.379362 0.252041
v -9.32844 6.37871 -26.9832
vn 0.909977 0.384184 0.156028
v -9.32187 6.37939 -27.0417
vn 0.920932 0.385307 0.0585127
v -9.32061 6.37783 -27.1006
vn 0.923017 0.382718 -0.0395663
v -9.3247 6.37407 -27.1592
vn 0.916214 0.376444 -0.137264
v -9.33407 6.36813 -27.217
vn 0.900587 0.366545 -0.23364
v -9.34865 6.36007 -27.2735
vn 0.876287 0.353115 -0.327766
v -9.3683 6.34997 -27.3281
vn 0.843548 0.336285 -0.418736
v -9.39282 6.33793 -27.3803
vn 0.802685 0.316216 -0.505672
v -9.42198 6.32406 -27.4295
vn 0.754091 0.293102 -0.587739
v -9.45549 6.3085 -27.4754
vn 0.698236 0.267165 -0.664146
v -9.49304 6.29139 -27.5174
vn 0.635656 0.238655 -0.734156
v -9.53427 6.2729 -27.5551
vn 0.566954 0.207847 -0.797097
v -9.57877 6.25322 -27.5883
vn 0.492792 0.175037 -0.85236
v -9.62611 6.23252 -27.6165
vn 0.413884 0.140542 -0.899415
v -9.67585 6.21101 -27.6396
vn 0.330991 0.104692 -0.937808
v -9.72751 6.18889 -27.6572
vn 0.244909 0.0678351 -0.96717
v -9.78057 6.16638 -27.6692
vn 0.156469 0.0303245 -0.987217
v -9.83454 6.1437 -27.6755
vn 0.0665227 -0.00747818 -0.997757
v -9.16599 4.38802 -27.5752
vn -0.0126787 -0.072524 -0.997286
v -9.21916 4.36616 -27.5701
vn -0.103089 -0.109688 -0.988606
v -9.27174 4.34493 -27.5594
vn -0.192507 -0.145795 -0.970404
v -9.32323 4.32452 -27.5432
vn -0.280071 -0.180498 -0.942858
v -9.37314 4.30514 -27.5217
vn -0.364937 -0.213463 -0.906231
v -9.42098 4.28696 -27.495
vn -0.446289 -0.244373 -0.860876
v -9.46629 4.27017 -27.4635
vn -0.523343 -0.272928 -0.807231
v -9.50864 4.25492 -27.4273
vn -0.595357 -0.298856 -0.745812
v -9.54762 4.24137 -27.387
vn -0.661637 -0.321905 -0.67721
v -9.58285 4.22963 -27.3428
vn -0.721545 -0.341854 -0.602086
v -9.61399 4.21984 -27.2952
vn -0.774505 -0.358511 -0.521164
v -9.64075 4.21207 -27.2447
vn -0.820005 -0.371715 -0.435223
v -9.66286 4.20641 -27.1917
vn -0.857609 -0.381339 -0.34509
v -9.68012 4.20291 -27.1367
vn -0.886953 -0.387291 -0.251634
v -9.69235 4.20161 -27.0803
vn -0.907755 -0.389513 -0.155755
v -9.69945 4.20251 -27.0231
vn -0.919816 -0.387984 -0.0583753
v -9.70133 4.2056 -26.9655
vn -0.923017 -0.382718 0.0395663
v -9.69798 4.21087 -26.9081
vn -0.91733 -0.373767 0.137127
v -9.68944 4.21825 -26.8515
vn -0.902808 -0.361216 0.233367
v -9.67579 4.22767 -26.7962
vn -0.879592 -0.345186 0.327359
v -9.65716 4.23906 -26.7428
vn -0.847905 -0.325832 0.418199
v -9.63372 4.25228 -26.6918
vn -0.808052 -0.30334 0.505012
v -9.60571 4.26723 -26.6436
vn -0.760417 -0.277927 0.586961
v -9.57339 4.28375 -26.5987
vn -0.705459 -0.249837 0.663257
v -9.53708 4.30168 -26.5576
vn -0.643707 -0.219341 0.733165
v -9.49712 4.32086 -26.5206
vn -0.575755 -0.186732 0.796013
v -9.4539 4.34109 -26.4882
vn -0.502259 -0.152325 0.851195
v -9.40783 4.36219 -26.4606
vn -0.423926 -0.116452 0.898179
v -9.35936 4.38394 -26.438
vn -0.34151 -0.0794566 0.936514
v -9.30896 4.40615 -26.4208
vn -0.255805 -0.0416962 0.965829
v -9.25712 4.42859 -26.409
vn -0.167637 -0.00353419 0.985843
v -9.20432 4.45105 -26.4028
vn -0.0778539 0.0346618 0.996362
v -9.15108 4.47332 -26.4023
vn 0.0126787 0.072524 0.997286
v -9.09791 4.49517 -26.4074
vn 0.103089 0.109688 0.988606
v -9.04533 4.5164 -26.4181
vn 0.192507 0.145795 0.970404
v -8.99384 4.53681 -26.4343
vn 0.280071 0.180498 0.942858
v -8.94393 4.5562 -26.4558
vn 0.364937 0.213463 0.906231
v -8.89609 4.57437 -26.4825
vn 0.446289 0.244373 0.860876
v -8.85078 4.59117 -26.514
vn 0.523343 0.272928 0.807231
v -8.80843 4.60641 -26.5502
vn 0.595357 0.298856 0.745812
v -8.76945 4.61997 -26.5905
vn 0.661637 0.321905 0.67721
v -8.73422 4.6317 -26.6347
vn 0.721545 0.341854 0.602086
v -8.70308 4.64149 -26.6823
vn 0.774505 0.358511 0.521164
v -8.67632 4.64926 -26.7328
vn 0.820005 0.371715 0.435223
v -8.65421 4.65492 -26.7858
vn 0.857609 0.381339 0.34509
v -8.63695 4.65842 -26.8408
vn 0.886953 0.387291 0.251634
v -8.62472 4.65973 -26.8972
vn 0.907755 0.389513 0.155755
v -8.61762 4.65883 -26.9544
vn 0.919816 0.387984 0.0583753
v -8.61574 4.65573 -27.012
vn 0.923017 0.382718 -0.0395663
v -8.61909 4.65047 -27.0694
vn 0.91733 0.373767 -0.137127
v -8.62763 4.64308 -27.126
vn 0.902808 0.361216 -0.233367
v -8.64128 4.63366 -27.1813
vn 0.879592 0.345186 -0.327359
v -8.65991 4.62228 -27.2347
vn 0.847905 0.325832 -0.418199
v -8.68335 4.60905 -27.2857
vn 0.808052 0.30334 -0.505012
v -8.71136 4.5941 -27.3339
vn 0.760417 0.277927 -0.586961
v -8.74368 4.57759 -27.3788
vn 0.705459 0.249837 -0.663257
v -8.77999 4.55965 -27.4199
vn 0.643707 0.219341 -0.733165
v -8.81995 4.54048 -27.4569
vn 0.575755 0.186732 -0.796013
v -8.86317 4.52024 -27.4893
vn 0.502259 0.152325 -0.851195
v -8.90924 4.49915 -27.5169
vn 0.423926 0.116452 -0.898179
v -8.95771 4.47739 -27.5395
vn 0.34151 0.0794566 -0.936514
v -9.00811 4.45519 -27.5567
vn 0.255805 0.0416962 -0.965829
v -9.05995 4.43274 -27.5685
vn 0.167637 0.00353419 -0.985843
v -9.11275 4.41028 -27.5747
vn 0.0778539 -0.0346618 -0.996362
v -8.4441 2.66316 -27.419
vn -0.00123429 -0.0998884 -0.994998
v -8.49622 2.64183 -27.414
vn -0.0916999 -0.13692 -0.986329
v -8.54783 2.62125 -27.4035
vn -0.181282 -0.172634 -0.96816
v -8.59843 2.60164 -27.3877
vn -0.269119 -0.206685 -0.940668
v -8.64754 2.58317 -27.3666
vn -0.354364 -0.238745 -0.904117
v -8.69468 2.56602 -27.3406
vn -0.436196 -0.268506 -0.858858
v -8.7394 2.55037 -27.3097
vn -0.513827 -0.295681 -0.805329
v -8.78127 2.53635 -27.2744
vn -0.58651 -0.320009 -0.744043
v -8.81989 2.52411 -27.235
vn -0.653545 -0.341255 -0.675592
v -8.85488 2.51377 -27.1918
vn -0.714285 -0.359214 -0.600635
v -8.88591 2.50541 -27.1453
vn -0.768147 -0.373714 -0.519893
v -8.91268 2.49913 -27.0959
vn -0.814611 -0.384615 -0.434144
v -8.93493 2.49499 -27.0441
vn -0.853229 -0.391811 -0.344215
v -8.95244 2.49301 -26.9904
vn -0.883631 -0.395235 -0.25097
v -8.96505 2.49323 -26.9353
vn -0.905523 -0.394852 -0.155308
v -8.97264 2.49565 -26.8793
vn -0.918694 -0.390666 -0.058151
v -8.97513 2.50022 -26.823
vn -0.923017 -0.382718 0.0395663
v -8.9725 2.50693 -26.7669
vn -0.918452 -0.371085 0.136903
v -8.96477 2.51569 -26.7116
vn -0.905041 -0.355877 0.232921
v -8.95203 2.52642 -26.6576
vn -0.882914 -0.337243 0.326695
v -8.93438 2.53903 -26.6054
vn -0.852285 -0.31536 0.417324
v -8.91201 2.55338 -26.5555
vn -0.813447 -0.29044 0.503933
v -8.88512 2.56935 -26.5084
vn -0.766775 -0.262724 0.585689
v -8.85398 2.58678 -26.4645
vn -0.712719 -0.232477 0.661805
v -8.81888 2.60549 -26.4244
vn -0.651799 -0.199991 0.731547
v -8.78017 2.62532 -26.3882
vn -0.584602 -0.165579 0.794244
v -8.73822 2.64606 -26.3565
vn -0.511775 -0.129573 0.849292
v -8.69342 2.66752 -26.3295
vn -0.434019 -0.0923185 0.896161
v -8.64622 2.68949 -26.3075
vn -0.352083 -0.0541751 0.9344
v -8.59707 2.71177 -26.2906
vn -0.266757 -0.01551 0.963639
v -8.54643 2.73413 -26.2791
vn -0.178861 0.0233044 0.983598
v -8.4948 2.75636 -26.2731
vn -0.0892432 0.0618945 0.994085
v -8.44268 2.77825 -26.2726
vn 0.00123429 0.0998884 0.994998
v -8.39056 2.79958 -26.2776
vn 0.0916999 0.13692 0.986329
v -8.33896 2.82016 -26.288
vn 0.181282 0.172634 0.96816
v -8.28835 2.83977 -26.3039
vn 0.269119 0.206685 0.940668
v -8.23925 2.85824 -26.3249
vn 0.354364 0.238745 0.904117
v -8.1921 2.87539 -26.351
vn 0.436196 0.268506 0.858858
v -8.14738 2.89104 -26.3818
vn 0.513827 0.295681 0.805329
v -8.10551 2.90506 -26.4172
vn 0.58651 0.320009 0.744043
v -8.06689 2.9173 -26.4566
vn 0.653545 0.341255 0.675592
v -8.0319 2.92764 -26.4998
vn 0.714285 0.359214 0.600635
v -8.00087 2.936 -26.5463
vn 0.768147 0.373714 0.519893
v -7.9741 2.94228 -26.5957
vn 0.814611 0.384615 0.434144
v -7.95186 2.94642 -26.6475
vn 0.853229 0.391811 0.344215
v -7.93434 2.94839 -26.7012
vn 0.883631 0.395235 0.25097
v -7.92173 2.94817 -26.7563
vn 0.905523 0.394852 0.155308
v -7.91414 2.94576 -26.8123
vn 0.918694 0.390666 0.058151
v -7.91165 2.94118 -26.8686
vn 0.923017 0.382718 -0.0395663
v -7.91428 2.93448 -26.9247
vn 0.918452 0.371085 -0.136903
v -7.92201 2.92572 -26.98
vn 0.905041 0.355877 -0.232921
v -7.93475 2.91499 -27.034
vn 0.882914 0.337243 -0.326695
v -7.9524 2.90238 -27.0862
vn 0.852285 0.31536 -0.417324
v -7.97477 2.88802 -27.1361
vn 0.813447 0.29044 -0.503933
v -8.00166 2.87206 -27.1832
vn 0.766775 0.262724 -0.585689
v -8.0328 2.85463 -27.227
vn 0.712719 0.232477 -0.661805
v -8.0679 2.83592 -27.2672
vn 0.651799 0.199991 -0.731547
v -8.10661 2.81609 -27.3033
vn 0.584602 0.165579 -0.794244
v -8.14856 2.79535 -27.3351
vn 0.511775 0.129573 -0.849292
v -8.19336 2.77389 -27.3621
vn 0.434019 0.0923185 -0.896161
v -8.24056 2.75191 -27.3841
vn 0.352083 0.0541751 -0.9344
v -8.28972 2.72964 -27.4009
vn 0.266757 0.01551 -0.963639
v -8.34035 2.70728 -27.4124
vn 0.178861 -0.0233044 -0.983598
v -8.39198 2.68505 -27.4185
vn 0.0892432 -0.0618945 -0.994085
v -7.72325 0.946529 -27.2075
vn 0.0102385 -0.127229 -0.99182
v -7.77432 0.925713 -27.2026
vn -0.0802823 -0.16413 -0.983166
v -7.82494 0.905789 -27.1923
vn -0.17003 -0.199449 -0.965044
v -7.87465 0.886948 -27.1769
vn -0.25814 -0.232848 -0.937628
v -7.92295 0.869372 -27.1563
vn -0.343764 -0.264005 -0.901181
v -7.96938 0.853231 -27.1309
vn -0.426078 -0.292618 -0.856056
v -8.0135 0.838679 -27.1008
vn -0.504288 -0.318414 -0.802687
v -8.05488 0.825857 -27.0663
vn -0.577642 -0.341144 -0.741587
v -8.09312 0.814889 -27.0278
vn -0.645432 -0.360587 -0.673345
v -8.12786 0.805879 -26.9856
vn -0.707007 -0.376559 -0.598619
v -8.15875 0.798915 -26.9402
vn -0.761773 -0.388904 -0.518128
v -8.18551 0.794064 -26.892
vn -0.809202 -0.397503 -0.432647
v -8.20787 0.791373 -26.8414
vn -0.848839 -0.402274 -0.342999
v -8.22562 0.790866 -26.789
vn -0.880301 -0.403171 -0.250048
v -8.23858 0.792551 -26.7352
vn -0.903284 -0.400186 -0.154689
v -8.24664 0.796409 -26.6806
vn -0.917569 -0.393346 -0.0578396
v -8.24971 0.802404 -26.6256
vn -0.923017 -0.382718 0.0395663
v -8.24777 0.810479 -26.5709
vn -0.919576 -0.368405 0.136591
v -8.24084 0.820555 -26.5169
vn -0.907279 -0.350543 0.232301
v -8.22897 0.832535 -26.4642
vn -0.886245 -0.329306 0.325773
v -8.21229 0.846304 -26.4132
vn -0.856675 -0.304897 0.416108
v -8.19095 0.86173 -26.3645
vn -0.818855 -0.277552 0.502435
v -8.16517 0.878664 -26.3186
vn -0.773149 -0.247534 0.583924
v -8.13519 0.896942 -26.2758
vn -0.719997 -0.215132 0.659789
v -8.10129 0.916389 -26.2365
vn -0.659912 -0.180658 0.729301
v -8.06381 0.936818 -26.2013
vn -0.59347 -0.144444 0.791788
v -8.02311 0.958031 -26.1703
vn -0.521314 -0.10684 0.84665
v -7.97957 0.979825 -26.144
vn -0.444137 -0.068206 0.893359
v -7.93362 1.00199 -26.1225
vn -0.362683 -0.0289155 0.931464
v -7.8857 1.02431 -26.1061
vn -0.277735 0.0106535 0.960599
v -7.83627 1.04657 -26.0949
vn -0.190114 0.0501199 0.980482
v -7.78581 1.06856 -26.089
vn -0.100661 0.0891037 0.990923
v -7.7348 1.09007 -26.0885
vn -0.0102385 0.127229 0.99182
v -7.68374 1.11089 -26.0933
vn 0.0802823 0.16413 0.983166
v -7.63311 1.13081 -26.1036
vn 0.17003 0.199449 0.965044
v -7.58341 1.14965 -26.119
vn 0.25814 0.232848 0.937628
v -7.53511 1.16723 -26.1396
vn 0.343764 0.264005 0.901181
v -7.48867 1.18337 -26.165
vn 0.426078 0.292618 0.856056
v -7.44455 1.19792 -26.1952
vn 0.504288 0.318414 0.802687
v -7.40317 1.21074 -26.2296
vn 0.577642 0.341144 0.741587
v -7.36493 1.22171 -26.2681
vn 0.645432 0.360587 0.673345
v -7.3302 1.23072 -26.3103
vn 0.707007 0.376559 0.598619
v -7.2993 1.23769 -26.3557
vn 0.761773 0.388904 0.518128
v -7.27255 1.24254 -26.4039
vn 0.809202 0.397503 0.432647
v -7.25019 1.24523 -26.4545
vn 0.848839 0.402274 0.342999
v -7.23244 1.24573 -26.5069
vn 0.880301 0.403171 0.250048
v -7.21947 1.24405 -26.5607
vn 0.903284 0.400186 0.154689
v -7.21142 1.24019 -26.6153
vn 0.917569 0.393346 0.0578396
v -7.20834 1.2342 -26.6703
vn 0.923017 0.382718 -0.0395663
v -7.21028 1.22612 -26.725
vn 0.919576 0.368405 -0.136591
v -7.21722 1.21605 -26.779
vn 0.907279 0.350543 -0.232301
v -7.22909 1.20407 -26.8317
vn 0.886245 0.329306 -0.325773
v -7.24577 1.1903 -26.8827
vn 0.856675 0.304897 -0.416108
v -7.2671 1.17487 -26.9314
vn 0.818855 0.277552 -0.502435
v -7.29289 1.15794 -26.9774
vn 0.773149 0.247534 -0.583924
v -7.32287 1.13966 -27.0202
vn 0.719997 0.215132 -0.659789
v -7.35676 1.12021 -27.0594
vn 0.659912 0.180658 -0.729301
v -7.39424 1.09978 -27.0946
vn 0.59347 0.144444 -0.791788
v -7.43495 1.07857 -27.1256
vn 0.521314 0.10684 -0.84665
v -7.47849 1.05678 -27.1519
vn 0.444137 0.068206 -0.893359
v -7.52443 1.03461 -27.1734
vn 0.362683 0.0289155 -0.931464
v -7.57235 1.01229 -27.1898
vn 0.277735 -0.0106535 -0.960599
v -7.62178 0.990027 -27.2011
vn 0.190114 -0.0501199 -0.980482
v -7.67224 0.968036 -27.2069
vn 0.100661 -0.0891037 -0.990923
v -7.00346 -0.761835 -26.9406
vn 0.021709 -0.154473 -0.987758
v -7.05347 -0.782137 -26.9359
vn -0.068867 -0.191242 -0.979124
v -7.10312 -0.801421 -26.9259
vn -0.15878 -0.22617 -0.96106
v -7.15192 -0.819503 -26.9108
vn -0.247164 -0.258919 -0.93374
v -7.1994 -0.836209 -26.8908
vn -0.333167 -0.289175 -0.897428
v -7.24512 -0.851376 -26.8659
vn -0.415962 -0.316646 -0.852474
v -7.28862 -0.86486 -26.8366
vn -0.494751 -0.341067 -0.799309
v -7.32949 -0.87653 -26.803
vn -0.568775 -0.362204 -0.738447
v -7.36734 -0.886275 -26.7654
vn -0.637321 -0.379852 -0.670473
v -7.40179 -0.893999 -26.7244
vn -0.69973 -0.393842 -0.596042
v -7.43253 -0.89963 -26.6801
vn -0.7554 -0.40404 -0.515871
v -7.45925 -0.903111 -26.6331
vn -0.803795 -0.410346 -0.430732
v -7.4817 -0.904411 -26.5838
vn -0.844449 -0.4127 -0.341444
v -7.49966 -0.903517 -26.5327
vn -0.876971 -0.41108 -0.248869
v -7.51295 -0.900436 -26.4802
vn -0.901047 -0.405501 -0.153896
v -7.52145 -0.8952 -26.427
vn -0.916445 -0.396017 -0.0574415
v -7.52508 -0.887857 -26.3734
vn -0.923017 -0.382718 0.0395663
v -7.5238 -0.87848 -26.3201
vn -0.920701 -0.365734 0.136193
v -7.51763 -0.867158 -26.2674
vn -0.909517 -0.345228 0.231508
v -7.50661 -0.854 -26.216
vn -0.889574 -0.321397 0.324594
v -7.49087 -0.839133 -26.1664
vn -0.861065 -0.294471 0.414553
v -7.47055 -0.8227 -26.1189
vn -0.824262 -0.264709 0.50052
v -7.44585 -0.80486 -26.0741
vn -0.779522 -0.232398 0.581667
v -7.417 -0.785784 -26.0324
vn -0.727274 -0.197848 0.657212
v -7.38429 -0.765656 -25.9942
vn -0.668022 -0.161394 0.726428
v -7.34802 -0.74467 -25.9598
vn -0.602337 -0.123384 0.788648
v -7.30855 -0.723027 -25.9297
vn -0.530851 -0.0841871 0.843273
v -7.26626 -0.700937 -25.904
vn -0.454253 -0.0441789 0.889777
v -7.22155 -0.678612 -25.883
vn -0.37328 -0.00374525 0.927711
v -7.17486 -0.656268 -25.867
vn -0.288712 0.0367245 0.956711
v -7.12663 -0.634118 -25.8561
vn -0.201364 0.0768405 0.976498
v -7.07733 -0.612377 -25.8504
vn -0.112076 0.116217 0.98688
v -7.02743 -0.591254 -25.8499
vn -0.021709 0.154473 0.987758
v -6.97742 -0.570953 -25.8546
vn 0.068867 0.191242 0.979124
v -6.92778 -0.551668 -25.8646
vn 0.15878 0.22617 0.96106
v -6.87898 -0.533586 -25.8797
vn 0.247164 0.258919 0.93374
v -6.83149 -0.516881 -25.8998
vn 0.333167 0.289175 0.897428
v -6.78578 -0.501713 -25.9246
vn 0.415962 0.316646 0.852474
v -6.74228 -0.488229 -25.9539
vn 0.494751 0.341067 0.799309
v -6.70141 -0.476559 -25.9875
vn 0.568775 0.362204 0.738447
v -6.66356 -0.466814 -26.0251
vn 0.637321 0.379852 0.670473
v -6.6291 -0.45909 -26.0662
vn 0.69973 0.393842 0.596042
v -6.59836 -0.45346 -26.1104
vn 0.7554 0.40404 0.515871
v -6.57164 -0.449978 -26.1574
vn 0.803795 0.410346 0.430732
v -6.5492 -0.448678 -26.2067
vn 0.844449 0.4127 0.341444
v -6.53124 -0.449572 -26.2578
vn 0.876971 0.41108 0.248869
v -6.51795 -0.452653 -26.3103
vn 0.901047 0.405501 0.153896
v -6.50945 -0.457889 -26.3635
vn 0.916445 0.396017 0.0574415
v -6.50582 -0.465232 -26.4171
vn 0.923017 0.382718 -0.0395663
v -6.5071 -0.474609 -26.4705
vn 0.920701 0.365734 -0.136193
v -6.51327 -0.485931 -26.5231
vn 0.909517 0.345228 -0.231508
v -6.52428 -0.499089 -26.5745
vn 0.889574 0.321397 -0.324594
v -6.54002 -0.513956 -26.6241
vn 0.861065 0.294471 -0.414553
v -6.56034 -0.530389 -26.6716
vn 0.824262 0.264709 -0.50052
v -6.58505 -0.548229 -26.7164
vn 0.779522 0.232398 -0.581667
v -6.61389 -0.567305 -26.7581
vn 0.727274 0.197848 -0.657212
v -6.64661 -0.587433 -26.7963
vn 0.668022 0.161394 -0.726428
v -6.68288 -0.608419 -26.8307
vn 0.602337 0.123384 -0.788648
v -6.72235 -0.630062 -26.8609
vn 0.530851 0.0841871 -0.843273
v -6.76464 -0.652152 -26.8865
vn 0.454253 0.0441789 -0.889777
v -6.80935 -0.674477 -26.9075
vn 0.37328 0.00374525 -0.927711
v -6.85604 -0.696821 -26.9235
vn 0.288712 -0.0367245 -0.956711
v -6.90427 -0.718971 -26.9344
vn 0.201364 -0.0768405 -0.976498
v -6.95357 -0.740712 -26.9401
vn 0.112076 -0.116217 -0.98688
v -6.28475 -2.4619 -26.6186
vn 0.0331468 -0.181548 -0.982823
v -6.3337 -2.48169 -26.6139
vn -0.0574843 -0.218187 -0.974213
v -6.38236 -2.50034 -26.6042
vn -0.147562 -0.252724 -0.95622
v -6.43025 -2.51768 -26.5895
vn -0.236218 -0.284828 -0.929018
v -6.47691 -2.53354 -26.57
vn -0.3226 -0.314189 -0.892869
v -6.52189 -2.54777 -26.5458
vn -0.405875 -0.340523 -0.848121
v -6.56476 -2.56022 -26.5172
vn -0.48524 -0.363579 -0.795206
v -6.6051 -2.57078 -26.4845
vn -0.559933 -0.383133 -0.734632
v -6.64254 -2.57935 -26.448
vn -0.629234 -0.398997 -0.666983
v -6.6767 -2.58585 -26.408
vn -0.692474 -0.411018 -0.592911
v -6.70726 -2.5902 -26.3649
vn -0.749046 -0.419081 -0.513129
v -6.73392 -2.59238 -26.3191
vn -0.798403 -0.423109 -0.428405
v -6.75642 -2.59235 -26.2711
vn -0.840072 -0.423061 -0.339556
v -6.77456 -2.59013 -26.2213
vn -0.873651 -0.418939 -0.247436
v -6.78815 -2.58572 -26.1703
vn -0.898815 -0.410783 -0.152933
v -6.79707 -2.57918 -26.1184
vn -0.915324 -0.39867 -0.0569577
v -6.80123 -2.57056 -26.0663
vn -0.923017 -0.382718 0.0395663
v -6.80058 -2.55995 -26.0144
vn -0.921822 -0.363081 0.135709
v -6.79514 -2.54746 -25.9632
vn -0.911748 -0.339946 0.230545
v -6.78496 -2.53319 -25.9131
vn -0.892895 -0.313538 0.323161
v -6.77013 -2.5173 -25.8648
vn -0.865442 -0.28411 0.412665
v -6.7508 -2.49992 -25.8186
vn -0.829654 -0.251946 0.498194
v -6.72715 -2.48124 -25.775
vn -0.785876 -0.217356 0.578926
v -6.69941 -2.46142 -25.7344
vn -0.73453 -0.180672 0.654082
v -6.66786 -2.44067 -25.6972
vn -0.67611 -0.142249 0.722939
v -6.63279 -2.41917 -25.6637
vn -0.611179 -0.102455 0.784833
v -6.59453 -2.39715 -25.6344
vn -0.540362 -0.0616753 0.83917
v -6.55347 -2.3748 -25.6094
vn -0.46434 -0.0203011 0.885424
v -6.50999 -2.35234 -25.589
vn -0.383847 0.0212685 0.923152
v -6.46451 -2.33 -25.5735
vn -0.299657 0.0626334 0.951989
v -6.41748 -2.30798 -25.5628
vn -0.212582 0.103395 0.971658
v -6.36934 -2.2865 -25.5573
vn -0.123459 0.143161 0.981969
v -6.32055 -2.26577 -25.5568
vn -0.0331468 0.181548 0.982823
v -6.2716 -2.24598 -25.5615
vn 0.0574843 0.218187 0.974213
v -6.22294 -2.22732 -25.5712
vn 0.147562 0.252724 0.95622
v -6.17505 -2.20998 -25.5859
vn 0.236218 0.284828 0.929018
v -6.12839 -2.19412 -25.6054
vn 0.3226 0.314189 0.892869
v -6.08341 -2.17989 -25.6296
vn 0.405875 0.340523 0.848121
v -6.04054 -2.16744 -25.6581
vn 0.48524 0.363579 0.795206
v -6.0002 -2.15688 -25.6909
vn 0.559933 0.383133 0.734632
v -5.96276 -2.14831 -25.7274
vn 0.629234 0.398997 0.666983
v -5.9286 -2.14182 -25.7674
vn 0.692474 0.411018 0.592911
v -5.89805 -2.13746 -25.8105
vn 0.749046 0.419081 0.513129
v -5.87138 -2.13528 -25.8563
vn 0.798403 0.423109 0.428405
v -5.84888 -2.13531 -25.9043
vn 0.840072 0.423061 0.339556
v -5.83074 -2.13754 -25.954
vn 0.873651 0.418939 0.247436
v -5.81715 -2.14194 -26.0051
vn 0.898815 0.410783 0.152933
v -5.80823 -2.14848 -26.0569
vn 0.915324 0.39867 0.0569577
v -5.80407 -2.1571 -26.1091
vn 0.923017 0.382718 -0.0395663
v -5.80472 -2.16771 -26.161
vn 0.921822 0.363081 -0.135709
v -5.81016 -2.18021 -26.2122
vn 0.911748 0.339946 -0.230545
v -5.82034 -2.19447 -26.2622
vn 0.892895 0.313538 -0.323161
v -5.83517 -2.21037 -26.3106
vn 0.865442 0.28411 -0.412665
v -5.8545 -2.22774 -26.3568
vn 0.829654 0.251946 -0.498194
v -5.87815 -2.24642 -26.4004
vn 0.785876 0.217356 -0.578926
v -5.90589 -2.26624 -26.441
vn 0.73453 0.180672 -0.654082
v -5.93744 -2.28699 -26.4782
vn 0.67611 0.142249 -0.722939
v -5.97252 -2.30849 -26.5116
vn 0.611179 0.102455 -0.784833
v -6.01077 -2.33052 -26.541
vn 0.540362 0.0616753 -0.83917
v -6.05183 -2.35287 -26.566
vn 0.46434 0.0203011 -0.885424
v -6.09531 -2.37532 -26.5863
vn 0.383847 -0.0212685 -0.923152
v -6.14079 -2.39766 -26.6019
vn 0.299657 -0.0626334 -0.951989
v -6.18782 -2.41968 -26.6125
vn 0.212582 -0.103395 -0.971658
v -6.23596 -2.44116 -26.6181
vn 0.123459 -0.143161 -0.981969
v -5.56712 -4.15362 -26.2413
vn 0.0445216 -0.208382 -0.977034
v -5.61502 -4.17291 -26.2368
vn -0.0461643 -0.244892 -0.968451
v -5.66268 -4.19095 -26.2273
vn -0.136406 -0.279043 -0.950541
v -5.70965 -4.20756 -26.213
vn -0.225333 -0.310507 -0.923477
v -5.75548 -4.2226 -26.194
vn -0.312091 -0.33898 -0.88752
v -5.79971 -4.23592 -26.1705
vn -0.395843 -0.364189 -0.843015
v -5.84194 -4.24738 -26.1427
vn -0.475783 -0.385891 -0.790392
v -5.88174 -4.25688 -26.1109
vn -0.55114 -0.403876 -0.730157
v -5.91874 -4.26433 -26.0754
vn -0.62119 -0.417971 -0.662889
v -5.95258 -4.26964 -26.0365
vn -0.685258 -0.428042 -0.589238
v -5.98293 -4.27279 -25.9946
vn -0.742726 -0.43399 -0.509913
v -6.00951 -4.27372 -25.9501
vn -0.793041 -0.435758 -0.425676
v -6.03205 -4.27244 -25.9034
vn -0.835719 -0.43333 -0.33734
v -6.05034 -4.26895 -25.855
vn -0.870349 -0.426729 -0.245755
v -6.0642 -4.26329 -25.8054
vn -0.896596 -0.416018 -0.151804
v -6.07351 -4.25552 -25.755
vn -0.914209 -0.401301 -0.0563902
v -6.07816 -4.24571 -25.7043
vn -0.923017 -0.382718 0.0395663
v -6.07812 -4.23394 -25.6539
vn -0.922937 -0.36045 0.135142
v -6.07338 -4.22035 -25.6041
vn -0.913968 -0.334711 0.229416
v -6.06399 -4.20505 -25.5554
vn -0.896197 -0.305748 0.32148
v -6.05005 -4.1882 -25.5084
vn -0.869795 -0.273841 0.410449
v -6.03168 -4.16995 -25.4635
vn -0.835016 -0.239297 0.495465
v -6.00906 -4.15049 -25.4212
vn -0.792196 -0.202448 0.575709
v -5.98241 -4.13 -25.3817
vn -0.741746 -0.163649 0.650409
v -5.95199 -4.10867 -25.3456
vn -0.684153 -0.123274 0.718845
v -5.91809 -4.08672 -25.3131
vn -0.619972 -0.0817122 0.780358
v -5.88104 -4.06435 -25.2845
vn -0.549819 -0.0393633 0.834356
v -5.84119 -4.04178 -25.2603
vn -0.474372 0.0033647 0.880318
v -5.79893 -4.01923 -25.2405
vn -0.394356 0.0460603 0.917803
v -5.75466 -3.99691 -25.2253
vn -0.310542 0.0883123 0.946448
v -5.70881 -3.97505 -25.215
vn -0.223738 0.129714 0.965979
v -5.66182 -3.95384 -25.2096
vn -0.134779 0.169866 0.976207
v -5.61415 -3.93349 -25.2092
vn -0.0445216 0.208382 0.977034
v -5.56625 -3.91421 -25.2137
vn 0.0461643 0.244892 0.968451
v -5.51859 -3.89617 -25.2232
vn 0.136406 0.279043 0.950541
v -5.47162 -3.87955 -25.2375
vn 0.225333 0.310507 0.923477
v -5.42579 -3.86451 -25.2565
vn 0.312091 0.33898 0.88752
v -5.38156 -3.8512 -25.28
vn 0.395843 0.364189 0.843015
v -5.33933 -3.83974 -25.3078
vn 0.475783 0.385891 0.790392
v -5.29953 -3.83024 -25.3396
vn 0.55114 0.403876 0.730157
v -5.26253 -3.82279 -25.3751
vn 0.62119 0.417971 0.662889
v -5.22869 -3.81747 -25.414
vn 0.685258 0.428042 0.589238
v -5.19834 -3.81433 -25.4559
vn 0.742726 0.43399 0.509913
v -5.17176 -3.8134 -25.5004
vn 0.793041 0.435758 0.425676
v -5.14922 -3.81468 -25.5471
vn 0.835719 0.43333 0.33734
v -5.13093 -3.81817 -25.5954
vn 0.870349 0.426729 0.245755
v -5.11707 -3.82382 -25.6451
vn 0.896596 0.416018 0.151804
v -5.10776 -3.8316 -25.6955
vn 0.914209 0.401301 0.0563902
v -5.10311 -3.84141 -25.7461
vn 0.923017 0.382718 -0.0395663
v -5.10315 -3.85317 -25.7966
vn 0.922937 0.36045 -0.135142
v -5.10789 -3.86677 -25.8464
vn 0.913968 0.334711 -0.229416
v -5.11728 -3.88207 -25.895
vn 0.896197 0.305748 -0.32148
v -5.13122 -3.89892 -25.942
vn 0.869795 0.273841 -0.410449
v -5.14959 -3.91717 -25.9869
vn 0.835016 0.239297 -0.495465
v -5.17221 -3.93663 -26.0293
vn 0.792196 0.202448 -0.575709
v -5.19885 -3.95712 -26.0688
vn 0.741746 0.163649 -0.650409
v -5.22927 -3.97845 -26.1049
vn 0.684153 0.123274 -0.718845
v -5.26317 -4.0004 -26.1374
vn 0.619972 0.0817122 -0.780358
v -5.30023 -4.02277 -26.1659
vn 0.549819 0.0393633 -0.834356
v -5.34008 -4.04534 -26.1902
vn 0.474372 -0.0033647 -0.880318
v -5.38234 -4.06789 -26.21
vn 0.394356 -0.0460603 -0.917803
v -5.42661 -4.0902 -26.2251
vn 0.310542 -0.0883123 -0.946448
v -5.47246 -4.11207 -26.2355
vn 0.223738 -0.129714 -0.965979
v -5.51945 -4.13328 -26.2409
vn 0.134779 -0.169866 -0.976207
v -4.85059 -5.83699 -25.8089
vn 0.0558039 -0.234908 -0.970414
v -4.89743 -5.85577 -25.8045
vn -0.0349364 -0.27129 -0.961863
v -4.9441 -5.8732 -25.7953
vn -0.12534 -0.305059 -0.944049
v -4.99015 -5.88912 -25.7814
vn -0.214537 -0.33589 -0.917143
v -5.03512 -5.90336 -25.7629
vn -0.301667 -0.363487 -0.881405
v -5.0786 -5.9158 -25.7401
vn -0.385893 -0.387583 -0.837178
v -5.12016 -5.92631 -25.7131
vn -0.466402 -0.407946 -0.784888
v -5.1594 -5.9348 -25.6822
vn -0.542419 -0.42438 -0.72504
v -5.19595 -5.94117 -25.6477
vn -0.613213 -0.436728 -0.658209
v -5.22944 -5.94537 -25.6099
vn -0.6781 -0.444869 -0.585039
v -5.25957 -5.94737 -25.5693
vn -0.736458 -0.448727 -0.506235
v -5.28603 -5.94713 -25.5261
vn -0.787723 -0.448262 -0.422556
v -5.30858 -5.94466 -25.4808
vn -0.831402 -0.443481 -0.334807
v -5.32699 -5.93998 -25.4338
vn -0.867074 -0.434429 -0.243834
v -5.3411 -5.93315 -25.3856
vn -0.894395 -0.421193 -0.150512
v -5.35075 -5.92423 -25.3367
vn -0.913103 -0.403901 -0.0557414
v -5.35587 -5.91329 -25.2875
vn -0.923017 -0.382718 0.0395663
v -5.3564 -5.90045 -25.2385
vn -0.924043 -0.357851 0.134493
v -5.35233 -5.88584 -25.1902
vn -0.916169 -0.329536 0.228125
v -5.34372 -5.86958 -25.143
vn -0.899472 -0.298048 0.319559
v -5.33062 -5.85185 -25.0974
vn -0.874112 -0.26369 0.407916
v -5.31319 -5.8328 -25.0538
vn -0.840334 -0.226793 0.492345
v -5.29157 -5.81263 -25.0126
vn -0.798464 -0.187711 0.572032
v -5.26599 -5.79152 -24.9744
vn -0.748904 -0.146821 0.64621
v -5.23668 -5.76968 -24.9393
vn -0.692131 -0.104518 0.714164
v -5.20394 -5.74732 -24.9077
vn -0.628693 -0.0612076 0.775241
v -5.16806 -5.72466 -24.8801
vn -0.5592 -0.017308 0.828852
v -5.12941 -5.70192 -24.8565
vn -0.484322 0.0267583 0.874481
v -5.08835 -5.6793 -24.8373
vn -0.40478 0.0705668 0.911687
v -5.04528 -5.65704 -24.8226
vn -0.321339 0.113696 0.940114
v -5.00061 -5.63534 -24.8126
vn -0.234803 0.15573 0.959487
v -4.95477 -5.61441 -24.8074
vn -0.146007 0.196264 0.96962
v -4.90821 -5.59447 -24.807
vn -0.0558039 0.234908 0.970414
v -4.86137 -5.57569 -24.8114
vn 0.0349364 0.27129 0.961863
v -4.8147 -5.55825 -24.8206
vn 0.12534 0.305059 0.944049
v -4.76865 -5.54234 -24.8345
vn 0.214537 0.33589 0.917143
v -4.72368 -5.52809 -24.8529
vn 0.301667 0.363487 0.881405
v -4.6802 -5.51565 -24.8758
vn 0.385893 0.387583 0.837178
v -4.63864 -5.50514 -24.9028
vn 0.466402 0.407946 0.784888
v -4.5994 -5.49666 -24.9337
vn 0.542419 0.42438 0.72504
v -4.56285 -5.49029 -24.9682
vn 0.613213 0.436728 0.658209
v -4.52936 -5.48608 -25.0059
vn 0.6781 0.444869 0.585039
v -4.49923 -5.48409 -25.0466
vn 0.736458 0.448727 0.506235
v -4.47277 -5.48433 -25.0898
vn 0.787723 0.448262 0.422556
v -4.45022 -5.4868 -25.1351
vn 0.831402 0.443481 0.334807
v -4.43181 -5.49147 -25.1821
vn 0.867074 0.434429 0.243834
v -4.4177 -5.4983 -25.2302
vn 0.894395 0.421193 0.150512
v -4.40805 -5.50723 -25.2792
vn 0.913103 0.403901 0.0557414
v -4.40293 -5.51817 -25.3284
vn 0.923017 0.382718 -0.0395663
v -4.4024 -5.531 -25.3774
vn 0.924043 0.357851 -0.134493
v -4.40647 -5.54562 -25.4257
vn 0.916169 0.329536 -0.228125
v -4.41508 -5.56187 -25.4729
vn 0.899472 0.298048 -0.319559
v -4.42818 -5.57961 -25.5185
vn 0.874112 0.26369 -0.407916
v -4.44561 -5.59866 -25.5621
vn 0.840334 0.226793 -0.492345
v -4.46723 -5.61883 -25.6032
vn 0.798464 0.187711 -0.572032
v -4.49281 -5.63994 -25.6415
vn 0.748904 0.146821 -0.64621
v -4.52212 -5.66178 -25.6766
vn 0.692131 0.104518 -0.714164
v -4.55486 -5.68413 -25.7081
vn 0.628693 0.0612076 -0.775241
v -4.59074 -5.70679 -25.7358
vn 0.5592 0.017308 -0.828852
v -4.62939 -5.72954 -25.7593
vn 0.484322 -0.0267583 -0.874481
v -4.67045 -5.75216 -25.7786
vn 0.40478 -0.0705668 -0.911687
v -4.71352 -5.77442 -25.7932
vn 0.321339 -0.113696 -0.940114
v -4.75819 -5.79612 -25.8032
vn 0.234803 -0.15573 -0.959487
v -4.80403 -5.81704 -25.8085
vn 0.146007 -0.196264 -0.96962
f 1 66 2 
f 1 65 66 
f 2 67 3 
f 2 66 67 
f 3 68 4 
f 3 67 68 
f 4 69 5 
f 4 68 69 
f 5 70 6 
f 5 69 70 
f 6 71 7 
f 6 70 71 
f 7 72 8 
f 7 71 72 
f 8 73 9 
f 8 72 73 
f 9 74 10 
f 9 73 74 
f 10 75 11 
f 10 74 75 
f 11 76 12 
f 11 75 76 
f 12 77 13 
f 12 76 77 
f 13 78 14 
f 13 77 78 
f 14 79 15 
f 14 78 79 
f 15 80 16 
f 15 79 80 
f 16 81 17 
f 16 80 81 
f 17 82 18 
f 17 81 82 
f 18 83 19 
f 18 82 83 
f 19 84 20 
f 19 83 84 
f 20 85 21 
f 20 84 85 
f 21 86 22 
f 21 85 86 
f 22 87 23 
f 22 86 87 
f 23 88 24 
f 23 87 88 
f 24 89 25 
f 24 88 89 
f 25 90 26 
f 25 89 90 
f 26 91 27 
f 26 90 91 
f 27 92 28 
f 27 91 92 
f 28 93 29 
f 28 92 93 
f 29 94 30 
f 29 93 94 
f 30 95 31 
f 30 94 95 
f 31 96 32 
f 31 95 96 
f 32 97 33 
f 32 96 97 
f 33 98 34 
f 33 97 98 
f 34 99 35 
f 34 98 99 
f 35 100 36 
f 35 99 100 
f 36 101 37 
f 36 100 101 
f 37 102 38 
f 37 101 102 
f 38 103 39 
f 38 102 103 
f 39 104 40 
f 39 103 104 
f 40 105 41 
f 40 104 105 
f 41 106 42 
f 41 105 106 
f 42 107 43 
f 42 106 107 
f 43 108 44 
f 43 107 108 
f 44 109 45 
f 44 108 109 
f 45 110 46 
f 45 109 110 
f 46 111 47 
f 46 110 111 
f 47 112 48 
f 47 111 112 
f 48 113 49 
f 48 112 113 
f 49 114 50 
f 49 113 114 
f 50 115 51 
f 50 114 115 
f 51 116 52 
f 51 115 116 
f 52 117 53 
f 52 116 117 
f 53 118 54 
f 53 117 118 
f 54 119 55 
f 54 118 119 
f 55 120 56 
f 55 119 120 
f 56 121 57 
f 56 120 121 
f 57 122 58 
f 57 121 122 
f 58 123 59 
f 58 122 123 
f 59 124 60 
f 59 123 124 
f 60 125 61 
f 60 124 125 
f 61 126 62 
f 61 125 126 
f 62 127 63 
f 62 126 127 
f 63 128 64 
f 63 127 128 
f 64 65 1 
f 64 128 65 
f 65 130 66 
f 65 129 130 
f 66 131 67 
f 66 130 131 
f 67 132 68 
f 67 131 132 
f 68 133 69 
f 68 132 133 
f 69 134 70 
f 69 133 134 
f 70 135 71 
f 70 134 135 
f 71 136 72 
f 71 135 136 
f 72 137 73 
f 72 136 137 
f 73 138 74 
f 73 137 138 
f 74 139 75 
f 74 138 139 
f 75 140 76 
f 75 139 140 
f 76 141 77 
f 76 140 141 
f 77 142 78 
f 77 141 142 
f 78 143 79 
f 78 142 143 
f 79 144 80 
f 79 143 144 
f 80 145 81 
f 80 144 145 
f 81 146 82 
f 81 145 146 
f 82 147 83 
f 82 146 147 
f 83 148 84 
f 83 147 148 
f 84 149 85 
f 84 148 149 
f 85 150 86 
f 85 149 150 
f 86 151 87 
f 86 150 151 
f 87 152 88 
f 87 151 152 
f 88 153 89 
f 88 152 153 
f 89 154 90 
f 89 153 154 
f 90 155 91 
f 90 154 155 
f 91 156 92 
f 91 155 156 
f 92 157 93 
f 92 156 157 
f 93 158 94 
f 93 157 158 
f 94 159 95 
f 94 158 159 
f 95 160 96 
f 95 159 160 
f 96 161 97 
f 96 160 161 
f 97 162 98 
f 97 161 162 
f 98 163 99 
f 98 162 163 
f 99 164 100 
f 99 163 164 
f 100 165 101 
f 100 164 165 
f 101 166 102 
f 101 165 166 
f 102 167 103 
f 102 166 167 
f 103 168 104 
f 103 167 168 
f 104 169 105 
f 104 168 169 
f 105 170 106 
f 105 169 170 
f 106 171 107 
f 106 170 171 
f 107 172 108 
f 107 171 172 
f 108 173 109 
f 108 172 173 
f 109 174 110 
f 109 173 174 
f 110 175 111 
f 110 174 175 
f 111 176 112 
f 111 175 176 
f 112 177 113 
f 112 176 177 
f 113 178 114 
f 113 177 178 
f 114 179 115 
f 114 178 179 
f 115 180 116 
f 115 179 180 
f 116 181 117 
f 116 180 181 
f 117 182 118 
f 117 181 182 
f 118 183 119 
f 118 182 183 
f 119 184 120 
f 119 183 184 
f 120 185 121 
f 120 184 185 
f 121 186 122 
f 121 185 186 
f 122 187 123 
f 122 186 187 
f 123 188 124 
f 123 187 188 
f 124 189 125 
f 124 188 189 
f 125 190 126 
f 125 189 190 
f 126 191 127 
f 126 190 191 
f 127 192 128 
f 127 191 192 
f 128 129 65 
f 128 192 129 
f 129 194 130 
f 129 193 194 
f 130 195 131 
f 130 194 195 
f 131 196 132 
f 131 195 196 
f 132 197 133 
f 132 196 197 
f 133 198 134 
f 133 197 198 
f 134 199 135 
f 134 198 199 
f 135 200 136 
f 135 199 200 
f 136 201 137 
f 136 200 201 
f 137 202 138 
f 137 201 202 
f 138 203 139 
f 138 202 203 
f 139 204 140 
f 139 203 204 
f 140 205 141 
f 140 204 205 
f 141 206 142 
f 141 205 206 
f 142 207 143 
f 142 206 207 
f 143 208 144 
f 143 207 208 
f 144 209 145 
f 144 208 209 
f 145 210 146 
f 145 209 210 
f 146 211 147 
f 146 210 211 
f 147 212 148 
f 147 211 212 
f 148 213 149 
f 148 212 213 
f 149 214 150 
f 149 213 214 
f 150 215 151 
f 150 214 215 
f 151 216 152 
f 151 215 216 
f 152 217 153 
f 152 216 217 
f 153 218 154 
f 153 217 218 
f 154 219 155 
f 154 218 219 
f 155 220 156 
f 155 219 220 
f 156 221 157 
f 156 220 221 
f 157 222 158 
f 157 221 222 
f 158 223 159 
f 158 222 223 
f 159 224 160 
f 159 223 224 
f 160 225 161 
f 160 224 225 
f 161 226 162 
f 161 225 226 
f 162 227 163 
f 162 226 227 
f 163 228 164 
f 163 227 228 
f 164 229 165 
f 164 228 229 
f 165 230 166 
f 165 229 230 
f 166 231 167 
f 166 230 231 
f 167 232 168 
f 167 231 232 
f 168 233 169 
f 168 232 233 
f 169 234 170 
f 169 233 234 
f 170 235 171 
f 170 234 235 
f 171 236 172 
f 171 235 236 
f 172 237 173 
f 172 236 237 
f 173 238 174 
f 173 237 238 
f 174 239 175 
f 174 238 239 
f 175 240 176 
f 175 239 240 
f 176 241 177 
f 176 240 241 
f 177 242 178 
f 177 241 242 
f 178 243 179 
f 178 242 243 
f 179 244 180 
f 179 243 244 
f 180 245 181 
f 180 244 245 
f 181 246 182 
f 181 245 246 
f 182 247 183 
f 182 246 247 
f 183 248 184 
f 183 247 248 
f 184 249 185 
f 184 248 249 
f 185 250 186 
f 185 249 250 
f 186 251 187 
f 186 250 251 
f 187 252 188 
f 187 251 252 
f 188 253 189 
f 188 252 253 
f 189 254 190 
f 189 253 254 
f 190 255 191 
f 190 254 255 
f 191 256 192 
f 191 255 256 
f 192 193 129 
f 192 256 193 
f 193 258 194 
f 193 257 258 
f 194 259 195 
f 194 258 259 
f 195 260 196 
f 195 259 260 
f 196 261 197 
f 196 260 261 
f 197 262 198 
f 197 261 262 
f 198 263 199 
f 198 262 263 
f 199 264 200 
f 199 263 264 
f 200 265 201 
f 200 264 265 
f 201 266 202 
f 201 265 266 
f 202 267 203 
f 202 266 267 
f 203 268 204 
f 203 267 268 
f 204 269 205 
f 204 268 269 
f 205 270 206 
f 205 269 270 
f 206 271 207 
f 206 270 271 
f 207 272 208 
f 207 271 272 
f 208 273 209 
f 208 272 273 
f 209 274 210 
f 209 273 274 
f 210 275 211 
f 210 274 275 
f 211 276 212 
f 211 275 276 
f 212 277 213 
f 212 276 277 
f 213 278 214 
f 213 277 278 
f 214 279 215 
f 214 278 279 
f 215 280 216 
f 215 279 280 
f 216 281 217 
f 216 280 281 
f 217 282 218 
f 217 281 282 
f 218 283 219 
f 218 282 283 
f 219 284 220 
f 219 283 284 
f 220 285 221 
f 220 284 285 
f 221 286 222 
f 221 285 286 
f 222 287 223 
f 222 286 287 
f 223 288 224 
f 223 287 288 
f 224 289 225 
f 224 288 289 
f 225 290 226 
f 225 289 290 
f 226 291 227 
f 226 290 291 
f 227 292 228 
f 227 291 292 
f 228 293 229 
f 228 292 293 
f 229 294 230 
f 229 293 294 
f 230 295 231 
f 230 294 295 
f 231 296 232 
f 231 295 296 
f 232 297 233 
f 232 296 297 
f 233 298 234 
f 233 297 298 
f 234 299 235 
f 234 298 299 
f 235 300 236 
f 235 299 300 
f 236 301 237 
f 236 300 301 
f 237 302 238 
f 237 301 302 
f 238 303 239 
f 238 302 303 
f 239 304 240 
f 239 303 304 
f 240 305 241 
f 240 304 305 
f 241 306 242 
f 241 305 306 
f 242 307 243 
f 242 306 307 
f 243 308 244 
f 243 307 308 
f 244 309 245 
f 244 308 309 
f 245 310 246 
f 245 309 310 
f 246 311 247 
f 246 310 311 
f 247 312 248 
f 247 311 312 
f 248 313 249 
f 248 312 313 
f 249 314 250 
f 249 313 314 
f 250 315 251 
f 250 314 315 
f 251 316 252 
f 251 315 316 
f 252 317 253 
f 252 316 317 
f 253 318 254 
f 253 317 318 
f 254 319 255 
f 254 318 319 
f 255 320 256 
f 255 319 320 
f 256 257 193 
f 256 320 257 
f 257 322 258 
f 257 321 322 
f 258 323 259 
f 258 322 323 
f 259 324 260 
f 259 323 324 
f 260 325 261 
f 260 324 325 
f 261 326 262 
f 261 325 326 
f 262 327 263 
f 262 326 327 
f 263 328 264 
f 263 327 328 
f 264 329 265 
f 264 328 329 
f 265 330 266 
f 265 329 330 
f 266 331 267 
f 266 330 331 
f 267 332 268 
f 267 331 332 
f 268 333 269 
f 268 332 333 
f 269 334 270 
f 269 333 334 
f 270 335 271 
f 270 334 335 
f 271 336 272 
f 271 335 336 
f 272 337 273 
f 272 336 337 
f 273 338 274 
f 273 337 338 
f 274 339 275 
f 274 338 339 
f 275 340 276 
f 275 339 340 
f 276 341 277 
f 276 340 341 
f 277 342 278 
f 277 341 342 
f 278 343 279 
f 278 342 343 
f 279 344 280 
f 279 343 344 
f 280 345 281 
f 280 344 345 
f 281 346 282 
f 281 345 346 
f 282 347 283 
f 282 346 347 
f 283 348 284 
f 283 347 348 
f 284 349 285 
f 284 348 349 
f 285 350 286 
f 285 349 350 
f 286 351 287 
f 286 350 351 
f 287 352 288 
f 287 351 352 
f 288 353 289 
f 288 352 353 
f 289 354 290 
f 289 353 354 
f 290 355 291 
f 290 354 355 
f 291 356 292 
f 291 355 356 
f 292 357 293 
f 292 356 357 
f 293 358 294 
f 293 357 358 
f 294 359 295 
f 294 358 359 
f 295 360 296 
f 295 359 360 
f 296 361 297 
f 296 360 361 
f 297 362 298 
f 297 361 362 
f 298 363 299 
f 298 362 363 
f 299 364 300 
f 299 363 364 
f 300 365 301 
f 300 364 365 
f 301 366 302 
f 301 365 366 
f 302 367 303 
f 302 366 367 
f 303 368 304 
f 303 367 368 
f 304 369 305 
f 304 368 369 
f 305 370 306 
f 305 369 370 
f 306 371 307 
f 306 370 371 
f 307 372 308 
f 307 371 372 
f 308 373 309 
f 308 372 373 
f 309 374 310 
f 309 373 374 
f 310 375 311 
f 310 374 375 
f 311 376 312 
f 311 375 376 
f 312 377 313 
f 312 376 377 
f 313 378 314 
f 313 377 378 
f 314 379 315 
f 314 378 379 
f 315 380 316 
f 315 379 380 
f 316 381 317 
f 316 380 381 
f 317 382 318 
f 317 381 382 
f 318 383 319 
f 318 382 383 
f 319 384 320 
f 319 383 384 
f 320 321 257 
f 320 384 321 
f 321 386 322 
f 321 385 386 
f 322 387 323 
f 322 386 387 
f 323 388 324 
f 323 387 388 
f 324 389 325 
f 324 388 389 
f 325 390 326 
f 325 389 390 
f 326 391 327 
f 326 390 391 
f 327 392 328 
f 327 391 392 
f 328 393 329 
f 328 392 393 
f 329 394 330 
f 329 393 394 
f 330 395 331 
f 330 394 395 
f 331 396 332 
f 331 395 396 
f 332 397 333 
f 332 396 397 
f 333 398 334 
f 333 397 398 
f 334 399 335 
f 334 398 399 
f 335 400 336 
f 335 399 400 
f 336 401 337 
f 336 400 401 
f 337 402 338 
f 337 401 402 
f 338 403 339 
f 338 402 403 
f 339 404 340 
f 339 403 404 
f 340 405 341 
f 340 404 405 
f 341 406 342 
f 341 405 406 
f 342 407 343 
f 342 406 407 
f 343 408 344 
f 343 407 408 
f 344 409 345 
f 344 408 409 
f 345 410 346 
f 345 409 410 
f 346 411 347 
f 346 410 411 
f 347 412 348 
f 347 411 412 
f 348 413 349 
f 348 412 413 
f 349 414 350 
f 349 413 414 
f 350 415 351 
f 350 414 415 
f 351 416 352 
f 351 415 416 
f 352 417 353 
f 352 416 417 
f 353 418 354 
f 353 417 418 
f 354 419 355 
f 354 418 419 
f 355 420 356 
f 355 419 420 
f 356 421 357 
f 356 420 421 
f 357 422 358 
f 357 421 422 
f 358 423 359 
f 358 422 423 
f 359 424 360 
f 359 423 424 
f 360 425 361 
f 360 424 425 
f 361 426 362 
f 361 425 426 
f 362 427 363 
f 362 426 427 
f 363 428 364 
f 363 427 428 
f 364 429 365 
f 364 428 429 
f 365 430 366 
f 365 429 430 
f 366 431 367 
f 366 430 431 
f 367 432 368 
f 367 431 432 
f 368 433 369 
f 368 432 433 
f 369 434 370 
f 369 433 434 
f 370 435 371 
f 370 434 435 
f 371 436 372 
f 371 435 436 
f 372 437 373 
f 372 436 437 
f 373 438 374 
f 373 437 438 
f 374 439 375 
f 374 438 439 
f 375 440 376 
f 375 439 440 
f 376 441 377 
f 376 440 441 
f 377 442 378 
f 377 441 442 
f 378 443 379 
f 378 442 443 
f 379 444 380 
f 379 443 444 
f 380 445 381 
f 380 444 445 
f 381 446 382 
f 381 445 446 
f 382 447 383 
f 382 446 447 
f 383 448 384 
f 383 447 448 
f 384 385 321 
f 384 448 385 
f 385 450 386 
f 385 449 450 
f 386 451 387 
f 386 450 451 
f 387 452 388 
f 387 451 452 
f 388 453 389 
f 388 452 453 
f 389 454 390 
f 389 453 454 
f 390 455 391 
f 390 454 455 
f 391 456 392 
f 391 455 456 
f 392 457 393 
f 392 456 457 
f 393 458 394 
f 393 457 458 
f 394 459 395 
f 394 458 459 
f 395 460 396 
f 395 459 460 
f 396 461 397 
f 396 460 461 
f 397 462 398 
f 397 461 462 
f 398 463 399 
f 398 462 463 
f 399 464 400 
f 399 463 464 
f 400 465 401 
f 400 464 465 
f 401 466 402 
f 401 465 466 
f 402 467 403 
f 402 466 467 
f 403 468 404 
f 403 467 468 
f 404 469 405 
f 404 468 469 
f 405 470 406 
f 405 469 470 
f 406 471 407 
f 406 470 471 
f 407 472 408 
f 407 471 472 
f 408 473 409 
f 408 472 473 
f 409 474 410 
f 409 473 474 
f 410 475 411 
f 410 474 475 
f 411 476 412 
f 411 475 476 
f 412 477 413 
f 412 476 477 
f 413 478 414 
f 413 477 478 
f 414 479 415 
f 414 478 479 
f 415 480 416 
f 415 479 480 
f 416 481 417 
f 416 480 481 
f 417 482 418 
f 417 481 482 
f 418 483 419 
f 418 482 483 
f 419 484 420 
f 419 483 484 
f 420 485 421 
f 420 484 485 
f 421 486 422 
f 421 485 486 
f 422 487 423 
f 422 486 487 
f 423 488 424 
f 423 487 488 
f 424 489 425 
f 424 488 489 
f 425 490 426 
f 425 489 490 
f 426 491 427 
f 426 490 491 
f 427 492 428 
f 427 491 492 
f 428 493 429 
f 428 492 493 
f 429 494 430 
f 429 493 494 
f 430 495 431 
f 430 494 495 
f 431 496 432 
f 431 495 496 
f 432 497 433 
f 432 496 497 
f 433 498 434 
f 433 497 498 
f 434 499 435 
f 434 498 499 
f 435 500 436 
f 435 499 500 
f 436 501 437 
f 436 500 501 
f 437 502 438 
f 437 501 502 
f 438 503 439 
f 438 502 503 
f 439 504 440 
f 439 503 504 
f 440 505 441 
f 440 504 505 
f 441 506 442 
f 441 505 506 
f 442 507 443 
f 442 506 507 
f 443 508 444 
f 443 507 508 
f 444 509 445 
f 444 508 509 
f 445 510 446 
f 445 509 510 
f 446 511 447 
f 446 510 511 
f 447 512 448 
f 447 511 512 
f 448 449 385 
f 448 512 449 
f 449 514 450 
f 449 513 514 
f 450 515 451 
f 450 514 515 
f 451 516 452 
f 451 515 516 
f 452 517 453 
f 452 516 517 
f 453 518 454 
f 453 517 518 
f 454 519 455 
f 454 518 519 
f 455 520 456 
f 455 519 520 
f 456 521 457 
f 456 520 521 
f 457 522 458 
f 457 521 522 
f 458 523 459 
f 458 522 523 
f 459 524 460 
f 459 523 524 
f 460 525 461 
f 460 524 525 
f 461 526 462 
f 461 525 526 
f 462 527 463 
f 462 526 527 
f 463 528 464 
f 463 527 528 
f 464 529 465 
f 464 528 529 
f 465 530 466 
f 465 529 530 
f 466 531 467 
f 466 530 531 
f 467 532 468 
f 467 531 532 
f 468 533 469 
f 468 532 533 
f 469 534 470 
f 469 533 534 
f 470 535 471 
f 470 534 535 
f 471 536 472 
f 471 535 536 
f 472 537 473 
f 472 536 537 
f 473 538 474 
f 473 537 538 
f 474 539 475 
f 474 538 539 
f 475 540 476 
f 475 539 540 
f 476 541 477 
f 476 540 541 
f 477 542 478 
f 477 541 542 
f 478 543 479 
f 478 542 543 
f 479 544 480 
f 479 543 544 
f 480 545 481 
f 480 544 545 
f 481 546 482 
f 481 545 546 
f 482 547 483 
f 482 546 547 
f 483 548 484 
f 483 547 548 
f 484 549 485 
f 484 548 549 
f 485 550 486 
f 485 549 550 
f 486 551 487 
f 486 550 551 
f 487 552 488 
f 487 551 552 
f 488 553 489 
f 488 552 553 
f 489 554 490 
f 489 553 554 
f 490 555 491 
f 490 554 555 
f 491 556 492 
f 491 555 556 
f 492 557 493 
f 492 556 557 
f 493 558 494 
f 493 557 558 
f 494 559 495 
f 494 558 559 
f 495 560 496 
f 495 559 560 
f 496 561 497 
f 496 560 561 
f 497 562 498 
f 497 561 562 
f 498 563 499 
f 498 562 563 
f 499 564 500 
f 499 563 564 
f 500 565 501 
f 500 564 565 
f 501 566 502 
f 501 565 566 
f 502 567 503 
f 502 566 567 
f 503 568 504 
f 503 567 568 
f 504 569 505 
f 504 568 569 
f 505 570 506 
f 505 569 570 
f 506 571 507 
f 506 570 571 
f 507 572 508 
f 507 571 572 
f 508 573 509 
f 508 572 573 
f 509 574 510 
f 509 573 574 
f 510 575 511 
f 510 574 575 
f 511 576 512 
f 511 575 576 
f 512 513 449 
f 512 576 513 
f 513 578 514 
f 513 577 578 
f 514 579 515 
f 514 578 579 
f 515 580 516 
f 515 579 580 
f 516 581 517 
f 516 580 581 
f 517 582 518 
f 517 581 582 
f 518 583 519 
f 518 582 583 
f 519 584 520 
f 519 583 584 
f 520 585 521 
f 520 584 585 
f 521 586 522 
f 521 585 586 
f 522 587 523 
f 522 586 587 
f 523 588 524 
f 523 587 588 
f 524 589 525 
f 524 588 589 
f 525 590 526 
f 525 589 590 
f 526 591 527 
f 526 590 591 
f 527 592 528 
f 527 591 592 
f 528 593 529 
f 528 592 593 
f 529 594 530 
f 529 593 594 
f 530 595 531 
f 530 594 595 
f 531 596 532 
f 531 595 596 
f 532 597 533 
f 532 596 597 
f 533 598 534 
f 533 597 598 
f 534 599 535 
f 534 598 599 
f 535 600 536 
f 535 599 600 
f 536 601 537 
f 536 600 601 
f 537 602 538 
f 537 601 602 
f 538 603 539 
f 538 602 603 
f 539 604 540 
f 539 603 604 
f 540 605 541 
f 540 604 605 
f 541 606 542 
f 541 605 606 
f 542 607 543 
f 542 606 607 
f 543 608 544 
f 543 607 608 
f 544 609 545 
f 544 608 609 
f 545 610 546 
f 545 609 610 
f 546 611 547 
f 546 610 611 
f 547 612 548 
f 547 611 612 
f 548 613 549 
f 548 612 613 
f 549 614 550 
f 549 613 614 
f 550 615 551 
f 550 614 615 
f 551 616 552 
f 551 615 616 
f 552 617 553 
f 552 616 617 
f 553 618 554 
f 553 617 618 
f 554 619 555 
f 554 618 619 
f 555 620 556 
f 555 619 620 
f 556 621 557 
f 556 620 621 
f 557 622 558 
f 557 621 622 
f 558 623 559 
f 558 622 623 
f 559 624 560 
f 559 623 624 
f 560 625 561 
f 560 624 625 
f 561 626 562 
f 561 625 626 
f 562 627 563 
f 562 626 627 
f 563 628 564 
f 563 627 628 
f 564 629 565 
f 564 628 629 
f 565 630 566 
f 565 629 630 
f 566 631 567 
f 566 630 631 
f 567 632 568 
f 567 631 632 
f 568 633 569 
f 568 632 633 
f 569 634 570 
f 569 633 634 
f 570 635 571 
f 570 634 635 
f 571 636 572 
f 571 635 636 
f 572 637 573 
f 572 636 637 
f 573 638 574 
f 573 637 638 
f 574 639 575 
f 574 638 639 
f 575 640 576 
f 575 639 640 
f 576 577 513 
f 576 640 577 
