# Branch
v 4.79074 9.19185 -26.2972
vn -0.0962789 0.00121859 0.995354
v 4.86651 9.18426 -26.2937
vn 0.00125907 -0.00856112 0.999963
v 4.94226 9.17672 -26.2976
vn 0.0987849 -0.0182584 0.994941
v 5.01728 9.16933 -26.3089
vn 0.195359 -0.0277798 0.980338
v 5.09084 9.16214 -26.3276
vn 0.290053 -0.0370337 0.956294
v 5.16223 9.15523 -26.3534
vn 0.381952 -0.0459309 0.92304
v 5.23076 9.14866 -26.3861
vn 0.470174 -0.0543858 0.880897
v 5.29577 9.1425 -26.4255
vn 0.553867 -0.0623169 0.83027
v 5.35664 9.1368 -26.471
vn 0.632226 -0.0696479 0.771647
v 5.41278 9.13163 -26.5223
vn 0.704497 -0.0763081 0.705593
v 5.46365 9.12703 -26.5789
vn 0.769983 -0.0822335 0.632744
v 5.50876 9.12304 -26.6402
vn 0.828053 -0.0873669 0.5538
v 5.54767 9.11971 -26.7057
vn 0.878149 -0.0916588 0.469524
v 5.58002 9.11706 -26.7747
vn 0.919788 -0.0950681 0.380726
v 5.60548 9.11512 -26.8465
vn 0.952569 -0.0975618 0.288261
v 5.62382 9.11391 -26.9205
vn 0.976176 -0.099116 0.19302
v 5.63486 9.11345 -26.9959
vn 0.990382 -0.0997156 0.0959201
v 5.63848 9.11373 -27.0721
vn 0.99505 -0.0993549 -0.0021035
v 5.63467 9.11475 -27.1482
vn 0.990135 -0.0980373 -0.100107
v 5.62344 9.11651 -27.2236
vn 0.975685 -0.0957756 -0.197146
v 5.60492 9.11898 -27.2975
vn 0.951838 -0.0925915 -0.292287
v 5.57927 9.12215 -27.3692
vn 0.918824 -0.0885157 -0.384612
v 5.54675 9.12598 -27.438
vn 0.876962 -0.0835875 -0.473234
v 5.50767 9.13043 -27.5033
vn 0.826654 -0.0778542 -0.557298
v 5.46241 9.13547 -27.5645
vn 0.768385 -0.0713712 -0.635996
v 5.4114 9.14104 -27.6208
vn 0.702716 -0.0642009 -0.708568
v 5.35513 9.14709 -27.6719
vn 0.63028 -0.0564122 -0.774316
v 5.29415 9.15356 -27.7172
vn 0.551773 -0.0480803 -0.832607
v 5.22903 9.16039 -27.7562
vn 0.467953 -0.0392853 -0.88288
v 5.16042 9.16752 -27.7887
vn 0.379626 -0.030112 -0.92465
v 5.08897 9.17487 -27.8142
vn 0.287643 -0.0206487 -0.957515
v 5.01537 9.18237 -27.8326
vn 0.19289 -0.0109866 -0.981159
v 4.94032 9.18996 -27.8436
vn 0.0962789 -0.00121859 -0.995354
v 4.86455 9.19756 -27.8472
vn -0.00125907 0.00856112 -0.999963
v 4.78879 9.20509 -27.8433
vn -0.0987849 0.0182584 -0.994941
v 4.71377 9.21249 -27.8319
vn -0.195359 0.0277798 -0.980338
v 4.64022 9.21967 -27.8133
vn -0.290053 0.0370337 -0.956294
v 4.56883 9.22659 -27.7874
vn -0.381952 0.0459309 -0.92304
v 4.5003 9.23315 -27.7547
vn -0.470174 0.0543858 -0.880897
v 4.43528 9.23931 -27.7154
vn -0.553867 0.0623169 -0.83027
v 4.37442 9.24501 -27.6698
vn -0.632226 0.0696479 -0.771647
v 4.31828 9.25018 -27.6185
vn -0.704497 0.0763081 -0.705593
v 4.26741 9.25479 -27.5619
vn -0.769983 0.0822335 -0.632744
v 4.2223 9.25877 -27.5006
vn -0.828053 0.0873669 -0.5538
v 4.18338 9.26211 -27.4351
vn -0.878149 0.0916588 -0.469524
v 4.15104 9.26476 -27.3662
vn -0.919788 0.0950681 -0.380726
v 4.12557 9.26669 -27.2943
vn -0.952569 0.0975618 -0.288261
v 4.10724 9.2679 -27.2204
vn -0.976176 0.099116 -0.19302
v 4.0962 9.26837 -27.1449
vn -0.990382 0.0997156 -0.0959201
v 4.09257 9.26809 -27.0688
vn -0.99505 0.0993549 0.0021035
v 4.09639 9.26706 -26.9927
vn -0.990135 0.0980373 0.100107
v 4.10762 9.2653 -26.9173
vn -0.975685 0.0957756 0.197146
v 4.12614 9.26283 -26.8434
vn -0.951838 0.0925915 0.292287
v 4.15179 9.25967 -26.7717
vn -0.918824 0.0885157 0.384612
v 4.1843 9.25584 -26.7028
vn -0.876962 0.0835875 0.473234
v 4.22338 9.25138 -26.6375
vn -0.826654 0.0778542 0.557298
v 4.26865 9.24635 -26.5764
vn -0.768385 0.0713712 0.635996
v 4.31966 9.24078 -26.52
vn -0.702716 0.0642009 0.708568
v 4.37593 9.23473 -26.4689
vn -0.63028 0.0564122 0.774316
v 4.43691 9.22825 -26.4237
vn -0.551773 0.0480803 0.832607
v 4.50202 9.22142 -26.3846
vn -0.467953 0.0392853 0.88288
v 4.57064 9.2143 -26.3522
vn -0.379626 0.030112 0.92465
v 4.64209 9.20695 -26.3266
vn -0.287643 0.0206487 0.957515
v 4.71569 9.19944 -26.3083
vn -0.19289 0.0109866 0.981159
v 4.58589 7.08314 -26.3743
vn -0.101195 -0.0492467 0.993647
v 4.66117 7.07578 -26.3708
vn -0.00363302 -0.0587834 0.998264
v 4.73647 7.06886 -26.3746
vn 0.0939636 -0.067754 0.993267
v 4.81107 7.06244 -26.3858
vn 0.190655 -0.0760721 0.978705
v 4.88426 7.05659 -26.4043
vn 0.285511 -0.0836575 0.954717
v 4.95532 7.05136 -26.43
vn 0.377617 -0.0904373 0.921535
v 5.02358 7.0468 -26.4624
vn 0.466086 -0.0963462 0.879478
v 5.08838 7.04296 -26.5014
vn 0.550067 -0.101327 0.828951
v 5.14909 7.03987 -26.5465
vn 0.62875 -0.105332 0.77044
v 5.20512 7.03756 -26.5974
vn 0.701378 -0.108323 0.70451
v 5.25595 7.03606 -26.6535
vn 0.767252 -0.11027 0.631795
v 5.30107 7.03537 -26.7143
vn 0.825736 -0.111156 0.552996
v 5.34006 7.03552 -26.7792
vn 0.876268 -0.110971 0.468871
v 5.37254 7.03648 -26.8476
vn 0.918361 -0.109717 0.38023
v 5.39819 7.03827 -26.9188
vn 0.95161 -0.107407 0.287928
v 5.41677 7.04085 -26.9922
vn 0.975694 -0.104062 0.192853
v 5.42811 7.0442 -27.067
vn 0.990382 -0.0997156 0.0959201
v 5.43208 7.04829 -27.1425
vn 0.995532 -0.0944084 -0.00193622
v 5.42866 7.05309 -27.218
vn 0.991094 -0.088192 -0.0997739
v 5.41787 7.05854 -27.2927
vn 0.977112 -0.0811263 -0.196651
v 5.39982 7.0646 -27.366
vn 0.953719 -0.0732793 -0.291634
v 5.37468 7.0712 -27.4371
vn 0.921142 -0.0647265 -0.383808
v 5.3427 7.07828 -27.5054
vn 0.879693 -0.0555505 -0.472286
v 5.30419 7.08577 -27.5701
vn 0.829773 -0.0458394 -0.556216
v 5.2595 7.0936 -27.6307
vn 0.771861 -0.0356869 -0.634789
v 5.20909 7.1017 -27.6867
vn 0.706516 -0.0251907 -0.707248
v 5.15342 7.10999 -27.7373
vn 0.634367 -0.0144518 -0.772897
v 5.09304 7.11838 -27.7822
vn 0.556109 -0.00357386 -0.831102
v 5.02853 7.1268 -27.8209
vn 0.472494 0.00733855 -0.881303
v 4.9605 7.13516 -27.8531
vn 0.38433 0.0181803 -0.923017
v 4.88962 7.14339 -27.8785
vn 0.292464 0.0288469 -0.955841
v 4.81657 7.15141 -27.8967
vn 0.197782 0.0392358 -0.979461
v 4.74205 7.15913 -27.9076
vn 0.101195 0.0492467 -0.993647
v 4.66677 7.16649 -27.9112
vn 0.00363302 0.0587834 -0.998264
v 4.59147 7.17341 -27.9073
vn -0.0939636 0.067754 -0.993267
v 4.51687 7.17983 -27.8961
vn -0.190655 0.0760721 -0.978705
v 4.44368 7.18568 -27.8776
vn -0.285511 0.0836575 -0.954717
v 4.37261 7.19091 -27.852
vn -0.377617 0.0904373 -0.921535
v 4.30436 7.19547 -27.8195
vn -0.466086 0.0963462 -0.879478
v 4.23956 7.19932 -27.7806
vn -0.550067 0.101327 -0.828951
v 4.17885 7.20241 -27.7354
vn -0.62875 0.105332 -0.77044
v 4.12281 7.20471 -27.6845
vn -0.701378 0.108323 -0.70451
v 4.07199 7.20622 -27.6284
vn -0.767252 0.11027 -0.631795
v 4.02686 7.2069 -27.5676
vn -0.825736 0.111156 -0.552996
v 3.98788 7.20676 -27.5027
vn -0.876268 0.110971 -0.468871
v 3.9554 7.20579 -27.4343
vn -0.918361 0.109717 -0.38023
v 3.92975 7.20401 -27.3631
vn -0.95161 0.107407 -0.287928
v 3.91116 7.20143 -27.2898
vn -0.975694 0.104062 -0.192853
v 3.89983 7.19807 -27.215
vn -0.990382 0.0997156 -0.0959201
v 3.89586 7.19398 -27.1395
vn -0.995532 0.0944084 0.00193622
v 3.89928 7.18918 -27.064
vn -0.991094 0.088192 0.0997739
v 3.91007 7.18373 -26.9892
vn -0.977112 0.0811263 0.196651
v 3.92812 7.17768 -26.916
vn -0.953719 0.0732793 0.291634
v 3.95325 7.17108 -26.8448
vn -0.921142 0.0647265 0.383808
v 3.98523 7.164 -26.7766
vn -0.879693 0.0555505 0.472286
v 4.02375 7.1565 -26.7118
vn -0.829773 0.0458394 0.556216
v 4.06843 7.14867 -26.6512
vn -0.771861 0.0356869 0.634789
v 4.11885 7.14057 -26.5953
vn -0.706516 0.0251907 0.707248
v 4.17452 7.13229 -26.5446
vn -0.634367 0.0144518 0.772897
v 4.2349 7.12389 -26.4997
vn -0.556109 0.00357386 0.831102
v 4.29941 7.11547 -26.461
vn -0.472494 -0.00733855 0.881303
v 4.36744 7.10711 -26.4288
vn -0.38433 -0.0181803 0.923017
v 4.43832 7.09888 -26.4035
vn -0.292464 -0.0288469 0.955841
v 4.51137 7.09086 -26.3853
vn -0.197782 -0.0392358 0.979461
v 4.38764 4.93577 -26.5597
vn -0.105655 -0.0974212 0.989619
v 4.46242 4.92864 -26.5561
vn -0.00807184 -0.106726 0.994256
v 4.53726 4.9223 -26.5599
vn 0.089589 -0.115003 0.989317
v 4.61143 4.9168 -26.571
vn 0.186387 -0.122172 0.974851
v 4.68424 4.91221 -26.5893
vn 0.28139 -0.128165 0.950996
v 4.75496 4.90856 -26.6146
vn 0.373683 -0.132923 0.917983
v 4.82293 4.9059 -26.6466
vn 0.462378 -0.136402 0.876129
v 4.88749 4.90424 -26.6852
vn 0.546619 -0.138567 0.825837
v 4.94801 4.9036 -26.7298
vn 0.625596 -0.139397 0.767592
v 5.00391 4.90399 -26.7801
vn 0.698549 -0.138885 0.701955
v 5.05466 4.90541 -26.8356
vn 0.764774 -0.137035 0.629558
v 5.09977 4.90784 -26.8957
vn 0.823633 -0.133865 0.551097
v 5.13879 4.91126 -26.9599
vn 0.874561 -0.129407 0.467329
v 5.17137 4.91563 -27.0276
vn 0.917066 -0.123702 0.379061
v 5.19717 4.92091 -27.098
vn 0.95074 -0.116806 0.287142
v 5.21596 4.92706 -27.1706
vn 0.975257 -0.108784 0.192458
v 5.22755 4.93401 -27.2445
vn 0.990382 -0.0997156 0.0959201
v 5.23183 4.9417 -27.3192
vn 0.995969 -0.0896865 -0.00154142
v 5.22876 4.95004 -27.3939
vn 0.991964 -0.0787936 -0.0989881
v 5.21837 4.95897 -27.4678
vn 0.978406 -0.067142 -0.195481
v 5.20076 4.9684 -27.5403
vn 0.955426 -0.0548437 -0.290092
v 5.1761 4.97823 -27.6107
vn 0.923244 -0.0420172 -0.381909
v 5.14463 4.98836 -27.6782
vn 0.882171 -0.0287861 -0.470048
v 5.10664 4.99872 -27.7423
vn 0.832602 -0.0152778 -0.553661
v 5.06251 5.00918 -27.8023
vn 0.775015 -0.00162235 -0.631941
v 5.01266 5.01966 -27.8576
vn 0.709964 0.0120487 -0.704135
v 4.95757 5.03004 -27.9078
vn 0.638076 0.0256038 -0.769548
v 4.89777 5.04024 -27.9522
vn 0.560042 0.0389123 -0.82755
v 4.83384 5.05015 -27.9905
vn 0.476615 0.051846 -0.877582
v 4.76639 5.05968 -28.0224
vn 0.388598 0.0642804 -0.919162
v 4.69608 5.06874 -28.0475
vn 0.296839 0.0760958 -0.951891
v 4.62357 5.07723 -28.0655
vn 0.202221 0.0871783 -0.975452
v 4.54957 5.08508 -28.0764
vn 0.105655 0.0974212 -0.989619
v 4.47479 5.09221 -28.08
vn 0.00807184 0.106726 -0.994256
v 4.39995 5.09855 -28.0762
vn -0.089589 0.115003 -0.989317
v 4.32577 5.10405 -28.0651
vn -0.186387 0.122172 -0.974851
v 4.25297 5.10864 -28.0468
vn -0.28139 0.128165 -0.950996
v 4.18224 5.11229 -28.0215
vn -0.373683 0.132923 -0.917983
v 4.11427 5.11495 -27.9894
vn -0.462378 0.136402 -0.876129
v 4.04972 5.11661 -27.9509
vn -0.546619 0.138567 -0.825837
v 3.9892 5.11725 -27.9063
vn -0.625596 0.139397 -0.767592
v 3.93329 5.11685 -27.856
vn -0.698549 0.138885 -0.701955
v 3.88254 5.11544 -27.8005
vn -0.764774 0.137035 -0.629558
v 3.83744 5.11301 -27.7404
vn -0.823633 0.133865 -0.551097
v 3.79841 5.10959 -27.6762
vn -0.874561 0.129407 -0.467329
v 3.76584 5.10522 -27.6085
vn -0.917066 0.123702 -0.379061
v 3.74003 5.09993 -27.5381
vn -0.95074 0.116806 -0.287142
v 3.72125 5.09379 -27.4655
vn -0.975257 0.108784 -0.192458
v 3.70966 5.08684 -27.3915
vn -0.990382 0.0997156 -0.0959201
v 3.70537 5.07915 -27.3169
vn -0.995969 0.0896865 0.00154142
v 3.70844 5.0708 -27.2422
vn -0.991964 0.0787936 0.0989881
v 3.71883 5.06188 -27.1682
vn -0.978406 0.067142 0.195481
v 3.73644 5.05245 -27.0957
vn -0.955426 0.0548437 0.290092
v 3.7611 5.04262 -27.0254
vn -0.923244 0.0420172 0.381909
v 3.79258 5.03248 -26.9578
vn -0.882171 0.0287861 0.470048
v 3.83056 5.02213 -26.8938
vn -0.832602 0.0152778 0.553661
v 3.87469 5.01167 -26.8338
vn -0.775015 0.00162235 0.631941
v 3.92454 5.00119 -26.7784
vn -0.709964 -0.0120487 0.704135
v 3.97963 4.9908 -26.7283
vn -0.638076 -0.0256038 0.769548
v 4.03943 4.9806 -26.6839
vn -0.560042 -0.0389123 0.82755
v 4.10336 4.97069 -26.6455
vn -0.476615 -0.051846 0.877582
v 4.17081 4.96116 -26.6137
vn -0.388598 -0.0642804 0.919162
v 4.24113 4.95211 -26.5886
vn -0.296839 -0.0760958 0.951891
v 4.31364 4.94362 -26.5705
vn -0.202221 -0.0871783 0.975452
v 4.19596 2.74983 -26.853
vn -0.109676 -0.14314 0.983607
v 4.27024 2.74291 -26.8495
vn -0.0120733 -0.152224 0.988272
v 4.34461 2.73712 -26.8532
vn 0.0856455 -0.159843 0.98342
v 4.41836 2.73249 -26.8641
vn 0.182539 -0.165922 0.969097
v 4.49076 2.72908 -26.8821
vn 0.277675 -0.170404 0.945441
v 4.56113 2.72692 -26.907
vn 0.370137 -0.173244 0.91268
v 4.62879 2.72602 -26.9386
vn 0.459035 -0.174415 0.871129
v 4.69309 2.72641 -26.9766
vn 0.543511 -0.173908 0.821189
v 4.75339 2.72807 -27.0207
vn 0.622753 -0.171725 0.763341
v 4.80914 2.73099 -27.0703
vn 0.695998 -0.167888 0.698141
v 4.85978 2.73514 -27.125
vn 0.76254 -0.162435 0.626217
v 4.90484 2.74048 -27.1844
vn 0.821738 -0.155417 0.548263
v 4.94387 2.74696 -27.2477
vn 0.873022 -0.146902 0.465029
v 4.9765 2.75452 -27.3145
vn 0.915899 -0.136973 0.377316
v 5.00242 2.76308 -27.384
vn 0.949955 -0.125725 0.285969
v 5.02138 2.77256 -27.4556
vn 0.974863 -0.113266 0.191869
v 5.03319 2.78288 -27.5286
vn 0.990382 -0.0997156 0.0959201
v 5.03774 2.79392 -27.6023
vn 0.996363 -0.0852053 -0.000952101
v 5.03499 2.80559 -27.6761
vn 0.992749 -0.0698744 -0.0978151
v 5.02496 2.81777 -27.7491
vn 0.979574 -0.0538705 -0.193736
v 5.00776 2.83034 -27.8207
vn 0.956965 -0.0373479 -0.287791
v 4.98353 2.84319 -27.8901
vn 0.92514 -0.0204656 -0.379075
v 4.95253 2.85619 -27.9568
vn 0.884405 -0.00338621 -0.466708
v 4.91505 2.86921 -28.0201
vn 0.835153 0.0137258 -0.549846
v 4.87144 2.88214 -28.0793
vn 0.777858 0.0307056 -0.627689
v 4.82213 2.89484 -28.134
vn 0.713072 0.0473897 -0.699487
v 4.7676 2.90719 -28.1835
vn 0.641419 0.0636175 -0.764549
v 4.70837 2.91907 -28.2274
vn 0.563588 0.0792325 -0.822247
v 4.645 2.93037 -28.2653
vn 0.48033 0.0940845 -0.872027
v 4.57811 2.94099 -28.2968
vn 0.392446 0.10803 -0.913409
v 4.50835 2.95081 -28.3216
vn 0.300782 0.120936 -0.945994
v 4.43638 2.95975 -28.3395
vn 0.206222 0.132677 -0.969469
v 4.3629 2.96771 -28.3502
vn 0.109676 0.14314 -0.983607
v 4.28862 2.97462 -28.3538
vn 0.0120733 0.152224 -0.988272
v 4.21425 2.98042 -28.3501
vn -0.0856455 0.159843 -0.98342
v 4.1405 2.98505 -28.3392
vn -0.182539 0.165922 -0.969097
v 4.0681 2.98846 -28.3212
vn -0.277675 0.170404 -0.945441
v 3.99773 2.99062 -28.2962
vn -0.370137 0.173244 -0.91268
v 3.93007 2.99151 -28.2646
vn -0.459035 0.174415 -0.871129
v 3.86578 2.99113 -28.2266
vn -0.543511 0.173908 -0.821189
v 3.80547 2.98946 -28.1826
vn -0.622753 0.171725 -0.763341
v 3.74972 2.98654 -28.133
vn -0.695998 0.167888 -0.698141
v 3.69908 2.98239 -28.0782
vn -0.76254 0.162435 -0.626217
v 3.65403 2.97705 -28.0189
vn -0.821738 0.155417 -0.548263
v 3.61499 2.97057 -27.9555
vn -0.873022 0.146902 -0.465029
v 3.58236 2.96302 -27.8888
vn -0.915899 0.136973 -0.377316
v 3.55644 2.95445 -27.8193
vn -0.949955 0.125725 -0.285969
v 3.53749 2.94497 -27.7477
vn -0.974863 0.113266 -0.191869
v 3.52567 2.93466 -27.6746
vn -0.990382 0.0997156 -0.0959201
v 3.52112 2.92362 -27.6009
vn -0.996363 0.0852053 0.000952101
v 3.52387 2.91195 -27.5272
vn -0.992749 0.0698744 0.0978151
v 3.5339 2.89977 -27.4542
vn -0.979574 0.0538705 0.193736
v 3.55111 2.88719 -27.3826
vn -0.956965 0.0373479 0.287791
v 3.57533 2.87434 -27.3131
vn -0.92514 0.0204656 0.379075
v 3.60633 2.86135 -27.2464
vn -0.884405 0.00338621 0.466708
v 3.64382 2.84832 -27.1831
vn -0.835153 -0.0137258 0.549846
v 3.68742 2.8354 -27.1239
vn -0.777858 -0.0307056 0.627689
v 3.73673 2.8227 -27.0693
vn -0.713072 -0.0473897 0.699487
v 3.79126 2.81035 -27.0197
vn -0.641419 -0.0636175 0.764549
v 3.8505 2.79847 -26.9758
vn -0.563588 -0.0792325 0.822247
v 3.91386 2.78716 -26.9379
vn -0.48033 -0.0940845 0.872027
v 3.98075 2.77655 -26.9065
vn -0.392446 -0.10803 0.913409
v 4.05051 2.76673 -26.8817
vn -0.300782 -0.120936 0.945994
v 4.12248 2.75779 -26.8638
vn -0.206222 -0.132677 0.969469
v 4.01083 0.525347 -27.2541
vn -0.11328 -0.186313 0.975938
v 4.08462 0.518638 -27.2505
vn -0.01566 -0.195189 0.980641
v 4.15852 0.513349 -27.2541
vn 0.0821106 -0.202186 0.975899
v 4.23182 0.509532 -27.2648
vn 0.179091 -0.207236 0.961759
v 4.30381 0.507224 -27.2825
vn 0.274346 -0.21029 0.938356
v 4.37382 0.506447 -27.307
vn 0.366959 -0.211319 0.905917
v 4.44114 0.507207 -27.3381
vn 0.456038 -0.210312 0.864753
v 4.50515 0.509499 -27.3755
vn 0.540725 -0.207281 0.815261
v 4.56523 0.513299 -27.4189
vn 0.620205 -0.202253 0.757918
v 4.62079 0.518572 -27.4677
vn 0.693711 -0.195277 0.693276
v 4.6713 0.525266 -27.5216
vn 0.760537 -0.18642 0.621957
v 4.71627 0.533317 -27.5801
vn 0.820039 -0.175768 0.544648
v 4.75527 0.542647 -27.6425
vn 0.871643 -0.163424 0.462094
v 4.78793 0.553167 -27.7082
vn 0.914853 -0.149506 0.37509
v 4.81393 0.564776 -27.7767
vn 0.949252 -0.134147 0.284473
v 4.83302 0.57736 -27.8473
vn 0.974509 -0.117497 0.191117
v 4.84502 0.5908 -27.9192
vn 0.990382 -0.0997156 0.0959201
v 4.84981 0.604966 -27.9919
vn 0.996716 -0.0809736 -0.000200447
v 4.84734 0.619722 -28.0645
vn 0.993452 -0.0614518 -0.0963191
v 4.83764 0.634924 -28.1365
vn 0.98062 -0.0413381 -0.19151
v 4.82081 0.650428 -28.207
vn 0.958344 -0.0208264 -0.284857
v 4.79699 0.666083 -28.2755
vn 0.926839 -0.000114086 -0.37546
v 4.76643 0.681739 -28.3413
vn 0.886407 0.0205993 -0.462448
v 4.72942 0.697245 -28.4037
vn 0.83744 0.0411143 -0.544981
v 4.68631 0.712452 -28.4621
vn 0.780407 0.0612334 -0.622267
v 4.63753 0.727213 -28.516
vn 0.715858 0.0807628 -0.693559
v 4.58353 0.741386 -28.5648
vn 0.644415 0.0995143 -0.758173
v 4.52484 0.754834 -28.6081
vn 0.566767 0.117308 -0.815484
v 4.46202 0.767429 -28.6455
vn 0.48366 0.133971 -0.864942
v 4.39569 0.779049 -28.6766
vn 0.395895 0.149344 -0.90607
v 4.32647 0.789581 -28.7011
vn 0.304317 0.163279 -0.938473
v 4.25504 0.798926 -28.7187
vn 0.209809 0.175642 -0.961837
v 4.18208 0.806991 -28.7294
vn 0.11328 0.186313 -0.975938
v 4.10829 0.8137 -28.7329
vn 0.01566 0.195189 -0.980641
v 4.03439 0.818989 -28.7294
vn -0.0821106 0.202186 -0.975899
v 3.96109 0.822806 -28.7187
vn -0.179091 0.207236 -0.961759
v 3.88909 0.825114 -28.701
vn -0.274346 0.21029 -0.938356
v 3.81909 0.825892 -28.6765
vn -0.366959 0.211319 -0.905917
v 3.75176 0.825131 -28.6453
vn -0.456038 0.210312 -0.864753
v 3.68775 0.822839 -28.6079
vn -0.540725 0.207281 -0.815261
v 3.62768 0.819039 -28.5646
vn -0.620205 0.202253 -0.757918
v 3.57212 0.813766 -28.5157
vn -0.693711 0.195277 -0.693276
v 3.52161 0.807072 -28.4618
vn -0.760537 0.18642 -0.621957
v 3.47664 0.799021 -28.4034
vn -0.820039 0.175768 -0.544648
v 3.43763 0.789691 -28.341
vn -0.871643 0.163424 -0.462094
v 3.40498 0.779171 -28.2752
vn -0.914853 0.149506 -0.37509
v 3.37897 0.767563 -28.2067
vn -0.949252 0.134147 -0.284473
v 3.35988 0.754978 -28.1362
vn -0.974509 0.117497 -0.191117
v 3.34789 0.741538 -28.0642
vn -0.990382 0.0997156 -0.0959201
v 3.3431 0.727372 -27.9916
vn -0.996716 0.0809736 0.000200447
v 3.34557 0.712617 -27.9189
vn -0.993452 0.0614518 0.0963191
v 3.35527 0.697414 -27.847
vn -0.98062 0.0413381 0.19151
v 3.3721 0.68191 -27.7764
vn -0.958344 0.0208264 0.284857
v 3.39592 0.666255 -27.7079
vn -0.926839 0.000114086 0.37546
v 3.42648 0.650599 -27.6422
vn -0.886407 -0.0205993 0.462448
v 3.46349 0.635093 -27.5798
vn -0.83744 -0.0411143 0.544981
v 3.50659 0.619887 -27.5214
vn -0.780407 -0.0612334 0.622267
v 3.55538 0.605126 -27.4675
vn -0.715858 -0.0807628 0.693559
v 3.60938 0.590952 -27.4187
vn -0.644415 -0.0995143 0.758173
v 3.66807 0.577504 -27.3754
vn -0.566767 -0.117308 0.815484
v 3.73089 0.564909 -27.338
vn -0.48366 -0.133971 0.864942
v 3.79722 0.553289 -27.3069
vn -0.395895 -0.149344 0.90607
v 3.86644 0.542757 -27.2824
vn -0.304317 -0.163279 0.938473
v 3.93787 0.533413 -27.2647
vn -0.209809 -0.175642 0.961837
v 3.83223 -1.73769 -27.7626
vn -0.116495 -0.226914 0.966923
v 3.90552 -1.74421 -27.759
vn -0.0188592 -0.235595 0.971668
v 3.97894 -1.74902 -27.7625
vn 0.0789577 -0.242007 0.967057
v 4.05179 -1.75209 -27.7729
vn 0.176014 -0.246089 0.953131
v 4.12337 -1.75337 -27.7903
vn 0.271376 -0.2478 0.930027
v 4.19298 -1.75286 -27.8144
vn 0.364124 -0.247125 0.897966
v 4.25997 -1.75057 -27.8449
vn 0.453365 -0.244071 0.857257
v 4.32367 -1.74651 -27.8817
vn 0.53824 -0.238665 0.808292
v 4.38349 -1.74073 -27.9243
vn 0.617932 -0.230962 0.751543
v 4.43884 -1.73328 -27.9723
vn 0.691672 -0.221034 0.687556
v 4.48919 -1.72423 -28.0253
vn 0.758751 -0.208977 0.616948
v 4.53405 -1.71367 -28.0827
vn 0.818524 -0.194908 0.540398
v 4.573 -1.7017 -28.1441
vn 0.870413 -0.178961 0.458644
v 4.60566 -1.68844 -28.2088
vn 0.91392 -0.161291 0.372473
v 4.63171 -1.67401 -28.2762
vn 0.948625 -0.142068 0.282714
v 4.6509 -1.65855 -28.3456
vn 0.974194 -0.121477 0.190233
v 4.66305 -1.64222 -28.4164
vn 0.990382 -0.0997156 0.0959201
v 4.66804 -1.62516 -28.4878
vn 0.997031 -0.076994 0.000683231
v 4.66582 -1.60755 -28.5593
vn 0.994079 -0.0535309 -0.0945602
v 4.65642 -1.58955 -28.6301
vn 0.981553 -0.0295523 -0.188893
v 4.63992 -1.57134 -28.6996
vn 0.959574 -0.00528914 -0.281407
v 4.61649 -1.55309 -28.767
vn 0.928354 0.019025 -0.37121
v 4.58635 -1.53498 -28.8317
vn 0.888193 0.0431559 -0.457439
v 4.54978 -1.51718 -28.8931
vn 0.839479 0.0668712 -0.539262
v 4.50715 -1.49986 -28.9506
vn 0.78268 0.0899425 -0.615892
v 4.45886 -1.4832 -29.0037
vn 0.718343 0.112148 -0.68659
v 4.40537 -1.46734 -29.0518
vn 0.647088 0.133273 -0.750676
v 4.34721 -1.45245 -29.0945
vn 0.569602 0.153114 -0.807533
v 4.28493 -1.43866 -29.1313
vn 0.48663 0.171481 -0.856613
v 4.21914 -1.42611 -29.162
vn 0.398971 0.188197 -0.897443
v 4.15046 -1.41493 -29.1861
vn 0.30747 0.2031 -0.92963
v 4.07955 -1.40521 -29.2036
vn 0.213008 0.216047 -0.952865
v 4.00711 -1.39705 -29.2141
vn 0.116495 0.226914 -0.966923
v 3.93383 -1.39054 -29.2177
vn 0.0188592 0.235595 -0.971668
v 3.86041 -1.38572 -29.2142
vn -0.0789577 0.242007 -0.967057
v 3.78756 -1.38266 -29.2038
vn -0.176014 0.246089 -0.953131
v 3.71598 -1.38138 -29.1864
vn -0.271376 0.2478 -0.930027
v 3.64636 -1.38188 -29.1624
vn -0.364124 0.247125 -0.897966
v 3.57938 -1.38417 -29.1318
vn -0.453365 0.244071 -0.857257
v 3.51567 -1.38823 -29.0951
vn -0.53824 0.238665 -0.808292
v 3.45585 -1.39401 -29.0525
vn -0.617932 0.230962 -0.751543
v 3.40051 -1.40147 -29.0044
vn -0.691672 0.221034 -0.687556
v 3.35016 -1.41052 -28.9514
vn -0.758751 0.208977 -0.616948
v 3.30529 -1.42108 -28.894
vn -0.818524 0.194908 -0.540398
v 3.26634 -1.43305 -28.8326
vn -0.870413 0.178961 -0.458644
v 3.23369 -1.44631 -28.7679
vn -0.91392 0.161291 -0.372473
v 3.20764 -1.46074 -28.7006
vn -0.948625 0.142068 -0.282714
v 3.18845 -1.47619 -28.6311
vn -0.974194 0.121477 -0.190233
v 3.1763 -1.49253 -28.5604
vn -0.990382 0.0997156 -0.0959201
v 3.1713 -1.50958 -28.4889
vn -0.997031 0.076994 -0.000683231
v 3.17352 -1.52719 -28.4174
vn -0.994079 0.0535309 0.0945602
v 3.18292 -1.54519 -28.3466
vn -0.981553 0.0295523 0.188893
v 3.19942 -1.5634 -28.2771
vn -0.959574 0.00528914 0.281407
v 3.22285 -1.58165 -28.2097
vn -0.928354 -0.019025 0.37121
v 3.253 -1.59977 -28.145
vn -0.888193 -0.0431559 0.457439
v 3.28956 -1.61757 -28.0836
vn -0.839479 -0.0668712 0.539262
v 3.3322 -1.63488 -28.0261
vn -0.78268 -0.0899425 0.615892
v 3.38049 -1.65155 -27.973
vn -0.718343 -0.112148 0.68659
v 3.43397 -1.66741 -27.9249
vn -0.647088 -0.133273 0.750676
v 3.49213 -1.6823 -27.8822
vn -0.569602 -0.153114 0.807533
v 3.55441 -1.69609 -27.8454
vn -0.48663 -0.171481 0.856613
v 3.62021 -1.70863 -27.8147
vn -0.398971 -0.188197 0.897443
v 3.68889 -1.71982 -27.7906
vn -0.30747 -0.2031 0.92963
v 3.75979 -1.72954 -27.7731
vn -0.213008 -0.216047 0.952865
v 3.66013 -4.03935 -28.3783
vn -0.11935 -0.264968 0.956843
v 3.73291 -4.04569 -28.3747
vn -0.0217007 -0.273466 0.961637
v 3.80585 -4.05006 -28.3781
vn 0.0761574 -0.27933 0.95717
v 3.87824 -4.05242 -28.3883
vn 0.173282 -0.282504 0.943485
v 3.94939 -4.05276 -28.4053
vn 0.268738 -0.282958 0.920714
v 4.01861 -4.05107 -28.4288
vn 0.361606 -0.280686 0.889076
v 4.08523 -4.04736 -28.4588
vn 0.450991 -0.275712 0.848876
v 4.14862 -4.04167 -28.4949
vn 0.536033 -0.268082 0.8005
v 4.20816 -4.03406 -28.5367
vn 0.615913 -0.25787 0.744416
v 4.26327 -4.0246 -28.5838
vn 0.689861 -0.245175 0.681162
v 4.31344 -4.01338 -28.6358
vn 0.757165 -0.230119 0.611348
v 4.35817 -4.0005 -28.6923
vn 0.817178 -0.212846 0.535646
v 4.39704 -3.9861 -28.7525
vn 0.86932 -0.193524 0.454786
v 4.42966 -3.97031 -28.8161
vn 0.913091 -0.172338 0.369547
v 4.45573 -3.95328 -28.8823
vn 0.948068 -0.149492 0.280748
v 4.475 -3.93518 -28.9505
vn 0.973915 -0.125207 0.189245
v 4.48727 -3.91618 -29.02
vn 0.990382 -0.0997156 0.0959201
v 4.49243 -3.89647 -29.0903
vn 0.997311 -0.073264 0.00167125
v 4.49044 -3.87622 -29.1605
vn 0.994636 -0.0461069 -0.0925937
v 4.48131 -3.85565 -29.2301
vn 0.982382 -0.0185058 -0.185967
v 4.46512 -3.83495 -29.2984
vn 0.960667 0.00927362 -0.277549
v 4.44204 -3.81431 -29.3647
vn 0.9297 0.0369637 -0.366458
v 4.41229 -3.79393 -29.4283
vn 0.88978 0.0642978 -0.451839
v 4.37614 -3.77402 -29.4887
vn 0.84129 0.0910126 -0.532867
v 4.33396 -3.75476 -29.5453
vn 0.784699 0.116851 -0.608764
v 4.28615 -3.73634 -29.5975
vn 0.72055 0.141564 -0.678798
v 4.23316 -3.71894 -29.6448
vn 0.649462 0.164914 -0.742295
v 4.17552 -3.70272 -29.6868
vn 0.57212 0.186675 -0.798643
v 4.11376 -3.68784 -29.723
vn 0.489268 0.206639 -0.8473
v 4.0485 -3.67444 -29.7532
vn 0.401703 0.224613 -0.887797
v 3.98035 -3.66266 -29.777
vn 0.31027 0.240423 -0.919744
v 3.90997 -3.6526 -29.7943
vn 0.215849 0.253918 -0.942833
v 3.83804 -3.64436 -29.8047
vn 0.11935 0.264968 -0.956843
v 3.76526 -3.63803 -29.8083
vn 0.0217007 0.273466 -0.961637
v 3.69232 -3.63366 -29.8049
vn -0.0761574 0.27933 -0.95717
v 3.61993 -3.63129 -29.7947
vn -0.173282 0.282504 -0.943485
v 3.54878 -3.63095 -29.7778
vn -0.268738 0.282958 -0.920714
v 3.47956 -3.63265 -29.7542
vn -0.361606 0.280686 -0.889076
v 3.41294 -3.63635 -29.7242
vn -0.450991 0.275712 -0.848876
v 3.34955 -3.64204 -29.6882
vn -0.536033 0.268082 -0.8005
v 3.29001 -3.64965 -29.6464
vn -0.615913 0.25787 -0.744416
v 3.23489 -3.65912 -29.5992
vn -0.689861 0.245175 -0.681162
v 3.18473 -3.67034 -29.5472
vn -0.757165 0.230119 -0.611348
v 3.14 -3.68321 -29.4908
vn -0.817178 0.212846 -0.535646
v 3.10113 -3.69761 -29.4305
vn -0.86932 0.193524 -0.454786
v 3.06851 -3.71341 -29.367
vn -0.913091 0.172338 -0.369547
v 3.04244 -3.73043 -29.3008
vn -0.948068 0.149492 -0.280748
v 3.02317 -3.74853 -29.2326
vn -0.973915 0.125207 -0.189245
v 3.0109 -3.76753 -29.163
vn -0.990382 0.0997156 -0.0959201
v 3.00573 -3.78725 -29.0928
vn -0.997311 0.073264 -0.00167125
v 3.00773 -3.80749 -29.0225
vn -0.994636 0.0461069 0.0925937
v 3.01686 -3.82806 -28.9529
vn -0.982382 0.0185058 0.185967
v 3.03305 -3.84877 -28.8846
vn -0.960667 -0.00927362 0.277549
v 3.05613 -3.86941 -28.8184
vn -0.9297 -0.0369637 0.366458
v 3.08588 -3.88978 -28.7547
vn -0.88978 -0.0642978 0.451839
v 3.12202 -3.90969 -28.6943
vn -0.84129 -0.0910126 0.532867
v 3.1642 -3.92895 -28.6378
vn -0.784699 -0.116851 0.608764
v 3.21202 -3.94737 -28.5856
vn -0.72055 -0.141564 0.678798
v 3.265 -3.96478 -28.5382
vn -0.649462 -0.164914 0.742295
v 3.32265 -3.981 -28.4962
vn -0.57212 -0.186675 0.798643
v 3.38441 -3.99588 -28.46
vn -0.489268 -0.206639 0.8473
v 3.44967 -4.00927 -28.4298
vn -0.401703 -0.224613 0.887797
v 3.51782 -4.02106 -28.406
vn -0.31027 -0.240423 0.919744
v 3.5882 -4.03112 -28.3888
vn -0.215849 -0.253918 0.942833
v 3.49449 -6.37972 -29.1011
vn -0.121876 -0.300541 0.94595
v 3.56677 -6.38588 -29.0975
vn -0.0242152 -0.308868 0.950797
v 3.63922 -6.38985 -29.1007
vn 0.0736793 -0.31422 0.946487
v 3.71115 -6.39157 -29.1106
vn 0.170864 -0.316546 0.933062
v 3.78186 -6.39103 -29.1272
vn 0.266404 -0.315823 0.910651
v 3.85067 -6.38825 -29.1503
vn 0.359377 -0.312059 0.87947
v 3.91692 -6.38324 -29.1796
vn 0.44889 -0.30529 0.839819
v 3.97997 -6.37605 -29.2149
vn 0.53408 -0.29558 0.79208
v 4.03921 -6.36676 -29.2559
vn 0.614126 -0.283024 0.736713
v 4.09408 -6.35545 -29.3022
vn 0.688258 -0.267743 0.674251
v 4.14404 -6.34223 -29.3532
vn 0.755761 -0.249882 0.605296
v 4.18861 -6.32723 -29.4085
vn 0.815987 -0.229615 0.530512
v 4.22737 -6.31059 -29.4677
vn 0.868353 -0.207137 0.450618
v 4.25994 -6.29248 -29.53
vn 0.912357 -0.182664 0.366385
v 4.286 -6.27306 -29.595
vn 0.947575 -0.156432 0.278623
v 4.30531 -6.25253 -29.6619
vn 0.973667 -0.128694 0.188178
v 4.31769 -6.23109 -29.7302
vn 0.990382 -0.0997156 0.0959201
v 4.323 -6.20893 -29.7992
vn 0.997559 -0.0697772 0.00273892
v 4.3212 -6.18627 -29.8681
vn 0.995129 -0.0391669 -0.0904686
v 4.31231 -6.16334 -29.9365
vn 0.983115 -0.00817935 -0.182805
v 4.29641 -6.14035 -30.0035
vn 0.961634 0.022887 -0.273381
v 4.27366 -6.11752 -30.0686
vn 0.930891 0.0537329 -0.361324
v 4.24427 -6.09507 -30.1311
vn 0.891183 0.0840613 -0.445787
v 4.20853 -6.07322 -30.1904
vn 0.842893 0.11358 -0.525957
v 4.16678 -6.05219 -30.246
vn 0.786485 0.142005 -0.601062
v 4.11942 -6.03216 -30.2973
vn 0.722503 0.169063 -0.670378
v 4.06692 -6.01334 -30.3439
vn 0.651563 0.194492 -0.733238
v 4.00977 -5.99591 -30.3852
vn 0.574348 0.218048 -0.789037
v 3.94853 -5.98003 -30.4208
vn 0.491602 0.239504 -0.837237
v 3.88379 -5.96585 -30.4505
vn 0.404121 0.258654 -0.877373
v 3.81616 -5.95352 -30.474
vn 0.312749 0.275313 -0.909061
v 3.7463 -5.94316 -30.491
vn 0.218364 0.28932 -0.931993
v 3.67489 -5.93485 -30.5013
vn 0.121876 0.300541 -0.94595
v 3.60261 -5.92869 -30.5049
vn 0.0242152 0.308868 -0.950797
v 3.53016 -5.92473 -30.5017
vn -0.0736793 0.31422 -0.946487
v 3.45823 -5.92301 -30.4918
vn -0.170864 0.316546 -0.933062
v 3.38752 -5.92354 -30.4752
vn -0.266404 0.315823 -0.910651
v 3.31871 -5.92633 -30.4521
vn -0.359377 0.312059 -0.87947
v 3.25246 -5.93134 -30.4227
vn -0.44889 0.30529 -0.839819
v 3.18941 -5.93852 -30.3874
vn -0.53408 0.29558 -0.79208
v 3.13017 -5.94782 -30.3464
vn -0.614126 0.283024 -0.736713
v 3.0753 -5.95913 -30.3002
vn -0.688258 0.267743 -0.674251
v 3.02534 -5.97234 -30.2492
vn -0.755761 0.249882 -0.605296
v 2.98077 -5.98734 -30.1938
vn -0.815987 0.229615 -0.530512
v 2.94201 -6.00398 -30.1347
vn -0.868353 0.207137 -0.450618
v 2.90944 -6.02209 -30.0723
vn -0.912357 0.182664 -0.366385
v 2.88338 -6.04151 -30.0074
vn -0.947575 0.156432 -0.278623
v 2.86406 -6.06204 -29.9405
vn -0.973667 0.128694 -0.188178
v 2.85169 -6.08349 -29.8722
vn -0.990382 0.0997156 -0.0959201
v 2.84638 -6.10564 -29.8032
vn -0.997559 0.0697772 -0.00273892
v 2.84818 -6.1283 -29.7342
vn -0.995129 0.0391669 0.0904686
v 2.85707 -6.15123 -29.6659
vn -0.983115 0.00817935 0.182805
v 2.87297 -6.17423 -29.5988
vn -0.961634 -0.022887 0.273381
v 2.89572 -6.19705 -29.5338
vn -0.930891 -0.0537329 0.361324
v 2.92511 -6.2195 -29.4712
vn -0.891183 -0.0840613 0.445787
v 2.96085 -6.24135 -29.4119
vn -0.842893 -0.11358 0.525957
v 3.0026 -6.26239 -29.3563
vn -0.786485 -0.142005 0.601062
v 3.04995 -6.28241 -29.305
vn -0.722503 -0.169063 0.670378
v 3.10246 -6.30123 -29.2585
vn -0.651563 -0.194492 0.733238
v 3.15961 -6.31867 -29.2172
vn -0.574348 -0.218048 0.789037
v 3.22085 -6.33455 -29.1815
vn -0.491602 -0.239504 0.837237
v 3.28559 -6.34872 -29.1518
vn -0.404121 -0.258654 0.877373
v 3.35322 -6.36105 -29.1284
vn -0.312749 -0.275313 0.909061
v 3.42308 -6.37142 -29.1114
vn -0.218364 -0.28932 0.931993
v 3.33529 -8.75891 -29.9307
vn -0.124105 -0.333728 0.934464
v 3.40706 -8.76491 -29.9271
vn -0.0264335 -0.341895 0.939366
v 3.47903 -8.76849 -29.9301
vn 0.0714931 -0.346769 0.935222
v 3.55049 -8.76962 -29.9398
vn 0.168731 -0.348304 0.922071
v 3.62075 -8.76828 -29.956
vn 0.264344 -0.346484 0.900039
v 3.68914 -8.76449 -29.9785
vn 0.357411 -0.341328 0.86934
v 3.75501 -8.75829 -30.0072
vn 0.447037 -0.332884 0.830269
v 3.8177 -8.74972 -30.0418
vn 0.532357 -0.321234 0.783202
v 3.87664 -8.73889 -30.0819
vn 0.61255 -0.306491 0.728592
v 3.93123 -8.72589 -30.1272
vn 0.686844 -0.288796 0.666965
v 3.98097 -8.71084 -30.1772
vn 0.754523 -0.26832 0.598915
v 4.02536 -8.69389 -30.2315
vn 0.814936 -0.24526 0.525097
v 4.06399 -8.67521 -30.2895
vn 0.8675 -0.219838 0.446223
v 4.09648 -8.65497 -30.3506
vn 0.91171 -0.192298 0.36305
v 4.12252 -8.63337 -30.4143
vn 0.94714 -0.162907 0.276382
v 4.14185 -8.61062 -30.4799
vn 0.973448 -0.131947 0.187052
v 4.1543 -8.58694 -30.5469
vn 0.990382 -0.0997156 0.0959201
v 4.15973 -8.56254 -30.6145
vn 0.997777 -0.0665243 0.00386472
v 4.1581 -8.53768 -30.6822
vn 0.995564 -0.0326924 -0.0882279
v 4.14943 -8.51259 -30.7493
vn 0.983762 0.00145438 -0.179471
v 4.1338 -8.48751 -30.815
vn 0.962487 0.0355871 -0.268985
v 4.11135 -8.46267 -30.8789
vn 0.931942 0.0693772 -0.355909
v 4.08231 -8.43833 -30.9403
vn 0.892422 0.102499 -0.439406
v 4.04695 -8.41472 -30.9985
vn 0.844307 0.134634 -0.518671
v 4.00562 -8.39206 -31.0531
vn 0.788062 0.165472 -0.59294
v 3.9587 -8.37057 -31.1035
vn 0.724226 0.194717 -0.661499
v 3.90667 -8.35045 -31.1492
vn 0.653417 0.222086 -0.723688
v 3.85001 -8.33191 -31.1898
vn 0.576314 0.247317 -0.778907
v 3.78927 -8.31512 -31.2248
vn 0.493661 0.270165 -0.826625
v 3.72504 -8.30024 -31.254
vn 0.406254 0.290412 -0.866382
v 3.65793 -8.28742 -31.2771
vn 0.314935 0.307862 -0.897796
v 3.58859 -8.27677 -31.2939
vn 0.220582 0.322348 -0.920563
v 3.51769 -8.26841 -31.3041
vn 0.124105 0.333728 -0.934464
v 3.44592 -8.26241 -31.3077
vn 0.0264335 0.341895 -0.939366
v 3.37395 -8.25883 -31.3046
vn -0.0714931 0.346769 -0.935222
v 3.30249 -8.2577 -31.295
vn -0.168731 0.348304 -0.922071
v 3.23223 -8.25904 -31.2788
vn -0.264344 0.346484 -0.900039
v 3.16384 -8.26282 -31.2562
vn -0.357411 0.341328 -0.86934
v 3.09797 -8.26903 -31.2275
vn -0.447037 0.332884 -0.830269
v 3.03528 -8.27759 -31.1929
vn -0.532357 0.321234 -0.783202
v 2.97634 -8.28843 -31.1528
vn -0.61255 0.306491 -0.728592
v 2.92175 -8.30143 -31.1075
vn -0.686844 0.288796 -0.666965
v 2.87201 -8.31648 -31.0575
vn -0.754523 0.26832 -0.598915
v 2.82762 -8.33342 -31.0032
vn -0.814936 0.24526 -0.525097
v 2.78899 -8.3521 -30.9453
vn -0.8675 0.219838 -0.446223
v 2.7565 -8.37234 -30.8842
vn -0.91171 0.192298 -0.36305
v 2.73046 -8.39394 -30.8205
vn -0.94714 0.162907 -0.276382
v 2.71113 -8.41669 -30.7548
vn -0.973448 0.131947 -0.187052
v 2.69868 -8.44038 -30.6879
vn -0.990382 0.0997156 -0.0959201
v 2.69325 -8.46477 -30.6202
vn -0.997777 0.0665243 -0.00386472
v 2.69488 -8.48963 -30.5525
vn -0.995564 0.0326924 0.0882279
v 2.70355 -8.51473 -30.4855
vn -0.983762 -0.00145438 0.179471
v 2.71918 -8.53981 -30.4197
vn -0.962487 -0.0355871 0.268985
v 2.74163 -8.56464 -30.3558
vn -0.931942 -0.0693772 0.355909
v 2.77067 -8.58898 -30.2945
vn -0.892422 -0.102499 0.439406
v 2.80603 -8.6126 -30.2362
vn -0.844307 -0.134634 0.518671
v 2.84736 -8.63526 -30.1816
vn -0.788062 -0.165472 0.59294
v 2.89428 -8.65675 -30.1312
vn -0.724226 -0.194717 0.661499
v 2.94631 -8.67686 -30.0855
vn -0.653417 -0.222086 0.723688
v 3.00297 -8.6954 -30.045
vn -0.576314 -0.247317 0.778907
v 3.06371 -8.7122 -30.0099
vn -0.493661 -0.270165 0.826625
v 3.12794 -8.72707 -29.9807
vn -0.406254 -0.290412 0.866382
v 3.19505 -8.7399 -29.9576
vn -0.314935 -0.307862 0.897796
v 3.26439 -8.75054 -29.9409
vn -0.220582 -0.322348 0.920563
v 3.1825 -11.177 -30.8669
vn -0.126067 -0.364644 0.922574
v 3.25377 -11.1829 -30.8633
vn -0.0283851 -0.372662 0.927533
v 3.32525 -11.1861 -30.8662
vn 0.0695697 -0.377091 0.92356
v 3.39623 -11.1867 -30.8756
vn 0.166854 -0.377888 0.910692
v 3.46604 -11.1846 -30.8914
vn 0.262532 -0.375047 0.889054
v 3.534 -11.1799 -30.9134
vn 0.355682 -0.368593 0.858854
v 3.59947 -11.1726 -30.9415
vn 0.445406 -0.358589 0.820382
v 3.6618 -11.1628 -30.9753
vn 0.530841 -0.345133 0.77401
v 3.72041 -11.1505 -31.0146
vn 0.611163 -0.328352 0.720184
v 3.77472 -11.136 -31.0589
vn 0.6856 -0.308409 0.659422
v 3.82421 -11.1193 -31.1079
vn 0.753434 -0.285496 0.592309
v 3.86841 -11.1006 -31.161
vn 0.814011 -0.259833 0.519492
v 3.90689 -11.08 -31.2178
vn 0.86675 -0.231668 0.441672
v 3.93928 -11.0578 -31.2777
vn 0.911141 -0.201272 0.359599
v 3.96527 -11.0342 -31.3401
vn 0.946758 -0.168938 0.274062
v 3.9846 -11.0095 -31.4044
vn 0.973256 -0.134977 0.185886
v 3.9971 -10.9837 -31.4701
vn 0.990382 -0.0997156 0.0959201
v 4.00264 -10.9573 -31.5364
vn 0.99797 -0.0634941 0.0050302
v 4.00116 -10.9304 -31.6028
vn 0.995946 -0.0266611 -0.0859082
v 3.99269 -10.9034 -31.6685
vn 0.984331 0.0104287 -0.176019
v 3.97729 -10.8764 -31.733
vn 0.963237 0.047418 -0.264435
v 3.95513 -10.8497 -31.7957
vn 0.932866 0.0839507 -0.350304
v 3.92642 -10.8237 -31.8559
vn 0.893511 0.119675 -0.4328
v 3.89143 -10.7984 -31.913
vn 0.845551 0.154247 -0.511127
v 3.85049 -10.7743 -31.9666
vn 0.789448 0.187333 -0.584532
v 3.80401 -10.7515 -32.016
vn 0.725742 0.218615 -0.652308
v 3.75243 -10.7302 -32.0609
vn 0.655047 0.247791 -0.713802
v 3.69624 -10.7106 -32.1007
vn 0.578044 0.274582 -0.768421
v 3.636 -10.693 -32.1352
vn 0.495473 0.298728 -0.81564
v 3.57227 -10.6775 -32.1639
vn 0.408131 0.319997 -0.855004
v 3.50567 -10.6642 -32.1866
vn 0.316858 0.338184 -0.886133
v 3.43685 -10.6533 -32.2031
vn 0.222534 0.353114 -0.908729
v 3.36647 -10.6449 -32.2132
vn 0.126067 0.364644 -0.922574
v 3.2952 -10.6391 -32.2168
vn 0.0283851 0.372662 -0.927533
v 3.22372 -10.6358 -32.2139
vn -0.0695697 0.377091 -0.92356
v 3.15274 -10.6353 -32.2045
vn -0.166854 0.377888 -0.910692
v 3.08293 -10.6373 -32.1888
vn -0.262532 0.375047 -0.889054
v 3.01497 -10.642 -32.1667
vn -0.355682 0.368593 -0.858854
v 2.9495 -10.6493 -32.1387
vn -0.445406 0.358589 -0.820382
v 2.88717 -10.6592 -32.1048
vn -0.530841 0.345133 -0.77401
v 2.82856 -10.6714 -32.0655
vn -0.611163 0.328352 -0.720184
v 2.77425 -10.6859 -32.0212
vn -0.6856 0.308409 -0.659422
v 2.72475 -10.7027 -31.9722
vn -0.753434 0.285496 -0.592309
v 2.68056 -10.7214 -31.9191
vn -0.814011 0.259833 -0.519492
v 2.64208 -10.7419 -31.8623
vn -0.86675 0.231668 -0.441672
v 2.60969 -10.7641 -31.8025
vn -0.911141 0.201272 -0.359599
v 2.5837 -10.7877 -31.74
vn -0.946758 0.168938 -0.274062
v 2.56437 -10.8125 -31.6757
vn -0.973256 0.134977 -0.185886
v 2.55187 -10.8382 -31.6101
vn -0.990382 0.0997156 -0.0959201
v 2.54633 -10.8646 -31.5437
vn -0.99797 0.0634941 -0.0050302
v 2.54781 -10.8915 -31.4774
vn -0.995946 0.0266611 0.0859082
v 2.55628 -10.9186 -31.4116
vn -0.984331 -0.0104287 0.176019
v 2.57168 -10.9456 -31.3471
vn -0.963237 -0.047418 0.264435
v 2.59384 -10.9722 -31.2845
vn -0.932866 -0.0839507 0.350304
v 2.62255 -10.9983 -31.2243
vn -0.893511 -0.119675 0.4328
v 2.65754 -11.0235 -31.1671
vn -0.845551 -0.154247 0.511127
v 2.69848 -11.0477 -31.1136
vn -0.789448 -0.187333 0.584532
v 2.74496 -11.0705 -31.0641
vn -0.725742 -0.218615 0.652308
v 2.79654 -11.0918 -31.0193
vn -0.655047 -0.247791 0.713802
v 2.85273 -11.1113 -30.9794
vn -0.578044 -0.274582 0.768421
v 2.91297 -11.1289 -30.945
vn -0.495473 -0.298728 0.81564
v 2.9767 -11.1445 -30.9162
vn -0.408131 -0.319997 0.855004
v 3.04329 -11.1577 -30.8935
vn -0.316858 -0.338184 0.886133
v 3.11212 -11.1686 -30.877
vn -0.222534 -0.353114 0.908729
f 1 66 2 
f 1 65 66 
f 2 67 3 
f 2 66 67 
f 3 68 4 
f 3 67 68 
f 4 69 5 
f 4 68 69 
f 5 70 6 
f 5 69 70 
f 6 71 7 
f 6 70 71 
f 7 72 8 
f 7 71 72 
f 8 73 9 
f 8 72 73 
f 9 74 10 
f 9 73 74 
f 10 75 11 
f 10 74 75 
f 11 76 12 
f 11 75 76 
f 12 77 13 
f 12 76 77 
f 13 78 14 
f 13 77 78 
f 14 79 15 
f 14 78 79 
f 15 80 16 
f 15 79 80 
f 16 81 17 
f 16 80 81 
f 17 82 18 
f 17 81 82 
f 18 83 19 
f 18 82 83 
f 19 84 20 
f 19 83 84 
f 20 85 21 
f 20 84 85 
f 21 86 22 
f 21 85 86 
f 22 87 23 
f 22 86 87 
f 23 88 24 
f 23 87 88 
f 24 89 25 
f 24 88 89 
f 25 90 26 
f 25 89 90 
f 26 91 27 
f 26 90 91 
f 27 92 28 
f 27 91 92 
f 28 93 29 
f 28 92 93 
f 29 94 30 
f 29 93 94 
f 30 95 31 
f 30 94 95 
f 31 96 32 
f 31 95 96 
f 32 97 33 
f 32 96 97 
f 33 98 34 
f 33 97 98 
f 34 99 35 
f 34 98 99 
f 35 100 36 
f 35 99 100 
f 36 101 37 
f 36 100 101 
f 37 102 38 
f 37 101 102 
f 38 103 39 
f 38 102 103 
f 39 104 40 
f 39 103 104 
f 40 105 41 
f 40 104 105 
f 41 106 42 
f 41 105 106 
f 42 107 43 
f 42 106 107 
f 43 108 44 
f 43 107 108 
f 44 109 45 
f 44 108 109 
f 45 110 46 
f 45 109 110 
f 46 111 47 
f 46 110 111 
f 47 112 48 
f 47 111 112 
f 48 113 49 
f 48 112 113 
f 49 114 50 
f 49 113 114 
f 50 115 51 
f 50 114 115 
f 51 116 52 
f 51 115 116 
f 52 117 53 
f 52 116 117 
f 53 118 54 
f 53 117 118 
f 54 119 55 
f 54 118 119 
f 55 120 56 
f 55 119 120 
f 56 121 57 
f 56 120 121 
f 57 122 58 
f 57 121 122 
f 58 123 59 
f 58 122 123 
f 59 124 60 
f 59 123 124 
f 60 125 61 
f 60 124 125 
f 61 126 62 
f 61 125 126 
f 62 127 63 
f 62 126 127 
f 63 128 64 
f 63 127 128 
f 64 65 1 
f 64 128 65 
f 65 130 66 
f 65 129 130 
f 66 131 67 
f 66 130 131 
f 67 132 68 
f 67 131 132 
f 68 133 69 
f 68 132 133 
f 69 134 70 
f 69 133 134 
f 70 135 71 
f 70 134 135 
f 71 136 72 
f 71 135 136 
f 72 137 73 
f 72 136 137 
f 73 138 74 
f 73 137 138 
f 74 139 75 
f 74 138 139 
f 75 140 76 
f 75 139 140 
f 76 141 77 
f 76 140 141 
f 77 142 78 
f 77 141 142 
f 78 143 79 
f 78 142 143 
f 79 144 80 
f 79 143 144 
f 80 145 81 
f 80 144 145 
f 81 146 82 
f 81 145 146 
f 82 147 83 
f 82 146 147 
f 83 148 84 
f 83 147 148 
f 84 149 85 
f 84 148 149 
f 85 150 86 
f 85 149 150 
f 86 151 87 
f 86 150 151 
f 87 152 88 
f 87 151 152 
f 88 153 89 
f 88 152 153 
f 89 154 90 
f 89 153 154 
f 90 155 91 
f 90 154 155 
f 91 156 92 
f 91 155 156 
f 92 157 93 
f 92 156 157 
f 93 158 94 
f 93 157 158 
f 94 159 95 
f 94 158 159 
f 95 160 96 
f 95 159 160 
f 96 161 97 
f 96 160 161 
f 97 162 98 
f 97 161 162 
f 98 163 99 
f 98 162 163 
f 99 164 100 
f 99 163 164 
f 100 165 101 
f 100 164 165 
f 101 166 102 
f 101 165 166 
f 102 167 103 
f 102 166 167 
f 103 168 104 
f 103 167 168 
f 104 169 105 
f 104 168 169 
f 105 170 106 
f 105 169 170 
f 106 171 107 
f 106 170 171 
f 107 172 108 
f 107 171 172 
f 108 173 109 
f 108 172 173 
f 109 174 110 
f 109 173 174 
f 110 175 111 
f 110 174 175 
f 111 176 112 
f 111 175 176 
f 112 177 113 
f 112 176 177 
f 113 178 114 
f 113 177 178 
f 114 179 115 
f 114 178 179 
f 115 180 116 
f 115 179 180 
f 116 181 117 
f 116 180 181 
f 117 182 118 
f 117 181 182 
f 118 183 119 
f 118 182 183 
f 119 184 120 
f 119 183 184 
f 120 185 121 
f 120 184 185 
f 121 186 122 
f 121 185 186 
f 122 187 123 
f 122 186 187 
f 123 188 124 
f 123 187 188 
f 124 189 125 
f 124 188 189 
f 125 190 126 
f 125 189 190 
f 126 191 127 
f 126 190 191 
f 127 192 128 
f 127 191 192 
f 128 129 65 
f 128 192 129 
f 129 194 130 
f 129 193 194 
f 130 195 131 
f 130 194 195 
f 131 196 132 
f 131 195 196 
f 132 197 133 
f 132 196 197 
f 133 198 134 
f 133 197 198 
f 134 199 135 
f 134 198 199 
f 135 200 136 
f 135 199 200 
f 136 201 137 
f 136 200 201 
f 137 202 138 
f 137 201 202 
f 138 203 139 
f 138 202 203 
f 139 204 140 
f 139 203 204 
f 140 205 141 
f 140 204 205 
f 141 206 142 
f 141 205 206 
f 142 207 143 
f 142 206 207 
f 143 208 144 
f 143 207 208 
f 144 209 145 
f 144 208 209 
f 145 210 146 
f 145 209 210 
f 146 211 147 
f 146 210 211 
f 147 212 148 
f 147 211 212 
f 148 213 149 
f 148 212 213 
f 149 214 150 
f 149 213 214 
f 150 215 151 
f 150 214 215 
f 151 216 152 
f 151 215 216 
f 152 217 153 
f 152 216 217 
f 153 218 154 
f 153 217 218 
f 154 219 155 
f 154 218 219 
f 155 220 156 
f 155 219 220 
f 156 221 157 
f 156 220 221 
f 157 222 158 
f 157 221 222 
f 158 223 159 
f 158 222 223 
f 159 224 160 
f 159 223 224 
f 160 225 161 
f 160 224 225 
f 161 226 162 
f 161 225 226 
f 162 227 163 
f 162 226 227 
f 163 228 164 
f 163 227 228 
f 164 229 165 
f 164 228 229 
f 165 230 166 
f 165 229 230 
f 166 231 167 
f 166 230 231 
f 167 232 168 
f 167 231 232 
f 168 233 169 
f 168 232 233 
f 169 234 170 
f 169 233 234 
f 170 235 171 
f 170 234 235 
f 171 236 172 
f 171 235 236 
f 172 237 173 
f 172 236 237 
f 173 238 174 
f 173 237 238 
f 174 239 175 
f 174 238 239 
f 175 240 176 
f 175 239 240 
f 176 241 177 
f 176 240 241 
f 177 242 178 
f 177 241 242 
f 178 243 179 
f 178 242 243 
f 179 244 180 
f 179 243 244 
f 180 245 181 
f 180 244 245 
f 181 246 182 
f 181 245 246 
f 182 247 183 
f 182 246 247 
f 183 248 184 
f 183 247 248 
f 184 249 185 
f 184 248 249 
f 185 250 186 
f 185 249 250 
f 186 251 187 
f 186 250 251 
f 187 252 188 
f 187 251 252 
f 188 253 189 
f 188 252 253 
f 189 254 190 
f 189 253 254 
f 190 255 191 
f 190 254 255 
f 191 256 192 
f 191 255 256 
f 192 193 129 
f 192 256 193 
f 193 258 194 
f 193 257 258 
f 194 259 195 
f 194 258 259 
f 195 260 196 
f 195 259 260 
f 196 261 197 
f 196 260 261 
f 197 262 198 
f 197 261 262 
f 198 263 199 
f 198 262 263 
f 199 264 200 
f 199 263 264 
f 200 265 201 
f 200 264 265 
f 201 266 202 
f 201 265 266 
f 202 267 203 
f 202 266 267 
f 203 268 204 
f 203 267 268 
f 204 269 205 
f 204 268 269 
f 205 270 206 
f 205 269 270 
f 206 271 207 
f 206 270 271 
f 207 272 208 
f 207 271 272 
f 208 273 209 
f 208 272 273 
f 209 274 210 
f 209 273 274 
f 210 275 211 
f 210 274 275 
f 211 276 212 
f 211 275 276 
f 212 277 213 
f 212 276 277 
f 213 278 214 
f 213 277 278 
f 214 279 215 
f 214 278 279 
f 215 280 216 
f 215 279 280 
f 216 281 217 
f 216 280 281 
f 217 282 218 
f 217 281 282 
f 218 283 219 
f 218 282 283 
f 219 284 220 
f 219 283 284 
f 220 285 221 
f 220 284 285 
f 221 286 222 
f 221 285 286 
f 222 287 223 
f 222 286 287 
f 223 288 224 
f 223 287 288 
f 224 289 225 
f 224 288 289 
f 225 290 226 
f 225 289 290 
f 226 291 227 
f 226 290 291 
f 227 292 228 
f 227 291 292 
f 228 293 229 
f 228 292 293 
f 229 294 230 
f 229 293 294 
f 230 295 231 
f 230 294 295 
f 231 296 232 
f 231 295 296 
f 232 297 233 
f 232 296 297 
f 233 298 234 
f 233 297 298 
f 234 299 235 
f 234 298 299 
f 235 300 236 
f 235 299 300 
f 236 301 237 
f 236 300 301 
f 237 302 238 
f 237 301 302 
f 238 303 239 
f 238 302 303 
f 239 304 240 
f 239 303 304 
f 240 305 241 
f 240 304 305 
f 241 306 242 
f 241 305 306 
f 242 307 243 
f 242 306 307 
f 243 308 244 
f 243 307 308 
f 244 309 245 
f 244 308 309 
f 245 310 246 
f 245 309 310 
f 246 311 247 
f 246 310 311 
f 247 312 248 
f 247 311 312 
f 248 313 249 
f 248 312 313 
f 249 314 250 
f 249 313 314 
f 250 315 251 
f 250 314 315 
f 251 316 252 
f 251 315 316 
f 252 317 253 
f 252 316 317 
f 253 318 254 
f 253 317 318 
f 254 319 255 
f 254 318 319 
f 255 320 256 
f 255 319 320 
f 256 257 193 
f 256 320 257 
f 257 322 258 
f 257 321 322 
f 258 323 259 
f 258 322 323 
f 259 324 260 
f 259 323 324 
f 260 325 261 
f 260 324 325 
f 261 326 262 
f 261 325 326 
f 262 327 263 
f 262 326 327 
f 263 328 264 
f 263 327 328 
f 264 329 265 
f 264 328 329 
f 265 330 266 
f 265 329 330 
f 266 331 267 
f 266 330 331 
f 267 332 268 
f 267 331 332 
f 268 333 269 
f 268 332 333 
f 269 334 270 
f 269 333 334 
f 270 335 271 
f 270 334 335 
f 271 336 272 
f 271 335 336 
f 272 337 273 
f 272 336 337 
f 273 338 274 
f 273 337 338 
f 274 339 275 
f 274 338 339 
f 275 340 276 
f 275 339 340 
f 276 341 277 
f 276 340 341 
f 277 342 278 
f 277 341 342 
f 278 343 279 
f 278 342 343 
f 279 344 280 
f 279 343 344 
f 280 345 281 
f 280 344 345 
f 281 346 282 
f 281 345 346 
f 282 347 283 
f 282 346 347 
f 283 348 284 
f 283 347 348 
f 284 349 285 
f 284 348 349 
f 285 350 286 
f 285 349 350 
f 286 351 287 
f 286 350 351 
f 287 352 288 
f 287 351 352 
f 288 353 289 
f 288 352 353 
f 289 354 290 
f 289 353 354 
f 290 355 291 
f 290 354 355 
f 291 356 292 
f 291 355 356 
f 292 357 293 
f 292 356 357 
f 293 358 294 
f 293 357 358 
f 294 359 295 
f 294 358 359 
f 295 360 296 
f 295 359 360 
f 296 361 297 
f 296 360 361 
f 297 362 298 
f 297 361 362 
f 298 363 299 
f 298 362 363 
f 299 364 300 
f 299 363 364 
f 300 365 301 
f 300 364 365 
f 301 366 302 
f 301 365 366 
f 302 367 303 
f 302 366 367 
f 303 368 304 
f 303 367 368 
f 304 369 305 
f 304 368 369 
f 305 370 306 
f 305 369 370 
f 306 371 307 
f 306 370 371 
f 307 372 308 
f 307 371 372 
f 308 373 309 
f 308 372 373 
f 309 374 310 
f 309 373 374 
f 310 375 311 
f 310 374 375 
f 311 376 312 
f 311 375 376 
f 312 377 313 
f 312 376 377 
f 313 378 314 
f 313 377 378 
f 314 379 315 
f 314 378 379 
f 315 380 316 
f 315 379 380 
f 316 381 317 
f 316 380 381 
f 317 382 318 
f 317 381 382 
f 318 383 319 
f 318 382 383 
f 319 384 320 
f 319 383 384 
f 320 321 257 
f 320 384 321 
f 321 386 322 
f 321 385 386 
f 322 387 323 
f 322 386 387 
f 323 388 324 
f 323 387 388 
f 324 389 325 
f 324 388 389 
f 325 390 326 
f 325 389 390 
f 326 391 327 
f 326 390 391 
f 327 392 328 
f 327 391 392 
f 328 393 329 
f 328 392 393 
f 329 394 330 
f 329 393 394 
f 330 395 331 
f 330 394 395 
f 331 396 332 
f 331 395 396 
f 332 397 333 
f 332 396 397 
f 333 398 334 
f 333 397 398 
f 334 399 335 
f 334 398 399 
f 335 400 336 
f 335 399 400 
f 336 401 337 
f 336 400 401 
f 337 402 338 
f 337 401 402 
f 338 403 339 
f 338 402 403 
f 339 404 340 
f 339 403 404 
f 340 405 341 
f 340 404 405 
f 341 406 342 
f 341 405 406 
f 342 407 343 
f 342 406 407 
f 343 408 344 
f 343 407 408 
f 344 409 345 
f 344 408 409 
f 345 410 346 
f 345 409 410 
f 346 411 347 
f 346 410 411 
f 347 412 348 
f 347 411 412 
f 348 413 349 
f 348 412 413 
f 349 414 350 
f 349 413 414 
f 350 415 351 
f 350 414 415 
f 351 416 352 
f 351 415 416 
f 352 417 353 
f 352 416 417 
f 353 418 354 
f 353 417 418 
f 354 419 355 
f 354 418 419 
f 355 420 356 
f 355 419 420 
f 356 421 357 
f 356 420 421 
f 357 422 358 
f 357 421 422 
f 358 423 359 
f 358 422 423 
f 359 424 360 
f 359 423 424 
f 360 425 361 
f 360 424 425 
f 361 426 362 
f 361 425 426 
f 362 427 363 
f 362 426 427 
f 363 428 364 
f 363 427 428 
f 364 429 365 
f 364 428 429 
f 365 430 366 
f 365 429 430 
f 366 431 367 
f 366 430 431 
f 367 432 368 
f 367 431 432 
f 368 433 369 
f 368 432 433 
f 369 434 370 
f 369 433 434 
f 370 435 371 
f 370 434 435 
f 371 436 372 
f 371 435 436 
f 372 437 373 
f 372 436 437 
f 373 438 374 
f 373 437 438 
f 374 439 375 
f 374 438 439 
f 375 440 376 
f 375 439 440 
f 376 441 377 
f 376 440 441 
f 377 442 378 
f 377 441 442 
f 378 443 379 
f 378 442 443 
f 379 444 380 
f 379 443 444 
f 380 445 381 
f 380 444 445 
f 381 446 382 
f 381 445 446 
f 382 447 383 
f 382 446 447 
f 383 448 384 
f 383 447 448 
f 384 385 321 
f 384 448 385 
f 385 450 386 
f 385 449 450 
f 386 451 387 
f 386 450 451 
f 387 452 388 
f 387 451 452 
f 388 453 389 
f 388 452 453 
f 389 454 390 
f 389 453 454 
f 390 455 391 
f 390 454 455 
f 391 456 392 
f 391 455 456 
f 392 457 393 
f 392 456 457 
f 393 458 394 
f 393 457 458 
f 394 459 395 
f 394 458 459 
f 395 460 396 
f 395 459 460 
f 396 461 397 
f 396 460 461 
f 397 462 398 
f 397 461 462 
f 398 463 399 
f 398 462 463 
f 399 464 400 
f 399 463 464 
f 400 465 401 
f 400 464 465 
f 401 466 402 
f 401 465 466 
f 402 467 403 
f 402 466 467 
f 403 468 404 
f 403 467 468 
f 404 469 405 
f 404 468 469 
f 405 470 406 
f 405 469 470 
f 406 471 407 
f 406 470 471 
f 407 472 408 
f 407 471 472 
f 408 473 409 
f 408 472 473 
f 409 474 410 
f 409 473 474 
f 410 475 411 
f 410 474 475 
f 411 476 412 
f 411 475 476 
f 412 477 413 
f 412 476 477 
f 413 478 414 
f 413 477 478 
f 414 479 415 
f 414 478 479 
f 415 480 416 
f 415 479 480 
f 416 481 417 
f 416 480 481 
f 417 482 418 
f 417 481 482 
f 418 483 419 
f 418 482 483 
f 419 484 420 
f 419 483 484 
f 420 485 421 
f 420 484 485 
f 421 486 422 
f 421 485 486 
f 422 487 423 
f 422 486 487 
f 423 488 424 
f 423 487 488 
f 424 489 425 
f 424 488 489 
f 425 490 426 
f 425 489 490 
f 426 491 427 
f 426 490 491 
f 427 492 428 
f 427 491 492 
f 428 493 429 
f 428 492 493 
f 429 494 430 
f 429 493 494 
f 430 495 431 
f 430 494 495 
f 431 496 432 
f 431 495 496 
f 432 497 433 
f 432 496 497 
f 433 498 434 
f 433 497 498 
f 434 499 435 
f 434 498 499 
f 435 500 436 
f 435 499 500 
f 436 501 437 
f 436 500 501 
f 437 502 438 
f 437 501 502 
f 438 503 439 
f 438 502 503 
f 439 504 440 
f 439 503 504 
f 440 505 441 
f 440 504 505 
f 441 506 442 
f 441 505 506 
f 442 507 443 
f 442 506 507 
f 443 508 444 
f 443 507 508 
f 444 509 445 
f 444 508 509 
f 445 510 446 
f 445 509 510 
f 446 511 447 
f 446 510 511 
f 447 512 448 
f 447 511 512 
f 448 449 385 
f 448 512 449 
f 449 514 450 
f 449 513 514 
f 450 515 451 
f 450 514 515 
f 451 516 452 
f 451 515 516 
f 452 517 453 
f 452 516 517 
f 453 518 454 
f 453 517 518 
f 454 519 455 
f 454 518 519 
f 455 520 456 
f 455 519 520 
f 456 521 457 
f 456 520 521 
f 457 522 458 
f 457 521 522 
f 458 523 459 
f 458 522 523 
f 459 524 460 
f 459 523 524 
f 460 525 461 
f 460 524 525 
f 461 526 462 
f 461 525 526 
f 462 527 463 
f 462 526 527 
f 463 528 464 
f 463 527 528 
f 464 529 465 
f 464 528 529 
f 465 530 466 
f 465 529 530 
f 466 531 467 
f 466 530 531 
f 467 532 468 
f 467 531 532 
f 468 533 469 
f 468 532 533 
f 469 534 470 
f 469 533 534 
f 470 535 471 
f 470 534 535 
f 471 536 472 
f 471 535 536 
f 472 537 473 
f 472 536 537 
f 473 538 474 
f 473 537 538 
f 474 539 475 
f 474 538 539 
f 475 540 476 
f 475 539 540 
f 476 541 477 
f 476 540 541 
f 477 542 478 
f 477 541 542 
f 478 543 479 
f 478 542 543 
f 479 544 480 
f 479 543 544 
f 480 545 481 
f 480 544 545 
f 481 546 482 
f 481 545 546 
f 482 547 483 
f 482 546 547 
f 483 548 484 
f 483 547 548 
f 484 549 485 
f 484 548 549 
f 485 550 486 
f 485 549 550 
f 486 551 487 
f 486 550 551 
f 487 552 488 
f 487 551 552 
f 488 553 489 
f 488 552 553 
f 489 554 490 
f 489 553 554 
f 490 555 491 
f 490 554 555 
f 491 556 492 
f 491 555 556 
f 492 557 493 
f 492 556 557 
f 493 558 494 
f 493 557 558 
f 494 559 495 
f 494 558 559 
f 495 560 496 
f 495 559 560 
f 496 561 497 
f 496 560 561 
f 497 562 498 
f 497 561 562 
f 498 563 499 
f 498 562 563 
f 499 564 500 
f 499 563 564 
f 500 565 501 
f 500 564 565 
f 501 566 502 
f 501 565 566 
f 502 567 503 
f 502 566 567 
f 503 568 504 
f 503 567 568 
f 504 569 505 
f 504 568 569 
f 505 570 506 
f 505 569 570 
f 506 571 507 
f 506 570 571 
f 507 572 508 
f 507 571 572 
f 508 573 509 
f 508 572 573 
f 509 574 510 
f 509 573 574 
f 510 575 511 
f 510 574 575 
f 511 576 512 
f 511 575 576 
f 512 513 449 
f 512 576 513 
f 513 578 514 
f 513 577 578 
f 514 579 515 
f 514 578 579 
f 515 580 516 
f 515 579 580 
f 516 581 517 
f 516 580 581 
f 517 582 518 
f 517 581 582 
f 518 583 519 
f 518 582 583 
f 519 584 520 
f 519 583 584 
f 520 585 521 
f 520 584 585 
f 521 586 522 
f 521 585 586 
f 522 587 523 
f 522 586 587 
f 523 588 524 
f 523 587 588 
f 524 589 525 
f 524 588 589 
f 525 590 526 
f 525 589 590 
f 526 591 527 
f 526 590 591 
f 527 592 528 
f 527 591 592 
f 528 593 529 
f 528 592 593 
f 529 594 530 
f 529 593 594 
f 530 595 531 
f 530 594 595 
f 531 596 532 
f 531 595 596 
f 532 597 533 
f 532 596 597 
f 533 598 534 
f 533 597 598 
f 534 599 535 
f 534 598 599 
f 535 600 536 
f 535 599 600 
f 536 601 537 
f 536 600 601 
f 537 602 538 
f 537 601 602 
f 538 603 539 
f 538 602 603 
f 539 604 540 
f 539 603 604 
f 540 605 541 
f 540 604 605 
f 541 606 542 
f 541 605 606 
f 542 607 543 
f 542 606 607 
f 543 608 544 
f 543 607 608 
f 544 609 545 
f 544 608 609 
f 545 610 546 
f 545 609 610 
f 546 611 547 
f 546 610 611 
f 547 612 548 
f 547 611 612 
f 548 613 549 
f 548 612 613 
f 549 614 550 
f 549 613 614 
f 550 615 551 
f 550 614 615 
f 551 616 552 
f 551 615 616 
f 552 617 553 
f 552 616 617 
f 553 618 554 
f 553 617 618 
f 554 619 555 
f 554 618 619 
f 555 620 556 
f 555 619 620 
f 556 621 557 
f 556 620 621 
f 557 622 558 
f 557 621 622 
f 558 623 559 
f 558 622 623 
f 559 624 560 
f 559 623 624 
f 560 625 561 
f 560 624 625 
f 561 626 562 
f 561 625 626 
f 562 627 563 
f 562 626 627 
f 563 628 564 
f 563 627 628 
f 564 629 565 
f 564 628 629 
f 565 630 566 
f 565 629 630 
f 566 631 567 
f 566 630 631 
f 567 632 568 
f 567 631 632 
f 568 633 569 
f 568 632 633 
f 569 634 570 
f 569 633 634 
f 570 635 571 
f 570 634 635 
f 571 636 572 
f 571 635 636 
f 572 637 573 
f 572 636 637 
f 573 638 574 
f 573 637 638 
f 574 639 575 
f 574 638 639 
f 575 640 576 
f 575 639 640 
f 576 577 513 
f 576 640 577 
