# Branch
v -3.51456 8.80999 -25.419
vn -0.729023 0.538188 -0.422941
v -3.52196 8.79622 -25.4219
vn -0.774682 0.453216 -0.440979
v -3.52815 8.78174 -25.4242
vn -0.812882 0.363878 -0.45477
v -3.53308 8.76669 -25.4257
vn -0.843252 0.271036 -0.464182
v -3.53668 8.75122 -25.4265
vn -0.865502 0.175584 -0.469123
v -3.53894 8.73548 -25.4266
vn -0.879417 0.0784415 -0.469546
v -3.53982 8.71962 -25.4259
vn -0.884862 -0.0194569 -0.465447
v -3.53932 8.70378 -25.4245
vn -0.881785 -0.117168 -0.456866
v -3.53745 8.68813 -25.4224
vn -0.870217 -0.213751 -0.443884
v -3.53421 8.67281 -25.4196
vn -0.850268 -0.308275 -0.426628
v -3.52965 8.65797 -25.4162
vn -0.82213 -0.39983 -0.405263
v -3.52381 8.64376 -25.4121
vn -0.786075 -0.487535 -0.379996
v -3.51674 8.6303 -25.4074
vn -0.742449 -0.570544 -0.351069
v -3.50851 8.61774 -25.4021
vn -0.691673 -0.648059 -0.31876
v -3.4992 8.60619 -25.3964
vn -0.634236 -0.719332 -0.283382
v -3.4889 8.59576 -25.3902
vn -0.570691 -0.783678 -0.245275
v -3.47772 8.58656 -25.3837
vn -0.50165 -0.840477 -0.204806
v -3.46574 8.57867 -25.3768
vn -0.427778 -0.889182 -0.162364
v -3.4531 8.57216 -25.3697
vn -0.349786 -0.929323 -0.118359
v -3.43992 8.56711 -25.3623
vn -0.268425 -0.960514 -0.0732135
v -3.42631 8.56355 -25.3549
vn -0.184479 -0.982455 -0.0273632
v -3.41242 8.56153 -25.3474
vn -0.0987569 -0.994935 0.0187507
v -3.39838 8.56106 -25.34
vn -0.0120834 -0.997833 0.0646839
v -3.38431 8.56215 -25.3326
vn 0.0747064 -0.991121 0.109994
v -3.37036 8.56478 -25.3255
vn 0.160777 -0.974864 0.154245
v -3.35666 8.56894 -25.3185
vn 0.245299 -0.949218 0.197011
v -3.34335 8.57457 -25.3119
vn 0.327458 -0.914431 0.237879
v -3.33054 8.58164 -25.3057
vn 0.406464 -0.870838 0.276456
v -3.31838 8.59006 -25.2998
vn 0.481556 -0.818858 0.312371
v -3.30696 8.59976 -25.2945
vn 0.55201 -0.758992 0.345278
v -3.2964 8.61065 -25.2897
vn 0.617148 -0.691816 0.374859
v -3.28681 8.62262 -25.2855
vn 0.676342 -0.617978 0.40083
v -3.27827 8.63555 -25.2819
vn 0.729023 -0.538188 0.422941
v -3.27087 8.64932 -25.279
vn 0.774682 -0.453216 0.440979
v -3.26468 8.6638 -25.2768
vn 0.812882 -0.363878 0.45477
v -3.25976 8.67884 -25.2752
vn 0.843252 -0.271036 0.464182
v -3.25615 8.69431 -25.2744
vn 0.865502 -0.175584 0.469123
v -3.2539 8.71006 -25.2744
vn 0.879417 -0.0784415 0.469546
v -3.25301 8.72592 -25.275
vn 0.884862 0.0194569 0.465447
v -3.25351 8.74176 -25.2764
vn 0.881785 0.117168 0.456866
v -3.25539 8.75741 -25.2785
vn 0.870217 0.213751 0.443884
v -3.25862 8.77273 -25.2813
vn 0.850268 0.308275 0.426628
v -3.26318 8.78757 -25.2848
vn 0.82213 0.39983 0.405263
v -3.26902 8.80178 -25.2889
vn 0.786075 0.487535 0.379996
v -3.27609 8.81523 -25.2936
vn 0.742449 0.570544 0.351069
v -3.28432 8.82779 -25.2988
vn 0.691673 0.648059 0.31876
v -3.29363 8.83935 -25.3045
vn 0.634236 0.719332 0.283382
v -3.30393 8.84977 -25.3107
vn 0.570691 0.783678 0.245275
v -3.31512 8.85898 -25.3173
vn 0.50165 0.840477 0.204806
v -3.32709 8.86687 -25.3242
vn 0.427778 0.889182 0.162364
v -3.33973 8.87338 -25.3313
vn 0.349786 0.929323 0.118359
v -3.35292 8.87843 -25.3386
vn 0.268425 0.960514 0.0732135
v -3.36652 8.88199 -25.346
vn 0.184479 0.982455 0.0273632
v -3.38041 8.88401 -25.3535
vn 0.0987569 0.994935 -0.0187507
v -3.39446 8.88448 -25.361
vn 0.0120834 0.997833 -0.0646839
v -3.40852 8.88339 -25.3683
vn -0.0747064 0.991121 -0.109994
v -3.42247 8.88076 -25.3755
vn -0.160777 0.974864 -0.154245
v -3.43617 8.8766 -25.3824
vn -0.245299 0.949218 -0.197011
v -3.44949 8.87096 -25.389
vn -0.327458 0.914431 -0.237879
v -3.46229 8.8639 -25.3953
vn -0.406464 0.870838 -0.276456
v -3.47446 8.85547 -25.4011
vn -0.481556 0.818858 -0.312371
v -3.48588 8.84577 -25.4064
vn -0.55201 0.758992 -0.345278
v -3.49643 8.83489 -25.4112
vn -0.617148 0.691816 -0.374859
v -3.50603 8.82292 -25.4154
vn -0.676342 0.617978 -0.40083
v -3.26481 8.77585 -25.8907
vn -0.7046 0.534332 -0.466935
v -3.27278 8.76104 -25.8938
vn -0.750378 0.449378 -0.484761
v -3.2795 8.74548 -25.8961
vn -0.788929 0.360096 -0.497918
v -3.2849 8.72931 -25.8975
vn -0.819882 0.267346 -0.506281
v -3.28892 8.7127 -25.8981
vn -0.842939 0.172021 -0.509767
v -3.29152 8.6958 -25.8979
vn -0.857878 0.0750403 -0.508344
v -3.29268 8.67877 -25.8968
vn -0.864556 -0.0226635 -0.502026
v -3.2924 8.66178 -25.8948
vn -0.862907 -0.120149 -0.490873
v -3.29066 8.64499 -25.8921
vn -0.852948 -0.216478 -0.474992
v -3.28749 8.62856 -25.8885
vn -0.834774 -0.310721 -0.454537
v -3.28292 8.61266 -25.8842
vn -0.808562 -0.401972 -0.429705
v -3.277 8.59743 -25.8791
vn -0.774562 -0.489352 -0.400734
v -3.26977 8.58302 -25.8734
vn -0.733103 -0.57202 -0.367904
v -3.26132 8.56958 -25.8671
vn -0.684584 -0.649178 -0.331531
v -3.25171 8.55722 -25.8602
vn -0.629472 -0.720085 -0.291965
v -3.24105 8.54607 -25.8528
vn -0.568297 -0.784056 -0.249587
v -3.22943 8.53623 -25.845
vn -0.50165 -0.840477 -0.204806
v -3.21698 8.52781 -25.8368
vn -0.430171 -0.888804 -0.158052
v -3.2038 8.52088 -25.8284
vn -0.35455 -0.928571 -0.109776
v -3.19002 8.51551 -25.8198
vn -0.275514 -0.959395 -0.0604429
v -3.17578 8.51175 -25.8111
vn -0.193825 -0.98098 -0.0105277
v -3.16122 8.50963 -25.8024
vn -0.110269 -0.993117 0.039489
v -3.14647 8.50918 -25.7937
vn -0.0256517 -0.99569 0.0891253
v -3.13168 8.51041 -25.7852
vn 0.059213 -0.988674 0.137903
v -3.11699 8.51329 -25.777
vn 0.143508 -0.972137 0.185353
v -3.10254 8.5178 -25.769
vn 0.22642 -0.946237 0.231018
v -3.08847 8.5239 -25.7614
vn 0.307152 -0.911225 0.274458
v -3.07492 8.53154 -25.7543
vn 0.384926 -0.867437 0.315255
v -3.06201 8.54062 -25.7478
vn 0.458993 -0.815295 0.353016
v -3.04987 8.55108 -25.7418
vn 0.528639 -0.755301 0.387377
v -3.03862 8.5628 -25.7364
vn 0.593195 -0.688034 0.418007
v -3.02836 8.57568 -25.7318
vn 0.652037 -0.61414 0.444612
v -3.0192 8.58959 -25.7279
vn 0.7046 -0.534332 0.466935
v -3.01122 8.6044 -25.7248
vn 0.750378 -0.449378 0.484761
v -3.0045 8.61996 -25.7225
vn 0.788929 -0.360096 0.497918
v -2.99911 8.63612 -25.721
vn 0.819882 -0.267346 0.506281
v -2.99509 8.65274 -25.7204
vn 0.842939 -0.172021 0.509767
v -2.99249 8.66964 -25.7207
vn 0.857878 -0.0750403 0.508344
v -2.99132 8.68667 -25.7218
vn 0.864556 0.0226635 0.502026
v -2.99161 8.70366 -25.7237
vn 0.862907 0.120149 0.490873
v -2.99335 8.72045 -25.7265
vn 0.852948 0.216478 0.474992
v -2.99651 8.73687 -25.7301
vn 0.834774 0.310721 0.454537
v -3.00108 8.75278 -25.7344
vn 0.808562 0.401972 0.429705
v -3.00701 8.76801 -25.7394
vn 0.774562 0.489352 0.400734
v -3.01423 8.78241 -25.7452
vn 0.733103 0.57202 0.367904
v -3.02269 8.79586 -25.7515
vn 0.684584 0.649178 0.331531
v -3.03229 8.80822 -25.7584
vn 0.629472 0.720085 0.291965
v -3.04296 8.81937 -25.7658
vn 0.568297 0.784056 0.249587
v -3.05457 8.8292 -25.7736
vn 0.50165 0.840477 0.204806
v -3.06703 8.83763 -25.7817
vn 0.430171 0.888804 0.158052
v -3.08021 8.84456 -25.7901
vn 0.35455 0.928571 0.109776
v -3.09398 8.84993 -25.7987
vn 0.275514 0.959395 0.0604429
v -3.10822 8.85369 -25.8074
vn 0.193825 0.98098 0.0105277
v -3.12278 8.85581 -25.8162
vn 0.110269 0.993117 -0.039489
v -3.13753 8.85625 -25.8248
vn 0.0256517 0.99569 -0.0891253
v -3.15232 8.85503 -25.8333
vn -0.059213 0.988674 -0.137903
v -3.16701 8.85215 -25.8416
vn -0.143508 0.972137 -0.185353
v -3.18146 8.84764 -25.8495
vn -0.22642 0.946237 -0.231018
v -3.19554 8.84153 -25.8571
vn -0.307152 0.911225 -0.274458
v -3.20909 8.8339 -25.8642
vn -0.384926 0.867437 -0.315255
v -3.222 8.82481 -25.8708
vn -0.458993 0.815295 -0.353016
v -3.23414 8.81436 -25.8768
vn -0.528639 0.755301 -0.387377
v -3.24539 8.80263 -25.8821
vn -0.593195 0.688034 -0.418007
v -3.25564 8.78976 -25.8868
vn -0.652037 0.61414 -0.444612
v -3.00594 8.7288 -26.3316
vn -0.675874 0.528564 -0.513629
v -3.01451 8.71296 -26.3349
vn -0.721789 0.443638 -0.53123
v -3.02178 8.69632 -26.3372
vn -0.760754 0.354439 -0.543715
v -3.02768 8.67905 -26.3386
vn -0.792392 0.261827 -0.550964
v -3.03215 8.6613 -26.339
vn -0.816399 0.166693 -0.552907
v -3.03516 8.64326 -26.3383
vn -0.832544 0.0699538 -0.549525
v -3.03668 8.62509 -26.3367
vn -0.84067 -0.0274591 -0.540851
v -3.03669 8.60697 -26.3341
vn -0.840701 -0.124607 -0.526968
v -3.03518 8.58908 -26.3306
vn -0.832635 -0.220556 -0.50801
v -3.03218 8.57158 -26.3261
vn -0.81655 -0.31438 -0.48416
v -3.02772 8.55464 -26.3208
vn -0.792602 -0.405177 -0.455647
v -3.02182 8.53844 -26.3147
vn -0.76102 -0.492071 -0.422746
v -3.01457 8.52311 -26.3078
vn -0.72211 -0.574227 -0.385773
v -3.00601 8.50882 -26.3002
vn -0.676245 -0.650852 -0.345085
v -2.99624 8.4957 -26.292
vn -0.623867 -0.72121 -0.301075
v -2.98535 8.48387 -26.2832
vn -0.565482 -0.784622 -0.254164
v -2.97345 8.47345 -26.274
vn -0.50165 -0.840477 -0.204806
v -2.96064 8.46455 -26.2645
vn -0.432987 -0.888238 -0.153475
v -2.94706 8.45723 -26.2546
vn -0.360154 -0.927445 -0.100666
v -2.93283 8.45159 -26.2446
vn -0.283853 -0.957721 -0.0468883
v -2.91809 8.44766 -26.2345
vn -0.204818 -0.978772 0.00734142
v -2.90298 8.44549 -26.2244
vn -0.123811 -0.990398 0.0615004
v -2.88765 8.4451 -26.2144
vn -0.0416114 -0.992486 0.115067
v -2.87224 8.4465 -26.2046
vn 0.0409891 -0.985015 0.167526
v -2.85691 8.44966 -26.1951
vn 0.123195 -0.968058 0.218371
v -2.8418 8.45456 -26.186
vn 0.204214 -0.941779 0.267113
v -2.82705 8.46115 -26.1774
vn 0.283267 -0.906429 0.313283
v -2.81282 8.46937 -26.1694
vn 0.359591 -0.86235 0.356435
v -2.79923 8.47914 -26.1619
vn 0.432453 -0.809966 0.396155
v -2.78642 8.49037 -26.1552
vn 0.50115 -0.749782 0.43206
v -2.7745 8.50294 -26.1493
vn 0.56502 -0.682377 0.463804
v -2.76361 8.51674 -26.1442
vn 0.623449 -0.6084 0.491081
v -2.75383 8.53163 -26.14
vn 0.675874 -0.528564 0.513629
v -2.74526 8.54747 -26.1368
vn 0.721789 -0.443638 0.53123
v -2.738 8.56411 -26.1344
vn 0.760754 -0.354439 0.543715
v -2.7321 8.58138 -26.1331
vn 0.792392 -0.261827 0.550964
v -2.72762 8.59912 -26.1327
vn 0.816399 -0.166693 0.552907
v -2.72461 8.61716 -26.1333
vn 0.832544 -0.0699538 0.549525
v -2.72309 8.63533 -26.135
vn 0.84067 0.0274591 0.540851
v -2.72309 8.65345 -26.1375
vn 0.840701 0.124607 0.526968
v -2.72459 8.67135 -26.1411
vn 0.832635 0.220556 0.50801
v -2.72759 8.68885 -26.1455
vn 0.81655 0.31438 0.48416
v -2.73206 8.70578 -26.1508
vn 0.792602 0.405177 0.455647
v -2.73795 8.72199 -26.157
vn 0.76102 0.492071 0.422746
v -2.7452 8.73731 -26.1639
vn 0.72211 0.574227 0.385773
v -2.75376 8.7516 -26.1715
vn 0.676245 0.650852 0.345085
v -2.76353 8.76473 -26.1797
vn 0.623867 0.72121 0.301075
v -2.77442 8.77655 -26.1884
vn 0.565482 0.784622 0.254164
v -2.78632 8.78697 -26.1976
vn 0.50165 0.840477 0.204806
v -2.79913 8.79588 -26.2072
vn 0.432987 0.888238 0.153475
v -2.81271 8.80319 -26.2171
vn 0.360154 0.927445 0.100666
v -2.82694 8.80884 -26.2271
vn 0.283853 0.957721 0.0468883
v -2.84168 8.81276 -26.2372
vn 0.204818 0.978772 -0.00734142
v -2.85679 8.81493 -26.2473
vn 0.123811 0.990398 -0.0615004
v -2.87212 8.81532 -26.2573
vn 0.0416114 0.992486 -0.115067
v -2.88753 8.81393 -26.2671
vn -0.0409891 0.985015 -0.167526
v -2.90286 8.81077 -26.2766
vn -0.123195 0.968058 -0.218371
v -2.91797 8.80586 -26.2857
vn -0.204214 0.941779 -0.267113
v -2.93272 8.79927 -26.2943
vn -0.283267 0.906429 -0.313283
v -2.94695 8.79105 -26.3023
vn -0.359591 0.86235 -0.356435
v -2.96054 8.78128 -26.3097
vn -0.432453 0.809966 -0.396155
v -2.97336 8.77005 -26.3164
vn -0.50115 0.749782 -0.43206
v -2.98527 8.75748 -26.3223
vn -0.56502 0.682377 -0.463804
v -2.99617 8.74369 -26.3274
vn -0.623449 0.6084 -0.491081
v -2.7377 8.66868 -26.742
vn -0.64223 0.52045 -0.562737
v -2.74686 8.65181 -26.7454
vn -0.688307 0.435563 -0.580102
v -2.7547 8.63411 -26.7478
vn -0.727756 0.346481 -0.59188
v -2.76114 8.61574 -26.749
vn -0.760197 0.254062 -0.597958
v -2.76614 8.59689 -26.749
vn -0.785316 0.159196 -0.598277
v -2.76963 8.57773 -26.7479
vn -0.802872 0.0627976 -0.592835
v -2.77158 8.55845 -26.7457
vn -0.812696 -0.0342059 -0.581683
v -2.77197 8.53924 -26.7424
vn -0.814693 -0.13088 -0.564929
v -2.77081 8.52028 -26.738
vn -0.808845 -0.226294 -0.542735
v -2.7681 8.50175 -26.7325
vn -0.795207 -0.319528 -0.515314
v -2.76387 8.48383 -26.7261
vn -0.77391 -0.409685 -0.48293
v -2.75816 8.4667 -26.7187
vn -0.745161 -0.495896 -0.445895
v -2.75102 8.45051 -26.7105
vn -0.709235 -0.577332 -0.404566
v -2.74252 8.43543 -26.7015
vn -0.666478 -0.653208 -0.359341
v -2.73275 8.4216 -26.6919
vn -0.617304 -0.722793 -0.310655
v -2.72179 8.40916 -26.6816
vn -0.562184 -0.785417 -0.258977
v -2.70976 8.39822 -26.6708
vn -0.50165 -0.840477 -0.204806
v -2.69677 8.38888 -26.6597
vn -0.436285 -0.887443 -0.148662
v -2.68295 8.38125 -26.6482
vn -0.366718 -0.925862 -0.0910859
v -2.66842 8.37538 -26.6366
vn -0.29362 -0.955365 -0.0326329
v -2.65333 8.37135 -26.6249
vn -0.217694 -0.975667 0.0261344
v -2.63782 8.36918 -26.6133
vn -0.139671 -0.986573 0.0846499
v -2.62205 8.3689 -26.6018
vn -0.0603031 -0.987978 0.14235
v -2.60616 8.37051 -26.5906
vn 0.0196455 -0.979868 0.19868
v -2.59031 8.374 -26.5798
vn 0.0994048 -0.962321 0.253096
v -2.57465 8.37933 -26.5695
vn 0.178207 -0.935506 0.305074
v -2.55933 8.38645 -26.5598
vn 0.255293 -0.899682 0.354115
v -2.5445 8.39529 -26.5507
vn 0.32992 -0.855194 0.399745
v -2.5303 8.40577 -26.5424
vn 0.40137 -0.80247 0.441526
v -2.51687 8.41778 -26.5349
vn 0.468954 -0.742017 0.479054
v -2.50433 8.43122 -26.5284
vn 0.532022 -0.674419 0.511969
v -2.49282 8.44594 -26.5228
vn 0.589967 -0.600325 0.539953
v -2.48243 8.46182 -26.5183
vn 0.64223 -0.52045 0.562737
v -2.47327 8.47869 -26.5148
vn 0.688307 -0.435563 0.580102
v -2.46543 8.49639 -26.5125
vn 0.727756 -0.346481 0.59188
v -2.45899 8.51476 -26.5113
vn 0.760197 -0.254062 0.597958
v -2.454 8.53361 -26.5112
vn 0.785316 -0.159196 0.598277
v -2.45051 8.55277 -26.5123
vn 0.802872 -0.0627976 0.592835
v -2.44855 8.57205 -26.5145
vn 0.812696 0.0342059 0.581683
v -2.44816 8.59126 -26.5179
vn 0.814693 0.13088 0.564929
v -2.44932 8.61022 -26.5223
vn 0.808845 0.226294 0.542735
v -2.45203 8.62875 -26.5277
vn 0.795207 0.319528 0.515314
v -2.45626 8.64667 -26.5342
vn 0.77391 0.409685 0.48293
v -2.46198 8.6638 -26.5415
vn 0.745161 0.495896 0.445895
v -2.46912 8.67999 -26.5497
vn 0.709235 0.577332 0.404566
v -2.47761 8.69506 -26.5587
vn 0.666478 0.653208 0.359341
v -2.48739 8.70889 -26.5684
vn 0.617304 0.722793 0.310655
v -2.49834 8.72134 -26.5787
vn 0.562184 0.785417 0.258977
v -2.51037 8.73228 -26.5894
vn 0.50165 0.840477 0.204806
v -2.52336 8.74162 -26.6006
vn 0.436285 0.887443 0.148662
v -2.53719 8.74925 -26.612
vn 0.366718 0.925862 0.0910859
v -2.55171 8.75511 -26.6236
vn 0.29362 0.955365 0.0326329
v -2.5668 8.75915 -26.6353
vn 0.217694 0.975667 -0.0261344
v -2.58231 8.76132 -26.647
vn 0.139671 0.986573 -0.0846499
v -2.59808 8.7616 -26.6584
vn 0.0603031 0.987978 -0.14235
v -2.61397 8.75998 -26.6696
vn -0.0196455 0.979868 -0.19868
v -2.62982 8.7565 -26.6804
vn -0.0994048 0.962321 -0.253096
v -2.64548 8.75117 -26.6908
vn -0.178207 0.935506 -0.305074
v -2.6608 8.74405 -26.7005
vn -0.255293 0.899682 -0.354115
v -2.67563 8.73521 -26.7096
vn -0.32992 0.855194 -0.399745
v -2.68983 8.72473 -26.7179
vn -0.40137 0.80247 -0.441526
v -2.70326 8.71271 -26.7253
vn -0.468954 0.742017 -0.479054
v -2.7158 8.69928 -26.7319
vn -0.532022 0.674419 -0.511969
v -2.72731 8.68455 -26.7374
vn -0.589967 0.600325 -0.539953
v -2.45977 8.59531 -27.1217
vn -0.603076 0.509513 -0.613756
v -2.46953 8.57742 -27.1253
vn -0.649342 0.424678 -0.630875
v -2.47797 8.55866 -27.1276
vn -0.689355 0.335753 -0.641919
v -2.48501 8.53922 -27.1286
vn -0.722729 0.243595 -0.64678
v -2.49058 8.51928 -27.1283
vn -0.749142 0.149092 -0.645413
v -2.49463 8.49904 -27.1267
vn -0.768341 0.0531517 -0.637829
v -2.49712 8.47869 -27.1238
vn -0.780141 -0.0432999 -0.624104
v -2.49803 8.45843 -27.1197
vn -0.784427 -0.139335 -0.604367
v -2.49734 8.43846 -27.1143
vn -0.781159 -0.234027 -0.578811
v -2.49506 8.41896 -27.1077
vn -0.770368 -0.326466 -0.54768
v -2.49122 8.40012 -27.1
vn -0.752158 -0.415761 -0.511274
v -2.48585 8.38213 -27.0913
vn -0.726704 -0.501052 -0.469945
v -2.479 8.36515 -27.0816
vn -0.694251 -0.581518 -0.42409
v -2.47075 8.34936 -27.0711
vn -0.655113 -0.656383 -0.374151
v -2.46116 8.3349 -27.0598
vn -0.609665 -0.724927 -0.320608
v -2.45033 8.32191 -27.0479
vn -0.558346 -0.786489 -0.263978
v -2.43837 8.31052 -27.0354
vn -0.50165 -0.840477 -0.204806
v -2.42539 8.30084 -27.0225
vn -0.440123 -0.886371 -0.143661
v -2.41152 8.29296 -27.0093
vn -0.374357 -0.923729 -0.0811326
v -2.39688 8.28695 -26.9959
vn -0.304985 -0.95219 -0.0178229
v -2.38163 8.28288 -26.9825
vn -0.232677 -0.971482 0.0456585
v -2.3659 8.28079 -26.9692
vn -0.158128 -0.981417 0.1087
v -2.34985 8.28069 -26.9562
vn -0.0820558 -0.981901 0.170695
v -2.33364 8.28258 -26.9434
vn -0.00519349 -0.972929 0.231046
v -2.31741 8.28645 -26.9312
vn 0.0717188 -0.954587 0.289172
v -2.30133 8.29226 -26.9195
vn 0.14794 -0.927052 0.344513
v -2.28555 8.29995 -26.9085
vn 0.222737 -0.890588 0.396536
v -2.27023 8.30945 -26.8984
vn 0.295389 -0.845548 0.44474
v -2.2555 8.32067 -26.8891
vn 0.365196 -0.792365 0.488661
v -2.24152 8.3335 -26.8808
vn 0.431486 -0.731551 0.527876
v -2.22841 8.34782 -26.8736
vn 0.493621 -0.663691 0.562007
v -2.2163 8.36348 -26.8676
vn 0.551001 -0.58944 0.590726
v -2.20532 8.38034 -26.8627
vn 0.603076 -0.509513 0.613756
v -2.19556 8.39824 -26.8591
vn 0.649342 -0.424678 0.630875
v -2.18712 8.417 -26.8568
vn 0.689355 -0.335753 0.641919
v -2.18008 8.43644 -26.8557
vn 0.722729 -0.243595 0.64678
v -2.1745 8.45638 -26.856
vn 0.749142 -0.149092 0.645413
v -2.17045 8.47662 -26.8576
vn 0.768341 -0.0531517 0.637829
v -2.16796 8.49696 -26.8605
vn 0.780141 0.0432999 0.624104
v -2.16706 8.51722 -26.8647
vn 0.784427 0.139335 0.604367
v -2.16775 8.5372 -26.8701
vn 0.781159 0.234027 0.578811
v -2.17003 8.5567 -26.8766
vn 0.770368 0.326466 0.54768
v -2.17387 8.57554 -26.8843
vn 0.752158 0.415761 0.511274
v -2.17924 8.59353 -26.893
vn 0.726704 0.501052 0.469945
v -2.18608 8.61051 -26.9027
vn 0.694251 0.581518 0.42409
v -2.19434 8.6263 -26.9132
vn 0.655113 0.656383 0.374151
v -2.20393 8.64076 -26.9245
vn 0.609665 0.724927 0.320608
v -2.21475 8.65375 -26.9365
vn 0.558346 0.786489 0.263978
v -2.22672 8.66514 -26.949
vn 0.50165 0.840477 0.204806
v -2.23969 8.67482 -26.9619
vn 0.440123 0.886371 0.143661
v -2.25357 8.6827 -26.9751
vn 0.374357 0.923729 0.0811326
v -2.2682 8.6887 -26.9884
vn 0.304985 0.95219 0.0178229
v -2.28346 8.69277 -27.0018
vn 0.232677 0.971482 -0.0456585
v -2.29918 8.69487 -27.0151
vn 0.158128 0.981417 -0.1087
v -2.31523 8.69497 -27.0282
vn 0.0820558 0.981901 -0.170695
v -2.33145 8.69308 -27.0409
vn 0.00519349 0.972929 -0.231046
v -2.34767 8.68921 -27.0532
vn -0.0717188 0.954587 -0.289172
v -2.36375 8.6834 -27.0649
vn -0.14794 0.927052 -0.344513
v -2.37953 8.67571 -27.0758
vn -0.222737 0.890588 -0.396536
v -2.39486 8.66621 -27.086
vn -0.295389 0.845548 -0.44474
v -2.40959 8.65499 -27.0953
vn -0.365196 0.792365 -0.488661
v -2.42357 8.64216 -27.1035
vn -0.431486 0.731551 -0.527876
v -2.43668 8.62784 -27.1107
vn -0.493621 0.663691 -0.562007
v -2.44878 8.61218 -27.1168
vn -0.551001 0.58944 -0.590726
v -2.17184 8.50849 -27.4706
vn -0.557909 0.495265 -0.66592
v -2.18221 8.48957 -27.4744
vn -0.604393 0.410499 -0.682788
v -2.19128 8.46977 -27.4767
vn -0.645056 0.32178 -0.69308
v -2.19897 8.44927 -27.4775
vn -0.679507 0.229962 -0.696698
v -2.2052 8.42829 -27.4768
vn -0.707414 0.135929 -0.693606
v -2.20991 8.40701 -27.4746
vn -0.728508 0.0405869 -0.683834
v -2.21305 8.38564 -27.4709
vn -0.742586 -0.055146 -0.667476
v -2.2146 8.3644 -27.4659
vn -0.749513 -0.150348 -0.644691
v -2.21453 8.34347 -27.4594
vn -0.749221 -0.244102 -0.615696
v -2.21286 8.32307 -27.4516
vn -0.741714 -0.335505 -0.580772
v -2.20959 8.30339 -27.4425
vn -0.727064 -0.423677 -0.540255
v -2.20476 8.28462 -27.4323
vn -0.705412 -0.507768 -0.494535
v -2.19841 8.26695 -27.4211
vn -0.676967 -0.58697 -0.444052
v -2.1906 8.25053 -27.4089
vn -0.642001 -0.660519 -0.389293
v -2.18142 8.23554 -27.3958
vn -0.600854 -0.727706 -0.330785
v -2.17094 8.22211 -27.382
vn -0.553919 -0.787886 -0.269091
v -2.15928 8.21037 -27.3677
vn -0.50165 -0.840477 -0.204806
v -2.14653 8.20044 -27.3529
vn -0.44455 -0.884975 -0.138548
v -2.13284 8.19241 -27.3378
vn -0.383168 -0.920949 -0.0709559
v -2.11831 8.18636 -27.3226
vn -0.318097 -0.948055 -0.00268046
v -2.10311 8.18235 -27.3073
vn -0.249962 -0.96603 0.0656208
v -2.08736 8.18041 -27.2922
vn -0.179419 -0.974701 0.13329
v -2.07123 8.18057 -27.2774
vn -0.107149 -0.973986 0.199676
v -2.05487 8.18282 -27.263
vn -0.0338469 -0.963891 0.264138
v -2.03844 8.18715 -27.2492
vn 0.0397812 -0.944513 0.326057
v -2.02209 8.1935 -27.2361
vn 0.113026 -0.916038 0.384836
v -2.00599 8.20183 -27.2238
vn 0.185183 -0.878742 0.439908
v -1.99028 8.21204 -27.2124
vn 0.255556 -0.832983 0.490744
v -1.97513 8.22404 -27.2022
vn 0.323468 -0.779202 0.536854
v -1.96066 8.23772 -27.193
vn 0.388264 -0.717917 0.577794
v -1.94704 8.25294 -27.1851
vn 0.449322 -0.649718 0.613169
v -1.93438 8.26956 -27.1785
vn 0.506052 -0.575262 0.642639
v -1.9228 8.28741 -27.1733
vn 0.557909 -0.495265 0.66592
v -1.91243 8.30633 -27.1696
vn 0.604393 -0.410499 0.682788
v -1.90335 8.32613 -27.1673
vn 0.645056 -0.32178 0.69308
v -1.89566 8.34663 -27.1665
vn 0.679507 -0.229962 0.696698
v -1.88943 8.36761 -27.1672
vn 0.707414 -0.135929 0.693606
v -1.88473 8.38889 -27.1693
vn 0.728508 -0.0405869 0.683834
v -1.88158 8.41026 -27.173
vn 0.742586 0.055146 0.667476
v -1.88004 8.43151 -27.1781
vn 0.749513 0.150348 0.644691
v -1.8801 8.45243 -27.1846
vn 0.749221 0.244102 0.615696
v -1.88178 8.47283 -27.1923
vn 0.741714 0.335505 0.580772
v -1.88505 8.49251 -27.2014
vn 0.727064 0.423677 0.540255
v -1.88988 8.51128 -27.2116
vn 0.705412 0.507768 0.494535
v -1.89623 8.52895 -27.2229
vn 0.676967 0.58697 0.444052
v -1.90403 8.54537 -27.2351
vn 0.642001 0.660519 0.389293
v -1.91322 8.56036 -27.2481
vn 0.600854 0.727706 0.330785
v -1.92369 8.57379 -27.2619
vn 0.553919 0.787886 0.269091
v -1.93536 8.58553 -27.2763
vn 0.50165 0.840477 0.204806
v -1.9481 8.59546 -27.291
vn 0.44455 0.884975 0.138548
v -1.9618 8.60349 -27.3061
vn 0.383168 0.920949 0.0709559
v -1.97632 8.60954 -27.3214
vn 0.318097 0.948055 0.00268046
v -1.99153 8.61355 -27.3366
vn 0.249962 0.96603 -0.0656208
v -2.00727 8.61549 -27.3517
vn 0.179419 0.974701 -0.13329
v -2.0234 8.61533 -27.3665
vn 0.107149 0.973986 -0.199676
v -2.03976 8.61308 -27.3809
vn 0.0338469 0.963891 -0.264138
v -2.0562 8.60875 -27.3947
vn -0.0397812 0.944513 -0.326057
v -2.07254 8.6024 -27.4079
vn -0.113026 0.916038 -0.384836
v -2.08865 8.59407 -27.4201
vn -0.185183 0.878742 -0.439908
v -2.10435 8.58386 -27.4315
vn -0.255556 0.832983 -0.490744
v -2.11951 8.57186 -27.4418
vn -0.323468 0.779202 -0.536854
v -2.13397 8.55818 -27.4509
vn -0.388264 0.717917 -0.577794
v -2.1476 8.54296 -27.4588
vn -0.449322 0.649718 -0.613169
v -2.16026 8.52634 -27.4654
vn -0.506052 0.575262 -0.642639
v -1.8736 8.40797 -27.7886
vn -0.506407 0.477259 -0.718176
v -1.8846 8.38803 -27.7925
vn -0.553138 0.39258 -0.734792
v -1.89435 8.36721 -27.7947
vn -0.594543 0.30412 -0.744332
v -1.90275 8.3457 -27.7953
vn -0.630222 0.212731 -0.746703
v -1.90972 8.3237 -27.7942
vn -0.659832 0.119293 -0.741884
v -1.9152 8.30143 -27.7913
vn -0.683087 0.0247067 -0.729919
v -1.91912 8.27911 -27.7869
vn -0.699763 -0.0701177 -0.710925
v -1.92146 8.25695 -27.7808
vn -0.709701 -0.164267 -0.685085
v -1.92219 8.23516 -27.7731
vn -0.712804 -0.256834 -0.652646
v -1.92131 8.21395 -27.764
vn -0.709042 -0.346928 -0.613923
v -1.91881 8.19352 -27.7535
vn -0.698451 -0.43368 -0.569287
v -1.91474 8.17408 -27.7417
vn -0.681134 -0.516256 -0.519168
v -1.90911 8.15582 -27.7287
vn -0.657258 -0.593861 -0.46405
v -1.902 8.13889 -27.7147
vn -0.627051 -0.665746 -0.404462
v -1.89347 8.12348 -27.6998
vn -0.590806 -0.731219 -0.34098
v -1.8836 8.10973 -27.6841
vn -0.548871 -0.789651 -0.274213
v -1.87248 8.09776 -27.6677
vn -0.50165 -0.840477 -0.204806
v -1.86023 8.0877 -27.6509
vn -0.449598 -0.88321 -0.133426
v -1.84696 8.07964 -27.6338
vn -0.393216 -0.917436 -0.0607614
v -1.83279 8.07367 -27.6166
vn -0.333047 -0.942828 0.0124885
v -1.81787 8.06983 -27.5994
vn -0.269671 -0.959139 0.0856181
v -1.80234 8.06816 -27.5823
vn -0.203697 -0.966213 0.157923
v -1.78635 8.06869 -27.5657
vn -0.135762 -0.963982 0.228707
v -1.77005 8.0714 -27.5495
vn -0.0665197 -0.952468 0.297289
v -1.7536 8.07627 -27.5341
vn 0.00336345 -0.93178 0.363007
v -1.73716 8.08325 -27.5194
vn 0.0732142 -0.902119 0.42523
v -1.72088 8.09228 -27.5057
vn 0.14236 -0.86377 0.483357
v -1.70492 8.10326 -27.4931
vn 0.210135 -0.817103 0.53683
v -1.68944 8.1161 -27.4818
vn 0.275886 -0.762567 0.585132
v -1.67459 8.13067 -27.4717
vn 0.33898 -0.700686 0.627799
v -1.66051 8.14682 -27.4631
vn 0.398809 -0.632058 0.66442
v -1.64733 8.16441 -27.456
vn 0.454798 -0.557342 0.694643
v -1.63518 8.18327 -27.4504
vn 0.506407 -0.477259 0.718176
v -1.62418 8.2032 -27.4465
vn 0.553138 -0.39258 0.734792
v -1.61443 8.22402 -27.4443
vn 0.594543 -0.30412 0.744332
v -1.60603 8.24554 -27.4437
vn 0.630222 -0.212731 0.746703
v -1.59906 8.26753 -27.4449
vn 0.659832 -0.119293 0.741884
v -1.59359 8.2898 -27.4477
vn 0.683087 -0.0247067 0.729919
v -1.58966 8.31212 -27.4521
vn 0.699763 0.0701177 0.710925
v -1.58732 8.33429 -27.4582
vn 0.709701 0.164267 0.685085
v -1.58659 8.35608 -27.4659
vn 0.712804 0.256834 0.652646
v -1.58748 8.37729 -27.475
vn 0.709042 0.346928 0.613923
v -1.58997 8.39771 -27.4855
vn 0.698451 0.43368 0.569287
v -1.59405 8.41715 -27.4973
vn 0.681134 0.516256 0.519168
v -1.59967 8.43542 -27.5103
vn 0.657258 0.593861 0.46405
v -1.60678 8.45234 -27.5243
vn 0.627051 0.665746 0.404462
v -1.61531 8.46775 -27.5392
vn 0.590806 0.731219 0.34098
v -1.62518 8.48151 -27.555
vn 0.548871 0.789651 0.274213
v -1.6363 8.49347 -27.5713
vn 0.50165 0.840477 0.204806
v -1.64855 8.50353 -27.5881
vn 0.449598 0.88321 0.133426
v -1.66182 8.51159 -27.6052
vn 0.393216 0.917436 0.0607614
v -1.67599 8.51757 -27.6224
vn 0.333047 0.942828 -0.0124885
v -1.69091 8.52141 -27.6397
vn 0.269671 0.959139 -0.0856181
v -1.70644 8.52307 -27.6567
vn 0.203697 0.966213 -0.157923
v -1.72243 8.52255 -27.6733
vn 0.135762 0.963982 -0.228707
v -1.73873 8.51984 -27.6895
vn 0.0665197 0.952468 -0.297289
v -1.75518 8.51497 -27.705
vn -0.00336345 0.93178 -0.363007
v -1.77163 8.50798 -27.7196
vn -0.0732142 0.902119 -0.42523
v -1.7879 8.49896 -27.7333
vn -0.14236 0.86377 -0.483357
v -1.80386 8.48797 -27.7459
vn -0.210135 0.817103 -0.53683
v -1.81934 8.47513 -27.7573
vn -0.275886 0.762567 -0.585132
v -1.83419 8.46056 -27.7673
vn -0.33898 0.700686 -0.627799
v -1.84827 8.44441 -27.7759
vn -0.398809 0.632058 -0.66442
v -1.86145 8.42682 -27.783
vn -0.454798 0.557342 -0.694643
v -1.56483 8.29354 -28.0753
vn -0.448532 0.455148 -0.769194
v -1.57647 8.27259 -28.0793
vn -0.495542 0.370575 -0.785565
v -1.58693 8.25077 -28.0815
vn -0.537781 0.282433 -0.79437
v -1.59611 8.22827 -28.0818
vn -0.57484 0.191572 -0.795525
v -1.60392 8.20531 -28.0802
vn -0.606363 0.0988651 -0.789018
v -1.61028 8.18211 -28.0767
vn -0.632046 0.00520635 -0.774913
v -1.61513 8.15891 -28.0713
vn -0.651642 -0.0885025 -0.753346
v -1.61843 8.13591 -28.0642
vn -0.664963 -0.181359 -0.724522
v -1.62014 8.11335 -28.0553
vn -0.67188 -0.272469 -0.688722
v -1.62025 8.09144 -28.0448
vn -0.672326 -0.360955 -0.646289
v -1.61876 8.07039 -28.0328
vn -0.666298 -0.445965 -0.597631
v -1.61568 8.0504 -28.0193
vn -0.653852 -0.52668 -0.543218
v -1.61103 8.03167 -28.0045
vn -0.63511 -0.602322 -0.483574
v -1.60488 8.01437 -27.9886
vn -0.610251 -0.672164 -0.419272
v -1.59727 7.99868 -27.9717
vn -0.579515 -0.735533 -0.350933
v -1.58827 7.98474 -27.9539
vn -0.543198 -0.791818 -0.279214
v -1.57799 7.97269 -27.9355
vn -0.50165 -0.840477 -0.204806
v -1.5665 7.96265 -27.9166
vn -0.455271 -0.881042 -0.128425
v -1.55393 7.95471 -27.8974
vn -0.404507 -0.913123 -0.0508082
v -1.54039 7.94894 -27.878
vn -0.349847 -0.936409 0.0272984
v -1.52602 7.94541 -27.8588
vn -0.291818 -0.950677 0.105142
v -1.51096 7.94414 -27.8397
vn -0.230979 -0.95579 0.181973
v -1.49534 7.94515 -27.8211
vn -0.167916 -0.951698 0.257052
v -1.47932 7.94844 -27.8032
vn -0.103235 -0.93844 0.329655
v -1.46306 7.95396 -27.786
vn -0.0375601 -0.916145 0.399083
v -1.44671 7.96166 -27.7697
vn 0.0284765 -0.885027 0.464668
v -1.43042 7.97148 -27.7546
vn 0.0942389 -0.845386 0.525778
v -1.41436 7.98331 -27.7407
vn 0.159094 -0.797603 0.581824
v -1.39868 7.99705 -27.7282
vn 0.222416 -0.742138 0.632267
v -1.38353 8.01255 -27.7172
vn 0.283597 -0.679527 0.676621
v -1.36906 8.02968 -27.7079
vn 0.342046 -0.610371 0.714459
v -1.3554 8.04826 -27.7002
vn 0.397202 -0.535337 0.745416
v -1.34269 8.06812 -27.6943
vn 0.448532 -0.455148 0.769194
v -1.33105 8.08906 -27.6903
vn 0.495542 -0.370575 0.785565
v -1.32059 8.11089 -27.6881
vn 0.537781 -0.282433 0.79437
v -1.31141 8.13339 -27.6878
vn 0.57484 -0.191572 0.795525
v -1.3036 8.15634 -27.6894
vn 0.606363 -0.0988651 0.789018
v -1.29724 8.17954 -27.6929
vn 0.632046 -0.00520635 0.774913
v -1.29239 8.20274 -27.6982
vn 0.651642 0.0885025 0.753346
v -1.28909 8.22574 -27.7054
vn 0.664963 0.181359 0.724522
v -1.28738 8.2483 -27.7142
vn 0.67188 0.272469 0.688722
v -1.28727 8.27021 -27.7247
vn 0.672326 0.360955 0.646289
v -1.28876 8.29126 -27.7368
vn 0.666298 0.445965 0.597631
v -1.29184 8.31125 -27.7503
vn 0.653852 0.52668 0.543218
v -1.29649 8.32998 -27.765
vn 0.63511 0.602322 0.483574
v -1.30264 8.34728 -27.781
vn 0.610251 0.672164 0.419272
v -1.31025 8.36297 -27.7979
vn 0.579515 0.735533 0.350933
v -1.31925 8.37691 -27.8156
vn 0.543198 0.791818 0.279214
v -1.32953 8.38896 -27.8341
vn 0.50165 0.840477 0.204806
v -1.34102 8.399 -27.853
vn 0.455271 0.881042 0.128425
v -1.35359 8.40695 -27.8722
vn 0.404507 0.913123 0.0508082
v -1.36713 8.41271 -27.8916
vn 0.349847 0.936409 -0.0272984
v -1.3815 8.41625 -27.9108
vn 0.291818 0.950677 -0.105142
v -1.39656 8.41751 -27.9299
vn 0.230979 0.95579 -0.181973
v -1.41218 8.4165 -27.9484
vn 0.167916 0.951698 -0.257052
v -1.4282 8.41321 -27.9664
vn 0.103235 0.93844 -0.329655
v -1.44446 8.40769 -27.9836
vn 0.0375601 0.916145 -0.399083
v -1.46081 8.39999 -27.9999
vn -0.0284765 0.885027 -0.464668
v -1.4771 8.39017 -28.015
vn -0.0942389 0.845386 -0.525778
v -1.49316 8.37834 -28.0289
vn -0.159094 0.797603 -0.581824
v -1.50884 8.3646 -28.0414
vn -0.222416 0.742138 -0.632267
v -1.52399 8.3491 -28.0523
vn -0.283597 0.679527 -0.676621
v -1.53846 8.33197 -28.0617
vn -0.342046 0.610371 -0.714459
v -1.55212 8.31339 -28.0694
vn -0.397202 0.535337 -0.745416
v -1.24538 8.165 -28.3302
vn -0.384636 0.428768 -0.817443
v -1.25767 8.14305 -28.3344
vn -0.431955 0.344322 -0.833581
v -1.26889 8.12025 -28.3365
vn -0.475113 0.25656 -0.841691
v -1.27891 8.0968 -28.3365
vn -0.513695 0.166328 -0.841696
v -1.28766 8.07294 -28.3344
vn -0.547331 0.0744934 -0.833594
v -1.29503 8.04888 -28.3302
vn -0.575695 -0.0180585 -0.817465
v -1.30096 8.02488 -28.324
vn -0.598515 -0.110436 -0.793463
v -1.30539 8.00115 -28.3158
vn -0.615571 -0.201751 -0.761819
v -1.30828 7.97793 -28.3057
vn -0.626699 -0.291122 -0.722839
v -1.3096 7.95543 -28.2937
vn -0.631791 -0.37769 -0.676897
v -1.30935 7.93388 -28.2801
vn -0.630799 -0.46062 -0.624437
v -1.30751 7.91348 -28.2649
vn -0.623732 -0.539115 -0.565962
v -1.30411 7.89444 -28.2483
vn -0.610658 -0.612417 -0.502038
v -1.29919 7.87692 -28.2304
vn -0.591703 -0.679822 -0.433278
v -1.29278 7.86111 -28.2115
vn -0.56705 -0.740679 -0.360346
v -1.28495 7.84715 -28.1916
vn -0.536935 -0.794403 -0.283943
v -1.27578 7.83517 -28.171
vn -0.50165 -0.840477 -0.204806
v -1.26536 7.8253 -28.15
vn -0.461533 -0.878457 -0.123696
v -1.25378 7.81763 -28.1286
vn -0.416972 -0.907976 -0.0413953
v -1.24116 7.81223 -28.1071
vn -0.368395 -0.928751 0.0413042
v -1.22761 7.80916 -28.0857
vn -0.31627 -0.940582 0.123606
v -1.21328 7.80844 -28.0646
vn -0.261099 -0.943355 0.204717
v -1.19829 7.81008 -28.0441
vn -0.203414 -0.937042 0.283857
v -1.18279 7.81406 -28.0242
vn -0.14377 -0.921705 0.360263
v -1.16693 7.82036 -28.0053
vn -0.0827411 -0.897492 0.4332
v -1.15086 7.82889 -27.9874
vn -0.0209154 -0.864635 0.501964
v -1.13474 7.8396 -27.9708
vn 0.0411117 -0.823452 0.565895
v -1.11873 7.85236 -27.9556
vn 0.102743 -0.774338 0.624375
v -1.10297 7.86706 -27.9419
vn 0.163385 -0.717767 0.676843
v -1.08762 7.88356 -27.93
vn 0.222453 -0.654283 0.722792
v -1.07283 7.90169 -27.9199
vn 0.279379 -0.584498 0.76178
v -1.05873 7.92129 -27.9116
vn 0.333614 -0.509085 0.793432
v -1.04548 7.94216 -27.9054
vn 0.384636 -0.428768 0.817443
v -1.03318 7.9641 -27.9012
vn 0.431955 -0.344322 0.833581
v -1.02196 7.98691 -27.8991
vn 0.475113 -0.25656 0.841691
v -1.01194 8.01036 -27.8991
vn 0.513695 -0.166328 0.841696
v -1.0032 8.03422 -27.9012
vn 0.547331 -0.0744934 0.833594
v -0.995828 8.05827 -27.9054
vn 0.575695 0.0180585 0.817465
v -0.989898 8.08228 -27.9116
vn 0.598515 0.110436 0.793463
v -0.985465 8.106 -27.9199
vn 0.615571 0.201751 0.761819
v -0.982574 8.12923 -27.93
vn 0.626699 0.291122 0.722839
v -0.98125 8.15172 -27.9419
vn 0.631791 0.37769 0.676897
v -0.981508 8.17327 -27.9556
vn 0.630799 0.46062 0.624437
v -0.983345 8.19367 -27.9708
vn 0.623732 0.539115 0.565962
v -0.986742 8.21272 -27.9874
vn 0.610658 0.612417 0.502038
v -0.991668 8.23023 -28.0052
vn 0.591703 0.679822 0.433278
v -0.998074 8.24605 -28.0242
vn 0.56705 0.740679 0.360346
v -1.0059 8.26001 -28.044
vn 0.536935 0.794403 0.283943
v -1.01507 8.27198 -28.0646
vn 0.50165 0.840477 0.204806
v -1.02549 8.28185 -28.0857
vn 0.461533 0.878457 0.123696
v -1.03707 8.28952 -28.1071
vn 0.416972 0.907976 0.0413953
v -1.0497 8.29492 -28.1286
vn 0.368395 0.928751 -0.0413042
v -1.06324 8.298 -28.1499
vn 0.31627 0.940582 -0.123606
v -1.07758 8.29872 -28.171
vn 0.261099 0.943355 -0.204717
v -1.09257 8.29708 -28.1916
vn 0.203414 0.937042 -0.283857
v -1.10807 8.29309 -28.2114
vn 0.14377 0.921705 -0.360263
v -1.12393 8.2868 -28.2304
vn 0.0827411 0.897492 -0.4332
v -1.13999 8.27826 -28.2483
vn 0.0209154 0.864635 -0.501964
v -1.15611 8.26756 -28.2649
vn -0.0411117 0.823452 -0.565895
v -1.17213 8.2548 -28.2801
vn -0.102743 0.774338 -0.624375
v -1.18788 8.2401 -28.2937
vn -0.163385 0.717767 -0.676843
v -1.20323 8.2236 -28.3056
vn -0.222453 0.654283 -0.722792
v -1.21803 8.20546 -28.3158
vn -0.279379 0.584498 -0.76178
v -1.23212 8.18587 -28.324
vn -0.333614 0.509085 -0.793432
v -0.91524 8.02222 -28.553
vn -0.315526 0.39821 -0.86132
v -0.928205 7.99928 -28.5573
vn -0.363177 0.313912 -0.877247
v -0.940218 7.97552 -28.5593
vn -0.40733 0.22659 -0.884726
v -0.951164 7.95117 -28.559
vn -0.44756 0.137086 -0.883684
v -0.960938 7.92646 -28.5564
vn -0.483481 0.0462617 -0.874132
v -0.969444 7.90163 -28.5516
vn -0.514745 -0.0450081 -0.856161
v -0.976602 7.87691 -28.5444
vn -0.541052 -0.135844 -0.829945
v -0.982342 7.85255 -28.5351
vn -0.562148 -0.225372 -0.795737
v -0.986609 7.82878 -28.5237
vn -0.57783 -0.31273 -0.753865
v -0.989361 7.80584 -28.5103
vn -0.587948 -0.397076 -0.704733
v -0.990574 7.78393 -28.4951
vn -0.592403 -0.477597 -0.648814
v -0.990234 7.76327 -28.4782
vn -0.591153 -0.55352 -0.586646
v -0.988344 7.74406 -28.4598
vn -0.584211 -0.624111 -0.518829
v -0.984925 7.72649 -28.44
vn -0.571641 -0.688692 -0.446015
v -0.980007 7.71072 -28.419
vn -0.553567 -0.746641 -0.368906
v -0.973639 7.69691 -28.397
vn -0.530161 -0.797399 -0.288244
v -0.965881 7.68519 -28.3743
vn -0.50165 -0.840477 -0.204806
v -0.956809 7.67567 -28.3511
vn -0.468307 -0.875462 -0.119395
v -0.94651 7.66845 -28.3275
vn -0.430455 -0.902015 -0.0328353
v -0.935083 7.66359 -28.3039
vn -0.388457 -0.919881 0.0540411
v -0.922638 7.66114 -28.2804
vn -0.342718 -0.928888 0.140397
v -0.909296 7.66112 -28.2573
vn -0.293678 -0.92895 0.225401
v -0.895183 7.66354 -28.2347
vn -0.24181 -0.920065 0.308234
v -0.880437 7.66837 -28.213
vn -0.187613 -0.90232 0.388099
v -0.8652 7.67556 -28.1923
vn -0.13161 -0.875884 0.464226
v -0.849617 7.68505 -28.1728
vn -0.0743388 -0.841014 0.535882
v -0.83384 7.69674 -28.1547
vn -0.0163518 -0.798044 0.602377
v -0.81802 7.71052 -28.1382
vn 0.0417926 -0.747388 0.663072
v -0.802309 7.72626 -28.1234
vn 0.0995345 -0.689535 0.71738
v -0.786859 7.74381 -28.1105
vn 0.156318 -0.625041 0.76478
v -0.771819 7.763 -28.0996
vn 0.211596 -0.554528 0.804814
v -0.757334 7.78363 -28.0908
vn 0.264836 -0.478674 0.837098
v -0.743542 7.80553 -28.0843
vn 0.315526 -0.39821 0.86132
v -0.730577 7.82846 -28.0799
vn 0.363177 -0.313912 0.877247
v -0.718563 7.85222 -28.0779
vn 0.40733 -0.22659 0.884726
v -0.707617 7.87657 -28.0782
vn 0.44756 -0.137086 0.883684
v -0.697844 7.90129 -28.0808
vn 0.483481 -0.0462617 0.874132
v -0.689338 7.92612 -28.0857
vn 0.514745 0.0450081 0.856161
v -0.68218 7.95083 -28.0928
vn 0.541052 0.135844 0.829945
v -0.67644 7.97519 -28.1021
vn 0.562148 0.225372 0.795737
v -0.672173 7.99896 -28.1135
vn 0.57783 0.31273 0.753865
v -0.66942 8.02191 -28.1269
vn 0.587948 0.397076 0.704733
v -0.668208 8.04382 -28.1421
vn 0.592403 0.477597 0.648814
v -0.668548 8.06448 -28.159
vn 0.591153 0.55352 0.586646
v -0.670437 8.08368 -28.1774
vn 0.584211 0.624111 0.518829
v -0.673857 8.10125 -28.1973
vn 0.571641 0.688692 0.446015
v -0.678775 8.11702 -28.2182
vn 0.553567 0.746641 0.368906
v -0.685143 8.13083 -28.2402
vn 0.530161 0.797399 0.288244
v -0.692901 8.14255 -28.2629
vn 0.50165 0.840477 0.204806
v -0.701972 8.15207 -28.2861
vn 0.468307 0.875462 0.119395
v -0.712271 8.1593 -28.3097
vn 0.430455 0.902015 0.0328353
v -0.723698 8.16416 -28.3333
vn 0.388457 0.919881 -0.0540411
v -0.736143 8.16661 -28.3568
vn 0.342718 0.928888 -0.140397
v -0.749486 8.16662 -28.3799
vn 0.293678 0.92895 -0.225401
v -0.763598 8.16421 -28.4025
vn 0.24181 0.920065 -0.308234
v -0.778344 8.15938 -28.4242
vn 0.187613 0.90232 -0.388099
v -0.793582 8.15219 -28.4449
vn 0.13161 0.875884 -0.464226
v -0.809165 8.1427 -28.4644
vn 0.0743388 0.841014 -0.535882
v -0.824942 8.13101 -28.4825
vn 0.0163518 0.798044 -0.602377
v -0.840762 8.11722 -28.499
vn -0.0417926 0.747388 -0.663072
v -0.856472 8.10148 -28.5138
vn -0.0995345 0.689535 -0.71738
v -0.871922 8.08394 -28.5267
vn -0.156318 0.625041 -0.76478
v -0.886962 8.06475 -28.5376
vn -0.211596 0.554528 -0.804814
v -0.901448 8.04411 -28.5464
vn -0.264836 0.478674 -0.837098
f 1 66 2 
f 1 65 66 
f 2 67 3 
f 2 66 67 
f 3 68 4 
f 3 67 68 
f 4 69 5 
f 4 68 69 
f 5 70 6 
f 5 69 70 
f 6 71 7 
f 6 70 71 
f 7 72 8 
f 7 71 72 
f 8 73 9 
f 8 72 73 
f 9 74 10 
f 9 73 74 
f 10 75 11 
f 10 74 75 
f 11 76 12 
f 11 75 76 
f 12 77 13 
f 12 76 77 
f 13 78 14 
f 13 77 78 
f 14 79 15 
f 14 78 79 
f 15 80 16 
f 15 79 80 
f 16 81 17 
f 16 80 81 
f 17 82 18 
f 17 81 82 
f 18 83 19 
f 18 82 83 
f 19 84 20 
f 19 83 84 
f 20 85 21 
f 20 84 85 
f 21 86 22 
f 21 85 86 
f 22 87 23 
f 22 86 87 
f 23 88 24 
f 23 87 88 
f 24 89 25 
f 24 88 89 
f 25 90 26 
f 25 89 90 
f 26 91 27 
f 26 90 91 
f 27 92 28 
f 27 91 92 
f 28 93 29 
f 28 92 93 
f 29 94 30 
f 29 93 94 
f 30 95 31 
f 30 94 95 
f 31 96 32 
f 31 95 96 
f 32 97 33 
f 32 96 97 
f 33 98 34 
f 33 97 98 
f 34 99 35 
f 34 98 99 
f 35 100 36 
f 35 99 100 
f 36 101 37 
f 36 100 101 
f 37 102 38 
f 37 101 102 
f 38 103 39 
f 38 102 103 
f 39 104 40 
f 39 103 104 
f 40 105 41 
f 40 104 105 
f 41 106 42 
f 41 105 106 
f 42 107 43 
f 42 106 107 
f 43 108 44 
f 43 107 108 
f 44 109 45 
f 44 108 109 
f 45 110 46 
f 45 109 110 
f 46 111 47 
f 46 110 111 
f 47 112 48 
f 47 111 112 
f 48 113 49 
f 48 112 113 
f 49 114 50 
f 49 113 114 
f 50 115 51 
f 50 114 115 
f 51 116 52 
f 51 115 116 
f 52 117 53 
f 52 116 117 
f 53 118 54 
f 53 117 118 
f 54 119 55 
f 54 118 119 
f 55 120 56 
f 55 119 120 
f 56 121 57 
f 56 120 121 
f 57 122 58 
f 57 121 122 
f 58 123 59 
f 58 122 123 
f 59 124 60 
f 59 123 124 
f 60 125 61 
f 60 124 125 
f 61 126 62 
f 61 125 126 
f 62 127 63 
f 62 126 127 
f 63 128 64 
f 63 127 128 
f 64 65 1 
f 64 128 65 
f 65 130 66 
f 65 129 130 
f 66 131 67 
f 66 130 131 
f 67 132 68 
f 67 131 132 
f 68 133 69 
f 68 132 133 
f 69 134 70 
f 69 133 134 
f 70 135 71 
f 70 134 135 
f 71 136 72 
f 71 135 136 
f 72 137 73 
f 72 136 137 
f 73 138 74 
f 73 137 138 
f 74 139 75 
f 74 138 139 
f 75 140 76 
f 75 139 140 
f 76 141 77 
f 76 140 141 
f 77 142 78 
f 77 141 142 
f 78 143 79 
f 78 142 143 
f 79 144 80 
f 79 143 144 
f 80 145 81 
f 80 144 145 
f 81 146 82 
f 81 145 146 
f 82 147 83 
f 82 146 147 
f 83 148 84 
f 83 147 148 
f 84 149 85 
f 84 148 149 
f 85 150 86 
f 85 149 150 
f 86 151 87 
f 86 150 151 
f 87 152 88 
f 87 151 152 
f 88 153 89 
f 88 152 153 
f 89 154 90 
f 89 153 154 
f 90 155 91 
f 90 154 155 
f 91 156 92 
f 91 155 156 
f 92 157 93 
f 92 156 157 
f 93 158 94 
f 93 157 158 
f 94 159 95 
f 94 158 159 
f 95 160 96 
f 95 159 160 
f 96 161 97 
f 96 160 161 
f 97 162 98 
f 97 161 162 
f 98 163 99 
f 98 162 163 
f 99 164 100 
f 99 163 164 
f 100 165 101 
f 100 164 165 
f 101 166 102 
f 101 165 166 
f 102 167 103 
f 102 166 167 
f 103 168 104 
f 103 167 168 
f 104 169 105 
f 104 168 169 
f 105 170 106 
f 105 169 170 
f 106 171 107 
f 106 170 171 
f 107 172 108 
f 107 171 172 
f 108 173 109 
f 108 172 173 
f 109 174 110 
f 109 173 174 
f 110 175 111 
f 110 174 175 
f 111 176 112 
f 111 175 176 
f 112 177 113 
f 112 176 177 
f 113 178 114 
f 113 177 178 
f 114 179 115 
f 114 178 179 
f 115 180 116 
f 115 179 180 
f 116 181 117 
f 116 180 181 
f 117 182 118 
f 117 181 182 
f 118 183 119 
f 118 182 183 
f 119 184 120 
f 119 183 184 
f 120 185 121 
f 120 184 185 
f 121 186 122 
f 121 185 186 
f 122 187 123 
f 122 186 187 
f 123 188 124 
f 123 187 188 
f 124 189 125 
f 124 188 189 
f 125 190 126 
f 125 189 190 
f 126 191 127 
f 126 190 191 
f 127 192 128 
f 127 191 192 
f 128 129 65 
f 128 192 129 
f 129 194 130 
f 129 193 194 
f 130 195 131 
f 130 194 195 
f 131 196 132 
f 131 195 196 
f 132 197 133 
f 132 196 197 
f 133 198 134 
f 133 197 198 
f 134 199 135 
f 134 198 199 
f 135 200 136 
f 135 199 200 
f 136 201 137 
f 136 200 201 
f 137 202 138 
f 137 201 202 
f 138 203 139 
f 138 202 203 
f 139 204 140 
f 139 203 204 
f 140 205 141 
f 140 204 205 
f 141 206 142 
f 141 205 206 
f 142 207 143 
f 142 206 207 
f 143 208 144 
f 143 207 208 
f 144 209 145 
f 144 208 209 
f 145 210 146 
f 145 209 210 
f 146 211 147 
f 146 210 211 
f 147 212 148 
f 147 211 212 
f 148 213 149 
f 148 212 213 
f 149 214 150 
f 149 213 214 
f 150 215 151 
f 150 214 215 
f 151 216 152 
f 151 215 216 
f 152 217 153 
f 152 216 217 
f 153 218 154 
f 153 217 218 
f 154 219 155 
f 154 218 219 
f 155 220 156 
f 155 219 220 
f 156 221 157 
f 156 220 221 
f 157 222 158 
f 157 221 222 
f 158 223 159 
f 158 222 223 
f 159 224 160 
f 159 223 224 
f 160 225 161 
f 160 224 225 
f 161 226 162 
f 161 225 226 
f 162 227 163 
f 162 226 227 
f 163 228 164 
f 163 227 228 
f 164 229 165 
f 164 228 229 
f 165 230 166 
f 165 229 230 
f 166 231 167 
f 166 230 231 
f 167 232 168 
f 167 231 232 
f 168 233 169 
f 168 232 233 
f 169 234 170 
f 169 233 234 
f 170 235 171 
f 170 234 235 
f 171 236 172 
f 171 235 236 
f 172 237 173 
f 172 236 237 
f 173 238 174 
f 173 237 238 
f 174 239 175 
f 174 238 239 
f 175 240 176 
f 175 239 240 
f 176 241 177 
f 176 240 241 
f 177 242 178 
f 177 241 242 
f 178 243 179 
f 178 242 243 
f 179 244 180 
f 179 243 244 
f 180 245 181 
f 180 244 245 
f 181 246 182 
f 181 245 246 
f 182 247 183 
f 182 246 247 
f 183 248 184 
f 183 247 248 
f 184 249 185 
f 184 248 249 
f 185 250 186 
f 185 249 250 
f 186 251 187 
f 186 250 251 
f 187 252 188 
f 187 251 252 
f 188 253 189 
f 188 252 253 
f 189 254 190 
f 189 253 254 
f 190 255 191 
f 190 254 255 
f 191 256 192 
f 191 255 256 
f 192 193 129 
f 192 256 193 
f 193 258 194 
f 193 257 258 
f 194 259 195 
f 194 258 259 
f 195 260 196 
f 195 259 260 
f 196 261 197 
f 196 260 261 
f 197 262 198 
f 197 261 262 
f 198 263 199 
f 198 262 263 
f 199 264 200 
f 199 263 264 
f 200 265 201 
f 200 264 265 
f 201 266 202 
f 201 265 266 
f 202 267 203 
f 202 266 267 
f 203 268 204 
f 203 267 268 
f 204 269 205 
f 204 268 269 
f 205 270 206 
f 205 269 270 
f 206 271 207 
f 206 270 271 
f 207 272 208 
f 207 271 272 
f 208 273 209 
f 208 272 273 
f 209 274 210 
f 209 273 274 
f 210 275 211 
f 210 274 275 
f 211 276 212 
f 211 275 276 
f 212 277 213 
f 212 276 277 
f 213 278 214 
f 213 277 278 
f 214 279 215 
f 214 278 279 
f 215 280 216 
f 215 279 280 
f 216 281 217 
f 216 280 281 
f 217 282 218 
f 217 281 282 
f 218 283 219 
f 218 282 283 
f 219 284 220 
f 219 283 284 
f 220 285 221 
f 220 284 285 
f 221 286 222 
f 221 285 286 
f 222 287 223 
f 222 286 287 
f 223 288 224 
f 223 287 288 
f 224 289 225 
f 224 288 289 
f 225 290 226 
f 225 289 290 
f 226 291 227 
f 226 290 291 
f 227 292 228 
f 227 291 292 
f 228 293 229 
f 228 292 293 
f 229 294 230 
f 229 293 294 
f 230 295 231 
f 230 294 295 
f 231 296 232 
f 231 295 296 
f 232 297 233 
f 232 296 297 
f 233 298 234 
f 233 297 298 
f 234 299 235 
f 234 298 299 
f 235 300 236 
f 235 299 300 
f 236 301 237 
f 236 300 301 
f 237 302 238 
f 237 301 302 
f 238 303 239 
f 238 302 303 
f 239 304 240 
f 239 303 304 
f 240 305 241 
f 240 304 305 
f 241 306 242 
f 241 305 306 
f 242 307 243 
f 242 306 307 
f 243 308 244 
f 243 307 308 
f 244 309 245 
f 244 308 309 
f 245 310 246 
f 245 309 310 
f 246 311 247 
f 246 310 311 
f 247 312 248 
f 247 311 312 
f 248 313 249 
f 248 312 313 
f 249 314 250 
f 249 313 314 
f 250 315 251 
f 250 314 315 
f 251 316 252 
f 251 315 316 
f 252 317 253 
f 252 316 317 
f 253 318 254 
f 253 317 318 
f 254 319 255 
f 254 318 319 
f 255 320 256 
f 255 319 320 
f 256 257 193 
f 256 320 257 
f 257 322 258 
f 257 321 322 
f 258 323 259 
f 258 322 323 
f 259 324 260 
f 259 323 324 
f 260 325 261 
f 260 324 325 
f 261 326 262 
f 261 325 326 
f 262 327 263 
f 262 326 327 
f 263 328 264 
f 263 327 328 
f 264 329 265 
f 264 328 329 
f 265 330 266 
f 265 329 330 
f 266 331 267 
f 266 330 331 
f 267 332 268 
f 267 331 332 
f 268 333 269 
f 268 332 333 
f 269 334 270 
f 269 333 334 
f 270 335 271 
f 270 334 335 
f 271 336 272 
f 271 335 336 
f 272 337 273 
f 272 336 337 
f 273 338 274 
f 273 337 338 
f 274 339 275 
f 274 338 339 
f 275 340 276 
f 275 339 340 
f 276 341 277 
f 276 340 341 
f 277 342 278 
f 277 341 342 
f 278 343 279 
f 278 342 343 
f 279 344 280 
f 279 343 344 
f 280 345 281 
f 280 344 345 
f 281 346 282 
f 281 345 346 
f 282 347 283 
f 282 346 347 
f 283 348 284 
f 283 347 348 
f 284 349 285 
f 284 348 349 
f 285 350 286 
f 285 349 350 
f 286 351 287 
f 286 350 351 
f 287 352 288 
f 287 351 352 
f 288 353 289 
f 288 352 353 
f 289 354 290 
f 289 353 354 
f 290 355 291 
f 290 354 355 
f 291 356 292 
f 291 355 356 
f 292 357 293 
f 292 356 357 
f 293 358 294 
f 293 357 358 
f 294 359 295 
f 294 358 359 
f 295 360 296 
f 295 359 360 
f 296 361 297 
f 296 360 361 
f 297 362 298 
f 297 361 362 
f 298 363 299 
f 298 362 363 
f 299 364 300 
f 299 363 364 
f 300 365 301 
f 300 364 365 
f 301 366 302 
f 301 365 366 
f 302 367 303 
f 302 366 367 
f 303 368 304 
f 303 367 368 
f 304 369 305 
f 304 368 369 
f 305 370 306 
f 305 369 370 
f 306 371 307 
f 306 370 371 
f 307 372 308 
f 307 371 372 
f 308 373 309 
f 308 372 373 
f 309 374 310 
f 309 373 374 
f 310 375 311 
f 310 374 375 
f 311 376 312 
f 311 375 376 
f 312 377 313 
f 312 376 377 
f 313 378 314 
f 313 377 378 
f 314 379 315 
f 314 378 379 
f 315 380 316 
f 315 379 380 
f 316 381 317 
f 316 380 381 
f 317 382 318 
f 317 381 382 
f 318 383 319 
f 318 382 383 
f 319 384 320 
f 319 383 384 
f 320 321 257 
f 320 384 321 
f 321 386 322 
f 321 385 386 
f 322 387 323 
f 322 386 387 
f 323 388 324 
f 323 387 388 
f 324 389 325 
f 324 388 389 
f 325 390 326 
f 325 389 390 
f 326 391 327 
f 326 390 391 
f 327 392 328 
f 327 391 392 
f 328 393 329 
f 328 392 393 
f 329 394 330 
f 329 393 394 
f 330 395 331 
f 330 394 395 
f 331 396 332 
f 331 395 396 
f 332 397 333 
f 332 396 397 
f 333 398 334 
f 333 397 398 
f 334 399 335 
f 334 398 399 
f 335 400 336 
f 335 399 400 
f 336 401 337 
f 336 400 401 
f 337 402 338 
f 337 401 402 
f 338 403 339 
f 338 402 403 
f 339 404 340 
f 339 403 404 
f 340 405 341 
f 340 404 405 
f 341 406 342 
f 341 405 406 
f 342 407 343 
f 342 406 407 
f 343 408 344 
f 343 407 408 
f 344 409 345 
f 344 408 409 
f 345 410 346 
f 345 409 410 
f 346 411 347 
f 346 410 411 
f 347 412 348 
f 347 411 412 
f 348 413 349 
f 348 412 413 
f 349 414 350 
f 349 413 414 
f 350 415 351 
f 350 414 415 
f 351 416 352 
f 351 415 416 
f 352 417 353 
f 352 416 417 
f 353 418 354 
f 353 417 418 
f 354 419 355 
f 354 418 419 
f 355 420 356 
f 355 419 420 
f 356 421 357 
f 356 420 421 
f 357 422 358 
f 357 421 422 
f 358 423 359 
f 358 422 423 
f 359 424 360 
f 359 423 424 
f 360 425 361 
f 360 424 425 
f 361 426 362 
f 361 425 426 
f 362 427 363 
f 362 426 427 
f 363 428 364 
f 363 427 428 
f 364 429 365 
f 364 428 429 
f 365 430 366 
f 365 429 430 
f 366 431 367 
f 366 430 431 
f 367 432 368 
f 367 431 432 
f 368 433 369 
f 368 432 433 
f 369 434 370 
f 369 433 434 
f 370 435 371 
f 370 434 435 
f 371 436 372 
f 371 435 436 
f 372 437 373 
f 372 436 437 
f 373 438 374 
f 373 437 438 
f 374 439 375 
f 374 438 439 
f 375 440 376 
f 375 439 440 
f 376 441 377 
f 376 440 441 
f 377 442 378 
f 377 441 442 
f 378 443 379 
f 378 442 443 
f 379 444 380 
f 379 443 444 
f 380 445 381 
f 380 444 445 
f 381 446 382 
f 381 445 446 
f 382 447 383 
f 382 446 447 
f 383 448 384 
f 383 447 448 
f 384 385 321 
f 384 448 385 
f 385 450 386 
f 385 449 450 
f 386 451 387 
f 386 450 451 
f 387 452 388 
f 387 451 452 
f 388 453 389 
f 388 452 453 
f 389 454 390 
f 389 453 454 
f 390 455 391 
f 390 454 455 
f 391 456 392 
f 391 455 456 
f 392 457 393 
f 392 456 457 
f 393 458 394 
f 393 457 458 
f 394 459 395 
f 394 458 459 
f 395 460 396 
f 395 459 460 
f 396 461 397 
f 396 460 461 
f 397 462 398 
f 397 461 462 
f 398 463 399 
f 398 462 463 
f 399 464 400 
f 399 463 464 
f 400 465 401 
f 400 464 465 
f 401 466 402 
f 401 465 466 
f 402 467 403 
f 402 466 467 
f 403 468 404 
f 403 467 468 
f 404 469 405 
f 404 468 469 
f 405 470 406 
f 405 469 470 
f 406 471 407 
f 406 470 471 
f 407 472 408 
f 407 471 472 
f 408 473 409 
f 408 472 473 
f 409 474 410 
f 409 473 474 
f 410 475 411 
f 410 474 475 
f 411 476 412 
f 411 475 476 
f 412 477 413 
f 412 476 477 
f 413 478 414 
f 413 477 478 
f 414 479 415 
f 414 478 479 
f 415 480 416 
f 415 479 480 
f 416 481 417 
f 416 480 481 
f 417 482 418 
f 417 481 482 
f 418 483 419 
f 418 482 483 
f 419 484 420 
f 419 483 484 
f 420 485 421 
f 420 484 485 
f 421 486 422 
f 421 485 486 
f 422 487 423 
f 422 486 487 
f 423 488 424 
f 423 487 488 
f 424 489 425 
f 424 488 489 
f 425 490 426 
f 425 489 490 
f 426 491 427 
f 426 490 491 
f 427 492 428 
f 427 491 492 
f 428 493 429 
f 428 492 493 
f 429 494 430 
f 429 493 494 
f 430 495 431 
f 430 494 495 
f 431 496 432 
f 431 495 496 
f 432 497 433 
f 432 496 497 
f 433 498 434 
f 433 497 498 
f 434 499 435 
f 434 498 499 
f 435 500 436 
f 435 499 500 
f 436 501 437 
f 436 500 501 
f 437 502 438 
f 437 501 502 
f 438 503 439 
f 438 502 503 
f 439 504 440 
f 439 503 504 
f 440 505 441 
f 440 504 505 
f 441 506 442 
f 441 505 506 
f 442 507 443 
f 442 506 507 
f 443 508 444 
f 443 507 508 
f 444 509 445 
f 444 508 509 
f 445 510 446 
f 445 509 510 
f 446 511 447 
f 446 510 511 
f 447 512 448 
f 447 511 512 
f 448 449 385 
f 448 512 449 
f 449 514 450 
f 449 513 514 
f 450 515 451 
f 450 514 515 
f 451 516 452 
f 451 515 516 
f 452 517 453 
f 452 516 517 
f 453 518 454 
f 453 517 518 
f 454 519 455 
f 454 518 519 
f 455 520 456 
f 455 519 520 
f 456 521 457 
f 456 520 521 
f 457 522 458 
f 457 521 522 
f 458 523 459 
f 458 522 523 
f 459 524 460 
f 459 523 524 
f 460 525 461 
f 460 524 525 
f 461 526 462 
f 461 525 526 
f 462 527 463 
f 462 526 527 
f 463 528 464 
f 463 527 528 
f 464 529 465 
f 464 528 529 
f 465 530 466 
f 465 529 530 
f 466 531 467 
f 466 530 531 
f 467 532 468 
f 467 531 532 
f 468 533 469 
f 468 532 533 
f 469 534 470 
f 469 533 534 
f 470 535 471 
f 470 534 535 
f 471 536 472 
f 471 535 536 
f 472 537 473 
f 472 536 537 
f 473 538 474 
f 473 537 538 
f 474 539 475 
f 474 538 539 
f 475 540 476 
f 475 539 540 
f 476 541 477 
f 476 540 541 
f 477 542 478 
f 477 541 542 
f 478 543 479 
f 478 542 543 
f 479 544 480 
f 479 543 544 
f 480 545 481 
f 480 544 545 
f 481 546 482 
f 481 545 546 
f 482 547 483 
f 482 546 547 
f 483 548 484 
f 483 547 548 
f 484 549 485 
f 484 548 549 
f 485 550 486 
f 485 549 550 
f 486 551 487 
f 486 550 551 
f 487 552 488 
f 487 551 552 
f 488 553 489 
f 488 552 553 
f 489 554 490 
f 489 553 554 
f 490 555 491 
f 490 554 555 
f 491 556 492 
f 491 555 556 
f 492 557 493 
f 492 556 557 
f 493 558 494 
f 493 557 558 
f 494 559 495 
f 494 558 559 
f 495 560 496 
f 495 559 560 
f 496 561 497 
f 496 560 561 
f 497 562 498 
f 497 561 562 
f 498 563 499 
f 498 562 563 
f 499 564 500 
f 499 563 564 
f 500 565 501 
f 500 564 565 
f 501 566 502 
f 501 565 566 
f 502 567 503 
f 502 566 567 
f 503 568 504 
f 503 567 568 
f 504 569 505 
f 504 568 569 
f 505 570 506 
f 505 569 570 
f 506 571 507 
f 506 570 571 
f 507 572 508 
f 507 571 572 
f 508 573 509 
f 508 572 573 
f 509 574 510 
f 509 573 574 
f 510 575 511 
f 510 574 575 
f 511 576 512 
f 511 575 576 
f 512 513 449 
f 512 576 513 
f 513 578 514 
f 513 577 578 
f 514 579 515 
f 514 578 579 
f 515 580 516 
f 515 579 580 
f 516 581 517 
f 516 580 581 
f 517 582 518 
f 517 581 582 
f 518 583 519 
f 518 582 583 
f 519 584 520 
f 519 583 584 
f 520 585 521 
f 520 584 585 
f 521 586 522 
f 521 585 586 
f 522 587 523 
f 522 586 587 
f 523 588 524 
f 523 587 588 
f 524 589 525 
f 524 588 589 
f 525 590 526 
f 525 589 590 
f 526 591 527 
f 526 590 591 
f 527 592 528 
f 527 591 592 
f 528 593 529 
f 528 592 593 
f 529 594 530 
f 529 593 594 
f 530 595 531 
f 530 594 595 
f 531 596 532 
f 531 595 596 
f 532 597 533 
f 532 596 597 
f 533 598 534 
f 533 597 598 
f 534 599 535 
f 534 598 599 
f 535 600 536 
f 535 599 600 
f 536 601 537 
f 536 600 601 
f 537 602 538 
f 537 601 602 
f 538 603 539 
f 538 602 603 
f 539 604 540 
f 539 603 604 
f 540 605 541 
f 540 604 605 
f 541 606 542 
f 541 605 606 
f 542 607 543 
f 542 606 607 
f 543 608 544 
f 543 607 608 
f 544 609 545 
f 544 608 609 
f 545 610 546 
f 545 609 610 
f 546 611 547 
f 546 610 611 
f 547 612 548 
f 547 611 612 
f 548 613 549 
f 548 612 613 
f 549 614 550 
f 549 613 614 
f 550 615 551 
f 550 614 615 
f 551 616 552 
f 551 615 616 
f 552 617 553 
f 552 616 617 
f 553 618 554 
f 553 617 618 
f 554 619 555 
f 554 618 619 
f 555 620 556 
f 555 619 620 
f 556 621 557 
f 556 620 621 
f 557 622 558 
f 557 621 622 
f 558 623 559 
f 558 622 623 
f 559 624 560 
f 559 623 624 
f 560 625 561 
f 560 624 625 
f 561 626 562 
f 561 625 626 
f 562 627 563 
f 562 626 627 
f 563 628 564 
f 563 627 628 
f 564 629 565 
f 564 628 629 
f 565 630 566 
f 565 629 630 
f 566 631 567 
f 566 630 631 
f 567 632 568 
f 567 631 632 
f 568 633 569 
f 568 632 633 
f 569 634 570 
f 569 633 634 
f 570 635 571 
f 570 634 635 
f 571 636 572 
f 571 635 636 
f 572 637 573 
f 572 636 637 
f 573 638 574 
f 573 637 638 
f 574 639 575 
f 574 638 639 
f 575 640 576 
f 575 639 640 
f 576 577 513 
f 576 640 577 
