# Branch
v -13.6522 -0.414901 -32.7852
vn -0.491149 0.418452 0.763983
v -13.6408 -0.390136 -32.7932
vn -0.451526 0.503879 0.736363
v -13.628 -0.366777 -32.8033
vn -0.407555 0.584453 0.701651
v -13.6141 -0.345051 -32.8153
vn -0.359659 0.659398 0.660182
v -13.5992 -0.325165 -32.8291
vn -0.308299 0.727993 0.612354
v -13.5835 -0.307312 -32.8447
vn -0.25397 0.789577 0.55863
v -13.567 -0.291663 -32.8619
vn -0.197195 0.843557 0.499525
v -13.55 -0.278369 -32.8804
vn -0.138521 0.889413 0.43561
v -13.5326 -0.267559 -32.9001
vn -0.0785134 0.926704 0.3675
v -13.515 -0.259335 -32.9209
vn -0.0177494 0.955069 0.29585
v -13.4973 -0.253779 -32.9425
vn 0.0431857 0.974237 0.221352
v -13.4798 -0.250942 -32.9647
vn 0.103705 0.984023 0.144721
v -13.4625 -0.250852 -32.9873
vn 0.163225 0.984332 0.0666971
v -13.4457 -0.253511 -33.0101
vn 0.221174 0.975161 -0.0119694
v -13.4296 -0.258892 -33.0329
vn 0.276992 0.956599 -0.0905207
v -13.4142 -0.266944 -33.0554
vn 0.330143 0.928824 -0.1682
v -13.3997 -0.277589 -33.0775
vn 0.380114 0.892104 -0.24426
v -13.3862 -0.290725 -33.0988
vn 0.426425 0.846793 -0.317967
v -13.374 -0.306225 -33.1193
vn 0.468629 0.793327 -0.388612
v -13.3631 -0.323939 -33.1387
vn 0.50632 0.73222 -0.455515
v -13.3536 -0.343699 -33.1568
vn 0.539134 0.664062 -0.51803
v -13.3456 -0.365312 -33.1735
vn 0.566757 0.589509 -0.575557
v -13.3391 -0.388571 -33.1886
vn 0.588921 0.509278 -0.627541
v -13.3344 -0.413251 -33.2019
vn 0.605414 0.424143 -0.673481
v -13.3313 -0.439116 -33.2133
vn 0.616076 0.334923 -0.712935
v -13.3299 -0.465916 -33.2228
vn 0.620805 0.242477 -0.745524
v -13.3303 -0.493393 -33.2302
vn 0.619556 0.147696 -0.770932
v -13.3323 -0.521283 -33.2354
vn 0.612339 0.0514932 -0.788916
v -13.3361 -0.549316 -33.2384
vn 0.599226 -0.0452059 -0.799303
v -13.3416 -0.577223 -33.2392
vn 0.580342 -0.14147 -0.801991
v -13.3487 -0.604735 -33.2377
vn 0.555868 -0.236371 -0.796956
v -13.3574 -0.631587 -33.234
vn 0.526042 -0.328996 -0.784246
v -13.3675 -0.65752 -33.2281
vn 0.491149 -0.418452 -0.763983
v -13.379 -0.682285 -33.2201
vn 0.451526 -0.503879 -0.736363
v -13.3917 -0.705644 -33.2101
vn 0.407555 -0.584453 -0.701651
v -13.4056 -0.72737 -33.1981
vn 0.359659 -0.659398 -0.660182
v -13.4205 -0.747256 -33.1842
vn 0.308299 -0.727993 -0.612354
v -13.4362 -0.765109 -33.1686
vn 0.25397 -0.789577 -0.55863
v -13.4527 -0.780758 -33.1515
vn 0.197195 -0.843557 -0.499525
v -13.4697 -0.794052 -33.133
vn 0.138521 -0.889413 -0.43561
v -13.4871 -0.804862 -33.1132
vn 0.0785134 -0.926704 -0.3675
v -13.5047 -0.813086 -33.0924
vn 0.0177494 -0.955069 -0.29585
v -13.5224 -0.818642 -33.0708
vn -0.0431857 -0.974237 -0.221352
v -13.5399 -0.821479 -33.0486
vn -0.103705 -0.984023 -0.144721
v -13.5572 -0.821569 -33.026
vn -0.163225 -0.984332 -0.0666971
v -13.574 -0.81891 -33.0032
vn -0.221174 -0.975161 0.0119694
v -13.5902 -0.813529 -32.9804
vn -0.276992 -0.956599 0.0905207
v -13.6056 -0.805477 -32.9579
vn -0.330143 -0.928824 0.1682
v -13.6201 -0.794832 -32.9359
vn -0.380114 -0.892104 0.24426
v -13.6335 -0.781696 -32.9145
vn -0.426425 -0.846793 0.317967
v -13.6457 -0.766196 -32.894
vn -0.468629 -0.793327 0.388612
v -13.6566 -0.748482 -32.8746
vn -0.50632 -0.73222 0.455515
v -13.6662 -0.728722 -32.8565
vn -0.539134 -0.664062 0.51803
v -13.6742 -0.707109 -32.8398
vn -0.566757 -0.589509 0.575557
v -13.6806 -0.68385 -32.8247
vn -0.588921 -0.509278 0.627541
v -13.6854 -0.65917 -32.8114
vn -0.605414 -0.424143 0.673481
v -13.6885 -0.633305 -32.8
vn -0.616076 -0.334923 0.712935
v -13.6898 -0.606505 -32.7905
vn -0.620805 -0.242477 0.745524
v -13.6895 -0.579028 -32.7832
vn -0.619556 -0.147696 0.770932
v -13.6874 -0.551138 -32.778
vn -0.612339 -0.0514932 0.788916
v -13.6836 -0.523105 -32.7749
vn -0.599226 0.0452059 0.799303
v -13.6781 -0.495198 -32.7742
vn -0.580342 0.14147 0.801991
v -13.671 -0.467687 -32.7756
vn -0.555868 0.236371 0.796956
v -13.6624 -0.440835 -32.7793
vn -0.526042 0.328996 0.784246
v -12.68 -0.634247 -32.0734
vn -0.478685 0.415703 0.773338
v -12.6692 -0.610836 -32.0809
vn -0.439123 0.501143 0.745672
v -12.6572 -0.588747 -32.0905
vn -0.395331 0.581756 0.710826
v -12.6442 -0.568193 -32.1019
vn -0.347732 0.656767 0.669133
v -12.6302 -0.549373 -32.1151
vn -0.296784 0.725453 0.620997
v -12.6155 -0.532467 -32.1299
vn -0.242978 0.787152 0.56688
v -12.6001 -0.517638 -32.1463
vn -0.186832 0.841271 0.507304
v -12.5842 -0.505029 -32.1639
vn -0.128887 0.887288 0.442842
v -12.568 -0.494762 -32.1828
vn -0.0697002 0.924759 0.374115
v -12.5516 -0.486935 -32.2026
vn -0.00984243 0.953325 0.301785
v -12.5351 -0.481623 -32.2232
vn 0.0501102 0.97271 0.226549
v -12.5189 -0.478878 -32.2444
vn 0.10958 0.982727 0.149131
v -12.5028 -0.478727 -32.266
vn 0.167995 0.98328 0.070277
v -12.4873 -0.48117 -32.2878
vn 0.224792 0.974363 -0.00925388
v -12.4723 -0.486184 -32.3096
vn 0.279424 0.956063 -0.0886956
v -12.4581 -0.493722 -32.3311
vn 0.331365 0.928555 -0.167283
v -12.4447 -0.503709 -32.3522
vn 0.380114 0.892104 -0.24426
v -12.4324 -0.516051 -32.3726
vn 0.425203 0.847063 -0.318884
v -12.4211 -0.530628 -32.3922
vn 0.466197 0.793863 -0.390437
v -12.4111 -0.5473 -32.4108
vn 0.502702 0.733019 -0.45823
v -12.4025 -0.565906 -32.4282
vn 0.534365 0.665114 -0.52161
v -12.3952 -0.586268 -32.4442
vn 0.560881 0.590805 -0.579967
v -12.3894 -0.608188 -32.4586
vn 0.581997 0.510806 -0.632738
v -12.3852 -0.631456 -32.4714
vn 0.597507 0.425887 -0.679416
v -12.3825 -0.655848 -32.4824
vn 0.607263 0.336867 -0.71955
v -12.3814 -0.681129 -32.4915
vn 0.611171 0.244602 -0.752755
v -12.382 -0.707056 -32.4986
vn 0.609192 0.149982 -0.77871
v -12.3841 -0.733378 -32.5037
vn 0.601347 0.0539179 -0.797166
v -12.3878 -0.759843 -32.5066
vn 0.587711 -0.0426658 -0.807945
v -12.3931 -0.786195 -32.5075
vn 0.568415 -0.138839 -0.810943
v -12.3999 -0.812181 -32.5062
vn 0.543644 -0.233674 -0.806131
v -12.4081 -0.83755 -32.5027
vn 0.513638 -0.32626 -0.793556
v -12.4177 -0.862058 -32.4972
vn 0.478685 -0.415703 -0.773338
v -12.4286 -0.885469 -32.4896
vn 0.439123 -0.501143 -0.745672
v -12.4406 -0.907557 -32.48
vn 0.395331 -0.581756 -0.710826
v -12.4536 -0.928111 -32.4686
vn 0.347732 -0.656767 -0.669133
v -12.4676 -0.946931 -32.4554
vn 0.296784 -0.725453 -0.620997
v -12.4823 -0.963837 -32.4406
vn 0.242978 -0.787152 -0.56688
v -12.4977 -0.978666 -32.4243
vn 0.186832 -0.841271 -0.507304
v -12.5136 -0.991275 -32.4066
vn 0.128887 -0.887288 -0.442842
v -12.5298 -1.00154 -32.3878
vn 0.0697002 -0.924759 -0.374115
v -12.5462 -1.00937 -32.368
vn 0.00984243 -0.953325 -0.301785
v -12.5626 -1.01468 -32.3473
vn -0.0501102 -0.97271 -0.226549
v -12.5789 -1.01743 -32.3261
vn -0.10958 -0.982727 -0.149131
v -12.5949 -1.01758 -32.3045
vn -0.167995 -0.98328 -0.070277
v -12.6105 -1.01513 -32.2827
vn -0.224792 -0.974363 0.00925388
v -12.6254 -1.01012 -32.261
vn -0.279424 -0.956063 0.0886956
v -12.6397 -1.00258 -32.2394
vn -0.331365 -0.928555 0.167283
v -12.653 -0.992595 -32.2183
vn -0.380114 -0.892104 0.24426
v -12.6654 -0.980253 -32.1979
vn -0.425203 -0.847063 0.318884
v -12.6766 -0.965676 -32.1783
vn -0.466197 -0.793863 0.390437
v -12.6866 -0.949004 -32.1597
vn -0.502702 -0.733019 0.45823
v -12.6953 -0.930398 -32.1423
vn -0.534365 -0.665114 0.52161
v -12.7026 -0.910037 -32.1263
vn -0.560881 -0.590805 0.579967
v -12.7083 -0.888116 -32.1119
vn -0.581997 -0.510806 0.632738
v -12.7126 -0.864848 -32.0991
vn -0.597507 -0.425887 0.679416
v -12.7153 -0.840456 -32.0881
vn -0.607263 -0.336867 0.71955
v -12.7163 -0.815175 -32.079
vn -0.611171 -0.244602 0.752755
v -12.7158 -0.789248 -32.0719
vn -0.609192 -0.149982 0.77871
v -12.7136 -0.762926 -32.0668
vn -0.601347 -0.0539179 0.797166
v -12.7099 -0.736461 -32.0639
vn -0.587711 0.0426658 0.807945
v -12.7046 -0.710109 -32.0631
vn -0.568415 0.138839 0.810943
v -12.6978 -0.684124 -32.0644
vn -0.543644 0.233674 0.806131
v -12.6896 -0.658755 -32.0678
vn -0.513638 0.32626 0.793556
v -11.7226 -0.856335 -31.3946
vn -0.46545 0.4127 0.782966
v -11.7125 -0.834278 -31.4018
vn -0.425951 0.498154 0.755254
v -11.7012 -0.813459 -31.4108
vn -0.382349 0.578811 0.720269
v -11.689 -0.79408 -31.4216
vn -0.335066 0.653893 0.678347
v -11.676 -0.776325 -31.4341
vn -0.284556 0.722678 0.629892
v -11.6622 -0.760367 -31.4482
vn -0.231305 0.784504 0.575371
v -11.6479 -0.74636 -31.4637
vn -0.175827 0.838774 0.515309
v -11.6331 -0.734437 -31.4805
vn -0.118655 0.884966 0.450284
v -11.6181 -0.724714 -31.4984
vn -0.0603412 0.922636 0.380923
v -11.6029 -0.717284 -31.5172
vn -0.00144582 0.95142 0.307893
v -11.5877 -0.71222 -31.5368
vn 0.0574635 0.971041 0.231898
v -11.5726 -0.709569 -31.557
vn 0.115819 0.981311 0.15367
v -11.5578 -0.709357 -31.5776
vn 0.17306 0.98213 0.0739615
v -11.5435 -0.711587 -31.5984
vn 0.228634 0.973491 -0.00645899
v -11.5297 -0.716237 -31.6191
vn 0.282006 0.955477 -0.0868173
v -11.5166 -0.723262 -31.6396
vn 0.332662 0.92826 -0.16634
v -11.5044 -0.732594 -31.6597
vn 0.380114 0.892104 -0.24426
v -11.4931 -0.744144 -31.6793
vn 0.423906 0.847357 -0.319828
v -11.4828 -0.7578 -31.698
vn 0.463615 0.794449 -0.392315
v -11.4737 -0.773431 -31.7157
vn 0.49886 0.73389 -0.461025
v -11.4659 -0.790887 -31.7323
vn 0.5293 0.666264 -0.525295
v -11.4593 -0.809998 -31.7476
vn 0.554642 0.592221 -0.584506
v -11.4542 -0.830582 -31.7614
vn 0.574643 0.512474 -0.638087
v -11.4504 -0.852439 -31.7736
vn 0.58911 0.427792 -0.685524
v -11.4482 -0.87536 -31.7842
vn 0.597904 0.33899 -0.726358
v -11.4474 -0.899124 -31.7929
vn 0.600939 0.246924 -0.760198
v -11.4481 -0.923501 -31.7998
vn 0.598187 0.15248 -0.786716
v -11.4503 -0.948258 -31.8047
vn 0.589674 0.0565666 -0.805658
v -11.454 -0.973155 -31.8075
vn 0.575483 -0.0398911 -0.81684
v -11.4591 -0.997952 -31.8084
vn 0.555749 -0.135965 -0.820157
v -11.4655 -1.02241 -31.8072
vn 0.530663 -0.230729 -0.815574
v -11.4733 -1.0463 -31.804
vn 0.500466 -0.323271 -0.803137
v -11.4824 -1.06938 -31.7988
vn 0.46545 -0.4127 -0.782966
v -11.4926 -1.09144 -31.7916
vn 0.425951 -0.498154 -0.755254
v -11.5038 -1.11226 -31.7826
vn 0.382349 -0.578811 -0.720269
v -11.516 -1.13164 -31.7718
vn 0.335066 -0.653893 -0.678347
v -11.5291 -1.14939 -31.7593
vn 0.284556 -0.722678 -0.629892
v -11.5428 -1.16535 -31.7452
vn 0.231305 -0.784504 -0.575371
v -11.5571 -1.17936 -31.7297
vn 0.175827 -0.838774 -0.515309
v -11.5719 -1.19128 -31.7129
vn 0.118655 -0.884966 -0.450284
v -11.5869 -1.201 -31.695
vn 0.0603412 -0.922636 -0.380923
v -11.6021 -1.20843 -31.6762
vn 0.00144582 -0.95142 -0.307893
v -11.6173 -1.2135 -31.6566
vn -0.0574635 -0.971041 -0.231898
v -11.6324 -1.21615 -31.6364
vn -0.115819 -0.981311 -0.15367
v -11.6472 -1.21636 -31.6158
vn -0.17306 -0.98213 -0.0739615
v -11.6615 -1.21413 -31.595
vn -0.228634 -0.973491 0.00645899
v -11.6753 -1.20948 -31.5743
vn -0.282006 -0.955477 0.0868173
v -11.6884 -1.20245 -31.5538
vn -0.332662 -0.92826 0.16634
v -11.7006 -1.19312 -31.5337
vn -0.380114 -0.892104 0.24426
v -11.7119 -1.18157 -31.5141
vn -0.423906 -0.847357 0.319828
v -11.7222 -1.16792 -31.4954
vn -0.463615 -0.794449 0.392315
v -11.7313 -1.15228 -31.4777
vn -0.49886 -0.73389 0.461025
v -11.7391 -1.13483 -31.4611
vn -0.5293 -0.666264 0.525295
v -11.7457 -1.11572 -31.4458
vn -0.554642 -0.592221 0.584506
v -11.7508 -1.09513 -31.432
vn -0.574643 -0.512474 0.638087
v -11.7546 -1.07328 -31.4198
vn -0.58911 -0.427792 0.685524
v -11.7568 -1.05036 -31.4092
vn -0.597904 -0.33899 0.726358
v -11.7576 -1.02659 -31.4005
vn -0.600939 -0.246924 0.760198
v -11.7569 -1.00222 -31.3936
vn -0.598187 -0.15248 0.786716
v -11.7547 -0.977459 -31.3888
vn -0.589674 -0.0565666 0.805658
v -11.751 -0.952562 -31.3859
vn -0.575483 0.0398911 0.81684
v -11.746 -0.927764 -31.385
vn -0.555749 0.135965 0.820157
v -11.7395 -0.903304 -31.3862
vn -0.530663 0.230729 0.815574
v -11.7317 -0.879418 -31.3894
vn -0.500466 0.323271 0.803137
v -10.7801 -1.08116 -30.7489
vn -0.451382 0.409416 0.792864
v -10.7705 -1.06046 -30.7557
vn -0.411951 0.494886 0.765104
v -10.76 -1.04091 -30.7642
vn -0.368552 0.57559 0.729976
v -10.7487 -1.0227 -30.7744
vn -0.321605 0.650751 0.687818
v -10.7365 -1.00602 -30.7862
vn -0.271559 0.719644 0.639036
v -10.7238 -0.991008 -30.7995
vn -0.218899 0.781607 0.5841
v -10.7105 -0.977822 -30.8142
vn -0.16413 0.836043 0.523539
v -10.6969 -0.966587 -30.8301
vn -0.107781 0.882428 0.457935
v -10.683 -0.95741 -30.847
vn -0.0503941 0.920314 0.387922
v -10.6689 -0.95038 -30.8649
vn 0.00747843 0.949337 0.314172
v -10.6549 -0.945565 -30.8835
vn 0.0652789 0.969217 0.237397
v -10.6411 -0.943011 -30.9026
vn 0.122451 0.979763 0.158335
v -10.6275 -0.942742 -30.9221
vn 0.178443 0.980874 0.0777492
v -10.6144 -0.944761 -30.9418
vn 0.232717 0.972538 -0.00358583
v -10.6018 -0.949048 -30.9615
vn 0.28475 0.954836 -0.0848863
v -10.5898 -0.955564 -30.981
vn 0.334041 0.927938 -0.165369
v -10.5787 -0.964243 -31.0001
vn 0.380114 0.892104 -0.24426
v -10.5684 -0.975004 -31.0187
vn 0.422527 0.847679 -0.320798
v -10.5591 -0.987742 -31.0365
vn 0.460871 0.79509 -0.394246
v -10.5509 -1.00233 -31.0533
vn 0.494776 0.734844 -0.463898
v -10.5438 -1.01864 -31.0691
vn 0.523916 0.66752 -0.529082
v -10.538 -1.03651 -31.0837
vn 0.548011 0.593769 -0.589171
v -10.5335 -1.05576 -31.0969
vn 0.566828 0.514299 -0.643586
v -10.5302 -1.0762 -31.1085
vn 0.580186 0.429876 -0.691803
v -10.5283 -1.09766 -31.1186
vn 0.587957 0.341313 -0.733357
v -10.5278 -1.1199 -31.127
vn 0.590065 0.249462 -0.767849
v -10.5287 -1.14273 -31.1335
vn 0.586491 0.15521 -0.794946
v -10.5309 -1.16593 -31.1382
vn 0.577268 0.0594628 -0.814387
v -10.5345 -1.18926 -31.141
vn 0.562486 -0.0368572 -0.825985
v -10.5394 -1.2125 -31.1419
vn 0.542287 -0.132822 -0.829628
v -10.5456 -1.23544 -31.1409
vn 0.516866 -0.227508 -0.825282
v -10.5529 -1.25784 -31.1379
vn 0.486466 -0.320003 -0.812988
v -10.5614 -1.2795 -31.133
vn 0.451382 -0.409416 -0.792864
v -10.571 -1.3002 -31.1263
vn 0.411951 -0.494886 -0.765104
v -10.5815 -1.31975 -31.1178
vn 0.368552 -0.57559 -0.729976
v -10.5929 -1.33795 -31.1076
vn 0.321605 -0.650751 -0.687818
v -10.605 -1.35464 -31.0958
vn 0.271559 -0.719644 -0.639036
v -10.6177 -1.36965 -31.0825
vn 0.218899 -0.781607 -0.5841
v -10.631 -1.38283 -31.0678
vn 0.16413 -0.836043 -0.523539
v -10.6446 -1.39407 -31.0519
vn 0.107781 -0.882428 -0.457935
v -10.6585 -1.40325 -31.0349
vn 0.0503941 -0.920314 -0.387922
v -10.6726 -1.41028 -31.0171
vn -0.00747843 -0.949337 -0.314172
v -10.6866 -1.41509 -30.9985
vn -0.0652789 -0.969217 -0.237397
v -10.7004 -1.41765 -30.9793
vn -0.122451 -0.979763 -0.158335
v -10.714 -1.41792 -30.9598
vn -0.178443 -0.980874 -0.0777492
v -10.7271 -1.4159 -30.9401
vn -0.232717 -0.972538 0.00358583
v -10.7397 -1.41161 -30.9204
vn -0.28475 -0.954836 0.0848863
v -10.7517 -1.40509 -30.9009
vn -0.334041 -0.927938 0.165369
v -10.7628 -1.39641 -30.8818
vn -0.380114 -0.892104 0.24426
v -10.7731 -1.38565 -30.8633
vn -0.422527 -0.847679 0.320798
v -10.7824 -1.37291 -30.8455
vn -0.460871 -0.79509 0.394246
v -10.7906 -1.35832 -30.8286
vn -0.494776 -0.734844 0.463898
v -10.7977 -1.34201 -30.8128
vn -0.523916 -0.66752 0.529082
v -10.8035 -1.32415 -30.7983
vn -0.548011 -0.593769 0.589171
v -10.808 -1.3049 -30.7851
vn -0.566828 -0.514299 0.643586
v -10.8113 -1.28445 -30.7734
vn -0.580186 -0.429876 0.691803
v -10.8132 -1.263 -30.7633
vn -0.587957 -0.341313 0.733357
v -10.8137 -1.24075 -30.755
vn -0.590065 -0.249462 0.767849
v -10.8128 -1.21792 -30.7484
vn -0.586491 -0.15521 0.794946
v -10.8106 -1.19473 -30.7437
vn -0.577268 -0.0594628 0.814387
v -10.807 -1.1714 -30.7409
vn -0.562486 0.0368572 0.825985
v -10.8021 -1.14816 -30.74
vn -0.542287 0.132822 0.829628
v -10.7959 -1.12522 -30.7411
vn -0.516866 0.227508 0.825282
v -10.7886 -1.10282 -30.7441
vn -0.486466 0.320003 0.812988
v -9.85239 -1.30872 -30.1363
vn -0.436419 0.405822 0.803024
v -9.84348 -1.28937 -30.1426
vn -0.39706 0.491309 0.775215
v -9.83371 -1.27109 -30.1506
vn -0.353876 0.572065 0.739941
v -9.82316 -1.25406 -30.1602
vn -0.307285 0.647311 0.697541
v -9.81195 -1.23844 -30.1713
vn -0.257735 0.716324 0.648423
v -9.80017 -1.22438 -30.1839
vn -0.205702 0.778438 0.593061
v -9.78794 -1.21202 -30.1977
vn -0.151689 0.833055 0.531986
v -9.77539 -1.20148 -30.2127
vn -0.0962143 0.87965 0.465789
v -9.76262 -1.19285 -30.2287
vn -0.0398133 0.917772 0.395106
v -9.74977 -1.18622 -30.2455
vn 0.0169711 0.947057 0.320618
v -9.73696 -1.18166 -30.2631
vn 0.0735922 0.96722 0.243042
v -9.7243 -1.1792 -30.2812
vn 0.129504 0.978069 0.163125
v -9.71193 -1.17888 -30.2996
vn 0.18417 0.979498 0.0816373
v -9.69996 -1.18069 -30.3182
vn 0.237061 0.971495 -0.000636498
v -9.68851 -1.18462 -30.3369
vn 0.287669 0.954135 -0.0829042
v -9.67768 -1.19063 -30.3553
vn 0.335507 0.927586 -0.164373
v -9.66758 -1.19866 -30.3734
vn 0.380114 0.892104 -0.24426
v -9.65832 -1.20863 -30.3909
vn 0.42106 0.848031 -0.321794
v -9.64997 -1.22045 -30.4078
vn 0.457952 0.795791 -0.396229
v -9.64262 -1.23401 -30.4238
vn 0.490432 0.735887 -0.466848
v -9.63633 -1.24917 -30.4387
vn 0.51819 0.668896 -0.532971
v -9.63118 -1.26579 -30.4525
vn 0.540957 0.595463 -0.593961
v -9.62721 -1.28371 -30.465
vn 0.558515 0.516295 -0.649231
v -9.62445 -1.30276 -30.4761
vn 0.570693 0.432155 -0.698248
v -9.62294 -1.32274 -30.4857
vn 0.577376 0.343854 -0.740541
v -9.62268 -1.34347 -30.4937
vn 0.578498 0.252241 -0.775703
v -9.62369 -1.36476 -30.4999
vn 0.574049 0.158198 -0.803393
v -9.62595 -1.38639 -30.5044
vn 0.564072 0.0626323 -0.823347
v -9.62944 -1.40815 -30.5072
vn 0.548662 -0.0335368 -0.835371
v -9.63412 -1.42985 -30.5081
vn 0.527968 -0.129383 -0.839351
v -9.63995 -1.45126 -30.5071
vn 0.50219 -0.223983 -0.835247
v -9.64688 -1.47218 -30.5044
vn 0.471575 -0.316426 -0.823099
v -9.65484 -1.49241 -30.4998
vn 0.436419 -0.405822 -0.803024
v -9.66375 -1.51176 -30.4935
vn 0.39706 -0.491309 -0.775215
v -9.67352 -1.53004 -30.4856
vn 0.353876 -0.572065 -0.739941
v -9.68407 -1.54707 -30.476
vn 0.307285 -0.647311 -0.697541
v -9.69528 -1.56269 -30.4648
vn 0.257735 -0.716324 -0.648423
v -9.70706 -1.57674 -30.4523
vn 0.205702 -0.778438 -0.593061
v -9.71928 -1.58911 -30.4385
vn 0.151689 -0.833055 -0.531986
v -9.73184 -1.59965 -30.4235
vn 0.0962143 -0.87965 -0.465789
v -9.7446 -1.60828 -30.4075
vn 0.0398133 -0.917772 -0.395106
v -9.75745 -1.61491 -30.3907
vn -0.0169711 -0.947057 -0.320618
v -9.77027 -1.61947 -30.3731
vn -0.0735922 -0.96722 -0.243042
v -9.78292 -1.62193 -30.355
vn -0.129504 -0.978069 -0.163125
v -9.7953 -1.62225 -30.3366
vn -0.18417 -0.979498 -0.0816373
v -9.80727 -1.62044 -30.318
vn -0.237061 -0.971495 0.000636498
v -9.81872 -1.61651 -30.2993
vn -0.287669 -0.954135 0.0829042
v -9.82955 -1.6105 -30.2809
vn -0.335507 -0.927586 0.164373
v -9.83964 -1.60247 -30.2628
vn -0.380114 -0.892104 0.24426
v -9.84891 -1.59249 -30.2453
vn -0.42106 -0.848031 0.321794
v -9.85726 -1.58067 -30.2284
vn -0.457952 -0.795791 0.396229
v -9.86461 -1.56711 -30.2124
vn -0.490432 -0.735887 0.466848
v -9.87089 -1.55195 -30.1975
vn -0.51819 -0.668896 0.532971
v -9.87605 -1.53533 -30.1837
vn -0.540957 -0.595463 0.593961
v -9.88002 -1.51741 -30.1712
vn -0.558515 -0.516295 0.649231
v -9.88278 -1.49837 -30.1601
vn -0.570693 -0.432155 0.698248
v -9.88429 -1.47839 -30.1505
vn -0.577376 -0.343854 0.740541
v -9.88454 -1.45765 -30.1425
vn -0.578498 -0.252241 0.775703
v -9.88354 -1.43637 -30.1363
vn -0.574049 -0.158198 0.803393
v -9.88128 -1.41474 -30.1317
vn -0.564072 -0.0626323 0.823347
v -9.87779 -1.39297 -30.129
vn -0.548662 0.0335368 0.835371
v -9.87311 -1.37128 -30.1281
vn -0.527968 0.129383 0.839351
v -9.86727 -1.34987 -30.1291
vn -0.50219 0.223983 0.835247
v -9.86034 -1.32895 -30.1318
vn -0.471575 0.316426 0.823099
v -8.93957 -1.53899 -29.5569
vn -0.42049 0.401885 0.813435
v -8.93131 -1.521 -29.5627
vn -0.381208 0.487392 0.785576
v -8.92227 -1.50399 -29.5702
vn -0.338254 0.568204 0.750152
v -8.91254 -1.48814 -29.5792
vn -0.292043 0.643545 0.707504
v -8.90223 -1.47359 -29.5896
vn -0.243019 0.712687 0.658042
v -8.89142 -1.46048 -29.6013
vn -0.191655 0.774966 0.602242
v -8.88022 -1.44895 -29.6143
vn -0.138445 0.829782 0.540643
v -8.86875 -1.4391 -29.6283
vn -0.0839013 0.876607 0.473837
v -8.8571 -1.43102 -29.6434
vn -0.02855 0.914989 0.402468
v -8.84539 -1.4248 -29.6592
vn 0.0270762 0.944559 0.327222
v -8.83374 -1.42049 -29.6757
vn 0.0824417 0.965033 0.248826
v -8.82226 -1.41814 -29.6927
vn 0.137013 0.976213 0.168033
v -8.81105 -1.41776 -29.71
vn 0.190265 0.977992 0.0856214
v -8.80023 -1.41937 -29.7275
vn 0.241685 0.970352 0.00238565
v -8.7899 -1.42294 -29.7451
vn 0.290777 0.953367 -0.0808731
v -8.78016 -1.42845 -29.7624
vn 0.337069 0.9272 -0.163353
v -8.7711 -1.43583 -29.7795
vn 0.380114 0.892104 -0.24426
v -8.76281 -1.44503 -29.796
vn 0.419499 0.848417 -0.322814
v -8.75538 -1.45594 -29.8119
vn 0.454844 0.796559 -0.39826
v -8.74886 -1.46847 -29.8269
vn 0.485808 0.73703 -0.46987
v -8.74333 -1.48249 -29.841
vn 0.512094 0.670402 -0.536955
v -8.73883 -1.49787 -29.8541
vn 0.533448 0.597318 -0.598868
v -8.73542 -1.51446 -29.8659
vn 0.549665 0.518482 -0.655015
v -8.73312 -1.5321 -29.8764
vn 0.560588 0.434653 -0.704853
v -8.73196 -1.55062 -29.8854
vn 0.566113 0.346637 -0.747903
v -8.73195 -1.56984 -29.893
vn 0.566185 0.255284 -0.78375
v -8.73308 -1.58958 -29.8989
vn 0.560805 0.161471 -0.81205
v -8.73535 -1.60965 -29.9032
vn 0.550024 0.0661039 -0.832529
v -8.73873 -1.62985 -29.9059
vn 0.533946 -0.0299 -0.84499
v -8.7432 -1.65 -29.9068
vn 0.512725 -0.125616 -0.849314
v -8.7487 -1.66988 -29.906
vn 0.486567 -0.220122 -0.845458
v -8.75519 -1.68932 -29.9034
vn 0.455723 -0.312509 -0.83346
v -8.7626 -1.70813 -29.8992
vn 0.42049 -0.401885 -0.813435
v -8.77087 -1.72613 -29.8934
vn 0.381208 -0.487392 -0.785576
v -8.77991 -1.74313 -29.8859
vn 0.338254 -0.568204 -0.750152
v -8.78963 -1.75898 -29.8769
vn 0.292043 -0.643545 -0.707504
v -8.79995 -1.77353 -29.8665
vn 0.243019 -0.712687 -0.658042
v -8.81076 -1.78664 -29.8548
vn 0.191655 -0.774966 -0.602242
v -8.82196 -1.79818 -29.8418
vn 0.138445 -0.829782 -0.540643
v -8.83343 -1.80803 -29.8278
vn 0.0839013 -0.876607 -0.473837
v -8.84508 -1.81611 -29.8127
vn 0.02855 -0.914989 -0.402468
v -8.85679 -1.82233 -29.7969
vn -0.0270762 -0.944559 -0.327222
v -8.86844 -1.82664 -29.7804
vn -0.0824417 -0.965033 -0.248826
v -8.87992 -1.82899 -29.7634
vn -0.137013 -0.976213 -0.168033
v -8.89113 -1.82936 -29.7461
vn -0.190265 -0.977992 -0.0856214
v -8.90195 -1.82776 -29.7286
vn -0.241685 -0.970352 -0.00238565
v -8.91228 -1.82418 -29.711
vn -0.290777 -0.953367 0.0808731
v -8.92202 -1.81868 -29.6937
vn -0.337069 -0.9272 0.163353
v -8.93108 -1.81129 -29.6767
vn -0.380114 -0.892104 0.24426
v -8.93937 -1.8021 -29.6601
vn -0.419499 -0.848417 0.322814
v -8.9468 -1.79118 -29.6442
vn -0.454844 -0.796559 0.39826
v -8.95332 -1.77866 -29.6292
vn -0.485808 -0.73703 0.46987
v -8.95885 -1.76464 -29.6151
vn -0.512094 -0.670402 0.536955
v -8.96334 -1.74926 -29.602
vn -0.533448 -0.597318 0.598868
v -8.96676 -1.73267 -29.5902
vn -0.549665 -0.518482 0.655015
v -8.96906 -1.71503 -29.5797
vn -0.560588 -0.434653 0.704853
v -8.97022 -1.69651 -29.5707
vn -0.566113 -0.346637 0.747903
v -8.97023 -1.67728 -29.5631
vn -0.566185 -0.255284 0.78375
v -8.9691 -1.65754 -29.5572
vn -0.560805 -0.161471 0.81205
v -8.96683 -1.63747 -29.5529
vn -0.550024 -0.0661039 0.832529
v -8.96345 -1.61727 -29.5502
vn -0.533946 0.0299 0.84499
v -8.95898 -1.59713 -29.5493
vn -0.512725 0.125616 0.849314
v -8.95348 -1.57724 -29.5501
vn -0.486567 0.220122 0.845458
v -8.94699 -1.5578 -29.5527
vn -0.455723 0.312509 0.83346
v -8.04168 -1.77198 -29.0105
vn -0.403522 0.39757 0.82408
v -8.03406 -1.75534 -29.016
vn -0.364322 0.483097 0.79617
v -8.02575 -1.73961 -29.0229
vn -0.321612 0.563972 0.760593
v -8.01684 -1.72493 -29.0312
vn -0.275805 0.639415 0.71769
v -8.00741 -1.71146 -29.0409
vn -0.227343 0.708701 0.667876
v -7.99755 -1.6993 -29.0519
vn -0.17669 0.771161 0.61163
v -7.98737 -1.6886 -29.064
vn -0.124336 0.826194 0.549494
v -7.97695 -1.67944 -29.0771
vn -0.070785 0.873271 0.482066
v -7.9664 -1.67192 -29.0911
vn -0.016552 0.911938 0.409995
v -7.95582 -1.6661 -29.1059
vn 0.0378404 0.941822 0.333975
v -7.94531 -1.66206 -29.1213
vn 0.0918685 0.962636 0.25474
v -7.93497 -1.65981 -29.1372
vn 0.145012 0.974179 0.173051
v -7.9249 -1.65939 -29.1534
vn 0.196758 0.976341 0.0896951
v -7.91521 -1.6608 -29.1698
vn 0.24661 0.969099 0.00547575
v -7.90597 -1.66402 -29.1862
vn 0.294087 0.952525 -0.0787964
v -7.89728 -1.66903 -29.2024
vn 0.338732 0.926777 -0.16231
v -7.88923 -1.67578 -29.2184
vn 0.380114 0.892104 -0.24426
v -7.8819 -1.68419 -29.2339
vn 0.417836 0.84884 -0.323858
v -7.87534 -1.6942 -29.2487
vn 0.451534 0.797401 -0.400336
v -7.86963 -1.7057 -29.2629
vn 0.480883 0.738282 -0.47296
v -7.86482 -1.71858 -29.2761
vn 0.505601 0.672054 -0.541028
v -7.86096 -1.73273 -29.2883
vn 0.52545 0.599353 -0.603886
v -7.85808 -1.74799 -29.2994
vn 0.540238 0.52088 -0.660929
v -7.85622 -1.76424 -29.3093
vn 0.549824 0.43739 -0.711606
v -7.85538 -1.7813 -29.3178
vn 0.554115 0.349689 -0.75543
v -7.85559 -1.79901 -29.3249
vn 0.553069 0.258619 -0.791979
v -7.85683 -1.81721 -29.3305
vn 0.546697 0.165059 -0.820901
v -7.85909 -1.83573 -29.3346
vn 0.535059 0.0699095 -0.841917
v -7.86236 -1.85437 -29.3371
vn 0.518269 -0.0259134 -0.854825
v -7.86659 -1.87296 -29.3381
vn 0.496488 -0.121487 -0.8595
v -7.87176 -1.89132 -29.3374
vn 0.469925 -0.21589 -0.855898
v -7.87781 -1.90928 -29.335
vn 0.438837 -0.308214 -0.844053
v -7.88468 -1.92667 -29.3312
vn 0.403522 -0.39757 -0.82408
v -7.89231 -1.94331 -29.3257
vn 0.364322 -0.483097 -0.79617
v -7.90061 -1.95904 -29.3188
vn 0.321612 -0.563972 -0.760593
v -7.90953 -1.97372 -29.3105
vn 0.275805 -0.639415 -0.71769
v -7.91895 -1.9872 -29.3008
vn 0.227343 -0.708701 -0.667876
v -7.92881 -1.99935 -29.2898
vn 0.17669 -0.771161 -0.61163
v -7.93899 -2.01005 -29.2777
vn 0.124336 -0.826194 -0.549494
v -7.94941 -2.01921 -29.2646
vn 0.070785 -0.873271 -0.482066
v -7.95996 -2.02673 -29.2506
vn 0.016552 -0.911938 -0.409995
v -7.97054 -2.03255 -29.2358
vn -0.0378404 -0.941822 -0.333975
v -7.98105 -2.0366 -29.2204
vn -0.0918685 -0.962636 -0.25474
v -7.99139 -2.03884 -29.2045
vn -0.145012 -0.974179 -0.173051
v -8.00146 -2.03926 -29.1883
vn -0.196758 -0.976341 -0.0896951
v -8.01116 -2.03785 -29.1719
vn -0.24661 -0.969099 -0.00547575
v -8.02039 -2.03463 -29.1555
vn -0.294087 -0.952525 0.0787964
v -8.02908 -2.02962 -29.1393
vn -0.338732 -0.926777 0.16231
v -8.03713 -2.02287 -29.1233
vn -0.380114 -0.892104 0.24426
v -8.04447 -2.01446 -29.1078
vn -0.417836 -0.84884 0.323858
v -8.05102 -2.00445 -29.093
vn -0.451534 -0.797401 0.400336
v -8.05673 -1.99295 -29.0788
vn -0.480883 -0.738282 0.47296
v -8.06154 -1.98007 -29.0656
vn -0.505601 -0.672054 0.541028
v -8.0654 -1.96592 -29.0534
vn -0.52545 -0.599353 0.603886
v -8.06828 -1.95066 -29.0423
vn -0.540238 -0.52088 0.660929
v -8.07014 -1.93441 -29.0324
vn -0.549824 -0.43739 0.711606
v -8.07098 -1.91735 -29.0239
vn -0.554115 -0.349689 0.75543
v -8.07077 -1.89964 -29.0168
vn -0.553069 -0.258619 0.791979
v -8.06953 -1.88144 -29.0112
vn -0.546697 -0.165059 0.820901
v -8.06727 -1.86293 -29.0071
vn -0.535059 -0.0699095 0.841917
v -8.064 -1.84428 -29.0046
vn -0.518269 0.0259134 0.854825
v -8.05977 -1.82569 -29.0036
vn -0.496488 0.121487 0.8595
v -8.0546 -1.80733 -29.0043
vn -0.469925 0.21589 0.855898
v -8.04855 -1.78937 -29.0066
vn -0.438837 0.308214 0.844053
v -7.15874 -2.00767 -28.4973
vn -0.385437 0.392837 0.834936
v -7.15176 -1.99239 -28.5023
vn -0.346323 0.478386 0.806974
v -7.14417 -1.97793 -28.5087
vn -0.303874 0.559329 0.77124
v -7.13607 -1.96443 -28.5164
vn -0.258499 0.634885 0.728079
v -7.12752 -1.95203 -28.5254
vn -0.210634 0.704327 0.677906
v -7.1186 -1.94083 -28.5355
vn -0.16074 0.766986 0.621204
v -7.10941 -1.93096 -28.5467
vn -0.109299 0.822258 0.55852
v -7.10004 -1.9225 -28.5589
vn -0.0568047 0.869612 0.490457
v -7.09056 -1.91554 -28.5719
vn -0.00376361 0.908591 0.417671
v -7.08108 -1.91014 -28.5856
vn 0.0493138 0.938819 0.340862
v -7.07168 -1.90635 -28.5999
vn 0.101916 0.960006 0.260771
v -7.06246 -1.90422 -28.6147
vn 0.153537 0.971948 0.178168
v -7.0535 -1.90376 -28.6297
vn 0.203679 0.974529 0.0938495
v -7.04489 -1.90497 -28.6449
vn 0.25186 0.967725 0.00862707
v -7.03672 -1.90785 -28.6602
vn 0.297615 0.951602 -0.0766785
v -7.02906 -1.91237 -28.6753
vn 0.340504 0.926313 -0.161246
v -7.02198 -1.91848 -28.6901
vn 0.380114 0.892104 -0.24426
v -7.01556 -1.92613 -28.7045
vn 0.416063 0.849304 -0.324922
v -7.00985 -1.93524 -28.7184
vn 0.448005 0.798324 -0.402454
v -7.00492 -1.94572 -28.7315
vn 0.475633 0.739656 -0.476111
v -7.0008 -1.95747 -28.7439
vn 0.49868 0.673865 -0.545183
v -6.99754 -1.97038 -28.7553
vn 0.516924 0.601584 -0.609004
v -6.99517 -1.98433 -28.7656
vn 0.530191 0.523509 -0.66696
v -6.99371 -1.99918 -28.7748
vn 0.538351 0.440393 -0.718493
v -6.99318 -2.01478 -28.7828
vn 0.541326 0.353036 -0.763107
v -6.99358 -2.031 -28.7895
vn 0.539089 0.262278 -0.800371
v -6.99491 -2.04766 -28.7947
vn 0.531659 0.168995 -0.829927
v -6.99715 -2.06462 -28.7986
vn 0.519109 0.0740842 -0.851491
v -7.00029 -2.0817 -28.801
vn 0.501561 -0.0215401 -0.864854
v -7.00428 -2.09875 -28.8019
vn 0.479181 -0.116957 -0.869889
v -7.00911 -2.11559 -28.8013
vn 0.452187 -0.211247 -0.866546
v -7.01471 -2.13207 -28.7992
vn 0.420839 -0.303503 -0.854857
v -7.02103 -2.14803 -28.7956
vn 0.385437 -0.392837 -0.834936
v -7.02802 -2.16331 -28.7906
vn 0.346323 -0.478386 -0.806974
v -7.0356 -2.17777 -28.7843
vn 0.303874 -0.559329 -0.77124
v -7.04371 -2.19127 -28.7766
vn 0.258499 -0.634885 -0.728079
v -7.05226 -2.20368 -28.7676
vn 0.210634 -0.704327 -0.677906
v -7.06117 -2.21487 -28.7575
vn 0.16074 -0.766986 -0.621204
v -7.07036 -2.22475 -28.7463
vn 0.109299 -0.822258 -0.55852
v -7.07974 -2.2332 -28.7341
vn 0.0568047 -0.869612 -0.490457
v -7.08921 -2.24017 -28.7211
vn 0.00376361 -0.908591 -0.417671
v -7.0987 -2.24557 -28.7074
vn -0.0493138 -0.938819 -0.340862
v -7.10809 -2.24935 -28.6931
vn -0.101916 -0.960006 -0.260771
v -7.11732 -2.25149 -28.6783
vn -0.153537 -0.971948 -0.178168
v -7.12627 -2.25195 -28.6633
vn -0.203679 -0.974529 -0.0938495
v -7.13488 -2.25073 -28.648
vn -0.25186 -0.967725 -0.00862707
v -7.14305 -2.24785 -28.6328
vn -0.297615 -0.951602 0.0766785
v -7.15072 -2.24333 -28.6177
vn -0.340504 -0.926313 0.161246
v -7.15779 -2.23722 -28.6028
vn -0.380114 -0.892104 0.24426
v -7.16421 -2.22958 -28.5884
vn -0.416063 -0.849304 0.324922
v -7.16992 -2.22047 -28.5746
vn -0.448005 -0.798324 0.402454
v -7.17486 -2.20999 -28.5614
vn -0.475633 -0.739656 0.476111
v -7.17897 -2.19824 -28.5491
vn -0.49868 -0.673865 0.545183
v -7.18223 -2.18532 -28.5377
vn -0.516924 -0.601584 0.609004
v -7.1846 -2.17138 -28.5273
vn -0.530191 -0.523509 0.66696
v -7.18606 -2.15653 -28.5181
vn -0.538351 -0.440393 0.718493
v -7.18659 -2.14092 -28.5102
vn -0.541326 -0.353036 0.763107
v -7.18619 -2.12471 -28.5035
vn -0.539089 -0.262278 0.800371
v -7.18487 -2.10804 -28.4982
vn -0.531659 -0.168995 0.829927
v -7.18262 -2.09109 -28.4944
vn -0.519109 -0.0740842 0.851491
v -7.17949 -2.074 -28.492
vn -0.501561 0.0215401 0.864854
v -7.17549 -2.05696 -28.4911
vn -0.479181 0.116957 0.869889
v -7.17067 -2.04011 -28.4917
vn -0.452187 0.211247 0.866546
v -7.16507 -2.02363 -28.4938
vn -0.420839 0.303503 0.854857
v -6.2908 -2.24606 -28.0173
vn -0.36615 0.387641 0.845972
v -6.28445 -2.23213 -28.0218
vn -0.32713 0.473216 0.817957
v -6.27759 -2.21894 -28.0277
vn -0.284958 0.554233 0.782064
v -6.27028 -2.20663 -28.0347
vn -0.240043 0.629913 0.73864
v -6.26259 -2.1953 -28.043
vn -0.192815 0.699527 0.688102
v -6.2546 -2.18506 -28.0523
vn -0.143731 0.762404 0.630937
v -6.24639 -2.17602 -28.0626
vn -0.0932628 0.817938 0.567697
v -6.23803 -2.16827 -28.0738
vn -0.0418962 0.865595 0.498988
v -6.2296 -2.16187 -28.0857
vn 0.00987389 0.904916 0.425475
v -6.22119 -2.15689 -28.0983
vn 0.0615489 0.935523 0.347864
v -6.21288 -2.15337 -28.1115
vn 0.112631 0.957119 0.266902
v -6.20474 -2.15136 -28.1251
vn 0.162629 0.969498 0.183371
v -6.19686 -2.15086 -28.139
vn 0.21106 0.972541 0.0980729
v -6.18931 -2.15189 -28.153
vn 0.257459 0.966217 0.0118307
v -6.18216 -2.15444 -28.1671
vn 0.301378 0.950588 -0.0745254
v -6.17548 -2.15847 -28.181
vn 0.342395 0.925804 -0.160164
v -6.16934 -2.16395 -28.1947
vn 0.380114 0.892104 -0.24426
v -6.1638 -2.17084 -28.208
vn 0.414173 0.849813 -0.326003
v -6.15891 -2.17905 -28.2208
vn 0.444243 0.799338 -0.404607
v -6.15471 -2.18852 -28.233
vn 0.470035 0.741165 -0.479315
v -6.15125 -2.19915 -28.2444
vn 0.491299 0.675853 -0.549406
v -6.14856 -2.21084 -28.2549
vn 0.507833 0.604033 -0.614206
v -6.14666 -2.22347 -28.2645
vn 0.519476 0.526396 -0.673091
v -6.14558 -2.23693 -28.273
vn 0.526116 0.443689 -0.725494
v -6.14533 -2.25109 -28.2804
vn 0.527689 0.35671 -0.77091
v -6.1459 -2.26581 -28.2866
vn 0.52418 0.266295 -0.808902
v -6.14729 -2.28094 -28.2915
vn 0.515623 0.173315 -0.839103
v -6.14949 -2.29634 -28.2951
vn 0.5021 0.0786666 -0.861224
v -6.15248 -2.31187 -28.2974
vn 0.483742 -0.0167396 -0.87505
v -6.15623 -2.32737 -28.2983
vn 0.460725 -0.111985 -0.88045
v -6.16069 -2.3427 -28.2978
vn 0.433272 -0.206151 -0.87737
v -6.16584 -2.3577 -28.2959
vn 0.401645 -0.298332 -0.86584
v -6.17162 -2.37223 -28.2926
vn 0.36615 -0.387641 -0.845972
v -6.17797 -2.38616 -28.2881
vn 0.32713 -0.473216 -0.817957
v -6.18483 -2.39935 -28.2822
vn 0.284958 -0.554233 -0.782064
v -6.19214 -2.41166 -28.2752
vn 0.240043 -0.629913 -0.73864
v -6.19983 -2.42299 -28.267
vn 0.192815 -0.699527 -0.688102
v -6.20782 -2.43323 -28.2576
vn 0.143731 -0.762404 -0.630937
v -6.21603 -2.44227 -28.2474
vn 0.0932628 -0.817938 -0.567697
v -6.22439 -2.45002 -28.2362
vn 0.0418962 -0.865595 -0.498988
v -6.23282 -2.45642 -28.2242
vn -0.00987389 -0.904916 -0.425475
v -6.24123 -2.4614 -28.2116
vn -0.0615489 -0.935523 -0.347864
v -6.24954 -2.46492 -28.1984
vn -0.112631 -0.957119 -0.266902
v -6.25768 -2.46693 -28.1848
vn -0.162629 -0.969498 -0.183371
v -6.26556 -2.46743 -28.1709
vn -0.21106 -0.972541 -0.0980729
v -6.27311 -2.4664 -28.1569
vn -0.257459 -0.966217 -0.0118307
v -6.28026 -2.46385 -28.1428
vn -0.301378 -0.950588 0.0745254
v -6.28693 -2.45982 -28.1289
vn -0.342395 -0.925804 0.160164
v -6.29307 -2.45434 -28.1152
vn -0.380114 -0.892104 0.24426
v -6.29862 -2.44745 -28.1019
vn -0.414173 -0.849813 0.326003
v -6.30351 -2.43924 -28.0891
vn -0.444243 -0.799338 0.404607
v -6.30771 -2.42977 -28.077
vn -0.470035 -0.741165 0.479315
v -6.31117 -2.41914 -28.0655
vn -0.491299 -0.675853 0.549406
v -6.31386 -2.40745 -28.055
vn -0.507833 -0.604033 0.614206
v -6.31575 -2.39482 -28.0454
vn -0.519476 -0.526396 0.673091
v -6.31683 -2.38136 -28.0369
vn -0.526116 -0.443689 0.725494
v -6.31709 -2.3672 -28.0295
vn -0.527689 -0.35671 0.77091
v -6.31652 -2.35248 -28.0233
vn -0.52418 -0.266295 0.808902
v -6.31513 -2.33735 -28.0184
vn -0.515623 -0.173315 0.839103
v -6.31293 -2.32195 -28.0148
vn -0.5021 -0.0786666 0.861224
v -6.30994 -2.30642 -28.0125
vn -0.483742 0.0167396 0.87505
v -6.30619 -2.29092 -28.0117
vn -0.460725 0.111985 0.88045
v -6.30172 -2.27559 -28.0122
vn -0.433272 0.206151 0.87737
v -6.29658 -2.26059 -28.014
vn -0.401645 0.298332 0.86584
v -5.4379 -2.48711 -27.5704
vn -0.345576 0.381934 0.857148
v -5.43218 -2.47454 -27.5745
vn -0.306654 0.467537 0.829079
v -5.42603 -2.46263 -27.5798
vn -0.264779 0.548636 0.793026
v -5.41951 -2.4515 -27.5862
vn -0.220354 0.624453 0.749335
v -5.41267 -2.44124 -27.5937
vn -0.173807 0.694255 0.698428
v -5.40559 -2.43198 -27.6022
vn -0.125586 0.757371 0.640794
v -5.39833 -2.42378 -27.6115
vn -0.0761559 0.813193 0.576989
v -5.39096 -2.41673 -27.6217
vn -0.0259921 0.861184 0.507628
v -5.38356 -2.4109 -27.6326
vn 0.0244221 0.900881 0.433378
v -5.37619 -2.40634 -27.6442
vn 0.0746011 0.931903 0.354954
v -5.36893 -2.40311 -27.6562
vn 0.124062 0.953949 0.273112
v -5.36184 -2.40122 -27.6686
vn 0.172327 0.966808 0.188639
v -5.35499 -2.4007 -27.6812
vn 0.218933 0.970357 0.10235
v -5.34846 -2.40155 -27.6941
vn 0.263431 0.96456 0.015075
v -5.3423 -2.40376 -27.7069
vn 0.305392 0.949475 -0.072345
v -5.33657 -2.40732 -27.7196
vn 0.344411 0.925245 -0.159068
v -5.33132 -2.41219 -27.7322
vn 0.380114 0.892104 -0.24426
v -5.32662 -2.41832 -27.7443
vn 0.412156 0.850373 -0.327099
v -5.32249 -2.42565 -27.756
vn 0.440229 0.800451 -0.406788
v -5.31899 -2.43411 -27.7671
vn 0.464062 0.742821 -0.482559
v -5.31615 -2.44363 -27.7776
vn 0.483426 0.678037 -0.553683
v -5.31399 -2.4541 -27.7873
vn 0.498134 0.606723 -0.619475
v -5.31254 -2.46543 -27.796
vn 0.508045 0.529566 -0.679301
v -5.3118 -2.47751 -27.8039
vn 0.513063 0.44731 -0.732585
v -5.31179 -2.49022 -27.8107
vn 0.513141 0.360745 -0.778813
v -5.3125 -2.50345 -27.8163
vn 0.508276 0.270706 -0.817541
v -5.31393 -2.51705 -27.8209
vn 0.498516 0.17806 -0.848396
v -5.31607 -2.53091 -27.8242
vn 0.483956 0.0836991 -0.871081
v -5.3189 -2.54489 -27.8263
vn 0.464734 -0.0114677 -0.885376
v -5.32238 -2.55885 -27.8272
vn 0.441037 -0.106524 -0.891145
v -5.32648 -2.57265 -27.8267
vn 0.413093 -0.200555 -0.888331
v -5.33117 -2.58618 -27.8251
vn 0.38117 -0.292654 -0.876963
v -5.3364 -2.59929 -27.8222
vn 0.345576 -0.381934 -0.857148
v -5.34211 -2.61186 -27.818
vn 0.306654 -0.467537 -0.829079
v -5.34826 -2.62377 -27.8127
vn 0.264779 -0.548636 -0.793026
v -5.35478 -2.63491 -27.8063
vn 0.220354 -0.624453 -0.749335
v -5.36162 -2.64516 -27.7988
vn 0.173807 -0.694255 -0.698428
v -5.3687 -2.65443 -27.7904
vn 0.125586 -0.757371 -0.640794
v -5.37596 -2.66263 -27.781
vn 0.0761559 -0.813193 -0.576989
v -5.38333 -2.66967 -27.7708
vn 0.0259921 -0.861184 -0.507628
v -5.39073 -2.6755 -27.7599
vn -0.0244221 -0.900881 -0.433378
v -5.3981 -2.68006 -27.7484
vn -0.0746011 -0.931903 -0.354954
v -5.40537 -2.6833 -27.7364
vn -0.124062 -0.953949 -0.273112
v -5.41245 -2.68518 -27.724
vn -0.172327 -0.966808 -0.188639
v -5.4193 -2.68571 -27.7113
vn -0.218933 -0.970357 -0.10235
v -5.42583 -2.68485 -27.6985
vn -0.263431 -0.96456 -0.015075
v -5.43199 -2.68264 -27.6857
vn -0.305392 -0.949475 0.072345
v -5.43773 -2.67908 -27.6729
vn -0.344411 -0.925245 0.159068
v -5.44297 -2.67421 -27.6604
vn -0.380114 -0.892104 0.24426
v -5.44767 -2.66809 -27.6482
vn -0.412156 -0.850373 0.327099
v -5.4518 -2.66075 -27.6365
vn -0.440229 -0.800451 0.406788
v -5.4553 -2.65229 -27.6254
vn -0.464062 -0.742821 0.482559
v -5.45814 -2.64278 -27.615
vn -0.483426 -0.678037 0.553683
v -5.4603 -2.6323 -27.6053
vn -0.498134 -0.606723 0.619475
v -5.46176 -2.62097 -27.5965
vn -0.508045 -0.529566 0.679301
v -5.46249 -2.60889 -27.5887
vn -0.513063 -0.44731 0.732585
v -5.4625 -2.59618 -27.5819
vn -0.513141 -0.360745 0.778813
v -5.46179 -2.58296 -27.5762
vn -0.508276 -0.270706 0.817541
v -5.46036 -2.56935 -27.5717
vn -0.498516 -0.17806 0.848396
v -5.45822 -2.55549 -27.5684
vn -0.483956 -0.0836991 0.871081
v -5.4554 -2.54152 -27.5663
vn -0.464734 0.0114677 0.885376
v -5.45192 -2.52756 -27.5654
vn -0.441037 0.106524 0.891145
v -5.44781 -2.51375 -27.5658
vn -0.413093 0.200555 0.888331
v -5.44312 -2.50022 -27.5675
vn -0.38117 0.292654 0.876963
f 1 66 2 
f 1 65 66 
f 2 67 3 
f 2 66 67 
f 3 68 4 
f 3 67 68 
f 4 69 5 
f 4 68 69 
f 5 70 6 
f 5 69 70 
f 6 71 7 
f 6 70 71 
f 7 72 8 
f 7 71 72 
f 8 73 9 
f 8 72 73 
f 9 74 10 
f 9 73 74 
f 10 75 11 
f 10 74 75 
f 11 76 12 
f 11 75 76 
f 12 77 13 
f 12 76 77 
f 13 78 14 
f 13 77 78 
f 14 79 15 
f 14 78 79 
f 15 80 16 
f 15 79 80 
f 16 81 17 
f 16 80 81 
f 17 82 18 
f 17 81 82 
f 18 83 19 
f 18 82 83 
f 19 84 20 
f 19 83 84 
f 20 85 21 
f 20 84 85 
f 21 86 22 
f 21 85 86 
f 22 87 23 
f 22 86 87 
f 23 88 24 
f 23 87 88 
f 24 89 25 
f 24 88 89 
f 25 90 26 
f 25 89 90 
f 26 91 27 
f 26 90 91 
f 27 92 28 
f 27 91 92 
f 28 93 29 
f 28 92 93 
f 29 94 30 
f 29 93 94 
f 30 95 31 
f 30 94 95 
f 31 96 32 
f 31 95 96 
f 32 97 33 
f 32 96 97 
f 33 98 34 
f 33 97 98 
f 34 99 35 
f 34 98 99 
f 35 100 36 
f 35 99 100 
f 36 101 37 
f 36 100 101 
f 37 102 38 
f 37 101 102 
f 38 103 39 
f 38 102 103 
f 39 104 40 
f 39 103 104 
f 40 105 41 
f 40 104 105 
f 41 106 42 
f 41 105 106 
f 42 107 43 
f 42 106 107 
f 43 108 44 
f 43 107 108 
f 44 109 45 
f 44 108 109 
f 45 110 46 
f 45 109 110 
f 46 111 47 
f 46 110 111 
f 47 112 48 
f 47 111 112 
f 48 113 49 
f 48 112 113 
f 49 114 50 
f 49 113 114 
f 50 115 51 
f 50 114 115 
f 51 116 52 
f 51 115 116 
f 52 117 53 
f 52 116 117 
f 53 118 54 
f 53 117 118 
f 54 119 55 
f 54 118 119 
f 55 120 56 
f 55 119 120 
f 56 121 57 
f 56 120 121 
f 57 122 58 
f 57 121 122 
f 58 123 59 
f 58 122 123 
f 59 124 60 
f 59 123 124 
f 60 125 61 
f 60 124 125 
f 61 126 62 
f 61 125 126 
f 62 127 63 
f 62 126 127 
f 63 128 64 
f 63 127 128 
f 64 65 1 
f 64 128 65 
f 65 130 66 
f 65 129 130 
f 66 131 67 
f 66 130 131 
f 67 132 68 
f 67 131 132 
f 68 133 69 
f 68 132 133 
f 69 134 70 
f 69 133 134 
f 70 135 71 
f 70 134 135 
f 71 136 72 
f 71 135 136 
f 72 137 73 
f 72 136 137 
f 73 138 74 
f 73 137 138 
f 74 139 75 
f 74 138 139 
f 75 140 76 
f 75 139 140 
f 76 141 77 
f 76 140 141 
f 77 142 78 
f 77 141 142 
f 78 143 79 
f 78 142 143 
f 79 144 80 
f 79 143 144 
f 80 145 81 
f 80 144 145 
f 81 146 82 
f 81 145 146 
f 82 147 83 
f 82 146 147 
f 83 148 84 
f 83 147 148 
f 84 149 85 
f 84 148 149 
f 85 150 86 
f 85 149 150 
f 86 151 87 
f 86 150 151 
f 87 152 88 
f 87 151 152 
f 88 153 89 
f 88 152 153 
f 89 154 90 
f 89 153 154 
f 90 155 91 
f 90 154 155 
f 91 156 92 
f 91 155 156 
f 92 157 93 
f 92 156 157 
f 93 158 94 
f 93 157 158 
f 94 159 95 
f 94 158 159 
f 95 160 96 
f 95 159 160 
f 96 161 97 
f 96 160 161 
f 97 162 98 
f 97 161 162 
f 98 163 99 
f 98 162 163 
f 99 164 100 
f 99 163 164 
f 100 165 101 
f 100 164 165 
f 101 166 102 
f 101 165 166 
f 102 167 103 
f 102 166 167 
f 103 168 104 
f 103 167 168 
f 104 169 105 
f 104 168 169 
f 105 170 106 
f 105 169 170 
f 106 171 107 
f 106 170 171 
f 107 172 108 
f 107 171 172 
f 108 173 109 
f 108 172 173 
f 109 174 110 
f 109 173 174 
f 110 175 111 
f 110 174 175 
f 111 176 112 
f 111 175 176 
f 112 177 113 
f 112 176 177 
f 113 178 114 
f 113 177 178 
f 114 179 115 
f 114 178 179 
f 115 180 116 
f 115 179 180 
f 116 181 117 
f 116 180 181 
f 117 182 118 
f 117 181 182 
f 118 183 119 
f 118 182 183 
f 119 184 120 
f 119 183 184 
f 120 185 121 
f 120 184 185 
f 121 186 122 
f 121 185 186 
f 122 187 123 
f 122 186 187 
f 123 188 124 
f 123 187 188 
f 124 189 125 
f 124 188 189 
f 125 190 126 
f 125 189 190 
f 126 191 127 
f 126 190 191 
f 127 192 128 
f 127 191 192 
f 128 129 65 
f 128 192 129 
f 129 194 130 
f 129 193 194 
f 130 195 131 
f 130 194 195 
f 131 196 132 
f 131 195 196 
f 132 197 133 
f 132 196 197 
f 133 198 134 
f 133 197 198 
f 134 199 135 
f 134 198 199 
f 135 200 136 
f 135 199 200 
f 136 201 137 
f 136 200 201 
f 137 202 138 
f 137 201 202 
f 138 203 139 
f 138 202 203 
f 139 204 140 
f 139 203 204 
f 140 205 141 
f 140 204 205 
f 141 206 142 
f 141 205 206 
f 142 207 143 
f 142 206 207 
f 143 208 144 
f 143 207 208 
f 144 209 145 
f 144 208 209 
f 145 210 146 
f 145 209 210 
f 146 211 147 
f 146 210 211 
f 147 212 148 
f 147 211 212 
f 148 213 149 
f 148 212 213 
f 149 214 150 
f 149 213 214 
f 150 215 151 
f 150 214 215 
f 151 216 152 
f 151 215 216 
f 152 217 153 
f 152 216 217 
f 153 218 154 
f 153 217 218 
f 154 219 155 
f 154 218 219 
f 155 220 156 
f 155 219 220 
f 156 221 157 
f 156 220 221 
f 157 222 158 
f 157 221 222 
f 158 223 159 
f 158 222 223 
f 159 224 160 
f 159 223 224 
f 160 225 161 
f 160 224 225 
f 161 226 162 
f 161 225 226 
f 162 227 163 
f 162 226 227 
f 163 228 164 
f 163 227 228 
f 164 229 165 
f 164 228 229 
f 165 230 166 
f 165 229 230 
f 166 231 167 
f 166 230 231 
f 167 232 168 
f 167 231 232 
f 168 233 169 
f 168 232 233 
f 169 234 170 
f 169 233 234 
f 170 235 171 
f 170 234 235 
f 171 236 172 
f 171 235 236 
f 172 237 173 
f 172 236 237 
f 173 238 174 
f 173 237 238 
f 174 239 175 
f 174 238 239 
f 175 240 176 
f 175 239 240 
f 176 241 177 
f 176 240 241 
f 177 242 178 
f 177 241 242 
f 178 243 179 
f 178 242 243 
f 179 244 180 
f 179 243 244 
f 180 245 181 
f 180 244 245 
f 181 246 182 
f 181 245 246 
f 182 247 183 
f 182 246 247 
f 183 248 184 
f 183 247 248 
f 184 249 185 
f 184 248 249 
f 185 250 186 
f 185 249 250 
f 186 251 187 
f 186 250 251 
f 187 252 188 
f 187 251 252 
f 188 253 189 
f 188 252 253 
f 189 254 190 
f 189 253 254 
f 190 255 191 
f 190 254 255 
f 191 256 192 
f 191 255 256 
f 192 193 129 
f 192 256 193 
f 193 258 194 
f 193 257 258 
f 194 259 195 
f 194 258 259 
f 195 260 196 
f 195 259 260 
f 196 261 197 
f 196 260 261 
f 197 262 198 
f 197 261 262 
f 198 263 199 
f 198 262 263 
f 199 264 200 
f 199 263 264 
f 200 265 201 
f 200 264 265 
f 201 266 202 
f 201 265 266 
f 202 267 203 
f 202 266 267 
f 203 268 204 
f 203 267 268 
f 204 269 205 
f 204 268 269 
f 205 270 206 
f 205 269 270 
f 206 271 207 
f 206 270 271 
f 207 272 208 
f 207 271 272 
f 208 273 209 
f 208 272 273 
f 209 274 210 
f 209 273 274 
f 210 275 211 
f 210 274 275 
f 211 276 212 
f 211 275 276 
f 212 277 213 
f 212 276 277 
f 213 278 214 
f 213 277 278 
f 214 279 215 
f 214 278 279 
f 215 280 216 
f 215 279 280 
f 216 281 217 
f 216 280 281 
f 217 282 218 
f 217 281 282 
f 218 283 219 
f 218 282 283 
f 219 284 220 
f 219 283 284 
f 220 285 221 
f 220 284 285 
f 221 286 222 
f 221 285 286 
f 222 287 223 
f 222 286 287 
f 223 288 224 
f 223 287 288 
f 224 289 225 
f 224 288 289 
f 225 290 226 
f 225 289 290 
f 226 291 227 
f 226 290 291 
f 227 292 228 
f 227 291 292 
f 228 293 229 
f 228 292 293 
f 229 294 230 
f 229 293 294 
f 230 295 231 
f 230 294 295 
f 231 296 232 
f 231 295 296 
f 232 297 233 
f 232 296 297 
f 233 298 234 
f 233 297 298 
f 234 299 235 
f 234 298 299 
f 235 300 236 
f 235 299 300 
f 236 301 237 
f 236 300 301 
f 237 302 238 
f 237 301 302 
f 238 303 239 
f 238 302 303 
f 239 304 240 
f 239 303 304 
f 240 305 241 
f 240 304 305 
f 241 306 242 
f 241 305 306 
f 242 307 243 
f 242 306 307 
f 243 308 244 
f 243 307 308 
f 244 309 245 
f 244 308 309 
f 245 310 246 
f 245 309 310 
f 246 311 247 
f 246 310 311 
f 247 312 248 
f 247 311 312 
f 248 313 249 
f 248 312 313 
f 249 314 250 
f 249 313 314 
f 250 315 251 
f 250 314 315 
f 251 316 252 
f 251 315 316 
f 252 317 253 
f 252 316 317 
f 253 318 254 
f 253 317 318 
f 254 319 255 
f 254 318 319 
f 255 320 256 
f 255 319 320 
f 256 257 193 
f 256 320 257 
f 257 322 258 
f 257 321 322 
f 258 323 259 
f 258 322 323 
f 259 324 260 
f 259 323 324 
f 260 325 261 
f 260 324 325 
f 261 326 262 
f 261 325 326 
f 262 327 263 
f 262 326 327 
f 263 328 264 
f 263 327 328 
f 264 329 265 
f 264 328 329 
f 265 330 266 
f 265 329 330 
f 266 331 267 
f 266 330 331 
f 267 332 268 
f 267 331 332 
f 268 333 269 
f 268 332 333 
f 269 334 270 
f 269 333 334 
f 270 335 271 
f 270 334 335 
f 271 336 272 
f 271 335 336 
f 272 337 273 
f 272 336 337 
f 273 338 274 
f 273 337 338 
f 274 339 275 
f 274 338 339 
f 275 340 276 
f 275 339 340 
f 276 341 277 
f 276 340 341 
f 277 342 278 
f 277 341 342 
f 278 343 279 
f 278 342 343 
f 279 344 280 
f 279 343 344 
f 280 345 281 
f 280 344 345 
f 281 346 282 
f 281 345 346 
f 282 347 283 
f 282 346 347 
f 283 348 284 
f 283 347 348 
f 284 349 285 
f 284 348 349 
f 285 350 286 
f 285 349 350 
f 286 351 287 
f 286 350 351 
f 287 352 288 
f 287 351 352 
f 288 353 289 
f 288 352 353 
f 289 354 290 
f 289 353 354 
f 290 355 291 
f 290 354 355 
f 291 356 292 
f 291 355 356 
f 292 357 293 
f 292 356 357 
f 293 358 294 
f 293 357 358 
f 294 359 295 
f 294 358 359 
f 295 360 296 
f 295 359 360 
f 296 361 297 
f 296 360 361 
f 297 362 298 
f 297 361 362 
f 298 363 299 
f 298 362 363 
f 299 364 300 
f 299 363 364 
f 300 365 301 
f 300 364 365 
f 301 366 302 
f 301 365 366 
f 302 367 303 
f 302 366 367 
f 303 368 304 
f 303 367 368 
f 304 369 305 
f 304 368 369 
f 305 370 306 
f 305 369 370 
f 306 371 307 
f 306 370 371 
f 307 372 308 
f 307 371 372 
f 308 373 309 
f 308 372 373 
f 309 374 310 
f 309 373 374 
f 310 375 311 
f 310 374 375 
f 311 376 312 
f 311 375 376 
f 312 377 313 
f 312 376 377 
f 313 378 314 
f 313 377 378 
f 314 379 315 
f 314 378 379 
f 315 380 316 
f 315 379 380 
f 316 381 317 
f 316 380 381 
f 317 382 318 
f 317 381 382 
f 318 383 319 
f 318 382 383 
f 319 384 320 
f 319 383 384 
f 320 321 257 
f 320 384 321 
f 321 386 322 
f 321 385 386 
f 322 387 323 
f 322 386 387 
f 323 388 324 
f 323 387 388 
f 324 389 325 
f 324 388 389 
f 325 390 326 
f 325 389 390 
f 326 391 327 
f 326 390 391 
f 327 392 328 
f 327 391 392 
f 328 393 329 
f 328 392 393 
f 329 394 330 
f 329 393 394 
f 330 395 331 
f 330 394 395 
f 331 396 332 
f 331 395 396 
f 332 397 333 
f 332 396 397 
f 333 398 334 
f 333 397 398 
f 334 399 335 
f 334 398 399 
f 335 400 336 
f 335 399 400 
f 336 401 337 
f 336 400 401 
f 337 402 338 
f 337 401 402 
f 338 403 339 
f 338 402 403 
f 339 404 340 
f 339 403 404 
f 340 405 341 
f 340 404 405 
f 341 406 342 
f 341 405 406 
f 342 407 343 
f 342 406 407 
f 343 408 344 
f 343 407 408 
f 344 409 345 
f 344 408 409 
f 345 410 346 
f 345 409 410 
f 346 411 347 
f 346 410 411 
f 347 412 348 
f 347 411 412 
f 348 413 349 
f 348 412 413 
f 349 414 350 
f 349 413 414 
f 350 415 351 
f 350 414 415 
f 351 416 352 
f 351 415 416 
f 352 417 353 
f 352 416 417 
f 353 418 354 
f 353 417 418 
f 354 419 355 
f 354 418 419 
f 355 420 356 
f 355 419 420 
f 356 421 357 
f 356 420 421 
f 357 422 358 
f 357 421 422 
f 358 423 359 
f 358 422 423 
f 359 424 360 
f 359 423 424 
f 360 425 361 
f 360 424 425 
f 361 426 362 
f 361 425 426 
f 362 427 363 
f 362 426 427 
f 363 428 364 
f 363 427 428 
f 364 429 365 
f 364 428 429 
f 365 430 366 
f 365 429 430 
f 366 431 367 
f 366 430 431 
f 367 432 368 
f 367 431 432 
f 368 433 369 
f 368 432 433 
f 369 434 370 
f 369 433 434 
f 370 435 371 
f 370 434 435 
f 371 436 372 
f 371 435 436 
f 372 437 373 
f 372 436 437 
f 373 438 374 
f 373 437 438 
f 374 439 375 
f 374 438 439 
f 375 440 376 
f 375 439 440 
f 376 441 377 
f 376 440 441 
f 377 442 378 
f 377 441 442 
f 378 443 379 
f 378 442 443 
f 379 444 380 
f 379 443 444 
f 380 445 381 
f 380 444 445 
f 381 446 382 
f 381 445 446 
f 382 447 383 
f 382 446 447 
f 383 448 384 
f 383 447 448 
f 384 385 321 
f 384 448 385 
f 385 450 386 
f 385 449 450 
f 386 451 387 
f 386 450 451 
f 387 452 388 
f 387 451 452 
f 388 453 389 
f 388 452 453 
f 389 454 390 
f 389 453 454 
f 390 455 391 
f 390 454 455 
f 391 456 392 
f 391 455 456 
f 392 457 393 
f 392 456 457 
f 393 458 394 
f 393 457 458 
f 394 459 395 
f 394 458 459 
f 395 460 396 
f 395 459 460 
f 396 461 397 
f 396 460 461 
f 397 462 398 
f 397 461 462 
f 398 463 399 
f 398 462 463 
f 399 464 400 
f 399 463 464 
f 400 465 401 
f 400 464 465 
f 401 466 402 
f 401 465 466 
f 402 467 403 
f 402 466 467 
f 403 468 404 
f 403 467 468 
f 404 469 405 
f 404 468 469 
f 405 470 406 
f 405 469 470 
f 406 471 407 
f 406 470 471 
f 407 472 408 
f 407 471 472 
f 408 473 409 
f 408 472 473 
f 409 474 410 
f 409 473 474 
f 410 475 411 
f 410 474 475 
f 411 476 412 
f 411 475 476 
f 412 477 413 
f 412 476 477 
f 413 478 414 
f 413 477 478 
f 414 479 415 
f 414 478 479 
f 415 480 416 
f 415 479 480 
f 416 481 417 
f 416 480 481 
f 417 482 418 
f 417 481 482 
f 418 483 419 
f 418 482 483 
f 419 484 420 
f 419 483 484 
f 420 485 421 
f 420 484 485 
f 421 486 422 
f 421 485 486 
f 422 487 423 
f 422 486 487 
f 423 488 424 
f 423 487 488 
f 424 489 425 
f 424 488 489 
f 425 490 426 
f 425 489 490 
f 426 491 427 
f 426 490 491 
f 427 492 428 
f 427 491 492 
f 428 493 429 
f 428 492 493 
f 429 494 430 
f 429 493 494 
f 430 495 431 
f 430 494 495 
f 431 496 432 
f 431 495 496 
f 432 497 433 
f 432 496 497 
f 433 498 434 
f 433 497 498 
f 434 499 435 
f 434 498 499 
f 435 500 436 
f 435 499 500 
f 436 501 437 
f 436 500 501 
f 437 502 438 
f 437 501 502 
f 438 503 439 
f 438 502 503 
f 439 504 440 
f 439 503 504 
f 440 505 441 
f 440 504 505 
f 441 506 442 
f 441 505 506 
f 442 507 443 
f 442 506 507 
f 443 508 444 
f 443 507 508 
f 444 509 445 
f 444 508 509 
f 445 510 446 
f 445 509 510 
f 446 511 447 
f 446 510 511 
f 447 512 448 
f 447 511 512 
f 448 449 385 
f 448 512 449 
f 449 514 450 
f 449 513 514 
f 450 515 451 
f 450 514 515 
f 451 516 452 
f 451 515 516 
f 452 517 453 
f 452 516 517 
f 453 518 454 
f 453 517 518 
f 454 519 455 
f 454 518 519 
f 455 520 456 
f 455 519 520 
f 456 521 457 
f 456 520 521 
f 457 522 458 
f 457 521 522 
f 458 523 459 
f 458 522 523 
f 459 524 460 
f 459 523 524 
f 460 525 461 
f 460 524 525 
f 461 526 462 
f 461 525 526 
f 462 527 463 
f 462 526 527 
f 463 528 464 
f 463 527 528 
f 464 529 465 
f 464 528 529 
f 465 530 466 
f 465 529 530 
f 466 531 467 
f 466 530 531 
f 467 532 468 
f 467 531 532 
f 468 533 469 
f 468 532 533 
f 469 534 470 
f 469 533 534 
f 470 535 471 
f 470 534 535 
f 471 536 472 
f 471 535 536 
f 472 537 473 
f 472 536 537 
f 473 538 474 
f 473 537 538 
f 474 539 475 
f 474 538 539 
f 475 540 476 
f 475 539 540 
f 476 541 477 
f 476 540 541 
f 477 542 478 
f 477 541 542 
f 478 543 479 
f 478 542 543 
f 479 544 480 
f 479 543 544 
f 480 545 481 
f 480 544 545 
f 481 546 482 
f 481 545 546 
f 482 547 483 
f 482 546 547 
f 483 548 484 
f 483 547 548 
f 484 549 485 
f 484 548 549 
f 485 550 486 
f 485 549 550 
f 486 551 487 
f 486 550 551 
f 487 552 488 
f 487 551 552 
f 488 553 489 
f 488 552 553 
f 489 554 490 
f 489 553 554 
f 490 555 491 
f 490 554 555 
f 491 556 492 
f 491 555 556 
f 492 557 493 
f 492 556 557 
f 493 558 494 
f 493 557 558 
f 494 559 495 
f 494 558 559 
f 495 560 496 
f 495 559 560 
f 496 561 497 
f 496 560 561 
f 497 562 498 
f 497 561 562 
f 498 563 499 
f 498 562 563 
f 499 564 500 
f 499 563 564 
f 500 565 501 
f 500 564 565 
f 501 566 502 
f 501 565 566 
f 502 567 503 
f 502 566 567 
f 503 568 504 
f 503 567 568 
f 504 569 505 
f 504 568 569 
f 505 570 506 
f 505 569 570 
f 506 571 507 
f 506 570 571 
f 507 572 508 
f 507 571 572 
f 508 573 509 
f 508 572 573 
f 509 574 510 
f 509 573 574 
f 510 575 511 
f 510 574 575 
f 511 576 512 
f 511 575 576 
f 512 513 449 
f 512 576 513 
f 513 578 514 
f 513 577 578 
f 514 579 515 
f 514 578 579 
f 515 580 516 
f 515 579 580 
f 516 581 517 
f 516 580 581 
f 517 582 518 
f 517 581 582 
f 518 583 519 
f 518 582 583 
f 519 584 520 
f 519 583 584 
f 520 585 521 
f 520 584 585 
f 521 586 522 
f 521 585 586 
f 522 587 523 
f 522 586 587 
f 523 588 524 
f 523 587 588 
f 524 589 525 
f 524 588 589 
f 525 590 526 
f 525 589 590 
f 526 591 527 
f 526 590 591 
f 527 592 528 
f 527 591 592 
f 528 593 529 
f 528 592 593 
f 529 594 530 
f 529 593 594 
f 530 595 531 
f 530 594 595 
f 531 596 532 
f 531 595 596 
f 532 597 533 
f 532 596 597 
f 533 598 534 
f 533 597 598 
f 534 599 535 
f 534 598 599 
f 535 600 536 
f 535 599 600 
f 536 601 537 
f 536 600 601 
f 537 602 538 
f 537 601 602 
f 538 603 539 
f 538 602 603 
f 539 604 540 
f 539 603 604 
f 540 605 541 
f 540 604 605 
f 541 606 542 
f 541 605 606 
f 542 607 543 
f 542 606 607 
f 543 608 544 
f 543 607 608 
f 544 609 545 
f 544 608 609 
f 545 610 546 
f 545 609 610 
f 546 611 547 
f 546 610 611 
f 547 612 548 
f 547 611 612 
f 548 613 549 
f 548 612 613 
f 549 614 550 
f 549 613 614 
f 550 615 551 
f 550 614 615 
f 551 616 552 
f 551 615 616 
f 552 617 553 
f 552 616 617 
f 553 618 554 
f 553 617 618 
f 554 619 555 
f 554 618 619 
f 555 620 556 
f 555 619 620 
f 556 621 557 
f 556 620 621 
f 557 622 558 
f 557 621 622 
f 558 623 559 
f 558 622 623 
f 559 624 560 
f 559 623 624 
f 560 625 561 
f 560 624 625 
f 561 626 562 
f 561 625 626 
f 562 627 563 
f 562 626 627 
f 563 628 564 
f 563 627 628 
f 564 629 565 
f 564 628 629 
f 565 630 566 
f 565 629 630 
f 566 631 567 
f 566 630 631 
f 567 632 568 
f 567 631 632 
f 568 633 569 
f 568 632 633 
f 569 634 570 
f 569 633 634 
f 570 635 571 
f 570 634 635 
f 571 636 572 
f 571 635 636 
f 572 637 573 
f 572 636 637 
f 573 638 574 
f 573 637 638 
f 574 639 575 
f 574 638 639 
f 575 640 576 
f 575 639 640 
f 576 577 513 
f 576 640 577 
