# Branch
v 1.47145 0.20937 -5.6879
vn -0.133193 -0.0818087 0.987708
v 1.47323 0.21584 -5.68746
vn -0.107126 0.0125807 0.994166
v 1.47509 0.222301 -5.68767
vn -0.0800278 0.106849 0.991049
v 1.477 0.228692 -5.68854
vn -0.0521587 0.200088 0.978389
v 1.47895 0.234951 -5.69005
vn -0.0237872 0.291401 0.956305
v 1.48091 0.241017 -5.6922
vn 0.00481342 0.379907 0.925012
v 1.48286 0.246833 -5.69495
vn 0.0333676 0.464754 0.884811
v 1.4848 0.252342 -5.69829
vn 0.0616005 0.545125 0.836088
v 1.48669 0.257491 -5.70218
vn 0.0892401 0.620247 0.779314
v 1.48853 0.26223 -5.70659
vn 0.11602 0.689395 0.715034
v 1.49029 0.266515 -5.71147
vn 0.141683 0.751904 0.643868
v 1.49195 0.270303 -5.71677
vn 0.165982 0.807172 0.566501
v 1.49351 0.273559 -5.72245
vn 0.188681 0.854666 0.483679
v 1.49494 0.27625 -5.72844
vn 0.209564 0.893929 0.396198
v 1.49623 0.278351 -5.7347
vn 0.228429 0.924584 0.304902
v 1.49737 0.279842 -5.74116
vn 0.245093 0.946334 0.21067
v 1.49836 0.280708 -5.74776
vn 0.259398 0.95897 0.114408
v 1.49916 0.280941 -5.75443
vn 0.271204 0.962371 0.0170452
v 1.49979 0.280539 -5.76112
vn 0.280398 0.956504 -0.0804822
v 1.50024 0.279505 -5.76775
vn 0.286892 0.941425 -0.177234
v 1.5005 0.27785 -5.77426
vn 0.290623 0.91728 -0.27228
v 1.50056 0.27559 -5.7806
vn 0.291555 0.8843 -0.364703
v 1.50043 0.272746 -5.78669
vn 0.289679 0.842805 -0.453614
v 1.50011 0.269345 -5.79249
vn 0.285014 0.793193 -0.538156
v 1.4996 0.265421 -5.79793
vn 0.277604 0.735942 -0.617516
v 1.49891 0.261011 -5.80296
vn 0.26752 0.671603 -0.690929
v 1.49804 0.256158 -5.80753
vn 0.25486 0.600797 -0.757687
v 1.49701 0.250908 -5.81161
vn 0.239745 0.524204 -0.817149
v 1.49581 0.245312 -5.81515
vn 0.222322 0.442563 -0.868741
v 1.49447 0.239424 -5.81811
vn 0.202757 0.35666 -0.911967
v 1.493 0.2333 -5.82047
vn 0.18124 0.267323 -0.946409
v 1.4914 0.227 -5.8222
vn 0.157977 0.17541 -0.971738
v 1.4897 0.220585 -5.8233
vn 0.133193 0.0818087 -0.987708
v 1.48792 0.214115 -5.82374
vn 0.107126 -0.0125807 -0.994166
v 1.48606 0.207654 -5.82353
vn 0.0800278 -0.106849 -0.991049
v 1.48415 0.201263 -5.82266
vn 0.0521587 -0.200088 -0.978389
v 1.48221 0.195004 -5.82115
vn 0.0237872 -0.291401 -0.956305
v 1.48025 0.188937 -5.819
vn -0.00481342 -0.379907 -0.925012
v 1.47829 0.183122 -5.81625
vn -0.0333676 -0.464754 -0.884811
v 1.47635 0.177613 -5.81291
vn -0.0616005 -0.545125 -0.836088
v 1.47446 0.172464 -5.80902
vn -0.0892401 -0.620247 -0.779314
v 1.47262 0.167724 -5.80461
vn -0.11602 -0.689395 -0.715034
v 1.47086 0.16344 -5.79973
vn -0.141683 -0.751904 -0.643868
v 1.4692 0.159651 -5.79443
vn -0.165982 -0.807172 -0.566501
v 1.46764 0.156396 -5.78875
vn -0.188681 -0.854666 -0.483679
v 1.46621 0.153705 -5.78276
vn -0.209564 -0.893929 -0.396198
v 1.46492 0.151604 -5.7765
vn -0.228429 -0.924584 -0.304902
v 1.46378 0.150113 -5.77004
vn -0.245093 -0.946334 -0.21067
v 1.4628 0.149247 -5.76344
vn -0.259398 -0.95897 -0.114408
v 1.46199 0.149014 -5.75677
vn -0.271204 -0.962371 -0.0170452
v 1.46136 0.149416 -5.75008
vn -0.280398 -0.956504 0.0804822
v 1.46091 0.150449 -5.74345
vn -0.286892 -0.941425 0.177234
v 1.46066 0.152104 -5.73694
vn -0.290623 -0.91728 0.27228
v 1.46059 0.154365 -5.7306
vn -0.291555 -0.8843 0.364703
v 1.46072 0.157209 -5.72451
vn -0.289679 -0.842805 0.453614
v 1.46104 0.16061 -5.71871
vn -0.285014 -0.793193 0.538156
v 1.46155 0.164534 -5.71327
vn -0.277604 -0.735942 0.617516
v 1.46224 0.168944 -5.70824
vn -0.26752 -0.671603 0.690929
v 1.46311 0.173797 -5.70367
vn -0.25486 -0.600797 0.757687
v 1.46414 0.179047 -5.69959
vn -0.239745 -0.524204 0.817149
v 1.46534 0.184643 -5.69605
vn -0.222322 -0.442563 0.868741
v 1.46668 0.190531 -5.69309
vn -0.202757 -0.35666 0.911967
v 1.46815 0.196654 -5.69073
vn -0.18124 -0.267323 0.946409
v 1.46975 0.202954 -5.68899
vn -0.157977 -0.17541 0.971738
v 1.6634 0.164173 -5.74428
vn 0.479091 -0.230633 0.846924
v 1.66503 0.17089 -5.74377
vn 0.502209 -0.135527 0.85406
v 1.66632 0.177699 -5.74385
vn 0.520491 -0.0391158 0.852971
v 1.66726 0.184534 -5.74451
vn 0.533761 0.0576721 0.843667
v 1.66784 0.191331 -5.74574
vn 0.541889 0.153905 0.826238
v 1.66804 0.198022 -5.74753
vn 0.5448 0.248655 0.800852
v 1.66788 0.204545 -5.74987
vn 0.542463 0.341011 0.767753
v 1.66734 0.210835 -5.75273
vn 0.534902 0.430082 0.727261
v 1.66644 0.216833 -5.75608
vn 0.52219 0.515012 0.679765
v 1.66519 0.222481 -5.7599
vn 0.504449 0.594982 0.625722
v 1.66359 0.227724 -5.76414
vn 0.48185 0.669222 0.565653
v 1.66167 0.232512 -5.76877
vn 0.45461 0.737016 0.500136
v 1.65944 0.236799 -5.77374
vn 0.422992 0.797713 0.429803
v 1.65692 0.240543 -5.779
vn 0.387301 0.850728 0.355331
v 1.65413 0.243708 -5.7845
vn 0.347879 0.895549 0.277437
v 1.65111 0.246265 -5.79019
vn 0.305108 0.931746 0.196871
v 1.64788 0.248187 -5.79601
vn 0.259398 0.95897 0.114408
v 1.64448 0.249458 -5.80191
vn 0.21119 0.976958 0.0308444
v 1.64093 0.250064 -5.80783
vn 0.160947 0.985538 -0.0530166
v 1.63727 0.249999 -5.81372
vn 0.109155 0.984626 -0.136367
v 1.63354 0.249265 -5.81951
vn 0.0563121 0.974232 -0.218404
v 1.62977 0.247869 -5.82516
vn 0.00292647 0.954456 -0.298338
v 1.626 0.245823 -5.8306
vn -0.0504873 0.925487 -0.375399
v 1.62226 0.243147 -5.83579
vn -0.103415 0.887606 -0.448844
v 1.61859 0.239868 -5.84067
vn -0.155347 0.841176 -0.517967
v 1.61503 0.236017 -5.8452
vn -0.205782 0.786646 -0.582101
v 1.61161 0.231631 -5.84933
vn -0.254236 0.72454 -0.64063
v 1.60836 0.226752 -5.85303
vn -0.300241 0.655456 -0.692989
v 1.60532 0.221427 -5.85626
vn -0.343355 0.580059 -0.738674
v 1.6025 0.215708 -5.85898
vn -0.383162 0.499076 -0.777245
v 1.59995 0.209649 -5.86118
vn -0.419279 0.413287 -0.808331
v 1.59769 0.203309 -5.86282
vn -0.451359 0.323518 -0.831632
v 1.59573 0.19675 -5.8639
vn -0.479091 0.230633 -0.846924
v 1.5941 0.190033 -5.86441
vn -0.502209 0.135527 -0.85406
v 1.59281 0.183224 -5.86433
vn -0.520491 0.0391158 -0.852971
v 1.59187 0.176388 -5.86367
vn -0.533761 -0.0576721 -0.843667
v 1.59129 0.169592 -5.86244
vn -0.541889 -0.153905 -0.826238
v 1.59109 0.1629 -5.86065
vn -0.5448 -0.248655 -0.800852
v 1.59125 0.156378 -5.85831
vn -0.542463 -0.341011 -0.767753
v 1.59179 0.150087 -5.85545
vn -0.534902 -0.430082 -0.727261
v 1.59269 0.144089 -5.8521
vn -0.52219 -0.515012 -0.679765
v 1.59394 0.138442 -5.84828
vn -0.504449 -0.594982 -0.625722
v 1.59553 0.133198 -5.84404
vn -0.48185 -0.669222 -0.565653
v 1.59746 0.128411 -5.83941
vn -0.45461 -0.737016 -0.500136
v 1.59969 0.124124 -5.83444
vn -0.422992 -0.797713 -0.429803
v 1.60221 0.12038 -5.82919
vn -0.387301 -0.850728 -0.355331
v 1.605 0.117214 -5.82368
vn -0.347879 -0.895549 -0.277437
v 1.60802 0.114658 -5.81799
vn -0.305108 -0.931746 -0.196871
v 1.61125 0.112735 -5.81217
vn -0.259398 -0.95897 -0.114408
v 1.61465 0.111465 -5.80627
vn -0.21119 -0.976958 -0.0308444
v 1.6182 0.110859 -5.80035
vn -0.160947 -0.985538 0.0530166
v 1.62186 0.110923 -5.79446
vn -0.109155 -0.984626 0.136367
v 1.62559 0.111658 -5.78867
vn -0.0563121 -0.974232 0.218404
v 1.62936 0.113054 -5.78302
vn -0.00292647 -0.954456 0.298338
v 1.63313 0.1151 -5.77758
vn 0.0504873 -0.925487 0.375399
v 1.63687 0.117775 -5.77239
vn 0.103415 -0.887606 0.448844
v 1.64054 0.121054 -5.76751
vn 0.155347 -0.841176 0.517967
v 1.6441 0.124906 -5.76298
vn 0.205782 -0.786646 0.582101
v 1.64752 0.129292 -5.75885
vn 0.254236 -0.72454 0.64063
v 1.65077 0.134171 -5.75515
vn 0.300241 -0.655456 0.692989
v 1.65381 0.139495 -5.75192
vn 0.343355 -0.580059 0.738674
v 1.65663 0.145215 -5.7492
vn 0.383162 -0.499076 0.777245
v 1.65918 0.151273 -5.747
vn 0.419279 -0.413287 0.808331
v 1.66144 0.157613 -5.74536
vn 0.451359 -0.323518 0.831632
v 1.88476 0.125851 -5.92494
vn 0.658194 -0.262232 0.705702
v 1.88637 0.132777 -5.92437
vn 0.68045 -0.166973 0.713518
v 1.88752 0.139819 -5.9243
vn 0.696152 -0.070107 0.714463
v 1.88817 0.146911 -5.92473
vn 0.705151 0.0274344 0.708526
v 1.88833 0.153983 -5.92566
vn 0.707359 0.124712 0.695766
v 1.888 0.160969 -5.92708
vn 0.702754 0.220788 0.676306
v 1.88717 0.167799 -5.92896
vn 0.691382 0.314738 0.650332
v 1.88586 0.174409 -5.93131
vn 0.673351 0.405656 0.618095
v 1.88408 0.180735 -5.93408
vn 0.648835 0.492669 0.579906
v 1.88184 0.186717 -5.93727
vn 0.618071 0.574936 0.536132
v 1.87917 0.192295 -5.94082
vn 0.581354 0.651666 0.487194
v 1.87609 0.197418 -5.94472
vn 0.539039 0.722121 0.433565
v 1.87264 0.202034 -5.94893
vn 0.491532 0.785621 0.37576
v 1.86884 0.206101 -5.95339
vn 0.439292 0.841555 0.314337
v 1.86473 0.209579 -5.95808
vn 0.382821 0.889385 0.249886
v 1.86036 0.212433 -5.96294
vn 0.322663 0.928649 0.183028
v 1.85576 0.214638 -5.96793
vn 0.259398 0.95897 0.114408
v 1.85098 0.216171 -5.973
vn 0.193634 0.980056 0.0446865
v 1.84606 0.217017 -5.9781
vn 0.126006 0.991703 -0.0254657
v 1.84106 0.21717 -5.98318
vn 0.0571646 0.993799 -0.0953726
v 1.83601 0.216626 -5.9882
vn -0.0122275 0.986324 -0.164361
v 1.83098 0.215392 -5.9931
vn -0.0815019 0.969351 -0.231767
v 1.826 0.21348 -5.99783
vn -0.149991 0.943042 -0.29694
v 1.82112 0.210907 -6.00237
vn -0.217036 0.907652 -0.359254
v 1.8164 0.207698 -6.00664
vn -0.281991 0.86352 -0.418108
v 1.81187 0.203885 -6.01063
vn -0.34423 0.811072 -0.472935
v 1.80759 0.199504 -6.01429
vn -0.403154 0.750813 -0.523208
v 1.80359 0.194597 -6.01757
vn -0.458196 0.683323 -0.568442
v 1.79991 0.189212 -6.02047
vn -0.508824 0.609252 -0.608202
v 1.79658 0.1834 -6.02293
vn -0.554553 0.529314 -0.642104
v 1.79365 0.177217 -6.02495
vn -0.594941 0.444279 -0.669823
v 1.79113 0.170724 -6.02649
vn -0.629599 0.354964 -0.69109
v 1.78905 0.163982 -6.02755
vn -0.658194 0.262232 -0.705702
v 1.78743 0.157056 -6.02812
vn -0.68045 0.166973 -0.713518
v 1.78629 0.150013 -6.02819
vn -0.696152 0.070107 -0.714463
v 1.78563 0.142922 -6.02776
vn -0.705151 -0.0274344 -0.708526
v 1.78547 0.135849 -6.02683
vn -0.707359 -0.124712 -0.695766
v 1.78581 0.128864 -6.02542
vn -0.702754 -0.220788 -0.676306
v 1.78664 0.122033 -6.02353
vn -0.691382 -0.314738 -0.650332
v 1.78795 0.115423 -6.02118
vn -0.673351 -0.405656 -0.618095
v 1.78973 0.109097 -6.01841
vn -0.648835 -0.492669 -0.579906
v 1.79197 0.103116 -6.01523
vn -0.618071 -0.574936 -0.536132
v 1.79463 0.0975372 -6.01167
vn -0.581354 -0.651666 -0.487194
v 1.79771 0.0924149 -6.00777
vn -0.539039 -0.722121 -0.433565
v 1.80117 0.0877981 -6.00357
vn -0.491532 -0.785621 -0.37576
v 1.80496 0.0837315 -5.9991
vn -0.439292 -0.841555 -0.314337
v 1.80907 0.080254 -5.99441
vn -0.382821 -0.889385 -0.249886
v 1.81344 0.0773993 -5.98955
vn -0.322663 -0.928649 -0.183028
v 1.81804 0.0751949 -5.98456
vn -0.259398 -0.95897 -0.114408
v 1.82282 0.0736619 -5.9795
vn -0.193634 -0.980056 -0.0446865
v 1.82774 0.0728151 -5.97439
vn -0.126006 -0.991703 0.0254657
v 1.83275 0.0726627 -5.96931
vn -0.0571646 -0.993799 0.0953726
v 1.83779 0.0732061 -5.9643
vn 0.0122275 -0.986324 0.164361
v 1.84283 0.0744401 -5.9594
vn 0.0815019 -0.969351 0.231767
v 1.84781 0.0763529 -5.95466
vn 0.149991 -0.943042 0.29694
v 1.85268 0.0789259 -5.95013
vn 0.217036 -0.907652 0.359254
v 1.8574 0.0821345 -5.94585
vn 0.281991 -0.86352 0.418108
v 1.86193 0.0859477 -5.94186
vn 0.34423 -0.811072 0.472935
v 1.86621 0.0903288 -5.93821
vn 0.403154 -0.750813 0.523208
v 1.87021 0.0952357 -5.93492
vn 0.458196 -0.683323 0.568442
v 1.8739 0.100621 -5.93203
vn 0.508824 -0.609252 0.608202
v 1.87722 0.106433 -5.92956
vn 0.554553 -0.529314 0.642104
v 1.88016 0.112615 -5.92755
vn 0.594941 -0.444279 0.669823
v 1.88268 0.119109 -5.926
vn 0.629599 -0.354964 0.69109
v 2.15706 0.0879962 -6.22504
vn 0.728449 -0.272057 0.628766
v 2.1587 0.0951236 -6.22443
vn 0.750367 -0.176751 0.636952
v 2.1598 0.102378 -6.22428
vn 0.765058 -0.0797434 0.639004
v 2.16035 0.109691 -6.22458
vn 0.772382 0.0180323 0.634903
v 2.16034 0.11699 -6.22535
vn 0.772267 0.115634 0.624686
v 2.15978 0.124206 -6.22656
vn 0.764714 0.212123 0.608454
v 2.15866 0.131269 -6.22821
vn 0.749797 0.306568 0.586362
v 2.157 0.138111 -6.23029
vn 0.727659 0.398062 0.558623
v 2.15482 0.144667 -6.23277
vn 0.698513 0.485721 0.525504
v 2.15214 0.150873 -6.23562
vn 0.662641 0.568703 0.487324
v 2.14898 0.156669 -6.23883
vn 0.620386 0.646208 0.444451
v 2.14538 0.162 -6.24235
vn 0.572157 0.717489 0.397297
v 2.14136 0.166814 -6.24617
vn 0.518418 0.781861 0.346318
v 2.13696 0.171065 -6.25023
vn 0.459686 0.838703 0.292003
v 2.13224 0.174712 -6.2545
vn 0.396527 0.887468 0.234876
v 2.12723 0.177719 -6.25894
vn 0.329549 0.927686 0.175487
v 2.12199 0.180059 -6.26351
vn 0.259398 0.95897 0.114408
v 2.11655 0.181708 -6.26816
vn 0.186748 0.981019 0.0522276
v 2.11098 0.18265 -6.27285
vn 0.1123 0.993619 -0.0104561
v 2.10534 0.182877 -6.27753
vn 0.0367704 0.996651 -0.0730391
v 2.09966 0.182386 -6.28216
vn -0.0391133 0.990084 -0.134919
v 2.09401 0.181182 -6.28669
vn -0.11462 0.973983 -0.195499
v 2.08845 0.179276 -6.29108
vn -0.189023 0.948501 -0.254197
v 2.08302 0.176687 -6.29528
vn -0.261606 0.913885 -0.310446
v 2.07778 0.17344 -6.29927
vn -0.33167 0.870467 -0.363706
v 2.07278 0.169566 -6.30299
vn -0.398539 0.818667 -0.413463
v 2.06807 0.165103 -6.30641
vn -0.46157 0.758982 -0.459238
v 2.06369 0.160092 -6.3095
vn -0.520156 0.691988 -0.50059
v 2.05968 0.154584 -6.31223
vn -0.573732 0.61833 -0.537122
v 2.05609 0.14863 -6.31458
vn -0.621783 0.538716 -0.568481
v 2.05294 0.142288 -6.31652
vn -0.663846 0.453915 -0.594364
v 2.05027 0.135619 -6.31802
vn -0.699516 0.364742 -0.614524
v 2.04811 0.128688 -6.31909
vn -0.728449 0.272057 -0.628766
v 2.04647 0.12156 -6.3197
vn -0.750367 0.176751 -0.636952
v 2.04537 0.114306 -6.31985
vn -0.765058 0.0797434 -0.639004
v 2.04482 0.106993 -6.31955
vn -0.772382 -0.0180323 -0.634903
v 2.04483 0.0996943 -6.31878
vn -0.772267 -0.115634 -0.624686
v 2.0454 0.0924783 -6.31757
vn -0.764714 -0.212123 -0.608454
v 2.04651 0.0854152 -6.31592
vn -0.749797 -0.306568 -0.586362
v 2.04817 0.0785729 -6.31384
vn -0.727659 -0.398062 -0.558623
v 2.05035 0.0720172 -6.31137
vn -0.698513 -0.485721 -0.525504
v 2.05303 0.0658114 -6.30851
vn -0.662641 -0.568703 -0.487324
v 2.05619 0.0600152 -6.3053
vn -0.620386 -0.646208 -0.444451
v 2.0598 0.0546844 -6.30178
vn -0.572157 -0.717489 -0.397297
v 2.06382 0.0498703 -6.29797
vn -0.518418 -0.781861 -0.346318
v 2.06821 0.0456194 -6.2939
vn -0.459686 -0.838703 -0.292003
v 2.07293 0.0419725 -6.28963
vn -0.396527 -0.887468 -0.234876
v 2.07794 0.0389648 -6.28519
vn -0.329549 -0.927686 -0.175487
v 2.08319 0.0366252 -6.28062
vn -0.259398 -0.95897 -0.114408
v 2.08862 0.0349763 -6.27597
vn -0.186748 -0.981019 -0.0522276
v 2.09419 0.0340339 -6.27128
vn -0.1123 -0.993619 0.0104561
v 2.09984 0.0338072 -6.2666
vn -0.0367704 -0.996651 0.0730391
v 2.10551 0.0342983 -6.26198
vn 0.0391133 -0.990084 0.134919
v 2.11116 0.0355025 -6.25745
vn 0.11462 -0.973983 0.195499
v 2.11672 0.0374081 -6.25306
vn 0.189023 -0.948501 0.254197
v 2.12215 0.0399969 -6.24885
vn 0.261606 -0.913885 0.310446
v 2.12739 0.0432439 -6.24487
vn 0.33167 -0.870467 0.363706
v 2.13239 0.0471178 -6.24115
vn 0.398539 -0.818667 0.413463
v 2.1371 0.0515813 -6.23772
vn 0.46157 -0.758982 0.459238
v 2.14149 0.0565915 -6.23463
vn 0.520156 -0.691988 0.50059
v 2.14549 0.0621001 -6.2319
vn 0.573732 -0.61833 0.537122
v 2.14909 0.068054 -6.22955
vn 0.621783 -0.538716 0.568481
v 2.15223 0.0743959 -6.22762
vn 0.663846 -0.453915 0.594364
v 2.1549 0.0810647 -6.22611
vn 0.699516 -0.364742 0.614524
v 2.48536 0.0495039 -6.64676
vn 0.764273 -0.276254 0.582726
v 2.48704 0.0568313 -6.64611
vn 0.786018 -0.180928 0.591134
v 2.48813 0.0642925 -6.6459
vn 0.800194 -0.0838603 0.593849
v 2.48862 0.0718158 -6.64613
vn 0.806663 0.0140155 0.590845
v 2.48852 0.0793288 -6.6468
vn 0.805364 0.111756 0.582151
v 2.48783 0.086759 -6.6479
vn 0.796308 0.208421 0.567851
v 2.48654 0.0940349 -6.64942
vn 0.779584 0.303078 0.548081
v 2.48468 0.101087 -6.65135
vn 0.755351 0.394817 0.523034
v 2.48226 0.107846 -6.65366
vn 0.723845 0.482753 0.492949
v 2.4793 0.114248 -6.65634
vn 0.685367 0.56604 0.458117
v 2.47583 0.120231 -6.65935
vn 0.640289 0.643876 0.418873
v 2.4719 0.125737 -6.66268
vn 0.589044 0.715511 0.375595
v 2.46752 0.130714 -6.66628
vn 0.532127 0.780255 0.328699
v 2.46275 0.135113 -6.67013
vn 0.470085 0.837485 0.278639
v 2.45763 0.138892 -6.67419
vn 0.403516 0.886649 0.225894
v 2.45222 0.142014 -6.67841
vn 0.333061 0.927275 0.170975
v 2.44656 0.144451 -6.68276
vn 0.259398 0.95897 0.114408
v 2.4407 0.146177 -6.68719
vn 0.183237 0.98143 0.0567403
v 2.43471 0.147177 -6.69166
vn 0.105311 0.994438 -0.00147423
v 2.42865 0.147441 -6.69614
vn 0.0263713 0.997869 -0.0596746
v 2.42256 0.146966 -6.70057
vn -0.0528225 0.991691 -0.1173
v 2.41651 0.145757 -6.70491
vn -0.131508 0.975961 -0.173796
v 2.41056 0.143825 -6.70912
vn -0.208926 0.950833 -0.228618
v 2.40476 0.14119 -6.71317
vn -0.284333 0.916548 -0.281239
v 2.39918 0.137876 -6.717
vn -0.357001 0.873435 -0.331151
v 2.39386 0.133916 -6.7206
vn -0.426231 0.821912 -0.377874
v 2.38885 0.129347 -6.72391
vn -0.491356 0.762472 -0.420957
v 2.38421 0.124213 -6.72691
vn -0.55175 0.69569 -0.459987
v 2.37997 0.118565 -6.72957
vn -0.606829 0.622208 -0.494587
v 2.37619 0.112456 -6.73186
vn -0.656065 0.542733 -0.524423
v 2.37289 0.105946 -6.73377
vn -0.698982 0.458032 -0.54921
v 2.37011 0.0990959 -6.73526
vn -0.735168 0.368919 -0.568706
v 2.36787 0.0919731 -6.73634
vn -0.764273 0.276254 -0.582726
v 2.3662 0.0846458 -6.73699
vn -0.786018 0.180928 -0.591134
v 2.36511 0.0771845 -6.7372
vn -0.800194 0.0838603 -0.593849
v 2.36461 0.0696612 -6.73697
vn -0.806663 -0.0140155 -0.590845
v 2.36471 0.0621482 -6.7363
vn -0.805364 -0.111756 -0.582151
v 2.36541 0.054718 -6.7352
vn -0.796308 -0.208421 -0.567851
v 2.36669 0.0474421 -6.73368
vn -0.779584 -0.303078 -0.548081
v 2.36856 0.0403905 -6.73175
vn -0.755351 -0.394817 -0.523034
v 2.37098 0.0336312 -6.72944
vn -0.723845 -0.482753 -0.492949
v 2.37394 0.0272293 -6.72676
vn -0.685367 -0.56604 -0.458117
v 2.3774 0.0212463 -6.72375
vn -0.640289 -0.643876 -0.418873
v 2.38134 0.01574 -6.72042
vn -0.589044 -0.715511 -0.375595
v 2.38572 0.0107634 -6.71682
vn -0.532127 -0.780255 -0.328699
v 2.39048 0.00636438 -6.71297
vn -0.470085 -0.837485 -0.278639
v 2.3956 0.0025853 -6.70891
vn -0.403516 -0.886649 -0.225894
v 2.40102 -0.00053742 -6.70469
vn -0.333061 -0.927275 -0.170975
v 2.40668 -0.00297372 -6.70034
vn -0.259398 -0.95897 -0.114408
v 2.41253 -0.00470012 -6.69591
vn -0.183237 -0.98143 -0.0567403
v 2.41852 -0.00570001 -6.69144
vn -0.105311 -0.994438 0.00147423
v 2.42459 -0.00596376 -6.68696
vn -0.0263713 -0.997869 0.0596746
v 2.43068 -0.00548882 -6.68253
vn 0.0528225 -0.991691 0.1173
v 2.43673 -0.00427977 -6.67819
vn 0.131508 -0.975961 0.173796
v 2.44268 -0.00234826 -6.67398
vn 0.208926 -0.950833 0.228618
v 2.44847 0.000287123 -6.66993
vn 0.284333 -0.916548 0.281239
v 2.45406 0.00360099 -6.6661
vn 0.357001 -0.873435 0.331151
v 2.45938 0.00756143 -6.6625
vn 0.426231 -0.821912 0.377874
v 2.46439 0.0121303 -6.65919
vn 0.491356 -0.762472 0.420957
v 2.46903 0.0172636 -6.65619
vn 0.55175 -0.69569 0.459987
v 2.47326 0.0229119 -6.65353
vn 0.606829 -0.622208 0.494587
v 2.47705 0.0290208 -6.65124
vn 0.656065 -0.542733 0.524423
v 2.48035 0.0355314 -6.64934
vn 0.698982 -0.458032 0.54921
v 2.48313 0.0423811 -6.64784
vn 0.735168 -0.368919 0.568706
v 2.87102 0.0101248 -7.19108
vn 0.785652 -0.278428 0.552476
v 2.87273 0.0176513 -7.19041
vn 0.807294 -0.183092 0.561029
v 2.87383 0.025317 -7.19016
vn 0.821162 -0.0859923 0.56418
v 2.8743 0.0330481 -7.19034
vn 0.827121 0.0119353 0.561897
v 2.87414 0.0407701 -7.19095
vn 0.825115 0.109748 0.554203
v 2.87335 0.0484087 -7.19198
vn 0.815162 0.206504 0.541172
v 2.87195 0.0558902 -7.19342
vn 0.797359 0.301271 0.522928
v 2.86994 0.0631427 -7.19525
vn 0.771877 0.393136 0.499649
v 2.86734 0.0700963 -7.19747
vn 0.738962 0.481216 0.471558
v 2.86418 0.076684 -7.20005
vn 0.698929 0.564661 0.438926
v 2.86048 0.0828424 -7.20296
vn 0.652166 0.642668 0.402066
v 2.8563 0.0885122 -7.20617
vn 0.599122 0.714486 0.361334
v 2.85165 0.0936388 -7.20966
vn 0.540308 0.779423 0.317123
v 2.8466 0.0981728 -7.2134
vn 0.476291 0.836854 0.269857
v 2.84118 0.10207 -7.21733
vn 0.407687 0.886225 0.219993
v 2.83546 0.105294 -7.22144
vn 0.335156 0.927062 0.16801
v 2.82948 0.107813 -7.22567
vn 0.259398 0.95897 0.114408
v 2.8233 0.109603 -7.22999
vn 0.181141 0.981643 0.0597054
v 2.81698 0.110647 -7.23435
vn 0.10114 0.994862 0.00442743
v 2.81059 0.110934 -7.23872
vn 0.0201655 0.9985 -0.0508932
v 2.80418 0.110462 -7.24305
vn -0.0610037 0.992523 -0.105724
v 2.79782 0.109236 -7.24729
vn -0.141585 0.976986 -0.159536
v 2.79157 0.107266 -7.25142
vn -0.220803 0.952041 -0.211812
v 2.78548 0.104573 -7.25539
vn -0.297895 0.917927 -0.262048
v 2.77962 0.101182 -7.25915
vn -0.372118 0.874973 -0.30976
v 2.77404 0.0971258 -7.26269
vn -0.442757 0.823592 -0.354489
v 2.7688 0.0924433 -7.26595
vn -0.509132 0.76428 -0.395805
v 2.76395 0.0871797 -7.26891
vn -0.570604 0.697607 -0.433308
v 2.75953 0.0813857 -7.27154
vn -0.62658 0.624216 -0.466639
v 2.75559 0.0751171 -7.27382
vn -0.676523 0.544813 -0.495475
v 2.75216 0.0684343 -7.27572
vn -0.71995 0.460164 -0.51954
v 2.74928 0.0614016 -7.27722
vn -0.756443 0.371083 -0.538601
v 2.74697 0.0540868 -7.27832
vn -0.785652 0.278428 -0.552476
v 2.74526 0.0465604 -7.27899
vn -0.807294 0.183092 -0.561029
v 2.74417 0.0388947 -7.27924
vn -0.821162 0.0859923 -0.56418
v 2.7437 0.0311636 -7.27906
vn -0.827121 -0.0119353 -0.561897
v 2.74386 0.0234416 -7.27845
vn -0.825115 -0.109748 -0.554203
v 2.74464 0.015803 -7.27742
vn -0.815162 -0.206504 -0.541172
v 2.74605 0.00832146 -7.27598
vn -0.797359 -0.301271 -0.522928
v 2.74806 0.00106897 -7.27415
vn -0.771877 -0.393136 -0.499649
v 2.75066 -0.00588463 -7.27193
vn -0.738962 -0.481216 -0.471558
v 2.75382 -0.0124724 -7.26935
vn -0.698929 -0.564661 -0.438926
v 2.75751 -0.0186308 -7.26644
vn -0.652166 -0.642668 -0.402066
v 2.7617 -0.0243006 -7.26323
vn -0.599122 -0.714486 -0.361334
v 2.76634 -0.0294271 -7.25974
vn -0.540308 -0.779423 -0.317123
v 2.7714 -0.0339611 -7.256
vn -0.476291 -0.836854 -0.269857
v 2.77681 -0.0378588 -7.25207
vn -0.407687 -0.886225 -0.219993
v 2.78254 -0.0410827 -7.24796
vn -0.335156 -0.927062 -0.16801
v 2.78852 -0.0436018 -7.24373
vn -0.259398 -0.95897 -0.114408
v 2.7947 -0.0453918 -7.23941
vn -0.181141 -0.981643 -0.0597054
v 2.80101 -0.0464354 -7.23505
vn -0.10114 -0.994862 -0.00442743
v 2.80741 -0.0467226 -7.23068
vn -0.0201655 -0.9985 0.0508932
v 2.81381 -0.0462507 -7.22635
vn 0.0610037 -0.992523 0.105724
v 2.82018 -0.0450241 -7.2221
vn 0.141585 -0.976986 0.159536
v 2.82643 -0.0430548 -7.21798
vn 0.220803 -0.952041 0.211812
v 2.83252 -0.0403616 -7.21401
vn 0.297895 -0.917927 0.262048
v 2.83838 -0.0369705 -7.21024
vn 0.372118 -0.874973 0.30976
v 2.84395 -0.0329141 -7.20671
vn 0.442757 -0.823592 0.354489
v 2.84919 -0.0282316 -7.20345
vn 0.509132 -0.76428 0.395805
v 2.85405 -0.022968 -7.20049
vn 0.570604 -0.697607 0.433308
v 2.85846 -0.017174 -7.19786
vn 0.62658 -0.624216 0.466639
v 2.86241 -0.0109054 -7.19558
vn 0.676523 -0.544813 0.495475
v 2.86584 -0.00422264 -7.19368
vn 0.71995 -0.460164 0.51954
v 2.86872 0.00281003 -7.19218
vn 0.756443 -0.371083 0.538601
v 3.31453 -0.0302197 -7.85847
vn 0.799757 -0.279703 0.531183
v 3.31628 -0.0224943 -7.85777
vn 0.821331 -0.184361 0.539839
v 3.31738 -0.0146251 -7.85749
vn 0.834996 -0.0872429 0.543296
v 3.31784 -0.00668781 -7.85763
vn 0.840619 0.0107152 0.541521
v 3.31764 0.00124113 -7.8582
vn 0.838146 0.10857 0.534531
v 3.31678 0.00908536 -7.85918
vn 0.827602 0.205379 0.522393
v 3.31528 0.0167693 -7.86058
vn 0.809087 0.300211 0.505224
v 3.31315 0.024219 -7.86236
vn 0.782781 0.392151 0.48319
v 3.31041 0.0313627 -7.86452
vn 0.748935 0.480314 0.456502
v 3.30708 0.0381316 -7.86704
vn 0.707878 0.563852 0.425418
v 3.3032 0.0444604 -7.86989
vn 0.660002 0.64196 0.390236
v 3.29881 0.0502884 -7.87305
vn 0.605771 0.713885 0.351297
v 3.29394 0.0555592 -7.87648
vn 0.545706 0.778935 0.308974
v 3.28865 0.0602222 -7.88015
vn 0.480385 0.836484 0.263676
v 3.28298 0.0642325 -7.88402
vn 0.410438 0.885976 0.215839
v 3.27699 0.0675514 -7.88807
vn 0.336539 0.926937 0.165922
v 3.27074 0.070147 -7.89224
vn 0.259398 0.95897 0.114408
v 3.26429 0.0719943 -7.89651
vn 0.179759 0.981768 0.0617925
v 3.2577 0.0730754 -7.90082
vn 0.0983886 0.995111 0.00858146
v 3.25103 0.0733801 -7.90514
vn 0.016071 0.998871 -0.0447122
v 3.24434 0.0729052 -7.90942
vn -0.0664015 0.993011 -0.0975753
v 3.23771 0.0716555 -7.91363
vn -0.148234 0.977587 -0.149499
v 3.2312 0.069643 -7.91772
vn -0.22864 0.952749 -0.199982
v 3.22486 0.0668869 -7.92165
vn -0.306843 0.918736 -0.24854
v 3.21876 0.063414 -7.92539
vn -0.382092 0.875874 -0.294704
v 3.21297 0.0592575 -7.9289
vn -0.45366 0.824578 -0.33803
v 3.20752 0.0544576 -7.93215
vn -0.52086 0.76534 -0.3781
v 3.20248 0.0490605 -7.9351
vn -0.583043 0.698731 -0.41453
v 3.1979 0.0431181 -7.93773
vn -0.639612 0.625394 -0.446967
v 3.19381 0.0366878 -7.94001
vn -0.69002 0.546033 -0.475099
v 3.19027 0.0298313 -7.94192
vn -0.733784 0.461414 -0.498656
v 3.18729 0.0226147 -7.94344
vn -0.77048 0.372352 -0.517411
v 3.18492 0.0151076 -7.94455
vn -0.799757 0.279703 -0.531183
v 3.18317 0.00738228 -7.94525
vn -0.821331 0.184361 -0.539839
v 3.18207 -0.000486952 -7.94553
vn -0.834996 0.0872429 -0.543296
v 3.18161 -0.00842426 -7.94539
vn -0.840619 -0.0107152 -0.541521
v 3.18181 -0.0163532 -7.94482
vn -0.838146 -0.10857 -0.534531
v 3.18267 -0.0241974 -7.94384
vn -0.827602 -0.205379 -0.522393
v 3.18417 -0.0318814 -7.94245
vn -0.809087 -0.300211 -0.505224
v 3.1863 -0.0393311 -7.94066
vn -0.782781 -0.392151 -0.48319
v 3.18904 -0.0464748 -7.9385
vn -0.748935 -0.480314 -0.456502
v 3.19237 -0.0532436 -7.93598
vn -0.707878 -0.563852 -0.425418
v 3.19625 -0.0595725 -7.93313
vn -0.660002 -0.64196 -0.390236
v 3.20064 -0.0654004 -7.92998
vn -0.605771 -0.713885 -0.351297
v 3.20551 -0.0706713 -7.92655
vn -0.545706 -0.778935 -0.308974
v 3.2108 -0.0753343 -7.92288
vn -0.480385 -0.836484 -0.263676
v 3.21647 -0.0793446 -7.919
vn -0.410438 -0.885976 -0.215839
v 3.22246 -0.0826635 -7.91496
vn -0.336539 -0.926937 -0.165922
v 3.22871 -0.0852591 -7.91078
vn -0.259398 -0.95897 -0.114408
v 3.23516 -0.0871064 -7.90652
vn -0.179759 -0.981768 -0.0617925
v 3.24175 -0.0881875 -7.90221
vn -0.0983886 -0.995111 -0.00858146
v 3.24842 -0.0884921 -7.89789
vn -0.016071 -0.998871 0.0447122
v 3.25511 -0.0880173 -7.89361
vn 0.0664015 -0.993011 0.0975753
v 3.26174 -0.0867676 -7.8894
vn 0.148234 -0.977587 0.149499
v 3.26825 -0.084755 -7.88531
vn 0.22864 -0.952749 0.199982
v 3.27459 -0.081999 -7.88137
vn 0.306843 -0.918736 0.24854
v 3.28068 -0.078526 -7.87763
vn 0.382092 -0.875874 0.294704
v 3.28648 -0.0743696 -7.87412
vn 0.45366 -0.824578 0.33803
v 3.29193 -0.0695697 -7.87088
vn 0.52086 -0.76534 0.3781
v 3.29697 -0.0641726 -7.86792
vn 0.583043 -0.698731 0.41453
v 3.30155 -0.0582302 -7.8653
vn 0.639612 -0.625394 0.446967
v 3.30564 -0.0517998 -7.86302
vn 0.69002 -0.546033 0.475099
v 3.30918 -0.0449433 -7.86111
vn 0.733784 -0.461414 0.498656
v 3.31215 -0.0377268 -7.85959
vn 0.77048 -0.372352 0.517411
v 3.81609 -0.0715605 -8.64916
vn 0.809725 -0.280519 0.515417
v 3.81788 -0.0636365 -8.64843
vn 0.831252 -0.185172 0.524149
v 3.81901 -0.0555642 -8.64812
vn 0.844773 -0.0880427 0.527833
v 3.81945 -0.0474214 -8.64824
vn 0.850158 0.00993482 0.526434
v 3.81922 -0.0392866 -8.64878
vn 0.847356 0.107817 0.519965
v 3.81831 -0.0312381 -8.64973
vn 0.836393 0.20466 0.508489
v 3.81673 -0.0233534 -8.65109
vn 0.817376 0.299533 0.492115
v 3.8145 -0.0157085 -8.65285
vn 0.790486 0.39152 0.471003
v 3.81163 -0.00837687 -8.65498
vn 0.755984 0.479738 0.445354
v 3.80816 -0.00142925 -8.65747
vn 0.714201 0.563335 0.415416
v 3.80411 0.00506749 -8.66029
vn 0.665541 0.641507 0.381477
v 3.79953 0.0110508 -8.66341
vn 0.61047 0.713501 0.343865
v 3.79447 0.016463 -8.66681
vn 0.549521 0.778623 0.302941
v 3.78896 0.021252 -8.67046
vn 0.483279 0.836247 0.2591
v 3.78307 0.0253718 -8.67431
vn 0.412383 0.885817 0.212763
v 3.77685 0.0287825 -8.67833
vn 0.337516 0.926857 0.164377
v 3.77036 0.0314514 -8.68248
vn 0.259398 0.95897 0.114408
v 3.76366 0.0333527 -8.68673
vn 0.178782 0.981848 0.0633378
v 3.75681 0.0344682 -8.69102
vn 0.0964439 0.99527 0.0116572
v 3.74989 0.0347871 -8.69533
vn 0.0131773 0.999107 -0.0401356
v 3.74296 0.0343063 -8.6996
vn -0.0702162 0.993323 -0.0915419
v 3.73609 0.0330306 -8.7038
vn -0.152933 0.977972 -0.142067
v 3.72934 0.030972 -8.70788
vn -0.234178 0.953202 -0.191223
v 3.72277 0.0281505 -8.71182
vn -0.313167 0.919253 -0.238538
v 3.71646 0.0245933 -8.71556
vn -0.38914 0.876451 -0.283556
v 3.71046 0.0203346 -8.71907
vn -0.461366 0.825208 -0.325843
v 3.70482 0.0154154 -8.72232
vn -0.529148 0.766018 -0.364992
v 3.69961 0.00988312 -8.72529
vn -0.591835 0.699451 -0.400625
v 3.69488 0.003791 -8.72793
vn -0.648821 0.626147 -0.432401
v 3.69066 -0.00280228 -8.73022
vn -0.699559 0.546814 -0.460012
v 3.687 -0.00983322 -8.73215
vn -0.743561 0.462214 -0.483193
v 3.68394 -0.0172341 -8.73369
vn -0.780401 0.373163 -0.501721
v 3.6815 -0.0249337 -8.73483
vn -0.809725 0.280519 -0.515417
v 3.67972 -0.0328577 -8.73555
vn -0.831252 0.185172 -0.524149
v 3.67859 -0.04093 -8.73586
vn -0.844773 0.0880427 -0.527833
v 3.67814 -0.0490728 -8.73574
vn -0.850158 -0.00993482 -0.526434
v 3.67838 -0.0572076 -8.7352
vn -0.847356 -0.107817 -0.519965
v 3.67929 -0.0652561 -8.73425
vn -0.836393 -0.20466 -0.508489
v 3.68087 -0.0731408 -8.73289
vn -0.817376 -0.299533 -0.492115
v 3.6831 -0.0807857 -8.73113
vn -0.790486 -0.39152 -0.471003
v 3.68597 -0.0881173 -8.729
vn -0.755984 -0.479738 -0.445354
v 3.68944 -0.095065 -8.72652
vn -0.714201 -0.563335 -0.415416
v 3.69349 -0.101562 -8.72369
vn -0.665541 -0.641507 -0.381477
v 3.69806 -0.107545 -8.72057
vn -0.61047 -0.713501 -0.343865
v 3.70313 -0.112957 -8.71717
vn -0.549521 -0.778623 -0.302941
v 3.70863 -0.117746 -8.71352
vn -0.483279 -0.836247 -0.2591
v 3.71453 -0.121866 -8.70967
vn -0.412383 -0.885817 -0.212763
v 3.72075 -0.125277 -8.70565
vn -0.337516 -0.926857 -0.164377
v 3.72724 -0.127946 -8.7015
vn -0.259398 -0.95897 -0.114408
v 3.73394 -0.129847 -8.69725
vn -0.178782 -0.981848 -0.0633378
v 3.74078 -0.130962 -8.69296
vn -0.0964439 -0.99527 -0.0116572
v 3.7477 -0.131281 -8.68865
vn -0.0131773 -0.999107 0.0401356
v 3.75463 -0.130801 -8.68438
vn 0.0702162 -0.993323 0.0915419
v 3.76151 -0.129525 -8.68018
vn 0.152933 -0.977972 0.142067
v 3.76826 -0.127466 -8.6761
vn 0.234178 -0.953202 0.191223
v 3.77483 -0.124645 -8.67217
vn 0.313167 -0.919253 0.238538
v 3.78114 -0.121088 -8.66842
vn 0.38914 -0.876451 0.283556
v 3.78714 -0.116829 -8.66491
vn 0.461366 -0.825208 0.325843
v 3.79278 -0.11191 -8.66166
vn 0.529148 -0.766018 0.364992
v 3.79799 -0.106377 -8.6587
vn 0.591835 -0.699451 0.400625
v 3.80272 -0.100285 -8.65605
vn 0.648821 -0.626147 0.432401
v 3.80694 -0.0936919 -8.65376
vn 0.699559 -0.546814 0.460012
v 3.8106 -0.086661 -8.65183
vn 0.743561 -0.462214 0.483193
v 3.81366 -0.0792601 -8.65029
vn 0.780401 -0.373163 0.501721
v 4.37583 -0.113912 -9.56326
vn 0.817129 -0.281074 0.503287
v 4.37766 -0.105789 -9.56251
vn 0.838619 -0.185725 0.512078
v 4.37881 -0.0975141 -9.56218
vn 0.852034 -0.0885875 0.515937
v 4.37925 -0.0891663 -9.56227
vn 0.857243 0.00940321 0.514827
v 4.37899 -0.0808263 -9.56279
vn 0.854196 0.107303 0.508759
v 4.37803 -0.0725743 -9.56373
vn 0.842922 0.20417 0.497791
v 4.37638 -0.0644898 -9.56507
vn 0.823531 0.299071 0.48203
v 4.37405 -0.0566506 -9.56681
vn 0.796209 0.391091 0.461626
v 4.37107 -0.0491324 -9.56892
vn 0.761219 0.479345 0.436777
v 4.36746 -0.0420074 -9.5714
vn 0.718898 0.562982 0.407721
v 4.36327 -0.0353442 -9.57421
vn 0.669654 0.641198 0.374738
v 4.35852 -0.0292071 -9.57733
vn 0.61396 0.713239 0.338147
v 4.35328 -0.0236552 -9.58072
vn 0.552354 0.77841 0.298299
v 4.34757 -0.0187419 -9.58436
vn 0.485428 0.836086 0.255579
v 4.34148 -0.0145145 -9.58821
vn 0.413827 0.885709 0.210397
v 4.33504 -0.0110138 -9.59223
vn 0.338241 0.926802 0.163188
v 4.32832 -0.00827349 -9.59639
vn 0.259398 0.95897 0.114408
v 4.32139 -0.0063199 -9.60064
vn 0.178056 0.981902 0.0645267
v 4.31431 -0.00517188 -9.60494
vn 0.0949996 0.995379 0.0140236
v 4.30716 -0.00484048 -9.60925
vn 0.0110282 0.999269 -0.0366146
v 4.3 -0.00532891 -9.61354
vn -0.0730494 0.993535 -0.0869001
v 4.2929 -0.00663245 -9.61775
vn -0.156423 0.978233 -0.136349
v 4.28592 -0.00873855 -9.62185
vn -0.238291 0.953511 -0.184484
v 4.27914 -0.0116269 -9.6258
vn -0.317864 0.919605 -0.230843
v 4.27262 -0.0152698 -9.62956
vn -0.394375 0.876844 -0.274979
v 4.26643 -0.019632 -9.63309
vn -0.467089 0.825637 -0.316466
v 4.26062 -0.0246716 -9.63637
vn -0.535304 0.76648 -0.354906
v 4.25525 -0.03034 -9.63935
vn -0.598364 0.699941 -0.389928
v 4.25037 -0.0365827 -9.64201
vn -0.655661 0.626661 -0.421195
v 4.24602 -0.0433395 -9.64433
vn -0.706644 0.547345 -0.448405
v 4.24226 -0.0505453 -9.64628
vn -0.750822 0.462759 -0.471297
v 4.23911 -0.0581308 -9.64785
vn -0.787769 0.373716 -0.48965
v 4.23661 -0.0660229 -9.64901
vn -0.817129 0.281074 -0.503287
v 4.23478 -0.0741456 -9.64976
vn -0.838619 0.185725 -0.512078
v 4.23364 -0.0824207 -9.65008
vn -0.852034 0.0885875 -0.515937
v 4.23319 -0.0907684 -9.64999
vn -0.857243 -0.00940321 -0.514827
v 4.23345 -0.0991085 -9.64947
vn -0.854196 -0.107303 -0.508759
v 4.23441 -0.10736 -9.64854
vn -0.842922 -0.20417 -0.497791
v 4.23607 -0.115445 -9.6472
vn -0.823531 -0.299071 -0.48203
v 4.23839 -0.123284 -9.64546
vn -0.796209 -0.391091 -0.461626
v 4.24137 -0.130802 -9.64334
vn -0.761219 -0.479345 -0.436777
v 4.24498 -0.137927 -9.64087
vn -0.718898 -0.562982 -0.407721
v 4.24917 -0.144591 -9.63806
vn -0.669654 -0.641198 -0.374738
v 4.25392 -0.150728 -9.63494
vn -0.61396 -0.713239 -0.338147
v 4.25917 -0.15628 -9.63154
vn -0.552354 -0.77841 -0.298299
v 4.26487 -0.161193 -9.62791
vn -0.485428 -0.836086 -0.255579
v 4.27097 -0.16542 -9.62406
vn -0.413827 -0.885709 -0.210397
v 4.27741 -0.168921 -9.62003
vn -0.338241 -0.926802 -0.163188
v 4.28412 -0.171661 -9.61588
vn -0.259398 -0.95897 -0.114408
v 4.29105 -0.173615 -9.61163
vn -0.178056 -0.981902 -0.0645267
v 4.29813 -0.174763 -9.60733
vn -0.0949996 -0.995379 -0.0140236
v 4.30528 -0.175094 -9.60301
vn -0.0110282 -0.999269 0.0366146
v 4.31244 -0.174606 -9.59873
vn 0.0730494 -0.993535 0.0869001
v 4.31955 -0.173302 -9.59452
vn 0.156423 -0.978233 0.136349
v 4.32652 -0.171196 -9.59042
vn 0.238291 -0.953511 0.184484
v 4.3333 -0.168308 -9.58647
vn 0.317864 -0.919605 0.230843
v 4.33982 -0.164665 -9.58271
vn 0.394375 -0.876844 0.274979
v 4.34601 -0.160303 -9.57917
vn 0.467089 -0.825637 0.316466
v 4.35182 -0.155263 -9.5759
vn 0.535304 -0.76648 0.354906
v 4.3572 -0.149595 -9.57291
vn 0.598364 -0.699941 0.389928
v 4.36208 -0.143352 -9.57025
vn 0.655661 -0.626661 0.421195
v 4.36642 -0.136595 -9.56793
vn 0.706644 -0.547345 0.448405
v 4.37018 -0.129389 -9.56598
vn 0.750822 -0.462759 0.471297
v 4.37333 -0.121804 -9.56442
vn 0.787769 -0.373716 0.48965
v 4.9938 -0.157281 -10.6009
vn 0.822838 -0.281471 0.493672
v 4.99567 -0.14896 -10.6001
vn 0.844301 -0.18612 0.502509
v 4.99684 -0.140482 -10.5997
vn 0.857633 -0.088977 0.506506
v 4.99728 -0.131929 -10.5998
vn 0.862706 0.00902319 0.505626
v 4.997 -0.123384 -10.6003
vn 0.85947 0.106936 0.499876
v 4.99599 -0.114929 -10.6012
vn 0.847957 0.20382 0.489312
v 4.99427 -0.106646 -10.6026
vn 0.828278 0.29874 0.474035
v 4.99186 -0.0986131 -10.6043
vn 0.800622 0.390784 0.454194
v 4.98877 -0.0909089 -10.6064
vn 0.765256 0.479064 0.429978
v 4.98505 -0.0836074 -10.6089
vn 0.72252 0.56273 0.401621
v 4.98071 -0.0767787 -10.6117
vn 0.672825 0.640977 0.369397
v 4.97581 -0.0704888 -10.6148
vn 0.616651 0.713051 0.333615
v 4.97039 -0.0647982 -10.6182
vn 0.554539 0.778258 0.29462
v 4.9645 -0.0597617 -10.6219
vn 0.487085 0.83597 0.252787
v 4.9582 -0.0554278 -10.6257
vn 0.414941 0.885631 0.208521
v 4.95156 -0.0518382 -10.6298
vn 0.338801 0.926763 0.162246
v 4.94463 -0.0490275 -10.634
vn 0.259398 0.95897 0.114408
v 4.93748 -0.0470228 -10.6382
vn 0.177496 0.981941 0.0654691
v 4.93018 -0.0458434 -10.6426
vn 0.0938858 0.995456 0.0158994
v 4.92281 -0.0455006 -10.6469
vn 0.009371 0.999384 -0.0338235
v 4.91543 -0.0459978 -10.6512
vn -0.0752341 0.993687 -0.0832206
v 4.90811 -0.0473301 -10.6554
vn -0.159115 0.978421 -0.131816
v 4.90092 -0.0494847 -10.6596
vn -0.241463 0.953731 -0.179143
v 4.89393 -0.0524409 -10.6636
vn -0.321485 0.919857 -0.224744
v 4.88722 -0.0561702 -10.6673
vn -0.398412 0.877124 -0.26818
v 4.88084 -0.0606367 -10.6709
vn -0.471502 0.825944 -0.309034
v 4.87486 -0.0657973 -10.6742
vn -0.540051 0.76681 -0.346912
v 4.86933 -0.0716025 -10.6772
vn -0.603399 0.700291 -0.381448
v 4.86431 -0.0779962 -10.6799
vn -0.660936 0.627027 -0.412312
v 4.85985 -0.0849168 -10.6823
vn -0.712107 0.547725 -0.439204
v 4.85598 -0.0922979 -10.6842
vn -0.756421 0.463149 -0.461867
v 4.85275 -0.100068 -10.6858
vn -0.79345 0.374111 -0.480081
v 4.85018 -0.108153 -10.687
vn -0.822838 0.281471 -0.493672
v 4.84831 -0.116474 -10.6878
vn -0.844301 0.18612 -0.502509
v 4.84715 -0.124952 -10.6881
vn -0.857633 0.088977 -0.506506
v 4.8467 -0.133504 -10.6881
vn -0.862706 -0.00902319 -0.505626
v 4.84699 -0.142049 -10.6876
vn -0.85947 -0.106936 -0.499876
v 4.84799 -0.150504 -10.6866
vn -0.847957 -0.20382 -0.489312
v 4.84971 -0.158788 -10.6853
vn -0.828278 -0.29874 -0.474035
v 4.85212 -0.166821 -10.6836
vn -0.800622 -0.390784 -0.454194
v 4.85521 -0.174525 -10.6815
vn -0.765256 -0.479064 -0.429978
v 4.85894 -0.181826 -10.679
vn -0.72252 -0.56273 -0.401621
v 4.86327 -0.188655 -10.6762
vn -0.672825 -0.640977 -0.369397
v 4.86818 -0.194945 -10.6731
vn -0.616651 -0.713051 -0.333615
v 4.8736 -0.200635 -10.6697
vn -0.554539 -0.778258 -0.29462
v 4.87948 -0.205672 -10.666
vn -0.487085 -0.83597 -0.252787
v 4.88578 -0.210006 -10.6621
vn -0.414941 -0.885631 -0.208521
v 4.89242 -0.213595 -10.6581
vn -0.338801 -0.926763 -0.162246
v 4.89935 -0.216406 -10.6539
vn -0.259398 -0.95897 -0.114408
v 4.9065 -0.218411 -10.6497
vn -0.177496 -0.981941 -0.0654691
v 4.9138 -0.21959 -10.6453
vn -0.0938858 -0.995456 -0.0158994
v 4.92117 -0.219933 -10.641
vn -0.009371 -0.999384 0.0338235
v 4.92856 -0.219436 -10.6367
vn 0.0752341 -0.993687 0.0832206
v 4.93588 -0.218104 -10.6324
vn 0.159115 -0.978421 0.131816
v 4.94306 -0.215949 -10.6283
vn 0.241463 -0.953731 0.179143
v 4.95005 -0.212993 -10.6243
vn 0.321485 -0.919857 0.224744
v 4.95676 -0.209263 -10.6205
vn 0.398412 -0.877124 0.26818
v 4.96314 -0.204797 -10.617
vn 0.471502 -0.825944 0.309034
v 4.96912 -0.199636 -10.6137
vn 0.540051 -0.76681 0.346912
v 4.97465 -0.193831 -10.6107
vn 0.603399 -0.700291 0.381448
v 4.97967 -0.187437 -10.608
vn 0.660936 -0.627027 0.412312
v 4.98414 -0.180517 -10.6056
vn 0.712107 -0.547725 0.439204
v 4.988 -0.173136 -10.6036
vn 0.756421 -0.463149 0.461867
v 4.99124 -0.165366 -10.602
vn 0.79345 -0.374111 0.480081
f 1 66 2 
f 1 65 66 
f 2 67 3 
f 2 66 67 
f 3 68 4 
f 3 67 68 
f 4 69 5 
f 4 68 69 
f 5 70 6 
f 5 69 70 
f 6 71 7 
f 6 70 71 
f 7 72 8 
f 7 71 72 
f 8 73 9 
f 8 72 73 
f 9 74 10 
f 9 73 74 
f 10 75 11 
f 10 74 75 
f 11 76 12 
f 11 75 76 
f 12 77 13 
f 12 76 77 
f 13 78 14 
f 13 77 78 
f 14 79 15 
f 14 78 79 
f 15 80 16 
f 15 79 80 
f 16 81 17 
f 16 80 81 
f 17 82 18 
f 17 81 82 
f 18 83 19 
f 18 82 83 
f 19 84 20 
f 19 83 84 
f 20 85 21 
f 20 84 85 
f 21 86 22 
f 21 85 86 
f 22 87 23 
f 22 86 87 
f 23 88 24 
f 23 87 88 
f 24 89 25 
f 24 88 89 
f 25 90 26 
f 25 89 90 
f 26 91 27 
f 26 90 91 
f 27 92 28 
f 27 91 92 
f 28 93 29 
f 28 92 93 
f 29 94 30 
f 29 93 94 
f 30 95 31 
f 30 94 95 
f 31 96 32 
f 31 95 96 
f 32 97 33 
f 32 96 97 
f 33 98 34 
f 33 97 98 
f 34 99 35 
f 34 98 99 
f 35 100 36 
f 35 99 100 
f 36 101 37 
f 36 100 101 
f 37 102 38 
f 37 101 102 
f 38 103 39 
f 38 102 103 
f 39 104 40 
f 39 103 104 
f 40 105 41 
f 40 104 105 
f 41 106 42 
f 41 105 106 
f 42 107 43 
f 42 106 107 
f 43 108 44 
f 43 107 108 
f 44 109 45 
f 44 108 109 
f 45 110 46 
f 45 109 110 
f 46 111 47 
f 46 110 111 
f 47 112 48 
f 47 111 112 
f 48 113 49 
f 48 112 113 
f 49 114 50 
f 49 113 114 
f 50 115 51 
f 50 114 115 
f 51 116 52 
f 51 115 116 
f 52 117 53 
f 52 116 117 
f 53 118 54 
f 53 117 118 
f 54 119 55 
f 54 118 119 
f 55 120 56 
f 55 119 120 
f 56 121 57 
f 56 120 121 
f 57 122 58 
f 57 121 122 
f 58 123 59 
f 58 122 123 
f 59 124 60 
f 59 123 124 
f 60 125 61 
f 60 124 125 
f 61 126 62 
f 61 125 126 
f 62 127 63 
f 62 126 127 
f 63 128 64 
f 63 127 128 
f 64 65 1 
f 64 128 65 
f 65 130 66 
f 65 129 130 
f 66 131 67 
f 66 130 131 
f 67 132 68 
f 67 131 132 
f 68 133 69 
f 68 132 133 
f 69 134 70 
f 69 133 134 
f 70 135 71 
f 70 134 135 
f 71 136 72 
f 71 135 136 
f 72 137 73 
f 72 136 137 
f 73 138 74 
f 73 137 138 
f 74 139 75 
f 74 138 139 
f 75 140 76 
f 75 139 140 
f 76 141 77 
f 76 140 141 
f 77 142 78 
f 77 141 142 
f 78 143 79 
f 78 142 143 
f 79 144 80 
f 79 143 144 
f 80 145 81 
f 80 144 145 
f 81 146 82 
f 81 145 146 
f 82 147 83 
f 82 146 147 
f 83 148 84 
f 83 147 148 
f 84 149 85 
f 84 148 149 
f 85 150 86 
f 85 149 150 
f 86 151 87 
f 86 150 151 
f 87 152 88 
f 87 151 152 
f 88 153 89 
f 88 152 153 
f 89 154 90 
f 89 153 154 
f 90 155 91 
f 90 154 155 
f 91 156 92 
f 91 155 156 
f 92 157 93 
f 92 156 157 
f 93 158 94 
f 93 157 158 
f 94 159 95 
f 94 158 159 
f 95 160 96 
f 95 159 160 
f 96 161 97 
f 96 160 161 
f 97 162 98 
f 97 161 162 
f 98 163 99 
f 98 162 163 
f 99 164 100 
f 99 163 164 
f 100 165 101 
f 100 164 165 
f 101 166 102 
f 101 165 166 
f 102 167 103 
f 102 166 167 
f 103 168 104 
f 103 167 168 
f 104 169 105 
f 104 168 169 
f 105 170 106 
f 105 169 170 
f 106 171 107 
f 106 170 171 
f 107 172 108 
f 107 171 172 
f 108 173 109 
f 108 172 173 
f 109 174 110 
f 109 173 174 
f 110 175 111 
f 110 174 175 
f 111 176 112 
f 111 175 176 
f 112 177 113 
f 112 176 177 
f 113 178 114 
f 113 177 178 
f 114 179 115 
f 114 178 179 
f 115 180 116 
f 115 179 180 
f 116 181 117 
f 116 180 181 
f 117 182 118 
f 117 181 182 
f 118 183 119 
f 118 182 183 
f 119 184 120 
f 119 183 184 
f 120 185 121 
f 120 184 185 
f 121 186 122 
f 121 185 186 
f 122 187 123 
f 122 186 187 
f 123 188 124 
f 123 187 188 
f 124 189 125 
f 124 188 189 
f 125 190 126 
f 125 189 190 
f 126 191 127 
f 126 190 191 
f 127 192 128 
f 127 191 192 
f 128 129 65 
f 128 192 129 
f 129 194 130 
f 129 193 194 
f 130 195 131 
f 130 194 195 
f 131 196 132 
f 131 195 196 
f 132 197 133 
f 132 196 197 
f 133 198 134 
f 133 197 198 
f 134 199 135 
f 134 198 199 
f 135 200 136 
f 135 199 200 
f 136 201 137 
f 136 200 201 
f 137 202 138 
f 137 201 202 
f 138 203 139 
f 138 202 203 
f 139 204 140 
f 139 203 204 
f 140 205 141 
f 140 204 205 
f 141 206 142 
f 141 205 206 
f 142 207 143 
f 142 206 207 
f 143 208 144 
f 143 207 208 
f 144 209 145 
f 144 208 209 
f 145 210 146 
f 145 209 210 
f 146 211 147 
f 146 210 211 
f 147 212 148 
f 147 211 212 
f 148 213 149 
f 148 212 213 
f 149 214 150 
f 149 213 214 
f 150 215 151 
f 150 214 215 
f 151 216 152 
f 151 215 216 
f 152 217 153 
f 152 216 217 
f 153 218 154 
f 153 217 218 
f 154 219 155 
f 154 218 219 
f 155 220 156 
f 155 219 220 
f 156 221 157 
f 156 220 221 
f 157 222 158 
f 157 221 222 
f 158 223 159 
f 158 222 223 
f 159 224 160 
f 159 223 224 
f 160 225 161 
f 160 224 225 
f 161 226 162 
f 161 225 226 
f 162 227 163 
f 162 226 227 
f 163 228 164 
f 163 227 228 
f 164 229 165 
f 164 228 229 
f 165 230 166 
f 165 229 230 
f 166 231 167 
f 166 230 231 
f 167 232 168 
f 167 231 232 
f 168 233 169 
f 168 232 233 
f 169 234 170 
f 169 233 234 
f 170 235 171 
f 170 234 235 
f 171 236 172 
f 171 235 236 
f 172 237 173 
f 172 236 237 
f 173 238 174 
f 173 237 238 
f 174 239 175 
f 174 238 239 
f 175 240 176 
f 175 239 240 
f 176 241 177 
f 176 240 241 
f 177 242 178 
f 177 241 242 
f 178 243 179 
f 178 242 243 
f 179 244 180 
f 179 243 244 
f 180 245 181 
f 180 244 245 
f 181 246 182 
f 181 245 246 
f 182 247 183 
f 182 246 247 
f 183 248 184 
f 183 247 248 
f 184 249 185 
f 184 248 249 
f 185 250 186 
f 185 249 250 
f 186 251 187 
f 186 250 251 
f 187 252 188 
f 187 251 252 
f 188 253 189 
f 188 252 253 
f 189 254 190 
f 189 253 254 
f 190 255 191 
f 190 254 255 
f 191 256 192 
f 191 255 256 
f 192 193 129 
f 192 256 193 
f 193 258 194 
f 193 257 258 
f 194 259 195 
f 194 258 259 
f 195 260 196 
f 195 259 260 
f 196 261 197 
f 196 260 261 
f 197 262 198 
f 197 261 262 
f 198 263 199 
f 198 262 263 
f 199 264 200 
f 199 263 264 
f 200 265 201 
f 200 264 265 
f 201 266 202 
f 201 265 266 
f 202 267 203 
f 202 266 267 
f 203 268 204 
f 203 267 268 
f 204 269 205 
f 204 268 269 
f 205 270 206 
f 205 269 270 
f 206 271 207 
f 206 270 271 
f 207 272 208 
f 207 271 272 
f 208 273 209 
f 208 272 273 
f 209 274 210 
f 209 273 274 
f 210 275 211 
f 210 274 275 
f 211 276 212 
f 211 275 276 
f 212 277 213 
f 212 276 277 
f 213 278 214 
f 213 277 278 
f 214 279 215 
f 214 278 279 
f 215 280 216 
f 215 279 280 
f 216 281 217 
f 216 280 281 
f 217 282 218 
f 217 281 282 
f 218 283 219 
f 218 282 283 
f 219 284 220 
f 219 283 284 
f 220 285 221 
f 220 284 285 
f 221 286 222 
f 221 285 286 
f 222 287 223 
f 222 286 287 
f 223 288 224 
f 223 287 288 
f 224 289 225 
f 224 288 289 
f 225 290 226 
f 225 289 290 
f 226 291 227 
f 226 290 291 
f 227 292 228 
f 227 291 292 
f 228 293 229 
f 228 292 293 
f 229 294 230 
f 229 293 294 
f 230 295 231 
f 230 294 295 
f 231 296 232 
f 231 295 296 
f 232 297 233 
f 232 296 297 
f 233 298 234 
f 233 297 298 
f 234 299 235 
f 234 298 299 
f 235 300 236 
f 235 299 300 
f 236 301 237 
f 236 300 301 
f 237 302 238 
f 237 301 302 
f 238 303 239 
f 238 302 303 
f 239 304 240 
f 239 303 304 
f 240 305 241 
f 240 304 305 
f 241 306 242 
f 241 305 306 
f 242 307 243 
f 242 306 307 
f 243 308 244 
f 243 307 308 
f 244 309 245 
f 244 308 309 
f 245 310 246 
f 245 309 310 
f 246 311 247 
f 246 310 311 
f 247 312 248 
f 247 311 312 
f 248 313 249 
f 248 312 313 
f 249 314 250 
f 249 313 314 
f 250 315 251 
f 250 314 315 
f 251 316 252 
f 251 315 316 
f 252 317 253 
f 252 316 317 
f 253 318 254 
f 253 317 318 
f 254 319 255 
f 254 318 319 
f 255 320 256 
f 255 319 320 
f 256 257 193 
f 256 320 257 
f 257 322 258 
f 257 321 322 
f 258 323 259 
f 258 322 323 
f 259 324 260 
f 259 323 324 
f 260 325 261 
f 260 324 325 
f 261 326 262 
f 261 325 326 
f 262 327 263 
f 262 326 327 
f 263 328 264 
f 263 327 328 
f 264 329 265 
f 264 328 329 
f 265 330 266 
f 265 329 330 
f 266 331 267 
f 266 330 331 
f 267 332 268 
f 267 331 332 
f 268 333 269 
f 268 332 333 
f 269 334 270 
f 269 333 334 
f 270 335 271 
f 270 334 335 
f 271 336 272 
f 271 335 336 
f 272 337 273 
f 272 336 337 
f 273 338 274 
f 273 337 338 
f 274 339 275 
f 274 338 339 
f 275 340 276 
f 275 339 340 
f 276 341 277 
f 276 340 341 
f 277 342 278 
f 277 341 342 
f 278 343 279 
f 278 342 343 
f 279 344 280 
f 279 343 344 
f 280 345 281 
f 280 344 345 
f 281 346 282 
f 281 345 346 
f 282 347 283 
f 282 346 347 
f 283 348 284 
f 283 347 348 
f 284 349 285 
f 284 348 349 
f 285 350 286 
f 285 349 350 
f 286 351 287 
f 286 350 351 
f 287 352 288 
f 287 351 352 
f 288 353 289 
f 288 352 353 
f 289 354 290 
f 289 353 354 
f 290 355 291 
f 290 354 355 
f 291 356 292 
f 291 355 356 
f 292 357 293 
f 292 356 357 
f 293 358 294 
f 293 357 358 
f 294 359 295 
f 294 358 359 
f 295 360 296 
f 295 359 360 
f 296 361 297 
f 296 360 361 
f 297 362 298 
f 297 361 362 
f 298 363 299 
f 298 362 363 
f 299 364 300 
f 299 363 364 
f 300 365 301 
f 300 364 365 
f 301 366 302 
f 301 365 366 
f 302 367 303 
f 302 366 367 
f 303 368 304 
f 303 367 368 
f 304 369 305 
f 304 368 369 
f 305 370 306 
f 305 369 370 
f 306 371 307 
f 306 370 371 
f 307 372 308 
f 307 371 372 
f 308 373 309 
f 308 372 373 
f 309 374 310 
f 309 373 374 
f 310 375 311 
f 310 374 375 
f 311 376 312 
f 311 375 376 
f 312 377 313 
f 312 376 377 
f 313 378 314 
f 313 377 378 
f 314 379 315 
f 314 378 379 
f 315 380 316 
f 315 379 380 
f 316 381 317 
f 316 380 381 
f 317 382 318 
f 317 381 382 
f 318 383 319 
f 318 382 383 
f 319 384 320 
f 319 383 384 
f 320 321 257 
f 320 384 321 
f 321 386 322 
f 321 385 386 
f 322 387 323 
f 322 386 387 
f 323 388 324 
f 323 387 388 
f 324 389 325 
f 324 388 389 
f 325 390 326 
f 325 389 390 
f 326 391 327 
f 326 390 391 
f 327 392 328 
f 327 391 392 
f 328 393 329 
f 328 392 393 
f 329 394 330 
f 329 393 394 
f 330 395 331 
f 330 394 395 
f 331 396 332 
f 331 395 396 
f 332 397 333 
f 332 396 397 
f 333 398 334 
f 333 397 398 
f 334 399 335 
f 334 398 399 
f 335 400 336 
f 335 399 400 
f 336 401 337 
f 336 400 401 
f 337 402 338 
f 337 401 402 
f 338 403 339 
f 338 402 403 
f 339 404 340 
f 339 403 404 
f 340 405 341 
f 340 404 405 
f 341 406 342 
f 341 405 406 
f 342 407 343 
f 342 406 407 
f 343 408 344 
f 343 407 408 
f 344 409 345 
f 344 408 409 
f 345 410 346 
f 345 409 410 
f 346 411 347 
f 346 410 411 
f 347 412 348 
f 347 411 412 
f 348 413 349 
f 348 412 413 
f 349 414 350 
f 349 413 414 
f 350 415 351 
f 350 414 415 
f 351 416 352 
f 351 415 416 
f 352 417 353 
f 352 416 417 
f 353 418 354 
f 353 417 418 
f 354 419 355 
f 354 418 419 
f 355 420 356 
f 355 419 420 
f 356 421 357 
f 356 420 421 
f 357 422 358 
f 357 421 422 
f 358 423 359 
f 358 422 423 
f 359 424 360 
f 359 423 424 
f 360 425 361 
f 360 424 425 
f 361 426 362 
f 361 425 426 
f 362 427 363 
f 362 426 427 
f 363 428 364 
f 363 427 428 
f 364 429 365 
f 364 428 429 
f 365 430 366 
f 365 429 430 
f 366 431 367 
f 366 430 431 
f 367 432 368 
f 367 431 432 
f 368 433 369 
f 368 432 433 
f 369 434 370 
f 369 433 434 
f 370 435 371 
f 370 434 435 
f 371 436 372 
f 371 435 436 
f 372 437 373 
f 372 436 437 
f 373 438 374 
f 373 437 438 
f 374 439 375 
f 374 438 439 
f 375 440 376 
f 375 439 440 
f 376 441 377 
f 376 440 441 
f 377 442 378 
f 377 441 442 
f 378 443 379 
f 378 442 443 
f 379 444 380 
f 379 443 444 
f 380 445 381 
f 380 444 445 
f 381 446 382 
f 381 445 446 
f 382 447 383 
f 382 446 447 
f 383 448 384 
f 383 447 448 
f 384 385 321 
f 384 448 385 
f 385 450 386 
f 385 449 450 
f 386 451 387 
f 386 450 451 
f 387 452 388 
f 387 451 452 
f 388 453 389 
f 388 452 453 
f 389 454 390 
f 389 453 454 
f 390 455 391 
f 390 454 455 
f 391 456 392 
f 391 455 456 
f 392 457 393 
f 392 456 457 
f 393 458 394 
f 393 457 458 
f 394 459 395 
f 394 458 459 
f 395 460 396 
f 395 459 460 
f 396 461 397 
f 396 460 461 
f 397 462 398 
f 397 461 462 
f 398 463 399 
f 398 462 463 
f 399 464 400 
f 399 463 464 
f 400 465 401 
f 400 464 465 
f 401 466 402 
f 401 465 466 
f 402 467 403 
f 402 466 467 
f 403 468 404 
f 403 467 468 
f 404 469 405 
f 404 468 469 
f 405 470 406 
f 405 469 470 
f 406 471 407 
f 406 470 471 
f 407 472 408 
f 407 471 472 
f 408 473 409 
f 408 472 473 
f 409 474 410 
f 409 473 474 
f 410 475 411 
f 410 474 475 
f 411 476 412 
f 411 475 476 
f 412 477 413 
f 412 476 477 
f 413 478 414 
f 413 477 478 
f 414 479 415 
f 414 478 479 
f 415 480 416 
f 415 479 480 
f 416 481 417 
f 416 480 481 
f 417 482 418 
f 417 481 482 
f 418 483 419 
f 418 482 483 
f 419 484 420 
f 419 483 484 
f 420 485 421 
f 420 484 485 
f 421 486 422 
f 421 485 486 
f 422 487 423 
f 422 486 487 
f 423 488 424 
f 423 487 488 
f 424 489 425 
f 424 488 489 
f 425 490 426 
f 425 489 490 
f 426 491 427 
f 426 490 491 
f 427 492 428 
f 427 491 492 
f 428 493 429 
f 428 492 493 
f 429 494 430 
f 429 493 494 
f 430 495 431 
f 430 494 495 
f 431 496 432 
f 431 495 496 
f 432 497 433 
f 432 496 497 
f 433 498 434 
f 433 497 498 
f 434 499 435 
f 434 498 499 
f 435 500 436 
f 435 499 500 
f 436 501 437 
f 436 500 501 
f 437 502 438 
f 437 501 502 
f 438 503 439 
f 438 502 503 
f 439 504 440 
f 439 503 504 
f 440 505 441 
f 440 504 505 
f 441 506 442 
f 441 505 506 
f 442 507 443 
f 442 506 507 
f 443 508 444 
f 443 507 508 
f 444 509 445 
f 444 508 509 
f 445 510 446 
f 445 509 510 
f 446 511 447 
f 446 510 511 
f 447 512 448 
f 447 511 512 
f 448 449 385 
f 448 512 449 
f 449 514 450 
f 449 513 514 
f 450 515 451 
f 450 514 515 
f 451 516 452 
f 451 515 516 
f 452 517 453 
f 452 516 517 
f 453 518 454 
f 453 517 518 
f 454 519 455 
f 454 518 519 
f 455 520 456 
f 455 519 520 
f 456 521 457 
f 456 520 521 
f 457 522 458 
f 457 521 522 
f 458 523 459 
f 458 522 523 
f 459 524 460 
f 459 523 524 
f 460 525 461 
f 460 524 525 
f 461 526 462 
f 461 525 526 
f 462 527 463 
f 462 526 527 
f 463 528 464 
f 463 527 528 
f 464 529 465 
f 464 528 529 
f 465 530 466 
f 465 529 530 
f 466 531 467 
f 466 530 531 
f 467 532 468 
f 467 531 532 
f 468 533 469 
f 468 532 533 
f 469 534 470 
f 469 533 534 
f 470 535 471 
f 470 534 535 
f 471 536 472 
f 471 535 536 
f 472 537 473 
f 472 536 537 
f 473 538 474 
f 473 537 538 
f 474 539 475 
f 474 538 539 
f 475 540 476 
f 475 539 540 
f 476 541 477 
f 476 540 541 
f 477 542 478 
f 477 541 542 
f 478 543 479 
f 478 542 543 
f 479 544 480 
f 479 543 544 
f 480 545 481 
f 480 544 545 
f 481 546 482 
f 481 545 546 
f 482 547 483 
f 482 546 547 
f 483 548 484 
f 483 547 548 
f 484 549 485 
f 484 548 549 
f 485 550 486 
f 485 549 550 
f 486 551 487 
f 486 550 551 
f 487 552 488 
f 487 551 552 
f 488 553 489 
f 488 552 553 
f 489 554 490 
f 489 553 554 
f 490 555 491 
f 490 554 555 
f 491 556 492 
f 491 555 556 
f 492 557 493 
f 492 556 557 
f 493 558 494 
f 493 557 558 
f 494 559 495 
f 494 558 559 
f 495 560 496 
f 495 559 560 
f 496 561 497 
f 496 560 561 
f 497 562 498 
f 497 561 562 
f 498 563 499 
f 498 562 563 
f 499 564 500 
f 499 563 564 
f 500 565 501 
f 500 564 565 
f 501 566 502 
f 501 565 566 
f 502 567 503 
f 502 566 567 
f 503 568 504 
f 503 567 568 
f 504 569 505 
f 504 568 569 
f 505 570 506 
f 505 569 570 
f 506 571 507 
f 506 570 571 
f 507 572 508 
f 507 571 572 
f 508 573 509 
f 508 572 573 
f 509 574 510 
f 509 573 574 
f 510 575 511 
f 510 574 575 
f 511 576 512 
f 511 575 576 
f 512 513 449 
f 512 576 513 
f 513 578 514 
f 513 577 578 
f 514 579 515 
f 514 578 579 
f 515 580 516 
f 515 579 580 
f 516 581 517 
f 516 580 581 
f 517 582 518 
f 517 581 582 
f 518 583 519 
f 518 582 583 
f 519 584 520 
f 519 583 584 
f 520 585 521 
f 520 584 585 
f 521 586 522 
f 521 585 586 
f 522 587 523 
f 522 586 587 
f 523 588 524 
f 523 587 588 
f 524 589 525 
f 524 588 589 
f 525 590 526 
f 525 589 590 
f 526 591 527 
f 526 590 591 
f 527 592 528 
f 527 591 592 
f 528 593 529 
f 528 592 593 
f 529 594 530 
f 529 593 594 
f 530 595 531 
f 530 594 595 
f 531 596 532 
f 531 595 596 
f 532 597 533 
f 532 596 597 
f 533 598 534 
f 533 597 598 
f 534 599 535 
f 534 598 599 
f 535 600 536 
f 535 599 600 
f 536 601 537 
f 536 600 601 
f 537 602 538 
f 537 601 602 
f 538 603 539 
f 538 602 603 
f 539 604 540 
f 539 603 604 
f 540 605 541 
f 540 604 605 
f 541 606 542 
f 541 605 606 
f 542 607 543 
f 542 606 607 
f 543 608 544 
f 543 607 608 
f 544 609 545 
f 544 608 609 
f 545 610 546 
f 545 609 610 
f 546 611 547 
f 546 610 611 
f 547 612 548 
f 547 611 612 
f 548 613 549 
f 548 612 613 
f 549 614 550 
f 549 613 614 
f 550 615 551 
f 550 614 615 
f 551 616 552 
f 551 615 616 
f 552 617 553 
f 552 616 617 
f 553 618 554 
f 553 617 618 
f 554 619 555 
f 554 618 619 
f 555 620 556 
f 555 619 620 
f 556 621 557 
f 556 620 621 
f 557 622 558 
f 557 621 622 
f 558 623 559 
f 558 622 623 
f 559 624 560 
f 559 623 624 
f 560 625 561 
f 560 624 625 
f 561 626 562 
f 561 625 626 
f 562 627 563 
f 562 626 627 
f 563 628 564 
f 563 627 628 
f 564 629 565 
f 564 628 629 
f 565 630 566 
f 565 629 630 
f 566 631 567 
f 566 630 631 
f 567 632 568 
f 567 631 632 
f 568 633 569 
f 568 632 633 
f 569 634 570 
f 569 633 634 
f 570 635 571 
f 570 634 635 
f 571 636 572 
f 571 635 636 
f 572 637 573 
f 572 636 637 
f 573 638 574 
f 573 637 638 
f 574 639 575 
f 574 638 639 
f 575 640 576 
f 575 639 640 
f 576 577 513 
f 576 640 577 
