# Branch
v -12.3729 9.94144 -27.6885
vn -0.371752 0.0142695 -0.928222
v -12.4026 9.94143 -27.6748
vn -0.460953 0.0142374 -0.88731
v -12.4309 9.94138 -27.6583
vn -0.545714 0.0140683 -0.837853
v -12.4574 9.94127 -27.6391
vn -0.62522 0.0137637 -0.780327
v -12.4819 9.94113 -27.6174
vn -0.698705 0.0133265 -0.715286
v -12.5042 9.94094 -27.5935
vn -0.765461 0.012761 -0.643356
v -12.524 9.94071 -27.5674
vn -0.824845 0.0120725 -0.56523
v -12.5412 9.94044 -27.5395
vn -0.876285 0.0112679 -0.481661
v -12.5555 9.94014 -27.5101
vn -0.919286 0.0103547 -0.393453
v -12.5669 9.9398 -27.4794
vn -0.953434 0.00934173 -0.301456
v -12.5752 9.93943 -27.4478
vn -0.9784 0.00823884 -0.206556
v -12.5804 9.93904 -27.4154
vn -0.993943 0.00705661 -0.109667
v -12.5824 9.93862 -27.3828
vn -0.999914 0.00580642 -0.0117214
v -12.5812 9.93818 -27.3501
vn -0.996256 0.00450031 0.0863371
v -12.5768 9.93773 -27.3176
vn -0.983003 0.00315086 0.183564
v -12.5692 9.93727 -27.2858
vn -0.960283 0.00177107 0.279023
v -12.5585 9.93681 -27.2548
vn -0.928315 0.00037422 0.371795
v -12.5449 9.93634 -27.2251
vn -0.887407 -0.00102623 0.460987
v -12.5284 9.93588 -27.1968
vn -0.837952 -0.00241681 0.545738
v -12.5092 9.93542 -27.1703
vn -0.780428 -0.0037841 0.625234
v -12.4875 9.93498 -27.1458
vn -0.715388 -0.00511496 0.698709
v -12.4635 9.93455 -27.1235
vn -0.643458 -0.00639655 0.765455
v -12.4374 9.93414 -27.1037
vn -0.565331 -0.00761654 0.824829
v -12.4096 9.93376 -27.0866
vn -0.48176 -0.00876318 0.876259
v -12.3801 9.9334 -27.0722
vn -0.393549 -0.00982542 0.919251
v -12.3494 9.93308 -27.0608
vn -0.301548 -0.010793 0.95339
v -12.3178 9.93279 -27.0525
vn -0.206643 -0.0116567 0.978347
v -12.2855 9.93254 -27.0473
vn -0.109748 -0.0124081 0.993882
v -12.2528 9.93233 -27.0453
vn -0.0117963 -0.0130401 0.999845
v -12.2201 9.93216 -27.0466
vn 0.0862693 -0.0135464 0.99618
v -12.1876 9.93204 -27.051
vn 0.183504 -0.0139223 0.98292
v -12.1558 9.93196 -27.0586
vn 0.278972 -0.0141641 0.960195
v -12.1249 9.93192 -27.0692
vn 0.371752 -0.0142695 0.928222
v -12.0951 9.93193 -27.0829
vn 0.460953 -0.0142374 0.88731
v -12.0668 9.93199 -27.0994
vn 0.545714 -0.0140683 0.837853
v -12.0403 9.93209 -27.1186
vn 0.62522 -0.0137637 0.780327
v -12.0158 9.93224 -27.1403
vn 0.698705 -0.0133265 0.715286
v -11.9935 9.93243 -27.1643
vn 0.765461 -0.012761 0.643356
v -11.9737 9.93266 -27.1903
vn 0.824845 -0.0120725 0.56523
v -11.9566 9.93292 -27.2182
vn 0.876285 -0.0112679 0.481661
v -11.9422 9.93323 -27.2476
vn 0.919286 -0.0103547 0.393453
v -11.9308 9.93357 -27.2783
vn 0.953434 -0.00934173 0.301456
v -11.9225 9.93393 -27.31
vn 0.9784 -0.00823884 0.206556
v -11.9173 9.93433 -27.3423
vn 0.993943 -0.00705661 0.109667
v -11.9153 9.93475 -27.3749
vn 0.999914 -0.00580642 0.0117214
v -11.9165 9.93518 -27.4077
vn 0.996256 -0.00450031 -0.0863371
v -11.921 9.93563 -27.4401
vn 0.983003 -0.00315086 -0.183564
v -11.9285 9.93609 -27.4719
vn 0.960283 -0.00177107 -0.279023
v -11.9392 9.93656 -27.5029
vn 0.928315 -0.00037422 -0.371795
v -11.9529 9.93702 -27.5326
vn 0.887407 0.00102623 -0.460987
v -11.9693 9.93749 -27.5609
vn 0.837952 0.00241681 -0.545738
v -11.9885 9.93794 -27.5874
vn 0.780428 0.0037841 -0.625234
v -12.0102 9.93839 -27.6119
vn 0.715388 0.00511496 -0.698709
v -12.0342 9.93882 -27.6342
vn 0.643458 0.00639655 -0.765455
v -12.0603 9.93922 -27.654
vn 0.565331 0.00761654 -0.824829
v -12.0882 9.93961 -27.6711
vn 0.48176 0.00876318 -0.876259
v -12.1176 9.93996 -27.6855
vn 0.393549 0.00982542 -0.919251
v -12.1483 9.94028 -27.6969
vn 0.301548 0.010793 -0.95339
v -12.1799 9.94057 -27.7052
vn 0.206643 0.0116567 -0.978347
v -12.2123 9.94082 -27.7104
vn 0.109748 0.0124081 -0.993882
v -12.2449 9.94103 -27.7124
vn 0.0117963 0.0130401 -0.999845
v -12.2776 9.9412 -27.7111
vn -0.0862693 0.0135464 -0.99618
v -12.3101 9.94133 -27.7067
vn -0.183504 0.0139223 -0.98292
v -12.3419 9.94141 -27.6991
vn -0.278972 0.0141641 -0.960195
v -12.3838 7.75101 -27.7136
vn -0.37177 0.0107466 -0.928263
v -12.4135 7.75101 -27.6999
vn -0.460971 0.0107315 -0.887351
v -12.4418 7.75097 -27.6834
vn -0.545732 0.0106131 -0.837893
v -12.4683 7.75089 -27.6642
vn -0.625237 0.0103925 -0.780366
v -12.4928 7.75079 -27.6425
vn -0.698721 0.0100717 -0.715323
v -12.5151 7.75065 -27.6186
vn -0.765476 0.00965403 -0.643392
v -12.5349 7.75048 -27.5925
vn -0.824859 0.00914335 -0.565264
v -12.5521 7.75028 -27.5646
vn -0.876299 0.00854461 -0.481692
v -12.5664 7.75005 -27.5352
vn -0.919299 0.00786358 -0.393482
v -12.5778 7.7498 -27.5045
vn -0.953445 0.00710683 -0.301482
v -12.5861 7.74952 -27.4729
vn -0.97841 0.00628163 -0.206579
v -12.5913 7.74923 -27.4406
vn -0.993952 0.00539593 -0.109686
v -12.5933 7.74891 -27.4079
vn -0.999921 0.00445827 -0.0117368
v -12.5921 7.74859 -27.3752
vn -0.996261 0.00347767 0.0863253
v -12.5877 7.74825 -27.3428
vn -0.983006 0.00246358 0.183556
v -12.5801 7.7479 -27.3109
vn -0.960284 0.00142577 0.279019
v -12.5694 7.74755 -27.28
vn -0.928315 0.00037422 0.371795
v -12.5558 7.7472 -27.2502
vn -0.887405 -0.00068093 0.46099
v -12.5393 7.74685 -27.222
vn -0.837949 -0.00172952 0.545746
v -12.5201 7.74651 -27.1954
vn -0.780423 -0.00276146 0.625246
v -12.4984 7.74617 -27.1709
vn -0.715381 -0.0037668 0.698725
v -12.4744 7.74585 -27.1487
vn -0.643449 -0.00473586 0.765474
v -12.4483 7.74554 -27.1289
vn -0.565321 -0.00565932 0.824851
v -12.4205 7.74525 -27.1117
vn -0.481749 -0.00652827 0.876285
v -12.3911 7.74498 -27.0974
vn -0.393537 -0.00733436 0.91928
v -12.3604 7.74473 -27.086
vn -0.301535 -0.00806981 0.953421
v -12.3287 7.74452 -27.0777
vn -0.206629 -0.00872754 0.978381
v -12.2964 7.74432 -27.0725
vn -0.109733 -0.00930122 0.993918
v -12.2637 7.74416 -27.0705
vn -0.01178 -0.00978533 0.999883
v -12.231 7.74403 -27.0717
vn 0.0862861 -0.0101752 0.996218
v -12.1986 7.74394 -27.0761
vn 0.183521 -0.0104671 0.98296
v -12.1668 7.74387 -27.0837
vn 0.278989 -0.0106581 0.960235
v -12.1358 7.74384 -27.0944
vn 0.37177 -0.0107466 0.928263
v -12.1061 7.74385 -27.108
vn 0.460971 -0.0107315 0.887351
v -12.0778 7.74389 -27.1245
vn 0.545732 -0.0106131 0.837893
v -12.0513 7.74396 -27.1437
vn 0.625237 -0.0103925 0.780366
v -12.0268 7.74407 -27.1654
vn 0.698721 -0.0100717 0.715323
v -12.0045 7.74421 -27.1894
vn 0.765476 -0.00965403 0.643392
v -11.9847 7.74438 -27.2154
vn 0.824859 -0.00914335 0.565264
v -11.9675 7.74458 -27.2433
vn 0.876299 -0.00854461 0.481692
v -11.9532 7.7448 -27.2727
vn 0.919299 -0.00786358 0.393482
v -11.9418 7.74506 -27.3034
vn 0.953445 -0.00710683 0.301482
v -11.9335 7.74533 -27.3351
vn 0.97841 -0.00628163 0.206579
v -11.9283 7.74563 -27.3674
vn 0.993952 -0.00539593 0.109686
v -11.9263 7.74594 -27.4001
vn 0.999921 -0.00445827 0.0117368
v -11.9275 7.74627 -27.4328
vn 0.996261 -0.00347767 -0.0863253
v -11.9319 7.7466 -27.4652
vn 0.983006 -0.00246358 -0.183556
v -11.9395 7.74695 -27.497
vn 0.960284 -0.00142577 -0.279019
v -11.9502 7.7473 -27.528
vn 0.928315 -0.00037422 -0.371795
v -11.9638 7.74765 -27.5577
vn 0.887405 0.00068093 -0.46099
v -11.9803 7.748 -27.586
vn 0.837949 0.00172952 -0.545746
v -11.9995 7.74835 -27.6125
vn 0.780423 0.00276146 -0.625246
v -12.0212 7.74868 -27.637
vn 0.715381 0.0037668 -0.698725
v -12.0452 7.74901 -27.6593
vn 0.643449 0.00473586 -0.765474
v -12.0713 7.74931 -27.6791
vn 0.565321 0.00565932 -0.824851
v -12.0991 7.7496 -27.6962
vn 0.481749 0.00652827 -0.876285
v -12.1285 7.74987 -27.7106
vn 0.393537 0.00733436 -0.91928
v -12.1592 7.75012 -27.722
vn 0.301535 0.00806981 -0.953421
v -12.1909 7.75034 -27.7303
vn 0.206629 0.00872754 -0.978381
v -12.2232 7.75053 -27.7355
vn 0.109733 0.00930122 -0.993918
v -12.2559 7.75069 -27.7375
vn 0.01178 0.00978533 -0.999883
v -12.2886 7.75082 -27.7362
vn -0.0862861 0.0101752 -0.996218
v -12.321 7.75092 -27.7318
vn -0.183521 0.0104671 -0.98296
v -12.3528 7.75098 -27.7242
vn -0.278989 0.0106581 -0.960235
v -12.3919 5.56066 -27.7315
vn -0.371783 0.007223 -0.928292
v -12.4216 5.56066 -27.7178
vn -0.460983 0.0072249 -0.887379
v -12.4499 5.56064 -27.7014
vn -0.545744 0.00715722 -0.837921
v -12.4764 5.56059 -27.6822
vn -0.62525 0.00702061 -0.780393
v -12.5009 5.56053 -27.6605
vn -0.698733 0.00681639 -0.71535
v -12.5231 5.56044 -27.6365
vn -0.765488 0.00654653 -0.643417
v -12.543 5.56033 -27.6104
vn -0.82487 0.00621361 -0.565288
v -12.5601 5.56019 -27.5826
vn -0.876309 0.00582086 -0.481715
v -12.5744 5.56004 -27.5532
vn -0.919308 0.00537205 -0.393502
v -12.5858 5.55988 -27.5225
vn -0.953454 0.0048715 -0.3015
v -12.5942 5.55969 -27.4908
vn -0.978417 0.00432404 -0.206595
v -12.5993 5.5595 -27.4585
vn -0.993958 0.00373493 -0.1097
v -12.6013 5.55929 -27.4258
vn -0.999926 0.00310986 -0.0117479
v -12.6001 5.55907 -27.3931
vn -0.996265 0.00245483 0.0863169
v -12.5957 5.55885 -27.3607
vn -0.983009 0.00177617 0.18355
v -12.5881 5.55861 -27.3289
vn -0.960286 0.0010804 0.279016
v -12.5774 5.55838 -27.2979
vn -0.928315 0.00037422 0.371795
v -12.5638 5.55814 -27.2682
vn -0.887404 -0.00033556 0.460993
v -12.5473 5.55791 -27.2399
vn -0.837946 -0.00104211 0.545752
v -12.5281 5.55767 -27.2134
vn -0.780419 -0.00173862 0.625255
v -12.5064 5.55745 -27.1889
vn -0.715376 -0.00241839 0.698736
v -12.4824 5.55723 -27.1667
vn -0.643443 -0.00307487 0.765488
v -12.4564 5.55702 -27.1469
vn -0.565314 -0.00370173 0.824868
v -12.4285 5.55682 -27.1297
vn -0.48174 -0.00429295 0.876303
v -12.3991 5.55664 -27.1154
vn -0.393527 -0.00484282 0.9193
v -12.3684 5.55647 -27.104
vn -0.301525 -0.00534605 0.953443
v -12.3368 5.55632 -27.0956
vn -0.206618 -0.0057978 0.978405
v -12.3045 5.55619 -27.0905
vn -0.109721 -0.00619371 0.993943
v -12.2718 5.55608 -27.0885
vn -0.011768 -0.00652998 0.999909
v -12.2391 5.55598 -27.0897
vn 0.0862986 -0.00680335 0.996246
v -12.2067 5.55591 -27.0941
vn 0.183534 -0.00701121 0.982988
v -12.1748 5.55587 -27.1017
vn 0.279002 -0.00715154 0.960264
v -12.1439 5.55584 -27.1124
vn 0.371783 -0.007223 0.928292
v -12.1141 5.55584 -27.126
vn 0.460983 -0.0072249 0.887379
v -12.0859 5.55587 -27.1425
vn 0.545744 -0.00715722 0.837921
v -12.0594 5.55591 -27.1617
vn 0.62525 -0.00702061 0.780393
v -12.0349 5.55598 -27.1834
vn 0.698733 -0.00681639 0.71535
v -12.0126 5.55607 -27.2074
vn 0.765488 -0.00654653 0.643417
v -11.9928 5.55618 -27.2334
vn 0.82487 -0.00621361 0.565288
v -11.9756 5.55631 -27.2613
vn 0.876309 -0.00582086 0.481715
v -11.9613 5.55646 -27.2907
vn 0.919308 -0.00537205 0.393502
v -11.9499 5.55663 -27.3214
vn 0.953454 -0.0048715 0.3015
v -11.9416 5.55681 -27.353
vn 0.978417 -0.00432404 0.206595
v -11.9364 5.55701 -27.3853
vn 0.993958 -0.00373493 0.1097
v -11.9344 5.55722 -27.418
vn 0.999926 -0.00310986 0.0117479
v -11.9356 5.55743 -27.4507
vn 0.996265 -0.00245483 -0.0863169
v -11.9401 5.55766 -27.4831
vn 0.983009 -0.00177617 -0.18355
v -11.9476 5.55789 -27.515
vn 0.960286 -0.0010804 -0.279016
v -11.9583 5.55813 -27.5459
vn 0.928315 -0.00037422 -0.371795
v -11.9719 5.55836 -27.5757
vn 0.887404 0.00033556 -0.460993
v -11.9884 5.5586 -27.6039
vn 0.837946 0.00104211 -0.545752
v -12.0076 5.55883 -27.6304
vn 0.780419 0.00173862 -0.625255
v -12.0293 5.55906 -27.6549
vn 0.715376 0.00241839 -0.698736
v -12.0533 5.55928 -27.6772
vn 0.643443 0.00307487 -0.765488
v -12.0794 5.55949 -27.697
vn 0.565314 0.00370173 -0.824868
v -12.1072 5.55968 -27.7142
vn 0.48174 0.00429295 -0.876303
v -12.1366 5.55987 -27.7285
vn 0.393527 0.00484282 -0.9193
v -12.1673 5.56004 -27.7399
vn 0.301525 0.00534605 -0.953443
v -12.199 5.56019 -27.7482
vn 0.206618 0.0057978 -0.978405
v -12.2313 5.56032 -27.7534
vn 0.109721 0.00619371 -0.993943
v -12.2639 5.56043 -27.7554
vn 0.011768 0.00652998 -0.999909
v -12.2967 5.56052 -27.7542
vn -0.0862986 0.00680335 -0.996246
v -12.3291 5.56059 -27.7497
vn -0.183534 0.00701121 -0.982988
v -12.3609 5.56064 -27.7422
vn -0.279002 0.00715154 -0.960264
v -12.397 3.3704 -27.7423
vn -0.371791 0.0036989 -0.928309
v -12.4268 3.3704 -27.7286
vn -0.460992 0.00371777 -0.887397
v -12.4551 3.3704 -27.7121
vn -0.545753 0.00370083 -0.837938
v -12.4816 3.37038 -27.6929
vn -0.625258 0.00364826 -0.78041
v -12.5061 3.37035 -27.6712
vn -0.698741 0.00356055 -0.715366
v -12.5283 3.37031 -27.6473
vn -0.765495 0.00343855 -0.643432
v -12.5481 3.37026 -27.6212
vn -0.824877 0.00328343 -0.565302
v -12.5653 3.37019 -27.5933
vn -0.876315 0.00309669 -0.481728
v -12.5796 3.37012 -27.5639
vn -0.919314 0.00288013 -0.393515
v -12.591 3.37004 -27.5333
vn -0.953459 0.00263583 -0.301511
v -12.5993 3.36995 -27.5016
vn -0.978422 0.00236615 -0.206604
v -12.6045 3.36985 -27.4693
vn -0.993962 0.00207368 -0.109708
v -12.6065 3.36975 -27.4366
vn -0.999929 0.00176124 -0.0117545
v -12.6053 3.36964 -27.4039
vn -0.996267 0.00143184 0.0863119
v -12.6009 3.36953 -27.3715
vn -0.98301 0.00108865 0.183547
v -12.5933 3.36941 -27.3397
vn -0.960287 0.000734974 0.279015
v -12.5826 3.36929 -27.3088
vn -0.928315 0.00037422 0.371795
v -12.569 3.36917 -27.279
vn -0.887403 9.86226e-06 0.460995
v -12.5525 3.36904 -27.2507
vn -0.837945 -0.00035459 0.545755
v -12.5333 3.36892 -27.2242
vn -0.780416 -0.000715628 0.62526
v -12.5116 3.36881 -27.1997
vn -0.715373 -0.00106977 0.698742
v -12.4876 3.36869 -27.1775
vn -0.643439 -0.00141362 0.765496
v -12.4616 3.36858 -27.1577
vn -0.565309 -0.00174385 0.824877
v -12.4337 3.36848 -27.1405
vn -0.481735 -0.00205728 0.876314
v -12.4043 3.36838 -27.1262
vn -0.393521 -0.0023509 0.919312
v -12.3736 3.36829 -27.1148
vn -0.301518 -0.00262189 0.953457
v -12.342 3.36821 -27.1065
vn -0.206611 -0.00286762 0.978419
v -12.3097 3.36813 -27.1013
vn -0.109714 -0.00308573 0.993958
v -12.277 3.36807 -27.0993
vn -0.0117603 -0.00327413 0.999925
v -12.2443 3.36802 -27.1005
vn 0.0863066 -0.003431 0.996263
v -12.2119 3.36798 -27.105
vn 0.183542 -0.00355482 0.983005
v -12.18 3.36795 -27.1125
vn 0.27901 -0.00364441 0.960281
v -12.1491 3.36793 -27.1232
vn 0.371791 -0.0036989 0.928309
v -12.1194 3.36792 -27.1368
vn 0.460992 -0.00371777 0.887397
v -12.0911 3.36793 -27.1533
vn 0.545753 -0.00370083 0.837938
v -12.0646 3.36795 -27.1725
vn 0.625258 -0.00364826 0.78041
v -12.0401 3.36797 -27.1942
vn 0.698741 -0.00356055 0.715366
v -12.0178 3.36802 -27.2182
vn 0.765495 -0.00343855 0.643432
v -11.998 3.36807 -27.2442
vn 0.824877 -0.00328343 0.565302
v -11.9809 3.36813 -27.2721
vn 0.876315 -0.00309669 0.481728
v -11.9665 3.3682 -27.3015
vn 0.919314 -0.00288013 0.393515
v -11.9552 3.36828 -27.3322
vn 0.953459 -0.00263583 0.301511
v -11.9468 3.36837 -27.3638
vn 0.978422 -0.00236615 0.206604
v -11.9417 3.36847 -27.3961
vn 0.993962 -0.00207368 0.109708
v -11.9397 3.36857 -27.4288
vn 0.999929 -0.00176124 0.0117545
v -11.9409 3.36868 -27.4615
vn 0.996267 -0.00143184 -0.0863119
v -11.9453 3.3688 -27.4939
vn 0.98301 -0.00108865 -0.183547
v -11.9529 3.36892 -27.5258
vn 0.960287 -0.000734974 -0.279015
v -11.9635 3.36904 -27.5567
vn 0.928315 -0.00037422 -0.371795
v -11.9772 3.36916 -27.5864
vn 0.887403 -9.86226e-06 -0.460995
v -11.9937 3.36928 -27.6147
vn 0.837945 0.00035459 -0.545755
v -12.0129 3.3694 -27.6412
vn 0.780416 0.000715628 -0.62526
v -12.0345 3.36952 -27.6657
vn 0.715373 0.00106977 -0.698742
v -12.0585 3.36963 -27.688
vn 0.643439 0.00141362 -0.765496
v -12.0846 3.36974 -27.7078
vn 0.565309 0.00174385 -0.824877
v -12.1125 3.36985 -27.7249
vn 0.481735 0.00205728 -0.876314
v -12.1419 3.36995 -27.7393
vn 0.393521 0.0023509 -0.919312
v -12.1725 3.37004 -27.7506
vn 0.301518 0.00262189 -0.953457
v -12.2042 3.37012 -27.759
vn 0.206611 0.00286762 -0.978419
v -12.2365 3.37019 -27.7641
vn 0.109714 0.00308573 -0.993958
v -12.2692 3.37025 -27.7661
vn 0.0117603 0.00327413 -0.999925
v -12.3019 3.37031 -27.7649
vn -0.0863066 0.003431 -0.996263
v -12.3343 3.37035 -27.7605
vn -0.183542 0.00355482 -0.983005
v -12.3661 3.37038 -27.7529
vn -0.27901 0.00364441 -0.960281
v -12.3994 1.18021 -27.7458
vn -0.371795 0.000174397 -0.928315
v -12.4291 1.18022 -27.7322
vn -0.460996 0.000210237 -0.887402
v -12.4574 1.18024 -27.7157
vn -0.545756 0.000244052 -0.837944
v -12.4839 1.18025 -27.6965
vn -0.625261 0.000275517 -0.780415
v -12.5084 1.18026 -27.6749
vn -0.698745 0.000304329 -0.715371
v -12.5306 1.18026 -27.6509
vn -0.765499 0.00033021 -0.643438
v -12.5504 1.18027 -27.6248
vn -0.82488 0.000352911 -0.565307
v -12.5676 1.18028 -27.597
vn -0.876318 0.000372213 -0.481733
v -12.5819 1.18028 -27.5675
vn -0.919316 0.00038793 -0.393519
v -12.5933 1.18029 -27.5369
vn -0.953461 0.000399912 -0.301515
v -12.6016 1.18029 -27.5052
vn -0.978424 0.000408042 -0.206608
v -12.6068 1.18029 -27.4729
vn -0.993963 0.000412242 -0.109711
v -12.6088 1.18029 -27.4403
vn -0.999931 0.000412473 -0.0117568
v -12.6076 1.18029 -27.4076
vn -0.996268 0.000408731 0.0863102
v -12.6031 1.18029 -27.3752
vn -0.983011 0.000401053 0.183546
v -12.5956 1.18028 -27.3433
vn -0.960287 0.000389512 0.279014
v -12.5849 1.18028 -27.3124
vn -0.928315 0.00037422 0.371795
v -12.5713 1.18027 -27.2827
vn -0.887402 0.000355324 0.460996
v -12.5548 1.18026 -27.2544
vn -0.837944 0.000333006 0.545756
v -12.5356 1.18026 -27.2279
vn -0.780415 0.000307482 0.625261
v -12.5139 1.18025 -27.2034
vn -0.715371 0.000278995 0.698745
v -12.4899 1.18024 -27.1811
vn -0.643438 0.000247823 0.765499
v -12.4639 1.18023 -27.1613
vn -0.565307 0.000214263 0.82488
v -12.436 1.18021 -27.1442
vn -0.481733 0.00017864 0.876318
v -12.4066 1.1802 -27.1299
vn -0.393519 0.000141297 0.919317
v -12.3759 1.18019 -27.1185
vn -0.301515 0.000102592 0.953461
v -12.3443 1.18017 -27.1102
vn -0.206608 6.29001e-05 0.978424
v -12.312 1.18016 -27.105
vn -0.109711 2.26021e-05 0.993964
v -12.2793 1.18015 -27.103
vn -0.0117568 -1.79136e-05 0.999931
v -12.2466 1.18013 -27.1042
vn 0.0863102 -5.82568e-05 0.996268
v -12.2142 1.18012 -27.1086
vn 0.183546 -9.80389e-05 0.983011
v -12.1824 1.18011 -27.1162
vn 0.279014 -0.000136877 0.960287
v -12.1515 1.1801 -27.1269
vn 0.371795 -0.000174397 0.928315
v -12.1217 1.18008 -27.1405
vn 0.460996 -0.000210237 0.887402
v -12.0935 1.18007 -27.157
vn 0.545756 -0.000244052 0.837944
v -12.067 1.18006 -27.1762
vn 0.625261 -0.000275517 0.780415
v -12.0425 1.18005 -27.1979
vn 0.698745 -0.000304329 0.715371
v -12.0202 1.18004 -27.2218
vn 0.765499 -0.00033021 0.643438
v -12.0004 1.18004 -27.2479
vn 0.82488 -0.000352911 0.565307
v -11.9833 1.18003 -27.2757
vn 0.876318 -0.000372213 0.481733
v -11.9689 1.18002 -27.3052
vn 0.919316 -0.00038793 0.393519
v -11.9575 1.18002 -27.3358
vn 0.953461 -0.000399912 0.301515
v -11.9492 1.18002 -27.3675
vn 0.978424 -0.000408042 0.206608
v -11.944 1.18002 -27.3998
vn 0.993963 -0.000412242 0.109711
v -11.942 1.18002 -27.4324
vn 0.999931 -0.000412473 0.0117568
v -11.9433 1.18002 -27.4651
vn 0.996268 -0.000408731 -0.0863102
v -11.9477 1.18002 -27.4975
vn 0.983011 -0.000401053 -0.183546
v -11.9553 1.18002 -27.5294
vn 0.960287 -0.000389512 -0.279014
v -11.9659 1.18003 -27.5603
vn 0.928315 -0.00037422 -0.371795
v -11.9796 1.18004 -27.59
vn 0.887402 -0.000355324 -0.460996
v -11.9961 1.18004 -27.6183
vn 0.837944 -0.000333006 -0.545756
v -12.0152 1.18005 -27.6448
vn 0.780415 -0.000307482 -0.625261
v -12.0369 1.18006 -27.6693
vn 0.715371 -0.000278995 -0.698745
v -12.0609 1.18007 -27.6916
vn 0.643438 -0.000247823 -0.765499
v -12.0869 1.18008 -27.7114
vn 0.565307 -0.000214263 -0.82488
v -12.1148 1.18009 -27.7285
vn 0.481733 -0.00017864 -0.876318
v -12.1442 1.18011 -27.7428
vn 0.393519 -0.000141297 -0.919317
v -12.1749 1.18012 -27.7542
vn 0.301515 -0.000102592 -0.953461
v -12.2065 1.18013 -27.7626
vn 0.206608 -6.29001e-05 -0.978424
v -12.2388 1.18015 -27.7677
vn 0.109711 -2.26021e-05 -0.993964
v -12.2715 1.18016 -27.7697
vn 0.0117568 1.79136e-05 -0.999931
v -12.3042 1.18017 -27.7685
vn -0.0863102 5.82568e-05 -0.996268
v -12.3366 1.18019 -27.7641
vn -0.183546 9.80389e-05 -0.983011
v -12.3684 1.1802 -27.7565
vn -0.279014 0.000136877 -0.960287
v -12.3988 -1.00989 -27.7423
vn -0.371794 -0.00335038 -0.928309
v -12.4286 -1.00987 -27.7286
vn -0.460995 -0.00329757 -0.887397
v -12.4568 -1.00984 -27.7121
vn -0.545756 -0.003213 -0.837938
v -12.4833 -1.0098 -27.693
vn -0.62526 -0.00309748 -0.78041
v -12.5078 -1.00976 -27.6713
vn -0.698744 -0.00295214 -0.715366
v -12.5301 -1.0097 -27.6473
vn -0.765498 -0.00277837 -0.643433
v -12.5499 -1.00963 -27.6213
vn -0.82488 -0.00257783 -0.565303
v -12.567 -1.00956 -27.5934
vn -0.876317 -0.00235248 -0.481728
v -12.5813 -1.00947 -27.564
vn -0.919316 -0.00210446 -0.393515
v -12.5927 -1.00938 -27.5333
vn -0.953461 -0.00183618 -0.301512
v -12.601 -1.00929 -27.5017
vn -0.978423 -0.00155022 -0.206605
v -12.6062 -1.00919 -27.4694
vn -0.993963 -0.00124933 -0.109708
v -12.6082 -1.00908 -27.4367
vn -0.99993 -0.000936401 -0.0117546
v -12.607 -1.00898 -27.404
vn -0.996268 -0.000614458 0.0863118
v -12.6026 -1.00887 -27.3716
vn -0.983011 -0.000286597 0.183547
v -12.595 -1.00876 -27.3398
vn -0.960287 4.40233e-05 0.279015
v -12.5843 -1.00865 -27.3089
vn -0.928315 0.00037422 0.371795
v -12.5707 -1.00854 -27.2791
vn -0.887402 0.000700813 0.460995
v -12.5542 -1.00843 -27.2509
vn -0.837944 0.00102066 0.545755
v -12.535 -1.00833 -27.2244
vn -0.780416 0.00133067 0.62526
v -12.5134 -1.00823 -27.1999
vn -0.715371 0.00162787 0.698742
v -12.4894 -1.00814 -27.1776
vn -0.643438 0.00190939 0.765496
v -12.4633 -1.00805 -27.1578
vn -0.565308 0.00217252 0.824877
v -12.4355 -1.00797 -27.1407
vn -0.481733 0.00241473 0.876315
v -12.4061 -1.00789 -27.1264
vn -0.393519 0.00263369 0.919313
v -12.3754 -1.00783 -27.115
vn -0.301516 0.00282728 0.953457
v -12.3438 -1.00777 -27.1067
vn -0.206608 0.00299365 0.978419
v -12.3115 -1.00773 -27.1015
vn -0.109711 0.00313118 0.993959
v -12.2788 -1.00769 -27.0995
vn -0.0117576 0.00323856 0.999926
v -12.2461 -1.00767 -27.1007
vn 0.0863094 0.00331474 0.996263
v -12.2137 -1.00765 -27.1051
vn 0.183545 0.00335901 0.983006
v -12.1819 -1.00765 -27.1127
vn 0.279013 0.00337093 0.960281
v -12.1509 -1.00765 -27.1234
vn 0.371794 0.00335038 0.928309
v -12.1212 -1.00767 -27.137
vn 0.460995 0.00329757 0.887397
v -12.093 -1.0077 -27.1535
vn 0.545756 0.003213 0.837938
v -12.0665 -1.00774 -27.1727
vn 0.62526 0.00309748 0.78041
v -12.042 -1.00779 -27.1944
vn 0.698744 0.00295214 0.715366
v -12.0197 -1.00785 -27.2183
vn 0.765498 0.00277837 0.643433
v -11.9999 -1.00791 -27.2444
vn 0.82488 0.00257783 0.565303
v -11.9828 -1.00799 -27.2722
vn 0.876317 0.00235248 0.481728
v -11.9684 -1.00807 -27.3016
vn 0.919316 0.00210446 0.393515
v -11.957 -1.00816 -27.3323
vn 0.953461 0.00183618 0.301512
v -11.9487 -1.00825 -27.3639
vn 0.978423 0.00155022 0.206605
v -11.9435 -1.00836 -27.3962
vn 0.993963 0.00124933 0.109708
v -11.9416 -1.00846 -27.4289
vn 0.99993 0.000936401 0.0117546
v -11.9428 -1.00857 -27.4616
vn 0.996268 0.000614458 -0.0863118
v -11.9472 -1.00868 -27.494
vn 0.983011 0.000286597 -0.183547
v -11.9548 -1.00879 -27.5258
vn 0.960287 -4.40233e-05 -0.279015
v -11.9654 -1.0089 -27.5568
vn 0.928315 -0.00037422 -0.371795
v -11.9791 -1.00901 -27.5865
vn 0.887402 -0.000700813 -0.460995
v -11.9956 -1.00911 -27.6147
vn 0.837944 -0.00102066 -0.545755
v -12.0147 -1.00922 -27.6412
vn 0.780416 -0.00133067 -0.62526
v -12.0364 -1.00931 -27.6657
vn 0.715371 -0.00162787 -0.698742
v -12.0604 -1.00941 -27.688
vn 0.643438 -0.00190939 -0.765496
v -12.0864 -1.0095 -27.7078
vn 0.565308 -0.00217252 -0.824877
v -12.1143 -1.00958 -27.7249
vn 0.481733 -0.00241473 -0.876315
v -12.1437 -1.00965 -27.7393
vn 0.393519 -0.00263369 -0.919313
v -12.1744 -1.00971 -27.7507
vn 0.301516 -0.00282728 -0.953457
v -12.206 -1.00977 -27.759
vn 0.206608 -0.00299365 -0.978419
v -12.2383 -1.00982 -27.7642
vn 0.109711 -0.00313118 -0.993959
v -12.271 -1.00985 -27.7661
vn 0.0117576 -0.00323856 -0.999926
v -12.3037 -1.00988 -27.7649
vn -0.0863094 -0.00331474 -0.996263
v -12.3361 -1.00989 -27.7605
vn -0.183545 -0.00335901 -0.983006
v -12.3679 -1.0099 -27.7529
vn -0.279013 -0.00337093 -0.960281
v -12.3954 -3.19991 -27.7315
vn -0.371789 -0.0068753 -0.928292
v -12.4251 -3.19988 -27.7179
vn -0.460989 -0.00680551 -0.88738
v -12.4534 -3.19984 -27.7014
vn -0.54575 -0.00667019 -0.837921
v -12.4799 -3.19977 -27.6822
vn -0.625255 -0.00647062 -0.780394
v -12.5044 -3.19968 -27.6606
vn -0.698739 -0.00620874 -0.71535
v -12.5266 -3.19958 -27.6366
vn -0.765493 -0.00588707 -0.643417
v -12.5464 -3.19945 -27.6105
vn -0.824875 -0.0055087 -0.565288
v -12.5636 -3.19931 -27.5827
vn -0.876313 -0.00507728 -0.481715
v -12.5779 -3.19915 -27.5533
vn -0.919312 -0.00459696 -0.393503
v -12.5893 -3.19897 -27.5226
vn -0.953457 -0.00407237 -0.301501
v -12.5976 -3.19878 -27.491
vn -0.97842 -0.00350856 -0.206595
v -12.6028 -3.19858 -27.4587
vn -0.993961 -0.00291096 -0.1097
v -12.6048 -3.19838 -27.426
vn -0.999928 -0.00228533 -0.011748
v -12.6035 -3.19816 -27.3934
vn -0.996266 -0.00163769 0.0863168
v -12.5991 -3.19794 -27.3609
vn -0.98301 -0.000974275 0.18355
v -12.5916 -3.19772 -27.3291
vn -0.960286 -0.000301479 0.279016
v -12.5809 -3.19749 -27.2982
vn -0.928315 0.00037422 0.371795
v -12.5673 -3.19727 -27.2685
vn -0.887403 0.00104632 0.460993
v -12.5508 -3.19705 -27.2402
vn -0.837945 0.00170833 0.545752
v -12.5316 -3.19683 -27.2137
vn -0.780417 0.0023539 0.625255
v -12.5099 -3.19662 -27.1892
vn -0.715374 0.0029768 0.698736
v -12.4859 -3.19642 -27.167
vn -0.64344 0.00357103 0.765488
v -12.4599 -3.19624 -27.1472
vn -0.565311 0.00413086 0.824868
v -12.432 -3.19606 -27.13
vn -0.481737 0.00465092 0.876304
v -12.4026 -3.19591 -27.1157
vn -0.393523 0.00512618 0.9193
v -12.372 -3.19576 -27.1043
vn -0.30152 0.00555208 0.953444
v -12.3403 -3.19564 -27.096
vn -0.206613 0.00592451 0.978405
v -12.3081 -3.19553 -27.0908
vn -0.109716 0.00623988 0.993943
v -12.2754 -3.19545 -27.0888
vn -0.0117626 0.00649516 0.99991
v -12.2427 -3.19539 -27.0901
vn 0.0863041 0.00668788 0.996246
v -12.2103 -3.19534 -27.0945
vn 0.18354 0.0068162 0.982989
v -12.1785 -3.19532 -27.1021
vn 0.279008 0.00687887 0.960264
v -12.1476 -3.19532 -27.1127
vn 0.371789 0.0068753 0.928292
v -12.1178 -3.19535 -27.1264
vn 0.460989 0.00680551 0.88738
v -12.0896 -3.19539 -27.1428
vn 0.54575 0.00667019 0.837921
v -12.0631 -3.19546 -27.162
vn 0.625255 0.00647062 0.780394
v -12.0386 -3.19555 -27.1837
vn 0.698739 0.00620874 0.71535
v -12.0163 -3.19565 -27.2077
vn 0.765493 0.00588707 0.643417
v -11.9965 -3.19578 -27.2337
vn 0.824875 0.0055087 0.565288
v -11.9794 -3.19592 -27.2616
vn 0.876313 0.00507728 0.481715
v -11.9651 -3.19608 -27.291
vn 0.919312 0.00459696 0.393503
v -11.9537 -3.19626 -27.3216
vn 0.953457 0.00407237 0.301501
v -11.9454 -3.19645 -27.3533
vn 0.97842 0.00350856 0.206595
v -11.9402 -3.19664 -27.3856
vn 0.993961 0.00291096 0.1097
v -11.9382 -3.19685 -27.4182
vn 0.999928 0.00228533 0.011748
v -11.9394 -3.19707 -27.4509
vn 0.996266 0.00163769 -0.0863168
v -11.9438 -3.19729 -27.4833
vn 0.98301 0.000974275 -0.18355
v -11.9514 -3.19751 -27.5151
vn 0.960286 0.000301479 -0.279016
v -11.9621 -3.19774 -27.546
vn 0.928315 -0.00037422 -0.371795
v -11.9757 -3.19796 -27.5758
vn 0.887403 -0.00104632 -0.460993
v -11.9922 -3.19818 -27.604
vn 0.837945 -0.00170833 -0.545752
v -12.0114 -3.1984 -27.6305
vn 0.780417 -0.0023539 -0.625255
v -12.033 -3.19861 -27.655
vn 0.715374 -0.0029768 -0.698736
v -12.057 -3.1988 -27.6773
vn 0.64344 -0.00357103 -0.765488
v -12.0831 -3.19899 -27.6971
vn 0.565311 -0.00413086 -0.824868
v -12.1109 -3.19916 -27.7142
vn 0.481737 -0.00465092 -0.876304
v -12.1403 -3.19932 -27.7285
vn 0.393523 -0.00512618 -0.9193
v -12.171 -3.19947 -27.7399
vn 0.30152 -0.00555208 -0.953444
v -12.2026 -3.19959 -27.7482
vn 0.206613 -0.00592451 -0.978405
v -12.2349 -3.19969 -27.7534
vn 0.109716 -0.00623988 -0.993943
v -12.2676 -3.19978 -27.7554
vn 0.0117626 -0.00649516 -0.99991
v -12.3002 -3.19984 -27.7542
vn -0.0863041 -0.00668788 -0.996246
v -12.3327 -3.19989 -27.7498
vn -0.18354 -0.0068162 -0.982989
v -12.3645 -3.19991 -27.7422
vn -0.279008 -0.00687887 -0.960264
v -12.3891 -5.38984 -27.7136
vn -0.371779 -0.0104002 -0.928263
v -12.4188 -5.38981 -27.7
vn -0.460979 -0.0103135 -0.887351
v -12.4471 -5.38975 -27.6835
vn -0.54574 -0.0101274 -0.837893
v -12.4736 -5.38966 -27.6643
vn -0.625246 -0.00984377 -0.780366
v -12.4981 -5.38953 -27.6427
vn -0.698729 -0.00946535 -0.715323
v -12.5203 -5.38937 -27.6187
vn -0.765484 -0.00899578 -0.643392
v -12.5401 -5.38919 -27.5927
vn -0.824867 -0.00843957 -0.565264
v -12.5573 -5.38898 -27.5648
vn -0.876305 -0.00780208 -0.481693
v -12.5716 -5.38874 -27.5354
vn -0.919305 -0.00708946 -0.393482
v -12.583 -5.38848 -27.5047
vn -0.953451 -0.00630856 -0.301482
v -12.5913 -5.3882 -27.4731
vn -0.978415 -0.0054669 -0.206579
v -12.5965 -5.3879 -27.4408
vn -0.993956 -0.0045726 -0.109686
v -12.5985 -5.38759 -27.4082
vn -0.999925 -0.00363426 -0.011737
v -12.5972 -5.38726 -27.3755
vn -0.996263 -0.00266092 0.0863252
v -12.5928 -5.38693 -27.3431
vn -0.983008 -0.00166195 0.183556
v -12.5852 -5.38659 -27.3113
vn -0.960285 -0.000646983 0.279019
v -12.5746 -5.38625 -27.2804
vn -0.928315 0.00037422 0.371795
v -12.561 -5.38591 -27.2506
vn -0.887404 0.00139182 0.460991
v -12.5445 -5.38558 -27.2224
vn -0.837947 0.00239601 0.545746
v -12.5253 -5.38525 -27.1959
vn -0.78042 0.00337713 0.625246
v -12.5036 -5.38493 -27.1714
vn -0.715377 0.00432573 0.698725
v -12.4797 -5.38463 -27.1492
vn -0.643445 0.00523267 0.765474
v -12.4536 -5.38435 -27.1294
vn -0.565316 0.00608921 0.824852
v -12.4258 -5.38408 -27.1122
vn -0.481743 0.00688711 0.876285
v -12.3964 -5.38384 -27.0979
vn -0.39353 0.00761868 0.91928
v -12.3657 -5.38362 -27.0865
vn -0.301528 0.00827689 0.953421
v -12.3341 -5.38342 -27.0782
vn -0.206621 0.00885538 0.978381
v -12.3018 -5.38326 -27.073
vn -0.109725 0.00934859 0.993918
v -12.2691 -5.38313 -27.071
vn -0.011772 0.00975176 0.999883
v -12.2365 -5.38302 -27.0723
vn 0.0862945 0.010061 0.996219
v -12.2041 -5.38295 -27.0767
vn 0.18353 0.0102734 0.98296
v -12.1722 -5.38291 -27.0843
vn 0.278998 0.0103868 0.960236
v -12.1413 -5.38291 -27.0949
vn 0.371779 0.0104002 0.928263
v -12.1116 -5.38294 -27.1085
vn 0.460979 0.0103135 0.887351
v -12.0833 -5.383 -27.125
vn 0.54574 0.0101274 0.837893
v -12.0568 -5.38309 -27.1442
vn 0.625246 0.00984377 0.780366
v -12.0324 -5.38322 -27.1659
vn 0.698729 0.00946535 0.715323
v -12.0101 -5.38338 -27.1899
vn 0.765484 0.00899578 0.643392
v -11.9903 -5.38356 -27.2159
vn 0.824867 0.00843957 0.565264
v -11.9732 -5.38378 -27.2437
vn 0.876305 0.00780208 0.481693
v -11.9588 -5.38401 -27.2731
vn 0.919305 0.00708946 0.393482
v -11.9475 -5.38427 -27.3038
vn 0.953451 0.00630856 0.301482
v -11.9391 -5.38455 -27.3354
vn 0.978415 0.0054669 0.206579
v -11.934 -5.38485 -27.3677
vn 0.993956 0.0045726 0.109686
v -11.932 -5.38516 -27.4004
vn 0.999925 0.00363426 0.011737
v -11.9332 -5.38549 -27.433
vn 0.996263 0.00266092 -0.0863252
v -11.9376 -5.38582 -27.4654
vn 0.983008 0.00166195 -0.183556
v -11.9452 -5.38616 -27.4973
vn 0.960285 0.000646983 -0.279019
v -11.9558 -5.3865 -27.5282
vn 0.928315 -0.00037422 -0.371795
v -11.9695 -5.38684 -27.5579
vn 0.887404 -0.00139182 -0.460991
v -11.986 -5.38717 -27.5861
vn 0.837947 -0.00239601 -0.545746
v -12.0051 -5.3875 -27.6126
vn 0.78042 -0.00337713 -0.625246
v -12.0268 -5.38782 -27.6371
vn 0.715377 -0.00432573 -0.698725
v -12.0508 -5.38812 -27.6594
vn 0.643445 -0.00523267 -0.765474
v -12.0768 -5.3884 -27.6792
vn 0.565316 -0.00608921 -0.824852
v -12.1047 -5.38867 -27.6963
vn 0.481743 -0.00688711 -0.876285
v -12.1341 -5.38891 -27.7106
vn 0.39353 -0.00761868 -0.91928
v -12.1647 -5.38913 -27.722
vn 0.301528 -0.00827689 -0.953421
v -12.1964 -5.38933 -27.7303
vn 0.206621 -0.00885538 -0.978381
v -12.2286 -5.38949 -27.7355
vn 0.109725 -0.00934859 -0.993918
v -12.2613 -5.38963 -27.7375
vn 0.011772 -0.00975176 -0.999883
v -12.294 -5.38973 -27.7363
vn -0.0862945 -0.010061 -0.996219
v -12.3264 -5.3898 -27.7319
vn -0.18353 -0.0102734 -0.98296
v -12.3582 -5.38984 -27.7243
vn -0.278998 -0.0103868 -0.960236
v -12.38 -7.57969 -27.6886
vn -0.371764 -0.013925 -0.928223
v -12.4097 -7.57966 -27.6749
vn -0.460965 -0.0138213 -0.887311
v -12.4379 -7.57958 -27.6584
vn -0.545726 -0.0135845 -0.837854
v -12.4644 -7.57946 -27.6393
vn -0.625231 -0.0132168 -0.780327
v -12.4889 -7.57929 -27.6176
vn -0.698716 -0.0127218 -0.715286
v -12.5111 -7.57909 -27.5936
vn -0.765471 -0.0121044 -0.643356
v -12.5309 -7.57884 -27.5676
vn -0.824854 -0.0113703 -0.565231
v -12.5481 -7.57856 -27.5398
vn -0.876294 -0.0105268 -0.481662
v -12.5624 -7.57825 -27.5104
vn -0.919294 -0.00958187 -0.393454
v -12.5738 -7.5779 -27.4797
vn -0.953442 -0.00854467 -0.301457
v -12.5821 -7.57753 -27.4481
vn -0.978406 -0.00742518 -0.206557
v -12.5873 -7.57713 -27.4158
vn -0.993949 -0.00623418 -0.109667
v -12.5893 -7.57671 -27.3832
vn -0.999919 -0.00498315 -0.0117216
v -12.5881 -7.57628 -27.3505
vn -0.996259 -0.00368412 0.0863369
v -12.5836 -7.57584 -27.3181
vn -0.983005 -0.00234961 0.183564
v -12.5761 -7.57538 -27.2863
vn -0.960284 -0.000992474 0.279023
v -12.5654 -7.57493 -27.2554
vn -0.928315 0.00037422 0.371795
v -12.5518 -7.57447 -27.2256
vn -0.887405 0.00173731 0.460987
v -12.5353 -7.57403 -27.1974
vn -0.83795 0.00308367 0.545738
v -12.5161 -7.57359 -27.1709
vn -0.780424 0.00440033 0.625235
v -12.4945 -7.57316 -27.1464
vn -0.715383 0.00567461 0.698709
v -12.4705 -7.57276 -27.1242
vn -0.643452 0.00689425 0.765455
v -12.4445 -7.57237 -27.1044
vn -0.565325 0.00804749 0.824829
v -12.4166 -7.57201 -27.0873
vn -0.481752 0.00912322 0.87626
v -12.3872 -7.57168 -27.0729
vn -0.393541 0.0101111 0.919252
v -12.3566 -7.57139 -27.0616
vn -0.301539 0.0110016 0.95339
v -12.3249 -7.57113 -27.0532
vn -0.206634 0.0117861 0.978347
v -12.2926 -7.5709 -27.0481
vn -0.109738 0.0124572 0.993882
v -12.26 -7.57072 -27.0461
vn -0.0117856 0.0130083 0.999846
v -12.2273 -7.57058 -27.0473
vn 0.0862804 0.0134341 0.99618
v -12.1949 -7.57048 -27.0517
vn 0.183515 0.0137305 0.982921
v -12.1631 -7.57042 -27.0593
vn 0.278983 0.0138947 0.960195
v -12.1322 -7.57041 -27.0699
vn 0.371764 0.013925 0.928223
v -12.1025 -7.57045 -27.0836
vn 0.460965 0.0138213 0.887311
v -12.0742 -7.57053 -27.1001
vn 0.545726 0.0135845 0.837854
v -12.0477 -7.57065 -27.1192
vn 0.625231 0.0132168 0.780327
v -12.0233 -7.57081 -27.1409
vn 0.698716 0.0127218 0.715286
v -12.001 -7.57102 -27.1649
vn 0.765471 0.0121044 0.643356
v -11.9812 -7.57126 -27.1909
vn 0.824854 0.0113703 0.565231
v -11.9641 -7.57155 -27.2188
vn 0.876294 0.0105268 0.481662
v -11.9497 -7.57186 -27.2481
vn 0.919294 0.00958187 0.393454
v -11.9384 -7.57221 -27.2788
vn 0.953442 0.00854467 0.301457
v -11.9301 -7.57258 -27.3104
vn 0.978406 0.00742518 0.206557
v -11.9249 -7.57298 -27.3427
vn 0.993949 0.00623418 0.109667
v -11.9229 -7.57339 -27.3753
vn 0.999919 0.00498315 0.0117216
v -11.9241 -7.57383 -27.408
vn 0.996259 0.00368412 -0.0863369
v -11.9285 -7.57427 -27.4404
vn 0.983005 0.00234961 -0.183564
v -11.9361 -7.57472 -27.4722
vn 0.960284 0.000992474 -0.279023
v -11.9467 -7.57518 -27.5031
vn 0.928315 -0.00037422 -0.371795
v -11.9604 -7.57563 -27.5329
vn 0.887405 -0.00173731 -0.460987
v -11.9769 -7.57608 -27.5611
vn 0.83795 -0.00308367 -0.545738
v -11.996 -7.57652 -27.5876
vn 0.780424 -0.00440033 -0.625235
v -12.0177 -7.57694 -27.6121
vn 0.715383 -0.00567461 -0.698709
v -12.0417 -7.57735 -27.6343
vn 0.643452 -0.00689425 -0.765455
v -12.0677 -7.57773 -27.6541
vn 0.565325 -0.00804749 -0.824829
v -12.0955 -7.57809 -27.6712
vn 0.481752 -0.00912322 -0.87626
v -12.1249 -7.57842 -27.6856
vn 0.393541 -0.0101111 -0.919252
v -12.1556 -7.57872 -27.6969
vn 0.301539 -0.0110016 -0.95339
v -12.1872 -7.57898 -27.7053
vn 0.206634 -0.0117861 -0.978347
v -12.2195 -7.5792 -27.7104
vn 0.109738 -0.0124572 -0.993882
v -12.2521 -7.57939 -27.7124
vn 0.0117856 -0.0130083 -0.999846
v -12.2848 -7.57953 -27.7112
vn -0.0862804 -0.0134341 -0.99618
v -12.3172 -7.57963 -27.7068
vn -0.183515 -0.0137305 -0.982921
v -12.349 -7.57968 -27.6992
vn -0.278983 -0.0138947 -0.960195
v -12.3679 -9.76946 -27.6563
vn -0.371745 -0.0174496 -0.928171
v -12.3976 -9.76942 -27.6427
vn -0.460945 -0.0173289 -0.887259
v -12.4259 -9.76933 -27.6262
vn -0.545707 -0.0170413 -0.837803
v -12.4524 -9.76918 -27.607
vn -0.625213 -0.0165896 -0.780278
v -12.4769 -9.76897 -27.5854
vn -0.698698 -0.0159781 -0.715238
v -12.4991 -9.76872 -27.5614
vn -0.765454 -0.0152128 -0.643311
v -12.5189 -9.76841 -27.5354
vn -0.824838 -0.0143009 -0.565188
v -12.536 -9.76806 -27.5075
vn -0.876279 -0.0132513 -0.481622
v -12.5504 -9.76767 -27.4781
vn -0.919281 -0.0120741 -0.393417
v -12.5617 -9.76724 -27.4475
vn -0.953429 -0.0107806 -0.301424
v -12.5701 -9.76677 -27.4159
vn -0.978396 -0.00938332 -0.206528
v -12.5752 -9.76628 -27.3836
vn -0.99394 -0.00789565 -0.109643
v -12.5772 -9.76576 -27.351
vn -0.999911 -0.00633193 -0.0117018
v -12.576 -9.76522 -27.3183
vn -0.996254 -0.00470724 0.0863519
v -12.5716 -9.76466 -27.2859
vn -0.983001 -0.00303722 0.183574
v -12.564 -9.76409 -27.2541
vn -0.960282 -0.00133794 0.279028
v -12.5534 -9.76352 -27.2232
vn -0.928315 0.00037422 0.371795
v -12.5397 -9.76295 -27.1935
vn -0.887407 0.00208278 0.460982
v -12.5233 -9.76239 -27.1652
vn -0.837954 0.00377127 0.545728
v -12.5041 -9.76184 -27.1388
vn -0.78043 0.00542345 0.62522
v -12.4824 -9.76131 -27.1143
vn -0.71539 0.0070234 0.69869
v -12.4585 -9.7608 -27.092
vn -0.643461 0.00855571 0.765431
v -12.4324 -9.76031 -27.0723
vn -0.565335 0.0100056 0.824801
v -12.4046 -9.75986 -27.0551
vn -0.481765 0.0113592 0.876227
v -12.3752 -9.75945 -27.0408
vn -0.393555 0.0126033 0.919215
v -12.3445 -9.75908 -27.0294
vn -0.301554 0.0137261 0.95335
v -12.3129 -9.75875 -27.0211
vn -0.20665 0.0147167 0.978304
v -12.2806 -9.75846 -27.0159
vn -0.109755 0.0155656 0.993837
v -12.248 -9.75823 -27.014
vn -0.0118034 0.0162645 0.999798
v -12.2153 -9.75805 -27.0152
vn 0.0862619 0.0168068 0.996131
v -12.1829 -9.75792 -27.0196
vn 0.183496 0.0171873 0.98287
v -12.1511 -9.75785 -27.0272
vn 0.278964 0.0174022 0.960144
v -12.1202 -9.75783 -27.0378
vn 0.371745 0.0174496 0.928171
v -12.0905 -9.75787 -27.0515
vn 0.460945 0.0173289 0.887259
v -12.0623 -9.75797 -27.0679
vn 0.545707 0.0170413 0.837803
v -12.0358 -9.75812 -27.0871
vn 0.625213 0.0165896 0.780278
v -12.0113 -9.75832 -27.1088
vn 0.698698 0.0159781 0.715238
v -11.989 -9.75858 -27.1327
vn 0.765454 0.0152128 0.643311
v -11.9693 -9.75888 -27.1588
vn 0.824838 0.0143009 0.565188
v -11.9521 -9.75923 -27.1866
vn 0.876279 0.0132513 0.481622
v -11.9378 -9.75963 -27.216
vn 0.919281 0.0120741 0.393417
v -11.9264 -9.76006 -27.2466
vn 0.953429 0.0107806 0.301424
v -11.9181 -9.76052 -27.2783
vn 0.978396 0.00938332 0.206528
v -11.9129 -9.76102 -27.3105
vn 0.99394 0.00789565 0.109643
v -11.9109 -9.76154 -27.3432
vn 0.999911 0.00633193 0.0117018
v -11.9121 -9.76208 -27.3758
vn 0.996254 0.00470724 -0.0863519
v -11.9166 -9.76264 -27.4082
vn 0.983001 0.00303722 -0.183574
v -11.9241 -9.7632 -27.44
vn 0.960282 0.00133794 -0.279028
v -11.9348 -9.76377 -27.4709
vn 0.928315 -0.00037422 -0.371795
v -11.9484 -9.76434 -27.5007
vn 0.887407 -0.00208278 -0.460982
v -11.9649 -9.7649 -27.5289
vn 0.837954 -0.00377127 -0.545728
v -11.984 -9.76546 -27.5554
vn 0.78043 -0.00542345 -0.62522
v -12.0057 -9.76599 -27.5799
vn 0.71539 -0.0070234 -0.69869
v -12.0297 -9.7665 -27.6021
vn 0.643461 -0.00855571 -0.765431
v -12.0557 -9.76698 -27.6219
vn 0.565335 -0.0100056 -0.824801
v -12.0836 -9.76743 -27.639
vn 0.481765 -0.0113592 -0.876227
v -12.1129 -9.76785 -27.6533
vn 0.393555 -0.0126033 -0.919215
v -12.1436 -9.76822 -27.6647
vn 0.301554 -0.0137261 -0.95335
v -12.1752 -9.76855 -27.673
vn 0.20665 -0.0147167 -0.978304
v -12.2075 -9.76883 -27.6782
vn 0.109755 -0.0155656 -0.993837
v -12.2401 -9.76907 -27.6802
vn 0.0118034 -0.0162645 -0.999798
v -12.2728 -9.76925 -27.679
vn -0.0862619 -0.0168068 -0.996131
v -12.3052 -9.76937 -27.6745
vn -0.183496 -0.0171873 -0.98287
v -12.337 -9.76945 -27.667
vn -0.278964 -0.0174022 -0.960144
f 1 66 2 
f 1 65 66 
f 2 67 3 
f 2 66 67 
f 3 68 4 
f 3 67 68 
f 4 69 5 
f 4 68 69 
f 5 70 6 
f 5 69 70 
f 6 71 7 
f 6 70 71 
f 7 72 8 
f 7 71 72 
f 8 73 9 
f 8 72 73 
f 9 74 10 
f 9 73 74 
f 10 75 11 
f 10 74 75 
f 11 76 12 
f 11 75 76 
f 12 77 13 
f 12 76 77 
f 13 78 14 
f 13 77 78 
f 14 79 15 
f 14 78 79 
f 15 80 16 
f 15 79 80 
f 16 81 17 
f 16 80 81 
f 17 82 18 
f 17 81 82 
f 18 83 19 
f 18 82 83 
f 19 84 20 
f 19 83 84 
f 20 85 21 
f 20 84 85 
f 21 86 22 
f 21 85 86 
f 22 87 23 
f 22 86 87 
f 23 88 24 
f 23 87 88 
f 24 89 25 
f 24 88 89 
f 25 90 26 
f 25 89 90 
f 26 91 27 
f 26 90 91 
f 27 92 28 
f 27 91 92 
f 28 93 29 
f 28 92 93 
f 29 94 30 
f 29 93 94 
f 30 95 31 
f 30 94 95 
f 31 96 32 
f 31 95 96 
f 32 97 33 
f 32 96 97 
f 33 98 34 
f 33 97 98 
f 34 99 35 
f 34 98 99 
f 35 100 36 
f 35 99 100 
f 36 101 37 
f 36 100 101 
f 37 102 38 
f 37 101 102 
f 38 103 39 
f 38 102 103 
f 39 104 40 
f 39 103 104 
f 40 105 41 
f 40 104 105 
f 41 106 42 
f 41 105 106 
f 42 107 43 
f 42 106 107 
f 43 108 44 
f 43 107 108 
f 44 109 45 
f 44 108 109 
f 45 110 46 
f 45 109 110 
f 46 111 47 
f 46 110 111 
f 47 112 48 
f 47 111 112 
f 48 113 49 
f 48 112 113 
f 49 114 50 
f 49 113 114 
f 50 115 51 
f 50 114 115 
f 51 116 52 
f 51 115 116 
f 52 117 53 
f 52 116 117 
f 53 118 54 
f 53 117 118 
f 54 119 55 
f 54 118 119 
f 55 120 56 
f 55 119 120 
f 56 121 57 
f 56 120 121 
f 57 122 58 
f 57 121 122 
f 58 123 59 
f 58 122 123 
f 59 124 60 
f 59 123 124 
f 60 125 61 
f 60 124 125 
f 61 126 62 
f 61 125 126 
f 62 127 63 
f 62 126 127 
f 63 128 64 
f 63 127 128 
f 64 65 1 
f 64 128 65 
f 65 130 66 
f 65 129 130 
f 66 131 67 
f 66 130 131 
f 67 132 68 
f 67 131 132 
f 68 133 69 
f 68 132 133 
f 69 134 70 
f 69 133 134 
f 70 135 71 
f 70 134 135 
f 71 136 72 
f 71 135 136 
f 72 137 73 
f 72 136 137 
f 73 138 74 
f 73 137 138 
f 74 139 75 
f 74 138 139 
f 75 140 76 
f 75 139 140 
f 76 141 77 
f 76 140 141 
f 77 142 78 
f 77 141 142 
f 78 143 79 
f 78 142 143 
f 79 144 80 
f 79 143 144 
f 80 145 81 
f 80 144 145 
f 81 146 82 
f 81 145 146 
f 82 147 83 
f 82 146 147 
f 83 148 84 
f 83 147 148 
f 84 149 85 
f 84 148 149 
f 85 150 86 
f 85 149 150 
f 86 151 87 
f 86 150 151 
f 87 152 88 
f 87 151 152 
f 88 153 89 
f 88 152 153 
f 89 154 90 
f 89 153 154 
f 90 155 91 
f 90 154 155 
f 91 156 92 
f 91 155 156 
f 92 157 93 
f 92 156 157 
f 93 158 94 
f 93 157 158 
f 94 159 95 
f 94 158 159 
f 95 160 96 
f 95 159 160 
f 96 161 97 
f 96 160 161 
f 97 162 98 
f 97 161 162 
f 98 163 99 
f 98 162 163 
f 99 164 100 
f 99 163 164 
f 100 165 101 
f 100 164 165 
f 101 166 102 
f 101 165 166 
f 102 167 103 
f 102 166 167 
f 103 168 104 
f 103 167 168 
f 104 169 105 
f 104 168 169 
f 105 170 106 
f 105 169 170 
f 106 171 107 
f 106 170 171 
f 107 172 108 
f 107 171 172 
f 108 173 109 
f 108 172 173 
f 109 174 110 
f 109 173 174 
f 110 175 111 
f 110 174 175 
f 111 176 112 
f 111 175 176 
f 112 177 113 
f 112 176 177 
f 113 178 114 
f 113 177 178 
f 114 179 115 
f 114 178 179 
f 115 180 116 
f 115 179 180 
f 116 181 117 
f 116 180 181 
f 117 182 118 
f 117 181 182 
f 118 183 119 
f 118 182 183 
f 119 184 120 
f 119 183 184 
f 120 185 121 
f 120 184 185 
f 121 186 122 
f 121 185 186 
f 122 187 123 
f 122 186 187 
f 123 188 124 
f 123 187 188 
f 124 189 125 
f 124 188 189 
f 125 190 126 
f 125 189 190 
f 126 191 127 
f 126 190 191 
f 127 192 128 
f 127 191 192 
f 128 129 65 
f 128 192 129 
f 129 194 130 
f 129 193 194 
f 130 195 131 
f 130 194 195 
f 131 196 132 
f 131 195 196 
f 132 197 133 
f 132 196 197 
f 133 198 134 
f 133 197 198 
f 134 199 135 
f 134 198 199 
f 135 200 136 
f 135 199 200 
f 136 201 137 
f 136 200 201 
f 137 202 138 
f 137 201 202 
f 138 203 139 
f 138 202 203 
f 139 204 140 
f 139 203 204 
f 140 205 141 
f 140 204 205 
f 141 206 142 
f 141 205 206 
f 142 207 143 
f 142 206 207 
f 143 208 144 
f 143 207 208 
f 144 209 145 
f 144 208 209 
f 145 210 146 
f 145 209 210 
f 146 211 147 
f 146 210 211 
f 147 212 148 
f 147 211 212 
f 148 213 149 
f 148 212 213 
f 149 214 150 
f 149 213 214 
f 150 215 151 
f 150 214 215 
f 151 216 152 
f 151 215 216 
f 152 217 153 
f 152 216 217 
f 153 218 154 
f 153 217 218 
f 154 219 155 
f 154 218 219 
f 155 220 156 
f 155 219 220 
f 156 221 157 
f 156 220 221 
f 157 222 158 
f 157 221 222 
f 158 223 159 
f 158 222 223 
f 159 224 160 
f 159 223 224 
f 160 225 161 
f 160 224 225 
f 161 226 162 
f 161 225 226 
f 162 227 163 
f 162 226 227 
f 163 228 164 
f 163 227 228 
f 164 229 165 
f 164 228 229 
f 165 230 166 
f 165 229 230 
f 166 231 167 
f 166 230 231 
f 167 232 168 
f 167 231 232 
f 168 233 169 
f 168 232 233 
f 169 234 170 
f 169 233 234 
f 170 235 171 
f 170 234 235 
f 171 236 172 
f 171 235 236 
f 172 237 173 
f 172 236 237 
f 173 238 174 
f 173 237 238 
f 174 239 175 
f 174 238 239 
f 175 240 176 
f 175 239 240 
f 176 241 177 
f 176 240 241 
f 177 242 178 
f 177 241 242 
f 178 243 179 
f 178 242 243 
f 179 244 180 
f 179 243 244 
f 180 245 181 
f 180 244 245 
f 181 246 182 
f 181 245 246 
f 182 247 183 
f 182 246 247 
f 183 248 184 
f 183 247 248 
f 184 249 185 
f 184 248 249 
f 185 250 186 
f 185 249 250 
f 186 251 187 
f 186 250 251 
f 187 252 188 
f 187 251 252 
f 188 253 189 
f 188 252 253 
f 189 254 190 
f 189 253 254 
f 190 255 191 
f 190 254 255 
f 191 256 192 
f 191 255 256 
f 192 193 129 
f 192 256 193 
f 193 258 194 
f 193 257 258 
f 194 259 195 
f 194 258 259 
f 195 260 196 
f 195 259 260 
f 196 261 197 
f 196 260 261 
f 197 262 198 
f 197 261 262 
f 198 263 199 
f 198 262 263 
f 199 264 200 
f 199 263 264 
f 200 265 201 
f 200 264 265 
f 201 266 202 
f 201 265 266 
f 202 267 203 
f 202 266 267 
f 203 268 204 
f 203 267 268 
f 204 269 205 
f 204 268 269 
f 205 270 206 
f 205 269 270 
f 206 271 207 
f 206 270 271 
f 207 272 208 
f 207 271 272 
f 208 273 209 
f 208 272 273 
f 209 274 210 
f 209 273 274 
f 210 275 211 
f 210 274 275 
f 211 276 212 
f 211 275 276 
f 212 277 213 
f 212 276 277 
f 213 278 214 
f 213 277 278 
f 214 279 215 
f 214 278 279 
f 215 280 216 
f 215 279 280 
f 216 281 217 
f 216 280 281 
f 217 282 218 
f 217 281 282 
f 218 283 219 
f 218 282 283 
f 219 284 220 
f 219 283 284 
f 220 285 221 
f 220 284 285 
f 221 286 222 
f 221 285 286 
f 222 287 223 
f 222 286 287 
f 223 288 224 
f 223 287 288 
f 224 289 225 
f 224 288 289 
f 225 290 226 
f 225 289 290 
f 226 291 227 
f 226 290 291 
f 227 292 228 
f 227 291 292 
f 228 293 229 
f 228 292 293 
f 229 294 230 
f 229 293 294 
f 230 295 231 
f 230 294 295 
f 231 296 232 
f 231 295 296 
f 232 297 233 
f 232 296 297 
f 233 298 234 
f 233 297 298 
f 234 299 235 
f 234 298 299 
f 235 300 236 
f 235 299 300 
f 236 301 237 
f 236 300 301 
f 237 302 238 
f 237 301 302 
f 238 303 239 
f 238 302 303 
f 239 304 240 
f 239 303 304 
f 240 305 241 
f 240 304 305 
f 241 306 242 
f 241 305 306 
f 242 307 243 
f 242 306 307 
f 243 308 244 
f 243 307 308 
f 244 309 245 
f 244 308 309 
f 245 310 246 
f 245 309 310 
f 246 311 247 
f 246 310 311 
f 247 312 248 
f 247 311 312 
f 248 313 249 
f 248 312 313 
f 249 314 250 
f 249 313 314 
f 250 315 251 
f 250 314 315 
f 251 316 252 
f 251 315 316 
f 252 317 253 
f 252 316 317 
f 253 318 254 
f 253 317 318 
f 254 319 255 
f 254 318 319 
f 255 320 256 
f 255 319 320 
f 256 257 193 
f 256 320 257 
f 257 322 258 
f 257 321 322 
f 258 323 259 
f 258 322 323 
f 259 324 260 
f 259 323 324 
f 260 325 261 
f 260 324 325 
f 261 326 262 
f 261 325 326 
f 262 327 263 
f 262 326 327 
f 263 328 264 
f 263 327 328 
f 264 329 265 
f 264 328 329 
f 265 330 266 
f 265 329 330 
f 266 331 267 
f 266 330 331 
f 267 332 268 
f 267 331 332 
f 268 333 269 
f 268 332 333 
f 269 334 270 
f 269 333 334 
f 270 335 271 
f 270 334 335 
f 271 336 272 
f 271 335 336 
f 272 337 273 
f 272 336 337 
f 273 338 274 
f 273 337 338 
f 274 339 275 
f 274 338 339 
f 275 340 276 
f 275 339 340 
f 276 341 277 
f 276 340 341 
f 277 342 278 
f 277 341 342 
f 278 343 279 
f 278 342 343 
f 279 344 280 
f 279 343 344 
f 280 345 281 
f 280 344 345 
f 281 346 282 
f 281 345 346 
f 282 347 283 
f 282 346 347 
f 283 348 284 
f 283 347 348 
f 284 349 285 
f 284 348 349 
f 285 350 286 
f 285 349 350 
f 286 351 287 
f 286 350 351 
f 287 352 288 
f 287 351 352 
f 288 353 289 
f 288 352 353 
f 289 354 290 
f 289 353 354 
f 290 355 291 
f 290 354 355 
f 291 356 292 
f 291 355 356 
f 292 357 293 
f 292 356 357 
f 293 358 294 
f 293 357 358 
f 294 359 295 
f 294 358 359 
f 295 360 296 
f 295 359 360 
f 296 361 297 
f 296 360 361 
f 297 362 298 
f 297 361 362 
f 298 363 299 
f 298 362 363 
f 299 364 300 
f 299 363 364 
f 300 365 301 
f 300 364 365 
f 301 366 302 
f 301 365 366 
f 302 367 303 
f 302 366 367 
f 303 368 304 
f 303 367 368 
f 304 369 305 
f 304 368 369 
f 305 370 306 
f 305 369 370 
f 306 371 307 
f 306 370 371 
f 307 372 308 
f 307 371 372 
f 308 373 309 
f 308 372 373 
f 309 374 310 
f 309 373 374 
f 310 375 311 
f 310 374 375 
f 311 376 312 
f 311 375 376 
f 312 377 313 
f 312 376 377 
f 313 378 314 
f 313 377 378 
f 314 379 315 
f 314 378 379 
f 315 380 316 
f 315 379 380 
f 316 381 317 
f 316 380 381 
f 317 382 318 
f 317 381 382 
f 318 383 319 
f 318 382 383 
f 319 384 320 
f 319 383 384 
f 320 321 257 
f 320 384 321 
f 321 386 322 
f 321 385 386 
f 322 387 323 
f 322 386 387 
f 323 388 324 
f 323 387 388 
f 324 389 325 
f 324 388 389 
f 325 390 326 
f 325 389 390 
f 326 391 327 
f 326 390 391 
f 327 392 328 
f 327 391 392 
f 328 393 329 
f 328 392 393 
f 329 394 330 
f 329 393 394 
f 330 395 331 
f 330 394 395 
f 331 396 332 
f 331 395 396 
f 332 397 333 
f 332 396 397 
f 333 398 334 
f 333 397 398 
f 334 399 335 
f 334 398 399 
f 335 400 336 
f 335 399 400 
f 336 401 337 
f 336 400 401 
f 337 402 338 
f 337 401 402 
f 338 403 339 
f 338 402 403 
f 339 404 340 
f 339 403 404 
f 340 405 341 
f 340 404 405 
f 341 406 342 
f 341 405 406 
f 342 407 343 
f 342 406 407 
f 343 408 344 
f 343 407 408 
f 344 409 345 
f 344 408 409 
f 345 410 346 
f 345 409 410 
f 346 411 347 
f 346 410 411 
f 347 412 348 
f 347 411 412 
f 348 413 349 
f 348 412 413 
f 349 414 350 
f 349 413 414 
f 350 415 351 
f 350 414 415 
f 351 416 352 
f 351 415 416 
f 352 417 353 
f 352 416 417 
f 353 418 354 
f 353 417 418 
f 354 419 355 
f 354 418 419 
f 355 420 356 
f 355 419 420 
f 356 421 357 
f 356 420 421 
f 357 422 358 
f 357 421 422 
f 358 423 359 
f 358 422 423 
f 359 424 360 
f 359 423 424 
f 360 425 361 
f 360 424 425 
f 361 426 362 
f 361 425 426 
f 362 427 363 
f 362 426 427 
f 363 428 364 
f 363 427 428 
f 364 429 365 
f 364 428 429 
f 365 430 366 
f 365 429 430 
f 366 431 367 
f 366 430 431 
f 367 432 368 
f 367 431 432 
f 368 433 369 
f 368 432 433 
f 369 434 370 
f 369 433 434 
f 370 435 371 
f 370 434 435 
f 371 436 372 
f 371 435 436 
f 372 437 373 
f 372 436 437 
f 373 438 374 
f 373 437 438 
f 374 439 375 
f 374 438 439 
f 375 440 376 
f 375 439 440 
f 376 441 377 
f 376 440 441 
f 377 442 378 
f 377 441 442 
f 378 443 379 
f 378 442 443 
f 379 444 380 
f 379 443 444 
f 380 445 381 
f 380 444 445 
f 381 446 382 
f 381 445 446 
f 382 447 383 
f 382 446 447 
f 383 448 384 
f 383 447 448 
f 384 385 321 
f 384 448 385 
f 385 450 386 
f 385 449 450 
f 386 451 387 
f 386 450 451 
f 387 452 388 
f 387 451 452 
f 388 453 389 
f 388 452 453 
f 389 454 390 
f 389 453 454 
f 390 455 391 
f 390 454 455 
f 391 456 392 
f 391 455 456 
f 392 457 393 
f 392 456 457 
f 393 458 394 
f 393 457 458 
f 394 459 395 
f 394 458 459 
f 395 460 396 
f 395 459 460 
f 396 461 397 
f 396 460 461 
f 397 462 398 
f 397 461 462 
f 398 463 399 
f 398 462 463 
f 399 464 400 
f 399 463 464 
f 400 465 401 
f 400 464 465 
f 401 466 402 
f 401 465 466 
f 402 467 403 
f 402 466 467 
f 403 468 404 
f 403 467 468 
f 404 469 405 
f 404 468 469 
f 405 470 406 
f 405 469 470 
f 406 471 407 
f 406 470 471 
f 407 472 408 
f 407 471 472 
f 408 473 409 
f 408 472 473 
f 409 474 410 
f 409 473 474 
f 410 475 411 
f 410 474 475 
f 411 476 412 
f 411 475 476 
f 412 477 413 
f 412 476 477 
f 413 478 414 
f 413 477 478 
f 414 479 415 
f 414 478 479 
f 415 480 416 
f 415 479 480 
f 416 481 417 
f 416 480 481 
f 417 482 418 
f 417 481 482 
f 418 483 419 
f 418 482 483 
f 419 484 420 
f 419 483 484 
f 420 485 421 
f 420 484 485 
f 421 486 422 
f 421 485 486 
f 422 487 423 
f 422 486 487 
f 423 488 424 
f 423 487 488 
f 424 489 425 
f 424 488 489 
f 425 490 426 
f 425 489 490 
f 426 491 427 
f 426 490 491 
f 427 492 428 
f 427 491 492 
f 428 493 429 
f 428 492 493 
f 429 494 430 
f 429 493 494 
f 430 495 431 
f 430 494 495 
f 431 496 432 
f 431 495 496 
f 432 497 433 
f 432 496 497 
f 433 498 434 
f 433 497 498 
f 434 499 435 
f 434 498 499 
f 435 500 436 
f 435 499 500 
f 436 501 437 
f 436 500 501 
f 437 502 438 
f 437 501 502 
f 438 503 439 
f 438 502 503 
f 439 504 440 
f 439 503 504 
f 440 505 441 
f 440 504 505 
f 441 506 442 
f 441 505 506 
f 442 507 443 
f 442 506 507 
f 443 508 444 
f 443 507 508 
f 444 509 445 
f 444 508 509 
f 445 510 446 
f 445 509 510 
f 446 511 447 
f 446 510 511 
f 447 512 448 
f 447 511 512 
f 448 449 385 
f 448 512 449 
f 449 514 450 
f 449 513 514 
f 450 515 451 
f 450 514 515 
f 451 516 452 
f 451 515 516 
f 452 517 453 
f 452 516 517 
f 453 518 454 
f 453 517 518 
f 454 519 455 
f 454 518 519 
f 455 520 456 
f 455 519 520 
f 456 521 457 
f 456 520 521 
f 457 522 458 
f 457 521 522 
f 458 523 459 
f 458 522 523 
f 459 524 460 
f 459 523 524 
f 460 525 461 
f 460 524 525 
f 461 526 462 
f 461 525 526 
f 462 527 463 
f 462 526 527 
f 463 528 464 
f 463 527 528 
f 464 529 465 
f 464 528 529 
f 465 530 466 
f 465 529 530 
f 466 531 467 
f 466 530 531 
f 467 532 468 
f 467 531 532 
f 468 533 469 
f 468 532 533 
f 469 534 470 
f 469 533 534 
f 470 535 471 
f 470 534 535 
f 471 536 472 
f 471 535 536 
f 472 537 473 
f 472 536 537 
f 473 538 474 
f 473 537 538 
f 474 539 475 
f 474 538 539 
f 475 540 476 
f 475 539 540 
f 476 541 477 
f 476 540 541 
f 477 542 478 
f 477 541 542 
f 478 543 479 
f 478 542 543 
f 479 544 480 
f 479 543 544 
f 480 545 481 
f 480 544 545 
f 481 546 482 
f 481 545 546 
f 482 547 483 
f 482 546 547 
f 483 548 484 
f 483 547 548 
f 484 549 485 
f 484 548 549 
f 485 550 486 
f 485 549 550 
f 486 551 487 
f 486 550 551 
f 487 552 488 
f 487 551 552 
f 488 553 489 
f 488 552 553 
f 489 554 490 
f 489 553 554 
f 490 555 491 
f 490 554 555 
f 491 556 492 
f 491 555 556 
f 492 557 493 
f 492 556 557 
f 493 558 494 
f 493 557 558 
f 494 559 495 
f 494 558 559 
f 495 560 496 
f 495 559 560 
f 496 561 497 
f 496 560 561 
f 497 562 498 
f 497 561 562 
f 498 563 499 
f 498 562 563 
f 499 564 500 
f 499 563 564 
f 500 565 501 
f 500 564 565 
f 501 566 502 
f 501 565 566 
f 502 567 503 
f 502 566 567 
f 503 568 504 
f 503 567 568 
f 504 569 505 
f 504 568 569 
f 505 570 506 
f 505 569 570 
f 506 571 507 
f 506 570 571 
f 507 572 508 
f 507 571 572 
f 508 573 509 
f 508 572 573 
f 509 574 510 
f 509 573 574 
f 510 575 511 
f 510 574 575 
f 511 576 512 
f 511 575 576 
f 512 513 449 
f 512 576 513 
f 513 578 514 
f 513 577 578 
f 514 579 515 
f 514 578 579 
f 515 580 516 
f 515 579 580 
f 516 581 517 
f 516 580 581 
f 517 582 518 
f 517 581 582 
f 518 583 519 
f 518 582 583 
f 519 584 520 
f 519 583 584 
f 520 585 521 
f 520 584 585 
f 521 586 522 
f 521 585 586 
f 522 587 523 
f 522 586 587 
f 523 588 524 
f 523 587 588 
f 524 589 525 
f 524 588 589 
f 525 590 526 
f 525 589 590 
f 526 591 527 
f 526 590 591 
f 527 592 528 
f 527 591 592 
f 528 593 529 
f 528 592 593 
f 529 594 530 
f 529 593 594 
f 530 595 531 
f 530 594 595 
f 531 596 532 
f 531 595 596 
f 532 597 533 
f 532 596 597 
f 533 598 534 
f 533 597 598 
f 534 599 535 
f 534 598 599 
f 535 600 536 
f 535 599 600 
f 536 601 537 
f 536 600 601 
f 537 602 538 
f 537 601 602 
f 538 603 539 
f 538 602 603 
f 539 604 540 
f 539 603 604 
f 540 605 541 
f 540 604 605 
f 541 606 542 
f 541 605 606 
f 542 607 543 
f 542 606 607 
f 543 608 544 
f 543 607 608 
f 544 609 545 
f 544 608 609 
f 545 610 546 
f 545 609 610 
f 546 611 547 
f 546 610 611 
f 547 612 548 
f 547 611 612 
f 548 613 549 
f 548 612 613 
f 549 614 550 
f 549 613 614 
f 550 615 551 
f 550 614 615 
f 551 616 552 
f 551 615 616 
f 552 617 553 
f 552 616 617 
f 553 618 554 
f 553 617 618 
f 554 619 555 
f 554 618 619 
f 555 620 556 
f 555 619 620 
f 556 621 557 
f 556 620 621 
f 557 622 558 
f 557 621 622 
f 558 623 559 
f 558 622 623 
f 559 624 560 
f 559 623 624 
f 560 625 561 
f 560 624 625 
f 561 626 562 
f 561 625 626 
f 562 627 563 
f 562 626 627 
f 563 628 564 
f 563 627 628 
f 564 629 565 
f 564 628 629 
f 565 630 566 
f 565 629 630 
f 566 631 567 
f 566 630 631 
f 567 632 568 
f 567 631 632 
f 568 633 569 
f 568 632 633 
f 569 634 570 
f 569 633 634 
f 570 635 571 
f 570 634 635 
f 571 636 572 
f 571 635 636 
f 572 637 573 
f 572 636 637 
f 573 638 574 
f 573 637 638 
f 574 639 575 
f 574 638 639 
f 575 640 576 
f 575 639 640 
f 576 577 513 
f 576 640 577 
