# Branch
v 7.37583 9.47443 -26.5082
vn -0.908033 0.126444 0.399359
v 7.41157 9.45189 -26.4307
vn -0.868318 0.101395 0.485533
v 7.45484 9.42847 -26.3574
vn -0.820241 0.0753706 0.56703
v 7.50521 9.40439 -26.2889
vn -0.764265 0.0486198 0.643067
v 7.56221 9.3799 -26.2261
vn -0.700928 0.0214008 0.712911
v 7.62529 9.35522 -26.1694
vn -0.630841 -0.00602427 0.775889
v 7.69383 9.33059 -26.1195
vn -0.554679 -0.0333913 0.831394
v 7.76717 9.30625 -26.0767
vn -0.473174 -0.0604369 0.878893
v 7.84462 9.28244 -26.0416
vn -0.387113 -0.0869003 0.917928
v 7.92543 9.25937 -26.0144
vn -0.297324 -0.112527 0.948122
v 8.00881 9.23729 -25.9954
vn -0.204671 -0.13707 0.969186
v 8.09396 9.21639 -25.9849
vn -0.110047 -0.160293 0.980916
v 8.18007 9.19688 -25.9828
vn -0.0143639 -0.181972 0.983199
v 8.2663 9.17895 -25.9893
vn 0.0814581 -0.201898 0.976013
v 8.35183 9.16276 -26.0042
vn 0.176496 -0.219881 0.959428
v 8.43582 9.14849 -26.0275
vn 0.269833 -0.235745 0.933603
v 8.51748 9.13625 -26.0588
vn 0.360572 -0.24934 0.898787
v 8.59602 9.12618 -26.0979
vn 0.447839 -0.260533 0.855315
v 8.67067 9.11837 -26.1445
vn 0.530792 -0.269217 0.803606
v 8.74072 9.11288 -26.198
vn 0.608634 -0.275308 0.744157
v 8.8055 9.10979 -26.2579
vn 0.680615 -0.278748 0.677542
v 8.86437 9.10911 -26.3237
vn 0.74604 -0.279503 0.604402
v 8.91679 9.11085 -26.3948
vn 0.804281 -0.277567 0.525442
v 8.96223 9.115 -26.4704
vn 0.854776 -0.272957 0.441421
v 9.00026 9.12151 -26.5498
vn 0.897039 -0.265719 0.353148
v 9.03052 9.13033 -26.6323
vn 0.930664 -0.255922 0.261475
v 9.05271 9.14136 -26.7171
vn 0.955325 -0.24366 0.167284
v 9.06663 9.15451 -26.8033
vn 0.970786 -0.229051 0.0714815
v 9.07213 9.16964 -26.8901
vn 0.976898 -0.212237 -0.0250093
v 9.06916 9.18661 -26.9768
vn 0.973602 -0.193379 -0.121259
v 9.05776 9.20526 -27.0623
vn 0.96093 -0.172658 -0.216341
v 9.03803 9.2254 -27.146
vn 0.939003 -0.150275 -0.30934
v 9.01016 9.24685 -27.227
vn 0.908033 -0.126444 -0.399359
v 8.97442 9.26939 -27.3046
vn 0.868318 -0.101395 -0.485533
v 8.93115 9.29281 -27.3779
vn 0.820241 -0.0753706 -0.56703
v 8.88078 9.31689 -27.4464
vn 0.764265 -0.0486198 -0.643067
v 8.82378 9.34138 -27.5092
vn 0.700928 -0.0214008 -0.712911
v 8.7607 9.36606 -27.5659
vn 0.630841 0.00602427 -0.775889
v 8.69216 9.39069 -27.6158
vn 0.554679 0.0333913 -0.831394
v 8.61882 9.41503 -27.6586
vn 0.473174 0.0604369 -0.878893
v 8.54137 9.43884 -27.6937
vn 0.387113 0.0869003 -0.917928
v 8.46056 9.46191 -27.7209
vn 0.297324 0.112527 -0.948122
v 8.37718 9.48399 -27.7398
vn 0.204671 0.13707 -0.969186
v 8.29203 9.50489 -27.7504
vn 0.110047 0.160293 -0.980916
v 8.20592 9.5244 -27.7524
vn 0.0143639 0.181972 -0.983199
v 8.11969 9.54233 -27.746
vn -0.0814581 0.201898 -0.976013
v 8.03416 9.55852 -27.7311
vn -0.176496 0.219881 -0.959428
v 7.95017 9.57279 -27.7078
vn -0.269833 0.235745 -0.933603
v 7.86851 9.58503 -27.6765
vn -0.360572 0.24934 -0.898787
v 7.78997 9.5951 -27.6374
vn -0.447839 0.260533 -0.855315
v 7.71532 9.60291 -27.5908
vn -0.530792 0.269217 -0.803606
v 7.64527 9.6084 -27.5373
vn -0.608634 0.275308 -0.744157
v 7.58049 9.61149 -27.4774
vn -0.680615 0.278748 -0.677542
v 7.52162 9.61217 -27.4116
vn -0.74604 0.279503 -0.604402
v 7.4692 9.61043 -27.3405
vn -0.804281 0.277567 -0.525442
v 7.42376 9.60628 -27.2649
vn -0.854776 0.272957 -0.441421
v 7.38573 9.59977 -27.1854
vn -0.897039 0.265719 -0.353148
v 7.35547 9.59095 -27.1029
vn -0.930664 0.255922 -0.261475
v 7.33328 9.57991 -27.0182
vn -0.955325 0.24366 -0.167284
v 7.31936 9.56677 -26.932
vn -0.970786 0.229051 -0.0714815
v 7.31386 9.55164 -26.8451
vn -0.976898 0.212237 0.0250093
v 7.31683 9.53467 -26.7585
vn -0.973602 0.193379 0.121259
v 7.32823 9.51602 -26.673
vn -0.96093 0.172658 0.216341
v 7.34796 9.49588 -26.5893
vn -0.939003 0.150275 0.30934
v 6.93956 7.50405 -26.8798
vn -0.913473 0.100402 0.394317
v 6.97638 7.48096 -26.8
vn -0.873732 0.0754791 0.480515
v 7.021 7.45719 -26.7244
vn -0.825577 0.0498292 0.562085
v 7.07299 7.43298 -26.6538
vn -0.769471 0.0236994 0.638242
v 7.13184 7.40855 -26.589
vn -0.705954 -0.00265862 0.708253
v 7.19699 7.38416 -26.5304
vn -0.635639 -0.0289911 0.771442
v 7.26782 7.36001 -26.4787
vn -0.559202 -0.0550443 0.827202
v 7.34364 7.33637 -26.4345
vn -0.47738 -0.0805674 0.874996
v 7.42371 7.31343 -26.398
vn -0.39096 -0.105315 0.914363
v 7.50728 7.29144 -26.3697
vn -0.300775 -0.129048 0.944924
v 7.59352 7.2706 -26.3498
vn -0.207694 -0.151538 0.966385
v 7.68163 7.25112 -26.3385
vn -0.112612 -0.172569 0.978539
v 7.77073 7.23317 -26.336
vn -0.0164457 -0.191937 0.981269
v 7.85999 7.21694 -26.3422
vn 0.0798789 -0.209458 0.97455
v 7.94853 7.20257 -26.3571
vn 0.175434 -0.224961 0.958444
v 8.0355 7.19021 -26.3806
vn 0.2693 -0.238298 0.933109
v 8.12007 7.17998 -26.4124
vn 0.360572 -0.24934 0.898787
v 8.20143 7.17198 -26.4522
vn 0.448372 -0.25798 0.855809
v 8.27878 7.16627 -26.4997
vn 0.531854 -0.264136 0.804589
v 8.35139 7.16293 -26.5543
vn 0.610213 -0.267748 0.745621
v 8.41855 7.16197 -26.6156
vn 0.682696 -0.268782 0.679472
v 8.47962 7.16341 -26.683
vn 0.748605 -0.267227 0.606779
v 8.53401 7.16723 -26.7557
vn 0.807303 -0.263099 0.528243
v 8.5812 7.17341 -26.8332
vn 0.858227 -0.256437 0.444619
v 8.62072 7.18187 -26.9147
vn 0.900886 -0.247305 0.356714
v 8.65221 7.19254 -26.9993
vn 0.934869 -0.235791 0.265373
v 8.67536 7.20531 -27.0863
vn 0.959848 -0.222007 0.171476
v 8.68994 7.22006 -27.1749
vn 0.975584 -0.206085 0.0759281
v 8.69581 7.23665 -27.2641
vn 0.981924 -0.188178 -0.0203511
v 8.69292 7.25493 -27.3531
vn 0.978808 -0.168458 -0.116434
v 8.6813 7.2747 -27.4411
vn 0.966265 -0.147117 -0.211396
v 8.66106 7.29579 -27.5272
vn 0.944417 -0.124358 -0.304322
v 8.63239 7.31799 -27.6106
vn 0.913473 -0.100402 -0.394317
v 8.59556 7.34108 -27.6905
vn 0.873732 -0.0754791 -0.480515
v 8.55094 7.36485 -27.766
vn 0.825577 -0.0498292 -0.562085
v 8.49895 7.38906 -27.8366
vn 0.769471 -0.0236994 -0.638242
v 8.4401 7.41348 -27.9015
vn 0.705954 0.00265862 -0.708253
v 8.37495 7.43788 -27.96
vn 0.635639 0.0289911 -0.771442
v 8.30412 7.46202 -28.0117
vn 0.559202 0.0550443 -0.827202
v 8.22831 7.48567 -28.056
vn 0.47738 0.0805674 -0.874996
v 8.14823 7.5086 -28.0925
vn 0.39096 0.105315 -0.914363
v 8.06467 7.53059 -28.1208
vn 0.300775 0.129048 -0.944924
v 7.97842 7.55143 -28.1407
vn 0.207694 0.151538 -0.966385
v 7.89032 7.57092 -28.1519
vn 0.112612 0.172569 -0.978539
v 7.80121 7.58887 -28.1544
vn 0.0164457 0.191937 -0.981269
v 7.71196 7.6051 -28.1482
vn -0.0798789 0.209458 -0.97455
v 7.62342 7.61946 -28.1333
vn -0.175434 0.224961 -0.958444
v 7.53644 7.63182 -28.1098
vn -0.2693 0.238298 -0.933109
v 7.45187 7.64205 -28.078
vn -0.360572 0.24934 -0.898787
v 7.37051 7.65006 -28.0382
vn -0.448372 0.25798 -0.855809
v 7.29316 7.65576 -27.9907
vn -0.531854 0.264136 -0.804589
v 7.22055 7.65911 -27.9361
vn -0.610213 0.267748 -0.745621
v 7.15339 7.66007 -27.8748
vn -0.682696 0.268782 -0.679472
v 7.09232 7.65863 -27.8074
vn -0.748605 0.267227 -0.606779
v 7.03793 7.6548 -27.7347
vn -0.807303 0.263099 -0.528243
v 6.99075 7.64863 -27.6572
vn -0.858227 0.256437 -0.444619
v 6.95122 7.64017 -27.5757
vn -0.900886 0.247305 -0.356714
v 6.91973 7.6295 -27.4911
vn -0.934869 0.235791 -0.265373
v 6.89659 7.61673 -27.4041
vn -0.959848 0.222007 -0.171476
v 6.88201 7.60197 -27.3156
vn -0.975584 0.206085 -0.0759281
v 6.87613 7.58538 -27.2264
vn -0.981924 0.188178 0.0203511
v 6.87902 7.56711 -27.1373
vn -0.978808 0.168458 0.116434
v 6.89064 7.54733 -27.0493
vn -0.966265 0.147117 0.211396
v 6.91088 7.52625 -26.9632
vn -0.944417 0.124358 0.304322
v 6.54582 5.48877 -27.281
vn -0.918071 0.075299 0.389198
v 6.58372 5.46513 -27.1988
vn -0.878308 0.0504969 0.475421
v 6.62969 5.44102 -27.1209
vn -0.830087 0.0252085 0.557064
v 6.68328 5.41669 -27.0482
vn -0.773871 -0.000322751 0.633343
v 6.74397 5.39235 -26.9813
vn -0.710202 -0.0258509 0.703523
v 6.81118 5.36825 -26.9209
vn -0.639694 -0.05113 0.766927
v 6.88427 5.34463 -26.8675
vn -0.563025 -0.0759167 0.822946
v 6.96252 5.3217 -26.8216
vn -0.480934 -0.0999724 0.871038
v 7.04519 5.29968 -26.7838
vn -0.394211 -0.123065 0.910743
v 7.13148 5.2788 -26.7543
vn -0.303692 -0.144973 0.941676
v 7.22055 5.25925 -26.7335
vn -0.210248 -0.165484 0.963541
v 7.31156 5.24121 -26.7215
vn -0.114779 -0.184402 0.976126
v 7.40362 5.22487 -26.7184
vn -0.0182053 -0.201544 0.97931
v 7.49585 5.21038 -26.7244
vn 0.0785441 -0.216745 0.973063
v 7.58735 5.19788 -26.7393
vn 0.174537 -0.229858 0.957446
v 7.67725 5.18749 -26.7629
vn 0.268849 -0.240758 0.932607
v 7.76469 5.17931 -26.7952
vn 0.360572 -0.24934 0.898787
v 7.84882 5.17342 -26.8357
vn 0.448823 -0.255519 0.856311
v 7.92882 5.16987 -26.884
vn 0.532751 -0.259239 0.805588
v 8.00393 5.16871 -26.9398
vn 0.611548 -0.260461 0.747107
v 8.07343 5.16993 -27.0024
vn 0.684456 -0.259175 0.681431
v 8.13665 5.17354 -27.0712
vn 0.750772 -0.255394 0.609192
v 8.19297 5.17949 -27.1457
vn 0.809858 -0.249152 0.531087
v 8.24186 5.18773 -27.225
vn 0.861144 -0.240511 0.447867
v 8.28285 5.19817 -27.3085
vn 0.904138 -0.229554 0.360334
v 8.31553 5.21072 -27.3952
vn 0.938423 -0.216386 0.26933
v 8.3396 5.22526 -27.4844
vn 0.963672 -0.201134 0.175733
v 8.35482 5.24165 -27.5753
vn 0.979639 -0.183946 0.080443
v 8.36105 5.25972 -27.6669
vn 0.986172 -0.164985 -0.0156214
v 8.35822 5.27931 -27.7583
vn 0.983208 -0.144436 -0.111535
v 8.34637 5.30022 -27.8487
vn 0.970775 -0.122496 -0.206375
v 8.3256 5.32226 -27.9372
vn 0.948993 -0.099376 -0.299228
v 8.29613 5.34522 -28.023
vn 0.918071 -0.075299 -0.389198
v 8.25822 5.36886 -28.1052
vn 0.878308 -0.0504969 -0.475421
v 8.21226 5.39296 -28.183
vn 0.830087 -0.0252085 -0.557064
v 8.15867 5.4173 -28.2557
vn 0.773871 0.000322751 -0.633343
v 8.09798 5.44164 -28.3226
vn 0.710202 0.0258509 -0.703523
v 8.03076 5.46573 -28.383
vn 0.639694 0.05113 -0.766927
v 7.95768 5.48936 -28.4364
vn 0.563025 0.0759167 -0.822946
v 7.87943 5.51229 -28.4823
vn 0.480934 0.0999724 -0.871038
v 7.79676 5.53431 -28.5201
vn 0.394211 0.123065 -0.910743
v 7.71047 5.55519 -28.5496
vn 0.303692 0.144973 -0.941676
v 7.62139 5.57474 -28.5705
vn 0.210248 0.165484 -0.963541
v 7.53039 5.59278 -28.5825
vn 0.114779 0.184402 -0.976126
v 7.43833 5.60912 -28.5855
vn 0.0182053 0.201544 -0.97931
v 7.3461 5.62361 -28.5795
vn -0.0785441 0.216745 -0.973063
v 7.25459 5.63611 -28.5647
vn -0.174537 0.229858 -0.957446
v 7.16469 5.6465 -28.541
vn -0.268849 0.240758 -0.932607
v 7.07726 5.65468 -28.5087
vn -0.360572 0.24934 -0.898787
v 6.99313 5.66057 -28.4682
vn -0.448823 0.255519 -0.856311
v 6.91313 5.66412 -28.4199
vn -0.532751 0.259239 -0.805588
v 6.83801 5.66528 -28.3641
vn -0.611548 0.260461 -0.747107
v 6.76851 5.66405 -28.3015
vn -0.684456 0.259175 -0.681431
v 6.7053 5.66045 -28.2327
vn -0.750772 0.255394 -0.609192
v 6.64897 5.6545 -28.1582
vn -0.809858 0.249152 -0.531087
v 6.60008 5.64626 -28.0789
vn -0.861144 0.240511 -0.447867
v 6.5591 5.63582 -27.9955
vn -0.904138 0.229554 -0.360334
v 6.52642 5.62327 -27.9087
vn -0.938423 0.216386 -0.26933
v 6.50235 5.60873 -27.8195
vn -0.963672 0.201134 -0.175733
v 6.48713 5.59234 -27.7286
vn -0.979639 0.183946 -0.080443
v 6.4809 5.57427 -27.6371
vn -0.986172 0.164985 0.0156214
v 6.48372 5.55468 -27.5456
vn -0.983208 0.144436 0.111535
v 6.49558 5.53376 -27.4552
vn -0.970775 0.122496 0.206375
v 6.51634 5.51173 -27.3667
vn -0.948993 0.099376 0.299228
v 6.19461 3.42868 -27.7116
vn -0.921903 0.0511333 0.384031
v 6.23359 3.40449 -27.6271
vn -0.882122 0.0264475 0.470279
v 6.2809 3.38005 -27.547
vn -0.833845 0.00150702 0.551997
v 6.33607 3.35559 -27.4721
vn -0.777538 -0.023448 0.628399
v 6.39859 3.33136 -27.4032
vn -0.713742 -0.0481771 0.698749
v 6.46784 3.30758 -27.3408
vn -0.643073 -0.0724423 0.76237
v 6.54316 3.28449 -27.2857
vn -0.566211 -0.0960099 0.818649
v 6.62382 3.2623 -27.2383
vn -0.483896 -0.118653 0.867044
v 6.70905 3.24123 -27.199
vn -0.396921 -0.140153 0.907089
v 6.79802 3.22148 -27.1683
vn -0.306123 -0.160303 0.938398
v 6.88989 3.20325 -27.1465
vn -0.212377 -0.17891 0.96067
v 6.98375 3.18671 -27.1337
vn -0.116586 -0.195794 0.97369
v 7.07872 3.17201 -27.1302
vn -0.0196717 -0.210792 0.977333
v 7.17388 3.1593 -27.1358
vn 0.0774318 -0.22376 0.971564
v 7.2683 3.14871 -27.1507
vn 0.17379 -0.234573 0.956438
v 7.36108 3.14032 -27.1745
vn 0.268474 -0.243127 0.9321
v 7.45133 3.13424 -27.2071
vn 0.360572 -0.24934 0.898787
v 7.53818 3.1305 -27.2483
vn 0.449198 -0.253151 0.856817
v 7.62079 3.12916 -27.2975
vn 0.533498 -0.254524 0.806596
v 7.69836 3.13021 -27.3543
vn 0.61266 -0.253446 0.748607
v 7.77015 3.13366 -27.4182
vn 0.685922 -0.249928 0.683408
v 7.83547 3.13947 -27.4885
vn 0.752578 -0.244002 0.611628
v 7.89368 3.14758 -27.5647
vn 0.811987 -0.235726 0.533957
v 7.94423 3.15791 -27.6458
vn 0.863575 -0.225181 0.451145
v 7.98664 3.17037 -27.7312
vn 0.906847 -0.212466 0.363987
v 8.02048 3.18483 -27.8201
vn 0.941385 -0.197706 0.273324
v 8.04544 3.20116 -27.9115
vn 0.966858 -0.181041 0.180029
v 8.06128 3.2192 -28.0046
vn 0.983019 -0.162633 0.0849997
v 8.06784 3.23878 -28.0985
vn 0.989712 -0.142659 -0.0108479
v 8.06506 3.25969 -28.1923
vn 0.986875 -0.121311 -0.106591
v 8.05296 3.28176 -28.2852
vn 0.974533 -0.0987945 -0.201308
v 8.03167 3.30476 -28.3761
vn 0.952806 -0.0753266 -0.294086
v 8.00139 3.32846 -28.4642
vn 0.921903 -0.0511333 -0.384031
v 7.96241 3.35265 -28.5487
vn 0.882122 -0.0264475 -0.470279
v 7.9151 3.37709 -28.6288
vn 0.833845 -0.00150702 -0.551997
v 7.85992 3.40155 -28.7037
vn 0.777538 0.023448 -0.628399
v 7.79741 3.42578 -28.7726
vn 0.713742 0.0481771 -0.698749
v 7.72816 3.44956 -28.835
vn 0.643073 0.0724423 -0.76237
v 7.65284 3.47265 -28.8901
vn 0.566211 0.0960099 -0.818649
v 7.57218 3.49484 -28.9375
vn 0.483896 0.118653 -0.867044
v 7.48695 3.51591 -28.9768
vn 0.396921 0.140153 -0.907089
v 7.39798 3.53565 -29.0074
vn 0.306123 0.160303 -0.938398
v 7.30611 3.55389 -29.0293
vn 0.212377 0.17891 -0.96067
v 7.21224 3.57043 -29.042
vn 0.116586 0.195794 -0.97369
v 7.11728 3.58513 -29.0456
vn 0.0196717 0.210792 -0.977333
v 7.02212 3.59784 -29.0399
vn -0.0774318 0.22376 -0.971564
v 6.9277 3.60843 -29.0251
vn -0.17379 0.234573 -0.956438
v 6.83492 3.61681 -29.0013
vn -0.268474 0.243127 -0.9321
v 6.74467 3.6229 -28.9686
vn -0.360572 0.24934 -0.898787
v 6.65782 3.62664 -28.9275
vn -0.449198 0.253151 -0.856817
v 6.57521 3.62798 -28.8783
vn -0.533498 0.254524 -0.806596
v 6.49764 3.62693 -28.8215
vn -0.61266 0.253446 -0.748607
v 6.42585 3.62348 -28.7576
vn -0.685922 0.249928 -0.683408
v 6.36053 3.61767 -28.6872
vn -0.752578 0.244002 -0.611628
v 6.30232 3.60956 -28.6111
vn -0.811987 0.235726 -0.533957
v 6.25176 3.59923 -28.53
vn -0.863575 0.225181 -0.451145
v 6.20936 3.58677 -28.4446
vn -0.906847 0.212466 -0.363987
v 6.17552 3.57231 -28.3557
vn -0.941385 0.197706 -0.273324
v 6.15056 3.55598 -28.2643
vn -0.966858 0.181041 -0.180029
v 6.13472 3.53794 -28.1712
vn -0.983019 0.162633 -0.0849997
v 6.12816 3.51836 -28.0773
vn -0.989712 0.142659 0.0108479
v 6.13094 3.49744 -27.9834
vn -0.986875 0.121311 0.106591
v 6.14303 3.47538 -27.8906
vn -0.974533 0.0987945 0.201308
v 6.16432 3.45238 -27.7997
vn -0.952806 0.0753266 0.294086
v 5.88592 1.32382 -28.1717
vn -0.92504 0.0278962 0.378843
v 5.92598 1.29909 -28.0848
vn -0.885244 0.00332231 0.465116
v 5.97462 1.27432 -28.0025
vn -0.836922 -0.0212836 0.546909
v 6.03137 1.24976 -27.9255
vn -0.78054 -0.0456845 0.623435
v 6.09569 1.22564 -27.8545
vn -0.716641 -0.0696454 0.693956
v 6.16696 1.2022 -27.7902
vn -0.64584 -0.0929356 0.757795
v 6.24449 1.17965 -27.7333
vn -0.56882 -0.115331 0.814336
v 6.32753 1.15823 -27.6843
vn -0.486321 -0.136615 0.863034
v 6.41528 1.13813 -27.6436
vn -0.399139 -0.156584 0.903421
v 6.50691 1.11955 -27.6117
vn -0.308113 -0.175045 0.935107
v 6.60152 1.10266 -27.5889
vn -0.21412 -0.19182 0.957788
v 6.69821 1.08763 -27.5754
vn -0.118065 -0.206748 0.971245
v 6.79604 1.07461 -27.5712
vn -0.0208722 -0.219684 0.975348
v 6.89408 1.06372 -27.5765
vn 0.0765211 -0.230505 0.970058
v 6.99137 1.05506 -27.5913
vn 0.173178 -0.239106 0.955425
v 7.08698 1.04872 -27.6153
vn 0.268166 -0.245405 0.931592
v 7.18 1.04476 -27.6483
vn 0.360572 -0.24934 0.898787
v 7.26952 1.04322 -27.69
vn 0.449506 -0.250873 0.857326
v 7.35468 1.04411 -27.7401
vn 0.53411 -0.249991 0.807608
v 7.43466 1.04742 -27.7979
vn 0.613571 -0.246701 0.750113
v 7.5087 1.05312 -27.8631
vn 0.687123 -0.241035 0.685393
v 7.57608 1.06116 -27.9349
vn 0.754057 -0.233048 0.614073
v 7.63614 1.07146 -28.0126
vn 0.81373 -0.222817 0.53684
v 7.68832 1.08392 -28.0956
vn 0.865565 -0.210439 0.454436
v 7.7321 1.09842 -28.1829
vn 0.909065 -0.196035 0.367655
v 7.76708 1.11482 -28.2738
vn 0.94381 -0.179743 0.277334
v 7.7929 1.13296 -28.3674
vn 0.969466 -0.16172 0.184342
v 7.80933 1.15267 -28.4628
vn 0.985785 -0.14214 0.089575
v 7.8162 1.17375 -28.5591
vn 0.992611 -0.121191 -0.00605497
v 7.81345 1.19602 -28.6553
vn 0.989877 -0.0990744 -0.101627
v 7.8011 1.21924 -28.7505
vn 0.97761 -0.0760039 -0.19622
v 7.77928 1.2432 -28.8438
vn 0.955928 -0.0522014 -0.288923
v 7.74818 1.26766 -28.9343
vn 0.92504 -0.0278962 -0.378843
v 7.70813 1.2924 -29.0212
vn 0.885244 -0.00332231 -0.465116
v 7.65949 1.31717 -29.1035
vn 0.836922 0.0212836 -0.546909
v 7.60273 1.34173 -29.1805
vn 0.78054 0.0456845 -0.623435
v 7.53841 1.36585 -29.2515
vn 0.716641 0.0696454 -0.693956
v 7.46715 1.38929 -29.3158
vn 0.64584 0.0929356 -0.757795
v 7.38962 1.41183 -29.3727
vn 0.56882 0.115331 -0.814336
v 7.30658 1.43326 -29.4217
vn 0.486321 0.136615 -0.863034
v 7.21882 1.45336 -29.4624
vn 0.399139 0.156584 -0.903421
v 7.12719 1.47194 -29.4943
vn 0.308113 0.175045 -0.935107
v 7.03258 1.48883 -29.5171
vn 0.21412 0.19182 -0.957788
v 6.93589 1.50385 -29.5306
vn 0.118065 0.206748 -0.971245
v 6.83806 1.51687 -29.5348
vn 0.0208722 0.219684 -0.975348
v 6.74003 1.52777 -29.5294
vn -0.0765211 0.230505 -0.970058
v 6.64273 1.53642 -29.5147
vn -0.173178 0.239106 -0.955425
v 6.54712 1.54276 -29.4907
vn -0.268166 0.245405 -0.931592
v 6.4541 1.54672 -29.4577
vn -0.360572 0.24934 -0.898787
v 6.36458 1.54827 -29.416
vn -0.449506 0.250873 -0.857326
v 6.27942 1.54738 -29.3659
vn -0.53411 0.249991 -0.807608
v 6.19944 1.54407 -29.308
vn -0.613571 0.246701 -0.750113
v 6.1254 1.53837 -29.2429
vn -0.687123 0.241035 -0.685393
v 6.05803 1.53033 -29.1711
vn -0.754057 0.233048 -0.614073
v 5.99796 1.52003 -29.0934
vn -0.81373 0.222817 -0.53684
v 5.94578 1.50757 -29.0104
vn -0.865565 0.210439 -0.454436
v 5.902 1.49307 -28.9231
vn -0.909065 0.196035 -0.367655
v 5.86702 1.47667 -28.8322
vn -0.94381 0.179743 -0.277334
v 5.8412 1.45853 -28.7385
vn -0.969466 0.16172 -0.184342
v 5.82477 1.43882 -28.6432
vn -0.985785 0.14214 -0.089575
v 5.8179 1.41773 -28.5469
vn -0.992611 0.121191 0.00605497
v 5.82065 1.39547 -28.4507
vn -0.989877 0.0990744 0.101627
v 5.833 1.37225 -28.3555
vn -0.97761 0.0760039 0.19622
v 5.85483 1.34829 -28.2622
vn -0.955928 0.0522014 0.288923
v 5.61974 -0.825727 -28.6612
vn -0.92755 0.00557326 0.373658
v 5.66087 -0.851007 -28.572
vn -0.887741 -0.0188931 0.459955
v 5.71083 -0.876099 -28.4874
vn -0.839383 -0.0431776 0.541822
v 5.76915 -0.900761 -28.4082
vn -0.782941 -0.0670462 0.618472
v 5.83526 -0.924756 -28.3352
vn -0.718959 -0.0902691 0.689165
v 5.90853 -0.947853 -28.269
vn -0.648053 -0.112623 0.753222
v 5.98824 -0.969829 -28.2103
vn -0.570906 -0.133892 0.810024
v 6.07363 -0.990473 -28.1597
vn -0.488261 -0.153871 0.859025
v 6.16388 -1.00959 -28.1176
vn -0.400914 -0.172369 0.899754
v 6.25813 -1.02698 -28.0845
vn -0.309705 -0.189206 0.931817
v 6.35545 -1.0425 -28.0606
vn -0.215514 -0.204222 0.954907
v 6.45492 -1.05598 -28.0463
vn -0.119248 -0.217271 0.9688
v 6.55557 -1.0673 -28.0415
vn -0.0218327 -0.228227 0.973363
v 6.65644 -1.07635 -28.0465
vn 0.0757926 -0.236985 0.968552
v 6.75656 -1.08304 -28.0611
vn 0.172688 -0.243461 0.954414
v 6.85496 -1.08731 -28.0852
vn 0.26792 -0.247593 0.931084
v 6.95069 -1.08912 -28.1186
vn 0.360572 -0.24934 0.898787
v 7.04284 -1.08844 -28.1609
vn 0.449752 -0.248685 0.857834
v 7.13051 -1.08529 -28.2118
vn 0.5346 -0.245636 0.80862
v 7.21286 -1.07969 -28.2707
vn 0.6143 -0.240221 0.751618
v 7.28909 -1.07171 -28.337
vn 0.688083 -0.232492 0.687378
v 7.35848 -1.06141 -28.4103
vn 0.75524 -0.222525 0.616518
v 7.42036 -1.0489 -28.4896
vn 0.815124 -0.210415 0.539721
v 7.47412 -1.03429 -28.5743
vn 0.867158 -0.196278 0.457726
v 7.51926 -1.01773 -28.6636
vn 0.91084 -0.180251 0.371322
v 7.55533 -0.999376 -28.7566
vn 0.94575 -0.162488 0.281343
v 7.58199 -0.979405 -28.8523
vn 0.971553 -0.14316 0.188654
v 7.59898 -0.95801 -28.95
vn 0.987999 -0.122453 0.0941486
v 7.60614 -0.935397 -29.0486
vn 0.994929 -0.100567 -0.0012638
v 7.6034 -0.911782 -29.1472
vn 0.992279 -0.0777127 -0.096664
v 7.59079 -0.887395 -29.2448
vn 0.980072 -0.0541099 -0.191133
v 7.56842 -0.862468 -29.3405
vn 0.958426 -0.029986 -0.283762
v 7.53652 -0.837244 -29.4334
vn 0.92755 -0.00557326 -0.373658
v 7.49539 -0.811964 -29.5225
vn 0.887741 0.0188931 -0.459955
v 7.44542 -0.786872 -29.6071
vn 0.839383 0.0431776 -0.541822
v 7.38711 -0.76221 -29.6863
vn 0.782941 0.0670462 -0.618472
v 7.321 -0.738215 -29.7594
vn 0.718959 0.0902691 -0.689165
v 7.24773 -0.715118 -29.8255
vn 0.648053 0.112623 -0.753222
v 7.16802 -0.693142 -29.8842
vn 0.570906 0.133892 -0.810024
v 7.08263 -0.672498 -29.9349
vn 0.488261 0.153871 -0.859025
v 6.99237 -0.653385 -29.9769
vn 0.400914 0.172369 -0.899754
v 6.89813 -0.635987 -30.0101
vn 0.309705 0.189206 -0.931817
v 6.80081 -0.620473 -30.0339
vn 0.215514 0.204222 -0.954907
v 6.70134 -0.60699 -30.0483
vn 0.119248 0.217271 -0.9688
v 6.60069 -0.595669 -30.053
vn 0.0218327 0.228227 -0.973363
v 6.49982 -0.58662 -30.048
vn -0.0757926 0.236985 -0.968552
v 6.3997 -0.579928 -30.0334
vn -0.172688 0.243461 -0.954414
v 6.3013 -0.57566 -30.0093
vn -0.26792 0.247593 -0.931084
v 6.20557 -0.573855 -29.9759
vn -0.360572 0.24934 -0.898787
v 6.11342 -0.574531 -29.9336
vn -0.449752 0.248685 -0.857834
v 6.02575 -0.577682 -29.8828
vn -0.5346 0.245636 -0.80862
v 5.9434 -0.583277 -29.8239
vn -0.6143 0.240221 -0.751618
v 5.86717 -0.591262 -29.7575
vn -0.688083 0.232492 -0.687378
v 5.79777 -0.601561 -29.6843
vn -0.75524 0.222525 -0.616518
v 5.7359 -0.614074 -29.6049
vn -0.815124 0.210415 -0.539721
v 5.68214 -0.628681 -29.5202
vn -0.867158 0.196278 -0.457726
v 5.637 -0.645241 -29.4309
vn -0.91084 0.180251 -0.371322
v 5.60093 -0.663595 -29.338
vn -0.94575 0.162488 -0.281343
v 5.57427 -0.683565 -29.2422
vn -0.971553 0.14316 -0.188654
v 5.55728 -0.70496 -29.1446
vn -0.987999 0.122453 -0.0941486
v 5.55012 -0.727574 -29.046
vn -0.994929 0.100567 0.0012638
v 5.55285 -0.751188 -28.9474
vn -0.992279 0.0777127 0.096664
v 5.56547 -0.775576 -28.8498
vn -0.980072 0.0541099 0.191133
v 5.58783 -0.800502 -28.7541
vn -0.958426 0.029986 0.283762
v 5.39604 -3.01992 -29.1802
vn -0.929495 -0.0158549 0.368493
v 5.43825 -3.04574 -29.0887
vn -0.889677 -0.0402181 0.454815
v 5.48953 -3.07116 -29.0018
vn -0.841291 -0.0641939 0.536757
v 5.5494 -3.09591 -28.9204
vn -0.784803 -0.0875516 0.61353
v 5.61729 -3.11978 -28.8453
vn -0.720757 -0.110066 0.684394
v 5.69253 -3.14252 -28.7772
vn -0.649769 -0.131521 0.748667
v 5.7744 -3.16391 -28.7167
vn -0.572524 -0.151708 0.80573
v 5.86212 -3.18376 -28.6645
vn -0.489765 -0.170435 0.855033
v 5.95484 -3.20187 -28.6209
vn -0.402289 -0.187521 0.896102
v 6.05166 -3.21807 -28.5866
vn -0.310939 -0.2028 0.928541
v 6.15166 -3.23219 -28.5616
vn -0.216595 -0.216127 0.952038
v 6.25387 -3.24411 -28.5465
vn -0.120165 -0.227372 0.966366
v 6.3573 -3.25371 -28.5411
vn -0.0225771 -0.236427 0.971387
v 6.46097 -3.26089 -28.5457
vn 0.0752279 -0.243205 0.967053
v 6.56386 -3.2656 -28.5602
vn 0.172308 -0.247642 0.953406
v 6.665 -3.26777 -28.5844
vn 0.26773 -0.249693 0.930577
v 6.76341 -3.26739 -28.6181
vn 0.360572 -0.24934 0.898787
v 6.85813 -3.26448 -28.661
vn 0.449942 -0.246585 0.85834
v 6.94827 -3.25904 -28.7126
vn 0.534979 -0.241455 0.809627
v 7.03294 -3.25114 -28.7725
vn 0.614864 -0.234001 0.753117
v 7.11133 -3.24085 -28.8401
vn 0.688828 -0.224292 0.689354
v 7.1827 -3.22827 -28.9147
vn 0.756157 -0.212424 0.618952
v 7.24634 -3.21352 -28.9956
vn 0.816205 -0.19851 0.54259
v 7.30166 -3.19675 -29.0821
vn 0.868392 -0.182684 0.461002
v 7.34811 -3.17811 -29.1733
vn 0.912215 -0.165099 0.374974
v 7.38524 -3.15778 -29.2683
vn 0.947254 -0.145923 0.285335
v 7.41271 -3.13597 -29.3662
vn 0.97317 -0.125343 0.192948
v 7.43025 -3.11288 -29.4661
vn 0.989714 -0.103555 0.098703
v 7.43768 -3.08873 -29.567
vn 0.996727 -0.0807701 0.00350728
v 7.43494 -3.06375 -29.6679
vn 0.99414 -0.0572073 -0.0917222
v 7.42205 -3.03819 -29.7679
vn 0.981979 -0.0330935 -0.186068
v 7.39914 -3.0123 -29.866
vn 0.960362 -0.00866103 -0.278622
v 7.36642 -2.98631 -29.9613
vn 0.929495 0.0158549 -0.368493
v 7.32422 -2.96049 -30.0528
vn 0.889677 0.0402181 -0.454815
v 7.27293 -2.93507 -30.1397
vn 0.841291 0.0641939 -0.536757
v 7.21306 -2.91032 -30.221
vn 0.784803 0.0875516 -0.61353
v 7.14517 -2.88645 -30.2961
vn 0.720757 0.110066 -0.684394
v 7.06993 -2.86371 -30.3643
vn 0.649769 0.131521 -0.748667
v 6.98806 -2.84232 -30.4247
vn 0.572524 0.151708 -0.80573
v 6.90034 -2.82247 -30.477
vn 0.489765 0.170435 -0.855033
v 6.80763 -2.80436 -30.5205
vn 0.402289 0.187521 -0.896102
v 6.7108 -2.78816 -30.5549
vn 0.310939 0.2028 -0.928541
v 6.6108 -2.77404 -30.5798
vn 0.216595 0.216127 -0.952038
v 6.5086 -2.76212 -30.595
vn 0.120165 0.227372 -0.966366
v 6.40516 -2.75252 -30.6003
vn 0.0225771 0.236427 -0.971387
v 6.3015 -2.74534 -30.5957
vn -0.0752279 0.243205 -0.967053
v 6.1986 -2.74064 -30.5813
vn -0.172308 0.247642 -0.953406
v 6.09746 -2.73846 -30.5571
vn -0.26773 0.249693 -0.930577
v 5.99905 -2.73884 -30.5234
vn -0.360572 0.24934 -0.898787
v 5.90433 -2.74176 -30.4805
vn -0.449942 0.246585 -0.85834
v 5.8142 -2.74719 -30.4289
vn -0.534979 0.241455 -0.809627
v 5.72953 -2.75509 -30.369
vn -0.614864 0.234001 -0.753117
v 5.65113 -2.76538 -30.3014
vn -0.688828 0.224292 -0.689354
v 5.57977 -2.77796 -30.2268
vn -0.756157 0.212424 -0.618952
v 5.51612 -2.79271 -30.1458
vn -0.816205 0.19851 -0.54259
v 5.46081 -2.80949 -30.0594
vn -0.868392 0.182684 -0.461002
v 5.41436 -2.82812 -29.9682
vn -0.912215 0.165099 -0.374974
v 5.37722 -2.84845 -29.8732
vn -0.947254 0.145923 -0.285335
v 5.34975 -2.87026 -29.7752
vn -0.97317 0.125343 -0.192948
v 5.33222 -2.89336 -29.6753
vn -0.989714 0.103555 -0.098703
v 5.32478 -2.91751 -29.5744
vn -0.996727 0.0807701 -0.00350728
v 5.32752 -2.94248 -29.4735
vn -0.99414 0.0572073 0.0917222
v 5.34041 -2.96804 -29.3735
vn -0.981979 0.0330935 0.186068
v 5.36333 -2.99394 -29.2754
vn -0.960362 0.00866103 0.278622
v 5.21482 -5.25871 -29.7285
vn -0.930934 -0.0364113 0.363368
v 5.2581 -5.28508 -29.6347
vn -0.891109 -0.0606755 0.449715
v 5.31069 -5.31081 -29.5456
vn -0.842702 -0.0843554 0.53173
v 5.37211 -5.33565 -29.462
vn -0.78618 -0.107223 0.608625
v 5.44175 -5.35938 -29.3849
vn -0.722086 -0.129058 0.679659
v 5.51895 -5.38175 -29.3148
vn -0.651038 -0.14965 0.744147
v 5.60296 -5.40256 -29.2525
vn -0.57372 -0.168801 0.801468
v 5.69298 -5.42161 -29.1986
vn -0.490877 -0.186326 0.851071
v 5.78813 -5.4387 -29.1536
vn -0.403307 -0.202056 0.892478
v 5.88751 -5.45368 -29.118
vn -0.311852 -0.215841 0.92529
v 5.99014 -5.4664 -29.092
vn -0.217394 -0.227547 0.94919
v 6.09505 -5.47673 -29.076
vn -0.120843 -0.237062 0.963949
v 6.20123 -5.48459 -29.07
vn -0.0231277 -0.244294 0.969425
v 6.30765 -5.48989 -29.0742
vn 0.0748103 -0.249173 0.965565
v 6.41328 -5.49259 -29.0885
vn 0.172028 -0.251652 0.952406
v 6.51712 -5.49265 -29.1128
vn 0.267589 -0.251708 0.930075
v 6.61815 -5.49008 -29.1468
vn 0.360572 -0.24934 0.898787
v 6.71541 -5.48489 -29.1902
vn 0.450083 -0.24457 0.858842
v 6.80796 -5.47715 -29.2426
vn 0.53526 -0.237445 0.810627
v 6.89492 -5.46692 -29.3034
vn 0.615282 -0.228033 0.754605
v 6.97543 -5.45431 -29.3722
vn 0.689378 -0.216426 0.691316
v 7.04872 -5.43943 -29.4482
vn 0.756836 -0.202734 0.621369
v 7.1141 -5.42244 -29.5307
vn 0.817004 -0.187089 0.545437
v 7.17093 -5.40348 -29.6189
vn 0.869304 -0.169643 0.464253
v 7.21866 -5.38275 -29.712
vn 0.913233 -0.150563 0.378598
v 7.25684 -5.36044 -29.809
vn 0.948366 -0.130033 0.289297
v 7.28509 -5.33677 -29.9091
vn 0.974367 -0.108251 0.19721
v 7.30315 -5.31197 -30.0112
vn 0.990983 -0.0854259 0.103223
v 7.31083 -5.28627 -30.1144
vn 0.998056 -0.0617784 0.00824264
v 7.30807 -5.25993 -30.2177
vn 0.995517 -0.037536 -0.0868174
v 7.2949 -5.2332 -30.3201
vn 0.98339 -0.0129321 -0.181041
v 7.27143 -5.20633 -30.4206
vn 0.961794 0.0117964 -0.273522
v 7.2379 -5.17958 -30.5182
vn 0.930934 0.0364113 -0.363368
v 7.19462 -5.15322 -30.612
vn 0.891109 0.0606755 -0.449715
v 7.14203 -5.12749 -30.7011
vn 0.842702 0.0843554 -0.53173
v 7.08061 -5.10264 -30.7847
vn 0.78618 0.107223 -0.608625
v 7.01097 -5.07891 -30.8619
vn 0.722086 0.129058 -0.679659
v 6.93377 -5.05654 -30.9319
vn 0.651038 0.14965 -0.744147
v 6.84975 -5.03573 -30.9942
vn 0.57372 0.168801 -0.801468
v 6.75974 -5.01669 -31.0481
vn 0.490877 0.186326 -0.851071
v 6.66459 -4.9996 -31.0931
vn 0.403307 0.202056 -0.892478
v 6.56521 -4.98462 -31.1288
vn 0.311852 0.215841 -0.92529
v 6.46258 -4.9719 -31.1547
vn 0.217394 0.227547 -0.94919
v 6.35767 -4.96156 -31.1708
vn 0.120843 0.237062 -0.963949
v 6.25149 -4.9537 -31.1767
vn 0.0231277 0.244294 -0.969425
v 6.14507 -4.9484 -31.1725
vn -0.0748103 0.249173 -0.965565
v 6.03944 -4.94571 -31.1582
vn -0.172028 0.251652 -0.952406
v 5.9356 -4.94565 -31.134
vn -0.267589 0.251708 -0.930075
v 5.83457 -4.94822 -31.1
vn -0.360572 0.24934 -0.898787
v 5.73731 -4.9534 -31.0566
vn -0.450083 0.24457 -0.858842
v 5.64475 -4.96114 -31.0042
vn -0.53526 0.237445 -0.810627
v 5.5578 -4.97137 -30.9433
vn -0.615282 0.228033 -0.754605
v 5.47729 -4.98398 -30.8745
vn -0.689378 0.216426 -0.691316
v 5.40399 -4.99886 -30.7985
vn -0.756836 0.202734 -0.621369
v 5.33862 -5.01586 -30.716
vn -0.817004 0.187089 -0.545437
v 5.28179 -5.03482 -30.6278
vn -0.869304 0.169643 -0.464253
v 5.23406 -5.05555 -30.5347
vn -0.913233 0.150563 -0.378598
v 5.19588 -5.07786 -30.4377
vn -0.948366 0.130033 -0.289297
v 5.16763 -5.10152 -30.3377
vn -0.974367 0.108251 -0.19721
v 5.14957 -5.12632 -30.2355
vn -0.990983 0.0854259 -0.103223
v 5.14189 -5.15202 -30.1323
vn -0.998056 0.0617784 -0.00824264
v 5.14465 -5.17836 -30.029
vn -0.995517 0.037536 0.0868174
v 5.15782 -5.2051 -29.9267
vn -0.98339 0.0129321 0.181041
v 5.18129 -5.23196 -29.8262
vn -0.961794 -0.0117964 0.273522
v 5.07605 -7.54206 -30.3063
vn -0.93192 -0.056122 0.358295
v 5.12039 -7.56896 -30.2102
vn -0.89209 -0.0802913 0.444667
v 5.1743 -7.59501 -30.1188
vn -0.843669 -0.103687 0.526755
v 5.23725 -7.61994 -30.033
vn -0.787123 -0.126085 0.603771
v 5.30864 -7.64353 -29.9538
vn -0.722997 -0.147268 0.674972
v 5.38778 -7.66553 -29.8817
vn -0.651907 -0.167033 0.739673
v 5.47391 -7.68574 -29.8176
vn -0.57454 -0.185189 0.797251
v 5.5662 -7.70397 -29.7621
vn -0.491639 -0.201562 0.84715
v 5.66376 -7.72004 -29.7156
vn -0.404004 -0.215994 0.888891
v 5.76565 -7.73379 -29.6787
vn -0.312478 -0.228345 0.922072
v 5.87089 -7.74509 -29.6516
vn -0.217942 -0.238498 0.946372
v 5.97847 -7.75383 -29.6347
vn -0.121308 -0.246354 0.961558
v 6.08735 -7.75994 -29.6281
vn -0.023505 -0.251837 0.967484
v 6.19648 -7.76334 -29.6319
vn 0.0745241 -0.254894 0.964093
v 6.30481 -7.76401 -29.646
vn 0.171835 -0.255497 0.951417
v 6.4113 -7.76194 -29.6703
vn 0.267492 -0.25364 0.929578
v 6.51492 -7.75716 -29.7046
vn 0.360572 -0.24934 0.898787
v 6.61468 -7.7497 -29.7485
vn 0.45018 -0.242638 0.85934
v 6.70961 -7.73964 -29.8016
vn 0.535453 -0.2336 0.811617
v 6.79879 -7.72707 -29.8635
vn 0.615568 -0.222312 0.756078
v 6.88138 -7.71212 -29.9334
vn 0.689756 -0.208883 0.693257
v 6.95658 -7.69493 -30.0108
vn 0.7573 -0.193442 0.62376
v 7.02365 -7.67567 -30.0948
vn 0.817552 -0.176139 0.548256
v 7.08196 -7.65451 -30.1848
vn 0.86993 -0.157139 0.467471
v 7.13095 -7.63168 -30.2797
vn 0.91393 -0.136625 0.382185
v 7.17013 -7.60738 -30.3788
vn 0.949128 -0.114796 0.293218
v 7.19914 -7.58185 -30.4809
vn 0.975186 -0.0918619 0.201427
v 7.21769 -7.55533 -30.5853
vn 0.991853 -0.0680426 0.107697
v 7.22561 -7.52808 -30.6908
vn 0.998967 -0.0435681 0.0129291
v 7.22282 -7.50037 -30.7964
vn 0.99646 -0.018674 -0.0819632
v 7.20935 -7.47246 -30.9012
vn 0.984358 0.00639993 -0.176066
v 7.18532 -7.44461 -31.0041
vn 0.962775 0.0314122 -0.268474
v 7.15097 -7.4171 -31.1041
vn 0.93192 0.056122 -0.358295
v 7.10663 -7.3902 -31.2002
vn 0.89209 0.0802913 -0.444667
v 7.05273 -7.36415 -31.2916
vn 0.843669 0.103687 -0.526755
v 6.98978 -7.33922 -31.3773
vn 0.787123 0.126085 -0.603771
v 6.91839 -7.31563 -31.4566
vn 0.722997 0.147268 -0.674972
v 6.83925 -7.29363 -31.5286
vn 0.651907 0.167033 -0.739673
v 6.75312 -7.27342 -31.5927
vn 0.57454 0.185189 -0.797251
v 6.66083 -7.25519 -31.6483
vn 0.491639 0.201562 -0.84715
v 6.56327 -7.23913 -31.6947
vn 0.404004 0.215994 -0.888891
v 6.46138 -7.22537 -31.7317
vn 0.312478 0.228345 -0.922072
v 6.35614 -7.21407 -31.7587
vn 0.217942 0.238498 -0.946372
v 6.24856 -7.20533 -31.7756
vn 0.121308 0.246354 -0.961558
v 6.13968 -7.19922 -31.7822
vn 0.023505 0.251837 -0.967484
v 6.03055 -7.19582 -31.7785
vn -0.0745241 0.254894 -0.964093
v 5.92222 -7.19515 -31.7643
vn -0.171835 0.255497 -0.951417
v 5.81573 -7.19722 -31.74
vn -0.267492 0.25364 -0.929578
v 5.71211 -7.202 -31.7058
vn -0.360572 0.24934 -0.898787
v 5.61235 -7.20946 -31.6618
vn -0.45018 0.242638 -0.85934
v 5.51742 -7.21953 -31.6087
vn -0.535453 0.2336 -0.811617
v 5.42823 -7.23209 -31.5469
vn -0.615568 0.222312 -0.756078
v 5.34564 -7.24704 -31.4769
vn -0.689756 0.208883 -0.693257
v 5.27045 -7.26423 -31.3996
vn -0.7573 0.193442 -0.62376
v 5.20337 -7.28349 -31.3155
vn -0.817552 0.176139 -0.548256
v 5.14506 -7.30465 -31.2256
vn -0.86993 0.157139 -0.467471
v 5.09608 -7.32748 -31.1306
vn -0.91393 0.136625 -0.382185
v 5.0569 -7.35178 -31.0316
vn -0.949128 0.114796 -0.293218
v 5.02789 -7.37732 -30.9294
vn -0.975186 0.0918619 -0.201427
v 5.00933 -7.40383 -30.8251
vn -0.991853 0.0680426 -0.107697
v 5.00141 -7.43108 -30.7196
vn -0.998967 0.0435681 -0.0129291
v 5.0042 -7.45879 -30.6139
vn -0.99646 0.018674 0.0819632
v 5.01768 -7.48671 -30.5092
vn -0.984358 -0.00639993 0.176066
v 5.0417 -7.51455 -30.4063
vn -0.962775 -0.0314122 0.268474
v 4.97972 -9.86993 -30.9135
vn -0.932502 -0.0750151 0.353288
v 5.02512 -9.89737 -30.815
vn -0.89267 -0.0990934 0.439683
v 5.08033 -9.92373 -30.7213
vn -0.84424 -0.122217 0.521844
v 5.1448 -9.94875 -30.6334
vn -0.78768 -0.144164 0.598979
v 5.21792 -9.97219 -30.552
vn -0.723535 -0.164723 0.670346
v 5.29899 -9.99381 -30.478
vn -0.652421 -0.183695 0.735257
v 5.38721 -10.0134 -30.4121
vn -0.575024 -0.200898 0.793087
v 5.48175 -10.0308 -30.3549
vn -0.492089 -0.216167 0.843279
v 5.58169 -10.0459 -30.3069
vn -0.404416 -0.229353 0.88535
v 5.68607 -10.0584 -30.2687
vn -0.312847 -0.240331 0.918895
v 5.79389 -10.0682 -30.2406
vn -0.218266 -0.248994 0.94359
v 5.9041 -10.0754 -30.2228
vn -0.121582 -0.25526 0.959198
v 6.01564 -10.0797 -30.2155
vn -0.0237279 -0.259067 0.965568
v 6.12745 -10.0812 -30.2188
vn 0.074355 -0.260379 0.962639
v 6.23844 -10.0799 -30.2328
vn 0.171722 -0.259183 0.95044
v 6.34754 -10.0757 -30.2571
vn 0.267435 -0.255492 0.929087
v 6.45371 -10.0686 -30.2916
vn 0.360572 -0.24934 0.898787
v 6.55592 -10.0589 -30.336
vn 0.450237 -0.240786 0.859831
v 6.65319 -10.0465 -30.3899
vn 0.535566 -0.229914 0.812594
v 6.74458 -10.0316 -30.4526
vn 0.615737 -0.216827 0.757531
v 6.82921 -10.0143 -30.5237
vn 0.689979 -0.201653 0.695173
v 6.90626 -9.99477 -30.6024
vn 0.757575 -0.184536 0.62612
v 6.975 -9.97323 -30.688
vn 0.817875 -0.165642 0.551038
v 7.03476 -9.94988 -30.7797
vn 0.870299 -0.145153 0.470648
v 7.08496 -9.92493 -30.8765
vn 0.914342 -0.123266 0.385726
v 7.12513 -9.89863 -30.9775
vn 0.949579 -0.100192 0.297089
v 7.15487 -9.87122 -31.0818
vn 0.975671 -0.0761529 0.205591
v 7.17391 -9.84298 -31.1884
vn 0.992366 -0.0513805 0.112113
v 7.18204 -9.81418 -31.2962
vn 0.999505 -0.0261132 0.0175555
v 7.17921 -9.78509 -31.4041
vn 0.997018 -0.000594509 -0.0771712
v 7.16543 -9.756 -31.5113
vn 0.984929 0.0249299 -0.171155
v 7.14083 -9.72718 -31.6165
vn 0.963354 0.0502143 -0.26349
v 7.10567 -9.6989 -31.7189
vn 0.932502 0.0750151 -0.353288
v 7.06026 -9.67146 -31.8174
vn 0.89267 0.0990934 -0.439683
v 7.00505 -9.6451 -31.911
vn 0.84424 0.122217 -0.521844
v 6.94058 -9.62008 -31.999
vn 0.78768 0.144164 -0.598979
v 6.86746 -9.59665 -32.0803
vn 0.723535 0.164723 -0.670346
v 6.7864 -9.57502 -32.1543
vn 0.652421 0.183695 -0.735257
v 6.69817 -9.55541 -32.2202
vn 0.575024 0.200898 -0.793087
v 6.60363 -9.538 -32.2774
vn 0.492089 0.216167 -0.843279
v 6.50369 -9.52297 -32.3254
vn 0.404416 0.229353 -0.88535
v 6.39931 -9.51046 -32.3636
vn 0.312847 0.240331 -0.918895
v 6.2915 -9.50058 -32.3918
vn 0.218266 0.248994 -0.94359
v 6.18129 -9.49344 -32.4096
vn 0.121582 0.25526 -0.959198
v 6.06974 -9.4891 -32.4168
vn 0.0237279 0.259067 -0.965568
v 5.95793 -9.48761 -32.4135
vn -0.074355 0.260379 -0.962639
v 5.84694 -9.48897 -32.3996
vn -0.171722 0.259183 -0.95044
v 5.73784 -9.49318 -32.3753
vn -0.267435 0.255492 -0.929087
v 5.63167 -9.50019 -32.3407
vn -0.360572 0.24934 -0.898787
v 5.52946 -9.50994 -32.2963
vn -0.450237 0.240786 -0.859831
v 5.43219 -9.52233 -32.2425
vn -0.535566 0.229914 -0.812594
v 5.3408 -9.53725 -32.1797
vn -0.615737 0.216827 -0.757531
v 5.25617 -9.55455 -32.1086
vn -0.689979 0.201653 -0.695173
v 5.17912 -9.57406 -32.0299
vn -0.757575 0.184536 -0.62612
v 5.11038 -9.5956 -31.9443
vn -0.817875 0.165642 -0.551038
v 5.05062 -9.61895 -31.8527
vn -0.870299 0.145153 -0.470648
v 5.00042 -9.6439 -31.7559
vn -0.914342 0.123266 -0.385726
v 4.96025 -9.67021 -31.6548
vn -0.949579 0.100192 -0.297089
v 4.93051 -9.69761 -31.5505
vn -0.975671 0.0761529 -0.205591
v 4.91148 -9.72585 -31.444
vn -0.992366 0.0513805 -0.112113
v 4.90334 -9.75465 -31.3362
vn -0.999505 0.0261132 -0.0175555
v 4.90618 -9.78374 -31.2282
vn -0.997018 0.000594509 0.0771712
v 4.91996 -9.81283 -31.1211
vn -0.984929 -0.0249299 0.171155
v 4.94455 -9.84166 -31.0158
vn -0.963354 -0.0502143 0.26349
f 1 66 2 
f 1 65 66 
f 2 67 3 
f 2 66 67 
f 3 68 4 
f 3 67 68 
f 4 69 5 
f 4 68 69 
f 5 70 6 
f 5 69 70 
f 6 71 7 
f 6 70 71 
f 7 72 8 
f 7 71 72 
f 8 73 9 
f 8 72 73 
f 9 74 10 
f 9 73 74 
f 10 75 11 
f 10 74 75 
f 11 76 12 
f 11 75 76 
f 12 77 13 
f 12 76 77 
f 13 78 14 
f 13 77 78 
f 14 79 15 
f 14 78 79 
f 15 80 16 
f 15 79 80 
f 16 81 17 
f 16 80 81 
f 17 82 18 
f 17 81 82 
f 18 83 19 
f 18 82 83 
f 19 84 20 
f 19 83 84 
f 20 85 21 
f 20 84 85 
f 21 86 22 
f 21 85 86 
f 22 87 23 
f 22 86 87 
f 23 88 24 
f 23 87 88 
f 24 89 25 
f 24 88 89 
f 25 90 26 
f 25 89 90 
f 26 91 27 
f 26 90 91 
f 27 92 28 
f 27 91 92 
f 28 93 29 
f 28 92 93 
f 29 94 30 
f 29 93 94 
f 30 95 31 
f 30 94 95 
f 31 96 32 
f 31 95 96 
f 32 97 33 
f 32 96 97 
f 33 98 34 
f 33 97 98 
f 34 99 35 
f 34 98 99 
f 35 100 36 
f 35 99 100 
f 36 101 37 
f 36 100 101 
f 37 102 38 
f 37 101 102 
f 38 103 39 
f 38 102 103 
f 39 104 40 
f 39 103 104 
f 40 105 41 
f 40 104 105 
f 41 106 42 
f 41 105 106 
f 42 107 43 
f 42 106 107 
f 43 108 44 
f 43 107 108 
f 44 109 45 
f 44 108 109 
f 45 110 46 
f 45 109 110 
f 46 111 47 
f 46 110 111 
f 47 112 48 
f 47 111 112 
f 48 113 49 
f 48 112 113 
f 49 114 50 
f 49 113 114 
f 50 115 51 
f 50 114 115 
f 51 116 52 
f 51 115 116 
f 52 117 53 
f 52 116 117 
f 53 118 54 
f 53 117 118 
f 54 119 55 
f 54 118 119 
f 55 120 56 
f 55 119 120 
f 56 121 57 
f 56 120 121 
f 57 122 58 
f 57 121 122 
f 58 123 59 
f 58 122 123 
f 59 124 60 
f 59 123 124 
f 60 125 61 
f 60 124 125 
f 61 126 62 
f 61 125 126 
f 62 127 63 
f 62 126 127 
f 63 128 64 
f 63 127 128 
f 64 65 1 
f 64 128 65 
f 65 130 66 
f 65 129 130 
f 66 131 67 
f 66 130 131 
f 67 132 68 
f 67 131 132 
f 68 133 69 
f 68 132 133 
f 69 134 70 
f 69 133 134 
f 70 135 71 
f 70 134 135 
f 71 136 72 
f 71 135 136 
f 72 137 73 
f 72 136 137 
f 73 138 74 
f 73 137 138 
f 74 139 75 
f 74 138 139 
f 75 140 76 
f 75 139 140 
f 76 141 77 
f 76 140 141 
f 77 142 78 
f 77 141 142 
f 78 143 79 
f 78 142 143 
f 79 144 80 
f 79 143 144 
f 80 145 81 
f 80 144 145 
f 81 146 82 
f 81 145 146 
f 82 147 83 
f 82 146 147 
f 83 148 84 
f 83 147 148 
f 84 149 85 
f 84 148 149 
f 85 150 86 
f 85 149 150 
f 86 151 87 
f 86 150 151 
f 87 152 88 
f 87 151 152 
f 88 153 89 
f 88 152 153 
f 89 154 90 
f 89 153 154 
f 90 155 91 
f 90 154 155 
f 91 156 92 
f 91 155 156 
f 92 157 93 
f 92 156 157 
f 93 158 94 
f 93 157 158 
f 94 159 95 
f 94 158 159 
f 95 160 96 
f 95 159 160 
f 96 161 97 
f 96 160 161 
f 97 162 98 
f 97 161 162 
f 98 163 99 
f 98 162 163 
f 99 164 100 
f 99 163 164 
f 100 165 101 
f 100 164 165 
f 101 166 102 
f 101 165 166 
f 102 167 103 
f 102 166 167 
f 103 168 104 
f 103 167 168 
f 104 169 105 
f 104 168 169 
f 105 170 106 
f 105 169 170 
f 106 171 107 
f 106 170 171 
f 107 172 108 
f 107 171 172 
f 108 173 109 
f 108 172 173 
f 109 174 110 
f 109 173 174 
f 110 175 111 
f 110 174 175 
f 111 176 112 
f 111 175 176 
f 112 177 113 
f 112 176 177 
f 113 178 114 
f 113 177 178 
f 114 179 115 
f 114 178 179 
f 115 180 116 
f 115 179 180 
f 116 181 117 
f 116 180 181 
f 117 182 118 
f 117 181 182 
f 118 183 119 
f 118 182 183 
f 119 184 120 
f 119 183 184 
f 120 185 121 
f 120 184 185 
f 121 186 122 
f 121 185 186 
f 122 187 123 
f 122 186 187 
f 123 188 124 
f 123 187 188 
f 124 189 125 
f 124 188 189 
f 125 190 126 
f 125 189 190 
f 126 191 127 
f 126 190 191 
f 127 192 128 
f 127 191 192 
f 128 129 65 
f 128 192 129 
f 129 194 130 
f 129 193 194 
f 130 195 131 
f 130 194 195 
f 131 196 132 
f 131 195 196 
f 132 197 133 
f 132 196 197 
f 133 198 134 
f 133 197 198 
f 134 199 135 
f 134 198 199 
f 135 200 136 
f 135 199 200 
f 136 201 137 
f 136 200 201 
f 137 202 138 
f 137 201 202 
f 138 203 139 
f 138 202 203 
f 139 204 140 
f 139 203 204 
f 140 205 141 
f 140 204 205 
f 141 206 142 
f 141 205 206 
f 142 207 143 
f 142 206 207 
f 143 208 144 
f 143 207 208 
f 144 209 145 
f 144 208 209 
f 145 210 146 
f 145 209 210 
f 146 211 147 
f 146 210 211 
f 147 212 148 
f 147 211 212 
f 148 213 149 
f 148 212 213 
f 149 214 150 
f 149 213 214 
f 150 215 151 
f 150 214 215 
f 151 216 152 
f 151 215 216 
f 152 217 153 
f 152 216 217 
f 153 218 154 
f 153 217 218 
f 154 219 155 
f 154 218 219 
f 155 220 156 
f 155 219 220 
f 156 221 157 
f 156 220 221 
f 157 222 158 
f 157 221 222 
f 158 223 159 
f 158 222 223 
f 159 224 160 
f 159 223 224 
f 160 225 161 
f 160 224 225 
f 161 226 162 
f 161 225 226 
f 162 227 163 
f 162 226 227 
f 163 228 164 
f 163 227 228 
f 164 229 165 
f 164 228 229 
f 165 230 166 
f 165 229 230 
f 166 231 167 
f 166 230 231 
f 167 232 168 
f 167 231 232 
f 168 233 169 
f 168 232 233 
f 169 234 170 
f 169 233 234 
f 170 235 171 
f 170 234 235 
f 171 236 172 
f 171 235 236 
f 172 237 173 
f 172 236 237 
f 173 238 174 
f 173 237 238 
f 174 239 175 
f 174 238 239 
f 175 240 176 
f 175 239 240 
f 176 241 177 
f 176 240 241 
f 177 242 178 
f 177 241 242 
f 178 243 179 
f 178 242 243 
f 179 244 180 
f 179 243 244 
f 180 245 181 
f 180 244 245 
f 181 246 182 
f 181 245 246 
f 182 247 183 
f 182 246 247 
f 183 248 184 
f 183 247 248 
f 184 249 185 
f 184 248 249 
f 185 250 186 
f 185 249 250 
f 186 251 187 
f 186 250 251 
f 187 252 188 
f 187 251 252 
f 188 253 189 
f 188 252 253 
f 189 254 190 
f 189 253 254 
f 190 255 191 
f 190 254 255 
f 191 256 192 
f 191 255 256 
f 192 193 129 
f 192 256 193 
f 193 258 194 
f 193 257 258 
f 194 259 195 
f 194 258 259 
f 195 260 196 
f 195 259 260 
f 196 261 197 
f 196 260 261 
f 197 262 198 
f 197 261 262 
f 198 263 199 
f 198 262 263 
f 199 264 200 
f 199 263 264 
f 200 265 201 
f 200 264 265 
f 201 266 202 
f 201 265 266 
f 202 267 203 
f 202 266 267 
f 203 268 204 
f 203 267 268 
f 204 269 205 
f 204 268 269 
f 205 270 206 
f 205 269 270 
f 206 271 207 
f 206 270 271 
f 207 272 208 
f 207 271 272 
f 208 273 209 
f 208 272 273 
f 209 274 210 
f 209 273 274 
f 210 275 211 
f 210 274 275 
f 211 276 212 
f 211 275 276 
f 212 277 213 
f 212 276 277 
f 213 278 214 
f 213 277 278 
f 214 279 215 
f 214 278 279 
f 215 280 216 
f 215 279 280 
f 216 281 217 
f 216 280 281 
f 217 282 218 
f 217 281 282 
f 218 283 219 
f 218 282 283 
f 219 284 220 
f 219 283 284 
f 220 285 221 
f 220 284 285 
f 221 286 222 
f 221 285 286 
f 222 287 223 
f 222 286 287 
f 223 288 224 
f 223 287 288 
f 224 289 225 
f 224 288 289 
f 225 290 226 
f 225 289 290 
f 226 291 227 
f 226 290 291 
f 227 292 228 
f 227 291 292 
f 228 293 229 
f 228 292 293 
f 229 294 230 
f 229 293 294 
f 230 295 231 
f 230 294 295 
f 231 296 232 
f 231 295 296 
f 232 297 233 
f 232 296 297 
f 233 298 234 
f 233 297 298 
f 234 299 235 
f 234 298 299 
f 235 300 236 
f 235 299 300 
f 236 301 237 
f 236 300 301 
f 237 302 238 
f 237 301 302 
f 238 303 239 
f 238 302 303 
f 239 304 240 
f 239 303 304 
f 240 305 241 
f 240 304 305 
f 241 306 242 
f 241 305 306 
f 242 307 243 
f 242 306 307 
f 243 308 244 
f 243 307 308 
f 244 309 245 
f 244 308 309 
f 245 310 246 
f 245 309 310 
f 246 311 247 
f 246 310 311 
f 247 312 248 
f 247 311 312 
f 248 313 249 
f 248 312 313 
f 249 314 250 
f 249 313 314 
f 250 315 251 
f 250 314 315 
f 251 316 252 
f 251 315 316 
f 252 317 253 
f 252 316 317 
f 253 318 254 
f 253 317 318 
f 254 319 255 
f 254 318 319 
f 255 320 256 
f 255 319 320 
f 256 257 193 
f 256 320 257 
f 257 322 258 
f 257 321 322 
f 258 323 259 
f 258 322 323 
f 259 324 260 
f 259 323 324 
f 260 325 261 
f 260 324 325 
f 261 326 262 
f 261 325 326 
f 262 327 263 
f 262 326 327 
f 263 328 264 
f 263 327 328 
f 264 329 265 
f 264 328 329 
f 265 330 266 
f 265 329 330 
f 266 331 267 
f 266 330 331 
f 267 332 268 
f 267 331 332 
f 268 333 269 
f 268 332 333 
f 269 334 270 
f 269 333 334 
f 270 335 271 
f 270 334 335 
f 271 336 272 
f 271 335 336 
f 272 337 273 
f 272 336 337 
f 273 338 274 
f 273 337 338 
f 274 339 275 
f 274 338 339 
f 275 340 276 
f 275 339 340 
f 276 341 277 
f 276 340 341 
f 277 342 278 
f 277 341 342 
f 278 343 279 
f 278 342 343 
f 279 344 280 
f 279 343 344 
f 280 345 281 
f 280 344 345 
f 281 346 282 
f 281 345 346 
f 282 347 283 
f 282 346 347 
f 283 348 284 
f 283 347 348 
f 284 349 285 
f 284 348 349 
f 285 350 286 
f 285 349 350 
f 286 351 287 
f 286 350 351 
f 287 352 288 
f 287 351 352 
f 288 353 289 
f 288 352 353 
f 289 354 290 
f 289 353 354 
f 290 355 291 
f 290 354 355 
f 291 356 292 
f 291 355 356 
f 292 357 293 
f 292 356 357 
f 293 358 294 
f 293 357 358 
f 294 359 295 
f 294 358 359 
f 295 360 296 
f 295 359 360 
f 296 361 297 
f 296 360 361 
f 297 362 298 
f 297 361 362 
f 298 363 299 
f 298 362 363 
f 299 364 300 
f 299 363 364 
f 300 365 301 
f 300 364 365 
f 301 366 302 
f 301 365 366 
f 302 367 303 
f 302 366 367 
f 303 368 304 
f 303 367 368 
f 304 369 305 
f 304 368 369 
f 305 370 306 
f 305 369 370 
f 306 371 307 
f 306 370 371 
f 307 372 308 
f 307 371 372 
f 308 373 309 
f 308 372 373 
f 309 374 310 
f 309 373 374 
f 310 375 311 
f 310 374 375 
f 311 376 312 
f 311 375 376 
f 312 377 313 
f 312 376 377 
f 313 378 314 
f 313 377 378 
f 314 379 315 
f 314 378 379 
f 315 380 316 
f 315 379 380 
f 316 381 317 
f 316 380 381 
f 317 382 318 
f 317 381 382 
f 318 383 319 
f 318 382 383 
f 319 384 320 
f 319 383 384 
f 320 321 257 
f 320 384 321 
f 321 386 322 
f 321 385 386 
f 322 387 323 
f 322 386 387 
f 323 388 324 
f 323 387 388 
f 324 389 325 
f 324 388 389 
f 325 390 326 
f 325 389 390 
f 326 391 327 
f 326 390 391 
f 327 392 328 
f 327 391 392 
f 328 393 329 
f 328 392 393 
f 329 394 330 
f 329 393 394 
f 330 395 331 
f 330 394 395 
f 331 396 332 
f 331 395 396 
f 332 397 333 
f 332 396 397 
f 333 398 334 
f 333 397 398 
f 334 399 335 
f 334 398 399 
f 335 400 336 
f 335 399 400 
f 336 401 337 
f 336 400 401 
f 337 402 338 
f 337 401 402 
f 338 403 339 
f 338 402 403 
f 339 404 340 
f 339 403 404 
f 340 405 341 
f 340 404 405 
f 341 406 342 
f 341 405 406 
f 342 407 343 
f 342 406 407 
f 343 408 344 
f 343 407 408 
f 344 409 345 
f 344 408 409 
f 345 410 346 
f 345 409 410 
f 346 411 347 
f 346 410 411 
f 347 412 348 
f 347 411 412 
f 348 413 349 
f 348 412 413 
f 349 414 350 
f 349 413 414 
f 350 415 351 
f 350 414 415 
f 351 416 352 
f 351 415 416 
f 352 417 353 
f 352 416 417 
f 353 418 354 
f 353 417 418 
f 354 419 355 
f 354 418 419 
f 355 420 356 
f 355 419 420 
f 356 421 357 
f 356 420 421 
f 357 422 358 
f 357 421 422 
f 358 423 359 
f 358 422 423 
f 359 424 360 
f 359 423 424 
f 360 425 361 
f 360 424 425 
f 361 426 362 
f 361 425 426 
f 362 427 363 
f 362 426 427 
f 363 428 364 
f 363 427 428 
f 364 429 365 
f 364 428 429 
f 365 430 366 
f 365 429 430 
f 366 431 367 
f 366 430 431 
f 367 432 368 
f 367 431 432 
f 368 433 369 
f 368 432 433 
f 369 434 370 
f 369 433 434 
f 370 435 371 
f 370 434 435 
f 371 436 372 
f 371 435 436 
f 372 437 373 
f 372 436 437 
f 373 438 374 
f 373 437 438 
f 374 439 375 
f 374 438 439 
f 375 440 376 
f 375 439 440 
f 376 441 377 
f 376 440 441 
f 377 442 378 
f 377 441 442 
f 378 443 379 
f 378 442 443 
f 379 444 380 
f 379 443 444 
f 380 445 381 
f 380 444 445 
f 381 446 382 
f 381 445 446 
f 382 447 383 
f 382 446 447 
f 383 448 384 
f 383 447 448 
f 384 385 321 
f 384 448 385 
f 385 450 386 
f 385 449 450 
f 386 451 387 
f 386 450 451 
f 387 452 388 
f 387 451 452 
f 388 453 389 
f 388 452 453 
f 389 454 390 
f 389 453 454 
f 390 455 391 
f 390 454 455 
f 391 456 392 
f 391 455 456 
f 392 457 393 
f 392 456 457 
f 393 458 394 
f 393 457 458 
f 394 459 395 
f 394 458 459 
f 395 460 396 
f 395 459 460 
f 396 461 397 
f 396 460 461 
f 397 462 398 
f 397 461 462 
f 398 463 399 
f 398 462 463 
f 399 464 400 
f 399 463 464 
f 400 465 401 
f 400 464 465 
f 401 466 402 
f 401 465 466 
f 402 467 403 
f 402 466 467 
f 403 468 404 
f 403 467 468 
f 404 469 405 
f 404 468 469 
f 405 470 406 
f 405 469 470 
f 406 471 407 
f 406 470 471 
f 407 472 408 
f 407 471 472 
f 408 473 409 
f 408 472 473 
f 409 474 410 
f 409 473 474 
f 410 475 411 
f 410 474 475 
f 411 476 412 
f 411 475 476 
f 412 477 413 
f 412 476 477 
f 413 478 414 
f 413 477 478 
f 414 479 415 
f 414 478 479 
f 415 480 416 
f 415 479 480 
f 416 481 417 
f 416 480 481 
f 417 482 418 
f 417 481 482 
f 418 483 419 
f 418 482 483 
f 419 484 420 
f 419 483 484 
f 420 485 421 
f 420 484 485 
f 421 486 422 
f 421 485 486 
f 422 487 423 
f 422 486 487 
f 423 488 424 
f 423 487 488 
f 424 489 425 
f 424 488 489 
f 425 490 426 
f 425 489 490 
f 426 491 427 
f 426 490 491 
f 427 492 428 
f 427 491 492 
f 428 493 429 
f 428 492 493 
f 429 494 430 
f 429 493 494 
f 430 495 431 
f 430 494 495 
f 431 496 432 
f 431 495 496 
f 432 497 433 
f 432 496 497 
f 433 498 434 
f 433 497 498 
f 434 499 435 
f 434 498 499 
f 435 500 436 
f 435 499 500 
f 436 501 437 
f 436 500 501 
f 437 502 438 
f 437 501 502 
f 438 503 439 
f 438 502 503 
f 439 504 440 
f 439 503 504 
f 440 505 441 
f 440 504 505 
f 441 506 442 
f 441 505 506 
f 442 507 443 
f 442 506 507 
f 443 508 444 
f 443 507 508 
f 444 509 445 
f 444 508 509 
f 445 510 446 
f 445 509 510 
f 446 511 447 
f 446 510 511 
f 447 512 448 
f 447 511 512 
f 448 449 385 
f 448 512 449 
f 449 514 450 
f 449 513 514 
f 450 515 451 
f 450 514 515 
f 451 516 452 
f 451 515 516 
f 452 517 453 
f 452 516 517 
f 453 518 454 
f 453 517 518 
f 454 519 455 
f 454 518 519 
f 455 520 456 
f 455 519 520 
f 456 521 457 
f 456 520 521 
f 457 522 458 
f 457 521 522 
f 458 523 459 
f 458 522 523 
f 459 524 460 
f 459 523 524 
f 460 525 461 
f 460 524 525 
f 461 526 462 
f 461 525 526 
f 462 527 463 
f 462 526 527 
f 463 528 464 
f 463 527 528 
f 464 529 465 
f 464 528 529 
f 465 530 466 
f 465 529 530 
f 466 531 467 
f 466 530 531 
f 467 532 468 
f 467 531 532 
f 468 533 469 
f 468 532 533 
f 469 534 470 
f 469 533 534 
f 470 535 471 
f 470 534 535 
f 471 536 472 
f 471 535 536 
f 472 537 473 
f 472 536 537 
f 473 538 474 
f 473 537 538 
f 474 539 475 
f 474 538 539 
f 475 540 476 
f 475 539 540 
f 476 541 477 
f 476 540 541 
f 477 542 478 
f 477 541 542 
f 478 543 479 
f 478 542 543 
f 479 544 480 
f 479 543 544 
f 480 545 481 
f 480 544 545 
f 481 546 482 
f 481 545 546 
f 482 547 483 
f 482 546 547 
f 483 548 484 
f 483 547 548 
f 484 549 485 
f 484 548 549 
f 485 550 486 
f 485 549 550 
f 486 551 487 
f 486 550 551 
f 487 552 488 
f 487 551 552 
f 488 553 489 
f 488 552 553 
f 489 554 490 
f 489 553 554 
f 490 555 491 
f 490 554 555 
f 491 556 492 
f 491 555 556 
f 492 557 493 
f 492 556 557 
f 493 558 494 
f 493 557 558 
f 494 559 495 
f 494 558 559 
f 495 560 496 
f 495 559 560 
f 496 561 497 
f 496 560 561 
f 497 562 498 
f 497 561 562 
f 498 563 499 
f 498 562 563 
f 499 564 500 
f 499 563 564 
f 500 565 501 
f 500 564 565 
f 501 566 502 
f 501 565 566 
f 502 567 503 
f 502 566 567 
f 503 568 504 
f 503 567 568 
f 504 569 505 
f 504 568 569 
f 505 570 506 
f 505 569 570 
f 506 571 507 
f 506 570 571 
f 507 572 508 
f 507 571 572 
f 508 573 509 
f 508 572 573 
f 509 574 510 
f 509 573 574 
f 510 575 511 
f 510 574 575 
f 511 576 512 
f 511 575 576 
f 512 513 449 
f 512 576 513 
f 513 578 514 
f 513 577 578 
f 514 579 515 
f 514 578 579 
f 515 580 516 
f 515 579 580 
f 516 581 517 
f 516 580 581 
f 517 582 518 
f 517 581 582 
f 518 583 519 
f 518 582 583 
f 519 584 520 
f 519 583 584 
f 520 585 521 
f 520 584 585 
f 521 586 522 
f 521 585 586 
f 522 587 523 
f 522 586 587 
f 523 588 524 
f 523 587 588 
f 524 589 525 
f 524 588 589 
f 525 590 526 
f 525 589 590 
f 526 591 527 
f 526 590 591 
f 527 592 528 
f 527 591 592 
f 528 593 529 
f 528 592 593 
f 529 594 530 
f 529 593 594 
f 530 595 531 
f 530 594 595 
f 531 596 532 
f 531 595 596 
f 532 597 533 
f 532 596 597 
f 533 598 534 
f 533 597 598 
f 534 599 535 
f 534 598 599 
f 535 600 536 
f 535 599 600 
f 536 601 537 
f 536 600 601 
f 537 602 538 
f 537 601 602 
f 538 603 539 
f 538 602 603 
f 539 604 540 
f 539 603 604 
f 540 605 541 
f 540 604 605 
f 541 606 542 
f 541 605 606 
f 542 607 543 
f 542 606 607 
f 543 608 544 
f 543 607 608 
f 544 609 545 
f 544 608 609 
f 545 610 546 
f 545 609 610 
f 546 611 547 
f 546 610 611 
f 547 612 548 
f 547 611 612 
f 548 613 549 
f 548 612 613 
f 549 614 550 
f 549 613 614 
f 550 615 551 
f 550 614 615 
f 551 616 552 
f 551 615 616 
f 552 617 553 
f 552 616 617 
f 553 618 554 
f 553 617 618 
f 554 619 555 
f 554 618 619 
f 555 620 556 
f 555 619 620 
f 556 621 557 
f 556 620 621 
f 557 622 558 
f 557 621 622 
f 558 623 559 
f 558 622 623 
f 559 624 560 
f 559 623 624 
f 560 625 561 
f 560 624 625 
f 561 626 562 
f 561 625 626 
f 562 627 563 
f 562 626 627 
f 563 628 564 
f 563 627 628 
f 564 629 565 
f 564 628 629 
f 565 630 566 
f 565 629 630 
f 566 631 567 
f 566 630 631 
f 567 632 568 
f 567 631 632 
f 568 633 569 
f 568 632 633 
f 569 634 570 
f 569 633 634 
f 570 635 571 
f 570 634 635 
f 571 636 572 
f 571 635 636 
f 572 637 573 
f 572 636 637 
f 573 638 574 
f 573 637 638 
f 574 639 575 
f 574 638 639 
f 575 640 576 
f 575 639 640 
f 576 577 513 
f 576 640 577 
