# Branch
v -2.16883 -5.30026 -27.9261
vn -0.379811 -0.00775263 -0.925031
v -2.18747 -5.33518 -27.9159
vn -0.42458 -0.0916355 -0.900741
v -2.2044 -5.36974 -27.9022
vn -0.465259 -0.174636 -0.867777
v -2.21947 -5.40359 -27.885
vn -0.501458 -0.255954 -0.826455
v -2.23253 -5.43642 -27.8645
vn -0.532827 -0.334808 -0.777174
v -2.24345 -5.4679 -27.8409
vn -0.559065 -0.410437 -0.720408
v -2.25214 -5.49774 -27.8143
vn -0.579919 -0.482114 -0.656704
v -2.25849 -5.52565 -27.7852
vn -0.595188 -0.549147 -0.586676
v -2.26246 -5.55135 -27.7537
vn -0.604724 -0.610892 -0.510998
v -2.26401 -5.57461 -27.7201
vn -0.608437 -0.666754 -0.430399
v -2.26311 -5.59519 -27.6849
vn -0.606291 -0.716194 -0.345655
v -2.25979 -5.6129 -27.6482
vn -0.598306 -0.758737 -0.257582
v -2.25407 -5.62757 -27.6105
vn -0.584558 -0.793973 -0.167028
v -2.246 -5.63906 -27.5721
vn -0.565181 -0.821563 -0.0748658
v -2.23567 -5.64725 -27.5335
vn -0.540361 -0.84124 0.0180175
v -2.22317 -5.65207 -27.4949
vn -0.510337 -0.852816 0.110727
v -2.20862 -5.65347 -27.4567
vn -0.475398 -0.856179 0.202371
v -2.19217 -5.65144 -27.4194
vn -0.435881 -0.851297 0.292065
v -2.17397 -5.64599 -27.3832
vn -0.392166 -0.838215 0.378947
v -2.1542 -5.63718 -27.3485
vn -0.344674 -0.817062 0.462179
v -2.13305 -5.6251 -27.3157
vn -0.293863 -0.78804 0.54096
v -2.11072 -5.60986 -27.2851
vn -0.240222 -0.751428 0.614532
v -2.08742 -5.59161 -27.257
vn -0.184267 -0.70758 0.682185
v -2.06339 -5.57051 -27.2315
vn -0.126538 -0.656917 0.743268
v -2.03885 -5.54679 -27.2091
vn -0.06759 -0.599928 0.797194
v -2.01404 -5.52066 -27.1898
vn -0.00799121 -0.537161 0.843442
v -1.98919 -5.49238 -27.1739
vn 0.0516846 -0.469222 0.881567
v -1.96456 -5.46221 -27.1616
vn 0.110863 -0.396763 0.911202
v -1.94037 -5.43045 -27.1529
vn 0.168973 -0.320483 0.932062
v -1.91685 -5.39741 -27.148
vn 0.225456 -0.241117 0.943945
v -1.89424 -5.36341 -27.1468
vn 0.279768 -0.159429 0.946738
v -1.87275 -5.32876 -27.1494
vn 0.331385 -0.0762049 0.940413
v -1.85259 -5.29381 -27.1559
vn 0.379811 0.00775263 0.925031
v -1.83395 -5.25889 -27.166
vn 0.42458 0.0916355 0.900741
v -1.81702 -5.22433 -27.1797
vn 0.465259 0.174636 0.867777
v -1.80195 -5.19048 -27.1969
vn 0.501458 0.255954 0.826455
v -1.78889 -5.15765 -27.2174
vn 0.532827 0.334808 0.777174
v -1.77797 -5.12617 -27.241
vn 0.559065 0.410437 0.720408
v -1.76929 -5.09633 -27.2676
vn 0.579919 0.482114 0.656704
v -1.76293 -5.06842 -27.2967
vn 0.595188 0.549147 0.586676
v -1.75896 -5.04271 -27.3282
vn 0.604724 0.610892 0.510998
v -1.75741 -5.01946 -27.3618
vn 0.608437 0.666754 0.430399
v -1.75831 -4.99888 -27.3971
vn 0.606291 0.716194 0.345655
v -1.76163 -4.98117 -27.4337
vn 0.598306 0.758737 0.257582
v -1.76735 -4.9665 -27.4714
vn 0.584558 0.793973 0.167028
v -1.77542 -4.95501 -27.5098
vn 0.565181 0.821563 0.0748658
v -1.78575 -4.94682 -27.5485
vn 0.540361 0.84124 -0.0180175
v -1.79825 -4.942 -27.587
vn 0.510337 0.852816 -0.110727
v -1.8128 -4.9406 -27.6252
vn 0.475398 0.856179 -0.202371
v -1.82925 -4.94263 -27.6625
vn 0.435881 0.851297 -0.292065
v -1.84745 -4.94808 -27.6987
vn 0.392166 0.838215 -0.378947
v -1.86722 -4.95688 -27.7334
vn 0.344674 0.817062 -0.462179
v -1.88837 -4.96897 -27.7662
vn 0.293863 0.78804 -0.54096
v -1.9107 -4.98421 -27.7968
vn 0.240222 0.751428 -0.614532
v -1.934 -5.00246 -27.825
vn 0.184267 0.70758 -0.682185
v -1.95803 -5.02355 -27.8504
vn 0.126538 0.656917 -0.743268
v -1.98257 -5.04728 -27.8728
vn 0.06759 0.599928 -0.797194
v -2.00738 -5.07341 -27.8921
vn 0.00799121 0.537161 -0.843442
v -2.03223 -5.10169 -27.908
vn -0.0516846 0.469222 -0.881567
v -2.05686 -5.13186 -27.9203
vn -0.110863 0.396763 -0.911202
v -2.08106 -5.16361 -27.929
vn -0.168973 0.320483 -0.932062
v -2.10457 -5.19666 -27.9339
vn -0.225456 0.241117 -0.943945
v -2.12718 -5.23066 -27.9351
vn -0.279768 0.159429 -0.946738
v -2.14867 -5.26531 -27.9325
vn -0.331385 0.0762049 -0.940413
v -1.14322 -5.87019 -27.928
vn 0.190813 -0.324895 -0.926301
v -1.16125 -5.90144 -27.9188
vn 0.143297 -0.407251 -0.902005
v -1.1798 -5.93121 -27.9062
vn 0.0944007 -0.485684 -0.869022
v -1.1987 -5.95919 -27.8905
vn 0.0445956 -0.559441 -0.82767
v -1.21776 -5.98514 -27.8718
vn -0.00563905 -0.627809 -0.778347
v -1.2368 -6.00879 -27.8503
vn -0.0558194 -0.690132 -0.721528
v -1.25564 -6.02991 -27.8261
vn -0.105462 -0.745808 -0.65776
v -1.27409 -6.04831 -27.7995
vn -0.154089 -0.794301 -0.587658
v -1.29198 -6.06381 -27.7707
vn -0.201232 -0.835145 -0.511896
v -1.30914 -6.07626 -27.7401
vn -0.246437 -0.867947 -0.431205
v -1.32539 -6.08553 -27.7079
vn -0.289269 -0.892389 -0.34636
v -1.34059 -6.09155 -27.6744
vn -0.329315 -0.908237 -0.25818
v -1.35458 -6.09424 -27.64
vn -0.36619 -0.915338 -0.167514
v -1.36723 -6.09359 -27.605
vn -0.399538 -0.913624 -0.0752344
v -1.37843 -6.0896 -27.5697
vn -0.429038 -0.903112 0.0177698
v -1.38805 -6.08231 -27.5345
vn -0.454406 -0.883902 0.110603
v -1.39602 -6.07179 -27.4997
vn -0.475398 -0.856179 0.202371
v -1.40225 -6.05815 -27.4656
vn -0.491812 -0.820211 0.29219
v -1.40668 -6.0415 -27.4326
vn -0.503489 -0.776344 0.379195
v -1.40927 -6.02202 -27.401
vn -0.510318 -0.725 0.462548
v -1.40999 -5.99988 -27.371
vn -0.512231 -0.666675 0.541446
v -1.40885 -5.97532 -27.3431
vn -0.509212 -0.601928 0.61513
v -1.40584 -5.94855 -27.3173
vn -0.501289 -0.531385 0.68289
v -1.401 -5.91984 -27.2941
vn -0.488538 -0.455724 0.744074
v -1.39438 -5.88946 -27.2736
vn -0.471082 -0.375675 0.798092
v -1.38603 -5.85771 -27.2561
vn -0.44909 -0.292007 0.844423
v -1.37605 -5.8249 -27.2416
vn -0.422772 -0.205527 0.882622
v -1.36452 -5.79133 -27.2303
vn -0.392383 -0.117068 0.912322
v -1.35155 -5.75734 -27.2224
vn -0.358215 -0.0274819 0.933235
v -1.33728 -5.72324 -27.2178
vn -0.320597 0.0623693 0.94516
v -1.32183 -5.68937 -27.2168
vn -0.279892 0.15162 0.947983
v -1.30536 -5.65606 -27.2191
vn -0.236491 0.23941 0.941677
v -1.28803 -5.62362 -27.225
vn -0.190813 0.324895 0.926301
v -1.27 -5.59237 -27.2342
vn -0.143297 0.407251 0.902005
v -1.25144 -5.56261 -27.2467
vn -0.0944007 0.485684 0.869022
v -1.23255 -5.53462 -27.2624
vn -0.0445956 0.559441 0.82767
v -1.21348 -5.50868 -27.2811
vn 0.00563905 0.627809 0.778347
v -1.19444 -5.48503 -27.3027
vn 0.0558194 0.690132 0.721528
v -1.1756 -5.4639 -27.3269
vn 0.105462 0.745808 0.65776
v -1.15715 -5.4455 -27.3535
vn 0.154089 0.794301 0.587658
v -1.13926 -5.43 -27.3822
vn 0.201232 0.835145 0.511896
v -1.12211 -5.41756 -27.4129
vn 0.246437 0.867947 0.431205
v -1.10586 -5.40828 -27.445
vn 0.289269 0.892389 0.34636
v -1.09066 -5.40227 -27.4785
vn 0.329315 0.908237 0.25818
v -1.07667 -5.39957 -27.5129
vn 0.36619 0.915338 0.167514
v -1.06401 -5.40022 -27.5479
vn 0.399538 0.913624 0.0752344
v -1.05282 -5.40421 -27.5832
vn 0.429038 0.903112 -0.0177698
v -1.04319 -5.4115 -27.6184
vn 0.454406 0.883902 -0.110603
v -1.03523 -5.42202 -27.6533
vn 0.475398 0.856179 -0.202371
v -1.029 -5.43567 -27.6874
vn 0.491812 0.820211 -0.29219
v -1.02457 -5.45232 -27.7204
vn 0.503489 0.776344 -0.379195
v -1.02198 -5.4718 -27.752
vn 0.510318 0.725 -0.462548
v -1.02125 -5.49393 -27.7819
vn 0.512231 0.666675 -0.541446
v -1.0224 -5.5185 -27.8099
vn 0.509212 0.601928 -0.61513
v -1.0254 -5.54527 -27.8356
vn 0.501289 0.531385 -0.68289
v -1.03024 -5.57398 -27.8588
vn 0.488538 0.455724 -0.744074
v -1.03687 -5.60435 -27.8793
vn 0.471082 0.375675 -0.798092
v -1.04521 -5.6361 -27.8969
vn 0.44909 0.292007 -0.844423
v -1.0552 -5.66892 -27.9114
vn 0.422772 0.205527 -0.882622
v -1.06673 -5.70248 -27.9227
vn 0.392383 0.117068 -0.912322
v -1.07969 -5.73648 -27.9306
vn 0.358215 0.0274819 -0.933235
v -1.09397 -5.77057 -27.9351
vn 0.320597 -0.0623693 -0.94516
v -1.10942 -5.80444 -27.9362
vn 0.279892 -0.15162 -0.947983
v -1.12588 -5.83775 -27.9338
vn 0.236491 -0.23941 -0.941677
v -0.302646 -6.16052 -27.1817
vn 0.669142 -0.501227 -0.548654
v -0.319715 -6.18845 -27.174
vn 0.619323 -0.582734 -0.526176
v -0.338827 -6.21445 -27.1645
vn 0.563539 -0.658628 -0.498631
v -0.359799 -6.23828 -27.1534
vn 0.502328 -0.72818 -0.466284
v -0.382428 -6.25971 -27.1408
vn 0.436279 -0.790719 -0.429446
v -0.406496 -6.27853 -27.1268
vn 0.366029 -0.845643 -0.388472
v -0.431773 -6.29455 -27.1115
vn 0.292254 -0.892423 -0.343758
v -0.458013 -6.30764 -27.095
vn 0.215664 -0.930608 -0.295732
v -0.484966 -6.31765 -27.0776
vn 0.136997 -0.959831 -0.244859
v -0.51237 -6.32449 -27.0593
vn 0.0570114 -0.979811 -0.191627
v -0.539962 -6.32811 -27.0405
vn -0.0235238 -0.990354 -0.136551
v -0.567477 -6.32845 -27.0212
vn -0.103832 -0.991359 -0.0801585
v -0.594649 -6.32552 -27.0016
vn -0.183141 -0.982818 -0.0229945
v -0.621217 -6.31935 -26.9819
vn -0.260686 -0.964811 0.034391
v -0.646924 -6.31 -26.9624
vn -0.33572 -0.937512 0.0914452
v -0.671524 -6.29755 -26.9431
vn -0.407522 -0.901185 0.147619
v -0.69478 -6.28214 -26.9244
vn -0.475398 -0.856179 0.202371
v -0.716466 -6.26389 -26.9063
vn -0.538696 -0.802928 0.255174
v -0.736376 -6.243 -26.889
vn -0.596807 -0.741943 0.305519
v -0.754316 -6.21965 -26.8728
vn -0.649169 -0.673814 0.352922
v -0.770114 -6.19409 -26.8577
vn -0.69528 -0.599195 0.396927
v -0.783618 -6.16655 -26.8439
vn -0.734695 -0.518806 0.437108
v -0.794698 -6.13729 -26.8316
vn -0.767034 -0.43342 0.473081
v -0.803247 -6.10661 -26.8208
vn -0.791987 -0.34386 0.504497
v -0.809183 -6.07479 -26.8117
vn -0.809312 -0.250989 0.531054
v -0.812448 -6.04214 -26.8044
vn -0.818843 -0.155701 0.552498
v -0.813012 -6.00898 -26.7989
vn -0.820488 -0.0589126 0.56862
v -0.810868 -5.97563 -26.7952
vn -0.814232 0.0384427 0.579266
v -0.806038 -5.9424 -26.7935
vn -0.800133 0.135428 0.584334
v -0.798568 -5.90962 -26.7937
vn -0.77833 0.231109 0.583774
v -0.788529 -5.8776 -26.7958
vn -0.74903 0.324564 0.577592
v -0.77602 -5.84665 -26.7998
vn -0.712517 0.414893 0.565847
v -0.761159 -5.81707 -26.8057
vn -0.669142 0.501227 0.548654
v -0.74409 -5.78915 -26.8134
vn -0.619323 0.582734 0.526176
v -0.724978 -5.76314 -26.8229
vn -0.563539 0.658628 0.498631
v -0.704006 -5.73931 -26.8339
vn -0.502328 0.72818 0.466284
v -0.681377 -5.71789 -26.8466
vn -0.436279 0.790719 0.429446
v -0.657309 -5.69907 -26.8606
vn -0.366029 0.845643 0.388472
v -0.632032 -5.68304 -26.8759
vn -0.292254 0.892423 0.343758
v -0.605792 -5.66996 -26.8924
vn -0.215664 0.930608 0.295732
v -0.57884 -5.65995 -26.9098
vn -0.136997 0.959831 0.244859
v -0.551435 -5.6531 -26.928
vn -0.0570114 0.979811 0.191627
v -0.523843 -5.64949 -26.9469
vn 0.0235238 0.990354 0.136551
v -0.496328 -5.64915 -26.9662
vn 0.103832 0.991359 0.0801585
v -0.469156 -5.65207 -26.9858
vn 0.183141 0.982818 0.0229945
v -0.442588 -5.65824 -27.0055
vn 0.260686 0.964811 -0.034391
v -0.416881 -5.66759 -27.025
vn 0.33572 0.937512 -0.0914452
v -0.392281 -5.68004 -27.0443
vn 0.407522 0.901185 -0.147619
v -0.369025 -5.69546 -27.063
vn 0.475398 0.856179 -0.202371
v -0.347339 -5.7137 -27.0811
vn 0.538696 0.802928 -0.255174
v -0.327429 -5.7346 -27.0984
vn 0.596807 0.741943 -0.305519
v -0.309489 -5.75794 -27.1146
vn 0.649169 0.673814 -0.352922
v -0.293691 -5.78351 -27.1297
vn 0.69528 0.599195 -0.396927
v -0.280187 -5.81105 -27.1435
vn 0.734695 0.518806 -0.437108
v -0.269107 -5.8403 -27.1558
vn 0.767034 0.43342 -0.473081
v -0.260558 -5.87099 -27.1665
vn 0.791987 0.34386 -0.504497
v -0.254622 -5.90281 -27.1756
vn 0.809312 0.250989 -0.531054
v -0.251357 -5.93545 -27.183
vn 0.818843 0.155701 -0.552498
v -0.250793 -5.96861 -27.1885
vn 0.820488 0.0589126 -0.56862
v -0.252937 -6.00197 -27.1922
vn 0.814232 -0.0384427 -0.579266
v -0.257767 -6.0352 -27.1939
vn 0.800133 -0.135428 -0.584334
v -0.265237 -6.06798 -27.1937
vn 0.77833 -0.231109 -0.583774
v -0.275276 -6.1 -27.1916
vn 0.74903 -0.324564 -0.577592
v -0.287786 -6.13095 -27.1876
vn 0.712517 -0.414893 -0.565847
v 0.290621 -6.18012 -25.8709
vn 0.818182 -0.514814 -0.256018
v 0.275169 -6.20502 -25.8644
vn 0.767645 -0.596255 -0.234949
v 0.257456 -6.22816 -25.8573
vn 0.709715 -0.671954 -0.211618
v 0.237653 -6.24933 -25.8496
vn 0.644951 -0.741182 -0.186249
v 0.215952 -6.26832 -25.8412
vn 0.573975 -0.803271 -0.159086
v 0.19256 -6.28494 -25.8325
vn 0.497471 -0.857625 -0.130391
v 0.167703 -6.29903 -25.8233
vn 0.416176 -0.90372 -0.10044
v 0.14162 -6.31046 -25.8139
vn 0.330874 -0.941111 -0.0695218
v 0.114563 -6.31912 -25.8042
vn 0.242385 -0.969438 -0.0379342
v 0.0867929 -6.32493 -25.7944
vn 0.151561 -0.98843 -0.0059813
v 0.0585761 -6.32783 -25.7846
vn 0.0592785 -0.997902 0.0260292
v 0.0301847 -6.32778 -25.7749
vn -0.0335754 -0.997764 0.0577891
v 0.00189225 -6.3248 -25.7654
vn -0.126106 -0.988017 0.0889924
v -0.0260289 -6.31891 -25.7561
vn -0.217422 -0.968755 0.119339
v -0.0533098 -6.31017 -25.7472
vn -0.306644 -0.940163 0.148536
v -0.0796877 -6.29866 -25.7387
vn -0.392913 -0.902517 0.176302
v -0.104909 -6.28449 -25.7307
vn -0.475398 -0.856179 0.202371
v -0.12873 -6.2678 -25.7234
vn -0.553305 -0.801596 0.22649
v -0.150921 -6.24875 -25.7166
vn -0.625883 -0.739293 0.248429
v -0.17127 -6.22753 -25.7107
vn -0.692433 -0.66987 0.267975
v -0.18958 -6.20433 -25.7055
vn -0.752315 -0.593996 0.28494
v -0.205674 -6.17938 -25.7011
vn -0.804952 -0.512401 0.299161
v -0.219398 -6.15292 -25.6977
vn -0.849837 -0.425872 0.310501
v -0.23062 -6.12521 -25.6951
vn -0.886537 -0.335241 0.318851
v -0.239231 -6.09651 -25.6935
vn -0.914699 -0.241382 0.32413
v -0.245149 -6.0671 -25.6928
vn -0.934053 -0.145198 0.326287
v -0.248316 -6.03726 -25.6931
vn -0.944411 -0.0476158 0.325302
v -0.248702 -6.00729 -25.6944
vn -0.945673 0.050425 0.321184
v -0.246303 -5.97746 -25.6966
vn -0.937829 0.14798 0.313973
v -0.241143 -5.94806 -25.6997
vn -0.920952 0.24411 0.303739
v -0.233271 -5.91939 -25.7038
vn -0.895206 0.337889 0.290579
v -0.222763 -5.89171 -25.7086
vn -0.860839 0.428414 0.274621
v -0.20972 -5.86529 -25.7143
vn -0.818182 0.514814 0.256018
v -0.194267 -5.84039 -25.7208
vn -0.767645 0.596255 0.234949
v -0.176554 -5.81725 -25.7279
vn -0.709715 0.671954 0.211618
v -0.156752 -5.79608 -25.7357
vn -0.644951 0.741182 0.186249
v -0.13505 -5.77709 -25.744
vn -0.573975 0.803271 0.159086
v -0.111658 -5.76047 -25.7527
vn -0.497471 0.857625 0.130391
v -0.0868009 -5.74638 -25.7619
vn -0.416176 0.90372 0.10044
v -0.0607184 -5.73495 -25.7713
vn -0.330874 0.941111 0.0695218
v -0.0336617 -5.72629 -25.781
vn -0.242385 0.969438 0.0379342
v -0.00589116 -5.72048 -25.7908
vn -0.151561 0.98843 0.0059813
v 0.0223256 -5.71758 -25.8006
vn -0.0592785 0.997902 -0.0260292
v 0.050717 -5.71762 -25.8103
vn 0.0335754 0.997764 -0.0577891
v 0.0790095 -5.7206 -25.8198
vn 0.126106 0.988017 -0.0889924
v 0.106931 -5.72649 -25.8291
vn 0.217422 0.968755 -0.119339
v 0.134212 -5.73524 -25.838
vn 0.306644 0.940163 -0.148536
v 0.160589 -5.74675 -25.8465
vn 0.392913 0.902517 -0.176302
v 0.18581 -5.76092 -25.8545
vn 0.475398 0.856179 -0.202371
v 0.209631 -5.77761 -25.8619
vn 0.553305 0.801596 -0.22649
v 0.231823 -5.79666 -25.8686
vn 0.625883 0.739293 -0.248429
v 0.252172 -5.81788 -25.8745
vn 0.692433 0.66987 -0.267975
v 0.270482 -5.84108 -25.8797
vn 0.752315 0.593996 -0.28494
v 0.286576 -5.86603 -25.8841
vn 0.804952 0.512401 -0.299161
v 0.3003 -5.89249 -25.8875
vn 0.849837 0.425872 -0.310501
v 0.311522 -5.9202 -25.8901
vn 0.886537 0.335241 -0.318851
v 0.320133 -5.9489 -25.8917
vn 0.914699 0.241382 -0.32413
v 0.32605 -5.97831 -25.8924
vn 0.934053 0.145198 -0.326287
v 0.329217 -6.00815 -25.8921
vn 0.944411 0.0476158 -0.325302
v 0.329604 -6.03812 -25.8908
vn 0.945673 -0.050425 -0.321184
v 0.327205 -6.06795 -25.8886
vn 0.937829 -0.14798 -0.313973
v 0.322045 -6.09734 -25.8855
vn 0.920952 -0.24411 -0.303739
v 0.314173 -6.12602 -25.8815
vn 0.895206 -0.337889 -0.290579
v 0.303664 -6.1537 -25.8766
vn 0.860839 -0.428414 -0.274621
v 0.732701 -5.98329 -23.9996
vn 0.859986 -0.500755 -0.0983348
v 0.719056 -6.00521 -23.9942
vn 0.809247 -0.582263 -0.0780255
v 0.703316 -6.02562 -23.9885
vn 0.750716 -0.658165 -0.0569647
v 0.685632 -6.04433 -23.9827
vn 0.684954 -0.727728 -0.0353554
v 0.666174 -6.06115 -23.9768
vn 0.612596 -0.790282 -0.0134056
v 0.645129 -6.07592 -23.9709
vn 0.534338 -0.845226 0.00867334
v 0.622701 -6.08851 -23.965
vn 0.450935 -0.89203 0.0306687
v 0.599104 -6.09878 -23.9591
vn 0.363188 -0.930243 0.0523688
v 0.574567 -6.10665 -23.9534
vn 0.271944 -0.959497 0.0735645
v 0.549326 -6.11203 -23.9479
vn 0.178081 -0.979511 0.0940517
v 0.523624 -6.11488 -23.9426
vn 0.0825033 -0.990091 0.113633
v 0.497708 -6.11516 -23.9377
vn -0.0138693 -0.991137 0.13212
v 0.471827 -6.11287 -23.933
vn -0.110108 -0.982637 0.149335
v 0.446232 -6.10804 -23.9288
vn -0.205287 -0.964674 0.165112
v 0.421169 -6.10071 -23.925
vn -0.298489 -0.93742 0.179298
v 0.396879 -6.09096 -23.9216
vn -0.388816 -0.901139 0.191758
v 0.373595 -6.07887 -23.9188
vn -0.475398 -0.856179 0.202371
v 0.351543 -6.06456 -23.9165
vn -0.557402 -0.802974 0.211035
v 0.330935 -6.04817 -23.9147
vn -0.634038 -0.742036 0.217666
v 0.311968 -6.02986 -23.9135
vn -0.704568 -0.673951 0.222202
v 0.294826 -6.00981 -23.9128
vn -0.768313 -0.599376 0.224597
v 0.279674 -5.9882 -23.9127
vn -0.824658 -0.519029 0.22483
v 0.266658 -5.96525 -23.9133
vn -0.873061 -0.433683 0.222897
v 0.255902 -5.94118 -23.9144
vn -0.913057 -0.34416 0.218818
v 0.247511 -5.91621 -23.916
vn -0.944259 -0.251323 0.212631
v 0.241566 -5.8906 -23.9182
vn -0.966367 -0.156066 0.204396
v 0.238124 -5.86458 -23.921
vn -0.979169 -0.0593055 0.194194
v 0.237217 -5.8384 -23.9242
vn -0.982541 0.038026 0.18212
v 0.238855 -5.81233 -23.9279
vn -0.97645 0.134991 0.168293
v 0.243021 -5.7866 -23.9321
vn -0.960956 0.230657 0.152846
v 0.249677 -5.76147 -23.9367
vn -0.936207 0.3241 0.135926
v 0.258757 -5.73718 -23.9416
vn -0.902442 0.414423 0.117697
v 0.270174 -5.71397 -23.9468
vn -0.859986 0.500755 0.0983348
v 0.283818 -5.69205 -23.9522
vn -0.809247 0.582263 0.0780255
v 0.299558 -5.67164 -23.9579
vn -0.750716 0.658165 0.0569647
v 0.317243 -5.65293 -23.9637
vn -0.684954 0.727728 0.0353554
v 0.336701 -5.63611 -23.9696
vn -0.612596 0.790282 0.0134056
v 0.357745 -5.62133 -23.9755
vn -0.534338 0.845226 -0.00867334
v 0.380174 -5.60875 -23.9815
vn -0.450935 0.89203 -0.0306687
v 0.40377 -5.59847 -23.9873
vn -0.363188 0.930243 -0.0523688
v 0.428307 -5.5906 -23.993
vn -0.271944 0.959497 -0.0735645
v 0.453548 -5.58522 -23.9985
vn -0.178081 0.979511 -0.0940517
v 0.479251 -5.58238 -24.0038
vn -0.0825033 0.990091 -0.113633
v 0.505167 -5.5821 -24.0087
vn 0.0138693 0.991137 -0.13212
v 0.531047 -5.58438 -24.0134
vn 0.110108 0.982637 -0.149335
v 0.556642 -5.58921 -24.0176
vn 0.205287 0.964674 -0.165112
v 0.581705 -5.59654 -24.0214
vn 0.298489 0.93742 -0.179298
v 0.605996 -5.6063 -24.0248
vn 0.388816 0.901139 -0.191758
v 0.629279 -5.61839 -24.0276
vn 0.475398 0.856179 -0.202371
v 0.651331 -5.6327 -24.03
vn 0.557402 0.802974 -0.211035
v 0.67194 -5.64908 -24.0317
vn 0.634038 0.742036 -0.217666
v 0.690907 -5.66739 -24.033
vn 0.704568 0.673951 -0.222202
v 0.708049 -5.68745 -24.0336
vn 0.768313 0.599376 -0.224597
v 0.723201 -5.70905 -24.0337
vn 0.824658 0.519029 -0.22483
v 0.736217 -5.732 -24.0331
vn 0.873061 0.433683 -0.222897
v 0.746972 -5.75608 -24.032
vn 0.913057 0.34416 -0.218818
v 0.755363 -5.78104 -24.0304
vn 0.944259 0.251323 -0.212631
v 0.761308 -5.80666 -24.0282
vn 0.966367 0.156066 -0.204396
v 0.764751 -5.83268 -24.0254
vn 0.979169 0.0593055 -0.194194
v 0.765658 -5.85885 -24.0222
vn 0.982541 -0.038026 -0.18212
v 0.76402 -5.88493 -24.0185
vn 0.97645 -0.134991 -0.168293
v 0.759853 -5.91065 -24.0143
vn 0.960956 -0.230657 -0.152846
v 0.753198 -5.93578 -24.0098
vn 0.936207 -0.3241 -0.135926
v 0.744118 -5.96007 -24.0049
vn 0.902442 -0.414423 -0.117697
v 1.05377 -5.57953 -21.5372
vn 0.873508 -0.486755 -0.00734186
v 1.04198 -5.59846 -21.5326
vn 0.822704 -0.568332 0.0125293
v 1.02835 -5.61612 -21.528
vn 0.763978 -0.644435 0.0322798
v 1.01301 -5.63234 -21.5235
vn 0.697894 -0.714331 0.0517194
v 0.996119 -5.64697 -21.5191
vn 0.625089 -0.777349 0.0706609
v 0.977827 -5.65985 -21.5149
vn 0.546264 -0.83288 0.0889219
v 0.958313 -5.67088 -21.5108
vn 0.462178 -0.88039 0.106327
v 0.937766 -5.67994 -21.507
vn 0.373641 -0.919421 0.122707
v 0.916385 -5.68694 -21.5035
vn 0.281506 -0.949598 0.137906
v 0.894374 -5.69182 -21.5003
vn 0.18666 -0.97063 0.151777
v 0.871946 -5.69453 -21.4974
vn 0.0900157 -0.982314 0.164186
v 0.849317 -5.69505 -21.4949
vn -0.00749507 -0.984537 0.175014
v 0.826705 -5.69336 -21.4928
vn -0.104934 -0.97728 0.184157
v 0.804327 -5.68949 -21.4911
vn -0.201362 -0.96061 0.191525
v 0.782399 -5.68348 -21.4898
vn -0.295851 -0.934689 0.19705
v 0.761133 -5.67537 -21.4889
vn -0.38749 -0.899767 0.200677
v 0.740732 -5.66526 -21.4885
vn -0.475398 -0.856179 0.202371
v 0.721394 -5.65323 -21.4886
vn -0.558728 -0.804346 0.202116
v 0.703305 -5.6394 -21.4891
vn -0.636676 -0.744767 0.199915
v 0.686639 -5.62391 -21.4901
vn -0.708493 -0.678015 0.195788
v 0.671556 -5.60691 -21.4915
vn -0.773487 -0.604733 0.189776
v 0.658201 -5.58855 -21.4933
vn -0.831032 -0.525628 0.181936
v 0.646704 -5.56902 -21.4955
vn -0.880574 -0.44146 0.172344
v 0.637175 -5.5485 -21.4981
vn -0.921635 -0.353041 0.161092
v 0.629706 -5.52719 -21.5011
vn -0.95382 -0.261222 0.148289
v 0.624369 -5.5053 -21.5044
vn -0.97682 -0.166887 0.134058
v 0.621215 -5.48303 -21.508
vn -0.990412 -0.0709455 0.118536
v 0.620274 -5.46061 -21.5119
vn -0.994466 0.0256797 0.101872
v 0.621556 -5.43824 -21.516
vn -0.988943 0.122058 0.0842269
v 0.625048 -5.41615 -21.5202
vn -0.973895 0.21726 0.0657708
v 0.630716 -5.39454 -21.5247
vn -0.949469 0.31037 0.0466814
v 0.638507 -5.37363 -21.5292
vn -0.915899 0.400491 0.0271423
v 0.648344 -5.35361 -21.5338
vn -0.873508 0.486755 0.00734186
v 0.660134 -5.33468 -21.5384
vn -0.822704 0.568332 -0.0125293
v 0.673762 -5.31702 -21.543
vn -0.763978 0.644435 -0.0322798
v 0.689098 -5.3008 -21.5475
vn -0.697894 0.714331 -0.0517194
v 0.705994 -5.28617 -21.5519
vn -0.625089 0.777349 -0.0706609
v 0.724287 -5.27328 -21.5561
vn -0.546264 0.83288 -0.0889219
v 0.7438 -5.26226 -21.5602
vn -0.462178 0.88039 -0.106327
v 0.764347 -5.2532 -21.564
vn -0.373641 0.919421 -0.122707
v 0.785728 -5.2462 -21.5675
vn -0.281506 0.949598 -0.137906
v 0.807739 -5.24132 -21.5707
vn -0.18666 0.97063 -0.151777
v 0.830167 -5.23861 -21.5736
vn -0.0900157 0.982314 -0.164186
v 0.852796 -5.23809 -21.5761
vn 0.00749507 0.984537 -0.175014
v 0.875408 -5.23977 -21.5782
vn 0.104934 0.97728 -0.184157
v 0.897786 -5.24364 -21.5799
vn 0.201362 0.96061 -0.191525
v 0.919714 -5.24966 -21.5812
vn 0.295851 0.934689 -0.19705
v 0.94098 -5.25776 -21.5821
vn 0.38749 0.899767 -0.200677
v 0.961381 -5.26788 -21.5825
vn 0.475398 0.856179 -0.202371
v 0.980719 -5.27991 -21.5824
vn 0.558728 0.804346 -0.202116
v 0.998808 -5.29373 -21.5819
vn 0.636676 0.744767 -0.199915
v 1.01547 -5.30922 -21.5809
vn 0.708493 0.678015 -0.195788
v 1.03056 -5.32623 -21.5795
vn 0.773487 0.604733 -0.189776
v 1.04391 -5.34459 -21.5777
vn 0.831032 0.525628 -0.181936
v 1.05541 -5.36412 -21.5755
vn 0.880574 0.44146 -0.172344
v 1.06494 -5.38464 -21.5729
vn 0.921635 0.353041 -0.161092
v 1.07241 -5.40595 -21.5699
vn 0.95382 0.261222 -0.148289
v 1.07774 -5.42784 -21.5666
vn 0.97682 0.166887 -0.134058
v 1.0809 -5.4501 -21.563
vn 0.990412 0.0709455 -0.118536
v 1.08184 -5.47253 -21.5591
vn 0.994466 -0.0256797 -0.101872
v 1.08056 -5.49489 -21.555
vn 0.988943 -0.122058 -0.0842269
v 1.07707 -5.51699 -21.5508
vn 0.973895 -0.21726 -0.0657708
v 1.0714 -5.53859 -21.5463
vn 0.949469 -0.31037 -0.0466814
v 1.06361 -5.55951 -21.5418
vn 0.915899 -0.400491 -0.0271423
v 1.26074 -4.96939 -18.4696
vn 0.878169 -0.475681 0.0504619
v 1.25082 -4.98532 -18.4658
vn 0.827344 -0.557311 0.0700547
v 1.23934 -5.00021 -18.4621
vn 0.76855 -0.633573 0.0889729
v 1.22642 -5.01391 -18.4586
vn 0.702355 -0.703734 0.107034
v 1.21218 -5.02628 -18.4553
vn 0.629396 -0.767117 0.124065
v 1.19675 -5.03721 -18.4522
vn 0.550375 -0.823113 0.1399
v 1.18029 -5.0466 -18.4493
vn 0.466054 -0.871182 0.154389
v 1.16295 -5.05434 -18.4468
vn 0.377245 -0.910861 0.16739
v 1.14491 -5.06038 -18.4446
vn 0.284802 -0.941767 0.17878
v 1.12633 -5.06464 -18.4427
vn 0.189617 -0.963604 0.188447
v 1.10739 -5.06709 -18.4412
vn 0.0926056 -0.976161 0.1963
v 1.08827 -5.06771 -18.44
vn -0.00529755 -0.979317 0.202263
v 1.06917 -5.06648 -18.4392
vn -0.10315 -0.973042 0.206277
v 1.05026 -5.06343 -18.4388
vn -0.200009 -0.957395 0.208305
v 1.03173 -5.05857 -18.4388
vn -0.294941 -0.932529 0.208327
v 1.01375 -5.05196 -18.4392
vn -0.387033 -0.898681 0.206342
v 0.996502 -5.04367 -18.44
vn -0.475398 -0.856179 0.202371
v 0.980146 -5.03376 -18.4411
vn -0.559185 -0.805432 0.19645
v 0.96484 -5.02234 -18.4427
vn -0.637586 -0.746927 0.188638
v 0.950734 -5.00951 -18.4445
vn -0.709847 -0.68123 0.179008
v 0.937961 -4.99541 -18.4468
vn -0.775271 -0.608971 0.167655
v 0.926647 -4.98016 -18.4493
vn -0.83323 -0.530848 0.154687
v 0.916899 -4.96391 -18.4521
vn -0.883164 -0.447613 0.14023
v 0.908811 -4.94682 -18.4552
vn -0.924592 -0.360067 0.124422
v 0.902462 -4.92905 -18.4585
vn -0.957117 -0.269053 0.107416
v 0.897912 -4.91078 -18.462
vn -0.980423 -0.175448 0.089375
v 0.895205 -4.89217 -18.4657
vn -0.994288 -0.0801535 0.0704736
v 0.894368 -4.87342 -18.4696
vn -0.998577 0.015913 0.0508934
v 0.895408 -4.85469 -18.4735
vn -0.99325 0.111826 0.0308232
v 0.898315 -4.83618 -18.4774
vn -0.978356 0.206662 0.0104561
v 0.903062 -4.81805 -18.4814
vn -0.954041 0.299508 -0.0100117
v 0.909603 -4.80049 -18.4854
vn -0.920538 0.38947 -0.0303831
v 0.917874 -4.78366 -18.4893
vn -0.878169 0.475681 -0.0504619
v 0.927796 -4.76773 -18.4932
vn -0.827344 0.557311 -0.0700547
v 0.939274 -4.75284 -18.4969
vn -0.76855 0.633573 -0.0889729
v 0.952196 -4.73914 -18.5004
vn -0.702355 0.703734 -0.107034
v 0.966439 -4.72677 -18.5037
vn -0.629396 0.767117 -0.124065
v 0.981865 -4.71584 -18.5068
vn -0.550375 0.823113 -0.1399
v 0.998326 -4.70645 -18.5096
vn -0.466054 0.871182 -0.154389
v 1.01566 -4.69871 -18.5122
vn -0.377245 0.910861 -0.16739
v 1.03371 -4.69267 -18.5144
vn -0.284802 0.941767 -0.17878
v 1.05229 -4.68841 -18.5163
vn -0.189617 0.963604 -0.188447
v 1.07123 -4.68596 -18.5178
vn -0.0926056 0.976161 -0.1963
v 1.09034 -4.68534 -18.519
vn 0.00529755 0.979317 -0.202263
v 1.10945 -4.68657 -18.5198
vn 0.10315 0.973042 -0.206277
v 1.12835 -4.68962 -18.5202
vn 0.200009 0.957395 -0.208305
v 1.14689 -4.69448 -18.5202
vn 0.294941 0.932529 -0.208327
v 1.16487 -4.70109 -18.5198
vn 0.387033 0.898681 -0.206342
v 1.18212 -4.70938 -18.519
vn 0.475398 0.856179 -0.202371
v 1.19847 -4.71929 -18.5178
vn 0.559185 0.805432 -0.19645
v 1.21378 -4.73071 -18.5163
vn 0.637586 0.746927 -0.188638
v 1.22788 -4.74354 -18.5144
vn 0.709847 0.68123 -0.179008
v 1.24066 -4.75764 -18.5122
vn 0.775271 0.608971 -0.167655
v 1.25197 -4.77289 -18.5097
vn 0.83323 0.530848 -0.154687
v 1.26172 -4.78914 -18.5069
vn 0.883164 0.447613 -0.14023
v 1.26981 -4.80623 -18.5038
vn 0.924592 0.360067 -0.124422
v 1.27616 -4.824 -18.5005
vn 0.957117 0.269053 -0.107416
v 1.28071 -4.84227 -18.4969
vn 0.980423 0.175448 -0.089375
v 1.28341 -4.86088 -18.4932
vn 0.994288 0.0801535 -0.0704736
v 1.28425 -4.87963 -18.4894
vn 0.998577 -0.015913 -0.0508934
v 1.28321 -4.89836 -18.4855
vn 0.99325 -0.111826 -0.0308232
v 1.2803 -4.91687 -18.4815
vn 0.978356 -0.206662 -0.0104561
v 1.27556 -4.93499 -18.4775
vn 0.954041 -0.299508 0.0100117
v 1.26902 -4.95256 -18.4736
vn 0.920538 -0.38947 0.0303831
v 1.3555 -4.15248 -14.7909
vn 0.879598 -0.467117 0.0900517
v 1.34745 -4.16541 -14.7878
vn 0.828765 -0.548787 0.109454
v 1.33813 -4.17751 -14.7849
vn 0.769951 -0.625173 0.127802
v 1.32764 -4.18865 -14.7822
vn 0.703722 -0.695538 0.144919
v 1.31608 -4.19873 -14.7797
vn 0.630716 -0.759205 0.160641
v 1.30356 -4.20766 -14.7775
vn 0.551635 -0.81556 0.174815
v 1.29019 -4.21534 -14.7755
vn 0.467242 -0.864061 0.187306
v 1.27611 -4.2217 -14.7738
vn 0.378349 -0.90424 0.197994
v 1.26146 -4.22669 -14.7724
vn 0.285813 -0.935711 0.206774
v 1.24637 -4.23024 -14.7713
vn 0.190523 -0.958171 0.213563
v 1.23099 -4.23234 -14.7706
vn 0.0933994 -0.971403 0.218295
v 1.21546 -4.23295 -14.7702
vn -0.00462402 -0.97528 0.220925
v 1.19995 -4.23208 -14.7701
vn -0.102603 -0.969764 0.221427
v 1.18458 -4.22973 -14.7704
vn -0.199594 -0.954909 0.219797
v 1.16953 -4.22592 -14.7709
vn -0.294662 -0.930858 0.21605
v 1.15492 -4.22069 -14.7719
vn -0.386893 -0.897842 0.210223
v 1.14091 -4.21409 -14.7731
vn -0.475398 -0.856179 0.202371
v 1.12761 -4.20619 -14.7747
vn -0.559325 -0.806271 0.19257
v 1.11518 -4.19705 -14.7765
vn -0.637865 -0.748598 0.180914
v 1.10371 -4.18678 -14.7786
vn -0.710261 -0.683716 0.167516
v 1.09333 -4.17546 -14.781
vn -0.775818 -0.612249 0.152505
v 1.08413 -4.16321 -14.7836
vn -0.833903 -0.534885 0.136025
v 1.0762 -4.15014 -14.7864
vn -0.883958 -0.452371 0.118235
v 1.06962 -4.13638 -14.7894
vn -0.925499 -0.3655 0.0993065
v 1.06446 -4.12207 -14.7926
vn -0.958127 -0.275109 0.0794215
v 1.06075 -4.10733 -14.7959
vn -0.981528 -0.182068 0.0587717
v 1.05854 -4.09232 -14.7992
vn -0.995476 -0.0872744 0.0375559
v 1.05785 -4.07717 -14.8026
vn -0.999837 0.00835995 0.0159784
v 1.05868 -4.06204 -14.8061
vn -0.99457 0.103914 -0.00575302
v 1.06104 -4.04707 -14.8095
vn -0.979724 0.198467 -0.027429
v 1.06488 -4.03239 -14.8129
vn -0.955442 0.291109 -0.0488408
v 1.07018 -4.01817 -14.8162
vn -0.92196 0.380947 -0.0697823
v 1.07689 -4.00452 -14.8194
vn -0.879598 0.467117 -0.0900517
v 1.08494 -3.99159 -14.8225
vn -0.828765 0.548787 -0.109454
v 1.09426 -3.97949 -14.8254
vn -0.769951 0.625173 -0.127802
v 1.10475 -3.96835 -14.8281
vn -0.703722 0.695538 -0.144919
v 1.11631 -3.95826 -14.8306
vn -0.630716 0.759205 -0.160641
v 1.12883 -3.94934 -14.8329
vn -0.551635 0.81556 -0.174815
v 1.1422 -3.94166 -14.8348
vn -0.467242 0.864061 -0.187306
v 1.15628 -3.93529 -14.8365
vn -0.378349 0.90424 -0.197994
v 1.17093 -3.93031 -14.8379
vn -0.285813 0.935711 -0.206774
v 1.18602 -3.92675 -14.839
vn -0.190523 0.958171 -0.213563
v 1.2014 -3.92466 -14.8397
vn -0.0933994 0.971403 -0.218295
v 1.21693 -3.92404 -14.8402
vn 0.00462402 0.97528 -0.220925
v 1.23244 -3.92492 -14.8402
vn 0.102603 0.969764 -0.221427
v 1.2478 -3.92727 -14.84
vn 0.199594 0.954909 -0.219797
v 1.26286 -3.93108 -14.8394
vn 0.294662 0.930858 -0.21605
v 1.27747 -3.93631 -14.8385
vn 0.386893 0.897842 -0.210223
v 1.29148 -3.9429 -14.8372
vn 0.475398 0.856179 -0.202371
v 1.30477 -3.95081 -14.8357
vn 0.559325 0.806271 -0.19257
v 1.31721 -3.95994 -14.8338
vn 0.637865 0.748598 -0.180914
v 1.32868 -3.97022 -14.8317
vn 0.710261 0.683716 -0.167516
v 1.33906 -3.98154 -14.8293
vn 0.775818 0.612249 -0.152505
v 1.34826 -3.99379 -14.8267
vn 0.833903 0.534885 -0.136025
v 1.35619 -4.00686 -14.8239
vn 0.883958 0.452371 -0.118235
v 1.36277 -4.02061 -14.8209
vn 0.925499 0.3655 -0.0993065
v 1.36793 -4.03493 -14.8177
vn 0.958127 0.275109 -0.0794215
v 1.37164 -4.04966 -14.8145
vn 0.981528 0.182068 -0.0587717
v 1.37385 -4.06468 -14.8111
vn 0.995476 0.0872744 -0.0375559
v 1.37454 -4.07982 -14.8077
vn 0.999837 -0.00835995 -0.0159784
v 1.3737 -4.09495 -14.8043
vn 0.99457 -0.103914 0.00575302
v 1.37135 -4.10993 -14.8008
vn 0.979724 -0.198467 0.027429
v 1.36751 -4.1246 -14.7974
vn 0.955442 -0.291109 0.0488408
v 1.36221 -4.13883 -14.7941
vn 0.92196 -0.380947 0.0697823
v 1.33862 -3.12844 -10.4981
vn 0.87973 -0.46041 0.118735
v 1.33244 -3.13837 -10.4958
vn 0.828897 -0.542113 0.137999
v 1.32529 -3.14766 -10.4936
vn 0.770081 -0.618596 0.155934
v 1.31725 -3.15623 -10.4916
vn 0.703848 -0.689121 0.172367
v 1.30837 -3.164 -10.4898
vn 0.630837 -0.753009 0.18714
v 1.29876 -3.17088 -10.4882
vn 0.551751 -0.809646 0.200111
v 1.28851 -3.17681 -10.4869
vn 0.467352 -0.858485 0.211155
v 1.2777 -3.18174 -10.4858
vn 0.378451 -0.899056 0.220166
v 1.26646 -3.18562 -10.4849
vn 0.285906 -0.930969 0.227056
v 1.25488 -3.18841 -10.4844
vn 0.190607 -0.953917 0.231759
v 1.24307 -3.19008 -10.4841
vn 0.0934727 -0.967677 0.23423
v 1.23116 -3.19062 -10.484
vn -0.00456191 -0.972118 0.234446
v 1.21925 -3.19002 -10.4843
vn -0.102553 -0.967198 0.232404
v 1.20746 -3.18829 -10.4848
vn -0.199556 -0.952962 0.228123
v 1.19591 -3.18545 -10.4856
vn -0.294637 -0.929549 0.221646
v 1.1847 -3.18152 -10.4866
vn -0.38688 -0.897185 0.213034
v 1.17394 -3.17653 -10.4879
vn -0.475398 -0.856179 0.202371
v 1.16374 -3.17055 -10.4895
vn -0.559338 -0.806928 0.189758
v 1.15419 -3.16362 -10.4912
vn -0.63789 -0.749906 0.175318
v 1.1454 -3.15581 -10.4932
vn -0.7103 -0.685662 0.15919
v 1.13743 -3.1472 -10.4953
vn -0.775869 -0.614815 0.141528
v 1.13037 -3.13787 -10.4977
vn -0.833965 -0.538047 0.122504
v 1.12428 -3.12791 -10.5001
vn -0.884031 -0.456097 0.1023
v 1.11923 -3.11742 -10.5027
vn -0.925582 -0.369754 0.0811103
v 1.11527 -3.1065 -10.5054
vn -0.95822 -0.279851 0.0591397
v 1.11242 -3.09524 -10.5081
vn -0.98163 -0.187252 0.0365996
v 1.11073 -3.08377 -10.5109
vn -0.995586 -0.0928506 0.013707
v 1.1102 -3.07219 -10.5137
vn -0.999954 0.00244539 -0.00931764
v 1.11084 -3.06061 -10.5165
vn -0.994691 0.0977179 -0.0322525
v 1.11264 -3.04915 -10.5192
vn -0.97985 0.192049 -0.0548768
v 1.11559 -3.03791 -10.5219
vn -0.955572 0.284531 -0.0769725
v 1.11966 -3.02701 -10.5245
vn -0.922091 0.374273 -0.098327
v 1.12481 -3.01654 -10.527
vn -0.87973 0.46041 -0.118735
v 1.13098 -3.00661 -10.5293
vn -0.828897 0.542113 -0.137999
v 1.13813 -2.99731 -10.5315
vn -0.770081 0.618596 -0.155934
v 1.14618 -2.98874 -10.5335
vn -0.703848 0.689121 -0.172367
v 1.15505 -2.98098 -10.5353
vn -0.630837 0.753009 -0.18714
v 1.16466 -2.9741 -10.5369
vn -0.551751 0.809646 -0.200111
v 1.17492 -2.96816 -10.5382
vn -0.467352 0.858485 -0.211155
v 1.18572 -2.96323 -10.5393
vn -0.378451 0.899056 -0.220166
v 1.19697 -2.95935 -10.5401
vn -0.285906 0.930969 -0.227056
v 1.20855 -2.95657 -10.5407
vn -0.190607 0.953917 -0.231759
v 1.22035 -2.95489 -10.541
vn -0.0934727 0.967677 -0.23423
v 1.23227 -2.95435 -10.541
vn 0.00456191 0.972118 -0.234446
v 1.24418 -2.95495 -10.5408
vn 0.102553 0.967198 -0.232404
v 1.25596 -2.95668 -10.5403
vn 0.199556 0.952962 -0.228123
v 1.26752 -2.95953 -10.5395
vn 0.294637 0.929549 -0.221646
v 1.27873 -2.96346 -10.5384
vn 0.38688 0.897185 -0.213034
v 1.28948 -2.96844 -10.5371
vn 0.475398 0.856179 -0.202371
v 1.29968 -2.97443 -10.5356
vn 0.559338 0.806928 -0.189758
v 1.30923 -2.98136 -10.5338
vn 0.63789 0.749906 -0.175318
v 1.31803 -2.98916 -10.5319
vn 0.7103 0.685662 -0.15919
v 1.326 -2.99777 -10.5297
vn 0.775869 0.614815 -0.141528
v 1.33306 -3.0071 -10.5274
vn 0.833965 0.538047 -0.122504
v 1.33914 -3.01706 -10.525
vn 0.884031 0.456097 -0.1023
v 1.34419 -3.02755 -10.5224
vn 0.925582 0.369754 -0.0811103
v 1.34816 -3.03848 -10.5197
vn 0.95822 0.279851 -0.0591397
v 1.351 -3.04973 -10.517
vn 0.98163 0.187252 -0.0365996
v 1.3527 -3.0612 -10.5142
vn 0.995586 0.0928506 -0.013707
v 1.35323 -3.07279 -10.5114
vn 0.999954 -0.00244539 0.00931764
v 1.35259 -3.08436 -10.5086
vn 0.994691 -0.0977179 0.0322525
v 1.35079 -3.09583 -10.5059
vn 0.97985 -0.192049 0.0548768
v 1.34784 -3.10706 -10.5032
vn 0.955572 -0.284531 0.0769725
v 1.34377 -3.11797 -10.5006
vn 0.922091 -0.374273 0.098327
v 1.21032 -1.89703 -5.58971
vn 0.879321 -0.455057 0.14042
v 1.20602 -1.90395 -5.58809
vn 0.828489 -0.536786 0.159579
v 1.20104 -1.91043 -5.5866
vn 0.769679 -0.613346 0.177202
v 1.19543 -1.91641 -5.58525
vn 0.703457 -0.683998 0.193119
v 1.18925 -1.92184 -5.58406
vn 0.63046 -0.748064 0.207175
v 1.18255 -1.92665 -5.58304
vn 0.551391 -0.804925 0.219236
v 1.17541 -1.93081 -5.58219
vn 0.467012 -0.854034 0.229186
v 1.16788 -1.93427 -5.58154
vn 0.378135 -0.894918 0.236929
v 1.16005 -1.937 -5.58108
vn 0.285616 -0.927184 0.24239
v 1.15198 -1.93898 -5.58081
vn 0.190348 -0.950521 0.245516
v 1.14376 -1.94018 -5.58075
vn 0.0932454 -0.964703 0.246278
v 1.13546 -1.94059 -5.58088
vn -0.00475474 -0.969595 0.244668
v 1.12717 -1.94022 -5.58122
vn -0.102709 -0.965149 0.240702
v 1.11896 -1.93905 -5.58175
vn -0.199674 -0.951409 0.234418
v 1.11091 -1.93711 -5.58247
vn -0.294716 -0.928505 0.225877
v 1.1031 -1.93442 -5.58338
vn -0.38692 -0.89666 0.21516
v 1.09561 -1.93099 -5.58447
vn -0.475398 -0.856179 0.202371
v 1.08851 -1.92686 -5.58571
vn -0.559297 -0.807453 0.187633
v 1.08186 -1.92208 -5.58711
vn -0.63781 -0.750951 0.171088
v 1.07573 -1.91668 -5.58865
vn -0.710181 -0.687216 0.152895
v 1.07018 -1.91073 -5.59032
vn -0.775712 -0.616863 0.13323
v 1.06527 -1.90427 -5.59209
vn -0.833773 -0.54057 0.112282
v 1.06103 -1.89737 -5.59396
vn -0.883804 -0.459071 0.090252
v 1.05751 -1.89009 -5.5959
vn -0.925323 -0.37315 0.0673532
v 1.05475 -1.88251 -5.59789
vn -0.957931 -0.283636 0.0438059
v 1.05277 -1.8747 -5.59992
vn -0.981314 -0.19139 0.0198366
v 1.05159 -1.86673 -5.60197
vn -0.995246 -0.0973013 -0.0043237
v 1.05122 -1.85869 -5.60401
vn -0.999593 -0.00227533 -0.0284424
v 1.05167 -1.85064 -5.60603
vn -0.994313 0.0927726 -0.0522871
v 1.05293 -1.84267 -5.608
vn -0.979458 0.186927 -0.0756283
v 1.05499 -1.83485 -5.60992
vn -0.95517 0.279281 -0.0982411
v 1.05782 -1.82725 -5.61175
vn -0.921684 0.368946 -0.119908
v 1.06141 -1.81996 -5.61349
vn -0.879321 0.455057 -0.14042
v 1.06571 -1.81304 -5.61511
vn -0.828489 0.536786 -0.159579
v 1.07069 -1.80656 -5.61661
vn -0.769679 0.613346 -0.177202
v 1.0763 -1.80058 -5.61795
vn -0.703457 0.683998 -0.193119
v 1.08248 -1.79515 -5.61914
vn -0.63046 0.748064 -0.207175
v 1.08918 -1.79034 -5.62016
vn -0.551391 0.804925 -0.219236
v 1.09632 -1.78618 -5.62101
vn -0.467012 0.854034 -0.229186
v 1.10385 -1.78272 -5.62166
vn -0.378135 0.894918 -0.236929
v 1.11168 -1.77999 -5.62212
vn -0.285616 0.927184 -0.24239
v 1.11975 -1.77801 -5.62239
vn -0.190348 0.950521 -0.245516
v 1.12797 -1.77681 -5.62245
vn -0.0932454 0.964703 -0.246278
v 1.13627 -1.7764 -5.62232
vn 0.00475474 0.969595 -0.244668
v 1.14456 -1.77677 -5.62198
vn 0.102709 0.965149 -0.240702
v 1.15277 -1.77794 -5.62145
vn 0.199674 0.951409 -0.234418
v 1.16082 -1.77987 -5.62073
vn 0.294716 0.928505 -0.225877
v 1.16863 -1.78257 -5.61982
vn 0.38692 0.89666 -0.21516
v 1.17612 -1.786 -5.61874
vn 0.475398 0.856179 -0.202371
v 1.18322 -1.79012 -5.61749
vn 0.559297 0.807453 -0.187633
v 1.18987 -1.79491 -5.61609
vn 0.63781 0.750951 -0.171088
v 1.196 -1.80031 -5.61455
vn 0.710181 0.687216 -0.152895
v 1.20155 -1.80626 -5.61288
vn 0.775712 0.616863 -0.13323
v 1.20646 -1.81272 -5.61111
vn 0.833773 0.54057 -0.112282
v 1.2107 -1.81962 -5.60924
vn 0.883804 0.459071 -0.090252
v 1.21421 -1.8269 -5.6073
vn 0.925323 0.37315 -0.0673532
v 1.21698 -1.83448 -5.60531
vn 0.957931 0.283636 -0.0438059
v 1.21896 -1.84229 -5.60328
vn 0.981314 0.19139 -0.0198366
v 1.22014 -1.85026 -5.60123
vn 0.995246 0.0973013 0.0043237
v 1.2205 -1.8583 -5.59919
vn 0.999593 0.00227533 0.0284424
v 1.22006 -1.86635 -5.59717
vn 0.994313 -0.0927726 0.0522871
v 1.2188 -1.87432 -5.5952
vn 0.979458 -0.186927 0.0756283
v 1.21674 -1.88214 -5.59328
vn 0.95517 -0.279281 0.0982411
v 1.21391 -1.88973 -5.59145
vn 0.921684 -0.368946 0.119908
f 1 66 2 
f 1 65 66 
f 2 67 3 
f 2 66 67 
f 3 68 4 
f 3 67 68 
f 4 69 5 
f 4 68 69 
f 5 70 6 
f 5 69 70 
f 6 71 7 
f 6 70 71 
f 7 72 8 
f 7 71 72 
f 8 73 9 
f 8 72 73 
f 9 74 10 
f 9 73 74 
f 10 75 11 
f 10 74 75 
f 11 76 12 
f 11 75 76 
f 12 77 13 
f 12 76 77 
f 13 78 14 
f 13 77 78 
f 14 79 15 
f 14 78 79 
f 15 80 16 
f 15 79 80 
f 16 81 17 
f 16 80 81 
f 17 82 18 
f 17 81 82 
f 18 83 19 
f 18 82 83 
f 19 84 20 
f 19 83 84 
f 20 85 21 
f 20 84 85 
f 21 86 22 
f 21 85 86 
f 22 87 23 
f 22 86 87 
f 23 88 24 
f 23 87 88 
f 24 89 25 
f 24 88 89 
f 25 90 26 
f 25 89 90 
f 26 91 27 
f 26 90 91 
f 27 92 28 
f 27 91 92 
f 28 93 29 
f 28 92 93 
f 29 94 30 
f 29 93 94 
f 30 95 31 
f 30 94 95 
f 31 96 32 
f 31 95 96 
f 32 97 33 
f 32 96 97 
f 33 98 34 
f 33 97 98 
f 34 99 35 
f 34 98 99 
f 35 100 36 
f 35 99 100 
f 36 101 37 
f 36 100 101 
f 37 102 38 
f 37 101 102 
f 38 103 39 
f 38 102 103 
f 39 104 40 
f 39 103 104 
f 40 105 41 
f 40 104 105 
f 41 106 42 
f 41 105 106 
f 42 107 43 
f 42 106 107 
f 43 108 44 
f 43 107 108 
f 44 109 45 
f 44 108 109 
f 45 110 46 
f 45 109 110 
f 46 111 47 
f 46 110 111 
f 47 112 48 
f 47 111 112 
f 48 113 49 
f 48 112 113 
f 49 114 50 
f 49 113 114 
f 50 115 51 
f 50 114 115 
f 51 116 52 
f 51 115 116 
f 52 117 53 
f 52 116 117 
f 53 118 54 
f 53 117 118 
f 54 119 55 
f 54 118 119 
f 55 120 56 
f 55 119 120 
f 56 121 57 
f 56 120 121 
f 57 122 58 
f 57 121 122 
f 58 123 59 
f 58 122 123 
f 59 124 60 
f 59 123 124 
f 60 125 61 
f 60 124 125 
f 61 126 62 
f 61 125 126 
f 62 127 63 
f 62 126 127 
f 63 128 64 
f 63 127 128 
f 64 65 1 
f 64 128 65 
f 65 130 66 
f 65 129 130 
f 66 131 67 
f 66 130 131 
f 67 132 68 
f 67 131 132 
f 68 133 69 
f 68 132 133 
f 69 134 70 
f 69 133 134 
f 70 135 71 
f 70 134 135 
f 71 136 72 
f 71 135 136 
f 72 137 73 
f 72 136 137 
f 73 138 74 
f 73 137 138 
f 74 139 75 
f 74 138 139 
f 75 140 76 
f 75 139 140 
f 76 141 77 
f 76 140 141 
f 77 142 78 
f 77 141 142 
f 78 143 79 
f 78 142 143 
f 79 144 80 
f 79 143 144 
f 80 145 81 
f 80 144 145 
f 81 146 82 
f 81 145 146 
f 82 147 83 
f 82 146 147 
f 83 148 84 
f 83 147 148 
f 84 149 85 
f 84 148 149 
f 85 150 86 
f 85 149 150 
f 86 151 87 
f 86 150 151 
f 87 152 88 
f 87 151 152 
f 88 153 89 
f 88 152 153 
f 89 154 90 
f 89 153 154 
f 90 155 91 
f 90 154 155 
f 91 156 92 
f 91 155 156 
f 92 157 93 
f 92 156 157 
f 93 158 94 
f 93 157 158 
f 94 159 95 
f 94 158 159 
f 95 160 96 
f 95 159 160 
f 96 161 97 
f 96 160 161 
f 97 162 98 
f 97 161 162 
f 98 163 99 
f 98 162 163 
f 99 164 100 
f 99 163 164 
f 100 165 101 
f 100 164 165 
f 101 166 102 
f 101 165 166 
f 102 167 103 
f 102 166 167 
f 103 168 104 
f 103 167 168 
f 104 169 105 
f 104 168 169 
f 105 170 106 
f 105 169 170 
f 106 171 107 
f 106 170 171 
f 107 172 108 
f 107 171 172 
f 108 173 109 
f 108 172 173 
f 109 174 110 
f 109 173 174 
f 110 175 111 
f 110 174 175 
f 111 176 112 
f 111 175 176 
f 112 177 113 
f 112 176 177 
f 113 178 114 
f 113 177 178 
f 114 179 115 
f 114 178 179 
f 115 180 116 
f 115 179 180 
f 116 181 117 
f 116 180 181 
f 117 182 118 
f 117 181 182 
f 118 183 119 
f 118 182 183 
f 119 184 120 
f 119 183 184 
f 120 185 121 
f 120 184 185 
f 121 186 122 
f 121 185 186 
f 122 187 123 
f 122 186 187 
f 123 188 124 
f 123 187 188 
f 124 189 125 
f 124 188 189 
f 125 190 126 
f 125 189 190 
f 126 191 127 
f 126 190 191 
f 127 192 128 
f 127 191 192 
f 128 129 65 
f 128 192 129 
f 129 194 130 
f 129 193 194 
f 130 195 131 
f 130 194 195 
f 131 196 132 
f 131 195 196 
f 132 197 133 
f 132 196 197 
f 133 198 134 
f 133 197 198 
f 134 199 135 
f 134 198 199 
f 135 200 136 
f 135 199 200 
f 136 201 137 
f 136 200 201 
f 137 202 138 
f 137 201 202 
f 138 203 139 
f 138 202 203 
f 139 204 140 
f 139 203 204 
f 140 205 141 
f 140 204 205 
f 141 206 142 
f 141 205 206 
f 142 207 143 
f 142 206 207 
f 143 208 144 
f 143 207 208 
f 144 209 145 
f 144 208 209 
f 145 210 146 
f 145 209 210 
f 146 211 147 
f 146 210 211 
f 147 212 148 
f 147 211 212 
f 148 213 149 
f 148 212 213 
f 149 214 150 
f 149 213 214 
f 150 215 151 
f 150 214 215 
f 151 216 152 
f 151 215 216 
f 152 217 153 
f 152 216 217 
f 153 218 154 
f 153 217 218 
f 154 219 155 
f 154 218 219 
f 155 220 156 
f 155 219 220 
f 156 221 157 
f 156 220 221 
f 157 222 158 
f 157 221 222 
f 158 223 159 
f 158 222 223 
f 159 224 160 
f 159 223 224 
f 160 225 161 
f 160 224 225 
f 161 226 162 
f 161 225 226 
f 162 227 163 
f 162 226 227 
f 163 228 164 
f 163 227 228 
f 164 229 165 
f 164 228 229 
f 165 230 166 
f 165 229 230 
f 166 231 167 
f 166 230 231 
f 167 232 168 
f 167 231 232 
f 168 233 169 
f 168 232 233 
f 169 234 170 
f 169 233 234 
f 170 235 171 
f 170 234 235 
f 171 236 172 
f 171 235 236 
f 172 237 173 
f 172 236 237 
f 173 238 174 
f 173 237 238 
f 174 239 175 
f 174 238 239 
f 175 240 176 
f 175 239 240 
f 176 241 177 
f 176 240 241 
f 177 242 178 
f 177 241 242 
f 178 243 179 
f 178 242 243 
f 179 244 180 
f 179 243 244 
f 180 245 181 
f 180 244 245 
f 181 246 182 
f 181 245 246 
f 182 247 183 
f 182 246 247 
f 183 248 184 
f 183 247 248 
f 184 249 185 
f 184 248 249 
f 185 250 186 
f 185 249 250 
f 186 251 187 
f 186 250 251 
f 187 252 188 
f 187 251 252 
f 188 253 189 
f 188 252 253 
f 189 254 190 
f 189 253 254 
f 190 255 191 
f 190 254 255 
f 191 256 192 
f 191 255 256 
f 192 193 129 
f 192 256 193 
f 193 258 194 
f 193 257 258 
f 194 259 195 
f 194 258 259 
f 195 260 196 
f 195 259 260 
f 196 261 197 
f 196 260 261 
f 197 262 198 
f 197 261 262 
f 198 263 199 
f 198 262 263 
f 199 264 200 
f 199 263 264 
f 200 265 201 
f 200 264 265 
f 201 266 202 
f 201 265 266 
f 202 267 203 
f 202 266 267 
f 203 268 204 
f 203 267 268 
f 204 269 205 
f 204 268 269 
f 205 270 206 
f 205 269 270 
f 206 271 207 
f 206 270 271 
f 207 272 208 
f 207 271 272 
f 208 273 209 
f 208 272 273 
f 209 274 210 
f 209 273 274 
f 210 275 211 
f 210 274 275 
f 211 276 212 
f 211 275 276 
f 212 277 213 
f 212 276 277 
f 213 278 214 
f 213 277 278 
f 214 279 215 
f 214 278 279 
f 215 280 216 
f 215 279 280 
f 216 281 217 
f 216 280 281 
f 217 282 218 
f 217 281 282 
f 218 283 219 
f 218 282 283 
f 219 284 220 
f 219 283 284 
f 220 285 221 
f 220 284 285 
f 221 286 222 
f 221 285 286 
f 222 287 223 
f 222 286 287 
f 223 288 224 
f 223 287 288 
f 224 289 225 
f 224 288 289 
f 225 290 226 
f 225 289 290 
f 226 291 227 
f 226 290 291 
f 227 292 228 
f 227 291 292 
f 228 293 229 
f 228 292 293 
f 229 294 230 
f 229 293 294 
f 230 295 231 
f 230 294 295 
f 231 296 232 
f 231 295 296 
f 232 297 233 
f 232 296 297 
f 233 298 234 
f 233 297 298 
f 234 299 235 
f 234 298 299 
f 235 300 236 
f 235 299 300 
f 236 301 237 
f 236 300 301 
f 237 302 238 
f 237 301 302 
f 238 303 239 
f 238 302 303 
f 239 304 240 
f 239 303 304 
f 240 305 241 
f 240 304 305 
f 241 306 242 
f 241 305 306 
f 242 307 243 
f 242 306 307 
f 243 308 244 
f 243 307 308 
f 244 309 245 
f 244 308 309 
f 245 310 246 
f 245 309 310 
f 246 311 247 
f 246 310 311 
f 247 312 248 
f 247 311 312 
f 248 313 249 
f 248 312 313 
f 249 314 250 
f 249 313 314 
f 250 315 251 
f 250 314 315 
f 251 316 252 
f 251 315 316 
f 252 317 253 
f 252 316 317 
f 253 318 254 
f 253 317 318 
f 254 319 255 
f 254 318 319 
f 255 320 256 
f 255 319 320 
f 256 257 193 
f 256 320 257 
f 257 322 258 
f 257 321 322 
f 258 323 259 
f 258 322 323 
f 259 324 260 
f 259 323 324 
f 260 325 261 
f 260 324 325 
f 261 326 262 
f 261 325 326 
f 262 327 263 
f 262 326 327 
f 263 328 264 
f 263 327 328 
f 264 329 265 
f 264 328 329 
f 265 330 266 
f 265 329 330 
f 266 331 267 
f 266 330 331 
f 267 332 268 
f 267 331 332 
f 268 333 269 
f 268 332 333 
f 269 334 270 
f 269 333 334 
f 270 335 271 
f 270 334 335 
f 271 336 272 
f 271 335 336 
f 272 337 273 
f 272 336 337 
f 273 338 274 
f 273 337 338 
f 274 339 275 
f 274 338 339 
f 275 340 276 
f 275 339 340 
f 276 341 277 
f 276 340 341 
f 277 342 278 
f 277 341 342 
f 278 343 279 
f 278 342 343 
f 279 344 280 
f 279 343 344 
f 280 345 281 
f 280 344 345 
f 281 346 282 
f 281 345 346 
f 282 347 283 
f 282 346 347 
f 283 348 284 
f 283 347 348 
f 284 349 285 
f 284 348 349 
f 285 350 286 
f 285 349 350 
f 286 351 287 
f 286 350 351 
f 287 352 288 
f 287 351 352 
f 288 353 289 
f 288 352 353 
f 289 354 290 
f 289 353 354 
f 290 355 291 
f 290 354 355 
f 291 356 292 
f 291 355 356 
f 292 357 293 
f 292 356 357 
f 293 358 294 
f 293 357 358 
f 294 359 295 
f 294 358 359 
f 295 360 296 
f 295 359 360 
f 296 361 297 
f 296 360 361 
f 297 362 298 
f 297 361 362 
f 298 363 299 
f 298 362 363 
f 299 364 300 
f 299 363 364 
f 300 365 301 
f 300 364 365 
f 301 366 302 
f 301 365 366 
f 302 367 303 
f 302 366 367 
f 303 368 304 
f 303 367 368 
f 304 369 305 
f 304 368 369 
f 305 370 306 
f 305 369 370 
f 306 371 307 
f 306 370 371 
f 307 372 308 
f 307 371 372 
f 308 373 309 
f 308 372 373 
f 309 374 310 
f 309 373 374 
f 310 375 311 
f 310 374 375 
f 311 376 312 
f 311 375 376 
f 312 377 313 
f 312 376 377 
f 313 378 314 
f 313 377 378 
f 314 379 315 
f 314 378 379 
f 315 380 316 
f 315 379 380 
f 316 381 317 
f 316 380 381 
f 317 382 318 
f 317 381 382 
f 318 383 319 
f 318 382 383 
f 319 384 320 
f 319 383 384 
f 320 321 257 
f 320 384 321 
f 321 386 322 
f 321 385 386 
f 322 387 323 
f 322 386 387 
f 323 388 324 
f 323 387 388 
f 324 389 325 
f 324 388 389 
f 325 390 326 
f 325 389 390 
f 326 391 327 
f 326 390 391 
f 327 392 328 
f 327 391 392 
f 328 393 329 
f 328 392 393 
f 329 394 330 
f 329 393 394 
f 330 395 331 
f 330 394 395 
f 331 396 332 
f 331 395 396 
f 332 397 333 
f 332 396 397 
f 333 398 334 
f 333 397 398 
f 334 399 335 
f 334 398 399 
f 335 400 336 
f 335 399 400 
f 336 401 337 
f 336 400 401 
f 337 402 338 
f 337 401 402 
f 338 403 339 
f 338 402 403 
f 339 404 340 
f 339 403 404 
f 340 405 341 
f 340 404 405 
f 341 406 342 
f 341 405 406 
f 342 407 343 
f 342 406 407 
f 343 408 344 
f 343 407 408 
f 344 409 345 
f 344 408 409 
f 345 410 346 
f 345 409 410 
f 346 411 347 
f 346 410 411 
f 347 412 348 
f 347 411 412 
f 348 413 349 
f 348 412 413 
f 349 414 350 
f 349 413 414 
f 350 415 351 
f 350 414 415 
f 351 416 352 
f 351 415 416 
f 352 417 353 
f 352 416 417 
f 353 418 354 
f 353 417 418 
f 354 419 355 
f 354 418 419 
f 355 420 356 
f 355 419 420 
f 356 421 357 
f 356 420 421 
f 357 422 358 
f 357 421 422 
f 358 423 359 
f 358 422 423 
f 359 424 360 
f 359 423 424 
f 360 425 361 
f 360 424 425 
f 361 426 362 
f 361 425 426 
f 362 427 363 
f 362 426 427 
f 363 428 364 
f 363 427 428 
f 364 429 365 
f 364 428 429 
f 365 430 366 
f 365 429 430 
f 366 431 367 
f 366 430 431 
f 367 432 368 
f 367 431 432 
f 368 433 369 
f 368 432 433 
f 369 434 370 
f 369 433 434 
f 370 435 371 
f 370 434 435 
f 371 436 372 
f 371 435 436 
f 372 437 373 
f 372 436 437 
f 373 438 374 
f 373 437 438 
f 374 439 375 
f 374 438 439 
f 375 440 376 
f 375 439 440 
f 376 441 377 
f 376 440 441 
f 377 442 378 
f 377 441 442 
f 378 443 379 
f 378 442 443 
f 379 444 380 
f 379 443 444 
f 380 445 381 
f 380 444 445 
f 381 446 382 
f 381 445 446 
f 382 447 383 
f 382 446 447 
f 383 448 384 
f 383 447 448 
f 384 385 321 
f 384 448 385 
f 385 450 386 
f 385 449 450 
f 386 451 387 
f 386 450 451 
f 387 452 388 
f 387 451 452 
f 388 453 389 
f 388 452 453 
f 389 454 390 
f 389 453 454 
f 390 455 391 
f 390 454 455 
f 391 456 392 
f 391 455 456 
f 392 457 393 
f 392 456 457 
f 393 458 394 
f 393 457 458 
f 394 459 395 
f 394 458 459 
f 395 460 396 
f 395 459 460 
f 396 461 397 
f 396 460 461 
f 397 462 398 
f 397 461 462 
f 398 463 399 
f 398 462 463 
f 399 464 400 
f 399 463 464 
f 400 465 401 
f 400 464 465 
f 401 466 402 
f 401 465 466 
f 402 467 403 
f 402 466 467 
f 403 468 404 
f 403 467 468 
f 404 469 405 
f 404 468 469 
f 405 470 406 
f 405 469 470 
f 406 471 407 
f 406 470 471 
f 407 472 408 
f 407 471 472 
f 408 473 409 
f 408 472 473 
f 409 474 410 
f 409 473 474 
f 410 475 411 
f 410 474 475 
f 411 476 412 
f 411 475 476 
f 412 477 413 
f 412 476 477 
f 413 478 414 
f 413 477 478 
f 414 479 415 
f 414 478 479 
f 415 480 416 
f 415 479 480 
f 416 481 417 
f 416 480 481 
f 417 482 418 
f 417 481 482 
f 418 483 419 
f 418 482 483 
f 419 484 420 
f 419 483 484 
f 420 485 421 
f 420 484 485 
f 421 486 422 
f 421 485 486 
f 422 487 423 
f 422 486 487 
f 423 488 424 
f 423 487 488 
f 424 489 425 
f 424 488 489 
f 425 490 426 
f 425 489 490 
f 426 491 427 
f 426 490 491 
f 427 492 428 
f 427 491 492 
f 428 493 429 
f 428 492 493 
f 429 494 430 
f 429 493 494 
f 430 495 431 
f 430 494 495 
f 431 496 432 
f 431 495 496 
f 432 497 433 
f 432 496 497 
f 433 498 434 
f 433 497 498 
f 434 499 435 
f 434 498 499 
f 435 500 436 
f 435 499 500 
f 436 501 437 
f 436 500 501 
f 437 502 438 
f 437 501 502 
f 438 503 439 
f 438 502 503 
f 439 504 440 
f 439 503 504 
f 440 505 441 
f 440 504 505 
f 441 506 442 
f 441 505 506 
f 442 507 443 
f 442 506 507 
f 443 508 444 
f 443 507 508 
f 444 509 445 
f 444 508 509 
f 445 510 446 
f 445 509 510 
f 446 511 447 
f 446 510 511 
f 447 512 448 
f 447 511 512 
f 448 449 385 
f 448 512 449 
f 449 514 450 
f 449 513 514 
f 450 515 451 
f 450 514 515 
f 451 516 452 
f 451 515 516 
f 452 517 453 
f 452 516 517 
f 453 518 454 
f 453 517 518 
f 454 519 455 
f 454 518 519 
f 455 520 456 
f 455 519 520 
f 456 521 457 
f 456 520 521 
f 457 522 458 
f 457 521 522 
f 458 523 459 
f 458 522 523 
f 459 524 460 
f 459 523 524 
f 460 525 461 
f 460 524 525 
f 461 526 462 
f 461 525 526 
f 462 527 463 
f 462 526 527 
f 463 528 464 
f 463 527 528 
f 464 529 465 
f 464 528 529 
f 465 530 466 
f 465 529 530 
f 466 531 467 
f 466 530 531 
f 467 532 468 
f 467 531 532 
f 468 533 469 
f 468 532 533 
f 469 534 470 
f 469 533 534 
f 470 535 471 
f 470 534 535 
f 471 536 472 
f 471 535 536 
f 472 537 473 
f 472 536 537 
f 473 538 474 
f 473 537 538 
f 474 539 475 
f 474 538 539 
f 475 540 476 
f 475 539 540 
f 476 541 477 
f 476 540 541 
f 477 542 478 
f 477 541 542 
f 478 543 479 
f 478 542 543 
f 479 544 480 
f 479 543 544 
f 480 545 481 
f 480 544 545 
f 481 546 482 
f 481 545 546 
f 482 547 483 
f 482 546 547 
f 483 548 484 
f 483 547 548 
f 484 549 485 
f 484 548 549 
f 485 550 486 
f 485 549 550 
f 486 551 487 
f 486 550 551 
f 487 552 488 
f 487 551 552 
f 488 553 489 
f 488 552 553 
f 489 554 490 
f 489 553 554 
f 490 555 491 
f 490 554 555 
f 491 556 492 
f 491 555 556 
f 492 557 493 
f 492 556 557 
f 493 558 494 
f 493 557 558 
f 494 559 495 
f 494 558 559 
f 495 560 496 
f 495 559 560 
f 496 561 497 
f 496 560 561 
f 497 562 498 
f 497 561 562 
f 498 563 499 
f 498 562 563 
f 499 564 500 
f 499 563 564 
f 500 565 501 
f 500 564 565 
f 501 566 502 
f 501 565 566 
f 502 567 503 
f 502 566 567 
f 503 568 504 
f 503 567 568 
f 504 569 505 
f 504 568 569 
f 505 570 506 
f 505 569 570 
f 506 571 507 
f 506 570 571 
f 507 572 508 
f 507 571 572 
f 508 573 509 
f 508 572 573 
f 509 574 510 
f 509 573 574 
f 510 575 511 
f 510 574 575 
f 511 576 512 
f 511 575 576 
f 512 513 449 
f 512 576 513 
f 513 578 514 
f 513 577 578 
f 514 579 515 
f 514 578 579 
f 515 580 516 
f 515 579 580 
f 516 581 517 
f 516 580 581 
f 517 582 518 
f 517 581 582 
f 518 583 519 
f 518 582 583 
f 519 584 520 
f 519 583 584 
f 520 585 521 
f 520 584 585 
f 521 586 522 
f 521 585 586 
f 522 587 523 
f 522 586 587 
f 523 588 524 
f 523 587 588 
f 524 589 525 
f 524 588 589 
f 525 590 526 
f 525 589 590 
f 526 591 527 
f 526 590 591 
f 527 592 528 
f 527 591 592 
f 528 593 529 
f 528 592 593 
f 529 594 530 
f 529 593 594 
f 530 595 531 
f 530 594 595 
f 531 596 532 
f 531 595 596 
f 532 597 533 
f 532 596 597 
f 533 598 534 
f 533 597 598 
f 534 599 535 
f 534 598 599 
f 535 600 536 
f 535 599 600 
f 536 601 537 
f 536 600 601 
f 537 602 538 
f 537 601 602 
f 538 603 539 
f 538 602 603 
f 539 604 540 
f 539 603 604 
f 540 605 541 
f 540 604 605 
f 541 606 542 
f 541 605 606 
f 542 607 543 
f 542 606 607 
f 543 608 544 
f 543 607 608 
f 544 609 545 
f 544 608 609 
f 545 610 546 
f 545 609 610 
f 546 611 547 
f 546 610 611 
f 547 612 548 
f 547 611 612 
f 548 613 549 
f 548 612 613 
f 549 614 550 
f 549 613 614 
f 550 615 551 
f 550 614 615 
f 551 616 552 
f 551 615 616 
f 552 617 553 
f 552 616 617 
f 553 618 554 
f 553 617 618 
f 554 619 555 
f 554 618 619 
f 555 620 556 
f 555 619 620 
f 556 621 557 
f 556 620 621 
f 557 622 558 
f 557 621 622 
f 558 623 559 
f 558 622 623 
f 559 624 560 
f 559 623 624 
f 560 625 561 
f 560 624 625 
f 561 626 562 
f 561 625 626 
f 562 627 563 
f 562 626 627 
f 563 628 564 
f 563 627 628 
f 564 629 565 
f 564 628 629 
f 565 630 566 
f 565 629 630 
f 566 631 567 
f 566 630 631 
f 567 632 568 
f 567 631 632 
f 568 633 569 
f 568 632 633 
f 569 634 570 
f 569 633 634 
f 570 635 571 
f 570 634 635 
f 571 636 572 
f 571 635 636 
f 572 637 573 
f 572 636 637 
f 573 638 574 
f 573 637 638 
f 574 639 575 
f 574 638 639 
f 575 640 576 
f 575 639 640 
f 576 577 513 
f 576 640 577 
