# Branch
v -2.44247 -7.28882 -27.4462
vn -0.0960888 -0.985426 -0.140364
v -2.44252 -7.29299 -27.4011
vn -0.0961882 -0.994449 -0.042644
v -2.44214 -7.29273 -27.3558
vn -0.0953613 -0.993895 0.0554863
v -2.44133 -7.28806 -27.3107
vn -0.093616 -0.983769 0.153082
v -2.44011 -7.27901 -27.2663
vn -0.0909691 -0.964169 0.249204
v -2.43848 -7.26567 -27.223
vn -0.0874461 -0.935283 0.342926
v -2.43647 -7.24817 -27.1813
vn -0.083081 -0.897391 0.433345
v -2.43408 -7.22668 -27.1414
vn -0.0779157 -0.850855 0.519591
v -2.43135 -7.20141 -27.1039
vn -0.0720001 -0.796126 0.600832
v -2.4283 -7.1726 -27.0691
vn -0.0653911 -0.733729 0.676288
v -2.42496 -7.14052 -27.0373
vn -0.0581523 -0.664266 0.74523
v -2.42135 -7.10549 -27.0087
vn -0.0503535 -0.588406 0.806996
v -2.41753 -7.06785 -26.9838
vn -0.0420697 -0.50688 0.86099
v -2.41352 -7.02795 -26.9627
vn -0.0333808 -0.420471 0.906692
v -2.40936 -6.98618 -26.9456
vn -0.0243705 -0.330014 0.943661
v -2.40509 -6.94294 -26.9327
vn -0.0151254 -0.236378 0.971543
v -2.40075 -6.89865 -26.9242
vn -0.00573465 -0.140466 0.990069
v -2.39639 -6.85374 -26.92
vn 0.00371131 -0.0432006 0.99906
v -2.39204 -6.80863 -26.9203
vn 0.0131215 0.0544805 0.998429
v -2.38776 -6.76377 -26.9251
vn 0.0224054 0.151637 0.988182
v -2.38357 -6.71958 -26.9342
vn 0.0314735 0.247333 0.968419
v -2.37952 -6.67649 -26.9476
vn 0.0402385 0.340647 0.93933
v -2.37565 -6.63491 -26.9652
vn 0.0486159 0.430681 0.901194
v -2.372 -6.59526 -26.9869
vn 0.0565252 0.516566 0.854379
v -2.3686 -6.55789 -27.0123
vn 0.0638901 0.597477 0.799336
v -2.36548 -6.52319 -27.0412
vn 0.0706397 0.672634 0.736596
v -2.36268 -6.49148 -27.0735
vn 0.0767089 0.741313 0.666761
v -2.36022 -6.46306 -27.1087
vn 0.0820395 0.802853 0.590505
v -2.35812 -6.43821 -27.1465
vn 0.08658 0.856661 0.508562
v -2.35641 -6.41718 -27.1866
vn 0.0902866 0.902219 0.421721
v -2.3551 -6.40015 -27.2286
vn 0.0931237 0.939088 0.330819
v -2.35421 -6.3873 -27.2721
vn 0.0950641 0.966913 0.236731
v -2.35373 -6.37875 -27.3166
vn 0.0960888 0.985426 0.140364
v -2.35369 -6.37459 -27.3617
vn 0.0961882 0.994449 0.042644
v -2.35407 -6.37484 -27.407
vn 0.0953613 0.993895 -0.0554863
v -2.35487 -6.37952 -27.4521
vn 0.093616 0.983769 -0.153082
v -2.3561 -6.38857 -27.4964
vn 0.0909691 0.964169 -0.249204
v -2.35772 -6.40191 -27.5397
vn 0.0874461 0.935283 -0.342926
v -2.35974 -6.4194 -27.5815
vn 0.083081 0.897391 -0.433345
v -2.36212 -6.44089 -27.6213
vn 0.0779157 0.850855 -0.519591
v -2.36486 -6.46617 -27.6588
vn 0.0720001 0.796126 -0.600832
v -2.36791 -6.49498 -27.6937
vn 0.0653911 0.733729 -0.676288
v -2.37125 -6.52705 -27.7255
vn 0.0581523 0.664266 -0.74523
v -2.37485 -6.56208 -27.754
vn 0.0503535 0.588406 -0.806996
v -2.37868 -6.59973 -27.7789
vn 0.0420697 0.50688 -0.86099
v -2.38269 -6.63963 -27.8001
vn 0.0333808 0.420471 -0.906692
v -2.38685 -6.6814 -27.8171
vn 0.0243705 0.330014 -0.943661
v -2.39112 -6.72464 -27.83
vn 0.0151254 0.236378 -0.971543
v -2.39546 -6.76893 -27.8386
vn 0.00573465 0.140466 -0.990069
v -2.39982 -6.81384 -27.8427
vn -0.00371131 0.0432006 -0.99906
v -2.40416 -6.85894 -27.8424
vn -0.0131215 -0.0544805 -0.998429
v -2.40845 -6.90381 -27.8377
vn -0.0224054 -0.151637 -0.988182
v -2.41264 -6.948 -27.8286
vn -0.0314735 -0.247333 -0.968419
v -2.41668 -6.99109 -27.8151
vn -0.0402385 -0.340647 -0.93933
v -2.42055 -7.03266 -27.7975
vn -0.0486159 -0.430681 -0.901194
v -2.4242 -7.07232 -27.7759
vn -0.0565252 -0.516566 -0.854379
v -2.42761 -7.10968 -27.7505
vn -0.0638901 -0.597477 -0.799336
v -2.43072 -7.14439 -27.7215
vn -0.0706397 -0.672634 -0.736596
v -2.43352 -7.1761 -27.6893
vn -0.0767089 -0.741313 -0.666761
v -2.43599 -7.20452 -27.654
vn -0.0820395 -0.802853 -0.590505
v -2.43808 -7.22936 -27.6162
vn -0.08658 -0.856661 -0.508562
v -2.43979 -7.2504 -27.5761
vn -0.0902866 -0.902219 -0.421721
v -2.4411 -7.26742 -27.5341
vn -0.0931237 -0.939088 -0.330819
v -2.442 -7.28027 -27.4907
vn -0.0950641 -0.966913 -0.236731
v -0.769621 -7.42912 -27.4564
vn -0.065722 -0.987892 -0.140537
v -0.769735 -7.43332 -27.4108
vn -0.0659677 -0.996903 -0.042817
v -0.769553 -7.43305 -27.3651
vn -0.065578 -0.996313 0.0553158
v -0.769077 -7.4283 -27.3196
vn -0.0645567 -0.986128 0.152916
v -0.768311 -7.41912 -27.2748
vn -0.0629138 -0.966447 0.249043
v -0.767263 -7.40561 -27.231
vn -0.060665 -0.937458 0.342772
v -0.765942 -7.38788 -27.1889
vn -0.0578319 -0.89944 0.4332
v -0.764361 -7.36611 -27.1487
vn -0.0544418 -0.852761 0.519456
v -0.762536 -7.34052 -27.1108
vn -0.0505275 -0.797869 0.600709
v -0.760484 -7.31134 -27.0756
vn -0.0461266 -0.735293 0.676178
v -0.758225 -7.27886 -27.0434
vn -0.0412814 -0.665636 0.745134
v -0.75578 -7.24339 -27.0146
vn -0.0360387 -0.589569 0.806914
v -0.753174 -7.20528 -26.9894
vn -0.0304489 -0.507823 0.860923
v -0.750431 -7.16488 -26.9681
vn -0.0245658 -0.421187 0.906641
v -0.747577 -7.1226 -26.9509
vn -0.0184462 -0.330495 0.943628
v -0.744641 -7.07882 -26.9379
vn -0.0121489 -0.23662 0.971526
v -0.74165 -7.03399 -26.9292
vn -0.00573465 -0.140466 0.990069
v -0.738633 -6.98852 -26.925
vn 0.000734845 -0.042959 0.999077
v -0.73562 -6.94287 -26.9253
vn 0.00719727 0.0549614 0.998463
v -0.732639 -6.89746 -26.9301
vn 0.0135904 0.152353 0.988233
v -0.729719 -6.85273 -26.9393
vn 0.0198526 0.248276 0.968486
v -0.726889 -6.80912 -26.9529
vn 0.0259236 0.341809 0.939412
v -0.724174 -6.76704 -26.9706
vn 0.031745 0.43205 0.901291
v -0.721602 -6.7269 -26.9924
vn 0.0372607 0.51813 0.85449
v -0.719198 -6.68909 -27.0181
vn 0.0424175 0.599221 0.799459
v -0.716984 -6.65397 -27.0474
vn 0.0471658 0.67454 0.73673
v -0.714982 -6.62188 -27.0799
vn 0.0514599 0.743363 0.666905
v -0.713211 -6.59313 -27.1155
vn 0.0552584 0.805028 0.590658
v -0.711688 -6.56799 -27.1537
vn 0.0585247 0.858939 0.508723
v -0.710427 -6.54671 -27.1942
vn 0.0612274 0.904578 0.421888
v -0.709442 -6.5295 -27.2365
vn 0.0633404 0.941506 0.33099
v -0.708741 -6.5165 -27.2804
vn 0.0648435 0.969367 0.236904
v -0.708332 -6.50787 -27.3253
vn 0.065722 0.987892 0.140537
v -0.708217 -6.50367 -27.3709
vn 0.0659677 0.996903 0.042817
v -0.708399 -6.50394 -27.4167
vn 0.065578 0.996313 -0.0553158
v -0.708875 -6.50869 -27.4622
vn 0.0645567 0.986128 -0.152916
v -0.709641 -6.51787 -27.507
vn 0.0629138 0.966447 -0.249043
v -0.71069 -6.53138 -27.5507
vn 0.060665 0.937458 -0.342772
v -0.712011 -6.54911 -27.5929
vn 0.0578319 0.89944 -0.4332
v -0.713591 -6.57088 -27.6331
vn 0.0544418 0.852761 -0.519456
v -0.715417 -6.59647 -27.671
vn 0.0505275 0.797869 -0.600709
v -0.717469 -6.62565 -27.7062
vn 0.0461266 0.735293 -0.676178
v -0.719728 -6.65813 -27.7383
vn 0.0412814 0.665636 -0.745134
v -0.722172 -6.69359 -27.7671
vn 0.0360387 0.589569 -0.806914
v -0.724779 -6.73171 -27.7923
vn 0.0304489 0.507823 -0.860923
v -0.727522 -6.77211 -27.8136
vn 0.0245658 0.421187 -0.906641
v -0.730375 -6.81439 -27.8309
vn 0.0184462 0.330495 -0.943628
v -0.733311 -6.85817 -27.8439
vn 0.0121489 0.23662 -0.971526
v -0.736302 -6.903 -27.8525
vn 0.00573465 0.140466 -0.990069
v -0.739319 -6.94846 -27.8567
vn -0.000734845 0.042959 -0.999077
v -0.742332 -6.99412 -27.8564
vn -0.00719727 -0.0549614 -0.998463
v -0.745313 -7.03953 -27.8517
vn -0.0135904 -0.152353 -0.988233
v -0.748233 -7.08426 -27.8425
vn -0.0198526 -0.248276 -0.968486
v -0.751064 -7.12787 -27.8289
vn -0.0259236 -0.341809 -0.939412
v -0.753778 -7.16995 -27.8111
vn -0.031745 -0.43205 -0.901291
v -0.75635 -7.21008 -27.7893
vn -0.0372607 -0.51813 -0.85449
v -0.758754 -7.24789 -27.7636
vn -0.0424175 -0.599221 -0.799459
v -0.760968 -7.28301 -27.7344
vn -0.0471658 -0.67454 -0.73673
v -0.76297 -7.3151 -27.7018
vn -0.0514599 -0.743363 -0.666905
v -0.764742 -7.34386 -27.6663
vn -0.0552584 -0.805028 -0.590658
v -0.766265 -7.36899 -27.6281
vn -0.0585247 -0.858939 -0.508723
v -0.767525 -7.39027 -27.5876
vn -0.0612274 -0.904578 -0.421888
v -0.76851 -7.40749 -27.5452
vn -0.0633404 -0.941506 -0.33099
v -0.769211 -7.42048 -27.5013
vn -0.0648435 -0.969367 -0.236904
v 0.906093 -7.51883 -27.4594
vn -0.0352652 -0.989441 -0.140581
v 0.905909 -7.52307 -27.4134
vn -0.0356575 -0.998445 -0.0428602
v 0.905886 -7.52278 -27.3672
vn -0.0357064 -0.997833 0.0552732
v 0.906025 -7.51797 -27.3213
vn -0.0354114 -0.987611 0.152874
v 0.906324 -7.50868 -27.276
vn -0.0347754 -0.967878 0.249003
v 0.906781 -7.495 -27.2319
vn -0.0338045 -0.938824 0.342734
v 0.907391 -7.47707 -27.1893
vn -0.032508 -0.900729 0.433164
v 0.908149 -7.45505 -27.1487
vn -0.0308984 -0.853959 0.519423
v 0.909047 -7.42916 -27.1105
vn -0.0289913 -0.798965 0.600679
v 0.910076 -7.39965 -27.0749
vn -0.026805 -0.736276 0.67615
v 0.911227 -7.3668 -27.0425
vn -0.0243605 -0.666497 0.74511
v 0.912488 -7.33093 -27.0134
vn -0.0216814 -0.590299 0.806893
v 0.913848 -7.29238 -26.9879
vn -0.0187936 -0.508416 0.860906
v 0.915293 -7.25152 -26.9664
vn -0.0157247 -0.421637 0.906628
v 0.916809 -7.20876 -26.949
vn -0.0125044 -0.330797 0.943619
v 0.918381 -7.16449 -26.9359
vn -0.00916364 -0.236771 0.971522
v 0.919996 -7.11915 -26.9271
vn -0.00573465 -0.140466 0.990069
v 0.921636 -7.07318 -26.9229
vn -0.00225044 -0.0428071 0.999081
v 0.923287 -7.02701 -26.9232
vn 0.00125544 0.0552637 0.998471
v 0.924931 -6.98109 -26.928
vn 0.00474924 0.152802 0.988245
v 0.926555 -6.93586 -26.9373
vn 0.00819729 0.248869 0.968502
v 0.928141 -6.89176 -26.951
vn 0.0115664 0.34254 0.939432
v 0.929674 -6.84922 -26.9689
vn 0.0148241 0.432911 0.901315
v 0.931141 -6.80863 -26.991
vn 0.0179391 0.519113 0.854517
v 0.932526 -6.77041 -27.0169
vn 0.0208813 0.600316 0.79949
v 0.933817 -6.7349 -27.0464
vn 0.0236224 0.675738 0.736764
v 0.935 -6.70246 -27.0793
vn 0.026136 0.744652 0.666942
v 0.936065 -6.67339 -27.1152
vn 0.0283979 0.806394 0.590697
v 0.937001 -6.64798 -27.1537
vn 0.0303863 0.86037 0.508763
v 0.937799 -6.62647 -27.1946
vn 0.0320821 0.906061 0.421929
v 0.938452 -6.60906 -27.2374
vn 0.0334689 0.943026 0.331032
v 0.938953 -6.59594 -27.2817
vn 0.0345333 0.970908 0.236948
v 0.939298 -6.58721 -27.3271
vn 0.0352652 0.989441 0.140581
v 0.939482 -6.58297 -27.3731
vn 0.0356575 0.998445 0.0428602
v 0.939505 -6.58326 -27.4193
vn 0.0357064 0.997833 -0.0552732
v 0.939367 -6.58807 -27.4652
vn 0.0354114 0.987611 -0.152874
v 0.939067 -6.59736 -27.5105
vn 0.0347754 0.967878 -0.249003
v 0.93861 -6.61104 -27.5546
vn 0.0338045 0.938824 -0.342734
v 0.938 -6.62898 -27.5972
vn 0.032508 0.900729 -0.433164
v 0.937242 -6.651 -27.6378
vn 0.0308984 0.853959 -0.519423
v 0.936344 -6.67689 -27.676
vn 0.0289913 0.798965 -0.600679
v 0.935315 -6.7064 -27.7116
vn 0.026805 0.736276 -0.67615
v 0.934164 -6.73925 -27.744
vn 0.0243605 0.666497 -0.74511
v 0.932903 -6.77512 -27.7731
vn 0.0216814 0.590299 -0.806893
v 0.931543 -6.81367 -27.7985
vn 0.0187936 0.508416 -0.860906
v 0.930098 -6.85452 -27.8201
vn 0.0157247 0.421637 -0.906628
v 0.928582 -6.89729 -27.8375
vn 0.0125044 0.330797 -0.943619
v 0.92701 -6.94156 -27.8506
vn 0.00916364 0.236771 -0.971522
v 0.925395 -6.98689 -27.8593
vn 0.00573465 0.140466 -0.990069
v 0.923755 -7.03287 -27.8636
vn 0.00225044 0.0428071 -0.999081
v 0.922105 -7.07904 -27.8633
vn -0.00125544 -0.0552637 -0.998471
v 0.92046 -7.12496 -27.8585
vn -0.00474924 -0.152802 -0.988245
v 0.918836 -7.17019 -27.8492
vn -0.00819729 -0.248869 -0.968502
v 0.91725 -7.21428 -27.8355
vn -0.0115664 -0.34254 -0.939432
v 0.915717 -7.25683 -27.8176
vn -0.0148241 -0.432911 -0.901315
v 0.91425 -7.29741 -27.7955
vn -0.0179391 -0.519113 -0.854517
v 0.912865 -7.33564 -27.7696
vn -0.0208813 -0.600316 -0.79949
v 0.911575 -7.37115 -27.7401
vn -0.0236224 -0.675738 -0.736764
v 0.910391 -7.40359 -27.7072
vn -0.026136 -0.744652 -0.666942
v 0.909326 -7.43266 -27.6713
vn -0.0283979 -0.806394 -0.590697
v 0.90839 -7.45807 -27.6328
vn -0.0303863 -0.86037 -0.508763
v 0.907592 -7.47958 -27.5919
vn -0.0320821 -0.906061 -0.421929
v 0.906939 -7.49698 -27.5491
vn -0.0334689 -0.943026 -0.331032
v 0.906438 -7.51011 -27.5048
vn -0.0345333 -0.970908 -0.236948
v 2.58463 -7.55795 -27.4553
vn -0.00480332 -0.99007 -0.140494
v 2.58437 -7.56222 -27.4088
vn -0.00534229 -0.999071 -0.0427734
v 2.58414 -7.56193 -27.3622
vn -0.0058298 -0.99845 0.0553588
v 2.58394 -7.55706 -27.3158
vn -0.00626118 -0.988213 0.152958
v 2.58376 -7.54767 -27.2701
vn -0.00663225 -0.968459 0.249084
v 2.58361 -7.53385 -27.2255
vn -0.00693945 -0.939379 0.342811
v 2.5835 -7.51573 -27.1826
vn -0.00717982 -0.901252 0.433237
v 2.58342 -7.49348 -27.1416
vn -0.00735105 -0.854445 0.51949
v 2.58337 -7.46733 -27.103
vn -0.00745148 -0.799409 0.60074
v 2.58336 -7.43751 -27.0671
vn -0.00748014 -0.736675 0.676205
v 2.58338 -7.40432 -27.0343
vn -0.00743677 -0.666846 0.745158
v 2.58343 -7.36808 -27.0049
vn -0.00732178 -0.590595 0.806935
v 2.58352 -7.32913 -26.9793
vn -0.00713628 -0.508657 0.86094
v 2.58364 -7.28786 -26.9576
vn -0.00688205 -0.421819 0.906654
v 2.58379 -7.24466 -26.94
vn -0.00656155 -0.33092 0.943636
v 2.58398 -7.19994 -26.9267
vn -0.00617785 -0.236833 0.971531
v 2.58419 -7.15414 -26.9179
vn -0.00573465 -0.140466 0.990069
v 2.58442 -7.10769 -26.9136
vn -0.00523623 -0.0427455 0.999072
v 2.58468 -7.06105 -26.9139
vn -0.00468738 0.0553864 0.998454
v 2.58497 -7.01466 -26.9188
vn -0.00409339 0.152985 0.98822
v 2.58527 -6.96898 -26.9282
vn -0.00345998 0.24911 0.968469
v 2.58558 -6.92443 -26.942
vn -0.00279324 0.342836 0.939391
v 2.58591 -6.88145 -26.9601
vn -0.00209961 0.43326 0.901266
v 2.58625 -6.84046 -26.9824
vn -0.00138575 0.519512 0.854462
v 2.5866 -6.80184 -27.0085
vn -0.00065855 0.600761 0.799428
v 2.58695 -6.76597 -27.0383
vn 7.4993e-05 0.676224 0.736696
v 2.5873 -6.7332 -27.0715
vn 0.000807814 0.745175 0.666869
v 2.58764 -6.70384 -27.1078
vn 0.00153286 0.806949 0.59062
v 2.58798 -6.67817 -27.1467
vn 0.00224313 0.860951 0.508682
v 2.58831 -6.65645 -27.188
vn 0.00293181 0.906663 0.421846
v 2.58862 -6.63887 -27.2312
vn 0.00359225 0.943643 0.330947
v 2.58892 -6.62561 -27.2759
vn 0.0042181 0.971534 0.236861
v 2.58919 -6.6168 -27.3217
vn 0.00480332 0.99007 0.140494
v 2.58945 -6.61253 -27.3681
vn 0.00534229 0.999071 0.0427734
v 2.58968 -6.61282 -27.4148
vn 0.0058298 0.99845 -0.0553588
v 2.58989 -6.61769 -27.4612
vn 0.00626118 0.988213 -0.152958
v 2.59006 -6.62708 -27.5069
vn 0.00663225 0.968459 -0.249084
v 2.59021 -6.6409 -27.5514
vn 0.00693945 0.939379 -0.342811
v 2.59032 -6.65902 -27.5944
vn 0.00717982 0.901252 -0.433237
v 2.59041 -6.68127 -27.6354
vn 0.00735105 0.854445 -0.51949
v 2.59045 -6.70742 -27.674
vn 0.00745148 0.799409 -0.60074
v 2.59047 -6.73724 -27.7099
vn 0.00748014 0.736675 -0.676205
v 2.59045 -6.77043 -27.7426
vn 0.00743677 0.666846 -0.745158
v 2.59039 -6.80667 -27.772
vn 0.00732178 0.590595 -0.806935
v 2.5903 -6.84562 -27.7977
vn 0.00713628 0.508657 -0.86094
v 2.59018 -6.88689 -27.8194
vn 0.00688205 0.421819 -0.906654
v 2.59003 -6.93009 -27.837
vn 0.00656155 0.33092 -0.943636
v 2.58985 -6.97481 -27.8502
vn 0.00617785 0.236833 -0.971531
v 2.58964 -7.02061 -27.859
vn 0.00573465 0.140466 -0.990069
v 2.5894 -7.06706 -27.8633
vn 0.00523623 0.0427455 -0.999072
v 2.58914 -7.1137 -27.863
vn 0.00468738 -0.0553864 -0.998454
v 2.58886 -7.16009 -27.8582
vn 0.00409339 -0.152985 -0.98822
v 2.58856 -7.20577 -27.8488
vn 0.00345998 -0.24911 -0.968469
v 2.58824 -7.25032 -27.835
vn 0.00279324 -0.342836 -0.939391
v 2.58791 -7.2933 -27.8168
vn 0.00209961 -0.43326 -0.901266
v 2.58757 -7.33429 -27.7946
vn 0.00138575 -0.519512 -0.854462
v 2.58722 -7.37291 -27.7684
vn 0.00065855 -0.600761 -0.799428
v 2.58688 -7.40878 -27.7386
vn -7.4993e-05 -0.676224 -0.736696
v 2.58653 -7.44155 -27.7054
vn -0.000807814 -0.745175 -0.666869
v 2.58618 -7.47091 -27.6692
vn -0.00153286 -0.806949 -0.59062
v 2.58585 -7.49658 -27.6302
vn -0.00224313 -0.860951 -0.508682
v 2.58552 -7.5183 -27.589
vn -0.00293181 -0.906663 -0.421846
v 2.5852 -7.53588 -27.5458
vn -0.00359225 -0.943643 -0.330947
v 2.58491 -7.54914 -27.5011
vn -0.0042181 -0.971534 -0.236861
v 4.26595 -7.54645 -27.4439
vn 0.0255791 -0.989782 -0.140277
v 4.26562 -7.55076 -27.397
vn 0.0248938 -0.998784 -0.0425576
v 4.26517 -7.55047 -27.3499
vn 0.0239688 -0.998167 0.0555715
v 4.26462 -7.54556 -27.3031
vn 0.0228129 -0.987937 0.153165
v 4.26396 -7.53609 -27.257
vn 0.0214374 -0.968193 0.249284
v 4.2632 -7.52214 -27.212
vn 0.0198554 -0.939125 0.343002
v 4.26235 -7.50385 -27.1686
vn 0.0180822 -0.901012 0.433417
v 4.26141 -7.4814 -27.1272
vn 0.0161349 -0.854222 0.519658
v 4.26041 -7.45501 -27.0883
vn 0.0140321 -0.799206 0.600894
v 4.25933 -7.42492 -27.0521
vn 0.0117942 -0.736492 0.676343
v 4.2582 -7.39142 -27.019
vn 0.00944277 -0.666686 0.745279
v 4.25703 -7.35485 -26.9894
vn 0.00700037 -0.59046 0.807037
v 4.25583 -7.31555 -26.9635
vn 0.00449055 -0.508546 0.861023
v 4.2546 -7.2739 -26.9415
vn 0.00193749 -0.421736 0.906717
v 4.25337 -7.2303 -26.9238
vn -0.000634238 -0.330864 0.943678
v 4.25214 -7.18517 -26.9104
vn -0.00319985 -0.236805 0.971552
v 4.25092 -7.13894 -26.9015
vn -0.00573465 -0.140466 0.990069
v 4.24973 -7.09207 -26.8972
vn -0.00821423 -0.0427737 0.999051
v 4.24858 -7.045 -26.8975
vn -0.0106147 0.0553302 0.998412
v 4.24748 -6.99819 -26.9025
vn -0.0129129 0.152901 0.988157
v 4.24643 -6.95208 -26.9119
vn -0.0150868 0.249 0.968386
v 4.24546 -6.90712 -26.9259
vn -0.0171154 0.3427 0.939289
v 4.24457 -6.86375 -26.9442
vn -0.0189792 0.4331 0.901146
v 4.24376 -6.82237 -26.9667
vn -0.0206601 0.51933 0.854324
v 4.24305 -6.7834 -26.9931
vn -0.0221421 0.600557 0.799275
v 4.24244 -6.7472 -27.0232
vn -0.0234109 0.676001 0.736529
v 4.24194 -6.71413 -27.0567
vn -0.0244542 0.744935 0.666689
v 4.24155 -6.6845 -27.0933
vn -0.025262 0.806695 0.590428
v 4.24128 -6.65859 -27.1326
vn -0.0258265 0.860685 0.508482
v 4.24113 -6.63666 -27.1743
vn -0.0261423 0.906387 0.421638
v 4.2411 -6.61892 -27.2179
vn -0.0262063 0.94336 0.330734
v 4.24119 -6.60554 -27.263
vn -0.026018 0.971248 0.236645
v 4.2414 -6.59665 -27.3093
vn -0.0255791 0.989782 0.140277
v 4.24173 -6.59233 -27.3562
vn -0.0248938 0.998784 0.0425576
v 4.24217 -6.59263 -27.4032
vn -0.0239688 0.998167 -0.0555715
v 4.24273 -6.59754 -27.4501
vn -0.0228129 0.987937 -0.153165
v 4.24339 -6.60701 -27.4962
vn -0.0214374 0.968193 -0.249284
v 4.24415 -6.62096 -27.5411
vn -0.0198554 0.939125 -0.343002
v 4.245 -6.63924 -27.5845
vn -0.0180822 0.901012 -0.433417
v 4.24593 -6.66169 -27.6259
vn -0.0161349 0.854222 -0.519658
v 4.24694 -6.68809 -27.6649
vn -0.0140321 0.799206 -0.600894
v 4.24801 -6.71818 -27.7011
vn -0.0117942 0.736492 -0.676343
v 4.24914 -6.75167 -27.7342
vn -0.00944277 0.666686 -0.745279
v 4.25031 -6.78825 -27.7638
vn -0.00700037 0.59046 -0.807037
v 4.25152 -6.82755 -27.7897
vn -0.00449055 0.508546 -0.861023
v 4.25274 -6.8692 -27.8116
vn -0.00193749 0.421736 -0.906717
v 4.25398 -6.9128 -27.8294
vn 0.000634238 0.330864 -0.943678
v 4.25521 -6.95793 -27.8427
vn 0.00319985 0.236805 -0.971552
v 4.25642 -7.00415 -27.8516
vn 0.00573465 0.140466 -0.990069
v 4.25761 -7.05103 -27.8559
vn 0.00821423 0.0427737 -0.999051
v 4.25877 -7.0981 -27.8556
vn 0.0106147 -0.0553302 -0.998412
v 4.25987 -7.14491 -27.8507
vn 0.0129129 -0.152901 -0.988157
v 4.26091 -7.19102 -27.8412
vn 0.0150868 -0.249 -0.968386
v 4.26188 -7.23598 -27.8272
vn 0.0171154 -0.3427 -0.939289
v 4.26278 -7.27935 -27.8089
vn 0.0189792 -0.4331 -0.901146
v 4.26359 -7.32072 -27.7865
vn 0.0206601 -0.51933 -0.854324
v 4.2643 -7.3597 -27.7601
vn 0.0221421 -0.600557 -0.799275
v 4.26491 -7.39589 -27.73
vn 0.0234109 -0.676001 -0.736529
v 4.26541 -7.42897 -27.6965
vn 0.0244542 -0.744935 -0.666689
v 4.26579 -7.4586 -27.6599
vn 0.025262 -0.806695 -0.590428
v 4.26606 -7.48451 -27.6205
vn 0.0258265 -0.860685 -0.508482
v 4.26622 -7.50643 -27.5789
vn 0.0261423 -0.906387 -0.421638
v 4.26625 -7.52417 -27.5353
vn 0.0262063 -0.94336 -0.330734
v 4.26616 -7.53755 -27.4901
vn 0.026018 -0.971248 -0.236645
v 5.95 -7.48433 -27.4253
vn 0.0557986 -0.988588 -0.139932
v 5.9496 -7.48869 -27.378
vn 0.0549678 -0.997595 -0.0422148
v 5.94894 -7.4884 -27.3305
vn 0.0536077 -0.996996 0.0559093
v 5.94803 -7.48346 -27.2832
vn 0.0517312 -0.986794 0.153495
v 5.94688 -7.47391 -27.2367
vn 0.0493566 -0.96709 0.249602
v 5.9455 -7.45986 -27.1913
vn 0.0465067 -0.938071 0.343306
v 5.9439 -7.44143 -27.1475
vn 0.0432088 -0.900019 0.433703
v 5.94211 -7.4188 -27.1057
vn 0.0394949 -0.853299 0.519924
v 5.94012 -7.3922 -27.0664
vn 0.0354005 -0.798361 0.601137
v 5.93797 -7.36187 -27.0299
vn 0.0309653 -0.735735 0.676562
v 5.93568 -7.32811 -26.9965
vn 0.0262318 -0.666023 0.74547
v 5.93327 -7.29124 -26.9666
vn 0.0212458 -0.589897 0.807199
v 5.93075 -7.25162 -26.9405
vn 0.0160551 -0.508089 0.861155
v 5.92816 -7.20963 -26.9184
vn 0.0107098 -0.421389 0.906817
v 5.92553 -7.16567 -26.9005
vn 0.0052613 -0.330631 0.943746
v 5.92286 -7.12017 -26.887
vn -0.000237823 -0.236688 0.971586
v 5.9202 -7.07357 -26.878
vn -0.00573465 -0.140466 0.990069
v 5.91757 -7.02632 -26.8737
vn -0.0111763 -0.0428908 0.999017
v 5.91498 -6.97886 -26.874
vn -0.0165102 0.0550972 0.998344
v 5.91248 -6.93166 -26.879
vn -0.0216852 0.152555 0.988057
v 5.91007 -6.88517 -26.8886
vn -0.0266513 0.248543 0.968254
v 5.90779 -6.83984 -26.9027
vn -0.0313608 0.342137 0.939126
v 5.90566 -6.79611 -26.9212
vn -0.0357682 0.432437 0.900954
v 5.90369 -6.7544 -26.9439
vn -0.0398312 0.518572 0.854106
v 5.90191 -6.7151 -26.9706
vn -0.0435106 0.599713 0.799032
v 5.90033 -6.6786 -27.001
vn -0.0467709 0.675078 0.736262
v 5.89897 -6.64525 -27.0348
vn -0.0495808 0.743942 0.666402
v 5.89784 -6.61537 -27.0717
vn -0.0519133 0.805641 0.590125
v 5.89695 -6.58924 -27.1114
vn -0.0537457 0.859582 0.508164
v 5.89631 -6.56713 -27.1535
vn -0.0550606 0.905244 0.421309
v 5.89593 -6.54923 -27.1975
vn -0.0558452 0.942189 0.330396
v 5.89581 -6.53574 -27.2431
vn -0.056092 0.970059 0.236302
v 5.89595 -6.52676 -27.2898
vn -0.0557986 0.988588 0.139932
v 5.89636 -6.5224 -27.3371
vn -0.0549678 0.997595 0.0422148
v 5.89702 -6.52269 -27.3846
vn -0.0536077 0.996996 -0.0559093
v 5.89792 -6.52763 -27.4319
vn -0.0517312 0.986794 -0.153495
v 5.89907 -6.53717 -27.4784
vn -0.0493566 0.96709 -0.249602
v 5.90045 -6.55123 -27.5238
vn -0.0465067 0.938071 -0.343306
v 5.90205 -6.56966 -27.5676
vn -0.0432088 0.900019 -0.433703
v 5.90385 -6.59228 -27.6093
vn -0.0394949 0.853299 -0.519924
v 5.90583 -6.61889 -27.6487
vn -0.0354005 0.798361 -0.601137
v 5.90798 -6.64922 -27.6852
vn -0.0309653 0.735735 -0.676562
v 5.91027 -6.68298 -27.7186
vn -0.0262318 0.666023 -0.74547
v 5.91269 -6.71985 -27.7485
vn -0.0212458 0.589897 -0.807199
v 5.9152 -6.75947 -27.7746
vn -0.0160551 0.508089 -0.861155
v 5.91779 -6.80146 -27.7967
vn -0.0107098 0.421389 -0.906817
v 5.92043 -6.84542 -27.8146
vn -0.0052613 0.330631 -0.943746
v 5.92309 -6.89091 -27.8281
vn 0.000237823 0.236688 -0.971586
v 5.92576 -6.93752 -27.837
vn 0.00573465 0.140466 -0.990069
v 5.92839 -6.98477 -27.8414
vn 0.0111763 0.0428908 -0.999017
v 5.93097 -7.03223 -27.8411
vn 0.0165102 -0.0550972 -0.998344
v 5.93348 -7.07943 -27.8361
vn 0.0216852 -0.152555 -0.988057
v 5.93589 -7.12592 -27.8265
vn 0.0266513 -0.248543 -0.968254
v 5.93817 -7.17124 -27.8124
vn 0.0313608 -0.342137 -0.939126
v 5.9403 -7.21498 -27.7939
vn 0.0357682 -0.432437 -0.900954
v 5.94227 -7.25669 -27.7712
vn 0.0398312 -0.518572 -0.854106
v 5.94405 -7.29599 -27.7445
vn 0.0435106 -0.599713 -0.799032
v 5.94563 -7.33249 -27.7141
vn 0.0467709 -0.675078 -0.736262
v 5.94699 -7.36584 -27.6803
vn 0.0495808 -0.743942 -0.666402
v 5.94812 -7.39572 -27.6433
vn 0.0519133 -0.805641 -0.590125
v 5.94901 -7.42185 -27.6037
vn 0.0537457 -0.859582 -0.508164
v 5.94964 -7.44396 -27.5616
vn 0.0550606 -0.905244 -0.421309
v 5.95002 -7.46185 -27.5176
vn 0.0558452 -0.942189 -0.330396
v 5.95014 -7.47535 -27.472
vn 0.056092 -0.970059 -0.236302
v 7.63676 -7.37158 -27.3995
vn 0.0857744 -0.986505 -0.139463
v 7.63628 -7.37599 -27.3518
vn 0.0847993 -0.995523 -0.041748
v 7.6354 -7.37571 -27.3038
vn 0.0830075 -0.994953 0.0563693
v 7.63414 -7.37075 -27.2561
vn 0.0804163 -0.984802 0.153944
v 7.63249 -7.36115 -27.2092
vn 0.0770507 -0.965166 0.250036
v 7.63048 -7.34701 -27.1634
vn 0.072943 -0.936235 0.34372
v 7.62813 -7.32846 -27.1192
vn 0.0681328 -0.898288 0.434093
v 7.62546 -7.30568 -27.0771
vn 0.0626665 -0.851689 0.520287
v 7.62249 -7.2789 -27.0374
vn 0.0565967 -0.796889 0.601469
v 7.61926 -7.24836 -27.0005
vn 0.0499818 -0.734414 0.676859
v 7.61579 -7.21436 -26.9669
vn 0.0428855 -0.664866 0.745731
v 7.61212 -7.17723 -26.9367
vn 0.0353763 -0.588915 0.80742
v 7.60828 -7.13734 -26.9103
vn 0.0275263 -0.507293 0.861334
v 7.60432 -7.09505 -26.888
vn 0.0194113 -0.420785 0.906953
v 7.60026 -7.05078 -26.87
vn 0.0111093 -0.330224 0.943837
v 7.59615 -7.00496 -26.8564
vn 0.00270032 -0.236484 0.971632
v 7.59202 -6.95802 -26.8474
vn -0.00573465 -0.140466 0.990069
v 7.58793 -6.91043 -26.8431
vn -0.0141144 -0.0430949 0.998971
v 7.5839 -6.86263 -26.8434
vn -0.0223582 0.054691 0.998253
v 7.57997 -6.81509 -26.8485
vn -0.0303867 0.15195 0.987921
v 7.57619 -6.76826 -26.8582
vn -0.0381226 0.247746 0.968075
v 7.57259 -6.7226 -26.8724
vn -0.0454913 0.341156 0.938905
v 7.5692 -6.67855 -26.8911
vn -0.0524219 0.43128 0.900694
v 7.56606 -6.63652 -26.914
vn -0.0588477 0.517251 0.853808
v 7.5632 -6.59693 -26.941
vn -0.0647067 0.59824 0.7987
v 7.56064 -6.56016 -26.9717
vn -0.0699426 0.673468 0.7359
v 7.55841 -6.52656 -27.0058
vn -0.0745048 0.742211 0.666012
v 7.55653 -6.49645 -27.0431
vn -0.0783496 0.803805 0.589711
v 7.55502 -6.47012 -27.0832
vn -0.0814398 0.857658 0.50773
v 7.55389 -6.44784 -27.1257
vn -0.0837457 0.903252 0.42086
v 7.55316 -6.4298 -27.1701
vn -0.0852451 0.940146 0.329936
v 7.55283 -6.41619 -27.2161
vn -0.0859235 0.967987 0.235835
v 7.5529 -6.40714 -27.2632
vn -0.0857744 0.986505 0.139463
v 7.55338 -6.40273 -27.311
vn -0.0847993 0.995523 0.041748
v 7.55425 -6.40301 -27.3589
vn -0.0830075 0.994953 -0.0563693
v 7.55552 -6.40797 -27.4066
vn -0.0804163 0.984802 -0.153944
v 7.55716 -6.41757 -27.4536
vn -0.0770507 0.965166 -0.250036
v 7.55917 -6.43171 -27.4994
vn -0.072943 0.936235 -0.34372
v 7.56152 -6.45026 -27.5436
vn -0.0681328 0.898288 -0.434093
v 7.5642 -6.47304 -27.5857
vn -0.0626665 0.851689 -0.520287
v 7.56716 -6.49983 -27.6254
vn -0.0565967 0.796889 -0.601469
v 7.5704 -6.53037 -27.6622
vn -0.0499818 0.734414 -0.676859
v 7.57386 -6.56436 -27.6959
vn -0.0428855 0.664866 -0.745731
v 7.57754 -6.60149 -27.7261
vn -0.0353763 0.588915 -0.80742
v 7.58137 -6.64139 -27.7524
vn -0.0275263 0.507293 -0.861334
v 7.58534 -6.68368 -27.7747
vn -0.0194113 0.420785 -0.906953
v 7.5894 -6.72794 -27.7927
vn -0.0111093 0.330224 -0.943837
v 7.59351 -6.77377 -27.8063
vn -0.00270032 0.236484 -0.971632
v 7.59763 -6.8207 -27.8153
vn 0.00573465 0.140466 -0.990069
v 7.60173 -6.8683 -27.8197
vn 0.0141144 0.0430949 -0.998971
v 7.60576 -6.9161 -27.8193
vn 0.0223582 -0.054691 -0.998253
v 7.60968 -6.96364 -27.8143
vn 0.0303867 -0.15195 -0.987921
v 7.61346 -7.01047 -27.8046
vn 0.0381226 -0.247746 -0.968075
v 7.61707 -7.05613 -27.7903
vn 0.0454913 -0.341156 -0.938905
v 7.62045 -7.10018 -27.7717
vn 0.0524219 -0.43128 -0.900694
v 7.62359 -7.1422 -27.7487
vn 0.0588477 -0.517251 -0.853808
v 7.62646 -7.18179 -27.7218
vn 0.0647067 -0.59824 -0.7987
v 7.62902 -7.21857 -27.6911
vn 0.0699426 -0.673468 -0.7359
v 7.63125 -7.25217 -27.6569
vn 0.0745048 -0.742211 -0.666012
v 7.63313 -7.28228 -27.6196
vn 0.0783496 -0.803805 -0.589711
v 7.63464 -7.3086 -27.5796
vn 0.0814398 -0.857658 -0.50773
v 7.63576 -7.33089 -27.5371
vn 0.0837457 -0.903252 -0.42086
v 7.6365 -7.34892 -27.4927
vn 0.0852451 -0.940146 -0.329936
v 7.63683 -7.36253 -27.4467
vn 0.0859235 -0.967987 -0.235835
v 9.32617 -7.20822 -27.3666
vn 0.115429 -0.98356 -0.138874
v 9.32562 -7.21267 -27.3184
vn 0.114311 -0.992592 -0.0411612
v 9.32452 -7.21241 -27.27
vn 0.112093 -0.992065 0.0569477
v 9.32289 -7.20744 -27.2219
vn 0.108794 -0.981983 0.154508
v 9.32075 -7.1978 -27.1745
vn 0.104448 -0.962445 0.25058
v 9.31811 -7.18359 -27.1283
vn 0.0990962 -0.933638 0.34424
v 9.315 -7.16494 -27.0837
vn 0.0927899 -0.895839 0.434584
v 9.31145 -7.14204 -27.0412
vn 0.08559 -0.849413 0.520742
v 9.30749 -7.1151 -27.0012
vn 0.0775658 -0.794806 0.601886
v 9.30316 -7.08439 -26.964
vn 0.0687946 -0.732545 0.677233
v 9.29851 -7.05019 -26.93
vn 0.0593609 -0.66323 0.746058
v 9.29357 -7.01285 -26.8996
vn 0.0493555 -0.587527 0.807698
v 9.2884 -6.97271 -26.873
vn 0.0388747 -0.506165 0.86156
v 9.28305 -6.93017 -26.8506
vn 0.0280196 -0.41993 0.907124
v 9.27756 -6.88563 -26.8324
vn 0.0168947 -0.32965 0.943952
v 9.27199 -6.83952 -26.8187
vn 0.00560701 -0.236195 0.971689
v 9.26639 -6.7923 -26.8096
vn -0.00573465 -0.140466 0.990069
v 9.26083 -6.74441 -26.8053
vn -0.0170211 -0.0433836 0.998913
v 9.25534 -6.69631 -26.8057
vn -0.0281436 0.0541164 0.998138
v 9.24999 -6.64846 -26.8108
vn -0.0389951 0.151095 0.98775
v 9.24482 -6.60134 -26.8206
vn -0.049471 0.246619 0.967849
v 9.23988 -6.55539 -26.835
vn -0.0594705 0.339767 0.938627
v 9.23523 -6.51105 -26.8539
vn -0.0688973 0.429644 0.900366
v 9.23091 -6.46875 -26.8771
vn -0.0776605 0.515382 0.853434
v 9.22696 -6.4289 -26.9043
vn -0.0856758 0.596158 0.798283
v 9.22341 -6.39189 -26.9353
vn -0.0928661 0.671192 0.735444
v 9.2203 -6.35806 -26.9698
vn -0.0991619 0.739762 0.665522
v 9.21767 -6.32775 -27.0074
vn -0.104503 0.801207 0.589191
v 9.21553 -6.30124 -27.0479
vn -0.108837 0.854937 0.507185
v 9.21391 -6.2788 -27.0907
vn -0.112124 0.900433 0.420296
v 9.21282 -6.26063 -27.1356
vn -0.11433 0.937258 0.329358
v 9.21228 -6.24692 -27.182
vn -0.115436 0.965056 0.235249
v 9.21228 -6.23779 -27.2296
vn -0.115429 0.98356 0.138874
v 9.21283 -6.23333 -27.2778
vn -0.114311 0.992592 0.0411612
v 9.21392 -6.23359 -27.3262
vn -0.112093 0.992065 -0.0569477
v 9.21555 -6.23856 -27.3743
vn -0.108794 0.981983 -0.154508
v 9.2177 -6.2482 -27.4217
vn -0.104448 0.962445 -0.25058
v 9.22034 -6.26242 -27.4679
vn -0.0990962 0.933638 -0.34424
v 9.22345 -6.28106 -27.5125
vn -0.0927899 0.895839 -0.434584
v 9.227 -6.30397 -27.555
vn -0.08559 0.849413 -0.520742
v 9.23096 -6.3309 -27.595
vn -0.0775658 0.794806 -0.601886
v 9.23528 -6.36162 -27.6322
vn -0.0687946 0.732545 -0.677233
v 9.23994 -6.39581 -27.6661
vn -0.0593609 0.66323 -0.746058
v 9.24487 -6.43316 -27.6965
vn -0.0493555 0.587527 -0.807698
v 9.25004 -6.4733 -27.7231
vn -0.0388747 0.506165 -0.86156
v 9.2554 -6.51584 -27.7456
vn -0.0280196 0.41993 -0.907124
v 9.26089 -6.56038 -27.7638
vn -0.0168947 0.32965 -0.943952
v 9.26646 -6.60648 -27.7774
vn -0.00560701 0.236195 -0.971689
v 9.27205 -6.65371 -27.7865
vn 0.00573465 0.140466 -0.990069
v 9.27762 -6.7016 -27.7909
vn 0.0170211 0.0433836 -0.998913
v 9.28311 -6.7497 -27.7905
vn 0.0281436 -0.0541164 -0.998138
v 9.28846 -6.79754 -27.7854
vn 0.0389951 -0.151095 -0.98775
v 9.29363 -6.84467 -27.7755
vn 0.049471 -0.246619 -0.967849
v 9.29856 -6.89062 -27.7611
vn 0.0594705 -0.339767 -0.938627
v 9.30321 -6.93496 -27.7423
vn 0.0688973 -0.429644 -0.900366
v 9.30753 -6.97725 -27.7191
vn 0.0776605 -0.515382 -0.853434
v 9.31149 -7.0171 -27.6919
vn 0.0856758 -0.596158 -0.798283
v 9.31504 -7.05412 -27.6609
vn 0.0928661 -0.671192 -0.735444
v 9.31814 -7.08795 -27.6264
vn 0.0991619 -0.739762 -0.665522
v 9.32078 -7.11826 -27.5887
vn 0.104503 -0.801207 -0.589191
v 9.32292 -7.14477 -27.5483
vn 0.108837 -0.854937 -0.507185
v 9.32454 -7.16721 -27.5054
vn 0.112124 -0.900433 -0.420296
v 9.32562 -7.18538 -27.4606
vn 0.11433 -0.937258 -0.329358
v 9.32617 -7.19909 -27.4141
vn 0.115436 -0.965056 -0.235249
v 11.0182 -6.99424 -27.3264
vn 0.14469 -0.979783 -0.138168
v 11.0176 -6.99874 -27.2778
vn 0.143431 -0.988833 -0.0404592
v 11.0163 -6.99851 -27.2289
vn 0.140791 -0.98836 0.0576395
v 11.0143 -6.99353 -27.1804
vn 0.136795 -0.978369 0.155183
v 11.0116 -6.98387 -27.1326
vn 0.131482 -0.958955 0.251232
v 11.0083 -6.9696 -27.086
vn 0.124902 -0.930306 0.344862
v 11.0045 -6.95088 -27.041
vn 0.11712 -0.892698 0.43517
v 11.0 -6.92788 -26.9981
vn 0.108209 -0.846493 0.521288
v 10.9951 -6.90082 -26.9578
vn 0.0982564 -0.792135 0.602385
v 10.9897 -6.86996 -26.9203
vn 0.0873576 -0.730149 0.677681
v 10.9838 -6.8356 -26.886
vn 0.0756174 -0.661131 0.74645
v 10.9776 -6.79807 -26.8554
vn 0.063149 -0.585746 0.808031
v 10.9711 -6.75773 -26.8286
vn 0.0500724 -0.50472 0.86183
v 10.9643 -6.71498 -26.8059
vn 0.0365136 -0.418833 0.907329
v 10.9574 -6.67021 -26.7876
vn 0.0226032 -0.328913 0.94409
v 10.9504 -6.62387 -26.7739
vn 0.00847508 -0.235825 0.971759
v 10.9433 -6.57639 -26.7648
vn -0.00573465 -0.140466 0.990069
v 10.9363 -6.52825 -26.7604
vn -0.0198892 -0.0437538 0.998844
v 10.9293 -6.47989 -26.7608
vn -0.0338521 0.0533795 0.998
v 10.9225 -6.43179 -26.766
vn -0.0474891 0.149999 0.987545
v 10.916 -6.38441 -26.7759
vn -0.0606687 0.245173 0.967579
v 10.9097 -6.3382 -26.7905
vn -0.073264 0.337987 0.938295
v 10.9038 -6.29362 -26.8096
vn -0.0851538 0.427545 0.899974
v 10.8983 -6.25108 -26.833
vn -0.0962235 0.512986 0.852987
v 10.8932 -6.21101 -26.8605
vn -0.106366 0.593487 0.797784
v 10.8887 -6.17378 -26.8918
vn -0.115485 0.668272 0.734899
v 10.8847 -6.13975 -26.9266
vn -0.123492 0.736621 0.664936
v 10.8813 -6.10925 -26.9646
vn -0.130309 0.797876 0.588569
v 10.8785 -6.08259 -27.0055
vn -0.135871 0.851447 0.506534
v 10.8764 -6.06 -27.0487
vn -0.140125 0.896819 0.419621
v 10.875 -6.04171 -27.094
vn -0.143029 0.933553 0.328666
v 10.8742 -6.0279 -27.1409
vn -0.144556 0.961297 0.234547
v 10.8741 -6.0187 -27.1889
vn -0.14469 0.979783 0.138168
v 10.8748 -6.01419 -27.2375
vn -0.143431 0.988833 0.0404592
v 10.8761 -6.01443 -27.2863
vn -0.140791 0.98836 -0.0576395
v 10.8781 -6.0194 -27.3349
vn -0.136795 0.978369 -0.155183
v 10.8807 -6.02906 -27.3827
vn -0.131482 0.958955 -0.251232
v 10.884 -6.04333 -27.4293
vn -0.124902 0.930306 -0.344862
v 10.8879 -6.06205 -27.4743
vn -0.11712 0.892698 -0.43517
v 10.8923 -6.08505 -27.5172
vn -0.108209 0.846493 -0.521288
v 10.8972 -6.11211 -27.5575
vn -0.0982564 0.792135 -0.602385
v 10.9027 -6.14297 -27.595
vn -0.0873576 0.730149 -0.677681
v 10.9085 -6.17733 -27.6293
vn -0.0756174 0.661131 -0.74645
v 10.9147 -6.21486 -27.6599
vn -0.063149 0.585746 -0.808031
v 10.9212 -6.2552 -27.6867
vn -0.0500724 0.50472 -0.86183
v 10.928 -6.29796 -27.7093
vn -0.0365136 0.418833 -0.907329
v 10.9349 -6.34272 -27.7276
vn -0.0226032 0.328913 -0.94409
v 10.9419 -6.38906 -27.7414
vn -0.00847508 0.235825 -0.971759
v 10.949 -6.43654 -27.7505
vn 0.00573465 0.140466 -0.990069
v 10.9561 -6.48468 -27.7549
vn 0.0198892 0.0437538 -0.998844
v 10.963 -6.53304 -27.7545
vn 0.0338521 -0.0533795 -0.998
v 10.9698 -6.58114 -27.7493
vn 0.0474891 -0.149999 -0.987545
v 10.9764 -6.62852 -27.7393
vn 0.0606687 -0.245173 -0.967579
v 10.9826 -6.67473 -27.7248
vn 0.073264 -0.337987 -0.938295
v 10.9886 -6.71931 -27.7057
vn 0.0851538 -0.427545 -0.899974
v 10.9941 -6.76185 -27.6823
vn 0.0962235 -0.512986 -0.852987
v 10.9991 -6.80192 -27.6548
vn 0.106366 -0.593487 -0.797784
v 11.0037 -6.83915 -27.6235
vn 0.115485 -0.668272 -0.734899
v 11.0076 -6.87318 -27.5887
vn 0.123492 -0.736621 -0.664936
v 11.011 -6.90368 -27.5507
vn 0.130309 -0.797876 -0.588569
v 11.0138 -6.93035 -27.5098
vn 0.135871 -0.851447 -0.506534
v 11.0159 -6.95293 -27.4665
vn 0.140125 -0.896819 -0.419621
v 11.0174 -6.97122 -27.4213
vn 0.143029 -0.933553 -0.328666
v 11.0181 -6.98503 -27.3744
vn 0.144556 -0.961297 -0.234547
v 12.7128 -6.72964 -27.2791
vn 0.17349 -0.975211 -0.137353
v 12.7121 -6.7342 -27.23
vn 0.172092 -0.984283 -0.0396476
v 12.7106 -6.73399 -27.1807
vn 0.169037 -0.983876 0.0584393
v 12.7082 -6.72903 -27.1317
vn 0.164355 -0.973993 0.155963
v 12.7051 -6.71935 -27.0835
vn 0.158089 -0.954731 0.251986
v 12.7011 -6.70506 -27.0365
vn 0.150301 -0.926274 0.345581
v 12.6965 -6.68628 -26.9911
vn 0.141065 -0.888896 0.435848
v 12.6912 -6.66321 -26.9479
vn 0.130471 -0.842958 0.521918
v 12.6852 -6.63605 -26.9072
vn 0.118621 -0.788902 0.602961
v 12.6787 -6.60508 -26.8694
vn 0.105628 -0.727248 0.678198
v 12.6717 -6.57059 -26.8349
vn 0.0916175 -0.658591 0.746903
v 12.6642 -6.53291 -26.804
vn 0.076725 -0.583591 0.808415
v 12.6563 -6.49241 -26.777
vn 0.0610935 -0.50297 0.862142
v 12.6482 -6.44948 -26.7542
vn 0.0448737 -0.417506 0.907566
v 12.6398 -6.40453 -26.7357
vn 0.0282217 -0.328021 0.944249
v 12.6313 -6.35799 -26.7219
vn 0.0112979 -0.235377 0.971839
v 12.6228 -6.31031 -26.7127
vn -0.00573465 -0.140466 0.990069
v 12.6142 -6.26196 -26.7084
vn -0.022712 -0.044202 0.998764
v 12.6058 -6.21338 -26.7088
vn -0.0394706 0.0524875 0.997841
v 12.5976 -6.16507 -26.7141
vn -0.0558491 0.148671 0.987308
v 12.5896 -6.11747 -26.7242
vn -0.0716898 0.243424 0.967267
v 12.582 -6.07105 -26.7389
vn -0.08684 0.335831 0.93791
v 12.5748 -6.02625 -26.7582
vn -0.101154 0.425005 0.899521
v 12.5681 -5.98351 -26.7818
vn -0.114494 0.510086 0.852469
v 12.562 -5.94324 -26.8096
vn -0.126731 0.590254 0.797208
v 12.5564 -5.90582 -26.8412
vn -0.137747 0.664737 0.734268
v 12.5516 -5.87162 -26.8764
vn -0.147437 0.732819 0.664257
v 12.5474 -5.84097 -26.9148
vn -0.155708 0.793844 0.58785
v 12.544 -5.81415 -26.956
vn -0.162478 0.847223 0.50578
v 12.5414 -5.79144 -26.9997
vn -0.167684 0.892443 0.41884
v 12.5396 -5.77304 -27.0454
vn -0.171275 0.929069 0.327866
v 12.5386 -5.75913 -27.0927
vn -0.173216 0.956747 0.233735
v 12.5385 -5.74986 -27.1411
vn -0.17349 0.975211 0.137353
v 12.5392 -5.7453 -27.1902
vn -0.172092 0.984283 0.0396476
v 12.5407 -5.74551 -27.2394
vn -0.169037 0.983876 -0.0584393
v 12.5431 -5.75047 -27.2884
vn -0.164355 0.973993 -0.155963
v 12.5462 -5.76015 -27.3367
vn -0.158089 0.954731 -0.251986
v 12.5501 -5.77444 -27.3837
vn -0.150301 0.926274 -0.345581
v 12.5548 -5.79322 -27.429
vn -0.141065 0.888896 -0.435848
v 12.5601 -5.8163 -27.4723
vn -0.130471 0.842958 -0.521918
v 12.5661 -5.84345 -27.513
vn -0.118621 0.788902 -0.602961
v 12.5726 -5.87442 -27.5508
vn -0.105628 0.727248 -0.678198
v 12.5796 -5.90891 -27.5853
vn -0.0916175 0.658591 -0.746903
v 12.5871 -5.94659 -27.6162
vn -0.076725 0.583591 -0.808415
v 12.595 -5.98709 -27.6432
vn -0.0610935 0.50297 -0.862142
v 12.6031 -6.03002 -27.666
vn -0.0448737 0.417506 -0.907566
v 12.6115 -6.07497 -27.6844
vn -0.0282217 0.328021 -0.944249
v 12.62 -6.12151 -27.6983
vn -0.0112979 0.235377 -0.971839
v 12.6285 -6.16919 -27.7074
vn 0.00573465 0.140466 -0.990069
v 12.6371 -6.21755 -27.7118
vn 0.022712 0.044202 -0.998764
v 12.6455 -6.26612 -27.7113
vn 0.0394706 -0.0524875 -0.997841
v 12.6537 -6.31443 -27.706
vn 0.0558491 -0.148671 -0.987308
v 12.6617 -6.36203 -27.696
vn 0.0716898 -0.243424 -0.967267
v 12.6693 -6.40845 -27.6812
vn 0.08684 -0.335831 -0.93791
v 12.6765 -6.45325 -27.6619
vn 0.101154 -0.425005 -0.899521
v 12.6832 -6.49599 -27.6383
vn 0.114494 -0.510086 -0.852469
v 12.6893 -6.53626 -27.6105
vn 0.126731 -0.590254 -0.797208
v 12.6948 -6.57368 -27.5789
vn 0.137747 -0.664737 -0.734268
v 12.6997 -6.60788 -27.5438
vn 0.147437 -0.732819 -0.664257
v 12.7039 -6.63853 -27.5054
vn 0.155708 -0.793844 -0.58785
v 12.7073 -6.66535 -27.4642
vn 0.162478 -0.847223 -0.50578
v 12.7099 -6.68806 -27.4205
vn 0.167684 -0.892443 -0.41884
v 12.7117 -6.70646 -27.3748
vn 0.171275 -0.929069 -0.327866
v 12.7127 -6.72037 -27.3275
vn 0.173216 -0.956747 -0.233735
f 1 66 2 
f 1 65 66 
f 2 67 3 
f 2 66 67 
f 3 68 4 
f 3 67 68 
f 4 69 5 
f 4 68 69 
f 5 70 6 
f 5 69 70 
f 6 71 7 
f 6 70 71 
f 7 72 8 
f 7 71 72 
f 8 73 9 
f 8 72 73 
f 9 74 10 
f 9 73 74 
f 10 75 11 
f 10 74 75 
f 11 76 12 
f 11 75 76 
f 12 77 13 
f 12 76 77 
f 13 78 14 
f 13 77 78 
f 14 79 15 
f 14 78 79 
f 15 80 16 
f 15 79 80 
f 16 81 17 
f 16 80 81 
f 17 82 18 
f 17 81 82 
f 18 83 19 
f 18 82 83 
f 19 84 20 
f 19 83 84 
f 20 85 21 
f 20 84 85 
f 21 86 22 
f 21 85 86 
f 22 87 23 
f 22 86 87 
f 23 88 24 
f 23 87 88 
f 24 89 25 
f 24 88 89 
f 25 90 26 
f 25 89 90 
f 26 91 27 
f 26 90 91 
f 27 92 28 
f 27 91 92 
f 28 93 29 
f 28 92 93 
f 29 94 30 
f 29 93 94 
f 30 95 31 
f 30 94 95 
f 31 96 32 
f 31 95 96 
f 32 97 33 
f 32 96 97 
f 33 98 34 
f 33 97 98 
f 34 99 35 
f 34 98 99 
f 35 100 36 
f 35 99 100 
f 36 101 37 
f 36 100 101 
f 37 102 38 
f 37 101 102 
f 38 103 39 
f 38 102 103 
f 39 104 40 
f 39 103 104 
f 40 105 41 
f 40 104 105 
f 41 106 42 
f 41 105 106 
f 42 107 43 
f 42 106 107 
f 43 108 44 
f 43 107 108 
f 44 109 45 
f 44 108 109 
f 45 110 46 
f 45 109 110 
f 46 111 47 
f 46 110 111 
f 47 112 48 
f 47 111 112 
f 48 113 49 
f 48 112 113 
f 49 114 50 
f 49 113 114 
f 50 115 51 
f 50 114 115 
f 51 116 52 
f 51 115 116 
f 52 117 53 
f 52 116 117 
f 53 118 54 
f 53 117 118 
f 54 119 55 
f 54 118 119 
f 55 120 56 
f 55 119 120 
f 56 121 57 
f 56 120 121 
f 57 122 58 
f 57 121 122 
f 58 123 59 
f 58 122 123 
f 59 124 60 
f 59 123 124 
f 60 125 61 
f 60 124 125 
f 61 126 62 
f 61 125 126 
f 62 127 63 
f 62 126 127 
f 63 128 64 
f 63 127 128 
f 64 65 1 
f 64 128 65 
f 65 130 66 
f 65 129 130 
f 66 131 67 
f 66 130 131 
f 67 132 68 
f 67 131 132 
f 68 133 69 
f 68 132 133 
f 69 134 70 
f 69 133 134 
f 70 135 71 
f 70 134 135 
f 71 136 72 
f 71 135 136 
f 72 137 73 
f 72 136 137 
f 73 138 74 
f 73 137 138 
f 74 139 75 
f 74 138 139 
f 75 140 76 
f 75 139 140 
f 76 141 77 
f 76 140 141 
f 77 142 78 
f 77 141 142 
f 78 143 79 
f 78 142 143 
f 79 144 80 
f 79 143 144 
f 80 145 81 
f 80 144 145 
f 81 146 82 
f 81 145 146 
f 82 147 83 
f 82 146 147 
f 83 148 84 
f 83 147 148 
f 84 149 85 
f 84 148 149 
f 85 150 86 
f 85 149 150 
f 86 151 87 
f 86 150 151 
f 87 152 88 
f 87 151 152 
f 88 153 89 
f 88 152 153 
f 89 154 90 
f 89 153 154 
f 90 155 91 
f 90 154 155 
f 91 156 92 
f 91 155 156 
f 92 157 93 
f 92 156 157 
f 93 158 94 
f 93 157 158 
f 94 159 95 
f 94 158 159 
f 95 160 96 
f 95 159 160 
f 96 161 97 
f 96 160 161 
f 97 162 98 
f 97 161 162 
f 98 163 99 
f 98 162 163 
f 99 164 100 
f 99 163 164 
f 100 165 101 
f 100 164 165 
f 101 166 102 
f 101 165 166 
f 102 167 103 
f 102 166 167 
f 103 168 104 
f 103 167 168 
f 104 169 105 
f 104 168 169 
f 105 170 106 
f 105 169 170 
f 106 171 107 
f 106 170 171 
f 107 172 108 
f 107 171 172 
f 108 173 109 
f 108 172 173 
f 109 174 110 
f 109 173 174 
f 110 175 111 
f 110 174 175 
f 111 176 112 
f 111 175 176 
f 112 177 113 
f 112 176 177 
f 113 178 114 
f 113 177 178 
f 114 179 115 
f 114 178 179 
f 115 180 116 
f 115 179 180 
f 116 181 117 
f 116 180 181 
f 117 182 118 
f 117 181 182 
f 118 183 119 
f 118 182 183 
f 119 184 120 
f 119 183 184 
f 120 185 121 
f 120 184 185 
f 121 186 122 
f 121 185 186 
f 122 187 123 
f 122 186 187 
f 123 188 124 
f 123 187 188 
f 124 189 125 
f 124 188 189 
f 125 190 126 
f 125 189 190 
f 126 191 127 
f 126 190 191 
f 127 192 128 
f 127 191 192 
f 128 129 65 
f 128 192 129 
f 129 194 130 
f 129 193 194 
f 130 195 131 
f 130 194 195 
f 131 196 132 
f 131 195 196 
f 132 197 133 
f 132 196 197 
f 133 198 134 
f 133 197 198 
f 134 199 135 
f 134 198 199 
f 135 200 136 
f 135 199 200 
f 136 201 137 
f 136 200 201 
f 137 202 138 
f 137 201 202 
f 138 203 139 
f 138 202 203 
f 139 204 140 
f 139 203 204 
f 140 205 141 
f 140 204 205 
f 141 206 142 
f 141 205 206 
f 142 207 143 
f 142 206 207 
f 143 208 144 
f 143 207 208 
f 144 209 145 
f 144 208 209 
f 145 210 146 
f 145 209 210 
f 146 211 147 
f 146 210 211 
f 147 212 148 
f 147 211 212 
f 148 213 149 
f 148 212 213 
f 149 214 150 
f 149 213 214 
f 150 215 151 
f 150 214 215 
f 151 216 152 
f 151 215 216 
f 152 217 153 
f 152 216 217 
f 153 218 154 
f 153 217 218 
f 154 219 155 
f 154 218 219 
f 155 220 156 
f 155 219 220 
f 156 221 157 
f 156 220 221 
f 157 222 158 
f 157 221 222 
f 158 223 159 
f 158 222 223 
f 159 224 160 
f 159 223 224 
f 160 225 161 
f 160 224 225 
f 161 226 162 
f 161 225 226 
f 162 227 163 
f 162 226 227 
f 163 228 164 
f 163 227 228 
f 164 229 165 
f 164 228 229 
f 165 230 166 
f 165 229 230 
f 166 231 167 
f 166 230 231 
f 167 232 168 
f 167 231 232 
f 168 233 169 
f 168 232 233 
f 169 234 170 
f 169 233 234 
f 170 235 171 
f 170 234 235 
f 171 236 172 
f 171 235 236 
f 172 237 173 
f 172 236 237 
f 173 238 174 
f 173 237 238 
f 174 239 175 
f 174 238 239 
f 175 240 176 
f 175 239 240 
f 176 241 177 
f 176 240 241 
f 177 242 178 
f 177 241 242 
f 178 243 179 
f 178 242 243 
f 179 244 180 
f 179 243 244 
f 180 245 181 
f 180 244 245 
f 181 246 182 
f 181 245 246 
f 182 247 183 
f 182 246 247 
f 183 248 184 
f 183 247 248 
f 184 249 185 
f 184 248 249 
f 185 250 186 
f 185 249 250 
f 186 251 187 
f 186 250 251 
f 187 252 188 
f 187 251 252 
f 188 253 189 
f 188 252 253 
f 189 254 190 
f 189 253 254 
f 190 255 191 
f 190 254 255 
f 191 256 192 
f 191 255 256 
f 192 193 129 
f 192 256 193 
f 193 258 194 
f 193 257 258 
f 194 259 195 
f 194 258 259 
f 195 260 196 
f 195 259 260 
f 196 261 197 
f 196 260 261 
f 197 262 198 
f 197 261 262 
f 198 263 199 
f 198 262 263 
f 199 264 200 
f 199 263 264 
f 200 265 201 
f 200 264 265 
f 201 266 202 
f 201 265 266 
f 202 267 203 
f 202 266 267 
f 203 268 204 
f 203 267 268 
f 204 269 205 
f 204 268 269 
f 205 270 206 
f 205 269 270 
f 206 271 207 
f 206 270 271 
f 207 272 208 
f 207 271 272 
f 208 273 209 
f 208 272 273 
f 209 274 210 
f 209 273 274 
f 210 275 211 
f 210 274 275 
f 211 276 212 
f 211 275 276 
f 212 277 213 
f 212 276 277 
f 213 278 214 
f 213 277 278 
f 214 279 215 
f 214 278 279 
f 215 280 216 
f 215 279 280 
f 216 281 217 
f 216 280 281 
f 217 282 218 
f 217 281 282 
f 218 283 219 
f 218 282 283 
f 219 284 220 
f 219 283 284 
f 220 285 221 
f 220 284 285 
f 221 286 222 
f 221 285 286 
f 222 287 223 
f 222 286 287 
f 223 288 224 
f 223 287 288 
f 224 289 225 
f 224 288 289 
f 225 290 226 
f 225 289 290 
f 226 291 227 
f 226 290 291 
f 227 292 228 
f 227 291 292 
f 228 293 229 
f 228 292 293 
f 229 294 230 
f 229 293 294 
f 230 295 231 
f 230 294 295 
f 231 296 232 
f 231 295 296 
f 232 297 233 
f 232 296 297 
f 233 298 234 
f 233 297 298 
f 234 299 235 
f 234 298 299 
f 235 300 236 
f 235 299 300 
f 236 301 237 
f 236 300 301 
f 237 302 238 
f 237 301 302 
f 238 303 239 
f 238 302 303 
f 239 304 240 
f 239 303 304 
f 240 305 241 
f 240 304 305 
f 241 306 242 
f 241 305 306 
f 242 307 243 
f 242 306 307 
f 243 308 244 
f 243 307 308 
f 244 309 245 
f 244 308 309 
f 245 310 246 
f 245 309 310 
f 246 311 247 
f 246 310 311 
f 247 312 248 
f 247 311 312 
f 248 313 249 
f 248 312 313 
f 249 314 250 
f 249 313 314 
f 250 315 251 
f 250 314 315 
f 251 316 252 
f 251 315 316 
f 252 317 253 
f 252 316 317 
f 253 318 254 
f 253 317 318 
f 254 319 255 
f 254 318 319 
f 255 320 256 
f 255 319 320 
f 256 257 193 
f 256 320 257 
f 257 322 258 
f 257 321 322 
f 258 323 259 
f 258 322 323 
f 259 324 260 
f 259 323 324 
f 260 325 261 
f 260 324 325 
f 261 326 262 
f 261 325 326 
f 262 327 263 
f 262 326 327 
f 263 328 264 
f 263 327 328 
f 264 329 265 
f 264 328 329 
f 265 330 266 
f 265 329 330 
f 266 331 267 
f 266 330 331 
f 267 332 268 
f 267 331 332 
f 268 333 269 
f 268 332 333 
f 269 334 270 
f 269 333 334 
f 270 335 271 
f 270 334 335 
f 271 336 272 
f 271 335 336 
f 272 337 273 
f 272 336 337 
f 273 338 274 
f 273 337 338 
f 274 339 275 
f 274 338 339 
f 275 340 276 
f 275 339 340 
f 276 341 277 
f 276 340 341 
f 277 342 278 
f 277 341 342 
f 278 343 279 
f 278 342 343 
f 279 344 280 
f 279 343 344 
f 280 345 281 
f 280 344 345 
f 281 346 282 
f 281 345 346 
f 282 347 283 
f 282 346 347 
f 283 348 284 
f 283 347 348 
f 284 349 285 
f 284 348 349 
f 285 350 286 
f 285 349 350 
f 286 351 287 
f 286 350 351 
f 287 352 288 
f 287 351 352 
f 288 353 289 
f 288 352 353 
f 289 354 290 
f 289 353 354 
f 290 355 291 
f 290 354 355 
f 291 356 292 
f 291 355 356 
f 292 357 293 
f 292 356 357 
f 293 358 294 
f 293 357 358 
f 294 359 295 
f 294 358 359 
f 295 360 296 
f 295 359 360 
f 296 361 297 
f 296 360 361 
f 297 362 298 
f 297 361 362 
f 298 363 299 
f 298 362 363 
f 299 364 300 
f 299 363 364 
f 300 365 301 
f 300 364 365 
f 301 366 302 
f 301 365 366 
f 302 367 303 
f 302 366 367 
f 303 368 304 
f 303 367 368 
f 304 369 305 
f 304 368 369 
f 305 370 306 
f 305 369 370 
f 306 371 307 
f 306 370 371 
f 307 372 308 
f 307 371 372 
f 308 373 309 
f 308 372 373 
f 309 374 310 
f 309 373 374 
f 310 375 311 
f 310 374 375 
f 311 376 312 
f 311 375 376 
f 312 377 313 
f 312 376 377 
f 313 378 314 
f 313 377 378 
f 314 379 315 
f 314 378 379 
f 315 380 316 
f 315 379 380 
f 316 381 317 
f 316 380 381 
f 317 382 318 
f 317 381 382 
f 318 383 319 
f 318 382 383 
f 319 384 320 
f 319 383 384 
f 320 321 257 
f 320 384 321 
f 321 386 322 
f 321 385 386 
f 322 387 323 
f 322 386 387 
f 323 388 324 
f 323 387 388 
f 324 389 325 
f 324 388 389 
f 325 390 326 
f 325 389 390 
f 326 391 327 
f 326 390 391 
f 327 392 328 
f 327 391 392 
f 328 393 329 
f 328 392 393 
f 329 394 330 
f 329 393 394 
f 330 395 331 
f 330 394 395 
f 331 396 332 
f 331 395 396 
f 332 397 333 
f 332 396 397 
f 333 398 334 
f 333 397 398 
f 334 399 335 
f 334 398 399 
f 335 400 336 
f 335 399 400 
f 336 401 337 
f 336 400 401 
f 337 402 338 
f 337 401 402 
f 338 403 339 
f 338 402 403 
f 339 404 340 
f 339 403 404 
f 340 405 341 
f 340 404 405 
f 341 406 342 
f 341 405 406 
f 342 407 343 
f 342 406 407 
f 343 408 344 
f 343 407 408 
f 344 409 345 
f 344 408 409 
f 345 410 346 
f 345 409 410 
f 346 411 347 
f 346 410 411 
f 347 412 348 
f 347 411 412 
f 348 413 349 
f 348 412 413 
f 349 414 350 
f 349 413 414 
f 350 415 351 
f 350 414 415 
f 351 416 352 
f 351 415 416 
f 352 417 353 
f 352 416 417 
f 353 418 354 
f 353 417 418 
f 354 419 355 
f 354 418 419 
f 355 420 356 
f 355 419 420 
f 356 421 357 
f 356 420 421 
f 357 422 358 
f 357 421 422 
f 358 423 359 
f 358 422 423 
f 359 424 360 
f 359 423 424 
f 360 425 361 
f 360 424 425 
f 361 426 362 
f 361 425 426 
f 362 427 363 
f 362 426 427 
f 363 428 364 
f 363 427 428 
f 364 429 365 
f 364 428 429 
f 365 430 366 
f 365 429 430 
f 366 431 367 
f 366 430 431 
f 367 432 368 
f 367 431 432 
f 368 433 369 
f 368 432 433 
f 369 434 370 
f 369 433 434 
f 370 435 371 
f 370 434 435 
f 371 436 372 
f 371 435 436 
f 372 437 373 
f 372 436 437 
f 373 438 374 
f 373 437 438 
f 374 439 375 
f 374 438 439 
f 375 440 376 
f 375 439 440 
f 376 441 377 
f 376 440 441 
f 377 442 378 
f 377 441 442 
f 378 443 379 
f 378 442 443 
f 379 444 380 
f 379 443 444 
f 380 445 381 
f 380 444 445 
f 381 446 382 
f 381 445 446 
f 382 447 383 
f 382 446 447 
f 383 448 384 
f 383 447 448 
f 384 385 321 
f 384 448 385 
f 385 450 386 
f 385 449 450 
f 386 451 387 
f 386 450 451 
f 387 452 388 
f 387 451 452 
f 388 453 389 
f 388 452 453 
f 389 454 390 
f 389 453 454 
f 390 455 391 
f 390 454 455 
f 391 456 392 
f 391 455 456 
f 392 457 393 
f 392 456 457 
f 393 458 394 
f 393 457 458 
f 394 459 395 
f 394 458 459 
f 395 460 396 
f 395 459 460 
f 396 461 397 
f 396 460 461 
f 397 462 398 
f 397 461 462 
f 398 463 399 
f 398 462 463 
f 399 464 400 
f 399 463 464 
f 400 465 401 
f 400 464 465 
f 401 466 402 
f 401 465 466 
f 402 467 403 
f 402 466 467 
f 403 468 404 
f 403 467 468 
f 404 469 405 
f 404 468 469 
f 405 470 406 
f 405 469 470 
f 406 471 407 
f 406 470 471 
f 407 472 408 
f 407 471 472 
f 408 473 409 
f 408 472 473 
f 409 474 410 
f 409 473 474 
f 410 475 411 
f 410 474 475 
f 411 476 412 
f 411 475 476 
f 412 477 413 
f 412 476 477 
f 413 478 414 
f 413 477 478 
f 414 479 415 
f 414 478 479 
f 415 480 416 
f 415 479 480 
f 416 481 417 
f 416 480 481 
f 417 482 418 
f 417 481 482 
f 418 483 419 
f 418 482 483 
f 419 484 420 
f 419 483 484 
f 420 485 421 
f 420 484 485 
f 421 486 422 
f 421 485 486 
f 422 487 423 
f 422 486 487 
f 423 488 424 
f 423 487 488 
f 424 489 425 
f 424 488 489 
f 425 490 426 
f 425 489 490 
f 426 491 427 
f 426 490 491 
f 427 492 428 
f 427 491 492 
f 428 493 429 
f 428 492 493 
f 429 494 430 
f 429 493 494 
f 430 495 431 
f 430 494 495 
f 431 496 432 
f 431 495 496 
f 432 497 433 
f 432 496 497 
f 433 498 434 
f 433 497 498 
f 434 499 435 
f 434 498 499 
f 435 500 436 
f 435 499 500 
f 436 501 437 
f 436 500 501 
f 437 502 438 
f 437 501 502 
f 438 503 439 
f 438 502 503 
f 439 504 440 
f 439 503 504 
f 440 505 441 
f 440 504 505 
f 441 506 442 
f 441 505 506 
f 442 507 443 
f 442 506 507 
f 443 508 444 
f 443 507 508 
f 444 509 445 
f 444 508 509 
f 445 510 446 
f 445 509 510 
f 446 511 447 
f 446 510 511 
f 447 512 448 
f 447 511 512 
f 448 449 385 
f 448 512 449 
f 449 514 450 
f 449 513 514 
f 450 515 451 
f 450 514 515 
f 451 516 452 
f 451 515 516 
f 452 517 453 
f 452 516 517 
f 453 518 454 
f 453 517 518 
f 454 519 455 
f 454 518 519 
f 455 520 456 
f 455 519 520 
f 456 521 457 
f 456 520 521 
f 457 522 458 
f 457 521 522 
f 458 523 459 
f 458 522 523 
f 459 524 460 
f 459 523 524 
f 460 525 461 
f 460 524 525 
f 461 526 462 
f 461 525 526 
f 462 527 463 
f 462 526 527 
f 463 528 464 
f 463 527 528 
f 464 529 465 
f 464 528 529 
f 465 530 466 
f 465 529 530 
f 466 531 467 
f 466 530 531 
f 467 532 468 
f 467 531 532 
f 468 533 469 
f 468 532 533 
f 469 534 470 
f 469 533 534 
f 470 535 471 
f 470 534 535 
f 471 536 472 
f 471 535 536 
f 472 537 473 
f 472 536 537 
f 473 538 474 
f 473 537 538 
f 474 539 475 
f 474 538 539 
f 475 540 476 
f 475 539 540 
f 476 541 477 
f 476 540 541 
f 477 542 478 
f 477 541 542 
f 478 543 479 
f 478 542 543 
f 479 544 480 
f 479 543 544 
f 480 545 481 
f 480 544 545 
f 481 546 482 
f 481 545 546 
f 482 547 483 
f 482 546 547 
f 483 548 484 
f 483 547 548 
f 484 549 485 
f 484 548 549 
f 485 550 486 
f 485 549 550 
f 486 551 487 
f 486 550 551 
f 487 552 488 
f 487 551 552 
f 488 553 489 
f 488 552 553 
f 489 554 490 
f 489 553 554 
f 490 555 491 
f 490 554 555 
f 491 556 492 
f 491 555 556 
f 492 557 493 
f 492 556 557 
f 493 558 494 
f 493 557 558 
f 494 559 495 
f 494 558 559 
f 495 560 496 
f 495 559 560 
f 496 561 497 
f 496 560 561 
f 497 562 498 
f 497 561 562 
f 498 563 499 
f 498 562 563 
f 499 564 500 
f 499 563 564 
f 500 565 501 
f 500 564 565 
f 501 566 502 
f 501 565 566 
f 502 567 503 
f 502 566 567 
f 503 568 504 
f 503 567 568 
f 504 569 505 
f 504 568 569 
f 505 570 506 
f 505 569 570 
f 506 571 507 
f 506 570 571 
f 507 572 508 
f 507 571 572 
f 508 573 509 
f 508 572 573 
f 509 574 510 
f 509 573 574 
f 510 575 511 
f 510 574 575 
f 511 576 512 
f 511 575 576 
f 512 513 449 
f 512 576 513 
f 513 578 514 
f 513 577 578 
f 514 579 515 
f 514 578 579 
f 515 580 516 
f 515 579 580 
f 516 581 517 
f 516 580 581 
f 517 582 518 
f 517 581 582 
f 518 583 519 
f 518 582 583 
f 519 584 520 
f 519 583 584 
f 520 585 521 
f 520 584 585 
f 521 586 522 
f 521 585 586 
f 522 587 523 
f 522 586 587 
f 523 588 524 
f 523 587 588 
f 524 589 525 
f 524 588 589 
f 525 590 526 
f 525 589 590 
f 526 591 527 
f 526 590 591 
f 527 592 528 
f 527 591 592 
f 528 593 529 
f 528 592 593 
f 529 594 530 
f 529 593 594 
f 530 595 531 
f 530 594 595 
f 531 596 532 
f 531 595 596 
f 532 597 533 
f 532 596 597 
f 533 598 534 
f 533 597 598 
f 534 599 535 
f 534 598 599 
f 535 600 536 
f 535 599 600 
f 536 601 537 
f 536 600 601 
f 537 602 538 
f 537 601 602 
f 538 603 539 
f 538 602 603 
f 539 604 540 
f 539 603 604 
f 540 605 541 
f 540 604 605 
f 541 606 542 
f 541 605 606 
f 542 607 543 
f 542 606 607 
f 543 608 544 
f 543 607 608 
f 544 609 545 
f 544 608 609 
f 545 610 546 
f 545 609 610 
f 546 611 547 
f 546 610 611 
f 547 612 548 
f 547 611 612 
f 548 613 549 
f 548 612 613 
f 549 614 550 
f 549 613 614 
f 550 615 551 
f 550 614 615 
f 551 616 552 
f 551 615 616 
f 552 617 553 
f 552 616 617 
f 553 618 554 
f 553 617 618 
f 554 619 555 
f 554 618 619 
f 555 620 556 
f 555 619 620 
f 556 621 557 
f 556 620 621 
f 557 622 558 
f 557 621 622 
f 558 623 559 
f 558 622 623 
f 559 624 560 
f 559 623 624 
f 560 625 561 
f 560 624 625 
f 561 626 562 
f 561 625 626 
f 562 627 563 
f 562 626 627 
f 563 628 564 
f 563 627 628 
f 564 629 565 
f 564 628 629 
f 565 630 566 
f 565 629 630 
f 566 631 567 
f 566 630 631 
f 567 632 568 
f 567 631 632 
f 568 633 569 
f 568 632 633 
f 569 634 570 
f 569 633 634 
f 570 635 571 
f 570 634 635 
f 571 636 572 
f 571 635 636 
f 572 637 573 
f 572 636 637 
f 573 638 574 
f 573 637 638 
f 574 639 575 
f 574 638 639 
f 575 640 576 
f 575 639 640 
f 576 577 513 
f 576 640 577 
