# Branch
v -6.00343 -6.58629 -33.1851
vn -0.694636 -0.0544964 0.717294
v -6.00427 -6.5779 -33.1859
vn -0.70435 0.042766 0.708564
v -6.00452 -6.56954 -33.1872
vn -0.707281 0.139616 0.693009
v -6.00418 -6.56129 -33.1891
vn -0.7034 0.235122 0.67078
v -6.00326 -6.55324 -33.1916
vn -0.692745 0.328364 0.642092
v -6.00177 -6.54547 -33.1946
vn -0.675418 0.418443 0.60722
v -5.99971 -6.53804 -33.1981
vn -0.651587 0.504492 0.566499
v -5.99711 -6.53103 -33.2021
vn -0.621481 0.585683 0.520324
v -5.994 -6.52451 -33.2065
vn -0.585389 0.661234 0.469137
v -5.9904 -6.51854 -33.2113
vn -0.54366 0.730416 0.413432
v -5.98634 -6.51318 -33.2165
vn -0.496695 0.792564 0.353745
v -5.98187 -6.50847 -33.2219
vn -0.444947 0.847079 0.290652
v -5.97704 -6.50447 -33.2276
vn -0.388914 0.893437 0.22476
v -5.97188 -6.50121 -33.2335
vn -0.329135 0.93119 0.156703
v -5.96644 -6.49872 -33.2395
vn -0.266186 0.959975 0.0871369
v -5.96079 -6.49704 -33.2456
vn -0.200674 0.979515 0.0167316
v -5.95497 -6.49617 -33.2517
vn -0.13323 0.989622 -0.0538347
v -5.94904 -6.49612 -33.2577
vn -0.0645019 0.990198 -0.123883
v -5.94305 -6.49689 -33.2637
vn 0.004847 0.981238 -0.192737
v -5.93707 -6.49848 -33.2694
vn 0.0741493 0.962829 -0.259736
v -5.93115 -6.50087 -33.275
vn 0.142737 0.935146 -0.324233
v -5.92535 -6.50403 -33.2803
vn 0.209951 0.898458 -0.385608
v -5.91972 -6.50795 -33.2853
vn 0.275143 0.853117 -0.443269
v -5.91432 -6.51257 -33.2899
vn 0.337684 0.79956 -0.496661
v -5.9092 -6.51786 -33.2941
vn 0.396974 0.738303 -0.545271
v -5.90441 -6.52376 -33.2978
vn 0.452441 0.669936 -0.588628
v -5.9 -6.53022 -33.3011
vn 0.50355 0.595117 -0.626317
v -5.89601 -6.53717 -33.3038
vn 0.54981 0.514566 -0.657975
v -5.89247 -6.54455 -33.306
vn 0.590775 0.42906 -0.683295
v -5.88943 -6.55229 -33.3076
vn 0.626051 0.339422 -0.702035
v -5.8869 -6.56031 -33.3086
vn 0.655297 0.246515 -0.714014
v -5.88492 -6.56853 -33.3091
vn 0.678232 0.151234 -0.719117
v -5.88351 -6.57688 -33.3089
vn 0.694636 0.0544964 -0.717294
v -5.88267 -6.58528 -33.3082
vn 0.70435 -0.042766 -0.708564
v -5.88242 -6.59364 -33.3068
vn 0.707281 -0.139616 -0.693009
v -5.88275 -6.60188 -33.3049
vn 0.7034 -0.235122 -0.67078
v -5.88367 -6.60993 -33.3024
vn 0.692745 -0.328364 -0.642092
v -5.88517 -6.61771 -33.2994
vn 0.675418 -0.418443 -0.60722
v -5.88722 -6.62513 -33.2959
vn 0.651587 -0.504492 -0.566499
v -5.88982 -6.63214 -33.2919
vn 0.621481 -0.585683 -0.520324
v -5.89294 -6.63866 -33.2875
vn 0.585389 -0.661234 -0.469137
v -5.89654 -6.64463 -33.2827
vn 0.54366 -0.730416 -0.413432
v -5.90059 -6.65 -33.2776
vn 0.496695 -0.792564 -0.353745
v -5.90506 -6.6547 -33.2721
vn 0.444947 -0.847079 -0.290652
v -5.9099 -6.65871 -33.2664
vn 0.388914 -0.893437 -0.22476
v -5.91506 -6.66197 -33.2605
vn 0.329135 -0.93119 -0.156703
v -5.92049 -6.66445 -33.2545
vn 0.266186 -0.959975 -0.0871369
v -5.92615 -6.66614 -33.2485
vn 0.200674 -0.979515 -0.0167316
v -5.93197 -6.66701 -33.2424
vn 0.13323 -0.989622 0.0538347
v -5.9379 -6.66706 -33.2363
vn 0.0645019 -0.990198 0.123883
v -5.94389 -6.66629 -33.2304
vn -0.004847 -0.981238 0.192737
v -5.94987 -6.6647 -33.2246
vn -0.0741493 -0.962829 0.259736
v -5.95579 -6.66231 -33.219
vn -0.142737 -0.935146 0.324233
v -5.96159 -6.65914 -33.2137
vn -0.209951 -0.898458 0.385608
v -5.96722 -6.65523 -33.2088
vn -0.275143 -0.853117 0.443269
v -5.97262 -6.6506 -33.2041
vn -0.337684 -0.79956 0.496661
v -5.97773 -6.64532 -33.1999
vn -0.396974 -0.738303 0.545271
v -5.98252 -6.63941 -33.1962
vn -0.452441 -0.669936 0.588628
v -5.98693 -6.63296 -33.193
vn -0.50355 -0.595117 0.626317
v -5.99093 -6.626 -33.1902
vn -0.54981 -0.514566 0.657975
v -5.99446 -6.61862 -33.188
vn -0.590775 -0.42906 0.683295
v -5.99751 -6.61089 -33.1864
vn -0.626051 -0.339422 0.702035
v -6.00003 -6.60287 -33.1854
vn -0.655297 -0.246515 0.714014
v -6.00201 -6.59464 -33.1849
vn -0.678232 -0.151234 0.719117
v -4.74928 -6.35536 -32.0437
vn -0.610864 -0.0392217 0.790764
v -4.75042 -6.34441 -32.0447
vn -0.620981 0.057967 0.781679
v -4.75089 -6.33352 -32.0466
vn -0.625118 0.154598 0.765067
v -4.75068 -6.32281 -32.0493
vn -0.623235 0.249739 0.741086
v -4.74979 -6.31236 -32.0528
vn -0.615349 0.342476 0.709969
v -4.74823 -6.30228 -32.0571
vn -0.601538 0.431914 0.672014
v -4.74602 -6.29267 -32.0621
vn -0.581933 0.517193 0.627587
v -4.74318 -6.28363 -32.0678
vn -0.556724 0.597491 0.577116
v -4.73974 -6.27523 -32.0741
vn -0.526154 0.672034 0.521087
v -4.73572 -6.26756 -32.081
vn -0.490516 0.740106 0.46004
v -4.73118 -6.2607 -32.0884
vn -0.450154 0.80105 0.394563
v -4.72614 -6.2547 -32.0962
vn -0.405457 0.85428 0.325285
v -4.72067 -6.24963 -32.1043
vn -0.356856 0.899282 0.252875
v -4.7148 -6.24554 -32.1127
vn -0.304817 0.935624 0.17803
v -4.70861 -6.24246 -32.1214
vn -0.249843 0.962955 0.10147
v -4.70215 -6.24042 -32.1301
vn -0.192463 0.981012 0.0239329
v -4.69547 -6.23945 -32.1389
vn -0.13323 0.989622 -0.0538347
v -4.68866 -6.23956 -32.1476
vn -0.072713 0.988701 -0.131084
v -4.68176 -6.24073 -32.1561
vn -0.0114961 0.978258 -0.207071
v -4.67485 -6.24297 -32.1645
vn 0.0498315 0.958395 -0.281063
v -4.66799 -6.24625 -32.1725
vn 0.110679 0.929301 -0.352349
v -4.66126 -6.25053 -32.1801
vn 0.170461 0.891258 -0.420241
v -4.65471 -6.25579 -32.1873
vn 0.228601 0.844631 -0.484087
v -4.64841 -6.26196 -32.194
vn 0.28454 0.78987 -0.54327
v -4.64241 -6.26898 -32.2001
vn 0.337738 0.727502 -0.597221
v -4.63679 -6.2768 -32.2055
vn 0.387684 0.658128 -0.645421
v -4.63158 -6.28533 -32.2102
vn 0.433896 0.582416 -0.687405
v -4.62685 -6.29449 -32.2142
vn 0.47593 0.501095 -0.722769
v -4.62263 -6.30419 -32.2174
vn 0.51338 0.414948 -0.751172
v -4.61897 -6.31435 -32.2198
vn 0.545886 0.324805 -0.772341
v -4.6159 -6.32486 -32.2214
vn 0.573135 0.231534 -0.786072
v -4.61345 -6.33562 -32.2221
vn 0.594864 0.136033 -0.792233
v -4.61165 -6.34652 -32.2219
vn 0.610864 0.0392217 -0.790764
v -4.61051 -6.35747 -32.2209
vn 0.620981 -0.057967 -0.781679
v -4.61004 -6.36836 -32.219
vn 0.625118 -0.154598 -0.765067
v -4.61025 -6.37908 -32.2163
vn 0.623235 -0.249739 -0.741086
v -4.61114 -6.38952 -32.2128
vn 0.615349 -0.342476 -0.709969
v -4.6127 -6.3996 -32.2085
vn 0.601538 -0.431914 -0.672014
v -4.6149 -6.40921 -32.2035
vn 0.581933 -0.517193 -0.627587
v -4.61774 -6.41825 -32.1978
vn 0.556724 -0.597491 -0.577116
v -4.62119 -6.42665 -32.1915
vn 0.526154 -0.672034 -0.521087
v -4.6252 -6.43432 -32.1846
vn 0.490516 -0.740106 -0.46004
v -4.62975 -6.44119 -32.1773
vn 0.450154 -0.80105 -0.394563
v -4.63479 -6.44718 -32.1694
vn 0.405457 -0.85428 -0.325285
v -4.64026 -6.45225 -32.1613
vn 0.356856 -0.899282 -0.252875
v -4.64612 -6.45635 -32.1529
vn 0.304817 -0.935624 -0.17803
v -4.65232 -6.45942 -32.1442
vn 0.249843 -0.962955 -0.10147
v -4.65878 -6.46146 -32.1355
vn 0.192463 -0.981012 -0.0239329
v -4.66545 -6.46243 -32.1267
vn 0.13323 -0.989622 0.0538347
v -4.67227 -6.46233 -32.118
vn 0.072713 -0.988701 0.131084
v -4.67917 -6.46115 -32.1095
vn 0.0114961 -0.978258 0.207071
v -4.68608 -6.45891 -32.1011
vn -0.0498315 -0.958395 0.281063
v -4.69293 -6.45563 -32.0931
vn -0.110679 -0.929301 0.352349
v -4.69967 -6.45135 -32.0855
vn -0.170461 -0.891258 0.420241
v -4.70622 -6.44609 -32.0783
vn -0.228601 -0.844631 0.484087
v -4.71252 -6.43993 -32.0716
vn -0.28454 -0.78987 0.54327
v -4.71851 -6.4329 -32.0655
vn -0.337738 -0.727502 0.597221
v -4.72414 -6.42508 -32.0601
vn -0.387684 -0.658128 0.645421
v -4.72935 -6.41655 -32.0554
vn -0.433896 -0.582416 0.687405
v -4.73408 -6.40739 -32.0514
vn -0.47593 -0.501095 0.722769
v -4.7383 -6.39769 -32.0482
vn -0.51338 -0.414948 0.751172
v -4.74196 -6.38753 -32.0458
vn -0.545886 -0.324805 0.772341
v -4.74503 -6.37702 -32.0442
vn -0.573135 -0.231534 0.786072
v -4.74748 -6.36627 -32.0436
vn -0.594864 -0.136033 0.792233
v -3.49168 -6.13781 -31.1569
vn -0.498016 -0.0198855 0.86694
v -3.49317 -6.12431 -31.1582
vn -0.508677 0.0772102 0.857488
v -3.49397 -6.11092 -31.1607
vn -0.514439 0.173562 0.839779
v -3.49408 -6.09776 -31.1643
vn -0.515246 0.268243 0.813982
v -3.4935 -6.08496 -31.1689
vn -0.511092 0.36034 0.780346
v -3.49224 -6.07264 -31.1746
vn -0.502015 0.448967 0.739195
v -3.49031 -6.06092 -31.1814
vn -0.488104 0.53327 0.690925
v -3.48772 -6.04992 -31.189
vn -0.469492 0.612438 0.636001
v -3.4845 -6.03973 -31.1975
vn -0.446358 0.685707 0.574952
v -3.48069 -6.03047 -31.2067
vn -0.418926 0.752373 0.508366
v -3.47632 -6.02221 -31.2167
vn -0.387459 0.811793 0.436884
v -3.47143 -6.01504 -31.2272
vn -0.352261 0.863395 0.361195
v -3.46606 -6.00902 -31.2382
vn -0.313671 0.906682 0.282027
v -3.46028 -6.00422 -31.2496
vn -0.272059 0.941237 0.200143
v -3.45413 -6.00067 -31.2612
vn -0.227828 0.966727 0.116331
v -3.44768 -5.99842 -31.273
vn -0.181402 0.982908 0.0313995
v -3.44098 -5.99749 -31.2849
vn -0.13323 0.989622 -0.0538347
v -3.43411 -5.99788 -31.2967
vn -0.083774 0.986806 -0.13855
v -3.42712 -5.99959 -31.3082
vn -0.0335116 0.974486 -0.221932
v -3.42009 -6.00261 -31.3195
vn 0.0170736 0.952782 -0.303176
v -3.41308 -6.0069 -31.3304
vn 0.0674944 0.921901 -0.3815
v -3.40616 -6.01243 -31.3408
vn 0.117265 0.882143 -0.456151
v -3.3994 -6.01914 -31.3506
vn 0.165907 0.833888 -0.526408
v -3.39286 -6.02696 -31.3596
vn 0.21295 0.777603 -0.591595
v -3.38661 -6.03582 -31.3679
vn 0.257943 0.71383 -0.651086
v -3.3807 -6.04564 -31.3753
vn 0.300452 0.643181 -0.704306
v -3.37519 -6.05633 -31.3817
vn 0.340067 0.566339 -0.750743
v -3.37014 -6.06776 -31.3872
vn 0.376407 0.484042 -0.78995
v -3.36559 -6.07985 -31.3916
vn 0.409122 0.397084 -0.821549
v -3.36159 -6.09247 -31.3949
vn 0.437897 0.306301 -0.845237
v -3.35818 -6.1055 -31.397
vn 0.462455 0.212569 -0.860784
v -3.35539 -6.11881 -31.398
vn 0.482559 0.11679 -0.868042
v -3.35324 -6.13228 -31.3979
vn 0.498016 0.0198855 -0.86694
v -3.35176 -6.14578 -31.3966
vn 0.508677 -0.0772102 -0.857488
v -3.35096 -6.15917 -31.3941
vn 0.514439 -0.173562 -0.839779
v -3.35084 -6.17233 -31.3905
vn 0.515246 -0.268243 -0.813982
v -3.35142 -6.18513 -31.3859
vn 0.511092 -0.36034 -0.780346
v -3.35268 -6.19745 -31.3801
vn 0.502015 -0.448967 -0.739195
v -3.35462 -6.20917 -31.3734
vn 0.488104 -0.53327 -0.690925
v -3.3572 -6.22017 -31.3658
vn 0.469492 -0.612438 -0.636001
v -3.36042 -6.23036 -31.3573
vn 0.446358 -0.685707 -0.574952
v -3.36423 -6.23962 -31.3481
vn 0.418926 -0.752373 -0.508366
v -3.36861 -6.24788 -31.3381
vn 0.387459 -0.811793 -0.436884
v -3.3735 -6.25506 -31.3276
vn 0.352261 -0.863395 -0.361195
v -3.37886 -6.26107 -31.3166
vn 0.313671 -0.906682 -0.282027
v -3.38465 -6.26588 -31.3052
vn 0.272059 -0.941237 -0.200143
v -3.39079 -6.26942 -31.2936
vn 0.227828 -0.966727 -0.116331
v -3.39725 -6.27167 -31.2818
vn 0.181402 -0.982908 -0.0313995
v -3.40394 -6.2726 -31.2699
vn 0.13323 -0.989622 0.0538347
v -3.41082 -6.27221 -31.2581
vn 0.083774 -0.986806 0.13855
v -3.4178 -6.2705 -31.2465
vn 0.0335116 -0.974486 0.221932
v -3.42483 -6.26748 -31.2353
vn -0.0170736 -0.952782 0.303176
v -3.43184 -6.26319 -31.2244
vn -0.0674944 -0.921901 0.3815
v -3.43876 -6.25766 -31.214
vn -0.117265 -0.882143 0.456151
v -3.44552 -6.25095 -31.2042
vn -0.165907 -0.833888 0.526408
v -3.45206 -6.24313 -31.1952
vn -0.21295 -0.777603 0.591595
v -3.45831 -6.23427 -31.1869
vn -0.257943 -0.71383 0.651086
v -3.46422 -6.22445 -31.1795
vn -0.300452 -0.643181 0.704306
v -3.46973 -6.21377 -31.173
vn -0.340067 -0.566339 0.750743
v -3.47478 -6.20233 -31.1676
vn -0.376407 -0.484042 0.78995
v -3.47933 -6.19024 -31.1632
vn -0.409122 -0.397084 0.821549
v -3.48333 -6.17762 -31.1599
vn -0.437897 -0.306301 0.845237
v -3.48674 -6.16459 -31.1577
vn -0.462455 -0.212569 0.860784
v -3.48954 -6.15128 -31.1567
vn -0.482559 -0.11679 0.868042
v -2.22741 -5.93328 -30.5259
vn -0.350496 0.00376177 0.936557
v -2.22929 -5.91725 -30.5276
vn -0.361867 0.100744 0.92677
v -2.2306 -5.90137 -30.5306
vn -0.369754 0.196755 0.908058
v -2.23131 -5.88581 -30.5352
vn -0.374079 0.290872 0.880601
v -2.23143 -5.87071 -30.5411
vn -0.374801 0.382187 0.844664
v -2.23095 -5.85622 -30.5484
vn -0.371914 0.469822 0.800592
v -2.22988 -5.84248 -30.557
vn -0.365446 0.552932 0.748809
v -2.22823 -5.82962 -30.5667
vn -0.355457 0.630717 0.689816
v -2.22601 -5.81776 -30.5776
vn -0.342046 0.702428 0.624179
v -2.22325 -5.80703 -30.5894
vn -0.325341 0.767375 0.55253
v -2.21997 -5.79751 -30.6022
vn -0.305502 0.824931 0.475561
v -2.21621 -5.78931 -30.6156
vn -0.282721 0.874542 0.394012
v -2.21199 -5.7825 -30.6297
vn -0.257217 0.915731 0.308668
v -2.20736 -5.77715 -30.6444
vn -0.229237 0.948101 0.220351
v -2.20237 -5.7733 -30.6593
vn -0.199048 0.971341 0.129913
v -2.19706 -5.77101 -30.6745
vn -0.166943 0.985225 0.0382231
v -2.19149 -5.77028 -30.6897
vn -0.13323 0.989622 -0.0538347
v -2.1857 -5.77113 -30.7048
vn -0.0982335 0.984488 -0.145374
v -2.17976 -5.77355 -30.7197
vn -0.0622913 0.969873 -0.235513
v -2.17372 -5.77751 -30.7343
vn -0.0257492 0.945917 -0.323385
v -2.16764 -5.78297 -30.7483
vn 0.011041 0.912852 -0.408141
v -2.16157 -5.78989 -30.7616
vn 0.0477247 0.870995 -0.488968
v -2.15558 -5.7982 -30.7742
vn 0.0839489 0.820751 -0.565085
v -2.14973 -5.80782 -30.7859
vn 0.119365 0.762602 -0.63576
v -2.14406 -5.81864 -30.7966
vn 0.153631 0.697108 -0.700312
v -2.13864 -5.83058 -30.8061
vn 0.186417 0.624902 -0.75812
v -2.13351 -5.84352 -30.8145
vn 0.217409 0.546677 -0.808627
v -2.12874 -5.85732 -30.8215
vn 0.246306 0.463187 -0.851347
v -2.12435 -5.87186 -30.8273
vn 0.272832 0.375237 -0.885867
v -2.1204 -5.887 -30.8315
vn 0.29673 0.283672 -0.911856
v -2.11692 -5.90259 -30.8344
vn 0.31777 0.189376 -0.929063
v -2.11395 -5.91848 -30.8358
vn 0.33575 0.0932563 -0.937323
v -2.11151 -5.93453 -30.8356
vn 0.350496 -0.00376177 -0.936557
v -2.10963 -5.95056 -30.834
vn 0.361867 -0.100744 -0.92677
v -2.10833 -5.96643 -30.8309
vn 0.369754 -0.196755 -0.908058
v -2.10761 -5.982 -30.8264
vn 0.374079 -0.290872 -0.880601
v -2.10749 -5.99709 -30.8204
vn 0.374801 -0.382187 -0.844664
v -2.10797 -6.01158 -30.8132
vn 0.371914 -0.469822 -0.800592
v -2.10904 -6.02532 -30.8046
vn 0.365446 -0.552932 -0.748809
v -2.11069 -6.03819 -30.7948
vn 0.355457 -0.630717 -0.689816
v -2.11291 -6.05004 -30.784
vn 0.342046 -0.702428 -0.624179
v -2.11567 -6.06078 -30.7721
vn 0.325341 -0.767375 -0.55253
v -2.11895 -6.0703 -30.7594
vn 0.305502 -0.824931 -0.475561
v -2.12272 -6.0785 -30.7459
vn 0.282721 -0.874542 -0.394012
v -2.12693 -6.08531 -30.7318
vn 0.257217 -0.915731 -0.308668
v -2.13156 -6.09066 -30.7172
vn 0.229237 -0.948101 -0.220351
v -2.13655 -6.0945 -30.7023
vn 0.199048 -0.971341 -0.129913
v -2.14186 -6.0968 -30.6871
vn 0.166943 -0.985225 -0.0382231
v -2.14743 -6.09753 -30.6719
vn 0.13323 -0.989622 0.0538347
v -2.15322 -6.09668 -30.6567
vn 0.0982335 -0.984488 0.145374
v -2.15916 -6.09426 -30.6418
vn 0.0622913 -0.969873 0.235513
v -2.1652 -6.0903 -30.6273
vn 0.0257492 -0.945917 0.323385
v -2.17129 -6.08483 -30.6133
vn -0.011041 -0.912852 0.408141
v -2.17735 -6.07791 -30.5999
vn -0.0477247 -0.870995 0.488968
v -2.18334 -6.0696 -30.5874
vn -0.0839489 -0.820751 0.565085
v -2.1892 -6.05999 -30.5757
vn -0.119365 -0.762602 0.63576
v -2.19486 -6.04916 -30.565
vn -0.153631 -0.697108 0.700312
v -2.20028 -6.03722 -30.5554
vn -0.186417 -0.624902 0.75812
v -2.20541 -6.02429 -30.5471
vn -0.217409 -0.546677 0.808627
v -2.21018 -6.01049 -30.54
vn -0.246306 -0.463187 0.851347
v -2.21457 -5.99594 -30.5343
vn -0.272832 -0.375237 0.885867
v -2.21852 -5.98081 -30.53
vn -0.29673 -0.283672 0.911856
v -2.222 -5.96521 -30.5272
vn -0.31777 -0.189376 0.929063
v -2.22497 -5.94932 -30.5258
vn -0.33575 -0.0932563 0.937323
v -0.953906 -5.74161 -30.1542
vn -0.16926 0.0308013 0.98509
v -0.956253 -5.72304 -30.1561
vn -0.181504 0.127653 0.97507
v -0.958264 -5.70472 -30.1598
vn -0.191999 0.223275 0.955659
v -0.959922 -5.6868 -30.1653
vn -0.200646 0.316747 0.927045
v -0.961209 -5.66947 -30.1725
vn -0.20736 0.407169 0.889503
v -0.962113 -5.65289 -30.1813
vn -0.212078 0.493669 0.843394
v -0.962626 -5.63722 -30.1917
vn -0.214753 0.575415 0.789163
v -0.962742 -5.62261 -30.2036
vn -0.21536 0.651619 0.727333
v -0.962461 -5.60921 -30.2168
vn -0.213892 0.721548 0.658497
v -0.961785 -5.59714 -30.2312
vn -0.210365 0.784528 0.58332
v -0.96072 -5.58651 -30.2467
vn -0.204812 0.839953 0.502525
v -0.959278 -5.57744 -30.2631
vn -0.197287 0.887288 0.41689
v -0.957471 -5.57 -30.2803
vn -0.187861 0.926079 0.327241
v -0.955318 -5.56428 -30.298
vn -0.176626 0.95595 0.23444
v -0.952838 -5.56032 -30.3163
vn -0.163691 0.976616 0.139381
v -0.950057 -5.55816 -30.3347
vn -0.149179 0.987876 0.0429802
v -0.947 -5.55782 -30.3533
vn -0.13323 0.989622 -0.0538347
v -0.943697 -5.55932 -30.3718
vn -0.115998 0.981838 -0.150131
v -0.940179 -5.56262 -30.3899
vn -0.0976488 0.964598 -0.244982
v -0.936482 -5.5677 -30.4077
vn -0.0783594 0.938068 -0.337473
v -0.93264 -5.57452 -30.4248
vn -0.0583153 0.902504 -0.426714
v -0.92869 -5.583 -30.4411
vn -0.0377096 0.858249 -0.511846
v -0.924671 -5.59307 -30.4565
vn -0.0167407 0.805728 -0.592049
v -0.920621 -5.60463 -30.4707
vn 0.00438933 0.745448 -0.666549
v -0.916579 -5.61756 -30.4838
vn 0.0254771 0.677989 -0.734631
v -0.912584 -5.63174 -30.4955
vn 0.0463196 0.604 -0.795637
v -0.908674 -5.64704 -30.5057
vn 0.0667159 0.524194 -0.848981
v -0.904888 -5.6633 -30.5144
vn 0.0864698 0.43934 -0.894149
v -0.901261 -5.68038 -30.5214
vn 0.105391 0.350255 -0.930706
v -0.897829 -5.6981 -30.5267
vn 0.123297 0.257797 -0.9583
v -0.894624 -5.7163 -30.5302
vn 0.140016 0.162856 -0.976664
v -0.891678 -5.7348 -30.5319
vn 0.155386 0.066347 -0.985623
v -0.889019 -5.75342 -30.5318
vn 0.16926 -0.0308013 -0.98509
v -0.886672 -5.77198 -30.5299
vn 0.181504 -0.127653 -0.97507
v -0.88466 -5.79031 -30.5262
vn 0.191999 -0.223275 -0.955659
v -0.883003 -5.80823 -30.5207
vn 0.200646 -0.316747 -0.927045
v -0.881716 -5.82556 -30.5135
vn 0.20736 -0.407169 -0.889503
v -0.880811 -5.84214 -30.5046
vn 0.212078 -0.493669 -0.843394
v -0.880299 -5.85781 -30.4942
vn 0.214753 -0.575415 -0.789163
v -0.880182 -5.87241 -30.4824
vn 0.21536 -0.651619 -0.727333
v -0.880464 -5.88582 -30.4692
vn 0.213892 -0.721548 -0.658497
v -0.88114 -5.89789 -30.4548
vn 0.210365 -0.784528 -0.58332
v -0.882204 -5.90851 -30.4393
vn 0.204812 -0.839953 -0.502525
v -0.883647 -5.91759 -30.4229
vn 0.197287 -0.887288 -0.41689
v -0.885453 -5.92502 -30.4057
vn 0.187861 -0.926079 -0.327241
v -0.887607 -5.93075 -30.3879
vn 0.176626 -0.95595 -0.23444
v -0.890086 -5.93471 -30.3697
vn 0.163691 -0.976616 -0.139381
v -0.892868 -5.93687 -30.3512
vn 0.149179 -0.987876 -0.0429802
v -0.895925 -5.9372 -30.3327
vn 0.13323 -0.989622 0.0538347
v -0.899228 -5.93571 -30.3142
vn 0.115998 -0.981838 0.150131
v -0.902745 -5.93241 -30.296
vn 0.0976488 -0.964598 0.244982
v -0.906442 -5.92732 -30.2783
vn 0.0783594 -0.938068 0.337473
v -0.910284 -5.9205 -30.2612
vn 0.0583153 -0.902504 0.426714
v -0.914234 -5.91202 -30.2449
vn 0.0377096 -0.858249 0.511846
v -0.918253 -5.90195 -30.2295
vn 0.0167407 -0.805728 0.592049
v -0.922304 -5.8904 -30.2152
vn -0.00438933 -0.745448 0.666549
v -0.926346 -5.87747 -30.2022
vn -0.0254771 -0.677989 0.734631
v -0.930341 -5.86329 -30.1905
vn -0.0463196 -0.604 0.795637
v -0.93425 -5.84799 -30.1802
vn -0.0667159 -0.524194 0.848981
v -0.938037 -5.83172 -30.1716
vn -0.0864698 -0.43934 0.894149
v -0.941663 -5.81465 -30.1646
vn -0.105391 -0.350255 0.930706
v -0.945096 -5.79693 -30.1593
vn -0.123297 -0.257797 0.9583
v -0.9483 -5.77873 -30.1558
vn -0.140016 -0.162856 0.976664
v -0.951246 -5.76023 -30.1541
vn -0.155386 -0.066347 0.985623
v 0.328677 -5.56308 -30.0464
vn 0.0327624 0.058687 0.997739
v 0.325796 -5.54199 -30.0486
vn 0.0195458 0.155404 0.987658
v 0.322873 -5.52123 -30.0529
vn 0.00614105 0.250625 0.968065
v 0.319938 -5.501 -30.0592
vn -0.00732289 0.343432 0.939149
v 0.317018 -5.48149 -30.0675
vn -0.0207163 0.432932 0.901189
v 0.314141 -5.46288 -30.0777
vn -0.0339102 0.518262 0.854549
v 0.311336 -5.44537 -30.0896
vn -0.0467775 0.598601 0.79968
v 0.308629 -5.42911 -30.1033
vn -0.0591944 0.673175 0.73711
v 0.306046 -5.41426 -30.1185
vn -0.0710411 0.741266 0.667441
v 0.303613 -5.40097 -30.135
vn -0.0822037 0.802219 0.591344
v 0.301351 -5.38937 -30.1529
vn -0.0925746 0.855445 0.509552
v 0.299285 -5.37956 -30.1718
vn -0.102054 0.900434 0.422853
v 0.297432 -5.37164 -30.1916
vn -0.110551 0.93675 0.332081
v 0.295812 -5.36569 -30.2121
vn -0.117982 0.964045 0.238112
v 0.29444 -5.36177 -30.233
vn -0.124278 0.982056 0.141849
v 0.293328 -5.3599 -30.2543
vn -0.129377 0.990609 0.04422
v 0.292488 -5.36012 -30.2757
vn -0.13323 0.989622 -0.0538347
v 0.291928 -5.36241 -30.297
vn -0.135799 0.979104 -0.151371
v 0.291653 -5.36676 -30.3179
vn -0.137061 0.959157 -0.247449
v 0.291665 -5.37312 -30.3383
vn -0.137003 0.929973 -0.341145
v 0.291965 -5.38144 -30.3581
vn -0.135626 0.891833 -0.431555
v 0.292551 -5.39163 -30.3769
vn -0.132942 0.845104 -0.517809
v 0.293415 -5.40359 -30.3946
vn -0.128978 0.790236 -0.599076
v 0.29455 -5.41721 -30.411
vn -0.123772 0.727758 -0.674574
v 0.295945 -5.43236 -30.4261
vn -0.117374 0.65827 -0.743575
v 0.297586 -5.44889 -30.4396
vn -0.109846 0.582444 -0.805415
v 0.299458 -5.46664 -30.4514
vn -0.101259 0.501008 -0.859498
v 0.301543 -5.48545 -30.4613
vn -0.0916979 0.414747 -0.905304
v 0.30382 -5.50513 -30.4694
vn -0.0812533 0.324492 -0.942392
v 0.306267 -5.52549 -30.4755
vn -0.0700262 0.231112 -0.970404
v 0.308862 -5.54633 -30.4796
vn -0.0581247 0.135506 -0.98907
v 0.311579 -5.56746 -30.4816
vn -0.0456634 0.0385955 -0.998211
v 0.314392 -5.58867 -30.4815
vn -0.0327624 -0.058687 -0.997739
v 0.317273 -5.60976 -30.4793
vn -0.0195458 -0.155404 -0.987658
v 0.320196 -5.63052 -30.475
vn -0.00614105 -0.250625 -0.968065
v 0.323131 -5.65075 -30.4687
vn 0.00732289 -0.343432 -0.939149
v 0.326051 -5.67026 -30.4604
vn 0.0207163 -0.432932 -0.901189
v 0.328928 -5.68887 -30.4503
vn 0.0339102 -0.518262 -0.854549
v 0.331733 -5.70638 -30.4383
vn 0.0467775 -0.598601 -0.79968
v 0.33444 -5.72264 -30.4247
vn 0.0591944 -0.673175 -0.73711
v 0.337023 -5.73748 -30.4095
vn 0.0710411 -0.741266 -0.667441
v 0.339457 -5.75077 -30.3929
vn 0.0822037 -0.802219 -0.591344
v 0.341718 -5.76238 -30.3751
vn 0.0925746 -0.855445 -0.509552
v 0.343784 -5.77219 -30.3562
vn 0.102054 -0.900434 -0.422853
v 0.345637 -5.7801 -30.3364
vn 0.110551 -0.93675 -0.332081
v 0.347257 -5.78605 -30.3159
vn 0.117982 -0.964045 -0.238112
v 0.34863 -5.78998 -30.2949
vn 0.124278 -0.982056 -0.141849
v 0.349741 -5.79185 -30.2736
vn 0.129377 -0.990609 -0.04422
v 0.350581 -5.79163 -30.2522
vn 0.13323 -0.989622 0.0538347
v 0.351141 -5.78934 -30.231
vn 0.135799 -0.979104 0.151371
v 0.351417 -5.78499 -30.21
vn 0.137061 -0.959157 0.247449
v 0.351404 -5.77863 -30.1896
vn 0.137003 -0.929973 0.341145
v 0.351104 -5.77031 -30.1699
vn 0.135626 -0.891833 0.431555
v 0.350518 -5.76012 -30.1511
vn 0.132942 -0.845104 0.517809
v 0.349654 -5.74816 -30.1334
vn 0.128978 -0.790236 0.599076
v 0.348519 -5.73454 -30.1169
vn 0.123772 -0.727758 0.674574
v 0.347124 -5.71939 -30.1019
vn 0.117374 -0.65827 0.743575
v 0.345483 -5.70286 -30.0884
vn 0.109846 -0.582444 0.805415
v 0.343611 -5.6851 -30.0766
vn 0.101259 -0.501008 0.859498
v 0.341526 -5.6663 -30.0666
vn 0.0916979 -0.414747 0.905304
v 0.339249 -5.64662 -30.0585
vn 0.0812533 -0.324492 0.942392
v 0.336802 -5.62626 -30.0524
vn 0.0700262 -0.231112 0.970404
v 0.334207 -5.60542 -30.0483
vn 0.0581247 -0.135506 0.98907
v 0.33149 -5.58429 -30.0463
vn 0.0456634 -0.0385955 0.998211
v 1.6163 -5.39846 -30.207
vn 0.23234 0.0839922 0.969001
v 1.61284 -5.37486 -30.2094
vn 0.218163 0.180588 0.959058
v 1.60886 -5.35168 -30.2141
vn 0.201884 0.275444 0.939879
v 1.60441 -5.32915 -30.221
vn 0.183661 0.367648 0.911649
v 1.59952 -5.30748 -30.23
vn 0.16367 0.456311 0.874639
v 1.59425 -5.28689 -30.2411
vn 0.142102 0.540579 0.829205
v 1.58865 -5.26757 -30.2542
vn 0.119165 0.619641 0.775786
v 1.58276 -5.24971 -30.2691
vn 0.0950814 0.692736 0.714896
v 1.57665 -5.23348 -30.2856
vn 0.0700817 0.75916 0.64712
v 1.57038 -5.21903 -30.3037
vn 0.0444071 0.818272 0.573113
v 1.564 -5.20652 -30.3232
vn 0.0183049 0.869504 0.493586
v 1.55758 -5.19604 -30.3438
vn -0.00797367 0.912362 0.409306
v 1.55118 -5.18772 -30.3653
vn -0.0341754 0.946434 0.321084
v 1.54486 -5.18162 -30.3876
vn -0.0600481 0.971391 0.22977
v 1.53868 -5.17781 -30.4105
vn -0.0853424 0.986993 0.136242
v 1.5327 -5.17632 -30.4337
vn -0.109815 0.993089 0.0414032
v 1.52697 -5.17716 -30.4569
vn -0.13323 0.989622 -0.0538347
v 1.52157 -5.18034 -30.4801
vn -0.155362 0.976624 -0.148554
v 1.51652 -5.18581 -30.5029
vn -0.175997 0.954221 -0.241843
v 1.51189 -5.19353 -30.5251
vn -0.194938 0.922628 -0.332803
v 1.50772 -5.20343 -30.5465
vn -0.212001 0.882149 -0.420557
v 1.50405 -5.21539 -30.567
vn -0.227023 0.833175 -0.504262
v 1.50092 -5.22932 -30.5863
vn -0.239858 0.776177 -0.58311
v 1.49835 -5.24508 -30.6042
vn -0.250383 0.711704 -0.656343
v 1.49636 -5.26251 -30.6205
vn -0.258497 0.640377 -0.723254
v 1.49499 -5.28144 -30.6352
vn -0.264121 0.562883 -0.7832
v 1.49424 -5.3017 -30.648
vn -0.267202 0.479968 -0.835604
v 1.49411 -5.32309 -30.6588
vn -0.26771 0.39243 -0.87996
v 1.49462 -5.34541 -30.6676
vn -0.265639 0.301113 -0.915842
v 1.49575 -5.36843 -30.6742
vn -0.26101 0.206897 -0.942904
v 1.49749 -5.39194 -30.6786
vn -0.253868 0.110687 -0.960885
v 1.49984 -5.41571 -30.6807
vn -0.24428 0.0134122 -0.969612
v 1.50275 -5.43951 -30.6806
vn -0.23234 -0.0839922 -0.969001
v 1.50622 -5.46312 -30.6781
vn -0.218163 -0.180588 -0.959058
v 1.5102 -5.48629 -30.6734
vn -0.201884 -0.275444 -0.939879
v 1.51465 -5.50883 -30.6665
vn -0.183661 -0.367648 -0.911649
v 1.51954 -5.53049 -30.6575
vn -0.16367 -0.456311 -0.874639
v 1.52481 -5.55108 -30.6464
vn -0.142102 -0.540579 -0.829205
v 1.53041 -5.5704 -30.6333
vn -0.119165 -0.619641 -0.775786
v 1.5363 -5.58826 -30.6185
vn -0.0950814 -0.692736 -0.714896
v 1.5424 -5.6045 -30.6019
vn -0.0700817 -0.75916 -0.64712
v 1.54868 -5.61894 -30.5838
vn -0.0444071 -0.818272 -0.573113
v 1.55506 -5.63146 -30.5644
vn -0.0183049 -0.869504 -0.493586
v 1.56148 -5.64193 -30.5438
vn 0.00797367 -0.912362 -0.409306
v 1.56788 -5.65026 -30.5222
vn 0.0341754 -0.946434 -0.321084
v 1.5742 -5.65636 -30.4999
vn 0.0600481 -0.971391 -0.22977
v 1.58038 -5.66017 -30.4771
vn 0.0853424 -0.986993 -0.136242
v 1.58636 -5.66166 -30.4539
vn 0.109815 -0.993089 -0.0414032
v 1.59209 -5.66081 -30.4306
vn 0.13323 -0.989622 0.0538347
v 1.59749 -5.65764 -30.4075
vn 0.155362 -0.976624 0.148554
v 1.60254 -5.65216 -30.3847
vn 0.175997 -0.954221 0.241843
v 1.60716 -5.64444 -30.3624
vn 0.194938 -0.922628 0.332803
v 1.61133 -5.63455 -30.341
vn 0.212001 -0.882149 0.420557
v 1.615 -5.62258 -30.3205
vn 0.227023 -0.833175 0.504262
v 1.61814 -5.60865 -30.3013
vn 0.239858 -0.776177 0.58311
v 1.62071 -5.5929 -30.2834
vn 0.250383 -0.711704 0.656343
v 1.6227 -5.57547 -30.267
vn 0.258497 -0.640377 0.723254
v 1.62407 -5.55653 -30.2524
vn 0.264121 -0.562883 0.7832
v 1.62482 -5.53627 -30.2396
vn 0.267202 -0.479968 0.835604
v 1.62495 -5.51488 -30.2287
vn 0.26771 -0.39243 0.87996
v 1.62444 -5.49257 -30.22
vn 0.265639 -0.301113 0.915842
v 1.62331 -5.46954 -30.2134
vn 0.26101 -0.206897 0.942904
v 1.62156 -5.44603 -30.209
vn 0.253868 -0.110687 0.960885
v 1.61922 -5.42226 -30.2068
vn 0.24428 -0.0134122 0.969612
v 2.9028 -5.24865 -30.6368
vn 0.407395 0.104202 0.907288
v 2.89874 -5.22252 -30.6394
vn 0.392375 0.2007 0.897642
v 2.89365 -5.19692 -30.6443
vn 0.373575 0.295266 0.879352
v 2.88759 -5.1721 -30.6516
vn 0.351178 0.386987 0.852593
v 2.88061 -5.14828 -30.661
vn 0.325399 0.474982 0.817623
v 2.87278 -5.12569 -30.6726
vn 0.296487 0.558403 0.774779
v 2.86418 -5.10457 -30.6863
vn 0.264718 0.636445 0.724473
v 2.85489 -5.0851 -30.7018
vn 0.230401 0.708359 0.667191
v 2.845 -5.06748 -30.719
vn 0.193864 0.77345 0.603482
v 2.83461 -5.05188 -30.7378
vn 0.155461 0.831093 0.533962
v 2.8238 -5.03844 -30.758
vn 0.11556 0.880732 0.4593
v 2.8127 -5.0273 -30.7794
vn 0.0745467 0.921889 0.380214
v 2.80141 -5.01856 -30.8018
vn 0.0328152 0.954168 0.297467
v 2.79002 -5.01231 -30.825
vn -0.00923228 0.977257 0.211855
v 2.77866 -5.00861 -30.8487
vn -0.0511909 0.990936 0.124203
v 2.76744 -5.00749 -30.8728
vn -0.0926565 0.99507 0.0353543
v 2.75646 -5.00896 -30.8969
vn -0.13323 0.989622 -0.0538347
v 2.74582 -5.01302 -30.9209
vn -0.17252 0.974643 -0.142505
v 2.73564 -5.01961 -30.9446
vn -0.210149 0.950278 -0.229803
v 2.726 -5.02869 -30.9676
vn -0.245753 0.916761 -0.314888
v 2.717 -5.04015 -30.9898
vn -0.278992 0.874415 -0.396941
v 2.70873 -5.05389 -31.011
vn -0.309543 0.823648 -0.47517
v 2.70127 -5.06978 -31.0309
vn -0.337113 0.764949 -0.548824
v 2.69468 -5.08767 -31.0494
vn -0.361437 0.698883 -0.617192
v 2.68904 -5.10737 -31.0663
vn -0.38228 0.626086 -0.679616
v 2.68439 -5.12871 -31.0815
vn -0.399441 0.54726 -0.735495
v 2.68079 -5.15147 -31.0947
vn -0.412755 0.463164 -0.784291
v 2.67826 -5.17545 -31.1058
vn -0.422095 0.374606 -0.825534
v 2.67683 -5.2004 -31.1149
vn -0.427369 0.282442 -0.858826
v 2.67652 -5.22608 -31.1216
vn -0.428528 0.187557 -0.883848
v 2.67732 -5.25226 -31.1261
vn -0.425559 0.0908657 -0.900357
v 2.67924 -5.27867 -31.1282
vn -0.418492 -0.00670047 -0.908196
v 2.68224 -5.30506 -31.128
vn -0.407395 -0.104202 -0.907288
v 2.68631 -5.33118 -31.1254
vn -0.392375 -0.2007 -0.897642
v 2.6914 -5.35678 -31.1204
vn -0.373575 -0.295266 -0.879352
v 2.69746 -5.38161 -31.1132
vn -0.351178 -0.386987 -0.852593
v 2.70444 -5.40543 -31.1037
vn -0.325399 -0.474982 -0.817623
v 2.71226 -5.42801 -31.0921
vn -0.296487 -0.558403 -0.774779
v 2.72086 -5.44914 -31.0785
vn -0.264718 -0.636445 -0.724473
v 2.73015 -5.46861 -31.063
vn -0.230401 -0.708359 -0.667191
v 2.74004 -5.48623 -31.0457
vn -0.193864 -0.77345 -0.603482
v 2.75044 -5.50183 -31.0269
vn -0.155461 -0.831093 -0.533962
v 2.76124 -5.51527 -31.0067
vn -0.11556 -0.880732 -0.4593
v 2.77234 -5.52641 -30.9853
vn -0.0745467 -0.921889 -0.380214
v 2.78364 -5.53515 -30.9629
vn -0.0328152 -0.954168 -0.297467
v 2.79502 -5.5414 -30.9397
vn 0.00923228 -0.977257 -0.211855
v 2.80638 -5.5451 -30.916
vn 0.0511909 -0.990936 -0.124203
v 2.8176 -5.54622 -30.8919
vn 0.0926565 -0.99507 -0.0353543
v 2.82859 -5.54474 -30.8678
vn 0.13323 -0.989622 0.0538347
v 2.83922 -5.54069 -30.8438
vn 0.17252 -0.974643 0.142505
v 2.84941 -5.53409 -30.8202
vn 0.210149 -0.950278 0.229803
v 2.85905 -5.52502 -30.7971
vn 0.245753 -0.916761 0.314888
v 2.86805 -5.51356 -30.7749
vn 0.278992 -0.874415 0.396941
v 2.87632 -5.49981 -30.7537
vn 0.309543 -0.823648 0.47517
v 2.88378 -5.48392 -30.7338
vn 0.337113 -0.764949 0.548824
v 2.89036 -5.46604 -30.7153
vn 0.361437 -0.698883 0.617192
v 2.89601 -5.44633 -30.6984
vn 0.38228 -0.626086 0.679616
v 2.90065 -5.425 -30.6833
vn 0.399441 -0.54726 0.735495
v 2.90426 -5.40223 -30.6701
vn 0.412755 -0.463164 0.784291
v 2.90678 -5.37826 -30.6589
vn 0.422095 -0.374606 0.825534
v 2.90821 -5.35331 -30.6499
vn 0.427369 -0.282442 0.858826
v 2.90852 -5.32762 -30.6431
vn 0.428528 -0.187557 0.883848
v 2.90772 -5.30145 -30.6386
vn 0.425559 -0.0908657 0.900357
v 2.90581 -5.27504 -30.6365
vn 0.418492 0.00670047 0.908196
v 4.18309 -5.1142 -31.3337
vn 0.54731 0.11875 0.828463
v 4.17842 -5.08555 -31.3364
vn 0.531616 0.215178 0.819197
v 4.17224 -5.05753 -31.3415
vn 0.510802 0.309534 0.802041
v 4.1646 -5.03038 -31.3489
vn 0.485068 0.400909 0.777162
v 4.15557 -5.00439 -31.3585
vn 0.454664 0.488423 0.744798
v 4.14523 -4.97979 -31.3703
vn 0.41988 0.571233 0.705261
v 4.1337 -4.95683 -31.384
vn 0.381053 0.648542 0.658932
v 4.12108 -4.93572 -31.3997
vn 0.338556 0.719605 0.606258
v 4.10749 -4.91667 -31.4171
vn 0.292799 0.783738 0.547745
v 4.09306 -4.89986 -31.436
vn 0.244222 0.840323 0.483956
v 4.07793 -4.88546 -31.4563
vn 0.193293 0.888815 0.415507
v 4.06225 -4.87359 -31.4779
vn 0.140502 0.928747 0.343057
v 4.04617 -4.86439 -31.5004
vn 0.0863582 0.959735 0.267302
v 4.02984 -4.85793 -31.5236
vn 0.0313828 0.981481 0.188973
v 4.01342 -4.85428 -31.5474
vn -0.0238949 0.993774 0.108825
v 3.99706 -4.85347 -31.5716
vn -0.0789424 0.996496 0.027628
v 3.98094 -4.85551 -31.5958
vn -0.13323 0.989622 -0.0538347
v 3.96519 -4.86039 -31.6198
vn -0.186234 0.973217 -0.134779
v 3.94998 -4.86804 -31.6435
vn -0.237445 0.94744 -0.214425
v 3.93545 -4.87841 -31.6665
vn -0.286369 0.912538 -0.292007
v 3.92174 -4.89139 -31.6887
vn -0.332535 0.868848 -0.366776
v 3.90898 -4.90685 -31.7099
vn -0.375498 0.81679 -0.438013
v 3.89729 -4.92465 -31.7298
vn -0.414846 0.756866 -0.505031
v 3.88679 -4.94462 -31.7482
vn -0.450198 0.689654 -0.567186
v 3.87757 -4.96655 -31.7651
vn -0.481214 0.615799 -0.623878
v 3.86974 -4.99025 -31.7801
vn -0.507596 0.536014 -0.674563
v 3.86335 -5.01549 -31.7933
vn -0.52909 0.451067 -0.71875
v 3.85848 -5.04201 -31.8043
vn -0.545488 0.361776 -0.756016
v 3.85517 -5.06957 -31.8132
vn -0.556633 0.269001 -0.786001
v 3.85345 -5.09789 -31.8199
vn -0.562417 0.173635 -0.808417
v 3.85334 -5.12672 -31.8242
vn -0.562785 0.076597 -0.823047
v 3.85484 -5.15576 -31.8262
vn -0.557733 -0.0211787 -0.82975
v 3.85794 -5.18474 -31.8259
vn -0.54731 -0.11875 -0.828463
v 3.8626 -5.21339 -31.8231
vn -0.531616 -0.215178 -0.819197
v 3.86878 -5.24141 -31.818
vn -0.510802 -0.309534 -0.802041
v 3.87643 -5.26856 -31.8106
vn -0.485068 -0.400909 -0.777162
v 3.88546 -5.29455 -31.801
vn -0.454664 -0.488423 -0.744798
v 3.89579 -5.31915 -31.7893
vn -0.41988 -0.571233 -0.705261
v 3.90733 -5.34211 -31.7755
vn -0.381053 -0.648542 -0.658932
v 3.91995 -5.36322 -31.7598
vn -0.338556 -0.719605 -0.606258
v 3.93354 -5.38227 -31.7425
vn -0.292799 -0.783738 -0.547745
v 3.94797 -5.39908 -31.7235
vn -0.244222 -0.840323 -0.483956
v 3.9631 -5.41348 -31.7032
vn -0.193293 -0.888815 -0.415507
v 3.97878 -5.42535 -31.6817
vn -0.140502 -0.928747 -0.343057
v 3.99486 -5.43455 -31.6592
vn -0.0863582 -0.959735 -0.267302
v 4.01119 -5.44101 -31.6359
vn -0.0313828 -0.981481 -0.188973
v 4.02761 -5.44466 -31.6121
vn 0.0238949 -0.993774 -0.108825
v 4.04396 -5.44547 -31.588
vn 0.0789424 -0.996496 -0.027628
v 4.06009 -5.44343 -31.5638
vn 0.13323 -0.989622 0.0538347
v 4.07583 -5.43856 -31.5397
vn 0.186234 -0.973217 0.134779
v 4.09104 -5.4309 -31.5161
vn 0.237445 -0.94744 0.214425
v 4.10558 -5.42053 -31.493
vn 0.286369 -0.912538 0.292007
v 4.11929 -5.40755 -31.4708
vn 0.332535 -0.868848 0.366776
v 4.13205 -5.39209 -31.4497
vn 0.375498 -0.81679 0.438013
v 4.14374 -5.37429 -31.4298
vn 0.414846 -0.756866 0.505031
v 4.15424 -5.35433 -31.4113
vn 0.450198 -0.689654 0.567186
v 4.16345 -5.33239 -31.3944
vn 0.481214 -0.615799 0.623878
v 4.17129 -5.30869 -31.3794
vn 0.507596 -0.536014 0.674563
v 4.17767 -5.28346 -31.3663
vn 0.52909 -0.451067 0.71875
v 4.18255 -5.25693 -31.3552
vn 0.545488 -0.361776 0.756016
v 4.18586 -5.22937 -31.3463
vn 0.556633 -0.269001 0.786001
v 4.18757 -5.20105 -31.3396
vn 0.562417 -0.173635 0.808417
v 4.18768 -5.17222 -31.3353
vn 0.562785 -0.076597 0.823047
v 4.18618 -5.14318 -31.3333
vn 0.557733 0.0211787 0.82975
v 5.45463 -4.99528 -32.2946
vn 0.652891 0.128504 0.746472
v 5.4494 -4.96412 -32.2974
vn 0.636689 0.224885 0.7376
v 5.44217 -4.93365 -32.3026
vn 0.614354 0.319101 0.721626
v 5.43304 -4.90418 -32.31
vn 0.586103 0.410243 0.698701
v 5.42208 -4.87598 -32.3196
vn 0.552208 0.497434 0.669048
v 5.4094 -4.84933 -32.3313
vn 0.512995 0.579835 0.632952
v 5.39512 -4.82449 -32.3449
vn 0.468841 0.656652 0.590759
v 5.37938 -4.8017 -32.3604
vn 0.420172 0.727145 0.542878
v 5.36233 -4.78116 -32.3776
vn 0.367456 0.790635 0.489768
v 5.34414 -4.76309 -32.3963
vn 0.311202 0.84651 0.431942
v 5.32498 -4.74766 -32.4163
vn 0.25195 0.894234 0.369955
v 5.30503 -4.73501 -32.4375
vn 0.190273 0.933345 0.304406
v 5.2845 -4.72527 -32.4597
vn 0.126762 0.963468 0.235925
v 5.26356 -4.71853 -32.4826
vn 0.0620314 0.984312 0.165173
v 5.24244 -4.71486 -32.5059
vn -0.00329699 0.995677 0.0928291
v 5.22132 -4.71428 -32.5296
vn -0.0685936 0.997452 0.0195915
v 5.20042 -4.71682 -32.5534
vn -0.13323 0.989622 -0.0538347
v 5.17993 -4.72243 -32.577
vn -0.196583 0.972261 -0.126742
v 5.16006 -4.73107 -32.6001
vn -0.258042 0.945537 -0.19843
v 5.14099 -4.74266 -32.6227
vn -0.317017 0.909706 -0.268206
v 5.1229 -4.75708 -32.6444
vn -0.372939 0.865115 -0.335399
v 5.10598 -4.77419 -32.6651
vn -0.425269 0.812192 -0.399362
v 5.09038 -4.79384 -32.6846
vn -0.473503 0.751447 -0.459479
v 5.07626 -4.81582 -32.7026
vn -0.517178 0.683466 -0.515171
v 5.06374 -4.83993 -32.719
vn -0.555871 0.608902 -0.565902
v 5.05296 -4.86594 -32.7336
vn -0.589212 0.528474 -0.611183
v 5.04402 -4.8936 -32.7464
vn -0.616878 0.442957 -0.650577
v 5.03699 -4.92263 -32.7571
vn -0.638603 0.353174 -0.683707
v 5.03195 -4.95276 -32.7657
vn -0.654178 0.25999 -0.710251
v 5.02895 -4.98371 -32.772
vn -0.663452 0.164301 -0.729956
v 5.02802 -5.01516 -32.7761
vn -0.666338 0.0670306 -0.742631
v 5.02916 -5.04683 -32.7779
vn -0.662806 -0.0308855 -0.748154
v 5.03237 -5.0784 -32.7774
vn -0.652891 -0.128504 -0.746472
v 5.03761 -5.10956 -32.7745
vn -0.636689 -0.224885 -0.7376
v 5.04483 -5.14003 -32.7693
vn -0.614354 -0.319101 -0.721626
v 5.05397 -5.1695 -32.7619
vn -0.586103 -0.410243 -0.698701
v 5.06493 -5.1977 -32.7523
vn -0.552208 -0.497434 -0.669048
v 5.07761 -5.22435 -32.7407
vn -0.512995 -0.579835 -0.632952
v 5.09189 -5.24919 -32.727
vn -0.468841 -0.656652 -0.590759
v 5.10763 -5.27198 -32.7115
vn -0.420172 -0.727145 -0.542878
v 5.12467 -5.29252 -32.6944
vn -0.367456 -0.790635 -0.489768
v 5.14287 -5.31059 -32.6757
vn -0.311202 -0.84651 -0.431942
v 5.16203 -5.32602 -32.6556
vn -0.25195 -0.894234 -0.369955
v 5.18197 -5.33867 -32.6344
vn -0.190273 -0.933345 -0.304406
v 5.20251 -5.34841 -32.6123
vn -0.126762 -0.963468 -0.235925
v 5.22344 -5.35515 -32.5894
vn -0.0620314 -0.984312 -0.165173
v 5.24457 -5.35882 -32.566
vn 0.00329699 -0.995677 -0.0928291
v 5.26568 -5.3594 -32.5423
vn 0.0685936 -0.997452 -0.0195915
v 5.28659 -5.35686 -32.5186
vn 0.13323 -0.989622 0.0538347
v 5.30707 -5.35125 -32.495
vn 0.196583 -0.972261 0.126742
v 5.32695 -5.34261 -32.4718
vn 0.258042 -0.945537 0.19843
v 5.34602 -5.33102 -32.4492
vn 0.317017 -0.909706 0.268206
v 5.3641 -5.3166 -32.4275
vn 0.372939 -0.865115 0.335399
v 5.38103 -5.29949 -32.4068
vn 0.425269 -0.812192 0.399362
v 5.39662 -5.27984 -32.3874
vn 0.473503 -0.751447 0.459479
v 5.41075 -5.25786 -32.3694
vn 0.517178 -0.683466 0.515171
v 5.42326 -5.23375 -32.353
vn 0.555871 -0.608902 0.565902
v 5.43404 -5.20774 -32.3383
vn 0.589212 -0.528474 0.611183
v 5.44299 -5.18008 -32.3256
vn 0.616878 -0.442957 0.650577
v 5.45001 -5.15105 -32.3149
vn 0.638603 -0.353174 0.683707
v 5.45505 -5.12092 -32.3063
vn 0.654178 -0.25999 0.710251
v 5.45805 -5.08997 -32.2999
vn 0.663452 -0.164301 0.729956
v 5.45898 -5.05852 -32.2958
vn 0.666338 -0.0670306 0.742631
v 5.45784 -5.02685 -32.294
vn 0.662806 0.0308855 0.748154
f 1 66 2 
f 1 65 66 
f 2 67 3 
f 2 66 67 
f 3 68 4 
f 3 67 68 
f 4 69 5 
f 4 68 69 
f 5 70 6 
f 5 69 70 
f 6 71 7 
f 6 70 71 
f 7 72 8 
f 7 71 72 
f 8 73 9 
f 8 72 73 
f 9 74 10 
f 9 73 74 
f 10 75 11 
f 10 74 75 
f 11 76 12 
f 11 75 76 
f 12 77 13 
f 12 76 77 
f 13 78 14 
f 13 77 78 
f 14 79 15 
f 14 78 79 
f 15 80 16 
f 15 79 80 
f 16 81 17 
f 16 80 81 
f 17 82 18 
f 17 81 82 
f 18 83 19 
f 18 82 83 
f 19 84 20 
f 19 83 84 
f 20 85 21 
f 20 84 85 
f 21 86 22 
f 21 85 86 
f 22 87 23 
f 22 86 87 
f 23 88 24 
f 23 87 88 
f 24 89 25 
f 24 88 89 
f 25 90 26 
f 25 89 90 
f 26 91 27 
f 26 90 91 
f 27 92 28 
f 27 91 92 
f 28 93 29 
f 28 92 93 
f 29 94 30 
f 29 93 94 
f 30 95 31 
f 30 94 95 
f 31 96 32 
f 31 95 96 
f 32 97 33 
f 32 96 97 
f 33 98 34 
f 33 97 98 
f 34 99 35 
f 34 98 99 
f 35 100 36 
f 35 99 100 
f 36 101 37 
f 36 100 101 
f 37 102 38 
f 37 101 102 
f 38 103 39 
f 38 102 103 
f 39 104 40 
f 39 103 104 
f 40 105 41 
f 40 104 105 
f 41 106 42 
f 41 105 106 
f 42 107 43 
f 42 106 107 
f 43 108 44 
f 43 107 108 
f 44 109 45 
f 44 108 109 
f 45 110 46 
f 45 109 110 
f 46 111 47 
f 46 110 111 
f 47 112 48 
f 47 111 112 
f 48 113 49 
f 48 112 113 
f 49 114 50 
f 49 113 114 
f 50 115 51 
f 50 114 115 
f 51 116 52 
f 51 115 116 
f 52 117 53 
f 52 116 117 
f 53 118 54 
f 53 117 118 
f 54 119 55 
f 54 118 119 
f 55 120 56 
f 55 119 120 
f 56 121 57 
f 56 120 121 
f 57 122 58 
f 57 121 122 
f 58 123 59 
f 58 122 123 
f 59 124 60 
f 59 123 124 
f 60 125 61 
f 60 124 125 
f 61 126 62 
f 61 125 126 
f 62 127 63 
f 62 126 127 
f 63 128 64 
f 63 127 128 
f 64 65 1 
f 64 128 65 
f 65 130 66 
f 65 129 130 
f 66 131 67 
f 66 130 131 
f 67 132 68 
f 67 131 132 
f 68 133 69 
f 68 132 133 
f 69 134 70 
f 69 133 134 
f 70 135 71 
f 70 134 135 
f 71 136 72 
f 71 135 136 
f 72 137 73 
f 72 136 137 
f 73 138 74 
f 73 137 138 
f 74 139 75 
f 74 138 139 
f 75 140 76 
f 75 139 140 
f 76 141 77 
f 76 140 141 
f 77 142 78 
f 77 141 142 
f 78 143 79 
f 78 142 143 
f 79 144 80 
f 79 143 144 
f 80 145 81 
f 80 144 145 
f 81 146 82 
f 81 145 146 
f 82 147 83 
f 82 146 147 
f 83 148 84 
f 83 147 148 
f 84 149 85 
f 84 148 149 
f 85 150 86 
f 85 149 150 
f 86 151 87 
f 86 150 151 
f 87 152 88 
f 87 151 152 
f 88 153 89 
f 88 152 153 
f 89 154 90 
f 89 153 154 
f 90 155 91 
f 90 154 155 
f 91 156 92 
f 91 155 156 
f 92 157 93 
f 92 156 157 
f 93 158 94 
f 93 157 158 
f 94 159 95 
f 94 158 159 
f 95 160 96 
f 95 159 160 
f 96 161 97 
f 96 160 161 
f 97 162 98 
f 97 161 162 
f 98 163 99 
f 98 162 163 
f 99 164 100 
f 99 163 164 
f 100 165 101 
f 100 164 165 
f 101 166 102 
f 101 165 166 
f 102 167 103 
f 102 166 167 
f 103 168 104 
f 103 167 168 
f 104 169 105 
f 104 168 169 
f 105 170 106 
f 105 169 170 
f 106 171 107 
f 106 170 171 
f 107 172 108 
f 107 171 172 
f 108 173 109 
f 108 172 173 
f 109 174 110 
f 109 173 174 
f 110 175 111 
f 110 174 175 
f 111 176 112 
f 111 175 176 
f 112 177 113 
f 112 176 177 
f 113 178 114 
f 113 177 178 
f 114 179 115 
f 114 178 179 
f 115 180 116 
f 115 179 180 
f 116 181 117 
f 116 180 181 
f 117 182 118 
f 117 181 182 
f 118 183 119 
f 118 182 183 
f 119 184 120 
f 119 183 184 
f 120 185 121 
f 120 184 185 
f 121 186 122 
f 121 185 186 
f 122 187 123 
f 122 186 187 
f 123 188 124 
f 123 187 188 
f 124 189 125 
f 124 188 189 
f 125 190 126 
f 125 189 190 
f 126 191 127 
f 126 190 191 
f 127 192 128 
f 127 191 192 
f 128 129 65 
f 128 192 129 
f 129 194 130 
f 129 193 194 
f 130 195 131 
f 130 194 195 
f 131 196 132 
f 131 195 196 
f 132 197 133 
f 132 196 197 
f 133 198 134 
f 133 197 198 
f 134 199 135 
f 134 198 199 
f 135 200 136 
f 135 199 200 
f 136 201 137 
f 136 200 201 
f 137 202 138 
f 137 201 202 
f 138 203 139 
f 138 202 203 
f 139 204 140 
f 139 203 204 
f 140 205 141 
f 140 204 205 
f 141 206 142 
f 141 205 206 
f 142 207 143 
f 142 206 207 
f 143 208 144 
f 143 207 208 
f 144 209 145 
f 144 208 209 
f 145 210 146 
f 145 209 210 
f 146 211 147 
f 146 210 211 
f 147 212 148 
f 147 211 212 
f 148 213 149 
f 148 212 213 
f 149 214 150 
f 149 213 214 
f 150 215 151 
f 150 214 215 
f 151 216 152 
f 151 215 216 
f 152 217 153 
f 152 216 217 
f 153 218 154 
f 153 217 218 
f 154 219 155 
f 154 218 219 
f 155 220 156 
f 155 219 220 
f 156 221 157 
f 156 220 221 
f 157 222 158 
f 157 221 222 
f 158 223 159 
f 158 222 223 
f 159 224 160 
f 159 223 224 
f 160 225 161 
f 160 224 225 
f 161 226 162 
f 161 225 226 
f 162 227 163 
f 162 226 227 
f 163 228 164 
f 163 227 228 
f 164 229 165 
f 164 228 229 
f 165 230 166 
f 165 229 230 
f 166 231 167 
f 166 230 231 
f 167 232 168 
f 167 231 232 
f 168 233 169 
f 168 232 233 
f 169 234 170 
f 169 233 234 
f 170 235 171 
f 170 234 235 
f 171 236 172 
f 171 235 236 
f 172 237 173 
f 172 236 237 
f 173 238 174 
f 173 237 238 
f 174 239 175 
f 174 238 239 
f 175 240 176 
f 175 239 240 
f 176 241 177 
f 176 240 241 
f 177 242 178 
f 177 241 242 
f 178 243 179 
f 178 242 243 
f 179 244 180 
f 179 243 244 
f 180 245 181 
f 180 244 245 
f 181 246 182 
f 181 245 246 
f 182 247 183 
f 182 246 247 
f 183 248 184 
f 183 247 248 
f 184 249 185 
f 184 248 249 
f 185 250 186 
f 185 249 250 
f 186 251 187 
f 186 250 251 
f 187 252 188 
f 187 251 252 
f 188 253 189 
f 188 252 253 
f 189 254 190 
f 189 253 254 
f 190 255 191 
f 190 254 255 
f 191 256 192 
f 191 255 256 
f 192 193 129 
f 192 256 193 
f 193 258 194 
f 193 257 258 
f 194 259 195 
f 194 258 259 
f 195 260 196 
f 195 259 260 
f 196 261 197 
f 196 260 261 
f 197 262 198 
f 197 261 262 
f 198 263 199 
f 198 262 263 
f 199 264 200 
f 199 263 264 
f 200 265 201 
f 200 264 265 
f 201 266 202 
f 201 265 266 
f 202 267 203 
f 202 266 267 
f 203 268 204 
f 203 267 268 
f 204 269 205 
f 204 268 269 
f 205 270 206 
f 205 269 270 
f 206 271 207 
f 206 270 271 
f 207 272 208 
f 207 271 272 
f 208 273 209 
f 208 272 273 
f 209 274 210 
f 209 273 274 
f 210 275 211 
f 210 274 275 
f 211 276 212 
f 211 275 276 
f 212 277 213 
f 212 276 277 
f 213 278 214 
f 213 277 278 
f 214 279 215 
f 214 278 279 
f 215 280 216 
f 215 279 280 
f 216 281 217 
f 216 280 281 
f 217 282 218 
f 217 281 282 
f 218 283 219 
f 218 282 283 
f 219 284 220 
f 219 283 284 
f 220 285 221 
f 220 284 285 
f 221 286 222 
f 221 285 286 
f 222 287 223 
f 222 286 287 
f 223 288 224 
f 223 287 288 
f 224 289 225 
f 224 288 289 
f 225 290 226 
f 225 289 290 
f 226 291 227 
f 226 290 291 
f 227 292 228 
f 227 291 292 
f 228 293 229 
f 228 292 293 
f 229 294 230 
f 229 293 294 
f 230 295 231 
f 230 294 295 
f 231 296 232 
f 231 295 296 
f 232 297 233 
f 232 296 297 
f 233 298 234 
f 233 297 298 
f 234 299 235 
f 234 298 299 
f 235 300 236 
f 235 299 300 
f 236 301 237 
f 236 300 301 
f 237 302 238 
f 237 301 302 
f 238 303 239 
f 238 302 303 
f 239 304 240 
f 239 303 304 
f 240 305 241 
f 240 304 305 
f 241 306 242 
f 241 305 306 
f 242 307 243 
f 242 306 307 
f 243 308 244 
f 243 307 308 
f 244 309 245 
f 244 308 309 
f 245 310 246 
f 245 309 310 
f 246 311 247 
f 246 310 311 
f 247 312 248 
f 247 311 312 
f 248 313 249 
f 248 312 313 
f 249 314 250 
f 249 313 314 
f 250 315 251 
f 250 314 315 
f 251 316 252 
f 251 315 316 
f 252 317 253 
f 252 316 317 
f 253 318 254 
f 253 317 318 
f 254 319 255 
f 254 318 319 
f 255 320 256 
f 255 319 320 
f 256 257 193 
f 256 320 257 
f 257 322 258 
f 257 321 322 
f 258 323 259 
f 258 322 323 
f 259 324 260 
f 259 323 324 
f 260 325 261 
f 260 324 325 
f 261 326 262 
f 261 325 326 
f 262 327 263 
f 262 326 327 
f 263 328 264 
f 263 327 328 
f 264 329 265 
f 264 328 329 
f 265 330 266 
f 265 329 330 
f 266 331 267 
f 266 330 331 
f 267 332 268 
f 267 331 332 
f 268 333 269 
f 268 332 333 
f 269 334 270 
f 269 333 334 
f 270 335 271 
f 270 334 335 
f 271 336 272 
f 271 335 336 
f 272 337 273 
f 272 336 337 
f 273 338 274 
f 273 337 338 
f 274 339 275 
f 274 338 339 
f 275 340 276 
f 275 339 340 
f 276 341 277 
f 276 340 341 
f 277 342 278 
f 277 341 342 
f 278 343 279 
f 278 342 343 
f 279 344 280 
f 279 343 344 
f 280 345 281 
f 280 344 345 
f 281 346 282 
f 281 345 346 
f 282 347 283 
f 282 346 347 
f 283 348 284 
f 283 347 348 
f 284 349 285 
f 284 348 349 
f 285 350 286 
f 285 349 350 
f 286 351 287 
f 286 350 351 
f 287 352 288 
f 287 351 352 
f 288 353 289 
f 288 352 353 
f 289 354 290 
f 289 353 354 
f 290 355 291 
f 290 354 355 
f 291 356 292 
f 291 355 356 
f 292 357 293 
f 292 356 357 
f 293 358 294 
f 293 357 358 
f 294 359 295 
f 294 358 359 
f 295 360 296 
f 295 359 360 
f 296 361 297 
f 296 360 361 
f 297 362 298 
f 297 361 362 
f 298 363 299 
f 298 362 363 
f 299 364 300 
f 299 363 364 
f 300 365 301 
f 300 364 365 
f 301 366 302 
f 301 365 366 
f 302 367 303 
f 302 366 367 
f 303 368 304 
f 303 367 368 
f 304 369 305 
f 304 368 369 
f 305 370 306 
f 305 369 370 
f 306 371 307 
f 306 370 371 
f 307 372 308 
f 307 371 372 
f 308 373 309 
f 308 372 373 
f 309 374 310 
f 309 373 374 
f 310 375 311 
f 310 374 375 
f 311 376 312 
f 311 375 376 
f 312 377 313 
f 312 376 377 
f 313 378 314 
f 313 377 378 
f 314 379 315 
f 314 378 379 
f 315 380 316 
f 315 379 380 
f 316 381 317 
f 316 380 381 
f 317 382 318 
f 317 381 382 
f 318 383 319 
f 318 382 383 
f 319 384 320 
f 319 383 384 
f 320 321 257 
f 320 384 321 
f 321 386 322 
f 321 385 386 
f 322 387 323 
f 322 386 387 
f 323 388 324 
f 323 387 388 
f 324 389 325 
f 324 388 389 
f 325 390 326 
f 325 389 390 
f 326 391 327 
f 326 390 391 
f 327 392 328 
f 327 391 392 
f 328 393 329 
f 328 392 393 
f 329 394 330 
f 329 393 394 
f 330 395 331 
f 330 394 395 
f 331 396 332 
f 331 395 396 
f 332 397 333 
f 332 396 397 
f 333 398 334 
f 333 397 398 
f 334 399 335 
f 334 398 399 
f 335 400 336 
f 335 399 400 
f 336 401 337 
f 336 400 401 
f 337 402 338 
f 337 401 402 
f 338 403 339 
f 338 402 403 
f 339 404 340 
f 339 403 404 
f 340 405 341 
f 340 404 405 
f 341 406 342 
f 341 405 406 
f 342 407 343 
f 342 406 407 
f 343 408 344 
f 343 407 408 
f 344 409 345 
f 344 408 409 
f 345 410 346 
f 345 409 410 
f 346 411 347 
f 346 410 411 
f 347 412 348 
f 347 411 412 
f 348 413 349 
f 348 412 413 
f 349 414 350 
f 349 413 414 
f 350 415 351 
f 350 414 415 
f 351 416 352 
f 351 415 416 
f 352 417 353 
f 352 416 417 
f 353 418 354 
f 353 417 418 
f 354 419 355 
f 354 418 419 
f 355 420 356 
f 355 419 420 
f 356 421 357 
f 356 420 421 
f 357 422 358 
f 357 421 422 
f 358 423 359 
f 358 422 423 
f 359 424 360 
f 359 423 424 
f 360 425 361 
f 360 424 425 
f 361 426 362 
f 361 425 426 
f 362 427 363 
f 362 426 427 
f 363 428 364 
f 363 427 428 
f 364 429 365 
f 364 428 429 
f 365 430 366 
f 365 429 430 
f 366 431 367 
f 366 430 431 
f 367 432 368 
f 367 431 432 
f 368 433 369 
f 368 432 433 
f 369 434 370 
f 369 433 434 
f 370 435 371 
f 370 434 435 
f 371 436 372 
f 371 435 436 
f 372 437 373 
f 372 436 437 
f 373 438 374 
f 373 437 438 
f 374 439 375 
f 374 438 439 
f 375 440 376 
f 375 439 440 
f 376 441 377 
f 376 440 441 
f 377 442 378 
f 377 441 442 
f 378 443 379 
f 378 442 443 
f 379 444 380 
f 379 443 444 
f 380 445 381 
f 380 444 445 
f 381 446 382 
f 381 445 446 
f 382 447 383 
f 382 446 447 
f 383 448 384 
f 383 447 448 
f 384 385 321 
f 384 448 385 
f 385 450 386 
f 385 449 450 
f 386 451 387 
f 386 450 451 
f 387 452 388 
f 387 451 452 
f 388 453 389 
f 388 452 453 
f 389 454 390 
f 389 453 454 
f 390 455 391 
f 390 454 455 
f 391 456 392 
f 391 455 456 
f 392 457 393 
f 392 456 457 
f 393 458 394 
f 393 457 458 
f 394 459 395 
f 394 458 459 
f 395 460 396 
f 395 459 460 
f 396 461 397 
f 396 460 461 
f 397 462 398 
f 397 461 462 
f 398 463 399 
f 398 462 463 
f 399 464 400 
f 399 463 464 
f 400 465 401 
f 400 464 465 
f 401 466 402 
f 401 465 466 
f 402 467 403 
f 402 466 467 
f 403 468 404 
f 403 467 468 
f 404 469 405 
f 404 468 469 
f 405 470 406 
f 405 469 470 
f 406 471 407 
f 406 470 471 
f 407 472 408 
f 407 471 472 
f 408 473 409 
f 408 472 473 
f 409 474 410 
f 409 473 474 
f 410 475 411 
f 410 474 475 
f 411 476 412 
f 411 475 476 
f 412 477 413 
f 412 476 477 
f 413 478 414 
f 413 477 478 
f 414 479 415 
f 414 478 479 
f 415 480 416 
f 415 479 480 
f 416 481 417 
f 416 480 481 
f 417 482 418 
f 417 481 482 
f 418 483 419 
f 418 482 483 
f 419 484 420 
f 419 483 484 
f 420 485 421 
f 420 484 485 
f 421 486 422 
f 421 485 486 
f 422 487 423 
f 422 486 487 
f 423 488 424 
f 423 487 488 
f 424 489 425 
f 424 488 489 
f 425 490 426 
f 425 489 490 
f 426 491 427 
f 426 490 491 
f 427 492 428 
f 427 491 492 
f 428 493 429 
f 428 492 493 
f 429 494 430 
f 429 493 494 
f 430 495 431 
f 430 494 495 
f 431 496 432 
f 431 495 496 
f 432 497 433 
f 432 496 497 
f 433 498 434 
f 433 497 498 
f 434 499 435 
f 434 498 499 
f 435 500 436 
f 435 499 500 
f 436 501 437 
f 436 500 501 
f 437 502 438 
f 437 501 502 
f 438 503 439 
f 438 502 503 
f 439 504 440 
f 439 503 504 
f 440 505 441 
f 440 504 505 
f 441 506 442 
f 441 505 506 
f 442 507 443 
f 442 506 507 
f 443 508 444 
f 443 507 508 
f 444 509 445 
f 444 508 509 
f 445 510 446 
f 445 509 510 
f 446 511 447 
f 446 510 511 
f 447 512 448 
f 447 511 512 
f 448 449 385 
f 448 512 449 
f 449 514 450 
f 449 513 514 
f 450 515 451 
f 450 514 515 
f 451 516 452 
f 451 515 516 
f 452 517 453 
f 452 516 517 
f 453 518 454 
f 453 517 518 
f 454 519 455 
f 454 518 519 
f 455 520 456 
f 455 519 520 
f 456 521 457 
f 456 520 521 
f 457 522 458 
f 457 521 522 
f 458 523 459 
f 458 522 523 
f 459 524 460 
f 459 523 524 
f 460 525 461 
f 460 524 525 
f 461 526 462 
f 461 525 526 
f 462 527 463 
f 462 526 527 
f 463 528 464 
f 463 527 528 
f 464 529 465 
f 464 528 529 
f 465 530 466 
f 465 529 530 
f 466 531 467 
f 466 530 531 
f 467 532 468 
f 467 531 532 
f 468 533 469 
f 468 532 533 
f 469 534 470 
f 469 533 534 
f 470 535 471 
f 470 534 535 
f 471 536 472 
f 471 535 536 
f 472 537 473 
f 472 536 537 
f 473 538 474 
f 473 537 538 
f 474 539 475 
f 474 538 539 
f 475 540 476 
f 475 539 540 
f 476 541 477 
f 476 540 541 
f 477 542 478 
f 477 541 542 
f 478 543 479 
f 478 542 543 
f 479 544 480 
f 479 543 544 
f 480 545 481 
f 480 544 545 
f 481 546 482 
f 481 545 546 
f 482 547 483 
f 482 546 547 
f 483 548 484 
f 483 547 548 
f 484 549 485 
f 484 548 549 
f 485 550 486 
f 485 549 550 
f 486 551 487 
f 486 550 551 
f 487 552 488 
f 487 551 552 
f 488 553 489 
f 488 552 553 
f 489 554 490 
f 489 553 554 
f 490 555 491 
f 490 554 555 
f 491 556 492 
f 491 555 556 
f 492 557 493 
f 492 556 557 
f 493 558 494 
f 493 557 558 
f 494 559 495 
f 494 558 559 
f 495 560 496 
f 495 559 560 
f 496 561 497 
f 496 560 561 
f 497 562 498 
f 497 561 562 
f 498 563 499 
f 498 562 563 
f 499 564 500 
f 499 563 564 
f 500 565 501 
f 500 564 565 
f 501 566 502 
f 501 565 566 
f 502 567 503 
f 502 566 567 
f 503 568 504 
f 503 567 568 
f 504 569 505 
f 504 568 569 
f 505 570 506 
f 505 569 570 
f 506 571 507 
f 506 570 571 
f 507 572 508 
f 507 571 572 
f 508 573 509 
f 508 572 573 
f 509 574 510 
f 509 573 574 
f 510 575 511 
f 510 574 575 
f 511 576 512 
f 511 575 576 
f 512 513 449 
f 512 576 513 
f 513 578 514 
f 513 577 578 
f 514 579 515 
f 514 578 579 
f 515 580 516 
f 515 579 580 
f 516 581 517 
f 516 580 581 
f 517 582 518 
f 517 581 582 
f 518 583 519 
f 518 582 583 
f 519 584 520 
f 519 583 584 
f 520 585 521 
f 520 584 585 
f 521 586 522 
f 521 585 586 
f 522 587 523 
f 522 586 587 
f 523 588 524 
f 523 587 588 
f 524 589 525 
f 524 588 589 
f 525 590 526 
f 525 589 590 
f 526 591 527 
f 526 590 591 
f 527 592 528 
f 527 591 592 
f 528 593 529 
f 528 592 593 
f 529 594 530 
f 529 593 594 
f 530 595 531 
f 530 594 595 
f 531 596 532 
f 531 595 596 
f 532 597 533 
f 532 596 597 
f 533 598 534 
f 533 597 598 
f 534 599 535 
f 534 598 599 
f 535 600 536 
f 535 599 600 
f 536 601 537 
f 536 600 601 
f 537 602 538 
f 537 601 602 
f 538 603 539 
f 538 602 603 
f 539 604 540 
f 539 603 604 
f 540 605 541 
f 540 604 605 
f 541 606 542 
f 541 605 606 
f 542 607 543 
f 542 606 607 
f 543 608 544 
f 543 607 608 
f 544 609 545 
f 544 608 609 
f 545 610 546 
f 545 609 610 
f 546 611 547 
f 546 610 611 
f 547 612 548 
f 547 611 612 
f 548 613 549 
f 548 612 613 
f 549 614 550 
f 549 613 614 
f 550 615 551 
f 550 614 615 
f 551 616 552 
f 551 615 616 
f 552 617 553 
f 552 616 617 
f 553 618 554 
f 553 617 618 
f 554 619 555 
f 554 618 619 
f 555 620 556 
f 555 619 620 
f 556 621 557 
f 556 620 621 
f 557 622 558 
f 557 621 622 
f 558 623 559 
f 558 622 623 
f 559 624 560 
f 559 623 624 
f 560 625 561 
f 560 624 625 
f 561 626 562 
f 561 625 626 
f 562 627 563 
f 562 626 627 
f 563 628 564 
f 563 627 628 
f 564 629 565 
f 564 628 629 
f 565 630 566 
f 565 629 630 
f 566 631 567 
f 566 630 631 
f 567 632 568 
f 567 631 632 
f 568 633 569 
f 568 632 633 
f 569 634 570 
f 569 633 634 
f 570 635 571 
f 570 634 635 
f 571 636 572 
f 571 635 636 
f 572 637 573 
f 572 636 637 
f 573 638 574 
f 573 637 638 
f 574 639 575 
f 574 638 639 
f 575 640 576 
f 575 639 640 
f 576 577 513 
f 576 640 577 
