# Branch
v 8.28191 1.97908 -33.0434
vn 0.914468 0.236043 -0.328681
v 8.28835 1.94931 -33.0423
vn 0.935198 0.140186 -0.325198
v 8.29199 1.91912 -33.0402
vn 0.94692 0.0429778 -0.318583
v 8.2928 1.8888 -33.0372
vn 0.949523 -0.054644 -0.3089
v 8.29077 1.85864 -33.0333
vn 0.942982 -0.15174 -0.296243
v 8.28592 1.82894 -33.0285
vn 0.92736 -0.247374 -0.280732
v 8.27829 1.79997 -33.0228
vn 0.902806 -0.340626 -0.262518
v 8.26796 1.77203 -33.0164
vn 0.869558 -0.430597 -0.241775
v 8.25504 1.74537 -33.0092
vn 0.827935 -0.516422 -0.218705
v 8.23963 1.72026 -33.0014
vn 0.778339 -0.597273 -0.193528
v 8.2219 1.69693 -32.993
vn 0.721248 -0.672372 -0.166487
v 8.20201 1.67562 -32.9841
vn 0.65721 -0.740996 -0.137842
v 8.18015 1.65652 -32.9748
vn 0.586843 -0.802483 -0.107871
v 8.15654 1.63982 -32.9652
vn 0.510824 -0.856242 -0.0768602
v 8.1314 1.62569 -32.9553
vn 0.429886 -0.901756 -0.0451094
v 8.10498 1.61425 -32.9453
vn 0.344808 -0.938584 -0.0129242
v 8.07752 1.60562 -32.9353
vn 0.256409 -0.966374 0.0193855
v 8.0493 1.59988 -32.9253
vn 0.165541 -0.984857 0.0515085
v 8.02058 1.59708 -32.9155
vn 0.0730782 -0.993855 0.0831354
v 7.99164 1.59726 -32.9059
vn -0.0200881 -0.993282 0.113962
v 7.96277 1.60041 -32.8967
vn -0.113061 -0.983143 0.14369
v 7.93423 1.6065 -32.8879
vn -0.204945 -0.963536 0.172035
v 7.9063 1.61547 -32.8796
vn -0.294855 -0.934649 0.198724
v 7.87926 1.62724 -32.8719
vn -0.381926 -0.896762 0.223498
v 7.85336 1.64169 -32.8648
vn -0.465318 -0.850238 0.24612
v 7.82885 1.65868 -32.8586
vn -0.54423 -0.795525 0.266372
v 7.80597 1.67806 -32.8531
vn -0.6179 -0.733152 0.284058
v 7.78493 1.69962 -32.8484
vn -0.685619 -0.663717 0.299009
v 7.76595 1.72317 -32.8447
vn -0.746735 -0.587891 0.31108
v 7.7492 1.74848 -32.8419
vn -0.80066 -0.506403 0.320155
v 7.73485 1.77531 -32.84
vn -0.846874 -0.420038 0.326147
v 7.72303 1.80339 -32.8391
vn -0.884933 -0.329628 0.328998
v 7.71385 1.83246 -32.8392
vn -0.914468 -0.236043 0.328681
v 7.70741 1.86223 -32.8403
vn -0.935198 -0.140186 0.325198
v 7.70377 1.89242 -32.8423
vn -0.94692 -0.0429778 0.318583
v 7.70297 1.92274 -32.8454
vn -0.949523 0.054644 0.3089
v 7.705 1.9529 -32.8493
vn -0.942982 0.15174 0.296243
v 7.70985 1.9826 -32.8541
vn -0.92736 0.247374 0.280732
v 7.71748 2.01157 -32.8598
vn -0.902806 0.340626 0.262518
v 7.7278 2.03951 -32.8662
vn -0.869558 0.430597 0.241775
v 7.74073 2.06617 -32.8734
vn -0.827935 0.516422 0.218705
v 7.75613 2.09128 -32.8812
vn -0.778339 0.597273 0.193528
v 7.77387 2.11461 -32.8896
vn -0.721248 0.672372 0.166487
v 7.79376 2.13592 -32.8985
vn -0.65721 0.740996 0.137842
v 7.81561 2.15502 -32.9078
vn -0.586843 0.802483 0.107871
v 7.83922 2.17171 -32.9174
vn -0.510824 0.856242 0.0768602
v 7.86436 2.18585 -32.9273
vn -0.429886 0.901756 0.0451094
v 7.89079 2.19729 -32.9373
vn -0.344808 0.938584 0.0129242
v 7.91824 2.20592 -32.9473
vn -0.256409 0.966374 -0.0193855
v 7.94647 2.21166 -32.9573
vn -0.165541 0.984857 -0.0515085
v 7.97519 2.21446 -32.9671
vn -0.0730782 0.993855 -0.0831354
v 8.00412 2.21428 -32.9767
vn 0.0200881 0.993282 -0.113962
v 8.033 2.21113 -32.9859
vn 0.113061 0.983143 -0.14369
v 8.06154 2.20504 -32.9947
vn 0.204945 0.963536 -0.172035
v 8.08946 2.19607 -33.003
vn 0.294855 0.934649 -0.198724
v 8.11651 2.1843 -33.0107
vn 0.381926 0.896762 -0.223498
v 8.14241 2.16985 -33.0177
vn 0.465318 0.850238 -0.24612
v 8.16692 2.15286 -33.024
vn 0.54423 0.795525 -0.266372
v 8.1898 2.13348 -33.0295
vn 0.6179 0.733152 -0.284058
v 8.21083 2.11192 -33.0342
vn 0.685619 0.663717 -0.299009
v 8.22982 2.08837 -33.0379
vn 0.746735 0.587891 -0.31108
v 8.24657 2.06306 -33.0407
vn 0.80066 0.506403 -0.320155
v 8.26092 2.03623 -33.0426
vn 0.846874 0.420038 -0.326147
v 8.27274 2.00815 -33.0435
vn 0.884933 0.329628 -0.328998
v 8.5848 2.08706 -31.667
vn 0.953562 0.249629 -0.16854
v 8.59069 2.05954 -31.6662
vn 0.974103 0.153705 -0.165828
v 8.59389 2.0316 -31.665
vn 0.985262 0.0563018 -0.161519
v 8.59437 2.0035 -31.6633
vn 0.986933 -0.0416439 -0.155655
v 8.59212 1.97552 -31.6612
vn 0.9791 -0.139189 -0.148292
v 8.58717 1.94792 -31.6587
vn 0.961837 -0.235393 -0.1395
v 8.57956 1.92098 -31.6558
vn 0.935311 -0.32933 -0.129365
v 8.56937 1.89494 -31.6525
vn 0.899777 -0.420096 -0.117985
v 8.55669 1.87006 -31.6489
vn 0.855578 -0.506816 -0.105468
v 8.54165 1.84658 -31.645
vn 0.80314 -0.588654 -0.0919352
v 8.52439 1.82473 -31.6409
vn 0.742967 -0.664824 -0.0775171
v 8.50507 1.80472 -31.6365
vn 0.675638 -0.734592 -0.0623525
v 8.48389 1.78674 -31.632
vn 0.601803 -0.797284 -0.0465874
v 8.46105 1.77095 -31.6274
vn 0.522172 -0.852299 -0.0303737
v 8.43676 1.75753 -31.6226
vn 0.437513 -0.899105 -0.0138674
v 8.41127 1.74658 -31.6179
vn 0.34864 -0.937253 0.00277238
v 8.38481 1.73823 -31.6131
vn 0.256409 -0.966374 0.0193855
v 8.35764 1.73255 -31.6084
vn 0.161709 -0.986188 0.0358119
v 8.33003 1.72959 -31.6038
vn 0.0654515 -0.996505 0.0518934
v 8.30224 1.72938 -31.5993
vn -0.0314363 -0.997226 0.0674752
v 8.27453 1.73193 -31.595
vn -0.128021 -0.988342 0.0824071
v 8.24718 1.73721 -31.591
vn -0.223373 -0.96994 0.0965455
v 8.22044 1.74516 -31.5872
vn -0.316574 -0.942197 0.109754
v 8.19458 1.75573 -31.5837
vn -0.406726 -0.90538 0.121906
v 8.16984 1.76879 -31.5805
vn -0.492961 -0.859844 0.132883
v 8.14646 1.78423 -31.5777
vn -0.574449 -0.806027 0.142581
v 8.12468 1.80189 -31.5754
vn -0.650404 -0.744447 0.150905
v 8.10468 1.82161 -31.5734
vn -0.720096 -0.675698 0.157777
v 8.08668 1.8432 -31.5719
vn -0.782853 -0.600442 0.163129
v 8.07084 1.86645 -31.5708
vn -0.83807 -0.519403 0.16691
v 8.05732 1.89113 -31.5701
vn -0.885216 -0.433362 0.169083
v 8.04624 1.91701 -31.57
vn -0.923838 -0.343148 0.169628
v 8.03771 1.94384 -31.5703
vn -0.953562 -0.249629 0.16854
v 8.03182 1.97136 -31.5711
vn -0.974103 -0.153705 0.165828
v 8.02862 1.9993 -31.5723
vn -0.985262 -0.0563018 0.161519
v 8.02814 2.0274 -31.574
vn -0.986933 0.0416439 0.155655
v 8.03038 2.05538 -31.5761
vn -0.9791 0.139189 0.148292
v 8.03534 2.08297 -31.5786
vn -0.961837 0.235393 0.1395
v 8.04295 2.10992 -31.5815
vn -0.935311 0.32933 0.129365
v 8.05314 2.13596 -31.5848
vn -0.899777 0.420096 0.117985
v 8.06582 2.16084 -31.5884
vn -0.855578 0.506816 0.105468
v 8.08086 2.18431 -31.5923
vn -0.80314 0.588654 0.0919352
v 8.09812 2.20616 -31.5964
vn -0.742967 0.664824 0.0775171
v 8.11744 2.22618 -31.6008
vn -0.675638 0.734592 0.0623525
v 8.13862 2.24416 -31.6053
vn -0.601803 0.797284 0.0465874
v 8.16146 2.25994 -31.6099
vn -0.522172 0.852299 0.0303737
v 8.18575 2.27337 -31.6147
vn -0.437513 0.899105 0.0138674
v 8.21124 2.28431 -31.6194
vn -0.34864 0.937253 -0.00277238
v 8.2377 2.29267 -31.6242
vn -0.256409 0.966374 -0.0193855
v 8.26487 2.29835 -31.6289
vn -0.161709 0.986188 -0.0358119
v 8.29248 2.30131 -31.6335
vn -0.0654515 0.996505 -0.0518934
v 8.32027 2.30152 -31.638
vn 0.0314363 0.997226 -0.0674752
v 8.34798 2.29897 -31.6423
vn 0.128021 0.988342 -0.0824071
v 8.37533 2.29369 -31.6463
vn 0.223373 0.96994 -0.0965455
v 8.40207 2.28573 -31.6501
vn 0.316574 0.942197 -0.109754
v 8.42793 2.27517 -31.6536
vn 0.406726 0.90538 -0.121906
v 8.45267 2.26211 -31.6568
vn 0.492961 0.859844 -0.132883
v 8.47604 2.24667 -31.6596
vn 0.574449 0.806027 -0.142581
v 8.49783 2.22901 -31.6619
vn 0.650404 0.744447 -0.150905
v 8.51783 2.20928 -31.6639
vn 0.720096 0.675698 -0.157777
v 8.53583 2.1877 -31.6654
vn 0.782853 0.600442 -0.163129
v 8.55167 2.16445 -31.6665
vn 0.83807 0.519403 -0.16691
v 8.56519 2.13977 -31.6672
vn 0.885216 0.433362 -0.169083
v 8.57627 2.11389 -31.6673
vn 0.923838 0.343148 -0.169628
v 8.72085 2.15598 -30.0306
vn 0.965569 0.255181 -0.0505842
v 8.72624 2.13074 -30.03
vn 0.986052 0.159231 -0.0484405
v 8.72913 2.10509 -30.0293
vn 0.997039 0.0617473 -0.0458303
v 8.7295 2.07928 -30.0285
vn 0.998424 -0.0363308 -0.0427787
v 8.72733 2.05356 -30.0276
vn 0.990193 -0.134059 -0.0393152
v 8.72266 2.02819 -30.0266
vn 0.972426 -0.230496 -0.035473
v 8.71552 2.00339 -30.0255
vn 0.945295 -0.324714 -0.0312892
v 8.70598 1.97942 -30.0243
vn 0.909059 -0.415804 -0.0268041
v 8.69414 1.95651 -30.0231
vn 0.864069 -0.50289 -0.0220608
v 8.68012 1.93487 -30.0217
vn 0.810757 -0.585132 -0.0171051
v 8.66403 1.91471 -30.0204
vn 0.749638 -0.66174 -0.0119846
v 8.64605 1.89623 -30.019
vn 0.681299 -0.731974 -0.00674875
v 8.62634 1.8796 -30.0176
vn 0.606398 -0.79516 -0.00144787
v 8.6051 1.86499 -30.0162
vn 0.525658 -0.850687 0.00386694
v 8.58252 1.85254 -30.0148
vn 0.439855 -0.898022 0.00914452
v 8.55883 1.84236 -30.0135
vn 0.349817 -0.936709 0.014334
v 8.53425 1.83455 -30.0121
vn 0.256409 -0.966374 0.0193855
v 8.50902 1.82919 -30.0109
vn 0.160532 -0.986733 0.0242503
v 8.48338 1.82634 -30.0096
vn 0.0631089 -0.997589 0.0288815
v 8.45759 1.82601 -30.0085
vn -0.0349219 -0.998837 0.0332346
v 8.43188 1.82821 -30.0074
vn -0.132616 -0.990467 0.0372676
v 8.40651 1.83292 -30.0065
vn -0.229034 -0.972557 0.0409417
v 8.38172 1.8401 -30.0056
vn -0.323245 -0.945281 0.0442215
v 8.35775 1.84967 -30.0049
vn -0.414344 -0.908902 0.0470755
v 8.33483 1.86155 -30.0042
vn -0.501452 -0.86377 0.049476
v 8.31318 1.87561 -30.0037
vn -0.583731 -0.810319 0.0514001
v 8.293 1.89173 -30.0033
vn -0.660388 -0.749064 0.0528292
v 8.27451 1.90975 -30.0031
vn -0.730686 -0.680595 0.0537495
v 8.25786 1.92949 -30.003
vn -0.793946 -0.605572 0.0541522
v 8.24323 1.95077 -30.003
vn -0.849561 -0.524716 0.0540334
v 8.23075 1.97337 -30.0032
vn -0.896993 -0.438808 0.0533942
v 8.22054 1.99709 -30.0035
vn -0.935787 -0.348673 0.0522407
v 8.2127 2.02169 -30.0039
vn -0.965569 -0.255181 0.0505842
v 8.20731 2.04694 -30.0045
vn -0.986052 -0.159231 0.0484405
v 8.20442 2.07259 -30.0052
vn -0.997039 -0.0617473 0.0458303
v 8.20406 2.0984 -30.006
vn -0.998424 0.0363308 0.0427787
v 8.20622 2.12411 -30.0069
vn -0.990193 0.134059 0.0393152
v 8.2109 2.14949 -30.0079
vn -0.972426 0.230496 0.035473
v 8.21804 2.17428 -30.009
vn -0.945295 0.324714 0.0312892
v 8.22757 2.19825 -30.0102
vn -0.909059 0.415804 0.0268041
v 8.23941 2.22117 -30.0114
vn -0.864069 0.50289 0.0220608
v 8.25344 2.24281 -30.0127
vn -0.810757 0.585132 0.0171051
v 8.26952 2.26297 -30.0141
vn -0.749638 0.66174 0.0119846
v 8.2875 2.28145 -30.0155
vn -0.681299 0.731974 0.00674875
v 8.30721 2.29807 -30.0169
vn -0.606398 0.79516 0.00144787
v 8.32846 2.31268 -30.0183
vn -0.525658 0.850687 -0.00386694
v 8.35103 2.32514 -30.0197
vn -0.439855 0.898022 -0.00914452
v 8.37473 2.33532 -30.021
vn -0.349817 0.936709 -0.014334
v 8.39931 2.34313 -30.0223
vn -0.256409 0.966374 -0.0193855
v 8.42453 2.34848 -30.0236
vn -0.160532 0.986733 -0.0242503
v 8.45017 2.35134 -30.0248
vn -0.0631089 0.997589 -0.0288815
v 8.47597 2.35167 -30.026
vn 0.0349219 0.998837 -0.0332346
v 8.50167 2.34946 -30.0271
vn 0.132616 0.990467 -0.0372676
v 8.52704 2.34475 -30.028
vn 0.229034 0.972557 -0.0409417
v 8.55183 2.33757 -30.0289
vn 0.323245 0.945281 -0.0442215
v 8.5758 2.328 -30.0296
vn 0.414344 0.908902 -0.0470755
v 8.59873 2.31613 -30.0303
vn 0.501452 0.86377 -0.049476
v 8.62038 2.30206 -30.0308
vn 0.583731 0.810319 -0.0514001
v 8.64055 2.28594 -30.0311
vn 0.660388 0.749064 -0.0528292
v 8.65905 2.26793 -30.0314
vn 0.730686 0.680595 -0.0537495
v 8.67569 2.24819 -30.0315
vn 0.793946 0.605572 -0.0541522
v 8.69033 2.22691 -30.0315
vn 0.849561 0.524716 -0.0540334
v 8.70281 2.2043 -30.0313
vn 0.896993 0.438808 -0.0533942
v 8.71302 2.18059 -30.031
vn 0.935787 0.348673 -0.0522407
v 8.69565 2.18746 -28.1284
vn 0.965732 0.25697 0.0364433
v 8.70055 2.16448 -28.1279
vn 0.986214 0.161011 0.0381679
v 8.70318 2.14114 -28.1276
vn 0.997199 0.0635019 0.039525
v 8.70351 2.11765 -28.1274
vn 0.99858 -0.0346189 0.0405014
v 8.70154 2.09424 -28.1272
vn 0.990344 -0.132406 0.0410877
v 8.69729 2.07113 -28.1272
vn 0.97257 -0.228918 0.0412784
v 8.69079 2.04855 -28.1272
vn 0.94543 -0.323226 0.0410715
v 8.68211 2.02672 -28.1274
vn 0.909185 -0.414421 0.0404691
v 8.67134 2.00584 -28.1276
vn 0.864184 -0.501625 0.0394769
v 8.65857 1.98612 -28.128
vn 0.810861 -0.583997 0.0381046
v 8.64394 1.96775 -28.1284
vn 0.749728 -0.660746 0.0363653
v 8.62757 1.9509 -28.1289
vn 0.681375 -0.731131 0.0342757
v 8.60964 1.93573 -28.1295
vn 0.606461 -0.794475 0.0318561
v 8.5903 1.9224 -28.1301
vn 0.525705 -0.850168 0.0291297
v 8.56976 1.91103 -28.1308
vn 0.439887 -0.897673 0.0261227
v 8.5482 1.90172 -28.1316
vn 0.349833 -0.936533 0.0228642
v 8.52583 1.89458 -28.1324
vn 0.256409 -0.966374 0.0193855
v 8.50288 1.88966 -28.1333
vn 0.160516 -0.986908 0.0157201
v 8.47955 1.88702 -28.1342
vn 0.0630771 -0.997938 0.0119033
v 8.45608 1.88668 -28.1352
vn -0.0349692 -0.999357 0.00797183
v 8.43268 1.88865 -28.1361
vn -0.132679 -0.991151 0.00396362
v 8.4096 1.8929 -28.1371
vn -0.22911 -0.9734 -8.27678e-05
v 8.38704 1.89939 -28.1381
vn -0.323336 -0.946275 -0.00412836
v 8.36523 1.90807 -28.139
vn -0.414447 -0.910037 -0.00813419
v 8.34437 1.91884 -28.14
vn -0.501567 -0.865035 -0.0120617
v 8.32467 1.93161 -28.1409
vn -0.583857 -0.811701 -0.015873
v 8.30631 1.94625 -28.1418
vn -0.660524 -0.750551 -0.0195315
v 8.28948 1.96262 -28.1426
vn -0.730829 -0.682173 -0.0230019
v 8.27434 1.98056 -28.1434
vn -0.794097 -0.607224 -0.0262507
v 8.26102 1.99991 -28.1441
vn -0.849716 -0.526428 -0.0292467
v 8.24966 2.02046 -28.1447
vn -0.897153 -0.440562 -0.0319611
v 8.24038 2.04204 -28.1453
vn -0.935949 -0.350454 -0.0343677
v 8.23325 2.06442 -28.1458
vn -0.965732 -0.25697 -0.0364433
v 8.22834 2.08739 -28.1462
vn -0.986214 -0.161011 -0.0381679
v 8.22571 2.11073 -28.1465
vn -0.997199 -0.0635019 -0.039525
v 8.22538 2.13422 -28.1468
vn -0.99858 0.0346189 -0.0405014
v 8.22735 2.15763 -28.1469
vn -0.990344 0.132406 -0.0410877
v 8.23161 2.18074 -28.147
vn -0.97257 0.228918 -0.0412784
v 8.23811 2.20332 -28.1469
vn -0.94543 0.323226 -0.0410715
v 8.24678 2.22515 -28.1468
vn -0.909185 0.414421 -0.0404691
v 8.25756 2.24603 -28.1465
vn -0.864184 0.501625 -0.0394769
v 8.27032 2.26575 -28.1462
vn -0.810861 0.583997 -0.0381046
v 8.28496 2.28412 -28.1458
vn -0.749728 0.660746 -0.0363653
v 8.30132 2.30097 -28.1453
vn -0.681375 0.731131 -0.0342757
v 8.31926 2.31614 -28.1447
vn -0.606461 0.794475 -0.0318561
v 8.33859 2.32947 -28.1441
vn -0.525705 0.850168 -0.0291297
v 8.35914 2.34084 -28.1433
vn -0.439887 0.897673 -0.0261227
v 8.3807 2.35015 -28.1426
vn -0.349833 0.936533 -0.0228642
v 8.40306 2.35729 -28.1417
vn -0.256409 0.966374 -0.0193855
v 8.42602 2.36221 -28.1408
vn -0.160516 0.986908 -0.0157201
v 8.44935 2.36485 -28.1399
vn -0.0630771 0.997938 -0.0119033
v 8.47282 2.36519 -28.139
vn 0.0349692 0.999357 -0.00797183
v 8.49621 2.36322 -28.138
vn 0.132679 0.991151 -0.00396362
v 8.5193 2.35897 -28.1371
vn 0.22911 0.9734 8.27678e-05
v 8.54186 2.35248 -28.1361
vn 0.323336 0.946275 0.00412836
v 8.56367 2.3438 -28.1351
vn 0.414447 0.910037 0.00813419
v 8.58453 2.33303 -28.1342
vn 0.501567 0.865035 0.0120617
v 8.60423 2.32026 -28.1333
vn 0.583857 0.811701 0.015873
v 8.62258 2.30562 -28.1324
vn 0.660524 0.750551 0.0195315
v 8.63941 2.28925 -28.1316
vn 0.730829 0.682173 0.0230019
v 8.65456 2.27131 -28.1308
vn 0.794097 0.607224 0.0262507
v 8.66787 2.25197 -28.1301
vn 0.849716 0.526428 0.0292467
v 8.67923 2.23141 -28.1294
vn 0.897153 0.440562 0.0319611
v 8.68852 2.20984 -28.1289
vn 0.935949 0.350454 0.0343677
v 8.51154 2.18218 -25.9562
vn 0.961014 0.257031 0.101918
v 8.51596 2.16148 -25.9559
vn 0.981519 0.161072 0.103327
v 8.51834 2.14045 -25.9558
vn 0.992571 0.0635622 0.103741
v 8.51866 2.11929 -25.9559
vn 0.994065 -0.03456 0.103156
v 8.51692 2.0982 -25.9562
vn 0.985985 -0.132349 0.101578
v 8.51313 2.07738 -25.9568
vn 0.968409 -0.228864 0.0990216
v 8.50733 2.05704 -25.9576
vn 0.941507 -0.323175 0.0955115
v 8.49957 2.03737 -25.9585
vn 0.905538 -0.414373 0.0910815
v 8.48993 2.01857 -25.9597
vn 0.860848 -0.501581 0.0857743
v 8.47851 2.0008 -25.961
vn 0.807868 -0.583958 0.0796411
v 8.4654 1.98424 -25.9625
vn 0.747107 -0.660712 0.0727409
v 8.45074 1.96906 -25.9641
vn 0.679151 -0.731102 0.0651401
v 8.43468 1.9554 -25.9659
vn 0.604655 -0.794452 0.0569121
v 8.41736 1.94339 -25.9678
vn 0.524336 -0.85015 0.0481359
v 8.39894 1.93314 -25.9698
vn 0.438967 -0.897661 0.0388962
v 8.37962 1.92476 -25.9718
vn 0.34937 -0.936527 0.0292818
v 8.35957 1.91832 -25.974
vn 0.256409 -0.966374 0.0193855
v 8.33899 1.91389 -25.9761
vn 0.160978 -0.986914 0.00930247
v 8.31807 1.91151 -25.9783
vn 0.0639976 -0.99795 -0.000870146
v 8.29702 1.9112 -25.9805
vn -0.0335995 -0.999374 -0.0110344
v 8.27604 1.91297 -25.9827
vn -0.130873 -0.991175 -0.0210923
v 8.25533 1.9168 -25.9848
vn -0.226886 -0.973429 -0.0309472
v 8.2351 1.92265 -25.9869
vn -0.320714 -0.946309 -0.040504
v 8.21553 1.93046 -25.9889
vn -0.411454 -0.910076 -0.0496707
v 8.19681 1.94017 -25.9907
vn -0.498231 -0.865078 -0.0583591
v 8.17913 1.95167 -25.9925
vn -0.58021 -0.811749 -0.0664854
v 8.16266 1.96486 -25.9941
vn -0.656601 -0.750602 -0.0739714
v 8.14754 1.9796 -25.9956
vn -0.726668 -0.682227 -0.0807451
v 8.13394 1.99577 -25.9969
vn -0.789738 -0.607281 -0.0867411
v 8.12198 2.01319 -25.998
vn -0.845201 -0.526487 -0.0919018
v 8.11177 2.03171 -25.9989
vn -0.892525 -0.440623 -0.0961774
v 8.10342 2.05115 -25.9996
vn -0.931254 -0.350515 -0.0995268
v 8.097 2.07131 -26.0001
vn -0.961014 -0.257031 -0.101918
v 8.09258 2.092 -26.0004
vn -0.981519 -0.161072 -0.103327
v 8.0902 2.11303 -26.0005
vn -0.992571 -0.0635622 -0.103741
v 8.08987 2.1342 -26.0004
vn -0.994065 0.03456 -0.103156
v 8.09162 2.15529 -26.0001
vn -0.985985 0.132349 -0.101578
v 8.09541 2.1761 -25.9995
vn -0.968409 0.228864 -0.0990216
v 8.10121 2.19644 -25.9988
vn -0.941507 0.323175 -0.0955115
v 8.10897 2.21611 -25.9978
vn -0.905538 0.414373 -0.0910815
v 8.11861 2.23492 -25.9967
vn -0.860848 0.501581 -0.0857743
v 8.13003 2.25269 -25.9953
vn -0.807868 0.583958 -0.0796411
v 8.14314 2.26924 -25.9938
vn -0.747107 0.660712 -0.0727409
v 8.15779 2.28442 -25.9922
vn -0.679151 0.731102 -0.0651401
v 8.17386 2.29809 -25.9904
vn -0.604655 0.794452 -0.0569121
v 8.19118 2.3101 -25.9885
vn -0.524336 0.85015 -0.0481359
v 8.20959 2.32035 -25.9865
vn -0.438967 0.897661 -0.0388962
v 8.22892 2.32873 -25.9845
vn -0.34937 0.936527 -0.0292818
v 8.24897 2.33517 -25.9823
vn -0.256409 0.966374 -0.0193855
v 8.26955 2.3396 -25.9802
vn -0.160978 0.986914 -0.00930247
v 8.29047 2.34198 -25.978
vn -0.0639976 0.99795 0.000870146
v 8.31152 2.34228 -25.9758
vn 0.0335995 0.999374 0.0110344
v 8.33249 2.34052 -25.9736
vn 0.130873 0.991175 0.0210923
v 8.3532 2.33669 -25.9715
vn 0.226886 0.973429 0.0309472
v 8.37344 2.33084 -25.9694
vn 0.320714 0.946309 0.040504
v 8.39301 2.32302 -25.9674
vn 0.411454 0.910076 0.0496707
v 8.41172 2.31332 -25.9656
vn 0.498231 0.865078 0.0583591
v 8.42941 2.30182 -25.9638
vn 0.58021 0.811749 0.0664854
v 8.44588 2.28863 -25.9622
vn 0.656601 0.750602 0.0739714
v 8.46099 2.27388 -25.9607
vn 0.726668 0.682227 0.0807451
v 8.4746 2.25772 -25.9594
vn 0.789738 0.607281 0.0867411
v 8.48656 2.24029 -25.9583
vn 0.845201 0.526487 0.0919018
v 8.49676 2.22178 -25.9574
vn 0.892525 0.440623 0.0961774
v 8.50512 2.20234 -25.9567
vn 0.931254 0.350515 0.0995268
v 8.16945 2.14046 -23.5112
vn 0.954509 0.256317 0.15236
v 8.1734 2.12204 -23.511
vn 0.975046 0.160362 0.153526
v 8.17553 2.10333 -23.5111
vn 0.986192 0.062862 0.153214
v 8.17585 2.0845 -23.5114
vn 0.98784 -0.0352433 0.151427
v 8.17434 2.06573 -23.512
vn 0.979975 -0.133009 0.148181
v 8.17102 2.04721 -23.5129
vn 0.962672 -0.229494 0.143508
v 8.16592 2.02912 -23.5141
vn 0.936099 -0.323769 0.137453
v 8.15909 2.01162 -23.5155
vn 0.90051 -0.414925 0.130074
v 8.15059 1.99489 -23.5172
vn 0.856248 -0.502086 0.121442
v 8.14051 1.97909 -23.519
vn 0.803741 -0.584411 0.111641
v 8.12895 1.96436 -23.5211
vn 0.743493 -0.661108 0.100765
v 8.11601 1.95086 -23.5234
vn 0.676085 -0.731439 0.0889184
v 8.10182 1.93872 -23.5258
vn 0.602166 -0.794725 0.0762154
v 8.08652 1.92804 -23.5284
vn 0.522447 -0.850357 0.0627785
v 8.07025 1.91893 -23.5311
vn 0.437698 -0.8978 0.0487369
v 8.05318 1.91149 -23.5339
vn 0.348733 -0.936597 0.034226
v 8.03546 1.90577 -23.5367
vn 0.256409 -0.966374 0.0193855
v 8.01726 1.90184 -23.5396
vn 0.161616 -0.986844 0.00435828
v 7.99877 1.89974 -23.5425
vn 0.0652666 -0.99781 -0.0107109
v 7.98015 1.89948 -23.5454
vn -0.0317114 -0.999167 -0.0256769
v 7.9616 1.90106 -23.5482
vn -0.128384 -0.990901 -0.0403957
v 7.94328 1.90448 -23.551
vn -0.22382 -0.973093 -0.0547254
v 7.92537 1.9097 -23.5536
vn -0.317101 -0.945913 -0.0685281
v 7.90806 1.91666 -23.5561
vn -0.407327 -0.909623 -0.0816708
v 7.89149 1.92531 -23.5585
vn -0.493631 -0.864573 -0.094027
v 7.87584 1.93556 -23.5607
vn -0.575182 -0.811197 -0.105478
v 7.86125 1.9473 -23.5627
vn -0.651192 -0.750009 -0.115913
v 7.84786 1.96043 -23.5645
vn -0.720932 -0.681597 -0.125231
v 7.83581 1.97482 -23.5661
vn -0.783728 -0.606622 -0.133344
v 7.8252 1.99034 -23.5674
vn -0.838977 -0.525804 -0.140172
v 7.81615 2.00682 -23.5684
vn -0.886146 -0.439922 -0.14565
v 7.80873 2.02412 -23.5692
vn -0.924781 -0.349804 -0.149726
v 7.80303 2.04206 -23.5697
vn -0.954509 -0.256317 -0.15236
v 7.79908 2.06048 -23.5699
vn -0.975046 -0.160362 -0.153526
v 7.79695 2.0792 -23.5699
vn -0.986192 -0.062862 -0.153214
v 7.79663 2.09803 -23.5695
vn -0.98784 0.0352433 -0.151427
v 7.79814 2.11679 -23.5689
vn -0.979975 0.133009 -0.148181
v 7.80146 2.13531 -23.568
vn -0.962672 0.229494 -0.143508
v 7.80656 2.15341 -23.5668
vn -0.936099 0.323769 -0.137453
v 7.81339 2.1709 -23.5654
vn -0.90051 0.414925 -0.130074
v 7.82189 2.18763 -23.5638
vn -0.856248 0.502086 -0.121442
v 7.83197 2.20344 -23.5619
vn -0.803741 0.584411 -0.111641
v 7.84353 2.21816 -23.5598
vn -0.743493 0.661108 -0.100765
v 7.85647 2.23166 -23.5575
vn -0.676085 0.731439 -0.0889184
v 7.87066 2.2438 -23.5551
vn -0.602166 0.794725 -0.0762154
v 7.88596 2.25448 -23.5525
vn -0.522447 0.850357 -0.0627785
v 7.90223 2.26359 -23.5498
vn -0.437698 0.8978 -0.0487369
v 7.9193 2.27104 -23.547
vn -0.348733 0.936597 -0.034226
v 7.93702 2.27675 -23.5442
vn -0.256409 0.966374 -0.0193855
v 7.95522 2.28068 -23.5413
vn -0.161616 0.986844 -0.00435828
v 7.97371 2.28279 -23.5384
vn -0.0652666 0.99781 0.0107109
v 7.99233 2.28305 -23.5355
vn 0.0317114 0.999167 0.0256769
v 8.01088 2.28146 -23.5327
vn 0.128384 0.990901 0.0403957
v 8.0292 2.27804 -23.53
vn 0.22382 0.973093 0.0547254
v 8.04711 2.27282 -23.5273
vn 0.317101 0.945913 0.0685281
v 8.06442 2.26586 -23.5248
vn 0.407327 0.909623 0.0816708
v 8.08099 2.25721 -23.5224
vn 0.493631 0.864573 0.094027
v 8.09664 2.24697 -23.5202
vn 0.575182 0.811197 0.105478
v 8.11123 2.23522 -23.5182
vn 0.651192 0.750009 0.115913
v 8.12462 2.22209 -23.5164
vn 0.720932 0.681597 0.125231
v 8.13667 2.2077 -23.5149
vn 0.783728 0.606622 0.133344
v 8.14728 2.19219 -23.5136
vn 0.838977 0.525804 0.140172
v 8.15633 2.1757 -23.5125
vn 0.886146 0.439922 0.14565
v 8.16375 2.1584 -23.5117
vn 0.924781 0.349804 0.149726
v 7.66976 2.06243 -20.7917
vn 0.947587 0.255278 0.192126
v 7.67322 2.04629 -20.7915
vn 0.968156 0.159328 0.193101
v 7.67511 2.02989 -20.7917
vn 0.979402 0.0618429 0.192216
v 7.67542 2.01339 -20.7921
vn 0.981216 -0.0362376 0.18948
v 7.67413 1.99695 -20.7929
vn 0.97358 -0.133969 0.18492
v 7.67127 1.98073 -20.794
vn 0.956567 -0.23041 0.178578
v 7.66686 1.96488 -20.7953
vn 0.930343 -0.324633 0.170517
v 7.66094 1.94956 -20.797
vn 0.895159 -0.415728 0.160813
v 7.65357 1.93491 -20.7989
vn 0.851354 -0.502821 0.149561
v 7.64482 1.92107 -20.801
vn 0.799349 -0.58507 0.136868
v 7.63478 1.90818 -20.8033
vn 0.739647 -0.661686 0.122858
v 7.62354 1.89637 -20.8059
vn 0.672822 -0.731928 0.107664
v 7.61121 1.88574 -20.8086
vn 0.599517 -0.795122 0.0914332
v 7.59791 1.87639 -20.8115
vn 0.520438 -0.850659 0.0743219
v 7.58376 1.86843 -20.8145
vn 0.436347 -0.898003 0.0564949
v 7.56891 1.86192 -20.8176
vn 0.348054 -0.936699 0.0381238
v 7.55349 1.85693 -20.8208
vn 0.256409 -0.966374 0.0193855
v 7.53766 1.8535 -20.8239
vn 0.162295 -0.986742 0.000460528
v 7.52157 1.85168 -20.8271
vn 0.0666171 -0.997608 -0.0184689
v 7.50536 1.85146 -20.8303
vn -0.0297019 -0.998866 -0.0372204
v 7.48921 1.85287 -20.8334
vn -0.125735 -0.990504 -0.0556135
v 7.47326 1.85588 -20.8364
vn -0.220557 -0.972603 -0.073471
v 7.45767 1.86047 -20.8393
vn -0.313255 -0.945336 -0.0906209
v 7.44258 1.86659 -20.842
vn -0.402936 -0.908964 -0.106898
v 7.42815 1.87418 -20.8446
vn -0.488737 -0.863839 -0.122146
v 7.41451 1.88317 -20.8469
vn -0.56983 -0.810394 -0.136217
v 7.40179 1.89347 -20.8491
vn -0.645436 -0.749145 -0.148977
v 7.39012 1.90499 -20.851
vn -0.714827 -0.680681 -0.160302
v 7.3796 1.91761 -20.8526
vn -0.777333 -0.605662 -0.170083
v 7.37035 1.93121 -20.854
vn -0.832352 -0.52481 -0.178226
v 7.36244 1.94566 -20.8551
vn -0.879356 -0.438903 -0.184652
v 7.35596 1.96082 -20.8559
vn -0.917891 -0.34877 -0.189301
v 7.35096 1.97655 -20.8563
vn -0.947587 -0.255278 -0.192126
v 7.3475 1.99269 -20.8565
vn -0.968156 -0.159328 -0.193101
v 7.34561 2.00908 -20.8563
vn -0.979402 -0.0618429 -0.192216
v 7.34531 2.02558 -20.8559
vn -0.981216 0.0362376 -0.18948
v 7.34659 2.04202 -20.8551
vn -0.97358 0.133969 -0.18492
v 7.34945 2.05825 -20.8541
vn -0.956567 0.23041 -0.178578
v 7.35386 2.0741 -20.8527
vn -0.930343 0.324633 -0.170517
v 7.35978 2.08942 -20.8511
vn -0.895159 0.415728 -0.160813
v 7.36715 2.10407 -20.8492
vn -0.851354 0.502821 -0.149561
v 7.3759 2.11791 -20.847
vn -0.799349 0.58507 -0.136868
v 7.38594 2.13079 -20.8447
vn -0.739647 0.661686 -0.122858
v 7.39718 2.14261 -20.8421
vn -0.672822 0.731928 -0.107664
v 7.40951 2.15324 -20.8394
vn -0.599517 0.795122 -0.0914332
v 7.42282 2.16258 -20.8365
vn -0.520438 0.850659 -0.0743219
v 7.43696 2.17055 -20.8335
vn -0.436347 0.898003 -0.0564949
v 7.45181 2.17705 -20.8304
vn -0.348054 0.936699 -0.0381238
v 7.46723 2.18205 -20.8273
vn -0.256409 0.966374 -0.0193855
v 7.48306 2.18547 -20.8241
vn -0.162295 0.986742 -0.000460528
v 7.49916 2.1873 -20.8209
vn -0.0666171 0.997608 0.0184689
v 7.51536 2.18751 -20.8178
vn 0.0297019 0.998866 0.0372204
v 7.53151 2.18611 -20.8147
vn 0.125735 0.990504 0.0556135
v 7.54746 2.18309 -20.8117
vn 0.220557 0.972603 0.073471
v 7.56306 2.17851 -20.8088
vn 0.313255 0.945336 0.0906209
v 7.57814 2.17239 -20.806
vn 0.402936 0.908964 0.106898
v 7.59257 2.1648 -20.8035
vn 0.488737 0.863839 0.122146
v 7.60622 2.15581 -20.8011
vn 0.56983 0.810394 0.136217
v 7.61893 2.14551 -20.799
vn 0.645436 0.749145 0.148977
v 7.63061 2.13399 -20.797
vn 0.714827 0.680681 0.160302
v 7.64112 2.12137 -20.7954
vn 0.777333 0.605662 0.170083
v 7.65038 2.10777 -20.794
vn 0.832352 0.52481 0.178226
v 7.65828 2.09332 -20.793
vn 0.879356 0.438903 0.184652
v 7.66476 2.07816 -20.7922
vn 0.917891 0.34877 0.189301
v 7.01257 1.94814 -17.7964
vn 0.940841 0.25413 0.224133
v 7.01555 1.93428 -17.7963
vn 0.961443 0.158185 0.224954
v 7.01719 1.9202 -17.7965
vn 0.972786 0.0607172 0.223609
v 7.01747 1.90603 -17.797
vn 0.97476 -0.0373359 0.22011
v 7.0164 1.89191 -17.7978
vn 0.967347 -0.135029 0.214491
v 7.01398 1.87799 -17.7989
vn 0.950618 -0.231423 0.206806
v 7.01024 1.86438 -17.8003
vn 0.924734 -0.325587 0.19713
v 7.00522 1.85123 -17.802
vn 0.889944 -0.416616 0.185556
v 6.99895 1.83866 -17.8039
vn 0.846584 -0.503632 0.172194
v 6.99151 1.82678 -17.8061
vn 0.79507 -0.585799 0.157174
v 6.98296 1.81573 -17.8085
vn 0.7359 -0.662323 0.14064
v 6.97339 1.80559 -17.8111
vn 0.669642 -0.73247 0.122752
v 6.96288 1.79648 -17.8138
vn 0.596935 -0.795562 0.103682
v 6.95154 1.78847 -17.8167
vn 0.51848 -0.850992 0.0836133
v 6.93949 1.78164 -17.8197
vn 0.435031 -0.898227 0.0627393
v 6.92683 1.77607 -17.8228
vn 0.347393 -0.936811 0.0412611
v 6.91368 1.7718 -17.826
vn 0.256409 -0.966374 0.0193855
v 6.90018 1.76887 -17.8292
vn 0.162956 -0.98663 -0.00267678
v 6.88645 1.76732 -17.8324
vn 0.0679331 -0.997384 -0.0247133
v 6.87262 1.76715 -17.8355
vn -0.0277437 -0.998532 -0.0465118
v 6.85884 1.76837 -17.8386
vn -0.123153 -0.990065 -0.0678623
v 6.84522 1.77098 -17.8416
vn -0.217377 -0.972062 -0.0885593
v 6.83191 1.77493 -17.8445
vn -0.309507 -0.944698 -0.108403
v 6.81903 1.7802 -17.8472
vn -0.398656 -0.908236 -0.127204
v 6.80671 1.78673 -17.8497
vn -0.483967 -0.863027 -0.144779
v 6.79505 1.79446 -17.8521
vn -0.564616 -0.809507 -0.16096
v 6.78419 1.80332 -17.8542
vn -0.639828 -0.74819 -0.17559
v 6.77421 1.81322 -17.856
vn -0.708877 -0.679669 -0.18853
v 6.76522 1.82407 -17.8576
vn -0.7711 -0.604601 -0.199654
v 6.7573 1.83576 -17.859
vn -0.825897 -0.523711 -0.208855
v 6.75053 1.84817 -17.86
vn -0.87274 -0.437778 -0.216045
v 6.74498 1.8612 -17.8608
vn -0.911178 -0.347628 -0.221154
v 6.7407 1.87471 -17.8612
vn -0.940841 -0.25413 -0.224133
v 6.73772 1.88857 -17.8613
vn -0.961443 -0.158185 -0.224954
v 6.73608 1.90265 -17.8611
vn -0.972786 -0.0607172 -0.223609
v 6.73579 1.91682 -17.8606
vn -0.97476 0.0373359 -0.22011
v 6.73687 1.93093 -17.8598
vn -0.967347 0.135029 -0.214491
v 6.73928 1.94486 -17.8587
vn -0.950618 0.231423 -0.206806
v 6.74302 1.95847 -17.8573
vn -0.924734 0.325587 -0.19713
v 6.74805 1.97162 -17.8556
vn -0.889944 0.416616 -0.185556
v 6.75431 1.98419 -17.8537
vn -0.846584 0.503632 -0.172194
v 6.76176 1.99606 -17.8515
vn -0.79507 0.585799 -0.157174
v 6.77031 2.00712 -17.8491
vn -0.7359 0.662323 -0.14064
v 6.77988 2.01725 -17.8465
vn -0.669642 0.73247 -0.122752
v 6.79038 2.02637 -17.8438
vn -0.596935 0.795562 -0.103682
v 6.80172 2.03438 -17.8409
vn -0.51848 0.850992 -0.0836133
v 6.81378 2.0412 -17.8379
vn -0.435031 0.898227 -0.0627393
v 6.82644 2.04678 -17.8348
vn -0.347393 0.936811 -0.0412611
v 6.83959 2.05105 -17.8316
vn -0.256409 0.966374 -0.0193855
v 6.85309 2.05398 -17.8284
vn -0.162956 0.98663 0.00267678
v 6.86682 2.05553 -17.8252
vn -0.0679331 0.997384 0.0247133
v 6.88064 2.0557 -17.8221
vn 0.0277437 0.998532 0.0465118
v 6.89443 2.05447 -17.819
vn 0.123153 0.990065 0.0678623
v 6.90804 2.05187 -17.816
vn 0.217377 0.972062 0.0885593
v 6.92135 2.04792 -17.8131
vn 0.309507 0.944698 0.108403
v 6.93423 2.04265 -17.8104
vn 0.398656 0.908236 0.127204
v 6.94656 2.03612 -17.8079
vn 0.483967 0.863027 0.144779
v 6.95821 2.02839 -17.8055
vn 0.564616 0.809507 0.16096
v 6.96908 2.01953 -17.8034
vn 0.639828 0.74819 0.17559
v 6.97905 2.00963 -17.8016
vn 0.708877 0.679669 0.18853
v 6.98804 1.99878 -17.8
vn 0.7711 0.604601 0.199654
v 6.99596 1.98709 -17.7986
vn 0.825897 0.523711 0.208855
v 7.00273 1.97468 -17.7976
vn 0.87274 0.437778 0.216045
v 7.00828 1.96165 -17.7968
vn 0.911178 0.347628 0.221154
v 6.1979 1.79762 -14.5246
vn 0.934514 0.252978 0.250371
v 6.20039 1.78603 -14.5245
vn 0.955146 0.157039 0.251066
v 6.20177 1.77426 -14.5247
vn 0.96658 0.0595868 0.249343
v 6.20203 1.76243 -14.5252
vn 0.968706 -0.0384387 0.245218
v 6.20116 1.75064 -14.526
vn 0.961502 -0.136094 0.238732
v 6.19917 1.739 -14.5271
vn 0.945038 -0.232439 0.229946
v 6.19608 1.72764 -14.5284
vn 0.919473 -0.326545 0.218946
v 6.19193 1.71665 -14.53
vn 0.885053 -0.417507 0.205838
v 6.18674 1.70616 -14.5318
vn 0.84211 -0.504447 0.190747
v 6.18058 1.69624 -14.5338
vn 0.791056 -0.58653 0.173819
v 6.17349 1.68701 -14.5361
vn 0.732384 -0.662964 0.155217
v 6.16556 1.67855 -14.5385
vn 0.666659 -0.733013 0.135121
v 6.15684 1.67095 -14.5411
vn 0.594514 -0.796003 0.113723
v 6.14744 1.66427 -14.5438
vn 0.516643 -0.851327 0.0912297
v 6.13744 1.65858 -14.5466
vn 0.433797 -0.898452 0.067858
v 6.12693 1.65393 -14.5495
vn 0.346773 -0.936924 0.0438328
v 6.11602 1.65038 -14.5525
vn 0.256409 -0.966374 0.0193855
v 6.10481 1.64794 -14.5555
vn 0.163576 -0.986517 -0.00524854
v 6.09341 1.64666 -14.5584
vn 0.0691675 -0.997159 -0.029832
v 6.08193 1.64653 -14.5614
vn -0.025907 -0.998198 -0.0541282
v 6.07047 1.64757 -14.5642
vn -0.120732 -0.989624 -0.0779031
v 6.05916 1.64975 -14.567
vn -0.214394 -0.971519 -0.100928
v 6.0481 1.65307 -14.5697
vn -0.305992 -0.944058 -0.12298
v 6.0374 1.65748 -14.5722
vn -0.394643 -0.907505 -0.143849
v 6.02715 1.66295 -14.5745
vn -0.479493 -0.862212 -0.163332
v 6.01746 1.66943 -14.5767
vn -0.559725 -0.808616 -0.181242
v 6.00843 1.67684 -14.5787
vn -0.634567 -0.747232 -0.197406
v 6.00013 1.68512 -14.5804
vn -0.703297 -0.678652 -0.21167
v 5.99265 1.69419 -14.5819
vn -0.765255 -0.603536 -0.223895
v 5.98605 1.70396 -14.5831
vn -0.819842 -0.522608 -0.233963
v 5.98042 1.71434 -14.584
vn -0.866535 -0.436647 -0.241779
v 5.97578 1.72523 -14.5847
vn -0.904882 -0.346481 -0.247266
v 5.97221 1.73652 -14.5851
vn -0.934514 -0.252978 -0.250371
v 5.96972 1.74811 -14.5851
vn -0.955146 -0.157039 -0.251066
v 5.96833 1.75987 -14.5849
vn -0.96658 -0.0595868 -0.249343
v 5.96808 1.77171 -14.5844
vn -0.968706 0.0384387 -0.245218
v 5.96895 1.7835 -14.5837
vn -0.961502 0.136094 -0.238732
v 5.97094 1.79514 -14.5826
vn -0.945038 0.232439 -0.229946
v 5.97402 1.8065 -14.5813
vn -0.919473 0.326545 -0.218946
v 5.97818 1.81749 -14.5797
vn -0.885053 0.417507 -0.205838
v 5.98336 1.82798 -14.5779
vn -0.84211 0.504447 -0.190747
v 5.98953 1.8379 -14.5758
vn -0.791056 0.58653 -0.173819
v 5.99661 1.84713 -14.5736
vn -0.732384 0.662964 -0.155217
v 6.00455 1.85558 -14.5711
vn -0.666659 0.733013 -0.135121
v 6.01326 1.86319 -14.5686
vn -0.594514 0.796003 -0.113723
v 6.02267 1.86987 -14.5658
vn -0.516643 0.851327 -0.0912297
v 6.03267 1.87556 -14.563
vn -0.433797 0.898452 -0.067858
v 6.04318 1.88021 -14.5601
vn -0.346773 0.936924 -0.0438328
v 6.05409 1.88376 -14.5572
vn -0.256409 0.966374 -0.0193855
v 6.0653 1.8862 -14.5542
vn -0.163576 0.986517 0.00524854
v 6.0767 1.88748 -14.5512
vn -0.0691675 0.997159 0.029832
v 6.08818 1.88761 -14.5483
vn 0.025907 0.998198 0.0541282
v 6.09963 1.88657 -14.5454
vn 0.120732 0.989624 0.0779031
v 6.11094 1.88439 -14.5426
vn 0.214394 0.971519 0.100928
v 6.122 1.88107 -14.54
vn 0.305992 0.944058 0.12298
v 6.13271 1.87666 -14.5375
vn 0.394643 0.907505 0.143849
v 6.14295 1.87119 -14.5351
vn 0.479493 0.862212 0.163332
v 6.15264 1.86471 -14.5329
vn 0.559725 0.808616 0.181242
v 6.16168 1.8573 -14.531
vn 0.634567 0.747232 0.197406
v 6.16998 1.84902 -14.5293
vn 0.703297 0.678652 0.21167
v 6.17746 1.83995 -14.5278
vn 0.765255 0.603536 0.223895
v 6.18405 1.83018 -14.5266
vn 0.819842 0.522608 0.233963
v 6.18969 1.8198 -14.5256
vn 0.866535 0.436647 0.241779
v 6.19432 1.80891 -14.525
vn 0.904882 0.346481 0.247266
v 5.22573 1.61086 -10.9757
vn 0.928685 0.25187 0.272225
v 5.22773 1.60155 -10.9756
vn 0.949345 0.155936 0.272814
v 5.22885 1.5921 -10.9758
vn 0.960863 0.0584999 0.270776
v 5.22907 1.58259 -10.9763
vn 0.963127 -0.0394993 0.26613
v 5.22839 1.57312 -10.977
vn 0.956116 -0.137118 0.258921
v 5.22682 1.56378 -10.9779
vn 0.939897 -0.233416 0.249219
v 5.22437 1.55465 -10.9791
vn 0.914626 -0.327467 0.237117
v 5.22106 1.54583 -10.9805
vn 0.880547 -0.418363 0.222731
v 5.21693 1.5374 -10.9821
vn 0.837988 -0.505231 0.2062
v 5.21202 1.52945 -10.9839
vn 0.787358 -0.587233 0.187683
v 5.20637 1.52204 -10.9858
vn 0.729146 -0.663579 0.167358
v 5.20004 1.51525 -10.988
vn 0.663911 -0.733535 0.145422
v 5.19309 1.50915 -10.9902
vn 0.592283 -0.796427 0.122086
v 5.18559 1.50379 -10.9926
vn 0.514951 -0.851648 0.0975734
v 5.1776 1.49923 -10.9951
vn 0.43266 -0.898668 0.0721214
v 5.16921 1.49551 -10.9976
vn 0.346201 -0.937033 0.0459748
v 5.1605 1.49266 -11.0002
vn 0.256409 -0.966374 0.0193855
v 5.15155 1.49072 -11.0028
vn 0.164147 -0.986408 -0.00739054
v 5.14245 1.4897 -11.0054
vn 0.0703047 -0.996943 -0.0340954
v 5.13328 1.48961 -11.008
vn -0.0242149 -0.997876 -0.0604719
v 5.12413 1.49045 -11.0105
vn -0.118501 -0.989199 -0.086266
v 5.11509 1.49221 -11.0129
vn -0.211646 -0.970996 -0.111229
v 5.10625 1.49489 -11.0152
vn -0.302753 -0.943442 -0.135122
v 5.09769 1.49844 -11.0174
vn -0.390945 -0.906802 -0.157712
v 5.0895 1.50285 -11.0194
vn -0.475371 -0.861428 -0.178784
v 5.08175 1.50805 -11.0213
vn -0.555219 -0.807759 -0.198135
v 5.07453 1.51401 -11.023
vn -0.62972 -0.746311 -0.215577
v 5.06789 1.52067 -11.0245
vn -0.698156 -0.677675 -0.230943
v 5.0619 1.52797 -11.0258
vn -0.759869 -0.602513 -0.244084
v 5.05662 1.53582 -11.0268
vn -0.814264 -0.521548 -0.254876
v 5.0521 1.54416 -11.0276
vn -0.860817 -0.43556 -0.263212
v 5.04839 1.55291 -11.0282
vn -0.89908 -0.345378 -0.269014
v 5.04552 1.56199 -11.0285
vn -0.928685 -0.25187 -0.272225
v 5.04351 1.5713 -11.0286
vn -0.949345 -0.155936 -0.272814
v 5.0424 1.58075 -11.0284
vn -0.960863 -0.0584999 -0.270776
v 5.04218 1.59026 -11.0279
vn -0.963127 0.0394993 -0.26613
v 5.04286 1.59973 -11.0272
vn -0.956116 0.137118 -0.258921
v 5.04443 1.60907 -11.0263
vn -0.939897 0.233416 -0.249219
v 5.04688 1.6182 -11.0251
vn -0.914626 0.327467 -0.237117
v 5.05019 1.62702 -11.0237
vn -0.880547 0.418363 -0.222731
v 5.05432 1.63544 -11.0221
vn -0.837988 0.505231 -0.2062
v 5.05923 1.6434 -11.0203
vn -0.787358 0.587233 -0.187683
v 5.06488 1.65081 -11.0183
vn -0.729146 0.663579 -0.167358
v 5.07121 1.6576 -11.0162
vn -0.663911 0.733535 -0.145422
v 5.07816 1.6637 -11.0139
vn -0.592283 0.796427 -0.122086
v 5.08566 1.66906 -11.0116
vn -0.514951 0.851648 -0.0975734
v 5.09365 1.67362 -11.0091
vn -0.43266 0.898668 -0.0721214
v 5.10203 1.67734 -11.0065
vn -0.346201 0.937033 -0.0459748
v 5.11075 1.68019 -11.004
vn -0.256409 0.966374 -0.0193855
v 5.1197 1.68213 -11.0014
vn -0.164147 0.986408 0.00739054
v 5.1288 1.68315 -10.9988
vn -0.0703047 0.996943 0.0340954
v 5.13797 1.68324 -10.9962
vn 0.0242149 0.997876 0.0604719
v 5.14712 1.6824 -10.9937
vn 0.118501 0.989199 0.086266
v 5.15616 1.68064 -10.9913
vn 0.211646 0.970996 0.111229
v 5.165 1.67796 -10.989
vn 0.302753 0.943442 0.135122
v 5.17356 1.67441 -10.9868
vn 0.390945 0.906802 0.157712
v 5.18175 1.67 -10.9847
vn 0.475371 0.861428 0.178784
v 5.18949 1.6648 -10.9829
vn 0.555219 0.807759 0.198135
v 5.19672 1.65884 -10.9812
vn 0.62972 0.746311 0.215577
v 5.20336 1.65218 -10.9797
vn 0.698156 0.677675 0.230943
v 5.20935 1.64488 -10.9784
vn 0.759869 0.602513 0.244084
v 5.21463 1.63703 -10.9774
vn 0.814264 0.521548 0.254876
v 5.21914 1.62868 -10.9765
vn 0.860817 0.43556 0.263212
v 5.22286 1.61993 -10.976
vn 0.89908 0.345378 0.269014
f 1 66 2 
f 1 65 66 
f 2 67 3 
f 2 66 67 
f 3 68 4 
f 3 67 68 
f 4 69 5 
f 4 68 69 
f 5 70 6 
f 5 69 70 
f 6 71 7 
f 6 70 71 
f 7 72 8 
f 7 71 72 
f 8 73 9 
f 8 72 73 
f 9 74 10 
f 9 73 74 
f 10 75 11 
f 10 74 75 
f 11 76 12 
f 11 75 76 
f 12 77 13 
f 12 76 77 
f 13 78 14 
f 13 77 78 
f 14 79 15 
f 14 78 79 
f 15 80 16 
f 15 79 80 
f 16 81 17 
f 16 80 81 
f 17 82 18 
f 17 81 82 
f 18 83 19 
f 18 82 83 
f 19 84 20 
f 19 83 84 
f 20 85 21 
f 20 84 85 
f 21 86 22 
f 21 85 86 
f 22 87 23 
f 22 86 87 
f 23 88 24 
f 23 87 88 
f 24 89 25 
f 24 88 89 
f 25 90 26 
f 25 89 90 
f 26 91 27 
f 26 90 91 
f 27 92 28 
f 27 91 92 
f 28 93 29 
f 28 92 93 
f 29 94 30 
f 29 93 94 
f 30 95 31 
f 30 94 95 
f 31 96 32 
f 31 95 96 
f 32 97 33 
f 32 96 97 
f 33 98 34 
f 33 97 98 
f 34 99 35 
f 34 98 99 
f 35 100 36 
f 35 99 100 
f 36 101 37 
f 36 100 101 
f 37 102 38 
f 37 101 102 
f 38 103 39 
f 38 102 103 
f 39 104 40 
f 39 103 104 
f 40 105 41 
f 40 104 105 
f 41 106 42 
f 41 105 106 
f 42 107 43 
f 42 106 107 
f 43 108 44 
f 43 107 108 
f 44 109 45 
f 44 108 109 
f 45 110 46 
f 45 109 110 
f 46 111 47 
f 46 110 111 
f 47 112 48 
f 47 111 112 
f 48 113 49 
f 48 112 113 
f 49 114 50 
f 49 113 114 
f 50 115 51 
f 50 114 115 
f 51 116 52 
f 51 115 116 
f 52 117 53 
f 52 116 117 
f 53 118 54 
f 53 117 118 
f 54 119 55 
f 54 118 119 
f 55 120 56 
f 55 119 120 
f 56 121 57 
f 56 120 121 
f 57 122 58 
f 57 121 122 
f 58 123 59 
f 58 122 123 
f 59 124 60 
f 59 123 124 
f 60 125 61 
f 60 124 125 
f 61 126 62 
f 61 125 126 
f 62 127 63 
f 62 126 127 
f 63 128 64 
f 63 127 128 
f 64 65 1 
f 64 128 65 
f 65 130 66 
f 65 129 130 
f 66 131 67 
f 66 130 131 
f 67 132 68 
f 67 131 132 
f 68 133 69 
f 68 132 133 
f 69 134 70 
f 69 133 134 
f 70 135 71 
f 70 134 135 
f 71 136 72 
f 71 135 136 
f 72 137 73 
f 72 136 137 
f 73 138 74 
f 73 137 138 
f 74 139 75 
f 74 138 139 
f 75 140 76 
f 75 139 140 
f 76 141 77 
f 76 140 141 
f 77 142 78 
f 77 141 142 
f 78 143 79 
f 78 142 143 
f 79 144 80 
f 79 143 144 
f 80 145 81 
f 80 144 145 
f 81 146 82 
f 81 145 146 
f 82 147 83 
f 82 146 147 
f 83 148 84 
f 83 147 148 
f 84 149 85 
f 84 148 149 
f 85 150 86 
f 85 149 150 
f 86 151 87 
f 86 150 151 
f 87 152 88 
f 87 151 152 
f 88 153 89 
f 88 152 153 
f 89 154 90 
f 89 153 154 
f 90 155 91 
f 90 154 155 
f 91 156 92 
f 91 155 156 
f 92 157 93 
f 92 156 157 
f 93 158 94 
f 93 157 158 
f 94 159 95 
f 94 158 159 
f 95 160 96 
f 95 159 160 
f 96 161 97 
f 96 160 161 
f 97 162 98 
f 97 161 162 
f 98 163 99 
f 98 162 163 
f 99 164 100 
f 99 163 164 
f 100 165 101 
f 100 164 165 
f 101 166 102 
f 101 165 166 
f 102 167 103 
f 102 166 167 
f 103 168 104 
f 103 167 168 
f 104 169 105 
f 104 168 169 
f 105 170 106 
f 105 169 170 
f 106 171 107 
f 106 170 171 
f 107 172 108 
f 107 171 172 
f 108 173 109 
f 108 172 173 
f 109 174 110 
f 109 173 174 
f 110 175 111 
f 110 174 175 
f 111 176 112 
f 111 175 176 
f 112 177 113 
f 112 176 177 
f 113 178 114 
f 113 177 178 
f 114 179 115 
f 114 178 179 
f 115 180 116 
f 115 179 180 
f 116 181 117 
f 116 180 181 
f 117 182 118 
f 117 181 182 
f 118 183 119 
f 118 182 183 
f 119 184 120 
f 119 183 184 
f 120 185 121 
f 120 184 185 
f 121 186 122 
f 121 185 186 
f 122 187 123 
f 122 186 187 
f 123 188 124 
f 123 187 188 
f 124 189 125 
f 124 188 189 
f 125 190 126 
f 125 189 190 
f 126 191 127 
f 126 190 191 
f 127 192 128 
f 127 191 192 
f 128 129 65 
f 128 192 129 
f 129 194 130 
f 129 193 194 
f 130 195 131 
f 130 194 195 
f 131 196 132 
f 131 195 196 
f 132 197 133 
f 132 196 197 
f 133 198 134 
f 133 197 198 
f 134 199 135 
f 134 198 199 
f 135 200 136 
f 135 199 200 
f 136 201 137 
f 136 200 201 
f 137 202 138 
f 137 201 202 
f 138 203 139 
f 138 202 203 
f 139 204 140 
f 139 203 204 
f 140 205 141 
f 140 204 205 
f 141 206 142 
f 141 205 206 
f 142 207 143 
f 142 206 207 
f 143 208 144 
f 143 207 208 
f 144 209 145 
f 144 208 209 
f 145 210 146 
f 145 209 210 
f 146 211 147 
f 146 210 211 
f 147 212 148 
f 147 211 212 
f 148 213 149 
f 148 212 213 
f 149 214 150 
f 149 213 214 
f 150 215 151 
f 150 214 215 
f 151 216 152 
f 151 215 216 
f 152 217 153 
f 152 216 217 
f 153 218 154 
f 153 217 218 
f 154 219 155 
f 154 218 219 
f 155 220 156 
f 155 219 220 
f 156 221 157 
f 156 220 221 
f 157 222 158 
f 157 221 222 
f 158 223 159 
f 158 222 223 
f 159 224 160 
f 159 223 224 
f 160 225 161 
f 160 224 225 
f 161 226 162 
f 161 225 226 
f 162 227 163 
f 162 226 227 
f 163 228 164 
f 163 227 228 
f 164 229 165 
f 164 228 229 
f 165 230 166 
f 165 229 230 
f 166 231 167 
f 166 230 231 
f 167 232 168 
f 167 231 232 
f 168 233 169 
f 168 232 233 
f 169 234 170 
f 169 233 234 
f 170 235 171 
f 170 234 235 
f 171 236 172 
f 171 235 236 
f 172 237 173 
f 172 236 237 
f 173 238 174 
f 173 237 238 
f 174 239 175 
f 174 238 239 
f 175 240 176 
f 175 239 240 
f 176 241 177 
f 176 240 241 
f 177 242 178 
f 177 241 242 
f 178 243 179 
f 178 242 243 
f 179 244 180 
f 179 243 244 
f 180 245 181 
f 180 244 245 
f 181 246 182 
f 181 245 246 
f 182 247 183 
f 182 246 247 
f 183 248 184 
f 183 247 248 
f 184 249 185 
f 184 248 249 
f 185 250 186 
f 185 249 250 
f 186 251 187 
f 186 250 251 
f 187 252 188 
f 187 251 252 
f 188 253 189 
f 188 252 253 
f 189 254 190 
f 189 253 254 
f 190 255 191 
f 190 254 255 
f 191 256 192 
f 191 255 256 
f 192 193 129 
f 192 256 193 
f 193 258 194 
f 193 257 258 
f 194 259 195 
f 194 258 259 
f 195 260 196 
f 195 259 260 
f 196 261 197 
f 196 260 261 
f 197 262 198 
f 197 261 262 
f 198 263 199 
f 198 262 263 
f 199 264 200 
f 199 263 264 
f 200 265 201 
f 200 264 265 
f 201 266 202 
f 201 265 266 
f 202 267 203 
f 202 266 267 
f 203 268 204 
f 203 267 268 
f 204 269 205 
f 204 268 269 
f 205 270 206 
f 205 269 270 
f 206 271 207 
f 206 270 271 
f 207 272 208 
f 207 271 272 
f 208 273 209 
f 208 272 273 
f 209 274 210 
f 209 273 274 
f 210 275 211 
f 210 274 275 
f 211 276 212 
f 211 275 276 
f 212 277 213 
f 212 276 277 
f 213 278 214 
f 213 277 278 
f 214 279 215 
f 214 278 279 
f 215 280 216 
f 215 279 280 
f 216 281 217 
f 216 280 281 
f 217 282 218 
f 217 281 282 
f 218 283 219 
f 218 282 283 
f 219 284 220 
f 219 283 284 
f 220 285 221 
f 220 284 285 
f 221 286 222 
f 221 285 286 
f 222 287 223 
f 222 286 287 
f 223 288 224 
f 223 287 288 
f 224 289 225 
f 224 288 289 
f 225 290 226 
f 225 289 290 
f 226 291 227 
f 226 290 291 
f 227 292 228 
f 227 291 292 
f 228 293 229 
f 228 292 293 
f 229 294 230 
f 229 293 294 
f 230 295 231 
f 230 294 295 
f 231 296 232 
f 231 295 296 
f 232 297 233 
f 232 296 297 
f 233 298 234 
f 233 297 298 
f 234 299 235 
f 234 298 299 
f 235 300 236 
f 235 299 300 
f 236 301 237 
f 236 300 301 
f 237 302 238 
f 237 301 302 
f 238 303 239 
f 238 302 303 
f 239 304 240 
f 239 303 304 
f 240 305 241 
f 240 304 305 
f 241 306 242 
f 241 305 306 
f 242 307 243 
f 242 306 307 
f 243 308 244 
f 243 307 308 
f 244 309 245 
f 244 308 309 
f 245 310 246 
f 245 309 310 
f 246 311 247 
f 246 310 311 
f 247 312 248 
f 247 311 312 
f 248 313 249 
f 248 312 313 
f 249 314 250 
f 249 313 314 
f 250 315 251 
f 250 314 315 
f 251 316 252 
f 251 315 316 
f 252 317 253 
f 252 316 317 
f 253 318 254 
f 253 317 318 
f 254 319 255 
f 254 318 319 
f 255 320 256 
f 255 319 320 
f 256 257 193 
f 256 320 257 
f 257 322 258 
f 257 321 322 
f 258 323 259 
f 258 322 323 
f 259 324 260 
f 259 323 324 
f 260 325 261 
f 260 324 325 
f 261 326 262 
f 261 325 326 
f 262 327 263 
f 262 326 327 
f 263 328 264 
f 263 327 328 
f 264 329 265 
f 264 328 329 
f 265 330 266 
f 265 329 330 
f 266 331 267 
f 266 330 331 
f 267 332 268 
f 267 331 332 
f 268 333 269 
f 268 332 333 
f 269 334 270 
f 269 333 334 
f 270 335 271 
f 270 334 335 
f 271 336 272 
f 271 335 336 
f 272 337 273 
f 272 336 337 
f 273 338 274 
f 273 337 338 
f 274 339 275 
f 274 338 339 
f 275 340 276 
f 275 339 340 
f 276 341 277 
f 276 340 341 
f 277 342 278 
f 277 341 342 
f 278 343 279 
f 278 342 343 
f 279 344 280 
f 279 343 344 
f 280 345 281 
f 280 344 345 
f 281 346 282 
f 281 345 346 
f 282 347 283 
f 282 346 347 
f 283 348 284 
f 283 347 348 
f 284 349 285 
f 284 348 349 
f 285 350 286 
f 285 349 350 
f 286 351 287 
f 286 350 351 
f 287 352 288 
f 287 351 352 
f 288 353 289 
f 288 352 353 
f 289 354 290 
f 289 353 354 
f 290 355 291 
f 290 354 355 
f 291 356 292 
f 291 355 356 
f 292 357 293 
f 292 356 357 
f 293 358 294 
f 293 357 358 
f 294 359 295 
f 294 358 359 
f 295 360 296 
f 295 359 360 
f 296 361 297 
f 296 360 361 
f 297 362 298 
f 297 361 362 
f 298 363 299 
f 298 362 363 
f 299 364 300 
f 299 363 364 
f 300 365 301 
f 300 364 365 
f 301 366 302 
f 301 365 366 
f 302 367 303 
f 302 366 367 
f 303 368 304 
f 303 367 368 
f 304 369 305 
f 304 368 369 
f 305 370 306 
f 305 369 370 
f 306 371 307 
f 306 370 371 
f 307 372 308 
f 307 371 372 
f 308 373 309 
f 308 372 373 
f 309 374 310 
f 309 373 374 
f 310 375 311 
f 310 374 375 
f 311 376 312 
f 311 375 376 
f 312 377 313 
f 312 376 377 
f 313 378 314 
f 313 377 378 
f 314 379 315 
f 314 378 379 
f 315 380 316 
f 315 379 380 
f 316 381 317 
f 316 380 381 
f 317 382 318 
f 317 381 382 
f 318 383 319 
f 318 382 383 
f 319 384 320 
f 319 383 384 
f 320 321 257 
f 320 384 321 
f 321 386 322 
f 321 385 386 
f 322 387 323 
f 322 386 387 
f 323 388 324 
f 323 387 388 
f 324 389 325 
f 324 388 389 
f 325 390 326 
f 325 389 390 
f 326 391 327 
f 326 390 391 
f 327 392 328 
f 327 391 392 
f 328 393 329 
f 328 392 393 
f 329 394 330 
f 329 393 394 
f 330 395 331 
f 330 394 395 
f 331 396 332 
f 331 395 396 
f 332 397 333 
f 332 396 397 
f 333 398 334 
f 333 397 398 
f 334 399 335 
f 334 398 399 
f 335 400 336 
f 335 399 400 
f 336 401 337 
f 336 400 401 
f 337 402 338 
f 337 401 402 
f 338 403 339 
f 338 402 403 
f 339 404 340 
f 339 403 404 
f 340 405 341 
f 340 404 405 
f 341 406 342 
f 341 405 406 
f 342 407 343 
f 342 406 407 
f 343 408 344 
f 343 407 408 
f 344 409 345 
f 344 408 409 
f 345 410 346 
f 345 409 410 
f 346 411 347 
f 346 410 411 
f 347 412 348 
f 347 411 412 
f 348 413 349 
f 348 412 413 
f 349 414 350 
f 349 413 414 
f 350 415 351 
f 350 414 415 
f 351 416 352 
f 351 415 416 
f 352 417 353 
f 352 416 417 
f 353 418 354 
f 353 417 418 
f 354 419 355 
f 354 418 419 
f 355 420 356 
f 355 419 420 
f 356 421 357 
f 356 420 421 
f 357 422 358 
f 357 421 422 
f 358 423 359 
f 358 422 423 
f 359 424 360 
f 359 423 424 
f 360 425 361 
f 360 424 425 
f 361 426 362 
f 361 425 426 
f 362 427 363 
f 362 426 427 
f 363 428 364 
f 363 427 428 
f 364 429 365 
f 364 428 429 
f 365 430 366 
f 365 429 430 
f 366 431 367 
f 366 430 431 
f 367 432 368 
f 367 431 432 
f 368 433 369 
f 368 432 433 
f 369 434 370 
f 369 433 434 
f 370 435 371 
f 370 434 435 
f 371 436 372 
f 371 435 436 
f 372 437 373 
f 372 436 437 
f 373 438 374 
f 373 437 438 
f 374 439 375 
f 374 438 439 
f 375 440 376 
f 375 439 440 
f 376 441 377 
f 376 440 441 
f 377 442 378 
f 377 441 442 
f 378 443 379 
f 378 442 443 
f 379 444 380 
f 379 443 444 
f 380 445 381 
f 380 444 445 
f 381 446 382 
f 381 445 446 
f 382 447 383 
f 382 446 447 
f 383 448 384 
f 383 447 448 
f 384 385 321 
f 384 448 385 
f 385 450 386 
f 385 449 450 
f 386 451 387 
f 386 450 451 
f 387 452 388 
f 387 451 452 
f 388 453 389 
f 388 452 453 
f 389 454 390 
f 389 453 454 
f 390 455 391 
f 390 454 455 
f 391 456 392 
f 391 455 456 
f 392 457 393 
f 392 456 457 
f 393 458 394 
f 393 457 458 
f 394 459 395 
f 394 458 459 
f 395 460 396 
f 395 459 460 
f 396 461 397 
f 396 460 461 
f 397 462 398 
f 397 461 462 
f 398 463 399 
f 398 462 463 
f 399 464 400 
f 399 463 464 
f 400 465 401 
f 400 464 465 
f 401 466 402 
f 401 465 466 
f 402 467 403 
f 402 466 467 
f 403 468 404 
f 403 467 468 
f 404 469 405 
f 404 468 469 
f 405 470 406 
f 405 469 470 
f 406 471 407 
f 406 470 471 
f 407 472 408 
f 407 471 472 
f 408 473 409 
f 408 472 473 
f 409 474 410 
f 409 473 474 
f 410 475 411 
f 410 474 475 
f 411 476 412 
f 411 475 476 
f 412 477 413 
f 412 476 477 
f 413 478 414 
f 413 477 478 
f 414 479 415 
f 414 478 479 
f 415 480 416 
f 415 479 480 
f 416 481 417 
f 416 480 481 
f 417 482 418 
f 417 481 482 
f 418 483 419 
f 418 482 483 
f 419 484 420 
f 419 483 484 
f 420 485 421 
f 420 484 485 
f 421 486 422 
f 421 485 486 
f 422 487 423 
f 422 486 487 
f 423 488 424 
f 423 487 488 
f 424 489 425 
f 424 488 489 
f 425 490 426 
f 425 489 490 
f 426 491 427 
f 426 490 491 
f 427 492 428 
f 427 491 492 
f 428 493 429 
f 428 492 493 
f 429 494 430 
f 429 493 494 
f 430 495 431 
f 430 494 495 
f 431 496 432 
f 431 495 496 
f 432 497 433 
f 432 496 497 
f 433 498 434 
f 433 497 498 
f 434 499 435 
f 434 498 499 
f 435 500 436 
f 435 499 500 
f 436 501 437 
f 436 500 501 
f 437 502 438 
f 437 501 502 
f 438 503 439 
f 438 502 503 
f 439 504 440 
f 439 503 504 
f 440 505 441 
f 440 504 505 
f 441 506 442 
f 441 505 506 
f 442 507 443 
f 442 506 507 
f 443 508 444 
f 443 507 508 
f 444 509 445 
f 444 508 509 
f 445 510 446 
f 445 509 510 
f 446 511 447 
f 446 510 511 
f 447 512 448 
f 447 511 512 
f 448 449 385 
f 448 512 449 
f 449 514 450 
f 449 513 514 
f 450 515 451 
f 450 514 515 
f 451 516 452 
f 451 515 516 
f 452 517 453 
f 452 516 517 
f 453 518 454 
f 453 517 518 
f 454 519 455 
f 454 518 519 
f 455 520 456 
f 455 519 520 
f 456 521 457 
f 456 520 521 
f 457 522 458 
f 457 521 522 
f 458 523 459 
f 458 522 523 
f 459 524 460 
f 459 523 524 
f 460 525 461 
f 460 524 525 
f 461 526 462 
f 461 525 526 
f 462 527 463 
f 462 526 527 
f 463 528 464 
f 463 527 528 
f 464 529 465 
f 464 528 529 
f 465 530 466 
f 465 529 530 
f 466 531 467 
f 466 530 531 
f 467 532 468 
f 467 531 532 
f 468 533 469 
f 468 532 533 
f 469 534 470 
f 469 533 534 
f 470 535 471 
f 470 534 535 
f 471 536 472 
f 471 535 536 
f 472 537 473 
f 472 536 537 
f 473 538 474 
f 473 537 538 
f 474 539 475 
f 474 538 539 
f 475 540 476 
f 475 539 540 
f 476 541 477 
f 476 540 541 
f 477 542 478 
f 477 541 542 
f 478 543 479 
f 478 542 543 
f 479 544 480 
f 479 543 544 
f 480 545 481 
f 480 544 545 
f 481 546 482 
f 481 545 546 
f 482 547 483 
f 482 546 547 
f 483 548 484 
f 483 547 548 
f 484 549 485 
f 484 548 549 
f 485 550 486 
f 485 549 550 
f 486 551 487 
f 486 550 551 
f 487 552 488 
f 487 551 552 
f 488 553 489 
f 488 552 553 
f 489 554 490 
f 489 553 554 
f 490 555 491 
f 490 554 555 
f 491 556 492 
f 491 555 556 
f 492 557 493 
f 492 556 557 
f 493 558 494 
f 493 557 558 
f 494 559 495 
f 494 558 559 
f 495 560 496 
f 495 559 560 
f 496 561 497 
f 496 560 561 
f 497 562 498 
f 497 561 562 
f 498 563 499 
f 498 562 563 
f 499 564 500 
f 499 563 564 
f 500 565 501 
f 500 564 565 
f 501 566 502 
f 501 565 566 
f 502 567 503 
f 502 566 567 
f 503 568 504 
f 503 567 568 
f 504 569 505 
f 504 568 569 
f 505 570 506 
f 505 569 570 
f 506 571 507 
f 506 570 571 
f 507 572 508 
f 507 571 572 
f 508 573 509 
f 508 572 573 
f 509 574 510 
f 509 573 574 
f 510 575 511 
f 510 574 575 
f 511 576 512 
f 511 575 576 
f 512 513 449 
f 512 576 513 
f 513 578 514 
f 513 577 578 
f 514 579 515 
f 514 578 579 
f 515 580 516 
f 515 579 580 
f 516 581 517 
f 516 580 581 
f 517 582 518 
f 517 581 582 
f 518 583 519 
f 518 582 583 
f 519 584 520 
f 519 583 584 
f 520 585 521 
f 520 584 585 
f 521 586 522 
f 521 585 586 
f 522 587 523 
f 522 586 587 
f 523 588 524 
f 523 587 588 
f 524 589 525 
f 524 588 589 
f 525 590 526 
f 525 589 590 
f 526 591 527 
f 526 590 591 
f 527 592 528 
f 527 591 592 
f 528 593 529 
f 528 592 593 
f 529 594 530 
f 529 593 594 
f 530 595 531 
f 530 594 595 
f 531 596 532 
f 531 595 596 
f 532 597 533 
f 532 596 597 
f 533 598 534 
f 533 597 598 
f 534 599 535 
f 534 598 599 
f 535 600 536 
f 535 599 600 
f 536 601 537 
f 536 600 601 
f 537 602 538 
f 537 601 602 
f 538 603 539 
f 538 602 603 
f 539 604 540 
f 539 603 604 
f 540 605 541 
f 540 604 605 
f 541 606 542 
f 541 605 606 
f 542 607 543 
f 542 606 607 
f 543 608 544 
f 543 607 608 
f 544 609 545 
f 544 608 609 
f 545 610 546 
f 545 609 610 
f 546 611 547 
f 546 610 611 
f 547 612 548 
f 547 611 612 
f 548 613 549 
f 548 612 613 
f 549 614 550 
f 549 613 614 
f 550 615 551 
f 550 614 615 
f 551 616 552 
f 551 615 616 
f 552 617 553 
f 552 616 617 
f 553 618 554 
f 553 617 618 
f 554 619 555 
f 554 618 619 
f 555 620 556 
f 555 619 620 
f 556 621 557 
f 556 620 621 
f 557 622 558 
f 557 621 622 
f 558 623 559 
f 558 622 623 
f 559 624 560 
f 559 623 624 
f 560 625 561 
f 560 624 625 
f 561 626 562 
f 561 625 626 
f 562 627 563 
f 562 626 627 
f 563 628 564 
f 563 627 628 
f 564 629 565 
f 564 628 629 
f 565 630 566 
f 565 629 630 
f 566 631 567 
f 566 630 631 
f 567 632 568 
f 567 631 632 
f 568 633 569 
f 568 632 633 
f 569 634 570 
f 569 633 634 
f 570 635 571 
f 570 634 635 
f 571 636 572 
f 571 635 636 
f 572 637 573 
f 572 636 637 
f 573 638 574 
f 573 637 638 
f 574 639 575 
f 574 638 639 
f 575 640 576 
f 575 639 640 
f 576 577 513 
f 576 640 577 
