# Branch
v -6.79079 0.176404 -27.4207
vn -0.138903 0.717057 -0.683034
v -6.81703 0.175089 -27.4148
vn -0.234542 0.712263 -0.661568
v -6.84264 0.171892 -27.4072
vn -0.327922 0.700609 -0.633731
v -6.86739 0.166844 -27.3979
vn -0.418144 0.682208 -0.59979
v -6.89104 0.159994 -27.387
vn -0.504339 0.657237 -0.560073
v -6.91335 0.151407 -27.3746
vn -0.585677 0.625936 -0.514963
v -6.93412 0.141167 -27.3609
vn -0.661374 0.588608 -0.464893
v -6.95314 0.129372 -27.3459
vn -0.730702 0.54561 -0.410346
v -6.97022 0.116135 -27.3299
vn -0.792993 0.497358 -0.351847
v -6.98522 0.101585 -27.3129
vn -0.847648 0.444317 -0.289959
v -6.99797 0.0858604 -27.2951
vn -0.894138 0.386996 -0.225279
v -7.00836 0.0691136 -27.2768
vn -0.932018 0.325948 -0.15843
v -7.01629 0.0515056 -27.258
vn -0.960922 0.261762 -0.0900546
v -7.02168 0.0332062 -27.239
vn -0.980572 0.195054 -0.0208121
v -7.02448 0.0143914 -27.22
vn -0.990778 0.126468 0.0486308
v -7.02466 -0.0047575 -27.2011
vn -0.991442 0.0566638 0.117605
v -7.02223 -0.0240561 -27.1825
vn -0.982559 -0.013686 0.185447
v -7.01719 -0.0433185 -27.1643
vn -0.964213 -0.083904 0.251503
v -7.00961 -0.0623593 -27.1469
vn -0.936581 -0.153314 0.315137
v -6.99956 -0.080995 -27.1303
vn -0.899929 -0.221247 0.375736
v -6.98713 -0.0990463 -27.1146
vn -0.85461 -0.28705 0.432717
v -6.97244 -0.116339 -27.1001
vn -0.801061 -0.350088 0.48553
v -6.95563 -0.132707 -27.0869
vn -0.739797 -0.409755 0.533667
v -6.93687 -0.147993 -27.0751
vn -0.671409 -0.465476 0.576665
v -6.91634 -0.162048 -27.0649
vn -0.596555 -0.516713 0.614109
v -6.89423 -0.174739 -27.0562
vn -0.515955 -0.562975 0.645639
v -6.87075 -0.185942 -27.0493
vn -0.430387 -0.603815 0.670951
v -6.84614 -0.19555 -27.0441
vn -0.340673 -0.638839 0.689801
v -6.82063 -0.203471 -27.0408
vn -0.247679 -0.667712 0.702009
v -6.79447 -0.209627 -27.0393
vn -0.1523 -0.690154 0.707455
v -6.7679 -0.21396 -27.0396
vn -0.0554536 -0.705949 0.706089
v -6.74119 -0.216428 -27.0419
vn 0.0419267 -0.714946 0.697922
v -6.71458 -0.217007 -27.046
vn 0.138903 -0.717057 0.683034
v -6.68835 -0.215692 -27.0519
vn 0.234542 -0.712263 0.661568
v -6.66273 -0.212495 -27.0595
vn 0.327922 -0.700609 0.633731
v -6.63798 -0.207447 -27.0688
vn 0.418144 -0.682208 0.59979
v -6.61433 -0.200597 -27.0797
vn 0.504339 -0.657237 0.560073
v -6.59202 -0.192011 -27.0921
vn 0.585677 -0.625936 0.514963
v -6.57126 -0.181771 -27.1058
vn 0.661374 -0.588608 0.464893
v -6.55224 -0.169975 -27.1208
vn 0.730702 -0.54561 0.410346
v -6.53515 -0.156739 -27.1368
vn 0.792993 -0.497358 0.351847
v -6.52016 -0.142188 -27.1538
vn 0.847648 -0.444317 0.289959
v -6.5074 -0.126464 -27.1715
vn 0.894138 -0.386996 0.225279
v -6.49701 -0.109717 -27.1899
vn 0.932018 -0.325948 0.15843
v -6.48908 -0.092109 -27.2086
vn 0.960922 -0.261762 0.0900546
v -6.48369 -0.0738096 -27.2276
vn 0.980572 -0.195054 0.0208121
v -6.48089 -0.0549948 -27.2467
vn 0.990778 -0.126468 -0.0486308
v -6.48071 -0.0358459 -27.2656
vn 0.991442 -0.0566638 -0.117605
v -6.48315 -0.0165473 -27.2842
vn 0.982559 0.013686 -0.185447
v -6.48818 0.00271514 -27.3023
vn 0.964213 0.083904 -0.251503
v -6.49576 0.0217559 -27.3198
vn 0.936581 0.153314 -0.315137
v -6.50582 0.0403916 -27.3364
vn 0.899929 0.221247 -0.375736
v -6.51825 0.0584429 -27.352
vn 0.85461 0.28705 -0.432717
v -6.53294 0.0757357 -27.3665
vn 0.801061 0.350088 -0.48553
v -6.54974 0.0921037 -27.3797
vn 0.739797 0.409755 -0.533667
v -6.5685 0.107389 -27.3915
vn 0.671409 0.465476 -0.576665
v -6.58904 0.121445 -27.4018
vn 0.596555 0.516713 -0.614109
v -6.61115 0.134136 -27.4104
vn 0.515955 0.562975 -0.645639
v -6.63462 0.145339 -27.4174
vn 0.430387 0.603815 -0.670951
v -6.65923 0.154947 -27.4226
vn 0.340673 0.638839 -0.689801
v -6.68474 0.162867 -27.4259
vn 0.247679 0.667712 -0.702009
v -6.71091 0.169024 -27.4274
vn 0.1523 0.690154 -0.707455
v -6.73747 0.173357 -27.427
vn 0.0554536 0.705949 -0.706089
v -6.76419 0.175825 -27.4248
vn -0.0419267 0.714946 -0.697922
v -7.00043 -1.06512 -28.6231
vn -0.146051 0.674079 -0.724076
v -7.0277 -1.06642 -28.6169
vn -0.241655 0.669492 -0.702413
v -7.05429 -1.06957 -28.6088
vn -0.334932 0.658457 -0.673984
v -7.07997 -1.07453 -28.5988
vn -0.424984 0.641081 -0.639065
v -7.10449 -1.08124 -28.5871
vn -0.510942 0.61753 -0.597992
v -7.12759 -1.08965 -28.5738
vn -0.59198 0.588033 -0.551159
v -7.14908 -1.09968 -28.5589
vn -0.667317 0.552873 -0.499018
v -7.16873 -1.11122 -28.5427
vn -0.736228 0.512388 -0.442072
v -7.18636 -1.12418 -28.5252
vn -0.798048 0.466968 -0.380868
v -7.20179 -1.13841 -28.5067
vn -0.852182 0.417052 -0.315996
v -7.21489 -1.15379 -28.4874
vn -0.898109 0.363119 -0.248081
v -7.22552 -1.17017 -28.4673
vn -0.935387 0.305689 -0.177777
v -7.23358 -1.18738 -28.4468
vn -0.963657 0.245315 -0.105761
v -7.23899 -1.20527 -28.4259
vn -0.982647 0.182578 -0.0327261
v -7.24171 -1.22366 -28.405
vn -0.992172 0.118083 0.0406238
v -7.2417 -1.24238 -28.3842
vn -0.992143 0.0524512 0.113583
v -7.23897 -1.26124 -28.3637
vn -0.982559 -0.013686 0.185447
v -7.23354 -1.28006 -28.3437
vn -0.963512 -0.0796914 0.255526
v -7.22546 -1.29866 -28.3245
vn -0.935186 -0.144929 0.323144
v -7.21482 -1.31687 -28.3061
vn -0.897854 -0.208772 0.38765
v -7.2017 -1.3345 -28.2887
vn -0.851875 -0.270603 0.448423
v -7.18625 -1.35139 -28.2726
vn -0.797692 -0.329829 0.504877
v -7.16861 -1.36737 -28.2579
vn -0.735826 -0.385878 0.556469
v -7.14895 -1.38229 -28.2447
vn -0.666875 -0.438211 0.602702
v -7.12746 -1.39601 -28.2332
vn -0.591501 -0.486323 0.64313
v -7.10434 -1.4084 -28.2235
vn -0.51043 -0.529753 0.677365
v -7.07982 -1.41933 -28.2156
vn -0.424444 -0.56808 0.705077
v -7.05413 -1.4287 -28.2096
vn -0.33437 -0.600936 0.725998
v -7.02753 -1.43641 -28.2056
vn -0.241076 -0.628005 0.739927
v -7.00027 -1.44241 -28.2037
vn -0.14546 -0.649026 0.74673
v -6.9726 -1.44662 -28.2038
vn -0.0484432 -0.663797 0.746342
v -6.9448 -1.44901 -28.2059
vn 0.0490399 -0.672175 0.738767
v -6.91714 -1.44955 -28.2101
vn 0.146051 -0.674079 0.724076
v -6.88988 -1.44824 -28.2163
vn 0.241655 -0.669492 0.702413
v -6.86328 -1.4451 -28.2244
vn 0.334932 -0.658457 0.673984
v -6.8376 -1.44014 -28.2344
vn 0.424984 -0.641081 0.639065
v -6.81309 -1.43343 -28.2461
vn 0.510942 -0.61753 0.597992
v -6.78998 -1.42502 -28.2594
vn 0.59198 -0.588033 0.551159
v -6.7685 -1.41499 -28.2743
vn 0.667317 -0.552873 0.499018
v -6.74885 -1.40345 -28.2906
vn 0.736228 -0.512388 0.442072
v -6.73122 -1.39049 -28.308
vn 0.798048 -0.466968 0.380868
v -6.71578 -1.37626 -28.3265
vn 0.852182 -0.417052 0.315996
v -6.70268 -1.36088 -28.3459
vn 0.898109 -0.363119 0.248081
v -6.69205 -1.3445 -28.3659
vn 0.935387 -0.305689 0.177777
v -6.68399 -1.32729 -28.3865
vn 0.963657 -0.245315 0.105761
v -6.67858 -1.3094 -28.4073
vn 0.982647 -0.182578 0.0327261
v -6.67586 -1.29101 -28.4282
vn 0.992172 -0.118083 -0.0406238
v -6.67587 -1.27229 -28.449
vn 0.992143 -0.0524512 -0.113583
v -6.6786 -1.25343 -28.4695
vn 0.982559 0.013686 -0.185447
v -6.68403 -1.23461 -28.4895
vn 0.963512 0.0796914 -0.255526
v -6.69211 -1.21601 -28.5088
vn 0.935186 0.144929 -0.323144
v -6.70276 -1.1978 -28.5272
vn 0.897854 0.208772 -0.38765
v -6.71587 -1.18017 -28.5445
vn 0.851875 0.270603 -0.448423
v -6.73132 -1.16328 -28.5606
vn 0.797692 0.329829 -0.504877
v -6.74896 -1.1473 -28.5753
vn 0.735826 0.385878 -0.556469
v -6.76862 -1.13238 -28.5885
vn 0.666875 0.438211 -0.602702
v -6.79012 -1.11866 -28.6
vn 0.591501 0.486323 -0.64313
v -6.81323 -1.10627 -28.6098
vn 0.51043 0.529753 -0.677365
v -6.83775 -1.09534 -28.6177
vn 0.424444 0.56808 -0.705077
v -6.86344 -1.08597 -28.6236
vn 0.33437 0.600936 -0.725998
v -6.89004 -1.07825 -28.6276
vn 0.241076 0.628005 -0.739927
v -6.91731 -1.07226 -28.6295
vn 0.14546 0.649026 -0.74673
v -6.94497 -1.06805 -28.6294
vn 0.0484432 0.663797 -0.746342
v -6.97277 -1.06566 -28.6273
vn -0.0490399 0.672175 -0.738767
v -7.18422 -2.31342 -29.6889
vn -0.153407 0.623284 -0.766801
v -7.2125 -2.3147 -29.6825
vn -0.248976 0.618941 -0.744931
v -7.24008 -2.31775 -29.6739
vn -0.342147 0.608638 -0.715888
v -7.26668 -2.32254 -29.6632
vn -0.432023 0.592473 -0.67995
v -7.29205 -2.32901 -29.6507
vn -0.517739 0.570602 -0.637464
v -7.31595 -2.33711 -29.6363
vn -0.598468 0.543236 -0.588839
v -7.33814 -2.34676 -29.6202
vn -0.673434 0.510638 -0.534542
v -7.35841 -2.35787 -29.6026
vn -0.741914 0.473123 -0.475098
v -7.37656 -2.37032 -29.5837
vn -0.803249 0.431051 -0.411079
v -7.39243 -2.384 -29.5635
vn -0.856849 0.384828 -0.3431
v -7.40585 -2.39878 -29.5424
vn -0.902196 0.334898 -0.271818
v -7.4167 -2.41451 -29.5206
vn -0.938855 0.281744 -0.197917
v -7.42487 -2.43105 -29.4981
vn -0.966472 0.225876 -0.122111
v -7.43029 -2.44823 -29.4753
vn -0.984782 0.167833 -0.0451284
v -7.43291 -2.46589 -29.4524
vn -0.993608 0.108174 0.0322887
v -7.43269 -2.48385 -29.4296
vn -0.992864 0.0474724 0.109395
v -7.42964 -2.50196 -29.4071
vn -0.982559 -0.013686 0.185447
v -7.42379 -2.52002 -29.3851
vn -0.962791 -0.0747126 0.259714
v -7.41519 -2.53787 -29.3639
vn -0.933751 -0.13502 0.33148
v -7.40393 -2.55533 -29.3436
vn -0.895718 -0.194026 0.400053
v -7.39012 -2.57225 -29.3244
vn -0.84906 -0.251165 0.464773
v -7.37389 -2.58844 -29.3066
vn -0.794224 -0.305884 0.525017
v -7.3554 -2.60377 -29.2902
vn -0.731739 -0.357658 0.580206
v -7.33482 -2.61807 -29.2756
vn -0.662208 -0.405987 0.629806
v -7.31235 -2.63122 -29.2627
vn -0.586299 -0.450406 0.673341
v -7.28821 -2.64308 -29.2517
vn -0.504743 -0.490487 0.710392
v -7.26263 -2.65355 -29.2428
vn -0.418327 -0.525845 0.740601
v -7.23586 -2.66252 -29.2359
vn -0.327882 -0.556139 0.763677
v -7.20815 -2.6699 -29.2313
vn -0.234279 -0.581077 0.779399
v -7.17978 -2.67562 -29.2289
vn -0.13842 -0.600418 0.787615
v -7.15101 -2.67964 -29.2287
vn -0.0412283 -0.613978 0.788246
v -7.12213 -2.6819 -29.2307
vn 0.0563608 -0.621624 0.781285
v -7.0934 -2.68239 -29.235
vn 0.153407 -0.623284 0.766801
v -7.06511 -2.68111 -29.2415
vn 0.248976 -0.618941 0.744931
v -7.03754 -2.67806 -29.2501
vn 0.342147 -0.608638 0.715888
v -7.01093 -2.67327 -29.2607
vn 0.432023 -0.592473 0.67995
v -6.98556 -2.6668 -29.2733
vn 0.517739 -0.570602 0.637464
v -6.96167 -2.6587 -29.2877
vn 0.598468 -0.543236 0.588839
v -6.93948 -2.64905 -29.3038
vn 0.673434 -0.510638 0.534542
v -6.91921 -2.63794 -29.3214
vn 0.741914 -0.473123 0.475098
v -6.90105 -2.62549 -29.3403
vn 0.803249 -0.431051 0.411079
v -6.88519 -2.61181 -29.3604
vn 0.856849 -0.384828 0.3431
v -6.87177 -2.59703 -29.3815
vn 0.902196 -0.334898 0.271818
v -6.86092 -2.5813 -29.4034
vn 0.938855 -0.281744 0.197917
v -6.85274 -2.56476 -29.4258
vn 0.966472 -0.225876 0.122111
v -6.84732 -2.54758 -29.4486
vn 0.984782 -0.167833 0.0451284
v -6.84471 -2.52992 -29.4715
vn 0.993608 -0.108174 -0.0322887
v -6.84493 -2.51196 -29.4944
vn 0.992864 -0.0474724 -0.109395
v -6.84798 -2.49385 -29.5169
vn 0.982559 0.013686 -0.185447
v -6.85383 -2.47579 -29.5389
vn 0.962791 0.0747126 -0.259714
v -6.86243 -2.45794 -29.5601
vn 0.933751 0.13502 -0.33148
v -6.87368 -2.44047 -29.5804
vn 0.895718 0.194026 -0.400053
v -6.8875 -2.42356 -29.5995
vn 0.84906 0.251165 -0.464773
v -6.90373 -2.40737 -29.6174
vn 0.794224 0.305884 -0.525017
v -6.92222 -2.39204 -29.6337
vn 0.731739 0.357658 -0.580206
v -6.9428 -2.37774 -29.6484
vn 0.662208 0.405987 -0.629806
v -6.96527 -2.36459 -29.6613
vn 0.586299 0.450406 -0.673341
v -6.98941 -2.35273 -29.6722
vn 0.504743 0.490487 -0.710392
v -7.01499 -2.34226 -29.6812
vn 0.418327 0.525845 -0.740601
v -7.04176 -2.33329 -29.688
vn 0.327882 0.556139 -0.763677
v -7.06946 -2.32591 -29.6927
vn 0.234279 0.581077 -0.779399
v -7.09784 -2.32019 -29.6951
vn 0.13842 0.600418 -0.787615
v -7.12661 -2.31617 -29.6953
vn 0.0412283 0.613978 -0.788246
v -7.15549 -2.31391 -29.6932
vn -0.0563608 0.621624 -0.781285
v -7.34208 -3.56911 -30.6181
vn -0.160784 0.563532 -0.810296
v -7.3714 -3.57035 -30.6113
vn -0.256318 0.559477 -0.788217
v -7.39995 -3.57325 -30.6022
vn -0.349382 0.550034 -0.758548
v -7.42747 -3.57777 -30.5908
vn -0.439083 0.535294 -0.721573
v -7.4537 -3.58388 -30.5774
vn -0.524554 0.515398 -0.677648
v -7.47837 -3.5915 -30.5619
vn -0.604974 0.490539 -0.627198
v -7.50126 -3.60058 -30.5445
vn -0.679568 0.460956 -0.570708
v -7.52214 -3.61102 -30.5255
vn -0.747617 0.426934 -0.508721
v -7.54081 -3.62272 -30.505
vn -0.808466 0.3888 -0.441835
v -7.55709 -3.63557 -30.4832
vn -0.861529 0.346922 -0.370694
v -7.57082 -3.64944 -30.4603
vn -0.906295 0.301702 -0.295983
v -7.58188 -3.66421 -30.4365
vn -0.942333 0.253577 -0.218421
v -7.59015 -3.67973 -30.412
vn -0.969295 0.20301 -0.138756
v -7.59556 -3.69584 -30.3872
vn -0.986923 0.150488 -0.0577545
v -7.59806 -3.7124 -30.3621
vn -0.995047 0.0965166 0.0238031
v -7.59761 -3.72924 -30.3372
vn -0.993587 0.0416157 0.105132
v -7.59422 -3.74621 -30.3125
vn -0.982559 -0.013686 0.185447
v -7.58794 -3.76314 -30.2884
vn -0.962068 -0.0688559 0.263977
v -7.57881 -3.77986 -30.2651
vn -0.932312 -0.123363 0.339965
v -7.56692 -3.79622 -30.2428
vn -0.893577 -0.176681 0.412679
v -7.5524 -3.81206 -30.2217
vn -0.846237 -0.228299 0.481418
v -7.53537 -3.82722 -30.2021
vn -0.790746 -0.277717 0.545521
v -7.51601 -3.84157 -30.184
vn -0.727641 -0.324461 0.60437
v -7.4945 -3.85495 -30.1677
vn -0.657528 -0.36808 0.657399
v -7.47104 -3.86724 -30.1534
vn -0.581082 -0.408155 0.704097
v -7.44587 -3.87833 -30.1412
vn -0.499041 -0.444299 0.744014
v -7.41922 -3.88811 -30.1311
vn -0.412193 -0.476163 0.776766
v -7.39136 -3.89648 -30.1234
vn -0.321376 -0.503442 0.802037
v -7.36254 -3.90336 -30.118
vn -0.227464 -0.525873 0.819584
v -7.33306 -3.90869 -30.115
vn -0.131361 -0.543239 0.829238
v -7.30318 -3.91242 -30.1145
vn -0.033993 -0.555374 0.830906
v -7.27321 -3.9145 -30.1164
vn 0.0637023 -0.56216 0.824572
v -7.24342 -3.91492 -30.1208
vn 0.160784 -0.563532 0.810296
v -7.21411 -3.91367 -30.1276
vn 0.256318 -0.559477 0.788217
v -7.18555 -3.91078 -30.1367
vn 0.349382 -0.550034 0.758548
v -7.15803 -3.90625 -30.148
vn 0.439083 -0.535294 0.721573
v -7.13181 -3.90015 -30.1615
vn 0.524554 -0.515398 0.677648
v -7.10713 -3.89252 -30.177
vn 0.604974 -0.490539 0.627198
v -7.08425 -3.88345 -30.1943
vn 0.679568 -0.460956 0.570708
v -7.06337 -3.87301 -30.2133
vn 0.747617 -0.426934 0.508721
v -7.0447 -3.86131 -30.2339
vn 0.808466 -0.3888 0.441835
v -7.02842 -3.84846 -30.2557
vn 0.861529 -0.346922 0.370694
v -7.01468 -3.83458 -30.2786
vn 0.906295 -0.301702 0.295983
v -7.00362 -3.81982 -30.3024
vn 0.942333 -0.253577 0.218421
v -6.99535 -3.8043 -30.3269
vn 0.969295 -0.20301 0.138756
v -6.98994 -3.78819 -30.3517
vn 0.986923 -0.150488 0.0577545
v -6.98745 -3.77163 -30.3767
vn 0.995047 -0.0965166 -0.0238031
v -6.9879 -3.75478 -30.4017
vn 0.993587 -0.0416157 -0.105132
v -6.99128 -3.73781 -30.4263
vn 0.982559 0.013686 -0.185447
v -6.99757 -3.72089 -30.4504
vn 0.962068 0.0688559 -0.263977
v -7.0067 -3.70416 -30.4737
vn 0.932312 0.123363 -0.339965
v -7.01858 -3.6878 -30.4961
vn 0.893577 0.176681 -0.412679
v -7.03311 -3.67197 -30.5171
vn 0.846237 0.228299 -0.481418
v -7.05013 -3.6568 -30.5368
vn 0.790746 0.277717 -0.545521
v -7.0695 -3.64246 -30.5549
vn 0.727641 0.324461 -0.60437
v -7.09101 -3.62908 -30.5711
vn 0.657528 0.36808 -0.657399
v -7.11446 -3.61678 -30.5855
vn 0.581082 0.408155 -0.704097
v -7.13963 -3.60569 -30.5977
vn 0.499041 0.444299 -0.744014
v -7.16628 -3.59592 -30.6078
vn 0.412193 0.476163 -0.776766
v -7.19415 -3.58755 -30.6155
vn 0.321376 0.503442 -0.802037
v -7.22296 -3.58066 -30.6209
vn 0.227464 0.525873 -0.819584
v -7.25245 -3.57533 -30.6239
vn 0.131361 0.543239 -0.829238
v -7.28232 -3.57161 -30.6244
vn 0.033993 0.555374 -0.830906
v -7.3123 -3.56953 -30.6224
vn -0.0637023 0.56216 -0.824572
v -7.47396 -4.83279 -31.41
vn -0.167908 0.493845 -0.853185
v -7.50429 -4.83397 -31.4029
vn -0.263407 0.490126 -0.830899
v -7.53382 -4.83665 -31.3933
vn -0.35637 0.481686 -0.800612
v -7.56226 -4.8408 -31.3812
vn -0.4459 0.468607 -0.762614
v -7.58934 -4.84639 -31.3668
vn -0.531136 0.451016 -0.717272
v -7.61479 -4.85336 -31.3502
vn -0.611257 0.429081 -0.665022
v -7.63837 -4.86164 -31.3316
vn -0.685491 0.403014 -0.606368
v -7.65985 -4.87115 -31.3111
vn -0.753124 0.373065 -0.541874
v -7.67903 -4.88181 -31.289
vn -0.813503 0.339524 -0.472161
v -7.69572 -4.8935 -31.2654
vn -0.866048 0.302713 -0.397902
v -7.70977 -4.90612 -31.2406
vn -0.910253 0.262986 -0.31981
v -7.72102 -4.91954 -31.2148
vn -0.945691 0.220727 -0.238638
v -7.72939 -4.93364 -31.1883
vn -0.972022 0.176342 -0.155169
v -7.73478 -4.94828 -31.1613
vn -0.988991 0.130259 -0.0702043
v -7.73714 -4.96332 -31.1341
vn -0.996437 0.0829213 0.015436
v -7.73646 -4.97861 -31.1069
vn -0.994285 0.0347852 0.100928
v -7.73273 -4.99401 -31.0801
vn -0.982559 -0.013686 0.185447
v -7.726 -5.00936 -31.0538
vn -0.96137 -0.0620254 0.268181
v -7.71633 -5.02453 -31.0283
vn -0.930922 -0.109767 0.348332
v -7.70381 -5.03936 -31.0039
vn -0.891509 -0.156452 0.425129
v -7.68856 -5.05371 -30.9808
vn -0.84351 -0.201631 0.497831
v -7.67074 -5.06744 -30.9593
vn -0.787388 -0.244867 0.565738
v -7.6505 -5.08043 -30.9394
vn -0.723683 -0.285745 0.628198
v -7.62805 -5.09254 -30.9215
vn -0.653008 -0.323871 0.684607
v -7.6036 -5.10366 -30.9057
vn -0.576045 -0.358879 0.734424
v -7.57739 -5.11368 -30.8921
vn -0.493534 -0.39043 0.777167
v -7.54967 -5.12251 -30.8809
vn -0.40627 -0.418221 0.812426
v -7.52071 -5.13006 -30.8722
vn -0.315093 -0.441984 0.839861
v -7.49078 -5.13626 -30.8661
vn -0.220882 -0.461491 0.859207
v -7.46018 -5.14104 -30.8625
vn -0.124544 -0.476553 0.870279
v -7.4292 -5.14437 -30.8617
vn -0.0270059 -0.487026 0.87297
v -7.39813 -5.1462 -30.8635
vn 0.070792 -0.492808 0.867253
v -7.36728 -5.14653 -30.868
vn 0.167908 -0.493845 0.853185
v -7.33695 -5.14535 -30.875
vn 0.263407 -0.490126 0.830899
v -7.30742 -5.14267 -30.8847
vn 0.35637 -0.481686 0.800612
v -7.27898 -5.13852 -30.8967
vn 0.4459 -0.468607 0.762614
v -7.2519 -5.13293 -30.9111
vn 0.531136 -0.451016 0.717272
v -7.22645 -5.12596 -30.9277
vn 0.611257 -0.429081 0.665022
v -7.20287 -5.11768 -30.9464
vn 0.685491 -0.403014 0.606368
v -7.18138 -5.10817 -30.9669
vn 0.753124 -0.373065 0.541874
v -7.1622 -5.09751 -30.989
vn 0.813503 -0.339524 0.472161
v -7.14551 -5.08582 -31.0126
vn 0.866048 -0.302713 0.397902
v -7.13147 -5.0732 -31.0374
vn 0.910253 -0.262986 0.31981
v -7.12021 -5.05978 -31.0632
vn 0.945691 -0.220727 0.238638
v -7.11185 -5.04568 -31.0897
vn 0.972022 -0.176342 0.155169
v -7.10646 -5.03104 -31.1167
vn 0.988991 -0.130259 0.0702043
v -7.10409 -5.016 -31.1439
vn 0.996437 -0.0829213 -0.015436
v -7.10478 -5.00071 -31.171
vn 0.994285 -0.0347852 -0.100928
v -7.1085 -4.98531 -31.1979
vn 0.982559 0.013686 -0.185447
v -7.11523 -4.96996 -31.2242
vn 0.96137 0.0620254 -0.268181
v -7.1249 -4.95479 -31.2496
vn 0.930922 0.109767 -0.348332
v -7.13742 -4.93996 -31.274
vn 0.891509 0.156452 -0.425129
v -7.15267 -4.92561 -31.2971
vn 0.84351 0.201631 -0.497831
v -7.1705 -4.91188 -31.3187
vn 0.787388 0.244867 -0.565738
v -7.19074 -4.89889 -31.3385
vn 0.723683 0.285745 -0.628198
v -7.21319 -4.88678 -31.3565
vn 0.653008 0.323871 -0.684607
v -7.23763 -4.87566 -31.3723
vn 0.576045 0.358879 -0.734424
v -7.26384 -4.86564 -31.3859
vn 0.493534 0.39043 -0.777167
v -7.29156 -4.85681 -31.3971
vn 0.40627 0.418221 -0.812426
v -7.32053 -4.84926 -31.4058
vn 0.315093 0.441984 -0.839861
v -7.35045 -4.84306 -31.4119
vn 0.220882 0.461491 -0.859207
v -7.38106 -4.83828 -31.4154
vn 0.124544 0.476553 -0.870279
v -7.41204 -4.83495 -31.4163
vn 0.0270059 0.487026 -0.87297
v -7.44311 -4.83312 -31.4145
vn -0.070792 0.492808 -0.867253
v -7.5797 -6.10497 -32.0642
vn -0.174414 0.413648 -0.893574
v -7.61106 -6.10606 -32.0568
vn -0.269882 0.410315 -0.871094
v -7.64157 -6.10845 -32.0466
vn -0.362751 0.40303 -0.840226
v -7.67092 -6.11212 -32.0338
vn -0.452126 0.391864 -0.801265
v -7.69885 -6.11703 -32.0185
vn -0.537147 0.376923 -0.754587
v -7.72508 -6.12313 -32.0008
vn -0.616995 0.358353 -0.700643
v -7.74936 -6.13036 -31.9808
vn -0.690901 0.336332 -0.639951
v -7.77145 -6.13866 -31.9589
vn -0.758153 0.311072 -0.573096
v -7.79114 -6.14794 -31.9351
vn -0.818104 0.282816 -0.500721
v -7.80825 -6.15812 -31.9098
vn -0.870175 0.251836 -0.423525
v -7.8226 -6.16909 -31.8831
vn -0.913867 0.218431 -0.342249
v -7.83406 -6.18076 -31.8553
vn -0.948758 0.182922 -0.257678
v -7.84252 -6.193 -31.8267
vn -0.974511 0.145652 -0.170625
v -7.8479 -6.2057 -31.7975
vn -0.99088 0.106979 -0.0819288
v -7.85014 -6.21875 -31.7681
vn -0.997706 0.0672757 0.0075564
v -7.84923 -6.232 -31.7388
vn -0.994923 0.0269245 0.0969688
v -7.84517 -6.24534 -31.7097
vn -0.982559 -0.013686 0.185447
v -7.838 -6.25864 -31.6812
vn -0.960732 -0.0541647 0.27214
v -7.82779 -6.27176 -31.6536
vn -0.929653 -0.0941218 0.356212
v -7.81464 -6.28459 -31.6271
vn -0.88962 -0.133172 0.436853
v -7.79867 -6.297 -31.602
vn -0.841021 -0.17094 0.513287
v -7.78005 -6.30886 -31.5785
vn -0.784321 -0.207062 0.584778
v -7.75894 -6.32007 -31.5569
vn -0.720068 -0.24119 0.650637
v -7.73556 -6.33052 -31.5373
vn -0.648881 -0.272995 0.71023
v -7.71012 -6.3401 -31.52
vn -0.571445 -0.302171 0.762984
v -7.68287 -6.34873 -31.5051
vn -0.488505 -0.328436 0.808389
v -7.65408 -6.35632 -31.4927
vn -0.40086 -0.351539 0.846009
v -7.62403 -6.3628 -31.483
vn -0.309355 -0.371256 0.875482
v -7.59299 -6.3681 -31.4761
vn -0.214871 -0.387398 0.896523
v -7.56127 -6.37218 -31.4721
vn -0.118318 -0.399809 0.90893
v -7.52918 -6.37499 -31.4709
vn -0.0206248 -0.40837 0.912584
v -7.49702 -6.37651 -31.4725
vn 0.0772668 -0.412998 0.907449
v -7.46511 -6.37672 -31.4771
vn 0.174414 -0.413648 0.893574
v -7.43375 -6.37563 -31.4845
vn 0.269882 -0.410315 0.871094
v -7.40325 -6.37324 -31.4946
vn 0.362751 -0.40303 0.840226
v -7.37389 -6.36957 -31.5074
vn 0.452126 -0.391864 0.801265
v -7.34596 -6.36466 -31.5228
vn 0.537147 -0.376923 0.754587
v -7.31973 -6.35856 -31.5405
vn 0.616995 -0.358353 0.700643
v -7.29545 -6.35133 -31.5604
vn 0.690901 -0.336332 0.639951
v -7.27336 -6.34303 -31.5824
vn 0.758153 -0.311072 0.573096
v -7.25367 -6.33375 -31.6061
vn 0.818104 -0.282816 0.500721
v -7.23656 -6.32357 -31.6315
vn 0.870175 -0.251836 0.423525
v -7.22221 -6.3126 -31.6582
vn 0.913867 -0.218431 0.342249
v -7.21075 -6.30093 -31.686
vn 0.948758 -0.182922 0.257678
v -7.20229 -6.28869 -31.7146
vn 0.974511 -0.145652 0.170625
v -7.19691 -6.27599 -31.7437
vn 0.99088 -0.106979 0.0819288
v -7.19467 -6.26294 -31.7731
vn 0.997706 -0.0672757 -0.0075564
v -7.19558 -6.24969 -31.8025
vn 0.994923 -0.0269245 -0.0969688
v -7.19965 -6.23635 -31.8315
vn 0.982559 0.013686 -0.185447
v -7.20682 -6.22305 -31.86
vn 0.960732 0.0541647 -0.27214
v -7.21702 -6.20993 -31.8876
vn 0.929653 0.0941218 -0.356212
v -7.23017 -6.1971 -31.9141
vn 0.88962 0.133172 -0.436853
v -7.24614 -6.18469 -31.9392
vn 0.841021 0.17094 -0.513287
v -7.26476 -6.17283 -31.9627
vn 0.784321 0.207062 -0.584778
v -7.28587 -6.16162 -31.9844
vn 0.720068 0.24119 -0.650637
v -7.30926 -6.15117 -32.0039
vn 0.648881 0.272995 -0.71023
v -7.33469 -6.14158 -32.0213
vn 0.571445 0.302171 -0.762984
v -7.36194 -6.13296 -32.0362
vn 0.488505 0.328436 -0.808389
v -7.39073 -6.12537 -32.0485
vn 0.40086 0.351539 -0.846009
v -7.42079 -6.11889 -32.0582
vn 0.309355 0.371256 -0.875482
v -7.45182 -6.11359 -32.0651
vn 0.214871 0.387398 -0.896523
v -7.48354 -6.10951 -32.0692
vn 0.118318 0.399809 -0.90893
v -7.51563 -6.1067 -32.0704
vn 0.0206248 0.40837 -0.912584
v -7.54779 -6.10518 -32.0687
vn -0.0772668 0.412998 -0.907449
v -7.65915 -7.38594 -32.5796
vn -0.179862 0.323077 -0.929124
v -7.69153 -7.38692 -32.5719
vn -0.275304 0.32018 -0.906473
v -7.72302 -7.38895 -32.5613
vn -0.368094 0.314199 -0.875092
v -7.7533 -7.39201 -32.5478
vn -0.457339 0.305193 -0.835283
v -7.78209 -7.39606 -32.5316
vn -0.54218 0.293247 -0.787431
v -7.80911 -7.40107 -32.5127
vn -0.621799 0.278477 -0.731995
v -7.83409 -7.407 -32.4915
vn -0.69543 0.261025 -0.669509
v -7.8568 -7.41377 -32.4681
vn -0.762364 0.24106 -0.600576
v -7.87702 -7.42133 -32.4428
vn -0.821956 0.218773 -0.525858
v -7.89456 -7.42961 -32.4157
vn -0.873632 0.194379 -0.446077
v -7.90924 -7.43852 -32.3872
vn -0.916894 0.168113 -0.362
v -7.92092 -7.44799 -32.3575
vn -0.951326 0.140228 -0.274436
v -7.9295 -7.45791 -32.3269
vn -0.976596 0.110992 -0.184229
v -7.93488 -7.46819 -32.2957
vn -0.992461 0.0806876 -0.0922482
v -7.93702 -7.47874 -32.2641
vn -0.998769 0.0496062 0.000621071
v -7.9359 -7.48944 -32.2326
vn -0.995457 0.018047 0.0934844
v -7.93152 -7.50021 -32.2014
vn -0.982559 -0.013686 0.185447
v -7.92393 -7.51093 -32.1708
vn -0.960198 -0.0452872 0.275624
v -7.91321 -7.52151 -32.1411
vn -0.92859 -0.0764523 0.363147
v -7.89945 -7.53183 -32.1126
vn -0.888039 -0.106881 0.447172
v -7.88279 -7.54181 -32.0856
vn -0.838936 -0.136281 0.526891
v -7.86338 -7.55134 -32.0602
vn -0.781753 -0.164368 0.601536
v -7.84142 -7.56033 -32.0369
vn -0.717042 -0.190872 0.670387
v -7.81712 -7.5687 -32.0157
vn -0.645425 -0.215537 0.732783
v -7.79071 -7.57637 -31.9969
vn -0.567592 -0.238128 0.788121
v -7.76245 -7.58326 -31.9807
vn -0.484293 -0.258424 0.835869
v -7.7326 -7.5893 -31.9673
vn -0.39633 -0.276232 0.875567
v -7.70146 -7.59444 -31.9567
vn -0.304551 -0.29138 0.906833
v -7.66932 -7.59863 -31.949
vn -0.209838 -0.303722 0.929366
v -7.63649 -7.60182 -31.9444
vn -0.113104 -0.313138 0.942948
v -7.6033 -7.60399 -31.9429
vn -0.0152815 -0.319539 0.94745
v -7.57006 -7.60512 -31.9444
vn 0.0826885 -0.322863 0.942827
v -7.53708 -7.6052 -31.9491
vn 0.179862 -0.323077 0.929124
v -7.5047 -7.60421 -31.9568
vn 0.275304 -0.32018 0.906473
v -7.47321 -7.60218 -31.9674
vn 0.368094 -0.314199 0.875092
v -7.44293 -7.59913 -31.9809
vn 0.457339 -0.305193 0.835283
v -7.41414 -7.59507 -31.9972
vn 0.54218 -0.293247 0.787431
v -7.38712 -7.59006 -32.016
vn 0.621799 -0.278477 0.731995
v -7.36214 -7.58414 -32.0372
vn 0.69543 -0.261025 0.669509
v -7.33943 -7.57736 -32.0606
vn 0.762364 -0.24106 0.600576
v -7.31921 -7.5698 -32.0859
vn 0.821956 -0.218773 0.525858
v -7.30167 -7.56152 -32.113
vn 0.873632 -0.194379 0.446077
v -7.28699 -7.55261 -32.1415
vn 0.916894 -0.168113 0.362
v -7.27531 -7.54315 -32.1712
vn 0.951326 -0.140228 0.274436
v -7.26673 -7.53323 -32.2018
vn 0.976596 -0.110992 0.184229
v -7.26135 -7.52295 -32.2331
vn 0.992461 -0.0806876 0.0922482
v -7.25921 -7.5124 -32.2646
vn 0.998769 -0.0496062 -0.000621071
v -7.26033 -7.50169 -32.2961
vn 0.995457 -0.018047 -0.0934844
v -7.26471 -7.49092 -32.3273
vn 0.982559 0.013686 -0.185447
v -7.2723 -7.4802 -32.3579
vn 0.960198 0.0452872 -0.275624
v -7.28302 -7.46963 -32.3876
vn 0.92859 0.0764523 -0.363147
v -7.29678 -7.4593 -32.4161
vn 0.888039 0.106881 -0.447172
v -7.31345 -7.44932 -32.4431
vn 0.838936 0.136281 -0.526891
v -7.33285 -7.43979 -32.4685
vn 0.781753 0.164368 -0.601536
v -7.35481 -7.4308 -32.4918
vn 0.717042 0.190872 -0.670387
v -7.37911 -7.42243 -32.513
vn 0.645425 0.215537 -0.732783
v -7.40552 -7.41477 -32.5318
vn 0.567592 0.238128 -0.788121
v -7.43378 -7.40788 -32.548
vn 0.484293 0.258424 -0.835869
v -7.46363 -7.40184 -32.5615
vn 0.39633 0.276232 -0.875567
v -7.49477 -7.3967 -32.5721
vn 0.304551 0.29138 -0.906833
v -7.52691 -7.39251 -32.5797
vn 0.209838 0.303722 -0.929366
v -7.55974 -7.38931 -32.5843
vn 0.113104 0.313138 -0.942948
v -7.59293 -7.38714 -32.5859
vn 0.0152815 0.319539 -0.94745
v -7.62617 -7.38601 -32.5843
vn -0.0826885 0.322863 -0.942827
v -7.7121 -8.67565 -32.9554
vn -0.183785 0.223279 -0.957272
v -7.74551 -8.67649 -32.9474
vn -0.279207 0.220862 -0.934486
v -7.77799 -8.67808 -32.9363
vn -0.371941 0.216318 -0.902699
v -7.8092 -8.6804 -32.9221
vn -0.461093 0.209691 -0.86222
v -7.83886 -8.68343 -32.905
vn -0.545804 0.201045 -0.813436
v -7.86669 -8.68714 -32.8852
vn -0.625259 0.190463 -0.756819
v -7.8924 -8.69148 -32.8628
vn -0.698692 0.178046 -0.692914
v -7.91576 -8.69643 -32.8381
vn -0.765396 0.163914 -0.622335
v -7.93653 -8.70193 -32.8113
vn -0.82473 0.148204 -0.545762
v -7.95453 -8.70793 -32.7826
vn -0.87612 0.131067 -0.463934
v -7.96957 -8.71438 -32.7524
vn -0.919073 0.112667 -0.377638
v -7.98151 -8.7212 -32.7209
vn -0.953175 0.0931828 -0.287705
v -7.99023 -8.72834 -32.6885
vn -0.978097 0.0728008 -0.195001
v -7.99566 -8.73572 -32.6553
vn -0.9936 0.0517177 -0.100419
v -7.99774 -8.74328 -32.6219
vn -0.999534 0.0301364 -0.00487041
v -7.99645 -8.75093 -32.5884
vn -0.995842 0.00826501 0.0907254
v -7.9918 -8.75862 -32.5552
vn -0.982559 -0.013686 0.185447
v -7.98383 -8.76626 -32.5227
vn -0.959814 -0.0355053 0.278384
v -7.97263 -8.77378 -32.4911
vn -0.927825 -0.0569825 0.368639
v -7.9583 -8.78111 -32.4607
vn -0.8869 -0.0779111 0.455344
v -7.94098 -8.78818 -32.4319
vn -0.837435 -0.0980893 0.537663
v -7.92084 -8.79491 -32.4049
vn -0.779904 -0.117323 0.614805
v -7.89806 -8.80125 -32.38
vn -0.714862 -0.135426 0.686026
v -7.87288 -8.80713 -32.3573
vn -0.642936 -0.152226 0.75064
v -7.84552 -8.8125 -32.3372
vn -0.564819 -0.167559 0.808025
v -7.81626 -8.8173 -32.3199
vn -0.481261 -0.181279 0.857628
v -7.78538 -8.8215 -32.3054
vn -0.393069 -0.193253 0.898972
v -7.75318 -8.82504 -32.294
vn -0.301091 -0.203366 0.931658
v -7.71995 -8.82789 -32.2857
vn -0.206214 -0.21152 0.955372
v -7.68604 -8.83004 -32.2806
vn -0.109351 -0.217637 0.969885
v -7.65175 -8.83144 -32.2788
vn -0.0114343 -0.221658 0.975057
v -7.61743 -8.8321 -32.2802
vn 0.0865923 -0.223545 0.97084
v -7.58339 -8.83201 -32.285
vn 0.183785 -0.223279 0.957272
v -7.54998 -8.83116 -32.293
vn 0.279207 -0.220862 0.934486
v -7.51751 -8.82957 -32.3041
vn 0.371941 -0.216318 0.902699
v -7.48629 -8.82725 -32.3183
vn 0.461093 -0.209691 0.86222
v -7.45663 -8.82423 -32.3354
vn 0.545804 -0.201045 0.813436
v -7.42881 -8.82052 -32.3552
vn 0.625259 -0.190463 0.756819
v -7.4031 -8.81617 -32.3776
vn 0.698692 -0.178046 0.692914
v -7.37974 -8.81122 -32.4023
vn 0.765396 -0.163914 0.622335
v -7.35896 -8.80572 -32.4291
vn 0.82473 -0.148204 0.545762
v -7.34097 -8.79972 -32.4577
vn 0.87612 -0.131067 0.463934
v -7.32593 -8.79328 -32.488
vn 0.919073 -0.112667 0.377638
v -7.31399 -8.78646 -32.5194
vn 0.953175 -0.0931828 0.287705
v -7.30526 -8.77932 -32.5519
vn 0.978097 -0.0728008 0.195001
v -7.29983 -8.77194 -32.585
vn 0.9936 -0.0517177 0.100419
v -7.29775 -8.76438 -32.6185
vn 0.999534 -0.0301364 0.00487041
v -7.29905 -8.75672 -32.652
vn 0.995842 -0.00826501 -0.0907254
v -7.3037 -8.74904 -32.6851
vn 0.982559 0.013686 -0.185447
v -7.31166 -8.7414 -32.7177
vn 0.959814 0.0355053 -0.278384
v -7.32286 -8.73388 -32.7493
vn 0.927825 0.0569825 -0.368639
v -7.33719 -8.72655 -32.7796
vn 0.8869 0.0779111 -0.455344
v -7.35451 -8.71948 -32.8085
vn 0.837435 0.0980893 -0.537663
v -7.37466 -8.71275 -32.8355
vn 0.779904 0.117323 -0.614805
v -7.39743 -8.70641 -32.8604
vn 0.714862 0.135426 -0.686026
v -7.42262 -8.70053 -32.883
vn 0.642936 0.152226 -0.75064
v -7.44997 -8.69516 -32.9031
vn 0.564819 0.167559 -0.808025
v -7.47923 -8.69035 -32.9205
vn 0.481261 0.181279 -0.857628
v -7.51011 -8.68616 -32.935
vn 0.393069 0.193253 -0.898972
v -7.54232 -8.68262 -32.9464
vn 0.301091 0.203366 -0.931658
v -7.57554 -8.67976 -32.9547
vn 0.206214 0.21152 -0.955372
v -7.60946 -8.67762 -32.9598
vn 0.109351 0.217637 -0.969885
v -7.64374 -8.67621 -32.9616
vn 0.0114343 0.221658 -0.975057
v -7.67807 -8.67555 -32.9601
vn -0.0865923 0.223545 -0.97084
v -7.73836 -9.97355 -33.1903
vn -0.185768 0.116565 -0.975655
v -7.7728 -9.97424 -33.182
vn -0.281181 0.114663 -0.95278
v -7.80627 -9.97532 -33.1705
vn -0.373886 0.111656 -0.920729
v -7.83844 -9.97679 -33.1557
vn -0.462991 0.107573 -0.879811
v -7.86899 -9.97864 -33.1379
vn -0.547636 0.102455 -0.83042
v -7.89764 -9.98085 -33.1172
vn -0.627008 0.0963499 -0.773032
v -7.92412 -9.98338 -33.0938
vn -0.700341 0.089317 -0.708198
v -7.94815 -9.98623 -33.0679
vn -0.766929 0.0814239 -0.636545
v -7.96953 -9.98937 -33.0398
vn -0.826132 0.0727466 -0.558761
v -7.98803 -9.99275 -33.0098
vn -0.877378 0.0633688 -0.475596
v -8.00348 -9.99636 -32.9781
vn -0.920175 0.0533807 -0.387851
v -8.01573 -10.0001 -32.9451
vn -0.95411 0.0428785 -0.296371
v -8.02466 -10.0041 -32.911
vn -0.978856 0.0319634 -0.202036
v -8.03019 -10.0081 -32.8763
vn -0.994176 0.0207404 -0.105756
v -8.03226 -10.0123 -32.8412
vn -0.999921 0.00931771 -0.00845676
v -8.03086 -10.0164 -32.806
vn -0.996036 -0.00219472 0.0889235
v -8.026 -10.0206 -32.7712
vn -0.982559 -0.013686 0.185447
v -8.01771 -10.0247 -32.737
vn -0.959619 -0.0250455 0.280185
v -8.0061 -10.0287 -32.7037
vn -0.927438 -0.0361638 0.372225
v -7.99126 -10.0326 -32.6718
vn -0.886325 -0.0469338 0.46068
v -7.97333 -10.0363 -32.6415
vn -0.836676 -0.0572519 0.544698
v -7.9525 -10.0398 -32.613
vn -0.778969 -0.0670185 0.623471
v -7.92896 -10.0431 -32.5868
vn -0.713761 -0.0761397 0.696239
v -7.90294 -10.0461 -32.5629
vn -0.641678 -0.0845277 0.762302
v -7.87469 -10.0489 -32.5417
vn -0.563416 -0.0921016 0.821023
v -7.84448 -10.0513 -32.5234
vn -0.479728 -0.0987885 0.871838
v -7.8126 -10.0534 -32.5081
vn -0.39142 -0.104524 0.914257
v -7.77936 -10.0551 -32.4959
vn -0.299342 -0.109253 0.94787
v -7.74508 -10.0564 -32.4871
vn -0.204382 -0.11293 0.972355
v -7.71009 -10.0573 -32.4816
vn -0.107453 -0.115519 0.987476
v -7.67473 -10.0579 -32.4796
vn -0.00948918 -0.116996 0.993087
v -7.63933 -10.058 -32.481
vn 0.0885659 -0.117345 0.989134
v -7.60424 -10.0577 -32.4859
vn 0.185768 -0.116565 0.975655
v -7.5698 -10.057 -32.4942
vn 0.281181 -0.114663 0.95278
v -7.53633 -10.0559 -32.5057
vn 0.373886 -0.111656 0.920729
v -7.50417 -10.0545 -32.5205
vn 0.462991 -0.107573 0.879811
v -7.47361 -10.0526 -32.5383
vn 0.547636 -0.102455 0.83042
v -7.44496 -10.0504 -32.559
vn 0.627008 -0.0963499 0.773032
v -7.41849 -10.0479 -32.5824
vn 0.700341 -0.089317 0.708198
v -7.39445 -10.045 -32.6083
vn 0.766929 -0.0814239 0.636545
v -7.37308 -10.0419 -32.6364
vn 0.826132 -0.0727466 0.558761
v -7.35458 -10.0385 -32.6664
vn 0.877378 -0.0633688 0.475596
v -7.33913 -10.0349 -32.6981
vn 0.920175 -0.0533807 0.387851
v -7.32688 -10.0311 -32.7311
vn 0.95411 -0.0428785 0.296371
v -7.31794 -10.0272 -32.7652
vn 0.978856 -0.0319634 0.202036
v -7.31241 -10.0231 -32.7999
vn 0.994176 -0.0207404 0.105756
v -7.31034 -10.019 -32.835
vn 0.999921 -0.00931771 0.00845676
v -7.31174 -10.0148 -32.8702
vn 0.996036 0.00219472 -0.0889235
v -7.31661 -10.0107 -32.905
vn 0.982559 0.013686 -0.185447
v -7.32489 -10.0066 -32.9392
vn 0.959619 0.0250455 -0.280185
v -7.33651 -10.0026 -32.9725
vn 0.927438 0.0361638 -0.372225
v -7.35135 -9.99868 -33.0044
vn 0.886325 0.0469338 -0.46068
v -7.36927 -9.99496 -33.0347
vn 0.836676 0.0572519 -0.544698
v -7.3901 -9.99143 -33.0632
vn 0.778969 0.0670185 -0.623471
v -7.41364 -9.98814 -33.0894
vn 0.713761 0.0761397 -0.696239
v -7.43966 -9.98511 -33.1133
vn 0.641678 0.0845277 -0.762302
v -7.46791 -9.98238 -33.1345
vn 0.563416 0.0921016 -0.821023
v -7.49812 -9.97997 -33.1528
vn 0.479728 0.0987885 -0.871838
v -7.53 -9.9779 -33.1681
vn 0.39142 0.104524 -0.914257
v -7.56324 -9.97619 -33.1803
vn 0.299342 0.109253 -0.94787
v -7.59752 -9.97486 -33.1891
vn 0.204382 0.11293 -0.972355
v -7.63251 -9.97393 -33.1946
vn 0.107453 0.115519 -0.987476
v -7.66788 -9.97339 -33.1966
vn 0.00948918 0.116996 -0.993087
v -7.70327 -9.97327 -33.1952
vn -0.0885659 0.117345 -0.989134
v -7.73777 -11.2786 -33.2835
vn -0.185546 0.00629225 -0.982615
v -7.77324 -11.2791 -33.2749
vn -0.28096 0.00492048 -0.959707
v -7.80772 -11.2797 -33.263
vn -0.373668 0.00350133 -0.927556
v -7.84085 -11.2802 -33.2477
vn -0.462778 0.00204846 -0.886472
v -7.87232 -11.2808 -33.2293
vn -0.547431 0.000575864 -0.836851
v -7.90184 -11.2813 -33.2078
vn -0.626812 -0.00090228 -0.77917
v -7.92911 -11.2818 -33.1836
vn -0.700156 -0.00237174 -0.713986
v -7.95388 -11.2824 -33.1568
vn -0.766758 -0.00381835 -0.641925
v -7.97589 -11.2829 -33.1277
vn -0.825975 -0.00522819 -0.563683
v -7.99495 -11.2834 -33.0966
vn -0.877237 -0.00658768 -0.480012
v -8.01087 -11.2839 -33.0638
vn -0.920052 -0.00788373 -0.391718
v -8.0235 -11.2843 -33.0295
vn -0.954005 -0.00910385 -0.299652
v -8.03271 -11.2848 -32.9942
vn -0.978771 -0.0102363 -0.2047
v -8.03841 -11.2852 -32.9582
vn -0.994111 -0.0112702 -0.107776
v -8.04055 -11.2855 -32.9218
vn -0.999877 -0.0121955 -0.00981467
v -8.03912 -11.2858 -32.8853
vn -0.996014 -0.0130034 0.0882413
v -8.03412 -11.2861 -32.8492
vn -0.982559 -0.013686 0.185447
v -8.02559 -11.2863 -32.8137
vn -0.959641 -0.0142369 0.280868
v -8.01364 -11.2864 -32.7792
vn -0.927481 -0.0146506 0.373583
v -7.99836 -11.2865 -32.7461
vn -0.886389 -0.0149233 0.4627
v -7.9799 -11.2866 -32.7146
vn -0.836761 -0.0150522 0.547362
v -7.95845 -11.2866 -32.6851
vn -0.779074 -0.0150361 0.626752
v -7.93422 -11.2865 -32.6578
vn -0.713884 -0.0148753 0.700106
v -7.90742 -11.2864 -32.633
vn -0.641819 -0.0145712 0.766717
v -7.87833 -11.2862 -32.611
vn -0.563573 -0.0141268 0.825945
v -7.84721 -11.286 -32.5919
vn -0.4799 -0.0135463 0.877219
v -7.81438 -11.2857 -32.576
vn -0.391605 -0.0128354 0.920044
v -7.78015 -11.2854 -32.5634
vn -0.299538 -0.0120008 0.954009
v -7.74485 -11.2851 -32.5542
vn -0.204587 -0.0110507 0.978786
v -7.70881 -11.2847 -32.5485
vn -0.107666 -0.00999415 0.994137
v -7.67239 -11.2843 -32.5463
vn -0.00970719 -0.00884136 0.999914
v -7.63593 -11.2838 -32.5477
vn 0.0883447 -0.00760341 0.996061
v -7.59979 -11.2833 -32.5527
vn 0.185546 -0.00629225 0.982615
v -7.56431 -11.2828 -32.5613
vn 0.28096 -0.00492048 0.959707
v -7.52984 -11.2823 -32.5732
vn 0.373668 -0.00350133 0.927556
v -7.49671 -11.2817 -32.5885
vn 0.462778 -0.00204846 0.886472
v -7.46523 -11.2812 -32.6069
vn 0.547431 -0.000575864 0.836851
v -7.43571 -11.2806 -32.6284
vn 0.626812 0.00090228 0.77917
v -7.40844 -11.2801 -32.6526
vn 0.700156 0.00237174 0.713986
v -7.38368 -11.2795 -32.6794
vn 0.766758 0.00381835 0.641925
v -7.36166 -11.279 -32.7085
vn 0.825975 0.00522819 0.563683
v -7.3426 -11.2785 -32.7396
vn 0.877237 0.00658768 0.480012
v -7.32668 -11.278 -32.7725
vn 0.920052 0.00788373 0.391718
v -7.31406 -11.2776 -32.8067
vn 0.954005 0.00910385 0.299652
v -7.30485 -11.2772 -32.842
vn 0.978771 0.0102363 0.2047
v -7.29914 -11.2768 -32.878
vn 0.994111 0.0112702 0.107776
v -7.297 -11.2764 -32.9145
vn 0.999877 0.0121955 0.00981467
v -7.29844 -11.2761 -32.9509
vn 0.996014 0.0130034 -0.0882413
v -7.30344 -11.2759 -32.9871
vn 0.982559 0.013686 -0.185447
v -7.31196 -11.2757 -33.0225
vn 0.959641 0.0142369 -0.280868
v -7.32392 -11.2755 -33.057
vn 0.927481 0.0146506 -0.373583
v -7.3392 -11.2754 -33.0902
vn 0.886389 0.0149233 -0.4627
v -7.35765 -11.2754 -33.1216
vn 0.836761 0.0150522 -0.547362
v -7.3791 -11.2754 -33.1511
vn 0.779074 0.0150361 -0.626752
v -7.40334 -11.2754 -33.1784
vn 0.713884 0.0148753 -0.700106
v -7.43013 -11.2755 -33.2032
vn 0.641819 0.0145712 -0.766717
v -7.45923 -11.2757 -33.2252
vn 0.563573 0.0141268 -0.825945
v -7.49034 -11.2759 -33.2443
vn 0.4799 0.0135463 -0.877219
v -7.52317 -11.2762 -33.2602
vn 0.391605 0.0128354 -0.920044
v -7.5574 -11.2765 -33.2728
vn 0.299538 0.0120008 -0.954009
v -7.59271 -11.2769 -33.282
vn 0.204587 0.0110507 -0.978786
v -7.62874 -11.2772 -33.2878
vn 0.107666 0.00999415 -0.994137
v -7.66517 -11.2777 -33.2899
vn 0.00970719 0.00884136 -0.999914
v -7.70163 -11.2781 -33.2885
vn -0.0883447 0.00760341 -0.996061
f 1 66 2 
f 1 65 66 
f 2 67 3 
f 2 66 67 
f 3 68 4 
f 3 67 68 
f 4 69 5 
f 4 68 69 
f 5 70 6 
f 5 69 70 
f 6 71 7 
f 6 70 71 
f 7 72 8 
f 7 71 72 
f 8 73 9 
f 8 72 73 
f 9 74 10 
f 9 73 74 
f 10 75 11 
f 10 74 75 
f 11 76 12 
f 11 75 76 
f 12 77 13 
f 12 76 77 
f 13 78 14 
f 13 77 78 
f 14 79 15 
f 14 78 79 
f 15 80 16 
f 15 79 80 
f 16 81 17 
f 16 80 81 
f 17 82 18 
f 17 81 82 
f 18 83 19 
f 18 82 83 
f 19 84 20 
f 19 83 84 
f 20 85 21 
f 20 84 85 
f 21 86 22 
f 21 85 86 
f 22 87 23 
f 22 86 87 
f 23 88 24 
f 23 87 88 
f 24 89 25 
f 24 88 89 
f 25 90 26 
f 25 89 90 
f 26 91 27 
f 26 90 91 
f 27 92 28 
f 27 91 92 
f 28 93 29 
f 28 92 93 
f 29 94 30 
f 29 93 94 
f 30 95 31 
f 30 94 95 
f 31 96 32 
f 31 95 96 
f 32 97 33 
f 32 96 97 
f 33 98 34 
f 33 97 98 
f 34 99 35 
f 34 98 99 
f 35 100 36 
f 35 99 100 
f 36 101 37 
f 36 100 101 
f 37 102 38 
f 37 101 102 
f 38 103 39 
f 38 102 103 
f 39 104 40 
f 39 103 104 
f 40 105 41 
f 40 104 105 
f 41 106 42 
f 41 105 106 
f 42 107 43 
f 42 106 107 
f 43 108 44 
f 43 107 108 
f 44 109 45 
f 44 108 109 
f 45 110 46 
f 45 109 110 
f 46 111 47 
f 46 110 111 
f 47 112 48 
f 47 111 112 
f 48 113 49 
f 48 112 113 
f 49 114 50 
f 49 113 114 
f 50 115 51 
f 50 114 115 
f 51 116 52 
f 51 115 116 
f 52 117 53 
f 52 116 117 
f 53 118 54 
f 53 117 118 
f 54 119 55 
f 54 118 119 
f 55 120 56 
f 55 119 120 
f 56 121 57 
f 56 120 121 
f 57 122 58 
f 57 121 122 
f 58 123 59 
f 58 122 123 
f 59 124 60 
f 59 123 124 
f 60 125 61 
f 60 124 125 
f 61 126 62 
f 61 125 126 
f 62 127 63 
f 62 126 127 
f 63 128 64 
f 63 127 128 
f 64 65 1 
f 64 128 65 
f 65 130 66 
f 65 129 130 
f 66 131 67 
f 66 130 131 
f 67 132 68 
f 67 131 132 
f 68 133 69 
f 68 132 133 
f 69 134 70 
f 69 133 134 
f 70 135 71 
f 70 134 135 
f 71 136 72 
f 71 135 136 
f 72 137 73 
f 72 136 137 
f 73 138 74 
f 73 137 138 
f 74 139 75 
f 74 138 139 
f 75 140 76 
f 75 139 140 
f 76 141 77 
f 76 140 141 
f 77 142 78 
f 77 141 142 
f 78 143 79 
f 78 142 143 
f 79 144 80 
f 79 143 144 
f 80 145 81 
f 80 144 145 
f 81 146 82 
f 81 145 146 
f 82 147 83 
f 82 146 147 
f 83 148 84 
f 83 147 148 
f 84 149 85 
f 84 148 149 
f 85 150 86 
f 85 149 150 
f 86 151 87 
f 86 150 151 
f 87 152 88 
f 87 151 152 
f 88 153 89 
f 88 152 153 
f 89 154 90 
f 89 153 154 
f 90 155 91 
f 90 154 155 
f 91 156 92 
f 91 155 156 
f 92 157 93 
f 92 156 157 
f 93 158 94 
f 93 157 158 
f 94 159 95 
f 94 158 159 
f 95 160 96 
f 95 159 160 
f 96 161 97 
f 96 160 161 
f 97 162 98 
f 97 161 162 
f 98 163 99 
f 98 162 163 
f 99 164 100 
f 99 163 164 
f 100 165 101 
f 100 164 165 
f 101 166 102 
f 101 165 166 
f 102 167 103 
f 102 166 167 
f 103 168 104 
f 103 167 168 
f 104 169 105 
f 104 168 169 
f 105 170 106 
f 105 169 170 
f 106 171 107 
f 106 170 171 
f 107 172 108 
f 107 171 172 
f 108 173 109 
f 108 172 173 
f 109 174 110 
f 109 173 174 
f 110 175 111 
f 110 174 175 
f 111 176 112 
f 111 175 176 
f 112 177 113 
f 112 176 177 
f 113 178 114 
f 113 177 178 
f 114 179 115 
f 114 178 179 
f 115 180 116 
f 115 179 180 
f 116 181 117 
f 116 180 181 
f 117 182 118 
f 117 181 182 
f 118 183 119 
f 118 182 183 
f 119 184 120 
f 119 183 184 
f 120 185 121 
f 120 184 185 
f 121 186 122 
f 121 185 186 
f 122 187 123 
f 122 186 187 
f 123 188 124 
f 123 187 188 
f 124 189 125 
f 124 188 189 
f 125 190 126 
f 125 189 190 
f 126 191 127 
f 126 190 191 
f 127 192 128 
f 127 191 192 
f 128 129 65 
f 128 192 129 
f 129 194 130 
f 129 193 194 
f 130 195 131 
f 130 194 195 
f 131 196 132 
f 131 195 196 
f 132 197 133 
f 132 196 197 
f 133 198 134 
f 133 197 198 
f 134 199 135 
f 134 198 199 
f 135 200 136 
f 135 199 200 
f 136 201 137 
f 136 200 201 
f 137 202 138 
f 137 201 202 
f 138 203 139 
f 138 202 203 
f 139 204 140 
f 139 203 204 
f 140 205 141 
f 140 204 205 
f 141 206 142 
f 141 205 206 
f 142 207 143 
f 142 206 207 
f 143 208 144 
f 143 207 208 
f 144 209 145 
f 144 208 209 
f 145 210 146 
f 145 209 210 
f 146 211 147 
f 146 210 211 
f 147 212 148 
f 147 211 212 
f 148 213 149 
f 148 212 213 
f 149 214 150 
f 149 213 214 
f 150 215 151 
f 150 214 215 
f 151 216 152 
f 151 215 216 
f 152 217 153 
f 152 216 217 
f 153 218 154 
f 153 217 218 
f 154 219 155 
f 154 218 219 
f 155 220 156 
f 155 219 220 
f 156 221 157 
f 156 220 221 
f 157 222 158 
f 157 221 222 
f 158 223 159 
f 158 222 223 
f 159 224 160 
f 159 223 224 
f 160 225 161 
f 160 224 225 
f 161 226 162 
f 161 225 226 
f 162 227 163 
f 162 226 227 
f 163 228 164 
f 163 227 228 
f 164 229 165 
f 164 228 229 
f 165 230 166 
f 165 229 230 
f 166 231 167 
f 166 230 231 
f 167 232 168 
f 167 231 232 
f 168 233 169 
f 168 232 233 
f 169 234 170 
f 169 233 234 
f 170 235 171 
f 170 234 235 
f 171 236 172 
f 171 235 236 
f 172 237 173 
f 172 236 237 
f 173 238 174 
f 173 237 238 
f 174 239 175 
f 174 238 239 
f 175 240 176 
f 175 239 240 
f 176 241 177 
f 176 240 241 
f 177 242 178 
f 177 241 242 
f 178 243 179 
f 178 242 243 
f 179 244 180 
f 179 243 244 
f 180 245 181 
f 180 244 245 
f 181 246 182 
f 181 245 246 
f 182 247 183 
f 182 246 247 
f 183 248 184 
f 183 247 248 
f 184 249 185 
f 184 248 249 
f 185 250 186 
f 185 249 250 
f 186 251 187 
f 186 250 251 
f 187 252 188 
f 187 251 252 
f 188 253 189 
f 188 252 253 
f 189 254 190 
f 189 253 254 
f 190 255 191 
f 190 254 255 
f 191 256 192 
f 191 255 256 
f 192 193 129 
f 192 256 193 
f 193 258 194 
f 193 257 258 
f 194 259 195 
f 194 258 259 
f 195 260 196 
f 195 259 260 
f 196 261 197 
f 196 260 261 
f 197 262 198 
f 197 261 262 
f 198 263 199 
f 198 262 263 
f 199 264 200 
f 199 263 264 
f 200 265 201 
f 200 264 265 
f 201 266 202 
f 201 265 266 
f 202 267 203 
f 202 266 267 
f 203 268 204 
f 203 267 268 
f 204 269 205 
f 204 268 269 
f 205 270 206 
f 205 269 270 
f 206 271 207 
f 206 270 271 
f 207 272 208 
f 207 271 272 
f 208 273 209 
f 208 272 273 
f 209 274 210 
f 209 273 274 
f 210 275 211 
f 210 274 275 
f 211 276 212 
f 211 275 276 
f 212 277 213 
f 212 276 277 
f 213 278 214 
f 213 277 278 
f 214 279 215 
f 214 278 279 
f 215 280 216 
f 215 279 280 
f 216 281 217 
f 216 280 281 
f 217 282 218 
f 217 281 282 
f 218 283 219 
f 218 282 283 
f 219 284 220 
f 219 283 284 
f 220 285 221 
f 220 284 285 
f 221 286 222 
f 221 285 286 
f 222 287 223 
f 222 286 287 
f 223 288 224 
f 223 287 288 
f 224 289 225 
f 224 288 289 
f 225 290 226 
f 225 289 290 
f 226 291 227 
f 226 290 291 
f 227 292 228 
f 227 291 292 
f 228 293 229 
f 228 292 293 
f 229 294 230 
f 229 293 294 
f 230 295 231 
f 230 294 295 
f 231 296 232 
f 231 295 296 
f 232 297 233 
f 232 296 297 
f 233 298 234 
f 233 297 298 
f 234 299 235 
f 234 298 299 
f 235 300 236 
f 235 299 300 
f 236 301 237 
f 236 300 301 
f 237 302 238 
f 237 301 302 
f 238 303 239 
f 238 302 303 
f 239 304 240 
f 239 303 304 
f 240 305 241 
f 240 304 305 
f 241 306 242 
f 241 305 306 
f 242 307 243 
f 242 306 307 
f 243 308 244 
f 243 307 308 
f 244 309 245 
f 244 308 309 
f 245 310 246 
f 245 309 310 
f 246 311 247 
f 246 310 311 
f 247 312 248 
f 247 311 312 
f 248 313 249 
f 248 312 313 
f 249 314 250 
f 249 313 314 
f 250 315 251 
f 250 314 315 
f 251 316 252 
f 251 315 316 
f 252 317 253 
f 252 316 317 
f 253 318 254 
f 253 317 318 
f 254 319 255 
f 254 318 319 
f 255 320 256 
f 255 319 320 
f 256 257 193 
f 256 320 257 
f 257 322 258 
f 257 321 322 
f 258 323 259 
f 258 322 323 
f 259 324 260 
f 259 323 324 
f 260 325 261 
f 260 324 325 
f 261 326 262 
f 261 325 326 
f 262 327 263 
f 262 326 327 
f 263 328 264 
f 263 327 328 
f 264 329 265 
f 264 328 329 
f 265 330 266 
f 265 329 330 
f 266 331 267 
f 266 330 331 
f 267 332 268 
f 267 331 332 
f 268 333 269 
f 268 332 333 
f 269 334 270 
f 269 333 334 
f 270 335 271 
f 270 334 335 
f 271 336 272 
f 271 335 336 
f 272 337 273 
f 272 336 337 
f 273 338 274 
f 273 337 338 
f 274 339 275 
f 274 338 339 
f 275 340 276 
f 275 339 340 
f 276 341 277 
f 276 340 341 
f 277 342 278 
f 277 341 342 
f 278 343 279 
f 278 342 343 
f 279 344 280 
f 279 343 344 
f 280 345 281 
f 280 344 345 
f 281 346 282 
f 281 345 346 
f 282 347 283 
f 282 346 347 
f 283 348 284 
f 283 347 348 
f 284 349 285 
f 284 348 349 
f 285 350 286 
f 285 349 350 
f 286 351 287 
f 286 350 351 
f 287 352 288 
f 287 351 352 
f 288 353 289 
f 288 352 353 
f 289 354 290 
f 289 353 354 
f 290 355 291 
f 290 354 355 
f 291 356 292 
f 291 355 356 
f 292 357 293 
f 292 356 357 
f 293 358 294 
f 293 357 358 
f 294 359 295 
f 294 358 359 
f 295 360 296 
f 295 359 360 
f 296 361 297 
f 296 360 361 
f 297 362 298 
f 297 361 362 
f 298 363 299 
f 298 362 363 
f 299 364 300 
f 299 363 364 
f 300 365 301 
f 300 364 365 
f 301 366 302 
f 301 365 366 
f 302 367 303 
f 302 366 367 
f 303 368 304 
f 303 367 368 
f 304 369 305 
f 304 368 369 
f 305 370 306 
f 305 369 370 
f 306 371 307 
f 306 370 371 
f 307 372 308 
f 307 371 372 
f 308 373 309 
f 308 372 373 
f 309 374 310 
f 309 373 374 
f 310 375 311 
f 310 374 375 
f 311 376 312 
f 311 375 376 
f 312 377 313 
f 312 376 377 
f 313 378 314 
f 313 377 378 
f 314 379 315 
f 314 378 379 
f 315 380 316 
f 315 379 380 
f 316 381 317 
f 316 380 381 
f 317 382 318 
f 317 381 382 
f 318 383 319 
f 318 382 383 
f 319 384 320 
f 319 383 384 
f 320 321 257 
f 320 384 321 
f 321 386 322 
f 321 385 386 
f 322 387 323 
f 322 386 387 
f 323 388 324 
f 323 387 388 
f 324 389 325 
f 324 388 389 
f 325 390 326 
f 325 389 390 
f 326 391 327 
f 326 390 391 
f 327 392 328 
f 327 391 392 
f 328 393 329 
f 328 392 393 
f 329 394 330 
f 329 393 394 
f 330 395 331 
f 330 394 395 
f 331 396 332 
f 331 395 396 
f 332 397 333 
f 332 396 397 
f 333 398 334 
f 333 397 398 
f 334 399 335 
f 334 398 399 
f 335 400 336 
f 335 399 400 
f 336 401 337 
f 336 400 401 
f 337 402 338 
f 337 401 402 
f 338 403 339 
f 338 402 403 
f 339 404 340 
f 339 403 404 
f 340 405 341 
f 340 404 405 
f 341 406 342 
f 341 405 406 
f 342 407 343 
f 342 406 407 
f 343 408 344 
f 343 407 408 
f 344 409 345 
f 344 408 409 
f 345 410 346 
f 345 409 410 
f 346 411 347 
f 346 410 411 
f 347 412 348 
f 347 411 412 
f 348 413 349 
f 348 412 413 
f 349 414 350 
f 349 413 414 
f 350 415 351 
f 350 414 415 
f 351 416 352 
f 351 415 416 
f 352 417 353 
f 352 416 417 
f 353 418 354 
f 353 417 418 
f 354 419 355 
f 354 418 419 
f 355 420 356 
f 355 419 420 
f 356 421 357 
f 356 420 421 
f 357 422 358 
f 357 421 422 
f 358 423 359 
f 358 422 423 
f 359 424 360 
f 359 423 424 
f 360 425 361 
f 360 424 425 
f 361 426 362 
f 361 425 426 
f 362 427 363 
f 362 426 427 
f 363 428 364 
f 363 427 428 
f 364 429 365 
f 364 428 429 
f 365 430 366 
f 365 429 430 
f 366 431 367 
f 366 430 431 
f 367 432 368 
f 367 431 432 
f 368 433 369 
f 368 432 433 
f 369 434 370 
f 369 433 434 
f 370 435 371 
f 370 434 435 
f 371 436 372 
f 371 435 436 
f 372 437 373 
f 372 436 437 
f 373 438 374 
f 373 437 438 
f 374 439 375 
f 374 438 439 
f 375 440 376 
f 375 439 440 
f 376 441 377 
f 376 440 441 
f 377 442 378 
f 377 441 442 
f 378 443 379 
f 378 442 443 
f 379 444 380 
f 379 443 444 
f 380 445 381 
f 380 444 445 
f 381 446 382 
f 381 445 446 
f 382 447 383 
f 382 446 447 
f 383 448 384 
f 383 447 448 
f 384 385 321 
f 384 448 385 
f 385 450 386 
f 385 449 450 
f 386 451 387 
f 386 450 451 
f 387 452 388 
f 387 451 452 
f 388 453 389 
f 388 452 453 
f 389 454 390 
f 389 453 454 
f 390 455 391 
f 390 454 455 
f 391 456 392 
f 391 455 456 
f 392 457 393 
f 392 456 457 
f 393 458 394 
f 393 457 458 
f 394 459 395 
f 394 458 459 
f 395 460 396 
f 395 459 460 
f 396 461 397 
f 396 460 461 
f 397 462 398 
f 397 461 462 
f 398 463 399 
f 398 462 463 
f 399 464 400 
f 399 463 464 
f 400 465 401 
f 400 464 465 
f 401 466 402 
f 401 465 466 
f 402 467 403 
f 402 466 467 
f 403 468 404 
f 403 467 468 
f 404 469 405 
f 404 468 469 
f 405 470 406 
f 405 469 470 
f 406 471 407 
f 406 470 471 
f 407 472 408 
f 407 471 472 
f 408 473 409 
f 408 472 473 
f 409 474 410 
f 409 473 474 
f 410 475 411 
f 410 474 475 
f 411 476 412 
f 411 475 476 
f 412 477 413 
f 412 476 477 
f 413 478 414 
f 413 477 478 
f 414 479 415 
f 414 478 479 
f 415 480 416 
f 415 479 480 
f 416 481 417 
f 416 480 481 
f 417 482 418 
f 417 481 482 
f 418 483 419 
f 418 482 483 
f 419 484 420 
f 419 483 484 
f 420 485 421 
f 420 484 485 
f 421 486 422 
f 421 485 486 
f 422 487 423 
f 422 486 487 
f 423 488 424 
f 423 487 488 
f 424 489 425 
f 424 488 489 
f 425 490 426 
f 425 489 490 
f 426 491 427 
f 426 490 491 
f 427 492 428 
f 427 491 492 
f 428 493 429 
f 428 492 493 
f 429 494 430 
f 429 493 494 
f 430 495 431 
f 430 494 495 
f 431 496 432 
f 431 495 496 
f 432 497 433 
f 432 496 497 
f 433 498 434 
f 433 497 498 
f 434 499 435 
f 434 498 499 
f 435 500 436 
f 435 499 500 
f 436 501 437 
f 436 500 501 
f 437 502 438 
f 437 501 502 
f 438 503 439 
f 438 502 503 
f 439 504 440 
f 439 503 504 
f 440 505 441 
f 440 504 505 
f 441 506 442 
f 441 505 506 
f 442 507 443 
f 442 506 507 
f 443 508 444 
f 443 507 508 
f 444 509 445 
f 444 508 509 
f 445 510 446 
f 445 509 510 
f 446 511 447 
f 446 510 511 
f 447 512 448 
f 447 511 512 
f 448 449 385 
f 448 512 449 
f 449 514 450 
f 449 513 514 
f 450 515 451 
f 450 514 515 
f 451 516 452 
f 451 515 516 
f 452 517 453 
f 452 516 517 
f 453 518 454 
f 453 517 518 
f 454 519 455 
f 454 518 519 
f 455 520 456 
f 455 519 520 
f 456 521 457 
f 456 520 521 
f 457 522 458 
f 457 521 522 
f 458 523 459 
f 458 522 523 
f 459 524 460 
f 459 523 524 
f 460 525 461 
f 460 524 525 
f 461 526 462 
f 461 525 526 
f 462 527 463 
f 462 526 527 
f 463 528 464 
f 463 527 528 
f 464 529 465 
f 464 528 529 
f 465 530 466 
f 465 529 530 
f 466 531 467 
f 466 530 531 
f 467 532 468 
f 467 531 532 
f 468 533 469 
f 468 532 533 
f 469 534 470 
f 469 533 534 
f 470 535 471 
f 470 534 535 
f 471 536 472 
f 471 535 536 
f 472 537 473 
f 472 536 537 
f 473 538 474 
f 473 537 538 
f 474 539 475 
f 474 538 539 
f 475 540 476 
f 475 539 540 
f 476 541 477 
f 476 540 541 
f 477 542 478 
f 477 541 542 
f 478 543 479 
f 478 542 543 
f 479 544 480 
f 479 543 544 
f 480 545 481 
f 480 544 545 
f 481 546 482 
f 481 545 546 
f 482 547 483 
f 482 546 547 
f 483 548 484 
f 483 547 548 
f 484 549 485 
f 484 548 549 
f 485 550 486 
f 485 549 550 
f 486 551 487 
f 486 550 551 
f 487 552 488 
f 487 551 552 
f 488 553 489 
f 488 552 553 
f 489 554 490 
f 489 553 554 
f 490 555 491 
f 490 554 555 
f 491 556 492 
f 491 555 556 
f 492 557 493 
f 492 556 557 
f 493 558 494 
f 493 557 558 
f 494 559 495 
f 494 558 559 
f 495 560 496 
f 495 559 560 
f 496 561 497 
f 496 560 561 
f 497 562 498 
f 497 561 562 
f 498 563 499 
f 498 562 563 
f 499 564 500 
f 499 563 564 
f 500 565 501 
f 500 564 565 
f 501 566 502 
f 501 565 566 
f 502 567 503 
f 502 566 567 
f 503 568 504 
f 503 567 568 
f 504 569 505 
f 504 568 569 
f 505 570 506 
f 505 569 570 
f 506 571 507 
f 506 570 571 
f 507 572 508 
f 507 571 572 
f 508 573 509 
f 508 572 573 
f 509 574 510 
f 509 573 574 
f 510 575 511 
f 510 574 575 
f 511 576 512 
f 511 575 576 
f 512 513 449 
f 512 576 513 
f 513 578 514 
f 513 577 578 
f 514 579 515 
f 514 578 579 
f 515 580 516 
f 515 579 580 
f 516 581 517 
f 516 580 581 
f 517 582 518 
f 517 581 582 
f 518 583 519 
f 518 582 583 
f 519 584 520 
f 519 583 584 
f 520 585 521 
f 520 584 585 
f 521 586 522 
f 521 585 586 
f 522 587 523 
f 522 586 587 
f 523 588 524 
f 523 587 588 
f 524 589 525 
f 524 588 589 
f 525 590 526 
f 525 589 590 
f 526 591 527 
f 526 590 591 
f 527 592 528 
f 527 591 592 
f 528 593 529 
f 528 592 593 
f 529 594 530 
f 529 593 594 
f 530 595 531 
f 530 594 595 
f 531 596 532 
f 531 595 596 
f 532 597 533 
f 532 596 597 
f 533 598 534 
f 533 597 598 
f 534 599 535 
f 534 598 599 
f 535 600 536 
f 535 599 600 
f 536 601 537 
f 536 600 601 
f 537 602 538 
f 537 601 602 
f 538 603 539 
f 538 602 603 
f 539 604 540 
f 539 603 604 
f 540 605 541 
f 540 604 605 
f 541 606 542 
f 541 605 606 
f 542 607 543 
f 542 606 607 
f 543 608 544 
f 543 607 608 
f 544 609 545 
f 544 608 609 
f 545 610 546 
f 545 609 610 
f 546 611 547 
f 546 610 611 
f 547 612 548 
f 547 611 612 
f 548 613 549 
f 548 612 613 
f 549 614 550 
f 549 613 614 
f 550 615 551 
f 550 614 615 
f 551 616 552 
f 551 615 616 
f 552 617 553 
f 552 616 617 
f 553 618 554 
f 553 617 618 
f 554 619 555 
f 554 618 619 
f 555 620 556 
f 555 619 620 
f 556 621 557 
f 556 620 621 
f 557 622 558 
f 557 621 622 
f 558 623 559 
f 558 622 623 
f 559 624 560 
f 559 623 624 
f 560 625 561 
f 560 624 625 
f 561 626 562 
f 561 625 626 
f 562 627 563 
f 562 626 627 
f 563 628 564 
f 563 627 628 
f 564 629 565 
f 564 628 629 
f 565 630 566 
f 565 629 630 
f 566 631 567 
f 566 630 631 
f 567 632 568 
f 567 631 632 
f 568 633 569 
f 568 632 633 
f 569 634 570 
f 569 633 634 
f 570 635 571 
f 570 634 635 
f 571 636 572 
f 571 635 636 
f 572 637 573 
f 572 636 637 
f 573 638 574 
f 573 637 638 
f 574 639 575 
f 574 638 639 
f 575 640 576 
f 575 639 640 
f 576 577 513 
f 576 640 577 
