# Branch
v -4.34039 0.41028 -17.4398
vn 0.511896 -0.689747 0.512066
v -4.32568 0.416555 -17.4478
vn 0.592698 -0.655265 0.468334
v -4.31202 0.423979 -17.4565
vn 0.667793 -0.614473 0.420091
v -4.29952 0.432479 -17.4661
vn 0.736456 -0.567762 0.367803
v -4.28831 0.441975 -17.4762
vn 0.798027 -0.515584 0.311973
v -4.27851 0.452374 -17.4869
vn 0.851912 -0.45844 0.253138
v -4.2702 0.463577 -17.4981
vn 0.897593 -0.396882 0.191865
v -4.26346 0.475475 -17.5096
vn 0.934629 -0.331501 0.128745
v -4.25835 0.487954 -17.5213
vn 0.962665 -0.262927 0.0643847
v -4.25494 0.500894 -17.5331
vn 0.98143 -0.191822 -0.000595618
v -4.25324 0.51417 -17.5449
vn 0.990743 -0.118869 -0.0655702
v -4.25329 0.527655 -17.5566
vn 0.990514 -0.0447713 -0.129913
v -4.25506 0.541218 -17.5681
vn 0.980746 0.0297575 -0.193005
v -4.25856 0.554729 -17.5793
vn 0.961534 0.104 -0.254238
v -4.26374 0.568057 -17.59
vn 0.933061 0.17724 -0.313023
v -4.27056 0.581075 -17.6001
vn 0.895602 0.248774 -0.368793
v -4.27894 0.593657 -17.6096
vn 0.849518 0.317912 -0.421012
v -4.28882 0.605682 -17.6184
vn 0.795253 0.383988 -0.469176
v -4.30009 0.617034 -17.6263
vn 0.733329 0.446366 -0.512821
v -4.31264 0.627603 -17.6334
vn 0.664343 0.504446 -0.551528
v -4.32636 0.637289 -17.6394
vn 0.588958 0.557667 -0.584923
v -4.34111 0.645997 -17.6445
vn 0.507902 0.605518 -0.612685
v -4.35675 0.653643 -17.6485
vn 0.421954 0.647537 -0.634547
v -4.37313 0.660155 -17.6513
vn 0.331943 0.68332 -0.650298
v -4.3901 0.66547 -17.6531
vn 0.238735 0.712523 -0.659785
v -4.40748 0.669535 -17.6536
vn 0.143228 0.734863 -0.662919
v -4.42511 0.672313 -17.653
vn 0.0463411 0.750126 -0.659669
v -4.44282 0.673776 -17.6513
vn -0.0509918 0.758166 -0.650065
v -4.46045 0.67391 -17.6484
vn -0.147834 0.758903 -0.634201
v -4.47781 0.672714 -17.6444
vn -0.243252 0.752332 -0.61223
v -4.49475 0.6702 -17.6393
vn -0.336327 0.738516 -0.584362
v -4.5111 0.666391 -17.6332
vn -0.426164 0.717587 -0.550866
v -4.5267 0.661325 -17.6262
vn -0.511896 0.689747 -0.512066
v -4.5414 0.65505 -17.6182
vn -0.592698 0.655265 -0.468334
v -4.55507 0.647626 -17.6094
vn -0.667793 0.614473 -0.420091
v -4.56756 0.639126 -17.5999
vn -0.736456 0.567762 -0.367803
v -4.57877 0.62963 -17.5898
vn -0.798027 0.515584 -0.311973
v -4.58858 0.619231 -17.5791
vn -0.851912 0.45844 -0.253138
v -4.59689 0.608028 -17.5679
vn -0.897593 0.396882 -0.191865
v -4.60363 0.59613 -17.5564
vn -0.934629 0.331501 -0.128745
v -4.60873 0.583651 -17.5447
vn -0.962665 0.262927 -0.0643847
v -4.61215 0.570711 -17.5329
vn -0.98143 0.191822 0.000595618
v -4.61384 0.557435 -17.5211
vn -0.990743 0.118869 0.0655702
v -4.6138 0.54395 -17.5093
vn -0.990514 0.0447713 0.129913
v -4.61202 0.530387 -17.4979
vn -0.980746 -0.0297575 0.193005
v -4.60853 0.516876 -17.4867
vn -0.961534 -0.104 0.254238
v -4.60334 0.503548 -17.476
vn -0.933061 -0.17724 0.313023
v -4.59653 0.49053 -17.4659
vn -0.895602 -0.248774 0.368793
v -4.58814 0.477948 -17.4564
vn -0.849518 -0.317912 0.421012
v -4.57827 0.465923 -17.4476
vn -0.795253 -0.383988 0.469176
v -4.567 0.454571 -17.4397
vn -0.733329 -0.446366 0.512821
v -4.55444 0.444002 -17.4326
vn -0.664343 -0.504446 0.551528
v -4.54072 0.434316 -17.4265
vn -0.588958 -0.557667 0.584923
v -4.52597 0.425608 -17.4215
vn -0.507902 -0.605518 0.612685
v -4.51033 0.417962 -17.4175
vn -0.421954 -0.647537 0.634547
v -4.49395 0.41145 -17.4146
vn -0.331943 -0.68332 0.650298
v -4.47699 0.406135 -17.4129
vn -0.238735 -0.712523 0.659785
v -4.45961 0.40207 -17.4123
vn -0.143228 -0.734863 0.662919
v -4.44198 0.399292 -17.4129
vn -0.0463411 -0.750126 0.659669
v -4.42426 0.397829 -17.4147
vn 0.0509918 -0.758166 0.650065
v -4.40664 0.397695 -17.4176
vn 0.147834 -0.758903 0.634201
v -4.38927 0.398891 -17.4216
vn 0.243252 -0.752332 0.61223
v -4.37234 0.401405 -17.4266
vn 0.336327 -0.738516 0.584362
v -4.35599 0.405214 -17.4327
vn 0.426164 -0.717587 0.550866
v -4.52001 -0.515017 -18.501
vn 0.508518 -0.70592 0.493038
v -4.50353 -0.507968 -18.5099
vn 0.589337 -0.67136 0.449397
v -4.4882 -0.499601 -18.5196
vn 0.66448 -0.630334 0.401429
v -4.47418 -0.489996 -18.5302
vn 0.733224 -0.583238 0.349595
v -4.4616 -0.479245 -18.5415
vn 0.794906 -0.530525 0.294393
v -4.45058 -0.467452 -18.5533
vn 0.848933 -0.472703 0.236357
v -4.44123 -0.454731 -18.5656
vn 0.894784 -0.410329 0.176044
v -4.43364 -0.441203 -18.5783
vn 0.932018 -0.344002 0.114036
v -4.42787 -0.427 -18.5911
vn 0.960277 -0.274363 0.0509301
v -4.424 -0.412258 -18.6041
vn 0.979287 -0.202082 -0.0126666
v -4.42204 -0.39712 -18.617
vn 0.988866 -0.127854 -0.0761414
v -4.42203 -0.38173 -18.6298
vn 0.988922 -0.052395 -0.138883
v -4.42396 -0.366237 -18.6424
vn 0.979454 0.0235685 -0.200287
v -4.42782 -0.35079 -18.6545
vn 0.960553 0.0993051 -0.259762
v -4.43356 -0.335539 -18.6661
vn 0.932402 0.174085 -0.316735
v -4.44113 -0.320629 -18.6771
vn 0.895271 0.247189 -0.370658
v -4.45046 -0.306205 -18.6874
vn 0.849518 0.317912 -0.421012
v -4.46146 -0.292406 -18.6968
vn 0.795584 0.385573 -0.467311
v -4.47403 -0.279364 -18.7053
vn 0.733988 0.449522 -0.509109
v -4.48803 -0.267204 -18.7129
vn 0.665323 0.509141 -0.546005
v -4.50334 -0.256045 -18.7193
vn 0.590251 0.563856 -0.577642
v -4.51981 -0.245993 -18.7246
vn 0.509494 0.613142 -0.603716
v -4.53728 -0.237146 -18.7288
vn 0.423831 0.656522 -0.623976
v -4.55559 -0.229588 -18.7317
vn 0.334086 0.69358 -0.638227
v -4.57455 -0.223392 -18.7333
vn 0.241123 0.723958 -0.646331
v -4.59398 -0.218618 -18.7337
vn 0.145839 0.747365 -0.648211
v -4.6137 -0.215313 -18.7328
vn 0.0491496 0.763573 -0.643848
v -4.63352 -0.213507 -18.7307
vn -0.0480129 0.772428 -0.633284
v -4.65324 -0.213218 -18.7273
vn -0.144713 0.773845 -0.616622
v -4.67268 -0.214449 -18.7227
vn -0.240019 0.767808 -0.594021
v -4.69164 -0.217188 -18.7169
vn -0.333014 0.754377 -0.5657
v -4.70995 -0.221409 -18.71
vn -0.422802 0.733682 -0.53193
v -4.72744 -0.227071 -18.7021
vn -0.508518 0.70592 -0.493038
v -4.74392 -0.23412 -18.6932
vn -0.589337 0.67136 -0.449397
v -4.75924 -0.242487 -18.6834
vn -0.66448 0.630334 -0.401429
v -4.77326 -0.252092 -18.6728
vn -0.733224 0.583238 -0.349595
v -4.78584 -0.262843 -18.6615
vn -0.794906 0.530525 -0.294393
v -4.79686 -0.274636 -18.6497
vn -0.848933 0.472703 -0.236357
v -4.80622 -0.287357 -18.6374
vn -0.894784 0.410329 -0.176044
v -4.81381 -0.300884 -18.6248
vn -0.932018 0.344002 -0.114036
v -4.81957 -0.315087 -18.6119
vn -0.960277 0.274363 -0.0509301
v -4.82345 -0.329829 -18.5989
vn -0.979287 0.202082 0.0126666
v -4.8254 -0.344968 -18.586
vn -0.988866 0.127854 0.0761414
v -4.82541 -0.360358 -18.5732
vn -0.988922 0.052395 0.138883
v -4.82348 -0.375851 -18.5607
vn -0.979454 -0.0235685 0.200287
v -4.81963 -0.391297 -18.5485
vn -0.960553 -0.0993051 0.259762
v -4.81389 -0.406549 -18.5369
vn -0.932402 -0.174085 0.316735
v -4.80631 -0.421458 -18.5259
vn -0.895271 -0.247189 0.370658
v -4.79698 -0.435882 -18.5156
vn -0.849518 -0.317912 0.421012
v -4.78598 -0.449682 -18.5062
vn -0.795584 -0.385573 0.467311
v -4.77342 -0.462724 -18.4977
vn -0.733988 -0.449522 0.509109
v -4.75942 -0.474883 -18.4901
vn -0.665323 -0.509141 0.546005
v -4.74411 -0.486043 -18.4837
vn -0.590251 -0.563856 0.577642
v -4.72764 -0.496094 -18.4784
vn -0.509494 -0.613142 0.603716
v -4.71016 -0.504942 -18.4742
vn -0.423831 -0.656522 0.623976
v -4.69186 -0.5125 -18.4713
vn -0.334086 -0.69358 0.638227
v -4.6729 -0.518696 -18.4697
vn -0.241123 -0.723958 0.646331
v -4.65347 -0.523469 -18.4693
vn -0.145839 -0.747365 0.648211
v -4.63375 -0.526775 -18.4702
vn -0.0491496 -0.763573 0.643848
v -4.61393 -0.528581 -18.4723
vn 0.0480129 -0.772428 0.633284
v -4.59421 -0.52887 -18.4757
vn 0.144713 -0.773845 0.616622
v -4.57477 -0.527639 -18.4804
vn 0.240019 -0.767808 0.594021
v -4.5558 -0.5249 -18.4861
vn 0.333014 -0.754377 0.5657
v -4.53749 -0.520679 -18.493
vn 0.422802 -0.733682 0.53193
v -4.74318 -1.53652 -19.7226
vn 0.50567 -0.718178 0.478036
v -4.72491 -1.5287 -19.7324
vn 0.586503 -0.683559 0.434467
v -4.70793 -1.51939 -19.7432
vn 0.661687 -0.642357 0.386715
v -4.69238 -1.50868 -19.7549
vn 0.730498 -0.594968 0.335238
v -4.67843 -1.49668 -19.7672
vn 0.792275 -0.54185 0.280533
v -4.66619 -1.4835 -19.7802
vn 0.846421 -0.483514 0.223126
v -4.6558 -1.46927 -19.7936
vn 0.892416 -0.420521 0.16357
v -4.64735 -1.45413 -19.8075
vn 0.929817 -0.353478 0.102439
v -4.64093 -1.43821 -19.8215
vn 0.958263 -0.283031 0.0403219
v -4.63658 -1.42168 -19.8356
vn 0.97748 -0.209858 -0.022184
v -4.63437 -1.40469 -19.8497
vn 0.987284 -0.134664 -0.0844762
v -4.6343 -1.38741 -19.8636
vn 0.987579 -0.0581733 -0.145955
v -4.63639 -1.37 -19.8771
vn 0.978364 0.0188776 -0.206028
v -4.6406 -1.35264 -19.8903
vn 0.959726 0.0957468 -0.264117
v -4.64689 -1.33548 -19.9028
vn 0.931846 0.171694 -0.319662
v -4.65522 -1.3187 -19.9147
vn 0.894992 0.245987 -0.372129
v -4.66549 -1.30245 -19.9257
vn 0.849518 0.317912 -0.421012
v -4.67762 -1.28689 -19.9358
vn 0.795863 0.386775 -0.46584
v -4.69147 -1.27217 -19.945
vn 0.734543 0.451913 -0.506182
v -4.70692 -1.25844 -19.953
vn 0.66615 0.512699 -0.54165
v -4.72382 -1.24582 -19.9598
vn 0.591341 0.568547 -0.571901
v -4.74201 -1.23444 -19.9654
vn 0.510837 0.61892 -0.596644
v -4.76131 -1.22441 -19.9697
vn 0.425413 0.663332 -0.615641
v -4.78153 -1.21582 -19.9726
vn 0.335892 0.701356 -0.628709
v -4.80249 -1.20875 -19.9742
vn 0.243137 0.732626 -0.635723
v -4.82397 -1.20328 -19.9744
vn 0.14804 0.75684 -0.636614
v -4.84578 -1.19946 -19.9732
vn 0.0515174 0.773765 -0.631374
v -4.86769 -1.19732 -19.9707
vn -0.0455014 0.783239 -0.620053
v -4.88951 -1.19688 -19.9668
vn -0.142082 0.785169 -0.602762
v -4.91102 -1.19816 -19.9616
vn -0.237294 0.779538 -0.579665
v -4.93202 -1.20112 -19.9551
vn -0.330221 0.7664 -0.550986
v -4.95229 -1.20576 -19.9474
vn -0.419968 0.74588 -0.517
v -4.97166 -1.21202 -19.9386
vn -0.50567 0.718178 -0.478036
v -4.98992 -1.21984 -19.9288
vn -0.586503 0.683559 -0.434467
v -5.0069 -1.22915 -19.918
vn -0.661687 0.642357 -0.386715
v -5.02245 -1.23985 -19.9063
vn -0.730498 0.594968 -0.335238
v -5.0364 -1.25185 -19.894
vn -0.792275 0.54185 -0.280533
v -5.04864 -1.26503 -19.881
vn -0.846421 0.483514 -0.223126
v -5.05903 -1.27927 -19.8676
vn -0.892416 0.420521 -0.16357
v -5.06748 -1.29441 -19.8537
vn -0.929817 0.353478 -0.102439
v -5.0739 -1.31033 -19.8397
vn -0.958263 0.283031 -0.0403219
v -5.07825 -1.32686 -19.8256
vn -0.97748 0.209858 0.022184
v -5.08046 -1.34385 -19.8115
vn -0.987284 0.134664 0.0844762
v -5.08053 -1.36113 -19.7976
vn -0.987579 0.0581733 0.145955
v -5.07845 -1.37853 -19.7841
vn -0.978364 -0.0188776 0.206028
v -5.07423 -1.3959 -19.7709
vn -0.959726 -0.0957468 0.264117
v -5.06794 -1.41306 -19.7584
vn -0.931846 -0.171694 0.319662
v -5.05961 -1.42984 -19.7465
vn -0.894992 -0.245987 0.372129
v -5.04934 -1.44609 -19.7355
vn -0.849518 -0.317912 0.421012
v -5.03721 -1.46165 -19.7254
vn -0.795863 -0.386775 0.46584
v -5.02336 -1.47636 -19.7162
vn -0.734543 -0.451913 0.506182
v -5.00791 -1.4901 -19.7082
vn -0.66615 -0.512699 0.54165
v -4.99101 -1.50271 -19.7014
vn -0.591341 -0.568547 0.571901
v -4.97282 -1.51409 -19.6958
vn -0.510837 -0.61892 0.596644
v -4.95352 -1.52413 -19.6915
vn -0.425413 -0.663332 0.615641
v -4.9333 -1.53272 -19.6886
vn -0.335892 -0.701356 0.628709
v -4.91234 -1.53978 -19.687
vn -0.243137 -0.732626 0.635723
v -4.89086 -1.54525 -19.6868
vn -0.14804 -0.75684 0.636614
v -4.86905 -1.54908 -19.688
vn -0.0515174 -0.773765 0.631374
v -4.84714 -1.55122 -19.6905
vn 0.0455014 -0.783239 0.620053
v -4.82532 -1.55165 -19.6944
vn 0.142082 -0.785169 0.602762
v -4.80381 -1.55038 -19.6996
vn 0.237294 -0.779538 0.579665
v -4.78281 -1.54741 -19.7061
vn 0.330221 -0.7664 0.550986
v -4.76254 -1.54278 -19.7138
vn 0.419968 -0.74588 0.517
v -5.00987 -2.65427 -21.1048
vn 0.503256 -0.727772 0.465919
v -4.98983 -2.64568 -21.1156
vn 0.5841 -0.693107 0.422409
v -4.97118 -2.63543 -21.1274
vn 0.659319 -0.651767 0.374831
v -4.95411 -2.62363 -21.14
vn 0.728188 -0.60415 0.323644
v -4.93878 -2.61038 -21.1535
vn 0.790044 -0.550714 0.269339
v -4.92533 -2.59582 -21.1676
vn 0.844292 -0.491975 0.21244
v -4.9139 -2.58009 -21.1822
vn 0.890409 -0.428498 0.153496
v -4.90459 -2.56333 -21.1972
vn 0.927951 -0.360894 0.0930732
v -4.8975 -2.54571 -21.2124
vn 0.956556 -0.289815 0.0317542
v -4.89269 -2.5274 -21.2277
vn 0.975949 -0.215945 -0.0298706
v -4.89022 -2.50857 -21.2429
vn 0.985943 -0.139995 -0.0912078
v -4.89009 -2.48941 -21.2579
vn 0.986441 -0.0626962 -0.151667
v -4.89232 -2.4701 -21.2725
vn 0.97744 0.0152059 -0.210665
v -4.89689 -2.45083 -21.2866
vn 0.959026 0.0929616 -0.267634
v -4.90374 -2.43177 -21.3001
vn 0.931375 0.169822 -0.322026
v -4.91282 -2.41313 -21.3128
vn 0.894755 0.245047 -0.373317
v -4.92403 -2.39507 -21.3246
vn 0.849518 0.317912 -0.421012
v -4.93728 -2.37776 -21.3354
vn 0.7961 0.387715 -0.464653
v -4.95242 -2.36138 -21.3452
vn 0.735014 0.453785 -0.503819
v -4.96932 -2.34609 -21.3537
vn 0.666851 0.515484 -0.538132
v -4.9878 -2.33203 -21.3609
vn 0.592265 0.572219 -0.567264
v -5.00771 -2.31933 -21.3667
vn 0.511975 0.623443 -0.590932
v -5.02883 -2.30812 -21.3712
vn 0.426754 0.668663 -0.608909
v -5.05098 -2.29851 -21.3742
vn 0.337424 0.707443 -0.621023
v -5.07392 -2.29058 -21.3757
vn 0.244844 0.739411 -0.627155
v -5.09746 -2.28442 -21.3758
vn 0.149906 0.764257 -0.627248
v -5.12135 -2.28009 -21.3743
vn 0.0535248 0.781743 -0.621299
v -5.14537 -2.27762 -21.3713
vn -0.0433722 0.791701 -0.609368
v -5.16929 -2.27704 -21.3669
vn -0.139851 0.794034 -0.591567
v -5.19287 -2.27836 -21.3611
vn -0.234984 0.78872 -0.56807
v -5.21589 -2.28156 -21.3539
vn -0.327853 0.77581 -0.539102
v -5.23813 -2.28661 -21.3454
vn -0.417565 0.755429 -0.504942
v -5.25937 -2.29347 -21.3358
vn -0.503256 0.727772 -0.465919
v -5.27941 -2.30206 -21.325
vn -0.5841 0.693107 -0.422409
v -5.29805 -2.31231 -21.3132
vn -0.659319 0.651767 -0.374831
v -5.31513 -2.32411 -21.3005
vn -0.728188 0.60415 -0.323644
v -5.33046 -2.33736 -21.287
vn -0.790044 0.550714 -0.269339
v -5.34391 -2.35192 -21.2729
vn -0.844292 0.491975 -0.21244
v -5.35534 -2.36765 -21.2583
vn -0.890409 0.428498 -0.153496
v -5.36464 -2.38441 -21.2433
vn -0.927951 0.360894 -0.0930732
v -5.37173 -2.40203 -21.2281
vn -0.956556 0.289815 -0.0317542
v -5.37654 -2.42034 -21.2129
vn -0.975949 0.215945 0.0298706
v -5.37902 -2.43917 -21.1977
vn -0.985943 0.139995 0.0912078
v -5.37914 -2.45833 -21.1827
vn -0.986441 0.0626962 0.151667
v -5.37691 -2.47764 -21.168
vn -0.97744 -0.0152059 0.210665
v -5.37235 -2.49691 -21.1539
vn -0.959026 -0.0929616 0.267634
v -5.36549 -2.51597 -21.1404
vn -0.931375 -0.169822 0.322026
v -5.35641 -2.53461 -21.1277
vn -0.894755 -0.245047 0.373317
v -5.3452 -2.55268 -21.1159
vn -0.849518 -0.317912 0.421012
v -5.33196 -2.56998 -21.1051
vn -0.7961 -0.387715 0.464653
v -5.31682 -2.58636 -21.0954
vn -0.735014 -0.453785 0.503819
v -5.29992 -2.60165 -21.0869
vn -0.666851 -0.515484 0.538132
v -5.28143 -2.61572 -21.0796
vn -0.592265 -0.572219 0.567264
v -5.26153 -2.62841 -21.0738
vn -0.511975 -0.623443 0.590932
v -5.2404 -2.63962 -21.0693
vn -0.426754 -0.668663 0.608909
v -5.21826 -2.64924 -21.0663
vn -0.337424 -0.707443 0.621023
v -5.19531 -2.65716 -21.0648
vn -0.244844 -0.739411 0.627155
v -5.17178 -2.66332 -21.0648
vn -0.149906 -0.764257 0.627248
v -5.14789 -2.66765 -21.0663
vn -0.0535248 -0.781743 0.621299
v -5.12387 -2.67012 -21.0692
vn 0.0433722 -0.791701 0.609368
v -5.09995 -2.6707 -21.0736
vn 0.139851 -0.794034 0.591567
v -5.07637 -2.66938 -21.0794
vn 0.234984 -0.78872 0.56807
v -5.05335 -2.66618 -21.0866
vn 0.327853 -0.77581 0.539102
v -5.03111 -2.66113 -21.0951
vn 0.417565 -0.755429 0.504942
v -5.32008 -3.86832 -22.6475
vn 0.501193 -0.735478 0.455937
v -5.29826 -3.85896 -22.6592
vn 0.582046 -0.700775 0.412475
v -5.27796 -3.84777 -22.672
vn 0.657295 -0.659324 0.365041
v -5.25936 -3.83487 -22.6857
vn 0.726213 -0.611523 0.314091
v -5.24265 -3.82038 -22.7003
vn 0.788138 -0.557833 0.260117
v -5.22799 -3.80445 -22.7156
vn 0.842472 -0.498771 0.203637
v -5.21552 -3.78721 -22.7313
vn 0.888693 -0.434905 0.145196
v -5.20535 -3.76885 -22.7475
vn 0.926356 -0.366851 0.0853569
v -5.1976 -3.74953 -22.7638
vn 0.955097 -0.295264 0.0246957
v -5.19232 -3.72944 -22.7803
vn 0.97464 -0.220833 -0.0362033
v -5.18958 -3.70878 -22.7966
vn 0.984796 -0.144275 -0.0967536
v -5.1894 -3.68775 -22.8127
vn 0.985469 -0.0663285 -0.156372
v -5.19178 -3.66654 -22.8284
vn 0.97665 0.0122572 -0.214485
v -5.1967 -3.64537 -22.8435
vn 0.958427 0.0907249 -0.270532
v -5.20411 -3.62443 -22.8579
vn 0.930973 0.168319 -0.323973
v -5.21393 -3.60393 -22.8715
vn 0.894553 0.244292 -0.374295
v -5.22609 -3.58406 -22.8841
vn 0.849518 0.317912 -0.421012
v -5.24045 -3.56502 -22.8956
vn 0.796302 0.388471 -0.463674
v -5.25688 -3.54699 -22.9059
vn 0.735417 0.455288 -0.501871
v -5.27522 -3.53014 -22.9149
vn 0.66745 0.517721 -0.535235
v -5.29529 -3.51464 -22.9225
vn 0.593054 0.575168 -0.563444
v -5.31691 -3.50063 -22.9287
vn 0.512948 0.627075 -0.586227
v -5.33986 -3.48826 -22.9333
vn 0.427901 0.672944 -0.603364
v -5.36392 -3.47763 -22.9364
vn 0.338733 0.712331 -0.61469
v -5.38887 -3.46885 -22.9378
vn 0.246303 0.744859 -0.620096
v -5.41445 -3.46201 -22.9377
vn 0.151501 0.770213 -0.619531
v -5.44042 -3.45717 -22.9359
vn 0.0552406 0.78815 -0.612999
v -5.46654 -3.45438 -22.9326
vn -0.0415523 0.798496 -0.600564
v -5.49256 -3.45366 -22.9277
vn -0.137945 0.801153 -0.582345
v -5.51821 -3.45502 -22.9212
vn -0.233009 0.796093 -0.558518
v -5.54326 -3.45846 -22.9133
vn -0.32583 0.783367 -0.529312
v -5.56746 -3.46393 -22.9041
vn -0.415512 0.763097 -0.495008
v -5.59058 -3.47138 -22.8935
vn -0.501193 0.735478 -0.455937
v -5.6124 -3.48075 -22.8818
vn -0.582046 0.700775 -0.412475
v -5.6327 -3.49193 -22.869
vn -0.657295 0.659324 -0.365041
v -5.6513 -3.50483 -22.8553
vn -0.726213 0.611523 -0.314091
v -5.66801 -3.51932 -22.8407
vn -0.788138 0.557833 -0.260117
v -5.68268 -3.53526 -22.8255
vn -0.842472 0.498771 -0.203637
v -5.69515 -3.55249 -22.8097
vn -0.888693 0.434905 -0.145196
v -5.70531 -3.57086 -22.7935
vn -0.926356 0.366851 -0.0853569
v -5.71307 -3.59017 -22.7772
vn -0.955097 0.295264 -0.0246957
v -5.71834 -3.61026 -22.7607
vn -0.97464 0.220833 0.0362033
v -5.72108 -3.63092 -22.7444
vn -0.984796 0.144275 0.0967536
v -5.72126 -3.65195 -22.7283
vn -0.985469 0.0663285 0.156372
v -5.71888 -3.67316 -22.7126
vn -0.97665 -0.0122572 0.214485
v -5.71397 -3.69433 -22.6975
vn -0.958427 -0.0907249 0.270532
v -5.70656 -3.71527 -22.6831
vn -0.930973 -0.168319 0.323973
v -5.69673 -3.73577 -22.6695
vn -0.894553 -0.244292 0.374295
v -5.68458 -3.75564 -22.6569
vn -0.849518 -0.317912 0.421012
v -5.67022 -3.77468 -22.6454
vn -0.796302 -0.388471 0.463674
v -5.65379 -3.79271 -22.6351
vn -0.735417 -0.455288 0.501871
v -5.63544 -3.80956 -22.6261
vn -0.66745 -0.517721 0.535235
v -5.61537 -3.82506 -22.6185
vn -0.593054 -0.575168 0.563444
v -5.59375 -3.83907 -22.6123
vn -0.512948 -0.627075 0.586227
v -5.5708 -3.85145 -22.6077
vn -0.427901 -0.672944 0.603364
v -5.54674 -3.86208 -22.6046
vn -0.338733 -0.712331 0.61469
v -5.5218 -3.87085 -22.6032
vn -0.246303 -0.744859 0.620096
v -5.49621 -3.8777 -22.6033
vn -0.151501 -0.770213 0.619531
v -5.47024 -3.88254 -22.6051
vn -0.0552406 -0.78815 0.612999
v -5.44412 -3.88533 -22.6084
vn 0.0415523 -0.798496 0.600564
v -5.41811 -3.88604 -22.6134
vn 0.137945 -0.801153 0.582345
v -5.39245 -3.88468 -22.6198
vn 0.233009 -0.796093 0.558518
v -5.36741 -3.88125 -22.6277
vn 0.32583 -0.783367 0.529312
v -5.3432 -3.87578 -22.6369
vn 0.415512 -0.763097 0.495008
v -5.67382 -5.17868 -24.3507
vn 0.499413 -0.741797 0.447575
v -5.65022 -5.16855 -24.3634
vn 0.580276 -0.707064 0.404154
v -5.62825 -5.15642 -24.3772
vn 0.65555 -0.665522 0.35684
v -5.60813 -5.14243 -24.392
vn 0.724511 -0.61757 0.30609
v -5.59004 -5.1267 -24.4077
vn 0.786494 -0.563671 0.252391
v -5.57416 -5.10939 -24.424
vn 0.840903 -0.504344 0.196262
v -5.56065 -5.09066 -24.441
vn 0.887214 -0.440159 0.138244
v -5.54963 -5.07069 -24.4583
vn 0.92498 -0.371736 0.0788932
v -5.54121 -5.04968 -24.4758
vn 0.953839 -0.299732 0.0187831
v -5.53547 -5.02782 -24.4934
vn 0.973511 -0.224842 -0.0415079
v -5.53246 -5.00534 -24.5109
vn 0.983808 -0.147786 -0.101399
v -5.53222 -4.98244 -24.5281
vn 0.98463 -0.0693073 -0.160314
v -5.53475 -4.95934 -24.5448
vn 0.97597 0.009839 -0.217685
v -5.54002 -4.93627 -24.561
vn 0.95791 0.0888905 -0.272959
v -5.54798 -4.91345 -24.5763
vn 0.930626 0.167086 -0.325605
v -5.55856 -4.8911 -24.5908
vn 0.894378 0.243672 -0.375115
v -5.57165 -4.86944 -24.6042
vn 0.849518 0.317912 -0.421012
v -5.58713 -4.84867 -24.6164
vn 0.796476 0.38909 -0.462855
v -5.60485 -4.82899 -24.6273
vn 0.735764 0.456521 -0.50024
v -5.62463 -4.81059 -24.6368
vn 0.667966 0.519555 -0.532808
v -5.64629 -4.79366 -24.6448
vn 0.593735 0.577586 -0.560244
v -5.66962 -4.77835 -24.6512
vn 0.513786 0.630054 -0.582285
v -5.6944 -4.76481 -24.656
vn 0.428889 0.676454 -0.598718
v -5.72038 -4.75317 -24.6591
vn 0.339862 0.71634 -0.609385
v -5.74731 -4.74354 -24.6605
vn 0.247561 0.749327 -0.614184
v -5.77494 -4.73602 -24.6602
vn 0.152877 0.775098 -0.613068
v -5.803 -4.73068 -24.6582
vn 0.0567199 0.793404 -0.606047
v -5.83122 -4.72757 -24.6544
vn -0.0399832 0.804069 -0.59319
v -5.85933 -4.72671 -24.649
vn -0.136301 0.806991 -0.57462
v -5.88706 -4.72813 -24.642
vn -0.231307 0.80214 -0.550516
v -5.91413 -4.7318 -24.6334
vn -0.324085 0.789565 -0.521111
v -5.94029 -4.73769 -24.6233
vn -0.413741 0.769386 -0.486686
v -5.96529 -4.74574 -24.6119
vn -0.499413 0.741797 -0.447575
v -5.98889 -4.75587 -24.5993
vn -0.580276 0.707064 -0.404154
v -6.01086 -4.768 -24.5854
vn -0.65555 0.665522 -0.35684
v -6.03098 -4.78199 -24.5706
vn -0.724511 0.61757 -0.30609
v -6.04907 -4.79772 -24.555
vn -0.786494 0.563671 -0.252391
v -6.06495 -4.81503 -24.5386
vn -0.840903 0.504344 -0.196262
v -6.07846 -4.83376 -24.5217
vn -0.887214 0.440159 -0.138244
v -6.08948 -4.85373 -24.5043
vn -0.92498 0.371736 -0.0788932
v -6.09791 -4.87474 -24.4868
vn -0.953839 0.299732 -0.0187831
v -6.10365 -4.8966 -24.4692
vn -0.973511 0.224842 0.0415079
v -6.10665 -4.91908 -24.4517
vn -0.983808 0.147786 0.101399
v -6.10689 -4.94198 -24.4345
vn -0.98463 0.0693073 0.160314
v -6.10436 -4.96508 -24.4178
vn -0.97597 -0.009839 0.217685
v -6.09909 -4.98815 -24.4017
vn -0.95791 -0.0888905 0.272959
v -6.09113 -5.01097 -24.3863
vn -0.930626 -0.167086 0.325605
v -6.08055 -5.03332 -24.3718
vn -0.894378 -0.243672 0.375115
v -6.06746 -5.05498 -24.3585
vn -0.849518 -0.317912 0.421012
v -6.05198 -5.07575 -24.3462
vn -0.796476 -0.38909 0.462855
v -6.03427 -5.09543 -24.3353
vn -0.735764 -0.456521 0.50024
v -6.01448 -5.11383 -24.3258
vn -0.667966 -0.519555 0.532808
v -5.99282 -5.13076 -24.3178
vn -0.593735 -0.577586 0.560244
v -5.96949 -5.14607 -24.3114
vn -0.513786 -0.630054 0.582285
v -5.94471 -5.15961 -24.3066
vn -0.428889 -0.676454 0.598718
v -5.91873 -5.17125 -24.3035
vn -0.339862 -0.71634 0.609385
v -5.8918 -5.18088 -24.3021
vn -0.247561 -0.749327 0.614184
v -5.86417 -5.1884 -24.3024
vn -0.152877 -0.775098 0.613068
v -5.83611 -5.19374 -24.3045
vn -0.0567199 -0.793404 0.606047
v -5.80789 -5.19685 -24.3082
vn 0.0399832 -0.804069 0.59319
v -5.77978 -5.19771 -24.3136
vn 0.136301 -0.806991 0.57462
v -5.75206 -5.19629 -24.3207
vn 0.231307 -0.80214 0.550516
v -5.72498 -5.19262 -24.3292
vn 0.324085 -0.789565 0.521111
v -5.69882 -5.18673 -24.3393
vn 0.413741 -0.769386 0.486686
v -6.07107 -6.58537 -26.2145
vn 0.497866 -0.74707 0.440472
v -6.04569 -6.57446 -26.2281
vn 0.578736 -0.712312 0.397084
v -6.02206 -6.5614 -26.2429
vn 0.654033 -0.670694 0.349873
v -6.00041 -6.54632 -26.2588
vn 0.72303 -0.622617 0.299292
v -5.98095 -6.52935 -26.2756
vn 0.785065 -0.568543 0.245829
v -5.96385 -6.51066 -26.2931
vn 0.839539 -0.508994 0.189998
v -5.9493 -6.49044 -26.3112
vn 0.885928 -0.444544 0.132337
v -5.93742 -6.46887 -26.3297
vn 0.923784 -0.375812 0.0734021
v -5.92833 -6.44617 -26.3484
vn 0.952745 -0.303461 0.0137602
v -5.92212 -6.42255 -26.3671
vn 0.972529 -0.228187 -0.0460143
v -5.91885 -6.39824 -26.3858
vn 0.982948 -0.150716 -0.105346
v -5.91856 -6.37347 -26.4041
vn 0.983901 -0.0717931 -0.163662
v -5.92123 -6.34849 -26.4219
vn 0.975378 0.00782104 -0.220403
v -5.92685 -6.32353 -26.439
vn 0.957461 0.0873598 -0.275021
v -5.93537 -6.29884 -26.4553
vn 0.930324 0.166057 -0.326991
v -5.94669 -6.27465 -26.4706
vn 0.894227 0.243155 -0.375811
v -5.96072 -6.25119 -26.4848
vn 0.849518 0.317912 -0.421012
v -5.97732 -6.22869 -26.4977
vn 0.796628 0.389607 -0.462158
v -5.99632 -6.20737 -26.5092
vn 0.736066 0.45755 -0.498854
v -6.01755 -6.18744 -26.5192
vn 0.668415 0.521086 -0.530746
v -6.0408 -6.16907 -26.5276
vn 0.594327 0.579604 -0.557526
v -6.06584 -6.15246 -26.5344
vn 0.514515 0.63254 -0.578936
v -6.09244 -6.13776 -26.5393
vn 0.429749 0.679384 -0.594772
v -6.12034 -6.12512 -26.5425
vn 0.340843 0.719686 -0.604879
v -6.14927 -6.11465 -26.5438
vn 0.248655 0.753056 -0.609161
v -6.17895 -6.10645 -26.5433
vn 0.154073 0.779174 -0.607576
v -6.20909 -6.10061 -26.541
vn 0.0580062 0.797789 -0.600141
v -6.23941 -6.09718 -26.5369
vn -0.0386189 0.80872 -0.586925
v -6.26961 -6.09619 -26.5309
vn -0.134872 0.811862 -0.568057
v -6.29941 -6.09766 -26.5233
vn -0.229826 0.807187 -0.543719
v -6.32851 -6.10157 -26.514
vn -0.322567 0.794737 -0.514144
v -6.35664 -6.10788 -26.5032
vn -0.412202 0.774634 -0.479617
v -6.38352 -6.11653 -26.4909
vn -0.497866 0.74707 -0.440472
v -6.40889 -6.12743 -26.4773
vn -0.578736 0.712312 -0.397084
v -6.43252 -6.14049 -26.4625
vn -0.654033 0.670694 -0.349873
v -6.45417 -6.15558 -26.4466
vn -0.72303 0.622617 -0.299292
v -6.47364 -6.17255 -26.4298
vn -0.785065 0.568543 -0.245829
v -6.49073 -6.19123 -26.4123
vn -0.839539 0.508994 -0.189998
v -6.50528 -6.21145 -26.3942
vn -0.885928 0.444544 -0.132337
v -6.51716 -6.23302 -26.3757
vn -0.923784 0.375812 -0.0734021
v -6.52625 -6.25572 -26.357
vn -0.952745 0.303461 -0.0137602
v -6.53246 -6.27934 -26.3383
vn -0.972529 0.228187 0.0460143
v -6.53573 -6.30365 -26.3196
vn -0.982948 0.150716 0.105346
v -6.53603 -6.32842 -26.3013
vn -0.983901 0.0717931 0.163662
v -6.53335 -6.3534 -26.2835
vn -0.975378 -0.00782104 0.220403
v -6.52773 -6.37836 -26.2664
vn -0.957461 -0.0873598 0.275021
v -6.51922 -6.40305 -26.2501
vn -0.930324 -0.166057 0.326991
v -6.50789 -6.42725 -26.2348
vn -0.894227 -0.243155 0.375811
v -6.49386 -6.4507 -26.2206
vn -0.849518 -0.317912 0.421012
v -6.47726 -6.4732 -26.2077
vn -0.796628 -0.389607 0.462158
v -6.45826 -6.49452 -26.1962
vn -0.736066 -0.45755 0.498854
v -6.43703 -6.51446 -26.1862
vn -0.668415 -0.521086 0.530746
v -6.41378 -6.53282 -26.1778
vn -0.594327 -0.579604 0.557526
v -6.38874 -6.54943 -26.171
vn -0.514515 -0.63254 0.578936
v -6.36214 -6.56413 -26.1661
vn -0.429749 -0.679384 0.594772
v -6.33424 -6.57678 -26.1629
vn -0.340843 -0.719686 0.604879
v -6.30532 -6.58725 -26.1615
vn -0.248655 -0.753056 0.609161
v -6.27564 -6.59544 -26.162
vn -0.154073 -0.779174 0.607576
v -6.24549 -6.60128 -26.1644
vn -0.0580062 -0.797789 0.600141
v -6.21517 -6.60471 -26.1685
vn 0.0386189 -0.80872 0.586925
v -6.18497 -6.6057 -26.1744
vn 0.134872 -0.811862 0.568057
v -6.15517 -6.60423 -26.1821
vn 0.229826 -0.807187 0.543719
v -6.12607 -6.60033 -26.1914
vn 0.322567 -0.794737 0.514144
v -6.09795 -6.59402 -26.2022
vn 0.412202 -0.774634 0.479617
v -6.51183 -8.08839 -28.2388
vn 0.49651 -0.751535 0.434364
v -6.48468 -8.07672 -28.2534
vn 0.577387 -0.716756 0.391006
v -6.45939 -8.06272 -28.2692
vn 0.652703 -0.675073 0.343882
v -6.43621 -8.04654 -28.2861
vn 0.721733 -0.62689 0.293447
v -6.41537 -8.02834 -28.304
vn 0.783812 -0.572668 0.240186
v -6.39706 -8.00828 -28.3227
vn 0.838343 -0.512932 0.184611
v -6.38146 -7.98657 -28.3419
vn 0.8848 -0.448256 0.127259
v -6.36872 -7.9634 -28.3616
vn 0.922736 -0.379263 0.0686807
v -6.35897 -7.93901 -28.3815
vn 0.951786 -0.306618 0.00944131
v -6.3523 -7.91363 -28.4014
vn 0.971669 -0.23102 -0.049889
v -6.34876 -7.8875 -28.4212
vn 0.982195 -0.153197 -0.108739
v -6.3484 -7.86087 -28.4406
vn 0.983261 -0.073898 -0.166542
v -6.35122 -7.83401 -28.4594
vn 0.974859 0.00611225 -0.22274
v -6.3572 -7.80717 -28.4776
vn 0.957067 0.0860636 -0.276794
v -6.36627 -7.7806 -28.4948
vn 0.930059 0.165186 -0.328182
v -6.37834 -7.75457 -28.511
vn 0.894094 0.242718 -0.37641
v -6.39331 -7.72932 -28.526
vn 0.849518 0.317912 -0.421012
v -6.41102 -7.7051 -28.5396
vn 0.796761 0.390045 -0.46156
v -6.43131 -7.68214 -28.5517
vn 0.73633 0.458421 -0.497663
v -6.45398 -7.66067 -28.5623
vn 0.668809 0.522382 -0.528972
v -6.47882 -7.64088 -28.5711
vn 0.594846 0.581313 -0.555188
v -6.50557 -7.62298 -28.5781
vn 0.515155 0.634645 -0.576057
v -6.53399 -7.60712 -28.5832
vn 0.430502 0.681865 -0.591378
v -6.56381 -7.59347 -28.5864
vn 0.341703 0.722518 -0.601004
v -6.59473 -7.58216 -28.5877
vn 0.249614 0.756213 -0.604842
v -6.62646 -7.57329 -28.5871
vn 0.155121 0.782626 -0.602855
v -6.65868 -7.56695 -28.5844
vn 0.0591337 0.801501 -0.595062
v -6.6911 -7.56321 -28.5799
vn -0.037423 0.812658 -0.581538
v -6.7234 -7.56209 -28.5735
vn -0.133619 0.815988 -0.562414
v -6.75527 -7.56361 -28.5652
vn -0.228529 0.811459 -0.537874
v -6.78639 -7.56775 -28.5553
vn -0.321237 0.799116 -0.508153
v -6.81648 -7.57448 -28.5436
vn -0.410852 0.779077 -0.473539
v -6.84524 -7.58373 -28.5305
vn -0.49651 0.751535 -0.434364
v -6.8724 -7.59541 -28.5159
vn -0.577387 0.716756 -0.391006
v -6.89769 -7.6094 -28.5001
vn -0.652703 0.675073 -0.343882
v -6.92086 -7.62558 -28.4832
vn -0.721733 0.62689 -0.293447
v -6.94171 -7.64379 -28.4653
vn -0.783812 0.572668 -0.240186
v -6.96002 -7.66384 -28.4466
vn -0.838343 0.512932 -0.184611
v -6.97561 -7.68556 -28.4274
vn -0.8848 0.448256 -0.127259
v -6.98835 -7.70872 -28.4077
vn -0.922736 0.379263 -0.0686807
v -6.9981 -7.73311 -28.3878
vn -0.951786 0.306618 -0.00944131
v -7.00478 -7.7585 -28.3679
vn -0.971669 0.23102 0.049889
v -7.00831 -7.78463 -28.3481
vn -0.982195 0.153197 0.108739
v -7.00867 -7.81125 -28.3287
vn -0.983261 0.073898 0.166542
v -7.00585 -7.83811 -28.3099
vn -0.974859 -0.00611225 0.22274
v -6.99988 -7.86496 -28.2917
vn -0.957067 -0.0860636 0.276794
v -6.99081 -7.89152 -28.2745
vn -0.930059 -0.165186 0.328182
v -6.97873 -7.91756 -28.2583
vn -0.894094 -0.242718 0.37641
v -6.96377 -7.9428 -28.2433
vn -0.849518 -0.317912 0.421012
v -6.94605 -7.96702 -28.2297
vn -0.796761 -0.390045 0.46156
v -6.92576 -7.98998 -28.2176
vn -0.73633 -0.458421 0.497663
v -6.90309 -8.01145 -28.207
vn -0.668809 -0.522382 0.528972
v -6.87826 -8.03124 -28.1982
vn -0.594846 -0.581313 0.555188
v -6.8515 -8.04915 -28.1912
vn -0.515155 -0.634645 0.576057
v -6.82308 -8.065 -28.1861
vn -0.430502 -0.681865 0.591378
v -6.79327 -8.07865 -28.1829
vn -0.341703 -0.722518 0.601004
v -6.76235 -8.08996 -28.1816
vn -0.249614 -0.756213 0.604842
v -6.73062 -8.09883 -28.1822
vn -0.155121 -0.782626 0.602855
v -6.69839 -8.10517 -28.1849
vn -0.0591337 -0.801501 0.595062
v -6.66597 -8.10892 -28.1894
vn 0.037423 -0.812658 0.581538
v -6.63367 -8.11003 -28.1958
vn 0.133619 -0.815988 0.562414
v -6.60181 -8.10851 -28.2041
vn 0.228529 -0.811459 0.537874
v -6.57068 -8.10437 -28.214
vn 0.321237 -0.799116 0.508153
v -6.54059 -8.09764 -28.2257
vn 0.410852 -0.779077 0.473539
v -6.99611 -9.68777 -30.4237
vn 0.495313 -0.755364 0.429057
v -6.96718 -9.67532 -30.4392
vn 0.576195 -0.720566 0.385725
v -6.94023 -9.66039 -30.456
vn 0.651529 -0.678828 0.338678
v -6.91552 -9.64312 -30.474
vn 0.720587 -0.630553 0.288369
v -6.8933 -9.62368 -30.493
vn 0.782706 -0.576206 0.235283
v -6.87378 -9.60225 -30.5128
vn 0.837287 -0.516309 0.179931
v -6.85714 -9.57904 -30.5332
vn 0.883805 -0.45144 0.122846
v -6.84354 -9.55428 -30.5541
vn 0.921811 -0.382223 0.0645786
v -6.83312 -9.52821 -30.5751
vn 0.950939 -0.309325 0.00568887
v -6.82598 -9.50106 -30.5962
vn 0.97091 -0.233449 -0.0532556
v -6.82218 -9.47312 -30.6171
vn 0.98153 -0.155324 -0.111687
v -6.82176 -9.44464 -30.6377
vn 0.982697 -0.0757028 -0.169043
v -6.82473 -9.41589 -30.6576
vn 0.9744 0.0046471 -0.224771
v -6.83105 -9.38717 -30.6767
vn 0.95672 0.0849522 -0.278335
v -6.84068 -9.35873 -30.6949
vn 0.929826 0.164439 -0.329217
v -6.8535 -9.33086 -30.712
vn 0.893977 0.242343 -0.37693
v -6.8694 -9.30383 -30.7278
vn 0.849518 0.317912 -0.421012
v -6.88823 -9.27789 -30.7421
vn 0.796878 0.39042 -0.46104
v -6.90981 -9.2533 -30.7548
vn 0.736564 0.459168 -0.496627
v -6.93392 -9.23029 -30.7659
vn 0.669156 0.523493 -0.527432
v -6.96034 -9.20908 -30.7751
vn 0.595304 0.582778 -0.553157
v -6.98881 -9.18988 -30.7824
vn 0.515719 0.636449 -0.573556
v -7.01906 -9.17288 -30.7877
vn 0.431167 0.683992 -0.58843
v -7.05079 -9.15823 -30.791
vn 0.342463 0.724947 -0.597638
v -7.0837 -9.14607 -30.7922
vn 0.250461 0.758921 -0.60109
v -7.11747 -9.13653 -30.7914
vn 0.156046 0.785586 -0.598753
v -7.15179 -9.1297 -30.7885
vn 0.0601291 0.804685 -0.59065
v -7.1863 -9.12564 -30.7835
vn -0.0363672 0.816034 -0.576858
v -7.2207 -9.12439 -30.7766
vn -0.132513 0.819525 -0.557511
v -7.25463 -9.12597 -30.7678
vn -0.227383 0.815123 -0.532795
v -7.28779 -9.13035 -30.7571
vn -0.320063 0.802871 -0.502948
v -7.31984 -9.1375 -30.7447
vn -0.409661 0.782888 -0.468258
v -7.35048 -9.14734 -30.7307
vn -0.495313 0.755364 -0.429057
v -7.37941 -9.15979 -30.7152
vn -0.576195 0.720566 -0.385725
v -7.40636 -9.17472 -30.6983
vn -0.651529 0.678828 -0.338678
v -7.43106 -9.19199 -30.6803
vn -0.720587 0.630553 -0.288369
v -7.45329 -9.21143 -30.6613
vn -0.782706 0.576206 -0.235283
v -7.47281 -9.23286 -30.6415
vn -0.837287 0.516309 -0.179931
v -7.48945 -9.25606 -30.6211
vn -0.883805 0.45144 -0.122846
v -7.50305 -9.28083 -30.6003
vn -0.921811 0.382223 -0.0645786
v -7.51347 -9.3069 -30.5792
vn -0.950939 0.309325 -0.00568887
v -7.52061 -9.33405 -30.5581
vn -0.97091 0.233449 0.0532556
v -7.52441 -9.36199 -30.5372
vn -0.98153 0.155324 0.111687
v -7.52483 -9.39047 -30.5167
vn -0.982697 0.0757028 0.169043
v -7.52186 -9.41922 -30.4968
vn -0.9744 -0.0046471 0.224771
v -7.51553 -9.44794 -30.4776
vn -0.95672 -0.0849522 0.278335
v -7.50591 -9.47638 -30.4594
vn -0.929826 -0.164439 0.329217
v -7.49309 -9.50425 -30.4423
vn -0.893977 -0.242343 0.37693
v -7.47719 -9.53128 -30.4266
vn -0.849518 -0.317912 0.421012
v -7.45836 -9.55722 -30.4123
vn -0.796878 -0.39042 0.46104
v -7.43678 -9.58181 -30.3995
vn -0.736564 -0.459168 0.496627
v -7.41267 -9.60482 -30.3885
vn -0.669156 -0.523493 0.527432
v -7.38625 -9.62603 -30.3793
vn -0.595304 -0.582778 0.553157
v -7.35778 -9.64523 -30.372
vn -0.515719 -0.636449 0.573556
v -7.32753 -9.66223 -30.3667
vn -0.431167 -0.683992 0.58843
v -7.2958 -9.67688 -30.3634
vn -0.342463 -0.724947 0.597638
v -7.26289 -9.68904 -30.3622
vn -0.250461 -0.758921 0.60109
v -7.22912 -9.69858 -30.363
vn -0.156046 -0.785586 0.598753
v -7.1948 -9.70541 -30.3659
vn -0.0601291 -0.804685 0.59065
v -7.16029 -9.70947 -30.3708
vn 0.0363672 -0.816034 0.576858
v -7.12589 -9.71072 -30.3777
vn 0.132513 -0.819525 0.557511
v -7.09195 -9.70914 -30.3866
vn 0.227383 -0.815123 0.532795
v -7.0588 -9.70476 -30.3973
vn 0.320063 -0.802871 0.502948
v -7.02675 -9.69761 -30.4097
vn 0.409661 -0.782888 0.468258
v -7.5239 -11.3835 -32.7691
vn 0.494249 -0.758682 0.424404
v -7.49319 -11.3703 -32.7856
vn 0.575136 -0.723868 0.381094
v -7.46458 -11.3544 -32.8034
vn 0.650485 -0.682083 0.334114
v -7.43835 -11.336 -32.8225
vn 0.719569 -0.633729 0.283916
v -7.41475 -11.3154 -32.8426
vn 0.781723 -0.579271 0.230984
v -7.39401 -11.2926 -32.8635
vn 0.836349 -0.519235 0.175828
v -7.37633 -11.2679 -32.8851
vn 0.88292 -0.454199 0.118978
v -7.36187 -11.2415 -32.9071
vn 0.920988 -0.384788 0.0609818
v -7.35079 -11.2138 -32.9294
vn 0.950187 -0.311672 0.00239878
v -7.34317 -11.1849 -32.9516
vn 0.970235 -0.235554 -0.0562074
v -7.33911 -11.1551 -32.9737
vn 0.980939 -0.157167 -0.114272
v -7.33863 -11.1248 -32.9953
vn 0.982195 -0.077267 -0.171237
v -7.34175 -11.0941 -33.0163
vn 0.973993 0.00337724 -0.226552
v -7.34842 -11.0635 -33.0365
vn 0.956411 0.083989 -0.279685
v -7.3586 -11.0332 -33.0556
vn 0.929618 0.163792 -0.330125
v -7.37217 -11.0035 -33.0736
vn 0.893872 0.242017 -0.377386
v -7.38901 -10.9747 -33.0901
vn 0.849518 0.317912 -0.421012
v -7.40896 -10.9471 -33.1052
vn 0.796983 0.390745 -0.460584
v -7.43182 -10.9208 -33.1185
vn 0.736772 0.459815 -0.495719
v -7.45737 -10.8963 -33.13
vn 0.669465 0.524457 -0.526081
v -7.48538 -10.8737 -33.1396
vn 0.595711 0.584048 -0.551377
v -7.51556 -10.8532 -33.1472
vn 0.516221 0.638014 -0.571362
v -7.54763 -10.835 -33.1527
vn 0.431758 0.685835 -0.585845
v -7.58128 -10.8194 -33.1561
vn 0.343138 0.727052 -0.594686
v -7.61618 -10.8064 -33.1573
vn 0.251213 0.761267 -0.5978
v -7.652 -10.7962 -33.1563
vn 0.156869 0.788151 -0.595156
v -7.6884 -10.7888 -33.1531
vn 0.0610139 0.807444 -0.586781
v -7.72501 -10.7845 -33.1478
vn -0.0354287 0.818961 -0.572755
v -7.7615 -10.7831 -33.1403
vn -0.13153 0.822591 -0.553213
v -7.79751 -10.7847 -33.1309
vn -0.226365 0.818299 -0.528343
v -7.83269 -10.7893 -33.1195
vn -0.319019 0.806126 -0.498385
v -7.8667 -10.7969 -33.1063
vn -0.408602 0.78619 -0.463627
v -7.89922 -10.8074 -33.0914
vn -0.494249 0.758682 -0.424404
v -7.92994 -10.8206 -33.075
vn -0.575136 0.723868 -0.381094
v -7.95855 -10.8364 -33.0571
vn -0.650485 0.682083 -0.334114
v -7.98478 -10.8548 -33.0381
vn -0.719569 0.633729 -0.283916
v -8.00838 -10.8755 -33.018
vn -0.781723 0.579271 -0.230984
v -8.02912 -10.8983 -32.997
vn -0.836349 0.519235 -0.175828
v -8.0468 -10.923 -32.9755
vn -0.88292 0.454199 -0.118978
v -8.06125 -10.9493 -32.9534
vn -0.920988 0.384788 -0.0609818
v -8.07234 -10.9771 -32.9312
vn -0.950187 0.311672 -0.00239878
v -8.07995 -11.006 -32.9089
vn -0.970235 0.235554 0.0562074
v -8.08402 -11.0358 -32.8869
vn -0.980939 0.157167 0.114272
v -8.08449 -11.0661 -32.8653
vn -0.982195 0.077267 0.171237
v -8.08138 -11.0967 -32.8443
vn -0.973993 -0.00337724 0.226552
v -8.0747 -11.1273 -32.8241
vn -0.956411 -0.083989 0.279685
v -8.06453 -11.1576 -32.8049
vn -0.929618 -0.163792 0.330125
v -8.05096 -11.1873 -32.787
vn -0.893872 -0.242017 0.377386
v -8.03412 -11.2161 -32.7704
vn -0.849518 -0.317912 0.421012
v -8.01417 -11.2438 -32.7554
vn -0.796983 -0.390745 0.460584
v -7.99131 -11.27 -32.7421
vn -0.736772 -0.459815 0.495719
v -7.96575 -11.2946 -32.7305
vn -0.669465 -0.524457 0.526081
v -7.93775 -11.3172 -32.7209
vn -0.595711 -0.584048 0.551377
v -7.90757 -11.3377 -32.7133
vn -0.516221 -0.638014 0.571362
v -7.8755 -11.3558 -32.7078
vn -0.431758 -0.685835 0.585845
v -7.84185 -11.3715 -32.7045
vn -0.343138 -0.727052 0.594686
v -7.80695 -11.3845 -32.7033
vn -0.251213 -0.761267 0.5978
v -7.77112 -11.3947 -32.7043
vn -0.156869 -0.788151 0.595156
v -7.73473 -11.402 -32.7075
vn -0.0610139 -0.807444 0.586781
v -7.69811 -11.4064 -32.7128
vn 0.0354287 -0.818961 0.572755
v -7.66162 -11.4078 -32.7202
vn 0.13153 -0.822591 0.553213
v -7.62561 -11.4061 -32.7297
vn 0.226365 -0.818299 0.528343
v -7.59043 -11.4015 -32.7411
vn 0.319019 -0.806126 0.498385
v -7.55642 -11.3939 -32.7542
vn 0.408602 -0.78619 0.463627
f 1 66 2 
f 1 65 66 
f 2 67 3 
f 2 66 67 
f 3 68 4 
f 3 67 68 
f 4 69 5 
f 4 68 69 
f 5 70 6 
f 5 69 70 
f 6 71 7 
f 6 70 71 
f 7 72 8 
f 7 71 72 
f 8 73 9 
f 8 72 73 
f 9 74 10 
f 9 73 74 
f 10 75 11 
f 10 74 75 
f 11 76 12 
f 11 75 76 
f 12 77 13 
f 12 76 77 
f 13 78 14 
f 13 77 78 
f 14 79 15 
f 14 78 79 
f 15 80 16 
f 15 79 80 
f 16 81 17 
f 16 80 81 
f 17 82 18 
f 17 81 82 
f 18 83 19 
f 18 82 83 
f 19 84 20 
f 19 83 84 
f 20 85 21 
f 20 84 85 
f 21 86 22 
f 21 85 86 
f 22 87 23 
f 22 86 87 
f 23 88 24 
f 23 87 88 
f 24 89 25 
f 24 88 89 
f 25 90 26 
f 25 89 90 
f 26 91 27 
f 26 90 91 
f 27 92 28 
f 27 91 92 
f 28 93 29 
f 28 92 93 
f 29 94 30 
f 29 93 94 
f 30 95 31 
f 30 94 95 
f 31 96 32 
f 31 95 96 
f 32 97 33 
f 32 96 97 
f 33 98 34 
f 33 97 98 
f 34 99 35 
f 34 98 99 
f 35 100 36 
f 35 99 100 
f 36 101 37 
f 36 100 101 
f 37 102 38 
f 37 101 102 
f 38 103 39 
f 38 102 103 
f 39 104 40 
f 39 103 104 
f 40 105 41 
f 40 104 105 
f 41 106 42 
f 41 105 106 
f 42 107 43 
f 42 106 107 
f 43 108 44 
f 43 107 108 
f 44 109 45 
f 44 108 109 
f 45 110 46 
f 45 109 110 
f 46 111 47 
f 46 110 111 
f 47 112 48 
f 47 111 112 
f 48 113 49 
f 48 112 113 
f 49 114 50 
f 49 113 114 
f 50 115 51 
f 50 114 115 
f 51 116 52 
f 51 115 116 
f 52 117 53 
f 52 116 117 
f 53 118 54 
f 53 117 118 
f 54 119 55 
f 54 118 119 
f 55 120 56 
f 55 119 120 
f 56 121 57 
f 56 120 121 
f 57 122 58 
f 57 121 122 
f 58 123 59 
f 58 122 123 
f 59 124 60 
f 59 123 124 
f 60 125 61 
f 60 124 125 
f 61 126 62 
f 61 125 126 
f 62 127 63 
f 62 126 127 
f 63 128 64 
f 63 127 128 
f 64 65 1 
f 64 128 65 
f 65 130 66 
f 65 129 130 
f 66 131 67 
f 66 130 131 
f 67 132 68 
f 67 131 132 
f 68 133 69 
f 68 132 133 
f 69 134 70 
f 69 133 134 
f 70 135 71 
f 70 134 135 
f 71 136 72 
f 71 135 136 
f 72 137 73 
f 72 136 137 
f 73 138 74 
f 73 137 138 
f 74 139 75 
f 74 138 139 
f 75 140 76 
f 75 139 140 
f 76 141 77 
f 76 140 141 
f 77 142 78 
f 77 141 142 
f 78 143 79 
f 78 142 143 
f 79 144 80 
f 79 143 144 
f 80 145 81 
f 80 144 145 
f 81 146 82 
f 81 145 146 
f 82 147 83 
f 82 146 147 
f 83 148 84 
f 83 147 148 
f 84 149 85 
f 84 148 149 
f 85 150 86 
f 85 149 150 
f 86 151 87 
f 86 150 151 
f 87 152 88 
f 87 151 152 
f 88 153 89 
f 88 152 153 
f 89 154 90 
f 89 153 154 
f 90 155 91 
f 90 154 155 
f 91 156 92 
f 91 155 156 
f 92 157 93 
f 92 156 157 
f 93 158 94 
f 93 157 158 
f 94 159 95 
f 94 158 159 
f 95 160 96 
f 95 159 160 
f 96 161 97 
f 96 160 161 
f 97 162 98 
f 97 161 162 
f 98 163 99 
f 98 162 163 
f 99 164 100 
f 99 163 164 
f 100 165 101 
f 100 164 165 
f 101 166 102 
f 101 165 166 
f 102 167 103 
f 102 166 167 
f 103 168 104 
f 103 167 168 
f 104 169 105 
f 104 168 169 
f 105 170 106 
f 105 169 170 
f 106 171 107 
f 106 170 171 
f 107 172 108 
f 107 171 172 
f 108 173 109 
f 108 172 173 
f 109 174 110 
f 109 173 174 
f 110 175 111 
f 110 174 175 
f 111 176 112 
f 111 175 176 
f 112 177 113 
f 112 176 177 
f 113 178 114 
f 113 177 178 
f 114 179 115 
f 114 178 179 
f 115 180 116 
f 115 179 180 
f 116 181 117 
f 116 180 181 
f 117 182 118 
f 117 181 182 
f 118 183 119 
f 118 182 183 
f 119 184 120 
f 119 183 184 
f 120 185 121 
f 120 184 185 
f 121 186 122 
f 121 185 186 
f 122 187 123 
f 122 186 187 
f 123 188 124 
f 123 187 188 
f 124 189 125 
f 124 188 189 
f 125 190 126 
f 125 189 190 
f 126 191 127 
f 126 190 191 
f 127 192 128 
f 127 191 192 
f 128 129 65 
f 128 192 129 
f 129 194 130 
f 129 193 194 
f 130 195 131 
f 130 194 195 
f 131 196 132 
f 131 195 196 
f 132 197 133 
f 132 196 197 
f 133 198 134 
f 133 197 198 
f 134 199 135 
f 134 198 199 
f 135 200 136 
f 135 199 200 
f 136 201 137 
f 136 200 201 
f 137 202 138 
f 137 201 202 
f 138 203 139 
f 138 202 203 
f 139 204 140 
f 139 203 204 
f 140 205 141 
f 140 204 205 
f 141 206 142 
f 141 205 206 
f 142 207 143 
f 142 206 207 
f 143 208 144 
f 143 207 208 
f 144 209 145 
f 144 208 209 
f 145 210 146 
f 145 209 210 
f 146 211 147 
f 146 210 211 
f 147 212 148 
f 147 211 212 
f 148 213 149 
f 148 212 213 
f 149 214 150 
f 149 213 214 
f 150 215 151 
f 150 214 215 
f 151 216 152 
f 151 215 216 
f 152 217 153 
f 152 216 217 
f 153 218 154 
f 153 217 218 
f 154 219 155 
f 154 218 219 
f 155 220 156 
f 155 219 220 
f 156 221 157 
f 156 220 221 
f 157 222 158 
f 157 221 222 
f 158 223 159 
f 158 222 223 
f 159 224 160 
f 159 223 224 
f 160 225 161 
f 160 224 225 
f 161 226 162 
f 161 225 226 
f 162 227 163 
f 162 226 227 
f 163 228 164 
f 163 227 228 
f 164 229 165 
f 164 228 229 
f 165 230 166 
f 165 229 230 
f 166 231 167 
f 166 230 231 
f 167 232 168 
f 167 231 232 
f 168 233 169 
f 168 232 233 
f 169 234 170 
f 169 233 234 
f 170 235 171 
f 170 234 235 
f 171 236 172 
f 171 235 236 
f 172 237 173 
f 172 236 237 
f 173 238 174 
f 173 237 238 
f 174 239 175 
f 174 238 239 
f 175 240 176 
f 175 239 240 
f 176 241 177 
f 176 240 241 
f 177 242 178 
f 177 241 242 
f 178 243 179 
f 178 242 243 
f 179 244 180 
f 179 243 244 
f 180 245 181 
f 180 244 245 
f 181 246 182 
f 181 245 246 
f 182 247 183 
f 182 246 247 
f 183 248 184 
f 183 247 248 
f 184 249 185 
f 184 248 249 
f 185 250 186 
f 185 249 250 
f 186 251 187 
f 186 250 251 
f 187 252 188 
f 187 251 252 
f 188 253 189 
f 188 252 253 
f 189 254 190 
f 189 253 254 
f 190 255 191 
f 190 254 255 
f 191 256 192 
f 191 255 256 
f 192 193 129 
f 192 256 193 
f 193 258 194 
f 193 257 258 
f 194 259 195 
f 194 258 259 
f 195 260 196 
f 195 259 260 
f 196 261 197 
f 196 260 261 
f 197 262 198 
f 197 261 262 
f 198 263 199 
f 198 262 263 
f 199 264 200 
f 199 263 264 
f 200 265 201 
f 200 264 265 
f 201 266 202 
f 201 265 266 
f 202 267 203 
f 202 266 267 
f 203 268 204 
f 203 267 268 
f 204 269 205 
f 204 268 269 
f 205 270 206 
f 205 269 270 
f 206 271 207 
f 206 270 271 
f 207 272 208 
f 207 271 272 
f 208 273 209 
f 208 272 273 
f 209 274 210 
f 209 273 274 
f 210 275 211 
f 210 274 275 
f 211 276 212 
f 211 275 276 
f 212 277 213 
f 212 276 277 
f 213 278 214 
f 213 277 278 
f 214 279 215 
f 214 278 279 
f 215 280 216 
f 215 279 280 
f 216 281 217 
f 216 280 281 
f 217 282 218 
f 217 281 282 
f 218 283 219 
f 218 282 283 
f 219 284 220 
f 219 283 284 
f 220 285 221 
f 220 284 285 
f 221 286 222 
f 221 285 286 
f 222 287 223 
f 222 286 287 
f 223 288 224 
f 223 287 288 
f 224 289 225 
f 224 288 289 
f 225 290 226 
f 225 289 290 
f 226 291 227 
f 226 290 291 
f 227 292 228 
f 227 291 292 
f 228 293 229 
f 228 292 293 
f 229 294 230 
f 229 293 294 
f 230 295 231 
f 230 294 295 
f 231 296 232 
f 231 295 296 
f 232 297 233 
f 232 296 297 
f 233 298 234 
f 233 297 298 
f 234 299 235 
f 234 298 299 
f 235 300 236 
f 235 299 300 
f 236 301 237 
f 236 300 301 
f 237 302 238 
f 237 301 302 
f 238 303 239 
f 238 302 303 
f 239 304 240 
f 239 303 304 
f 240 305 241 
f 240 304 305 
f 241 306 242 
f 241 305 306 
f 242 307 243 
f 242 306 307 
f 243 308 244 
f 243 307 308 
f 244 309 245 
f 244 308 309 
f 245 310 246 
f 245 309 310 
f 246 311 247 
f 246 310 311 
f 247 312 248 
f 247 311 312 
f 248 313 249 
f 248 312 313 
f 249 314 250 
f 249 313 314 
f 250 315 251 
f 250 314 315 
f 251 316 252 
f 251 315 316 
f 252 317 253 
f 252 316 317 
f 253 318 254 
f 253 317 318 
f 254 319 255 
f 254 318 319 
f 255 320 256 
f 255 319 320 
f 256 257 193 
f 256 320 257 
f 257 322 258 
f 257 321 322 
f 258 323 259 
f 258 322 323 
f 259 324 260 
f 259 323 324 
f 260 325 261 
f 260 324 325 
f 261 326 262 
f 261 325 326 
f 262 327 263 
f 262 326 327 
f 263 328 264 
f 263 327 328 
f 264 329 265 
f 264 328 329 
f 265 330 266 
f 265 329 330 
f 266 331 267 
f 266 330 331 
f 267 332 268 
f 267 331 332 
f 268 333 269 
f 268 332 333 
f 269 334 270 
f 269 333 334 
f 270 335 271 
f 270 334 335 
f 271 336 272 
f 271 335 336 
f 272 337 273 
f 272 336 337 
f 273 338 274 
f 273 337 338 
f 274 339 275 
f 274 338 339 
f 275 340 276 
f 275 339 340 
f 276 341 277 
f 276 340 341 
f 277 342 278 
f 277 341 342 
f 278 343 279 
f 278 342 343 
f 279 344 280 
f 279 343 344 
f 280 345 281 
f 280 344 345 
f 281 346 282 
f 281 345 346 
f 282 347 283 
f 282 346 347 
f 283 348 284 
f 283 347 348 
f 284 349 285 
f 284 348 349 
f 285 350 286 
f 285 349 350 
f 286 351 287 
f 286 350 351 
f 287 352 288 
f 287 351 352 
f 288 353 289 
f 288 352 353 
f 289 354 290 
f 289 353 354 
f 290 355 291 
f 290 354 355 
f 291 356 292 
f 291 355 356 
f 292 357 293 
f 292 356 357 
f 293 358 294 
f 293 357 358 
f 294 359 295 
f 294 358 359 
f 295 360 296 
f 295 359 360 
f 296 361 297 
f 296 360 361 
f 297 362 298 
f 297 361 362 
f 298 363 299 
f 298 362 363 
f 299 364 300 
f 299 363 364 
f 300 365 301 
f 300 364 365 
f 301 366 302 
f 301 365 366 
f 302 367 303 
f 302 366 367 
f 303 368 304 
f 303 367 368 
f 304 369 305 
f 304 368 369 
f 305 370 306 
f 305 369 370 
f 306 371 307 
f 306 370 371 
f 307 372 308 
f 307 371 372 
f 308 373 309 
f 308 372 373 
f 309 374 310 
f 309 373 374 
f 310 375 311 
f 310 374 375 
f 311 376 312 
f 311 375 376 
f 312 377 313 
f 312 376 377 
f 313 378 314 
f 313 377 378 
f 314 379 315 
f 314 378 379 
f 315 380 316 
f 315 379 380 
f 316 381 317 
f 316 380 381 
f 317 382 318 
f 317 381 382 
f 318 383 319 
f 318 382 383 
f 319 384 320 
f 319 383 384 
f 320 321 257 
f 320 384 321 
f 321 386 322 
f 321 385 386 
f 322 387 323 
f 322 386 387 
f 323 388 324 
f 323 387 388 
f 324 389 325 
f 324 388 389 
f 325 390 326 
f 325 389 390 
f 326 391 327 
f 326 390 391 
f 327 392 328 
f 327 391 392 
f 328 393 329 
f 328 392 393 
f 329 394 330 
f 329 393 394 
f 330 395 331 
f 330 394 395 
f 331 396 332 
f 331 395 396 
f 332 397 333 
f 332 396 397 
f 333 398 334 
f 333 397 398 
f 334 399 335 
f 334 398 399 
f 335 400 336 
f 335 399 400 
f 336 401 337 
f 336 400 401 
f 337 402 338 
f 337 401 402 
f 338 403 339 
f 338 402 403 
f 339 404 340 
f 339 403 404 
f 340 405 341 
f 340 404 405 
f 341 406 342 
f 341 405 406 
f 342 407 343 
f 342 406 407 
f 343 408 344 
f 343 407 408 
f 344 409 345 
f 344 408 409 
f 345 410 346 
f 345 409 410 
f 346 411 347 
f 346 410 411 
f 347 412 348 
f 347 411 412 
f 348 413 349 
f 348 412 413 
f 349 414 350 
f 349 413 414 
f 350 415 351 
f 350 414 415 
f 351 416 352 
f 351 415 416 
f 352 417 353 
f 352 416 417 
f 353 418 354 
f 353 417 418 
f 354 419 355 
f 354 418 419 
f 355 420 356 
f 355 419 420 
f 356 421 357 
f 356 420 421 
f 357 422 358 
f 357 421 422 
f 358 423 359 
f 358 422 423 
f 359 424 360 
f 359 423 424 
f 360 425 361 
f 360 424 425 
f 361 426 362 
f 361 425 426 
f 362 427 363 
f 362 426 427 
f 363 428 364 
f 363 427 428 
f 364 429 365 
f 364 428 429 
f 365 430 366 
f 365 429 430 
f 366 431 367 
f 366 430 431 
f 367 432 368 
f 367 431 432 
f 368 433 369 
f 368 432 433 
f 369 434 370 
f 369 433 434 
f 370 435 371 
f 370 434 435 
f 371 436 372 
f 371 435 436 
f 372 437 373 
f 372 436 437 
f 373 438 374 
f 373 437 438 
f 374 439 375 
f 374 438 439 
f 375 440 376 
f 375 439 440 
f 376 441 377 
f 376 440 441 
f 377 442 378 
f 377 441 442 
f 378 443 379 
f 378 442 443 
f 379 444 380 
f 379 443 444 
f 380 445 381 
f 380 444 445 
f 381 446 382 
f 381 445 446 
f 382 447 383 
f 382 446 447 
f 383 448 384 
f 383 447 448 
f 384 385 321 
f 384 448 385 
f 385 450 386 
f 385 449 450 
f 386 451 387 
f 386 450 451 
f 387 452 388 
f 387 451 452 
f 388 453 389 
f 388 452 453 
f 389 454 390 
f 389 453 454 
f 390 455 391 
f 390 454 455 
f 391 456 392 
f 391 455 456 
f 392 457 393 
f 392 456 457 
f 393 458 394 
f 393 457 458 
f 394 459 395 
f 394 458 459 
f 395 460 396 
f 395 459 460 
f 396 461 397 
f 396 460 461 
f 397 462 398 
f 397 461 462 
f 398 463 399 
f 398 462 463 
f 399 464 400 
f 399 463 464 
f 400 465 401 
f 400 464 465 
f 401 466 402 
f 401 465 466 
f 402 467 403 
f 402 466 467 
f 403 468 404 
f 403 467 468 
f 404 469 405 
f 404 468 469 
f 405 470 406 
f 405 469 470 
f 406 471 407 
f 406 470 471 
f 407 472 408 
f 407 471 472 
f 408 473 409 
f 408 472 473 
f 409 474 410 
f 409 473 474 
f 410 475 411 
f 410 474 475 
f 411 476 412 
f 411 475 476 
f 412 477 413 
f 412 476 477 
f 413 478 414 
f 413 477 478 
f 414 479 415 
f 414 478 479 
f 415 480 416 
f 415 479 480 
f 416 481 417 
f 416 480 481 
f 417 482 418 
f 417 481 482 
f 418 483 419 
f 418 482 483 
f 419 484 420 
f 419 483 484 
f 420 485 421 
f 420 484 485 
f 421 486 422 
f 421 485 486 
f 422 487 423 
f 422 486 487 
f 423 488 424 
f 423 487 488 
f 424 489 425 
f 424 488 489 
f 425 490 426 
f 425 489 490 
f 426 491 427 
f 426 490 491 
f 427 492 428 
f 427 491 492 
f 428 493 429 
f 428 492 493 
f 429 494 430 
f 429 493 494 
f 430 495 431 
f 430 494 495 
f 431 496 432 
f 431 495 496 
f 432 497 433 
f 432 496 497 
f 433 498 434 
f 433 497 498 
f 434 499 435 
f 434 498 499 
f 435 500 436 
f 435 499 500 
f 436 501 437 
f 436 500 501 
f 437 502 438 
f 437 501 502 
f 438 503 439 
f 438 502 503 
f 439 504 440 
f 439 503 504 
f 440 505 441 
f 440 504 505 
f 441 506 442 
f 441 505 506 
f 442 507 443 
f 442 506 507 
f 443 508 444 
f 443 507 508 
f 444 509 445 
f 444 508 509 
f 445 510 446 
f 445 509 510 
f 446 511 447 
f 446 510 511 
f 447 512 448 
f 447 511 512 
f 448 449 385 
f 448 512 449 
f 449 514 450 
f 449 513 514 
f 450 515 451 
f 450 514 515 
f 451 516 452 
f 451 515 516 
f 452 517 453 
f 452 516 517 
f 453 518 454 
f 453 517 518 
f 454 519 455 
f 454 518 519 
f 455 520 456 
f 455 519 520 
f 456 521 457 
f 456 520 521 
f 457 522 458 
f 457 521 522 
f 458 523 459 
f 458 522 523 
f 459 524 460 
f 459 523 524 
f 460 525 461 
f 460 524 525 
f 461 526 462 
f 461 525 526 
f 462 527 463 
f 462 526 527 
f 463 528 464 
f 463 527 528 
f 464 529 465 
f 464 528 529 
f 465 530 466 
f 465 529 530 
f 466 531 467 
f 466 530 531 
f 467 532 468 
f 467 531 532 
f 468 533 469 
f 468 532 533 
f 469 534 470 
f 469 533 534 
f 470 535 471 
f 470 534 535 
f 471 536 472 
f 471 535 536 
f 472 537 473 
f 472 536 537 
f 473 538 474 
f 473 537 538 
f 474 539 475 
f 474 538 539 
f 475 540 476 
f 475 539 540 
f 476 541 477 
f 476 540 541 
f 477 542 478 
f 477 541 542 
f 478 543 479 
f 478 542 543 
f 479 544 480 
f 479 543 544 
f 480 545 481 
f 480 544 545 
f 481 546 482 
f 481 545 546 
f 482 547 483 
f 482 546 547 
f 483 548 484 
f 483 547 548 
f 484 549 485 
f 484 548 549 
f 485 550 486 
f 485 549 550 
f 486 551 487 
f 486 550 551 
f 487 552 488 
f 487 551 552 
f 488 553 489 
f 488 552 553 
f 489 554 490 
f 489 553 554 
f 490 555 491 
f 490 554 555 
f 491 556 492 
f 491 555 556 
f 492 557 493 
f 492 556 557 
f 493 558 494 
f 493 557 558 
f 494 559 495 
f 494 558 559 
f 495 560 496 
f 495 559 560 
f 496 561 497 
f 496 560 561 
f 497 562 498 
f 497 561 562 
f 498 563 499 
f 498 562 563 
f 499 564 500 
f 499 563 564 
f 500 565 501 
f 500 564 565 
f 501 566 502 
f 501 565 566 
f 502 567 503 
f 502 566 567 
f 503 568 504 
f 503 567 568 
f 504 569 505 
f 504 568 569 
f 505 570 506 
f 505 569 570 
f 506 571 507 
f 506 570 571 
f 507 572 508 
f 507 571 572 
f 508 573 509 
f 508 572 573 
f 509 574 510 
f 509 573 574 
f 510 575 511 
f 510 574 575 
f 511 576 512 
f 511 575 576 
f 512 513 449 
f 512 576 513 
f 513 578 514 
f 513 577 578 
f 514 579 515 
f 514 578 579 
f 515 580 516 
f 515 579 580 
f 516 581 517 
f 516 580 581 
f 517 582 518 
f 517 581 582 
f 518 583 519 
f 518 582 583 
f 519 584 520 
f 519 583 584 
f 520 585 521 
f 520 584 585 
f 521 586 522 
f 521 585 586 
f 522 587 523 
f 522 586 587 
f 523 588 524 
f 523 587 588 
f 524 589 525 
f 524 588 589 
f 525 590 526 
f 525 589 590 
f 526 591 527 
f 526 590 591 
f 527 592 528 
f 527 591 592 
f 528 593 529 
f 528 592 593 
f 529 594 530 
f 529 593 594 
f 530 595 531 
f 530 594 595 
f 531 596 532 
f 531 595 596 
f 532 597 533 
f 532 596 597 
f 533 598 534 
f 533 597 598 
f 534 599 535 
f 534 598 599 
f 535 600 536 
f 535 599 600 
f 536 601 537 
f 536 600 601 
f 537 602 538 
f 537 601 602 
f 538 603 539 
f 538 602 603 
f 539 604 540 
f 539 603 604 
f 540 605 541 
f 540 604 605 
f 541 606 542 
f 541 605 606 
f 542 607 543 
f 542 606 607 
f 543 608 544 
f 543 607 608 
f 544 609 545 
f 544 608 609 
f 545 610 546 
f 545 609 610 
f 546 611 547 
f 546 610 611 
f 547 612 548 
f 547 611 612 
f 548 613 549 
f 548 612 613 
f 549 614 550 
f 549 613 614 
f 550 615 551 
f 550 614 615 
f 551 616 552 
f 551 615 616 
f 552 617 553 
f 552 616 617 
f 553 618 554 
f 553 617 618 
f 554 619 555 
f 554 618 619 
f 555 620 556 
f 555 619 620 
f 556 621 557 
f 556 620 621 
f 557 622 558 
f 557 621 622 
f 558 623 559 
f 558 622 623 
f 559 624 560 
f 559 623 624 
f 560 625 561 
f 560 624 625 
f 561 626 562 
f 561 625 626 
f 562 627 563 
f 562 626 627 
f 563 628 564 
f 563 627 628 
f 564 629 565 
f 564 628 629 
f 565 630 566 
f 565 629 630 
f 566 631 567 
f 566 630 631 
f 567 632 568 
f 567 631 632 
f 568 633 569 
f 568 632 633 
f 569 634 570 
f 569 633 634 
f 570 635 571 
f 570 634 635 
f 571 636 572 
f 571 635 636 
f 572 637 573 
f 572 636 637 
f 573 638 574 
f 573 637 638 
f 574 639 575 
f 574 638 639 
f 575 640 576 
f 575 639 640 
f 576 577 513 
f 576 640 577 
