# Branch
v -6.86824 1.7432 -27.2924
vn 0.119434 0.789601 0.601885
v -6.83593 1.74362 -27.3021
vn 0.213414 0.790805 0.573657
v -6.80433 1.74141 -27.3137
vn 0.305339 0.784392 0.539904
v -6.77374 1.73661 -27.3271
vn 0.394324 0.770426 0.500952
v -6.74445 1.72926 -27.3422
vn 0.47951 0.749039 0.457176
v -6.71675 1.71942 -27.3587
vn 0.560079 0.720439 0.408997
v -6.69091 1.70721 -27.3766
vn 0.635254 0.684901 0.356878
v -6.66716 1.69272 -27.3957
vn 0.704311 0.642767 0.301323
v -6.64575 1.67611 -27.4158
vn 0.766586 0.594443 0.242866
v -6.62688 1.65752 -27.4367
vn 0.821477 0.540394 0.18207
v -6.61073 1.63715 -27.4582
vn 0.868458 0.48114 0.119521
v -6.59745 1.61519 -27.4801
vn 0.907074 0.417253 0.0558203
v -6.58718 1.59184 -27.5022
vn 0.936955 0.349348 -0.00841776
v -6.58001 1.56734 -27.5243
vn 0.957813 0.278078 -0.0725747
v -6.57601 1.54192 -27.5461
vn 0.969446 0.20413 -0.136033
v -6.57522 1.51582 -27.5675
vn 0.971743 0.128216 -0.198181
v -6.57765 1.48929 -27.5882
vn 0.964682 0.0510679 -0.25842
v -6.58327 1.4626 -27.608
vn 0.94833 -0.0265725 -0.316171
v -6.59203 1.436 -27.6268
vn 0.922845 -0.103957 -0.370877
v -6.60385 1.40974 -27.6444
vn 0.888473 -0.18034 -0.422011
v -6.61861 1.38407 -27.6606
vn 0.845544 -0.254987 -0.46908
v -6.63617 1.35925 -27.6752
vn 0.794473 -0.327178 -0.511633
v -6.65636 1.33552 -27.6882
vn 0.73575 -0.396218 -0.549258
v -6.67898 1.31309 -27.6993
vn 0.669941 -0.461442 -0.581593
v -6.70382 1.2922 -27.7085
vn 0.59768 -0.522222 -0.608327
v -6.73065 1.27303 -27.7157
vn 0.519664 -0.577973 -0.629203
v -6.75919 1.25578 -27.7208
vn 0.436643 -0.628158 -0.644019
v -6.78918 1.2406 -27.7237
vn 0.349416 -0.672293 -0.652633
v -6.82032 1.22766 -27.7245
vn 0.258825 -0.709954 -0.654962
v -6.85232 1.21706 -27.7231
vn 0.165741 -0.740777 -0.650983
v -6.88487 1.20891 -27.7196
vn 0.0710609 -0.764467 -0.640735
v -6.91766 1.2033 -27.714
vn -0.0243036 -0.780794 -0.624316
v -6.95037 1.20027 -27.7063
vn -0.119434 -0.789601 -0.601885
v -6.98268 1.19986 -27.6966
vn -0.213414 -0.790805 -0.573657
v -7.01428 1.20206 -27.685
vn -0.305339 -0.784392 -0.539904
v -7.04487 1.20687 -27.6716
vn -0.394324 -0.770426 -0.500952
v -7.07416 1.21422 -27.6565
vn -0.47951 -0.749039 -0.457176
v -7.10186 1.22405 -27.64
vn -0.560079 -0.720439 -0.408997
v -7.1277 1.23627 -27.622
vn -0.635254 -0.684901 -0.356878
v -7.15145 1.25076 -27.6029
vn -0.704311 -0.642767 -0.301323
v -7.17286 1.26737 -27.5828
vn -0.766586 -0.594443 -0.242866
v -7.19173 1.28595 -27.5619
vn -0.821477 -0.540394 -0.18207
v -7.20788 1.30632 -27.5404
vn -0.868458 -0.48114 -0.119521
v -7.22116 1.32829 -27.5185
vn -0.907074 -0.417253 -0.0558203
v -7.23143 1.35163 -27.4964
vn -0.936955 -0.349348 0.00841776
v -7.2386 1.37613 -27.4744
vn -0.957813 -0.278078 0.0725747
v -7.2426 1.40156 -27.4526
vn -0.969446 -0.20413 0.136033
v -7.24339 1.42766 -27.4312
vn -0.971743 -0.128216 0.198181
v -7.24096 1.45418 -27.4105
vn -0.964682 -0.0510679 0.25842
v -7.23534 1.48087 -27.3906
vn -0.94833 0.0265725 0.316171
v -7.22658 1.50748 -27.3718
vn -0.922845 0.103957 0.370877
v -7.21476 1.53374 -27.3543
vn -0.888473 0.18034 0.422011
v -7.2 1.5594 -27.3381
vn -0.845544 0.254987 0.46908
v -7.18244 1.58422 -27.3234
vn -0.794473 0.327178 0.511633
v -7.16225 1.60796 -27.3105
vn -0.73575 0.396218 0.549258
v -7.13963 1.63038 -27.2994
vn -0.669941 0.461442 0.581593
v -7.11479 1.65128 -27.2902
vn -0.59768 0.522222 0.608327
v -7.08796 1.67044 -27.283
vn -0.519664 0.577973 0.629203
v -7.05942 1.6877 -27.2779
vn -0.436643 0.628158 0.644019
v -7.02943 1.70287 -27.275
vn -0.349416 0.672293 0.652633
v -6.99829 1.71582 -27.2742
vn -0.258825 0.709954 0.654962
v -6.96629 1.72642 -27.2755
vn -0.165741 0.740777 0.650983
v -6.93374 1.73456 -27.2791
vn -0.0710609 0.764467 0.640735
v -6.90095 1.74017 -27.2847
vn 0.0243036 0.780794 0.624316
v -6.5196 0.647136 -26.2075
vn 0.171538 0.62272 0.76341
v -6.48707 0.647833 -26.2176
vn 0.265267 0.624727 0.734404
v -6.45542 0.646441 -26.2301
vn 0.356442 0.620717 0.698326
v -6.42497 0.642975 -26.245
vn 0.444184 0.61073 0.655522
v -6.396 0.637466 -26.262
vn 0.527648 0.594861 0.606406
v -6.36879 0.62997 -26.2811
vn 0.606031 0.573263 0.551449
v -6.34361 0.620557 -26.302
vn 0.678577 0.546145 0.491182
v -6.3207 0.609319 -26.3246
vn 0.744588 0.513766 0.426184
v -6.30028 0.596363 -26.3486
vn 0.803429 0.47644 0.357082
v -6.28254 0.581815 -26.3737
vn 0.854532 0.434525 0.284541
v -6.26766 0.565814 -26.3999
vn 0.897405 0.388426 0.209259
v -6.25578 0.548515 -26.4267
vn 0.931636 0.338586 0.131963
v -6.24701 0.530084 -26.454
vn 0.956895 0.285485 0.0533952
v -6.24144 0.510699 -26.4814
vn 0.972938 0.229635 -0.0256865
v -6.23913 0.490546 -26.5088
vn 0.979611 0.171573 -0.104521
v -6.24008 0.46982 -26.5358
vn 0.97685 0.111859 -0.182349
v -6.24431 0.44872 -26.5622
vn 0.964682 0.0510679 -0.25842
v -6.25176 0.427449 -26.5877
vn 0.943223 -0.0102153 -0.332003
v -6.26236 0.406212 -26.6122
vn 0.91268 -0.0714 -0.402389
v -6.27601 0.385214 -26.6353
vn 0.873348 -0.131897 -0.468899
v -6.29258 0.364657 -26.6568
vn 0.825605 -0.191124 -0.530893
v -6.31191 0.344738 -26.6765
vn 0.769911 -0.24851 -0.587775
v -6.33382 0.325651 -26.6943
vn 0.706802 -0.303503 -0.638996
v -6.35808 0.307577 -26.7099
vn 0.636887 -0.355573 -0.684064
v -6.38448 0.290693 -26.7233
vn 0.560837 -0.404219 -0.722543
v -6.41275 0.275159 -26.7342
vn 0.479387 -0.448972 -0.754064
v -6.44262 0.261127 -26.7427
vn 0.39332 -0.489401 -0.778323
v -6.47381 0.24873 -26.7485
vn 0.303465 -0.525117 -0.795086
v -6.50601 0.238089 -26.7516
vn 0.210687 -0.555775 -0.804192
v -6.53892 0.229305 -26.7521
vn 0.115881 -0.581082 -0.805553
v -6.57221 0.222464 -26.7499
vn 0.0199583 -0.600792 -0.799156
v -6.60557 0.217631 -26.745
vn -0.0761565 -0.614716 -0.785063
v -6.63868 0.214853 -26.7375
vn -0.171538 -0.62272 -0.76341
v -6.67121 0.214156 -26.7274
vn -0.265267 -0.624727 -0.734404
v -6.70286 0.215548 -26.7149
vn -0.356442 -0.620717 -0.698326
v -6.73331 0.219014 -26.7
vn -0.444184 -0.61073 -0.655522
v -6.76228 0.224522 -26.683
vn -0.527648 -0.594861 -0.606406
v -6.78949 0.232019 -26.6639
vn -0.606031 -0.573263 -0.551449
v -6.81467 0.241432 -26.643
vn -0.678577 -0.546145 -0.491182
v -6.83758 0.25267 -26.6204
vn -0.744588 -0.513766 -0.426184
v -6.85801 0.265625 -26.5964
vn -0.803429 -0.47644 -0.357082
v -6.87574 0.280174 -26.5713
vn -0.854532 -0.434525 -0.284541
v -6.89062 0.296174 -26.5451
vn -0.897405 -0.388426 -0.209259
v -6.90251 0.313474 -26.5183
vn -0.931636 -0.338586 -0.131963
v -6.91127 0.331905 -26.491
vn -0.956895 -0.285485 -0.0533952
v -6.91684 0.35129 -26.4636
vn -0.972938 -0.229635 0.0256865
v -6.91916 0.371443 -26.4362
vn -0.979611 -0.171573 0.104521
v -6.9182 0.392169 -26.4092
vn -0.97685 -0.111859 0.182349
v -6.91398 0.413269 -26.3828
vn -0.964682 -0.0510679 0.25842
v -6.90653 0.43454 -26.3573
vn -0.943223 0.0102153 0.332003
v -6.89593 0.455777 -26.3328
vn -0.91268 0.0714 0.402389
v -6.88227 0.476775 -26.3098
vn -0.873348 0.131897 0.468899
v -6.8657 0.497332 -26.2882
vn -0.825605 0.191124 0.530893
v -6.84637 0.517251 -26.2685
vn -0.769911 0.24851 0.587775
v -6.82447 0.536338 -26.2507
vn -0.706802 0.303503 0.638996
v -6.8002 0.554411 -26.2351
vn -0.636887 0.355573 0.684064
v -6.7738 0.571296 -26.2217
vn -0.560837 0.404219 0.722543
v -6.74553 0.586829 -26.2108
vn -0.479387 0.448972 0.754064
v -6.71566 0.600862 -26.2024
vn -0.39332 0.489401 0.778323
v -6.68447 0.613259 -26.1965
vn -0.303465 0.525117 0.795086
v -6.65227 0.6239 -26.1934
vn -0.210687 0.555775 0.804192
v -6.61936 0.632684 -26.1929
vn -0.115881 0.581082 0.805553
v -6.58607 0.639525 -26.1951
vn -0.0199583 0.600792 0.799156
v -6.55271 0.644358 -26.2
vn 0.0761565 0.614716 0.785063
v -6.27473 -0.575443 -25.535
vn 0.224446 0.354173 0.907847
v -6.24198 -0.574286 -25.5454
vn 0.317921 0.357473 0.878146
v -6.2103 -0.574336 -25.5588
vn 0.408333 0.35733 0.839987
v -6.18 -0.575592 -25.575
vn 0.494814 0.353746 0.79374
v -6.15137 -0.578041 -25.5939
vn 0.576529 0.346756 0.739848
v -6.12468 -0.581661 -25.6153
vn 0.652692 0.336426 0.678831
v -6.10019 -0.586416 -25.6389
vn 0.722569 0.322856 0.611276
v -6.07815 -0.59226 -25.6647
vn 0.785487 0.306176 0.537835
v -6.05875 -0.599137 -25.6922
vn 0.84084 0.286548 0.459214
v -6.0422 -0.606982 -25.7213
vn 0.888096 0.264161 0.37617
v -6.02864 -0.615717 -25.7517
vn 0.926799 0.239229 0.289504
v -6.0182 -0.62526 -25.783
vn 0.956577 0.211994 0.20005
v -6.011 -0.635519 -25.815
vn 0.977142 0.182717 0.108669
v -6.00709 -0.646394 -25.8474
vn 0.988296 0.15168 0.0162413
v -6.00651 -0.65778 -25.8799
vn 0.989933 0.119182 -0.0763426
v -6.00928 -0.669569 -25.9121
vn 0.982036 0.085537 -0.168191
v -6.01536 -0.681647 -25.9437
vn 0.964682 0.0510679 -0.25842
v -6.0247 -0.693897 -25.9744
vn 0.938037 0.016107 -0.34616
v -6.0372 -0.706201 -26.004
vn 0.902359 -0.0190091 -0.430567
v -6.05275 -0.718441 -26.0321
vn 0.85799 -0.053942 -0.510827
v -6.07119 -0.730499 -26.0585
vn 0.805358 -0.0883555 -0.586167
v -6.09235 -0.742259 -26.0829
vn 0.74497 -0.121918 -0.655862
v -6.11602 -0.753607 -26.1051
vn 0.677408 -0.154306 -0.719241
v -6.14198 -0.764435 -26.1249
vn 0.603322 -0.185209 -0.775693
v -6.16997 -0.774638 -26.1421
vn 0.523426 -0.214328 -0.824675
v -6.19973 -0.784117 -26.1565
vn 0.438489 -0.241382 -0.865715
v -6.23097 -0.792782 -26.1679
vn 0.349328 -0.266112 -0.898417
v -6.26339 -0.80055 -26.1763
vn 0.256804 -0.288279 -0.922468
v -6.29668 -0.807344 -26.1817
vn 0.161807 -0.30767 -0.937634
v -6.33051 -0.8131 -26.1838
vn 0.0652509 -0.324098 -0.943771
v -6.36456 -0.817762 -26.1828
vn -0.0319333 -0.337405 -0.940818
v -6.39851 -0.821286 -26.1786
vn -0.12881 -0.347462 -0.928805
v -6.43202 -0.823638 -26.1712
vn -0.224446 -0.354173 -0.907847
v -6.46477 -0.824794 -26.1608
vn -0.317921 -0.357473 -0.878146
v -6.49645 -0.824744 -26.1474
vn -0.408333 -0.35733 -0.839987
v -6.52675 -0.823488 -26.1312
vn -0.494814 -0.353746 -0.79374
v -6.55538 -0.821039 -26.1124
vn -0.576529 -0.346756 -0.739848
v -6.58207 -0.817419 -26.091
vn -0.652692 -0.336426 -0.678831
v -6.60655 -0.812665 -26.0673
vn -0.722569 -0.322856 -0.611276
v -6.6286 -0.80682 -26.0416
vn -0.785487 -0.306176 -0.537835
v -6.64799 -0.799943 -26.014
vn -0.84084 -0.286548 -0.459214
v -6.66455 -0.792099 -25.9849
vn -0.888096 -0.264161 -0.37617
v -6.67811 -0.783363 -25.9546
vn -0.926799 -0.239229 -0.289504
v -6.68855 -0.77382 -25.9232
vn -0.956577 -0.211994 -0.20005
v -6.69575 -0.763562 -25.8912
vn -0.977142 -0.182717 -0.108669
v -6.69966 -0.752687 -25.8588
vn -0.988296 -0.15168 -0.0162413
v -6.70023 -0.7413 -25.8264
vn -0.989933 -0.119182 0.0763426
v -6.69747 -0.729511 -25.7942
vn -0.982036 -0.085537 0.168191
v -6.69139 -0.717434 -25.7626
vn -0.964682 -0.0510679 0.25842
v -6.68205 -0.705184 -25.7318
vn -0.938037 -0.016107 0.34616
v -6.66955 -0.69288 -25.7023
vn -0.902359 0.0190091 0.430567
v -6.654 -0.68064 -25.6741
vn -0.85799 0.053942 0.510827
v -6.63556 -0.668582 -25.6477
vn -0.805358 0.0883555 0.586167
v -6.6144 -0.656822 -25.6233
vn -0.74497 0.121918 0.655862
v -6.59073 -0.645473 -25.6011
vn -0.677408 0.154306 0.719241
v -6.56477 -0.634645 -25.5813
vn -0.603322 0.185209 0.775693
v -6.53678 -0.624443 -25.5642
vn -0.523426 0.214328 0.824675
v -6.50701 -0.614963 -25.5498
vn -0.438489 0.241382 0.865715
v -6.47577 -0.606298 -25.5383
vn -0.349328 0.266112 0.898417
v -6.44335 -0.598531 -25.5299
vn -0.256804 0.288279 0.922468
v -6.41007 -0.591737 -25.5246
vn -0.161807 0.30767 0.937634
v -6.37624 -0.58598 -25.5224
vn -0.0652509 0.324098 0.943771
v -6.34218 -0.581318 -25.5235
vn 0.0319333 0.337405 0.940818
v -6.30824 -0.577794 -25.5277
vn 0.12881 0.347462 0.928805
v -6.14086 -1.91267 -25.2995
vn 0.257699 0.0203485 0.966011
v -6.10785 -1.91093 -25.3101
vn 0.351013 0.0252561 0.93603
v -6.07605 -1.90928 -25.3239
vn 0.440947 0.0299204 0.897034
v -6.04574 -1.90774 -25.3408
vn 0.526635 0.0342966 0.849399
v -6.01723 -1.90631 -25.3605
vn 0.607251 0.0383424 0.793585
v -5.99078 -1.905 -25.383
vn 0.682018 0.042019 0.730127
v -5.96666 -1.90385 -25.4079
vn 0.750217 0.045291 0.659638
v -5.9451 -1.90284 -25.4351
vn 0.811192 0.0481267 0.582797
v -5.9263 -1.90201 -25.4642
vn 0.864354 0.050499 0.500342
v -5.91044 -1.90134 -25.4951
vn 0.909192 0.052385 0.413069
v -5.89768 -1.90085 -25.5274
vn 0.945274 0.0537664 0.321818
v -5.88813 -1.90054 -25.5607
vn 0.972252 0.0546301 0.227468
v -5.8819 -1.90043 -25.5949
vn 0.989867 0.0549676 0.130927
v -5.87905 -1.90049 -25.6295
vn 0.997949 0.0547758 0.0331255
v -5.87959 -1.90075 -25.6642
vn 0.99642 0.0540564 -0.0649953
v -5.88352 -1.90119 -25.6987
vn 0.985296 0.0528165 -0.16249
v -5.89081 -1.9018 -25.7326
vn 0.964682 0.0510679 -0.25842
v -5.90139 -1.9026 -25.7656
vn 0.934778 0.0488275 -0.351861
v -5.91515 -1.90356 -25.7975
vn 0.895871 0.0461168 -0.441914
v -5.93196 -1.90467 -25.8278
vn 0.848337 0.042962 -0.527711
v -5.95166 -1.90593 -25.8564
vn 0.792633 0.0393935 -0.608425
v -5.97406 -1.90733 -25.8829
vn 0.729295 0.0354456 -0.683281
v -5.99895 -1.90885 -25.907
vn 0.658934 0.0311563 -0.751555
v -6.02608 -1.91047 -25.9286
vn 0.582227 0.026567 -0.812592
v -6.05519 -1.91218 -25.9474
vn 0.499912 0.0217218 -0.865804
v -6.08601 -1.91397 -25.9633
vn 0.412784 0.0166675 -0.910677
v -6.11823 -1.91582 -25.9761
vn 0.32168 0.0114526 -0.946779
v -6.15155 -1.9177 -25.9856
vn 0.227478 0.00612742 -0.973764
v -6.18564 -1.9196 -25.9918
vn 0.131085 0.000743231 -0.991371
v -6.22018 -1.92151 -25.9947
vn 0.0334298 -0.00464811 -0.99943
v -6.25483 -1.9234 -25.9941
vn -0.0645473 -0.0099947 -0.997865
v -6.28926 -1.92526 -25.9902
vn -0.161903 -0.015245 -0.986689
v -6.32314 -1.92706 -25.9829
vn -0.257699 -0.0203485 -0.966011
v -6.35615 -1.9288 -25.9723
vn -0.351013 -0.0252561 -0.93603
v -6.38796 -1.93045 -25.9585
vn -0.440947 -0.0299204 -0.897034
v -6.41826 -1.932 -25.9416
vn -0.526635 -0.0342966 -0.849399
v -6.44677 -1.93343 -25.9219
vn -0.607251 -0.0383424 -0.793585
v -6.47322 -1.93473 -25.8994
vn -0.682018 -0.042019 -0.730127
v -6.49734 -1.93588 -25.8745
vn -0.750217 -0.045291 -0.659638
v -6.5189 -1.93689 -25.8473
vn -0.811192 -0.0481267 -0.582797
v -6.53771 -1.93773 -25.8182
vn -0.864354 -0.050499 -0.500342
v -6.55357 -1.93839 -25.7873
vn -0.909192 -0.052385 -0.413069
v -6.56633 -1.93888 -25.755
vn -0.945274 -0.0537664 -0.321818
v -6.57587 -1.93919 -25.7217
vn -0.972252 -0.0546301 -0.227468
v -6.5821 -1.93931 -25.6875
vn -0.989867 -0.0549676 -0.130927
v -6.58496 -1.93924 -25.6529
vn -0.997949 -0.0547758 -0.0331255
v -6.58442 -1.93898 -25.6182
vn -0.99642 -0.0540564 0.0649953
v -6.58048 -1.93855 -25.5837
vn -0.985296 -0.0528165 0.16249
v -6.57319 -1.93793 -25.5498
vn -0.964682 -0.0510679 0.25842
v -6.56261 -1.93714 -25.5168
vn -0.934778 -0.0488275 0.351861
v -6.54885 -1.93618 -25.4849
vn -0.895871 -0.0461168 0.441914
v -6.53204 -1.93506 -25.4546
vn -0.848337 -0.042962 0.527711
v -6.51234 -1.9338 -25.426
vn -0.792633 -0.0393935 0.608425
v -6.48994 -1.9324 -25.3995
vn -0.729295 -0.0354456 0.683281
v -6.46505 -1.93089 -25.3754
vn -0.658934 -0.0311563 0.751555
v -6.43792 -1.92926 -25.3538
vn -0.582227 -0.026567 0.812592
v -6.40881 -1.92755 -25.335
vn -0.499912 -0.0217218 0.865804
v -6.378 -1.92576 -25.3191
vn -0.412784 -0.0166675 0.910677
v -6.34577 -1.92392 -25.3063
vn -0.32168 -0.0114526 0.946779
v -6.31246 -1.92203 -25.2968
vn -0.227478 -0.00612742 0.973764
v -6.27836 -1.92013 -25.2906
vn -0.131085 -0.000743231 0.991371
v -6.24383 -1.91822 -25.2877
vn -0.0334298 0.00464811 0.99943
v -6.20917 -1.91633 -25.2883
vn 0.0645473 0.0099947 0.997865
v -6.17474 -1.91447 -25.2922
vn 0.161903 0.015245 0.986689
v -6.12141 -3.32958 -25.507
vn 0.262236 -0.279012 0.923788
v -6.08811 -3.32732 -25.5176
vn 0.355528 -0.272663 0.89401
v -6.05603 -3.32411 -25.5313
vn 0.445397 -0.263688 0.855623
v -6.02548 -3.32 -25.5479
vn 0.530976 -0.252173 0.808995
v -5.99676 -3.31503 -25.5674
vn 0.611442 -0.23823 0.754576
v -5.97013 -3.30923 -25.5894
vn 0.686019 -0.221993 0.69289
v -5.94587 -3.30267 -25.6138
vn 0.75399 -0.203618 0.624531
v -5.9242 -3.29541 -25.6403
vn 0.814699 -0.183282 0.550158
v -5.90533 -3.28752 -25.6688
vn 0.867562 -0.161181 0.470486
v -5.88944 -3.27908 -25.6988
vn 0.91207 -0.137527 0.386284
v -5.87669 -3.27016 -25.7302
vn 0.947794 -0.112549 0.298361
v -5.86719 -3.26086 -25.7626
vn 0.974391 -0.0864874 0.207565
v -5.86105 -3.25126 -25.7958
vn 0.991603 -0.0595926 0.114769
v -5.85831 -3.24145 -25.8293
vn 0.999266 -0.0321239 0.0208689
v -5.85901 -3.23153 -25.8629
vn 0.997305 -0.00434589 -0.0732325
v -5.86314 -3.2216 -25.8962
vn 0.98574 0.023474 -0.166629
v -5.87066 -3.21175 -25.929
vn 0.964682 0.0510679 -0.25842
v -5.88149 -3.20208 -25.9609
vn 0.934333 0.0781699 -0.347723
v -5.89554 -3.19267 -25.9915
vn 0.894986 0.104519 -0.433677
v -5.91266 -3.18363 -26.0207
vn 0.84702 0.129862 -0.515454
v -5.9327 -3.17503 -26.0482
vn 0.790897 0.153954 -0.592268
v -5.95545 -3.16695 -26.0735
vn 0.727156 0.176563 -0.663377
v -5.9807 -3.15949 -26.0966
vn 0.656413 0.197472 -0.728098
v -6.00821 -3.15271 -26.1172
vn 0.579349 0.216479 -0.785807
v -6.03771 -3.14667 -26.1351
vn 0.496704 0.233402 -0.835948
v -6.06892 -3.14143 -26.1502
vn 0.409277 0.248076 -0.878038
v -6.10154 -3.13704 -26.1622
vn 0.317908 0.260362 -0.911672
v -6.13525 -3.13355 -26.171
vn 0.223477 0.27014 -0.936527
v -6.16973 -3.13099 -26.1767
vn 0.126894 0.277316 -0.952362
v -6.20464 -3.12938 -26.1791
vn 0.0290884 0.281822 -0.959026
v -6.23966 -3.12874 -26.1782
vn -0.0689968 0.283613 -0.956453
v -6.27443 -3.12908 -26.174
vn -0.166418 0.282674 -0.94467
v -6.30864 -3.13038 -26.1665
vn -0.262236 0.279012 -0.923788
v -6.34194 -3.13265 -26.1559
vn -0.355528 0.272663 -0.89401
v -6.37402 -3.13585 -26.1422
vn -0.445397 0.263688 -0.855623
v -6.40457 -3.13996 -26.1255
vn -0.530976 0.252173 -0.808995
v -6.4333 -3.14494 -26.1061
vn -0.611442 0.23823 -0.754576
v -6.45992 -3.15074 -26.0841
vn -0.686019 0.221993 -0.69289
v -6.48418 -3.1573 -26.0597
vn -0.75399 0.203618 -0.624531
v -6.50585 -3.16456 -26.0331
vn -0.814699 0.183282 -0.550158
v -6.52472 -3.17245 -26.0047
vn -0.867562 0.161181 -0.470486
v -6.54061 -3.18089 -25.9746
vn -0.91207 0.137527 -0.386284
v -6.55336 -3.18981 -25.9432
vn -0.947794 0.112549 -0.298361
v -6.56286 -3.19911 -25.9108
vn -0.974391 0.0864874 -0.207565
v -6.569 -3.20871 -25.8777
vn -0.991603 0.0595926 -0.114769
v -6.57174 -3.21852 -25.8442
vn -0.999266 0.0321239 -0.0208689
v -6.57104 -3.22843 -25.8106
vn -0.997305 0.00434589 0.0732325
v -6.56691 -3.23836 -25.7772
vn -0.98574 -0.023474 0.166629
v -6.55939 -3.24821 -25.7445
vn -0.964682 -0.0510679 0.25842
v -6.54856 -3.25789 -25.7126
vn -0.934333 -0.0781699 0.347723
v -6.53451 -3.26729 -25.6819
vn -0.894986 -0.104519 0.433677
v -6.51739 -3.27634 -25.6527
vn -0.84702 -0.129862 0.515454
v -6.49736 -3.28494 -25.6253
vn -0.790897 -0.153954 0.592268
v -6.4746 -3.29301 -25.5999
vn -0.727156 -0.176563 0.663377
v -6.44935 -3.30048 -25.5768
vn -0.656413 -0.197472 0.728098
v -6.42184 -3.30726 -25.5562
vn -0.579349 -0.216479 0.785807
v -6.39234 -3.3133 -25.5383
vn -0.496704 -0.233402 0.835948
v -6.36113 -3.31854 -25.5233
vn -0.409277 -0.248076 0.878038
v -6.32851 -3.32293 -25.5113
vn -0.317908 -0.260362 0.911672
v -6.2948 -3.32642 -25.5024
vn -0.223477 -0.27014 0.936527
v -6.26032 -3.32898 -25.4968
vn -0.126894 -0.277316 0.952362
v -6.22541 -3.33059 -25.4944
vn -0.0290884 -0.281822 0.959026
v -6.1904 -3.33123 -25.4953
vn 0.0689968 -0.283613 0.956453
v -6.15562 -3.33089 -25.4995
vn 0.166418 -0.282674 0.94467
v -6.21251 -4.80655 -26.1389
vn 0.24964 -0.490352 0.835006
v -6.17888 -4.8039 -26.1495
vn 0.342994 -0.482985 0.805656
v -6.14643 -4.79957 -26.1628
vn 0.433044 -0.470967 0.768546
v -6.11549 -4.7936 -26.1789
vn 0.518923 -0.454413 0.724036
v -6.08635 -4.78606 -26.1974
vn 0.599805 -0.433483 0.672552
v -6.0593 -4.77702 -26.2183
vn 0.674911 -0.408378 0.614591
v -6.03458 -4.76656 -26.2413
vn 0.743517 -0.379341 0.550712
v -6.01244 -4.75478 -26.2662
vn 0.804962 -0.34665 0.481528
v -5.9931 -4.7418 -26.2928
vn 0.858656 -0.31062 0.407708
v -5.97673 -4.72774 -26.3208
vn 0.904079 -0.2716 0.329961
v -5.96351 -4.71274 -26.35
vn 0.940796 -0.229963 0.249036
v -5.95354 -4.69694 -26.38
vn 0.968453 -0.186112 0.165713
v -5.94694 -4.6805 -26.4106
vn 0.986783 -0.140469 0.0807939
v -5.94376 -4.66357 -26.4415
vn 0.99561 -0.0934726 -0.00490321
v -5.94403 -4.64631 -26.4723
vn 0.994848 -0.0455762 -0.0905531
v -5.94776 -4.6289 -26.5029
vn 0.984506 0.0027591 -0.175331
v -5.9549 -4.61149 -26.5328
vn 0.964682 0.0510679 -0.25842
v -5.96539 -4.59427 -26.5619
vn 0.935568 0.0988848 -0.339021
v -5.97912 -4.57738 -26.5897
vn 0.897443 0.145749 -0.416356
v -5.99597 -4.56101 -26.6161
vn 0.850676 0.19121 -0.489682
v -6.01577 -4.54529 -26.6408
vn 0.795717 0.23483 -0.558292
v -6.03833 -4.53039 -26.6636
vn 0.733094 0.276188 -0.621525
v -6.06344 -4.51645 -26.6843
vn 0.663411 0.314886 -0.678773
v -6.09085 -4.5036 -26.7025
vn 0.587339 0.350552 -0.729484
v -6.12029 -4.49197 -26.7183
vn 0.505611 0.382841 -0.773169
v -6.15149 -4.48166 -26.7313
vn 0.419013 0.411444 -0.809408
v -6.18414 -4.47278 -26.7416
vn 0.32838 0.436084 -0.837853
v -6.21793 -4.46542 -26.7489
vn 0.234585 0.456525 -0.858228
v -6.25254 -4.45964 -26.7533
vn 0.13853 0.472569 -0.870338
v -6.28762 -4.4555 -26.7546
vn 0.0411414 0.484061 -0.874066
v -6.32285 -4.45304 -26.7529
vn -0.0566435 0.490892 -0.869377
v -6.35789 -4.45228 -26.7482
vn -0.153883 0.492996 -0.856315
v -6.39238 -4.45323 -26.7405
vn -0.24964 0.490352 -0.835006
v -6.42602 -4.45589 -26.73
vn -0.342994 0.482985 -0.805656
v -6.45846 -4.46022 -26.7166
vn -0.433044 0.470967 -0.768546
v -6.4894 -4.46618 -26.7006
vn -0.518923 0.454413 -0.724036
v -6.51854 -4.47372 -26.682
vn -0.599805 0.433483 -0.672552
v -6.5456 -4.48277 -26.6611
vn -0.674911 0.408378 -0.614591
v -6.57031 -4.49323 -26.6381
vn -0.743517 0.379341 -0.550712
v -6.59245 -4.50501 -26.6132
vn -0.804962 0.34665 -0.481528
v -6.61179 -4.51799 -26.5866
vn -0.858656 0.31062 -0.407708
v -6.62816 -4.53204 -26.5586
vn -0.904079 0.2716 -0.329961
v -6.64139 -4.54704 -26.5294
vn -0.940796 0.229963 -0.249036
v -6.65135 -4.56284 -26.4994
vn -0.968453 0.186112 -0.165713
v -6.65795 -4.57929 -26.4688
vn -0.986783 0.140469 -0.0807939
v -6.66113 -4.59622 -26.4379
vn -0.99561 0.0934726 0.00490321
v -6.66086 -4.61347 -26.4071
vn -0.994848 0.0455762 0.0905531
v -6.65713 -4.63089 -26.3765
vn -0.984506 -0.0027591 0.175331
v -6.64999 -4.64829 -26.3466
vn -0.964682 -0.0510679 0.25842
v -6.6395 -4.66552 -26.3176
vn -0.935568 -0.0988848 0.339021
v -6.62577 -4.6824 -26.2897
vn -0.897443 -0.145749 0.416356
v -6.60892 -4.69878 -26.2633
vn -0.850676 -0.19121 0.489682
v -6.58912 -4.71449 -26.2386
vn -0.795717 -0.23483 0.558292
v -6.56656 -4.72939 -26.2158
vn -0.733094 -0.276188 0.621525
v -6.54145 -4.74334 -26.1952
vn -0.663411 -0.314886 0.678773
v -6.51405 -4.75619 -26.1769
vn -0.587339 -0.350552 0.729484
v -6.4846 -4.76782 -26.1612
vn -0.505611 -0.382841 0.773169
v -6.4534 -4.77812 -26.1481
vn -0.419013 -0.411444 0.809408
v -6.42075 -4.787 -26.1379
vn -0.32838 -0.436084 0.837853
v -6.38696 -4.79436 -26.1305
vn -0.234585 -0.456525 0.858228
v -6.35235 -4.80014 -26.1262
vn -0.13853 -0.472569 0.870338
v -6.31727 -4.80428 -26.1248
vn -0.0411414 -0.484061 0.874066
v -6.28204 -4.80675 -26.1265
vn 0.0566435 -0.490892 0.869377
v -6.24701 -4.8075 -26.1312
vn 0.153883 -0.492996 0.856315
v -6.40972 -6.34716 -27.1795
vn 0.232545 -0.625938 0.744395
v -6.37575 -6.34425 -27.19
vn 0.325981 -0.617919 0.715481
v -6.34292 -6.33917 -27.203
vn 0.416277 -0.603948 0.679677
v -6.31155 -6.33197 -27.2184
vn 0.502564 -0.584161 0.637326
v -6.28194 -6.32273 -27.2361
vn 0.584011 -0.558749 0.588838
v -6.25437 -6.31154 -27.2558
vn 0.659834 -0.527955 0.534679
v -6.22911 -6.29849 -27.2773
vn 0.729303 -0.492077 0.475371
v -6.20641 -6.28373 -27.3005
vn 0.791747 -0.45146 0.411485
v -6.18648 -6.26738 -27.3252
vn 0.846567 -0.406495 0.343636
v -6.16951 -6.24961 -27.3511
vn 0.893234 -0.357615 0.272478
v -6.15568 -6.23059 -27.3779
vn 0.931299 -0.305291 0.198695
v -6.1451 -6.21049 -27.4054
vn 0.960394 -0.250027 0.122999
v -6.13788 -6.18953 -27.4334
vn 0.980241 -0.192356 0.0461186
v -6.1341 -6.16789 -27.4615
vn 0.990647 -0.132831 -0.0312062
v -6.13378 -6.14578 -27.4895
vn 0.991513 -0.0720279 -0.10823
v -6.13694 -6.12342 -27.5171
vn 0.98283 -0.0105307 -0.184212
v -6.14354 -6.10103 -27.5441
vn 0.964682 0.0510679 -0.25842
v -6.15351 -6.07881 -27.5702
vn 0.937243 0.112175 -0.330139
v -6.16677 -6.05699 -27.5951
vn 0.900778 0.172201 -0.398679
v -6.18318 -6.03577 -27.6186
vn 0.855639 0.230569 -0.463379
v -6.20259 -6.01535 -27.6405
vn 0.802259 0.286717 -0.523617
v -6.22481 -5.99594 -27.6606
vn 0.741152 0.340103 -0.578812
v -6.24962 -5.97773 -27.6786
vn 0.672909 0.390214 -0.628432
v -6.27678 -5.96087 -27.6945
vn 0.598184 0.436567 -0.672001
v -6.30605 -5.94555 -27.708
vn 0.517699 0.478716 -0.709097
v -6.33712 -5.9319 -27.719
vn 0.432228 0.516254 -0.739365
v -6.36971 -5.92006 -27.7274
vn 0.342594 0.54882 -0.762512
v -6.40349 -5.91014 -27.7331
vn 0.249661 0.576101 -0.778316
v -6.43816 -5.90224 -27.7361
vn 0.154324 0.597834 -0.786625
v -6.47336 -5.89643 -27.7364
vn 0.0575006 0.61381 -0.787357
v -6.50876 -5.89277 -27.7339
vn -0.0398767 0.623874 -0.780507
v -6.54402 -5.8913 -27.7287
vn -0.13687 0.62793 -0.76614
v -6.57881 -5.89202 -27.7208
vn -0.232545 0.625938 -0.744395
v -6.61278 -5.89494 -27.7103
vn -0.325981 0.617919 -0.715481
v -6.64561 -5.90002 -27.6973
vn -0.416277 0.603948 -0.679677
v -6.67698 -5.90721 -27.6819
vn -0.502564 0.584161 -0.637326
v -6.70659 -5.91645 -27.6642
vn -0.584011 0.558749 -0.588838
v -6.73415 -5.92765 -27.6445
vn -0.659834 0.527955 -0.534679
v -6.75941 -5.94069 -27.623
vn -0.729303 0.492077 -0.475371
v -6.78211 -5.95546 -27.5998
vn -0.791747 0.45146 -0.411485
v -6.80204 -5.97181 -27.5751
vn -0.846567 0.406495 -0.343636
v -6.81901 -5.98958 -27.5492
vn -0.893234 0.357615 -0.272478
v -6.83285 -6.0086 -27.5224
vn -0.931299 0.305291 -0.198695
v -6.84343 -6.02869 -27.4949
vn -0.960394 0.250027 -0.122999
v -6.85064 -6.04966 -27.4669
vn -0.980241 0.192356 -0.0461186
v -6.85443 -6.0713 -27.4388
vn -0.990647 0.132831 0.0312062
v -6.85474 -6.09341 -27.4108
vn -0.991513 0.0720279 0.10823
v -6.85158 -6.11576 -27.3832
vn -0.98283 0.0105307 0.184212
v -6.84499 -6.13816 -27.3562
vn -0.964682 -0.0510679 0.25842
v -6.83501 -6.16038 -27.3301
vn -0.937243 -0.112175 0.330139
v -6.82175 -6.1822 -27.3052
vn -0.900778 -0.172201 0.398679
v -6.80534 -6.20342 -27.2817
vn -0.855639 -0.230569 0.463379
v -6.78593 -6.22383 -27.2598
vn -0.802259 -0.286717 0.523617
v -6.76372 -6.24324 -27.2397
vn -0.741152 -0.340103 0.578812
v -6.73891 -6.26146 -27.2217
vn -0.672909 -0.390214 0.628432
v -6.71174 -6.27831 -27.2058
vn -0.598184 -0.436567 0.672001
v -6.68248 -6.29364 -27.1923
vn -0.517699 -0.478716 0.709097
v -6.6514 -6.30728 -27.1813
vn -0.432228 -0.516254 0.739365
v -6.61882 -6.31912 -27.1729
vn -0.342594 -0.54882 0.762512
v -6.58503 -6.32904 -27.1672
vn -0.249661 -0.576101 0.778316
v -6.55037 -6.33694 -27.1642
vn -0.154324 -0.597834 0.786625
v -6.51517 -6.34275 -27.1639
vn -0.0575006 -0.61381 0.787357
v -6.47976 -6.34641 -27.1664
vn 0.0398767 -0.623874 0.780507
v -6.4445 -6.34788 -27.1716
vn 0.13687 -0.62793 0.76614
v -6.71105 -7.96051 -28.6232
vn 0.216486 -0.712615 0.667319
v -6.67675 -7.95742 -28.6337
vn 0.309999 -0.704178 0.638776
v -6.64354 -7.95183 -28.6464
vn 0.400527 -0.688959 0.604081
v -6.61174 -7.94382 -28.6613
vn 0.487197 -0.667105 0.563569
v -6.58167 -7.93344 -28.6781
vn 0.569175 -0.638827 0.517629
v -6.5536 -7.92081 -28.6968
vn 0.645672 -0.604397 0.466704
v -6.52782 -7.90605 -28.7172
vn 0.71595 -0.564146 0.411285
v -6.50457 -7.88929 -28.7389
vn 0.779334 -0.518461 0.351904
v -6.48407 -7.87069 -28.762
vn 0.835212 -0.467784 0.289135
v -6.46652 -7.85045 -28.786
vn 0.883047 -0.412602 0.223581
v -6.45209 -7.82875 -28.8109
vn 0.922377 -0.353446 0.155874
v -6.44092 -7.8058 -28.8362
vn 0.952824 -0.290886 0.0866656
v -6.43312 -7.78182 -28.8619
vn 0.974096 -0.225525 0.0166227
v -6.42876 -7.75704 -28.8877
vn 0.985986 -0.157992 -0.0535803
v -6.42788 -7.73171 -28.9133
vn 0.98838 -0.0889376 -0.123267
v -6.43049 -7.70606 -28.9384
vn 0.981256 -0.0190265 -0.191767
v -6.43657 -7.68035 -28.9628
vn 0.964682 0.0510679 -0.25842
v -6.44606 -7.65482 -28.9864
vn 0.938817 0.12067 -0.322584
v -6.45887 -7.62971 -29.0088
vn 0.903911 0.189111 -0.383642
v -6.47487 -7.60527 -29.0298
vn 0.8603 0.25573 -0.441005
v -6.49391 -7.58173 -29.0493
vn 0.808404 0.319886 -0.494121
v -6.5158 -7.55933 -29.0671
vn 0.748723 0.380962 -0.542478
v -6.54034 -7.53827 -29.0829
vn 0.68183 0.438369 -0.585611
v -6.56729 -7.51875 -29.0966
vn 0.608372 0.491554 -0.623104
v -6.59639 -7.50098 -29.1082
vn 0.529054 0.540005 -0.654596
v -6.62735 -7.48511 -29.1174
vn 0.444642 0.583256 -0.679784
v -6.65989 -7.47131 -29.1243
vn 0.355947 0.620889 -0.698426
v -6.69369 -7.45969 -29.1286
vn 0.263824 0.652543 -0.710341
v -6.72842 -7.45039 -29.1305
vn 0.169161 0.677913 -0.715415
v -6.76374 -7.44347 -29.1298
vn 0.072868 0.696754 -0.7136
v -6.79933 -7.43902 -29.1266
vn -0.0241263 0.708885 -0.704912
v -6.83482 -7.43708 -29.121
vn -0.120888 0.714189 -0.689435
v -6.86989 -7.43766 -29.1129
vn -0.216486 0.712615 -0.667319
v -6.9042 -7.44075 -29.1024
vn -0.309999 0.704178 -0.638776
v -6.93741 -7.44633 -29.0897
vn -0.400527 0.688959 -0.604081
v -6.96921 -7.45435 -29.0748
vn -0.487197 0.667105 -0.563569
v -6.99928 -7.46473 -29.0579
vn -0.569175 0.638827 -0.517629
v -7.02734 -7.47736 -29.0393
vn -0.645672 0.604397 -0.466704
v -7.05313 -7.49212 -29.0189
vn -0.71595 0.564146 -0.411285
v -7.07638 -7.50888 -28.9971
vn -0.779334 0.518461 -0.351904
v -7.09688 -7.52747 -28.9741
vn -0.835212 0.467784 -0.289135
v -7.11443 -7.54772 -28.9501
vn -0.883047 0.412602 -0.223581
v -7.12886 -7.56942 -28.9252
vn -0.922377 0.353446 -0.155874
v -7.14002 -7.59237 -28.8998
vn -0.952824 0.290886 -0.0866656
v -7.14783 -7.61635 -28.8741
vn -0.974096 0.225525 -0.0166227
v -7.15219 -7.64112 -28.8484
vn -0.985986 0.157992 0.0535803
v -7.15307 -7.66646 -28.8228
vn -0.98838 0.0889376 0.123267
v -7.15046 -7.6921 -28.7977
vn -0.981256 0.0190265 0.191767
v -7.14438 -7.71782 -28.7732
vn -0.964682 -0.0510679 0.25842
v -7.13489 -7.74335 -28.7497
vn -0.938817 -0.12067 0.322584
v -7.12208 -7.76846 -28.7273
vn -0.903911 -0.189111 0.383642
v -7.10608 -7.7929 -28.7063
vn -0.8603 -0.25573 0.441005
v -7.08704 -7.81644 -28.6868
vn -0.808404 -0.319886 0.494121
v -7.06515 -7.83884 -28.669
vn -0.748723 -0.380962 0.542478
v -7.04061 -7.8599 -28.6532
vn -0.68183 -0.438369 0.585611
v -7.01366 -7.87941 -28.6395
vn -0.608372 -0.491554 0.623104
v -6.98456 -7.89719 -28.6279
vn -0.529054 -0.540005 0.654596
v -6.95359 -7.91306 -28.6187
vn -0.444642 -0.583256 0.679784
v -6.92106 -7.92686 -28.6118
vn -0.355947 -0.620889 0.698426
v -6.88726 -7.93847 -28.6074
vn -0.263824 -0.652543 0.710341
v -6.85253 -7.94778 -28.6056
vn -0.169161 -0.677913 0.715415
v -6.81721 -7.95469 -28.6063
vn -0.072868 -0.696754 0.7136
v -6.78162 -7.95914 -28.6094
vn 0.0241263 -0.708885 0.704912
v -6.74613 -7.96109 -28.6151
vn 0.120888 -0.714189 0.689435
v -7.116 -9.65333 -30.4694
vn 0.202854 -0.76986 0.605116
v -7.08136 -9.65011 -30.4799
vn 0.296432 -0.761148 0.576873
v -7.04778 -9.64417 -30.4924
vn 0.387156 -0.745105 0.543074
v -7.01557 -9.63557 -30.5068
vn 0.474151 -0.721886 0.504045
v -6.98506 -9.62441 -30.5231
vn 0.55658 -0.691715 0.460161
v -6.95654 -9.61077 -30.5409
vn 0.633649 -0.654883 0.411846
v -6.93027 -9.59481 -30.5603
vn 0.704615 -0.611744 0.359565
v -6.90651 -9.57666 -30.5809
vn 0.768796 -0.562713 0.303821
v -6.8855 -9.5565 -30.6026
vn 0.825572 -0.508263 0.245151
v -6.86742 -9.53453 -30.6252
vn 0.874398 -0.448918 0.18412
v -6.85247 -9.51097 -30.6485
vn 0.914803 -0.38525 0.121316
v -6.84077 -9.48603 -30.6722
vn 0.946398 -0.317872 0.0573436
v -6.83245 -9.45995 -30.696
vn 0.968879 -0.247432 -0.00718114
v -6.82758 -9.433 -30.7199
vn 0.982028 -0.17461 -0.0716367
v -6.82622 -9.40542 -30.7435
vn 0.985721 -0.100106 -0.135402
v -6.82836 -9.37749 -30.7666
vn 0.97992 -0.0246375 -0.197864
v -6.834 -9.34946 -30.789
vn 0.964682 0.0510679 -0.25842
v -6.84308 -9.32162 -30.8105
vn 0.940154 0.126281 -0.316488
v -6.85551 -9.29423 -30.8309
vn 0.906571 0.200279 -0.371507
v -6.87118 -9.26756 -30.8499
vn 0.864258 0.272348 -0.422949
v -6.88992 -9.24185 -30.8675
vn 0.813621 0.341793 -0.470317
v -6.91156 -9.21736 -30.8833
vn 0.755149 0.407947 -0.513156
v -6.9359 -9.19433 -30.8974
vn 0.689404 0.470173 -0.551053
v -6.96269 -9.17298 -30.9094
vn 0.61702 0.52787 -0.583643
v -6.99168 -9.1535 -30.9194
vn 0.538694 0.580484 -0.610612
v -7.0226 -9.13609 -30.9272
vn 0.45518 0.627507 -0.631701
v -7.05513 -9.12093 -30.9328
vn 0.367282 0.668487 -0.646706
v -7.08898 -9.10814 -30.936
vn 0.275847 0.703029 -0.655483
v -7.12381 -9.09786 -30.9369
vn 0.181755 0.730801 -0.657948
v -7.15928 -9.09019 -30.9355
vn 0.0859134 0.751535 -0.654075
v -7.19506 -9.08519 -30.9317
vn -0.0107559 0.76503 -0.643904
v -7.23081 -9.08292 -30.9257
vn -0.107322 0.771159 -0.627532
v -7.26617 -9.0834 -30.9174
vn -0.202854 0.76986 -0.605116
v -7.30081 -9.08663 -30.9069
vn -0.296432 0.761148 -0.576873
v -7.33439 -9.09257 -30.8944
vn -0.387156 0.745105 -0.543074
v -7.36659 -9.10116 -30.88
vn -0.474151 0.721886 -0.504045
v -7.3971 -9.11233 -30.8637
vn -0.55658 0.691715 -0.460161
v -7.42563 -9.12596 -30.8458
vn -0.633649 0.654883 -0.411846
v -7.4519 -9.14193 -30.8265
vn -0.704615 0.611744 -0.359565
v -7.47565 -9.16008 -30.8058
vn -0.768796 0.562713 -0.303821
v -7.49667 -9.18023 -30.7841
vn -0.825572 0.508263 -0.245151
v -7.51474 -9.2022 -30.7615
vn -0.874398 0.448918 -0.18412
v -7.5297 -9.22577 -30.7383
vn -0.914803 0.38525 -0.121316
v -7.54139 -9.25071 -30.7146
vn -0.946398 0.317872 -0.0573436
v -7.54971 -9.27678 -30.6907
vn -0.968879 0.247432 0.00718114
v -7.55458 -9.30374 -30.6669
vn -0.982028 0.17461 0.0716367
v -7.55595 -9.33131 -30.6433
vn -0.985721 0.100106 0.135402
v -7.5538 -9.35925 -30.6201
vn -0.97992 0.0246375 0.197864
v -7.54816 -9.38727 -30.5977
vn -0.964682 -0.0510679 0.25842
v -7.53908 -9.41511 -30.5762
vn -0.940154 -0.126281 0.316488
v -7.52665 -9.4425 -30.5559
vn -0.906571 -0.200279 0.371507
v -7.51099 -9.46918 -30.5368
vn -0.864258 -0.272348 0.422949
v -7.49225 -9.49488 -30.5193
vn -0.813621 -0.341793 0.470317
v -7.4706 -9.51937 -30.5034
vn -0.755149 -0.407947 0.513156
v -7.44627 -9.5424 -30.4894
vn -0.689404 -0.470173 0.551053
v -7.41947 -9.56376 -30.4774
vn -0.61702 -0.52787 0.583643
v -7.39048 -9.58323 -30.4674
vn -0.538694 -0.580484 0.610612
v -7.35957 -9.60064 -30.4596
vn -0.45518 -0.627507 0.631701
v -7.32703 -9.61581 -30.454
vn -0.367282 -0.668487 0.646706
v -7.29319 -9.62859 -30.4508
vn -0.275847 -0.703029 0.655483
v -7.25836 -9.63887 -30.4498
vn -0.181755 -0.730801 0.657948
v -7.22288 -9.64655 -30.4513
vn -0.0859134 -0.751535 0.654075
v -7.1871 -9.65154 -30.455
vn 0.0107559 -0.76503 0.643904
v -7.15136 -9.65381 -30.4611
vn 0.107322 -0.771159 0.627532
v -7.62453 -11.4297 -32.7188
vn 0.191605 -0.80925 0.55534
v -7.58957 -11.4263 -32.7293
vn 0.285237 -0.800348 0.527336
v -7.55562 -11.4201 -32.7416
vn 0.376123 -0.783738 0.494254
v -7.52304 -11.4111 -32.7557
vn 0.463387 -0.75958 0.456412
v -7.49211 -11.3993 -32.7715
vn 0.546187 -0.728107 0.414174
v -7.46316 -11.385 -32.7888
vn 0.623728 -0.689621 0.367948
v -7.43644 -11.3681 -32.8074
vn 0.695262 -0.644495 0.318178
v -7.41223 -11.349 -32.8271
vn 0.7601 -0.593162 0.265343
v -7.39075 -11.3277 -32.8478
vn 0.817618 -0.536116 0.209954
v -7.37221 -11.3044 -32.8692
vn 0.867262 -0.473907 0.152542
v -7.35679 -11.2795 -32.8912
vn 0.908554 -0.407134 0.0936617
v -7.34464 -11.2531 -32.9135
vn 0.941095 -0.33644 0.0338791
v -7.33587 -11.2255 -32.936
vn 0.964574 -0.262506 -0.0262298
v -7.33057 -11.1969 -32.9583
vn 0.978763 -0.186044 -0.086086
v -7.32879 -11.1677 -32.9804
vn 0.983526 -0.10779 -0.145113
v -7.33055 -11.1381 -33.0019
vn 0.978817 -0.0284984 -0.202743
v -7.33583 -11.1084 -33.0227
vn 0.964682 0.0510679 -0.25842
v -7.34458 -11.0788 -33.0426
vn 0.941256 0.130142 -0.311609
v -7.35671 -11.0498 -33.0613
vn 0.908766 0.207963 -0.361796
v -7.37211 -11.0215 -33.0787
vn 0.867523 0.283782 -0.408499
v -7.39064 -10.9942 -33.0947
vn 0.817926 0.356867 -0.451268
v -7.4121 -10.9682 -33.1091
vn 0.760452 0.426516 -0.489692
v -7.4363 -10.9437 -33.1216
vn 0.695654 0.492057 -0.523399
v -7.463 -10.921 -33.1324
vn 0.624156 0.552859 -0.552065
v -7.49194 -10.9003 -33.1411
vn 0.546648 0.608337 -0.575415
v -7.52285 -10.8817 -33.1477
vn 0.463875 0.657956 -0.593223
v -7.55543 -10.8656 -33.1522
vn 0.376635 0.701238 -0.605319
v -7.58937 -10.8519 -33.1546
vn 0.285768 0.737768 -0.611584
v -7.62433 -10.8409 -33.1547
vn 0.192148 0.767192 -0.61196
v -7.65998 -10.8327 -33.1527
vn 0.096678 0.789228 -0.606442
v -7.69598 -10.8273 -33.1484
vn 0.000276973 0.803663 -0.595084
v -7.73198 -10.8248 -33.142
vn -0.0961268 0.810359 -0.577995
v -7.76764 -10.8252 -33.1336
vn -0.191605 0.80925 -0.55534
v -7.80261 -10.8286 -33.1231
vn -0.285237 0.800348 -0.527336
v -7.83655 -10.8348 -33.1108
vn -0.376123 0.783738 -0.494254
v -7.86914 -10.8438 -33.0966
vn -0.463387 0.75958 -0.456412
v -7.90006 -10.8555 -33.0809
vn -0.546187 0.728107 -0.414174
v -7.92901 -10.8699 -33.0636
vn -0.623728 0.689621 -0.367948
v -7.95573 -10.8868 -33.045
vn -0.695262 0.644495 -0.318178
v -7.97994 -10.9059 -33.0253
vn -0.7601 0.593162 -0.265343
v -8.00142 -10.9272 -33.0046
vn -0.817618 0.536116 -0.209954
v -8.01996 -10.9505 -32.9832
vn -0.867262 0.473907 -0.152542
v -8.03538 -10.9754 -32.9612
vn -0.908554 0.407134 -0.0936617
v -8.04753 -11.0018 -32.9388
vn -0.941095 0.33644 -0.0338791
v -8.0563 -11.0294 -32.9164
vn -0.964574 0.262506 0.0262298
v -8.0616 -11.058 -32.894
vn -0.978763 0.186044 0.086086
v -8.06338 -11.0872 -32.872
vn -0.983526 0.10779 0.145113
v -8.06162 -11.1168 -32.8505
vn -0.978817 0.0284984 0.202743
v -8.05634 -11.1465 -32.8297
vn -0.964682 -0.0510679 0.25842
v -8.04759 -11.176 -32.8098
vn -0.941256 -0.130142 0.311609
v -8.03546 -11.2051 -32.7911
vn -0.908766 -0.207963 0.361796
v -8.02006 -11.2334 -32.7736
vn -0.867523 -0.283782 0.408499
v -8.00154 -11.2607 -32.7577
vn -0.817926 -0.356867 0.451268
v -7.98007 -11.2867 -32.7433
vn -0.760452 -0.426516 0.489692
v -7.95588 -11.3112 -32.7307
vn -0.695654 -0.492057 0.523399
v -7.92917 -11.3339 -32.72
vn -0.624156 -0.552859 0.552065
v -7.90023 -11.3546 -32.7113
vn -0.546648 -0.608337 0.575415
v -7.86932 -11.3732 -32.7046
vn -0.463875 -0.657956 0.593223
v -7.83674 -11.3893 -32.7001
vn -0.376635 -0.701238 0.605319
v -7.8028 -11.403 -32.6978
vn -0.285768 -0.737768 0.611584
v -7.76784 -11.4139 -32.6977
vn -0.192148 -0.767192 0.61196
v -7.73219 -11.4222 -32.6997
vn -0.096678 -0.789228 0.606442
v -7.69619 -11.4276 -32.704
vn -0.000276973 -0.803663 0.595084
v -7.66019 -11.4301 -32.7103
vn 0.0961268 -0.810359 0.577995
f 1 66 2 
f 1 65 66 
f 2 67 3 
f 2 66 67 
f 3 68 4 
f 3 67 68 
f 4 69 5 
f 4 68 69 
f 5 70 6 
f 5 69 70 
f 6 71 7 
f 6 70 71 
f 7 72 8 
f 7 71 72 
f 8 73 9 
f 8 72 73 
f 9 74 10 
f 9 73 74 
f 10 75 11 
f 10 74 75 
f 11 76 12 
f 11 75 76 
f 12 77 13 
f 12 76 77 
f 13 78 14 
f 13 77 78 
f 14 79 15 
f 14 78 79 
f 15 80 16 
f 15 79 80 
f 16 81 17 
f 16 80 81 
f 17 82 18 
f 17 81 82 
f 18 83 19 
f 18 82 83 
f 19 84 20 
f 19 83 84 
f 20 85 21 
f 20 84 85 
f 21 86 22 
f 21 85 86 
f 22 87 23 
f 22 86 87 
f 23 88 24 
f 23 87 88 
f 24 89 25 
f 24 88 89 
f 25 90 26 
f 25 89 90 
f 26 91 27 
f 26 90 91 
f 27 92 28 
f 27 91 92 
f 28 93 29 
f 28 92 93 
f 29 94 30 
f 29 93 94 
f 30 95 31 
f 30 94 95 
f 31 96 32 
f 31 95 96 
f 32 97 33 
f 32 96 97 
f 33 98 34 
f 33 97 98 
f 34 99 35 
f 34 98 99 
f 35 100 36 
f 35 99 100 
f 36 101 37 
f 36 100 101 
f 37 102 38 
f 37 101 102 
f 38 103 39 
f 38 102 103 
f 39 104 40 
f 39 103 104 
f 40 105 41 
f 40 104 105 
f 41 106 42 
f 41 105 106 
f 42 107 43 
f 42 106 107 
f 43 108 44 
f 43 107 108 
f 44 109 45 
f 44 108 109 
f 45 110 46 
f 45 109 110 
f 46 111 47 
f 46 110 111 
f 47 112 48 
f 47 111 112 
f 48 113 49 
f 48 112 113 
f 49 114 50 
f 49 113 114 
f 50 115 51 
f 50 114 115 
f 51 116 52 
f 51 115 116 
f 52 117 53 
f 52 116 117 
f 53 118 54 
f 53 117 118 
f 54 119 55 
f 54 118 119 
f 55 120 56 
f 55 119 120 
f 56 121 57 
f 56 120 121 
f 57 122 58 
f 57 121 122 
f 58 123 59 
f 58 122 123 
f 59 124 60 
f 59 123 124 
f 60 125 61 
f 60 124 125 
f 61 126 62 
f 61 125 126 
f 62 127 63 
f 62 126 127 
f 63 128 64 
f 63 127 128 
f 64 65 1 
f 64 128 65 
f 65 130 66 
f 65 129 130 
f 66 131 67 
f 66 130 131 
f 67 132 68 
f 67 131 132 
f 68 133 69 
f 68 132 133 
f 69 134 70 
f 69 133 134 
f 70 135 71 
f 70 134 135 
f 71 136 72 
f 71 135 136 
f 72 137 73 
f 72 136 137 
f 73 138 74 
f 73 137 138 
f 74 139 75 
f 74 138 139 
f 75 140 76 
f 75 139 140 
f 76 141 77 
f 76 140 141 
f 77 142 78 
f 77 141 142 
f 78 143 79 
f 78 142 143 
f 79 144 80 
f 79 143 144 
f 80 145 81 
f 80 144 145 
f 81 146 82 
f 81 145 146 
f 82 147 83 
f 82 146 147 
f 83 148 84 
f 83 147 148 
f 84 149 85 
f 84 148 149 
f 85 150 86 
f 85 149 150 
f 86 151 87 
f 86 150 151 
f 87 152 88 
f 87 151 152 
f 88 153 89 
f 88 152 153 
f 89 154 90 
f 89 153 154 
f 90 155 91 
f 90 154 155 
f 91 156 92 
f 91 155 156 
f 92 157 93 
f 92 156 157 
f 93 158 94 
f 93 157 158 
f 94 159 95 
f 94 158 159 
f 95 160 96 
f 95 159 160 
f 96 161 97 
f 96 160 161 
f 97 162 98 
f 97 161 162 
f 98 163 99 
f 98 162 163 
f 99 164 100 
f 99 163 164 
f 100 165 101 
f 100 164 165 
f 101 166 102 
f 101 165 166 
f 102 167 103 
f 102 166 167 
f 103 168 104 
f 103 167 168 
f 104 169 105 
f 104 168 169 
f 105 170 106 
f 105 169 170 
f 106 171 107 
f 106 170 171 
f 107 172 108 
f 107 171 172 
f 108 173 109 
f 108 172 173 
f 109 174 110 
f 109 173 174 
f 110 175 111 
f 110 174 175 
f 111 176 112 
f 111 175 176 
f 112 177 113 
f 112 176 177 
f 113 178 114 
f 113 177 178 
f 114 179 115 
f 114 178 179 
f 115 180 116 
f 115 179 180 
f 116 181 117 
f 116 180 181 
f 117 182 118 
f 117 181 182 
f 118 183 119 
f 118 182 183 
f 119 184 120 
f 119 183 184 
f 120 185 121 
f 120 184 185 
f 121 186 122 
f 121 185 186 
f 122 187 123 
f 122 186 187 
f 123 188 124 
f 123 187 188 
f 124 189 125 
f 124 188 189 
f 125 190 126 
f 125 189 190 
f 126 191 127 
f 126 190 191 
f 127 192 128 
f 127 191 192 
f 128 129 65 
f 128 192 129 
f 129 194 130 
f 129 193 194 
f 130 195 131 
f 130 194 195 
f 131 196 132 
f 131 195 196 
f 132 197 133 
f 132 196 197 
f 133 198 134 
f 133 197 198 
f 134 199 135 
f 134 198 199 
f 135 200 136 
f 135 199 200 
f 136 201 137 
f 136 200 201 
f 137 202 138 
f 137 201 202 
f 138 203 139 
f 138 202 203 
f 139 204 140 
f 139 203 204 
f 140 205 141 
f 140 204 205 
f 141 206 142 
f 141 205 206 
f 142 207 143 
f 142 206 207 
f 143 208 144 
f 143 207 208 
f 144 209 145 
f 144 208 209 
f 145 210 146 
f 145 209 210 
f 146 211 147 
f 146 210 211 
f 147 212 148 
f 147 211 212 
f 148 213 149 
f 148 212 213 
f 149 214 150 
f 149 213 214 
f 150 215 151 
f 150 214 215 
f 151 216 152 
f 151 215 216 
f 152 217 153 
f 152 216 217 
f 153 218 154 
f 153 217 218 
f 154 219 155 
f 154 218 219 
f 155 220 156 
f 155 219 220 
f 156 221 157 
f 156 220 221 
f 157 222 158 
f 157 221 222 
f 158 223 159 
f 158 222 223 
f 159 224 160 
f 159 223 224 
f 160 225 161 
f 160 224 225 
f 161 226 162 
f 161 225 226 
f 162 227 163 
f 162 226 227 
f 163 228 164 
f 163 227 228 
f 164 229 165 
f 164 228 229 
f 165 230 166 
f 165 229 230 
f 166 231 167 
f 166 230 231 
f 167 232 168 
f 167 231 232 
f 168 233 169 
f 168 232 233 
f 169 234 170 
f 169 233 234 
f 170 235 171 
f 170 234 235 
f 171 236 172 
f 171 235 236 
f 172 237 173 
f 172 236 237 
f 173 238 174 
f 173 237 238 
f 174 239 175 
f 174 238 239 
f 175 240 176 
f 175 239 240 
f 176 241 177 
f 176 240 241 
f 177 242 178 
f 177 241 242 
f 178 243 179 
f 178 242 243 
f 179 244 180 
f 179 243 244 
f 180 245 181 
f 180 244 245 
f 181 246 182 
f 181 245 246 
f 182 247 183 
f 182 246 247 
f 183 248 184 
f 183 247 248 
f 184 249 185 
f 184 248 249 
f 185 250 186 
f 185 249 250 
f 186 251 187 
f 186 250 251 
f 187 252 188 
f 187 251 252 
f 188 253 189 
f 188 252 253 
f 189 254 190 
f 189 253 254 
f 190 255 191 
f 190 254 255 
f 191 256 192 
f 191 255 256 
f 192 193 129 
f 192 256 193 
f 193 258 194 
f 193 257 258 
f 194 259 195 
f 194 258 259 
f 195 260 196 
f 195 259 260 
f 196 261 197 
f 196 260 261 
f 197 262 198 
f 197 261 262 
f 198 263 199 
f 198 262 263 
f 199 264 200 
f 199 263 264 
f 200 265 201 
f 200 264 265 
f 201 266 202 
f 201 265 266 
f 202 267 203 
f 202 266 267 
f 203 268 204 
f 203 267 268 
f 204 269 205 
f 204 268 269 
f 205 270 206 
f 205 269 270 
f 206 271 207 
f 206 270 271 
f 207 272 208 
f 207 271 272 
f 208 273 209 
f 208 272 273 
f 209 274 210 
f 209 273 274 
f 210 275 211 
f 210 274 275 
f 211 276 212 
f 211 275 276 
f 212 277 213 
f 212 276 277 
f 213 278 214 
f 213 277 278 
f 214 279 215 
f 214 278 279 
f 215 280 216 
f 215 279 280 
f 216 281 217 
f 216 280 281 
f 217 282 218 
f 217 281 282 
f 218 283 219 
f 218 282 283 
f 219 284 220 
f 219 283 284 
f 220 285 221 
f 220 284 285 
f 221 286 222 
f 221 285 286 
f 222 287 223 
f 222 286 287 
f 223 288 224 
f 223 287 288 
f 224 289 225 
f 224 288 289 
f 225 290 226 
f 225 289 290 
f 226 291 227 
f 226 290 291 
f 227 292 228 
f 227 291 292 
f 228 293 229 
f 228 292 293 
f 229 294 230 
f 229 293 294 
f 230 295 231 
f 230 294 295 
f 231 296 232 
f 231 295 296 
f 232 297 233 
f 232 296 297 
f 233 298 234 
f 233 297 298 
f 234 299 235 
f 234 298 299 
f 235 300 236 
f 235 299 300 
f 236 301 237 
f 236 300 301 
f 237 302 238 
f 237 301 302 
f 238 303 239 
f 238 302 303 
f 239 304 240 
f 239 303 304 
f 240 305 241 
f 240 304 305 
f 241 306 242 
f 241 305 306 
f 242 307 243 
f 242 306 307 
f 243 308 244 
f 243 307 308 
f 244 309 245 
f 244 308 309 
f 245 310 246 
f 245 309 310 
f 246 311 247 
f 246 310 311 
f 247 312 248 
f 247 311 312 
f 248 313 249 
f 248 312 313 
f 249 314 250 
f 249 313 314 
f 250 315 251 
f 250 314 315 
f 251 316 252 
f 251 315 316 
f 252 317 253 
f 252 316 317 
f 253 318 254 
f 253 317 318 
f 254 319 255 
f 254 318 319 
f 255 320 256 
f 255 319 320 
f 256 257 193 
f 256 320 257 
f 257 322 258 
f 257 321 322 
f 258 323 259 
f 258 322 323 
f 259 324 260 
f 259 323 324 
f 260 325 261 
f 260 324 325 
f 261 326 262 
f 261 325 326 
f 262 327 263 
f 262 326 327 
f 263 328 264 
f 263 327 328 
f 264 329 265 
f 264 328 329 
f 265 330 266 
f 265 329 330 
f 266 331 267 
f 266 330 331 
f 267 332 268 
f 267 331 332 
f 268 333 269 
f 268 332 333 
f 269 334 270 
f 269 333 334 
f 270 335 271 
f 270 334 335 
f 271 336 272 
f 271 335 336 
f 272 337 273 
f 272 336 337 
f 273 338 274 
f 273 337 338 
f 274 339 275 
f 274 338 339 
f 275 340 276 
f 275 339 340 
f 276 341 277 
f 276 340 341 
f 277 342 278 
f 277 341 342 
f 278 343 279 
f 278 342 343 
f 279 344 280 
f 279 343 344 
f 280 345 281 
f 280 344 345 
f 281 346 282 
f 281 345 346 
f 282 347 283 
f 282 346 347 
f 283 348 284 
f 283 347 348 
f 284 349 285 
f 284 348 349 
f 285 350 286 
f 285 349 350 
f 286 351 287 
f 286 350 351 
f 287 352 288 
f 287 351 352 
f 288 353 289 
f 288 352 353 
f 289 354 290 
f 289 353 354 
f 290 355 291 
f 290 354 355 
f 291 356 292 
f 291 355 356 
f 292 357 293 
f 292 356 357 
f 293 358 294 
f 293 357 358 
f 294 359 295 
f 294 358 359 
f 295 360 296 
f 295 359 360 
f 296 361 297 
f 296 360 361 
f 297 362 298 
f 297 361 362 
f 298 363 299 
f 298 362 363 
f 299 364 300 
f 299 363 364 
f 300 365 301 
f 300 364 365 
f 301 366 302 
f 301 365 366 
f 302 367 303 
f 302 366 367 
f 303 368 304 
f 303 367 368 
f 304 369 305 
f 304 368 369 
f 305 370 306 
f 305 369 370 
f 306 371 307 
f 306 370 371 
f 307 372 308 
f 307 371 372 
f 308 373 309 
f 308 372 373 
f 309 374 310 
f 309 373 374 
f 310 375 311 
f 310 374 375 
f 311 376 312 
f 311 375 376 
f 312 377 313 
f 312 376 377 
f 313 378 314 
f 313 377 378 
f 314 379 315 
f 314 378 379 
f 315 380 316 
f 315 379 380 
f 316 381 317 
f 316 380 381 
f 317 382 318 
f 317 381 382 
f 318 383 319 
f 318 382 383 
f 319 384 320 
f 319 383 384 
f 320 321 257 
f 320 384 321 
f 321 386 322 
f 321 385 386 
f 322 387 323 
f 322 386 387 
f 323 388 324 
f 323 387 388 
f 324 389 325 
f 324 388 389 
f 325 390 326 
f 325 389 390 
f 326 391 327 
f 326 390 391 
f 327 392 328 
f 327 391 392 
f 328 393 329 
f 328 392 393 
f 329 394 330 
f 329 393 394 
f 330 395 331 
f 330 394 395 
f 331 396 332 
f 331 395 396 
f 332 397 333 
f 332 396 397 
f 333 398 334 
f 333 397 398 
f 334 399 335 
f 334 398 399 
f 335 400 336 
f 335 399 400 
f 336 401 337 
f 336 400 401 
f 337 402 338 
f 337 401 402 
f 338 403 339 
f 338 402 403 
f 339 404 340 
f 339 403 404 
f 340 405 341 
f 340 404 405 
f 341 406 342 
f 341 405 406 
f 342 407 343 
f 342 406 407 
f 343 408 344 
f 343 407 408 
f 344 409 345 
f 344 408 409 
f 345 410 346 
f 345 409 410 
f 346 411 347 
f 346 410 411 
f 347 412 348 
f 347 411 412 
f 348 413 349 
f 348 412 413 
f 349 414 350 
f 349 413 414 
f 350 415 351 
f 350 414 415 
f 351 416 352 
f 351 415 416 
f 352 417 353 
f 352 416 417 
f 353 418 354 
f 353 417 418 
f 354 419 355 
f 354 418 419 
f 355 420 356 
f 355 419 420 
f 356 421 357 
f 356 420 421 
f 357 422 358 
f 357 421 422 
f 358 423 359 
f 358 422 423 
f 359 424 360 
f 359 423 424 
f 360 425 361 
f 360 424 425 
f 361 426 362 
f 361 425 426 
f 362 427 363 
f 362 426 427 
f 363 428 364 
f 363 427 428 
f 364 429 365 
f 364 428 429 
f 365 430 366 
f 365 429 430 
f 366 431 367 
f 366 430 431 
f 367 432 368 
f 367 431 432 
f 368 433 369 
f 368 432 433 
f 369 434 370 
f 369 433 434 
f 370 435 371 
f 370 434 435 
f 371 436 372 
f 371 435 436 
f 372 437 373 
f 372 436 437 
f 373 438 374 
f 373 437 438 
f 374 439 375 
f 374 438 439 
f 375 440 376 
f 375 439 440 
f 376 441 377 
f 376 440 441 
f 377 442 378 
f 377 441 442 
f 378 443 379 
f 378 442 443 
f 379 444 380 
f 379 443 444 
f 380 445 381 
f 380 444 445 
f 381 446 382 
f 381 445 446 
f 382 447 383 
f 382 446 447 
f 383 448 384 
f 383 447 448 
f 384 385 321 
f 384 448 385 
f 385 450 386 
f 385 449 450 
f 386 451 387 
f 386 450 451 
f 387 452 388 
f 387 451 452 
f 388 453 389 
f 388 452 453 
f 389 454 390 
f 389 453 454 
f 390 455 391 
f 390 454 455 
f 391 456 392 
f 391 455 456 
f 392 457 393 
f 392 456 457 
f 393 458 394 
f 393 457 458 
f 394 459 395 
f 394 458 459 
f 395 460 396 
f 395 459 460 
f 396 461 397 
f 396 460 461 
f 397 462 398 
f 397 461 462 
f 398 463 399 
f 398 462 463 
f 399 464 400 
f 399 463 464 
f 400 465 401 
f 400 464 465 
f 401 466 402 
f 401 465 466 
f 402 467 403 
f 402 466 467 
f 403 468 404 
f 403 467 468 
f 404 469 405 
f 404 468 469 
f 405 470 406 
f 405 469 470 
f 406 471 407 
f 406 470 471 
f 407 472 408 
f 407 471 472 
f 408 473 409 
f 408 472 473 
f 409 474 410 
f 409 473 474 
f 410 475 411 
f 410 474 475 
f 411 476 412 
f 411 475 476 
f 412 477 413 
f 412 476 477 
f 413 478 414 
f 413 477 478 
f 414 479 415 
f 414 478 479 
f 415 480 416 
f 415 479 480 
f 416 481 417 
f 416 480 481 
f 417 482 418 
f 417 481 482 
f 418 483 419 
f 418 482 483 
f 419 484 420 
f 419 483 484 
f 420 485 421 
f 420 484 485 
f 421 486 422 
f 421 485 486 
f 422 487 423 
f 422 486 487 
f 423 488 424 
f 423 487 488 
f 424 489 425 
f 424 488 489 
f 425 490 426 
f 425 489 490 
f 426 491 427 
f 426 490 491 
f 427 492 428 
f 427 491 492 
f 428 493 429 
f 428 492 493 
f 429 494 430 
f 429 493 494 
f 430 495 431 
f 430 494 495 
f 431 496 432 
f 431 495 496 
f 432 497 433 
f 432 496 497 
f 433 498 434 
f 433 497 498 
f 434 499 435 
f 434 498 499 
f 435 500 436 
f 435 499 500 
f 436 501 437 
f 436 500 501 
f 437 502 438 
f 437 501 502 
f 438 503 439 
f 438 502 503 
f 439 504 440 
f 439 503 504 
f 440 505 441 
f 440 504 505 
f 441 506 442 
f 441 505 506 
f 442 507 443 
f 442 506 507 
f 443 508 444 
f 443 507 508 
f 444 509 445 
f 444 508 509 
f 445 510 446 
f 445 509 510 
f 446 511 447 
f 446 510 511 
f 447 512 448 
f 447 511 512 
f 448 449 385 
f 448 512 449 
f 449 514 450 
f 449 513 514 
f 450 515 451 
f 450 514 515 
f 451 516 452 
f 451 515 516 
f 452 517 453 
f 452 516 517 
f 453 518 454 
f 453 517 518 
f 454 519 455 
f 454 518 519 
f 455 520 456 
f 455 519 520 
f 456 521 457 
f 456 520 521 
f 457 522 458 
f 457 521 522 
f 458 523 459 
f 458 522 523 
f 459 524 460 
f 459 523 524 
f 460 525 461 
f 460 524 525 
f 461 526 462 
f 461 525 526 
f 462 527 463 
f 462 526 527 
f 463 528 464 
f 463 527 528 
f 464 529 465 
f 464 528 529 
f 465 530 466 
f 465 529 530 
f 466 531 467 
f 466 530 531 
f 467 532 468 
f 467 531 532 
f 468 533 469 
f 468 532 533 
f 469 534 470 
f 469 533 534 
f 470 535 471 
f 470 534 535 
f 471 536 472 
f 471 535 536 
f 472 537 473 
f 472 536 537 
f 473 538 474 
f 473 537 538 
f 474 539 475 
f 474 538 539 
f 475 540 476 
f 475 539 540 
f 476 541 477 
f 476 540 541 
f 477 542 478 
f 477 541 542 
f 478 543 479 
f 478 542 543 
f 479 544 480 
f 479 543 544 
f 480 545 481 
f 480 544 545 
f 481 546 482 
f 481 545 546 
f 482 547 483 
f 482 546 547 
f 483 548 484 
f 483 547 548 
f 484 549 485 
f 484 548 549 
f 485 550 486 
f 485 549 550 
f 486 551 487 
f 486 550 551 
f 487 552 488 
f 487 551 552 
f 488 553 489 
f 488 552 553 
f 489 554 490 
f 489 553 554 
f 490 555 491 
f 490 554 555 
f 491 556 492 
f 491 555 556 
f 492 557 493 
f 492 556 557 
f 493 558 494 
f 493 557 558 
f 494 559 495 
f 494 558 559 
f 495 560 496 
f 495 559 560 
f 496 561 497 
f 496 560 561 
f 497 562 498 
f 497 561 562 
f 498 563 499 
f 498 562 563 
f 499 564 500 
f 499 563 564 
f 500 565 501 
f 500 564 565 
f 501 566 502 
f 501 565 566 
f 502 567 503 
f 502 566 567 
f 503 568 504 
f 503 567 568 
f 504 569 505 
f 504 568 569 
f 505 570 506 
f 505 569 570 
f 506 571 507 
f 506 570 571 
f 507 572 508 
f 507 571 572 
f 508 573 509 
f 508 572 573 
f 509 574 510 
f 509 573 574 
f 510 575 511 
f 510 574 575 
f 511 576 512 
f 511 575 576 
f 512 513 449 
f 512 576 513 
f 513 578 514 
f 513 577 578 
f 514 579 515 
f 514 578 579 
f 515 580 516 
f 515 579 580 
f 516 581 517 
f 516 580 581 
f 517 582 518 
f 517 581 582 
f 518 583 519 
f 518 582 583 
f 519 584 520 
f 519 583 584 
f 520 585 521 
f 520 584 585 
f 521 586 522 
f 521 585 586 
f 522 587 523 
f 522 586 587 
f 523 588 524 
f 523 587 588 
f 524 589 525 
f 524 588 589 
f 525 590 526 
f 525 589 590 
f 526 591 527 
f 526 590 591 
f 527 592 528 
f 527 591 592 
f 528 593 529 
f 528 592 593 
f 529 594 530 
f 529 593 594 
f 530 595 531 
f 530 594 595 
f 531 596 532 
f 531 595 596 
f 532 597 533 
f 532 596 597 
f 533 598 534 
f 533 597 598 
f 534 599 535 
f 534 598 599 
f 535 600 536 
f 535 599 600 
f 536 601 537 
f 536 600 601 
f 537 602 538 
f 537 601 602 
f 538 603 539 
f 538 602 603 
f 539 604 540 
f 539 603 604 
f 540 605 541 
f 540 604 605 
f 541 606 542 
f 541 605 606 
f 542 607 543 
f 542 606 607 
f 543 608 544 
f 543 607 608 
f 544 609 545 
f 544 608 609 
f 545 610 546 
f 545 609 610 
f 546 611 547 
f 546 610 611 
f 547 612 548 
f 547 611 612 
f 548 613 549 
f 548 612 613 
f 549 614 550 
f 549 613 614 
f 550 615 551 
f 550 614 615 
f 551 616 552 
f 551 615 616 
f 552 617 553 
f 552 616 617 
f 553 618 554 
f 553 617 618 
f 554 619 555 
f 554 618 619 
f 555 620 556 
f 555 619 620 
f 556 621 557 
f 556 620 621 
f 557 622 558 
f 557 621 622 
f 558 623 559 
f 558 622 623 
f 559 624 560 
f 559 623 624 
f 560 625 561 
f 560 624 625 
f 561 626 562 
f 561 625 626 
f 562 627 563 
f 562 626 627 
f 563 628 564 
f 563 627 628 
f 564 629 565 
f 564 628 629 
f 565 630 566 
f 565 629 630 
f 566 631 567 
f 566 630 631 
f 567 632 568 
f 567 631 632 
f 568 633 569 
f 568 632 633 
f 569 634 570 
f 569 633 634 
f 570 635 571 
f 570 634 635 
f 571 636 572 
f 571 635 636 
f 572 637 573 
f 572 636 637 
f 573 638 574 
f 573 637 638 
f 574 639 575 
f 574 638 639 
f 575 640 576 
f 575 639 640 
f 576 577 513 
f 576 640 577 
