# Branch
v 7.58144 9.36769 -26.6081
vn -0.284534 0.100427 0.953391
v 7.63828 9.35125 -26.5926
vn -0.193359 0.0740497 0.97833
v 7.69627 9.33436 -26.5829
vn -0.100321 0.0469597 0.993846
v 7.75487 9.31719 -26.5792
vn -0.00631809 0.0194175 0.999792
v 7.8135 9.29991 -26.5815
vn 0.0877461 -0.00831177 0.996108
v 7.87161 9.28267 -26.5898
vn 0.180965 -0.035961 0.982832
v 7.92863 9.26565 -26.604
vn 0.272442 -0.0632638 0.96009
v 7.98402 9.24901 -26.6239
vn 0.361294 -0.0899574 0.928102
v 8.03723 9.23291 -26.6494
vn 0.446667 -0.115785 0.887177
v 8.08777 9.21751 -26.6803
vn 0.527739 -0.140497 0.837707
v 8.13514 9.20295 -26.7161
vn 0.603728 -0.163856 0.780169
v 8.17888 9.18937 -26.7567
vn 0.673903 -0.185637 0.715118
v 8.21858 9.17691 -26.8015
vn 0.737587 -0.20563 0.64318
v 8.25385 9.16568 -26.8502
vn 0.794169 -0.223643 0.565048
v 8.28435 9.1558 -26.9023
vn 0.843102 -0.239503 0.481474
v 8.30979 9.14735 -26.9573
vn 0.883916 -0.253055 0.393264
v 8.32992 9.14042 -27.0146
vn 0.916217 -0.264171 0.301266
v 8.34456 9.13508 -27.0738
vn 0.939694 -0.272742 0.206366
v 8.35355 9.13137 -27.1342
vn 0.954121 -0.278687 0.10948
v 8.35682 9.12934 -27.1952
vn 0.95936 -0.281948 0.0115385
v 8.35432 9.129 -27.2564
vn 0.95536 -0.282494 -0.0865138
v 8.3461 9.13035 -27.317
vn 0.942159 -0.280319 -0.183733
v 8.33221 9.13339 -27.3765
vn 0.919885 -0.275444 -0.279183
v 8.3128 9.13808 -27.4343
vn 0.888751 -0.267917 -0.371944
v 8.28806 9.14438 -27.4899
vn 0.849059 -0.257809 -0.461122
v 8.25822 9.15223 -27.5427
vn 0.801189 -0.245219 -0.545861
v 8.22357 9.16155 -27.5922
vn 0.745604 -0.230267 -0.625342
v 8.18445 9.17226 -27.638
vn 0.682838 -0.213098 -0.6988
v 8.14122 9.18424 -27.6796
vn 0.613496 -0.193876 -0.765529
v 8.09432 9.19738 -27.7166
vn 0.538245 -0.172787 -0.824886
v 8.04418 9.21157 -27.7487
vn 0.457811 -0.150034 -0.876298
v 7.99129 9.22665 -27.7755
vn 0.372968 -0.125836 -0.919271
v 7.93617 9.24249 -27.7967
vn 0.284534 -0.100427 -0.953391
v 7.87933 9.25893 -27.8123
vn 0.193359 -0.0740497 -0.97833
v 7.82134 9.27582 -27.8219
vn 0.100321 -0.0469597 -0.993846
v 7.76274 9.29298 -27.8256
vn 0.00631809 -0.0194175 -0.999792
v 7.70411 9.31027 -27.8234
vn -0.0877461 0.00831177 -0.996108
v 7.646 9.3275 -27.8151
vn -0.180965 0.035961 -0.982832
v 7.58898 9.34452 -27.8009
vn -0.272442 0.0632638 -0.96009
v 7.53359 9.36116 -27.781
vn -0.361294 0.0899574 -0.928102
v 7.48038 9.37726 -27.7554
vn -0.446667 0.115785 -0.887177
v 7.42984 9.39267 -27.7246
vn -0.527739 0.140497 -0.837707
v 7.38248 9.40723 -27.6887
vn -0.603728 0.163856 -0.780169
v 7.33873 9.4208 -27.6482
vn -0.673903 0.185637 -0.715118
v 7.29903 9.43327 -27.6034
vn -0.737587 0.20563 -0.64318
v 7.26376 9.4445 -27.5547
vn -0.794169 0.223643 -0.565048
v 7.23326 9.45438 -27.5026
vn -0.843102 0.239503 -0.481474
v 7.20782 9.46283 -27.4476
vn -0.883916 0.253055 -0.393264
v 7.18769 9.46976 -27.3902
vn -0.916217 0.264171 -0.301266
v 7.17305 9.4751 -27.3311
vn -0.939694 0.272742 -0.206366
v 7.16406 9.47881 -27.2707
vn -0.954121 0.278687 -0.10948
v 7.16079 9.48084 -27.2096
vn -0.95936 0.281948 -0.0115385
v 7.16329 9.48118 -27.1485
vn -0.95536 0.282494 0.0865138
v 7.17152 9.47982 -27.0879
vn -0.942159 0.280319 0.183733
v 7.1854 9.47678 -27.0284
vn -0.919885 0.275444 0.279183
v 7.20481 9.47209 -26.9706
vn -0.888751 0.267917 0.371944
v 7.22955 9.46579 -26.915
vn -0.849059 0.257809 0.461122
v 7.25939 9.45794 -26.8622
vn -0.801189 0.245219 0.545861
v 7.29404 9.44862 -26.8126
vn -0.745604 0.230267 0.625342
v 7.33316 9.43792 -26.7668
vn -0.682838 0.213098 0.6988
v 7.37639 9.42594 -26.7252
vn -0.613496 0.193876 0.765529
v 7.42329 9.41279 -26.6882
vn -0.538245 0.172787 0.824886
v 7.47343 9.39861 -26.6562
vn -0.457811 0.150034 0.876298
v 7.52632 9.38353 -26.6294
vn -0.372968 0.125836 0.919271
v 7.0025 7.3347 -26.6301
vn -0.303669 0.0327202 0.952216
v 7.06078 7.31806 -26.6142
vn -0.212402 0.0066694 0.97716
v 7.12037 7.30138 -26.6043
vn -0.119089 -0.0194457 0.992693
v 7.1807 7.28483 -26.6004
vn -0.0246292 -0.0453734 0.998666
v 7.24117 7.26855 -26.6028
vn 0.0700676 -0.0708643 0.995022
v 7.30121 7.2527 -26.6112
vn 0.16409 -0.0956726 0.981795
v 7.36025 7.23745 -26.6257
vn 0.256531 -0.11956 0.959113
v 7.41771 7.22293 -26.6461
vn 0.346503 -0.142295 0.927194
v 7.47303 7.20929 -26.6722
vn 0.433137 -0.16366 0.886345
v 7.52569 7.19665 -26.7037
vn 0.5156 -0.183449 0.836961
v 7.57519 7.18514 -26.7404
vn 0.593097 -0.201472 0.779516
v 7.62103 7.17487 -26.7819
vn 0.664882 -0.217554 0.714564
v 7.66278 7.16594 -26.8277
vn 0.730265 -0.231541 0.64273
v 7.70005 7.15843 -26.8776
vn 0.788614 -0.243298 0.564707
v 7.73246 7.15242 -26.9309
vn 0.839369 -0.252712 0.481245
v 7.75971 7.14796 -26.9871
vn 0.88204 -0.259692 0.393149
v 7.78153 7.1451 -27.0458
vn 0.916217 -0.264171 0.301266
v 7.79773 7.14386 -27.1063
vn 0.941569 -0.266106 0.206482
v 7.80813 7.14426 -27.1681
vn 0.957854 -0.265478 0.109709
v 7.81263 7.1463 -27.2306
vn 0.964915 -0.262294 0.0118797
v 7.81121 7.14994 -27.2932
vn 0.962683 -0.256584 -0.0860639
v 7.80386 7.15517 -27.3552
vn 0.951179 -0.248402 -0.183179
v 7.79067 7.16192 -27.4161
vn 0.930515 -0.237828 -0.278529
v 7.77175 7.17014 -27.4753
vn 0.90089 -0.224964 -0.371198
v 7.74729 7.17973 -27.5322
vn 0.862589 -0.209934 -0.460291
v 7.71752 7.19062 -27.5862
vn 0.815981 -0.192881 -0.544952
v 7.68274 7.2027 -27.6369
vn 0.761514 -0.173971 -0.624364
v 7.64327 7.21585 -27.6838
vn 0.699713 -0.153386 -0.697764
v 7.5995 7.22994 -27.7264
vn 0.631174 -0.131323 -0.764443
v 7.55185 7.24483 -27.7643
vn 0.556556 -0.107996 -0.823761
v 7.50077 7.26039 -27.7971
vn 0.476579 -0.0836287 -0.875145
v 7.44677 7.27647 -27.8245
vn 0.392011 -0.058456 -0.918101
v 7.39035 7.29291 -27.8463
vn 0.303669 -0.0327202 -0.952216
v 7.33207 7.30954 -27.8622
vn 0.212402 -0.0066694 -0.97716
v 7.27248 7.32622 -27.8722
vn 0.119089 0.0194457 -0.992693
v 7.21215 7.34278 -27.876
vn 0.0246292 0.0453734 -0.998666
v 7.15168 7.35906 -27.8736
vn -0.0700676 0.0708643 -0.995022
v 7.09163 7.3749 -27.8652
vn -0.16409 0.0956726 -0.981795
v 7.0326 7.39015 -27.8507
vn -0.256531 0.11956 -0.959113
v 6.97514 7.40467 -27.8303
vn -0.346503 0.142295 -0.927194
v 6.91982 7.41832 -27.8042
vn -0.433137 0.16366 -0.886345
v 6.86715 7.43096 -27.7727
vn -0.5156 0.183449 -0.836961
v 6.81766 7.44246 -27.736
vn -0.593097 0.201472 -0.779516
v 6.77182 7.45273 -27.6945
vn -0.664882 0.217554 -0.714564
v 6.73006 7.46167 -27.6487
vn -0.730265 0.231541 -0.64273
v 6.6928 7.46918 -27.5988
vn -0.788614 0.243298 -0.564707
v 6.66039 7.47519 -27.5455
vn -0.839369 0.252712 -0.481245
v 6.63314 7.47964 -27.4893
vn -0.88204 0.259692 -0.393149
v 6.61131 7.48251 -27.4306
vn -0.916217 0.264171 -0.301266
v 6.59512 7.48374 -27.3701
vn -0.941569 0.266106 -0.206482
v 6.58472 7.48334 -27.3083
vn -0.957854 0.265478 -0.109709
v 6.58021 7.48131 -27.2458
vn -0.964915 0.262294 -0.0118797
v 6.58164 7.47766 -27.1832
vn -0.962683 0.256584 0.0860639
v 6.58899 7.47244 -27.1212
vn -0.951179 0.248402 0.183179
v 6.60218 7.46568 -27.0603
vn -0.930515 0.237828 0.278529
v 6.6211 7.45747 -27.0011
vn -0.90089 0.224964 0.371198
v 6.64556 7.44787 -26.9443
vn -0.862589 0.209934 0.460291
v 6.67533 7.43698 -26.8902
vn -0.815981 0.192881 0.544952
v 6.71011 7.4249 -26.8395
vn -0.761514 0.173971 0.624364
v 6.74958 7.41176 -26.7926
vn -0.699713 0.153386 0.697764
v 6.79335 7.39767 -26.75
vn -0.631174 0.131323 0.764443
v 6.841 7.38277 -26.7121
vn -0.556556 0.107996 0.823761
v 6.89207 7.36721 -26.6793
vn -0.476579 0.0836287 0.875145
v 6.94608 7.35113 -26.6519
vn -0.392011 0.058456 0.918101
v 6.44825 5.22445 -26.7949
vn -0.320123 -0.0304229 0.946888
v 6.50798 5.20762 -26.7786
vn -0.228776 -0.0561696 0.971857
v 6.56915 5.19114 -26.7684
vn -0.135227 -0.0813755 0.987467
v 6.63118 5.17517 -26.7644
vn -0.0403746 -0.105798 0.993568
v 6.69345 5.15986 -26.7667
vn 0.0548661 -0.129201 0.990099
v 6.75538 5.14538 -26.7752
vn 0.149579 -0.15136 0.977096
v 6.81637 5.13184 -26.7898
vn 0.24285 -0.172061 0.954682
v 6.87583 5.11939 -26.8105
vn 0.333783 -0.191105 0.923075
v 6.93319 5.10814 -26.837
vn 0.421502 -0.208309 0.882578
v 6.98789 5.0982 -26.869
vn 0.505161 -0.223507 0.833581
v 7.03942 5.08967 -26.9063
vn 0.583956 -0.236552 0.776556
v 7.08726 5.08263 -26.9485
vn 0.657126 -0.247319 0.712052
v 7.13097 5.07715 -26.9951
vn 0.723968 -0.255704 0.640691
v 7.17012 5.07327 -27.0458
vn 0.783838 -0.261627 0.56316
v 7.20433 5.07105 -27.1001
vn 0.836159 -0.26503 0.480206
v 7.23328 5.07049 -27.1574
vn 0.880427 -0.265881 0.392626
v 7.25668 5.07161 -27.2171
vn 0.916217 -0.264171 0.301266
v 7.27431 5.07439 -27.2787
vn 0.943182 -0.259917 0.207004
v 7.286 5.07881 -27.3417
vn 0.961064 -0.25316 0.110748
v 7.29165 5.08482 -27.4053
vn 0.969691 -0.243964 0.0134264
v 7.29118 5.09237 -27.469
vn 0.968979 -0.23242 -0.0840249
v 7.28461 5.10138 -27.5322
vn 0.958936 -0.218637 -0.180667
v 7.27201 5.11177 -27.5943
vn 0.939657 -0.202748 -0.275569
v 7.25348 5.12344 -27.6546
vn 0.911329 -0.184907 -0.367817
v 7.22922 5.13627 -27.7126
vn 0.874224 -0.165285 -0.456524
v 7.19945 5.15014 -27.7677
vn 0.8287 -0.144071 -0.540833
v 7.16447 5.16492 -27.8195
vn 0.775195 -0.12147 -0.619934
v 7.1246 5.18046 -27.8673
vn 0.714224 -0.0976987 -0.693065
v 7.08023 5.19662 -27.9107
vn 0.646376 -0.0729868 -0.759521
v 7.0318 5.21324 -27.9494
vn 0.572302 -0.0475719 -0.818662
v 6.97976 5.23016 -27.9829
vn 0.492717 -0.0216989 -0.869919
v 6.92461 5.24721 -28.011
vn 0.408386 0.00438309 -0.912799
v 6.8669 5.26424 -28.0332
vn 0.320123 0.0304229 -0.946888
v 6.80717 5.28108 -28.0496
vn 0.228776 0.0561696 -0.971857
v 6.746 5.29756 -28.0598
vn 0.135227 0.0813755 -0.987467
v 6.68398 5.31353 -28.0638
vn 0.0403746 0.105798 -0.993568
v 6.6217 5.32883 -28.0615
vn -0.0548661 0.129201 -0.990099
v 6.55977 5.34332 -28.053
vn -0.149579 0.15136 -0.977096
v 6.49878 5.35686 -28.0383
vn -0.24285 0.172061 -0.954682
v 6.43932 5.36931 -28.0177
vn -0.333783 0.191105 -0.923075
v 6.38196 5.38056 -27.9912
vn -0.421502 0.208309 -0.882578
v 6.32726 5.3905 -27.9592
vn -0.505161 0.223507 -0.833581
v 6.27573 5.39903 -27.9219
vn -0.583956 0.236552 -0.776556
v 6.22789 5.40607 -27.8797
vn -0.657126 0.247319 -0.712052
v 6.18418 5.41155 -27.833
vn -0.723968 0.255704 -0.640691
v 6.14503 5.41542 -27.7823
vn -0.783838 0.261627 -0.56316
v 6.11082 5.41765 -27.7281
vn -0.836159 0.26503 -0.480206
v 6.08187 5.4182 -27.6708
vn -0.880427 0.265881 -0.392626
v 6.05847 5.41709 -27.6111
vn -0.916217 0.264171 -0.301266
v 6.04084 5.4143 -27.5494
vn -0.943182 0.259917 -0.207004
v 6.02915 5.40989 -27.4865
vn -0.961064 0.25316 -0.110748
v 6.02351 5.40387 -27.4229
vn -0.969691 0.243964 -0.0134264
v 6.02397 5.39632 -27.3591
vn -0.968979 0.23242 0.0840249
v 6.03054 5.38731 -27.296
vn -0.958936 0.218637 0.180667
v 6.04315 5.37692 -27.2339
vn -0.939657 0.202748 0.275569
v 6.06167 5.36526 -27.1736
vn -0.911329 0.184907 0.367817
v 6.08593 5.35243 -27.1156
vn -0.874224 0.165285 0.456524
v 6.1157 5.33855 -27.0604
vn -0.8287 0.144071 0.540833
v 6.15068 5.32378 -27.0087
vn -0.775195 0.12147 0.619934
v 6.19055 5.30823 -26.9609
vn -0.714224 0.0976987 0.693065
v 6.23492 5.29207 -26.9174
vn -0.646376 0.0729868 0.759521
v 6.28335 5.27545 -26.8788
vn -0.572302 0.0475719 0.818662
v 6.33539 5.25854 -26.8453
vn -0.492717 0.0216989 0.869919
v 6.39054 5.24148 -26.8172
vn -0.408386 -0.00438309 0.912799
v 5.91868 3.03736 -27.1022
vn -0.334122 -0.0887206 0.938345
v 5.97985 3.02032 -27.0854
vn -0.242709 -0.114187 0.963356
v 6.04258 3.00401 -27.0749
vn -0.148957 -0.138553 0.979089
v 6.10628 2.9886 -27.0707
vn -0.0537717 -0.161585 0.985393
v 6.17032 2.97423 -27.0728
vn 0.041932 -0.183061 0.982207
v 6.23409 2.96104 -27.0813
vn 0.137232 -0.202774 0.969562
v 6.29698 2.94915 -27.096
vn 0.23121 -0.220534 0.947579
v 6.35837 2.93869 -27.1168
vn 0.322961 -0.23617 0.916471
v 6.41769 2.92975 -27.1435
vn 0.411603 -0.249532 0.876537
v 6.47435 2.92242 -27.1759
vn 0.49628 -0.260491 0.828161
v 6.52782 2.91676 -27.2136
vn 0.576178 -0.268941 0.77181
v 6.57757 2.91284 -27.2563
vn 0.650527 -0.274801 0.708025
v 6.62313 2.91069 -27.3035
vn 0.718611 -0.278014 0.637422
v 6.66405 2.91033 -27.3549
vn 0.779774 -0.27855 0.56068
v 6.69996 2.91177 -27.4099
vn 0.833428 -0.276403 0.478539
v 6.73049 2.91499 -27.4679
vn 0.879055 -0.271595 0.391789
v 6.75536 2.91995 -27.5285
vn 0.916217 -0.264171 0.301266
v 6.77432 2.92662 -27.591
vn 0.944554 -0.254203 0.207841
v 6.78719 2.93493 -27.6549
vn 0.963796 -0.241786 0.112415
v 6.79386 2.9448 -27.7194
vn 0.973755 -0.227042 0.0159063
v 6.79425 2.95613 -27.7841
vn 0.974337 -0.21011 -0.0807557
v 6.78836 2.96881 -27.8483
vn 0.965535 -0.191155 -0.17664
v 6.77625 2.98273 -27.9113
vn 0.947435 -0.17036 -0.270823
v 6.75803 2.99774 -27.9726
vn 0.92021 -0.147923 -0.362398
v 6.73388 3.01371 -28.0315
vn 0.884123 -0.124062 -0.450483
v 6.70404 3.03048 -28.0876
vn 0.839522 -0.0990063 -0.534229
v 6.66878 3.04788 -28.1402
vn 0.786835 -0.072997 -0.612831
v 6.62845 3.06575 -28.1888
vn 0.726571 -0.0462847 -0.68553
v 6.58344 3.08393 -28.233
vn 0.65931 -0.0191267 -0.751628
v 6.53419 3.10222 -28.2724
vn 0.585699 0.00821555 -0.810487
v 6.48116 3.12047 -28.3066
vn 0.506447 0.0354787 -0.861541
v 6.42486 3.13848 -28.3352
vn 0.422319 0.0624001 -0.904297
v 6.36584 3.15609 -28.358
vn 0.334122 0.0887206 -0.938345
v 6.30467 3.17314 -28.3747
vn 0.242709 0.114187 -0.963356
v 6.24194 3.18944 -28.3853
vn 0.148957 0.138553 -0.979089
v 6.17824 3.20485 -28.3895
vn 0.0537717 0.161585 -0.985393
v 6.1142 3.21922 -28.3873
vn -0.041932 0.183061 -0.982207
v 6.05043 3.23241 -28.3789
vn -0.137232 0.202774 -0.969562
v 5.98754 3.2443 -28.3642
vn -0.23121 0.220534 -0.947579
v 5.92615 3.25476 -28.3433
vn -0.322961 0.23617 -0.916471
v 5.86683 3.2637 -28.3166
vn -0.411603 0.249532 -0.876537
v 5.81017 3.27104 -28.2843
vn -0.49628 0.260491 -0.828161
v 5.75671 3.27669 -28.2465
vn -0.576178 0.268941 -0.77181
v 5.70695 3.28061 -28.2039
vn -0.650527 0.274801 -0.708025
v 5.6614 3.28276 -28.1566
vn -0.718611 0.278014 -0.637422
v 5.62047 3.28312 -28.1053
vn -0.779774 0.27855 -0.56068
v 5.58456 3.28168 -28.0503
vn -0.833428 0.276403 -0.478539
v 5.55403 3.27847 -27.9923
vn -0.879055 0.271595 -0.391789
v 5.52917 3.2735 -27.9317
vn -0.916217 0.264171 -0.301266
v 5.5102 3.26683 -27.8692
vn -0.944554 0.254203 -0.207841
v 5.49733 3.25852 -27.8053
vn -0.963796 0.241786 -0.112415
v 5.49066 3.24865 -27.7407
vn -0.973755 0.227042 -0.0159063
v 5.49027 3.23732 -27.676
vn -0.974337 0.21011 0.0807557
v 5.49616 3.22464 -27.6119
vn -0.965535 0.191155 0.17664
v 5.50828 3.21072 -27.5489
vn -0.947435 0.17036 0.270823
v 5.52649 3.19571 -27.4876
vn -0.92021 0.147923 0.362398
v 5.55064 3.17974 -27.4286
vn -0.884123 0.124062 0.450483
v 5.58049 3.16298 -27.3726
vn -0.839522 0.0990063 0.534229
v 5.61574 3.14557 -27.32
vn -0.786835 0.072997 0.612831
v 5.65607 3.1277 -27.2714
vn -0.726571 0.0462847 0.68553
v 5.70108 3.10953 -27.2271
vn -0.65931 0.0191267 0.751628
v 5.75033 3.09123 -27.1877
vn -0.585699 -0.00821555 0.810487
v 5.80337 3.07299 -27.1536
vn -0.506447 -0.0354787 0.861541
v 5.85966 3.05497 -27.125
vn -0.422319 -0.0624001 0.904297
v 5.41371 0.773653 -27.5514
vn -0.345936 -0.14214 0.927429
v 5.47632 0.756399 -27.5343
vn -0.254465 -0.167349 0.952492
v 5.5406 0.740248 -27.5234
vn -0.160544 -0.190946 0.968383
v 5.60594 0.725356 -27.5189
vn -0.0650762 -0.212705 0.974947
v 5.67171 0.711866 -27.5208
vn 0.031018 -0.232414 0.972122
v 5.73728 0.699908 -27.5292
vn 0.126813 -0.249886 0.959935
v 5.802 0.689597 -27.5439
vn 0.221388 -0.264951 0.938503
v 5.86528 0.681033 -27.5647
vn 0.31383 -0.277464 0.908033
v 5.92648 0.674297 -27.5915
vn 0.403249 -0.287305 0.868818
v 5.98502 0.669455 -27.6241
vn 0.488786 -0.29438 0.821236
v 6.04034 0.666554 -27.6621
vn 0.569615 -0.298619 0.765745
v 6.09191 0.665621 -27.7051
vn 0.644958 -0.299982 0.70288
v 6.13923 0.666665 -27.7528
vn 0.71409 -0.298457 0.633245
v 6.18184 0.669676 -27.8046
vn 0.776345 -0.294057 0.557512
v 6.21933 0.674626 -27.8601
vn 0.831123 -0.286825 0.476409
v 6.25134 0.681466 -27.9188
vn 0.877897 -0.276831 0.390719
v 6.27757 0.690131 -27.98
vn 0.916217 -0.264171 0.301266
v 6.29776 0.700538 -28.0432
vn 0.945712 -0.248967 0.208911
v 6.31171 0.712585 -28.1078
vn 0.9661 -0.231365 0.114545
v 6.3193 0.726157 -28.1731
vn 0.977184 -0.211535 0.0190749
v 6.32044 0.741124 -28.2386
vn 0.978858 -0.189667 -0.0765785
v 6.31513 0.757341 -28.3036
vn 0.971104 -0.165973 -0.171494
v 6.30343 0.774652 -28.3674
vn 0.953998 -0.140681 -0.264759
v 6.28543 0.79289 -28.4295
vn 0.927704 -0.114034 -0.355473
v 6.26132 0.81188 -28.4892
vn 0.892476 -0.0862886 -0.442764
v 6.23133 0.831438 -28.5461
vn 0.848653 -0.0577122 -0.525791
v 6.19574 0.851377 -28.5994
vn 0.796658 -0.02858 -0.603755
v 6.1549 0.871504 -28.6488
vn 0.736989 0.00082736 -0.675904
v 6.1092 0.891626 -28.6937
vn 0.670224 0.0302268 -0.741543
v 6.05909 0.911549 -28.7338
vn 0.597003 0.0593351 -0.800041
v 6.00504 0.931081 -28.7685
vn 0.518034 0.087872 -0.850835
v 5.94757 0.950033 -28.7977
vn 0.434075 0.115563 -0.893434
v 5.88725 0.968224 -28.821
vn 0.345936 0.14214 -0.927429
v 5.82464 0.985477 -28.8381
vn 0.254465 0.167349 -0.952492
v 5.76036 1.00163 -28.849
vn 0.160544 0.190946 -0.968383
v 5.69502 1.01652 -28.8535
vn 0.0650762 0.212705 -0.974947
v 5.62925 1.03001 -28.8515
vn -0.031018 0.232414 -0.972122
v 5.56369 1.04197 -28.8432
vn -0.126813 0.249886 -0.959935
v 5.49896 1.05228 -28.8285
vn -0.221388 0.264951 -0.938503
v 5.43569 1.06084 -28.8077
vn -0.31383 0.277464 -0.908033
v 5.37448 1.06758 -28.7808
vn -0.403249 0.287305 -0.868818
v 5.31594 1.07242 -28.7483
vn -0.488786 0.29438 -0.821236
v 5.26062 1.07532 -28.7103
vn -0.569615 0.298619 -0.765745
v 5.20905 1.07626 -28.6673
vn -0.644958 0.299982 -0.70288
v 5.16173 1.07521 -28.6196
vn -0.71409 0.298457 -0.633245
v 5.11913 1.0722 -28.5678
vn -0.776345 0.294057 -0.557512
v 5.08163 1.06725 -28.5123
vn -0.831123 0.286825 -0.476409
v 5.04962 1.06041 -28.4536
vn -0.877897 0.276831 -0.390719
v 5.02339 1.05175 -28.3924
vn -0.916217 0.264171 -0.301266
v 5.0032 1.04134 -28.3292
vn -0.945712 0.248967 -0.208911
v 4.98925 1.02929 -28.2646
vn -0.9661 0.231365 -0.114545
v 4.98166 1.01572 -28.1993
vn -0.977184 0.211535 -0.0190749
v 4.98052 1.00075 -28.1338
vn -0.978858 0.189667 0.0765785
v 4.98583 0.984536 -28.0688
vn -0.971104 0.165973 0.171494
v 4.99753 0.967225 -28.005
vn -0.953998 0.140681 0.264759
v 5.01553 0.948987 -27.9429
vn -0.927704 0.114034 0.355473
v 5.03964 0.929997 -27.8832
vn -0.892476 0.0862886 0.442764
v 5.06964 0.910438 -27.8263
vn -0.848653 0.0577122 0.525791
v 5.10522 0.890499 -27.773
vn -0.796658 0.02858 0.603755
v 5.14606 0.870372 -27.7236
vn -0.736989 -0.00082736 0.675904
v 5.19176 0.85025 -27.6787
vn -0.670224 -0.0302268 0.741543
v 5.24187 0.830327 -27.6386
vn -0.597003 -0.0593351 0.800041
v 5.29592 0.810796 -27.6039
vn -0.518034 -0.087872 0.850835
v 5.35339 0.791843 -27.5747
vn -0.434075 -0.115563 0.893434
v 4.93325 -1.56654 -28.1423
vn -0.35584 -0.190828 0.914857
v 4.99729 -1.58402 -28.1247
vn -0.264321 -0.215803 0.93998
v 5.0631 -1.60004 -28.1135
vn -0.170257 -0.238699 0.956052
v 5.13007 -1.61445 -28.1087
vn -0.0745538 -0.259296 0.962916
v 5.19753 -1.62711 -28.1104
vn 0.0218678 -0.277396 0.960507
v 5.26485 -1.63791 -28.1185
vn 0.118079 -0.292825 0.948847
v 5.33138 -1.64673 -28.1331
vn 0.213153 -0.305434 0.92805
v 5.39646 -1.65349 -28.1539
vn 0.306174 -0.315101 0.898315
v 5.45949 -1.65814 -28.1807
vn 0.396246 -0.321733 0.859928
v 5.51984 -1.66061 -28.2134
vn 0.482503 -0.325267 0.81326
v 5.57694 -1.66089 -28.2515
vn 0.564112 -0.325669 0.75876
v 5.63025 -1.65898 -28.2948
vn 0.640289 -0.322934 0.696953
v 5.67923 -1.65489 -28.3427
vn 0.7103 -0.317089 0.628434
v 5.72343 -1.64866 -28.3949
vn 0.77347 -0.30819 0.553862
v 5.76242 -1.64036 -28.4508
vn 0.829191 -0.296324 0.473957
v 5.79582 -1.63006 -28.5099
vn 0.876926 -0.281603 0.389487
v 5.82331 -1.61786 -28.5716
vn 0.916217 -0.264171 0.301266
v 5.84463 -1.60388 -28.6354
vn 0.946683 -0.244194 0.210143
v 5.85957 -1.58826 -28.7006
vn 0.968033 -0.221866 0.116997
v 5.86798 -1.57114 -28.7665
vn 0.980059 -0.197401 0.0227245
v 5.86979 -1.55269 -28.8326
vn 0.982648 -0.171035 -0.0717672
v 5.86498 -1.53309 -28.8983
vn 0.975773 -0.143022 -0.165568
v 5.8536 -1.51253 -28.9628
vn 0.9595 -0.113631 -0.257774
v 5.83575 -1.4912 -29.0256
vn 0.933987 -0.0831465 -0.347497
v 5.8116 -1.4693 -29.086
vn 0.89948 -0.0518609 -0.433874
v 5.7814 -1.44706 -29.1435
vn 0.856309 -0.0200758 -0.516073
v 5.74542 -1.42469 -29.1976
vn 0.804893 0.0119026 -0.593301
v 5.70402 -1.40239 -29.2476
vn 0.745724 0.0437664 -0.664816
v 5.65759 -1.38039 -29.2932
vn 0.679374 0.0752087 -0.729928
v 5.60659 -1.3589 -29.3338
vn 0.606481 0.105927 -0.78801
v 5.5515 -1.33812 -29.3691
vn 0.527747 0.135625 -0.838504
v 5.49285 -1.31825 -29.3988
vn 0.443931 0.164016 -0.880922
v 5.43122 -1.29949 -29.4225
vn 0.35584 0.190828 -0.914857
v 5.36718 -1.28202 -29.4401
vn 0.264321 0.215803 -0.93998
v 5.30136 -1.266 -29.4514
vn 0.170257 0.238699 -0.956052
v 5.2344 -1.25159 -29.4562
vn 0.0745538 0.259296 -0.962916
v 5.16693 -1.23892 -29.4545
vn -0.0218678 0.277396 -0.960507
v 5.09961 -1.22813 -29.4463
vn -0.118079 0.292825 -0.948847
v 5.03309 -1.2193 -29.4318
vn -0.213153 0.305434 -0.92805
v 4.968 -1.21254 -29.411
vn -0.306174 0.315101 -0.898315
v 4.90498 -1.2079 -29.3841
vn -0.396246 0.321733 -0.859928
v 4.84462 -1.20543 -29.3515
vn -0.482503 0.325267 -0.81326
v 4.78752 -1.20515 -29.3133
vn -0.564112 0.325669 -0.75876
v 4.73422 -1.20706 -29.2701
vn -0.640289 0.322934 -0.696953
v 4.68523 -1.21115 -29.2221
vn -0.7103 0.317089 -0.628434
v 4.64103 -1.21738 -29.17
vn -0.77347 0.30819 -0.553862
v 4.60205 -1.22568 -29.114
vn -0.829191 0.296324 -0.473957
v 4.56864 -1.23598 -29.0549
vn -0.876926 0.281603 -0.389487
v 4.54115 -1.24818 -28.9932
vn -0.916217 0.264171 -0.301266
v 4.51984 -1.26215 -28.9295
vn -0.946683 0.244194 -0.210143
v 4.5049 -1.27778 -28.8643
vn -0.968033 0.221866 -0.116997
v 4.49648 -1.2949 -28.7983
vn -0.980059 0.197401 -0.0227245
v 4.49467 -1.31334 -28.7322
vn -0.982648 0.171035 0.0717672
v 4.49948 -1.33294 -28.6666
vn -0.975773 0.143022 0.165568
v 4.51087 -1.35351 -28.6021
vn -0.9595 0.113631 0.257774
v 4.52872 -1.37484 -28.5393
vn -0.933987 0.0831465 0.347497
v 4.55286 -1.39673 -28.4788
vn -0.89948 0.0518609 0.433874
v 4.58307 -1.41897 -28.4213
vn -0.856309 0.0200758 0.516073
v 4.61905 -1.44135 -28.3673
vn -0.804893 -0.0119026 0.593301
v 4.66045 -1.46364 -28.3172
vn -0.745724 -0.0437664 0.664816
v 4.70687 -1.48564 -28.2717
vn -0.679374 -0.0752087 0.729928
v 4.75788 -1.50713 -28.231
vn -0.606481 -0.105927 0.78801
v 4.81297 -1.52791 -28.1957
vn -0.527747 -0.135625 0.838504
v 4.87161 -1.54778 -28.166
vn -0.443931 -0.164016 0.880922
v 4.4772 -3.98319 -28.8744
vn -0.364102 -0.235047 0.901212
v 4.54266 -4.0009 -28.8564
vn -0.272544 -0.259808 0.926401
v 4.61 -4.01681 -28.8448
vn -0.178361 -0.282067 0.942669
v 4.67856 -4.03078 -28.8396
vn -0.0824607 -0.30161 0.949859
v 4.7477 -4.04268 -28.841
vn 0.0142341 -0.318249 0.9479
v 4.81673 -4.05238 -28.849
vn 0.110792 -0.331822 0.936813
v 4.88501 -4.0598 -28.8633
vn 0.206282 -0.3422 0.916704
v 4.95186 -4.06487 -28.884
vn 0.299787 -0.349282 0.887767
v 5.01665 -4.06753 -28.9108
vn 0.390404 -0.353 0.85028
v 5.07875 -4.06775 -28.9435
vn 0.477261 -0.353319 0.804604
v 5.13756 -4.06555 -28.9817
vn 0.559522 -0.350235 0.75118
v 5.19253 -4.06093 -29.0251
vn 0.636394 -0.343778 0.690521
v 5.24311 -4.05395 -29.0732
vn 0.707138 -0.334011 0.623212
v 5.28882 -4.04467 -29.1256
vn 0.771071 -0.321026 0.549901
v 5.32922 -4.03317 -29.1818
vn 0.827579 -0.30495 0.471295
v 5.36392 -4.01958 -29.2412
vn 0.876116 -0.285937 0.388149
v 5.39259 -4.00402 -29.3034
vn 0.916217 -0.264171 0.301266
v 5.41495 -3.98663 -29.3676
vn 0.947493 -0.23986 0.211481
v 5.43079 -3.9676 -29.4332
vn 0.969645 -0.21324 0.119659
v 5.43995 -3.9471 -29.4997
vn 0.982458 -0.184565 0.0266854
v 5.44235 -3.92533 -29.5663
vn 0.98581 -0.154114 -0.0665455
v 5.43796 -3.90249 -29.6325
vn 0.979668 -0.122178 -0.159136
v 5.42682 -3.87882 -29.6976
vn 0.964091 -0.0890652 -0.250193
v 5.40904 -3.85453 -29.761
vn 0.939229 -0.0550949 -0.338841
v 5.3848 -3.82986 -29.8221
vn 0.905322 -0.020594 -0.424226
v 5.35433 -3.80506 -29.8802
vn 0.862697 0.0141052 -0.505525
v 5.31791 -3.78034 -29.9348
vn 0.811763 0.0486686 -0.581956
v 5.2759 -3.75597 -29.9855
vn 0.753011 0.0827633 -0.652782
v 5.22871 -3.73216 -30.0316
vn 0.687008 0.116061 -0.717322
v 5.17679 -3.70915 -30.0728
vn 0.614388 0.148241 -0.774953
v 5.12064 -3.68716 -30.1087
vn 0.535851 0.178993 -0.825121
v 5.0608 -3.66641 -30.1389
vn 0.452154 0.208022 -0.867343
v 4.99784 -3.64709 -30.1631
vn 0.364102 0.235047 -0.901212
v 4.93238 -3.62938 -30.1811
vn 0.272544 0.259808 -0.926401
v 4.86504 -3.61347 -30.1927
vn 0.178361 0.282067 -0.942669
v 4.79648 -3.5995 -30.1979
vn 0.0824607 0.30161 -0.949859
v 4.72734 -3.5876 -30.1965
vn -0.0142341 0.318249 -0.9479
v 4.65831 -3.5779 -30.1886
vn -0.110792 0.331822 -0.936813
v 4.59003 -3.57048 -30.1742
vn -0.206282 0.3422 -0.916704
v 4.52318 -3.56541 -30.1535
vn -0.299787 0.349282 -0.887767
v 4.45839 -3.56275 -30.1267
vn -0.390404 0.353 -0.85028
v 4.39629 -3.56253 -30.094
vn -0.477261 0.353319 -0.804604
v 4.33748 -3.56473 -30.0558
vn -0.559522 0.350235 -0.75118
v 4.28251 -3.56935 -30.0125
vn -0.636394 0.343778 -0.690521
v 4.23193 -3.57633 -29.9643
vn -0.707138 0.334011 -0.623212
v 4.18622 -3.58561 -29.9119
vn -0.771071 0.321026 -0.549901
v 4.14582 -3.59711 -29.8557
vn -0.827579 0.30495 -0.471295
v 4.11112 -3.6107 -29.7963
vn -0.876116 0.285937 -0.388149
v 4.08245 -3.62626 -29.7342
vn -0.916217 0.264171 -0.301266
v 4.06009 -3.64365 -29.67
vn -0.947493 0.23986 -0.211481
v 4.04425 -3.66268 -29.6043
vn -0.969645 0.21324 -0.119659
v 4.03509 -3.68318 -29.5378
vn -0.982458 0.184565 -0.0266854
v 4.03269 -3.70495 -29.4712
vn -0.98581 0.154114 0.0665455
v 4.03708 -3.72779 -29.405
vn -0.979668 0.122178 0.159136
v 4.04822 -3.75146 -29.3399
vn -0.964091 0.0890652 0.250193
v 4.06599 -3.77575 -29.2765
vn -0.939229 0.0550949 0.338841
v 4.09024 -3.80042 -29.2154
vn -0.905322 0.020594 0.424226
v 4.12071 -3.82523 -29.1573
vn -0.862697 -0.0141052 0.505525
v 4.15713 -3.84994 -29.1027
vn -0.811763 -0.0486686 0.581956
v 4.19914 -3.87431 -29.052
vn -0.753011 -0.0827633 0.652782
v 4.24633 -3.89812 -29.0059
vn -0.687008 -0.116061 0.717322
v 4.29825 -3.92113 -28.9647
vn -0.614388 -0.148241 0.774953
v 4.3544 -3.94312 -28.9288
vn -0.535851 -0.178993 0.825121
v 4.41424 -3.96387 -28.8986
vn -0.452154 -0.208022 0.867343
v 4.04544 -6.47634 -29.7475
vn -0.37097 -0.275122 0.886955
v 4.11232 -6.49428 -29.7291
vn -0.279378 -0.29969 0.912214
v 4.18117 -6.51011 -29.717
vn -0.185096 -0.321372 0.928687
v 4.25132 -6.52368 -29.7115
vn -0.0890321 -0.33996 0.936216
v 4.3221 -6.53487 -29.7126
vn 0.00788973 -0.355273 0.934729
v 4.39282 -6.54355 -29.7203
vn 0.104736 -0.367165 0.92424
v 4.46281 -6.54965 -29.7344
vn 0.200573 -0.375521 0.904851
v 4.53138 -6.55311 -29.755
vn 0.294478 -0.38026 0.876747
v 4.59789 -6.5539 -29.7817
vn 0.385548 -0.381337 0.840199
v 4.66168 -6.55201 -29.8143
vn 0.472904 -0.378742 0.79556
v 4.72214 -6.54745 -29.8524
vn 0.555707 -0.372499 0.743259
v 4.7787 -6.54027 -29.8959
vn 0.633157 -0.362669 0.683801
v 4.83081 -6.53054 -29.9441
vn 0.70451 -0.349347 0.617756
v 4.87796 -6.51835 -29.9967
vn 0.769078 -0.332659 0.545763
v 4.9197 -6.50383 -30.0531
vn 0.826239 -0.312768 0.468513
v 4.95563 -6.4871 -30.1128
vn 0.875443 -0.289865 0.386752
v 4.9854 -6.46834 -30.1752
vn 0.916217 -0.264171 0.301266
v 5.00874 -6.44772 -30.2398
vn 0.948166 -0.235932 0.212878
v 5.0254 -6.42544 -30.3058
vn 0.970984 -0.205421 0.122441
v 5.03523 -6.40171 -30.3727
vn 0.984451 -0.172932 0.0308238
v 5.03814 -6.37677 -30.4398
vn 0.988438 -0.138778 -0.0610898
v 5.0341 -6.35085 -30.5065
vn 0.982905 -0.103286 -0.152415
v 5.02315 -6.32421 -30.5721
vn 0.967906 -0.0668006 -0.242273
v 5.00539 -6.2971 -30.636
vn 0.943586 -0.0296715 -0.329797
v 4.98099 -6.26978 -30.6976
vn 0.910178 0.00774338 -0.414145
v 4.9502 -6.24251 -30.7563
vn 0.868005 0.0450837 -0.494505
v 4.9133 -6.21556 -30.8115
vn 0.817472 0.0819898 -0.570102
v 4.87065 -6.18918 -30.8627
vn 0.759067 0.118106 -0.640209
v 4.82266 -6.16364 -30.9094
vn 0.693352 0.153085 -0.70415
v 4.76979 -6.13917 -30.9512
vn 0.620959 0.18659 -0.76131
v 4.71256 -6.11602 -30.9875
vn 0.542586 0.218298 -0.811139
v 4.65151 -6.0944 -31.0182
vn 0.458988 0.247904 -0.853155
v 4.58724 -6.07452 -31.0429
vn 0.37097 0.275122 -0.886955
v 4.52036 -6.05658 -31.0614
vn 0.279378 0.29969 -0.912214
v 4.45151 -6.04075 -31.0734
vn 0.185096 0.321372 -0.928687
v 4.38136 -6.02718 -31.0789
vn 0.0890321 0.33996 -0.936216
v 4.31058 -6.01599 -31.0778
vn -0.00788973 0.355273 -0.934729
v 4.23986 -6.00731 -31.0701
vn -0.104736 0.367165 -0.92424
v 4.16987 -6.00121 -31.056
vn -0.200573 0.375521 -0.904851
v 4.1013 -5.99775 -31.0355
vn -0.294478 0.38026 -0.876747
v 4.03479 -5.99696 -31.0088
vn -0.385548 0.381337 -0.840199
v 3.971 -5.99886 -30.9762
vn -0.472904 0.378742 -0.79556
v 3.91054 -6.00341 -30.938
vn -0.555707 0.372499 -0.743259
v 3.85398 -6.01059 -30.8946
vn -0.633157 0.362669 -0.683801
v 3.80187 -6.02032 -30.8463
vn -0.70451 0.349347 -0.617756
v 3.75472 -6.03251 -30.7938
vn -0.769078 0.332659 -0.545763
v 3.71298 -6.04703 -30.7373
vn -0.826239 0.312768 -0.468513
v 3.67705 -6.06376 -30.6776
vn -0.875443 0.289865 -0.386752
v 3.64728 -6.08252 -30.6152
vn -0.916217 0.264171 -0.301266
v 3.62394 -6.10314 -30.5507
vn -0.948166 0.235932 -0.212878
v 3.60728 -6.12542 -30.4846
vn -0.970984 0.205421 -0.122441
v 3.59745 -6.14915 -30.4177
vn -0.984451 0.172932 -0.0308238
v 3.59454 -6.17409 -30.3506
vn -0.988438 0.138778 0.0610898
v 3.59858 -6.20001 -30.2839
vn -0.982905 0.103286 0.152415
v 3.60953 -6.22665 -30.2183
vn -0.967906 0.0668006 0.242273
v 3.62729 -6.25376 -30.1544
vn -0.943586 0.0296715 0.329797
v 3.65169 -6.28108 -30.0928
vn -0.910178 -0.00774338 0.414145
v 3.68248 -6.30835 -30.0341
vn -0.868005 -0.0450837 0.494505
v 3.71938 -6.3353 -29.9789
vn -0.817472 -0.0819898 0.570102
v 3.76203 -6.36168 -29.9277
vn -0.759067 -0.118106 0.640209
v 3.81002 -6.38722 -29.881
vn -0.693352 -0.153085 0.70415
v 3.86289 -6.41169 -29.8393
vn -0.620959 -0.18659 0.76131
v 3.92012 -6.43484 -29.8029
vn -0.542586 -0.218298 0.811139
v 3.98117 -6.45646 -29.7722
vn -0.458988 -0.247904 0.853155
v 3.63789 -9.04605 -30.7614
vn -0.376659 -0.311409 0.87244
v 3.70619 -9.06423 -30.7425
vn -0.285041 -0.335803 0.897769
v 3.77654 -9.08001 -30.73
vn -0.190677 -0.356962 0.914451
v 3.84826 -9.09322 -30.7242
vn -0.094477 -0.374684 0.922326
v 3.92066 -9.10374 -30.7249
vn 0.00263297 -0.388798 0.921319
v 3.99304 -9.11147 -30.7323
vn 0.0997175 -0.399167 0.911439
v 4.0647 -9.11634 -30.7462
vn 0.195842 -0.405692 0.892782
v 4.13495 -9.11829 -30.7665
vn 0.29008 -0.40831 0.865527
v 4.20313 -9.11731 -30.793
vn 0.381524 -0.406996 0.829936
v 4.26856 -9.11341 -30.8255
vn 0.469295 -0.401763 0.786352
v 4.33063 -9.10662 -30.8637
vn 0.552545 -0.39266 0.735195
v 4.38872 -9.09702 -30.9071
vn 0.630475 -0.379775 0.676958
v 4.4423 -9.08468 -30.9554
vn 0.702332 -0.363233 0.612202
v 4.49082 -9.06974 -31.008
vn 0.767426 -0.343193 0.541549
v 4.53384 -9.05234 -31.0646
vn 0.825129 -0.319848 0.465682
v 4.57094 -9.03264 -31.1245
vn 0.874886 -0.293422 0.385329
v 4.60175 -9.01083 -31.1872
vn 0.916217 -0.264171 0.301266
v 4.62598 -8.98713 -31.252
vn 0.948724 -0.232375 0.214301
v 4.64341 -8.96176 -31.3184
vn 0.972094 -0.198342 0.125272
v 4.65385 -8.93496 -31.3857
vn 0.986103 -0.162399 0.0350373
v 4.65722 -8.907 -31.4532
vn 0.990615 -0.124891 -0.0555352
v 4.65347 -8.87814 -31.5203
vn 0.985587 -0.0861808 -0.145573
v 4.64264 -8.84866 -31.5864
vn 0.971067 -0.0466406 -0.234209
v 4.62485 -8.81885 -31.6508
vn 0.947195 -0.0066512 -0.320589
v 4.60025 -8.78899 -31.7129
vn 0.914201 0.0334023 -0.403881
v 4.56909 -8.75936 -31.7721
vn 0.872403 0.073134 -0.483285
v 4.53166 -8.73027 -31.8278
vn 0.822203 0.112161 -0.558033
v 4.48833 -8.70198 -31.8795
vn 0.764085 0.150109 -0.627408
v 4.43952 -8.67477 -31.9267
vn 0.698609 0.18661 -0.69074
v 4.38569 -8.64889 -31.969
vn 0.626404 0.221315 -0.747421
v 4.32736 -8.62461 -32.0059
vn 0.548167 0.253888 -0.796903
v 4.2651 -8.60215 -32.0371
vn 0.464651 0.284016 -0.83871
v 4.1995 -8.58173 -32.0622
vn 0.376659 0.311409 -0.87244
v 4.1312 -8.56354 -32.0811
vn 0.285041 0.335803 -0.897769
v 4.06085 -8.54777 -32.0935
vn 0.190677 0.356962 -0.914451
v 3.98913 -8.53455 -32.0994
vn 0.094477 0.374684 -0.922326
v 3.91673 -8.52403 -32.0986
vn -0.00263297 0.388798 -0.921319
v 3.84435 -8.5163 -32.0913
vn -0.0997175 0.399167 -0.911439
v 3.77269 -8.51144 -32.0774
vn -0.195842 0.405692 -0.892782
v 3.70243 -8.50948 -32.057
vn -0.29008 0.40831 -0.865527
v 3.63426 -8.51046 -32.0305
vn -0.381524 0.406996 -0.829936
v 3.56883 -8.51437 -31.998
vn -0.469295 0.401763 -0.786352
v 3.50676 -8.52115 -31.9599
vn -0.552545 0.39266 -0.735195
v 3.44866 -8.53076 -31.9165
vn -0.630475 0.379775 -0.676958
v 3.39509 -8.54309 -31.8682
vn -0.702332 0.363233 -0.612202
v 3.34656 -8.55803 -31.8155
vn -0.767426 0.343193 -0.541549
v 3.30355 -8.57544 -31.759
vn -0.825129 0.319848 -0.465682
v 3.26645 -8.59514 -31.699
vn -0.874886 0.293422 -0.385329
v 3.23564 -8.61694 -31.6364
vn -0.916217 0.264171 -0.301266
v 3.2114 -8.64065 -31.5715
vn -0.948724 0.232375 -0.214301
v 3.19398 -8.66602 -31.5052
vn -0.972094 0.198342 -0.125272
v 3.18354 -8.69282 -31.4379
vn -0.986103 0.162399 -0.0350373
v 3.18017 -8.72078 -31.3704
vn -0.990615 0.124891 0.0555352
v 3.18392 -8.74964 -31.3033
vn -0.985587 0.0861808 0.145573
v 3.19475 -8.77912 -31.2372
vn -0.971067 0.0466406 0.234209
v 3.21254 -8.80893 -31.1728
vn -0.947195 0.0066512 0.320589
v 3.23714 -8.83879 -31.1107
vn -0.914201 -0.0334023 0.403881
v 3.2683 -8.86841 -31.0515
vn -0.872403 -0.073134 0.483285
v 3.30573 -8.89751 -30.9958
vn -0.822203 -0.112161 0.558033
v 3.34905 -8.9258 -30.944
vn -0.764085 -0.150109 0.627408
v 3.39787 -8.95301 -30.8968
vn -0.698609 -0.18661 0.69074
v 3.4517 -8.97888 -30.8546
vn -0.626404 -0.221315 0.747421
v 3.51003 -9.00317 -30.8177
vn -0.548167 -0.253888 0.796903
v 3.57229 -9.02563 -30.7865
vn -0.464651 -0.284016 0.83871
v 3.25445 -11.6924 -31.9158
vn -0.381362 -0.344266 0.85793
v 3.32417 -11.7109 -31.8964
vn -0.289721 -0.368501 0.883328
v 3.39601 -11.7266 -31.8836
vn -0.195289 -0.389188 0.900219
v 3.46928 -11.7395 -31.8773
vn -0.0989769 -0.406127 0.908441
v 3.54328 -11.7494 -31.8777
vn -0.00171151 -0.419154 0.907914
v 3.61729 -11.7562 -31.8848
vn 0.0955704 -0.428145 0.898643
v 3.6906 -11.7599 -31.8984
vn 0.191932 -0.433012 0.880717
v 3.76251 -11.7605 -31.9185
vn 0.286445 -0.433709 0.85431
v 3.83231 -11.7578 -31.9449
vn 0.378199 -0.43023 0.819675
v 3.89935 -11.752 -31.9772
vn 0.466312 -0.422607 0.777147
v 3.96297 -11.7431 -32.0153
vn 0.549933 -0.410914 0.727134
v 4.02255 -11.7312 -32.0586
vn 0.628258 -0.395264 0.670118
v 4.07754 -11.7164 -32.1069
vn 0.700533 -0.375807 0.606649
v 4.12739 -11.6989 -32.1597
vn 0.766061 -0.352731 0.537337
v 4.17163 -11.6787 -32.2163
vn 0.824212 -0.326258 0.462851
v 4.20984 -11.6562 -32.2764
vn 0.874425 -0.296643 0.383907
v 4.24163 -11.6315 -32.3393
vn 0.916217 -0.264171 0.301266
v 4.26671 -11.6049 -32.4043
vn 0.949185 -0.229155 0.215723
v 4.28484 -11.5765 -32.471
vn 0.973012 -0.191932 0.128103
v 4.29584 -11.5468 -32.5386
vn 0.987468 -0.152861 0.0392494
v 4.2996 -11.516 -32.6065
vn 0.992415 -0.112317 -0.0499824
v 4.29609 -11.4843 -32.674
vn 0.987804 -0.0706921 -0.138733
v 4.28535 -11.4521 -32.7405
vn 0.973679 -0.0283862 -0.226147
v 4.26747 -11.4197 -32.8054
vn 0.950178 0.0141931 -0.311384
v 4.24263 -11.3874 -32.8679
vn 0.917526 0.0566357 -0.393621
v 4.21106 -11.3555 -32.9276
vn 0.876038 0.0985329 -0.472068
v 4.17308 -11.3244 -32.9838
vn 0.826113 0.139481 -0.545969
v 4.12905 -11.2943 -33.036
vn 0.768233 0.179086 -0.614611
v 4.07938 -11.2654 -33.0838
vn 0.702953 0.216966 -0.677335
v 4.02457 -11.2382 -33.1265
vn 0.630904 0.252757 -0.733535
v 3.96513 -11.2128 -33.1639
vn 0.552779 0.286114 -0.782671
v 3.90164 -11.1896 -33.1956
vn 0.46933 0.316715 -0.82427
v 3.83472 -11.1686 -33.2212
vn 0.381362 0.344266 -0.85793
v 3.765 -11.1502 -33.2405
vn 0.289721 0.368501 -0.883328
v 3.69316 -11.1344 -33.2533
vn 0.195289 0.389188 -0.900219
v 3.61988 -11.1215 -33.2596
vn 0.0989769 0.406127 -0.908441
v 3.54588 -11.1116 -33.2592
vn 0.00171151 0.419154 -0.907914
v 3.47187 -11.1048 -33.2521
vn -0.0955704 0.428145 -0.898643
v 3.39856 -11.1011 -33.2385
vn -0.191932 0.433012 -0.880717
v 3.32666 -11.1006 -33.2184
vn -0.286445 0.433709 -0.85431
v 3.25685 -11.1032 -33.1921
vn -0.378199 0.43023 -0.819675
v 3.18982 -11.109 -33.1597
vn -0.466312 0.422607 -0.777147
v 3.1262 -11.1179 -33.1217
vn -0.549933 0.410914 -0.727134
v 3.06661 -11.1298 -33.0783
vn -0.628258 0.395264 -0.670118
v 3.01162 -11.1446 -33.03
vn -0.700533 0.375807 -0.606649
v 2.96177 -11.1622 -32.9773
vn -0.766061 0.352731 -0.537337
v 2.91753 -11.1823 -32.9206
vn -0.824212 0.326258 -0.462851
v 2.87933 -11.2048 -32.8605
vn -0.874425 0.296643 -0.383907
v 2.84753 -11.2295 -32.7977
vn -0.916217 0.264171 -0.301266
v 2.82245 -11.2562 -32.7326
vn -0.949185 0.229155 -0.215723
v 2.80432 -11.2845 -32.6659
vn -0.973012 0.191932 -0.128103
v 2.79333 -11.3142 -32.5983
vn -0.987468 0.152861 -0.0392494
v 2.78956 -11.3451 -32.5304
vn -0.992415 0.112317 0.0499824
v 2.79307 -11.3767 -32.4629
vn -0.987804 0.0706921 0.138733
v 2.80382 -11.4089 -32.3964
vn -0.973679 0.0283862 0.226147
v 2.8217 -11.4413 -32.3316
vn -0.950178 -0.0141931 0.311384
v 2.84654 -11.4736 -32.269
vn -0.917526 -0.0566357 0.393621
v 2.8781 -11.5055 -32.2093
vn -0.876038 -0.0985329 0.472068
v 2.91608 -11.5366 -32.1531
vn -0.826113 -0.139481 0.545969
v 2.96012 -11.5668 -32.1009
vn -0.768233 -0.179086 0.614611
v 3.00978 -11.5956 -32.0531
vn -0.702953 -0.216966 0.677335
v 3.0646 -11.6228 -32.0104
vn -0.630904 -0.252757 0.733535
v 3.12403 -11.6482 -31.973
vn -0.552779 -0.286114 0.782671
v 3.18752 -11.6715 -31.9414
vn -0.46933 -0.316715 0.82427
f 1 66 2 
f 1 65 66 
f 2 67 3 
f 2 66 67 
f 3 68 4 
f 3 67 68 
f 4 69 5 
f 4 68 69 
f 5 70 6 
f 5 69 70 
f 6 71 7 
f 6 70 71 
f 7 72 8 
f 7 71 72 
f 8 73 9 
f 8 72 73 
f 9 74 10 
f 9 73 74 
f 10 75 11 
f 10 74 75 
f 11 76 12 
f 11 75 76 
f 12 77 13 
f 12 76 77 
f 13 78 14 
f 13 77 78 
f 14 79 15 
f 14 78 79 
f 15 80 16 
f 15 79 80 
f 16 81 17 
f 16 80 81 
f 17 82 18 
f 17 81 82 
f 18 83 19 
f 18 82 83 
f 19 84 20 
f 19 83 84 
f 20 85 21 
f 20 84 85 
f 21 86 22 
f 21 85 86 
f 22 87 23 
f 22 86 87 
f 23 88 24 
f 23 87 88 
f 24 89 25 
f 24 88 89 
f 25 90 26 
f 25 89 90 
f 26 91 27 
f 26 90 91 
f 27 92 28 
f 27 91 92 
f 28 93 29 
f 28 92 93 
f 29 94 30 
f 29 93 94 
f 30 95 31 
f 30 94 95 
f 31 96 32 
f 31 95 96 
f 32 97 33 
f 32 96 97 
f 33 98 34 
f 33 97 98 
f 34 99 35 
f 34 98 99 
f 35 100 36 
f 35 99 100 
f 36 101 37 
f 36 100 101 
f 37 102 38 
f 37 101 102 
f 38 103 39 
f 38 102 103 
f 39 104 40 
f 39 103 104 
f 40 105 41 
f 40 104 105 
f 41 106 42 
f 41 105 106 
f 42 107 43 
f 42 106 107 
f 43 108 44 
f 43 107 108 
f 44 109 45 
f 44 108 109 
f 45 110 46 
f 45 109 110 
f 46 111 47 
f 46 110 111 
f 47 112 48 
f 47 111 112 
f 48 113 49 
f 48 112 113 
f 49 114 50 
f 49 113 114 
f 50 115 51 
f 50 114 115 
f 51 116 52 
f 51 115 116 
f 52 117 53 
f 52 116 117 
f 53 118 54 
f 53 117 118 
f 54 119 55 
f 54 118 119 
f 55 120 56 
f 55 119 120 
f 56 121 57 
f 56 120 121 
f 57 122 58 
f 57 121 122 
f 58 123 59 
f 58 122 123 
f 59 124 60 
f 59 123 124 
f 60 125 61 
f 60 124 125 
f 61 126 62 
f 61 125 126 
f 62 127 63 
f 62 126 127 
f 63 128 64 
f 63 127 128 
f 64 65 1 
f 64 128 65 
f 65 130 66 
f 65 129 130 
f 66 131 67 
f 66 130 131 
f 67 132 68 
f 67 131 132 
f 68 133 69 
f 68 132 133 
f 69 134 70 
f 69 133 134 
f 70 135 71 
f 70 134 135 
f 71 136 72 
f 71 135 136 
f 72 137 73 
f 72 136 137 
f 73 138 74 
f 73 137 138 
f 74 139 75 
f 74 138 139 
f 75 140 76 
f 75 139 140 
f 76 141 77 
f 76 140 141 
f 77 142 78 
f 77 141 142 
f 78 143 79 
f 78 142 143 
f 79 144 80 
f 79 143 144 
f 80 145 81 
f 80 144 145 
f 81 146 82 
f 81 145 146 
f 82 147 83 
f 82 146 147 
f 83 148 84 
f 83 147 148 
f 84 149 85 
f 84 148 149 
f 85 150 86 
f 85 149 150 
f 86 151 87 
f 86 150 151 
f 87 152 88 
f 87 151 152 
f 88 153 89 
f 88 152 153 
f 89 154 90 
f 89 153 154 
f 90 155 91 
f 90 154 155 
f 91 156 92 
f 91 155 156 
f 92 157 93 
f 92 156 157 
f 93 158 94 
f 93 157 158 
f 94 159 95 
f 94 158 159 
f 95 160 96 
f 95 159 160 
f 96 161 97 
f 96 160 161 
f 97 162 98 
f 97 161 162 
f 98 163 99 
f 98 162 163 
f 99 164 100 
f 99 163 164 
f 100 165 101 
f 100 164 165 
f 101 166 102 
f 101 165 166 
f 102 167 103 
f 102 166 167 
f 103 168 104 
f 103 167 168 
f 104 169 105 
f 104 168 169 
f 105 170 106 
f 105 169 170 
f 106 171 107 
f 106 170 171 
f 107 172 108 
f 107 171 172 
f 108 173 109 
f 108 172 173 
f 109 174 110 
f 109 173 174 
f 110 175 111 
f 110 174 175 
f 111 176 112 
f 111 175 176 
f 112 177 113 
f 112 176 177 
f 113 178 114 
f 113 177 178 
f 114 179 115 
f 114 178 179 
f 115 180 116 
f 115 179 180 
f 116 181 117 
f 116 180 181 
f 117 182 118 
f 117 181 182 
f 118 183 119 
f 118 182 183 
f 119 184 120 
f 119 183 184 
f 120 185 121 
f 120 184 185 
f 121 186 122 
f 121 185 186 
f 122 187 123 
f 122 186 187 
f 123 188 124 
f 123 187 188 
f 124 189 125 
f 124 188 189 
f 125 190 126 
f 125 189 190 
f 126 191 127 
f 126 190 191 
f 127 192 128 
f 127 191 192 
f 128 129 65 
f 128 192 129 
f 129 194 130 
f 129 193 194 
f 130 195 131 
f 130 194 195 
f 131 196 132 
f 131 195 196 
f 132 197 133 
f 132 196 197 
f 133 198 134 
f 133 197 198 
f 134 199 135 
f 134 198 199 
f 135 200 136 
f 135 199 200 
f 136 201 137 
f 136 200 201 
f 137 202 138 
f 137 201 202 
f 138 203 139 
f 138 202 203 
f 139 204 140 
f 139 203 204 
f 140 205 141 
f 140 204 205 
f 141 206 142 
f 141 205 206 
f 142 207 143 
f 142 206 207 
f 143 208 144 
f 143 207 208 
f 144 209 145 
f 144 208 209 
f 145 210 146 
f 145 209 210 
f 146 211 147 
f 146 210 211 
f 147 212 148 
f 147 211 212 
f 148 213 149 
f 148 212 213 
f 149 214 150 
f 149 213 214 
f 150 215 151 
f 150 214 215 
f 151 216 152 
f 151 215 216 
f 152 217 153 
f 152 216 217 
f 153 218 154 
f 153 217 218 
f 154 219 155 
f 154 218 219 
f 155 220 156 
f 155 219 220 
f 156 221 157 
f 156 220 221 
f 157 222 158 
f 157 221 222 
f 158 223 159 
f 158 222 223 
f 159 224 160 
f 159 223 224 
f 160 225 161 
f 160 224 225 
f 161 226 162 
f 161 225 226 
f 162 227 163 
f 162 226 227 
f 163 228 164 
f 163 227 228 
f 164 229 165 
f 164 228 229 
f 165 230 166 
f 165 229 230 
f 166 231 167 
f 166 230 231 
f 167 232 168 
f 167 231 232 
f 168 233 169 
f 168 232 233 
f 169 234 170 
f 169 233 234 
f 170 235 171 
f 170 234 235 
f 171 236 172 
f 171 235 236 
f 172 237 173 
f 172 236 237 
f 173 238 174 
f 173 237 238 
f 174 239 175 
f 174 238 239 
f 175 240 176 
f 175 239 240 
f 176 241 177 
f 176 240 241 
f 177 242 178 
f 177 241 242 
f 178 243 179 
f 178 242 243 
f 179 244 180 
f 179 243 244 
f 180 245 181 
f 180 244 245 
f 181 246 182 
f 181 245 246 
f 182 247 183 
f 182 246 247 
f 183 248 184 
f 183 247 248 
f 184 249 185 
f 184 248 249 
f 185 250 186 
f 185 249 250 
f 186 251 187 
f 186 250 251 
f 187 252 188 
f 187 251 252 
f 188 253 189 
f 188 252 253 
f 189 254 190 
f 189 253 254 
f 190 255 191 
f 190 254 255 
f 191 256 192 
f 191 255 256 
f 192 193 129 
f 192 256 193 
f 193 258 194 
f 193 257 258 
f 194 259 195 
f 194 258 259 
f 195 260 196 
f 195 259 260 
f 196 261 197 
f 196 260 261 
f 197 262 198 
f 197 261 262 
f 198 263 199 
f 198 262 263 
f 199 264 200 
f 199 263 264 
f 200 265 201 
f 200 264 265 
f 201 266 202 
f 201 265 266 
f 202 267 203 
f 202 266 267 
f 203 268 204 
f 203 267 268 
f 204 269 205 
f 204 268 269 
f 205 270 206 
f 205 269 270 
f 206 271 207 
f 206 270 271 
f 207 272 208 
f 207 271 272 
f 208 273 209 
f 208 272 273 
f 209 274 210 
f 209 273 274 
f 210 275 211 
f 210 274 275 
f 211 276 212 
f 211 275 276 
f 212 277 213 
f 212 276 277 
f 213 278 214 
f 213 277 278 
f 214 279 215 
f 214 278 279 
f 215 280 216 
f 215 279 280 
f 216 281 217 
f 216 280 281 
f 217 282 218 
f 217 281 282 
f 218 283 219 
f 218 282 283 
f 219 284 220 
f 219 283 284 
f 220 285 221 
f 220 284 285 
f 221 286 222 
f 221 285 286 
f 222 287 223 
f 222 286 287 
f 223 288 224 
f 223 287 288 
f 224 289 225 
f 224 288 289 
f 225 290 226 
f 225 289 290 
f 226 291 227 
f 226 290 291 
f 227 292 228 
f 227 291 292 
f 228 293 229 
f 228 292 293 
f 229 294 230 
f 229 293 294 
f 230 295 231 
f 230 294 295 
f 231 296 232 
f 231 295 296 
f 232 297 233 
f 232 296 297 
f 233 298 234 
f 233 297 298 
f 234 299 235 
f 234 298 299 
f 235 300 236 
f 235 299 300 
f 236 301 237 
f 236 300 301 
f 237 302 238 
f 237 301 302 
f 238 303 239 
f 238 302 303 
f 239 304 240 
f 239 303 304 
f 240 305 241 
f 240 304 305 
f 241 306 242 
f 241 305 306 
f 242 307 243 
f 242 306 307 
f 243 308 244 
f 243 307 308 
f 244 309 245 
f 244 308 309 
f 245 310 246 
f 245 309 310 
f 246 311 247 
f 246 310 311 
f 247 312 248 
f 247 311 312 
f 248 313 249 
f 248 312 313 
f 249 314 250 
f 249 313 314 
f 250 315 251 
f 250 314 315 
f 251 316 252 
f 251 315 316 
f 252 317 253 
f 252 316 317 
f 253 318 254 
f 253 317 318 
f 254 319 255 
f 254 318 319 
f 255 320 256 
f 255 319 320 
f 256 257 193 
f 256 320 257 
f 257 322 258 
f 257 321 322 
f 258 323 259 
f 258 322 323 
f 259 324 260 
f 259 323 324 
f 260 325 261 
f 260 324 325 
f 261 326 262 
f 261 325 326 
f 262 327 263 
f 262 326 327 
f 263 328 264 
f 263 327 328 
f 264 329 265 
f 264 328 329 
f 265 330 266 
f 265 329 330 
f 266 331 267 
f 266 330 331 
f 267 332 268 
f 267 331 332 
f 268 333 269 
f 268 332 333 
f 269 334 270 
f 269 333 334 
f 270 335 271 
f 270 334 335 
f 271 336 272 
f 271 335 336 
f 272 337 273 
f 272 336 337 
f 273 338 274 
f 273 337 338 
f 274 339 275 
f 274 338 339 
f 275 340 276 
f 275 339 340 
f 276 341 277 
f 276 340 341 
f 277 342 278 
f 277 341 342 
f 278 343 279 
f 278 342 343 
f 279 344 280 
f 279 343 344 
f 280 345 281 
f 280 344 345 
f 281 346 282 
f 281 345 346 
f 282 347 283 
f 282 346 347 
f 283 348 284 
f 283 347 348 
f 284 349 285 
f 284 348 349 
f 285 350 286 
f 285 349 350 
f 286 351 287 
f 286 350 351 
f 287 352 288 
f 287 351 352 
f 288 353 289 
f 288 352 353 
f 289 354 290 
f 289 353 354 
f 290 355 291 
f 290 354 355 
f 291 356 292 
f 291 355 356 
f 292 357 293 
f 292 356 357 
f 293 358 294 
f 293 357 358 
f 294 359 295 
f 294 358 359 
f 295 360 296 
f 295 359 360 
f 296 361 297 
f 296 360 361 
f 297 362 298 
f 297 361 362 
f 298 363 299 
f 298 362 363 
f 299 364 300 
f 299 363 364 
f 300 365 301 
f 300 364 365 
f 301 366 302 
f 301 365 366 
f 302 367 303 
f 302 366 367 
f 303 368 304 
f 303 367 368 
f 304 369 305 
f 304 368 369 
f 305 370 306 
f 305 369 370 
f 306 371 307 
f 306 370 371 
f 307 372 308 
f 307 371 372 
f 308 373 309 
f 308 372 373 
f 309 374 310 
f 309 373 374 
f 310 375 311 
f 310 374 375 
f 311 376 312 
f 311 375 376 
f 312 377 313 
f 312 376 377 
f 313 378 314 
f 313 377 378 
f 314 379 315 
f 314 378 379 
f 315 380 316 
f 315 379 380 
f 316 381 317 
f 316 380 381 
f 317 382 318 
f 317 381 382 
f 318 383 319 
f 318 382 383 
f 319 384 320 
f 319 383 384 
f 320 321 257 
f 320 384 321 
f 321 386 322 
f 321 385 386 
f 322 387 323 
f 322 386 387 
f 323 388 324 
f 323 387 388 
f 324 389 325 
f 324 388 389 
f 325 390 326 
f 325 389 390 
f 326 391 327 
f 326 390 391 
f 327 392 328 
f 327 391 392 
f 328 393 329 
f 328 392 393 
f 329 394 330 
f 329 393 394 
f 330 395 331 
f 330 394 395 
f 331 396 332 
f 331 395 396 
f 332 397 333 
f 332 396 397 
f 333 398 334 
f 333 397 398 
f 334 399 335 
f 334 398 399 
f 335 400 336 
f 335 399 400 
f 336 401 337 
f 336 400 401 
f 337 402 338 
f 337 401 402 
f 338 403 339 
f 338 402 403 
f 339 404 340 
f 339 403 404 
f 340 405 341 
f 340 404 405 
f 341 406 342 
f 341 405 406 
f 342 407 343 
f 342 406 407 
f 343 408 344 
f 343 407 408 
f 344 409 345 
f 344 408 409 
f 345 410 346 
f 345 409 410 
f 346 411 347 
f 346 410 411 
f 347 412 348 
f 347 411 412 
f 348 413 349 
f 348 412 413 
f 349 414 350 
f 349 413 414 
f 350 415 351 
f 350 414 415 
f 351 416 352 
f 351 415 416 
f 352 417 353 
f 352 416 417 
f 353 418 354 
f 353 417 418 
f 354 419 355 
f 354 418 419 
f 355 420 356 
f 355 419 420 
f 356 421 357 
f 356 420 421 
f 357 422 358 
f 357 421 422 
f 358 423 359 
f 358 422 423 
f 359 424 360 
f 359 423 424 
f 360 425 361 
f 360 424 425 
f 361 426 362 
f 361 425 426 
f 362 427 363 
f 362 426 427 
f 363 428 364 
f 363 427 428 
f 364 429 365 
f 364 428 429 
f 365 430 366 
f 365 429 430 
f 366 431 367 
f 366 430 431 
f 367 432 368 
f 367 431 432 
f 368 433 369 
f 368 432 433 
f 369 434 370 
f 369 433 434 
f 370 435 371 
f 370 434 435 
f 371 436 372 
f 371 435 436 
f 372 437 373 
f 372 436 437 
f 373 438 374 
f 373 437 438 
f 374 439 375 
f 374 438 439 
f 375 440 376 
f 375 439 440 
f 376 441 377 
f 376 440 441 
f 377 442 378 
f 377 441 442 
f 378 443 379 
f 378 442 443 
f 379 444 380 
f 379 443 444 
f 380 445 381 
f 380 444 445 
f 381 446 382 
f 381 445 446 
f 382 447 383 
f 382 446 447 
f 383 448 384 
f 383 447 448 
f 384 385 321 
f 384 448 385 
f 385 450 386 
f 385 449 450 
f 386 451 387 
f 386 450 451 
f 387 452 388 
f 387 451 452 
f 388 453 389 
f 388 452 453 
f 389 454 390 
f 389 453 454 
f 390 455 391 
f 390 454 455 
f 391 456 392 
f 391 455 456 
f 392 457 393 
f 392 456 457 
f 393 458 394 
f 393 457 458 
f 394 459 395 
f 394 458 459 
f 395 460 396 
f 395 459 460 
f 396 461 397 
f 396 460 461 
f 397 462 398 
f 397 461 462 
f 398 463 399 
f 398 462 463 
f 399 464 400 
f 399 463 464 
f 400 465 401 
f 400 464 465 
f 401 466 402 
f 401 465 466 
f 402 467 403 
f 402 466 467 
f 403 468 404 
f 403 467 468 
f 404 469 405 
f 404 468 469 
f 405 470 406 
f 405 469 470 
f 406 471 407 
f 406 470 471 
f 407 472 408 
f 407 471 472 
f 408 473 409 
f 408 472 473 
f 409 474 410 
f 409 473 474 
f 410 475 411 
f 410 474 475 
f 411 476 412 
f 411 475 476 
f 412 477 413 
f 412 476 477 
f 413 478 414 
f 413 477 478 
f 414 479 415 
f 414 478 479 
f 415 480 416 
f 415 479 480 
f 416 481 417 
f 416 480 481 
f 417 482 418 
f 417 481 482 
f 418 483 419 
f 418 482 483 
f 419 484 420 
f 419 483 484 
f 420 485 421 
f 420 484 485 
f 421 486 422 
f 421 485 486 
f 422 487 423 
f 422 486 487 
f 423 488 424 
f 423 487 488 
f 424 489 425 
f 424 488 489 
f 425 490 426 
f 425 489 490 
f 426 491 427 
f 426 490 491 
f 427 492 428 
f 427 491 492 
f 428 493 429 
f 428 492 493 
f 429 494 430 
f 429 493 494 
f 430 495 431 
f 430 494 495 
f 431 496 432 
f 431 495 496 
f 432 497 433 
f 432 496 497 
f 433 498 434 
f 433 497 498 
f 434 499 435 
f 434 498 499 
f 435 500 436 
f 435 499 500 
f 436 501 437 
f 436 500 501 
f 437 502 438 
f 437 501 502 
f 438 503 439 
f 438 502 503 
f 439 504 440 
f 439 503 504 
f 440 505 441 
f 440 504 505 
f 441 506 442 
f 441 505 506 
f 442 507 443 
f 442 506 507 
f 443 508 444 
f 443 507 508 
f 444 509 445 
f 444 508 509 
f 445 510 446 
f 445 509 510 
f 446 511 447 
f 446 510 511 
f 447 512 448 
f 447 511 512 
f 448 449 385 
f 448 512 449 
f 449 514 450 
f 449 513 514 
f 450 515 451 
f 450 514 515 
f 451 516 452 
f 451 515 516 
f 452 517 453 
f 452 516 517 
f 453 518 454 
f 453 517 518 
f 454 519 455 
f 454 518 519 
f 455 520 456 
f 455 519 520 
f 456 521 457 
f 456 520 521 
f 457 522 458 
f 457 521 522 
f 458 523 459 
f 458 522 523 
f 459 524 460 
f 459 523 524 
f 460 525 461 
f 460 524 525 
f 461 526 462 
f 461 525 526 
f 462 527 463 
f 462 526 527 
f 463 528 464 
f 463 527 528 
f 464 529 465 
f 464 528 529 
f 465 530 466 
f 465 529 530 
f 466 531 467 
f 466 530 531 
f 467 532 468 
f 467 531 532 
f 468 533 469 
f 468 532 533 
f 469 534 470 
f 469 533 534 
f 470 535 471 
f 470 534 535 
f 471 536 472 
f 471 535 536 
f 472 537 473 
f 472 536 537 
f 473 538 474 
f 473 537 538 
f 474 539 475 
f 474 538 539 
f 475 540 476 
f 475 539 540 
f 476 541 477 
f 476 540 541 
f 477 542 478 
f 477 541 542 
f 478 543 479 
f 478 542 543 
f 479 544 480 
f 479 543 544 
f 480 545 481 
f 480 544 545 
f 481 546 482 
f 481 545 546 
f 482 547 483 
f 482 546 547 
f 483 548 484 
f 483 547 548 
f 484 549 485 
f 484 548 549 
f 485 550 486 
f 485 549 550 
f 486 551 487 
f 486 550 551 
f 487 552 488 
f 487 551 552 
f 488 553 489 
f 488 552 553 
f 489 554 490 
f 489 553 554 
f 490 555 491 
f 490 554 555 
f 491 556 492 
f 491 555 556 
f 492 557 493 
f 492 556 557 
f 493 558 494 
f 493 557 558 
f 494 559 495 
f 494 558 559 
f 495 560 496 
f 495 559 560 
f 496 561 497 
f 496 560 561 
f 497 562 498 
f 497 561 562 
f 498 563 499 
f 498 562 563 
f 499 564 500 
f 499 563 564 
f 500 565 501 
f 500 564 565 
f 501 566 502 
f 501 565 566 
f 502 567 503 
f 502 566 567 
f 503 568 504 
f 503 567 568 
f 504 569 505 
f 504 568 569 
f 505 570 506 
f 505 569 570 
f 506 571 507 
f 506 570 571 
f 507 572 508 
f 507 571 572 
f 508 573 509 
f 508 572 573 
f 509 574 510 
f 509 573 574 
f 510 575 511 
f 510 574 575 
f 511 576 512 
f 511 575 576 
f 512 513 449 
f 512 576 513 
f 513 578 514 
f 513 577 578 
f 514 579 515 
f 514 578 579 
f 515 580 516 
f 515 579 580 
f 516 581 517 
f 516 580 581 
f 517 582 518 
f 517 581 582 
f 518 583 519 
f 518 582 583 
f 519 584 520 
f 519 583 584 
f 520 585 521 
f 520 584 585 
f 521 586 522 
f 521 585 586 
f 522 587 523 
f 522 586 587 
f 523 588 524 
f 523 587 588 
f 524 589 525 
f 524 588 589 
f 525 590 526 
f 525 589 590 
f 526 591 527 
f 526 590 591 
f 527 592 528 
f 527 591 592 
f 528 593 529 
f 528 592 593 
f 529 594 530 
f 529 593 594 
f 530 595 531 
f 530 594 595 
f 531 596 532 
f 531 595 596 
f 532 597 533 
f 532 596 597 
f 533 598 534 
f 533 597 598 
f 534 599 535 
f 534 598 599 
f 535 600 536 
f 535 599 600 
f 536 601 537 
f 536 600 601 
f 537 602 538 
f 537 601 602 
f 538 603 539 
f 538 602 603 
f 539 604 540 
f 539 603 604 
f 540 605 541 
f 540 604 605 
f 541 606 542 
f 541 605 606 
f 542 607 543 
f 542 606 607 
f 543 608 544 
f 543 607 608 
f 544 609 545 
f 544 608 609 
f 545 610 546 
f 545 609 610 
f 546 611 547 
f 546 610 611 
f 547 612 548 
f 547 611 612 
f 548 613 549 
f 548 612 613 
f 549 614 550 
f 549 613 614 
f 550 615 551 
f 550 614 615 
f 551 616 552 
f 551 615 616 
f 552 617 553 
f 552 616 617 
f 553 618 554 
f 553 617 618 
f 554 619 555 
f 554 618 619 
f 555 620 556 
f 555 619 620 
f 556 621 557 
f 556 620 621 
f 557 622 558 
f 557 621 622 
f 558 623 559 
f 558 622 623 
f 559 624 560 
f 559 623 624 
f 560 625 561 
f 560 624 625 
f 561 626 562 
f 561 625 626 
f 562 627 563 
f 562 626 627 
f 563 628 564 
f 563 627 628 
f 564 629 565 
f 564 628 629 
f 565 630 566 
f 565 629 630 
f 566 631 567 
f 566 630 631 
f 567 632 568 
f 567 631 632 
f 568 633 569 
f 568 632 633 
f 569 634 570 
f 569 633 634 
f 570 635 571 
f 570 634 635 
f 571 636 572 
f 571 635 636 
f 572 637 573 
f 572 636 637 
f 573 638 574 
f 573 637 638 
f 574 639 575 
f 574 638 639 
f 575 640 576 
f 575 639 640 
f 576 577 513 
f 576 640 577 
