# Branch
v -8.2449 -5.61355 -27.3069
vn -0.0298737 -0.196055 0.980138
v -8.23877 -5.59501 -27.304
vn 0.000577938 -0.10389 0.994589
v -8.23265 -5.57627 -27.3031
vn 0.031024 -0.0107247 0.999461
v -8.22658 -5.55751 -27.304
vn 0.0611713 0.0825443 0.994708
v -8.22064 -5.53891 -27.3069
vn 0.0907295 0.175018 0.980376
v -8.21487 -5.52064 -27.3117
vn 0.119414 0.265807 0.956602
v -8.20933 -5.50289 -27.3183
vn 0.146948 0.354035 0.923615
v -8.20407 -5.48583 -27.3267
vn 0.173068 0.438854 0.881734
v -8.19915 -5.46962 -27.3369
vn 0.19752 0.519447 0.831361
v -8.19462 -5.45441 -27.3486
vn 0.22007 0.595037 0.772981
v -8.19051 -5.44036 -27.3619
vn 0.240501 0.664897 0.707157
v -8.18686 -5.4276 -27.3765
vn 0.258616 0.728353 0.634523
v -8.18372 -5.41624 -27.3923
vn 0.27424 0.784795 0.555778
v -8.18111 -5.40641 -27.4092
vn 0.287223 0.833679 0.471681
v -8.17905 -5.39819 -27.4271
vn 0.29744 0.874534 0.383041
v -8.17758 -5.39166 -27.4456
vn 0.304792 0.906966 0.290712
v -8.17669 -5.3869 -27.4648
vn 0.309209 0.930665 0.195584
v -8.1764 -5.38393 -27.4843
vn 0.310648 0.9454 0.0985718
v -8.17671 -5.3828 -27.504
vn 0.309096 0.951031 0.000610417
v -8.17762 -5.38351 -27.5237
vn 0.304567 0.947502 -0.0973568
v -8.17912 -5.38606 -27.5432
vn 0.297104 0.934849 -0.194386
v -8.1812 -5.39041 -27.5624
vn 0.286781 0.913193 -0.289544
v -8.18383 -5.39654 -27.5809
vn 0.273695 0.882742 -0.381913
v -8.18699 -5.40437 -27.5988
vn 0.257974 0.84379 -0.470604
v -8.19066 -5.41384 -27.6157
vn 0.239768 0.796711 -0.554763
v -8.19478 -5.42486 -27.6316
vn 0.219253 0.74196 -0.63358
v -8.19933 -5.43731 -27.6462
vn 0.196627 0.680064 -0.706294
v -8.20427 -5.45108 -27.6594
vn 0.172106 0.611618 -0.772207
v -8.20953 -5.46603 -27.6712
vn 0.145929 0.537282 -0.830682
v -8.21508 -5.48203 -27.6814
vn 0.118346 0.457771 -0.881158
v -8.22086 -5.49891 -27.6898
vn 0.0896234 0.373852 -0.923148
v -8.22681 -5.51651 -27.6965
vn 0.0600377 0.286332 -0.956247
v -8.23288 -5.53467 -27.7013
vn 0.0298737 0.196055 -0.980138
v -8.239 -5.55321 -27.7042
vn -0.000577938 0.10389 -0.994589
v -8.24513 -5.57196 -27.7052
vn -0.031024 0.0107247 -0.999461
v -8.25119 -5.59072 -27.7042
vn -0.0611713 -0.0825443 -0.994708
v -8.25714 -5.60932 -27.7013
vn -0.0907295 -0.175018 -0.980376
v -8.26291 -5.62758 -27.6965
vn -0.119414 -0.265807 -0.956602
v -8.26845 -5.64533 -27.6899
vn -0.146948 -0.354035 -0.923615
v -8.2737 -5.66239 -27.6815
vn -0.173068 -0.438854 -0.881734
v -8.27862 -5.67861 -27.6713
vn -0.19752 -0.519447 -0.831361
v -8.28316 -5.69381 -27.6596
vn -0.22007 -0.595037 -0.772981
v -8.28727 -5.70786 -27.6464
vn -0.240501 -0.664897 -0.707157
v -8.29091 -5.72063 -27.6317
vn -0.258616 -0.728353 -0.634523
v -8.29405 -5.73198 -27.6159
vn -0.27424 -0.784795 -0.555778
v -8.29667 -5.74182 -27.599
vn -0.287223 -0.833679 -0.471681
v -8.29872 -5.75004 -27.5812
vn -0.29744 -0.874534 -0.383041
v -8.3002 -5.75656 -27.5626
vn -0.304792 -0.906966 -0.290712
v -8.30109 -5.76133 -27.5435
vn -0.309209 -0.930665 -0.195584
v -8.30138 -5.76429 -27.5239
vn -0.310648 -0.9454 -0.0985718
v -8.30107 -5.76542 -27.5042
vn -0.309096 -0.951031 -0.000610417
v -8.30016 -5.76471 -27.4845
vn -0.304567 -0.947502 0.0973568
v -8.29865 -5.76217 -27.465
vn -0.297104 -0.934849 0.194386
v -8.29658 -5.75781 -27.4459
vn -0.286781 -0.913193 0.289544
v -8.29395 -5.75169 -27.4273
vn -0.273695 -0.882742 0.381913
v -8.29078 -5.74385 -27.4094
vn -0.257974 -0.84379 0.470604
v -8.28712 -5.73438 -27.3925
vn -0.239768 -0.796711 0.554763
v -8.28299 -5.72337 -27.3767
vn -0.219253 -0.74196 0.63358
v -8.27844 -5.71092 -27.362
vn -0.196627 -0.680064 0.706294
v -8.27351 -5.69715 -27.3488
vn -0.172106 -0.611618 0.772207
v -8.26824 -5.68219 -27.337
vn -0.145929 -0.537282 0.830682
v -8.26269 -5.6662 -27.3269
vn -0.118346 -0.457771 0.881158
v -8.25692 -5.64932 -27.3184
vn -0.0896234 -0.373852 0.923148
v -8.25097 -5.63171 -27.3117
vn -0.0600377 -0.286332 0.956247
v -7.45232 -5.86796 -27.3494
vn 0.0254356 -0.213682 0.976572
v -7.44598 -5.84858 -27.3464
vn 0.0556209 -0.121432 0.99104
v -7.43975 -5.82896 -27.3453
vn 0.0852706 -0.0280129 0.995964
v -7.43369 -5.80928 -27.3463
vn 0.114099 0.0656764 0.991296
v -7.42787 -5.78973 -27.3493
vn 0.141829 0.158733 0.977082
v -7.42233 -5.77051 -27.3543
vn 0.168192 0.250261 0.953457
v -7.41714 -5.75179 -27.3612
vn 0.192936 0.339379 0.920651
v -7.41233 -5.73375 -27.3699
vn 0.215822 0.425229 0.878977
v -7.40796 -5.71658 -27.3804
vn 0.23663 0.506983 0.828839
v -7.40407 -5.70043 -27.3927
vn 0.255158 0.583855 0.770719
v -7.40069 -5.68547 -27.4064
vn 0.271229 0.655104 0.705176
v -7.39786 -5.67183 -27.4216
vn 0.284688 0.720044 0.632842
v -7.39561 -5.65964 -27.4381
vn 0.295406 0.778049 0.554414
v -7.39396 -5.64903 -27.4557
vn 0.303278 0.828562 0.470646
v -7.39292 -5.6401 -27.4742
vn 0.30823 0.871095 0.382346
v -7.3925 -5.63293 -27.4936
vn 0.310213 0.905239 0.290363
v -7.39271 -5.62759 -27.5135
vn 0.309209 0.930665 0.195584
v -7.39355 -5.62413 -27.5338
vn 0.305227 0.947128 0.0989213
v -7.395 -5.62259 -27.5543
vn 0.298306 0.95447 0.00130604
v -7.39706 -5.62298 -27.5748
vn 0.288511 0.952619 -0.0963218
v -7.3997 -5.62529 -27.5951
vn 0.275938 0.941595 -0.193022
v -7.4029 -5.62951 -27.615
vn 0.260708 0.921502 -0.287863
v -7.40663 -5.6356 -27.6343
vn 0.242967 0.892535 -0.379932
v -7.41084 -5.64349 -27.6529
vn 0.222886 0.854972 -0.468342
v -7.41551 -5.65311 -27.6705
vn 0.200658 0.809176 -0.552242
v -7.42059 -5.66436 -27.687
vn 0.176498 0.755586 -0.630823
v -7.42602 -5.67715 -27.7023
vn 0.150639 0.69472 -0.703329
v -7.43176 -5.69134 -27.7161
vn 0.123328 0.627163 -0.769062
v -7.43774 -5.7068 -27.7283
vn 0.0948299 0.553567 -0.827388
v -7.44392 -5.72338 -27.7389
vn 0.0654184 0.474639 -0.877746
v -7.45023 -5.74091 -27.7477
vn 0.0353769 0.39114 -0.919651
v -7.45661 -5.75924 -27.7547
vn 0.00499472 0.303875 -0.952699
v -7.463 -5.77819 -27.7597
vn -0.0254356 0.213682 -0.976572
v -7.46934 -5.79757 -27.7627
vn -0.0556209 0.121432 -0.99104
v -7.47557 -5.81719 -27.7637
vn -0.0852706 0.0280129 -0.995964
v -7.48163 -5.83687 -27.7628
vn -0.114099 -0.0656764 -0.991296
v -7.48745 -5.85641 -27.7598
vn -0.141829 -0.158733 -0.977082
v -7.49299 -5.87564 -27.7548
vn -0.168192 -0.250261 -0.953457
v -7.49819 -5.89436 -27.7479
vn -0.192936 -0.339379 -0.920651
v -7.50299 -5.91239 -27.7392
vn -0.215822 -0.425229 -0.878977
v -7.50736 -5.92956 -27.7286
vn -0.23663 -0.506983 -0.828839
v -7.51126 -5.94571 -27.7164
vn -0.255158 -0.583855 -0.770719
v -7.51463 -5.96068 -27.7027
vn -0.271229 -0.655104 -0.705176
v -7.51746 -5.97432 -27.6875
vn -0.284688 -0.720044 -0.632842
v -7.51971 -5.9865 -27.671
vn -0.295406 -0.778049 -0.554414
v -7.52136 -5.99711 -27.6534
vn -0.303278 -0.828562 -0.470646
v -7.5224 -6.00604 -27.6349
vn -0.30823 -0.871095 -0.382346
v -7.52282 -6.01322 -27.6155
vn -0.310213 -0.905239 -0.290363
v -7.52261 -6.01856 -27.5956
vn -0.309209 -0.930665 -0.195584
v -7.52177 -6.02201 -27.5753
vn -0.305227 -0.947128 -0.0989213
v -7.52032 -6.02356 -27.5548
vn -0.298306 -0.95447 -0.00130604
v -7.51826 -6.02317 -27.5343
vn -0.288511 -0.952619 0.0963218
v -7.51562 -6.02085 -27.514
vn -0.275938 -0.941595 0.193022
v -7.51242 -6.01663 -27.4941
vn -0.260708 -0.921502 0.287863
v -7.5087 -6.01055 -27.4747
vn -0.242967 -0.892535 0.379932
v -7.50448 -6.00266 -27.4562
vn -0.222886 -0.854972 0.468342
v -7.49981 -5.99304 -27.4385
vn -0.200658 -0.809176 0.552242
v -7.49473 -5.98178 -27.422
vn -0.176498 -0.755586 0.630823
v -7.4893 -5.969 -27.4068
vn -0.150639 -0.69472 0.703329
v -7.48357 -5.95481 -27.393
vn -0.123328 -0.627163 0.769062
v -7.47758 -5.93935 -27.3808
vn -0.0948299 -0.553567 0.827388
v -7.4714 -5.92277 -27.3702
vn -0.0654184 -0.474639 0.877746
v -7.46509 -5.90523 -27.3614
vn -0.0353769 -0.39114 0.919651
v -7.45871 -5.8869 -27.3544
vn -0.00499472 -0.303875 0.952699
v -6.65399 -6.11421 -27.4397
vn 0.0797976 -0.230328 0.969836
v -6.64744 -6.094 -27.4366
vn 0.109721 -0.137998 0.984336
v -6.64112 -6.07349 -27.4355
vn 0.138588 -0.0443389 0.989357
v -6.63509 -6.0529 -27.4365
vn 0.16612 0.0497472 0.98485
v -6.62941 -6.0324 -27.4395
vn 0.192053 0.143354 0.970858
v -6.62414 -6.01221 -27.4446
vn 0.216135 0.235581 0.947516
v -6.61933 -5.99252 -27.4517
vn 0.238137 0.325539 0.915049
v -6.61501 -5.97351 -27.4608
vn 0.257845 0.412361 0.87377
v -6.61124 -5.95537 -27.4717
vn 0.275069 0.495213 0.824076
v -6.60805 -5.93827 -27.4843
vn 0.289645 0.573295 0.766446
v -6.60547 -5.92239 -27.4985
vn 0.301431 0.645856 0.701434
v -6.60352 -5.90786 -27.5142
vn 0.310315 0.712197 0.629667
v -6.60223 -5.89484 -27.5313
vn 0.316209 0.771679 0.551836
v -6.60161 -5.88344 -27.5495
vn 0.319059 0.82373 0.468691
v -6.60166 -5.87379 -27.5687
vn 0.318836 0.867847 0.381031
v -6.60238 -5.86596 -27.5887
vn 0.315542 0.903607 0.289703
v -6.60377 -5.86003 -27.6093
vn 0.309209 0.930665 0.195584
v -6.6058 -5.85607 -27.6303
vn 0.299899 0.948759 0.0995816
v -6.60847 -5.85411 -27.6515
vn 0.2877 0.957717 0.00262023
v -6.61175 -5.85417 -27.6727
vn 0.272731 0.957451 -0.0943663
v -6.6156 -5.85625 -27.6938
vn 0.255135 0.947965 -0.190444
v -6.61999 -5.86032 -27.7144
vn 0.235082 0.929349 -0.284688
v -6.62488 -5.86636 -27.7344
vn 0.212765 0.901783 -0.37619
v -6.63021 -5.87429 -27.7537
vn 0.188399 0.865532 -0.464069
v -6.63595 -5.88405 -27.7719
vn 0.162219 0.820946 -0.547479
v -6.64202 -5.89555 -27.789
vn 0.134476 0.768454 -0.625616
v -6.64838 -5.90866 -27.8048
vn 0.105438 0.708561 -0.697728
v -6.65496 -5.92327 -27.8191
vn 0.075385 0.641844 -0.763121
v -6.6617 -5.93923 -27.8319
vn 0.0446059 0.568946 -0.821165
v -6.66853 -5.95638 -27.8428
vn 0.0133971 0.490568 -0.8713
v -6.67539 -5.97458 -27.852
vn -0.0179406 0.407466 -0.913044
v -6.68221 -5.99363 -27.8592
vn -0.0491056 0.32044 -0.945995
v -6.68893 -6.01336 -27.8644
vn -0.0797976 0.230328 -0.969836
v -6.69548 -6.03357 -27.8676
vn -0.109721 0.137998 -0.984336
v -6.7018 -6.05408 -27.8687
vn -0.138588 0.0443389 -0.989357
v -6.70783 -6.07468 -27.8677
vn -0.16612 -0.0497472 -0.98485
v -6.71351 -6.09517 -27.8646
vn -0.192053 -0.143354 -0.970858
v -6.71878 -6.11536 -27.8595
vn -0.216135 -0.235581 -0.947516
v -6.7236 -6.13506 -27.8524
vn -0.238137 -0.325539 -0.915049
v -6.72791 -6.15407 -27.8434
vn -0.257845 -0.412361 -0.87377
v -6.73168 -6.17221 -27.8325
vn -0.275069 -0.495213 -0.824076
v -6.73487 -6.1893 -27.8199
vn -0.289645 -0.573295 -0.766446
v -6.73745 -6.20519 -27.8056
vn -0.301431 -0.645856 -0.701434
v -6.7394 -6.21971 -27.7899
vn -0.310315 -0.712197 -0.629667
v -6.74069 -6.23273 -27.7729
vn -0.316209 -0.771679 -0.551836
v -6.74131 -6.24413 -27.7547
vn -0.319059 -0.82373 -0.468691
v -6.74126 -6.25379 -27.7355
vn -0.318836 -0.867847 -0.381031
v -6.74054 -6.26162 -27.7155
vn -0.315542 -0.903607 -0.289703
v -6.73916 -6.26754 -27.6949
vn -0.309209 -0.930665 -0.195584
v -6.73712 -6.2715 -27.6739
vn -0.299899 -0.948759 -0.0995816
v -6.73445 -6.27346 -27.6527
vn -0.2877 -0.957717 -0.00262023
v -6.73117 -6.2734 -27.6314
vn -0.272731 -0.957451 0.0943663
v -6.72732 -6.27133 -27.6104
vn -0.255135 -0.947965 0.190444
v -6.72293 -6.26725 -27.5897
vn -0.235082 -0.929349 0.284688
v -6.71804 -6.26122 -27.5697
vn -0.212765 -0.901783 0.37619
v -6.71271 -6.25328 -27.5505
vn -0.188399 -0.865532 0.464069
v -6.70698 -6.24352 -27.5322
vn -0.162219 -0.820946 0.547479
v -6.7009 -6.23203 -27.5151
vn -0.134476 -0.768454 0.625616
v -6.69455 -6.21891 -27.4993
vn -0.105438 -0.708561 0.697728
v -6.68797 -6.20431 -27.485
vn -0.075385 -0.641844 0.763121
v -6.68123 -6.18835 -27.4723
vn -0.0446059 -0.568946 0.821165
v -6.67439 -6.17119 -27.4613
vn -0.0133971 -0.490568 0.8713
v -6.66753 -6.15299 -27.4522
vn 0.0179406 -0.407466 0.913044
v -6.66071 -6.13394 -27.445
vn 0.0491056 -0.32044 0.945995
v -5.85005 -6.35227 -27.578
vn 0.132719 -0.24588 0.960171
v -5.84329 -6.33122 -27.5746
vn 0.162388 -0.153475 0.974718
v -5.83689 -6.30983 -27.5735
vn 0.190493 -0.059592 0.979878
v -5.83091 -6.28831 -27.5744
vn 0.216763 0.034865 0.975601
v -5.8254 -6.26687 -27.5776
vn 0.240946 0.128986 0.961929
v -5.82042 -6.24571 -27.5828
vn 0.262808 0.221865 0.938993
v -5.81601 -6.22504 -27.5901
vn 0.282139 0.312608 0.907014
v -5.81223 -6.20505 -27.5993
vn 0.298754 0.400339 0.866299
v -5.8091 -6.18594 -27.6105
vn 0.312491 0.484216 0.817242
v -5.80665 -6.1679 -27.6235
vn 0.323218 0.563429 0.760314
v -5.80492 -6.15109 -27.6381
vn 0.330833 0.637216 0.696065
v -5.80391 -6.13567 -27.6543
vn 0.335262 0.704866 0.625111
v -5.80364 -6.12181 -27.6718
vn 0.336462 0.765728 0.548138
v -5.8041 -6.10962 -27.6906
vn 0.334421 0.819215 0.465885
v -5.8053 -6.09924 -27.7103
vn 0.32916 0.864813 0.379146
v -5.80722 -6.09074 -27.7309
vn 0.320729 0.902083 0.288755
v -5.80985 -6.08423 -27.7521
vn 0.309209 0.930665 0.195584
v -5.81315 -6.07976 -27.7738
vn 0.294712 0.950284 0.100529
v -5.8171 -6.07738 -27.7957
vn 0.277376 0.960751 0.00450569
v -5.82166 -6.0771 -27.8176
vn 0.257368 0.961966 -0.0915609
v -5.82678 -6.07894 -27.8393
vn 0.234883 0.953916 -0.186746
v -5.83242 -6.08286 -27.8605
vn 0.210135 0.93668 -0.280132
v -5.83852 -6.08884 -27.8812
vn 0.183363 0.910423 -0.37082
v -5.84502 -6.09682 -27.901
vn 0.154826 0.875398 -0.457938
v -5.85186 -6.10672 -27.9199
vn 0.124797 0.831943 -0.540645
v -5.85897 -6.11845 -27.9375
vn 0.093567 0.780475 -0.618145
v -5.86629 -6.13189 -27.9538
vn 0.0614355 0.721491 -0.689693
v -5.87375 -6.14691 -27.9686
vn 0.0287124 0.655559 -0.754598
v -5.88127 -6.16337 -27.9817
vn -0.00428722 0.583314 -0.812236
v -5.88877 -6.1811 -27.9931
vn -0.0372456 0.50545 -0.862051
v -5.8962 -6.19995 -28.0026
vn -0.0698452 0.422719 -0.903565
v -5.90347 -6.21973 -28.01
vn -0.101772 0.335917 -0.936377
v -5.91052 -6.24024 -28.0155
vn -0.132719 0.24588 -0.960171
v -5.91728 -6.26129 -28.0188
vn -0.162388 0.153475 -0.974718
v -5.92369 -6.28268 -28.0199
vn -0.190493 0.059592 -0.979878
v -5.92967 -6.3042 -28.019
vn -0.216763 -0.034865 -0.975601
v -5.93518 -6.32564 -28.0159
vn -0.240946 -0.128986 -0.961929
v -5.94016 -6.3468 -28.0106
vn -0.262808 -0.221865 -0.938993
v -5.94457 -6.36747 -28.0033
vn -0.282139 -0.312608 -0.907014
v -5.94835 -6.38746 -27.9941
vn -0.298754 -0.400339 -0.866299
v -5.95148 -6.40657 -27.9829
vn -0.312491 -0.484216 -0.817242
v -5.95392 -6.42462 -27.9699
vn -0.323218 -0.563429 -0.760314
v -5.95566 -6.44143 -27.9553
vn -0.330833 -0.637216 -0.696065
v -5.95667 -6.45684 -27.9391
vn -0.335262 -0.704866 -0.625111
v -5.95694 -6.4707 -27.9216
vn -0.336462 -0.765728 -0.548138
v -5.95648 -6.48289 -27.9028
vn -0.334421 -0.819215 -0.465885
v -5.95528 -6.49328 -27.8831
vn -0.32916 -0.864813 -0.379146
v -5.95336 -6.50177 -27.8625
vn -0.320729 -0.902083 -0.288755
v -5.95073 -6.50828 -27.8413
vn -0.309209 -0.930665 -0.195584
v -5.94743 -6.51275 -27.8196
vn -0.294712 -0.950284 -0.100529
v -5.94348 -6.51513 -27.7977
vn -0.277376 -0.960751 -0.00450569
v -5.93892 -6.51541 -27.7758
vn -0.257368 -0.961966 0.0915609
v -5.9338 -6.51358 -27.7542
vn -0.234883 -0.953916 0.186746
v -5.92816 -6.50965 -27.7329
vn -0.210135 -0.93668 0.280132
v -5.92206 -6.50367 -27.7122
vn -0.183363 -0.910423 0.37082
v -5.91556 -6.49569 -27.6924
vn -0.154826 -0.875398 0.457938
v -5.90872 -6.48579 -27.6735
vn -0.124797 -0.831943 0.540645
v -5.9016 -6.47406 -27.6559
vn -0.093567 -0.780475 0.618145
v -5.89428 -6.46062 -27.6396
vn -0.0614355 -0.721491 0.689693
v -5.88683 -6.4456 -27.6248
vn -0.0287124 -0.655559 0.754598
v -5.87931 -6.42915 -27.6117
vn 0.00428722 -0.583314 0.812236
v -5.8718 -6.41141 -27.6003
vn 0.0372456 -0.50545 0.862051
v -5.86438 -6.39256 -27.5909
vn 0.0698452 -0.422719 0.903565
v -5.8571 -6.37278 -27.5834
vn 0.101772 -0.335917 0.936377
v -5.04064 -6.58208 -27.7641
vn 0.183779 -0.260263 0.947886
v -5.03368 -6.5602 -27.7606
vn 0.213202 -0.167789 0.962493
v -5.0272 -6.53792 -27.7593
vn 0.240571 -0.0736983 0.96783
v -5.02127 -6.51548 -27.7603
vn 0.265624 0.0211017 0.963846
v -5.01594 -6.49309 -27.7634
vn 0.288119 0.115698 0.95058
v -5.01128 -6.47097 -27.7687
vn 0.307839 0.209181 0.928159
v -5.00731 -6.44931 -27.7762
vn 0.324594 0.300649 0.896799
v -5.00408 -6.42835 -27.7856
vn 0.338223 0.389221 0.856803
v -5.00163 -6.40827 -27.797
vn 0.348595 0.474046 0.808556
v -4.99997 -6.38927 -27.8103
vn 0.35561 0.554304 0.752521
v -4.99912 -6.37154 -27.8253
vn 0.3592 0.629225 0.68924
v -4.99909 -6.35524 -27.8418
vn 0.359331 0.698086 0.61932
v -4.99988 -6.34053 -27.8598
vn 0.356001 0.760224 0.543436
v -5.00148 -6.32756 -27.879
vn 0.349243 0.81504 0.462319
v -5.00387 -6.31644 -27.8993
vn 0.339121 0.862007 0.376749
v -5.00704 -6.30729 -27.9204
vn 0.325734 0.900673 0.287551
v -5.01095 -6.30019 -27.9421
vn 0.309209 0.930665 0.195584
v -5.01557 -6.29521 -27.9644
vn 0.289707 0.951693 0.101733
v -5.02085 -6.2924 -27.9868
vn 0.267414 0.963557 0.00690232
v -5.02673 -6.29179 -28.0093
vn 0.242547 0.966141 -0.0879948
v -5.03317 -6.29338 -28.0315
vn 0.215343 0.95942 -0.182044
v -5.0401 -6.29716 -28.0534
vn 0.186065 0.94346 -0.274341
v -5.04746 -6.30309 -28.0746
vn 0.154996 0.918414 -0.363995
v -5.05516 -6.31111 -28.095
vn 0.122434 0.884522 -0.450144
v -5.06315 -6.32115 -28.1143
vn 0.0886927 0.842113 -0.531958
v -5.07134 -6.33311 -28.1325
vn 0.0540973 0.791593 -0.608649
v -5.07965 -6.34687 -28.1493
vn 0.018981 0.73345 -0.679478
v -5.08801 -6.3623 -28.1645
vn -0.0163182 0.668244 -0.743764
v -5.09632 -6.37926 -28.178
vn -0.0514602 0.596601 -0.800886
v -5.10453 -6.39758 -28.1897
vn -0.0861066 0.519214 -0.850296
v -5.11253 -6.41708 -28.1995
vn -0.119924 0.436826 -0.891517
v -5.12026 -6.43758 -28.2072
vn -0.152586 0.350231 -0.924151
v -5.12764 -6.45887 -28.2128
vn -0.183779 0.260263 -0.947886
v -5.13461 -6.48076 -28.2163
vn -0.213202 0.167789 -0.962493
v -5.14109 -6.50303 -28.2175
vn -0.240571 0.0736983 -0.96783
v -5.14702 -6.52547 -28.2166
vn -0.265624 -0.0211017 -0.963846
v -5.15234 -6.54787 -28.2134
vn -0.288119 -0.115698 -0.95058
v -5.15701 -6.56999 -28.2081
vn -0.307839 -0.209181 -0.928159
v -5.16098 -6.59164 -28.2007
vn -0.324594 -0.300649 -0.896799
v -5.1642 -6.61261 -28.1912
vn -0.338223 -0.389221 -0.856803
v -5.16666 -6.63269 -28.1798
vn -0.348595 -0.474046 -0.808556
v -5.16832 -6.65169 -28.1666
vn -0.35561 -0.554304 -0.752521
v -5.16917 -6.66942 -28.1516
vn -0.3592 -0.629225 -0.68924
v -5.1692 -6.68572 -28.135
vn -0.359331 -0.698086 -0.61932
v -5.16841 -6.70043 -28.1171
vn -0.356001 -0.760224 -0.543436
v -5.16681 -6.7134 -28.0979
vn -0.349243 -0.81504 -0.462319
v -5.16441 -6.72452 -28.0776
vn -0.339121 -0.862007 -0.376749
v -5.16125 -6.73367 -28.0565
vn -0.325734 -0.900673 -0.287551
v -5.15733 -6.74077 -28.0347
vn -0.309209 -0.930665 -0.195584
v -5.15272 -6.74575 -28.0125
vn -0.289707 -0.951693 -0.101733
v -5.14744 -6.74856 -27.9901
vn -0.267414 -0.963557 -0.00690232
v -5.14156 -6.74917 -27.9676
vn -0.242547 -0.966141 0.0879948
v -5.13512 -6.74758 -27.9453
vn -0.215343 -0.95942 0.182044
v -5.12819 -6.7438 -27.9235
vn -0.186065 -0.94346 0.274341
v -5.12083 -6.73787 -27.9023
vn -0.154996 -0.918414 0.363995
v -5.11312 -6.72985 -27.8819
vn -0.122434 -0.884522 0.450144
v -5.10514 -6.71981 -27.8625
vn -0.0886927 -0.842113 0.531958
v -5.09695 -6.70785 -27.8444
vn -0.0540973 -0.791593 0.608649
v -5.08864 -6.69409 -27.8276
vn -0.018981 -0.73345 0.679478
v -5.08028 -6.67865 -27.8124
vn 0.0163182 -0.668244 0.743764
v -5.07196 -6.6617 -27.7989
vn 0.0514602 -0.596601 0.800886
v -5.06376 -6.64338 -27.7872
vn 0.0861066 -0.519214 0.850296
v -5.05576 -6.62388 -27.7774
vn 0.119924 -0.436826 0.891517
v -5.04803 -6.60338 -27.7697
vn 0.152586 -0.350231 0.924151
v -4.22589 -6.80361 -27.998
vn 0.232639 -0.273438 0.933333
v -4.21872 -6.78088 -27.9944
vn 0.261827 -0.1809 0.948009
v -4.21217 -6.75773 -27.9931
vn 0.288493 -0.0866204 0.953556
v -4.20631 -6.73437 -27.994
vn 0.312381 0.00849375 0.949919
v -4.20118 -6.71103 -27.9971
vn 0.33326 0.103526 0.937134
v -4.19684 -6.68794 -28.0025
vn 0.35093 0.197561 0.915324
v -4.19333 -6.66531 -28.01
vn 0.36522 0.289694 0.884699
v -4.19069 -6.64337 -28.0196
vn 0.375993 0.379037 0.845553
v -4.18893 -6.62232 -28.0312
vn 0.383145 0.464729 0.798265
v -4.18808 -6.60238 -28.0447
vn 0.386607 0.545946 0.743289
v -4.18814 -6.58372 -28.06
vn 0.386346 0.621905 0.681154
v -4.18912 -6.56654 -28.0768
vn 0.382364 0.691875 0.61246
v -4.191 -6.55099 -28.0952
vn 0.374699 0.755182 0.537867
v -4.19377 -6.53723 -28.1148
vn 0.363426 0.811216 0.458094
v -4.1974 -6.52539 -28.1354
vn 0.348654 0.859437 0.37391
v -4.20185 -6.51558 -28.157
vn 0.330523 0.899382 0.286125
v -4.20709 -6.5079 -28.1792
vn 0.309209 0.930665 0.195584
v -4.21305 -6.50241 -28.2019
vn 0.284918 0.952985 0.103159
v -4.21969 -6.49919 -28.2249
vn 0.257882 0.966127 0.00974155
v -4.22694 -6.49824 -28.2478
vn 0.228363 0.969965 -0.0837702
v -4.23473 -6.4996 -28.2706
vn 0.196645 0.964462 -0.176475
v -4.24299 -6.50323 -28.2929
vn 0.163033 0.949671 -0.267481
v -4.25163 -6.50911 -28.3147
vn 0.127851 0.925733 -0.35591
v -4.26057 -6.51718 -28.3355
vn 0.0914371 0.892881 -0.440912
v -4.26973 -6.52736 -28.3554
vn 0.0541431 0.851429 -0.521667
v -4.27902 -6.53955 -28.374
vn 0.0163276 0.801778 -0.597399
v -4.28834 -6.55364 -28.3912
vn -0.0216451 0.744405 -0.667377
v -4.29762 -6.56949 -28.4068
vn -0.0594094 0.679863 -0.730929
v -4.30675 -6.58695 -28.4206
vn -0.0966015 0.608774 -0.787441
v -4.31566 -6.60585 -28.4327
vn -0.132863 0.531822 -0.836369
v -4.32425 -6.626 -28.4427
vn -0.167846 0.449748 -0.877243
v -4.33244 -6.64722 -28.4507
vn -0.201211 0.363342 -0.909668
v -4.34016 -6.6693 -28.4565
vn -0.232639 0.273438 -0.933333
v -4.34733 -6.69203 -28.4601
vn -0.261827 0.1809 -0.948009
v -4.35388 -6.71518 -28.4614
vn -0.288493 0.0866204 -0.953556
v -4.35974 -6.73854 -28.4605
vn -0.312381 -0.00849375 -0.949919
v -4.36487 -6.76188 -28.4574
vn -0.33326 -0.103526 -0.937134
v -4.36921 -6.78498 -28.452
vn -0.35093 -0.197561 -0.915324
v -4.37272 -6.8076 -28.4445
vn -0.36522 -0.289694 -0.884699
v -4.37537 -6.82954 -28.4349
vn -0.375993 -0.379037 -0.845553
v -4.37712 -6.85059 -28.4233
vn -0.383145 -0.464729 -0.798265
v -4.37797 -6.87054 -28.4098
vn -0.386607 -0.545946 -0.743289
v -4.37791 -6.88919 -28.3945
vn -0.386346 -0.621905 -0.681154
v -4.37693 -6.90637 -28.3777
vn -0.382364 -0.691875 -0.61246
v -4.37505 -6.92192 -28.3593
vn -0.374699 -0.755182 -0.537867
v -4.37228 -6.93568 -28.3398
vn -0.363426 -0.811216 -0.458094
v -4.36865 -6.94753 -28.3191
vn -0.348654 -0.859437 -0.37391
v -4.3642 -6.95734 -28.2975
vn -0.330523 -0.899382 -0.286125
v -4.35896 -6.96502 -28.2753
vn -0.309209 -0.930665 -0.195584
v -4.353 -6.9705 -28.2526
vn -0.284918 -0.952985 -0.103159
v -4.34636 -6.97373 -28.2296
vn -0.257882 -0.966127 -0.00974155
v -4.33911 -6.97467 -28.2067
vn -0.228363 -0.969965 0.0837702
v -4.33132 -6.97332 -28.1839
vn -0.196645 -0.964462 0.176475
v -4.32306 -6.96969 -28.1616
vn -0.163033 -0.949671 0.267481
v -4.31442 -6.96381 -28.1398
vn -0.127851 -0.925733 0.35591
v -4.30548 -6.95574 -28.119
vn -0.0914371 -0.892881 0.440912
v -4.29632 -6.94556 -28.0991
vn -0.0541431 -0.851429 0.521667
v -4.28704 -6.93337 -28.0805
vn -0.0163276 -0.801778 0.597399
v -4.27771 -6.91927 -28.0634
vn 0.0216451 -0.744405 0.667377
v -4.26844 -6.90342 -28.0477
vn 0.0594094 -0.679863 0.730929
v -4.2593 -6.88597 -28.0339
vn 0.0966015 -0.608774 0.787441
v -4.2504 -6.86707 -28.0219
vn 0.132863 -0.531822 0.836369
v -4.2418 -6.84691 -28.0118
vn 0.167846 -0.449748 0.877243
v -4.23361 -6.82569 -28.0039
vn 0.201211 -0.363342 0.909668
v -3.40592 -7.01682 -28.2799
vn 0.279052 -0.285402 0.916884
v -3.39855 -6.99325 -28.2761
vn 0.308016 -0.192806 0.931639
v -3.39194 -6.96922 -28.2746
vn 0.334014 -0.098354 0.937423
v -3.38614 -6.94494 -28.2754
vn 0.356795 -0.00295458 0.934178
v -3.38122 -6.92066 -28.2786
vn 0.37614 0.0924733 0.921937
v -3.37722 -6.8966 -28.2839
vn 0.391862 0.187011 0.900817
v -3.37418 -6.873 -28.2915
vn 0.403811 0.279747 0.871022
v -3.37212 -6.85009 -28.3012
vn 0.41187 0.369789 0.832838
v -3.37108 -6.82808 -28.313
vn 0.415963 0.45627 0.786633
v -3.37106 -6.80719 -28.3267
vn 0.416051 0.538357 0.732853
v -3.37206 -6.78762 -28.3422
vn 0.412131 0.615259 0.672015
v -3.37407 -6.76956 -28.3593
vn 0.404242 0.686236 0.604706
v -3.37706 -6.75318 -28.3779
vn 0.392461 0.750604 0.531572
v -3.38102 -6.73864 -28.3978
vn 0.376899 0.807743 0.453319
v -3.38591 -6.72608 -28.4188
vn 0.357708 0.857103 0.370701
v -3.39167 -6.71562 -28.4408
vn 0.335072 0.898209 0.284512
v -3.39825 -6.70736 -28.4634
vn 0.309209 0.930665 0.195584
v -3.40559 -6.70138 -28.4865
vn 0.280368 0.954157 0.104772
v -3.41361 -6.69774 -28.5099
vn 0.248828 0.968461 0.0129506
v -3.42225 -6.69648 -28.5333
vn 0.21489 0.973438 -0.0789952
v -3.43141 -6.69759 -28.5565
vn 0.178884 0.96904 -0.17018
v -3.44101 -6.70109 -28.5793
vn 0.141154 0.95531 -0.259726
v -3.45096 -6.70692 -28.6014
vn 0.102065 0.93238 -0.346771
v -3.46116 -6.71504 -28.6227
vn 0.0619934 0.90047 -0.430477
v -3.47151 -6.72537 -28.643
vn 0.0213245 0.859889 -0.510036
v -3.48191 -6.7378 -28.662
vn -0.0195497 0.811026 -0.584684
v -3.49226 -6.75223 -28.6795
vn -0.0602357 0.754352 -0.6537
v -3.50247 -6.7685 -28.6955
vn -0.100342 0.690414 -0.716422
v -3.51243 -6.78646 -28.7097
vn -0.139481 0.619827 -0.772244
v -3.52205 -6.80594 -28.722
vn -0.177277 0.54327 -0.820628
v -3.53123 -6.82676 -28.7323
vn -0.213366 0.461481 -0.86111
v -3.53989 -6.8487 -28.7405
vn -0.2474 0.375248 -0.893298
v -3.54795 -6.87156 -28.7465
vn -0.279052 0.285402 -0.916884
v -3.55532 -6.89513 -28.7503
vn -0.308016 0.192806 -0.931639
v -3.56193 -6.91916 -28.7517
vn -0.334014 0.098354 -0.937423
v -3.56773 -6.94344 -28.7509
vn -0.356795 0.00295458 -0.934178
v -3.57265 -6.96772 -28.7478
vn -0.37614 -0.0924733 -0.921937
v -3.57665 -6.99178 -28.7424
vn -0.391862 -0.187011 -0.900817
v -3.57969 -7.01538 -28.7348
vn -0.403811 -0.279747 -0.871022
v -3.58174 -7.03829 -28.7251
vn -0.41187 -0.369789 -0.832838
v -3.58279 -7.0603 -28.7134
vn -0.415963 -0.45627 -0.786633
v -3.58281 -7.08119 -28.6997
vn -0.416051 -0.538357 -0.732853
v -3.58181 -7.10076 -28.6842
vn -0.412131 -0.615259 -0.672015
v -3.5798 -7.11882 -28.6671
vn -0.404242 -0.686236 -0.604706
v -3.57681 -7.1352 -28.6484
vn -0.392461 -0.750604 -0.531572
v -3.57285 -7.14974 -28.6285
vn -0.376899 -0.807743 -0.453319
v -3.56796 -7.1623 -28.6075
vn -0.357708 -0.857103 -0.370701
v -3.5622 -7.17276 -28.5856
vn -0.335072 -0.898209 -0.284512
v -3.55562 -7.18102 -28.5629
vn -0.309209 -0.930665 -0.195584
v -3.54828 -7.187 -28.5398
vn -0.280368 -0.954157 -0.104772
v -3.54025 -7.19064 -28.5165
vn -0.248828 -0.968461 -0.0129506
v -3.53162 -7.19191 -28.4931
vn -0.21489 -0.973438 0.0789952
v -3.52246 -7.19079 -28.4699
vn -0.178884 -0.96904 0.17018
v -3.51285 -7.18729 -28.4471
vn -0.141154 -0.95531 0.259726
v -3.50291 -7.18146 -28.4249
vn -0.102065 -0.93238 0.346771
v -3.49271 -7.17334 -28.4036
vn -0.0619934 -0.90047 0.430477
v -3.48236 -7.16301 -28.3834
vn -0.0213245 -0.859889 0.510036
v -3.47196 -7.15058 -28.3644
vn 0.0195497 -0.811026 0.584684
v -3.46161 -7.13615 -28.3468
vn 0.0602357 -0.754352 0.6537
v -3.4514 -7.11988 -28.3309
vn 0.100342 -0.690414 0.716422
v -3.44144 -7.10192 -28.3167
vn 0.139481 -0.619827 0.772244
v -3.43182 -7.08244 -28.3043
vn 0.177277 -0.54327 0.820628
v -3.42264 -7.06163 -28.294
vn 0.213366 -0.461481 0.86111
v -3.41398 -7.03968 -28.2859
vn 0.2474 -0.375248 0.893298
v -2.58084 -7.22168 -28.6095
vn 0.322853 -0.296178 0.898913
v -2.57327 -7.19728 -28.6055
vn 0.351606 -0.20353 0.913755
v -2.56659 -7.17236 -28.604
vn 0.376973 -0.108923 0.919797
v -2.56087 -7.14717 -28.6047
vn 0.39871 -0.0132667 0.916981
v -2.55615 -7.12195 -28.6078
vn 0.416607 0.0825174 0.905334
v -2.5525 -7.09693 -28.6131
vn 0.430491 0.177507 0.884968
v -2.54993 -7.07236 -28.6207
vn 0.44023 0.270787 0.856079
v -2.54848 -7.04848 -28.6305
vn 0.445729 0.361459 0.818946
v -2.54817 -7.02552 -28.6424
vn 0.446936 0.44865 0.773926
v -2.54898 -7.0037 -28.6562
vn 0.443838 0.53152 0.721453
v -2.55092 -6.98322 -28.6718
vn 0.436466 0.609272 0.662031
v -2.55397 -6.96429 -28.6892
vn 0.42489 0.681156 0.596234
v -2.5581 -6.94709 -28.708
vn 0.409223 0.74648 0.524695
v -2.56326 -6.93177 -28.7282
vn 0.389614 0.804615 0.448103
v -2.56941 -6.91851 -28.7495
vn 0.366253 0.855001 0.367195
v -2.5765 -6.9074 -28.7717
vn 0.339365 0.897153 0.282751
v -2.58444 -6.89858 -28.7947
vn 0.309209 0.930665 0.195584
v -2.59316 -6.89211 -28.8181
vn 0.276075 0.955214 0.106533
v -2.60259 -6.88807 -28.8419
vn 0.240282 0.970564 0.0164566
v -2.61263 -6.88649 -28.8656
vn 0.202175 0.976566 -0.0737786
v -2.62317 -6.88739 -28.8892
vn 0.162122 0.973164 -0.163303
v -2.63413 -6.89075 -28.9124
vn 0.120506 0.96039 -0.251255
v -2.6454 -6.89655 -28.9349
vn 0.0777305 0.938367 -0.336787
v -2.65686 -6.90473 -28.9566
vn 0.0342061 0.907307 -0.419076
v -2.66841 -6.91521 -28.9772
vn -0.00964772 0.867508 -0.497329
v -2.67994 -6.92789 -28.9965
vn -0.0534086 0.819356 -0.570792
v -2.69133 -6.94265 -29.0144
vn -0.0966552 0.763312 -0.638758
v -2.70247 -6.95935 -29.0307
vn -0.138971 0.699918 -0.700573
v -2.71326 -6.97782 -29.0452
vn -0.179948 0.629782 -0.755641
v -2.7236 -6.99789 -29.0578
vn -0.219193 0.553582 -0.803431
v -2.73338 -7.01936 -29.0683
vn -0.256326 0.47205 -0.843484
v -2.74251 -7.04203 -29.0767
vn -0.290991 0.385973 -0.875414
v -2.7509 -7.06568 -29.0829
vn -0.322853 0.296178 -0.898913
v -2.75847 -7.09008 -29.0868
vn -0.351606 0.20353 -0.913755
v -2.76515 -7.11499 -29.0884
vn -0.376973 0.108923 -0.919797
v -2.77087 -7.14018 -29.0877
vn -0.39871 0.0132667 -0.916981
v -2.77559 -7.16541 -29.0846
vn -0.416607 -0.0825174 -0.905334
v -2.77924 -7.19043 -29.0793
vn -0.430491 -0.177507 -0.884968
v -2.78181 -7.21499 -29.0716
vn -0.44023 -0.270787 -0.856079
v -2.78326 -7.23887 -29.0619
vn -0.445729 -0.361459 -0.818946
v -2.78358 -7.26183 -29.05
vn -0.446936 -0.44865 -0.773926
v -2.78276 -7.28366 -29.0362
vn -0.443838 -0.53152 -0.721453
v -2.78082 -7.30414 -29.0205
vn -0.436466 -0.609272 -0.662031
v -2.77777 -7.32307 -29.0032
vn -0.42489 -0.681156 -0.596234
v -2.77364 -7.34027 -28.9844
vn -0.409223 -0.74648 -0.524695
v -2.76848 -7.35558 -28.9642
vn -0.389614 -0.804615 -0.448103
v -2.76233 -7.36885 -28.9429
vn -0.366253 -0.855001 -0.367195
v -2.75525 -7.37995 -28.9207
vn -0.339365 -0.897153 -0.282751
v -2.7473 -7.38878 -28.8977
vn -0.309209 -0.930665 -0.195584
v -2.73858 -7.39524 -28.8742
vn -0.276075 -0.955214 -0.106533
v -2.72915 -7.39928 -28.8505
vn -0.240282 -0.970564 -0.0164566
v -2.71912 -7.40087 -28.8268
vn -0.202175 -0.976566 0.0737786
v -2.70857 -7.39997 -28.8032
vn -0.162122 -0.973164 0.163303
v -2.69761 -7.39661 -28.78
vn -0.120506 -0.96039 0.251255
v -2.68634 -7.39081 -28.7575
vn -0.0777305 -0.938367 0.336787
v -2.67488 -7.38263 -28.7358
vn -0.0342061 -0.907307 0.419076
v -2.66333 -7.37214 -28.7152
vn 0.00964772 -0.867508 0.497329
v -2.65181 -7.35946 -28.6959
vn 0.0534086 -0.819356 0.570792
v -2.64042 -7.3447 -28.678
vn 0.0966552 -0.763312 0.638758
v -2.62927 -7.32801 -28.6617
vn 0.138971 -0.699918 0.700573
v -2.61848 -7.30954 -28.6472
vn 0.179948 -0.629782 0.755641
v -2.60814 -7.28947 -28.6346
vn 0.219193 -0.553582 0.803431
v -2.59837 -7.268 -28.6241
vn 0.256326 -0.47205 0.843484
v -2.58924 -7.24533 -28.6156
vn 0.290991 -0.385973 0.875414
v -1.75075 -7.41818 -28.9868
vn 0.363959 -0.305814 0.87978
v -1.74297 -7.39294 -28.9827
vn 0.392514 -0.21312 0.894714
v -1.73623 -7.36715 -28.981
vn 0.417289 -0.118374 0.901031
v -1.73058 -7.34104 -28.9816
vn 0.438045 -0.0224879 0.898672
v -1.72608 -7.31488 -28.9846
vn 0.454583 0.0736148 0.887657
v -1.72277 -7.28891 -28.99
vn 0.466743 0.169009 0.868094
v -1.72068 -7.26338 -28.9976
vn 0.474408 0.262775 0.840171
v -1.71984 -7.23854 -29.0074
vn 0.477504 0.35401 0.804156
v -1.72025 -7.21463 -29.0193
vn 0.476002 0.441836 0.760397
v -1.7219 -7.19188 -29.0332
vn 0.469915 0.525407 0.709315
v -1.72479 -7.17051 -29.049
vn 0.459303 0.603918 0.651401
v -1.72889 -7.15072 -29.0664
vn 0.444267 0.676613 0.587215
v -1.73414 -7.1327 -29.0854
vn 0.424953 0.742792 0.517373
v -1.74052 -7.11663 -29.1058
vn 0.401546 0.801817 0.442549
v -1.74794 -7.10266 -29.1274
vn 0.374273 0.853121 0.363462
v -1.75635 -7.09093 -29.1498
vn 0.343395 0.896208 0.280876
v -1.76565 -7.08155 -29.1731
vn 0.309209 0.930665 0.195584
v -1.77577 -7.07461 -29.1968
vn 0.272046 0.956158 0.108409
v -1.7866 -7.07018 -29.2208
vn 0.232263 0.972443 0.0201893
v -1.79804 -7.06829 -29.2449
vn 0.190243 0.979364 -0.0682244
v -1.80998 -7.06898 -29.2688
vn 0.146391 0.976852 -0.155981
v -1.8223 -7.07222 -29.2922
vn 0.101129 0.964933 -0.242236
v -1.83489 -7.078 -29.3151
vn 0.0548935 0.94372 -0.326157
v -1.84762 -7.08625 -29.3371
vn 0.00812906 0.91342 -0.406938
v -1.86037 -7.09689 -29.358
vn -0.0387137 0.874322 -0.483799
v -1.87303 -7.10983 -29.3777
vn -0.0851836 0.826805 -0.556002
v -1.88545 -7.12493 -29.3959
vn -0.130833 0.771324 -0.622849
v -1.89754 -7.14206 -29.4124
vn -0.175223 0.708416 -0.683699
v -1.90916 -7.16104 -29.4272
vn -0.217925 0.638685 -0.737964
v -1.92022 -7.1817 -29.44
vn -0.258528 0.562803 -0.785122
v -1.93059 -7.20383 -29.4508
vn -0.296642 0.481501 -0.824718
v -1.94019 -7.22723 -29.4594
vn -0.331898 0.395562 -0.856373
v -1.94892 -7.25166 -29.4658
vn -0.363959 0.305814 -0.87978
v -1.95669 -7.2769 -29.4699
vn -0.392514 0.21312 -0.894714
v -1.96344 -7.30269 -29.4716
vn -0.417289 0.118374 -0.901031
v -1.96909 -7.3288 -29.471
vn -0.438045 0.0224879 -0.898672
v -1.97359 -7.35496 -29.468
vn -0.454583 -0.0736148 -0.887657
v -1.9769 -7.38093 -29.4626
vn -0.466743 -0.169009 -0.868094
v -1.97899 -7.40646 -29.455
vn -0.474408 -0.262775 -0.840171
v -1.97983 -7.4313 -29.4452
vn -0.477504 -0.35401 -0.804156
v -1.97942 -7.45521 -29.4333
vn -0.476002 -0.441836 -0.760397
v -1.97777 -7.47796 -29.4194
vn -0.469915 -0.525407 -0.709315
v -1.97488 -7.49933 -29.4036
vn -0.459303 -0.603918 -0.651401
v -1.97078 -7.51912 -29.3862
vn -0.444267 -0.676613 -0.587215
v -1.96553 -7.53714 -29.3672
vn -0.424953 -0.742792 -0.517373
v -1.95915 -7.55321 -29.3468
vn -0.401546 -0.801817 -0.442549
v -1.95173 -7.56718 -29.3253
vn -0.374273 -0.853121 -0.363462
v -1.94332 -7.57891 -29.3028
vn -0.343395 -0.896208 -0.280876
v -1.93402 -7.58829 -29.2795
vn -0.309209 -0.930665 -0.195584
v -1.9239 -7.59523 -29.2558
vn -0.272046 -0.956158 -0.108409
v -1.91307 -7.59966 -29.2318
vn -0.232263 -0.972443 -0.0201893
v -1.90163 -7.60155 -29.2077
vn -0.190243 -0.979364 0.0682244
v -1.88969 -7.60086 -29.1838
vn -0.146391 -0.976852 0.155981
v -1.87737 -7.59762 -29.1604
vn -0.101129 -0.964933 0.242236
v -1.86478 -7.59184 -29.1375
vn -0.0548935 -0.94372 0.326157
v -1.85205 -7.58359 -29.1155
vn -0.00812906 -0.91342 0.406938
v -1.83929 -7.57295 -29.0946
vn 0.0387137 -0.874322 0.483799
v -1.82664 -7.56001 -29.0749
vn 0.0851836 -0.826805 0.556002
v -1.81422 -7.54491 -29.0567
vn 0.130833 -0.771324 0.622849
v -1.80213 -7.52778 -29.0402
vn 0.175223 -0.708416 0.683699
v -1.79051 -7.5088 -29.0254
vn 0.217925 -0.638685 0.737964
v -1.77945 -7.48814 -29.0126
vn 0.258528 -0.562803 0.785122
v -1.76908 -7.46601 -29.0018
vn 0.296642 -0.481501 0.824718
v -1.75948 -7.44261 -28.9932
vn 0.331898 -0.395562 0.856373
v -0.915712 -7.6063 -29.4118
vn 0.402351 -0.314374 0.859815
v -0.907737 -7.58023 -29.4076
vn 0.430722 -0.221639 0.874846
v -0.900927 -7.55356 -29.4057
vn 0.454944 -0.12677 0.881451
v -0.895349 -7.52654 -29.4062
vn 0.474785 -0.0306795 0.879567
v -0.891057 -7.49944 -29.4091
vn 0.490053 0.0657062 0.869213
v -0.888091 -7.47253 -29.4144
vn 0.500602 0.161459 0.850487
v -0.886481 -7.44604 -29.422
vn 0.50633 0.255657 0.823571
v -0.886241 -7.42025 -29.4318
vn 0.507182 0.347393 0.788723
v -0.887375 -7.3954 -29.4437
vn 0.503149 0.435783 0.74628
v -0.889871 -7.37174 -29.4577
vn 0.494271 0.519977 0.69665
v -0.893705 -7.34947 -29.4735
vn 0.480632 0.599163 0.64031
v -0.898841 -7.32883 -29.4911
vn 0.462365 0.672578 0.577804
v -0.905228 -7.31002 -29.5102
vn 0.439645 0.739516 0.509733
v -0.912806 -7.2932 -29.5307
vn 0.412691 0.799333 0.436753
v -0.9215 -7.27855 -29.5524
vn 0.381763 0.851451 0.359567
v -0.931229 -7.2662 -29.5751
vn 0.347158 0.895369 0.278919
v -0.941897 -7.25628 -29.5985
vn 0.309209 0.930665 0.195584
v -0.953403 -7.24888 -29.6225
vn 0.268283 0.956997 0.110365
v -0.965635 -7.24406 -29.6467
vn 0.224773 0.974113 0.0240841
v -0.978475 -7.24189 -29.6711
vn 0.179098 0.981848 -0.0624291
v -0.991801 -7.24237 -29.6952
vn 0.131699 0.980128 -0.148341
v -1.00548 -7.24551 -29.719
vn 0.0830312 0.968968 -0.232825
v -1.01939 -7.25127 -29.7421
vn 0.0335638 0.948476 -0.315066
v -1.03339 -7.2596 -29.7644
vn -0.0162269 0.91885 -0.394273
v -1.04734 -7.27042 -29.7856
vn -0.0658613 0.880375 -0.469683
v -1.06112 -7.28362 -29.8055
vn -0.114861 0.833422 -0.540569
v -1.07458 -7.29907 -29.8239
vn -0.162755 0.778442 -0.60625
v -1.0876 -7.31664 -29.8408
vn -0.209082 0.715965 -0.666092
v -1.10006 -7.33614 -29.8558
vn -0.253395 0.646594 -0.719519
v -1.11183 -7.35739 -29.8689
vn -0.295267 0.570995 -0.766017
v -1.12281 -7.38019 -29.8799
vn -0.334296 0.489897 -0.805138
v -1.13287 -7.40432 -29.8887
vn -0.370106 0.404081 -0.836505
v -1.14194 -7.42954 -29.8952
vn -0.402351 0.314374 -0.859815
v -1.14991 -7.45561 -29.8995
vn -0.430722 0.221639 -0.874846
v -1.15672 -7.48228 -29.9013
vn -0.454944 0.12677 -0.881451
v -1.1623 -7.50929 -29.9008
vn -0.474785 0.0306795 -0.879567
v -1.16659 -7.53639 -29.8979
vn -0.490053 -0.0657062 -0.869213
v -1.16956 -7.56331 -29.8926
vn -0.500602 -0.161459 -0.850487
v -1.17117 -7.58979 -29.885
vn -0.50633 -0.255657 -0.823571
v -1.17141 -7.61558 -29.8752
vn -0.507182 -0.347393 -0.788723
v -1.17028 -7.64043 -29.8633
vn -0.503149 -0.435783 -0.74628
v -1.16778 -7.6641 -29.8494
vn -0.494271 -0.519977 -0.69665
v -1.16395 -7.68636 -29.8335
vn -0.480632 -0.599163 -0.64031
v -1.15881 -7.707 -29.8159
vn -0.462365 -0.672578 -0.577804
v -1.15242 -7.72582 -29.7968
vn -0.439645 -0.739516 -0.509733
v -1.14485 -7.74263 -29.7763
vn -0.412691 -0.799333 -0.436753
v -1.13615 -7.75728 -29.7546
vn -0.381763 -0.851451 -0.359567
v -1.12642 -7.76963 -29.7319
vn -0.347158 -0.895369 -0.278919
v -1.11575 -7.77955 -29.7085
vn -0.309209 -0.930665 -0.195584
v -1.10425 -7.78696 -29.6845
vn -0.268283 -0.956997 -0.110365
v -1.09202 -7.79177 -29.6603
vn -0.224773 -0.974113 -0.0240841
v -1.07918 -7.79394 -29.636
vn -0.179098 -0.981848 0.0624291
v -1.06585 -7.79346 -29.6118
vn -0.131699 -0.980128 0.148341
v -1.05217 -7.79032 -29.5881
vn -0.0830312 -0.968968 0.232825
v -1.03826 -7.78456 -29.5649
vn -0.0335638 -0.948476 0.315066
v -1.02426 -7.77623 -29.5427
vn 0.0162269 -0.91885 0.394273
v -1.01031 -7.76542 -29.5215
vn 0.0658613 -0.880375 0.469683
v -0.996534 -7.75222 -29.5015
vn 0.114861 -0.833422 0.540569
v -0.98307 -7.73676 -29.4831
vn 0.162755 -0.778442 0.60625
v -0.970046 -7.7192 -29.4663
vn 0.209082 -0.715965 0.666092
v -0.957589 -7.69969 -29.4512
vn 0.253395 -0.646594 0.719519
v -0.945817 -7.67844 -29.4382
vn 0.295267 -0.570995 0.766017
v -0.934845 -7.65564 -29.4272
vn 0.334296 -0.489897 0.805138
v -0.924778 -7.63152 -29.4183
vn 0.370106 -0.404081 0.836505
f 1 66 2 
f 1 65 66 
f 2 67 3 
f 2 66 67 
f 3 68 4 
f 3 67 68 
f 4 69 5 
f 4 68 69 
f 5 70 6 
f 5 69 70 
f 6 71 7 
f 6 70 71 
f 7 72 8 
f 7 71 72 
f 8 73 9 
f 8 72 73 
f 9 74 10 
f 9 73 74 
f 10 75 11 
f 10 74 75 
f 11 76 12 
f 11 75 76 
f 12 77 13 
f 12 76 77 
f 13 78 14 
f 13 77 78 
f 14 79 15 
f 14 78 79 
f 15 80 16 
f 15 79 80 
f 16 81 17 
f 16 80 81 
f 17 82 18 
f 17 81 82 
f 18 83 19 
f 18 82 83 
f 19 84 20 
f 19 83 84 
f 20 85 21 
f 20 84 85 
f 21 86 22 
f 21 85 86 
f 22 87 23 
f 22 86 87 
f 23 88 24 
f 23 87 88 
f 24 89 25 
f 24 88 89 
f 25 90 26 
f 25 89 90 
f 26 91 27 
f 26 90 91 
f 27 92 28 
f 27 91 92 
f 28 93 29 
f 28 92 93 
f 29 94 30 
f 29 93 94 
f 30 95 31 
f 30 94 95 
f 31 96 32 
f 31 95 96 
f 32 97 33 
f 32 96 97 
f 33 98 34 
f 33 97 98 
f 34 99 35 
f 34 98 99 
f 35 100 36 
f 35 99 100 
f 36 101 37 
f 36 100 101 
f 37 102 38 
f 37 101 102 
f 38 103 39 
f 38 102 103 
f 39 104 40 
f 39 103 104 
f 40 105 41 
f 40 104 105 
f 41 106 42 
f 41 105 106 
f 42 107 43 
f 42 106 107 
f 43 108 44 
f 43 107 108 
f 44 109 45 
f 44 108 109 
f 45 110 46 
f 45 109 110 
f 46 111 47 
f 46 110 111 
f 47 112 48 
f 47 111 112 
f 48 113 49 
f 48 112 113 
f 49 114 50 
f 49 113 114 
f 50 115 51 
f 50 114 115 
f 51 116 52 
f 51 115 116 
f 52 117 53 
f 52 116 117 
f 53 118 54 
f 53 117 118 
f 54 119 55 
f 54 118 119 
f 55 120 56 
f 55 119 120 
f 56 121 57 
f 56 120 121 
f 57 122 58 
f 57 121 122 
f 58 123 59 
f 58 122 123 
f 59 124 60 
f 59 123 124 
f 60 125 61 
f 60 124 125 
f 61 126 62 
f 61 125 126 
f 62 127 63 
f 62 126 127 
f 63 128 64 
f 63 127 128 
f 64 65 1 
f 64 128 65 
f 65 130 66 
f 65 129 130 
f 66 131 67 
f 66 130 131 
f 67 132 68 
f 67 131 132 
f 68 133 69 
f 68 132 133 
f 69 134 70 
f 69 133 134 
f 70 135 71 
f 70 134 135 
f 71 136 72 
f 71 135 136 
f 72 137 73 
f 72 136 137 
f 73 138 74 
f 73 137 138 
f 74 139 75 
f 74 138 139 
f 75 140 76 
f 75 139 140 
f 76 141 77 
f 76 140 141 
f 77 142 78 
f 77 141 142 
f 78 143 79 
f 78 142 143 
f 79 144 80 
f 79 143 144 
f 80 145 81 
f 80 144 145 
f 81 146 82 
f 81 145 146 
f 82 147 83 
f 82 146 147 
f 83 148 84 
f 83 147 148 
f 84 149 85 
f 84 148 149 
f 85 150 86 
f 85 149 150 
f 86 151 87 
f 86 150 151 
f 87 152 88 
f 87 151 152 
f 88 153 89 
f 88 152 153 
f 89 154 90 
f 89 153 154 
f 90 155 91 
f 90 154 155 
f 91 156 92 
f 91 155 156 
f 92 157 93 
f 92 156 157 
f 93 158 94 
f 93 157 158 
f 94 159 95 
f 94 158 159 
f 95 160 96 
f 95 159 160 
f 96 161 97 
f 96 160 161 
f 97 162 98 
f 97 161 162 
f 98 163 99 
f 98 162 163 
f 99 164 100 
f 99 163 164 
f 100 165 101 
f 100 164 165 
f 101 166 102 
f 101 165 166 
f 102 167 103 
f 102 166 167 
f 103 168 104 
f 103 167 168 
f 104 169 105 
f 104 168 169 
f 105 170 106 
f 105 169 170 
f 106 171 107 
f 106 170 171 
f 107 172 108 
f 107 171 172 
f 108 173 109 
f 108 172 173 
f 109 174 110 
f 109 173 174 
f 110 175 111 
f 110 174 175 
f 111 176 112 
f 111 175 176 
f 112 177 113 
f 112 176 177 
f 113 178 114 
f 113 177 178 
f 114 179 115 
f 114 178 179 
f 115 180 116 
f 115 179 180 
f 116 181 117 
f 116 180 181 
f 117 182 118 
f 117 181 182 
f 118 183 119 
f 118 182 183 
f 119 184 120 
f 119 183 184 
f 120 185 121 
f 120 184 185 
f 121 186 122 
f 121 185 186 
f 122 187 123 
f 122 186 187 
f 123 188 124 
f 123 187 188 
f 124 189 125 
f 124 188 189 
f 125 190 126 
f 125 189 190 
f 126 191 127 
f 126 190 191 
f 127 192 128 
f 127 191 192 
f 128 129 65 
f 128 192 129 
f 129 194 130 
f 129 193 194 
f 130 195 131 
f 130 194 195 
f 131 196 132 
f 131 195 196 
f 132 197 133 
f 132 196 197 
f 133 198 134 
f 133 197 198 
f 134 199 135 
f 134 198 199 
f 135 200 136 
f 135 199 200 
f 136 201 137 
f 136 200 201 
f 137 202 138 
f 137 201 202 
f 138 203 139 
f 138 202 203 
f 139 204 140 
f 139 203 204 
f 140 205 141 
f 140 204 205 
f 141 206 142 
f 141 205 206 
f 142 207 143 
f 142 206 207 
f 143 208 144 
f 143 207 208 
f 144 209 145 
f 144 208 209 
f 145 210 146 
f 145 209 210 
f 146 211 147 
f 146 210 211 
f 147 212 148 
f 147 211 212 
f 148 213 149 
f 148 212 213 
f 149 214 150 
f 149 213 214 
f 150 215 151 
f 150 214 215 
f 151 216 152 
f 151 215 216 
f 152 217 153 
f 152 216 217 
f 153 218 154 
f 153 217 218 
f 154 219 155 
f 154 218 219 
f 155 220 156 
f 155 219 220 
f 156 221 157 
f 156 220 221 
f 157 222 158 
f 157 221 222 
f 158 223 159 
f 158 222 223 
f 159 224 160 
f 159 223 224 
f 160 225 161 
f 160 224 225 
f 161 226 162 
f 161 225 226 
f 162 227 163 
f 162 226 227 
f 163 228 164 
f 163 227 228 
f 164 229 165 
f 164 228 229 
f 165 230 166 
f 165 229 230 
f 166 231 167 
f 166 230 231 
f 167 232 168 
f 167 231 232 
f 168 233 169 
f 168 232 233 
f 169 234 170 
f 169 233 234 
f 170 235 171 
f 170 234 235 
f 171 236 172 
f 171 235 236 
f 172 237 173 
f 172 236 237 
f 173 238 174 
f 173 237 238 
f 174 239 175 
f 174 238 239 
f 175 240 176 
f 175 239 240 
f 176 241 177 
f 176 240 241 
f 177 242 178 
f 177 241 242 
f 178 243 179 
f 178 242 243 
f 179 244 180 
f 179 243 244 
f 180 245 181 
f 180 244 245 
f 181 246 182 
f 181 245 246 
f 182 247 183 
f 182 246 247 
f 183 248 184 
f 183 247 248 
f 184 249 185 
f 184 248 249 
f 185 250 186 
f 185 249 250 
f 186 251 187 
f 186 250 251 
f 187 252 188 
f 187 251 252 
f 188 253 189 
f 188 252 253 
f 189 254 190 
f 189 253 254 
f 190 255 191 
f 190 254 255 
f 191 256 192 
f 191 255 256 
f 192 193 129 
f 192 256 193 
f 193 258 194 
f 193 257 258 
f 194 259 195 
f 194 258 259 
f 195 260 196 
f 195 259 260 
f 196 261 197 
f 196 260 261 
f 197 262 198 
f 197 261 262 
f 198 263 199 
f 198 262 263 
f 199 264 200 
f 199 263 264 
f 200 265 201 
f 200 264 265 
f 201 266 202 
f 201 265 266 
f 202 267 203 
f 202 266 267 
f 203 268 204 
f 203 267 268 
f 204 269 205 
f 204 268 269 
f 205 270 206 
f 205 269 270 
f 206 271 207 
f 206 270 271 
f 207 272 208 
f 207 271 272 
f 208 273 209 
f 208 272 273 
f 209 274 210 
f 209 273 274 
f 210 275 211 
f 210 274 275 
f 211 276 212 
f 211 275 276 
f 212 277 213 
f 212 276 277 
f 213 278 214 
f 213 277 278 
f 214 279 215 
f 214 278 279 
f 215 280 216 
f 215 279 280 
f 216 281 217 
f 216 280 281 
f 217 282 218 
f 217 281 282 
f 218 283 219 
f 218 282 283 
f 219 284 220 
f 219 283 284 
f 220 285 221 
f 220 284 285 
f 221 286 222 
f 221 285 286 
f 222 287 223 
f 222 286 287 
f 223 288 224 
f 223 287 288 
f 224 289 225 
f 224 288 289 
f 225 290 226 
f 225 289 290 
f 226 291 227 
f 226 290 291 
f 227 292 228 
f 227 291 292 
f 228 293 229 
f 228 292 293 
f 229 294 230 
f 229 293 294 
f 230 295 231 
f 230 294 295 
f 231 296 232 
f 231 295 296 
f 232 297 233 
f 232 296 297 
f 233 298 234 
f 233 297 298 
f 234 299 235 
f 234 298 299 
f 235 300 236 
f 235 299 300 
f 236 301 237 
f 236 300 301 
f 237 302 238 
f 237 301 302 
f 238 303 239 
f 238 302 303 
f 239 304 240 
f 239 303 304 
f 240 305 241 
f 240 304 305 
f 241 306 242 
f 241 305 306 
f 242 307 243 
f 242 306 307 
f 243 308 244 
f 243 307 308 
f 244 309 245 
f 244 308 309 
f 245 310 246 
f 245 309 310 
f 246 311 247 
f 246 310 311 
f 247 312 248 
f 247 311 312 
f 248 313 249 
f 248 312 313 
f 249 314 250 
f 249 313 314 
f 250 315 251 
f 250 314 315 
f 251 316 252 
f 251 315 316 
f 252 317 253 
f 252 316 317 
f 253 318 254 
f 253 317 318 
f 254 319 255 
f 254 318 319 
f 255 320 256 
f 255 319 320 
f 256 257 193 
f 256 320 257 
f 257 322 258 
f 257 321 322 
f 258 323 259 
f 258 322 323 
f 259 324 260 
f 259 323 324 
f 260 325 261 
f 260 324 325 
f 261 326 262 
f 261 325 326 
f 262 327 263 
f 262 326 327 
f 263 328 264 
f 263 327 328 
f 264 329 265 
f 264 328 329 
f 265 330 266 
f 265 329 330 
f 266 331 267 
f 266 330 331 
f 267 332 268 
f 267 331 332 
f 268 333 269 
f 268 332 333 
f 269 334 270 
f 269 333 334 
f 270 335 271 
f 270 334 335 
f 271 336 272 
f 271 335 336 
f 272 337 273 
f 272 336 337 
f 273 338 274 
f 273 337 338 
f 274 339 275 
f 274 338 339 
f 275 340 276 
f 275 339 340 
f 276 341 277 
f 276 340 341 
f 277 342 278 
f 277 341 342 
f 278 343 279 
f 278 342 343 
f 279 344 280 
f 279 343 344 
f 280 345 281 
f 280 344 345 
f 281 346 282 
f 281 345 346 
f 282 347 283 
f 282 346 347 
f 283 348 284 
f 283 347 348 
f 284 349 285 
f 284 348 349 
f 285 350 286 
f 285 349 350 
f 286 351 287 
f 286 350 351 
f 287 352 288 
f 287 351 352 
f 288 353 289 
f 288 352 353 
f 289 354 290 
f 289 353 354 
f 290 355 291 
f 290 354 355 
f 291 356 292 
f 291 355 356 
f 292 357 293 
f 292 356 357 
f 293 358 294 
f 293 357 358 
f 294 359 295 
f 294 358 359 
f 295 360 296 
f 295 359 360 
f 296 361 297 
f 296 360 361 
f 297 362 298 
f 297 361 362 
f 298 363 299 
f 298 362 363 
f 299 364 300 
f 299 363 364 
f 300 365 301 
f 300 364 365 
f 301 366 302 
f 301 365 366 
f 302 367 303 
f 302 366 367 
f 303 368 304 
f 303 367 368 
f 304 369 305 
f 304 368 369 
f 305 370 306 
f 305 369 370 
f 306 371 307 
f 306 370 371 
f 307 372 308 
f 307 371 372 
f 308 373 309 
f 308 372 373 
f 309 374 310 
f 309 373 374 
f 310 375 311 
f 310 374 375 
f 311 376 312 
f 311 375 376 
f 312 377 313 
f 312 376 377 
f 313 378 314 
f 313 377 378 
f 314 379 315 
f 314 378 379 
f 315 380 316 
f 315 379 380 
f 316 381 317 
f 316 380 381 
f 317 382 318 
f 317 381 382 
f 318 383 319 
f 318 382 383 
f 319 384 320 
f 319 383 384 
f 320 321 257 
f 320 384 321 
f 321 386 322 
f 321 385 386 
f 322 387 323 
f 322 386 387 
f 323 388 324 
f 323 387 388 
f 324 389 325 
f 324 388 389 
f 325 390 326 
f 325 389 390 
f 326 391 327 
f 326 390 391 
f 327 392 328 
f 327 391 392 
f 328 393 329 
f 328 392 393 
f 329 394 330 
f 329 393 394 
f 330 395 331 
f 330 394 395 
f 331 396 332 
f 331 395 396 
f 332 397 333 
f 332 396 397 
f 333 398 334 
f 333 397 398 
f 334 399 335 
f 334 398 399 
f 335 400 336 
f 335 399 400 
f 336 401 337 
f 336 400 401 
f 337 402 338 
f 337 401 402 
f 338 403 339 
f 338 402 403 
f 339 404 340 
f 339 403 404 
f 340 405 341 
f 340 404 405 
f 341 406 342 
f 341 405 406 
f 342 407 343 
f 342 406 407 
f 343 408 344 
f 343 407 408 
f 344 409 345 
f 344 408 409 
f 345 410 346 
f 345 409 410 
f 346 411 347 
f 346 410 411 
f 347 412 348 
f 347 411 412 
f 348 413 349 
f 348 412 413 
f 349 414 350 
f 349 413 414 
f 350 415 351 
f 350 414 415 
f 351 416 352 
f 351 415 416 
f 352 417 353 
f 352 416 417 
f 353 418 354 
f 353 417 418 
f 354 419 355 
f 354 418 419 
f 355 420 356 
f 355 419 420 
f 356 421 357 
f 356 420 421 
f 357 422 358 
f 357 421 422 
f 358 423 359 
f 358 422 423 
f 359 424 360 
f 359 423 424 
f 360 425 361 
f 360 424 425 
f 361 426 362 
f 361 425 426 
f 362 427 363 
f 362 426 427 
f 363 428 364 
f 363 427 428 
f 364 429 365 
f 364 428 429 
f 365 430 366 
f 365 429 430 
f 366 431 367 
f 366 430 431 
f 367 432 368 
f 367 431 432 
f 368 433 369 
f 368 432 433 
f 369 434 370 
f 369 433 434 
f 370 435 371 
f 370 434 435 
f 371 436 372 
f 371 435 436 
f 372 437 373 
f 372 436 437 
f 373 438 374 
f 373 437 438 
f 374 439 375 
f 374 438 439 
f 375 440 376 
f 375 439 440 
f 376 441 377 
f 376 440 441 
f 377 442 378 
f 377 441 442 
f 378 443 379 
f 378 442 443 
f 379 444 380 
f 379 443 444 
f 380 445 381 
f 380 444 445 
f 381 446 382 
f 381 445 446 
f 382 447 383 
f 382 446 447 
f 383 448 384 
f 383 447 448 
f 384 385 321 
f 384 448 385 
f 385 450 386 
f 385 449 450 
f 386 451 387 
f 386 450 451 
f 387 452 388 
f 387 451 452 
f 388 453 389 
f 388 452 453 
f 389 454 390 
f 389 453 454 
f 390 455 391 
f 390 454 455 
f 391 456 392 
f 391 455 456 
f 392 457 393 
f 392 456 457 
f 393 458 394 
f 393 457 458 
f 394 459 395 
f 394 458 459 
f 395 460 396 
f 395 459 460 
f 396 461 397 
f 396 460 461 
f 397 462 398 
f 397 461 462 
f 398 463 399 
f 398 462 463 
f 399 464 400 
f 399 463 464 
f 400 465 401 
f 400 464 465 
f 401 466 402 
f 401 465 466 
f 402 467 403 
f 402 466 467 
f 403 468 404 
f 403 467 468 
f 404 469 405 
f 404 468 469 
f 405 470 406 
f 405 469 470 
f 406 471 407 
f 406 470 471 
f 407 472 408 
f 407 471 472 
f 408 473 409 
f 408 472 473 
f 409 474 410 
f 409 473 474 
f 410 475 411 
f 410 474 475 
f 411 476 412 
f 411 475 476 
f 412 477 413 
f 412 476 477 
f 413 478 414 
f 413 477 478 
f 414 479 415 
f 414 478 479 
f 415 480 416 
f 415 479 480 
f 416 481 417 
f 416 480 481 
f 417 482 418 
f 417 481 482 
f 418 483 419 
f 418 482 483 
f 419 484 420 
f 419 483 484 
f 420 485 421 
f 420 484 485 
f 421 486 422 
f 421 485 486 
f 422 487 423 
f 422 486 487 
f 423 488 424 
f 423 487 488 
f 424 489 425 
f 424 488 489 
f 425 490 426 
f 425 489 490 
f 426 491 427 
f 426 490 491 
f 427 492 428 
f 427 491 492 
f 428 493 429 
f 428 492 493 
f 429 494 430 
f 429 493 494 
f 430 495 431 
f 430 494 495 
f 431 496 432 
f 431 495 496 
f 432 497 433 
f 432 496 497 
f 433 498 434 
f 433 497 498 
f 434 499 435 
f 434 498 499 
f 435 500 436 
f 435 499 500 
f 436 501 437 
f 436 500 501 
f 437 502 438 
f 437 501 502 
f 438 503 439 
f 438 502 503 
f 439 504 440 
f 439 503 504 
f 440 505 441 
f 440 504 505 
f 441 506 442 
f 441 505 506 
f 442 507 443 
f 442 506 507 
f 443 508 444 
f 443 507 508 
f 444 509 445 
f 444 508 509 
f 445 510 446 
f 445 509 510 
f 446 511 447 
f 446 510 511 
f 447 512 448 
f 447 511 512 
f 448 449 385 
f 448 512 449 
f 449 514 450 
f 449 513 514 
f 450 515 451 
f 450 514 515 
f 451 516 452 
f 451 515 516 
f 452 517 453 
f 452 516 517 
f 453 518 454 
f 453 517 518 
f 454 519 455 
f 454 518 519 
f 455 520 456 
f 455 519 520 
f 456 521 457 
f 456 520 521 
f 457 522 458 
f 457 521 522 
f 458 523 459 
f 458 522 523 
f 459 524 460 
f 459 523 524 
f 460 525 461 
f 460 524 525 
f 461 526 462 
f 461 525 526 
f 462 527 463 
f 462 526 527 
f 463 528 464 
f 463 527 528 
f 464 529 465 
f 464 528 529 
f 465 530 466 
f 465 529 530 
f 466 531 467 
f 466 530 531 
f 467 532 468 
f 467 531 532 
f 468 533 469 
f 468 532 533 
f 469 534 470 
f 469 533 534 
f 470 535 471 
f 470 534 535 
f 471 536 472 
f 471 535 536 
f 472 537 473 
f 472 536 537 
f 473 538 474 
f 473 537 538 
f 474 539 475 
f 474 538 539 
f 475 540 476 
f 475 539 540 
f 476 541 477 
f 476 540 541 
f 477 542 478 
f 477 541 542 
f 478 543 479 
f 478 542 543 
f 479 544 480 
f 479 543 544 
f 480 545 481 
f 480 544 545 
f 481 546 482 
f 481 545 546 
f 482 547 483 
f 482 546 547 
f 483 548 484 
f 483 547 548 
f 484 549 485 
f 484 548 549 
f 485 550 486 
f 485 549 550 
f 486 551 487 
f 486 550 551 
f 487 552 488 
f 487 551 552 
f 488 553 489 
f 488 552 553 
f 489 554 490 
f 489 553 554 
f 490 555 491 
f 490 554 555 
f 491 556 492 
f 491 555 556 
f 492 557 493 
f 492 556 557 
f 493 558 494 
f 493 557 558 
f 494 559 495 
f 494 558 559 
f 495 560 496 
f 495 559 560 
f 496 561 497 
f 496 560 561 
f 497 562 498 
f 497 561 562 
f 498 563 499 
f 498 562 563 
f 499 564 500 
f 499 563 564 
f 500 565 501 
f 500 564 565 
f 501 566 502 
f 501 565 566 
f 502 567 503 
f 502 566 567 
f 503 568 504 
f 503 567 568 
f 504 569 505 
f 504 568 569 
f 505 570 506 
f 505 569 570 
f 506 571 507 
f 506 570 571 
f 507 572 508 
f 507 571 572 
f 508 573 509 
f 508 572 573 
f 509 574 510 
f 509 573 574 
f 510 575 511 
f 510 574 575 
f 511 576 512 
f 511 575 576 
f 512 513 449 
f 512 576 513 
f 513 578 514 
f 513 577 578 
f 514 579 515 
f 514 578 579 
f 515 580 516 
f 515 579 580 
f 516 581 517 
f 516 580 581 
f 517 582 518 
f 517 581 582 
f 518 583 519 
f 518 582 583 
f 519 584 520 
f 519 583 584 
f 520 585 521 
f 520 584 585 
f 521 586 522 
f 521 585 586 
f 522 587 523 
f 522 586 587 
f 523 588 524 
f 523 587 588 
f 524 589 525 
f 524 588 589 
f 525 590 526 
f 525 589 590 
f 526 591 527 
f 526 590 591 
f 527 592 528 
f 527 591 592 
f 528 593 529 
f 528 592 593 
f 529 594 530 
f 529 593 594 
f 530 595 531 
f 530 594 595 
f 531 596 532 
f 531 595 596 
f 532 597 533 
f 532 596 597 
f 533 598 534 
f 533 597 598 
f 534 599 535 
f 534 598 599 
f 535 600 536 
f 535 599 600 
f 536 601 537 
f 536 600 601 
f 537 602 538 
f 537 601 602 
f 538 603 539 
f 538 602 603 
f 539 604 540 
f 539 603 604 
f 540 605 541 
f 540 604 605 
f 541 606 542 
f 541 605 606 
f 542 607 543 
f 542 606 607 
f 543 608 544 
f 543 607 608 
f 544 609 545 
f 544 608 609 
f 545 610 546 
f 545 609 610 
f 546 611 547 
f 546 610 611 
f 547 612 548 
f 547 611 612 
f 548 613 549 
f 548 612 613 
f 549 614 550 
f 549 613 614 
f 550 615 551 
f 550 614 615 
f 551 616 552 
f 551 615 616 
f 552 617 553 
f 552 616 617 
f 553 618 554 
f 553 617 618 
f 554 619 555 
f 554 618 619 
f 555 620 556 
f 555 619 620 
f 556 621 557 
f 556 620 621 
f 557 622 558 
f 557 621 622 
f 558 623 559 
f 558 622 623 
f 559 624 560 
f 559 623 624 
f 560 625 561 
f 560 624 625 
f 561 626 562 
f 561 625 626 
f 562 627 563 
f 562 626 627 
f 563 628 564 
f 563 627 628 
f 564 629 565 
f 564 628 629 
f 565 630 566 
f 565 629 630 
f 566 631 567 
f 566 630 631 
f 567 632 568 
f 567 631 632 
f 568 633 569 
f 568 632 633 
f 569 634 570 
f 569 633 634 
f 570 635 571 
f 570 634 635 
f 571 636 572 
f 571 635 636 
f 572 637 573 
f 572 636 637 
f 573 638 574 
f 573 637 638 
f 574 639 575 
f 574 638 639 
f 575 640 576 
f 575 639 640 
f 576 577 513 
f 576 640 577 
