# Branch
v -6.10429 -0.471532 -27.306
vn -0.0789129 0.138959 0.987149
v -6.10123 -0.463458 -27.3074
vn -0.0445611 0.22967 0.972248
v -6.09814 -0.455582 -27.3095
vn -0.0097801 0.318169 0.947984
v -6.09503 -0.447978 -27.3125
vn 0.0250951 0.403604 0.91459
v -6.09195 -0.44072 -27.3162
vn 0.0597286 0.485152 0.872388
v -6.08892 -0.433878 -27.3208
vn 0.0937869 0.562027 0.821784
v -6.08597 -0.427517 -27.326
vn 0.126942 0.63349 0.763267
v -6.08313 -0.4217 -27.3318
vn 0.158874 0.698852 0.697398
v -6.08042 -0.416482 -27.3383
vn 0.189277 0.757484 0.624813
v -6.07788 -0.411913 -27.3453
vn 0.217857 0.808821 0.546211
v -6.07552 -0.408037 -27.3527
vn 0.244338 0.852369 0.462349
v -6.07337 -0.404892 -27.3606
vn 0.268467 0.887707 0.374034
v -6.07146 -0.402507 -27.3688
vn 0.29001 0.914497 0.282117
v -6.06979 -0.400907 -27.3772
vn 0.30876 0.932479 0.187483
v -6.06838 -0.400106 -27.3858
vn 0.324536 0.941481 0.0910431
v -6.06726 -0.400111 -27.3945
vn 0.337187 0.941417 -0.00627334
v -6.06642 -0.400924 -27.4031
vn 0.346591 0.932286 -0.103529
v -6.06588 -0.402536 -27.4117
vn 0.352657 0.914176 -0.199788
v -6.06564 -0.404931 -27.4201
vn 0.355327 0.887262 -0.294123
v -6.06571 -0.408087 -27.4282
vn 0.354574 0.851804 -0.385626
v -6.06608 -0.411973 -27.436
vn 0.350407 0.808142 -0.473414
v -6.06675 -0.416552 -27.4434
vn 0.342865 0.756698 -0.556644
v -6.06772 -0.421779 -27.4504
vn 0.332022 0.697966 -0.634512
v -6.06897 -0.427605 -27.4568
vn 0.31798 0.632512 -0.70627
v -6.07049 -0.433972 -27.4625
vn 0.300877 0.560967 -0.771226
v -6.07227 -0.440821 -27.4677
vn 0.280876 0.484019 -0.828755
v -6.07429 -0.448084 -27.4721
vn 0.258169 0.40241 -0.878302
v -6.07653 -0.455692 -27.4757
vn 0.232977 0.316925 -0.919391
v -6.07897 -0.463572 -27.4786
vn 0.205541 0.228389 -0.951626
v -6.08159 -0.471648 -27.4806
vn 0.176125 0.137653 -0.974696
v -6.08436 -0.479842 -27.4819
vn 0.145013 0.045591 -0.988379
v -6.08725 -0.488074 -27.4822
vn 0.112505 -0.0469099 -0.992543
v -6.09024 -0.496267 -27.4818
vn 0.0789129 -0.138959 -0.987149
v -6.0933 -0.50434 -27.4804
vn 0.0445611 -0.22967 -0.972248
v -6.0964 -0.512217 -27.4783
vn 0.0097801 -0.318169 -0.947984
v -6.0995 -0.519821 -27.4753
vn -0.0250951 -0.403604 -0.91459
v -6.10258 -0.527079 -27.4715
vn -0.0597286 -0.485152 -0.872388
v -6.10561 -0.533921 -27.467
vn -0.0937869 -0.562027 -0.821784
v -6.10856 -0.540281 -27.4618
vn -0.126942 -0.63349 -0.763267
v -6.11141 -0.546099 -27.456
vn -0.158874 -0.698852 -0.697398
v -6.11411 -0.551317 -27.4495
vn -0.189277 -0.757484 -0.624813
v -6.11666 -0.555886 -27.4425
vn -0.217857 -0.808821 -0.546211
v -6.11901 -0.559762 -27.435
vn -0.244338 -0.852369 -0.462349
v -6.12116 -0.562907 -27.4272
vn -0.268467 -0.887707 -0.374034
v -6.12308 -0.565291 -27.419
vn -0.29001 -0.914497 -0.282117
v -6.12475 -0.566892 -27.4106
vn -0.30876 -0.932479 -0.187483
v -6.12615 -0.567693 -27.402
vn -0.324536 -0.941481 -0.0910431
v -6.12728 -0.567687 -27.3933
vn -0.337187 -0.941417 0.00627334
v -6.12811 -0.566875 -27.3847
vn -0.346591 -0.932286 0.103529
v -6.12865 -0.565263 -27.3761
vn -0.352657 -0.914176 0.199788
v -6.12889 -0.562867 -27.3677
vn -0.355327 -0.887262 0.294123
v -6.12882 -0.559712 -27.3596
vn -0.354574 -0.851804 0.385626
v -6.12845 -0.555826 -27.3518
vn -0.350407 -0.808142 0.473414
v -6.12778 -0.551247 -27.3443
vn -0.342865 -0.756698 0.556644
v -6.12682 -0.54602 -27.3374
vn -0.332022 -0.697966 0.634512
v -6.12557 -0.540194 -27.331
vn -0.31798 -0.632512 0.70627
v -6.12405 -0.533826 -27.3253
vn -0.300877 -0.560967 0.771226
v -6.12227 -0.526978 -27.3201
vn -0.280876 -0.484019 0.828755
v -6.12024 -0.519715 -27.3157
vn -0.258169 -0.40241 0.878302
v -6.118 -0.512106 -27.3121
vn -0.232977 -0.316925 0.919391
v -6.11556 -0.504226 -27.3092
vn -0.205541 -0.228389 0.951626
v -6.11294 -0.496151 -27.3071
vn -0.176125 -0.137653 0.974696
v -6.11017 -0.487957 -27.3059
vn -0.145013 -0.045591 0.988379
v -6.10728 -0.479724 -27.3056
vn -0.112505 0.0469099 0.992543
v -5.74302 -0.609577 -27.3397
vn 0.327787 -0.016963 0.944599
v -5.74007 -0.601245 -27.341
vn 0.360181 0.0744987 0.929903
v -5.73743 -0.592979 -27.3432
vn 0.389105 0.165243 0.906251
v -5.73514 -0.584858 -27.3461
vn 0.414283 0.254396 0.873872
v -5.73321 -0.576959 -27.3498
vn 0.435471 0.341098 0.833077
v -5.73166 -0.569361 -27.3543
vn 0.452464 0.424516 0.784259
v -5.73051 -0.562134 -27.3594
vn 0.465101 0.503846 0.727888
v -5.72977 -0.55535 -27.3652
vn 0.473258 0.578323 0.664507
v -5.72944 -0.549073 -27.3716
vn 0.476857 0.647231 0.594726
v -5.72953 -0.543363 -27.3784
vn 0.475865 0.709905 0.519218
v -5.73004 -0.538277 -27.3858
vn 0.470289 0.765743 0.43871
v -5.73096 -0.533862 -27.3935
vn 0.460184 0.814206 0.353976
v -5.73228 -0.530162 -27.4015
vn 0.445647 0.854828 0.265834
v -5.734 -0.527211 -27.4098
vn 0.426819 0.887218 0.175131
v -5.73609 -0.525039 -27.4182
vn 0.403879 0.911063 0.0827421
v -5.73853 -0.523666 -27.4267
vn 0.377051 0.926134 -0.0104439
v -5.74131 -0.523106 -27.4352
vn 0.346591 0.932286 -0.103529
v -5.74438 -0.523363 -27.4436
vn 0.312793 0.929459 -0.195618
v -5.74774 -0.524436 -27.4518
vn 0.275983 0.917681 -0.285822
v -5.75133 -0.526314 -27.4597
vn 0.236515 0.897066 -0.373274
v -5.75514 -0.528979 -27.4674
vn 0.19477 0.867811 -0.457131
v -5.75911 -0.532405 -27.4746
vn 0.151148 0.830199 -0.536586
v -5.76321 -0.53656 -27.4814
vn 0.106071 0.784591 -0.610873
v -5.76741 -0.541403 -27.4876
vn 0.0599725 0.731428 -0.679277
v -5.77167 -0.546887 -27.4932
vn 0.0132963 0.67122 -0.741139
v -5.77593 -0.552961 -27.4982
vn -0.0335079 0.604548 -0.795863
v -5.78016 -0.559565 -27.5025
vn -0.0799895 0.532054 -0.842923
v -5.78433 -0.566635 -27.5061
vn -0.125701 0.454436 -0.881866
v -5.78838 -0.574104 -27.5088
vn -0.170201 0.372442 -0.912315
v -5.79229 -0.5819 -27.5108
vn -0.213063 0.286861 -0.933978
v -5.796 -0.589948 -27.512
vn -0.253872 0.198517 -0.946647
v -5.7995 -0.59817 -27.5123
vn -0.292237 0.108261 -0.950198
v -5.80274 -0.606486 -27.5118
vn -0.327787 0.016963 -0.944599
v -5.80569 -0.614818 -27.5104
vn -0.360181 -0.0744987 -0.929903
v -5.80832 -0.623084 -27.5083
vn -0.389105 -0.165243 -0.906251
v -5.81062 -0.631206 -27.5053
vn -0.414283 -0.254396 -0.873872
v -5.81255 -0.639104 -27.5016
vn -0.435471 -0.341098 -0.833077
v -5.81409 -0.646703 -27.4972
vn -0.452464 -0.424516 -0.784259
v -5.81525 -0.653929 -27.492
vn -0.465101 -0.503846 -0.727888
v -5.81599 -0.660713 -27.4863
vn -0.473258 -0.578323 -0.664507
v -5.81632 -0.66699 -27.4799
vn -0.476857 -0.647231 -0.594726
v -5.81623 -0.6727 -27.473
vn -0.475865 -0.709905 -0.519218
v -5.81572 -0.677786 -27.4657
vn -0.470289 -0.765743 -0.43871
v -5.8148 -0.682201 -27.458
vn -0.460184 -0.814206 -0.353976
v -5.81347 -0.685901 -27.4499
vn -0.445647 -0.854828 -0.265834
v -5.81176 -0.688852 -27.4417
vn -0.426819 -0.887218 -0.175131
v -5.80967 -0.691024 -27.4333
vn -0.403879 -0.911063 -0.0827421
v -5.80722 -0.692397 -27.4248
vn -0.377051 -0.926134 0.0104439
v -5.80445 -0.692957 -27.4163
vn -0.346591 -0.932286 0.103529
v -5.80137 -0.6927 -27.4079
vn -0.312793 -0.929459 0.195618
v -5.79802 -0.691627 -27.3997
vn -0.275983 -0.917681 0.285822
v -5.79442 -0.689749 -27.3917
vn -0.236515 -0.897066 0.373274
v -5.79062 -0.687084 -27.3841
vn -0.19477 -0.867811 0.457131
v -5.78665 -0.683658 -27.3769
vn -0.151148 -0.830199 0.536586
v -5.78254 -0.679503 -27.3701
vn -0.106071 -0.784591 0.610873
v -5.77834 -0.67466 -27.3639
vn -0.0599725 -0.731428 0.679277
v -5.77409 -0.669176 -27.3582
vn -0.0132963 -0.67122 0.741139
v -5.76983 -0.663102 -27.3532
vn 0.0335079 -0.604548 0.795863
v -5.76559 -0.656499 -27.3489
vn 0.0799895 -0.532054 0.842923
v -5.76143 -0.649428 -27.3454
vn 0.125701 -0.454436 0.881866
v -5.75737 -0.641959 -27.3426
vn 0.170201 -0.372442 0.912315
v -5.75347 -0.634163 -27.3407
vn 0.213063 -0.286861 0.933978
v -5.74975 -0.626115 -27.3395
vn 0.253872 -0.198517 0.946647
v -5.74626 -0.617894 -27.3392
vn 0.292237 -0.108261 0.950198
v -5.42533 -0.750063 -27.5412
vn 0.6487 -0.158504 0.744355
v -5.42246 -0.741477 -27.5425
vn 0.679548 -0.0663608 0.730623
v -5.42019 -0.732831 -27.5445
vn 0.703852 0.0264215 0.709855
v -5.41856 -0.724208 -27.547
vn 0.721377 0.118949 0.682251
v -5.41757 -0.715693 -27.5502
vn 0.731955 0.210332 0.648076
v -5.41725 -0.707366 -27.554
vn 0.735484 0.299688 0.607659
v -5.41758 -0.699308 -27.5583
vn 0.73193 0.386159 0.561391
v -5.41856 -0.691597 -27.5631
vn 0.721327 0.46891 0.509716
v -5.4202 -0.684306 -27.5684
vn 0.703777 0.547146 0.453132
v -5.42247 -0.677507 -27.5741
vn 0.679449 0.620113 0.392185
v -5.42534 -0.671264 -27.5801
vn 0.648578 0.687107 0.32746
v -5.4288 -0.665638 -27.5864
vn 0.611461 0.747484 0.259582
v -5.43281 -0.660682 -27.593
vn 0.568455 0.800663 0.189204
v -5.43733 -0.656445 -27.5997
vn 0.519975 0.84613 0.117003
v -5.44231 -0.652968 -27.6065
vn 0.466486 0.883449 0.0436764
v -5.44772 -0.650283 -27.6134
vn 0.408506 0.91226 -0.0300713
v -5.45348 -0.648417 -27.6202
vn 0.346591 0.932286 -0.103529
v -5.45957 -0.647387 -27.627
vn 0.281338 0.943332 -0.17599
v -5.4659 -0.647204 -27.6336
vn 0.213376 0.945295 -0.246757
v -5.47242 -0.64787 -27.64
vn 0.143359 0.938153 -0.315146
v -5.47908 -0.649377 -27.6461
vn 0.0719616 0.921976 -0.380501
v -5.48579 -0.651712 -27.6518
vn -0.000129073 0.896921 -0.442191
v -5.49251 -0.654852 -27.6572
vn -0.0722185 0.863227 -0.499623
v -5.49916 -0.658766 -27.6621
vn -0.143612 0.82122 -0.552243
v -5.50569 -0.663418 -27.6665
vn -0.213623 0.771305 -0.599545
v -5.51202 -0.668762 -27.6703
vn -0.281577 0.713961 -0.641073
v -5.5181 -0.674746 -27.6736
vn -0.346819 0.649741 -0.676427
v -5.52387 -0.681313 -27.6763
vn -0.40872 0.579264 -0.705266
v -5.52927 -0.688401 -27.6784
vn -0.466686 0.503209 -0.727314
v -5.53425 -0.69594 -27.6798
vn -0.520157 0.422307 -0.742357
v -5.53877 -0.703858 -27.6805
vn -0.568619 0.337338 -0.75025
v -5.54278 -0.712078 -27.6806
vn -0.611604 0.249121 -0.750919
v -5.54623 -0.720523 -27.68
vn -0.6487 0.158504 -0.744355
v -5.54911 -0.729109 -27.6787
vn -0.679548 0.0663608 -0.730623
v -5.55137 -0.737755 -27.6767
vn -0.703852 -0.0264215 -0.709855
v -5.553 -0.746377 -27.6742
vn -0.721377 -0.118949 -0.682251
v -5.55399 -0.754893 -27.671
vn -0.731955 -0.210332 -0.648076
v -5.55432 -0.76322 -27.6672
vn -0.735484 -0.299688 -0.607659
v -5.55399 -0.771278 -27.6629
vn -0.73193 -0.386159 -0.561391
v -5.553 -0.778989 -27.6581
vn -0.721327 -0.46891 -0.509716
v -5.55136 -0.786279 -27.6528
vn -0.703777 -0.547146 -0.453132
v -5.5491 -0.793079 -27.6471
vn -0.679449 -0.620113 -0.392185
v -5.54622 -0.799322 -27.6411
vn -0.648578 -0.687107 -0.32746
v -5.54276 -0.804948 -27.6348
vn -0.611461 -0.747484 -0.259582
v -5.53875 -0.809904 -27.6282
vn -0.568455 -0.800663 -0.189204
v -5.53424 -0.814141 -27.6215
vn -0.519975 -0.84613 -0.117003
v -5.52925 -0.817618 -27.6147
vn -0.466486 -0.883449 -0.0436764
v -5.52385 -0.820303 -27.6078
vn -0.408506 -0.91226 0.0300713
v -5.51808 -0.822169 -27.601
vn -0.346591 -0.932286 0.103529
v -5.512 -0.823199 -27.5942
vn -0.281338 -0.943332 0.17599
v -5.50567 -0.823381 -27.5876
vn -0.213376 -0.945295 0.246757
v -5.49914 -0.822716 -27.5812
vn -0.143359 -0.938153 0.315146
v -5.49249 -0.821209 -27.5751
vn -0.0719616 -0.921976 0.380501
v -5.48577 -0.818874 -27.5694
vn 0.000129073 -0.896921 0.442191
v -5.47905 -0.815734 -27.564
vn 0.0722185 -0.863227 0.499623
v -5.4724 -0.811819 -27.5591
vn 0.143612 -0.82122 0.552243
v -5.46588 -0.807168 -27.5547
vn 0.213623 -0.771305 0.599545
v -5.45954 -0.801824 -27.5509
vn 0.281577 -0.713961 0.641073
v -5.45346 -0.79584 -27.5476
vn 0.346819 -0.649741 0.676427
v -5.4477 -0.789272 -27.5449
vn 0.40872 -0.579264 0.705266
v -5.44229 -0.782185 -27.5428
vn 0.466686 -0.503209 0.727314
v -5.43731 -0.774646 -27.5414
vn 0.520157 -0.422307 0.742357
v -5.43279 -0.766728 -27.5407
vn 0.568619 -0.337338 0.75025
v -5.42879 -0.758508 -27.5406
vn 0.611604 -0.249121 0.750919
v -5.1586 -0.888839 -27.898
vn 0.812164 -0.243034 0.5304
v -5.15573 -0.880021 -27.8992
vn 0.842225 -0.150483 0.517699
v -5.15364 -0.871065 -27.9009
vn 0.864175 -0.0564838 0.500011
v -5.15235 -0.862057 -27.903
vn 0.877802 0.0380596 0.477509
v -5.15185 -0.853084 -27.9056
vn 0.882976 0.132237 0.450407
v -5.15217 -0.844232 -27.9086
vn 0.879646 0.22514 0.418968
v -5.15329 -0.835587 -27.912
vn 0.867845 0.315875 0.383494
v -5.15521 -0.827232 -27.9157
vn 0.847686 0.403568 0.344327
v -5.15791 -0.819247 -27.9197
vn 0.819363 0.487375 0.301843
v -5.16136 -0.811709 -27.9241
vn 0.78315 0.566488 0.256453
v -5.16553 -0.804691 -27.9286
vn 0.739394 0.640145 0.208593
v -5.17038 -0.798261 -27.9334
vn 0.688517 0.707637 0.158724
v -5.17586 -0.79248 -27.9383
vn 0.63101 0.768315 0.107327
v -5.18192 -0.787403 -27.9433
vn 0.567426 0.821593 0.0548957
v -5.1885 -0.783081 -27.9483
vn 0.498377 0.866958 0.0019359
v -5.19553 -0.779554 -27.9534
vn 0.424528 0.903975 -0.0510425
v -5.20296 -0.776857 -27.9584
vn 0.346591 0.932286 -0.103529
v -5.2107 -0.775015 -27.9633
vn 0.265316 0.951618 -0.155019
v -5.21869 -0.774046 -27.968
vn 0.181486 0.961785 -0.205016
v -5.22684 -0.77396 -27.9726
vn 0.0959082 0.962691 -0.253039
v -5.23508 -0.774757 -27.9769
vn 0.00940672 0.954324 -0.298624
v -5.24334 -0.77643 -27.981
vn -0.0771854 0.936768 -0.341334
v -5.25151 -0.778962 -27.9848
vn -0.163034 0.910189 -0.380756
v -5.25954 -0.782329 -27.9882
vn -0.247313 0.874845 -0.416512
v -5.26735 -0.7865 -27.9912
vn -0.32921 0.831076 -0.448256
v -5.27485 -0.791433 -27.9938
vn -0.407936 0.779303 -0.475683
v -5.28198 -0.797081 -27.996
vn -0.482734 0.720025 -0.49853
v -5.28866 -0.803389 -27.9977
vn -0.552883 0.653813 -0.516575
v -5.29484 -0.810298 -27.999
vn -0.617707 0.581304 -0.529645
v -5.30044 -0.81774 -27.9997
vn -0.676582 0.503197 -0.537615
v -5.30543 -0.825643 -28.0
vn -0.728942 0.420244 -0.540407
v -5.30975 -0.833933 -27.9998
vn -0.774281 0.333243 -0.537994
v -5.31336 -0.842528 -27.999
vn -0.812164 0.243034 -0.5304
v -5.31623 -0.851346 -27.9978
vn -0.842225 0.150483 -0.517699
v -5.31832 -0.860302 -27.9961
vn -0.864175 0.0564838 -0.500011
v -5.31962 -0.86931 -27.994
vn -0.877802 -0.0380596 -0.477509
v -5.32011 -0.878283 -27.9914
vn -0.882976 -0.132237 -0.450407
v -5.31979 -0.887134 -27.9884
vn -0.879646 -0.22514 -0.418968
v -5.31867 -0.89578 -27.985
vn -0.867845 -0.315875 -0.383494
v -5.31675 -0.904135 -27.9813
vn -0.847686 -0.403568 -0.344327
v -5.31405 -0.91212 -27.9773
vn -0.819363 -0.487375 -0.301843
v -5.3106 -0.919658 -27.9729
vn -0.78315 -0.566488 -0.256453
v -5.30643 -0.926676 -27.9684
vn -0.739394 -0.640145 -0.208593
v -5.30158 -0.933106 -27.9636
vn -0.688517 -0.707637 -0.158724
v -5.2961 -0.938887 -27.9587
vn -0.63101 -0.768315 -0.107327
v -5.29004 -0.943964 -27.9537
vn -0.567426 -0.821593 -0.0548957
v -5.28347 -0.948286 -27.9487
vn -0.498377 -0.866958 -0.0019359
v -5.27643 -0.951813 -27.9436
vn -0.424528 -0.903975 0.0510425
v -5.269 -0.95451 -27.9386
vn -0.346591 -0.932286 0.103529
v -5.26126 -0.956352 -27.9337
vn -0.265316 -0.951618 0.155019
v -5.25327 -0.957321 -27.929
vn -0.181486 -0.961785 0.205016
v -5.24512 -0.957407 -27.9244
vn -0.0959082 -0.962691 0.253039
v -5.23688 -0.95661 -27.92
vn -0.00940672 -0.954324 0.298624
v -5.22863 -0.954937 -27.916
vn 0.0771854 -0.936768 0.341334
v -5.22045 -0.952405 -27.9122
vn 0.163034 -0.910189 0.380756
v -5.21242 -0.949037 -27.9088
vn 0.247313 -0.874845 0.416512
v -5.20461 -0.944867 -27.9058
vn 0.32921 -0.831076 0.448256
v -5.19711 -0.939934 -27.9032
vn 0.407936 -0.779303 0.475683
v -5.18999 -0.934286 -27.901
vn 0.482734 -0.720025 0.49853
v -5.1833 -0.927978 -27.8993
vn 0.552883 -0.653813 0.516575
v -5.17713 -0.921069 -27.898
vn 0.617707 -0.581304 0.529645
v -5.17152 -0.913627 -27.8973
vn 0.676582 -0.503197 0.537615
v -5.16653 -0.905724 -27.897
vn 0.728942 -0.420244 0.540407
v -5.16221 -0.897434 -27.8972
vn 0.774281 -0.333243 0.537994
v -4.93746 -1.02718 -28.4034
vn 0.883405 -0.287309 0.370202
v -4.93456 -1.01815 -28.4045
vn 0.913123 -0.194545 0.358271
v -4.93252 -1.00893 -28.406
vn 0.934047 -0.0999081 0.342891
v -4.93136 -0.999623 -28.4079
vn 0.945976 -0.00430889 0.324208
v -4.93109 -0.99031 -28.41
vn 0.948795 0.0913318 0.302403
v -4.9317 -0.981083 -28.4124
vn 0.942476 0.186093 0.277685
v -4.9332 -0.972031 -28.4151
vn 0.92708 0.279062 0.250293
v -4.93557 -0.96324 -28.418
vn 0.902756 0.369343 0.220491
v -4.93879 -0.954795 -28.4211
vn 0.869739 0.456068 0.188566
v -4.94282 -0.946779 -28.4243
vn 0.828345 0.5384 0.154824
v -4.94762 -0.939267 -28.4278
vn 0.778974 0.615547 0.119591
v -4.95316 -0.932332 -28.4313
vn 0.7221 0.686766 0.083207
v -4.95938 -0.926042 -28.4349
vn 0.658273 0.751371 0.0460213
v -4.96621 -0.920455 -28.4386
vn 0.588106 0.80874 0.00839238
v -4.97359 -0.915628 -28.4423
vn 0.512275 0.858321 -0.0293174
v -4.98146 -0.911605 -28.4459
vn 0.431511 0.899635 -0.0667448
v -4.98973 -0.908426 -28.4495
vn 0.346591 0.932286 -0.103529
v -4.99832 -0.906121 -28.453
vn 0.258333 0.955957 -0.139317
v -5.00716 -0.904712 -28.4563
vn 0.167588 0.970423 -0.173763
v -5.01615 -0.904214 -28.4595
vn 0.075228 0.975543 -0.206535
v -5.02521 -0.90463 -28.4625
vn -0.0178562 0.971268 -0.237319
v -5.03426 -0.905957 -28.4653
vn -0.110768 0.957639 -0.265817
v -5.0432 -0.908182 -28.4678
vn -0.202614 0.934787 -0.291754
v -5.05196 -0.911284 -28.4701
vn -0.292508 0.902933 -0.314883
v -5.06043 -0.915232 -28.472
vn -0.379585 0.862383 -0.334978
v -5.06856 -0.919989 -28.4737
vn -0.463006 0.813528 -0.351848
v -5.07625 -0.925509 -28.475
vn -0.541969 0.756838 -0.365329
v -5.08343 -0.931739 -28.476
vn -0.615712 0.69286 -0.375292
v -5.09003 -0.938618 -28.4766
vn -0.683525 0.622209 -0.381641
v -5.09599 -0.946081 -28.4768
vn -0.744756 0.545565 -0.384314
v -5.10125 -0.954055 -28.4767
vn -0.798814 0.463668 -0.383286
v -5.10577 -0.962465 -28.4763
vn -0.845179 0.377305 -0.378567
v -5.10949 -0.971228 -28.4755
vn -0.883405 0.287309 -0.370202
v -5.11239 -0.98026 -28.4743
vn -0.913123 0.194545 -0.358271
v -5.11442 -0.989475 -28.4728
vn -0.934047 0.0999081 -0.342891
v -5.11558 -0.998784 -28.471
vn -0.945976 0.00430889 -0.324208
v -5.11586 -1.0081 -28.4689
vn -0.948795 -0.0913318 -0.302403
v -5.11524 -1.01732 -28.4665
vn -0.942476 -0.186093 -0.277685
v -5.11374 -1.02638 -28.4638
vn -0.92708 -0.279062 -0.250293
v -5.11138 -1.03517 -28.4609
vn -0.902756 -0.369343 -0.220491
v -5.10816 -1.04361 -28.4578
vn -0.869739 -0.456068 -0.188566
v -5.10413 -1.05163 -28.4545
vn -0.828345 -0.5384 -0.154824
v -5.09932 -1.05914 -28.4511
vn -0.778974 -0.615547 -0.119591
v -5.09379 -1.06607 -28.4475
vn -0.7221 -0.686766 -0.083207
v -5.08757 -1.07236 -28.4439
vn -0.658273 -0.751371 -0.0460213
v -5.08074 -1.07795 -28.4402
vn -0.588106 -0.80874 -0.00839238
v -5.07335 -1.08278 -28.4366
vn -0.512275 -0.858321 0.0293174
v -5.06549 -1.0868 -28.4329
vn -0.431511 -0.899635 0.0667448
v -5.05722 -1.08998 -28.4293
vn -0.346591 -0.932286 0.103529
v -5.04863 -1.09229 -28.4259
vn -0.258333 -0.955957 0.139317
v -5.03979 -1.09369 -28.4225
vn -0.167588 -0.970423 0.173763
v -5.0308 -1.09419 -28.4193
vn -0.075228 -0.975543 0.206535
v -5.02174 -1.09378 -28.4163
vn 0.0178562 -0.971268 0.237319
v -5.01269 -1.09245 -28.4135
vn 0.110768 -0.957639 0.265817
v -5.00375 -1.09022 -28.411
vn 0.202614 -0.934787 0.291754
v -4.99499 -1.08712 -28.4088
vn 0.292508 -0.902933 0.314883
v -4.98651 -1.08317 -28.4068
vn 0.379585 -0.862383 0.334978
v -4.97839 -1.07842 -28.4052
vn 0.463006 -0.813528 0.351848
v -4.9707 -1.0729 -28.4039
vn 0.541969 -0.756838 0.365329
v -4.96352 -1.06667 -28.4029
vn 0.615712 -0.69286 0.375292
v -4.95692 -1.05979 -28.4023
vn 0.683525 -0.622209 0.381641
v -4.95096 -1.05233 -28.402
vn 0.744756 -0.545565 0.384314
v -4.94569 -1.04435 -28.4021
vn 0.798814 -0.463668 0.383286
v -4.94118 -1.03594 -28.4026
vn 0.845179 -0.377305 0.378567
v -4.7573 -1.16681 -29.0577
vn 0.914501 -0.311279 0.258446
v -4.75436 -1.15757 -29.0588
vn 0.944069 -0.2184 0.247053
v -4.75232 -1.14813 -29.0602
vn 0.964545 -0.123418 0.233282
v -4.75121 -1.13856 -29.0618
vn 0.975733 -0.0272473 0.217264
v -4.75103 -1.12897 -29.0636
vn 0.977523 0.0691859 0.199154
v -4.75179 -1.11945 -29.0656
vn 0.969899 0.164953 0.179125
v -4.75348 -1.11008 -29.0677
vn 0.952935 0.259131 0.157372
v -4.75608 -1.10096 -29.07
vn 0.926793 0.350814 0.134103
v -4.75957 -1.09218 -29.0725
vn 0.891726 0.439118 0.109542
v -4.76391 -1.08381 -29.075
vn 0.848071 0.523193 0.0839269
v -4.76906 -1.07595 -29.0777
vn 0.796249 0.60223 0.0575031
v -4.77498 -1.06867 -29.0803
vn 0.736759 0.675467 0.0305256
v -4.7816 -1.06203 -29.0831
vn 0.670173 0.742198 0.00325417
v -4.78887 -1.0561 -29.0858
vn 0.597132 0.801782 -0.0240486
v -4.7967 -1.05095 -29.0885
vn 0.518342 0.853644 -0.0511199
v -4.80504 -1.04661 -29.0911
vn 0.434559 0.897286 -0.0776988
v -4.81379 -1.04312 -29.0937
vn 0.346591 0.932286 -0.103529
v -4.82287 -1.04054 -29.0961
vn 0.255285 0.958307 -0.128363
v -4.8322 -1.03887 -29.0985
vn 0.161521 0.975099 -0.15196
v -4.84168 -1.03813 -29.1007
vn 0.0662014 0.982501 -0.174094
v -4.85122 -1.03833 -29.1027
vn -0.0297558 0.980441 -0.194552
v -4.86074 -1.03948 -29.1046
vn -0.125427 0.968938 -0.213135
v -4.87013 -1.04155 -29.1062
vn -0.219889 0.948104 -0.229666
v -4.87932 -1.04453 -29.1076
vn -0.312235 0.91814 -0.243985
v -4.8882 -1.04839 -29.1088
vn -0.401573 0.879333 -0.255955
v -4.8967 -1.05309 -29.1098
vn -0.487043 0.832058 -0.265459
v -4.90474 -1.05859 -29.1105
vn -0.567824 0.776769 -0.272408
v -4.91223 -1.06484 -29.1109
vn -0.643136 0.714 -0.276732
v -4.9191 -1.07176 -29.1111
vn -0.712254 0.644355 -0.278392
v -4.9253 -1.07931 -29.111
vn -0.774512 0.568504 -0.27737
v -4.93075 -1.0874 -29.1106
vn -0.829312 0.487178 -0.273677
v -4.9354 -1.09595 -29.11
vn -0.876125 0.40116 -0.267349
v -4.93922 -1.10489 -29.1091
vn -0.914501 0.311279 -0.258446
v -4.94216 -1.11413 -29.108
vn -0.944069 0.2184 -0.247053
v -4.9442 -1.12358 -29.1066
vn -0.964545 0.123418 -0.233282
v -4.94531 -1.13314 -29.105
vn -0.975733 0.0272473 -0.217264
v -4.94549 -1.14273 -29.1032
vn -0.977523 -0.0691859 -0.199154
v -4.94473 -1.15226 -29.1012
vn -0.969899 -0.164953 -0.179125
v -4.94304 -1.16163 -29.099
vn -0.952935 -0.259131 -0.157372
v -4.94044 -1.17074 -29.0967
vn -0.926793 -0.350814 -0.134103
v -4.93695 -1.17953 -29.0943
vn -0.891726 -0.439118 -0.109542
v -4.93261 -1.18789 -29.0917
vn -0.848071 -0.523193 -0.0839269
v -4.92746 -1.19575 -29.0891
vn -0.796249 -0.60223 -0.0575031
v -4.92154 -1.20304 -29.0864
vn -0.736759 -0.675467 -0.0305256
v -4.91492 -1.20967 -29.0837
vn -0.670173 -0.742198 -0.00325417
v -4.90765 -1.2156 -29.081
vn -0.597132 -0.801782 0.0240486
v -4.89982 -1.22076 -29.0783
vn -0.518342 -0.853644 0.0511199
v -4.89148 -1.2251 -29.0757
vn -0.434559 -0.897286 0.0776988
v -4.88273 -1.22858 -29.0731
vn -0.346591 -0.932286 0.103529
v -4.87365 -1.23117 -29.0706
vn -0.255285 -0.958307 0.128363
v -4.86433 -1.23284 -29.0683
vn -0.161521 -0.975099 0.15196
v -4.85485 -1.23357 -29.0661
vn -0.0662014 -0.982501 0.174094
v -4.8453 -1.23337 -29.064
vn 0.0297558 -0.980441 0.194552
v -4.83579 -1.23223 -29.0622
vn 0.125427 -0.968938 0.213135
v -4.82639 -1.23015 -29.0605
vn 0.219889 -0.948104 0.229666
v -4.8172 -1.22717 -29.0591
vn 0.312235 -0.91814 0.243985
v -4.80832 -1.22331 -29.0579
vn 0.401573 -0.879333 0.255955
v -4.79982 -1.21861 -29.057
vn 0.487043 -0.832058 0.265459
v -4.79178 -1.21311 -29.0563
vn 0.567824 -0.776769 0.272408
v -4.78429 -1.20687 -29.0559
vn 0.643136 -0.714 0.276732
v -4.77742 -1.19994 -29.0557
vn 0.712254 -0.644355 0.278392
v -4.77123 -1.1924 -29.0558
vn 0.774512 -0.568504 0.27737
v -4.76577 -1.18431 -29.0562
vn 0.829312 -0.487178 0.273677
v -4.76112 -1.17575 -29.0568
vn 0.876125 -0.40116 0.267349
v -4.61605 -1.30866 -29.8621
vn 0.928456 -0.325245 0.179404
v -4.61306 -1.29922 -29.8633
vn 0.957957 -0.232298 0.168393
v -4.611 -1.28955 -29.8645
vn 0.978232 -0.137115 0.155759
v -4.60989 -1.27975 -29.866
vn 0.989087 -0.0406115 0.141626
v -4.60976 -1.26991 -29.8676
vn 0.990416 0.0562834 0.126129
v -4.61059 -1.26013 -29.8693
vn 0.982207 0.152636 0.109417
v -4.61239 -1.25049 -29.8711
vn 0.964538 0.247519 0.0916512
v -4.61513 -1.2411 -29.873
vn 0.937581 0.340018 0.0730029
v -4.61878 -1.23204 -29.8749
vn 0.901594 0.429243 0.0536515
v -4.62332 -1.2234 -29.8769
vn 0.856925 0.514333 0.0337835
v -4.62869 -1.21526 -29.879
vn 0.804002 0.594471 0.0135901
v -4.63485 -1.2077 -29.8811
vn 0.743337 0.668883 -0.00673425
v -4.64174 -1.2008 -29.8831
vn 0.675513 0.736854 -0.0269937
v -4.64929 -1.19462 -29.8851
vn 0.601183 0.797728 -0.0469932
v -4.65742 -1.18921 -29.8871
vn 0.521064 0.85092 -0.0665401
v -4.66607 -1.18464 -29.889
vn 0.435927 0.895917 -0.0854462
v -4.67514 -1.18095 -29.8909
vn 0.346591 0.932286 -0.103529
v -4.68456 -1.17817 -29.8926
vn 0.253918 0.959676 -0.120616
v -4.69421 -1.17633 -29.8942
vn 0.158799 0.977824 -0.13654
v -4.70403 -1.17544 -29.8957
vn 0.0621505 0.986555 -0.15115
v -4.71391 -1.17552 -29.8971
vn -0.0350963 0.985785 -0.164304
v -4.72375 -1.17656 -29.8982
vn -0.132005 0.975522 -0.175875
v -4.73346 -1.17856 -29.8992
vn -0.227642 0.955863 -0.185753
v -4.74295 -1.18149 -29.9001
vn -0.321088 0.926999 -0.193842
v -4.75213 -1.18533 -29.9007
vn -0.411441 0.889208 -0.200064
v -4.7609 -1.19003 -29.9011
vn -0.497831 0.842853 -0.20436
v -4.76919 -1.19557 -29.9014
vn -0.579427 0.788381 -0.206687
v -4.77691 -1.20187 -29.9014
vn -0.655443 0.726316 -0.207024
v -4.78398 -1.20888 -29.9012
vn -0.725147 0.657257 -0.205367
v -4.79035 -1.21654 -29.9009
vn -0.787867 0.581868 -0.201732
v -4.79595 -1.22476 -29.9003
vn -0.842999 0.500875 -0.196155
v -4.80073 -1.23348 -29.8995
vn -0.890013 0.415058 -0.188688
v -4.80463 -1.2426 -29.8986
vn -0.928456 0.325245 -0.179404
v -4.80763 -1.25204 -29.8975
vn -0.957957 0.232298 -0.168393
v -4.80969 -1.26171 -29.8962
vn -0.978232 0.137115 -0.155759
v -4.81079 -1.27151 -29.8947
vn -0.989087 0.0406115 -0.141626
v -4.81092 -1.28135 -29.8932
vn -0.990416 -0.0562834 -0.126129
v -4.81009 -1.29113 -29.8915
vn -0.982207 -0.152636 -0.109417
v -4.8083 -1.30077 -29.8897
vn -0.964538 -0.247519 -0.0916512
v -4.80556 -1.31016 -29.8878
vn -0.937581 -0.340018 -0.0730029
v -4.8019 -1.31922 -29.8858
vn -0.901594 -0.429243 -0.0536515
v -4.79737 -1.32786 -29.8838
vn -0.856925 -0.514333 -0.0337835
v -4.79199 -1.336 -29.8817
vn -0.804002 -0.594471 -0.0135901
v -4.78583 -1.34356 -29.8797
vn -0.743337 -0.668883 0.00673425
v -4.77894 -1.35046 -29.8776
vn -0.675513 -0.736854 0.0269937
v -4.77139 -1.35664 -29.8756
vn -0.601183 -0.797728 0.0469932
v -4.76326 -1.36205 -29.8736
vn -0.521064 -0.85092 0.0665401
v -4.75461 -1.36661 -29.8717
vn -0.435927 -0.895917 0.0854462
v -4.74554 -1.37031 -29.8699
vn -0.346591 -0.932286 0.103529
v -4.73613 -1.37309 -29.8681
vn -0.253918 -0.959676 0.120616
v -4.72647 -1.37493 -29.8665
vn -0.158799 -0.977824 0.13654
v -4.71665 -1.37582 -29.865
vn -0.0621505 -0.986555 0.15115
v -4.70678 -1.37574 -29.8637
vn 0.0350963 -0.985785 0.164304
v -4.69694 -1.3747 -29.8625
vn 0.132005 -0.975522 0.175875
v -4.68722 -1.3727 -29.8615
vn 0.227642 -0.955863 0.185753
v -4.67773 -1.36977 -29.8607
vn 0.321088 -0.926999 0.193842
v -4.66856 -1.36593 -29.86
vn 0.411441 -0.889208 0.200064
v -4.65978 -1.36123 -29.8596
vn 0.497831 -0.842853 0.20436
v -4.6515 -1.35569 -29.8594
vn 0.579427 -0.788381 0.206687
v -4.64378 -1.34939 -29.8593
vn 0.655443 -0.726316 0.207024
v -4.6367 -1.34238 -29.8595
vn 0.725147 -0.657257 0.205367
v -4.63033 -1.33472 -29.8599
vn 0.787867 -0.581868 0.201732
v -4.62473 -1.3265 -29.8604
vn 0.842999 -0.500875 0.196155
v -4.61996 -1.31778 -29.8612
vn 0.890013 -0.415058 0.188688
v -4.51284 -1.45315 -30.8178
vn 0.934698 -0.333979 0.121648
v -4.50978 -1.44352 -30.8189
vn 0.964169 -0.240991 0.110914
v -4.50769 -1.43364 -30.8201
vn 0.984354 -0.145682 0.0991127
v -4.50658 -1.42361 -30.8214
vn 0.99506 -0.0489697 0.0863566
v -4.50647 -1.41354 -30.8228
vn 0.996183 0.0482139 0.0727689
v -4.50734 -1.40352 -30.8243
vn 0.987712 0.144933 0.0584803
v -4.50921 -1.39364 -30.8259
vn 0.969728 0.240257 0.0436285
v -4.51204 -1.38399 -30.8274
vn 0.942406 0.333266 0.0283566
v -4.51581 -1.37469 -30.8291
vn 0.906008 0.423067 0.0128116
v -4.52049 -1.3658 -30.8307
vn 0.860884 0.508792 -0.0028568
v -4.52602 -1.35742 -30.8323
vn 0.80747 0.589618 -0.0184977
v -4.53237 -1.34964 -30.8339
vn 0.746279 0.664766 -0.0339604
v -4.53945 -1.34251 -30.8355
vn 0.677902 0.733511 -0.0490961
v -4.54722 -1.33612 -30.837
vn 0.602995 0.795193 -0.063759
v -4.55558 -1.33052 -30.8384
vn 0.522282 0.849216 -0.0778078
v -4.56447 -1.32577 -30.8398
vn 0.436538 0.895061 -0.0911073
v -4.57379 -1.32191 -30.8411
vn 0.346591 0.932286 -0.103529
v -4.58346 -1.31898 -30.8423
vn 0.253306 0.960532 -0.114954
v -4.59338 -1.31701 -30.8434
vn 0.157581 0.979528 -0.125272
v -4.60346 -1.31602 -30.8443
vn 0.0603385 0.989091 -0.134384
v -4.6136 -1.31602 -30.8451
vn -0.037485 0.989128 -0.142201
v -4.6237 -1.317 -30.8458
vn -0.134947 0.979639 -0.148649
v -4.63367 -1.31896 -30.8463
vn -0.23111 0.960716 -0.153665
v -4.64341 -1.32188 -30.8467
vn -0.325047 0.93254 -0.157202
v -4.65282 -1.32573 -30.8469
vn -0.415854 0.895384 -0.159224
v -4.66182 -1.33048 -30.8469
vn -0.502656 0.849605 -0.159713
v -4.67031 -1.33607 -30.8468
vn -0.584617 0.795643 -0.158664
v -4.67822 -1.34246 -30.8466
vn -0.660948 0.734019 -0.156087
v -4.68547 -1.34958 -30.8461
vn -0.730913 0.665327 -0.152007
v -4.692 -1.35736 -30.8456
vn -0.79384 0.590226 -0.146463
v -4.69773 -1.36573 -30.8448
vn -0.849121 0.509442 -0.139508
v -4.70261 -1.37462 -30.844
vn -0.896225 0.423751 -0.13121
v -4.7066 -1.38392 -30.843
vn -0.934698 0.333979 -0.121648
v -4.70965 -1.39356 -30.8419
vn -0.964169 0.240991 -0.110914
v -4.71174 -1.40344 -30.8407
vn -0.984354 0.145682 -0.0991127
v -4.71285 -1.41346 -30.8393
vn -0.99506 0.0489697 -0.0863566
v -4.71297 -1.42353 -30.8379
vn -0.996183 -0.0482139 -0.0727689
v -4.71209 -1.43356 -30.8364
vn -0.987712 -0.144933 -0.0584803
v -4.71023 -1.44344 -30.8349
vn -0.969728 -0.240257 -0.0436285
v -4.70739 -1.45308 -30.8333
vn -0.942406 -0.333266 -0.0283566
v -4.70362 -1.46239 -30.8317
vn -0.906008 -0.423067 -0.0128116
v -4.69895 -1.47127 -30.8301
vn -0.860884 -0.508792 0.0028568
v -4.69341 -1.47965 -30.8285
vn -0.80747 -0.589618 0.0184977
v -4.68707 -1.48744 -30.8269
vn -0.746279 -0.664766 0.0339604
v -4.67998 -1.49456 -30.8253
vn -0.677902 -0.733511 0.0490961
v -4.67222 -1.50096 -30.8238
vn -0.602995 -0.795193 0.063759
v -4.66385 -1.50656 -30.8223
vn -0.522282 -0.849216 0.0778078
v -4.65496 -1.51131 -30.8209
vn -0.436538 -0.895061 0.0911073
v -4.64564 -1.51517 -30.8197
vn -0.346591 -0.932286 0.103529
v -4.63597 -1.51809 -30.8185
vn -0.253306 -0.960532 0.114954
v -4.62605 -1.52006 -30.8174
vn -0.157581 -0.979528 0.125272
v -4.61597 -1.52105 -30.8165
vn -0.0603385 -0.989091 0.134384
v -4.60583 -1.52106 -30.8156
vn 0.037485 -0.989128 0.142201
v -4.59573 -1.52007 -30.815
vn 0.134947 -0.979639 0.148649
v -4.58576 -1.51811 -30.8145
vn 0.23111 -0.960716 0.153665
v -4.57603 -1.51519 -30.8141
vn 0.325047 -0.93254 0.157202
v -4.56661 -1.51134 -30.8139
vn 0.415854 -0.895384 0.159224
v -4.55762 -1.5066 -30.8138
vn 0.502656 -0.849605 0.159713
v -4.54912 -1.501 -30.8139
vn 0.584617 -0.795643 0.158664
v -4.54121 -1.49462 -30.8142
vn 0.660948 -0.734019 0.156087
v -4.53396 -1.4875 -30.8146
vn 0.730913 -0.665327 0.152007
v -4.52744 -1.47971 -30.8152
vn 0.79384 -0.590226 0.146463
v -4.52171 -1.47134 -30.8159
vn 0.849121 -0.509442 0.139508
v -4.51683 -1.46246 -30.8168
vn 0.896225 -0.423751 0.13121
v -4.44728 -1.6005 -31.9252
vn 0.937264 -0.339778 0.0780223
v -4.44417 -1.59067 -31.9263
vn 0.966723 -0.246761 0.067499
v -4.44203 -1.58058 -31.9275
vn 0.986871 -0.151369 0.0563256
v -4.44091 -1.57034 -31.9287
vn 0.997516 -0.0545186 0.0446097
v -4.4408 -1.56004 -31.93
vn 0.998554 0.0428567 0.0324643
v -4.44171 -1.54979 -31.9313
vn 0.989975 0.139819 0.0200062
v -4.44362 -1.53968 -31.9327
vn 0.971862 0.235435 0.00735537
v -4.44653 -1.52981 -31.934
vn 0.94439 0.328784 -0.00536626
v -4.45039 -1.52027 -31.9353
vn 0.907823 0.418966 -0.0180362
v -4.45518 -1.51116 -31.9367
vn 0.862512 0.505114 -0.0305324
v -4.46085 -1.50257 -31.9379
vn 0.808896 0.586397 -0.0427346
v -4.46735 -1.49457 -31.9392
vn 0.747489 0.662032 -0.0545253
v -4.4746 -1.48725 -31.9404
vn 0.678884 0.731292 -0.0657908
v -4.48255 -1.48067 -31.9415
vn 0.60374 0.793509 -0.0764228
v -4.49111 -1.4749 -31.9426
vn 0.522783 0.848085 -0.0863187
v -4.5002 -1.46999 -31.9435
vn 0.43679 0.894492 -0.0953833
v -4.50974 -1.46599 -31.9444
vn 0.346591 0.932286 -0.103529
v -4.51963 -1.46295 -31.9451
vn 0.253054 0.9611 -0.110678
v -4.52978 -1.46088 -31.9458
vn 0.15708 0.980659 -0.116762
v -4.54008 -1.45981 -31.9463
vn 0.0595936 0.990774 -0.12172
v -4.55045 -1.45975 -31.9467
vn -0.038467 0.991347 -0.125507
v -4.56078 -1.4607 -31.947
vn -0.136157 0.982372 -0.128084
v -4.57097 -1.46265 -31.9471
vn -0.232536 0.963937 -0.129428
v -4.58093 -1.46558 -31.9471
vn -0.326675 0.936219 -0.129526
v -4.59055 -1.46946 -31.947
vn -0.417669 0.899484 -0.128376
v -4.59975 -1.47426 -31.9468
vn -0.50464 0.854087 -0.12599
v -4.60843 -1.47993 -31.9464
vn -0.586751 0.800465 -0.122391
v -4.61651 -1.48642 -31.9459
vn -0.663211 0.739133 -0.117613
v -4.62392 -1.49366 -31.9452
vn -0.733284 0.670684 -0.111702
v -4.63059 -1.50158 -31.9445
vn -0.796296 0.595775 -0.104716
v -4.63644 -1.5101 -31.9437
vn -0.851638 0.515129 -0.0967208
v -4.64142 -1.51916 -31.9427
vn -0.898779 0.429521 -0.0877943
v -4.64549 -1.52865 -31.9417
vn -0.937264 0.339778 -0.0780223
v -4.64861 -1.53848 -31.9406
vn -0.966723 0.246761 -0.067499
v -4.65074 -1.54857 -31.9394
vn -0.986871 0.151369 -0.0563256
v -4.65186 -1.55881 -31.9381
vn -0.997516 0.0545186 -0.0446097
v -4.65197 -1.56911 -31.9369
vn -0.998554 -0.0428567 -0.0324643
v -4.65107 -1.57936 -31.9355
vn -0.989975 -0.139819 -0.0200062
v -4.64915 -1.58947 -31.9342
vn -0.971862 -0.235435 -0.00735537
v -4.64625 -1.59934 -31.9329
vn -0.94439 -0.328784 0.00536626
v -4.64238 -1.60887 -31.9315
vn -0.907823 -0.418966 0.0180362
v -4.63759 -1.61798 -31.9302
vn -0.862512 -0.505114 0.0305324
v -4.63192 -1.62658 -31.9289
vn -0.808896 -0.586397 0.0427346
v -4.62542 -1.63458 -31.9277
vn -0.747489 -0.662032 0.0545253
v -4.61817 -1.6419 -31.9265
vn -0.678884 -0.731292 0.0657908
v -4.61023 -1.64848 -31.9253
vn -0.60374 -0.793509 0.0764228
v -4.60166 -1.65425 -31.9243
vn -0.522783 -0.848085 0.0863187
v -4.59257 -1.65916 -31.9233
vn -0.43679 -0.894492 0.0953833
v -4.58303 -1.66315 -31.9225
vn -0.346591 -0.932286 0.103529
v -4.57314 -1.6662 -31.9217
vn -0.253054 -0.9611 0.110678
v -4.563 -1.66827 -31.9211
vn -0.15708 -0.980659 0.116762
v -4.55269 -1.66934 -31.9206
vn -0.0595936 -0.990774 0.12172
v -4.54232 -1.6694 -31.9202
vn 0.038467 -0.991347 0.125507
v -4.53199 -1.66845 -31.9199
vn 0.136157 -0.982372 0.128084
v -4.5218 -1.6665 -31.9197
vn 0.232536 -0.963937 0.129428
v -4.51184 -1.66357 -31.9197
vn 0.326675 -0.936219 0.129526
v -4.50222 -1.65968 -31.9199
vn 0.417669 -0.899484 0.128376
v -4.49303 -1.65488 -31.9201
vn 0.50464 -0.854087 0.12599
v -4.48434 -1.64921 -31.9205
vn 0.586751 -0.800465 0.122391
v -4.47626 -1.64273 -31.921
vn 0.663211 -0.739133 0.117613
v -4.46885 -1.63549 -31.9216
vn 0.733284 -0.670684 0.111702
v -4.46219 -1.62757 -31.9224
vn 0.796296 -0.595775 0.104716
v -4.45633 -1.61904 -31.9232
vn 0.851638 -0.515129 0.0967208
v -4.45135 -1.60999 -31.9241
vn 0.898779 -0.429521 0.0877943
v -4.4192 -1.75081 -33.1847
vn 0.938 -0.343819 0.0440912
v -4.41603 -1.74078 -33.1859
vn 0.967455 -0.250784 0.0337313
v -4.41386 -1.73049 -33.187
vn 0.987593 -0.155333 0.0230465
v -4.41271 -1.72003 -33.1882
vn 0.99822 -0.0583863 0.0121397
v -4.4126 -1.70952 -33.1894
vn 0.999234 0.0391227 0.00111601
v -4.41353 -1.69905 -33.1906
vn 0.990624 0.136255 -0.00991841
v -4.41549 -1.68871 -33.1918
vn 0.972474 0.232075 -0.0208573
v -4.41845 -1.67862 -33.1929
vn 0.944959 0.32566 -0.0315954
v -4.4224 -1.66887 -33.194
vn 0.908343 0.416109 -0.0420291
v -4.42729 -1.65955 -33.1951
vn 0.862979 0.50255 -0.0520581
v -4.43308 -1.65075 -33.1961
vn 0.809305 0.584151 -0.0615858
v -4.43971 -1.64256 -33.1971
vn 0.747836 0.660127 -0.0705203
v -4.44711 -1.63505 -33.198
vn 0.679165 0.729746 -0.0787757
v -4.45522 -1.6283 -33.1988
vn 0.603954 0.792336 -0.0862724
v -4.46396 -1.62237 -33.1995
vn 0.522926 0.847296 -0.0929383
v -4.47324 -1.61733 -33.2001
vn 0.436862 0.894096 -0.0987092
v -4.48298 -1.61321 -33.2007
vn 0.346591 0.932286 -0.103529
v -4.49307 -1.61006 -33.2011
vn 0.252982 0.961497 -0.107353
v -4.50343 -1.60791 -33.2014
vn 0.156937 0.981448 -0.110142
v -4.51395 -1.60678 -33.2016
vn 0.0593799 0.991947 -0.11187
v -4.52453 -1.60667 -33.2016
vn -0.0387488 0.992893 -0.112522
v -4.53507 -1.6076 -33.2016
vn -0.136504 0.984278 -0.112089
v -4.54547 -1.60955 -33.2014
vn -0.232945 0.966183 -0.110577
v -4.55563 -1.61251 -33.2011
vn -0.327143 0.938783 -0.108
v -4.56544 -1.61644 -33.2008
vn -0.418189 0.902342 -0.104384
v -4.57483 -1.6213 -33.2003
vn -0.505209 0.857212 -0.0997613
v -4.58369 -1.62706 -33.1997
vn -0.587363 0.803825 -0.0941784
v -4.59193 -1.63365 -33.199
vn -0.66386 0.742698 -0.0876884
v -4.59949 -1.64102 -33.1982
vn -0.733965 0.674418 -0.080354
v -4.60629 -1.64908 -33.1973
vn -0.797 0.599643 -0.0722457
v -4.61226 -1.65776 -33.1963
vn -0.85236 0.519093 -0.0634416
v -4.61734 -1.66699 -33.1953
vn -0.899512 0.433544 -0.0540266
v -4.6215 -1.67666 -33.1943
vn -0.938 0.343819 -0.0440912
v -4.62467 -1.6867 -33.1931
vn -0.967455 0.250784 -0.0337313
v -4.62684 -1.69699 -33.192
vn -0.987593 0.155333 -0.0230465
v -4.62799 -1.70744 -33.1908
vn -0.99822 0.0583863 -0.0121397
v -4.6281 -1.71796 -33.1896
vn -0.999234 -0.0391227 -0.00111601
v -4.62717 -1.72843 -33.1884
vn -0.990624 -0.136255 0.00991841
v -4.62521 -1.73876 -33.1873
vn -0.972474 -0.232075 0.0208573
v -4.62225 -1.74886 -33.1861
vn -0.944959 -0.32566 0.0315954
v -4.6183 -1.75861 -33.185
vn -0.908343 -0.416109 0.0420291
v -4.61341 -1.76793 -33.1839
vn -0.862979 -0.50255 0.0520581
v -4.60762 -1.77673 -33.1829
vn -0.809305 -0.584151 0.0615858
v -4.60099 -1.78492 -33.1819
vn -0.747836 -0.660127 0.0705203
v -4.59358 -1.79243 -33.181
vn -0.679165 -0.729746 0.0787757
v -4.58547 -1.79918 -33.1802
vn -0.603954 -0.792336 0.0862724
v -4.57674 -1.8051 -33.1795
vn -0.522926 -0.847296 0.0929383
v -4.56746 -1.81015 -33.1789
vn -0.436862 -0.894096 0.0987092
v -4.55772 -1.81427 -33.1783
vn -0.346591 -0.932286 0.103529
v -4.54763 -1.81742 -33.1779
vn -0.252982 -0.961497 0.107353
v -4.53727 -1.81957 -33.1776
vn -0.156937 -0.981448 0.110142
v -4.52675 -1.8207 -33.1774
vn -0.0593799 -0.991947 0.11187
v -4.51617 -1.8208 -33.1774
vn 0.0387488 -0.992893 0.112522
v -4.50563 -1.81988 -33.1774
vn 0.136504 -0.984278 0.112089
v -4.49523 -1.81792 -33.1776
vn 0.232945 -0.966183 0.110577
v -4.48507 -1.81497 -33.1779
vn 0.327143 -0.938783 0.108
v -4.47525 -1.81104 -33.1782
vn 0.418189 -0.902342 0.104384
v -4.46587 -1.80617 -33.1787
vn 0.505209 -0.857212 0.0997613
v -4.45701 -1.80042 -33.1793
vn 0.587363 -0.803825 0.0941784
v -4.44876 -1.79383 -33.18
vn 0.66386 -0.742698 0.0876884
v -4.4412 -1.78646 -33.1808
vn 0.733965 -0.674418 0.080354
v -4.43441 -1.7784 -33.1817
vn 0.797 -0.599643 0.0722457
v -4.42844 -1.76971 -33.1827
vn 0.85236 -0.519093 0.0634416
v -4.42335 -1.76049 -33.1837
vn 0.899512 -0.433544 0.0540266
f 1 66 2 
f 1 65 66 
f 2 67 3 
f 2 66 67 
f 3 68 4 
f 3 67 68 
f 4 69 5 
f 4 68 69 
f 5 70 6 
f 5 69 70 
f 6 71 7 
f 6 70 71 
f 7 72 8 
f 7 71 72 
f 8 73 9 
f 8 72 73 
f 9 74 10 
f 9 73 74 
f 10 75 11 
f 10 74 75 
f 11 76 12 
f 11 75 76 
f 12 77 13 
f 12 76 77 
f 13 78 14 
f 13 77 78 
f 14 79 15 
f 14 78 79 
f 15 80 16 
f 15 79 80 
f 16 81 17 
f 16 80 81 
f 17 82 18 
f 17 81 82 
f 18 83 19 
f 18 82 83 
f 19 84 20 
f 19 83 84 
f 20 85 21 
f 20 84 85 
f 21 86 22 
f 21 85 86 
f 22 87 23 
f 22 86 87 
f 23 88 24 
f 23 87 88 
f 24 89 25 
f 24 88 89 
f 25 90 26 
f 25 89 90 
f 26 91 27 
f 26 90 91 
f 27 92 28 
f 27 91 92 
f 28 93 29 
f 28 92 93 
f 29 94 30 
f 29 93 94 
f 30 95 31 
f 30 94 95 
f 31 96 32 
f 31 95 96 
f 32 97 33 
f 32 96 97 
f 33 98 34 
f 33 97 98 
f 34 99 35 
f 34 98 99 
f 35 100 36 
f 35 99 100 
f 36 101 37 
f 36 100 101 
f 37 102 38 
f 37 101 102 
f 38 103 39 
f 38 102 103 
f 39 104 40 
f 39 103 104 
f 40 105 41 
f 40 104 105 
f 41 106 42 
f 41 105 106 
f 42 107 43 
f 42 106 107 
f 43 108 44 
f 43 107 108 
f 44 109 45 
f 44 108 109 
f 45 110 46 
f 45 109 110 
f 46 111 47 
f 46 110 111 
f 47 112 48 
f 47 111 112 
f 48 113 49 
f 48 112 113 
f 49 114 50 
f 49 113 114 
f 50 115 51 
f 50 114 115 
f 51 116 52 
f 51 115 116 
f 52 117 53 
f 52 116 117 
f 53 118 54 
f 53 117 118 
f 54 119 55 
f 54 118 119 
f 55 120 56 
f 55 119 120 
f 56 121 57 
f 56 120 121 
f 57 122 58 
f 57 121 122 
f 58 123 59 
f 58 122 123 
f 59 124 60 
f 59 123 124 
f 60 125 61 
f 60 124 125 
f 61 126 62 
f 61 125 126 
f 62 127 63 
f 62 126 127 
f 63 128 64 
f 63 127 128 
f 64 65 1 
f 64 128 65 
f 65 130 66 
f 65 129 130 
f 66 131 67 
f 66 130 131 
f 67 132 68 
f 67 131 132 
f 68 133 69 
f 68 132 133 
f 69 134 70 
f 69 133 134 
f 70 135 71 
f 70 134 135 
f 71 136 72 
f 71 135 136 
f 72 137 73 
f 72 136 137 
f 73 138 74 
f 73 137 138 
f 74 139 75 
f 74 138 139 
f 75 140 76 
f 75 139 140 
f 76 141 77 
f 76 140 141 
f 77 142 78 
f 77 141 142 
f 78 143 79 
f 78 142 143 
f 79 144 80 
f 79 143 144 
f 80 145 81 
f 80 144 145 
f 81 146 82 
f 81 145 146 
f 82 147 83 
f 82 146 147 
f 83 148 84 
f 83 147 148 
f 84 149 85 
f 84 148 149 
f 85 150 86 
f 85 149 150 
f 86 151 87 
f 86 150 151 
f 87 152 88 
f 87 151 152 
f 88 153 89 
f 88 152 153 
f 89 154 90 
f 89 153 154 
f 90 155 91 
f 90 154 155 
f 91 156 92 
f 91 155 156 
f 92 157 93 
f 92 156 157 
f 93 158 94 
f 93 157 158 
f 94 159 95 
f 94 158 159 
f 95 160 96 
f 95 159 160 
f 96 161 97 
f 96 160 161 
f 97 162 98 
f 97 161 162 
f 98 163 99 
f 98 162 163 
f 99 164 100 
f 99 163 164 
f 100 165 101 
f 100 164 165 
f 101 166 102 
f 101 165 166 
f 102 167 103 
f 102 166 167 
f 103 168 104 
f 103 167 168 
f 104 169 105 
f 104 168 169 
f 105 170 106 
f 105 169 170 
f 106 171 107 
f 106 170 171 
f 107 172 108 
f 107 171 172 
f 108 173 109 
f 108 172 173 
f 109 174 110 
f 109 173 174 
f 110 175 111 
f 110 174 175 
f 111 176 112 
f 111 175 176 
f 112 177 113 
f 112 176 177 
f 113 178 114 
f 113 177 178 
f 114 179 115 
f 114 178 179 
f 115 180 116 
f 115 179 180 
f 116 181 117 
f 116 180 181 
f 117 182 118 
f 117 181 182 
f 118 183 119 
f 118 182 183 
f 119 184 120 
f 119 183 184 
f 120 185 121 
f 120 184 185 
f 121 186 122 
f 121 185 186 
f 122 187 123 
f 122 186 187 
f 123 188 124 
f 123 187 188 
f 124 189 125 
f 124 188 189 
f 125 190 126 
f 125 189 190 
f 126 191 127 
f 126 190 191 
f 127 192 128 
f 127 191 192 
f 128 129 65 
f 128 192 129 
f 129 194 130 
f 129 193 194 
f 130 195 131 
f 130 194 195 
f 131 196 132 
f 131 195 196 
f 132 197 133 
f 132 196 197 
f 133 198 134 
f 133 197 198 
f 134 199 135 
f 134 198 199 
f 135 200 136 
f 135 199 200 
f 136 201 137 
f 136 200 201 
f 137 202 138 
f 137 201 202 
f 138 203 139 
f 138 202 203 
f 139 204 140 
f 139 203 204 
f 140 205 141 
f 140 204 205 
f 141 206 142 
f 141 205 206 
f 142 207 143 
f 142 206 207 
f 143 208 144 
f 143 207 208 
f 144 209 145 
f 144 208 209 
f 145 210 146 
f 145 209 210 
f 146 211 147 
f 146 210 211 
f 147 212 148 
f 147 211 212 
f 148 213 149 
f 148 212 213 
f 149 214 150 
f 149 213 214 
f 150 215 151 
f 150 214 215 
f 151 216 152 
f 151 215 216 
f 152 217 153 
f 152 216 217 
f 153 218 154 
f 153 217 218 
f 154 219 155 
f 154 218 219 
f 155 220 156 
f 155 219 220 
f 156 221 157 
f 156 220 221 
f 157 222 158 
f 157 221 222 
f 158 223 159 
f 158 222 223 
f 159 224 160 
f 159 223 224 
f 160 225 161 
f 160 224 225 
f 161 226 162 
f 161 225 226 
f 162 227 163 
f 162 226 227 
f 163 228 164 
f 163 227 228 
f 164 229 165 
f 164 228 229 
f 165 230 166 
f 165 229 230 
f 166 231 167 
f 166 230 231 
f 167 232 168 
f 167 231 232 
f 168 233 169 
f 168 232 233 
f 169 234 170 
f 169 233 234 
f 170 235 171 
f 170 234 235 
f 171 236 172 
f 171 235 236 
f 172 237 173 
f 172 236 237 
f 173 238 174 
f 173 237 238 
f 174 239 175 
f 174 238 239 
f 175 240 176 
f 175 239 240 
f 176 241 177 
f 176 240 241 
f 177 242 178 
f 177 241 242 
f 178 243 179 
f 178 242 243 
f 179 244 180 
f 179 243 244 
f 180 245 181 
f 180 244 245 
f 181 246 182 
f 181 245 246 
f 182 247 183 
f 182 246 247 
f 183 248 184 
f 183 247 248 
f 184 249 185 
f 184 248 249 
f 185 250 186 
f 185 249 250 
f 186 251 187 
f 186 250 251 
f 187 252 188 
f 187 251 252 
f 188 253 189 
f 188 252 253 
f 189 254 190 
f 189 253 254 
f 190 255 191 
f 190 254 255 
f 191 256 192 
f 191 255 256 
f 192 193 129 
f 192 256 193 
f 193 258 194 
f 193 257 258 
f 194 259 195 
f 194 258 259 
f 195 260 196 
f 195 259 260 
f 196 261 197 
f 196 260 261 
f 197 262 198 
f 197 261 262 
f 198 263 199 
f 198 262 263 
f 199 264 200 
f 199 263 264 
f 200 265 201 
f 200 264 265 
f 201 266 202 
f 201 265 266 
f 202 267 203 
f 202 266 267 
f 203 268 204 
f 203 267 268 
f 204 269 205 
f 204 268 269 
f 205 270 206 
f 205 269 270 
f 206 271 207 
f 206 270 271 
f 207 272 208 
f 207 271 272 
f 208 273 209 
f 208 272 273 
f 209 274 210 
f 209 273 274 
f 210 275 211 
f 210 274 275 
f 211 276 212 
f 211 275 276 
f 212 277 213 
f 212 276 277 
f 213 278 214 
f 213 277 278 
f 214 279 215 
f 214 278 279 
f 215 280 216 
f 215 279 280 
f 216 281 217 
f 216 280 281 
f 217 282 218 
f 217 281 282 
f 218 283 219 
f 218 282 283 
f 219 284 220 
f 219 283 284 
f 220 285 221 
f 220 284 285 
f 221 286 222 
f 221 285 286 
f 222 287 223 
f 222 286 287 
f 223 288 224 
f 223 287 288 
f 224 289 225 
f 224 288 289 
f 225 290 226 
f 225 289 290 
f 226 291 227 
f 226 290 291 
f 227 292 228 
f 227 291 292 
f 228 293 229 
f 228 292 293 
f 229 294 230 
f 229 293 294 
f 230 295 231 
f 230 294 295 
f 231 296 232 
f 231 295 296 
f 232 297 233 
f 232 296 297 
f 233 298 234 
f 233 297 298 
f 234 299 235 
f 234 298 299 
f 235 300 236 
f 235 299 300 
f 236 301 237 
f 236 300 301 
f 237 302 238 
f 237 301 302 
f 238 303 239 
f 238 302 303 
f 239 304 240 
f 239 303 304 
f 240 305 241 
f 240 304 305 
f 241 306 242 
f 241 305 306 
f 242 307 243 
f 242 306 307 
f 243 308 244 
f 243 307 308 
f 244 309 245 
f 244 308 309 
f 245 310 246 
f 245 309 310 
f 246 311 247 
f 246 310 311 
f 247 312 248 
f 247 311 312 
f 248 313 249 
f 248 312 313 
f 249 314 250 
f 249 313 314 
f 250 315 251 
f 250 314 315 
f 251 316 252 
f 251 315 316 
f 252 317 253 
f 252 316 317 
f 253 318 254 
f 253 317 318 
f 254 319 255 
f 254 318 319 
f 255 320 256 
f 255 319 320 
f 256 257 193 
f 256 320 257 
f 257 322 258 
f 257 321 322 
f 258 323 259 
f 258 322 323 
f 259 324 260 
f 259 323 324 
f 260 325 261 
f 260 324 325 
f 261 326 262 
f 261 325 326 
f 262 327 263 
f 262 326 327 
f 263 328 264 
f 263 327 328 
f 264 329 265 
f 264 328 329 
f 265 330 266 
f 265 329 330 
f 266 331 267 
f 266 330 331 
f 267 332 268 
f 267 331 332 
f 268 333 269 
f 268 332 333 
f 269 334 270 
f 269 333 334 
f 270 335 271 
f 270 334 335 
f 271 336 272 
f 271 335 336 
f 272 337 273 
f 272 336 337 
f 273 338 274 
f 273 337 338 
f 274 339 275 
f 274 338 339 
f 275 340 276 
f 275 339 340 
f 276 341 277 
f 276 340 341 
f 277 342 278 
f 277 341 342 
f 278 343 279 
f 278 342 343 
f 279 344 280 
f 279 343 344 
f 280 345 281 
f 280 344 345 
f 281 346 282 
f 281 345 346 
f 282 347 283 
f 282 346 347 
f 283 348 284 
f 283 347 348 
f 284 349 285 
f 284 348 349 
f 285 350 286 
f 285 349 350 
f 286 351 287 
f 286 350 351 
f 287 352 288 
f 287 351 352 
f 288 353 289 
f 288 352 353 
f 289 354 290 
f 289 353 354 
f 290 355 291 
f 290 354 355 
f 291 356 292 
f 291 355 356 
f 292 357 293 
f 292 356 357 
f 293 358 294 
f 293 357 358 
f 294 359 295 
f 294 358 359 
f 295 360 296 
f 295 359 360 
f 296 361 297 
f 296 360 361 
f 297 362 298 
f 297 361 362 
f 298 363 299 
f 298 362 363 
f 299 364 300 
f 299 363 364 
f 300 365 301 
f 300 364 365 
f 301 366 302 
f 301 365 366 
f 302 367 303 
f 302 366 367 
f 303 368 304 
f 303 367 368 
f 304 369 305 
f 304 368 369 
f 305 370 306 
f 305 369 370 
f 306 371 307 
f 306 370 371 
f 307 372 308 
f 307 371 372 
f 308 373 309 
f 308 372 373 
f 309 374 310 
f 309 373 374 
f 310 375 311 
f 310 374 375 
f 311 376 312 
f 311 375 376 
f 312 377 313 
f 312 376 377 
f 313 378 314 
f 313 377 378 
f 314 379 315 
f 314 378 379 
f 315 380 316 
f 315 379 380 
f 316 381 317 
f 316 380 381 
f 317 382 318 
f 317 381 382 
f 318 383 319 
f 318 382 383 
f 319 384 320 
f 319 383 384 
f 320 321 257 
f 320 384 321 
f 321 386 322 
f 321 385 386 
f 322 387 323 
f 322 386 387 
f 323 388 324 
f 323 387 388 
f 324 389 325 
f 324 388 389 
f 325 390 326 
f 325 389 390 
f 326 391 327 
f 326 390 391 
f 327 392 328 
f 327 391 392 
f 328 393 329 
f 328 392 393 
f 329 394 330 
f 329 393 394 
f 330 395 331 
f 330 394 395 
f 331 396 332 
f 331 395 396 
f 332 397 333 
f 332 396 397 
f 333 398 334 
f 333 397 398 
f 334 399 335 
f 334 398 399 
f 335 400 336 
f 335 399 400 
f 336 401 337 
f 336 400 401 
f 337 402 338 
f 337 401 402 
f 338 403 339 
f 338 402 403 
f 339 404 340 
f 339 403 404 
f 340 405 341 
f 340 404 405 
f 341 406 342 
f 341 405 406 
f 342 407 343 
f 342 406 407 
f 343 408 344 
f 343 407 408 
f 344 409 345 
f 344 408 409 
f 345 410 346 
f 345 409 410 
f 346 411 347 
f 346 410 411 
f 347 412 348 
f 347 411 412 
f 348 413 349 
f 348 412 413 
f 349 414 350 
f 349 413 414 
f 350 415 351 
f 350 414 415 
f 351 416 352 
f 351 415 416 
f 352 417 353 
f 352 416 417 
f 353 418 354 
f 353 417 418 
f 354 419 355 
f 354 418 419 
f 355 420 356 
f 355 419 420 
f 356 421 357 
f 356 420 421 
f 357 422 358 
f 357 421 422 
f 358 423 359 
f 358 422 423 
f 359 424 360 
f 359 423 424 
f 360 425 361 
f 360 424 425 
f 361 426 362 
f 361 425 426 
f 362 427 363 
f 362 426 427 
f 363 428 364 
f 363 427 428 
f 364 429 365 
f 364 428 429 
f 365 430 366 
f 365 429 430 
f 366 431 367 
f 366 430 431 
f 367 432 368 
f 367 431 432 
f 368 433 369 
f 368 432 433 
f 369 434 370 
f 369 433 434 
f 370 435 371 
f 370 434 435 
f 371 436 372 
f 371 435 436 
f 372 437 373 
f 372 436 437 
f 373 438 374 
f 373 437 438 
f 374 439 375 
f 374 438 439 
f 375 440 376 
f 375 439 440 
f 376 441 377 
f 376 440 441 
f 377 442 378 
f 377 441 442 
f 378 443 379 
f 378 442 443 
f 379 444 380 
f 379 443 444 
f 380 445 381 
f 380 444 445 
f 381 446 382 
f 381 445 446 
f 382 447 383 
f 382 446 447 
f 383 448 384 
f 383 447 448 
f 384 385 321 
f 384 448 385 
f 385 450 386 
f 385 449 450 
f 386 451 387 
f 386 450 451 
f 387 452 388 
f 387 451 452 
f 388 453 389 
f 388 452 453 
f 389 454 390 
f 389 453 454 
f 390 455 391 
f 390 454 455 
f 391 456 392 
f 391 455 456 
f 392 457 393 
f 392 456 457 
f 393 458 394 
f 393 457 458 
f 394 459 395 
f 394 458 459 
f 395 460 396 
f 395 459 460 
f 396 461 397 
f 396 460 461 
f 397 462 398 
f 397 461 462 
f 398 463 399 
f 398 462 463 
f 399 464 400 
f 399 463 464 
f 400 465 401 
f 400 464 465 
f 401 466 402 
f 401 465 466 
f 402 467 403 
f 402 466 467 
f 403 468 404 
f 403 467 468 
f 404 469 405 
f 404 468 469 
f 405 470 406 
f 405 469 470 
f 406 471 407 
f 406 470 471 
f 407 472 408 
f 407 471 472 
f 408 473 409 
f 408 472 473 
f 409 474 410 
f 409 473 474 
f 410 475 411 
f 410 474 475 
f 411 476 412 
f 411 475 476 
f 412 477 413 
f 412 476 477 
f 413 478 414 
f 413 477 478 
f 414 479 415 
f 414 478 479 
f 415 480 416 
f 415 479 480 
f 416 481 417 
f 416 480 481 
f 417 482 418 
f 417 481 482 
f 418 483 419 
f 418 482 483 
f 419 484 420 
f 419 483 484 
f 420 485 421 
f 420 484 485 
f 421 486 422 
f 421 485 486 
f 422 487 423 
f 422 486 487 
f 423 488 424 
f 423 487 488 
f 424 489 425 
f 424 488 489 
f 425 490 426 
f 425 489 490 
f 426 491 427 
f 426 490 491 
f 427 492 428 
f 427 491 492 
f 428 493 429 
f 428 492 493 
f 429 494 430 
f 429 493 494 
f 430 495 431 
f 430 494 495 
f 431 496 432 
f 431 495 496 
f 432 497 433 
f 432 496 497 
f 433 498 434 
f 433 497 498 
f 434 499 435 
f 434 498 499 
f 435 500 436 
f 435 499 500 
f 436 501 437 
f 436 500 501 
f 437 502 438 
f 437 501 502 
f 438 503 439 
f 438 502 503 
f 439 504 440 
f 439 503 504 
f 440 505 441 
f 440 504 505 
f 441 506 442 
f 441 505 506 
f 442 507 443 
f 442 506 507 
f 443 508 444 
f 443 507 508 
f 444 509 445 
f 444 508 509 
f 445 510 446 
f 445 509 510 
f 446 511 447 
f 446 510 511 
f 447 512 448 
f 447 511 512 
f 448 449 385 
f 448 512 449 
f 449 514 450 
f 449 513 514 
f 450 515 451 
f 450 514 515 
f 451 516 452 
f 451 515 516 
f 452 517 453 
f 452 516 517 
f 453 518 454 
f 453 517 518 
f 454 519 455 
f 454 518 519 
f 455 520 456 
f 455 519 520 
f 456 521 457 
f 456 520 521 
f 457 522 458 
f 457 521 522 
f 458 523 459 
f 458 522 523 
f 459 524 460 
f 459 523 524 
f 460 525 461 
f 460 524 525 
f 461 526 462 
f 461 525 526 
f 462 527 463 
f 462 526 527 
f 463 528 464 
f 463 527 528 
f 464 529 465 
f 464 528 529 
f 465 530 466 
f 465 529 530 
f 466 531 467 
f 466 530 531 
f 467 532 468 
f 467 531 532 
f 468 533 469 
f 468 532 533 
f 469 534 470 
f 469 533 534 
f 470 535 471 
f 470 534 535 
f 471 536 472 
f 471 535 536 
f 472 537 473 
f 472 536 537 
f 473 538 474 
f 473 537 538 
f 474 539 475 
f 474 538 539 
f 475 540 476 
f 475 539 540 
f 476 541 477 
f 476 540 541 
f 477 542 478 
f 477 541 542 
f 478 543 479 
f 478 542 543 
f 479 544 480 
f 479 543 544 
f 480 545 481 
f 480 544 545 
f 481 546 482 
f 481 545 546 
f 482 547 483 
f 482 546 547 
f 483 548 484 
f 483 547 548 
f 484 549 485 
f 484 548 549 
f 485 550 486 
f 485 549 550 
f 486 551 487 
f 486 550 551 
f 487 552 488 
f 487 551 552 
f 488 553 489 
f 488 552 553 
f 489 554 490 
f 489 553 554 
f 490 555 491 
f 490 554 555 
f 491 556 492 
f 491 555 556 
f 492 557 493 
f 492 556 557 
f 493 558 494 
f 493 557 558 
f 494 559 495 
f 494 558 559 
f 495 560 496 
f 495 559 560 
f 496 561 497 
f 496 560 561 
f 497 562 498 
f 497 561 562 
f 498 563 499 
f 498 562 563 
f 499 564 500 
f 499 563 564 
f 500 565 501 
f 500 564 565 
f 501 566 502 
f 501 565 566 
f 502 567 503 
f 502 566 567 
f 503 568 504 
f 503 567 568 
f 504 569 505 
f 504 568 569 
f 505 570 506 
f 505 569 570 
f 506 571 507 
f 506 570 571 
f 507 572 508 
f 507 571 572 
f 508 573 509 
f 508 572 573 
f 509 574 510 
f 509 573 574 
f 510 575 511 
f 510 574 575 
f 511 576 512 
f 511 575 576 
f 512 513 449 
f 512 576 513 
f 513 578 514 
f 513 577 578 
f 514 579 515 
f 514 578 579 
f 515 580 516 
f 515 579 580 
f 516 581 517 
f 516 580 581 
f 517 582 518 
f 517 581 582 
f 518 583 519 
f 518 582 583 
f 519 584 520 
f 519 583 584 
f 520 585 521 
f 520 584 585 
f 521 586 522 
f 521 585 586 
f 522 587 523 
f 522 586 587 
f 523 588 524 
f 523 587 588 
f 524 589 525 
f 524 588 589 
f 525 590 526 
f 525 589 590 
f 526 591 527 
f 526 590 591 
f 527 592 528 
f 527 591 592 
f 528 593 529 
f 528 592 593 
f 529 594 530 
f 529 593 594 
f 530 595 531 
f 530 594 595 
f 531 596 532 
f 531 595 596 
f 532 597 533 
f 532 596 597 
f 533 598 534 
f 533 597 598 
f 534 599 535 
f 534 598 599 
f 535 600 536 
f 535 599 600 
f 536 601 537 
f 536 600 601 
f 537 602 538 
f 537 601 602 
f 538 603 539 
f 538 602 603 
f 539 604 540 
f 539 603 604 
f 540 605 541 
f 540 604 605 
f 541 606 542 
f 541 605 606 
f 542 607 543 
f 542 606 607 
f 543 608 544 
f 543 607 608 
f 544 609 545 
f 544 608 609 
f 545 610 546 
f 545 609 610 
f 546 611 547 
f 546 610 611 
f 547 612 548 
f 547 611 612 
f 548 613 549 
f 548 612 613 
f 549 614 550 
f 549 613 614 
f 550 615 551 
f 550 614 615 
f 551 616 552 
f 551 615 616 
f 552 617 553 
f 552 616 617 
f 553 618 554 
f 553 617 618 
f 554 619 555 
f 554 618 619 
f 555 620 556 
f 555 619 620 
f 556 621 557 
f 556 620 621 
f 557 622 558 
f 557 621 622 
f 558 623 559 
f 558 622 623 
f 559 624 560 
f 559 623 624 
f 560 625 561 
f 560 624 625 
f 561 626 562 
f 561 625 626 
f 562 627 563 
f 562 626 627 
f 563 628 564 
f 563 627 628 
f 564 629 565 
f 564 628 629 
f 565 630 566 
f 565 629 630 
f 566 631 567 
f 566 630 631 
f 567 632 568 
f 567 631 632 
f 568 633 569 
f 568 632 633 
f 569 634 570 
f 569 633 634 
f 570 635 571 
f 570 634 635 
f 571 636 572 
f 571 635 636 
f 572 637 573 
f 572 636 637 
f 573 638 574 
f 573 637 638 
f 574 639 575 
f 574 638 639 
f 575 640 576 
f 575 639 640 
f 576 577 513 
f 576 640 577 
