# Branch
v 2.81255 2.72338 -27.1848
vn -0.430445 -0.349766 0.832095
v 2.80992 2.75723 -27.1741
vn -0.437704 -0.256502 0.861755
v 2.80881 2.79198 -27.1663
vn -0.440748 -0.160768 0.883117
v 2.80925 2.82728 -27.1617
vn -0.439547 -0.0634859 0.895973
v 2.81122 2.86281 -27.1601
vn -0.434114 0.0344076 0.900201
v 2.81471 2.89822 -27.1617
vn -0.424499 0.13197 0.895759
v 2.81968 2.93317 -27.1665
vn -0.410796 0.228261 0.882691
v 2.82609 2.96732 -27.1743
vn -0.393138 0.322354 0.861122
v 2.83387 3.00034 -27.1851
vn -0.371693 0.413343 0.83126
v 2.84296 3.03192 -27.1989
vn -0.346668 0.50035 0.793392
v 2.85325 3.06175 -27.2154
vn -0.318305 0.58254 0.747883
v 2.86466 3.08954 -27.2345
vn -0.286876 0.659119 0.695172
v 2.87707 3.11503 -27.2561
vn -0.252685 0.72935 0.635767
v 2.89036 3.13797 -27.2799
vn -0.21606 0.792557 0.570238
v 2.90441 3.15814 -27.3057
vn -0.177355 0.848132 0.499218
v 2.91907 3.17535 -27.3332
vn -0.136941 0.895538 0.423389
v 2.93422 3.18942 -27.3622
vn -0.0952083 0.93432 0.343484
v 2.9497 3.20023 -27.3924
vn -0.0525589 0.964104 0.26027
v 2.96536 3.20767 -27.4235
vn -0.00940338 0.984603 0.17455
v 2.98106 3.21167 -27.4552
vn 0.0338427 0.99562 0.0871492
v 2.99663 3.21219 -27.4872
vn 0.076763 0.997049 -0.00109116
v 3.01194 3.20922 -27.5193
vn 0.118944 0.988875 -0.089321
v 3.02684 3.2028 -27.551
vn 0.159979 0.971178 -0.176691
v 3.04117 3.19298 -27.5821
vn 0.199474 0.944128 -0.262359
v 3.05481 3.17986 -27.6122
vn 0.237048 0.907986 -0.3455
v 3.06762 3.16357 -27.6412
vn 0.272339 0.863099 -0.425314
v 3.07947 3.14427 -27.6687
vn 0.305007 0.8099 -0.501032
v 3.09026 3.12213 -27.6944
vn 0.334737 0.748901 -0.571925
v 3.09988 3.09737 -27.7181
vn 0.361244 0.68069 -0.63731
v 3.10824 3.07024 -27.7396
vn 0.384272 0.605924 -0.696557
v 3.11525 3.04098 -27.7587
vn 0.403599 0.525322 -0.749096
v 3.12086 3.00989 -27.7752
vn 0.41904 0.439661 -0.794421
v 3.125 2.97727 -27.7888
vn 0.430445 0.349766 -0.832095
v 3.12763 2.94342 -27.7996
vn 0.437704 0.256502 -0.861755
v 3.12874 2.90867 -27.8074
vn 0.440748 0.160768 -0.883117
v 3.1283 2.87337 -27.812
vn 0.439547 0.0634859 -0.895973
v 3.12633 2.83784 -27.8136
vn 0.434114 -0.0344076 -0.900201
v 3.12284 2.80243 -27.8119
vn 0.424499 -0.13197 -0.895759
v 3.11787 2.76748 -27.8072
vn 0.410796 -0.228261 -0.882691
v 3.11146 2.73333 -27.7994
vn 0.393138 -0.322354 -0.861122
v 3.10367 2.70031 -27.7885
vn 0.371693 -0.413343 -0.83126
v 3.09459 2.66873 -27.7748
vn 0.346668 -0.50035 -0.793392
v 3.0843 2.6389 -27.7583
vn 0.318305 -0.58254 -0.747883
v 3.07289 2.61111 -27.7391
vn 0.286876 -0.659119 -0.695172
v 3.06048 2.58562 -27.7176
vn 0.252685 -0.72935 -0.635767
v 3.04719 2.56268 -27.6938
vn 0.21606 -0.792557 -0.570238
v 3.03314 2.54251 -27.668
vn 0.177355 -0.848132 -0.499218
v 3.01847 2.5253 -27.6405
vn 0.136941 -0.895538 -0.423389
v 3.00333 2.51123 -27.6115
vn 0.0952083 -0.93432 -0.343484
v 2.98785 2.50042 -27.5813
vn 0.0525589 -0.964104 -0.26027
v 2.97219 2.49298 -27.5502
vn 0.00940338 -0.984603 -0.17455
v 2.95649 2.48898 -27.5185
vn -0.0338427 -0.99562 -0.0871492
v 2.94091 2.48846 -27.4864
vn -0.076763 -0.997049 0.00109116
v 2.92561 2.49143 -27.4544
vn -0.118944 -0.988875 0.089321
v 2.91071 2.49785 -27.4227
vn -0.159979 -0.971178 0.176691
v 2.89638 2.50767 -27.3916
vn -0.199474 -0.944128 0.262359
v 2.88274 2.52078 -27.3614
vn -0.237048 -0.907986 0.3455
v 2.86993 2.53708 -27.3325
vn -0.272339 -0.863099 0.425314
v 2.85808 2.55638 -27.305
vn -0.305007 -0.8099 0.501032
v 2.84729 2.57852 -27.2793
vn -0.334737 -0.748901 0.571925
v 2.83767 2.60328 -27.2555
vn -0.361244 -0.68069 0.63731
v 2.82931 2.63041 -27.234
vn -0.384272 -0.605924 0.696557
v 2.82229 2.65967 -27.215
vn -0.403599 -0.525322 0.749096
v 2.81669 2.69076 -27.1985
vn -0.41904 -0.439661 0.794421
v 3.57937 2.68177 -26.8591
vn -0.330922 -0.355134 0.874283
v 3.57656 2.71565 -26.8484
vn -0.338661 -0.261844 0.90374
v 3.57493 2.75044 -26.8409
vn -0.343138 -0.166033 0.924494
v 3.57451 2.78581 -26.8366
vn -0.344311 -0.0686229 0.936345
v 3.57529 2.82142 -26.8355
vn -0.342167 0.0294481 0.939178
v 3.57726 2.85692 -26.8378
vn -0.336728 0.127236 0.932966
v 3.58041 2.89198 -26.8433
vn -0.328047 0.223798 0.917769
v 3.58471 2.92626 -26.852
vn -0.316206 0.318204 0.893734
v 3.59012 2.95943 -26.8639
vn -0.30132 0.409547 0.861091
v 3.59658 2.99116 -26.8788
vn -0.283532 0.496945 0.820156
v 3.60403 3.02116 -26.8965
vn -0.263014 0.579557 0.771322
v 3.6124 3.04913 -26.9169
vn -0.239962 0.656588 0.71506
v 3.62161 3.07481 -26.9399
vn -0.2146 0.727296 0.651911
v 3.63157 3.09794 -26.9651
vn -0.18717 0.790999 0.582484
v 3.64218 3.1183 -26.9923
vn -0.157939 0.847084 0.507448
v 3.65335 3.1357 -27.0213
vn -0.127186 0.895012 0.427525
v 3.66496 3.14998 -27.0518
vn -0.0952083 0.93432 0.343484
v 3.6769 3.16098 -27.0836
vn -0.0623138 0.96463 0.256135
v 3.68906 3.16862 -27.1162
vn -0.0288192 0.985651 0.16632
v 3.70133 3.1728 -27.1494
vn 0.00495302 0.997179 0.0749026
v 3.71357 3.1735 -27.1828
vn 0.0386775 0.999103 -0.0172358
v 3.72568 3.1707 -27.2162
vn 0.0720295 0.991406 -0.109208
v 3.73754 3.16444 -27.2492
vn 0.104688 0.974161 -0.200129
v 3.74903 3.15477 -27.2815
vn 0.136338 0.947534 -0.289123
v 3.76005 3.14179 -27.3128
vn 0.166675 0.911782 -0.375332
v 3.77048 3.12562 -27.3428
vn 0.195407 0.867249 -0.457926
v 3.78023 3.10642 -27.3712
vn 0.222257 0.814363 -0.53611
v 3.7892 3.08437 -27.3977
vn 0.246967 0.753635 -0.609131
v 3.79731 3.05968 -27.4221
vn 0.269298 0.68565 -0.676286
v 3.80448 3.0326 -27.4441
vn 0.289036 0.611061 -0.736928
v 3.81063 3.00338 -27.4636
vn 0.30599 0.530587 -0.790473
v 3.81572 2.9723 -27.4803
vn 0.319997 0.445003 -0.836406
v 3.81969 2.93967 -27.494
vn 0.330922 0.355134 -0.874283
v 3.8225 2.9058 -27.5047
vn 0.338661 0.261844 -0.90374
v 3.82412 2.87101 -27.5123
vn 0.343138 0.166033 -0.924494
v 3.82455 2.83564 -27.5166
vn 0.344311 0.0686229 -0.936345
v 3.82377 2.80003 -27.5176
vn 0.342167 -0.0294481 -0.939178
v 3.8218 2.76452 -27.5153
vn 0.336728 -0.127236 -0.932966
v 3.81864 2.72946 -27.5098
vn 0.328047 -0.223798 -0.917769
v 3.81434 2.69518 -27.5011
vn 0.316206 -0.318204 -0.893734
v 3.80894 2.66202 -27.4892
vn 0.30132 -0.409547 -0.861091
v 3.80248 2.63028 -27.4744
vn 0.283532 -0.496945 -0.820156
v 3.79503 2.60028 -27.4566
vn 0.263014 -0.579557 -0.771322
v 3.78666 2.57231 -27.4362
vn 0.239962 -0.656588 -0.71506
v 3.77745 2.54664 -27.4133
vn 0.2146 -0.727296 -0.651911
v 3.76749 2.52351 -27.3881
vn 0.18717 -0.790999 -0.582484
v 3.75688 2.50314 -27.3608
vn 0.157939 -0.847084 -0.507448
v 3.74571 2.48574 -27.3318
vn 0.127186 -0.895012 -0.427525
v 3.7341 2.47147 -27.3013
vn 0.0952083 -0.93432 -0.343484
v 3.72215 2.46046 -27.2696
vn 0.0623138 -0.96463 -0.256135
v 3.70999 2.45283 -27.237
vn 0.0288192 -0.985651 -0.16632
v 3.69773 2.44864 -27.2038
vn -0.00495302 -0.997179 -0.0749026
v 3.68548 2.44795 -27.1703
vn -0.0386775 -0.999103 0.0172358
v 3.67337 2.45074 -27.1369
vn -0.0720295 -0.991406 0.109208
v 3.66152 2.457 -27.1039
vn -0.104688 -0.974161 0.200129
v 3.65002 2.46667 -27.0716
vn -0.136338 -0.947534 0.289123
v 3.63901 2.47965 -27.0403
vn -0.166675 -0.911782 0.375332
v 3.62858 2.49582 -27.0103
vn -0.195407 -0.867249 0.457926
v 3.61883 2.51503 -26.9819
vn -0.222257 -0.814363 0.53611
v 3.60985 2.53708 -26.9554
vn -0.246967 -0.753635 0.609131
v 3.60175 2.56176 -26.931
vn -0.269298 -0.68565 0.676286
v 3.59458 2.58885 -26.909
vn -0.289036 -0.611061 0.736928
v 3.58842 2.61807 -26.8895
vn -0.30599 -0.530587 0.790473
v 3.58334 2.64914 -26.8729
vn -0.319997 -0.445003 0.836406
v 4.36498 2.673 -26.6175
vn -0.22386 -0.356309 0.907155
v 4.36198 2.70689 -26.6068
vn -0.232114 -0.263014 0.936454
v 4.3598 2.7417 -26.5995
vn -0.238132 -0.167186 0.956735
v 4.35844 2.7771 -26.5955
vn -0.241858 -0.0697474 0.967802
v 4.35794 2.81274 -26.5948
vn -0.243254 0.0283624 0.969548
v 4.35828 2.84828 -26.5976
vn -0.242307 0.126199 0.961957
v 4.35947 2.88338 -26.6037
vn -0.239027 0.222821 0.945102
v 4.3615 2.9177 -26.6131
vn -0.233445 0.317296 0.919144
v 4.36434 2.95091 -26.6258
vn -0.225615 0.408716 0.884335
v 4.36798 2.98269 -26.6415
vn -0.215612 0.496199 0.84101
v 4.37237 3.01274 -26.6602
vn -0.203533 0.578904 0.789585
v 4.37747 3.04076 -26.6816
vn -0.189493 0.656034 0.730556
v 4.38323 3.06648 -26.7056
vn -0.173628 0.726846 0.664491
v 4.3896 3.08966 -26.732
vn -0.156092 0.790658 0.592027
v 4.39652 3.11008 -26.7604
vn -0.137052 0.846855 0.513861
v 4.40391 3.12753 -26.7906
vn -0.116692 0.894897 0.430747
v 4.41172 3.14185 -26.8223
vn -0.0952083 0.93432 0.343484
v 4.41985 3.1529 -26.8552
vn -0.0728078 0.964746 0.252913
v 4.42825 3.16058 -26.8889
vn -0.0497061 0.98588 0.159907
v 4.43681 3.16481 -26.9233
vn -0.0261257 0.99752 0.0653602
v 4.44547 3.16555 -26.9579
vn -0.00229368 0.999553 -0.0298157
v 4.45414 3.16279 -26.9923
vn 0.0215604 0.99196 -0.124704
v 4.46273 3.15656 -27.0264
vn 0.0452069 0.974813 -0.218392
v 4.47116 3.14692 -27.0596
vn 0.068418 0.948279 -0.309977
v 4.47935 3.13396 -27.0918
vn 0.0909702 0.912613 -0.398576
v 4.48722 3.11781 -27.1226
vn 0.112646 0.868157 -0.483337
v 4.4947 3.09863 -27.1517
vn 0.133238 0.81534 -0.563443
v 4.50172 3.07659 -27.1788
vn 0.152546 0.754672 -0.638122
v 4.5082 3.05191 -27.2037
vn 0.170385 0.686735 -0.706657
v 4.51408 3.02483 -27.2262
vn 0.186583 0.612185 -0.768385
v 4.51931 2.9956 -27.2459
vn 0.200984 0.531739 -0.822714
v 4.52384 2.96452 -27.2628
vn 0.21345 0.446172 -0.86912
v 4.52762 2.93188 -27.2766
vn 0.22386 0.356309 -0.907155
v 4.53062 2.89798 -27.2872
vn 0.232114 0.263014 -0.936454
v 4.53281 2.86317 -27.2946
vn 0.238132 0.167186 -0.956735
v 4.53416 2.82778 -27.2986
vn 0.241858 0.0697474 -0.967802
v 4.53467 2.79214 -27.2992
vn 0.243254 -0.0283624 -0.969548
v 4.53433 2.75659 -27.2965
vn 0.242307 -0.126199 -0.961957
v 4.53313 2.72149 -27.2904
vn 0.239027 -0.222821 -0.945102
v 4.53111 2.68717 -27.2809
vn 0.233445 -0.317296 -0.919144
v 4.52826 2.65396 -27.2683
vn 0.225615 -0.408716 -0.884335
v 4.52463 2.62218 -27.2526
vn 0.215612 -0.496199 -0.84101
v 4.52024 2.59214 -27.2339
vn 0.203533 -0.578904 -0.789585
v 4.51514 2.56412 -27.2124
vn 0.189493 -0.656034 -0.730556
v 4.50938 2.5384 -27.1884
vn 0.173628 -0.726846 -0.664491
v 4.50301 2.51522 -27.1621
vn 0.156092 -0.790658 -0.592027
v 4.49609 2.4948 -27.1337
vn 0.137052 -0.846855 -0.513861
v 4.48869 2.47735 -27.1035
vn 0.116692 -0.894897 -0.430747
v 4.48089 2.46303 -27.0718
vn 0.0952083 -0.93432 -0.343484
v 4.47275 2.45197 -27.0389
vn 0.0728078 -0.964746 -0.252913
v 4.46436 2.4443 -27.0051
vn 0.0497061 -0.98588 -0.159907
v 4.45579 2.44007 -26.9708
vn 0.0261257 -0.99752 -0.0653602
v 4.44714 2.43933 -26.9362
vn 0.00229368 -0.999553 0.0298157
v 4.43847 2.44209 -26.9017
vn -0.0215604 -0.99196 0.124704
v 4.42988 2.44832 -26.8677
vn -0.0452069 -0.974813 0.218392
v 4.42145 2.45796 -26.8344
vn -0.068418 -0.948279 0.309977
v 4.41326 2.47091 -26.8022
vn -0.0909702 -0.912613 0.398576
v 4.40538 2.48706 -26.7715
vn -0.112646 -0.868157 0.483337
v 4.3979 2.50625 -26.7424
vn -0.133238 -0.81534 0.563443
v 4.39089 2.52829 -26.7152
vn -0.152546 -0.754672 0.638122
v 4.38441 2.55297 -26.6903
vn -0.170385 -0.686735 0.706657
v 4.37852 2.58005 -26.6679
vn -0.186583 -0.612185 0.768385
v 4.37329 2.60927 -26.6482
vn -0.200984 -0.531739 0.822714
v 4.36876 2.64036 -26.6313
vn -0.21345 -0.446172 0.86912
v 5.16806 2.69719 -26.4607
vn -0.112912 -0.35296 0.9288
v 5.16487 2.73109 -26.4501
vn -0.121701 -0.259681 0.957995
v 5.1621 2.7659 -26.4428
vn -0.129317 -0.163902 0.977964
v 5.15978 2.80129 -26.439
vn -0.135688 -0.0665432 0.988514
v 5.15794 2.8369 -26.4386
vn -0.140752 0.031456 0.989545
v 5.1566 2.87241 -26.4417
vn -0.144461 0.129152 0.981046
v 5.15575 2.90746 -26.4482
vn -0.146778 0.225605 0.963099
v 5.15543 2.94173 -26.4581
vn -0.147682 0.319884 0.935876
v 5.15561 2.97488 -26.4713
vn -0.147164 0.411083 0.899641
v 5.15632 3.00658 -26.4876
vn -0.145228 0.498324 0.854741
v 5.15753 3.03654 -26.5069
vn -0.141894 0.580765 0.80161
v 5.15924 3.06447 -26.529
vn -0.137193 0.657612 0.740759
v 5.16143 3.0901 -26.5537
vn -0.131171 0.728127 0.672774
v 5.16407 3.11318 -26.5808
vn -0.123885 0.79163 0.59831
v 5.16715 3.13349 -26.61
vn -0.115407 0.847508 0.518084
v 5.17064 3.15083 -26.6409
vn -0.105817 0.895225 0.432868
v 5.1745 3.16504 -26.6734
vn -0.0952083 0.93432 0.343484
v 5.17868 3.17598 -26.7071
vn -0.0836825 0.964417 0.250792
v 5.18317 3.18354 -26.7417
vn -0.0713508 0.985227 0.155684
v 5.1879 3.18766 -26.7768
vn -0.058332 0.996548 0.0590771
v 5.19283 3.18828 -26.8121
vn -0.0447513 0.998271 -0.0380987
v 5.19793 3.18541 -26.8473
vn -0.0307397 0.990381 -0.134908
v 5.20313 3.17908 -26.882
vn -0.0164321 0.972953 -0.230417
v 5.20838 3.16934 -26.9159
vn -0.00196619 0.946155 -0.323708
v 5.21365 3.15629 -26.9487
vn 0.0125186 0.910245 -0.413881
v 5.21887 3.14005 -26.98
vn 0.0268829 0.865569 -0.500068
v 5.224 3.12079 -27.0096
vn 0.0409883 0.812556 -0.58144
v 5.22898 3.09867 -27.0371
vn 0.0546989 0.751719 -0.657211
v 5.23377 3.07393 -27.0623
vn 0.0678828 0.683642 -0.726654
v 5.23832 3.0468 -27.085
vn 0.0804129 0.608981 -0.789098
v 5.2426 3.01753 -27.105
vn 0.0921686 0.528455 -0.843943
v 5.24655 2.98642 -27.122
vn 0.103037 0.44284 -0.89066
v 5.25013 2.95375 -27.1358
vn 0.112912 0.35296 -0.9288
v 5.25333 2.91985 -27.1464
vn 0.121701 0.259681 -0.957995
v 5.2561 2.88504 -27.1537
vn 0.129317 0.163902 -0.977964
v 5.25841 2.84966 -27.1575
vn 0.135688 0.0665432 -0.988514
v 5.26025 2.81404 -27.1579
vn 0.140752 -0.031456 -0.989545
v 5.2616 2.77853 -27.1548
vn 0.144461 -0.129152 -0.981046
v 5.26244 2.74348 -27.1483
vn 0.146778 -0.225605 -0.963099
v 5.26277 2.70921 -27.1384
vn 0.147682 -0.319884 -0.935876
v 5.26258 2.67607 -27.1252
vn 0.147164 -0.411083 -0.899641
v 5.26188 2.64436 -27.1089
vn 0.145228 -0.498324 -0.854741
v 5.26067 2.6144 -27.0896
vn 0.141894 -0.580765 -0.80161
v 5.25896 2.58647 -27.0675
vn 0.137193 -0.657612 -0.740759
v 5.25677 2.56084 -27.0428
vn 0.131171 -0.728127 -0.672774
v 5.25412 2.53776 -27.0157
vn 0.123885 -0.79163 -0.59831
v 5.25104 2.51745 -26.9865
vn 0.115407 -0.847508 -0.518084
v 5.24756 2.50011 -26.9556
vn 0.105817 -0.895225 -0.432868
v 5.2437 2.4859 -26.9231
vn 0.0952083 -0.93432 -0.343484
v 5.23951 2.47497 -26.8894
vn 0.0836825 -0.964417 -0.250792
v 5.23503 2.4674 -26.8548
vn 0.0713508 -0.985227 -0.155684
v 5.2303 2.46329 -26.8197
vn 0.058332 -0.996548 -0.0590771
v 5.22536 2.46266 -26.7844
vn 0.0447513 -0.998271 0.0380987
v 5.22027 2.46553 -26.7492
vn 0.0307397 -0.990381 0.134908
v 5.21507 2.47186 -26.7145
vn 0.0164321 -0.972953 0.230417
v 5.20981 2.4816 -26.6806
vn 0.00196619 -0.946155 0.323708
v 5.20455 2.49465 -26.6478
vn -0.0125186 -0.910245 0.413881
v 5.19933 2.51089 -26.6165
vn -0.0268829 -0.865569 0.500068
v 5.1942 2.53016 -26.5869
vn -0.0409883 -0.812556 0.58144
v 5.18922 2.55227 -26.5594
vn -0.0546989 -0.751719 0.657211
v 5.18443 2.57701 -26.5342
vn -0.0678828 -0.683642 0.726654
v 5.17987 2.60414 -26.5115
vn -0.0804129 -0.608981 0.789098
v 5.1756 2.63341 -26.4915
vn -0.0921686 -0.528455 0.843943
v 5.17165 2.66453 -26.4746
vn -0.103037 -0.44284 0.89066
v 5.98709 2.75429 -26.389
vn -0.00227516 -0.345255 0.938506
v 5.9837 2.78819 -26.3784
vn -0.0115963 -0.252013 0.967654
v 5.98035 2.82297 -26.3712
vn -0.0208057 -0.156344 0.987484
v 5.97707 2.85831 -26.3674
vn -0.0298147 -0.0591692 0.997803
v 5.9739 2.89385 -26.3672
vn -0.0385366 0.0385752 0.998512
v 5.97087 2.92925 -26.3704
vn -0.0468874 0.135948 0.989606
v 5.96799 2.96418 -26.3771
vn -0.0547867 0.232012 0.971169
v 5.96531 2.9983 -26.3872
vn -0.0621583 0.325841 0.943379
v 5.96285 3.03128 -26.4006
vn -0.0689312 0.416532 0.906504
v 5.96063 3.06279 -26.4172
vn -0.0750404 0.503212 0.860899
v 5.95867 3.09255 -26.4368
vn -0.0804269 0.585046 0.807003
v 5.95699 3.12025 -26.4592
vn -0.0850388 0.661245 0.745335
v 5.95561 3.14565 -26.4842
vn -0.0888317 0.731076 0.676489
v 5.95455 3.16848 -26.5116
vn -0.0917691 0.793867 0.601128
v 5.9538 3.18853 -26.5412
vn -0.0938228 0.849012 0.519977
v 5.95338 3.20561 -26.5725
vn -0.0949729 0.89598 0.43382
v 5.9533 3.21955 -26.6053
vn -0.0952083 0.93432 0.343484
v 5.95354 3.23022 -26.6394
vn -0.0945269 0.963662 0.24984
v 5.95412 3.23751 -26.6743
vn -0.0929351 0.983723 0.15379
v 5.95503 3.24136 -26.7098
vn -0.0904483 0.994311 0.0562595
v 5.95625 3.24173 -26.7454
vn -0.0870904 0.995323 -0.0418131
v 5.95777 3.23861 -26.7809
vn -0.0828938 0.986749 -0.139483
v 5.95959 3.23204 -26.816
vn -0.0778988 0.968672 -0.23581
v 5.96168 3.22207 -26.8502
vn -0.0721537 0.941266 -0.329865
v 5.96402 3.20881 -26.8832
vn -0.0657137 0.904796 -0.420744
v 5.96659 3.19238 -26.9148
vn -0.0586408 0.859612 -0.507571
v 5.96937 3.17294 -26.9446
vn -0.0510032 0.806149 -0.58951
v 5.97232 3.15068 -26.9723
vn -0.0428744 0.744923 -0.665772
v 5.97543 3.12581 -26.9977
vn -0.0343327 0.676523 -0.735621
v 5.97866 3.09857 -27.0205
vn -0.0254603 0.601607 -0.798386
v 5.98197 3.06922 -27.0405
vn -0.0163428 0.520897 -0.853463
v 5.98534 3.03805 -27.0576
vn -0.00706784 0.435172 -0.90032
v 5.98874 3.00536 -27.0715
vn 0.00227516 0.345255 -0.938506
v 5.99213 2.97146 -27.0821
vn 0.0115963 0.252013 -0.967654
v 5.99548 2.93667 -27.0893
vn 0.0208057 0.156344 -0.987484
v 5.99875 2.90134 -27.093
vn 0.0298147 0.0591692 -0.997803
v 6.00193 2.8658 -27.0933
vn 0.0385366 -0.0385752 -0.998512
v 6.00496 2.83039 -27.09
vn 0.0468874 -0.135948 -0.989606
v 6.00783 2.79546 -27.0833
vn 0.0547867 -0.232012 -0.971169
v 6.01052 2.76134 -27.0732
vn 0.0621583 -0.325841 -0.943379
v 6.01298 2.72837 -27.0598
vn 0.0689312 -0.416532 -0.906504
v 6.0152 2.69685 -27.0432
vn 0.0750404 -0.503212 -0.860899
v 6.01716 2.6671 -27.0236
vn 0.0804269 -0.585046 -0.807003
v 6.01883 2.63939 -27.0012
vn 0.0850388 -0.661245 -0.745335
v 6.02021 2.614 -26.9762
vn 0.0888317 -0.731076 -0.676489
v 6.02128 2.59117 -26.9488
vn 0.0917691 -0.793867 -0.601128
v 6.02203 2.57112 -26.9193
vn 0.0938228 -0.849012 -0.519977
v 6.02245 2.55404 -26.888
vn 0.0949729 -0.89598 -0.43382
v 6.02253 2.5401 -26.8551
vn 0.0952083 -0.93432 -0.343484
v 6.02228 2.52943 -26.8211
vn 0.0945269 -0.963662 -0.24984
v 6.02171 2.52213 -26.7861
vn 0.0929351 -0.983723 -0.15379
v 6.0208 2.51828 -26.7507
vn 0.0904483 -0.994311 -0.0562595
v 6.01958 2.51792 -26.715
vn 0.0870904 -0.995323 0.0418131
v 6.01805 2.52103 -26.6795
vn 0.0828938 -0.986749 0.139483
v 6.01624 2.52761 -26.6445
vn 0.0778988 -0.968672 0.23581
v 6.01415 2.53757 -26.6103
vn 0.0721537 -0.941266 0.329865
v 6.01181 2.55083 -26.5772
vn 0.0657137 -0.904796 0.420744
v 6.00924 2.56726 -26.5457
vn 0.0586408 -0.859612 0.507571
v 6.00646 2.5867 -26.5159
vn 0.0510032 -0.806149 0.58951
v 6.0035 2.60896 -26.4881
vn 0.0428744 -0.744923 0.665772
v 6.0004 2.63383 -26.4627
vn 0.0343327 -0.676523 0.735621
v 5.99717 2.66107 -26.4399
vn 0.0254603 -0.601607 0.798386
v 5.99386 2.69042 -26.4199
vn 0.0163428 -0.520897 0.853463
v 5.99048 2.72159 -26.4029
vn 0.00706784 -0.435172 0.90032
v 6.82061 2.84406 -26.4021
vn 0.104077 -0.333817 0.936875
v 6.81703 2.87795 -26.3915
vn 0.094244 -0.24063 0.966031
v 6.81313 2.9127 -26.3843
vn 0.0835032 -0.145126 0.985883
v 6.80893 2.94795 -26.3805
vn 0.0719581 -0.0482244 0.996241
v 6.80447 2.98337 -26.3802
vn 0.0597201 0.0491419 0.997005
v 6.79981 3.01861 -26.3835
vn 0.046907 0.146035 0.988167
v 6.79499 3.05335 -26.3901
vn 0.0336421 0.241522 0.969812
v 6.79005 3.08724 -26.4002
vn 0.0200532 0.334682 0.942118
v 6.78503 3.11996 -26.4136
vn 0.00627123 0.42462 0.90535
v 6.78 3.15118 -26.4301
vn -0.00757117 0.510468 0.859864
v 6.77499 3.18063 -26.4497
vn -0.0213407 0.5914 0.806096
v 6.77005 3.20799 -26.4721
vn -0.0349046 0.666636 0.744565
v 6.76524 3.23303 -26.4971
vn -0.0481324 0.735453 0.675864
v 6.7606 3.25549 -26.5244
vn -0.0608967 0.797187 0.600654
v 6.75617 3.27515 -26.5539
vn -0.0730745 0.851243 0.519659
v 6.75199 3.29183 -26.5852
vn -0.0845485 0.897101 0.43366
v 6.74812 3.30537 -26.618
vn -0.0952083 0.93432 0.343484
v 6.74457 3.31564 -26.652
vn -0.104951 0.962541 0.25
v 6.7414 3.32253 -26.6869
vn -0.113683 0.981492 0.154109
v 6.73862 3.32599 -26.7223
vn -0.121321 0.990991 0.0567332
v 6.73626 3.32597 -26.7579
vn -0.12779 0.990946 -0.0411887
v 6.73436 3.32248 -26.7934
vn -0.133028 0.981357 -0.138714
v 6.73292 3.31556 -26.8284
vn -0.136985 0.962318 -0.234903
v 6.73196 3.30526 -26.8625
vn -0.139623 0.934011 -0.32883
v 6.73149 3.29169 -26.8956
vn -0.140916 0.896709 -0.419591
v 6.73151 3.27498 -26.9271
vn -0.140852 0.850771 -0.50631
v 6.73203 3.25529 -26.9569
vn -0.139432 0.796639 -0.588153
v 6.73303 3.2328 -26.9846
vn -0.136669 0.734836 -0.664332
v 6.73452 3.20775 -27.01
vn -0.132589 0.665956 -0.734114
v 6.73647 3.18036 -27.0328
vn -0.127233 0.590662 -0.796825
v 6.73886 3.1509 -27.0528
vn -0.120652 0.50968 -0.851862
v 6.74168 3.11965 -27.0699
vn -0.112908 0.423789 -0.898696
v 6.74489 3.08692 -27.0837
vn -0.104077 0.333817 -0.936875
v 6.74847 3.05302 -27.0943
vn -0.094244 0.24063 -0.966031
v 6.75237 3.01828 -27.1016
vn -0.0835032 0.145126 -0.985883
v 6.75657 2.98303 -27.1053
vn -0.0719581 0.0482244 -0.996241
v 6.76103 2.94761 -27.1056
vn -0.0597201 -0.0491419 -0.997005
v 6.76569 2.91237 -27.1024
vn -0.046907 -0.146035 -0.988167
v 6.77051 2.87763 -27.0957
vn -0.0336421 -0.241522 -0.969812
v 6.77546 2.84374 -27.0856
vn -0.0200532 -0.334682 -0.942118
v 6.78047 2.81102 -27.0723
vn -0.00627123 -0.42462 -0.90535
v 6.7855 2.77979 -27.0557
vn 0.00757117 -0.510468 -0.859864
v 6.79051 2.75035 -27.0362
vn 0.0213407 -0.5914 -0.806096
v 6.79545 2.72298 -27.0138
vn 0.0349046 -0.666636 -0.744565
v 6.80026 2.69795 -26.9888
vn 0.0481324 -0.735453 -0.675864
v 6.8049 2.67549 -26.9614
vn 0.0608967 -0.797187 -0.600654
v 6.80933 2.65583 -26.932
vn 0.0730745 -0.851243 -0.519659
v 6.81351 2.63915 -26.9007
vn 0.0845485 -0.897101 -0.43366
v 6.81738 2.62561 -26.8679
vn 0.0952083 -0.93432 -0.343484
v 6.82093 2.61534 -26.8339
vn 0.104951 -0.962541 -0.25
v 6.82411 2.60845 -26.799
vn 0.113683 -0.981492 -0.154109
v 6.82688 2.60499 -26.7636
vn 0.121321 -0.990991 -0.0567332
v 6.82924 2.60501 -26.7279
vn 0.12779 -0.990946 0.0411887
v 6.83114 2.6085 -26.6925
vn 0.133028 -0.981357 0.138714
v 6.83258 2.61542 -26.6575
vn 0.136985 -0.962318 0.234903
v 6.83354 2.62572 -26.6233
vn 0.139623 -0.934011 0.32883
v 6.83401 2.63929 -26.5903
vn 0.140916 -0.896709 0.419591
v 6.83399 2.656 -26.5587
vn 0.140852 -0.850771 0.50631
v 6.83347 2.67569 -26.529
vn 0.139432 -0.796639 0.588153
v 6.83247 2.69818 -26.5013
vn 0.136669 -0.734836 0.664332
v 6.83098 2.72323 -26.4759
vn 0.132589 -0.665956 0.734114
v 6.82903 2.75062 -26.4531
vn 0.127233 -0.590662 0.796825
v 6.82664 2.78008 -26.433
vn 0.120652 -0.50968 0.851862
v 6.82382 2.81133 -26.416
vn 0.112908 -0.423789 0.898696
v 7.6675 2.96617 -26.4995
vn 0.203033 -0.319572 0.925555
v 7.66375 3.00006 -26.4889
vn 0.192724 -0.226454 0.954765
v 7.65932 3.03474 -26.4816
vn 0.180558 -0.131155 0.974781
v 7.65426 3.06989 -26.4778
vn 0.166653 -0.0345925 0.985409
v 7.64861 3.10515 -26.4773
vn 0.151144 0.0623028 0.986546
v 7.64244 3.1402 -26.4804
vn 0.134178 0.158598 0.978183
v 7.6358 3.17469 -26.4869
vn 0.115921 0.253366 0.9604
v 7.62874 3.20829 -26.4967
vn 0.0965473 0.345694 0.933367
v 7.62136 3.24068 -26.5098
vn 0.0762437 0.434693 0.897346
v 7.6137 3.27154 -26.5261
vn 0.0552059 0.519505 0.852682
v 7.60585 3.30059 -26.5453
vn 0.0336364 0.599314 0.799807
v 7.59788 3.32754 -26.5674
vn 0.011743 0.673352 0.739229
v 7.58987 3.35212 -26.592
vn -0.0102636 0.740904 0.671532
v 7.5819 3.37411 -26.619
vn -0.0321713 0.801322 0.597368
v 7.57404 3.39329 -26.6481
vn -0.0537691 0.854022 0.517451
v 7.56637 3.40948 -26.679
vn -0.0748492 0.898498 0.43255
v 7.55896 3.42251 -26.7114
vn -0.0952083 0.93432 0.343484
v 7.55188 3.43228 -26.745
vn -0.114651 0.961145 0.25111
v 7.54521 3.43867 -26.7795
vn -0.132989 0.978713 0.156317
v 7.539 3.44163 -26.8145
vn -0.150046 0.986856 0.0600192
v 7.53332 3.44114 -26.8498
vn -0.165659 0.985494 -0.0368567
v 7.52822 3.43719 -26.8849
vn -0.179675 0.974642 -0.133378
v 7.52374 3.42982 -26.9196
vn -0.191962 0.954404 -0.228614
v 7.51995 3.41911 -26.9534
vn -0.2024 0.924974 -0.321649
v 7.51686 3.40516 -26.9862
vn -0.210889 0.886636 -0.411586
v 7.51451 3.3881 -27.0175
vn -0.217346 0.839759 -0.49756
v 7.51292 3.36809 -27.047
vn -0.221711 0.784795 -0.578741
v 7.51211 3.34534 -27.0745
vn -0.22394 0.722273 -0.654349
v 7.51208 3.32005 -27.0998
vn -0.224013 0.652795 -0.723655
v 7.51284 3.29248 -27.1224
vn -0.221928 0.57703 -0.785992
v 7.51437 3.26288 -27.1424
vn -0.217706 0.495708 -0.84076
v 7.51667 3.23155 -27.1594
vn -0.211388 0.409613 -0.88743
v 7.51971 3.19878 -27.1732
vn -0.203033 0.319572 -0.925555
v 7.52347 3.16489 -27.1839
vn -0.192724 0.226454 -0.954765
v 7.52789 3.13021 -27.1912
vn -0.180558 0.131155 -0.974781
v 7.53296 3.09506 -27.195
vn -0.166653 0.0345925 -0.985409
v 7.5386 3.0598 -27.1954
vn -0.151144 -0.0623028 -0.986546
v 7.54477 3.02475 -27.1924
vn -0.134178 -0.158598 -0.978183
v 7.55142 2.99026 -27.1859
vn -0.115921 -0.253366 -0.9604
v 7.55847 2.95666 -27.1761
vn -0.0965473 -0.345694 -0.933367
v 7.56586 2.92427 -27.163
vn -0.0762437 -0.434693 -0.897346
v 7.57352 2.89341 -27.1467
vn -0.0552059 -0.519505 -0.852682
v 7.58137 2.86436 -27.1275
vn -0.0336364 -0.599314 -0.799807
v 7.58933 2.83741 -27.1054
vn -0.011743 -0.673352 -0.739229
v 7.59734 2.81283 -27.0808
vn 0.0102636 -0.740904 -0.671532
v 7.60532 2.79084 -27.0538
vn 0.0321713 -0.801322 -0.597368
v 7.61318 2.77166 -27.0247
vn 0.0537691 -0.854022 -0.517451
v 7.62085 2.75547 -26.9938
vn 0.0748492 -0.898498 -0.43255
v 7.62826 2.74244 -26.9614
vn 0.0952083 -0.93432 -0.343484
v 7.63533 2.73267 -26.9278
vn 0.114651 -0.961145 -0.25111
v 7.64201 2.72628 -26.8933
vn 0.132989 -0.978713 -0.156317
v 7.64822 2.72332 -26.8582
vn 0.150046 -0.986856 -0.0600192
v 7.6539 2.72381 -26.823
vn 0.165659 -0.985494 0.0368567
v 7.659 2.72776 -26.7878
vn 0.179675 -0.974642 0.133378
v 7.66347 2.73513 -26.7532
vn 0.191962 -0.954404 0.228614
v 7.66727 2.74584 -26.7193
vn 0.2024 -0.924974 0.321649
v 7.67036 2.75979 -26.6866
vn 0.210889 -0.886636 0.411586
v 7.67271 2.77685 -26.6553
vn 0.217346 -0.839759 0.49756
v 7.6743 2.79686 -26.6258
vn 0.221711 -0.784795 0.578741
v 7.67511 2.81961 -26.5982
vn 0.22394 -0.722273 0.654349
v 7.67513 2.8449 -26.573
vn 0.224013 -0.652795 0.723655
v 7.67438 2.87247 -26.5503
vn 0.221928 -0.57703 0.785992
v 7.67284 2.90207 -26.5304
vn 0.217706 -0.495708 0.84076
v 7.67054 2.9334 -26.5134
vn 0.211388 -0.409613 0.88743
v 8.52704 3.12026 -26.6804
vn 0.29266 -0.303531 0.906763
v 8.52313 3.15414 -26.6698
vn 0.281919 -0.21049 0.936064
v 8.51823 3.18875 -26.6624
vn 0.268463 -0.115421 0.95635
v 8.51239 3.22377 -26.6583
vn 0.252421 -0.0192418 0.967426
v 8.50567 3.25886 -26.6577
vn 0.233948 0.0771232 0.969185
v 8.49812 3.29368 -26.6605
vn 0.213222 0.172745 0.961611
v 8.48983 3.32789 -26.6666
vn 0.190443 0.266704 0.944775
v 8.48086 3.36116 -26.676
vn 0.16583 0.358094 0.918841
v 8.47132 3.39318 -26.6887
vn 0.13962 0.446036 0.884058
v 8.46129 3.42364 -26.7045
vn 0.112065 0.529682 0.840761
v 8.45086 3.45224 -26.7232
vn 0.0834305 0.608226 0.789367
v 8.44014 3.4787 -26.7447
vn 0.0539928 0.680914 0.730371
v 8.42924 3.50278 -26.7687
vn 0.0240352 0.747043 0.664341
v 8.41824 3.52424 -26.7951
vn -0.00615392 0.805978 0.591913
v 8.40727 3.54287 -26.8235
vn -0.0362838 0.857152 0.513785
v 8.39643 3.5585 -26.8538
vn -0.0660642 0.90007 0.430708
v 8.38582 3.57097 -26.8855
vn -0.0952083 0.93432 0.343484
v 8.37554 3.58017 -26.9185
vn -0.123436 0.959572 0.252952
v 8.3657 3.586 -26.9523
vn -0.150474 0.975583 0.159983
v 8.35638 3.58841 -26.9868
vn -0.176063 0.982199 0.0654741
v 8.34768 3.58737 -27.0214
vn -0.199957 0.979355 -0.0296655
v 8.33968 3.5829 -27.0559
vn -0.221925 0.96708 -0.124519
v 8.33246 3.57504 -27.09
vn -0.241756 0.945491 -0.218174
v 8.32609 3.56386 -27.1234
vn -0.259259 0.914797 -0.309728
v 8.32062 3.54948 -27.1556
vn -0.274265 0.875293 -0.398299
v 8.31612 3.53203 -27.1865
vn -0.286629 0.827359 -0.483033
v 8.31262 3.51167 -27.2156
vn -0.296233 0.771457 -0.563116
v 8.31017 3.48861 -27.2428
vn -0.302984 0.708126 -0.637776
v 8.30877 3.46307 -27.2678
vn -0.306817 0.637975 -0.706294
v 8.30845 3.43529 -27.2902
vn -0.307696 0.561679 -0.76801
v 8.30921 3.40554 -27.31
vn -0.305611 0.479975 -0.822329
v 8.31104 3.37411 -27.3269
vn -0.300583 0.393648 -0.868729
v 8.31392 3.3413 -27.3408
vn -0.29266 0.303531 -0.906763
v 8.31784 3.30742 -27.3514
vn -0.281919 0.21049 -0.936064
v 8.32273 3.2728 -27.3588
vn -0.268463 0.115421 -0.95635
v 8.32858 3.23778 -27.3628
vn -0.252421 0.0192418 -0.967426
v 8.3353 3.2027 -27.3635
vn -0.233948 -0.0771232 -0.969185
v 8.34285 3.16788 -27.3607
vn -0.213222 -0.172745 -0.961611
v 8.35114 3.13367 -27.3546
vn -0.190443 -0.266704 -0.944775
v 8.3601 3.10039 -27.3452
vn -0.16583 -0.358094 -0.918841
v 8.36965 3.06837 -27.3325
vn -0.13962 -0.446036 -0.884058
v 8.37968 3.03792 -27.3167
vn -0.112065 -0.529682 -0.840761
v 8.39011 3.00932 -27.298
vn -0.0834305 -0.608226 -0.789367
v 8.40083 2.98285 -27.2765
vn -0.0539928 -0.680914 -0.730371
v 8.41173 2.95877 -27.2525
vn -0.0240352 -0.747043 -0.664341
v 8.42273 2.93731 -27.2261
vn 0.00615392 -0.805978 -0.591913
v 8.4337 2.91868 -27.1977
vn 0.0362838 -0.857152 -0.513785
v 8.44454 2.90305 -27.1674
vn 0.0660642 -0.90007 -0.430708
v 8.45515 2.89058 -27.1357
vn 0.0952083 -0.93432 -0.343484
v 8.46543 2.88139 -27.1027
vn 0.123436 -0.959572 -0.252952
v 8.47527 2.87556 -27.0688
vn 0.150474 -0.975583 -0.159983
v 8.48459 2.87315 -27.0344
vn 0.176063 -0.982199 -0.0654741
v 8.49329 2.87418 -26.9998
vn 0.199957 -0.979355 0.0296655
v 8.50129 2.87865 -26.9653
vn 0.221925 -0.96708 0.124519
v 8.50851 2.88651 -26.9312
vn 0.241756 -0.945491 0.218174
v 8.51488 2.89769 -26.8978
vn 0.259259 -0.914797 0.309728
v 8.52035 2.91207 -26.8656
vn 0.274265 -0.875293 0.398299
v 8.52485 2.92953 -26.8347
vn 0.286629 -0.827359 0.483033
v 8.52835 2.94988 -26.8056
vn 0.296233 -0.771457 0.563116
v 8.5308 2.97294 -26.7784
vn 0.302984 -0.708126 0.637776
v 8.5322 2.99848 -26.7534
vn 0.306817 -0.637975 0.706294
v 8.53252 3.02626 -26.731
vn 0.307696 -0.561679 0.76801
v 8.53176 3.05601 -26.7112
vn 0.305611 -0.479975 0.822329
v 8.52993 3.08745 -26.6943
vn 0.300583 -0.393648 0.868729
v 9.39896 3.30599 -26.944
vn 0.372171 -0.286619 0.882801
v 9.3949 3.33985 -26.9332
vn 0.361047 -0.19366 0.912218
v 9.38958 3.37439 -26.9257
vn 0.346446 -0.0988352 0.932849
v 9.38305 3.40928 -26.9215
vn 0.328508 -0.00305872 0.944496
v 9.37536 3.44418 -26.9206
vn 0.307407 0.0927472 0.947048
v 9.3666 3.47876 -26.9229
vn 0.283345 0.18766 0.940478
v 9.35684 3.51267 -26.9286
vn 0.256554 0.280765 0.924852
v 9.34618 3.5456 -26.9376
vn 0.227293 0.371167 0.900318
v 9.33472 3.57723 -26.9497
vn 0.195842 0.457994 0.867115
v 9.32258 3.60726 -26.9648
vn 0.162506 0.54041 0.82556
v 9.30987 3.63538 -26.9828
vn 0.127604 0.617622 0.776054
v 9.2967 3.66134 -27.0036
vn 0.0914739 0.688885 0.719075
v 9.28322 3.68489 -27.0269
vn 0.0544626 0.753515 0.655171
v 9.26955 3.70579 -27.0525
vn 0.0169268 0.810887 0.584957
v 9.25582 3.72384 -27.0801
vn -0.020772 0.860451 0.50911
v 9.24216 3.73888 -27.1095
vn -0.0582707 0.901728 0.42836
v 9.2287 3.75075 -27.1404
vn -0.0952083 0.93432 0.343484
v 9.21558 3.75934 -27.1725
vn -0.131229 0.957915 0.2553
v 9.20292 3.76458 -27.2056
vn -0.165986 0.972284 0.164658
v 9.19084 3.7664 -27.2392
vn -0.199144 0.97729 0.0724299
v 9.17946 3.7648 -27.273
vn -0.230385 0.972884 -0.0204957
v 9.16889 3.75978 -27.3068
vn -0.259406 0.959108 -0.113224
v 9.15922 3.7514 -27.3402
vn -0.28593 0.936096 -0.204862
v 9.15057 3.73973 -27.3728
vn -0.3097 0.904069 -0.294527
v 9.14299 3.72489 -27.4045
vn -0.330487 0.863335 -0.381355
v 9.13658 3.70702 -27.4348
vn -0.348092 0.814286 -0.464511
v 9.13139 3.6863 -27.4634
vn -0.362344 0.757396 -0.543193
v 9.12747 3.66292 -27.4902
vn -0.373106 0.693211 -0.616644
v 9.12486 3.63711 -27.5148
vn -0.380276 0.622351 -0.684156
v 9.12358 3.60911 -27.537
vn -0.383783 0.545496 -0.74508
v 9.12365 3.5792 -27.5565
vn -0.383594 0.463389 -0.798828
v 9.12506 3.54766 -27.5733
vn -0.379711 0.376819 -0.844883
v 9.12781 3.51481 -27.5871
vn -0.372171 0.286619 -0.882801
v 9.13186 3.48094 -27.5978
vn -0.361047 0.19366 -0.912218
v 9.13718 3.4464 -27.6054
vn -0.346446 0.0988352 -0.932849
v 9.14371 3.41151 -27.6096
vn -0.328508 0.00305872 -0.944496
v 9.1514 3.37661 -27.6105
vn -0.307407 -0.0927472 -0.947048
v 9.16017 3.34204 -27.6081
vn -0.283345 -0.18766 -0.940478
v 9.16993 3.30812 -27.6024
vn -0.256554 -0.280765 -0.924852
v 9.18058 3.27519 -27.5935
vn -0.227293 -0.371167 -0.900318
v 9.19204 3.24356 -27.5814
vn -0.195842 -0.457994 -0.867115
v 9.20419 3.21354 -27.5663
vn -0.162506 -0.54041 -0.82556
v 9.2169 3.18541 -27.5482
vn -0.127604 -0.617622 -0.776054
v 9.23006 3.15945 -27.5275
vn -0.0914739 -0.688885 -0.719075
v 9.24354 3.13591 -27.5042
vn -0.0544626 -0.753515 -0.655171
v 9.25722 3.11501 -27.4786
vn -0.0169268 -0.810887 -0.584957
v 9.27095 3.09695 -27.451
vn 0.020772 -0.860451 -0.50911
v 9.28461 3.08192 -27.4216
vn 0.0582707 -0.901728 -0.42836
v 9.29806 3.07005 -27.3907
vn 0.0952083 -0.93432 -0.343484
v 9.31119 3.06145 -27.3585
vn 0.131229 -0.957915 -0.2553
v 9.32385 3.05622 -27.3255
vn 0.165986 -0.972284 -0.164658
v 9.33593 3.05439 -27.2919
vn 0.199144 -0.97729 -0.0724299
v 9.34731 3.056 -27.2581
vn 0.230385 -0.972884 0.0204957
v 9.35788 3.06102 -27.2243
vn 0.259406 -0.959108 0.113224
v 9.36754 3.0694 -27.1909
vn 0.28593 -0.936096 0.204862
v 9.3762 3.08107 -27.1583
vn 0.3097 -0.904069 0.294527
v 9.38377 3.0959 -27.1266
vn 0.330487 -0.863335 0.381355
v 9.39018 3.11377 -27.0963
vn 0.348092 -0.814286 0.464511
v 9.39538 3.1345 -27.0677
vn 0.362344 -0.757396 0.543193
v 9.3993 3.15788 -27.0409
vn 0.373106 -0.693211 0.616644
v 9.40191 3.18369 -27.0163
vn 0.380276 -0.622351 0.684156
v 9.40319 3.21169 -26.9941
vn 0.383783 -0.545496 0.74508
v 9.40312 3.2416 -26.9745
vn 0.383594 -0.463389 0.798828
v 9.4017 3.27313 -26.9578
vn 0.379711 -0.376819 0.844883
v 10.2833 3.52309 -27.2894
vn 0.44167 -0.269581 0.855718
v 10.2791 3.55694 -27.2786
vn 0.430212 -0.176703 0.885265
v 10.2734 3.5914 -27.2709
vn 0.41461 -0.0821239 0.906286
v 10.2663 3.62616 -27.2665
vn 0.395015 0.0132462 0.918579
v 10.2577 3.66087 -27.2652
vn 0.371616 0.108489 0.922026
v 10.2479 3.6952 -27.2672
vn 0.344638 0.202687 0.916593
v 10.2369 3.72882 -27.2724
vn 0.314341 0.294932 0.902333
v 10.2247 3.7614 -27.2808
vn 0.281016 0.384338 0.879383
v 10.2116 3.79264 -27.2922
vn 0.244986 0.470042 0.847964
v 10.1976 3.82222 -27.3066
vn 0.206596 0.551219 0.808378
v 10.1829 3.84987 -27.3239
vn 0.166216 0.627088 0.761008
v 10.1676 3.87532 -27.3438
vn 0.124236 0.696917 0.706308
v 10.1518 3.89833 -27.3662
vn 0.0810589 0.760035 0.644807
v 10.1358 3.91866 -27.3909
vn 0.0371014 0.815834 0.577095
v 10.1197 3.93613 -27.4176
vn -0.00721333 0.863775 0.503826
v 10.1035 3.95057 -27.4461
vn -0.0514586 0.903398 0.425705
v 10.0876 3.96184 -27.4761
vn -0.0952083 0.93432 0.343484
v 10.072 3.96983 -27.5072
vn -0.138041 0.956245 0.257955
v 10.0569 3.97447 -27.5393
vn -0.179545 0.96896 0.169942
v 10.0424 3.9757 -27.572
vn -0.219319 0.972344 0.0802917
v 10.0286 3.97352 -27.6049
vn -0.256981 0.966363 -0.0101315
v 10.0158 3.96795 -27.6379
vn -0.292168 0.951076 -0.100457
v 10.004 3.95904 -27.6704
vn -0.324542 0.92663 -0.189815
v 9.99336 3.94688 -27.7023
vn -0.35379 0.893259 -0.277345
v 9.98395 3.93158 -27.7332
vn -0.379631 0.851286 -0.362204
v 9.97586 3.9133 -27.7629
vn -0.401815 0.801115 -0.443575
v 9.96919 3.8922 -27.791
vn -0.42013 0.743229 -0.520674
v 9.96399 3.8685 -27.8173
vn -0.434399 0.678184 -0.592759
v 9.96031 3.84241 -27.8415
vn -0.444485 0.606609 -0.659135
v 9.95819 3.8142 -27.8633
vn -0.45029 0.529191 -0.719163
v 9.95766 3.78412 -27.8827
vn -0.451758 0.446678 -0.772265
v 9.95871 3.75248 -27.8993
vn -0.448876 0.359862 -0.81793
v 9.96134 3.71958 -27.9131
vn -0.44167 0.269581 -0.855718
v 9.96551 3.68573 -27.9239
vn -0.430212 0.176703 -0.885265
v 9.9712 3.65126 -27.9315
vn -0.41461 0.0821239 -0.906286
v 9.97834 3.61651 -27.936
vn -0.395015 -0.0132462 -0.918579
v 9.98687 3.5818 -27.9373
vn -0.371616 -0.108489 -0.922026
v 9.9967 3.54747 -27.9353
vn -0.344638 -0.202687 -0.916593
v 10.0077 3.51385 -27.9301
vn -0.314341 -0.294932 -0.902333
v 10.0199 3.48126 -27.9217
vn -0.281016 -0.384338 -0.879383
v 10.033 3.45003 -27.9103
vn -0.244986 -0.470042 -0.847964
v 10.047 3.42045 -27.8959
vn -0.206596 -0.551219 -0.808378
v 10.0617 3.3928 -27.8786
vn -0.166216 -0.627088 -0.761008
v 10.077 3.36735 -27.8587
vn -0.124236 -0.696917 -0.706308
v 10.0928 3.34434 -27.8362
vn -0.0810589 -0.760035 -0.644807
v 10.1088 3.32401 -27.8116
vn -0.0371014 -0.815834 -0.577095
v 10.1249 3.30654 -27.7849
vn 0.00721333 -0.863775 -0.503826
v 10.1411 3.2921 -27.7564
vn 0.0514586 -0.903398 -0.425705
v 10.157 3.28083 -27.7264
vn 0.0952083 -0.93432 -0.343484
v 10.1726 3.27284 -27.6953
vn 0.138041 -0.956245 -0.257955
v 10.1877 3.2682 -27.6632
vn 0.179545 -0.96896 -0.169942
v 10.2022 3.26697 -27.6305
vn 0.219319 -0.972344 -0.0802917
v 10.216 3.26915 -27.5975
vn 0.256981 -0.966363 0.0101315
v 10.2288 3.27472 -27.5646
vn 0.292168 -0.951076 0.100457
v 10.2406 3.28363 -27.5321
vn 0.324542 -0.92663 0.189815
v 10.2512 3.29579 -27.5002
vn 0.35379 -0.893259 0.277345
v 10.2607 3.31109 -27.4692
vn 0.379631 -0.851286 0.362204
v 10.2687 3.32937 -27.4396
vn 0.401815 -0.801115 0.443575
v 10.2754 3.35047 -27.4115
vn 0.42013 -0.743229 0.520674
v 10.2806 3.37417 -27.3852
vn 0.434399 -0.678184 0.592759
v 10.2843 3.40026 -27.361
vn 0.444485 -0.606609 0.659135
v 10.2864 3.42847 -27.3391
vn 0.45029 -0.529191 0.719163
v 10.2869 3.45854 -27.3198
vn 0.451758 -0.446678 0.772265
v 10.2859 3.49018 -27.3031
vn 0.448876 -0.359862 0.81793
f 1 66 2 
f 1 65 66 
f 2 67 3 
f 2 66 67 
f 3 68 4 
f 3 67 68 
f 4 69 5 
f 4 68 69 
f 5 70 6 
f 5 69 70 
f 6 71 7 
f 6 70 71 
f 7 72 8 
f 7 71 72 
f 8 73 9 
f 8 72 73 
f 9 74 10 
f 9 73 74 
f 10 75 11 
f 10 74 75 
f 11 76 12 
f 11 75 76 
f 12 77 13 
f 12 76 77 
f 13 78 14 
f 13 77 78 
f 14 79 15 
f 14 78 79 
f 15 80 16 
f 15 79 80 
f 16 81 17 
f 16 80 81 
f 17 82 18 
f 17 81 82 
f 18 83 19 
f 18 82 83 
f 19 84 20 
f 19 83 84 
f 20 85 21 
f 20 84 85 
f 21 86 22 
f 21 85 86 
f 22 87 23 
f 22 86 87 
f 23 88 24 
f 23 87 88 
f 24 89 25 
f 24 88 89 
f 25 90 26 
f 25 89 90 
f 26 91 27 
f 26 90 91 
f 27 92 28 
f 27 91 92 
f 28 93 29 
f 28 92 93 
f 29 94 30 
f 29 93 94 
f 30 95 31 
f 30 94 95 
f 31 96 32 
f 31 95 96 
f 32 97 33 
f 32 96 97 
f 33 98 34 
f 33 97 98 
f 34 99 35 
f 34 98 99 
f 35 100 36 
f 35 99 100 
f 36 101 37 
f 36 100 101 
f 37 102 38 
f 37 101 102 
f 38 103 39 
f 38 102 103 
f 39 104 40 
f 39 103 104 
f 40 105 41 
f 40 104 105 
f 41 106 42 
f 41 105 106 
f 42 107 43 
f 42 106 107 
f 43 108 44 
f 43 107 108 
f 44 109 45 
f 44 108 109 
f 45 110 46 
f 45 109 110 
f 46 111 47 
f 46 110 111 
f 47 112 48 
f 47 111 112 
f 48 113 49 
f 48 112 113 
f 49 114 50 
f 49 113 114 
f 50 115 51 
f 50 114 115 
f 51 116 52 
f 51 115 116 
f 52 117 53 
f 52 116 117 
f 53 118 54 
f 53 117 118 
f 54 119 55 
f 54 118 119 
f 55 120 56 
f 55 119 120 
f 56 121 57 
f 56 120 121 
f 57 122 58 
f 57 121 122 
f 58 123 59 
f 58 122 123 
f 59 124 60 
f 59 123 124 
f 60 125 61 
f 60 124 125 
f 61 126 62 
f 61 125 126 
f 62 127 63 
f 62 126 127 
f 63 128 64 
f 63 127 128 
f 64 65 1 
f 64 128 65 
f 65 130 66 
f 65 129 130 
f 66 131 67 
f 66 130 131 
f 67 132 68 
f 67 131 132 
f 68 133 69 
f 68 132 133 
f 69 134 70 
f 69 133 134 
f 70 135 71 
f 70 134 135 
f 71 136 72 
f 71 135 136 
f 72 137 73 
f 72 136 137 
f 73 138 74 
f 73 137 138 
f 74 139 75 
f 74 138 139 
f 75 140 76 
f 75 139 140 
f 76 141 77 
f 76 140 141 
f 77 142 78 
f 77 141 142 
f 78 143 79 
f 78 142 143 
f 79 144 80 
f 79 143 144 
f 80 145 81 
f 80 144 145 
f 81 146 82 
f 81 145 146 
f 82 147 83 
f 82 146 147 
f 83 148 84 
f 83 147 148 
f 84 149 85 
f 84 148 149 
f 85 150 86 
f 85 149 150 
f 86 151 87 
f 86 150 151 
f 87 152 88 
f 87 151 152 
f 88 153 89 
f 88 152 153 
f 89 154 90 
f 89 153 154 
f 90 155 91 
f 90 154 155 
f 91 156 92 
f 91 155 156 
f 92 157 93 
f 92 156 157 
f 93 158 94 
f 93 157 158 
f 94 159 95 
f 94 158 159 
f 95 160 96 
f 95 159 160 
f 96 161 97 
f 96 160 161 
f 97 162 98 
f 97 161 162 
f 98 163 99 
f 98 162 163 
f 99 164 100 
f 99 163 164 
f 100 165 101 
f 100 164 165 
f 101 166 102 
f 101 165 166 
f 102 167 103 
f 102 166 167 
f 103 168 104 
f 103 167 168 
f 104 169 105 
f 104 168 169 
f 105 170 106 
f 105 169 170 
f 106 171 107 
f 106 170 171 
f 107 172 108 
f 107 171 172 
f 108 173 109 
f 108 172 173 
f 109 174 110 
f 109 173 174 
f 110 175 111 
f 110 174 175 
f 111 176 112 
f 111 175 176 
f 112 177 113 
f 112 176 177 
f 113 178 114 
f 113 177 178 
f 114 179 115 
f 114 178 179 
f 115 180 116 
f 115 179 180 
f 116 181 117 
f 116 180 181 
f 117 182 118 
f 117 181 182 
f 118 183 119 
f 118 182 183 
f 119 184 120 
f 119 183 184 
f 120 185 121 
f 120 184 185 
f 121 186 122 
f 121 185 186 
f 122 187 123 
f 122 186 187 
f 123 188 124 
f 123 187 188 
f 124 189 125 
f 124 188 189 
f 125 190 126 
f 125 189 190 
f 126 191 127 
f 126 190 191 
f 127 192 128 
f 127 191 192 
f 128 129 65 
f 128 192 129 
f 129 194 130 
f 129 193 194 
f 130 195 131 
f 130 194 195 
f 131 196 132 
f 131 195 196 
f 132 197 133 
f 132 196 197 
f 133 198 134 
f 133 197 198 
f 134 199 135 
f 134 198 199 
f 135 200 136 
f 135 199 200 
f 136 201 137 
f 136 200 201 
f 137 202 138 
f 137 201 202 
f 138 203 139 
f 138 202 203 
f 139 204 140 
f 139 203 204 
f 140 205 141 
f 140 204 205 
f 141 206 142 
f 141 205 206 
f 142 207 143 
f 142 206 207 
f 143 208 144 
f 143 207 208 
f 144 209 145 
f 144 208 209 
f 145 210 146 
f 145 209 210 
f 146 211 147 
f 146 210 211 
f 147 212 148 
f 147 211 212 
f 148 213 149 
f 148 212 213 
f 149 214 150 
f 149 213 214 
f 150 215 151 
f 150 214 215 
f 151 216 152 
f 151 215 216 
f 152 217 153 
f 152 216 217 
f 153 218 154 
f 153 217 218 
f 154 219 155 
f 154 218 219 
f 155 220 156 
f 155 219 220 
f 156 221 157 
f 156 220 221 
f 157 222 158 
f 157 221 222 
f 158 223 159 
f 158 222 223 
f 159 224 160 
f 159 223 224 
f 160 225 161 
f 160 224 225 
f 161 226 162 
f 161 225 226 
f 162 227 163 
f 162 226 227 
f 163 228 164 
f 163 227 228 
f 164 229 165 
f 164 228 229 
f 165 230 166 
f 165 229 230 
f 166 231 167 
f 166 230 231 
f 167 232 168 
f 167 231 232 
f 168 233 169 
f 168 232 233 
f 169 234 170 
f 169 233 234 
f 170 235 171 
f 170 234 235 
f 171 236 172 
f 171 235 236 
f 172 237 173 
f 172 236 237 
f 173 238 174 
f 173 237 238 
f 174 239 175 
f 174 238 239 
f 175 240 176 
f 175 239 240 
f 176 241 177 
f 176 240 241 
f 177 242 178 
f 177 241 242 
f 178 243 179 
f 178 242 243 
f 179 244 180 
f 179 243 244 
f 180 245 181 
f 180 244 245 
f 181 246 182 
f 181 245 246 
f 182 247 183 
f 182 246 247 
f 183 248 184 
f 183 247 248 
f 184 249 185 
f 184 248 249 
f 185 250 186 
f 185 249 250 
f 186 251 187 
f 186 250 251 
f 187 252 188 
f 187 251 252 
f 188 253 189 
f 188 252 253 
f 189 254 190 
f 189 253 254 
f 190 255 191 
f 190 254 255 
f 191 256 192 
f 191 255 256 
f 192 193 129 
f 192 256 193 
f 193 258 194 
f 193 257 258 
f 194 259 195 
f 194 258 259 
f 195 260 196 
f 195 259 260 
f 196 261 197 
f 196 260 261 
f 197 262 198 
f 197 261 262 
f 198 263 199 
f 198 262 263 
f 199 264 200 
f 199 263 264 
f 200 265 201 
f 200 264 265 
f 201 266 202 
f 201 265 266 
f 202 267 203 
f 202 266 267 
f 203 268 204 
f 203 267 268 
f 204 269 205 
f 204 268 269 
f 205 270 206 
f 205 269 270 
f 206 271 207 
f 206 270 271 
f 207 272 208 
f 207 271 272 
f 208 273 209 
f 208 272 273 
f 209 274 210 
f 209 273 274 
f 210 275 211 
f 210 274 275 
f 211 276 212 
f 211 275 276 
f 212 277 213 
f 212 276 277 
f 213 278 214 
f 213 277 278 
f 214 279 215 
f 214 278 279 
f 215 280 216 
f 215 279 280 
f 216 281 217 
f 216 280 281 
f 217 282 218 
f 217 281 282 
f 218 283 219 
f 218 282 283 
f 219 284 220 
f 219 283 284 
f 220 285 221 
f 220 284 285 
f 221 286 222 
f 221 285 286 
f 222 287 223 
f 222 286 287 
f 223 288 224 
f 223 287 288 
f 224 289 225 
f 224 288 289 
f 225 290 226 
f 225 289 290 
f 226 291 227 
f 226 290 291 
f 227 292 228 
f 227 291 292 
f 228 293 229 
f 228 292 293 
f 229 294 230 
f 229 293 294 
f 230 295 231 
f 230 294 295 
f 231 296 232 
f 231 295 296 
f 232 297 233 
f 232 296 297 
f 233 298 234 
f 233 297 298 
f 234 299 235 
f 234 298 299 
f 235 300 236 
f 235 299 300 
f 236 301 237 
f 236 300 301 
f 237 302 238 
f 237 301 302 
f 238 303 239 
f 238 302 303 
f 239 304 240 
f 239 303 304 
f 240 305 241 
f 240 304 305 
f 241 306 242 
f 241 305 306 
f 242 307 243 
f 242 306 307 
f 243 308 244 
f 243 307 308 
f 244 309 245 
f 244 308 309 
f 245 310 246 
f 245 309 310 
f 246 311 247 
f 246 310 311 
f 247 312 248 
f 247 311 312 
f 248 313 249 
f 248 312 313 
f 249 314 250 
f 249 313 314 
f 250 315 251 
f 250 314 315 
f 251 316 252 
f 251 315 316 
f 252 317 253 
f 252 316 317 
f 253 318 254 
f 253 317 318 
f 254 319 255 
f 254 318 319 
f 255 320 256 
f 255 319 320 
f 256 257 193 
f 256 320 257 
f 257 322 258 
f 257 321 322 
f 258 323 259 
f 258 322 323 
f 259 324 260 
f 259 323 324 
f 260 325 261 
f 260 324 325 
f 261 326 262 
f 261 325 326 
f 262 327 263 
f 262 326 327 
f 263 328 264 
f 263 327 328 
f 264 329 265 
f 264 328 329 
f 265 330 266 
f 265 329 330 
f 266 331 267 
f 266 330 331 
f 267 332 268 
f 267 331 332 
f 268 333 269 
f 268 332 333 
f 269 334 270 
f 269 333 334 
f 270 335 271 
f 270 334 335 
f 271 336 272 
f 271 335 336 
f 272 337 273 
f 272 336 337 
f 273 338 274 
f 273 337 338 
f 274 339 275 
f 274 338 339 
f 275 340 276 
f 275 339 340 
f 276 341 277 
f 276 340 341 
f 277 342 278 
f 277 341 342 
f 278 343 279 
f 278 342 343 
f 279 344 280 
f 279 343 344 
f 280 345 281 
f 280 344 345 
f 281 346 282 
f 281 345 346 
f 282 347 283 
f 282 346 347 
f 283 348 284 
f 283 347 348 
f 284 349 285 
f 284 348 349 
f 285 350 286 
f 285 349 350 
f 286 351 287 
f 286 350 351 
f 287 352 288 
f 287 351 352 
f 288 353 289 
f 288 352 353 
f 289 354 290 
f 289 353 354 
f 290 355 291 
f 290 354 355 
f 291 356 292 
f 291 355 356 
f 292 357 293 
f 292 356 357 
f 293 358 294 
f 293 357 358 
f 294 359 295 
f 294 358 359 
f 295 360 296 
f 295 359 360 
f 296 361 297 
f 296 360 361 
f 297 362 298 
f 297 361 362 
f 298 363 299 
f 298 362 363 
f 299 364 300 
f 299 363 364 
f 300 365 301 
f 300 364 365 
f 301 366 302 
f 301 365 366 
f 302 367 303 
f 302 366 367 
f 303 368 304 
f 303 367 368 
f 304 369 305 
f 304 368 369 
f 305 370 306 
f 305 369 370 
f 306 371 307 
f 306 370 371 
f 307 372 308 
f 307 371 372 
f 308 373 309 
f 308 372 373 
f 309 374 310 
f 309 373 374 
f 310 375 311 
f 310 374 375 
f 311 376 312 
f 311 375 376 
f 312 377 313 
f 312 376 377 
f 313 378 314 
f 313 377 378 
f 314 379 315 
f 314 378 379 
f 315 380 316 
f 315 379 380 
f 316 381 317 
f 316 380 381 
f 317 382 318 
f 317 381 382 
f 318 383 319 
f 318 382 383 
f 319 384 320 
f 319 383 384 
f 320 321 257 
f 320 384 321 
f 321 386 322 
f 321 385 386 
f 322 387 323 
f 322 386 387 
f 323 388 324 
f 323 387 388 
f 324 389 325 
f 324 388 389 
f 325 390 326 
f 325 389 390 
f 326 391 327 
f 326 390 391 
f 327 392 328 
f 327 391 392 
f 328 393 329 
f 328 392 393 
f 329 394 330 
f 329 393 394 
f 330 395 331 
f 330 394 395 
f 331 396 332 
f 331 395 396 
f 332 397 333 
f 332 396 397 
f 333 398 334 
f 333 397 398 
f 334 399 335 
f 334 398 399 
f 335 400 336 
f 335 399 400 
f 336 401 337 
f 336 400 401 
f 337 402 338 
f 337 401 402 
f 338 403 339 
f 338 402 403 
f 339 404 340 
f 339 403 404 
f 340 405 341 
f 340 404 405 
f 341 406 342 
f 341 405 406 
f 342 407 343 
f 342 406 407 
f 343 408 344 
f 343 407 408 
f 344 409 345 
f 344 408 409 
f 345 410 346 
f 345 409 410 
f 346 411 347 
f 346 410 411 
f 347 412 348 
f 347 411 412 
f 348 413 349 
f 348 412 413 
f 349 414 350 
f 349 413 414 
f 350 415 351 
f 350 414 415 
f 351 416 352 
f 351 415 416 
f 352 417 353 
f 352 416 417 
f 353 418 354 
f 353 417 418 
f 354 419 355 
f 354 418 419 
f 355 420 356 
f 355 419 420 
f 356 421 357 
f 356 420 421 
f 357 422 358 
f 357 421 422 
f 358 423 359 
f 358 422 423 
f 359 424 360 
f 359 423 424 
f 360 425 361 
f 360 424 425 
f 361 426 362 
f 361 425 426 
f 362 427 363 
f 362 426 427 
f 363 428 364 
f 363 427 428 
f 364 429 365 
f 364 428 429 
f 365 430 366 
f 365 429 430 
f 366 431 367 
f 366 430 431 
f 367 432 368 
f 367 431 432 
f 368 433 369 
f 368 432 433 
f 369 434 370 
f 369 433 434 
f 370 435 371 
f 370 434 435 
f 371 436 372 
f 371 435 436 
f 372 437 373 
f 372 436 437 
f 373 438 374 
f 373 437 438 
f 374 439 375 
f 374 438 439 
f 375 440 376 
f 375 439 440 
f 376 441 377 
f 376 440 441 
f 377 442 378 
f 377 441 442 
f 378 443 379 
f 378 442 443 
f 379 444 380 
f 379 443 444 
f 380 445 381 
f 380 444 445 
f 381 446 382 
f 381 445 446 
f 382 447 383 
f 382 446 447 
f 383 448 384 
f 383 447 448 
f 384 385 321 
f 384 448 385 
f 385 450 386 
f 385 449 450 
f 386 451 387 
f 386 450 451 
f 387 452 388 
f 387 451 452 
f 388 453 389 
f 388 452 453 
f 389 454 390 
f 389 453 454 
f 390 455 391 
f 390 454 455 
f 391 456 392 
f 391 455 456 
f 392 457 393 
f 392 456 457 
f 393 458 394 
f 393 457 458 
f 394 459 395 
f 394 458 459 
f 395 460 396 
f 395 459 460 
f 396 461 397 
f 396 460 461 
f 397 462 398 
f 397 461 462 
f 398 463 399 
f 398 462 463 
f 399 464 400 
f 399 463 464 
f 400 465 401 
f 400 464 465 
f 401 466 402 
f 401 465 466 
f 402 467 403 
f 402 466 467 
f 403 468 404 
f 403 467 468 
f 404 469 405 
f 404 468 469 
f 405 470 406 
f 405 469 470 
f 406 471 407 
f 406 470 471 
f 407 472 408 
f 407 471 472 
f 408 473 409 
f 408 472 473 
f 409 474 410 
f 409 473 474 
f 410 475 411 
f 410 474 475 
f 411 476 412 
f 411 475 476 
f 412 477 413 
f 412 476 477 
f 413 478 414 
f 413 477 478 
f 414 479 415 
f 414 478 479 
f 415 480 416 
f 415 479 480 
f 416 481 417 
f 416 480 481 
f 417 482 418 
f 417 481 482 
f 418 483 419 
f 418 482 483 
f 419 484 420 
f 419 483 484 
f 420 485 421 
f 420 484 485 
f 421 486 422 
f 421 485 486 
f 422 487 423 
f 422 486 487 
f 423 488 424 
f 423 487 488 
f 424 489 425 
f 424 488 489 
f 425 490 426 
f 425 489 490 
f 426 491 427 
f 426 490 491 
f 427 492 428 
f 427 491 492 
f 428 493 429 
f 428 492 493 
f 429 494 430 
f 429 493 494 
f 430 495 431 
f 430 494 495 
f 431 496 432 
f 431 495 496 
f 432 497 433 
f 432 496 497 
f 433 498 434 
f 433 497 498 
f 434 499 435 
f 434 498 499 
f 435 500 436 
f 435 499 500 
f 436 501 437 
f 436 500 501 
f 437 502 438 
f 437 501 502 
f 438 503 439 
f 438 502 503 
f 439 504 440 
f 439 503 504 
f 440 505 441 
f 440 504 505 
f 441 506 442 
f 441 505 506 
f 442 507 443 
f 442 506 507 
f 443 508 444 
f 443 507 508 
f 444 509 445 
f 444 508 509 
f 445 510 446 
f 445 509 510 
f 446 511 447 
f 446 510 511 
f 447 512 448 
f 447 511 512 
f 448 449 385 
f 448 512 449 
f 449 514 450 
f 449 513 514 
f 450 515 451 
f 450 514 515 
f 451 516 452 
f 451 515 516 
f 452 517 453 
f 452 516 517 
f 453 518 454 
f 453 517 518 
f 454 519 455 
f 454 518 519 
f 455 520 456 
f 455 519 520 
f 456 521 457 
f 456 520 521 
f 457 522 458 
f 457 521 522 
f 458 523 459 
f 458 522 523 
f 459 524 460 
f 459 523 524 
f 460 525 461 
f 460 524 525 
f 461 526 462 
f 461 525 526 
f 462 527 463 
f 462 526 527 
f 463 528 464 
f 463 527 528 
f 464 529 465 
f 464 528 529 
f 465 530 466 
f 465 529 530 
f 466 531 467 
f 466 530 531 
f 467 532 468 
f 467 531 532 
f 468 533 469 
f 468 532 533 
f 469 534 470 
f 469 533 534 
f 470 535 471 
f 470 534 535 
f 471 536 472 
f 471 535 536 
f 472 537 473 
f 472 536 537 
f 473 538 474 
f 473 537 538 
f 474 539 475 
f 474 538 539 
f 475 540 476 
f 475 539 540 
f 476 541 477 
f 476 540 541 
f 477 542 478 
f 477 541 542 
f 478 543 479 
f 478 542 543 
f 479 544 480 
f 479 543 544 
f 480 545 481 
f 480 544 545 
f 481 546 482 
f 481 545 546 
f 482 547 483 
f 482 546 547 
f 483 548 484 
f 483 547 548 
f 484 549 485 
f 484 548 549 
f 485 550 486 
f 485 549 550 
f 486 551 487 
f 486 550 551 
f 487 552 488 
f 487 551 552 
f 488 553 489 
f 488 552 553 
f 489 554 490 
f 489 553 554 
f 490 555 491 
f 490 554 555 
f 491 556 492 
f 491 555 556 
f 492 557 493 
f 492 556 557 
f 493 558 494 
f 493 557 558 
f 494 559 495 
f 494 558 559 
f 495 560 496 
f 495 559 560 
f 496 561 497 
f 496 560 561 
f 497 562 498 
f 497 561 562 
f 498 563 499 
f 498 562 563 
f 499 564 500 
f 499 563 564 
f 500 565 501 
f 500 564 565 
f 501 566 502 
f 501 565 566 
f 502 567 503 
f 502 566 567 
f 503 568 504 
f 503 567 568 
f 504 569 505 
f 504 568 569 
f 505 570 506 
f 505 569 570 
f 506 571 507 
f 506 570 571 
f 507 572 508 
f 507 571 572 
f 508 573 509 
f 508 572 573 
f 509 574 510 
f 509 573 574 
f 510 575 511 
f 510 574 575 
f 511 576 512 
f 511 575 576 
f 512 513 449 
f 512 576 513 
f 513 578 514 
f 513 577 578 
f 514 579 515 
f 514 578 579 
f 515 580 516 
f 515 579 580 
f 516 581 517 
f 516 580 581 
f 517 582 518 
f 517 581 582 
f 518 583 519 
f 518 582 583 
f 519 584 520 
f 519 583 584 
f 520 585 521 
f 520 584 585 
f 521 586 522 
f 521 585 586 
f 522 587 523 
f 522 586 587 
f 523 588 524 
f 523 587 588 
f 524 589 525 
f 524 588 589 
f 525 590 526 
f 525 589 590 
f 526 591 527 
f 526 590 591 
f 527 592 528 
f 527 591 592 
f 528 593 529 
f 528 592 593 
f 529 594 530 
f 529 593 594 
f 530 595 531 
f 530 594 595 
f 531 596 532 
f 531 595 596 
f 532 597 533 
f 532 596 597 
f 533 598 534 
f 533 597 598 
f 534 599 535 
f 534 598 599 
f 535 600 536 
f 535 599 600 
f 536 601 537 
f 536 600 601 
f 537 602 538 
f 537 601 602 
f 538 603 539 
f 538 602 603 
f 539 604 540 
f 539 603 604 
f 540 605 541 
f 540 604 605 
f 541 606 542 
f 541 605 606 
f 542 607 543 
f 542 606 607 
f 543 608 544 
f 543 607 608 
f 544 609 545 
f 544 608 609 
f 545 610 546 
f 545 609 610 
f 546 611 547 
f 546 610 611 
f 547 612 548 
f 547 611 612 
f 548 613 549 
f 548 612 613 
f 549 614 550 
f 549 613 614 
f 550 615 551 
f 550 614 615 
f 551 616 552 
f 551 615 616 
f 552 617 553 
f 552 616 617 
f 553 618 554 
f 553 617 618 
f 554 619 555 
f 554 618 619 
f 555 620 556 
f 555 619 620 
f 556 621 557 
f 556 620 621 
f 557 622 558 
f 557 621 622 
f 558 623 559 
f 558 622 623 
f 559 624 560 
f 559 623 624 
f 560 625 561 
f 560 624 625 
f 561 626 562 
f 561 625 626 
f 562 627 563 
f 562 626 627 
f 563 628 564 
f 563 627 628 
f 564 629 565 
f 564 628 629 
f 565 630 566 
f 565 629 630 
f 566 631 567 
f 566 630 631 
f 567 632 568 
f 567 631 632 
f 568 633 569 
f 568 632 633 
f 569 634 570 
f 569 633 634 
f 570 635 571 
f 570 634 635 
f 571 636 572 
f 571 635 636 
f 572 637 573 
f 572 636 637 
f 573 638 574 
f 573 637 638 
f 574 639 575 
f 574 638 639 
f 575 640 576 
f 575 639 640 
f 576 577 513 
f 576 640 577 
