# Branch
v 4.1406 9.18789 -26.5101
vn -0.052985 0.500661 -0.86402
v 4.06959 9.19815 -26.4956
vn -0.148197 0.514422 -0.844635
v 3.99964 9.20472 -26.4751
vn -0.241982 0.523229 -0.817115
v 3.93143 9.20753 -26.4487
vn -0.333437 0.526997 -0.781725
v 3.86562 9.20655 -26.4167
vn -0.42168 0.525689 -0.738808
v 3.80283 9.2018 -26.3794
vn -0.505863 0.519319 -0.688775
v 3.74368 9.19332 -26.3371
vn -0.585174 0.507947 -0.632109
v 3.68873 9.18119 -26.2903
vn -0.658849 0.491684 -0.569355
v 3.63851 9.16553 -26.2394
vn -0.726179 0.470686 -0.501118
v 3.59351 9.14649 -26.185
vn -0.786515 0.445154 -0.428055
v 3.55416 9.12425 -26.1274
vn -0.839277 0.415336 -0.35087
v 3.52084 9.09903 -26.0673
vn -0.883957 0.381517 -0.270306
v 3.49387 9.07106 -26.0053
vn -0.920123 0.344025 -0.187138
v 3.4735 9.04063 -25.9419
vn -0.947428 0.303219 -0.102168
v 3.45994 9.00802 -25.8778
vn -0.965609 0.259493 -0.0162144
v 3.45332 8.97354 -25.8136
vn -0.97449 0.213268 0.0698955
v 3.45369 8.93753 -25.7498
vn -0.973987 0.164989 0.155332
v 3.46106 8.90034 -25.6872
vn -0.964103 0.115121 0.239273
v 3.47536 8.86232 -25.6264
vn -0.944935 0.0641446 0.32091
v 3.49644 8.82384 -25.5678
vn -0.916667 0.0125504 0.399456
v 3.52411 8.78527 -25.5121
vn -0.87957 -0.0391648 0.474155
v 3.5581 8.74698 -25.4598
vn -0.834003 -0.0905027 0.544287
v 3.59807 8.70934 -25.4114
vn -0.780404 -0.140969 0.609178
v 3.64365 8.67272 -25.3673
vn -0.719289 -0.190078 0.668202
v 3.6944 8.63746 -25.3281
vn -0.651247 -0.237356 0.720791
v 3.74983 8.6039 -25.2941
vn -0.576933 -0.282348 0.766438
v 3.80939 8.57237 -25.2655
vn -0.497063 -0.324621 0.804705
v 3.87253 8.54317 -25.2428
vn -0.412406 -0.363768 0.835221
v 3.93863 8.51659 -25.226
vn -0.323777 -0.399412 0.857694
v 4.00706 8.49288 -25.2154
vn -0.23203 -0.431209 0.871906
v 4.07715 8.47226 -25.2111
vn -0.138049 -0.458853 0.877722
v 4.14824 8.45494 -25.213
vn -0.0427376 -0.482078 0.875085
v 4.21963 8.44108 -25.2213
vn 0.052985 -0.500661 0.86402
v 4.29064 8.43081 -25.2357
vn 0.148197 -0.514422 0.844635
v 4.36059 8.42425 -25.2563
vn 0.241982 -0.523229 0.817115
v 4.4288 8.42144 -25.2827
vn 0.333437 -0.526997 0.781725
v 4.49461 8.42241 -25.3147
vn 0.42168 -0.525689 0.738808
v 4.5574 8.42716 -25.352
vn 0.505863 -0.519319 0.688775
v 4.61655 8.43564 -25.3943
vn 0.585174 -0.507947 0.632109
v 4.6715 8.44777 -25.4411
vn 0.658849 -0.491684 0.569355
v 4.72172 8.46343 -25.492
vn 0.726179 -0.470686 0.501118
v 4.76672 8.48248 -25.5464
vn 0.786515 -0.445154 0.428055
v 4.80607 8.50471 -25.604
vn 0.839277 -0.415336 0.35087
v 4.83939 8.52994 -25.6641
vn 0.883957 -0.381517 0.270306
v 4.86636 8.5579 -25.7261
vn 0.920123 -0.344025 0.187138
v 4.88673 8.58833 -25.7895
vn 0.947428 -0.303219 0.102168
v 4.90029 8.62095 -25.8536
vn 0.965609 -0.259493 0.0162144
v 4.90691 8.65542 -25.9178
vn 0.97449 -0.213268 -0.0698955
v 4.90654 8.69143 -25.9815
vn 0.973987 -0.164989 -0.155332
v 4.89917 8.72862 -26.0442
vn 0.964103 -0.115121 -0.239273
v 4.88487 8.76664 -26.105
vn 0.944935 -0.0641446 -0.32091
v 4.86379 8.80512 -26.1636
vn 0.916667 -0.0125504 -0.399456
v 4.83612 8.84369 -26.2193
vn 0.87957 0.0391648 -0.474155
v 4.80213 8.88198 -26.2716
vn 0.834003 0.0905027 -0.544287
v 4.76216 8.91962 -26.32
vn 0.780404 0.140969 -0.609178
v 4.71658 8.95625 -26.3641
vn 0.719289 0.190078 -0.668202
v 4.66583 8.99151 -26.4033
vn 0.651247 0.237356 -0.720791
v 4.6104 9.02506 -26.4373
vn 0.576933 0.282348 -0.766438
v 4.55084 9.05659 -26.4659
vn 0.497063 0.324621 -0.804705
v 4.4877 9.08579 -26.4886
vn 0.412406 0.363768 -0.835221
v 4.42159 9.11237 -26.5054
vn 0.323777 0.399412 -0.857694
v 4.35317 9.13609 -26.516
vn 0.23203 0.431209 -0.871906
v 4.28307 9.1567 -26.5203
vn 0.138049 0.458853 -0.877722
v 4.21199 9.17403 -26.5184
vn 0.0427376 0.482078 -0.875085
v 3.67098 7.33934 -27.4913
vn -0.0657955 0.450042 -0.89058
v 3.5991 7.34992 -27.4765
vn -0.160946 0.464046 -0.871067
v 3.52838 7.35712 -27.4554
vn -0.254547 0.473582 -0.843164
v 3.45952 7.36088 -27.4282
vn -0.345696 0.478557 -0.807142
v 3.39317 7.36116 -27.3951
vn -0.433516 0.478923 -0.763346
v 3.32997 7.35795 -27.3565
vn -0.517161 0.474676 -0.712199
v 3.27054 7.35129 -27.3127
vn -0.595825 0.465859 -0.654193
v 3.21544 7.34124 -27.2641
vn -0.668751 0.452555 -0.589886
v 3.16521 7.32789 -27.2112
vn -0.735237 0.434892 -0.519899
v 3.12033 7.31138 -27.1546
vn -0.794642 0.413042 -0.444905
v 3.08123 7.29187 -27.0947
vn -0.846395 0.387213 -0.365626
v 3.04829 7.26954 -27.0321
vn -0.889996 0.357655 -0.282826
v 3.02182 7.24461 -26.9675
vn -0.925025 0.324653 -0.197302
v 3.00209 7.21731 -26.9014
vn -0.951147 0.288525 -0.109878
v 2.98927 7.18791 -26.8346
vn -0.968108 0.249617 -0.021396
v 2.9835 7.1567 -26.7676
vn -0.975746 0.208306 0.0672922
v 2.98483 7.12398 -26.7011
vn -0.973987 0.164989 0.155332
v 2.99325 7.09005 -26.6357
vn -0.962848 0.120083 0.241876
v 3.00867 7.05525 -26.5721
vn -0.942436 0.07402 0.326091
v 3.03095 7.01991 -26.5108
vn -0.912948 0.0272444 0.407166
v 3.05987 6.98437 -26.4525
vn -0.874668 -0.0197935 0.484319
v 3.09516 6.94898 -26.3977
vn -0.827964 -0.0666408 0.556808
v 3.13647 6.91407 -26.347
vn -0.773286 -0.112846 0.623934
v 3.1834 6.87998 -26.3009
vn -0.711162 -0.157965 0.685052
v 3.23551 6.84704 -26.2597
vn -0.642188 -0.201563 0.739572
v 3.29229 6.81557 -26.2239
vn -0.56703 -0.243219 0.78697
v 3.3532 6.78587 -26.1938
vn -0.486411 -0.282533 0.826789
v 3.41765 6.75822 -26.1697
vn -0.401108 -0.319126 0.858645
v 3.48502 6.7329 -26.1519
vn -0.311941 -0.352646 0.882232
v 3.55465 6.71014 -26.1405
vn -0.219771 -0.382769 0.897323
v 3.62589 6.69016 -26.1356
vn -0.125484 -0.409206 0.903772
v 3.69804 6.67317 -26.1373
vn -0.0299887 -0.431703 0.901517
v 3.7704 6.65931 -26.1456
vn 0.0657955 -0.450042 0.89058
v 3.84229 6.64873 -26.1603
vn 0.160946 -0.464046 0.871067
v 3.91301 6.64153 -26.1814
vn 0.254547 -0.473582 0.843164
v 3.98187 6.63777 -26.2086
vn 0.345696 -0.478557 0.807142
v 4.04822 6.63749 -26.2417
vn 0.433516 -0.478923 0.763346
v 4.11142 6.6407 -26.2803
vn 0.517161 -0.474676 0.712199
v 4.17085 6.64736 -26.3242
vn 0.595825 -0.465859 0.654193
v 4.22595 6.65741 -26.3728
vn 0.668751 -0.452555 0.589886
v 4.27618 6.67076 -26.4256
vn 0.735237 -0.434892 0.519899
v 4.32106 6.68727 -26.4823
vn 0.794642 -0.413042 0.444905
v 4.36016 6.70678 -26.5422
vn 0.846395 -0.387213 0.365626
v 4.3931 6.72911 -26.6047
vn 0.889996 -0.357655 0.282826
v 4.41956 6.75404 -26.6694
vn 0.925025 -0.324653 0.197302
v 4.4393 6.78134 -26.7354
vn 0.951147 -0.288525 0.109878
v 4.45211 6.81074 -26.8023
vn 0.968108 -0.249617 0.021396
v 4.45788 6.84195 -26.8693
vn 0.975746 -0.208306 -0.0672922
v 4.45656 6.87467 -26.9358
vn 0.973987 -0.164989 -0.155332
v 4.44814 6.9086 -27.0012
vn 0.962848 -0.120083 -0.241876
v 4.43272 6.9434 -27.0648
vn 0.942436 -0.07402 -0.326091
v 4.41044 6.97874 -27.126
vn 0.912948 -0.0272444 -0.407166
v 4.38152 7.01428 -27.1843
vn 0.874668 0.0197935 -0.484319
v 4.34623 7.04967 -27.2391
vn 0.827964 0.0666408 -0.556808
v 4.30492 7.08458 -27.2898
vn 0.773286 0.112846 -0.623934
v 4.25799 7.11867 -27.336
vn 0.711162 0.157965 -0.685052
v 4.20588 7.15161 -27.3772
vn 0.642188 0.201563 -0.739572
v 4.14909 7.18308 -27.413
vn 0.56703 0.243219 -0.78697
v 4.08818 7.21278 -27.4431
vn 0.486411 0.282533 -0.826789
v 4.02374 7.24043 -27.4671
vn 0.401108 0.319126 -0.858645
v 3.95637 7.26575 -27.485
vn 0.311941 0.352646 -0.882232
v 3.88673 7.28851 -27.4964
vn 0.219771 0.382769 -0.897323
v 3.8155 7.30849 -27.5012
vn 0.125484 0.409206 -0.903772
v 3.74335 7.32548 -27.4995
vn 0.0299887 0.431703 -0.901517
v 3.21255 5.44561 -28.3543
vn -0.0785603 0.397113 -0.914401
v 3.13979 5.45652 -28.3393
vn -0.173649 0.411373 -0.894773
v 3.06831 5.4644 -28.3177
vn -0.267066 0.421671 -0.866527
v 2.99879 5.46917 -28.2897
vn -0.357911 0.427908 -0.829937
v 2.93192 5.47079 -28.2556
vn -0.445309 0.430023 -0.785353
v 2.86832 5.46924 -28.2157
vn -0.528418 0.427998 -0.733207
v 2.80862 5.46454 -28.1704
vn -0.606439 0.421851 -0.673999
v 2.75339 5.45673 -28.1201
vn -0.678619 0.411641 -0.6083
v 2.70315 5.44588 -28.0653
vn -0.744263 0.397466 -0.536743
v 2.65841 5.43211 -28.0066
vn -0.80274 0.379464 -0.460016
v 2.61958 5.41553 -27.9445
vn -0.853486 0.357808 -0.37886
v 2.58704 5.39633 -27.8796
vn -0.896013 0.332705 -0.294055
v 2.5611 5.37466 -27.8126
vn -0.92991 0.304399 -0.206418
v 2.54201 5.35076 -27.744
vn -0.954852 0.273161 -0.116793
v 2.52996 5.32484 -27.6745
vn -0.970598 0.239292 -0.0260432
v 2.52507 5.29716 -27.6049
vn -0.976997 0.203118 0.0649573
v 2.52737 5.26799 -27.5358
vn -0.973987 0.164989 0.155332
v 2.53685 5.2376 -27.4677
vn -0.961597 0.125271 0.244211
v 2.55342 5.20628 -27.4015
vn -0.939946 0.0843458 0.330738
v 2.57691 5.17434 -27.3378
vn -0.909243 0.0426087 0.41408
v 2.60711 5.14209 -27.277
vn -0.869783 0.000461221 0.493434
v 2.64371 5.10984 -27.22
vn -0.821947 -0.0416907 0.568036
v 2.68637 5.07789 -27.1671
vn -0.766195 -0.0834411 0.637168
v 2.73468 5.04656 -27.1189
vn -0.703064 -0.124388 0.700163
v 2.78817 5.01614 -27.0758
vn -0.633162 -0.164137 0.756416
v 2.84633 4.98693 -27.0383
vn -0.557163 -0.202305 0.805383
v 2.90859 4.95922 -27.0068
vn -0.475798 -0.238525 0.846595
v 2.97435 4.93326 -26.9815
vn -0.38985 -0.272447 0.879653
v 3.04299 4.90931 -26.9627
vn -0.300148 -0.303746 0.904239
v 3.11385 4.8876 -26.9505
vn -0.207556 -0.33212 0.920118
v 3.18623 4.86833 -26.9452
vn -0.112965 -0.357295 0.927135
v 3.25944 4.8517 -26.9466
vn -0.0172854 -0.379029 0.925223
v 3.33278 4.83786 -26.9549
vn 0.0785603 -0.397113 0.914401
v 3.40555 4.82695 -26.9699
vn 0.173649 -0.411373 0.894773
v 3.47703 4.81907 -26.9915
vn 0.267066 -0.421671 0.866527
v 3.54654 4.8143 -27.0195
vn 0.357911 -0.427908 0.829937
v 3.61342 4.81268 -27.0537
vn 0.445309 -0.430023 0.785353
v 3.67702 4.81423 -27.0936
vn 0.528418 -0.427998 0.733207
v 3.73672 4.81893 -27.1389
vn 0.606439 -0.421851 0.673999
v 3.79195 4.82675 -27.1891
vn 0.678619 -0.411641 0.6083
v 3.84218 4.83759 -27.2439
vn 0.744263 -0.397466 0.536743
v 3.88693 4.85137 -27.3026
vn 0.80274 -0.379464 0.460016
v 3.92576 4.86794 -27.3647
vn 0.853486 -0.357808 0.37886
v 3.9583 4.88715 -27.4296
vn 0.896013 -0.332705 0.294055
v 3.98424 4.90881 -27.4967
vn 0.92991 -0.304399 0.206418
v 4.00333 4.93271 -27.5653
vn 0.954852 -0.273161 0.116793
v 4.01538 4.95863 -27.6347
vn 0.970598 -0.239292 0.0260432
v 4.02027 4.98631 -27.7043
vn 0.976997 -0.203118 -0.0649573
v 4.01797 5.01549 -27.7735
vn 0.973987 -0.164989 -0.155332
v 4.00849 5.04588 -27.8415
vn 0.961597 -0.125271 -0.244211
v 3.99192 5.0772 -27.9077
vn 0.939946 -0.0843458 -0.330738
v 3.96843 5.10913 -27.9715
vn 0.909243 -0.0426087 -0.41408
v 3.93823 5.14138 -28.0322
vn 0.869783 -0.000461221 -0.493434
v 3.90163 5.17364 -28.0893
vn 0.821947 0.0416907 -0.568036
v 3.85897 5.20559 -28.1422
vn 0.766195 0.0834411 -0.637168
v 3.81066 5.23692 -28.1904
vn 0.703064 0.124388 -0.700163
v 3.75717 5.26734 -28.2334
vn 0.633162 0.164137 -0.756416
v 3.69901 5.29654 -28.2709
vn 0.557163 0.202305 -0.805383
v 3.63675 5.32426 -28.3024
vn 0.475798 0.238525 -0.846595
v 3.57098 5.35022 -28.3277
vn 0.38985 0.272447 -0.879653
v 3.50234 5.37417 -28.3466
vn 0.300148 0.303746 -0.904239
v 3.43149 5.39588 -28.3587
vn 0.207556 0.33212 -0.920118
v 3.35911 5.41514 -28.3641
vn 0.112965 0.357295 -0.927135
v 3.2859 5.43177 -28.3626
vn 0.0172854 0.379029 -0.925223
v 2.76542 3.50703 -29.0989
vn -0.0911386 0.342377 -0.935132
v 2.69178 3.51828 -29.0836
vn -0.186167 0.3569 -0.915404
v 2.61953 3.52687 -29.0615
vn -0.279403 0.367986 -0.88686
v 2.54937 3.53271 -29.0328
vn -0.369948 0.375528 -0.849775
v 2.48197 3.53576 -28.9977
vn -0.45693 0.379453 -0.804506
v 2.41797 3.53597 -28.9566
vn -0.539511 0.379725 -0.75149
v 2.35801 3.53334 -28.9099
vn -0.616897 0.376339 -0.691236
v 2.30265 3.52791 -28.8581
vn -0.688342 0.369329 -0.624325
v 2.25242 3.51972 -28.8016
vn -0.753157 0.358762 -0.551402
v 2.20782 3.50886 -28.741
vn -0.81072 0.34474 -0.473168
v 2.16926 3.49542 -28.6768
vn -0.860474 0.327398 -0.390377
v 2.13713 3.47954 -28.6097
vn -0.901942 0.306903 -0.303827
v 2.11172 3.46136 -28.5404
vn -0.934724 0.283452 -0.214351
v 2.0933 3.44108 -28.4695
vn -0.958504 0.257271 -0.122811
v 2.08202 3.41887 -28.3976
vn -0.973052 0.228613 -0.0300876
v 2.07801 3.39496 -28.3255
vn -0.97823 0.197753 0.0629253
v 2.0813 3.36957 -28.2539
vn -0.973987 0.164989 0.155332
v 2.09186 3.34295 -28.1835
vn -0.960364 0.130636 0.246243
v 2.10958 3.31535 -28.1149
vn -0.937492 0.0950243 0.334783
v 2.1343 3.28705 -28.0488
vn -0.905591 0.0584979 0.420098
v 2.16578 3.25831 -27.9858
vn -0.864969 0.021408 0.501368
v 2.20371 3.22941 -27.9266
vn -0.816017 -0.015888 0.577809
v 2.24773 3.20062 -27.8716
vn -0.759207 -0.053031 0.648686
v 2.29742 3.17224 -27.8216
vn -0.695084 -0.0896633 0.713315
v 2.3523 3.14452 -27.7768
vn -0.624268 -0.125432 0.771075
v 2.41183 3.11774 -27.7378
vn -0.54744 -0.159993 0.821409
v 2.47545 3.09215 -27.7049
vn -0.465339 -0.193013 0.863832
v 2.54254 3.06801 -27.6785
vn -0.378757 -0.224174 0.897936
v 2.61246 3.04553 -27.6588
vn -0.288528 -0.253176 0.923392
v 2.68453 3.02495 -27.6459
vn -0.195519 -0.27974 0.939956
v 2.75806 3.00645 -27.6401
vn -0.100628 -0.30361 0.947468
v 2.83235 2.99022 -27.6414
vn -0.00476769 -0.324556 0.945854
v 2.90666 2.97641 -27.6497
vn 0.0911386 -0.342377 0.935132
v 2.9803 2.96516 -27.665
vn 0.186167 -0.3569 0.915404
v 3.05255 2.95657 -27.6871
vn 0.279403 -0.367986 0.88686
v 3.12271 2.95072 -27.7158
vn 0.369948 -0.375528 0.849775
v 3.19011 2.94768 -27.7509
vn 0.45693 -0.379453 0.804506
v 3.25411 2.94747 -27.792
vn 0.539511 -0.379725 0.75149
v 3.31407 2.95009 -27.8387
vn 0.616897 -0.376339 0.691236
v 3.36943 2.95553 -27.8905
vn 0.688342 -0.369329 0.624325
v 3.41966 2.96371 -27.947
vn 0.753157 -0.358762 0.551402
v 3.46426 2.97458 -28.0076
vn 0.81072 -0.34474 0.473168
v 3.50282 2.98802 -28.0718
vn 0.860474 -0.327398 0.390377
v 3.53495 3.0039 -28.1389
vn 0.901942 -0.306903 0.303827
v 3.56035 3.02207 -28.2082
vn 0.934724 -0.283452 0.214351
v 3.57878 3.04236 -28.2791
vn 0.958504 -0.257271 0.122811
v 3.59006 3.06457 -28.351
vn 0.973052 -0.228613 0.0300876
v 3.59407 3.08848 -28.4231
vn 0.97823 -0.197753 -0.0629253
v 3.59078 3.11387 -28.4947
vn 0.973987 -0.164989 -0.155332
v 3.58022 3.14049 -28.5651
vn 0.960364 -0.130636 -0.246243
v 3.5625 3.16808 -28.6337
vn 0.937492 -0.0950243 -0.334783
v 3.53778 3.19639 -28.6998
vn 0.905591 -0.0584979 -0.420098
v 3.5063 3.22513 -28.7628
vn 0.864969 -0.021408 -0.501368
v 3.46837 3.25403 -28.822
vn 0.816017 0.015888 -0.577809
v 3.42435 3.28281 -28.877
vn 0.759207 0.053031 -0.648686
v 3.37466 3.3112 -28.927
vn 0.695084 0.0896633 -0.713315
v 3.31978 3.33892 -28.9718
vn 0.624268 0.125432 -0.771075
v 3.26025 3.3657 -29.0108
vn 0.54744 0.159993 -0.821409
v 3.19663 3.39128 -29.0437
vn 0.465339 0.193013 -0.863832
v 3.12954 3.41543 -29.0701
vn 0.378757 0.224174 -0.897936
v 3.05962 3.4379 -29.0898
vn 0.288528 0.253176 -0.923392
v 2.98755 3.45849 -29.1027
vn 0.195519 0.27974 -0.939956
v 2.91402 3.47699 -29.1085
vn 0.100628 0.30361 -0.947468
v 2.83973 3.49322 -29.1072
vn 0.00476769 0.324556 -0.945854
v 2.32968 1.52397 -29.7248
vn -0.103393 0.286401 -0.952515
v 2.25517 1.53558 -29.7092
vn -0.198362 0.301194 -0.932703
v 2.18216 1.54491 -29.6867
vn -0.291422 0.313086 -0.903909
v 2.11135 1.55188 -29.6572
vn -0.381674 0.321963 -0.866409
v 2.04342 1.55641 -29.6213
vn -0.468251 0.327739 -0.820566
v 1.97903 1.55846 -29.5791
vn -0.550319 0.330358 -0.76682
v 1.9188 1.55802 -29.5311
vn -0.627086 0.329797 -0.705689
v 1.86331 1.55509 -29.4778
vn -0.697814 0.326059 -0.637762
v 1.81309 1.54969 -29.4197
vn -0.761823 0.319181 -0.563693
v 1.76862 1.54189 -29.3573
vn -0.818494 0.309229 -0.484195
v 1.73035 1.53174 -29.2913
vn -0.867283 0.296299 -0.400035
v 1.69862 1.51936 -29.2223
vn -0.907719 0.280516 -0.312022
v 1.67375 1.50485 -29.1509
vn -0.939413 0.262031 -0.221003
v 1.65598 1.48837 -29.0778
vn -0.962061 0.241022 -0.127857
v 1.64548 1.47007 -29.0037
vn -0.975443 0.217693 -0.0334788
v 1.64236 1.45012 -28.9294
vn -0.979431 0.192267 0.0612215
v 1.64663 1.42872 -28.8556
vn -0.973987 0.164989 0.155332
v 1.65826 1.40607 -28.7829
vn -0.959163 0.136122 0.247947
v 1.67714 1.38239 -28.7121
vn -0.935101 0.105945 0.338174
v 1.70308 1.35791 -28.6439
vn -0.902034 0.0747467 0.425144
v 1.73584 1.33287 -28.5789
vn -0.86028 0.042829 0.50802
v 1.7751 1.3075 -28.5177
vn -0.810241 0.0104987 0.586003
v 1.82048 1.28206 -28.4609
vn -0.752399 -0.0219326 0.658343
v 1.87155 1.25678 -28.4091
vn -0.68731 -0.0541527 0.724342
v 1.92781 1.23191 -28.3628
vn -0.615603 -0.0858513 0.783366
v 1.98872 1.20769 -28.3224
vn -0.537967 -0.116723 0.834846
v 2.0537 1.18435 -28.2884
vn -0.45515 -0.146471 0.878285
v 2.12212 1.16212 -28.2609
vn -0.36795 -0.174808 0.913266
v 2.19331 1.1412 -28.2404
vn -0.277206 -0.201462 0.939452
v 2.2666 1.12181 -28.2269
vn -0.183793 -0.226175 0.95659
v 2.34128 1.10413 -28.2207
vn -0.0886093 -0.24871 0.964516
v 2.41663 1.08833 -28.2218
vn 0.00742755 -0.26885 0.963153
v 2.49193 1.07456 -28.2301
vn 0.103393 -0.286401 0.952515
v 2.56644 1.06295 -28.2457
vn 0.198362 -0.301194 0.932703
v 2.63945 1.05362 -28.2683
vn 0.291422 -0.313086 0.903909
v 2.71026 1.04666 -28.2977
vn 0.381674 -0.321963 0.866409
v 2.77819 1.04213 -28.3336
vn 0.468251 -0.327739 0.820566
v 2.84258 1.04007 -28.3758
vn 0.550319 -0.330358 0.76682
v 2.90281 1.04051 -28.4238
vn 0.627086 -0.329797 0.705689
v 2.9583 1.04345 -28.4771
vn 0.697814 -0.326059 0.637762
v 3.00852 1.04884 -28.5352
vn 0.761823 -0.319181 0.563693
v 3.05299 1.05665 -28.5976
vn 0.818494 -0.309229 0.484195
v 3.09127 1.06679 -28.6636
vn 0.867283 -0.296299 0.400035
v 3.12299 1.07918 -28.7326
vn 0.907719 -0.280516 0.312022
v 3.14786 1.09368 -28.8041
vn 0.939413 -0.262031 0.221003
v 3.16563 1.11016 -28.8771
vn 0.962061 -0.241022 0.127857
v 3.17613 1.12847 -28.9512
vn 0.975443 -0.217693 0.0334788
v 3.17926 1.14842 -29.0255
vn 0.979431 -0.192267 -0.0612215
v 3.17498 1.16982 -29.0993
vn 0.973987 -0.164989 -0.155332
v 3.16335 1.19247 -29.172
vn 0.959163 -0.136122 -0.247947
v 3.14448 1.21614 -29.2428
vn 0.935101 -0.105945 -0.338174
v 3.11853 1.24062 -29.311
vn 0.902034 -0.0747467 -0.425144
v 3.08577 1.26566 -29.376
vn 0.86028 -0.042829 -0.50802
v 3.04651 1.29103 -29.4372
vn 0.810241 -0.0104987 -0.586003
v 3.00113 1.31648 -29.494
vn 0.752399 0.0219326 -0.658343
v 2.95006 1.34176 -29.5458
vn 0.68731 0.0541527 -0.724342
v 2.8938 1.36663 -29.5921
vn 0.615603 0.0858513 -0.783366
v 2.83289 1.39085 -29.6325
vn 0.537967 0.116723 -0.834846
v 2.76791 1.41419 -29.6665
vn 0.45515 0.146471 -0.878285
v 2.6995 1.43642 -29.694
vn 0.36795 0.174808 -0.913266
v 2.6283 1.45733 -29.7145
vn 0.277206 0.201462 -0.939452
v 2.55501 1.47672 -29.728
vn 0.183793 0.226175 -0.95659
v 2.48033 1.4944 -29.7342
vn 0.0886093 0.24871 -0.964516
v 2.40498 1.5102 -29.7331
vn -0.00742755 0.26885 -0.963153
v 1.90547 -0.503092 -30.2317
vn -0.115196 0.229796 -0.966397
v 1.83008 -0.491126 -30.2159
vn -0.210108 0.244861 -0.946519
v 1.7563 -0.481033 -30.1929
vn -0.302998 0.257568 -0.917525
v 1.68484 -0.472911 -30.1628
vn -0.392969 0.267794 -0.879694
v 1.61638 -0.466836 -30.126
vn -0.479155 0.275442 -0.833392
v 1.55159 -0.462869 -30.0829
vn -0.560728 0.280437 -0.779063
v 1.49109 -0.461047 -30.0338
vn -0.6369 0.282731 -0.717232
v 1.43546 -0.461387 -29.9792
vn -0.706938 0.282302 -0.648494
v 1.38524 -0.463887 -29.9196
vn -0.770168 0.279155 -0.57351
v 1.34091 -0.468523 -29.8557
vn -0.825981 0.273319 -0.493003
v 1.30289 -0.475249 -29.788
vn -0.87384 0.264851 -0.407748
v 1.27157 -0.484001 -29.7171
vn -0.913283 0.253832 -0.318566
v 1.24722 -0.494694 -29.6438
vn -0.94393 0.240369 -0.226316
v 1.2301 -0.507227 -29.5688
vn -0.965487 0.224591 -0.131887
v 1.22036 -0.521477 -29.4928
vn -0.977746 0.20665 -0.0361872
v 1.21811 -0.537308 -29.4165
vn -0.980588 0.186718 0.0598608
v 1.22335 -0.554567 -29.3407
vn -0.973987 0.164989 0.155332
v 1.23604 -0.573088 -29.2661
vn -0.958006 0.141671 0.249308
v 1.25606 -0.592693 -29.1933
vn -0.932798 0.116988 0.340882
v 1.28322 -0.613193 -29.1232
vn -0.898608 0.0911785 0.429174
v 1.31725 -0.634391 -29.0564
vn -0.855763 0.064491 0.513333
v 1.35783 -0.656081 -28.9934
vn -0.804677 0.0371824 0.592547
v 1.40456 -0.678056 -28.9351
vn -0.745841 0.00951577 0.666056
v 1.457 -0.700104 -28.8818
vn -0.679823 -0.0182425 0.73315
v 1.51463 -0.722012 -28.8341
vn -0.607257 -0.0458251 0.793183
v 1.57692 -0.74357 -28.7925
vn -0.528843 -0.0729664 0.845577
v 1.64325 -0.76457 -28.7573
vn -0.445337 -0.099405 0.889828
v 1.71298 -0.784809 -28.729
vn -0.357541 -0.124886 0.92551
v 1.78545 -0.804093 -28.7077
vn -0.266302 -0.149165 0.952278
v 1.85996 -0.822236 -28.6937
vn -0.172498 -0.172007 0.969875
v 1.93578 -0.839063 -28.6872
vn -0.0770333 -0.193192 0.978132
v 2.0122 -0.854413 -28.6881
vn 0.0191735 -0.212517 0.976969
v 2.08846 -0.868136 -28.6965
vn 0.115196 -0.229796 0.966397
v 2.16385 -0.880102 -28.7123
vn 0.210108 -0.244861 0.946519
v 2.23763 -0.890195 -28.7353
vn 0.302998 -0.257568 0.917525
v 2.30909 -0.898318 -28.7654
vn 0.392969 -0.267794 0.879694
v 2.37755 -0.904393 -28.8021
vn 0.479155 -0.275442 0.833392
v 2.44234 -0.90836 -28.8453
vn 0.560728 -0.280437 0.779063
v 2.50284 -0.910182 -28.8944
vn 0.6369 -0.282731 0.717232
v 2.55847 -0.909842 -28.949
vn 0.706938 -0.282302 0.648494
v 2.6087 -0.907342 -29.0086
vn 0.770168 -0.279155 0.57351
v 2.65303 -0.902706 -29.0725
vn 0.825981 -0.273319 0.493003
v 2.69104 -0.89598 -29.1402
vn 0.87384 -0.264851 0.407748
v 2.72237 -0.887228 -29.2111
vn 0.913283 -0.253832 0.318566
v 2.74671 -0.876535 -29.2843
vn 0.94393 -0.240369 0.226316
v 2.76383 -0.864002 -29.3593
vn 0.965487 -0.224591 0.131887
v 2.77357 -0.849752 -29.4353
vn 0.977746 -0.20665 0.0361872
v 2.77583 -0.833921 -29.5116
vn 0.980588 -0.186718 -0.0598608
v 2.77059 -0.816662 -29.5875
vn 0.973987 -0.164989 -0.155332
v 2.75789 -0.798141 -29.6621
vn 0.958006 -0.141671 -0.249308
v 2.73787 -0.778536 -29.7348
vn 0.932798 -0.116988 -0.340882
v 2.71071 -0.758036 -29.805
vn 0.898608 -0.0911785 -0.429174
v 2.67668 -0.736838 -29.8718
vn 0.855763 -0.064491 -0.513333
v 2.63611 -0.715148 -29.9347
vn 0.804677 -0.0371824 -0.592547
v 2.58937 -0.693173 -29.9931
vn 0.745841 -0.00951577 -0.666056
v 2.53694 -0.671125 -30.0464
vn 0.679823 0.0182425 -0.73315
v 2.4793 -0.649216 -30.0941
vn 0.607257 0.0458251 -0.793183
v 2.41702 -0.627659 -30.1357
vn 0.528843 0.0729664 -0.845577
v 2.35069 -0.606659 -30.1709
vn 0.445337 0.099405 -0.889828
v 2.28095 -0.58642 -30.1992
vn 0.357541 0.124886 -0.92551
v 2.20849 -0.567136 -30.2205
vn 0.266302 0.149165 -0.952278
v 2.13398 -0.548993 -30.2344
vn 0.172498 0.172007 -0.969875
v 2.05815 -0.532166 -30.241
vn 0.0770333 0.193192 -0.978132
v 1.98174 -0.516816 -30.2401
vn -0.0191735 0.212517 -0.976969
v 1.49287 -2.5737 -30.6195
vn -0.126436 0.173177 -0.976741
v 1.41661 -2.56137 -30.6034
vn -0.221295 0.188515 -0.956813
v 1.34206 -2.5505 -30.58
vn -0.314022 0.202037 -0.92767
v 1.26994 -2.54119 -30.5494
vn -0.403725 0.213614 -0.889593
v 1.20095 -2.53354 -30.5119
vn -0.48954 0.223133 -0.842948
v 1.13575 -2.52761 -30.4679
vn -0.570641 0.230503 -0.788186
v 1.07496 -2.52347 -30.4177
vn -0.646246 0.235654 -0.725833
v 1.01918 -2.52115 -30.362
vn -0.715627 0.238535 -0.65649
v 0.968941 -2.52068 -30.3012
vn -0.778117 0.239119 -0.580824
v 0.924726 -2.52206 -30.2358
vn -0.833112 0.2374 -0.499565
v 0.886961 -2.52528 -30.1666
vn -0.880085 0.233395 -0.413494
v 0.856011 -2.53031 -30.0942
vn -0.918581 0.227142 -0.323442
v 0.832173 -2.5371 -30.0193
vn -0.948232 0.218702 -0.230274
v 0.815677 -2.54558 -29.9426
vn -0.96875 0.208155 -0.134889
v 0.806681 -2.55567 -29.8649
vn -0.979939 0.195604 -0.0382052
v 0.805273 -2.56727 -29.7869
vn -0.98169 0.181169 0.0588469
v 0.811466 -2.58028 -29.7093
vn -0.973987 0.164989 0.155332
v 0.825201 -2.59457 -29.6329
vn -0.956904 0.14722 0.250322
v 0.846344 -2.60999 -29.5585
vn -0.930606 0.128034 0.3429
v 0.874692 -2.62641 -29.4867
vn -0.895345 0.107614 0.432177
v 0.909973 -2.64366 -29.4183
vn -0.851462 0.0861581 0.517291
v 0.951847 -2.66158 -29.3539
vn -0.799378 0.0638724 0.597424
v 0.99991 -2.67999 -29.2941
vn -0.739596 0.0409715 0.671803
v 1.0537 -2.69872 -29.2395
vn -0.672692 0.0176761 0.739712
v 1.1127 -2.71758 -29.1906
vn -0.599309 -0.00578958 0.800497
v 1.17633 -2.7364 -29.1479
vn -0.520154 -0.0291995 0.853573
v 1.244 -2.755 -29.1119
vn -0.43599 -0.0523282 0.898429
v 1.31504 -2.77319 -29.0828
vn -0.347627 -0.0749529 0.934632
v 1.38877 -2.7908 -29.0609
vn -0.255917 -0.0968558 0.961834
v 1.46449 -2.80766 -29.0465
vn -0.161742 -0.117826 0.979774
v 1.54146 -2.8236 -29.0396
vn -0.0660086 -0.137661 0.988277
v 1.61893 -2.83849 -29.0405
vn 0.03036 -0.156171 0.987263
v 1.69618 -2.85216 -29.0489
vn 0.126436 -0.173177 0.976741
v 1.77244 -2.86449 -29.0649
vn 0.221295 -0.188515 0.956813
v 1.84699 -2.87536 -29.0884
vn 0.314022 -0.202037 0.92767
v 1.91911 -2.88467 -29.119
vn 0.403725 -0.213614 0.889593
v 1.9881 -2.89232 -29.1565
vn 0.48954 -0.223133 0.842948
v 2.0533 -2.89825 -29.2005
vn 0.570641 -0.230503 0.788186
v 2.11409 -2.90239 -29.2506
vn 0.646246 -0.235654 0.725833
v 2.16987 -2.9047 -29.3064
vn 0.715627 -0.238535 0.65649
v 2.22011 -2.90517 -29.3672
vn 0.778117 -0.239119 0.580824
v 2.26432 -2.90379 -29.4326
vn 0.833112 -0.2374 0.499565
v 2.30209 -2.90057 -29.5018
vn 0.880085 -0.233395 0.413494
v 2.33304 -2.89554 -29.5742
vn 0.918581 -0.227142 0.323442
v 2.35688 -2.88876 -29.6491
vn 0.948232 -0.218702 0.230274
v 2.37337 -2.88028 -29.7257
vn 0.96875 -0.208155 0.134889
v 2.38237 -2.87019 -29.8035
vn 0.979939 -0.195604 0.0382052
v 2.38377 -2.85858 -29.8815
vn 0.98169 -0.181169 -0.0588469
v 2.37758 -2.84557 -29.9591
vn 0.973987 -0.164989 -0.155332
v 2.36385 -2.83129 -30.0354
vn 0.956904 -0.14722 -0.250322
v 2.3427 -2.81586 -30.1099
vn 0.930606 -0.128034 -0.3429
v 2.31436 -2.79945 -30.1817
vn 0.895345 -0.107614 -0.432177
v 2.27908 -2.7822 -30.2501
vn 0.851462 -0.0861581 -0.517291
v 2.2372 -2.76428 -30.3145
vn 0.799378 -0.0638724 -0.597424
v 2.18914 -2.74587 -30.3743
vn 0.739596 -0.0409715 -0.671803
v 2.13535 -2.72714 -30.4289
vn 0.672692 -0.0176761 -0.739712
v 2.07635 -2.70827 -30.4778
vn 0.599309 0.00578958 -0.800497
v 2.01271 -2.68945 -30.5204
vn 0.520154 0.0291995 -0.853573
v 1.94505 -2.67086 -30.5565
vn 0.43599 0.0523282 -0.898429
v 1.87401 -2.65267 -30.5856
vn 0.347627 0.0749529 -0.934632
v 1.80027 -2.63506 -30.6075
vn 0.255917 0.0968558 -0.961834
v 1.72456 -2.6182 -30.6219
vn 0.161742 0.117826 -0.979774
v 1.64759 -2.60225 -30.6287
vn 0.0660086 0.137661 -0.988277
v 1.57012 -2.58737 -30.6279
vn -0.03036 0.156171 -0.987263
v 1.09198 -4.68736 -30.8881
vn -0.137026 0.117136 -0.983617
v 1.01484 -4.67466 -30.8719
vn -0.231833 0.132744 -0.963656
v 0.939518 -4.663 -30.8481
vn -0.324408 0.147073 -0.934414
v 0.866735 -4.6525 -30.817
vn -0.413859 0.159986 -0.896172
v 0.797195 -4.64324 -30.7788
vn -0.499324 0.171358 -0.849301
v 0.731568 -4.63533 -30.734
vn -0.57998 0.18108 -0.79425
v 0.670486 -4.62884 -30.683
vn -0.655051 0.189058 -0.73155
v 0.614537 -4.62383 -30.6263
vn -0.723813 0.195216 -0.661805
v 0.564259 -4.62035 -30.5643
vn -0.785605 0.199493 -0.585686
v 0.520138 -4.61844 -30.4978
vn -0.83983 0.201849 -0.503927
v 0.482597 -4.6181 -30.4273
vn -0.885968 0.202261 -0.417314
v 0.451999 -4.61935 -30.3536
vn -0.923573 0.200725 -0.326683
v 0.428638 -4.62217 -30.2773
vn -0.952284 0.197256 -0.232906
v 0.412739 -4.62654 -30.1992
vn -0.971824 0.191887 -0.136885
v 0.404456 -4.63241 -30.12
vn -0.982004 0.184671 -0.0395466
v 0.403867 -4.63973 -30.0404
vn -0.982728 0.175676 0.058173
v 0.410979 -4.64843 -29.9614
vn -0.973987 0.164989 0.155332
v 0.425724 -4.65842 -29.8836
vn -0.955866 0.152713 0.250996
v 0.447958 -4.6696 -29.8077
vn -0.92854 0.138967 0.344242
v 0.477469 -4.68187 -29.7345
vn -0.892271 0.123882 0.434173
v 0.513971 -4.69512 -29.6647
vn -0.847409 0.107604 0.519922
v 0.557114 -4.70921 -29.599
vn -0.794386 0.0902896 0.600665
v 0.606481 -4.724 -29.5381
vn -0.733713 0.0721058 0.675623
v 0.661598 -4.73936 -29.4824
vn -0.665974 0.0532276 0.744074
v 0.721934 -4.75514 -29.4325
vn -0.591821 0.0338369 0.805359
v 0.786907 -4.77118 -29.3889
vn -0.511968 0.0141202 0.858888
v 0.855892 -4.78734 -29.3521
vn -0.427185 -0.0057324 0.904146
v 0.928224 -4.80345 -29.3224
vn -0.338288 -0.0255298 0.940696
v 1.00321 -4.81935 -29.3
vn -0.246133 -0.0450814 0.968187
v 1.08012 -4.83491 -29.2852
vn -0.151608 -0.0641988 0.986354
v 1.15822 -4.84996 -29.2782
vn -0.0556226 -0.0826979 0.995021
v 1.23675 -4.86437 -29.2789
vn 0.0408985 -0.100401 0.994106
v 1.31497 -4.87798 -29.2874
vn 0.137026 -0.117136 0.983617
v 1.39211 -4.89068 -29.3037
vn 0.231833 -0.132744 0.963656
v 1.46744 -4.90234 -29.3275
vn 0.324408 -0.147073 0.934414
v 1.54022 -4.91285 -29.3586
vn 0.413859 -0.159986 0.896172
v 1.60976 -4.9221 -29.3967
vn 0.499324 -0.171358 0.849301
v 1.67539 -4.93001 -29.4415
vn 0.57998 -0.18108 0.79425
v 1.73647 -4.9365 -29.4925
vn 0.655051 -0.189058 0.73155
v 1.79242 -4.94151 -29.5493
vn 0.723813 -0.195216 0.661805
v 1.84269 -4.94499 -29.6112
vn 0.785605 -0.199493 0.585686
v 1.88682 -4.94691 -29.6778
vn 0.83983 -0.201849 0.503927
v 1.92436 -4.94725 -29.7482
vn 0.885968 -0.202261 0.417314
v 1.95495 -4.946 -29.822
vn 0.923573 -0.200725 0.326683
v 1.97832 -4.94317 -29.8983
vn 0.952284 -0.197256 0.232906
v 1.99421 -4.9388 -29.9764
vn 0.971824 -0.191887 0.136885
v 2.0025 -4.93293 -30.0556
vn 0.982004 -0.184671 0.0395466
v 2.00309 -4.92561 -30.1351
vn 0.982728 -0.175676 -0.058173
v 1.99597 -4.91692 -30.2142
vn 0.973987 -0.164989 -0.155332
v 1.98123 -4.90693 -30.292
vn 0.955866 -0.152713 -0.250996
v 1.959 -4.89574 -30.3679
vn 0.92854 -0.138967 -0.344242
v 1.92948 -4.88347 -30.4411
vn 0.892271 -0.123882 -0.434173
v 1.89298 -4.87023 -30.5108
vn 0.847409 -0.107604 -0.519922
v 1.84984 -4.85614 -30.5765
vn 0.794386 -0.0902896 -0.600665
v 1.80047 -4.84134 -30.6375
vn 0.733713 -0.0721058 -0.675623
v 1.74535 -4.82598 -30.6932
vn 0.665974 -0.0532276 -0.744074
v 1.68502 -4.8102 -30.7431
vn 0.591821 -0.0338369 -0.805359
v 1.62005 -4.79416 -30.7866
vn 0.511968 -0.0141202 -0.858888
v 1.55106 -4.77801 -30.8235
vn 0.427185 0.0057324 -0.904146
v 1.47873 -4.7619 -30.8532
vn 0.338288 0.0255298 -0.940696
v 1.40375 -4.74599 -30.8756
vn 0.246133 0.0450814 -0.968187
v 1.32683 -4.73044 -30.8903
vn 0.151608 0.0641988 -0.986354
v 1.24873 -4.71538 -30.8974
vn 0.0556226 0.0826979 -0.995021
v 1.1702 -4.70098 -30.8966
vn -0.0408985 0.100401 -0.994106
v 0.702874 -6.84363 -31.0377
vn -0.1469 0.0622137 -0.987193
v 0.624853 -6.83056 -31.0212
vn -0.24166 0.0780859 -0.967214
v 0.548748 -6.81811 -30.9971
vn -0.334092 0.0932061 -0.937921
v 0.475292 -6.8064 -30.9655
vn -0.423308 0.107429 -0.899594
v 0.405193 -6.79554 -30.9268
vn -0.508446 0.120617 -0.852604
v 0.339126 -6.78564 -30.8814
vn -0.588688 0.132643 -0.797403
v 0.277726 -6.77679 -30.8296
vn -0.663261 0.143392 -0.734523
v 0.221585 -6.76907 -30.772
vn -0.731446 0.15276 -0.664569
v 0.171245 -6.76257 -30.7092
vn -0.792587 0.160657 -0.588214
v 0.127189 -6.75734 -30.6416
vn -0.846094 0.167006 -0.506195
v 0.0898423 -6.75344 -30.5701
vn -0.891454 0.171747 -0.419301
v 0.0595641 -6.7509 -30.4952
vn -0.928228 0.174835 -0.328369
v 0.0366461 -6.74974 -30.4177
vn -0.956063 0.176238 -0.234274
v 0.0213091 -6.74998 -30.3384
vn -0.97469 0.175944 -0.137923
v 0.0137008 -6.75162 -30.258
vn -0.983931 0.173956 -0.0402442
v 0.0138944 -6.75464 -30.1772
vn -0.983696 0.170293 0.0578225
v 0.0218881 -6.759 -30.097
vn -0.973987 0.164989 0.155332
v 0.0376048 -6.76468 -30.0179
vn -0.954898 0.158096 0.251346
v 0.0608933 -6.77161 -29.9408
vn -0.926613 0.149681 0.344939
v 0.0915293 -6.77972 -29.8665
vn -0.889405 0.139825 0.435211
v 0.129218 -6.78895 -29.7956
vn -0.843631 0.128622 0.521291
v 0.173595 -6.79919 -29.7289
vn -0.789732 0.11618 0.60235
v 0.224235 -6.81036 -29.6669
vn -0.728227 0.102619 0.677609
v 0.280649 -6.82234 -29.6103
vn -0.65971 0.0880702 0.746342
v 0.342295 -6.83501 -29.5597
vn -0.584839 0.0726731 0.807887
v 0.408577 -6.84827 -29.5154
vn -0.504336 0.056576 0.861652
v 0.478859 -6.86197 -29.478
vn -0.418976 0.0399341 0.907119
v 0.552463 -6.87599 -29.4477
vn -0.32958 0.0229076 0.94385
v 0.62868 -6.89019 -29.425
vn -0.237011 0.00566054 0.97149
v 0.706777 -6.90443 -29.4099
vn -0.142159 -0.0116411 0.989775
v 0.786001 -6.91859 -29.4027
vn -0.0459384 -0.0288306 0.998528
v 0.865589 -6.93251 -29.4034
vn 0.0507249 -0.0457424 0.997665
v 0.944775 -6.94607 -29.412
vn 0.1469 -0.0622137 0.987193
v 1.0228 -6.95914 -29.4285
vn 0.24166 -0.0780859 0.967214
v 1.0989 -6.97159 -29.4526
vn 0.334092 -0.0932061 0.937921
v 1.17236 -6.9833 -29.4842
vn 0.423308 -0.107429 0.899594
v 1.24246 -6.99416 -29.5228
vn 0.508446 -0.120617 0.852604
v 1.30852 -7.00406 -29.5683
vn 0.588688 -0.132643 0.797403
v 1.36992 -7.01291 -29.6201
vn 0.663261 -0.143392 0.734523
v 1.42606 -7.02062 -29.6777
vn 0.731446 -0.15276 0.664569
v 1.4764 -7.02713 -29.7405
vn 0.792587 -0.160657 0.588214
v 1.52046 -7.03235 -29.8081
vn 0.846094 -0.167006 0.506195
v 1.55781 -7.03626 -29.8796
vn 0.891454 -0.171747 0.419301
v 1.58809 -7.0388 -29.9545
vn 0.928228 -0.174835 0.328369
v 1.611 -7.03996 -30.032
vn 0.956063 -0.176238 0.234274
v 1.62634 -7.03971 -30.1113
vn 0.97469 -0.175944 0.137923
v 1.63395 -7.03808 -30.1917
vn 0.983931 -0.173956 0.0402442
v 1.63375 -7.03506 -30.2725
vn 0.983696 -0.170293 -0.0578225
v 1.62576 -7.03069 -30.3527
vn 0.973987 -0.164989 -0.155332
v 1.61004 -7.02502 -30.4318
vn 0.954898 -0.158096 -0.251346
v 1.58676 -7.01809 -30.5089
vn 0.926613 -0.149681 -0.344939
v 1.55612 -7.00997 -30.5832
vn 0.889405 -0.139825 -0.435211
v 1.51843 -7.00075 -30.6541
vn 0.843631 -0.128622 -0.521291
v 1.47405 -6.99051 -30.7208
vn 0.789732 -0.11618 -0.60235
v 1.42341 -6.97934 -30.7828
vn 0.728227 -0.102619 -0.677609
v 1.367 -6.96736 -30.8393
vn 0.65971 -0.0880702 -0.746342
v 1.30535 -6.95469 -30.89
vn 0.584839 -0.0726731 -0.807887
v 1.23907 -6.94143 -30.9343
vn 0.504336 -0.056576 -0.861652
v 1.16879 -6.92773 -30.9717
vn 0.418976 -0.0399341 -0.907119
v 1.09519 -6.91371 -31.002
vn 0.32958 -0.0229076 -0.94385
v 1.01897 -6.89951 -31.0247
vn 0.237011 -0.00566054 -0.97149
v 0.940872 -6.88526 -31.0398
vn 0.142159 0.0116411 -0.989775
v 0.861648 -6.87111 -31.047
vn 0.0459384 0.0288306 -0.998528
v 0.78206 -6.85719 -31.0463
vn -0.0507249 0.0457424 -0.997665
v 0.325598 -9.04206 -31.0682
vn -0.156018 0.00887391 -0.987714
v 0.246695 -9.02863 -31.0516
vn -0.250734 0.0250029 -0.967733
v 0.169803 -9.01539 -31.0271
vn -0.343036 0.0408912 -0.938432
v 0.0956641 -9.00249 -30.9952
vn -0.432034 0.0563856 -0.900093
v 0.0249909 -8.99003 -30.956
vn -0.516871 0.071337 -0.853086
v -0.0415356 -8.97815 -30.91
vn -0.59673 0.0856014 -0.797863
v -0.103275 -8.96695 -30.8576
vn -0.670843 0.0990413 -0.734956
v -0.159632 -8.95655 -30.7993
vn -0.738495 0.111528 -0.664972
v -0.210064 -8.94704 -30.7357
vn -0.799034 0.12294 -0.588583
v -0.254086 -8.93852 -30.6673
vn -0.851879 0.133168 -0.506526
v -0.291274 -8.93107 -30.5949
vn -0.89652 0.142113 -0.419591
v -0.321269 -8.92476 -30.5191
vn -0.932526 0.14969 -0.328614
v -0.343783 -8.91965 -30.4407
vn -0.959552 0.155826 -0.234474
v -0.358599 -8.91579 -30.3604
vn -0.977337 0.160461 -0.138075
v -0.365573 -8.91321 -30.279
vn -0.98571 0.16355 -0.0403459
v -0.36464 -8.91195 -30.1973
vn -0.984589 0.165064 0.0577714
v -0.355808 -8.91201 -30.116
vn -0.973987 0.164989 0.155332
v -0.339162 -8.9134 -30.036
vn -0.954004 0.163325 0.251397
v -0.314862 -8.9161 -29.958
vn -0.924834 0.160088 0.345041
v -0.283142 -8.92008 -29.8827
vn -0.886758 0.155309 0.435362
v -0.244308 -8.92531 -29.811
vn -0.840141 0.149034 0.52149
v -0.198734 -8.93173 -29.7434
vn -0.785433 0.141324 0.602596
v -0.146859 -8.93928 -29.6807
vn -0.723161 0.132253 0.677899
v -0.0891816 -8.9479 -29.6234
vn -0.653925 0.121909 0.746673
v -0.0262584 -8.9575 -29.5721
vn -0.578391 0.11039 0.808256
v 0.0413051 -8.96798 -29.5273
vn -0.497287 0.0978083 0.862055
v 0.112858 -8.97924 -29.4894
vn -0.411394 0.0842846 0.907552
v 0.187712 -8.99119 -29.4587
vn -0.321538 0.0699492 0.944309
v 0.265145 -9.00369 -29.4357
vn -0.228587 0.0549401 0.971972
v 0.344412 -9.01663 -29.4204
vn -0.133433 0.039402 0.990274
v 0.42475 -9.02989 -29.4131
vn -0.0369949 0.0234843 0.999039
v 0.505384 -9.04334 -29.4139
vn 0.0597996 0.00734057 0.998183
v 0.585538 -9.05685 -29.4226
vn 0.156018 -0.00887391 0.987714
v 0.664441 -9.07029 -29.4392
vn 0.250734 -0.0250029 0.967733
v 0.741333 -9.08352 -29.4636
vn 0.343036 -0.0408912 0.938432
v 0.815472 -9.09643 -29.4956
vn 0.432034 -0.0563856 0.900093
v 0.886145 -9.10888 -29.5347
vn 0.516871 -0.071337 0.853086
v 0.952672 -9.12077 -29.5807
vn 0.59673 -0.0856014 0.797863
v 1.01441 -9.13196 -29.6331
vn 0.670843 -0.0990413 0.734956
v 1.07077 -9.14236 -29.6914
vn 0.738495 -0.111528 0.664972
v 1.1212 -9.15187 -29.7551
vn 0.799034 -0.12294 0.588583
v 1.16522 -9.16039 -29.8234
vn 0.851879 -0.133168 0.506526
v 1.20241 -9.16784 -29.8958
vn 0.89652 -0.142113 0.419591
v 1.23241 -9.17416 -29.9716
vn 0.932526 -0.14969 0.328614
v 1.25492 -9.17927 -30.0501
vn 0.959552 -0.155826 0.234474
v 1.26973 -9.18313 -30.1304
vn 0.977337 -0.160461 0.138075
v 1.27671 -9.1857 -30.2118
vn 0.98571 -0.16355 0.0403459
v 1.27578 -9.18696 -30.2935
vn 0.984589 -0.165064 -0.0577714
v 1.26694 -9.1869 -30.3748
vn 0.973987 -0.164989 -0.155332
v 1.2503 -9.18551 -30.4548
vn 0.954004 -0.163325 -0.251397
v 1.226 -9.18282 -30.5328
vn 0.924834 -0.160088 -0.345041
v 1.19428 -9.17884 -30.6081
vn 0.886758 -0.155309 -0.435362
v 1.15544 -9.17361 -30.6798
vn 0.840141 -0.149034 -0.52149
v 1.10987 -9.16719 -30.7474
vn 0.785433 -0.141324 -0.602596
v 1.05799 -9.15963 -30.8101
vn 0.723161 -0.132253 -0.677899
v 1.00032 -9.15101 -30.8674
vn 0.653925 -0.121909 -0.746673
v 0.937394 -9.14142 -30.9187
vn 0.578391 -0.11039 -0.808256
v 0.869831 -9.13094 -30.9635
vn 0.497287 -0.0978083 -0.862055
v 0.798278 -9.11967 -31.0014
vn 0.411394 -0.0842846 -0.907552
v 0.723424 -9.10773 -31.032
vn 0.321538 -0.0699492 -0.944309
v 0.645991 -9.09522 -31.0551
vn 0.228587 -0.0549401 -0.971972
v 0.566724 -9.08228 -31.0703
vn 0.133433 -0.039402 -0.990274
v 0.486387 -9.06902 -31.0776
vn 0.0369949 -0.0234843 -0.999039
v 0.405752 -9.05557 -31.0769
vn -0.0597996 -0.00734057 -0.998183
f 1 66 2 
f 1 65 66 
f 2 67 3 
f 2 66 67 
f 3 68 4 
f 3 67 68 
f 4 69 5 
f 4 68 69 
f 5 70 6 
f 5 69 70 
f 6 71 7 
f 6 70 71 
f 7 72 8 
f 7 71 72 
f 8 73 9 
f 8 72 73 
f 9 74 10 
f 9 73 74 
f 10 75 11 
f 10 74 75 
f 11 76 12 
f 11 75 76 
f 12 77 13 
f 12 76 77 
f 13 78 14 
f 13 77 78 
f 14 79 15 
f 14 78 79 
f 15 80 16 
f 15 79 80 
f 16 81 17 
f 16 80 81 
f 17 82 18 
f 17 81 82 
f 18 83 19 
f 18 82 83 
f 19 84 20 
f 19 83 84 
f 20 85 21 
f 20 84 85 
f 21 86 22 
f 21 85 86 
f 22 87 23 
f 22 86 87 
f 23 88 24 
f 23 87 88 
f 24 89 25 
f 24 88 89 
f 25 90 26 
f 25 89 90 
f 26 91 27 
f 26 90 91 
f 27 92 28 
f 27 91 92 
f 28 93 29 
f 28 92 93 
f 29 94 30 
f 29 93 94 
f 30 95 31 
f 30 94 95 
f 31 96 32 
f 31 95 96 
f 32 97 33 
f 32 96 97 
f 33 98 34 
f 33 97 98 
f 34 99 35 
f 34 98 99 
f 35 100 36 
f 35 99 100 
f 36 101 37 
f 36 100 101 
f 37 102 38 
f 37 101 102 
f 38 103 39 
f 38 102 103 
f 39 104 40 
f 39 103 104 
f 40 105 41 
f 40 104 105 
f 41 106 42 
f 41 105 106 
f 42 107 43 
f 42 106 107 
f 43 108 44 
f 43 107 108 
f 44 109 45 
f 44 108 109 
f 45 110 46 
f 45 109 110 
f 46 111 47 
f 46 110 111 
f 47 112 48 
f 47 111 112 
f 48 113 49 
f 48 112 113 
f 49 114 50 
f 49 113 114 
f 50 115 51 
f 50 114 115 
f 51 116 52 
f 51 115 116 
f 52 117 53 
f 52 116 117 
f 53 118 54 
f 53 117 118 
f 54 119 55 
f 54 118 119 
f 55 120 56 
f 55 119 120 
f 56 121 57 
f 56 120 121 
f 57 122 58 
f 57 121 122 
f 58 123 59 
f 58 122 123 
f 59 124 60 
f 59 123 124 
f 60 125 61 
f 60 124 125 
f 61 126 62 
f 61 125 126 
f 62 127 63 
f 62 126 127 
f 63 128 64 
f 63 127 128 
f 64 65 1 
f 64 128 65 
f 65 130 66 
f 65 129 130 
f 66 131 67 
f 66 130 131 
f 67 132 68 
f 67 131 132 
f 68 133 69 
f 68 132 133 
f 69 134 70 
f 69 133 134 
f 70 135 71 
f 70 134 135 
f 71 136 72 
f 71 135 136 
f 72 137 73 
f 72 136 137 
f 73 138 74 
f 73 137 138 
f 74 139 75 
f 74 138 139 
f 75 140 76 
f 75 139 140 
f 76 141 77 
f 76 140 141 
f 77 142 78 
f 77 141 142 
f 78 143 79 
f 78 142 143 
f 79 144 80 
f 79 143 144 
f 80 145 81 
f 80 144 145 
f 81 146 82 
f 81 145 146 
f 82 147 83 
f 82 146 147 
f 83 148 84 
f 83 147 148 
f 84 149 85 
f 84 148 149 
f 85 150 86 
f 85 149 150 
f 86 151 87 
f 86 150 151 
f 87 152 88 
f 87 151 152 
f 88 153 89 
f 88 152 153 
f 89 154 90 
f 89 153 154 
f 90 155 91 
f 90 154 155 
f 91 156 92 
f 91 155 156 
f 92 157 93 
f 92 156 157 
f 93 158 94 
f 93 157 158 
f 94 159 95 
f 94 158 159 
f 95 160 96 
f 95 159 160 
f 96 161 97 
f 96 160 161 
f 97 162 98 
f 97 161 162 
f 98 163 99 
f 98 162 163 
f 99 164 100 
f 99 163 164 
f 100 165 101 
f 100 164 165 
f 101 166 102 
f 101 165 166 
f 102 167 103 
f 102 166 167 
f 103 168 104 
f 103 167 168 
f 104 169 105 
f 104 168 169 
f 105 170 106 
f 105 169 170 
f 106 171 107 
f 106 170 171 
f 107 172 108 
f 107 171 172 
f 108 173 109 
f 108 172 173 
f 109 174 110 
f 109 173 174 
f 110 175 111 
f 110 174 175 
f 111 176 112 
f 111 175 176 
f 112 177 113 
f 112 176 177 
f 113 178 114 
f 113 177 178 
f 114 179 115 
f 114 178 179 
f 115 180 116 
f 115 179 180 
f 116 181 117 
f 116 180 181 
f 117 182 118 
f 117 181 182 
f 118 183 119 
f 118 182 183 
f 119 184 120 
f 119 183 184 
f 120 185 121 
f 120 184 185 
f 121 186 122 
f 121 185 186 
f 122 187 123 
f 122 186 187 
f 123 188 124 
f 123 187 188 
f 124 189 125 
f 124 188 189 
f 125 190 126 
f 125 189 190 
f 126 191 127 
f 126 190 191 
f 127 192 128 
f 127 191 192 
f 128 129 65 
f 128 192 129 
f 129 194 130 
f 129 193 194 
f 130 195 131 
f 130 194 195 
f 131 196 132 
f 131 195 196 
f 132 197 133 
f 132 196 197 
f 133 198 134 
f 133 197 198 
f 134 199 135 
f 134 198 199 
f 135 200 136 
f 135 199 200 
f 136 201 137 
f 136 200 201 
f 137 202 138 
f 137 201 202 
f 138 203 139 
f 138 202 203 
f 139 204 140 
f 139 203 204 
f 140 205 141 
f 140 204 205 
f 141 206 142 
f 141 205 206 
f 142 207 143 
f 142 206 207 
f 143 208 144 
f 143 207 208 
f 144 209 145 
f 144 208 209 
f 145 210 146 
f 145 209 210 
f 146 211 147 
f 146 210 211 
f 147 212 148 
f 147 211 212 
f 148 213 149 
f 148 212 213 
f 149 214 150 
f 149 213 214 
f 150 215 151 
f 150 214 215 
f 151 216 152 
f 151 215 216 
f 152 217 153 
f 152 216 217 
f 153 218 154 
f 153 217 218 
f 154 219 155 
f 154 218 219 
f 155 220 156 
f 155 219 220 
f 156 221 157 
f 156 220 221 
f 157 222 158 
f 157 221 222 
f 158 223 159 
f 158 222 223 
f 159 224 160 
f 159 223 224 
f 160 225 161 
f 160 224 225 
f 161 226 162 
f 161 225 226 
f 162 227 163 
f 162 226 227 
f 163 228 164 
f 163 227 228 
f 164 229 165 
f 164 228 229 
f 165 230 166 
f 165 229 230 
f 166 231 167 
f 166 230 231 
f 167 232 168 
f 167 231 232 
f 168 233 169 
f 168 232 233 
f 169 234 170 
f 169 233 234 
f 170 235 171 
f 170 234 235 
f 171 236 172 
f 171 235 236 
f 172 237 173 
f 172 236 237 
f 173 238 174 
f 173 237 238 
f 174 239 175 
f 174 238 239 
f 175 240 176 
f 175 239 240 
f 176 241 177 
f 176 240 241 
f 177 242 178 
f 177 241 242 
f 178 243 179 
f 178 242 243 
f 179 244 180 
f 179 243 244 
f 180 245 181 
f 180 244 245 
f 181 246 182 
f 181 245 246 
f 182 247 183 
f 182 246 247 
f 183 248 184 
f 183 247 248 
f 184 249 185 
f 184 248 249 
f 185 250 186 
f 185 249 250 
f 186 251 187 
f 186 250 251 
f 187 252 188 
f 187 251 252 
f 188 253 189 
f 188 252 253 
f 189 254 190 
f 189 253 254 
f 190 255 191 
f 190 254 255 
f 191 256 192 
f 191 255 256 
f 192 193 129 
f 192 256 193 
f 193 258 194 
f 193 257 258 
f 194 259 195 
f 194 258 259 
f 195 260 196 
f 195 259 260 
f 196 261 197 
f 196 260 261 
f 197 262 198 
f 197 261 262 
f 198 263 199 
f 198 262 263 
f 199 264 200 
f 199 263 264 
f 200 265 201 
f 200 264 265 
f 201 266 202 
f 201 265 266 
f 202 267 203 
f 202 266 267 
f 203 268 204 
f 203 267 268 
f 204 269 205 
f 204 268 269 
f 205 270 206 
f 205 269 270 
f 206 271 207 
f 206 270 271 
f 207 272 208 
f 207 271 272 
f 208 273 209 
f 208 272 273 
f 209 274 210 
f 209 273 274 
f 210 275 211 
f 210 274 275 
f 211 276 212 
f 211 275 276 
f 212 277 213 
f 212 276 277 
f 213 278 214 
f 213 277 278 
f 214 279 215 
f 214 278 279 
f 215 280 216 
f 215 279 280 
f 216 281 217 
f 216 280 281 
f 217 282 218 
f 217 281 282 
f 218 283 219 
f 218 282 283 
f 219 284 220 
f 219 283 284 
f 220 285 221 
f 220 284 285 
f 221 286 222 
f 221 285 286 
f 222 287 223 
f 222 286 287 
f 223 288 224 
f 223 287 288 
f 224 289 225 
f 224 288 289 
f 225 290 226 
f 225 289 290 
f 226 291 227 
f 226 290 291 
f 227 292 228 
f 227 291 292 
f 228 293 229 
f 228 292 293 
f 229 294 230 
f 229 293 294 
f 230 295 231 
f 230 294 295 
f 231 296 232 
f 231 295 296 
f 232 297 233 
f 232 296 297 
f 233 298 234 
f 233 297 298 
f 234 299 235 
f 234 298 299 
f 235 300 236 
f 235 299 300 
f 236 301 237 
f 236 300 301 
f 237 302 238 
f 237 301 302 
f 238 303 239 
f 238 302 303 
f 239 304 240 
f 239 303 304 
f 240 305 241 
f 240 304 305 
f 241 306 242 
f 241 305 306 
f 242 307 243 
f 242 306 307 
f 243 308 244 
f 243 307 308 
f 244 309 245 
f 244 308 309 
f 245 310 246 
f 245 309 310 
f 246 311 247 
f 246 310 311 
f 247 312 248 
f 247 311 312 
f 248 313 249 
f 248 312 313 
f 249 314 250 
f 249 313 314 
f 250 315 251 
f 250 314 315 
f 251 316 252 
f 251 315 316 
f 252 317 253 
f 252 316 317 
f 253 318 254 
f 253 317 318 
f 254 319 255 
f 254 318 319 
f 255 320 256 
f 255 319 320 
f 256 257 193 
f 256 320 257 
f 257 322 258 
f 257 321 322 
f 258 323 259 
f 258 322 323 
f 259 324 260 
f 259 323 324 
f 260 325 261 
f 260 324 325 
f 261 326 262 
f 261 325 326 
f 262 327 263 
f 262 326 327 
f 263 328 264 
f 263 327 328 
f 264 329 265 
f 264 328 329 
f 265 330 266 
f 265 329 330 
f 266 331 267 
f 266 330 331 
f 267 332 268 
f 267 331 332 
f 268 333 269 
f 268 332 333 
f 269 334 270 
f 269 333 334 
f 270 335 271 
f 270 334 335 
f 271 336 272 
f 271 335 336 
f 272 337 273 
f 272 336 337 
f 273 338 274 
f 273 337 338 
f 274 339 275 
f 274 338 339 
f 275 340 276 
f 275 339 340 
f 276 341 277 
f 276 340 341 
f 277 342 278 
f 277 341 342 
f 278 343 279 
f 278 342 343 
f 279 344 280 
f 279 343 344 
f 280 345 281 
f 280 344 345 
f 281 346 282 
f 281 345 346 
f 282 347 283 
f 282 346 347 
f 283 348 284 
f 283 347 348 
f 284 349 285 
f 284 348 349 
f 285 350 286 
f 285 349 350 
f 286 351 287 
f 286 350 351 
f 287 352 288 
f 287 351 352 
f 288 353 289 
f 288 352 353 
f 289 354 290 
f 289 353 354 
f 290 355 291 
f 290 354 355 
f 291 356 292 
f 291 355 356 
f 292 357 293 
f 292 356 357 
f 293 358 294 
f 293 357 358 
f 294 359 295 
f 294 358 359 
f 295 360 296 
f 295 359 360 
f 296 361 297 
f 296 360 361 
f 297 362 298 
f 297 361 362 
f 298 363 299 
f 298 362 363 
f 299 364 300 
f 299 363 364 
f 300 365 301 
f 300 364 365 
f 301 366 302 
f 301 365 366 
f 302 367 303 
f 302 366 367 
f 303 368 304 
f 303 367 368 
f 304 369 305 
f 304 368 369 
f 305 370 306 
f 305 369 370 
f 306 371 307 
f 306 370 371 
f 307 372 308 
f 307 371 372 
f 308 373 309 
f 308 372 373 
f 309 374 310 
f 309 373 374 
f 310 375 311 
f 310 374 375 
f 311 376 312 
f 311 375 376 
f 312 377 313 
f 312 376 377 
f 313 378 314 
f 313 377 378 
f 314 379 315 
f 314 378 379 
f 315 380 316 
f 315 379 380 
f 316 381 317 
f 316 380 381 
f 317 382 318 
f 317 381 382 
f 318 383 319 
f 318 382 383 
f 319 384 320 
f 319 383 384 
f 320 321 257 
f 320 384 321 
f 321 386 322 
f 321 385 386 
f 322 387 323 
f 322 386 387 
f 323 388 324 
f 323 387 388 
f 324 389 325 
f 324 388 389 
f 325 390 326 
f 325 389 390 
f 326 391 327 
f 326 390 391 
f 327 392 328 
f 327 391 392 
f 328 393 329 
f 328 392 393 
f 329 394 330 
f 329 393 394 
f 330 395 331 
f 330 394 395 
f 331 396 332 
f 331 395 396 
f 332 397 333 
f 332 396 397 
f 333 398 334 
f 333 397 398 
f 334 399 335 
f 334 398 399 
f 335 400 336 
f 335 399 400 
f 336 401 337 
f 336 400 401 
f 337 402 338 
f 337 401 402 
f 338 403 339 
f 338 402 403 
f 339 404 340 
f 339 403 404 
f 340 405 341 
f 340 404 405 
f 341 406 342 
f 341 405 406 
f 342 407 343 
f 342 406 407 
f 343 408 344 
f 343 407 408 
f 344 409 345 
f 344 408 409 
f 345 410 346 
f 345 409 410 
f 346 411 347 
f 346 410 411 
f 347 412 348 
f 347 411 412 
f 348 413 349 
f 348 412 413 
f 349 414 350 
f 349 413 414 
f 350 415 351 
f 350 414 415 
f 351 416 352 
f 351 415 416 
f 352 417 353 
f 352 416 417 
f 353 418 354 
f 353 417 418 
f 354 419 355 
f 354 418 419 
f 355 420 356 
f 355 419 420 
f 356 421 357 
f 356 420 421 
f 357 422 358 
f 357 421 422 
f 358 423 359 
f 358 422 423 
f 359 424 360 
f 359 423 424 
f 360 425 361 
f 360 424 425 
f 361 426 362 
f 361 425 426 
f 362 427 363 
f 362 426 427 
f 363 428 364 
f 363 427 428 
f 364 429 365 
f 364 428 429 
f 365 430 366 
f 365 429 430 
f 366 431 367 
f 366 430 431 
f 367 432 368 
f 367 431 432 
f 368 433 369 
f 368 432 433 
f 369 434 370 
f 369 433 434 
f 370 435 371 
f 370 434 435 
f 371 436 372 
f 371 435 436 
f 372 437 373 
f 372 436 437 
f 373 438 374 
f 373 437 438 
f 374 439 375 
f 374 438 439 
f 375 440 376 
f 375 439 440 
f 376 441 377 
f 376 440 441 
f 377 442 378 
f 377 441 442 
f 378 443 379 
f 378 442 443 
f 379 444 380 
f 379 443 444 
f 380 445 381 
f 380 444 445 
f 381 446 382 
f 381 445 446 
f 382 447 383 
f 382 446 447 
f 383 448 384 
f 383 447 448 
f 384 385 321 
f 384 448 385 
f 385 450 386 
f 385 449 450 
f 386 451 387 
f 386 450 451 
f 387 452 388 
f 387 451 452 
f 388 453 389 
f 388 452 453 
f 389 454 390 
f 389 453 454 
f 390 455 391 
f 390 454 455 
f 391 456 392 
f 391 455 456 
f 392 457 393 
f 392 456 457 
f 393 458 394 
f 393 457 458 
f 394 459 395 
f 394 458 459 
f 395 460 396 
f 395 459 460 
f 396 461 397 
f 396 460 461 
f 397 462 398 
f 397 461 462 
f 398 463 399 
f 398 462 463 
f 399 464 400 
f 399 463 464 
f 400 465 401 
f 400 464 465 
f 401 466 402 
f 401 465 466 
f 402 467 403 
f 402 466 467 
f 403 468 404 
f 403 467 468 
f 404 469 405 
f 404 468 469 
f 405 470 406 
f 405 469 470 
f 406 471 407 
f 406 470 471 
f 407 472 408 
f 407 471 472 
f 408 473 409 
f 408 472 473 
f 409 474 410 
f 409 473 474 
f 410 475 411 
f 410 474 475 
f 411 476 412 
f 411 475 476 
f 412 477 413 
f 412 476 477 
f 413 478 414 
f 413 477 478 
f 414 479 415 
f 414 478 479 
f 415 480 416 
f 415 479 480 
f 416 481 417 
f 416 480 481 
f 417 482 418 
f 417 481 482 
f 418 483 419 
f 418 482 483 
f 419 484 420 
f 419 483 484 
f 420 485 421 
f 420 484 485 
f 421 486 422 
f 421 485 486 
f 422 487 423 
f 422 486 487 
f 423 488 424 
f 423 487 488 
f 424 489 425 
f 424 488 489 
f 425 490 426 
f 425 489 490 
f 426 491 427 
f 426 490 491 
f 427 492 428 
f 427 491 492 
f 428 493 429 
f 428 492 493 
f 429 494 430 
f 429 493 494 
f 430 495 431 
f 430 494 495 
f 431 496 432 
f 431 495 496 
f 432 497 433 
f 432 496 497 
f 433 498 434 
f 433 497 498 
f 434 499 435 
f 434 498 499 
f 435 500 436 
f 435 499 500 
f 436 501 437 
f 436 500 501 
f 437 502 438 
f 437 501 502 
f 438 503 439 
f 438 502 503 
f 439 504 440 
f 439 503 504 
f 440 505 441 
f 440 504 505 
f 441 506 442 
f 441 505 506 
f 442 507 443 
f 442 506 507 
f 443 508 444 
f 443 507 508 
f 444 509 445 
f 444 508 509 
f 445 510 446 
f 445 509 510 
f 446 511 447 
f 446 510 511 
f 447 512 448 
f 447 511 512 
f 448 449 385 
f 448 512 449 
f 449 514 450 
f 449 513 514 
f 450 515 451 
f 450 514 515 
f 451 516 452 
f 451 515 516 
f 452 517 453 
f 452 516 517 
f 453 518 454 
f 453 517 518 
f 454 519 455 
f 454 518 519 
f 455 520 456 
f 455 519 520 
f 456 521 457 
f 456 520 521 
f 457 522 458 
f 457 521 522 
f 458 523 459 
f 458 522 523 
f 459 524 460 
f 459 523 524 
f 460 525 461 
f 460 524 525 
f 461 526 462 
f 461 525 526 
f 462 527 463 
f 462 526 527 
f 463 528 464 
f 463 527 528 
f 464 529 465 
f 464 528 529 
f 465 530 466 
f 465 529 530 
f 466 531 467 
f 466 530 531 
f 467 532 468 
f 467 531 532 
f 468 533 469 
f 468 532 533 
f 469 534 470 
f 469 533 534 
f 470 535 471 
f 470 534 535 
f 471 536 472 
f 471 535 536 
f 472 537 473 
f 472 536 537 
f 473 538 474 
f 473 537 538 
f 474 539 475 
f 474 538 539 
f 475 540 476 
f 475 539 540 
f 476 541 477 
f 476 540 541 
f 477 542 478 
f 477 541 542 
f 478 543 479 
f 478 542 543 
f 479 544 480 
f 479 543 544 
f 480 545 481 
f 480 544 545 
f 481 546 482 
f 481 545 546 
f 482 547 483 
f 482 546 547 
f 483 548 484 
f 483 547 548 
f 484 549 485 
f 484 548 549 
f 485 550 486 
f 485 549 550 
f 486 551 487 
f 486 550 551 
f 487 552 488 
f 487 551 552 
f 488 553 489 
f 488 552 553 
f 489 554 490 
f 489 553 554 
f 490 555 491 
f 490 554 555 
f 491 556 492 
f 491 555 556 
f 492 557 493 
f 492 556 557 
f 493 558 494 
f 493 557 558 
f 494 559 495 
f 494 558 559 
f 495 560 496 
f 495 559 560 
f 496 561 497 
f 496 560 561 
f 497 562 498 
f 497 561 562 
f 498 563 499 
f 498 562 563 
f 499 564 500 
f 499 563 564 
f 500 565 501 
f 500 564 565 
f 501 566 502 
f 501 565 566 
f 502 567 503 
f 502 566 567 
f 503 568 504 
f 503 567 568 
f 504 569 505 
f 504 568 569 
f 505 570 506 
f 505 569 570 
f 506 571 507 
f 506 570 571 
f 507 572 508 
f 507 571 572 
f 508 573 509 
f 508 572 573 
f 509 574 510 
f 509 573 574 
f 510 575 511 
f 510 574 575 
f 511 576 512 
f 511 575 576 
f 512 513 449 
f 512 576 513 
f 513 578 514 
f 513 577 578 
f 514 579 515 
f 514 578 579 
f 515 580 516 
f 515 579 580 
f 516 581 517 
f 516 580 581 
f 517 582 518 
f 517 581 582 
f 518 583 519 
f 518 582 583 
f 519 584 520 
f 519 583 584 
f 520 585 521 
f 520 584 585 
f 521 586 522 
f 521 585 586 
f 522 587 523 
f 522 586 587 
f 523 588 524 
f 523 587 588 
f 524 589 525 
f 524 588 589 
f 525 590 526 
f 525 589 590 
f 526 591 527 
f 526 590 591 
f 527 592 528 
f 527 591 592 
f 528 593 529 
f 528 592 593 
f 529 594 530 
f 529 593 594 
f 530 595 531 
f 530 594 595 
f 531 596 532 
f 531 595 596 
f 532 597 533 
f 532 596 597 
f 533 598 534 
f 533 597 598 
f 534 599 535 
f 534 598 599 
f 535 600 536 
f 535 599 600 
f 536 601 537 
f 536 600 601 
f 537 602 538 
f 537 601 602 
f 538 603 539 
f 538 602 603 
f 539 604 540 
f 539 603 604 
f 540 605 541 
f 540 604 605 
f 541 606 542 
f 541 605 606 
f 542 607 543 
f 542 606 607 
f 543 608 544 
f 543 607 608 
f 544 609 545 
f 544 608 609 
f 545 610 546 
f 545 609 610 
f 546 611 547 
f 546 610 611 
f 547 612 548 
f 547 611 612 
f 548 613 549 
f 548 612 613 
f 549 614 550 
f 549 613 614 
f 550 615 551 
f 550 614 615 
f 551 616 552 
f 551 615 616 
f 552 617 553 
f 552 616 617 
f 553 618 554 
f 553 617 618 
f 554 619 555 
f 554 618 619 
f 555 620 556 
f 555 619 620 
f 556 621 557 
f 556 620 621 
f 557 622 558 
f 557 621 622 
f 558 623 559 
f 558 622 623 
f 559 624 560 
f 559 623 624 
f 560 625 561 
f 560 624 625 
f 561 626 562 
f 561 625 626 
f 562 627 563 
f 562 626 627 
f 563 628 564 
f 563 627 628 
f 564 629 565 
f 564 628 629 
f 565 630 566 
f 565 629 630 
f 566 631 567 
f 566 630 631 
f 567 632 568 
f 567 631 632 
f 568 633 569 
f 568 632 633 
f 569 634 570 
f 569 633 634 
f 570 635 571 
f 570 634 635 
f 571 636 572 
f 571 635 636 
f 572 637 573 
f 572 636 637 
f 573 638 574 
f 573 637 638 
f 574 639 575 
f 574 638 639 
f 575 640 576 
f 575 639 640 
f 576 577 513 
f 576 640 577 
