# Branch
v 1.16747 7.2876 -27.6706
vn -0.204927 0.508686 -0.836208
v 1.14561 7.27536 -27.6712
vn -0.290523 0.46075 -0.838633
v 1.12446 7.26199 -27.6698
vn -0.373322 0.408376 -0.832983
v 1.10423 7.24761 -27.6663
vn -0.452525 0.352069 -0.81931
v 1.08512 7.23236 -27.6608
vn -0.52737 0.292371 -0.797747
v 1.0673 7.2164 -27.6533
vn -0.597136 0.229858 -0.768501
v 1.05095 7.19986 -27.6439
vn -0.661152 0.165132 -0.731854
v 1.03623 7.18293 -27.6328
vn -0.7188 0.0988145 -0.688158
v 1.02328 7.16575 -27.6199
vn -0.769526 0.0315457 -0.637836
v 1.01222 7.14849 -27.6055
vn -0.812841 -0.0360268 -0.581371
v 1.00315 7.13132 -27.5897
vn -0.848328 -0.103252 -0.519306
v 0.996176 7.11441 -27.5725
vn -0.875645 -0.169484 -0.452241
v 0.991354 7.09791 -27.5543
vn -0.894529 -0.234082 -0.38082
v 0.988731 7.08199 -27.5351
vn -0.904798 -0.296427 -0.305732
v 0.988334 7.0668 -27.5152
vn -0.906353 -0.355917 -0.2277
v 0.990166 7.05248 -27.4947
vn -0.89918 -0.411979 -0.147474
v 0.994209 7.03918 -27.4738
vn -0.883347 -0.464074 -0.0658284
v 1.00043 7.02701 -27.4528
vn -0.859007 -0.511699 0.0164513
v 1.00875 7.01611 -27.4319
vn -0.826395 -0.554396 0.0985725
v 1.01912 7.00657 -27.4111
vn -0.785823 -0.591755 0.179744
v 1.03141 6.99848 -27.3908
vn -0.737684 -0.623414 0.259185
v 1.04552 6.99193 -27.3712
vn -0.682441 -0.64907 0.33613
v 1.0613 6.98697 -27.3524
vn -0.620625 -0.668474 0.409838
v 1.07862 6.98366 -27.3346
vn -0.552832 -0.681441 0.479598
v 1.09729 6.98203 -27.3179
vn -0.479715 -0.687845 0.54474
v 1.11714 6.98208 -27.3026
vn -0.401979 -0.687625 0.604636
v 1.13798 6.98383 -27.2888
vn -0.320371 -0.680783 0.658709
v 1.15961 6.98725 -27.2766
vn -0.235677 -0.667384 0.706438
v 1.18182 6.99232 -27.2662
vn -0.148714 -0.647558 0.747364
v 1.2044 6.99897 -27.2576
vn -0.0603192 -0.621496 0.781092
v 1.22712 7.00716 -27.2509
vn 0.0286569 -0.589448 0.807298
v 1.24977 7.01679 -27.2462
vn 0.117357 -0.551724 0.825729
v 1.27214 7.02778 -27.2435
vn 0.204927 -0.508686 0.836208
v 1.294 7.04002 -27.2429
vn 0.290523 -0.46075 0.838633
v 1.31514 7.0534 -27.2443
vn 0.373322 -0.408376 0.832983
v 1.33537 7.06778 -27.2478
vn 0.452525 -0.352069 0.81931
v 1.35448 7.08303 -27.2533
vn 0.52737 -0.292371 0.797747
v 1.3723 7.09899 -27.2608
vn 0.597136 -0.229858 0.768501
v 1.38865 7.11552 -27.2701
vn 0.661152 -0.165132 0.731854
v 1.40337 7.13246 -27.2813
vn 0.7188 -0.0988145 0.688158
v 1.41633 7.14964 -27.2941
vn 0.769526 -0.0315457 0.637836
v 1.42739 7.16689 -27.3086
vn 0.812841 0.0360268 0.581371
v 1.43645 7.18406 -27.3244
vn 0.848328 0.103252 0.519306
v 1.44343 7.20098 -27.3415
vn 0.875645 0.169484 0.452241
v 1.44825 7.21747 -27.3598
vn 0.894529 0.234082 0.38082
v 1.45087 7.2334 -27.379
vn 0.904798 0.296427 0.305732
v 1.45127 7.24859 -27.3989
vn 0.906353 0.355917 0.2277
v 1.44944 7.26291 -27.4194
vn 0.89918 0.411979 0.147474
v 1.4454 7.27621 -27.4402
vn 0.883347 0.464074 0.0658284
v 1.43918 7.28837 -27.4612
vn 0.859007 0.511699 -0.0164513
v 1.43085 7.29928 -27.4822
vn 0.826395 0.554396 -0.0985725
v 1.42049 7.30882 -27.5029
vn 0.785823 0.591755 -0.179744
v 1.4082 7.3169 -27.5232
vn 0.737684 0.623414 -0.259185
v 1.39409 7.32346 -27.5429
vn 0.682441 0.64907 -0.33613
v 1.3783 7.32841 -27.5617
vn 0.620625 0.668474 -0.409838
v 1.36099 7.33172 -27.5795
vn 0.552832 0.681441 -0.479598
v 1.34231 7.33336 -27.5962
vn 0.479715 0.687845 -0.54474
v 1.32246 7.3333 -27.6114
vn 0.401979 0.687625 -0.604636
v 1.30162 7.33155 -27.6253
vn 0.320371 0.680783 -0.658709
v 1.27999 7.32813 -27.6374
vn 0.235677 0.667384 -0.706438
v 1.25778 7.32307 -27.6479
vn 0.148714 0.647558 -0.747364
v 1.23521 7.31641 -27.6565
vn 0.0603192 0.621496 -0.781092
v 1.21248 7.30823 -27.6632
vn -0.0286569 0.589448 -0.807298
v 1.18983 7.29859 -27.6679
vn -0.117357 0.551724 -0.825729
v 1.53643 6.64592 -28.098
vn -0.160149 0.430816 -0.888116
v 1.51463 6.63384 -28.0986
vn -0.245961 0.383254 -0.890292
v 1.49343 6.62081 -28.097
vn -0.329404 0.332002 -0.883894
v 1.47303 6.60698 -28.0932
vn -0.409675 0.277552 -0.868983
v 1.45364 6.59246 -28.0872
vn -0.486001 0.220429 -0.845704
v 1.43543 6.57741 -28.0793
vn -0.557646 0.161183 -0.81428
v 1.4186 6.56196 -28.0693
vn -0.62392 0.100385 -0.775014
v 1.40328 6.54627 -28.0574
vn -0.684186 0.0386199 -0.728284
v 1.38964 6.53048 -28.0438
vn -0.737863 -0.0235169 -0.674541
v 1.37781 6.51475 -28.0285
vn -0.784434 -0.0854272 -0.614301
v 1.3679 6.49923 -28.0116
vn -0.82345 -0.146515 -0.548145
v 1.36 6.48407 -27.9935
vn -0.854536 -0.206191 -0.47671
v 1.35419 6.46941 -27.9742
vn -0.877393 -0.263882 -0.400685
v 1.35053 6.4554 -27.9539
vn -0.891799 -0.319032 -0.3208
v 1.34905 6.44216 -27.9328
vn -0.897617 -0.371109 -0.237826
v 1.34977 6.42984 -27.9111
vn -0.894791 -0.419612 -0.152562
v 1.35268 6.41854 -27.8891
vn -0.883347 -0.464074 -0.0658284
v 1.35775 6.40838 -27.8669
vn -0.863396 -0.504066 0.0215392
v 1.36493 6.39945 -27.8447
vn -0.83513 -0.539205 0.108699
v 1.37416 6.39184 -27.8229
vn -0.798822 -0.56915 0.194813
v 1.38534 6.38563 -27.8015
vn -0.75482 -0.593614 0.27905
v 1.39836 6.38086 -27.7807
vn -0.703549 -0.612362 0.3606
v 1.41311 6.3776 -27.7609
vn -0.645502 -0.625212 0.438677
v 1.42944 6.37586 -27.7421
vn -0.581239 -0.632041 0.512529
v 1.44719 6.37568 -27.7246
vn -0.511378 -0.632782 0.581445
v 1.46619 6.37704 -27.7085
vn -0.436593 -0.62743 0.644762
v 1.48626 6.37993 -27.694
vn -0.357602 -0.616036 0.701869
v 1.50721 6.38433 -27.6812
vn -0.275168 -0.598708 0.752217
v 1.52883 6.3902 -27.6703
vn -0.190084 -0.575615 0.795321
v 1.55091 6.39748 -27.6613
vn -0.103169 -0.546979 0.830765
v 1.57325 6.40609 -27.6543
vn -0.0152608 -0.513074 0.858209
v 1.59562 6.41596 -27.6494
vn 0.0727945 -0.474229 0.877387
v 1.61782 6.42699 -27.6467
vn 0.160149 -0.430816 0.888116
v 1.63962 6.43908 -27.6462
vn 0.245961 -0.383254 0.890292
v 1.66082 6.4521 -27.6478
vn 0.329404 -0.332002 0.883894
v 1.68122 6.46594 -27.6516
vn 0.409675 -0.277552 0.868983
v 1.70061 6.48045 -27.6575
vn 0.486001 -0.220429 0.845704
v 1.71881 6.4955 -27.6655
vn 0.557646 -0.161183 0.81428
v 1.73565 6.51095 -27.6754
vn 0.62392 -0.100385 0.775014
v 1.75097 6.52664 -27.6873
vn 0.684186 -0.0386199 0.728284
v 1.76461 6.54243 -27.701
vn 0.737863 0.0235169 0.674541
v 1.77644 6.55816 -27.7163
vn 0.784434 0.0854272 0.614301
v 1.78635 6.57368 -27.7331
vn 0.82345 0.146515 0.548145
v 1.79425 6.58885 -27.7512
vn 0.854536 0.206191 0.47671
v 1.80006 6.60351 -27.7706
vn 0.877393 0.263882 0.400685
v 1.80372 6.61752 -27.7909
vn 0.891799 0.319032 0.3208
v 1.8052 6.63075 -27.8119
vn 0.897617 0.371109 0.237826
v 1.80448 6.64307 -27.8336
vn 0.894791 0.419612 0.152562
v 1.80157 6.65437 -27.8556
vn 0.883347 0.464074 0.0658284
v 1.7965 6.66453 -27.8778
vn 0.863396 0.504066 -0.0215392
v 1.78932 6.67346 -27.9
vn 0.83513 0.539205 -0.108699
v 1.78009 6.68107 -27.9219
vn 0.798822 0.56915 -0.194813
v 1.76891 6.68729 -27.9433
vn 0.75482 0.593614 -0.27905
v 1.75589 6.69205 -27.964
vn 0.703549 0.612362 -0.3606
v 1.74114 6.69531 -27.9838
vn 0.645502 0.625212 -0.438677
v 1.72481 6.69705 -28.0026
vn 0.581239 0.632041 -0.512529
v 1.70706 6.69724 -28.0201
vn 0.511378 0.632782 -0.581445
v 1.68806 6.69588 -28.0362
vn 0.436593 0.62743 -0.644762
v 1.66799 6.69298 -28.0507
vn 0.357602 0.616036 -0.701869
v 1.64704 6.68858 -28.0635
vn 0.275168 0.598708 -0.752217
v 1.62542 6.68271 -28.0744
vn 0.190084 0.575615 -0.795321
v 1.60334 6.67544 -28.0835
vn 0.103169 0.546979 -0.830765
v 1.581 6.66682 -28.0904
vn 0.0152608 0.513074 -0.858209
v 1.55863 6.65695 -28.0953
vn -0.0727945 0.474229 -0.877387
v 1.90535 5.99073 -28.4295
vn -0.109375 0.340651 -0.933806
v 1.8836 5.97882 -28.43
vn -0.195432 0.293524 -0.935762
v 1.86232 5.96619 -28.4283
vn -0.279606 0.24357 -0.928706
v 1.84172 5.95297 -28.4242
vn -0.361088 0.19127 -0.912706
v 1.822 5.93928 -28.4179
vn -0.439092 0.137128 -0.887916
v 1.80335 5.92526 -28.4095
vn -0.512867 0.0816649 -0.854575
v 1.78595 5.91104 -28.399
vn -0.581704 0.0254157 -0.813004
v 1.76997 5.89676 -28.3865
vn -0.644938 -0.0310782 -0.763603
v 1.75555 5.88256 -28.3722
vn -0.701961 -0.0872728 -0.706848
v 1.74285 5.86856 -28.3561
vn -0.752224 -0.142627 -0.643286
v 1.73197 5.85492 -28.3385
vn -0.795242 -0.196607 -0.573529
v 1.72303 5.84175 -28.3194
vn -0.830602 -0.248695 -0.498249
v 1.71612 5.82919 -28.2992
vn -0.857962 -0.298387 -0.41817
v 1.71129 5.81735 -28.2779
vn -0.877061 -0.345205 -0.334063
v 1.7086 5.80636 -28.2559
vn -0.887712 -0.388699 -0.24674
v 1.70806 5.79631 -28.2332
vn -0.889814 -0.428449 -0.15704
v 1.7097 5.78731 -28.2101
vn -0.883347 -0.464074 -0.0658284
v 1.71348 5.77943 -28.1869
vn -0.868373 -0.495229 0.0260176
v 1.71938 5.77276 -28.1638
vn -0.845036 -0.521614 0.117613
v 1.72734 5.76736 -28.1409
vn -0.813561 -0.542977 0.208076
v 1.73728 5.76328 -28.1185
vn -0.77425 -0.55911 0.296535
v 1.7491 5.76056 -28.0969
vn -0.727483 -0.569858 0.382138
v 1.76269 5.75924 -28.0762
vn -0.673711 -0.575119 0.46406
v 1.77793 5.75931 -28.0566
vn -0.61345 -0.574841 0.541514
v 1.79465 5.76078 -28.0383
vn -0.547281 -0.569027 0.613753
v 1.81271 5.76363 -28.0216
vn -0.475841 -0.557732 0.680081
v 1.83193 5.76784 -28.0065
vn -0.399819 -0.541067 0.739859
v 1.85212 5.77337 -27.9932
vn -0.319947 -0.519191 0.792512
v 1.87309 5.78017 -27.9818
vn -0.236993 -0.492314 0.837533
v 1.89464 5.78816 -27.9724
vn -0.151756 -0.460697 0.874488
v 1.91655 5.79727 -27.9652
vn -0.0650587 -0.424642 0.903021
v 1.93863 5.80742 -27.9602
vn 0.0222655 -0.384498 0.922857
v 1.96065 5.81851 -27.9574
vn 0.109375 -0.340651 0.933806
v 1.9824 5.83042 -27.9569
vn 0.195432 -0.293524 0.935762
v 2.00368 5.84305 -27.9587
vn 0.279606 -0.24357 0.928706
v 2.02428 5.85627 -27.9628
vn 0.361088 -0.19127 0.912706
v 2.04399 5.86995 -27.969
vn 0.439092 -0.137128 0.887916
v 2.06264 5.88397 -27.9775
vn 0.512867 -0.0816649 0.854575
v 2.08004 5.89819 -27.988
vn 0.581704 -0.0254157 0.813004
v 2.09603 5.91247 -28.0005
vn 0.644938 0.0310782 0.763603
v 2.11044 5.92668 -28.0148
vn 0.701961 0.0872728 0.706848
v 2.12315 5.94067 -28.0309
vn 0.752224 0.142627 0.643286
v 2.13402 5.95432 -28.0485
vn 0.795242 0.196607 0.573529
v 2.14296 5.96748 -28.0675
vn 0.830602 0.248695 0.498249
v 2.14988 5.98005 -28.0878
vn 0.857962 0.298387 0.41817
v 2.15471 5.99188 -28.109
vn 0.877061 0.345205 0.334063
v 2.1574 6.00288 -28.1311
vn 0.887712 0.388699 0.24674
v 2.15793 6.01292 -28.1538
vn 0.889814 0.428449 0.15704
v 2.1563 6.02193 -28.1769
vn 0.883347 0.464074 0.0658284
v 2.15251 6.02981 -28.2001
vn 0.868373 0.495229 -0.0260176
v 2.14661 6.03648 -28.2232
vn 0.845036 0.521614 -0.117613
v 2.13866 6.04188 -28.2461
vn 0.813561 0.542977 -0.208076
v 2.12872 6.04595 -28.2685
vn 0.77425 0.55911 -0.296535
v 2.1169 6.04867 -28.2901
vn 0.727483 0.569858 -0.382138
v 2.1033 6.05 -28.3108
vn 0.673711 0.575119 -0.46406
v 2.08807 6.04993 -28.3304
vn 0.61345 0.574841 -0.541514
v 2.07134 6.04846 -28.3486
vn 0.547281 0.569027 -0.613753
v 2.05328 6.04561 -28.3654
vn 0.475841 0.557732 -0.680081
v 2.03407 6.04139 -28.3805
vn 0.399819 0.541067 -0.739859
v 2.01388 6.03586 -28.3938
vn 0.319947 0.519191 -0.792512
v 1.99291 6.02907 -28.4052
vn 0.236993 0.492314 -0.837533
v 1.97136 6.02108 -28.4146
vn 0.151756 0.460697 -0.874488
v 1.94944 6.01196 -28.4218
vn 0.0650587 0.424642 -0.903021
v 1.92737 6.00181 -28.4268
vn -0.0222655 0.384498 -0.922857
v 2.27391 5.32247 -28.6642
vn -0.053726 0.239766 -0.969343
v 2.2522 5.31074 -28.6646
vn -0.14005 0.193124 -0.971128
v 2.23083 5.29855 -28.6627
vn -0.225026 0.144623 -0.96356
v 2.21 5.286 -28.6585
vn -0.307835 0.0947281 -0.946712
v 2.18992 5.27322 -28.652
vn -0.387679 0.0439215 -0.920748
v 2.17078 5.26034 -28.6432
vn -0.463789 -0.00730822 -0.885915
v 2.15277 5.24747 -28.6323
vn -0.535433 -0.0584675 -0.842552
v 2.13605 5.23475 -28.6194
vn -0.60192 -0.109064 -0.791073
v 2.12078 5.22229 -28.6045
vn -0.662611 -0.15861 -0.731977
v 2.10712 5.21021 -28.5879
vn -0.71692 -0.206628 -0.665831
v 2.0952 5.19863 -28.5696
vn -0.764325 -0.252656 -0.593272
v 2.08513 5.18767 -28.5499
vn -0.804369 -0.296252 -0.515001
v 2.07701 5.17742 -28.529
vn -0.836666 -0.336994 -0.431769
v 2.07091 5.16799 -28.507
vn -0.860906 -0.374491 -0.344379
v 2.0669 5.15947 -28.4842
vn -0.876855 -0.408381 -0.253673
v 2.06502 5.15194 -28.4608
vn -0.88436 -0.438338 -0.160524
v 2.06527 5.14547 -28.437
vn -0.883347 -0.464074 -0.0658284
v 2.06766 5.14012 -28.413
vn -0.873828 -0.48534 0.0295008
v 2.07217 5.13594 -28.3891
vn -0.855892 -0.501933 0.124546
v 2.07876 5.13299 -28.3655
vn -0.829715 -0.513691 0.218392
v 2.08735 5.13127 -28.3424
vn -0.795546 -0.520503 0.310134
v 2.09787 5.13082 -28.3201
vn -0.753716 -0.522301 0.39889
v 2.11022 5.13163 -28.2987
vn -0.704628 -0.51907 0.483804
v 2.12427 5.1337 -28.2786
vn -0.648753 -0.51084 0.564059
v 2.13989 5.13701 -28.2597
vn -0.586631 -0.49769 0.638881
v 2.15693 5.14152 -28.2425
vn -0.518859 -0.479747 0.707551
v 2.17523 5.1472 -28.2269
vn -0.44609 -0.457184 0.769407
v 2.19462 5.15398 -28.2132
vn -0.369025 -0.430217 0.823853
v 2.21489 5.1618 -28.2015
vn -0.288406 -0.399108 0.870365
v 2.23586 5.17059 -28.1919
vn -0.20501 -0.364155 0.908494
v 2.25733 5.18027 -28.1846
vn -0.119639 -0.325695 0.937875
v 2.27909 5.19073 -28.1794
vn -0.0331158 -0.284099 0.958223
v 2.30093 5.20188 -28.1766
vn 0.053726 -0.239766 0.969343
v 2.32264 5.21361 -28.1762
vn 0.14005 -0.193124 0.971128
v 2.34401 5.2258 -28.1781
vn 0.225026 -0.144623 0.96356
v 2.36484 5.23835 -28.1823
vn 0.307835 -0.0947281 0.946712
v 2.38492 5.25113 -28.1889
vn 0.387679 -0.0439215 0.920748
v 2.40406 5.26401 -28.1976
vn 0.463789 0.00730822 0.885915
v 2.42208 5.27688 -28.2085
vn 0.535433 0.0584675 0.842552
v 2.4388 5.2896 -28.2215
vn 0.60192 0.109064 0.791073
v 2.45406 5.30206 -28.2363
vn 0.662611 0.15861 0.731977
v 2.46772 5.31414 -28.253
vn 0.71692 0.206628 0.665831
v 2.47964 5.32571 -28.2712
vn 0.764325 0.252656 0.593272
v 2.48971 5.33668 -28.2909
vn 0.804369 0.296252 0.515001
v 2.49783 5.34692 -28.3118
vn 0.836666 0.336994 0.431769
v 2.50393 5.35635 -28.3338
vn 0.860906 0.374491 0.344379
v 2.50794 5.36488 -28.3566
vn 0.876855 0.408381 0.253673
v 2.50983 5.37241 -28.38
vn 0.88436 0.438338 0.160524
v 2.50957 5.37888 -28.4039
vn 0.883347 0.464074 0.0658284
v 2.50718 5.38423 -28.4278
vn 0.873828 0.48534 -0.0295008
v 2.50267 5.38841 -28.4517
vn 0.855892 0.501933 -0.124546
v 2.49608 5.39136 -28.4753
vn 0.829715 0.513691 -0.218392
v 2.48749 5.39308 -28.4984
vn 0.795546 0.520503 -0.310134
v 2.47697 5.39353 -28.5207
vn 0.753716 0.522301 -0.39889
v 2.46463 5.39271 -28.5421
vn 0.704628 0.51907 -0.483804
v 2.45058 5.39065 -28.5623
vn 0.648753 0.51084 -0.564059
v 2.43495 5.38734 -28.5811
vn 0.586631 0.49769 -0.638881
v 2.41791 5.38283 -28.5984
vn 0.518859 0.479747 -0.707551
v 2.39961 5.37715 -28.6139
vn 0.44609 0.457184 -0.769407
v 2.38023 5.37037 -28.6276
vn 0.369025 0.430217 -0.823853
v 2.35995 5.36255 -28.6393
vn 0.288406 0.399108 -0.870365
v 2.33898 5.35376 -28.6489
vn 0.20501 0.364155 -0.908494
v 2.31751 5.34408 -28.6563
vn 0.119639 0.325695 -0.937875
v 2.29575 5.33362 -28.6614
vn 0.0331158 0.284099 -0.958223
v 2.6416 4.64202 -28.8012
vn 0.00479599 0.131487 -0.991306
v 2.61993 4.63049 -28.8016
vn -0.0818103 0.0853665 -0.992985
v 2.59846 4.61874 -28.7996
vn -0.167629 0.0384241 -0.985101
v 2.57739 4.6069 -28.7953
vn -0.251833 -0.00888843 -0.96773
v 2.55693 4.59509 -28.7886
vn -0.333611 -0.0561153 -0.941039
v 2.53727 4.58341 -28.7796
vn -0.412177 -0.102802 -0.905285
v 2.51861 4.57198 -28.7685
vn -0.486774 -0.148498 -0.860813
v 2.50112 4.5609 -28.7553
vn -0.556682 -0.192765 -0.808051
v 2.48497 4.55029 -28.7402
vn -0.621229 -0.235174 -0.747507
v 2.47032 4.54025 -28.7232
vn -0.679794 -0.275319 -0.679764
v 2.4573 4.53087 -28.7046
vn -0.731812 -0.312813 -0.605475
v 2.44605 4.52224 -28.6846
vn -0.776782 -0.347294 -0.525354
v 2.43667 4.51445 -28.6633
vn -0.814271 -0.37843 -0.440174
v 2.42926 4.50757 -28.6409
vn -0.843918 -0.405922 -0.350755
v 2.42387 4.50167 -28.6177
vn -0.865438 -0.429505 -0.257958
v 2.42057 4.49681 -28.5938
vn -0.878623 -0.448951 -0.162676
v 2.41939 4.49302 -28.5696
vn -0.883347 -0.464074 -0.0658284
v 2.42034 4.49036 -28.5452
vn -0.879564 -0.474727 0.0316536
v 2.4234 4.48883 -28.5209
vn -0.86731 -0.480809 0.128831
v 2.42856 4.48847 -28.4969
vn -0.846703 -0.48226 0.224767
v 2.43575 4.48927 -28.4734
vn -0.817942 -0.479066 0.318539
v 2.44492 4.49122 -28.4508
vn -0.781303 -0.471259 0.409243
v 2.45597 4.49431 -28.429
vn -0.737141 -0.458913 0.496006
v 2.4688 4.49851 -28.4085
vn -0.685879 -0.442148 0.577992
v 2.48327 4.50377 -28.3894
vn -0.628012 -0.421125 0.654412
v 2.49926 4.51004 -28.3719
vn -0.564097 -0.396046 0.724529
v 2.51661 4.51727 -28.3561
vn -0.494749 -0.367153 0.787669
v 2.53516 4.52538 -28.3422
vn -0.420637 -0.334724 0.843223
v 2.55471 4.5343 -28.3303
vn -0.342473 -0.299071 0.890656
v 2.57509 4.54394 -28.3206
vn -0.261012 -0.260539 0.929512
v 2.5961 4.55421 -28.3131
vn -0.177036 -0.219497 0.959416
v 2.61754 4.56501 -28.3079
vn -0.0913561 -0.176341 0.980081
v 2.6392 4.57623 -28.3051
vn -0.00479599 -0.131487 0.991306
v 2.66086 4.58777 -28.3047
vn 0.0818103 -0.0853665 0.992985
v 2.68233 4.59951 -28.3067
vn 0.167629 -0.0384241 0.985101
v 2.7034 4.61135 -28.311
vn 0.251833 0.00888843 0.96773
v 2.72386 4.62317 -28.3177
vn 0.333611 0.0561153 0.941039
v 2.74352 4.63485 -28.3266
vn 0.412177 0.102802 0.905285
v 2.76218 4.64628 -28.3378
vn 0.486774 0.148498 0.860813
v 2.77967 4.65736 -28.351
vn 0.556682 0.192765 0.808051
v 2.79582 4.66797 -28.3661
vn 0.621229 0.235174 0.747507
v 2.81047 4.67801 -28.3831
vn 0.679794 0.275319 0.679764
v 2.82349 4.68739 -28.4017
vn 0.731812 0.312813 0.605475
v 2.83474 4.69602 -28.4217
vn 0.776782 0.347294 0.525354
v 2.84412 4.70381 -28.443
vn 0.814271 0.37843 0.440174
v 2.85153 4.71069 -28.4654
vn 0.843918 0.405922 0.350755
v 2.85692 4.71659 -28.4886
vn 0.865438 0.429505 0.257958
v 2.86022 4.72145 -28.5124
vn 0.878623 0.448951 0.162676
v 2.8614 4.72523 -28.5367
vn 0.883347 0.464074 0.0658284
v 2.86045 4.7279 -28.5611
vn 0.879564 0.474727 -0.0316536
v 2.85739 4.72942 -28.5854
vn 0.86731 0.480809 -0.128831
v 2.85223 4.72978 -28.6094
vn 0.846703 0.48226 -0.224767
v 2.84504 4.72899 -28.6328
vn 0.817942 0.479066 -0.318539
v 2.83587 4.72703 -28.6555
vn 0.781303 0.471259 -0.409243
v 2.82482 4.72394 -28.6772
vn 0.737141 0.458913 -0.496006
v 2.812 4.71975 -28.6977
vn 0.685879 0.442148 -0.577992
v 2.79752 4.71449 -28.7169
vn 0.628012 0.421125 -0.654412
v 2.78153 4.70821 -28.7344
vn 0.564097 0.396046 -0.724529
v 2.76418 4.70099 -28.7502
vn 0.494749 0.367153 -0.787669
v 2.74563 4.69287 -28.7641
vn 0.420637 0.334724 -0.843223
v 2.72608 4.68395 -28.776
vn 0.342473 0.299071 -0.890656
v 2.7057 4.67431 -28.7857
vn 0.261012 0.260539 -0.929512
v 2.68469 4.66404 -28.7932
vn 0.177036 0.219497 -0.959416
v 2.66325 4.65325 -28.7983
vn 0.0913561 0.176341 -0.980081
v 3.00774 3.95059 -28.84
vn 0.0635687 0.0205314 -0.997766
v 2.98612 3.93924 -28.8404
vn -0.0233205 -0.0250546 -0.999414
v 2.96455 3.92796 -28.8384
vn -0.109985 -0.0703994 -0.991437
v 2.94324 3.91684 -28.8341
vn -0.195591 -0.115066 -0.973912
v 2.9224 3.906 -28.8274
vn -0.279312 -0.158625 -0.947007
v 2.90223 3.89554 -28.8184
vn -0.360344 -0.200656 -0.910983
v 2.88293 3.88556 -28.8072
vn -0.437906 -0.240754 -0.866185
v 2.86467 3.87615 -28.794
vn -0.51125 -0.278534 -0.813045
v 2.84764 3.86742 -28.7788
vn -0.579671 -0.313632 -0.752075
v 2.83201 3.85943 -28.7619
vn -0.642509 -0.345709 -0.683862
v 2.81791 3.85228 -28.7432
vn -0.699159 -0.374457 -0.609064
v 2.80548 3.84602 -28.7232
vn -0.749077 -0.399598 -0.528399
v 2.79485 3.84072 -28.7018
vn -0.79178 -0.420891 -0.442646
v 2.78612 3.83643 -28.6794
vn -0.826857 -0.438131 -0.35263
v 2.77937 3.83319 -28.6562
vn -0.853972 -0.451151 -0.259218
v 2.77467 3.83103 -28.6323
vn -0.872863 -0.459827 -0.16331
v 2.77206 3.82997 -28.608
vn -0.883347 -0.464074 -0.0658284
v 2.77157 3.83003 -28.5836
vn -0.885324 -0.463852 0.0322868
v 2.7732 3.8312 -28.5593
vn -0.878776 -0.459162 0.130091
v 2.77694 3.83346 -28.5352
vn -0.863764 -0.450051 0.226642
v 2.78274 3.83681 -28.5118
vn -0.840433 -0.436605 0.321011
v 2.79056 3.8412 -28.489
vn -0.809009 -0.418955 0.412288
v 2.80033 3.8466 -28.4673
vn -0.769793 -0.39727 0.499595
v 2.81193 3.85295 -28.4468
vn -0.723164 -0.371759 0.58209
v 2.82527 3.86019 -28.4276
vn -0.669571 -0.342668 0.65898
v 2.84021 3.86825 -28.4101
vn -0.609529 -0.310276 0.729523
v 2.85662 3.87706 -28.3943
vn -0.543617 -0.274897 0.79304
v 2.87433 3.88652 -28.3804
vn -0.47247 -0.23687 0.84892
v 2.89317 3.89656 -28.3685
vn -0.396772 -0.196562 0.896624
v 2.91296 3.90706 -28.3588
vn -0.317254 -0.154361 0.935694
v 2.93351 3.91793 -28.3513
vn -0.23468 -0.110673 0.965752
v 2.95462 3.92907 -28.3461
vn -0.149846 -0.0659198 0.986509
v 2.9761 3.94037 -28.3433
vn -0.0635687 -0.0205314 0.997766
v 2.99772 3.95171 -28.3429
vn 0.0233205 0.0250546 0.999414
v 3.01929 3.963 -28.3449
vn 0.109985 0.0703994 0.991437
v 3.0406 3.97412 -28.3493
vn 0.195591 0.115066 0.973912
v 3.06144 3.98496 -28.356
vn 0.279312 0.158625 0.947007
v 3.08161 3.99542 -28.3649
vn 0.360344 0.200656 0.910983
v 3.10091 4.0054 -28.3761
vn 0.437906 0.240754 0.866185
v 3.11917 4.0148 -28.3893
vn 0.51125 0.278534 0.813045
v 3.13619 4.02354 -28.4045
vn 0.579671 0.313632 0.752075
v 3.15183 4.03152 -28.4214
vn 0.642509 0.345709 0.683862
v 3.16593 4.03868 -28.4401
vn 0.699159 0.374457 0.609064
v 3.17836 4.04493 -28.4601
vn 0.749077 0.399598 0.528399
v 3.18899 4.05023 -28.4815
vn 0.79178 0.420891 0.442646
v 3.19772 4.05452 -28.5039
vn 0.826857 0.438131 0.35263
v 3.20447 4.05777 -28.5271
vn 0.853972 0.451151 0.259218
v 3.20917 4.05992 -28.551
vn 0.872863 0.459827 0.16331
v 3.21178 4.06098 -28.5753
vn 0.883347 0.464074 0.0658284
v 3.21227 4.06093 -28.5997
vn 0.885324 0.463852 -0.0322868
v 3.21064 4.05976 -28.624
vn 0.878776 0.459162 -0.130091
v 3.2069 4.05749 -28.6481
vn 0.863764 0.450051 -0.226642
v 3.2011 4.05415 -28.6716
vn 0.840433 0.436605 -0.321011
v 3.19327 4.04975 -28.6943
vn 0.809009 0.418955 -0.412288
v 3.18351 4.04435 -28.716
vn 0.769793 0.39727 -0.499595
v 3.17191 4.03801 -28.7365
vn 0.723164 0.371759 -0.58209
v 3.15857 4.03076 -28.7557
vn 0.669571 0.342668 -0.65898
v 3.14363 4.0227 -28.7732
vn 0.609529 0.310276 -0.729523
v 3.12722 4.0139 -28.789
vn 0.543617 0.274897 -0.79304
v 3.10951 4.00443 -28.8029
vn 0.47247 0.23687 -0.84892
v 3.09067 3.9944 -28.8148
vn 0.396772 0.196562 -0.896624
v 3.07088 3.9839 -28.8245
vn 0.317254 0.154361 -0.935694
v 3.05033 3.97302 -28.832
vn 0.23468 0.110673 -0.965752
v 3.02921 3.96188 -28.8372
vn 0.149846 0.0659198 -0.986509
v 3.37168 3.24945 -28.7808
vn 0.119894 -0.0879409 -0.988884
v 3.3501 3.23829 -28.7812
vn 0.0327332 -0.133005 -0.990575
v 3.32844 3.22745 -28.7793
vn -0.0547425 -0.176787 -0.982726
v 3.30691 3.21703 -28.775
vn -0.141691 -0.218868 -0.965412
v 3.28572 3.20714 -28.7684
vn -0.227275 -0.25884 -0.938801
v 3.26508 3.19786 -28.7596
vn -0.31067 -0.29632 -0.903149
v 3.24517 3.18928 -28.7486
vn -0.391073 -0.330946 -0.858799
v 3.22619 3.1815 -28.7356
vn -0.46771 -0.362384 -0.806179
v 3.20833 3.17458 -28.7206
vn -0.539843 -0.390333 -0.745794
v 3.19176 3.16859 -28.7039
vn -0.606777 -0.414523 -0.678228
v 3.17664 3.16359 -28.6855
vn -0.667867 -0.434721 -0.604129
v 3.1631 3.15963 -28.6658
vn -0.722525 -0.450732 -0.524212
v 3.15129 3.15674 -28.6447
vn -0.770225 -0.462402 -0.439247
v 3.14132 3.15495 -28.6226
vn -0.810507 -0.469619 -0.350052
v 3.13328 3.15428 -28.5997
vn -0.842984 -0.472313 -0.257485
v 3.12725 3.15474 -28.5762
vn -0.867342 -0.470459 -0.162439
v 3.12328 3.15632 -28.5523
vn -0.883347 -0.464074 -0.0658284
v 3.12143 3.15901 -28.5282
vn -0.890845 -0.453219 0.0314162
v 3.1217 3.16278 -28.5042
vn -0.889764 -0.438 0.128358
v 3.12409 3.16759 -28.4805
vn -0.880114 -0.418563 0.224064
v 3.12857 3.1734 -28.4573
vn -0.861988 -0.395095 0.317612
v 3.13512 3.18015 -28.4349
vn -0.83556 -0.367821 0.408101
v 3.14365 3.18778 -28.4135
vn -0.801086 -0.337006 0.49466
v 3.1541 3.19622 -28.3932
vn -0.758896 -0.302945 0.576455
v 3.16635 3.20537 -28.3744
vn -0.709398 -0.265966 0.652699
v 3.1803 3.21516 -28.357
vn -0.653069 -0.226426 0.722657
v 3.1958 3.22549 -28.3414
vn -0.590449 -0.184705 0.785655
v 3.21272 3.23626 -28.3277
vn -0.522144 -0.141206 0.841087
v 3.23087 3.24737 -28.316
vn -0.44881 -0.0963466 0.888418
v 3.2501 3.25871 -28.3064
vn -0.371153 -0.0505593 0.927194
v 3.27021 3.27016 -28.299
vn -0.289922 -0.00428518 0.957041
v 3.29102 3.28163 -28.2939
vn -0.205899 0.0420302 0.97767
v 3.31231 3.293 -28.2911
vn -0.119894 0.0879409 0.988884
v 3.33389 3.30416 -28.2907
vn -0.0327332 0.133005 0.990575
v 3.35555 3.315 -28.2927
vn 0.0547425 0.176787 0.982726
v 3.37708 3.32541 -28.2969
vn 0.141691 0.218868 0.965412
v 3.39827 3.33531 -28.3035
vn 0.227275 0.25884 0.938801
v 3.41891 3.34459 -28.3124
vn 0.31067 0.29632 0.903149
v 3.43882 3.35316 -28.3233
vn 0.391073 0.330946 0.858799
v 3.4578 3.36095 -28.3364
vn 0.46771 0.362384 0.806179
v 3.47566 3.36787 -28.3513
vn 0.539843 0.390333 0.745794
v 3.49223 3.37386 -28.368
vn 0.606777 0.414523 0.678228
v 3.50735 3.37886 -28.3864
vn 0.667867 0.434721 0.604129
v 3.52089 3.38282 -28.4062
vn 0.722525 0.450732 0.524212
v 3.5327 3.38571 -28.4272
vn 0.770225 0.462402 0.439247
v 3.54267 3.3875 -28.4493
vn 0.810507 0.469619 0.350052
v 3.55071 3.38817 -28.4722
vn 0.842984 0.472313 0.257485
v 3.55674 3.38771 -28.4958
vn 0.867342 0.470459 0.162439
v 3.5607 3.38613 -28.5197
vn 0.883347 0.464074 0.0658284
v 3.56256 3.38344 -28.5437
vn 0.890845 0.453219 -0.0314162
v 3.56229 3.37967 -28.5678
vn 0.889764 0.438 -0.128358
v 3.5599 3.37486 -28.5914
vn 0.880114 0.418563 -0.224064
v 3.55542 3.36905 -28.6146
vn 0.861988 0.395095 -0.317612
v 3.54887 3.36229 -28.637
vn 0.83556 0.367821 -0.408101
v 3.54034 3.35466 -28.6584
vn 0.801086 0.337006 -0.49466
v 3.52989 3.34623 -28.6787
vn 0.758896 0.302945 -0.576455
v 3.51764 3.33708 -28.6976
vn 0.709398 0.265966 -0.652699
v 3.50369 3.32729 -28.7149
vn 0.653069 0.226426 -0.722657
v 3.48819 3.31696 -28.7305
vn 0.590449 0.184705 -0.785655
v 3.47127 3.30619 -28.7442
vn 0.522144 0.141206 -0.841087
v 3.45312 3.29508 -28.7559
vn 0.44881 0.0963466 -0.888418
v 3.43389 3.28374 -28.7655
vn 0.371153 0.0505593 -0.927194
v 3.41378 3.27229 -28.7729
vn 0.289922 0.00428518 -0.957041
v 3.39297 3.26082 -28.778
vn 0.205899 -0.0420302 -0.97767
v 3.73288 2.5397 -28.6242
vn 0.171579 -0.189457 -0.966782
v 3.71135 2.52873 -28.6246
vn 0.0841696 -0.234032 -0.968579
v 3.68962 2.5183 -28.6228
vn -0.00405036 -0.276353 -0.961048
v 3.6679 2.50853 -28.6186
vn -0.0922313 -0.316013 -0.944261
v 3.6464 2.49952 -28.6123
vn -0.179524 -0.352629 -0.918381
v 3.62533 2.49133 -28.6037
vn -0.265088 -0.385849 -0.883657
v 3.60489 2.48407 -28.5931
vn -0.348099 -0.415353 -0.840422
v 3.58527 2.47779 -28.5804
vn -0.427757 -0.440858 -0.789093
v 3.56666 2.47255 -28.5659
vn -0.503296 -0.462116 -0.730166
v 3.54925 2.46841 -28.5497
vn -0.573988 -0.478924 -0.664206
v 3.5332 2.46541 -28.5318
vn -0.639152 -0.49112 -0.591849
v 3.51867 2.46357 -28.5126
vn -0.698161 -0.498586 -0.513793
v 3.50579 2.46291 -28.4922
vn -0.750446 -0.50125 -0.430789
v 3.49469 2.46344 -28.4707
vn -0.795504 -0.499087 -0.343636
v 3.48548 2.46516 -28.4484
vn -0.8329 -0.492118 -0.253173
v 3.47825 2.46805 -28.4256
vn -0.862276 -0.480409 -0.160273
v 3.47306 2.47207 -28.4023
vn -0.883347 -0.464074 -0.0658284
v 3.46996 2.47719 -28.3789
vn -0.895911 -0.443269 0.0292497
v 3.46899 2.48337 -28.3555
vn -0.899847 -0.418195 0.124046
v 3.47016 2.49054 -28.3325
vn -0.895117 -0.389094 0.217648
v 3.47345 2.49863 -28.3099
vn -0.881767 -0.356246 0.309154
v 3.47883 2.50756 -28.2881
vn -0.859924 -0.319967 0.397682
v 3.48625 2.51726 -28.2673
vn -0.8298 -0.280606 0.482381
v 3.49563 2.52762 -28.2476
vn -0.791685 -0.238544 0.562434
v 3.5069 2.53854 -28.2292
vn -0.745945 -0.194183 0.63707
v 3.51993 2.54993 -28.2123
vn -0.693022 -0.147953 0.705571
v 3.53461 2.56166 -28.1971
vn -0.633424 -0.100298 0.767277
v 3.55079 2.57364 -28.1837
vn -0.567726 -0.0516766 0.821594
v 3.56832 2.58574 -28.1723
vn -0.496561 -0.00255775 0.867998
v 3.58703 2.59784 -28.1629
vn -0.420613 0.0465857 0.906043
v 3.60673 2.60983 -28.1557
vn -0.340615 0.0952805 0.935363
v 3.62724 2.6216 -28.1507
vn -0.257336 0.143058 0.955674
v 3.64836 2.63303 -28.148
vn -0.171579 0.189457 0.966782
v 3.66989 2.64401 -28.1475
vn -0.0841696 0.234032 0.968579
v 3.69162 2.65443 -28.1494
vn 0.00405036 0.276353 0.961048
v 3.71334 2.6642 -28.1535
vn 0.0922313 0.316013 0.944261
v 3.73484 2.67322 -28.1599
vn 0.179524 0.352629 0.918381
v 3.75591 2.6814 -28.1684
vn 0.265088 0.385849 0.883657
v 3.77635 2.68867 -28.1791
vn 0.348099 0.415353 0.840422
v 3.79597 2.69495 -28.1917
vn 0.427757 0.440858 0.789093
v 3.81458 2.70018 -28.2062
vn 0.503296 0.462116 0.730166
v 3.83199 2.70432 -28.2225
vn 0.573988 0.478924 0.664206
v 3.84804 2.70733 -28.2403
vn 0.639152 0.49112 0.591849
v 3.86257 2.70917 -28.2595
vn 0.698161 0.498586 0.513793
v 3.87545 2.70982 -28.28
vn 0.750446 0.50125 0.430789
v 3.88655 2.70929 -28.3014
vn 0.795504 0.499087 0.343636
v 3.89576 2.70757 -28.3237
vn 0.8329 0.492118 0.253173
v 3.90299 2.70469 -28.3466
vn 0.862276 0.480409 0.160273
v 3.90818 2.70067 -28.3699
vn 0.883347 0.464074 0.0658284
v 3.91128 2.69554 -28.3933
vn 0.895911 0.443269 -0.0292497
v 3.91225 2.68937 -28.4166
vn 0.899847 0.418195 -0.124046
v 3.91108 2.6822 -28.4397
vn 0.895117 0.389094 -0.217648
v 3.90779 2.67411 -28.4622
vn 0.881767 0.356246 -0.309154
v 3.90241 2.66517 -28.484
vn 0.859924 0.319967 -0.397682
v 3.89499 2.65548 -28.5049
vn 0.8298 0.280606 -0.482381
v 3.88561 2.64512 -28.5246
vn 0.791685 0.238544 -0.562434
v 3.87434 2.63419 -28.543
vn 0.745945 0.194183 -0.63707
v 3.86131 2.62281 -28.5599
vn 0.693022 0.147953 -0.705571
v 3.84663 2.61107 -28.5751
vn 0.633424 0.100298 -0.767277
v 3.83045 2.59909 -28.5884
vn 0.567726 0.0516766 -0.821594
v 3.81292 2.587 -28.5999
vn 0.496561 0.00255775 -0.867998
v 3.79421 2.57489 -28.6092
vn 0.420613 -0.0465857 -0.906043
v 3.77451 2.5629 -28.6165
vn 0.340615 -0.0952805 -0.935363
v 3.754 2.55113 -28.6215
vn 0.257336 -0.143058 -0.955674
v 4.09103 1.82206 -28.371
vn 0.217293 -0.281012 -0.934781
v 4.06956 1.81125 -28.3715
vn 0.129664 -0.325146 -0.936732
v 4.04779 1.8012 -28.3697
vn 0.0407855 -0.366148 -0.929662
v 4.02592 1.79202 -28.3658
vn -0.0484855 -0.403625 -0.913639
v 4.00416 1.78379 -28.3597
vn -0.13729 -0.437214 -0.888817
v 3.98273 1.77659 -28.3516
vn -0.224771 -0.466593 -0.855435
v 3.96183 1.7705 -28.3414
vn -0.310089 -0.491478 -0.813815
v 3.94166 1.76556 -28.3293
vn -0.39242 -0.51163 -0.764357
v 3.92241 1.76183 -28.3153
vn -0.470971 -0.526855 -0.707538
v 3.90428 1.75934 -28.2997
vn -0.544987 -0.537006 -0.643905
v 3.88743 1.75812 -28.2826
vn -0.613755 -0.541985 -0.574071
v 3.87203 1.75818 -28.2642
vn -0.676611 -0.541745 -0.498708
v 3.85823 1.75952 -28.2445
vn -0.732952 -0.536287 -0.418543
v 3.84615 1.76212 -28.2239
vn -0.782234 -0.525664 -0.334347
v 3.83592 1.76596 -28.2025
vn -0.823982 -0.509979 -0.24693
v 3.82764 1.77101 -28.1805
vn -0.857795 -0.489383 -0.157136
v 3.82138 1.77721 -28.1581
vn -0.883347 -0.464074 -0.0658284
v 3.8172 1.78451 -28.1356
vn -0.900392 -0.434295 0.0261132
v 3.81515 1.79283 -28.1131
vn -0.908766 -0.400334 0.117803
v 3.81525 1.80209 -28.0909
vn -0.908387 -0.362517 0.208359
v 3.81748 1.81221 -28.0692
vn -0.899261 -0.32121 0.296908
v 3.82184 1.82309 -28.0483
vn -0.881474 -0.276809 0.382597
v 3.82828 1.83462 -28.0282
vn -0.855198 -0.229741 0.464602
v 3.83673 1.84669 -28.0092
vn -0.820686 -0.180462 0.542133
v 3.84712 1.85919 -27.9915
vn -0.77827 -0.129444 0.614442
v 3.85935 1.872 -27.9752
vn -0.728359 -0.0771803 0.680835
v 3.8733 1.88498 -27.9605
vn -0.671434 -0.0241729 0.74067
v 3.88883 1.89803 -27.9476
vn -0.608042 0.0290673 0.793372
v 3.90579 1.911 -27.9366
vn -0.538795 0.0820276 0.838434
v 3.92403 1.92378 -27.9275
vn -0.464359 0.134198 0.875421
v 3.94336 1.93625 -27.9205
vn -0.38545 0.185076 0.903977
v 3.9636 1.94828 -27.9157
vn -0.30283 0.234171 0.923828
v 3.98456 1.95975 -27.913
vn -0.217293 0.281012 0.934781
v 4.00603 1.97056 -27.9125
vn -0.129664 0.325146 0.936732
v 4.0278 1.98061 -27.9142
vn -0.0407855 0.366148 0.929662
v 4.04967 1.98979 -27.9182
vn 0.0484855 0.403625 0.913639
v 4.07143 1.99802 -27.9242
vn 0.13729 0.437214 0.888817
v 4.09286 2.00522 -27.9324
vn 0.224771 0.466593 0.855435
v 4.11377 2.01132 -27.9426
vn 0.310089 0.491478 0.813815
v 4.13394 2.01625 -27.9547
vn 0.39242 0.51163 0.764357
v 4.15318 2.01998 -27.9686
vn 0.470971 0.526855 0.707538
v 4.17132 2.02247 -27.9842
vn 0.544987 0.537006 0.643905
v 4.18816 2.02369 -28.0013
vn 0.613755 0.541985 0.574071
v 4.20356 2.02363 -28.0198
vn 0.676611 0.541745 0.498708
v 4.21737 2.02229 -28.0394
vn 0.732952 0.536287 0.418543
v 4.22944 2.01969 -28.0601
vn 0.782234 0.525664 0.334347
v 4.23967 2.01585 -28.0815
vn 0.823982 0.509979 0.24693
v 4.24795 2.0108 -28.1035
vn 0.857795 0.489383 0.157136
v 4.25421 2.0046 -28.1259
vn 0.883347 0.464074 0.0658284
v 4.25839 1.99731 -28.1484
vn 0.900392 0.434295 -0.0261132
v 4.26044 1.98899 -28.1708
vn 0.908766 0.400334 -0.117803
v 4.26035 1.97972 -28.193
vn 0.908387 0.362517 -0.208359
v 4.25811 1.9696 -28.2147
vn 0.899261 0.32121 -0.296908
v 4.25375 1.95872 -28.2357
vn 0.881474 0.276809 -0.382597
v 4.24732 1.94719 -28.2558
vn 0.855198 0.229741 -0.464602
v 4.23886 1.93512 -28.2748
vn 0.820686 0.180462 -0.542133
v 4.22847 1.92262 -28.2925
vn 0.77827 0.129444 -0.614442
v 4.21624 1.90981 -28.3088
vn 0.728359 0.0771803 -0.680835
v 4.20229 1.89683 -28.3234
vn 0.671434 0.0241729 -0.74067
v 4.18676 1.88378 -28.3364
vn 0.608042 -0.0290673 -0.793372
v 4.1698 1.87081 -28.3474
vn 0.538795 -0.0820276 -0.838434
v 4.15156 1.85803 -28.3565
vn 0.464359 -0.134198 -0.875421
v 4.13223 1.84556 -28.3635
vn 0.38545 -0.185076 -0.903977
v 4.11199 1.83353 -28.3683
vn 0.30283 -0.234171 -0.923828
v 4.44605 1.09681 -28.0222
vn 0.256589 -0.361244 -0.896474
v 4.42465 1.08615 -28.0227
vn 0.16877 -0.404991 -0.898609
v 4.40285 1.07644 -28.0211
vn 0.0793262 -0.444839 -0.892091
v 4.38087 1.06777 -28.0174
vn -0.0108819 -0.480402 -0.876981
v 4.35891 1.06023 -28.0117
vn -0.100985 -0.511339 -0.853425
v 4.33719 1.05389 -28.0039
vn -0.190116 -0.537351 -0.821651
v 4.31592 1.04881 -27.9943
vn -0.277415 -0.558189 -0.781963
v 4.29529 1.04504 -27.9827
vn -0.362044 -0.57365 -0.734745
v 4.27552 1.04262 -27.9695
vn -0.443185 -0.583587 -0.68045
v 4.25679 1.04157 -27.9547
vn -0.520058 -0.587904 -0.619603
v 4.23927 1.0419 -27.9384
vn -0.591923 -0.586559 -0.552788
v 4.22315 1.0436 -27.9208
vn -0.658087 -0.579566 -0.48065
v 4.20857 1.04667 -27.9021
vn -0.717914 -0.56699 -0.403883
v 4.19568 1.05106 -27.8825
vn -0.770827 -0.548954 -0.323226
v 4.18459 1.05675 -27.862
vn -0.816316 -0.525632 -0.239457
v 4.17542 1.06366 -27.8411
vn -0.853943 -0.497247 -0.153381
v 4.16825 1.07175 -27.8197
vn -0.883347 -0.464074 -0.0658284
v 4.16316 1.08092 -27.7982
vn -0.904244 -0.426431 0.0223584
v 4.16019 1.0911 -27.7768
vn -0.916432 -0.384682 0.11033
v 4.15937 1.10217 -27.7556
vn -0.919794 -0.339227 0.197239
v 4.16071 1.11405 -27.7349
vn -0.914299 -0.290506 0.282248
v 4.1642 1.1266 -27.7149
vn -0.899998 -0.238987 0.364539
v 4.16979 1.13972 -27.6957
vn -0.877029 -0.185167 0.44332
v 4.17745 1.15327 -27.6775
vn -0.845615 -0.129563 0.517831
v 4.18709 1.16712 -27.6606
vn -0.806057 -0.0727119 0.587355
v 4.19862 1.18115 -27.645
vn -0.758735 -0.0151602 0.651222
v 4.21193 1.19521 -27.631
vn -0.704107 0.0425375 0.708818
v 4.2269 1.20917 -27.6186
vn -0.642698 0.0998255 0.759588
v 4.24337 1.22289 -27.608
vn -0.5751 0.156152 0.803042
v 4.2612 1.23625 -27.5993
vn -0.501962 0.210975 0.838763
v 4.2802 1.24912 -27.5925
vn -0.423991 0.263766 0.866406
v 4.30019 1.26137 -27.5878
vn -0.341937 0.314017 0.885705
v 4.32099 1.27287 -27.5852
vn -0.256589 0.361244 0.896474
v 4.34239 1.28354 -27.5847
vn -0.16877 0.404991 0.898609
v 4.36419 1.29325 -27.5863
vn -0.0793262 0.444839 0.892091
v 4.38617 1.30191 -27.59
vn 0.0108819 0.480402 0.876981
v 4.40813 1.30945 -27.5957
vn 0.100985 0.511339 0.853425
v 4.42985 1.31579 -27.6035
vn 0.190116 0.537351 0.821651
v 4.45113 1.32087 -27.6131
vn 0.277415 0.558189 0.781963
v 4.47175 1.32464 -27.6246
vn 0.362044 0.57365 0.734745
v 4.49153 1.32706 -27.6379
vn 0.443185 0.583587 0.68045
v 4.51026 1.32811 -27.6527
vn 0.520058 0.587904 0.619603
v 4.52777 1.32778 -27.669
vn 0.591923 0.586559 0.552788
v 4.5439 1.32608 -27.6866
vn 0.658087 0.579566 0.48065
v 4.55848 1.32301 -27.7053
vn 0.717914 0.56699 0.403883
v 4.57137 1.31862 -27.7249
vn 0.770827 0.548954 0.323226
v 4.58246 1.31294 -27.7453
vn 0.816316 0.525632 0.239457
v 4.59163 1.30602 -27.7663
vn 0.853943 0.497247 0.153381
v 4.59879 1.29793 -27.7876
vn 0.883347 0.464074 0.0658284
v 4.60388 1.28876 -27.8091
vn 0.904244 0.426431 -0.0223584
v 4.60685 1.27859 -27.8306
vn 0.916432 0.384682 -0.11033
v 4.60767 1.26751 -27.8518
vn 0.919794 0.339227 -0.197239
v 4.60633 1.25564 -27.8725
vn 0.914299 0.290506 -0.282248
v 4.60285 1.24308 -27.8925
vn 0.899998 0.238987 -0.364539
v 4.59725 1.22997 -27.9117
vn 0.877029 0.185167 -0.44332
v 4.5896 1.21642 -27.9299
vn 0.845615 0.129563 -0.517831
v 4.57996 1.20256 -27.9468
vn 0.806057 0.0727119 -0.587355
v 4.56842 1.18854 -27.9624
vn 0.758735 0.0151602 -0.651222
v 4.55511 1.17447 -27.9764
vn 0.704107 -0.0425375 -0.708818
v 4.54015 1.16051 -27.9888
vn 0.642698 -0.0998255 -0.759588
v 4.52367 1.14679 -27.9994
vn 0.5751 -0.156152 -0.803042
v 4.50585 1.13343 -28.0081
vn 0.501962 -0.210975 -0.838763
v 4.48685 1.12056 -28.0148
vn 0.423991 -0.263766 -0.866406
v 4.46685 1.10832 -28.0195
vn 0.341937 -0.314017 -0.885705
f 1 66 2 
f 1 65 66 
f 2 67 3 
f 2 66 67 
f 3 68 4 
f 3 67 68 
f 4 69 5 
f 4 68 69 
f 5 70 6 
f 5 69 70 
f 6 71 7 
f 6 70 71 
f 7 72 8 
f 7 71 72 
f 8 73 9 
f 8 72 73 
f 9 74 10 
f 9 73 74 
f 10 75 11 
f 10 74 75 
f 11 76 12 
f 11 75 76 
f 12 77 13 
f 12 76 77 
f 13 78 14 
f 13 77 78 
f 14 79 15 
f 14 78 79 
f 15 80 16 
f 15 79 80 
f 16 81 17 
f 16 80 81 
f 17 82 18 
f 17 81 82 
f 18 83 19 
f 18 82 83 
f 19 84 20 
f 19 83 84 
f 20 85 21 
f 20 84 85 
f 21 86 22 
f 21 85 86 
f 22 87 23 
f 22 86 87 
f 23 88 24 
f 23 87 88 
f 24 89 25 
f 24 88 89 
f 25 90 26 
f 25 89 90 
f 26 91 27 
f 26 90 91 
f 27 92 28 
f 27 91 92 
f 28 93 29 
f 28 92 93 
f 29 94 30 
f 29 93 94 
f 30 95 31 
f 30 94 95 
f 31 96 32 
f 31 95 96 
f 32 97 33 
f 32 96 97 
f 33 98 34 
f 33 97 98 
f 34 99 35 
f 34 98 99 
f 35 100 36 
f 35 99 100 
f 36 101 37 
f 36 100 101 
f 37 102 38 
f 37 101 102 
f 38 103 39 
f 38 102 103 
f 39 104 40 
f 39 103 104 
f 40 105 41 
f 40 104 105 
f 41 106 42 
f 41 105 106 
f 42 107 43 
f 42 106 107 
f 43 108 44 
f 43 107 108 
f 44 109 45 
f 44 108 109 
f 45 110 46 
f 45 109 110 
f 46 111 47 
f 46 110 111 
f 47 112 48 
f 47 111 112 
f 48 113 49 
f 48 112 113 
f 49 114 50 
f 49 113 114 
f 50 115 51 
f 50 114 115 
f 51 116 52 
f 51 115 116 
f 52 117 53 
f 52 116 117 
f 53 118 54 
f 53 117 118 
f 54 119 55 
f 54 118 119 
f 55 120 56 
f 55 119 120 
f 56 121 57 
f 56 120 121 
f 57 122 58 
f 57 121 122 
f 58 123 59 
f 58 122 123 
f 59 124 60 
f 59 123 124 
f 60 125 61 
f 60 124 125 
f 61 126 62 
f 61 125 126 
f 62 127 63 
f 62 126 127 
f 63 128 64 
f 63 127 128 
f 64 65 1 
f 64 128 65 
f 65 130 66 
f 65 129 130 
f 66 131 67 
f 66 130 131 
f 67 132 68 
f 67 131 132 
f 68 133 69 
f 68 132 133 
f 69 134 70 
f 69 133 134 
f 70 135 71 
f 70 134 135 
f 71 136 72 
f 71 135 136 
f 72 137 73 
f 72 136 137 
f 73 138 74 
f 73 137 138 
f 74 139 75 
f 74 138 139 
f 75 140 76 
f 75 139 140 
f 76 141 77 
f 76 140 141 
f 77 142 78 
f 77 141 142 
f 78 143 79 
f 78 142 143 
f 79 144 80 
f 79 143 144 
f 80 145 81 
f 80 144 145 
f 81 146 82 
f 81 145 146 
f 82 147 83 
f 82 146 147 
f 83 148 84 
f 83 147 148 
f 84 149 85 
f 84 148 149 
f 85 150 86 
f 85 149 150 
f 86 151 87 
f 86 150 151 
f 87 152 88 
f 87 151 152 
f 88 153 89 
f 88 152 153 
f 89 154 90 
f 89 153 154 
f 90 155 91 
f 90 154 155 
f 91 156 92 
f 91 155 156 
f 92 157 93 
f 92 156 157 
f 93 158 94 
f 93 157 158 
f 94 159 95 
f 94 158 159 
f 95 160 96 
f 95 159 160 
f 96 161 97 
f 96 160 161 
f 97 162 98 
f 97 161 162 
f 98 163 99 
f 98 162 163 
f 99 164 100 
f 99 163 164 
f 100 165 101 
f 100 164 165 
f 101 166 102 
f 101 165 166 
f 102 167 103 
f 102 166 167 
f 103 168 104 
f 103 167 168 
f 104 169 105 
f 104 168 169 
f 105 170 106 
f 105 169 170 
f 106 171 107 
f 106 170 171 
f 107 172 108 
f 107 171 172 
f 108 173 109 
f 108 172 173 
f 109 174 110 
f 109 173 174 
f 110 175 111 
f 110 174 175 
f 111 176 112 
f 111 175 176 
f 112 177 113 
f 112 176 177 
f 113 178 114 
f 113 177 178 
f 114 179 115 
f 114 178 179 
f 115 180 116 
f 115 179 180 
f 116 181 117 
f 116 180 181 
f 117 182 118 
f 117 181 182 
f 118 183 119 
f 118 182 183 
f 119 184 120 
f 119 183 184 
f 120 185 121 
f 120 184 185 
f 121 186 122 
f 121 185 186 
f 122 187 123 
f 122 186 187 
f 123 188 124 
f 123 187 188 
f 124 189 125 
f 124 188 189 
f 125 190 126 
f 125 189 190 
f 126 191 127 
f 126 190 191 
f 127 192 128 
f 127 191 192 
f 128 129 65 
f 128 192 129 
f 129 194 130 
f 129 193 194 
f 130 195 131 
f 130 194 195 
f 131 196 132 
f 131 195 196 
f 132 197 133 
f 132 196 197 
f 133 198 134 
f 133 197 198 
f 134 199 135 
f 134 198 199 
f 135 200 136 
f 135 199 200 
f 136 201 137 
f 136 200 201 
f 137 202 138 
f 137 201 202 
f 138 203 139 
f 138 202 203 
f 139 204 140 
f 139 203 204 
f 140 205 141 
f 140 204 205 
f 141 206 142 
f 141 205 206 
f 142 207 143 
f 142 206 207 
f 143 208 144 
f 143 207 208 
f 144 209 145 
f 144 208 209 
f 145 210 146 
f 145 209 210 
f 146 211 147 
f 146 210 211 
f 147 212 148 
f 147 211 212 
f 148 213 149 
f 148 212 213 
f 149 214 150 
f 149 213 214 
f 150 215 151 
f 150 214 215 
f 151 216 152 
f 151 215 216 
f 152 217 153 
f 152 216 217 
f 153 218 154 
f 153 217 218 
f 154 219 155 
f 154 218 219 
f 155 220 156 
f 155 219 220 
f 156 221 157 
f 156 220 221 
f 157 222 158 
f 157 221 222 
f 158 223 159 
f 158 222 223 
f 159 224 160 
f 159 223 224 
f 160 225 161 
f 160 224 225 
f 161 226 162 
f 161 225 226 
f 162 227 163 
f 162 226 227 
f 163 228 164 
f 163 227 228 
f 164 229 165 
f 164 228 229 
f 165 230 166 
f 165 229 230 
f 166 231 167 
f 166 230 231 
f 167 232 168 
f 167 231 232 
f 168 233 169 
f 168 232 233 
f 169 234 170 
f 169 233 234 
f 170 235 171 
f 170 234 235 
f 171 236 172 
f 171 235 236 
f 172 237 173 
f 172 236 237 
f 173 238 174 
f 173 237 238 
f 174 239 175 
f 174 238 239 
f 175 240 176 
f 175 239 240 
f 176 241 177 
f 176 240 241 
f 177 242 178 
f 177 241 242 
f 178 243 179 
f 178 242 243 
f 179 244 180 
f 179 243 244 
f 180 245 181 
f 180 244 245 
f 181 246 182 
f 181 245 246 
f 182 247 183 
f 182 246 247 
f 183 248 184 
f 183 247 248 
f 184 249 185 
f 184 248 249 
f 185 250 186 
f 185 249 250 
f 186 251 187 
f 186 250 251 
f 187 252 188 
f 187 251 252 
f 188 253 189 
f 188 252 253 
f 189 254 190 
f 189 253 254 
f 190 255 191 
f 190 254 255 
f 191 256 192 
f 191 255 256 
f 192 193 129 
f 192 256 193 
f 193 258 194 
f 193 257 258 
f 194 259 195 
f 194 258 259 
f 195 260 196 
f 195 259 260 
f 196 261 197 
f 196 260 261 
f 197 262 198 
f 197 261 262 
f 198 263 199 
f 198 262 263 
f 199 264 200 
f 199 263 264 
f 200 265 201 
f 200 264 265 
f 201 266 202 
f 201 265 266 
f 202 267 203 
f 202 266 267 
f 203 268 204 
f 203 267 268 
f 204 269 205 
f 204 268 269 
f 205 270 206 
f 205 269 270 
f 206 271 207 
f 206 270 271 
f 207 272 208 
f 207 271 272 
f 208 273 209 
f 208 272 273 
f 209 274 210 
f 209 273 274 
f 210 275 211 
f 210 274 275 
f 211 276 212 
f 211 275 276 
f 212 277 213 
f 212 276 277 
f 213 278 214 
f 213 277 278 
f 214 279 215 
f 214 278 279 
f 215 280 216 
f 215 279 280 
f 216 281 217 
f 216 280 281 
f 217 282 218 
f 217 281 282 
f 218 283 219 
f 218 282 283 
f 219 284 220 
f 219 283 284 
f 220 285 221 
f 220 284 285 
f 221 286 222 
f 221 285 286 
f 222 287 223 
f 222 286 287 
f 223 288 224 
f 223 287 288 
f 224 289 225 
f 224 288 289 
f 225 290 226 
f 225 289 290 
f 226 291 227 
f 226 290 291 
f 227 292 228 
f 227 291 292 
f 228 293 229 
f 228 292 293 
f 229 294 230 
f 229 293 294 
f 230 295 231 
f 230 294 295 
f 231 296 232 
f 231 295 296 
f 232 297 233 
f 232 296 297 
f 233 298 234 
f 233 297 298 
f 234 299 235 
f 234 298 299 
f 235 300 236 
f 235 299 300 
f 236 301 237 
f 236 300 301 
f 237 302 238 
f 237 301 302 
f 238 303 239 
f 238 302 303 
f 239 304 240 
f 239 303 304 
f 240 305 241 
f 240 304 305 
f 241 306 242 
f 241 305 306 
f 242 307 243 
f 242 306 307 
f 243 308 244 
f 243 307 308 
f 244 309 245 
f 244 308 309 
f 245 310 246 
f 245 309 310 
f 246 311 247 
f 246 310 311 
f 247 312 248 
f 247 311 312 
f 248 313 249 
f 248 312 313 
f 249 314 250 
f 249 313 314 
f 250 315 251 
f 250 314 315 
f 251 316 252 
f 251 315 316 
f 252 317 253 
f 252 316 317 
f 253 318 254 
f 253 317 318 
f 254 319 255 
f 254 318 319 
f 255 320 256 
f 255 319 320 
f 256 257 193 
f 256 320 257 
f 257 322 258 
f 257 321 322 
f 258 323 259 
f 258 322 323 
f 259 324 260 
f 259 323 324 
f 260 325 261 
f 260 324 325 
f 261 326 262 
f 261 325 326 
f 262 327 263 
f 262 326 327 
f 263 328 264 
f 263 327 328 
f 264 329 265 
f 264 328 329 
f 265 330 266 
f 265 329 330 
f 266 331 267 
f 266 330 331 
f 267 332 268 
f 267 331 332 
f 268 333 269 
f 268 332 333 
f 269 334 270 
f 269 333 334 
f 270 335 271 
f 270 334 335 
f 271 336 272 
f 271 335 336 
f 272 337 273 
f 272 336 337 
f 273 338 274 
f 273 337 338 
f 274 339 275 
f 274 338 339 
f 275 340 276 
f 275 339 340 
f 276 341 277 
f 276 340 341 
f 277 342 278 
f 277 341 342 
f 278 343 279 
f 278 342 343 
f 279 344 280 
f 279 343 344 
f 280 345 281 
f 280 344 345 
f 281 346 282 
f 281 345 346 
f 282 347 283 
f 282 346 347 
f 283 348 284 
f 283 347 348 
f 284 349 285 
f 284 348 349 
f 285 350 286 
f 285 349 350 
f 286 351 287 
f 286 350 351 
f 287 352 288 
f 287 351 352 
f 288 353 289 
f 288 352 353 
f 289 354 290 
f 289 353 354 
f 290 355 291 
f 290 354 355 
f 291 356 292 
f 291 355 356 
f 292 357 293 
f 292 356 357 
f 293 358 294 
f 293 357 358 
f 294 359 295 
f 294 358 359 
f 295 360 296 
f 295 359 360 
f 296 361 297 
f 296 360 361 
f 297 362 298 
f 297 361 362 
f 298 363 299 
f 298 362 363 
f 299 364 300 
f 299 363 364 
f 300 365 301 
f 300 364 365 
f 301 366 302 
f 301 365 366 
f 302 367 303 
f 302 366 367 
f 303 368 304 
f 303 367 368 
f 304 369 305 
f 304 368 369 
f 305 370 306 
f 305 369 370 
f 306 371 307 
f 306 370 371 
f 307 372 308 
f 307 371 372 
f 308 373 309 
f 308 372 373 
f 309 374 310 
f 309 373 374 
f 310 375 311 
f 310 374 375 
f 311 376 312 
f 311 375 376 
f 312 377 313 
f 312 376 377 
f 313 378 314 
f 313 377 378 
f 314 379 315 
f 314 378 379 
f 315 380 316 
f 315 379 380 
f 316 381 317 
f 316 380 381 
f 317 382 318 
f 317 381 382 
f 318 383 319 
f 318 382 383 
f 319 384 320 
f 319 383 384 
f 320 321 257 
f 320 384 321 
f 321 386 322 
f 321 385 386 
f 322 387 323 
f 322 386 387 
f 323 388 324 
f 323 387 388 
f 324 389 325 
f 324 388 389 
f 325 390 326 
f 325 389 390 
f 326 391 327 
f 326 390 391 
f 327 392 328 
f 327 391 392 
f 328 393 329 
f 328 392 393 
f 329 394 330 
f 329 393 394 
f 330 395 331 
f 330 394 395 
f 331 396 332 
f 331 395 396 
f 332 397 333 
f 332 396 397 
f 333 398 334 
f 333 397 398 
f 334 399 335 
f 334 398 399 
f 335 400 336 
f 335 399 400 
f 336 401 337 
f 336 400 401 
f 337 402 338 
f 337 401 402 
f 338 403 339 
f 338 402 403 
f 339 404 340 
f 339 403 404 
f 340 405 341 
f 340 404 405 
f 341 406 342 
f 341 405 406 
f 342 407 343 
f 342 406 407 
f 343 408 344 
f 343 407 408 
f 344 409 345 
f 344 408 409 
f 345 410 346 
f 345 409 410 
f 346 411 347 
f 346 410 411 
f 347 412 348 
f 347 411 412 
f 348 413 349 
f 348 412 413 
f 349 414 350 
f 349 413 414 
f 350 415 351 
f 350 414 415 
f 351 416 352 
f 351 415 416 
f 352 417 353 
f 352 416 417 
f 353 418 354 
f 353 417 418 
f 354 419 355 
f 354 418 419 
f 355 420 356 
f 355 419 420 
f 356 421 357 
f 356 420 421 
f 357 422 358 
f 357 421 422 
f 358 423 359 
f 358 422 423 
f 359 424 360 
f 359 423 424 
f 360 425 361 
f 360 424 425 
f 361 426 362 
f 361 425 426 
f 362 427 363 
f 362 426 427 
f 363 428 364 
f 363 427 428 
f 364 429 365 
f 364 428 429 
f 365 430 366 
f 365 429 430 
f 366 431 367 
f 366 430 431 
f 367 432 368 
f 367 431 432 
f 368 433 369 
f 368 432 433 
f 369 434 370 
f 369 433 434 
f 370 435 371 
f 370 434 435 
f 371 436 372 
f 371 435 436 
f 372 437 373 
f 372 436 437 
f 373 438 374 
f 373 437 438 
f 374 439 375 
f 374 438 439 
f 375 440 376 
f 375 439 440 
f 376 441 377 
f 376 440 441 
f 377 442 378 
f 377 441 442 
f 378 443 379 
f 378 442 443 
f 379 444 380 
f 379 443 444 
f 380 445 381 
f 380 444 445 
f 381 446 382 
f 381 445 446 
f 382 447 383 
f 382 446 447 
f 383 448 384 
f 383 447 448 
f 384 385 321 
f 384 448 385 
f 385 450 386 
f 385 449 450 
f 386 451 387 
f 386 450 451 
f 387 452 388 
f 387 451 452 
f 388 453 389 
f 388 452 453 
f 389 454 390 
f 389 453 454 
f 390 455 391 
f 390 454 455 
f 391 456 392 
f 391 455 456 
f 392 457 393 
f 392 456 457 
f 393 458 394 
f 393 457 458 
f 394 459 395 
f 394 458 459 
f 395 460 396 
f 395 459 460 
f 396 461 397 
f 396 460 461 
f 397 462 398 
f 397 461 462 
f 398 463 399 
f 398 462 463 
f 399 464 400 
f 399 463 464 
f 400 465 401 
f 400 464 465 
f 401 466 402 
f 401 465 466 
f 402 467 403 
f 402 466 467 
f 403 468 404 
f 403 467 468 
f 404 469 405 
f 404 468 469 
f 405 470 406 
f 405 469 470 
f 406 471 407 
f 406 470 471 
f 407 472 408 
f 407 471 472 
f 408 473 409 
f 408 472 473 
f 409 474 410 
f 409 473 474 
f 410 475 411 
f 410 474 475 
f 411 476 412 
f 411 475 476 
f 412 477 413 
f 412 476 477 
f 413 478 414 
f 413 477 478 
f 414 479 415 
f 414 478 479 
f 415 480 416 
f 415 479 480 
f 416 481 417 
f 416 480 481 
f 417 482 418 
f 417 481 482 
f 418 483 419 
f 418 482 483 
f 419 484 420 
f 419 483 484 
f 420 485 421 
f 420 484 485 
f 421 486 422 
f 421 485 486 
f 422 487 423 
f 422 486 487 
f 423 488 424 
f 423 487 488 
f 424 489 425 
f 424 488 489 
f 425 490 426 
f 425 489 490 
f 426 491 427 
f 426 490 491 
f 427 492 428 
f 427 491 492 
f 428 493 429 
f 428 492 493 
f 429 494 430 
f 429 493 494 
f 430 495 431 
f 430 494 495 
f 431 496 432 
f 431 495 496 
f 432 497 433 
f 432 496 497 
f 433 498 434 
f 433 497 498 
f 434 499 435 
f 434 498 499 
f 435 500 436 
f 435 499 500 
f 436 501 437 
f 436 500 501 
f 437 502 438 
f 437 501 502 
f 438 503 439 
f 438 502 503 
f 439 504 440 
f 439 503 504 
f 440 505 441 
f 440 504 505 
f 441 506 442 
f 441 505 506 
f 442 507 443 
f 442 506 507 
f 443 508 444 
f 443 507 508 
f 444 509 445 
f 444 508 509 
f 445 510 446 
f 445 509 510 
f 446 511 447 
f 446 510 511 
f 447 512 448 
f 447 511 512 
f 448 449 385 
f 448 512 449 
f 449 514 450 
f 449 513 514 
f 450 515 451 
f 450 514 515 
f 451 516 452 
f 451 515 516 
f 452 517 453 
f 452 516 517 
f 453 518 454 
f 453 517 518 
f 454 519 455 
f 454 518 519 
f 455 520 456 
f 455 519 520 
f 456 521 457 
f 456 520 521 
f 457 522 458 
f 457 521 522 
f 458 523 459 
f 458 522 523 
f 459 524 460 
f 459 523 524 
f 460 525 461 
f 460 524 525 
f 461 526 462 
f 461 525 526 
f 462 527 463 
f 462 526 527 
f 463 528 464 
f 463 527 528 
f 464 529 465 
f 464 528 529 
f 465 530 466 
f 465 529 530 
f 466 531 467 
f 466 530 531 
f 467 532 468 
f 467 531 532 
f 468 533 469 
f 468 532 533 
f 469 534 470 
f 469 533 534 
f 470 535 471 
f 470 534 535 
f 471 536 472 
f 471 535 536 
f 472 537 473 
f 472 536 537 
f 473 538 474 
f 473 537 538 
f 474 539 475 
f 474 538 539 
f 475 540 476 
f 475 539 540 
f 476 541 477 
f 476 540 541 
f 477 542 478 
f 477 541 542 
f 478 543 479 
f 478 542 543 
f 479 544 480 
f 479 543 544 
f 480 545 481 
f 480 544 545 
f 481 546 482 
f 481 545 546 
f 482 547 483 
f 482 546 547 
f 483 548 484 
f 483 547 548 
f 484 549 485 
f 484 548 549 
f 485 550 486 
f 485 549 550 
f 486 551 487 
f 486 550 551 
f 487 552 488 
f 487 551 552 
f 488 553 489 
f 488 552 553 
f 489 554 490 
f 489 553 554 
f 490 555 491 
f 490 554 555 
f 491 556 492 
f 491 555 556 
f 492 557 493 
f 492 556 557 
f 493 558 494 
f 493 557 558 
f 494 559 495 
f 494 558 559 
f 495 560 496 
f 495 559 560 
f 496 561 497 
f 496 560 561 
f 497 562 498 
f 497 561 562 
f 498 563 499 
f 498 562 563 
f 499 564 500 
f 499 563 564 
f 500 565 501 
f 500 564 565 
f 501 566 502 
f 501 565 566 
f 502 567 503 
f 502 566 567 
f 503 568 504 
f 503 567 568 
f 504 569 505 
f 504 568 569 
f 505 570 506 
f 505 569 570 
f 506 571 507 
f 506 570 571 
f 507 572 508 
f 507 571 572 
f 508 573 509 
f 508 572 573 
f 509 574 510 
f 509 573 574 
f 510 575 511 
f 510 574 575 
f 511 576 512 
f 511 575 576 
f 512 513 449 
f 512 576 513 
f 513 578 514 
f 513 577 578 
f 514 579 515 
f 514 578 579 
f 515 580 516 
f 515 579 580 
f 516 581 517 
f 516 580 581 
f 517 582 518 
f 517 581 582 
f 518 583 519 
f 518 582 583 
f 519 584 520 
f 519 583 584 
f 520 585 521 
f 520 584 585 
f 521 586 522 
f 521 585 586 
f 522 587 523 
f 522 586 587 
f 523 588 524 
f 523 587 588 
f 524 589 525 
f 524 588 589 
f 525 590 526 
f 525 589 590 
f 526 591 527 
f 526 590 591 
f 527 592 528 
f 527 591 592 
f 528 593 529 
f 528 592 593 
f 529 594 530 
f 529 593 594 
f 530 595 531 
f 530 594 595 
f 531 596 532 
f 531 595 596 
f 532 597 533 
f 532 596 597 
f 533 598 534 
f 533 597 598 
f 534 599 535 
f 534 598 599 
f 535 600 536 
f 535 599 600 
f 536 601 537 
f 536 600 601 
f 537 602 538 
f 537 601 602 
f 538 603 539 
f 538 602 603 
f 539 604 540 
f 539 603 604 
f 540 605 541 
f 540 604 605 
f 541 606 542 
f 541 605 606 
f 542 607 543 
f 542 606 607 
f 543 608 544 
f 543 607 608 
f 544 609 545 
f 544 608 609 
f 545 610 546 
f 545 609 610 
f 546 611 547 
f 546 610 611 
f 547 612 548 
f 547 611 612 
f 548 613 549 
f 548 612 613 
f 549 614 550 
f 549 613 614 
f 550 615 551 
f 550 614 615 
f 551 616 552 
f 551 615 616 
f 552 617 553 
f 552 616 617 
f 553 618 554 
f 553 617 618 
f 554 619 555 
f 554 618 619 
f 555 620 556 
f 555 619 620 
f 556 621 557 
f 556 620 621 
f 557 622 558 
f 557 621 622 
f 558 623 559 
f 558 622 623 
f 559 624 560 
f 559 623 624 
f 560 625 561 
f 560 624 625 
f 561 626 562 
f 561 625 626 
f 562 627 563 
f 562 626 627 
f 563 628 564 
f 563 627 628 
f 564 629 565 
f 564 628 629 
f 565 630 566 
f 565 629 630 
f 566 631 567 
f 566 630 631 
f 567 632 568 
f 567 631 632 
f 568 633 569 
f 568 632 633 
f 569 634 570 
f 569 633 634 
f 570 635 571 
f 570 634 635 
f 571 636 572 
f 571 635 636 
f 572 637 573 
f 572 636 637 
f 573 638 574 
f 573 637 638 
f 574 639 575 
f 574 638 639 
f 575 640 576 
f 575 639 640 
f 576 577 513 
f 576 640 577 
