# Branch
v -12.3081 -1.86894 -27.7894
vn -0.143213 0.986299 0.0818838
v -12.3076 -1.86833 -27.8058
vn -0.140185 0.989994 -0.0161352
v -12.3069 -1.8693 -27.8221
vn -0.135808 0.984155 -0.113999
v -12.3059 -1.87185 -27.8382
vn -0.130122 0.968838 -0.210765
v -12.3048 -1.87596 -27.854
vn -0.123184 0.94419 -0.305501
v -12.3034 -1.88158 -27.8693
vn -0.115059 0.91045 -0.397294
v -12.3019 -1.88867 -27.884
vn -0.105826 0.867941 -0.485262
v -12.3002 -1.89715 -27.8979
vn -0.0955736 0.817074 -0.568556
v -12.2983 -1.90694 -27.9108
vn -0.084401 0.758337 -0.646375
v -12.2963 -1.91794 -27.9228
vn -0.0724155 0.692298 -0.717969
v -12.2942 -1.93006 -27.9335
vn -0.0597327 0.619591 -0.782649
v -12.292 -1.94318 -27.9431
vn -0.0464746 0.540917 -0.839791
v -12.2897 -1.95716 -27.9512
vn -0.0327689 0.457034 -0.888845
v -12.2874 -1.97187 -27.958
vn -0.0187476 0.36875 -0.92934
v -12.285 -1.98718 -27.9633
vn -0.00454582 0.276914 -0.960884
v -12.2826 -2.00293 -27.967
vn 0.00969977 0.182412 -0.983174
v -12.2803 -2.01898 -27.9691
vn 0.0238519 0.0861523 -0.995996
v -12.278 -2.03516 -27.9696
vn 0.0377744 -0.0109368 -0.999226
v -12.2757 -2.05132 -27.9686
vn 0.0513331 -0.10792 -0.992833
v -12.2735 -2.06731 -27.9659
vn 0.0643974 -0.203865 -0.976879
v -12.2715 -2.08298 -27.9617
vn 0.0768415 -0.297846 -0.951516
v -12.2695 -2.09816 -27.9559
vn 0.0885456 -0.388958 -0.91699
v -12.2677 -2.11273 -27.9487
vn 0.099397 -0.476325 -0.873633
v -12.266 -2.12652 -27.9401
vn 0.109291 -0.559105 -0.821862
v -12.2646 -2.13942 -27.9301
vn 0.118133 -0.6365 -0.762176
v -12.2633 -2.1513 -27.919
vn 0.125837 -0.707765 -0.69515
v -12.2622 -2.16204 -27.9067
vn 0.132329 -0.772214 -0.62143
v -12.2613 -2.17155 -27.8934
vn 0.137546 -0.829226 -0.541725
v -12.2607 -2.17972 -27.8792
vn 0.141439 -0.878252 -0.456802
v -12.2603 -2.18648 -27.8643
vn 0.14397 -0.91882 -0.36748
v -12.2601 -2.19177 -27.8489
vn 0.145114 -0.95054 -0.27462
v -12.2601 -2.19553 -27.8329
vn 0.144861 -0.973105 -0.179114
v -12.2604 -2.19773 -27.8167
vn 0.143213 -0.986299 -0.0818838
v -12.2609 -2.19834 -27.8004
vn 0.140185 -0.989994 0.0161352
v -12.2616 -2.19737 -27.7841
vn 0.135808 -0.984155 0.113999
v -12.2626 -2.19482 -27.768
vn 0.130122 -0.968838 0.210765
v -12.2637 -2.19071 -27.7522
vn 0.123184 -0.94419 0.305501
v -12.2651 -2.18509 -27.7369
vn 0.115059 -0.91045 0.397294
v -12.2666 -2.178 -27.7222
vn 0.105826 -0.867941 0.485262
v -12.2683 -2.16952 -27.7083
vn 0.0955736 -0.817074 0.568556
v -12.2702 -2.15973 -27.6954
vn 0.084401 -0.758337 0.646375
v -12.2722 -2.14872 -27.6834
vn 0.0724155 -0.692298 0.717969
v -12.2743 -2.13661 -27.6726
vn 0.0597327 -0.619591 0.782649
v -12.2765 -2.12349 -27.6631
vn 0.0464746 -0.540917 0.839791
v -12.2788 -2.10951 -27.6549
vn 0.0327689 -0.457034 0.888845
v -12.2811 -2.0948 -27.6482
vn 0.0187476 -0.36875 0.92934
v -12.2835 -2.07949 -27.6429
vn 0.00454582 -0.276914 0.960884
v -12.2859 -2.06374 -27.6392
vn -0.00969977 -0.182412 0.983174
v -12.2882 -2.04769 -27.6371
vn -0.0238519 -0.0861523 0.995996
v -12.2906 -2.03151 -27.6365
vn -0.0377744 0.0109368 0.999226
v -12.2928 -2.01535 -27.6376
vn -0.0513331 0.10792 0.992833
v -12.295 -1.99936 -27.6403
vn -0.0643974 0.203865 0.976879
v -12.2971 -1.98369 -27.6445
vn -0.0768415 0.297846 0.951516
v -12.299 -1.9685 -27.6503
vn -0.0885456 0.388958 0.91699
v -12.3008 -1.95394 -27.6575
vn -0.099397 0.476325 0.873633
v -12.3025 -1.94015 -27.6661
vn -0.109291 0.559105 0.821862
v -12.3039 -1.92725 -27.6761
vn -0.118133 0.6365 0.762176
v -12.3052 -1.91537 -27.6872
vn -0.125837 0.707765 0.69515
v -12.3063 -1.90462 -27.6995
vn -0.132329 0.772214 0.62143
v -12.3072 -1.89512 -27.7128
vn -0.137546 0.829226 0.541725
v -12.3078 -1.88695 -27.727
vn -0.141439 0.878252 0.456802
v -12.3083 -1.88019 -27.7418
vn -0.14397 0.91882 0.36748
v -12.3084 -1.8749 -27.7573
vn -0.145114 0.95054 0.27462
v -12.3084 -1.87114 -27.7732
vn -0.144861 0.973105 0.179114
v -11.4013 -1.75017 -27.7575
vn -0.124905 0.98873 0.0825325
v -11.4008 -1.74957 -27.7736
vn -0.121965 0.992413 -0.0154896
v -11.4001 -1.75053 -27.7898
vn -0.117851 0.986539 -0.113363
v -11.3992 -1.75307 -27.8058
vn -0.112603 0.971164 -0.210144
v -11.3982 -1.75715 -27.8214
vn -0.106269 0.946437 -0.304901
v -11.397 -1.76274 -27.8366
vn -0.0989125 0.912594 -0.396722
v -11.3956 -1.76977 -27.8511
vn -0.0906031 0.869963 -0.484723
v -11.3941 -1.77819 -27.8648
vn -0.0814212 0.818953 -0.568055
v -11.3925 -1.78791 -27.8777
vn -0.0714552 0.760057 -0.645917
v -11.3907 -1.79884 -27.8895
vn -0.060801 0.69384 -0.717558
v -11.3888 -1.81087 -27.9002
vn -0.0495612 0.620942 -0.782288
v -11.3869 -1.82389 -27.9096
vn -0.0378442 0.542064 -0.839485
v -11.3849 -1.83777 -27.9177
vn -0.0257627 0.457965 -0.888597
v -11.3829 -1.85238 -27.9244
vn -0.0134331 0.369456 -0.929151
v -11.3808 -1.86757 -27.9296
vn -0.000974078 0.277389 -0.960757
v -11.3788 -1.88321 -27.9333
vn 0.0114943 0.18265 -0.983111
v -11.3767 -1.89913 -27.9355
vn 0.0238519 0.0861523 -0.995996
v -11.3747 -1.91519 -27.936
vn 0.0359799 -0.0111751 -0.99929
v -11.3728 -1.93124 -27.935
vn 0.0477614 -0.108395 -0.99296
v -11.3709 -1.94711 -27.9323
vn 0.0590828 -0.204571 -0.977067
v -11.3691 -1.96266 -27.9282
vn 0.0698353 -0.298776 -0.951765
v -11.3675 -1.97773 -27.9225
vn 0.0799152 -0.390105 -0.917296
v -11.3659 -1.99218 -27.9153
vn 0.0892256 -0.477676 -0.873993
v -11.3645 -2.00588 -27.9068
vn 0.0976766 -0.560647 -0.822274
v -11.3633 -2.01868 -27.8969
vn 0.105187 -0.638219 -0.762635
v -11.3622 -2.03047 -27.8859
vn 0.111684 -0.709644 -0.695652
v -11.3613 -2.04113 -27.8737
vn 0.117106 -0.774235 -0.621969
v -11.3606 -2.05056 -27.8606
vn 0.1214 -0.83137 -0.542297
v -11.3601 -2.05866 -27.8466
vn 0.124525 -0.880498 -0.457401
v -11.3598 -2.06537 -27.8318
vn 0.12645 -0.921147 -0.368101
v -11.3597 -2.07062 -27.8165
vn 0.127158 -0.952924 -0.275256
v -11.3598 -2.07435 -27.8007
vn 0.126641 -0.975525 -0.17976
v -11.36 -2.07653 -27.7847
vn 0.124905 -0.98873 -0.0825325
v -11.3605 -2.07713 -27.7685
vn 0.121965 -0.992413 0.0154896
v -11.3612 -2.07616 -27.7524
vn 0.117851 -0.986539 0.113363
v -11.3621 -2.07363 -27.7364
vn 0.112603 -0.971164 0.210144
v -11.3631 -2.06955 -27.7208
vn 0.106269 -0.946437 0.304901
v -11.3643 -2.06396 -27.7056
vn 0.0989125 -0.912594 0.396722
v -11.3657 -2.05692 -27.6911
vn 0.0906031 -0.869963 0.484723
v -11.3672 -2.04851 -27.6773
vn 0.0814212 -0.818953 0.568055
v -11.3689 -2.03879 -27.6645
vn 0.0714552 -0.760057 0.645917
v -11.3706 -2.02786 -27.6527
vn 0.060801 -0.69384 0.717558
v -11.3725 -2.01583 -27.642
vn 0.0495612 -0.620942 0.782288
v -11.3744 -2.00281 -27.6325
vn 0.0378442 -0.542064 0.839485
v -11.3764 -1.98893 -27.6244
vn 0.0257627 -0.457965 0.888597
v -11.3784 -1.97432 -27.6177
vn 0.0134331 -0.369456 0.929151
v -11.3805 -1.95913 -27.6125
vn 0.000974078 -0.277389 0.960757
v -11.3826 -1.94349 -27.6088
vn -0.0114943 -0.18265 0.983111
v -11.3846 -1.92757 -27.6067
vn -0.0238519 -0.0861523 0.995996
v -11.3866 -1.91151 -27.6062
vn -0.0359799 0.0111751 0.99929
v -11.3885 -1.89546 -27.6072
vn -0.0477614 0.108395 0.99296
v -11.3904 -1.87959 -27.6098
vn -0.0590828 0.204571 0.977067
v -11.3922 -1.86404 -27.614
vn -0.0698353 0.298776 0.951765
v -11.3939 -1.84897 -27.6197
vn -0.0799152 0.390105 0.917296
v -11.3954 -1.83452 -27.6268
vn -0.0892256 0.477676 0.873993
v -11.3968 -1.82082 -27.6354
vn -0.0976766 0.560647 0.822274
v -11.398 -1.80802 -27.6452
vn -0.105187 0.638219 0.762635
v -11.3991 -1.79623 -27.6563
vn -0.111684 0.709644 0.695652
v -11.4 -1.78557 -27.6684
vn -0.117106 0.774235 0.621969
v -11.4007 -1.77614 -27.6816
vn -0.1214 0.83137 0.542297
v -11.4012 -1.76804 -27.6956
vn -0.124525 0.880498 0.457401
v -11.4015 -1.76133 -27.7103
vn -0.12645 0.921147 0.368101
v -11.4016 -1.75608 -27.7256
vn -0.127158 0.952924 0.275256
v -11.4016 -1.75235 -27.7414
vn -0.126641 0.975525 0.17976
v -10.4889 -1.64767 -27.7267
vn -0.106697 0.990809 0.0831484
v -10.4884 -1.64707 -27.7428
vn -0.103845 0.994482 -0.0148767
v -10.4878 -1.64803 -27.7587
vn -0.0999937 0.988578 -0.112759
v -10.487 -1.65055 -27.7746
vn -0.0951789 0.973154 -0.209554
v -10.486 -1.6546 -27.7901
vn -0.0894475 0.948357 -0.304332
v -10.485 -1.66015 -27.8051
vn -0.0828547 0.914427 -0.396179
v -10.4838 -1.66713 -27.8194
vn -0.075464 0.871691 -0.484211
v -10.4824 -1.67548 -27.8331
vn -0.0673465 0.82056 -0.567579
v -10.481 -1.68513 -27.8458
vn -0.0585804 0.761526 -0.645481
v -10.4795 -1.69597 -27.8575
vn -0.0492501 0.695159 -0.717167
v -10.4779 -1.70791 -27.8681
vn -0.0394456 0.622097 -0.781946
v -10.4762 -1.72083 -27.8774
vn -0.0292611 0.543044 -0.839195
v -10.4745 -1.7346 -27.8855
vn -0.0187949 0.45876 -0.888361
v -10.4728 -1.74909 -27.8921
vn -0.00814764 0.370059 -0.928972
v -10.471 -1.76417 -27.8973
vn 0.00257807 0.277794 -0.960637
v -10.4693 -1.77968 -27.901
vn 0.0132789 0.182854 -0.98305
v -10.4675 -1.79548 -27.9031
vn 0.0238519 0.0861523 -0.995996
v -10.4658 -1.81142 -27.9036
vn 0.0341952 -0.0113788 -0.99935
v -10.4642 -1.82734 -27.9026
vn 0.0442092 -0.1088 -0.99308
v -10.4626 -1.84309 -27.9
vn 0.0537974 -0.205174 -0.977246
v -10.4611 -1.85851 -27.8959
vn 0.0628675 -0.299572 -0.952
v -10.4598 -1.87346 -27.8903
vn 0.0713322 -0.391085 -0.917586
v -10.4585 -1.8878 -27.8832
vn 0.0791099 -0.478831 -0.874336
v -10.4573 -1.90138 -27.8747
vn 0.0861257 -0.561966 -0.822664
v -10.4563 -1.91408 -27.865
vn 0.0923121 -0.639689 -0.763071
v -10.4555 -1.92578 -27.8541
vn 0.0976095 -0.711251 -0.696128
v -10.4548 -1.93635 -27.842
vn 0.101967 -0.775964 -0.622481
v -10.4542 -1.9457 -27.829
vn 0.105342 -0.833203 -0.54284
v -10.4538 -1.95374 -27.8152
vn 0.107703 -0.882419 -0.45797
v -10.4536 -1.9604 -27.8006
vn 0.109027 -0.923136 -0.368691
v -10.4536 -1.9656 -27.7854
vn 0.1093 -0.954963 -0.27586
v -10.4537 -1.9693 -27.7698
vn 0.108521 -0.977593 -0.180373
v -10.454 -1.97146 -27.7539
vn 0.106697 -0.990809 -0.0831484
v -10.4545 -1.97206 -27.7379
vn 0.103845 -0.994482 0.0148767
v -10.4551 -1.97109 -27.7219
vn 0.0999937 -0.988578 0.112759
v -10.4559 -1.96857 -27.7061
vn 0.0951789 -0.973154 0.209554
v -10.4568 -1.96452 -27.6906
vn 0.0894475 -0.948357 0.304332
v -10.4579 -1.95897 -27.6756
vn 0.0828547 -0.914427 0.396179
v -10.4591 -1.95199 -27.6612
vn 0.075464 -0.871691 0.484211
v -10.4604 -1.94364 -27.6476
vn 0.0673465 -0.82056 0.567579
v -10.4618 -1.93399 -27.6349
vn 0.0585804 -0.761526 0.645481
v -10.4634 -1.92315 -27.6231
vn 0.0492501 -0.695159 0.717167
v -10.465 -1.91121 -27.6126
vn 0.0394456 -0.622097 0.781946
v -10.4666 -1.89829 -27.6032
vn 0.0292611 -0.543044 0.839195
v -10.4683 -1.88452 -27.5952
vn 0.0187949 -0.45876 0.888361
v -10.4701 -1.87003 -27.5885
vn 0.00814764 -0.370059 0.928972
v -10.4718 -1.85495 -27.5834
vn -0.00257807 -0.277794 0.960637
v -10.4736 -1.83944 -27.5797
vn -0.0132789 -0.182854 0.98305
v -10.4753 -1.82364 -27.5776
vn -0.0238519 -0.0861523 0.995996
v -10.477 -1.8077 -27.577
vn -0.0341952 0.0113788 0.99935
v -10.4786 -1.79178 -27.5781
vn -0.0442092 0.1088 0.99308
v -10.4802 -1.77604 -27.5806
vn -0.0537974 0.205174 0.977246
v -10.4817 -1.76061 -27.5848
vn -0.0628675 0.299572 0.952
v -10.4831 -1.74566 -27.5904
vn -0.0713322 0.391085 0.917586
v -10.4843 -1.73132 -27.5975
vn -0.0791099 0.478831 0.874336
v -10.4855 -1.71774 -27.6059
vn -0.0861257 0.561966 0.822664
v -10.4865 -1.70504 -27.6156
vn -0.0923121 0.639689 0.763071
v -10.4874 -1.69335 -27.6266
vn -0.0976095 0.711251 0.696128
v -10.4881 -1.68277 -27.6386
vn -0.101967 0.775964 0.622481
v -10.4886 -1.67342 -27.6516
vn -0.105342 0.833203 0.54284
v -10.489 -1.66538 -27.6655
vn -0.107703 0.882419 0.45797
v -10.4892 -1.65872 -27.6801
vn -0.109027 0.923136 0.368691
v -10.4893 -1.65352 -27.6953
vn -0.1093 0.954963 0.27586
v -10.4892 -1.64983 -27.7109
vn -0.108521 0.977593 0.180373
v -9.57086 -1.56142 -27.6973
vn -0.0886074 0.992541 0.0837314
v -9.57042 -1.56083 -27.7132
vn -0.0858428 0.996206 -0.0142965
v -9.56984 -1.56179 -27.729
vn -0.0822515 0.990277 -0.112187
v -9.56913 -1.56429 -27.7446
vn -0.0778681 0.974811 -0.208997
v -9.5683 -1.56831 -27.76
vn -0.0727348 0.949957 -0.303794
v -9.56735 -1.57381 -27.7748
vn -0.066901 0.915955 -0.395665
v -9.56631 -1.58074 -27.7891
vn -0.0604229 0.873131 -0.483726
v -9.56516 -1.58902 -27.8026
vn -0.0533629 0.821899 -0.567128
v -9.56394 -1.59859 -27.8152
vn -0.045789 0.762751 -0.645069
v -9.56264 -1.60935 -27.8268
vn -0.0377741 0.696258 -0.716797
v -9.56129 -1.62119 -27.8373
vn -0.0293954 0.623059 -0.781622
v -9.55989 -1.634 -27.8465
vn -0.0207337 0.54386 -0.83892
v -9.55845 -1.64766 -27.8545
vn -0.0118722 0.459423 -0.888138
v -9.557 -1.66203 -27.8611
vn -0.00289647 0.370562 -0.928803
v -9.55554 -1.67698 -27.8662
vn 0.0061072 0.278132 -0.960523
v -9.5541 -1.69236 -27.8698
vn 0.0150521 0.183023 -0.982993
v -9.55267 -1.70803 -27.8719
vn 0.0238519 0.0861523 -0.995996
v -9.55129 -1.72384 -27.8725
vn 0.0324221 -0.0115486 -0.999408
v -9.54995 -1.73962 -27.8715
vn 0.0406801 -0.109138 -0.993194
v -9.54868 -1.75524 -27.8689
vn 0.0485462 -0.205677 -0.977415
v -9.54748 -1.77053 -27.8649
vn 0.0559449 -0.300235 -0.952223
v -9.54637 -1.78536 -27.8593
vn 0.0628048 -0.391901 -0.917861
v -9.54536 -1.79958 -27.8523
vn 0.0690598 -0.479793 -0.874659
v -9.54446 -1.81305 -27.844
vn 0.0746497 -0.563065 -0.823034
v -9.54367 -1.82564 -27.8343
vn 0.0795207 -0.640914 -0.763483
v -9.543 -1.83724 -27.8235
vn 0.0836259 -0.71259 -0.696579
v -9.54247 -1.84772 -27.8116
vn 0.0869258 -0.777404 -0.622966
v -9.54207 -1.85699 -27.7987
vn 0.0893884 -0.834731 -0.543354
v -9.54181 -1.86496 -27.785
vn 0.0909903 -0.884019 -0.458509
v -9.5417 -1.87156 -27.7706
vn 0.0917158 -0.924794 -0.369248
v -9.54172 -1.87672 -27.7556
vn 0.0915581 -0.956662 -0.276432
v -9.54189 -1.88038 -27.7401
vn 0.0905186 -0.979317 -0.180953
v -9.5422 -1.88252 -27.7244
vn 0.0886074 -0.992541 -0.0837314
v -9.54265 -1.88311 -27.7085
vn 0.0858428 -0.996206 0.0142965
v -9.54323 -1.88215 -27.6927
vn 0.0822515 -0.990277 0.112187
v -9.54394 -1.87965 -27.677
vn 0.0778681 -0.974811 0.208997
v -9.54477 -1.87563 -27.6617
vn 0.0727348 -0.949957 0.303794
v -9.54571 -1.87013 -27.6468
vn 0.066901 -0.915955 0.395665
v -9.54676 -1.8632 -27.6326
vn 0.0604229 -0.873131 0.483726
v -9.5479 -1.85492 -27.6191
vn 0.0533629 -0.821899 0.567128
v -9.54913 -1.84535 -27.6065
vn 0.045789 -0.762751 0.645069
v -9.55042 -1.83459 -27.5949
vn 0.0377741 -0.696258 0.716797
v -9.55178 -1.82275 -27.5844
vn 0.0293954 -0.623059 0.781622
v -9.55318 -1.80994 -27.5751
vn 0.0207337 -0.54386 0.83892
v -9.55461 -1.79628 -27.5672
vn 0.0118722 -0.459423 0.888138
v -9.55606 -1.78191 -27.5606
vn 0.00289647 -0.370562 0.928803
v -9.55752 -1.76696 -27.5555
vn -0.0061072 -0.278132 0.960523
v -9.55897 -1.75157 -27.5518
vn -0.0150521 -0.183023 0.982993
v -9.56039 -1.73591 -27.5497
vn -0.0238519 -0.0861523 0.995996
v -9.56178 -1.7201 -27.5492
vn -0.0324221 0.0115486 0.999408
v -9.56311 -1.70432 -27.5502
vn -0.0406801 0.109138 0.993194
v -9.56438 -1.6887 -27.5527
vn -0.0485462 0.205677 0.977415
v -9.56558 -1.6734 -27.5568
vn -0.0559449 0.300235 0.952223
v -9.56669 -1.65858 -27.5624
vn -0.0628048 0.391901 0.917861
v -9.5677 -1.64436 -27.5694
vn -0.0690598 0.479793 0.874659
v -9.56861 -1.63089 -27.5777
vn -0.0746497 0.563065 0.823034
v -9.56939 -1.6183 -27.5873
vn -0.0795207 0.640914 0.763483
v -9.57006 -1.6067 -27.5982
vn -0.0836259 0.71259 0.696579
v -9.57059 -1.59622 -27.6101
vn -0.0869258 0.777404 0.622966
v -9.57099 -1.58695 -27.6229
vn -0.0893884 0.834731 0.543354
v -9.57125 -1.57897 -27.6367
vn -0.0909903 0.884019 0.458509
v -9.57137 -1.57238 -27.6511
vn -0.0917158 0.924794 0.369248
v -9.57134 -1.56722 -27.6661
vn -0.0915581 0.956662 0.276432
v -9.57117 -1.56356 -27.6816
vn -0.0905186 0.979317 0.180953
v -8.64731 -1.49143 -27.6691
vn -0.0706523 0.993934 0.0842819
v -8.64688 -1.49084 -27.6848
vn -0.0679742 0.997592 -0.0137487
v -8.64635 -1.4918 -27.7005
vn -0.0646414 0.991643 -0.111647
v -8.64571 -1.49428 -27.716
vn -0.0606862 0.976144 -0.20847
v -8.64499 -1.49827 -27.7312
vn -0.0561464 0.951244 -0.303285
v -8.64417 -1.50372 -27.7459
vn -0.051066 0.917183 -0.395179
v -8.64328 -1.51059 -27.76
vn -0.0454938 0.87429 -0.483268
v -8.64232 -1.5188 -27.7734
vn -0.0394834 0.822976 -0.566703
v -8.64129 -1.52829 -27.7858
vn -0.0330928 0.763736 -0.64468
v -8.64022 -1.53895 -27.7973
vn -0.0263835 0.697142 -0.716448
v -8.63911 -1.55069 -27.8077
vn -0.0194201 0.623833 -0.781316
v -8.63796 -1.56339 -27.8169
vn -0.0122697 0.544517 -0.83866
v -8.6368 -1.57693 -27.8248
vn -0.00500113 0.459956 -0.887927
v -8.63562 -1.59118 -27.8313
vn 0.00231562 0.370966 -0.928643
v -8.63446 -1.606 -27.8364
vn 0.00961006 0.278404 -0.960416
v -8.6333 -1.62125 -27.84
vn 0.016812 0.18316 -0.982939
v -8.63218 -1.63678 -27.8421
vn 0.0238519 0.0861523 -0.995996
v -8.63109 -1.65245 -27.8426
vn 0.0306622 -0.0116851 -0.999461
v -8.63004 -1.66809 -27.8417
vn 0.0371772 -0.10941 -0.993301
v -8.62906 -1.68357 -27.8391
vn 0.0433342 -0.206081 -0.977575
v -8.62814 -1.69873 -27.8351
vn 0.0490738 -0.300768 -0.952434
v -8.62729 -1.71343 -27.8296
vn 0.0543408 -0.392558 -0.918121
v -8.62654 -1.72752 -27.8227
vn 0.0590845 -0.480567 -0.874965
v -8.62587 -1.74087 -27.8145
vn 0.0632591 -0.563948 -0.823384
v -8.6253 -1.75335 -27.8049
vn 0.0668246 -0.641899 -0.763872
v -8.62483 -1.76484 -27.7942
vn 0.0697465 -0.713667 -0.697004
v -8.62447 -1.77523 -27.7824
vn 0.0719966 -0.778562 -0.623424
v -8.62422 -1.78442 -27.7697
vn 0.0735535 -0.83596 -0.543839
v -8.62408 -1.79233 -27.7561
vn 0.0744019 -0.885306 -0.459018
v -8.62406 -1.79886 -27.7418
vn 0.0745339 -0.926127 -0.369775
v -8.62416 -1.80397 -27.727
vn 0.073948 -0.958028 -0.276972
v -8.62436 -1.8076 -27.7117
vn 0.07265 -0.980704 -0.181501
v -8.62468 -1.80972 -27.6961
vn 0.0706523 -0.993934 -0.0842819
v -8.62511 -1.8103 -27.6804
vn 0.0679742 -0.997592 0.0137487
v -8.62565 -1.80935 -27.6647
vn 0.0646414 -0.991643 0.111647
v -8.62628 -1.80687 -27.6492
vn 0.0606862 -0.976144 0.20847
v -8.62701 -1.80288 -27.6341
vn 0.0561464 -0.951244 0.303285
v -8.62782 -1.79743 -27.6193
vn 0.051066 -0.917183 0.395179
v -8.62871 -1.79056 -27.6052
vn 0.0454938 -0.87429 0.483268
v -8.62967 -1.78235 -27.5919
vn 0.0394834 -0.822976 0.566703
v -8.6307 -1.77286 -27.5794
vn 0.0330928 -0.763736 0.64468
v -8.63177 -1.7622 -27.5679
vn 0.0263835 -0.697142 0.716448
v -8.63289 -1.75046 -27.5575
vn 0.0194201 -0.623833 0.781316
v -8.63403 -1.73776 -27.5483
vn 0.0122697 -0.544517 0.83866
v -8.63519 -1.72422 -27.5404
vn 0.00500113 -0.459956 0.887927
v -8.63637 -1.70997 -27.5339
vn -0.00231562 -0.370966 0.928643
v -8.63753 -1.69515 -27.5288
vn -0.00961006 -0.278404 0.960416
v -8.63869 -1.6799 -27.5252
vn -0.016812 -0.18316 0.982939
v -8.63981 -1.66437 -27.5231
vn -0.0238519 -0.0861523 0.995996
v -8.64091 -1.6487 -27.5226
vn -0.0306622 0.0116851 0.999461
v -8.64195 -1.63306 -27.5236
vn -0.0371772 0.10941 0.993301
v -8.64293 -1.61758 -27.5261
vn -0.0433342 0.206081 0.977575
v -8.64385 -1.60242 -27.5301
vn -0.0490738 0.300768 0.952434
v -8.6447 -1.58772 -27.5356
vn -0.0543408 0.392558 0.918121
v -8.64546 -1.57363 -27.5425
vn -0.0590845 0.480567 0.874965
v -8.64612 -1.56028 -27.5508
vn -0.0632591 0.563948 0.823384
v -8.6467 -1.5478 -27.5603
vn -0.0668246 0.641899 0.763872
v -8.64716 -1.53631 -27.571
vn -0.0697465 0.713667 0.697004
v -8.64752 -1.52591 -27.5828
vn -0.0719966 0.778562 0.623424
v -8.64777 -1.51672 -27.5955
vn -0.0735535 0.83596 0.543839
v -8.64791 -1.50882 -27.6091
vn -0.0744019 0.885306 0.459018
v -8.64793 -1.50229 -27.6234
vn -0.0745339 0.926127 0.369775
v -8.64784 -1.49718 -27.6383
vn -0.073948 0.958028 0.276972
v -8.64763 -1.49355 -27.6536
vn -0.07265 0.980704 0.181501
v -7.71819 -1.43769 -27.6422
vn -0.0528477 0.994996 0.0848001
v -7.71778 -1.43712 -27.6578
vn -0.0502553 0.998649 -0.013233
v -7.71729 -1.43806 -27.6733
vn -0.0471789 0.992684 -0.111139
v -7.71673 -1.44052 -27.6886
vn -0.0436482 0.97716 -0.207974
v -7.7161 -1.44447 -27.7037
vn -0.0396971 0.952225 -0.302806
v -7.71542 -1.44988 -27.7182
vn -0.0353637 0.91812 -0.394722
v -7.71468 -1.45668 -27.7322
vn -0.0306898 0.875172 -0.482837
v -7.71389 -1.46483 -27.7454
vn -0.0257203 0.823796 -0.566302
v -7.71306 -1.47422 -27.7578
vn -0.0205031 0.764487 -0.644313
v -7.7122 -1.48479 -27.7692
vn -0.0150884 0.697815 -0.716119
v -7.71132 -1.49642 -27.7794
vn -0.00952841 0.624423 -0.781028
v -7.71043 -1.50901 -27.7885
vn -0.00387667 0.545017 -0.838416
v -7.70953 -1.52242 -27.7963
vn 0.0018124 0.460363 -0.887729
v -7.70863 -1.53654 -27.8028
vn 0.00748403 0.371275 -0.928493
v -7.70774 -1.55122 -27.8079
vn 0.0130836 0.278611 -0.960315
v -7.70687 -1.56633 -27.8114
vn 0.0185571 0.183264 -0.982889
v -7.70603 -1.58172 -27.8135
vn 0.0238519 0.0861523 -0.995996
v -7.70523 -1.59725 -27.8141
vn 0.0289171 -0.0117892 -0.999512
v -7.70447 -1.61275 -27.8131
vn 0.0337037 -0.109617 -0.993402
v -7.70376 -1.62808 -27.8106
vn 0.0381658 -0.206389 -0.977725
v -7.70312 -1.64311 -27.8066
vn 0.0422602 -0.301174 -0.952632
v -7.70253 -1.65767 -27.8012
vn 0.0459477 -0.393058 -0.918365
v -7.70202 -1.67163 -27.7944
vn 0.0491927 -0.481157 -0.875253
v -7.70158 -1.68486 -27.7862
vn 0.051964 -0.564622 -0.823712
v -7.70122 -1.69722 -27.7768
vn 0.0542348 -0.642649 -0.764239
v -7.70094 -1.70861 -27.7662
vn 0.0559833 -0.714488 -0.697405
v -7.70075 -1.7189 -27.7545
vn 0.0571926 -0.779445 -0.623855
v -7.70065 -1.728 -27.7419
vn 0.0578512 -0.836896 -0.544296
v -7.70063 -1.73583 -27.7285
vn 0.0579526 -0.886287 -0.459496
v -7.7007 -1.74231 -27.7143
vn 0.0574959 -0.927143 -0.370271
v -7.70086 -1.74737 -27.6996
vn 0.0564855 -0.959069 -0.27748
v -7.70111 -1.75096 -27.6845
vn 0.0549311 -0.98176 -0.182016
v -7.70144 -1.75306 -27.6691
vn 0.0528477 -0.994996 -0.0848001
v -7.70185 -1.75364 -27.6536
vn 0.0502553 -0.998649 0.013233
v -7.70234 -1.75269 -27.6381
vn 0.0471789 -0.992684 0.111139
v -7.7029 -1.75023 -27.6227
vn 0.0436482 -0.97716 0.207974
v -7.70352 -1.74628 -27.6077
vn 0.0396971 -0.952225 0.302806
v -7.70421 -1.74088 -27.5931
vn 0.0353637 -0.91812 0.394722
v -7.70495 -1.73407 -27.5791
vn 0.0306898 -0.875172 0.482837
v -7.70574 -1.72593 -27.5659
vn 0.0257203 -0.823796 0.566302
v -7.70656 -1.71653 -27.5536
vn 0.0205031 -0.764487 0.644313
v -7.70742 -1.70596 -27.5422
vn 0.0150884 -0.697815 0.716119
v -7.7083 -1.69433 -27.5319
vn 0.00952841 -0.624423 0.781028
v -7.7092 -1.68175 -27.5228
vn 0.00387667 -0.545017 0.838416
v -7.7101 -1.66833 -27.515
vn -0.0018124 -0.460363 0.887729
v -7.711 -1.65421 -27.5085
vn -0.00748403 -0.371275 0.928493
v -7.71189 -1.63953 -27.5035
vn -0.0130836 -0.278611 0.960315
v -7.71275 -1.62442 -27.4999
vn -0.0185571 -0.183264 0.982889
v -7.71359 -1.60903 -27.4978
vn -0.0238519 -0.0861523 0.995996
v -7.7144 -1.59351 -27.4973
vn -0.0289171 0.0117892 0.999512
v -7.71515 -1.57801 -27.4982
vn -0.0337037 0.109617 0.993402
v -7.71586 -1.56267 -27.5007
vn -0.0381658 0.206389 0.977725
v -7.71651 -1.54765 -27.5047
vn -0.0422602 0.301174 0.952632
v -7.71709 -1.53309 -27.5101
vn -0.0459477 0.393058 0.918365
v -7.71761 -1.51913 -27.517
vn -0.0491927 0.481157 0.875253
v -7.71805 -1.5059 -27.5251
vn -0.051964 0.564622 0.823712
v -7.71841 -1.49353 -27.5346
vn -0.0542348 0.642649 0.764239
v -7.71869 -1.48215 -27.5451
vn -0.0559833 0.714488 0.697405
v -7.71888 -1.47185 -27.5568
vn -0.0571926 0.779445 0.623855
v -7.71898 -1.46275 -27.5694
vn -0.0578512 0.836896 0.544296
v -7.719 -1.45492 -27.5828
vn -0.0579526 0.886287 0.459496
v -7.71892 -1.44845 -27.597
vn -0.0574959 0.927143 0.370271
v -7.71876 -1.44339 -27.6117
vn -0.0564855 0.959069 0.27748
v -7.71852 -1.43979 -27.6268
vn -0.0549311 0.98176 0.182016
v -6.78351 -1.40021 -27.6166
vn -0.0352084 0.995734 0.0852864
v -6.78311 -1.39964 -27.632
vn -0.032701 0.999384 -0.012749
v -6.78267 -1.40057 -27.6473
vn -0.0298786 0.993409 -0.110662
v -6.78218 -1.40301 -27.6625
vn -0.0267685 0.977867 -0.207508
v -6.78165 -1.40693 -27.6774
vn -0.0234006 0.952907 -0.302357
v -6.78109 -1.41228 -27.6918
vn -0.0198073 0.918771 -0.394294
v -6.7805 -1.41902 -27.7056
vn -0.0160233 0.875786 -0.482433
v -6.77988 -1.42709 -27.7187
vn -0.012085 0.824367 -0.565926
v -6.77924 -1.4364 -27.731
vn -0.00803025 0.765009 -0.643969
v -6.7786 -1.44686 -27.7422
vn -0.00389819 0.698284 -0.715811
v -6.77794 -1.45838 -27.7524
vn 0.000271407 0.624833 -0.780758
v -6.77729 -1.47084 -27.7614
vn 0.00443839 0.545365 -0.838187
v -6.77664 -1.48413 -27.7692
vn 0.00856264 0.460645 -0.887543
v -6.77601 -1.49811 -27.7756
vn 0.0126044 0.371489 -0.928352
v -6.77539 -1.51266 -27.7806
vn 0.0165248 0.278755 -0.96022
v -6.7748 -1.52762 -27.7841
vn 0.0202861 0.183336 -0.982841
v -6.77424 -1.54286 -27.7862
vn 0.0238519 0.0861523 -0.995996
v -6.77372 -1.55824 -27.7867
vn 0.0271881 -0.0118616 -0.99956
v -6.77324 -1.57359 -27.7858
vn 0.0302625 -0.109761 -0.993497
v -6.7728 -1.58878 -27.7833
vn 0.0330454 -0.206604 -0.977866
v -6.77241 -1.60366 -27.7794
vn 0.03551 -0.301457 -0.952818
v -6.77208 -1.61808 -27.774
vn 0.0376327 -0.393406 -0.918594
v -6.77181 -1.6319 -27.7673
vn 0.0393929 -0.481567 -0.875523
v -6.77159 -1.645 -27.7592
vn 0.0407738 -0.56509 -0.824021
v -6.77143 -1.65725 -27.7499
vn 0.041762 -0.643172 -0.764582
v -6.77134 -1.66852 -27.7394
vn 0.042348 -0.715059 -0.697781
v -6.77131 -1.67872 -27.7279
vn 0.0425262 -0.780059 -0.624259
v -6.77135 -1.68773 -27.7154
vn 0.0422948 -0.837547 -0.544725
v -6.77145 -1.69548 -27.7021
vn 0.0416561 -0.886969 -0.459946
v -6.77161 -1.7019 -27.6881
vn 0.0406162 -0.92785 -0.370737
v -6.77184 -1.70691 -27.6736
vn 0.0391852 -0.959794 -0.277957
v -6.77212 -1.71047 -27.6586
vn 0.0373768 -0.982495 -0.1825
v -6.77246 -1.71254 -27.6434
vn 0.0352084 -0.995734 -0.0852864
v -6.77286 -1.71311 -27.628
vn 0.032701 -0.999384 0.012749
v -6.7733 -1.71218 -27.6126
vn 0.0298786 -0.993409 0.110662
v -6.77379 -1.70974 -27.5974
vn 0.0267685 -0.977867 0.207508
v -6.77431 -1.70583 -27.5826
vn 0.0234006 -0.952907 0.302357
v -6.77488 -1.70047 -27.5681
vn 0.0198073 -0.918771 0.394294
v -6.77547 -1.69373 -27.5543
vn 0.0160233 -0.875786 0.482433
v -6.77609 -1.68567 -27.5412
vn 0.012085 -0.824367 0.565926
v -6.77672 -1.67636 -27.529
vn 0.00803025 -0.765009 0.643969
v -6.77737 -1.66589 -27.5177
vn 0.00389819 -0.698284 0.715811
v -6.77803 -1.65437 -27.5075
vn -0.000271407 -0.624833 0.780758
v -6.77868 -1.64191 -27.4985
vn -0.00443839 -0.545365 0.838187
v -6.77933 -1.62862 -27.4908
vn -0.00856264 -0.460645 0.887543
v -6.77996 -1.61464 -27.4844
vn -0.0126044 -0.371489 0.928352
v -6.78058 -1.60009 -27.4794
vn -0.0165248 -0.278755 0.96022
v -6.78117 -1.58513 -27.4758
vn -0.0202861 -0.183336 0.982841
v -6.78172 -1.56989 -27.4738
vn -0.0238519 -0.0861523 0.995996
v -6.78225 -1.55452 -27.4732
vn -0.0271881 0.0118616 0.99956
v -6.78273 -1.53916 -27.4742
vn -0.0302625 0.109761 0.993497
v -6.78317 -1.52397 -27.4766
vn -0.0330454 0.206604 0.977866
v -6.78355 -1.5091 -27.4805
vn -0.03551 0.301457 0.952818
v -6.78389 -1.49468 -27.4859
vn -0.0376327 0.393406 0.918594
v -6.78416 -1.48085 -27.4927
vn -0.0393929 0.481567 0.875523
v -6.78438 -1.46775 -27.5007
vn -0.0407738 0.56509 0.824021
v -6.78453 -1.4555 -27.5101
vn -0.041762 0.643172 0.764582
v -6.78463 -1.44423 -27.5205
vn -0.042348 0.715059 0.697781
v -6.78465 -1.43404 -27.5321
vn -0.0425262 0.780059 0.624259
v -6.78462 -1.42502 -27.5445
vn -0.0422948 0.837547 0.544725
v -6.78452 -1.41727 -27.5578
vn -0.0416561 0.886969 0.459946
v -6.78435 -1.41086 -27.5718
vn -0.0406162 0.92785 0.370737
v -6.78413 -1.40585 -27.5864
vn -0.0391852 0.959794 0.277957
v -6.78385 -1.40229 -27.6014
vn -0.0373768 0.982495 0.1825
v -5.84326 -1.37897 -27.5922
vn -0.0177486 0.996159 0.0857413
v -5.84289 -1.37841 -27.6075
vn -0.0153253 0.999807 -0.0122963
v -5.84249 -1.37933 -27.6227
vn -0.0127543 0.993826 -0.110215
v -5.84207 -1.38175 -27.6377
vn -0.0100605 0.978274 -0.207073
v -5.84164 -1.38562 -27.6524
vn -0.00726985 0.9533 -0.301937
v -5.84119 -1.39092 -27.6667
vn -0.00440916 0.919146 -0.393892
v -5.84074 -1.3976 -27.6804
vn -0.00150601 0.87614 -0.482055
v -5.84029 -1.40558 -27.6933
vn 0.00141164 0.824696 -0.565575
v -5.83984 -1.4148 -27.7054
vn 0.0043157 0.76531 -0.643648
v -5.83939 -1.42516 -27.7166
vn 0.00717819 0.698553 -0.715522
v -5.83896 -1.43656 -27.7267
vn 0.00997156 0.625069 -0.780505
v -5.83854 -1.4489 -27.7356
vn 0.0126689 0.545566 -0.837972
v -5.83814 -1.46206 -27.7433
vn 0.0152442 0.460808 -0.887369
v -5.83777 -1.4759 -27.7496
vn 0.0176727 0.371612 -0.92822
v -5.83741 -1.4903 -27.7546
vn 0.0199311 0.278838 -0.960131
v -5.83709 -1.50511 -27.7581
vn 0.0219974 0.183378 -0.982796
v -5.83681 -1.5202 -27.7601
vn 0.0238519 0.0861523 -0.995996
v -5.83655 -1.53542 -27.7607
vn 0.0254768 -0.0119033 -0.999605
v -5.83634 -1.55062 -27.7598
vn 0.0268562 -0.109844 -0.993586
v -5.83617 -1.56565 -27.7573
vn 0.027977 -0.206727 -0.977999
v -5.83603 -1.58038 -27.7535
vn 0.0288284 -0.301619 -0.952992
v -5.83595 -1.59466 -27.7481
vn 0.0294022 -0.393607 -0.918809
v -5.8359 -1.60835 -27.7415
vn 0.0296928 -0.481803 -0.875776
v -5.8359 -1.62131 -27.7335
vn 0.0296974 -0.56536 -0.824309
v -5.83594 -1.63344 -27.7243
vn 0.029416 -0.643472 -0.764904
v -5.83603 -1.6446 -27.7139
vn 0.0288514 -0.715387 -0.698132
v -5.83616 -1.65469 -27.7025
vn 0.0280089 -0.780413 -0.624637
v -5.83633 -1.66361 -27.6902
vn 0.0268966 -0.837922 -0.545127
v -5.83655 -1.67129 -27.677
vn 0.0255253 -0.887362 -0.460366
v -5.8368 -1.67763 -27.6632
vn 0.0239082 -0.928256 -0.371172
v -5.83708 -1.68259 -27.6488
vn 0.0220609 -0.960211 -0.278403
v -5.8374 -1.68612 -27.6339
vn 0.0200011 -0.982918 -0.182953
v -5.83775 -1.68817 -27.6189
vn 0.0177486 -0.996159 -0.0857413
v -5.83813 -1.68874 -27.6036
vn 0.0153253 -0.999807 0.0122963
v -5.83853 -1.68781 -27.5884
vn 0.0127543 -0.993826 0.110215
v -5.83895 -1.6854 -27.5734
vn 0.0100605 -0.978274 0.207073
v -5.83938 -1.68152 -27.5587
vn 0.00726985 -0.9533 0.301937
v -5.83982 -1.67622 -27.5444
vn 0.00440916 -0.919146 0.393892
v -5.84027 -1.66954 -27.5307
vn 0.00150601 -0.87614 0.482055
v -5.84073 -1.66156 -27.5178
vn -0.00141164 -0.824696 0.565575
v -5.84118 -1.65234 -27.5057
vn -0.0043157 -0.76531 0.643648
v -5.84162 -1.64198 -27.4945
vn -0.00717819 -0.698553 0.715522
v -5.84206 -1.63058 -27.4844
vn -0.00997156 -0.625069 0.780505
v -5.84247 -1.61824 -27.4755
vn -0.0126689 -0.545566 0.837972
v -5.84287 -1.60509 -27.4678
vn -0.0152442 -0.460808 0.887369
v -5.84325 -1.59124 -27.4615
vn -0.0176727 -0.371612 0.92822
v -5.8436 -1.57685 -27.4565
vn -0.0199311 -0.278838 0.960131
v -5.84392 -1.56203 -27.453
vn -0.0219974 -0.183378 0.982796
v -5.84421 -1.54694 -27.451
vn -0.0238519 -0.0861523 0.995996
v -5.84446 -1.53172 -27.4504
vn -0.0254768 0.0119033 0.999605
v -5.84468 -1.51652 -27.4514
vn -0.0268562 0.109844 0.993586
v -5.84485 -1.50149 -27.4538
vn -0.027977 0.206727 0.977999
v -5.84498 -1.48676 -27.4577
vn -0.0288284 0.301619 0.952992
v -5.84507 -1.47249 -27.463
vn -0.0294022 0.393607 0.918809
v -5.84512 -1.4588 -27.4696
vn -0.0296928 0.481803 0.875776
v -5.84512 -1.44583 -27.4776
vn -0.0296974 0.56536 0.824309
v -5.84507 -1.43371 -27.4868
vn -0.029416 0.643472 0.764904
v -5.84499 -1.42255 -27.4972
vn -0.0288514 0.715387 0.698132
v -5.84485 -1.41246 -27.5086
vn -0.0280089 0.780413 0.624637
v -5.84468 -1.40353 -27.521
vn -0.0268966 0.837922 0.545127
v -5.84447 -1.39586 -27.5341
vn -0.0255253 0.887362 0.460366
v -5.84422 -1.38951 -27.5479
vn -0.0239082 0.928256 0.371172
v -5.84393 -1.38455 -27.5623
vn -0.0220609 0.960211 0.278403
v -5.84361 -1.38103 -27.5772
vn -0.0200011 0.982918 0.182953
v -4.89746 -1.37398 -27.5692
vn -0.000481225 0.996281 0.0861653
v -4.8971 -1.37342 -27.5842
vn 0.00185899 0.999928 -0.0118743
v -4.89674 -1.37434 -27.5993
vn 0.00418131 0.993945 -0.1098
v -4.89639 -1.37673 -27.6141
vn 0.00646335 0.97839 -0.206667
v -4.89605 -1.38056 -27.6287
vn 0.00868315 0.953412 -0.301545
v -4.89572 -1.38581 -27.6428
vn 0.0108193 0.919253 -0.393518
v -4.89541 -1.39241 -27.6564
vn 0.0128513 0.876241 -0.481702
v -4.89512 -1.40031 -27.6692
vn 0.0147595 0.82479 -0.565247
v -4.89485 -1.40943 -27.6812
vn 0.0165256 0.765396 -0.643348
v -4.8946 -1.41969 -27.6922
vn 0.0181325 0.69863 -0.715253
v -4.89438 -1.43097 -27.7022
vn 0.0195648 0.625137 -0.78027
v -4.89419 -1.44318 -27.711
vn 0.0208087 0.545623 -0.837772
v -4.89403 -1.4562 -27.7186
vn 0.0218522 0.460854 -0.887207
v -4.8939 -1.4699 -27.7249
vn 0.0226852 0.371648 -0.928097
v -4.89381 -1.48414 -27.7298
vn 0.0232998 0.278862 -0.960049
v -4.89375 -1.4988 -27.7333
vn 0.0236899 0.18339 -0.982755
v -4.89372 -1.51374 -27.7353
vn 0.0238519 0.0861523 -0.995996
v -4.89373 -1.52879 -27.7359
vn 0.0237843 -0.0119152 -0.999646
v -4.89378 -1.54384 -27.735
vn 0.0234875 -0.109868 -0.993669
v -4.89386 -1.55871 -27.7326
vn 0.0229646 -0.206762 -0.978122
v -4.89397 -1.57329 -27.7288
vn 0.0222205 -0.301666 -0.953155
v -4.89412 -1.58741 -27.7235
vn 0.0212624 -0.393664 -0.919008
v -4.8943 -1.60096 -27.7169
vn 0.0200995 -0.481871 -0.876012
v -4.89451 -1.61379 -27.709
vn 0.0187431 -0.565437 -0.824578
v -4.89474 -1.62579 -27.6999
vn 0.0172062 -0.643558 -0.765204
v -4.895 -1.63683 -27.6896
vn 0.0155035 -0.715481 -0.69846
v -4.89529 -1.64682 -27.6784
vn 0.0136516 -0.780514 -0.62499
v -4.89559 -1.65565 -27.6662
vn 0.0116681 -0.838029 -0.545501
v -4.89592 -1.66324 -27.6531
vn 0.00957234 -0.887474 -0.460758
v -4.89625 -1.66952 -27.6395
vn 0.00738436 -0.928373 -0.371578
v -4.8966 -1.67443 -27.6252
vn 0.00512526 -0.96033 -0.278819
v -4.89695 -1.67792 -27.6106
vn 0.00281681 -0.983039 -0.183375
v -4.89731 -1.67995 -27.5956
vn 0.000481225 -0.996281 -0.0861653
v -4.89767 -1.68051 -27.5806
vn -0.00185899 -0.999928 0.0118743
v -4.89803 -1.67959 -27.5655
vn -0.00418131 -0.993945 0.1098
v -4.89838 -1.6772 -27.5507
vn -0.00646335 -0.97839 0.206667
v -4.89872 -1.67337 -27.5361
vn -0.00868315 -0.953412 0.301545
v -4.89905 -1.66812 -27.522
vn -0.0108193 -0.919253 0.393518
v -4.89936 -1.66152 -27.5084
vn -0.0128513 -0.876241 0.481702
v -4.89965 -1.65362 -27.4956
vn -0.0147595 -0.82479 0.565247
v -4.89992 -1.64449 -27.4836
vn -0.0165256 -0.765396 0.643348
v -4.90017 -1.63424 -27.4726
vn -0.0181325 -0.69863 0.715253
v -4.90039 -1.62296 -27.4626
vn -0.0195648 -0.625137 0.78027
v -4.90058 -1.61075 -27.4538
vn -0.0208087 -0.545623 0.837772
v -4.90074 -1.59773 -27.4462
vn -0.0218522 -0.460854 0.887207
v -4.90087 -1.58403 -27.4399
vn -0.0226852 -0.371648 0.928097
v -4.90096 -1.56979 -27.435
vn -0.0232998 -0.278862 0.960049
v -4.90102 -1.55513 -27.4315
vn -0.0236899 -0.18339 0.982755
v -4.90105 -1.54019 -27.4295
vn -0.0238519 -0.0861523 0.995996
v -4.90104 -1.52513 -27.4289
vn -0.0237843 0.0119152 0.999646
v -4.90099 -1.51009 -27.4298
vn -0.0234875 0.109868 0.993669
v -4.90091 -1.49522 -27.4322
vn -0.0229646 0.206762 0.978122
v -4.9008 -1.48064 -27.436
vn -0.0222205 0.301666 0.953155
v -4.90065 -1.46652 -27.4413
vn -0.0212624 0.393664 0.919008
v -4.90047 -1.45297 -27.4479
vn -0.0200995 0.481871 0.876012
v -4.90026 -1.44014 -27.4558
vn -0.0187431 0.565437 0.824578
v -4.90003 -1.42814 -27.4649
vn -0.0172062 0.643558 0.765204
v -4.89977 -1.4171 -27.4751
vn -0.0155035 0.715481 0.69846
v -4.89948 -1.40711 -27.4864
vn -0.0136516 0.780514 0.62499
v -4.89918 -1.39828 -27.4986
vn -0.0116681 0.838029 0.545501
v -4.89886 -1.39069 -27.5116
vn -0.00957234 0.887474 0.460758
v -4.89852 -1.38441 -27.5253
vn -0.00738436 0.928373 0.371578
v -4.89817 -1.3795 -27.5396
vn -0.00512526 0.96033 0.278819
v -4.89782 -1.37601 -27.5542
vn -0.00281681 0.983039 0.183375
v -3.9461 -1.38523 -27.5474
vn 0.0165817 0.996109 0.0865591
v -3.94575 -1.38468 -27.5622
vn 0.0188398 0.999757 -0.0114825
v -3.94544 -1.38558 -27.5771
vn 0.0209164 0.993776 -0.109413
v -3.94515 -1.38795 -27.5918
vn 0.0227916 0.978225 -0.206291
v -3.9449 -1.39174 -27.6063
vn 0.0244473 0.953253 -0.301181
v -3.94469 -1.39693 -27.6202
vn 0.0258675 0.919101 -0.393171
v -3.94451 -1.40346 -27.6336
vn 0.0270386 0.876098 -0.481375
v -3.94437 -1.41128 -27.6463
vn 0.0279494 0.824657 -0.564942
v -3.94427 -1.4203 -27.6582
vn 0.0285909 0.765274 -0.643069
v -3.94422 -1.43044 -27.6691
vn 0.0289571 0.698521 -0.715003
v -3.9442 -1.4416 -27.679
vn 0.0290445 0.625041 -0.780051
v -3.94423 -1.45368 -27.6877
vn 0.0288521 0.545542 -0.837587
v -3.9443 -1.46655 -27.6953
vn 0.0283819 0.460789 -0.887056
v -3.94442 -1.4801 -27.7015
vn 0.0276383 0.371598 -0.927982
v -3.94457 -1.4942 -27.7063
vn 0.0266286 0.278828 -0.959972
v -3.94476 -1.5087 -27.7098
vn 0.0253624 0.183373 -0.982716
v -3.94499 -1.52347 -27.7118
vn 0.0238519 0.0861523 -0.995996
v -3.94526 -1.53836 -27.7124
vn 0.0221118 -0.0118983 -0.999685
v -3.94555 -1.55324 -27.7115
vn 0.0201587 -0.109834 -0.993745
v -3.94588 -1.56796 -27.7091
vn 0.0180115 -0.206713 -0.978236
v -3.94623 -1.58237 -27.7053
vn 0.0156908 -0.3016 -0.953305
v -3.94661 -1.59635 -27.7001
vn 0.013219 -0.393583 -0.919194
v -3.947 -1.60974 -27.6936
vn 0.0106199 -0.481775 -0.87623
v -3.94741 -1.62244 -27.6858
vn 0.00791846 -0.565328 -0.824828
v -3.94784 -1.6343 -27.6768
vn 0.00514082 -0.643436 -0.765482
v -3.94827 -1.64523 -27.6667
vn 0.00231366 -0.715348 -0.698765
v -3.9487 -1.6551 -27.6555
vn -0.000535777 -0.78037 -0.625317
v -3.94913 -1.66384 -27.6434
vn -0.00338005 -0.837878 -0.545848
v -3.94956 -1.67135 -27.6306
vn -0.00619178 -0.887315 -0.461121
v -3.94998 -1.67756 -27.617
vn -0.00894388 -0.928208 -0.371954
v -3.95038 -1.68242 -27.6029
vn -0.0116098 -0.960161 -0.279205
v -3.95077 -1.68587 -27.5884
vn -0.014164 -0.982868 -0.183767
v -3.95114 -1.68788 -27.5737
vn -0.0165817 -0.996109 -0.0865591
v -3.95148 -1.68843 -27.5588
vn -0.0188398 -0.999757 0.0114825
v -3.95179 -1.68752 -27.5439
vn -0.0209164 -0.993776 0.109413
v -3.95208 -1.68516 -27.5292
vn -0.0227916 -0.978225 0.206291
v -3.95233 -1.68137 -27.5147
vn -0.0244473 -0.953253 0.301181
v -3.95255 -1.67618 -27.5008
vn -0.0258675 -0.919101 0.393171
v -3.95272 -1.66965 -27.4874
vn -0.0270386 -0.876098 0.481375
v -3.95286 -1.66183 -27.4747
vn -0.0279494 -0.824657 0.564942
v -3.95296 -1.65281 -27.4628
vn -0.0285909 -0.765274 0.643069
v -3.95302 -1.64267 -27.4519
vn -0.0289571 -0.698521 0.715003
v -3.95303 -1.63151 -27.442
vn -0.0290445 -0.625041 0.780051
v -3.953 -1.61943 -27.4333
vn -0.0288521 -0.545542 0.837587
v -3.95293 -1.60655 -27.4257
vn -0.0283819 -0.460789 0.887056
v -3.95282 -1.59301 -27.4195
vn -0.0276383 -0.371598 0.927982
v -3.95266 -1.57891 -27.4147
vn -0.0266286 -0.278828 0.959972
v -3.95247 -1.56441 -27.4112
vn -0.0253624 -0.183373 0.982716
v -3.95224 -1.54964 -27.4092
vn -0.0238519 -0.0861523 0.995996
v -3.95198 -1.53475 -27.4086
vn -0.0221118 0.0118983 0.999685
v -3.95168 -1.51987 -27.4095
vn -0.0201587 0.109834 0.993745
v -3.95135 -1.50515 -27.4119
vn -0.0180115 0.206713 0.978236
v -3.951 -1.49074 -27.4157
vn -0.0156908 0.3016 0.953305
v -3.95062 -1.47676 -27.4209
vn -0.013219 0.393583 0.919194
v -3.95023 -1.46337 -27.4274
vn -0.0106199 0.481775 0.87623
v -3.94982 -1.45067 -27.4352
vn -0.00791846 0.565328 0.824828
v -3.9494 -1.43881 -27.4442
vn -0.00514082 0.643436 0.765482
v -3.94897 -1.42788 -27.4544
vn -0.00231366 0.715348 0.698765
v -3.94854 -1.418 -27.4655
vn 0.000535777 0.78037 0.625317
v -3.9481 -1.40927 -27.4776
vn 0.00338005 0.837878 0.545848
v -3.94768 -1.40176 -27.4905
vn 0.00619178 0.887315 0.461121
v -3.94726 -1.39555 -27.504
vn 0.00894388 0.928208 0.371954
v -3.94685 -1.39069 -27.5181
vn 0.0116098 0.960161 0.279205
v -3.94646 -1.38724 -27.5326
vn 0.014164 0.982868 0.183767
f 1 66 2 
f 1 65 66 
f 2 67 3 
f 2 66 67 
f 3 68 4 
f 3 67 68 
f 4 69 5 
f 4 68 69 
f 5 70 6 
f 5 69 70 
f 6 71 7 
f 6 70 71 
f 7 72 8 
f 7 71 72 
f 8 73 9 
f 8 72 73 
f 9 74 10 
f 9 73 74 
f 10 75 11 
f 10 74 75 
f 11 76 12 
f 11 75 76 
f 12 77 13 
f 12 76 77 
f 13 78 14 
f 13 77 78 
f 14 79 15 
f 14 78 79 
f 15 80 16 
f 15 79 80 
f 16 81 17 
f 16 80 81 
f 17 82 18 
f 17 81 82 
f 18 83 19 
f 18 82 83 
f 19 84 20 
f 19 83 84 
f 20 85 21 
f 20 84 85 
f 21 86 22 
f 21 85 86 
f 22 87 23 
f 22 86 87 
f 23 88 24 
f 23 87 88 
f 24 89 25 
f 24 88 89 
f 25 90 26 
f 25 89 90 
f 26 91 27 
f 26 90 91 
f 27 92 28 
f 27 91 92 
f 28 93 29 
f 28 92 93 
f 29 94 30 
f 29 93 94 
f 30 95 31 
f 30 94 95 
f 31 96 32 
f 31 95 96 
f 32 97 33 
f 32 96 97 
f 33 98 34 
f 33 97 98 
f 34 99 35 
f 34 98 99 
f 35 100 36 
f 35 99 100 
f 36 101 37 
f 36 100 101 
f 37 102 38 
f 37 101 102 
f 38 103 39 
f 38 102 103 
f 39 104 40 
f 39 103 104 
f 40 105 41 
f 40 104 105 
f 41 106 42 
f 41 105 106 
f 42 107 43 
f 42 106 107 
f 43 108 44 
f 43 107 108 
f 44 109 45 
f 44 108 109 
f 45 110 46 
f 45 109 110 
f 46 111 47 
f 46 110 111 
f 47 112 48 
f 47 111 112 
f 48 113 49 
f 48 112 113 
f 49 114 50 
f 49 113 114 
f 50 115 51 
f 50 114 115 
f 51 116 52 
f 51 115 116 
f 52 117 53 
f 52 116 117 
f 53 118 54 
f 53 117 118 
f 54 119 55 
f 54 118 119 
f 55 120 56 
f 55 119 120 
f 56 121 57 
f 56 120 121 
f 57 122 58 
f 57 121 122 
f 58 123 59 
f 58 122 123 
f 59 124 60 
f 59 123 124 
f 60 125 61 
f 60 124 125 
f 61 126 62 
f 61 125 126 
f 62 127 63 
f 62 126 127 
f 63 128 64 
f 63 127 128 
f 64 65 1 
f 64 128 65 
f 65 130 66 
f 65 129 130 
f 66 131 67 
f 66 130 131 
f 67 132 68 
f 67 131 132 
f 68 133 69 
f 68 132 133 
f 69 134 70 
f 69 133 134 
f 70 135 71 
f 70 134 135 
f 71 136 72 
f 71 135 136 
f 72 137 73 
f 72 136 137 
f 73 138 74 
f 73 137 138 
f 74 139 75 
f 74 138 139 
f 75 140 76 
f 75 139 140 
f 76 141 77 
f 76 140 141 
f 77 142 78 
f 77 141 142 
f 78 143 79 
f 78 142 143 
f 79 144 80 
f 79 143 144 
f 80 145 81 
f 80 144 145 
f 81 146 82 
f 81 145 146 
f 82 147 83 
f 82 146 147 
f 83 148 84 
f 83 147 148 
f 84 149 85 
f 84 148 149 
f 85 150 86 
f 85 149 150 
f 86 151 87 
f 86 150 151 
f 87 152 88 
f 87 151 152 
f 88 153 89 
f 88 152 153 
f 89 154 90 
f 89 153 154 
f 90 155 91 
f 90 154 155 
f 91 156 92 
f 91 155 156 
f 92 157 93 
f 92 156 157 
f 93 158 94 
f 93 157 158 
f 94 159 95 
f 94 158 159 
f 95 160 96 
f 95 159 160 
f 96 161 97 
f 96 160 161 
f 97 162 98 
f 97 161 162 
f 98 163 99 
f 98 162 163 
f 99 164 100 
f 99 163 164 
f 100 165 101 
f 100 164 165 
f 101 166 102 
f 101 165 166 
f 102 167 103 
f 102 166 167 
f 103 168 104 
f 103 167 168 
f 104 169 105 
f 104 168 169 
f 105 170 106 
f 105 169 170 
f 106 171 107 
f 106 170 171 
f 107 172 108 
f 107 171 172 
f 108 173 109 
f 108 172 173 
f 109 174 110 
f 109 173 174 
f 110 175 111 
f 110 174 175 
f 111 176 112 
f 111 175 176 
f 112 177 113 
f 112 176 177 
f 113 178 114 
f 113 177 178 
f 114 179 115 
f 114 178 179 
f 115 180 116 
f 115 179 180 
f 116 181 117 
f 116 180 181 
f 117 182 118 
f 117 181 182 
f 118 183 119 
f 118 182 183 
f 119 184 120 
f 119 183 184 
f 120 185 121 
f 120 184 185 
f 121 186 122 
f 121 185 186 
f 122 187 123 
f 122 186 187 
f 123 188 124 
f 123 187 188 
f 124 189 125 
f 124 188 189 
f 125 190 126 
f 125 189 190 
f 126 191 127 
f 126 190 191 
f 127 192 128 
f 127 191 192 
f 128 129 65 
f 128 192 129 
f 129 194 130 
f 129 193 194 
f 130 195 131 
f 130 194 195 
f 131 196 132 
f 131 195 196 
f 132 197 133 
f 132 196 197 
f 133 198 134 
f 133 197 198 
f 134 199 135 
f 134 198 199 
f 135 200 136 
f 135 199 200 
f 136 201 137 
f 136 200 201 
f 137 202 138 
f 137 201 202 
f 138 203 139 
f 138 202 203 
f 139 204 140 
f 139 203 204 
f 140 205 141 
f 140 204 205 
f 141 206 142 
f 141 205 206 
f 142 207 143 
f 142 206 207 
f 143 208 144 
f 143 207 208 
f 144 209 145 
f 144 208 209 
f 145 210 146 
f 145 209 210 
f 146 211 147 
f 146 210 211 
f 147 212 148 
f 147 211 212 
f 148 213 149 
f 148 212 213 
f 149 214 150 
f 149 213 214 
f 150 215 151 
f 150 214 215 
f 151 216 152 
f 151 215 216 
f 152 217 153 
f 152 216 217 
f 153 218 154 
f 153 217 218 
f 154 219 155 
f 154 218 219 
f 155 220 156 
f 155 219 220 
f 156 221 157 
f 156 220 221 
f 157 222 158 
f 157 221 222 
f 158 223 159 
f 158 222 223 
f 159 224 160 
f 159 223 224 
f 160 225 161 
f 160 224 225 
f 161 226 162 
f 161 225 226 
f 162 227 163 
f 162 226 227 
f 163 228 164 
f 163 227 228 
f 164 229 165 
f 164 228 229 
f 165 230 166 
f 165 229 230 
f 166 231 167 
f 166 230 231 
f 167 232 168 
f 167 231 232 
f 168 233 169 
f 168 232 233 
f 169 234 170 
f 169 233 234 
f 170 235 171 
f 170 234 235 
f 171 236 172 
f 171 235 236 
f 172 237 173 
f 172 236 237 
f 173 238 174 
f 173 237 238 
f 174 239 175 
f 174 238 239 
f 175 240 176 
f 175 239 240 
f 176 241 177 
f 176 240 241 
f 177 242 178 
f 177 241 242 
f 178 243 179 
f 178 242 243 
f 179 244 180 
f 179 243 244 
f 180 245 181 
f 180 244 245 
f 181 246 182 
f 181 245 246 
f 182 247 183 
f 182 246 247 
f 183 248 184 
f 183 247 248 
f 184 249 185 
f 184 248 249 
f 185 250 186 
f 185 249 250 
f 186 251 187 
f 186 250 251 
f 187 252 188 
f 187 251 252 
f 188 253 189 
f 188 252 253 
f 189 254 190 
f 189 253 254 
f 190 255 191 
f 190 254 255 
f 191 256 192 
f 191 255 256 
f 192 193 129 
f 192 256 193 
f 193 258 194 
f 193 257 258 
f 194 259 195 
f 194 258 259 
f 195 260 196 
f 195 259 260 
f 196 261 197 
f 196 260 261 
f 197 262 198 
f 197 261 262 
f 198 263 199 
f 198 262 263 
f 199 264 200 
f 199 263 264 
f 200 265 201 
f 200 264 265 
f 201 266 202 
f 201 265 266 
f 202 267 203 
f 202 266 267 
f 203 268 204 
f 203 267 268 
f 204 269 205 
f 204 268 269 
f 205 270 206 
f 205 269 270 
f 206 271 207 
f 206 270 271 
f 207 272 208 
f 207 271 272 
f 208 273 209 
f 208 272 273 
f 209 274 210 
f 209 273 274 
f 210 275 211 
f 210 274 275 
f 211 276 212 
f 211 275 276 
f 212 277 213 
f 212 276 277 
f 213 278 214 
f 213 277 278 
f 214 279 215 
f 214 278 279 
f 215 280 216 
f 215 279 280 
f 216 281 217 
f 216 280 281 
f 217 282 218 
f 217 281 282 
f 218 283 219 
f 218 282 283 
f 219 284 220 
f 219 283 284 
f 220 285 221 
f 220 284 285 
f 221 286 222 
f 221 285 286 
f 222 287 223 
f 222 286 287 
f 223 288 224 
f 223 287 288 
f 224 289 225 
f 224 288 289 
f 225 290 226 
f 225 289 290 
f 226 291 227 
f 226 290 291 
f 227 292 228 
f 227 291 292 
f 228 293 229 
f 228 292 293 
f 229 294 230 
f 229 293 294 
f 230 295 231 
f 230 294 295 
f 231 296 232 
f 231 295 296 
f 232 297 233 
f 232 296 297 
f 233 298 234 
f 233 297 298 
f 234 299 235 
f 234 298 299 
f 235 300 236 
f 235 299 300 
f 236 301 237 
f 236 300 301 
f 237 302 238 
f 237 301 302 
f 238 303 239 
f 238 302 303 
f 239 304 240 
f 239 303 304 
f 240 305 241 
f 240 304 305 
f 241 306 242 
f 241 305 306 
f 242 307 243 
f 242 306 307 
f 243 308 244 
f 243 307 308 
f 244 309 245 
f 244 308 309 
f 245 310 246 
f 245 309 310 
f 246 311 247 
f 246 310 311 
f 247 312 248 
f 247 311 312 
f 248 313 249 
f 248 312 313 
f 249 314 250 
f 249 313 314 
f 250 315 251 
f 250 314 315 
f 251 316 252 
f 251 315 316 
f 252 317 253 
f 252 316 317 
f 253 318 254 
f 253 317 318 
f 254 319 255 
f 254 318 319 
f 255 320 256 
f 255 319 320 
f 256 257 193 
f 256 320 257 
f 257 322 258 
f 257 321 322 
f 258 323 259 
f 258 322 323 
f 259 324 260 
f 259 323 324 
f 260 325 261 
f 260 324 325 
f 261 326 262 
f 261 325 326 
f 262 327 263 
f 262 326 327 
f 263 328 264 
f 263 327 328 
f 264 329 265 
f 264 328 329 
f 265 330 266 
f 265 329 330 
f 266 331 267 
f 266 330 331 
f 267 332 268 
f 267 331 332 
f 268 333 269 
f 268 332 333 
f 269 334 270 
f 269 333 334 
f 270 335 271 
f 270 334 335 
f 271 336 272 
f 271 335 336 
f 272 337 273 
f 272 336 337 
f 273 338 274 
f 273 337 338 
f 274 339 275 
f 274 338 339 
f 275 340 276 
f 275 339 340 
f 276 341 277 
f 276 340 341 
f 277 342 278 
f 277 341 342 
f 278 343 279 
f 278 342 343 
f 279 344 280 
f 279 343 344 
f 280 345 281 
f 280 344 345 
f 281 346 282 
f 281 345 346 
f 282 347 283 
f 282 346 347 
f 283 348 284 
f 283 347 348 
f 284 349 285 
f 284 348 349 
f 285 350 286 
f 285 349 350 
f 286 351 287 
f 286 350 351 
f 287 352 288 
f 287 351 352 
f 288 353 289 
f 288 352 353 
f 289 354 290 
f 289 353 354 
f 290 355 291 
f 290 354 355 
f 291 356 292 
f 291 355 356 
f 292 357 293 
f 292 356 357 
f 293 358 294 
f 293 357 358 
f 294 359 295 
f 294 358 359 
f 295 360 296 
f 295 359 360 
f 296 361 297 
f 296 360 361 
f 297 362 298 
f 297 361 362 
f 298 363 299 
f 298 362 363 
f 299 364 300 
f 299 363 364 
f 300 365 301 
f 300 364 365 
f 301 366 302 
f 301 365 366 
f 302 367 303 
f 302 366 367 
f 303 368 304 
f 303 367 368 
f 304 369 305 
f 304 368 369 
f 305 370 306 
f 305 369 370 
f 306 371 307 
f 306 370 371 
f 307 372 308 
f 307 371 372 
f 308 373 309 
f 308 372 373 
f 309 374 310 
f 309 373 374 
f 310 375 311 
f 310 374 375 
f 311 376 312 
f 311 375 376 
f 312 377 313 
f 312 376 377 
f 313 378 314 
f 313 377 378 
f 314 379 315 
f 314 378 379 
f 315 380 316 
f 315 379 380 
f 316 381 317 
f 316 380 381 
f 317 382 318 
f 317 381 382 
f 318 383 319 
f 318 382 383 
f 319 384 320 
f 319 383 384 
f 320 321 257 
f 320 384 321 
f 321 386 322 
f 321 385 386 
f 322 387 323 
f 322 386 387 
f 323 388 324 
f 323 387 388 
f 324 389 325 
f 324 388 389 
f 325 390 326 
f 325 389 390 
f 326 391 327 
f 326 390 391 
f 327 392 328 
f 327 391 392 
f 328 393 329 
f 328 392 393 
f 329 394 330 
f 329 393 394 
f 330 395 331 
f 330 394 395 
f 331 396 332 
f 331 395 396 
f 332 397 333 
f 332 396 397 
f 333 398 334 
f 333 397 398 
f 334 399 335 
f 334 398 399 
f 335 400 336 
f 335 399 400 
f 336 401 337 
f 336 400 401 
f 337 402 338 
f 337 401 402 
f 338 403 339 
f 338 402 403 
f 339 404 340 
f 339 403 404 
f 340 405 341 
f 340 404 405 
f 341 406 342 
f 341 405 406 
f 342 407 343 
f 342 406 407 
f 343 408 344 
f 343 407 408 
f 344 409 345 
f 344 408 409 
f 345 410 346 
f 345 409 410 
f 346 411 347 
f 346 410 411 
f 347 412 348 
f 347 411 412 
f 348 413 349 
f 348 412 413 
f 349 414 350 
f 349 413 414 
f 350 415 351 
f 350 414 415 
f 351 416 352 
f 351 415 416 
f 352 417 353 
f 352 416 417 
f 353 418 354 
f 353 417 418 
f 354 419 355 
f 354 418 419 
f 355 420 356 
f 355 419 420 
f 356 421 357 
f 356 420 421 
f 357 422 358 
f 357 421 422 
f 358 423 359 
f 358 422 423 
f 359 424 360 
f 359 423 424 
f 360 425 361 
f 360 424 425 
f 361 426 362 
f 361 425 426 
f 362 427 363 
f 362 426 427 
f 363 428 364 
f 363 427 428 
f 364 429 365 
f 364 428 429 
f 365 430 366 
f 365 429 430 
f 366 431 367 
f 366 430 431 
f 367 432 368 
f 367 431 432 
f 368 433 369 
f 368 432 433 
f 369 434 370 
f 369 433 434 
f 370 435 371 
f 370 434 435 
f 371 436 372 
f 371 435 436 
f 372 437 373 
f 372 436 437 
f 373 438 374 
f 373 437 438 
f 374 439 375 
f 374 438 439 
f 375 440 376 
f 375 439 440 
f 376 441 377 
f 376 440 441 
f 377 442 378 
f 377 441 442 
f 378 443 379 
f 378 442 443 
f 379 444 380 
f 379 443 444 
f 380 445 381 
f 380 444 445 
f 381 446 382 
f 381 445 446 
f 382 447 383 
f 382 446 447 
f 383 448 384 
f 383 447 448 
f 384 385 321 
f 384 448 385 
f 385 450 386 
f 385 449 450 
f 386 451 387 
f 386 450 451 
f 387 452 388 
f 387 451 452 
f 388 453 389 
f 388 452 453 
f 389 454 390 
f 389 453 454 
f 390 455 391 
f 390 454 455 
f 391 456 392 
f 391 455 456 
f 392 457 393 
f 392 456 457 
f 393 458 394 
f 393 457 458 
f 394 459 395 
f 394 458 459 
f 395 460 396 
f 395 459 460 
f 396 461 397 
f 396 460 461 
f 397 462 398 
f 397 461 462 
f 398 463 399 
f 398 462 463 
f 399 464 400 
f 399 463 464 
f 400 465 401 
f 400 464 465 
f 401 466 402 
f 401 465 466 
f 402 467 403 
f 402 466 467 
f 403 468 404 
f 403 467 468 
f 404 469 405 
f 404 468 469 
f 405 470 406 
f 405 469 470 
f 406 471 407 
f 406 470 471 
f 407 472 408 
f 407 471 472 
f 408 473 409 
f 408 472 473 
f 409 474 410 
f 409 473 474 
f 410 475 411 
f 410 474 475 
f 411 476 412 
f 411 475 476 
f 412 477 413 
f 412 476 477 
f 413 478 414 
f 413 477 478 
f 414 479 415 
f 414 478 479 
f 415 480 416 
f 415 479 480 
f 416 481 417 
f 416 480 481 
f 417 482 418 
f 417 481 482 
f 418 483 419 
f 418 482 483 
f 419 484 420 
f 419 483 484 
f 420 485 421 
f 420 484 485 
f 421 486 422 
f 421 485 486 
f 422 487 423 
f 422 486 487 
f 423 488 424 
f 423 487 488 
f 424 489 425 
f 424 488 489 
f 425 490 426 
f 425 489 490 
f 426 491 427 
f 426 490 491 
f 427 492 428 
f 427 491 492 
f 428 493 429 
f 428 492 493 
f 429 494 430 
f 429 493 494 
f 430 495 431 
f 430 494 495 
f 431 496 432 
f 431 495 496 
f 432 497 433 
f 432 496 497 
f 433 498 434 
f 433 497 498 
f 434 499 435 
f 434 498 499 
f 435 500 436 
f 435 499 500 
f 436 501 437 
f 436 500 501 
f 437 502 438 
f 437 501 502 
f 438 503 439 
f 438 502 503 
f 439 504 440 
f 439 503 504 
f 440 505 441 
f 440 504 505 
f 441 506 442 
f 441 505 506 
f 442 507 443 
f 442 506 507 
f 443 508 444 
f 443 507 508 
f 444 509 445 
f 444 508 509 
f 445 510 446 
f 445 509 510 
f 446 511 447 
f 446 510 511 
f 447 512 448 
f 447 511 512 
f 448 449 385 
f 448 512 449 
f 449 514 450 
f 449 513 514 
f 450 515 451 
f 450 514 515 
f 451 516 452 
f 451 515 516 
f 452 517 453 
f 452 516 517 
f 453 518 454 
f 453 517 518 
f 454 519 455 
f 454 518 519 
f 455 520 456 
f 455 519 520 
f 456 521 457 
f 456 520 521 
f 457 522 458 
f 457 521 522 
f 458 523 459 
f 458 522 523 
f 459 524 460 
f 459 523 524 
f 460 525 461 
f 460 524 525 
f 461 526 462 
f 461 525 526 
f 462 527 463 
f 462 526 527 
f 463 528 464 
f 463 527 528 
f 464 529 465 
f 464 528 529 
f 465 530 466 
f 465 529 530 
f 466 531 467 
f 466 530 531 
f 467 532 468 
f 467 531 532 
f 468 533 469 
f 468 532 533 
f 469 534 470 
f 469 533 534 
f 470 535 471 
f 470 534 535 
f 471 536 472 
f 471 535 536 
f 472 537 473 
f 472 536 537 
f 473 538 474 
f 473 537 538 
f 474 539 475 
f 474 538 539 
f 475 540 476 
f 475 539 540 
f 476 541 477 
f 476 540 541 
f 477 542 478 
f 477 541 542 
f 478 543 479 
f 478 542 543 
f 479 544 480 
f 479 543 544 
f 480 545 481 
f 480 544 545 
f 481 546 482 
f 481 545 546 
f 482 547 483 
f 482 546 547 
f 483 548 484 
f 483 547 548 
f 484 549 485 
f 484 548 549 
f 485 550 486 
f 485 549 550 
f 486 551 487 
f 486 550 551 
f 487 552 488 
f 487 551 552 
f 488 553 489 
f 488 552 553 
f 489 554 490 
f 489 553 554 
f 490 555 491 
f 490 554 555 
f 491 556 492 
f 491 555 556 
f 492 557 493 
f 492 556 557 
f 493 558 494 
f 493 557 558 
f 494 559 495 
f 494 558 559 
f 495 560 496 
f 495 559 560 
f 496 561 497 
f 496 560 561 
f 497 562 498 
f 497 561 562 
f 498 563 499 
f 498 562 563 
f 499 564 500 
f 499 563 564 
f 500 565 501 
f 500 564 565 
f 501 566 502 
f 501 565 566 
f 502 567 503 
f 502 566 567 
f 503 568 504 
f 503 567 568 
f 504 569 505 
f 504 568 569 
f 505 570 506 
f 505 569 570 
f 506 571 507 
f 506 570 571 
f 507 572 508 
f 507 571 572 
f 508 573 509 
f 508 572 573 
f 509 574 510 
f 509 573 574 
f 510 575 511 
f 510 574 575 
f 511 576 512 
f 511 575 576 
f 512 513 449 
f 512 576 513 
f 513 578 514 
f 513 577 578 
f 514 579 515 
f 514 578 579 
f 515 580 516 
f 515 579 580 
f 516 581 517 
f 516 580 581 
f 517 582 518 
f 517 581 582 
f 518 583 519 
f 518 582 583 
f 519 584 520 
f 519 583 584 
f 520 585 521 
f 520 584 585 
f 521 586 522 
f 521 585 586 
f 522 587 523 
f 522 586 587 
f 523 588 524 
f 523 587 588 
f 524 589 525 
f 524 588 589 
f 525 590 526 
f 525 589 590 
f 526 591 527 
f 526 590 591 
f 527 592 528 
f 527 591 592 
f 528 593 529 
f 528 592 593 
f 529 594 530 
f 529 593 594 
f 530 595 531 
f 530 594 595 
f 531 596 532 
f 531 595 596 
f 532 597 533 
f 532 596 597 
f 533 598 534 
f 533 597 598 
f 534 599 535 
f 534 598 599 
f 535 600 536 
f 535 599 600 
f 536 601 537 
f 536 600 601 
f 537 602 538 
f 537 601 602 
f 538 603 539 
f 538 602 603 
f 539 604 540 
f 539 603 604 
f 540 605 541 
f 540 604 605 
f 541 606 542 
f 541 605 606 
f 542 607 543 
f 542 606 607 
f 543 608 544 
f 543 607 608 
f 544 609 545 
f 544 608 609 
f 545 610 546 
f 545 609 610 
f 546 611 547 
f 546 610 611 
f 547 612 548 
f 547 611 612 
f 548 613 549 
f 548 612 613 
f 549 614 550 
f 549 613 614 
f 550 615 551 
f 550 614 615 
f 551 616 552 
f 551 615 616 
f 552 617 553 
f 552 616 617 
f 553 618 554 
f 553 617 618 
f 554 619 555 
f 554 618 619 
f 555 620 556 
f 555 619 620 
f 556 621 557 
f 556 620 621 
f 557 622 558 
f 557 621 622 
f 558 623 559 
f 558 622 623 
f 559 624 560 
f 559 623 624 
f 560 625 561 
f 560 624 625 
f 561 626 562 
f 561 625 626 
f 562 627 563 
f 562 626 627 
f 563 628 564 
f 563 627 628 
f 564 629 565 
f 564 628 629 
f 565 630 566 
f 565 629 630 
f 566 631 567 
f 566 630 631 
f 567 632 568 
f 567 631 632 
f 568 633 569 
f 568 632 633 
f 569 634 570 
f 569 633 634 
f 570 635 571 
f 570 634 635 
f 571 636 572 
f 571 635 636 
f 572 637 573 
f 572 636 637 
f 573 638 574 
f 573 637 638 
f 574 639 575 
f 574 638 639 
f 575 640 576 
f 575 639 640 
f 576 577 513 
f 576 640 577 
