# Branch
v -2.94878 4.41843 -26.464
vn -0.928127 0.341772 -0.147552
v -2.95235 4.40631 -26.4653
vn -0.95573 0.248187 -0.15806
v -2.95474 4.39388 -26.4665
vn -0.974129 0.152212 -0.167047
v -2.9559 4.38125 -26.4674
vn -0.983146 0.0547703 -0.174424
v -2.95585 4.36856 -26.4682
vn -0.982695 -0.0431985 -0.180122
v -2.95456 4.35593 -26.4687
vn -0.97278 -0.140751 -0.184085
v -2.95206 4.34347 -26.469
vn -0.953497 -0.236948 -0.186276
v -2.94838 4.3313 -26.469
vn -0.925031 -0.330864 -0.186672
v -2.94354 4.31955 -26.4688
vn -0.887657 -0.421593 -0.185271
v -2.93759 4.30833 -26.4684
vn -0.841734 -0.508261 -0.182085
v -2.93059 4.29774 -26.4678
vn -0.787704 -0.590035 -0.177146
v -2.92261 4.28788 -26.4669
vn -0.726089 -0.666127 -0.170501
v -2.91372 4.27885 -26.4659
vn -0.65748 -0.735803 -0.162214
v -2.90402 4.27075 -26.4646
vn -0.58254 -0.798393 -0.152364
v -2.89358 4.26364 -26.4631
vn -0.50199 -0.853294 -0.141047
v -2.88252 4.25759 -26.4615
vn -0.416606 -0.899978 -0.128372
v -2.87094 4.25267 -26.4597
vn -0.327209 -0.937994 -0.114461
v -2.85896 4.24891 -26.4577
vn -0.234661 -0.966977 -0.0994471
v -2.84668 4.24636 -26.4557
vn -0.139853 -0.986647 -0.0834756
v -2.83422 4.24505 -26.4535
vn -0.0436982 -0.996816 -0.0667002
v -2.82171 4.24497 -26.4512
vn 0.0528774 -0.997384 -0.0492824
v -2.80927 4.24614 -26.4489
vn 0.148944 -0.988347 -0.0313901
v -2.79701 4.24855 -26.4466
vn 0.243576 -0.969792 -0.0131954
v -2.78506 4.25216 -26.4442
vn 0.335862 -0.941897 0.00512638
v -2.77352 4.25695 -26.4418
vn 0.424914 -0.904931 0.0233988
v -2.76252 4.26287 -26.4395
vn 0.509873 -0.859251 0.0414458
v -2.75215 4.26985 -26.4372
vn 0.589922 -0.805295 0.0590937
v -2.74252 4.27785 -26.435
vn 0.66429 -0.743584 0.0761725
v -2.73371 4.28677 -26.4329
vn 0.73226 -0.674711 0.0925177
v -2.72582 4.29653 -26.4309
vn 0.793179 -0.599341 0.107972
v -2.71892 4.30704 -26.429
vn 0.846458 -0.518199 0.122386
v -2.71308 4.3182 -26.4273
vn 0.891586 -0.432066 0.135622
v -2.70834 4.32989 -26.4257
vn 0.928127 -0.341772 0.147552
v -2.70477 4.34201 -26.4244
vn 0.95573 -0.248187 0.15806
v -2.70239 4.35444 -26.4232
vn 0.974129 -0.152212 0.167047
v -2.70122 4.36707 -26.4223
vn 0.983146 -0.0547703 0.174424
v -2.70128 4.37976 -26.4215
vn 0.982695 0.0431985 0.180122
v -2.70256 4.39239 -26.421
vn 0.97278 0.140751 0.184085
v -2.70506 4.40485 -26.4207
vn 0.953497 0.236948 0.186276
v -2.70875 4.41702 -26.4207
vn 0.925031 0.330864 0.186672
v -2.71359 4.42877 -26.4208
vn 0.887657 0.421593 0.185271
v -2.71954 4.43999 -26.4213
vn 0.841734 0.508261 0.182085
v -2.72653 4.45059 -26.4219
vn 0.787704 0.590035 0.177146
v -2.73451 4.46044 -26.4228
vn 0.726089 0.666127 0.170501
v -2.7434 4.46947 -26.4238
vn 0.65748 0.735803 0.162214
v -2.75311 4.47757 -26.4251
vn 0.58254 0.798393 0.152364
v -2.76354 4.48468 -26.4266
vn 0.50199 0.853294 0.141047
v -2.7746 4.49073 -26.4282
vn 0.416606 0.899978 0.128372
v -2.78618 4.49565 -26.43
vn 0.327209 0.937994 0.114461
v -2.79817 4.49941 -26.432
vn 0.234661 0.966977 0.0994471
v -2.81045 4.50196 -26.434
vn 0.139853 0.986647 0.0834756
v -2.8229 4.50327 -26.4362
vn 0.0436982 0.996816 0.0667002
v -2.83541 4.50335 -26.4385
vn -0.0528774 0.997384 0.0492824
v -2.84785 4.50218 -26.4408
vn -0.148944 0.988347 0.0313901
v -2.86011 4.49977 -26.4431
vn -0.243576 0.969792 0.0131954
v -2.87206 4.49616 -26.4455
vn -0.335862 0.941897 -0.00512638
v -2.8836 4.49137 -26.4479
vn -0.424914 0.904931 -0.0233988
v -2.8946 4.48546 -26.4502
vn -0.509873 0.859251 -0.0414458
v -2.90497 4.47847 -26.4525
vn -0.589922 0.805295 -0.0590937
v -2.9146 4.47047 -26.4547
vn -0.66429 0.743584 -0.0761725
v -2.92341 4.46155 -26.4568
vn -0.73226 0.674711 -0.0925177
v -2.9313 4.45179 -26.4588
vn -0.793179 0.599341 -0.107972
v -2.9382 4.44128 -26.4607
vn -0.846458 0.518199 -0.122386
v -2.94404 4.43012 -26.4624
vn -0.891586 0.432066 -0.135622
v -2.8549 4.44179 -26.9238
vn -0.916877 0.344456 -0.201707
v -2.8585 4.42961 -26.9251
vn -0.944535 0.250858 -0.211955
v -2.86091 4.41711 -26.9262
vn -0.963095 0.154844 -0.220161
v -2.86212 4.40442 -26.927
vn -0.972381 0.0573387 -0.226248
v -2.86211 4.39166 -26.9275
vn -0.972302 -0.0407188 -0.230155
v -2.86088 4.37895 -26.9277
vn -0.962859 -0.138384 -0.231846
v -2.85845 4.36642 -26.9276
vn -0.944143 -0.234717 -0.231304
v -2.85483 4.35417 -26.9273
vn -0.916335 -0.328789 -0.228535
v -2.85006 4.34234 -26.9266
vn -0.879702 -0.419695 -0.223564
v -2.84419 4.33104 -26.9257
vn -0.834597 -0.506559 -0.216441
v -2.83727 4.32037 -26.9245
vn -0.781454 -0.588544 -0.207233
v -2.82938 4.31044 -26.923
vn -0.720785 -0.664861 -0.196029
v -2.82058 4.30134 -26.9213
vn -0.653175 -0.734776 -0.182938
v -2.81096 4.29316 -26.9194
vn -0.579275 -0.797614 -0.168085
v -2.80062 4.28598 -26.9173
vn -0.499796 -0.852771 -0.151613
v -2.78965 4.27987 -26.9149
vn -0.415503 -0.899715 -0.13368
v -2.77816 4.27489 -26.9124
vn -0.327209 -0.937994 -0.114461
v -2.76626 4.27108 -26.9098
vn -0.235764 -0.96724 -0.094139
v -2.75406 4.26849 -26.907
vn -0.142048 -0.987171 -0.0729105
v -2.74169 4.26713 -26.9042
vn -0.0469639 -0.997595 -0.0509798
v -2.72925 4.26703 -26.9012
vn 0.0485723 -0.998411 -0.0285582
v -2.71688 4.26817 -26.8983
vn 0.143641 -0.989613 -0.00586155
v -2.70469 4.27056 -26.8953
vn 0.237326 -0.971283 0.0168915
v -2.69279 4.27416 -26.8924
vn 0.328725 -0.9436 0.039482
v -2.68131 4.27895 -26.8895
vn 0.416959 -0.906829 0.0616922
v -2.67035 4.28487 -26.8867
vn 0.501177 -0.861325 0.0833082
v -2.66002 4.29187 -26.884
vn 0.580568 -0.807527 0.104122
v -2.65041 4.29988 -26.8814
vn 0.654369 -0.745951 0.123933
v -2.64163 4.30883 -26.879
vn 0.721867 -0.677191 0.14255
v -2.63375 4.31863 -26.8767
vn 0.782413 -0.601909 0.159795
v -2.62685 4.32918 -26.8747
vn 0.835425 -0.520831 0.175501
v -2.621 4.34038 -26.8729
vn 0.88039 -0.434737 0.189516
v -2.61625 4.35213 -26.8713
vn 0.916877 -0.344456 0.201707
v -2.61265 4.36431 -26.8699
vn 0.944535 -0.250858 0.211955
v -2.61023 4.37681 -26.8689
vn 0.963095 -0.154844 0.220161
v -2.60903 4.3895 -26.8681
vn 0.972381 -0.0573387 0.226248
v -2.60904 4.40226 -26.8676
vn 0.972302 0.0407188 0.230155
v -2.61026 4.41497 -26.8674
vn 0.962859 0.138384 0.231846
v -2.6127 4.42751 -26.8674
vn 0.944143 0.234717 0.231304
v -2.61632 4.43975 -26.8678
vn 0.916335 0.328789 0.228535
v -2.62109 4.45158 -26.8684
vn 0.879702 0.419695 0.223564
v -2.62696 4.46289 -26.8694
vn 0.834597 0.506559 0.216441
v -2.63387 4.47356 -26.8706
vn 0.781454 0.588544 0.207233
v -2.64177 4.48349 -26.872
vn 0.720785 0.664861 0.196029
v -2.65057 4.49259 -26.8737
vn 0.653175 0.734776 0.182938
v -2.66019 4.50077 -26.8757
vn 0.579275 0.797614 0.168085
v -2.67053 4.50794 -26.8778
vn 0.499796 0.852771 0.151613
v -2.6815 4.51405 -26.8801
vn 0.415503 0.899715 0.13368
v -2.69299 4.51903 -26.8826
vn 0.327209 0.937994 0.114461
v -2.70489 4.52284 -26.8853
vn 0.235764 0.96724 0.094139
v -2.71709 4.52543 -26.888
vn 0.142048 0.987171 0.0729105
v -2.72946 4.52679 -26.8909
vn 0.0469639 0.997595 0.0509798
v -2.74189 4.5269 -26.8938
vn -0.0485723 0.998411 0.0285582
v -2.75427 4.52575 -26.8968
vn -0.143641 0.989613 0.00586155
v -2.76646 4.52337 -26.8997
vn -0.237326 0.971283 -0.0168915
v -2.77835 4.51976 -26.9027
vn -0.328725 0.9436 -0.039482
v -2.78984 4.51498 -26.9056
vn -0.416959 0.906829 -0.0616922
v -2.8008 4.50906 -26.9084
vn -0.501177 0.861325 -0.0833082
v -2.81113 4.50206 -26.9111
vn -0.580568 0.807527 -0.104122
v -2.82073 4.49404 -26.9137
vn -0.654369 0.745951 -0.123933
v -2.82952 4.48509 -26.9161
vn -0.721867 0.677191 -0.14255
v -2.8374 4.4753 -26.9183
vn -0.782413 0.601909 -0.159795
v -2.8443 4.46474 -26.9204
vn -0.835425 0.520831 -0.175501
v -2.85015 4.45354 -26.9222
vn -0.88039 0.434737 -0.189516
v -2.75208 4.45244 -27.305
vn -0.895554 0.346471 -0.27918
v -2.75571 4.4402 -27.3063
vn -0.923313 0.252864 -0.289055
v -2.75817 4.42764 -27.3072
vn -0.942181 0.15682 -0.296146
v -2.75945 4.41489 -27.3078
vn -0.951975 0.0592672 -0.300385
v -2.75954 4.40206 -27.308
vn -0.952601 -0.038857 -0.301731
v -2.75842 4.38928 -27.3077
vn -0.944053 -0.136607 -0.300171
v -2.75611 4.37667 -27.3072
vn -0.926413 -0.233041 -0.295721
v -2.75264 4.36435 -27.3062
vn -0.899851 -0.327231 -0.288422
v -2.74803 4.35245 -27.3049
vn -0.864624 -0.41827 -0.278346
v -2.74234 4.34107 -27.3032
vn -0.821069 -0.50528 -0.265589
v -2.73561 4.33033 -27.3012
vn -0.769607 -0.587424 -0.250275
v -2.72791 4.32033 -27.2989
vn -0.710733 -0.663912 -0.23255
v -2.71932 4.31116 -27.2963
vn -0.645015 -0.734005 -0.212585
v -2.70991 4.30292 -27.2934
vn -0.573085 -0.797029 -0.190574
v -2.69978 4.29568 -27.2903
vn -0.495635 -0.852378 -0.166727
v -2.68903 4.28952 -27.287
vn -0.413413 -0.899517 -0.141274
v -2.67776 4.28449 -27.2835
vn -0.327209 -0.937994 -0.114461
v -2.66608 4.28064 -27.2798
vn -0.237854 -0.967438 -0.0865453
v -2.65409 4.27801 -27.2761
vn -0.146208 -0.987564 -0.0577962
v -2.64193 4.27662 -27.2722
vn -0.0531539 -0.99818 -0.0284906
v -2.62969 4.27649 -27.2684
vn 0.040412 -0.999183 0.00108944
v -2.61751 4.27761 -27.2645
vn 0.133589 -0.990563 0.030659
v -2.60549 4.27999 -27.2607
vn 0.225479 -0.972403 0.0599333
v -2.59376 4.28359 -27.2569
vn 0.315197 -0.944878 0.0886303
v -2.58243 4.28838 -27.2533
vn 0.40188 -0.908254 0.116474
v -2.5716 4.29431 -27.2498
vn 0.484693 -0.862883 0.143196
v -2.56138 4.30133 -27.2465
vn 0.562838 -0.809202 0.168538
v -2.55187 4.30937 -27.2434
vn 0.635563 -0.747728 0.192258
v -2.54316 4.31835 -27.2405
vn 0.702166 -0.679053 0.214126
v -2.53534 4.32818 -27.2379
vn 0.762008 -0.603838 0.233932
v -2.52847 4.33878 -27.2356
vn 0.81451 -0.522808 0.251485
v -2.52263 4.35003 -27.2336
vn 0.859169 -0.436743 0.266616
v -2.51787 4.36183 -27.232
vn 0.895554 -0.346471 0.27918
v -2.51424 4.37407 -27.2307
vn 0.923313 -0.252864 0.289055
v -2.51178 4.38663 -27.2298
vn 0.942181 -0.15682 0.296146
v -2.5105 4.39939 -27.2292
vn 0.951975 -0.0592672 0.300385
v -2.51041 4.41222 -27.229
vn 0.952601 0.038857 0.301731
v -2.51153 4.425 -27.2292
vn 0.944053 0.136607 0.300171
v -2.51384 4.43761 -27.2298
vn 0.926413 0.233041 0.295721
v -2.51731 4.44993 -27.2308
vn 0.899851 0.327231 0.288422
v -2.52192 4.46183 -27.2321
vn 0.864624 0.41827 0.278346
v -2.52761 4.47321 -27.2338
vn 0.821069 0.50528 0.265589
v -2.53434 4.48395 -27.2358
vn 0.769607 0.587424 0.250275
v -2.54204 4.49395 -27.2381
vn 0.710733 0.663912 0.23255
v -2.55063 4.50311 -27.2407
vn 0.645015 0.734005 0.212585
v -2.56004 4.51136 -27.2436
vn 0.573085 0.797029 0.190574
v -2.57017 4.51859 -27.2467
vn 0.495635 0.852378 0.166727
v -2.58092 4.52476 -27.25
vn 0.413413 0.899517 0.141274
v -2.59219 4.52979 -27.2535
vn 0.327209 0.937994 0.114461
v -2.60387 4.53364 -27.2572
vn 0.237854 0.967438 0.0865453
v -2.61586 4.53627 -27.2609
vn 0.146208 0.987564 0.0577962
v -2.62802 4.53766 -27.2648
vn 0.0531539 0.99818 0.0284906
v -2.64026 4.53779 -27.2686
vn -0.040412 0.999183 -0.00108944
v -2.65244 4.53666 -27.2725
vn -0.133589 0.990563 -0.030659
v -2.66446 4.53429 -27.2763
vn -0.225479 0.972403 -0.0599333
v -2.67619 4.53069 -27.2801
vn -0.315197 0.944878 -0.0886303
v -2.68752 4.5259 -27.2837
vn -0.40188 0.908254 -0.116474
v -2.69835 4.51997 -27.2872
vn -0.484693 0.862883 -0.143196
v -2.70857 4.51295 -27.2905
vn -0.562838 0.809202 -0.168538
v -2.71808 4.50491 -27.2936
vn -0.635563 0.747728 -0.192258
v -2.72679 4.49593 -27.2965
vn -0.702166 0.679053 -0.214126
v -2.73461 4.48609 -27.2991
vn -0.762008 0.603838 -0.233932
v -2.74148 4.4755 -27.3014
vn -0.81451 0.522808 -0.251485
v -2.74732 4.46425 -27.3034
vn -0.859169 0.436743 -0.266616
v -2.63856 4.45003 -27.6098
vn -0.850954 0.345158 -0.395908
v -2.64223 4.43774 -27.611
vn -0.878929 0.251556 -0.40522
v -2.6448 4.42512 -27.6117
vn -0.898439 0.155532 -0.41063
v -2.64622 4.41231 -27.6119
vn -0.909296 0.0580098 -0.412086
v -2.6465 4.39942 -27.6116
vn -0.911397 -0.0400709 -0.409573
v -2.64562 4.38659 -27.6107
vn -0.90472 -0.137766 -0.403116
v -2.6436 4.37393 -27.6094
vn -0.88933 -0.234134 -0.392776
v -2.64045 4.36156 -27.6075
vn -0.865376 -0.328247 -0.378654
v -2.63621 4.34962 -27.6052
vn -0.833087 -0.419199 -0.360885
v -2.63092 4.3382 -27.6024
vn -0.792776 -0.506114 -0.339641
v -2.62462 4.32742 -27.5992
vn -0.744829 -0.588154 -0.315125
v -2.61738 4.31738 -27.5955
vn -0.68971 -0.664531 -0.287575
v -2.60926 4.30819 -27.5916
vn -0.627948 -0.734508 -0.257255
v -2.60035 4.29993 -27.5872
vn -0.560138 -0.797411 -0.224458
v -2.59074 4.29267 -27.5826
vn -0.486935 -0.852634 -0.189499
v -2.5805 4.2865 -27.5778
vn -0.409041 -0.899646 -0.152715
v -2.56975 4.28146 -27.5728
vn -0.327209 -0.937994 -0.114461
v -2.55859 4.27761 -27.5676
vn -0.242225 -0.967309 -0.0751039
v -2.54712 4.27498 -27.5624
vn -0.154909 -0.987308 -0.0350238
v -2.53545 4.2736 -27.557
vn -0.0661003 -0.997798 0.00539371
v -2.5237 4.27349 -27.5517
vn 0.0233446 -0.99868 0.0457592
v -2.51198 4.27463 -27.5465
vn 0.112565 -0.989943 0.0856841
v -2.5004 4.27703 -27.5414
vn 0.200701 -0.971673 0.124784
v -2.48907 4.28066 -27.5364
vn 0.286904 -0.944045 0.162682
v -2.47811 4.28549 -27.5316
vn 0.370344 -0.907325 0.199013
v -2.46762 4.29146 -27.5271
vn 0.450218 -0.861868 0.233427
v -2.45769 4.29852 -27.5229
vn 0.525755 -0.80811 0.265594
v -2.44844 4.30661 -27.519
vn 0.59623 -0.746569 0.295203
v -2.43993 4.31564 -27.5155
vn 0.660962 -0.677839 0.321969
v -2.43226 4.32552 -27.5123
vn 0.719329 -0.60258 0.345634
v -2.42551 4.33617 -27.5097
vn 0.770768 -0.521519 0.36597
v -2.41972 4.34748 -27.5075
vn 0.814785 -0.435435 0.382782
v -2.41497 4.35934 -27.5057
vn 0.850954 -0.345158 0.395908
v -2.4113 4.37164 -27.5045
vn 0.878929 -0.251556 0.40522
v -2.40873 4.38425 -27.5038
vn 0.898439 -0.155532 0.41063
v -2.40731 4.39707 -27.5036
vn 0.909296 -0.0580098 0.412086
v -2.40703 4.40995 -27.5039
vn 0.911397 0.0400709 0.409573
v -2.40791 4.42279 -27.5048
vn 0.90472 0.137766 0.403116
v -2.40993 4.43545 -27.5062
vn 0.88933 0.234134 0.392776
v -2.41308 4.44781 -27.508
vn 0.865376 0.328247 0.378654
v -2.41732 4.45976 -27.5103
vn 0.833087 0.419199 0.360885
v -2.42261 4.47118 -27.5131
vn 0.792776 0.506114 0.339641
v -2.42891 4.48196 -27.5164
vn 0.744829 0.588154 0.315125
v -2.43616 4.49199 -27.52
vn 0.68971 0.664531 0.287575
v -2.44427 4.50118 -27.524
vn 0.627948 0.734508 0.257255
v -2.45318 4.50945 -27.5283
vn 0.560138 0.797411 0.224458
v -2.46279 4.5167 -27.5329
vn 0.486935 0.852634 0.189499
v -2.47303 4.52288 -27.5377
vn 0.409041 0.899646 0.152715
v -2.48378 4.52792 -27.5427
vn 0.327209 0.937994 0.114461
v -2.49494 4.53177 -27.5479
vn 0.242225 0.967309 0.0751039
v -2.50641 4.53439 -27.5532
vn 0.154909 0.987308 0.0350238
v -2.51808 4.53577 -27.5585
vn 0.0661003 0.997798 -0.00539371
v -2.52983 4.53589 -27.5638
vn -0.0233446 0.99868 -0.0457592
v -2.54155 4.53474 -27.569
vn -0.112565 0.989943 -0.0856841
v -2.55313 4.53234 -27.5741
vn -0.200701 0.971673 -0.124784
v -2.56446 4.52871 -27.5791
vn -0.286904 0.944045 -0.162682
v -2.57542 4.52389 -27.5839
vn -0.370344 0.907325 -0.199013
v -2.58591 4.51791 -27.5884
vn -0.450218 0.861868 -0.233427
v -2.59584 4.51085 -27.5926
vn -0.525755 0.80811 -0.265594
v -2.6051 4.50277 -27.5965
vn -0.59623 0.746569 -0.295203
v -2.6136 4.49374 -27.6001
vn -0.660962 0.677839 -0.321969
v -2.62127 4.48385 -27.6032
vn -0.719329 0.60258 -0.345634
v -2.62803 4.4732 -27.6058
vn -0.770768 0.521519 -0.36597
v -2.63381 4.46189 -27.608
vn -0.814785 0.435435 -0.382782
v -2.50942 4.43327 -27.8416
vn -0.746086 0.33078 -0.577876
v -2.51318 4.42093 -27.8427
vn -0.774565 0.237248 -0.586312
v -2.51596 4.40828 -27.8431
vn -0.795585 0.141431 -0.589102
v -2.51772 4.39545 -27.8427
vn -0.808943 0.0442517 -0.586219
v -2.51845 4.38257 -27.8415
vn -0.814511 -0.0533537 -0.57769
v -2.51815 4.36975 -27.8397
vn -0.812234 -0.150445 -0.563598
v -2.51682 4.35713 -27.8371
vn -0.802135 -0.246088 -0.544077
v -2.51447 4.34482 -27.8338
vn -0.784311 -0.339361 -0.519317
v -2.51112 4.33294 -27.8299
vn -0.758934 -0.429365 -0.489556
v -2.5068 4.3216 -27.8254
vn -0.726248 -0.515235 -0.45508
v -2.50157 4.31093 -27.8202
vn -0.686567 -0.596142 -0.416221
v -2.49546 4.301 -27.8146
vn -0.640275 -0.671308 -0.373354
v -2.48853 4.29194 -27.8084
vn -0.587816 -0.740009 -0.326892
v -2.48086 4.28381 -27.8019
vn -0.529697 -0.801584 -0.277281
v -2.47252 4.2767 -27.795
vn -0.466476 -0.855439 -0.225
v -2.46358 4.27068 -27.7878
vn -0.398762 -0.901055 -0.170551
v -2.45413 4.2658 -27.7804
vn -0.327209 -0.937994 -0.114461
v -2.44427 4.26212 -27.7729
vn -0.252504 -0.9659 -0.0572679
v -2.43409 4.25967 -27.7652
vn -0.175368 -0.984503 0.000476508
v -2.42369 4.25846 -27.7576
vn -0.0965421 -0.993625 0.0582163
v -2.41316 4.25852 -27.7501
vn -0.0167869 -0.993178 0.115396
v -2.40261 4.25984 -27.7427
vn 0.0631299 -0.983166 0.171463
v -2.39215 4.26241 -27.7355
vn 0.142439 -0.963685 0.22588
v -2.38186 4.26621 -27.7286
vn 0.220376 -0.934924 0.278121
v -2.37185 4.27119 -27.722
vn 0.296191 -0.897159 0.327684
v -2.36222 4.27732 -27.7159
vn 0.369153 -0.850754 0.374091
v -2.35306 4.28453 -27.7103
vn 0.43856 -0.796155 0.416895
v -2.34446 4.29274 -27.7052
vn 0.503744 -0.73389 0.455685
v -2.33649 4.3019 -27.7006
vn 0.564076 -0.664556 0.490085
v -2.32925 4.31189 -27.6967
vn 0.618976 -0.588822 0.519767
v -2.32279 4.32264 -27.6934
vn 0.667915 -0.507418 0.544442
v -2.31718 4.33403 -27.6909
vn 0.710421 -0.421127 0.563874
v -2.31247 4.34595 -27.689
vn 0.746086 -0.33078 0.577876
v -2.30871 4.3583 -27.6879
vn 0.774565 -0.237248 0.586312
v -2.30594 4.37094 -27.6875
vn 0.795585 -0.141431 0.589102
v -2.30417 4.38377 -27.6879
vn 0.808943 -0.0442517 0.586219
v -2.30344 4.39665 -27.689
vn 0.814511 0.0533537 0.57769
v -2.30374 4.40947 -27.6909
vn 0.812234 0.150445 0.563598
v -2.30507 4.42209 -27.6935
vn 0.802135 0.246088 0.544077
v -2.30742 4.4344 -27.6968
vn 0.784311 0.339361 0.519317
v -2.31077 4.44628 -27.7007
vn 0.758934 0.429365 0.489556
v -2.31509 4.45762 -27.7052
vn 0.726248 0.515235 0.45508
v -2.32032 4.4683 -27.7104
vn 0.686567 0.596142 0.416221
v -2.32644 4.47822 -27.716
vn 0.640275 0.671308 0.373354
v -2.33336 4.48729 -27.7222
vn 0.587816 0.740009 0.326892
v -2.34103 4.49541 -27.7287
vn 0.529697 0.801584 0.277281
v -2.34938 4.50252 -27.7356
vn 0.466476 0.855439 0.225
v -2.35831 4.50854 -27.7428
vn 0.398762 0.901055 0.170551
v -2.36776 4.51342 -27.7502
vn 0.327209 0.937994 0.114461
v -2.37762 4.5171 -27.7577
vn 0.252504 0.9659 0.0572679
v -2.3878 4.51956 -27.7654
vn 0.175368 0.984503 -0.000476508
v -2.3982 4.52076 -27.773
vn 0.0965421 0.993625 -0.0582163
v -2.40873 4.5207 -27.7805
vn 0.0167869 0.993178 -0.115396
v -2.41928 4.51938 -27.7879
vn -0.0631299 0.983166 -0.171463
v -2.42975 4.51681 -27.7951
vn -0.142439 0.963685 -0.22588
v -2.44003 4.51301 -27.802
vn -0.220376 0.934924 -0.278121
v -2.45004 4.50803 -27.8086
vn -0.296191 0.897159 -0.327684
v -2.45967 4.5019 -27.8147
vn -0.369153 0.850754 -0.374091
v -2.46883 4.4947 -27.8203
vn -0.43856 0.796155 -0.416895
v -2.47744 4.48648 -27.8254
vn -0.503744 0.73389 -0.455685
v -2.4854 4.47733 -27.83
vn -0.564076 0.664556 -0.490085
v -2.49265 4.46733 -27.8339
vn -0.618976 0.588822 -0.519767
v -2.4991 4.45659 -27.8372
vn -0.667915 0.507418 -0.544442
v -2.50472 4.4452 -27.8397
vn -0.710421 0.421127 -0.563874
v -2.35166 4.39775 -28.0015
vn -0.483701 0.270315 -0.832444
v -2.3556 4.38539 -28.0025
vn -0.513444 0.177073 -0.839655
v -2.35889 4.3728 -28.0024
vn -0.538242 0.0821269 -0.838779
v -2.36149 4.3601 -28.0012
vn -0.557856 -0.0136105 -0.829826
v -2.36338 4.34743 -27.9989
vn -0.572099 -0.109217 -0.812881
v -2.36454 4.33489 -27.9956
vn -0.580831 -0.203771 -0.788107
v -2.36495 4.32261 -27.9913
vn -0.58397 -0.296363 -0.755743
v -2.36462 4.31071 -27.9861
vn -0.581485 -0.386101 -0.716101
v -2.36355 4.2993 -27.9799
vn -0.5734 -0.472121 -0.669563
v -2.36175 4.2885 -27.9729
vn -0.559792 -0.553594 -0.616577
v -2.35923 4.2784 -27.9651
vn -0.540794 -0.629735 -0.557652
v -2.35602 4.26911 -27.9566
vn -0.516587 -0.699812 -0.493357
v -2.35215 4.26071 -27.9474
vn -0.487406 -0.763149 -0.424311
v -2.34766 4.25329 -27.9377
vn -0.45353 -0.819136 -0.351178
v -2.34259 4.24691 -27.9276
vn -0.415287 -0.867235 -0.274663
v -2.33698 4.24164 -27.9171
vn -0.373044 -0.906982 -0.195503
v -2.33091 4.23752 -27.9063
vn -0.327209 -0.937994 -0.114461
v -2.32441 4.23461 -27.8954
vn -0.278222 -0.959973 -0.0323159
v -2.31756 4.23292 -27.8845
vn -0.226556 -0.972707 0.0501403
v -2.31042 4.23247 -27.8736
vn -0.172708 -0.976073 0.132114
v -2.30306 4.23327 -27.8629
vn -0.117197 -0.970039 0.212815
v -2.29555 4.23531 -27.8525
vn -0.0605575 -0.954662 0.291466
v -2.28796 4.23857 -27.8424
vn -0.00333446 -0.930092 0.367311
v -2.28037 4.24302 -27.8328
vn 0.0539207 -0.896565 0.439618
v -2.27284 4.24861 -27.8238
vn 0.110657 -0.854403 0.507691
v -2.26546 4.25529 -27.8154
vn 0.166327 -0.804013 0.570875
v -2.25829 4.263 -27.8078
vn 0.220395 -0.74588 0.628561
v -2.2514 4.27166 -27.8009
vn 0.272341 -0.680564 0.680194
v -2.24486 4.28119 -27.795
vn 0.321664 -0.608693 0.725276
v -2.23873 4.2915 -27.7899
vn 0.367889 -0.53096 0.763373
v -2.23307 4.30249 -27.7858
vn 0.410571 -0.448114 0.794119
v -2.22793 4.31404 -27.7828
vn 0.4493 -0.360952 0.817217
v -2.22337 4.32606 -27.7807
vn 0.483701 -0.270315 0.832444
v -2.21943 4.33843 -27.7798
vn 0.513444 -0.177073 0.839655
v -2.21614 4.35102 -27.7799
vn 0.538242 -0.0821269 0.838779
v -2.21354 4.36371 -27.7811
vn 0.557856 0.0136105 0.829826
v -2.21165 4.37639 -27.7833
vn 0.572099 0.109217 0.812881
v -2.21049 4.38893 -27.7866
vn 0.580831 0.203771 0.788107
v -2.21008 4.40121 -27.7909
vn 0.58397 0.296363 0.755743
v -2.21041 4.41311 -27.7962
vn 0.581485 0.386101 0.716101
v -2.21148 4.42452 -27.8023
vn 0.5734 0.472121 0.669563
v -2.21328 4.43532 -27.8094
vn 0.559792 0.553594 0.616577
v -2.2158 4.44542 -27.8172
vn 0.540794 0.629735 0.557652
v -2.21901 4.45471 -27.8257
vn 0.516587 0.699812 0.493357
v -2.22288 4.46311 -27.8349
vn 0.487406 0.763149 0.424311
v -2.22737 4.47053 -27.8446
vn 0.45353 0.819136 0.351178
v -2.23245 4.47691 -27.8547
vn 0.415287 0.867235 0.274663
v -2.23805 4.48218 -27.8652
vn 0.373044 0.906982 0.195503
v -2.24413 4.48629 -27.876
vn 0.327209 0.937994 0.114461
v -2.25062 4.48921 -27.8868
vn 0.278222 0.959973 0.0323159
v -2.25747 4.4909 -27.8978
vn 0.226556 0.972707 -0.0501403
v -2.26461 4.49134 -27.9087
vn 0.172708 0.976073 -0.132114
v -2.27197 4.49054 -27.9194
vn 0.117197 0.970039 -0.212815
v -2.27948 4.4885 -27.9298
vn 0.0605575 0.954662 -0.291466
v -2.28707 4.48525 -27.9398
vn 0.00333446 0.930092 -0.367311
v -2.29467 4.4808 -27.9494
vn -0.0539207 0.896565 -0.439618
v -2.30219 4.47521 -27.9585
vn -0.110657 0.854403 -0.507691
v -2.30957 4.46853 -27.9668
vn -0.166327 0.804013 -0.570875
v -2.31674 4.46082 -27.9745
vn -0.220395 0.74588 -0.628561
v -2.32363 4.45216 -27.9813
vn -0.272341 0.680564 -0.680194
v -2.33017 4.44263 -27.9873
vn -0.321664 0.608693 -0.725276
v -2.3363 4.43232 -27.9924
vn -0.367889 0.53096 -0.763373
v -2.34196 4.42133 -27.9964
vn -0.410571 0.448114 -0.794119
v -2.3471 4.40977 -27.9995
vn -0.4493 0.360952 -0.817217
v -2.15435 4.33699 -28.0676
vn 0.0159459 0.115631 -0.993164
v -2.15863 4.32466 -28.0684
vn -0.0162029 0.0231342 -0.999601
v -2.1629 4.31231 -28.068
vn -0.0481958 -0.0695849 -0.996411
v -2.1671 4.30005 -28.0663
vn -0.0797244 -0.161634 -0.983625
v -2.17119 4.28799 -28.0633
vn -0.110485 -0.252126 -0.961366
v -2.17515 4.27626 -28.0591
vn -0.140182 -0.34019 -0.929849
v -2.17893 4.26496 -28.0537
vn -0.168529 -0.424978 -0.889377
v -2.18249 4.25421 -28.0472
vn -0.195253 -0.505674 -0.84034
v -2.1858 4.24411 -28.0396
vn -0.220096 -0.581499 -0.783209
v -2.18882 4.23476 -28.031
vn -0.24282 -0.651724 -0.718536
v -2.19154 4.22624 -28.0214
vn -0.263205 -0.715673 -0.646943
v -2.19392 4.21863 -28.0111
vn -0.281056 -0.772729 -0.56912
v -2.19594 4.21202 -28.0
vn -0.296199 -0.822344 -0.485816
v -2.19757 4.20647 -27.9883
vn -0.30849 -0.864039 -0.397833
v -2.19881 4.20202 -27.976
vn -0.317811 -0.897412 -0.306018
v -2.19965 4.19873 -27.9634
vn -0.32407 -0.922144 -0.211257
v -2.20007 4.19662 -27.9505
vn -0.327209 -0.937994 -0.114461
v -2.20006 4.19571 -27.9375
vn -0.327196 -0.944811 -0.0165625
v -2.19964 4.19601 -27.9244
vn -0.324033 -0.942529 0.0814952
v -2.19881 4.19753 -27.9114
vn -0.317748 -0.93117 0.178768
v -2.19756 4.20023 -27.8987
vn -0.308404 -0.910844 0.27432
v -2.19592 4.20411 -27.8863
vn -0.296089 -0.881745 0.367229
v -2.1939 4.20912 -27.8744
vn -0.280923 -0.844155 0.456602
v -2.19152 4.21521 -27.8631
vn -0.263052 -0.798435 0.541577
v -2.1888 4.22233 -27.8525
vn -0.242647 -0.745025 0.621337
v -2.18577 4.2304 -27.8426
vn -0.219905 -0.684441 0.695113
v -2.18246 4.23935 -27.8337
vn -0.195046 -0.617265 0.762195
v -2.1789 4.24909 -27.8258
vn -0.168308 -0.544144 0.821936
v -2.17512 4.25953 -27.8188
vn -0.13995 -0.465784 0.873762
v -2.17116 4.27056 -27.8131
vn -0.110243 -0.382937 0.917173
v -2.16706 4.28209 -27.8085
vn -0.0794748 -0.296402 0.951751
v -2.16286 4.294 -27.8051
vn -0.0479412 -0.207013 0.977163
v -2.1586 4.30618 -27.8029
vn -0.0159459 -0.115631 0.993164
v -2.15432 4.3185 -27.8021
vn 0.0162029 -0.0231342 0.999601
v -2.15005 4.33085 -27.8025
vn 0.0481958 0.0695849 0.996411
v -2.14585 4.34311 -27.8042
vn 0.0797244 0.161634 0.983625
v -2.14176 4.35517 -27.8072
vn 0.110485 0.252126 0.961366
v -2.1378 4.3669 -27.8114
vn 0.140182 0.34019 0.929849
v -2.13402 4.3782 -27.8168
vn 0.168529 0.424978 0.889377
v -2.13046 4.38895 -27.8233
vn 0.195253 0.505674 0.84034
v -2.12715 4.39905 -27.8309
vn 0.220096 0.581499 0.783209
v -2.12412 4.40841 -27.8395
vn 0.24282 0.651724 0.718536
v -2.12141 4.41693 -27.8491
vn 0.263205 0.715673 0.646943
v -2.11903 4.42453 -27.8594
vn 0.281056 0.772729 0.56912
v -2.11701 4.43114 -27.8705
vn 0.296199 0.822344 0.485816
v -2.11538 4.43669 -27.8823
vn 0.30849 0.864039 0.397833
v -2.11413 4.44114 -27.8945
vn 0.317811 0.897412 0.306018
v -2.1133 4.44443 -27.9071
vn 0.32407 0.922144 0.211257
v -2.11288 4.44654 -27.92
vn 0.327209 0.937994 0.114461
v -2.11288 4.44745 -27.933
vn 0.327196 0.944811 0.0165625
v -2.11331 4.44715 -27.9461
vn 0.324033 0.942529 -0.0814952
v -2.11414 4.44563 -27.9591
vn 0.317748 0.93117 -0.178768
v -2.11539 4.44293 -27.9718
vn 0.308404 0.910844 -0.27432
v -2.11703 4.43905 -27.9842
vn 0.296089 0.881745 -0.367229
v -2.11905 4.43404 -27.9961
vn 0.280923 0.844155 -0.456602
v -2.12143 4.42795 -28.0074
vn 0.263052 0.798435 -0.541577
v -2.12415 4.42084 -28.018
vn 0.242647 0.745025 -0.621337
v -2.12718 4.41276 -28.0279
vn 0.219905 0.684441 -0.695113
v -2.13049 4.40381 -28.0368
vn 0.195046 0.617265 -0.762195
v -2.13405 4.39407 -28.0448
vn 0.168308 0.544144 -0.821936
v -2.13783 4.38363 -28.0517
vn 0.13995 0.465784 -0.873762
v -2.14179 4.3726 -28.0574
vn 0.110243 0.382937 -0.917173
v -2.14589 4.36107 -28.062
vn 0.0794748 0.296402 -0.951751
v -2.15009 4.34916 -28.0654
vn 0.0479412 0.207013 -0.977163
v -1.95568 4.26139 -28.016
vn 0.464302 -0.0540915 -0.884024
v -1.96027 4.24912 -28.0169
vn 0.429994 -0.145771 -0.890986
v -1.96542 4.23703 -28.0167
vn 0.391545 -0.236046 -0.889368
v -1.97107 4.22526 -28.0153
vn 0.349325 -0.324048 -0.879184
v -1.97717 4.2139 -28.0128
vn 0.303741 -0.408929 -0.860534
v -1.98366 4.20306 -28.0092
vn 0.255232 -0.489872 -0.833596
v -1.99048 4.19286 -28.0046
vn 0.204265 -0.566097 -0.79863
v -1.99757 4.18339 -27.9988
vn 0.151331 -0.63687 -0.755973
v -2.00485 4.17474 -27.9922
vn 0.0969392 -0.701511 -0.706035
v -2.01225 4.16699 -27.9846
vn 0.041614 -0.759395 -0.649298
v -2.01971 4.16022 -27.9761
vn -0.014112 -0.809965 -0.586308
v -2.02715 4.1545 -27.9669
vn -0.0697022 -0.852736 -0.517671
v -2.0345 4.14987 -27.9571
vn -0.124621 -0.887294 -0.444049
v -2.04169 4.14639 -27.9467
vn -0.17834 -0.913306 -0.366151
v -2.04865 4.14408 -27.9358
vn -0.230341 -0.930524 -0.284726
v -2.05531 4.14298 -27.9245
vn -0.280124 -0.938779 -0.200559
v -2.06162 4.14309 -27.913
vn -0.327209 -0.937994 -0.114461
v -2.0675 4.1444 -27.9013
vn -0.371143 -0.928176 -0.0272602
v -2.0729 4.14691 -27.8896
vn -0.411502 -0.909418 0.060203
v -2.07777 4.15059 -27.878
vn -0.447899 -0.881903 0.147086
v -2.08206 4.15541 -27.8665
vn -0.479982 -0.845894 0.232553
v -2.08574 4.16132 -27.8554
vn -0.507443 -0.801738 0.315781
v -2.08876 4.16826 -27.8447
vn -0.530016 -0.749862 0.395967
v -2.0911 4.17617 -27.8344
vn -0.547486 -0.690764 0.472339
v -2.09273 4.18497 -27.8248
vn -0.559682 -0.625014 0.544163
v -2.09364 4.19458 -27.8159
vn -0.566489 -0.553244 0.610746
v -2.09382 4.2049 -27.8078
vn -0.56784 -0.476146 0.671448
v -2.09327 4.21583 -27.8005
vn -0.563723 -0.394463 0.725683
v -2.09199 4.22727 -27.7942
vn -0.554176 -0.308981 0.772929
v -2.09 4.23911 -27.7889
vn -0.539293 -0.220523 0.812732
v -2.08731 4.25123 -27.7846
vn -0.519215 -0.129941 0.844707
v -2.08396 4.26353 -27.7814
vn -0.494138 -0.0381085 0.868548
v -2.07996 4.27587 -27.7793
vn -0.464302 0.0540915 0.884024
v -2.07537 4.28814 -27.7784
vn -0.429994 0.145771 0.890986
v -2.07023 4.30022 -27.7786
vn -0.391545 0.236046 0.889368
v -2.06458 4.312 -27.78
vn -0.349325 0.324048 0.879184
v -2.05848 4.32336 -27.7825
vn -0.303741 0.408929 0.860534
v -2.05198 4.33419 -27.7861
vn -0.255232 0.489872 0.833596
v -2.04516 4.34439 -27.7908
vn -0.204265 0.566097 0.79863
v -2.03808 4.35387 -27.7965
vn -0.151331 0.63687 0.755973
v -2.0308 4.36252 -27.8032
vn -0.0969392 0.701511 0.706035
v -2.02339 4.37026 -27.8108
vn -0.041614 0.759395 0.649298
v -2.01593 4.37703 -27.8192
vn 0.014112 0.809965 0.586308
v -2.00849 4.38276 -27.8284
vn 0.0697022 0.852736 0.517671
v -2.00114 4.38738 -27.8382
vn 0.124621 0.887294 0.444049
v -1.99395 4.39086 -27.8487
vn 0.17834 0.913306 0.366151
v -1.98699 4.39317 -27.8596
vn 0.230341 0.930524 0.284726
v -1.98033 4.39427 -27.8708
vn 0.280124 0.938779 0.200559
v -1.97403 4.39417 -27.8823
vn 0.327209 0.937994 0.114461
v -1.96815 4.39285 -27.894
vn 0.371143 0.928176 0.0272602
v -1.96275 4.39034 -27.9057
vn 0.411502 0.909418 -0.060203
v -1.95788 4.38666 -27.9173
vn 0.447899 0.881903 -0.147086
v -1.95358 4.38184 -27.9288
vn 0.479982 0.845894 -0.232553
v -1.94991 4.37593 -27.9399
vn 0.507443 0.801738 -0.315781
v -1.94689 4.36899 -27.9507
vn 0.530016 0.749862 -0.395967
v -1.94455 4.36108 -27.9609
vn 0.547486 0.690764 -0.472339
v -1.94291 4.35228 -27.9705
vn 0.559682 0.625014 -0.544163
v -1.942 4.34267 -27.9794
vn 0.566489 0.553244 -0.610746
v -1.94182 4.33235 -27.9875
vn 0.56784 0.476146 -0.671448
v -1.94237 4.32142 -27.9948
vn 0.563723 0.394463 -0.725683
v -1.94365 4.30998 -28.0011
vn 0.554176 0.308981 -0.772929
v -1.94564 4.29814 -28.0064
vn 0.539293 0.220523 -0.812732
v -1.94833 4.28602 -28.0107
vn 0.519215 0.129941 -0.844707
v -1.95169 4.27373 -28.0139
vn 0.494138 0.0381085 -0.868548
v -1.77931 4.18254 -27.874
vn 0.686098 -0.152535 -0.711339
v -1.78407 4.17027 -27.8751
vn 0.650722 -0.24374 -0.719133
v -1.78967 4.15833 -27.8752
vn 0.609079 -0.332597 -0.720001
v -1.79605 4.14681 -27.8744
vn 0.561571 -0.418252 -0.713935
v -1.80317 4.13583 -27.8726
vn 0.508654 -0.499879 -0.700994
v -1.81094 4.12551 -27.87
vn 0.450839 -0.576691 -0.681301
v -1.8193 4.11593 -27.8664
vn 0.388682 -0.64795 -0.655048
v -1.82816 4.10718 -27.8621
vn 0.322782 -0.712968 -0.622486
v -1.83744 4.09936 -27.8569
vn 0.253773 -0.77112 -0.583929
v -1.84705 4.09254 -27.8509
vn 0.18232 -0.821846 -0.539748
v -1.85689 4.08679 -27.8443
vn 0.109111 -0.864657 -0.490369
v -1.86687 4.08215 -27.837
vn 0.0348518 -0.899141 -0.436268
v -1.8769 4.07868 -27.8292
vn -0.0397433 -0.924966 -0.377966
v -1.88688 4.0764 -27.8209
vn -0.113956 -0.941883 -0.316023
v -1.89671 4.07535 -27.8121
vn -0.187071 -0.949729 -0.251037
v -1.9063 4.07552 -27.8031
vn -0.258384 -0.948429 -0.183633
v -1.91556 4.07693 -27.7938
vn -0.327209 -0.937994 -0.114461
v -1.92439 4.07954 -27.7843
vn -0.392883 -0.918526 -0.0441863
v -1.93271 4.08335 -27.7748
vn -0.454773 -0.890213 0.0265139
v -1.94044 4.08831 -27.7653
vn -0.512283 -0.853326 0.0969586
v -1.94751 4.09438 -27.756
vn -0.56486 -0.808221 0.16647
v -1.95385 4.10149 -27.7468
vn -0.611997 -0.755333 0.234377
v -1.95939 4.10958 -27.738
vn -0.65324 -0.69517 0.300028
v -1.96409 4.11857 -27.7296
vn -0.688192 -0.628312 0.362789
v -1.9679 4.12837 -27.7216
vn -0.716516 -0.555404 0.422057
v -1.97078 4.13889 -27.7142
vn -0.73794 -0.477146 0.477259
v -1.97271 4.15003 -27.7074
vn -0.752257 -0.394294 0.527866
v -1.97366 4.16168 -27.7013
vn -0.759329 -0.307644 0.573389
v -1.97362 4.17373 -27.6959
vn -0.759089 -0.218031 0.613389
v -1.97261 4.18606 -27.6913
vn -0.751538 -0.126319 0.647483
v -1.97062 4.19856 -27.6876
vn -0.73675 -0.0333897 0.675341
v -1.96768 4.21109 -27.6847
vn -0.714866 0.0598608 0.696695
v -1.96381 4.22356 -27.6827
vn -0.686098 0.152535 0.711339
v -1.95905 4.23582 -27.6817
vn -0.650722 0.24374 0.719133
v -1.95346 4.24777 -27.6816
vn -0.609079 0.332597 0.720001
v -1.94707 4.25928 -27.6824
vn -0.561571 0.418252 0.713935
v -1.93995 4.27026 -27.6841
vn -0.508654 0.499879 0.700994
v -1.93218 4.28059 -27.6868
vn -0.450839 0.576691 0.681301
v -1.92382 4.29017 -27.6903
vn -0.388682 0.64795 0.655048
v -1.91496 4.29891 -27.6947
vn -0.322782 0.712968 0.622486
v -1.90568 4.30673 -27.6998
vn -0.253773 0.77112 0.583929
v -1.89607 4.31355 -27.7058
vn -0.18232 0.821846 0.539748
v -1.88623 4.3193 -27.7124
vn -0.109111 0.864657 0.490369
v -1.87625 4.32394 -27.7197
vn -0.0348518 0.899141 0.436268
v -1.86622 4.32741 -27.7275
vn 0.0397433 0.924966 0.377966
v -1.85624 4.32969 -27.7359
vn 0.113956 0.941883 0.316023
v -1.84641 4.33074 -27.7446
vn 0.187071 0.949729 0.251037
v -1.83682 4.33057 -27.7537
vn 0.258384 0.948429 0.183633
v -1.82757 4.32917 -27.763
vn 0.327209 0.937994 0.114461
v -1.81873 4.32655 -27.7724
vn 0.392883 0.918526 0.0441863
v -1.81041 4.32274 -27.7819
vn 0.454773 0.890213 -0.0265139
v -1.80268 4.31778 -27.7914
vn 0.512283 0.853326 -0.0969586
v -1.79561 4.31172 -27.8007
vn 0.56486 0.808221 -0.16647
v -1.78927 4.30461 -27.8099
vn 0.611997 0.755333 -0.234377
v -1.78373 4.29652 -27.8187
vn 0.65324 0.69517 -0.300028
v -1.77903 4.28753 -27.8271
vn 0.688192 0.628312 -0.362789
v -1.77522 4.27772 -27.8351
vn 0.716516 0.555404 -0.422057
v -1.77234 4.2672 -27.8425
vn 0.73794 0.477146 -0.477259
v -1.77041 4.25606 -27.8493
vn 0.752257 0.394294 -0.527866
v -1.76946 4.24441 -27.8555
vn 0.759329 0.307644 -0.573389
v -1.7695 4.23236 -27.8608
vn 0.759089 0.218031 -0.613389
v -1.77051 4.22003 -27.8654
vn 0.751538 0.126319 -0.647483
v -1.7725 4.20754 -27.8692
vn 0.73675 0.0333897 -0.675341
v -1.77544 4.195 -27.872
vn 0.714866 -0.0598608 -0.696695
v -1.61148 4.09741 -27.6562
vn 0.786279 -0.203076 -0.583546
v -1.61633 4.08512 -27.6573
vn 0.75042 -0.294038 -0.591955
v -1.62215 4.07322 -27.6577
vn 0.707335 -0.382168 -0.594664
v -1.62889 4.06181 -27.6573
vn 0.657438 -0.466617 -0.591645
v -1.63648 4.05101 -27.6561
vn 0.601209 -0.546573 -0.582929
v -1.64486 4.04092 -27.6541
vn 0.539191 -0.621264 -0.568598
v -1.65394 4.03164 -27.6515
vn 0.471979 -0.689973 -0.548792
v -1.66363 4.02326 -27.6481
vn 0.400222 -0.752037 -0.5237
v -1.67384 4.01586 -27.644
vn 0.324611 -0.806858 -0.493565
v -1.68448 4.0095 -27.6393
vn 0.245874 -0.853909 -0.458677
v -1.69543 4.00426 -27.634
vn 0.164769 -0.892737 -0.419372
v -1.7066 4.00017 -27.6281
vn 0.0820767 -0.922966 -0.376027
v -1.71788 3.99729 -27.6218
vn -0.00140575 -0.944307 -0.329061
v -1.72915 3.99564 -27.615
vn -0.0848747 -0.956554 -0.278927
v -1.74032 3.99523 -27.6079
vn -0.167526 -0.959589 -0.226106
v -1.75126 3.99606 -27.6005
vn -0.248564 -0.953382 -0.171107
v -1.76188 3.99814 -27.5928
vn -0.327209 -0.937994 -0.114461
v -1.77208 4.00144 -27.585
vn -0.402702 -0.913573 -0.0567121
v -1.78175 4.00593 -27.5771
vn -0.474317 -0.880353 0.0015827
v -1.79081 4.01156 -27.5693
vn -0.541364 -0.838655 0.0598623
v -1.79916 4.01828 -27.5615
vn -0.603197 -0.78888 0.117565
v -1.80673 4.02603 -27.5538
vn -0.659222 -0.731508 0.174136
v -1.81344 4.03473 -27.5464
vn -0.708897 -0.667091 0.22903
v -1.81923 4.0443 -27.5393
vn -0.751746 -0.596249 0.281718
v -1.82404 4.05465 -27.5325
vn -0.787355 -0.519666 0.331693
v -1.82782 4.06567 -27.5262
vn -0.815381 -0.438077 0.378474
v -1.83055 4.07726 -27.5204
vn -0.835554 -0.35227 0.42161
v -1.83219 4.08931 -27.5151
vn -0.847681 -0.26307 0.460685
v -1.83272 4.1017 -27.5104
vn -0.851644 -0.171337 0.495324
v -1.83215 4.11431 -27.5064
vn -0.847405 -0.0779537 0.525193
v -1.83047 4.12703 -27.5031
vn -0.835006 0.0161804 0.550003
v -1.82771 4.13972 -27.5004
vn -0.814565 0.110159 0.569517
v -1.82389 4.15227 -27.4985
vn -0.786279 0.203076 0.583546
v -1.81905 4.16456 -27.4974
vn -0.75042 0.294038 0.591955
v -1.81323 4.17646 -27.497
vn -0.707335 0.382168 0.594664
v -1.80649 4.18787 -27.4974
vn -0.657438 0.466617 0.591645
v -1.79889 4.19867 -27.4986
vn -0.601209 0.546573 0.582929
v -1.79052 4.20876 -27.5005
vn -0.539191 0.621264 0.568598
v -1.78144 4.21804 -27.5032
vn -0.471979 0.689973 0.548792
v -1.77175 4.22642 -27.5066
vn -0.400222 0.752037 0.5237
v -1.76153 4.23382 -27.5107
vn -0.324611 0.806858 0.493565
v -1.7509 4.24018 -27.5154
vn -0.245874 0.853909 0.458677
v -1.73994 4.24542 -27.5207
vn -0.164769 0.892737 0.419372
v -1.72877 4.24951 -27.5266
vn -0.0820767 0.922966 0.376027
v -1.7175 4.25239 -27.5329
vn 0.00140575 0.944307 0.329061
v -1.70622 4.25404 -27.5397
vn 0.0848747 0.956554 0.278927
v -1.69506 4.25445 -27.5468
vn 0.167526 0.959589 0.226106
v -1.68411 4.25362 -27.5542
vn 0.248564 0.953382 0.171107
v -1.67349 4.25154 -27.5619
vn 0.327209 0.937994 0.114461
v -1.66329 4.24824 -27.5697
vn 0.402702 0.913573 0.0567121
v -1.65362 4.24375 -27.5776
vn 0.474317 0.880353 -0.0015827
v -1.64456 4.23812 -27.5854
vn 0.541364 0.838655 -0.0598623
v -1.63621 4.2314 -27.5932
vn 0.603197 0.78888 -0.117565
v -1.62864 4.22365 -27.6009
vn 0.659222 0.731508 -0.174136
v -1.62193 4.21495 -27.6083
vn 0.708897 0.667091 -0.22903
v -1.61615 4.20538 -27.6154
vn 0.751746 0.596249 -0.281718
v -1.61134 4.19503 -27.6221
vn 0.787355 0.519666 -0.331693
v -1.60755 4.18401 -27.6285
vn 0.815381 0.438077 -0.378474
v -1.60483 4.17242 -27.6343
vn 0.835554 0.35227 -0.42161
v -1.60319 4.16037 -27.6396
vn 0.847681 0.26307 -0.460685
v -1.60265 4.14798 -27.6443
vn 0.851644 0.171337 -0.495324
v -1.60323 4.13537 -27.6483
vn 0.847405 0.0779537 -0.525193
v -1.6049 4.12265 -27.6516
vn 0.835006 -0.0161804 -0.550003
v -1.60766 4.10996 -27.6543
vn 0.814565 -0.110159 -0.569517
f 1 66 2 
f 1 65 66 
f 2 67 3 
f 2 66 67 
f 3 68 4 
f 3 67 68 
f 4 69 5 
f 4 68 69 
f 5 70 6 
f 5 69 70 
f 6 71 7 
f 6 70 71 
f 7 72 8 
f 7 71 72 
f 8 73 9 
f 8 72 73 
f 9 74 10 
f 9 73 74 
f 10 75 11 
f 10 74 75 
f 11 76 12 
f 11 75 76 
f 12 77 13 
f 12 76 77 
f 13 78 14 
f 13 77 78 
f 14 79 15 
f 14 78 79 
f 15 80 16 
f 15 79 80 
f 16 81 17 
f 16 80 81 
f 17 82 18 
f 17 81 82 
f 18 83 19 
f 18 82 83 
f 19 84 20 
f 19 83 84 
f 20 85 21 
f 20 84 85 
f 21 86 22 
f 21 85 86 
f 22 87 23 
f 22 86 87 
f 23 88 24 
f 23 87 88 
f 24 89 25 
f 24 88 89 
f 25 90 26 
f 25 89 90 
f 26 91 27 
f 26 90 91 
f 27 92 28 
f 27 91 92 
f 28 93 29 
f 28 92 93 
f 29 94 30 
f 29 93 94 
f 30 95 31 
f 30 94 95 
f 31 96 32 
f 31 95 96 
f 32 97 33 
f 32 96 97 
f 33 98 34 
f 33 97 98 
f 34 99 35 
f 34 98 99 
f 35 100 36 
f 35 99 100 
f 36 101 37 
f 36 100 101 
f 37 102 38 
f 37 101 102 
f 38 103 39 
f 38 102 103 
f 39 104 40 
f 39 103 104 
f 40 105 41 
f 40 104 105 
f 41 106 42 
f 41 105 106 
f 42 107 43 
f 42 106 107 
f 43 108 44 
f 43 107 108 
f 44 109 45 
f 44 108 109 
f 45 110 46 
f 45 109 110 
f 46 111 47 
f 46 110 111 
f 47 112 48 
f 47 111 112 
f 48 113 49 
f 48 112 113 
f 49 114 50 
f 49 113 114 
f 50 115 51 
f 50 114 115 
f 51 116 52 
f 51 115 116 
f 52 117 53 
f 52 116 117 
f 53 118 54 
f 53 117 118 
f 54 119 55 
f 54 118 119 
f 55 120 56 
f 55 119 120 
f 56 121 57 
f 56 120 121 
f 57 122 58 
f 57 121 122 
f 58 123 59 
f 58 122 123 
f 59 124 60 
f 59 123 124 
f 60 125 61 
f 60 124 125 
f 61 126 62 
f 61 125 126 
f 62 127 63 
f 62 126 127 
f 63 128 64 
f 63 127 128 
f 64 65 1 
f 64 128 65 
f 65 130 66 
f 65 129 130 
f 66 131 67 
f 66 130 131 
f 67 132 68 
f 67 131 132 
f 68 133 69 
f 68 132 133 
f 69 134 70 
f 69 133 134 
f 70 135 71 
f 70 134 135 
f 71 136 72 
f 71 135 136 
f 72 137 73 
f 72 136 137 
f 73 138 74 
f 73 137 138 
f 74 139 75 
f 74 138 139 
f 75 140 76 
f 75 139 140 
f 76 141 77 
f 76 140 141 
f 77 142 78 
f 77 141 142 
f 78 143 79 
f 78 142 143 
f 79 144 80 
f 79 143 144 
f 80 145 81 
f 80 144 145 
f 81 146 82 
f 81 145 146 
f 82 147 83 
f 82 146 147 
f 83 148 84 
f 83 147 148 
f 84 149 85 
f 84 148 149 
f 85 150 86 
f 85 149 150 
f 86 151 87 
f 86 150 151 
f 87 152 88 
f 87 151 152 
f 88 153 89 
f 88 152 153 
f 89 154 90 
f 89 153 154 
f 90 155 91 
f 90 154 155 
f 91 156 92 
f 91 155 156 
f 92 157 93 
f 92 156 157 
f 93 158 94 
f 93 157 158 
f 94 159 95 
f 94 158 159 
f 95 160 96 
f 95 159 160 
f 96 161 97 
f 96 160 161 
f 97 162 98 
f 97 161 162 
f 98 163 99 
f 98 162 163 
f 99 164 100 
f 99 163 164 
f 100 165 101 
f 100 164 165 
f 101 166 102 
f 101 165 166 
f 102 167 103 
f 102 166 167 
f 103 168 104 
f 103 167 168 
f 104 169 105 
f 104 168 169 
f 105 170 106 
f 105 169 170 
f 106 171 107 
f 106 170 171 
f 107 172 108 
f 107 171 172 
f 108 173 109 
f 108 172 173 
f 109 174 110 
f 109 173 174 
f 110 175 111 
f 110 174 175 
f 111 176 112 
f 111 175 176 
f 112 177 113 
f 112 176 177 
f 113 178 114 
f 113 177 178 
f 114 179 115 
f 114 178 179 
f 115 180 116 
f 115 179 180 
f 116 181 117 
f 116 180 181 
f 117 182 118 
f 117 181 182 
f 118 183 119 
f 118 182 183 
f 119 184 120 
f 119 183 184 
f 120 185 121 
f 120 184 185 
f 121 186 122 
f 121 185 186 
f 122 187 123 
f 122 186 187 
f 123 188 124 
f 123 187 188 
f 124 189 125 
f 124 188 189 
f 125 190 126 
f 125 189 190 
f 126 191 127 
f 126 190 191 
f 127 192 128 
f 127 191 192 
f 128 129 65 
f 128 192 129 
f 129 194 130 
f 129 193 194 
f 130 195 131 
f 130 194 195 
f 131 196 132 
f 131 195 196 
f 132 197 133 
f 132 196 197 
f 133 198 134 
f 133 197 198 
f 134 199 135 
f 134 198 199 
f 135 200 136 
f 135 199 200 
f 136 201 137 
f 136 200 201 
f 137 202 138 
f 137 201 202 
f 138 203 139 
f 138 202 203 
f 139 204 140 
f 139 203 204 
f 140 205 141 
f 140 204 205 
f 141 206 142 
f 141 205 206 
f 142 207 143 
f 142 206 207 
f 143 208 144 
f 143 207 208 
f 144 209 145 
f 144 208 209 
f 145 210 146 
f 145 209 210 
f 146 211 147 
f 146 210 211 
f 147 212 148 
f 147 211 212 
f 148 213 149 
f 148 212 213 
f 149 214 150 
f 149 213 214 
f 150 215 151 
f 150 214 215 
f 151 216 152 
f 151 215 216 
f 152 217 153 
f 152 216 217 
f 153 218 154 
f 153 217 218 
f 154 219 155 
f 154 218 219 
f 155 220 156 
f 155 219 220 
f 156 221 157 
f 156 220 221 
f 157 222 158 
f 157 221 222 
f 158 223 159 
f 158 222 223 
f 159 224 160 
f 159 223 224 
f 160 225 161 
f 160 224 225 
f 161 226 162 
f 161 225 226 
f 162 227 163 
f 162 226 227 
f 163 228 164 
f 163 227 228 
f 164 229 165 
f 164 228 229 
f 165 230 166 
f 165 229 230 
f 166 231 167 
f 166 230 231 
f 167 232 168 
f 167 231 232 
f 168 233 169 
f 168 232 233 
f 169 234 170 
f 169 233 234 
f 170 235 171 
f 170 234 235 
f 171 236 172 
f 171 235 236 
f 172 237 173 
f 172 236 237 
f 173 238 174 
f 173 237 238 
f 174 239 175 
f 174 238 239 
f 175 240 176 
f 175 239 240 
f 176 241 177 
f 176 240 241 
f 177 242 178 
f 177 241 242 
f 178 243 179 
f 178 242 243 
f 179 244 180 
f 179 243 244 
f 180 245 181 
f 180 244 245 
f 181 246 182 
f 181 245 246 
f 182 247 183 
f 182 246 247 
f 183 248 184 
f 183 247 248 
f 184 249 185 
f 184 248 249 
f 185 250 186 
f 185 249 250 
f 186 251 187 
f 186 250 251 
f 187 252 188 
f 187 251 252 
f 188 253 189 
f 188 252 253 
f 189 254 190 
f 189 253 254 
f 190 255 191 
f 190 254 255 
f 191 256 192 
f 191 255 256 
f 192 193 129 
f 192 256 193 
f 193 258 194 
f 193 257 258 
f 194 259 195 
f 194 258 259 
f 195 260 196 
f 195 259 260 
f 196 261 197 
f 196 260 261 
f 197 262 198 
f 197 261 262 
f 198 263 199 
f 198 262 263 
f 199 264 200 
f 199 263 264 
f 200 265 201 
f 200 264 265 
f 201 266 202 
f 201 265 266 
f 202 267 203 
f 202 266 267 
f 203 268 204 
f 203 267 268 
f 204 269 205 
f 204 268 269 
f 205 270 206 
f 205 269 270 
f 206 271 207 
f 206 270 271 
f 207 272 208 
f 207 271 272 
f 208 273 209 
f 208 272 273 
f 209 274 210 
f 209 273 274 
f 210 275 211 
f 210 274 275 
f 211 276 212 
f 211 275 276 
f 212 277 213 
f 212 276 277 
f 213 278 214 
f 213 277 278 
f 214 279 215 
f 214 278 279 
f 215 280 216 
f 215 279 280 
f 216 281 217 
f 216 280 281 
f 217 282 218 
f 217 281 282 
f 218 283 219 
f 218 282 283 
f 219 284 220 
f 219 283 284 
f 220 285 221 
f 220 284 285 
f 221 286 222 
f 221 285 286 
f 222 287 223 
f 222 286 287 
f 223 288 224 
f 223 287 288 
f 224 289 225 
f 224 288 289 
f 225 290 226 
f 225 289 290 
f 226 291 227 
f 226 290 291 
f 227 292 228 
f 227 291 292 
f 228 293 229 
f 228 292 293 
f 229 294 230 
f 229 293 294 
f 230 295 231 
f 230 294 295 
f 231 296 232 
f 231 295 296 
f 232 297 233 
f 232 296 297 
f 233 298 234 
f 233 297 298 
f 234 299 235 
f 234 298 299 
f 235 300 236 
f 235 299 300 
f 236 301 237 
f 236 300 301 
f 237 302 238 
f 237 301 302 
f 238 303 239 
f 238 302 303 
f 239 304 240 
f 239 303 304 
f 240 305 241 
f 240 304 305 
f 241 306 242 
f 241 305 306 
f 242 307 243 
f 242 306 307 
f 243 308 244 
f 243 307 308 
f 244 309 245 
f 244 308 309 
f 245 310 246 
f 245 309 310 
f 246 311 247 
f 246 310 311 
f 247 312 248 
f 247 311 312 
f 248 313 249 
f 248 312 313 
f 249 314 250 
f 249 313 314 
f 250 315 251 
f 250 314 315 
f 251 316 252 
f 251 315 316 
f 252 317 253 
f 252 316 317 
f 253 318 254 
f 253 317 318 
f 254 319 255 
f 254 318 319 
f 255 320 256 
f 255 319 320 
f 256 257 193 
f 256 320 257 
f 257 322 258 
f 257 321 322 
f 258 323 259 
f 258 322 323 
f 259 324 260 
f 259 323 324 
f 260 325 261 
f 260 324 325 
f 261 326 262 
f 261 325 326 
f 262 327 263 
f 262 326 327 
f 263 328 264 
f 263 327 328 
f 264 329 265 
f 264 328 329 
f 265 330 266 
f 265 329 330 
f 266 331 267 
f 266 330 331 
f 267 332 268 
f 267 331 332 
f 268 333 269 
f 268 332 333 
f 269 334 270 
f 269 333 334 
f 270 335 271 
f 270 334 335 
f 271 336 272 
f 271 335 336 
f 272 337 273 
f 272 336 337 
f 273 338 274 
f 273 337 338 
f 274 339 275 
f 274 338 339 
f 275 340 276 
f 275 339 340 
f 276 341 277 
f 276 340 341 
f 277 342 278 
f 277 341 342 
f 278 343 279 
f 278 342 343 
f 279 344 280 
f 279 343 344 
f 280 345 281 
f 280 344 345 
f 281 346 282 
f 281 345 346 
f 282 347 283 
f 282 346 347 
f 283 348 284 
f 283 347 348 
f 284 349 285 
f 284 348 349 
f 285 350 286 
f 285 349 350 
f 286 351 287 
f 286 350 351 
f 287 352 288 
f 287 351 352 
f 288 353 289 
f 288 352 353 
f 289 354 290 
f 289 353 354 
f 290 355 291 
f 290 354 355 
f 291 356 292 
f 291 355 356 
f 292 357 293 
f 292 356 357 
f 293 358 294 
f 293 357 358 
f 294 359 295 
f 294 358 359 
f 295 360 296 
f 295 359 360 
f 296 361 297 
f 296 360 361 
f 297 362 298 
f 297 361 362 
f 298 363 299 
f 298 362 363 
f 299 364 300 
f 299 363 364 
f 300 365 301 
f 300 364 365 
f 301 366 302 
f 301 365 366 
f 302 367 303 
f 302 366 367 
f 303 368 304 
f 303 367 368 
f 304 369 305 
f 304 368 369 
f 305 370 306 
f 305 369 370 
f 306 371 307 
f 306 370 371 
f 307 372 308 
f 307 371 372 
f 308 373 309 
f 308 372 373 
f 309 374 310 
f 309 373 374 
f 310 375 311 
f 310 374 375 
f 311 376 312 
f 311 375 376 
f 312 377 313 
f 312 376 377 
f 313 378 314 
f 313 377 378 
f 314 379 315 
f 314 378 379 
f 315 380 316 
f 315 379 380 
f 316 381 317 
f 316 380 381 
f 317 382 318 
f 317 381 382 
f 318 383 319 
f 318 382 383 
f 319 384 320 
f 319 383 384 
f 320 321 257 
f 320 384 321 
f 321 386 322 
f 321 385 386 
f 322 387 323 
f 322 386 387 
f 323 388 324 
f 323 387 388 
f 324 389 325 
f 324 388 389 
f 325 390 326 
f 325 389 390 
f 326 391 327 
f 326 390 391 
f 327 392 328 
f 327 391 392 
f 328 393 329 
f 328 392 393 
f 329 394 330 
f 329 393 394 
f 330 395 331 
f 330 394 395 
f 331 396 332 
f 331 395 396 
f 332 397 333 
f 332 396 397 
f 333 398 334 
f 333 397 398 
f 334 399 335 
f 334 398 399 
f 335 400 336 
f 335 399 400 
f 336 401 337 
f 336 400 401 
f 337 402 338 
f 337 401 402 
f 338 403 339 
f 338 402 403 
f 339 404 340 
f 339 403 404 
f 340 405 341 
f 340 404 405 
f 341 406 342 
f 341 405 406 
f 342 407 343 
f 342 406 407 
f 343 408 344 
f 343 407 408 
f 344 409 345 
f 344 408 409 
f 345 410 346 
f 345 409 410 
f 346 411 347 
f 346 410 411 
f 347 412 348 
f 347 411 412 
f 348 413 349 
f 348 412 413 
f 349 414 350 
f 349 413 414 
f 350 415 351 
f 350 414 415 
f 351 416 352 
f 351 415 416 
f 352 417 353 
f 352 416 417 
f 353 418 354 
f 353 417 418 
f 354 419 355 
f 354 418 419 
f 355 420 356 
f 355 419 420 
f 356 421 357 
f 356 420 421 
f 357 422 358 
f 357 421 422 
f 358 423 359 
f 358 422 423 
f 359 424 360 
f 359 423 424 
f 360 425 361 
f 360 424 425 
f 361 426 362 
f 361 425 426 
f 362 427 363 
f 362 426 427 
f 363 428 364 
f 363 427 428 
f 364 429 365 
f 364 428 429 
f 365 430 366 
f 365 429 430 
f 366 431 367 
f 366 430 431 
f 367 432 368 
f 367 431 432 
f 368 433 369 
f 368 432 433 
f 369 434 370 
f 369 433 434 
f 370 435 371 
f 370 434 435 
f 371 436 372 
f 371 435 436 
f 372 437 373 
f 372 436 437 
f 373 438 374 
f 373 437 438 
f 374 439 375 
f 374 438 439 
f 375 440 376 
f 375 439 440 
f 376 441 377 
f 376 440 441 
f 377 442 378 
f 377 441 442 
f 378 443 379 
f 378 442 443 
f 379 444 380 
f 379 443 444 
f 380 445 381 
f 380 444 445 
f 381 446 382 
f 381 445 446 
f 382 447 383 
f 382 446 447 
f 383 448 384 
f 383 447 448 
f 384 385 321 
f 384 448 385 
f 385 450 386 
f 385 449 450 
f 386 451 387 
f 386 450 451 
f 387 452 388 
f 387 451 452 
f 388 453 389 
f 388 452 453 
f 389 454 390 
f 389 453 454 
f 390 455 391 
f 390 454 455 
f 391 456 392 
f 391 455 456 
f 392 457 393 
f 392 456 457 
f 393 458 394 
f 393 457 458 
f 394 459 395 
f 394 458 459 
f 395 460 396 
f 395 459 460 
f 396 461 397 
f 396 460 461 
f 397 462 398 
f 397 461 462 
f 398 463 399 
f 398 462 463 
f 399 464 400 
f 399 463 464 
f 400 465 401 
f 400 464 465 
f 401 466 402 
f 401 465 466 
f 402 467 403 
f 402 466 467 
f 403 468 404 
f 403 467 468 
f 404 469 405 
f 404 468 469 
f 405 470 406 
f 405 469 470 
f 406 471 407 
f 406 470 471 
f 407 472 408 
f 407 471 472 
f 408 473 409 
f 408 472 473 
f 409 474 410 
f 409 473 474 
f 410 475 411 
f 410 474 475 
f 411 476 412 
f 411 475 476 
f 412 477 413 
f 412 476 477 
f 413 478 414 
f 413 477 478 
f 414 479 415 
f 414 478 479 
f 415 480 416 
f 415 479 480 
f 416 481 417 
f 416 480 481 
f 417 482 418 
f 417 481 482 
f 418 483 419 
f 418 482 483 
f 419 484 420 
f 419 483 484 
f 420 485 421 
f 420 484 485 
f 421 486 422 
f 421 485 486 
f 422 487 423 
f 422 486 487 
f 423 488 424 
f 423 487 488 
f 424 489 425 
f 424 488 489 
f 425 490 426 
f 425 489 490 
f 426 491 427 
f 426 490 491 
f 427 492 428 
f 427 491 492 
f 428 493 429 
f 428 492 493 
f 429 494 430 
f 429 493 494 
f 430 495 431 
f 430 494 495 
f 431 496 432 
f 431 495 496 
f 432 497 433 
f 432 496 497 
f 433 498 434 
f 433 497 498 
f 434 499 435 
f 434 498 499 
f 435 500 436 
f 435 499 500 
f 436 501 437 
f 436 500 501 
f 437 502 438 
f 437 501 502 
f 438 503 439 
f 438 502 503 
f 439 504 440 
f 439 503 504 
f 440 505 441 
f 440 504 505 
f 441 506 442 
f 441 505 506 
f 442 507 443 
f 442 506 507 
f 443 508 444 
f 443 507 508 
f 444 509 445 
f 444 508 509 
f 445 510 446 
f 445 509 510 
f 446 511 447 
f 446 510 511 
f 447 512 448 
f 447 511 512 
f 448 449 385 
f 448 512 449 
f 449 514 450 
f 449 513 514 
f 450 515 451 
f 450 514 515 
f 451 516 452 
f 451 515 516 
f 452 517 453 
f 452 516 517 
f 453 518 454 
f 453 517 518 
f 454 519 455 
f 454 518 519 
f 455 520 456 
f 455 519 520 
f 456 521 457 
f 456 520 521 
f 457 522 458 
f 457 521 522 
f 458 523 459 
f 458 522 523 
f 459 524 460 
f 459 523 524 
f 460 525 461 
f 460 524 525 
f 461 526 462 
f 461 525 526 
f 462 527 463 
f 462 526 527 
f 463 528 464 
f 463 527 528 
f 464 529 465 
f 464 528 529 
f 465 530 466 
f 465 529 530 
f 466 531 467 
f 466 530 531 
f 467 532 468 
f 467 531 532 
f 468 533 469 
f 468 532 533 
f 469 534 470 
f 469 533 534 
f 470 535 471 
f 470 534 535 
f 471 536 472 
f 471 535 536 
f 472 537 473 
f 472 536 537 
f 473 538 474 
f 473 537 538 
f 474 539 475 
f 474 538 539 
f 475 540 476 
f 475 539 540 
f 476 541 477 
f 476 540 541 
f 477 542 478 
f 477 541 542 
f 478 543 479 
f 478 542 543 
f 479 544 480 
f 479 543 544 
f 480 545 481 
f 480 544 545 
f 481 546 482 
f 481 545 546 
f 482 547 483 
f 482 546 547 
f 483 548 484 
f 483 547 548 
f 484 549 485 
f 484 548 549 
f 485 550 486 
f 485 549 550 
f 486 551 487 
f 486 550 551 
f 487 552 488 
f 487 551 552 
f 488 553 489 
f 488 552 553 
f 489 554 490 
f 489 553 554 
f 490 555 491 
f 490 554 555 
f 491 556 492 
f 491 555 556 
f 492 557 493 
f 492 556 557 
f 493 558 494 
f 493 557 558 
f 494 559 495 
f 494 558 559 
f 495 560 496 
f 495 559 560 
f 496 561 497 
f 496 560 561 
f 497 562 498 
f 497 561 562 
f 498 563 499 
f 498 562 563 
f 499 564 500 
f 499 563 564 
f 500 565 501 
f 500 564 565 
f 501 566 502 
f 501 565 566 
f 502 567 503 
f 502 566 567 
f 503 568 504 
f 503 567 568 
f 504 569 505 
f 504 568 569 
f 505 570 506 
f 505 569 570 
f 506 571 507 
f 506 570 571 
f 507 572 508 
f 507 571 572 
f 508 573 509 
f 508 572 573 
f 509 574 510 
f 509 573 574 
f 510 575 511 
f 510 574 575 
f 511 576 512 
f 511 575 576 
f 512 513 449 
f 512 576 513 
f 513 578 514 
f 513 577 578 
f 514 579 515 
f 514 578 579 
f 515 580 516 
f 515 579 580 
f 516 581 517 
f 516 580 581 
f 517 582 518 
f 517 581 582 
f 518 583 519 
f 518 582 583 
f 519 584 520 
f 519 583 584 
f 520 585 521 
f 520 584 585 
f 521 586 522 
f 521 585 586 
f 522 587 523 
f 522 586 587 
f 523 588 524 
f 523 587 588 
f 524 589 525 
f 524 588 589 
f 525 590 526 
f 525 589 590 
f 526 591 527 
f 526 590 591 
f 527 592 528 
f 527 591 592 
f 528 593 529 
f 528 592 593 
f 529 594 530 
f 529 593 594 
f 530 595 531 
f 530 594 595 
f 531 596 532 
f 531 595 596 
f 532 597 533 
f 532 596 597 
f 533 598 534 
f 533 597 598 
f 534 599 535 
f 534 598 599 
f 535 600 536 
f 535 599 600 
f 536 601 537 
f 536 600 601 
f 537 602 538 
f 537 601 602 
f 538 603 539 
f 538 602 603 
f 539 604 540 
f 539 603 604 
f 540 605 541 
f 540 604 605 
f 541 606 542 
f 541 605 606 
f 542 607 543 
f 542 606 607 
f 543 608 544 
f 543 607 608 
f 544 609 545 
f 544 608 609 
f 545 610 546 
f 545 609 610 
f 546 611 547 
f 546 610 611 
f 547 612 548 
f 547 611 612 
f 548 613 549 
f 548 612 613 
f 549 614 550 
f 549 613 614 
f 550 615 551 
f 550 614 615 
f 551 616 552 
f 551 615 616 
f 552 617 553 
f 552 616 617 
f 553 618 554 
f 553 617 618 
f 554 619 555 
f 554 618 619 
f 555 620 556 
f 555 619 620 
f 556 621 557 
f 556 620 621 
f 557 622 558 
f 557 621 622 
f 558 623 559 
f 558 622 623 
f 559 624 560 
f 559 623 624 
f 560 625 561 
f 560 624 625 
f 561 626 562 
f 561 625 626 
f 562 627 563 
f 562 626 627 
f 563 628 564 
f 563 627 628 
f 564 629 565 
f 564 628 629 
f 565 630 566 
f 565 629 630 
f 566 631 567 
f 566 630 631 
f 567 632 568 
f 567 631 632 
f 568 633 569 
f 568 632 633 
f 569 634 570 
f 569 633 634 
f 570 635 571 
f 570 634 635 
f 571 636 572 
f 571 635 636 
f 572 637 573 
f 572 636 637 
f 573 638 574 
f 573 637 638 
f 574 639 575 
f 574 638 639 
f 575 640 576 
f 575 639 640 
f 576 577 513 
f 576 640 577 
