# Branch
v 6.49852 4.59439 -28.3809
vn -0.364412 -0.689567 -0.62586
v 6.48787 4.58141 -28.3582
vn -0.401404 -0.734664 -0.54694
v 6.47834 4.57047 -28.334
vn -0.434529 -0.772686 -0.462752
v 6.47001 4.56167 -28.3084
vn -0.46347 -0.803267 -0.374108
v 6.46297 4.55509 -28.2819
vn -0.487948 -0.826112 -0.281861
v 6.45728 4.55081 -28.2546
vn -0.507726 -0.841001 -0.1869
v 6.45299 4.54885 -28.2267
vn -0.522615 -0.84779 -0.0901383
v 6.45016 4.54925 -28.1986
vn -0.532471 -0.846415 0.00749118
v 6.4488 4.55199 -28.1706
vn -0.537198 -0.836889 0.105049
v 6.44892 4.55705 -28.1428
vn -0.536752 -0.819303 0.201594
v 6.45054 4.56438 -28.1156
vn -0.531137 -0.793826 0.296198
v 6.45363 4.57391 -28.0891
vn -0.520407 -0.760705 0.38795
v 6.45816 4.58555 -28.0638
vn -0.504665 -0.720257 0.475966
v 6.46409 4.59919 -28.0398
vn -0.484063 -0.672873 0.559397
v 6.47136 4.61469 -28.0174
vn -0.458798 -0.619009 0.637442
v 6.4799 4.63191 -27.9967
vn -0.429116 -0.559183 0.709347
v 6.48963 4.65067 -27.9779
vn -0.395301 -0.493973 0.774421
v 6.50046 4.67081 -27.9614
vn -0.357679 -0.424005 0.832037
v 6.51227 4.69212 -27.9471
vn -0.316612 -0.349953 0.88164
v 6.52497 4.7144 -27.9352
vn -0.272496 -0.272531 0.922753
v 6.53842 4.73743 -27.926
vn -0.225756 -0.192485 0.954978
v 6.5525 4.761 -27.9193
vn -0.176841 -0.110585 0.978007
v 6.56706 4.78488 -27.9154
vn -0.126224 -0.0276202 0.991617
v 6.58198 4.80883 -27.9143
vn -0.074391 0.0556108 0.995677
v 6.5971 4.83262 -27.9159
vn -0.0218415 0.138306 0.990149
v 6.61228 4.85604 -27.9202
vn 0.0309183 0.21967 0.975084
v 6.62738 4.87884 -27.9272
vn 0.0833803 0.298918 0.950629
v 6.64225 4.90082 -27.9369
vn 0.135039 0.375287 0.917019
v 6.65674 4.92176 -27.9491
vn 0.185398 0.448042 0.874578
v 6.67072 4.94145 -27.9637
vn 0.233971 0.516482 0.823714
v 6.68405 4.95972 -27.9807
vn 0.280291 0.579948 0.764917
v 6.6966 4.97637 -27.9997
vn 0.323911 0.637829 0.698753
v 6.70825 4.99126 -28.0207
vn 0.364412 0.689567 0.62586
v 6.7189 5.00424 -28.0434
vn 0.401404 0.734664 0.54694
v 6.72843 5.01518 -28.0676
vn 0.434529 0.772686 0.462752
v 6.73676 5.02398 -28.0931
vn 0.46347 0.803267 0.374108
v 6.7438 5.03056 -28.1197
vn 0.487948 0.826112 0.281861
v 6.7495 5.03484 -28.147
vn 0.507726 0.841001 0.1869
v 6.75378 5.03679 -28.1749
vn 0.522615 0.84779 0.0901383
v 6.75662 5.0364 -28.2029
vn 0.532471 0.846415 -0.00749118
v 6.75798 5.03366 -28.231
vn 0.537198 0.836889 -0.105049
v 6.75785 5.0286 -28.2588
vn 0.536752 0.819303 -0.201594
v 6.75623 5.02126 -28.286
vn 0.531137 0.793826 -0.296198
v 6.75314 5.01173 -28.3124
vn 0.520407 0.760705 -0.38795
v 6.74861 5.00009 -28.3378
vn 0.504665 0.720257 -0.475966
v 6.74269 4.98646 -28.3618
vn 0.484063 0.672873 -0.559397
v 6.73542 4.97096 -28.3842
vn 0.458798 0.619009 -0.637442
v 6.72687 4.95374 -28.4049
vn 0.429116 0.559183 -0.709347
v 6.71714 4.93497 -28.4236
vn 0.395301 0.493973 -0.774421
v 6.70632 4.91484 -28.4402
vn 0.357679 0.424005 -0.832037
v 6.6945 4.89353 -28.4545
vn 0.316612 0.349953 -0.88164
v 6.6818 4.87125 -28.4663
vn 0.272496 0.272531 -0.922753
v 6.66835 4.84822 -28.4756
vn 0.225756 0.192485 -0.954978
v 6.65428 4.82465 -28.4822
vn 0.176841 0.110585 -0.978007
v 6.63971 4.80077 -28.4861
vn 0.126224 0.0276202 -0.991617
v 6.62479 4.77682 -28.4873
vn 0.074391 -0.0556108 -0.995677
v 6.60967 4.75302 -28.4857
vn 0.0218415 -0.138306 -0.990149
v 6.59449 4.72961 -28.4814
vn -0.0309183 -0.21967 -0.975084
v 6.57939 4.7068 -28.4744
vn -0.0833803 -0.298918 -0.950629
v 6.56453 4.68483 -28.4647
vn -0.135039 -0.375287 -0.917019
v 6.55003 4.66389 -28.4525
vn -0.185398 -0.448042 -0.874578
v 6.53606 4.64419 -28.4378
vn -0.233971 -0.516482 -0.823714
v 6.52273 4.62593 -28.4209
vn -0.280291 -0.579948 -0.764917
v 6.51017 4.60927 -28.4019
vn -0.323911 -0.637829 -0.698753
v 7.17467 4.17783 -28.3015
vn -0.34919 -0.69898 -0.624094
v 7.16407 4.16494 -28.2789
vn -0.386254 -0.744032 -0.545182
v 7.15453 4.1541 -28.2548
vn -0.419599 -0.781919 -0.46102
v 7.14615 4.14542 -28.2295
vn -0.448903 -0.812275 -0.372418
v 7.139 4.13897 -28.2031
vn -0.473884 -0.834808 -0.28023
v 7.13316 4.13483 -28.176
vn -0.494301 -0.849302 -0.185342
v 7.12868 4.13302 -28.1483
vn -0.509958 -0.855617 -0.0886699
v 7.12561 4.13357 -28.1204
vn -0.520703 -0.853692 0.0088564
v 7.12397 4.13648 -28.0925
vn -0.526434 -0.843545 0.106297
v 7.12378 4.1417 -28.065
vn -0.527095 -0.825274 0.202715
v 7.12504 4.1492 -28.0379
vn -0.52268 -0.799056 0.29718
v 7.12775 4.1589 -28.0117
vn -0.513231 -0.765142 0.388783
v 7.13186 4.17071 -27.9866
vn -0.498839 -0.723859 0.476642
v 7.13735 4.18451 -27.9628
vn -0.479644 -0.675605 0.55991
v 7.14416 4.20018 -27.9405
vn -0.455829 -0.620845 0.637786
v 7.15223 4.21755 -27.92
vn -0.427624 -0.560106 0.70952
v 7.16148 4.23647 -27.9014
vn -0.395301 -0.493973 0.774421
v 7.17181 4.25674 -27.885
vn -0.359171 -0.423082 0.831864
v 7.18314 4.27819 -27.8709
vn -0.319582 -0.348117 0.881296
v 7.19534 4.30059 -27.8592
vn -0.276915 -0.269799 0.92224
v 7.20831 4.32373 -27.85
vn -0.231581 -0.188883 0.954303
v 7.22191 4.3474 -27.8434
vn -0.184017 -0.106148 0.977175
v 7.23602 4.37136 -27.8396
vn -0.134681 -0.0223906 0.990636
v 7.25051 4.39538 -27.8385
vn -0.0840481 0.0615823 0.994557
v 7.26522 4.41923 -27.8401
vn -0.0326055 0.144962 0.9889
v 7.28003 4.44268 -27.8444
vn 0.0191511 0.226946 0.973719
v 7.29478 4.4655 -27.8515
vn 0.0707232 0.306744 0.949161
v 7.30933 4.48748 -27.8611
vn 0.121614 0.383588 0.915462
v 7.32356 4.50841 -27.8733
vn 0.171334 0.456738 0.872946
v 7.33731 4.52807 -27.8878
vn 0.219404 0.52549 0.822024
v 7.35045 4.54629 -27.9046
vn 0.265361 0.58918 0.763184
v 7.36287 4.56288 -27.9236
vn 0.308762 0.647196 0.696996
v 7.37443 4.5777 -27.9444
vn 0.34919 0.69898 0.624094
v 7.38503 4.59058 -27.967
vn 0.386254 0.744032 0.545182
v 7.39457 4.60142 -27.9911
vn 0.419599 0.781919 0.46102
v 7.40295 4.6101 -28.0164
vn 0.448903 0.812275 0.372418
v 7.4101 4.61655 -28.0428
vn 0.473884 0.834808 0.28023
v 7.41594 4.62069 -28.0699
vn 0.494301 0.849302 0.185342
v 7.42042 4.6225 -28.0976
vn 0.509958 0.855617 0.0886699
v 7.42349 4.62195 -28.1255
vn 0.520703 0.853692 -0.0088564
v 7.42513 4.61905 -28.1534
vn 0.526434 0.843545 -0.106297
v 7.42532 4.61382 -28.1809
vn 0.527095 0.825274 -0.202715
v 7.42405 4.60632 -28.208
vn 0.52268 0.799056 -0.29718
v 7.42135 4.59662 -28.2342
vn 0.513231 0.765142 -0.388783
v 7.41724 4.58481 -28.2593
vn 0.498839 0.723859 -0.476642
v 7.41174 4.57101 -28.2831
vn 0.479644 0.675605 -0.55991
v 7.40493 4.55535 -28.3054
vn 0.455829 0.620845 -0.637786
v 7.39687 4.53797 -28.3259
vn 0.427624 0.560106 -0.70952
v 7.38762 4.51906 -28.3445
vn 0.395301 0.493973 -0.774421
v 7.37728 4.49878 -28.3609
vn 0.359171 0.423082 -0.831864
v 7.36596 4.47734 -28.375
vn 0.319582 0.348117 -0.881296
v 7.35376 4.45493 -28.3867
vn 0.276915 0.269799 -0.92224
v 7.34079 4.43179 -28.3959
vn 0.231581 0.188883 -0.954303
v 7.32718 4.40812 -28.4025
vn 0.184017 0.106148 -0.977175
v 7.31307 4.38417 -28.4063
vn 0.134681 0.0223906 -0.990636
v 7.29859 4.36015 -28.4074
vn 0.0840481 -0.0615823 -0.994557
v 7.28388 4.3363 -28.4058
vn 0.0326055 -0.144962 -0.9889
v 7.26907 4.31285 -28.4015
vn -0.0191511 -0.226946 -0.973719
v 7.25432 4.29002 -28.3944
vn -0.0707232 -0.306744 -0.949161
v 7.23976 4.26804 -28.3848
vn -0.121614 -0.383588 -0.915462
v 7.22554 4.24712 -28.3726
vn -0.171334 -0.456738 -0.872946
v 7.21179 4.22745 -28.3581
vn -0.219404 -0.52549 -0.822024
v 7.19865 4.20923 -28.3412
vn -0.265361 -0.58918 -0.763184
v 7.18623 4.19264 -28.3223
vn -0.308762 -0.647196 -0.696996
v 7.84732 3.77657 -28.2141
vn -0.333453 -0.708403 -0.622072
v 7.83676 3.76377 -28.1916
vn -0.370594 -0.75341 -0.54317
v 7.82721 3.75304 -28.1677
vn -0.404166 -0.791161 -0.459037
v 7.81878 3.74447 -28.1425
vn -0.433845 -0.821292 -0.370483
v 7.81153 3.73816 -28.1163
vn -0.459346 -0.843514 -0.278362
v 7.80553 3.73415 -28.0894
vn -0.480423 -0.857613 -0.183559
v 7.80086 3.73249 -28.0619
vn -0.496874 -0.863452 -0.0869887
v 7.79754 3.73319 -28.0342
vn -0.508539 -0.860976 0.0104194
v 7.79562 3.73625 -28.0066
vn -0.515307 -0.850208 0.107727
v 7.7951 3.74164 -27.9792
vn -0.517112 -0.831252 0.203997
v 7.79601 3.74931 -27.9524
vn -0.513937 -0.804291 0.298303
v 7.79832 3.75917 -27.9264
vn -0.505813 -0.769584 0.389736
v 7.80201 3.77115 -27.9015
vn -0.492817 -0.727465 0.477415
v 7.80705 3.78512 -27.8779
vn -0.475076 -0.678341 0.560497
v 7.8134 3.80094 -27.8558
vn -0.452759 -0.622684 0.638181
v 7.82098 3.81847 -27.8354
vn -0.426081 -0.56103 0.709719
v 7.82973 3.83753 -27.817
vn -0.395301 -0.493973 0.774421
v 7.83957 3.85795 -27.8008
vn -0.360713 -0.422158 0.831666
v 7.85039 3.87952 -27.7868
vn -0.322652 -0.346278 0.880901
v 7.86209 3.90204 -27.7752
vn -0.281483 -0.267064 0.921653
v 7.87457 3.92529 -27.7661
vn -0.237603 -0.185277 0.953529
v 7.88769 3.94905 -27.7597
vn -0.191435 -0.101706 0.976222
v 7.90134 3.97309 -27.7559
vn -0.143424 -0.0171555 0.989513
v 7.91539 3.99718 -27.7548
vn -0.094031 0.0675602 0.993274
v 7.92969 4.02108 -27.7565
vn -0.0437327 0.151625 0.98747
v 7.94411 4.04456 -27.7608
vn 0.00698681 0.23423 0.972156
v 7.95851 4.0674 -27.7678
vn 0.057639 0.314579 0.94748
v 7.97275 4.08939 -27.7774
vn 0.107736 0.391899 0.913678
v 7.9867 4.1103 -27.7896
vn 0.156796 0.465444 0.871078
v 8.00021 4.12993 -27.804
vn 0.204345 0.534507 0.820089
v 8.01317 4.1481 -27.8208
vn 0.249927 0.598422 0.761201
v 8.02545 4.16463 -27.8396
vn 0.293101 0.656574 0.694983
v 8.03692 4.17937 -27.8603
vn 0.333453 0.708403 0.622072
v 8.04748 4.19217 -27.8828
vn 0.370594 0.75341 0.54317
v 8.05702 4.2029 -27.9067
vn 0.404166 0.791161 0.459037
v 8.06546 4.21146 -27.9319
vn 0.433845 0.821292 0.370483
v 8.07271 4.21778 -27.9581
vn 0.459346 0.843514 0.278362
v 8.0787 4.22179 -27.985
vn 0.480423 0.857613 0.183559
v 8.08338 4.22345 -28.0125
vn 0.496874 0.863452 0.0869887
v 8.0867 4.22275 -28.0402
vn 0.508539 0.860976 -0.0104194
v 8.08862 4.21969 -28.0678
vn 0.515307 0.850208 -0.107727
v 8.08914 4.2143 -28.0952
vn 0.517112 0.831252 -0.203997
v 8.08823 4.20663 -28.122
vn 0.513937 0.804291 -0.298303
v 8.08592 4.19676 -28.148
vn 0.505813 0.769584 -0.389736
v 8.08223 4.18479 -28.1729
vn 0.492817 0.727465 -0.477415
v 8.07718 4.17082 -28.1966
vn 0.475076 0.678341 -0.560497
v 8.07084 4.155 -28.2186
vn 0.452759 0.622684 -0.638181
v 8.06326 4.13747 -28.239
vn 0.426081 0.56103 -0.709719
v 8.0545 4.11841 -28.2574
vn 0.395301 0.493973 -0.774421
v 8.04467 4.09799 -28.2736
vn 0.360713 0.422158 -0.831666
v 8.03385 4.07642 -28.2876
vn 0.322652 0.346278 -0.880901
v 8.02215 4.0539 -28.2992
vn 0.281483 0.267064 -0.921653
v 8.00967 4.03064 -28.3083
vn 0.237603 0.185277 -0.953529
v 7.99654 4.00688 -28.3147
vn 0.191435 0.101706 -0.976222
v 7.98289 3.98285 -28.3185
vn 0.143424 0.0171555 -0.989513
v 7.96885 3.95876 -28.3196
vn 0.094031 -0.0675602 -0.993274
v 7.95455 3.93486 -28.3179
vn 0.0437327 -0.151625 -0.98747
v 7.94013 3.91138 -28.3136
vn -0.00698681 -0.23423 -0.972156
v 7.92573 3.88853 -28.3066
vn -0.057639 -0.314579 -0.94748
v 7.91149 3.86655 -28.297
vn -0.107736 -0.391899 -0.913678
v 7.89754 3.84564 -28.2849
vn -0.156796 -0.465444 -0.871078
v 7.88402 3.82601 -28.2704
vn -0.204345 -0.534507 -0.820089
v 7.87106 3.80784 -28.2536
vn -0.249927 -0.598422 -0.761201
v 7.85879 3.7913 -28.2348
vn -0.293101 -0.656574 -0.694983
v 8.51647 3.39062 -28.1187
vn -0.317195 -0.717817 -0.619778
v 8.50595 3.37791 -28.0964
vn -0.354414 -0.762779 -0.540887
v 8.4964 3.36728 -28.0726
vn -0.38822 -0.800394 -0.456787
v 8.4879 3.35883 -28.0476
vn -0.418287 -0.830301 -0.368288
v 8.48054 3.35264 -28.0216
vn -0.444325 -0.852212 -0.276242
v 8.4744 3.34877 -27.9948
vn -0.466085 -0.865916 -0.181536
v 8.46952 3.34725 -27.9676
vn -0.483356 -0.87128 -0.0850814
v 8.46595 3.34811 -27.9401
vn -0.495971 -0.868253 0.0121925
v 8.46374 3.35133 -27.9126
vn -0.503811 -0.856865 0.109349
v 8.46289 3.35688 -27.8855
vn -0.506798 -0.837225 0.205453
v 8.46343 3.3647 -27.8589
vn -0.504905 -0.809521 0.299577
v 8.46534 3.37473 -27.8331
vn -0.498149 -0.774022 0.390817
v 8.4686 3.38687 -27.8084
vn -0.486596 -0.731068 0.478293
v 8.47319 3.401 -27.785
vn -0.470356 -0.681074 0.561163
v 8.47906 3.41698 -27.7631
vn -0.449587 -0.62452 0.638628
v 8.48615 3.43466 -27.7429
vn -0.424488 -0.561952 0.709943
v 8.4944 3.45387 -27.7247
vn -0.395301 -0.493973 0.774421
v 8.50372 3.47442 -27.7086
vn -0.362307 -0.421235 0.831441
v 8.51403 3.49612 -27.6948
vn -0.325823 -0.344442 0.880454
v 8.52523 3.51876 -27.6833
vn -0.286202 -0.264331 0.920987
v 8.5372 3.54211 -27.6744
vn -0.243825 -0.181674 0.952651
v 8.54984 3.56596 -27.668
vn -0.199099 -0.097268 0.97514
v 8.56302 3.59008 -27.6643
vn -0.152456 -0.0119251 0.988238
v 8.57661 3.61423 -27.6633
vn -0.104345 0.0735327 0.991819
v 8.59049 3.63817 -27.665
vn -0.055229 0.158282 0.985848
v 8.60452 3.66169 -27.6693
vn -0.00558094 0.241508 0.970383
v 8.61856 3.68455 -27.6764
vn 0.0441208 0.322407 0.945572
v 8.63249 3.70653 -27.6859
vn 0.0933977 0.400201 0.911655
v 8.64616 3.72742 -27.698
vn 0.141775 0.474142 0.868959
v 8.65944 3.74703 -27.7124
vn 0.188787 0.543516 0.817894
v 8.67221 3.76515 -27.7291
vn 0.233981 0.607656 0.758952
v 8.68435 3.78162 -27.7478
vn 0.276922 0.665943 0.692701
v 8.69573 3.79628 -27.7684
vn 0.317195 0.717817 0.619778
v 8.70624 3.80898 -27.7907
vn 0.354414 0.762779 0.540887
v 8.7158 3.81961 -27.8145
vn 0.38822 0.800394 0.456787
v 8.72429 3.82806 -27.8395
vn 0.418287 0.830301 0.368288
v 8.73165 3.83426 -27.8655
vn 0.444325 0.852212 0.276242
v 8.7378 3.83813 -27.8923
vn 0.466085 0.865916 0.181536
v 8.74268 3.83964 -27.9195
vn 0.483356 0.87128 0.0850814
v 8.74624 3.83879 -27.947
vn 0.495971 0.868253 -0.0121925
v 8.74846 3.83557 -27.9744
vn 0.503811 0.856865 -0.109349
v 8.7493 3.83002 -28.0016
vn 0.506798 0.837225 -0.205453
v 8.74877 3.82219 -28.0282
vn 0.504905 0.809521 -0.299577
v 8.74686 3.81216 -28.054
vn 0.498149 0.774022 -0.390817
v 8.74359 3.80002 -28.0787
vn 0.486596 0.731068 -0.478293
v 8.739 3.7859 -28.1021
vn 0.470356 0.681074 -0.561163
v 8.73314 3.76992 -28.124
vn 0.449587 0.62452 -0.638628
v 8.72604 3.75224 -28.1442
vn 0.424488 0.561952 -0.709943
v 8.7178 3.73303 -28.1624
vn 0.395301 0.493973 -0.774421
v 8.70847 3.71248 -28.1785
vn 0.362307 0.421235 -0.831441
v 8.69816 3.69078 -28.1923
vn 0.325823 0.344442 -0.880454
v 8.68697 3.66814 -28.2038
vn 0.286202 0.264331 -0.920987
v 8.67499 3.64478 -28.2127
vn 0.243825 0.181674 -0.952651
v 8.66236 3.62093 -28.2191
vn 0.199099 0.097268 -0.97514
v 8.64918 3.59682 -28.2228
vn 0.152456 0.0119251 -0.988238
v 8.63558 3.57267 -28.2238
vn 0.104345 -0.0735327 -0.991819
v 8.6217 3.54872 -28.2221
vn 0.055229 -0.158282 -0.985848
v 8.60767 3.52521 -28.2177
vn 0.00558094 -0.241508 -0.970383
v 8.59363 3.50235 -28.2107
vn -0.0441208 -0.322407 -0.945572
v 8.57971 3.48036 -28.2012
vn -0.0933977 -0.400201 -0.911655
v 8.56604 3.45947 -28.1891
vn -0.141775 -0.474142 -0.868959
v 8.55275 3.43987 -28.1747
vn -0.188787 -0.543516 -0.817894
v 8.53998 3.42174 -28.158
vn -0.233981 -0.607656 -0.758952
v 8.52785 3.40527 -28.1393
vn -0.276922 -0.665943 -0.692701
v 9.18212 3.01997 -28.0153
vn -0.300408 -0.727203 -0.617196
v 9.17164 3.00736 -27.9932
vn -0.337708 -0.772119 -0.538318
v 9.16208 2.99683 -27.9696
vn -0.371755 -0.809599 -0.454255
v 9.15352 2.9885 -27.9447
vn -0.402223 -0.839282 -0.365817
v 9.14606 2.98243 -27.9189
vn -0.428816 -0.860883 -0.273857
v 9.13975 2.97869 -27.8923
vn -0.45128 -0.874193 -0.179259
v 9.13466 2.97732 -27.8653
vn -0.469398 -0.879083 -0.0829343
v 9.13084 2.97832 -27.838
vn -0.482995 -0.875508 0.0141887
v 9.12833 2.9817 -27.8108
vn -0.491941 -0.863501 0.111175
v 9.12715 2.9874 -27.7838
vn -0.496149 -0.843178 0.207091
v 9.12731 2.99539 -27.7575
vn -0.495579 -0.814735 0.301012
v 9.12881 3.00558 -27.7319
vn -0.490236 -0.778446 0.392034
v 9.13163 3.01788 -27.7074
vn -0.480172 -0.73466 0.479281
v 9.13576 3.03216 -27.6842
vn -0.465483 -0.683798 0.561912
v 9.14114 3.0483 -27.6625
vn -0.446312 -0.626351 0.639132
v 9.14773 3.06612 -27.6425
vn -0.422842 -0.562872 0.710197
v 9.15547 3.08547 -27.6245
vn -0.395301 -0.493973 0.774421
v 9.16427 3.10616 -27.6086
vn -0.363952 -0.420316 0.831188
v 9.17406 3.12798 -27.5949
vn -0.329098 -0.342611 0.87995
v 9.18474 3.15073 -27.5836
vn -0.291075 -0.261606 0.920238
v 9.1962 3.17418 -27.5747
vn -0.250249 -0.178083 0.951663
v 9.20835 3.19812 -27.5685
vn -0.207013 -0.0928439 0.973923
v 9.22105 3.22231 -27.5649
vn -0.161783 -0.00671094 0.986804
v 9.23419 3.24652 -27.5639
vn -0.114995 0.0794866 0.990181
v 9.24764 3.27051 -27.5656
vn -0.0670991 0.164919 0.984022
v 9.26127 3.29406 -27.57
vn -0.0185574 0.248762 0.968387
v 9.27495 3.31693 -27.577
vn 0.0301631 0.330211 0.943425
v 9.28855 3.33891 -27.5866
vn 0.078593 0.408479 0.909378
v 9.30194 3.35979 -27.5986
vn 0.126266 0.482813 0.866573
v 9.31499 3.37936 -27.613
vn 0.172723 0.552497 0.815422
v 9.32757 3.39743 -27.6296
vn 0.217517 0.61686 0.756419
v 9.33956 3.41384 -27.6482
vn 0.260216 0.675283 0.690131
v 9.35085 3.42842 -27.6687
vn 0.300408 0.727203 0.617196
v 9.36132 3.44103 -27.6908
vn 0.337708 0.772119 0.538318
v 9.37088 3.45156 -27.7144
vn 0.371755 0.809599 0.454255
v 9.37944 3.45989 -27.7393
vn 0.402223 0.839282 0.365817
v 9.38691 3.46596 -27.7651
vn 0.428816 0.860883 0.273857
v 9.39322 3.4697 -27.7916
vn 0.45128 0.874193 0.179259
v 9.3983 3.47107 -27.8187
vn 0.469398 0.879083 0.0829343
v 9.40212 3.47007 -27.846
vn 0.482995 0.875508 -0.0141887
v 9.40463 3.4667 -27.8732
vn 0.491941 0.863501 -0.111175
v 9.40582 3.46099 -27.9001
vn 0.496149 0.843178 -0.207091
v 9.40566 3.453 -27.9265
vn 0.495579 0.814735 -0.301012
v 9.40416 3.44281 -27.9521
vn 0.490236 0.778446 -0.392034
v 9.40133 3.43051 -27.9766
vn 0.480172 0.73466 -0.479281
v 9.3972 3.41623 -27.9998
vn 0.465483 0.683798 -0.561912
v 9.39182 3.4001 -28.0215
vn 0.446312 0.626351 -0.639132
v 9.38523 3.38227 -28.0414
vn 0.422842 0.562872 -0.710197
v 9.3775 3.36292 -28.0595
vn 0.395301 0.493973 -0.774421
v 9.36869 3.34223 -28.0754
vn 0.363952 0.420316 -0.831188
v 9.3589 3.32041 -28.0891
vn 0.329098 0.342611 -0.87995
v 9.34823 3.29766 -28.1004
vn 0.291075 0.261606 -0.920238
v 9.33676 3.27421 -28.1092
vn 0.250249 0.178083 -0.951663
v 9.32462 3.25027 -28.1155
vn 0.207013 0.0928439 -0.973923
v 9.31192 3.22608 -28.1191
vn 0.161783 0.00671094 -0.986804
v 9.29878 3.20187 -28.1201
vn 0.114995 -0.0794866 -0.990181
v 9.28533 3.17788 -28.1183
vn 0.0670991 -0.164919 -0.984022
v 9.27169 3.15434 -28.1139
vn 0.0185574 -0.248762 -0.968387
v 9.25801 3.13146 -28.1069
vn -0.0301631 -0.330211 -0.943425
v 9.24441 3.10948 -28.0974
vn -0.078593 -0.408479 -0.909378
v 9.23102 3.08861 -28.0853
vn -0.126266 -0.482813 -0.866573
v 9.21798 3.06904 -28.071
vn -0.172723 -0.552497 -0.815422
v 9.2054 3.05096 -28.0544
vn -0.217517 -0.61686 -0.756419
v 9.1934 3.03455 -28.0358
vn -0.260216 -0.675283 -0.690131
v 9.84427 2.66465 -27.904
vn -0.283088 -0.736537 -0.614309
v 9.83383 2.65213 -27.882
vn -0.320471 -0.781408 -0.535444
v 9.82426 2.6417 -27.8585
vn -0.354768 -0.818754 -0.451423
v 9.81564 2.63348 -27.8338
vn -0.385648 -0.848214 -0.363054
v 9.80806 2.62754 -27.8082
vn -0.412814 -0.869506 -0.271189
v 9.80159 2.62393 -27.7818
vn -0.436005 -0.882424 -0.176712
v 9.79629 2.6227 -27.755
vn -0.454996 -0.886844 -0.0805335
v 9.79221 2.62385 -27.7279
vn -0.469606 -0.882723 0.0164208
v 9.78939 2.62737 -27.7009
vn -0.479693 -0.870101 0.113217
v 9.78787 2.63323 -27.6742
vn -0.485161 -0.8491 0.208923
v 9.78765 2.64138 -27.6481
vn -0.485956 -0.819921 0.302616
v 9.78873 2.65172 -27.6227
vn -0.482071 -0.782846 0.393396
v 9.79111 2.66418 -27.5984
vn -0.473543 -0.738231 0.480386
v 9.79476 2.67861 -27.5755
vn -0.460455 -0.686508 0.562751
v 9.79965 2.69489 -27.554
vn -0.442933 -0.628172 0.639695
v 9.80573 2.71286 -27.5342
vn -0.421145 -0.563787 0.71048
v 9.81295 2.73235 -27.5164
vn -0.395301 -0.493973 0.774421
v 9.82122 2.75316 -27.5006
vn -0.36565 -0.419401 0.830905
v 9.83048 2.7751 -27.4871
vn -0.332477 -0.34079 0.879387
v 9.84063 2.79796 -27.4759
vn -0.296103 -0.258897 0.919399
v 9.85158 2.82151 -27.4672
vn -0.256877 -0.174511 0.950558
v 9.86322 2.84553 -27.4611
vn -0.215177 -0.0884439 0.972562
v 9.87544 2.86979 -27.4576
vn -0.171405 -0.00152529 0.985199
v 9.88811 2.89405 -27.4567
vn -0.125983 0.085408 0.988349
v 9.90113 2.91809 -27.4585
vn -0.0793466 0.171519 0.98198
v 9.91436 2.94166 -27.4629
vn -0.0319463 0.255978 0.966155
v 9.92767 2.96454 -27.4699
vn 0.0157616 0.337971 0.941024
v 9.94095 2.98652 -27.4794
vn 0.0633177 0.41671 0.906832
v 9.95405 3.00737 -27.4914
vn 0.110264 0.491436 0.863905
v 9.96685 3.02691 -27.5057
vn 0.156148 0.561429 0.812659
v 9.97924 3.04493 -27.5222
vn 0.200529 0.626015 0.753587
v 9.99109 3.06128 -27.5407
vn 0.242978 0.684572 0.687257
v 10.0023 3.07578 -27.5611
vn 0.283088 0.736537 0.614309
v 10.0127 3.0883 -27.5831
vn 0.320471 0.781408 0.535444
v 10.0223 3.09873 -27.6065
vn 0.354768 0.818754 0.451423
v 10.0309 3.10695 -27.6312
vn 0.385648 0.848214 0.363054
v 10.0385 3.11289 -27.6568
vn 0.412814 0.869506 0.271189
v 10.045 3.1165 -27.6832
vn 0.436005 0.882424 0.176712
v 10.0503 3.11773 -27.71
vn 0.454996 0.886844 0.0805335
v 10.0543 3.11658 -27.7371
vn 0.469606 0.882723 -0.0164208
v 10.0572 3.11306 -27.7641
vn 0.479693 0.870101 -0.113217
v 10.0587 3.1072 -27.7908
vn 0.485161 0.8491 -0.208923
v 10.0589 3.09905 -27.817
vn 0.485956 0.819921 -0.302616
v 10.0578 3.08871 -27.8423
vn 0.482071 0.782846 -0.393396
v 10.0554 3.07625 -27.8666
vn 0.473543 0.738231 -0.480386
v 10.0518 3.06182 -27.8896
vn 0.460455 0.686508 -0.562751
v 10.0469 3.04554 -27.9111
vn 0.442933 0.628172 -0.639695
v 10.0408 3.02757 -27.9308
vn 0.421145 0.563787 -0.71048
v 10.0336 3.00808 -27.9487
vn 0.395301 0.493973 -0.774421
v 10.0253 2.98727 -27.9644
vn 0.36565 0.419401 -0.830905
v 10.0161 2.96533 -27.978
vn 0.332477 0.34079 -0.879387
v 10.0059 2.94247 -27.9891
vn 0.296103 0.258897 -0.919399
v 9.99497 2.91892 -27.9978
vn 0.256877 0.174511 -0.950558
v 9.98333 2.8949 -28.004
vn 0.215177 0.0884439 -0.972562
v 9.97111 2.87064 -28.0075
vn 0.171405 0.00152529 -0.985199
v 9.95844 2.84638 -28.0084
vn 0.125983 -0.085408 -0.988349
v 9.94542 2.82234 -28.0066
vn 0.0793466 -0.171519 -0.98198
v 9.93219 2.79877 -28.0022
vn 0.0319463 -0.255978 -0.966155
v 9.91888 2.77589 -27.9952
vn -0.0157616 -0.337971 -0.941024
v 9.9056 2.75391 -27.9856
vn -0.0633177 -0.41671 -0.906832
v 9.8925 2.73306 -27.9736
vn -0.110264 -0.491436 -0.863905
v 9.87969 2.71352 -27.9593
vn -0.156148 -0.561429 -0.812659
v 9.86731 2.6955 -27.9428
vn -0.200529 -0.626015 -0.753587
v 9.85546 2.67915 -27.9243
vn -0.242978 -0.684572 -0.687257
v 10.5029 2.32465 -27.7846
vn -0.26523 -0.745795 -0.611099
v 10.4925 2.31222 -27.7628
vn -0.302699 -0.790622 -0.53225
v 10.4829 2.30189 -27.7395
vn -0.337253 -0.827834 -0.448275
v 10.4742 2.29378 -27.715
vn -0.368559 -0.857074 -0.359983
v 10.4666 2.28796 -27.6895
vn -0.396316 -0.87806 -0.268224
v 10.4599 2.28449 -27.6634
vn -0.420256 -0.89059 -0.173882
v 10.4544 2.28339 -27.6367
vn -0.440148 -0.894543 -0.0778649
v 10.4501 2.28468 -27.6099
vn -0.455802 -0.88988 0.0189017
v 10.4469 2.28835 -27.5831
vn -0.467066 -0.876648 0.115486
v 10.4451 2.29437 -27.5566
vn -0.473832 -0.854973 0.210959
v 10.4444 2.30266 -27.5307
vn -0.476035 -0.825065 0.304399
v 10.4451 2.31316 -27.5056
vn -0.473653 -0.78721 0.394909
v 10.447 2.32576 -27.4816
vn -0.46671 -0.741775 0.481615
v 10.4502 2.34035 -27.4588
vn -0.455272 -0.689195 0.563682
v 10.4546 2.35677 -27.4375
vn -0.439449 -0.629978 0.640322
v 10.4601 2.37488 -27.418
vn -0.419394 -0.564695 0.710794
v 10.4668 2.39449 -27.4003
vn -0.395301 -0.493973 0.774421
v 10.4746 2.41543 -27.3848
vn -0.3674 -0.418493 0.830591
v 10.4833 2.43748 -27.3714
vn -0.335961 -0.338984 0.878761
v 10.4929 2.46044 -27.3604
vn -0.301287 -0.256209 0.918468
v 10.5033 2.48408 -27.3518
vn -0.263711 -0.170968 0.94933
v 10.5145 2.50818 -27.3458
vn -0.223595 -0.0840794 0.971049
v 10.5262 2.53251 -27.3424
vn -0.181326 0.00361857 0.983416
v 10.5384 2.55682 -27.3416
vn -0.137311 0.0912817 0.986313
v 10.551 2.58089 -27.3434
vn -0.0919736 0.178066 0.979711
v 10.5638 2.60449 -27.3479
vn -0.0457503 0.263135 0.963674
v 10.5767 2.62738 -27.3549
vn 0.000913672 0.34567 0.938356
v 10.5897 2.64935 -27.3644
vn 0.0475688 0.424876 0.904001
v 10.6025 2.67018 -27.3764
vn 0.0937659 0.49999 0.86094
v 10.615 2.68968 -27.3906
vn 0.13906 0.570289 0.809588
v 10.6272 2.70766 -27.407
vn 0.183015 0.635096 0.750439
v 10.6389 2.72394 -27.4254
vn 0.225207 0.693786 0.684063
v 10.65 2.73836 -27.4456
vn 0.26523 0.745795 0.611099
v 10.6604 2.75079 -27.4675
vn 0.302699 0.790622 0.53225
v 10.67 2.76112 -27.4908
vn 0.337253 0.827834 0.448275
v 10.6787 2.76923 -27.5153
vn 0.368559 0.857074 0.359983
v 10.6864 2.77505 -27.5408
vn 0.396316 0.87806 0.268224
v 10.693 2.77852 -27.5669
vn 0.420256 0.89059 0.173882
v 10.6986 2.77962 -27.5935
vn 0.440148 0.894543 0.0778649
v 10.7029 2.77832 -27.6204
vn 0.455802 0.88988 -0.0189017
v 10.706 2.77465 -27.6472
vn 0.467066 0.876648 -0.115486
v 10.7079 2.76864 -27.6737
vn 0.473832 0.854973 -0.210959
v 10.7085 2.76035 -27.6996
vn 0.476035 0.825065 -0.304399
v 10.7078 2.74985 -27.7247
vn 0.473653 0.78721 -0.394909
v 10.7059 2.73725 -27.7487
vn 0.46671 0.741775 -0.481615
v 10.7027 2.72266 -27.7715
vn 0.455272 0.689195 -0.563682
v 10.6984 2.70624 -27.7927
vn 0.439449 0.629978 -0.640322
v 10.6928 2.68813 -27.8123
vn 0.419394 0.564695 -0.710794
v 10.6861 2.66851 -27.8299
vn 0.395301 0.493973 -0.774421
v 10.6784 2.64758 -27.8455
vn 0.3674 0.418493 -0.830591
v 10.6697 2.62553 -27.8589
vn 0.335961 0.338984 -0.878761
v 10.66 2.60257 -27.8699
vn 0.301287 0.256209 -0.918468
v 10.6496 2.57892 -27.8785
vn 0.263711 0.170968 -0.94933
v 10.6385 2.55483 -27.8845
vn 0.223595 0.0840794 -0.971049
v 10.6268 2.5305 -27.8879
vn 0.181326 -0.00361857 -0.983416
v 10.6146 2.50619 -27.8887
vn 0.137311 -0.0912817 -0.986313
v 10.602 2.48212 -27.8869
vn 0.0919736 -0.178066 -0.979711
v 10.5892 2.45852 -27.8824
vn 0.0457503 -0.263135 -0.963674
v 10.5762 2.43563 -27.8754
vn -0.000913672 -0.34567 -0.938356
v 10.5633 2.41366 -27.8659
vn -0.0475688 -0.424876 -0.904001
v 10.5505 2.39283 -27.8539
vn -0.0937659 -0.49999 -0.86094
v 10.5379 2.37333 -27.8397
vn -0.13906 -0.570289 -0.809588
v 10.5257 2.35535 -27.8233
vn -0.183015 -0.635096 -0.750439
v 10.514 2.33907 -27.8049
vn -0.225207 -0.693786 -0.684063
v 11.158 1.99998 -27.6573
vn -0.246835 -0.754953 -0.607551
v 11.1477 1.98763 -27.6356
vn -0.284393 -0.799736 -0.528719
v 11.1381 1.97741 -27.6125
vn -0.319212 -0.836816 -0.444795
v 11.1293 1.96941 -27.5882
vn -0.350956 -0.865838 -0.356587
v 11.1215 1.96371 -27.5629
vn -0.379321 -0.886521 -0.264946
v 11.1147 1.96037 -27.5369
vn -0.404033 -0.898666 -0.170752
v 11.109 1.9594 -27.5105
vn -0.424853 -0.902157 -0.0749146
v 11.1044 1.96084 -27.4839
vn -0.441582 -0.89696 0.0216446
v 11.1009 1.96465 -27.4573
vn -0.454059 -0.883124 0.117995
v 11.0987 1.97081 -27.4311
vn -0.462162 -0.860783 0.21321
v 11.0977 1.97925 -27.4054
vn -0.465815 -0.830153 0.306371
v 11.0979 1.9899 -27.3806
vn -0.464981 -0.791527 0.396581
v 11.0994 2.00264 -27.3567
vn -0.45967 -0.745279 0.482972
v 11.1021 2.01737 -27.3342
vn -0.449932 -0.691854 0.564712
v 11.1059 2.03393 -27.3132
vn -0.43586 -0.631765 0.641014
v 11.111 2.05217 -27.2939
vn -0.417591 -0.565592 0.711142
v 11.1171 2.07191 -27.2764
vn -0.395301 -0.493973 0.774421
v 11.1243 2.09296 -27.261
vn -0.369203 -0.417596 0.830243
v 11.1325 2.11512 -27.2478
vn -0.33955 -0.337197 0.878068
v 11.1416 2.13818 -27.237
vn -0.306627 -0.253551 0.917438
v 11.1515 2.16191 -27.2286
vn -0.270751 -0.167463 0.947972
v 11.1621 2.18608 -27.2227
vn -0.232267 -0.0797624 0.969376
v 11.1733 2.21046 -27.2194
vn -0.191546 0.00870642 0.981445
v 11.185 2.23483 -27.2186
vn -0.148981 0.0970914 0.984062
v 11.1971 2.25893 -27.2205
vn -0.104981 0.184541 0.977202
v 11.2096 2.28254 -27.225
vn -0.05997 0.270214 0.960931
v 11.2221 2.30544 -27.232
vn -0.0143814 0.353284 0.935405
v 11.2347 2.3274 -27.2416
vn 0.0313457 0.432952 0.900872
v 11.2472 2.34821 -27.2535
vn 0.0767709 0.508451 0.857662
v 11.2596 2.36767 -27.2677
vn 0.121457 0.579053 0.806193
v 11.2716 2.38559 -27.284
vn 0.164973 0.644078 0.746959
v 11.2831 2.4018 -27.3023
vn 0.2069 0.7029 0.680532
v 11.2941 2.41615 -27.3224
vn 0.246835 0.754953 0.607551
v 11.3045 2.42849 -27.3441
vn 0.284393 0.799736 0.528719
v 11.3141 2.43871 -27.3673
vn 0.319212 0.836816 0.444795
v 11.3228 2.44671 -27.3916
vn 0.350956 0.865838 0.356587
v 11.3306 2.45241 -27.4168
vn 0.379321 0.886521 0.264946
v 11.3374 2.45576 -27.4428
vn 0.404033 0.898666 0.170752
v 11.3432 2.45672 -27.4692
vn 0.424853 0.902157 0.0749146
v 11.3478 2.45529 -27.4958
vn 0.441582 0.89696 -0.0216446
v 11.3512 2.45148 -27.5224
vn 0.454059 0.883124 -0.117995
v 11.3535 2.44532 -27.5486
vn 0.462162 0.860783 -0.21321
v 11.3545 2.43688 -27.5743
vn 0.465815 0.830153 -0.306371
v 11.3542 2.42623 -27.5992
vn 0.464981 0.791527 -0.396581
v 11.3528 2.41348 -27.623
vn 0.45967 0.745279 -0.482972
v 11.3501 2.39876 -27.6455
vn 0.449932 0.691854 -0.564712
v 11.3462 2.3822 -27.6665
vn 0.43586 0.631765 -0.641014
v 11.3412 2.36396 -27.6859
vn 0.417591 0.565592 -0.711142
v 11.335 2.34422 -27.7033
vn 0.395301 0.493973 -0.774421
v 11.3278 2.32317 -27.7187
vn 0.369203 0.417596 -0.830243
v 11.3197 2.30101 -27.7319
vn 0.33955 0.337197 -0.878068
v 11.3106 2.27795 -27.7427
vn 0.306627 0.253551 -0.917438
v 11.3007 2.25422 -27.7512
vn 0.270751 0.167463 -0.947972
v 11.2901 2.23005 -27.7571
vn 0.232267 0.0797624 -0.969376
v 11.2789 2.20566 -27.7604
vn 0.191546 -0.00870642 -0.981445
v 11.2671 2.1813 -27.7611
vn 0.148981 -0.0970914 -0.984062
v 11.255 2.1572 -27.7592
vn 0.104981 -0.184541 -0.977202
v 11.2426 2.13359 -27.7547
vn 0.05997 -0.270214 -0.960931
v 11.23 2.11069 -27.7477
vn 0.0143814 -0.353284 -0.935405
v 11.2174 2.08873 -27.7382
vn -0.0313457 -0.432952 -0.900872
v 11.2049 2.06792 -27.7263
vn -0.0767709 -0.508451 -0.857662
v 11.1926 2.04846 -27.7121
vn -0.121457 -0.579053 -0.806193
v 11.1806 2.03054 -27.6957
vn -0.164973 -0.644078 -0.746959
v 11.1691 2.01432 -27.6774
vn -0.2069 -0.7029 -0.680532
v 11.8097 1.69064 -27.522
vn -0.227904 -0.763983 -0.603647
v 11.7994 1.67839 -27.5004
vn -0.265553 -0.808722 -0.524834
v 11.7898 1.66827 -27.4775
vn -0.300644 -0.845673 -0.440966
v 11.7809 1.66038 -27.4533
vn -0.33284 -0.874479 -0.352852
v 11.773 1.6548 -27.4283
vn -0.361831 -0.894863 -0.261339
v 11.766 1.65157 -27.4025
vn -0.387337 -0.90663 -0.167309
v 11.76 1.65074 -27.3763
vn -0.409112 -0.909665 -0.0716687
v 11.7552 1.65231 -27.3499
vn -0.426948 -0.90394 0.0246622
v 11.7514 1.65626 -27.3236
vn -0.440672 -0.889509 0.120756
v 11.7488 1.66256 -27.2976
vn -0.450152 -0.866512 0.215686
v 11.7474 1.67115 -27.2722
vn -0.455297 -0.835169 0.30854
v 11.7472 1.68193 -27.2476
vn -0.456057 -0.795784 0.398421
v 11.7482 1.69482 -27.224
vn -0.452425 -0.748735 0.484466
v 11.7504 1.70968 -27.2017
vn -0.444436 -0.694475 0.565846
v 11.7537 1.72638 -27.1809
vn -0.432167 -0.633527 0.641775
v 11.7582 1.74474 -27.1618
vn -0.415736 -0.566477 0.711525
v 11.7638 1.7646 -27.1446
vn -0.395301 -0.493973 0.774421
v 11.7705 1.78576 -27.1294
vn -0.371059 -0.41671 0.82986
v 11.7781 1.80802 -27.1164
vn -0.343243 -0.335435 0.877307
v 11.7866 1.83117 -27.1057
vn -0.312122 -0.25093 0.916305
v 11.796 1.85497 -27.0974
vn -0.277995 -0.164007 0.946478
v 11.806 1.87921 -27.0917
vn -0.241191 -0.0755057 0.967536
v 11.8168 1.90365 -27.0885
vn -0.202064 0.0137231 0.979276
v 11.828 1.92806 -27.0878
vn -0.160991 0.10282 0.981585
v 11.8397 1.95219 -27.0898
vn -0.118368 0.190926 0.974442
v 11.8517 1.97582 -27.0943
vn -0.0746042 0.277194 0.957913
v 11.8638 1.99871 -27.1014
vn -0.0301223 0.360792 0.93216
v 11.8761 2.02066 -27.1109
vn 0.0146497 0.440916 0.897429
v 11.8883 2.04144 -27.1228
vn 0.0592805 0.516793 0.854055
v 11.9004 2.06086 -27.1369
vn 0.103341 0.587694 0.802457
v 11.9122 2.07873 -27.1531
vn 0.146405 0.652934 0.74313
v 11.9236 2.09487 -27.1714
vn 0.18806 0.711887 0.676647
v 11.9345 2.10914 -27.1913
vn 0.227904 0.763983 0.603647
v 11.9448 2.1214 -27.2129
vn 0.265553 0.808722 0.524834
v 11.9544 2.13152 -27.2359
vn 0.300644 0.845673 0.440966
v 11.9633 2.13941 -27.26
vn 0.33284 0.874479 0.352852
v 11.9712 2.14499 -27.2851
vn 0.361831 0.894863 0.261339
v 11.9782 2.14821 -27.3109
vn 0.387337 0.90663 0.167309
v 11.9841 2.14905 -27.337
vn 0.409112 0.909665 0.0716687
v 11.989 2.14748 -27.3634
vn 0.426948 0.90394 -0.0246622
v 11.9928 2.14352 -27.3898
vn 0.440672 0.889509 -0.120756
v 11.9954 2.13723 -27.4158
vn 0.450152 0.866512 -0.215686
v 11.9968 2.12864 -27.4412
vn 0.455297 0.835169 -0.30854
v 11.997 2.11785 -27.4658
vn 0.456057 0.795784 -0.398421
v 11.996 2.10497 -27.4894
vn 0.452425 0.748735 -0.484466
v 11.9938 2.09011 -27.5117
vn 0.444436 0.694475 -0.565846
v 11.9905 2.07341 -27.5325
vn 0.432167 0.633527 -0.641775
v 11.986 2.05505 -27.5516
vn 0.415736 0.566477 -0.711525
v 11.9804 2.03519 -27.5688
vn 0.395301 0.493973 -0.774421
v 11.9737 2.01403 -27.584
vn 0.371059 0.41671 -0.82986
v 11.9661 1.99177 -27.597
vn 0.343243 0.335435 -0.877307
v 11.9576 1.96862 -27.6076
vn 0.312122 0.25093 -0.916305
v 11.9482 1.94481 -27.6159
vn 0.277995 0.164007 -0.946478
v 11.9382 1.92057 -27.6217
vn 0.241191 0.0755057 -0.967536
v 11.9274 1.89614 -27.6249
vn 0.202064 -0.0137231 -0.979276
v 11.9162 1.87173 -27.6255
vn 0.160991 -0.10282 -0.981585
v 11.9045 1.8476 -27.6236
vn 0.118368 -0.190926 -0.974442
v 11.8925 1.82397 -27.619
vn 0.0746042 -0.277194 -0.957913
v 11.8803 1.80108 -27.612
vn 0.0301223 -0.360792 -0.93216
v 11.8681 1.77913 -27.6025
vn -0.0146497 -0.440916 -0.897429
v 11.8559 1.75835 -27.5906
vn -0.0592805 -0.516793 -0.854055
v 11.8438 1.73893 -27.5765
vn -0.103341 -0.587694 -0.802457
v 11.832 1.72106 -27.5602
vn -0.146405 -0.652934 -0.74313
v 11.8206 1.70491 -27.542
vn -0.18806 -0.711887 -0.676647
v 12.4578 1.39665 -27.3787
vn -0.20844 -0.772856 -0.599372
v 12.4475 1.38449 -27.3573
vn -0.246183 -0.817552 -0.520579
v 12.4379 1.37447 -27.3345
vn -0.281554 -0.854375 -0.436773
v 12.429 1.36669 -27.3105
vn -0.314214 -0.88297 -0.34876
v 12.4209 1.36122 -27.2856
vn -0.343849 -0.903061 -0.257389
v 12.4138 1.35812 -27.2601
vn -0.370171 -0.914455 -0.163539
v 12.4076 1.35741 -27.2341
vn -0.392929 -0.917043 -0.0681138
v 12.4024 1.35911 -27.208
vn -0.411903 -0.910799 0.0279672
v 12.3983 1.3632 -27.1819
vn -0.426909 -0.895783 0.123779
v 12.3954 1.36963 -27.1561
vn -0.437805 -0.872141 0.218399
v 12.3935 1.37835 -27.131
vn -0.444484 -0.840099 0.310915
v 12.3929 1.38928 -27.1066
vn -0.446882 -0.799967 0.400437
v 12.3934 1.4023 -27.0833
vn -0.444977 -0.75213 0.486102
v 12.3951 1.41729 -27.0612
vn -0.438786 -0.69705 0.567087
v 12.3979 1.4341 -27.0407
vn -0.42837 -0.635258 0.642609
v 12.4019 1.45259 -27.0218
vn -0.413828 -0.567347 0.711944
v 12.4069 1.47256 -27.0048
vn -0.395301 -0.493973 0.774421
v 12.413 1.49382 -26.9898
vn -0.372967 -0.415841 0.829441
v 12.4201 1.51617 -26.977
vn -0.347041 -0.333704 0.876473
v 12.428 1.5394 -26.9665
vn -0.317772 -0.248354 0.915063
v 12.4368 1.56328 -26.9584
vn -0.285444 -0.160612 0.944842
v 12.4464 1.58758 -26.9528
vn -0.250366 -0.0713231 0.96552
v 12.4566 1.61207 -26.9497
vn -0.212877 0.0186527 0.976901
v 12.4673 1.63651 -26.9492
vn -0.173339 0.108449 0.978873
v 12.4786 1.66066 -26.9512
vn -0.13213 0.1972 0.971418
v 12.4901 1.6843 -26.9558
vn -0.0896498 0.284053 0.954608
v 12.5019 1.70719 -26.9629
vn -0.0463057 0.36817 0.928605
v 12.5138 1.72912 -26.9724
vn -0.00251573 0.448741 0.893658
v 12.5258 1.74987 -26.9842
vn 0.0412985 0.524991 0.850105
v 12.5376 1.76925 -26.9983
vn 0.084715 0.596184 0.798366
v 12.5492 1.78706 -27.0145
vn 0.127316 0.661637 0.738937
v 12.5604 1.80314 -27.0326
vn 0.16869 0.720717 0.672392
v 12.5712 1.81733 -27.0525
vn 0.20844 0.772856 0.599372
v 12.5815 1.8295 -27.0739
vn 0.246183 0.817552 0.520579
v 12.5911 1.83952 -27.0967
vn 0.281554 0.854375 0.436773
v 12.6 1.8473 -27.1207
vn 0.314214 0.88297 0.34876
v 12.6081 1.85277 -27.1455
vn 0.343849 0.903061 0.257389
v 12.6153 1.85587 -27.1711
vn 0.370171 0.914455 0.163539
v 12.6215 1.85658 -27.197
vn 0.392929 0.917043 0.0681138
v 12.6266 1.85488 -27.2232
vn 0.411903 0.910799 -0.0279672
v 12.6307 1.85079 -27.2493
vn 0.426909 0.895783 -0.123779
v 12.6337 1.84435 -27.275
vn 0.437805 0.872141 -0.218399
v 12.6355 1.83563 -27.3002
vn 0.444484 0.840099 -0.310915
v 12.6361 1.82471 -27.3246
vn 0.446882 0.799967 -0.400437
v 12.6356 1.81169 -27.3479
vn 0.444977 0.75213 -0.486102
v 12.6339 1.7967 -27.3699
vn 0.438786 0.69705 -0.567087
v 12.6311 1.77988 -27.3905
vn 0.42837 0.635258 -0.642609
v 12.6271 1.7614 -27.4093
vn 0.413828 0.567347 -0.711944
v 12.6221 1.74143 -27.4264
vn 0.395301 0.493973 -0.774421
v 12.616 1.72017 -27.4413
vn 0.372967 0.415841 -0.829441
v 12.609 1.69781 -27.4541
vn 0.347041 0.333704 -0.876473
v 12.601 1.67459 -27.4646
vn 0.317772 0.248354 -0.915063
v 12.5922 1.65071 -27.4727
vn 0.285444 0.160612 -0.944842
v 12.5827 1.62641 -27.4784
vn 0.250366 0.0713231 -0.96552
v 12.5725 1.60192 -27.4815
vn 0.212877 -0.0186527 -0.976901
v 12.5617 1.57748 -27.482
vn 0.173339 -0.108449 -0.978873
v 12.5505 1.55332 -27.48
vn 0.13213 -0.1972 -0.971418
v 12.5389 1.52969 -27.4754
vn 0.0896498 -0.284053 -0.954608
v 12.5271 1.50679 -27.4683
vn 0.0463057 -0.36817 -0.928605
v 12.5152 1.48487 -27.4588
vn 0.00251573 -0.448741 -0.893658
v 12.5033 1.46411 -27.4469
vn -0.0412985 -0.524991 -0.850105
v 12.4915 1.44474 -27.4329
vn -0.084715 -0.596184 -0.798366
v 12.4799 1.42692 -27.4167
vn -0.127316 -0.661637 -0.738937
v 12.4686 1.41084 -27.3986
vn -0.16869 -0.720717 -0.672392
f 1 66 2 
f 1 65 66 
f 2 67 3 
f 2 66 67 
f 3 68 4 
f 3 67 68 
f 4 69 5 
f 4 68 69 
f 5 70 6 
f 5 69 70 
f 6 71 7 
f 6 70 71 
f 7 72 8 
f 7 71 72 
f 8 73 9 
f 8 72 73 
f 9 74 10 
f 9 73 74 
f 10 75 11 
f 10 74 75 
f 11 76 12 
f 11 75 76 
f 12 77 13 
f 12 76 77 
f 13 78 14 
f 13 77 78 
f 14 79 15 
f 14 78 79 
f 15 80 16 
f 15 79 80 
f 16 81 17 
f 16 80 81 
f 17 82 18 
f 17 81 82 
f 18 83 19 
f 18 82 83 
f 19 84 20 
f 19 83 84 
f 20 85 21 
f 20 84 85 
f 21 86 22 
f 21 85 86 
f 22 87 23 
f 22 86 87 
f 23 88 24 
f 23 87 88 
f 24 89 25 
f 24 88 89 
f 25 90 26 
f 25 89 90 
f 26 91 27 
f 26 90 91 
f 27 92 28 
f 27 91 92 
f 28 93 29 
f 28 92 93 
f 29 94 30 
f 29 93 94 
f 30 95 31 
f 30 94 95 
f 31 96 32 
f 31 95 96 
f 32 97 33 
f 32 96 97 
f 33 98 34 
f 33 97 98 
f 34 99 35 
f 34 98 99 
f 35 100 36 
f 35 99 100 
f 36 101 37 
f 36 100 101 
f 37 102 38 
f 37 101 102 
f 38 103 39 
f 38 102 103 
f 39 104 40 
f 39 103 104 
f 40 105 41 
f 40 104 105 
f 41 106 42 
f 41 105 106 
f 42 107 43 
f 42 106 107 
f 43 108 44 
f 43 107 108 
f 44 109 45 
f 44 108 109 
f 45 110 46 
f 45 109 110 
f 46 111 47 
f 46 110 111 
f 47 112 48 
f 47 111 112 
f 48 113 49 
f 48 112 113 
f 49 114 50 
f 49 113 114 
f 50 115 51 
f 50 114 115 
f 51 116 52 
f 51 115 116 
f 52 117 53 
f 52 116 117 
f 53 118 54 
f 53 117 118 
f 54 119 55 
f 54 118 119 
f 55 120 56 
f 55 119 120 
f 56 121 57 
f 56 120 121 
f 57 122 58 
f 57 121 122 
f 58 123 59 
f 58 122 123 
f 59 124 60 
f 59 123 124 
f 60 125 61 
f 60 124 125 
f 61 126 62 
f 61 125 126 
f 62 127 63 
f 62 126 127 
f 63 128 64 
f 63 127 128 
f 64 65 1 
f 64 128 65 
f 65 130 66 
f 65 129 130 
f 66 131 67 
f 66 130 131 
f 67 132 68 
f 67 131 132 
f 68 133 69 
f 68 132 133 
f 69 134 70 
f 69 133 134 
f 70 135 71 
f 70 134 135 
f 71 136 72 
f 71 135 136 
f 72 137 73 
f 72 136 137 
f 73 138 74 
f 73 137 138 
f 74 139 75 
f 74 138 139 
f 75 140 76 
f 75 139 140 
f 76 141 77 
f 76 140 141 
f 77 142 78 
f 77 141 142 
f 78 143 79 
f 78 142 143 
f 79 144 80 
f 79 143 144 
f 80 145 81 
f 80 144 145 
f 81 146 82 
f 81 145 146 
f 82 147 83 
f 82 146 147 
f 83 148 84 
f 83 147 148 
f 84 149 85 
f 84 148 149 
f 85 150 86 
f 85 149 150 
f 86 151 87 
f 86 150 151 
f 87 152 88 
f 87 151 152 
f 88 153 89 
f 88 152 153 
f 89 154 90 
f 89 153 154 
f 90 155 91 
f 90 154 155 
f 91 156 92 
f 91 155 156 
f 92 157 93 
f 92 156 157 
f 93 158 94 
f 93 157 158 
f 94 159 95 
f 94 158 159 
f 95 160 96 
f 95 159 160 
f 96 161 97 
f 96 160 161 
f 97 162 98 
f 97 161 162 
f 98 163 99 
f 98 162 163 
f 99 164 100 
f 99 163 164 
f 100 165 101 
f 100 164 165 
f 101 166 102 
f 101 165 166 
f 102 167 103 
f 102 166 167 
f 103 168 104 
f 103 167 168 
f 104 169 105 
f 104 168 169 
f 105 170 106 
f 105 169 170 
f 106 171 107 
f 106 170 171 
f 107 172 108 
f 107 171 172 
f 108 173 109 
f 108 172 173 
f 109 174 110 
f 109 173 174 
f 110 175 111 
f 110 174 175 
f 111 176 112 
f 111 175 176 
f 112 177 113 
f 112 176 177 
f 113 178 114 
f 113 177 178 
f 114 179 115 
f 114 178 179 
f 115 180 116 
f 115 179 180 
f 116 181 117 
f 116 180 181 
f 117 182 118 
f 117 181 182 
f 118 183 119 
f 118 182 183 
f 119 184 120 
f 119 183 184 
f 120 185 121 
f 120 184 185 
f 121 186 122 
f 121 185 186 
f 122 187 123 
f 122 186 187 
f 123 188 124 
f 123 187 188 
f 124 189 125 
f 124 188 189 
f 125 190 126 
f 125 189 190 
f 126 191 127 
f 126 190 191 
f 127 192 128 
f 127 191 192 
f 128 129 65 
f 128 192 129 
f 129 194 130 
f 129 193 194 
f 130 195 131 
f 130 194 195 
f 131 196 132 
f 131 195 196 
f 132 197 133 
f 132 196 197 
f 133 198 134 
f 133 197 198 
f 134 199 135 
f 134 198 199 
f 135 200 136 
f 135 199 200 
f 136 201 137 
f 136 200 201 
f 137 202 138 
f 137 201 202 
f 138 203 139 
f 138 202 203 
f 139 204 140 
f 139 203 204 
f 140 205 141 
f 140 204 205 
f 141 206 142 
f 141 205 206 
f 142 207 143 
f 142 206 207 
f 143 208 144 
f 143 207 208 
f 144 209 145 
f 144 208 209 
f 145 210 146 
f 145 209 210 
f 146 211 147 
f 146 210 211 
f 147 212 148 
f 147 211 212 
f 148 213 149 
f 148 212 213 
f 149 214 150 
f 149 213 214 
f 150 215 151 
f 150 214 215 
f 151 216 152 
f 151 215 216 
f 152 217 153 
f 152 216 217 
f 153 218 154 
f 153 217 218 
f 154 219 155 
f 154 218 219 
f 155 220 156 
f 155 219 220 
f 156 221 157 
f 156 220 221 
f 157 222 158 
f 157 221 222 
f 158 223 159 
f 158 222 223 
f 159 224 160 
f 159 223 224 
f 160 225 161 
f 160 224 225 
f 161 226 162 
f 161 225 226 
f 162 227 163 
f 162 226 227 
f 163 228 164 
f 163 227 228 
f 164 229 165 
f 164 228 229 
f 165 230 166 
f 165 229 230 
f 166 231 167 
f 166 230 231 
f 167 232 168 
f 167 231 232 
f 168 233 169 
f 168 232 233 
f 169 234 170 
f 169 233 234 
f 170 235 171 
f 170 234 235 
f 171 236 172 
f 171 235 236 
f 172 237 173 
f 172 236 237 
f 173 238 174 
f 173 237 238 
f 174 239 175 
f 174 238 239 
f 175 240 176 
f 175 239 240 
f 176 241 177 
f 176 240 241 
f 177 242 178 
f 177 241 242 
f 178 243 179 
f 178 242 243 
f 179 244 180 
f 179 243 244 
f 180 245 181 
f 180 244 245 
f 181 246 182 
f 181 245 246 
f 182 247 183 
f 182 246 247 
f 183 248 184 
f 183 247 248 
f 184 249 185 
f 184 248 249 
f 185 250 186 
f 185 249 250 
f 186 251 187 
f 186 250 251 
f 187 252 188 
f 187 251 252 
f 188 253 189 
f 188 252 253 
f 189 254 190 
f 189 253 254 
f 190 255 191 
f 190 254 255 
f 191 256 192 
f 191 255 256 
f 192 193 129 
f 192 256 193 
f 193 258 194 
f 193 257 258 
f 194 259 195 
f 194 258 259 
f 195 260 196 
f 195 259 260 
f 196 261 197 
f 196 260 261 
f 197 262 198 
f 197 261 262 
f 198 263 199 
f 198 262 263 
f 199 264 200 
f 199 263 264 
f 200 265 201 
f 200 264 265 
f 201 266 202 
f 201 265 266 
f 202 267 203 
f 202 266 267 
f 203 268 204 
f 203 267 268 
f 204 269 205 
f 204 268 269 
f 205 270 206 
f 205 269 270 
f 206 271 207 
f 206 270 271 
f 207 272 208 
f 207 271 272 
f 208 273 209 
f 208 272 273 
f 209 274 210 
f 209 273 274 
f 210 275 211 
f 210 274 275 
f 211 276 212 
f 211 275 276 
f 212 277 213 
f 212 276 277 
f 213 278 214 
f 213 277 278 
f 214 279 215 
f 214 278 279 
f 215 280 216 
f 215 279 280 
f 216 281 217 
f 216 280 281 
f 217 282 218 
f 217 281 282 
f 218 283 219 
f 218 282 283 
f 219 284 220 
f 219 283 284 
f 220 285 221 
f 220 284 285 
f 221 286 222 
f 221 285 286 
f 222 287 223 
f 222 286 287 
f 223 288 224 
f 223 287 288 
f 224 289 225 
f 224 288 289 
f 225 290 226 
f 225 289 290 
f 226 291 227 
f 226 290 291 
f 227 292 228 
f 227 291 292 
f 228 293 229 
f 228 292 293 
f 229 294 230 
f 229 293 294 
f 230 295 231 
f 230 294 295 
f 231 296 232 
f 231 295 296 
f 232 297 233 
f 232 296 297 
f 233 298 234 
f 233 297 298 
f 234 299 235 
f 234 298 299 
f 235 300 236 
f 235 299 300 
f 236 301 237 
f 236 300 301 
f 237 302 238 
f 237 301 302 
f 238 303 239 
f 238 302 303 
f 239 304 240 
f 239 303 304 
f 240 305 241 
f 240 304 305 
f 241 306 242 
f 241 305 306 
f 242 307 243 
f 242 306 307 
f 243 308 244 
f 243 307 308 
f 244 309 245 
f 244 308 309 
f 245 310 246 
f 245 309 310 
f 246 311 247 
f 246 310 311 
f 247 312 248 
f 247 311 312 
f 248 313 249 
f 248 312 313 
f 249 314 250 
f 249 313 314 
f 250 315 251 
f 250 314 315 
f 251 316 252 
f 251 315 316 
f 252 317 253 
f 252 316 317 
f 253 318 254 
f 253 317 318 
f 254 319 255 
f 254 318 319 
f 255 320 256 
f 255 319 320 
f 256 257 193 
f 256 320 257 
f 257 322 258 
f 257 321 322 
f 258 323 259 
f 258 322 323 
f 259 324 260 
f 259 323 324 
f 260 325 261 
f 260 324 325 
f 261 326 262 
f 261 325 326 
f 262 327 263 
f 262 326 327 
f 263 328 264 
f 263 327 328 
f 264 329 265 
f 264 328 329 
f 265 330 266 
f 265 329 330 
f 266 331 267 
f 266 330 331 
f 267 332 268 
f 267 331 332 
f 268 333 269 
f 268 332 333 
f 269 334 270 
f 269 333 334 
f 270 335 271 
f 270 334 335 
f 271 336 272 
f 271 335 336 
f 272 337 273 
f 272 336 337 
f 273 338 274 
f 273 337 338 
f 274 339 275 
f 274 338 339 
f 275 340 276 
f 275 339 340 
f 276 341 277 
f 276 340 341 
f 277 342 278 
f 277 341 342 
f 278 343 279 
f 278 342 343 
f 279 344 280 
f 279 343 344 
f 280 345 281 
f 280 344 345 
f 281 346 282 
f 281 345 346 
f 282 347 283 
f 282 346 347 
f 283 348 284 
f 283 347 348 
f 284 349 285 
f 284 348 349 
f 285 350 286 
f 285 349 350 
f 286 351 287 
f 286 350 351 
f 287 352 288 
f 287 351 352 
f 288 353 289 
f 288 352 353 
f 289 354 290 
f 289 353 354 
f 290 355 291 
f 290 354 355 
f 291 356 292 
f 291 355 356 
f 292 357 293 
f 292 356 357 
f 293 358 294 
f 293 357 358 
f 294 359 295 
f 294 358 359 
f 295 360 296 
f 295 359 360 
f 296 361 297 
f 296 360 361 
f 297 362 298 
f 297 361 362 
f 298 363 299 
f 298 362 363 
f 299 364 300 
f 299 363 364 
f 300 365 301 
f 300 364 365 
f 301 366 302 
f 301 365 366 
f 302 367 303 
f 302 366 367 
f 303 368 304 
f 303 367 368 
f 304 369 305 
f 304 368 369 
f 305 370 306 
f 305 369 370 
f 306 371 307 
f 306 370 371 
f 307 372 308 
f 307 371 372 
f 308 373 309 
f 308 372 373 
f 309 374 310 
f 309 373 374 
f 310 375 311 
f 310 374 375 
f 311 376 312 
f 311 375 376 
f 312 377 313 
f 312 376 377 
f 313 378 314 
f 313 377 378 
f 314 379 315 
f 314 378 379 
f 315 380 316 
f 315 379 380 
f 316 381 317 
f 316 380 381 
f 317 382 318 
f 317 381 382 
f 318 383 319 
f 318 382 383 
f 319 384 320 
f 319 383 384 
f 320 321 257 
f 320 384 321 
f 321 386 322 
f 321 385 386 
f 322 387 323 
f 322 386 387 
f 323 388 324 
f 323 387 388 
f 324 389 325 
f 324 388 389 
f 325 390 326 
f 325 389 390 
f 326 391 327 
f 326 390 391 
f 327 392 328 
f 327 391 392 
f 328 393 329 
f 328 392 393 
f 329 394 330 
f 329 393 394 
f 330 395 331 
f 330 394 395 
f 331 396 332 
f 331 395 396 
f 332 397 333 
f 332 396 397 
f 333 398 334 
f 333 397 398 
f 334 399 335 
f 334 398 399 
f 335 400 336 
f 335 399 400 
f 336 401 337 
f 336 400 401 
f 337 402 338 
f 337 401 402 
f 338 403 339 
f 338 402 403 
f 339 404 340 
f 339 403 404 
f 340 405 341 
f 340 404 405 
f 341 406 342 
f 341 405 406 
f 342 407 343 
f 342 406 407 
f 343 408 344 
f 343 407 408 
f 344 409 345 
f 344 408 409 
f 345 410 346 
f 345 409 410 
f 346 411 347 
f 346 410 411 
f 347 412 348 
f 347 411 412 
f 348 413 349 
f 348 412 413 
f 349 414 350 
f 349 413 414 
f 350 415 351 
f 350 414 415 
f 351 416 352 
f 351 415 416 
f 352 417 353 
f 352 416 417 
f 353 418 354 
f 353 417 418 
f 354 419 355 
f 354 418 419 
f 355 420 356 
f 355 419 420 
f 356 421 357 
f 356 420 421 
f 357 422 358 
f 357 421 422 
f 358 423 359 
f 358 422 423 
f 359 424 360 
f 359 423 424 
f 360 425 361 
f 360 424 425 
f 361 426 362 
f 361 425 426 
f 362 427 363 
f 362 426 427 
f 363 428 364 
f 363 427 428 
f 364 429 365 
f 364 428 429 
f 365 430 366 
f 365 429 430 
f 366 431 367 
f 366 430 431 
f 367 432 368 
f 367 431 432 
f 368 433 369 
f 368 432 433 
f 369 434 370 
f 369 433 434 
f 370 435 371 
f 370 434 435 
f 371 436 372 
f 371 435 436 
f 372 437 373 
f 372 436 437 
f 373 438 374 
f 373 437 438 
f 374 439 375 
f 374 438 439 
f 375 440 376 
f 375 439 440 
f 376 441 377 
f 376 440 441 
f 377 442 378 
f 377 441 442 
f 378 443 379 
f 378 442 443 
f 379 444 380 
f 379 443 444 
f 380 445 381 
f 380 444 445 
f 381 446 382 
f 381 445 446 
f 382 447 383 
f 382 446 447 
f 383 448 384 
f 383 447 448 
f 384 385 321 
f 384 448 385 
f 385 450 386 
f 385 449 450 
f 386 451 387 
f 386 450 451 
f 387 452 388 
f 387 451 452 
f 388 453 389 
f 388 452 453 
f 389 454 390 
f 389 453 454 
f 390 455 391 
f 390 454 455 
f 391 456 392 
f 391 455 456 
f 392 457 393 
f 392 456 457 
f 393 458 394 
f 393 457 458 
f 394 459 395 
f 394 458 459 
f 395 460 396 
f 395 459 460 
f 396 461 397 
f 396 460 461 
f 397 462 398 
f 397 461 462 
f 398 463 399 
f 398 462 463 
f 399 464 400 
f 399 463 464 
f 400 465 401 
f 400 464 465 
f 401 466 402 
f 401 465 466 
f 402 467 403 
f 402 466 467 
f 403 468 404 
f 403 467 468 
f 404 469 405 
f 404 468 469 
f 405 470 406 
f 405 469 470 
f 406 471 407 
f 406 470 471 
f 407 472 408 
f 407 471 472 
f 408 473 409 
f 408 472 473 
f 409 474 410 
f 409 473 474 
f 410 475 411 
f 410 474 475 
f 411 476 412 
f 411 475 476 
f 412 477 413 
f 412 476 477 
f 413 478 414 
f 413 477 478 
f 414 479 415 
f 414 478 479 
f 415 480 416 
f 415 479 480 
f 416 481 417 
f 416 480 481 
f 417 482 418 
f 417 481 482 
f 418 483 419 
f 418 482 483 
f 419 484 420 
f 419 483 484 
f 420 485 421 
f 420 484 485 
f 421 486 422 
f 421 485 486 
f 422 487 423 
f 422 486 487 
f 423 488 424 
f 423 487 488 
f 424 489 425 
f 424 488 489 
f 425 490 426 
f 425 489 490 
f 426 491 427 
f 426 490 491 
f 427 492 428 
f 427 491 492 
f 428 493 429 
f 428 492 493 
f 429 494 430 
f 429 493 494 
f 430 495 431 
f 430 494 495 
f 431 496 432 
f 431 495 496 
f 432 497 433 
f 432 496 497 
f 433 498 434 
f 433 497 498 
f 434 499 435 
f 434 498 499 
f 435 500 436 
f 435 499 500 
f 436 501 437 
f 436 500 501 
f 437 502 438 
f 437 501 502 
f 438 503 439 
f 438 502 503 
f 439 504 440 
f 439 503 504 
f 440 505 441 
f 440 504 505 
f 441 506 442 
f 441 505 506 
f 442 507 443 
f 442 506 507 
f 443 508 444 
f 443 507 508 
f 444 509 445 
f 444 508 509 
f 445 510 446 
f 445 509 510 
f 446 511 447 
f 446 510 511 
f 447 512 448 
f 447 511 512 
f 448 449 385 
f 448 512 449 
f 449 514 450 
f 449 513 514 
f 450 515 451 
f 450 514 515 
f 451 516 452 
f 451 515 516 
f 452 517 453 
f 452 516 517 
f 453 518 454 
f 453 517 518 
f 454 519 455 
f 454 518 519 
f 455 520 456 
f 455 519 520 
f 456 521 457 
f 456 520 521 
f 457 522 458 
f 457 521 522 
f 458 523 459 
f 458 522 523 
f 459 524 460 
f 459 523 524 
f 460 525 461 
f 460 524 525 
f 461 526 462 
f 461 525 526 
f 462 527 463 
f 462 526 527 
f 463 528 464 
f 463 527 528 
f 464 529 465 
f 464 528 529 
f 465 530 466 
f 465 529 530 
f 466 531 467 
f 466 530 531 
f 467 532 468 
f 467 531 532 
f 468 533 469 
f 468 532 533 
f 469 534 470 
f 469 533 534 
f 470 535 471 
f 470 534 535 
f 471 536 472 
f 471 535 536 
f 472 537 473 
f 472 536 537 
f 473 538 474 
f 473 537 538 
f 474 539 475 
f 474 538 539 
f 475 540 476 
f 475 539 540 
f 476 541 477 
f 476 540 541 
f 477 542 478 
f 477 541 542 
f 478 543 479 
f 478 542 543 
f 479 544 480 
f 479 543 544 
f 480 545 481 
f 480 544 545 
f 481 546 482 
f 481 545 546 
f 482 547 483 
f 482 546 547 
f 483 548 484 
f 483 547 548 
f 484 549 485 
f 484 548 549 
f 485 550 486 
f 485 549 550 
f 486 551 487 
f 486 550 551 
f 487 552 488 
f 487 551 552 
f 488 553 489 
f 488 552 553 
f 489 554 490 
f 489 553 554 
f 490 555 491 
f 490 554 555 
f 491 556 492 
f 491 555 556 
f 492 557 493 
f 492 556 557 
f 493 558 494 
f 493 557 558 
f 494 559 495 
f 494 558 559 
f 495 560 496 
f 495 559 560 
f 496 561 497 
f 496 560 561 
f 497 562 498 
f 497 561 562 
f 498 563 499 
f 498 562 563 
f 499 564 500 
f 499 563 564 
f 500 565 501 
f 500 564 565 
f 501 566 502 
f 501 565 566 
f 502 567 503 
f 502 566 567 
f 503 568 504 
f 503 567 568 
f 504 569 505 
f 504 568 569 
f 505 570 506 
f 505 569 570 
f 506 571 507 
f 506 570 571 
f 507 572 508 
f 507 571 572 
f 508 573 509 
f 508 572 573 
f 509 574 510 
f 509 573 574 
f 510 575 511 
f 510 574 575 
f 511 576 512 
f 511 575 576 
f 512 513 449 
f 512 576 513 
f 513 578 514 
f 513 577 578 
f 514 579 515 
f 514 578 579 
f 515 580 516 
f 515 579 580 
f 516 581 517 
f 516 580 581 
f 517 582 518 
f 517 581 582 
f 518 583 519 
f 518 582 583 
f 519 584 520 
f 519 583 584 
f 520 585 521 
f 520 584 585 
f 521 586 522 
f 521 585 586 
f 522 587 523 
f 522 586 587 
f 523 588 524 
f 523 587 588 
f 524 589 525 
f 524 588 589 
f 525 590 526 
f 525 589 590 
f 526 591 527 
f 526 590 591 
f 527 592 528 
f 527 591 592 
f 528 593 529 
f 528 592 593 
f 529 594 530 
f 529 593 594 
f 530 595 531 
f 530 594 595 
f 531 596 532 
f 531 595 596 
f 532 597 533 
f 532 596 597 
f 533 598 534 
f 533 597 598 
f 534 599 535 
f 534 598 599 
f 535 600 536 
f 535 599 600 
f 536 601 537 
f 536 600 601 
f 537 602 538 
f 537 601 602 
f 538 603 539 
f 538 602 603 
f 539 604 540 
f 539 603 604 
f 540 605 541 
f 540 604 605 
f 541 606 542 
f 541 605 606 
f 542 607 543 
f 542 606 607 
f 543 608 544 
f 543 607 608 
f 544 609 545 
f 544 608 609 
f 545 610 546 
f 545 609 610 
f 546 611 547 
f 546 610 611 
f 547 612 548 
f 547 611 612 
f 548 613 549 
f 548 612 613 
f 549 614 550 
f 549 613 614 
f 550 615 551 
f 550 614 615 
f 551 616 552 
f 551 615 616 
f 552 617 553 
f 552 616 617 
f 553 618 554 
f 553 617 618 
f 554 619 555 
f 554 618 619 
f 555 620 556 
f 555 619 620 
f 556 621 557 
f 556 620 621 
f 557 622 558 
f 557 621 622 
f 558 623 559 
f 558 622 623 
f 559 624 560 
f 559 623 624 
f 560 625 561 
f 560 624 625 
f 561 626 562 
f 561 625 626 
f 562 627 563 
f 562 626 627 
f 563 628 564 
f 563 627 628 
f 564 629 565 
f 564 628 629 
f 565 630 566 
f 565 629 630 
f 566 631 567 
f 566 630 631 
f 567 632 568 
f 567 631 632 
f 568 633 569 
f 568 632 633 
f 569 634 570 
f 569 633 634 
f 570 635 571 
f 570 634 635 
f 571 636 572 
f 571 635 636 
f 572 637 573 
f 572 636 637 
f 573 638 574 
f 573 637 638 
f 574 639 575 
f 574 638 639 
f 575 640 576 
f 575 639 640 
f 576 577 513 
f 576 640 577 
