# Branch
v 5.37053 9.9406 -27.4892
vn -0.465846 0.141254 0.873518
v 5.4381 9.94023 -27.4573
vn -0.377104 0.140765 0.915412
v 5.50843 9.93883 -27.4321
vn -0.284729 0.138919 0.948489
v 5.58086 9.9364 -27.4139
vn -0.189613 0.135736 0.972431
v 5.65467 9.93298 -27.4028
vn -0.0926699 0.131246 0.987009
v 5.72916 9.9286 -27.3989
vn 0.00516522 0.125491 0.992081
v 5.80361 9.9233 -27.4024
vn 0.102951 0.118528 0.987599
v 5.87731 9.91713 -27.413
vn 0.199744 0.110424 0.973606
v 5.94954 9.91015 -27.4308
vn 0.294615 0.101256 0.950236
v 6.01962 9.90243 -27.4556
vn 0.386648 0.091113 0.917716
v 6.08686 9.89403 -27.487
vn 0.474957 0.0800925 0.876357
v 6.15061 9.88506 -27.525
vn 0.558692 0.0683007 0.826558
v 6.21027 9.87558 -27.5689
vn 0.637047 0.0558512 0.768799
v 6.26526 9.86569 -27.6186
vn 0.709266 0.0428637 0.703636
v 6.31504 9.85549 -27.6733
vn 0.774655 0.0294634 0.631697
v 6.35915 9.84507 -27.7327
vn 0.832584 0.0157794 0.553674
v 6.39715 9.83453 -27.7962
vn 0.882494 0.00194346 0.470319
v 6.42868 9.82398 -27.8631
vn 0.923906 -0.0119112 0.382434
v 6.45344 9.81352 -27.9328
vn 0.95642 -0.0256512 0.290867
v 6.47118 9.80325 -28.0047
vn 0.979723 -0.0391442 0.196498
v 6.48174 9.79326 -28.078
vn 0.99359 -0.0522601 0.100237
v 6.48501 9.78366 -28.152
vn 0.997889 -0.0648728 0.00301049
v 6.48097 9.77453 -28.2261
vn 0.992578 -0.0768607 -0.094245
v 6.46965 9.76597 -28.2994
vn 0.977707 -0.0881084 -0.190593
v 6.45115 9.75805 -28.3714
vn 0.953421 -0.0985076 -0.285105
v 6.42567 9.75085 -28.4413
vn 0.919953 -0.107958 -0.376872
v 6.39344 9.74445 -28.5084
vn 0.877625 -0.116369 -0.465009
v 6.35478 9.7389 -28.5721
vn 0.826845 -0.123659 -0.548668
v 6.31005 9.73426 -28.6317
vn 0.768102 -0.129758 -0.627043
v 6.2597 9.73056 -28.6868
vn 0.701962 -0.134608 -0.699379
v 6.20419 9.72786 -28.7368
vn 0.629061 -0.138161 -0.764979
v 6.14407 9.72617 -28.7811
vn 0.550103 -0.140384 -0.823213
v 6.07992 9.7255 -28.8194
vn 0.465846 -0.141254 -0.873518
v 6.01235 9.72588 -28.8513
vn 0.377104 -0.140765 -0.915412
v 5.94202 9.72728 -28.8765
vn 0.284729 -0.138919 -0.948489
v 5.8696 9.7297 -28.8947
vn 0.189613 -0.135736 -0.972431
v 5.79578 9.73312 -28.9058
vn 0.0926699 -0.131246 -0.987009
v 5.72129 9.7375 -28.9097
vn -0.00516522 -0.125491 -0.992081
v 5.64684 9.74281 -28.9063
vn -0.102951 -0.118528 -0.987599
v 5.57314 9.74898 -28.8956
vn -0.199744 -0.110424 -0.973606
v 5.50091 9.75596 -28.8778
vn -0.294615 -0.101256 -0.950236
v 5.43083 9.76368 -28.853
vn -0.386648 -0.091113 -0.917716
v 5.3636 9.77207 -28.8216
vn -0.474957 -0.0800925 -0.876357
v 5.29984 9.78105 -28.7836
vn -0.558692 -0.0683007 -0.826558
v 5.24018 9.79053 -28.7397
vn -0.637047 -0.0558512 -0.768799
v 5.18519 9.80042 -28.69
vn -0.709266 -0.0428637 -0.703636
v 5.13541 9.81062 -28.6353
vn -0.774655 -0.0294634 -0.631697
v 5.0913 9.82104 -28.5759
vn -0.832584 -0.0157794 -0.553674
v 5.0533 9.83157 -28.5124
vn -0.882494 -0.00194346 -0.470319
v 5.02177 9.84212 -28.4455
vn -0.923906 0.0119112 -0.382434
v 4.99701 9.85258 -28.3758
vn -0.95642 0.0256512 -0.290867
v 4.97927 9.86286 -28.3039
vn -0.979723 0.0391442 -0.196498
v 4.96871 9.87284 -28.2306
vn -0.99359 0.0522601 -0.100237
v 4.96544 9.88245 -28.1566
vn -0.997889 0.0648728 -0.00301049
v 4.96948 9.89157 -28.0825
vn -0.992578 0.0768607 0.094245
v 4.98081 9.90014 -28.0092
vn -0.977707 0.0881084 0.190593
v 4.9993 9.90806 -27.9372
vn -0.953421 0.0985076 0.285105
v 5.02478 9.91525 -27.8674
vn -0.919953 0.107958 0.376872
v 5.05701 9.92166 -27.8002
vn -0.877625 0.116369 0.465009
v 5.09567 9.92721 -27.7366
vn -0.826845 0.123659 0.548668
v 5.1404 9.93185 -27.6769
vn -0.768102 0.129758 0.627043
v 5.19076 9.93554 -27.6218
vn -0.701962 0.134608 0.699379
v 5.24626 9.93825 -27.5719
vn -0.629061 0.138161 0.764979
v 5.30638 9.93994 -27.5275
vn -0.550103 0.140384 0.823213
v 5.25945 7.77077 -27.2718
vn -0.468696 0.0867412 0.879091
v 5.32659 7.7706 -27.2401
vn -0.379939 0.086514 0.920957
v 5.3965 7.7698 -27.2152
vn -0.287524 0.0854536 0.953954
v 5.4685 7.76837 -27.1972
vn -0.192339 0.0835703 0.977764
v 5.54191 7.76634 -27.1863
vn -0.0953025 0.0808821 0.992157
v 5.61601 7.76372 -27.1826
vn 0.00265214 0.077415 0.996995
v 5.69009 7.76053 -27.1862
vn 0.100581 0.0732024 0.992232
v 5.76344 7.75681 -27.197
vn 0.197542 0.0682847 0.977913
v 5.83534 7.75259 -27.215
vn 0.2926 0.0627095 0.954177
v 5.90512 7.74792 -27.2399
vn 0.38484 0.0565303 0.921251
v 5.97209 7.74283 -27.2715
vn 0.473374 0.0498067 0.879452
v 6.03562 7.73738 -27.3096
vn 0.557349 0.0426035 0.829185
v 6.09508 7.73162 -27.3536
vn 0.635956 0.0349899 0.770931
v 6.14992 7.72561 -27.4033
vn 0.708439 0.0270394 0.705254
v 6.19959 7.7194 -27.4581
vn 0.774099 0.0188285 0.632784
v 6.24362 7.71305 -27.5176
vn 0.832305 0.0104362 0.55422
v 6.28158 7.70662 -27.581
vn 0.882494 0.00194346 0.470319
v 6.31312 7.70019 -27.6479
vn 0.924185 -0.00656802 0.381888
v 6.33793 7.6938 -27.7176
vn 0.956976 -0.0150163 0.28978
v 6.35576 7.68751 -27.7894
vn 0.98055 -0.0233199 0.194881
v 6.36645 7.6814 -27.8626
vn 0.994681 -0.0313989 0.0981046
v 6.36989 7.67552 -27.9365
vn 0.999232 -0.0391755 0.000383825
v 6.36606 7.66992 -28.0104
vn 0.994161 -0.0465749 -0.0973407
v 6.35498 7.66466 -28.0837
vn 0.979515 -0.0535257 -0.194128
v 6.33676 7.6598 -28.1555
vn 0.955436 -0.059961 -0.289045
v 6.31159 7.65536 -28.2252
vn 0.922155 -0.0658189 -0.381179
v 6.27969 7.65141 -28.2921
vn 0.879994 -0.0710429 -0.469642
v 6.24139 7.64798 -28.3556
vn 0.829358 -0.0755827 -0.553582
v 6.19704 7.64509 -28.415
vn 0.770734 -0.0793947 -0.632191
v 6.14708 7.64279 -28.4699
vn 0.704689 -0.082442 -0.704711
v 6.09198 7.64108 -28.5196
vn 0.631856 -0.0846953 -0.770444
v 6.03228 7.64 -28.5637
vn 0.552939 -0.086133 -0.828758
v 5.96856 7.63954 -28.6018
vn 0.468696 -0.0867412 -0.879091
v 5.90141 7.63971 -28.6335
vn 0.379939 -0.086514 -0.920957
v 5.8315 7.64051 -28.6584
vn 0.287524 -0.0854536 -0.953954
v 5.7595 7.64194 -28.6765
vn 0.192339 -0.0835703 -0.977764
v 5.68609 7.64397 -28.6873
vn 0.0953025 -0.0808821 -0.992157
v 5.61199 7.64659 -28.691
vn -0.00265214 -0.077415 -0.996995
v 5.53791 7.64978 -28.6874
vn -0.100581 -0.0732024 -0.992232
v 5.46457 7.6535 -28.6766
vn -0.197542 -0.0682847 -0.977913
v 5.39266 7.65772 -28.6586
vn -0.2926 -0.0627095 -0.954177
v 5.32288 7.66239 -28.6337
vn -0.38484 -0.0565303 -0.921251
v 5.25591 7.66748 -28.6021
vn -0.473374 -0.0498067 -0.879452
v 5.19238 7.67293 -28.5641
vn -0.557349 -0.0426035 -0.829185
v 5.13292 7.67869 -28.52
vn -0.635956 -0.0349899 -0.770931
v 5.07809 7.6847 -28.4703
vn -0.708439 -0.0270394 -0.705254
v 5.02842 7.69091 -28.4155
vn -0.774099 -0.0188285 -0.632784
v 4.98439 7.69726 -28.3561
vn -0.832305 -0.0104362 -0.55422
v 4.94642 7.70368 -28.2926
vn -0.882494 -0.00194346 -0.470319
v 4.91488 7.71012 -28.2257
vn -0.924185 0.00656802 -0.381888
v 4.89008 7.71651 -28.156
vn -0.956976 0.0150163 -0.28978
v 4.87224 7.7228 -28.0842
vn -0.98055 0.0233199 -0.194881
v 4.86155 7.72891 -28.011
vn -0.994681 0.0313989 -0.0981046
v 4.85811 7.73479 -27.9371
vn -0.999232 0.0391755 -0.000383825
v 4.86195 7.74039 -27.8632
vn -0.994161 0.0465749 0.0973407
v 4.87303 7.74565 -27.79
vn -0.979515 0.0535257 0.194128
v 4.89124 7.75051 -27.7182
vn -0.955436 0.059961 0.289045
v 4.91642 7.75494 -27.6485
vn -0.922155 0.0658189 0.381179
v 4.94831 7.7589 -27.5815
vn -0.879994 0.0710429 0.469642
v 4.98661 7.76233 -27.518
vn -0.829358 0.0755827 0.553582
v 5.03096 7.76521 -27.4586
vn -0.770734 0.0793947 0.632191
v 5.08092 7.76752 -27.4037
vn -0.704689 0.082442 0.704711
v 5.13602 7.76922 -27.354
vn -0.631856 0.0846953 0.770444
v 5.19572 7.77031 -27.3099
vn -0.552939 0.086133 0.828758
v 5.20436 5.58709 -27.1594
vn -0.470131 0.0321796 0.88201
v 5.27107 5.58712 -27.128
vn -0.381368 0.0322152 0.923862
v 5.34054 5.58691 -27.1032
vn -0.288932 0.0319405 0.956817
v 5.4121 5.58648 -27.0854
vn -0.193713 0.0313581 0.980557
v 5.48506 5.58581 -27.0746
vn -0.0966288 0.0304738 0.994854
v 5.55873 5.58493 -27.0711
vn 0.00138611 0.029296 0.99957
v 5.63238 5.58383 -27.0748
vn 0.0993876 0.0278361 0.994659
v 5.70531 5.58253 -27.0856
vn 0.196432 0.0261081 0.98017
v 5.77683 5.58104 -27.1036
vn 0.291585 0.0241287 0.956241
v 5.84623 5.57938 -27.1285
vn 0.383929 0.0219169 0.923102
v 5.91285 5.57756 -27.1601
vn 0.472576 0.019494 0.881074
v 5.97605 5.5756 -27.1981
vn 0.556672 0.0168833 0.830561
v 6.03522 5.57351 -27.2421
vn 0.635407 0.0141101 0.772048
v 6.0898 5.57133 -27.2916
vn 0.708023 0.011201 0.706101
v 6.13925 5.56906 -27.3463
vn 0.773819 0.00818405 0.633353
v 6.1831 5.56673 -27.4055
vn 0.832164 0.00508825 0.554506
v 6.22092 5.56437 -27.4688
vn 0.882494 0.00194346 0.470319
v 6.25236 5.56199 -27.5355
vn 0.924326 -0.00122006 0.381602
v 6.27711 5.55962 -27.6049
vn 0.957256 -0.00437182 0.28921
v 6.29493 5.55729 -27.6765
vn 0.980966 -0.00748148 0.194033
v 6.30565 5.555 -27.7494
vn 0.99523 -0.0105191 0.0969875
v 6.30917 5.5528 -27.823
vn 0.999909 -0.0134554 -0.000992216
v 6.30545 5.55069 -27.8967
vn 0.994958 -0.0162621 -0.0989624
v 6.29452 5.5487 -27.9696
vn 0.980426 -0.0189122 -0.19598
v 6.27651 5.54684 -28.0411
vn 0.956451 -0.0213802 -0.291109
v 6.25156 5.54514 -28.1105
vn 0.923265 -0.0236423 -0.383435
v 6.21994 5.54361 -28.1771
vn 0.881188 -0.0256767 -0.472069
v 6.18194 5.54227 -28.2403
vn 0.830624 -0.0274638 -0.556156
v 6.13793 5.54112 -28.2994
vn 0.772061 -0.0289864 -0.634887
v 6.08833 5.54019 -28.354
vn 0.706062 -0.0302298 -0.707504
v 6.03361 5.53947 -28.4035
vn 0.633264 -0.0311822 -0.773307
v 5.97432 5.53898 -28.4473
vn 0.554367 -0.0318342 -0.831663
v 5.91101 5.53872 -28.4852
vn 0.470131 -0.0321796 -0.88201
v 5.8443 5.5387 -28.5166
vn 0.381368 -0.0322152 -0.923862
v 5.77483 5.5389 -28.5414
vn 0.288932 -0.0319405 -0.956817
v 5.70327 5.53934 -28.5592
vn 0.193713 -0.0313581 -0.980557
v 5.63031 5.54001 -28.57
vn 0.0966288 -0.0304738 -0.994854
v 5.55664 5.54089 -28.5735
vn -0.00138611 -0.029296 -0.99957
v 5.48299 5.54199 -28.5698
vn -0.0993876 -0.0278361 -0.994659
v 5.41006 5.54329 -28.5589
vn -0.196432 -0.0261081 -0.98017
v 5.33854 5.54478 -28.5409
vn -0.291585 -0.0241287 -0.956241
v 5.26914 5.54644 -28.516
vn -0.383929 -0.0219169 -0.923102
v 5.20252 5.54826 -28.4845
vn -0.472576 -0.019494 -0.881074
v 5.13932 5.55022 -28.4465
vn -0.556672 -0.0168833 -0.830561
v 5.08014 5.5523 -28.4025
vn -0.635407 -0.0141101 -0.772048
v 5.02557 5.55449 -28.353
vn -0.708023 -0.011201 -0.706101
v 4.97612 5.55676 -28.2983
vn -0.773819 -0.00818405 -0.633353
v 4.93227 5.55908 -28.239
vn -0.832164 -0.00508825 -0.554506
v 4.89445 5.56145 -28.1758
vn -0.882494 -0.00194346 -0.470319
v 4.86301 5.56383 -28.1091
vn -0.924326 0.00122006 -0.381602
v 4.83826 5.56619 -28.0396
vn -0.957256 0.00437182 -0.28921
v 4.82044 5.56853 -27.9681
vn -0.980966 0.00748148 -0.194033
v 4.80972 5.57081 -27.8952
vn -0.99523 0.0105191 -0.0969875
v 4.8062 5.57302 -27.8215
vn -0.999909 0.0134554 0.000992216
v 4.80992 5.57513 -27.7479
vn -0.994958 0.0162621 0.0989624
v 4.82085 5.57712 -27.675
vn -0.980426 0.0189122 0.19598
v 4.83886 5.57898 -27.6035
vn -0.956451 0.0213802 0.291109
v 4.86381 5.58068 -27.5341
vn -0.923265 0.0236423 0.383435
v 4.89543 5.58221 -27.4675
vn -0.881188 0.0256767 0.472069
v 4.93343 5.58355 -27.4043
vn -0.830624 0.0274638 0.556156
v 4.97744 5.58469 -27.3451
vn -0.772061 0.0289864 0.634887
v 5.02704 5.58563 -27.2906
vn -0.706062 0.0302298 0.707504
v 5.08176 5.58634 -27.2411
vn -0.633264 0.0311822 0.773307
v 5.14105 5.58683 -27.1973
vn -0.554367 0.0318342 0.831663
v 5.20524 3.38993 -27.152
vn -0.470169 -0.0219438 0.882304
v 5.27151 3.39015 -27.1207
vn -0.381405 -0.0216476 0.924154
v 5.34053 3.39053 -27.0961
vn -0.288969 -0.021143 0.957105
v 5.41162 3.39106 -27.0784
vn -0.193749 -0.0204347 0.980838
v 5.48411 3.39173 -27.0677
vn -0.0966634 -0.0195297 0.995126
v 5.55729 3.39255 -27.0642
vn 0.00135303 -0.0184365 0.999829
v 5.63046 3.3935 -27.0679
vn 0.0993565 -0.0171658 0.994904
v 5.70292 3.39457 -27.0787
vn 0.196403 -0.0157298 0.980397
v 5.77396 3.39576 -27.0966
vn 0.291558 -0.0141424 0.956449
v 5.84291 3.39704 -27.1214
vn 0.383905 -0.0124187 0.923289
v 5.9091 3.39842 -27.1528
vn 0.472555 -0.0105754 0.881237
v 5.97189 3.39987 -27.1905
vn 0.556654 -0.00863024 0.830699
v 6.03068 3.40139 -27.2342
vn 0.635393 -0.006602 0.772161
v 6.0849 3.40295 -27.2835
vn 0.708012 -0.00451017 0.706186
v 6.13403 3.40454 -27.3378
vn 0.773812 -0.0023749 0.633411
v 6.17759 3.40615 -27.3967
vn 0.83216 -0.000216768 0.554535
v 6.21517 3.40777 -27.4596
vn 0.882494 0.00194346 0.470319
v 6.24641 3.40937 -27.5258
vn 0.92433 0.00408496 0.381573
v 6.271 3.41094 -27.5948
vn 0.957263 0.00618713 0.289153
v 6.2887 3.41246 -27.6659
vn 0.980977 0.00822971 0.193948
v 6.29935 3.41393 -27.7384
vn 0.995244 0.010193 0.096875
v 6.30285 3.41532 -27.8116
vn 0.999927 0.0120582 -0.00113081
v 6.29916 3.41662 -27.8847
vn 0.994979 0.0138072 -0.0991258
v 6.28831 3.41783 -27.9572
vn 0.980449 0.0154233 -0.196166
v 6.27041 3.41893 -28.0282
vn 0.956477 0.0168908 -0.291317
v 6.24563 3.4199 -28.0972
vn 0.923294 0.0181957 -0.383663
v 6.21422 3.42074 -28.1634
vn 0.881219 0.0193253 -0.472313
v 6.17647 3.42145 -28.2262
vn 0.830657 0.0202688 -0.556416
v 6.13275 3.42201 -28.285
vn 0.772095 0.0210171 -0.635159
v 6.08347 3.42242 -28.3392
vn 0.706098 0.021563 -0.707786
v 6.02912 3.42267 -28.3883
vn 0.633301 0.0219013 -0.773596
v 5.97021 3.42276 -28.4319
vn 0.554404 0.0220286 -0.831956
v 5.90732 3.4227 -28.4695
vn 0.470169 0.0219438 -0.882304
v 5.84105 3.42248 -28.5007
vn 0.381405 0.0216476 -0.924154
v 5.77203 3.4221 -28.5253
vn 0.288969 0.021143 -0.957105
v 5.70094 3.42157 -28.5431
vn 0.193749 0.0204347 -0.980838
v 5.62845 3.4209 -28.5537
vn 0.0966634 0.0195297 -0.995126
v 5.55527 3.42008 -28.5572
vn -0.00135303 0.0184365 -0.999829
v 5.4821 3.41913 -28.5536
vn -0.0993565 0.0171658 -0.994904
v 5.40964 3.41806 -28.5427
vn -0.196403 0.0157298 -0.980397
v 5.33859 3.41688 -28.5248
vn -0.291558 0.0141424 -0.956449
v 5.26964 3.41559 -28.5001
vn -0.383905 0.0124187 -0.923289
v 5.20346 3.41421 -28.4687
vn -0.472555 0.0105754 -0.881237
v 5.14066 3.41276 -28.431
vn -0.556654 0.00863024 -0.830699
v 5.08188 3.41125 -28.3873
vn -0.635393 0.006602 -0.772161
v 5.02766 3.40968 -28.338
vn -0.708012 0.00451017 -0.706186
v 4.97853 3.40809 -28.2837
vn -0.773812 0.0023749 -0.633411
v 4.93496 3.40648 -28.2248
vn -0.83216 0.000216768 -0.554535
v 4.89738 3.40487 -28.1619
vn -0.882494 -0.00194346 -0.470319
v 4.86615 3.40327 -28.0956
vn -0.92433 -0.00408496 -0.381573
v 4.84156 3.4017 -28.0266
vn -0.957263 -0.00618713 -0.289153
v 4.82385 3.40017 -27.9555
vn -0.980977 -0.00822971 -0.193948
v 4.8132 3.39871 -27.8831
vn -0.995244 -0.010193 -0.096875
v 4.80971 3.39731 -27.8099
vn -0.999927 -0.0120582 0.00113081
v 4.8134 3.39601 -27.7367
vn -0.994979 -0.0138072 0.0991258
v 4.82425 3.3948 -27.6643
vn -0.980449 -0.0154233 0.196166
v 4.84215 3.3937 -27.5932
vn -0.956477 -0.0168908 0.291317
v 4.86692 3.39273 -27.5243
vn -0.923294 -0.0181957 0.383663
v 4.89834 3.39189 -27.4581
vn -0.881219 -0.0193253 0.472313
v 4.93609 3.39118 -27.3953
vn -0.830657 -0.0202688 0.556416
v 4.97981 3.39062 -27.3365
vn -0.772095 -0.0210171 0.635159
v 5.02909 3.39022 -27.2823
vn -0.706098 -0.021563 0.707786
v 5.08344 3.38996 -27.2331
vn -0.633301 -0.0219013 0.773596
v 5.14234 3.38987 -27.1896
vn -0.554404 -0.0220286 0.831956
v 5.26202 1.17962 -27.2494
vn -0.46886 -0.0751678 0.880068
v 5.32786 1.18003 -27.2184
vn -0.380103 -0.0746154 0.92193
v 5.3964 1.18098 -27.1939
vn -0.287685 -0.0733443 0.954912
v 5.467 1.18244 -27.1762
vn -0.192497 -0.071367 0.978699
v 5.53898 1.18442 -27.1656
vn -0.0954544 -0.0687023 0.99306
v 5.61164 1.18689 -27.162
vn 0.00250713 -0.065376 0.997858
v 5.68428 1.18982 -27.1656
vn 0.100445 -0.06142 0.993045
v 5.7562 1.19319 -27.1763
vn 0.197415 -0.0568726 0.978669
v 5.82672 1.19697 -27.1939
vn 0.292483 -0.0517774 0.954868
v 5.89514 1.20112 -27.2184
vn 0.384736 -0.0461837 0.921871
v 5.96082 1.2056 -27.2495
vn 0.473282 -0.0401451 0.879996
v 6.02311 1.21037 -27.2868
vn 0.557271 -0.0337199 0.829645
v 6.08143 1.21537 -27.3301
vn 0.635893 -0.02697 0.771305
v 6.1352 1.22057 -27.3789
vn 0.708392 -0.0199603 0.705537
v 6.18391 1.22591 -27.4327
vn 0.774067 -0.0127584 0.632975
v 6.22709 1.23135 -27.491
vn 0.832289 -0.00543364 0.554316
v 6.26433 1.23682 -27.5533
vn 0.882494 0.00194346 0.470319
v 6.29527 1.24228 -27.619
vn 0.924201 0.00930183 0.381792
v 6.3196 1.24767 -27.6874
vn 0.957008 0.0165706 0.289589
v 6.33709 1.25294 -27.7578
vn 0.980597 0.0236798 0.194597
v 6.34759 1.25804 -27.8297
vn 0.994744 0.030561 0.0977305
v 6.35097 1.26293 -27.9022
vn 0.99931 0.0371478 -7.69917e-05
v 6.34722 1.26755 -27.9748
vn 0.994252 0.0433769 -0.0978838
v 6.33637 1.27186 -28.0466
vn 0.979619 0.0491883 -0.194748
v 6.31852 1.27582 -28.1171
vn 0.955552 0.0545259 -0.289736
v 6.29384 1.27939 -28.1854
vn 0.922282 0.0593384 -0.381935
v 6.26258 1.28253 -28.2511
vn 0.880131 0.0635795 -0.470455
v 6.22503 1.28522 -28.3134
vn 0.829503 0.0672082 -0.554444
v 6.18155 1.28744 -28.3717
vn 0.770886 0.0701897 -0.633094
v 6.13257 1.28915 -28.4255
vn 0.704846 0.0724953 -0.705646
v 6.07855 1.29034 -28.4743
vn 0.632017 0.0741026 -0.771403
v 6.02002 1.291 -28.5176
vn 0.553102 0.0749964 -0.829731
v 5.95754 1.29113 -28.5549
vn 0.46886 0.0751678 -0.880068
v 5.8917 1.29072 -28.586
vn 0.380103 0.0746154 -0.92193
v 5.82316 1.28978 -28.6104
vn 0.287685 0.0733443 -0.954912
v 5.75256 1.28831 -28.6281
vn 0.192497 0.071367 -0.978699
v 5.68058 1.28633 -28.6387
vn 0.0954544 0.0687023 -0.99306
v 5.60792 1.28387 -28.6423
vn -0.00250713 0.065376 -0.997858
v 5.53528 1.28093 -28.6387
vn -0.100445 0.06142 -0.993045
v 5.46336 1.27756 -28.628
vn -0.197415 0.0568726 -0.978669
v 5.39284 1.27378 -28.6104
vn -0.292483 0.0517774 -0.954868
v 5.32442 1.26963 -28.5859
vn -0.384736 0.0461837 -0.921871
v 5.25874 1.26515 -28.5549
vn -0.473282 0.0401451 -0.879996
v 5.19645 1.26039 -28.5175
vn -0.557271 0.0337199 -0.829645
v 5.13814 1.25538 -28.4742
vn -0.635893 0.02697 -0.771305
v 5.08436 1.25018 -28.4255
vn -0.708392 0.0199603 -0.705537
v 5.03565 1.24484 -28.3716
vn -0.774067 0.0127584 -0.632975
v 4.99247 1.23941 -28.3133
vn -0.832289 0.00543364 -0.554316
v 4.95523 1.23393 -28.251
vn -0.882494 -0.00194346 -0.470319
v 4.9243 1.22848 -28.1853
vn -0.924201 -0.00930183 -0.381792
v 4.89996 1.22309 -28.1169
vn -0.957008 -0.0165706 -0.289589
v 4.88247 1.21781 -28.0465
vn -0.980597 -0.0236798 -0.194597
v 4.87197 1.21271 -27.9746
vn -0.994744 -0.030561 -0.0977305
v 4.86859 1.20782 -27.9021
vn -0.99931 -0.0371478 7.69917e-05
v 4.87234 1.2032 -27.8296
vn -0.994252 -0.0433769 0.0978838
v 4.88319 1.19889 -27.7577
vn -0.979619 -0.0491883 0.194748
v 4.90104 1.19493 -27.6873
vn -0.955552 -0.0545259 0.289736
v 4.92572 1.19136 -27.6189
vn -0.922282 -0.0593384 0.381935
v 4.95698 1.18822 -27.5532
vn -0.880131 -0.0635795 0.470455
v 4.99453 1.18553 -27.4909
vn -0.829503 -0.0672082 0.554444
v 5.03801 1.18332 -27.4326
vn -0.770886 -0.0701897 0.633094
v 5.08699 1.18161 -27.3788
vn -0.704846 -0.0724953 0.705646
v 5.14101 1.18041 -27.33
vn -0.632017 -0.0741026 0.771403
v 5.19954 1.17975 -27.2867
vn -0.553102 -0.0749964 0.829731
v 5.37464 -1.04354 -27.4515
vn -0.466289 -0.127075 0.875458
v 5.44002 -1.04295 -27.4207
vn -0.377544 -0.126273 0.917342
v 5.50809 -1.04146 -27.3963
vn -0.285163 -0.124254 0.950391
v 5.57818 -1.03909 -27.3787
vn -0.190036 -0.121039 0.974287
v 5.64961 -1.03586 -27.368
vn -0.0930789 -0.116658 0.988801
v 5.72171 -1.03181 -27.3643
vn 0.00477481 -0.111154 0.993792
v 5.79377 -1.02696 -27.3677
vn 0.102583 -0.104579 0.989212
v 5.86511 -1.02138 -27.3781
vn 0.199402 -0.0969975 0.975105
v 5.93503 -1.0151 -27.3954
vn 0.294302 -0.0884815 0.951608
v 6.00286 -1.0082 -27.4195
vn 0.386367 -0.0791133 0.918946
v 6.06795 -1.00074 -27.4501
vn 0.474711 -0.0689833 0.877434
v 6.12967 -0.992784 -27.4869
vn 0.558483 -0.0581889 0.827472
v 6.18743 -0.984418 -27.5296
vn 0.636877 -0.0468341 0.769541
v 6.24067 -0.97572 -27.5777
vn 0.709138 -0.0350282 0.704199
v 6.28888 -0.966773 -27.6308
vn 0.774569 -0.022885 0.632075
v 6.33159 -0.957663 -27.6885
vn 0.832541 -0.0105215 0.553864
v 6.3684 -0.948479 -27.75
vn 0.882494 0.00194346 0.470319
v 6.39894 -0.939309 -27.8149
vn 0.923949 0.0143896 0.382244
v 6.42293 -0.930241 -27.8825
vn 0.956506 0.0266973 0.290488
v 6.44013 -0.921363 -27.9522
vn 0.979851 0.0387478 0.195935
v 6.45038 -0.912759 -28.0232
vn 0.99376 0.0504251 0.0994948
v 6.45357 -0.904513 -28.095
vn 0.998098 0.0616168 0.00209625
v 6.44969 -0.896705 -28.1668
vn 0.992824 0.0722151 -0.0953225
v 6.43876 -0.889408 -28.2379
vn 0.977988 0.082118 -0.191823
v 6.42089 -0.882695 -28.3076
vn 0.953734 0.09123 -0.286477
v 6.39625 -0.876628 -28.3753
vn 0.920295 0.0994634 -0.378371
v 6.36508 -0.871268 -28.4403
vn 0.877993 0.106739 -0.466621
v 6.32769 -0.866665 -28.5021
vn 0.827235 0.112986 -0.550378
v 6.28442 -0.862864 -28.5599
vn 0.768511 0.118146 -0.628834
v 6.2357 -0.8599 -28.6132
vn 0.702385 0.122168 -0.701235
v 6.18199 -0.857804 -28.6616
vn 0.629495 0.125013 -0.766882
v 6.12382 -0.856595 -28.7045
vn 0.550543 0.126654 -0.825143
v 6.06175 -0.856285 -28.7416
vn 0.466289 0.127075 -0.875458
v 5.99636 -0.856876 -28.7724
vn 0.377544 0.126273 -0.917342
v 5.9283 -0.858363 -28.7968
vn 0.285163 0.124254 -0.950391
v 5.85821 -0.860732 -28.8144
vn 0.190036 0.121039 -0.974287
v 5.78677 -0.863959 -28.8251
vn 0.0930789 0.116658 -0.988801
v 5.71467 -0.868015 -28.8288
vn -0.00477481 0.111154 -0.993792
v 5.64261 -0.872859 -28.8254
vn -0.102583 0.104579 -0.989212
v 5.57128 -0.878445 -28.815
vn -0.199402 0.0969975 -0.975105
v 5.50136 -0.88472 -28.7977
vn -0.294302 0.0884815 -0.951608
v 5.43352 -0.891622 -28.7736
vn -0.386367 0.0791133 -0.918946
v 5.36843 -0.899086 -28.743
vn -0.474711 0.0689833 -0.877434
v 5.30671 -0.907039 -28.7062
vn -0.558483 0.0581889 -0.827472
v 5.24895 -0.915405 -28.6635
vn -0.636877 0.0468341 -0.769541
v 5.19571 -0.924103 -28.6154
vn -0.709138 0.0350282 -0.704199
v 5.1475 -0.93305 -28.5622
vn -0.774569 0.022885 -0.632075
v 5.10479 -0.942159 -28.5046
vn -0.832541 0.0105215 -0.553864
v 5.06799 -0.951343 -28.4431
vn -0.882494 -0.00194346 -0.470319
v 5.03744 -0.960513 -28.3782
vn -0.923949 -0.0143896 -0.382244
v 5.01345 -0.969581 -28.3106
vn -0.956506 -0.0266973 -0.290488
v 4.99625 -0.97846 -28.2409
vn -0.979851 -0.0387478 -0.195935
v 4.98601 -0.987064 -28.1699
vn -0.99376 -0.0504251 -0.0994948
v 4.98281 -0.99531 -28.0981
vn -0.998098 -0.0616168 -0.00209625
v 4.9867 -1.00312 -28.0263
vn -0.992824 -0.0722151 0.0953225
v 4.99763 -1.01041 -27.9552
vn -0.977988 -0.082118 0.191823
v 5.0155 -1.01713 -27.8855
vn -0.953734 -0.09123 0.286477
v 5.04013 -1.02319 -27.8178
vn -0.920295 -0.0994634 0.378371
v 5.0713 -1.02855 -27.7527
vn -0.877993 -0.106739 0.466621
v 5.1087 -1.03316 -27.691
vn -0.827235 -0.112986 0.550378
v 5.15197 -1.03696 -27.6332
vn -0.768511 -0.118146 0.628834
v 5.20069 -1.03992 -27.5799
vn -0.702385 -0.122168 0.701235
v 5.25439 -1.04202 -27.5315
vn -0.629495 -0.125013 0.766882
v 5.31256 -1.04323 -27.4886
vn -0.550543 -0.126654 0.825143
v 5.54298 -3.27931 -27.7582
vn -0.462564 -0.177306 0.868676
v 5.60792 -3.27855 -27.7275
vn -0.373837 -0.176262 0.910592
v 5.67549 -3.27654 -27.7032
vn -0.28151 -0.17352 0.943739
v 5.74504 -3.27331 -27.6856
vn -0.186471 -0.169107 0.967797
v 5.81591 -3.26889 -27.6748
vn -0.0896372 -0.163066 0.982535
v 5.88741 -3.26332 -27.671
vn 0.00806015 -0.155454 0.98781
v 5.95886 -3.25665 -27.6741
vn 0.10568 -0.146345 0.983573
v 6.02956 -3.24895 -27.6841
vn 0.202282 -0.135827 0.969862
v 6.09883 -3.2403 -27.701
vn 0.296936 -0.124 0.946812
v 6.16601 -3.23077 -27.7245
vn 0.38873 -0.11098 0.914643
v 6.23045 -3.22046 -27.7545
vn 0.476781 -0.0968902 0.873666
v 6.29153 -3.20946 -27.7907
vn 0.56024 -0.0818677 0.824275
v 6.34866 -3.19789 -27.8326
vn 0.638303 -0.0660567 0.766946
v 6.40129 -3.18585 -27.88
vn 0.710219 -0.0496095 0.70223
v 6.44892 -3.17347 -27.9323
vn 0.775296 -0.0326846 0.630752
v 6.49108 -3.16085 -27.989
vn 0.832906 -0.015445 0.553199
v 6.52738 -3.14812 -28.0497
vn 0.882494 0.00194346 0.470319
v 6.55745 -3.13541 -28.1137
vn 0.923584 0.0193132 0.382909
v 6.58101 -3.12284 -28.1803
vn 0.955779 0.0364969 0.291812
v 6.59784 -3.11052 -28.2491
vn 0.97877 0.0533291 0.197904
v 6.60776 -3.09857 -28.3192
vn 0.992334 0.0696477 0.10209
v 6.6107 -3.08712 -28.39
vn 0.996342 0.0852956 0.00529341
v 6.60661 -3.07627 -28.4609
vn 0.990754 0.100122 -0.0915544
v 6.59553 -3.06613 -28.5311
vn 0.975625 0.113984 -0.187521
v 6.57759 -3.05678 -28.6001
vn 0.9511 0.126749 -0.281681
v 6.55293 -3.04834 -28.667
vn 0.917415 0.138293 -0.373128
v 6.52181 -3.04086 -28.7313
vn 0.874895 0.148505 -0.460982
v 6.48453 -3.03443 -28.7923
vn 0.82395 0.157286 -0.544397
v 6.44144 -3.02912 -28.8495
vn 0.765069 0.164553 -0.622568
v 6.39295 -3.02496 -28.9024
vn 0.698821 0.170236 -0.694744
v 6.33954 -3.022 -28.9503
vn 0.625842 0.174279 -0.76023
v 6.28172 -3.02027 -28.9929
vn 0.546836 0.176643 -0.818393
v 6.22005 -3.01978 -29.0297
vn 0.462564 0.177306 -0.868676
v 6.15511 -3.02055 -29.0603
vn 0.373837 0.176262 -0.910592
v 6.08754 -3.02255 -29.0846
vn 0.28151 0.17352 -0.943739
v 6.01798 -3.02578 -29.1022
vn 0.186471 0.169107 -0.967797
v 5.94712 -3.0302 -29.113
vn 0.0896372 0.163066 -0.982535
v 5.87561 -3.03578 -29.1168
vn -0.00806015 0.155454 -0.98781
v 5.80417 -3.04244 -29.1137
vn -0.10568 0.146345 -0.983573
v 5.73347 -3.05014 -29.1037
vn -0.202282 0.135827 -0.969862
v 5.6642 -3.0588 -29.0868
vn -0.296936 0.124 -0.946812
v 5.59702 -3.06832 -29.0633
vn -0.38873 0.11098 -0.914643
v 5.53258 -3.07864 -29.0333
vn -0.476781 0.0968902 -0.873666
v 5.4715 -3.08963 -28.9972
vn -0.56024 0.0818677 -0.824275
v 5.41436 -3.1012 -28.9552
vn -0.638303 0.0660567 -0.766946
v 5.36173 -3.11324 -28.9078
vn -0.710219 0.0496095 -0.70223
v 5.3141 -3.12563 -28.8555
vn -0.775296 0.0326846 -0.630752
v 5.27194 -3.13824 -28.7988
vn -0.832906 0.015445 -0.553199
v 5.23565 -3.15097 -28.7381
vn -0.882494 -0.00194346 -0.470319
v 5.20558 -3.16368 -28.6741
vn -0.923584 -0.0193132 -0.382909
v 5.18202 -3.17626 -28.6075
vn -0.955779 -0.0364969 -0.291812
v 5.16519 -3.18858 -28.5387
vn -0.97877 -0.0533291 -0.197904
v 5.15526 -3.20052 -28.4686
vn -0.992334 -0.0696477 -0.10209
v 5.15233 -3.21197 -28.3978
vn -0.996342 -0.0852956 -0.00529341
v 5.15642 -3.22282 -28.3269
vn -0.990754 -0.100122 0.0915544
v 5.16749 -3.23297 -28.2567
vn -0.975625 -0.113984 0.187521
v 5.18544 -3.24231 -28.1878
vn -0.9511 -0.126749 0.281681
v 5.21009 -3.25076 -28.1208
vn -0.917415 -0.138293 0.373128
v 5.24121 -3.25823 -28.0565
vn -0.874895 -0.148505 0.460982
v 5.2785 -3.26466 -27.9955
vn -0.82395 -0.157286 0.544397
v 5.32159 -3.26998 -27.9383
vn -0.765069 -0.164553 0.622568
v 5.37007 -3.27413 -27.8855
vn -0.698821 -0.170236 0.694744
v 5.42348 -3.27709 -27.8375
vn -0.625842 -0.174279 0.76023
v 5.48131 -3.27882 -27.795
vn -0.546836 -0.176643 0.818393
v 5.76694 -5.5275 -28.1691
vn -0.457811 -0.225568 0.859958
v 5.83142 -5.52657 -28.1386
vn -0.369107 -0.224292 0.901916
v 5.89849 -5.52408 -28.1144
vn -0.276849 -0.220855 0.935189
v 5.9675 -5.52003 -28.0968
vn -0.181924 -0.215291 0.959455
v 6.03777 -5.51448 -28.0859
vn -0.0852467 -0.207654 0.974481
v 6.10865 -5.50747 -28.0818
vn 0.0122513 -0.198017 0.980122
v 6.17944 -5.49908 -28.0845
vn 0.109631 -0.186473 0.976324
v 6.24946 -5.48939 -28.0941
vn 0.205955 -0.173134 0.963124
v 6.31804 -5.47848 -28.1104
vn 0.300296 -0.158127 0.940648
v 6.38452 -5.46646 -28.1334
vn 0.391745 -0.141597 0.909113
v 6.44825 -5.45345 -28.1627
vn 0.479421 -0.123703 0.868823
v 6.50863 -5.43958 -28.198
vn 0.56248 -0.104618 0.820166
v 6.56507 -5.42497 -28.2391
vn 0.640122 -0.0845257 0.76361
v 6.61703 -5.40978 -28.2856
vn 0.711599 -0.0636192 0.6997
v 6.66401 -5.39413 -28.337
vn 0.776223 -0.0421001 0.629051
v 6.70555 -5.37819 -28.3927
vn 0.833372 -0.0201755 0.552345
v 6.74126 -5.36212 -28.4523
vn 0.882494 0.00194346 0.470319
v 6.77079 -5.34605 -28.5153
vn 0.923118 0.0240437 0.383764
v 6.79386 -5.33015 -28.5809
vn 0.954852 0.0459123 0.293512
v 6.81025 -5.31458 -28.6485
vn 0.97739 0.0673388 0.200435
v 6.81979 -5.29947 -28.7176
vn 0.990515 0.0881168 0.105426
v 6.82239 -5.28498 -28.7874
vn 0.994101 0.108046 0.00940288
v 6.81804 -5.27125 -28.8573
vn 0.988114 0.126935 -0.0867111
v 6.80677 -5.25841 -28.9265
vn 0.97261 0.144601 -0.18199
v 6.78869 -5.24658 -28.9945
vn 0.947739 0.160875 -0.275516
v 6.76398 -5.23588 -29.0606
vn 0.913742 0.1756 -0.366389
v 6.73287 -5.2264 -29.1241
vn 0.870944 0.188633 -0.453734
v 6.69566 -5.21825 -29.1844
vn 0.819759 0.19985 -0.536708
v 6.65271 -5.21149 -29.241
vn 0.760679 0.209142 -0.614514
v 6.60444 -5.2062 -29.2932
vn 0.694273 0.21642 -0.686402
v 6.5513 -5.20243 -29.3407
vn 0.621181 0.221613 -0.751679
v 6.49382 -5.2002 -29.3829
vn 0.542107 0.224673 -0.809718
v 6.43254 -5.19955 -29.4194
vn 0.457811 0.225568 -0.859958
v 6.36806 -5.20048 -29.4499
vn 0.369107 0.224292 -0.901916
v 6.301 -5.20298 -29.4741
vn 0.276849 0.220855 -0.935189
v 6.23199 -5.20702 -29.4917
vn 0.181924 0.215291 -0.959455
v 6.16171 -5.21258 -29.5026
vn 0.0852467 0.207654 -0.974481
v 6.09084 -5.21958 -29.5067
vn -0.0122513 0.198017 -0.980122
v 6.02005 -5.22797 -29.504
vn -0.109631 0.186473 -0.976324
v 5.95003 -5.23767 -29.4944
vn -0.205955 0.173134 -0.963124
v 5.88145 -5.24858 -29.478
vn -0.300296 0.158127 -0.940648
v 5.81497 -5.2606 -29.4551
vn -0.391745 0.141597 -0.909113
v 5.75123 -5.2736 -29.4258
vn -0.479421 0.123703 -0.868823
v 5.69086 -5.28748 -29.3905
vn -0.56248 0.104618 -0.820166
v 5.63441 -5.30208 -29.3493
vn -0.640122 0.0845257 -0.76361
v 5.58245 -5.31728 -29.3029
vn -0.711599 0.0636192 -0.6997
v 5.53548 -5.33292 -29.2515
vn -0.776223 0.0421001 -0.629051
v 5.49393 -5.34886 -29.1958
vn -0.833372 0.0201755 -0.552345
v 5.45822 -5.36494 -29.1361
vn -0.882494 -0.00194346 -0.470319
v 5.42869 -5.38101 -29.0732
vn -0.923118 -0.0240437 -0.383764
v 5.40562 -5.3969 -29.0076
vn -0.954852 -0.0459123 -0.293512
v 5.38924 -5.41248 -28.9399
vn -0.97739 -0.0673388 -0.200435
v 5.3797 -5.42758 -28.8709
vn -0.990515 -0.0881168 -0.105426
v 5.37709 -5.44207 -28.8011
vn -0.994101 -0.108046 -0.00940288
v 5.38145 -5.4558 -28.7312
vn -0.988114 -0.126935 0.0867111
v 5.39272 -5.46864 -28.6619
vn -0.97261 -0.144601 0.18199
v 5.41079 -5.48047 -28.594
vn -0.947739 -0.160875 0.275516
v 5.43551 -5.49118 -28.5279
vn -0.913742 -0.1756 0.366389
v 5.46662 -5.50065 -28.4644
vn -0.870944 -0.188633 0.453734
v 5.50383 -5.50881 -28.4041
vn -0.819759 -0.19985 0.536708
v 5.54678 -5.51556 -28.3475
vn -0.760679 -0.209142 0.614514
v 5.59505 -5.52085 -28.2953
vn -0.694273 -0.21642 0.686402
v 5.64818 -5.52463 -28.2478
vn -0.621181 -0.221613 0.751679
v 5.70567 -5.52685 -28.2056
vn -0.542107 -0.224673 0.809718
v 6.04641 -7.78798 -28.6841
vn -0.45217 -0.271638 0.849562
v 6.11044 -7.7869 -28.6538
vn -0.363493 -0.270139 0.89157
v 6.17699 -7.78394 -28.6297
vn -0.271315 -0.266039 0.924993
v 6.24543 -7.77913 -28.612
vn -0.176525 -0.259377 0.949506
v 6.3151 -7.77252 -28.6009
vn -0.0800342 -0.250217 0.964876
v 6.38532 -7.76416 -28.5965
vn 0.017227 -0.238647 0.970954
v 6.45543 -7.75415 -28.5989
vn 0.114322 -0.224779 0.96768
v 6.52473 -7.74258 -28.608
vn 0.210317 -0.208746 0.955087
v 6.59258 -7.72955 -28.6237
vn 0.304286 -0.190703 0.933297
v 6.65831 -7.71519 -28.6459
vn 0.395324 -0.170823 0.902518
v 6.7213 -7.69965 -28.6744
vn 0.482555 -0.149298 0.863047
v 6.78092 -7.68307 -28.7089
vn 0.565139 -0.126335 0.815265
v 6.83662 -7.66562 -28.7491
vn 0.642281 -0.102156 0.759631
v 6.88785 -7.64745 -28.7945
vn 0.713237 -0.0769926 0.696682
v 6.93412 -7.62874 -28.8448
vn 0.777324 -0.0510878 0.627023
v 6.97499 -7.60968 -28.8995
vn 0.833925 -0.0246911 0.551326
v 7.01006 -7.59045 -28.958
vn 0.882494 0.00194346 0.470319
v 7.03899 -7.57124 -29.0197
vn 0.922565 0.0285593 0.384783
v 7.06151 -7.55222 -29.0842
vn 0.953751 0.0549001 0.295541
v 7.07739 -7.53358 -29.1506
vn 0.975752 0.0807121 0.203452
v 7.08649 -7.51551 -29.2186
vn 0.988356 0.105747 0.109405
v 7.08872 -7.49817 -29.2872
vn 0.991442 0.129763 0.0143035
v 7.08405 -7.48173 -29.356
vn 0.984979 0.15253 -0.0809355
v 7.07254 -7.46635 -29.4242
vn 0.969031 0.173828 -0.175395
v 7.05429 -7.45218 -29.4912
vn 0.94375 0.193451 -0.268165
v 7.02947 -7.43936 -29.5563
vn 0.90938 0.211212 -0.358353
v 6.99833 -7.428 -29.6189
vn 0.866253 0.226938 -0.44509
v 6.96117 -7.41823 -29.6784
vn 0.814783 0.240479 -0.52754
v 6.91834 -7.41012 -29.7343
vn 0.755466 0.251705 -0.60491
v 6.87026 -7.40377 -29.786
vn 0.688874 0.260506 -0.676454
v 6.81739 -7.39922 -29.8329
vn 0.615647 0.266798 -0.741483
v 6.76024 -7.39654 -29.8747
vn 0.536492 0.27052 -0.799372
v 6.69936 -7.39573 -29.9109
vn 0.45217 0.271638 -0.849562
v 6.63533 -7.39681 -29.9413
vn 0.363493 0.270139 -0.89157
v 6.56878 -7.39977 -29.9654
vn 0.271315 0.266039 -0.924993
v 6.50034 -7.40458 -29.9831
vn 0.176525 0.259377 -0.949506
v 6.43067 -7.4112 -29.9942
vn 0.0800342 0.250217 -0.964876
v 6.36044 -7.41955 -29.9986
vn -0.017227 0.238647 -0.970954
v 6.29034 -7.42956 -29.9962
vn -0.114322 0.224779 -0.96768
v 6.22103 -7.44114 -29.9871
vn -0.210317 0.208746 -0.955087
v 6.15318 -7.45417 -29.9714
vn -0.304286 0.190703 -0.933297
v 6.08745 -7.46852 -29.9492
vn -0.395324 0.170823 -0.902518
v 6.02447 -7.48406 -29.9207
vn -0.482555 0.149298 -0.863047
v 5.96484 -7.50064 -29.8862
vn -0.565139 0.126335 -0.815265
v 5.90915 -7.5181 -29.846
vn -0.642281 0.102156 -0.759631
v 5.85791 -7.53627 -29.8006
vn -0.713237 0.0769926 -0.696682
v 5.81164 -7.55497 -29.7503
vn -0.777324 0.0510878 -0.627023
v 5.77078 -7.57403 -29.6956
vn -0.833925 0.0246911 -0.551326
v 5.73571 -7.59326 -29.6371
vn -0.882494 -0.00194346 -0.470319
v 5.70678 -7.61248 -29.5754
vn -0.922565 -0.0285593 -0.384783
v 5.68426 -7.6315 -29.5109
vn -0.953751 -0.0549001 -0.295541
v 5.66837 -7.65013 -29.4444
vn -0.975752 -0.0807121 -0.203452
v 5.65927 -7.66821 -29.3765
vn -0.988356 -0.105747 -0.109405
v 5.65705 -7.68555 -29.3079
vn -0.991442 -0.129763 -0.0143035
v 5.66171 -7.70199 -29.2391
vn -0.984979 -0.15253 0.0809355
v 5.67323 -7.71736 -29.1709
vn -0.969031 -0.173828 0.175395
v 5.69148 -7.73153 -29.1039
vn -0.94375 -0.193451 0.268165
v 5.7163 -7.74436 -29.0388
vn -0.90938 -0.211212 0.358353
v 5.74743 -7.75571 -28.9762
vn -0.866253 -0.226938 0.44509
v 5.7846 -7.76549 -28.9167
vn -0.814783 -0.240479 0.52754
v 5.82742 -7.77359 -28.8608
vn -0.755466 -0.251705 0.60491
v 5.8755 -7.77995 -28.8091
vn -0.688874 -0.260506 0.676454
v 5.92838 -7.78449 -28.7622
vn -0.615647 -0.266798 0.741483
v 5.98553 -7.78718 -28.7204
vn -0.536492 -0.27052 0.799372
v 6.38127 -10.0607 -29.3031
vn -0.445779 -0.315361 0.837752
v 6.44483 -10.0595 -29.2729
vn -0.357133 -0.313652 0.879817
v 6.51087 -10.0561 -29.2488
vn -0.265048 -0.308923 0.913409
v 6.57873 -10.0505 -29.231
vn -0.170409 -0.301218 0.938205
v 6.64777 -10.0429 -29.2197
vn -0.0741303 -0.290612 0.953965
v 6.71733 -10.0333 -29.215
vn 0.0228629 -0.277208 0.960538
v 6.78672 -10.0218 -29.2169
vn 0.119636 -0.261134 0.95786
v 6.85529 -10.0085 -29.2255
vn 0.215257 -0.242545 0.945958
v 6.92237 -9.99346 -29.2405
vn 0.308804 -0.22162 0.924946
v 6.98732 -9.97692 -29.262
vn 0.399378 -0.198561 0.895026
v 7.04951 -9.95901 -29.2896
vn 0.486106 -0.17359 0.856486
v 7.10835 -9.93991 -29.3232
vn 0.568152 -0.146946 0.809698
v 7.16326 -9.91979 -29.3623
vn 0.644726 -0.118888 0.755112
v 7.21372 -9.89885 -29.4067
vn 0.715092 -0.0896848 0.693254
v 7.25924 -9.87728 -29.4558
vn 0.77857 -0.0596179 0.624719
v 7.29938 -9.85531 -29.5093
vn 0.834551 -0.0289767 0.550168
v 7.33376 -9.83314 -29.5666
vn 0.882494 0.00194346 0.470319
v 7.36205 -9.81098 -29.6271
vn 0.921939 0.0328449 0.38594
v 7.38397 -9.78905 -29.6902
vn 0.952505 0.0634301 0.297845
v 7.39931 -9.76755 -29.7555
vn 0.973897 0.0934044 0.206881
v 7.40792 -9.7467 -29.8221
vn 0.985911 0.122479 0.113924
v 7.40973 -9.7267 -29.8896
vn 0.988429 0.150374 0.0198708
v 7.40471 -9.70774 -29.9572
vn 0.981429 0.176821 -0.0743741
v 7.39291 -9.68999 -30.0242
vn 0.964977 0.201565 -0.167903
v 7.37445 -9.67364 -30.0901
vn 0.939231 0.224368 -0.259814
v 7.3495 -9.65884 -30.1542
vn 0.90444 0.245011 -0.349224
v 7.31831 -9.64573 -30.216
vn 0.860939 0.263293 -0.43527
v 7.28117 -9.63444 -30.2746
vn 0.809147 0.27904 -0.517124
v 7.23844 -9.62507 -30.3298
vn 0.749562 0.2921 -0.593999
v 7.19053 -9.61772 -30.3808
vn 0.682759 0.302346 -0.665152
v 7.13791 -9.61246 -30.4272
vn 0.60938 0.309681 -0.7299
v 7.08109 -9.60934 -30.4686
vn 0.530132 0.314033 -0.787618
v 7.0206 -9.60839 -30.5046
vn 0.445779 0.315361 -0.837752
v 6.95703 -9.60961 -30.5347
vn 0.357133 0.313652 -0.879817
v 6.891 -9.61301 -30.5588
vn 0.265048 0.308923 -0.913409
v 6.82313 -9.61853 -30.5766
vn 0.170409 0.301218 -0.938205
v 6.75409 -9.62614 -30.5879
vn 0.0741303 0.290612 -0.953965
v 6.68454 -9.63575 -30.5926
vn -0.0228629 0.277208 -0.960538
v 6.61514 -9.64728 -30.5907
vn -0.119636 0.261134 -0.95786
v 6.54657 -9.66061 -30.5822
vn -0.215257 0.242545 -0.945958
v 6.47949 -9.67561 -30.5671
vn -0.308804 0.22162 -0.924946
v 6.41454 -9.69215 -30.5456
vn -0.399378 0.198561 -0.895026
v 6.35235 -9.71005 -30.518
vn -0.486106 0.17359 -0.856486
v 6.29351 -9.72916 -30.4845
vn -0.568152 0.146946 -0.809698
v 6.2386 -9.74928 -30.4453
vn -0.644726 0.118888 -0.755112
v 6.18814 -9.77022 -30.4009
vn -0.715092 0.0896848 -0.693254
v 6.14262 -9.79178 -30.3518
vn -0.77857 0.0596179 -0.624719
v 6.10248 -9.81375 -30.2983
vn -0.834551 0.0289767 -0.550168
v 6.0681 -9.83593 -30.2411
vn -0.882494 -0.00194346 -0.470319
v 6.03981 -9.85809 -30.1806
vn -0.921939 -0.0328449 -0.38594
v 6.0179 -9.88002 -30.1174
vn -0.952505 -0.0634301 -0.297845
v 6.00256 -9.90151 -30.0522
vn -0.973897 -0.0934044 -0.206881
v 5.99394 -9.92236 -29.9855
vn -0.985911 -0.122479 -0.113924
v 5.99213 -9.94237 -29.9181
vn -0.988429 -0.150374 -0.0198708
v 5.99715 -9.96133 -29.8505
vn -0.981429 -0.176821 0.0743741
v 6.00895 -9.97907 -29.7834
vn -0.964977 -0.201565 0.167903
v 6.02741 -9.99543 -29.7175
vn -0.939231 -0.224368 0.259814
v 6.05236 -10.0102 -29.6534
vn -0.90444 -0.245011 0.349224
v 6.08356 -10.0233 -29.5917
vn -0.860939 -0.263293 0.43527
v 6.1207 -10.0346 -29.533
vn -0.809147 -0.27904 0.517124
v 6.16342 -10.044 -29.4779
vn -0.749562 -0.2921 0.593999
v 6.21133 -10.0513 -29.4268
vn -0.682759 -0.302346 0.665152
v 6.26395 -10.0566 -29.3804
vn -0.60938 -0.309681 0.7299
v 6.32078 -10.0597 -29.339
vn -0.530132 -0.314033 0.787618
f 1 66 2 
f 1 65 66 
f 2 67 3 
f 2 66 67 
f 3 68 4 
f 3 67 68 
f 4 69 5 
f 4 68 69 
f 5 70 6 
f 5 69 70 
f 6 71 7 
f 6 70 71 
f 7 72 8 
f 7 71 72 
f 8 73 9 
f 8 72 73 
f 9 74 10 
f 9 73 74 
f 10 75 11 
f 10 74 75 
f 11 76 12 
f 11 75 76 
f 12 77 13 
f 12 76 77 
f 13 78 14 
f 13 77 78 
f 14 79 15 
f 14 78 79 
f 15 80 16 
f 15 79 80 
f 16 81 17 
f 16 80 81 
f 17 82 18 
f 17 81 82 
f 18 83 19 
f 18 82 83 
f 19 84 20 
f 19 83 84 
f 20 85 21 
f 20 84 85 
f 21 86 22 
f 21 85 86 
f 22 87 23 
f 22 86 87 
f 23 88 24 
f 23 87 88 
f 24 89 25 
f 24 88 89 
f 25 90 26 
f 25 89 90 
f 26 91 27 
f 26 90 91 
f 27 92 28 
f 27 91 92 
f 28 93 29 
f 28 92 93 
f 29 94 30 
f 29 93 94 
f 30 95 31 
f 30 94 95 
f 31 96 32 
f 31 95 96 
f 32 97 33 
f 32 96 97 
f 33 98 34 
f 33 97 98 
f 34 99 35 
f 34 98 99 
f 35 100 36 
f 35 99 100 
f 36 101 37 
f 36 100 101 
f 37 102 38 
f 37 101 102 
f 38 103 39 
f 38 102 103 
f 39 104 40 
f 39 103 104 
f 40 105 41 
f 40 104 105 
f 41 106 42 
f 41 105 106 
f 42 107 43 
f 42 106 107 
f 43 108 44 
f 43 107 108 
f 44 109 45 
f 44 108 109 
f 45 110 46 
f 45 109 110 
f 46 111 47 
f 46 110 111 
f 47 112 48 
f 47 111 112 
f 48 113 49 
f 48 112 113 
f 49 114 50 
f 49 113 114 
f 50 115 51 
f 50 114 115 
f 51 116 52 
f 51 115 116 
f 52 117 53 
f 52 116 117 
f 53 118 54 
f 53 117 118 
f 54 119 55 
f 54 118 119 
f 55 120 56 
f 55 119 120 
f 56 121 57 
f 56 120 121 
f 57 122 58 
f 57 121 122 
f 58 123 59 
f 58 122 123 
f 59 124 60 
f 59 123 124 
f 60 125 61 
f 60 124 125 
f 61 126 62 
f 61 125 126 
f 62 127 63 
f 62 126 127 
f 63 128 64 
f 63 127 128 
f 64 65 1 
f 64 128 65 
f 65 130 66 
f 65 129 130 
f 66 131 67 
f 66 130 131 
f 67 132 68 
f 67 131 132 
f 68 133 69 
f 68 132 133 
f 69 134 70 
f 69 133 134 
f 70 135 71 
f 70 134 135 
f 71 136 72 
f 71 135 136 
f 72 137 73 
f 72 136 137 
f 73 138 74 
f 73 137 138 
f 74 139 75 
f 74 138 139 
f 75 140 76 
f 75 139 140 
f 76 141 77 
f 76 140 141 
f 77 142 78 
f 77 141 142 
f 78 143 79 
f 78 142 143 
f 79 144 80 
f 79 143 144 
f 80 145 81 
f 80 144 145 
f 81 146 82 
f 81 145 146 
f 82 147 83 
f 82 146 147 
f 83 148 84 
f 83 147 148 
f 84 149 85 
f 84 148 149 
f 85 150 86 
f 85 149 150 
f 86 151 87 
f 86 150 151 
f 87 152 88 
f 87 151 152 
f 88 153 89 
f 88 152 153 
f 89 154 90 
f 89 153 154 
f 90 155 91 
f 90 154 155 
f 91 156 92 
f 91 155 156 
f 92 157 93 
f 92 156 157 
f 93 158 94 
f 93 157 158 
f 94 159 95 
f 94 158 159 
f 95 160 96 
f 95 159 160 
f 96 161 97 
f 96 160 161 
f 97 162 98 
f 97 161 162 
f 98 163 99 
f 98 162 163 
f 99 164 100 
f 99 163 164 
f 100 165 101 
f 100 164 165 
f 101 166 102 
f 101 165 166 
f 102 167 103 
f 102 166 167 
f 103 168 104 
f 103 167 168 
f 104 169 105 
f 104 168 169 
f 105 170 106 
f 105 169 170 
f 106 171 107 
f 106 170 171 
f 107 172 108 
f 107 171 172 
f 108 173 109 
f 108 172 173 
f 109 174 110 
f 109 173 174 
f 110 175 111 
f 110 174 175 
f 111 176 112 
f 111 175 176 
f 112 177 113 
f 112 176 177 
f 113 178 114 
f 113 177 178 
f 114 179 115 
f 114 178 179 
f 115 180 116 
f 115 179 180 
f 116 181 117 
f 116 180 181 
f 117 182 118 
f 117 181 182 
f 118 183 119 
f 118 182 183 
f 119 184 120 
f 119 183 184 
f 120 185 121 
f 120 184 185 
f 121 186 122 
f 121 185 186 
f 122 187 123 
f 122 186 187 
f 123 188 124 
f 123 187 188 
f 124 189 125 
f 124 188 189 
f 125 190 126 
f 125 189 190 
f 126 191 127 
f 126 190 191 
f 127 192 128 
f 127 191 192 
f 128 129 65 
f 128 192 129 
f 129 194 130 
f 129 193 194 
f 130 195 131 
f 130 194 195 
f 131 196 132 
f 131 195 196 
f 132 197 133 
f 132 196 197 
f 133 198 134 
f 133 197 198 
f 134 199 135 
f 134 198 199 
f 135 200 136 
f 135 199 200 
f 136 201 137 
f 136 200 201 
f 137 202 138 
f 137 201 202 
f 138 203 139 
f 138 202 203 
f 139 204 140 
f 139 203 204 
f 140 205 141 
f 140 204 205 
f 141 206 142 
f 141 205 206 
f 142 207 143 
f 142 206 207 
f 143 208 144 
f 143 207 208 
f 144 209 145 
f 144 208 209 
f 145 210 146 
f 145 209 210 
f 146 211 147 
f 146 210 211 
f 147 212 148 
f 147 211 212 
f 148 213 149 
f 148 212 213 
f 149 214 150 
f 149 213 214 
f 150 215 151 
f 150 214 215 
f 151 216 152 
f 151 215 216 
f 152 217 153 
f 152 216 217 
f 153 218 154 
f 153 217 218 
f 154 219 155 
f 154 218 219 
f 155 220 156 
f 155 219 220 
f 156 221 157 
f 156 220 221 
f 157 222 158 
f 157 221 222 
f 158 223 159 
f 158 222 223 
f 159 224 160 
f 159 223 224 
f 160 225 161 
f 160 224 225 
f 161 226 162 
f 161 225 226 
f 162 227 163 
f 162 226 227 
f 163 228 164 
f 163 227 228 
f 164 229 165 
f 164 228 229 
f 165 230 166 
f 165 229 230 
f 166 231 167 
f 166 230 231 
f 167 232 168 
f 167 231 232 
f 168 233 169 
f 168 232 233 
f 169 234 170 
f 169 233 234 
f 170 235 171 
f 170 234 235 
f 171 236 172 
f 171 235 236 
f 172 237 173 
f 172 236 237 
f 173 238 174 
f 173 237 238 
f 174 239 175 
f 174 238 239 
f 175 240 176 
f 175 239 240 
f 176 241 177 
f 176 240 241 
f 177 242 178 
f 177 241 242 
f 178 243 179 
f 178 242 243 
f 179 244 180 
f 179 243 244 
f 180 245 181 
f 180 244 245 
f 181 246 182 
f 181 245 246 
f 182 247 183 
f 182 246 247 
f 183 248 184 
f 183 247 248 
f 184 249 185 
f 184 248 249 
f 185 250 186 
f 185 249 250 
f 186 251 187 
f 186 250 251 
f 187 252 188 
f 187 251 252 
f 188 253 189 
f 188 252 253 
f 189 254 190 
f 189 253 254 
f 190 255 191 
f 190 254 255 
f 191 256 192 
f 191 255 256 
f 192 193 129 
f 192 256 193 
f 193 258 194 
f 193 257 258 
f 194 259 195 
f 194 258 259 
f 195 260 196 
f 195 259 260 
f 196 261 197 
f 196 260 261 
f 197 262 198 
f 197 261 262 
f 198 263 199 
f 198 262 263 
f 199 264 200 
f 199 263 264 
f 200 265 201 
f 200 264 265 
f 201 266 202 
f 201 265 266 
f 202 267 203 
f 202 266 267 
f 203 268 204 
f 203 267 268 
f 204 269 205 
f 204 268 269 
f 205 270 206 
f 205 269 270 
f 206 271 207 
f 206 270 271 
f 207 272 208 
f 207 271 272 
f 208 273 209 
f 208 272 273 
f 209 274 210 
f 209 273 274 
f 210 275 211 
f 210 274 275 
f 211 276 212 
f 211 275 276 
f 212 277 213 
f 212 276 277 
f 213 278 214 
f 213 277 278 
f 214 279 215 
f 214 278 279 
f 215 280 216 
f 215 279 280 
f 216 281 217 
f 216 280 281 
f 217 282 218 
f 217 281 282 
f 218 283 219 
f 218 282 283 
f 219 284 220 
f 219 283 284 
f 220 285 221 
f 220 284 285 
f 221 286 222 
f 221 285 286 
f 222 287 223 
f 222 286 287 
f 223 288 224 
f 223 287 288 
f 224 289 225 
f 224 288 289 
f 225 290 226 
f 225 289 290 
f 226 291 227 
f 226 290 291 
f 227 292 228 
f 227 291 292 
f 228 293 229 
f 228 292 293 
f 229 294 230 
f 229 293 294 
f 230 295 231 
f 230 294 295 
f 231 296 232 
f 231 295 296 
f 232 297 233 
f 232 296 297 
f 233 298 234 
f 233 297 298 
f 234 299 235 
f 234 298 299 
f 235 300 236 
f 235 299 300 
f 236 301 237 
f 236 300 301 
f 237 302 238 
f 237 301 302 
f 238 303 239 
f 238 302 303 
f 239 304 240 
f 239 303 304 
f 240 305 241 
f 240 304 305 
f 241 306 242 
f 241 305 306 
f 242 307 243 
f 242 306 307 
f 243 308 244 
f 243 307 308 
f 244 309 245 
f 244 308 309 
f 245 310 246 
f 245 309 310 
f 246 311 247 
f 246 310 311 
f 247 312 248 
f 247 311 312 
f 248 313 249 
f 248 312 313 
f 249 314 250 
f 249 313 314 
f 250 315 251 
f 250 314 315 
f 251 316 252 
f 251 315 316 
f 252 317 253 
f 252 316 317 
f 253 318 254 
f 253 317 318 
f 254 319 255 
f 254 318 319 
f 255 320 256 
f 255 319 320 
f 256 257 193 
f 256 320 257 
f 257 322 258 
f 257 321 322 
f 258 323 259 
f 258 322 323 
f 259 324 260 
f 259 323 324 
f 260 325 261 
f 260 324 325 
f 261 326 262 
f 261 325 326 
f 262 327 263 
f 262 326 327 
f 263 328 264 
f 263 327 328 
f 264 329 265 
f 264 328 329 
f 265 330 266 
f 265 329 330 
f 266 331 267 
f 266 330 331 
f 267 332 268 
f 267 331 332 
f 268 333 269 
f 268 332 333 
f 269 334 270 
f 269 333 334 
f 270 335 271 
f 270 334 335 
f 271 336 272 
f 271 335 336 
f 272 337 273 
f 272 336 337 
f 273 338 274 
f 273 337 338 
f 274 339 275 
f 274 338 339 
f 275 340 276 
f 275 339 340 
f 276 341 277 
f 276 340 341 
f 277 342 278 
f 277 341 342 
f 278 343 279 
f 278 342 343 
f 279 344 280 
f 279 343 344 
f 280 345 281 
f 280 344 345 
f 281 346 282 
f 281 345 346 
f 282 347 283 
f 282 346 347 
f 283 348 284 
f 283 347 348 
f 284 349 285 
f 284 348 349 
f 285 350 286 
f 285 349 350 
f 286 351 287 
f 286 350 351 
f 287 352 288 
f 287 351 352 
f 288 353 289 
f 288 352 353 
f 289 354 290 
f 289 353 354 
f 290 355 291 
f 290 354 355 
f 291 356 292 
f 291 355 356 
f 292 357 293 
f 292 356 357 
f 293 358 294 
f 293 357 358 
f 294 359 295 
f 294 358 359 
f 295 360 296 
f 295 359 360 
f 296 361 297 
f 296 360 361 
f 297 362 298 
f 297 361 362 
f 298 363 299 
f 298 362 363 
f 299 364 300 
f 299 363 364 
f 300 365 301 
f 300 364 365 
f 301 366 302 
f 301 365 366 
f 302 367 303 
f 302 366 367 
f 303 368 304 
f 303 367 368 
f 304 369 305 
f 304 368 369 
f 305 370 306 
f 305 369 370 
f 306 371 307 
f 306 370 371 
f 307 372 308 
f 307 371 372 
f 308 373 309 
f 308 372 373 
f 309 374 310 
f 309 373 374 
f 310 375 311 
f 310 374 375 
f 311 376 312 
f 311 375 376 
f 312 377 313 
f 312 376 377 
f 313 378 314 
f 313 377 378 
f 314 379 315 
f 314 378 379 
f 315 380 316 
f 315 379 380 
f 316 381 317 
f 316 380 381 
f 317 382 318 
f 317 381 382 
f 318 383 319 
f 318 382 383 
f 319 384 320 
f 319 383 384 
f 320 321 257 
f 320 384 321 
f 321 386 322 
f 321 385 386 
f 322 387 323 
f 322 386 387 
f 323 388 324 
f 323 387 388 
f 324 389 325 
f 324 388 389 
f 325 390 326 
f 325 389 390 
f 326 391 327 
f 326 390 391 
f 327 392 328 
f 327 391 392 
f 328 393 329 
f 328 392 393 
f 329 394 330 
f 329 393 394 
f 330 395 331 
f 330 394 395 
f 331 396 332 
f 331 395 396 
f 332 397 333 
f 332 396 397 
f 333 398 334 
f 333 397 398 
f 334 399 335 
f 334 398 399 
f 335 400 336 
f 335 399 400 
f 336 401 337 
f 336 400 401 
f 337 402 338 
f 337 401 402 
f 338 403 339 
f 338 402 403 
f 339 404 340 
f 339 403 404 
f 340 405 341 
f 340 404 405 
f 341 406 342 
f 341 405 406 
f 342 407 343 
f 342 406 407 
f 343 408 344 
f 343 407 408 
f 344 409 345 
f 344 408 409 
f 345 410 346 
f 345 409 410 
f 346 411 347 
f 346 410 411 
f 347 412 348 
f 347 411 412 
f 348 413 349 
f 348 412 413 
f 349 414 350 
f 349 413 414 
f 350 415 351 
f 350 414 415 
f 351 416 352 
f 351 415 416 
f 352 417 353 
f 352 416 417 
f 353 418 354 
f 353 417 418 
f 354 419 355 
f 354 418 419 
f 355 420 356 
f 355 419 420 
f 356 421 357 
f 356 420 421 
f 357 422 358 
f 357 421 422 
f 358 423 359 
f 358 422 423 
f 359 424 360 
f 359 423 424 
f 360 425 361 
f 360 424 425 
f 361 426 362 
f 361 425 426 
f 362 427 363 
f 362 426 427 
f 363 428 364 
f 363 427 428 
f 364 429 365 
f 364 428 429 
f 365 430 366 
f 365 429 430 
f 366 431 367 
f 366 430 431 
f 367 432 368 
f 367 431 432 
f 368 433 369 
f 368 432 433 
f 369 434 370 
f 369 433 434 
f 370 435 371 
f 370 434 435 
f 371 436 372 
f 371 435 436 
f 372 437 373 
f 372 436 437 
f 373 438 374 
f 373 437 438 
f 374 439 375 
f 374 438 439 
f 375 440 376 
f 375 439 440 
f 376 441 377 
f 376 440 441 
f 377 442 378 
f 377 441 442 
f 378 443 379 
f 378 442 443 
f 379 444 380 
f 379 443 444 
f 380 445 381 
f 380 444 445 
f 381 446 382 
f 381 445 446 
f 382 447 383 
f 382 446 447 
f 383 448 384 
f 383 447 448 
f 384 385 321 
f 384 448 385 
f 385 450 386 
f 385 449 450 
f 386 451 387 
f 386 450 451 
f 387 452 388 
f 387 451 452 
f 388 453 389 
f 388 452 453 
f 389 454 390 
f 389 453 454 
f 390 455 391 
f 390 454 455 
f 391 456 392 
f 391 455 456 
f 392 457 393 
f 392 456 457 
f 393 458 394 
f 393 457 458 
f 394 459 395 
f 394 458 459 
f 395 460 396 
f 395 459 460 
f 396 461 397 
f 396 460 461 
f 397 462 398 
f 397 461 462 
f 398 463 399 
f 398 462 463 
f 399 464 400 
f 399 463 464 
f 400 465 401 
f 400 464 465 
f 401 466 402 
f 401 465 466 
f 402 467 403 
f 402 466 467 
f 403 468 404 
f 403 467 468 
f 404 469 405 
f 404 468 469 
f 405 470 406 
f 405 469 470 
f 406 471 407 
f 406 470 471 
f 407 472 408 
f 407 471 472 
f 408 473 409 
f 408 472 473 
f 409 474 410 
f 409 473 474 
f 410 475 411 
f 410 474 475 
f 411 476 412 
f 411 475 476 
f 412 477 413 
f 412 476 477 
f 413 478 414 
f 413 477 478 
f 414 479 415 
f 414 478 479 
f 415 480 416 
f 415 479 480 
f 416 481 417 
f 416 480 481 
f 417 482 418 
f 417 481 482 
f 418 483 419 
f 418 482 483 
f 419 484 420 
f 419 483 484 
f 420 485 421 
f 420 484 485 
f 421 486 422 
f 421 485 486 
f 422 487 423 
f 422 486 487 
f 423 488 424 
f 423 487 488 
f 424 489 425 
f 424 488 489 
f 425 490 426 
f 425 489 490 
f 426 491 427 
f 426 490 491 
f 427 492 428 
f 427 491 492 
f 428 493 429 
f 428 492 493 
f 429 494 430 
f 429 493 494 
f 430 495 431 
f 430 494 495 
f 431 496 432 
f 431 495 496 
f 432 497 433 
f 432 496 497 
f 433 498 434 
f 433 497 498 
f 434 499 435 
f 434 498 499 
f 435 500 436 
f 435 499 500 
f 436 501 437 
f 436 500 501 
f 437 502 438 
f 437 501 502 
f 438 503 439 
f 438 502 503 
f 439 504 440 
f 439 503 504 
f 440 505 441 
f 440 504 505 
f 441 506 442 
f 441 505 506 
f 442 507 443 
f 442 506 507 
f 443 508 444 
f 443 507 508 
f 444 509 445 
f 444 508 509 
f 445 510 446 
f 445 509 510 
f 446 511 447 
f 446 510 511 
f 447 512 448 
f 447 511 512 
f 448 449 385 
f 448 512 449 
f 449 514 450 
f 449 513 514 
f 450 515 451 
f 450 514 515 
f 451 516 452 
f 451 515 516 
f 452 517 453 
f 452 516 517 
f 453 518 454 
f 453 517 518 
f 454 519 455 
f 454 518 519 
f 455 520 456 
f 455 519 520 
f 456 521 457 
f 456 520 521 
f 457 522 458 
f 457 521 522 
f 458 523 459 
f 458 522 523 
f 459 524 460 
f 459 523 524 
f 460 525 461 
f 460 524 525 
f 461 526 462 
f 461 525 526 
f 462 527 463 
f 462 526 527 
f 463 528 464 
f 463 527 528 
f 464 529 465 
f 464 528 529 
f 465 530 466 
f 465 529 530 
f 466 531 467 
f 466 530 531 
f 467 532 468 
f 467 531 532 
f 468 533 469 
f 468 532 533 
f 469 534 470 
f 469 533 534 
f 470 535 471 
f 470 534 535 
f 471 536 472 
f 471 535 536 
f 472 537 473 
f 472 536 537 
f 473 538 474 
f 473 537 538 
f 474 539 475 
f 474 538 539 
f 475 540 476 
f 475 539 540 
f 476 541 477 
f 476 540 541 
f 477 542 478 
f 477 541 542 
f 478 543 479 
f 478 542 543 
f 479 544 480 
f 479 543 544 
f 480 545 481 
f 480 544 545 
f 481 546 482 
f 481 545 546 
f 482 547 483 
f 482 546 547 
f 483 548 484 
f 483 547 548 
f 484 549 485 
f 484 548 549 
f 485 550 486 
f 485 549 550 
f 486 551 487 
f 486 550 551 
f 487 552 488 
f 487 551 552 
f 488 553 489 
f 488 552 553 
f 489 554 490 
f 489 553 554 
f 490 555 491 
f 490 554 555 
f 491 556 492 
f 491 555 556 
f 492 557 493 
f 492 556 557 
f 493 558 494 
f 493 557 558 
f 494 559 495 
f 494 558 559 
f 495 560 496 
f 495 559 560 
f 496 561 497 
f 496 560 561 
f 497 562 498 
f 497 561 562 
f 498 563 499 
f 498 562 563 
f 499 564 500 
f 499 563 564 
f 500 565 501 
f 500 564 565 
f 501 566 502 
f 501 565 566 
f 502 567 503 
f 502 566 567 
f 503 568 504 
f 503 567 568 
f 504 569 505 
f 504 568 569 
f 505 570 506 
f 505 569 570 
f 506 571 507 
f 506 570 571 
f 507 572 508 
f 507 571 572 
f 508 573 509 
f 508 572 573 
f 509 574 510 
f 509 573 574 
f 510 575 511 
f 510 574 575 
f 511 576 512 
f 511 575 576 
f 512 513 449 
f 512 576 513 
f 513 578 514 
f 513 577 578 
f 514 579 515 
f 514 578 579 
f 515 580 516 
f 515 579 580 
f 516 581 517 
f 516 580 581 
f 517 582 518 
f 517 581 582 
f 518 583 519 
f 518 582 583 
f 519 584 520 
f 519 583 584 
f 520 585 521 
f 520 584 585 
f 521 586 522 
f 521 585 586 
f 522 587 523 
f 522 586 587 
f 523 588 524 
f 523 587 588 
f 524 589 525 
f 524 588 589 
f 525 590 526 
f 525 589 590 
f 526 591 527 
f 526 590 591 
f 527 592 528 
f 527 591 592 
f 528 593 529 
f 528 592 593 
f 529 594 530 
f 529 593 594 
f 530 595 531 
f 530 594 595 
f 531 596 532 
f 531 595 596 
f 532 597 533 
f 532 596 597 
f 533 598 534 
f 533 597 598 
f 534 599 535 
f 534 598 599 
f 535 600 536 
f 535 599 600 
f 536 601 537 
f 536 600 601 
f 537 602 538 
f 537 601 602 
f 538 603 539 
f 538 602 603 
f 539 604 540 
f 539 603 604 
f 540 605 541 
f 540 604 605 
f 541 606 542 
f 541 605 606 
f 542 607 543 
f 542 606 607 
f 543 608 544 
f 543 607 608 
f 544 609 545 
f 544 608 609 
f 545 610 546 
f 545 609 610 
f 546 611 547 
f 546 610 611 
f 547 612 548 
f 547 611 612 
f 548 613 549 
f 548 612 613 
f 549 614 550 
f 549 613 614 
f 550 615 551 
f 550 614 615 
f 551 616 552 
f 551 615 616 
f 552 617 553 
f 552 616 617 
f 553 618 554 
f 553 617 618 
f 554 619 555 
f 554 618 619 
f 555 620 556 
f 555 619 620 
f 556 621 557 
f 556 620 621 
f 557 622 558 
f 557 621 622 
f 558 623 559 
f 558 622 623 
f 559 624 560 
f 559 623 624 
f 560 625 561 
f 560 624 625 
f 561 626 562 
f 561 625 626 
f 562 627 563 
f 562 626 627 
f 563 628 564 
f 563 627 628 
f 564 629 565 
f 564 628 629 
f 565 630 566 
f 565 629 630 
f 566 631 567 
f 566 630 631 
f 567 632 568 
f 567 631 632 
f 568 633 569 
f 568 632 633 
f 569 634 570 
f 569 633 634 
f 570 635 571 
f 570 634 635 
f 571 636 572 
f 571 635 636 
f 572 637 573 
f 572 636 637 
f 573 638 574 
f 573 637 638 
f 574 639 575 
f 574 638 639 
f 575 640 576 
f 575 639 640 
f 576 577 513 
f 576 640 577 
