# Branch
v 1.39739 6.84113 -27.5749
vn -0.0386641 -0.322732 0.9457
v 1.40862 6.84514 -27.5737
vn 0.0532672 -0.289847 0.955589
v 1.41978 6.8495 -27.5736
vn 0.144686 -0.254172 0.956276
v 1.43078 6.85416 -27.5746
vn 0.234711 -0.216048 0.947752
v 1.4415 6.85907 -27.5768
vn 0.322475 -0.175844 0.930101
v 1.45183 6.86418 -27.58
vn 0.407134 -0.133946 0.903493
v 1.46169 6.86946 -27.5844
vn 0.487872 -0.0907584 0.868184
v 1.47098 6.87484 -27.5897
vn 0.563912 -0.0466966 0.824514
v 1.4796 6.88027 -27.596
vn 0.63452 -0.0021852 0.772903
v 1.48748 6.88571 -27.6032
vn 0.699018 0.0423473 0.713849
v 1.49453 6.8911 -27.6113
vn 0.756784 0.086472 0.64792
v 1.5007 6.89639 -27.6201
vn 0.807262 0.129764 0.575751
v 1.50591 6.90152 -27.6296
vn 0.849966 0.171806 0.498037
v 1.51013 6.90645 -27.6396
vn 0.884484 0.212194 0.415527
v 1.5133 6.91113 -27.6502
vn 0.910483 0.250538 0.329015
v 1.51541 6.91552 -27.6612
vn 0.927715 0.286469 0.239335
v 1.51642 6.91957 -27.6724
vn 0.936012 0.319641 0.147349
v 1.51633 6.92325 -27.6838
vn 0.935294 0.349735 0.0539451
v 1.51514 6.92651 -27.6953
vn 0.925569 0.376461 -0.0399788
v 1.51287 6.92933 -27.7067
vn 0.906931 0.399562 -0.133518
v 1.50953 6.93168 -27.718
vn 0.879558 0.418814 -0.225771
v 1.50515 6.93354 -27.729
vn 0.843715 0.434033 -0.315849
v 1.49978 6.93489 -27.7396
vn 0.799746 0.445072 -0.402886
v 1.49347 6.93572 -27.7497
vn 0.748075 0.451825 -0.486043
v 1.48628 6.93601 -27.7593
vn 0.6892 0.454226 -0.564519
v 1.47828 6.93577 -27.7682
vn 0.623687 0.452253 -0.637559
v 1.46955 6.935 -27.7764
vn 0.552168 0.445925 -0.704458
v 1.46016 6.9337 -27.7838
vn 0.475331 0.435302 -0.764573
v 1.45022 6.93189 -27.7902
vn 0.393917 0.420487 -0.817325
v 1.43981 6.92959 -27.7957
vn 0.308709 0.401622 -0.862206
v 1.42905 6.92681 -27.8001
vn 0.220528 0.378889 -0.898783
v 1.41802 6.92359 -27.8035
vn 0.130223 0.352508 -0.926704
v 1.40684 6.91995 -27.8059
vn 0.0386641 0.322732 -0.9457
v 1.39561 6.91594 -27.8071
vn -0.0532672 0.289847 -0.955589
v 1.38445 6.91158 -27.8072
vn -0.144686 0.254172 -0.956276
v 1.37345 6.90692 -27.8061
vn -0.234711 0.216048 -0.947752
v 1.36274 6.90201 -27.804
vn -0.322475 0.175844 -0.930101
v 1.3524 6.8969 -27.8007
vn -0.407134 0.133946 -0.903493
v 1.34254 6.89162 -27.7964
vn -0.487872 0.0907584 -0.868184
v 1.33325 6.88624 -27.7911
vn -0.563912 0.0466966 -0.824514
v 1.32463 6.88081 -27.7848
vn -0.63452 0.0021852 -0.772903
v 1.31675 6.87537 -27.7776
vn -0.699018 -0.0423473 -0.713849
v 1.3097 6.86998 -27.7695
vn -0.756784 -0.086472 -0.64792
v 1.30353 6.86469 -27.7607
vn -0.807262 -0.129764 -0.575751
v 1.29832 6.85956 -27.7512
vn -0.849966 -0.171806 -0.498037
v 1.2941 6.85463 -27.7411
vn -0.884484 -0.212194 -0.415527
v 1.29093 6.84994 -27.7306
vn -0.910483 -0.250538 -0.329015
v 1.28882 6.84556 -27.7196
vn -0.927715 -0.286469 -0.239335
v 1.28781 6.84151 -27.7084
vn -0.936012 -0.319641 -0.147349
v 1.2879 6.83783 -27.697
vn -0.935294 -0.349735 -0.0539451
v 1.28909 6.83457 -27.6855
vn -0.925569 -0.376461 0.0399788
v 1.29136 6.83175 -27.6741
vn -0.906931 -0.399562 0.133518
v 1.29471 6.82939 -27.6628
vn -0.879558 -0.418814 0.225771
v 1.29908 6.82754 -27.6518
vn -0.843715 -0.434033 0.315849
v 1.30445 6.82619 -27.6412
vn -0.799746 -0.445072 0.402886
v 1.31076 6.82536 -27.631
vn -0.748075 -0.451825 0.486043
v 1.31795 6.82507 -27.6214
vn -0.6892 -0.454226 0.564519
v 1.32595 6.82531 -27.6125
vn -0.623687 -0.452253 0.637559
v 1.33469 6.82608 -27.6044
vn -0.552168 -0.445925 0.704458
v 1.34407 6.82738 -27.597
vn -0.475331 -0.435302 0.764573
v 1.35401 6.82919 -27.5906
vn -0.393917 -0.420487 0.817325
v 1.36442 6.83149 -27.5851
vn -0.308709 -0.401622 0.862206
v 1.37519 6.83427 -27.5806
vn -0.220528 -0.378889 0.898783
v 1.38621 6.83749 -27.5772
vn -0.130223 -0.352508 0.926704
v 1.91122 5.53959 -28.0155
vn -0.0321068 -0.339357 0.94011
v 1.92221 5.54354 -28.0143
vn 0.059793 -0.306392 0.950026
v 1.93313 5.54783 -28.0142
vn 0.151117 -0.270477 0.950792
v 1.94388 5.55244 -28.0152
vn 0.240986 -0.231957 0.942402
v 1.95436 5.55731 -28.0173
vn 0.328533 -0.191203 0.924936
v 1.96445 5.56241 -28.0205
vn 0.412917 -0.148608 0.898563
v 1.97407 5.56767 -28.0247
vn 0.493324 -0.104581 0.863536
v 1.98312 5.57306 -28.0298
vn 0.568981 -0.0595478 0.820192
v 1.99151 5.57852 -28.036
vn 0.639157 -0.0139407 0.76895
v 1.99917 5.58399 -28.043
vn 0.703178 0.0318006 0.710302
v 2.00601 5.58942 -28.0508
vn 0.760428 0.0772357 0.644814
v 2.01199 5.59477 -28.0594
vn 0.810353 0.121927 0.573115
v 2.01702 5.59997 -28.0686
vn 0.852475 0.165444 0.495898
v 2.02108 5.60499 -28.0784
vn 0.886387 0.207368 0.413904
v 2.02412 5.60976 -28.0887
vn 0.911763 0.247294 0.327925
v 2.0261 5.61425 -28.0994
vn 0.928357 0.284839 0.238787
v 2.02702 5.61842 -28.1103
vn 0.936012 0.319641 0.147349
v 2.02685 5.62221 -28.1214
vn 0.934651 0.351365 0.0544931
v 2.02561 5.6256 -28.1326
vn 0.92429 0.379705 -0.0388881
v 2.02331 5.62855 -28.1437
vn 0.905027 0.404388 -0.131895
v 2.01996 5.63104 -28.1547
vn 0.877049 0.425176 -0.223631
v 2.01561 5.63304 -28.1654
vn 0.840623 0.44187 -0.313214
v 2.01028 5.63452 -28.1758
vn 0.796103 0.454308 -0.39978
v 2.00404 5.63549 -28.1857
vn 0.743915 0.462372 -0.482497
v 1.99694 5.63592 -28.195
vn 0.684563 0.465982 -0.560566
v 1.98905 5.63581 -28.2037
vn 0.618618 0.465104 -0.633237
v 1.98045 5.63517 -28.2116
vn 0.546716 0.459748 -0.69981
v 1.97122 5.634 -28.2188
vn 0.469548 0.449964 -0.759643
v 1.96145 5.63231 -28.2251
vn 0.387859 0.435846 -0.81216
v 1.95123 5.63012 -28.2304
vn 0.302434 0.417531 -0.856856
v 1.94067 5.62745 -28.2348
vn 0.214097 0.395195 -0.893299
v 1.92986 5.62433 -28.2381
vn 0.123697 0.369053 -0.92114
v 1.9189 5.62077 -28.2404
vn 0.0321068 0.339357 -0.94011
v 1.90791 5.61683 -28.2416
vn -0.059793 0.306392 -0.950026
v 1.89698 5.61254 -28.2417
vn -0.151117 0.270477 -0.950792
v 1.88624 5.60793 -28.2407
vn -0.240986 0.231957 -0.942402
v 1.87576 5.60305 -28.2386
vn -0.328533 0.191203 -0.924936
v 1.86567 5.59796 -28.2354
vn -0.412917 0.148608 -0.898563
v 1.85605 5.59269 -28.2312
vn -0.493324 0.104581 -0.863536
v 1.847 5.58731 -28.226
vn -0.568981 0.0595478 -0.820192
v 1.83861 5.58185 -28.2199
vn -0.639157 0.0139407 -0.76895
v 1.83095 5.57638 -28.2129
vn -0.703178 -0.0318006 -0.710302
v 1.82411 5.57095 -28.2051
vn -0.760428 -0.0772357 -0.644814
v 1.81813 5.5656 -28.1965
vn -0.810353 -0.121927 -0.573115
v 1.8131 5.56039 -28.1873
vn -0.852475 -0.165444 -0.495898
v 1.80904 5.55538 -28.1774
vn -0.886387 -0.207368 -0.413904
v 1.806 5.5506 -28.1672
vn -0.911763 -0.247294 -0.327925
v 1.80402 5.54611 -28.1565
vn -0.928357 -0.284839 -0.238787
v 1.8031 5.54195 -28.1456
vn -0.936012 -0.319641 -0.147349
v 1.80327 5.53816 -28.1345
vn -0.934651 -0.351365 -0.0544931
v 1.80451 5.53477 -28.1233
vn -0.92429 -0.379705 0.0388881
v 1.80681 5.53181 -28.1122
vn -0.905027 -0.404388 0.131895
v 1.81016 5.52933 -28.1012
vn -0.877049 -0.425176 0.223631
v 1.81451 5.52733 -28.0905
vn -0.840623 -0.44187 0.313214
v 1.81984 5.52584 -28.0801
vn -0.796103 -0.454308 0.39978
v 1.82608 5.52488 -28.0702
vn -0.743915 -0.462372 0.482497
v 1.83318 5.52445 -28.0609
vn -0.684563 -0.465982 0.560566
v 1.84107 5.52455 -28.0522
vn -0.618618 -0.465104 0.633237
v 1.84967 5.52519 -28.0442
vn -0.546716 -0.459748 0.69981
v 1.8589 5.52636 -28.0371
vn -0.469548 -0.449964 0.759643
v 1.86867 5.52805 -28.0308
vn -0.387859 -0.435846 0.81216
v 1.87889 5.53024 -28.0255
vn -0.302434 -0.417531 0.856856
v 1.88945 5.53291 -28.0211
vn -0.214097 -0.395195 0.893299
v 1.90026 5.53604 -28.0178
vn -0.123697 -0.369053 0.92114
v 2.44478 4.19957 -28.498
vn -0.025998 -0.354712 0.934614
v 2.45554 4.20344 -28.4968
vn 0.0658723 -0.321673 0.944557
v 2.46623 4.20767 -28.4967
vn 0.157108 -0.285537 0.945402
v 2.47673 4.21223 -28.4977
vn 0.246831 -0.246651 0.937143
v 2.48696 4.21706 -28.4997
vn 0.334177 -0.205389 0.919859
v 2.49681 4.22212 -28.5028
vn 0.418305 -0.16215 0.893716
v 2.50619 4.22737 -28.5069
vn 0.498404 -0.117349 0.858966
v 2.51501 4.23275 -28.5119
vn 0.573703 -0.0714174 0.815944
v 2.52318 4.23821 -28.5178
vn 0.643477 -0.0247983 0.765064
v 2.53062 4.24369 -28.5247
vn 0.707054 0.0220595 0.706816
v 2.53727 4.24916 -28.5323
vn 0.763821 0.0687049 0.64176
v 2.54306 4.25454 -28.5406
vn 0.813233 0.114689 0.570525
v 2.54793 4.2598 -28.5496
vn 0.854813 0.159568 0.493795
v 2.55183 4.26487 -28.5592
vn 0.88816 0.20291 0.412309
v 2.55474 4.26972 -28.5692
vn 0.912954 0.244299 0.326852
v 2.55661 4.27429 -28.5795
vn 0.928956 0.283334 0.238248
v 2.55744 4.27854 -28.5902
vn 0.936012 0.319641 0.147349
v 2.55721 4.28243 -28.601
vn 0.934053 0.35287 0.0550317
v 2.55592 4.28593 -28.6119
vn 0.923098 0.3827 -0.037816
v 2.5536 4.28899 -28.6227
vn 0.903254 0.408845 -0.1303
v 2.55026 4.29159 -28.6334
vn 0.874711 0.431052 -0.221528
v 2.54593 4.2937 -28.6438
vn 0.837744 0.449108 -0.310623
v 2.54065 4.29531 -28.6539
vn 0.792709 0.462839 -0.396727
v 2.53449 4.2964 -28.6635
vn 0.74004 0.472113 -0.47901
v 2.52748 4.29695 -28.6726
vn 0.680243 0.476839 -0.55668
v 2.51972 4.29697 -28.6811
vn 0.613896 0.476974 -0.628989
v 2.51125 4.29644 -28.6889
vn 0.541637 0.472515 -0.69524
v 2.50218 4.29539 -28.6958
vn 0.464161 0.463506 -0.754796
v 2.49259 4.29381 -28.7019
vn 0.382215 0.450032 -0.807083
v 2.48256 4.29172 -28.7072
vn 0.296588 0.432225 -0.851597
v 2.4722 4.28915 -28.7114
vn 0.208105 0.410255 -0.887909
v 2.4616 4.28612 -28.7147
vn 0.117618 0.384334 -0.915671
v 2.45087 4.28265 -28.7169
vn 0.025998 0.354712 -0.934614
v 2.44011 4.27878 -28.718
vn -0.0658723 0.321673 -0.944557
v 2.42943 4.27455 -28.7181
vn -0.157108 0.285537 -0.945402
v 2.41892 4.26999 -28.7172
vn -0.246831 0.246651 -0.937143
v 2.40869 4.26516 -28.7152
vn -0.334177 0.205389 -0.919859
v 2.39884 4.2601 -28.7121
vn -0.418305 0.16215 -0.893716
v 2.38946 4.25485 -28.708
vn -0.498404 0.117349 -0.858966
v 2.38065 4.24947 -28.703
vn -0.573703 0.0714174 -0.815944
v 2.37248 4.24401 -28.697
vn -0.643477 0.0247983 -0.765064
v 2.36503 4.23853 -28.6902
vn -0.707054 -0.0220595 -0.706816
v 2.35838 4.23307 -28.6826
vn -0.763821 -0.0687049 -0.64176
v 2.3526 4.22768 -28.6742
vn -0.813233 -0.114689 -0.570525
v 2.34773 4.22243 -28.6653
vn -0.854813 -0.159568 -0.493795
v 2.34382 4.21735 -28.6557
vn -0.88816 -0.20291 -0.412309
v 2.34092 4.2125 -28.6457
vn -0.912954 -0.244299 -0.326852
v 2.33905 4.20793 -28.6353
vn -0.928956 -0.283334 -0.238248
v 2.33822 4.20368 -28.6247
vn -0.936012 -0.319641 -0.147349
v 2.33845 4.19979 -28.6139
vn -0.934053 -0.35287 -0.0550317
v 2.33973 4.1963 -28.603
vn -0.923098 -0.3827 0.037816
v 2.34206 4.19323 -28.5922
vn -0.903254 -0.408845 0.1303
v 2.3454 4.19063 -28.5815
vn -0.874711 -0.431052 0.221528
v 2.34973 4.18852 -28.5711
vn -0.837744 -0.449108 0.310623
v 2.355 4.18691 -28.561
vn -0.792709 -0.462839 0.396727
v 2.36117 4.18583 -28.5513
vn -0.74004 -0.472113 0.47901
v 2.36817 4.18527 -28.5422
vn -0.680243 -0.476839 0.55668
v 2.37594 4.18526 -28.5338
vn -0.613896 -0.476974 0.628989
v 2.3844 4.18578 -28.526
vn -0.541637 -0.472515 0.69524
v 2.39347 4.18683 -28.519
vn -0.464161 -0.463506 0.754796
v 2.40307 4.18841 -28.5129
vn -0.382215 -0.450032 0.807083
v 2.4131 4.1905 -28.5077
vn -0.296588 -0.432225 0.851597
v 2.42346 4.19307 -28.5035
vn -0.208105 -0.410255 0.887909
v 2.43405 4.1961 -28.5002
vn -0.117618 -0.384334 0.915671
v 2.99809 2.82105 -29.0224
vn -0.0202985 -0.368923 0.929238
v 3.00862 2.82484 -29.0212
vn 0.0715444 -0.335816 0.939206
v 3.01906 2.829 -29.0211
vn 0.162698 -0.299476 0.94013
v 3.02933 2.8335 -29.0221
vn 0.252285 -0.260251 0.931999
v 3.03932 2.83828 -29.024
vn 0.339443 -0.218519 0.914892
v 3.04893 2.8433 -29.027
vn 0.423331 -0.174683 0.888975
v 3.05808 2.84852 -29.031
vn 0.503143 -0.129165 0.854496
v 3.06667 2.85388 -29.0358
vn 0.578108 -0.0824032 0.811788
v 3.07462 2.85933 -29.0416
vn 0.647507 -0.0348476 0.761262
v 3.08186 2.86482 -29.0483
vn 0.710669 0.0130437 0.703405
v 3.08831 2.87029 -29.0557
vn 0.766988 0.0608093 0.638774
v 3.09392 2.8757 -29.0638
vn 0.81592 0.107989 0.56799
v 3.09862 2.88098 -29.0725
vn 0.856994 0.154129 0.491737
v 3.10238 2.8861 -29.0818
vn 0.889815 0.198785 0.410748
v 3.10516 2.891 -29.0915
vn 0.914066 0.241526 0.325804
v 3.10693 2.89563 -29.1016
vn 0.929515 0.281941 0.237721
v 3.10768 2.89995 -29.112
vn 0.936012 0.319641 0.147349
v 3.10739 2.90392 -29.1225
vn 0.933494 0.354263 0.0555587
v 3.10607 2.90749 -29.1331
vn 0.921986 0.385473 -0.0367672
v 3.10374 2.91065 -29.1436
vn 0.9016 0.41297 -0.128739
v 3.1004 2.91334 -29.154
vn 0.87253 0.436491 -0.219471
v 3.09611 2.91555 -29.1642
vn 0.835057 0.455808 -0.308089
v 3.09089 2.91726 -29.174
vn 0.789542 0.470735 -0.39374
v 3.08481 2.91846 -29.1834
vn 0.736424 0.481129 -0.4756
v 3.07791 2.91912 -29.1922
vn 0.676213 0.486889 -0.552879
v 3.07026 2.91924 -29.2005
vn 0.60949 0.48796 -0.624833
v 3.06194 2.91882 -29.208
vn 0.536898 0.484332 -0.69077
v 3.05303 2.91787 -29.2148
vn 0.459134 0.476039 -0.750055
v 3.04361 2.9164 -29.2208
vn 0.376949 0.463162 -0.802116
v 3.03378 2.91441 -29.2259
vn 0.291134 0.445825 -0.846452
v 3.02363 2.91193 -29.23
vn 0.202515 0.424193 -0.882637
v 3.01325 2.90898 -29.2332
vn 0.111946 0.398477 -0.910321
v 3.00274 2.9056 -29.2354
vn 0.0202985 0.368923 -0.929238
v 2.99222 2.9018 -29.2365
vn -0.0715444 0.335816 -0.939206
v 2.98177 2.89764 -29.2366
vn -0.162698 0.299476 -0.94013
v 2.97151 2.89314 -29.2357
vn -0.252285 0.260251 -0.931999
v 2.96152 2.88836 -29.2337
vn -0.339443 0.218519 -0.914892
v 2.95191 2.88334 -29.2307
vn -0.423331 0.174683 -0.888975
v 2.94276 2.87812 -29.2268
vn -0.503143 0.129165 -0.854496
v 2.93417 2.87276 -29.2219
vn -0.578108 0.0824032 -0.811788
v 2.92622 2.86731 -29.2161
vn -0.647507 0.0348476 -0.761262
v 2.91898 2.86183 -29.2095
vn -0.710669 -0.0130437 -0.703405
v 2.91253 2.85635 -29.2021
vn -0.766988 -0.0608093 -0.638774
v 2.90692 2.85095 -29.194
vn -0.81592 -0.107989 -0.56799
v 2.90221 2.84566 -29.1852
vn -0.856994 -0.154129 -0.491737
v 2.89845 2.84054 -29.1759
vn -0.889815 -0.198785 -0.410748
v 2.89567 2.83564 -29.1662
vn -0.914066 -0.241526 -0.325804
v 2.8939 2.83101 -29.1561
vn -0.929515 -0.281941 -0.237721
v 2.89316 2.82669 -29.1458
vn -0.936012 -0.319641 -0.147349
v 2.89345 2.82273 -29.1352
vn -0.933494 -0.354263 -0.0555587
v 2.89477 2.81915 -29.1247
vn -0.921986 -0.385473 0.0367672
v 2.8971 2.816 -29.1141
vn -0.9016 -0.41297 0.128739
v 2.90043 2.8133 -29.1037
vn -0.87253 -0.436491 0.219471
v 2.90473 2.81109 -29.0936
vn -0.835057 -0.455808 0.308089
v 2.90994 2.80938 -29.0838
vn -0.789542 -0.470735 0.39374
v 2.91603 2.80819 -29.0744
vn -0.736424 -0.481129 0.4756
v 2.92293 2.80753 -29.0655
vn -0.676213 -0.486889 0.552879
v 2.93058 2.8074 -29.0573
vn -0.60949 -0.48796 0.624833
v 2.93889 2.80782 -29.0497
vn -0.536898 -0.484332 0.69077
v 2.94781 2.80877 -29.0429
vn -0.459134 -0.476039 0.750055
v 2.95722 2.81025 -29.037
vn -0.376949 -0.463162 0.802116
v 2.96706 2.81223 -29.0319
vn -0.291134 -0.445825 0.846452
v 2.97721 2.81471 -29.0277
vn -0.202515 -0.424193 0.882637
v 2.98759 2.81766 -29.0246
vn -0.111946 -0.398477 0.910321
v 3.57115 1.40399 -29.5887
vn -0.0149725 -0.382104 0.923998
v 3.58145 1.40771 -29.5876
vn 0.0768448 -0.348934 0.933992
v 3.59165 1.4118 -29.5874
vn 0.167922 -0.312403 0.93499
v 3.60168 1.41623 -29.5883
vn 0.257382 -0.272864 0.926984
v 3.61143 1.42096 -29.5902
vn 0.344363 -0.230697 0.910051
v 3.62081 1.42593 -29.5931
vn 0.428028 -0.186308 0.884354
v 3.62972 1.43111 -29.597
vn 0.507571 -0.140125 0.850139
v 3.63809 1.43644 -29.6017
vn 0.582226 -0.0925921 0.807738
v 3.64583 1.44187 -29.6073
vn 0.651273 -0.0441678 0.757557
v 3.65287 1.44734 -29.6138
vn 0.714048 0.0046819 0.700081
v 3.65913 1.45281 -29.621
vn 0.769947 0.0534865 0.635862
v 3.66457 1.45822 -29.6289
vn 0.81843 0.101776 0.56552
v 3.66912 1.46353 -29.6374
vn 0.859032 0.149085 0.489732
v 3.67274 1.46867 -29.6464
vn 0.891361 0.194959 0.409227
v 3.6754 1.4736 -29.6558
vn 0.915105 0.238955 0.324781
v 3.67708 1.47827 -29.6657
vn 0.930037 0.280649 0.237208
v 3.67775 1.48264 -29.6757
vn 0.936012 0.319641 0.147349
v 3.6774 1.48667 -29.686
vn 0.932972 0.355555 0.0560723
v 3.67606 1.49031 -29.6963
vn 0.920947 0.388044 -0.0357449
v 3.67371 1.49353 -29.7065
vn 0.900053 0.416797 -0.127218
v 3.6704 1.4963 -29.7166
vn 0.870492 0.441535 -0.217466
v 3.66615 1.4986 -29.7265
vn 0.832546 0.462021 -0.305619
v 3.661 1.5004 -29.7361
vn 0.786583 0.478058 -0.390829
v 3.655 1.50168 -29.7452
vn 0.733045 0.48949 -0.472275
v 3.6482 1.50243 -29.7538
vn 0.672447 0.496209 -0.549173
v 3.64069 1.50265 -29.7618
vn 0.605373 0.498149 -0.620783
v 3.63251 1.50233 -29.7692
vn 0.532469 0.495291 -0.686413
v 3.62377 1.50148 -29.7758
vn 0.454437 0.487664 -0.745433
v 3.61453 1.50009 -29.7816
vn 0.372029 0.47534 -0.797275
v 3.60489 1.4982 -29.7866
vn 0.286038 0.458438 -0.841438
v 3.59495 1.49581 -29.7906
vn 0.197292 0.437121 -0.877497
v 3.58479 1.49295 -29.7937
vn 0.106646 0.411594 -0.905106
v 3.57451 1.48964 -29.7958
vn 0.0149725 0.382104 -0.923998
v 3.56422 1.48593 -29.7969
vn -0.0768448 0.348934 -0.933992
v 3.55401 1.48183 -29.797
vn -0.167922 0.312403 -0.93499
v 3.54398 1.4774 -29.7961
vn -0.257382 0.272864 -0.926984
v 3.53424 1.47267 -29.7942
vn -0.344363 0.230697 -0.910051
v 3.52486 1.4677 -29.7914
vn -0.428028 0.186308 -0.884354
v 3.51594 1.46252 -29.7875
vn -0.507571 0.140125 -0.850139
v 3.50757 1.45719 -29.7828
vn -0.582226 0.0925921 -0.807738
v 3.49984 1.45177 -29.7772
vn -0.651273 0.0441678 -0.757557
v 3.4928 1.44629 -29.7707
vn -0.714048 -0.0046819 -0.700081
v 3.48653 1.44082 -29.7635
vn -0.769947 -0.0534865 -0.635862
v 3.4811 1.43541 -29.7556
vn -0.81843 -0.101776 -0.56552
v 3.47655 1.43011 -29.7471
vn -0.859032 -0.149085 -0.489732
v 3.47293 1.42496 -29.7381
vn -0.891361 -0.194959 -0.409227
v 3.47026 1.42003 -29.7286
vn -0.915105 -0.238955 -0.324781
v 3.46859 1.41536 -29.7188
vn -0.930037 -0.280649 -0.237208
v 3.46792 1.41099 -29.7088
vn -0.936012 -0.319641 -0.147349
v 3.46826 1.40696 -29.6985
vn -0.932972 -0.355555 -0.0560723
v 3.46961 1.40332 -29.6882
vn -0.920947 -0.388044 0.0357449
v 3.47195 1.4001 -29.678
vn -0.900053 -0.416797 0.127218
v 3.47526 1.39733 -29.6679
vn -0.870492 -0.441535 0.217466
v 3.47952 1.39503 -29.658
vn -0.832546 -0.462021 0.305619
v 3.48467 1.39323 -29.6484
vn -0.786583 -0.478058 0.390829
v 3.49067 1.39195 -29.6393
vn -0.733045 -0.48949 0.472275
v 3.49746 1.3912 -29.6307
vn -0.672447 -0.496209 0.549173
v 3.50498 1.39098 -29.6227
vn -0.605373 -0.498149 0.620783
v 3.51315 1.3913 -29.6153
vn -0.532469 -0.495291 0.686413
v 3.5219 1.39216 -29.6087
vn -0.454437 -0.487664 0.745433
v 3.53113 1.39354 -29.6029
vn -0.372029 -0.47534 0.797275
v 3.54077 1.39543 -29.5979
vn -0.286038 -0.458438 0.841438
v 3.55072 1.39782 -29.5939
vn -0.197292 -0.437121 0.877497
v 3.56088 1.40068 -29.5908
vn -0.106646 -0.411594 0.905106
v 4.16398 -0.0516183 -30.1969
vn -0.00998769 -0.394353 0.918905
v 4.17403 -0.0479772 -30.1958
vn 0.0818056 -0.361124 0.928923
v 4.18401 -0.043955 -30.1957
vn 0.172811 -0.324417 0.929995
v 4.1938 -0.0395904 -30.1965
vn 0.262152 -0.284585 0.92211
v 4.20331 -0.0349256 -30.1984
vn 0.348969 -0.242013 0.905345
v 4.21245 -0.0300053 -30.2011
vn 0.432424 -0.19711 0.879862
v 4.22114 -0.0248771 -30.2049
vn 0.511716 -0.150309 0.845904
v 4.22929 -0.0195902 -30.2095
vn 0.586079 -0.102061 0.8038
v 4.23682 -0.0141956 -30.2149
vn 0.654798 -0.0528291 0.753956
v 4.24366 -0.00874525 -30.2212
vn 0.717211 -0.00308881 0.69685
v 4.24974 -0.00329166 -30.2282
vn 0.772716 0.0466813 0.633033
v 4.25501 0.00211267 -30.2359
vn 0.82078 0.0960018 0.563119
v 4.25941 0.00741569 -30.2441
vn 0.86094 0.144398 0.487783
v 4.2629 0.0125663 -30.2529
vn 0.892808 0.191403 0.407749
v 4.26545 0.017515 -30.2621
vn 0.916078 0.236565 0.323788
v 4.26703 0.022214 -30.2716
vn 0.930525 0.279449 0.236708
v 4.26764 0.0266181 -30.2814
vn 0.936012 0.319641 0.147349
v 4.26725 0.030685 -30.2914
vn 0.932483 0.356756 0.0565715
v 4.26588 0.0343753 -30.3014
vn 0.919975 0.390434 -0.0347512
v 4.26354 0.0376536 -30.3113
vn 0.898606 0.420352 -0.125739
v 4.26025 0.0404884 -30.3212
vn 0.868584 0.446222 -0.215516
v 4.25604 0.0428522 -30.3308
vn 0.830197 0.467795 -0.303218
v 4.25096 0.0447224 -30.3401
vn 0.783814 0.484863 -0.388
v 4.24505 0.046081 -30.349
vn 0.729883 0.497261 -0.469044
v 4.23837 0.0469147 -30.3573
vn 0.668922 0.50487 -0.545572
v 4.23098 0.0472158 -30.3651
vn 0.60152 0.507617 -0.616845
v 4.22296 0.0469811 -30.3723
vn 0.528325 0.505476 -0.682178
v 4.21438 0.046213 -30.3787
vn 0.450041 0.498466 -0.740942
v 4.20533 0.0449189 -30.3844
vn 0.367424 0.486656 -0.792569
v 4.19589 0.0431113 -30.3892
vn 0.281267 0.470159 -0.836564
v 4.18615 0.0408075 -30.3932
vn 0.192403 0.449135 -0.872502
v 4.17621 0.0380297 -30.3962
vn 0.101685 0.423784 -0.900037
v 4.16617 0.0348047 -30.3982
vn 0.00998769 0.394353 -0.918905
v 4.15611 0.0311636 -30.3993
vn -0.0818056 0.361124 -0.928923
v 4.14614 0.0271414 -30.3995
vn -0.172811 0.324417 -0.929995
v 4.13635 0.0227769 -30.3986
vn -0.262152 0.284585 -0.92211
v 4.12683 0.018112 -30.3968
vn -0.348969 0.242013 -0.905345
v 4.11769 0.0131917 -30.394
vn -0.432424 0.19711 -0.879862
v 4.109 0.00806346 -30.3902
vn -0.511716 0.150309 -0.845904
v 4.10085 0.00277658 -30.3856
vn -0.586079 0.102061 -0.8038
v 4.09332 -0.002618 -30.3802
vn -0.654798 0.0528291 -0.753956
v 4.08648 -0.00806834 -30.3739
vn -0.717211 0.00308881 -0.69685
v 4.0804 -0.0135219 -30.3669
vn -0.772716 -0.0466813 -0.633033
v 4.07513 -0.0189263 -30.3593
vn -0.82078 -0.0960018 -0.563119
v 4.07073 -0.0242293 -30.351
vn -0.86094 -0.144398 -0.487783
v 4.06724 -0.0293799 -30.3422
vn -0.892808 -0.191403 -0.407749
v 4.06469 -0.0343286 -30.333
vn -0.916078 -0.236565 -0.323788
v 4.06311 -0.0390276 -30.3235
vn -0.930525 -0.279449 -0.236708
v 4.06251 -0.0434317 -30.3137
vn -0.936012 -0.319641 -0.147349
v 4.06289 -0.0474986 -30.3038
vn -0.932483 -0.356756 -0.0565715
v 4.06426 -0.0511889 -30.2937
vn -0.919975 -0.390434 0.0347512
v 4.06661 -0.0544672 -30.2838
vn -0.898606 -0.420352 0.125739
v 4.0699 -0.057302 -30.2739
vn -0.868584 -0.446222 0.215516
v 4.0741 -0.0596658 -30.2643
vn -0.830197 -0.467795 0.303218
v 4.07918 -0.061536 -30.255
vn -0.783814 -0.484863 0.388
v 4.08509 -0.0628945 -30.2462
vn -0.729883 -0.497261 0.469044
v 4.09177 -0.0637283 -30.2378
vn -0.668922 -0.50487 0.545572
v 4.09916 -0.0640294 -30.23
vn -0.60152 -0.507617 0.616845
v 4.10718 -0.0637947 -30.2228
vn -0.528325 -0.505476 0.682178
v 4.11576 -0.0630266 -30.2164
vn -0.450041 -0.498466 0.740942
v 4.12481 -0.0617325 -30.2107
vn -0.367424 -0.486656 0.792569
v 4.13425 -0.0599249 -30.2059
vn -0.281267 -0.470159 0.836564
v 4.14399 -0.0576211 -30.202
vn -0.192403 -0.449135 0.872502
v 4.15393 -0.0548433 -30.1989
vn -0.101685 -0.423784 0.900037
v 4.77656 -1.54579 -30.8469
vn -0.00531516 -0.405759 0.913965
v 4.78639 -1.54223 -30.8459
vn 0.0864556 -0.372474 0.924007
v 4.79613 -1.53828 -30.8458
vn 0.177394 -0.335603 0.92515
v 4.80568 -1.53398 -30.8466
vn 0.266624 -0.2955 0.917383
v 4.81496 -1.52939 -30.8484
vn 0.353286 -0.252551 0.900782
v 4.82387 -1.52453 -30.8511
vn 0.436545 -0.207169 0.875505
v 4.83234 -1.51945 -30.8547
vn 0.515601 -0.159793 0.841797
v 4.84027 -1.51422 -30.8592
vn 0.589691 -0.110877 0.799982
v 4.84759 -1.50887 -30.8645
vn 0.658102 -0.060894 0.750463
v 4.85424 -1.50345 -30.8705
vn 0.720175 -0.0103244 0.693716
v 4.86014 -1.49803 -30.8773
vn 0.775312 0.0403447 0.630288
v 4.86525 -1.49264 -30.8848
vn 0.822983 0.0906253 0.560791
v 4.8695 -1.48735 -30.8928
vn 0.862728 0.140033 0.485892
v 4.87287 -1.48221 -30.9013
vn 0.894164 0.188092 0.406315
v 4.87531 -1.47726 -30.9102
vn 0.916989 0.23434 0.322824
v 4.87681 -1.47255 -30.9195
vn 0.930983 0.278331 0.236224
v 4.87735 -1.46812 -30.929
vn 0.936012 0.319641 0.147349
v 4.87692 -1.46403 -30.9387
vn 0.932025 0.357873 0.0570557
v 4.87553 -1.4603 -30.9484
vn 0.919063 0.392659 -0.0337875
v 4.8732 -1.45699 -30.9581
vn 0.89725 0.423663 -0.124305
v 4.86994 -1.4541 -30.9677
vn 0.866796 0.450587 -0.213626
v 4.86578 -1.45168 -30.977
vn 0.827994 0.473172 -0.300889
v 4.86078 -1.44975 -30.9861
vn 0.781218 0.491199 -0.385255
v 4.85496 -1.44833 -30.9947
vn 0.726919 0.504497 -0.46591
v 4.8484 -1.44743 -31.0028
vn 0.665618 0.512935 -0.542079
v 4.84115 -1.44705 -31.0104
vn 0.597908 0.516434 -0.613027
v 4.83328 -1.44721 -31.0174
vn 0.52444 0.514959 -0.678071
v 4.82488 -1.4479 -31.0237
vn 0.44592 0.508525 -0.736585
v 4.81601 -1.44911 -31.0292
vn 0.363107 0.497193 -0.788005
v 4.80677 -1.45084 -31.0339
vn 0.276796 0.481074 -0.831837
v 4.79724 -1.45306 -31.0377
vn 0.18782 0.460321 -0.867657
v 4.78752 -1.45576 -31.0406
vn 0.0970347 0.435135 -0.895121
v 4.7777 -1.4589 -31.0427
vn 0.00531516 0.405759 -0.913965
v 4.76788 -1.46247 -31.0437
vn -0.0864556 0.372474 -0.924007
v 4.75814 -1.46641 -31.0439
vn -0.177394 0.335603 -0.92515
v 4.74859 -1.47071 -31.043
vn -0.266624 0.2955 -0.917383
v 4.73931 -1.47531 -31.0412
vn -0.353286 0.252551 -0.900782
v 4.73039 -1.48016 -31.0385
vn -0.436545 0.207169 -0.875505
v 4.72193 -1.48524 -31.0349
vn -0.515601 0.159793 -0.841797
v 4.714 -1.49047 -31.0305
vn -0.589691 0.110877 -0.799982
v 4.70667 -1.49583 -31.0252
vn -0.658102 0.060894 -0.750463
v 4.70003 -1.50124 -31.0191
vn -0.720175 0.0103244 -0.693716
v 4.69412 -1.50667 -31.0123
vn -0.775312 -0.0403447 -0.630288
v 4.68902 -1.51205 -31.0048
vn -0.822983 -0.0906253 -0.560791
v 4.68476 -1.51734 -30.9968
vn -0.862728 -0.140033 -0.485892
v 4.6814 -1.52248 -30.9883
vn -0.894164 -0.188092 -0.406315
v 4.67895 -1.52744 -30.9794
vn -0.916989 -0.23434 -0.322824
v 4.67745 -1.53215 -30.9701
vn -0.930983 -0.278331 -0.236224
v 4.67692 -1.53657 -30.9606
vn -0.936012 -0.319641 -0.147349
v 4.67734 -1.54066 -30.9509
vn -0.932025 -0.357873 -0.0570557
v 4.67873 -1.54439 -30.9412
vn -0.919063 -0.392659 0.0337875
v 4.68107 -1.54771 -30.9315
vn -0.89725 -0.423663 0.124305
v 4.68433 -1.55059 -30.9219
vn -0.866796 -0.450587 0.213626
v 4.68848 -1.55301 -30.9126
vn -0.827994 -0.473172 0.300889
v 4.69349 -1.55494 -30.9036
vn -0.781218 -0.491199 0.385255
v 4.6993 -1.55636 -30.8949
vn -0.726919 -0.504497 0.46591
v 4.70587 -1.55726 -30.8868
vn -0.665618 -0.512935 0.542079
v 4.71312 -1.55764 -30.8792
vn -0.597908 -0.516434 0.613027
v 4.72098 -1.55748 -30.8722
vn -0.52444 -0.514959 0.678071
v 4.72939 -1.55679 -30.8659
vn -0.44592 -0.508525 0.736585
v 4.73826 -1.55558 -30.8604
vn -0.363107 -0.497193 0.788005
v 4.7475 -1.55385 -30.8557
vn -0.276796 -0.481074 0.831837
v 4.75702 -1.55163 -30.8519
vn -0.18782 -0.460321 0.867657
v 4.76674 -1.54893 -30.849
vn -0.0970347 -0.435135 0.895121
v 5.40892 -3.07854 -31.5389
vn -0.000928664 -0.416399 0.909182
v 5.41851 -3.07505 -31.5379
vn 0.090821 -0.383063 0.919247
v 5.42802 -3.07118 -31.5377
vn 0.181696 -0.346039 0.920458
v 5.43733 -3.06696 -31.5385
vn 0.270821 -0.305682 0.912806
v 5.44638 -3.06244 -31.5403
vn 0.357338 -0.262381 0.896363
v 5.45507 -3.05764 -31.5429
vn 0.440414 -0.216553 0.871287
v 5.46331 -3.05263 -31.5464
vn 0.519248 -0.16864 0.83782
v 5.47103 -3.04745 -31.5507
vn 0.593082 -0.119102 0.796284
v 5.47815 -3.04216 -31.5559
vn 0.661203 -0.0684177 0.74708
v 5.48461 -3.03679 -31.5618
vn 0.722958 -0.0170744 0.690681
v 5.49034 -3.0314 -31.5684
vn 0.777749 0.0344334 0.627631
v 5.49528 -3.02605 -31.5756
vn 0.825051 0.0856096 0.558536
v 5.4994 -3.02079 -31.5834
vn 0.864406 0.135961 0.484062
v 5.50264 -3.01566 -31.5917
vn 0.895438 0.185004 0.404926
v 5.50499 -3.01072 -31.6003
vn 0.917845 0.232264 0.321891
v 5.5064 -3.00601 -31.6093
vn 0.931413 0.277288 0.235755
v 5.50689 -3.00158 -31.6186
vn 0.936012 0.319641 0.147349
v 5.50642 -2.99747 -31.628
vn 0.931595 0.358916 0.0575246
v 5.50502 -2.99373 -31.6374
vn 0.918207 0.394735 -0.0328543
v 5.5027 -2.99038 -31.6468
vn 0.895977 0.426752 -0.122917
v 5.49947 -2.98746 -31.6561
vn 0.865117 0.454659 -0.211796
v 5.49537 -2.985 -31.6652
vn 0.825926 0.478187 -0.298635
v 5.49045 -2.98302 -31.674
vn 0.778781 0.497111 -0.382598
v 5.48473 -2.98155 -31.6824
vn 0.724136 0.511247 -0.462876
v 5.47829 -2.98058 -31.6903
vn 0.662517 0.520459 -0.538697
v 5.47118 -2.98014 -31.6977
vn 0.594517 0.524659 -0.609329
v 5.46347 -2.98023 -31.7045
vn 0.520792 0.523806 -0.674094
v 5.45524 -2.98085 -31.7106
vn 0.442052 0.517909 -0.732367
v 5.44656 -2.98199 -31.7159
vn 0.359054 0.507024 -0.783586
v 5.43752 -2.98364 -31.7205
vn 0.272598 0.491256 -0.827259
v 5.42821 -2.98578 -31.7242
vn 0.183518 0.470757 -0.862966
v 5.41871 -2.9884 -31.7271
vn 0.0926694 0.445724 -0.890361
v 5.40911 -2.99146 -31.7291
vn 0.000928664 0.416399 -0.909182
v 5.39952 -2.99495 -31.7301
vn -0.090821 0.383063 -0.919247
v 5.39002 -2.99882 -31.7302
vn -0.181696 0.346039 -0.920458
v 5.3807 -3.00304 -31.7294
vn -0.270821 0.305682 -0.912806
v 5.37165 -3.00757 -31.7277
vn -0.357338 0.262381 -0.896363
v 5.36297 -3.01236 -31.7251
vn -0.440414 0.216553 -0.871287
v 5.35473 -3.01737 -31.7216
vn -0.519248 0.16864 -0.83782
v 5.34701 -3.02255 -31.7172
vn -0.593082 0.119102 -0.796284
v 5.33988 -3.02785 -31.7121
vn -0.661203 0.0684177 -0.74708
v 5.33343 -3.03322 -31.7062
vn -0.722958 0.0170744 -0.690681
v 5.3277 -3.0386 -31.6996
vn -0.777749 -0.0344334 -0.627631
v 5.32275 -3.04395 -31.6924
vn -0.825051 -0.0856096 -0.558536
v 5.31864 -3.04922 -31.6846
vn -0.864406 -0.135961 -0.484062
v 5.31539 -3.05435 -31.6763
vn -0.895438 -0.185004 -0.404926
v 5.31305 -3.05929 -31.6676
vn -0.917845 -0.232264 -0.321891
v 5.31163 -3.06399 -31.6586
vn -0.931413 -0.277288 -0.235755
v 5.31115 -3.06842 -31.6494
vn -0.936012 -0.319641 -0.147349
v 5.31161 -3.07253 -31.64
vn -0.931595 -0.358916 -0.0575246
v 5.31301 -3.07627 -31.6306
vn -0.918207 -0.394735 0.0328543
v 5.31534 -3.07962 -31.6211
vn -0.895977 -0.426752 0.122917
v 5.31856 -3.08254 -31.6118
vn -0.865117 -0.454659 0.211796
v 5.32266 -3.085 -31.6028
vn -0.825926 -0.478187 0.298635
v 5.32759 -3.08698 -31.594
vn -0.778781 -0.497111 0.382598
v 5.3333 -3.08846 -31.5856
vn -0.724136 -0.511247 0.462876
v 5.33975 -3.08942 -31.5777
vn -0.662517 -0.520459 0.538697
v 5.34686 -3.08986 -31.5703
vn -0.594517 -0.524659 0.609329
v 5.35456 -3.08977 -31.5635
vn -0.520792 -0.523806 0.674094
v 5.3628 -3.08915 -31.5574
vn -0.442052 -0.517909 0.732367
v 5.37147 -3.08802 -31.5521
vn -0.359054 -0.507024 0.783586
v 5.38051 -3.08637 -31.5475
vn -0.272598 -0.491256 0.827259
v 5.38983 -3.08422 -31.5438
vn -0.183518 -0.470757 0.862966
v 5.39933 -3.08161 -31.5409
vn -0.0926694 -0.445724 0.890361
v 6.06105 -4.64988 -32.2728
vn 0.00319541 -0.426343 0.904556
v 6.07041 -4.64648 -32.2718
vn 0.0949252 -0.39296 0.914643
v 6.07968 -4.64268 -32.2716
vn 0.185741 -0.355792 0.915922
v 6.08877 -4.63854 -32.2724
vn 0.274768 -0.315198 0.908379
v 6.09758 -4.63409 -32.2741
vn 0.361148 -0.271568 0.892089
v 6.10604 -4.62937 -32.2766
vn 0.444051 -0.225323 0.867207
v 6.11406 -4.62443 -32.28
vn 0.522677 -0.176908 0.833974
v 6.12157 -4.61931 -32.2842
vn 0.596269 -0.126789 0.792709
v 6.1285 -4.61407 -32.2892
vn 0.66412 -0.0754493 0.74381
v 6.13477 -4.60876 -32.2949
vn 0.725574 -0.0233829 0.687747
v 6.14033 -4.60342 -32.3013
vn 0.78004 0.0289087 0.625061
v 6.14512 -4.59812 -32.3083
vn 0.826995 0.0809219 0.556355
v 6.1491 -4.59289 -32.3159
vn 0.865985 0.132156 0.482292
v 6.15223 -4.58779 -32.3239
vn 0.896635 0.182117 0.403583
v 6.15447 -4.58287 -32.3324
vn 0.91865 0.230324 0.320988
v 6.15582 -4.57818 -32.3411
vn 0.931818 0.276313 0.235302
v 6.15625 -4.57375 -32.3501
vn 0.936012 0.319641 0.147349
v 6.15575 -4.56965 -32.3592
vn 0.931191 0.359891 0.057978
v 6.15435 -4.56589 -32.3684
vn 0.917403 0.396675 -0.0319519
v 6.15204 -4.56253 -32.3775
vn 0.89478 0.429638 -0.121574
v 6.14885 -4.55959 -32.3865
vn 0.863539 0.458464 -0.210025
v 6.14481 -4.5571 -32.3954
vn 0.823982 0.482875 -0.296454
v 6.13997 -4.55508 -32.4039
vn 0.77649 0.502635 -0.380028
v 6.13436 -4.55356 -32.4121
vn 0.72152 0.517555 -0.459942
v 6.12804 -4.55254 -32.4198
vn 0.659601 0.52749 -0.535426
v 6.12107 -4.55205 -32.4269
vn 0.591329 0.532346 -0.605754
v 6.11352 -4.55208 -32.4335
vn 0.517363 0.532074 -0.670248
v 6.10547 -4.55263 -32.4394
vn 0.438415 0.526679 -0.728287
v 6.09698 -4.55369 -32.4446
vn 0.355244 0.516211 -0.779313
v 6.08814 -4.55527 -32.4491
vn 0.268652 0.500772 -0.822833
v 6.07904 -4.55734 -32.4527
vn 0.179473 0.48051 -0.858429
v 6.06976 -4.55988 -32.4555
vn 0.0885652 0.45562 -0.885758
v 6.0604 -4.56287 -32.4574
vn -0.00319541 0.426343 -0.904556
v 6.05104 -4.56627 -32.4585
vn -0.0949252 0.39296 -0.914643
v 6.04177 -4.57007 -32.4586
vn -0.185741 0.355792 -0.915922
v 6.03269 -4.57421 -32.4578
vn -0.274768 0.315198 -0.908379
v 6.02387 -4.57866 -32.4562
vn -0.361148 0.271568 -0.892089
v 6.01541 -4.58338 -32.4536
vn -0.444051 0.225323 -0.867207
v 6.00739 -4.58832 -32.4502
vn -0.522677 0.176908 -0.833974
v 5.99988 -4.59344 -32.446
vn -0.596269 0.126789 -0.792709
v 5.99295 -4.59867 -32.441
vn -0.66412 0.0754493 -0.74381
v 5.98668 -4.60399 -32.4353
vn -0.725574 0.0233829 -0.687747
v 5.98112 -4.60932 -32.4289
vn -0.78004 -0.0289087 -0.625061
v 5.97633 -4.61463 -32.4219
vn -0.826995 -0.0809219 -0.556355
v 5.97235 -4.61986 -32.4143
vn -0.865985 -0.132156 -0.482292
v 5.96922 -4.62496 -32.4063
vn -0.896635 -0.182117 -0.403583
v 5.96698 -4.62988 -32.3979
vn -0.91865 -0.230324 -0.320988
v 5.96563 -4.63457 -32.3891
vn -0.931818 -0.276313 -0.235302
v 5.96521 -4.63899 -32.3802
vn -0.936012 -0.319641 -0.147349
v 5.9657 -4.6431 -32.371
vn -0.931191 -0.359891 -0.057978
v 5.9671 -4.64685 -32.3619
vn -0.917403 -0.396675 0.0319519
v 5.96941 -4.65022 -32.3527
vn -0.89478 -0.429638 0.121574
v 5.9726 -4.65316 -32.3437
vn -0.863539 -0.458464 0.210025
v 5.97664 -4.65565 -32.3349
vn -0.823982 -0.482875 0.296454
v 5.98148 -4.65767 -32.3263
vn -0.77649 -0.502635 0.380028
v 5.98709 -4.65919 -32.3182
vn -0.72152 -0.517555 0.459942
v 5.99341 -4.6602 -32.3105
vn -0.659601 -0.52749 0.535426
v 6.00038 -4.6607 -32.3033
vn -0.591329 -0.532346 0.605754
v 6.00793 -4.66067 -32.2967
vn -0.517363 -0.532074 0.670248
v 6.01599 -4.66012 -32.2908
vn -0.438415 -0.526679 0.728287
v 6.02447 -4.65905 -32.2856
vn -0.355244 -0.516211 0.779313
v 6.03331 -4.65748 -32.2811
vn -0.268652 -0.500772 0.822833
v 6.04241 -4.65541 -32.2775
vn -0.179473 -0.48051 0.858429
v 6.05169 -4.65287 -32.2747
vn -0.0885652 -0.45562 0.885758
v 6.73296 -6.25983 -33.0486
vn 0.00707836 -0.435653 0.900087
v 6.74209 -6.2565 -33.0476
vn 0.0987894 -0.402225 0.910195
v 6.75113 -6.25279 -33.0474
vn 0.189549 -0.364923 0.911538
v 6.75998 -6.24873 -33.0482
vn 0.278483 -0.324107 0.904103
v 6.76856 -6.24435 -33.0498
vn 0.364736 -0.28017 0.88796
v 6.7768 -6.23971 -33.0522
vn 0.447475 -0.233534 0.863266
v 6.78461 -6.23484 -33.0555
vn 0.525906 -0.184649 0.830258
v 6.79191 -6.2298 -33.0596
vn 0.599271 -0.133986 0.789254
v 6.79864 -6.22463 -33.0645
vn 0.666865 -0.0820327 0.740649
v 6.80473 -6.21938 -33.07
vn 0.728037 -0.0292893 0.684912
v 6.81012 -6.2141 -33.0762
vn 0.782198 0.0237362 0.622578
v 6.81476 -6.20884 -33.083
vn 0.828825 0.0765331 0.554249
v 6.81861 -6.20366 -33.0903
vn 0.867471 0.128593 0.480581
v 6.82162 -6.1986 -33.0981
vn 0.897762 0.179414 0.402286
v 6.82378 -6.19372 -33.1063
vn 0.919407 0.228508 0.320116
v 6.82505 -6.18905 -33.1148
vn 0.932198 0.275401 0.234864
v 6.82543 -6.18465 -33.1235
vn 0.936012 0.319641 0.147349
v 6.82491 -6.18055 -33.1324
vn 0.930811 0.360804 0.058416
v 6.8235 -6.1768 -33.1413
vn 0.916645 0.398491 -0.03108
v 6.82121 -6.17343 -33.1502
vn 0.893652 0.432341 -0.120277
v 6.81807 -6.17047 -33.1589
vn 0.862053 0.462027 -0.208315
v 6.8141 -6.16796 -33.1675
vn 0.822152 0.487264 -0.294347
v 6.80934 -6.16591 -33.1758
vn 0.774333 0.507808 -0.377545
v 6.80383 -6.16436 -33.1837
vn 0.719056 0.523462 -0.457106
v 6.79764 -6.1633 -33.1912
vn 0.656855 0.534074 -0.532266
v 6.79082 -6.16276 -33.1981
vn 0.588328 0.539543 -0.602299
v 6.78343 -6.16273 -33.2045
vn 0.514135 0.539816 -0.666532
v 6.77556 -6.16322 -33.2103
vn 0.43499 0.53489 -0.724346
v 6.76726 -6.16422 -33.2153
vn 0.351657 0.524812 -0.775184
v 6.75863 -6.16573 -33.2197
vn 0.264936 0.509681 -0.818556
v 6.74974 -6.16772 -33.2232
vn 0.175664 0.489641 -0.854045
v 6.74069 -6.17019 -33.2259
vn 0.0847009 0.464886 -0.88131
v 6.73155 -6.1731 -33.2278
vn -0.00707836 0.435653 -0.900087
v 6.72242 -6.17642 -33.2288
vn -0.0987894 0.402225 -0.910195
v 6.71339 -6.18014 -33.2289
vn -0.189549 0.364923 -0.911538
v 6.70454 -6.1842 -33.2282
vn -0.278483 0.324107 -0.904103
v 6.69595 -6.18857 -33.2266
vn -0.364736 0.28017 -0.88796
v 6.68771 -6.19322 -33.2241
vn -0.447475 0.233534 -0.863266
v 6.67991 -6.19808 -33.2208
vn -0.525906 0.184649 -0.830258
v 6.6726 -6.20313 -33.2167
vn -0.599271 0.133986 -0.789254
v 6.66588 -6.2083 -33.2119
vn -0.666865 0.0820327 -0.740649
v 6.65979 -6.21355 -33.2064
vn -0.728037 0.0292893 -0.684912
v 6.6544 -6.21883 -33.2002
vn -0.782198 -0.0237362 -0.622578
v 6.64975 -6.22408 -33.1933
vn -0.828825 -0.0765331 -0.554249
v 6.64591 -6.22926 -33.186
vn -0.867471 -0.128593 -0.480581
v 6.64289 -6.23432 -33.1782
vn -0.897762 -0.179414 -0.402286
v 6.64074 -6.23921 -33.17
vn -0.919407 -0.228508 -0.320116
v 6.63946 -6.24388 -33.1616
vn -0.932198 -0.275401 -0.234864
v 6.63908 -6.24828 -33.1528
vn -0.936012 -0.319641 -0.147349
v 6.6396 -6.25238 -33.144
vn -0.930811 -0.360804 -0.058416
v 6.64101 -6.25613 -33.1351
vn -0.916645 -0.398491 0.03108
v 6.6433 -6.2595 -33.1262
vn -0.893652 -0.432341 0.120277
v 6.64645 -6.26245 -33.1174
vn -0.862053 -0.462027 0.208315
v 6.65042 -6.26497 -33.1089
vn -0.822152 -0.487264 0.294347
v 6.65518 -6.26701 -33.1006
vn -0.774333 -0.507808 0.377545
v 6.66068 -6.26857 -33.0927
vn -0.719056 -0.523462 0.457106
v 6.66687 -6.26963 -33.0852
vn -0.656855 -0.534074 0.532266
v 6.67369 -6.27017 -33.0782
vn -0.588328 -0.539543 0.602299
v 6.68108 -6.2702 -33.0718
vn -0.514135 -0.539816 0.666532
v 6.68896 -6.26971 -33.0661
vn -0.43499 -0.53489 0.724346
v 6.69725 -6.2687 -33.061
vn -0.351657 -0.524812 0.775184
v 6.70588 -6.2672 -33.0567
vn -0.264936 -0.509681 0.818556
v 6.71477 -6.2652 -33.0532
vn -0.175664 -0.489641 0.854045
v 6.72383 -6.26274 -33.0505
vn -0.0847009 -0.464886 0.88131
f 1 66 2 
f 1 65 66 
f 2 67 3 
f 2 66 67 
f 3 68 4 
f 3 67 68 
f 4 69 5 
f 4 68 69 
f 5 70 6 
f 5 69 70 
f 6 71 7 
f 6 70 71 
f 7 72 8 
f 7 71 72 
f 8 73 9 
f 8 72 73 
f 9 74 10 
f 9 73 74 
f 10 75 11 
f 10 74 75 
f 11 76 12 
f 11 75 76 
f 12 77 13 
f 12 76 77 
f 13 78 14 
f 13 77 78 
f 14 79 15 
f 14 78 79 
f 15 80 16 
f 15 79 80 
f 16 81 17 
f 16 80 81 
f 17 82 18 
f 17 81 82 
f 18 83 19 
f 18 82 83 
f 19 84 20 
f 19 83 84 
f 20 85 21 
f 20 84 85 
f 21 86 22 
f 21 85 86 
f 22 87 23 
f 22 86 87 
f 23 88 24 
f 23 87 88 
f 24 89 25 
f 24 88 89 
f 25 90 26 
f 25 89 90 
f 26 91 27 
f 26 90 91 
f 27 92 28 
f 27 91 92 
f 28 93 29 
f 28 92 93 
f 29 94 30 
f 29 93 94 
f 30 95 31 
f 30 94 95 
f 31 96 32 
f 31 95 96 
f 32 97 33 
f 32 96 97 
f 33 98 34 
f 33 97 98 
f 34 99 35 
f 34 98 99 
f 35 100 36 
f 35 99 100 
f 36 101 37 
f 36 100 101 
f 37 102 38 
f 37 101 102 
f 38 103 39 
f 38 102 103 
f 39 104 40 
f 39 103 104 
f 40 105 41 
f 40 104 105 
f 41 106 42 
f 41 105 106 
f 42 107 43 
f 42 106 107 
f 43 108 44 
f 43 107 108 
f 44 109 45 
f 44 108 109 
f 45 110 46 
f 45 109 110 
f 46 111 47 
f 46 110 111 
f 47 112 48 
f 47 111 112 
f 48 113 49 
f 48 112 113 
f 49 114 50 
f 49 113 114 
f 50 115 51 
f 50 114 115 
f 51 116 52 
f 51 115 116 
f 52 117 53 
f 52 116 117 
f 53 118 54 
f 53 117 118 
f 54 119 55 
f 54 118 119 
f 55 120 56 
f 55 119 120 
f 56 121 57 
f 56 120 121 
f 57 122 58 
f 57 121 122 
f 58 123 59 
f 58 122 123 
f 59 124 60 
f 59 123 124 
f 60 125 61 
f 60 124 125 
f 61 126 62 
f 61 125 126 
f 62 127 63 
f 62 126 127 
f 63 128 64 
f 63 127 128 
f 64 65 1 
f 64 128 65 
f 65 130 66 
f 65 129 130 
f 66 131 67 
f 66 130 131 
f 67 132 68 
f 67 131 132 
f 68 133 69 
f 68 132 133 
f 69 134 70 
f 69 133 134 
f 70 135 71 
f 70 134 135 
f 71 136 72 
f 71 135 136 
f 72 137 73 
f 72 136 137 
f 73 138 74 
f 73 137 138 
f 74 139 75 
f 74 138 139 
f 75 140 76 
f 75 139 140 
f 76 141 77 
f 76 140 141 
f 77 142 78 
f 77 141 142 
f 78 143 79 
f 78 142 143 
f 79 144 80 
f 79 143 144 
f 80 145 81 
f 80 144 145 
f 81 146 82 
f 81 145 146 
f 82 147 83 
f 82 146 147 
f 83 148 84 
f 83 147 148 
f 84 149 85 
f 84 148 149 
f 85 150 86 
f 85 149 150 
f 86 151 87 
f 86 150 151 
f 87 152 88 
f 87 151 152 
f 88 153 89 
f 88 152 153 
f 89 154 90 
f 89 153 154 
f 90 155 91 
f 90 154 155 
f 91 156 92 
f 91 155 156 
f 92 157 93 
f 92 156 157 
f 93 158 94 
f 93 157 158 
f 94 159 95 
f 94 158 159 
f 95 160 96 
f 95 159 160 
f 96 161 97 
f 96 160 161 
f 97 162 98 
f 97 161 162 
f 98 163 99 
f 98 162 163 
f 99 164 100 
f 99 163 164 
f 100 165 101 
f 100 164 165 
f 101 166 102 
f 101 165 166 
f 102 167 103 
f 102 166 167 
f 103 168 104 
f 103 167 168 
f 104 169 105 
f 104 168 169 
f 105 170 106 
f 105 169 170 
f 106 171 107 
f 106 170 171 
f 107 172 108 
f 107 171 172 
f 108 173 109 
f 108 172 173 
f 109 174 110 
f 109 173 174 
f 110 175 111 
f 110 174 175 
f 111 176 112 
f 111 175 176 
f 112 177 113 
f 112 176 177 
f 113 178 114 
f 113 177 178 
f 114 179 115 
f 114 178 179 
f 115 180 116 
f 115 179 180 
f 116 181 117 
f 116 180 181 
f 117 182 118 
f 117 181 182 
f 118 183 119 
f 118 182 183 
f 119 184 120 
f 119 183 184 
f 120 185 121 
f 120 184 185 
f 121 186 122 
f 121 185 186 
f 122 187 123 
f 122 186 187 
f 123 188 124 
f 123 187 188 
f 124 189 125 
f 124 188 189 
f 125 190 126 
f 125 189 190 
f 126 191 127 
f 126 190 191 
f 127 192 128 
f 127 191 192 
f 128 129 65 
f 128 192 129 
f 129 194 130 
f 129 193 194 
f 130 195 131 
f 130 194 195 
f 131 196 132 
f 131 195 196 
f 132 197 133 
f 132 196 197 
f 133 198 134 
f 133 197 198 
f 134 199 135 
f 134 198 199 
f 135 200 136 
f 135 199 200 
f 136 201 137 
f 136 200 201 
f 137 202 138 
f 137 201 202 
f 138 203 139 
f 138 202 203 
f 139 204 140 
f 139 203 204 
f 140 205 141 
f 140 204 205 
f 141 206 142 
f 141 205 206 
f 142 207 143 
f 142 206 207 
f 143 208 144 
f 143 207 208 
f 144 209 145 
f 144 208 209 
f 145 210 146 
f 145 209 210 
f 146 211 147 
f 146 210 211 
f 147 212 148 
f 147 211 212 
f 148 213 149 
f 148 212 213 
f 149 214 150 
f 149 213 214 
f 150 215 151 
f 150 214 215 
f 151 216 152 
f 151 215 216 
f 152 217 153 
f 152 216 217 
f 153 218 154 
f 153 217 218 
f 154 219 155 
f 154 218 219 
f 155 220 156 
f 155 219 220 
f 156 221 157 
f 156 220 221 
f 157 222 158 
f 157 221 222 
f 158 223 159 
f 158 222 223 
f 159 224 160 
f 159 223 224 
f 160 225 161 
f 160 224 225 
f 161 226 162 
f 161 225 226 
f 162 227 163 
f 162 226 227 
f 163 228 164 
f 163 227 228 
f 164 229 165 
f 164 228 229 
f 165 230 166 
f 165 229 230 
f 166 231 167 
f 166 230 231 
f 167 232 168 
f 167 231 232 
f 168 233 169 
f 168 232 233 
f 169 234 170 
f 169 233 234 
f 170 235 171 
f 170 234 235 
f 171 236 172 
f 171 235 236 
f 172 237 173 
f 172 236 237 
f 173 238 174 
f 173 237 238 
f 174 239 175 
f 174 238 239 
f 175 240 176 
f 175 239 240 
f 176 241 177 
f 176 240 241 
f 177 242 178 
f 177 241 242 
f 178 243 179 
f 178 242 243 
f 179 244 180 
f 179 243 244 
f 180 245 181 
f 180 244 245 
f 181 246 182 
f 181 245 246 
f 182 247 183 
f 182 246 247 
f 183 248 184 
f 183 247 248 
f 184 249 185 
f 184 248 249 
f 185 250 186 
f 185 249 250 
f 186 251 187 
f 186 250 251 
f 187 252 188 
f 187 251 252 
f 188 253 189 
f 188 252 253 
f 189 254 190 
f 189 253 254 
f 190 255 191 
f 190 254 255 
f 191 256 192 
f 191 255 256 
f 192 193 129 
f 192 256 193 
f 193 258 194 
f 193 257 258 
f 194 259 195 
f 194 258 259 
f 195 260 196 
f 195 259 260 
f 196 261 197 
f 196 260 261 
f 197 262 198 
f 197 261 262 
f 198 263 199 
f 198 262 263 
f 199 264 200 
f 199 263 264 
f 200 265 201 
f 200 264 265 
f 201 266 202 
f 201 265 266 
f 202 267 203 
f 202 266 267 
f 203 268 204 
f 203 267 268 
f 204 269 205 
f 204 268 269 
f 205 270 206 
f 205 269 270 
f 206 271 207 
f 206 270 271 
f 207 272 208 
f 207 271 272 
f 208 273 209 
f 208 272 273 
f 209 274 210 
f 209 273 274 
f 210 275 211 
f 210 274 275 
f 211 276 212 
f 211 275 276 
f 212 277 213 
f 212 276 277 
f 213 278 214 
f 213 277 278 
f 214 279 215 
f 214 278 279 
f 215 280 216 
f 215 279 280 
f 216 281 217 
f 216 280 281 
f 217 282 218 
f 217 281 282 
f 218 283 219 
f 218 282 283 
f 219 284 220 
f 219 283 284 
f 220 285 221 
f 220 284 285 
f 221 286 222 
f 221 285 286 
f 222 287 223 
f 222 286 287 
f 223 288 224 
f 223 287 288 
f 224 289 225 
f 224 288 289 
f 225 290 226 
f 225 289 290 
f 226 291 227 
f 226 290 291 
f 227 292 228 
f 227 291 292 
f 228 293 229 
f 228 292 293 
f 229 294 230 
f 229 293 294 
f 230 295 231 
f 230 294 295 
f 231 296 232 
f 231 295 296 
f 232 297 233 
f 232 296 297 
f 233 298 234 
f 233 297 298 
f 234 299 235 
f 234 298 299 
f 235 300 236 
f 235 299 300 
f 236 301 237 
f 236 300 301 
f 237 302 238 
f 237 301 302 
f 238 303 239 
f 238 302 303 
f 239 304 240 
f 239 303 304 
f 240 305 241 
f 240 304 305 
f 241 306 242 
f 241 305 306 
f 242 307 243 
f 242 306 307 
f 243 308 244 
f 243 307 308 
f 244 309 245 
f 244 308 309 
f 245 310 246 
f 245 309 310 
f 246 311 247 
f 246 310 311 
f 247 312 248 
f 247 311 312 
f 248 313 249 
f 248 312 313 
f 249 314 250 
f 249 313 314 
f 250 315 251 
f 250 314 315 
f 251 316 252 
f 251 315 316 
f 252 317 253 
f 252 316 317 
f 253 318 254 
f 253 317 318 
f 254 319 255 
f 254 318 319 
f 255 320 256 
f 255 319 320 
f 256 257 193 
f 256 320 257 
f 257 322 258 
f 257 321 322 
f 258 323 259 
f 258 322 323 
f 259 324 260 
f 259 323 324 
f 260 325 261 
f 260 324 325 
f 261 326 262 
f 261 325 326 
f 262 327 263 
f 262 326 327 
f 263 328 264 
f 263 327 328 
f 264 329 265 
f 264 328 329 
f 265 330 266 
f 265 329 330 
f 266 331 267 
f 266 330 331 
f 267 332 268 
f 267 331 332 
f 268 333 269 
f 268 332 333 
f 269 334 270 
f 269 333 334 
f 270 335 271 
f 270 334 335 
f 271 336 272 
f 271 335 336 
f 272 337 273 
f 272 336 337 
f 273 338 274 
f 273 337 338 
f 274 339 275 
f 274 338 339 
f 275 340 276 
f 275 339 340 
f 276 341 277 
f 276 340 341 
f 277 342 278 
f 277 341 342 
f 278 343 279 
f 278 342 343 
f 279 344 280 
f 279 343 344 
f 280 345 281 
f 280 344 345 
f 281 346 282 
f 281 345 346 
f 282 347 283 
f 282 346 347 
f 283 348 284 
f 283 347 348 
f 284 349 285 
f 284 348 349 
f 285 350 286 
f 285 349 350 
f 286 351 287 
f 286 350 351 
f 287 352 288 
f 287 351 352 
f 288 353 289 
f 288 352 353 
f 289 354 290 
f 289 353 354 
f 290 355 291 
f 290 354 355 
f 291 356 292 
f 291 355 356 
f 292 357 293 
f 292 356 357 
f 293 358 294 
f 293 357 358 
f 294 359 295 
f 294 358 359 
f 295 360 296 
f 295 359 360 
f 296 361 297 
f 296 360 361 
f 297 362 298 
f 297 361 362 
f 298 363 299 
f 298 362 363 
f 299 364 300 
f 299 363 364 
f 300 365 301 
f 300 364 365 
f 301 366 302 
f 301 365 366 
f 302 367 303 
f 302 366 367 
f 303 368 304 
f 303 367 368 
f 304 369 305 
f 304 368 369 
f 305 370 306 
f 305 369 370 
f 306 371 307 
f 306 370 371 
f 307 372 308 
f 307 371 372 
f 308 373 309 
f 308 372 373 
f 309 374 310 
f 309 373 374 
f 310 375 311 
f 310 374 375 
f 311 376 312 
f 311 375 376 
f 312 377 313 
f 312 376 377 
f 313 378 314 
f 313 377 378 
f 314 379 315 
f 314 378 379 
f 315 380 316 
f 315 379 380 
f 316 381 317 
f 316 380 381 
f 317 382 318 
f 317 381 382 
f 318 383 319 
f 318 382 383 
f 319 384 320 
f 319 383 384 
f 320 321 257 
f 320 384 321 
f 321 386 322 
f 321 385 386 
f 322 387 323 
f 322 386 387 
f 323 388 324 
f 323 387 388 
f 324 389 325 
f 324 388 389 
f 325 390 326 
f 325 389 390 
f 326 391 327 
f 326 390 391 
f 327 392 328 
f 327 391 392 
f 328 393 329 
f 328 392 393 
f 329 394 330 
f 329 393 394 
f 330 395 331 
f 330 394 395 
f 331 396 332 
f 331 395 396 
f 332 397 333 
f 332 396 397 
f 333 398 334 
f 333 397 398 
f 334 399 335 
f 334 398 399 
f 335 400 336 
f 335 399 400 
f 336 401 337 
f 336 400 401 
f 337 402 338 
f 337 401 402 
f 338 403 339 
f 338 402 403 
f 339 404 340 
f 339 403 404 
f 340 405 341 
f 340 404 405 
f 341 406 342 
f 341 405 406 
f 342 407 343 
f 342 406 407 
f 343 408 344 
f 343 407 408 
f 344 409 345 
f 344 408 409 
f 345 410 346 
f 345 409 410 
f 346 411 347 
f 346 410 411 
f 347 412 348 
f 347 411 412 
f 348 413 349 
f 348 412 413 
f 349 414 350 
f 349 413 414 
f 350 415 351 
f 350 414 415 
f 351 416 352 
f 351 415 416 
f 352 417 353 
f 352 416 417 
f 353 418 354 
f 353 417 418 
f 354 419 355 
f 354 418 419 
f 355 420 356 
f 355 419 420 
f 356 421 357 
f 356 420 421 
f 357 422 358 
f 357 421 422 
f 358 423 359 
f 358 422 423 
f 359 424 360 
f 359 423 424 
f 360 425 361 
f 360 424 425 
f 361 426 362 
f 361 425 426 
f 362 427 363 
f 362 426 427 
f 363 428 364 
f 363 427 428 
f 364 429 365 
f 364 428 429 
f 365 430 366 
f 365 429 430 
f 366 431 367 
f 366 430 431 
f 367 432 368 
f 367 431 432 
f 368 433 369 
f 368 432 433 
f 369 434 370 
f 369 433 434 
f 370 435 371 
f 370 434 435 
f 371 436 372 
f 371 435 436 
f 372 437 373 
f 372 436 437 
f 373 438 374 
f 373 437 438 
f 374 439 375 
f 374 438 439 
f 375 440 376 
f 375 439 440 
f 376 441 377 
f 376 440 441 
f 377 442 378 
f 377 441 442 
f 378 443 379 
f 378 442 443 
f 379 444 380 
f 379 443 444 
f 380 445 381 
f 380 444 445 
f 381 446 382 
f 381 445 446 
f 382 447 383 
f 382 446 447 
f 383 448 384 
f 383 447 448 
f 384 385 321 
f 384 448 385 
f 385 450 386 
f 385 449 450 
f 386 451 387 
f 386 450 451 
f 387 452 388 
f 387 451 452 
f 388 453 389 
f 388 452 453 
f 389 454 390 
f 389 453 454 
f 390 455 391 
f 390 454 455 
f 391 456 392 
f 391 455 456 
f 392 457 393 
f 392 456 457 
f 393 458 394 
f 393 457 458 
f 394 459 395 
f 394 458 459 
f 395 460 396 
f 395 459 460 
f 396 461 397 
f 396 460 461 
f 397 462 398 
f 397 461 462 
f 398 463 399 
f 398 462 463 
f 399 464 400 
f 399 463 464 
f 400 465 401 
f 400 464 465 
f 401 466 402 
f 401 465 466 
f 402 467 403 
f 402 466 467 
f 403 468 404 
f 403 467 468 
f 404 469 405 
f 404 468 469 
f 405 470 406 
f 405 469 470 
f 406 471 407 
f 406 470 471 
f 407 472 408 
f 407 471 472 
f 408 473 409 
f 408 472 473 
f 409 474 410 
f 409 473 474 
f 410 475 411 
f 410 474 475 
f 411 476 412 
f 411 475 476 
f 412 477 413 
f 412 476 477 
f 413 478 414 
f 413 477 478 
f 414 479 415 
f 414 478 479 
f 415 480 416 
f 415 479 480 
f 416 481 417 
f 416 480 481 
f 417 482 418 
f 417 481 482 
f 418 483 419 
f 418 482 483 
f 419 484 420 
f 419 483 484 
f 420 485 421 
f 420 484 485 
f 421 486 422 
f 421 485 486 
f 422 487 423 
f 422 486 487 
f 423 488 424 
f 423 487 488 
f 424 489 425 
f 424 488 489 
f 425 490 426 
f 425 489 490 
f 426 491 427 
f 426 490 491 
f 427 492 428 
f 427 491 492 
f 428 493 429 
f 428 492 493 
f 429 494 430 
f 429 493 494 
f 430 495 431 
f 430 494 495 
f 431 496 432 
f 431 495 496 
f 432 497 433 
f 432 496 497 
f 433 498 434 
f 433 497 498 
f 434 499 435 
f 434 498 499 
f 435 500 436 
f 435 499 500 
f 436 501 437 
f 436 500 501 
f 437 502 438 
f 437 501 502 
f 438 503 439 
f 438 502 503 
f 439 504 440 
f 439 503 504 
f 440 505 441 
f 440 504 505 
f 441 506 442 
f 441 505 506 
f 442 507 443 
f 442 506 507 
f 443 508 444 
f 443 507 508 
f 444 509 445 
f 444 508 509 
f 445 510 446 
f 445 509 510 
f 446 511 447 
f 446 510 511 
f 447 512 448 
f 447 511 512 
f 448 449 385 
f 448 512 449 
f 449 514 450 
f 449 513 514 
f 450 515 451 
f 450 514 515 
f 451 516 452 
f 451 515 516 
f 452 517 453 
f 452 516 517 
f 453 518 454 
f 453 517 518 
f 454 519 455 
f 454 518 519 
f 455 520 456 
f 455 519 520 
f 456 521 457 
f 456 520 521 
f 457 522 458 
f 457 521 522 
f 458 523 459 
f 458 522 523 
f 459 524 460 
f 459 523 524 
f 460 525 461 
f 460 524 525 
f 461 526 462 
f 461 525 526 
f 462 527 463 
f 462 526 527 
f 463 528 464 
f 463 527 528 
f 464 529 465 
f 464 528 529 
f 465 530 466 
f 465 529 530 
f 466 531 467 
f 466 530 531 
f 467 532 468 
f 467 531 532 
f 468 533 469 
f 468 532 533 
f 469 534 470 
f 469 533 534 
f 470 535 471 
f 470 534 535 
f 471 536 472 
f 471 535 536 
f 472 537 473 
f 472 536 537 
f 473 538 474 
f 473 537 538 
f 474 539 475 
f 474 538 539 
f 475 540 476 
f 475 539 540 
f 476 541 477 
f 476 540 541 
f 477 542 478 
f 477 541 542 
f 478 543 479 
f 478 542 543 
f 479 544 480 
f 479 543 544 
f 480 545 481 
f 480 544 545 
f 481 546 482 
f 481 545 546 
f 482 547 483 
f 482 546 547 
f 483 548 484 
f 483 547 548 
f 484 549 485 
f 484 548 549 
f 485 550 486 
f 485 549 550 
f 486 551 487 
f 486 550 551 
f 487 552 488 
f 487 551 552 
f 488 553 489 
f 488 552 553 
f 489 554 490 
f 489 553 554 
f 490 555 491 
f 490 554 555 
f 491 556 492 
f 491 555 556 
f 492 557 493 
f 492 556 557 
f 493 558 494 
f 493 557 558 
f 494 559 495 
f 494 558 559 
f 495 560 496 
f 495 559 560 
f 496 561 497 
f 496 560 561 
f 497 562 498 
f 497 561 562 
f 498 563 499 
f 498 562 563 
f 499 564 500 
f 499 563 564 
f 500 565 501 
f 500 564 565 
f 501 566 502 
f 501 565 566 
f 502 567 503 
f 502 566 567 
f 503 568 504 
f 503 567 568 
f 504 569 505 
f 504 568 569 
f 505 570 506 
f 505 569 570 
f 506 571 507 
f 506 570 571 
f 507 572 508 
f 507 571 572 
f 508 573 509 
f 508 572 573 
f 509 574 510 
f 509 573 574 
f 510 575 511 
f 510 574 575 
f 511 576 512 
f 511 575 576 
f 512 513 449 
f 512 576 513 
f 513 578 514 
f 513 577 578 
f 514 579 515 
f 514 578 579 
f 515 580 516 
f 515 579 580 
f 516 581 517 
f 516 580 581 
f 517 582 518 
f 517 581 582 
f 518 583 519 
f 518 582 583 
f 519 584 520 
f 519 583 584 
f 520 585 521 
f 520 584 585 
f 521 586 522 
f 521 585 586 
f 522 587 523 
f 522 586 587 
f 523 588 524 
f 523 587 588 
f 524 589 525 
f 524 588 589 
f 525 590 526 
f 525 589 590 
f 526 591 527 
f 526 590 591 
f 527 592 528 
f 527 591 592 
f 528 593 529 
f 528 592 593 
f 529 594 530 
f 529 593 594 
f 530 595 531 
f 530 594 595 
f 531 596 532 
f 531 595 596 
f 532 597 533 
f 532 596 597 
f 533 598 534 
f 533 597 598 
f 534 599 535 
f 534 598 599 
f 535 600 536 
f 535 599 600 
f 536 601 537 
f 536 600 601 
f 537 602 538 
f 537 601 602 
f 538 603 539 
f 538 602 603 
f 539 604 540 
f 539 603 604 
f 540 605 541 
f 540 604 605 
f 541 606 542 
f 541 605 606 
f 542 607 543 
f 542 606 607 
f 543 608 544 
f 543 607 608 
f 544 609 545 
f 544 608 609 
f 545 610 546 
f 545 609 610 
f 546 611 547 
f 546 610 611 
f 547 612 548 
f 547 611 612 
f 548 613 549 
f 548 612 613 
f 549 614 550 
f 549 613 614 
f 550 615 551 
f 550 614 615 
f 551 616 552 
f 551 615 616 
f 552 617 553 
f 552 616 617 
f 553 618 554 
f 553 617 618 
f 554 619 555 
f 554 618 619 
f 555 620 556 
f 555 619 620 
f 556 621 557 
f 556 620 621 
f 557 622 558 
f 557 621 622 
f 558 623 559 
f 558 622 623 
f 559 624 560 
f 559 623 624 
f 560 625 561 
f 560 624 625 
f 561 626 562 
f 561 625 626 
f 562 627 563 
f 562 626 627 
f 563 628 564 
f 563 627 628 
f 564 629 565 
f 564 628 629 
f 565 630 566 
f 565 629 630 
f 566 631 567 
f 566 630 631 
f 567 632 568 
f 567 631 632 
f 568 633 569 
f 568 632 633 
f 569 634 570 
f 569 633 634 
f 570 635 571 
f 570 634 635 
f 571 636 572 
f 571 635 636 
f 572 637 573 
f 572 636 637 
f 573 638 574 
f 573 637 638 
f 574 639 575 
f 574 638 639 
f 575 640 576 
f 575 639 640 
f 576 577 513 
f 576 640 577 
