# Branch
v 5.88686 -6.99034 -30.2039
vn -0.101243 0.162457 0.981508
v 5.91208 -6.9656 -30.2072
vn -0.0314871 0.230889 0.972471
v 5.9374 -6.94167 -30.2139
vn 0.0385725 0.297097 0.954068
v 5.96259 -6.91878 -30.2238
vn 0.108261 0.360444 0.926477
v 5.9874 -6.89714 -30.237
vn 0.176906 0.42032 0.889964
v 6.0116 -6.87696 -30.2533
vn 0.243848 0.476148 0.84488
v 6.03494 -6.85844 -30.2726
vn 0.308441 0.52739 0.791659
v 6.05722 -6.84175 -30.2945
vn 0.370064 0.573553 0.730814
v 6.0782 -6.82706 -30.3191
vn 0.428123 0.614193 0.662931
v 6.0977 -6.81451 -30.3459
vn 0.482059 0.648918 0.588663
v 6.11551 -6.80422 -30.3748
vn 0.531353 0.677393 0.508727
v 6.13148 -6.79628 -30.4055
vn 0.575529 0.699345 0.423891
v 6.14544 -6.79078 -30.4376
vn 0.614163 0.714561 0.334973
v 6.15727 -6.78777 -30.4709
vn 0.646882 0.722896 0.242828
v 6.16684 -6.78727 -30.5051
vn 0.673371 0.724269 0.148346
v 6.17407 -6.7893 -30.5397
vn 0.693375 0.718667 0.0524342
v 6.17889 -6.79383 -30.5746
vn 0.706701 0.706144 -0.0439822
v 6.18125 -6.80081 -30.6093
vn 0.713222 0.68682 -0.139975
v 6.18112 -6.81019 -30.6435
vn 0.712874 0.660882 -0.23462
v 6.17851 -6.82186 -30.6769
vn 0.70566 0.628579 -0.327005
v 6.17345 -6.83572 -30.7091
vn 0.691651 0.590222 -0.416241
v 6.16598 -6.85164 -30.7399
vn 0.670981 0.546182 -0.501468
v 6.15617 -6.86946 -30.769
vn 0.643849 0.496881 -0.581866
v 6.14413 -6.88901 -30.796
vn 0.610516 0.442795 -0.656661
v 6.12995 -6.9101 -30.8208
vn 0.571303 0.384445 -0.725131
v 6.11379 -6.93253 -30.843
vn 0.526589 0.322392 -0.786618
v 6.0958 -6.95608 -30.8625
vn 0.476803 0.257235 -0.840529
v 6.07614 -6.98053 -30.8791
vn 0.422425 0.1896 -0.886346
v 6.05502 -7.00563 -30.8925
vn 0.36398 0.120139 -0.923626
v 6.03262 -7.03116 -30.9028
vn 0.302029 0.0495214 -0.952012
v 6.00918 -7.05685 -30.9097
vn 0.237169 -0.0215733 -0.971229
v 5.98491 -7.08248 -30.9133
vn 0.170025 -0.0924602 -0.981093
v 5.96005 -7.10778 -30.9135
vn 0.101243 -0.162457 -0.981508
v 5.93484 -7.13251 -30.9102
vn 0.0314871 -0.230889 -0.972471
v 5.90952 -7.15644 -30.9035
vn -0.0385725 -0.297097 -0.954068
v 5.88433 -7.17934 -30.8936
vn -0.108261 -0.360444 -0.926477
v 5.85952 -7.20098 -30.8804
vn -0.176906 -0.42032 -0.889964
v 5.83532 -7.22116 -30.8641
vn -0.243848 -0.476148 -0.84488
v 5.81197 -7.23968 -30.8448
vn -0.308441 -0.52739 -0.791659
v 5.7897 -7.25636 -30.8228
vn -0.370064 -0.573553 -0.730814
v 5.76872 -7.27105 -30.7983
vn -0.428123 -0.614193 -0.662931
v 5.74922 -7.2836 -30.7715
vn -0.482059 -0.648918 -0.588663
v 5.7314 -7.2939 -30.7426
vn -0.531353 -0.677393 -0.508727
v 5.71544 -7.30183 -30.7119
vn -0.575529 -0.699345 -0.423891
v 5.70147 -7.30733 -30.6798
vn -0.614163 -0.714561 -0.334973
v 5.68965 -7.31034 -30.6465
vn -0.646882 -0.722896 -0.242828
v 5.68007 -7.31084 -30.6123
vn -0.673371 -0.724269 -0.148346
v 5.67284 -7.30882 -30.5776
vn -0.693375 -0.718667 -0.0524342
v 5.66803 -7.30429 -30.5428
vn -0.706701 -0.706144 0.0439822
v 5.66567 -7.2973 -30.5081
vn -0.713222 -0.68682 0.139975
v 5.66579 -7.28793 -30.4739
vn -0.712874 -0.660882 0.23462
v 5.6684 -7.27625 -30.4405
vn -0.70566 -0.628579 0.327005
v 5.67346 -7.26239 -30.4082
vn -0.691651 -0.590222 0.416241
v 5.68094 -7.24647 -30.3774
vn -0.670981 -0.546182 0.501468
v 5.69074 -7.22865 -30.3484
vn -0.643849 -0.496881 0.581866
v 5.70279 -7.2091 -30.3213
vn -0.610516 -0.442795 0.656661
v 5.71696 -7.18801 -30.2966
vn -0.571303 -0.384445 0.725131
v 5.73313 -7.16558 -30.2744
vn -0.526589 -0.322392 0.786618
v 5.75112 -7.14203 -30.2549
vn -0.476803 -0.257235 0.840529
v 5.77077 -7.11759 -30.2383
vn -0.422425 -0.1896 0.886346
v 5.7919 -7.09248 -30.2249
vn -0.36398 -0.120139 0.923626
v 5.81429 -7.06696 -30.2146
vn -0.302029 -0.0495214 0.952012
v 5.83773 -7.04126 -30.2076
vn -0.237169 0.0215733 0.971229
v 5.862 -7.01564 -30.2041
vn -0.170025 0.0924602 0.981093
v 6.27442 -7.37215 -30.1068
vn -0.0877941 0.149208 0.984901
v 6.29956 -7.34744 -30.1101
vn -0.0181025 0.217704 0.975847
v 6.32477 -7.32348 -30.1168
vn 0.0517634 0.284103 0.957396
v 6.34979 -7.30051 -30.1267
vn 0.121131 0.347766 0.929724
v 6.3744 -7.27875 -30.14
vn 0.189332 0.40808 0.893098
v 6.39835 -7.25841 -30.1563
vn 0.255709 0.464463 0.847872
v 6.42141 -7.23968 -30.1755
vn 0.319624 0.516374 0.79448
v 6.44336 -7.22275 -30.1976
vn 0.380461 0.563312 0.733436
v 6.46398 -7.20777 -30.2221
vn 0.437633 0.604825 0.66533
v 6.48309 -7.1949 -30.249
vn 0.490592 0.640513 0.590816
v 6.50049 -7.18425 -30.278
vn 0.538825 0.670032 0.510612
v 6.51602 -7.17592 -30.3087
vn 0.581869 0.693099 0.42549
v 6.52953 -7.17001 -30.3409
vn 0.61931 0.709491 0.336271
v 6.54089 -7.16656 -30.3742
vn 0.650786 0.71905 0.243813
v 6.54998 -7.16561 -30.4084
vn 0.675994 0.721684 0.149008
v 6.55673 -7.16717 -30.4431
vn 0.694693 0.717368 0.0527668
v 6.56106 -7.17122 -30.478
vn 0.706701 0.706144 -0.0439822
v 6.56294 -7.17772 -30.5128
vn 0.711904 0.688118 -0.140308
v 6.56234 -7.18661 -30.5471
vn 0.71025 0.663466 -0.235282
v 6.55927 -7.19781 -30.5805
vn 0.701756 0.632425 -0.32799
v 6.55377 -7.21121 -30.6128
vn 0.686504 0.595292 -0.417539
v 6.54588 -7.22668 -30.6437
vn 0.664641 0.552427 -0.503068
v 6.53569 -7.24406 -30.6728
vn 0.636376 0.504241 -0.583751
v 6.52328 -7.2632 -30.6999
vn 0.601983 0.4512 -0.658813
v 6.50878 -7.2839 -30.7247
vn 0.561793 0.393813 -0.72753
v 6.49233 -7.30597 -30.7469
vn 0.516192 0.332633 -0.78924
v 6.47408 -7.3292 -30.7664
vn 0.46562 0.26825 -0.84335
v 6.45422 -7.35336 -30.783
vn 0.410564 0.201284 -0.889338
v 6.43293 -7.37822 -30.7965
vn 0.351554 0.132379 -0.926761
v 6.41042 -7.40354 -30.8068
vn 0.289158 0.0621996 -0.955258
v 6.3869 -7.42908 -30.8138
vn 0.223978 -0.00857919 -0.974556
v 6.36261 -7.45458 -30.8174
vn 0.15664 -0.0792753 -0.984469
v 6.33777 -7.47981 -30.8175
vn 0.0877941 -0.149208 -0.984901
v 6.31262 -7.50453 -30.8142
vn 0.0181025 -0.217704 -0.975847
v 6.28742 -7.52848 -30.8076
vn -0.0517634 -0.284103 -0.957396
v 6.26239 -7.55145 -30.7976
vn -0.121131 -0.347766 -0.929724
v 6.23778 -7.57321 -30.7844
vn -0.189332 -0.40808 -0.893098
v 6.21384 -7.59355 -30.7681
vn -0.255709 -0.464463 -0.847872
v 6.19078 -7.61228 -30.7488
vn -0.319624 -0.516374 -0.79448
v 6.16883 -7.62922 -30.7268
vn -0.380461 -0.563312 -0.733436
v 6.1482 -7.64419 -30.7022
vn -0.437633 -0.604825 -0.66533
v 6.1291 -7.65707 -30.6753
vn -0.490592 -0.640513 -0.590816
v 6.11169 -7.66772 -30.6464
vn -0.538825 -0.670032 -0.510612
v 6.09616 -7.67604 -30.6157
vn -0.581869 -0.693099 -0.42549
v 6.08266 -7.68195 -30.5835
vn -0.61931 -0.709491 -0.336271
v 6.0713 -7.6854 -30.5501
vn -0.650786 -0.71905 -0.243813
v 6.06221 -7.68635 -30.5159
vn -0.675994 -0.721684 -0.149008
v 6.05546 -7.6848 -30.4812
vn -0.694693 -0.717368 -0.0527668
v 6.05113 -7.68075 -30.4463
vn -0.706701 -0.706144 0.0439822
v 6.04925 -7.67424 -30.4116
vn -0.711904 -0.688118 0.140308
v 6.04985 -7.66535 -30.3773
vn -0.71025 -0.663466 0.235282
v 6.05291 -7.65415 -30.3438
vn -0.701756 -0.632425 0.32799
v 6.05841 -7.64075 -30.3115
vn -0.686504 -0.595292 0.417539
v 6.0663 -7.62529 -30.2807
vn -0.664641 -0.552427 0.503068
v 6.0765 -7.6079 -30.2516
vn -0.636376 -0.504241 0.583751
v 6.08891 -7.58877 -30.2245
vn -0.601983 -0.4512 0.658813
v 6.10341 -7.56806 -30.1997
vn -0.561793 -0.393813 0.72753
v 6.11986 -7.54599 -30.1774
vn -0.516192 -0.332633 0.78924
v 6.1381 -7.52276 -30.1579
vn -0.46562 -0.26825 0.84335
v 6.15797 -7.4986 -30.1413
vn -0.410564 -0.201284 0.889338
v 6.17926 -7.47374 -30.1278
vn -0.351554 -0.132379 0.926761
v 6.20177 -7.44842 -30.1175
vn -0.289158 -0.0621996 0.955258
v 6.22529 -7.42289 -30.1106
vn -0.223978 0.00857919 0.974556
v 6.24958 -7.39738 -30.107
vn -0.15664 0.0792753 0.984469
v 6.66345 -7.75608 -30.02
vn -0.074353 0.135945 0.987922
v 6.68852 -7.73139 -30.0233
vn -0.00472617 0.204504 0.978854
v 6.71361 -7.70741 -30.03
vn 0.0649462 0.271094 0.960359
v 6.73848 -7.68437 -30.04
vn 0.133993 0.335073 0.932615
v 6.76288 -7.66249 -30.0532
vn 0.20175 0.395826 0.89589
v 6.78658 -7.64199 -30.0695
vn 0.267563 0.452766 0.850537
v 6.80935 -7.62305 -30.0888
vn 0.3308 0.505346 0.796992
v 6.83098 -7.60587 -30.1108
vn 0.390851 0.553059 0.735772
v 6.85125 -7.5906 -30.1354
vn 0.447138 0.595446 0.667467
v 6.86997 -7.5774 -30.1624
vn 0.499118 0.632099 0.592733
v 6.88696 -7.5664 -30.1913
vn 0.546292 0.662664 0.51229
v 6.90205 -7.55769 -30.2221
vn 0.588205 0.686847 0.426915
v 6.9151 -7.55136 -30.2543
vn 0.624453 0.704415 0.337427
v 6.92599 -7.54748 -30.2877
vn 0.654687 0.7152 0.24469
v 6.93461 -7.54607 -30.3219
vn 0.678617 0.719097 0.149597
v 6.94087 -7.54717 -30.3567
vn 0.69601 0.716068 0.053063
v 6.94472 -7.55074 -30.3917
vn 0.706701 0.706144 -0.0439822
v 6.94612 -7.55676 -30.4265
vn 0.710586 0.689418 -0.140604
v 6.94506 -7.56518 -30.4608
vn 0.707628 0.666054 -0.235871
v 6.94154 -7.5759 -30.4943
vn 0.697855 0.636275 -0.328867
v 6.9356 -7.58883 -30.5266
vn 0.681361 0.600368 -0.418696
v 6.92729 -7.60384 -30.5575
vn 0.658305 0.558679 -0.504492
v 6.91671 -7.6208 -30.5866
vn 0.628909 0.51161 -0.58543
v 6.90394 -7.63952 -30.6138
vn 0.593457 0.459614 -0.66073
v 6.88912 -7.65984 -30.6386
vn 0.552289 0.403192 -0.729667
v 6.87237 -7.68156 -30.6609
vn 0.505802 0.342886 -0.791576
v 6.85388 -7.70446 -30.6804
vn 0.454445 0.279279 -0.845863
v 6.83381 -7.72834 -30.697
vn 0.39871 0.212981 -0.892003
v 6.81235 -7.75295 -30.7106
vn 0.339136 0.144633 -0.929553
v 6.78972 -7.77807 -30.7209
vn 0.276296 0.0748919 -0.95815
v 6.76614 -7.80344 -30.7278
vn 0.210795 0.00442941 -0.97752
v 6.74182 -7.82883 -30.7314
vn 0.143264 -0.0660757 -0.987476
v 6.717 -7.85399 -30.7316
vn 0.074353 -0.135945 -0.987922
v 6.69193 -7.87868 -30.7283
vn 0.00472617 -0.204504 -0.978854
v 6.66684 -7.90266 -30.7217
vn -0.0649462 -0.271094 -0.960359
v 6.64197 -7.92571 -30.7117
vn -0.133993 -0.335073 -0.932615
v 6.61757 -7.94758 -30.6984
vn -0.20175 -0.395826 -0.89589
v 6.59387 -7.96809 -30.6821
vn -0.267563 -0.452766 -0.850537
v 6.5711 -7.98702 -30.6628
vn -0.3308 -0.505346 -0.796992
v 6.54947 -8.00421 -30.6408
vn -0.390851 -0.553059 -0.735772
v 6.5292 -8.01947 -30.6162
vn -0.447138 -0.595446 -0.667467
v 6.51048 -8.03267 -30.5893
vn -0.499118 -0.632099 -0.592733
v 6.49349 -8.04368 -30.5603
vn -0.546292 -0.662664 -0.51229
v 6.4784 -8.05239 -30.5296
vn -0.588205 -0.686847 -0.426915
v 6.46534 -8.05871 -30.4973
vn -0.624453 -0.704415 -0.337427
v 6.45446 -8.0626 -30.4639
vn -0.654687 -0.7152 -0.24469
v 6.44584 -8.064 -30.4297
vn -0.678617 -0.719097 -0.149597
v 6.43957 -8.06291 -30.3949
vn -0.69601 -0.716068 -0.053063
v 6.43572 -8.05934 -30.36
vn -0.706701 -0.706144 0.0439822
v 6.43433 -8.05331 -30.3252
vn -0.710586 -0.689418 0.140604
v 6.43539 -8.0449 -30.2909
vn -0.707628 -0.666054 0.235871
v 6.43891 -8.03417 -30.2574
vn -0.697855 -0.636275 0.328867
v 6.44485 -8.02124 -30.225
vn -0.681361 -0.600368 0.418696
v 6.45315 -8.00623 -30.1941
vn -0.658305 -0.558679 0.504492
v 6.46374 -7.98928 -30.165
vn -0.628909 -0.51161 0.58543
v 6.47651 -7.97056 -30.1379
vn -0.593457 -0.459614 0.66073
v 6.49133 -7.95024 -30.113
vn -0.552289 -0.403192 0.729667
v 6.50807 -7.92852 -30.0908
vn -0.505802 -0.342886 0.791576
v 6.52657 -7.90561 -30.0712
vn -0.454445 -0.279279 0.845863
v 6.54664 -7.88174 -30.0546
vn -0.39871 -0.212981 0.892003
v 6.56809 -7.85712 -30.0411
vn -0.339136 -0.144633 0.929553
v 6.59072 -7.83201 -30.0308
vn -0.276296 -0.0748919 0.95815
v 6.61431 -7.80663 -30.0238
vn -0.210795 -0.00442941 0.97752
v 6.63863 -7.78124 -30.0202
vn -0.143264 0.0660757 0.987476
v 7.05395 -8.14212 -29.9436
vn -0.0609351 0.122681 0.990574
v 7.07895 -8.11746 -29.9468
vn 0.00862714 0.191305 0.981493
v 7.10393 -8.09345 -29.9535
vn 0.0781063 0.258086 0.96296
v 7.12863 -8.07034 -29.9635
vn 0.146833 0.322381 0.935153
v 7.15283 -8.04834 -29.9767
vn 0.214146 0.383572 0.89834
v 7.17628 -8.02768 -29.9931
vn 0.279397 0.441069 0.852875
v 7.19877 -8.00854 -30.0123
vn 0.341957 0.494318 0.799197
v 7.22008 -7.99111 -30.0344
vn 0.401223 0.542807 0.737822
v 7.23999 -7.97556 -30.059
vn 0.456626 0.586068 0.669341
v 7.25832 -7.96203 -30.086
vn 0.507631 0.623684 0.594415
v 7.2749 -7.95067 -30.1149
vn 0.553747 0.655295 0.513763
v 7.28956 -7.94158 -30.1457
vn 0.59453 0.680595 0.428164
v 7.30216 -7.93484 -30.178
vn 0.629588 0.69934 0.338442
v 7.31259 -7.93052 -30.2114
vn 0.658582 0.71135 0.24546
v 7.32073 -7.92867 -30.2457
vn 0.681234 0.716509 0.150114
v 7.32651 -7.92929 -30.2805
vn 0.697326 0.714768 0.0533228
v 7.32988 -7.93239 -30.3154
vn 0.706701 0.706144 -0.0439822
v 7.33081 -7.93794 -30.3503
vn 0.709271 0.690719 -0.140864
v 7.32928 -7.94587 -30.3846
vn 0.70501 0.668641 -0.236388
v 7.3253 -7.95612 -30.4181
vn 0.69396 0.640125 -0.329637
v 7.31893 -7.96859 -30.4505
vn 0.676226 0.605444 -0.41971
v 7.31021 -7.98315 -30.4814
vn 0.65198 0.564932 -0.505742
v 7.29924 -7.99967 -30.5106
vn 0.621454 0.518979 -0.586903
v 7.28612 -8.01799 -30.5377
vn 0.584944 0.468028 -0.662412
v 7.27097 -8.03792 -30.5626
vn 0.542801 0.41257 -0.731541
v 7.25394 -8.05928 -30.5849
vn 0.49543 0.353139 -0.793626
v 7.2352 -8.08187 -30.6045
vn 0.443288 0.290307 -0.848067
v 7.21492 -8.10546 -30.6211
vn 0.386877 0.224679 -0.894341
v 7.1933 -8.12983 -30.6346
vn 0.32674 0.156887 -0.932002
v 7.17055 -8.15474 -30.645
vn 0.263456 0.0875842 -0.960687
v 7.14689 -8.17996 -30.6519
vn 0.197635 0.0174379 -0.980121
v 7.12255 -8.20523 -30.6555
vn 0.129911 -0.0528762 -0.990115
v 7.09775 -8.23032 -30.6557
vn 0.0609351 -0.122681 -0.990574
v 7.07275 -8.25499 -30.6524
vn -0.00862714 -0.191305 -0.981493
v 7.04777 -8.279 -30.6458
vn -0.0781063 -0.258086 -0.96296
v 7.02307 -8.30211 -30.6358
vn -0.146833 -0.322381 -0.935153
v 6.99887 -8.3241 -30.6225
vn -0.214146 -0.383572 -0.89834
v 6.97542 -8.34477 -30.6062
vn -0.279397 -0.441069 -0.852875
v 6.95293 -8.36391 -30.5869
vn -0.341957 -0.494318 -0.799197
v 6.93163 -8.38134 -30.5648
vn -0.401223 -0.542807 -0.737822
v 6.91171 -8.39689 -30.5402
vn -0.456626 -0.586068 -0.669341
v 6.89338 -8.41041 -30.5133
vn -0.507631 -0.623684 -0.594415
v 6.8768 -8.42178 -30.4843
vn -0.553747 -0.655295 -0.513763
v 6.86214 -8.43087 -30.4535
vn -0.59453 -0.680595 -0.428164
v 6.84954 -8.43761 -30.4213
vn -0.629588 -0.69934 -0.338442
v 6.83912 -8.44193 -30.3879
vn -0.658582 -0.71135 -0.24546
v 6.83097 -8.44378 -30.3536
vn -0.681234 -0.716509 -0.150114
v 6.82519 -8.44316 -30.3188
vn -0.697326 -0.714768 -0.0533228
v 6.82182 -8.44006 -30.2838
vn -0.706701 -0.706144 0.0439822
v 6.8209 -8.43451 -30.249
vn -0.709271 -0.690719 0.140864
v 6.82243 -8.42658 -30.2147
vn -0.70501 -0.668641 0.236388
v 6.8264 -8.41632 -30.1811
vn -0.69396 -0.640125 0.329637
v 6.83277 -8.40386 -30.1488
vn -0.676226 -0.605444 0.41971
v 6.84149 -8.3893 -30.1178
vn -0.65198 -0.564932 0.505742
v 6.85246 -8.37278 -30.0887
vn -0.621454 -0.518979 0.586903
v 6.86559 -8.35446 -30.0615
vn -0.584944 -0.468028 0.662412
v 6.88073 -8.33453 -30.0367
vn -0.542801 -0.41257 0.731541
v 6.89776 -8.31316 -30.0143
vn -0.49543 -0.353139 0.793626
v 6.91651 -8.29058 -29.9948
vn -0.443288 -0.290307 0.848067
v 6.93678 -8.26699 -29.9781
vn -0.386877 -0.224679 0.894341
v 6.9584 -8.24262 -29.9646
vn -0.32674 -0.156887 0.932002
v 6.98115 -8.21771 -29.9543
vn -0.263456 -0.0875842 0.960687
v 7.00481 -8.19249 -29.9473
vn -0.197635 -0.0174379 0.980121
v 7.02915 -8.16722 -29.9437
vn -0.129911 0.0528762 0.990115
v 7.44591 -8.53028 -29.8774
vn -0.0475549 0.109432 0.992856
v 7.47085 -8.50563 -29.8806
vn 0.0219429 0.17812 0.983764
v 7.49571 -8.4816 -29.8873
vn 0.0912294 0.245092 0.965198
v 7.52025 -8.45842 -29.8973
vn 0.159637 0.309703 0.937337
v 7.54425 -8.43631 -29.9105
vn 0.226508 0.371332 0.900448
v 7.56746 -8.41548 -29.9269
vn 0.291197 0.429385 0.854888
v 7.58966 -8.39613 -29.9462
vn 0.353082 0.483302 0.801094
v 7.61065 -8.37846 -29.9682
vn 0.411566 0.532565 0.739586
v 7.63021 -8.36262 -29.9929
vn 0.466087 0.576699 0.670955
v 7.64816 -8.34878 -30.0198
vn 0.516119 0.61528 0.595863
v 7.66433 -8.33706 -30.0488
vn 0.561181 0.647934 0.515031
v 7.67856 -8.32758 -30.0796
vn 0.600838 0.674349 0.42924
v 7.69071 -8.32044 -30.1119
vn 0.634708 0.69427 0.339315
v 7.70067 -8.31569 -30.1453
vn 0.662467 0.707504 0.246123
v 7.70834 -8.31338 -30.1796
vn 0.683845 0.713924 0.15056
v 7.71365 -8.31355 -30.2144
vn 0.698637 0.71347 0.0535465
v 7.71654 -8.31618 -30.2494
vn 0.706701 0.706144 -0.0439822
v 7.71699 -8.32124 -30.2842
vn 0.70796 0.692017 -0.141087
v 7.715 -8.3287 -30.3186
vn 0.7024 0.671226 -0.236834
v 7.71057 -8.33848 -30.3521
vn 0.690075 0.643971 -0.330299
v 7.70377 -8.35049 -30.3845
vn 0.671105 0.610514 -0.420584
v 7.69464 -8.3646 -30.4154
vn 0.645672 0.571177 -0.506818
v 7.68329 -8.38069 -30.4446
vn 0.614021 0.52634 -0.588171
v 7.66981 -8.3986 -30.4718
vn 0.576456 0.476433 -0.66386
v 7.65434 -8.41815 -30.4967
vn 0.53334 0.421938 -0.733155
v 7.63702 -8.43916 -30.519
vn 0.485087 0.36338 -0.79539
v 7.61804 -8.46143 -30.5386
vn 0.432163 0.301323 -0.849965
v 7.59755 -8.48473 -30.5552
vn 0.375076 0.236363 -0.896354
v 7.57577 -8.50886 -30.5688
vn 0.314378 0.169127 -0.934111
v 7.55291 -8.53357 -30.5791
vn 0.250652 0.100262 -0.962871
v 7.52918 -8.55862 -30.5861
vn 0.184512 0.030432 -0.982359
v 7.50481 -8.58378 -30.5897
vn 0.116595 -0.0396914 -0.992386
v 7.48004 -8.60881 -30.5898
vn 0.0475549 -0.109432 -0.992856
v 7.4551 -8.63345 -30.5866
vn -0.0219429 -0.17812 -0.983764
v 7.43024 -8.65748 -30.5799
vn -0.0912294 -0.245092 -0.965198
v 7.4057 -8.68066 -30.5699
vn -0.159637 -0.309703 -0.937337
v 7.3817 -8.70278 -30.5567
vn -0.226508 -0.371332 -0.900448
v 7.35849 -8.7236 -30.5403
vn -0.291197 -0.429385 -0.854888
v 7.33629 -8.74295 -30.521
vn -0.353082 -0.483302 -0.801094
v 7.3153 -8.76063 -30.499
vn -0.411566 -0.532565 -0.739586
v 7.29574 -8.77646 -30.4743
vn -0.466087 -0.576699 -0.670955
v 7.27779 -8.7903 -30.4474
vn -0.516119 -0.61528 -0.595863
v 7.26162 -8.80202 -30.4184
vn -0.561181 -0.647934 -0.515031
v 7.24739 -8.8115 -30.3876
vn -0.600838 -0.674349 -0.42924
v 7.23524 -8.81865 -30.3553
vn -0.634708 -0.69427 -0.339315
v 7.22528 -8.82339 -30.3219
vn -0.662467 -0.707504 -0.246123
v 7.21761 -8.8257 -30.2876
vn -0.683845 -0.713924 -0.15056
v 7.2123 -8.82553 -30.2528
vn -0.698637 -0.71347 -0.0535465
v 7.20941 -8.82291 -30.2178
vn -0.706701 -0.706144 0.0439822
v 7.20896 -8.81784 -30.183
vn -0.70796 -0.692017 0.141087
v 7.21095 -8.81038 -30.1486
vn -0.7024 -0.671226 0.236834
v 7.21537 -8.8006 -30.1151
vn -0.690075 -0.643971 0.330299
v 7.22218 -8.78859 -30.0827
vn -0.671105 -0.610514 0.420584
v 7.23131 -8.77448 -30.0518
vn -0.645672 -0.571177 0.506818
v 7.24266 -8.75839 -30.0226
vn -0.614021 -0.52634 0.588171
v 7.25614 -8.74049 -29.9954
vn -0.576456 -0.476433 0.66386
v 7.27161 -8.72093 -29.9705
vn -0.53334 -0.421938 0.733155
v 7.28892 -8.69992 -29.9482
vn -0.485087 -0.36338 0.79539
v 7.30791 -8.67766 -29.9286
vn -0.432163 -0.301323 0.849965
v 7.3284 -8.65435 -29.912
vn -0.375076 -0.236363 0.896354
v 7.35018 -8.63022 -29.8984
vn -0.314378 -0.169127 0.934111
v 7.37304 -8.60552 -29.8881
vn -0.250652 -0.100262 0.962871
v 7.39677 -8.58046 -29.8811
vn -0.184512 -0.030432 0.982359
v 7.42114 -8.5553 -29.8775
vn -0.116595 0.0396914 0.992386
v 7.83934 -8.92053 -29.8215
vn -0.0342266 0.096213 0.994772
v 7.8642 -8.89591 -29.8247
vn 0.035207 0.164964 0.985671
v 7.88895 -8.87185 -29.8314
vn 0.104302 0.232126 0.967077
v 7.91334 -8.8486 -29.8414
vn 0.172392 0.297053 0.93917
v 7.93713 -8.82637 -29.8546
vn 0.238822 0.359119 0.902218
v 7.96009 -8.80538 -29.871
vn 0.302952 0.417726 0.856578
v 7.98202 -8.78584 -29.8903
vn 0.364164 0.472311 0.802688
v 8.00268 -8.76792 -29.9123
vn 0.421869 0.522346 0.741067
v 8.02189 -8.7518 -29.937
vn 0.475511 0.567352 0.67231
v 8.03947 -8.73764 -29.9639
vn 0.524574 0.606893 0.597078
v 8.05523 -8.72557 -29.9929
vn 0.568585 0.64059 0.516096
v 8.06903 -8.71571 -30.0237
vn 0.607121 0.668118 0.430144
v 8.08074 -8.70815 -30.056
vn 0.639809 0.689211 0.340049
v 8.09024 -8.70298 -30.0894
vn 0.666336 0.703666 0.246679
v 8.09744 -8.70023 -30.1237
vn 0.686445 0.711346 0.150933
v 8.10227 -8.69993 -30.1585
vn 0.699944 0.712174 0.0537343
v 8.10469 -8.70209 -30.1935
vn 0.706701 0.706144 -0.0439822
v 8.10468 -8.70669 -30.2283
vn 0.706653 0.693313 -0.141275
v 8.10222 -8.71367 -30.2627
vn 0.6998 0.673805 -0.237207
v 8.09735 -8.72298 -30.2962
vn 0.686206 0.647808 -0.330855
v 8.09012 -8.73453 -30.3286
vn 0.666005 0.615573 -0.421317
v 8.08059 -8.7482 -30.3596
vn 0.639389 0.577409 -0.507721
v 8.06885 -8.76385 -30.3888
vn 0.606616 0.533684 -0.589236
v 8.05502 -8.78136 -30.4159
vn 0.568001 0.48482 -0.665075
v 8.03923 -8.80053 -30.4408
vn 0.523915 0.431286 -0.73451
v 8.02163 -8.82119 -30.4631
vn 0.474784 0.373599 -0.796871
v 8.0024 -8.84314 -30.4827
vn 0.421081 0.312314 -0.851558
v 7.98172 -8.86616 -30.4994
vn 0.363322 0.248021 -0.898044
v 7.95978 -8.89004 -30.5129
vn 0.302064 0.18134 -0.935881
v 7.9368 -8.91455 -30.5232
vn 0.237897 0.112913 -0.964705
v 7.91299 -8.93945 -30.5302
vn 0.17144 0.0433975 -0.984238
v 7.8886 -8.96449 -30.5338
vn 0.103331 -0.0265356 -0.994293
v 7.86385 -8.98945 -30.534
vn 0.0342266 -0.096213 -0.994772
v 7.83899 -9.01407 -30.5307
vn -0.035207 -0.164964 -0.985671
v 7.81424 -9.03812 -30.5241
vn -0.104302 -0.232126 -0.967077
v 7.78985 -9.06138 -30.5141
vn -0.172392 -0.297053 -0.93917
v 7.76606 -9.0836 -30.5009
vn -0.238822 -0.359119 -0.902218
v 7.7431 -9.10459 -30.4845
vn -0.302952 -0.417726 -0.856578
v 7.72117 -9.12414 -30.4652
vn -0.364164 -0.472311 -0.802688
v 7.70051 -9.14206 -30.4431
vn -0.421869 -0.522346 -0.741067
v 7.68129 -9.15818 -30.4185
vn -0.475511 -0.567352 -0.67231
v 7.66372 -9.17234 -30.3916
vn -0.524574 -0.606893 -0.597078
v 7.64796 -9.18441 -30.3626
vn -0.568585 -0.64059 -0.516096
v 7.63416 -9.19427 -30.3318
vn -0.607121 -0.668118 -0.430144
v 7.62245 -9.20182 -30.2995
vn -0.639809 -0.689211 -0.340049
v 7.61295 -9.207 -30.2661
vn -0.666336 -0.703666 -0.246679
v 7.60575 -9.20975 -30.2318
vn -0.686445 -0.711346 -0.150933
v 7.60092 -9.21005 -30.197
vn -0.699944 -0.712174 -0.0537343
v 7.5985 -9.20789 -30.162
vn -0.706701 -0.706144 0.0439822
v 7.59851 -9.20329 -30.1271
vn -0.706653 -0.693313 0.141275
v 7.60097 -9.19631 -30.0928
vn -0.6998 -0.673805 0.237207
v 7.60584 -9.187 -30.0592
vn -0.686206 -0.647808 0.330855
v 7.61307 -9.17545 -30.0268
vn -0.666005 -0.615573 0.421317
v 7.6226 -9.16178 -29.9959
vn -0.639389 -0.577409 0.507721
v 7.63434 -9.14612 -29.9667
vn -0.606616 -0.533684 0.589236
v 7.64817 -9.12862 -29.9395
vn -0.568001 -0.48482 0.665075
v 7.66396 -9.10945 -29.9147
vn -0.523915 -0.431286 0.73451
v 7.68156 -9.08879 -29.8923
vn -0.474784 -0.373599 0.796871
v 7.70079 -9.06684 -29.8728
vn -0.421081 -0.312314 0.851558
v 7.72147 -9.04382 -29.8561
vn -0.363322 -0.248021 0.898044
v 7.74341 -9.01993 -29.8426
vn -0.302064 -0.18134 0.935881
v 7.76639 -8.99543 -29.8322
vn -0.237897 -0.112913 0.964705
v 7.7902 -8.97053 -29.8252
vn -0.17144 -0.0433975 0.984238
v 7.81459 -8.94549 -29.8216
vn -0.103331 0.0265356 0.994293
v 8.23422 -9.31288 -29.7759
vn -0.0209642 0.0830369 0.996326
v 8.25902 -9.28828 -29.7791
vn 0.0484056 0.151851 0.987217
v 8.28365 -9.26421 -29.7858
vn 0.117309 0.219203 0.968601
v 8.30787 -9.24088 -29.7958
vn 0.185083 0.284444 0.940657
v 8.33147 -9.21854 -29.809
vn 0.251075 0.346946 0.903654
v 8.35419 -9.19739 -29.8253
vn 0.314648 0.406106 0.857948
v 8.37583 -9.17764 -29.8446
vn 0.375191 0.461355 0.80398
v 8.39619 -9.15948 -29.8667
vn 0.432121 0.512161 0.742268
v 8.41505 -9.14308 -29.8913
vn 0.484889 0.558035 0.673409
v 8.43224 -9.1286 -29.9182
vn 0.532988 0.598534 0.598064
v 8.4476 -9.11619 -29.9472
vn 0.575954 0.63327 0.516959
v 8.46098 -9.10595 -29.978
vn 0.613372 0.661906 0.430876
v 8.47224 -9.09799 -30.0103
vn 0.644884 0.684168 0.340643
v 8.48129 -9.09239 -30.0437
vn 0.670185 0.699842 0.24713
v 8.48803 -9.08919 -30.078
vn 0.689032 0.708775 0.151236
v 8.49239 -9.08844 -30.1128
vn 0.701244 0.710882 0.0538866
v 8.49434 -9.09014 -30.1478
vn 0.706701 0.706144 -0.0439822
v 8.49386 -9.09426 -30.1826
vn 0.705353 0.694604 -0.141427
v 8.49095 -9.10078 -30.2169
vn 0.697212 0.676376 -0.237511
v 8.48564 -9.10962 -30.2505
vn 0.682357 0.651633 -0.331306
v 8.47798 -9.12071 -30.2829
vn 0.66093 0.620615 -0.421912
v 8.46805 -9.13393 -30.3138
vn 0.633137 0.58362 -0.508454
v 8.45593 -9.14917 -30.343
vn 0.599248 0.541004 -0.590099
v 8.44175 -9.16627 -30.3701
vn 0.559587 0.493178 -0.666061
v 8.42565 -9.18506 -30.395
vn 0.514537 0.440603 -0.735609
v 8.40777 -9.20537 -30.4173
vn 0.464532 0.383784 -0.798072
v 8.3883 -9.227 -30.4369
vn 0.410053 0.32327 -0.85285
v 8.36741 -9.24975 -30.4536
vn 0.351625 0.259642 -0.899414
v 8.34531 -9.27339 -30.4671
vn 0.289811 0.193513 -0.937316
v 8.32222 -9.2977 -30.4774
vn 0.225206 0.125521 -0.966192
v 8.29835 -9.32243 -30.4844
vn 0.158432 0.0563204 -0.985762
v 8.27393 -9.34737 -30.488
vn 0.0901321 -0.0134229 -0.995839
v 8.24921 -9.37225 -30.4882
vn 0.0209642 -0.0830369 -0.996326
v 8.22441 -9.39685 -30.4849
vn -0.0484056 -0.151851 -0.987217
v 8.19978 -9.42093 -30.4783
vn -0.117309 -0.219203 -0.968601
v 8.17555 -9.44425 -30.4683
vn -0.185083 -0.284444 -0.940657
v 8.15196 -9.46659 -30.4551
vn -0.251075 -0.346946 -0.903654
v 8.12923 -9.48774 -30.4387
vn -0.314648 -0.406106 -0.857948
v 8.10759 -9.50749 -30.4194
vn -0.375191 -0.461355 -0.80398
v 8.08724 -9.52565 -30.3974
vn -0.432121 -0.512161 -0.742268
v 8.06837 -9.54205 -30.3728
vn -0.484889 -0.558035 -0.673409
v 8.05118 -9.55653 -30.3458
vn -0.532988 -0.598534 -0.598064
v 8.03582 -9.56895 -30.3168
vn -0.575954 -0.63327 -0.516959
v 8.02244 -9.57919 -30.2861
vn -0.613372 -0.661906 -0.430876
v 8.01118 -9.58714 -30.2538
vn -0.644884 -0.684168 -0.340643
v 8.00213 -9.59275 -30.2204
vn -0.670185 -0.699842 -0.24713
v 7.9954 -9.59594 -30.1861
vn -0.689032 -0.708775 -0.151236
v 7.99103 -9.59669 -30.1513
vn -0.701244 -0.710882 -0.0538866
v 7.98908 -9.595 -30.1163
vn -0.706701 -0.706144 0.0439822
v 7.98956 -9.59087 -30.0815
vn -0.705353 -0.694604 0.141427
v 7.99247 -9.58436 -30.0471
vn -0.697212 -0.676376 0.237511
v 7.99778 -9.57551 -30.0136
vn -0.682357 -0.651633 0.331306
v 8.00544 -9.56442 -29.9812
vn -0.66093 -0.620615 0.421912
v 8.01538 -9.5512 -29.9503
vn -0.633137 -0.58362 0.508454
v 8.02749 -9.53597 -29.9211
vn -0.599248 -0.541004 0.590099
v 8.04167 -9.51887 -29.8939
vn -0.559587 -0.493178 0.666061
v 8.05777 -9.50007 -29.8691
vn -0.514537 -0.440603 0.735609
v 8.07565 -9.47976 -29.8467
vn -0.464532 -0.383784 0.798072
v 8.09513 -9.45813 -29.8272
vn -0.410053 -0.32327 0.85285
v 8.11601 -9.43538 -29.8105
vn -0.351625 -0.259642 0.899414
v 8.13811 -9.41174 -29.797
vn -0.289811 -0.193513 0.937316
v 8.1612 -9.38744 -29.7866
vn -0.225206 -0.125521 0.966192
v 8.18508 -9.3627 -29.7796
vn -0.158432 -0.0563204 0.985762
v 8.20949 -9.33777 -29.776
vn -0.0901321 0.0134229 0.995839
v 8.63055 -9.70733 -29.7406
vn -0.00778093 0.0699178 0.997522
v 8.65528 -9.68275 -29.7438
vn 0.0615254 0.138795 0.988408
v 8.6798 -9.65865 -29.7505
vn 0.130239 0.206336 0.969775
v 8.70387 -9.63526 -29.7605
vn 0.197699 0.27189 0.941802
v 8.72726 -9.6128 -29.7737
vn 0.263254 0.334825 0.904759
v 8.74975 -9.5915 -29.79
vn 0.326275 0.394536 0.859003
v 8.77111 -9.57155 -29.8093
vn 0.386153 0.450447 0.804974
v 8.79115 -9.55315 -29.8313
vn 0.442312 0.50202 0.743193
v 8.80967 -9.53647 -29.8559
vn 0.494211 0.548758 0.674255
v 8.82649 -9.52168 -29.8828
vn 0.541351 0.590212 0.598823
v 8.84145 -9.50891 -29.9118
vn 0.583278 0.625981 0.517624
v 8.8544 -9.4983 -29.9426
vn 0.619587 0.655722 0.43144
v 8.86523 -9.48994 -29.9748
vn 0.649929 0.679148 0.341101
v 8.87382 -9.48392 -30.0082
vn 0.674012 0.696033 0.247477
v 8.8801 -9.48028 -30.0425
vn 0.691604 0.706216 0.15147
v 8.884 -9.47908 -30.0772
vn 0.702536 0.709596 0.0540039
v 8.88549 -9.48031 -30.1122
vn 0.706701 0.706144 -0.0439822
v 8.88455 -9.48397 -30.147
vn 0.704061 0.69589 -0.141545
v 8.88119 -9.49002 -30.1813
vn 0.69464 0.678935 -0.237744
v 8.87544 -9.4984 -30.2148
vn 0.67853 0.655441 -0.331654
v 8.86736 -9.50904 -30.2472
vn 0.655885 0.625635 -0.42237
v 8.85702 -9.52182 -30.2781
vn 0.626923 0.589804 -0.509018
v 8.84453 -9.53663 -30.3073
vn 0.591924 0.548293 -0.590764
v 8.83001 -9.55333 -30.3344
vn 0.551224 0.501501 -0.66682
v 8.81359 -9.57175 -30.3593
vn 0.505215 0.44988 -0.736455
v 8.79544 -9.59172 -30.3816
vn 0.454341 0.393926 -0.798997
v 8.77573 -9.61304 -30.4012
vn 0.399092 0.334178 -0.853845
v 8.75464 -9.6355 -30.4178
vn 0.339999 0.271212 -0.900469
v 8.73239 -9.6589 -30.4314
vn 0.277632 0.205634 -0.938422
v 8.70918 -9.68301 -30.4417
vn 0.21259 0.138076 -0.967337
v 8.68524 -9.70759 -30.4487
vn 0.145502 0.0691875 -0.986936
v 8.6608 -9.73241 -30.4523
vn 0.0770123 -0.000366911 -0.99703
v 8.6361 -9.75722 -30.4524
vn 0.00778093 -0.0699178 -0.997522
v 8.61137 -9.7818 -30.4492
vn -0.0615254 -0.138795 -0.988408
v 8.58685 -9.8059 -30.4425
vn -0.130239 -0.206336 -0.969775
v 8.56278 -9.82929 -30.4326
vn -0.197699 -0.27189 -0.941802
v 8.53939 -9.85175 -30.4193
vn -0.263254 -0.334825 -0.904759
v 8.5169 -9.87305 -30.403
vn -0.326275 -0.394536 -0.859003
v 8.49554 -9.893 -30.3837
vn -0.386153 -0.450447 -0.804974
v 8.4755 -9.91141 -30.3617
vn -0.442312 -0.50202 -0.743193
v 8.45698 -9.92808 -30.3371
vn -0.494211 -0.548758 -0.674255
v 8.44016 -9.94287 -30.3102
vn -0.541351 -0.590212 -0.598823
v 8.4252 -9.95564 -30.2812
vn -0.583278 -0.625981 -0.517624
v 8.41224 -9.96625 -30.2505
vn -0.619587 -0.655722 -0.43144
v 8.40142 -9.97461 -30.2182
vn -0.649929 -0.679148 -0.341101
v 8.39282 -9.98063 -30.1848
vn -0.674012 -0.696033 -0.247477
v 8.38655 -9.98427 -30.1506
vn -0.691604 -0.706216 -0.15147
v 8.38265 -9.98547 -30.1158
vn -0.702536 -0.709596 -0.0540039
v 8.38116 -9.98424 -30.0808
vn -0.706701 -0.706144 0.0439822
v 8.3821 -9.98058 -30.046
vn -0.704061 -0.69589 0.141545
v 8.38546 -9.97453 -30.0117
vn -0.69464 -0.678935 0.237744
v 8.39121 -9.96615 -29.9782
vn -0.67853 -0.655441 0.331654
v 8.39929 -9.95551 -29.9458
vn -0.655885 -0.625635 0.42237
v 8.40963 -9.94273 -29.9149
vn -0.626923 -0.589804 0.509018
v 8.42211 -9.92792 -29.8857
vn -0.591924 -0.548293 0.590764
v 8.43664 -9.91122 -29.8586
vn -0.551224 -0.501501 0.66682
v 8.45305 -9.8928 -29.8337
vn -0.505215 -0.44988 0.736455
v 8.47121 -9.87284 -29.8114
vn -0.454341 -0.393926 0.798997
v 8.49092 -9.85152 -29.7918
vn -0.399092 -0.334178 0.853845
v 8.51201 -9.82905 -29.7752
vn -0.339999 -0.271212 0.900469
v 8.53426 -9.80565 -29.7617
vn -0.277632 -0.205634 0.938422
v 8.55747 -9.78154 -29.7513
vn -0.21259 -0.138076 0.967337
v 8.58141 -9.75696 -29.7443
vn -0.145502 -0.0691875 0.986936
v 8.60584 -9.73215 -29.7407
vn -0.0770123 0.000366911 0.99703
v 9.02832 -10.1039 -29.7156
vn 0.00531018 0.056869 0.998368
v 9.05299 -10.0793 -29.7188
vn 0.0745534 0.125809 0.989249
v 9.07739 -10.0552 -29.7255
vn 0.143079 0.193538 0.970604
v 9.10131 -10.0317 -29.7354
vn 0.210226 0.259403 0.942611
v 9.1245 -10.0092 -29.7486
vn 0.275349 0.32277 0.90554
v 9.14675 -9.9877 -29.7649
vn 0.33782 0.383028 0.859749
v 9.16784 -9.96755 -29.7842
vn 0.397037 0.439597 0.805677
v 9.18757 -9.94891 -29.8062
vn 0.452431 0.491933 0.743847
v 9.20575 -9.93196 -29.8308
vn 0.503468 0.539531 0.674852
v 9.2222 -9.91686 -29.8577
vn 0.549656 0.581934 0.599359
v 9.23676 -9.90375 -29.8866
vn 0.590551 0.618732 0.518093
v 9.2493 -9.89277 -29.9173
vn 0.625758 0.649571 0.431838
v 9.2597 -9.88401 -29.9495
vn 0.654939 0.674154 0.341424
v 9.26784 -9.87757 -29.9829
vn 0.677812 0.692246 0.247722
v 9.27366 -9.8735 -30.0171
vn 0.694158 0.70367 0.151635
v 9.2771 -9.87184 -30.0519
vn 0.703819 0.708317 0.0540868
v 9.27813 -9.87262 -30.0868
vn 0.706701 0.706144 -0.0439822
v 9.27673 -9.87581 -30.1216
vn 0.702778 0.697169 -0.141628
v 9.27293 -9.8814 -30.1559
vn 0.692086 0.681481 -0.237909
v 9.26674 -9.88933 -30.1893
vn 0.67473 0.659229 -0.331899
v 9.25825 -9.89951 -30.2217
vn 0.650875 0.630629 -0.422693
v 9.24752 -9.91186 -30.2526
vn 0.620752 0.595955 -0.509416
v 9.23466 -9.92625 -30.2817
vn 0.58465 0.555542 -0.591233
v 9.2198 -9.94255 -30.3088
vn 0.542919 0.509779 -0.667356
v 9.20307 -9.9606 -30.3336
vn 0.495958 0.459107 -0.737053
v 9.18465 -9.98022 -30.3559
vn 0.444222 0.404012 -0.799651
v 9.1647 -10.0012 -30.3755
vn 0.388207 0.345028 -0.854547
v 9.14342 -10.0234 -30.3921
vn 0.328454 0.28272 -0.901215
v 9.12101 -10.0466 -30.4056
vn 0.265537 0.217689 -0.939203
v 9.09769 -10.0705 -30.416
vn 0.200063 0.150562 -0.968146
v 9.07368 -10.0949 -30.4229
vn 0.132662 0.0819856 -0.987765
v 9.04922 -10.1196 -30.4265
vn 0.0639842 0.0126191 -0.997871
v 9.02454 -10.1444 -30.4267
vn -0.00531018 -0.056869 -0.998368
v 8.99988 -10.1689 -30.4235
vn -0.0745534 -0.125809 -0.989249
v 8.97547 -10.193 -30.4168
vn -0.143079 -0.193538 -0.970604
v 8.95156 -10.2165 -30.4069
vn -0.210226 -0.259403 -0.942611
v 8.92837 -10.2391 -30.3937
vn -0.275349 -0.32277 -0.90554
v 8.90612 -10.2605 -30.3773
vn -0.33782 -0.383028 -0.859749
v 8.88503 -10.2807 -30.3581
vn -0.397037 -0.439597 -0.805677
v 8.8653 -10.2993 -30.3361
vn -0.452431 -0.491933 -0.743847
v 8.84712 -10.3163 -30.3115
vn -0.503468 -0.539531 -0.674852
v 8.83067 -10.3314 -30.2846
vn -0.549656 -0.581934 -0.599359
v 8.8161 -10.3445 -30.2557
vn -0.590551 -0.618732 -0.518093
v 8.80356 -10.3555 -30.2249
vn -0.625758 -0.649571 -0.431838
v 8.79317 -10.3642 -30.1927
vn -0.654939 -0.674154 -0.341424
v 8.78503 -10.3707 -30.1594
vn -0.677812 -0.692246 -0.247722
v 8.7792 -10.3747 -30.1251
vn -0.694158 -0.70367 -0.151635
v 8.77576 -10.3764 -30.0904
vn -0.703819 -0.708317 -0.0540868
v 8.77474 -10.3756 -30.0555
vn -0.706701 -0.706144 0.0439822
v 8.77613 -10.3724 -30.0207
vn -0.702778 -0.697169 0.141628
v 8.77994 -10.3668 -29.9864
vn -0.692086 -0.681481 0.237909
v 8.78612 -10.3589 -29.9529
vn -0.67473 -0.659229 0.331899
v 8.79462 -10.3487 -29.9206
vn -0.650875 -0.630629 0.422693
v 8.80535 -10.3364 -29.8897
vn -0.620752 -0.595955 0.509416
v 8.81821 -10.322 -29.8606
vn -0.58465 -0.555542 0.591233
v 8.83307 -10.3057 -29.8335
vn -0.542919 -0.509779 0.667356
v 8.84979 -10.2876 -29.8086
vn -0.495958 -0.459107 0.737053
v 8.86822 -10.268 -29.7863
vn -0.444222 -0.404012 0.799651
v 8.88817 -10.247 -29.7668
vn -0.388207 -0.345028 0.854547
v 8.90945 -10.2248 -29.7502
vn -0.328454 -0.28272 0.901215
v 8.93186 -10.2016 -29.7366
vn -0.265537 -0.217689 0.939203
v 8.95518 -10.1777 -29.7263
vn -0.200063 -0.150562 0.968146
v 8.97918 -10.1533 -29.7193
vn -0.132662 -0.0819856 0.987765
v 9.00365 -10.1286 -29.7157
vn -0.0639842 -0.0126191 0.997871
v 9.42754 -10.5025 -29.7008
vn 0.0182968 0.0439032 0.998868
v 9.45214 -10.4779 -29.7041
vn 0.0874776 0.112906 0.989747
v 9.47643 -10.4538 -29.7107
vn 0.155816 0.180821 0.971095
v 9.50019 -10.4303 -29.7207
vn 0.222654 0.246995 0.94309
v 9.52319 -10.4076 -29.7339
vn 0.287347 0.310791 0.906003
v 9.54521 -10.386 -29.7501
vn 0.349273 0.371593 0.86019
v 9.56602 -10.3656 -29.7694
vn 0.407835 0.428817 0.806093
v 9.58545 -10.3468 -29.7914
vn 0.46247 0.48191 0.744234
v 9.60329 -10.3295 -29.8159
vn 0.512651 0.530363 0.675206
v 9.61937 -10.3141 -29.8428
vn 0.557895 0.573708 0.599677
v 9.63354 -10.3007 -29.8717
vn 0.597766 0.611528 0.518372
v 9.64567 -10.2893 -29.9023
vn 0.63188 0.643459 0.432074
v 9.65564 -10.2802 -29.9345
vn 0.659909 0.669193 0.341616
v 9.66334 -10.2733 -29.9678
vn 0.681582 0.688482 0.247868
v 9.66871 -10.2688 -30.002
vn 0.696692 0.70114 0.151732
v 9.6717 -10.2667 -30.0367
vn 0.705092 0.707047 0.0541358
v 9.67227 -10.2671 -30.0716
vn 0.706701 0.706144 -0.0439822
v 9.67042 -10.2698 -30.1063
vn 0.701505 0.69844 -0.141677
v 9.66617 -10.2749 -30.1405
vn 0.689553 0.68401 -0.238007
v 9.65956 -10.2824 -30.174
vn 0.67096 0.662993 -0.332044
v 9.65066 -10.2921 -30.2063
vn 0.645905 0.635591 -0.422885
v 9.63954 -10.3041 -30.2371
vn 0.61463 0.602067 -0.509652
v 9.62632 -10.318 -30.2662
vn 0.577435 0.562746 -0.591511
v 9.61112 -10.3339 -30.2933
vn 0.53468 0.518004 -0.667674
v 9.59409 -10.3516 -30.3181
vn 0.486775 0.468275 -0.737407
v 9.57539 -10.3709 -30.3403
vn 0.434183 0.414035 -0.800038
v 9.55521 -10.3916 -30.3599
vn 0.377409 0.355808 -0.854964
v 9.53373 -10.4135 -30.3765
vn 0.317 0.294155 -0.901656
v 9.51117 -10.4364 -30.39
vn 0.253539 0.229668 -0.939665
v 9.48774 -10.4602 -30.4003
vn 0.187636 0.16297 -0.968625
v 9.46367 -10.4844 -30.4073
vn 0.119925 0.0947021 -0.988256
v 9.43919 -10.509 -30.4109
vn 0.0510601 0.0255224 -0.998369
v 9.41453 -10.5337 -30.411
vn -0.0182968 -0.0439032 -0.998868
v 9.38994 -10.5582 -30.4078
vn -0.0874776 -0.112906 -0.989747
v 9.36565 -10.5824 -30.4012
vn -0.155816 -0.180821 -0.971095
v 9.34189 -10.6059 -30.3912
vn -0.222654 -0.246995 -0.94309
v 9.31889 -10.6286 -30.378
vn -0.287347 -0.310791 -0.906003
v 9.29687 -10.6502 -30.3617
vn -0.349273 -0.371593 -0.86019
v 9.27605 -10.6705 -30.3425
vn -0.407835 -0.428817 -0.806093
v 9.25663 -10.6894 -30.3205
vn -0.46247 -0.48191 -0.744234
v 9.23879 -10.7066 -30.296
vn -0.512651 -0.530363 -0.675206
v 9.22271 -10.722 -30.2691
vn -0.557895 -0.573708 -0.599677
v 9.20854 -10.7355 -30.2402
vn -0.597766 -0.611528 -0.518372
v 9.19641 -10.7468 -30.2095
vn -0.63188 -0.643459 -0.432074
v 9.18644 -10.756 -30.1774
vn -0.659909 -0.669193 -0.341616
v 9.17874 -10.7628 -30.1441
vn -0.681582 -0.688482 -0.247868
v 9.17337 -10.7673 -30.1099
vn -0.696692 -0.70114 -0.151732
v 9.17038 -10.7694 -30.0752
vn -0.705092 -0.707047 -0.0541358
v 9.16981 -10.7691 -30.0403
vn -0.706701 -0.706144 0.0439822
v 9.17166 -10.7664 -30.0056
vn -0.701505 -0.69844 0.141677
v 9.17591 -10.7613 -29.9713
vn -0.689553 -0.68401 0.238007
v 9.18251 -10.7538 -29.9379
vn -0.67096 -0.662993 0.332044
v 9.19142 -10.744 -29.9056
vn -0.645905 -0.635591 0.422885
v 9.20254 -10.7321 -29.8748
vn -0.61463 -0.602067 0.509652
v 9.21576 -10.7181 -29.8457
vn -0.577435 -0.562746 0.591511
v 9.23096 -10.7022 -29.8186
vn -0.53468 -0.518004 0.667674
v 9.24799 -10.6846 -29.7938
vn -0.486775 -0.468275 0.737407
v 9.26669 -10.6653 -29.7715
vn -0.434183 -0.414035 0.800038
v 9.28687 -10.6446 -29.752
vn -0.377409 -0.355808 0.854964
v 9.30835 -10.6227 -29.7354
vn -0.317 -0.294155 0.901656
v 9.33091 -10.5997 -29.7219
vn -0.253539 -0.229668 0.939665
v 9.35434 -10.576 -29.7116
vn -0.187636 -0.16297 0.968625
v 9.37841 -10.5518 -29.7046
vn -0.119925 -0.0947021 0.988256
v 9.40289 -10.5272 -29.701
vn -0.0510601 -0.0255224 0.998369
f 1 66 2 
f 1 65 66 
f 2 67 3 
f 2 66 67 
f 3 68 4 
f 3 67 68 
f 4 69 5 
f 4 68 69 
f 5 70 6 
f 5 69 70 
f 6 71 7 
f 6 70 71 
f 7 72 8 
f 7 71 72 
f 8 73 9 
f 8 72 73 
f 9 74 10 
f 9 73 74 
f 10 75 11 
f 10 74 75 
f 11 76 12 
f 11 75 76 
f 12 77 13 
f 12 76 77 
f 13 78 14 
f 13 77 78 
f 14 79 15 
f 14 78 79 
f 15 80 16 
f 15 79 80 
f 16 81 17 
f 16 80 81 
f 17 82 18 
f 17 81 82 
f 18 83 19 
f 18 82 83 
f 19 84 20 
f 19 83 84 
f 20 85 21 
f 20 84 85 
f 21 86 22 
f 21 85 86 
f 22 87 23 
f 22 86 87 
f 23 88 24 
f 23 87 88 
f 24 89 25 
f 24 88 89 
f 25 90 26 
f 25 89 90 
f 26 91 27 
f 26 90 91 
f 27 92 28 
f 27 91 92 
f 28 93 29 
f 28 92 93 
f 29 94 30 
f 29 93 94 
f 30 95 31 
f 30 94 95 
f 31 96 32 
f 31 95 96 
f 32 97 33 
f 32 96 97 
f 33 98 34 
f 33 97 98 
f 34 99 35 
f 34 98 99 
f 35 100 36 
f 35 99 100 
f 36 101 37 
f 36 100 101 
f 37 102 38 
f 37 101 102 
f 38 103 39 
f 38 102 103 
f 39 104 40 
f 39 103 104 
f 40 105 41 
f 40 104 105 
f 41 106 42 
f 41 105 106 
f 42 107 43 
f 42 106 107 
f 43 108 44 
f 43 107 108 
f 44 109 45 
f 44 108 109 
f 45 110 46 
f 45 109 110 
f 46 111 47 
f 46 110 111 
f 47 112 48 
f 47 111 112 
f 48 113 49 
f 48 112 113 
f 49 114 50 
f 49 113 114 
f 50 115 51 
f 50 114 115 
f 51 116 52 
f 51 115 116 
f 52 117 53 
f 52 116 117 
f 53 118 54 
f 53 117 118 
f 54 119 55 
f 54 118 119 
f 55 120 56 
f 55 119 120 
f 56 121 57 
f 56 120 121 
f 57 122 58 
f 57 121 122 
f 58 123 59 
f 58 122 123 
f 59 124 60 
f 59 123 124 
f 60 125 61 
f 60 124 125 
f 61 126 62 
f 61 125 126 
f 62 127 63 
f 62 126 127 
f 63 128 64 
f 63 127 128 
f 64 65 1 
f 64 128 65 
f 65 130 66 
f 65 129 130 
f 66 131 67 
f 66 130 131 
f 67 132 68 
f 67 131 132 
f 68 133 69 
f 68 132 133 
f 69 134 70 
f 69 133 134 
f 70 135 71 
f 70 134 135 
f 71 136 72 
f 71 135 136 
f 72 137 73 
f 72 136 137 
f 73 138 74 
f 73 137 138 
f 74 139 75 
f 74 138 139 
f 75 140 76 
f 75 139 140 
f 76 141 77 
f 76 140 141 
f 77 142 78 
f 77 141 142 
f 78 143 79 
f 78 142 143 
f 79 144 80 
f 79 143 144 
f 80 145 81 
f 80 144 145 
f 81 146 82 
f 81 145 146 
f 82 147 83 
f 82 146 147 
f 83 148 84 
f 83 147 148 
f 84 149 85 
f 84 148 149 
f 85 150 86 
f 85 149 150 
f 86 151 87 
f 86 150 151 
f 87 152 88 
f 87 151 152 
f 88 153 89 
f 88 152 153 
f 89 154 90 
f 89 153 154 
f 90 155 91 
f 90 154 155 
f 91 156 92 
f 91 155 156 
f 92 157 93 
f 92 156 157 
f 93 158 94 
f 93 157 158 
f 94 159 95 
f 94 158 159 
f 95 160 96 
f 95 159 160 
f 96 161 97 
f 96 160 161 
f 97 162 98 
f 97 161 162 
f 98 163 99 
f 98 162 163 
f 99 164 100 
f 99 163 164 
f 100 165 101 
f 100 164 165 
f 101 166 102 
f 101 165 166 
f 102 167 103 
f 102 166 167 
f 103 168 104 
f 103 167 168 
f 104 169 105 
f 104 168 169 
f 105 170 106 
f 105 169 170 
f 106 171 107 
f 106 170 171 
f 107 172 108 
f 107 171 172 
f 108 173 109 
f 108 172 173 
f 109 174 110 
f 109 173 174 
f 110 175 111 
f 110 174 175 
f 111 176 112 
f 111 175 176 
f 112 177 113 
f 112 176 177 
f 113 178 114 
f 113 177 178 
f 114 179 115 
f 114 178 179 
f 115 180 116 
f 115 179 180 
f 116 181 117 
f 116 180 181 
f 117 182 118 
f 117 181 182 
f 118 183 119 
f 118 182 183 
f 119 184 120 
f 119 183 184 
f 120 185 121 
f 120 184 185 
f 121 186 122 
f 121 185 186 
f 122 187 123 
f 122 186 187 
f 123 188 124 
f 123 187 188 
f 124 189 125 
f 124 188 189 
f 125 190 126 
f 125 189 190 
f 126 191 127 
f 126 190 191 
f 127 192 128 
f 127 191 192 
f 128 129 65 
f 128 192 129 
f 129 194 130 
f 129 193 194 
f 130 195 131 
f 130 194 195 
f 131 196 132 
f 131 195 196 
f 132 197 133 
f 132 196 197 
f 133 198 134 
f 133 197 198 
f 134 199 135 
f 134 198 199 
f 135 200 136 
f 135 199 200 
f 136 201 137 
f 136 200 201 
f 137 202 138 
f 137 201 202 
f 138 203 139 
f 138 202 203 
f 139 204 140 
f 139 203 204 
f 140 205 141 
f 140 204 205 
f 141 206 142 
f 141 205 206 
f 142 207 143 
f 142 206 207 
f 143 208 144 
f 143 207 208 
f 144 209 145 
f 144 208 209 
f 145 210 146 
f 145 209 210 
f 146 211 147 
f 146 210 211 
f 147 212 148 
f 147 211 212 
f 148 213 149 
f 148 212 213 
f 149 214 150 
f 149 213 214 
f 150 215 151 
f 150 214 215 
f 151 216 152 
f 151 215 216 
f 152 217 153 
f 152 216 217 
f 153 218 154 
f 153 217 218 
f 154 219 155 
f 154 218 219 
f 155 220 156 
f 155 219 220 
f 156 221 157 
f 156 220 221 
f 157 222 158 
f 157 221 222 
f 158 223 159 
f 158 222 223 
f 159 224 160 
f 159 223 224 
f 160 225 161 
f 160 224 225 
f 161 226 162 
f 161 225 226 
f 162 227 163 
f 162 226 227 
f 163 228 164 
f 163 227 228 
f 164 229 165 
f 164 228 229 
f 165 230 166 
f 165 229 230 
f 166 231 167 
f 166 230 231 
f 167 232 168 
f 167 231 232 
f 168 233 169 
f 168 232 233 
f 169 234 170 
f 169 233 234 
f 170 235 171 
f 170 234 235 
f 171 236 172 
f 171 235 236 
f 172 237 173 
f 172 236 237 
f 173 238 174 
f 173 237 238 
f 174 239 175 
f 174 238 239 
f 175 240 176 
f 175 239 240 
f 176 241 177 
f 176 240 241 
f 177 242 178 
f 177 241 242 
f 178 243 179 
f 178 242 243 
f 179 244 180 
f 179 243 244 
f 180 245 181 
f 180 244 245 
f 181 246 182 
f 181 245 246 
f 182 247 183 
f 182 246 247 
f 183 248 184 
f 183 247 248 
f 184 249 185 
f 184 248 249 
f 185 250 186 
f 185 249 250 
f 186 251 187 
f 186 250 251 
f 187 252 188 
f 187 251 252 
f 188 253 189 
f 188 252 253 
f 189 254 190 
f 189 253 254 
f 190 255 191 
f 190 254 255 
f 191 256 192 
f 191 255 256 
f 192 193 129 
f 192 256 193 
f 193 258 194 
f 193 257 258 
f 194 259 195 
f 194 258 259 
f 195 260 196 
f 195 259 260 
f 196 261 197 
f 196 260 261 
f 197 262 198 
f 197 261 262 
f 198 263 199 
f 198 262 263 
f 199 264 200 
f 199 263 264 
f 200 265 201 
f 200 264 265 
f 201 266 202 
f 201 265 266 
f 202 267 203 
f 202 266 267 
f 203 268 204 
f 203 267 268 
f 204 269 205 
f 204 268 269 
f 205 270 206 
f 205 269 270 
f 206 271 207 
f 206 270 271 
f 207 272 208 
f 207 271 272 
f 208 273 209 
f 208 272 273 
f 209 274 210 
f 209 273 274 
f 210 275 211 
f 210 274 275 
f 211 276 212 
f 211 275 276 
f 212 277 213 
f 212 276 277 
f 213 278 214 
f 213 277 278 
f 214 279 215 
f 214 278 279 
f 215 280 216 
f 215 279 280 
f 216 281 217 
f 216 280 281 
f 217 282 218 
f 217 281 282 
f 218 283 219 
f 218 282 283 
f 219 284 220 
f 219 283 284 
f 220 285 221 
f 220 284 285 
f 221 286 222 
f 221 285 286 
f 222 287 223 
f 222 286 287 
f 223 288 224 
f 223 287 288 
f 224 289 225 
f 224 288 289 
f 225 290 226 
f 225 289 290 
f 226 291 227 
f 226 290 291 
f 227 292 228 
f 227 291 292 
f 228 293 229 
f 228 292 293 
f 229 294 230 
f 229 293 294 
f 230 295 231 
f 230 294 295 
f 231 296 232 
f 231 295 296 
f 232 297 233 
f 232 296 297 
f 233 298 234 
f 233 297 298 
f 234 299 235 
f 234 298 299 
f 235 300 236 
f 235 299 300 
f 236 301 237 
f 236 300 301 
f 237 302 238 
f 237 301 302 
f 238 303 239 
f 238 302 303 
f 239 304 240 
f 239 303 304 
f 240 305 241 
f 240 304 305 
f 241 306 242 
f 241 305 306 
f 242 307 243 
f 242 306 307 
f 243 308 244 
f 243 307 308 
f 244 309 245 
f 244 308 309 
f 245 310 246 
f 245 309 310 
f 246 311 247 
f 246 310 311 
f 247 312 248 
f 247 311 312 
f 248 313 249 
f 248 312 313 
f 249 314 250 
f 249 313 314 
f 250 315 251 
f 250 314 315 
f 251 316 252 
f 251 315 316 
f 252 317 253 
f 252 316 317 
f 253 318 254 
f 253 317 318 
f 254 319 255 
f 254 318 319 
f 255 320 256 
f 255 319 320 
f 256 257 193 
f 256 320 257 
f 257 322 258 
f 257 321 322 
f 258 323 259 
f 258 322 323 
f 259 324 260 
f 259 323 324 
f 260 325 261 
f 260 324 325 
f 261 326 262 
f 261 325 326 
f 262 327 263 
f 262 326 327 
f 263 328 264 
f 263 327 328 
f 264 329 265 
f 264 328 329 
f 265 330 266 
f 265 329 330 
f 266 331 267 
f 266 330 331 
f 267 332 268 
f 267 331 332 
f 268 333 269 
f 268 332 333 
f 269 334 270 
f 269 333 334 
f 270 335 271 
f 270 334 335 
f 271 336 272 
f 271 335 336 
f 272 337 273 
f 272 336 337 
f 273 338 274 
f 273 337 338 
f 274 339 275 
f 274 338 339 
f 275 340 276 
f 275 339 340 
f 276 341 277 
f 276 340 341 
f 277 342 278 
f 277 341 342 
f 278 343 279 
f 278 342 343 
f 279 344 280 
f 279 343 344 
f 280 345 281 
f 280 344 345 
f 281 346 282 
f 281 345 346 
f 282 347 283 
f 282 346 347 
f 283 348 284 
f 283 347 348 
f 284 349 285 
f 284 348 349 
f 285 350 286 
f 285 349 350 
f 286 351 287 
f 286 350 351 
f 287 352 288 
f 287 351 352 
f 288 353 289 
f 288 352 353 
f 289 354 290 
f 289 353 354 
f 290 355 291 
f 290 354 355 
f 291 356 292 
f 291 355 356 
f 292 357 293 
f 292 356 357 
f 293 358 294 
f 293 357 358 
f 294 359 295 
f 294 358 359 
f 295 360 296 
f 295 359 360 
f 296 361 297 
f 296 360 361 
f 297 362 298 
f 297 361 362 
f 298 363 299 
f 298 362 363 
f 299 364 300 
f 299 363 364 
f 300 365 301 
f 300 364 365 
f 301 366 302 
f 301 365 366 
f 302 367 303 
f 302 366 367 
f 303 368 304 
f 303 367 368 
f 304 369 305 
f 304 368 369 
f 305 370 306 
f 305 369 370 
f 306 371 307 
f 306 370 371 
f 307 372 308 
f 307 371 372 
f 308 373 309 
f 308 372 373 
f 309 374 310 
f 309 373 374 
f 310 375 311 
f 310 374 375 
f 311 376 312 
f 311 375 376 
f 312 377 313 
f 312 376 377 
f 313 378 314 
f 313 377 378 
f 314 379 315 
f 314 378 379 
f 315 380 316 
f 315 379 380 
f 316 381 317 
f 316 380 381 
f 317 382 318 
f 317 381 382 
f 318 383 319 
f 318 382 383 
f 319 384 320 
f 319 383 384 
f 320 321 257 
f 320 384 321 
f 321 386 322 
f 321 385 386 
f 322 387 323 
f 322 386 387 
f 323 388 324 
f 323 387 388 
f 324 389 325 
f 324 388 389 
f 325 390 326 
f 325 389 390 
f 326 391 327 
f 326 390 391 
f 327 392 328 
f 327 391 392 
f 328 393 329 
f 328 392 393 
f 329 394 330 
f 329 393 394 
f 330 395 331 
f 330 394 395 
f 331 396 332 
f 331 395 396 
f 332 397 333 
f 332 396 397 
f 333 398 334 
f 333 397 398 
f 334 399 335 
f 334 398 399 
f 335 400 336 
f 335 399 400 
f 336 401 337 
f 336 400 401 
f 337 402 338 
f 337 401 402 
f 338 403 339 
f 338 402 403 
f 339 404 340 
f 339 403 404 
f 340 405 341 
f 340 404 405 
f 341 406 342 
f 341 405 406 
f 342 407 343 
f 342 406 407 
f 343 408 344 
f 343 407 408 
f 344 409 345 
f 344 408 409 
f 345 410 346 
f 345 409 410 
f 346 411 347 
f 346 410 411 
f 347 412 348 
f 347 411 412 
f 348 413 349 
f 348 412 413 
f 349 414 350 
f 349 413 414 
f 350 415 351 
f 350 414 415 
f 351 416 352 
f 351 415 416 
f 352 417 353 
f 352 416 417 
f 353 418 354 
f 353 417 418 
f 354 419 355 
f 354 418 419 
f 355 420 356 
f 355 419 420 
f 356 421 357 
f 356 420 421 
f 357 422 358 
f 357 421 422 
f 358 423 359 
f 358 422 423 
f 359 424 360 
f 359 423 424 
f 360 425 361 
f 360 424 425 
f 361 426 362 
f 361 425 426 
f 362 427 363 
f 362 426 427 
f 363 428 364 
f 363 427 428 
f 364 429 365 
f 364 428 429 
f 365 430 366 
f 365 429 430 
f 366 431 367 
f 366 430 431 
f 367 432 368 
f 367 431 432 
f 368 433 369 
f 368 432 433 
f 369 434 370 
f 369 433 434 
f 370 435 371 
f 370 434 435 
f 371 436 372 
f 371 435 436 
f 372 437 373 
f 372 436 437 
f 373 438 374 
f 373 437 438 
f 374 439 375 
f 374 438 439 
f 375 440 376 
f 375 439 440 
f 376 441 377 
f 376 440 441 
f 377 442 378 
f 377 441 442 
f 378 443 379 
f 378 442 443 
f 379 444 380 
f 379 443 444 
f 380 445 381 
f 380 444 445 
f 381 446 382 
f 381 445 446 
f 382 447 383 
f 382 446 447 
f 383 448 384 
f 383 447 448 
f 384 385 321 
f 384 448 385 
f 385 450 386 
f 385 449 450 
f 386 451 387 
f 386 450 451 
f 387 452 388 
f 387 451 452 
f 388 453 389 
f 388 452 453 
f 389 454 390 
f 389 453 454 
f 390 455 391 
f 390 454 455 
f 391 456 392 
f 391 455 456 
f 392 457 393 
f 392 456 457 
f 393 458 394 
f 393 457 458 
f 394 459 395 
f 394 458 459 
f 395 460 396 
f 395 459 460 
f 396 461 397 
f 396 460 461 
f 397 462 398 
f 397 461 462 
f 398 463 399 
f 398 462 463 
f 399 464 400 
f 399 463 464 
f 400 465 401 
f 400 464 465 
f 401 466 402 
f 401 465 466 
f 402 467 403 
f 402 466 467 
f 403 468 404 
f 403 467 468 
f 404 469 405 
f 404 468 469 
f 405 470 406 
f 405 469 470 
f 406 471 407 
f 406 470 471 
f 407 472 408 
f 407 471 472 
f 408 473 409 
f 408 472 473 
f 409 474 410 
f 409 473 474 
f 410 475 411 
f 410 474 475 
f 411 476 412 
f 411 475 476 
f 412 477 413 
f 412 476 477 
f 413 478 414 
f 413 477 478 
f 414 479 415 
f 414 478 479 
f 415 480 416 
f 415 479 480 
f 416 481 417 
f 416 480 481 
f 417 482 418 
f 417 481 482 
f 418 483 419 
f 418 482 483 
f 419 484 420 
f 419 483 484 
f 420 485 421 
f 420 484 485 
f 421 486 422 
f 421 485 486 
f 422 487 423 
f 422 486 487 
f 423 488 424 
f 423 487 488 
f 424 489 425 
f 424 488 489 
f 425 490 426 
f 425 489 490 
f 426 491 427 
f 426 490 491 
f 427 492 428 
f 427 491 492 
f 428 493 429 
f 428 492 493 
f 429 494 430 
f 429 493 494 
f 430 495 431 
f 430 494 495 
f 431 496 432 
f 431 495 496 
f 432 497 433 
f 432 496 497 
f 433 498 434 
f 433 497 498 
f 434 499 435 
f 434 498 499 
f 435 500 436 
f 435 499 500 
f 436 501 437 
f 436 500 501 
f 437 502 438 
f 437 501 502 
f 438 503 439 
f 438 502 503 
f 439 504 440 
f 439 503 504 
f 440 505 441 
f 440 504 505 
f 441 506 442 
f 441 505 506 
f 442 507 443 
f 442 506 507 
f 443 508 444 
f 443 507 508 
f 444 509 445 
f 444 508 509 
f 445 510 446 
f 445 509 510 
f 446 511 447 
f 446 510 511 
f 447 512 448 
f 447 511 512 
f 448 449 385 
f 448 512 449 
f 449 514 450 
f 449 513 514 
f 450 515 451 
f 450 514 515 
f 451 516 452 
f 451 515 516 
f 452 517 453 
f 452 516 517 
f 453 518 454 
f 453 517 518 
f 454 519 455 
f 454 518 519 
f 455 520 456 
f 455 519 520 
f 456 521 457 
f 456 520 521 
f 457 522 458 
f 457 521 522 
f 458 523 459 
f 458 522 523 
f 459 524 460 
f 459 523 524 
f 460 525 461 
f 460 524 525 
f 461 526 462 
f 461 525 526 
f 462 527 463 
f 462 526 527 
f 463 528 464 
f 463 527 528 
f 464 529 465 
f 464 528 529 
f 465 530 466 
f 465 529 530 
f 466 531 467 
f 466 530 531 
f 467 532 468 
f 467 531 532 
f 468 533 469 
f 468 532 533 
f 469 534 470 
f 469 533 534 
f 470 535 471 
f 470 534 535 
f 471 536 472 
f 471 535 536 
f 472 537 473 
f 472 536 537 
f 473 538 474 
f 473 537 538 
f 474 539 475 
f 474 538 539 
f 475 540 476 
f 475 539 540 
f 476 541 477 
f 476 540 541 
f 477 542 478 
f 477 541 542 
f 478 543 479 
f 478 542 543 
f 479 544 480 
f 479 543 544 
f 480 545 481 
f 480 544 545 
f 481 546 482 
f 481 545 546 
f 482 547 483 
f 482 546 547 
f 483 548 484 
f 483 547 548 
f 484 549 485 
f 484 548 549 
f 485 550 486 
f 485 549 550 
f 486 551 487 
f 486 550 551 
f 487 552 488 
f 487 551 552 
f 488 553 489 
f 488 552 553 
f 489 554 490 
f 489 553 554 
f 490 555 491 
f 490 554 555 
f 491 556 492 
f 491 555 556 
f 492 557 493 
f 492 556 557 
f 493 558 494 
f 493 557 558 
f 494 559 495 
f 494 558 559 
f 495 560 496 
f 495 559 560 
f 496 561 497 
f 496 560 561 
f 497 562 498 
f 497 561 562 
f 498 563 499 
f 498 562 563 
f 499 564 500 
f 499 563 564 
f 500 565 501 
f 500 564 565 
f 501 566 502 
f 501 565 566 
f 502 567 503 
f 502 566 567 
f 503 568 504 
f 503 567 568 
f 504 569 505 
f 504 568 569 
f 505 570 506 
f 505 569 570 
f 506 571 507 
f 506 570 571 
f 507 572 508 
f 507 571 572 
f 508 573 509 
f 508 572 573 
f 509 574 510 
f 509 573 574 
f 510 575 511 
f 510 574 575 
f 511 576 512 
f 511 575 576 
f 512 513 449 
f 512 576 513 
f 513 578 514 
f 513 577 578 
f 514 579 515 
f 514 578 579 
f 515 580 516 
f 515 579 580 
f 516 581 517 
f 516 580 581 
f 517 582 518 
f 517 581 582 
f 518 583 519 
f 518 582 583 
f 519 584 520 
f 519 583 584 
f 520 585 521 
f 520 584 585 
f 521 586 522 
f 521 585 586 
f 522 587 523 
f 522 586 587 
f 523 588 524 
f 523 587 588 
f 524 589 525 
f 524 588 589 
f 525 590 526 
f 525 589 590 
f 526 591 527 
f 526 590 591 
f 527 592 528 
f 527 591 592 
f 528 593 529 
f 528 592 593 
f 529 594 530 
f 529 593 594 
f 530 595 531 
f 530 594 595 
f 531 596 532 
f 531 595 596 
f 532 597 533 
f 532 596 597 
f 533 598 534 
f 533 597 598 
f 534 599 535 
f 534 598 599 
f 535 600 536 
f 535 599 600 
f 536 601 537 
f 536 600 601 
f 537 602 538 
f 537 601 602 
f 538 603 539 
f 538 602 603 
f 539 604 540 
f 539 603 604 
f 540 605 541 
f 540 604 605 
f 541 606 542 
f 541 605 606 
f 542 607 543 
f 542 606 607 
f 543 608 544 
f 543 607 608 
f 544 609 545 
f 544 608 609 
f 545 610 546 
f 545 609 610 
f 546 611 547 
f 546 610 611 
f 547 612 548 
f 547 611 612 
f 548 613 549 
f 548 612 613 
f 549 614 550 
f 549 613 614 
f 550 615 551 
f 550 614 615 
f 551 616 552 
f 551 615 616 
f 552 617 553 
f 552 616 617 
f 553 618 554 
f 553 617 618 
f 554 619 555 
f 554 618 619 
f 555 620 556 
f 555 619 620 
f 556 621 557 
f 556 620 621 
f 557 622 558 
f 557 621 622 
f 558 623 559 
f 558 622 623 
f 559 624 560 
f 559 623 624 
f 560 625 561 
f 560 624 625 
f 561 626 562 
f 561 625 626 
f 562 627 563 
f 562 626 627 
f 563 628 564 
f 563 627 628 
f 564 629 565 
f 564 628 629 
f 565 630 566 
f 565 629 630 
f 566 631 567 
f 566 630 631 
f 567 632 568 
f 567 631 632 
f 568 633 569 
f 568 632 633 
f 569 634 570 
f 569 633 634 
f 570 635 571 
f 570 634 635 
f 571 636 572 
f 571 635 636 
f 572 637 573 
f 572 636 637 
f 573 638 574 
f 573 637 638 
f 574 639 575 
f 574 638 639 
f 575 640 576 
f 575 639 640 
f 576 577 513 
f 576 640 577 
