# Branch
v -3.78069 4.70888 -33.3257
vn -0.104683 -0.165611 -0.980619
v -3.80044 4.67722 -33.3164
vn -0.155062 -0.246358 -0.956694
v -3.8196 4.6465 -33.3034
vn -0.203948 -0.324733 -0.923555
v -3.83799 4.617 -33.2869
vn -0.25087 -0.39998 -0.881522
v -3.85544 4.58902 -33.2671
vn -0.295375 -0.471375 -0.830999
v -3.87177 4.56281 -33.2441
vn -0.337036 -0.53823 -0.772473
v -3.88683 4.53864 -33.2183
vn -0.375451 -0.599902 -0.706508
v -3.90047 4.51673 -33.1898
vn -0.410251 -0.655796 -0.633739
v -3.91256 4.49729 -33.1588
vn -0.441099 -0.705375 -0.554867
v -3.92299 4.48052 -33.1258
vn -0.4677 -0.748161 -0.470651
v -3.93165 4.46657 -33.091
vn -0.489796 -0.783742 -0.381902
v -3.93846 4.45558 -33.0548
vn -0.507175 -0.811774 -0.289475
v -3.94336 4.44766 -33.0175
vn -0.51967 -0.831989 -0.194261
v -3.9463 4.44288 -32.9794
vn -0.52716 -0.844191 -0.0971756
v -3.94724 4.44128 -32.941
vn -0.529573 -0.848264 0.000845531
v -3.94619 4.44289 -32.9026
vn -0.526887 -0.844167 0.0988585
v -3.94315 4.44768 -32.8645
vn -0.519126 -0.83194 0.195919
v -3.93814 4.45561 -32.8272
vn -0.506365 -0.811701 0.291094
v -3.93123 4.46661 -32.791
vn -0.488728 -0.783645 0.383464
v -3.92247 4.48057 -32.7563
vn -0.466384 -0.748043 0.472142
v -3.91195 4.49735 -32.7233
vn -0.439549 -0.705236 0.556273
v -3.89977 4.51679 -32.6924
vn -0.408481 -0.655637 0.635046
v -3.88605 4.53871 -32.6639
vn -0.373478 -0.599724 0.707704
v -3.87092 4.56289 -32.6381
vn -0.334879 -0.538036 0.773546
v -3.85453 4.5891 -32.6152
vn -0.293055 -0.471165 0.831939
v -3.83703 4.61709 -32.5955
vn -0.248409 -0.399758 0.882319
v -3.81859 4.64659 -32.5791
vn -0.20137 -0.3245 0.924202
v -3.79939 4.67732 -32.5661
vn -0.152392 -0.246118 0.957185
v -3.77961 4.70897 -32.5568
vn -0.101946 -0.165365 0.980949
v -3.75945 4.74125 -32.5512
vn -0.0505188 -0.0830192 0.995267
v -3.73911 4.77384 -32.5493
vn 0.00139516 0.000125774 0.999999
v -3.71876 4.80644 -32.5513
vn 0.0532957 0.0832696 0.995101
v -3.69862 4.83871 -32.5569
vn 0.104683 0.165611 0.980619
v -3.67887 4.87036 -32.5663
vn 0.155062 0.246358 0.956694
v -3.65971 4.90109 -32.5793
vn 0.203948 0.324733 0.923555
v -3.64131 4.93058 -32.5958
vn 0.25087 0.39998 0.881522
v -3.62387 4.95857 -32.6156
vn 0.295375 0.471375 0.830999
v -3.60754 4.98478 -32.6385
vn 0.337036 0.53823 0.772473
v -3.59248 5.00895 -32.6644
vn 0.375451 0.599902 0.706508
v -3.57884 5.03086 -32.6929
vn 0.410251 0.655796 0.633739
v -3.56674 5.0503 -32.7238
vn 0.441099 0.705375 0.554867
v -3.55632 5.06707 -32.7568
vn 0.4677 0.748161 0.470651
v -3.54766 5.08102 -32.7916
vn 0.489796 0.783742 0.381902
v -3.54084 5.092 -32.8279
vn 0.507175 0.811774 0.289475
v -3.53594 5.09993 -32.8652
vn 0.51967 0.831989 0.194261
v -3.53301 5.10471 -32.9032
vn 0.52716 0.844191 0.0971756
v -3.53206 5.10631 -32.9417
vn 0.529573 0.848264 -0.000845531
v -3.53312 5.1047 -32.9801
vn 0.526887 0.844167 -0.0988585
v -3.53616 5.09991 -33.0181
vn 0.519126 0.83194 -0.195919
v -3.54116 5.09198 -33.0554
vn 0.506365 0.811701 -0.291094
v -3.54807 5.08098 -33.0917
vn 0.488728 0.783645 -0.383464
v -3.55683 5.06702 -33.1264
vn 0.466384 0.748043 -0.472142
v -3.56735 5.05024 -33.1594
vn 0.439549 0.705236 -0.556273
v -3.57953 5.0308 -33.1903
vn 0.408481 0.655637 -0.635046
v -3.59325 5.00888 -33.2188
vn 0.373478 0.599724 -0.707704
v -3.60838 4.9847 -33.2446
vn 0.334879 0.538036 -0.773546
v -3.62478 4.95849 -33.2675
vn 0.293055 0.471165 -0.831939
v -3.64228 4.9305 -33.2872
vn 0.248409 0.399758 -0.882319
v -3.66072 4.901 -33.3036
vn 0.20137 0.3245 -0.924202
v -3.67992 4.87027 -33.3166
vn 0.152392 0.246118 -0.957185
v -3.69969 4.83862 -33.3259
vn 0.101946 0.165365 -0.980949
v -3.71985 4.80634 -33.3315
vn 0.0505188 0.0830192 -0.995267
v -3.7402 4.77374 -33.3333
vn -0.00139516 -0.000125774 -0.999999
v -3.76054 4.74115 -33.3314
vn -0.0532957 -0.0832696 -0.995101
v -2.96894 4.21436 -33.2747
vn -0.0222177 -0.216014 -0.976137
v -2.98848 4.18339 -33.2655
vn -0.0729939 -0.296518 -0.952234
v -3.00774 4.15352 -33.2528
vn -0.123067 -0.374167 -0.919159
v -3.02655 4.12503 -33.2367
vn -0.171955 -0.448212 -0.877233
v -3.04472 4.0982 -33.2173
vn -0.219187 -0.51794 -0.826858
v -3.06208 4.0733 -33.1948
vn -0.264308 -0.582681 -0.768521
v -3.07846 4.05055 -33.1696
vn -0.306884 -0.64181 -0.702782
v -3.0937 4.03018 -33.1417
vn -0.346504 -0.694758 -0.630275
v -3.10766 4.01238 -33.1114
vn -0.382787 -0.741015 -0.551697
v -3.1202 3.99733 -33.0792
vn -0.415384 -0.780136 -0.467807
v -3.1312 3.98517 -33.0451
vn -0.443981 -0.811744 -0.379412
v -3.14056 3.97602 -33.0097
vn -0.468301 -0.835534 -0.287363
v -3.14818 3.96996 -32.9733
vn -0.488112 -0.851277 -0.192546
v -3.154 3.96706 -32.9361
vn -0.503222 -0.858822 -0.0958746
v -3.15795 3.96734 -32.8985
vn -0.513485 -0.858097 0.0017199
v -3.15999 3.97079 -32.861
vn -0.518804 -0.849107 0.0992978
v -3.16012 3.9774 -32.8238
vn -0.519126 -0.83194 0.195919
v -3.15832 3.98709 -32.7874
vn -0.514448 -0.806761 0.290654
v -3.15461 3.99976 -32.752
vn -0.504816 -0.773812 0.38259
v -3.14903 4.01531 -32.718
vn -0.490323 -0.733411 0.470841
v -3.14164 4.03357 -32.6858
vn -0.471107 -0.685947 0.554558
v -3.1325 4.05437 -32.6557
vn -0.447355 -0.631877 0.632934
v -3.12171 4.07751 -32.6279
vn -0.419294 -0.571722 0.705214
v -3.10936 4.10277 -32.6027
vn -0.387195 -0.506061 0.770703
v -3.09557 4.12991 -32.5803
vn -0.351367 -0.435526 0.828769
v -3.08049 4.15866 -32.5611
vn -0.312155 -0.360796 0.878854
v -3.06425 4.18875 -32.545
vn -0.269937 -0.282592 0.920476
v -3.047 4.21988 -32.5324
vn -0.22512 -0.201667 0.953232
v -3.02893 4.25176 -32.5234
vn -0.178134 -0.118799 0.976809
v -3.01019 4.28409 -32.5179
vn -0.129433 -0.0347871 0.990978
v -2.99097 4.31654 -32.5161
vn -0.0794856 0.0495597 0.995603
v -2.97146 4.3488 -32.5181
vn -0.0287725 0.133429 0.990641
v -2.95185 4.38058 -32.5236
vn 0.0222177 0.216014 0.976137
v -2.93231 4.41155 -32.5328
vn 0.0729939 0.296518 0.952234
v -2.91305 4.44142 -32.5456
vn 0.123067 0.374167 0.919159
v -2.89424 4.46991 -32.5617
vn 0.171955 0.448212 0.877233
v -2.87607 4.49674 -32.5811
vn 0.219187 0.51794 0.826858
v -2.85871 4.52164 -32.6035
vn 0.264308 0.582681 0.768521
v -2.84233 4.54439 -32.6288
vn 0.306884 0.64181 0.702782
v -2.82708 4.56476 -32.6567
vn 0.346504 0.694758 0.630275
v -2.81312 4.58256 -32.6869
vn 0.382787 0.741015 0.551697
v -2.80058 4.59761 -32.7192
vn 0.415384 0.780136 0.467807
v -2.78958 4.60977 -32.7532
vn 0.443981 0.811744 0.379412
v -2.78022 4.61892 -32.7886
vn 0.468301 0.835534 0.287363
v -2.7726 4.62498 -32.8251
vn 0.488112 0.851277 0.192546
v -2.76679 4.62788 -32.8623
vn 0.503222 0.858822 0.0958746
v -2.76284 4.6276 -32.8998
vn 0.513485 0.858097 -0.0017199
v -2.76079 4.62415 -32.9374
vn 0.518804 0.849107 -0.0992978
v -2.76067 4.61754 -32.9746
vn 0.519126 0.83194 -0.195919
v -2.76247 4.60785 -33.011
vn 0.514448 0.806761 -0.290654
v -2.76618 4.59518 -33.0464
vn 0.504816 0.773812 -0.38259
v -2.77175 4.57963 -33.0803
vn 0.490323 0.733411 -0.470841
v -2.77914 4.56137 -33.1125
vn 0.471107 0.685947 -0.554558
v -2.78828 4.54057 -33.1427
vn 0.447355 0.631877 -0.632934
v -2.79908 4.51743 -33.1705
vn 0.419294 0.571722 -0.705214
v -2.81143 4.49217 -33.1957
vn 0.387195 0.506061 -0.770703
v -2.82521 4.46503 -33.218
vn 0.351367 0.435526 -0.828769
v -2.8403 4.43628 -33.2373
vn 0.312155 0.360796 -0.878854
v -2.85654 4.40619 -33.2533
vn 0.269937 0.282592 -0.920476
v -2.87378 4.37506 -33.2659
vn 0.22512 0.201667 -0.953232
v -2.89186 4.34318 -33.275
vn 0.178134 0.118799 -0.976809
v -2.9106 4.31085 -33.2804
vn 0.129433 0.0347871 -0.990978
v -2.92981 4.2784 -33.2822
vn 0.0794856 -0.0495597 -0.995603
v -2.94932 4.24614 -33.2803
vn 0.0287725 -0.133429 -0.990641
v -2.15927 3.7423 -33.1339
vn 0.0611296 -0.26478 -0.962369
v -2.17859 3.712 -33.1249
vn 0.009952 -0.345049 -0.938532
v -2.19794 3.68296 -33.1125
vn -0.0413214 -0.421995 -0.905656
v -2.21715 3.65545 -33.0968
vn -0.0921969 -0.494878 -0.864058
v -2.23602 3.62974 -33.0779
vn -0.142184 -0.562994 -0.814138
v -2.25437 3.60607 -33.0561
vn -0.190803 -0.625689 -0.756378
v -2.27203 3.58468 -33.0316
vn -0.237583 -0.682357 -0.691334
v -2.28882 3.56577 -33.0045
vn -0.282076 -0.732455 -0.619632
v -2.30459 3.54952 -32.9752
vn -0.323852 -0.775498 -0.541962
v -2.31918 3.53609 -32.9439
vn -0.362509 -0.811073 -0.459073
v -2.33245 3.52562 -32.911
vn -0.397675 -0.838837 -0.371763
v -2.34428 3.51818 -32.8767
vn -0.429012 -0.858522 -0.280872
v -2.35455 3.51387 -32.8413
vn -0.456216 -0.869939 -0.187277
v -2.36316 3.51273 -32.8053
vn -0.479027 -0.872978 -0.0918779
v -2.37003 3.51475 -32.769
vn -0.497225 -0.86761 0.00440592
v -2.37509 3.51993 -32.7326
vn -0.510634 -0.853887 0.100647
v -2.3783 3.52822 -32.6967
vn -0.519126 -0.83194 0.195919
v -2.37962 3.53953 -32.6614
vn -0.522618 -0.801981 0.289305
v -2.37903 3.55375 -32.6272
vn -0.521077 -0.764299 0.379904
v -2.37656 3.57075 -32.5944
vn -0.514517 -0.719255 0.466844
v -2.37221 3.59037 -32.5633
vn -0.503003 -0.667286 0.549289
v -2.36604 3.61241 -32.5342
vn -0.486644 -0.608889 0.626443
v -2.35809 3.63667 -32.5073
vn -0.465599 -0.544629 0.697565
v -2.34846 3.6629 -32.483
vn -0.44007 -0.475124 0.761968
v -2.33722 3.69087 -32.4615
vn -0.410302 -0.401043 0.819034
v -2.32449 3.72029 -32.4429
vn -0.376584 -0.3231 0.868212
v -2.3104 3.75088 -32.4275
vn -0.339238 -0.242045 0.909028
v -2.29507 3.78236 -32.4154
vn -0.298626 -0.158659 0.94109
v -2.27865 3.81441 -32.4067
vn -0.255137 -0.0737452 0.964089
v -2.26131 3.84673 -32.4016
vn -0.209192 0.0118789 0.977803
v -2.24321 3.87901 -32.3999
vn -0.161231 0.0973885 0.9821
v -2.22452 3.91093 -32.4019
vn -0.111718 0.18196 0.976939
v -2.20542 3.94219 -32.4074
vn -0.0611296 0.26478 0.962369
v -2.1861 3.97249 -32.4164
vn -0.009952 0.345049 0.938532
v -2.16675 4.00153 -32.4288
vn 0.0413214 0.421995 0.905656
v -2.14755 4.02904 -32.4445
vn 0.0921969 0.494878 0.864058
v -2.12868 4.05475 -32.4633
vn 0.142184 0.562994 0.814138
v -2.11033 4.07842 -32.4851
vn 0.190803 0.625689 0.756378
v -2.09267 4.09981 -32.5097
vn 0.237583 0.682357 0.691334
v -2.07587 4.11872 -32.5368
vn 0.282076 0.732455 0.619632
v -2.0601 4.13497 -32.5661
vn 0.323852 0.775498 0.541962
v -2.04551 4.14839 -32.5974
vn 0.362509 0.811073 0.459073
v -2.03224 4.15887 -32.6303
vn 0.397675 0.838837 0.371763
v -2.02041 4.1663 -32.6646
vn 0.429012 0.858522 0.280872
v -2.01014 4.17061 -32.6999
vn 0.456216 0.869939 0.187277
v -2.00153 4.17176 -32.736
vn 0.479027 0.872978 0.0918779
v -1.99466 4.16974 -32.7723
vn 0.497225 0.86761 -0.00440592
v -1.9896 4.16456 -32.8086
vn 0.510634 0.853887 -0.100647
v -1.9864 4.15627 -32.8446
vn 0.519126 0.83194 -0.195919
v -1.98508 4.14496 -32.8798
vn 0.522618 0.801981 -0.289305
v -1.98566 4.13074 -32.914
vn 0.521077 0.764299 -0.379904
v -1.98814 4.11374 -32.9469
vn 0.514517 0.719255 -0.466844
v -1.99248 4.09412 -32.978
vn 0.503003 0.667286 -0.549289
v -1.99866 4.07208 -33.0071
vn 0.486644 0.608889 -0.626443
v -2.0066 4.04782 -33.0339
vn 0.465599 0.544629 -0.697565
v -2.01624 4.02159 -33.0583
vn 0.44007 0.475124 -0.761968
v -2.02747 3.99362 -33.0798
vn 0.410302 0.401043 -0.819034
v -2.0402 3.9642 -33.0984
vn 0.376584 0.3231 -0.868212
v -2.0543 3.93361 -33.1138
vn 0.339238 0.242045 -0.909028
v -2.06963 3.90213 -33.1259
vn 0.298626 0.158659 -0.94109
v -2.08604 3.87008 -33.1345
vn 0.255137 0.0737452 -0.964089
v -2.10338 3.83776 -33.1397
vn 0.209192 -0.0118789 -0.977803
v -2.12149 3.80548 -33.1413
vn 0.161231 -0.0973885 -0.9821
v -2.14018 3.77356 -33.1394
vn 0.111718 -0.18196 -0.976939
v -1.35257 3.29315 -32.9036
vn 0.143014 -0.310546 -0.939739
v -1.37166 3.26352 -32.8948
vn 0.0914422 -0.390595 -0.91601
v -1.39108 3.23528 -32.8828
vn 0.0389897 -0.466882 -0.88346
v -1.41064 3.2087 -32.8676
vn -0.0138383 -0.538673 -0.842401
v -1.43014 3.18405 -32.8494
vn -0.066533 -0.605276 -0.79323
v -1.44941 3.16155 -32.8283
vn -0.118587 -0.666051 -0.73642
v -1.46826 3.14142 -32.8047
vn -0.169499 -0.72041 -0.672517
v -1.4865 3.12387 -32.7786
vn -0.218778 -0.767832 -0.602138
v -1.50397 3.10905 -32.7504
vn -0.265951 -0.807859 -0.52596
v -1.52048 3.09711 -32.7204
vn -0.310562 -0.840106 -0.444716
v -1.53589 3.08817 -32.6887
vn -0.352183 -0.864263 -0.35919
v -1.55004 3.08231 -32.6558
vn -0.390412 -0.880096 -0.270204
v -1.5628 3.07958 -32.6218
vn -0.42488 -0.887453 -0.178616
v -1.57405 3.08002 -32.5873
vn -0.455257 -0.886264 -0.0853085
v -1.58367 3.08362 -32.5525
vn -0.48125 -0.876539 0.00882099
v -1.59158 3.09035 -32.5176
vn -0.502608 -0.858373 0.102866
v -1.59769 3.10014 -32.4832
vn -0.519126 -0.83194 0.195919
v -1.60196 3.11289 -32.4494
vn -0.530644 -0.797495 0.287086
v -1.60433 3.12848 -32.4167
vn -0.537051 -0.75537 0.375489
v -1.60479 3.14677 -32.3853
vn -0.538287 -0.70597 0.460275
v -1.60332 3.16757 -32.3556
vn -0.534339 -0.649772 0.540628
v -1.59996 3.19069 -32.3278
vn -0.525244 -0.587315 0.615775
v -1.59472 3.21591 -32.3021
vn -0.511092 -0.519203 0.684992
v -1.58766 3.24298 -32.279
vn -0.492017 -0.44609 0.747612
v -1.57884 3.27163 -32.2584
vn -0.468203 -0.368682 0.803031
v -1.56836 3.3016 -32.2408
vn -0.439881 -0.287722 0.850718
v -1.5563 3.3326 -32.2262
vn -0.407323 -0.203992 0.890211
v -1.5428 3.36432 -32.2147
vn -0.370841 -0.118297 0.921131
v -1.52797 3.39647 -32.2066
vn -0.330788 -0.031463 0.94318
v -1.51196 3.42873 -32.2018
vn -0.28755 0.0556741 0.956146
v -1.49493 3.46079 -32.2004
vn -0.241542 0.142275 0.959904
v -1.47704 3.49234 -32.2024
vn -0.193209 0.227506 0.954417
v -1.45846 3.52308 -32.2078
vn -0.143014 0.310546 0.939739
v -1.43937 3.55271 -32.2166
vn -0.0914422 0.390595 0.91601
v -1.41995 3.58096 -32.2287
vn -0.0389897 0.466882 0.88346
v -1.40039 3.60753 -32.2439
vn 0.0138383 0.538673 0.842401
v -1.38088 3.63219 -32.2621
vn 0.066533 0.605276 0.79323
v -1.36161 3.65469 -32.2831
vn 0.118587 0.666051 0.73642
v -1.34277 3.67481 -32.3068
vn 0.169499 0.72041 0.672517
v -1.32452 3.69237 -32.3328
vn 0.218778 0.767832 0.602138
v -1.30706 3.70718 -32.361
vn 0.265951 0.807859 0.52596
v -1.29054 3.71912 -32.3911
vn 0.310562 0.840106 0.444716
v -1.27514 3.72807 -32.4228
vn 0.352183 0.864263 0.35919
v -1.26098 3.73393 -32.4557
vn 0.390412 0.880096 0.270204
v -1.24822 3.73665 -32.4896
vn 0.42488 0.887453 0.178616
v -1.23698 3.73621 -32.5241
vn 0.455257 0.886264 0.0853085
v -1.22736 3.73261 -32.559
vn 0.48125 0.876539 -0.00882099
v -1.21945 3.72588 -32.5938
vn 0.502608 0.858373 -0.102866
v -1.21333 3.7161 -32.6283
vn 0.519126 0.83194 -0.195919
v -1.20907 3.70335 -32.662
vn 0.530644 0.797495 -0.287086
v -1.2067 3.68775 -32.6947
vn 0.537051 0.75537 -0.375489
v -1.20624 3.66947 -32.7261
vn 0.538287 0.70597 -0.460275
v -1.2077 3.64866 -32.7559
vn 0.534339 0.649772 -0.540628
v -1.21107 3.62554 -32.7837
vn 0.525244 0.587315 -0.615775
v -1.21631 3.60032 -32.8093
vn 0.511092 0.519203 -0.684992
v -1.22337 3.57326 -32.8325
vn 0.492017 0.44609 -0.747612
v -1.23219 3.5446 -32.853
vn 0.468203 0.368682 -0.803031
v -1.24267 3.51463 -32.8707
vn 0.439881 0.287722 -0.850718
v -1.25472 3.48363 -32.8853
vn 0.407323 0.203992 -0.890211
v -1.26823 3.45191 -32.8967
vn 0.370841 0.118297 -0.921131
v -1.28306 3.41976 -32.9049
vn 0.330788 0.031463 -0.94318
v -1.29906 3.38751 -32.9097
vn 0.28755 -0.0556741 -0.956146
v -1.3161 3.35545 -32.9111
vn 0.241542 -0.142275 -0.959904
v -1.33399 3.3239 -32.909
vn 0.193209 -0.227506 -0.954417
v -0.549582 2.86725 -32.5845
vn 0.221283 -0.352234 -0.909376
v -0.568436 2.83827 -32.5759
vn 0.169334 -0.432083 -0.885794
v -0.587882 2.8108 -32.5643
vn 0.115754 -0.50777 -0.853681
v -0.607732 2.78511 -32.5496
vn 0.0610601 -0.578567 -0.813346
v -0.627796 2.76144 -32.5321
vn 0.00577777 -0.643792 -0.765179
v -0.64788 2.74001 -32.512
vn -0.0495602 -0.702817 -0.709642
v -0.667791 2.72105 -32.4893
vn -0.104421 -0.755073 -0.647272
v -0.687336 2.70472 -32.4644
vn -0.158276 -0.800058 -0.578667
v -0.706329 2.69119 -32.4375
vn -0.210607 -0.837338 -0.50449
v -0.724585 2.68059 -32.4088
vn -0.260909 -0.866554 -0.425454
v -0.74193 2.67301 -32.3787
vn -0.308699 -0.887424 -0.342321
v -0.758195 2.66854 -32.3473
vn -0.353516 -0.899748 -0.255891
v -0.773225 2.66721 -32.315
vn -0.394928 -0.903407 -0.166997
v -0.786875 2.66904 -32.2822
vn -0.432537 -0.898365 -0.0764948
v -0.799012 2.67401 -32.2491
vn -0.465981 -0.884672 0.0147444
v -0.809521 2.68207 -32.216
vn -0.494936 -0.862459 0.105842
v -0.8183 2.69315 -32.1833
vn -0.519126 -0.83194 0.195919
v -0.825265 2.70714 -32.1513
vn -0.538315 -0.793409 0.28411
v -0.830348 2.72389 -32.1203
vn -0.552321 -0.747237 0.369565
v -0.8335 2.74326 -32.0906
vn -0.561007 -0.693869 0.451461
v -0.834692 2.76506 -32.0624
vn -0.564291 -0.633818 0.529009
v -0.833911 2.78907 -32.0361
vn -0.56214 -0.567663 0.601462
v -0.831166 2.81506 -32.0119
vn -0.554575 -0.496042 0.668123
v -0.826482 2.84279 -31.9901
vn -0.54167 -0.419643 0.72835
v -0.819905 2.87198 -31.9708
vn -0.523548 -0.339203 0.781562
v -0.811498 2.90236 -31.9542
vn -0.500384 -0.255496 0.827247
v -0.801342 2.93363 -31.9405
vn -0.472401 -0.169329 0.864966
v -0.789535 2.9655 -31.9298
vn -0.439868 -0.0815308 0.894354
v -0.776191 2.99765 -31.9223
vn -0.403099 0.00705255 0.915129
v -0.761437 3.02977 -31.918
vn -0.362449 0.0955679 0.927091
v -0.745417 3.06156 -31.9169
vn -0.318307 0.183163 0.930125
v -0.728284 3.09272 -31.919
vn -0.2711 0.268994 0.924201
v -0.710203 3.12293 -31.9244
vn -0.221283 0.352234 0.909376
v -0.69135 3.15191 -31.9329
vn -0.169334 0.432083 0.885794
v -0.671904 3.17937 -31.9446
vn -0.115754 0.50777 0.853681
v -0.652054 3.20507 -31.9592
vn -0.0610601 0.578567 0.813346
v -0.63199 3.22874 -31.9767
vn -0.00577777 0.643792 0.765179
v -0.611906 3.25016 -31.9969
vn 0.0495602 0.702817 0.709642
v -0.591995 3.26913 -32.0195
vn 0.104421 0.755073 0.647272
v -0.572449 3.28546 -32.0444
vn 0.158276 0.800058 0.578667
v -0.553457 3.29899 -32.0713
vn 0.210607 0.837338 0.50449
v -0.535201 3.30959 -32.1
vn 0.260909 0.866554 0.425454
v -0.517856 3.31716 -32.1302
vn 0.308699 0.887424 0.342321
v -0.501591 3.32164 -32.1616
vn 0.353516 0.899748 0.255891
v -0.486561 3.32296 -32.1938
vn 0.394928 0.903407 0.166997
v -0.472911 3.32113 -32.2267
vn 0.432537 0.898365 0.0764948
v -0.460774 3.31616 -32.2598
vn 0.465981 0.884672 -0.0147444
v -0.450265 3.3081 -32.2928
vn 0.494936 0.862459 -0.105842
v -0.441486 3.29703 -32.3255
vn 0.519126 0.83194 -0.195919
v -0.434521 3.28304 -32.3575
vn 0.538315 0.793409 -0.28411
v -0.429438 3.26628 -32.3886
vn 0.552321 0.747237 -0.369565
v -0.426285 3.24692 -32.4183
vn 0.561007 0.693869 -0.451461
v -0.425094 3.22512 -32.4464
vn 0.564291 0.633818 -0.529009
v -0.425874 3.20111 -32.4727
vn 0.56214 0.567663 -0.601462
v -0.42862 3.17512 -32.4969
vn 0.554575 0.496042 -0.668123
v -0.433304 3.14739 -32.5188
vn 0.54167 0.419643 -0.72835
v -0.439881 3.1182 -32.5381
vn 0.523548 0.339203 -0.781562
v -0.448288 3.08782 -32.5547
vn 0.500384 0.255496 -0.827247
v -0.458444 3.05654 -32.5684
vn 0.472401 0.169329 -0.864966
v -0.470251 3.02468 -32.579
vn 0.439868 0.0815308 -0.894354
v -0.483595 2.99253 -32.5866
vn 0.403099 -0.00705255 -0.915129
v -0.498349 2.9604 -32.5909
vn 0.362449 -0.0955679 -0.927091
v -0.514369 2.92861 -32.592
vn 0.318307 -0.183163 -0.930125
v -0.531502 2.89746 -32.5898
vn 0.2711 -0.268994 -0.924201
v 0.249165 2.46474 -32.1772
vn 0.294236 -0.389169 -0.87291
v 0.230564 2.43641 -32.1689
vn 0.241936 -0.46884 -0.849503
v 0.211134 2.40968 -32.1577
vn 0.187306 -0.543995 -0.817916
v 0.191062 2.38481 -32.1436
vn 0.130872 -0.613911 -0.778451
v 0.170542 2.36205 -32.1269
vn 0.073178 -0.677915 -0.731489
v 0.149771 2.3416 -32.1077
vn 0.014779 -0.735391 -0.677482
v 0.12895 2.32368 -32.0862
vn -0.0437623 -0.785784 -0.616951
v 0.108279 2.30845 -32.0625
vn -0.101882 -0.828609 -0.550479
v 0.0879567 2.29606 -32.037
vn -0.159021 -0.863455 -0.478705
v 0.068179 2.28662 -32.0098
vn -0.214628 -0.889985 -0.402321
v 0.0491365 2.28023 -31.9813
vn -0.268168 -0.907944 -0.322062
v 0.0310126 2.27696 -31.9517
vn -0.319126 -0.917159 -0.238702
v 0.0139818 2.27682 -31.9212
vn -0.36701 -0.917541 -0.153042
v -0.00179195 2.27983 -31.8902
vn -0.41136 -0.909087 -0.0659093
v -0.0161567 2.28595 -31.859
vn -0.451748 -0.891878 0.0218585
v -0.028974 2.29512 -31.8278
vn -0.487786 -0.866079 0.109416
v -0.0401206 2.30726 -31.7971
vn -0.519126 -0.83194 0.195919
v -0.049489 2.32226 -31.767
vn -0.545466 -0.789789 0.280536
v -0.0569891 2.33995 -31.7378
vn -0.566553 -0.740031 0.362451
v -0.0625485 2.36019 -31.71
vn -0.582184 -0.683147 0.440876
v -0.0661138 2.38276 -31.6836
vn -0.592209 -0.619684 0.515054
v -0.0676507 2.40745 -31.6589
vn -0.59653 -0.550252 0.584273
v -0.0671443 2.43403 -31.6363
vn -0.595106 -0.475522 0.647864
v -0.0645995 2.46224 -31.6159
vn -0.587951 -0.396212 0.705216
v -0.0600408 2.4918 -31.598
vn -0.575134 -0.313086 0.755777
v -0.0535121 2.52244 -31.5826
vn -0.556777 -0.226945 0.799059
v -0.0450763 2.55386 -31.5699
vn -0.533059 -0.138619 0.834645
v -0.0348146 2.58575 -31.5601
vn -0.504207 -0.0489571 0.862194
v -0.0228259 2.6178 -31.5533
vn -0.4705 0.041176 0.881439
v -0.00922561 2.64972 -31.5494
vn -0.432261 0.130912 0.892195
v 0.00585529 2.68119 -31.5487
vn -0.389859 0.219388 0.894359
v 0.0222716 2.7119 -31.551
vn -0.343703 0.305751 0.88791
v 0.0398651 2.74157 -31.5563
vn -0.294236 0.389169 0.87291
v 0.0584665 2.76991 -31.5646
vn -0.241936 0.46884 0.849503
v 0.0778965 2.79664 -31.5759
vn -0.187306 0.543995 0.817916
v 0.0979682 2.82151 -31.5899
vn -0.130872 0.613911 0.778451
v 0.118488 2.84427 -31.6066
vn -0.073178 0.677915 0.731489
v 0.139259 2.86471 -31.6258
vn -0.014779 0.735391 0.677482
v 0.16008 2.88264 -31.6473
vn 0.0437623 0.785784 0.616951
v 0.180751 2.89787 -31.671
vn 0.101882 0.828609 0.550479
v 0.201073 2.91026 -31.6965
vn 0.159021 0.863455 0.478705
v 0.220851 2.9197 -31.7237
vn 0.214628 0.889985 0.402321
v 0.239894 2.92608 -31.7522
vn 0.268168 0.907944 0.322062
v 0.258018 2.92936 -31.7819
vn 0.319126 0.917159 0.238702
v 0.275048 2.9295 -31.8123
vn 0.36701 0.917541 0.153042
v 0.290822 2.92649 -31.8433
vn 0.41136 0.909087 0.0659093
v 0.305187 2.92037 -31.8745
vn 0.451748 0.891878 -0.0218585
v 0.318004 2.91119 -31.9057
vn 0.487786 0.866079 -0.109416
v 0.329151 2.89905 -31.9364
vn 0.519126 0.83194 -0.195919
v 0.338519 2.88406 -31.9665
vn 0.545466 0.789789 -0.280536
v 0.346019 2.86636 -31.9957
vn 0.566553 0.740031 -0.362451
v 0.351579 2.84613 -32.0236
vn 0.582184 0.683147 -0.440876
v 0.355144 2.82356 -32.0499
vn 0.592209 0.619684 -0.515054
v 0.356681 2.79886 -32.0746
vn 0.59653 0.550252 -0.584273
v 0.356174 2.77229 -32.0972
vn 0.595106 0.475522 -0.647864
v 0.35363 2.74408 -32.1176
vn 0.587951 0.396212 -0.705216
v 0.349071 2.71451 -32.1356
vn 0.575134 0.313086 -0.755777
v 0.342542 2.68387 -32.151
vn 0.556777 0.226945 -0.799059
v 0.334106 2.65246 -32.1636
vn 0.533059 0.138619 -0.834645
v 0.323845 2.62057 -32.1734
vn 0.504207 0.0489571 -0.862194
v 0.311856 2.58851 -32.1803
vn 0.4705 -0.041176 -0.881439
v 0.298256 2.5566 -32.1841
vn 0.432261 -0.130912 -0.892195
v 0.283175 2.52513 -32.1849
vn 0.389859 -0.219388 -0.894359
v 0.266759 2.49441 -32.1826
vn 0.343703 -0.305751 -0.88791
v 1.0434 2.08562 -31.6826
vn 0.360766 -0.421093 -0.832183
v 1.02507 2.05791 -31.6746
vn 0.308146 -0.500609 -0.808972
v 1.0057 2.03189 -31.6638
vn 0.252558 -0.575305 -0.777971
v 0.985487 2.0078 -31.6503
vn 0.194538 -0.64446 -0.739477
v 0.96462 1.98586 -31.6344
vn 0.134644 -0.707409 -0.693862
v 0.943302 1.96631 -31.6162
vn 0.0734533 -0.763544 -0.641564
v 0.921736 1.94931 -31.5959
vn 0.0115554 -0.812327 -0.583088
v 0.900132 1.93504 -31.5735
vn -0.0504538 -0.853286 -0.518996
v 0.878697 1.92363 -31.5495
vn -0.111977 -0.886028 -0.449906
v 0.857638 1.9152 -31.5239
vn -0.172422 -0.910237 -0.376484
v 0.837158 1.90982 -31.497
vn -0.231206 -0.925679 -0.299435
v 0.817453 1.90754 -31.4692
vn -0.287764 -0.932207 -0.219503
v 0.798714 1.9084 -31.4406
vn -0.34155 -0.929758 -0.137457
v 0.781121 1.91237 -31.4116
vn -0.392047 -0.918354 -0.0540868
v 0.764843 1.91942 -31.3823
vn -0.438769 -0.898106 0.029804
v 0.750037 1.92949 -31.3532
vn -0.481265 -0.869208 0.113408
v 0.736846 1.94248 -31.3244
vn -0.519126 -0.83194 0.195919
v 0.725397 1.95825 -31.2964
vn -0.551987 -0.78666 0.276544
v 0.7158 1.97667 -31.2692
vn -0.579533 -0.733803 0.354506
v 0.708148 1.99755 -31.2432
vn -0.601497 -0.67388 0.429053
v 0.702514 2.02068 -31.2187
vn -0.617669 -0.607467 0.499469
v 0.698952 2.04586 -31.1958
vn -0.627892 -0.535204 0.565074
v 0.697497 2.07283 -31.1749
vn -0.632068 -0.457786 0.625237
v 0.698163 2.10134 -31.156
vn -0.630157 -0.37596 0.679379
v 0.700943 2.13111 -31.1394
vn -0.622177 -0.290513 0.726978
v 0.705811 2.16186 -31.1253
vn -0.608206 -0.202268 0.767576
v 0.712719 2.19328 -31.1137
vn -0.588377 -0.112075 0.800782
v 0.721602 2.22508 -31.1048
vn -0.562881 -0.0208033 0.826276
v 0.732373 2.25695 -31.0987
vn -0.531965 0.0706692 0.843812
v 0.744929 2.28858 -31.0954
vn -0.495926 0.161461 0.853222
v 0.759149 2.31967 -31.095
vn -0.455111 0.250698 0.854415
v 0.774896 2.34992 -31.0975
vn -0.409912 0.337521 0.847379
v 0.792019 2.37904 -31.1028
vn -0.360766 0.421093 0.832183
v 0.810352 2.40674 -31.1109
vn -0.308146 0.500609 0.808972
v 0.829719 2.43276 -31.1217
vn -0.252558 0.575305 0.777971
v 0.849933 2.45686 -31.1351
vn -0.194538 0.64446 0.739477
v 0.8708 2.47879 -31.151
vn -0.134644 0.707409 0.693862
v 0.892119 2.49835 -31.1692
vn -0.0734533 0.763544 0.641564
v 0.913684 2.51534 -31.1896
vn -0.0115554 0.812327 0.583088
v 0.935288 2.52961 -31.2119
vn 0.0504538 0.853286 0.518996
v 0.956723 2.54102 -31.236
vn 0.111977 0.886028 0.449906
v 0.977782 2.54945 -31.2615
vn 0.172422 0.910237 0.376484
v 0.998263 2.55483 -31.2884
vn 0.231206 0.925679 0.299435
v 1.01797 2.55711 -31.3162
vn 0.287764 0.932207 0.219503
v 1.03671 2.55625 -31.3448
vn 0.34155 0.929758 0.137457
v 1.0543 2.55228 -31.3739
vn 0.392047 0.918354 0.0540868
v 1.07058 2.54523 -31.4031
vn 0.438769 0.898106 -0.029804
v 1.08538 2.53516 -31.4322
vn 0.481265 0.869208 -0.113408
v 1.09857 2.52217 -31.461
vn 0.519126 0.83194 -0.195919
v 1.11002 2.5064 -31.4891
vn 0.551987 0.78666 -0.276544
v 1.11962 2.48798 -31.5162
vn 0.579533 0.733803 -0.354506
v 1.12727 2.46711 -31.5422
vn 0.601497 0.67388 -0.429053
v 1.13291 2.44397 -31.5667
vn 0.617669 0.607467 -0.499469
v 1.13647 2.41879 -31.5896
vn 0.627892 0.535204 -0.565074
v 1.13792 2.39182 -31.6105
vn 0.632068 0.457786 -0.625237
v 1.13726 2.36331 -31.6294
vn 0.630157 0.37596 -0.679379
v 1.13448 2.33354 -31.646
vn 0.622177 0.290513 -0.726978
v 1.12961 2.3028 -31.6601
vn 0.608206 0.202268 -0.767576
v 1.1227 2.27137 -31.6717
vn 0.588377 0.112075 -0.800782
v 1.11382 2.23957 -31.6806
vn 0.562881 0.0208033 -0.826276
v 1.10305 2.2077 -31.6867
vn 0.531965 -0.0706692 -0.843812
v 1.09049 2.17607 -31.69
vn 0.495926 -0.161461 -0.853222
v 1.07627 2.14498 -31.6904
vn 0.455111 -0.250698 -0.854415
v 1.06052 2.11473 -31.6879
vn 0.409912 -0.337521 -0.847379
v 1.83309 1.72973 -31.1014
vn 0.420358 -0.448105 -0.788987
v 1.81504 1.70265 -31.0936
vn 0.367451 -0.527492 -0.765985
v 1.79579 1.6773 -31.0832
vn 0.311005 -0.601798 -0.735605
v 1.77551 1.65393 -31.0704
vn 0.251563 -0.670309 -0.698141
v 1.75441 1.63276 -31.0554
vn 0.189699 -0.732365 -0.653954
v 1.73268 1.61399 -31.0381
vn 0.126009 -0.787367 -0.603469
v 1.71054 1.59782 -31.0189
vn 0.0611043 -0.834787 -0.547172
v 1.6882 1.58438 -30.9979
vn -0.00438859 -0.874167 -0.485605
v 1.66587 1.57382 -30.9753
vn -0.0698392 -0.905129 -0.419362
v 1.64377 1.56623 -30.9514
vn -0.134617 -0.927373 -0.34908
v 1.62211 1.56169 -30.9262
vn -0.198099 -0.940687 -0.275437
v 1.60111 1.56024 -30.9002
vn -0.259672 -0.944941 -0.199141
v 1.58096 1.56189 -30.8735
vn -0.318745 -0.940095 -0.120926
v 1.56185 1.56663 -30.8465
vn -0.374749 -0.926195 -0.0415477
v 1.54398 1.57442 -30.8192
vn -0.427143 -0.903375 0.0382311
v 1.52751 1.58517 -30.7921
vn -0.475424 -0.871856 0.117642
v 1.5126 1.59879 -30.7654
vn -0.519126 -0.83194 0.195919
v 1.4994 1.61514 -30.7394
vn -0.557828 -0.784012 0.27231
v 1.48803 1.63406 -30.7142
vn -0.591159 -0.728534 0.346079
v 1.4786 1.65538 -30.6902
vn -0.618796 -0.666039 0.416514
v 1.4712 1.67889 -30.6675
vn -0.640474 -0.59713 0.482938
v 1.46591 1.70436 -30.6465
vn -0.655983 -0.52247 0.544712
v 1.46278 1.73154 -30.6272
vn -0.665176 -0.442779 0.601239
v 1.46183 1.76018 -30.6099
vn -0.667962 -0.358823 0.651976
v 1.46307 1.79 -30.5947
vn -0.664315 -0.271412 0.696434
v 1.4665 1.82071 -30.5818
vn -0.654271 -0.181387 0.734185
v 1.47207 1.85202 -30.5714
vn -0.637926 -0.0896153 0.764866
v 1.47975 1.88362 -30.5634
vn -0.615437 0.00301962 0.78818
v 1.48944 1.91521 -30.558
vn -0.587021 0.0956255 0.803904
v 1.50106 1.94649 -30.5553
vn -0.552952 0.18731 0.811886
v 1.5145 1.97715 -30.5553
vn -0.513557 0.277191 0.812049
v 1.52963 2.0069 -30.5579
vn -0.469217 0.364403 0.804392
v 1.54629 2.03546 -30.5631
vn -0.420358 0.448105 0.788987
v 1.56434 2.06254 -30.571
vn -0.367451 0.527492 0.765985
v 1.5836 2.08789 -30.5813
vn -0.311005 0.601798 0.735605
v 1.60388 2.11126 -30.5941
vn -0.251563 0.670309 0.698141
v 1.62498 2.13243 -30.6092
vn -0.189699 0.732365 0.653954
v 1.64671 2.15119 -30.6264
vn -0.126009 0.787367 0.603469
v 1.66885 2.16737 -30.6456
vn -0.0611043 0.834787 0.547172
v 1.69119 2.1808 -30.6666
vn 0.00438859 0.874167 0.485605
v 1.71352 2.19136 -30.6892
vn 0.0698392 0.905129 0.419362
v 1.73562 2.19895 -30.7132
vn 0.134617 0.927373 0.34908
v 1.75727 2.20349 -30.7383
vn 0.198099 0.940687 0.275437
v 1.77828 2.20495 -30.7643
vn 0.259672 0.944941 0.199141
v 1.79843 2.20329 -30.791
vn 0.318745 0.940095 0.120926
v 1.81753 2.19855 -30.8181
vn 0.374749 0.926195 0.0415477
v 1.83541 2.19077 -30.8453
vn 0.427143 0.903375 -0.0382311
v 1.85188 2.18001 -30.8724
vn 0.475424 0.871856 -0.117642
v 1.86679 2.1664 -30.8991
vn 0.519126 0.83194 -0.195919
v 1.87999 2.15005 -30.9252
vn 0.557828 0.784012 -0.27231
v 1.89136 2.13112 -30.9503
vn 0.591159 0.728534 -0.346079
v 1.90079 2.1098 -30.9744
vn 0.618796 0.666039 -0.416514
v 1.90818 2.08629 -30.997
vn 0.640474 0.59713 -0.482938
v 1.91347 2.06083 -31.0181
vn 0.655983 0.52247 -0.544712
v 1.91661 2.03364 -31.0374
vn 0.665176 0.442779 -0.601239
v 1.91756 2.005 -31.0547
vn 0.667962 0.358823 -0.651976
v 1.91631 1.97518 -31.0699
vn 0.664315 0.271412 -0.696434
v 1.91289 1.94447 -31.0827
vn 0.654271 0.181387 -0.734185
v 1.90731 1.91316 -31.0932
vn 0.637926 0.0896153 -0.764866
v 1.89964 1.88156 -31.1012
vn 0.615437 -0.00301962 -0.78818
v 1.88995 1.84997 -31.1065
vn 0.587021 -0.0956255 -0.803904
v 1.87832 1.81869 -31.1092
vn 0.552952 -0.18731 -0.811886
v 1.86489 1.78803 -31.1093
vn 0.513557 -0.277191 -0.812049
v 1.84976 1.75828 -31.1067
vn 0.469217 -0.364403 -0.804392
v 2.61838 1.39685 -30.4342
vn 0.472994 -0.470563 -0.744881
v 2.60063 1.37038 -30.4266
vn 0.419833 -0.549841 -0.722091
v 2.58153 1.34568 -30.4166
vn 0.362629 -0.623824 -0.692346
v 2.56127 1.32299 -30.4045
vn 0.301933 -0.6918 -0.655934
v 2.54003 1.30251 -30.3902
vn 0.238329 -0.753113 -0.613205
v 2.51803 1.28447 -30.374
vn 0.172429 -0.807173 -0.56457
v 2.49548 1.26901 -30.3559
vn 0.104869 -0.85346 -0.510499
v 2.47258 1.2563 -30.3362
vn 0.0362995 -0.891527 -0.451511
v 2.44957 1.24646 -30.3151
vn -0.03262 -0.921008 -0.388174
v 2.42667 1.23958 -30.2927
vn -0.101225 -0.94162 -0.3211
v 2.40409 1.23572 -30.2693
vn -0.168856 -0.953163 -0.250933
v 2.38205 1.23493 -30.245
vn -0.23486 -0.955527 -0.178349
v 2.36077 1.23722 -30.2202
vn -0.298603 -0.948689 -0.104048
v 2.34045 1.24255 -30.1951
vn -0.359469 -0.932714 -0.0287443
v 2.32128 1.25088 -30.1698
vn -0.416874 -0.907757 0.0468358
v 2.30346 1.26213 -30.1448
vn -0.470264 -0.874057 0.121965
v 2.28714 1.2762 -30.1201
vn -0.519126 -0.83194 0.195919
v 2.2725 1.29293 -30.096
vn -0.562987 -0.781811 0.267987
v 2.25966 1.31218 -30.0728
vn -0.601427 -0.724152 0.337474
v 2.24876 1.33376 -30.0507
vn -0.634075 -0.65952 0.403711
v 2.2399 1.35746 -30.0299
vn -0.660616 -0.588536 0.46606
v 2.23317 1.38305 -30.0106
vn -0.680796 -0.511884 0.52392
v 2.22862 1.41029 -29.9929
vn -0.694419 -0.430302 0.576735
v 2.2263 1.43891 -29.9771
vn -0.701354 -0.344577 0.623995
v 2.22624 1.46864 -29.9634
vn -0.701534 -0.255532 0.665246
v 2.22844 1.49919 -29.9517
vn -0.694959 -0.164027 0.700091
v 2.23287 1.53027 -29.9424
vn -0.681691 -0.0709426 0.728193
v 2.23949 1.56158 -29.9353
vn -0.661858 0.0228254 0.749282
v 2.24824 1.59281 -29.9307
vn -0.63565 0.116374 0.763155
v 2.25903 1.62367 -29.9285
vn -0.603321 0.208801 0.769679
v 2.27177 1.65386 -29.9288
vn -0.565182 0.299217 0.76879
v 2.28632 1.68308 -29.9316
vn -0.5216 0.386752 0.760498
v 2.30254 1.71106 -29.9368
vn -0.472994 0.470563 0.744881
v 2.32029 1.73753 -29.9444
vn -0.419833 0.549841 0.722091
v 2.33939 1.76223 -29.9543
vn -0.362629 0.623824 0.692346
v 2.35966 1.78493 -29.9665
vn -0.301933 0.6918 0.655934
v 2.38089 1.8054 -29.9807
vn -0.238329 0.753113 0.613205
v 2.40289 1.82345 -29.997
vn -0.172429 0.807173 0.56457
v 2.42545 1.8389 -30.015
vn -0.104869 0.85346 0.510499
v 2.44834 1.85161 -30.0347
vn -0.0362995 0.891527 0.451511
v 2.47135 1.86145 -30.0559
vn 0.03262 0.921008 0.388174
v 2.49426 1.86834 -30.0783
vn 0.101225 0.94162 0.3211
v 2.51684 1.87219 -30.1017
vn 0.168856 0.953163 0.250933
v 2.53888 1.87298 -30.1259
vn 0.23486 0.955527 0.178349
v 2.56016 1.8707 -30.1507
vn 0.298603 0.948689 0.104048
v 2.58048 1.86536 -30.1759
vn 0.359469 0.932714 0.0287443
v 2.59964 1.85703 -30.2011
vn 0.416874 0.907757 -0.0468358
v 2.61747 1.84578 -30.2262
vn 0.470264 0.874057 -0.121965
v 2.63378 1.83172 -30.2509
vn 0.519126 0.83194 -0.195919
v 2.64843 1.81498 -30.275
vn 0.562987 0.781811 -0.267987
v 2.66126 1.79573 -30.2981
vn 0.601427 0.724152 -0.337474
v 2.67216 1.77415 -30.3203
vn 0.634075 0.65952 -0.403711
v 2.68102 1.75045 -30.3411
vn 0.660616 0.588536 -0.46606
v 2.68776 1.72486 -30.3604
vn 0.680796 0.511884 -0.52392
v 2.69231 1.69762 -30.378
vn 0.694419 0.430302 -0.576735
v 2.69462 1.669 -30.3938
vn 0.701354 0.344577 -0.623995
v 2.69468 1.63927 -30.4076
vn 0.701534 0.255532 -0.665246
v 2.69249 1.60872 -30.4192
vn 0.694959 0.164027 -0.700091
v 2.68806 1.57764 -30.4286
vn 0.681691 0.0709426 -0.728193
v 2.68144 1.54634 -30.4356
vn 0.661858 -0.0228254 -0.749282
v 2.67269 1.5151 -30.4403
vn 0.63565 -0.116374 -0.763155
v 2.66189 1.48424 -30.4425
vn 0.603321 -0.208801 -0.769679
v 2.64916 1.45406 -30.4422
vn 0.565182 -0.299217 -0.76879
v 2.63461 1.42483 -30.4394
vn 0.5216 -0.386752 -0.760498
v 3.39953 1.08672 -29.6813
vn 0.519012 -0.488967 -0.701098
v 3.3821 1.06086 -29.6739
vn 0.465629 -0.568157 -0.678519
v 3.3632 1.03678 -29.6644
vn 0.407763 -0.641875 -0.649405
v 3.34301 1.01472 -29.6528
vn 0.345969 -0.709411 -0.614037
v 3.32174 0.994896 -29.6394
vn 0.280843 -0.770116 -0.572755
v 3.29959 0.977492 -29.6241
vn 0.213013 -0.823404 -0.525958
v 3.27677 0.962678 -29.6071
vn 0.143132 -0.868762 -0.474095
v 3.25349 0.950596 -29.5887
vn 0.0718716 -0.905753 -0.417666
v 3.22999 0.941363 -29.569
vn -8.06549e-05 -0.934022 -0.357215
v 3.20649 0.935069 -29.5481
vn -0.0720321 -0.953295 -0.293324
v 3.18322 0.931772 -29.5263
vn -0.14329 -0.963388 -0.226608
v 3.1604 0.931506 -29.5038
vn -0.213168 -0.964203 -0.15771
v 3.13825 0.934273 -29.4808
vn -0.280992 -0.955732 -0.0872927
v 3.11698 0.940046 -29.4575
vn -0.346111 -0.938056 -0.0160349
v 3.0968 0.948769 -29.4342
vn -0.407897 -0.911347 0.0553774
v 3.0779 0.960359 -29.4111
vn -0.465754 -0.875861 0.126256
v 3.06047 0.974704 -29.3883
vn -0.519126 -0.83194 0.195919
v 3.04467 0.991666 -29.3662
vn -0.567498 -0.780007 0.263696
v 3.03066 1.01108 -29.3449
vn -0.610405 -0.720562 0.328932
v 3.01856 1.03276 -29.3246
vn -0.647433 -0.654177 0.391001
v 3.00851 1.0565 -29.3056
vn -0.678227 -0.581493 0.449305
v 3.00058 1.08207 -29.2879
vn -0.702488 -0.503208 0.503281
v 2.99487 1.10922 -29.2719
vn -0.719985 -0.420078 0.55241
v 2.99142 1.13769 -29.2576
vn -0.730547 -0.332901 0.59622
v 2.99027 1.16721 -29.2451
vn -0.734074 -0.242519 0.634287
v 2.99142 1.19749 -29.2347
vn -0.730531 -0.149801 0.666246
v 2.99488 1.22825 -29.2264
vn -0.719953 -0.0556402 0.691789
v 3.0006 1.25918 -29.2202
vn -0.702441 0.0390563 0.710669
v 3.00853 1.28998 -29.2163
vn -0.678165 0.133377 0.722705
v 3.01859 1.32037 -29.2146
vn -0.647357 0.226412 0.727782
v 3.03069 1.35004 -29.2152
vn -0.610315 0.317268 0.725849
v 3.04471 1.37872 -29.2181
vn -0.567396 0.405068 0.716926
v 3.06051 1.40612 -29.2233
vn -0.519012 0.488967 0.701098
v 3.07794 1.43198 -29.2307
vn -0.465629 0.568157 0.678519
v 3.09684 1.45606 -29.2402
vn -0.407763 0.641875 0.649405
v 3.11702 1.47812 -29.2517
vn -0.345969 0.709411 0.614037
v 3.13829 1.49794 -29.2652
vn -0.280843 0.770116 0.572755
v 3.16045 1.51535 -29.2805
vn -0.213013 0.823404 0.525958
v 3.18327 1.53016 -29.2975
vn -0.143132 0.868762 0.474095
v 3.20655 1.54224 -29.3159
vn -0.0718716 0.905753 0.417666
v 3.23005 1.55148 -29.3356
vn 8.06549e-05 0.934022 0.357215
v 3.25355 1.55777 -29.3565
vn 0.0720321 0.953295 0.293324
v 3.27682 1.56107 -29.3783
vn 0.14329 0.963388 0.226608
v 3.29964 1.56133 -29.4008
vn 0.213168 0.964203 0.15771
v 3.32179 1.55857 -29.4238
vn 0.280992 0.955732 0.0872927
v 3.34306 1.55279 -29.4471
vn 0.346111 0.938056 0.0160349
v 3.36324 1.54407 -29.4704
vn 0.407897 0.911347 -0.0553774
v 3.38214 1.53248 -29.4935
vn 0.465754 0.875861 -0.126256
v 3.39957 1.51814 -29.5163
vn 0.519126 0.83194 -0.195919
v 3.41537 1.50117 -29.5384
vn 0.567498 0.780007 -0.263696
v 3.42938 1.48176 -29.5597
vn 0.610405 0.720562 -0.328932
v 3.44147 1.46008 -29.58
vn 0.647433 0.654177 -0.391001
v 3.45153 1.43634 -29.599
vn 0.678227 0.581493 -0.449305
v 3.45946 1.41077 -29.6167
vn 0.702488 0.503208 -0.503281
v 3.46517 1.38362 -29.6327
vn 0.719985 0.420078 -0.55241
v 3.46862 1.35515 -29.647
vn 0.730547 0.332901 -0.59622
v 3.46977 1.32563 -29.6595
vn 0.734074 0.242519 -0.634287
v 3.46861 1.29535 -29.6699
vn 0.730531 0.149801 -0.666246
v 3.46516 1.26459 -29.6782
vn 0.719953 0.0556402 -0.691789
v 3.45944 1.23366 -29.6844
vn 0.702441 -0.0390563 -0.710669
v 3.45151 1.20286 -29.6883
vn 0.678165 -0.133377 -0.722705
v 3.44145 1.17247 -29.69
vn 0.647357 -0.226412 -0.727782
v 3.42935 1.1428 -29.6894
vn 0.610315 -0.317268 -0.725849
v 3.41533 1.11412 -29.6864
vn 0.567396 -0.405068 -0.716926
f 1 66 2 
f 1 65 66 
f 2 67 3 
f 2 66 67 
f 3 68 4 
f 3 67 68 
f 4 69 5 
f 4 68 69 
f 5 70 6 
f 5 69 70 
f 6 71 7 
f 6 70 71 
f 7 72 8 
f 7 71 72 
f 8 73 9 
f 8 72 73 
f 9 74 10 
f 9 73 74 
f 10 75 11 
f 10 74 75 
f 11 76 12 
f 11 75 76 
f 12 77 13 
f 12 76 77 
f 13 78 14 
f 13 77 78 
f 14 79 15 
f 14 78 79 
f 15 80 16 
f 15 79 80 
f 16 81 17 
f 16 80 81 
f 17 82 18 
f 17 81 82 
f 18 83 19 
f 18 82 83 
f 19 84 20 
f 19 83 84 
f 20 85 21 
f 20 84 85 
f 21 86 22 
f 21 85 86 
f 22 87 23 
f 22 86 87 
f 23 88 24 
f 23 87 88 
f 24 89 25 
f 24 88 89 
f 25 90 26 
f 25 89 90 
f 26 91 27 
f 26 90 91 
f 27 92 28 
f 27 91 92 
f 28 93 29 
f 28 92 93 
f 29 94 30 
f 29 93 94 
f 30 95 31 
f 30 94 95 
f 31 96 32 
f 31 95 96 
f 32 97 33 
f 32 96 97 
f 33 98 34 
f 33 97 98 
f 34 99 35 
f 34 98 99 
f 35 100 36 
f 35 99 100 
f 36 101 37 
f 36 100 101 
f 37 102 38 
f 37 101 102 
f 38 103 39 
f 38 102 103 
f 39 104 40 
f 39 103 104 
f 40 105 41 
f 40 104 105 
f 41 106 42 
f 41 105 106 
f 42 107 43 
f 42 106 107 
f 43 108 44 
f 43 107 108 
f 44 109 45 
f 44 108 109 
f 45 110 46 
f 45 109 110 
f 46 111 47 
f 46 110 111 
f 47 112 48 
f 47 111 112 
f 48 113 49 
f 48 112 113 
f 49 114 50 
f 49 113 114 
f 50 115 51 
f 50 114 115 
f 51 116 52 
f 51 115 116 
f 52 117 53 
f 52 116 117 
f 53 118 54 
f 53 117 118 
f 54 119 55 
f 54 118 119 
f 55 120 56 
f 55 119 120 
f 56 121 57 
f 56 120 121 
f 57 122 58 
f 57 121 122 
f 58 123 59 
f 58 122 123 
f 59 124 60 
f 59 123 124 
f 60 125 61 
f 60 124 125 
f 61 126 62 
f 61 125 126 
f 62 127 63 
f 62 126 127 
f 63 128 64 
f 63 127 128 
f 64 65 1 
f 64 128 65 
f 65 130 66 
f 65 129 130 
f 66 131 67 
f 66 130 131 
f 67 132 68 
f 67 131 132 
f 68 133 69 
f 68 132 133 
f 69 134 70 
f 69 133 134 
f 70 135 71 
f 70 134 135 
f 71 136 72 
f 71 135 136 
f 72 137 73 
f 72 136 137 
f 73 138 74 
f 73 137 138 
f 74 139 75 
f 74 138 139 
f 75 140 76 
f 75 139 140 
f 76 141 77 
f 76 140 141 
f 77 142 78 
f 77 141 142 
f 78 143 79 
f 78 142 143 
f 79 144 80 
f 79 143 144 
f 80 145 81 
f 80 144 145 
f 81 146 82 
f 81 145 146 
f 82 147 83 
f 82 146 147 
f 83 148 84 
f 83 147 148 
f 84 149 85 
f 84 148 149 
f 85 150 86 
f 85 149 150 
f 86 151 87 
f 86 150 151 
f 87 152 88 
f 87 151 152 
f 88 153 89 
f 88 152 153 
f 89 154 90 
f 89 153 154 
f 90 155 91 
f 90 154 155 
f 91 156 92 
f 91 155 156 
f 92 157 93 
f 92 156 157 
f 93 158 94 
f 93 157 158 
f 94 159 95 
f 94 158 159 
f 95 160 96 
f 95 159 160 
f 96 161 97 
f 96 160 161 
f 97 162 98 
f 97 161 162 
f 98 163 99 
f 98 162 163 
f 99 164 100 
f 99 163 164 
f 100 165 101 
f 100 164 165 
f 101 166 102 
f 101 165 166 
f 102 167 103 
f 102 166 167 
f 103 168 104 
f 103 167 168 
f 104 169 105 
f 104 168 169 
f 105 170 106 
f 105 169 170 
f 106 171 107 
f 106 170 171 
f 107 172 108 
f 107 171 172 
f 108 173 109 
f 108 172 173 
f 109 174 110 
f 109 173 174 
f 110 175 111 
f 110 174 175 
f 111 176 112 
f 111 175 176 
f 112 177 113 
f 112 176 177 
f 113 178 114 
f 113 177 178 
f 114 179 115 
f 114 178 179 
f 115 180 116 
f 115 179 180 
f 116 181 117 
f 116 180 181 
f 117 182 118 
f 117 181 182 
f 118 183 119 
f 118 182 183 
f 119 184 120 
f 119 183 184 
f 120 185 121 
f 120 184 185 
f 121 186 122 
f 121 185 186 
f 122 187 123 
f 122 186 187 
f 123 188 124 
f 123 187 188 
f 124 189 125 
f 124 188 189 
f 125 190 126 
f 125 189 190 
f 126 191 127 
f 126 190 191 
f 127 192 128 
f 127 191 192 
f 128 129 65 
f 128 192 129 
f 129 194 130 
f 129 193 194 
f 130 195 131 
f 130 194 195 
f 131 196 132 
f 131 195 196 
f 132 197 133 
f 132 196 197 
f 133 198 134 
f 133 197 198 
f 134 199 135 
f 134 198 199 
f 135 200 136 
f 135 199 200 
f 136 201 137 
f 136 200 201 
f 137 202 138 
f 137 201 202 
f 138 203 139 
f 138 202 203 
f 139 204 140 
f 139 203 204 
f 140 205 141 
f 140 204 205 
f 141 206 142 
f 141 205 206 
f 142 207 143 
f 142 206 207 
f 143 208 144 
f 143 207 208 
f 144 209 145 
f 144 208 209 
f 145 210 146 
f 145 209 210 
f 146 211 147 
f 146 210 211 
f 147 212 148 
f 147 211 212 
f 148 213 149 
f 148 212 213 
f 149 214 150 
f 149 213 214 
f 150 215 151 
f 150 214 215 
f 151 216 152 
f 151 215 216 
f 152 217 153 
f 152 216 217 
f 153 218 154 
f 153 217 218 
f 154 219 155 
f 154 218 219 
f 155 220 156 
f 155 219 220 
f 156 221 157 
f 156 220 221 
f 157 222 158 
f 157 221 222 
f 158 223 159 
f 158 222 223 
f 159 224 160 
f 159 223 224 
f 160 225 161 
f 160 224 225 
f 161 226 162 
f 161 225 226 
f 162 227 163 
f 162 226 227 
f 163 228 164 
f 163 227 228 
f 164 229 165 
f 164 228 229 
f 165 230 166 
f 165 229 230 
f 166 231 167 
f 166 230 231 
f 167 232 168 
f 167 231 232 
f 168 233 169 
f 168 232 233 
f 169 234 170 
f 169 233 234 
f 170 235 171 
f 170 234 235 
f 171 236 172 
f 171 235 236 
f 172 237 173 
f 172 236 237 
f 173 238 174 
f 173 237 238 
f 174 239 175 
f 174 238 239 
f 175 240 176 
f 175 239 240 
f 176 241 177 
f 176 240 241 
f 177 242 178 
f 177 241 242 
f 178 243 179 
f 178 242 243 
f 179 244 180 
f 179 243 244 
f 180 245 181 
f 180 244 245 
f 181 246 182 
f 181 245 246 
f 182 247 183 
f 182 246 247 
f 183 248 184 
f 183 247 248 
f 184 249 185 
f 184 248 249 
f 185 250 186 
f 185 249 250 
f 186 251 187 
f 186 250 251 
f 187 252 188 
f 187 251 252 
f 188 253 189 
f 188 252 253 
f 189 254 190 
f 189 253 254 
f 190 255 191 
f 190 254 255 
f 191 256 192 
f 191 255 256 
f 192 193 129 
f 192 256 193 
f 193 258 194 
f 193 257 258 
f 194 259 195 
f 194 258 259 
f 195 260 196 
f 195 259 260 
f 196 261 197 
f 196 260 261 
f 197 262 198 
f 197 261 262 
f 198 263 199 
f 198 262 263 
f 199 264 200 
f 199 263 264 
f 200 265 201 
f 200 264 265 
f 201 266 202 
f 201 265 266 
f 202 267 203 
f 202 266 267 
f 203 268 204 
f 203 267 268 
f 204 269 205 
f 204 268 269 
f 205 270 206 
f 205 269 270 
f 206 271 207 
f 206 270 271 
f 207 272 208 
f 207 271 272 
f 208 273 209 
f 208 272 273 
f 209 274 210 
f 209 273 274 
f 210 275 211 
f 210 274 275 
f 211 276 212 
f 211 275 276 
f 212 277 213 
f 212 276 277 
f 213 278 214 
f 213 277 278 
f 214 279 215 
f 214 278 279 
f 215 280 216 
f 215 279 280 
f 216 281 217 
f 216 280 281 
f 217 282 218 
f 217 281 282 
f 218 283 219 
f 218 282 283 
f 219 284 220 
f 219 283 284 
f 220 285 221 
f 220 284 285 
f 221 286 222 
f 221 285 286 
f 222 287 223 
f 222 286 287 
f 223 288 224 
f 223 287 288 
f 224 289 225 
f 224 288 289 
f 225 290 226 
f 225 289 290 
f 226 291 227 
f 226 290 291 
f 227 292 228 
f 227 291 292 
f 228 293 229 
f 228 292 293 
f 229 294 230 
f 229 293 294 
f 230 295 231 
f 230 294 295 
f 231 296 232 
f 231 295 296 
f 232 297 233 
f 232 296 297 
f 233 298 234 
f 233 297 298 
f 234 299 235 
f 234 298 299 
f 235 300 236 
f 235 299 300 
f 236 301 237 
f 236 300 301 
f 237 302 238 
f 237 301 302 
f 238 303 239 
f 238 302 303 
f 239 304 240 
f 239 303 304 
f 240 305 241 
f 240 304 305 
f 241 306 242 
f 241 305 306 
f 242 307 243 
f 242 306 307 
f 243 308 244 
f 243 307 308 
f 244 309 245 
f 244 308 309 
f 245 310 246 
f 245 309 310 
f 246 311 247 
f 246 310 311 
f 247 312 248 
f 247 311 312 
f 248 313 249 
f 248 312 313 
f 249 314 250 
f 249 313 314 
f 250 315 251 
f 250 314 315 
f 251 316 252 
f 251 315 316 
f 252 317 253 
f 252 316 317 
f 253 318 254 
f 253 317 318 
f 254 319 255 
f 254 318 319 
f 255 320 256 
f 255 319 320 
f 256 257 193 
f 256 320 257 
f 257 322 258 
f 257 321 322 
f 258 323 259 
f 258 322 323 
f 259 324 260 
f 259 323 324 
f 260 325 261 
f 260 324 325 
f 261 326 262 
f 261 325 326 
f 262 327 263 
f 262 326 327 
f 263 328 264 
f 263 327 328 
f 264 329 265 
f 264 328 329 
f 265 330 266 
f 265 329 330 
f 266 331 267 
f 266 330 331 
f 267 332 268 
f 267 331 332 
f 268 333 269 
f 268 332 333 
f 269 334 270 
f 269 333 334 
f 270 335 271 
f 270 334 335 
f 271 336 272 
f 271 335 336 
f 272 337 273 
f 272 336 337 
f 273 338 274 
f 273 337 338 
f 274 339 275 
f 274 338 339 
f 275 340 276 
f 275 339 340 
f 276 341 277 
f 276 340 341 
f 277 342 278 
f 277 341 342 
f 278 343 279 
f 278 342 343 
f 279 344 280 
f 279 343 344 
f 280 345 281 
f 280 344 345 
f 281 346 282 
f 281 345 346 
f 282 347 283 
f 282 346 347 
f 283 348 284 
f 283 347 348 
f 284 349 285 
f 284 348 349 
f 285 350 286 
f 285 349 350 
f 286 351 287 
f 286 350 351 
f 287 352 288 
f 287 351 352 
f 288 353 289 
f 288 352 353 
f 289 354 290 
f 289 353 354 
f 290 355 291 
f 290 354 355 
f 291 356 292 
f 291 355 356 
f 292 357 293 
f 292 356 357 
f 293 358 294 
f 293 357 358 
f 294 359 295 
f 294 358 359 
f 295 360 296 
f 295 359 360 
f 296 361 297 
f 296 360 361 
f 297 362 298 
f 297 361 362 
f 298 363 299 
f 298 362 363 
f 299 364 300 
f 299 363 364 
f 300 365 301 
f 300 364 365 
f 301 366 302 
f 301 365 366 
f 302 367 303 
f 302 366 367 
f 303 368 304 
f 303 367 368 
f 304 369 305 
f 304 368 369 
f 305 370 306 
f 305 369 370 
f 306 371 307 
f 306 370 371 
f 307 372 308 
f 307 371 372 
f 308 373 309 
f 308 372 373 
f 309 374 310 
f 309 373 374 
f 310 375 311 
f 310 374 375 
f 311 376 312 
f 311 375 376 
f 312 377 313 
f 312 376 377 
f 313 378 314 
f 313 377 378 
f 314 379 315 
f 314 378 379 
f 315 380 316 
f 315 379 380 
f 316 381 317 
f 316 380 381 
f 317 382 318 
f 317 381 382 
f 318 383 319 
f 318 382 383 
f 319 384 320 
f 319 383 384 
f 320 321 257 
f 320 384 321 
f 321 386 322 
f 321 385 386 
f 322 387 323 
f 322 386 387 
f 323 388 324 
f 323 387 388 
f 324 389 325 
f 324 388 389 
f 325 390 326 
f 325 389 390 
f 326 391 327 
f 326 390 391 
f 327 392 328 
f 327 391 392 
f 328 393 329 
f 328 392 393 
f 329 394 330 
f 329 393 394 
f 330 395 331 
f 330 394 395 
f 331 396 332 
f 331 395 396 
f 332 397 333 
f 332 396 397 
f 333 398 334 
f 333 397 398 
f 334 399 335 
f 334 398 399 
f 335 400 336 
f 335 399 400 
f 336 401 337 
f 336 400 401 
f 337 402 338 
f 337 401 402 
f 338 403 339 
f 338 402 403 
f 339 404 340 
f 339 403 404 
f 340 405 341 
f 340 404 405 
f 341 406 342 
f 341 405 406 
f 342 407 343 
f 342 406 407 
f 343 408 344 
f 343 407 408 
f 344 409 345 
f 344 408 409 
f 345 410 346 
f 345 409 410 
f 346 411 347 
f 346 410 411 
f 347 412 348 
f 347 411 412 
f 348 413 349 
f 348 412 413 
f 349 414 350 
f 349 413 414 
f 350 415 351 
f 350 414 415 
f 351 416 352 
f 351 415 416 
f 352 417 353 
f 352 416 417 
f 353 418 354 
f 353 417 418 
f 354 419 355 
f 354 418 419 
f 355 420 356 
f 355 419 420 
f 356 421 357 
f 356 420 421 
f 357 422 358 
f 357 421 422 
f 358 423 359 
f 358 422 423 
f 359 424 360 
f 359 423 424 
f 360 425 361 
f 360 424 425 
f 361 426 362 
f 361 425 426 
f 362 427 363 
f 362 426 427 
f 363 428 364 
f 363 427 428 
f 364 429 365 
f 364 428 429 
f 365 430 366 
f 365 429 430 
f 366 431 367 
f 366 430 431 
f 367 432 368 
f 367 431 432 
f 368 433 369 
f 368 432 433 
f 369 434 370 
f 369 433 434 
f 370 435 371 
f 370 434 435 
f 371 436 372 
f 371 435 436 
f 372 437 373 
f 372 436 437 
f 373 438 374 
f 373 437 438 
f 374 439 375 
f 374 438 439 
f 375 440 376 
f 375 439 440 
f 376 441 377 
f 376 440 441 
f 377 442 378 
f 377 441 442 
f 378 443 379 
f 378 442 443 
f 379 444 380 
f 379 443 444 
f 380 445 381 
f 380 444 445 
f 381 446 382 
f 381 445 446 
f 382 447 383 
f 382 446 447 
f 383 448 384 
f 383 447 448 
f 384 385 321 
f 384 448 385 
f 385 450 386 
f 385 449 450 
f 386 451 387 
f 386 450 451 
f 387 452 388 
f 387 451 452 
f 388 453 389 
f 388 452 453 
f 389 454 390 
f 389 453 454 
f 390 455 391 
f 390 454 455 
f 391 456 392 
f 391 455 456 
f 392 457 393 
f 392 456 457 
f 393 458 394 
f 393 457 458 
f 394 459 395 
f 394 458 459 
f 395 460 396 
f 395 459 460 
f 396 461 397 
f 396 460 461 
f 397 462 398 
f 397 461 462 
f 398 463 399 
f 398 462 463 
f 399 464 400 
f 399 463 464 
f 400 465 401 
f 400 464 465 
f 401 466 402 
f 401 465 466 
f 402 467 403 
f 402 466 467 
f 403 468 404 
f 403 467 468 
f 404 469 405 
f 404 468 469 
f 405 470 406 
f 405 469 470 
f 406 471 407 
f 406 470 471 
f 407 472 408 
f 407 471 472 
f 408 473 409 
f 408 472 473 
f 409 474 410 
f 409 473 474 
f 410 475 411 
f 410 474 475 
f 411 476 412 
f 411 475 476 
f 412 477 413 
f 412 476 477 
f 413 478 414 
f 413 477 478 
f 414 479 415 
f 414 478 479 
f 415 480 416 
f 415 479 480 
f 416 481 417 
f 416 480 481 
f 417 482 418 
f 417 481 482 
f 418 483 419 
f 418 482 483 
f 419 484 420 
f 419 483 484 
f 420 485 421 
f 420 484 485 
f 421 486 422 
f 421 485 486 
f 422 487 423 
f 422 486 487 
f 423 488 424 
f 423 487 488 
f 424 489 425 
f 424 488 489 
f 425 490 426 
f 425 489 490 
f 426 491 427 
f 426 490 491 
f 427 492 428 
f 427 491 492 
f 428 493 429 
f 428 492 493 
f 429 494 430 
f 429 493 494 
f 430 495 431 
f 430 494 495 
f 431 496 432 
f 431 495 496 
f 432 497 433 
f 432 496 497 
f 433 498 434 
f 433 497 498 
f 434 499 435 
f 434 498 499 
f 435 500 436 
f 435 499 500 
f 436 501 437 
f 436 500 501 
f 437 502 438 
f 437 501 502 
f 438 503 439 
f 438 502 503 
f 439 504 440 
f 439 503 504 
f 440 505 441 
f 440 504 505 
f 441 506 442 
f 441 505 506 
f 442 507 443 
f 442 506 507 
f 443 508 444 
f 443 507 508 
f 444 509 445 
f 444 508 509 
f 445 510 446 
f 445 509 510 
f 446 511 447 
f 446 510 511 
f 447 512 448 
f 447 511 512 
f 448 449 385 
f 448 512 449 
f 449 514 450 
f 449 513 514 
f 450 515 451 
f 450 514 515 
f 451 516 452 
f 451 515 516 
f 452 517 453 
f 452 516 517 
f 453 518 454 
f 453 517 518 
f 454 519 455 
f 454 518 519 
f 455 520 456 
f 455 519 520 
f 456 521 457 
f 456 520 521 
f 457 522 458 
f 457 521 522 
f 458 523 459 
f 458 522 523 
f 459 524 460 
f 459 523 524 
f 460 525 461 
f 460 524 525 
f 461 526 462 
f 461 525 526 
f 462 527 463 
f 462 526 527 
f 463 528 464 
f 463 527 528 
f 464 529 465 
f 464 528 529 
f 465 530 466 
f 465 529 530 
f 466 531 467 
f 466 530 531 
f 467 532 468 
f 467 531 532 
f 468 533 469 
f 468 532 533 
f 469 534 470 
f 469 533 534 
f 470 535 471 
f 470 534 535 
f 471 536 472 
f 471 535 536 
f 472 537 473 
f 472 536 537 
f 473 538 474 
f 473 537 538 
f 474 539 475 
f 474 538 539 
f 475 540 476 
f 475 539 540 
f 476 541 477 
f 476 540 541 
f 477 542 478 
f 477 541 542 
f 478 543 479 
f 478 542 543 
f 479 544 480 
f 479 543 544 
f 480 545 481 
f 480 544 545 
f 481 546 482 
f 481 545 546 
f 482 547 483 
f 482 546 547 
f 483 548 484 
f 483 547 548 
f 484 549 485 
f 484 548 549 
f 485 550 486 
f 485 549 550 
f 486 551 487 
f 486 550 551 
f 487 552 488 
f 487 551 552 
f 488 553 489 
f 488 552 553 
f 489 554 490 
f 489 553 554 
f 490 555 491 
f 490 554 555 
f 491 556 492 
f 491 555 556 
f 492 557 493 
f 492 556 557 
f 493 558 494 
f 493 557 558 
f 494 559 495 
f 494 558 559 
f 495 560 496 
f 495 559 560 
f 496 561 497 
f 496 560 561 
f 497 562 498 
f 497 561 562 
f 498 563 499 
f 498 562 563 
f 499 564 500 
f 499 563 564 
f 500 565 501 
f 500 564 565 
f 501 566 502 
f 501 565 566 
f 502 567 503 
f 502 566 567 
f 503 568 504 
f 503 567 568 
f 504 569 505 
f 504 568 569 
f 505 570 506 
f 505 569 570 
f 506 571 507 
f 506 570 571 
f 507 572 508 
f 507 571 572 
f 508 573 509 
f 508 572 573 
f 509 574 510 
f 509 573 574 
f 510 575 511 
f 510 574 575 
f 511 576 512 
f 511 575 576 
f 512 513 449 
f 512 576 513 
f 513 578 514 
f 513 577 578 
f 514 579 515 
f 514 578 579 
f 515 580 516 
f 515 579 580 
f 516 581 517 
f 516 580 581 
f 517 582 518 
f 517 581 582 
f 518 583 519 
f 518 582 583 
f 519 584 520 
f 519 583 584 
f 520 585 521 
f 520 584 585 
f 521 586 522 
f 521 585 586 
f 522 587 523 
f 522 586 587 
f 523 588 524 
f 523 587 588 
f 524 589 525 
f 524 588 589 
f 525 590 526 
f 525 589 590 
f 526 591 527 
f 526 590 591 
f 527 592 528 
f 527 591 592 
f 528 593 529 
f 528 592 593 
f 529 594 530 
f 529 593 594 
f 530 595 531 
f 530 594 595 
f 531 596 532 
f 531 595 596 
f 532 597 533 
f 532 596 597 
f 533 598 534 
f 533 597 598 
f 534 599 535 
f 534 598 599 
f 535 600 536 
f 535 599 600 
f 536 601 537 
f 536 600 601 
f 537 602 538 
f 537 601 602 
f 538 603 539 
f 538 602 603 
f 539 604 540 
f 539 603 604 
f 540 605 541 
f 540 604 605 
f 541 606 542 
f 541 605 606 
f 542 607 543 
f 542 606 607 
f 543 608 544 
f 543 607 608 
f 544 609 545 
f 544 608 609 
f 545 610 546 
f 545 609 610 
f 546 611 547 
f 546 610 611 
f 547 612 548 
f 547 611 612 
f 548 613 549 
f 548 612 613 
f 549 614 550 
f 549 613 614 
f 550 615 551 
f 550 614 615 
f 551 616 552 
f 551 615 616 
f 552 617 553 
f 552 616 617 
f 553 618 554 
f 553 617 618 
f 554 619 555 
f 554 618 619 
f 555 620 556 
f 555 619 620 
f 556 621 557 
f 556 620 621 
f 557 622 558 
f 557 621 622 
f 558 623 559 
f 558 622 623 
f 559 624 560 
f 559 623 624 
f 560 625 561 
f 560 624 625 
f 561 626 562 
f 561 625 626 
f 562 627 563 
f 562 626 627 
f 563 628 564 
f 563 627 628 
f 564 629 565 
f 564 628 629 
f 565 630 566 
f 565 629 630 
f 566 631 567 
f 566 630 631 
f 567 632 568 
f 567 631 632 
f 568 633 569 
f 568 632 633 
f 569 634 570 
f 569 633 634 
f 570 635 571 
f 570 634 635 
f 571 636 572 
f 571 635 636 
f 572 637 573 
f 572 636 637 
f 573 638 574 
f 573 637 638 
f 574 639 575 
f 574 638 639 
f 575 640 576 
f 575 639 640 
f 576 577 513 
f 576 640 577 
