# Branch
v 5.92901 9.28848 -27.1781
vn -0.95613 0.250298 -0.152204
v 5.92182 9.29003 -27.1075
vn -0.966072 0.252435 -0.0545965
v 5.92136 9.28981 -27.0366
vn -0.966711 0.252141 0.0435364
v 5.92763 9.28785 -26.9659
vn -0.958039 0.249419 0.14125
v 5.94057 9.28414 -26.8962
vn -0.940141 0.244295 0.237603
v 5.96007 9.27873 -26.8282
vn -0.913189 0.236818 0.331668
v 5.98592 9.27167 -26.7624
vn -0.877442 0.22706 0.422539
v 6.01789 9.26304 -26.6997
vn -0.833245 0.215116 0.509341
v 6.05566 9.2529 -26.6404
vn -0.781024 0.201099 0.591237
v 6.09887 9.24136 -26.5853
vn -0.72128 0.185147 0.667439
v 6.1471 9.22853 -26.5348
vn -0.654591 0.167411 0.737214
v 6.19989 9.21454 -26.4895
vn -0.581597 0.148063 0.799889
v 6.25674 9.19951 -26.4498
vn -0.503003 0.127289 0.85486
v 6.31709 9.1836 -26.4159
vn -0.419564 0.105289 0.901599
v 6.38036 9.16696 -26.3884
vn -0.332084 0.0822749 0.939655
v 6.44594 9.14974 -26.3674
vn -0.241407 0.0584687 0.968661
v 6.51321 9.13211 -26.3532
vn -0.148404 0.0340994 0.988339
v 6.58151 9.11425 -26.3459
vn -0.0539723 0.00940165 0.998498
v 6.65018 9.09632 -26.3455
vn 0.0409792 -0.0153866 0.999042
v 6.71857 9.0785 -26.352
vn 0.135536 -0.0400267 0.989964
v 6.78602 9.06096 -26.3655
vn 0.228788 -0.0642813 0.971352
v 6.85187 9.04386 -26.3857
vn 0.319836 -0.0879168 0.943385
v 6.9155 9.02738 -26.4125
vn 0.407804 -0.110706 0.906333
v 6.97628 9.01167 -26.4456
vn 0.491845 -0.132428 0.860553
v 7.03364 8.99688 -26.4847
vn 0.571149 -0.152876 0.806485
v 7.08702 8.98316 -26.5295
vn 0.644952 -0.171851 0.74465
v 7.1359 8.97063 -26.5794
vn 0.712544 -0.189171 0.675644
v 7.17983 8.95942 -26.634
vn 0.773274 -0.204669 0.600131
v 7.21837 8.94964 -26.6928
vn 0.826557 -0.218196 0.518839
v 7.25115 8.94137 -26.7552
vn 0.87188 -0.229622 0.432549
v 7.27785 8.93471 -26.8206
vn 0.908806 -0.238836 0.342094
v 7.29823 8.92971 -26.8884
vn 0.93698 -0.245751 0.248345
v 7.31208 8.92642 -26.958
vn 0.95613 -0.250298 0.152204
v 7.31927 8.92487 -27.0286
vn 0.966072 -0.252435 0.0545965
v 7.31973 8.92508 -27.0995
vn 0.966711 -0.252141 -0.0435364
v 7.31346 8.92705 -27.1702
vn 0.958039 -0.249419 -0.14125
v 7.30052 8.93076 -27.2399
vn 0.940141 -0.244295 -0.237603
v 7.28102 8.93617 -27.3079
vn 0.913189 -0.236818 -0.331668
v 7.25517 8.94322 -27.3737
vn 0.877442 -0.22706 -0.422539
v 7.2232 8.95186 -27.4364
vn 0.833245 -0.215116 -0.509341
v 7.18543 8.962 -27.4957
vn 0.781024 -0.201099 -0.591237
v 7.14222 8.97354 -27.5508
vn 0.72128 -0.185147 -0.667439
v 7.09399 8.98637 -27.6012
vn 0.654591 -0.167411 -0.737214
v 7.04119 9.00036 -27.6466
vn 0.581597 -0.148063 -0.799889
v 6.98435 9.01539 -27.6863
vn 0.503003 -0.127289 -0.85486
v 6.924 9.0313 -27.7201
vn 0.419564 -0.105289 -0.901599
v 6.86073 9.04794 -27.7477
vn 0.332084 -0.0822749 -0.939655
v 6.79515 9.06516 -27.7686
vn 0.241407 -0.0584687 -0.968661
v 6.72788 9.08279 -27.7829
vn 0.148404 -0.0340994 -0.988339
v 6.65958 9.10065 -27.7902
vn 0.0539723 -0.00940165 -0.998498
v 6.59091 9.11858 -27.7906
vn -0.0409792 0.0153866 -0.999042
v 6.52252 9.1364 -27.7841
vn -0.135536 0.0400267 -0.989964
v 6.45507 9.15394 -27.7706
vn -0.228788 0.0642813 -0.971352
v 6.38922 9.17104 -27.7504
vn -0.319836 0.0879168 -0.943385
v 6.32559 9.18752 -27.7236
vn -0.407804 0.110706 -0.906333
v 6.26481 9.20323 -27.6905
vn -0.491845 0.132428 -0.860553
v 6.20745 9.21802 -27.6513
vn -0.571149 0.152876 -0.806485
v 6.15407 9.23174 -27.6066
vn -0.644952 0.171851 -0.74465
v 6.10519 9.24427 -27.5567
vn -0.712544 0.189171 -0.675644
v 6.06126 9.25548 -27.5021
vn -0.773274 0.204669 -0.600131
v 6.02272 9.26526 -27.4433
vn -0.826557 0.218196 -0.518839
v 5.98994 9.27353 -27.3809
vn -0.87188 0.229622 -0.432549
v 5.96324 9.28019 -27.3155
vn -0.908806 0.238836 -0.342094
v 5.94286 9.28519 -27.2477
vn -0.93698 0.245751 -0.248345
v 5.45928 7.38279 -27.1829
vn -0.960211 0.234119 -0.152258
v 5.45221 7.38436 -27.1134
vn -0.970134 0.236334 -0.0546508
v 5.45179 7.38432 -27.0434
vn -0.970713 0.236273 0.0434828
v 5.45804 7.38266 -26.9738
vn -0.961944 0.233937 0.141198
v 5.47089 7.37939 -26.9052
vn -0.943911 0.229347 0.237553
v 5.49022 7.37454 -26.8381
vn -0.916788 0.222549 0.33162
v 5.51583 7.36817 -26.7734
vn -0.880835 0.213608 0.422494
v 5.54749 7.36034 -26.7115
vn -0.8364 0.202609 0.509298
v 5.58489 7.35111 -26.6532
vn -0.783909 0.189659 0.591198
v 5.62767 7.34058 -26.5989
vn -0.723869 0.174883 0.667405
v 5.67542 7.32885 -26.5492
vn -0.656858 0.158422 0.737184
v 5.72767 7.31604 -26.5045
vn -0.583521 0.140436 0.799863
v 5.78393 7.30226 -26.4654
vn -0.504564 0.121097 0.854839
v 5.84364 7.28765 -26.432
vn -0.420748 0.100592 0.901583
v 5.90625 7.27235 -26.4049
vn -0.33288 0.0791185 0.939644
v 5.97114 7.25651 -26.3843
vn -0.241807 0.0568829 0.968656
v 6.03769 7.24027 -26.3702
vn -0.148404 0.0340994 0.988339
v 6.10526 7.2238 -26.363
vn -0.0535723 0.0109875 0.998504
v 6.17319 7.20726 -26.3626
vn 0.0417754 -0.0122302 0.999052
v 6.24084 7.1908 -26.3691
vn 0.136721 -0.0353301 0.989979
v 6.30755 7.17459 -26.3823
vn 0.230349 -0.0580898 0.971373
v 6.37268 7.15877 -26.4022
vn 0.32176 -0.08029 0.943411
v 6.43561 7.1435 -26.4286
vn 0.410071 -0.101717 0.906364
v 6.49571 7.12893 -26.4613
vn 0.494434 -0.122164 0.860588
v 6.55243 7.1152 -26.4998
vn 0.574034 -0.141435 0.806524
v 6.60521 7.10244 -26.5438
vn 0.648107 -0.159344 0.744693
v 6.65354 7.09078 -26.593
vn 0.715938 -0.175718 0.67569
v 6.69695 7.08032 -26.6468
vn 0.776874 -0.1904 0.600179
v 6.73504 7.07116 -26.7047
vn 0.830328 -0.203249 0.518889
v 6.76743 7.0634 -26.7662
vn 0.875785 -0.21414 0.432602
v 6.79381 7.05711 -26.8306
vn 0.912809 -0.222968 0.342148
v 6.81392 7.05235 -26.8974
vn 0.941041 -0.229649 0.248399
v 6.82758 7.04917 -26.9659
vn 0.960211 -0.234119 0.152258
v 6.83465 7.04759 -27.0355
vn 0.970134 -0.236334 0.0546508
v 6.83506 7.04763 -27.1054
vn 0.970713 -0.236273 -0.0434828
v 6.82882 7.0493 -27.175
vn 0.961944 -0.233937 -0.141198
v 6.81597 7.05257 -27.2437
vn 0.943911 -0.229347 -0.237553
v 6.79664 7.05741 -27.3107
vn 0.916788 -0.222549 -0.33162
v 6.77103 7.06378 -27.3755
vn 0.880835 -0.213608 -0.422494
v 6.73937 7.07162 -27.4373
vn 0.8364 -0.202609 -0.509298
v 6.70197 7.08084 -27.4957
vn 0.783909 -0.189659 -0.591198
v 6.65919 7.09137 -27.55
vn 0.723869 -0.174883 -0.667405
v 6.61144 7.1031 -27.5997
vn 0.656858 -0.158422 -0.737184
v 6.55919 7.11592 -27.6443
vn 0.583521 -0.140436 -0.799863
v 6.50293 7.12969 -27.6835
vn 0.504564 -0.121097 -0.854839
v 6.44321 7.1443 -27.7168
vn 0.420748 -0.100592 -0.901583
v 6.38061 7.1596 -27.7439
vn 0.33288 -0.0791185 -0.939644
v 6.31572 7.17545 -27.7646
vn 0.241807 -0.0568829 -0.968656
v 6.24917 7.19168 -27.7786
vn 0.148404 -0.0340994 -0.988339
v 6.1816 7.20815 -27.7859
vn 0.0535723 -0.0109875 -0.998504
v 6.11366 7.22469 -27.7863
vn -0.0417754 0.0122302 -0.999052
v 6.04602 7.24115 -27.7798
vn -0.136721 0.0353301 -0.989979
v 5.9793 7.25737 -27.7665
vn -0.230349 0.0580898 -0.971373
v 5.91417 7.27318 -27.7466
vn -0.32176 0.08029 -0.943411
v 5.85125 7.28845 -27.7202
vn -0.410071 0.101717 -0.906364
v 5.79114 7.30302 -27.6876
vn -0.494434 0.122164 -0.860588
v 5.73443 7.31675 -27.6491
vn -0.574034 0.141435 -0.806524
v 5.68165 7.32951 -27.605
vn -0.648107 0.159344 -0.744693
v 5.63332 7.34118 -27.5559
vn -0.715938 0.175718 -0.67569
v 5.5899 7.35164 -27.5021
vn -0.776874 0.1904 -0.600179
v 5.55182 7.36079 -27.4441
vn -0.830328 0.203249 -0.518889
v 5.51943 7.36855 -27.3827
vn -0.875785 0.21414 -0.432602
v 5.49305 7.37484 -27.3182
vn -0.912809 0.222968 -0.342148
v 5.47293 7.3796 -27.2514
vn -0.941041 0.229649 -0.248399
v 5.02091 5.46911 -27.1827
vn -0.964022 0.217886 -0.15227
v 5.01396 5.47072 -27.1142
vn -0.973927 0.22018 -0.054663
v 5.01359 5.47084 -27.0453
vn -0.974451 0.220352 0.0434708
v 5.01981 5.46947 -26.9768
vn -0.965591 0.218403 0.141186
v 5.03255 5.46663 -26.9092
vn -0.947432 0.21435 0.237541
v 5.0517 5.46233 -26.8432
vn -0.920149 0.208233 0.331609
v 5.07706 5.45663 -26.7794
vn -0.884004 0.200111 0.422483
v 5.1084 5.44958 -26.7185
vn -0.839346 0.190061 0.509289
v 5.14541 5.44125 -26.661
vn -0.786604 0.178181 0.59119
v 5.18774 5.4317 -26.6075
vn -0.726287 0.164585 0.667397
v 5.23497 5.42105 -26.5585
vn -0.658976 0.149404 0.737177
v 5.28666 5.40939 -26.5146
vn -0.585318 0.132784 0.799857
v 5.34231 5.39683 -26.476
vn -0.506023 0.114885 0.854835
v 5.40137 5.38349 -26.4432
vn -0.421855 0.0958802 0.901579
v 5.46328 5.36951 -26.4165
vn -0.333624 0.0759517 0.939642
v 5.52745 5.35501 -26.3961
vn -0.24218 0.0552918 0.968655
v 5.59326 5.34014 -26.3823
vn -0.148404 0.0340994 0.988339
v 5.66007 5.32504 -26.3752
vn -0.0531988 0.0125786 0.998505
v 5.72724 5.30985 -26.3748
vn 0.0425189 -0.00906338 0.999055
v 5.79412 5.29472 -26.3811
vn 0.137827 -0.030618 0.989983
v 5.86007 5.2798 -26.3942
vn 0.231808 -0.0518778 0.971377
v 5.92445 5.26524 -26.4138
vn 0.323556 -0.072638 0.943417
v 5.98665 5.25116 -26.4398
vn 0.412189 -0.0926986 0.90637
v 6.04606 5.23771 -26.4719
vn 0.496851 -0.111867 0.860595
v 6.10211 5.22501 -26.5099
vn 0.576729 -0.129957 0.806532
v 6.15427 5.2132 -26.5533
vn 0.651053 -0.146796 0.744702
v 6.20203 5.20237 -26.6017
vn 0.719106 -0.162221 0.6757
v 6.24492 5.19264 -26.6547
vn 0.780235 -0.176084 0.60019
v 6.28254 5.18411 -26.7117
vn 0.833849 -0.188252 0.5189
v 6.31453 5.17684 -26.7723
vn 0.879433 -0.198606 0.432613
v 6.34058 5.17092 -26.8357
vn 0.916547 -0.207047 0.34216
v 6.36043 5.16639 -26.9015
vn 0.944834 -0.213495 0.248411
v 6.37389 5.16331 -26.969
vn 0.964022 -0.217886 0.15227
v 6.38084 5.1617 -27.0375
vn 0.973927 -0.22018 0.054663
v 6.38121 5.16158 -27.1064
vn 0.974451 -0.220352 -0.0434708
v 6.37499 5.16295 -27.1749
vn 0.965591 -0.218403 -0.141186
v 6.36225 5.16579 -27.2425
vn 0.947432 -0.21435 -0.237541
v 6.3431 5.17008 -27.3086
vn 0.920149 -0.208233 -0.331609
v 6.31774 5.17578 -27.3723
vn 0.884004 -0.200111 -0.422483
v 6.2864 5.18284 -27.4332
vn 0.839346 -0.190061 -0.509289
v 6.24939 5.19117 -27.4907
vn 0.786604 -0.178181 -0.59119
v 6.20706 5.20071 -27.5442
vn 0.726287 -0.164585 -0.667397
v 6.15983 5.21137 -27.5932
vn 0.658976 -0.149404 -0.737177
v 6.10814 5.22303 -27.6371
vn 0.585318 -0.132784 -0.799857
v 6.0525 5.23559 -27.6757
vn 0.506023 -0.114885 -0.854835
v 5.99343 5.24893 -27.7085
vn 0.421855 -0.0958802 -0.901579
v 5.93152 5.26291 -27.7352
vn 0.333624 -0.0759517 -0.939642
v 5.86735 5.27741 -27.7556
vn 0.24218 -0.0552918 -0.968655
v 5.80154 5.29228 -27.7694
vn 0.148404 -0.0340994 -0.988339
v 5.73473 5.30738 -27.7765
vn 0.0531988 -0.0125786 -0.998505
v 5.66756 5.32257 -27.7769
vn -0.0425189 0.00906338 -0.999055
v 5.60068 5.33769 -27.7706
vn -0.137827 0.030618 -0.989983
v 5.53473 5.35261 -27.7575
vn -0.231808 0.0518778 -0.971377
v 5.47035 5.36718 -27.7379
vn -0.323556 0.072638 -0.943417
v 5.40815 5.38126 -27.7119
vn -0.412189 0.0926986 -0.90637
v 5.34874 5.39471 -27.6798
vn -0.496851 0.111867 -0.860595
v 5.29269 5.40741 -27.6418
vn -0.576729 0.129957 -0.806532
v 5.24053 5.41922 -27.5984
vn -0.651053 0.146796 -0.744702
v 5.19278 5.43005 -27.55
vn -0.719106 0.162221 -0.6757
v 5.14988 5.43977 -27.497
vn -0.780235 0.176084 -0.60019
v 5.11226 5.44831 -27.44
vn -0.833849 0.188252 -0.5189
v 5.08027 5.45558 -27.3794
vn -0.879433 0.198606 -0.432613
v 5.05422 5.4615 -27.316
vn -0.916547 0.207047 -0.34216
v 5.03437 5.46603 -27.2502
vn -0.944834 0.213495 -0.248411
v 4.6139 3.54746 -27.1775
vn -0.967561 0.201614 -0.15224
v 4.60707 3.5491 -27.1101
vn -0.977448 0.203985 -0.054633
v 4.60674 3.54938 -27.0423
vn -0.977922 0.204392 0.0435003
v 4.61292 3.5483 -26.9748
vn -0.968978 0.202831 0.141215
v 4.62555 3.54587 -26.9082
vn -0.950702 0.199316 0.237569
v 4.6445 3.54212 -26.8432
vn -0.92327 0.193882 0.331636
v 4.6696 3.53707 -26.7804
vn -0.886947 0.18658 0.422508
v 4.7006 3.53078 -26.7204
vn -0.842082 0.177482 0.509312
v 4.73721 3.52332 -26.6638
vn -0.789107 0.166674 0.591211
v 4.77906 3.51474 -26.6112
vn -0.728532 0.154262 0.667416
v 4.82577 3.50514 -26.5629
vn -0.660942 0.140363 0.737193
v 4.87687 3.4946 -26.5196
vn -0.586986 0.125113 0.799871
v 4.93188 3.48323 -26.4817
vn -0.507377 0.108658 0.854846
v 4.99026 3.47113 -26.4494
vn -0.422882 0.0911565 0.901588
v 5.05146 3.45844 -26.4231
vn -0.334314 0.0727771 0.939647
v 5.11488 3.44525 -26.403
vn -0.242527 0.0536968 0.968657
v 5.17992 3.43171 -26.3894
vn -0.148404 0.0340994 0.988339
v 5.24594 3.41794 -26.3824
vn -0.0528519 0.0141736 0.998502
v 5.31232 3.40408 -26.382
vn 0.0432093 -0.00588875 0.999049
v 5.3784 3.39026 -26.3883
vn 0.138854 -0.0258943 0.989974
v 5.44357 3.3766 -26.4011
vn 0.233162 -0.0456506 0.971366
v 5.50718 3.36326 -26.4205
vn 0.325224 -0.0649671 0.943403
v 5.56863 3.35034 -26.4461
vn 0.414155 -0.0836581 0.906354
v 5.62732 3.33798 -26.4777
vn 0.499096 -0.101543 0.860576
v 5.68269 3.3263 -26.515
vn 0.579232 -0.118451 0.806511
v 5.73421 3.31541 -26.5578
vn 0.653788 -0.134217 0.744679
v 5.78138 3.30541 -26.6055
vn 0.722049 -0.148691 0.675675
v 5.82374 3.29639 -26.6576
vn 0.783356 -0.161733 0.600164
v 5.86089 3.28846 -26.7138
vn 0.837118 -0.173218 0.518873
v 5.89247 3.28168 -26.7734
vn 0.882819 -0.183034 0.432584
v 5.91817 3.27611 -26.8359
vn 0.920018 -0.191087 0.34213
v 5.93775 3.27182 -26.9007
vn 0.948356 -0.197301 0.248381
v 5.95102 3.26884 -26.9671
vn 0.967561 -0.201614 0.15224
v 5.95785 3.2672 -27.0346
vn 0.977448 -0.203985 0.054633
v 5.95818 3.26692 -27.1024
vn 0.977922 -0.204392 -0.0435003
v 5.952 3.268 -27.1699
vn 0.968978 -0.202831 -0.141215
v 5.93937 3.27043 -27.2365
vn 0.950702 -0.199316 -0.237569
v 5.92042 3.27418 -27.3015
vn 0.92327 -0.193882 -0.331636
v 5.89532 3.27923 -27.3643
vn 0.886947 -0.18658 -0.422508
v 5.86432 3.28551 -27.4242
vn 0.842082 -0.177482 -0.509312
v 5.82771 3.29298 -27.4808
vn 0.789107 -0.166674 -0.591211
v 5.78586 3.30156 -27.5335
vn 0.728532 -0.154262 -0.667416
v 5.73915 3.31116 -27.5817
vn 0.660942 -0.140363 -0.737193
v 5.68805 3.3217 -27.625
vn 0.586986 -0.125113 -0.799871
v 5.63304 3.33307 -27.663
vn 0.507377 -0.108658 -0.854846
v 5.57466 3.34516 -27.6953
vn 0.422882 -0.0911565 -0.901588
v 5.51346 3.35786 -27.7216
vn 0.334314 -0.0727771 -0.939647
v 5.45004 3.37105 -27.7416
vn 0.242527 -0.0536968 -0.968657
v 5.385 3.38459 -27.7552
vn 0.148404 -0.0340994 -0.988339
v 5.31898 3.39835 -27.7623
vn 0.0528519 -0.0141736 -0.998502
v 5.2526 3.41222 -27.7626
vn -0.0432093 0.00588875 -0.999049
v 5.18652 3.42604 -27.7564
vn -0.138854 0.0258943 -0.989974
v 5.12135 3.43969 -27.7435
vn -0.233162 0.0456506 -0.971366
v 5.05774 3.45304 -27.7242
vn -0.325224 0.0649671 -0.943403
v 4.99629 3.46595 -27.6986
vn -0.414155 0.0836581 -0.906354
v 4.9376 3.47831 -27.667
vn -0.499096 0.101543 -0.860576
v 4.88223 3.48999 -27.6296
vn -0.579232 0.118451 -0.806511
v 4.83071 3.50089 -27.5869
vn -0.653788 0.134217 -0.744679
v 4.78354 3.51089 -27.5392
vn -0.722049 0.148691 -0.675675
v 4.74118 3.5199 -27.487
vn -0.783356 0.161733 -0.600164
v 4.70403 3.52784 -27.4309
vn -0.837118 0.173218 -0.518873
v 4.67245 3.53462 -27.3712
vn -0.882819 0.183034 -0.432584
v 4.64675 3.54018 -27.3087
vn -0.920018 0.191087 -0.34213
v 4.62717 3.54448 -27.244
vn -0.948356 0.197301 -0.248381
v 4.23824 1.61785 -27.1674
vn -0.970826 0.185315 -0.152168
v 4.23153 1.61951 -27.101
vn -0.980697 0.187765 -0.0545613
v 4.23123 1.61995 -27.0342
vn -0.981124 0.188407 0.043571
v 4.23737 1.61915 -26.9677
vn -0.972102 0.187234 0.141284
v 4.24988 1.61713 -26.9022
vn -0.953718 0.184258 0.237636
v 4.26863 1.6139 -26.8382
vn -0.926149 0.179508 0.331699
v 4.29345 1.60949 -26.7764
vn -0.889661 0.173028 0.422568
v 4.3241 1.60395 -26.7174
vn -0.844605 0.164883 0.509368
v 4.36028 1.59733 -26.6617
vn -0.791415 0.155149 0.591262
v 4.40164 1.58969 -26.6098
vn -0.730603 0.143922 0.667462
v 4.44779 1.58111 -26.5624
vn -0.662756 0.131308 0.737234
v 4.49829 1.57167 -26.5197
vn -0.588525 0.11743 0.799905
v 4.55263 1.56146 -26.4824
vn -0.508627 0.102421 0.854874
v 4.61031 1.55058 -26.4506
vn -0.42383 0.0864252 0.901609
v 4.67077 1.53913 -26.4247
vn -0.334951 0.0695973 0.939662
v 4.73342 1.52723 -26.405
vn -0.242847 0.0520992 0.968665
v 4.79766 1.51499 -26.3916
vn -0.148404 0.0340994 0.988339
v 4.86287 1.50252 -26.3847
vn -0.0525319 0.0157711 0.998495
v 4.92843 1.48995 -26.3843
vn 0.0438462 -0.00270901 0.999035
v 4.9937 1.4774 -26.3905
vn 0.139802 -0.0211631 0.989953
v 5.05806 1.46498 -26.4031
vn 0.234412 -0.0394133 0.971338
v 5.12087 1.45283 -26.4222
vn 0.326764 -0.0572839 0.943369
v 5.18155 1.44105 -26.4474
vn 0.415969 -0.0746029 0.906314
v 5.23951 1.42976 -26.4785
vn 0.501168 -0.0912034 0.860531
v 5.29418 1.41906 -26.5153
vn 0.58154 -0.106926 0.80646
v 5.34504 1.40907 -26.5573
vn 0.656312 -0.121618 0.744623
v 5.3916 1.39987 -26.6043
vn 0.724763 -0.135139 0.675615
v 5.43341 1.39156 -26.6557
vn 0.786235 -0.147359 0.6001
v 5.47007 1.38421 -26.711
vn 0.840135 -0.15816 0.518806
v 5.50123 1.3779 -26.7696
vn 0.885943 -0.167437 0.432515
v 5.52659 1.37269 -26.8312
vn 0.92322 -0.175102 0.34206
v 5.5459 1.36862 -26.8949
vn 0.951605 -0.18108 0.24831
v 5.55897 1.36574 -26.9603
vn 0.970826 -0.185315 0.152168
v 5.56569 1.36407 -27.0267
vn 0.980697 -0.187765 0.0545613
v 5.56598 1.36364 -27.0935
vn 0.981124 -0.188407 -0.043571
v 5.55984 1.36443 -27.16
vn 0.972102 -0.187234 -0.141284
v 5.54734 1.36646 -27.2255
vn 0.953718 -0.184258 -0.237636
v 5.52858 1.36969 -27.2895
vn 0.926149 -0.179508 -0.331699
v 5.50376 1.3741 -27.3513
vn 0.889661 -0.173028 -0.422568
v 5.47312 1.37964 -27.4103
vn 0.844605 -0.164883 -0.509368
v 5.43694 1.38626 -27.466
vn 0.791415 -0.155149 -0.591262
v 5.39557 1.3939 -27.5179
vn 0.730603 -0.143922 -0.667462
v 5.34942 1.40248 -27.5653
vn 0.662756 -0.131308 -0.737234
v 5.29893 1.41192 -27.608
vn 0.588525 -0.11743 -0.799905
v 5.24458 1.42213 -27.6453
vn 0.508627 -0.102421 -0.854874
v 5.1869 1.43301 -27.6771
vn 0.42383 -0.0864252 -0.901609
v 5.12644 1.44445 -27.703
vn 0.334951 -0.0695973 -0.939662
v 5.06379 1.45635 -27.7227
vn 0.242847 -0.0520992 -0.968665
v 4.99955 1.4686 -27.7361
vn 0.148404 -0.0340994 -0.988339
v 4.93434 1.48107 -27.743
vn 0.0525319 -0.0157711 -0.998495
v 4.86878 1.49364 -27.7434
vn -0.0438462 0.00270901 -0.999035
v 4.80351 1.50619 -27.7372
vn -0.139802 0.0211631 -0.989953
v 4.73916 1.5186 -27.7246
vn -0.234412 0.0394133 -0.971338
v 4.67634 1.53076 -27.7055
vn -0.326764 0.0572839 -0.943369
v 4.61566 1.54254 -27.6803
vn -0.415969 0.0746029 -0.906314
v 4.55771 1.55383 -27.6492
vn -0.501168 0.0912034 -0.860531
v 4.50304 1.56453 -27.6124
vn -0.58154 0.106926 -0.80646
v 4.45218 1.57452 -27.5703
vn -0.656312 0.121618 -0.744623
v 4.40561 1.58372 -27.5234
vn -0.724763 0.135139 -0.675615
v 4.3638 1.59203 -27.472
vn -0.786235 0.147359 -0.6001
v 4.32714 1.59938 -27.4167
vn -0.840135 0.15816 -0.518806
v 4.29598 1.60569 -27.358
vn -0.885943 0.167437 -0.432515
v 4.27062 1.6109 -27.2965
vn -0.92322 0.175102 -0.34206
v 4.25131 1.61497 -27.2328
vn -0.951605 0.18108 -0.24831
v 3.89392 -0.319716 -27.1522
vn -0.973816 0.169004 -0.152054
v 3.88732 -0.318024 -27.0869
vn -0.983673 0.171532 -0.054448
v 3.88707 -0.317437 -27.0212
vn -0.984056 0.172409 0.0436827
v 3.89315 -0.317962 -26.9558
vn -0.974963 0.171625 0.141393
v 3.90553 -0.319593 -26.8913
vn -0.95648 0.169188 0.237741
v 3.92407 -0.322315 -26.8283
vn -0.928786 0.165122 0.3318
v 3.94859 -0.326101 -26.7675
vn -0.892147 0.159466 0.422663
v 3.97887 -0.330916 -26.7094
vn -0.846916 0.152274 0.509456
v 4.01461 -0.336712 -26.6545
vn -0.793529 0.143616 0.591342
v 4.05547 -0.343435 -26.6035
vn -0.7325 0.133574 0.667534
v 4.10105 -0.351018 -26.5568
vn -0.664417 0.122246 0.737297
v 4.15091 -0.35939 -26.5149
vn -0.589934 0.109741 0.799959
v 4.20458 -0.368469 -26.4781
vn -0.509771 0.0961787 0.854917
v 4.26153 -0.378168 -26.4468
vn -0.424698 0.0816903 0.901642
v 4.32122 -0.388394 -26.4213
vn -0.335535 0.0664152 0.939684
v 4.38307 -0.399048 -26.4019
vn -0.24314 0.0505004 0.968676
v 4.44649 -0.410028 -26.3888
vn -0.148404 0.0340994 0.988339
v 4.51087 -0.421227 -26.382
vn -0.0522388 0.0173699 0.998484
v 4.57558 -0.432539 -26.3816
vn 0.0444295 0.00047315 0.999012
v 4.64001 -0.443853 -26.3877
vn 0.14067 -0.0164282 0.98992
v 4.70353 -0.455062 -26.4002
vn 0.235556 -0.0331712 0.971295
v 4.76553 -0.466057 -26.4189
vn 0.328173 -0.0495949 0.943315
v 4.82542 -0.476732 -26.4437
vn 0.41763 -0.0655409 0.90625
v 4.88261 -0.486984 -26.4744
vn 0.503064 -0.0808557 0.860458
v 4.93657 -0.496715 -26.5106
vn 0.583654 -0.0953918 0.80638
v 4.98675 -0.505831 -26.552
vn 0.658623 -0.109009 0.744535
v 5.03269 -0.514245 -26.5982
vn 0.727249 -0.121577 0.67552
v 5.07395 -0.521874 -26.6487
vn 0.788872 -0.132974 0.6
v 5.11011 -0.528647 -26.7032
vn 0.842897 -0.14309 0.518701
v 5.14085 -0.534496 -26.7609
vn 0.888804 -0.151828 0.432406
v 5.16585 -0.539367 -26.8215
vn 0.926152 -0.159104 0.341948
v 5.18488 -0.543212 -26.8843
vn 0.95458 -0.164848 0.248196
v 5.19776 -0.545995 -26.9486
vn 0.973816 -0.169004 0.152054
v 5.20436 -0.547687 -27.014
vn 0.983673 -0.171532 0.054448
v 5.20461 -0.548274 -27.0797
vn 0.984056 -0.172409 -0.0436827
v 5.19853 -0.547749 -27.1451
vn 0.974963 -0.171625 -0.141393
v 5.18615 -0.546118 -27.2096
vn 0.95648 -0.169188 -0.237741
v 5.16761 -0.543396 -27.2725
vn 0.928786 -0.165122 -0.3318
v 5.14308 -0.53961 -27.3334
vn 0.892147 -0.159466 -0.422663
v 5.11281 -0.534795 -27.3915
vn 0.846916 -0.152274 -0.509456
v 5.07707 -0.528999 -27.4463
vn 0.793529 -0.143616 -0.591342
v 5.03621 -0.522276 -27.4973
vn 0.7325 -0.133574 -0.667534
v 4.99063 -0.514693 -27.544
vn 0.664417 -0.122246 -0.737297
v 4.94077 -0.506321 -27.5859
vn 0.589934 -0.109741 -0.799959
v 4.8871 -0.497242 -27.6227
vn 0.509771 -0.0961787 -0.854917
v 4.83015 -0.487543 -27.654
vn 0.424698 -0.0816903 -0.901642
v 4.77046 -0.477317 -27.6795
vn 0.335535 -0.0664152 -0.939684
v 4.70861 -0.466663 -27.6989
vn 0.24314 -0.0505004 -0.968676
v 4.64519 -0.455683 -27.7121
vn 0.148404 -0.0340994 -0.988339
v 4.58081 -0.444484 -27.7188
vn 0.0522388 -0.0173699 -0.998484
v 4.5161 -0.433172 -27.7192
vn -0.0444295 -0.00047315 -0.999012
v 4.45167 -0.421858 -27.7131
vn -0.14067 0.0164282 -0.98992
v 4.38815 -0.410649 -27.7006
vn -0.235556 0.0331712 -0.971295
v 4.32615 -0.399654 -27.6819
vn -0.328173 0.0495949 -0.943315
v 4.26626 -0.388979 -27.6571
vn -0.41763 0.0655409 -0.90625
v 4.20906 -0.378727 -27.6264
vn -0.503064 0.0808557 -0.860458
v 4.15511 -0.368996 -27.5902
vn -0.583654 0.0953918 -0.80638
v 4.10493 -0.35988 -27.5488
vn -0.658623 0.109009 -0.744535
v 4.05898 -0.351466 -27.5026
vn -0.727249 0.121577 -0.67552
v 4.01773 -0.343837 -27.4521
vn -0.788872 0.132974 -0.6
v 3.98156 -0.337064 -27.3977
vn -0.842897 0.14309 -0.518701
v 3.95083 -0.331215 -27.3399
vn -0.888804 0.151828 -0.432406
v 3.92583 -0.326344 -27.2793
vn -0.926152 0.159104 -0.341948
v 3.9068 -0.322499 -27.2166
vn -0.95458 0.164848 -0.248196
v 3.58094 -2.26522 -27.1321
vn -0.97653 0.152694 -0.151899
v 3.57445 -2.2635 -27.0678
vn -0.986374 0.155301 -0.0542936
v 3.57423 -2.26277 -27.0032
vn -0.986719 0.156412 0.0438349
v 3.58026 -2.26303 -26.9388
vn -0.977561 0.156017 0.141541
v 3.59249 -2.26428 -26.8753
vn -0.958988 0.15412 0.237884
v 3.61081 -2.26651 -26.8134
vn -0.93118 0.150738 0.331937
v 3.63503 -2.26969 -26.7535
vn -0.894404 0.145905 0.422792
v 3.66493 -2.2738 -26.6964
vn -0.849015 0.139666 0.509576
v 3.70021 -2.2788 -26.6424
vn -0.795449 0.132083 0.591452
v 3.74054 -2.28463 -26.5923
vn -0.734222 0.123227 0.667632
v 3.78553 -2.29125 -26.5463
vn -0.665925 0.113185 0.737383
v 3.83474 -2.29858 -26.5051
vn -0.591214 0.102052 0.800032
v 3.8877 -2.30656 -26.4689
vn -0.510809 0.0899371 0.854977
v 3.9439 -2.31511 -26.4381
vn -0.425486 0.0769557 0.901687
v 4.0028 -2.32415 -26.4131
vn -0.336064 0.0632332 0.939714
v 4.06383 -2.33359 -26.394
vn -0.243406 0.0489018 0.968691
v 4.12641 -2.34334 -26.381
vn -0.148404 0.0340994 0.988339
v 4.18993 -2.3533 -26.3744
vn -0.0519728 0.0189686 0.998468
v 4.25377 -2.36339 -26.374
vn 0.0449591 0.00365507 0.998982
v 4.31734 -2.3735 -26.38
vn 0.141458 -0.0116936 0.989875
v 4.38 -2.38354 -26.3923
vn 0.236594 -0.0269297 0.971235
v 4.44116 -2.3934 -26.4107
vn 0.329452 -0.0419064 0.943242
v 4.50024 -2.403 -26.4352
vn 0.419138 -0.0564795 0.906164
v 4.55665 -2.41224 -26.4653
vn 0.504786 -0.0705088 0.86036
v 4.60987 -2.42103 -26.5009
vn 0.585574 -0.0838589 0.80627
v 4.65937 -2.4293 -26.5417
vn 0.660722 -0.0964015 0.744415
v 4.70467 -2.43695 -26.5872
vn 0.729506 -0.108016 0.675391
v 4.74535 -2.44391 -26.6369
vn 0.791266 -0.11859 0.599863
v 4.78101 -2.45012 -26.6905
vn 0.845404 -0.128021 0.518557
v 4.81131 -2.45552 -26.7473
vn 0.891402 -0.13622 0.432258
v 4.83595 -2.46006 -26.8069
vn 0.928814 -0.143107 0.341796
v 4.85471 -2.46369 -26.8686
vn 0.957282 -0.148616 0.248042
v 4.86738 -2.46637 -26.932
vn 0.97653 -0.152694 0.151899
v 4.87387 -2.46809 -26.9963
vn 0.986374 -0.155301 0.0542936
v 4.8741 -2.46882 -27.0609
vn 0.986719 -0.156412 -0.0438349
v 4.86806 -2.46856 -27.1253
vn 0.977561 -0.156017 -0.141541
v 4.85583 -2.46731 -27.1887
vn 0.958988 -0.15412 -0.237884
v 4.83751 -2.46509 -27.2507
vn 0.93118 -0.150738 -0.331937
v 4.81329 -2.4619 -27.3105
vn 0.894404 -0.145905 -0.422792
v 4.78339 -2.45779 -27.3677
vn 0.849015 -0.139666 -0.509576
v 4.74811 -2.4528 -27.4216
vn 0.795449 -0.132083 -0.591452
v 4.70778 -2.44697 -27.4718
vn 0.734222 -0.123227 -0.667632
v 4.66279 -2.44035 -27.5177
vn 0.665925 -0.113185 -0.737383
v 4.61358 -2.43302 -27.559
vn 0.591214 -0.102052 -0.800032
v 4.56062 -2.42504 -27.5952
vn 0.510809 -0.0899371 -0.854977
v 4.50442 -2.41649 -27.626
vn 0.425486 -0.0769557 -0.901687
v 4.44552 -2.40745 -27.651
vn 0.336064 -0.0632332 -0.939714
v 4.38449 -2.39801 -27.6701
vn 0.243406 -0.0489018 -0.968691
v 4.32191 -2.38826 -27.683
vn 0.148404 -0.0340994 -0.988339
v 4.25839 -2.37829 -27.6897
vn 0.0519728 -0.0189686 -0.998468
v 4.19455 -2.36821 -27.69
vn -0.0449591 -0.00365507 -0.998982
v 4.13098 -2.3581 -27.684
vn -0.141458 0.0116936 -0.989875
v 4.06832 -2.34806 -27.6718
vn -0.236594 0.0269297 -0.971235
v 4.00716 -2.3382 -27.6533
vn -0.329452 0.0419064 -0.943242
v 3.94808 -2.3286 -27.6289
vn -0.419138 0.0564795 -0.906164
v 3.89167 -2.31936 -27.5987
vn -0.504786 0.0705088 -0.86036
v 3.83845 -2.31056 -27.5631
vn -0.585574 0.0838589 -0.80627
v 3.78895 -2.3023 -27.5224
vn -0.660722 0.0964015 -0.744415
v 3.74365 -2.29465 -27.4769
vn -0.729506 0.108016 -0.675391
v 3.70297 -2.28769 -27.4271
vn -0.791266 0.11859 -0.599863
v 3.66731 -2.28147 -27.3736
vn -0.845404 0.128021 -0.518557
v 3.63701 -2.27607 -27.3167
vn -0.891402 0.13622 -0.432258
v 3.61237 -2.27154 -27.2572
vn -0.928814 0.143107 -0.341796
v 3.59361 -2.26791 -27.1954
vn -0.957282 0.148616 -0.248042
v 3.29927 -4.21866 -27.107
vn -0.97897 0.136399 -0.151703
v 3.2929 -4.21692 -27.0437
vn -0.988802 0.139084 -0.0540986
v 3.2927 -4.21605 -26.9802
vn -0.989111 0.14043 0.044027
v 3.29867 -4.21605 -26.9169
vn -0.979895 0.140424 0.141729
v 3.31076 -4.21693 -26.8544
vn -0.961242 0.139065 0.238065
v 3.32884 -4.21868 -26.7935
vn -0.933331 0.136367 0.332109
v 3.35275 -4.22128 -26.7346
vn -0.896432 0.132356 0.422955
v 3.38225 -4.2247 -26.6784
vn -0.8509 0.12707 0.509727
v 3.41706 -4.22892 -26.6254
vn -0.797174 0.12056 0.591591
v 3.45685 -4.23389 -26.576
vn -0.73577 0.112889 0.667757
v 3.50122 -4.23957 -26.5308
vn -0.66728 0.104132 0.737492
v 3.54976 -4.24589 -26.4903
vn -0.592364 0.0943708 0.800125
v 3.602 -4.2528 -26.4547
vn -0.511743 0.0837012 0.855052
v 3.65743 -4.26024 -26.4244
vn -0.426194 0.0722255 0.901744
v 3.71552 -4.26812 -26.3998
vn -0.33654 0.0600542 0.939752
v 3.77571 -4.27638 -26.381
vn -0.243645 0.0473046 0.96871
v 3.83741 -4.28494 -26.3683
vn -0.148404 0.0340994 0.988339
v 3.90005 -4.29371 -26.3618
vn -0.0517337 0.0205658 0.998449
v 3.96301 -4.30261 -26.3614
vn 0.045435 0.00683412 0.998944
v 4.02568 -4.31155 -26.3674
vn 0.142166 -0.00696335 0.989818
v 4.08747 -4.32044 -26.3795
vn 0.237528 -0.0206938 0.97116
v 4.14777 -4.32921 -26.3976
vn 0.330602 -0.0342249 0.943149
v 4.20601 -4.33776 -26.4216
vn 0.420493 -0.0474264 0.906055
v 4.26163 -4.34602 -26.4513
vn 0.506334 -0.0601712 0.860236
v 4.31409 -4.3539 -26.4864
vn 0.587299 -0.0723365 0.806131
v 4.36288 -4.36133 -26.5265
vn 0.662607 -0.0838051 0.744264
v 4.40754 -4.36824 -26.5712
vn 0.731535 -0.0944667 0.675228
v 4.44764 -4.37456 -26.6201
vn 0.793417 -0.104218 0.59969
v 4.48278 -4.38023 -26.6728
vn 0.847658 -0.112967 0.518376
v 4.51264 -4.38519 -26.7287
vn 0.893736 -0.120627 0.432071
v 4.53691 -4.3894 -26.7874
vn 0.931207 -0.127125 0.341604
v 4.55538 -4.39282 -26.8481
vn 0.959709 -0.132399 0.247847
v 4.56786 -4.39541 -26.9104
vn 0.97897 -0.136399 0.151703
v 4.57423 -4.39715 -26.9736
vn 0.988802 -0.139084 0.0540986
v 4.57443 -4.39802 -27.0372
vn 0.989111 -0.14043 -0.044027
v 4.56846 -4.39802 -27.1005
vn 0.979895 -0.140424 -0.141729
v 4.55638 -4.39714 -27.1629
vn 0.961242 -0.139065 -0.238065
v 4.53829 -4.39539 -27.2239
vn 0.933331 -0.136367 -0.332109
v 4.51438 -4.39279 -27.2827
vn 0.896432 -0.132356 -0.422955
v 4.48488 -4.38937 -27.3389
vn 0.8509 -0.12707 -0.509727
v 4.45007 -4.38515 -27.392
vn 0.797174 -0.12056 -0.591591
v 4.41029 -4.38018 -27.4413
vn 0.73577 -0.112889 -0.667757
v 4.36591 -4.3745 -27.4865
vn 0.66728 -0.104132 -0.737492
v 4.31737 -4.36818 -27.5271
vn 0.592364 -0.0943708 -0.800125
v 4.26514 -4.36127 -27.5627
vn 0.511743 -0.0837012 -0.855052
v 4.20971 -4.35383 -27.5929
vn 0.426194 -0.0722255 -0.901744
v 4.15162 -4.34594 -27.6176
vn 0.33654 -0.0600542 -0.939752
v 4.09143 -4.33768 -27.6363
vn 0.243645 -0.0473046 -0.96871
v 4.02972 -4.32913 -27.649
vn 0.148404 -0.0340994 -0.988339
v 3.96709 -4.32036 -27.6556
vn 0.0517337 -0.0205658 -0.998449
v 3.90413 -4.31146 -27.6559
vn -0.045435 -0.00683412 -0.998944
v 3.84146 -4.30252 -27.65
vn -0.142166 0.00696335 -0.989818
v 3.77967 -4.29363 -27.6379
vn -0.237528 0.0206938 -0.97116
v 3.71936 -4.28486 -27.6198
vn -0.330602 0.0342249 -0.943149
v 3.66112 -4.27631 -27.5957
vn -0.420493 0.0474264 -0.906055
v 3.6055 -4.26805 -27.566
vn -0.506334 0.0601712 -0.860236
v 3.55305 -4.26017 -27.531
vn -0.587299 0.0723365 -0.806131
v 3.50425 -4.25274 -27.4909
vn -0.662607 0.0838051 -0.744264
v 3.45959 -4.24583 -27.4462
vn -0.731535 0.0944667 -0.675228
v 3.4195 -4.23951 -27.3972
vn -0.793417 0.104218 -0.59969
v 3.38435 -4.23384 -27.3445
vn -0.847658 0.112967 -0.518376
v 3.3545 -4.22888 -27.2886
vn -0.893736 0.120627 -0.432071
v 3.33022 -4.22467 -27.23
vn -0.931207 0.127125 -0.341604
v 3.31175 -4.22125 -27.1693
vn -0.959709 0.132399 -0.247847
v 3.04893 -6.18002 -27.0769
vn -0.981135 0.120131 -0.151467
v 3.04267 -6.17826 -27.0147
vn -0.990957 0.122895 -0.0538637
v 3.04249 -6.17725 -26.9522
vn -0.991235 0.124476 0.0442586
v 3.0484 -6.17701 -26.8899
vn -0.981967 0.124857 0.141955
v 3.06033 -6.17753 -26.8286
vn -0.963242 0.124036 0.238283
v 3.07817 -6.17882 -26.7686
vn -0.935241 0.122021 0.332318
v 3.10175 -6.18085 -26.7108
vn -0.898233 0.11883 0.423151
v 3.13084 -6.18361 -26.6555
vn -0.852574 0.114495 0.50991
v 3.16516 -6.18708 -26.6033
vn -0.798705 0.109058 0.591758
v 3.20439 -6.19121 -26.5548
vn -0.737143 0.10257 0.667906
v 3.24814 -6.19598 -26.5104
vn -0.668483 0.0950941 0.737623
v 3.29598 -6.20132 -26.4705
vn -0.593385 0.0867025 0.800236
v 3.34747 -6.2072 -26.4355
vn -0.512572 0.077476 0.855142
v 3.40211 -6.21355 -26.4058
vn -0.426822 0.0675034 0.901813
v 3.45937 -6.22032 -26.3816
vn -0.336963 0.0568806 0.939798
v 3.51869 -6.22744 -26.3632
vn -0.243858 0.0457101 0.968733
v 3.57951 -6.23484 -26.3507
vn -0.148404 0.0340994 0.988339
v 3.64124 -6.24245 -26.3442
vn -0.0515214 0.0221602 0.998426
v 3.70328 -6.25019 -26.3439
vn 0.0458574 0.0100077 0.998898
v 3.76505 -6.25799 -26.3498
vn 0.142795 -0.00224127 0.98975
v 3.82593 -6.26578 -26.3617
vn 0.238357 -0.0144686 0.97107
v 3.88536 -6.27349 -26.3795
vn 0.331623 -0.0265566 0.943038
v 3.94275 -6.28102 -26.4032
vn 0.421696 -0.0383889 0.905924
v 3.99755 -6.28833 -26.4324
vn 0.507708 -0.0498514 0.860086
v 4.04924 -6.29533 -26.4669
vn 0.58883 -0.0608339 0.805964
v 4.09731 -6.30195 -26.5063
vn 0.664281 -0.0712305 0.744081
v 4.14131 -6.30814 -26.5503
vn 0.733335 -0.0809411 0.675032
v 4.18081 -6.31383 -26.5984
vn 0.795327 -0.0898722 0.599482
v 4.21543 -6.31897 -26.6502
vn 0.849659 -0.0979377 0.518158
v 4.24483 -6.3235 -26.7052
vn 0.895808 -0.10506 0.431845
v 4.26874 -6.3274 -26.7629
vn 0.933331 -0.111171 0.341372
v 4.28692 -6.33061 -26.8226
vn 0.961865 -0.116211 0.247612
v 4.2992 -6.33311 -26.8839
vn 0.981135 -0.120131 0.151467
v 4.30546 -6.33487 -26.9461
vn 0.990957 -0.122895 0.0538637
v 4.30563 -6.33588 -27.0086
vn 0.991235 -0.124476 -0.0442586
v 4.29973 -6.33612 -27.0708
vn 0.981967 -0.124857 -0.141955
v 4.2878 -6.3356 -27.1322
vn 0.963242 -0.124036 -0.238283
v 4.26996 -6.33431 -27.1921
vn 0.935241 -0.122021 -0.332318
v 4.24638 -6.33228 -27.25
vn 0.898233 -0.11883 -0.423151
v 4.21729 -6.32952 -27.3053
vn 0.852574 -0.114495 -0.50991
v 4.18296 -6.32605 -27.3574
vn 0.798705 -0.109058 -0.591758
v 4.14374 -6.32192 -27.4059
vn 0.737143 -0.10257 -0.667906
v 4.09999 -6.31715 -27.4504
vn 0.668483 -0.0950941 -0.737623
v 4.05214 -6.31181 -27.4903
vn 0.593385 -0.0867025 -0.800236
v 4.00065 -6.30593 -27.5252
vn 0.512572 -0.077476 -0.855142
v 3.94601 -6.29958 -27.555
vn 0.426822 -0.0675034 -0.901813
v 3.88876 -6.29281 -27.5792
vn 0.336963 -0.0568806 -0.939798
v 3.82944 -6.28569 -27.5976
vn 0.243858 -0.0457101 -0.968733
v 3.76862 -6.27829 -27.6101
vn 0.148404 -0.0340994 -0.988339
v 3.70689 -6.27068 -27.6165
vn 0.0515214 -0.0221602 -0.998426
v 3.64484 -6.26294 -27.6168
vn -0.0458574 -0.0100077 -0.998898
v 3.58308 -6.25514 -27.611
vn -0.142795 0.00224127 -0.98975
v 3.52219 -6.24735 -27.5991
vn -0.238357 0.0144686 -0.97107
v 3.46277 -6.23964 -27.5812
vn -0.331623 0.0265566 -0.943038
v 3.40538 -6.23211 -27.5576
vn -0.421696 0.0383889 -0.905924
v 3.35057 -6.2248 -27.5284
vn -0.507708 0.0498514 -0.860086
v 3.29889 -6.2178 -27.4939
vn -0.58883 0.0608339 -0.805964
v 3.25081 -6.21118 -27.4545
vn -0.664281 0.0712305 -0.744081
v 3.20681 -6.20499 -27.4105
vn -0.733335 0.0809411 -0.675032
v 3.16732 -6.1993 -27.3624
vn -0.795327 0.0898722 -0.599482
v 3.1327 -6.19416 -27.3105
vn -0.849659 0.0979377 -0.518158
v 3.10329 -6.18963 -27.2555
vn -0.895808 0.10506 -0.431845
v 3.07939 -6.18573 -27.1979
vn -0.933331 0.111171 -0.341372
v 3.06121 -6.18252 -27.1382
vn -0.961865 0.116211 -0.247612
v 2.82988 -8.1493 -27.0418
vn -0.983028 0.103906 -0.151192
v 2.82374 -8.14752 -26.9807
vn -0.992841 0.106748 -0.0535895
v 2.82358 -8.14639 -26.9192
vn -0.993092 0.108562 0.0445288
v 2.82941 -8.14591 -26.8581
vn -0.983779 0.10933 0.142218
v 2.84118 -8.14608 -26.7977
vn -0.964992 0.109046 0.238538
v 2.85877 -8.14692 -26.7388
vn -0.936911 0.107711 0.332561
v 2.88201 -8.14841 -26.6819
vn -0.899807 0.105339 0.42338
v 2.91068 -8.15053 -26.6276
vn -0.854038 0.101953 0.510123
v 2.9445 -8.15326 -26.5763
vn -0.800044 0.0975843 0.591952
v 2.98315 -8.15659 -26.5287
vn -0.738344 0.0922762 0.668081
v 3.02625 -8.16047 -26.485
vn -0.669535 0.0860795 0.737776
v 3.07339 -8.16487 -26.4458
vn -0.594277 0.0790537 0.800366
v 3.12412 -8.16975 -26.4114
vn -0.513296 0.0712667 0.855247
v 3.17794 -8.17506 -26.3822
vn -0.427372 0.0627933 0.901893
v 3.23434 -8.18074 -26.3584
vn -0.337332 0.0537151 0.939852
v 3.29278 -8.18675 -26.3403
vn -0.244043 0.0441197 0.96876
v 3.35269 -8.19303 -26.3281
vn -0.148404 0.0340994 0.988339
v 3.41349 -8.19951 -26.3217
vn -0.0513359 0.0237506 0.998399
v 3.4746 -8.20614 -26.3215
vn 0.0462268 0.0131732 0.998844
v 3.53543 -8.21284 -26.3272
vn 0.143344 0.00246884 0.98967
v 3.5954 -8.21956 -26.3389
vn 0.239081 -0.00825926 0.970964
v 3.65393 -8.22623 -26.3565
vn 0.332516 -0.0189078 0.942908
v 3.71045 -8.23279 -26.3798
vn 0.422748 -0.0293743 0.905771
v 3.76442 -8.23917 -26.4085
vn 0.508909 -0.0395579 0.859911
v 3.81532 -8.24531 -26.4424
vn 0.590168 -0.0493605 0.80577
v 3.86266 -8.25115 -26.4812
vn 0.665745 -0.0586877 0.743868
v 3.90599 -8.25664 -26.5244
vn 0.734909 -0.0674498 0.674803
v 3.94488 -8.26172 -26.5718
vn 0.796996 -0.0755623 0.599239
v 3.97896 -8.26635 -26.6227
vn 0.851408 -0.082947 0.517904
v 4.00791 -8.27047 -26.6768
vn 0.89762 -0.089533 0.431581
v 4.03144 -8.27406 -26.7335
vn 0.935188 -0.0952567 0.341102
v 4.04933 -8.27707 -26.7922
vn 0.963749 -0.100063 0.247338
v 4.06141 -8.27947 -26.8524
vn 0.983028 -0.103906 0.151192
v 4.06755 -8.28125 -26.9136
vn 0.992841 -0.106748 0.0535895
v 4.06771 -8.28239 -26.975
vn 0.993092 -0.108562 -0.0445288
v 4.06188 -8.28287 -27.0362
vn 0.983779 -0.10933 -0.142218
v 4.05011 -8.28269 -27.0966
vn 0.964992 -0.109046 -0.238538
v 4.03252 -8.28186 -27.1555
vn 0.936911 -0.107711 -0.332561
v 4.00928 -8.28037 -27.2123
vn 0.899807 -0.105339 -0.42338
v 3.98061 -8.27825 -27.2667
vn 0.854038 -0.101953 -0.510123
v 3.94679 -8.27552 -27.3179
vn 0.800044 -0.0975843 -0.591952
v 3.90814 -8.27219 -27.3656
vn 0.738344 -0.0922762 -0.668081
v 3.86504 -8.26831 -27.4093
vn 0.669535 -0.0860795 -0.737776
v 3.8179 -8.26391 -27.4485
vn 0.594277 -0.0790537 -0.800366
v 3.76717 -8.25903 -27.4829
vn 0.513296 -0.0712667 -0.855247
v 3.71335 -8.25372 -27.5121
vn 0.427372 -0.0627933 -0.901893
v 3.65695 -8.24804 -27.5359
vn 0.337332 -0.0537151 -0.939852
v 3.59851 -8.24203 -27.554
vn 0.244043 -0.0441197 -0.96876
v 3.5386 -8.23575 -27.5662
vn 0.148404 -0.0340994 -0.988339
v 3.4778 -8.22927 -27.5725
vn 0.0513359 -0.0237506 -0.998399
v 3.41669 -8.22264 -27.5728
vn -0.0462268 -0.0131732 -0.998844
v 3.35586 -8.21594 -27.5671
vn -0.143344 -0.00246884 -0.98967
v 3.29589 -8.20922 -27.5553
vn -0.239081 0.00825926 -0.970964
v 3.23736 -8.20255 -27.5378
vn -0.332516 0.0189078 -0.942908
v 3.18084 -8.19599 -27.5145
vn -0.422748 0.0293743 -0.905771
v 3.12687 -8.18961 -27.4858
vn -0.508909 0.0395579 -0.859911
v 3.07597 -8.18347 -27.4519
vn -0.590168 0.0493605 -0.80577
v 3.02863 -8.17763 -27.4131
vn -0.665745 0.0586877 -0.743868
v 2.9853 -8.17214 -27.3698
vn -0.734909 0.0674498 -0.674803
v 2.94641 -8.16706 -27.3225
vn -0.796996 0.0755623 -0.599239
v 2.91233 -8.16243 -27.2715
vn -0.851408 0.082947 -0.517904
v 2.88338 -8.15831 -27.2175
vn -0.89762 0.089533 -0.431581
v 2.85985 -8.15472 -27.1608
vn -0.935188 0.0952567 -0.341102
v 2.84196 -8.15171 -27.1021
vn -0.963749 0.100063 -0.247338
f 1 66 2 
f 1 65 66 
f 2 67 3 
f 2 66 67 
f 3 68 4 
f 3 67 68 
f 4 69 5 
f 4 68 69 
f 5 70 6 
f 5 69 70 
f 6 71 7 
f 6 70 71 
f 7 72 8 
f 7 71 72 
f 8 73 9 
f 8 72 73 
f 9 74 10 
f 9 73 74 
f 10 75 11 
f 10 74 75 
f 11 76 12 
f 11 75 76 
f 12 77 13 
f 12 76 77 
f 13 78 14 
f 13 77 78 
f 14 79 15 
f 14 78 79 
f 15 80 16 
f 15 79 80 
f 16 81 17 
f 16 80 81 
f 17 82 18 
f 17 81 82 
f 18 83 19 
f 18 82 83 
f 19 84 20 
f 19 83 84 
f 20 85 21 
f 20 84 85 
f 21 86 22 
f 21 85 86 
f 22 87 23 
f 22 86 87 
f 23 88 24 
f 23 87 88 
f 24 89 25 
f 24 88 89 
f 25 90 26 
f 25 89 90 
f 26 91 27 
f 26 90 91 
f 27 92 28 
f 27 91 92 
f 28 93 29 
f 28 92 93 
f 29 94 30 
f 29 93 94 
f 30 95 31 
f 30 94 95 
f 31 96 32 
f 31 95 96 
f 32 97 33 
f 32 96 97 
f 33 98 34 
f 33 97 98 
f 34 99 35 
f 34 98 99 
f 35 100 36 
f 35 99 100 
f 36 101 37 
f 36 100 101 
f 37 102 38 
f 37 101 102 
f 38 103 39 
f 38 102 103 
f 39 104 40 
f 39 103 104 
f 40 105 41 
f 40 104 105 
f 41 106 42 
f 41 105 106 
f 42 107 43 
f 42 106 107 
f 43 108 44 
f 43 107 108 
f 44 109 45 
f 44 108 109 
f 45 110 46 
f 45 109 110 
f 46 111 47 
f 46 110 111 
f 47 112 48 
f 47 111 112 
f 48 113 49 
f 48 112 113 
f 49 114 50 
f 49 113 114 
f 50 115 51 
f 50 114 115 
f 51 116 52 
f 51 115 116 
f 52 117 53 
f 52 116 117 
f 53 118 54 
f 53 117 118 
f 54 119 55 
f 54 118 119 
f 55 120 56 
f 55 119 120 
f 56 121 57 
f 56 120 121 
f 57 122 58 
f 57 121 122 
f 58 123 59 
f 58 122 123 
f 59 124 60 
f 59 123 124 
f 60 125 61 
f 60 124 125 
f 61 126 62 
f 61 125 126 
f 62 127 63 
f 62 126 127 
f 63 128 64 
f 63 127 128 
f 64 65 1 
f 64 128 65 
f 65 130 66 
f 65 129 130 
f 66 131 67 
f 66 130 131 
f 67 132 68 
f 67 131 132 
f 68 133 69 
f 68 132 133 
f 69 134 70 
f 69 133 134 
f 70 135 71 
f 70 134 135 
f 71 136 72 
f 71 135 136 
f 72 137 73 
f 72 136 137 
f 73 138 74 
f 73 137 138 
f 74 139 75 
f 74 138 139 
f 75 140 76 
f 75 139 140 
f 76 141 77 
f 76 140 141 
f 77 142 78 
f 77 141 142 
f 78 143 79 
f 78 142 143 
f 79 144 80 
f 79 143 144 
f 80 145 81 
f 80 144 145 
f 81 146 82 
f 81 145 146 
f 82 147 83 
f 82 146 147 
f 83 148 84 
f 83 147 148 
f 84 149 85 
f 84 148 149 
f 85 150 86 
f 85 149 150 
f 86 151 87 
f 86 150 151 
f 87 152 88 
f 87 151 152 
f 88 153 89 
f 88 152 153 
f 89 154 90 
f 89 153 154 
f 90 155 91 
f 90 154 155 
f 91 156 92 
f 91 155 156 
f 92 157 93 
f 92 156 157 
f 93 158 94 
f 93 157 158 
f 94 159 95 
f 94 158 159 
f 95 160 96 
f 95 159 160 
f 96 161 97 
f 96 160 161 
f 97 162 98 
f 97 161 162 
f 98 163 99 
f 98 162 163 
f 99 164 100 
f 99 163 164 
f 100 165 101 
f 100 164 165 
f 101 166 102 
f 101 165 166 
f 102 167 103 
f 102 166 167 
f 103 168 104 
f 103 167 168 
f 104 169 105 
f 104 168 169 
f 105 170 106 
f 105 169 170 
f 106 171 107 
f 106 170 171 
f 107 172 108 
f 107 171 172 
f 108 173 109 
f 108 172 173 
f 109 174 110 
f 109 173 174 
f 110 175 111 
f 110 174 175 
f 111 176 112 
f 111 175 176 
f 112 177 113 
f 112 176 177 
f 113 178 114 
f 113 177 178 
f 114 179 115 
f 114 178 179 
f 115 180 116 
f 115 179 180 
f 116 181 117 
f 116 180 181 
f 117 182 118 
f 117 181 182 
f 118 183 119 
f 118 182 183 
f 119 184 120 
f 119 183 184 
f 120 185 121 
f 120 184 185 
f 121 186 122 
f 121 185 186 
f 122 187 123 
f 122 186 187 
f 123 188 124 
f 123 187 188 
f 124 189 125 
f 124 188 189 
f 125 190 126 
f 125 189 190 
f 126 191 127 
f 126 190 191 
f 127 192 128 
f 127 191 192 
f 128 129 65 
f 128 192 129 
f 129 194 130 
f 129 193 194 
f 130 195 131 
f 130 194 195 
f 131 196 132 
f 131 195 196 
f 132 197 133 
f 132 196 197 
f 133 198 134 
f 133 197 198 
f 134 199 135 
f 134 198 199 
f 135 200 136 
f 135 199 200 
f 136 201 137 
f 136 200 201 
f 137 202 138 
f 137 201 202 
f 138 203 139 
f 138 202 203 
f 139 204 140 
f 139 203 204 
f 140 205 141 
f 140 204 205 
f 141 206 142 
f 141 205 206 
f 142 207 143 
f 142 206 207 
f 143 208 144 
f 143 207 208 
f 144 209 145 
f 144 208 209 
f 145 210 146 
f 145 209 210 
f 146 211 147 
f 146 210 211 
f 147 212 148 
f 147 211 212 
f 148 213 149 
f 148 212 213 
f 149 214 150 
f 149 213 214 
f 150 215 151 
f 150 214 215 
f 151 216 152 
f 151 215 216 
f 152 217 153 
f 152 216 217 
f 153 218 154 
f 153 217 218 
f 154 219 155 
f 154 218 219 
f 155 220 156 
f 155 219 220 
f 156 221 157 
f 156 220 221 
f 157 222 158 
f 157 221 222 
f 158 223 159 
f 158 222 223 
f 159 224 160 
f 159 223 224 
f 160 225 161 
f 160 224 225 
f 161 226 162 
f 161 225 226 
f 162 227 163 
f 162 226 227 
f 163 228 164 
f 163 227 228 
f 164 229 165 
f 164 228 229 
f 165 230 166 
f 165 229 230 
f 166 231 167 
f 166 230 231 
f 167 232 168 
f 167 231 232 
f 168 233 169 
f 168 232 233 
f 169 234 170 
f 169 233 234 
f 170 235 171 
f 170 234 235 
f 171 236 172 
f 171 235 236 
f 172 237 173 
f 172 236 237 
f 173 238 174 
f 173 237 238 
f 174 239 175 
f 174 238 239 
f 175 240 176 
f 175 239 240 
f 176 241 177 
f 176 240 241 
f 177 242 178 
f 177 241 242 
f 178 243 179 
f 178 242 243 
f 179 244 180 
f 179 243 244 
f 180 245 181 
f 180 244 245 
f 181 246 182 
f 181 245 246 
f 182 247 183 
f 182 246 247 
f 183 248 184 
f 183 247 248 
f 184 249 185 
f 184 248 249 
f 185 250 186 
f 185 249 250 
f 186 251 187 
f 186 250 251 
f 187 252 188 
f 187 251 252 
f 188 253 189 
f 188 252 253 
f 189 254 190 
f 189 253 254 
f 190 255 191 
f 190 254 255 
f 191 256 192 
f 191 255 256 
f 192 193 129 
f 192 256 193 
f 193 258 194 
f 193 257 258 
f 194 259 195 
f 194 258 259 
f 195 260 196 
f 195 259 260 
f 196 261 197 
f 196 260 261 
f 197 262 198 
f 197 261 262 
f 198 263 199 
f 198 262 263 
f 199 264 200 
f 199 263 264 
f 200 265 201 
f 200 264 265 
f 201 266 202 
f 201 265 266 
f 202 267 203 
f 202 266 267 
f 203 268 204 
f 203 267 268 
f 204 269 205 
f 204 268 269 
f 205 270 206 
f 205 269 270 
f 206 271 207 
f 206 270 271 
f 207 272 208 
f 207 271 272 
f 208 273 209 
f 208 272 273 
f 209 274 210 
f 209 273 274 
f 210 275 211 
f 210 274 275 
f 211 276 212 
f 211 275 276 
f 212 277 213 
f 212 276 277 
f 213 278 214 
f 213 277 278 
f 214 279 215 
f 214 278 279 
f 215 280 216 
f 215 279 280 
f 216 281 217 
f 216 280 281 
f 217 282 218 
f 217 281 282 
f 218 283 219 
f 218 282 283 
f 219 284 220 
f 219 283 284 
f 220 285 221 
f 220 284 285 
f 221 286 222 
f 221 285 286 
f 222 287 223 
f 222 286 287 
f 223 288 224 
f 223 287 288 
f 224 289 225 
f 224 288 289 
f 225 290 226 
f 225 289 290 
f 226 291 227 
f 226 290 291 
f 227 292 228 
f 227 291 292 
f 228 293 229 
f 228 292 293 
f 229 294 230 
f 229 293 294 
f 230 295 231 
f 230 294 295 
f 231 296 232 
f 231 295 296 
f 232 297 233 
f 232 296 297 
f 233 298 234 
f 233 297 298 
f 234 299 235 
f 234 298 299 
f 235 300 236 
f 235 299 300 
f 236 301 237 
f 236 300 301 
f 237 302 238 
f 237 301 302 
f 238 303 239 
f 238 302 303 
f 239 304 240 
f 239 303 304 
f 240 305 241 
f 240 304 305 
f 241 306 242 
f 241 305 306 
f 242 307 243 
f 242 306 307 
f 243 308 244 
f 243 307 308 
f 244 309 245 
f 244 308 309 
f 245 310 246 
f 245 309 310 
f 246 311 247 
f 246 310 311 
f 247 312 248 
f 247 311 312 
f 248 313 249 
f 248 312 313 
f 249 314 250 
f 249 313 314 
f 250 315 251 
f 250 314 315 
f 251 316 252 
f 251 315 316 
f 252 317 253 
f 252 316 317 
f 253 318 254 
f 253 317 318 
f 254 319 255 
f 254 318 319 
f 255 320 256 
f 255 319 320 
f 256 257 193 
f 256 320 257 
f 257 322 258 
f 257 321 322 
f 258 323 259 
f 258 322 323 
f 259 324 260 
f 259 323 324 
f 260 325 261 
f 260 324 325 
f 261 326 262 
f 261 325 326 
f 262 327 263 
f 262 326 327 
f 263 328 264 
f 263 327 328 
f 264 329 265 
f 264 328 329 
f 265 330 266 
f 265 329 330 
f 266 331 267 
f 266 330 331 
f 267 332 268 
f 267 331 332 
f 268 333 269 
f 268 332 333 
f 269 334 270 
f 269 333 334 
f 270 335 271 
f 270 334 335 
f 271 336 272 
f 271 335 336 
f 272 337 273 
f 272 336 337 
f 273 338 274 
f 273 337 338 
f 274 339 275 
f 274 338 339 
f 275 340 276 
f 275 339 340 
f 276 341 277 
f 276 340 341 
f 277 342 278 
f 277 341 342 
f 278 343 279 
f 278 342 343 
f 279 344 280 
f 279 343 344 
f 280 345 281 
f 280 344 345 
f 281 346 282 
f 281 345 346 
f 282 347 283 
f 282 346 347 
f 283 348 284 
f 283 347 348 
f 284 349 285 
f 284 348 349 
f 285 350 286 
f 285 349 350 
f 286 351 287 
f 286 350 351 
f 287 352 288 
f 287 351 352 
f 288 353 289 
f 288 352 353 
f 289 354 290 
f 289 353 354 
f 290 355 291 
f 290 354 355 
f 291 356 292 
f 291 355 356 
f 292 357 293 
f 292 356 357 
f 293 358 294 
f 293 357 358 
f 294 359 295 
f 294 358 359 
f 295 360 296 
f 295 359 360 
f 296 361 297 
f 296 360 361 
f 297 362 298 
f 297 361 362 
f 298 363 299 
f 298 362 363 
f 299 364 300 
f 299 363 364 
f 300 365 301 
f 300 364 365 
f 301 366 302 
f 301 365 366 
f 302 367 303 
f 302 366 367 
f 303 368 304 
f 303 367 368 
f 304 369 305 
f 304 368 369 
f 305 370 306 
f 305 369 370 
f 306 371 307 
f 306 370 371 
f 307 372 308 
f 307 371 372 
f 308 373 309 
f 308 372 373 
f 309 374 310 
f 309 373 374 
f 310 375 311 
f 310 374 375 
f 311 376 312 
f 311 375 376 
f 312 377 313 
f 312 376 377 
f 313 378 314 
f 313 377 378 
f 314 379 315 
f 314 378 379 
f 315 380 316 
f 315 379 380 
f 316 381 317 
f 316 380 381 
f 317 382 318 
f 317 381 382 
f 318 383 319 
f 318 382 383 
f 319 384 320 
f 319 383 384 
f 320 321 257 
f 320 384 321 
f 321 386 322 
f 321 385 386 
f 322 387 323 
f 322 386 387 
f 323 388 324 
f 323 387 388 
f 324 389 325 
f 324 388 389 
f 325 390 326 
f 325 389 390 
f 326 391 327 
f 326 390 391 
f 327 392 328 
f 327 391 392 
f 328 393 329 
f 328 392 393 
f 329 394 330 
f 329 393 394 
f 330 395 331 
f 330 394 395 
f 331 396 332 
f 331 395 396 
f 332 397 333 
f 332 396 397 
f 333 398 334 
f 333 397 398 
f 334 399 335 
f 334 398 399 
f 335 400 336 
f 335 399 400 
f 336 401 337 
f 336 400 401 
f 337 402 338 
f 337 401 402 
f 338 403 339 
f 338 402 403 
f 339 404 340 
f 339 403 404 
f 340 405 341 
f 340 404 405 
f 341 406 342 
f 341 405 406 
f 342 407 343 
f 342 406 407 
f 343 408 344 
f 343 407 408 
f 344 409 345 
f 344 408 409 
f 345 410 346 
f 345 409 410 
f 346 411 347 
f 346 410 411 
f 347 412 348 
f 347 411 412 
f 348 413 349 
f 348 412 413 
f 349 414 350 
f 349 413 414 
f 350 415 351 
f 350 414 415 
f 351 416 352 
f 351 415 416 
f 352 417 353 
f 352 416 417 
f 353 418 354 
f 353 417 418 
f 354 419 355 
f 354 418 419 
f 355 420 356 
f 355 419 420 
f 356 421 357 
f 356 420 421 
f 357 422 358 
f 357 421 422 
f 358 423 359 
f 358 422 423 
f 359 424 360 
f 359 423 424 
f 360 425 361 
f 360 424 425 
f 361 426 362 
f 361 425 426 
f 362 427 363 
f 362 426 427 
f 363 428 364 
f 363 427 428 
f 364 429 365 
f 364 428 429 
f 365 430 366 
f 365 429 430 
f 366 431 367 
f 366 430 431 
f 367 432 368 
f 367 431 432 
f 368 433 369 
f 368 432 433 
f 369 434 370 
f 369 433 434 
f 370 435 371 
f 370 434 435 
f 371 436 372 
f 371 435 436 
f 372 437 373 
f 372 436 437 
f 373 438 374 
f 373 437 438 
f 374 439 375 
f 374 438 439 
f 375 440 376 
f 375 439 440 
f 376 441 377 
f 376 440 441 
f 377 442 378 
f 377 441 442 
f 378 443 379 
f 378 442 443 
f 379 444 380 
f 379 443 444 
f 380 445 381 
f 380 444 445 
f 381 446 382 
f 381 445 446 
f 382 447 383 
f 382 446 447 
f 383 448 384 
f 383 447 448 
f 384 385 321 
f 384 448 385 
f 385 450 386 
f 385 449 450 
f 386 451 387 
f 386 450 451 
f 387 452 388 
f 387 451 452 
f 388 453 389 
f 388 452 453 
f 389 454 390 
f 389 453 454 
f 390 455 391 
f 390 454 455 
f 391 456 392 
f 391 455 456 
f 392 457 393 
f 392 456 457 
f 393 458 394 
f 393 457 458 
f 394 459 395 
f 394 458 459 
f 395 460 396 
f 395 459 460 
f 396 461 397 
f 396 460 461 
f 397 462 398 
f 397 461 462 
f 398 463 399 
f 398 462 463 
f 399 464 400 
f 399 463 464 
f 400 465 401 
f 400 464 465 
f 401 466 402 
f 401 465 466 
f 402 467 403 
f 402 466 467 
f 403 468 404 
f 403 467 468 
f 404 469 405 
f 404 468 469 
f 405 470 406 
f 405 469 470 
f 406 471 407 
f 406 470 471 
f 407 472 408 
f 407 471 472 
f 408 473 409 
f 408 472 473 
f 409 474 410 
f 409 473 474 
f 410 475 411 
f 410 474 475 
f 411 476 412 
f 411 475 476 
f 412 477 413 
f 412 476 477 
f 413 478 414 
f 413 477 478 
f 414 479 415 
f 414 478 479 
f 415 480 416 
f 415 479 480 
f 416 481 417 
f 416 480 481 
f 417 482 418 
f 417 481 482 
f 418 483 419 
f 418 482 483 
f 419 484 420 
f 419 483 484 
f 420 485 421 
f 420 484 485 
f 421 486 422 
f 421 485 486 
f 422 487 423 
f 422 486 487 
f 423 488 424 
f 423 487 488 
f 424 489 425 
f 424 488 489 
f 425 490 426 
f 425 489 490 
f 426 491 427 
f 426 490 491 
f 427 492 428 
f 427 491 492 
f 428 493 429 
f 428 492 493 
f 429 494 430 
f 429 493 494 
f 430 495 431 
f 430 494 495 
f 431 496 432 
f 431 495 496 
f 432 497 433 
f 432 496 497 
f 433 498 434 
f 433 497 498 
f 434 499 435 
f 434 498 499 
f 435 500 436 
f 435 499 500 
f 436 501 437 
f 436 500 501 
f 437 502 438 
f 437 501 502 
f 438 503 439 
f 438 502 503 
f 439 504 440 
f 439 503 504 
f 440 505 441 
f 440 504 505 
f 441 506 442 
f 441 505 506 
f 442 507 443 
f 442 506 507 
f 443 508 444 
f 443 507 508 
f 444 509 445 
f 444 508 509 
f 445 510 446 
f 445 509 510 
f 446 511 447 
f 446 510 511 
f 447 512 448 
f 447 511 512 
f 448 449 385 
f 448 512 449 
f 449 514 450 
f 449 513 514 
f 450 515 451 
f 450 514 515 
f 451 516 452 
f 451 515 516 
f 452 517 453 
f 452 516 517 
f 453 518 454 
f 453 517 518 
f 454 519 455 
f 454 518 519 
f 455 520 456 
f 455 519 520 
f 456 521 457 
f 456 520 521 
f 457 522 458 
f 457 521 522 
f 458 523 459 
f 458 522 523 
f 459 524 460 
f 459 523 524 
f 460 525 461 
f 460 524 525 
f 461 526 462 
f 461 525 526 
f 462 527 463 
f 462 526 527 
f 463 528 464 
f 463 527 528 
f 464 529 465 
f 464 528 529 
f 465 530 466 
f 465 529 530 
f 466 531 467 
f 466 530 531 
f 467 532 468 
f 467 531 532 
f 468 533 469 
f 468 532 533 
f 469 534 470 
f 469 533 534 
f 470 535 471 
f 470 534 535 
f 471 536 472 
f 471 535 536 
f 472 537 473 
f 472 536 537 
f 473 538 474 
f 473 537 538 
f 474 539 475 
f 474 538 539 
f 475 540 476 
f 475 539 540 
f 476 541 477 
f 476 540 541 
f 477 542 478 
f 477 541 542 
f 478 543 479 
f 478 542 543 
f 479 544 480 
f 479 543 544 
f 480 545 481 
f 480 544 545 
f 481 546 482 
f 481 545 546 
f 482 547 483 
f 482 546 547 
f 483 548 484 
f 483 547 548 
f 484 549 485 
f 484 548 549 
f 485 550 486 
f 485 549 550 
f 486 551 487 
f 486 550 551 
f 487 552 488 
f 487 551 552 
f 488 553 489 
f 488 552 553 
f 489 554 490 
f 489 553 554 
f 490 555 491 
f 490 554 555 
f 491 556 492 
f 491 555 556 
f 492 557 493 
f 492 556 557 
f 493 558 494 
f 493 557 558 
f 494 559 495 
f 494 558 559 
f 495 560 496 
f 495 559 560 
f 496 561 497 
f 496 560 561 
f 497 562 498 
f 497 561 562 
f 498 563 499 
f 498 562 563 
f 499 564 500 
f 499 563 564 
f 500 565 501 
f 500 564 565 
f 501 566 502 
f 501 565 566 
f 502 567 503 
f 502 566 567 
f 503 568 504 
f 503 567 568 
f 504 569 505 
f 504 568 569 
f 505 570 506 
f 505 569 570 
f 506 571 507 
f 506 570 571 
f 507 572 508 
f 507 571 572 
f 508 573 509 
f 508 572 573 
f 509 574 510 
f 509 573 574 
f 510 575 511 
f 510 574 575 
f 511 576 512 
f 511 575 576 
f 512 513 449 
f 512 576 513 
f 513 578 514 
f 513 577 578 
f 514 579 515 
f 514 578 579 
f 515 580 516 
f 515 579 580 
f 516 581 517 
f 516 580 581 
f 517 582 518 
f 517 581 582 
f 518 583 519 
f 518 582 583 
f 519 584 520 
f 519 583 584 
f 520 585 521 
f 520 584 585 
f 521 586 522 
f 521 585 586 
f 522 587 523 
f 522 586 587 
f 523 588 524 
f 523 587 588 
f 524 589 525 
f 524 588 589 
f 525 590 526 
f 525 589 590 
f 526 591 527 
f 526 590 591 
f 527 592 528 
f 527 591 592 
f 528 593 529 
f 528 592 593 
f 529 594 530 
f 529 593 594 
f 530 595 531 
f 530 594 595 
f 531 596 532 
f 531 595 596 
f 532 597 533 
f 532 596 597 
f 533 598 534 
f 533 597 598 
f 534 599 535 
f 534 598 599 
f 535 600 536 
f 535 599 600 
f 536 601 537 
f 536 600 601 
f 537 602 538 
f 537 601 602 
f 538 603 539 
f 538 602 603 
f 539 604 540 
f 539 603 604 
f 540 605 541 
f 540 604 605 
f 541 606 542 
f 541 605 606 
f 542 607 543 
f 542 606 607 
f 543 608 544 
f 543 607 608 
f 544 609 545 
f 544 608 609 
f 545 610 546 
f 545 609 610 
f 546 611 547 
f 546 610 611 
f 547 612 548 
f 547 611 612 
f 548 613 549 
f 548 612 613 
f 549 614 550 
f 549 613 614 
f 550 615 551 
f 550 614 615 
f 551 616 552 
f 551 615 616 
f 552 617 553 
f 552 616 617 
f 553 618 554 
f 553 617 618 
f 554 619 555 
f 554 618 619 
f 555 620 556 
f 555 619 620 
f 556 621 557 
f 556 620 621 
f 557 622 558 
f 557 621 622 
f 558 623 559 
f 558 622 623 
f 559 624 560 
f 559 623 624 
f 560 625 561 
f 560 624 625 
f 561 626 562 
f 561 625 626 
f 562 627 563 
f 562 626 627 
f 563 628 564 
f 563 627 628 
f 564 629 565 
f 564 628 629 
f 565 630 566 
f 565 629 630 
f 566 631 567 
f 566 630 631 
f 567 632 568 
f 567 631 632 
f 568 633 569 
f 568 632 633 
f 569 634 570 
f 569 633 634 
f 570 635 571 
f 570 634 635 
f 571 636 572 
f 571 635 636 
f 572 637 573 
f 572 636 637 
f 573 638 574 
f 573 637 638 
f 574 639 575 
f 574 638 639 
f 575 640 576 
f 575 639 640 
f 576 577 513 
f 576 640 577 
