# Branch
v 4.38731 5.33956 -27.8852
vn 0.139158 -0.0244718 -0.989968
v 4.33925 5.34294 -27.8896
vn 0.0416783 -0.0176079 -0.998976
v 4.29098 5.34641 -27.8893
vn -0.0562027 -0.0105744 -0.998363
v 4.24299 5.34993 -27.8843
vn -0.153543 -0.00343905 -0.988136
v 4.19572 5.35347 -27.8745
vn -0.249404 0.0037294 -0.968392
v 4.14964 5.35698 -27.8602
vn -0.342863 0.0108619 -0.939323
v 4.10518 5.36045 -27.8414
vn -0.43302 0.0178899 -0.901207
v 4.06278 5.36383 -27.8183
vn -0.519007 0.0247455 -0.854412
v 4.02285 5.36709 -27.7912
vn -0.599996 0.0313628 -0.799388
v 3.98576 5.37021 -27.7603
vn -0.675206 0.0376781 -0.736666
v 3.95188 5.37314 -27.7258
vn -0.743914 0.0436305 -0.66685
v 3.92154 5.37587 -27.6883
vn -0.805458 0.0491628 -0.590611
v 3.89502 5.37836 -27.6479
vn -0.859244 0.0542216 -0.508684
v 3.87258 5.3806 -27.605
vn -0.904756 0.0587582 -0.421859
v 3.85443 5.38256 -27.5602
vn -0.941554 0.0627289 -0.330971
v 3.84076 5.38422 -27.5138
vn -0.969284 0.0660955 -0.236895
v 3.83169 5.38556 -27.4663
vn -0.98768 0.0688256 -0.140538
v 3.82731 5.38658 -27.4181
vn -0.996564 0.0708928 -0.0428272
v 3.82766 5.38727 -27.3698
vn -0.995851 0.0722773 0.0552957
v 3.83274 5.3876 -27.3216
vn -0.985546 0.0729657 0.152886
v 3.8425 5.3876 -27.2743
vn -0.965751 0.0729515 0.249004
v 3.85685 5.38724 -27.228
vn -0.936655 0.0722346 0.342724
v 3.87564 5.38655 -27.1835
vn -0.898538 0.0708222 0.433144
v 3.8987 5.38552 -27.1409
vn -0.851768 0.0687276 0.519392
v 3.92581 5.38416 -27.1009
vn -0.796795 0.0659712 0.600638
v 3.9567 5.38248 -27.0637
vn -0.734148 0.0625794 0.676099
v 3.99108 5.38051 -27.0297
vn -0.664431 0.058585 0.74505
v 4.02861 5.37827 -26.9992
vn -0.588316 0.0540263 0.806825
v 4.06893 5.37576 -26.9726
vn -0.506534 0.0489474 0.860829
v 4.11166 5.37303 -26.95
vn -0.419874 0.0433971 0.906544
v 4.15639 5.37008 -26.9318
vn -0.329171 0.0374288 0.943528
v 4.20268 5.36696 -26.918
vn -0.235297 0.0311 0.971426
v 4.25008 5.36369 -26.9089
vn -0.139158 0.0244718 0.989968
v 4.29815 5.36031 -26.9045
vn -0.0416783 0.0176079 0.998976
v 4.34641 5.35684 -26.9048
vn 0.0562027 0.0105744 0.998363
v 4.39441 5.35332 -26.9098
vn 0.153543 0.00343905 0.988136
v 4.44167 5.34979 -26.9195
vn 0.249404 -0.0037294 0.968392
v 4.48776 5.34627 -26.9339
vn 0.342863 -0.0108619 0.939323
v 4.53221 5.34281 -26.9527
vn 0.43302 -0.0178899 0.901207
v 4.57461 5.33943 -26.9757
vn 0.519007 -0.0247455 0.854412
v 4.61454 5.33616 -27.0029
vn 0.599996 -0.0313628 0.799388
v 4.65163 5.33305 -27.0338
vn 0.675206 -0.0376781 0.736666
v 4.68551 5.33011 -27.0682
vn 0.743914 -0.0436305 0.66685
v 4.71585 5.32739 -27.1058
vn 0.805458 -0.0491628 0.590611
v 4.74237 5.32489 -27.1462
vn 0.859244 -0.0542216 0.508684
v 4.76482 5.32265 -27.189
vn 0.904756 -0.0587582 0.421859
v 4.78296 5.3207 -27.2338
vn 0.941554 -0.0627289 0.330971
v 4.79663 5.31904 -27.2802
vn 0.969284 -0.0660955 0.236895
v 4.8057 5.31769 -27.3277
vn 0.98768 -0.0688256 0.140538
v 4.81009 5.31667 -27.3759
vn 0.996564 -0.0708928 0.0428272
v 4.80973 5.31599 -27.4243
vn 0.995851 -0.0722773 -0.0552957
v 4.80465 5.31565 -27.4724
vn 0.985546 -0.0729657 -0.152886
v 4.79489 5.31566 -27.5198
vn 0.965751 -0.0729515 -0.249004
v 4.78054 5.31601 -27.566
vn 0.936655 -0.0722346 -0.342724
v 4.76175 5.31671 -27.6106
vn 0.898538 -0.0708222 -0.433144
v 4.73869 5.31774 -27.6531
vn 0.851768 -0.0687276 -0.519392
v 4.71158 5.3191 -27.6932
vn 0.796795 -0.0659712 -0.600638
v 4.68069 5.32077 -27.7304
vn 0.734148 -0.0625794 -0.676099
v 4.64632 5.32274 -27.7644
vn 0.664431 -0.058585 -0.74505
v 4.60878 5.32499 -27.7949
vn 0.588316 -0.0540263 -0.806825
v 4.56846 5.32749 -27.8215
vn 0.506534 -0.0489474 -0.860829
v 4.52573 5.33023 -27.844
vn 0.419874 -0.0433971 -0.906544
v 4.481 5.33317 -27.8623
vn 0.329171 -0.0374288 -0.943528
v 4.43472 5.33629 -27.876
vn 0.235297 -0.0311 -0.971426
v 4.22863 3.62386 -27.6102
vn 0.116203 -0.278924 -0.953257
v 4.18383 3.62758 -27.6144
vn 0.018834 -0.270834 -0.962442
v 4.13895 3.6325 -27.6144
vn -0.0787165 -0.260137 -0.962358
v 4.09442 3.63858 -27.6101
vn -0.175509 -0.246934 -0.953006
v 4.05066 3.64575 -27.6016
vn -0.270611 -0.231353 -0.934476
v 4.0081 3.65394 -27.5889
vn -0.363107 -0.213545 -0.906946
v 3.96716 3.66308 -27.5722
vn -0.452106 -0.193679 -0.870683
v 3.92821 3.67308 -27.5517
vn -0.536751 -0.171948 -0.826034
v 3.89164 3.68384 -27.5275
vn -0.616227 -0.148562 -0.77343
v 3.85781 3.69526 -27.4998
vn -0.689769 -0.123744 -0.713377
v 3.82703 3.70722 -27.4691
vn -0.756667 -0.0977353 -0.646454
v 3.7996 3.71962 -27.4354
vn -0.816278 -0.070785 -0.573305
v 3.77579 3.73234 -27.3992
vn -0.868029 -0.0431529 -0.494636
v 3.75583 3.74524 -27.3608
vn -0.911419 -0.0151053 -0.411202
v 3.7399 3.75821 -27.3206
vn -0.946032 0.0130878 -0.323809
v 3.72817 3.77113 -27.279
vn -0.971534 0.0411548 -0.233297
v 3.72074 3.78386 -27.2363
vn -0.98768 0.0688256 -0.140538
v 3.71769 3.79628 -27.193
vn -0.994314 0.0958334 -0.0464255
v 3.71904 3.80828 -27.1495
vn -0.991372 0.121918 0.0481338
v 3.72479 3.81975 -27.1062
vn -0.978883 0.146829 0.14223
v 3.73487 3.83056 -27.0635
vn -0.956967 0.170326 0.234956
v 3.7492 3.84061 -27.0219
vn -0.925834 0.192182 0.325419
v 3.76762 3.84982 -26.9817
vn -0.885785 0.212188 0.412748
v 3.78997 3.85808 -26.9434
vn -0.837206 0.23015 0.496103
v 3.81603 3.86533 -26.9072
vn -0.780563 0.245896 0.574679
v 3.84555 3.87148 -26.8736
vn -0.716404 0.259273 0.647721
v 3.87825 3.87649 -26.8429
vn -0.645345 0.270154 0.714525
v 3.9138 3.8803 -26.8153
vn -0.568071 0.278433 0.774448
v 3.95187 3.88287 -26.7912
vn -0.485327 0.28403 0.826913
v 3.99209 3.88419 -26.7707
vn -0.397908 0.286892 0.871414
v 4.03408 3.88423 -26.7541
vn -0.306657 0.286991 0.907523
v 4.07742 3.88301 -26.7415
vn -0.212453 0.284327 0.934891
v 4.1217 3.88052 -26.733
vn -0.116203 0.278924 0.953257
v 4.1665 3.8768 -26.7288
vn -0.018834 0.270834 0.962442
v 4.21138 3.87188 -26.7288
vn 0.0787165 0.260137 0.962358
v 4.25592 3.8658 -26.7331
vn 0.175509 0.246934 0.953006
v 4.29967 3.85863 -26.7417
vn 0.270611 0.231353 0.934476
v 4.34223 3.85044 -26.7543
vn 0.363107 0.213545 0.906946
v 4.38318 3.8413 -26.771
vn 0.452106 0.193679 0.870683
v 4.42212 3.8313 -26.7916
vn 0.536751 0.171948 0.826034
v 4.45869 3.82054 -26.8158
vn 0.616227 0.148562 0.77343
v 4.49253 3.80912 -26.8434
vn 0.689769 0.123744 0.713377
v 4.52331 3.79716 -26.8742
vn 0.756667 0.0977353 0.646454
v 4.55073 3.78476 -26.9078
vn 0.816278 0.070785 0.573305
v 4.57454 3.77204 -26.944
vn 0.868029 0.0431529 0.494636
v 4.59451 3.75914 -26.9824
vn 0.911419 0.0151053 0.411202
v 4.61043 3.74617 -27.0226
vn 0.946032 -0.0130878 0.323809
v 4.62216 3.73326 -27.0643
vn 0.971534 -0.0411548 0.233297
v 4.62959 3.72052 -27.107
vn 0.98768 -0.0688256 0.140538
v 4.63265 3.7081 -27.1503
vn 0.994314 -0.0958334 0.0464255
v 4.63129 3.6961 -27.1938
vn 0.991372 -0.121918 -0.0481338
v 4.62555 3.68464 -27.2371
vn 0.978883 -0.146829 -0.14223
v 4.61546 3.67382 -27.2797
vn 0.956967 -0.170326 -0.234956
v 4.60114 3.66377 -27.3213
vn 0.925834 -0.192182 -0.325419
v 4.58271 3.65456 -27.3615
vn 0.885785 -0.212188 -0.412748
v 4.56036 3.6463 -27.3999
vn 0.837206 -0.23015 -0.496103
v 4.5343 3.63906 -27.436
vn 0.780563 -0.245896 -0.574679
v 4.50478 3.6329 -27.4696
vn 0.716404 -0.259273 -0.647721
v 4.47209 3.62789 -27.5004
vn 0.645345 -0.270154 -0.714525
v 4.43653 3.62409 -27.5279
vn 0.568071 -0.278433 -0.774448
v 4.39846 3.62151 -27.5521
vn 0.485327 -0.28403 -0.826913
v 4.35824 3.62019 -27.5726
vn 0.397908 -0.286892 -0.871414
v 4.31626 3.62015 -27.5892
vn 0.306657 -0.286991 -0.907523
v 4.27292 3.62137 -27.6018
vn 0.212453 -0.284327 -0.934891
v 4.02063 2.07524 -26.9068
vn 0.0843939 -0.522011 -0.848753
v 3.97911 2.07919 -26.911
vn -0.0128221 -0.512751 -0.858441
v 3.93764 2.08526 -26.9116
vn -0.109915 -0.498554 -0.859862
v 3.89663 2.09337 -26.9086
vn -0.205948 -0.479554 -0.853002
v 3.85646 2.10346 -26.9022
vn -0.299999 -0.455937 -0.837927
v 3.81752 2.11542 -26.8923
vn -0.39116 -0.427929 -0.814783
v 3.78019 2.12915 -26.8791
vn -0.478555 -0.395799 -0.783791
v 3.74484 2.1445 -26.8626
vn -0.56134 -0.359858 -0.745251
v 3.71179 2.16133 -26.8431
vn -0.63872 -0.320451 -0.699534
v 3.68137 2.17948 -26.8207
vn -0.709948 -0.277957 -0.647081
v 3.65386 2.19877 -26.7956
vn -0.774339 -0.232787 -0.588395
v 3.62955 2.21902 -26.7681
vn -0.831273 -0.185376 -0.524043
v 3.60865 2.24003 -26.7385
vn -0.880201 -0.136178 -0.454644
v 3.59137 2.2616 -26.707
vn -0.920653 -0.0856699 -0.380866
v 3.57788 2.28353 -26.6739
vn -0.952238 -0.0343362 -0.303421
v 3.56831 2.30559 -26.6396
vn -0.974652 0.0173281 -0.223053
v 3.56274 2.32759 -26.6043
vn -0.98768 0.0688256 -0.140538
v 3.56124 2.3493 -26.5685
vn -0.991196 0.11966 -0.0566687
v 3.56382 2.37052 -26.5325
vn -0.985167 0.169342 0.0277462
v 3.57045 2.39104 -26.4965
vn -0.969649 0.217394 0.111894
v 3.58106 2.41067 -26.4611
vn -0.944794 0.263352 0.194964
v 3.59556 2.42922 -26.4264
vn -0.910839 0.306773 0.276156
v 3.61381 2.4465 -26.3928
vn -0.868113 0.34724 0.354689
v 3.63563 2.46236 -26.3608
vn -0.817026 0.384363 0.429806
v 3.66081 2.47663 -26.3304
vn -0.758071 0.417785 0.500784
v 3.68911 2.48919 -26.3022
vn -0.691815 0.447182 0.566939
v 3.72025 2.4999 -26.2763
vn -0.618897 0.472274 0.627634
v 3.75394 2.50868 -26.2529
vn -0.540018 0.492817 0.682285
v 3.78985 2.51542 -26.2324
vn -0.455939 0.508614 0.730364
v 3.82764 2.52008 -26.2148
vn -0.367468 0.519512 0.77141
v 3.86694 2.5226 -26.2005
vn -0.275459 0.525408 0.805027
v 3.90737 2.52295 -26.1894
vn -0.180797 0.526244 0.830891
v 3.94854 2.52115 -26.1818
vn -0.0843939 0.522011 0.848753
v 3.99006 2.51719 -26.1777
vn 0.0128221 0.512751 0.858441
v 4.03153 2.51113 -26.1771
vn 0.109915 0.498554 0.859862
v 4.07255 2.50301 -26.18
vn 0.205948 0.479554 0.853002
v 4.11272 2.49293 -26.1864
vn 0.299999 0.455937 0.837927
v 4.15165 2.48096 -26.1963
vn 0.39116 0.427929 0.814783
v 4.18898 2.46724 -26.2096
vn 0.478555 0.395799 0.783791
v 4.22434 2.45189 -26.226
vn 0.56134 0.359858 0.745251
v 4.25739 2.43506 -26.2455
vn 0.63872 0.320451 0.699534
v 4.28781 2.41691 -26.268
vn 0.709948 0.277957 0.647081
v 4.31531 2.39762 -26.293
vn 0.774339 0.232787 0.588395
v 4.33963 2.37737 -26.3205
vn 0.831273 0.185376 0.524043
v 4.36053 2.35636 -26.3501
vn 0.880201 0.136178 0.454644
v 4.3778 2.33478 -26.3817
vn 0.920653 0.0856699 0.380866
v 4.39129 2.31286 -26.4147
vn 0.952238 0.0343362 0.303421
v 4.40087 2.29079 -26.4491
vn 0.974652 -0.0173281 0.223053
v 4.40643 2.2688 -26.4843
vn 0.98768 -0.0688256 0.140538
v 4.40793 2.24709 -26.5201
vn 0.991196 -0.11966 0.0566687
v 4.40536 2.22587 -26.5562
vn 0.985167 -0.169342 -0.0277462
v 4.39873 2.20534 -26.5921
vn 0.969649 -0.217394 -0.111894
v 4.38811 2.18571 -26.6276
vn 0.944794 -0.263352 -0.194964
v 4.37361 2.16717 -26.6623
vn 0.910839 -0.306773 -0.276156
v 4.35536 2.14989 -26.6958
vn 0.868113 -0.34724 -0.354689
v 4.33354 2.13403 -26.7279
vn 0.817026 -0.384363 -0.429806
v 4.30836 2.11976 -26.7582
vn 0.758071 -0.417785 -0.500784
v 4.28007 2.1072 -26.7865
vn 0.691815 -0.447182 -0.566939
v 4.24892 2.09648 -26.8124
vn 0.618897 -0.472274 -0.627634
v 4.21523 2.08771 -26.8357
vn 0.540018 -0.492817 -0.682285
v 4.17932 2.08096 -26.8563
vn 0.455939 -0.508614 -0.730364
v 4.14154 2.07631 -26.8738
vn 0.367468 -0.519512 -0.77141
v 4.10224 2.07379 -26.8882
vn 0.275459 -0.525408 -0.805027
v 4.06181 2.07343 -26.8992
vn 0.180797 -0.526244 -0.830891
v 3.76686 0.709849 -25.792
vn 0.0504877 -0.709907 -0.702483
v 3.72861 0.713855 -25.7961
vn -0.046565 -0.699743 -0.712876
v 3.69053 0.720517 -25.7975
vn -0.143169 -0.682839 -0.716403
v 3.653 0.729771 -25.7962
vn -0.238395 -0.65936 -0.713031
v 3.61638 0.741527 -25.7921
vn -0.331324 -0.62953 -0.702791
v 3.58101 0.755673 -25.7854
vn -0.421063 -0.593638 -0.685784
v 3.54724 0.772071 -25.7761
vn -0.506747 -0.552029 -0.662172
v 3.5154 0.790566 -25.7643
vn -0.58755 -0.505103 -0.632183
v 3.48578 0.810977 -25.7501
vn -0.662695 -0.453313 -0.596106
v 3.45868 0.833109 -25.7336
vn -0.731458 -0.397157 -0.554288
v 3.43436 0.856748 -25.715
vn -0.793177 -0.337177 -0.507132
v 3.41304 0.881667 -25.6945
vn -0.847256 -0.273949 -0.455092
v 3.39494 0.907626 -25.6723
vn -0.893177 -0.208083 -0.398669
v 3.38024 0.934374 -25.6485
vn -0.930495 -0.140213 -0.338406
v 3.36906 0.961655 -25.6235
vn -0.958853 -0.0709929 -0.274885
v 3.36152 0.989205 -25.5974
vn -0.977976 -0.00108893 -0.208716
v 3.3577 1.01676 -25.5705
vn -0.98768 0.0688256 -0.140538
v 3.35762 1.04405 -25.5431
vn -0.987873 0.138077 -0.0710056
v 3.3613 1.07082 -25.5154
vn -0.978552 0.205999 -0.000789683
v 3.36868 1.09681 -25.4878
vn -0.959807 0.271937 0.0694339
v 3.37971 1.12176 -25.4604
vn -0.931818 0.335256 0.138989
v 3.39428 1.14545 -25.4335
vn -0.894856 0.395347 0.207205
v 3.41225 1.16763 -25.4074
vn -0.849276 0.45163 0.273426
v 3.43343 1.1881 -25.3823
vn -0.795516 0.503563 0.337014
v 3.45764 1.20665 -25.3585
vn -0.734096 0.550647 0.397356
v 3.48463 1.22312 -25.3363
vn -0.665605 0.592428 0.453871
v 3.51415 1.23734 -25.3157
vn -0.590705 0.628504 0.506015
v 3.54591 1.24917 -25.2971
vn -0.510115 0.658526 0.553286
v 3.57961 1.2585 -25.2805
vn -0.424613 0.682207 0.595229
v 3.61492 1.26525 -25.2663
vn -0.335022 0.699318 0.631439
v 3.6515 1.26934 -25.2544
vn -0.242204 0.709694 0.661568
v 3.689 1.27073 -25.245
vn -0.147054 0.713235 0.685326
v 3.72706 1.26942 -25.2383
vn -0.0504877 0.709907 0.702483
v 3.76531 1.26541 -25.2342
vn 0.046565 0.699743 0.712876
v 3.80338 1.25875 -25.2328
vn 0.143169 0.682839 0.716403
v 3.84091 1.2495 -25.2341
vn 0.238395 0.65936 0.713031
v 3.87754 1.23774 -25.2382
vn 0.331324 0.62953 0.702791
v 3.91291 1.2236 -25.2449
vn 0.421063 0.593638 0.685784
v 3.94668 1.2072 -25.2542
vn 0.506747 0.552029 0.662172
v 3.97852 1.1887 -25.266
vn 0.58755 0.505103 0.632183
v 4.00814 1.16829 -25.2802
vn 0.662695 0.453313 0.596106
v 4.03524 1.14616 -25.2967
vn 0.731458 0.397157 0.554288
v 4.05956 1.12252 -25.3153
vn 0.793177 0.337177 0.507132
v 4.08088 1.0976 -25.3358
vn 0.847256 0.273949 0.455092
v 4.09897 1.07164 -25.358
vn 0.893177 0.208083 0.398669
v 4.11368 1.04489 -25.3818
vn 0.930495 0.140213 0.338406
v 4.12486 1.01761 -25.4068
vn 0.958853 0.0709929 0.274885
v 4.13239 0.990064 -25.4329
vn 0.977976 0.00108893 0.208716
v 4.13622 0.962509 -25.4597
vn 0.98768 -0.0688256 0.140538
v 4.1363 0.935216 -25.4872
vn 0.987873 -0.138077 0.0710056
v 4.13262 0.908447 -25.5148
vn 0.978552 -0.205999 0.000789683
v 4.12523 0.88246 -25.5425
vn 0.959807 -0.271937 -0.0694339
v 4.1142 0.857505 -25.5699
vn 0.931818 -0.335256 -0.138989
v 4.09964 0.833822 -25.5968
vn 0.894856 -0.395347 -0.207205
v 4.08167 0.81164 -25.6229
vn 0.849276 -0.45163 -0.273426
v 4.06048 0.791172 -25.648
vn 0.795516 -0.503563 -0.337014
v 4.03628 0.772616 -25.6717
vn 0.734096 -0.550647 -0.397356
v 4.00928 0.756149 -25.694
vn 0.665605 -0.592428 -0.453871
v 3.97976 0.741931 -25.7146
vn 0.590705 -0.628504 -0.506015
v 3.948 0.730099 -25.7332
vn 0.510115 -0.658526 -0.553286
v 3.91431 0.720766 -25.7497
vn 0.424613 -0.682207 -0.595229
v 3.879 0.714022 -25.764
vn 0.335022 -0.699318 -0.631439
v 3.84242 0.709933 -25.7759
vn 0.242204 -0.709694 -0.661568
v 3.80492 0.708538 -25.7852
vn 0.147054 -0.713235 -0.685326
v 3.46972 -0.474341 -24.2837
vn 0.0205947 -0.833104 -0.552733
v 3.43472 -0.470456 -24.2877
vn -0.0763141 -0.822346 -0.563846
v 3.39999 -0.463711 -24.2897
vn -0.172488 -0.803669 -0.56953
v 3.36586 -0.454171 -24.2898
vn -0.267001 -0.777252 -0.569728
v 3.33266 -0.441928 -24.2879
vn -0.358942 -0.743349 -0.56444
v 3.3007 -0.4271 -24.284
vn -0.447426 -0.702288 -0.553716
v 3.2703 -0.409829 -24.2782
vn -0.531602 -0.654463 -0.537659
v 3.24175 -0.390282 -24.2706
vn -0.610658 -0.600336 -0.516424
v 3.21533 -0.368647 -24.2611
vn -0.683833 -0.540427 -0.490216
v 3.19128 -0.345133 -24.2499
vn -0.750422 -0.475313 -0.459287
v 3.16984 -0.319966 -24.2372
vn -0.809784 -0.405622 -0.423935
v 3.15122 -0.293387 -24.2229
vn -0.861348 -0.332024 -0.3845
v 3.1356 -0.265655 -24.2073
vn -0.904616 -0.255229 -0.341362
v 3.12312 -0.237034 -24.1906
vn -0.939173 -0.175975 -0.294936
v 3.11391 -0.207802 -24.1728
vn -0.964684 -0.0950275 -0.24567
v 3.10805 -0.178239 -24.1541
vn -0.980906 -0.0131644 -0.194038
v 3.1056 -0.14863 -24.1348
vn -0.98768 0.0688256 -0.140538
v 3.10659 -0.119261 -24.115
vn -0.984943 0.150153 -0.0856838
v 3.111 -0.0904135 -24.0949
vn -0.97272 0.230034 -0.0300046
v 3.1188 -0.0623663 -24.0747
vn -0.951129 0.307699 0.0259635
v 3.12991 -0.0353893 -24.0546
vn -0.920379 0.382402 0.0816816
v 3.14421 -0.00974222 -24.0347
vn -0.880764 0.453421 0.136613
v 3.16158 0.0143279 -24.0154
vn -0.832668 0.520074 0.190229
v 3.18185 0.0365894 -23.9967
vn -0.776552 0.581719 0.242013
v 3.20481 0.0568276 -23.9788
vn -0.712958 0.637761 0.291466
v 3.23026 0.0748479 -23.962
vn -0.642498 0.687661 0.338112
v 3.25794 0.0904766 -23.9463
vn -0.56585 0.730938 0.381502
v 3.28758 0.103563 -23.9319
vn -0.483752 0.767176 0.421218
v 3.31891 0.113982 -23.9191
vn -0.396996 0.796026 0.456877
v 3.35162 0.121632 -23.9078
vn -0.306416 0.81721 0.488136
v 3.3854 0.126439 -23.8982
vn -0.212886 0.830523 0.514694
v 3.41992 0.128359 -23.8904
vn -0.117305 0.835839 0.536296
v 3.45484 0.127371 -23.8845
vn -0.0205947 0.833104 0.552733
v 3.48984 0.123487 -23.8804
vn 0.0763141 0.822346 0.563846
v 3.52457 0.116742 -23.8784
vn 0.172488 0.803669 0.56953
v 3.5587 0.107202 -23.8783
vn 0.267001 0.777252 0.569728
v 3.5919 0.0949586 -23.8802
vn 0.358942 0.743349 0.56444
v 3.62386 0.0801303 -23.8841
vn 0.447426 0.702288 0.553716
v 3.65425 0.0628595 -23.8899
vn 0.531602 0.654463 0.537659
v 3.6828 0.0433125 -23.8976
vn 0.610658 0.600336 0.516424
v 3.70923 0.0216777 -23.907
vn 0.683833 0.540427 0.490216
v 3.73328 -0.0018366 -23.9182
vn 0.750422 0.475313 0.459287
v 3.75471 -0.027004 -23.931
vn 0.809784 0.405622 0.423935
v 3.77334 -0.0535821 -23.9452
vn 0.861348 0.332024 0.3845
v 3.78896 -0.0813149 -23.9608
vn 0.904616 0.255229 0.341362
v 3.80144 -0.109935 -23.9776
vn 0.939173 0.175975 0.294936
v 3.81065 -0.139168 -23.9953
vn 0.964684 0.0950275 0.24567
v 3.81651 -0.168731 -24.014
vn 0.980906 0.0131644 0.194038
v 3.81896 -0.19834 -24.0333
vn 0.98768 -0.0688256 0.140538
v 3.81797 -0.227709 -24.0531
vn 0.984943 -0.150153 0.0856838
v 3.81355 -0.256556 -24.0732
vn 0.97272 -0.230034 0.0300046
v 3.80576 -0.284603 -24.0934
vn 0.951129 -0.307699 -0.0259635
v 3.79465 -0.31158 -24.1136
vn 0.920379 -0.382402 -0.0816816
v 3.78035 -0.337227 -24.1334
vn 0.880764 -0.453421 -0.136613
v 3.76298 -0.361298 -24.1528
vn 0.832668 -0.520074 -0.190229
v 3.74271 -0.383559 -24.1715
vn 0.776552 -0.581719 -0.242013
v 3.71975 -0.403797 -24.1893
vn 0.712958 -0.637761 -0.291466
v 3.6943 -0.421817 -24.2062
vn 0.642498 -0.687661 -0.338112
v 3.66662 -0.437446 -24.2218
vn 0.56585 -0.730938 -0.381502
v 3.63698 -0.450533 -24.2362
vn 0.483752 -0.767176 -0.421218
v 3.60565 -0.460951 -24.2491
vn 0.396996 -0.796026 -0.456877
v 3.57293 -0.468601 -24.2603
vn 0.306416 -0.81721 -0.488136
v 3.53916 -0.473409 -24.2699
vn 0.212886 -0.830523 -0.514694
v 3.50464 -0.475328 -24.2777
vn 0.117305 -0.835839 -0.536296
v 3.12951 -1.48868 -22.3895
vn -0.00316292 -0.906683 -0.421801
v 3.09775 -1.48504 -22.3934
vn -0.0999573 -0.895571 -0.433545
v 3.0663 -1.47856 -22.3958
vn -0.195789 -0.875834 -0.441114
v 3.03548 -1.46932 -22.3969
vn -0.289735 -0.847662 -0.444434
v 3.00556 -1.45739 -22.3966
vn -0.380891 -0.811327 -0.443475
v 2.97686 -1.44291 -22.3949
vn -0.468379 -0.767179 -0.438244
v 2.94963 -1.42599 -22.3918
vn -0.551356 -0.715642 -0.428793
v 2.92414 -1.40682 -22.3873
vn -0.629023 -0.657213 -0.415213
v 2.90065 -1.38557 -22.3816
vn -0.700632 -0.592455 -0.397634
v 2.87936 -1.36245 -22.3746
vn -0.765494 -0.521991 -0.376225
v 2.8605 -1.33768 -22.3663
vn -0.822983 -0.4465 -0.351193
v 2.84423 -1.3115 -22.357
vn -0.872547 -0.366709 -0.322779
v 2.83073 -1.28415 -22.3467
vn -0.913708 -0.283386 -0.291256
v 2.82011 -1.25592 -22.3354
vn -0.946069 -0.197334 -0.256929
v 2.81248 -1.22706 -22.3233
vn -0.969319 -0.109382 -0.220127
v 2.80791 -1.19785 -22.3106
vn -0.983234 -0.0203763 -0.181205
v 2.80645 -1.16858 -22.2972
vn -0.98768 0.0688256 -0.140538
v 2.80812 -1.13953 -22.2834
vn -0.982614 0.157365 -0.0985173
v 2.81288 -1.11097 -22.2693
vn -0.968085 0.244388 -0.0555481
v 2.82071 -1.08319 -22.2551
vn -0.944233 0.329058 -0.0120439
v 2.83152 -1.05645 -22.2407
vn -0.911287 0.410559 0.0315763
v 2.84521 -1.031 -22.2265
vn -0.869565 0.488106 0.0748924
v 2.86165 -1.0071 -22.2125
vn -0.819469 0.560952 0.117487
v 2.88068 -0.984965 -22.1989
vn -0.761481 0.628396 0.158951
v 2.90211 -0.96482 -22.1858
vn -0.696159 0.689789 0.198883
v 2.92575 -0.946854 -22.1734
vn -0.624133 0.744538 0.2369
v 2.95135 -0.931242 -22.1616
vn -0.546096 0.792117 0.272636
v 2.97869 -0.918133 -22.1508
vn -0.4628 0.832067 0.305746
v 3.00748 -0.907653 -22.1409
vn -0.375047 0.864004 0.335912
v 3.03746 -0.899904 -22.132
vn -0.283682 0.88762 0.362843
v 3.06834 -0.894959 -22.1243
vn -0.189585 0.902688 0.386279
v 3.09982 -0.892867 -22.1179
vn -0.0936619 0.909063 0.405995
v 3.13159 -0.893648 -22.1127
vn 0.00316292 0.906683 0.421801
v 3.16335 -0.897295 -22.1088
vn 0.0999573 0.895571 0.433545
v 3.1948 -0.903771 -22.1064
vn 0.195789 0.875834 0.441114
v 3.22562 -0.913015 -22.1053
vn 0.289735 0.847662 0.444434
v 3.25553 -0.924938 -22.1056
vn 0.380891 0.811327 0.443475
v 3.28424 -0.939425 -22.1073
vn 0.468379 0.767179 0.438244
v 3.31147 -0.956336 -22.1104
vn 0.551356 0.715642 0.428793
v 3.33696 -0.975509 -22.1149
vn 0.629023 0.657213 0.415213
v 3.36045 -0.996759 -22.1206
vn 0.700632 0.592455 0.397634
v 3.38174 -1.01988 -22.1276
vn 0.765494 0.521991 0.376225
v 3.4006 -1.04465 -22.1359
vn 0.822983 0.4465 0.351193
v 3.41687 -1.07083 -22.1452
vn 0.872547 0.366709 0.322779
v 3.43037 -1.09818 -22.1555
vn 0.913708 0.283386 0.291256
v 3.44099 -1.12641 -22.1668
vn 0.946069 0.197334 0.256929
v 3.44862 -1.15527 -22.1789
vn 0.969319 0.109382 0.220127
v 3.45319 -1.18448 -22.1916
vn 0.983234 0.0203763 0.181205
v 3.45464 -1.21375 -22.205
vn 0.98768 -0.0688256 0.140538
v 3.45298 -1.2428 -22.2188
vn 0.982614 -0.157365 0.0985173
v 3.44821 -1.27136 -22.2329
vn 0.968085 -0.244388 0.0555481
v 3.44039 -1.29914 -22.2471
vn 0.944233 -0.329058 0.0120439
v 3.42958 -1.32589 -22.2615
vn 0.911287 -0.410559 -0.0315763
v 3.41589 -1.35133 -22.2757
vn 0.869565 -0.488106 -0.0748924
v 3.39945 -1.37523 -22.2897
vn 0.819469 -0.560952 -0.117487
v 3.38042 -1.39737 -22.3033
vn 0.761481 -0.628396 -0.158951
v 3.35899 -1.41751 -22.3164
vn 0.696159 -0.689789 -0.198883
v 3.33535 -1.43548 -22.3288
vn 0.624133 -0.744538 -0.2369
v 3.30974 -1.45109 -22.3406
vn 0.546096 -0.792117 -0.272636
v 3.28241 -1.4642 -22.3514
vn 0.4628 -0.832067 -0.305746
v 3.25362 -1.47468 -22.3613
vn 0.375047 -0.864004 -0.335912
v 3.22364 -1.48243 -22.3702
vn 0.283682 -0.88762 -0.362843
v 3.19276 -1.48737 -22.3779
vn 0.189585 -0.902688 -0.386279
v 3.16128 -1.48946 -22.3843
vn 0.0936619 -0.909063 -0.405995
v 2.74548 -2.34346 -20.1092
vn -0.0213029 -0.948862 -0.314972
v 2.71694 -2.34012 -20.1128
vn -0.11801 -0.937547 -0.32723
v 2.68873 -2.33412 -20.1155
vn -0.21358 -0.917203 -0.336337
v 2.66113 -2.32551 -20.1173
vn -0.307094 -0.888025 -0.342205
v 2.6344 -2.31437 -20.118
vn -0.39765 -0.850296 -0.344778
v 2.60881 -2.30082 -20.1178
vn -0.484377 -0.804377 -0.344029
v 2.58459 -2.28498 -20.1166
vn -0.566438 -0.750712 -0.339968
v 2.56198 -2.26701 -20.1144
vn -0.643045 -0.689818 -0.332633
v 2.54119 -2.24707 -20.1113
vn -0.713459 -0.62228 -0.322094
v 2.52244 -2.22537 -20.1073
vn -0.777002 -0.548749 -0.308453
v 2.50589 -2.20211 -20.1024
vn -0.833061 -0.469933 -0.291842
v 2.49171 -2.17751 -20.0967
vn -0.881098 -0.386592 -0.27242
v 2.48004 -2.15181 -20.0901
vn -0.92065 -0.299527 -0.250374
v 2.47098 -2.12526 -20.0829
vn -0.951335 -0.209578 -0.225918
v 2.46463 -2.09812 -20.0751
vn -0.972858 -0.117611 -0.199285
v 2.46104 -2.07064 -20.0666
vn -0.985012 -0.0245106 -0.170734
v 2.46026 -2.04309 -20.0577
vn -0.98768 0.0688256 -0.140538
v 2.46228 -2.01574 -20.0484
vn -0.980836 0.161499 -0.108988
v 2.46709 -1.98885 -20.0388
vn -0.964546 0.252617 -0.0763894
v 2.47463 -1.96267 -20.029
vn -0.938967 0.341302 -0.0430548
v 2.48485 -1.93747 -20.019
vn -0.904345 0.4267 -0.00930547
v 2.49764 -1.91347 -20.009
vn -0.861014 0.507989 0.0245334
v 2.51288 -1.89093 -19.9991
vn -0.809391 0.584386 0.0581361
v 2.53042 -1.87004 -19.9893
vn -0.749973 0.655154 0.0911788
v 2.55009 -1.85101 -19.9798
vn -0.683332 0.719614 0.123344
v 2.5717 -1.83403 -19.9707
vn -0.61011 0.777143 0.15432
v 2.59504 -1.81926 -19.962
vn -0.531013 0.827187 0.183811
v 2.6199 -1.80684 -19.9538
vn -0.446802 0.869266 0.211531
v 2.64602 -1.7969 -19.9462
vn -0.358287 0.902972 0.237215
v 2.67317 -1.78951 -19.9393
vn -0.266323 0.927983 0.260613
v 2.70107 -1.78477 -19.9332
vn -0.171793 0.944057 0.281502
v 2.72945 -1.78271 -19.9278
vn -0.0756092 0.951039 0.29968
v 2.75806 -1.78335 -19.9233
vn 0.0213029 0.948862 0.314972
v 2.7866 -1.78669 -19.9197
vn 0.11801 0.937547 0.32723
v 2.81481 -1.7927 -19.917
vn 0.21358 0.917203 0.336337
v 2.84241 -1.80131 -19.9153
vn 0.307094 0.888025 0.342205
v 2.86914 -1.81244 -19.9145
vn 0.39765 0.850296 0.344778
v 2.89473 -1.826 -19.9147
vn 0.484377 0.804377 0.344029
v 2.91895 -1.84184 -19.9159
vn 0.566438 0.750712 0.339968
v 2.94156 -1.85981 -19.9181
vn 0.643045 0.689818 0.332633
v 2.96235 -1.87974 -19.9212
vn 0.713459 0.62228 0.322094
v 2.9811 -1.90144 -19.9252
vn 0.777002 0.548749 0.308453
v 2.99765 -1.92471 -19.9301
vn 0.833061 0.469933 0.291842
v 3.01182 -1.9493 -19.9358
vn 0.881098 0.386592 0.27242
v 3.0235 -1.975 -19.9424
vn 0.92065 0.299527 0.250374
v 3.03256 -2.00155 -19.9496
vn 0.951335 0.209578 0.225918
v 3.03891 -2.02869 -19.9574
vn 0.972858 0.117611 0.199285
v 3.04249 -2.05617 -19.9659
vn 0.985012 0.0245106 0.170734
v 3.04328 -2.08372 -19.9748
vn 0.98768 -0.0688256 0.140538
v 3.04126 -2.11107 -19.9841
vn 0.980836 -0.161499 0.108988
v 3.03645 -2.13797 -19.9937
vn 0.964546 -0.252617 0.0763894
v 3.0289 -2.16414 -20.0035
vn 0.938967 -0.341302 0.0430548
v 3.01869 -2.18935 -20.0135
vn 0.904345 -0.4267 0.00930547
v 3.0059 -2.21334 -20.0235
vn 0.861014 -0.507989 -0.0245334
v 2.99066 -2.23589 -20.0334
vn 0.809391 -0.584386 -0.0581361
v 2.97312 -2.25677 -20.0432
vn 0.749973 -0.655154 -0.0911788
v 2.95345 -2.2758 -20.0527
vn 0.683332 -0.719614 -0.123344
v 2.93184 -2.29278 -20.0618
vn 0.61011 -0.777143 -0.15432
v 2.9085 -2.30755 -20.0705
vn 0.531013 -0.827187 -0.183811
v 2.88364 -2.31997 -20.0787
vn 0.446802 -0.869266 -0.211531
v 2.85752 -2.32992 -20.0863
vn 0.358287 -0.902972 -0.237215
v 2.83037 -2.3373 -20.0932
vn 0.266323 -0.927983 -0.260613
v 2.80247 -2.34204 -20.0993
vn 0.171793 -0.944057 -0.281502
v 2.77409 -2.3441 -20.1047
vn 0.0756092 -0.951039 -0.29968
v 2.31674 -3.04519 -17.4397
vn -0.0350856 -0.972619 -0.229744
v 2.29141 -3.04219 -17.4431
vn -0.131726 -0.961189 -0.242412
v 2.2664 -3.03677 -17.4458
vn -0.227098 -0.940503 -0.252747
v 2.24197 -3.02897 -17.4478
vn -0.320283 -0.910759 -0.260647
v 2.21835 -3.01888 -17.4493
vn -0.410384 -0.872244 -0.266037
v 2.19577 -3.00658 -17.45
vn -0.496532 -0.825329 -0.268865
v 2.17444 -2.99219 -17.4501
vn -0.577898 -0.770465 -0.269103
v 2.15457 -2.97587 -17.4494
vn -0.653699 -0.708182 -0.26675
v 2.13634 -2.95775 -17.4482
vn -0.723205 -0.639078 -0.261829
v 2.11995 -2.93802 -17.4462
vn -0.785745 -0.56382 -0.254385
v 2.10554 -2.91687 -17.4436
vn -0.840719 -0.483132 -0.244492
v 2.09325 -2.89449 -17.4404
vn -0.887595 -0.39779 -0.232244
v 2.0832 -2.87112 -17.4366
vn -0.925924 -0.308618 -0.217759
v 2.07549 -2.84696 -17.4323
vn -0.955336 -0.216474 -0.201177
v 2.07019 -2.82226 -17.4274
vn -0.975547 -0.122245 -0.182658
v 2.06736 -2.79725 -17.4221
vn -0.986363 -0.0268392 -0.16238
v 2.06701 -2.77217 -17.4164
vn -0.98768 0.0688256 -0.140538
v 2.06916 -2.74726 -17.4103
vn -0.979485 0.163827 -0.117342
v 2.07378 -2.72277 -17.4039
vn -0.961857 0.257252 -0.0930166
v 2.08083 -2.69893 -17.3973
vn -0.934966 0.348198 -0.0677952
v 2.09024 -2.67596 -17.3905
vn -0.899071 0.435792 -0.0419209
v 2.10192 -2.6541 -17.3836
vn -0.854517 0.519188 -0.0156428
v 2.11576 -2.63355 -17.3767
vn -0.801734 0.597584 0.0107858
v 2.13162 -2.6145 -17.3698
vn -0.741229 0.670226 0.0371107
v 2.14935 -2.59715 -17.363
vn -0.673586 0.736412 0.0630781
v 2.16879 -2.58166 -17.3563
vn -0.599456 0.795507 0.088438
v 2.18973 -2.56818 -17.3499
vn -0.519553 0.84694 0.112946
v 2.21199 -2.55683 -17.3438
vn -0.434646 0.890217 0.136367
v 2.23535 -2.54773 -17.338
vn -0.345554 0.924921 0.158474
v 2.25958 -2.54097 -17.3326
vn -0.253134 0.950717 0.179055
v 2.28445 -2.53661 -17.3276
vn -0.158275 0.967357 0.197912
v 2.30971 -2.53469 -17.3232
vn -0.0618929 0.974681 0.214862
v 2.33514 -2.53523 -17.3193
vn 0.0350856 0.972619 0.229744
v 2.36047 -2.53822 -17.316
vn 0.131726 0.961189 0.242412
v 2.38548 -2.54365 -17.3133
vn 0.227098 0.940503 0.252747
v 2.40991 -2.55145 -17.3112
vn 0.320283 0.910759 0.260647
v 2.43353 -2.56154 -17.3098
vn 0.410384 0.872244 0.266037
v 2.45611 -2.57384 -17.309
vn 0.496532 0.825329 0.268865
v 2.47744 -2.58822 -17.309
vn 0.577898 0.770465 0.269103
v 2.49731 -2.60455 -17.3096
vn 0.653699 0.708182 0.26675
v 2.51553 -2.62267 -17.3109
vn 0.723205 0.639078 0.261829
v 2.53193 -2.6424 -17.3128
vn 0.785745 0.56382 0.254385
v 2.54634 -2.66355 -17.3154
vn 0.840719 0.483132 0.244492
v 2.55863 -2.68592 -17.3186
vn 0.887595 0.39779 0.232244
v 2.56868 -2.7093 -17.3224
vn 0.925924 0.308618 0.217759
v 2.57639 -2.73346 -17.3268
vn 0.955336 0.216474 0.201177
v 2.58169 -2.75816 -17.3316
vn 0.975547 0.122245 0.182658
v 2.58452 -2.78317 -17.3369
vn 0.986363 0.0268392 0.16238
v 2.58487 -2.80825 -17.3427
vn 0.98768 -0.0688256 0.140538
v 2.58272 -2.83316 -17.3488
vn 0.979485 -0.163827 0.117342
v 2.5781 -2.85765 -17.3551
vn 0.961857 -0.257252 0.0930166
v 2.57105 -2.88149 -17.3617
vn 0.934966 -0.348198 0.0677952
v 2.56164 -2.90446 -17.3685
vn 0.899071 -0.435792 0.0419209
v 2.54996 -2.92632 -17.3754
vn 0.854517 -0.519188 0.0156428
v 2.53612 -2.94687 -17.3823
vn 0.801734 -0.597584 -0.0107858
v 2.52026 -2.96592 -17.3892
vn 0.741229 -0.670226 -0.0371107
v 2.50253 -2.98327 -17.3961
vn 0.673586 -0.736412 -0.0630781
v 2.48309 -2.99876 -17.4027
vn 0.599456 -0.795507 -0.088438
v 2.46215 -3.01224 -17.4091
vn 0.519553 -0.84694 -0.112946
v 2.43989 -3.02359 -17.4153
vn 0.434646 -0.890217 -0.136367
v 2.41653 -3.03269 -17.4211
vn 0.345554 -0.924921 -0.158474
v 2.3923 -3.03945 -17.4265
vn 0.253134 -0.950717 -0.179055
v 2.36743 -3.04381 -17.4314
vn 0.158275 -0.967357 -0.197912
v 2.34217 -3.04573 -17.4358
vn 0.0618929 -0.974681 -0.214862
v 1.84259 -3.59748 -14.378
vn -0.0456735 -0.98577 -0.161774
v 1.82046 -3.59485 -14.3809
vn -0.142263 -0.974277 -0.17477
v 1.79864 -3.59006 -14.3835
vn -0.237483 -0.953402 -0.186083
v 1.77734 -3.58318 -14.3857
vn -0.330415 -0.923344 -0.195604
v 1.75677 -3.57425 -14.3875
vn -0.420166 -0.884395 -0.203241
v 1.73713 -3.56337 -14.3888
vn -0.50587 -0.836928 -0.208921
v 1.71861 -3.55065 -14.3896
vn -0.586702 -0.781401 -0.212589
v 1.70138 -3.5362 -14.39
vn -0.661884 -0.718348 -0.214209
v 1.68561 -3.52016 -14.3899
vn -0.730691 -0.648378 -0.213767
v 1.67145 -3.5027 -14.3893
vn -0.792462 -0.572163 -0.211266
v 1.65904 -3.48397 -14.3883
vn -0.846601 -0.490438 -0.20673
v 1.64851 -3.46416 -14.3868
vn -0.892586 -0.40399 -0.200203
v 1.63994 -3.44345 -14.3848
vn -0.929976 -0.313651 -0.191748
v 1.63342 -3.42206 -14.3825
vn -0.958409 -0.220292 -0.181447
v 1.62902 -3.40018 -14.3797
vn -0.977613 -0.124811 -0.169398
v 1.62678 -3.37802 -14.3766
vn -0.987401 -0.0281282 -0.155718
v 1.62671 -3.3558 -14.3731
vn -0.98768 0.0688256 -0.140538
v 1.62883 -3.33373 -14.3693
vn -0.978447 0.165117 -0.124004
v 1.6331 -3.31203 -14.3652
vn -0.959792 0.259817 -0.106277
v 1.6395 -3.2909 -14.3609
vn -0.931893 0.352016 -0.0875257
v 1.64795 -3.27055 -14.3565
vn -0.895019 0.440824 -0.0679317
v 1.65837 -3.25117 -14.3518
vn -0.849526 0.525388 -0.0476834
v 1.67067 -3.23295 -14.3471
vn -0.795851 0.604891 -0.0269759
v 1.68473 -3.21606 -14.3423
vn -0.734512 0.678569 -0.00600868
v 1.70041 -3.20068 -14.3374
vn -0.666099 0.745712 0.0150164
v 1.71756 -3.18694 -14.3327
vn -0.591272 0.805673 0.035897
v 1.73601 -3.17497 -14.328
vn -0.51075 0.857875 0.0564318
v 1.75559 -3.1649 -14.3234
vn -0.425309 0.901816 0.0764231
v 1.77611 -3.15682 -14.319
vn -0.335772 0.937071 0.0956784
v 1.79737 -3.15081 -14.3148
vn -0.243002 0.963302 0.114012
v 1.81917 -3.14693 -14.3108
vn -0.147891 0.980256 0.131248
v 1.84129 -3.14521 -14.3072
vn -0.051356 0.98777 0.14722
v 1.86353 -3.14566 -14.3038
vn 0.0456735 0.98577 0.161774
v 1.88566 -3.1483 -14.3008
vn 0.142263 0.974277 0.17477
v 1.90748 -3.15308 -14.2982
vn 0.237483 0.953402 0.186083
v 1.92878 -3.15997 -14.2961
vn 0.330415 0.923344 0.195604
v 1.94935 -3.1689 -14.2943
vn 0.420166 0.884395 0.203241
v 1.96899 -3.17977 -14.293
vn 0.50587 0.836928 0.208921
v 1.98751 -3.1925 -14.2922
vn 0.586702 0.781401 0.212589
v 2.00474 -3.20695 -14.2918
vn 0.661884 0.718348 0.214209
v 2.02051 -3.22298 -14.2919
vn 0.730691 0.648378 0.213767
v 2.03467 -3.24045 -14.2925
vn 0.792462 0.572163 0.211266
v 2.04708 -3.25918 -14.2935
vn 0.846601 0.490438 0.20673
v 2.05761 -3.27899 -14.295
vn 0.892586 0.40399 0.200203
v 2.06618 -3.29969 -14.2969
vn 0.929976 0.313651 0.191748
v 2.0727 -3.32109 -14.2993
vn 0.958409 0.220292 0.181447
v 2.0771 -3.34297 -14.3021
vn 0.977613 0.124811 0.169398
v 2.07934 -3.36513 -14.3052
vn 0.987401 0.0281282 0.155718
v 2.07941 -3.38735 -14.3087
vn 0.98768 -0.0688256 0.140538
v 2.07729 -3.40941 -14.3125
vn 0.978447 -0.165117 0.124004
v 2.07302 -3.43112 -14.3165
vn 0.959792 -0.259817 0.106277
v 2.06662 -3.45224 -14.3208
vn 0.931893 -0.352016 0.0875257
v 2.05817 -3.4726 -14.3253
vn 0.895019 -0.440824 0.0679317
v 2.04775 -3.49198 -14.33
vn 0.849526 -0.525388 0.0476834
v 2.03545 -3.5102 -14.3347
vn 0.795851 -0.604891 0.0269759
v 2.02139 -3.52708 -14.3395
vn 0.734512 -0.678569 0.00600868
v 2.00571 -3.54247 -14.3443
vn 0.666099 -0.745712 -0.0150164
v 1.98856 -3.55621 -14.3491
vn 0.591272 -0.805673 -0.035897
v 1.97011 -3.56817 -14.3538
vn 0.51075 -0.857875 -0.0564318
v 1.95053 -3.57824 -14.3584
vn 0.425309 -0.901816 -0.0764231
v 1.93001 -3.58632 -14.3628
vn 0.335772 -0.937071 -0.0956784
v 1.90875 -3.59233 -14.367
vn 0.243002 -0.963302 -0.114012
v 1.88695 -3.59622 -14.371
vn 0.147891 -0.980256 -0.131248
v 1.86483 -3.59794 -14.3746
vn 0.051356 -0.98777 -0.14722
v 1.32255 -4.00226 -10.9214
vn -0.0539459 -0.992787 -0.107073
v 1.30361 -4.0 -10.924
vn -0.150496 -0.98126 -0.120333
v 1.28495 -3.99589 -10.9264
vn -0.245596 -0.960283 -0.132433
v 1.26676 -3.98996 -10.9285
vn -0.338331 -0.930059 -0.143259
v 1.2492 -3.98227 -10.9303
vn -0.427808 -0.890877 -0.152704
v 1.23246 -3.9729 -10.9319
vn -0.513165 -0.843115 -0.160679
v 1.21668 -3.96194 -10.9332
vn -0.59358 -0.787234 -0.167107
v 1.20203 -3.94949 -10.9341
vn -0.668278 -0.723772 -0.171925
v 1.18863 -3.93567 -10.9347
vn -0.736541 -0.653339 -0.175087
v 1.17663 -3.92062 -10.935
vn -0.79771 -0.576614 -0.176564
v 1.16614 -3.90448 -10.935
vn -0.851197 -0.494336 -0.17634
v 1.15726 -3.8874 -10.9346
vn -0.896486 -0.407298 -0.174417
v 1.15006 -3.86956 -10.9339
vn -0.933142 -0.316336 -0.170815
v 1.14464 -3.85111 -10.9329
vn -0.960811 -0.222329 -0.165568
v 1.14102 -3.83225 -10.9315
vn -0.979227 -0.12618 -0.158726
v 1.13926 -3.81315 -10.9299
vn -0.988212 -0.028816 -0.150356
v 1.13937 -3.794 -10.9279
vn -0.98768 0.0688256 -0.140538
v 1.14134 -3.77497 -10.9258
vn -0.977637 0.165804 -0.129366
v 1.14515 -3.75626 -10.9233
vn -0.958178 0.261186 -0.116948
v 1.15078 -3.73804 -10.9207
vn -0.929491 0.354053 -0.103405
v 1.15816 -3.72049 -10.9178
vn -0.891853 0.443509 -0.0888648
v 1.16723 -3.70378 -10.9148
vn -0.845626 0.528695 -0.0734693
v 1.1779 -3.68806 -10.9116
vn -0.791255 0.608789 -0.0573662
v 1.19006 -3.6735 -10.9084
vn -0.729264 0.68302 -0.0407107
v 1.2036 -3.66023 -10.905
vn -0.66025 0.750673 -0.023663
v 1.21839 -3.64838 -10.9016
vn -0.584877 0.811097 -0.00638753
v 1.23428 -3.63805 -10.8982
vn -0.503871 0.863709 0.0109495
v 1.25112 -3.62936 -10.8948
vn -0.418013 0.908004 0.0281811
v 1.26876 -3.62239 -10.8915
vn -0.328129 0.943554 0.0451412
v 1.28701 -3.6172 -10.8883
vn -0.235085 0.970017 0.0616667
v 1.30571 -3.61384 -10.8852
vn -0.139778 0.987138 0.0775982
v 1.32467 -3.61235 -10.8822
vn -0.0431235 0.994752 0.0927825
v 1.34371 -3.61273 -10.8794
vn 0.0539459 0.992787 0.107073
v 1.36265 -3.61499 -10.8768
vn 0.150496 0.98126 0.120333
v 1.38131 -3.61911 -10.8744
vn 0.245596 0.960283 0.132433
v 1.3995 -3.62504 -10.8723
vn 0.338331 0.930059 0.143259
v 1.41706 -3.63272 -10.8704
vn 0.427808 0.890877 0.152704
v 1.4338 -3.64209 -10.8689
vn 0.513165 0.843115 0.160679
v 1.44958 -3.65306 -10.8676
vn 0.59358 0.787234 0.167107
v 1.46423 -3.66551 -10.8666
vn 0.668278 0.723772 0.171925
v 1.47763 -3.67932 -10.866
vn 0.736541 0.653339 0.175087
v 1.48963 -3.69438 -10.8657
vn 0.79771 0.576614 0.176564
v 1.50012 -3.71052 -10.8658
vn 0.851197 0.494336 0.17634
v 1.509 -3.72759 -10.8662
vn 0.896486 0.407298 0.174417
v 1.51619 -3.74544 -10.8669
vn 0.933142 0.316336 0.170815
v 1.52162 -3.76388 -10.8679
vn 0.960811 0.222329 0.165568
v 1.52524 -3.78274 -10.8692
vn 0.979227 0.12618 0.158726
v 1.527 -3.80184 -10.8709
vn 0.988212 0.028816 0.150356
v 1.52689 -3.821 -10.8728
vn 0.98768 -0.0688256 0.140538
v 1.52492 -3.84003 -10.875
vn 0.977637 -0.165804 0.129366
v 1.52111 -3.85874 -10.8774
vn 0.958178 -0.261186 0.116948
v 1.51548 -3.87696 -10.8801
vn 0.929491 -0.354053 0.103405
v 1.50809 -3.89451 -10.8829
vn 0.891853 -0.443509 0.0888648
v 1.49903 -3.91122 -10.886
vn 0.845626 -0.528695 0.0734693
v 1.48836 -3.92693 -10.8891
vn 0.791255 -0.608789 0.0573662
v 1.4762 -3.94149 -10.8924
vn 0.729264 -0.68302 0.0407107
v 1.46266 -3.95477 -10.8957
vn 0.66025 -0.750673 0.023663
v 1.44787 -3.96662 -10.8991
vn 0.584877 -0.811097 0.00638753
v 1.43198 -3.97694 -10.9025
vn 0.503871 -0.863709 -0.0109495
v 1.41514 -3.98563 -10.9059
vn 0.418013 -0.908004 -0.0281811
v 1.3975 -3.99261 -10.9092
vn 0.328129 -0.943554 -0.0451412
v 1.37925 -3.9978 -10.9125
vn 0.235085 -0.970017 -0.0616667
v 1.36055 -4.00116 -10.9156
vn 0.139778 -0.987138 -0.0775982
v 1.34159 -4.00265 -10.9186
vn 0.0431235 -0.994752 -0.0927825
f 1 66 2 
f 1 65 66 
f 2 67 3 
f 2 66 67 
f 3 68 4 
f 3 67 68 
f 4 69 5 
f 4 68 69 
f 5 70 6 
f 5 69 70 
f 6 71 7 
f 6 70 71 
f 7 72 8 
f 7 71 72 
f 8 73 9 
f 8 72 73 
f 9 74 10 
f 9 73 74 
f 10 75 11 
f 10 74 75 
f 11 76 12 
f 11 75 76 
f 12 77 13 
f 12 76 77 
f 13 78 14 
f 13 77 78 
f 14 79 15 
f 14 78 79 
f 15 80 16 
f 15 79 80 
f 16 81 17 
f 16 80 81 
f 17 82 18 
f 17 81 82 
f 18 83 19 
f 18 82 83 
f 19 84 20 
f 19 83 84 
f 20 85 21 
f 20 84 85 
f 21 86 22 
f 21 85 86 
f 22 87 23 
f 22 86 87 
f 23 88 24 
f 23 87 88 
f 24 89 25 
f 24 88 89 
f 25 90 26 
f 25 89 90 
f 26 91 27 
f 26 90 91 
f 27 92 28 
f 27 91 92 
f 28 93 29 
f 28 92 93 
f 29 94 30 
f 29 93 94 
f 30 95 31 
f 30 94 95 
f 31 96 32 
f 31 95 96 
f 32 97 33 
f 32 96 97 
f 33 98 34 
f 33 97 98 
f 34 99 35 
f 34 98 99 
f 35 100 36 
f 35 99 100 
f 36 101 37 
f 36 100 101 
f 37 102 38 
f 37 101 102 
f 38 103 39 
f 38 102 103 
f 39 104 40 
f 39 103 104 
f 40 105 41 
f 40 104 105 
f 41 106 42 
f 41 105 106 
f 42 107 43 
f 42 106 107 
f 43 108 44 
f 43 107 108 
f 44 109 45 
f 44 108 109 
f 45 110 46 
f 45 109 110 
f 46 111 47 
f 46 110 111 
f 47 112 48 
f 47 111 112 
f 48 113 49 
f 48 112 113 
f 49 114 50 
f 49 113 114 
f 50 115 51 
f 50 114 115 
f 51 116 52 
f 51 115 116 
f 52 117 53 
f 52 116 117 
f 53 118 54 
f 53 117 118 
f 54 119 55 
f 54 118 119 
f 55 120 56 
f 55 119 120 
f 56 121 57 
f 56 120 121 
f 57 122 58 
f 57 121 122 
f 58 123 59 
f 58 122 123 
f 59 124 60 
f 59 123 124 
f 60 125 61 
f 60 124 125 
f 61 126 62 
f 61 125 126 
f 62 127 63 
f 62 126 127 
f 63 128 64 
f 63 127 128 
f 64 65 1 
f 64 128 65 
f 65 130 66 
f 65 129 130 
f 66 131 67 
f 66 130 131 
f 67 132 68 
f 67 131 132 
f 68 133 69 
f 68 132 133 
f 69 134 70 
f 69 133 134 
f 70 135 71 
f 70 134 135 
f 71 136 72 
f 71 135 136 
f 72 137 73 
f 72 136 137 
f 73 138 74 
f 73 137 138 
f 74 139 75 
f 74 138 139 
f 75 140 76 
f 75 139 140 
f 76 141 77 
f 76 140 141 
f 77 142 78 
f 77 141 142 
f 78 143 79 
f 78 142 143 
f 79 144 80 
f 79 143 144 
f 80 145 81 
f 80 144 145 
f 81 146 82 
f 81 145 146 
f 82 147 83 
f 82 146 147 
f 83 148 84 
f 83 147 148 
f 84 149 85 
f 84 148 149 
f 85 150 86 
f 85 149 150 
f 86 151 87 
f 86 150 151 
f 87 152 88 
f 87 151 152 
f 88 153 89 
f 88 152 153 
f 89 154 90 
f 89 153 154 
f 90 155 91 
f 90 154 155 
f 91 156 92 
f 91 155 156 
f 92 157 93 
f 92 156 157 
f 93 158 94 
f 93 157 158 
f 94 159 95 
f 94 158 159 
f 95 160 96 
f 95 159 160 
f 96 161 97 
f 96 160 161 
f 97 162 98 
f 97 161 162 
f 98 163 99 
f 98 162 163 
f 99 164 100 
f 99 163 164 
f 100 165 101 
f 100 164 165 
f 101 166 102 
f 101 165 166 
f 102 167 103 
f 102 166 167 
f 103 168 104 
f 103 167 168 
f 104 169 105 
f 104 168 169 
f 105 170 106 
f 105 169 170 
f 106 171 107 
f 106 170 171 
f 107 172 108 
f 107 171 172 
f 108 173 109 
f 108 172 173 
f 109 174 110 
f 109 173 174 
f 110 175 111 
f 110 174 175 
f 111 176 112 
f 111 175 176 
f 112 177 113 
f 112 176 177 
f 113 178 114 
f 113 177 178 
f 114 179 115 
f 114 178 179 
f 115 180 116 
f 115 179 180 
f 116 181 117 
f 116 180 181 
f 117 182 118 
f 117 181 182 
f 118 183 119 
f 118 182 183 
f 119 184 120 
f 119 183 184 
f 120 185 121 
f 120 184 185 
f 121 186 122 
f 121 185 186 
f 122 187 123 
f 122 186 187 
f 123 188 124 
f 123 187 188 
f 124 189 125 
f 124 188 189 
f 125 190 126 
f 125 189 190 
f 126 191 127 
f 126 190 191 
f 127 192 128 
f 127 191 192 
f 128 129 65 
f 128 192 129 
f 129 194 130 
f 129 193 194 
f 130 195 131 
f 130 194 195 
f 131 196 132 
f 131 195 196 
f 132 197 133 
f 132 196 197 
f 133 198 134 
f 133 197 198 
f 134 199 135 
f 134 198 199 
f 135 200 136 
f 135 199 200 
f 136 201 137 
f 136 200 201 
f 137 202 138 
f 137 201 202 
f 138 203 139 
f 138 202 203 
f 139 204 140 
f 139 203 204 
f 140 205 141 
f 140 204 205 
f 141 206 142 
f 141 205 206 
f 142 207 143 
f 142 206 207 
f 143 208 144 
f 143 207 208 
f 144 209 145 
f 144 208 209 
f 145 210 146 
f 145 209 210 
f 146 211 147 
f 146 210 211 
f 147 212 148 
f 147 211 212 
f 148 213 149 
f 148 212 213 
f 149 214 150 
f 149 213 214 
f 150 215 151 
f 150 214 215 
f 151 216 152 
f 151 215 216 
f 152 217 153 
f 152 216 217 
f 153 218 154 
f 153 217 218 
f 154 219 155 
f 154 218 219 
f 155 220 156 
f 155 219 220 
f 156 221 157 
f 156 220 221 
f 157 222 158 
f 157 221 222 
f 158 223 159 
f 158 222 223 
f 159 224 160 
f 159 223 224 
f 160 225 161 
f 160 224 225 
f 161 226 162 
f 161 225 226 
f 162 227 163 
f 162 226 227 
f 163 228 164 
f 163 227 228 
f 164 229 165 
f 164 228 229 
f 165 230 166 
f 165 229 230 
f 166 231 167 
f 166 230 231 
f 167 232 168 
f 167 231 232 
f 168 233 169 
f 168 232 233 
f 169 234 170 
f 169 233 234 
f 170 235 171 
f 170 234 235 
f 171 236 172 
f 171 235 236 
f 172 237 173 
f 172 236 237 
f 173 238 174 
f 173 237 238 
f 174 239 175 
f 174 238 239 
f 175 240 176 
f 175 239 240 
f 176 241 177 
f 176 240 241 
f 177 242 178 
f 177 241 242 
f 178 243 179 
f 178 242 243 
f 179 244 180 
f 179 243 244 
f 180 245 181 
f 180 244 245 
f 181 246 182 
f 181 245 246 
f 182 247 183 
f 182 246 247 
f 183 248 184 
f 183 247 248 
f 184 249 185 
f 184 248 249 
f 185 250 186 
f 185 249 250 
f 186 251 187 
f 186 250 251 
f 187 252 188 
f 187 251 252 
f 188 253 189 
f 188 252 253 
f 189 254 190 
f 189 253 254 
f 190 255 191 
f 190 254 255 
f 191 256 192 
f 191 255 256 
f 192 193 129 
f 192 256 193 
f 193 258 194 
f 193 257 258 
f 194 259 195 
f 194 258 259 
f 195 260 196 
f 195 259 260 
f 196 261 197 
f 196 260 261 
f 197 262 198 
f 197 261 262 
f 198 263 199 
f 198 262 263 
f 199 264 200 
f 199 263 264 
f 200 265 201 
f 200 264 265 
f 201 266 202 
f 201 265 266 
f 202 267 203 
f 202 266 267 
f 203 268 204 
f 203 267 268 
f 204 269 205 
f 204 268 269 
f 205 270 206 
f 205 269 270 
f 206 271 207 
f 206 270 271 
f 207 272 208 
f 207 271 272 
f 208 273 209 
f 208 272 273 
f 209 274 210 
f 209 273 274 
f 210 275 211 
f 210 274 275 
f 211 276 212 
f 211 275 276 
f 212 277 213 
f 212 276 277 
f 213 278 214 
f 213 277 278 
f 214 279 215 
f 214 278 279 
f 215 280 216 
f 215 279 280 
f 216 281 217 
f 216 280 281 
f 217 282 218 
f 217 281 282 
f 218 283 219 
f 218 282 283 
f 219 284 220 
f 219 283 284 
f 220 285 221 
f 220 284 285 
f 221 286 222 
f 221 285 286 
f 222 287 223 
f 222 286 287 
f 223 288 224 
f 223 287 288 
f 224 289 225 
f 224 288 289 
f 225 290 226 
f 225 289 290 
f 226 291 227 
f 226 290 291 
f 227 292 228 
f 227 291 292 
f 228 293 229 
f 228 292 293 
f 229 294 230 
f 229 293 294 
f 230 295 231 
f 230 294 295 
f 231 296 232 
f 231 295 296 
f 232 297 233 
f 232 296 297 
f 233 298 234 
f 233 297 298 
f 234 299 235 
f 234 298 299 
f 235 300 236 
f 235 299 300 
f 236 301 237 
f 236 300 301 
f 237 302 238 
f 237 301 302 
f 238 303 239 
f 238 302 303 
f 239 304 240 
f 239 303 304 
f 240 305 241 
f 240 304 305 
f 241 306 242 
f 241 305 306 
f 242 307 243 
f 242 306 307 
f 243 308 244 
f 243 307 308 
f 244 309 245 
f 244 308 309 
f 245 310 246 
f 245 309 310 
f 246 311 247 
f 246 310 311 
f 247 312 248 
f 247 311 312 
f 248 313 249 
f 248 312 313 
f 249 314 250 
f 249 313 314 
f 250 315 251 
f 250 314 315 
f 251 316 252 
f 251 315 316 
f 252 317 253 
f 252 316 317 
f 253 318 254 
f 253 317 318 
f 254 319 255 
f 254 318 319 
f 255 320 256 
f 255 319 320 
f 256 257 193 
f 256 320 257 
f 257 322 258 
f 257 321 322 
f 258 323 259 
f 258 322 323 
f 259 324 260 
f 259 323 324 
f 260 325 261 
f 260 324 325 
f 261 326 262 
f 261 325 326 
f 262 327 263 
f 262 326 327 
f 263 328 264 
f 263 327 328 
f 264 329 265 
f 264 328 329 
f 265 330 266 
f 265 329 330 
f 266 331 267 
f 266 330 331 
f 267 332 268 
f 267 331 332 
f 268 333 269 
f 268 332 333 
f 269 334 270 
f 269 333 334 
f 270 335 271 
f 270 334 335 
f 271 336 272 
f 271 335 336 
f 272 337 273 
f 272 336 337 
f 273 338 274 
f 273 337 338 
f 274 339 275 
f 274 338 339 
f 275 340 276 
f 275 339 340 
f 276 341 277 
f 276 340 341 
f 277 342 278 
f 277 341 342 
f 278 343 279 
f 278 342 343 
f 279 344 280 
f 279 343 344 
f 280 345 281 
f 280 344 345 
f 281 346 282 
f 281 345 346 
f 282 347 283 
f 282 346 347 
f 283 348 284 
f 283 347 348 
f 284 349 285 
f 284 348 349 
f 285 350 286 
f 285 349 350 
f 286 351 287 
f 286 350 351 
f 287 352 288 
f 287 351 352 
f 288 353 289 
f 288 352 353 
f 289 354 290 
f 289 353 354 
f 290 355 291 
f 290 354 355 
f 291 356 292 
f 291 355 356 
f 292 357 293 
f 292 356 357 
f 293 358 294 
f 293 357 358 
f 294 359 295 
f 294 358 359 
f 295 360 296 
f 295 359 360 
f 296 361 297 
f 296 360 361 
f 297 362 298 
f 297 361 362 
f 298 363 299 
f 298 362 363 
f 299 364 300 
f 299 363 364 
f 300 365 301 
f 300 364 365 
f 301 366 302 
f 301 365 366 
f 302 367 303 
f 302 366 367 
f 303 368 304 
f 303 367 368 
f 304 369 305 
f 304 368 369 
f 305 370 306 
f 305 369 370 
f 306 371 307 
f 306 370 371 
f 307 372 308 
f 307 371 372 
f 308 373 309 
f 308 372 373 
f 309 374 310 
f 309 373 374 
f 310 375 311 
f 310 374 375 
f 311 376 312 
f 311 375 376 
f 312 377 313 
f 312 376 377 
f 313 378 314 
f 313 377 378 
f 314 379 315 
f 314 378 379 
f 315 380 316 
f 315 379 380 
f 316 381 317 
f 316 380 381 
f 317 382 318 
f 317 381 382 
f 318 383 319 
f 318 382 383 
f 319 384 320 
f 319 383 384 
f 320 321 257 
f 320 384 321 
f 321 386 322 
f 321 385 386 
f 322 387 323 
f 322 386 387 
f 323 388 324 
f 323 387 388 
f 324 389 325 
f 324 388 389 
f 325 390 326 
f 325 389 390 
f 326 391 327 
f 326 390 391 
f 327 392 328 
f 327 391 392 
f 328 393 329 
f 328 392 393 
f 329 394 330 
f 329 393 394 
f 330 395 331 
f 330 394 395 
f 331 396 332 
f 331 395 396 
f 332 397 333 
f 332 396 397 
f 333 398 334 
f 333 397 398 
f 334 399 335 
f 334 398 399 
f 335 400 336 
f 335 399 400 
f 336 401 337 
f 336 400 401 
f 337 402 338 
f 337 401 402 
f 338 403 339 
f 338 402 403 
f 339 404 340 
f 339 403 404 
f 340 405 341 
f 340 404 405 
f 341 406 342 
f 341 405 406 
f 342 407 343 
f 342 406 407 
f 343 408 344 
f 343 407 408 
f 344 409 345 
f 344 408 409 
f 345 410 346 
f 345 409 410 
f 346 411 347 
f 346 410 411 
f 347 412 348 
f 347 411 412 
f 348 413 349 
f 348 412 413 
f 349 414 350 
f 349 413 414 
f 350 415 351 
f 350 414 415 
f 351 416 352 
f 351 415 416 
f 352 417 353 
f 352 416 417 
f 353 418 354 
f 353 417 418 
f 354 419 355 
f 354 418 419 
f 355 420 356 
f 355 419 420 
f 356 421 357 
f 356 420 421 
f 357 422 358 
f 357 421 422 
f 358 423 359 
f 358 422 423 
f 359 424 360 
f 359 423 424 
f 360 425 361 
f 360 424 425 
f 361 426 362 
f 361 425 426 
f 362 427 363 
f 362 426 427 
f 363 428 364 
f 363 427 428 
f 364 429 365 
f 364 428 429 
f 365 430 366 
f 365 429 430 
f 366 431 367 
f 366 430 431 
f 367 432 368 
f 367 431 432 
f 368 433 369 
f 368 432 433 
f 369 434 370 
f 369 433 434 
f 370 435 371 
f 370 434 435 
f 371 436 372 
f 371 435 436 
f 372 437 373 
f 372 436 437 
f 373 438 374 
f 373 437 438 
f 374 439 375 
f 374 438 439 
f 375 440 376 
f 375 439 440 
f 376 441 377 
f 376 440 441 
f 377 442 378 
f 377 441 442 
f 378 443 379 
f 378 442 443 
f 379 444 380 
f 379 443 444 
f 380 445 381 
f 380 444 445 
f 381 446 382 
f 381 445 446 
f 382 447 383 
f 382 446 447 
f 383 448 384 
f 383 447 448 
f 384 385 321 
f 384 448 385 
f 385 450 386 
f 385 449 450 
f 386 451 387 
f 386 450 451 
f 387 452 388 
f 387 451 452 
f 388 453 389 
f 388 452 453 
f 389 454 390 
f 389 453 454 
f 390 455 391 
f 390 454 455 
f 391 456 392 
f 391 455 456 
f 392 457 393 
f 392 456 457 
f 393 458 394 
f 393 457 458 
f 394 459 395 
f 394 458 459 
f 395 460 396 
f 395 459 460 
f 396 461 397 
f 396 460 461 
f 397 462 398 
f 397 461 462 
f 398 463 399 
f 398 462 463 
f 399 464 400 
f 399 463 464 
f 400 465 401 
f 400 464 465 
f 401 466 402 
f 401 465 466 
f 402 467 403 
f 402 466 467 
f 403 468 404 
f 403 467 468 
f 404 469 405 
f 404 468 469 
f 405 470 406 
f 405 469 470 
f 406 471 407 
f 406 470 471 
f 407 472 408 
f 407 471 472 
f 408 473 409 
f 408 472 473 
f 409 474 410 
f 409 473 474 
f 410 475 411 
f 410 474 475 
f 411 476 412 
f 411 475 476 
f 412 477 413 
f 412 476 477 
f 413 478 414 
f 413 477 478 
f 414 479 415 
f 414 478 479 
f 415 480 416 
f 415 479 480 
f 416 481 417 
f 416 480 481 
f 417 482 418 
f 417 481 482 
f 418 483 419 
f 418 482 483 
f 419 484 420 
f 419 483 484 
f 420 485 421 
f 420 484 485 
f 421 486 422 
f 421 485 486 
f 422 487 423 
f 422 486 487 
f 423 488 424 
f 423 487 488 
f 424 489 425 
f 424 488 489 
f 425 490 426 
f 425 489 490 
f 426 491 427 
f 426 490 491 
f 427 492 428 
f 427 491 492 
f 428 493 429 
f 428 492 493 
f 429 494 430 
f 429 493 494 
f 430 495 431 
f 430 494 495 
f 431 496 432 
f 431 495 496 
f 432 497 433 
f 432 496 497 
f 433 498 434 
f 433 497 498 
f 434 499 435 
f 434 498 499 
f 435 500 436 
f 435 499 500 
f 436 501 437 
f 436 500 501 
f 437 502 438 
f 437 501 502 
f 438 503 439 
f 438 502 503 
f 439 504 440 
f 439 503 504 
f 440 505 441 
f 440 504 505 
f 441 506 442 
f 441 505 506 
f 442 507 443 
f 442 506 507 
f 443 508 444 
f 443 507 508 
f 444 509 445 
f 444 508 509 
f 445 510 446 
f 445 509 510 
f 446 511 447 
f 446 510 511 
f 447 512 448 
f 447 511 512 
f 448 449 385 
f 448 512 449 
f 449 514 450 
f 449 513 514 
f 450 515 451 
f 450 514 515 
f 451 516 452 
f 451 515 516 
f 452 517 453 
f 452 516 517 
f 453 518 454 
f 453 517 518 
f 454 519 455 
f 454 518 519 
f 455 520 456 
f 455 519 520 
f 456 521 457 
f 456 520 521 
f 457 522 458 
f 457 521 522 
f 458 523 459 
f 458 522 523 
f 459 524 460 
f 459 523 524 
f 460 525 461 
f 460 524 525 
f 461 526 462 
f 461 525 526 
f 462 527 463 
f 462 526 527 
f 463 528 464 
f 463 527 528 
f 464 529 465 
f 464 528 529 
f 465 530 466 
f 465 529 530 
f 466 531 467 
f 466 530 531 
f 467 532 468 
f 467 531 532 
f 468 533 469 
f 468 532 533 
f 469 534 470 
f 469 533 534 
f 470 535 471 
f 470 534 535 
f 471 536 472 
f 471 535 536 
f 472 537 473 
f 472 536 537 
f 473 538 474 
f 473 537 538 
f 474 539 475 
f 474 538 539 
f 475 540 476 
f 475 539 540 
f 476 541 477 
f 476 540 541 
f 477 542 478 
f 477 541 542 
f 478 543 479 
f 478 542 543 
f 479 544 480 
f 479 543 544 
f 480 545 481 
f 480 544 545 
f 481 546 482 
f 481 545 546 
f 482 547 483 
f 482 546 547 
f 483 548 484 
f 483 547 548 
f 484 549 485 
f 484 548 549 
f 485 550 486 
f 485 549 550 
f 486 551 487 
f 486 550 551 
f 487 552 488 
f 487 551 552 
f 488 553 489 
f 488 552 553 
f 489 554 490 
f 489 553 554 
f 490 555 491 
f 490 554 555 
f 491 556 492 
f 491 555 556 
f 492 557 493 
f 492 556 557 
f 493 558 494 
f 493 557 558 
f 494 559 495 
f 494 558 559 
f 495 560 496 
f 495 559 560 
f 496 561 497 
f 496 560 561 
f 497 562 498 
f 497 561 562 
f 498 563 499 
f 498 562 563 
f 499 564 500 
f 499 563 564 
f 500 565 501 
f 500 564 565 
f 501 566 502 
f 501 565 566 
f 502 567 503 
f 502 566 567 
f 503 568 504 
f 503 567 568 
f 504 569 505 
f 504 568 569 
f 505 570 506 
f 505 569 570 
f 506 571 507 
f 506 570 571 
f 507 572 508 
f 507 571 572 
f 508 573 509 
f 508 572 573 
f 509 574 510 
f 509 573 574 
f 510 575 511 
f 510 574 575 
f 511 576 512 
f 511 575 576 
f 512 513 449 
f 512 576 513 
f 513 578 514 
f 513 577 578 
f 514 579 515 
f 514 578 579 
f 515 580 516 
f 515 579 580 
f 516 581 517 
f 516 580 581 
f 517 582 518 
f 517 581 582 
f 518 583 519 
f 518 582 583 
f 519 584 520 
f 519 583 584 
f 520 585 521 
f 520 584 585 
f 521 586 522 
f 521 585 586 
f 522 587 523 
f 522 586 587 
f 523 588 524 
f 523 587 588 
f 524 589 525 
f 524 588 589 
f 525 590 526 
f 525 589 590 
f 526 591 527 
f 526 590 591 
f 527 592 528 
f 527 591 592 
f 528 593 529 
f 528 592 593 
f 529 594 530 
f 529 593 594 
f 530 595 531 
f 530 594 595 
f 531 596 532 
f 531 595 596 
f 532 597 533 
f 532 596 597 
f 533 598 534 
f 533 597 598 
f 534 599 535 
f 534 598 599 
f 535 600 536 
f 535 599 600 
f 536 601 537 
f 536 600 601 
f 537 602 538 
f 537 601 602 
f 538 603 539 
f 538 602 603 
f 539 604 540 
f 539 603 604 
f 540 605 541 
f 540 604 605 
f 541 606 542 
f 541 605 606 
f 542 607 543 
f 542 606 607 
f 543 608 544 
f 543 607 608 
f 544 609 545 
f 544 608 609 
f 545 610 546 
f 545 609 610 
f 546 611 547 
f 546 610 611 
f 547 612 548 
f 547 611 612 
f 548 613 549 
f 548 612 613 
f 549 614 550 
f 549 613 614 
f 550 615 551 
f 550 614 615 
f 551 616 552 
f 551 615 616 
f 552 617 553 
f 552 616 617 
f 553 618 554 
f 553 617 618 
f 554 619 555 
f 554 618 619 
f 555 620 556 
f 555 619 620 
f 556 621 557 
f 556 620 621 
f 557 622 558 
f 557 621 622 
f 558 623 559 
f 558 622 623 
f 559 624 560 
f 559 623 624 
f 560 625 561 
f 560 624 625 
f 561 626 562 
f 561 625 626 
f 562 627 563 
f 562 626 627 
f 563 628 564 
f 563 627 628 
f 564 629 565 
f 564 628 629 
f 565 630 566 
f 565 629 630 
f 566 631 567 
f 566 630 631 
f 567 632 568 
f 567 631 632 
f 568 633 569 
f 568 632 633 
f 569 634 570 
f 569 633 634 
f 570 635 571 
f 570 634 635 
f 571 636 572 
f 571 635 636 
f 572 637 573 
f 572 636 637 
f 573 638 574 
f 573 637 638 
f 574 639 575 
f 574 638 639 
f 575 640 576 
f 575 639 640 
f 576 577 513 
f 576 640 577 
