# Branch
v 5.85695 8.17255 -27.5578
vn 0.0244165 -0.52348 -0.851688
v 5.78502 8.18811 -27.5651
vn -0.0710251 -0.50284 -0.861457
v 5.71361 8.20731 -27.5662
vn -0.165783 -0.477357 -0.862929
v 5.6434 8.22998 -27.5611
vn -0.258944 -0.447277 -0.856091
v 5.57507 8.2559 -27.5497
vn -0.349611 -0.412889 -0.841008
v 5.50928 8.28481 -27.5322
vn -0.436911 -0.374525 -0.817826
v 5.44666 8.31644 -27.5088
vn -0.520004 -0.332554 -0.786768
v 5.38782 8.35048 -27.4797
vn -0.598089 -0.287381 -0.748133
v 5.33331 8.38661 -27.4452
vn -0.670413 -0.23944 -0.702292
v 5.28367 8.42448 -27.4055
vn -0.736282 -0.189193 -0.649689
v 5.23937 8.46372 -27.3612
vn -0.795059 -0.137123 -0.590828
v 5.20085 8.50396 -27.3125
vn -0.84618 -0.0837338 -0.526278
v 5.16846 8.5448 -27.2601
vn -0.889151 -0.0295377 -0.456659
v 5.14253 8.58586 -27.2043
vn -0.92356 0.0249429 -0.382642
v 5.12331 8.62673 -27.1457
vn -0.949074 0.0791833 -0.304941
v 5.11097 8.66704 -27.0849
vn -0.965448 0.132661 -0.224302
v 5.10563 8.70637 -27.0225
vn -0.972524 0.184861 -0.141503
v 5.10736 8.74437 -26.9591
vn -0.970234 0.235281 -0.057342
v 5.11613 8.78066 -26.8953
vn -0.958601 0.283435 0.0273716
v 5.13185 8.81489 -26.8316
vn -0.937735 0.328859 0.111822
v 5.15438 8.84674 -26.7688
vn -0.907839 0.371117 0.195195
v 5.1835 8.87589 -26.7074
vn -0.8692 0.4098 0.276688
v 5.21893 8.90207 -26.648
vn -0.822189 0.444536 0.355517
v 5.26032 8.92502 -26.5912
vn -0.767261 0.474992 0.430922
v 5.30729 8.94453 -26.5375
vn -0.704943 0.500873 0.502176
v 5.35937 8.9604 -26.4874
vn -0.635837 0.52193 0.568595
v 5.41606 8.97248 -26.4415
vn -0.560607 0.537961 0.629538
v 5.47683 8.98066 -26.4001
vn -0.479978 0.548811 0.684418
v 5.54107 8.98485 -26.3637
vn -0.394727 0.554376 0.732706
v 5.60819 8.98502 -26.3326
vn -0.305674 0.554602 0.773938
v 5.67752 8.98116 -26.3072
vn -0.213677 0.549486 0.807717
v 5.7484 8.97332 -26.2876
vn -0.119623 0.539079 0.833717
v 5.82015 8.96157 -26.2741
vn -0.0244165 0.52348 0.851688
v 5.89208 8.94601 -26.2667
vn 0.0710251 0.50284 0.861457
v 5.96349 8.92681 -26.2656
vn 0.165783 0.477357 0.862929
v 6.03369 8.90414 -26.2707
vn 0.258944 0.447277 0.856091
v 6.10202 8.87822 -26.2821
vn 0.349611 0.412889 0.841008
v 6.16781 8.84931 -26.2996
vn 0.436911 0.374525 0.817826
v 6.23044 8.81768 -26.323
vn 0.520004 0.332554 0.786768
v 6.28928 8.78364 -26.3521
vn 0.598089 0.287381 0.748133
v 6.34379 8.74751 -26.3866
vn 0.670413 0.23944 0.702292
v 6.39343 8.70964 -26.4263
vn 0.736282 0.189193 0.649689
v 6.43772 8.6704 -26.4706
vn 0.795059 0.137123 0.590828
v 6.47625 8.63016 -26.5193
vn 0.84618 0.0837338 0.526278
v 6.50863 8.58932 -26.5718
vn 0.889151 0.0295377 0.456659
v 6.53456 8.54826 -26.6275
vn 0.92356 -0.0249429 0.382642
v 6.55379 8.50738 -26.6861
vn 0.949074 -0.0791833 0.304941
v 6.56613 8.46708 -26.7469
vn 0.965448 -0.132661 0.224302
v 6.57146 8.42774 -26.8093
vn 0.972524 -0.184861 0.141503
v 6.56974 8.38975 -26.8727
vn 0.970234 -0.235281 0.057342
v 6.56097 8.35346 -26.9365
vn 0.958601 -0.283435 -0.0273716
v 6.54525 8.31922 -27.0002
vn 0.937735 -0.328859 -0.111822
v 6.52272 8.28738 -27.063
vn 0.907839 -0.371117 -0.195195
v 6.4936 8.25822 -27.1244
vn 0.8692 -0.4098 -0.276688
v 6.45817 8.23205 -27.1838
vn 0.822189 -0.444536 -0.355517
v 6.41677 8.20909 -27.2407
vn 0.767261 -0.474992 -0.430922
v 6.36981 8.18959 -27.2944
vn 0.704943 -0.500873 -0.502176
v 6.31773 8.17372 -27.3444
vn 0.635837 -0.52193 -0.568595
v 6.26103 8.16164 -27.3903
vn 0.560607 -0.537961 -0.629538
v 6.20027 8.15346 -27.4317
vn 0.479978 -0.548811 -0.684418
v 6.13602 8.14927 -27.4681
vn 0.394727 -0.554376 -0.732706
v 6.06891 8.1491 -27.4992
vn 0.305674 -0.554602 -0.773938
v 5.99958 8.15295 -27.5246
vn 0.213677 -0.549486 -0.807717
v 5.9287 8.1608 -27.5442
vn 0.119623 -0.539079 -0.833717
v 5.30733 6.28765 -26.2428
vn 0.00608114 -0.587447 -0.80924
v 5.24062 6.30231 -26.2497
vn -0.0892722 -0.566499 -0.819213
v 5.17452 6.32078 -26.2512
vn -0.183766 -0.540095 -0.821296
v 5.10965 6.34289 -26.2471
vn -0.27649 -0.508489 -0.815471
v 5.04665 6.36842 -26.2375
vn -0.366551 -0.471987 -0.801791
v 4.98612 6.39714 -26.2226
vn -0.453082 -0.430939 -0.78039
v 4.92864 6.42876 -26.2023
vn -0.535249 -0.385741 -0.751473
v 4.87477 6.46297 -26.177
vn -0.612262 -0.336828 -0.71532
v 4.82502 6.49946 -26.1469
vn -0.683378 -0.284671 -0.672277
v 4.77987 6.53786 -26.1123
vn -0.747913 -0.229773 -0.62276
v 4.73976 6.57782 -26.0735
vn -0.805246 -0.172662 -0.567245
v 4.70508 6.61893 -26.0308
vn -0.854823 -0.113888 -0.506268
v 4.67616 6.66081 -25.9847
vn -0.896168 -0.0540167 -0.440415
v 4.65328 6.70306 -25.9357
vn -0.928882 0.00637431 -0.37032
v 4.63665 6.74526 -25.8842
vn -0.952651 0.0667039 -0.296659
v 4.62644 6.78702 -25.8306
vn -0.967245 0.126391 -0.220141
v 4.62275 6.82792 -25.7756
vn -0.972524 0.184861 -0.141503
v 4.6256 6.86758 -25.7197
vn -0.968437 0.241551 -0.0615027
v 4.63499 6.90561 -25.6633
vn -0.955024 0.295914 0.0190904
v 4.65081 6.94164 -25.607
vn -0.932413 0.347428 0.0994996
v 4.6729 6.97534 -25.5515
vn -0.900822 0.395596 0.178951
v 4.70107 7.00637 -25.4971
vn -0.860556 0.439954 0.256678
v 4.73504 7.03443 -25.4444
vn -0.812003 0.480074 0.331934
v 4.77447 7.05927 -25.394
vn -0.755629 0.515572 0.403993
v 4.819 7.08063 -25.3464
vn -0.691978 0.546104 0.472161
v 4.86819 7.09831 -25.3018
vn -0.621664 0.571377 0.535782
v 4.92157 7.11214 -25.2609
vn -0.545362 0.591148 0.594243
v 4.97862 7.12198 -25.2241
vn -0.463808 0.605225 0.646982
v 5.03879 7.12775 -25.1915
vn -0.377787 0.613473 0.693489
v 5.10151 7.12939 -25.1637
vn -0.288128 0.615814 0.733318
v 5.16617 7.12688 -25.1407
vn -0.195694 0.612224 0.766085
v 5.23215 7.12024 -25.123
vn -0.101376 0.602738 0.791473
v 5.29882 7.10955 -25.1105
vn -0.00608114 0.587447 0.80924
v 5.36552 7.09489 -25.1036
vn 0.0892722 0.566499 0.819213
v 5.43162 7.07642 -25.1021
vn 0.183766 0.540095 0.821296
v 5.49649 7.05431 -25.1062
vn 0.27649 0.508489 0.815471
v 5.55949 7.02878 -25.1158
vn 0.366551 0.471987 0.801791
v 5.62002 7.00006 -25.1307
vn 0.453082 0.430939 0.78039
v 5.6775 6.96844 -25.151
vn 0.535249 0.385741 0.751473
v 5.73138 6.93423 -25.1763
vn 0.612262 0.336828 0.71532
v 5.78113 6.89774 -25.2064
vn 0.683378 0.284671 0.672277
v 5.82627 6.85934 -25.241
vn 0.747913 0.229773 0.62276
v 5.86638 6.81938 -25.2798
vn 0.805246 0.172662 0.567245
v 5.90106 6.77827 -25.3225
vn 0.854823 0.113888 0.506268
v 5.92998 6.73639 -25.3686
vn 0.896168 0.0540167 0.440415
v 5.95287 6.69414 -25.4176
vn 0.928882 -0.00637431 0.37032
v 5.9695 6.65194 -25.4691
vn 0.952651 -0.0667039 0.296659
v 5.97971 6.61018 -25.5227
vn 0.967245 -0.126391 0.220141
v 5.9834 6.56928 -25.5777
vn 0.972524 -0.184861 0.141503
v 5.98054 6.52962 -25.6336
vn 0.968437 -0.241551 0.0615027
v 5.97116 6.49159 -25.69
vn 0.955024 -0.295914 -0.0190904
v 5.95534 6.45556 -25.7463
vn 0.932413 -0.347428 -0.0994996
v 5.93324 6.42186 -25.8018
vn 0.900822 -0.395596 -0.178951
v 5.90507 6.39083 -25.8562
vn 0.860556 -0.439954 -0.256678
v 5.87111 6.36277 -25.9089
vn 0.812003 -0.480074 -0.331934
v 5.83167 6.33793 -25.9593
vn 0.755629 -0.515572 -0.403993
v 5.78714 6.31657 -26.0069
vn 0.691978 -0.546104 -0.472161
v 5.73795 6.29889 -26.0515
vn 0.621664 -0.571377 -0.535782
v 5.68458 6.28506 -26.0924
vn 0.545362 -0.591148 -0.594243
v 5.62753 6.27522 -26.1292
vn 0.463808 -0.605225 -0.646982
v 5.56735 6.26945 -26.1618
vn 0.377787 -0.613473 -0.693489
v 5.50463 6.26781 -26.1896
vn 0.288128 -0.615814 -0.733318
v 5.43997 6.27032 -26.2126
vn 0.195694 -0.612224 -0.766085
v 5.37399 6.27696 -26.2303
vn 0.101376 -0.602738 -0.791473
v 4.76303 4.53475 -24.7919
vn -0.0126159 -0.648783 -0.760869
v 4.70154 4.54847 -24.7985
vn -0.107879 -0.627539 -0.771075
v 4.64072 4.56608 -24.8003
vn -0.202104 -0.600252 -0.773855
v 4.58115 4.58742 -24.7973
vn -0.294382 -0.567184 -0.769182
v 4.52342 4.61229 -24.7895
vn -0.383824 -0.528654 -0.757102
v 4.46807 4.64045 -24.777
vn -0.469571 -0.485033 -0.737731
v 4.41565 4.67162 -24.7599
vn -0.550795 -0.43674 -0.711254
v 4.36664 4.70551 -24.7384
vn -0.626715 -0.384241 -0.677928
v 4.32153 4.74178 -24.7126
vn -0.696599 -0.328042 -0.638074
v 4.28076 4.7801 -24.6829
vn -0.759775 -0.268684 -0.592074
v 4.2447 4.82008 -24.6496
vn -0.815633 -0.206738 -0.540372
v 4.21372 4.86135 -24.6128
vn -0.863637 -0.142801 -0.483466
v 4.1881 4.90351 -24.5731
vn -0.903323 -0.077489 -0.421904
v 4.1681 4.94615 -24.5307
vn -0.93431 -0.0114306 -0.356279
v 4.15391 4.98886 -24.4862
vn -0.956299 0.0547379 -0.287223
v 4.14566 5.03123 -24.4398
vn -0.969078 0.120379 -0.2154
v 4.14343 5.07285 -24.3921
vn -0.972524 0.184861 -0.141503
v 4.14725 5.11332 -24.3435
vn -0.966605 0.247563 -0.0662438
v 4.15708 5.15225 -24.2945
vn -0.951376 0.30788 0.00965368
v 4.17283 5.18927 -24.2456
vn -0.926985 0.365233 0.0854582
v 4.19433 5.22402 -24.1972
vn -0.893667 0.419068 0.16044
v 4.22139 5.25617 -24.1498
vn -0.851743 0.468867 0.233876
v 4.25375 5.28539 -24.1039
vn -0.801615 0.514151 0.30506
v 4.29109 5.31143 -24.0598
vn -0.743768 0.554483 0.373306
v 4.33305 5.33401 -24.0181
vn -0.678758 0.589476 0.437957
v 4.37923 5.35294 -23.9791
vn -0.607211 0.618791 0.498391
v 4.42919 5.36801 -23.9432
vn -0.529816 0.642147 0.554024
v 4.48244 5.3791 -23.9107
vn -0.447318 0.659319 0.604322
v 4.53847 5.38608 -23.882
vn -0.360513 0.670141 0.6488
v 4.59674 5.3889 -23.8573
vn -0.270236 0.674509 0.68703
v 4.65669 5.38753 -23.8369
vn -0.177357 0.672382 0.718643
v 4.71774 5.38197 -23.821
vn -0.0827689 0.663779 0.743335
v 4.77931 5.3723 -23.8097
vn 0.0126159 0.648783 0.760869
v 4.8408 5.35858 -23.8031
vn 0.107879 0.627539 0.771075
v 4.90162 5.34097 -23.8013
vn 0.202104 0.600252 0.773855
v 4.96118 5.31963 -23.8043
vn 0.294382 0.567184 0.769182
v 5.01892 5.29476 -23.8121
vn 0.383824 0.528654 0.757102
v 5.07426 5.2666 -23.8246
vn 0.469571 0.485033 0.737731
v 5.12669 5.23543 -23.8417
vn 0.550795 0.43674 0.711254
v 5.1757 5.20154 -23.8632
vn 0.626715 0.384241 0.677928
v 5.2208 5.16527 -23.8889
vn 0.696599 0.328042 0.638074
v 5.26158 5.12695 -23.9186
vn 0.759775 0.268684 0.592074
v 5.29764 5.08697 -23.952
vn 0.815633 0.206738 0.540372
v 5.32862 5.0457 -23.9887
vn 0.863637 0.142801 0.483466
v 5.35424 5.00354 -24.0284
vn 0.903323 0.077489 0.421904
v 5.37424 4.9609 -24.0708
vn 0.93431 0.0114306 0.356279
v 5.38843 4.91819 -24.1154
vn 0.956299 -0.0547379 0.287223
v 5.39668 4.87582 -24.1617
vn 0.969078 -0.120379 0.2154
v 5.39891 4.8342 -24.2094
vn 0.972524 -0.184861 0.141503
v 5.39509 4.79373 -24.258
vn 0.966605 -0.247563 0.0662438
v 5.38526 4.7548 -24.307
vn 0.951376 -0.30788 -0.00965368
v 5.36951 4.71778 -24.3559
vn 0.926985 -0.365233 -0.0854582
v 5.34801 4.68303 -24.4043
vn 0.893667 -0.419068 -0.16044
v 5.32095 4.65088 -24.4517
vn 0.851743 -0.468867 -0.233876
v 5.28859 4.62165 -24.4977
vn 0.801615 -0.514151 -0.30506
v 5.25125 4.59562 -24.5417
vn 0.743768 -0.554483 -0.373306
v 5.20929 4.57303 -24.5835
vn 0.678758 -0.589476 -0.437957
v 5.16311 4.55411 -24.6225
vn 0.607211 -0.618791 -0.498391
v 5.11315 4.53904 -24.6584
vn 0.529816 -0.642147 -0.554024
v 5.0599 4.52795 -24.6908
vn 0.447318 -0.659319 -0.604322
v 5.00387 4.52097 -24.7196
vn 0.360513 -0.670141 -0.6488
v 4.9456 4.51815 -24.7442
vn 0.270236 -0.674509 -0.68703
v 4.88565 4.51952 -24.7646
vn 0.177357 -0.672382 -0.718643
v 4.82459 4.52507 -24.7806
vn 0.0827689 -0.663779 -0.743335
v 4.22432 2.91419 -23.2066
vn -0.031319 -0.706193 -0.707327
v 4.16803 2.92692 -23.2128
vn -0.126492 -0.684673 -0.717791
v 4.11247 2.94355 -23.2149
vn -0.220447 -0.656559 -0.721342
v 4.05816 2.96391 -23.2129
vn -0.312279 -0.622122 -0.717946
v 4.00563 2.98782 -23.2068
vn -0.401104 -0.581694 -0.707636
v 3.95538 3.01504 -23.1966
vn -0.486066 -0.535663 -0.690511
v 3.90791 3.04532 -23.1826
vn -0.566346 -0.484474 -0.666736
v 3.86365 3.07835 -23.1647
vn -0.641173 -0.42862 -0.63654
v 3.82305 3.11382 -23.1432
vn -0.709824 -0.368637 -0.600214
v 3.7865 3.15139 -23.1183
vn -0.77164 -0.305104 -0.558107
v 3.75433 3.19071 -23.0903
vn -0.826024 -0.238633 -0.510625
v 3.72687 3.23138 -23.0593
vn -0.872453 -0.169864 -0.458226
v 3.70439 3.27301 -23.0257
vn -0.91048 -0.0994587 -0.401414
v 3.68708 3.31522 -22.9898
vn -0.939739 -0.0280957 -0.340736
v 3.67513 3.35758 -22.952
vn -0.959947 0.0435378 -0.276777
v 3.66865 3.3997 -22.9126
vn -0.970911 0.114752 -0.210152
v 3.66769 3.44116 -22.872
vn -0.972524 0.184861 -0.141503
v 3.67228 3.48157 -22.8306
vn -0.964771 0.25319 -0.0714919
v 3.68236 3.52054 -22.7887
vn -0.947727 0.31908 -0.00079186
v 3.69784 3.55769 -22.7469
vn -0.921556 0.381898 0.0699158
v 3.71856 3.59266 -22.7055
vn -0.88651 0.441038 0.13995
v 3.74434 3.62512 -22.6649
vn -0.842926 0.49593 0.208637
v 3.77491 3.65476 -22.6255
vn -0.791224 0.546046 0.275314
v 3.81 3.68129 -22.5876
vn -0.731903 0.590903 0.33934
v 3.84925 3.70445 -22.5517
vn -0.665533 0.63007 0.400098
v 3.89229 3.72403 -22.518
vn -0.592753 0.663169 0.457002
v 3.93871 3.73983 -22.487
vn -0.514265 0.689881 0.509506
v 3.98805 3.75169 -22.4588
vn -0.430824 0.709949 0.557102
v 4.03985 3.75952 -22.4338
vn -0.343234 0.72318 0.599334
v 4.09361 3.76322 -22.4123
vn -0.252338 0.729447 0.635793
v 4.1488 3.76278 -22.3943
vn -0.159013 0.728688 0.66613
v 4.2049 3.75818 -22.3802
vn -0.0641559 0.720912 0.690051
v 4.26136 3.74947 -22.37
vn 0.031319 0.706193 0.707327
v 4.31765 3.73675 -22.3638
vn 0.126492 0.684673 0.717791
v 4.37321 3.72012 -22.3617
vn 0.220447 0.656559 0.721342
v 4.42752 3.69975 -22.3637
vn 0.312279 0.622122 0.717946
v 4.48005 3.67584 -22.3698
vn 0.401104 0.581694 0.707636
v 4.5303 3.64862 -22.3799
vn 0.486066 0.535663 0.690511
v 4.57778 3.61835 -22.394
vn 0.566346 0.484474 0.666736
v 4.62203 3.58532 -22.4118
vn 0.641173 0.42862 0.63654
v 4.66263 3.54984 -22.4333
vn 0.709824 0.368637 0.600214
v 4.69919 3.51227 -22.4582
vn 0.77164 0.305104 0.558107
v 4.73135 3.47296 -22.4863
vn 0.826024 0.238633 0.510625
v 4.75881 3.43229 -22.5173
vn 0.872453 0.169864 0.458226
v 4.7813 3.39065 -22.5509
vn 0.91048 0.0994587 0.401414
v 4.7986 3.34845 -22.5868
vn 0.939739 0.0280957 0.340736
v 4.81055 3.30608 -22.6246
vn 0.959947 -0.0435378 0.276777
v 4.81703 3.26397 -22.664
vn 0.970911 -0.114752 0.210152
v 4.81799 3.22251 -22.7046
vn 0.972524 -0.184861 0.141503
v 4.8134 3.1821 -22.746
vn 0.964771 -0.25319 0.0714919
v 4.80332 3.14313 -22.7878
vn 0.947727 -0.31908 0.00079186
v 4.78785 3.10598 -22.8296
vn 0.921556 -0.381898 -0.0699158
v 4.76712 3.071 -22.871
vn 0.88651 -0.441038 -0.13995
v 4.74134 3.03854 -22.9117
vn 0.842926 -0.49593 -0.208637
v 4.71077 3.0089 -22.9511
vn 0.791224 -0.546046 -0.275314
v 4.67569 2.98237 -22.989
vn 0.731903 -0.590903 -0.33934
v 4.63643 2.95921 -23.0249
vn 0.665533 -0.63007 -0.400098
v 4.59339 2.93964 -23.0585
vn 0.592753 -0.663169 -0.457002
v 4.54698 2.92384 -23.0896
vn 0.514265 -0.689881 -0.509506
v 4.49763 2.91197 -23.1177
vn 0.430824 -0.709949 -0.557102
v 4.44583 2.90415 -23.1427
vn 0.343234 -0.72318 -0.599334
v 4.39207 2.90044 -23.1643
vn 0.252338 -0.729447 -0.635793
v 4.33688 2.90089 -23.1822
vn 0.159013 -0.728688 -0.66613
v 4.28078 2.90549 -23.1964
vn 0.0641559 -0.720912 -0.690051
v 3.6914 1.42592 -21.4882
vn -0.049667 -0.758588 -0.649675
v 3.64031 1.43762 -21.494
vn -0.144752 -0.736816 -0.660416
v 3.58997 1.45313 -21.4964
vn -0.238443 -0.707948 -0.664797
v 3.54086 1.4723 -21.4953
vn -0.329837 -0.672261 -0.662776
v 3.49346 1.49496 -21.4908
vn -0.418055 -0.630101 -0.654372
v 3.44822 1.52087 -21.4829
vn -0.502247 -0.581872 -0.639666
v 3.40558 1.5498 -21.4716
vn -0.581602 -0.52804 -0.6188
v 3.36595 1.58145 -21.4572
vn -0.655356 -0.469122 -0.591974
v 3.32971 1.61554 -21.4397
vn -0.722798 -0.405686 -0.559447
v 3.29721 1.65172 -21.4194
vn -0.78328 -0.338344 -0.521533
v 3.26877 1.68966 -21.3963
vn -0.836218 -0.267743 -0.478596
v 3.24465 1.72898 -21.3708
vn -0.881103 -0.194563 -0.431049
v 3.22509 1.76931 -21.343
vn -0.917502 -0.11951 -0.379352
v 3.21028 1.81025 -21.3132
vn -0.945065 -0.0433054 -0.324001
v 3.20036 1.85142 -21.2818
vn -0.963527 0.0333159 -0.26553
v 3.19543 1.89242 -21.249
vn -0.972709 0.109616 -0.204501
v 3.19553 1.93285 -21.2152
vn -0.972524 0.184861 -0.141503
v 3.20066 1.97233 -21.1806
vn -0.962973 0.258326 -0.0771428
v 3.21078 2.01046 -21.1456
vn -0.944148 0.329302 -0.0120392
v 3.22578 2.0469 -21.1106
vn -0.91623 0.397108 0.0531802
v 3.24552 2.08128 -21.0758
vn -0.879488 0.461089 0.117888
v 3.26981 2.11327 -21.0416
vn -0.834277 0.520629 0.18146
v 3.29842 2.14257 -21.0084
vn -0.781031 0.575156 0.243284
v 3.33107 2.16889 -20.9765
vn -0.720263 0.624143 0.302766
v 3.36745 2.19198 -20.9461
vn -0.652558 0.66712 0.359331
v 3.40721 2.21162 -20.9175
vn -0.57857 0.703671 0.412436
v 3.44996 2.22762 -20.8911
vn -0.499009 0.733446 0.46157
v 3.49529 2.23982 -20.8671
vn -0.414642 0.756158 0.506258
v 3.54277 2.24811 -20.8457
vn -0.326283 0.771588 0.54607
v 3.59193 2.25241 -20.8272
vn -0.23478 0.779586 0.580623
v 3.64231 2.25268 -20.8116
vn -0.141017 0.780077 0.609585
v 3.69343 2.2489 -20.7992
vn -0.0458962 0.773055 0.632676
v 3.74477 2.24113 -20.7901
vn 0.049667 0.758588 0.649675
v 3.79587 2.22943 -20.7843
vn 0.144752 0.736816 0.660416
v 3.84621 2.21392 -20.7819
vn 0.238443 0.707948 0.664797
v 3.89532 2.19474 -20.783
vn 0.329837 0.672261 0.662776
v 3.94272 2.17209 -20.7875
vn 0.418055 0.630101 0.654372
v 3.98796 2.14618 -20.7954
vn 0.502247 0.581872 0.639666
v 4.03059 2.11725 -20.8067
vn 0.581602 0.52804 0.6188
v 4.07022 2.08559 -20.8211
vn 0.655356 0.469122 0.591974
v 4.10646 2.05151 -20.8385
vn 0.722798 0.405686 0.559447
v 4.13896 2.01532 -20.8589
vn 0.78328 0.338344 0.521533
v 4.16741 1.97739 -20.882
vn 0.836218 0.267743 0.478596
v 4.19152 1.93807 -20.9075
vn 0.881103 0.194563 0.431049
v 4.21108 1.89774 -20.9353
vn 0.917502 0.11951 0.379352
v 4.22589 1.85679 -20.9651
vn 0.945065 0.0433054 0.324001
v 4.23581 1.81562 -20.9965
vn 0.963527 -0.0333159 0.26553
v 4.24075 1.77462 -21.0293
vn 0.972709 -0.109616 0.204501
v 4.24065 1.73419 -21.0631
vn 0.972524 -0.184861 0.141503
v 4.23551 1.69472 -21.0977
vn 0.962973 -0.258326 0.0771428
v 4.2254 1.65658 -21.1327
vn 0.944148 -0.329302 0.0120392
v 4.2104 1.62015 -21.1677
vn 0.91623 -0.397108 -0.0531802
v 4.19066 1.58577 -21.2025
vn 0.879488 -0.461089 -0.117888
v 4.16636 1.55378 -21.2366
vn 0.834277 -0.520629 -0.18146
v 4.13775 1.52448 -21.2699
vn 0.781031 -0.575156 -0.243284
v 4.1051 1.49816 -21.3018
vn 0.720263 -0.624143 -0.302766
v 4.06872 1.47507 -21.3322
vn 0.652558 -0.66712 -0.359331
v 4.02897 1.45542 -21.3608
vn 0.57857 -0.703671 -0.412436
v 3.98622 1.43943 -21.3872
vn 0.499009 -0.733446 -0.46157
v 3.94088 1.42722 -21.4112
vn 0.414642 -0.756158 -0.506258
v 3.89341 1.41893 -21.4326
vn 0.326283 -0.771588 -0.54607
v 3.84424 1.41463 -21.4511
vn 0.23478 -0.779586 -0.580623
v 3.79386 1.41437 -21.4667
vn 0.141017 -0.780077 -0.609585
v 3.74275 1.41814 -21.4791
vn 0.0458962 -0.773055 -0.632676
v 3.16437 0.0694909 -19.6381
vn -0.0673277 -0.805192 -0.58918
v 3.11846 0.0801208 -19.6434
vn -0.162328 -0.783195 -0.600212
v 3.07331 0.0943957 -19.646
vn -0.255764 -0.753656 -0.605465
v 3.02935 0.112178 -19.6457
vn -0.346737 -0.716858 -0.604886
v 2.987 0.133296 -19.6426
vn -0.434372 -0.673157 -0.598482
v 2.94667 0.157548 -19.6367
vn -0.517822 -0.622973 -0.586314
v 2.90875 0.184698 -19.6281
vn -0.596286 -0.566789 -0.5685
v 2.87361 0.214487 -19.6169
vn -0.669008 -0.505147 -0.545211
v 2.84158 0.246626 -19.6031
vn -0.735286 -0.43864 -0.516671
v 2.81297 0.280807 -19.5869
vn -0.794484 -0.367909 -0.483155
v 2.78807 0.3167 -19.5684
vn -0.84603 -0.293634 -0.444986
v 2.76709 0.353959 -19.5479
vn -0.889428 -0.216532 -0.402532
v 2.75026 0.392227 -19.5255
vn -0.92426 -0.137344 -0.356201
v 2.73773 0.431133 -19.5015
vn -0.950192 -0.0568338 -0.30644
v 2.72962 0.470304 -19.476
vn -0.966972 0.024224 -0.253728
v 2.72601 0.509362 -19.4494
vn -0.97444 0.105048 -0.198572
v 2.72694 0.547932 -19.4218
vn -0.972524 0.184861 -0.141503
v 2.73239 0.58564 -19.3935
vn -0.961242 0.262894 -0.0830723
v 2.74232 0.622126 -19.3649
vn -0.940702 0.338394 -0.0238412
v 2.75662 0.657037 -19.3362
vn -0.911103 0.410636 0.0356195
v 2.77516 0.690036 -19.3076
vn -0.87273 0.478923 0.0947372
v 2.79777 0.720807 -19.2795
vn -0.825952 0.542598 0.152943
v 2.82422 0.749052 -19.2521
vn -0.771219 0.601047 0.209675
v 2.85426 0.7745 -19.2256
vn -0.709059 0.653708 0.264388
v 2.88759 0.796906 -19.2004
vn -0.64007 0.700073 0.316555
v 2.92391 0.816054 -19.1767
vn -0.564918 0.739697 0.365673
v 2.96286 0.83176 -19.1547
vn -0.484324 0.772196 0.41127
v 3.00406 0.843871 -19.1345
vn -0.399067 0.797259 0.452906
v 3.04712 0.852272 -19.1165
vn -0.309966 0.814644 0.49018
v 3.09162 0.856882 -19.1008
vn -0.21788 0.824183 0.522734
v 3.13713 0.857656 -19.0875
vn -0.123696 0.825785 0.550253
v 3.18322 0.854587 -19.0768
vn -0.0283205 0.819434 0.572473
v 3.22944 0.847705 -19.0687
vn 0.0673277 0.805192 0.58918
v 3.27535 0.837075 -19.0633
vn 0.162328 0.783195 0.600212
v 3.3205 0.8228 -19.0608
vn 0.255764 0.753656 0.605465
v 3.36447 0.805018 -19.0611
vn 0.346737 0.716858 0.604886
v 3.40682 0.783899 -19.0642
vn 0.434372 0.673157 0.598482
v 3.44714 0.759648 -19.0701
vn 0.517822 0.622973 0.586314
v 3.48506 0.732497 -19.0787
vn 0.596286 0.566789 0.5685
v 3.5202 0.702709 -19.0899
vn 0.669008 0.505147 0.545211
v 3.55223 0.670569 -19.1037
vn 0.735286 0.43864 0.516671
v 3.58084 0.636389 -19.1199
vn 0.794484 0.367909 0.483155
v 3.60575 0.600496 -19.1384
vn 0.84603 0.293634 0.444986
v 3.62672 0.563236 -19.1589
vn 0.889428 0.216532 0.402532
v 3.64355 0.524969 -19.1813
vn 0.92426 0.137344 0.356201
v 3.65608 0.486063 -19.2053
vn 0.950192 0.0568338 0.30644
v 3.66419 0.446892 -19.2308
vn 0.966972 -0.024224 0.253728
v 3.6678 0.407833 -19.2574
vn 0.97444 -0.105048 0.198572
v 3.66688 0.369264 -19.285
vn 0.972524 -0.184861 0.141503
v 3.66142 0.331555 -19.3133
vn 0.961242 -0.262894 0.0830723
v 3.6515 0.29507 -19.3419
vn 0.940702 -0.338394 0.0238412
v 3.6372 0.260159 -19.3706
vn 0.911103 -0.410636 -0.0356195
v 3.61865 0.22716 -19.3992
vn 0.87273 -0.478923 -0.0947372
v 3.59605 0.196389 -19.4273
vn 0.825952 -0.542598 -0.152943
v 3.5696 0.168143 -19.4547
vn 0.771219 -0.601047 -0.209675
v 3.53956 0.142695 -19.4812
vn 0.709059 -0.653708 -0.264388
v 3.50622 0.120289 -19.5064
vn 0.64007 -0.700073 -0.316555
v 3.4699 0.101141 -19.5301
vn 0.564918 -0.739697 -0.365673
v 3.43096 0.0854362 -19.5521
vn 0.484324 -0.772196 -0.41127
v 3.38975 0.0733246 -19.5723
vn 0.399067 -0.797259 -0.452906
v 3.3467 0.0649234 -19.5903
vn 0.309966 -0.814644 -0.49018
v 3.3022 0.0603136 -19.606
vn 0.21788 -0.824183 -0.522734
v 3.25668 0.0595394 -19.6193
vn 0.123696 -0.825785 -0.550253
v 3.21059 0.0626084 -19.63
vn 0.0283205 -0.819434 -0.572473
v 2.64324 -1.15585 -17.6573
vn -0.0840259 -0.845585 -0.527186
v 2.6025 -1.14632 -17.6621
vn -0.178945 -0.823394 -0.538518
v 2.56251 -1.13339 -17.6648
vn -0.272141 -0.793273 -0.544663
v 2.52363 -1.11719 -17.6652
vn -0.362717 -0.755512 -0.545562
v 2.48626 -1.09786 -17.6633
vn -0.449799 -0.710475 -0.541208
v 2.45075 -1.0756 -17.6592
vn -0.532549 -0.658597 -0.531641
v 2.41743 -1.05061 -17.6529
vn -0.61017 -0.600375 -0.516955
v 2.38664 -1.02314 -17.6444
vn -0.681916 -0.536371 -0.497289
v 2.35867 -0.993455 -17.634
vn -0.747094 -0.467202 -0.472835
v 2.33378 -0.961838 -17.6215
vn -0.805077 -0.393534 -0.443827
v 2.31223 -0.928595 -17.6072
vn -0.855307 -0.316075 -0.410545
v 2.29421 -0.894046 -17.5912
vn -0.897299 -0.235573 -0.373309
v 2.27989 -0.858523 -17.5737
vn -0.93065 -0.152802 -0.332478
v 2.26943 -0.822368 -17.5548
vn -0.955039 -0.0685592 -0.288444
v 2.26291 -0.78593 -17.5347
vn -0.97023 0.0163437 -0.241633
v 2.2604 -0.74956 -17.5136
vn -0.976077 0.101089 -0.192495
v 2.26192 -0.713607 -17.4918
vn -0.972524 0.184861 -0.141503
v 2.26747 -0.678418 -17.4693
vn -0.959605 0.266853 -0.0891487
v 2.27698 -0.644333 -17.4464
vn -0.937445 0.346275 -0.0359355
v 2.29036 -0.611678 -17.4235
vn -0.906256 0.422362 0.0176238
v 2.30749 -0.58077 -17.4005
vn -0.86634 0.494381 0.0710134
v 2.3282 -0.551904 -17.3779
vn -0.81808 0.561639 0.123719
v 2.3523 -0.52536 -17.3558
vn -0.761942 0.623488 0.175233
v 2.37954 -0.501393 -17.3344
vn -0.698466 0.679333 0.22506
v 2.40967 -0.480234 -17.314
vn -0.628263 0.728636 0.272719
v 2.44239 -0.462086 -17.2947
vn -0.55201 0.770921 0.317752
v 2.4774 -0.447125 -17.2766
vn -0.47044 0.805782 0.359724
v 2.51435 -0.435494 -17.2601
vn -0.38434 0.832882 0.398233
v 2.55289 -0.427306 -17.2452
vn -0.294539 0.851962 0.432906
v 2.59265 -0.422639 -17.2321
vn -0.201901 0.862837 0.46341
v 2.63324 -0.421538 -17.221
vn -0.107319 0.865402 0.489451
v 2.67428 -0.424014 -17.2118
vn -0.0117027 0.859633 0.510778
v 2.71536 -0.430042 -17.2048
vn 0.0840259 0.845585 0.527186
v 2.7561 -0.439566 -17.1999
vn 0.178945 0.823394 0.538518
v 2.7961 -0.452493 -17.1973
vn 0.272141 0.793273 0.544663
v 2.83497 -0.468699 -17.1969
vn 0.362717 0.755512 0.545562
v 2.87234 -0.488028 -17.1988
vn 0.449799 0.710475 0.541208
v 2.90786 -0.510293 -17.2029
vn 0.532549 0.658597 0.531641
v 2.94117 -0.53528 -17.2092
vn 0.61017 0.600375 0.516955
v 2.97196 -0.562748 -17.2176
vn 0.681916 0.536371 0.497289
v 2.99993 -0.592434 -17.2281
vn 0.747094 0.467202 0.472835
v 3.02482 -0.62405 -17.2405
vn 0.805077 0.393534 0.443827
v 3.04638 -0.657293 -17.2548
vn 0.855307 0.316075 0.410545
v 3.0644 -0.691843 -17.2708
vn 0.897299 0.235573 0.373309
v 3.07871 -0.727366 -17.2883
vn 0.93065 0.152802 0.332478
v 3.08918 -0.76352 -17.3072
vn 0.955039 0.0685592 0.288444
v 3.0957 -0.799958 -17.3273
vn 0.97023 -0.0163437 0.241633
v 3.09821 -0.836329 -17.3484
vn 0.976077 -0.101089 0.192495
v 3.09668 -0.872282 -17.3703
vn 0.972524 -0.184861 0.141503
v 3.09114 -0.90747 -17.3928
vn 0.959605 -0.266853 0.0891487
v 3.08163 -0.941556 -17.4156
vn 0.937445 -0.346275 0.0359355
v 3.06824 -0.97421 -17.4386
vn 0.906256 -0.422362 -0.0176238
v 3.05111 -1.00512 -17.4615
vn 0.86634 -0.494381 -0.0710134
v 3.0304 -1.03398 -17.4841
vn 0.81808 -0.561639 -0.123719
v 3.00631 -1.06053 -17.5062
vn 0.761942 -0.623488 -0.175233
v 2.97906 -1.0845 -17.5276
vn 0.698466 -0.679333 -0.22506
v 2.94893 -1.10565 -17.5481
vn 0.628263 -0.728636 -0.272719
v 2.91621 -1.1238 -17.5674
vn 0.55201 -0.770921 -0.317752
v 2.8812 -1.13876 -17.5854
vn 0.47044 -0.805782 -0.359724
v 2.84425 -1.15039 -17.6019
vn 0.38434 -0.832882 -0.398233
v 2.80571 -1.15858 -17.6168
vn 0.294539 -0.851962 -0.432906
v 2.76595 -1.16325 -17.6299
vn 0.201901 -0.862837 -0.46341
v 2.72536 -1.16435 -17.6411
vn 0.107319 -0.865402 -0.489451
v 2.68432 -1.16187 -17.6502
vn 0.0117027 -0.859633 -0.510778
v 2.12793 -2.25108 -15.5464
vn -0.0995608 -0.879701 -0.464987
v 2.09235 -2.24269 -15.5508
vn -0.194405 -0.857346 -0.476618
v 2.05748 -2.23121 -15.5534
vn -0.287378 -0.826733 -0.483659
v 2.02364 -2.21674 -15.5543
vn -0.377583 -0.788159 -0.486042
v 1.99117 -2.19942 -15.5535
vn -0.464151 -0.741995 -0.483743
v 1.96037 -2.17943 -15.5509
vn -0.54625 -0.688684 -0.476787
v 1.93155 -2.15694 -15.5465
vn -0.623087 -0.628741 -0.465238
v 1.90498 -2.13219 -15.5405
vn -0.693924 -0.562744 -0.449209
v 1.88092 -2.1054 -15.5329
vn -0.758079 -0.491326 -0.428854
v 1.85959 -2.07683 -15.5237
vn -0.814932 -0.415177 -0.404369
v 1.84121 -2.04677 -15.5131
vn -0.863937 -0.335029 -0.375989
v 1.82595 -2.0155 -15.5011
vn -0.904622 -0.251655 -0.343988
v 1.81396 -1.98332 -15.4878
vn -0.936595 -0.165858 -0.308675
v 1.80535 -1.95053 -15.4734
vn -0.959549 -0.0784626 -0.270389
v 1.8002 -1.91747 -15.4581
vn -0.973261 0.00968795 -0.229499
v 1.79858 -1.88444 -15.4419
vn -0.9776 0.0977453 -0.186399
v 1.80048 -1.85176 -15.4251
vn -0.972524 0.184861 -0.141503
v 1.8059 -1.81975 -15.4078
vn -0.958082 0.270197 -0.0952453
v 1.81477 -1.78872 -15.3901
vn -0.934414 0.35293 -0.0480699
v 1.82703 -1.75896 -15.3722
vn -0.901747 0.432265 -0.00043158
v 1.84254 -1.73076 -15.3543
vn -0.860395 0.507437 0.0472109
v 1.86116 -1.7044 -15.3366
vn -0.810757 0.577721 0.0943987
v 1.88271 -1.68012 -15.3193
vn -0.753311 0.642442 0.140677
v 1.90697 -1.65817 -15.3024
vn -0.688611 0.700976 0.185601
v 1.93373 -1.63874 -15.2862
vn -0.617278 0.752759 0.228738
v 1.96272 -1.62204 -15.2709
vn -0.540001 0.797293 0.269671
v 1.99365 -1.60822 -15.2565
vn -0.457524 0.834148 0.308008
v 2.02624 -1.5974 -15.2432
vn -0.37064 0.86297 0.343378
v 2.06017 -1.58971 -15.2312
vn -0.280187 0.883481 0.375441
v 2.09511 -1.58521 -15.2205
vn -0.187035 0.895484 0.403889
v 2.13073 -1.58394 -15.2113
vn -0.0920822 0.898863 0.428447
v 2.16668 -1.58592 -15.2037
vn 0.0037574 0.893585 0.448879
v 2.20262 -1.59113 -15.1976
vn 0.0995608 0.879701 0.464987
v 2.23819 -1.59951 -15.1932
vn 0.194405 0.857346 0.476618
v 2.27306 -1.611 -15.1906
vn 0.287378 0.826733 0.483659
v 2.3069 -1.62547 -15.1897
vn 0.377583 0.788159 0.486042
v 2.33937 -1.64278 -15.1906
vn 0.464151 0.741995 0.483743
v 2.37017 -1.66278 -15.1932
vn 0.54625 0.688684 0.476787
v 2.39899 -1.68526 -15.1975
vn 0.623087 0.628741 0.465238
v 2.42556 -1.71002 -15.2035
vn 0.693924 0.562744 0.449209
v 2.44962 -1.73681 -15.2112
vn 0.758079 0.491326 0.428854
v 2.47095 -1.76537 -15.2204
vn 0.814932 0.415177 0.404369
v 2.48933 -1.79543 -15.231
vn 0.863937 0.335029 0.375989
v 2.50459 -1.82671 -15.243
vn 0.904622 0.251655 0.343988
v 2.51658 -1.85889 -15.2562
vn 0.936595 0.165858 0.308675
v 2.52519 -1.89167 -15.2706
vn 0.959549 0.0784626 0.270389
v 2.53034 -1.92474 -15.2859
vn 0.973261 -0.00968795 0.229499
v 2.53197 -1.95777 -15.3021
vn 0.9776 -0.0977453 0.186399
v 2.53006 -1.99044 -15.319
vn 0.972524 -0.184861 0.141503
v 2.52464 -2.02245 -15.3363
vn 0.958082 -0.270197 0.0952453
v 2.51577 -2.05349 -15.354
vn 0.934414 -0.35293 0.0480699
v 2.50351 -2.08324 -15.3719
vn 0.901747 -0.432265 0.00043158
v 2.488 -2.11144 -15.3897
vn 0.860395 -0.507437 -0.0472109
v 2.46938 -2.1378 -15.4074
vn 0.810757 -0.577721 -0.0943987
v 2.44784 -2.16208 -15.4248
vn 0.753311 -0.642442 -0.140677
v 2.42357 -2.18404 -15.4416
vn 0.688611 -0.700976 -0.185601
v 2.39681 -2.20346 -15.4578
vn 0.617278 -0.752759 -0.228738
v 2.36782 -2.22017 -15.4732
vn 0.540001 -0.797293 -0.269671
v 2.33689 -2.23399 -15.4876
vn 0.457524 -0.834148 -0.308008
v 2.3043 -2.2448 -15.5008
vn 0.37064 -0.86297 -0.343378
v 2.27037 -2.25249 -15.5129
vn 0.280187 -0.883481 -0.375441
v 2.23543 -2.257 -15.5235
vn 0.187035 -0.895484 -0.403889
v 2.19981 -2.25826 -15.5327
vn 0.0920822 -0.898863 -0.428447
v 2.16386 -2.25628 -15.5404
vn -0.0037574 -0.893585 -0.448879
v 1.61828 -3.21729 -13.306
vn -0.113811 -0.907775 -0.403722
v 1.58785 -3.21007 -13.3098
vn -0.208587 -0.885284 -0.415648
v 1.55807 -3.20012 -13.3124
vn -0.301355 -0.854268 -0.423571
v 1.52922 -3.18752 -13.3136
vn -0.39122 -0.815024 -0.427414
v 1.50158 -3.1724 -13.3135
vn -0.477317 -0.767931 -0.427142
v 1.47542 -3.15491 -13.3121
vn -0.558817 -0.713443 -0.422756
v 1.45098 -3.13521 -13.3094
vn -0.634936 -0.652084 -0.414298
v 1.42851 -3.1135 -13.3054
vn -0.70494 -0.584445 -0.40185
v 1.40822 -3.08998 -13.3002
vn -0.768155 -0.511177 -0.385533
v 1.3903 -3.06488 -13.2937
vn -0.823972 -0.432987 -0.365502
v 1.37493 -3.03844 -13.2862
vn -0.871854 -0.350626 -0.341952
v 1.36225 -3.01091 -13.2776
vn -0.91134 -0.264889 -0.315108
v 1.35239 -2.98257 -13.268
vn -0.942049 -0.176601 -0.28523
v 1.34545 -2.95368 -13.2575
vn -0.963685 -0.086612 -0.252605
v 1.34148 -2.92453 -13.2462
vn -0.976041 0.00421106 -0.217547
v 1.34053 -2.89538 -13.2343
vn -0.978997 0.0949936 -0.180394
v 1.34261 -2.86653 -13.2218
vn -0.972524 0.184861 -0.141503
v 1.3477 -2.83826 -13.2089
vn -0.956686 0.272949 -0.10125
v 1.35574 -2.81082 -13.1957
vn -0.931634 0.358407 -0.0600221
v 1.36666 -2.7845 -13.1823
vn -0.89761 0.440414 -0.0182159
v 1.38036 -2.75953 -13.1688
vn -0.854941 0.51818 0.0237657
v 1.3967 -2.73617 -13.1554
vn -0.804039 0.590955 0.0655185
v 1.41552 -2.71463 -13.1422
vn -0.745394 0.658039 0.10664
v 1.43666 -2.69513 -13.1293
vn -0.67957 0.718786 0.146735
v 1.45989 -2.67785 -13.1169
vn -0.607202 0.77261 0.185417
v 1.485 -2.66296 -13.105
vn -0.528985 0.818994 0.222313
v 1.51174 -2.6506 -13.0939
vn -0.445675 0.857491 0.257068
v 1.53986 -2.6409 -13.0835
vn -0.358072 0.887729 0.289347
v 1.56909 -2.63393 -13.0741
vn -0.267021 0.909418 0.31884
v 1.59915 -2.62978 -13.0656
vn -0.173398 0.922349 0.345262
v 1.62974 -2.62848 -13.0582
vn -0.0781055 0.926397 0.368359
v 1.66057 -2.63005 -13.0519
vn 0.0179393 0.921523 0.387909
v 1.69135 -2.63446 -13.0468
vn 0.113811 0.907775 0.403722
v 1.72177 -2.64168 -13.043
vn 0.208587 0.885284 0.415648
v 1.75155 -2.65164 -13.0404
vn 0.301355 0.854268 0.423571
v 1.7804 -2.66424 -13.0392
vn 0.39122 0.815024 0.427414
v 1.80804 -2.67935 -13.0393
vn 0.477317 0.767931 0.427142
v 1.83421 -2.69685 -13.0407
vn 0.558817 0.713443 0.422756
v 1.85864 -2.71654 -13.0434
vn 0.634936 0.652084 0.414298
v 1.88111 -2.73826 -13.0474
vn 0.70494 0.584445 0.40185
v 1.90141 -2.76178 -13.0526
vn 0.768155 0.511177 0.385533
v 1.91933 -2.78688 -13.0591
vn 0.823972 0.432987 0.365502
v 1.9347 -2.81332 -13.0666
vn 0.871854 0.350626 0.341952
v 1.94737 -2.84084 -13.0753
vn 0.91134 0.264889 0.315108
v 1.95723 -2.86919 -13.0848
vn 0.942049 0.176601 0.28523
v 1.96418 -2.89807 -13.0953
vn 0.963685 0.086612 0.252605
v 1.96814 -2.92723 -13.1066
vn 0.976041 -0.00421106 0.217547
v 1.96909 -2.95637 -13.1185
vn 0.978997 -0.0949936 0.180394
v 1.96702 -2.98522 -13.131
vn 0.972524 -0.184861 0.141503
v 1.96193 -3.0135 -13.1439
vn 0.956686 -0.272949 0.10125
v 1.95389 -3.04093 -13.1571
vn 0.931634 -0.358407 0.0600221
v 1.94297 -3.06726 -13.1706
vn 0.89761 -0.440414 0.0182159
v 1.92927 -3.09223 -13.184
vn 0.854941 -0.51818 -0.0237657
v 1.91293 -3.11559 -13.1974
vn 0.804039 -0.590955 -0.0655185
v 1.8941 -3.13712 -13.2106
vn 0.745394 -0.658039 -0.10664
v 1.87297 -3.15662 -13.2235
vn 0.67957 -0.718786 -0.146735
v 1.84974 -3.1739 -13.2359
vn 0.607202 -0.77261 -0.185417
v 1.82463 -3.18879 -13.2478
vn 0.528985 -0.818994 -0.222313
v 1.79788 -3.20115 -13.2589
vn 0.445675 -0.857491 -0.257068
v 1.76976 -3.21086 -13.2693
vn 0.358072 -0.887729 -0.289347
v 1.74053 -3.21782 -13.2788
vn 0.267021 -0.909418 -0.31884
v 1.71048 -3.22197 -13.2872
vn 0.173398 -0.922349 -0.345262
v 1.67989 -3.22327 -13.2947
vn 0.0781055 -0.926397 -0.368359
v 1.64905 -3.22171 -13.3009
vn -0.0179393 -0.921523 -0.387909
v 1.1141 -4.0556 -10.9361
vn -0.12673 -0.930262 -0.344315
v 1.08882 -4.04957 -10.9393
vn -0.221443 -0.907663 -0.356526
v 1.0641 -4.0412 -10.9417
vn -0.314025 -0.876322 -0.365305
v 1.0402 -4.03058 -10.9431
vn -0.403582 -0.836543 -0.370565
v 1.01733 -4.01781 -10.9435
vn -0.489252 -0.788707 -0.372256
v 0.995714 -4.00302 -10.943
vn -0.57021 -0.733275 -0.370363
v 0.975569 -3.98633 -10.9416
vn -0.645677 -0.670781 -0.364902
v 0.957083 -3.96793 -10.9392
vn -0.714926 -0.601827 -0.355928
v 0.940435 -3.94797 -10.9359
vn -0.77729 -0.527078 -0.343525
v 0.925785 -3.92666 -10.9317
vn -0.832168 -0.447252 -0.327814
v 0.913275 -3.9042 -10.9266
vn -0.879031 -0.363119 -0.308947
v 0.903025 -3.88081 -10.9208
vn -0.91743 -0.275489 -0.287104
v 0.895133 -3.85671 -10.9142
vn -0.946992 -0.185206 -0.262496
v 0.889676 -3.83213 -10.907
vn -0.967435 -0.0931396 -0.23536
v 0.886706 -3.80732 -10.8991
vn -0.978561 -0.000175927 -0.205957
v 0.886252 -3.7825 -10.8908
vn -0.980263 0.0927894 -0.174571
v 0.888318 -3.75792 -10.8819
vn -0.972524 0.184861 -0.141503
v 0.892884 -3.73382 -10.8727
vn -0.955419 0.275153 -0.107073
v 0.899906 -3.71042 -10.8633
vn -0.929114 0.362794 -0.071612
v 0.909317 -3.68796 -10.8536
vn -0.89386 0.446942 -0.0354611
v 0.921026 -3.66665 -10.8439
vn -0.849998 0.526785 0.00103137
v 0.93492 -3.64669 -10.8341
vn -0.79795 0.601555 0.0375139
v 0.950865 -3.62827 -10.8245
vn -0.738217 0.670532 0.0736351
v 0.968709 -3.61158 -10.8151
vn -0.671375 0.733052 0.109047
v 0.988278 -3.59678 -10.8059
vn -0.598067 0.788511 0.143409
v 1.00938 -3.584 -10.7971
vn -0.518999 0.836377 0.17639
v 1.03183 -3.57337 -10.7887
vn -0.434934 0.876188 0.207672
v 1.05539 -3.565 -10.7809
vn -0.346679 0.907561 0.236954
v 1.07984 -3.55896 -10.7737
vn -0.255086 0.930193 0.263954
v 1.10494 -3.55531 -10.7672
vn -0.161036 0.943867 0.288412
v 1.13046 -3.55408 -10.7614
vn -0.0654355 0.948452 0.310093
v 1.15615 -3.5553 -10.7564
vn 0.0307954 0.943902 0.328787
v 1.18176 -3.55894 -10.7522
vn 0.12673 0.930262 0.344315
v 1.20704 -3.56497 -10.749
vn 0.221443 0.907663 0.356526
v 1.23176 -3.57334 -10.7466
vn 0.314025 0.876322 0.365305
v 1.25567 -3.58396 -10.7452
vn 0.403582 0.836543 0.370565
v 1.27853 -3.59673 -10.7448
vn 0.489252 0.788707 0.372256
v 1.30015 -3.61152 -10.7453
vn 0.57021 0.733275 0.370363
v 1.32029 -3.62821 -10.7468
vn 0.645677 0.670781 0.364902
v 1.33878 -3.64661 -10.7491
vn 0.714926 0.601827 0.355928
v 1.35543 -3.66657 -10.7525
vn 0.77729 0.527078 0.343525
v 1.37008 -3.68788 -10.7567
vn 0.832168 0.447252 0.327814
v 1.38259 -3.71034 -10.7617
vn 0.879031 0.363119 0.308947
v 1.39284 -3.73373 -10.7675
vn 0.91743 0.275489 0.287104
v 1.40073 -3.75783 -10.7741
vn 0.946992 0.185206 0.262496
v 1.40618 -3.78241 -10.7813
vn 0.967435 0.0931396 0.23536
v 1.40915 -3.80722 -10.7892
vn 0.978561 0.000175927 0.205957
v 1.40961 -3.83204 -10.7976
vn 0.980263 -0.0927894 0.174571
v 1.40754 -3.85662 -10.8064
vn 0.972524 -0.184861 0.141503
v 1.40298 -3.88072 -10.8156
vn 0.955419 -0.275153 0.107073
v 1.39595 -3.90412 -10.825
vn 0.929114 -0.362794 0.071612
v 1.38654 -3.92658 -10.8347
vn 0.89386 -0.446942 0.0354611
v 1.37484 -3.94789 -10.8444
vn 0.849998 -0.526785 -0.00103137
v 1.36094 -3.96785 -10.8542
vn 0.79795 -0.601555 -0.0375139
v 1.345 -3.98627 -10.8638
vn 0.738217 -0.670532 -0.0736351
v 1.32715 -4.00296 -10.8733
vn 0.671375 -0.733052 -0.109047
v 1.30758 -4.01776 -10.8824
vn 0.598067 -0.788511 -0.143409
v 1.28648 -4.03054 -10.8913
vn 0.518999 -0.836377 -0.17639
v 1.26403 -4.04117 -10.8996
vn 0.434934 -0.876188 -0.207672
v 1.24048 -4.04954 -10.9074
vn 0.346679 -0.907561 -0.236954
v 1.21602 -4.05558 -10.9146
vn 0.255086 -0.930193 -0.263954
v 1.19092 -4.05923 -10.9212
vn 0.161036 -0.943867 -0.288412
v 1.1654 -4.06046 -10.9269
vn 0.0654355 -0.948452 -0.310093
v 1.13971 -4.05924 -10.9319
vn -0.0307954 -0.943902 -0.328787
f 1 66 2 
f 1 65 66 
f 2 67 3 
f 2 66 67 
f 3 68 4 
f 3 67 68 
f 4 69 5 
f 4 68 69 
f 5 70 6 
f 5 69 70 
f 6 71 7 
f 6 70 71 
f 7 72 8 
f 7 71 72 
f 8 73 9 
f 8 72 73 
f 9 74 10 
f 9 73 74 
f 10 75 11 
f 10 74 75 
f 11 76 12 
f 11 75 76 
f 12 77 13 
f 12 76 77 
f 13 78 14 
f 13 77 78 
f 14 79 15 
f 14 78 79 
f 15 80 16 
f 15 79 80 
f 16 81 17 
f 16 80 81 
f 17 82 18 
f 17 81 82 
f 18 83 19 
f 18 82 83 
f 19 84 20 
f 19 83 84 
f 20 85 21 
f 20 84 85 
f 21 86 22 
f 21 85 86 
f 22 87 23 
f 22 86 87 
f 23 88 24 
f 23 87 88 
f 24 89 25 
f 24 88 89 
f 25 90 26 
f 25 89 90 
f 26 91 27 
f 26 90 91 
f 27 92 28 
f 27 91 92 
f 28 93 29 
f 28 92 93 
f 29 94 30 
f 29 93 94 
f 30 95 31 
f 30 94 95 
f 31 96 32 
f 31 95 96 
f 32 97 33 
f 32 96 97 
f 33 98 34 
f 33 97 98 
f 34 99 35 
f 34 98 99 
f 35 100 36 
f 35 99 100 
f 36 101 37 
f 36 100 101 
f 37 102 38 
f 37 101 102 
f 38 103 39 
f 38 102 103 
f 39 104 40 
f 39 103 104 
f 40 105 41 
f 40 104 105 
f 41 106 42 
f 41 105 106 
f 42 107 43 
f 42 106 107 
f 43 108 44 
f 43 107 108 
f 44 109 45 
f 44 108 109 
f 45 110 46 
f 45 109 110 
f 46 111 47 
f 46 110 111 
f 47 112 48 
f 47 111 112 
f 48 113 49 
f 48 112 113 
f 49 114 50 
f 49 113 114 
f 50 115 51 
f 50 114 115 
f 51 116 52 
f 51 115 116 
f 52 117 53 
f 52 116 117 
f 53 118 54 
f 53 117 118 
f 54 119 55 
f 54 118 119 
f 55 120 56 
f 55 119 120 
f 56 121 57 
f 56 120 121 
f 57 122 58 
f 57 121 122 
f 58 123 59 
f 58 122 123 
f 59 124 60 
f 59 123 124 
f 60 125 61 
f 60 124 125 
f 61 126 62 
f 61 125 126 
f 62 127 63 
f 62 126 127 
f 63 128 64 
f 63 127 128 
f 64 65 1 
f 64 128 65 
f 65 130 66 
f 65 129 130 
f 66 131 67 
f 66 130 131 
f 67 132 68 
f 67 131 132 
f 68 133 69 
f 68 132 133 
f 69 134 70 
f 69 133 134 
f 70 135 71 
f 70 134 135 
f 71 136 72 
f 71 135 136 
f 72 137 73 
f 72 136 137 
f 73 138 74 
f 73 137 138 
f 74 139 75 
f 74 138 139 
f 75 140 76 
f 75 139 140 
f 76 141 77 
f 76 140 141 
f 77 142 78 
f 77 141 142 
f 78 143 79 
f 78 142 143 
f 79 144 80 
f 79 143 144 
f 80 145 81 
f 80 144 145 
f 81 146 82 
f 81 145 146 
f 82 147 83 
f 82 146 147 
f 83 148 84 
f 83 147 148 
f 84 149 85 
f 84 148 149 
f 85 150 86 
f 85 149 150 
f 86 151 87 
f 86 150 151 
f 87 152 88 
f 87 151 152 
f 88 153 89 
f 88 152 153 
f 89 154 90 
f 89 153 154 
f 90 155 91 
f 90 154 155 
f 91 156 92 
f 91 155 156 
f 92 157 93 
f 92 156 157 
f 93 158 94 
f 93 157 158 
f 94 159 95 
f 94 158 159 
f 95 160 96 
f 95 159 160 
f 96 161 97 
f 96 160 161 
f 97 162 98 
f 97 161 162 
f 98 163 99 
f 98 162 163 
f 99 164 100 
f 99 163 164 
f 100 165 101 
f 100 164 165 
f 101 166 102 
f 101 165 166 
f 102 167 103 
f 102 166 167 
f 103 168 104 
f 103 167 168 
f 104 169 105 
f 104 168 169 
f 105 170 106 
f 105 169 170 
f 106 171 107 
f 106 170 171 
f 107 172 108 
f 107 171 172 
f 108 173 109 
f 108 172 173 
f 109 174 110 
f 109 173 174 
f 110 175 111 
f 110 174 175 
f 111 176 112 
f 111 175 176 
f 112 177 113 
f 112 176 177 
f 113 178 114 
f 113 177 178 
f 114 179 115 
f 114 178 179 
f 115 180 116 
f 115 179 180 
f 116 181 117 
f 116 180 181 
f 117 182 118 
f 117 181 182 
f 118 183 119 
f 118 182 183 
f 119 184 120 
f 119 183 184 
f 120 185 121 
f 120 184 185 
f 121 186 122 
f 121 185 186 
f 122 187 123 
f 122 186 187 
f 123 188 124 
f 123 187 188 
f 124 189 125 
f 124 188 189 
f 125 190 126 
f 125 189 190 
f 126 191 127 
f 126 190 191 
f 127 192 128 
f 127 191 192 
f 128 129 65 
f 128 192 129 
f 129 194 130 
f 129 193 194 
f 130 195 131 
f 130 194 195 
f 131 196 132 
f 131 195 196 
f 132 197 133 
f 132 196 197 
f 133 198 134 
f 133 197 198 
f 134 199 135 
f 134 198 199 
f 135 200 136 
f 135 199 200 
f 136 201 137 
f 136 200 201 
f 137 202 138 
f 137 201 202 
f 138 203 139 
f 138 202 203 
f 139 204 140 
f 139 203 204 
f 140 205 141 
f 140 204 205 
f 141 206 142 
f 141 205 206 
f 142 207 143 
f 142 206 207 
f 143 208 144 
f 143 207 208 
f 144 209 145 
f 144 208 209 
f 145 210 146 
f 145 209 210 
f 146 211 147 
f 146 210 211 
f 147 212 148 
f 147 211 212 
f 148 213 149 
f 148 212 213 
f 149 214 150 
f 149 213 214 
f 150 215 151 
f 150 214 215 
f 151 216 152 
f 151 215 216 
f 152 217 153 
f 152 216 217 
f 153 218 154 
f 153 217 218 
f 154 219 155 
f 154 218 219 
f 155 220 156 
f 155 219 220 
f 156 221 157 
f 156 220 221 
f 157 222 158 
f 157 221 222 
f 158 223 159 
f 158 222 223 
f 159 224 160 
f 159 223 224 
f 160 225 161 
f 160 224 225 
f 161 226 162 
f 161 225 226 
f 162 227 163 
f 162 226 227 
f 163 228 164 
f 163 227 228 
f 164 229 165 
f 164 228 229 
f 165 230 166 
f 165 229 230 
f 166 231 167 
f 166 230 231 
f 167 232 168 
f 167 231 232 
f 168 233 169 
f 168 232 233 
f 169 234 170 
f 169 233 234 
f 170 235 171 
f 170 234 235 
f 171 236 172 
f 171 235 236 
f 172 237 173 
f 172 236 237 
f 173 238 174 
f 173 237 238 
f 174 239 175 
f 174 238 239 
f 175 240 176 
f 175 239 240 
f 176 241 177 
f 176 240 241 
f 177 242 178 
f 177 241 242 
f 178 243 179 
f 178 242 243 
f 179 244 180 
f 179 243 244 
f 180 245 181 
f 180 244 245 
f 181 246 182 
f 181 245 246 
f 182 247 183 
f 182 246 247 
f 183 248 184 
f 183 247 248 
f 184 249 185 
f 184 248 249 
f 185 250 186 
f 185 249 250 
f 186 251 187 
f 186 250 251 
f 187 252 188 
f 187 251 252 
f 188 253 189 
f 188 252 253 
f 189 254 190 
f 189 253 254 
f 190 255 191 
f 190 254 255 
f 191 256 192 
f 191 255 256 
f 192 193 129 
f 192 256 193 
f 193 258 194 
f 193 257 258 
f 194 259 195 
f 194 258 259 
f 195 260 196 
f 195 259 260 
f 196 261 197 
f 196 260 261 
f 197 262 198 
f 197 261 262 
f 198 263 199 
f 198 262 263 
f 199 264 200 
f 199 263 264 
f 200 265 201 
f 200 264 265 
f 201 266 202 
f 201 265 266 
f 202 267 203 
f 202 266 267 
f 203 268 204 
f 203 267 268 
f 204 269 205 
f 204 268 269 
f 205 270 206 
f 205 269 270 
f 206 271 207 
f 206 270 271 
f 207 272 208 
f 207 271 272 
f 208 273 209 
f 208 272 273 
f 209 274 210 
f 209 273 274 
f 210 275 211 
f 210 274 275 
f 211 276 212 
f 211 275 276 
f 212 277 213 
f 212 276 277 
f 213 278 214 
f 213 277 278 
f 214 279 215 
f 214 278 279 
f 215 280 216 
f 215 279 280 
f 216 281 217 
f 216 280 281 
f 217 282 218 
f 217 281 282 
f 218 283 219 
f 218 282 283 
f 219 284 220 
f 219 283 284 
f 220 285 221 
f 220 284 285 
f 221 286 222 
f 221 285 286 
f 222 287 223 
f 222 286 287 
f 223 288 224 
f 223 287 288 
f 224 289 225 
f 224 288 289 
f 225 290 226 
f 225 289 290 
f 226 291 227 
f 226 290 291 
f 227 292 228 
f 227 291 292 
f 228 293 229 
f 228 292 293 
f 229 294 230 
f 229 293 294 
f 230 295 231 
f 230 294 295 
f 231 296 232 
f 231 295 296 
f 232 297 233 
f 232 296 297 
f 233 298 234 
f 233 297 298 
f 234 299 235 
f 234 298 299 
f 235 300 236 
f 235 299 300 
f 236 301 237 
f 236 300 301 
f 237 302 238 
f 237 301 302 
f 238 303 239 
f 238 302 303 
f 239 304 240 
f 239 303 304 
f 240 305 241 
f 240 304 305 
f 241 306 242 
f 241 305 306 
f 242 307 243 
f 242 306 307 
f 243 308 244 
f 243 307 308 
f 244 309 245 
f 244 308 309 
f 245 310 246 
f 245 309 310 
f 246 311 247 
f 246 310 311 
f 247 312 248 
f 247 311 312 
f 248 313 249 
f 248 312 313 
f 249 314 250 
f 249 313 314 
f 250 315 251 
f 250 314 315 
f 251 316 252 
f 251 315 316 
f 252 317 253 
f 252 316 317 
f 253 318 254 
f 253 317 318 
f 254 319 255 
f 254 318 319 
f 255 320 256 
f 255 319 320 
f 256 257 193 
f 256 320 257 
f 257 322 258 
f 257 321 322 
f 258 323 259 
f 258 322 323 
f 259 324 260 
f 259 323 324 
f 260 325 261 
f 260 324 325 
f 261 326 262 
f 261 325 326 
f 262 327 263 
f 262 326 327 
f 263 328 264 
f 263 327 328 
f 264 329 265 
f 264 328 329 
f 265 330 266 
f 265 329 330 
f 266 331 267 
f 266 330 331 
f 267 332 268 
f 267 331 332 
f 268 333 269 
f 268 332 333 
f 269 334 270 
f 269 333 334 
f 270 335 271 
f 270 334 335 
f 271 336 272 
f 271 335 336 
f 272 337 273 
f 272 336 337 
f 273 338 274 
f 273 337 338 
f 274 339 275 
f 274 338 339 
f 275 340 276 
f 275 339 340 
f 276 341 277 
f 276 340 341 
f 277 342 278 
f 277 341 342 
f 278 343 279 
f 278 342 343 
f 279 344 280 
f 279 343 344 
f 280 345 281 
f 280 344 345 
f 281 346 282 
f 281 345 346 
f 282 347 283 
f 282 346 347 
f 283 348 284 
f 283 347 348 
f 284 349 285 
f 284 348 349 
f 285 350 286 
f 285 349 350 
f 286 351 287 
f 286 350 351 
f 287 352 288 
f 287 351 352 
f 288 353 289 
f 288 352 353 
f 289 354 290 
f 289 353 354 
f 290 355 291 
f 290 354 355 
f 291 356 292 
f 291 355 356 
f 292 357 293 
f 292 356 357 
f 293 358 294 
f 293 357 358 
f 294 359 295 
f 294 358 359 
f 295 360 296 
f 295 359 360 
f 296 361 297 
f 296 360 361 
f 297 362 298 
f 297 361 362 
f 298 363 299 
f 298 362 363 
f 299 364 300 
f 299 363 364 
f 300 365 301 
f 300 364 365 
f 301 366 302 
f 301 365 366 
f 302 367 303 
f 302 366 367 
f 303 368 304 
f 303 367 368 
f 304 369 305 
f 304 368 369 
f 305 370 306 
f 305 369 370 
f 306 371 307 
f 306 370 371 
f 307 372 308 
f 307 371 372 
f 308 373 309 
f 308 372 373 
f 309 374 310 
f 309 373 374 
f 310 375 311 
f 310 374 375 
f 311 376 312 
f 311 375 376 
f 312 377 313 
f 312 376 377 
f 313 378 314 
f 313 377 378 
f 314 379 315 
f 314 378 379 
f 315 380 316 
f 315 379 380 
f 316 381 317 
f 316 380 381 
f 317 382 318 
f 317 381 382 
f 318 383 319 
f 318 382 383 
f 319 384 320 
f 319 383 384 
f 320 321 257 
f 320 384 321 
f 321 386 322 
f 321 385 386 
f 322 387 323 
f 322 386 387 
f 323 388 324 
f 323 387 388 
f 324 389 325 
f 324 388 389 
f 325 390 326 
f 325 389 390 
f 326 391 327 
f 326 390 391 
f 327 392 328 
f 327 391 392 
f 328 393 329 
f 328 392 393 
f 329 394 330 
f 329 393 394 
f 330 395 331 
f 330 394 395 
f 331 396 332 
f 331 395 396 
f 332 397 333 
f 332 396 397 
f 333 398 334 
f 333 397 398 
f 334 399 335 
f 334 398 399 
f 335 400 336 
f 335 399 400 
f 336 401 337 
f 336 400 401 
f 337 402 338 
f 337 401 402 
f 338 403 339 
f 338 402 403 
f 339 404 340 
f 339 403 404 
f 340 405 341 
f 340 404 405 
f 341 406 342 
f 341 405 406 
f 342 407 343 
f 342 406 407 
f 343 408 344 
f 343 407 408 
f 344 409 345 
f 344 408 409 
f 345 410 346 
f 345 409 410 
f 346 411 347 
f 346 410 411 
f 347 412 348 
f 347 411 412 
f 348 413 349 
f 348 412 413 
f 349 414 350 
f 349 413 414 
f 350 415 351 
f 350 414 415 
f 351 416 352 
f 351 415 416 
f 352 417 353 
f 352 416 417 
f 353 418 354 
f 353 417 418 
f 354 419 355 
f 354 418 419 
f 355 420 356 
f 355 419 420 
f 356 421 357 
f 356 420 421 
f 357 422 358 
f 357 421 422 
f 358 423 359 
f 358 422 423 
f 359 424 360 
f 359 423 424 
f 360 425 361 
f 360 424 425 
f 361 426 362 
f 361 425 426 
f 362 427 363 
f 362 426 427 
f 363 428 364 
f 363 427 428 
f 364 429 365 
f 364 428 429 
f 365 430 366 
f 365 429 430 
f 366 431 367 
f 366 430 431 
f 367 432 368 
f 367 431 432 
f 368 433 369 
f 368 432 433 
f 369 434 370 
f 369 433 434 
f 370 435 371 
f 370 434 435 
f 371 436 372 
f 371 435 436 
f 372 437 373 
f 372 436 437 
f 373 438 374 
f 373 437 438 
f 374 439 375 
f 374 438 439 
f 375 440 376 
f 375 439 440 
f 376 441 377 
f 376 440 441 
f 377 442 378 
f 377 441 442 
f 378 443 379 
f 378 442 443 
f 379 444 380 
f 379 443 444 
f 380 445 381 
f 380 444 445 
f 381 446 382 
f 381 445 446 
f 382 447 383 
f 382 446 447 
f 383 448 384 
f 383 447 448 
f 384 385 321 
f 384 448 385 
f 385 450 386 
f 385 449 450 
f 386 451 387 
f 386 450 451 
f 387 452 388 
f 387 451 452 
f 388 453 389 
f 388 452 453 
f 389 454 390 
f 389 453 454 
f 390 455 391 
f 390 454 455 
f 391 456 392 
f 391 455 456 
f 392 457 393 
f 392 456 457 
f 393 458 394 
f 393 457 458 
f 394 459 395 
f 394 458 459 
f 395 460 396 
f 395 459 460 
f 396 461 397 
f 396 460 461 
f 397 462 398 
f 397 461 462 
f 398 463 399 
f 398 462 463 
f 399 464 400 
f 399 463 464 
f 400 465 401 
f 400 464 465 
f 401 466 402 
f 401 465 466 
f 402 467 403 
f 402 466 467 
f 403 468 404 
f 403 467 468 
f 404 469 405 
f 404 468 469 
f 405 470 406 
f 405 469 470 
f 406 471 407 
f 406 470 471 
f 407 472 408 
f 407 471 472 
f 408 473 409 
f 408 472 473 
f 409 474 410 
f 409 473 474 
f 410 475 411 
f 410 474 475 
f 411 476 412 
f 411 475 476 
f 412 477 413 
f 412 476 477 
f 413 478 414 
f 413 477 478 
f 414 479 415 
f 414 478 479 
f 415 480 416 
f 415 479 480 
f 416 481 417 
f 416 480 481 
f 417 482 418 
f 417 481 482 
f 418 483 419 
f 418 482 483 
f 419 484 420 
f 419 483 484 
f 420 485 421 
f 420 484 485 
f 421 486 422 
f 421 485 486 
f 422 487 423 
f 422 486 487 
f 423 488 424 
f 423 487 488 
f 424 489 425 
f 424 488 489 
f 425 490 426 
f 425 489 490 
f 426 491 427 
f 426 490 491 
f 427 492 428 
f 427 491 492 
f 428 493 429 
f 428 492 493 
f 429 494 430 
f 429 493 494 
f 430 495 431 
f 430 494 495 
f 431 496 432 
f 431 495 496 
f 432 497 433 
f 432 496 497 
f 433 498 434 
f 433 497 498 
f 434 499 435 
f 434 498 499 
f 435 500 436 
f 435 499 500 
f 436 501 437 
f 436 500 501 
f 437 502 438 
f 437 501 502 
f 438 503 439 
f 438 502 503 
f 439 504 440 
f 439 503 504 
f 440 505 441 
f 440 504 505 
f 441 506 442 
f 441 505 506 
f 442 507 443 
f 442 506 507 
f 443 508 444 
f 443 507 508 
f 444 509 445 
f 444 508 509 
f 445 510 446 
f 445 509 510 
f 446 511 447 
f 446 510 511 
f 447 512 448 
f 447 511 512 
f 448 449 385 
f 448 512 449 
f 449 514 450 
f 449 513 514 
f 450 515 451 
f 450 514 515 
f 451 516 452 
f 451 515 516 
f 452 517 453 
f 452 516 517 
f 453 518 454 
f 453 517 518 
f 454 519 455 
f 454 518 519 
f 455 520 456 
f 455 519 520 
f 456 521 457 
f 456 520 521 
f 457 522 458 
f 457 521 522 
f 458 523 459 
f 458 522 523 
f 459 524 460 
f 459 523 524 
f 460 525 461 
f 460 524 525 
f 461 526 462 
f 461 525 526 
f 462 527 463 
f 462 526 527 
f 463 528 464 
f 463 527 528 
f 464 529 465 
f 464 528 529 
f 465 530 466 
f 465 529 530 
f 466 531 467 
f 466 530 531 
f 467 532 468 
f 467 531 532 
f 468 533 469 
f 468 532 533 
f 469 534 470 
f 469 533 534 
f 470 535 471 
f 470 534 535 
f 471 536 472 
f 471 535 536 
f 472 537 473 
f 472 536 537 
f 473 538 474 
f 473 537 538 
f 474 539 475 
f 474 538 539 
f 475 540 476 
f 475 539 540 
f 476 541 477 
f 476 540 541 
f 477 542 478 
f 477 541 542 
f 478 543 479 
f 478 542 543 
f 479 544 480 
f 479 543 544 
f 480 545 481 
f 480 544 545 
f 481 546 482 
f 481 545 546 
f 482 547 483 
f 482 546 547 
f 483 548 484 
f 483 547 548 
f 484 549 485 
f 484 548 549 
f 485 550 486 
f 485 549 550 
f 486 551 487 
f 486 550 551 
f 487 552 488 
f 487 551 552 
f 488 553 489 
f 488 552 553 
f 489 554 490 
f 489 553 554 
f 490 555 491 
f 490 554 555 
f 491 556 492 
f 491 555 556 
f 492 557 493 
f 492 556 557 
f 493 558 494 
f 493 557 558 
f 494 559 495 
f 494 558 559 
f 495 560 496 
f 495 559 560 
f 496 561 497 
f 496 560 561 
f 497 562 498 
f 497 561 562 
f 498 563 499 
f 498 562 563 
f 499 564 500 
f 499 563 564 
f 500 565 501 
f 500 564 565 
f 501 566 502 
f 501 565 566 
f 502 567 503 
f 502 566 567 
f 503 568 504 
f 503 567 568 
f 504 569 505 
f 504 568 569 
f 505 570 506 
f 505 569 570 
f 506 571 507 
f 506 570 571 
f 507 572 508 
f 507 571 572 
f 508 573 509 
f 508 572 573 
f 509 574 510 
f 509 573 574 
f 510 575 511 
f 510 574 575 
f 511 576 512 
f 511 575 576 
f 512 513 449 
f 512 576 513 
f 513 578 514 
f 513 577 578 
f 514 579 515 
f 514 578 579 
f 515 580 516 
f 515 579 580 
f 516 581 517 
f 516 580 581 
f 517 582 518 
f 517 581 582 
f 518 583 519 
f 518 582 583 
f 519 584 520 
f 519 583 584 
f 520 585 521 
f 520 584 585 
f 521 586 522 
f 521 585 586 
f 522 587 523 
f 522 586 587 
f 523 588 524 
f 523 587 588 
f 524 589 525 
f 524 588 589 
f 525 590 526 
f 525 589 590 
f 526 591 527 
f 526 590 591 
f 527 592 528 
f 527 591 592 
f 528 593 529 
f 528 592 593 
f 529 594 530 
f 529 593 594 
f 530 595 531 
f 530 594 595 
f 531 596 532 
f 531 595 596 
f 532 597 533 
f 532 596 597 
f 533 598 534 
f 533 597 598 
f 534 599 535 
f 534 598 599 
f 535 600 536 
f 535 599 600 
f 536 601 537 
f 536 600 601 
f 537 602 538 
f 537 601 602 
f 538 603 539 
f 538 602 603 
f 539 604 540 
f 539 603 604 
f 540 605 541 
f 540 604 605 
f 541 606 542 
f 541 605 606 
f 542 607 543 
f 542 606 607 
f 543 608 544 
f 543 607 608 
f 544 609 545 
f 544 608 609 
f 545 610 546 
f 545 609 610 
f 546 611 547 
f 546 610 611 
f 547 612 548 
f 547 611 612 
f 548 613 549 
f 548 612 613 
f 549 614 550 
f 549 613 614 
f 550 615 551 
f 550 614 615 
f 551 616 552 
f 551 615 616 
f 552 617 553 
f 552 616 617 
f 553 618 554 
f 553 617 618 
f 554 619 555 
f 554 618 619 
f 555 620 556 
f 555 619 620 
f 556 621 557 
f 556 620 621 
f 557 622 558 
f 557 621 622 
f 558 623 559 
f 558 622 623 
f 559 624 560 
f 559 623 624 
f 560 625 561 
f 560 624 625 
f 561 626 562 
f 561 625 626 
f 562 627 563 
f 562 626 627 
f 563 628 564 
f 563 627 628 
f 564 629 565 
f 564 628 629 
f 565 630 566 
f 565 629 630 
f 566 631 567 
f 566 630 631 
f 567 632 568 
f 567 631 632 
f 568 633 569 
f 568 632 633 
f 569 634 570 
f 569 633 634 
f 570 635 571 
f 570 634 635 
f 571 636 572 
f 571 635 636 
f 572 637 573 
f 572 636 637 
f 573 638 574 
f 573 637 638 
f 574 639 575 
f 574 638 639 
f 575 640 576 
f 575 639 640 
f 576 577 513 
f 576 640 577 
